<svg width="50" height="86" viewBox="0 0 50 86" fill="none" xmlns="http://www.w3.org/2000/svg">
<path d="M6.84001 9.95594C6.92801 9.95594 7.00401 9.98994 7.06801 10.0579L7.70401 10.7479C7.35201 11.1839 6.91801 11.5179 6.40201 11.7499C5.89001 11.9819 5.27401 12.0979 4.55401 12.0979C3.91001 12.0979 3.33001 11.9879 2.81401 11.7679C2.30201 11.5479 1.86401 11.2419 1.50001 10.8499C1.13601 10.4579 0.856009 9.98994 0.660009 9.44594C0.468009 8.90194 0.372009 8.30794 0.372009 7.66394C0.372009 7.01194 0.480009 6.41594 0.696009 5.87594C0.912009 5.33194 1.21601 4.86394 1.60801 4.47194C2.00001 4.07994 2.46801 3.77594 3.01201 3.55994C3.56001 3.33994 4.16401 3.22994 4.82401 3.22994C5.46801 3.22994 6.03001 3.33394 6.51001 3.54194C6.99401 3.74594 7.40801 4.01794 7.75201 4.35794L7.21201 5.10794C7.18001 5.15594 7.13801 5.19794 7.08601 5.23394C7.03801 5.26994 6.97001 5.28794 6.88201 5.28794C6.79001 5.28794 6.69601 5.25194 6.60001 5.17994C6.50401 5.10794 6.38201 5.02994 6.23401 4.94594C6.08601 4.86194 5.89801 4.78394 5.67001 4.71194C5.44601 4.63994 5.16001 4.60394 4.81201 4.60394C4.40401 4.60394 4.02801 4.67594 3.68401 4.81994C3.34401 4.95994 3.05001 5.16194 2.80201 5.42594C2.55801 5.68994 2.36601 6.01194 2.22601 6.39194C2.09001 6.76794 2.02201 7.19194 2.02201 7.66394C2.02201 8.15194 2.09001 8.58594 2.22601 8.96594C2.36601 9.34594 2.55401 9.66594 2.79001 9.92594C3.02601 10.1859 3.30401 10.3859 3.62401 10.5259C3.94401 10.6619 4.28801 10.7299 4.65601 10.7299C4.87601 10.7299 5.07401 10.7179 5.25001 10.6939C5.43001 10.6699 5.59401 10.6319 5.74201 10.5799C5.89401 10.5279 6.03601 10.4619 6.16801 10.3819C6.30401 10.2979 6.43801 10.1959 6.57001 10.0759C6.61001 10.0399 6.65201 10.0119 6.69601 9.99194C6.74001 9.96794 6.78801 9.95594 6.84001 9.95594ZM8.84279 12.0019V3.08594H10.3248V6.51194C10.5648 6.28394 10.8288 6.09994 11.1168 5.95994C11.4048 5.81994 11.7428 5.74994 12.1308 5.74994C12.4668 5.74994 12.7648 5.80794 13.0248 5.92394C13.2848 6.03594 13.5008 6.19594 13.6728 6.40394C13.8488 6.60794 13.9808 6.85394 14.0688 7.14194C14.1608 7.42594 14.2068 7.73994 14.2068 8.08394V12.0019H12.7248V8.08394C12.7248 7.70794 12.6368 7.41794 12.4608 7.21394C12.2888 7.00594 12.0288 6.90194 11.6808 6.90194C11.4248 6.90194 11.1848 6.95994 10.9608 7.07594C10.7368 7.19194 10.5248 7.34994 10.3248 7.54994V12.0019H8.84279ZM17.2411 5.84594V12.0019H15.7591V5.84594H17.2411ZM17.4631 4.05194C17.4631 4.17994 17.4371 4.29994 17.3851 4.41194C17.3331 4.52394 17.2631 4.62194 17.1751 4.70594C17.0911 4.78994 16.9911 4.85794 16.8751 4.90994C16.7591 4.95794 16.6351 4.98194 16.5031 4.98194C16.3751 4.98194 16.2531 4.95794 16.1371 4.90994C16.0251 4.85794 15.9271 4.78994 15.8431 4.70594C15.7591 4.62194 15.6911 4.52394 15.6391 4.41194C15.5911 4.29994 15.5671 4.17994 15.5671 4.05194C15.5671 3.91994 15.5911 3.79594 15.6391 3.67994C15.6911 3.56394 15.7591 3.46394 15.8431 3.37994C15.9271 3.29594 16.0251 3.22994 16.1371 3.18194C16.2531 3.12994 16.3751 3.10394 16.5031 3.10394C16.6351 3.10394 16.7591 3.12994 16.8751 3.18194C16.9911 3.22994 17.0911 3.29594 17.1751 3.37994C17.2631 3.46394 17.3331 3.56394 17.3851 3.67994C17.4371 3.79594 17.4631 3.91994 17.4631 4.05194ZM20.4989 3.08594V12.0019H19.0169V3.08594H20.4989ZM26.5107 12.0019C26.3187 12.0019 26.1927 11.9119 26.1327 11.7319L26.0127 11.1379C25.8847 11.2819 25.7507 11.4119 25.6107 11.5279C25.4707 11.6439 25.3187 11.7439 25.1547 11.8279C24.9947 11.9119 24.8207 11.9759 24.6327 12.0199C24.4487 12.0679 24.2487 12.0919 24.0327 12.0919C23.6967 12.0919 23.3887 12.0219 23.1087 11.8819C22.8287 11.7419 22.5867 11.5399 22.3827 11.2759C22.1827 11.0079 22.0267 10.6779 21.9147 10.2859C21.8067 9.89394 21.7527 9.44594 21.7527 8.94194C21.7527 8.48594 21.8147 8.06194 21.9387 7.66994C22.0627 7.27794 22.2407 6.93794 22.4727 6.64994C22.7047 6.36194 22.9827 6.13794 23.3067 5.97794C23.6307 5.81394 23.9947 5.73194 24.3987 5.73194C24.7427 5.73194 25.0367 5.78794 25.2807 5.89994C25.5247 6.00794 25.7427 6.15394 25.9347 6.33794V3.08594H27.4167V12.0019H26.5107ZM24.5367 10.9159C24.8447 10.9159 25.1067 10.8519 25.3227 10.7239C25.5387 10.5959 25.7427 10.4139 25.9347 10.1779V7.41794C25.7667 7.21394 25.5827 7.06994 25.3827 6.98594C25.1867 6.90194 24.9747 6.85994 24.7467 6.85994C24.5227 6.85994 24.3187 6.90194 24.1347 6.98594C23.9547 7.06994 23.8007 7.19794 23.6727 7.36994C23.5487 7.53794 23.4527 7.75394 23.3847 8.01794C23.3167 8.27794 23.2827 8.58594 23.2827 8.94194C23.2827 9.30194 23.3107 9.60794 23.3667 9.85994C23.4267 10.1079 23.5107 10.3119 23.6187 10.4719C23.7267 10.6279 23.8587 10.7419 24.0147 10.8139C24.1707 10.8819 24.3447 10.9159 24.5367 10.9159ZM29.0225 12.0019V5.84594H29.8925C30.0445 5.84594 30.1505 5.87394 30.2105 5.92994C30.2705 5.98594 30.3105 6.08194 30.3305 6.21794L30.4205 6.96194C30.6405 6.58194 30.8985 6.28194 31.1945 6.06194C31.4905 5.84194 31.8225 5.73194 32.1905 5.73194C32.4945 5.73194 32.7465 5.80194 32.9465 5.94194L32.7545 7.05194C32.7425 7.12394 32.7165 7.17594 32.6765 7.20794C32.6365 7.23594 32.5825 7.24994 32.5145 7.24994C32.4545 7.24994 32.3725 7.23594 32.2685 7.20794C32.1645 7.17994 32.0265 7.16594 31.8545 7.16594C31.5465 7.16594 31.2825 7.25194 31.0625 7.42394C30.8425 7.59194 30.6565 7.83994 30.5045 8.16794V12.0019H29.0225ZM36.4649 5.74994C36.8529 5.74994 37.2089 5.81194 37.5329 5.93594C37.8609 6.05994 38.1429 6.24194 38.3789 6.48194C38.6149 6.71794 38.7989 7.00994 38.9309 7.35794C39.0629 7.70194 39.1289 8.09594 39.1289 8.53994C39.1289 8.65194 39.1229 8.74594 39.1109 8.82194C39.1029 8.89394 39.0849 8.95194 39.0569 8.99594C39.0329 9.03594 38.9989 9.06594 38.9549 9.08594C38.9109 9.10194 38.8549 9.10994 38.7869 9.10994H34.9829C35.0269 9.74194 35.1969 10.2059 35.4929 10.5019C35.7889 10.7979 36.1809 10.9459 36.6689 10.9459C36.9089 10.9459 37.1149 10.9179 37.2869 10.8619C37.4629 10.8059 37.6149 10.7439 37.7429 10.6759C37.8749 10.6079 37.9889 10.5459 38.0849 10.4899C38.1849 10.4339 38.2809 10.4059 38.3729 10.4059C38.4329 10.4059 38.4849 10.4179 38.5289 10.4419C38.5729 10.4659 38.6109 10.4999 38.6429 10.5439L39.0749 11.0839C38.9109 11.2759 38.7269 11.4379 38.5229 11.5699C38.3189 11.6979 38.1049 11.8019 37.8809 11.8819C37.6609 11.9579 37.4349 12.0119 37.2029 12.0439C36.9749 12.0759 36.7529 12.0919 36.5369 12.0919C36.1089 12.0919 35.7109 12.0219 35.3429 11.8819C34.9749 11.7379 34.6549 11.5279 34.3829 11.2519C34.1109 10.9719 33.8969 10.6279 33.7409 10.2199C33.5849 9.80794 33.5069 9.33194 33.5069 8.79194C33.5069 8.37194 33.5749 7.97794 33.7109 7.60994C33.8469 7.23794 34.0409 6.91594 34.2929 6.64394C34.5489 6.36794 34.8589 6.14994 35.2229 5.98994C35.5909 5.82994 36.0049 5.74994 36.4649 5.74994ZM36.4949 6.81194C36.0629 6.81194 35.7249 6.93394 35.4809 7.17794C35.2369 7.42194 35.0809 7.76794 35.0129 8.21594H37.7969C37.7969 8.02394 37.7709 7.84394 37.7189 7.67594C37.6669 7.50394 37.5869 7.35394 37.4789 7.22594C37.3709 7.09794 37.2349 6.99794 37.0709 6.92594C36.9069 6.84994 36.7149 6.81194 36.4949 6.81194ZM40.3311 12.0019V5.84594H41.2371C41.4291 5.84594 41.5551 5.93594 41.6151 6.11594L41.7171 6.60194C41.8411 6.47394 41.9711 6.35794 42.1071 6.25394C42.2471 6.14994 42.3931 6.05994 42.5451 5.98394C42.7011 5.90794 42.8671 5.84994 43.0431 5.80994C43.2191 5.76994 43.4111 5.74994 43.6191 5.74994C43.9551 5.74994 44.2531 5.80794 44.5131 5.92394C44.7731 6.03594 44.9891 6.19594 45.1611 6.40394C45.3371 6.60794 45.4691 6.85394 45.5571 7.14194C45.6491 7.42594 45.6951 7.73994 45.6951 8.08394V12.0019H44.2131V8.08394C44.2131 7.70794 44.1251 7.41794 43.9491 7.21394C43.7771 7.00594 43.5171 6.90194 43.1691 6.90194C42.9131 6.90194 42.6731 6.95994 42.4491 7.07594C42.2251 7.19194 42.0131 7.34994 41.8131 7.54994V12.0019H40.3311Z" fill="white"/>
<path d="M15.5973 61.1796C15.3095 61.3325 15.0628 61.344 15.1167 61.3932C16.8412 61.1685 18.7695 62.783 20.3725 63.6053C21.5587 64.4412 22.7354 65.5157 23.7064 66.5563C24.3471 67.2429 24.9423 67.969 25.5408 68.6918C25.7069 68.8924 26.0464 69.099 26.2868 69.2058C26.4512 69.2789 26.4923 69.32 26.705 69.3611C26.8624 69.3611 26.9035 69.4023 27.109 69.32C27.2324 69.2707 27.2631 69.2239 27.2961 69.1556C27.3557 69.0322 27.4041 68.8608 27.308 68.6655C27.2763 68.6012 27.2911 68.5288 27.2961 68.4588C27.325 68.053 27.3486 67.6467 27.3382 67.2398C27.3134 66.2653 27.1803 65.3136 26.705 64.4412C26.6409 64.3238 26.6457 64.2471 26.7349 64.1524C27.2255 63.6307 27.6511 63.0559 28.0927 62.4938C28.6194 61.8235 29.3 61.3954 30.1466 61.2343C30.7964 61.1107 31.4522 61.0863 32.1107 61.0851C32.6689 61.0841 33.2278 61.1287 33.7854 61.0709C34.1019 61.0381 34.4047 60.9587 34.6768 60.786C35.1491 60.4863 35.4098 59.9135 35.2675 59.366C35.1397 58.8745 35.2359 58.4851 35.6389 58.1729C35.7321 58.1007 35.793 57.9982 35.8454 57.8943C35.9537 57.6796 35.9116 57.4576 35.7398 57.288C35.7124 57.261 35.6659 57.2459 35.6697 57.1949C36.2445 56.9575 36.3765 56.5516 36.0523 56.0121C35.9742 55.882 35.8946 55.7535 35.8361 55.6126C35.754 55.4147 35.7749 55.2421 35.9331 55.0862C36.0571 54.9639 36.1803 54.838 36.2846 54.6992C36.6467 54.2177 36.5206 53.6093 35.9998 53.3072C35.854 53.2227 35.6971 53.1572 35.55 53.0747C35.1182 52.8326 34.8344 52.4952 34.8758 51.9679C34.891 51.7764 34.9372 51.5892 35.0033 51.407C35.1944 50.8798 35.3483 50.3459 35.3654 49.7779C35.3891 48.9931 35.218 48.2427 34.9941 47.4992C34.9751 47.4362 34.9388 47.3744 34.9743 47.2983C35.2216 47.744 35.6281 48.1342 35.4251 48.7602C35.6595 48.5444 35.6912 48.2825 35.7634 48.0002C35.9296 48.4322 35.9494 48.8476 35.9703 49.286L35.9714 49.3093C36.1717 49.0822 36.2683 48.8378 36.3195 48.5714C36.4171 48.0638 36.3313 47.576 36.1565 47.0986C35.8438 46.2442 35.2517 45.6007 34.5771 45.0197C34.5406 44.9883 34.4871 44.9705 34.4761 44.9124C35.3105 44.7077 35.6903 44.3583 35.614 43.8492C35.3595 44.0561 35.0626 44.0699 34.7639 44.0434C34.489 44.0189 34.2282 43.9278 33.9754 43.8189C33.7771 43.7335 33.5874 43.6303 33.4121 43.5042C32.7059 42.9965 31.9151 42.6571 31.1181 42.3238C30.6455 42.126 30.1948 41.8748 29.6997 41.7315C28.6953 41.4407 27.671 41.3808 26.635 41.4834C26.3437 41.5123 26.0543 41.5582 25.7202 41.6021C26.0124 41.3717 26.1908 41.1122 26.283 40.7422C25.7111 41.2491 25.0522 41.4223 24.3575 41.4813C23.8011 41.5286 23.2385 41.518 22.6854 41.5866C21.7206 41.7062 20.7914 41.9254 20.2373 42.8505C20.2083 42.8989 20.1692 42.9123 20.1065 42.9073C19.1716 42.8332 18.3321 43.1303 17.5536 43.6063C16.7043 44.1256 16.1209 44.9049 15.5829 45.72C15.5602 45.7545 15.5308 45.7953 15.5595 45.8726C16.0101 45.3771 16.4639 44.9043 16.992 44.5116C17.5221 44.1174 18.0799 43.7752 18.7391 43.5613C18.7236 43.6047 18.7234 43.6132 18.7195 43.6153C18.6898 43.632 18.6604 43.6497 18.6292 43.6632C17.8499 44.0013 17.2505 44.5378 16.8184 45.2692C16.5143 45.7838 16.2158 46.3035 15.8325 46.7665C15.3085 47.3992 14.702 47.9076 13.8616 48.0628C13.8194 48.0707 13.7685 48.0721 13.7304 48.1316C13.8213 48.178 13.9174 48.1936 14.0127 48.2121C14.4148 48.2904 14.8146 48.2731 15.2048 48.1565C15.3729 48.1063 15.3889 48.1613 15.3634 48.3018C15.3152 48.5668 15.2508 48.8272 15.1102 49.0595C14.6323 49.8493 13.9309 50.3628 13.0762 50.6844C12.9758 50.7222 12.8697 50.7486 12.7441 50.8373C13.4259 50.7733 13.9961 50.5042 14.5684 50.2244C14.5733 50.261 14.5787 50.2728 14.5756 50.2816C14.3282 50.9887 14.3058 51.6941 14.5907 52.398C14.6015 52.4248 14.6097 52.4537 14.6128 52.4823C14.6711 53.0101 14.9295 53.4495 15.2214 53.8771C15.4189 54.1663 15.5961 54.4674 15.6825 54.8137C15.7817 55.2114 15.7153 55.5513 15.3661 55.8039C15.36 55.8083 15.3615 55.8234 15.3575 55.8437C16.0662 55.7543 16.4314 55.3368 16.5063 54.606C16.7971 54.9848 17.0156 55.3404 17.1127 55.7562C17.2651 56.4085 16.988 56.8773 16.3448 57.0695C16.2323 57.1031 16.1184 57.1325 15.9654 57.1748C16.8821 57.2635 17.7097 56.7029 17.8955 55.8984C17.9108 55.9078 17.9311 55.9131 17.9385 55.9258C18.1828 56.3481 18.3855 56.7864 18.4056 57.2837C18.4338 57.9812 18.1347 58.4395 17.4952 58.6987C17.4815 58.7043 17.4724 58.7212 17.4519 58.7422C17.9194 58.832 18.3689 58.8668 18.7695 58.5678C19.1579 58.2779 19.3122 57.8473 19.4405 57.3996C19.5785 57.7738 19.6818 58.1454 19.6204 58.5424C19.5627 58.9157 19.2946 59.1307 19.0008 59.3351C19.5408 59.5048 20.2318 59.1249 20.6689 58.4127C20.6431 58.8274 20.5956 59.1979 20.3725 59.5233C20.251 59.7006 20.0943 59.7701 19.8755 59.7132C19.5535 59.6296 19.2235 59.5753 18.9041 59.4834C18.6097 59.3989 18.3962 59.4862 18.2123 59.7133C17.9005 60.0984 17.5029 60.3669 17.0389 60.5372C16.8585 60.6034 16.673 60.6555 16.4913 60.7185C16.1081 60.8512 16.214 60.8418 15.885 61.0151C15.6509 61.1384 15.9841 60.974 15.5973 61.1796Z" fill="white"/>
<path d="M26 21C32.2287 21 37.9554 24.4697 42.1621 30.2539C46.368 36.0371 49 44.0759 49 53C49 61.9241 46.368 69.9629 42.1621 75.7461C37.9554 81.5303 32.2287 85 26 85C19.7713 85 14.0446 81.5303 9.83789 75.7461C5.63203 69.9629 3 61.9241 3 53C3 44.0759 5.63203 36.0371 9.83789 30.2539C14.0446 24.4697 19.7713 21 26 21Z" stroke="white" stroke-width="2"/>
</svg>
