<?xml version="1.0" encoding="UTF-8"?>
<svg xmlns="http://www.w3.org/2000/svg" viewBox="689.00 633.00 386.00 697.00">
  <path d="M 727.00 981.00 L 721.00 963.00 L 719.00 947.00 L 721.00 933.00 L 717.00 923.00 L 707.00 917.00 L 705.00 915.00 L 711.00 917.00 L 710.00 916.00 L 702.00 912.00 L 703.00 912.00 L 713.00 916.00 L 712.00 913.00 L 700.00 903.00 L 699.00 891.00 L 709.00 877.00 L 714.00 865.00 L 714.00 855.00 L 719.00 842.00 L 729.00 826.00 L 734.00 801.00 L 734.00 767.00 L 736.00 753.00 L 740.00 759.00 L 740.00 755.00 L 736.00 741.00 L 737.00 739.00 L 743.00 749.00 L 744.00 748.00 L 740.00 736.00 L 741.00 734.00 L 747.00 742.00 L 748.00 741.00 L 744.00 731.00 L 744.00 730.00 L 748.00 738.00 L 748.00 737.00 L 744.00 727.00 L 745.00 726.00 L 751.00 734.00 L 752.00 733.00 L 748.00 723.00 L 748.00 722.00 L 752.00 730.00 L 752.00 729.00 L 748.00 719.00 L 749.00 718.00 L 755.00 726.00 L 756.00 724.00 L 752.00 712.00 L 752.00 710.00 L 756.00 718.00 L 757.00 717.00 L 755.00 707.00 L 756.00 707.00 L 760.00 717.00 L 761.00 716.00 L 759.00 704.00 L 760.00 696.00 L 764.00 692.00 L 776.00 683.00 L 796.00 669.00 L 821.00 657.00 L 851.00 647.00 L 886.00 643.00 L 926.00 645.00 L 963.00 656.00 L 997.00 676.00 L 1022.00 696.00 L 1038.00 716.00 L 1051.00 739.00 L 1061.00 765.00 L 1065.00 791.00 L 1063.00 817.00 L 1054.00 849.00 L 1038.00 887.00 L 1030.00 913.00 L 1030.00 927.00 L 1023.00 937.00 L 1009.00 943.00 L 1009.00 944.00 L 1023.00 940.00 L 1023.00 941.00 L 1009.00 947.00 L 1009.00 948.00 L 1023.00 944.00 L 1022.00 945.00 L 1006.00 951.00 L 1005.00 952.00 L 1019.00 948.00 L 1019.00 949.00 L 1005.00 955.00 L 1005.00 957.00 L 1019.00 955.00 L 1020.00 956.00 L 1008.00 960.00 L 1007.00 961.00 L 1017.00 959.00 L 1018.00 959.00 L 1010.00 961.00 L 1009.00 962.00 L 1015.00 962.00 L 1016.00 963.00 L 1012.00 965.00 L 1013.00 968.00 L 1019.00 972.00 L 1024.00 981.00 L 1028.00 995.00 L 1032.00 1019.00 L 1036.00 1053.00 L 1037.00 1077.00 L 1035.00 1091.00 L 1039.00 1112.00 L 1049.00 1140.00 L 1051.00 1168.00 L 1045.00 1196.00 L 1027.00 1222.00 L 997.00 1246.00 L 955.00 1262.00 L 901.00 1270.00 L 846.00 1286.00 L 790.00 1310.00 L 752.00 1320.00 L 732.00 1316.00 L 718.00 1309.00 L 710.00 1299.00 L 706.00 1290.00 L 706.00 1282.00 L 725.00 1243.00 L 763.00 1173.00 L 763.00 1172.00 L 725.00 1240.00 L 726.00 1238.00 L 766.00 1166.00 L 766.00 1165.00 L 726.00 1235.00 L 725.00 1235.00 L 763.00 1165.00 L 763.00 1162.00 L 725.00 1226.00 L 724.00 1227.00 L 760.00 1165.00 L 761.00 1162.00 L 727.00 1218.00 L 729.00 1211.00 L 767.00 1141.00 L 777.00 1117.00 L 759.00 1139.00 L 760.00 1136.00 L 780.00 1108.00 L 777.00 1111.00 L 751.00 1145.00 L 751.00 1144.00 L 777.00 1108.00 L 776.00 1107.00 L 748.00 1141.00 L 747.00 1141.00 L 773.00 1107.00 L 773.00 1106.00 L 747.00 1138.00 L 746.00 1138.00 L 770.00 1106.00 L 771.00 1103.00 L 749.00 1129.00 L 748.00 1129.00 L 768.00 1103.00 L 769.00 1100.00 L 751.00 1120.00 L 751.00 1119.00 L 769.00 1097.00 L 774.00 1089.00 L 766.00 1095.00 L 766.00 1091.00 L 774.00 1077.00 L 774.00 1073.00 L 766.00 1079.00 L 765.00 1079.00 L 771.00 1073.00 L 771.00 1072.00 L 765.00 1076.00 L 765.00 1075.00 L 771.00 1069.00 L 771.00 1068.00 L 765.00 1072.00 L 765.00 1071.00 L 771.00 1065.00 L 771.00 1064.00 L 765.00 1068.00 L 765.00 1064.00 L 771.00 1052.00 L 770.00 1046.00 L 762.00 1046.00 L 752.00 1042.00 L 740.00 1034.00 L 733.00 1021.00 L 731.00 1003.00 L 730.00 993.00 L 730.00 991.00 L 727.00 981.00 Z" fill="black" stroke="black" stroke-width="1"/>
</svg>