<?xml version="1.0" encoding="UTF-8"?>
<svg xmlns="http://www.w3.org/2000/svg" viewBox="610.00 582.00 426.00 794.00">
  <path d="M 686.00 969.00 L 686.00 959.00 L 683.00 950.00 L 677.00 942.00 L 675.00 935.00 L 677.00 929.00 L 676.00 924.00 L 672.00 920.00 L 670.00 912.00 L 670.00 900.00 L 663.00 889.00 L 649.00 879.00 L 649.00 878.00 L 663.00 886.00 L 661.00 884.00 L 643.00 872.00 L 643.00 871.00 L 661.00 881.00 L 661.00 879.00 L 643.00 865.00 L 643.00 842.00 L 661.00 810.00 L 669.00 784.00 L 667.00 764.00 L 668.00 748.00 L 672.00 736.00 L 674.00 724.00 L 674.00 712.00 L 677.00 700.00 L 683.00 688.00 L 685.00 679.00 L 683.00 673.00 L 682.00 669.00 L 682.00 667.00 L 683.00 668.00 L 685.00 672.00 L 685.00 671.00 L 683.00 665.00 L 683.00 657.00 L 685.00 647.00 L 691.00 639.00 L 701.00 633.00 L 707.00 627.00 L 709.00 621.00 L 714.00 614.00 L 722.00 606.00 L 737.00 599.00 L 759.00 593.00 L 776.00 592.00 L 788.00 596.00 L 814.00 597.00 L 854.00 595.00 L 885.00 598.00 L 907.00 606.00 L 931.00 623.00 L 957.00 649.00 L 975.00 671.00 L 985.00 689.00 L 992.00 706.00 L 996.00 722.00 L 998.00 737.00 L 998.00 751.00 L 999.00 759.00 L 1001.00 761.00 L 1001.00 772.00 L 999.00 792.00 L 993.00 813.00 L 983.00 835.00 L 971.00 852.00 L 957.00 864.00 L 957.00 865.00 L 971.00 855.00 L 971.00 856.00 L 957.00 868.00 L 957.00 869.00 L 971.00 859.00 L 971.00 860.00 L 957.00 872.00 L 956.00 874.00 L 968.00 866.00 L 968.00 867.00 L 956.00 877.00 L 950.00 885.00 L 950.00 891.00 L 956.00 897.00 L 968.00 903.00 L 976.00 909.00 L 980.00 915.00 L 983.00 940.00 L 985.00 984.00 L 987.00 1007.00 L 989.00 1009.00 L 989.00 1019.00 L 987.00 1037.00 L 988.00 1049.00 L 992.00 1055.00 L 1002.00 1084.00 L 1018.00 1136.00 L 1026.00 1169.00 L 1026.00 1183.00 L 1023.00 1198.00 L 1017.00 1214.00 L 1008.00 1227.00 L 996.00 1237.00 L 980.00 1246.00 L 960.00 1254.00 L 925.00 1262.00 L 875.00 1270.00 L 833.00 1279.00 L 799.00 1289.00 L 776.00 1297.00 L 764.00 1303.00 L 742.00 1319.00 L 710.00 1345.00 L 690.00 1360.00 L 682.00 1364.00 L 670.00 1366.00 L 654.00 1366.00 L 641.00 1361.00 L 631.00 1351.00 L 624.00 1339.00 L 620.00 1325.00 L 620.00 1306.00 L 624.00 1282.00 L 625.00 1271.00 L 623.00 1273.00 L 624.00 1269.00 L 628.00 1259.00 L 629.00 1255.00 L 627.00 1257.00 L 631.00 1246.00 L 641.00 1222.00 L 645.00 1211.00 L 643.00 1213.00 L 648.00 1203.00 L 660.00 1181.00 L 663.00 1174.00 L 657.00 1182.00 L 658.00 1180.00 L 666.00 1168.00 L 667.00 1166.00 L 661.00 1174.00 L 670.00 1157.00 L 694.00 1115.00 L 705.00 1095.00 L 703.00 1097.00 L 708.00 1091.00 L 720.00 1077.00 L 721.00 1075.00 L 711.00 1085.00 L 711.00 1083.00 L 721.00 1069.00 L 721.00 1065.00 L 711.00 1071.00 L 707.00 1073.00 L 709.00 1071.00 L 708.00 1070.00 L 704.00 1070.00 L 701.00 1068.00 L 699.00 1064.00 L 704.00 1054.00 L 716.00 1038.00 L 719.00 1026.00 L 713.00 1018.00 L 715.00 1012.00 L 725.00 1008.00 L 726.00 1007.00 L 718.00 1009.00 L 718.00 1008.00 L 726.00 1004.00 L 723.00 1001.00 L 709.00 999.00 L 698.00 993.00 L 690.00 983.00 L 686.00 977.00 L 686.00 975.00 L 686.00 969.00 Z" fill="black" stroke="black" stroke-width="1"/>
</svg>