<?xml version="1.0" encoding="UTF-8"?>
<svg xmlns="http://www.w3.org/2000/svg" viewBox="600.00 577.00 438.00 817.00">
  <path d="M 725.00 944.00 L 723.00 932.00 L 717.00 924.00 L 707.00 920.00 L 706.00 919.00 L 714.00 921.00 L 709.00 919.00 L 691.00 913.00 L 690.00 912.00 L 706.00 916.00 L 705.00 915.00 L 687.00 909.00 L 688.00 909.00 L 708.00 915.00 L 706.00 914.00 L 682.00 906.00 L 664.00 895.00 L 652.00 881.00 L 644.00 869.00 L 640.00 859.00 L 639.00 842.00 L 641.00 818.00 L 638.00 801.00 L 630.00 791.00 L 631.00 790.00 L 641.00 798.00 L 639.00 795.00 L 625.00 781.00 L 616.00 769.00 L 612.00 759.00 L 610.00 749.00 L 610.00 739.00 L 614.00 727.00 L 622.00 713.00 L 630.00 702.00 L 638.00 694.00 L 650.00 687.00 L 666.00 681.00 L 677.00 665.00 L 683.00 639.00 L 691.00 627.00 L 701.00 629.00 L 714.00 620.00 L 730.00 600.00 L 743.00 589.00 L 753.00 587.00 L 762.00 588.00 L 770.00 592.00 L 776.00 604.00 L 780.00 624.00 L 781.00 625.00 L 779.00 607.00 L 780.00 606.00 L 784.00 622.00 L 785.00 623.00 L 783.00 609.00 L 785.00 610.00 L 791.00 626.00 L 824.00 638.00 L 884.00 646.00 L 925.00 656.00 L 947.00 668.00 L 965.00 680.00 L 979.00 692.00 L 985.00 701.00 L 983.00 707.00 L 984.00 707.00 L 988.00 701.00 L 989.00 702.00 L 987.00 710.00 L 988.00 711.00 L 992.00 705.00 L 993.00 705.00 L 991.00 711.00 L 992.00 712.00 L 996.00 708.00 L 996.00 711.00 L 992.00 721.00 L 993.00 722.00 L 999.00 714.00 L 999.00 715.00 L 993.00 725.00 L 994.00 726.00 L 1002.00 718.00 L 1003.00 720.00 L 997.00 732.00 L 998.00 733.00 L 1006.00 723.00 L 1006.00 724.00 L 998.00 736.00 L 999.00 737.00 L 1009.00 727.00 L 1010.00 730.00 L 1002.00 746.00 L 1003.00 748.00 L 1013.00 736.00 L 1013.00 738.00 L 1003.00 754.00 L 1004.00 755.00 L 1016.00 741.00 L 1019.00 739.00 L 1013.00 749.00 L 1013.00 751.00 L 1019.00 745.00 L 1016.00 749.00 L 1004.00 763.00 L 1004.00 764.00 L 1016.00 752.00 L 1020.00 750.00 L 1016.00 758.00 L 1017.00 759.00 L 1023.00 753.00 L 1020.00 757.00 L 1008.00 771.00 L 1008.00 772.00 L 1020.00 760.00 L 1020.00 761.00 L 1008.00 775.00 L 1008.00 777.00 L 1020.00 767.00 L 1020.00 768.00 L 1008.00 780.00 L 1008.00 781.00 L 1020.00 771.00 L 1020.00 772.00 L 1008.00 784.00 L 1008.00 785.00 L 1020.00 775.00 L 1024.00 773.00 L 1020.00 779.00 L 1020.00 781.00 L 1024.00 779.00 L 1020.00 784.00 L 1008.00 796.00 L 1008.00 797.00 L 1020.00 787.00 L 1020.00 788.00 L 1008.00 800.00 L 1008.00 801.00 L 1020.00 791.00 L 1020.00 792.00 L 1008.00 804.00 L 1008.00 806.00 L 1020.00 798.00 L 1020.00 799.00 L 1008.00 809.00 L 1008.00 810.00 L 1020.00 802.00 L 1020.00 803.00 L 1008.00 813.00 L 1008.00 814.00 L 1020.00 806.00 L 1019.00 810.00 L 1005.00 826.00 L 1007.00 857.00 L 1025.00 903.00 L 1028.00 930.00 L 1016.00 938.00 L 1012.00 942.00 L 1016.00 942.00 L 1012.00 944.00 L 1000.00 948.00 L 992.00 957.00 L 988.00 971.00 L 987.00 982.00 L 989.00 990.00 L 983.00 1007.00 L 969.00 1033.00 L 955.00 1049.00 L 941.00 1055.00 L 923.00 1057.00 L 901.00 1055.00 L 886.00 1060.00 L 878.00 1072.00 L 890.00 1143.00 L 922.00 1273.00 L 921.00 1276.00 L 887.00 1152.00 L 887.00 1153.00 L 921.00 1279.00 L 921.00 1280.00 L 887.00 1156.00 L 884.00 1147.00 L 912.00 1253.00 L 925.00 1305.00 L 923.00 1303.00 L 925.00 1314.00 L 931.00 1338.00 L 927.00 1328.00 L 913.00 1284.00 L 911.00 1285.00 L 921.00 1331.00 L 911.00 1291.00 L 881.00 1165.00 L 880.00 1166.00 L 908.00 1294.00 L 913.00 1324.00 L 895.00 1256.00 L 893.00 1257.00 L 907.00 1327.00 L 901.00 1299.00 L 875.00 1173.00 L 874.00 1174.00 L 898.00 1302.00 L 898.00 1304.00 L 874.00 1180.00 L 873.00 1180.00 L 895.00 1304.00 L 895.00 1305.00 L 873.00 1183.00 L 871.00 1184.00 L 889.00 1308.00 L 888.00 1310.00 L 868.00 1190.00 L 866.00 1191.00 L 882.00 1313.00 L 882.00 1316.00 L 866.00 1200.00 L 864.00 1201.00 L 876.00 1319.00 L 869.00 1380.00 L 843.00 1384.00 L 809.00 1363.00 L 767.00 1317.00 L 727.00 1278.00 L 689.00 1246.00 L 667.00 1225.00 L 661.00 1215.00 L 655.00 1199.00 L 649.00 1177.00 L 647.00 1157.00 L 649.00 1139.00 L 670.00 1096.00 L 710.00 1028.00 L 730.00 984.00 L 730.00 964.00 L 729.00 953.00 L 727.00 951.00 L 725.00 944.00 Z" fill="black" stroke="black" stroke-width="1"/>
</svg>