<?xml version="1.0" encoding="UTF-8"?>
<svg xmlns="http://www.w3.org/2000/svg" viewBox="1208.00 227.00 431.00 751.00">
  <path d="M 1249.00 588.00 L 1247.00 584.00 L 1249.00 578.00 L 1255.00 570.00 L 1256.00 557.00 L 1252.00 539.00 L 1243.00 527.00 L 1229.00 521.00 L 1228.00 520.00 L 1240.00 524.00 L 1239.00 523.00 L 1225.00 517.00 L 1224.00 516.00 L 1236.00 520.00 L 1236.00 519.00 L 1224.00 513.00 L 1218.00 507.00 L 1218.00 501.00 L 1229.00 485.00 L 1251.00 459.00 L 1261.00 443.00 L 1259.00 437.00 L 1261.00 423.00 L 1267.00 401.00 L 1270.00 376.00 L 1270.00 348.00 L 1279.00 328.00 L 1297.00 316.00 L 1305.00 307.00 L 1303.00 301.00 L 1304.00 301.00 L 1308.00 307.00 L 1309.00 306.00 L 1307.00 298.00 L 1308.00 298.00 L 1312.00 306.00 L 1313.00 305.00 L 1311.00 295.00 L 1312.00 294.00 L 1316.00 302.00 L 1317.00 301.00 L 1315.00 291.00 L 1316.00 287.00 L 1320.00 289.00 L 1326.00 289.00 L 1334.00 287.00 L 1339.00 287.00 L 1341.00 289.00 L 1344.00 287.00 L 1348.00 281.00 L 1351.00 281.00 L 1353.00 287.00 L 1354.00 287.00 L 1354.00 281.00 L 1356.00 281.00 L 1360.00 287.00 L 1368.00 282.00 L 1380.00 266.00 L 1401.00 252.00 L 1431.00 240.00 L 1461.00 237.00 L 1491.00 243.00 L 1516.00 253.00 L 1536.00 267.00 L 1559.00 291.00 L 1585.00 325.00 L 1606.00 358.00 L 1622.00 390.00 L 1629.00 426.00 L 1627.00 466.00 L 1623.00 494.00 L 1617.00 510.00 L 1606.00 529.00 L 1590.00 551.00 L 1582.00 565.00 L 1582.00 571.00 L 1579.00 577.00 L 1573.00 583.00 L 1571.00 596.00 L 1573.00 616.00 L 1578.00 632.00 L 1586.00 644.00 L 1590.00 653.00 L 1590.00 659.00 L 1592.00 664.00 L 1596.00 668.00 L 1602.00 680.00 L 1610.00 700.00 L 1613.00 727.00 L 1611.00 761.00 L 1603.00 792.00 L 1589.00 820.00 L 1578.00 838.00 L 1570.00 846.00 L 1556.00 855.00 L 1536.00 865.00 L 1513.00 873.00 L 1487.00 879.00 L 1468.00 882.00 L 1456.00 882.00 L 1439.00 887.00 L 1417.00 897.00 L 1390.00 917.00 L 1358.00 947.00 L 1333.00 964.00 L 1315.00 968.00 L 1302.00 966.00 L 1294.00 958.00 L 1287.00 953.00 L 1281.00 951.00 L 1274.00 946.00 L 1266.00 938.00 L 1261.00 928.00 L 1259.00 916.00 L 1272.00 882.00 L 1300.00 826.00 L 1300.00 825.00 L 1272.00 879.00 L 1272.00 878.00 L 1300.00 822.00 L 1300.00 821.00 L 1272.00 875.00 L 1267.00 884.00 L 1285.00 848.00 L 1285.00 847.00 L 1267.00 881.00 L 1273.00 869.00 L 1303.00 811.00 L 1303.00 810.00 L 1273.00 866.00 L 1273.00 865.00 L 1303.00 807.00 L 1304.00 804.00 L 1276.00 856.00 L 1265.00 876.00 L 1271.00 864.00 L 1271.00 863.00 L 1265.00 873.00 L 1286.00 833.00 L 1334.00 743.00 L 1348.00 715.00 L 1328.00 749.00 L 1328.00 748.00 L 1348.00 712.00 L 1349.00 709.00 L 1331.00 739.00 L 1329.00 742.00 L 1343.00 718.00 L 1343.00 717.00 L 1329.00 739.00 L 1328.00 740.00 L 1340.00 720.00 L 1341.00 718.00 L 1331.00 734.00 L 1334.00 729.00 L 1350.00 703.00 L 1349.00 704.00 L 1331.00 732.00 L 1331.00 731.00 L 1349.00 701.00 L 1350.00 698.00 L 1334.00 722.00 L 1334.00 721.00 L 1350.00 695.00 L 1350.00 679.00 L 1334.00 673.00 L 1313.00 662.00 L 1287.00 646.00 L 1270.00 638.00 L 1262.00 638.00 L 1255.00 635.00 L 1249.00 629.00 L 1247.00 618.00 L 1249.00 602.00 L 1250.00 593.00 L 1250.00 591.00 L 1249.00 588.00 Z" fill="black" stroke="black" stroke-width="1"/>
</svg>