<?xml version="1.0" encoding="UTF-8"?>
<svg xmlns="http://www.w3.org/2000/svg" viewBox="509.00 383.00 758.00 1073.00">
  <path d="M 539.00 807.00 L 573.00 761.00 L 590.00 730.00 L 590.00 714.00 L 582.00 701.00 L 566.00 691.00 L 566.00 689.00 L 582.00 695.00 L 581.00 693.00 L 563.00 683.00 L 563.00 681.00 L 581.00 687.00 L 580.00 684.00 L 560.00 672.00 L 560.00 670.00 L 580.00 678.00 L 581.00 675.00 L 563.00 661.00 L 563.00 659.00 L 581.00 669.00 L 581.00 668.00 L 563.00 656.00 L 563.00 653.00 L 581.00 659.00 L 583.00 655.00 L 569.00 641.00 L 570.00 639.00 L 586.00 649.00 L 586.00 647.00 L 570.00 633.00 L 564.00 611.00 L 568.00 581.00 L 564.00 551.00 L 552.00 521.00 L 549.00 509.00 L 555.00 515.00 L 556.00 513.00 L 552.00 503.00 L 564.00 491.00 L 592.00 477.00 L 615.00 473.00 L 633.00 479.00 L 638.00 472.00 L 630.00 452.00 L 632.00 452.00 L 644.00 472.00 L 645.00 471.00 L 635.00 449.00 L 638.00 450.00 L 654.00 474.00 L 655.00 470.00 L 641.00 438.00 L 643.00 438.00 L 661.00 470.00 L 663.00 468.00 L 649.00 432.00 L 651.00 430.00 L 669.00 462.00 L 672.00 453.00 L 660.00 403.00 L 664.00 400.00 L 684.00 444.00 L 685.00 443.00 L 667.00 397.00 L 666.00 393.00 L 682.00 431.00 L 684.00 432.00 L 672.00 396.00 L 678.00 396.00 L 702.00 432.00 L 751.00 444.00 L 825.00 432.00 L 907.00 433.00 L 997.00 447.00 L 1063.00 466.00 L 1105.00 490.00 L 1144.00 482.00 L 1180.00 442.00 L 1182.00 444.00 L 1150.00 488.00 L 1154.00 490.00 L 1194.00 450.00 L 1196.00 452.00 L 1160.00 496.00 L 1163.00 498.00 L 1205.00 458.00 L 1206.00 460.00 L 1166.00 504.00 L 1168.00 506.00 L 1212.00 466.00 L 1213.00 467.00 L 1171.00 509.00 L 1172.00 511.00 L 1216.00 473.00 L 1217.00 475.00 L 1175.00 517.00 L 1177.00 519.00 L 1223.00 481.00 L 1224.00 484.00 L 1180.00 528.00 L 1182.00 530.00 L 1230.00 490.00 L 1232.00 491.00 L 1188.00 533.00 L 1189.00 535.00 L 1235.00 497.00 L 1257.00 508.00 L 1255.00 568.00 L 1238.00 621.00 L 1206.00 667.00 L 1193.00 695.00 L 1199.00 705.00 L 1209.00 710.00 L 1223.00 710.00 L 1231.00 720.00 L 1233.00 740.00 L 1232.00 762.00 L 1228.00 786.00 L 1215.00 800.00 L 1193.00 804.00 L 1192.00 808.00 L 1212.00 812.00 L 1211.00 815.00 L 1189.00 817.00 L 1188.00 818.00 L 1208.00 818.00 L 1207.00 819.00 L 1185.00 821.00 L 1184.00 822.00 L 1204.00 822.00 L 1203.00 824.00 L 1181.00 828.00 L 1178.00 830.00 L 1194.00 830.00 L 1194.00 831.00 L 1178.00 833.00 L 1153.00 850.00 L 1119.00 882.00 L 1089.00 903.00 L 1063.00 913.00 L 1051.00 933.00 L 1053.00 963.00 L 1040.00 1003.00 L 1012.00 1053.00 L 1005.00 1112.00 L 1019.00 1180.00 L 976.00 1239.00 L 876.00 1289.00 L 801.00 1332.00 L 751.00 1368.00 L 735.00 1338.00 L 753.00 1242.00 L 751.00 1243.00 L 729.00 1341.00 L 729.00 1337.00 L 751.00 1231.00 L 749.00 1233.00 L 723.00 1343.00 L 723.00 1338.00 L 749.00 1218.00 L 746.00 1220.00 L 714.00 1344.00 L 713.00 1343.00 L 743.00 1217.00 L 741.00 1219.00 L 707.00 1349.00 L 707.00 1347.00 L 741.00 1213.00 L 739.00 1215.00 L 701.00 1353.00 L 700.00 1351.00 L 736.00 1209.00 L 730.00 1214.00 L 682.00 1366.00 L 681.00 1364.00 L 727.00 1208.00 L 722.00 1212.00 L 666.00 1376.00 L 665.00 1374.00 L 719.00 1206.00 L 717.00 1207.00 L 659.00 1377.00 L 659.00 1375.00 L 717.00 1201.00 L 715.00 1202.00 L 653.00 1378.00 L 636.00 1425.00 L 664.00 1343.00 L 659.00 1347.00 L 621.00 1437.00 L 636.00 1387.00 L 704.00 1197.00 L 701.00 1198.00 L 627.00 1390.00 L 605.00 1446.00 L 635.00 1366.00 L 632.00 1363.00 L 596.00 1437.00 L 617.00 1378.00 L 695.00 1186.00 L 694.00 1184.00 L 614.00 1372.00 L 613.00 1371.00 L 691.00 1181.00 L 689.00 1176.00 L 607.00 1356.00 L 607.00 1354.00 L 689.00 1170.00 L 689.00 1168.00 L 607.00 1348.00 L 606.00 1347.00 L 686.00 1165.00 L 699.00 1067.00 L 645.00 1053.00 L 613.00 1041.00 L 603.00 1031.00 L 598.00 1011.00 L 598.00 981.00 L 590.00 944.00 L 574.00 900.00 L 554.00 868.00 L 530.00 848.00 L 519.00 836.00 L 521.00 832.00 L 539.00 807.00 Z" fill="black" stroke="black" stroke-width="1"/>
</svg>