<?xml version="1.0" encoding="UTF-8"?>
<svg xmlns="http://www.w3.org/2000/svg" viewBox="361.00 248.00 774.00 1386.00">
  <path d="M 477.00 941.00 L 491.00 923.00 L 492.00 902.00 L 480.00 878.00 L 477.00 855.00 L 483.00 833.00 L 479.00 815.00 L 465.00 801.00 L 458.00 777.00 L 458.00 743.00 L 447.00 715.00 L 425.00 693.00 L 425.00 690.00 L 447.00 706.00 L 446.00 701.00 L 422.00 675.00 L 430.00 637.00 L 470.00 587.00 L 496.00 539.00 L 508.00 493.00 L 511.00 464.00 L 505.00 452.00 L 506.00 449.00 L 514.00 455.00 L 515.00 452.00 L 509.00 440.00 L 510.00 437.00 L 518.00 443.00 L 520.00 440.00 L 516.00 428.00 L 517.00 424.00 L 523.00 428.00 L 529.00 420.00 L 535.00 400.00 L 561.00 369.00 L 607.00 327.00 L 663.00 294.00 L 729.00 270.00 L 800.00 258.00 L 876.00 258.00 L 937.00 268.00 L 983.00 288.00 L 1023.00 316.00 L 1057.00 352.00 L 1087.00 411.00 L 1113.00 493.00 L 1125.00 564.00 L 1123.00 624.00 L 1114.00 685.00 L 1098.00 747.00 L 1060.00 796.00 L 1000.00 832.00 L 999.00 834.00 L 1057.00 802.00 L 1058.00 802.00 L 1002.00 834.00 L 1002.00 836.00 L 1058.00 808.00 L 1058.00 811.00 L 1002.00 845.00 L 999.00 852.00 L 1049.00 832.00 L 1050.00 835.00 L 1002.00 861.00 L 1000.00 866.00 L 1044.00 850.00 L 1044.00 852.00 L 1000.00 872.00 L 999.00 875.00 L 1041.00 861.00 L 1040.00 864.00 L 996.00 884.00 L 996.00 887.00 L 1040.00 873.00 L 1040.00 875.00 L 996.00 893.00 L 995.00 897.00 L 1037.00 887.00 L 1037.00 890.00 L 995.00 906.00 L 995.00 913.00 L 1037.00 911.00 L 1037.00 914.00 L 995.00 922.00 L 995.00 925.00 L 1037.00 923.00 L 1037.00 926.00 L 995.00 934.00 L 995.00 937.00 L 1037.00 935.00 L 1037.00 937.00 L 995.00 943.00 L 996.00 945.00 L 1040.00 943.00 L 1040.00 944.00 L 996.00 948.00 L 996.00 950.00 L 1040.00 950.00 L 1040.00 952.00 L 996.00 956.00 L 998.00 961.00 L 1046.00 967.00 L 1046.00 969.00 L 998.00 967.00 L 998.00 970.00 L 1046.00 978.00 L 1046.00 981.00 L 998.00 979.00 L 998.00 983.00 L 1046.00 993.00 L 1046.00 995.00 L 998.00 989.00 L 997.00 992.00 L 1043.00 1004.00 L 1042.00 1007.00 L 994.00 1001.00 L 994.00 1004.00 L 1042.00 1016.00 L 1041.00 1018.00 L 991.00 1010.00 L 990.00 1015.00 L 1038.00 1033.00 L 1037.00 1035.00 L 987.00 1021.00 L 986.00 1022.00 L 1034.00 1038.00 L 1043.00 1043.00 L 1013.00 1037.00 L 1013.00 1040.00 L 1043.00 1052.00 L 1034.00 1049.00 L 986.00 1031.00 L 986.00 1033.00 L 1034.00 1055.00 L 1035.00 1057.00 L 989.00 1039.00 L 990.00 1041.00 L 1038.00 1063.00 L 1039.00 1066.00 L 993.00 1050.00 L 993.00 1054.00 L 1039.00 1078.00 L 1039.00 1081.00 L 993.00 1063.00 L 992.00 1068.00 L 1036.00 1096.00 L 1037.00 1099.00 L 995.00 1077.00 L 999.00 1084.00 L 1049.00 1120.00 L 1050.00 1123.00 L 1002.00 1093.00 L 1006.00 1097.00 L 1062.00 1135.00 L 1063.00 1138.00 L 1009.00 1106.00 L 1007.00 1109.00 L 1057.00 1147.00 L 1057.00 1150.00 L 1007.00 1118.00 L 1006.00 1120.00 L 1054.00 1156.00 L 1054.00 1158.00 L 1006.00 1126.00 L 1006.00 1129.00 L 1054.00 1167.00 L 1055.00 1169.00 L 1009.00 1135.00 L 1010.00 1141.00 L 1058.00 1187.00 L 1061.00 1194.00 L 1019.00 1162.00 L 1019.00 1165.00 L 1061.00 1203.00 L 1062.00 1206.00 L 1022.00 1174.00 L 1021.00 1177.00 L 1059.00 1215.00 L 1059.00 1217.00 L 1021.00 1183.00 L 1021.00 1185.00 L 1059.00 1223.00 L 1059.00 1226.00 L 1021.00 1194.00 L 1020.00 1197.00 L 1056.00 1235.00 L 1057.00 1237.00 L 1023.00 1203.00 L 1023.00 1205.00 L 1057.00 1243.00 L 1058.00 1246.00 L 1026.00 1214.00 L 1026.00 1217.00 L 1058.00 1255.00 L 1059.00 1259.00 L 1029.00 1229.00 L 1027.00 1232.00 L 1053.00 1268.00 L 1054.00 1272.00 L 1030.00 1244.00 L 1027.00 1247.00 L 1045.00 1281.00 L 1047.00 1290.00 L 1033.00 1274.00 L 1031.00 1281.00 L 1041.00 1311.00 L 974.00 1345.00 L 830.00 1383.00 L 686.00 1456.00 L 542.00 1564.00 L 455.00 1620.00 L 425.00 1624.00 L 400.00 1607.00 L 380.00 1569.00 L 371.00 1518.00 L 373.00 1454.00 L 391.00 1392.00 L 425.00 1332.00 L 455.00 1288.00 L 481.00 1260.00 L 484.00 1256.00 L 464.00 1276.00 L 465.00 1274.00 L 487.00 1250.00 L 504.00 1215.00 L 516.00 1169.00 L 516.00 1145.00 L 504.00 1143.00 L 502.00 1115.00 L 510.00 1061.00 L 503.00 1015.00 L 481.00 977.00 L 470.00 956.00 L 470.00 952.00 L 477.00 941.00 Z" fill="black" stroke="black" stroke-width="1"/>
</svg>