<?xml version="1.0" encoding="UTF-8"?>
<svg xmlns="http://www.w3.org/2000/svg" viewBox="336.00 310.00 736.00 1269.00">
  <path d="M 412.00 956.00 L 416.00 936.00 L 414.00 918.00 L 406.00 902.00 L 405.00 889.00 L 411.00 879.00 L 410.00 870.00 L 402.00 862.00 L 401.00 854.00 L 407.00 846.00 L 410.00 837.00 L 410.00 827.00 L 405.00 816.00 L 395.00 804.00 L 395.00 801.00 L 405.00 807.00 L 403.00 805.00 L 389.00 795.00 L 389.00 794.00 L 403.00 802.00 L 401.00 800.00 L 383.00 788.00 L 372.00 778.00 L 368.00 770.00 L 385.00 745.00 L 423.00 703.00 L 442.00 666.00 L 442.00 634.00 L 445.00 610.00 L 451.00 594.00 L 453.00 574.00 L 451.00 550.00 L 453.00 533.00 L 459.00 523.00 L 462.00 513.00 L 462.00 503.00 L 476.00 481.00 L 504.00 447.00 L 528.00 423.00 L 548.00 409.00 L 565.00 394.00 L 579.00 378.00 L 594.00 368.00 L 610.00 364.00 L 621.00 357.00 L 627.00 347.00 L 637.00 340.00 L 651.00 336.00 L 663.00 335.00 L 673.00 337.00 L 687.00 334.00 L 705.00 326.00 L 722.00 323.00 L 738.00 325.00 L 753.00 324.00 L 767.00 320.00 L 779.00 320.00 L 789.00 324.00 L 806.00 325.00 L 830.00 323.00 L 846.00 324.00 L 854.00 328.00 L 869.00 330.00 L 891.00 330.00 L 910.00 336.00 L 926.00 348.00 L 942.00 357.00 L 958.00 363.00 L 970.00 370.00 L 978.00 378.00 L 984.00 388.00 L 988.00 400.00 L 996.00 411.00 L 1008.00 421.00 L 1022.00 442.00 L 1038.00 474.00 L 1050.00 509.00 L 1058.00 547.00 L 1062.00 586.00 L 1062.00 626.00 L 1053.00 676.00 L 1035.00 736.00 L 999.00 809.00 L 945.00 895.00 L 912.00 941.00 L 900.00 947.00 L 898.00 950.00 L 906.00 950.00 L 906.00 953.00 L 898.00 959.00 L 897.00 965.00 L 903.00 971.00 L 907.00 994.00 L 909.00 1034.00 L 913.00 1068.00 L 919.00 1096.00 L 920.00 1119.00 L 916.00 1137.00 L 918.00 1156.00 L 926.00 1176.00 L 932.00 1203.00 L 936.00 1237.00 L 937.00 1253.00 L 935.00 1251.00 L 942.00 1279.00 L 958.00 1337.00 L 964.00 1368.00 L 960.00 1372.00 L 922.00 1373.00 L 850.00 1371.00 L 778.00 1377.00 L 706.00 1391.00 L 652.00 1405.00 L 616.00 1419.00 L 574.00 1439.00 L 526.00 1465.00 L 480.00 1499.00 L 436.00 1541.00 L 410.00 1564.00 L 402.00 1568.00 L 390.00 1569.00 L 374.00 1567.00 L 361.00 1558.00 L 351.00 1542.00 L 346.00 1524.00 L 346.00 1504.00 L 383.00 1432.00 L 457.00 1308.00 L 458.00 1304.00 L 386.00 1420.00 L 384.00 1422.00 L 452.00 1310.00 L 453.00 1307.00 L 387.00 1413.00 L 389.00 1409.00 L 459.00 1295.00 L 458.00 1296.00 L 386.00 1412.00 L 390.00 1405.00 L 470.00 1275.00 L 471.00 1272.00 L 393.00 1396.00 L 392.00 1395.00 L 468.00 1269.00 L 491.00 1228.00 L 461.00 1272.00 L 459.00 1273.00 L 485.00 1231.00 L 493.00 1217.00 L 483.00 1231.00 L 482.00 1232.00 L 490.00 1220.00 L 489.00 1221.00 L 479.00 1235.00 L 478.00 1236.00 L 486.00 1224.00 L 484.00 1226.00 L 472.00 1242.00 L 461.00 1253.00 L 451.00 1259.00 L 461.00 1241.00 L 491.00 1199.00 L 487.00 1201.00 L 449.00 1247.00 L 448.00 1246.00 L 484.00 1198.00 L 484.00 1196.00 L 448.00 1240.00 L 447.00 1238.00 L 481.00 1190.00 L 487.00 1178.00 L 465.00 1202.00 L 464.00 1201.00 L 484.00 1175.00 L 482.00 1174.00 L 458.00 1198.00 L 457.00 1197.00 L 479.00 1171.00 L 478.00 1170.00 L 454.00 1194.00 L 454.00 1192.00 L 478.00 1164.00 L 478.00 1162.00 L 454.00 1186.00 L 454.00 1182.00 L 478.00 1150.00 L 483.00 1120.00 L 469.00 1092.00 L 456.00 1073.00 L 444.00 1063.00 L 439.00 1054.00 L 441.00 1046.00 L 449.00 1038.00 L 463.00 1030.00 L 461.00 1021.00 L 443.00 1011.00 L 428.00 999.00 L 416.00 985.00 L 410.00 975.00 L 410.00 969.00 L 412.00 956.00 Z" fill="black" stroke="black" stroke-width="1"/>
</svg>