<?xml version="1.0" encoding="UTF-8"?>
<svg xmlns="http://www.w3.org/2000/svg" viewBox="338.00 270.00 854.00 1479.00">
  <path d="M 411.00 1002.00 L 417.00 978.00 L 426.00 960.00 L 438.00 948.00 L 445.00 939.00 L 447.00 933.00 L 443.00 928.00 L 433.00 924.00 L 432.00 923.00 L 440.00 925.00 L 439.00 924.00 L 429.00 920.00 L 421.00 914.00 L 415.00 906.00 L 410.00 894.00 L 406.00 878.00 L 404.00 860.00 L 404.00 840.00 L 406.00 822.00 L 410.00 806.00 L 401.00 774.00 L 379.00 726.00 L 363.00 677.00 L 353.00 627.00 L 349.00 585.00 L 351.00 551.00 L 356.00 521.00 L 364.00 495.00 L 370.00 470.00 L 374.00 446.00 L 382.00 418.00 L 394.00 386.00 L 410.00 360.00 L 430.00 340.00 L 449.00 325.00 L 467.00 315.00 L 491.00 305.00 L 521.00 295.00 L 546.00 290.00 L 566.00 290.00 L 593.00 287.00 L 627.00 281.00 L 670.00 280.00 L 722.00 284.00 L 765.00 292.00 L 799.00 304.00 L 826.00 316.00 L 846.00 328.00 L 861.00 338.00 L 871.00 346.00 L 894.00 371.00 L 930.00 413.00 L 949.00 436.00 L 951.00 440.00 L 951.00 448.00 L 949.00 460.00 L 949.00 467.00 L 951.00 469.00 L 954.00 466.00 L 958.00 458.00 L 958.00 460.00 L 954.00 472.00 L 955.00 475.00 L 961.00 469.00 L 962.00 472.00 L 958.00 484.00 L 959.00 485.00 L 965.00 475.00 L 966.00 477.00 L 962.00 491.00 L 963.00 493.00 L 969.00 483.00 L 970.00 485.00 L 966.00 499.00 L 967.00 500.00 L 973.00 488.00 L 975.00 487.00 L 973.00 497.00 L 974.00 499.00 L 978.00 493.00 L 977.00 498.00 L 971.00 514.00 L 972.00 516.00 L 980.00 504.00 L 981.00 506.00 L 975.00 522.00 L 976.00 523.00 L 984.00 509.00 L 985.00 511.00 L 979.00 529.00 L 980.00 531.00 L 988.00 517.00 L 989.00 519.00 L 983.00 537.00 L 985.00 562.00 L 995.00 594.00 L 1000.00 617.00 L 1000.00 631.00 L 1002.00 642.00 L 1006.00 650.00 L 1026.00 671.00 L 1062.00 705.00 L 1088.00 732.00 L 1104.00 752.00 L 1109.00 769.00 L 1103.00 783.00 L 1091.00 797.00 L 1073.00 811.00 L 1060.00 823.00 L 1052.00 833.00 L 1047.00 841.00 L 1045.00 847.00 L 1045.00 856.00 L 1047.00 868.00 L 1044.00 881.00 L 1036.00 895.00 L 1034.00 909.00 L 1038.00 923.00 L 1031.00 936.00 L 1013.00 948.00 L 1006.00 962.00 L 1010.00 978.00 L 1011.00 997.00 L 1009.00 1019.00 L 999.00 1041.00 L 981.00 1063.00 L 974.00 1075.00 L 978.00 1077.00 L 980.00 1081.00 L 980.00 1087.00 L 971.00 1103.00 L 953.00 1129.00 L 941.00 1151.00 L 935.00 1169.00 L 931.00 1186.00 L 929.00 1202.00 L 961.00 1251.00 L 1027.00 1333.00 L 1028.00 1338.00 L 964.00 1266.00 L 965.00 1269.00 L 1031.00 1347.00 L 1066.00 1389.00 L 1070.00 1395.00 L 1038.00 1359.00 L 970.00 1281.00 L 971.00 1284.00 L 1041.00 1368.00 L 1048.00 1377.00 L 992.00 1311.00 L 993.00 1313.00 L 1051.00 1383.00 L 1092.00 1437.00 L 1116.00 1475.00 L 1136.00 1510.00 L 1152.00 1542.00 L 1164.00 1568.00 L 1172.00 1588.00 L 1178.00 1615.00 L 1182.00 1649.00 L 1182.00 1674.00 L 1178.00 1690.00 L 1172.00 1705.00 L 1164.00 1719.00 L 1154.00 1730.00 L 1142.00 1738.00 L 1127.00 1739.00 L 1109.00 1733.00 L 1094.00 1724.00 L 1082.00 1712.00 L 1055.00 1691.00 L 1013.00 1661.00 L 969.00 1634.00 L 923.00 1610.00 L 883.00 1592.00 L 849.00 1580.00 L 809.00 1570.00 L 763.00 1562.00 L 739.00 1559.00 L 737.00 1561.00 L 728.00 1561.00 L 712.00 1559.00 L 696.00 1560.00 L 680.00 1564.00 L 650.00 1568.00 L 606.00 1572.00 L 577.00 1576.00 L 563.00 1580.00 L 534.00 1583.00 L 490.00 1585.00 L 454.00 1580.00 L 426.00 1568.00 L 406.00 1557.00 L 394.00 1547.00 L 380.00 1534.00 L 364.00 1518.00 L 354.00 1505.00 L 350.00 1495.00 L 348.00 1470.00 L 348.00 1430.00 L 354.00 1381.00 L 366.00 1323.00 L 371.00 1284.00 L 369.00 1264.00 L 371.00 1248.00 L 377.00 1236.00 L 379.00 1225.00 L 377.00 1215.00 L 378.00 1204.00 L 382.00 1192.00 L 382.00 1181.00 L 378.00 1171.00 L 384.00 1131.00 L 400.00 1061.00 L 408.00 1023.00 L 408.00 1017.00 L 411.00 1002.00 Z" fill="black" stroke="black" stroke-width="1"/>
</svg>