<?xml version="1.0" encoding="UTF-8"?>
<svg xmlns="http://www.w3.org/2000/svg" viewBox="370.00 234.00 881.00 1457.00">
  <path d="M 421.00 938.00 L 419.00 930.00 L 410.00 922.00 L 394.00 914.00 L 384.00 905.00 L 380.00 895.00 L 393.00 874.00 L 423.00 842.00 L 442.00 818.00 L 450.00 802.00 L 452.00 787.00 L 448.00 773.00 L 448.00 763.00 L 452.00 757.00 L 454.00 730.00 L 454.00 682.00 L 451.00 655.00 L 445.00 649.00 L 444.00 646.00 L 448.00 646.00 L 448.00 641.00 L 444.00 631.00 L 446.00 630.00 L 454.00 638.00 L 455.00 636.00 L 449.00 624.00 L 450.00 620.00 L 458.00 624.00 L 459.00 622.00 L 453.00 614.00 L 452.00 607.00 L 456.00 601.00 L 473.00 584.00 L 503.00 556.00 L 524.00 539.00 L 536.00 533.00 L 541.00 526.00 L 539.00 518.00 L 540.00 509.00 L 544.00 499.00 L 553.00 486.00 L 567.00 470.00 L 576.00 463.00 L 580.00 465.00 L 584.00 463.00 L 588.00 457.00 L 591.00 456.00 L 593.00 460.00 L 593.00 455.00 L 591.00 441.00 L 602.00 413.00 L 626.00 371.00 L 650.00 335.00 L 674.00 305.00 L 695.00 281.00 L 713.00 263.00 L 728.00 251.00 L 740.00 245.00 L 751.00 244.00 L 761.00 248.00 L 768.00 270.00 L 772.00 310.00 L 794.00 351.00 L 834.00 393.00 L 867.00 403.00 L 893.00 381.00 L 921.00 366.00 L 951.00 358.00 L 978.00 355.00 L 1002.00 357.00 L 1027.00 368.00 L 1053.00 388.00 L 1072.00 407.00 L 1084.00 425.00 L 1088.00 440.00 L 1084.00 452.00 L 1084.00 458.00 L 1088.00 458.00 L 1090.00 464.00 L 1090.00 476.00 L 1080.00 503.00 L 1060.00 545.00 L 1054.00 561.00 L 1062.00 551.00 L 1062.00 552.00 L 1054.00 564.00 L 1053.00 574.00 L 1059.00 582.00 L 1087.00 597.00 L 1137.00 619.00 L 1166.00 630.00 L 1174.00 630.00 L 1190.00 624.00 L 1214.00 612.00 L 1229.00 607.00 L 1235.00 609.00 L 1239.00 616.00 L 1241.00 628.00 L 1235.00 648.00 L 1221.00 676.00 L 1206.00 699.00 L 1190.00 717.00 L 1184.00 725.00 L 1188.00 723.00 L 1158.00 752.00 L 1094.00 812.00 L 1047.00 850.00 L 1017.00 866.00 L 1010.00 872.00 L 1026.00 868.00 L 1025.00 869.00 L 1007.00 875.00 L 1005.00 876.00 L 1019.00 872.00 L 1019.00 874.00 L 1005.00 882.00 L 996.00 912.00 L 992.00 964.00 L 987.00 1001.00 L 981.00 1023.00 L 972.00 1035.00 L 960.00 1037.00 L 957.00 1040.00 L 963.00 1044.00 L 962.00 1047.00 L 954.00 1049.00 L 953.00 1065.00 L 959.00 1095.00 L 960.00 1120.00 L 956.00 1140.00 L 961.00 1158.00 L 975.00 1174.00 L 977.00 1177.00 L 967.00 1167.00 L 980.00 1191.00 L 1016.00 1249.00 L 1044.00 1310.00 L 1064.00 1374.00 L 1072.00 1408.00 L 1068.00 1412.00 L 1045.00 1414.00 L 1003.00 1414.00 L 966.00 1417.00 L 934.00 1423.00 L 895.00 1434.00 L 849.00 1450.00 L 807.00 1469.00 L 769.00 1491.00 L 749.00 1501.00 L 747.00 1499.00 L 745.00 1501.00 L 743.00 1507.00 L 726.00 1521.00 L 694.00 1543.00 L 666.00 1569.00 L 642.00 1599.00 L 618.00 1625.00 L 594.00 1647.00 L 564.00 1665.00 L 528.00 1679.00 L 497.00 1681.00 L 471.00 1671.00 L 449.00 1653.00 L 431.00 1627.00 L 472.00 1514.00 L 572.00 1314.00 L 571.00 1311.00 L 469.00 1505.00 L 465.00 1510.00 L 559.00 1326.00 L 559.00 1322.00 L 465.00 1498.00 L 468.00 1491.00 L 568.00 1301.00 L 567.00 1299.00 L 465.00 1485.00 L 457.00 1498.00 L 543.00 1338.00 L 544.00 1333.00 L 460.00 1483.00 L 458.00 1485.00 L 538.00 1339.00 L 538.00 1336.00 L 458.00 1476.00 L 419.00 1544.00 L 421.00 1540.00 L 470.00 1453.00 L 566.00 1283.00 L 566.00 1281.00 L 470.00 1447.00 L 446.00 1487.00 L 494.00 1401.00 L 494.00 1398.00 L 446.00 1478.00 L 443.00 1481.00 L 485.00 1407.00 L 487.00 1401.00 L 449.00 1463.00 L 447.00 1465.00 L 481.00 1407.00 L 483.00 1403.00 L 453.00 1453.00 L 452.00 1454.00 L 480.00 1406.00 L 482.00 1401.00 L 458.00 1439.00 L 456.00 1441.00 L 476.00 1407.00 L 478.00 1403.00 L 462.00 1429.00 L 493.00 1378.00 L 571.00 1250.00 L 570.00 1251.00 L 490.00 1381.00 L 489.00 1379.00 L 567.00 1245.00 L 599.00 1168.00 L 585.00 1148.00 L 560.00 1140.00 L 524.00 1144.00 L 501.00 1145.00 L 491.00 1143.00 L 479.00 1136.00 L 465.00 1124.00 L 456.00 1104.00 L 452.00 1076.00 L 445.00 1056.00 L 435.00 1044.00 L 432.00 1031.00 L 436.00 1017.00 L 433.00 1006.00 L 423.00 998.00 L 419.00 983.00 L 421.00 961.00 L 422.00 948.00 L 422.00 944.00 L 421.00 938.00 Z" fill="black" stroke="black" stroke-width="1"/>
</svg>