<?xml version="1.0" encoding="UTF-8"?>
<svg xmlns="http://www.w3.org/2000/svg" viewBox="305.00 337.00 969.00 1341.00">
  <path d="M 519.00 979.00 L 513.00 949.00 L 501.00 926.00 L 483.00 910.00 L 477.00 894.00 L 483.00 878.00 L 482.00 864.00 L 474.00 852.00 L 475.00 834.00 L 485.00 810.00 L 481.00 790.00 L 463.00 774.00 L 462.00 771.00 L 478.00 781.00 L 477.00 779.00 L 459.00 765.00 L 449.00 754.00 L 447.00 746.00 L 465.00 725.00 L 503.00 691.00 L 525.00 667.00 L 531.00 653.00 L 533.00 639.00 L 531.00 625.00 L 534.00 614.00 L 542.00 606.00 L 545.00 587.00 L 543.00 557.00 L 545.00 547.00 L 551.00 557.00 L 551.00 556.00 L 545.00 544.00 L 546.00 541.00 L 554.00 547.00 L 556.00 544.00 L 552.00 532.00 L 553.00 531.00 L 559.00 541.00 L 560.00 539.00 L 556.00 525.00 L 557.00 523.00 L 563.00 533.00 L 568.00 522.00 L 572.00 490.00 L 577.00 480.00 L 583.00 492.00 L 585.00 487.00 L 583.00 465.00 L 585.00 461.00 L 591.00 475.00 L 593.00 472.00 L 591.00 452.00 L 596.00 436.00 L 608.00 424.00 L 627.00 411.00 L 653.00 397.00 L 694.00 387.00 L 750.00 381.00 L 806.00 370.00 L 862.00 354.00 L 919.00 347.00 L 977.00 349.00 L 1027.00 361.00 L 1069.00 383.00 L 1094.00 389.00 L 1102.00 379.00 L 1104.00 379.00 L 1100.00 389.00 L 1103.00 387.00 L 1113.00 373.00 L 1123.00 365.00 L 1133.00 363.00 L 1149.00 367.00 L 1171.00 377.00 L 1186.00 388.00 L 1194.00 400.00 L 1190.00 422.00 L 1174.00 454.00 L 1175.00 458.00 L 1193.00 434.00 L 1195.00 437.00 L 1181.00 467.00 L 1179.00 495.00 L 1189.00 521.00 L 1196.00 552.00 L 1200.00 588.00 L 1195.00 633.00 L 1181.00 687.00 L 1170.00 718.00 L 1162.00 726.00 L 1163.00 742.00 L 1173.00 766.00 L 1177.00 789.00 L 1175.00 811.00 L 1182.00 835.00 L 1198.00 861.00 L 1206.00 883.00 L 1206.00 901.00 L 1198.00 931.00 L 1182.00 973.00 L 1176.00 1001.00 L 1180.00 1015.00 L 1189.00 1028.00 L 1203.00 1040.00 L 1211.00 1053.00 L 1213.00 1067.00 L 1209.00 1083.00 L 1199.00 1101.00 L 1182.00 1111.00 L 1158.00 1113.00 L 1168.00 1153.00 L 1212.00 1231.00 L 1244.00 1306.00 L 1264.00 1378.00 L 1228.00 1411.00 L 1136.00 1405.00 L 1046.00 1408.00 L 958.00 1420.00 L 860.00 1448.00 L 752.00 1492.00 L 661.00 1539.00 L 587.00 1589.00 L 531.00 1623.00 L 493.00 1641.00 L 457.00 1655.00 L 423.00 1665.00 L 393.00 1668.00 L 367.00 1664.00 L 345.00 1647.00 L 327.00 1617.00 L 317.00 1585.00 L 315.00 1551.00 L 397.00 1443.00 L 563.00 1261.00 L 564.00 1259.00 L 400.00 1437.00 L 405.00 1431.00 L 579.00 1241.00 L 580.00 1238.00 L 408.00 1422.00 L 405.00 1425.00 L 571.00 1247.00 L 572.00 1245.00 L 408.00 1419.00 L 403.00 1424.00 L 557.00 1260.00 L 558.00 1258.00 L 406.00 1418.00 L 404.00 1419.00 L 552.00 1261.00 L 556.00 1254.00 L 416.00 1398.00 L 411.00 1402.00 L 541.00 1266.00 L 547.00 1257.00 L 429.00 1375.00 L 443.00 1360.00 L 589.00 1212.00 L 589.00 1210.00 L 443.00 1354.00 L 418.00 1378.00 L 514.00 1282.00 L 513.00 1279.00 L 415.00 1369.00 L 386.00 1394.00 L 426.00 1354.00 L 424.00 1353.00 L 380.00 1391.00 L 433.00 1340.00 L 583.00 1200.00 L 583.00 1197.00 L 433.00 1331.00 L 369.00 1388.00 L 391.00 1368.00 L 390.00 1366.00 L 366.00 1382.00 L 360.00 1383.00 L 372.00 1369.00 L 370.00 1367.00 L 354.00 1377.00 L 423.00 1317.00 L 577.00 1187.00 L 648.00 1107.00 L 636.00 1077.00 L 618.00 1060.00 L 594.00 1056.00 L 568.00 1042.00 L 540.00 1018.00 L 525.00 1003.00 L 523.00 997.00 L 519.00 979.00 Z" fill="black" stroke="black" stroke-width="1"/>
</svg>