<?xml version="1.0" encoding="UTF-8"?>
<svg xmlns="http://www.w3.org/2000/svg" viewBox="411.00 222.00 851.00 1545.00">
  <path d="M 467.00 989.00 L 461.00 971.00 L 462.00 956.00 L 470.00 944.00 L 470.00 932.00 L 462.00 920.00 L 462.00 904.00 L 470.00 884.00 L 469.00 870.00 L 459.00 862.00 L 459.00 860.00 L 469.00 864.00 L 467.00 863.00 L 453.00 857.00 L 451.00 856.00 L 461.00 860.00 L 455.00 852.00 L 433.00 832.00 L 444.00 801.00 L 488.00 759.00 L 514.00 727.00 L 522.00 705.00 L 491.00 653.00 L 421.00 571.00 L 421.00 569.00 L 491.00 647.00 L 493.00 644.00 L 427.00 560.00 L 427.00 558.00 L 493.00 638.00 L 495.00 637.00 L 433.00 555.00 L 433.00 552.00 L 495.00 628.00 L 498.00 627.00 L 442.00 549.00 L 442.00 546.00 L 498.00 618.00 L 500.00 618.00 L 448.00 546.00 L 448.00 541.00 L 500.00 603.00 L 503.00 602.00 L 457.00 538.00 L 458.00 539.00 L 506.00 605.00 L 519.00 620.00 L 497.00 584.00 L 498.00 582.00 L 522.00 614.00 L 512.00 598.00 L 468.00 534.00 L 467.00 529.00 L 509.00 583.00 L 512.00 583.00 L 476.00 529.00 L 478.00 531.00 L 518.00 589.00 L 520.00 589.00 L 484.00 531.00 L 485.00 529.00 L 523.00 583.00 L 526.00 583.00 L 494.00 529.00 L 495.00 527.00 L 529.00 577.00 L 531.00 576.00 L 501.00 524.00 L 516.00 498.00 L 576.00 498.00 L 638.00 457.00 L 702.00 375.00 L 740.00 328.00 L 752.00 316.00 L 760.00 311.00 L 764.00 313.00 L 766.00 310.00 L 766.00 302.00 L 781.00 283.00 L 811.00 253.00 L 832.00 236.00 L 844.00 232.00 L 858.00 234.00 L 874.00 242.00 L 988.00 321.00 L 1200.00 471.00 L 1252.00 636.00 L 1144.00 816.00 L 1096.00 922.00 L 1108.00 954.00 L 1091.00 974.00 L 1045.00 982.00 L 1046.00 985.00 L 1094.00 983.00 L 1096.00 985.00 L 1052.00 991.00 L 1053.00 994.00 L 1099.00 994.00 L 1122.00 996.00 L 1122.00 1000.00 L 1100.00 1002.00 L 1056.00 1002.00 L 1057.00 1005.00 L 1103.00 1011.00 L 1104.00 1014.00 L 1060.00 1014.00 L 1061.00 1017.00 L 1107.00 1023.00 L 1114.00 1026.00 L 1082.00 1026.00 L 1082.00 1028.00 L 1114.00 1032.00 L 1107.00 1032.00 L 1061.00 1028.00 L 1062.00 1030.00 L 1110.00 1038.00 L 1109.00 1040.00 L 1059.00 1036.00 L 1059.00 1039.00 L 1109.00 1049.00 L 1109.00 1051.00 L 1059.00 1045.00 L 1059.00 1047.00 L 1109.00 1057.00 L 1121.00 1061.00 L 1095.00 1059.00 L 1095.00 1062.00 L 1121.00 1070.00 L 1123.00 1073.00 L 1101.00 1071.00 L 1102.00 1073.00 L 1126.00 1079.00 L 1112.00 1076.00 L 1060.00 1064.00 L 1060.00 1067.00 L 1112.00 1085.00 L 1112.00 1088.00 L 1060.00 1076.00 L 1060.00 1080.00 L 1112.00 1100.00 L 1129.00 1108.00 L 1111.00 1104.00 L 1102.00 1104.00 L 1102.00 1108.00 L 1085.00 1104.00 L 1051.00 1092.00 L 1059.00 1095.00 L 1109.00 1113.00 L 1127.00 1122.00 L 1113.00 1122.00 L 1112.00 1125.00 L 1124.00 1131.00 L 1106.00 1125.00 L 1058.00 1107.00 L 1055.00 1109.00 L 1097.00 1131.00 L 1097.00 1134.00 L 1055.00 1118.00 L 1033.00 1146.00 L 1031.00 1218.00 L 1051.00 1293.00 L 1093.00 1371.00 L 1122.00 1432.00 L 1138.00 1476.00 L 1144.00 1500.00 L 1140.00 1504.00 L 1111.00 1504.00 L 1057.00 1500.00 L 1002.00 1504.00 L 946.00 1516.00 L 870.00 1545.00 L 774.00 1591.00 L 678.00 1649.00 L 582.00 1719.00 L 528.00 1755.00 L 516.00 1757.00 L 501.00 1754.00 L 483.00 1746.00 L 466.00 1726.00 L 450.00 1694.00 L 444.00 1657.00 L 448.00 1615.00 L 483.00 1529.00 L 549.00 1399.00 L 566.00 1360.00 L 534.00 1412.00 L 530.00 1417.00 L 554.00 1375.00 L 555.00 1371.00 L 533.00 1405.00 L 534.00 1400.00 L 558.00 1356.00 L 572.00 1326.00 L 576.00 1310.00 L 574.00 1307.00 L 566.00 1317.00 L 569.00 1309.00 L 583.00 1283.00 L 581.00 1277.00 L 563.00 1291.00 L 560.00 1290.00 L 572.00 1274.00 L 565.00 1281.00 L 539.00 1311.00 L 542.00 1305.00 L 574.00 1263.00 L 565.00 1269.00 L 515.00 1323.00 L 514.00 1321.00 L 562.00 1263.00 L 562.00 1260.00 L 514.00 1312.00 L 513.00 1310.00 L 559.00 1254.00 L 582.00 1218.00 L 582.00 1202.00 L 575.00 1178.00 L 561.00 1146.00 L 560.00 1124.00 L 572.00 1112.00 L 563.00 1104.00 L 533.00 1100.00 L 508.00 1092.00 L 488.00 1080.00 L 474.00 1067.00 L 466.00 1053.00 L 463.00 1037.00 L 465.00 1019.00 L 467.00 1007.00 L 469.00 1001.00 L 467.00 989.00 Z" fill="black" stroke="black" stroke-width="1"/>
</svg>