<?xml version="1.0" encoding="UTF-8"?>
<svg xmlns="http://www.w3.org/2000/svg" viewBox="416.00 308.00 810.00 1440.00">
  <path d="M 526.00 1015.00 L 518.00 1001.00 L 519.00 980.00 L 529.00 952.00 L 530.00 930.00 L 522.00 914.00 L 521.00 902.00 L 527.00 894.00 L 529.00 884.00 L 527.00 872.00 L 518.00 857.00 L 502.00 839.00 L 503.00 836.00 L 521.00 848.00 L 517.00 845.00 L 491.00 827.00 L 480.00 819.00 L 484.00 821.00 L 483.00 819.00 L 477.00 813.00 L 482.00 815.00 L 498.00 825.00 L 498.00 823.00 L 482.00 809.00 L 489.00 812.00 L 519.00 832.00 L 520.00 828.00 L 492.00 800.00 L 491.00 796.00 L 517.00 816.00 L 518.00 815.00 L 494.00 793.00 L 488.00 771.00 L 500.00 749.00 L 519.00 723.00 L 545.00 693.00 L 556.00 663.00 L 552.00 633.00 L 556.00 605.00 L 568.00 579.00 L 572.00 557.00 L 568.00 539.00 L 569.00 535.00 L 575.00 545.00 L 576.00 542.00 L 572.00 526.00 L 573.00 522.00 L 579.00 530.00 L 580.00 527.00 L 576.00 513.00 L 577.00 511.00 L 583.00 521.00 L 584.00 518.00 L 580.00 502.00 L 581.00 500.00 L 587.00 512.00 L 588.00 510.00 L 584.00 494.00 L 586.00 492.00 L 594.00 504.00 L 595.00 501.00 L 589.00 483.00 L 590.00 481.00 L 598.00 495.00 L 600.00 492.00 L 596.00 472.00 L 598.00 470.00 L 606.00 486.00 L 608.00 484.00 L 604.00 464.00 L 606.00 461.00 L 614.00 475.00 L 616.00 473.00 L 612.00 455.00 L 613.00 451.00 L 619.00 461.00 L 620.00 459.00 L 616.00 445.00 L 617.00 447.00 L 623.00 465.00 L 624.00 464.00 L 620.00 444.00 L 621.00 442.00 L 627.00 458.00 L 630.00 455.00 L 630.00 433.00 L 638.00 418.00 L 654.00 410.00 L 670.00 398.00 L 686.00 382.00 L 714.00 364.00 L 754.00 344.00 L 796.00 330.00 L 840.00 322.00 L 886.00 318.00 L 934.00 318.00 L 980.00 325.00 L 1024.00 339.00 L 1057.00 355.00 L 1079.00 373.00 L 1106.00 406.00 L 1138.00 454.00 L 1159.00 488.00 L 1169.00 508.00 L 1179.00 542.00 L 1189.00 590.00 L 1194.00 635.00 L 1194.00 677.00 L 1190.00 718.00 L 1182.00 758.00 L 1161.00 809.00 L 1127.00 871.00 L 1109.00 913.00 L 1107.00 935.00 L 1097.00 949.00 L 1079.00 955.00 L 1078.00 957.00 L 1094.00 955.00 L 1096.00 957.00 L 1084.00 963.00 L 1083.00 965.00 L 1093.00 963.00 L 1095.00 965.00 L 1089.00 971.00 L 1092.00 1020.00 L 1104.00 1112.00 L 1106.00 1169.00 L 1098.00 1191.00 L 1096.00 1210.00 L 1100.00 1226.00 L 1119.00 1262.00 L 1153.00 1318.00 L 1182.00 1371.00 L 1206.00 1421.00 L 1216.00 1448.00 L 1212.00 1452.00 L 1187.00 1451.00 L 1141.00 1445.00 L 1095.00 1444.00 L 1049.00 1448.00 L 980.00 1463.00 L 888.00 1489.00 L 810.00 1523.00 L 746.00 1565.00 L 682.00 1618.00 L 618.00 1682.00 L 570.00 1721.00 L 538.00 1735.00 L 509.00 1738.00 L 483.00 1730.00 L 459.00 1709.00 L 437.00 1675.00 L 426.00 1633.00 L 426.00 1583.00 L 436.00 1534.00 L 456.00 1486.00 L 465.00 1463.00 L 463.00 1465.00 L 475.00 1446.00 L 501.00 1406.00 L 508.00 1394.00 L 496.00 1410.00 L 496.00 1409.00 L 508.00 1391.00 L 519.00 1367.00 L 529.00 1337.00 L 547.00 1306.00 L 573.00 1274.00 L 574.00 1272.00 L 550.00 1300.00 L 549.00 1299.00 L 571.00 1269.00 L 580.00 1252.00 L 576.00 1248.00 L 564.00 1255.00 L 544.00 1273.00 L 544.00 1271.00 L 564.00 1249.00 L 561.00 1250.00 L 535.00 1274.00 L 537.00 1271.00 L 567.00 1241.00 L 565.00 1242.00 L 531.00 1274.00 L 529.00 1274.00 L 559.00 1242.00 L 556.00 1243.00 L 520.00 1277.00 L 518.00 1278.00 L 550.00 1246.00 L 548.00 1245.00 L 512.00 1275.00 L 513.00 1271.00 L 551.00 1233.00 L 563.00 1219.00 L 549.00 1229.00 L 549.00 1228.00 L 563.00 1216.00 L 565.00 1214.00 L 555.00 1222.00 L 557.00 1218.00 L 571.00 1202.00 L 570.00 1200.00 L 554.00 1212.00 L 555.00 1209.00 L 573.00 1191.00 L 570.00 1189.00 L 546.00 1203.00 L 546.00 1200.00 L 570.00 1180.00 L 570.00 1177.00 L 546.00 1191.00 L 546.00 1188.00 L 570.00 1168.00 L 581.00 1145.00 L 579.00 1119.00 L 575.00 1097.00 L 569.00 1079.00 L 577.00 1065.00 L 599.00 1055.00 L 597.00 1048.00 L 571.00 1044.00 L 552.00 1039.00 L 540.00 1033.00 L 533.00 1028.00 L 531.00 1024.00 L 526.00 1015.00 Z" fill="black" stroke="black" stroke-width="1"/>
</svg>