<?xml version="1.0" encoding="UTF-8"?>
<svg xmlns="http://www.w3.org/2000/svg" viewBox="327.00 330.00 785.00 1412.00">
  <path d="M 398.00 996.00 L 406.00 984.00 L 407.00 972.00 L 401.00 960.00 L 398.00 939.00 L 398.00 909.00 L 386.00 887.00 L 362.00 873.00 L 362.00 870.00 L 386.00 878.00 L 385.00 877.00 L 359.00 867.00 L 349.00 863.00 L 355.00 865.00 L 352.00 863.00 L 340.00 857.00 L 343.00 857.00 L 361.00 863.00 L 359.00 861.00 L 337.00 851.00 L 343.00 852.00 L 377.00 864.00 L 377.00 862.00 L 343.00 846.00 L 339.00 819.00 L 365.00 781.00 L 381.00 763.00 L 387.00 765.00 L 389.00 764.00 L 387.00 760.00 L 389.00 757.00 L 395.00 755.00 L 397.00 753.00 L 395.00 751.00 L 400.00 741.00 L 412.00 723.00 L 418.00 703.00 L 418.00 681.00 L 429.00 642.00 L 451.00 586.00 L 478.00 539.00 L 510.00 501.00 L 525.00 472.00 L 523.00 452.00 L 525.00 450.00 L 531.00 466.00 L 531.00 463.00 L 525.00 441.00 L 525.00 437.00 L 531.00 451.00 L 532.00 450.00 L 528.00 434.00 L 528.00 430.00 L 532.00 438.00 L 533.00 436.00 L 531.00 424.00 L 534.00 412.00 L 542.00 400.00 L 550.00 392.00 L 558.00 388.00 L 566.00 394.00 L 574.00 410.00 L 576.00 410.00 L 572.00 394.00 L 575.00 395.00 L 585.00 413.00 L 596.00 417.00 L 608.00 407.00 L 623.00 399.00 L 641.00 393.00 L 654.00 386.00 L 662.00 378.00 L 680.00 367.00 L 708.00 353.00 L 732.00 344.00 L 752.00 340.00 L 789.00 340.00 L 843.00 344.00 L 891.00 353.00 L 933.00 367.00 L 957.00 368.00 L 963.00 356.00 L 965.00 356.00 L 963.00 368.00 L 966.00 365.00 L 974.00 347.00 L 987.00 340.00 L 1005.00 344.00 L 1018.00 351.00 L 1026.00 361.00 L 1025.00 378.00 L 1015.00 402.00 L 1016.00 404.00 L 1028.00 384.00 L 1029.00 386.00 L 1019.00 410.00 L 1020.00 412.00 L 1032.00 392.00 L 1033.00 394.00 L 1023.00 418.00 L 1023.00 420.00 L 1033.00 400.00 L 1035.00 402.00 L 1029.00 426.00 L 1030.00 443.00 L 1038.00 453.00 L 1048.00 473.00 L 1060.00 503.00 L 1068.00 531.00 L 1072.00 557.00 L 1074.00 597.00 L 1074.00 651.00 L 1062.00 715.00 L 1038.00 789.00 L 1026.00 837.00 L 1026.00 859.00 L 1028.00 875.00 L 1032.00 885.00 L 1029.00 905.00 L 1019.00 935.00 L 1019.00 960.00 L 1029.00 980.00 L 1034.00 996.00 L 1034.00 1008.00 L 1030.00 1023.00 L 1022.00 1041.00 L 1023.00 1058.00 L 1033.00 1074.00 L 1033.00 1089.00 L 1023.00 1103.00 L 1006.00 1106.00 L 982.00 1098.00 L 979.00 1099.00 L 997.00 1109.00 L 997.00 1112.00 L 979.00 1108.00 L 973.00 1123.00 L 979.00 1157.00 L 988.00 1181.00 L 1000.00 1195.00 L 1026.00 1246.00 L 1066.00 1334.00 L 1090.00 1396.00 L 1098.00 1432.00 L 1102.00 1464.00 L 1102.00 1492.00 L 1100.00 1508.00 L 1096.00 1512.00 L 1063.00 1515.00 L 1001.00 1517.00 L 935.00 1526.00 L 865.00 1542.00 L 795.00 1565.00 L 725.00 1595.00 L 688.00 1609.00 L 684.00 1607.00 L 680.00 1609.00 L 676.00 1615.00 L 631.00 1645.00 L 545.00 1699.00 L 494.00 1728.00 L 478.00 1732.00 L 462.00 1731.00 L 446.00 1725.00 L 433.00 1713.00 L 423.00 1695.00 L 420.00 1670.00 L 424.00 1638.00 L 424.00 1626.00 L 420.00 1634.00 L 425.00 1619.00 L 439.00 1581.00 L 445.00 1560.00 L 443.00 1556.00 L 435.00 1554.00 L 421.00 1554.00 L 410.00 1551.00 L 402.00 1545.00 L 413.00 1515.00 L 443.00 1461.00 L 442.00 1459.00 L 410.00 1509.00 L 410.00 1506.00 L 442.00 1450.00 L 441.00 1448.00 L 407.00 1500.00 L 408.00 1498.00 L 444.00 1442.00 L 476.00 1382.00 L 504.00 1318.00 L 515.00 1290.00 L 509.00 1298.00 L 516.00 1285.00 L 536.00 1251.00 L 533.00 1208.00 L 507.00 1156.00 L 500.00 1125.00 L 512.00 1115.00 L 512.00 1113.00 L 500.00 1119.00 L 500.00 1116.00 L 512.00 1104.00 L 494.00 1092.00 L 446.00 1080.00 L 416.00 1069.00 L 404.00 1059.00 L 396.00 1044.00 L 392.00 1024.00 L 391.00 1011.00 L 393.00 1005.00 L 398.00 996.00 Z" fill="black" stroke="black" stroke-width="1"/>
</svg>