<?xml version="1.0" encoding="UTF-8"?>
<svg xmlns="http://www.w3.org/2000/svg" viewBox="324.00 242.00 819.00 1448.00">
  <path d="M 400.00 949.00 L 396.00 931.00 L 399.00 910.00 L 409.00 886.00 L 410.00 868.00 L 402.00 856.00 L 397.00 844.00 L 395.00 832.00 L 392.00 825.00 L 388.00 823.00 L 391.00 824.00 L 401.00 828.00 L 399.00 826.00 L 385.00 818.00 L 382.00 808.00 L 390.00 796.00 L 381.00 779.00 L 355.00 757.00 L 349.00 750.00 L 363.00 758.00 L 362.00 757.00 L 346.00 747.00 L 353.00 751.00 L 383.00 769.00 L 382.00 768.00 L 350.00 748.00 L 348.00 745.00 L 376.00 759.00 L 376.00 756.00 L 348.00 736.00 L 334.00 723.00 L 334.00 717.00 L 344.00 696.00 L 364.00 660.00 L 390.00 624.00 L 422.00 588.00 L 437.00 562.00 L 435.00 546.00 L 436.00 541.00 L 440.00 547.00 L 439.00 545.00 L 433.00 535.00 L 433.00 533.00 L 439.00 539.00 L 440.00 536.00 L 436.00 524.00 L 438.00 508.00 L 446.00 488.00 L 449.00 466.00 L 447.00 442.00 L 453.00 420.00 L 467.00 400.00 L 484.00 384.00 L 504.00 372.00 L 519.00 360.00 L 529.00 348.00 L 543.00 336.00 L 561.00 324.00 L 572.00 314.00 L 576.00 306.00 L 587.00 298.00 L 605.00 290.00 L 623.00 285.00 L 641.00 283.00 L 657.00 278.00 L 671.00 270.00 L 688.00 266.00 L 708.00 266.00 L 729.00 262.00 L 751.00 254.00 L 773.00 252.00 L 795.00 256.00 L 814.00 256.00 L 830.00 252.00 L 849.00 255.00 L 871.00 265.00 L 891.00 269.00 L 909.00 267.00 L 932.00 271.00 L 960.00 281.00 L 979.00 288.00 L 989.00 292.00 L 1013.00 312.00 L 1051.00 348.00 L 1077.00 377.00 L 1091.00 399.00 L 1104.00 428.00 L 1116.00 464.00 L 1125.00 505.00 L 1131.00 551.00 L 1133.00 592.00 L 1131.00 628.00 L 1122.00 672.00 L 1106.00 724.00 L 1078.00 784.00 L 1038.00 852.00 L 1018.00 898.00 L 1018.00 922.00 L 1012.00 936.00 L 1000.00 940.00 L 1000.00 942.00 L 1012.00 942.00 L 1012.00 945.00 L 1000.00 951.00 L 998.00 960.00 L 1006.00 972.00 L 1012.00 995.00 L 1016.00 1029.00 L 1023.00 1063.00 L 1033.00 1097.00 L 1036.00 1121.00 L 1032.00 1135.00 L 1036.00 1153.00 L 1048.00 1175.00 L 1056.00 1201.00 L 1060.00 1231.00 L 1069.00 1268.00 L 1083.00 1312.00 L 1090.00 1342.00 L 1090.00 1358.00 L 1055.00 1366.00 L 985.00 1366.00 L 911.00 1379.00 L 833.00 1405.00 L 756.00 1441.00 L 680.00 1487.00 L 601.00 1549.00 L 519.00 1627.00 L 468.00 1670.00 L 448.00 1678.00 L 429.00 1680.00 L 411.00 1676.00 L 395.00 1668.00 L 381.00 1656.00 L 368.00 1638.00 L 356.00 1614.00 L 350.00 1588.00 L 350.00 1560.00 L 380.00 1494.00 L 440.00 1390.00 L 440.00 1388.00 L 380.00 1488.00 L 382.00 1483.00 L 446.00 1373.00 L 448.00 1367.00 L 388.00 1465.00 L 381.00 1475.00 L 427.00 1397.00 L 427.00 1395.00 L 381.00 1469.00 L 388.00 1457.00 L 448.00 1359.00 L 449.00 1356.00 L 391.00 1448.00 L 392.00 1446.00 L 452.00 1350.00 L 453.00 1347.00 L 395.00 1437.00 L 395.00 1435.00 L 453.00 1341.00 L 455.00 1336.00 L 401.00 1420.00 L 401.00 1417.00 L 455.00 1327.00 L 483.00 1277.00 L 485.00 1267.00 L 497.00 1246.00 L 519.00 1214.00 L 520.00 1211.00 L 500.00 1237.00 L 499.00 1235.00 L 517.00 1205.00 L 523.00 1185.00 L 517.00 1175.00 L 508.00 1175.00 L 496.00 1185.00 L 495.00 1183.00 L 505.00 1169.00 L 503.00 1169.00 L 489.00 1183.00 L 488.00 1182.00 L 500.00 1166.00 L 498.00 1165.00 L 482.00 1179.00 L 473.00 1185.00 L 471.00 1183.00 L 477.00 1173.00 L 491.00 1155.00 L 496.00 1139.00 L 492.00 1125.00 L 491.00 1114.00 L 493.00 1106.00 L 488.00 1088.00 L 476.00 1060.00 L 465.00 1040.00 L 455.00 1028.00 L 455.00 1017.00 L 465.00 1007.00 L 459.00 997.00 L 437.00 987.00 L 422.00 978.00 L 414.00 970.00 L 408.00 964.00 L 404.00 960.00 L 400.00 949.00 Z" fill="black" stroke="black" stroke-width="1"/>
</svg>