<?xml version="1.0" encoding="UTF-8"?>
<svg xmlns="http://www.w3.org/2000/svg" viewBox="265.00 302.00 863.00 1374.00">
  <path d="M 409.00 940.00 L 415.00 920.00 L 411.00 901.00 L 397.00 883.00 L 392.00 868.00 L 396.00 856.00 L 395.00 846.00 L 389.00 838.00 L 389.00 826.00 L 395.00 810.00 L 396.00 794.00 L 392.00 778.00 L 392.00 771.00 L 396.00 773.00 L 388.00 766.00 L 368.00 750.00 L 357.00 738.00 L 355.00 730.00 L 358.00 719.00 L 366.00 705.00 L 378.00 694.00 L 394.00 686.00 L 416.00 669.00 L 444.00 643.00 L 459.00 626.00 L 461.00 618.00 L 460.00 608.00 L 456.00 596.00 L 461.00 578.00 L 475.00 554.00 L 475.00 524.00 L 461.00 488.00 L 462.00 487.00 L 478.00 521.00 L 479.00 519.00 L 465.00 481.00 L 466.00 480.00 L 482.00 516.00 L 485.00 518.00 L 475.00 486.00 L 472.00 471.00 L 476.00 473.00 L 483.00 486.00 L 493.00 510.00 L 495.00 511.00 L 489.00 489.00 L 489.00 485.00 L 495.00 499.00 L 496.00 499.00 L 492.00 485.00 L 493.00 484.00 L 499.00 496.00 L 501.00 494.00 L 499.00 478.00 L 501.00 477.00 L 507.00 491.00 L 509.00 487.00 L 507.00 465.00 L 509.00 462.00 L 515.00 478.00 L 517.00 483.00 L 515.00 477.00 L 516.00 476.00 L 520.00 480.00 L 522.00 479.00 L 522.00 473.00 L 523.00 472.00 L 525.00 476.00 L 524.00 469.00 L 520.00 451.00 L 519.00 441.00 L 521.00 439.00 L 525.00 447.00 L 531.00 465.00 L 533.00 464.00 L 531.00 444.00 L 533.00 442.00 L 539.00 458.00 L 542.00 457.00 L 542.00 439.00 L 544.00 436.00 L 548.00 448.00 L 550.00 448.00 L 550.00 436.00 L 568.00 414.00 L 604.00 382.00 L 645.00 357.00 L 691.00 339.00 L 739.00 325.00 L 789.00 315.00 L 834.00 312.00 L 874.00 316.00 L 914.00 325.00 L 954.00 339.00 L 988.00 355.00 L 1016.00 373.00 L 1043.00 401.00 L 1069.00 439.00 L 1087.00 471.00 L 1097.00 497.00 L 1106.00 533.00 L 1114.00 579.00 L 1118.00 628.00 L 1118.00 680.00 L 1114.00 717.00 L 1106.00 739.00 L 1079.00 786.00 L 1033.00 858.00 L 1004.00 896.00 L 992.00 900.00 L 991.00 902.00 L 1001.00 902.00 L 1000.00 903.00 L 988.00 905.00 L 985.00 906.00 L 991.00 906.00 L 992.00 907.00 L 988.00 909.00 L 988.00 949.00 L 992.00 1027.00 L 990.00 1075.00 L 982.00 1093.00 L 985.00 1125.00 L 999.00 1171.00 L 1007.00 1214.00 L 1009.00 1254.00 L 1019.00 1292.00 L 1037.00 1328.00 L 1048.00 1352.00 L 1052.00 1364.00 L 1052.00 1372.00 L 1048.00 1376.00 L 1017.00 1379.00 L 959.00 1381.00 L 894.00 1392.00 L 822.00 1412.00 L 753.00 1437.00 L 687.00 1467.00 L 632.00 1497.00 L 588.00 1527.00 L 544.00 1562.00 L 500.00 1602.00 L 462.00 1631.00 L 430.00 1649.00 L 409.00 1660.00 L 399.00 1664.00 L 385.00 1666.00 L 367.00 1666.00 L 349.00 1662.00 L 331.00 1654.00 L 315.00 1643.00 L 301.00 1629.00 L 289.00 1609.00 L 279.00 1583.00 L 275.00 1555.00 L 277.00 1525.00 L 277.00 1511.00 L 275.00 1513.00 L 276.00 1506.00 L 280.00 1490.00 L 291.00 1461.00 L 309.00 1419.00 L 317.00 1399.00 L 315.00 1401.00 L 334.00 1376.00 L 374.00 1324.00 L 376.00 1320.00 L 340.00 1364.00 L 341.00 1361.00 L 379.00 1311.00 L 401.00 1271.00 L 407.00 1241.00 L 417.00 1218.00 L 431.00 1202.00 L 432.00 1200.00 L 420.00 1212.00 L 420.00 1211.00 L 432.00 1197.00 L 433.00 1195.00 L 423.00 1205.00 L 422.00 1203.00 L 430.00 1189.00 L 433.00 1181.00 L 431.00 1179.00 L 440.00 1167.00 L 460.00 1145.00 L 460.00 1143.00 L 440.00 1161.00 L 437.00 1163.00 L 451.00 1149.00 L 452.00 1147.00 L 440.00 1157.00 L 442.00 1152.00 L 458.00 1132.00 L 460.00 1103.00 L 448.00 1065.00 L 443.00 1042.00 L 445.00 1034.00 L 450.00 1027.00 L 458.00 1021.00 L 451.00 1011.00 L 429.00 997.00 L 415.00 983.00 L 409.00 969.00 L 406.00 959.00 L 406.00 953.00 L 409.00 940.00 Z" fill="black" stroke="black" stroke-width="1"/>
</svg>