<?xml version="1.0" encoding="UTF-8"?>
<svg xmlns="http://www.w3.org/2000/svg" viewBox="277.00 268.00 971.00 1424.00">
  <path d="M 381.00 951.00 L 379.00 937.00 L 381.00 924.00 L 387.00 912.00 L 388.00 903.00 L 384.00 897.00 L 385.00 882.00 L 391.00 858.00 L 393.00 842.00 L 391.00 834.00 L 388.00 826.00 L 384.00 818.00 L 373.00 808.00 L 355.00 796.00 L 349.00 791.00 L 355.00 793.00 L 349.00 786.00 L 331.00 770.00 L 324.00 756.00 L 328.00 744.00 L 356.00 713.00 L 408.00 663.00 L 436.00 634.00 L 440.00 626.00 L 440.00 610.00 L 436.00 586.00 L 435.00 567.00 L 437.00 553.00 L 452.00 518.00 L 480.00 462.00 L 492.00 427.00 L 488.00 413.00 L 489.00 411.00 L 495.00 421.00 L 497.00 422.00 L 495.00 414.00 L 496.00 411.00 L 500.00 413.00 L 500.00 409.00 L 496.00 399.00 L 497.00 398.00 L 503.00 406.00 L 504.00 404.00 L 500.00 392.00 L 502.00 390.00 L 510.00 398.00 L 512.00 396.00 L 508.00 384.00 L 508.00 376.00 L 512.00 372.00 L 516.00 375.00 L 520.00 385.00 L 521.00 384.00 L 519.00 372.00 L 520.00 370.00 L 524.00 378.00 L 526.00 376.00 L 526.00 364.00 L 539.00 349.00 L 565.00 331.00 L 596.00 314.00 L 632.00 298.00 L 672.00 287.00 L 716.00 281.00 L 758.00 278.00 L 798.00 278.00 L 833.00 281.00 L 863.00 287.00 L 897.00 289.00 L 935.00 287.00 L 969.00 292.00 L 999.00 304.00 L 1024.00 319.00 L 1044.00 337.00 L 1061.00 341.00 L 1075.00 331.00 L 1085.00 334.00 L 1091.00 350.00 L 1100.00 358.00 L 1112.00 358.00 L 1122.00 368.00 L 1130.00 388.00 L 1140.00 403.00 L 1152.00 413.00 L 1161.00 424.00 L 1167.00 436.00 L 1176.00 461.00 L 1188.00 499.00 L 1195.00 531.00 L 1197.00 557.00 L 1202.00 579.00 L 1210.00 597.00 L 1213.00 621.00 L 1211.00 651.00 L 1213.00 675.00 L 1219.00 693.00 L 1221.00 721.00 L 1219.00 759.00 L 1221.00 785.00 L 1227.00 799.00 L 1229.00 819.00 L 1227.00 845.00 L 1229.00 868.00 L 1235.00 888.00 L 1238.00 926.00 L 1238.00 982.00 L 1200.00 1008.00 L 1124.00 1004.00 L 1124.00 1006.00 L 1200.00 1014.00 L 1202.00 1015.00 L 1130.00 1009.00 L 1129.00 1012.00 L 1199.00 1024.00 L 1197.00 1026.00 L 1123.00 1018.00 L 1122.00 1019.00 L 1194.00 1029.00 L 1198.00 1030.00 L 1134.00 1022.00 L 1133.00 1024.00 L 1195.00 1036.00 L 1191.00 1038.00 L 1121.00 1030.00 L 1119.00 1033.00 L 1185.00 1047.00 L 1185.00 1049.00 L 1119.00 1039.00 L 1117.00 1040.00 L 1179.00 1052.00 L 1192.00 1055.00 L 1156.00 1049.00 L 1151.00 1050.00 L 1177.00 1058.00 L 1164.00 1057.00 L 1112.00 1047.00 L 1088.00 1074.00 L 1092.00 1138.00 L 1091.00 1175.00 L 1085.00 1185.00 L 1082.00 1199.00 L 1082.00 1217.00 L 1088.00 1235.00 L 1100.00 1253.00 L 1107.00 1272.00 L 1109.00 1292.00 L 1114.00 1309.00 L 1122.00 1323.00 L 1126.00 1336.00 L 1126.00 1348.00 L 1118.00 1364.00 L 1102.00 1384.00 L 1077.00 1400.00 L 1043.00 1412.00 L 1000.00 1418.00 L 948.00 1418.00 L 884.00 1425.00 L 808.00 1439.00 L 731.00 1464.00 L 653.00 1500.00 L 562.00 1556.00 L 458.00 1632.00 L 398.00 1673.00 L 382.00 1679.00 L 365.00 1682.00 L 347.00 1682.00 L 331.00 1679.00 L 317.00 1673.00 L 304.00 1662.00 L 292.00 1646.00 L 287.00 1626.00 L 289.00 1602.00 L 337.00 1525.00 L 431.00 1395.00 L 433.00 1390.00 L 343.00 1510.00 L 345.00 1506.00 L 439.00 1378.00 L 441.00 1373.00 L 351.00 1491.00 L 352.00 1488.00 L 444.00 1364.00 L 447.00 1358.00 L 361.00 1470.00 L 362.00 1468.00 L 450.00 1352.00 L 452.00 1348.00 L 368.00 1456.00 L 369.00 1450.00 L 455.00 1330.00 L 497.00 1266.00 L 495.00 1258.00 L 480.00 1256.00 L 452.00 1260.00 L 447.00 1251.00 L 465.00 1229.00 L 462.00 1227.00 L 438.00 1245.00 L 437.00 1243.00 L 459.00 1221.00 L 458.00 1220.00 L 434.00 1240.00 L 432.00 1241.00 L 452.00 1223.00 L 460.00 1214.00 L 456.00 1214.00 L 456.00 1212.00 L 460.00 1208.00 L 451.00 1215.00 L 429.00 1233.00 L 425.00 1235.00 L 439.00 1221.00 L 439.00 1218.00 L 425.00 1226.00 L 427.00 1222.00 L 445.00 1206.00 L 446.00 1204.00 L 430.00 1216.00 L 427.00 1214.00 L 437.00 1198.00 L 436.00 1183.00 L 424.00 1169.00 L 422.00 1156.00 L 430.00 1144.00 L 427.00 1129.00 L 413.00 1111.00 L 394.00 1093.00 L 370.00 1075.00 L 355.00 1060.00 L 349.00 1048.00 L 346.00 1037.00 L 346.00 1027.00 L 355.00 1009.00 L 373.00 983.00 L 382.00 967.00 L 382.00 961.00 L 381.00 951.00 Z" fill="black" stroke="black" stroke-width="1"/>
</svg>