<?xml version="1.0" encoding="UTF-8"?>
<svg xmlns="http://www.w3.org/2000/svg" viewBox="426.00 210.00 831.00 1497.00">
  <path d="M 547.00 950.00 L 509.00 934.00 L 486.00 921.00 L 478.00 911.00 L 476.00 888.00 L 480.00 852.00 L 478.00 825.00 L 470.00 807.00 L 466.00 792.00 L 466.00 780.00 L 471.00 770.00 L 481.00 762.00 L 483.00 755.00 L 477.00 749.00 L 477.00 743.00 L 483.00 737.00 L 472.00 722.00 L 444.00 698.00 L 444.00 695.00 L 472.00 713.00 L 470.00 710.00 L 438.00 686.00 L 439.00 683.00 L 473.00 701.00 L 473.00 698.00 L 439.00 674.00 L 438.00 672.00 L 470.00 692.00 L 471.00 689.00 L 441.00 663.00 L 436.00 636.00 L 456.00 608.00 L 483.00 579.00 L 517.00 549.00 L 538.00 519.00 L 546.00 489.00 L 557.00 464.00 L 571.00 444.00 L 583.00 421.00 L 593.00 395.00 L 595.00 373.00 L 589.00 355.00 L 591.00 355.00 L 601.00 373.00 L 603.00 371.00 L 597.00 349.00 L 598.00 343.00 L 606.00 353.00 L 607.00 350.00 L 601.00 334.00 L 600.00 329.00 L 604.00 335.00 L 606.00 334.00 L 606.00 326.00 L 609.00 329.00 L 615.00 343.00 L 616.00 341.00 L 612.00 323.00 L 613.00 321.00 L 619.00 335.00 L 621.00 333.00 L 619.00 315.00 L 621.00 313.00 L 627.00 327.00 L 628.00 326.00 L 624.00 310.00 L 626.00 307.00 L 634.00 317.00 L 637.00 315.00 L 635.00 301.00 L 637.00 299.00 L 643.00 309.00 L 645.00 308.00 L 643.00 296.00 L 651.00 287.00 L 669.00 281.00 L 695.00 268.00 L 729.00 248.00 L 768.00 233.00 L 812.00 223.00 L 849.00 220.00 L 879.00 224.00 L 905.00 225.00 L 927.00 223.00 L 967.00 228.00 L 1025.00 240.00 L 1067.00 252.00 L 1093.00 264.00 L 1112.00 277.00 L 1124.00 291.00 L 1137.00 301.00 L 1151.00 307.00 L 1168.00 321.00 L 1188.00 343.00 L 1206.00 370.00 L 1222.00 402.00 L 1235.00 446.00 L 1245.00 502.00 L 1247.00 555.00 L 1241.00 605.00 L 1224.00 666.00 L 1196.00 738.00 L 1182.00 804.00 L 1182.00 864.00 L 1173.00 927.00 L 1155.00 993.00 L 1146.00 1031.00 L 1146.00 1041.00 L 1165.00 1054.00 L 1203.00 1070.00 L 1205.00 1073.00 L 1171.00 1063.00 L 1172.00 1065.00 L 1208.00 1079.00 L 1209.00 1081.00 L 1175.00 1071.00 L 1176.00 1073.00 L 1212.00 1087.00 L 1213.00 1089.00 L 1179.00 1079.00 L 1160.00 1075.00 L 1156.00 1077.00 L 1172.00 1085.00 L 1208.00 1099.00 L 1225.00 1108.00 L 1223.00 1112.00 L 1211.00 1111.00 L 1189.00 1105.00 L 1188.00 1107.00 L 1208.00 1117.00 L 1205.00 1118.00 L 1179.00 1110.00 L 1177.00 1111.00 L 1199.00 1121.00 L 1201.00 1123.00 L 1183.00 1117.00 L 1176.00 1122.00 L 1180.00 1138.00 L 1175.00 1143.00 L 1161.00 1137.00 L 1161.00 1139.00 L 1175.00 1149.00 L 1173.00 1151.00 L 1155.00 1145.00 L 1156.00 1148.00 L 1176.00 1160.00 L 1179.00 1162.00 L 1165.00 1154.00 L 1166.00 1157.00 L 1182.00 1171.00 L 1179.00 1172.00 L 1157.00 1160.00 L 1146.00 1156.00 L 1146.00 1160.00 L 1155.00 1168.00 L 1173.00 1180.00 L 1177.00 1184.00 L 1167.00 1180.00 L 1165.00 1181.00 L 1171.00 1187.00 L 1167.00 1186.00 L 1153.00 1178.00 L 1151.00 1180.00 L 1161.00 1192.00 L 1160.00 1194.00 L 1148.00 1186.00 L 1140.00 1188.00 L 1136.00 1200.00 L 1134.00 1216.00 L 1134.00 1236.00 L 1137.00 1254.00 L 1143.00 1270.00 L 1151.00 1309.00 L 1161.00 1371.00 L 1164.00 1410.00 L 1160.00 1426.00 L 1163.00 1453.00 L 1173.00 1491.00 L 1143.00 1512.00 L 1073.00 1516.00 L 1025.00 1517.00 L 999.00 1515.00 L 985.00 1516.00 L 983.00 1520.00 L 947.00 1531.00 L 877.00 1549.00 L 822.00 1567.00 L 782.00 1585.00 L 719.00 1619.00 L 633.00 1669.00 L 574.00 1695.00 L 542.00 1697.00 L 511.00 1690.00 L 481.00 1674.00 L 461.00 1658.00 L 451.00 1642.00 L 444.00 1614.00 L 440.00 1574.00 L 471.00 1502.00 L 537.00 1398.00 L 538.00 1392.00 L 474.00 1484.00 L 475.00 1481.00 L 541.00 1383.00 L 543.00 1376.00 L 481.00 1460.00 L 481.00 1457.00 L 543.00 1367.00 L 548.00 1357.00 L 496.00 1427.00 L 497.00 1425.00 L 551.00 1351.00 L 553.00 1347.00 L 503.00 1413.00 L 488.00 1432.00 L 508.00 1404.00 L 512.00 1398.00 L 500.00 1414.00 L 531.00 1371.00 L 605.00 1269.00 L 630.00 1233.00 L 606.00 1263.00 L 605.00 1262.00 L 627.00 1230.00 L 635.00 1209.00 L 629.00 1199.00 L 626.00 1187.00 L 626.00 1173.00 L 602.00 1123.00 L 554.00 1037.00 L 530.00 991.00 L 530.00 985.00 L 540.00 977.00 L 560.00 967.00 L 569.00 961.00 L 567.00 959.00 L 547.00 950.00 Z" fill="black" stroke="black" stroke-width="1"/>
</svg>