<?xml version="1.0" encoding="UTF-8"?>
<svg xmlns="http://www.w3.org/2000/svg" viewBox="306.00 294.00 832.00 1421.00">
  <path d="M 415.00 996.00 L 409.00 988.00 L 408.00 982.00 L 412.00 978.00 L 410.00 973.00 L 402.00 967.00 L 399.00 951.00 L 401.00 925.00 L 391.00 904.00 L 369.00 888.00 L 378.00 854.00 L 418.00 802.00 L 406.00 748.00 L 342.00 692.00 L 316.00 667.00 L 328.00 673.00 L 329.00 671.00 L 319.00 661.00 L 321.00 661.00 L 335.00 671.00 L 367.00 698.00 L 417.00 742.00 L 413.00 736.00 L 355.00 680.00 L 354.00 677.00 L 410.00 727.00 L 413.00 726.00 L 363.00 674.00 L 363.00 672.00 L 413.00 720.00 L 415.00 719.00 L 369.00 669.00 L 357.00 653.00 L 379.00 671.00 L 382.00 670.00 L 366.00 650.00 L 369.00 650.00 L 391.00 670.00 L 393.00 670.00 L 375.00 650.00 L 385.00 660.00 L 423.00 700.00 L 426.00 699.00 L 394.00 657.00 L 395.00 654.00 L 429.00 690.00 L 431.00 690.00 L 401.00 654.00 L 401.00 653.00 L 431.00 687.00 L 434.00 687.00 L 410.00 653.00 L 411.00 651.00 L 437.00 681.00 L 440.00 681.00 L 420.00 651.00 L 421.00 648.00 L 443.00 672.00 L 445.00 672.00 L 427.00 648.00 L 428.00 646.00 L 448.00 666.00 L 452.00 666.00 L 440.00 646.00 L 440.00 636.00 L 452.00 636.00 L 458.00 632.00 L 458.00 624.00 L 461.00 623.00 L 467.00 629.00 L 467.00 627.00 L 461.00 617.00 L 460.00 615.00 L 464.00 621.00 L 467.00 619.00 L 469.00 609.00 L 476.00 604.00 L 488.00 604.00 L 537.00 529.00 L 623.00 379.00 L 708.00 304.00 L 792.00 304.00 L 898.00 340.00 L 1026.00 412.00 L 1100.00 457.00 L 1120.00 475.00 L 1128.00 496.00 L 1124.00 520.00 L 1083.00 625.00 L 1005.00 811.00 L 983.00 937.00 L 1017.00 1003.00 L 1026.00 1037.00 L 1010.00 1039.00 L 1010.00 1042.00 L 1026.00 1046.00 L 1027.00 1049.00 L 1013.00 1051.00 L 1014.00 1069.00 L 1030.00 1103.00 L 1036.00 1146.00 L 1032.00 1198.00 L 1039.00 1231.00 L 1057.00 1245.00 L 1058.00 1248.00 L 1042.00 1240.00 L 1042.00 1243.00 L 1058.00 1257.00 L 1056.00 1257.00 L 1036.00 1243.00 L 1035.00 1244.00 L 1053.00 1260.00 L 1057.00 1268.00 L 1047.00 1268.00 L 1043.00 1271.00 L 1045.00 1277.00 L 1042.00 1277.00 L 1034.00 1271.00 L 1035.00 1277.00 L 1045.00 1295.00 L 1044.00 1299.00 L 1032.00 1289.00 L 1034.00 1292.00 L 1050.00 1308.00 L 1050.00 1310.00 L 1034.00 1298.00 L 1033.00 1300.00 L 1047.00 1316.00 L 1047.00 1319.00 L 1033.00 1309.00 L 1030.00 1310.00 L 1038.00 1322.00 L 1038.00 1327.00 L 1030.00 1325.00 L 1030.00 1353.00 L 1038.00 1411.00 L 1037.00 1442.00 L 1027.00 1446.00 L 1021.00 1452.00 L 1019.00 1460.00 L 995.00 1464.00 L 949.00 1464.00 L 892.00 1473.00 L 824.00 1491.00 L 758.00 1518.00 L 694.00 1554.00 L 628.00 1601.00 L 560.00 1659.00 L 513.00 1693.00 L 487.00 1703.00 L 458.00 1705.00 L 426.00 1699.00 L 400.00 1682.00 L 380.00 1654.00 L 369.00 1615.00 L 367.00 1565.00 L 373.00 1523.00 L 387.00 1489.00 L 392.00 1475.00 L 388.00 1481.00 L 417.00 1436.00 L 479.00 1340.00 L 482.00 1334.00 L 426.00 1418.00 L 401.00 1455.00 L 407.00 1445.00 L 408.00 1443.00 L 404.00 1449.00 L 434.00 1404.00 L 498.00 1308.00 L 501.00 1303.00 L 443.00 1389.00 L 441.00 1391.00 L 495.00 1309.00 L 504.00 1293.00 L 468.00 1343.00 L 466.00 1344.00 L 498.00 1296.00 L 499.00 1293.00 L 469.00 1335.00 L 471.00 1331.00 L 505.00 1281.00 L 506.00 1278.00 L 474.00 1322.00 L 474.00 1318.00 L 506.00 1266.00 L 508.00 1255.00 L 480.00 1285.00 L 478.00 1284.00 L 502.00 1252.00 L 500.00 1253.00 L 472.00 1287.00 L 474.00 1283.00 L 506.00 1241.00 L 504.00 1241.00 L 468.00 1283.00 L 462.00 1289.00 L 486.00 1259.00 L 483.00 1260.00 L 453.00 1292.00 L 458.00 1283.00 L 498.00 1233.00 L 496.00 1232.00 L 452.00 1280.00 L 449.00 1282.00 L 487.00 1238.00 L 500.00 1220.00 L 488.00 1228.00 L 488.00 1223.00 L 500.00 1205.00 L 497.00 1179.00 L 479.00 1145.00 L 475.00 1122.00 L 485.00 1110.00 L 476.00 1097.00 L 448.00 1083.00 L 431.00 1059.00 L 425.00 1025.00 L 421.00 1006.00 L 419.00 1002.00 L 415.00 996.00 Z" fill="black" stroke="black" stroke-width="1"/>
</svg>