<?xml version="1.0" encoding="UTF-8"?>
<svg xmlns="http://www.w3.org/2000/svg" viewBox="313.00 217.00 909.00 1550.00">
  <path d="M 459.00 979.00 L 469.00 965.00 L 462.00 954.00 L 438.00 946.00 L 429.00 942.00 L 435.00 942.00 L 432.00 939.00 L 420.00 933.00 L 411.00 925.00 L 405.00 915.00 L 402.00 902.00 L 402.00 886.00 L 405.00 869.00 L 411.00 851.00 L 414.00 838.00 L 414.00 830.00 L 411.00 817.00 L 405.00 799.00 L 403.00 784.00 L 405.00 772.00 L 403.00 763.00 L 397.00 757.00 L 396.00 747.00 L 400.00 733.00 L 388.00 713.00 L 360.00 687.00 L 359.00 685.00 L 385.00 707.00 L 384.00 705.00 L 356.00 679.00 L 353.00 674.00 L 375.00 690.00 L 375.00 688.00 L 353.00 668.00 L 356.00 670.00 L 384.00 694.00 L 384.00 690.00 L 356.00 658.00 L 348.00 635.00 L 360.00 621.00 L 370.00 606.00 L 378.00 590.00 L 399.00 561.00 L 433.00 519.00 L 451.00 490.00 L 453.00 474.00 L 459.00 455.00 L 469.00 433.00 L 479.00 416.00 L 489.00 404.00 L 499.00 388.00 L 509.00 368.00 L 521.00 350.00 L 535.00 334.00 L 541.00 321.00 L 539.00 311.00 L 539.00 309.00 L 541.00 315.00 L 544.00 313.00 L 548.00 303.00 L 553.00 295.00 L 559.00 289.00 L 577.00 277.00 L 607.00 259.00 L 633.00 246.00 L 655.00 238.00 L 686.00 232.00 L 726.00 228.00 L 748.00 227.00 L 752.00 229.00 L 770.00 230.00 L 802.00 230.00 L 842.00 234.00 L 890.00 242.00 L 932.00 252.00 L 968.00 264.00 L 1000.00 280.00 L 1028.00 300.00 L 1054.00 325.00 L 1078.00 355.00 L 1095.00 382.00 L 1105.00 406.00 L 1114.00 435.00 L 1122.00 469.00 L 1125.00 514.00 L 1123.00 570.00 L 1119.00 608.00 L 1113.00 628.00 L 1095.00 666.00 L 1065.00 722.00 L 1050.00 755.00 L 1050.00 765.00 L 1053.00 777.00 L 1059.00 791.00 L 1062.00 801.00 L 1062.00 807.00 L 1054.00 816.00 L 1038.00 828.00 L 1038.00 831.00 L 1054.00 825.00 L 1055.00 827.00 L 1041.00 837.00 L 1041.00 840.00 L 1055.00 836.00 L 1056.00 837.00 L 1044.00 843.00 L 1044.00 845.00 L 1056.00 843.00 L 1056.00 845.00 L 1044.00 851.00 L 1041.00 853.00 L 1047.00 851.00 L 1048.00 853.00 L 1044.00 859.00 L 1042.00 865.00 L 1042.00 871.00 L 1048.00 910.00 L 1060.00 982.00 L 1065.00 1022.00 L 1063.00 1030.00 L 1059.00 1038.00 L 1053.00 1046.00 L 1054.00 1063.00 L 1062.00 1089.00 L 1070.00 1110.00 L 1078.00 1126.00 L 1090.00 1146.00 L 1106.00 1170.00 L 1121.00 1198.00 L 1135.00 1230.00 L 1150.00 1256.00 L 1166.00 1276.00 L 1177.00 1292.00 L 1183.00 1304.00 L 1193.00 1330.00 L 1207.00 1370.00 L 1212.00 1392.00 L 1208.00 1396.00 L 1191.00 1396.00 L 1161.00 1392.00 L 1124.00 1391.00 L 1080.00 1393.00 L 1031.00 1399.00 L 977.00 1409.00 L 933.00 1419.00 L 899.00 1429.00 L 862.00 1444.00 L 822.00 1464.00 L 780.00 1489.00 L 736.00 1519.00 L 702.00 1545.00 L 678.00 1567.00 L 659.00 1587.00 L 645.00 1605.00 L 620.00 1632.00 L 584.00 1668.00 L 552.00 1696.00 L 524.00 1716.00 L 494.00 1733.00 L 462.00 1747.00 L 441.00 1755.00 L 431.00 1757.00 L 419.00 1757.00 L 405.00 1755.00 L 393.00 1751.00 L 383.00 1745.00 L 368.00 1730.00 L 348.00 1706.00 L 335.00 1684.00 L 329.00 1664.00 L 325.00 1635.00 L 323.00 1597.00 L 325.00 1561.00 L 331.00 1527.00 L 341.00 1490.00 L 355.00 1450.00 L 370.00 1416.00 L 386.00 1388.00 L 392.00 1376.00 L 388.00 1380.00 L 400.00 1364.00 L 428.00 1328.00 L 443.00 1298.00 L 445.00 1274.00 L 444.00 1260.00 L 440.00 1256.00 L 440.00 1247.00 L 444.00 1233.00 L 451.00 1219.00 L 461.00 1205.00 L 467.00 1186.00 L 469.00 1162.00 L 477.00 1144.00 L 491.00 1132.00 L 496.00 1127.00 L 492.00 1129.00 L 492.00 1127.00 L 496.00 1121.00 L 491.00 1120.00 L 477.00 1124.00 L 471.00 1125.00 L 473.00 1123.00 L 471.00 1123.00 L 465.00 1125.00 L 460.00 1125.00 L 456.00 1123.00 L 467.00 1115.00 L 493.00 1101.00 L 491.00 1100.00 L 461.00 1112.00 L 459.00 1112.00 L 485.00 1100.00 L 485.00 1098.00 L 459.00 1106.00 L 461.00 1103.00 L 491.00 1089.00 L 491.00 1087.00 L 461.00 1097.00 L 454.00 1098.00 L 470.00 1090.00 L 471.00 1087.00 L 457.00 1089.00 L 454.00 1088.00 L 462.00 1084.00 L 463.00 1083.00 L 457.00 1085.00 L 465.00 1082.00 L 487.00 1074.00 L 492.00 1055.00 L 480.00 1025.00 L 470.00 1006.00 L 462.00 998.00 L 457.00 992.00 L 455.00 988.00 L 459.00 979.00 Z" fill="black" stroke="black" stroke-width="1"/>
</svg>