<?xml version="1.0" encoding="UTF-8"?>
<svg xmlns="http://www.w3.org/2000/svg" viewBox="297.00 183.00 950.00 1596.00">
  <path d="M 501.00 1041.00 L 531.00 1031.00 L 524.00 1014.00 L 480.00 990.00 L 461.00 964.00 L 467.00 936.00 L 459.00 897.00 L 437.00 847.00 L 429.00 812.00 L 435.00 792.00 L 422.00 770.00 L 390.00 746.00 L 390.00 744.00 L 422.00 764.00 L 422.00 759.00 L 390.00 729.00 L 388.00 724.00 L 416.00 744.00 L 418.00 741.00 L 394.00 715.00 L 407.00 673.00 L 457.00 615.00 L 481.00 556.00 L 479.00 496.00 L 482.00 469.00 L 490.00 475.00 L 500.00 449.00 L 512.00 391.00 L 556.00 333.00 L 632.00 275.00 L 699.00 235.00 L 757.00 213.00 L 821.00 199.00 L 891.00 193.00 L 977.00 208.00 L 1079.00 244.00 L 1153.00 291.00 L 1199.00 349.00 L 1227.00 400.00 L 1237.00 444.00 L 1225.00 555.00 L 1191.00 733.00 L 1184.00 869.00 L 1204.00 963.00 L 1211.00 1022.00 L 1205.00 1046.00 L 1177.00 1058.00 L 1127.00 1058.00 L 1126.00 1061.00 L 1174.00 1067.00 L 1175.00 1073.00 L 1129.00 1079.00 L 1128.00 1085.00 L 1172.00 1091.00 L 1172.00 1094.00 L 1128.00 1094.00 L 1129.00 1100.00 L 1175.00 1112.00 L 1175.00 1115.00 L 1129.00 1109.00 L 1131.00 1113.00 L 1181.00 1127.00 L 1181.00 1129.00 L 1131.00 1119.00 L 1131.00 1123.00 L 1181.00 1141.00 L 1181.00 1144.00 L 1131.00 1132.00 L 1131.00 1135.00 L 1181.00 1153.00 L 1182.00 1156.00 L 1134.00 1144.00 L 1133.00 1147.00 L 1179.00 1165.00 L 1179.00 1167.00 L 1133.00 1153.00 L 1134.00 1155.00 L 1182.00 1173.00 L 1182.00 1175.00 L 1134.00 1161.00 L 1135.00 1164.00 L 1185.00 1184.00 L 1186.00 1187.00 L 1138.00 1173.00 L 1137.00 1176.00 L 1183.00 1196.00 L 1183.00 1199.00 L 1137.00 1185.00 L 1138.00 1194.00 L 1186.00 1226.00 L 1185.00 1231.00 L 1135.00 1209.00 L 1136.00 1214.00 L 1188.00 1246.00 L 1188.00 1249.00 L 1136.00 1223.00 L 1136.00 1226.00 L 1188.00 1258.00 L 1189.00 1260.00 L 1139.00 1232.00 L 1139.00 1234.00 L 1189.00 1266.00 L 1190.00 1269.00 L 1142.00 1243.00 L 1142.00 1246.00 L 1190.00 1278.00 L 1191.00 1281.00 L 1145.00 1255.00 L 1145.00 1258.00 L 1191.00 1290.00 L 1192.00 1292.00 L 1148.00 1264.00 L 1148.00 1266.00 L 1192.00 1298.00 L 1193.00 1301.00 L 1151.00 1275.00 L 1151.00 1277.00 L 1193.00 1307.00 L 1194.00 1309.00 L 1154.00 1283.00 L 1154.00 1286.00 L 1194.00 1318.00 L 1195.00 1321.00 L 1157.00 1295.00 L 1157.00 1297.00 L 1195.00 1327.00 L 1197.00 1330.00 L 1163.00 1306.00 L 1164.00 1310.00 L 1200.00 1342.00 L 1201.00 1346.00 L 1167.00 1322.00 L 1167.00 1325.00 L 1201.00 1355.00 L 1201.00 1358.00 L 1167.00 1334.00 L 1167.00 1337.00 L 1201.00 1367.00 L 1202.00 1370.00 L 1170.00 1346.00 L 1171.00 1350.00 L 1205.00 1382.00 L 1207.00 1386.00 L 1177.00 1362.00 L 1177.00 1365.00 L 1207.00 1395.00 L 1208.00 1398.00 L 1180.00 1374.00 L 1181.00 1378.00 L 1211.00 1410.00 L 1215.00 1417.00 L 1193.00 1399.00 L 1193.00 1402.00 L 1215.00 1426.00 L 1217.00 1431.00 L 1199.00 1417.00 L 1199.00 1421.00 L 1217.00 1443.00 L 1220.00 1449.00 L 1208.00 1439.00 L 1207.00 1463.00 L 1217.00 1521.00 L 1140.00 1550.00 L 976.00 1550.00 L 855.00 1563.00 L 777.00 1589.00 L 667.00 1644.00 L 525.00 1728.00 L 427.00 1769.00 L 373.00 1767.00 L 336.00 1748.00 L 316.00 1712.00 L 307.00 1676.00 L 309.00 1640.00 L 326.00 1587.00 L 358.00 1517.00 L 396.00 1458.00 L 440.00 1410.00 L 451.00 1396.00 L 429.00 1416.00 L 429.00 1415.00 L 451.00 1393.00 L 463.00 1366.00 L 465.00 1334.00 L 446.00 1331.00 L 406.00 1357.00 L 407.00 1354.00 L 449.00 1322.00 L 445.00 1323.00 L 395.00 1357.00 L 397.00 1353.00 L 451.00 1311.00 L 449.00 1309.00 L 391.00 1347.00 L 393.00 1344.00 L 455.00 1300.00 L 459.00 1296.00 L 405.00 1332.00 L 402.00 1330.00 L 450.00 1290.00 L 457.00 1280.00 L 423.00 1300.00 L 431.00 1282.00 L 481.00 1226.00 L 500.00 1162.00 L 488.00 1090.00 L 483.00 1052.00 L 485.00 1048.00 L 501.00 1041.00 Z" fill="black" stroke="black" stroke-width="1"/>
</svg>