<?xml version="1.0" encoding="UTF-8"?>
<svg xmlns="http://www.w3.org/2000/svg" viewBox="184.00 38.00 1517.00 1859.00">
  <path d="M 713.00 957.00 L 683.00 935.00 L 673.00 912.00 L 683.00 888.00 L 566.00 844.00 L 322.00 780.00 L 198.00 742.00 L 194.00 730.00 L 319.00 759.00 L 573.00 829.00 L 573.00 825.00 L 319.00 747.00 L 199.00 710.00 L 213.00 714.00 L 214.00 709.00 L 202.00 695.00 L 203.00 688.00 L 217.00 688.00 L 345.00 729.00 L 587.00 811.00 L 581.00 806.00 L 327.00 714.00 L 209.00 669.00 L 227.00 671.00 L 230.00 666.00 L 218.00 654.00 L 223.00 651.00 L 245.00 657.00 L 245.00 654.00 L 223.00 642.00 L 339.00 686.00 L 593.00 786.00 L 594.00 782.00 L 342.00 674.00 L 344.00 672.00 L 600.00 776.00 L 602.00 772.00 L 350.00 660.00 L 249.00 613.00 L 299.00 631.00 L 302.00 627.00 L 258.00 601.00 L 362.00 645.00 L 614.00 759.00 L 617.00 754.00 L 371.00 630.00 L 374.00 628.00 L 626.00 748.00 L 632.00 742.00 L 392.00 610.00 L 326.00 569.00 L 434.00 619.00 L 438.00 614.00 L 338.00 554.00 L 407.00 592.00 L 645.00 728.00 L 648.00 725.00 L 416.00 583.00 L 362.00 547.00 L 486.00 617.00 L 490.00 613.00 L 374.00 535.00 L 382.00 537.00 L 514.00 619.00 L 516.00 618.00 L 388.00 534.00 L 438.00 565.00 L 666.00 711.00 L 669.00 708.00 L 447.00 556.00 L 411.00 527.00 L 561.00 621.00 L 566.00 617.00 L 426.00 515.00 L 463.00 540.00 L 677.00 692.00 L 680.00 689.00 L 472.00 531.00 L 472.00 528.00 L 680.00 680.00 L 687.00 674.00 L 493.00 510.00 L 493.00 506.00 L 687.00 662.00 L 690.00 660.00 L 502.00 500.00 L 495.00 490.00 L 669.00 630.00 L 675.00 626.00 L 513.00 478.00 L 522.00 483.00 L 702.00 641.00 L 706.00 639.00 L 534.00 477.00 L 513.00 367.00 L 643.00 309.00 L 771.00 266.00 L 897.00 238.00 L 969.00 206.00 L 987.00 170.00 L 1031.00 129.00 L 1101.00 83.00 L 1157.00 56.00 L 1199.00 48.00 L 1267.00 57.00 L 1361.00 83.00 L 1426.00 126.00 L 1462.00 186.00 L 1473.00 236.00 L 1459.00 276.00 L 1462.00 279.00 L 1482.00 245.00 L 1481.00 255.00 L 1459.00 309.00 L 1481.00 381.00 L 1547.00 471.00 L 1601.00 581.00 L 1643.00 711.00 L 1672.00 847.00 L 1688.00 989.00 L 1691.00 1141.00 L 1681.00 1303.00 L 1609.00 1341.00 L 1475.00 1255.00 L 1475.00 1259.00 L 1609.00 1353.00 L 1607.00 1354.00 L 1469.00 1262.00 L 1468.00 1265.00 L 1604.00 1363.00 L 1605.00 1366.00 L 1471.00 1274.00 L 1471.00 1278.00 L 1605.00 1378.00 L 1606.00 1381.00 L 1474.00 1287.00 L 1473.00 1294.00 L 1603.00 1402.00 L 1603.00 1407.00 L 1473.00 1309.00 L 1472.00 1313.00 L 1600.00 1419.00 L 1601.00 1422.00 L 1475.00 1322.00 L 1478.00 1331.00 L 1610.00 1449.00 L 1610.00 1452.00 L 1478.00 1340.00 L 1477.00 1344.00 L 1607.00 1464.00 L 1607.00 1467.00 L 1477.00 1353.00 L 1478.00 1356.00 L 1610.00 1476.00 L 1664.00 1526.00 L 1640.00 1506.00 L 1638.00 1512.00 L 1658.00 1544.00 L 1604.00 1499.00 L 1476.00 1377.00 L 1474.00 1381.00 L 1598.00 1511.00 L 1597.00 1516.00 L 1471.00 1396.00 L 1462.00 1397.00 L 1570.00 1519.00 L 1570.00 1523.00 L 1462.00 1409.00 L 1419.00 1371.00 L 1441.00 1409.00 L 1441.00 1422.00 L 1419.00 1410.00 L 1415.00 1452.00 L 1429.00 1548.00 L 1432.00 1606.00 L 1424.00 1626.00 L 1383.00 1634.00 L 1309.00 1630.00 L 1222.00 1639.00 L 1122.00 1661.00 L 1036.00 1687.00 L 964.00 1717.00 L 873.00 1770.00 L 763.00 1846.00 L 686.00 1885.00 L 642.00 1887.00 L 616.00 1885.00 L 608.00 1879.00 L 662.00 1756.00 L 778.00 1516.00 L 775.00 1513.00 L 653.00 1747.00 L 653.00 1744.00 L 775.00 1504.00 L 773.00 1500.00 L 647.00 1732.00 L 647.00 1729.00 L 773.00 1491.00 L 771.00 1487.00 L 641.00 1717.00 L 640.00 1714.00 L 768.00 1478.00 L 767.00 1471.00 L 637.00 1693.00 L 636.00 1690.00 L 764.00 1462.00 L 766.00 1450.00 L 642.00 1654.00 L 642.00 1651.00 L 766.00 1441.00 L 815.00 1294.00 L 789.00 1210.00 L 775.00 1141.00 L 773.00 1087.00 L 762.00 1041.00 L 742.00 1003.00 L 731.00 980.00 L 729.00 972.00 L 713.00 957.00 Z" fill="black" stroke="black" stroke-width="1"/>
</svg>