<?xml version="1.0" encoding="UTF-8"?>
<svg xmlns="http://www.w3.org/2000/svg" viewBox="300.00 213.00 940.00 1559.00">
  <path d="M 492.00 1049.00 L 496.00 1047.00 L 490.00 1043.00 L 474.00 1037.00 L 451.00 1024.00 L 421.00 1004.00 L 399.00 986.00 L 385.00 970.00 L 378.00 952.00 L 378.00 932.00 L 385.00 911.00 L 399.00 889.00 L 402.00 869.00 L 394.00 851.00 L 391.00 838.00 L 393.00 830.00 L 392.00 821.00 L 388.00 811.00 L 390.00 808.00 L 398.00 812.00 L 396.00 810.00 L 384.00 802.00 L 383.00 801.00 L 393.00 807.00 L 394.00 804.00 L 386.00 792.00 L 381.00 773.00 L 379.00 747.00 L 369.00 726.00 L 351.00 710.00 L 349.00 707.00 L 363.00 717.00 L 361.00 714.00 L 343.00 698.00 L 333.00 684.00 L 331.00 672.00 L 356.00 637.00 L 408.00 579.00 L 440.00 528.00 L 452.00 484.00 L 470.00 442.00 L 494.00 402.00 L 517.00 371.00 L 539.00 349.00 L 552.00 333.00 L 556.00 323.00 L 559.00 320.00 L 561.00 324.00 L 563.00 322.00 L 565.00 314.00 L 574.00 305.00 L 590.00 295.00 L 627.00 278.00 L 685.00 254.00 L 725.00 241.00 L 747.00 239.00 L 765.00 235.00 L 779.00 229.00 L 807.00 225.00 L 849.00 223.00 L 894.00 224.00 L 942.00 228.00 L 976.00 233.00 L 996.00 239.00 L 1026.00 251.00 L 1066.00 269.00 L 1099.00 288.00 L 1125.00 308.00 L 1150.00 333.00 L 1174.00 363.00 L 1193.00 394.00 L 1207.00 426.00 L 1218.00 480.00 L 1226.00 556.00 L 1230.00 614.00 L 1230.00 654.00 L 1224.00 711.00 L 1212.00 785.00 L 1208.00 858.00 L 1212.00 930.00 L 1209.00 984.00 L 1199.00 1020.00 L 1191.00 1062.00 L 1185.00 1110.00 L 1178.00 1146.00 L 1170.00 1170.00 L 1166.00 1186.00 L 1166.00 1194.00 L 1172.00 1203.00 L 1184.00 1213.00 L 1185.00 1216.00 L 1175.00 1212.00 L 1180.00 1215.00 L 1200.00 1225.00 L 1201.00 1227.00 L 1183.00 1221.00 L 1185.00 1224.00 L 1207.00 1236.00 L 1220.00 1245.00 L 1224.00 1251.00 L 1215.00 1251.00 L 1193.00 1245.00 L 1194.00 1248.00 L 1218.00 1260.00 L 1219.00 1262.00 L 1197.00 1254.00 L 1197.00 1256.00 L 1219.00 1268.00 L 1222.00 1270.00 L 1206.00 1262.00 L 1203.00 1264.00 L 1213.00 1276.00 L 1204.00 1275.00 L 1176.00 1261.00 L 1168.00 1260.00 L 1180.00 1272.00 L 1180.00 1275.00 L 1168.00 1269.00 L 1164.00 1269.00 L 1168.00 1275.00 L 1167.00 1277.00 L 1161.00 1275.00 L 1164.00 1278.00 L 1176.00 1286.00 L 1177.00 1289.00 L 1167.00 1287.00 L 1169.00 1294.00 L 1183.00 1310.00 L 1182.00 1313.00 L 1166.00 1303.00 L 1167.00 1305.00 L 1185.00 1319.00 L 1185.00 1320.00 L 1167.00 1308.00 L 1168.00 1311.00 L 1188.00 1329.00 L 1188.00 1332.00 L 1168.00 1320.00 L 1166.00 1322.00 L 1182.00 1338.00 L 1183.00 1341.00 L 1169.00 1331.00 L 1170.00 1332.00 L 1186.00 1344.00 L 1186.00 1346.00 L 1170.00 1338.00 L 1165.00 1380.00 L 1171.00 1472.00 L 1173.00 1523.00 L 1171.00 1533.00 L 1167.00 1540.00 L 1161.00 1544.00 L 1156.00 1545.00 L 1152.00 1543.00 L 1150.00 1553.00 L 1150.00 1575.00 L 1147.00 1588.00 L 1141.00 1592.00 L 1119.00 1591.00 L 1081.00 1585.00 L 1034.00 1582.00 L 978.00 1582.00 L 921.00 1586.00 L 863.00 1594.00 L 776.00 1615.00 L 660.00 1649.00 L 549.00 1690.00 L 443.00 1738.00 L 382.00 1762.00 L 366.00 1762.00 L 352.00 1759.00 L 340.00 1753.00 L 328.00 1737.00 L 316.00 1711.00 L 310.00 1688.00 L 310.00 1668.00 L 320.00 1623.00 L 340.00 1553.00 L 366.00 1490.00 L 398.00 1434.00 L 437.00 1384.00 L 483.00 1340.00 L 485.00 1337.00 L 443.00 1375.00 L 444.00 1373.00 L 488.00 1331.00 L 504.00 1308.00 L 492.00 1304.00 L 497.00 1292.00 L 519.00 1272.00 L 519.00 1269.00 L 497.00 1283.00 L 495.00 1283.00 L 513.00 1269.00 L 516.00 1266.00 L 504.00 1274.00 L 504.00 1270.00 L 516.00 1254.00 L 515.00 1250.00 L 501.00 1258.00 L 501.00 1255.00 L 515.00 1241.00 L 510.00 1240.00 L 486.00 1252.00 L 485.00 1249.00 L 507.00 1231.00 L 505.00 1229.00 L 479.00 1243.00 L 479.00 1241.00 L 505.00 1223.00 L 504.00 1221.00 L 476.00 1235.00 L 477.00 1233.00 L 507.00 1215.00 L 510.00 1212.00 L 486.00 1224.00 L 485.00 1221.00 L 507.00 1203.00 L 515.00 1190.00 L 509.00 1182.00 L 506.00 1171.00 L 506.00 1157.00 L 501.00 1145.00 L 491.00 1135.00 L 484.00 1122.00 L 480.00 1106.00 L 474.00 1092.00 L 466.00 1080.00 L 466.00 1069.00 L 474.00 1059.00 L 481.00 1053.00 L 487.00 1051.00 L 492.00 1049.00 Z" fill="black" stroke="black" stroke-width="1"/>
</svg>