<?xml version="1.0" encoding="UTF-8"?>
<svg xmlns="http://www.w3.org/2000/svg" viewBox="407.00 297.00 787.00 1493.00">
  <path d="M 471.00 1001.00 L 481.00 983.00 L 483.00 963.00 L 477.00 941.00 L 476.00 926.00 L 480.00 918.00 L 477.00 909.00 L 467.00 899.00 L 464.00 887.00 L 468.00 873.00 L 453.00 855.00 L 419.00 833.00 L 418.00 829.00 L 450.00 843.00 L 450.00 841.00 L 418.00 823.00 L 417.00 822.00 L 447.00 838.00 L 447.00 836.00 L 417.00 816.00 L 428.00 769.00 L 480.00 695.00 L 507.00 644.00 L 509.00 616.00 L 518.00 583.00 L 534.00 545.00 L 537.00 512.00 L 527.00 484.00 L 528.00 482.00 L 540.00 506.00 L 540.00 504.00 L 528.00 476.00 L 528.00 474.00 L 540.00 498.00 L 542.00 500.00 L 534.00 480.00 L 534.00 478.00 L 542.00 494.00 L 547.00 500.00 L 549.00 496.00 L 546.00 484.00 L 538.00 464.00 L 536.00 458.00 L 540.00 466.00 L 541.00 465.00 L 539.00 455.00 L 542.00 458.00 L 550.00 474.00 L 552.00 472.00 L 548.00 452.00 L 549.00 448.00 L 555.00 460.00 L 556.00 457.00 L 552.00 439.00 L 553.00 438.00 L 559.00 454.00 L 561.00 449.00 L 559.00 423.00 L 561.00 418.00 L 567.00 434.00 L 569.00 432.00 L 567.00 412.00 L 569.00 409.00 L 575.00 423.00 L 576.00 422.00 L 572.00 406.00 L 581.00 389.00 L 603.00 371.00 L 632.00 354.00 L 668.00 338.00 L 706.00 328.00 L 746.00 324.00 L 774.00 319.00 L 790.00 313.00 L 836.00 309.00 L 912.00 307.00 L 968.00 312.00 L 1004.00 324.00 L 1035.00 340.00 L 1061.00 360.00 L 1088.00 385.00 L 1116.00 415.00 L 1135.00 440.00 L 1145.00 460.00 L 1154.00 480.00 L 1162.00 500.00 L 1171.00 535.00 L 1181.00 585.00 L 1184.00 632.00 L 1180.00 676.00 L 1172.00 719.00 L 1160.00 761.00 L 1140.00 812.00 L 1112.00 872.00 L 1091.00 911.00 L 1077.00 929.00 L 1066.00 940.00 L 1058.00 944.00 L 1058.00 977.00 L 1066.00 1039.00 L 1074.00 1082.00 L 1082.00 1106.00 L 1085.00 1126.00 L 1083.00 1142.00 L 1105.00 1204.00 L 1151.00 1312.00 L 1173.00 1368.00 L 1171.00 1372.00 L 1137.00 1374.00 L 1071.00 1374.00 L 1026.00 1376.00 L 1002.00 1380.00 L 968.00 1389.00 L 924.00 1403.00 L 886.00 1418.00 L 854.00 1434.00 L 823.00 1454.00 L 793.00 1478.00 L 764.00 1505.00 L 736.00 1535.00 L 688.00 1597.00 L 620.00 1691.00 L 576.00 1747.00 L 556.00 1765.00 L 540.00 1776.00 L 528.00 1780.00 L 511.00 1779.00 L 489.00 1773.00 L 472.00 1764.00 L 460.00 1752.00 L 455.00 1725.00 L 457.00 1683.00 L 457.00 1663.00 L 455.00 1665.00 L 462.00 1630.00 L 478.00 1558.00 L 498.00 1494.00 L 522.00 1438.00 L 533.00 1405.00 L 531.00 1395.00 L 533.00 1377.00 L 539.00 1351.00 L 540.00 1341.00 L 536.00 1347.00 L 542.00 1333.00 L 558.00 1299.00 L 564.00 1281.00 L 560.00 1279.00 L 558.00 1275.00 L 558.00 1269.00 L 557.00 1267.00 L 555.00 1269.00 L 556.00 1265.00 L 560.00 1255.00 L 557.00 1250.00 L 547.00 1250.00 L 534.00 1256.00 L 518.00 1268.00 L 525.00 1257.00 L 555.00 1223.00 L 552.00 1223.00 L 516.00 1257.00 L 516.00 1255.00 L 552.00 1217.00 L 549.00 1217.00 L 507.00 1255.00 L 507.00 1253.00 L 549.00 1211.00 L 548.00 1210.00 L 504.00 1250.00 L 503.00 1249.00 L 545.00 1207.00 L 557.00 1194.00 L 539.00 1210.00 L 534.00 1213.00 L 542.00 1203.00 L 541.00 1201.00 L 531.00 1207.00 L 528.00 1207.00 L 532.00 1201.00 L 541.00 1192.00 L 555.00 1180.00 L 553.00 1181.00 L 535.00 1195.00 L 535.00 1193.00 L 553.00 1175.00 L 559.00 1156.00 L 553.00 1136.00 L 545.00 1120.00 L 535.00 1108.00 L 531.00 1097.00 L 533.00 1087.00 L 538.00 1079.00 L 546.00 1073.00 L 534.00 1065.00 L 502.00 1055.00 L 481.00 1043.00 L 471.00 1029.00 L 466.00 1019.00 L 466.00 1013.00 L 471.00 1001.00 Z" fill="black" stroke="black" stroke-width="1"/>
</svg>