<?xml version="1.0" encoding="UTF-8"?>
<svg xmlns="http://www.w3.org/2000/svg" viewBox="214.00 112.00 1464.00 1598.00">
  <path d="M 739.00 865.00 L 741.00 835.00 L 727.00 813.00 L 697.00 799.00 L 685.00 783.00 L 691.00 765.00 L 567.00 703.00 L 313.00 597.00 L 315.00 594.00 L 573.00 694.00 L 577.00 688.00 L 327.00 576.00 L 224.00 523.00 L 268.00 529.00 L 272.00 523.00 L 236.00 505.00 L 342.00 555.00 L 590.00 673.00 L 593.00 670.00 L 351.00 546.00 L 264.00 495.00 L 332.00 517.00 L 456.00 576.00 L 636.00 672.00 L 608.00 655.00 L 372.00 525.00 L 297.00 477.00 L 383.00 511.00 L 389.00 505.00 L 315.00 459.00 L 392.00 504.00 L 620.00 640.00 L 622.00 638.00 L 398.00 498.00 L 341.00 456.00 L 451.00 512.00 L 457.00 507.00 L 359.00 441.00 L 419.00 480.00 L 637.00 624.00 L 640.00 621.00 L 428.00 471.00 L 384.00 435.00 L 508.00 513.00 L 513.00 510.00 L 399.00 426.00 L 446.00 459.00 L 654.00 609.00 L 656.00 607.00 L 452.00 453.00 L 454.00 451.00 L 662.00 601.00 L 669.00 595.00 L 475.00 433.00 L 453.00 409.00 L 603.00 523.00 L 610.00 518.00 L 474.00 394.00 L 498.00 414.00 L 682.00 578.00 L 685.00 576.00 L 507.00 408.00 L 508.00 404.00 L 688.00 564.00 L 694.00 559.00 L 526.00 389.00 L 526.00 385.00 L 694.00 547.00 L 699.00 543.00 L 541.00 373.00 L 542.00 371.00 L 702.00 537.00 L 705.00 535.00 L 551.00 365.00 L 552.00 362.00 L 708.00 526.00 L 715.00 522.00 L 573.00 350.00 L 566.00 242.00 L 694.00 198.00 L 789.00 173.00 L 851.00 167.00 L 907.00 150.00 L 957.00 122.00 L 1069.00 132.00 L 1243.00 180.00 L 1365.00 227.00 L 1435.00 273.00 L 1496.00 328.00 L 1548.00 392.00 L 1596.00 489.00 L 1640.00 619.00 L 1664.00 757.00 L 1668.00 903.00 L 1571.00 963.00 L 1373.00 937.00 L 1373.00 940.00 L 1571.00 972.00 L 1571.00 974.00 L 1373.00 946.00 L 1372.00 952.00 L 1568.00 992.00 L 1568.00 995.00 L 1372.00 961.00 L 1372.00 967.00 L 1568.00 1013.00 L 1573.00 1015.00 L 1387.00 973.00 L 1386.00 976.00 L 1570.00 1024.00 L 1571.00 1027.00 L 1389.00 985.00 L 1388.00 991.00 L 1568.00 1045.00 L 1562.00 1044.00 L 1370.00 988.00 L 1370.00 992.00 L 1562.00 1056.00 L 1562.00 1059.00 L 1370.00 1001.00 L 1369.00 1005.00 L 1559.00 1071.00 L 1559.00 1074.00 L 1369.00 1014.00 L 1367.00 1021.00 L 1553.00 1095.00 L 1566.00 1102.00 L 1406.00 1042.00 L 1405.00 1047.00 L 1563.00 1117.00 L 1550.00 1113.00 L 1366.00 1035.00 L 1365.00 1037.00 L 1547.00 1119.00 L 1564.00 1129.00 L 1416.00 1067.00 L 1414.00 1074.00 L 1558.00 1150.00 L 1541.00 1144.00 L 1363.00 1056.00 L 1362.00 1058.00 L 1538.00 1150.00 L 1538.00 1154.00 L 1362.00 1070.00 L 1360.00 1078.00 L 1532.00 1178.00 L 1558.00 1194.00 L 1438.00 1126.00 L 1436.00 1130.00 L 1552.00 1206.00 L 1526.00 1194.00 L 1358.00 1094.00 L 1357.00 1097.00 L 1523.00 1203.00 L 1524.00 1206.00 L 1360.00 1106.00 L 1358.00 1112.00 L 1518.00 1224.00 L 1518.00 1228.00 L 1358.00 1124.00 L 1355.00 1130.00 L 1509.00 1246.00 L 1509.00 1250.00 L 1355.00 1142.00 L 1352.00 1148.00 L 1500.00 1268.00 L 1499.00 1270.00 L 1349.00 1154.00 L 1347.00 1158.00 L 1493.00 1282.00 L 1492.00 1285.00 L 1344.00 1167.00 L 1341.00 1174.00 L 1483.00 1306.00 L 1482.00 1308.00 L 1338.00 1180.00 L 1336.00 1183.00 L 1476.00 1317.00 L 1477.00 1320.00 L 1339.00 1192.00 L 1337.00 1196.00 L 1471.00 1332.00 L 1475.00 1338.00 L 1349.00 1214.00 L 1338.00 1206.00 L 1442.00 1314.00 L 1502.00 1380.00 L 1518.00 1404.00 L 1467.00 1355.00 L 1349.00 1233.00 L 1347.00 1235.00 L 1461.00 1361.00 L 1462.00 1364.00 L 1350.00 1244.00 L 1309.00 1242.00 L 1339.00 1358.00 L 1279.00 1419.00 L 1129.00 1425.00 L 1021.00 1447.00 L 955.00 1485.00 L 874.00 1550.00 L 778.00 1642.00 L 717.00 1692.00 L 691.00 1700.00 L 663.00 1699.00 L 633.00 1689.00 L 610.00 1670.00 L 594.00 1642.00 L 593.00 1590.00 L 607.00 1514.00 L 653.00 1409.00 L 731.00 1275.00 L 754.00 1226.00 L 722.00 1262.00 L 727.00 1253.00 L 769.00 1199.00 L 783.00 1178.00 L 769.00 1190.00 L 768.00 1183.00 L 780.00 1157.00 L 775.00 1152.00 L 753.00 1168.00 L 753.00 1164.00 L 775.00 1140.00 L 773.00 1137.00 L 747.00 1155.00 L 746.00 1151.00 L 770.00 1125.00 L 777.00 1095.00 L 767.00 1061.00 L 767.00 1037.00 L 777.00 1023.00 L 771.00 985.00 L 749.00 923.00 L 738.00 889.00 L 738.00 883.00 L 739.00 865.00 Z" fill="black" stroke="black" stroke-width="1"/>
</svg>