<?xml version="1.0" encoding="UTF-8"?>
<svg xmlns="http://www.w3.org/2000/svg" viewBox="406.00 198.00 952.00 1627.00">
  <path d="M 497.00 1010.00 L 503.00 1002.00 L 502.00 993.00 L 494.00 983.00 L 493.00 964.00 L 499.00 936.00 L 487.00 910.00 L 457.00 886.00 L 442.00 870.00 L 442.00 862.00 L 469.00 827.00 L 523.00 765.00 L 508.00 683.00 L 424.00 581.00 L 424.00 579.00 L 508.00 677.00 L 509.00 675.00 L 427.00 573.00 L 427.00 570.00 L 509.00 666.00 L 511.00 665.00 L 433.00 567.00 L 433.00 564.00 L 511.00 656.00 L 516.00 655.00 L 448.00 561.00 L 424.00 525.00 L 444.00 547.00 L 447.00 547.00 L 433.00 525.00 L 457.00 555.00 L 519.00 637.00 L 521.00 637.00 L 463.00 555.00 L 464.00 552.00 L 524.00 628.00 L 527.00 627.00 L 473.00 549.00 L 449.00 510.00 L 455.00 510.00 L 483.00 546.00 L 533.00 618.00 L 536.00 618.00 L 492.00 546.00 L 493.00 544.00 L 539.00 612.00 L 542.00 612.00 L 502.00 544.00 L 503.00 542.00 L 545.00 606.00 L 548.00 606.00 L 512.00 542.00 L 513.00 539.00 L 551.00 597.00 L 554.00 597.00 L 522.00 539.00 L 516.00 525.00 L 536.00 555.00 L 539.00 555.00 L 525.00 525.00 L 529.00 529.00 L 551.00 567.00 L 554.00 567.00 L 538.00 529.00 L 551.00 510.00 L 593.00 510.00 L 643.00 480.00 L 701.00 420.00 L 780.00 350.00 L 880.00 270.00 L 943.00 224.00 L 969.00 212.00 L 991.00 208.00 L 1009.00 212.00 L 1079.00 276.00 L 1201.00 400.00 L 1278.00 483.00 L 1310.00 525.00 L 1332.00 559.00 L 1344.00 585.00 L 1348.00 606.00 L 1344.00 622.00 L 1287.00 702.00 L 1177.00 846.00 L 1128.00 947.00 L 1140.00 1005.00 L 1124.00 1035.00 L 1080.00 1037.00 L 1081.00 1040.00 L 1127.00 1044.00 L 1127.00 1045.00 L 1081.00 1043.00 L 1081.00 1046.00 L 1127.00 1054.00 L 1127.00 1056.00 L 1081.00 1052.00 L 1081.00 1054.00 L 1127.00 1062.00 L 1127.00 1065.00 L 1081.00 1063.00 L 1082.00 1066.00 L 1130.00 1074.00 L 1133.00 1075.00 L 1091.00 1069.00 L 1091.00 1072.00 L 1133.00 1084.00 L 1130.00 1087.00 L 1082.00 1081.00 L 1082.00 1084.00 L 1130.00 1096.00 L 1134.00 1098.00 L 1094.00 1090.00 L 1094.00 1092.00 L 1134.00 1104.00 L 1130.00 1105.00 L 1082.00 1095.00 L 1081.00 1097.00 L 1127.00 1111.00 L 1126.00 1113.00 L 1078.00 1103.00 L 1078.00 1106.00 L 1126.00 1122.00 L 1124.00 1123.00 L 1072.00 1109.00 L 1071.00 1112.00 L 1121.00 1132.00 L 1120.00 1134.00 L 1068.00 1118.00 L 1068.00 1121.00 L 1120.00 1143.00 L 1121.00 1145.00 L 1071.00 1127.00 L 1070.00 1130.00 L 1118.00 1154.00 L 1119.00 1157.00 L 1073.00 1139.00 L 1072.00 1140.00 L 1116.00 1160.00 L 1130.00 1167.00 L 1114.00 1161.00 L 1113.00 1163.00 L 1127.00 1173.00 L 1132.00 1178.00 L 1128.00 1178.00 L 1107.00 1169.00 L 1069.00 1151.00 L 1052.00 1162.00 L 1056.00 1202.00 L 1056.00 1238.00 L 1052.00 1270.00 L 1067.00 1318.00 L 1101.00 1382.00 L 1123.00 1429.00 L 1133.00 1459.00 L 1138.00 1484.00 L 1138.00 1504.00 L 1117.00 1515.00 L 1075.00 1517.00 L 1020.00 1528.00 L 952.00 1548.00 L 880.00 1578.00 L 804.00 1618.00 L 712.00 1680.00 L 604.00 1764.00 L 540.00 1809.00 L 520.00 1815.00 L 499.00 1814.00 L 477.00 1806.00 L 455.00 1789.00 L 433.00 1763.00 L 420.00 1729.00 L 416.00 1687.00 L 450.00 1602.00 L 522.00 1474.00 L 528.00 1459.00 L 468.00 1557.00 L 439.00 1604.00 L 441.00 1600.00 L 472.00 1549.00 L 532.00 1451.00 L 533.00 1448.00 L 475.00 1540.00 L 454.00 1573.00 L 470.00 1547.00 L 471.00 1545.00 L 457.00 1567.00 L 488.00 1515.00 L 564.00 1389.00 L 586.00 1351.00 L 554.00 1401.00 L 553.00 1397.00 L 583.00 1339.00 L 579.00 1335.00 L 541.00 1385.00 L 541.00 1383.00 L 579.00 1329.00 L 577.00 1329.00 L 535.00 1383.00 L 534.00 1381.00 L 574.00 1323.00 L 576.00 1318.00 L 540.00 1366.00 L 540.00 1365.00 L 576.00 1315.00 L 571.00 1319.00 L 525.00 1377.00 L 523.00 1374.00 L 565.00 1310.00 L 583.00 1270.00 L 577.00 1254.00 L 567.00 1240.00 L 553.00 1228.00 L 557.00 1212.00 L 579.00 1192.00 L 578.00 1189.00 L 554.00 1203.00 L 551.00 1202.00 L 569.00 1186.00 L 570.00 1183.00 L 554.00 1193.00 L 552.00 1192.00 L 564.00 1180.00 L 560.00 1170.00 L 540.00 1162.00 L 526.00 1153.00 L 518.00 1143.00 L 512.00 1129.00 L 508.00 1111.00 L 510.00 1093.00 L 518.00 1075.00 L 514.00 1056.00 L 498.00 1036.00 L 491.00 1023.00 L 493.00 1017.00 L 497.00 1010.00 Z" fill="black" stroke="black" stroke-width="1"/>
</svg>