<?xml version="1.0" encoding="UTF-8"?>
<svg xmlns="http://www.w3.org/2000/svg" viewBox="373.00 275.00 795.00 1427.00">
  <path d="M 463.00 979.00 L 465.00 965.00 L 471.00 949.00 L 481.00 931.00 L 484.00 919.00 L 480.00 913.00 L 479.00 898.00 L 481.00 874.00 L 464.00 831.00 L 428.00 769.00 L 403.00 714.00 L 389.00 666.00 L 383.00 619.00 L 385.00 573.00 L 395.00 530.00 L 413.00 490.00 L 440.00 450.00 L 476.00 410.00 L 505.00 381.00 L 527.00 363.00 L 563.00 342.00 L 613.00 318.00 L 649.00 303.00 L 671.00 297.00 L 715.00 291.00 L 781.00 285.00 L 837.00 289.00 L 883.00 303.00 L 916.00 317.00 L 936.00 331.00 L 967.00 360.00 L 1009.00 404.00 L 1029.00 434.00 L 1027.00 450.00 L 1029.00 453.00 L 1035.00 443.00 L 1036.00 445.00 L 1032.00 459.00 L 1033.00 461.00 L 1039.00 451.00 L 1040.00 454.00 L 1036.00 470.00 L 1037.00 472.00 L 1043.00 460.00 L 1043.00 462.00 L 1037.00 478.00 L 1038.00 481.00 L 1046.00 471.00 L 1047.00 473.00 L 1041.00 487.00 L 1040.00 493.00 L 1044.00 491.00 L 1045.00 493.00 L 1043.00 499.00 L 1045.00 496.00 L 1051.00 484.00 L 1052.00 486.00 L 1048.00 502.00 L 1049.00 505.00 L 1055.00 495.00 L 1056.00 498.00 L 1052.00 514.00 L 1056.00 541.00 L 1068.00 579.00 L 1072.00 605.00 L 1068.00 619.00 L 1067.00 625.00 L 1069.00 623.00 L 1070.00 628.00 L 1070.00 640.00 L 1083.00 664.00 L 1109.00 700.00 L 1131.00 735.00 L 1149.00 769.00 L 1158.00 792.00 L 1158.00 804.00 L 1142.00 819.00 L 1110.00 837.00 L 1108.00 839.00 L 1136.00 825.00 L 1136.00 827.00 L 1108.00 845.00 L 1096.00 867.00 L 1100.00 893.00 L 1098.00 909.00 L 1090.00 915.00 L 1087.00 923.00 L 1089.00 933.00 L 1085.00 950.00 L 1075.00 974.00 L 1075.00 999.00 L 1085.00 1025.00 L 1089.00 1043.00 L 1087.00 1053.00 L 1078.00 1065.00 L 1062.00 1079.00 L 1039.00 1090.00 L 1009.00 1098.00 L 984.00 1102.00 L 964.00 1102.00 L 957.00 1107.00 L 963.00 1117.00 L 963.00 1129.00 L 957.00 1143.00 L 964.00 1163.00 L 984.00 1189.00 L 984.00 1191.00 L 964.00 1169.00 L 964.00 1174.00 L 984.00 1206.00 L 985.00 1212.00 L 967.00 1192.00 L 977.00 1212.00 L 1015.00 1272.00 L 1023.00 1289.00 L 1001.00 1263.00 L 1000.00 1265.00 L 1020.00 1295.00 L 1019.00 1297.00 L 997.00 1271.00 L 993.00 1270.00 L 1007.00 1294.00 L 1006.00 1303.00 L 990.00 1297.00 L 1006.00 1338.00 L 1054.00 1426.00 L 1052.00 1425.00 L 1000.00 1335.00 L 1006.00 1349.00 L 1070.00 1467.00 L 1069.00 1467.00 L 1003.00 1349.00 L 1004.00 1352.00 L 1072.00 1476.00 L 1109.00 1544.00 L 1115.00 1556.00 L 1091.00 1513.00 L 1037.00 1415.00 L 1037.00 1417.00 L 1091.00 1519.00 L 1089.00 1517.00 L 1031.00 1411.00 L 1033.00 1416.00 L 1095.00 1532.00 L 1086.00 1516.00 L 1006.00 1368.00 L 1007.00 1374.00 L 1089.00 1534.00 L 1089.00 1536.00 L 1007.00 1380.00 L 1007.00 1381.00 L 1089.00 1539.00 L 1091.00 1543.00 L 1013.00 1393.00 L 1013.00 1395.00 L 1091.00 1549.00 L 1130.00 1632.00 L 1130.00 1644.00 L 1127.00 1657.00 L 1121.00 1671.00 L 1109.00 1682.00 L 1091.00 1690.00 L 1074.00 1692.00 L 1058.00 1688.00 L 1021.00 1650.00 L 963.00 1578.00 L 919.00 1533.00 L 889.00 1515.00 L 864.00 1503.00 L 844.00 1497.00 L 789.00 1490.00 L 699.00 1482.00 L 625.00 1473.00 L 567.00 1463.00 L 522.00 1453.00 L 490.00 1443.00 L 462.00 1430.00 L 438.00 1414.00 L 421.00 1398.00 L 411.00 1382.00 L 403.00 1364.00 L 397.00 1344.00 L 393.00 1318.00 L 391.00 1286.00 L 396.00 1251.00 L 408.00 1213.00 L 414.00 1181.00 L 414.00 1155.00 L 418.00 1135.00 L 426.00 1121.00 L 428.00 1109.00 L 424.00 1099.00 L 429.00 1079.00 L 443.00 1049.00 L 452.00 1024.00 L 456.00 1004.00 L 459.00 992.00 L 461.00 988.00 L 463.00 979.00 Z" fill="black" stroke="black" stroke-width="1"/>
</svg>