<?xml version="1.0" encoding="UTF-8"?>
<svg xmlns="http://www.w3.org/2000/svg" viewBox="330.00 176.00 940.00 1723.00">
  <path d="M 504.00 1066.00 L 500.00 1042.00 L 507.00 1024.00 L 525.00 1012.00 L 521.00 1001.00 L 495.00 991.00 L 474.00 978.00 L 458.00 962.00 L 448.00 948.00 L 444.00 936.00 L 444.00 916.00 L 448.00 888.00 L 445.00 864.00 L 435.00 844.00 L 432.00 832.00 L 436.00 828.00 L 433.00 821.00 L 423.00 811.00 L 422.00 809.00 L 430.00 815.00 L 430.00 812.00 L 422.00 800.00 L 421.00 790.00 L 427.00 782.00 L 413.00 761.00 L 379.00 727.00 L 379.00 725.00 L 413.00 755.00 L 412.00 751.00 L 376.00 713.00 L 374.00 708.00 L 406.00 736.00 L 408.00 733.00 L 380.00 699.00 L 390.00 656.00 L 438.00 604.00 L 460.00 568.00 L 456.00 548.00 L 456.00 527.00 L 460.00 505.00 L 479.00 452.00 L 513.00 368.00 L 532.00 330.00 L 536.00 338.00 L 538.00 336.00 L 538.00 324.00 L 539.00 321.00 L 541.00 327.00 L 549.00 320.00 L 563.00 300.00 L 598.00 272.00 L 654.00 236.00 L 714.00 210.00 L 778.00 194.00 L 839.00 186.00 L 897.00 186.00 L 946.00 191.00 L 986.00 201.00 L 1025.00 216.00 L 1063.00 236.00 L 1103.00 271.00 L 1145.00 321.00 L 1175.00 379.00 L 1193.00 445.00 L 1202.00 512.00 L 1202.00 580.00 L 1197.00 644.00 L 1187.00 704.00 L 1187.00 791.00 L 1197.00 905.00 L 1199.00 1001.00 L 1193.00 1079.00 L 1200.00 1123.00 L 1220.00 1133.00 L 1221.00 1137.00 L 1203.00 1135.00 L 1198.00 1135.00 L 1206.00 1137.00 L 1206.00 1140.00 L 1198.00 1144.00 L 1203.00 1148.00 L 1221.00 1152.00 L 1222.00 1154.00 L 1206.00 1154.00 L 1205.00 1157.00 L 1219.00 1163.00 L 1218.00 1166.00 L 1202.00 1166.00 L 1200.00 1170.00 L 1212.00 1178.00 L 1212.00 1193.00 L 1200.00 1215.00 L 1208.00 1234.00 L 1236.00 1250.00 L 1236.00 1253.00 L 1208.00 1243.00 L 1208.00 1246.00 L 1236.00 1262.00 L 1241.00 1270.00 L 1223.00 1270.00 L 1221.00 1280.00 L 1235.00 1300.00 L 1232.00 1307.00 L 1212.00 1301.00 L 1213.00 1304.00 L 1235.00 1316.00 L 1240.00 1319.00 L 1228.00 1313.00 L 1231.00 1316.00 L 1249.00 1328.00 L 1245.00 1328.00 L 1219.00 1316.00 L 1220.00 1319.00 L 1248.00 1337.00 L 1249.00 1340.00 L 1223.00 1328.00 L 1222.00 1330.00 L 1246.00 1346.00 L 1246.00 1350.00 L 1222.00 1342.00 L 1218.00 1343.00 L 1234.00 1353.00 L 1235.00 1356.00 L 1221.00 1352.00 L 1220.00 1356.00 L 1232.00 1368.00 L 1235.00 1373.00 L 1229.00 1371.00 L 1235.00 1395.00 L 1253.00 1445.00 L 1260.00 1482.00 L 1256.00 1506.00 L 1244.00 1523.00 L 1224.00 1533.00 L 1208.00 1533.00 L 1196.00 1523.00 L 1190.00 1531.00 L 1190.00 1557.00 L 1148.00 1569.00 L 1064.00 1567.00 L 985.00 1573.00 L 911.00 1587.00 L 849.00 1604.00 L 799.00 1624.00 L 744.00 1652.00 L 684.00 1688.00 L 611.00 1744.00 L 525.00 1820.00 L 464.00 1866.00 L 428.00 1882.00 L 401.00 1889.00 L 383.00 1887.00 L 367.00 1878.00 L 353.00 1862.00 L 344.00 1835.00 L 340.00 1797.00 L 346.00 1756.00 L 362.00 1712.00 L 380.00 1673.00 L 400.00 1639.00 L 403.00 1629.00 L 389.00 1643.00 L 388.00 1641.00 L 400.00 1623.00 L 394.00 1611.00 L 370.00 1605.00 L 370.00 1586.00 L 394.00 1554.00 L 394.00 1551.00 L 370.00 1577.00 L 367.00 1578.00 L 385.00 1554.00 L 386.00 1550.00 L 370.00 1566.00 L 370.00 1564.00 L 386.00 1544.00 L 390.00 1538.00 L 382.00 1546.00 L 379.00 1545.00 L 381.00 1535.00 L 377.00 1528.00 L 367.00 1524.00 L 363.00 1517.00 L 365.00 1507.00 L 375.00 1491.00 L 393.00 1469.00 L 392.00 1467.00 L 372.00 1485.00 L 369.00 1486.00 L 383.00 1470.00 L 390.00 1448.00 L 390.00 1420.00 L 398.00 1398.00 L 414.00 1382.00 L 418.00 1376.00 L 410.00 1380.00 L 412.00 1373.00 L 424.00 1355.00 L 439.00 1339.00 L 457.00 1325.00 L 455.00 1326.00 L 433.00 1342.00 L 451.00 1315.00 L 509.00 1245.00 L 536.00 1208.00 L 532.00 1204.00 L 503.00 1213.00 L 449.00 1235.00 L 447.00 1233.00 L 497.00 1207.00 L 499.00 1203.00 L 453.00 1221.00 L 442.00 1215.00 L 466.00 1185.00 L 490.00 1164.00 L 514.00 1152.00 L 522.00 1132.00 L 514.00 1104.00 L 509.00 1087.00 L 507.00 1081.00 L 504.00 1066.00 Z" fill="black" stroke="black" stroke-width="1"/>
</svg>