<?xml version="1.0" encoding="UTF-8"?>
<svg xmlns="http://www.w3.org/2000/svg" viewBox="386.00 220.00 944.00 1599.00">
  <path d="M 513.00 1018.00 L 511.00 1002.00 L 513.00 984.00 L 519.00 964.00 L 520.00 948.00 L 516.00 936.00 L 510.00 925.00 L 502.00 915.00 L 499.00 904.00 L 501.00 892.00 L 498.00 879.00 L 490.00 865.00 L 488.00 854.00 L 492.00 846.00 L 493.00 837.00 L 491.00 827.00 L 491.00 815.00 L 493.00 801.00 L 481.00 784.00 L 455.00 764.00 L 453.00 761.00 L 475.00 775.00 L 474.00 772.00 L 450.00 752.00 L 438.00 740.00 L 438.00 736.00 L 443.00 725.00 L 453.00 707.00 L 466.00 688.00 L 482.00 668.00 L 501.00 649.00 L 523.00 631.00 L 538.00 617.00 L 546.00 607.00 L 551.00 600.00 L 553.00 596.00 L 553.00 577.00 L 551.00 543.00 L 553.00 517.00 L 559.00 499.00 L 567.00 484.00 L 577.00 472.00 L 593.00 444.00 L 615.00 400.00 L 631.00 372.00 L 641.00 360.00 L 648.00 348.00 L 652.00 336.00 L 655.00 333.00 L 657.00 339.00 L 658.00 338.00 L 658.00 330.00 L 662.00 321.00 L 670.00 311.00 L 694.00 292.00 L 734.00 264.00 L 762.00 247.00 L 778.00 241.00 L 794.00 236.00 L 810.00 232.00 L 837.00 230.00 L 875.00 230.00 L 936.00 238.00 L 1020.00 254.00 L 1081.00 270.00 L 1119.00 286.00 L 1158.00 309.00 L 1198.00 339.00 L 1227.00 365.00 L 1245.00 387.00 L 1265.00 415.00 L 1287.00 449.00 L 1302.00 478.00 L 1310.00 502.00 L 1316.00 530.00 L 1320.00 562.00 L 1320.00 599.00 L 1316.00 641.00 L 1301.00 696.00 L 1275.00 764.00 L 1259.00 814.00 L 1253.00 846.00 L 1248.00 866.00 L 1244.00 874.00 L 1240.00 900.00 L 1236.00 944.00 L 1221.00 969.00 L 1195.00 975.00 L 1194.00 977.00 L 1218.00 975.00 L 1218.00 977.00 L 1194.00 983.00 L 1194.00 985.00 L 1218.00 983.00 L 1218.00 984.00 L 1194.00 988.00 L 1193.00 990.00 L 1215.00 990.00 L 1215.00 993.00 L 1193.00 999.00 L 1192.00 1002.00 L 1212.00 1002.00 L 1212.00 1004.00 L 1192.00 1008.00 L 1190.00 1010.00 L 1206.00 1010.00 L 1206.00 1012.00 L 1190.00 1016.00 L 1183.00 1035.00 L 1185.00 1069.00 L 1184.00 1090.00 L 1180.00 1098.00 L 1181.00 1112.00 L 1187.00 1132.00 L 1186.00 1154.00 L 1178.00 1178.00 L 1180.00 1197.00 L 1192.00 1211.00 L 1205.00 1244.00 L 1219.00 1296.00 L 1237.00 1345.00 L 1259.00 1391.00 L 1273.00 1424.00 L 1279.00 1444.00 L 1281.00 1461.00 L 1279.00 1475.00 L 1246.00 1483.00 L 1182.00 1485.00 L 1119.00 1494.00 L 1057.00 1510.00 L 996.00 1530.00 L 936.00 1554.00 L 882.00 1578.00 L 834.00 1602.00 L 780.00 1632.00 L 720.00 1668.00 L 679.00 1697.00 L 657.00 1719.00 L 646.00 1728.00 L 646.00 1724.00 L 644.00 1725.00 L 640.00 1731.00 L 618.00 1747.00 L 578.00 1773.00 L 540.00 1792.00 L 504.00 1804.00 L 475.00 1809.00 L 453.00 1807.00 L 432.00 1799.00 L 412.00 1785.00 L 400.00 1772.00 L 396.00 1760.00 L 448.00 1667.00 L 556.00 1493.00 L 555.00 1491.00 L 445.00 1661.00 L 446.00 1658.00 L 558.00 1482.00 L 558.00 1479.00 L 446.00 1649.00 L 447.00 1646.00 L 561.00 1470.00 L 561.00 1466.00 L 447.00 1634.00 L 437.00 1648.00 L 531.00 1508.00 L 531.00 1505.00 L 437.00 1639.00 L 448.00 1620.00 L 564.00 1448.00 L 565.00 1443.00 L 451.00 1605.00 L 451.00 1604.00 L 565.00 1440.00 L 566.00 1437.00 L 454.00 1595.00 L 455.00 1593.00 L 569.00 1431.00 L 571.00 1427.00 L 461.00 1581.00 L 437.00 1614.00 L 499.00 1526.00 L 500.00 1524.00 L 440.00 1608.00 L 465.00 1573.00 L 575.00 1419.00 L 576.00 1417.00 L 468.00 1567.00 L 441.00 1604.00 L 495.00 1528.00 L 498.00 1523.00 L 450.00 1589.00 L 449.00 1590.00 L 495.00 1526.00 L 496.00 1524.00 L 452.00 1584.00 L 434.00 1608.00 L 442.00 1596.00 L 494.00 1524.00 L 590.00 1392.00 L 592.00 1389.00 L 500.00 1515.00 L 502.00 1512.00 L 598.00 1380.00 L 599.00 1378.00 L 505.00 1506.00 L 502.00 1510.00 L 590.00 1390.00 L 592.00 1387.00 L 508.00 1501.00 L 516.00 1489.00 L 616.00 1351.00 L 666.00 1279.00 L 666.00 1273.00 L 663.00 1268.00 L 657.00 1264.00 L 652.00 1257.00 L 648.00 1247.00 L 645.00 1236.00 L 643.00 1224.00 L 634.00 1207.00 L 618.00 1185.00 L 608.00 1167.00 L 604.00 1153.00 L 597.00 1143.00 L 587.00 1137.00 L 583.00 1129.00 L 585.00 1119.00 L 594.00 1107.00 L 610.00 1093.00 L 611.00 1083.00 L 597.00 1077.00 L 582.00 1073.00 L 566.00 1071.00 L 548.00 1062.00 L 528.00 1046.00 L 517.00 1035.00 L 515.00 1029.00 L 513.00 1018.00 Z" fill="black" stroke="black" stroke-width="1"/>
</svg>