<?xml version="1.0" encoding="UTF-8"?>
<svg xmlns="http://www.w3.org/2000/svg" viewBox="224.00 181.00 978.00 1575.00">
  <path d="M 454.00 985.00 L 438.00 959.00 L 415.00 927.00 L 385.00 889.00 L 336.00 821.00 L 268.00 723.00 L 234.00 662.00 L 234.00 638.00 L 235.00 621.00 L 237.00 611.00 L 244.00 593.00 L 256.00 567.00 L 270.00 541.00 L 286.00 515.00 L 309.00 484.00 L 339.00 448.00 L 402.00 380.00 L 498.00 280.00 L 557.00 221.00 L 579.00 203.00 L 594.00 193.00 L 602.00 191.00 L 609.00 194.00 L 615.00 202.00 L 618.00 202.00 L 618.00 194.00 L 619.00 192.00 L 621.00 196.00 L 623.00 197.00 L 625.00 195.00 L 627.00 197.00 L 629.00 203.00 L 634.00 205.00 L 642.00 203.00 L 650.00 204.00 L 658.00 208.00 L 670.00 218.00 L 686.00 234.00 L 707.00 258.00 L 733.00 290.00 L 769.00 339.00 L 815.00 405.00 L 850.00 451.00 L 874.00 477.00 L 895.00 497.00 L 913.00 511.00 L 972.00 529.00 L 1072.00 551.00 L 1102.00 590.00 L 1062.00 646.00 L 1065.00 645.00 L 1111.00 587.00 L 1112.00 588.00 L 1068.00 648.00 L 1071.00 648.00 L 1121.00 588.00 L 1130.00 578.00 L 1098.00 618.00 L 1101.00 618.00 L 1139.00 578.00 L 1131.00 591.00 L 1077.00 657.00 L 1078.00 658.00 L 1134.00 594.00 L 1135.00 596.00 L 1081.00 664.00 L 1076.00 673.00 L 1120.00 623.00 L 1149.00 592.00 L 1163.00 580.00 L 1141.00 608.00 L 1083.00 676.00 L 1057.00 718.00 L 1063.00 734.00 L 1067.00 752.00 L 1069.00 772.00 L 1090.00 803.00 L 1130.00 845.00 L 1149.00 870.00 L 1147.00 878.00 L 1138.00 890.00 L 1122.00 906.00 L 1113.00 917.00 L 1111.00 923.00 L 1115.00 938.00 L 1125.00 962.00 L 1130.00 977.00 L 1130.00 983.00 L 1126.00 992.00 L 1118.00 1004.00 L 1115.00 1015.00 L 1117.00 1025.00 L 1117.00 1033.00 L 1115.00 1039.00 L 1109.00 1049.00 L 1099.00 1063.00 L 1099.00 1079.00 L 1109.00 1097.00 L 1113.00 1114.00 L 1111.00 1130.00 L 1105.00 1143.00 L 1095.00 1153.00 L 1075.00 1167.00 L 1045.00 1185.00 L 1037.00 1203.00 L 1051.00 1221.00 L 1048.00 1223.00 L 1028.00 1209.00 L 1028.00 1211.00 L 1048.00 1229.00 L 1057.00 1243.00 L 1055.00 1253.00 L 1045.00 1266.00 L 1027.00 1282.00 L 1026.00 1303.00 L 1042.00 1329.00 L 1041.00 1331.00 L 1023.00 1309.00 L 1017.00 1304.00 L 1023.00 1316.00 L 1040.00 1341.00 L 1068.00 1379.00 L 1064.00 1374.00 L 1028.00 1326.00 L 1029.00 1329.00 L 1067.00 1383.00 L 1075.00 1397.00 L 1053.00 1371.00 L 1047.00 1365.00 L 1057.00 1379.00 L 1050.00 1370.00 L 1026.00 1338.00 L 1031.00 1346.00 L 1065.00 1394.00 L 1063.00 1392.00 L 1025.00 1340.00 L 1023.00 1340.00 L 1057.00 1392.00 L 1064.00 1405.00 L 1044.00 1379.00 L 1042.00 1378.00 L 1058.00 1402.00 L 1051.00 1392.00 L 1021.00 1348.00 L 1019.00 1348.00 L 1045.00 1392.00 L 1043.00 1392.00 L 1013.00 1348.00 L 1022.00 1365.00 L 1070.00 1443.00 L 1099.00 1491.00 L 1109.00 1509.00 L 1096.00 1491.00 L 1060.00 1437.00 L 1060.00 1439.00 L 1096.00 1497.00 L 1090.00 1488.00 L 1042.00 1412.00 L 1055.00 1435.00 L 1129.00 1557.00 L 1133.00 1565.00 L 1067.00 1459.00 L 1074.00 1472.00 L 1154.00 1604.00 L 1189.00 1662.00 L 1179.00 1646.00 L 1180.00 1649.00 L 1192.00 1671.00 L 1154.00 1612.00 L 1066.00 1472.00 L 1066.00 1476.00 L 1154.00 1624.00 L 1161.00 1636.00 L 1087.00 1512.00 L 1087.00 1514.00 L 1161.00 1642.00 L 1151.00 1627.00 L 1057.00 1469.00 L 1057.00 1471.00 L 1151.00 1633.00 L 1157.00 1645.00 L 1075.00 1507.00 L 1074.00 1509.00 L 1154.00 1651.00 L 1147.00 1640.00 L 1053.00 1476.00 L 1053.00 1478.00 L 1147.00 1646.00 L 1148.00 1649.00 L 1056.00 1487.00 L 1054.00 1489.00 L 1142.00 1655.00 L 1181.00 1740.00 L 1171.00 1744.00 L 1162.00 1746.00 L 1154.00 1746.00 L 1146.00 1744.00 L 1138.00 1740.00 L 1121.00 1729.00 L 1095.00 1711.00 L 1065.00 1686.00 L 1031.00 1654.00 L 975.00 1619.00 L 897.00 1581.00 L 831.00 1556.00 L 777.00 1544.00 L 725.00 1536.00 L 675.00 1532.00 L 617.00 1524.00 L 551.00 1512.00 L 510.00 1499.00 L 494.00 1485.00 L 483.00 1469.00 L 477.00 1451.00 L 482.00 1420.00 L 498.00 1376.00 L 505.00 1346.00 L 503.00 1330.00 L 509.00 1302.00 L 523.00 1262.00 L 529.00 1241.00 L 527.00 1239.00 L 520.00 1241.00 L 508.00 1247.00 L 498.00 1250.00 L 490.00 1250.00 L 483.00 1249.00 L 477.00 1247.00 L 469.00 1240.00 L 459.00 1228.00 L 455.00 1204.00 L 457.00 1168.00 L 464.00 1127.00 L 476.00 1081.00 L 482.00 1051.00 L 482.00 1037.00 L 479.00 1024.00 L 473.00 1012.00 L 468.00 1004.00 L 464.00 1000.00 L 454.00 985.00 Z" fill="black" stroke="black" stroke-width="1"/>
</svg>