<?xml version="1.0" encoding="UTF-8"?>
<svg xmlns="http://www.w3.org/2000/svg" viewBox="457.00 310.00 862.00 1455.00">
  <path d="M 554.00 1000.00 L 570.00 980.00 L 572.00 965.00 L 560.00 955.00 L 555.00 946.00 L 557.00 938.00 L 556.00 931.00 L 552.00 925.00 L 550.00 912.00 L 550.00 892.00 L 543.00 877.00 L 529.00 867.00 L 529.00 865.00 L 543.00 871.00 L 538.00 867.00 L 514.00 853.00 L 513.00 851.00 L 535.00 861.00 L 533.00 859.00 L 507.00 845.00 L 493.00 832.00 L 491.00 820.00 L 499.00 805.00 L 517.00 787.00 L 528.00 774.00 L 532.00 766.00 L 542.00 753.00 L 558.00 735.00 L 569.00 719.00 L 575.00 705.00 L 576.00 690.00 L 572.00 674.00 L 575.00 653.00 L 585.00 627.00 L 587.00 609.00 L 581.00 599.00 L 580.00 596.00 L 584.00 600.00 L 584.00 597.00 L 580.00 587.00 L 582.00 588.00 L 590.00 600.00 L 595.00 604.00 L 597.00 600.00 L 594.00 589.00 L 586.00 571.00 L 588.00 569.00 L 600.00 583.00 L 601.00 581.00 L 591.00 563.00 L 587.00 553.00 L 589.00 551.00 L 595.00 558.00 L 605.00 574.00 L 607.00 572.00 L 601.00 552.00 L 602.00 548.00 L 610.00 560.00 L 612.00 558.00 L 608.00 542.00 L 609.00 539.00 L 615.00 549.00 L 619.00 553.00 L 621.00 551.00 L 619.00 544.00 L 613.00 532.00 L 610.00 523.00 L 610.00 517.00 L 617.00 499.00 L 631.00 469.00 L 642.00 450.00 L 650.00 442.00 L 662.00 433.00 L 678.00 423.00 L 701.00 405.00 L 731.00 379.00 L 751.00 364.00 L 761.00 360.00 L 785.00 354.00 L 823.00 346.00 L 851.00 338.00 L 869.00 330.00 L 898.00 324.00 L 938.00 320.00 L 967.00 321.00 L 985.00 327.00 L 999.00 329.00 L 1009.00 327.00 L 1026.00 328.00 L 1050.00 332.00 L 1071.00 339.00 L 1089.00 349.00 L 1105.00 356.00 L 1119.00 360.00 L 1137.00 369.00 L 1159.00 383.00 L 1184.00 405.00 L 1212.00 435.00 L 1237.00 468.00 L 1259.00 504.00 L 1274.00 537.00 L 1282.00 567.00 L 1289.00 588.00 L 1295.00 600.00 L 1301.00 617.00 L 1307.00 639.00 L 1309.00 670.00 L 1307.00 710.00 L 1305.00 734.00 L 1303.00 742.00 L 1295.00 757.00 L 1281.00 779.00 L 1269.00 801.00 L 1259.00 823.00 L 1243.00 851.00 L 1221.00 885.00 L 1197.00 913.00 L 1171.00 935.00 L 1157.00 952.00 L 1155.00 964.00 L 1148.00 972.00 L 1136.00 976.00 L 1135.00 978.00 L 1145.00 978.00 L 1145.00 981.00 L 1135.00 987.00 L 1130.00 993.00 L 1130.00 999.00 L 1132.00 1006.00 L 1136.00 1014.00 L 1141.00 1019.00 L 1147.00 1021.00 L 1149.00 1022.00 L 1147.00 1022.00 L 1151.00 1027.00 L 1161.00 1037.00 L 1169.00 1062.00 L 1175.00 1102.00 L 1183.00 1136.00 L 1193.00 1164.00 L 1199.00 1191.00 L 1201.00 1217.00 L 1198.00 1236.00 L 1190.00 1248.00 L 1192.00 1265.00 L 1204.00 1287.00 L 1213.00 1308.00 L 1219.00 1328.00 L 1234.00 1355.00 L 1258.00 1389.00 L 1272.00 1412.00 L 1276.00 1424.00 L 1276.00 1432.00 L 1272.00 1436.00 L 1248.00 1437.00 L 1204.00 1435.00 L 1166.00 1436.00 L 1134.00 1440.00 L 1096.00 1447.00 L 1052.00 1457.00 L 1012.00 1468.00 L 976.00 1480.00 L 942.00 1494.00 L 910.00 1510.00 L 877.00 1529.00 L 843.00 1551.00 L 803.00 1580.00 L 757.00 1616.00 L 705.00 1662.00 L 647.00 1718.00 L 607.00 1749.00 L 585.00 1755.00 L 561.00 1755.00 L 535.00 1749.00 L 512.00 1734.00 L 492.00 1710.00 L 479.00 1690.00 L 473.00 1674.00 L 469.00 1651.00 L 467.00 1621.00 L 474.00 1582.00 L 490.00 1534.00 L 511.00 1491.00 L 537.00 1453.00 L 540.00 1447.00 L 520.00 1473.00 L 522.00 1468.00 L 546.00 1432.00 L 558.00 1407.00 L 558.00 1393.00 L 561.00 1376.00 L 567.00 1356.00 L 569.00 1347.00 L 567.00 1349.00 L 576.00 1335.00 L 596.00 1305.00 L 602.00 1294.00 L 594.00 1302.00 L 595.00 1300.00 L 605.00 1288.00 L 612.00 1274.00 L 616.00 1258.00 L 623.00 1242.00 L 633.00 1226.00 L 637.00 1213.00 L 635.00 1203.00 L 626.00 1200.00 L 610.00 1204.00 L 597.00 1201.00 L 587.00 1191.00 L 589.00 1181.00 L 603.00 1171.00 L 605.00 1168.00 L 595.00 1172.00 L 595.00 1170.00 L 605.00 1162.00 L 605.00 1147.00 L 595.00 1125.00 L 583.00 1106.00 L 569.00 1090.00 L 562.00 1077.00 L 562.00 1067.00 L 559.00 1059.00 L 553.00 1053.00 L 549.00 1043.00 L 547.00 1029.00 L 546.00 1019.00 L 546.00 1013.00 L 554.00 1000.00 Z" fill="black" stroke="black" stroke-width="1"/>
</svg>