<?xml version="1.0" encoding="UTF-8"?>
<svg xmlns="http://www.w3.org/2000/svg" viewBox="322.00 314.00 864.00 1398.00">
  <path d="M 472.00 931.00 L 476.00 893.00 L 477.00 862.00 L 475.00 838.00 L 470.00 821.00 L 462.00 811.00 L 462.00 808.00 L 470.00 812.00 L 469.00 810.00 L 459.00 802.00 L 437.00 770.00 L 403.00 714.00 L 381.00 669.00 L 371.00 635.00 L 366.00 594.00 L 366.00 546.00 L 357.00 510.00 L 339.00 486.00 L 339.00 483.00 L 357.00 501.00 L 357.00 499.00 L 339.00 477.00 L 336.00 472.00 L 348.00 484.00 L 348.00 482.00 L 336.00 466.00 L 340.00 468.00 L 360.00 488.00 L 360.00 486.00 L 340.00 462.00 L 340.00 461.00 L 360.00 483.00 L 360.00 480.00 L 340.00 452.00 L 332.00 431.00 L 336.00 417.00 L 345.00 404.00 L 359.00 392.00 L 372.00 384.00 L 384.00 380.00 L 396.00 378.00 L 408.00 378.00 L 418.00 384.00 L 426.00 396.00 L 428.00 396.00 L 424.00 384.00 L 426.00 382.00 L 434.00 390.00 L 445.00 387.00 L 459.00 373.00 L 477.00 360.00 L 499.00 348.00 L 537.00 337.00 L 591.00 327.00 L 644.00 324.00 L 696.00 328.00 L 739.00 329.00 L 773.00 327.00 L 801.00 329.00 L 823.00 335.00 L 838.00 342.00 L 846.00 350.00 L 862.00 358.00 L 886.00 366.00 L 905.00 370.00 L 919.00 370.00 L 933.00 374.00 L 947.00 382.00 L 959.00 380.00 L 969.00 368.00 L 972.00 369.00 L 968.00 383.00 L 970.00 381.00 L 978.00 363.00 L 981.00 363.00 L 979.00 381.00 L 982.00 382.00 L 990.00 366.00 L 999.00 359.00 L 1009.00 361.00 L 1017.00 365.00 L 1023.00 371.00 L 1018.00 392.00 L 1002.00 428.00 L 1003.00 429.00 L 1021.00 395.00 L 1022.00 398.00 L 1006.00 438.00 L 1008.00 440.00 L 1028.00 404.00 L 1029.00 405.00 L 1011.00 443.00 L 1004.00 458.00 L 1008.00 450.00 L 1009.00 451.00 L 1007.00 461.00 L 1015.00 449.00 L 1033.00 415.00 L 1034.00 417.00 L 1018.00 455.00 L 1019.00 458.00 L 1037.00 426.00 L 1039.00 428.00 L 1025.00 464.00 L 1031.00 510.00 L 1057.00 566.00 L 1071.00 608.00 L 1073.00 636.00 L 1077.00 657.00 L 1083.00 671.00 L 1109.00 703.00 L 1155.00 753.00 L 1176.00 785.00 L 1172.00 799.00 L 1158.00 813.00 L 1134.00 827.00 L 1125.00 850.00 L 1131.00 882.00 L 1130.00 902.00 L 1122.00 910.00 L 1120.00 918.00 L 1124.00 926.00 L 1120.00 938.00 L 1108.00 954.00 L 1105.00 969.00 L 1111.00 983.00 L 1113.00 1000.00 L 1111.00 1020.00 L 1104.00 1037.00 L 1092.00 1051.00 L 1074.00 1065.00 L 1050.00 1079.00 L 1025.00 1089.00 L 999.00 1095.00 L 990.00 1101.00 L 998.00 1107.00 L 986.00 1130.00 L 954.00 1170.00 L 943.00 1197.00 L 953.00 1211.00 L 956.00 1216.00 L 952.00 1212.00 L 952.00 1216.00 L 956.00 1228.00 L 953.00 1230.00 L 943.00 1222.00 L 942.00 1224.00 L 950.00 1236.00 L 951.00 1239.00 L 945.00 1233.00 L 948.00 1244.00 L 960.00 1272.00 L 981.00 1311.00 L 1011.00 1361.00 L 1012.00 1364.00 L 984.00 1320.00 L 986.00 1326.00 L 1018.00 1382.00 L 1018.00 1384.00 L 986.00 1332.00 L 985.00 1331.00 L 1015.00 1381.00 L 1019.00 1389.00 L 997.00 1355.00 L 998.00 1358.00 L 1022.00 1398.00 L 1041.00 1434.00 L 1055.00 1466.00 L 1056.00 1472.00 L 1044.00 1452.00 L 1052.00 1473.00 L 1080.00 1535.00 L 1096.00 1578.00 L 1100.00 1602.00 L 1101.00 1619.00 L 1099.00 1629.00 L 1090.00 1646.00 L 1074.00 1670.00 L 1058.00 1687.00 L 1042.00 1697.00 L 1023.00 1702.00 L 1001.00 1702.00 L 975.00 1695.00 L 945.00 1681.00 L 918.00 1664.00 L 894.00 1644.00 L 861.00 1606.00 L 819.00 1550.00 L 787.00 1511.00 L 765.00 1489.00 L 721.00 1460.00 L 655.00 1424.00 L 590.00 1398.00 L 526.00 1382.00 L 457.00 1374.00 L 383.00 1374.00 L 347.00 1367.00 L 349.00 1353.00 L 358.00 1328.00 L 374.00 1292.00 L 396.00 1249.00 L 424.00 1199.00 L 433.00 1177.00 L 423.00 1183.00 L 410.00 1185.00 L 394.00 1183.00 L 383.00 1177.00 L 377.00 1167.00 L 383.00 1155.00 L 401.00 1141.00 L 401.00 1138.00 L 383.00 1146.00 L 385.00 1144.00 L 407.00 1132.00 L 407.00 1131.00 L 385.00 1141.00 L 379.00 1143.00 L 389.00 1137.00 L 389.00 1135.00 L 379.00 1137.00 L 386.00 1132.00 L 410.00 1120.00 L 411.00 1119.00 L 389.00 1129.00 L 389.00 1127.00 L 411.00 1113.00 L 426.00 1089.00 L 434.00 1055.00 L 448.00 1027.00 L 468.00 1005.00 L 477.00 985.00 L 475.00 967.00 L 473.00 956.00 L 471.00 952.00 L 472.00 931.00 Z" fill="black" stroke="black" stroke-width="1"/>
</svg>