<?xml version="1.0" encoding="UTF-8"?>
<svg xmlns="http://www.w3.org/2000/svg" viewBox="366.00 215.00 865.00 1507.00">
  <path d="M 512.00 942.00 L 524.00 934.00 L 527.00 924.00 L 521.00 912.00 L 521.00 906.00 L 527.00 906.00 L 524.00 904.00 L 512.00 900.00 L 504.00 890.00 L 500.00 874.00 L 488.00 851.00 L 468.00 821.00 L 439.00 755.00 L 401.00 653.00 L 380.00 589.00 L 376.00 563.00 L 377.00 521.00 L 383.00 463.00 L 401.00 405.00 L 431.00 347.00 L 455.00 309.00 L 473.00 291.00 L 501.00 272.00 L 539.00 252.00 L 574.00 238.00 L 606.00 230.00 L 632.00 228.00 L 652.00 232.00 L 685.00 231.00 L 731.00 225.00 L 768.00 228.00 L 796.00 240.00 L 823.00 246.00 L 849.00 246.00 L 891.00 262.00 L 949.00 294.00 L 991.00 322.00 L 1017.00 346.00 L 1029.00 365.00 L 1027.00 379.00 L 1030.00 381.00 L 1038.00 371.00 L 1041.00 372.00 L 1039.00 384.00 L 1040.00 385.00 L 1044.00 375.00 L 1044.00 377.00 L 1040.00 391.00 L 1042.00 393.00 L 1050.00 383.00 L 1052.00 385.00 L 1048.00 399.00 L 1047.00 404.00 L 1049.00 400.00 L 1051.00 403.00 L 1053.00 413.00 L 1057.00 411.00 L 1063.00 397.00 L 1065.00 399.00 L 1063.00 417.00 L 1065.00 421.00 L 1071.00 411.00 L 1072.00 413.00 L 1068.00 427.00 L 1069.00 429.00 L 1075.00 419.00 L 1077.00 425.00 L 1075.00 447.00 L 1077.00 453.00 L 1083.00 443.00 L 1083.00 445.00 L 1077.00 459.00 L 1077.00 461.00 L 1083.00 451.00 L 1084.00 453.00 L 1080.00 467.00 L 1086.00 490.00 L 1102.00 522.00 L 1108.00 551.00 L 1104.00 577.00 L 1105.00 597.00 L 1111.00 611.00 L 1141.00 648.00 L 1195.00 708.00 L 1221.00 742.00 L 1219.00 750.00 L 1203.00 764.00 L 1173.00 784.00 L 1172.00 787.00 L 1200.00 773.00 L 1212.00 768.00 L 1208.00 772.00 L 1193.00 781.00 L 1167.00 795.00 L 1163.00 798.00 L 1181.00 790.00 L 1181.00 793.00 L 1163.00 807.00 L 1156.00 822.00 L 1160.00 838.00 L 1158.00 851.00 L 1150.00 861.00 L 1149.00 870.00 L 1155.00 878.00 L 1152.00 890.00 L 1140.00 906.00 L 1138.00 925.00 L 1146.00 947.00 L 1147.00 969.00 L 1141.00 991.00 L 1122.00 1010.00 L 1090.00 1026.00 L 1077.00 1036.00 L 1083.00 1040.00 L 1080.00 1040.00 L 1068.00 1036.00 L 1071.00 1041.00 L 1089.00 1055.00 L 1087.00 1085.00 L 1065.00 1131.00 L 1054.00 1160.00 L 1054.00 1172.00 L 1062.00 1189.00 L 1078.00 1211.00 L 1077.00 1214.00 L 1059.00 1198.00 L 1060.00 1203.00 L 1080.00 1229.00 L 1079.00 1232.00 L 1057.00 1212.00 L 1056.00 1214.00 L 1076.00 1238.00 L 1075.00 1240.00 L 1053.00 1220.00 L 1067.00 1242.00 L 1117.00 1306.00 L 1117.00 1308.00 L 1067.00 1248.00 L 1064.00 1249.00 L 1108.00 1311.00 L 1110.00 1318.00 L 1070.00 1270.00 L 1065.00 1268.00 L 1095.00 1312.00 L 1095.00 1318.00 L 1065.00 1286.00 L 1046.00 1269.00 L 1038.00 1267.00 L 1044.00 1291.00 L 1064.00 1341.00 L 1063.00 1348.00 L 1041.00 1312.00 L 1070.00 1367.00 L 1150.00 1513.00 L 1163.00 1539.00 L 1109.00 1445.00 L 1109.00 1447.00 L 1163.00 1545.00 L 1190.00 1608.00 L 1190.00 1636.00 L 1181.00 1664.00 L 1163.00 1692.00 L 1144.00 1708.00 L 1124.00 1712.00 L 1099.00 1708.00 L 1069.00 1696.00 L 1008.00 1643.00 L 916.00 1549.00 L 836.00 1481.00 L 768.00 1439.00 L 699.00 1406.00 L 629.00 1382.00 L 553.00 1369.00 L 471.00 1367.00 L 448.00 1309.00 L 484.00 1195.00 L 498.00 1128.00 L 490.00 1108.00 L 490.00 1063.00 L 498.00 993.00 L 503.00 955.00 L 505.00 949.00 L 512.00 942.00 Z" fill="black" stroke="black" stroke-width="1"/>
</svg>