<?xml version="1.0" encoding="UTF-8"?>
<svg xmlns="http://www.w3.org/2000/svg" viewBox="326.00 312.00 802.00 1383.00">
  <path d="M 478.00 977.00 L 518.00 975.00 L 516.00 973.00 L 472.00 971.00 L 450.00 968.00 L 450.00 964.00 L 469.00 963.00 L 507.00 965.00 L 508.00 963.00 L 472.00 957.00 L 476.00 956.00 L 520.00 960.00 L 523.00 959.00 L 485.00 953.00 L 485.00 952.00 L 523.00 956.00 L 527.00 956.00 L 497.00 952.00 L 495.00 951.00 L 521.00 953.00 L 523.00 951.00 L 501.00 945.00 L 503.00 944.00 L 529.00 948.00 L 529.00 946.00 L 503.00 938.00 L 489.00 905.00 L 487.00 847.00 L 478.00 809.00 L 462.00 791.00 L 459.00 785.00 L 469.00 791.00 L 440.00 767.00 L 372.00 713.00 L 362.00 703.00 L 410.00 737.00 L 409.00 735.00 L 359.00 697.00 L 342.00 683.00 L 358.00 693.00 L 356.00 690.00 L 336.00 674.00 L 351.00 685.00 L 401.00 723.00 L 401.00 721.00 L 351.00 679.00 L 338.00 667.00 L 362.00 685.00 L 362.00 683.00 L 338.00 661.00 L 350.00 669.00 L 398.00 707.00 L 398.00 705.00 L 350.00 663.00 L 347.00 659.00 L 389.00 693.00 L 389.00 691.00 L 347.00 653.00 L 347.00 651.00 L 389.00 685.00 L 389.00 682.00 L 347.00 642.00 L 345.00 638.00 L 383.00 670.00 L 384.00 667.00 L 348.00 629.00 L 363.00 567.00 L 429.00 481.00 L 487.00 418.00 L 537.00 378.00 L 573.00 359.00 L 595.00 361.00 L 617.00 354.00 L 639.00 338.00 L 660.00 328.00 L 680.00 324.00 L 710.00 322.00 L 750.00 322.00 L 793.00 328.00 L 839.00 340.00 L 883.00 362.00 L 925.00 394.00 L 946.00 413.00 L 946.00 419.00 L 948.00 420.00 L 952.00 416.00 L 975.00 440.00 L 1017.00 492.00 L 1035.00 525.00 L 1029.00 539.00 L 1037.00 567.00 L 1059.00 609.00 L 1064.00 641.00 L 1052.00 663.00 L 1047.00 679.00 L 1049.00 689.00 L 1067.00 726.00 L 1101.00 790.00 L 1118.00 827.00 L 1118.00 837.00 L 1105.00 848.00 L 1079.00 860.00 L 1078.00 862.00 L 1102.00 854.00 L 1101.00 855.00 L 1075.00 865.00 L 1074.00 866.00 L 1098.00 858.00 L 1097.00 860.00 L 1071.00 872.00 L 1054.00 891.00 L 1046.00 917.00 L 1047.00 936.00 L 1057.00 948.00 L 1061.00 965.00 L 1059.00 987.00 L 1062.00 1005.00 L 1070.00 1019.00 L 1074.00 1033.00 L 1074.00 1047.00 L 1063.00 1062.00 L 1041.00 1078.00 L 1007.00 1089.00 L 961.00 1095.00 L 929.00 1127.00 L 911.00 1185.00 L 905.00 1220.00 L 911.00 1232.00 L 910.00 1233.00 L 902.00 1223.00 L 902.00 1225.00 L 910.00 1239.00 L 909.00 1240.00 L 899.00 1228.00 L 897.00 1230.00 L 903.00 1246.00 L 903.00 1259.00 L 897.00 1269.00 L 925.00 1337.00 L 987.00 1463.00 L 986.00 1464.00 L 922.00 1340.00 L 923.00 1342.00 L 989.00 1470.00 L 1015.00 1521.00 L 1001.00 1495.00 L 1002.00 1498.00 L 1018.00 1530.00 L 1014.00 1524.00 L 990.00 1480.00 L 991.00 1484.00 L 1017.00 1536.00 L 1014.00 1531.00 L 982.00 1469.00 L 983.00 1473.00 L 1017.00 1543.00 L 1016.00 1542.00 L 980.00 1470.00 L 980.00 1471.00 L 1016.00 1545.00 L 1014.00 1543.00 L 974.00 1465.00 L 974.00 1468.00 L 1014.00 1552.00 L 996.00 1516.00 L 920.00 1360.00 L 920.00 1363.00 L 996.00 1525.00 L 1001.00 1538.00 L 935.00 1402.00 L 935.00 1407.00 L 1001.00 1553.00 L 995.00 1542.00 L 917.00 1374.00 L 916.00 1378.00 L 992.00 1554.00 L 991.00 1556.00 L 913.00 1384.00 L 912.00 1386.00 L 988.00 1562.00 L 1025.00 1652.00 L 1023.00 1656.00 L 985.00 1571.00 L 911.00 1397.00 L 910.00 1398.00 L 982.00 1574.00 L 1013.00 1667.00 L 1003.00 1677.00 L 987.00 1683.00 L 965.00 1685.00 L 945.00 1681.00 L 927.00 1671.00 L 879.00 1627.00 L 801.00 1549.00 L 730.00 1491.00 L 666.00 1453.00 L 599.00 1425.00 L 529.00 1407.00 L 468.00 1397.00 L 416.00 1395.00 L 397.00 1368.00 L 411.00 1316.00 L 432.00 1259.00 L 460.00 1197.00 L 475.00 1153.00 L 477.00 1127.00 L 492.00 1086.00 L 520.00 1030.00 L 534.00 1000.00 L 534.00 996.00 L 522.00 993.00 L 498.00 991.00 L 498.00 989.00 L 522.00 987.00 L 516.00 985.00 L 480.00 983.00 L 461.00 981.00 L 459.00 979.00 L 478.00 977.00 Z" fill="black" stroke="black" stroke-width="1"/>
</svg>