<?xml version="1.0" encoding="UTF-8"?>
<svg xmlns="http://www.w3.org/2000/svg" viewBox="270.00 247.00 853.00 1525.00">
  <path d="M 405.00 1023.00 L 427.00 1001.00 L 430.00 986.00 L 414.00 978.00 L 414.00 975.00 L 430.00 977.00 L 428.00 975.00 L 408.00 969.00 L 407.00 967.00 L 425.00 969.00 L 424.00 964.00 L 404.00 952.00 L 392.00 938.00 L 388.00 922.00 L 387.00 899.00 L 389.00 869.00 L 376.00 827.00 L 348.00 773.00 L 328.00 726.00 L 316.00 686.00 L 311.00 640.00 L 313.00 588.00 L 322.00 538.00 L 338.00 490.00 L 354.00 454.00 L 370.00 430.00 L 401.00 396.00 L 447.00 352.00 L 495.00 317.00 L 545.00 291.00 L 581.00 275.00 L 603.00 269.00 L 651.00 263.00 L 725.00 257.00 L 786.00 262.00 L 834.00 278.00 L 859.00 293.00 L 861.00 307.00 L 865.00 310.00 L 871.00 302.00 L 874.00 304.00 L 874.00 316.00 L 876.00 317.00 L 880.00 307.00 L 881.00 309.00 L 879.00 323.00 L 881.00 325.00 L 887.00 315.00 L 890.00 317.00 L 890.00 331.00 L 892.00 334.00 L 896.00 326.00 L 897.00 327.00 L 895.00 337.00 L 897.00 339.00 L 903.00 333.00 L 906.00 336.00 L 906.00 348.00 L 918.00 369.00 L 942.00 399.00 L 967.00 444.00 L 993.00 504.00 L 1002.00 548.00 L 994.00 576.00 L 1009.00 613.00 L 1047.00 659.00 L 1074.00 697.00 L 1090.00 727.00 L 1086.00 752.00 L 1062.00 772.00 L 1061.00 774.00 L 1083.00 758.00 L 1082.00 761.00 L 1058.00 783.00 L 1049.00 805.00 L 1055.00 827.00 L 1055.00 845.00 L 1049.00 859.00 L 1049.00 872.00 L 1055.00 884.00 L 1053.00 902.00 L 1043.00 926.00 L 1039.00 953.00 L 1041.00 983.00 L 1034.00 1008.00 L 1018.00 1028.00 L 991.00 1046.00 L 953.00 1062.00 L 942.00 1075.00 L 958.00 1085.00 L 967.00 1095.00 L 969.00 1105.00 L 963.00 1116.00 L 949.00 1128.00 L 936.00 1146.00 L 924.00 1170.00 L 925.00 1190.00 L 939.00 1206.00 L 938.00 1208.00 L 922.00 1196.00 L 923.00 1198.00 L 941.00 1214.00 L 941.00 1216.00 L 923.00 1204.00 L 924.00 1207.00 L 944.00 1225.00 L 945.00 1228.00 L 927.00 1216.00 L 928.00 1219.00 L 948.00 1237.00 L 947.00 1237.00 L 925.00 1219.00 L 927.00 1223.00 L 953.00 1249.00 L 963.00 1268.00 L 957.00 1280.00 L 961.00 1297.00 L 975.00 1319.00 L 972.00 1319.00 L 952.00 1297.00 L 954.00 1300.00 L 978.00 1328.00 L 979.00 1330.00 L 957.00 1306.00 L 958.00 1308.00 L 982.00 1336.00 L 983.00 1338.00 L 961.00 1314.00 L 961.00 1316.00 L 983.00 1344.00 L 994.00 1360.00 L 994.00 1364.00 L 984.00 1357.00 L 964.00 1339.00 L 963.00 1342.00 L 981.00 1366.00 L 979.00 1366.00 L 957.00 1342.00 L 956.00 1344.00 L 976.00 1372.00 L 972.00 1368.00 L 944.00 1332.00 L 942.00 1331.00 L 966.00 1365.00 L 972.00 1374.00 L 960.00 1358.00 L 956.00 1354.00 L 960.00 1362.00 L 951.00 1351.00 L 929.00 1321.00 L 931.00 1324.00 L 957.00 1360.00 L 958.00 1362.00 L 934.00 1330.00 L 962.00 1377.00 L 1042.00 1503.00 L 1040.00 1505.00 L 956.00 1383.00 L 961.00 1394.00 L 1055.00 1538.00 L 1056.00 1541.00 L 964.00 1403.00 L 964.00 1405.00 L 1056.00 1547.00 L 1070.00 1570.00 L 1006.00 1474.00 L 1007.00 1477.00 L 1073.00 1579.00 L 1061.00 1561.00 L 971.00 1423.00 L 973.00 1428.00 L 1067.00 1576.00 L 1076.00 1591.00 L 1000.00 1473.00 L 1000.00 1476.00 L 1076.00 1600.00 L 1113.00 1674.00 L 1111.00 1698.00 L 1103.00 1720.00 L 1089.00 1740.00 L 1076.00 1753.00 L 1064.00 1759.00 L 1052.00 1762.00 L 1040.00 1762.00 L 996.00 1730.00 L 920.00 1666.00 L 859.00 1624.00 L 813.00 1604.00 L 765.00 1592.00 L 715.00 1588.00 L 647.00 1592.00 L 561.00 1604.00 L 500.00 1609.00 L 464.00 1607.00 L 429.00 1601.00 L 395.00 1591.00 L 366.00 1580.00 L 342.00 1568.00 L 323.00 1555.00 L 309.00 1541.00 L 296.00 1521.00 L 284.00 1495.00 L 280.00 1460.00 L 284.00 1416.00 L 294.00 1373.00 L 310.00 1331.00 L 326.00 1299.00 L 342.00 1277.00 L 354.00 1256.00 L 362.00 1236.00 L 372.00 1181.00 L 384.00 1091.00 L 391.00 1043.00 L 393.00 1037.00 L 405.00 1023.00 Z" fill="black" stroke="black" stroke-width="1"/>
</svg>