<?xml version="1.0" encoding="UTF-8"?>
<svg xmlns="http://www.w3.org/2000/svg" viewBox="318.00 334.00 825.00 1372.00">
  <path d="M 472.00 994.00 L 476.00 954.00 L 481.00 930.00 L 487.00 922.00 L 483.00 915.00 L 469.00 909.00 L 469.00 907.00 L 483.00 909.00 L 480.00 905.00 L 460.00 895.00 L 460.00 893.00 L 480.00 899.00 L 479.00 897.00 L 457.00 887.00 L 427.00 862.00 L 389.00 822.00 L 364.00 792.00 L 352.00 772.00 L 343.00 752.00 L 337.00 732.00 L 332.00 686.00 L 328.00 614.00 L 329.00 561.00 L 335.00 527.00 L 347.00 489.00 L 365.00 447.00 L 382.00 417.00 L 398.00 399.00 L 420.00 382.00 L 448.00 366.00 L 483.00 354.00 L 525.00 346.00 L 591.00 344.00 L 681.00 348.00 L 740.00 355.00 L 768.00 365.00 L 795.00 379.00 L 821.00 397.00 L 847.00 411.00 L 873.00 421.00 L 905.00 447.00 L 943.00 489.00 L 963.00 517.00 L 965.00 531.00 L 973.00 547.00 L 987.00 565.00 L 993.00 580.00 L 991.00 592.00 L 992.00 595.00 L 996.00 589.00 L 995.00 601.00 L 989.00 631.00 L 1011.00 668.00 L 1061.00 712.00 L 1089.00 739.00 L 1095.00 749.00 L 1090.00 763.00 L 1074.00 781.00 L 1073.00 785.00 L 1087.00 775.00 L 1085.00 777.00 L 1067.00 791.00 L 1065.00 793.00 L 1079.00 783.00 L 1078.00 787.00 L 1062.00 805.00 L 1056.00 820.00 L 1060.00 832.00 L 1060.00 844.00 L 1056.00 856.00 L 1056.00 861.00 L 1060.00 859.00 L 1059.00 862.00 L 1053.00 870.00 L 1050.00 883.00 L 1050.00 901.00 L 1056.00 926.00 L 1068.00 958.00 L 1068.00 981.00 L 1056.00 995.00 L 1029.00 1007.00 L 987.00 1017.00 L 979.00 1024.00 L 1005.00 1028.00 L 1016.00 1030.00 L 1012.00 1030.00 L 1015.00 1035.00 L 1025.00 1045.00 L 1030.00 1055.00 L 1030.00 1065.00 L 1026.00 1079.00 L 1018.00 1097.00 L 1020.00 1110.00 L 1032.00 1118.00 L 1031.00 1120.00 L 1017.00 1116.00 L 1019.00 1119.00 L 1037.00 1129.00 L 1035.00 1131.00 L 1013.00 1125.00 L 1013.00 1127.00 L 1035.00 1137.00 L 1036.00 1139.00 L 1016.00 1133.00 L 1014.00 1135.00 L 1030.00 1145.00 L 1028.00 1146.00 L 1008.00 1138.00 L 1007.00 1140.00 L 1025.00 1152.00 L 1033.00 1163.00 L 1031.00 1173.00 L 1023.00 1175.00 L 1009.00 1169.00 L 1008.00 1170.00 L 1020.00 1178.00 L 1021.00 1179.00 L 1011.00 1173.00 L 1009.00 1177.00 L 1015.00 1191.00 L 1026.00 1205.00 L 1042.00 1219.00 L 1033.00 1214.00 L 999.00 1190.00 L 1002.00 1194.00 L 1042.00 1226.00 L 1039.00 1225.00 L 993.00 1191.00 L 993.00 1194.00 L 1039.00 1234.00 L 1045.00 1241.00 L 1011.00 1215.00 L 1009.00 1214.00 L 1039.00 1238.00 L 1040.00 1240.00 L 1012.00 1220.00 L 1006.00 1217.00 L 1022.00 1231.00 L 1014.00 1225.00 L 982.00 1199.00 L 980.00 1198.00 L 1008.00 1222.00 L 1008.00 1225.00 L 980.00 1207.00 L 968.00 1208.00 L 972.00 1228.00 L 973.00 1242.00 L 971.00 1250.00 L 981.00 1268.00 L 1003.00 1296.00 L 1004.00 1299.00 L 984.00 1277.00 L 985.00 1279.00 L 1007.00 1305.00 L 1005.00 1303.00 L 979.00 1273.00 L 980.00 1275.00 L 1008.00 1309.00 L 1033.00 1344.00 L 1055.00 1380.00 L 1064.00 1396.00 L 1060.00 1392.00 L 1061.00 1394.00 L 1067.00 1402.00 L 1060.00 1394.00 L 1040.00 1370.00 L 1041.00 1372.00 L 1063.00 1400.00 L 1065.00 1403.00 L 1047.00 1381.00 L 1048.00 1383.00 L 1068.00 1409.00 L 1091.00 1451.00 L 1117.00 1509.00 L 1129.00 1537.00 L 1127.00 1535.00 L 1128.00 1543.00 L 1132.00 1561.00 L 1133.00 1589.00 L 1131.00 1627.00 L 1122.00 1656.00 L 1106.00 1676.00 L 1097.00 1685.00 L 1095.00 1683.00 L 1089.00 1686.00 L 1079.00 1694.00 L 1061.00 1696.00 L 1035.00 1692.00 L 1004.00 1677.00 L 968.00 1651.00 L 941.00 1627.00 L 923.00 1605.00 L 891.00 1576.00 L 845.00 1540.00 L 802.00 1511.00 L 762.00 1489.00 L 720.00 1469.00 L 676.00 1451.00 L 652.00 1443.00 L 648.00 1445.00 L 644.00 1444.00 L 640.00 1440.00 L 603.00 1432.00 L 533.00 1420.00 L 471.00 1416.00 L 417.00 1420.00 L 389.00 1418.00 L 387.00 1410.00 L 391.00 1394.00 L 401.00 1370.00 L 407.00 1349.00 L 409.00 1331.00 L 417.00 1306.00 L 431.00 1274.00 L 439.00 1245.00 L 441.00 1219.00 L 449.00 1190.00 L 463.00 1158.00 L 471.00 1137.00 L 473.00 1127.00 L 470.00 1116.00 L 462.00 1104.00 L 461.00 1079.00 L 467.00 1041.00 L 470.00 1020.00 L 470.00 1016.00 L 472.00 994.00 Z" fill="black" stroke="black" stroke-width="1"/>
</svg>