<?xml version="1.0" encoding="UTF-8"?>
<svg xmlns="http://www.w3.org/2000/svg" viewBox="372.00 350.00 719.00 1344.00">
  <path d="M 527.00 984.00 L 529.00 964.00 L 526.00 953.00 L 518.00 951.00 L 516.00 950.00 L 520.00 950.00 L 500.00 928.00 L 456.00 884.00 L 424.00 833.00 L 404.00 775.00 L 390.00 714.00 L 382.00 650.00 L 382.00 602.00 L 390.00 570.00 L 399.00 542.00 L 409.00 518.00 L 434.00 481.00 L 474.00 431.00 L 512.00 396.00 L 548.00 376.00 L 596.00 364.00 L 656.00 360.00 L 690.00 362.00 L 698.00 370.00 L 711.00 374.00 L 729.00 374.00 L 761.00 387.00 L 807.00 413.00 L 841.00 440.00 L 863.00 468.00 L 881.00 485.00 L 895.00 491.00 L 906.00 506.00 L 914.00 530.00 L 920.00 537.00 L 924.00 527.00 L 926.00 532.00 L 926.00 552.00 L 929.00 554.00 L 935.00 538.00 L 936.00 539.00 L 932.00 557.00 L 934.00 559.00 L 942.00 545.00 L 943.00 547.00 L 937.00 565.00 L 938.00 566.00 L 946.00 550.00 L 947.00 552.00 L 941.00 572.00 L 942.00 573.00 L 950.00 555.00 L 950.00 557.00 L 942.00 579.00 L 943.00 581.00 L 953.00 563.00 L 954.00 564.00 L 946.00 584.00 L 946.00 586.00 L 954.00 570.00 L 956.00 574.00 L 952.00 598.00 L 954.00 605.00 L 962.00 595.00 L 965.00 598.00 L 963.00 614.00 L 966.00 619.00 L 974.00 613.00 L 977.00 616.00 L 975.00 628.00 L 977.00 629.00 L 983.00 619.00 L 983.00 620.00 L 977.00 632.00 L 979.00 633.00 L 989.00 623.00 L 992.00 625.00 L 988.00 639.00 L 990.00 641.00 L 998.00 631.00 L 996.00 640.00 L 984.00 668.00 L 978.00 690.00 L 978.00 706.00 L 999.00 735.00 L 1041.00 777.00 L 1062.00 802.00 L 1062.00 810.00 L 1054.00 824.00 L 1038.00 844.00 L 1033.00 862.00 L 1039.00 878.00 L 1039.00 892.00 L 1033.00 904.00 L 1032.00 914.00 L 1036.00 922.00 L 1032.00 931.00 L 1020.00 941.00 L 1018.00 964.00 L 1026.00 1000.00 L 1025.00 1025.00 L 1015.00 1039.00 L 1001.00 1050.00 L 983.00 1058.00 L 976.00 1064.00 L 980.00 1068.00 L 979.00 1069.00 L 973.00 1067.00 L 975.00 1068.00 L 985.00 1072.00 L 991.00 1079.00 L 993.00 1089.00 L 987.00 1106.00 L 973.00 1130.00 L 973.00 1150.00 L 987.00 1166.00 L 986.00 1168.00 L 970.00 1156.00 L 969.00 1159.00 L 983.00 1177.00 L 984.00 1181.00 L 972.00 1171.00 L 972.00 1172.00 L 984.00 1184.00 L 990.00 1195.00 L 990.00 1205.00 L 986.00 1212.00 L 978.00 1216.00 L 976.00 1224.00 L 980.00 1236.00 L 990.00 1253.00 L 1006.00 1275.00 L 1007.00 1278.00 L 993.00 1262.00 L 992.00 1264.00 L 1004.00 1284.00 L 1001.00 1289.00 L 983.00 1279.00 L 984.00 1290.00 L 1004.00 1322.00 L 1004.00 1325.00 L 984.00 1299.00 L 985.00 1302.00 L 1007.00 1334.00 L 1018.00 1362.00 L 1018.00 1386.00 L 1025.00 1412.00 L 1039.00 1440.00 L 1039.00 1443.00 L 1025.00 1421.00 L 1033.00 1443.00 L 1063.00 1509.00 L 1079.00 1560.00 L 1081.00 1596.00 L 1071.00 1630.00 L 1049.00 1662.00 L 1023.00 1680.00 L 993.00 1684.00 L 967.00 1681.00 L 945.00 1671.00 L 892.00 1634.00 L 808.00 1570.00 L 723.00 1517.00 L 637.00 1475.00 L 563.00 1445.00 L 501.00 1427.00 L 451.00 1416.00 L 413.00 1412.00 L 400.00 1391.00 L 412.00 1353.00 L 428.00 1319.00 L 448.00 1289.00 L 461.00 1261.00 L 467.00 1235.00 L 476.00 1216.00 L 488.00 1204.00 L 490.00 1201.00 L 482.00 1207.00 L 486.00 1196.00 L 502.00 1168.00 L 514.00 1116.00 L 522.00 1040.00 L 526.00 1000.00 L 526.00 996.00 L 527.00 984.00 Z" fill="black" stroke="black" stroke-width="1"/>
</svg>