<?xml version="1.0" encoding="UTF-8"?>
<svg xmlns="http://www.w3.org/2000/svg" viewBox="322.00 228.00 975.00 1577.00">
  <path d="M 533.00 1018.00 L 559.00 970.00 L 518.00 899.00 L 410.00 805.00 L 348.00 747.00 L 332.00 725.00 L 332.00 696.00 L 348.00 660.00 L 388.00 594.00 L 452.00 498.00 L 512.00 417.00 L 568.00 351.00 L 606.00 302.00 L 626.00 270.00 L 643.00 250.00 L 657.00 242.00 L 671.00 238.00 L 685.00 238.00 L 702.00 243.00 L 722.00 253.00 L 803.00 310.00 L 945.00 414.00 L 1049.00 454.00 L 1115.00 430.00 L 1134.00 449.00 L 1106.00 511.00 L 1109.00 511.00 L 1143.00 449.00 L 1148.00 442.00 L 1124.00 490.00 L 1127.00 489.00 L 1157.00 439.00 L 1155.00 447.00 L 1121.00 513.00 L 1124.00 513.00 L 1164.00 447.00 L 1166.00 449.00 L 1130.00 519.00 L 1133.00 519.00 L 1175.00 449.00 L 1184.00 435.00 L 1160.00 477.00 L 1163.00 478.00 L 1193.00 438.00 L 1187.00 454.00 L 1145.00 526.00 L 1149.00 526.00 L 1199.00 454.00 L 1200.00 456.00 L 1152.00 532.00 L 1154.00 533.00 L 1206.00 459.00 L 1225.00 436.00 L 1211.00 464.00 L 1206.00 477.00 L 1210.00 475.00 L 1194.00 501.00 L 1158.00 555.00 L 1166.00 545.00 L 1218.00 471.00 L 1239.00 443.00 L 1229.00 461.00 L 1230.00 463.00 L 1242.00 449.00 L 1245.00 447.00 L 1239.00 457.00 L 1239.00 459.00 L 1245.00 453.00 L 1223.00 485.00 L 1173.00 555.00 L 1164.00 620.00 L 1196.00 680.00 L 1210.00 725.00 L 1206.00 755.00 L 1221.00 789.00 L 1255.00 827.00 L 1277.00 860.00 L 1287.00 888.00 L 1280.00 910.00 L 1256.00 926.00 L 1246.00 945.00 L 1250.00 967.00 L 1247.00 983.00 L 1237.00 993.00 L 1233.00 1004.00 L 1235.00 1016.00 L 1231.00 1028.00 L 1221.00 1040.00 L 1219.00 1062.00 L 1225.00 1094.00 L 1219.00 1117.00 L 1201.00 1131.00 L 1174.00 1144.00 L 1138.00 1156.00 L 1123.00 1167.00 L 1129.00 1177.00 L 1119.00 1198.00 L 1093.00 1230.00 L 1075.00 1262.00 L 1065.00 1294.00 L 1073.00 1329.00 L 1099.00 1367.00 L 1117.00 1403.00 L 1127.00 1437.00 L 1143.00 1469.00 L 1165.00 1499.00 L 1166.00 1501.00 L 1146.00 1475.00 L 1147.00 1478.00 L 1169.00 1510.00 L 1185.00 1540.00 L 1195.00 1568.00 L 1203.00 1612.00 L 1209.00 1672.00 L 1202.00 1722.00 L 1182.00 1762.00 L 1165.00 1786.00 L 1151.00 1794.00 L 1128.00 1795.00 L 1096.00 1789.00 L 1036.00 1752.00 L 948.00 1684.00 L 870.00 1632.00 L 802.00 1596.00 L 734.00 1569.00 L 666.00 1551.00 L 606.00 1542.00 L 554.00 1542.00 L 530.00 1531.00 L 534.00 1509.00 L 533.00 1502.00 L 527.00 1510.00 L 528.00 1507.00 L 536.00 1493.00 L 534.00 1495.00 L 522.00 1513.00 L 527.00 1501.00 L 549.00 1459.00 L 548.00 1456.00 L 524.00 1492.00 L 525.00 1489.00 L 551.00 1447.00 L 551.00 1445.00 L 525.00 1483.00 L 526.00 1481.00 L 554.00 1439.00 L 554.00 1437.00 L 526.00 1475.00 L 528.00 1469.00 L 560.00 1419.00 L 560.00 1416.00 L 528.00 1460.00 L 531.00 1453.00 L 569.00 1395.00 L 570.00 1390.00 L 534.00 1438.00 L 539.00 1427.00 L 585.00 1357.00 L 588.00 1348.00 L 548.00 1400.00 L 549.00 1398.00 L 591.00 1342.00 L 592.00 1339.00 L 552.00 1389.00 L 553.00 1386.00 L 595.00 1330.00 L 596.00 1326.00 L 556.00 1374.00 L 556.00 1372.00 L 596.00 1320.00 L 596.00 1317.00 L 556.00 1363.00 L 556.00 1360.00 L 596.00 1308.00 L 596.00 1305.00 L 556.00 1351.00 L 556.00 1349.00 L 596.00 1299.00 L 597.00 1293.00 L 559.00 1331.00 L 560.00 1326.00 L 600.00 1278.00 L 595.00 1279.00 L 545.00 1329.00 L 546.00 1324.00 L 598.00 1264.00 L 595.00 1262.00 L 537.00 1318.00 L 538.00 1315.00 L 598.00 1253.00 L 600.00 1247.00 L 544.00 1297.00 L 545.00 1295.00 L 603.00 1241.00 L 607.00 1236.00 L 557.00 1280.00 L 558.00 1278.00 L 610.00 1230.00 L 606.00 1232.00 L 546.00 1284.00 L 547.00 1282.00 L 609.00 1226.00 L 606.00 1226.00 L 538.00 1282.00 L 539.00 1280.00 L 609.00 1220.00 L 608.00 1217.00 L 536.00 1271.00 L 536.00 1269.00 L 608.00 1211.00 L 624.00 1196.00 L 584.00 1224.00 L 568.00 1215.00 L 576.00 1169.00 L 566.00 1148.00 L 538.00 1152.00 L 539.00 1148.00 L 569.00 1136.00 L 566.00 1134.00 L 530.00 1142.00 L 530.00 1140.00 L 566.00 1128.00 L 565.00 1125.00 L 527.00 1131.00 L 529.00 1127.00 L 571.00 1113.00 L 571.00 1110.00 L 529.00 1118.00 L 530.00 1115.00 L 574.00 1101.00 L 574.00 1098.00 L 530.00 1106.00 L 531.00 1103.00 L 577.00 1089.00 L 577.00 1085.00 L 531.00 1091.00 L 511.00 1082.00 L 517.00 1058.00 L 520.00 1045.00 L 520.00 1043.00 L 533.00 1018.00 Z" fill="black" stroke="black" stroke-width="1"/>
</svg>