<?xml version="1.0" encoding="UTF-8"?>
<svg xmlns="http://www.w3.org/2000/svg" viewBox="224.00 310.00 932.00 1368.00">
  <path d="M 419.00 1020.00 L 421.00 992.00 L 417.00 959.00 L 407.00 921.00 L 404.00 893.00 L 408.00 875.00 L 399.00 854.00 L 377.00 830.00 L 366.00 813.00 L 366.00 803.00 L 385.00 775.00 L 423.00 729.00 L 443.00 684.00 L 445.00 640.00 L 453.00 603.00 L 467.00 573.00 L 469.00 545.00 L 459.00 519.00 L 460.00 516.00 L 472.00 536.00 L 473.00 533.00 L 463.00 507.00 L 463.00 504.00 L 473.00 524.00 L 474.00 523.00 L 466.00 501.00 L 466.00 498.00 L 474.00 514.00 L 475.00 512.00 L 469.00 492.00 L 473.00 475.00 L 487.00 461.00 L 513.00 436.00 L 551.00 400.00 L 590.00 372.00 L 630.00 352.00 L 680.00 336.00 L 740.00 324.00 L 803.00 320.00 L 869.00 324.00 L 914.00 331.00 L 938.00 341.00 L 973.00 364.00 L 1019.00 400.00 L 1058.00 442.00 L 1090.00 490.00 L 1116.00 540.00 L 1136.00 592.00 L 1146.00 650.00 L 1146.00 714.00 L 1132.00 774.00 L 1104.00 830.00 L 1077.00 871.00 L 1051.00 897.00 L 1035.00 919.00 L 1029.00 937.00 L 1006.00 959.00 L 966.00 985.00 L 944.00 1005.00 L 940.00 1019.00 L 948.00 1035.00 L 968.00 1053.00 L 975.00 1072.00 L 969.00 1092.00 L 957.00 1108.00 L 939.00 1120.00 L 917.00 1122.00 L 891.00 1114.00 L 889.00 1114.00 L 911.00 1122.00 L 911.00 1123.00 L 889.00 1117.00 L 877.00 1116.00 L 875.00 1120.00 L 874.00 1138.00 L 874.00 1170.00 L 905.00 1212.00 L 967.00 1264.00 L 967.00 1266.00 L 905.00 1218.00 L 908.00 1222.00 L 976.00 1278.00 L 976.00 1281.00 L 908.00 1231.00 L 906.00 1234.00 L 970.00 1290.00 L 971.00 1293.00 L 909.00 1243.00 L 907.00 1244.00 L 965.00 1296.00 L 966.00 1298.00 L 910.00 1250.00 L 908.00 1251.00 L 960.00 1301.00 L 960.00 1303.00 L 908.00 1257.00 L 905.00 1260.00 L 951.00 1312.00 L 965.00 1338.00 L 947.00 1338.00 L 939.00 1350.00 L 941.00 1374.00 L 936.00 1394.00 L 924.00 1410.00 L 904.00 1423.00 L 876.00 1433.00 L 823.00 1442.00 L 745.00 1450.00 L 682.00 1463.00 L 634.00 1481.00 L 589.00 1504.00 L 547.00 1532.00 L 489.00 1580.00 L 415.00 1648.00 L 420.00 1593.00 L 504.00 1415.00 L 502.00 1416.00 L 414.00 1596.00 L 416.00 1591.00 L 508.00 1401.00 L 506.00 1403.00 L 410.00 1597.00 L 411.00 1594.00 L 509.00 1394.00 L 507.00 1395.00 L 405.00 1597.00 L 406.00 1593.00 L 510.00 1383.00 L 508.00 1384.00 L 400.00 1596.00 L 399.00 1597.00 L 505.00 1387.00 L 500.00 1391.00 L 384.00 1609.00 L 385.00 1605.00 L 503.00 1379.00 L 498.00 1379.00 L 370.00 1605.00 L 370.00 1602.00 L 498.00 1370.00 L 495.00 1371.00 L 361.00 1605.00 L 342.00 1637.00 L 438.00 1467.00 L 436.00 1466.00 L 336.00 1634.00 L 355.00 1600.00 L 493.00 1364.00 L 491.00 1364.00 L 349.00 1600.00 L 325.00 1637.00 L 419.00 1475.00 L 416.00 1474.00 L 316.00 1634.00 L 339.00 1595.00 L 485.00 1357.00 L 482.00 1355.00 L 330.00 1589.00 L 330.00 1587.00 L 482.00 1349.00 L 480.00 1347.00 L 324.00 1581.00 L 291.00 1628.00 L 381.00 1488.00 L 380.00 1485.00 L 288.00 1619.00 L 285.00 1620.00 L 371.00 1488.00 L 369.00 1484.00 L 279.00 1608.00 L 234.00 1668.00 L 234.00 1664.00 L 314.00 1551.00 L 474.00 1329.00 L 474.00 1327.00 L 314.00 1545.00 L 273.00 1599.00 L 351.00 1489.00 L 352.00 1484.00 L 276.00 1584.00 L 274.00 1584.00 L 346.00 1484.00 L 346.00 1481.00 L 274.00 1575.00 L 272.00 1575.00 L 340.00 1481.00 L 345.00 1471.00 L 287.00 1545.00 L 285.00 1547.00 L 339.00 1477.00 L 342.00 1472.00 L 294.00 1532.00 L 340.00 1473.00 L 480.00 1295.00 L 493.00 1276.00 L 379.00 1416.00 L 379.00 1413.00 L 493.00 1267.00 L 544.00 1170.00 L 532.00 1122.00 L 505.00 1093.00 L 463.00 1083.00 L 436.00 1070.00 L 424.00 1054.00 L 418.00 1043.00 L 418.00 1037.00 L 419.00 1020.00 Z" fill="black" stroke="black" stroke-width="1"/>
</svg>