<?xml version="1.0" encoding="UTF-8"?>
<svg xmlns="http://www.w3.org/2000/svg" viewBox="318.00 175.00 1081.00 1598.00">
  <path d="M 473.00 936.00 L 479.00 920.00 L 489.00 907.00 L 503.00 897.00 L 516.00 892.00 L 528.00 892.00 L 531.00 890.00 L 525.00 886.00 L 527.00 884.00 L 537.00 884.00 L 546.00 875.00 L 554.00 857.00 L 557.00 840.00 L 555.00 824.00 L 545.00 811.00 L 527.00 801.00 L 527.00 800.00 L 545.00 808.00 L 538.00 803.00 L 506.00 785.00 L 504.00 783.00 L 532.00 797.00 L 531.00 795.00 L 501.00 777.00 L 481.00 761.00 L 471.00 747.00 L 453.00 731.00 L 427.00 713.00 L 426.00 710.00 L 450.00 722.00 L 446.00 718.00 L 414.00 698.00 L 413.00 696.00 L 443.00 712.00 L 441.00 709.00 L 407.00 687.00 L 405.00 685.00 L 435.00 703.00 L 434.00 701.00 L 402.00 679.00 L 383.00 651.00 L 377.00 617.00 L 376.00 579.00 L 380.00 537.00 L 388.00 509.00 L 400.00 495.00 L 415.00 485.00 L 433.00 479.00 L 438.00 465.00 L 430.00 443.00 L 436.00 428.00 L 456.00 420.00 L 463.00 394.00 L 457.00 350.00 L 462.00 312.00 L 478.00 280.00 L 495.00 258.00 L 513.00 246.00 L 532.00 240.00 L 552.00 240.00 L 576.00 228.00 L 604.00 204.00 L 626.00 190.00 L 642.00 186.00 L 653.00 185.00 L 659.00 187.00 L 668.00 205.00 L 680.00 239.00 L 683.00 240.00 L 677.00 208.00 L 678.00 206.00 L 686.00 234.00 L 692.00 248.00 L 696.00 248.00 L 696.00 237.00 L 692.00 215.00 L 694.00 214.00 L 702.00 234.00 L 705.00 238.00 L 703.00 226.00 L 705.00 225.00 L 711.00 235.00 L 721.00 237.00 L 735.00 231.00 L 772.00 231.00 L 832.00 237.00 L 875.00 244.00 L 901.00 252.00 L 941.00 272.00 L 995.00 304.00 L 1029.00 327.00 L 1043.00 341.00 L 1050.00 355.00 L 1050.00 369.00 L 1052.00 371.00 L 1056.00 361.00 L 1057.00 362.00 L 1055.00 374.00 L 1056.00 375.00 L 1060.00 365.00 L 1062.00 368.00 L 1062.00 384.00 L 1065.00 389.00 L 1071.00 383.00 L 1073.00 389.00 L 1071.00 407.00 L 1073.00 410.00 L 1079.00 398.00 L 1080.00 400.00 L 1076.00 416.00 L 1077.00 418.00 L 1083.00 406.00 L 1084.00 411.00 L 1080.00 433.00 L 1082.00 436.00 L 1090.00 420.00 L 1091.00 422.00 L 1085.00 442.00 L 1082.00 475.00 L 1082.00 521.00 L 1085.00 551.00 L 1091.00 565.00 L 1113.00 594.00 L 1151.00 638.00 L 1159.00 672.00 L 1137.00 696.00 L 1138.00 699.00 L 1162.00 681.00 L 1161.00 684.00 L 1135.00 708.00 L 1135.00 711.00 L 1161.00 693.00 L 1161.00 696.00 L 1135.00 720.00 L 1124.00 753.00 L 1128.00 795.00 L 1125.00 823.00 L 1115.00 837.00 L 1109.00 858.00 L 1107.00 886.00 L 1082.00 922.00 L 1034.00 966.00 L 1000.00 992.00 L 980.00 1000.00 L 969.00 1016.00 L 967.00 1040.00 L 1012.00 1092.00 L 1104.00 1172.00 L 1125.00 1192.00 L 1075.00 1152.00 L 1077.00 1155.00 L 1131.00 1201.00 L 1122.00 1194.00 L 1050.00 1134.00 L 1052.00 1136.00 L 1128.00 1200.00 L 1118.00 1192.00 L 1022.00 1112.00 L 1026.00 1117.00 L 1130.00 1207.00 L 1141.00 1217.00 L 1059.00 1147.00 L 1061.00 1150.00 L 1147.00 1226.00 L 1231.00 1313.00 L 1313.00 1411.00 L 1363.00 1492.00 L 1381.00 1556.00 L 1389.00 1605.00 L 1387.00 1639.00 L 1380.00 1667.00 L 1368.00 1689.00 L 1346.00 1715.00 L 1314.00 1745.00 L 1293.00 1761.00 L 1283.00 1763.00 L 1234.00 1726.00 L 1146.00 1650.00 L 1064.00 1587.00 L 988.00 1537.00 L 921.00 1497.00 L 863.00 1467.00 L 807.00 1442.00 L 753.00 1422.00 L 692.00 1404.00 L 624.00 1388.00 L 553.00 1375.00 L 479.00 1365.00 L 415.00 1361.00 L 361.00 1363.00 L 332.00 1355.00 L 328.00 1337.00 L 340.00 1277.00 L 368.00 1175.00 L 388.00 1115.00 L 400.00 1097.00 L 407.00 1079.00 L 409.00 1061.00 L 416.00 1046.00 L 428.00 1034.00 L 437.00 1015.00 L 443.00 989.00 L 452.00 970.00 L 464.00 958.00 L 470.00 950.00 L 470.00 946.00 L 473.00 936.00 Z" fill="black" stroke="black" stroke-width="1"/>
</svg>