<?xml version="1.0" encoding="UTF-8"?>
<svg xmlns="http://www.w3.org/2000/svg" viewBox="311.00 363.00 835.00 1339.00">
  <path d="M 533.00 986.00 L 603.00 986.00 L 601.00 984.00 L 527.00 980.00 L 485.00 968.00 L 475.00 948.00 L 460.00 933.00 L 440.00 923.00 L 440.00 920.00 L 460.00 924.00 L 453.00 921.00 L 419.00 911.00 L 418.00 909.00 L 450.00 915.00 L 447.00 913.00 L 409.00 903.00 L 408.00 901.00 L 444.00 907.00 L 441.00 904.00 L 399.00 892.00 L 368.00 871.00 L 348.00 841.00 L 333.00 806.00 L 323.00 766.00 L 321.00 711.00 L 327.00 641.00 L 336.00 586.00 L 348.00 546.00 L 365.00 510.00 L 387.00 478.00 L 409.00 459.00 L 431.00 453.00 L 449.00 457.00 L 463.00 471.00 L 480.00 454.00 L 500.00 406.00 L 518.00 390.00 L 534.00 406.00 L 572.00 403.00 L 632.00 381.00 L 672.00 373.00 L 692.00 379.00 L 705.00 396.00 L 711.00 424.00 L 713.00 425.00 L 711.00 399.00 L 713.00 398.00 L 719.00 422.00 L 722.00 426.00 L 722.00 410.00 L 724.00 409.00 L 728.00 423.00 L 742.00 433.00 L 766.00 439.00 L 789.00 438.00 L 811.00 430.00 L 828.00 429.00 L 840.00 435.00 L 858.00 437.00 L 882.00 435.00 L 912.00 443.00 L 948.00 461.00 L 973.00 478.00 L 987.00 494.00 L 1002.00 504.00 L 1018.00 508.00 L 1037.00 519.00 L 1059.00 537.00 L 1085.00 575.00 L 1115.00 633.00 L 1122.00 683.00 L 1106.00 725.00 L 1102.00 744.00 L 1110.00 740.00 L 1110.00 743.00 L 1102.00 753.00 L 1103.00 755.00 L 1113.00 749.00 L 1112.00 751.00 L 1100.00 761.00 L 1101.00 763.00 L 1115.00 757.00 L 1115.00 760.00 L 1101.00 772.00 L 1101.00 774.00 L 1115.00 766.00 L 1115.00 767.00 L 1101.00 777.00 L 1101.00 779.00 L 1115.00 773.00 L 1113.00 779.00 L 1095.00 797.00 L 1087.00 815.00 L 1089.00 833.00 L 1102.00 861.00 L 1126.00 899.00 L 1136.00 928.00 L 1132.00 948.00 L 1124.00 962.00 L 1112.00 970.00 L 1110.00 985.00 L 1118.00 1007.00 L 1116.00 1024.00 L 1104.00 1036.00 L 1100.00 1046.00 L 1104.00 1054.00 L 1098.00 1068.00 L 1082.00 1088.00 L 1075.00 1106.00 L 1077.00 1122.00 L 1074.00 1135.00 L 1066.00 1145.00 L 1044.00 1150.00 L 1008.00 1150.00 L 976.00 1145.00 L 948.00 1135.00 L 926.00 1144.00 L 910.00 1172.00 L 924.00 1231.00 L 968.00 1321.00 L 968.00 1328.00 L 924.00 1252.00 L 925.00 1254.00 L 971.00 1334.00 L 987.00 1362.00 L 973.00 1338.00 L 975.00 1343.00 L 993.00 1377.00 L 990.00 1373.00 L 966.00 1331.00 L 967.00 1333.00 L 993.00 1379.00 L 992.00 1378.00 L 964.00 1330.00 L 965.00 1334.00 L 995.00 1390.00 L 992.00 1386.00 L 956.00 1322.00 L 957.00 1325.00 L 995.00 1395.00 L 986.00 1379.00 L 930.00 1277.00 L 943.00 1303.00 L 1025.00 1457.00 L 1029.00 1466.00 L 955.00 1330.00 L 957.00 1335.00 L 1035.00 1481.00 L 1032.00 1476.00 L 948.00 1320.00 L 948.00 1322.00 L 1032.00 1482.00 L 1073.00 1578.00 L 1071.00 1610.00 L 1062.00 1641.00 L 1046.00 1671.00 L 1026.00 1688.00 L 1002.00 1692.00 L 983.00 1691.00 L 969.00 1685.00 L 931.00 1652.00 L 869.00 1592.00 L 806.00 1544.00 L 742.00 1508.00 L 683.00 1482.00 L 629.00 1466.00 L 570.00 1453.00 L 506.00 1443.00 L 493.00 1398.00 L 531.00 1318.00 L 546.00 1283.00 L 538.00 1293.00 L 537.00 1294.00 L 543.00 1286.00 L 544.00 1284.00 L 540.00 1288.00 L 550.00 1273.00 L 574.00 1239.00 L 578.00 1232.00 L 562.00 1252.00 L 560.00 1253.00 L 572.00 1235.00 L 573.00 1232.00 L 563.00 1244.00 L 574.00 1230.00 L 606.00 1190.00 L 607.00 1188.00 L 577.00 1224.00 L 581.00 1219.00 L 619.00 1173.00 L 627.00 1163.00 L 605.00 1189.00 L 606.00 1186.00 L 630.00 1154.00 L 632.00 1149.00 L 612.00 1171.00 L 613.00 1165.00 L 635.00 1131.00 L 645.00 1088.00 L 643.00 1036.00 L 618.00 1009.00 L 570.00 1007.00 L 570.00 1004.00 L 618.00 1000.00 L 612.00 999.00 L 552.00 1001.00 L 547.00 1000.00 L 597.00 996.00 L 593.00 993.00 L 535.00 991.00 L 504.00 989.00 L 500.00 987.00 L 533.00 986.00 Z" fill="black" stroke="black" stroke-width="1"/>
</svg>