<?xml version="1.0" encoding="UTF-8"?>
<svg xmlns="http://www.w3.org/2000/svg" viewBox="309.00 312.00 808.00 1342.00">
  <path d="M 500.00 958.00 L 504.00 950.00 L 489.00 941.00 L 455.00 931.00 L 455.00 928.00 L 489.00 932.00 L 482.00 929.00 L 434.00 919.00 L 434.00 917.00 L 482.00 923.00 L 476.00 919.00 L 416.00 905.00 L 413.00 902.00 L 467.00 910.00 L 464.00 907.00 L 404.00 893.00 L 407.00 893.00 L 473.00 907.00 L 472.00 905.00 L 404.00 887.00 L 358.00 856.00 L 334.00 812.00 L 321.00 759.00 L 319.00 697.00 L 333.00 606.00 L 363.00 486.00 L 397.00 414.00 L 435.00 390.00 L 463.00 386.00 L 481.00 402.00 L 503.00 396.00 L 529.00 368.00 L 573.00 344.00 L 635.00 324.00 L 703.00 322.00 L 777.00 338.00 L 843.00 370.00 L 901.00 418.00 L 938.00 453.00 L 954.00 475.00 L 959.00 493.00 L 953.00 507.00 L 955.00 508.00 L 965.00 496.00 L 966.00 499.00 L 958.00 517.00 L 959.00 518.00 L 969.00 502.00 L 971.00 506.00 L 965.00 530.00 L 968.00 535.00 L 980.00 521.00 L 981.00 525.00 L 971.00 547.00 L 973.00 549.00 L 987.00 531.00 L 988.00 534.00 L 976.00 558.00 L 978.00 560.00 L 994.00 540.00 L 996.00 544.00 L 984.00 572.00 L 986.00 575.00 L 1002.00 553.00 L 1003.00 555.00 L 989.00 581.00 L 990.00 584.00 L 1006.00 564.00 L 1007.00 567.00 L 993.00 593.00 L 992.00 599.00 L 1004.00 585.00 L 1006.00 595.00 L 998.00 629.00 L 1001.00 638.00 L 1015.00 622.00 L 1015.00 624.00 L 1001.00 644.00 L 1002.00 647.00 L 1018.00 633.00 L 1018.00 637.00 L 1002.00 659.00 L 1002.00 661.00 L 1018.00 643.00 L 1017.00 645.00 L 999.00 667.00 L 999.00 670.00 L 1017.00 654.00 L 1016.00 661.00 L 996.00 691.00 L 1004.00 737.00 L 1040.00 799.00 L 1045.00 839.00 L 1019.00 857.00 L 1018.00 862.00 L 1042.00 854.00 L 1043.00 857.00 L 1021.00 871.00 L 1010.00 898.00 L 1010.00 938.00 L 1002.00 965.00 L 986.00 979.00 L 983.00 995.00 L 993.00 1013.00 L 996.00 1031.00 L 992.00 1049.00 L 957.00 1077.00 L 891.00 1115.00 L 924.00 1243.00 L 1056.00 1461.00 L 1054.00 1462.00 L 918.00 1246.00 L 918.00 1249.00 L 1054.00 1471.00 L 1104.00 1553.00 L 1068.00 1495.00 L 1069.00 1498.00 L 1107.00 1562.00 L 1105.00 1560.00 L 1063.00 1492.00 L 1063.00 1496.00 L 1105.00 1572.00 L 1100.00 1568.00 L 1048.00 1484.00 L 1048.00 1487.00 L 1100.00 1577.00 L 1097.00 1575.00 L 1039.00 1481.00 L 1038.00 1484.00 L 1094.00 1584.00 L 1091.00 1581.00 L 1029.00 1475.00 L 1029.00 1477.00 L 1091.00 1587.00 L 1090.00 1586.00 L 1026.00 1474.00 L 1025.00 1477.00 L 1087.00 1595.00 L 1083.00 1592.00 L 1013.00 1468.00 L 1012.00 1470.00 L 1080.00 1598.00 L 1045.00 1533.00 L 907.00 1275.00 L 906.00 1278.00 L 1042.00 1542.00 L 1069.00 1600.00 L 987.00 1452.00 L 985.00 1457.00 L 1063.00 1615.00 L 1060.00 1612.00 L 976.00 1448.00 L 974.00 1450.00 L 1054.00 1618.00 L 1052.00 1616.00 L 968.00 1444.00 L 966.00 1447.00 L 1046.00 1625.00 L 1043.00 1622.00 L 957.00 1438.00 L 954.00 1441.00 L 1034.00 1631.00 L 1012.00 1584.00 L 888.00 1300.00 L 887.00 1302.00 L 1009.00 1590.00 L 1022.00 1628.00 L 926.00 1416.00 L 921.00 1420.00 L 1007.00 1640.00 L 1005.00 1638.00 L 915.00 1414.00 L 913.00 1416.00 L 999.00 1644.00 L 986.00 1610.00 L 874.00 1314.00 L 872.00 1316.00 L 980.00 1616.00 L 988.00 1643.00 L 896.00 1397.00 L 891.00 1392.00 L 973.00 1628.00 L 972.00 1627.00 L 888.00 1389.00 L 885.00 1386.00 L 963.00 1618.00 L 955.00 1595.00 L 861.00 1317.00 L 860.00 1315.00 L 952.00 1589.00 L 952.00 1591.00 L 860.00 1321.00 L 856.00 1316.00 L 940.00 1576.00 L 940.00 1578.00 L 856.00 1322.00 L 853.00 1319.00 L 931.00 1569.00 L 931.00 1572.00 L 853.00 1328.00 L 847.00 1320.00 L 913.00 1548.00 L 913.00 1550.00 L 847.00 1326.00 L 845.00 1324.00 L 907.00 1544.00 L 905.00 1621.00 L 839.00 1555.00 L 771.00 1497.00 L 701.00 1447.00 L 626.00 1400.00 L 546.00 1356.00 L 453.00 1315.00 L 347.00 1277.00 L 330.00 1200.00 L 402.00 1084.00 L 447.00 1022.00 L 465.00 1014.00 L 466.00 1011.00 L 450.00 1013.00 L 452.00 1011.00 L 472.00 1005.00 L 474.00 1003.00 L 458.00 1005.00 L 462.00 997.00 L 486.00 979.00 L 498.00 968.00 L 498.00 964.00 L 500.00 958.00 Z" fill="black" stroke="black" stroke-width="1"/>
</svg>