<?xml version="1.0" encoding="UTF-8"?>
<svg xmlns="http://www.w3.org/2000/svg" viewBox="308.00 243.00 893.00 1495.00">
  <path d="M 419.00 937.00 L 421.00 911.00 L 417.00 895.00 L 407.00 889.00 L 408.00 887.00 L 420.00 889.00 L 418.00 886.00 L 402.00 878.00 L 402.00 875.00 L 418.00 877.00 L 418.00 875.00 L 402.00 869.00 L 404.00 867.00 L 424.00 869.00 L 423.00 865.00 L 401.00 855.00 L 403.00 852.00 L 429.00 856.00 L 429.00 852.00 L 403.00 840.00 L 379.00 776.00 L 357.00 660.00 L 348.00 574.00 L 352.00 518.00 L 367.00 456.00 L 393.00 388.00 L 425.00 338.00 L 463.00 306.00 L 510.00 280.00 L 566.00 260.00 L 605.00 253.00 L 627.00 259.00 L 647.00 259.00 L 665.00 253.00 L 679.00 253.00 L 689.00 259.00 L 703.00 260.00 L 721.00 256.00 L 754.00 257.00 L 802.00 263.00 L 837.00 274.00 L 859.00 290.00 L 885.00 303.00 L 915.00 313.00 L 934.00 323.00 L 942.00 333.00 L 946.00 344.00 L 946.00 356.00 L 948.00 357.00 L 952.00 347.00 L 953.00 348.00 L 951.00 360.00 L 952.00 361.00 L 956.00 351.00 L 958.00 352.00 L 958.00 364.00 L 961.00 365.00 L 967.00 355.00 L 969.00 359.00 L 967.00 377.00 L 969.00 378.00 L 975.00 362.00 L 977.00 364.00 L 975.00 384.00 L 977.00 386.00 L 983.00 370.00 L 985.00 372.00 L 983.00 392.00 L 985.00 394.00 L 991.00 378.00 L 993.00 381.00 L 991.00 403.00 L 994.00 406.00 L 1002.00 390.00 L 1004.00 392.00 L 1000.00 412.00 L 1002.00 414.00 L 1010.00 398.00 L 1012.00 400.00 L 1008.00 420.00 L 1008.00 429.00 L 1012.00 427.00 L 1013.00 429.00 L 1011.00 435.00 L 1013.00 431.00 L 1019.00 417.00 L 1020.00 418.00 L 1016.00 434.00 L 1017.00 436.00 L 1023.00 424.00 L 1025.00 428.00 L 1023.00 448.00 L 1025.00 453.00 L 1031.00 443.00 L 1032.00 447.00 L 1028.00 465.00 L 1029.00 468.00 L 1035.00 456.00 L 1037.00 457.00 L 1035.00 471.00 L 1036.00 475.00 L 1040.00 469.00 L 1040.00 473.00 L 1036.00 487.00 L 1038.00 491.00 L 1046.00 485.00 L 1048.00 488.00 L 1044.00 500.00 L 1050.00 521.00 L 1066.00 551.00 L 1071.00 577.00 L 1065.00 599.00 L 1064.00 621.00 L 1068.00 643.00 L 1096.00 680.00 L 1148.00 732.00 L 1173.00 763.00 L 1171.00 773.00 L 1158.00 784.00 L 1134.00 796.00 L 1131.00 799.00 L 1149.00 793.00 L 1148.00 795.00 L 1128.00 805.00 L 1118.00 818.00 L 1118.00 834.00 L 1122.00 848.00 L 1130.00 860.00 L 1128.00 871.00 L 1116.00 881.00 L 1112.00 893.00 L 1116.00 907.00 L 1112.00 921.00 L 1100.00 935.00 L 1100.00 956.00 L 1112.00 984.00 L 1117.00 1004.00 L 1115.00 1016.00 L 1106.00 1030.00 L 1090.00 1046.00 L 1067.00 1059.00 L 1037.00 1069.00 L 1032.00 1080.00 L 1052.00 1092.00 L 1054.00 1094.00 L 1038.00 1086.00 L 1039.00 1088.00 L 1057.00 1100.00 L 1066.00 1109.00 L 1066.00 1115.00 L 1053.00 1137.00 L 1027.00 1175.00 L 1014.00 1201.00 L 1014.00 1215.00 L 1010.00 1229.00 L 1002.00 1243.00 L 1013.00 1272.00 L 1043.00 1316.00 L 1055.00 1334.00 L 1049.00 1326.00 L 1051.00 1330.00 L 1061.00 1346.00 L 1050.00 1332.00 L 1018.00 1288.00 L 1021.00 1299.00 L 1059.00 1365.00 L 1058.00 1368.00 L 1018.00 1308.00 L 999.00 1280.00 L 1001.00 1284.00 L 1042.00 1350.00 L 1122.00 1478.00 L 1143.00 1513.00 L 1105.00 1455.00 L 1110.00 1470.00 L 1158.00 1558.00 L 1185.00 1622.00 L 1191.00 1662.00 L 1189.00 1692.00 L 1179.00 1712.00 L 1160.00 1724.00 L 1132.00 1728.00 L 1102.00 1725.00 L 1070.00 1715.00 L 1036.00 1698.00 L 1000.00 1674.00 L 942.00 1623.00 L 862.00 1545.00 L 773.00 1481.00 L 675.00 1431.00 L 594.00 1397.00 L 530.00 1379.00 L 453.00 1369.00 L 363.00 1367.00 L 318.00 1354.00 L 318.00 1330.00 L 343.00 1252.00 L 393.00 1120.00 L 415.00 1048.00 L 409.00 1036.00 L 409.00 1012.00 L 415.00 976.00 L 418.00 956.00 L 418.00 952.00 L 419.00 937.00 Z" fill="black" stroke="black" stroke-width="1"/>
</svg>