<?xml version="1.0" encoding="UTF-8"?>
<svg xmlns="http://www.w3.org/2000/svg" viewBox="337.00 281.00 844.00 1414.00">
  <path d="M 486.00 945.00 L 534.00 943.00 L 530.00 940.00 L 474.00 936.00 L 477.00 935.00 L 539.00 937.00 L 537.00 935.00 L 471.00 929.00 L 435.00 923.00 L 429.00 917.00 L 461.00 917.00 L 531.00 923.00 L 530.00 921.00 L 458.00 911.00 L 458.00 910.00 L 530.00 918.00 L 529.00 917.00 L 455.00 907.00 L 402.00 867.00 L 370.00 797.00 L 352.00 749.00 L 348.00 723.00 L 347.00 689.00 L 349.00 647.00 L 355.00 605.00 L 365.00 563.00 L 376.00 534.00 L 388.00 518.00 L 398.00 497.00 L 406.00 471.00 L 429.00 438.00 L 467.00 398.00 L 506.00 365.00 L 546.00 339.00 L 579.00 323.00 L 605.00 317.00 L 636.00 317.00 L 672.00 323.00 L 704.00 317.00 L 732.00 299.00 L 756.00 291.00 L 776.00 293.00 L 801.00 302.00 L 831.00 318.00 L 849.00 337.00 L 855.00 359.00 L 869.00 371.00 L 891.00 373.00 L 914.00 382.00 L 938.00 398.00 L 958.00 416.00 L 974.00 436.00 L 982.00 451.00 L 982.00 461.00 L 984.00 462.00 L 988.00 454.00 L 989.00 456.00 L 987.00 468.00 L 990.00 469.00 L 998.00 459.00 L 1001.00 463.00 L 999.00 481.00 L 1002.00 484.00 L 1010.00 472.00 L 1011.00 474.00 L 1005.00 490.00 L 1006.00 491.00 L 1014.00 477.00 L 1015.00 478.00 L 1009.00 494.00 L 1011.00 496.00 L 1021.00 484.00 L 1023.00 488.00 L 1017.00 508.00 L 1020.00 511.00 L 1032.00 497.00 L 1033.00 500.00 L 1023.00 520.00 L 1023.00 522.00 L 1033.00 506.00 L 1034.00 510.00 L 1026.00 534.00 L 1027.00 538.00 L 1037.00 522.00 L 1038.00 527.00 L 1030.00 553.00 L 1030.00 562.00 L 1038.00 554.00 L 1039.00 558.00 L 1033.00 574.00 L 1034.00 577.00 L 1042.00 567.00 L 1043.00 569.00 L 1037.00 583.00 L 1038.00 585.00 L 1046.00 575.00 L 1047.00 577.00 L 1041.00 591.00 L 1043.00 594.00 L 1053.00 586.00 L 1054.00 589.00 L 1046.00 603.00 L 1046.00 606.00 L 1054.00 598.00 L 1058.00 596.00 L 1058.00 600.00 L 1052.00 622.00 L 1040.00 662.00 L 1054.00 706.00 L 1094.00 754.00 L 1116.00 784.00 L 1120.00 796.00 L 1107.00 810.00 L 1077.00 826.00 L 1075.00 831.00 L 1101.00 825.00 L 1100.00 828.00 L 1072.00 840.00 L 1070.00 842.00 L 1094.00 834.00 L 1094.00 837.00 L 1070.00 851.00 L 1060.00 865.00 L 1064.00 879.00 L 1060.00 901.00 L 1048.00 931.00 L 1045.00 955.00 L 1051.00 973.00 L 1051.00 990.00 L 1045.00 1006.00 L 1008.00 1038.00 L 940.00 1086.00 L 977.00 1215.00 L 1119.00 1425.00 L 1118.00 1428.00 L 974.00 1224.00 L 975.00 1226.00 L 1121.00 1434.00 L 1168.00 1502.00 L 1116.00 1430.00 L 1117.00 1433.00 L 1171.00 1511.00 L 1169.00 1509.00 L 1111.00 1427.00 L 1111.00 1429.00 L 1169.00 1515.00 L 1164.00 1510.00 L 1096.00 1414.00 L 1095.00 1416.00 L 1161.00 1516.00 L 1158.00 1514.00 L 1086.00 1410.00 L 1086.00 1413.00 L 1158.00 1523.00 L 1154.00 1520.00 L 1074.00 1404.00 L 1073.00 1407.00 L 1151.00 1529.00 L 1117.00 1476.00 L 971.00 1248.00 L 971.00 1251.00 L 1117.00 1485.00 L 1117.00 1486.00 L 971.00 1254.00 L 970.00 1257.00 L 1114.00 1495.00 L 1126.00 1517.00 L 1006.00 1323.00 L 1004.00 1327.00 L 1120.00 1529.00 L 1107.00 1509.00 L 965.00 1267.00 L 964.00 1268.00 L 1104.00 1512.00 L 1111.00 1526.00 L 985.00 1310.00 L 984.00 1313.00 L 1108.00 1535.00 L 1101.00 1523.00 L 963.00 1277.00 L 961.00 1279.00 L 1095.00 1529.00 L 1095.00 1531.00 L 961.00 1285.00 L 957.00 1289.00 L 1083.00 1543.00 L 1138.00 1675.00 L 1122.00 1685.00 L 1064.00 1650.00 L 964.00 1570.00 L 873.00 1507.00 L 791.00 1461.00 L 695.00 1420.00 L 585.00 1384.00 L 492.00 1362.00 L 416.00 1354.00 L 390.00 1328.00 L 414.00 1284.00 L 428.00 1247.00 L 432.00 1217.00 L 443.00 1181.00 L 461.00 1139.00 L 475.00 1114.00 L 485.00 1106.00 L 494.00 1091.00 L 502.00 1069.00 L 513.00 1054.00 L 527.00 1046.00 L 528.00 1044.00 L 516.00 1048.00 L 523.00 1036.00 L 549.00 1008.00 L 563.00 987.00 L 565.00 973.00 L 549.00 965.00 L 515.00 963.00 L 516.00 961.00 L 552.00 959.00 L 546.00 957.00 L 498.00 955.00 L 498.00 953.00 L 546.00 951.00 L 544.00 950.00 L 492.00 950.00 L 465.00 949.00 L 463.00 947.00 L 486.00 945.00 Z" fill="black" stroke="black" stroke-width="1"/>
</svg>