<?xml version="1.0" encoding="UTF-8"?>
<svg xmlns="http://www.w3.org/2000/svg" viewBox="325.00 224.00 1042.00 1457.00">
  <path d="M 458.00 881.00 L 458.00 839.00 L 447.00 805.00 L 425.00 779.00 L 436.00 739.00 L 480.00 685.00 L 491.00 645.00 L 469.00 619.00 L 470.00 617.00 L 494.00 639.00 L 493.00 637.00 L 467.00 611.00 L 467.00 609.00 L 493.00 631.00 L 494.00 629.00 L 470.00 603.00 L 470.00 601.00 L 494.00 623.00 L 497.00 625.00 L 479.00 607.00 L 468.00 593.00 L 464.00 583.00 L 473.00 589.00 L 495.00 611.00 L 495.00 601.00 L 473.00 559.00 L 473.00 548.00 L 495.00 568.00 L 495.00 565.00 L 473.00 539.00 L 474.00 536.00 L 498.00 556.00 L 500.00 551.00 L 480.00 521.00 L 480.00 518.00 L 500.00 542.00 L 502.00 539.00 L 486.00 509.00 L 487.00 506.00 L 505.00 530.00 L 506.00 527.00 L 490.00 497.00 L 491.00 493.00 L 509.00 515.00 L 510.00 514.00 L 494.00 490.00 L 495.00 487.00 L 513.00 505.00 L 514.00 502.00 L 498.00 478.00 L 499.00 476.00 L 517.00 496.00 L 518.00 493.00 L 502.00 467.00 L 503.00 464.00 L 521.00 484.00 L 522.00 481.00 L 506.00 455.00 L 507.00 452.00 L 525.00 472.00 L 528.00 463.00 L 516.00 425.00 L 519.00 419.00 L 537.00 445.00 L 540.00 442.00 L 528.00 410.00 L 530.00 406.00 L 546.00 430.00 L 549.00 428.00 L 539.00 400.00 L 540.00 398.00 L 552.00 422.00 L 553.00 421.00 L 543.00 395.00 L 586.00 348.00 L 682.00 280.00 L 768.00 242.00 L 844.00 234.00 L 911.00 241.00 L 969.00 263.00 L 1020.00 291.00 L 1064.00 325.00 L 1096.00 328.00 L 1116.00 300.00 L 1119.00 303.00 L 1105.00 337.00 L 1109.00 336.00 L 1131.00 300.00 L 1133.00 301.00 L 1115.00 339.00 L 1117.00 339.00 L 1139.00 301.00 L 1158.00 284.00 L 1174.00 288.00 L 1198.00 316.00 L 1230.00 368.00 L 1243.00 411.00 L 1237.00 445.00 L 1243.00 465.00 L 1261.00 471.00 L 1268.00 485.00 L 1264.00 507.00 L 1287.00 533.00 L 1337.00 563.00 L 1342.00 591.00 L 1302.00 617.00 L 1305.00 619.00 L 1351.00 597.00 L 1352.00 599.00 L 1308.00 625.00 L 1309.00 628.00 L 1355.00 608.00 L 1356.00 610.00 L 1312.00 634.00 L 1312.00 637.00 L 1356.00 619.00 L 1357.00 621.00 L 1315.00 643.00 L 1314.00 645.00 L 1354.00 627.00 L 1354.00 629.00 L 1314.00 651.00 L 1312.00 654.00 L 1348.00 638.00 L 1348.00 641.00 L 1312.00 663.00 L 1309.00 667.00 L 1339.00 653.00 L 1339.00 655.00 L 1309.00 673.00 L 1289.00 703.00 L 1279.00 745.00 L 1256.00 773.00 L 1220.00 787.00 L 1218.00 790.00 L 1250.00 782.00 L 1252.00 782.00 L 1224.00 790.00 L 1221.00 793.00 L 1243.00 791.00 L 1241.00 794.00 L 1215.00 802.00 L 1212.00 804.00 L 1232.00 800.00 L 1232.00 802.00 L 1212.00 810.00 L 1198.00 826.00 L 1190.00 850.00 L 1175.00 870.00 L 1153.00 886.00 L 1124.00 895.00 L 1088.00 897.00 L 1085.00 898.00 L 1115.00 898.00 L 1113.00 901.00 L 1079.00 907.00 L 1049.00 921.00 L 1023.00 943.00 L 1005.00 1008.00 L 995.00 1116.00 L 1002.00 1202.00 L 1026.00 1266.00 L 1030.00 1288.00 L 1014.00 1268.00 L 1018.00 1289.00 L 1042.00 1351.00 L 1051.00 1397.00 L 1045.00 1427.00 L 923.00 1483.00 L 685.00 1565.00 L 591.00 1524.00 L 641.00 1360.00 L 639.00 1361.00 L 585.00 1527.00 L 586.00 1521.00 L 642.00 1343.00 L 640.00 1344.00 L 580.00 1524.00 L 580.00 1521.00 L 640.00 1335.00 L 637.00 1337.00 L 571.00 1527.00 L 571.00 1524.00 L 637.00 1328.00 L 634.00 1330.00 L 562.00 1530.00 L 562.00 1527.00 L 634.00 1321.00 L 629.00 1323.00 L 547.00 1533.00 L 547.00 1530.00 L 629.00 1314.00 L 622.00 1318.00 L 526.00 1542.00 L 525.00 1539.00 L 619.00 1309.00 L 615.00 1312.00 L 513.00 1548.00 L 513.00 1545.00 L 615.00 1303.00 L 609.00 1307.00 L 495.00 1557.00 L 495.00 1554.00 L 609.00 1298.00 L 599.00 1305.00 L 465.00 1575.00 L 464.00 1572.00 L 596.00 1296.00 L 589.00 1301.00 L 443.00 1587.00 L 443.00 1584.00 L 589.00 1292.00 L 585.00 1294.00 L 431.00 1590.00 L 387.00 1671.00 L 453.00 1537.00 L 451.00 1536.00 L 381.00 1668.00 L 379.00 1670.00 L 445.00 1542.00 L 441.00 1536.00 L 367.00 1652.00 L 412.00 1565.00 L 576.00 1275.00 L 575.00 1273.00 L 409.00 1559.00 L 409.00 1557.00 L 575.00 1267.00 L 574.00 1262.00 L 406.00 1542.00 L 341.00 1647.00 L 379.00 1577.00 L 378.00 1574.00 L 338.00 1638.00 L 335.00 1639.00 L 369.00 1577.00 L 369.00 1571.00 L 335.00 1621.00 L 402.00 1513.00 L 570.00 1247.00 L 570.00 1244.00 L 402.00 1504.00 L 401.00 1501.00 L 567.00 1235.00 L 613.00 1088.00 L 539.00 1060.00 L 492.00 1012.00 L 472.00 944.00 L 461.00 908.00 L 459.00 904.00 L 458.00 881.00 Z" fill="black" stroke="black" stroke-width="1"/>
</svg>