<?xml version="1.0" encoding="UTF-8"?>
<svg xmlns="http://www.w3.org/2000/svg" viewBox="408.00 294.00 718.00 1378.00">
  <path d="M 543.00 957.00 L 537.00 955.00 L 537.00 953.00 L 543.00 951.00 L 541.00 949.00 L 531.00 947.00 L 524.00 942.00 L 520.00 934.00 L 518.00 924.00 L 518.00 912.00 L 497.00 857.00 L 455.00 759.00 L 430.00 690.00 L 422.00 650.00 L 418.00 609.00 L 418.00 567.00 L 426.00 526.00 L 442.00 486.00 L 459.00 451.00 L 477.00 421.00 L 494.00 397.00 L 510.00 379.00 L 532.00 360.00 L 560.00 340.00 L 583.00 326.00 L 601.00 318.00 L 621.00 314.00 L 643.00 314.00 L 659.00 312.00 L 669.00 308.00 L 687.00 307.00 L 713.00 309.00 L 735.00 308.00 L 753.00 304.00 L 776.00 304.00 L 804.00 308.00 L 845.00 321.00 L 899.00 343.00 L 955.00 380.00 L 1013.00 432.00 L 1040.00 464.00 L 1036.00 476.00 L 1037.00 477.00 L 1043.00 467.00 L 1044.00 469.00 L 1040.00 483.00 L 1041.00 484.00 L 1047.00 472.00 L 1051.00 469.00 L 1053.00 475.00 L 1052.00 483.00 L 1048.00 493.00 L 1049.00 495.00 L 1055.00 489.00 L 1056.00 492.00 L 1052.00 504.00 L 1054.00 506.00 L 1062.00 498.00 L 1064.00 501.00 L 1060.00 515.00 L 1061.00 517.00 L 1067.00 507.00 L 1068.00 510.00 L 1064.00 526.00 L 1065.00 530.00 L 1071.00 522.00 L 1071.00 524.00 L 1065.00 536.00 L 1063.00 541.00 L 1065.00 539.00 L 1066.00 540.00 L 1066.00 544.00 L 1069.00 542.00 L 1075.00 534.00 L 1075.00 537.00 L 1069.00 551.00 L 1070.00 554.00 L 1078.00 546.00 L 1079.00 549.00 L 1073.00 563.00 L 1074.00 565.00 L 1082.00 555.00 L 1082.00 557.00 L 1074.00 571.00 L 1075.00 574.00 L 1085.00 566.00 L 1086.00 571.00 L 1078.00 589.00 L 1080.00 591.00 L 1092.00 577.00 L 1097.00 573.00 L 1095.00 579.00 L 1096.00 580.00 L 1100.00 576.00 L 1096.00 583.00 L 1084.00 601.00 L 1079.00 625.00 L 1081.00 655.00 L 1079.00 691.00 L 1073.00 733.00 L 1082.00 779.00 L 1106.00 829.00 L 1116.00 858.00 L 1112.00 866.00 L 1104.00 873.00 L 1092.00 879.00 L 1090.00 881.00 L 1098.00 879.00 L 1096.00 880.00 L 1084.00 884.00 L 1083.00 885.00 L 1093.00 883.00 L 1094.00 884.00 L 1086.00 888.00 L 1086.00 898.00 L 1094.00 914.00 L 1094.00 927.00 L 1086.00 937.00 L 1083.00 948.00 L 1085.00 960.00 L 1080.00 970.00 L 1068.00 978.00 L 1059.00 994.00 L 1053.00 1018.00 L 1043.00 1038.00 L 1029.00 1054.00 L 1007.00 1064.00 L 977.00 1068.00 L 949.00 1066.00 L 923.00 1058.00 L 916.00 1061.00 L 928.00 1075.00 L 927.00 1095.00 L 913.00 1121.00 L 937.00 1196.00 L 999.00 1320.00 L 1004.00 1334.00 L 952.00 1238.00 L 959.00 1253.00 L 1025.00 1379.00 L 1020.00 1371.00 L 944.00 1229.00 L 946.00 1236.00 L 1026.00 1392.00 L 1028.00 1397.00 L 952.00 1251.00 L 952.00 1252.00 L 1028.00 1400.00 L 1027.00 1399.00 L 949.00 1249.00 L 950.00 1253.00 L 1030.00 1411.00 L 1029.00 1410.00 L 947.00 1250.00 L 947.00 1253.00 L 1029.00 1419.00 L 1028.00 1418.00 L 944.00 1250.00 L 945.00 1255.00 L 1031.00 1433.00 L 1043.00 1459.00 L 981.00 1333.00 L 981.00 1336.00 L 1043.00 1468.00 L 1045.00 1474.00 L 987.00 1354.00 L 987.00 1356.00 L 1045.00 1480.00 L 1071.00 1560.00 L 1065.00 1596.00 L 1053.00 1626.00 L 1035.00 1650.00 L 1019.00 1662.00 L 1005.00 1662.00 L 990.00 1658.00 L 974.00 1650.00 L 925.00 1611.00 L 843.00 1541.00 L 802.00 1508.00 L 802.00 1512.00 L 787.00 1505.00 L 757.00 1487.00 L 740.00 1475.00 L 736.00 1469.00 L 727.00 1464.00 L 713.00 1460.00 L 701.00 1453.00 L 691.00 1443.00 L 673.00 1436.00 L 647.00 1432.00 L 631.00 1427.00 L 625.00 1421.00 L 577.00 1410.00 L 487.00 1394.00 L 444.00 1373.00 L 448.00 1347.00 L 460.00 1303.00 L 480.00 1241.00 L 493.00 1196.00 L 499.00 1168.00 L 501.00 1148.00 L 499.00 1136.00 L 505.00 1098.00 L 519.00 1034.00 L 532.00 993.00 L 544.00 975.00 L 549.00 964.00 L 547.00 960.00 L 543.00 957.00 Z" fill="black" stroke="black" stroke-width="1"/>
</svg>