<?xml version="1.0" encoding="UTF-8"?>
<svg xmlns="http://www.w3.org/2000/svg" viewBox="269.00 324.00 834.00 1473.00">
  <path d="M 441.00 991.00 L 399.00 981.00 L 396.00 977.00 L 432.00 979.00 L 430.00 978.00 L 390.00 974.00 L 389.00 973.00 L 427.00 975.00 L 425.00 974.00 L 383.00 970.00 L 380.00 969.00 L 416.00 971.00 L 413.00 969.00 L 371.00 963.00 L 342.00 953.00 L 326.00 939.00 L 307.00 890.00 L 285.00 806.00 L 279.00 725.00 L 289.00 647.00 L 318.00 570.00 L 366.00 494.00 L 398.00 451.00 L 414.00 441.00 L 436.00 436.00 L 464.00 436.00 L 474.00 426.00 L 466.00 406.00 L 467.00 406.00 L 477.00 426.00 L 477.00 424.00 L 467.00 400.00 L 468.00 401.00 L 480.00 427.00 L 480.00 425.00 L 468.00 395.00 L 464.00 377.00 L 468.00 371.00 L 476.00 376.00 L 488.00 392.00 L 490.00 389.00 L 482.00 367.00 L 484.00 369.00 L 496.00 395.00 L 498.00 393.00 L 490.00 363.00 L 492.00 364.00 L 504.00 396.00 L 506.00 397.00 L 498.00 367.00 L 501.00 366.00 L 515.00 394.00 L 532.00 394.00 L 552.00 366.00 L 582.00 347.00 L 622.00 337.00 L 652.00 334.00 L 672.00 338.00 L 686.00 375.00 L 694.00 445.00 L 696.00 445.00 L 692.00 375.00 L 694.00 376.00 L 702.00 448.00 L 706.00 450.00 L 706.00 382.00 L 710.00 383.00 L 718.00 453.00 L 722.00 457.00 L 722.00 395.00 L 725.00 396.00 L 731.00 460.00 L 735.00 470.00 L 737.00 426.00 L 740.00 427.00 L 744.00 473.00 L 761.00 493.00 L 791.00 487.00 L 826.00 489.00 L 866.00 499.00 L 904.00 515.00 L 940.00 537.00 L 963.00 556.00 L 973.00 572.00 L 976.00 585.00 L 972.00 595.00 L 973.00 597.00 L 979.00 591.00 L 980.00 595.00 L 976.00 609.00 L 978.00 610.00 L 986.00 598.00 L 987.00 600.00 L 981.00 616.00 L 984.00 619.00 L 996.00 609.00 L 997.00 612.00 L 987.00 628.00 L 989.00 630.00 L 1003.00 618.00 L 1005.00 621.00 L 995.00 639.00 L 996.00 640.00 L 1008.00 624.00 L 1009.00 627.00 L 999.00 649.00 L 1002.00 653.00 L 1018.00 639.00 L 1020.00 642.00 L 1008.00 662.00 L 1009.00 664.00 L 1023.00 648.00 L 1024.00 651.00 L 1012.00 673.00 L 1013.00 678.00 L 1027.00 666.00 L 1028.00 668.00 L 1016.00 684.00 L 1016.00 687.00 L 1028.00 677.00 L 1028.00 679.00 L 1016.00 693.00 L 1016.00 695.00 L 1028.00 685.00 L 1029.00 688.00 L 1019.00 704.00 L 1018.00 709.00 L 1026.00 703.00 L 1026.00 705.00 L 1018.00 715.00 L 1013.00 742.00 L 1011.00 786.00 L 1033.00 833.00 L 1079.00 883.00 L 1091.00 922.00 L 1069.00 950.00 L 1061.00 975.00 L 1067.00 997.00 L 1067.00 1013.00 L 1061.00 1023.00 L 1062.00 1034.00 L 1070.00 1046.00 L 1069.00 1062.00 L 1059.00 1082.00 L 1057.00 1109.00 L 1063.00 1143.00 L 1052.00 1166.00 L 1024.00 1178.00 L 989.00 1185.00 L 947.00 1187.00 L 915.00 1207.00 L 893.00 1245.00 L 934.00 1356.00 L 1038.00 1540.00 L 1038.00 1542.00 L 934.00 1362.00 L 938.00 1373.00 L 1050.00 1575.00 L 1049.00 1576.00 L 935.00 1376.00 L 935.00 1379.00 L 1049.00 1585.00 L 1090.00 1660.00 L 1058.00 1604.00 L 1059.00 1607.00 L 1093.00 1669.00 L 1090.00 1666.00 L 1050.00 1598.00 L 1050.00 1601.00 L 1090.00 1675.00 L 1088.00 1673.00 L 1044.00 1595.00 L 1043.00 1598.00 L 1085.00 1682.00 L 1069.00 1655.00 L 995.00 1517.00 L 995.00 1519.00 L 1069.00 1661.00 L 1048.00 1621.00 L 932.00 1399.00 L 932.00 1401.00 L 1048.00 1627.00 L 1048.00 1630.00 L 932.00 1410.00 L 930.00 1414.00 L 1042.00 1642.00 L 1042.00 1643.00 L 930.00 1417.00 L 929.00 1419.00 L 1039.00 1649.00 L 1089.00 1770.00 L 1079.00 1782.00 L 1056.00 1787.00 L 1020.00 1785.00 L 972.00 1755.00 L 912.00 1697.00 L 831.00 1634.00 L 729.00 1566.00 L 611.00 1516.00 L 477.00 1484.00 L 411.00 1454.00 L 413.00 1426.00 L 437.00 1366.00 L 483.00 1274.00 L 499.00 1235.00 L 485.00 1249.00 L 495.00 1236.00 L 529.00 1196.00 L 536.00 1185.00 L 516.00 1203.00 L 520.00 1191.00 L 548.00 1149.00 L 561.00 1110.00 L 559.00 1074.00 L 536.00 1042.00 L 492.00 1014.00 L 468.00 999.00 L 464.00 997.00 L 441.00 991.00 Z" fill="black" stroke="black" stroke-width="1"/>
</svg>