<?xml version="1.0" encoding="UTF-8"?>
<svg xmlns="http://www.w3.org/2000/svg" viewBox="266.00 232.00 906.00 1622.00">
  <path d="M 382.00 1024.00 L 390.00 1012.00 L 394.00 993.00 L 394.00 967.00 L 371.00 911.00 L 325.00 825.00 L 295.00 756.00 L 281.00 704.00 L 276.00 648.00 L 280.00 588.00 L 286.00 541.00 L 294.00 507.00 L 313.00 460.00 L 343.00 400.00 L 371.00 357.00 L 397.00 331.00 L 421.00 311.00 L 443.00 297.00 L 487.00 279.00 L 553.00 257.00 L 619.00 246.00 L 685.00 246.00 L 734.00 251.00 L 766.00 261.00 L 793.00 274.00 L 815.00 290.00 L 832.00 288.00 L 844.00 268.00 L 857.00 254.00 L 871.00 246.00 L 888.00 242.00 L 908.00 242.00 L 930.00 248.00 L 954.00 260.00 L 973.00 273.00 L 987.00 287.00 L 996.00 299.00 L 1000.00 309.00 L 996.00 337.00 L 984.00 383.00 L 986.00 386.00 L 1002.00 346.00 L 1003.00 348.00 L 989.00 392.00 L 990.00 397.00 L 1006.00 363.00 L 1008.00 366.00 L 996.00 406.00 L 996.00 412.00 L 1008.00 384.00 L 1010.00 387.00 L 1002.00 421.00 L 1007.00 458.00 L 1025.00 498.00 L 1034.00 524.00 L 1034.00 536.00 L 1040.00 561.00 L 1052.00 599.00 L 1055.00 627.00 L 1049.00 645.00 L 1047.00 660.00 L 1049.00 672.00 L 1077.00 711.00 L 1131.00 777.00 L 1158.00 813.00 L 1158.00 819.00 L 1143.00 830.00 L 1113.00 846.00 L 1112.00 848.00 L 1140.00 836.00 L 1139.00 839.00 L 1109.00 857.00 L 1096.00 877.00 L 1100.00 899.00 L 1101.00 914.00 L 1099.00 922.00 L 1093.00 928.00 L 1083.00 932.00 L 1085.00 935.00 L 1099.00 937.00 L 1103.00 952.00 L 1097.00 980.00 L 1098.00 1008.00 L 1106.00 1036.00 L 1107.00 1057.00 L 1101.00 1071.00 L 1093.00 1082.00 L 1083.00 1090.00 L 1067.00 1098.00 L 1045.00 1106.00 L 1016.00 1109.00 L 980.00 1107.00 L 958.00 1108.00 L 950.00 1112.00 L 948.00 1127.00 L 952.00 1153.00 L 950.00 1182.00 L 942.00 1214.00 L 949.00 1245.00 L 971.00 1275.00 L 980.00 1288.00 L 976.00 1284.00 L 977.00 1287.00 L 983.00 1297.00 L 975.00 1291.00 L 953.00 1269.00 L 953.00 1272.00 L 975.00 1300.00 L 975.00 1303.00 L 953.00 1281.00 L 952.00 1283.00 L 972.00 1309.00 L 972.00 1311.00 L 952.00 1289.00 L 997.00 1344.00 L 1107.00 1476.00 L 1117.00 1490.00 L 1027.00 1386.00 L 1027.00 1389.00 L 1117.00 1499.00 L 1118.00 1501.00 L 1030.00 1395.00 L 1030.00 1398.00 L 1118.00 1510.00 L 1112.00 1505.00 L 1012.00 1383.00 L 1011.00 1386.00 L 1109.00 1514.00 L 1109.00 1517.00 L 1011.00 1395.00 L 1008.00 1396.00 L 1100.00 1520.00 L 1103.00 1525.00 L 1017.00 1411.00 L 994.00 1383.00 L 1034.00 1441.00 L 1030.00 1438.00 L 982.00 1374.00 L 1003.00 1404.00 L 1093.00 1528.00 L 1136.00 1590.00 L 1132.00 1590.00 L 1086.00 1529.00 L 998.00 1407.00 L 999.00 1410.00 L 1089.00 1538.00 L 1088.00 1537.00 L 996.00 1407.00 L 995.00 1409.00 L 1085.00 1543.00 L 1135.00 1621.00 L 1145.00 1643.00 L 1154.00 1679.00 L 1162.00 1729.00 L 1161.00 1766.00 L 1151.00 1790.00 L 1141.00 1807.00 L 1131.00 1817.00 L 1114.00 1828.00 L 1090.00 1840.00 L 1065.00 1844.00 L 1039.00 1840.00 L 1001.00 1822.00 L 951.00 1790.00 L 907.00 1756.00 L 869.00 1720.00 L 836.00 1693.00 L 808.00 1675.00 L 768.00 1654.00 L 716.00 1630.00 L 665.00 1610.00 L 615.00 1594.00 L 572.00 1583.00 L 536.00 1577.00 L 492.00 1574.00 L 440.00 1574.00 L 394.00 1578.00 L 354.00 1586.00 L 332.00 1588.00 L 328.00 1584.00 L 327.00 1566.00 L 329.00 1534.00 L 341.00 1483.00 L 363.00 1413.00 L 379.00 1336.00 L 389.00 1252.00 L 379.00 1215.00 L 349.00 1225.00 L 350.00 1221.00 L 382.00 1203.00 L 379.00 1203.00 L 341.00 1221.00 L 337.00 1222.00 L 367.00 1206.00 L 365.00 1205.00 L 331.00 1219.00 L 335.00 1216.00 L 377.00 1196.00 L 376.00 1195.00 L 332.00 1213.00 L 333.00 1210.00 L 379.00 1186.00 L 377.00 1183.00 L 327.00 1201.00 L 328.00 1198.00 L 380.00 1174.00 L 379.00 1171.00 L 325.00 1189.00 L 325.00 1187.00 L 379.00 1165.00 L 384.00 1161.00 L 340.00 1175.00 L 338.00 1174.00 L 378.00 1158.00 L 375.00 1158.00 L 329.00 1174.00 L 332.00 1171.00 L 384.00 1149.00 L 391.00 1144.00 L 353.00 1156.00 L 335.00 1160.00 L 337.00 1156.00 L 356.00 1148.00 L 392.00 1136.00 L 392.00 1133.00 L 356.00 1139.00 L 340.00 1133.00 L 344.00 1115.00 L 353.00 1099.00 L 367.00 1085.00 L 374.00 1068.00 L 374.00 1048.00 L 375.00 1036.00 L 377.00 1032.00 L 382.00 1024.00 Z" fill="black" stroke="black" stroke-width="1"/>
</svg>