<?xml version="1.0" encoding="UTF-8"?>
<svg xmlns="http://www.w3.org/2000/svg" viewBox="429.00 169.00 931.00 1618.00">
  <path d="M 503.00 932.00 L 481.00 872.00 L 469.00 816.00 L 467.00 764.00 L 460.00 717.00 L 448.00 675.00 L 441.00 641.00 L 439.00 615.00 L 440.00 586.00 L 444.00 554.00 L 449.00 531.00 L 455.00 517.00 L 459.00 501.00 L 461.00 483.00 L 474.00 449.00 L 498.00 399.00 L 518.00 362.00 L 534.00 338.00 L 552.00 316.00 L 572.00 296.00 L 600.00 273.00 L 636.00 247.00 L 671.00 226.00 L 705.00 210.00 L 745.00 197.00 L 791.00 187.00 L 837.00 181.00 L 883.00 179.00 L 917.00 180.00 L 939.00 184.00 L 978.00 195.00 L 1034.00 213.00 L 1077.00 231.00 L 1107.00 249.00 L 1125.00 261.00 L 1131.00 267.00 L 1136.00 278.00 L 1140.00 294.00 L 1152.00 313.00 L 1172.00 335.00 L 1187.00 357.00 L 1197.00 379.00 L 1208.00 399.00 L 1220.00 417.00 L 1228.00 432.00 L 1232.00 444.00 L 1233.00 457.00 L 1231.00 471.00 L 1232.00 486.00 L 1236.00 502.00 L 1249.00 516.00 L 1271.00 528.00 L 1293.00 546.00 L 1315.00 570.00 L 1334.00 594.00 L 1350.00 618.00 L 1342.00 642.00 L 1310.00 666.00 L 1311.00 667.00 L 1345.00 645.00 L 1343.00 648.00 L 1305.00 676.00 L 1305.00 678.00 L 1343.00 654.00 L 1342.00 656.00 L 1302.00 684.00 L 1300.00 687.00 L 1336.00 665.00 L 1348.00 659.00 L 1336.00 669.00 L 1332.00 673.00 L 1336.00 671.00 L 1324.00 679.00 L 1296.00 697.00 L 1283.00 715.00 L 1285.00 733.00 L 1283.00 746.00 L 1277.00 754.00 L 1275.00 762.00 L 1277.00 770.00 L 1274.00 783.00 L 1266.00 801.00 L 1268.00 819.00 L 1280.00 837.00 L 1287.00 851.00 L 1289.00 861.00 L 1289.00 870.00 L 1287.00 878.00 L 1280.00 890.00 L 1268.00 906.00 L 1253.00 917.00 L 1235.00 923.00 L 1217.00 933.00 L 1199.00 947.00 L 1189.00 956.00 L 1187.00 960.00 L 1190.00 966.00 L 1198.00 974.00 L 1203.00 982.00 L 1205.00 990.00 L 1199.00 1002.00 L 1185.00 1018.00 L 1174.00 1035.00 L 1166.00 1053.00 L 1158.00 1065.00 L 1150.00 1071.00 L 1145.00 1078.00 L 1143.00 1086.00 L 1134.00 1102.00 L 1118.00 1126.00 L 1119.00 1155.00 L 1137.00 1189.00 L 1147.00 1211.00 L 1149.00 1221.00 L 1150.00 1238.00 L 1150.00 1262.00 L 1149.00 1276.00 L 1147.00 1280.00 L 1147.00 1285.00 L 1149.00 1291.00 L 1165.00 1316.00 L 1195.00 1360.00 L 1208.00 1380.00 L 1204.00 1376.00 L 1209.00 1386.00 L 1223.00 1410.00 L 1236.00 1442.00 L 1248.00 1482.00 L 1256.00 1525.00 L 1260.00 1571.00 L 1262.00 1619.00 L 1262.00 1669.00 L 1257.00 1705.00 L 1247.00 1727.00 L 1238.00 1743.00 L 1230.00 1753.00 L 1220.00 1762.00 L 1208.00 1770.00 L 1197.00 1775.00 L 1187.00 1777.00 L 1175.00 1777.00 L 1161.00 1775.00 L 1153.00 1775.00 L 1151.00 1777.00 L 1140.00 1775.00 L 1120.00 1769.00 L 1101.00 1761.00 L 1083.00 1751.00 L 1056.00 1727.00 L 1020.00 1689.00 L 980.00 1651.00 L 936.00 1613.00 L 894.00 1580.00 L 854.00 1552.00 L 817.00 1528.00 L 783.00 1508.00 L 742.00 1486.00 L 694.00 1462.00 L 646.00 1441.00 L 598.00 1423.00 L 555.00 1411.00 L 517.00 1405.00 L 491.00 1405.00 L 477.00 1411.00 L 469.00 1406.00 L 467.00 1390.00 L 469.00 1374.00 L 475.00 1358.00 L 476.00 1341.00 L 472.00 1323.00 L 475.00 1304.00 L 485.00 1284.00 L 491.00 1265.00 L 493.00 1247.00 L 493.00 1236.00 L 491.00 1232.00 L 490.00 1218.00 L 490.00 1194.00 L 495.00 1159.00 L 505.00 1113.00 L 504.00 1091.00 L 492.00 1093.00 L 487.00 1092.00 L 489.00 1088.00 L 495.00 1084.00 L 505.00 1080.00 L 501.00 1080.00 L 483.00 1084.00 L 484.00 1081.00 L 504.00 1071.00 L 503.00 1068.00 L 481.00 1072.00 L 480.00 1070.00 L 500.00 1062.00 L 501.00 1060.00 L 483.00 1064.00 L 475.00 1064.00 L 477.00 1060.00 L 485.00 1056.00 L 499.00 1052.00 L 508.00 1048.00 L 512.00 1044.00 L 506.00 1043.00 L 490.00 1045.00 L 484.00 1042.00 L 488.00 1034.00 L 487.00 1029.00 L 481.00 1027.00 L 482.00 1025.00 L 490.00 1023.00 L 488.00 1020.00 L 476.00 1016.00 L 472.00 1010.00 L 476.00 1002.00 L 485.00 997.00 L 499.00 995.00 L 501.00 994.00 L 491.00 994.00 L 492.00 992.00 L 504.00 988.00 L 511.00 982.00 L 513.00 974.00 L 514.00 968.00 L 514.00 964.00 L 503.00 932.00 Z" fill="black" stroke="black" stroke-width="1"/>
</svg>