<?xml version="1.0" encoding="UTF-8"?>
<svg xmlns="http://www.w3.org/2000/svg" viewBox="276.00 332.00 1006.00 1601.00">
  <path d="M 513.00 1102.00 L 511.00 1086.00 L 486.00 1072.00 L 438.00 1060.00 L 439.00 1057.00 L 489.00 1063.00 L 487.00 1061.00 L 433.00 1051.00 L 432.00 1049.00 L 484.00 1055.00 L 482.00 1053.00 L 426.00 1043.00 L 422.00 1041.00 L 470.00 1047.00 L 467.00 1044.00 L 413.00 1032.00 L 417.00 1031.00 L 479.00 1041.00 L 477.00 1038.00 L 411.00 1022.00 L 410.00 1020.00 L 474.00 1032.00 L 472.00 1030.00 L 404.00 1014.00 L 370.00 1004.00 L 370.00 1000.00 L 406.00 1006.00 L 478.00 1022.00 L 477.00 1020.00 L 403.00 1000.00 L 365.00 987.00 L 363.00 981.00 L 402.00 989.00 L 482.00 1011.00 L 481.00 1008.00 L 399.00 980.00 L 357.00 963.00 L 355.00 957.00 L 398.00 968.00 L 486.00 996.00 L 485.00 993.00 L 395.00 959.00 L 347.00 908.00 L 341.00 840.00 L 323.00 795.00 L 293.00 773.00 L 292.00 770.00 L 320.00 786.00 L 320.00 783.00 L 292.00 761.00 L 289.00 756.00 L 311.00 768.00 L 312.00 765.00 L 292.00 747.00 L 286.00 732.00 L 294.00 720.00 L 306.00 711.00 L 322.00 705.00 L 338.00 707.00 L 354.00 717.00 L 367.00 689.00 L 377.00 623.00 L 395.00 562.00 L 421.00 506.00 L 452.00 460.00 L 488.00 424.00 L 529.00 396.00 L 575.00 376.00 L 625.00 360.00 L 679.00 348.00 L 724.00 342.00 L 760.00 342.00 L 814.00 350.00 L 886.00 366.00 L 950.00 391.00 L 1006.00 425.00 L 1032.00 451.00 L 1028.00 469.00 L 1029.00 470.00 L 1035.00 454.00 L 1037.00 457.00 L 1035.00 479.00 L 1037.00 481.00 L 1043.00 463.00 L 1045.00 465.00 L 1043.00 487.00 L 1045.00 490.00 L 1051.00 474.00 L 1052.00 475.00 L 1048.00 493.00 L 1050.00 496.00 L 1058.00 484.00 L 1060.00 487.00 L 1056.00 505.00 L 1057.00 507.00 L 1063.00 493.00 L 1065.00 495.00 L 1063.00 513.00 L 1065.00 516.00 L 1071.00 504.00 L 1073.00 507.00 L 1071.00 525.00 L 1087.00 558.00 L 1121.00 606.00 L 1143.00 654.00 L 1153.00 702.00 L 1181.00 749.00 L 1227.00 795.00 L 1256.00 828.00 L 1268.00 848.00 L 1272.00 866.00 L 1268.00 882.00 L 1256.00 897.00 L 1236.00 911.00 L 1231.00 933.00 L 1241.00 963.00 L 1242.00 984.00 L 1234.00 996.00 L 1233.00 1009.00 L 1239.00 1023.00 L 1235.00 1039.00 L 1221.00 1057.00 L 1213.00 1090.00 L 1211.00 1138.00 L 1198.00 1173.00 L 1174.00 1195.00 L 1146.00 1208.00 L 1114.00 1212.00 L 1107.00 1219.00 L 1125.00 1229.00 L 1134.00 1244.00 L 1134.00 1264.00 L 1125.00 1294.00 L 1107.00 1334.00 L 1109.00 1368.00 L 1131.00 1396.00 L 1130.00 1399.00 L 1106.00 1377.00 L 1106.00 1380.00 L 1130.00 1408.00 L 1129.00 1410.00 L 1103.00 1386.00 L 1102.00 1388.00 L 1126.00 1416.00 L 1125.00 1419.00 L 1099.00 1397.00 L 1098.00 1400.00 L 1122.00 1428.00 L 1132.00 1444.00 L 1128.00 1448.00 L 1116.00 1439.00 L 1096.00 1417.00 L 1094.00 1417.00 L 1110.00 1439.00 L 1106.00 1440.00 L 1082.00 1420.00 L 1082.00 1426.00 L 1106.00 1458.00 L 1107.00 1461.00 L 1085.00 1435.00 L 1086.00 1438.00 L 1110.00 1470.00 L 1123.00 1494.00 L 1125.00 1510.00 L 1144.00 1546.00 L 1180.00 1602.00 L 1183.00 1609.00 L 1153.00 1567.00 L 1155.00 1570.00 L 1189.00 1618.00 L 1186.00 1614.00 L 1146.00 1558.00 L 1149.00 1564.00 L 1195.00 1632.00 L 1226.00 1684.00 L 1242.00 1720.00 L 1255.00 1760.00 L 1265.00 1804.00 L 1268.00 1835.00 L 1264.00 1853.00 L 1254.00 1874.00 L 1238.00 1898.00 L 1223.00 1914.00 L 1209.00 1922.00 L 1184.00 1923.00 L 1148.00 1917.00 L 1074.00 1871.00 L 962.00 1785.00 L 855.00 1718.00 L 753.00 1670.00 L 666.00 1636.00 L 594.00 1616.00 L 528.00 1606.00 L 468.00 1606.00 L 437.00 1593.00 L 435.00 1567.00 L 438.00 1539.00 L 446.00 1509.00 L 465.00 1465.00 L 495.00 1407.00 L 511.00 1354.00 L 513.00 1306.00 L 511.00 1272.00 L 505.00 1252.00 L 504.00 1211.00 L 508.00 1149.00 L 511.00 1116.00 L 513.00 1112.00 L 513.00 1102.00 Z" fill="black" stroke="black" stroke-width="1"/>
</svg>