<?xml version="1.0" encoding="UTF-8"?>
<svg xmlns="http://www.w3.org/2000/svg" viewBox="405.00 357.00 855.00 1246.00">
  <path d="M 618.00 1017.00 L 618.00 999.00 L 590.00 982.00 L 534.00 966.00 L 533.00 964.00 L 587.00 976.00 L 584.00 975.00 L 524.00 961.00 L 492.00 952.00 L 488.00 948.00 L 512.00 952.00 L 564.00 964.00 L 562.00 962.00 L 506.00 946.00 L 512.00 947.00 L 580.00 965.00 L 576.00 961.00 L 500.00 935.00 L 500.00 933.00 L 576.00 955.00 L 574.00 953.00 L 494.00 927.00 L 493.00 926.00 L 571.00 950.00 L 570.00 949.00 L 490.00 923.00 L 447.00 905.00 L 441.00 895.00 L 433.00 874.00 L 423.00 842.00 L 417.00 810.00 L 415.00 778.00 L 426.00 712.00 L 450.00 612.00 L 470.00 559.00 L 486.00 553.00 L 503.00 526.00 L 521.00 478.00 L 540.00 443.00 L 560.00 421.00 L 601.00 398.00 L 663.00 374.00 L 736.00 367.00 L 820.00 377.00 L 893.00 396.00 L 955.00 424.00 L 991.00 447.00 L 1001.00 465.00 L 1016.00 480.00 L 1036.00 492.00 L 1059.00 517.00 L 1085.00 555.00 L 1102.00 597.00 L 1110.00 643.00 L 1105.00 679.00 L 1087.00 705.00 L 1080.00 716.00 L 1084.00 712.00 L 1084.00 718.00 L 1080.00 734.00 L 1094.00 768.00 L 1126.00 820.00 L 1129.00 857.00 L 1103.00 879.00 L 1098.00 886.00 L 1114.00 878.00 L 1114.00 880.00 L 1098.00 892.00 L 1091.00 916.00 L 1093.00 952.00 L 1089.00 976.00 L 1079.00 988.00 L 1078.00 1006.00 L 1086.00 1030.00 L 1088.00 1047.00 L 1084.00 1057.00 L 1074.00 1069.00 L 1058.00 1083.00 L 1027.00 1099.00 L 981.00 1117.00 L 955.00 1133.00 L 949.00 1147.00 L 1025.00 1247.00 L 1183.00 1433.00 L 1182.00 1434.00 L 1022.00 1250.00 L 1010.00 1237.00 L 1146.00 1395.00 L 1226.00 1489.00 L 1250.00 1519.00 L 1246.00 1516.00 L 1214.00 1480.00 L 1215.00 1483.00 L 1249.00 1525.00 L 1247.00 1524.00 L 1209.00 1480.00 L 1209.00 1481.00 L 1247.00 1527.00 L 1185.00 1454.00 L 1023.00 1262.00 L 1022.00 1264.00 L 1182.00 1460.00 L 1237.00 1529.00 L 1187.00 1471.00 L 1187.00 1474.00 L 1237.00 1538.00 L 1234.00 1537.00 L 1178.00 1471.00 L 1177.00 1474.00 L 1231.00 1546.00 L 1227.00 1544.00 L 1165.00 1468.00 L 1164.00 1470.00 L 1224.00 1550.00 L 1175.00 1486.00 L 1017.00 1278.00 L 1015.00 1281.00 L 1169.00 1495.00 L 1169.00 1497.00 L 1015.00 1287.00 L 1013.00 1290.00 L 1163.00 1506.00 L 1201.00 1562.00 L 1127.00 1458.00 L 1126.00 1460.00 L 1198.00 1568.00 L 1192.00 1564.00 L 1108.00 1448.00 L 1105.00 1451.00 L 1183.00 1573.00 L 1150.00 1523.00 L 1006.00 1301.00 L 1003.00 1303.00 L 1141.00 1529.00 L 1141.00 1531.00 L 1003.00 1309.00 L 1000.00 1312.00 L 1132.00 1540.00 L 1132.00 1542.00 L 1000.00 1318.00 L 997.00 1320.00 L 1123.00 1548.00 L 1138.00 1579.00 L 1042.00 1413.00 L 1037.00 1410.00 L 1123.00 1570.00 L 1107.00 1541.00 L 989.00 1323.00 L 987.00 1322.00 L 1101.00 1538.00 L 1111.00 1560.00 L 1017.00 1388.00 L 1012.00 1385.00 L 1096.00 1551.00 L 1086.00 1532.00 L 982.00 1328.00 L 981.00 1328.00 L 1083.00 1532.00 L 1083.00 1534.00 L 981.00 1334.00 L 976.00 1331.00 L 1068.00 1525.00 L 1069.00 1528.00 L 979.00 1340.00 L 976.00 1338.00 L 1060.00 1522.00 L 1059.00 1593.00 L 973.00 1551.00 L 900.00 1520.00 L 840.00 1500.00 L 765.00 1481.00 L 675.00 1463.00 L 597.00 1454.00 L 531.00 1454.00 L 497.00 1449.00 L 495.00 1439.00 L 503.00 1408.00 L 521.00 1356.00 L 531.00 1315.00 L 533.00 1285.00 L 545.00 1252.00 L 567.00 1216.00 L 576.00 1199.00 L 572.00 1201.00 L 574.00 1189.00 L 582.00 1163.00 L 591.00 1145.00 L 601.00 1135.00 L 609.00 1106.00 L 615.00 1058.00 L 618.00 1032.00 L 618.00 1028.00 L 618.00 1017.00 Z" fill="black" stroke="black" stroke-width="1"/>
</svg>