<?xml version="1.0" encoding="UTF-8"?>
<svg xmlns="http://www.w3.org/2000/svg" viewBox="280.00 313.00 934.00 1643.00">
  <path d="M 489.00 1075.00 L 455.00 1069.00 L 455.00 1066.00 L 489.00 1066.00 L 484.00 1064.00 L 440.00 1060.00 L 436.00 1058.00 L 472.00 1058.00 L 469.00 1055.00 L 427.00 1049.00 L 431.00 1048.00 L 481.00 1052.00 L 479.00 1050.00 L 425.00 1042.00 L 383.00 1008.00 L 353.00 948.00 L 336.00 904.00 L 332.00 876.00 L 326.00 852.00 L 318.00 832.00 L 314.00 807.00 L 314.00 777.00 L 308.00 747.00 L 296.00 717.00 L 290.00 681.00 L 290.00 639.00 L 298.00 595.00 L 314.00 549.00 L 329.00 517.00 L 343.00 499.00 L 353.00 481.00 L 359.00 463.00 L 367.00 453.00 L 377.00 451.00 L 388.00 444.00 L 400.00 432.00 L 410.00 426.00 L 418.00 426.00 L 430.00 417.00 L 446.00 399.00 L 459.00 389.00 L 469.00 387.00 L 483.00 378.00 L 501.00 362.00 L 518.00 354.00 L 534.00 354.00 L 563.00 346.00 L 605.00 330.00 L 642.00 323.00 L 674.00 325.00 L 701.00 331.00 L 723.00 341.00 L 742.00 344.00 L 758.00 340.00 L 775.00 343.00 L 793.00 353.00 L 813.00 360.00 L 835.00 364.00 L 851.00 370.00 L 861.00 378.00 L 878.00 384.00 L 902.00 388.00 L 920.00 395.00 L 932.00 405.00 L 941.00 416.00 L 947.00 428.00 L 967.00 444.00 L 1001.00 464.00 L 1020.00 477.00 L 1024.00 483.00 L 1024.00 494.00 L 1020.00 510.00 L 1021.00 512.00 L 1027.00 500.00 L 1029.00 502.00 L 1027.00 518.00 L 1030.00 522.00 L 1038.00 514.00 L 1039.00 518.00 L 1033.00 534.00 L 1035.00 535.00 L 1045.00 521.00 L 1047.00 524.00 L 1041.00 544.00 L 1043.00 546.00 L 1053.00 530.00 L 1054.00 533.00 L 1046.00 555.00 L 1047.00 557.00 L 1057.00 539.00 L 1057.00 541.00 L 1047.00 563.00 L 1048.00 565.00 L 1060.00 547.00 L 1061.00 549.00 L 1051.00 571.00 L 1052.00 574.00 L 1064.00 558.00 L 1066.00 563.00 L 1058.00 589.00 L 1058.00 595.00 L 1066.00 581.00 L 1067.00 583.00 L 1061.00 601.00 L 1061.00 607.00 L 1067.00 601.00 L 1069.00 602.00 L 1067.00 610.00 L 1068.00 612.00 L 1072.00 608.00 L 1072.00 611.00 L 1068.00 621.00 L 1069.00 623.00 L 1075.00 617.00 L 1076.00 620.00 L 1072.00 632.00 L 1074.00 634.00 L 1082.00 626.00 L 1083.00 630.00 L 1077.00 646.00 L 1079.00 648.00 L 1089.00 636.00 L 1089.00 638.00 L 1079.00 654.00 L 1080.00 656.00 L 1092.00 644.00 L 1093.00 649.00 L 1083.00 671.00 L 1084.00 674.00 L 1096.00 658.00 L 1096.00 660.00 L 1084.00 680.00 L 1084.00 682.00 L 1096.00 666.00 L 1099.00 664.00 L 1093.00 676.00 L 1093.00 679.00 L 1099.00 673.00 L 1097.00 677.00 L 1087.00 691.00 L 1086.00 693.00 L 1094.00 683.00 L 1094.00 690.00 L 1086.00 714.00 L 1102.00 746.00 L 1142.00 786.00 L 1171.00 818.00 L 1189.00 842.00 L 1198.00 857.00 L 1198.00 863.00 L 1186.00 875.00 L 1162.00 893.00 L 1155.00 918.00 L 1165.00 950.00 L 1165.00 969.00 L 1155.00 975.00 L 1152.00 984.00 L 1156.00 996.00 L 1151.00 1010.00 L 1137.00 1026.00 L 1131.00 1047.00 L 1133.00 1073.00 L 1132.00 1091.00 L 1128.00 1101.00 L 1121.00 1110.00 L 1111.00 1118.00 L 1106.00 1125.00 L 1106.00 1131.00 L 1111.00 1138.00 L 1121.00 1146.00 L 1126.00 1152.00 L 1126.00 1156.00 L 1114.00 1182.00 L 1090.00 1230.00 L 1070.00 1280.00 L 1054.00 1332.00 L 1043.00 1362.00 L 1037.00 1370.00 L 1042.00 1391.00 L 1058.00 1425.00 L 1067.00 1456.00 L 1069.00 1484.00 L 1100.00 1547.00 L 1160.00 1645.00 L 1160.00 1648.00 L 1100.00 1556.00 L 1101.00 1558.00 L 1163.00 1654.00 L 1164.00 1657.00 L 1104.00 1567.00 L 1105.00 1572.00 L 1167.00 1672.00 L 1200.00 1738.00 L 1204.00 1770.00 L 1204.00 1803.00 L 1200.00 1837.00 L 1192.00 1867.00 L 1180.00 1893.00 L 1167.00 1912.00 L 1153.00 1924.00 L 1139.00 1934.00 L 1125.00 1942.00 L 1111.00 1946.00 L 1097.00 1946.00 L 1081.00 1943.00 L 1063.00 1937.00 L 1036.00 1921.00 L 1000.00 1895.00 L 965.00 1864.00 L 931.00 1828.00 L 899.00 1799.00 L 869.00 1777.00 L 808.00 1741.00 L 716.00 1691.00 L 643.00 1658.00 L 589.00 1642.00 L 541.00 1631.00 L 499.00 1625.00 L 455.00 1622.00 L 409.00 1622.00 L 383.00 1620.00 L 377.00 1616.00 L 379.00 1597.00 L 389.00 1563.00 L 407.00 1521.00 L 433.00 1471.00 L 449.00 1433.00 L 455.00 1407.00 L 456.00 1377.00 L 452.00 1343.00 L 455.00 1303.00 L 465.00 1257.00 L 472.00 1210.00 L 476.00 1162.00 L 484.00 1129.00 L 496.00 1111.00 L 502.00 1099.00 L 502.00 1093.00 L 503.00 1087.00 L 505.00 1081.00 L 489.00 1075.00 Z" fill="black" stroke="black" stroke-width="1"/>
</svg>