<?xml version="1.0" encoding="UTF-8"?>
<svg xmlns="http://www.w3.org/2000/svg" viewBox="287.00 313.00 877.00 1297.00">
  <path d="M 387.00 960.00 L 365.00 916.00 L 356.00 876.00 L 360.00 840.00 L 351.00 815.00 L 329.00 801.00 L 320.00 795.00 L 324.00 797.00 L 322.00 791.00 L 314.00 777.00 L 338.00 743.00 L 394.00 689.00 L 425.00 635.00 L 431.00 581.00 L 437.00 559.00 L 443.00 569.00 L 444.00 567.00 L 440.00 553.00 L 442.00 550.00 L 450.00 558.00 L 452.00 554.00 L 448.00 538.00 L 451.00 534.00 L 461.00 542.00 L 464.00 538.00 L 460.00 522.00 L 461.00 519.00 L 467.00 529.00 L 468.00 526.00 L 464.00 510.00 L 466.00 507.00 L 474.00 517.00 L 476.00 513.00 L 472.00 495.00 L 474.00 492.00 L 482.00 504.00 L 484.00 499.00 L 480.00 477.00 L 482.00 473.00 L 490.00 487.00 L 491.00 486.00 L 485.00 470.00 L 486.00 469.00 L 494.00 483.00 L 495.00 482.00 L 489.00 466.00 L 498.00 445.00 L 522.00 419.00 L 577.00 386.00 L 663.00 346.00 L 712.00 328.00 L 724.00 332.00 L 755.00 331.00 L 805.00 325.00 L 853.00 323.00 L 899.00 325.00 L 942.00 333.00 L 982.00 347.00 L 1028.00 379.00 L 1080.00 429.00 L 1118.00 480.00 L 1142.00 532.00 L 1154.00 602.00 L 1154.00 690.00 L 1144.00 758.00 L 1124.00 806.00 L 1091.00 862.00 L 1045.00 926.00 L 1030.00 990.00 L 1046.00 1054.00 L 1054.00 1088.00 L 1054.00 1092.00 L 1045.00 1093.00 L 1027.00 1091.00 L 1027.00 1093.00 L 1045.00 1099.00 L 1042.00 1100.00 L 1018.00 1096.00 L 1017.00 1098.00 L 1039.00 1106.00 L 1040.00 1108.00 L 1020.00 1104.00 L 1020.00 1106.00 L 1040.00 1114.00 L 1040.00 1116.00 L 1020.00 1112.00 L 1019.00 1115.00 L 1037.00 1125.00 L 1038.00 1128.00 L 1022.00 1124.00 L 1021.00 1126.00 L 1035.00 1134.00 L 1035.00 1136.00 L 1021.00 1132.00 L 1018.00 1151.00 L 1026.00 1193.00 L 1029.00 1228.00 L 1027.00 1256.00 L 1028.00 1280.00 L 1032.00 1300.00 L 1039.00 1317.00 L 1049.00 1331.00 L 1056.00 1354.00 L 1060.00 1386.00 L 1060.00 1415.00 L 1056.00 1441.00 L 1050.00 1458.00 L 1042.00 1466.00 L 1028.00 1475.00 L 1008.00 1485.00 L 963.00 1485.00 L 893.00 1475.00 L 825.00 1471.00 L 759.00 1473.00 L 686.00 1483.00 L 606.00 1501.00 L 512.00 1531.00 L 404.00 1573.00 L 342.00 1596.00 L 326.00 1600.00 L 311.00 1600.00 L 297.00 1596.00 L 343.00 1512.00 L 449.00 1348.00 L 447.00 1346.00 L 337.00 1506.00 L 339.00 1501.00 L 453.00 1331.00 L 451.00 1328.00 L 333.00 1492.00 L 332.00 1491.00 L 448.00 1325.00 L 447.00 1322.00 L 329.00 1482.00 L 318.00 1496.00 L 414.00 1364.00 L 414.00 1363.00 L 318.00 1493.00 L 316.00 1494.00 L 408.00 1366.00 L 408.00 1363.00 L 316.00 1485.00 L 306.00 1497.00 L 378.00 1399.00 L 378.00 1397.00 L 306.00 1491.00 L 327.00 1463.00 L 441.00 1313.00 L 442.00 1310.00 L 330.00 1454.00 L 327.00 1457.00 L 433.00 1319.00 L 450.00 1295.00 L 378.00 1385.00 L 376.00 1386.00 L 444.00 1298.00 L 445.00 1295.00 L 379.00 1377.00 L 377.00 1378.00 L 439.00 1298.00 L 458.00 1265.00 L 434.00 1279.00 L 436.00 1270.00 L 464.00 1238.00 L 462.00 1239.00 L 430.00 1273.00 L 429.00 1273.00 L 459.00 1239.00 L 456.00 1239.00 L 420.00 1273.00 L 424.00 1267.00 L 468.00 1221.00 L 466.00 1221.00 L 418.00 1267.00 L 417.00 1266.00 L 463.00 1218.00 L 461.00 1218.00 L 411.00 1266.00 L 411.00 1264.00 L 461.00 1212.00 L 458.00 1211.00 L 402.00 1261.00 L 400.00 1258.00 L 452.00 1202.00 L 470.00 1180.00 L 454.00 1192.00 L 453.00 1189.00 L 467.00 1171.00 L 467.00 1155.00 L 453.00 1141.00 L 445.00 1129.00 L 443.00 1119.00 L 450.00 1108.00 L 466.00 1096.00 L 456.00 1081.00 L 420.00 1063.00 L 399.00 1049.00 L 393.00 1039.00 L 391.00 1024.00 L 393.00 1004.00 L 395.00 991.00 L 397.00 985.00 L 387.00 960.00 Z" fill="black" stroke="black" stroke-width="1"/>
</svg>