<?xml version="1.0" encoding="UTF-8"?>
<svg xmlns="http://www.w3.org/2000/svg" viewBox="313.00 156.00 1001.00 1650.00">
  <path d="M 463.00 983.00 L 465.00 965.00 L 472.00 950.00 L 484.00 938.00 L 490.00 929.00 L 490.00 923.00 L 484.00 917.00 L 472.00 911.00 L 471.00 909.00 L 481.00 911.00 L 476.00 908.00 L 456.00 900.00 L 455.00 898.00 L 473.00 902.00 L 471.00 899.00 L 449.00 889.00 L 435.00 877.00 L 429.00 863.00 L 417.00 846.00 L 399.00 826.00 L 387.00 808.00 L 381.00 792.00 L 378.00 767.00 L 378.00 733.00 L 370.00 689.00 L 354.00 635.00 L 344.00 591.00 L 340.00 557.00 L 341.00 516.00 L 347.00 468.00 L 364.00 411.00 L 392.00 345.00 L 415.00 301.00 L 433.00 279.00 L 459.00 255.00 L 493.00 229.00 L 525.00 209.00 L 555.00 195.00 L 599.00 182.00 L 657.00 170.00 L 727.00 166.00 L 809.00 170.00 L 875.00 183.00 L 925.00 205.00 L 953.00 221.00 L 959.00 231.00 L 977.00 246.00 L 1007.00 266.00 L 1033.00 288.00 L 1055.00 312.00 L 1073.00 340.00 L 1087.00 372.00 L 1104.00 403.00 L 1124.00 433.00 L 1133.00 459.00 L 1131.00 481.00 L 1135.00 501.00 L 1145.00 519.00 L 1165.00 539.00 L 1195.00 561.00 L 1227.00 588.00 L 1261.00 620.00 L 1261.00 651.00 L 1227.00 681.00 L 1228.00 683.00 L 1264.00 657.00 L 1266.00 657.00 L 1234.00 683.00 L 1215.00 699.00 L 1209.00 705.00 L 1225.00 694.00 L 1263.00 666.00 L 1261.00 670.00 L 1219.00 706.00 L 1219.00 709.00 L 1261.00 679.00 L 1272.00 672.00 L 1252.00 688.00 L 1252.00 690.00 L 1272.00 678.00 L 1274.00 678.00 L 1258.00 690.00 L 1256.00 692.00 L 1268.00 684.00 L 1255.00 694.00 L 1217.00 722.00 L 1215.00 725.00 L 1249.00 703.00 L 1249.00 706.00 L 1215.00 734.00 L 1199.00 757.00 L 1201.00 775.00 L 1193.00 796.00 L 1175.00 820.00 L 1168.00 842.00 L 1172.00 862.00 L 1178.00 879.00 L 1186.00 893.00 L 1188.00 910.00 L 1184.00 930.00 L 1176.00 946.00 L 1164.00 958.00 L 1135.00 973.00 L 1089.00 991.00 L 1081.00 1003.00 L 1111.00 1009.00 L 1131.00 1019.00 L 1141.00 1033.00 L 1134.00 1072.00 L 1110.00 1136.00 L 1098.00 1170.00 L 1098.00 1174.00 L 1106.00 1183.00 L 1122.00 1197.00 L 1121.00 1199.00 L 1103.00 1189.00 L 1119.00 1203.00 L 1169.00 1241.00 L 1170.00 1243.00 L 1122.00 1209.00 L 1121.00 1211.00 L 1167.00 1249.00 L 1166.00 1250.00 L 1118.00 1214.00 L 1117.00 1215.00 L 1163.00 1253.00 L 1171.00 1261.00 L 1141.00 1239.00 L 1138.00 1239.00 L 1162.00 1261.00 L 1159.00 1262.00 L 1129.00 1242.00 L 1122.00 1240.00 L 1138.00 1256.00 L 1140.00 1265.00 L 1128.00 1267.00 L 1115.00 1262.00 L 1101.00 1250.00 L 1104.00 1257.00 L 1124.00 1283.00 L 1137.00 1307.00 L 1143.00 1329.00 L 1161.00 1360.00 L 1191.00 1400.00 L 1191.00 1403.00 L 1161.00 1369.00 L 1168.00 1379.00 L 1212.00 1433.00 L 1216.00 1439.00 L 1180.00 1397.00 L 1181.00 1399.00 L 1219.00 1445.00 L 1253.00 1502.00 L 1283.00 1570.00 L 1300.00 1621.00 L 1304.00 1655.00 L 1302.00 1685.00 L 1294.00 1711.00 L 1283.00 1734.00 L 1269.00 1754.00 L 1255.00 1770.00 L 1241.00 1782.00 L 1225.00 1790.00 L 1207.00 1794.00 L 1189.00 1796.00 L 1171.00 1796.00 L 1151.00 1792.00 L 1129.00 1784.00 L 1095.00 1768.00 L 1049.00 1744.00 L 1004.00 1714.00 L 960.00 1678.00 L 906.00 1640.00 L 842.00 1600.00 L 783.00 1567.00 L 729.00 1541.00 L 676.00 1519.00 L 624.00 1501.00 L 561.00 1486.00 L 487.00 1474.00 L 419.00 1469.00 L 357.00 1471.00 L 325.00 1470.00 L 323.00 1466.00 L 325.00 1455.00 L 331.00 1437.00 L 340.00 1419.00 L 352.00 1401.00 L 364.00 1373.00 L 376.00 1335.00 L 388.00 1308.00 L 400.00 1292.00 L 412.00 1270.00 L 424.00 1242.00 L 425.00 1221.00 L 415.00 1207.00 L 409.00 1192.00 L 407.00 1176.00 L 414.00 1150.00 L 430.00 1114.00 L 443.00 1074.00 L 453.00 1030.00 L 459.00 1004.00 L 461.00 996.00 L 463.00 983.00 Z" fill="black" stroke="black" stroke-width="1"/>
</svg>