<?xml version="1.0" encoding="UTF-8"?>
<svg xmlns="http://www.w3.org/2000/svg" viewBox="350.00 297.00 983.00 1378.00">
  <path d="M 513.00 917.00 L 487.00 875.00 L 470.00 833.00 L 462.00 791.00 L 443.00 761.00 L 413.00 743.00 L 413.00 740.00 L 443.00 752.00 L 437.00 747.00 L 395.00 725.00 L 395.00 723.00 L 437.00 741.00 L 435.00 738.00 L 389.00 714.00 L 390.00 712.00 L 438.00 732.00 L 437.00 730.00 L 387.00 706.00 L 387.00 704.00 L 437.00 724.00 L 435.00 718.00 L 381.00 686.00 L 381.00 683.00 L 435.00 709.00 L 435.00 706.00 L 381.00 674.00 L 382.00 672.00 L 438.00 700.00 L 438.00 695.00 L 382.00 657.00 L 360.00 607.00 L 372.00 545.00 L 385.00 508.00 L 399.00 496.00 L 417.00 489.00 L 439.00 487.00 L 449.00 467.00 L 447.00 429.00 L 453.00 396.00 L 467.00 368.00 L 492.00 349.00 L 528.00 339.00 L 556.00 344.00 L 576.00 364.00 L 584.00 370.00 L 580.00 362.00 L 581.00 359.00 L 587.00 361.00 L 593.00 353.00 L 599.00 335.00 L 612.00 332.00 L 632.00 344.00 L 660.00 340.00 L 696.00 320.00 L 741.00 309.00 L 795.00 307.00 L 827.00 321.00 L 837.00 351.00 L 842.00 353.00 L 842.00 327.00 L 843.00 329.00 L 845.00 359.00 L 848.00 362.00 L 852.00 338.00 L 856.00 337.00 L 860.00 359.00 L 882.00 370.00 L 922.00 370.00 L 969.00 383.00 L 1023.00 409.00 L 1062.00 431.00 L 1086.00 449.00 L 1096.00 469.00 L 1092.00 491.00 L 1095.00 493.00 L 1105.00 475.00 L 1107.00 480.00 L 1101.00 508.00 L 1104.00 511.00 L 1116.00 489.00 L 1117.00 492.00 L 1107.00 520.00 L 1109.00 523.00 L 1123.00 501.00 L 1125.00 503.00 L 1115.00 529.00 L 1117.00 533.00 L 1131.00 515.00 L 1132.00 518.00 L 1120.00 542.00 L 1121.00 545.00 L 1135.00 527.00 L 1136.00 529.00 L 1124.00 551.00 L 1124.00 553.00 L 1136.00 535.00 L 1138.00 540.00 L 1130.00 568.00 L 1131.00 576.00 L 1141.00 564.00 L 1141.00 566.00 L 1131.00 582.00 L 1132.00 583.00 L 1144.00 569.00 L 1145.00 572.00 L 1135.00 592.00 L 1137.00 594.00 L 1151.00 578.00 L 1152.00 581.00 L 1140.00 603.00 L 1142.00 606.00 L 1158.00 590.00 L 1159.00 592.00 L 1145.00 612.00 L 1146.00 614.00 L 1162.00 598.00 L 1162.00 600.00 L 1146.00 620.00 L 1147.00 622.00 L 1165.00 606.00 L 1166.00 610.00 L 1150.00 634.00 L 1150.00 639.00 L 1166.00 625.00 L 1166.00 628.00 L 1150.00 648.00 L 1150.00 650.00 L 1166.00 634.00 L 1165.00 638.00 L 1147.00 662.00 L 1145.00 667.00 L 1159.00 653.00 L 1159.00 657.00 L 1145.00 679.00 L 1144.00 688.00 L 1156.00 684.00 L 1157.00 687.00 L 1147.00 697.00 L 1149.00 696.00 L 1163.00 684.00 L 1164.00 687.00 L 1152.00 705.00 L 1170.00 735.00 L 1218.00 777.00 L 1244.00 805.00 L 1248.00 819.00 L 1237.00 833.00 L 1211.00 847.00 L 1202.00 869.00 L 1210.00 899.00 L 1210.00 918.00 L 1202.00 926.00 L 1196.00 959.00 L 1192.00 1017.00 L 1163.00 1069.00 L 1109.00 1115.00 L 1078.00 1153.00 L 1070.00 1183.00 L 1128.00 1289.00 L 1252.00 1471.00 L 1252.00 1474.00 L 1128.00 1298.00 L 1130.00 1301.00 L 1258.00 1483.00 L 1317.00 1567.00 L 1307.00 1553.00 L 1309.00 1557.00 L 1323.00 1579.00 L 1320.00 1576.00 L 1300.00 1548.00 L 1301.00 1551.00 L 1323.00 1585.00 L 1318.00 1581.00 L 1286.00 1539.00 L 1287.00 1543.00 L 1321.00 1593.00 L 1318.00 1590.00 L 1278.00 1534.00 L 1279.00 1539.00 L 1321.00 1605.00 L 1272.00 1534.00 L 1132.00 1326.00 L 1132.00 1334.00 L 1272.00 1558.00 L 1271.00 1560.00 L 1129.00 1340.00 L 1128.00 1343.00 L 1268.00 1569.00 L 1268.00 1571.00 L 1128.00 1349.00 L 1125.00 1354.00 L 1259.00 1586.00 L 1258.00 1589.00 L 1122.00 1363.00 L 1119.00 1368.00 L 1249.00 1604.00 L 1249.00 1606.00 L 1119.00 1374.00 L 1116.00 1376.00 L 1240.00 1612.00 L 1240.00 1617.00 L 1116.00 1391.00 L 1111.00 1388.00 L 1225.00 1608.00 L 1225.00 1611.00 L 1111.00 1397.00 L 1104.00 1391.00 L 1204.00 1593.00 L 1215.00 1665.00 L 1137.00 1607.00 L 1059.00 1558.00 L 981.00 1518.00 L 901.00 1487.00 L 819.00 1465.00 L 728.00 1453.00 L 628.00 1451.00 L 590.00 1400.00 L 614.00 1300.00 L 638.00 1234.00 L 662.00 1202.00 L 662.00 1200.00 L 638.00 1228.00 L 651.00 1204.00 L 701.00 1128.00 L 719.00 1095.00 L 705.00 1105.00 L 706.00 1102.00 L 722.00 1086.00 L 731.00 1069.00 L 733.00 1051.00 L 733.00 1033.00 L 731.00 1015.00 L 704.00 1004.00 L 652.00 1000.00 L 604.00 986.00 L 560.00 962.00 L 535.00 947.00 L 529.00 941.00 L 513.00 917.00 Z" fill="black" stroke="black" stroke-width="1"/>
</svg>