<?xml version="1.0" encoding="UTF-8"?>
<svg xmlns="http://www.w3.org/2000/svg" viewBox="283.00 327.00 774.00 1420.00">
  <path d="M 497.00 990.00 L 511.00 990.00 L 515.00 989.00 L 509.00 987.00 L 509.00 985.00 L 515.00 983.00 L 508.00 981.00 L 488.00 979.00 L 474.00 970.00 L 466.00 954.00 L 435.00 922.00 L 381.00 874.00 L 341.00 826.00 L 315.00 778.00 L 299.00 732.00 L 293.00 688.00 L 293.00 644.00 L 299.00 600.00 L 310.00 560.00 L 326.00 524.00 L 348.00 485.00 L 376.00 443.00 L 405.00 411.00 L 435.00 389.00 L 480.00 368.00 L 540.00 348.00 L 581.00 340.00 L 603.00 344.00 L 627.00 343.00 L 653.00 337.00 L 694.00 342.00 L 750.00 358.00 L 794.00 374.00 L 826.00 390.00 L 852.00 412.00 L 872.00 440.00 L 891.00 460.00 L 909.00 472.00 L 929.00 498.00 L 951.00 538.00 L 960.00 564.00 L 956.00 576.00 L 957.00 579.00 L 963.00 573.00 L 963.00 576.00 L 957.00 588.00 L 957.00 591.00 L 963.00 585.00 L 965.00 590.00 L 963.00 606.00 L 965.00 610.00 L 971.00 602.00 L 971.00 604.00 L 965.00 616.00 L 966.00 618.00 L 974.00 610.00 L 975.00 611.00 L 969.00 621.00 L 970.00 623.00 L 978.00 617.00 L 979.00 620.00 L 973.00 632.00 L 974.00 633.00 L 982.00 623.00 L 982.00 625.00 L 974.00 639.00 L 975.00 641.00 L 985.00 631.00 L 986.00 635.00 L 978.00 653.00 L 979.00 656.00 L 989.00 644.00 L 989.00 647.00 L 979.00 665.00 L 980.00 668.00 L 992.00 656.00 L 993.00 658.00 L 983.00 674.00 L 983.00 676.00 L 993.00 664.00 L 990.00 683.00 L 974.00 733.00 L 980.00 783.00 L 1008.00 833.00 L 1029.00 865.00 L 1043.00 879.00 L 1047.00 893.00 L 1041.00 907.00 L 1028.00 917.00 L 1008.00 923.00 L 1003.00 925.00 L 1013.00 923.00 L 1014.00 925.00 L 1006.00 931.00 L 1004.00 947.00 L 1008.00 973.00 L 1006.00 988.00 L 998.00 992.00 L 996.00 999.00 L 1000.00 1009.00 L 998.00 1020.00 L 990.00 1032.00 L 989.00 1046.00 L 995.00 1062.00 L 995.00 1077.00 L 989.00 1091.00 L 955.00 1108.00 L 893.00 1128.00 L 856.00 1141.00 L 844.00 1147.00 L 834.00 1157.00 L 826.00 1171.00 L 869.00 1278.00 L 963.00 1478.00 L 962.00 1482.00 L 866.00 1290.00 L 866.00 1292.00 L 962.00 1488.00 L 992.00 1551.00 L 956.00 1481.00 L 956.00 1485.00 L 992.00 1563.00 L 989.00 1560.00 L 947.00 1476.00 L 947.00 1481.00 L 989.00 1575.00 L 961.00 1517.00 L 863.00 1307.00 L 863.00 1309.00 L 961.00 1523.00 L 984.00 1576.00 L 932.00 1468.00 L 931.00 1471.00 L 981.00 1585.00 L 980.00 1584.00 L 928.00 1468.00 L 928.00 1470.00 L 980.00 1590.00 L 977.00 1587.00 L 919.00 1461.00 L 918.00 1464.00 L 974.00 1596.00 L 954.00 1550.00 L 858.00 1326.00 L 857.00 1329.00 L 951.00 1559.00 L 964.00 1594.00 L 896.00 1434.00 L 894.00 1436.00 L 958.00 1600.00 L 956.00 1598.00 L 888.00 1430.00 L 887.00 1432.00 L 953.00 1604.00 L 941.00 1574.00 L 851.00 1342.00 L 850.00 1343.00 L 938.00 1577.00 L 947.00 1604.00 L 877.00 1424.00 L 873.00 1428.00 L 935.00 1616.00 L 925.00 1592.00 L 843.00 1356.00 L 842.00 1357.00 L 922.00 1595.00 L 927.00 1615.00 L 857.00 1417.00 L 854.00 1419.00 L 918.00 1621.00 L 912.00 1603.00 L 836.00 1365.00 L 834.00 1367.00 L 906.00 1609.00 L 906.00 1614.00 L 834.00 1382.00 L 832.00 1383.00 L 900.00 1617.00 L 932.00 1735.00 L 928.00 1737.00 L 893.00 1622.00 L 827.00 1390.00 L 825.00 1392.00 L 887.00 1628.00 L 887.00 1631.00 L 825.00 1401.00 L 823.00 1402.00 L 881.00 1634.00 L 881.00 1637.00 L 823.00 1411.00 L 821.00 1412.00 L 875.00 1640.00 L 871.00 1710.00 L 809.00 1622.00 L 751.00 1551.00 L 697.00 1497.00 L 632.00 1448.00 L 556.00 1404.00 L 476.00 1370.00 L 392.00 1346.00 L 356.00 1314.00 L 368.00 1274.00 L 381.00 1240.00 L 395.00 1212.00 L 411.00 1189.00 L 429.00 1171.00 L 434.00 1164.00 L 426.00 1168.00 L 429.00 1158.00 L 443.00 1134.00 L 464.00 1115.00 L 492.00 1101.00 L 493.00 1098.00 L 467.00 1106.00 L 468.00 1103.00 L 496.00 1089.00 L 512.00 1062.00 L 516.00 1022.00 L 513.00 1000.00 L 503.00 996.00 L 496.00 993.00 L 492.00 991.00 L 497.00 990.00 Z" fill="black" stroke="black" stroke-width="1"/>
</svg>