<?xml version="1.0" encoding="UTF-8"?>
<svg xmlns="http://www.w3.org/2000/svg" viewBox="209.00 212.00 1362.00 1569.00">
  <path d="M 223.00 886.00 L 233.00 742.00 L 256.00 627.00 L 292.00 541.00 L 349.00 457.00 L 427.00 375.00 L 494.00 318.00 L 550.00 286.00 L 605.00 261.00 L 659.00 243.00 L 748.00 230.00 L 872.00 222.00 L 960.00 223.00 L 1012.00 233.00 L 1077.00 252.00 L 1155.00 280.00 L 1227.00 315.00 L 1293.00 357.00 L 1257.00 459.00 L 1119.00 621.00 L 1122.00 623.00 L 1266.00 465.00 L 1266.00 467.00 L 1122.00 629.00 L 1124.00 631.00 L 1272.00 473.00 L 1270.00 476.00 L 1118.00 640.00 L 1121.00 642.00 L 1279.00 482.00 L 1281.00 482.00 L 1127.00 642.00 L 1129.00 644.00 L 1287.00 488.00 L 1290.00 487.00 L 1138.00 641.00 L 1141.00 643.00 L 1299.00 493.00 L 1298.00 497.00 L 1138.00 655.00 L 1141.00 657.00 L 1307.00 503.00 L 1307.00 505.00 L 1141.00 663.00 L 1143.00 665.00 L 1313.00 511.00 L 1317.00 509.00 L 1155.00 659.00 L 1160.00 664.00 L 1332.00 524.00 L 1330.00 530.00 L 1154.00 682.00 L 1157.00 685.00 L 1339.00 539.00 L 1342.00 539.00 L 1166.00 685.00 L 1169.00 687.00 L 1351.00 545.00 L 1349.00 548.00 L 1163.00 696.00 L 1165.00 698.00 L 1355.00 554.00 L 1360.00 551.00 L 1180.00 689.00 L 1183.00 692.00 L 1369.00 560.00 L 1407.00 536.00 L 1297.00 620.00 L 1300.00 623.00 L 1416.00 545.00 L 1375.00 576.00 L 1177.00 716.00 L 1179.00 718.00 L 1381.00 582.00 L 1430.00 550.00 L 1326.00 622.00 L 1329.00 625.00 L 1439.00 559.00 L 1445.00 559.00 L 1347.00 625.00 L 1349.00 627.00 L 1451.00 565.00 L 1398.00 600.00 L 1190.00 732.00 L 1195.00 737.00 L 1413.00 615.00 L 1413.00 618.00 L 1195.00 746.00 L 1197.00 748.00 L 1419.00 624.00 L 1493.00 584.00 L 1419.00 628.00 L 1421.00 631.00 L 1499.00 593.00 L 1425.00 636.00 L 1199.00 760.00 L 1201.00 762.00 L 1431.00 642.00 L 1516.00 598.00 L 1456.00 630.00 L 1457.00 633.00 L 1519.00 607.00 L 1529.00 606.00 L 1487.00 630.00 L 1370.00 690.00 L 1178.00 786.00 L 1182.00 786.00 L 1382.00 690.00 L 1502.00 634.00 L 1542.00 618.00 L 1546.00 618.00 L 1514.00 634.00 L 1515.00 637.00 L 1549.00 627.00 L 1558.00 626.00 L 1542.00 634.00 L 1543.00 637.00 L 1561.00 635.00 L 1449.00 688.00 L 1207.00 796.00 L 1105.00 884.00 L 1143.00 952.00 L 1149.00 994.00 L 1123.00 1010.00 L 1113.00 1027.00 L 1119.00 1045.00 L 1115.00 1070.00 L 1101.00 1102.00 L 1099.00 1126.00 L 1109.00 1142.00 L 1114.00 1165.00 L 1114.00 1195.00 L 1104.00 1226.00 L 1084.00 1258.00 L 1071.00 1291.00 L 1065.00 1325.00 L 1097.00 1415.00 L 1167.00 1561.00 L 1203.00 1658.00 L 1205.00 1706.00 L 1193.00 1741.00 L 1167.00 1763.00 L 1134.00 1771.00 L 1094.00 1765.00 L 1022.00 1726.00 L 918.00 1654.00 L 841.00 1607.00 L 791.00 1585.00 L 706.00 1566.00 L 586.00 1550.00 L 535.00 1519.00 L 553.00 1473.00 L 560.00 1453.00 L 556.00 1459.00 L 567.00 1408.00 L 593.00 1300.00 L 605.00 1235.00 L 603.00 1213.00 L 533.00 1280.00 L 395.00 1436.00 L 341.00 1493.00 L 371.00 1451.00 L 368.00 1449.00 L 332.00 1487.00 L 386.00 1427.00 L 530.00 1269.00 L 529.00 1265.00 L 383.00 1415.00 L 383.00 1412.00 L 529.00 1256.00 L 528.00 1251.00 L 380.00 1397.00 L 380.00 1395.00 L 528.00 1245.00 L 527.00 1242.00 L 377.00 1386.00 L 378.00 1383.00 L 530.00 1233.00 L 529.00 1229.00 L 375.00 1371.00 L 347.00 1394.00 L 445.00 1298.00 L 444.00 1295.00 L 344.00 1385.00 L 372.00 1359.00 L 528.00 1217.00 L 527.00 1213.00 L 369.00 1347.00 L 347.00 1363.00 L 461.00 1261.00 L 460.00 1258.00 L 344.00 1354.00 L 366.00 1334.00 L 526.00 1198.00 L 526.00 1195.00 L 366.00 1325.00 L 350.00 1336.00 L 478.00 1228.00 L 477.00 1225.00 L 347.00 1327.00 L 349.00 1324.00 L 483.00 1216.00 L 482.00 1212.00 L 346.00 1312.00 L 359.00 1300.00 L 521.00 1176.00 L 520.00 1172.00 L 356.00 1288.00 L 348.00 1291.00 L 496.00 1181.00 L 495.00 1175.00 L 345.00 1273.00 L 353.00 1266.00 L 519.00 1154.00 L 518.00 1150.00 L 350.00 1254.00 L 346.00 1255.00 L 506.00 1153.00 L 505.00 1148.00 L 343.00 1240.00 L 347.00 1236.00 L 517.00 1136.00 L 517.00 1133.00 L 347.00 1227.00 L 261.00 1271.00 L 259.00 1265.00 L 344.00 1215.00 L 516.00 1121.00 L 515.00 1117.00 L 341.00 1203.00 L 246.00 1177.00 L 230.00 1039.00 L 221.00 967.00 L 219.00 961.00 L 223.00 886.00 Z" fill="black" stroke="black" stroke-width="1"/>
</svg>