<?xml version="1.0" encoding="UTF-8"?>
<svg xmlns="http://www.w3.org/2000/svg" viewBox="413.00 353.00 690.00 1286.00">
  <path d="M 523.00 961.00 L 525.00 951.00 L 531.00 938.00 L 541.00 922.00 L 546.00 912.00 L 546.00 908.00 L 523.00 866.00 L 477.00 786.00 L 450.00 736.00 L 442.00 716.00 L 435.00 692.00 L 429.00 664.00 L 425.00 633.00 L 423.00 599.00 L 429.00 561.00 L 443.00 519.00 L 466.00 480.00 L 498.00 444.00 L 538.00 413.00 L 586.00 387.00 L 616.00 373.00 L 628.00 371.00 L 636.00 371.00 L 640.00 373.00 L 651.00 371.00 L 669.00 365.00 L 695.00 363.00 L 729.00 365.00 L 753.00 369.00 L 767.00 375.00 L 779.00 378.00 L 789.00 378.00 L 803.00 383.00 L 821.00 393.00 L 840.00 401.00 L 860.00 407.00 L 874.00 415.00 L 882.00 425.00 L 895.00 435.00 L 913.00 445.00 L 927.00 457.00 L 937.00 471.00 L 952.00 487.00 L 972.00 505.00 L 983.00 516.00 L 985.00 520.00 L 985.00 528.00 L 983.00 540.00 L 983.00 547.00 L 985.00 549.00 L 988.00 546.00 L 992.00 538.00 L 993.00 538.00 L 991.00 546.00 L 992.00 547.00 L 996.00 541.00 L 996.00 543.00 L 992.00 553.00 L 993.00 554.00 L 999.00 546.00 L 1000.00 547.00 L 996.00 557.00 L 997.00 558.00 L 1003.00 550.00 L 1004.00 552.00 L 1000.00 564.00 L 1001.00 565.00 L 1007.00 555.00 L 1009.00 554.00 L 1007.00 562.00 L 1008.00 563.00 L 1012.00 557.00 L 1011.00 560.00 L 1005.00 572.00 L 1006.00 574.00 L 1014.00 566.00 L 1015.00 569.00 L 1009.00 583.00 L 1010.00 585.00 L 1018.00 575.00 L 1019.00 578.00 L 1013.00 594.00 L 1014.00 596.00 L 1022.00 584.00 L 1023.00 583.00 L 1017.00 593.00 L 1017.00 595.00 L 1023.00 589.00 L 1023.00 591.00 L 1017.00 601.00 L 1017.00 603.00 L 1023.00 597.00 L 1024.00 599.00 L 1020.00 609.00 L 1020.00 611.00 L 1024.00 605.00 L 1025.00 608.00 L 1023.00 620.00 L 1023.00 645.00 L 1025.00 683.00 L 1029.00 708.00 L 1035.00 720.00 L 1052.00 745.00 L 1080.00 783.00 L 1093.00 809.00 L 1091.00 823.00 L 1082.00 836.00 L 1066.00 848.00 L 1057.00 865.00 L 1055.00 887.00 L 1051.00 903.00 L 1045.00 913.00 L 1044.00 921.00 L 1048.00 927.00 L 1045.00 938.00 L 1035.00 954.00 L 1033.00 972.00 L 1039.00 992.00 L 1041.00 1007.00 L 1039.00 1017.00 L 1036.00 1027.00 L 1032.00 1037.00 L 1026.00 1046.00 L 1018.00 1054.00 L 1015.00 1060.00 L 1017.00 1064.00 L 1008.00 1085.00 L 988.00 1123.00 L 977.00 1148.00 L 975.00 1160.00 L 972.00 1168.00 L 968.00 1172.00 L 970.00 1186.00 L 978.00 1210.00 L 982.00 1233.00 L 982.00 1255.00 L 992.00 1282.00 L 1012.00 1314.00 L 1012.00 1315.00 L 992.00 1285.00 L 996.00 1293.00 L 1024.00 1339.00 L 1036.00 1359.00 L 1032.00 1353.00 L 1034.00 1358.00 L 1042.00 1374.00 L 1048.00 1393.00 L 1052.00 1415.00 L 1062.00 1446.00 L 1078.00 1486.00 L 1085.00 1505.00 L 1083.00 1503.00 L 1084.00 1509.00 L 1088.00 1523.00 L 1089.00 1537.00 L 1087.00 1551.00 L 1083.00 1565.00 L 1077.00 1579.00 L 1069.00 1593.00 L 1059.00 1607.00 L 1046.00 1618.00 L 1030.00 1626.00 L 1012.00 1629.00 L 992.00 1627.00 L 975.00 1621.00 L 961.00 1611.00 L 920.00 1572.00 L 852.00 1504.00 L 798.00 1456.00 L 758.00 1428.00 L 718.00 1404.00 L 678.00 1384.00 L 635.00 1366.00 L 589.00 1350.00 L 546.00 1340.00 L 506.00 1336.00 L 485.00 1333.00 L 483.00 1331.00 L 481.00 1331.00 L 479.00 1333.00 L 477.00 1333.00 L 475.00 1331.00 L 473.00 1331.00 L 471.00 1333.00 L 468.00 1333.00 L 464.00 1331.00 L 455.00 1331.00 L 441.00 1333.00 L 433.00 1329.00 L 431.00 1319.00 L 438.00 1294.00 L 454.00 1254.00 L 465.00 1215.00 L 471.00 1177.00 L 481.00 1142.00 L 495.00 1110.00 L 501.00 1086.00 L 499.00 1070.00 L 503.00 1040.00 L 513.00 996.00 L 519.00 972.00 L 521.00 968.00 L 523.00 961.00 Z" fill="black" stroke="black" stroke-width="1"/>
</svg>