<?xml version="1.0" encoding="UTF-8"?>
<svg xmlns="http://www.w3.org/2000/svg" viewBox="458.00 370.00 706.00 1342.00">
  <path d="M 572.00 1035.00 L 576.00 1029.00 L 574.00 1022.00 L 566.00 1014.00 L 560.00 1000.00 L 556.00 980.00 L 539.00 944.00 L 509.00 892.00 L 487.00 836.00 L 473.00 776.00 L 468.00 710.00 L 472.00 638.00 L 480.00 586.00 L 492.00 554.00 L 506.00 526.00 L 522.00 502.00 L 541.00 479.00 L 563.00 457.00 L 587.00 437.00 L 613.00 419.00 L 641.00 404.00 L 671.00 392.00 L 701.00 384.00 L 731.00 380.00 L 782.00 383.00 L 854.00 393.00 L 913.00 409.00 L 959.00 431.00 L 996.00 455.00 L 1024.00 481.00 L 1055.00 515.00 L 1089.00 557.00 L 1105.00 587.00 L 1103.00 605.00 L 1105.00 610.00 L 1111.00 602.00 L 1111.00 604.00 L 1105.00 616.00 L 1106.00 617.00 L 1114.00 607.00 L 1115.00 610.00 L 1109.00 626.00 L 1110.00 628.00 L 1118.00 616.00 L 1120.00 616.00 L 1116.00 628.00 L 1117.00 630.00 L 1123.00 622.00 L 1122.00 625.00 L 1114.00 639.00 L 1115.00 640.00 L 1125.00 628.00 L 1126.00 631.00 L 1118.00 649.00 L 1119.00 651.00 L 1129.00 637.00 L 1129.00 638.00 L 1119.00 654.00 L 1120.00 656.00 L 1132.00 644.00 L 1133.00 646.00 L 1123.00 662.00 L 1123.00 664.00 L 1133.00 652.00 L 1134.00 654.00 L 1126.00 670.00 L 1127.00 674.00 L 1137.00 666.00 L 1137.00 670.00 L 1127.00 686.00 L 1127.00 689.00 L 1137.00 679.00 L 1137.00 683.00 L 1127.00 701.00 L 1128.00 703.00 L 1140.00 689.00 L 1140.00 692.00 L 1128.00 712.00 L 1128.00 717.00 L 1140.00 707.00 L 1141.00 710.00 L 1131.00 726.00 L 1123.00 751.00 L 1117.00 785.00 L 1116.00 813.00 L 1120.00 835.00 L 1131.00 860.00 L 1149.00 888.00 L 1147.00 908.00 L 1125.00 920.00 L 1124.00 922.00 L 1144.00 914.00 L 1154.00 912.00 L 1154.00 916.00 L 1144.00 923.00 L 1124.00 933.00 L 1120.00 936.00 L 1132.00 932.00 L 1133.00 935.00 L 1123.00 945.00 L 1121.00 956.00 L 1127.00 968.00 L 1125.00 978.00 L 1115.00 986.00 L 1112.00 990.00 L 1116.00 990.00 L 1116.00 992.00 L 1112.00 996.00 L 1112.00 1002.00 L 1116.00 1010.00 L 1113.00 1024.00 L 1103.00 1044.00 L 1099.00 1069.00 L 1101.00 1099.00 L 1096.00 1121.00 L 1084.00 1135.00 L 1071.00 1145.00 L 1057.00 1151.00 L 1056.00 1160.00 L 1068.00 1172.00 L 1069.00 1187.00 L 1059.00 1205.00 L 1060.00 1224.00 L 1072.00 1244.00 L 1070.00 1247.00 L 1054.00 1233.00 L 1054.00 1236.00 L 1070.00 1256.00 L 1069.00 1257.00 L 1051.00 1239.00 L 1051.00 1240.00 L 1069.00 1260.00 L 1068.00 1261.00 L 1048.00 1243.00 L 1046.00 1244.00 L 1062.00 1264.00 L 1061.00 1265.00 L 1043.00 1247.00 L 1058.00 1270.00 L 1106.00 1334.00 L 1105.00 1336.00 L 1055.00 1276.00 L 1051.00 1272.00 L 1093.00 1324.00 L 1093.00 1326.00 L 1051.00 1278.00 L 1052.00 1284.00 L 1096.00 1344.00 L 1095.00 1345.00 L 1049.00 1287.00 L 1047.00 1287.00 L 1089.00 1345.00 L 1092.00 1351.00 L 1056.00 1305.00 L 1053.00 1304.00 L 1083.00 1348.00 L 1088.00 1357.00 L 1068.00 1331.00 L 1060.00 1321.00 L 1064.00 1327.00 L 1064.00 1329.00 L 1060.00 1327.00 L 1055.00 1330.00 L 1049.00 1338.00 L 1048.00 1348.00 L 1052.00 1360.00 L 1050.00 1360.00 L 1042.00 1348.00 L 1043.00 1351.00 L 1053.00 1369.00 L 1051.00 1367.00 L 1037.00 1345.00 L 1038.00 1349.00 L 1054.00 1379.00 L 1052.00 1377.00 L 1032.00 1343.00 L 1044.00 1367.00 L 1088.00 1449.00 L 1103.00 1478.00 L 1089.00 1454.00 L 1090.00 1457.00 L 1106.00 1487.00 L 1101.00 1479.00 L 1075.00 1433.00 L 1077.00 1440.00 L 1107.00 1500.00 L 1125.00 1556.00 L 1131.00 1608.00 L 1126.00 1648.00 L 1110.00 1676.00 L 1096.00 1693.00 L 1084.00 1699.00 L 1073.00 1702.00 L 1063.00 1702.00 L 1047.00 1697.00 L 1025.00 1687.00 L 979.00 1653.00 L 909.00 1595.00 L 860.00 1557.00 L 832.00 1539.00 L 800.00 1522.00 L 764.00 1506.00 L 716.00 1492.00 L 656.00 1480.00 L 601.00 1477.00 L 551.00 1483.00 L 524.00 1484.00 L 520.00 1480.00 L 518.00 1453.00 L 518.00 1403.00 L 523.00 1363.00 L 533.00 1333.00 L 542.00 1296.00 L 550.00 1252.00 L 552.00 1212.00 L 548.00 1176.00 L 547.00 1140.00 L 549.00 1104.00 L 553.00 1075.00 L 559.00 1053.00 L 564.00 1041.00 L 568.00 1039.00 L 572.00 1035.00 Z" fill="black" stroke="black" stroke-width="1"/>
</svg>