<?xml version="1.0" encoding="UTF-8"?>
<svg xmlns="http://www.w3.org/2000/svg" viewBox="385.00 224.00 910.00 1615.00">
  <path d="M 590.00 999.00 L 582.00 993.00 L 582.00 990.00 L 590.00 990.00 L 589.00 988.00 L 579.00 984.00 L 573.00 970.00 L 571.00 946.00 L 565.00 924.00 L 555.00 904.00 L 522.00 856.00 L 466.00 780.00 L 427.00 714.00 L 405.00 658.00 L 395.00 598.00 L 397.00 534.00 L 411.00 474.00 L 437.00 418.00 L 462.00 375.00 L 486.00 345.00 L 515.00 318.00 L 549.00 294.00 L 597.00 270.00 L 659.00 246.00 L 711.00 234.00 L 753.00 234.00 L 794.00 238.00 L 834.00 246.00 L 870.00 259.00 L 902.00 277.00 L 929.00 288.00 L 951.00 292.00 L 991.00 307.00 L 1049.00 333.00 L 1086.00 355.00 L 1102.00 373.00 L 1114.00 392.00 L 1122.00 412.00 L 1125.00 431.00 L 1123.00 449.00 L 1125.00 451.00 L 1131.00 437.00 L 1132.00 441.00 L 1128.00 463.00 L 1131.00 465.00 L 1141.00 447.00 L 1142.00 449.00 L 1134.00 471.00 L 1136.00 473.00 L 1148.00 455.00 L 1150.00 460.00 L 1142.00 488.00 L 1144.00 491.00 L 1156.00 469.00 L 1156.00 471.00 L 1144.00 497.00 L 1145.00 498.00 L 1159.00 474.00 L 1160.00 477.00 L 1148.00 507.00 L 1150.00 510.00 L 1166.00 486.00 L 1167.00 490.00 L 1153.00 522.00 L 1154.00 525.00 L 1170.00 499.00 L 1171.00 501.00 L 1157.00 531.00 L 1157.00 536.00 L 1171.00 516.00 L 1172.00 519.00 L 1160.00 545.00 L 1160.00 548.00 L 1172.00 528.00 L 1173.00 530.00 L 1163.00 554.00 L 1163.00 559.00 L 1173.00 545.00 L 1174.00 547.00 L 1166.00 565.00 L 1169.00 587.00 L 1183.00 613.00 L 1190.00 635.00 L 1190.00 653.00 L 1214.00 704.00 L 1262.00 788.00 L 1285.00 834.00 L 1283.00 842.00 L 1266.00 854.00 L 1234.00 870.00 L 1231.00 873.00 L 1257.00 863.00 L 1256.00 866.00 L 1228.00 882.00 L 1215.00 901.00 L 1217.00 923.00 L 1212.00 941.00 L 1200.00 955.00 L 1197.00 966.00 L 1203.00 974.00 L 1199.00 989.00 L 1185.00 1011.00 L 1182.00 1030.00 L 1190.00 1046.00 L 1194.00 1062.00 L 1194.00 1078.00 L 1189.00 1099.00 L 1179.00 1125.00 L 1169.00 1142.00 L 1159.00 1150.00 L 1140.00 1157.00 L 1112.00 1163.00 L 1100.00 1171.00 L 1104.00 1181.00 L 1101.00 1182.00 L 1091.00 1174.00 L 1090.00 1177.00 L 1098.00 1191.00 L 1092.00 1211.00 L 1072.00 1237.00 L 1061.00 1254.00 L 1059.00 1262.00 L 1077.00 1300.00 L 1115.00 1368.00 L 1113.00 1371.00 L 1071.00 1309.00 L 1070.00 1311.00 L 1110.00 1377.00 L 1123.00 1404.00 L 1109.00 1392.00 L 1088.00 1362.00 L 1060.00 1314.00 L 1063.00 1320.00 L 1097.00 1380.00 L 1097.00 1383.00 L 1063.00 1329.00 L 1084.00 1380.00 L 1160.00 1536.00 L 1160.00 1541.00 L 1084.00 1395.00 L 1088.00 1406.00 L 1172.00 1574.00 L 1174.00 1580.00 L 1094.00 1424.00 L 1096.00 1432.00 L 1180.00 1604.00 L 1180.00 1606.00 L 1096.00 1438.00 L 1097.00 1441.00 L 1183.00 1615.00 L 1179.00 1607.00 L 1085.00 1417.00 L 1086.00 1422.00 L 1182.00 1622.00 L 1184.00 1628.00 L 1092.00 1440.00 L 1092.00 1443.00 L 1184.00 1637.00 L 1190.00 1652.00 L 1110.00 1488.00 L 1109.00 1494.00 L 1187.00 1670.00 L 1179.00 1656.00 L 1085.00 1452.00 L 1084.00 1456.00 L 1176.00 1668.00 L 1175.00 1668.00 L 1081.00 1456.00 L 1081.00 1458.00 L 1175.00 1674.00 L 1213.00 1794.00 L 1195.00 1818.00 L 1169.00 1829.00 L 1135.00 1827.00 L 1101.00 1818.00 L 1067.00 1802.00 L 1007.00 1750.00 L 921.00 1662.00 L 847.00 1598.00 L 785.00 1558.00 L 719.00 1524.00 L 649.00 1496.00 L 578.00 1478.00 L 506.00 1470.00 L 470.00 1457.00 L 470.00 1439.00 L 480.00 1410.00 L 500.00 1370.00 L 516.00 1329.00 L 528.00 1287.00 L 533.00 1253.00 L 531.00 1227.00 L 537.00 1181.00 L 551.00 1115.00 L 567.00 1064.00 L 585.00 1028.00 L 594.00 1008.00 L 594.00 1004.00 L 590.00 999.00 Z" fill="black" stroke="black" stroke-width="1"/>
</svg>