<?xml version="1.0" encoding="UTF-8"?>
<svg xmlns="http://www.w3.org/2000/svg" viewBox="240.00 394.00 851.00 1389.00">
  <path d="M 403.00 1029.00 L 373.00 971.00 L 351.00 919.00 L 337.00 873.00 L 317.00 823.00 L 291.00 769.00 L 278.00 712.00 L 278.00 652.00 L 272.00 613.00 L 260.00 595.00 L 260.00 592.00 L 272.00 604.00 L 270.00 601.00 L 254.00 583.00 L 253.00 579.00 L 267.00 589.00 L 267.00 586.00 L 253.00 570.00 L 255.00 572.00 L 273.00 592.00 L 273.00 589.00 L 255.00 563.00 L 250.00 542.00 L 258.00 526.00 L 267.00 513.00 L 277.00 503.00 L 289.00 498.00 L 303.00 498.00 L 314.00 503.00 L 322.00 513.00 L 325.00 516.00 L 323.00 512.00 L 351.00 492.00 L 409.00 456.00 L 473.00 429.00 L 543.00 411.00 L 602.00 404.00 L 650.00 408.00 L 711.00 421.00 L 785.00 443.00 L 841.00 466.00 L 879.00 490.00 L 896.00 509.00 L 892.00 523.00 L 893.00 524.00 L 899.00 512.00 L 901.00 514.00 L 899.00 530.00 L 901.00 531.00 L 907.00 517.00 L 908.00 518.00 L 904.00 534.00 L 906.00 536.00 L 914.00 524.00 L 915.00 525.00 L 909.00 539.00 L 908.00 549.00 L 912.00 555.00 L 918.00 551.00 L 926.00 537.00 L 927.00 538.00 L 921.00 554.00 L 922.00 555.00 L 930.00 541.00 L 931.00 542.00 L 925.00 558.00 L 927.00 560.00 L 937.00 548.00 L 939.00 551.00 L 933.00 569.00 L 934.00 571.00 L 942.00 557.00 L 943.00 559.00 L 937.00 577.00 L 954.00 618.00 L 994.00 682.00 L 1009.00 726.00 L 999.00 750.00 L 1016.00 789.00 L 1060.00 843.00 L 1081.00 875.00 L 1079.00 885.00 L 1069.00 900.00 L 1051.00 920.00 L 1046.00 955.00 L 1054.00 1005.00 L 1051.00 1040.00 L 1037.00 1060.00 L 1024.00 1095.00 L 1012.00 1145.00 L 995.00 1178.00 L 973.00 1194.00 L 946.00 1202.00 L 914.00 1202.00 L 897.00 1214.00 L 895.00 1238.00 L 886.00 1260.00 L 870.00 1280.00 L 865.00 1299.00 L 871.00 1317.00 L 871.00 1322.00 L 865.00 1314.00 L 876.00 1330.00 L 904.00 1370.00 L 902.00 1368.00 L 870.00 1324.00 L 871.00 1326.00 L 905.00 1374.00 L 919.00 1394.00 L 913.00 1386.00 L 914.00 1388.00 L 922.00 1400.00 L 908.00 1382.00 L 872.00 1334.00 L 872.00 1339.00 L 908.00 1397.00 L 908.00 1400.00 L 872.00 1348.00 L 885.00 1369.00 L 947.00 1463.00 L 948.00 1465.00 L 888.00 1375.00 L 887.00 1376.00 L 945.00 1468.00 L 963.00 1498.00 L 941.00 1466.00 L 941.00 1468.00 L 963.00 1504.00 L 963.00 1506.00 L 941.00 1474.00 L 940.00 1476.00 L 960.00 1512.00 L 965.00 1533.00 L 955.00 1539.00 L 961.00 1566.00 L 983.00 1614.00 L 982.00 1616.00 L 958.00 1572.00 L 963.00 1582.00 L 997.00 1646.00 L 998.00 1649.00 L 966.00 1591.00 L 969.00 1599.00 L 1007.00 1673.00 L 1007.00 1676.00 L 969.00 1608.00 L 969.00 1610.00 L 1007.00 1682.00 L 1010.00 1688.00 L 978.00 1628.00 L 978.00 1630.00 L 1010.00 1694.00 L 1020.00 1739.00 L 1008.00 1765.00 L 986.00 1773.00 L 954.00 1763.00 L 913.00 1734.00 L 863.00 1686.00 L 797.00 1639.00 L 715.00 1593.00 L 617.00 1556.00 L 503.00 1528.00 L 404.00 1514.00 L 320.00 1514.00 L 286.00 1491.00 L 302.00 1445.00 L 339.00 1374.00 L 397.00 1278.00 L 431.00 1210.00 L 441.00 1170.00 L 436.00 1152.00 L 416.00 1156.00 L 417.00 1153.00 L 439.00 1143.00 L 437.00 1141.00 L 411.00 1147.00 L 412.00 1144.00 L 440.00 1132.00 L 441.00 1129.00 L 415.00 1135.00 L 415.00 1132.00 L 441.00 1120.00 L 445.00 1115.00 L 427.00 1117.00 L 427.00 1116.00 L 445.00 1112.00 L 445.00 1110.00 L 427.00 1110.00 L 427.00 1108.00 L 445.00 1104.00 L 444.00 1101.00 L 424.00 1099.00 L 415.00 1091.00 L 417.00 1077.00 L 418.00 1067.00 L 418.00 1061.00 L 403.00 1029.00 Z" fill="black" stroke="black" stroke-width="1"/>
</svg>