<?xml version="1.0" encoding="UTF-8"?>
<svg xmlns="http://www.w3.org/2000/svg" viewBox="349.00 258.00 966.00 1572.00">
  <path d="M 564.00 1059.00 L 560.00 1029.00 L 541.00 1004.00 L 507.00 984.00 L 486.00 966.00 L 478.00 950.00 L 480.00 928.00 L 492.00 900.00 L 492.00 872.00 L 480.00 844.00 L 477.00 822.00 L 483.00 806.00 L 474.00 789.00 L 450.00 771.00 L 450.00 769.00 L 474.00 783.00 L 472.00 775.00 L 444.00 745.00 L 451.00 703.00 L 493.00 649.00 L 510.00 609.00 L 502.00 583.00 L 504.00 577.00 L 516.00 591.00 L 518.00 589.00 L 510.00 571.00 L 526.00 517.00 L 566.00 427.00 L 618.00 358.00 L 682.00 310.00 L 746.00 281.00 L 810.00 271.00 L 885.00 268.00 L 971.00 272.00 L 1048.00 291.00 L 1116.00 325.00 L 1173.00 375.00 L 1219.00 441.00 L 1252.00 510.00 L 1272.00 582.00 L 1279.00 720.00 L 1273.00 924.00 L 1254.00 1030.00 L 1222.00 1038.00 L 1224.00 1041.00 L 1260.00 1039.00 L 1260.00 1040.00 L 1224.00 1044.00 L 1225.00 1045.00 L 1263.00 1043.00 L 1264.00 1045.00 L 1228.00 1051.00 L 1231.00 1053.00 L 1273.00 1051.00 L 1273.00 1052.00 L 1231.00 1056.00 L 1232.00 1059.00 L 1276.00 1061.00 L 1276.00 1064.00 L 1232.00 1068.00 L 1233.00 1071.00 L 1279.00 1073.00 L 1281.00 1075.00 L 1239.00 1077.00 L 1241.00 1082.00 L 1287.00 1090.00 L 1286.00 1093.00 L 1238.00 1091.00 L 1239.00 1093.00 L 1289.00 1099.00 L 1290.00 1102.00 L 1242.00 1102.00 L 1242.00 1106.00 L 1290.00 1114.00 L 1290.00 1118.00 L 1242.00 1118.00 L 1241.00 1121.00 L 1287.00 1127.00 L 1288.00 1130.00 L 1244.00 1130.00 L 1244.00 1134.00 L 1288.00 1142.00 L 1291.00 1143.00 L 1253.00 1137.00 L 1253.00 1140.00 L 1291.00 1152.00 L 1288.00 1154.00 L 1244.00 1146.00 L 1244.00 1149.00 L 1288.00 1163.00 L 1289.00 1166.00 L 1247.00 1158.00 L 1247.00 1160.00 L 1289.00 1172.00 L 1289.00 1175.00 L 1247.00 1169.00 L 1248.00 1172.00 L 1292.00 1184.00 L 1297.00 1186.00 L 1263.00 1178.00 L 1262.00 1181.00 L 1294.00 1195.00 L 1289.00 1196.00 L 1247.00 1184.00 L 1242.00 1183.00 L 1274.00 1193.00 L 1280.00 1195.00 L 1260.00 1189.00 L 1260.00 1192.00 L 1280.00 1204.00 L 1272.00 1206.00 L 1236.00 1198.00 L 1236.00 1201.00 L 1272.00 1215.00 L 1271.00 1218.00 L 1233.00 1210.00 L 1233.00 1214.00 L 1271.00 1230.00 L 1271.00 1233.00 L 1233.00 1223.00 L 1234.00 1228.00 L 1274.00 1248.00 L 1275.00 1251.00 L 1237.00 1237.00 L 1237.00 1240.00 L 1275.00 1260.00 L 1277.00 1264.00 L 1243.00 1252.00 L 1243.00 1256.00 L 1277.00 1276.00 L 1278.00 1279.00 L 1246.00 1265.00 L 1246.00 1268.00 L 1278.00 1288.00 L 1279.00 1292.00 L 1249.00 1280.00 L 1249.00 1283.00 L 1279.00 1301.00 L 1280.00 1304.00 L 1252.00 1292.00 L 1253.00 1296.00 L 1283.00 1316.00 L 1284.00 1319.00 L 1256.00 1305.00 L 1256.00 1308.00 L 1284.00 1328.00 L 1285.00 1330.00 L 1259.00 1314.00 L 1259.00 1317.00 L 1285.00 1339.00 L 1288.00 1345.00 L 1268.00 1335.00 L 1270.00 1341.00 L 1294.00 1363.00 L 1297.00 1369.00 L 1279.00 1359.00 L 1281.00 1364.00 L 1303.00 1384.00 L 1305.00 1389.00 L 1287.00 1379.00 L 1287.00 1381.00 L 1305.00 1395.00 L 1305.00 1398.00 L 1287.00 1390.00 L 1285.00 1394.00 L 1299.00 1410.00 L 1300.00 1414.00 L 1288.00 1406.00 L 1286.00 1409.00 L 1294.00 1423.00 L 1295.00 1428.00 L 1289.00 1424.00 L 1281.00 1427.00 L 1271.00 1437.00 L 1242.00 1434.00 L 1194.00 1418.00 L 1147.00 1409.00 L 1101.00 1407.00 L 1027.00 1421.00 L 925.00 1451.00 L 835.00 1490.00 L 757.00 1538.00 L 653.00 1625.00 L 523.00 1751.00 L 443.00 1816.00 L 413.00 1820.00 L 392.00 1818.00 L 380.00 1810.00 L 369.00 1793.00 L 359.00 1767.00 L 359.00 1727.00 L 369.00 1673.00 L 420.00 1586.00 L 512.00 1466.00 L 562.00 1390.00 L 570.00 1358.00 L 583.00 1329.00 L 601.00 1303.00 L 601.00 1293.00 L 583.00 1299.00 L 582.00 1295.00 L 598.00 1281.00 L 597.00 1279.00 L 579.00 1289.00 L 580.00 1279.00 L 600.00 1249.00 L 602.00 1238.00 L 586.00 1246.00 L 588.00 1244.00 L 608.00 1232.00 L 609.00 1229.00 L 591.00 1235.00 L 589.00 1231.00 L 603.00 1217.00 L 597.00 1209.00 L 571.00 1207.00 L 570.00 1201.00 L 594.00 1191.00 L 596.00 1187.00 L 576.00 1189.00 L 574.00 1184.00 L 590.00 1172.00 L 591.00 1157.00 L 577.00 1139.00 L 574.00 1125.00 L 582.00 1115.00 L 583.00 1104.00 L 577.00 1092.00 L 572.00 1083.00 L 568.00 1077.00 L 564.00 1059.00 Z" fill="black" stroke="black" stroke-width="1"/>
</svg>