<?xml version="1.0" encoding="UTF-8"?>
<svg xmlns="http://www.w3.org/2000/svg" viewBox="298.00 278.00 731.00 1396.00">
  <path d="M 328.00 885.00 L 324.00 755.00 L 326.00 648.00 L 334.00 564.00 L 346.00 496.00 L 362.00 444.00 L 382.00 402.00 L 406.00 370.00 L 438.00 342.00 L 478.00 318.00 L 539.00 300.00 L 621.00 288.00 L 696.00 291.00 L 764.00 309.00 L 817.00 331.00 L 855.00 357.00 L 887.00 385.00 L 913.00 415.00 L 927.00 440.00 L 929.00 460.00 L 933.00 467.00 L 939.00 461.00 L 940.00 464.00 L 936.00 476.00 L 938.00 479.00 L 946.00 473.00 L 948.00 477.00 L 944.00 491.00 L 946.00 494.00 L 954.00 486.00 L 955.00 489.00 L 949.00 503.00 L 951.00 506.00 L 961.00 498.00 L 963.00 500.00 L 957.00 512.00 L 957.00 514.00 L 963.00 506.00 L 963.00 509.00 L 957.00 523.00 L 958.00 525.00 L 966.00 515.00 L 966.00 517.00 L 958.00 531.00 L 958.00 534.00 L 966.00 526.00 L 966.00 529.00 L 958.00 543.00 L 958.00 545.00 L 966.00 535.00 L 966.00 538.00 L 958.00 554.00 L 957.00 559.00 L 963.00 553.00 L 963.00 556.00 L 957.00 568.00 L 957.00 571.00 L 963.00 565.00 L 966.00 595.00 L 966.00 661.00 L 983.00 721.00 L 1017.00 775.00 L 1019.00 815.00 L 989.00 841.00 L 978.00 862.00 L 986.00 878.00 L 983.00 903.00 L 969.00 937.00 L 965.00 962.00 L 971.00 978.00 L 971.00 994.00 L 965.00 1010.00 L 940.00 1027.00 L 896.00 1045.00 L 877.00 1061.00 L 883.00 1075.00 L 871.00 1109.00 L 841.00 1163.00 L 839.00 1212.00 L 865.00 1256.00 L 863.00 1258.00 L 833.00 1218.00 L 834.00 1220.00 L 866.00 1264.00 L 869.00 1269.00 L 843.00 1235.00 L 844.00 1238.00 L 872.00 1278.00 L 869.00 1275.00 L 835.00 1229.00 L 854.00 1269.00 L 926.00 1395.00 L 964.00 1482.00 L 968.00 1530.00 L 961.00 1576.00 L 943.00 1620.00 L 921.00 1648.00 L 895.00 1660.00 L 872.00 1664.00 L 852.00 1660.00 L 792.00 1605.00 L 692.00 1499.00 L 622.00 1431.00 L 582.00 1401.00 L 530.00 1370.00 L 466.00 1338.00 L 400.00 1318.00 L 332.00 1310.00 L 308.00 1283.00 L 328.00 1237.00 L 332.00 1219.00 L 320.00 1229.00 L 321.00 1227.00 L 335.00 1213.00 L 336.00 1210.00 L 324.00 1218.00 L 325.00 1215.00 L 339.00 1201.00 L 339.00 1198.00 L 325.00 1206.00 L 326.00 1203.00 L 342.00 1189.00 L 342.00 1187.00 L 326.00 1197.00 L 330.00 1190.00 L 354.00 1166.00 L 355.00 1162.00 L 333.00 1178.00 L 335.00 1173.00 L 361.00 1147.00 L 362.00 1142.00 L 338.00 1158.00 L 339.00 1156.00 L 365.00 1136.00 L 365.00 1133.00 L 339.00 1147.00 L 339.00 1145.00 L 365.00 1127.00 L 366.00 1124.00 L 342.00 1136.00 L 343.00 1133.00 L 369.00 1115.00 L 369.00 1112.00 L 343.00 1124.00 L 345.00 1119.00 L 375.00 1097.00 L 375.00 1094.00 L 345.00 1110.00 L 347.00 1107.00 L 381.00 1085.00 L 382.00 1081.00 L 350.00 1095.00 L 349.00 1093.00 L 379.00 1075.00 L 379.00 1072.00 L 349.00 1084.00 L 348.00 1080.00 L 376.00 1060.00 L 377.00 1055.00 L 351.00 1065.00 L 351.00 1063.00 L 377.00 1049.00 L 377.00 1046.00 L 351.00 1054.00 L 352.00 1051.00 L 380.00 1037.00 L 380.00 1034.00 L 352.00 1042.00 L 352.00 1041.00 L 380.00 1031.00 L 378.00 1029.00 L 346.00 1035.00 L 346.00 1033.00 L 378.00 1023.00 L 375.00 1023.00 L 337.00 1033.00 L 334.00 1031.00 L 366.00 1017.00 L 367.00 1013.00 L 337.00 1019.00 L 340.00 1016.00 L 376.00 1004.00 L 375.00 1000.00 L 337.00 1004.00 L 337.00 1002.00 L 375.00 994.00 L 372.00 991.00 L 328.00 993.00 L 328.00 991.00 L 372.00 985.00 L 373.00 983.00 L 331.00 985.00 L 331.00 982.00 L 373.00 974.00 L 377.00 967.00 L 343.00 961.00 L 343.00 957.00 L 377.00 955.00 L 378.00 953.00 L 346.00 951.00 L 328.00 885.00 Z" fill="black" stroke="black" stroke-width="1"/>
</svg>