<?xml version="1.0" encoding="UTF-8"?>
<svg xmlns="http://www.w3.org/2000/svg" viewBox="368.00 284.00 819.00 1398.00">
  <path d="M 556.00 952.00 L 544.00 948.00 L 544.00 946.00 L 556.00 946.00 L 554.00 944.00 L 538.00 940.00 L 536.00 938.00 L 548.00 938.00 L 547.00 937.00 L 533.00 935.00 L 521.00 925.00 L 511.00 907.00 L 493.00 883.00 L 467.00 853.00 L 449.00 823.00 L 439.00 793.00 L 426.00 763.00 L 410.00 733.00 L 396.00 697.00 L 384.00 655.00 L 378.00 618.00 L 378.00 586.00 L 383.00 550.00 L 393.00 510.00 L 401.00 482.00 L 407.00 466.00 L 423.00 438.00 L 449.00 398.00 L 473.00 369.00 L 495.00 351.00 L 514.00 338.00 L 530.00 330.00 L 552.00 322.00 L 580.00 314.00 L 602.00 310.00 L 618.00 310.00 L 641.00 306.00 L 671.00 298.00 L 694.00 294.00 L 710.00 294.00 L 726.00 296.00 L 742.00 300.00 L 758.00 301.00 L 774.00 299.00 L 795.00 299.00 L 821.00 301.00 L 861.00 310.00 L 915.00 326.00 L 953.00 339.00 L 975.00 349.00 L 995.00 360.00 L 1013.00 372.00 L 1027.00 383.00 L 1037.00 393.00 L 1041.00 402.00 L 1039.00 410.00 L 1040.00 411.00 L 1044.00 405.00 L 1045.00 408.00 L 1043.00 420.00 L 1044.00 422.00 L 1048.00 414.00 L 1049.00 415.00 L 1047.00 425.00 L 1048.00 427.00 L 1052.00 421.00 L 1054.00 424.00 L 1054.00 436.00 L 1058.00 449.00 L 1066.00 463.00 L 1071.00 469.00 L 1073.00 467.00 L 1078.00 490.00 L 1086.00 538.00 L 1090.00 579.00 L 1090.00 613.00 L 1101.00 646.00 L 1123.00 678.00 L 1144.00 704.00 L 1164.00 724.00 L 1175.00 737.00 L 1177.00 743.00 L 1176.00 752.00 L 1172.00 764.00 L 1162.00 778.00 L 1146.00 794.00 L 1141.00 815.00 L 1147.00 841.00 L 1145.00 860.00 L 1135.00 872.00 L 1133.00 883.00 L 1139.00 893.00 L 1136.00 907.00 L 1124.00 925.00 L 1115.00 949.00 L 1109.00 979.00 L 1104.00 998.00 L 1100.00 1006.00 L 1094.00 1014.00 L 1086.00 1022.00 L 1076.00 1028.00 L 1064.00 1032.00 L 1051.00 1034.00 L 1037.00 1034.00 L 1031.00 1035.00 L 1033.00 1037.00 L 1021.00 1037.00 L 995.00 1035.00 L 986.00 1037.00 L 994.00 1043.00 L 999.00 1049.00 L 1001.00 1055.00 L 998.00 1062.00 L 990.00 1070.00 L 982.00 1083.00 L 974.00 1101.00 L 978.00 1121.00 L 994.00 1143.00 L 994.00 1146.00 L 978.00 1130.00 L 978.00 1133.00 L 994.00 1155.00 L 993.00 1157.00 L 975.00 1139.00 L 968.00 1133.00 L 972.00 1139.00 L 971.00 1141.00 L 965.00 1139.00 L 981.00 1167.00 L 1019.00 1225.00 L 1022.00 1234.00 L 990.00 1194.00 L 984.00 1188.00 L 1004.00 1216.00 L 1002.00 1215.00 L 978.00 1185.00 L 982.00 1192.00 L 1014.00 1236.00 L 1015.00 1238.00 L 985.00 1198.00 L 982.00 1197.00 L 1006.00 1235.00 L 1003.00 1233.00 L 973.00 1191.00 L 970.00 1190.00 L 994.00 1230.00 L 1003.00 1248.00 L 997.00 1244.00 L 990.00 1236.00 L 982.00 1224.00 L 981.00 1223.00 L 987.00 1233.00 L 986.00 1232.00 L 978.00 1220.00 L 979.00 1226.00 L 989.00 1250.00 L 1015.00 1300.00 L 1057.00 1376.00 L 1057.00 1379.00 L 1015.00 1309.00 L 1017.00 1315.00 L 1063.00 1397.00 L 1063.00 1398.00 L 1017.00 1318.00 L 1019.00 1324.00 L 1069.00 1416.00 L 1069.00 1419.00 L 1019.00 1333.00 L 1019.00 1336.00 L 1069.00 1428.00 L 1070.00 1431.00 L 1022.00 1345.00 L 1022.00 1347.00 L 1070.00 1437.00 L 1097.00 1491.00 L 1103.00 1509.00 L 1107.00 1523.00 L 1109.00 1533.00 L 1109.00 1555.00 L 1107.00 1589.00 L 1105.00 1611.00 L 1103.00 1621.00 L 1097.00 1634.00 L 1087.00 1650.00 L 1079.00 1660.00 L 1073.00 1664.00 L 1062.00 1668.00 L 1046.00 1672.00 L 1030.00 1671.00 L 1014.00 1665.00 L 995.00 1655.00 L 973.00 1641.00 L 940.00 1610.00 L 896.00 1562.00 L 863.00 1528.00 L 841.00 1508.00 L 817.00 1488.00 L 791.00 1468.00 L 755.00 1444.00 L 709.00 1416.00 L 669.00 1394.00 L 635.00 1378.00 L 611.00 1368.00 L 597.00 1364.00 L 571.00 1357.00 L 533.00 1347.00 L 508.00 1342.00 L 496.00 1342.00 L 475.00 1339.00 L 445.00 1333.00 L 431.00 1324.00 L 433.00 1312.00 L 442.00 1296.00 L 458.00 1276.00 L 469.00 1260.00 L 475.00 1248.00 L 482.00 1228.00 L 490.00 1200.00 L 501.00 1178.00 L 515.00 1162.00 L 524.00 1148.00 L 528.00 1136.00 L 529.00 1125.00 L 527.00 1115.00 L 529.00 1097.00 L 535.00 1071.00 L 539.00 1040.00 L 541.00 1004.00 L 547.00 980.00 L 557.00 968.00 L 562.00 960.00 L 562.00 956.00 L 556.00 952.00 Z" fill="black" stroke="black" stroke-width="1"/>
</svg>