<?xml version="1.0" encoding="UTF-8"?>
<svg xmlns="http://www.w3.org/2000/svg" viewBox="378.00 289.00 811.00 1434.00">
  <path d="M 485.00 973.00 L 499.00 963.00 L 507.00 953.00 L 509.00 943.00 L 493.00 924.00 L 459.00 896.00 L 429.00 859.00 L 403.00 813.00 L 394.00 775.00 L 402.00 745.00 L 402.00 716.00 L 394.00 688.00 L 394.00 645.00 L 402.00 587.00 L 416.00 542.00 L 436.00 510.00 L 450.00 480.00 L 458.00 452.00 L 474.00 431.00 L 498.00 417.00 L 522.00 395.00 L 546.00 365.00 L 598.00 337.00 L 678.00 311.00 L 763.00 299.00 L 853.00 301.00 L 920.00 315.00 L 964.00 341.00 L 994.00 366.00 L 1010.00 390.00 L 1035.00 415.00 L 1069.00 441.00 L 1080.00 471.00 L 1068.00 505.00 L 1071.00 508.00 L 1089.00 480.00 L 1090.00 483.00 L 1074.00 517.00 L 1076.00 519.00 L 1096.00 489.00 L 1097.00 492.00 L 1079.00 528.00 L 1080.00 529.00 L 1100.00 495.00 L 1103.00 495.00 L 1089.00 529.00 L 1090.00 531.00 L 1106.00 501.00 L 1104.00 505.00 L 1084.00 543.00 L 1085.00 546.00 L 1107.00 514.00 L 1108.00 517.00 L 1088.00 555.00 L 1089.00 558.00 L 1111.00 526.00 L 1112.00 528.00 L 1092.00 564.00 L 1092.00 565.00 L 1112.00 531.00 L 1113.00 533.00 L 1095.00 571.00 L 1094.00 580.00 L 1110.00 560.00 L 1111.00 563.00 L 1097.00 589.00 L 1094.00 596.00 L 1102.00 584.00 L 1103.00 587.00 L 1097.00 605.00 L 1103.00 601.00 L 1121.00 575.00 L 1122.00 578.00 L 1106.00 610.00 L 1108.00 613.00 L 1128.00 587.00 L 1129.00 589.00 L 1111.00 619.00 L 1102.00 636.00 L 1102.00 640.00 L 1111.00 630.00 L 1129.00 606.00 L 1130.00 612.00 L 1114.00 648.00 L 1114.00 657.00 L 1130.00 639.00 L 1130.00 641.00 L 1114.00 663.00 L 1116.00 663.00 L 1136.00 641.00 L 1136.00 643.00 L 1116.00 669.00 L 1118.00 669.00 L 1142.00 643.00 L 1141.00 648.00 L 1115.00 684.00 L 1117.00 687.00 L 1147.00 657.00 L 1147.00 659.00 L 1117.00 693.00 L 1122.00 748.00 L 1162.00 824.00 L 1179.00 868.00 L 1173.00 880.00 L 1161.00 889.00 L 1143.00 895.00 L 1134.00 910.00 L 1134.00 934.00 L 1128.00 953.00 L 1116.00 967.00 L 1112.00 980.00 L 1116.00 992.00 L 1113.00 1006.00 L 1103.00 1022.00 L 1100.00 1042.00 L 1104.00 1066.00 L 1099.00 1087.00 L 1085.00 1105.00 L 1072.00 1116.00 L 1060.00 1120.00 L 1055.00 1125.00 L 1057.00 1131.00 L 1055.00 1132.00 L 1049.00 1128.00 L 1052.00 1132.00 L 1064.00 1144.00 L 1063.00 1146.00 L 1049.00 1138.00 L 1049.00 1140.00 L 1063.00 1152.00 L 1067.00 1164.00 L 1061.00 1176.00 L 1068.00 1194.00 L 1088.00 1218.00 L 1087.00 1220.00 L 1065.00 1200.00 L 1064.00 1203.00 L 1084.00 1229.00 L 1083.00 1231.00 L 1061.00 1209.00 L 1055.00 1204.00 L 1065.00 1216.00 L 1065.00 1219.00 L 1055.00 1213.00 L 1078.00 1245.00 L 1134.00 1315.00 L 1143.00 1329.00 L 1105.00 1287.00 L 1105.00 1289.00 L 1143.00 1335.00 L 1133.00 1324.00 L 1075.00 1256.00 L 1054.00 1232.00 L 1070.00 1252.00 L 1069.00 1254.00 L 1051.00 1238.00 L 1068.00 1263.00 L 1120.00 1329.00 L 1128.00 1349.00 L 1092.00 1323.00 L 1085.00 1326.00 L 1107.00 1358.00 L 1104.00 1355.00 L 1076.00 1317.00 L 1077.00 1320.00 L 1107.00 1364.00 L 1106.00 1363.00 L 1074.00 1317.00 L 1075.00 1319.00 L 1109.00 1369.00 L 1107.00 1367.00 L 1069.00 1313.00 L 1069.00 1316.00 L 1107.00 1376.00 L 1115.00 1392.00 L 1093.00 1364.00 L 1095.00 1372.00 L 1121.00 1416.00 L 1111.00 1402.00 L 1065.00 1330.00 L 1068.00 1335.00 L 1120.00 1417.00 L 1128.00 1430.00 L 1092.00 1374.00 L 1092.00 1376.00 L 1128.00 1436.00 L 1120.00 1425.00 L 1068.00 1343.00 L 1069.00 1346.00 L 1123.00 1434.00 L 1124.00 1437.00 L 1072.00 1355.00 L 1072.00 1358.00 L 1124.00 1446.00 L 1155.00 1525.00 L 1165.00 1595.00 L 1169.00 1644.00 L 1167.00 1672.00 L 1163.00 1690.00 L 1157.00 1698.00 L 1150.00 1705.00 L 1142.00 1711.00 L 1130.00 1713.00 L 1114.00 1711.00 L 1061.00 1660.00 L 971.00 1560.00 L 908.00 1498.00 L 872.00 1474.00 L 829.00 1454.00 L 779.00 1438.00 L 692.00 1428.00 L 568.00 1424.00 L 486.00 1416.00 L 446.00 1404.00 L 418.00 1391.00 L 402.00 1377.00 L 392.00 1358.00 L 388.00 1334.00 L 393.00 1305.00 L 407.00 1271.00 L 419.00 1230.00 L 429.00 1182.00 L 431.00 1148.00 L 425.00 1128.00 L 434.00 1085.00 L 458.00 1019.00 L 472.00 984.00 L 476.00 980.00 L 485.00 973.00 Z" fill="black" stroke="black" stroke-width="1"/>
</svg>