<?xml version="1.0" encoding="UTF-8"?>
<svg xmlns="http://www.w3.org/2000/svg" viewBox="278.00 356.00 852.00 1516.00">
  <path d="M 368.00 1068.00 L 372.00 1048.00 L 368.00 1022.00 L 356.00 990.00 L 351.00 962.00 L 353.00 938.00 L 349.00 916.00 L 339.00 896.00 L 333.00 857.00 L 331.00 799.00 L 327.00 756.00 L 321.00 728.00 L 318.00 694.00 L 318.00 654.00 L 323.00 612.00 L 333.00 568.00 L 348.00 528.00 L 368.00 492.00 L 390.00 463.00 L 414.00 441.00 L 439.00 422.00 L 465.00 406.00 L 504.00 390.00 L 556.00 374.00 L 602.00 366.00 L 642.00 366.00 L 708.00 372.00 L 800.00 384.00 L 863.00 397.00 L 897.00 411.00 L 926.00 427.00 L 950.00 445.00 L 964.00 456.00 L 968.00 460.00 L 970.00 472.00 L 970.00 492.00 L 973.00 495.00 L 979.00 481.00 L 980.00 482.00 L 976.00 498.00 L 978.00 500.00 L 986.00 488.00 L 988.00 492.00 L 984.00 512.00 L 986.00 515.00 L 994.00 501.00 L 995.00 503.00 L 989.00 521.00 L 990.00 523.00 L 998.00 509.00 L 999.00 511.00 L 993.00 529.00 L 994.00 532.00 L 1002.00 520.00 L 1003.00 523.00 L 997.00 541.00 L 998.00 543.00 L 1006.00 529.00 L 1007.00 532.00 L 1001.00 552.00 L 1002.00 556.00 L 1010.00 544.00 L 1011.00 546.00 L 1005.00 562.00 L 1002.00 572.00 L 1002.00 576.00 L 1006.00 571.00 L 1014.00 557.00 L 1015.00 559.00 L 1009.00 577.00 L 1010.00 580.00 L 1018.00 568.00 L 1019.00 572.00 L 1013.00 592.00 L 1015.00 595.00 L 1025.00 581.00 L 1025.00 584.00 L 1015.00 604.00 L 1017.00 606.00 L 1031.00 590.00 L 1032.00 592.00 L 1020.00 612.00 L 1021.00 613.00 L 1035.00 595.00 L 1036.00 598.00 L 1024.00 622.00 L 1025.00 624.00 L 1039.00 604.00 L 1041.00 607.00 L 1031.00 633.00 L 1028.00 651.00 L 1032.00 661.00 L 1032.00 676.00 L 1028.00 696.00 L 1027.00 717.00 L 1029.00 739.00 L 1035.00 759.00 L 1045.00 777.00 L 1068.00 808.00 L 1104.00 852.00 L 1120.00 879.00 L 1116.00 889.00 L 1101.00 901.00 L 1075.00 915.00 L 1073.00 917.00 L 1095.00 907.00 L 1093.00 910.00 L 1067.00 926.00 L 1056.00 947.00 L 1060.00 973.00 L 1058.00 990.00 L 1050.00 998.00 L 1048.00 1009.00 L 1052.00 1023.00 L 1047.00 1040.00 L 1033.00 1060.00 L 1028.00 1074.00 L 1032.00 1082.00 L 1034.00 1095.00 L 1034.00 1113.00 L 1032.00 1126.00 L 1028.00 1134.00 L 1021.00 1142.00 L 1011.00 1150.00 L 996.00 1157.00 L 976.00 1163.00 L 952.00 1166.00 L 924.00 1166.00 L 904.00 1178.00 L 892.00 1202.00 L 893.00 1223.00 L 907.00 1241.00 L 906.00 1244.00 L 890.00 1232.00 L 890.00 1235.00 L 906.00 1253.00 L 911.00 1264.00 L 905.00 1268.00 L 907.00 1282.00 L 917.00 1306.00 L 920.00 1316.00 L 916.00 1312.00 L 953.00 1379.00 L 1031.00 1517.00 L 1063.00 1576.00 L 1049.00 1556.00 L 1061.00 1575.00 L 1099.00 1633.00 L 1106.00 1646.00 L 1082.00 1614.00 L 1083.00 1618.00 L 1109.00 1658.00 L 1110.00 1661.00 L 1086.00 1627.00 L 1083.00 1624.00 L 1101.00 1652.00 L 1102.00 1654.00 L 1086.00 1630.00 L 1086.00 1635.00 L 1102.00 1669.00 L 1101.00 1691.00 L 1083.00 1701.00 L 1073.00 1709.00 L 1071.00 1715.00 L 1073.00 1734.00 L 1079.00 1766.00 L 1080.00 1790.00 L 1076.00 1806.00 L 1068.00 1821.00 L 1056.00 1835.00 L 1042.00 1847.00 L 1026.00 1857.00 L 1009.00 1862.00 L 991.00 1862.00 L 966.00 1857.00 L 934.00 1847.00 L 905.00 1834.00 L 879.00 1818.00 L 848.00 1793.00 L 812.00 1759.00 L 770.00 1725.00 L 722.00 1691.00 L 658.00 1654.00 L 578.00 1614.00 L 512.00 1587.00 L 460.00 1573.00 L 417.00 1564.00 L 383.00 1560.00 L 348.00 1559.00 L 312.00 1561.00 L 292.00 1560.00 L 288.00 1556.00 L 291.00 1533.00 L 301.00 1491.00 L 328.00 1419.00 L 372.00 1317.00 L 399.00 1249.00 L 409.00 1215.00 L 414.00 1177.00 L 414.00 1135.00 L 409.00 1113.00 L 399.00 1111.00 L 399.00 1109.00 L 409.00 1107.00 L 406.00 1106.00 L 390.00 1106.00 L 390.00 1104.00 L 406.00 1100.00 L 404.00 1098.00 L 384.00 1098.00 L 373.00 1096.00 L 371.00 1092.00 L 369.00 1087.00 L 367.00 1081.00 L 368.00 1068.00 Z" fill="black" stroke="black" stroke-width="1"/>
</svg>