<?xml version="1.0" encoding="UTF-8"?>
<svg xmlns="http://www.w3.org/2000/svg" viewBox="321.00 270.00 770.00 1448.00">
  <path d="M 472.00 958.00 L 484.00 958.00 L 481.00 955.00 L 463.00 949.00 L 449.00 932.00 L 439.00 904.00 L 418.00 869.00 L 386.00 827.00 L 361.00 781.00 L 343.00 731.00 L 333.00 669.00 L 331.00 595.00 L 333.00 544.00 L 339.00 516.00 L 349.00 486.00 L 363.00 454.00 L 387.00 414.00 L 421.00 366.00 L 442.00 338.00 L 450.00 330.00 L 465.00 322.00 L 487.00 314.00 L 503.00 305.00 L 513.00 295.00 L 543.00 287.00 L 593.00 281.00 L 622.00 280.00 L 630.00 284.00 L 642.00 286.00 L 658.00 286.00 L 671.00 290.00 L 681.00 298.00 L 694.00 301.00 L 710.00 299.00 L 730.00 301.00 L 754.00 307.00 L 773.00 316.00 L 787.00 328.00 L 799.00 335.00 L 809.00 337.00 L 831.00 348.00 L 865.00 368.00 L 887.00 387.00 L 897.00 405.00 L 912.00 420.00 L 932.00 432.00 L 946.00 447.00 L 954.00 465.00 L 962.00 478.00 L 970.00 486.00 L 972.00 497.00 L 968.00 511.00 L 970.00 513.00 L 978.00 503.00 L 978.00 506.00 L 970.00 522.00 L 971.00 523.00 L 981.00 509.00 L 982.00 512.00 L 974.00 532.00 L 975.00 534.00 L 985.00 518.00 L 987.00 517.00 L 981.00 531.00 L 982.00 533.00 L 990.00 523.00 L 989.00 527.00 L 979.00 545.00 L 976.00 552.00 L 980.00 548.00 L 981.00 550.00 L 979.00 558.00 L 983.00 554.00 L 993.00 538.00 L 993.00 540.00 L 983.00 560.00 L 983.00 562.00 L 993.00 546.00 L 998.00 540.00 L 998.00 544.00 L 999.00 545.00 L 1001.00 543.00 L 997.00 550.00 L 987.00 566.00 L 984.00 571.00 L 988.00 565.00 L 988.00 567.00 L 984.00 577.00 L 987.00 576.00 L 997.00 564.00 L 998.00 567.00 L 990.00 585.00 L 989.00 592.00 L 995.00 588.00 L 996.00 590.00 L 992.00 598.00 L 995.00 595.00 L 1005.00 581.00 L 1005.00 584.00 L 995.00 604.00 L 996.00 607.00 L 1008.00 593.00 L 1009.00 594.00 L 999.00 610.00 L 999.00 613.00 L 1009.00 603.00 L 1010.00 606.00 L 1002.00 622.00 L 1001.00 638.00 L 1007.00 654.00 L 1008.00 673.00 L 1004.00 695.00 L 1013.00 721.00 L 1035.00 751.00 L 1055.00 783.00 L 1073.00 817.00 L 1081.00 839.00 L 1079.00 849.00 L 1066.00 859.00 L 1042.00 869.00 L 1041.00 871.00 L 1063.00 865.00 L 1065.00 865.00 L 1047.00 871.00 L 1045.00 872.00 L 1059.00 868.00 L 1057.00 871.00 L 1039.00 881.00 L 1031.00 897.00 L 1033.00 919.00 L 1031.00 932.00 L 1025.00 936.00 L 1023.00 942.00 L 1025.00 950.00 L 1023.00 959.00 L 1017.00 969.00 L 1007.00 978.00 L 993.00 986.00 L 986.00 998.00 L 986.00 1014.00 L 982.00 1031.00 L 974.00 1049.00 L 972.00 1065.00 L 976.00 1079.00 L 964.00 1105.00 L 936.00 1143.00 L 916.00 1177.00 L 904.00 1207.00 L 909.00 1245.00 L 931.00 1291.00 L 930.00 1294.00 L 906.00 1254.00 L 909.00 1262.00 L 939.00 1318.00 L 938.00 1319.00 L 906.00 1265.00 L 922.00 1298.00 L 986.00 1418.00 L 1009.00 1462.00 L 991.00 1430.00 L 992.00 1433.00 L 1012.00 1471.00 L 1006.00 1461.00 L 974.00 1403.00 L 976.00 1407.00 L 1012.00 1473.00 L 1014.00 1477.00 L 982.00 1419.00 L 985.00 1430.00 L 1023.00 1510.00 L 1044.00 1559.00 L 1048.00 1577.00 L 1049.00 1601.00 L 1047.00 1631.00 L 1042.00 1656.00 L 1034.00 1676.00 L 1026.00 1690.00 L 1018.00 1698.00 L 1000.00 1704.00 L 972.00 1708.00 L 948.00 1705.00 L 928.00 1695.00 L 877.00 1651.00 L 795.00 1573.00 L 735.00 1521.00 L 697.00 1495.00 L 657.00 1473.00 L 615.00 1455.00 L 573.00 1440.00 L 531.00 1428.00 L 480.00 1420.00 L 420.00 1416.00 L 388.00 1411.00 L 384.00 1405.00 L 383.00 1398.00 L 385.00 1390.00 L 405.00 1342.00 L 443.00 1254.00 L 460.00 1199.00 L 456.00 1177.00 L 461.00 1123.00 L 475.00 1037.00 L 485.00 990.00 L 491.00 982.00 L 494.00 976.00 L 494.00 972.00 L 488.00 968.00 L 476.00 964.00 L 469.00 961.00 L 467.00 959.00 L 472.00 958.00 Z" fill="black" stroke="black" stroke-width="1"/>
</svg>