<?xml version="1.0" encoding="UTF-8"?>
<svg xmlns="http://www.w3.org/2000/svg" viewBox="263.00 320.00 785.00 1415.00">
  <path d="M 357.00 1003.00 L 359.00 933.00 L 339.00 853.00 L 297.00 763.00 L 275.00 697.00 L 273.00 655.00 L 275.00 620.00 L 281.00 592.00 L 313.00 532.00 L 371.00 440.00 L 417.00 381.00 L 451.00 355.00 L 502.00 338.00 L 570.00 330.00 L 631.00 333.00 L 685.00 347.00 L 745.00 372.00 L 811.00 408.00 L 851.00 436.00 L 865.00 456.00 L 880.00 469.00 L 896.00 475.00 L 903.00 488.00 L 901.00 508.00 L 904.00 509.00 L 912.00 491.00 L 913.00 494.00 L 907.00 518.00 L 910.00 521.00 L 922.00 503.00 L 924.00 505.00 L 916.00 527.00 L 918.00 530.00 L 930.00 514.00 L 932.00 515.00 L 924.00 533.00 L 924.00 535.00 L 932.00 521.00 L 932.00 524.00 L 924.00 544.00 L 924.00 547.00 L 932.00 533.00 L 935.00 542.00 L 933.00 574.00 L 938.00 583.00 L 950.00 569.00 L 951.00 574.00 L 941.00 598.00 L 943.00 600.00 L 957.00 580.00 L 958.00 582.00 L 946.00 606.00 L 947.00 609.00 L 961.00 591.00 L 962.00 593.00 L 950.00 615.00 L 951.00 617.00 L 965.00 599.00 L 966.00 601.00 L 954.00 623.00 L 953.00 628.00 L 963.00 616.00 L 966.00 636.00 L 962.00 688.00 L 978.00 735.00 L 1014.00 777.00 L 1034.00 806.00 L 1038.00 822.00 L 1029.00 839.00 L 1007.00 857.00 L 1000.00 880.00 L 1008.00 908.00 L 1003.00 941.00 L 985.00 979.00 L 979.00 1013.00 L 985.00 1043.00 L 981.00 1065.00 L 967.00 1079.00 L 946.00 1089.00 L 918.00 1095.00 L 916.00 1107.00 L 940.00 1125.00 L 953.00 1141.00 L 955.00 1155.00 L 943.00 1182.00 L 917.00 1222.00 L 911.00 1251.00 L 925.00 1269.00 L 924.00 1272.00 L 908.00 1260.00 L 908.00 1264.00 L 924.00 1284.00 L 921.00 1287.00 L 899.00 1273.00 L 897.00 1276.00 L 915.00 1296.00 L 914.00 1298.00 L 894.00 1282.00 L 906.00 1301.00 L 950.00 1355.00 L 951.00 1362.00 L 909.00 1322.00 L 905.00 1323.00 L 939.00 1365.00 L 936.00 1365.00 L 896.00 1323.00 L 892.00 1322.00 L 924.00 1362.00 L 922.00 1362.00 L 886.00 1322.00 L 882.00 1320.00 L 910.00 1356.00 L 909.00 1359.00 L 879.00 1329.00 L 874.00 1328.00 L 894.00 1356.00 L 892.00 1354.00 L 868.00 1322.00 L 892.00 1372.00 L 964.00 1504.00 L 975.00 1532.00 L 925.00 1456.00 L 927.00 1464.00 L 981.00 1556.00 L 1009.00 1621.00 L 1011.00 1659.00 L 1007.00 1690.00 L 997.00 1714.00 L 978.00 1725.00 L 950.00 1723.00 L 906.00 1698.00 L 846.00 1650.00 L 778.00 1608.00 L 702.00 1572.00 L 635.00 1545.00 L 577.00 1527.00 L 501.00 1514.00 L 407.00 1506.00 L 361.00 1490.00 L 363.00 1466.00 L 360.00 1458.00 L 352.00 1466.00 L 353.00 1461.00 L 363.00 1443.00 L 363.00 1438.00 L 353.00 1446.00 L 355.00 1431.00 L 369.00 1393.00 L 371.00 1378.00 L 361.00 1386.00 L 365.00 1375.00 L 383.00 1345.00 L 384.00 1338.00 L 368.00 1354.00 L 364.00 1355.00 L 372.00 1341.00 L 372.00 1337.00 L 364.00 1343.00 L 368.00 1337.00 L 384.00 1319.00 L 384.00 1317.00 L 368.00 1331.00 L 369.00 1328.00 L 387.00 1308.00 L 387.00 1305.00 L 369.00 1319.00 L 370.00 1316.00 L 390.00 1296.00 L 390.00 1294.00 L 370.00 1310.00 L 370.00 1307.00 L 390.00 1285.00 L 390.00 1282.00 L 370.00 1298.00 L 369.00 1295.00 L 387.00 1273.00 L 386.00 1267.00 L 366.00 1277.00 L 365.00 1273.00 L 383.00 1255.00 L 379.00 1253.00 L 353.00 1267.00 L 353.00 1264.00 L 379.00 1244.00 L 377.00 1243.00 L 347.00 1261.00 L 347.00 1258.00 L 377.00 1234.00 L 376.00 1232.00 L 344.00 1252.00 L 344.00 1250.00 L 376.00 1226.00 L 374.00 1224.00 L 338.00 1244.00 L 339.00 1241.00 L 377.00 1215.00 L 378.00 1212.00 L 342.00 1232.00 L 340.00 1231.00 L 372.00 1209.00 L 374.00 1205.00 L 346.00 1219.00 L 348.00 1217.00 L 380.00 1199.00 L 380.00 1196.00 L 348.00 1208.00 L 349.00 1205.00 L 383.00 1187.00 L 379.00 1185.00 L 337.00 1199.00 L 337.00 1196.00 L 379.00 1176.00 L 377.00 1173.00 L 331.00 1187.00 L 330.00 1184.00 L 374.00 1164.00 L 375.00 1161.00 L 333.00 1175.00 L 333.00 1172.00 L 375.00 1152.00 L 380.00 1147.00 L 348.00 1157.00 L 348.00 1155.00 L 380.00 1141.00 L 384.00 1136.00 L 360.00 1140.00 L 349.00 1119.00 L 351.00 1073.00 L 353.00 1047.00 L 355.00 1041.00 L 357.00 1003.00 Z" fill="black" stroke="black" stroke-width="1"/>
</svg>