<?xml version="1.0" encoding="UTF-8"?>
<svg xmlns="http://www.w3.org/2000/svg" viewBox="380.00 284.00 843.00 1514.00">
  <path d="M 566.00 1037.00 L 590.00 1035.00 L 591.00 1033.00 L 569.00 1031.00 L 563.00 1015.00 L 573.00 985.00 L 577.00 956.00 L 575.00 928.00 L 569.00 905.00 L 559.00 887.00 L 538.00 861.00 L 506.00 827.00 L 480.00 796.00 L 460.00 768.00 L 440.00 734.00 L 420.00 694.00 L 405.00 655.00 L 395.00 617.00 L 390.00 575.00 L 390.00 529.00 L 397.00 489.00 L 411.00 455.00 L 425.00 429.00 L 439.00 411.00 L 458.00 390.00 L 482.00 366.00 L 515.00 344.00 L 557.00 324.00 L 607.00 309.00 L 665.00 299.00 L 714.00 294.00 L 754.00 294.00 L 796.00 296.00 L 840.00 300.00 L 870.00 305.00 L 886.00 311.00 L 900.00 318.00 L 912.00 326.00 L 937.00 336.00 L 975.00 348.00 L 1000.00 360.00 L 1012.00 372.00 L 1033.00 386.00 L 1063.00 402.00 L 1082.00 414.00 L 1090.00 422.00 L 1093.00 432.00 L 1091.00 444.00 L 1092.00 445.00 L 1096.00 435.00 L 1099.00 433.00 L 1101.00 439.00 L 1100.00 447.00 L 1096.00 457.00 L 1098.00 482.00 L 1106.00 522.00 L 1115.00 552.00 L 1125.00 572.00 L 1129.00 600.00 L 1127.00 636.00 L 1130.00 661.00 L 1138.00 675.00 L 1160.00 701.00 L 1196.00 739.00 L 1213.00 764.00 L 1211.00 776.00 L 1199.00 792.00 L 1177.00 812.00 L 1170.00 835.00 L 1178.00 861.00 L 1175.00 880.00 L 1161.00 892.00 L 1155.00 906.00 L 1157.00 922.00 L 1153.00 938.00 L 1143.00 954.00 L 1141.00 969.00 L 1147.00 983.00 L 1149.00 1000.00 L 1147.00 1020.00 L 1140.00 1036.00 L 1128.00 1048.00 L 1111.00 1058.00 L 1089.00 1066.00 L 1085.00 1075.00 L 1099.00 1085.00 L 1106.00 1093.00 L 1106.00 1099.00 L 1099.00 1114.00 L 1085.00 1138.00 L 1075.00 1159.00 L 1069.00 1177.00 L 1066.00 1193.00 L 1066.00 1207.00 L 1075.00 1224.00 L 1093.00 1244.00 L 1092.00 1246.00 L 1072.00 1230.00 L 1073.00 1232.00 L 1095.00 1252.00 L 1094.00 1254.00 L 1070.00 1238.00 L 1069.00 1241.00 L 1091.00 1263.00 L 1091.00 1265.00 L 1069.00 1247.00 L 1068.00 1248.00 L 1088.00 1268.00 L 1088.00 1270.00 L 1068.00 1254.00 L 1081.00 1271.00 L 1127.00 1321.00 L 1126.00 1323.00 L 1078.00 1277.00 L 1076.00 1278.00 L 1120.00 1326.00 L 1130.00 1339.00 L 1106.00 1317.00 L 1103.00 1316.00 L 1121.00 1336.00 L 1114.00 1329.00 L 1082.00 1295.00 L 1079.00 1295.00 L 1105.00 1329.00 L 1103.00 1329.00 L 1073.00 1295.00 L 1071.00 1294.00 L 1097.00 1326.00 L 1095.00 1326.00 L 1065.00 1294.00 L 1063.00 1294.00 L 1089.00 1326.00 L 1090.00 1328.00 L 1066.00 1300.00 L 1064.00 1299.00 L 1084.00 1325.00 L 1081.00 1325.00 L 1055.00 1299.00 L 1049.00 1295.00 L 1063.00 1313.00 L 1067.00 1319.00 L 1061.00 1313.00 L 1065.00 1322.00 L 1079.00 1346.00 L 1076.00 1345.00 L 1056.00 1319.00 L 1057.00 1323.00 L 1079.00 1357.00 L 1077.00 1356.00 L 1051.00 1320.00 L 1063.00 1339.00 L 1113.00 1413.00 L 1136.00 1448.00 L 1132.00 1444.00 L 1138.00 1460.00 L 1154.00 1496.00 L 1165.00 1527.00 L 1171.00 1553.00 L 1173.00 1565.00 L 1171.00 1563.00 L 1173.00 1574.00 L 1179.00 1598.00 L 1183.00 1628.00 L 1185.00 1664.00 L 1179.00 1698.00 L 1165.00 1730.00 L 1151.00 1753.00 L 1137.00 1767.00 L 1118.00 1778.00 L 1094.00 1786.00 L 1074.00 1788.00 L 1058.00 1784.00 L 1039.00 1774.00 L 1017.00 1758.00 L 1006.00 1752.00 L 1006.00 1756.00 L 999.00 1754.00 L 985.00 1746.00 L 952.00 1717.00 L 900.00 1667.00 L 831.00 1615.00 L 745.00 1561.00 L 674.00 1522.00 L 618.00 1498.00 L 556.00 1480.00 L 488.00 1468.00 L 459.00 1441.00 L 469.00 1399.00 L 485.00 1358.00 L 507.00 1318.00 L 520.00 1288.00 L 524.00 1268.00 L 530.00 1252.00 L 538.00 1240.00 L 541.00 1220.00 L 539.00 1192.00 L 548.00 1150.00 L 568.00 1094.00 L 578.00 1064.00 L 578.00 1060.00 L 573.00 1058.00 L 563.00 1058.00 L 564.00 1056.00 L 576.00 1052.00 L 574.00 1050.00 L 558.00 1050.00 L 562.00 1048.00 L 586.00 1044.00 L 587.00 1041.00 L 565.00 1039.00 L 566.00 1037.00 Z" fill="black" stroke="black" stroke-width="1"/>
</svg>