<?xml version="1.0" encoding="UTF-8"?>
<svg xmlns="http://www.w3.org/2000/svg" viewBox="318.00 410.00 728.00 1242.00">
  <path d="M 493.00 982.00 L 467.00 982.00 L 451.00 981.00 L 445.00 979.00 L 457.00 978.00 L 487.00 978.00 L 486.00 977.00 L 454.00 975.00 L 428.00 968.00 L 408.00 956.00 L 396.00 946.00 L 392.00 938.00 L 382.00 928.00 L 366.00 916.00 L 352.00 894.00 L 340.00 862.00 L 332.00 808.00 L 328.00 732.00 L 329.00 680.00 L 335.00 652.00 L 344.00 627.00 L 356.00 605.00 L 364.00 585.00 L 368.00 567.00 L 376.00 551.00 L 388.00 537.00 L 400.00 528.00 L 412.00 524.00 L 436.00 506.00 L 472.00 474.00 L 509.00 450.00 L 547.00 434.00 L 587.00 424.00 L 629.00 420.00 L 673.00 422.00 L 719.00 430.00 L 754.00 438.00 L 778.00 446.00 L 810.00 461.00 L 850.00 483.00 L 887.00 511.00 L 921.00 545.00 L 942.00 568.00 L 950.00 580.00 L 952.00 592.00 L 948.00 604.00 L 949.00 606.00 L 955.00 598.00 L 956.00 599.00 L 952.00 609.00 L 953.00 610.00 L 959.00 602.00 L 959.00 603.00 L 953.00 613.00 L 951.00 620.00 L 953.00 624.00 L 957.00 622.00 L 963.00 614.00 L 963.00 615.00 L 957.00 625.00 L 958.00 627.00 L 966.00 621.00 L 967.00 625.00 L 961.00 639.00 L 962.00 641.00 L 970.00 631.00 L 971.00 633.00 L 965.00 647.00 L 966.00 649.00 L 974.00 639.00 L 975.00 642.00 L 969.00 658.00 L 970.00 662.00 L 978.00 654.00 L 978.00 656.00 L 970.00 668.00 L 971.00 670.00 L 981.00 662.00 L 982.00 664.00 L 974.00 676.00 L 974.00 678.00 L 982.00 670.00 L 982.00 672.00 L 974.00 684.00 L 975.00 686.00 L 985.00 678.00 L 987.00 678.00 L 981.00 686.00 L 981.00 688.00 L 987.00 684.00 L 986.00 689.00 L 978.00 703.00 L 979.00 705.00 L 989.00 695.00 L 989.00 696.00 L 979.00 708.00 L 979.00 710.00 L 989.00 702.00 L 989.00 705.00 L 979.00 719.00 L 980.00 720.00 L 992.00 708.00 L 992.00 710.00 L 980.00 726.00 L 980.00 728.00 L 992.00 716.00 L 992.00 718.00 L 980.00 734.00 L 981.00 737.00 L 995.00 727.00 L 995.00 729.00 L 981.00 743.00 L 982.00 744.00 L 998.00 732.00 L 998.00 735.00 L 982.00 753.00 L 983.00 755.00 L 1001.00 741.00 L 1001.00 742.00 L 983.00 758.00 L 974.00 772.00 L 974.00 784.00 L 992.00 818.00 L 1028.00 874.00 L 1036.00 914.00 L 1016.00 938.00 L 1008.00 959.00 L 1012.00 977.00 L 1010.00 991.00 L 1002.00 1001.00 L 999.00 1011.00 L 1001.00 1021.00 L 996.00 1035.00 L 984.00 1053.00 L 979.00 1072.00 L 981.00 1092.00 L 975.00 1111.00 L 961.00 1129.00 L 946.00 1139.00 L 930.00 1141.00 L 923.00 1147.00 L 925.00 1157.00 L 918.00 1178.00 L 902.00 1210.00 L 902.00 1241.00 L 918.00 1271.00 L 920.00 1278.00 L 908.00 1262.00 L 909.00 1265.00 L 923.00 1287.00 L 920.00 1283.00 L 900.00 1253.00 L 901.00 1255.00 L 923.00 1289.00 L 935.00 1309.00 L 937.00 1315.00 L 926.00 1300.00 L 902.00 1264.00 L 902.00 1266.00 L 926.00 1306.00 L 937.00 1334.00 L 935.00 1350.00 L 939.00 1369.00 L 949.00 1391.00 L 949.00 1393.00 L 939.00 1375.00 L 947.00 1394.00 L 973.00 1450.00 L 984.00 1475.00 L 980.00 1469.00 L 981.00 1475.00 L 987.00 1493.00 L 989.00 1518.00 L 987.00 1550.00 L 978.00 1580.00 L 962.00 1608.00 L 944.00 1628.00 L 924.00 1640.00 L 902.00 1642.00 L 878.00 1634.00 L 832.00 1598.00 L 764.00 1534.00 L 716.00 1492.00 L 688.00 1472.00 L 652.00 1450.00 L 608.00 1426.00 L 558.00 1408.00 L 502.00 1396.00 L 469.00 1387.00 L 459.00 1381.00 L 453.00 1371.00 L 451.00 1357.00 L 455.00 1333.00 L 465.00 1299.00 L 471.00 1265.00 L 473.00 1231.00 L 478.00 1204.00 L 486.00 1184.00 L 487.00 1164.00 L 481.00 1144.00 L 482.00 1103.00 L 490.00 1041.00 L 496.00 1006.00 L 500.00 998.00 L 492.00 992.00 L 472.00 988.00 L 473.00 985.00 L 495.00 983.00 L 493.00 982.00 Z" fill="black" stroke="black" stroke-width="1"/>
</svg>