<?xml version="1.0" encoding="UTF-8"?>
<svg xmlns="http://www.w3.org/2000/svg" viewBox="424.00 375.00 739.00 1325.00">
  <path d="M 490.00 952.00 L 466.00 908.00 L 449.00 859.00 L 439.00 805.00 L 434.00 753.00 L 434.00 703.00 L 441.00 652.00 L 455.00 600.00 L 471.00 559.00 L 489.00 529.00 L 514.00 495.00 L 546.00 457.00 L 577.00 431.00 L 607.00 417.00 L 625.00 406.00 L 631.00 398.00 L 646.00 391.00 L 670.00 385.00 L 688.00 385.00 L 700.00 391.00 L 715.00 392.00 L 733.00 388.00 L 765.00 387.00 L 811.00 389.00 L 862.00 396.00 L 918.00 408.00 L 966.00 425.00 L 1006.00 447.00 L 1036.00 468.00 L 1056.00 488.00 L 1071.00 506.00 L 1081.00 522.00 L 1084.00 538.00 L 1080.00 554.00 L 1082.00 555.00 L 1090.00 541.00 L 1091.00 542.00 L 1085.00 558.00 L 1086.00 559.00 L 1094.00 545.00 L 1094.00 546.00 L 1086.00 562.00 L 1086.00 563.00 L 1094.00 549.00 L 1099.00 543.00 L 1101.00 545.00 L 1098.00 555.00 L 1090.00 573.00 L 1088.00 582.00 L 1092.00 582.00 L 1098.00 576.00 L 1106.00 564.00 L 1105.00 567.00 L 1095.00 585.00 L 1096.00 586.00 L 1108.00 570.00 L 1109.00 572.00 L 1099.00 592.00 L 1100.00 594.00 L 1112.00 578.00 L 1112.00 580.00 L 1100.00 600.00 L 1101.00 602.00 L 1115.00 586.00 L 1116.00 587.00 L 1104.00 605.00 L 1104.00 607.00 L 1116.00 593.00 L 1116.00 595.00 L 1104.00 613.00 L 1104.00 616.00 L 1116.00 604.00 L 1117.00 608.00 L 1107.00 628.00 L 1107.00 632.00 L 1117.00 620.00 L 1117.00 622.00 L 1107.00 638.00 L 1107.00 640.00 L 1117.00 628.00 L 1117.00 630.00 L 1107.00 646.00 L 1108.00 648.00 L 1120.00 636.00 L 1121.00 637.00 L 1111.00 651.00 L 1111.00 653.00 L 1121.00 643.00 L 1121.00 645.00 L 1111.00 659.00 L 1112.00 660.00 L 1124.00 648.00 L 1124.00 651.00 L 1112.00 669.00 L 1113.00 671.00 L 1127.00 657.00 L 1127.00 659.00 L 1113.00 677.00 L 1113.00 679.00 L 1127.00 665.00 L 1127.00 667.00 L 1113.00 685.00 L 1114.00 688.00 L 1130.00 676.00 L 1131.00 678.00 L 1117.00 694.00 L 1116.00 698.00 L 1128.00 690.00 L 1128.00 693.00 L 1116.00 707.00 L 1118.00 707.00 L 1134.00 693.00 L 1134.00 696.00 L 1118.00 716.00 L 1108.00 738.00 L 1104.00 762.00 L 1106.00 787.00 L 1114.00 813.00 L 1128.00 843.00 L 1148.00 877.00 L 1153.00 901.00 L 1143.00 915.00 L 1134.00 923.00 L 1126.00 925.00 L 1124.00 942.00 L 1128.00 974.00 L 1124.00 995.00 L 1112.00 1005.00 L 1107.00 1016.00 L 1109.00 1028.00 L 1103.00 1040.00 L 1089.00 1052.00 L 1083.00 1068.00 L 1085.00 1088.00 L 1082.00 1105.00 L 1074.00 1119.00 L 1062.00 1131.00 L 1046.00 1141.00 L 1041.00 1152.00 L 1047.00 1164.00 L 1046.00 1186.00 L 1038.00 1218.00 L 1029.00 1244.00 L 1019.00 1264.00 L 1022.00 1289.00 L 1038.00 1319.00 L 1038.00 1321.00 L 1022.00 1295.00 L 1023.00 1299.00 L 1041.00 1333.00 L 1041.00 1334.00 L 1023.00 1302.00 L 1024.00 1305.00 L 1044.00 1343.00 L 1053.00 1374.00 L 1051.00 1398.00 L 1060.00 1435.00 L 1080.00 1485.00 L 1079.00 1486.00 L 1057.00 1438.00 L 1060.00 1447.00 L 1088.00 1513.00 L 1088.00 1515.00 L 1060.00 1453.00 L 1061.00 1459.00 L 1091.00 1533.00 L 1106.00 1586.00 L 1106.00 1618.00 L 1100.00 1643.00 L 1088.00 1661.00 L 1073.00 1675.00 L 1055.00 1685.00 L 1042.00 1690.00 L 1034.00 1690.00 L 1015.00 1682.00 L 985.00 1666.00 L 955.00 1642.00 L 925.00 1610.00 L 892.00 1570.00 L 856.00 1522.00 L 815.00 1477.00 L 769.00 1435.00 L 719.00 1404.00 L 665.00 1384.00 L 614.00 1374.00 L 566.00 1374.00 L 542.00 1369.00 L 542.00 1359.00 L 551.00 1338.00 L 569.00 1306.00 L 580.00 1282.00 L 584.00 1266.00 L 583.00 1250.00 L 577.00 1234.00 L 574.00 1214.00 L 574.00 1190.00 L 576.00 1153.00 L 580.00 1103.00 L 586.00 1064.00 L 594.00 1036.00 L 584.00 1018.00 L 556.00 1010.00 L 533.00 999.00 L 515.00 985.00 L 505.00 977.00 L 503.00 975.00 L 490.00 952.00 Z" fill="black" stroke="black" stroke-width="1"/>
</svg>