<?xml version="1.0" encoding="UTF-8"?>
<svg xmlns="http://www.w3.org/2000/svg" viewBox="311.00 200.00 980.00 1645.00">
  <path d="M 507.00 1046.00 L 533.00 990.00 L 492.00 892.00 L 384.00 752.00 L 327.00 673.00 L 321.00 655.00 L 331.00 627.00 L 357.00 589.00 L 462.00 483.00 L 646.00 309.00 L 748.00 218.00 L 768.00 210.00 L 787.00 211.00 L 805.00 221.00 L 840.00 255.00 L 892.00 313.00 L 956.00 392.00 L 1032.00 492.00 L 1106.00 543.00 L 1178.00 545.00 L 1203.00 563.00 L 1181.00 597.00 L 1186.00 597.00 L 1218.00 563.00 L 1220.00 566.00 L 1192.00 606.00 L 1196.00 606.00 L 1232.00 566.00 L 1233.00 569.00 L 1199.00 615.00 L 1202.00 616.00 L 1242.00 572.00 L 1252.00 562.00 L 1232.00 586.00 L 1235.00 587.00 L 1261.00 565.00 L 1250.00 583.00 L 1202.00 641.00 L 1203.00 644.00 L 1253.00 592.00 L 1254.00 596.00 L 1206.00 656.00 L 1187.00 682.00 L 1197.00 674.00 L 1198.00 677.00 L 1190.00 691.00 L 1191.00 695.00 L 1201.00 689.00 L 1202.00 694.00 L 1194.00 710.00 L 1197.00 741.00 L 1211.00 787.00 L 1216.00 825.00 L 1212.00 855.00 L 1229.00 901.00 L 1267.00 963.00 L 1281.00 1001.00 L 1271.00 1015.00 L 1255.00 1025.00 L 1233.00 1031.00 L 1225.00 1034.00 L 1231.00 1034.00 L 1231.00 1037.00 L 1225.00 1043.00 L 1225.00 1058.00 L 1231.00 1082.00 L 1228.00 1101.00 L 1216.00 1115.00 L 1212.00 1127.00 L 1216.00 1137.00 L 1208.00 1153.00 L 1188.00 1175.00 L 1178.00 1194.00 L 1178.00 1210.00 L 1174.00 1226.00 L 1166.00 1242.00 L 1146.00 1261.00 L 1114.00 1283.00 L 1105.00 1304.00 L 1119.00 1324.00 L 1113.00 1348.00 L 1087.00 1376.00 L 1080.00 1400.00 L 1092.00 1420.00 L 1091.00 1422.00 L 1077.00 1406.00 L 1076.00 1408.00 L 1088.00 1428.00 L 1086.00 1431.00 L 1070.00 1417.00 L 1068.00 1418.00 L 1080.00 1434.00 L 1080.00 1442.00 L 1068.00 1442.00 L 1063.00 1445.00 L 1065.00 1451.00 L 1063.00 1450.00 L 1057.00 1442.00 L 1067.00 1460.00 L 1093.00 1504.00 L 1097.00 1513.00 L 1079.00 1487.00 L 1075.00 1486.00 L 1085.00 1510.00 L 1079.00 1511.00 L 1057.00 1489.00 L 1062.00 1516.00 L 1094.00 1592.00 L 1098.00 1609.00 L 1074.00 1567.00 L 1082.00 1589.00 L 1122.00 1675.00 L 1144.00 1736.00 L 1148.00 1772.00 L 1147.00 1796.00 L 1141.00 1808.00 L 1126.00 1820.00 L 1102.00 1832.00 L 1083.00 1835.00 L 1069.00 1829.00 L 1028.00 1793.00 L 960.00 1727.00 L 898.00 1674.00 L 842.00 1634.00 L 791.00 1603.00 L 745.00 1581.00 L 694.00 1562.00 L 638.00 1546.00 L 573.00 1536.00 L 499.00 1532.00 L 464.00 1521.00 L 468.00 1503.00 L 466.00 1496.00 L 458.00 1500.00 L 460.00 1492.00 L 472.00 1472.00 L 469.00 1472.00 L 451.00 1492.00 L 452.00 1488.00 L 472.00 1460.00 L 471.00 1458.00 L 449.00 1482.00 L 451.00 1479.00 L 477.00 1449.00 L 478.00 1447.00 L 454.00 1473.00 L 458.00 1463.00 L 490.00 1417.00 L 493.00 1407.00 L 467.00 1433.00 L 469.00 1429.00 L 499.00 1395.00 L 500.00 1392.00 L 472.00 1420.00 L 474.00 1416.00 L 506.00 1380.00 L 506.00 1377.00 L 474.00 1407.00 L 476.00 1403.00 L 512.00 1365.00 L 513.00 1361.00 L 479.00 1391.00 L 480.00 1388.00 L 516.00 1352.00 L 517.00 1349.00 L 483.00 1379.00 L 483.00 1378.00 L 517.00 1346.00 L 525.00 1337.00 L 507.00 1351.00 L 508.00 1349.00 L 528.00 1331.00 L 521.00 1337.00 L 487.00 1367.00 L 487.00 1364.00 L 521.00 1328.00 L 523.00 1322.00 L 493.00 1346.00 L 493.00 1343.00 L 523.00 1313.00 L 524.00 1309.00 L 496.00 1331.00 L 497.00 1329.00 L 527.00 1303.00 L 528.00 1300.00 L 500.00 1320.00 L 501.00 1318.00 L 531.00 1294.00 L 531.00 1291.00 L 501.00 1309.00 L 502.00 1305.00 L 534.00 1279.00 L 531.00 1276.00 L 493.00 1296.00 L 472.00 1303.00 L 468.00 1297.00 L 468.00 1289.00 L 472.00 1279.00 L 471.00 1275.00 L 465.00 1277.00 L 467.00 1274.00 L 477.00 1266.00 L 475.00 1265.00 L 461.00 1271.00 L 459.00 1271.00 L 469.00 1265.00 L 468.00 1263.00 L 456.00 1265.00 L 463.00 1258.00 L 489.00 1242.00 L 491.00 1239.00 L 469.00 1249.00 L 470.00 1246.00 L 494.00 1230.00 L 512.00 1205.00 L 524.00 1171.00 L 516.00 1155.00 L 488.00 1157.00 L 489.00 1154.00 L 519.00 1146.00 L 518.00 1143.00 L 486.00 1145.00 L 487.00 1142.00 L 521.00 1134.00 L 521.00 1132.00 L 487.00 1136.00 L 488.00 1135.00 L 524.00 1129.00 L 539.00 1126.00 L 533.00 1126.00 L 533.00 1124.00 L 539.00 1120.00 L 524.00 1120.00 L 488.00 1124.00 L 475.00 1116.00 L 485.00 1096.00 L 491.00 1083.00 L 493.00 1077.00 L 507.00 1046.00 Z" fill="black" stroke="black" stroke-width="1"/>
</svg>