<?xml version="1.0" encoding="UTF-8"?>
<svg xmlns="http://www.w3.org/2000/svg" viewBox="371.00 225.00 934.00 1399.00">
  <path d="M 572.00 905.00 L 552.00 871.00 L 501.00 801.00 L 419.00 695.00 L 381.00 635.00 L 387.00 621.00 L 423.00 573.00 L 489.00 491.00 L 574.00 398.00 L 678.00 294.00 L 735.00 240.00 L 745.00 236.00 L 755.00 235.00 L 765.00 237.00 L 786.00 248.00 L 818.00 268.00 L 861.00 302.00 L 915.00 350.00 L 977.00 412.00 L 1047.00 488.00 L 1109.00 528.00 L 1163.00 532.00 L 1173.00 555.00 L 1139.00 597.00 L 1124.00 618.00 L 1128.00 618.00 L 1148.00 597.00 L 1184.00 555.00 L 1183.00 557.00 L 1145.00 603.00 L 1146.00 603.00 L 1186.00 557.00 L 1186.00 559.00 L 1146.00 609.00 L 1148.00 609.00 L 1192.00 559.00 L 1216.00 534.00 L 1220.00 534.00 L 1199.00 561.00 L 1153.00 615.00 L 1155.00 616.00 L 1205.00 564.00 L 1205.00 566.00 L 1155.00 622.00 L 1158.00 622.00 L 1214.00 566.00 L 1215.00 568.00 L 1161.00 628.00 L 1164.00 629.00 L 1224.00 571.00 L 1224.00 574.00 L 1164.00 638.00 L 1167.00 639.00 L 1233.00 577.00 L 1250.00 562.00 L 1218.00 594.00 L 1220.00 594.00 L 1256.00 562.00 L 1239.00 579.00 L 1169.00 645.00 L 1170.00 646.00 L 1242.00 582.00 L 1242.00 585.00 L 1170.00 655.00 L 1172.00 656.00 L 1248.00 588.00 L 1274.00 567.00 L 1250.00 593.00 L 1252.00 594.00 L 1280.00 570.00 L 1254.00 594.00 L 1174.00 666.00 L 1176.00 667.00 L 1260.00 597.00 L 1292.00 572.00 L 1272.00 592.00 L 1273.00 594.00 L 1295.00 578.00 L 1264.00 605.00 L 1180.00 675.00 L 1182.00 676.00 L 1270.00 608.00 L 1270.00 611.00 L 1182.00 685.00 L 1138.00 730.00 L 1138.00 746.00 L 1141.00 760.00 L 1147.00 772.00 L 1166.00 797.00 L 1198.00 835.00 L 1211.00 860.00 L 1205.00 872.00 L 1197.00 882.00 L 1187.00 890.00 L 1182.00 900.00 L 1182.00 912.00 L 1185.00 925.00 L 1191.00 939.00 L 1189.00 950.00 L 1179.00 958.00 L 1176.00 968.00 L 1180.00 980.00 L 1177.00 994.00 L 1167.00 1010.00 L 1162.00 1031.00 L 1162.00 1057.00 L 1160.00 1076.00 L 1156.00 1088.00 L 1150.00 1099.00 L 1142.00 1109.00 L 1130.00 1116.00 L 1114.00 1120.00 L 1109.00 1129.00 L 1115.00 1143.00 L 1114.00 1156.00 L 1106.00 1168.00 L 1098.00 1188.00 L 1090.00 1216.00 L 1086.00 1237.00 L 1086.00 1251.00 L 1103.00 1288.00 L 1137.00 1348.00 L 1136.00 1351.00 L 1100.00 1297.00 L 1100.00 1299.00 L 1136.00 1357.00 L 1155.00 1388.00 L 1157.00 1392.00 L 1143.00 1371.00 L 1113.00 1325.00 L 1122.00 1343.00 L 1170.00 1425.00 L 1168.00 1424.00 L 1116.00 1340.00 L 1118.00 1345.00 L 1174.00 1439.00 L 1171.00 1435.00 L 1109.00 1333.00 L 1110.00 1336.00 L 1174.00 1444.00 L 1175.00 1446.00 L 1113.00 1342.00 L 1113.00 1344.00 L 1175.00 1452.00 L 1206.00 1513.00 L 1206.00 1527.00 L 1200.00 1551.00 L 1188.00 1585.00 L 1178.00 1605.00 L 1170.00 1611.00 L 1158.00 1614.00 L 1142.00 1614.00 L 1125.00 1610.00 L 1107.00 1602.00 L 1071.00 1573.00 L 1017.00 1523.00 L 973.00 1485.00 L 939.00 1459.00 L 893.00 1432.00 L 835.00 1404.00 L 778.00 1382.00 L 722.00 1366.00 L 655.00 1359.00 L 577.00 1361.00 L 539.00 1349.00 L 541.00 1323.00 L 552.00 1290.00 L 572.00 1250.00 L 580.00 1232.00 L 576.00 1236.00 L 584.00 1222.00 L 604.00 1190.00 L 616.00 1161.00 L 620.00 1135.00 L 611.00 1130.00 L 589.00 1146.00 L 591.00 1142.00 L 617.00 1118.00 L 614.00 1118.00 L 582.00 1142.00 L 583.00 1139.00 L 617.00 1109.00 L 615.00 1107.00 L 577.00 1133.00 L 574.00 1134.00 L 606.00 1110.00 L 606.00 1108.00 L 574.00 1128.00 L 575.00 1126.00 L 609.00 1102.00 L 609.00 1101.00 L 575.00 1123.00 L 578.00 1120.00 L 618.00 1092.00 L 636.00 1078.00 L 632.00 1078.00 L 632.00 1076.00 L 636.00 1072.00 L 617.00 1083.00 L 575.00 1109.00 L 556.00 1108.00 L 560.00 1080.00 L 572.00 1042.00 L 592.00 994.00 L 598.00 961.00 L 590.00 943.00 L 585.00 931.00 L 583.00 925.00 L 572.00 905.00 Z" fill="black" stroke="black" stroke-width="1"/>
</svg>