<?xml version="1.0" encoding="UTF-8"?>
<svg xmlns="http://www.w3.org/2000/svg" viewBox="421.00 295.00 836.00 1565.00">
  <path d="M 550.00 1021.00 L 558.00 979.00 L 565.00 955.00 L 571.00 949.00 L 570.00 942.00 L 562.00 934.00 L 563.00 931.00 L 573.00 933.00 L 572.00 930.00 L 560.00 922.00 L 548.00 901.00 L 536.00 867.00 L 513.00 823.00 L 479.00 769.00 L 454.00 711.00 L 438.00 649.00 L 431.00 596.00 L 433.00 552.00 L 446.00 500.00 L 470.00 440.00 L 504.00 389.00 L 548.00 347.00 L 602.00 320.00 L 666.00 308.00 L 741.00 305.00 L 827.00 311.00 L 894.00 323.00 L 942.00 341.00 L 973.00 357.00 L 987.00 371.00 L 1002.00 381.00 L 1018.00 387.00 L 1044.00 408.00 L 1080.00 444.00 L 1096.00 473.00 L 1092.00 495.00 L 1093.00 499.00 L 1099.00 485.00 L 1100.00 487.00 L 1096.00 505.00 L 1097.00 508.00 L 1103.00 496.00 L 1104.00 499.00 L 1100.00 517.00 L 1101.00 519.00 L 1107.00 505.00 L 1110.00 510.00 L 1110.00 534.00 L 1114.00 537.00 L 1122.00 519.00 L 1123.00 521.00 L 1117.00 543.00 L 1120.00 546.00 L 1132.00 530.00 L 1133.00 533.00 L 1123.00 555.00 L 1124.00 558.00 L 1136.00 542.00 L 1137.00 545.00 L 1127.00 567.00 L 1128.00 569.00 L 1140.00 551.00 L 1142.00 551.00 L 1134.00 569.00 L 1134.00 572.00 L 1142.00 560.00 L 1142.00 562.00 L 1134.00 578.00 L 1133.00 581.00 L 1139.00 571.00 L 1140.00 573.00 L 1136.00 587.00 L 1137.00 595.00 L 1143.00 597.00 L 1144.00 602.00 L 1140.00 610.00 L 1141.00 612.00 L 1147.00 608.00 L 1148.00 613.00 L 1144.00 627.00 L 1146.00 630.00 L 1154.00 622.00 L 1153.00 628.00 L 1143.00 648.00 L 1139.00 664.00 L 1141.00 676.00 L 1167.00 719.00 L 1217.00 793.00 L 1228.00 839.00 L 1200.00 857.00 L 1200.00 860.00 L 1228.00 848.00 L 1226.00 852.00 L 1194.00 872.00 L 1182.00 893.00 L 1190.00 915.00 L 1188.00 931.00 L 1176.00 941.00 L 1174.00 953.00 L 1182.00 967.00 L 1179.00 982.00 L 1165.00 998.00 L 1161.00 1020.00 L 1167.00 1048.00 L 1164.00 1072.00 L 1152.00 1092.00 L 1137.00 1105.00 L 1119.00 1111.00 L 1113.00 1117.00 L 1119.00 1123.00 L 1119.00 1130.00 L 1113.00 1138.00 L 1117.00 1148.00 L 1131.00 1160.00 L 1122.00 1188.00 L 1090.00 1232.00 L 1081.00 1262.00 L 1095.00 1278.00 L 1100.00 1285.00 L 1096.00 1283.00 L 1097.00 1286.00 L 1103.00 1294.00 L 1101.00 1293.00 L 1091.00 1283.00 L 1090.00 1285.00 L 1098.00 1299.00 L 1093.00 1296.00 L 1075.00 1276.00 L 1090.00 1297.00 L 1138.00 1359.00 L 1138.00 1362.00 L 1090.00 1306.00 L 1089.00 1308.00 L 1135.00 1368.00 L 1133.00 1368.00 L 1083.00 1308.00 L 1080.00 1307.00 L 1124.00 1365.00 L 1125.00 1371.00 L 1083.00 1325.00 L 1076.00 1322.00 L 1104.00 1362.00 L 1111.00 1375.00 L 1097.00 1361.00 L 1092.00 1357.00 L 1096.00 1363.00 L 1086.00 1349.00 L 1062.00 1315.00 L 1084.00 1357.00 L 1152.00 1475.00 L 1152.00 1480.00 L 1084.00 1372.00 L 1091.00 1386.00 L 1173.00 1522.00 L 1175.00 1527.00 L 1097.00 1401.00 L 1099.00 1408.00 L 1181.00 1548.00 L 1179.00 1546.00 L 1093.00 1402.00 L 1094.00 1405.00 L 1182.00 1555.00 L 1179.00 1551.00 L 1085.00 1393.00 L 1087.00 1398.00 L 1185.00 1566.00 L 1201.00 1594.00 L 1135.00 1482.00 L 1136.00 1485.00 L 1204.00 1603.00 L 1189.00 1578.00 L 1091.00 1410.00 L 1091.00 1412.00 L 1189.00 1584.00 L 1241.00 1695.00 L 1247.00 1745.00 L 1242.00 1787.00 L 1226.00 1821.00 L 1212.00 1841.00 L 1200.00 1847.00 L 1182.00 1850.00 L 1158.00 1850.00 L 1132.00 1842.00 L 1104.00 1826.00 L 1038.00 1770.00 L 934.00 1674.00 L 843.00 1600.00 L 765.00 1548.00 L 698.00 1510.00 L 642.00 1486.00 L 574.00 1468.00 L 494.00 1456.00 L 455.00 1434.00 L 457.00 1402.00 L 478.00 1336.00 L 518.00 1236.00 L 535.00 1170.00 L 529.00 1138.00 L 530.00 1105.00 L 538.00 1071.00 L 543.00 1051.00 L 545.00 1045.00 L 550.00 1021.00 Z" fill="black" stroke="black" stroke-width="1"/>
</svg>