<?xml version="1.0" encoding="UTF-8"?>
<svg xmlns="http://www.w3.org/2000/svg" viewBox="316.00 373.00 897.00 1309.00">
  <path d="M 503.00 1030.00 L 481.00 1022.00 L 453.00 1005.00 L 419.00 979.00 L 396.00 954.00 L 384.00 930.00 L 377.00 906.00 L 375.00 882.00 L 368.00 864.00 L 356.00 852.00 L 357.00 849.00 L 371.00 855.00 L 368.00 851.00 L 348.00 837.00 L 349.00 834.00 L 371.00 842.00 L 370.00 840.00 L 346.00 828.00 L 332.00 815.00 L 328.00 801.00 L 326.00 781.00 L 326.00 755.00 L 334.00 720.00 L 350.00 676.00 L 375.00 625.00 L 409.00 567.00 L 443.00 522.00 L 477.00 490.00 L 513.00 467.00 L 551.00 453.00 L 584.00 451.00 L 612.00 461.00 L 634.00 457.00 L 650.00 439.00 L 666.00 431.00 L 682.00 433.00 L 701.00 426.00 L 723.00 410.00 L 752.00 397.00 L 788.00 387.00 L 811.00 383.00 L 821.00 385.00 L 828.00 399.00 L 832.00 425.00 L 835.00 426.00 L 837.00 402.00 L 838.00 402.00 L 838.00 426.00 L 841.00 428.00 L 847.00 408.00 L 849.00 409.00 L 847.00 431.00 L 849.00 433.00 L 855.00 415.00 L 858.00 414.00 L 858.00 430.00 L 859.00 432.00 L 861.00 420.00 L 865.00 421.00 L 871.00 435.00 L 902.00 448.00 L 958.00 460.00 L 1000.00 473.00 L 1028.00 487.00 L 1058.00 510.00 L 1090.00 542.00 L 1107.00 569.00 L 1109.00 591.00 L 1113.00 598.00 L 1119.00 590.00 L 1120.00 592.00 L 1116.00 604.00 L 1118.00 608.00 L 1126.00 604.00 L 1127.00 608.00 L 1121.00 620.00 L 1122.00 622.00 L 1130.00 614.00 L 1131.00 617.00 L 1125.00 631.00 L 1126.00 634.00 L 1134.00 626.00 L 1135.00 628.00 L 1129.00 640.00 L 1127.00 691.00 L 1129.00 781.00 L 1146.00 845.00 L 1178.00 883.00 L 1197.00 911.00 L 1203.00 929.00 L 1196.00 948.00 L 1176.00 968.00 L 1167.00 988.00 L 1169.00 1008.00 L 1165.00 1024.00 L 1155.00 1036.00 L 1151.00 1047.00 L 1153.00 1057.00 L 1147.00 1069.00 L 1133.00 1083.00 L 1128.00 1101.00 L 1132.00 1123.00 L 1129.00 1143.00 L 1119.00 1161.00 L 1070.00 1179.00 L 982.00 1197.00 L 925.00 1213.00 L 899.00 1227.00 L 929.00 1333.00 L 1015.00 1531.00 L 1013.00 1533.00 L 923.00 1339.00 L 923.00 1342.00 L 1013.00 1542.00 L 1037.00 1596.00 L 995.00 1504.00 L 995.00 1507.00 L 1037.00 1605.00 L 1034.00 1602.00 L 986.00 1498.00 L 985.00 1500.00 L 1031.00 1608.00 L 1009.00 1558.00 L 919.00 1350.00 L 919.00 1351.00 L 1009.00 1561.00 L 1054.00 1668.00 L 1054.00 1672.00 L 1029.00 1616.00 L 979.00 1500.00 L 979.00 1505.00 L 1029.00 1631.00 L 1027.00 1630.00 L 973.00 1502.00 L 972.00 1505.00 L 1024.00 1639.00 L 1005.00 1593.00 L 915.00 1367.00 L 914.00 1370.00 L 1002.00 1602.00 L 1014.00 1638.00 L 950.00 1478.00 L 948.00 1481.00 L 1008.00 1647.00 L 995.00 1614.00 L 909.00 1382.00 L 907.00 1384.00 L 989.00 1620.00 L 999.00 1651.00 L 937.00 1477.00 L 935.00 1479.00 L 993.00 1657.00 L 982.00 1627.00 L 902.00 1389.00 L 900.00 1391.00 L 976.00 1633.00 L 982.00 1657.00 L 918.00 1463.00 L 915.00 1461.00 L 973.00 1651.00 L 966.00 1629.00 L 894.00 1395.00 L 892.00 1394.00 L 960.00 1626.00 L 960.00 1629.00 L 892.00 1403.00 L 889.00 1399.00 L 951.00 1617.00 L 951.00 1620.00 L 889.00 1408.00 L 886.00 1404.00 L 942.00 1608.00 L 942.00 1611.00 L 886.00 1413.00 L 883.00 1409.00 L 933.00 1599.00 L 933.00 1600.00 L 883.00 1412.00 L 881.00 1410.00 L 927.00 1594.00 L 922.00 1657.00 L 866.00 1599.00 L 802.00 1544.00 L 730.00 1492.00 L 670.00 1455.00 L 622.00 1433.00 L 561.00 1414.00 L 487.00 1398.00 L 473.00 1357.00 L 519.00 1291.00 L 544.00 1253.00 L 548.00 1243.00 L 546.00 1236.00 L 538.00 1232.00 L 549.00 1217.00 L 579.00 1191.00 L 574.00 1191.00 L 534.00 1217.00 L 535.00 1215.00 L 577.00 1185.00 L 575.00 1184.00 L 529.00 1212.00 L 530.00 1209.00 L 578.00 1175.00 L 578.00 1173.00 L 530.00 1203.00 L 522.00 1207.00 L 554.00 1185.00 L 555.00 1183.00 L 525.00 1201.00 L 534.00 1194.00 L 582.00 1162.00 L 607.00 1142.00 L 609.00 1134.00 L 610.00 1113.00 L 610.00 1079.00 L 589.00 1056.00 L 547.00 1044.00 L 523.00 1037.00 L 517.00 1035.00 L 503.00 1030.00 Z" fill="black" stroke="black" stroke-width="1"/>
</svg>