<?xml version="1.0" encoding="UTF-8"?>
<svg xmlns="http://www.w3.org/2000/svg" viewBox="368.00 242.00 834.00 1440.00">
  <path d="M 437.00 957.00 L 475.00 955.00 L 475.00 953.00 L 437.00 951.00 L 418.00 905.00 L 418.00 815.00 L 422.00 752.00 L 430.00 716.00 L 433.00 677.00 L 431.00 635.00 L 433.00 593.00 L 439.00 551.00 L 451.00 502.00 L 469.00 446.00 L 493.00 396.00 L 523.00 352.00 L 555.00 317.00 L 589.00 291.00 L 628.00 271.00 L 672.00 257.00 L 730.00 252.00 L 802.00 256.00 L 868.00 266.00 L 928.00 282.00 L 969.00 296.00 L 991.00 308.00 L 1023.00 337.00 L 1065.00 383.00 L 1094.00 421.00 L 1110.00 451.00 L 1123.00 483.00 L 1133.00 517.00 L 1133.00 557.00 L 1123.00 603.00 L 1137.00 657.00 L 1175.00 719.00 L 1192.00 755.00 L 1188.00 765.00 L 1174.00 776.00 L 1150.00 788.00 L 1148.00 790.00 L 1168.00 782.00 L 1168.00 785.00 L 1148.00 799.00 L 1138.00 819.00 L 1138.00 845.00 L 1135.00 863.00 L 1129.00 873.00 L 1128.00 884.00 L 1132.00 896.00 L 1128.00 913.00 L 1116.00 935.00 L 1109.00 958.00 L 1107.00 982.00 L 1099.00 1001.00 L 1085.00 1015.00 L 1071.00 1023.00 L 1057.00 1025.00 L 1057.00 1033.00 L 1071.00 1047.00 L 1066.00 1077.00 L 1042.00 1123.00 L 1029.00 1155.00 L 1027.00 1173.00 L 1033.00 1190.00 L 1047.00 1206.00 L 1046.00 1208.00 L 1030.00 1196.00 L 1030.00 1199.00 L 1046.00 1217.00 L 1054.00 1233.00 L 1054.00 1247.00 L 1060.00 1263.00 L 1072.00 1281.00 L 1072.00 1284.00 L 1060.00 1272.00 L 1065.00 1279.00 L 1087.00 1305.00 L 1109.00 1365.00 L 1131.00 1459.00 L 1143.00 1528.00 L 1145.00 1572.00 L 1143.00 1603.00 L 1137.00 1621.00 L 1126.00 1639.00 L 1110.00 1657.00 L 1088.00 1668.00 L 1060.00 1672.00 L 1028.00 1665.00 L 992.00 1647.00 L 921.00 1593.00 L 815.00 1503.00 L 731.00 1439.00 L 669.00 1401.00 L 618.00 1374.00 L 578.00 1358.00 L 519.00 1343.00 L 441.00 1329.00 L 404.00 1311.00 L 408.00 1289.00 L 408.00 1279.00 L 404.00 1281.00 L 405.00 1277.00 L 411.00 1267.00 L 409.00 1266.00 L 399.00 1274.00 L 400.00 1272.00 L 412.00 1260.00 L 411.00 1258.00 L 397.00 1266.00 L 398.00 1261.00 L 414.00 1243.00 L 414.00 1240.00 L 398.00 1252.00 L 400.00 1246.00 L 420.00 1222.00 L 421.00 1216.00 L 403.00 1228.00 L 404.00 1223.00 L 424.00 1201.00 L 425.00 1195.00 L 407.00 1205.00 L 410.00 1198.00 L 434.00 1174.00 L 435.00 1169.00 L 413.00 1183.00 L 414.00 1180.00 L 438.00 1160.00 L 438.00 1157.00 L 414.00 1171.00 L 416.00 1166.00 L 444.00 1142.00 L 445.00 1137.00 L 419.00 1151.00 L 420.00 1149.00 L 448.00 1131.00 L 448.00 1129.00 L 420.00 1143.00 L 421.00 1141.00 L 451.00 1123.00 L 451.00 1121.00 L 421.00 1135.00 L 423.00 1131.00 L 457.00 1109.00 L 458.00 1105.00 L 426.00 1119.00 L 416.00 1122.00 L 428.00 1114.00 L 428.00 1112.00 L 416.00 1116.00 L 429.00 1107.00 L 467.00 1085.00 L 466.00 1082.00 L 426.00 1098.00 L 415.00 1102.00 L 433.00 1094.00 L 433.00 1091.00 L 415.00 1093.00 L 426.00 1086.00 L 466.00 1070.00 L 467.00 1067.00 L 429.00 1077.00 L 428.00 1074.00 L 464.00 1058.00 L 464.00 1054.00 L 428.00 1062.00 L 422.00 1062.00 L 446.00 1054.00 L 446.00 1052.00 L 422.00 1056.00 L 427.00 1053.00 L 461.00 1043.00 L 454.00 1042.00 L 406.00 1050.00 L 406.00 1048.00 L 454.00 1036.00 L 452.00 1034.00 L 400.00 1042.00 L 401.00 1040.00 L 455.00 1028.00 L 478.00 1022.00 L 470.00 1022.00 L 470.00 1020.00 L 478.00 1016.00 L 455.00 1019.00 L 401.00 1029.00 L 402.00 1026.00 L 458.00 1010.00 L 462.00 1005.00 L 414.00 1011.00 L 388.00 1012.00 L 384.00 1008.00 L 408.00 1002.00 L 460.00 994.00 L 459.00 992.00 L 405.00 996.00 L 378.00 996.00 L 378.00 992.00 L 403.00 988.00 L 453.00 984.00 L 454.00 983.00 L 406.00 985.00 L 409.00 984.00 L 463.00 980.00 L 465.00 979.00 L 415.00 981.00 L 415.00 978.00 L 465.00 970.00 L 472.00 966.00 L 436.00 966.00 L 437.00 965.00 L 475.00 963.00 L 492.00 962.00 L 488.00 962.00 L 469.00 961.00 L 435.00 959.00 L 437.00 957.00 Z" fill="black" stroke="black" stroke-width="1"/>
</svg>