<?xml version="1.0" encoding="UTF-8"?>
<svg xmlns="http://www.w3.org/2000/svg" viewBox="355.00 247.00 995.00 1439.00">
  <path d="M 616.00 994.00 L 676.00 994.00 L 673.00 991.00 L 607.00 985.00 L 606.00 983.00 L 670.00 985.00 L 668.00 983.00 L 600.00 977.00 L 600.00 975.00 L 668.00 977.00 L 666.00 974.00 L 594.00 966.00 L 551.00 949.00 L 537.00 923.00 L 500.00 901.00 L 440.00 883.00 L 440.00 881.00 L 500.00 895.00 L 490.00 890.00 L 410.00 866.00 L 409.00 864.00 L 487.00 884.00 L 483.00 879.00 L 397.00 849.00 L 396.00 846.00 L 480.00 870.00 L 479.00 867.00 L 393.00 837.00 L 393.00 835.00 L 479.00 861.00 L 478.00 859.00 L 390.00 829.00 L 389.00 827.00 L 475.00 853.00 L 474.00 850.00 L 386.00 818.00 L 386.00 816.00 L 474.00 844.00 L 474.00 841.00 L 386.00 807.00 L 384.00 805.00 L 468.00 835.00 L 467.00 832.00 L 381.00 796.00 L 365.00 711.00 L 419.00 577.00 L 457.00 498.00 L 479.00 474.00 L 495.00 435.00 L 505.00 381.00 L 519.00 355.00 L 537.00 357.00 L 559.00 344.00 L 585.00 316.00 L 628.00 287.00 L 688.00 257.00 L 727.00 267.00 L 745.00 317.00 L 751.00 317.00 L 745.00 267.00 L 748.00 266.00 L 760.00 314.00 L 762.00 314.00 L 754.00 266.00 L 757.00 265.00 L 771.00 311.00 L 776.00 313.00 L 772.00 271.00 L 774.00 270.00 L 782.00 310.00 L 784.00 312.00 L 780.00 276.00 L 783.00 275.00 L 793.00 309.00 L 797.00 315.00 L 795.00 293.00 L 797.00 293.00 L 803.00 315.00 L 835.00 323.00 L 893.00 317.00 L 957.00 323.00 L 1027.00 341.00 L 1100.00 382.00 L 1176.00 446.00 L 1213.00 485.00 L 1211.00 499.00 L 1214.00 502.00 L 1222.00 494.00 L 1223.00 497.00 L 1217.00 511.00 L 1219.00 513.00 L 1229.00 503.00 L 1232.00 508.00 L 1228.00 528.00 L 1232.00 534.00 L 1244.00 526.00 L 1246.00 530.00 L 1238.00 546.00 L 1239.00 549.00 L 1249.00 539.00 L 1250.00 541.00 L 1242.00 555.00 L 1245.00 564.00 L 1259.00 568.00 L 1261.00 576.00 L 1251.00 588.00 L 1252.00 591.00 L 1264.00 585.00 L 1265.00 589.00 L 1255.00 603.00 L 1251.00 643.00 L 1253.00 709.00 L 1272.00 774.00 L 1308.00 838.00 L 1315.00 883.00 L 1293.00 909.00 L 1275.00 969.00 L 1261.00 1063.00 L 1205.00 1132.00 L 1107.00 1176.00 L 1137.00 1313.00 L 1295.00 1543.00 L 1294.00 1545.00 L 1134.00 1319.00 L 1134.00 1321.00 L 1294.00 1551.00 L 1337.00 1615.00 L 1263.00 1513.00 L 1264.00 1519.00 L 1340.00 1633.00 L 1337.00 1631.00 L 1255.00 1513.00 L 1255.00 1516.00 L 1337.00 1640.00 L 1329.00 1629.00 L 1231.00 1483.00 L 1230.00 1487.00 L 1326.00 1641.00 L 1292.00 1592.00 L 1128.00 1340.00 L 1128.00 1343.00 L 1292.00 1601.00 L 1311.00 1635.00 L 1185.00 1445.00 L 1183.00 1450.00 L 1305.00 1650.00 L 1285.00 1618.00 L 1123.00 1354.00 L 1120.00 1359.00 L 1276.00 1633.00 L 1275.00 1636.00 L 1117.00 1368.00 L 1113.00 1373.00 L 1263.00 1651.00 L 1275.00 1676.00 L 1149.00 1448.00 L 1143.00 1447.00 L 1257.00 1673.00 L 1244.00 1651.00 L 1104.00 1381.00 L 1102.00 1380.00 L 1238.00 1648.00 L 1246.00 1669.00 L 1126.00 1443.00 L 1115.00 1436.00 L 1213.00 1648.00 L 1211.00 1646.00 L 1109.00 1430.00 L 1107.00 1429.00 L 1205.00 1643.00 L 1198.00 1629.00 L 1086.00 1387.00 L 1083.00 1385.00 L 1189.00 1623.00 L 1189.00 1625.00 L 1083.00 1391.00 L 1080.00 1389.00 L 1180.00 1619.00 L 1180.00 1622.00 L 1080.00 1398.00 L 1077.00 1396.00 L 1171.00 1616.00 L 1171.00 1619.00 L 1077.00 1405.00 L 1071.00 1401.00 L 1153.00 1607.00 L 1126.00 1676.00 L 990.00 1608.00 L 841.00 1556.00 L 679.00 1520.00 L 613.00 1438.00 L 643.00 1310.00 L 656.00 1232.00 L 652.00 1204.00 L 638.00 1186.00 L 614.00 1178.00 L 623.00 1161.00 L 665.00 1135.00 L 665.00 1132.00 L 623.00 1152.00 L 624.00 1149.00 L 668.00 1123.00 L 670.00 1120.00 L 630.00 1140.00 L 631.00 1137.00 L 673.00 1111.00 L 697.00 1083.00 L 703.00 1053.00 L 706.00 1033.00 L 706.00 1023.00 L 689.00 1017.00 L 655.00 1015.00 L 655.00 1012.00 L 689.00 1008.00 L 679.00 1005.00 L 625.00 1003.00 L 625.00 1001.00 L 679.00 999.00 L 699.00 998.00 L 685.00 998.00 L 655.00 997.00 L 609.00 995.00 L 616.00 994.00 Z" fill="black" stroke="black" stroke-width="1"/>
</svg>