<?xml version="1.0" encoding="UTF-8"?>
<svg xmlns="http://www.w3.org/2000/svg" viewBox="294.00 333.00 912.00 1300.00">
  <path d="M 470.00 960.00 L 454.00 932.00 L 444.00 905.00 L 440.00 879.00 L 427.00 860.00 L 405.00 848.00 L 405.00 845.00 L 427.00 851.00 L 419.00 846.00 L 381.00 830.00 L 381.00 828.00 L 419.00 840.00 L 417.00 838.00 L 375.00 822.00 L 343.00 796.00 L 321.00 760.00 L 308.00 733.00 L 304.00 715.00 L 304.00 689.00 L 308.00 655.00 L 323.00 618.00 L 349.00 578.00 L 379.00 547.00 L 413.00 525.00 L 449.00 508.00 L 487.00 496.00 L 522.00 481.00 L 554.00 463.00 L 577.00 439.00 L 591.00 409.00 L 605.00 395.00 L 619.00 397.00 L 638.00 389.00 L 662.00 371.00 L 688.00 357.00 L 716.00 347.00 L 747.00 343.00 L 781.00 345.00 L 803.00 349.00 L 813.00 355.00 L 820.00 367.00 L 824.00 385.00 L 826.00 388.00 L 826.00 376.00 L 828.00 376.00 L 832.00 388.00 L 866.00 404.00 L 930.00 424.00 L 978.00 446.00 L 1010.00 470.00 L 1041.00 503.00 L 1071.00 545.00 L 1083.00 573.00 L 1077.00 587.00 L 1078.00 588.00 L 1086.00 576.00 L 1091.00 572.00 L 1093.00 576.00 L 1091.00 588.00 L 1085.00 608.00 L 1087.00 611.00 L 1097.00 597.00 L 1098.00 598.00 L 1090.00 614.00 L 1091.00 616.00 L 1101.00 604.00 L 1102.00 606.00 L 1094.00 622.00 L 1095.00 625.00 L 1105.00 615.00 L 1106.00 617.00 L 1098.00 631.00 L 1099.00 633.00 L 1109.00 623.00 L 1110.00 628.00 L 1102.00 648.00 L 1103.00 653.00 L 1113.00 643.00 L 1114.00 645.00 L 1106.00 659.00 L 1107.00 662.00 L 1117.00 654.00 L 1118.00 657.00 L 1110.00 671.00 L 1112.00 672.00 L 1124.00 660.00 L 1125.00 663.00 L 1115.00 681.00 L 1117.00 683.00 L 1131.00 669.00 L 1131.00 670.00 L 1117.00 686.00 L 1118.00 688.00 L 1134.00 676.00 L 1135.00 679.00 L 1121.00 697.00 L 1123.00 700.00 L 1141.00 688.00 L 1142.00 692.00 L 1126.00 712.00 L 1128.00 715.00 L 1148.00 701.00 L 1149.00 703.00 L 1131.00 721.00 L 1129.00 724.00 L 1143.00 712.00 L 1143.00 715.00 L 1129.00 733.00 L 1123.00 756.00 L 1125.00 784.00 L 1129.00 808.00 L 1135.00 828.00 L 1153.00 861.00 L 1183.00 907.00 L 1196.00 937.00 L 1192.00 951.00 L 1183.00 963.00 L 1169.00 973.00 L 1163.00 992.00 L 1165.00 1020.00 L 1161.00 1037.00 L 1151.00 1043.00 L 1148.00 1051.00 L 1152.00 1061.00 L 1147.00 1076.00 L 1133.00 1096.00 L 1128.00 1113.00 L 1132.00 1127.00 L 1132.00 1139.00 L 1128.00 1149.00 L 1113.00 1161.00 L 1087.00 1175.00 L 1047.00 1186.00 L 993.00 1194.00 L 1004.00 1269.00 L 1080.00 1411.00 L 1078.00 1413.00 L 998.00 1275.00 L 994.00 1270.00 L 1066.00 1398.00 L 1105.00 1469.00 L 1111.00 1483.00 L 1109.00 1483.00 L 1099.00 1469.00 L 1101.00 1476.00 L 1115.00 1504.00 L 1080.00 1442.00 L 996.00 1290.00 L 995.00 1292.00 L 1077.00 1448.00 L 1111.00 1513.00 L 1097.00 1487.00 L 1097.00 1489.00 L 1111.00 1519.00 L 1106.00 1512.00 L 1082.00 1468.00 L 1082.00 1470.00 L 1106.00 1518.00 L 1102.00 1513.00 L 1070.00 1455.00 L 1069.00 1459.00 L 1099.00 1525.00 L 1073.00 1475.00 L 991.00 1309.00 L 991.00 1311.00 L 1073.00 1481.00 L 1093.00 1526.00 L 1051.00 1446.00 L 1050.00 1449.00 L 1090.00 1535.00 L 1069.00 1492.00 L 987.00 1320.00 L 985.00 1319.00 L 1063.00 1489.00 L 1101.00 1572.00 L 1099.00 1568.00 L 1100.00 1572.00 L 1104.00 1584.00 L 1082.00 1539.00 L 1034.00 1437.00 L 1033.00 1439.00 L 1079.00 1545.00 L 1063.00 1510.00 L 985.00 1334.00 L 983.00 1336.00 L 1057.00 1516.00 L 1057.00 1519.00 L 983.00 1345.00 L 981.00 1344.00 L 1051.00 1516.00 L 1051.00 1518.00 L 981.00 1350.00 L 979.00 1352.00 L 1045.00 1524.00 L 1045.00 1527.00 L 979.00 1361.00 L 978.00 1362.00 L 1042.00 1530.00 L 1069.00 1617.00 L 1059.00 1623.00 L 1023.00 1597.00 L 961.00 1539.00 L 921.00 1509.00 L 903.00 1507.00 L 858.00 1482.00 L 786.00 1434.00 L 720.00 1397.00 L 660.00 1371.00 L 604.00 1354.00 L 552.00 1346.00 L 524.00 1336.00 L 520.00 1324.00 L 525.00 1296.00 L 539.00 1252.00 L 556.00 1217.00 L 576.00 1191.00 L 578.00 1184.00 L 562.00 1196.00 L 563.00 1194.00 L 581.00 1178.00 L 583.00 1175.00 L 569.00 1185.00 L 574.00 1175.00 L 598.00 1145.00 L 614.00 1103.00 L 622.00 1049.00 L 606.00 1021.00 L 566.00 1019.00 L 530.00 1009.00 L 498.00 991.00 L 481.00 980.00 L 479.00 976.00 L 470.00 960.00 Z" fill="black" stroke="black" stroke-width="1"/>
</svg>