<?xml version="1.0" encoding="UTF-8"?>
<svg xmlns="http://www.w3.org/2000/svg" viewBox="333.00 193.00 879.00 1603.00">
  <path d="M 471.00 955.00 L 481.00 925.00 L 479.00 906.00 L 465.00 898.00 L 456.00 880.00 L 452.00 852.00 L 435.00 804.00 L 405.00 736.00 L 386.00 681.00 L 378.00 639.00 L 375.00 591.00 L 377.00 537.00 L 386.00 483.00 L 402.00 429.00 L 433.00 369.00 L 479.00 303.00 L 530.00 254.00 L 586.00 222.00 L 640.00 205.00 L 692.00 203.00 L 764.00 216.00 L 856.00 244.00 L 912.00 269.00 L 932.00 291.00 L 950.00 306.00 L 966.00 314.00 L 979.00 328.00 L 989.00 348.00 L 1003.00 365.00 L 1021.00 379.00 L 1028.00 395.00 L 1024.00 413.00 L 1027.00 415.00 L 1037.00 401.00 L 1039.00 403.00 L 1033.00 421.00 L 1035.00 424.00 L 1045.00 412.00 L 1048.00 418.00 L 1044.00 442.00 L 1046.00 445.00 L 1054.00 427.00 L 1055.00 428.00 L 1049.00 448.00 L 1050.00 450.00 L 1058.00 434.00 L 1059.00 437.00 L 1053.00 459.00 L 1054.00 462.00 L 1062.00 446.00 L 1063.00 450.00 L 1057.00 474.00 L 1058.00 479.00 L 1066.00 465.00 L 1067.00 468.00 L 1061.00 488.00 L 1062.00 491.00 L 1070.00 477.00 L 1071.00 480.00 L 1065.00 500.00 L 1066.00 519.00 L 1074.00 537.00 L 1078.00 557.00 L 1078.00 579.00 L 1098.00 621.00 L 1138.00 683.00 L 1166.00 718.00 L 1182.00 726.00 L 1189.00 737.00 L 1187.00 751.00 L 1169.00 768.00 L 1135.00 788.00 L 1135.00 791.00 L 1169.00 777.00 L 1168.00 780.00 L 1132.00 800.00 L 1138.00 797.00 L 1186.00 771.00 L 1193.00 769.00 L 1159.00 791.00 L 1162.00 792.00 L 1202.00 772.00 L 1196.00 777.00 L 1144.00 807.00 L 1141.00 811.00 L 1187.00 789.00 L 1187.00 793.00 L 1141.00 823.00 L 1119.00 846.00 L 1121.00 862.00 L 1118.00 876.00 L 1110.00 888.00 L 1108.00 900.00 L 1112.00 912.00 L 1105.00 929.00 L 1087.00 951.00 L 1081.00 970.00 L 1087.00 986.00 L 1088.00 1003.00 L 1084.00 1021.00 L 1062.00 1040.00 L 1022.00 1060.00 L 1010.00 1078.00 L 1026.00 1094.00 L 1026.00 1121.00 L 1010.00 1159.00 L 1007.00 1187.00 L 1017.00 1205.00 L 1016.00 1207.00 L 1004.00 1193.00 L 1007.00 1200.00 L 1025.00 1228.00 L 1023.00 1230.00 L 1001.00 1206.00 L 1011.00 1224.00 L 1053.00 1284.00 L 1052.00 1287.00 L 1008.00 1233.00 L 1005.00 1234.00 L 1043.00 1290.00 L 1050.00 1302.00 L 1026.00 1270.00 L 1023.00 1269.00 L 1041.00 1299.00 L 1044.00 1312.00 L 1032.00 1308.00 L 1015.00 1291.00 L 993.00 1261.00 L 1015.00 1309.00 L 1081.00 1435.00 L 1083.00 1443.00 L 1021.00 1333.00 L 1024.00 1339.00 L 1092.00 1461.00 L 1088.00 1454.00 L 1012.00 1318.00 L 1013.00 1320.00 L 1091.00 1460.00 L 1094.00 1466.00 L 1022.00 1338.00 L 1026.00 1347.00 L 1106.00 1493.00 L 1104.00 1490.00 L 1020.00 1338.00 L 1022.00 1345.00 L 1110.00 1511.00 L 1122.00 1535.00 L 1058.00 1417.00 L 1060.00 1426.00 L 1128.00 1562.00 L 1128.00 1566.00 L 1060.00 1438.00 L 1060.00 1440.00 L 1128.00 1572.00 L 1162.00 1641.00 L 1162.00 1647.00 L 1128.00 1584.00 L 1060.00 1452.00 L 1060.00 1455.00 L 1128.00 1593.00 L 1160.00 1677.00 L 1156.00 1707.00 L 1145.00 1735.00 L 1127.00 1761.00 L 1113.00 1777.00 L 1103.00 1783.00 L 1087.00 1786.00 L 1065.00 1786.00 L 1042.00 1782.00 L 1018.00 1774.00 L 987.00 1756.00 L 949.00 1728.00 L 884.00 1671.00 L 792.00 1585.00 L 710.00 1520.00 L 638.00 1476.00 L 572.00 1444.00 L 512.00 1424.00 L 448.00 1409.00 L 380.00 1399.00 L 345.00 1391.00 L 343.00 1385.00 L 353.00 1368.00 L 375.00 1340.00 L 392.00 1312.00 L 404.00 1284.00 L 420.00 1240.00 L 440.00 1180.00 L 447.00 1139.00 L 441.00 1117.00 L 444.00 1075.00 L 456.00 1013.00 L 463.00 979.00 L 465.00 973.00 L 471.00 955.00 Z" fill="black" stroke="black" stroke-width="1"/>
</svg>