<?xml version="1.0" encoding="UTF-8"?>
<svg xmlns="http://www.w3.org/2000/svg" viewBox="424.00 266.00 817.00 1525.00">
  <path d="M 464.00 958.00 L 468.00 918.00 L 461.00 862.00 L 443.00 790.00 L 434.00 728.00 L 434.00 676.00 L 438.00 632.00 L 446.00 596.00 L 461.00 557.00 L 483.00 515.00 L 511.00 476.00 L 545.00 440.00 L 582.00 409.00 L 622.00 383.00 L 659.00 366.00 L 693.00 358.00 L 708.00 345.00 L 704.00 327.00 L 702.00 313.00 L 702.00 303.00 L 705.00 307.00 L 711.00 325.00 L 712.00 324.00 L 708.00 304.00 L 711.00 309.00 L 721.00 339.00 L 723.00 337.00 L 717.00 303.00 L 718.00 302.00 L 726.00 334.00 L 728.00 333.00 L 724.00 299.00 L 729.00 280.00 L 743.00 276.00 L 754.00 292.00 L 762.00 328.00 L 765.00 331.00 L 763.00 301.00 L 764.00 296.00 L 768.00 316.00 L 770.00 317.00 L 770.00 299.00 L 772.00 304.00 L 776.00 332.00 L 777.00 334.00 L 775.00 310.00 L 777.00 310.00 L 783.00 334.00 L 805.00 346.00 L 843.00 346.00 L 873.00 350.00 L 895.00 358.00 L 921.00 364.00 L 951.00 368.00 L 989.00 382.00 L 1035.00 406.00 L 1074.00 434.00 L 1106.00 466.00 L 1127.00 493.00 L 1137.00 515.00 L 1139.00 531.00 L 1133.00 541.00 L 1131.00 548.00 L 1133.00 552.00 L 1138.00 549.00 L 1146.00 539.00 L 1151.00 535.00 L 1153.00 537.00 L 1150.00 545.00 L 1142.00 559.00 L 1140.00 565.00 L 1144.00 563.00 L 1145.00 566.00 L 1143.00 574.00 L 1147.00 571.00 L 1157.00 557.00 L 1160.00 556.00 L 1156.00 568.00 L 1157.00 570.00 L 1163.00 562.00 L 1161.00 568.00 L 1151.00 588.00 L 1152.00 590.00 L 1164.00 574.00 L 1165.00 576.00 L 1155.00 596.00 L 1156.00 599.00 L 1168.00 585.00 L 1169.00 588.00 L 1159.00 608.00 L 1159.00 612.00 L 1169.00 600.00 L 1170.00 603.00 L 1162.00 621.00 L 1162.00 626.00 L 1170.00 618.00 L 1171.00 622.00 L 1165.00 638.00 L 1166.00 643.00 L 1174.00 637.00 L 1174.00 639.00 L 1166.00 649.00 L 1167.00 650.00 L 1177.00 642.00 L 1178.00 643.00 L 1170.00 653.00 L 1169.00 655.00 L 1175.00 649.00 L 1174.00 654.00 L 1166.00 670.00 L 1161.00 692.00 L 1159.00 720.00 L 1177.00 768.00 L 1215.00 836.00 L 1231.00 876.00 L 1225.00 888.00 L 1214.00 897.00 L 1198.00 903.00 L 1196.00 905.00 L 1208.00 903.00 L 1206.00 904.00 L 1190.00 908.00 L 1187.00 909.00 L 1197.00 907.00 L 1197.00 909.00 L 1187.00 915.00 L 1183.00 932.00 L 1185.00 960.00 L 1181.00 979.00 L 1171.00 989.00 L 1169.00 997.00 L 1175.00 1003.00 L 1178.00 1009.00 L 1178.00 1015.00 L 1170.00 1025.00 L 1154.00 1039.00 L 1150.00 1060.00 L 1158.00 1088.00 L 1159.00 1109.00 L 1153.00 1123.00 L 1145.00 1134.00 L 1135.00 1142.00 L 1132.00 1152.00 L 1136.00 1164.00 L 1131.00 1181.00 L 1117.00 1203.00 L 1102.00 1235.00 L 1086.00 1277.00 L 1078.00 1304.00 L 1078.00 1316.00 L 1087.00 1338.00 L 1105.00 1370.00 L 1104.00 1372.00 L 1084.00 1344.00 L 1087.00 1353.00 L 1113.00 1399.00 L 1122.00 1416.00 L 1114.00 1404.00 L 1126.00 1430.00 L 1158.00 1494.00 L 1163.00 1507.00 L 1141.00 1469.00 L 1147.00 1481.00 L 1181.00 1543.00 L 1183.00 1548.00 L 1153.00 1496.00 L 1154.00 1498.00 L 1186.00 1554.00 L 1184.00 1551.00 L 1148.00 1489.00 L 1151.00 1498.00 L 1193.00 1578.00 L 1216.00 1643.00 L 1220.00 1693.00 L 1214.00 1729.00 L 1198.00 1751.00 L 1184.00 1766.00 L 1172.00 1774.00 L 1160.00 1779.00 L 1148.00 1781.00 L 1125.00 1776.00 L 1091.00 1764.00 L 1059.00 1747.00 L 1029.00 1725.00 L 987.00 1687.00 L 933.00 1633.00 L 889.00 1593.00 L 855.00 1567.00 L 801.00 1535.00 L 727.00 1497.00 L 662.00 1471.00 L 606.00 1457.00 L 552.00 1449.00 L 500.00 1447.00 L 473.00 1398.00 L 471.00 1302.00 L 472.00 1252.00 L 476.00 1248.00 L 476.00 1245.00 L 472.00 1243.00 L 469.00 1236.00 L 467.00 1224.00 L 467.00 1209.00 L 469.00 1191.00 L 469.00 1179.00 L 467.00 1173.00 L 462.00 1171.00 L 454.00 1173.00 L 452.00 1173.00 L 456.00 1171.00 L 452.00 1169.00 L 440.00 1167.00 L 434.00 1164.00 L 434.00 1160.00 L 444.00 1152.00 L 464.00 1140.00 L 466.00 1137.00 L 450.00 1143.00 L 451.00 1140.00 L 469.00 1128.00 L 474.00 1100.00 L 466.00 1056.00 L 462.00 1023.00 L 462.00 1001.00 L 462.00 987.00 L 462.00 981.00 L 464.00 958.00 Z" fill="black" stroke="black" stroke-width="1"/>
</svg>