<?xml version="1.0" encoding="UTF-8"?>
<svg xmlns="http://www.w3.org/2000/svg" viewBox="308.00 376.00 774.00 1331.00">
  <path d="M 346.00 990.00 L 338.00 958.00 L 336.00 908.00 L 340.00 840.00 L 339.00 790.00 L 333.00 758.00 L 330.00 712.00 L 330.00 652.00 L 334.00 604.00 L 342.00 568.00 L 353.00 537.00 L 367.00 511.00 L 382.00 490.00 L 398.00 474.00 L 416.00 459.00 L 436.00 445.00 L 461.00 431.00 L 491.00 417.00 L 534.00 404.00 L 590.00 392.00 L 636.00 386.00 L 672.00 386.00 L 700.00 390.00 L 720.00 398.00 L 739.00 403.00 L 757.00 405.00 L 772.00 410.00 L 784.00 418.00 L 801.00 426.00 L 823.00 434.00 L 844.00 447.00 L 864.00 465.00 L 883.00 478.00 L 901.00 486.00 L 916.00 495.00 L 928.00 505.00 L 936.00 513.00 L 940.00 519.00 L 942.00 526.00 L 942.00 534.00 L 944.00 535.00 L 948.00 529.00 L 951.00 527.00 L 953.00 529.00 L 952.00 534.00 L 948.00 542.00 L 949.00 544.00 L 955.00 540.00 L 956.00 544.00 L 952.00 556.00 L 953.00 557.00 L 959.00 547.00 L 960.00 548.00 L 956.00 560.00 L 957.00 561.00 L 963.00 551.00 L 963.00 552.00 L 957.00 564.00 L 957.00 565.00 L 963.00 555.00 L 964.00 557.00 L 960.00 571.00 L 961.00 574.00 L 967.00 566.00 L 968.00 568.00 L 964.00 580.00 L 964.00 593.00 L 968.00 607.00 L 970.00 621.00 L 970.00 635.00 L 976.00 659.00 L 988.00 693.00 L 993.00 714.00 L 991.00 722.00 L 995.00 734.00 L 1005.00 750.00 L 1023.00 772.00 L 1049.00 800.00 L 1065.00 821.00 L 1071.00 835.00 L 1072.00 846.00 L 1068.00 854.00 L 1058.00 862.00 L 1042.00 870.00 L 1040.00 872.00 L 1052.00 868.00 L 1051.00 869.00 L 1037.00 875.00 L 1033.00 877.00 L 1039.00 875.00 L 1038.00 876.00 L 1030.00 880.00 L 1024.00 886.00 L 1020.00 894.00 L 1020.00 907.00 L 1024.00 925.00 L 1023.00 937.00 L 1017.00 943.00 L 1015.00 946.00 L 1017.00 946.00 L 1015.00 947.00 L 1009.00 949.00 L 1009.00 954.00 L 1015.00 962.00 L 1014.00 976.00 L 1006.00 996.00 L 1004.00 1012.00 L 1008.00 1024.00 L 1009.00 1037.00 L 1007.00 1051.00 L 1003.00 1062.00 L 997.00 1070.00 L 988.00 1077.00 L 976.00 1083.00 L 953.00 1086.00 L 919.00 1086.00 L 902.00 1088.00 L 902.00 1092.00 L 907.00 1099.00 L 917.00 1109.00 L 922.00 1118.00 L 922.00 1126.00 L 912.00 1141.00 L 892.00 1163.00 L 878.00 1186.00 L 870.00 1210.00 L 863.00 1226.00 L 857.00 1234.00 L 854.00 1241.00 L 854.00 1247.00 L 866.00 1272.00 L 890.00 1316.00 L 895.00 1327.00 L 881.00 1305.00 L 882.00 1308.00 L 898.00 1336.00 L 896.00 1334.00 L 876.00 1302.00 L 876.00 1303.00 L 896.00 1337.00 L 892.00 1331.00 L 864.00 1285.00 L 865.00 1288.00 L 895.00 1340.00 L 896.00 1343.00 L 868.00 1297.00 L 868.00 1299.00 L 896.00 1349.00 L 910.00 1376.00 L 910.00 1380.00 L 894.00 1354.00 L 862.00 1298.00 L 862.00 1300.00 L 894.00 1360.00 L 921.00 1419.00 L 943.00 1477.00 L 958.00 1529.00 L 966.00 1575.00 L 970.00 1607.00 L 970.00 1625.00 L 966.00 1644.00 L 958.00 1664.00 L 950.00 1678.00 L 942.00 1686.00 L 933.00 1692.00 L 923.00 1696.00 L 913.00 1697.00 L 903.00 1695.00 L 867.00 1666.00 L 805.00 1610.00 L 752.00 1567.00 L 708.00 1537.00 L 684.00 1519.00 L 680.00 1513.00 L 677.00 1511.00 L 675.00 1513.00 L 673.00 1512.00 L 671.00 1508.00 L 666.00 1505.00 L 658.00 1503.00 L 637.00 1491.00 L 603.00 1469.00 L 561.00 1447.00 L 511.00 1425.00 L 467.00 1409.00 L 429.00 1399.00 L 408.00 1395.00 L 404.00 1397.00 L 400.00 1397.00 L 396.00 1395.00 L 380.00 1394.00 L 352.00 1394.00 L 336.00 1392.00 L 332.00 1388.00 L 331.00 1382.00 L 333.00 1374.00 L 330.00 1363.00 L 322.00 1349.00 L 318.00 1335.00 L 318.00 1321.00 L 321.00 1305.00 L 327.00 1287.00 L 330.00 1274.00 L 330.00 1266.00 L 336.00 1245.00 L 348.00 1211.00 L 353.00 1192.00 L 351.00 1188.00 L 345.00 1185.00 L 335.00 1183.00 L 330.00 1180.00 L 330.00 1176.00 L 333.00 1171.00 L 339.00 1165.00 L 341.00 1159.00 L 339.00 1153.00 L 343.00 1147.00 L 353.00 1141.00 L 355.00 1139.00 L 349.00 1141.00 L 348.00 1141.00 L 352.00 1139.00 L 355.00 1135.00 L 357.00 1129.00 L 357.00 1121.00 L 355.00 1111.00 L 355.00 1089.00 L 357.00 1055.00 L 356.00 1032.00 L 352.00 1020.00 L 350.00 1012.00 L 350.00 1008.00 L 346.00 990.00 Z" fill="black" stroke="black" stroke-width="1"/>
</svg>