<?xml version="1.0" encoding="UTF-8"?>
<svg xmlns="http://www.w3.org/2000/svg" viewBox="327.00 314.00 791.00 1410.00">
  <path d="M 446.00 971.00 L 454.00 957.00 L 446.00 947.00 L 422.00 941.00 L 421.00 939.00 L 443.00 941.00 L 441.00 940.00 L 415.00 936.00 L 399.00 931.00 L 393.00 925.00 L 388.00 899.00 L 384.00 853.00 L 374.00 789.00 L 358.00 707.00 L 352.00 638.00 L 356.00 582.00 L 364.00 534.00 L 376.00 494.00 L 389.00 460.00 L 403.00 432.00 L 413.00 415.00 L 419.00 409.00 L 427.00 406.00 L 437.00 406.00 L 448.00 399.00 L 460.00 385.00 L 489.00 368.00 L 535.00 348.00 L 576.00 334.00 L 612.00 326.00 L 661.00 324.00 L 723.00 328.00 L 785.00 340.00 L 847.00 360.00 L 908.00 400.00 L 968.00 460.00 L 997.00 499.00 L 995.00 517.00 L 997.00 522.00 L 1003.00 514.00 L 1003.00 516.00 L 997.00 528.00 L 998.00 529.00 L 1006.00 519.00 L 1009.00 520.00 L 1007.00 532.00 L 1008.00 535.00 L 1012.00 529.00 L 1011.00 531.00 L 1005.00 541.00 L 1004.00 546.00 L 1008.00 546.00 L 1009.00 548.00 L 1007.00 552.00 L 1010.00 549.00 L 1018.00 539.00 L 1019.00 541.00 L 1013.00 555.00 L 1014.00 557.00 L 1022.00 547.00 L 1022.00 549.00 L 1014.00 563.00 L 1015.00 564.00 L 1025.00 552.00 L 1026.00 555.00 L 1018.00 573.00 L 1019.00 576.00 L 1029.00 564.00 L 1030.00 566.00 L 1022.00 582.00 L 1023.00 584.00 L 1033.00 572.00 L 1034.00 576.00 L 1026.00 596.00 L 1027.00 600.00 L 1037.00 588.00 L 1038.00 591.00 L 1030.00 609.00 L 1031.00 636.00 L 1041.00 672.00 L 1044.00 697.00 L 1040.00 711.00 L 1039.00 726.00 L 1041.00 742.00 L 1059.00 774.00 L 1093.00 822.00 L 1108.00 854.00 L 1104.00 870.00 L 1092.00 882.00 L 1072.00 890.00 L 1067.00 893.00 L 1077.00 891.00 L 1076.00 893.00 L 1064.00 899.00 L 1059.00 915.00 L 1061.00 941.00 L 1058.00 960.00 L 1050.00 972.00 L 1047.00 982.00 L 1049.00 990.00 L 1045.00 1002.00 L 1035.00 1018.00 L 1033.00 1033.00 L 1039.00 1047.00 L 1041.00 1061.00 L 1039.00 1075.00 L 1031.00 1088.00 L 1017.00 1100.00 L 997.00 1106.00 L 971.00 1106.00 L 962.00 1112.00 L 970.00 1124.00 L 961.00 1146.00 L 935.00 1178.00 L 926.00 1203.00 L 934.00 1221.00 L 931.00 1224.00 L 917.00 1212.00 L 915.00 1214.00 L 925.00 1230.00 L 924.00 1231.00 L 912.00 1217.00 L 910.00 1217.00 L 918.00 1231.00 L 917.00 1233.00 L 907.00 1223.00 L 903.00 1222.00 L 905.00 1230.00 L 900.00 1235.00 L 888.00 1237.00 L 886.00 1247.00 L 894.00 1265.00 L 893.00 1266.00 L 883.00 1250.00 L 885.00 1255.00 L 899.00 1281.00 L 907.00 1306.00 L 909.00 1330.00 L 916.00 1357.00 L 928.00 1387.00 L 928.00 1390.00 L 916.00 1366.00 L 922.00 1380.00 L 946.00 1432.00 L 947.00 1436.00 L 925.00 1392.00 L 929.00 1402.00 L 959.00 1466.00 L 958.00 1465.00 L 926.00 1399.00 L 927.00 1403.00 L 961.00 1477.00 L 977.00 1512.00 L 975.00 1508.00 L 978.00 1524.00 L 986.00 1560.00 L 989.00 1576.00 L 987.00 1572.00 L 987.00 1585.00 L 989.00 1615.00 L 987.00 1639.00 L 981.00 1657.00 L 971.00 1675.00 L 957.00 1693.00 L 943.00 1705.00 L 929.00 1711.00 L 916.00 1714.00 L 904.00 1714.00 L 891.00 1711.00 L 877.00 1705.00 L 860.00 1693.00 L 840.00 1675.00 L 806.00 1637.00 L 758.00 1579.00 L 702.00 1528.00 L 638.00 1484.00 L 566.00 1449.00 L 486.00 1423.00 L 418.00 1408.00 L 362.00 1404.00 L 337.00 1387.00 L 343.00 1357.00 L 366.00 1302.00 L 406.00 1222.00 L 428.00 1174.00 L 432.00 1158.00 L 432.00 1138.00 L 428.00 1114.00 L 430.00 1073.00 L 438.00 1015.00 L 442.00 984.00 L 442.00 980.00 L 446.00 971.00 Z" fill="black" stroke="black" stroke-width="1"/>
</svg>