<?xml version="1.0" encoding="UTF-8"?>
<svg xmlns="http://www.w3.org/2000/svg" viewBox="448.00 296.00 819.00 1388.00">
  <path d="M 601.00 941.00 L 543.00 875.00 L 499.00 802.00 L 469.00 722.00 L 458.00 638.00 L 466.00 550.00 L 486.00 477.00 L 518.00 419.00 L 561.00 372.00 L 615.00 336.00 L 690.00 314.00 L 786.00 306.00 L 871.00 312.00 L 945.00 332.00 L 1012.00 361.00 L 1072.00 399.00 L 1110.00 426.00 L 1126.00 442.00 L 1131.00 460.00 L 1125.00 480.00 L 1127.00 482.00 L 1137.00 466.00 L 1138.00 468.00 L 1130.00 488.00 L 1132.00 490.00 L 1144.00 474.00 L 1148.00 481.00 L 1144.00 511.00 L 1147.00 520.00 L 1157.00 508.00 L 1158.00 511.00 L 1150.00 529.00 L 1153.00 532.00 L 1167.00 520.00 L 1169.00 524.00 L 1159.00 544.00 L 1160.00 546.00 L 1172.00 530.00 L 1173.00 533.00 L 1163.00 555.00 L 1165.00 558.00 L 1179.00 542.00 L 1180.00 544.00 L 1168.00 564.00 L 1169.00 567.00 L 1183.00 553.00 L 1184.00 558.00 L 1172.00 582.00 L 1171.00 588.00 L 1181.00 576.00 L 1182.00 580.00 L 1174.00 600.00 L 1176.00 604.00 L 1188.00 592.00 L 1188.00 595.00 L 1176.00 613.00 L 1176.00 615.00 L 1188.00 601.00 L 1189.00 604.00 L 1179.00 624.00 L 1180.00 629.00 L 1192.00 619.00 L 1192.00 622.00 L 1180.00 638.00 L 1180.00 641.00 L 1192.00 631.00 L 1192.00 634.00 L 1180.00 650.00 L 1180.00 652.00 L 1192.00 640.00 L 1192.00 642.00 L 1180.00 658.00 L 1181.00 660.00 L 1195.00 648.00 L 1196.00 651.00 L 1184.00 669.00 L 1201.00 712.00 L 1247.00 780.00 L 1257.00 823.00 L 1231.00 841.00 L 1213.00 900.00 L 1203.00 1000.00 L 1166.00 1062.00 L 1102.00 1086.00 L 1050.00 1116.00 L 1010.00 1152.00 L 1044.00 1276.00 L 1152.00 1488.00 L 1202.00 1587.00 L 1194.00 1573.00 L 1195.00 1576.00 L 1205.00 1596.00 L 1202.00 1591.00 L 1186.00 1561.00 L 1189.00 1569.00 L 1211.00 1615.00 L 1207.00 1610.00 L 1177.00 1554.00 L 1177.00 1557.00 L 1207.00 1619.00 L 1204.00 1615.00 L 1168.00 1545.00 L 1168.00 1550.00 L 1204.00 1630.00 L 1201.00 1627.00 L 1159.00 1541.00 L 1159.00 1543.00 L 1201.00 1633.00 L 1197.00 1629.00 L 1147.00 1531.00 L 1146.00 1535.00 L 1194.00 1641.00 L 1159.00 1566.00 L 1041.00 1310.00 L 1040.00 1312.00 L 1156.00 1572.00 L 1184.00 1640.00 L 1124.00 1516.00 L 1122.00 1520.00 L 1178.00 1652.00 L 1176.00 1650.00 L 1116.00 1514.00 L 1114.00 1517.00 L 1170.00 1659.00 L 1142.00 1595.00 L 1030.00 1325.00 L 1028.00 1328.00 L 1136.00 1604.00 L 1157.00 1662.00 L 1091.00 1502.00 L 1088.00 1504.00 L 1148.00 1668.00 L 1126.00 1612.00 L 1022.00 1336.00 L 1019.00 1338.00 L 1117.00 1618.00 L 1133.00 1668.00 L 1067.00 1488.00 L 1064.00 1490.00 L 1124.00 1674.00 L 1107.00 1627.00 L 1013.00 1349.00 L 1010.00 1349.00 L 1098.00 1627.00 L 1109.00 1668.00 L 1043.00 1472.00 L 1040.00 1473.00 L 1100.00 1671.00 L 1088.00 1633.00 L 1004.00 1359.00 L 1002.00 1359.00 L 1082.00 1633.00 L 1090.00 1666.00 L 1026.00 1458.00 L 1021.00 1452.00 L 1075.00 1648.00 L 1074.00 1647.00 L 1018.00 1449.00 L 1017.00 1448.00 L 1071.00 1644.00 L 1063.00 1615.00 L 993.00 1361.00 L 992.00 1359.00 L 1060.00 1609.00 L 1060.00 1610.00 L 992.00 1362.00 L 989.00 1359.00 L 1051.00 1601.00 L 1051.00 1605.00 L 989.00 1371.00 L 987.00 1368.00 L 1045.00 1596.00 L 1045.00 1599.00 L 987.00 1377.00 L 984.00 1374.00 L 1036.00 1590.00 L 1036.00 1593.00 L 984.00 1383.00 L 980.00 1378.00 L 1024.00 1578.00 L 1017.00 1650.00 L 959.00 1594.00 L 898.00 1543.00 L 834.00 1497.00 L 761.00 1457.00 L 679.00 1423.00 L 598.00 1401.00 L 518.00 1391.00 L 501.00 1339.00 L 547.00 1245.00 L 566.00 1200.00 L 558.00 1204.00 L 573.00 1186.00 L 611.00 1146.00 L 640.00 1102.00 L 660.00 1054.00 L 667.00 1026.00 L 661.00 1018.00 L 662.00 1013.00 L 670.00 1011.00 L 668.00 1008.00 L 656.00 1004.00 L 655.00 1001.00 L 665.00 999.00 L 664.00 998.00 L 652.00 998.00 L 643.00 993.00 L 637.00 983.00 L 633.00 977.00 L 631.00 975.00 L 601.00 941.00 Z" fill="black" stroke="black" stroke-width="1"/>
</svg>