<?xml version="1.0" encoding="UTF-8"?>
<svg xmlns="http://www.w3.org/2000/svg" viewBox="380.00 245.00 836.00 1499.00">
  <path d="M 393.00 963.00 L 399.00 877.00 L 417.00 749.00 L 447.00 579.00 L 470.00 475.00 L 486.00 437.00 L 514.00 392.00 L 554.00 340.00 L 594.00 303.00 L 634.00 281.00 L 670.00 266.00 L 702.00 258.00 L 733.00 255.00 L 763.00 257.00 L 820.00 272.00 L 904.00 300.00 L 969.00 330.00 L 1015.00 362.00 L 1049.00 389.00 L 1071.00 411.00 L 1080.00 431.00 L 1076.00 449.00 L 1078.00 451.00 L 1086.00 437.00 L 1088.00 439.00 L 1084.00 457.00 L 1087.00 463.00 L 1097.00 457.00 L 1099.00 462.00 L 1093.00 478.00 L 1093.00 481.00 L 1099.00 471.00 L 1100.00 470.00 L 1096.00 478.00 L 1097.00 481.00 L 1103.00 479.00 L 1105.00 486.00 L 1103.00 502.00 L 1105.00 505.00 L 1111.00 495.00 L 1113.00 495.00 L 1111.00 505.00 L 1112.00 507.00 L 1116.00 501.00 L 1115.00 504.00 L 1109.00 516.00 L 1109.00 519.00 L 1115.00 513.00 L 1116.00 516.00 L 1112.00 528.00 L 1113.00 531.00 L 1119.00 525.00 L 1119.00 527.00 L 1113.00 537.00 L 1112.00 564.00 L 1116.00 608.00 L 1143.00 666.00 L 1193.00 738.00 L 1206.00 782.00 L 1182.00 798.00 L 1182.00 801.00 L 1206.00 791.00 L 1205.00 794.00 L 1179.00 810.00 L 1178.00 812.00 L 1202.00 800.00 L 1202.00 803.00 L 1178.00 821.00 L 1167.00 839.00 L 1169.00 857.00 L 1163.00 871.00 L 1149.00 881.00 L 1145.00 885.00 L 1151.00 883.00 L 1153.00 889.00 L 1151.00 903.00 L 1143.00 918.00 L 1129.00 934.00 L 1125.00 957.00 L 1131.00 987.00 L 1127.00 1011.00 L 1113.00 1029.00 L 1109.00 1049.00 L 1115.00 1071.00 L 1106.00 1106.00 L 1082.00 1154.00 L 1079.00 1186.00 L 1097.00 1202.00 L 1096.00 1205.00 L 1076.00 1195.00 L 1077.00 1198.00 L 1099.00 1214.00 L 1112.00 1226.00 L 1116.00 1234.00 L 1105.00 1230.00 L 1079.00 1214.00 L 1083.00 1219.00 L 1117.00 1245.00 L 1125.00 1252.00 L 1107.00 1240.00 L 1107.00 1243.00 L 1125.00 1261.00 L 1114.00 1256.00 L 1074.00 1228.00 L 1074.00 1231.00 L 1114.00 1265.00 L 1114.00 1268.00 L 1074.00 1240.00 L 1063.00 1241.00 L 1081.00 1271.00 L 1091.00 1306.00 L 1093.00 1346.00 L 1099.00 1375.00 L 1109.00 1393.00 L 1109.00 1396.00 L 1099.00 1384.00 L 1113.00 1412.00 L 1151.00 1480.00 L 1172.00 1551.00 L 1176.00 1625.00 L 1173.00 1676.00 L 1163.00 1704.00 L 1149.00 1723.00 L 1131.00 1733.00 L 1106.00 1734.00 L 1074.00 1726.00 L 1003.00 1669.00 L 893.00 1563.00 L 798.00 1483.00 L 718.00 1429.00 L 650.00 1393.00 L 594.00 1375.00 L 543.00 1364.00 L 497.00 1360.00 L 455.00 1360.00 L 417.00 1364.00 L 402.00 1356.00 L 410.00 1336.00 L 409.00 1329.00 L 399.00 1335.00 L 400.00 1332.00 L 412.00 1320.00 L 411.00 1318.00 L 397.00 1326.00 L 400.00 1320.00 L 420.00 1300.00 L 420.00 1297.00 L 400.00 1311.00 L 401.00 1307.00 L 423.00 1285.00 L 424.00 1281.00 L 404.00 1295.00 L 408.00 1289.00 L 436.00 1263.00 L 438.00 1258.00 L 414.00 1274.00 L 417.00 1270.00 L 447.00 1246.00 L 447.00 1243.00 L 417.00 1261.00 L 420.00 1256.00 L 456.00 1228.00 L 457.00 1224.00 L 423.00 1244.00 L 424.00 1242.00 L 460.00 1218.00 L 460.00 1215.00 L 424.00 1233.00 L 425.00 1230.00 L 463.00 1206.00 L 463.00 1205.00 L 425.00 1227.00 L 426.00 1226.00 L 466.00 1202.00 L 461.00 1202.00 L 411.00 1226.00 L 412.00 1223.00 L 464.00 1193.00 L 462.00 1192.00 L 406.00 1220.00 L 406.00 1219.00 L 462.00 1189.00 L 461.00 1187.00 L 403.00 1213.00 L 404.00 1210.00 L 464.00 1178.00 L 465.00 1175.00 L 407.00 1201.00 L 407.00 1198.00 L 465.00 1166.00 L 468.00 1161.00 L 416.00 1183.00 L 416.00 1181.00 L 468.00 1155.00 L 464.00 1153.00 L 404.00 1175.00 L 405.00 1172.00 L 467.00 1144.00 L 468.00 1141.00 L 408.00 1163.00 L 405.00 1163.00 L 459.00 1141.00 L 466.00 1137.00 L 426.00 1151.00 L 431.00 1146.00 L 481.00 1122.00 L 481.00 1117.00 L 431.00 1131.00 L 432.00 1128.00 L 484.00 1108.00 L 484.00 1105.00 L 432.00 1119.00 L 432.00 1117.00 L 484.00 1099.00 L 484.00 1096.00 L 432.00 1108.00 L 402.00 1089.00 L 394.00 1039.00 L 390.00 1012.00 L 390.00 1008.00 L 393.00 963.00 Z" fill="black" stroke="black" stroke-width="1"/>
</svg>