<?xml version="1.0" encoding="UTF-8"?>
<svg xmlns="http://www.w3.org/2000/svg" viewBox="317.00 328.00 835.00 1472.00">
  <path d="M 448.00 1031.00 L 460.00 1013.00 L 459.00 1001.00 L 445.00 995.00 L 445.00 993.00 L 459.00 995.00 L 458.00 992.00 L 442.00 984.00 L 433.00 966.00 L 431.00 938.00 L 416.00 905.00 L 388.00 867.00 L 367.00 833.00 L 353.00 803.00 L 341.00 762.00 L 331.00 710.00 L 327.00 658.00 L 329.00 606.00 L 336.00 560.00 L 348.00 520.00 L 364.00 484.00 L 384.00 452.00 L 407.00 424.00 L 433.00 400.00 L 460.00 380.00 L 488.00 364.00 L 541.00 350.00 L 619.00 338.00 L 700.00 341.00 L 784.00 359.00 L 845.00 377.00 L 883.00 395.00 L 928.00 432.00 L 980.00 488.00 L 1005.00 526.00 L 1003.00 546.00 L 1006.00 549.00 L 1014.00 535.00 L 1015.00 538.00 L 1009.00 558.00 L 1011.00 560.00 L 1021.00 544.00 L 1023.00 547.00 L 1017.00 569.00 L 1018.00 573.00 L 1026.00 559.00 L 1028.00 564.00 L 1024.00 588.00 L 1026.00 594.00 L 1034.00 582.00 L 1035.00 584.00 L 1029.00 600.00 L 1031.00 603.00 L 1041.00 593.00 L 1042.00 596.00 L 1034.00 612.00 L 1035.00 614.00 L 1045.00 602.00 L 1047.00 606.00 L 1041.00 626.00 L 1043.00 632.00 L 1053.00 624.00 L 1055.00 626.00 L 1049.00 638.00 L 1046.00 646.00 L 1046.00 650.00 L 1049.00 648.00 L 1055.00 640.00 L 1055.00 641.00 L 1049.00 651.00 L 1049.00 652.00 L 1055.00 644.00 L 1056.00 651.00 L 1052.00 673.00 L 1054.00 680.00 L 1062.00 672.00 L 1063.00 693.00 L 1057.00 743.00 L 1076.00 789.00 L 1120.00 831.00 L 1142.00 856.00 L 1142.00 864.00 L 1133.00 879.00 L 1115.00 901.00 L 1107.00 929.00 L 1109.00 963.00 L 1095.00 1000.00 L 1065.00 1040.00 L 1046.00 1075.00 L 1038.00 1105.00 L 1019.00 1127.00 L 989.00 1141.00 L 985.00 1160.00 L 1007.00 1184.00 L 1009.00 1204.00 L 991.00 1220.00 L 977.00 1238.00 L 967.00 1258.00 L 968.00 1277.00 L 980.00 1295.00 L 979.00 1297.00 L 965.00 1283.00 L 964.00 1285.00 L 976.00 1303.00 L 975.00 1304.00 L 961.00 1288.00 L 976.00 1308.00 L 1020.00 1364.00 L 1019.00 1365.00 L 973.00 1311.00 L 969.00 1311.00 L 1007.00 1365.00 L 1006.00 1368.00 L 966.00 1320.00 L 959.00 1317.00 L 985.00 1359.00 L 984.00 1360.00 L 956.00 1320.00 L 954.00 1319.00 L 978.00 1357.00 L 979.00 1362.00 L 957.00 1334.00 L 953.00 1334.00 L 967.00 1362.00 L 965.00 1363.00 L 947.00 1337.00 L 945.00 1337.00 L 959.00 1363.00 L 956.00 1364.00 L 936.00 1340.00 L 935.00 1356.00 L 953.00 1412.00 L 961.00 1438.00 L 959.00 1434.00 L 978.00 1475.00 L 1018.00 1561.00 L 1022.00 1572.00 L 990.00 1508.00 L 991.00 1511.00 L 1025.00 1581.00 L 1022.00 1575.00 L 982.00 1493.00 L 983.00 1496.00 L 1025.00 1584.00 L 1026.00 1587.00 L 986.00 1505.00 L 988.00 1514.00 L 1032.00 1614.00 L 1053.00 1678.00 L 1051.00 1706.00 L 1040.00 1736.00 L 1020.00 1768.00 L 996.00 1786.00 L 968.00 1790.00 L 945.00 1788.00 L 927.00 1780.00 L 874.00 1737.00 L 786.00 1659.00 L 710.00 1601.00 L 646.00 1563.00 L 582.00 1534.00 L 518.00 1514.00 L 454.00 1500.00 L 390.00 1492.00 L 360.00 1474.00 L 364.00 1446.00 L 382.00 1388.00 L 414.00 1300.00 L 426.00 1240.00 L 418.00 1208.00 L 420.00 1157.00 L 432.00 1087.00 L 439.00 1049.00 L 441.00 1043.00 L 448.00 1031.00 Z" fill="black" stroke="black" stroke-width="1"/>
</svg>