<?xml version="1.0" encoding="UTF-8"?>
<svg xmlns="http://www.w3.org/2000/svg" viewBox="261.00 225.00 991.00 1494.00">
  <path d="M 357.00 940.00 L 355.00 908.00 L 338.00 878.00 L 306.00 850.00 L 311.00 802.00 L 353.00 734.00 L 373.00 667.00 L 371.00 601.00 L 375.00 574.00 L 385.00 586.00 L 385.00 584.00 L 375.00 568.00 L 376.00 566.00 L 388.00 578.00 L 388.00 573.00 L 376.00 551.00 L 377.00 549.00 L 391.00 567.00 L 392.00 565.00 L 380.00 543.00 L 381.00 540.00 L 395.00 556.00 L 396.00 554.00 L 384.00 534.00 L 384.00 532.00 L 396.00 548.00 L 397.00 546.00 L 387.00 526.00 L 388.00 523.00 L 400.00 537.00 L 401.00 534.00 L 391.00 514.00 L 393.00 511.00 L 407.00 525.00 L 411.00 521.00 L 405.00 499.00 L 407.00 496.00 L 417.00 512.00 L 417.00 509.00 L 407.00 487.00 L 409.00 484.00 L 423.00 500.00 L 424.00 497.00 L 412.00 475.00 L 414.00 471.00 L 430.00 485.00 L 434.00 479.00 L 426.00 453.00 L 458.00 410.00 L 530.00 350.00 L 608.00 311.00 L 692.00 293.00 L 737.00 276.00 L 743.00 260.00 L 746.00 260.00 L 746.00 276.00 L 748.00 273.00 L 752.00 251.00 L 755.00 252.00 L 757.00 276.00 L 760.00 274.00 L 764.00 246.00 L 766.00 245.00 L 766.00 271.00 L 771.00 271.00 L 781.00 245.00 L 784.00 247.00 L 780.00 277.00 L 783.00 277.00 L 793.00 247.00 L 812.00 235.00 L 840.00 241.00 L 892.00 264.00 L 968.00 304.00 L 1013.00 344.00 L 1027.00 384.00 L 1057.00 402.00 L 1103.00 398.00 L 1149.00 415.00 L 1195.00 453.00 L 1225.00 495.00 L 1239.00 541.00 L 1242.00 601.00 L 1234.00 675.00 L 1180.00 736.00 L 1080.00 784.00 L 1079.00 786.00 L 1177.00 742.00 L 1176.00 743.00 L 1076.00 789.00 L 1074.00 793.00 L 1170.00 755.00 L 1169.00 760.00 L 1071.00 808.00 L 1068.00 814.00 L 1160.00 778.00 L 1159.00 780.00 L 1065.00 820.00 L 1062.00 824.00 L 1150.00 792.00 L 1148.00 795.00 L 1056.00 833.00 L 1049.00 840.00 L 1127.00 816.00 L 1126.00 818.00 L 1046.00 846.00 L 1044.00 848.00 L 1120.00 824.00 L 1119.00 826.00 L 1041.00 854.00 L 973.00 900.00 L 915.00 964.00 L 891.00 1026.00 L 901.00 1086.00 L 938.00 1189.00 L 1002.00 1335.00 L 991.00 1415.00 L 905.00 1429.00 L 819.00 1455.00 L 733.00 1493.00 L 623.00 1572.00 L 489.00 1692.00 L 465.00 1622.00 L 551.00 1362.00 L 547.00 1365.00 L 453.00 1631.00 L 453.00 1628.00 L 547.00 1356.00 L 544.00 1360.00 L 444.00 1640.00 L 444.00 1637.00 L 544.00 1351.00 L 535.00 1360.00 L 417.00 1664.00 L 417.00 1661.00 L 535.00 1351.00 L 530.00 1352.00 L 402.00 1664.00 L 401.00 1662.00 L 527.00 1346.00 L 522.00 1344.00 L 386.00 1656.00 L 385.00 1653.00 L 519.00 1335.00 L 514.00 1332.00 L 370.00 1644.00 L 339.00 1709.00 L 421.00 1527.00 L 417.00 1523.00 L 327.00 1697.00 L 357.00 1630.00 L 507.00 1322.00 L 504.00 1319.00 L 348.00 1621.00 L 307.00 1698.00 L 381.00 1550.00 L 380.00 1547.00 L 304.00 1689.00 L 302.00 1690.00 L 374.00 1550.00 L 372.00 1548.00 L 296.00 1684.00 L 290.00 1690.00 L 354.00 1566.00 L 353.00 1560.00 L 287.00 1672.00 L 334.00 1585.00 L 494.00 1299.00 L 494.00 1296.00 L 334.00 1576.00 L 280.00 1669.00 L 332.00 1575.00 L 332.00 1571.00 L 280.00 1657.00 L 275.00 1663.00 L 317.00 1589.00 L 317.00 1587.00 L 275.00 1657.00 L 271.00 1661.00 L 305.00 1599.00 L 307.00 1593.00 L 277.00 1643.00 L 275.00 1646.00 L 301.00 1602.00 L 302.00 1599.00 L 278.00 1637.00 L 272.00 1645.00 L 284.00 1623.00 L 359.00 1496.00 L 497.00 1264.00 L 523.00 1136.00 L 437.00 1112.00 L 386.00 1066.00 L 370.00 998.00 L 361.00 962.00 L 359.00 958.00 L 357.00 940.00 Z" fill="black" stroke="black" stroke-width="1"/>
</svg>