<?xml version="1.0" encoding="UTF-8"?>
<svg xmlns="http://www.w3.org/2000/svg" viewBox="452.00 358.00 731.00 1340.00">
  <path d="M 522.00 1030.00 L 570.00 1030.00 L 570.00 1028.00 L 522.00 1024.00 L 522.00 1021.00 L 570.00 1019.00 L 569.00 1014.00 L 519.00 1006.00 L 519.00 1004.00 L 569.00 1008.00 L 569.00 1005.00 L 519.00 995.00 L 519.00 993.00 L 569.00 999.00 L 569.00 995.00 L 519.00 981.00 L 486.00 927.00 L 470.00 833.00 L 462.00 742.00 L 462.00 654.00 L 478.00 575.00 L 510.00 505.00 L 553.00 450.00 L 607.00 410.00 L 664.00 383.00 L 724.00 369.00 L 797.00 368.00 L 883.00 380.00 L 937.00 392.00 L 959.00 404.00 L 970.00 417.00 L 970.00 431.00 L 974.00 434.00 L 982.00 426.00 L 985.00 429.00 L 983.00 443.00 L 985.00 444.00 L 991.00 432.00 L 992.00 433.00 L 988.00 447.00 L 989.00 448.00 L 995.00 436.00 L 997.00 438.00 L 995.00 454.00 L 998.00 458.00 L 1006.00 450.00 L 1009.00 453.00 L 1007.00 467.00 L 1010.00 470.00 L 1018.00 462.00 L 1021.00 466.00 L 1019.00 482.00 L 1021.00 483.00 L 1027.00 469.00 L 1029.00 471.00 L 1027.00 489.00 L 1029.00 491.00 L 1035.00 477.00 L 1037.00 480.00 L 1035.00 500.00 L 1050.00 545.00 L 1082.00 615.00 L 1096.00 660.00 L 1092.00 680.00 L 1114.00 718.00 L 1162.00 774.00 L 1173.00 812.00 L 1147.00 832.00 L 1147.00 835.00 L 1173.00 821.00 L 1173.00 824.00 L 1147.00 844.00 L 1134.00 872.00 L 1134.00 908.00 L 1127.00 934.00 L 1113.00 950.00 L 1109.00 965.00 L 1115.00 979.00 L 1113.00 1003.00 L 1103.00 1037.00 L 1100.00 1063.00 L 1104.00 1081.00 L 1094.00 1105.00 L 1070.00 1135.00 L 1062.00 1156.00 L 1070.00 1168.00 L 1068.00 1171.00 L 1056.00 1165.00 L 1060.00 1171.00 L 1080.00 1189.00 L 1079.00 1192.00 L 1057.00 1180.00 L 1070.00 1201.00 L 1118.00 1255.00 L 1114.00 1263.00 L 1058.00 1225.00 L 1057.00 1227.00 L 1111.00 1269.00 L 1107.00 1269.00 L 1045.00 1227.00 L 1032.00 1221.00 L 1068.00 1251.00 L 1069.00 1254.00 L 1035.00 1230.00 L 1050.00 1296.00 L 1114.00 1452.00 L 1147.00 1550.00 L 1149.00 1590.00 L 1145.00 1624.00 L 1135.00 1652.00 L 1120.00 1672.00 L 1100.00 1684.00 L 1076.00 1688.00 L 1048.00 1684.00 L 992.00 1641.00 L 908.00 1559.00 L 836.00 1496.00 L 776.00 1452.00 L 721.00 1422.00 L 671.00 1406.00 L 617.00 1398.00 L 559.00 1398.00 L 533.00 1382.00 L 539.00 1350.00 L 536.00 1341.00 L 524.00 1355.00 L 525.00 1352.00 L 539.00 1332.00 L 537.00 1332.00 L 519.00 1352.00 L 520.00 1349.00 L 540.00 1323.00 L 539.00 1321.00 L 517.00 1343.00 L 519.00 1337.00 L 545.00 1303.00 L 546.00 1298.00 L 522.00 1322.00 L 522.00 1320.00 L 546.00 1292.00 L 546.00 1290.00 L 522.00 1314.00 L 525.00 1309.00 L 555.00 1275.00 L 555.00 1272.00 L 525.00 1300.00 L 526.00 1297.00 L 558.00 1263.00 L 558.00 1260.00 L 526.00 1288.00 L 528.00 1284.00 L 564.00 1248.00 L 564.00 1246.00 L 528.00 1278.00 L 529.00 1276.00 L 567.00 1240.00 L 567.00 1237.00 L 529.00 1267.00 L 529.00 1264.00 L 567.00 1228.00 L 567.00 1225.00 L 529.00 1255.00 L 531.00 1250.00 L 573.00 1210.00 L 574.00 1205.00 L 534.00 1235.00 L 535.00 1233.00 L 577.00 1199.00 L 577.00 1197.00 L 535.00 1227.00 L 522.00 1234.00 L 538.00 1218.00 L 538.00 1215.00 L 522.00 1225.00 L 535.00 1215.00 L 577.00 1185.00 L 577.00 1181.00 L 535.00 1203.00 L 534.00 1200.00 L 574.00 1172.00 L 568.00 1170.00 L 516.00 1194.00 L 515.00 1191.00 L 565.00 1161.00 L 563.00 1160.00 L 509.00 1188.00 L 509.00 1186.00 L 563.00 1154.00 L 562.00 1151.00 L 506.00 1177.00 L 506.00 1175.00 L 562.00 1145.00 L 559.00 1141.00 L 497.00 1163.00 L 497.00 1160.00 L 559.00 1132.00 L 557.00 1131.00 L 491.00 1157.00 L 484.00 1158.00 L 536.00 1134.00 L 535.00 1131.00 L 481.00 1149.00 L 488.00 1145.00 L 556.00 1119.00 L 556.00 1117.00 L 488.00 1139.00 L 488.00 1136.00 L 556.00 1108.00 L 568.00 1100.00 L 524.00 1112.00 L 519.00 1111.00 L 553.00 1097.00 L 553.00 1092.00 L 519.00 1096.00 L 524.00 1093.00 L 568.00 1083.00 L 568.00 1081.00 L 524.00 1087.00 L 524.00 1085.00 L 568.00 1075.00 L 567.00 1070.00 L 521.00 1070.00 L 521.00 1067.00 L 567.00 1061.00 L 568.00 1059.00 L 524.00 1061.00 L 524.00 1058.00 L 568.00 1050.00 L 568.00 1047.00 L 524.00 1049.00 L 524.00 1047.00 L 568.00 1041.00 L 568.00 1038.00 L 524.00 1038.00 L 501.00 1036.00 L 499.00 1032.00 L 522.00 1030.00 Z" fill="black" stroke="black" stroke-width="1"/>
</svg>