<?xml version="1.0" encoding="UTF-8"?>
<svg xmlns="http://www.w3.org/2000/svg" viewBox="427.00 241.00 813.00 1467.00">
  <path d="M 571.00 1008.00 L 573.00 988.00 L 579.00 971.00 L 589.00 957.00 L 588.00 947.00 L 576.00 941.00 L 575.00 939.00 L 585.00 941.00 L 585.00 939.00 L 575.00 933.00 L 561.00 906.00 L 543.00 858.00 L 517.00 812.00 L 483.00 768.00 L 458.00 716.00 L 442.00 656.00 L 437.00 599.00 L 443.00 545.00 L 457.00 494.00 L 479.00 446.00 L 512.00 397.00 L 556.00 347.00 L 593.00 313.00 L 623.00 295.00 L 664.00 278.00 L 716.00 262.00 L 769.00 253.00 L 823.00 251.00 L 864.00 255.00 L 892.00 265.00 L 915.00 270.00 L 933.00 270.00 L 954.00 278.00 L 978.00 294.00 L 1001.00 305.00 L 1023.00 311.00 L 1059.00 337.00 L 1109.00 383.00 L 1136.00 425.00 L 1140.00 463.00 L 1144.00 478.00 L 1148.00 470.00 L 1148.00 473.00 L 1144.00 487.00 L 1145.00 489.00 L 1151.00 479.00 L 1152.00 482.00 L 1148.00 498.00 L 1150.00 520.00 L 1158.00 548.00 L 1161.00 582.00 L 1159.00 622.00 L 1179.00 669.00 L 1221.00 723.00 L 1227.00 765.00 L 1197.00 795.00 L 1198.00 799.00 L 1230.00 777.00 L 1229.00 779.00 L 1195.00 805.00 L 1194.00 809.00 L 1226.00 791.00 L 1227.00 794.00 L 1197.00 818.00 L 1185.00 835.00 L 1191.00 845.00 L 1191.00 860.00 L 1185.00 880.00 L 1185.00 894.00 L 1191.00 902.00 L 1183.00 916.00 L 1161.00 936.00 L 1146.00 963.00 L 1138.00 997.00 L 1114.00 1024.00 L 1074.00 1044.00 L 1064.00 1060.00 L 1084.00 1072.00 L 1091.00 1105.00 L 1085.00 1159.00 L 1094.00 1201.00 L 1118.00 1231.00 L 1118.00 1236.00 L 1094.00 1216.00 L 1111.00 1234.00 L 1169.00 1290.00 L 1169.00 1292.00 L 1111.00 1240.00 L 1107.00 1241.00 L 1157.00 1295.00 L 1156.00 1297.00 L 1104.00 1247.00 L 1101.00 1246.00 L 1147.00 1294.00 L 1147.00 1296.00 L 1101.00 1252.00 L 1096.00 1251.00 L 1132.00 1293.00 L 1137.00 1300.00 L 1111.00 1272.00 L 1109.00 1271.00 L 1131.00 1297.00 L 1129.00 1297.00 L 1103.00 1271.00 L 1095.00 1265.00 L 1105.00 1279.00 L 1103.00 1279.00 L 1089.00 1265.00 L 1087.00 1264.00 L 1097.00 1276.00 L 1096.00 1276.00 L 1084.00 1264.00 L 1082.00 1263.00 L 1090.00 1273.00 L 1090.00 1275.00 L 1082.00 1269.00 L 1084.00 1275.00 L 1096.00 1293.00 L 1094.00 1293.00 L 1078.00 1275.00 L 1079.00 1278.00 L 1097.00 1302.00 L 1099.00 1305.00 L 1085.00 1287.00 L 1081.00 1282.00 L 1087.00 1290.00 L 1085.00 1291.00 L 1075.00 1285.00 L 1093.00 1322.00 L 1139.00 1402.00 L 1144.00 1415.00 L 1108.00 1361.00 L 1110.00 1366.00 L 1150.00 1430.00 L 1147.00 1427.00 L 1101.00 1357.00 L 1102.00 1359.00 L 1150.00 1433.00 L 1175.00 1472.00 L 1177.00 1476.00 L 1154.00 1441.00 L 1106.00 1367.00 L 1107.00 1369.00 L 1157.00 1447.00 L 1186.00 1497.00 L 1194.00 1519.00 L 1199.00 1555.00 L 1201.00 1605.00 L 1195.00 1642.00 L 1181.00 1666.00 L 1163.00 1684.00 L 1141.00 1696.00 L 1127.00 1698.00 L 1121.00 1690.00 L 1118.00 1690.00 L 1118.00 1698.00 L 1114.00 1698.00 L 1106.00 1690.00 L 1103.00 1690.00 L 1105.00 1698.00 L 1100.00 1695.00 L 1088.00 1681.00 L 1083.00 1680.00 L 1085.00 1692.00 L 1081.00 1690.00 L 1071.00 1674.00 L 1067.00 1672.00 L 1069.00 1684.00 L 1029.00 1652.00 L 947.00 1576.00 L 869.00 1514.00 L 795.00 1466.00 L 716.00 1427.00 L 632.00 1397.00 L 559.00 1379.00 L 497.00 1373.00 L 481.00 1343.00 L 511.00 1289.00 L 537.00 1234.00 L 559.00 1178.00 L 567.00 1143.00 L 561.00 1129.00 L 561.00 1099.00 L 567.00 1053.00 L 570.00 1027.00 L 570.00 1021.00 L 571.00 1008.00 Z" fill="black" stroke="black" stroke-width="1"/>
</svg>