<?xml version="1.0" encoding="UTF-8"?>
<svg xmlns="http://www.w3.org/2000/svg" viewBox="434.00 360.00 748.00 1303.00">
  <path d="M 497.00 980.00 L 495.00 952.00 L 487.00 928.00 L 473.00 908.00 L 468.00 891.00 L 472.00 877.00 L 471.00 864.00 L 465.00 852.00 L 466.00 839.00 L 474.00 825.00 L 478.00 814.00 L 478.00 806.00 L 469.00 792.00 L 451.00 772.00 L 444.00 758.00 L 448.00 750.00 L 466.00 732.00 L 498.00 704.00 L 520.00 681.00 L 532.00 663.00 L 538.00 649.00 L 538.00 639.00 L 541.00 628.00 L 547.00 616.00 L 547.00 604.00 L 541.00 592.00 L 541.00 591.00 L 547.00 601.00 L 548.00 599.00 L 544.00 585.00 L 545.00 583.00 L 551.00 593.00 L 552.00 592.00 L 548.00 580.00 L 549.00 578.00 L 555.00 586.00 L 554.00 574.00 L 546.00 542.00 L 550.00 516.00 L 566.00 496.00 L 573.00 481.00 L 571.00 471.00 L 572.00 468.00 L 576.00 472.00 L 578.00 469.00 L 578.00 459.00 L 584.00 448.00 L 596.00 436.00 L 611.00 427.00 L 629.00 421.00 L 647.00 411.00 L 665.00 397.00 L 687.00 387.00 L 713.00 381.00 L 730.00 379.00 L 738.00 381.00 L 750.00 379.00 L 766.00 373.00 L 796.00 370.00 L 840.00 370.00 L 882.00 374.00 L 922.00 382.00 L 967.00 395.00 L 1017.00 413.00 L 1060.00 436.00 L 1096.00 464.00 L 1122.00 492.00 L 1138.00 520.00 L 1151.00 552.00 L 1161.00 588.00 L 1168.00 640.00 L 1172.00 708.00 L 1170.00 759.00 L 1162.00 793.00 L 1154.00 819.00 L 1146.00 837.00 L 1139.00 848.00 L 1133.00 852.00 L 1130.00 858.00 L 1130.00 866.00 L 1120.00 884.00 L 1100.00 912.00 L 1081.00 930.00 L 1063.00 938.00 L 1060.00 941.00 L 1072.00 939.00 L 1074.00 939.00 L 1066.00 941.00 L 1065.00 942.00 L 1071.00 942.00 L 1073.00 943.00 L 1071.00 945.00 L 1065.00 947.00 L 1055.00 949.00 L 1054.00 961.00 L 1062.00 983.00 L 1066.00 1019.00 L 1066.00 1069.00 L 1064.00 1098.00 L 1060.00 1106.00 L 1070.00 1146.00 L 1094.00 1218.00 L 1116.00 1274.00 L 1136.00 1314.00 L 1148.00 1340.00 L 1152.00 1352.00 L 1153.00 1361.00 L 1151.00 1367.00 L 1135.00 1367.00 L 1105.00 1361.00 L 1074.00 1359.00 L 1042.00 1361.00 L 1024.00 1360.00 L 1020.00 1356.00 L 1018.00 1357.00 L 1018.00 1363.00 L 1016.00 1367.00 L 1012.00 1369.00 L 985.00 1376.00 L 935.00 1388.00 L 891.00 1403.00 L 853.00 1421.00 L 830.00 1435.00 L 822.00 1445.00 L 799.00 1464.00 L 761.00 1492.00 L 715.00 1534.00 L 661.00 1590.00 L 614.00 1627.00 L 574.00 1645.00 L 547.00 1653.00 L 533.00 1651.00 L 516.00 1641.00 L 496.00 1623.00 L 481.00 1602.00 L 471.00 1578.00 L 467.00 1556.00 L 469.00 1536.00 L 469.00 1527.00 L 467.00 1529.00 L 476.00 1499.00 L 496.00 1437.00 L 505.00 1407.00 L 503.00 1409.00 L 515.00 1388.00 L 541.00 1344.00 L 548.00 1331.00 L 536.00 1349.00 L 537.00 1346.00 L 551.00 1322.00 L 558.00 1296.00 L 558.00 1268.00 L 564.00 1241.00 L 576.00 1215.00 L 568.00 1217.00 L 540.00 1247.00 L 530.00 1257.00 L 538.00 1247.00 L 536.00 1248.00 L 524.00 1260.00 L 531.00 1251.00 L 557.00 1221.00 L 553.00 1223.00 L 519.00 1257.00 L 522.00 1252.00 L 562.00 1208.00 L 559.00 1209.00 L 513.00 1255.00 L 513.00 1253.00 L 559.00 1203.00 L 556.00 1201.00 L 504.00 1247.00 L 503.00 1246.00 L 553.00 1198.00 L 567.00 1184.00 L 545.00 1204.00 L 544.00 1202.00 L 564.00 1178.00 L 556.00 1138.00 L 520.00 1082.00 L 508.00 1047.00 L 520.00 1033.00 L 519.00 1019.00 L 505.00 1005.00 L 498.00 997.00 L 498.00 995.00 L 497.00 980.00 Z" fill="black" stroke="black" stroke-width="1"/>
</svg>