<?xml version="1.0" encoding="UTF-8"?>
<svg xmlns="http://www.w3.org/2000/svg" viewBox="300.00 315.00 815.00 1416.00">
  <path d="M 378.00 995.00 L 370.00 981.00 L 368.00 968.00 L 372.00 956.00 L 371.00 947.00 L 365.00 941.00 L 364.00 925.00 L 368.00 899.00 L 358.00 878.00 L 334.00 862.00 L 335.00 859.00 L 361.00 869.00 L 358.00 865.00 L 326.00 847.00 L 326.00 845.00 L 358.00 859.00 L 358.00 857.00 L 326.00 839.00 L 310.00 828.00 L 310.00 824.00 L 335.00 790.00 L 385.00 726.00 L 409.00 677.00 L 407.00 643.00 L 416.00 605.00 L 436.00 563.00 L 443.00 534.00 L 437.00 518.00 L 435.00 512.00 L 437.00 516.00 L 438.00 515.00 L 438.00 509.00 L 441.00 512.00 L 447.00 524.00 L 448.00 522.00 L 444.00 506.00 L 445.00 504.00 L 451.00 516.00 L 452.00 514.00 L 448.00 498.00 L 449.00 496.00 L 455.00 508.00 L 456.00 506.00 L 452.00 490.00 L 453.00 486.00 L 459.00 494.00 L 461.00 491.00 L 459.00 477.00 L 461.00 475.00 L 467.00 485.00 L 468.00 482.00 L 464.00 466.00 L 465.00 463.00 L 471.00 473.00 L 472.00 472.00 L 468.00 460.00 L 470.00 458.00 L 478.00 466.00 L 480.00 464.00 L 476.00 452.00 L 475.00 444.00 L 477.00 440.00 L 480.00 443.00 L 484.00 453.00 L 487.00 457.00 L 489.00 455.00 L 490.00 446.00 L 490.00 430.00 L 505.00 409.00 L 535.00 383.00 L 563.00 364.00 L 589.00 352.00 L 639.00 340.00 L 713.00 328.00 L 771.00 325.00 L 813.00 331.00 L 861.00 347.00 L 915.00 373.00 L 955.00 397.00 L 981.00 419.00 L 1001.00 440.00 L 1015.00 460.00 L 1031.00 493.00 L 1049.00 539.00 L 1061.00 576.00 L 1067.00 604.00 L 1070.00 642.00 L 1070.00 690.00 L 1063.00 749.00 L 1049.00 819.00 L 1042.00 868.00 L 1042.00 896.00 L 1047.00 924.00 L 1057.00 952.00 L 1063.00 975.00 L 1065.00 993.00 L 1065.00 1016.00 L 1063.00 1044.00 L 1061.00 1060.00 L 1059.00 1064.00 L 1046.00 1067.00 L 1022.00 1069.00 L 1021.00 1072.00 L 1043.00 1076.00 L 1043.00 1078.00 L 1021.00 1078.00 L 1020.00 1081.00 L 1040.00 1087.00 L 1040.00 1089.00 L 1020.00 1087.00 L 1019.00 1089.00 L 1037.00 1095.00 L 1038.00 1098.00 L 1022.00 1098.00 L 1013.00 1110.00 L 1011.00 1134.00 L 1014.00 1153.00 L 1022.00 1167.00 L 1027.00 1189.00 L 1029.00 1219.00 L 1042.00 1255.00 L 1066.00 1297.00 L 1087.00 1349.00 L 1105.00 1411.00 L 1082.00 1441.00 L 1018.00 1439.00 L 963.00 1444.00 L 917.00 1456.00 L 872.00 1471.00 L 828.00 1489.00 L 790.00 1507.00 L 758.00 1525.00 L 696.00 1566.00 L 604.00 1630.00 L 541.00 1671.00 L 507.00 1689.00 L 474.00 1704.00 L 442.00 1716.00 L 416.00 1721.00 L 396.00 1719.00 L 377.00 1711.00 L 359.00 1697.00 L 345.00 1679.00 L 335.00 1657.00 L 329.00 1629.00 L 327.00 1595.00 L 328.00 1564.00 L 332.00 1536.00 L 344.00 1499.00 L 364.00 1453.00 L 378.00 1415.00 L 386.00 1385.00 L 398.00 1358.00 L 414.00 1334.00 L 423.00 1314.00 L 425.00 1298.00 L 433.00 1278.00 L 447.00 1254.00 L 442.00 1253.00 L 418.00 1275.00 L 414.00 1278.00 L 430.00 1262.00 L 428.00 1263.00 L 408.00 1281.00 L 409.00 1279.00 L 431.00 1257.00 L 427.00 1258.00 L 397.00 1282.00 L 403.00 1273.00 L 445.00 1231.00 L 443.00 1230.00 L 397.00 1270.00 L 397.00 1268.00 L 443.00 1224.00 L 442.00 1223.00 L 394.00 1265.00 L 393.00 1264.00 L 439.00 1220.00 L 460.00 1188.00 L 456.00 1168.00 L 458.00 1153.00 L 466.00 1143.00 L 462.00 1131.00 L 446.00 1117.00 L 428.00 1108.00 L 408.00 1104.00 L 394.00 1099.00 L 386.00 1093.00 L 379.00 1084.00 L 373.00 1072.00 L 370.00 1060.00 L 370.00 1048.00 L 375.00 1035.00 L 385.00 1021.00 L 388.00 1011.00 L 384.00 1005.00 L 378.00 995.00 Z" fill="black" stroke="black" stroke-width="1"/>
</svg>