<?xml version="1.0" encoding="UTF-8"?>
<svg xmlns="http://www.w3.org/2000/svg" viewBox="228.00 376.00 937.00 1373.00">
  <path d="M 297.00 1063.00 L 287.00 1033.00 L 283.00 996.00 L 285.00 952.00 L 284.00 917.00 L 280.00 891.00 L 280.00 860.00 L 284.00 824.00 L 290.00 789.00 L 298.00 755.00 L 311.00 717.00 L 329.00 675.00 L 340.00 639.00 L 344.00 609.00 L 357.00 573.00 L 379.00 531.00 L 410.00 491.00 L 450.00 453.00 L 490.00 427.00 L 530.00 413.00 L 567.00 406.00 L 601.00 406.00 L 644.00 401.00 L 696.00 391.00 L 747.00 386.00 L 797.00 386.00 L 832.00 388.00 L 852.00 392.00 L 880.00 403.00 L 916.00 421.00 L 954.00 450.00 L 994.00 490.00 L 1017.00 518.00 L 1023.00 534.00 L 1023.00 548.00 L 1017.00 560.00 L 1015.00 567.00 L 1017.00 569.00 L 1021.00 565.00 L 1027.00 555.00 L 1028.00 554.00 L 1024.00 562.00 L 1025.00 563.00 L 1031.00 557.00 L 1031.00 560.00 L 1025.00 572.00 L 1026.00 574.00 L 1034.00 566.00 L 1035.00 568.00 L 1029.00 580.00 L 1028.00 584.00 L 1032.00 580.00 L 1033.00 583.00 L 1031.00 593.00 L 1035.00 592.00 L 1045.00 580.00 L 1046.00 582.00 L 1038.00 598.00 L 1039.00 600.00 L 1049.00 588.00 L 1053.00 585.00 L 1051.00 591.00 L 1052.00 592.00 L 1056.00 588.00 L 1053.00 594.00 L 1043.00 610.00 L 1047.00 652.00 L 1065.00 720.00 L 1072.00 767.00 L 1068.00 793.00 L 1085.00 834.00 L 1123.00 890.00 L 1142.00 924.00 L 1142.00 936.00 L 1138.00 946.00 L 1130.00 954.00 L 1118.00 961.00 L 1102.00 967.00 L 1091.00 977.00 L 1085.00 991.00 L 1083.00 1006.00 L 1085.00 1022.00 L 1083.00 1034.00 L 1077.00 1042.00 L 1077.00 1049.00 L 1083.00 1055.00 L 1086.00 1063.00 L 1086.00 1073.00 L 1082.00 1084.00 L 1074.00 1096.00 L 1075.00 1110.00 L 1085.00 1126.00 L 1091.00 1141.00 L 1093.00 1155.00 L 1089.00 1171.00 L 1079.00 1189.00 L 1060.00 1208.00 L 1032.00 1228.00 L 1020.00 1240.00 L 1024.00 1244.00 L 1023.00 1246.00 L 1017.00 1246.00 L 1019.00 1249.00 L 1029.00 1255.00 L 1034.00 1267.00 L 1034.00 1285.00 L 1046.00 1304.00 L 1070.00 1324.00 L 1069.00 1327.00 L 1043.00 1313.00 L 1042.00 1316.00 L 1066.00 1336.00 L 1066.00 1337.00 L 1042.00 1319.00 L 1059.00 1336.00 L 1117.00 1388.00 L 1116.00 1390.00 L 1056.00 1342.00 L 1048.00 1336.00 L 1092.00 1372.00 L 1094.00 1374.00 L 1054.00 1342.00 L 1061.00 1350.00 L 1115.00 1398.00 L 1122.00 1407.00 L 1082.00 1377.00 L 1080.00 1378.00 L 1116.00 1410.00 L 1106.00 1402.00 L 1050.00 1354.00 L 1047.00 1354.00 L 1097.00 1402.00 L 1105.00 1411.00 L 1071.00 1381.00 L 1068.00 1381.00 L 1096.00 1411.00 L 1098.00 1422.00 L 1074.00 1414.00 L 1055.00 1404.00 L 1041.00 1392.00 L 1047.00 1402.00 L 1073.00 1434.00 L 1072.00 1436.00 L 1044.00 1408.00 L 1045.00 1411.00 L 1075.00 1445.00 L 1093.00 1473.00 L 1099.00 1495.00 L 1109.00 1518.00 L 1123.00 1542.00 L 1137.00 1583.00 L 1151.00 1641.00 L 1155.00 1682.00 L 1149.00 1706.00 L 1139.00 1724.00 L 1125.00 1736.00 L 1107.00 1739.00 L 1085.00 1733.00 L 1047.00 1706.00 L 993.00 1658.00 L 953.00 1625.00 L 927.00 1607.00 L 888.00 1584.00 L 836.00 1556.00 L 786.00 1534.00 L 738.00 1518.00 L 683.00 1508.00 L 621.00 1504.00 L 550.00 1508.00 L 470.00 1520.00 L 411.00 1526.00 L 373.00 1526.00 L 347.00 1524.00 L 333.00 1520.00 L 320.00 1510.00 L 308.00 1494.00 L 301.00 1470.00 L 299.00 1438.00 L 301.00 1410.00 L 307.00 1386.00 L 319.00 1356.00 L 337.00 1320.00 L 347.00 1281.00 L 349.00 1239.00 L 342.00 1219.00 L 326.00 1221.00 L 325.00 1219.00 L 339.00 1213.00 L 333.00 1214.00 L 307.00 1222.00 L 308.00 1221.00 L 336.00 1211.00 L 330.00 1211.00 L 290.00 1221.00 L 273.00 1225.00 L 279.00 1223.00 L 274.00 1223.00 L 258.00 1225.00 L 247.00 1223.00 L 241.00 1217.00 L 238.00 1209.00 L 238.00 1199.00 L 245.00 1190.00 L 259.00 1182.00 L 264.00 1173.00 L 260.00 1163.00 L 273.00 1154.00 L 303.00 1146.00 L 303.00 1144.00 L 273.00 1148.00 L 269.00 1148.00 L 291.00 1144.00 L 292.00 1142.00 L 272.00 1142.00 L 276.00 1140.00 L 304.00 1136.00 L 305.00 1135.00 L 279.00 1137.00 L 279.00 1134.00 L 305.00 1126.00 L 315.00 1114.00 L 309.00 1098.00 L 305.00 1087.00 L 303.00 1081.00 L 297.00 1063.00 Z" fill="black" stroke="black" stroke-width="1"/>
</svg>