<?xml version="1.0" encoding="UTF-8"?>
<svg xmlns="http://www.w3.org/2000/svg" viewBox="347.00 363.00 887.00 1327.00">
  <path d="M 363.00 927.00 L 357.00 913.00 L 378.00 879.00 L 426.00 825.00 L 440.00 790.00 L 420.00 774.00 L 421.00 772.00 L 443.00 784.00 L 442.00 782.00 L 418.00 766.00 L 418.00 763.00 L 442.00 773.00 L 444.00 770.00 L 424.00 754.00 L 424.00 750.00 L 444.00 758.00 L 445.00 748.00 L 427.00 720.00 L 428.00 712.00 L 448.00 724.00 L 449.00 721.00 L 431.00 703.00 L 431.00 700.00 L 449.00 712.00 L 450.00 710.00 L 434.00 694.00 L 434.00 692.00 L 450.00 704.00 L 453.00 695.00 L 443.00 665.00 L 445.00 656.00 L 459.00 668.00 L 458.00 664.00 L 442.00 644.00 L 443.00 641.00 L 461.00 655.00 L 462.00 652.00 L 446.00 632.00 L 447.00 629.00 L 465.00 643.00 L 467.00 640.00 L 453.00 620.00 L 455.00 613.00 L 473.00 619.00 L 479.00 589.00 L 473.00 523.00 L 477.00 502.00 L 491.00 526.00 L 490.00 520.00 L 474.00 484.00 L 476.00 482.00 L 496.00 514.00 L 496.00 506.00 L 476.00 458.00 L 477.00 455.00 L 499.00 497.00 L 501.00 495.00 L 483.00 449.00 L 484.00 447.00 L 504.00 489.00 L 504.00 483.00 L 484.00 429.00 L 488.00 426.00 L 516.00 474.00 L 520.00 469.00 L 500.00 411.00 L 502.00 408.00 L 526.00 460.00 L 528.00 459.00 L 508.00 405.00 L 509.00 407.00 L 531.00 465.00 L 533.00 467.00 L 515.00 413.00 L 518.00 397.00 L 542.00 419.00 L 555.00 421.00 L 557.00 403.00 L 563.00 403.00 L 573.00 421.00 L 576.00 421.00 L 572.00 403.00 L 574.00 406.00 L 582.00 430.00 L 585.00 431.00 L 583.00 409.00 L 590.00 411.00 L 606.00 437.00 L 614.00 441.00 L 614.00 423.00 L 617.00 426.00 L 623.00 450.00 L 625.00 447.00 L 623.00 417.00 L 625.00 418.00 L 631.00 450.00 L 633.00 448.00 L 631.00 412.00 L 633.00 413.00 L 639.00 451.00 L 640.00 450.00 L 636.00 410.00 L 638.00 411.00 L 646.00 453.00 L 648.00 451.00 L 644.00 405.00 L 646.00 405.00 L 654.00 451.00 L 658.00 450.00 L 658.00 402.00 L 661.00 403.00 L 667.00 453.00 L 670.00 452.00 L 670.00 400.00 L 674.00 400.00 L 682.00 452.00 L 688.00 452.00 L 692.00 400.00 L 697.00 399.00 L 703.00 449.00 L 706.00 449.00 L 706.00 399.00 L 708.00 399.00 L 712.00 449.00 L 718.00 449.00 L 726.00 399.00 L 730.00 399.00 L 730.00 449.00 L 733.00 448.00 L 739.00 396.00 L 762.00 373.00 L 802.00 379.00 L 833.00 393.00 L 855.00 415.00 L 871.00 422.00 L 881.00 414.00 L 894.00 422.00 L 910.00 446.00 L 928.00 451.00 L 948.00 437.00 L 956.00 441.00 L 952.00 463.00 L 974.00 472.00 L 1022.00 468.00 L 1072.00 485.00 L 1124.00 523.00 L 1167.00 575.00 L 1201.00 641.00 L 1220.00 704.00 L 1224.00 764.00 L 1218.00 815.00 L 1202.00 857.00 L 1158.00 886.00 L 1086.00 902.00 L 1080.00 908.00 L 1140.00 904.00 L 1139.00 905.00 L 1077.00 911.00 L 1074.00 914.00 L 1130.00 914.00 L 1130.00 917.00 L 1074.00 923.00 L 1071.00 926.00 L 1121.00 926.00 L 1120.00 929.00 L 1068.00 935.00 L 1064.00 938.00 L 1108.00 938.00 L 1107.00 940.00 L 1061.00 944.00 L 1053.00 947.00 L 1083.00 949.00 L 1082.00 952.00 L 1050.00 956.00 L 1019.00 984.00 L 989.00 1036.00 L 953.00 1079.00 L 911.00 1113.00 L 888.00 1147.00 L 884.00 1181.00 L 908.00 1238.00 L 960.00 1318.00 L 960.00 1320.00 L 908.00 1244.00 L 906.00 1246.00 L 954.00 1326.00 L 954.00 1329.00 L 906.00 1255.00 L 904.00 1254.00 L 948.00 1326.00 L 948.00 1329.00 L 904.00 1263.00 L 901.00 1262.00 L 939.00 1326.00 L 940.00 1330.00 L 904.00 1274.00 L 902.00 1275.00 L 934.00 1333.00 L 935.00 1338.00 L 905.00 1290.00 L 907.00 1312.00 L 941.00 1404.00 L 903.00 1467.00 L 793.00 1501.00 L 670.00 1572.00 L 534.00 1680.00 L 498.00 1624.00 L 562.00 1404.00 L 559.00 1405.00 L 489.00 1627.00 L 489.00 1620.00 L 559.00 1384.00 L 555.00 1383.00 L 477.00 1617.00 L 476.00 1614.00 L 552.00 1374.00 L 549.00 1365.00 L 467.00 1587.00 L 467.00 1585.00 L 549.00 1359.00 L 547.00 1357.00 L 461.00 1579.00 L 460.00 1576.00 L 544.00 1348.00 L 542.00 1344.00 L 454.00 1564.00 L 453.00 1562.00 L 539.00 1338.00 L 536.00 1334.00 L 444.00 1550.00 L 443.00 1548.00 L 533.00 1328.00 L 531.00 1323.00 L 437.00 1533.00 L 436.00 1530.00 L 528.00 1314.00 L 527.00 1303.00 L 433.00 1497.00 L 432.00 1494.00 L 524.00 1294.00 L 567.00 1186.00 L 561.00 1170.00 L 523.00 1158.00 L 453.00 1150.00 L 410.00 1121.00 L 394.00 1071.00 L 389.00 1021.00 L 395.00 971.00 L 393.00 945.00 L 383.00 943.00 L 375.00 940.00 L 369.00 936.00 L 363.00 927.00 Z" fill="black" stroke="black" stroke-width="1"/>
</svg>