<?xml version="1.0" encoding="UTF-8"?>
<svg xmlns="http://www.w3.org/2000/svg" viewBox="400.00 230.00 988.00 1684.00">
  <path d="M 499.00 1043.00 L 493.00 1029.00 L 484.00 1016.00 L 472.00 1004.00 L 470.00 991.00 L 478.00 977.00 L 476.00 963.00 L 464.00 949.00 L 462.00 926.00 L 470.00 894.00 L 473.00 875.00 L 471.00 869.00 L 459.00 858.00 L 437.00 842.00 L 422.00 828.00 L 414.00 816.00 L 410.00 804.00 L 410.00 792.00 L 425.00 770.00 L 455.00 738.00 L 481.00 715.00 L 503.00 701.00 L 518.00 689.00 L 526.00 679.00 L 530.00 658.00 L 530.00 626.00 L 539.00 584.00 L 557.00 532.00 L 563.00 494.00 L 557.00 470.00 L 558.00 466.00 L 566.00 482.00 L 571.00 488.00 L 573.00 484.00 L 571.00 473.00 L 565.00 455.00 L 564.00 448.00 L 568.00 452.00 L 569.00 450.00 L 567.00 442.00 L 570.00 446.00 L 578.00 462.00 L 580.00 459.00 L 576.00 437.00 L 578.00 435.00 L 586.00 453.00 L 591.00 460.00 L 593.00 456.00 L 591.00 444.00 L 585.00 424.00 L 584.00 418.00 L 588.00 426.00 L 590.00 424.00 L 590.00 412.00 L 594.00 415.00 L 602.00 433.00 L 605.00 431.00 L 603.00 409.00 L 606.00 405.00 L 614.00 419.00 L 616.00 417.00 L 612.00 399.00 L 612.00 395.00 L 616.00 405.00 L 621.00 411.00 L 627.00 413.00 L 628.00 405.00 L 624.00 387.00 L 624.00 384.00 L 628.00 396.00 L 632.00 402.00 L 636.00 402.00 L 637.00 393.00 L 635.00 375.00 L 660.00 347.00 L 712.00 309.00 L 776.00 279.00 L 852.00 257.00 L 902.00 246.00 L 926.00 246.00 L 943.00 244.00 L 953.00 240.00 L 1000.00 244.00 L 1084.00 256.00 L 1140.00 268.00 L 1168.00 280.00 L 1200.00 303.00 L 1236.00 337.00 L 1275.00 388.00 L 1317.00 456.00 L 1345.00 508.00 L 1359.00 544.00 L 1369.00 578.00 L 1375.00 610.00 L 1378.00 637.00 L 1378.00 659.00 L 1374.00 683.00 L 1366.00 709.00 L 1351.00 743.00 L 1329.00 785.00 L 1311.00 830.00 L 1297.00 878.00 L 1279.00 921.00 L 1257.00 959.00 L 1243.00 1002.00 L 1237.00 1050.00 L 1229.00 1075.00 L 1219.00 1077.00 L 1217.00 1079.00 L 1223.00 1081.00 L 1222.00 1083.00 L 1214.00 1085.00 L 1211.00 1124.00 L 1213.00 1200.00 L 1211.00 1245.00 L 1205.00 1259.00 L 1206.00 1284.00 L 1214.00 1320.00 L 1216.00 1359.00 L 1212.00 1401.00 L 1225.00 1452.00 L 1255.00 1512.00 L 1274.00 1561.00 L 1282.00 1599.00 L 1264.00 1614.00 L 1220.00 1606.00 L 1173.00 1602.00 L 1123.00 1602.00 L 1074.00 1608.00 L 1026.00 1620.00 L 979.00 1635.00 L 933.00 1653.00 L 883.00 1677.00 L 829.00 1707.00 L 751.00 1759.00 L 649.00 1833.00 L 574.00 1879.00 L 526.00 1897.00 L 496.00 1904.00 L 484.00 1900.00 L 471.00 1891.00 L 457.00 1877.00 L 444.00 1859.00 L 432.00 1837.00 L 425.00 1817.00 L 423.00 1799.00 L 424.00 1775.00 L 428.00 1745.00 L 457.00 1683.00 L 511.00 1589.00 L 513.00 1583.00 L 463.00 1665.00 L 461.00 1668.00 L 507.00 1592.00 L 508.00 1589.00 L 464.00 1659.00 L 467.00 1653.00 L 517.00 1571.00 L 518.00 1568.00 L 470.00 1644.00 L 448.00 1678.00 L 452.00 1670.00 L 477.00 1629.00 L 523.00 1555.00 L 522.00 1556.00 L 474.00 1632.00 L 476.00 1628.00 L 528.00 1544.00 L 530.00 1540.00 L 482.00 1616.00 L 483.00 1614.00 L 533.00 1534.00 L 535.00 1530.00 L 489.00 1602.00 L 495.00 1590.00 L 553.00 1494.00 L 580.00 1437.00 L 576.00 1419.00 L 576.00 1403.00 L 580.00 1389.00 L 571.00 1395.00 L 549.00 1421.00 L 550.00 1418.00 L 574.00 1386.00 L 572.00 1387.00 L 544.00 1421.00 L 541.00 1422.00 L 563.00 1390.00 L 560.00 1391.00 L 532.00 1425.00 L 515.00 1442.00 L 509.00 1442.00 L 525.00 1417.00 L 563.00 1367.00 L 572.00 1353.00 L 552.00 1375.00 L 553.00 1369.00 L 575.00 1335.00 L 577.00 1326.00 L 559.00 1342.00 L 559.00 1337.00 L 577.00 1311.00 L 574.00 1309.00 L 550.00 1331.00 L 550.00 1328.00 L 574.00 1300.00 L 574.00 1297.00 L 550.00 1319.00 L 549.00 1317.00 L 571.00 1291.00 L 579.00 1266.00 L 573.00 1242.00 L 576.00 1224.00 L 588.00 1212.00 L 588.00 1203.00 L 576.00 1197.00 L 566.00 1189.00 L 558.00 1179.00 L 545.00 1170.00 L 527.00 1162.00 L 514.00 1153.00 L 506.00 1143.00 L 500.00 1132.00 L 496.00 1120.00 L 496.00 1101.00 L 500.00 1075.00 L 502.00 1059.00 L 502.00 1053.00 L 499.00 1043.00 Z" fill="black" stroke="black" stroke-width="1"/>
</svg>