<?xml version="1.0" encoding="UTF-8"?>
<svg xmlns="http://www.w3.org/2000/svg" viewBox="358.00 201.00 868.00 1667.00">
  <path d="M 463.00 1000.00 L 473.00 964.00 L 474.00 937.00 L 466.00 919.00 L 464.00 905.00 L 468.00 895.00 L 467.00 886.00 L 461.00 878.00 L 459.00 865.00 L 461.00 847.00 L 448.00 828.00 L 420.00 808.00 L 420.00 806.00 L 448.00 822.00 L 448.00 819.00 L 420.00 797.00 L 418.00 794.00 L 442.00 810.00 L 442.00 807.00 L 418.00 785.00 L 430.00 740.00 L 478.00 672.00 L 501.00 620.00 L 499.00 584.00 L 493.00 553.00 L 483.00 527.00 L 484.00 525.00 L 496.00 547.00 L 504.00 556.00 L 508.00 552.00 L 505.00 537.00 L 495.00 511.00 L 496.00 509.00 L 508.00 531.00 L 510.00 530.00 L 502.00 506.00 L 503.00 504.00 L 513.00 524.00 L 515.00 526.00 L 509.00 510.00 L 510.00 507.00 L 518.00 517.00 L 519.00 513.00 L 513.00 495.00 L 514.00 492.00 L 522.00 504.00 L 524.00 497.00 L 520.00 471.00 L 522.00 466.00 L 530.00 482.00 L 531.00 480.00 L 525.00 460.00 L 526.00 458.00 L 534.00 474.00 L 535.00 472.00 L 529.00 452.00 L 530.00 450.00 L 538.00 466.00 L 539.00 464.00 L 533.00 444.00 L 534.00 441.00 L 542.00 455.00 L 544.00 453.00 L 540.00 435.00 L 542.00 433.00 L 550.00 447.00 L 553.00 444.00 L 551.00 424.00 L 554.00 419.00 L 562.00 429.00 L 564.00 427.00 L 560.00 413.00 L 560.00 409.00 L 564.00 415.00 L 566.00 414.00 L 566.00 406.00 L 568.00 407.00 L 572.00 417.00 L 573.00 415.00 L 571.00 401.00 L 572.00 398.00 L 576.00 406.00 L 577.00 403.00 L 575.00 389.00 L 578.00 375.00 L 586.00 361.00 L 611.00 335.00 L 653.00 297.00 L 689.00 269.00 L 719.00 251.00 L 764.00 233.00 L 824.00 215.00 L 900.00 211.00 L 992.00 221.00 L 1064.00 238.00 L 1116.00 262.00 L 1154.00 288.00 L 1178.00 316.00 L 1198.00 365.00 L 1214.00 435.00 L 1216.00 524.00 L 1204.00 632.00 L 1184.00 717.00 L 1156.00 779.00 L 1139.00 831.00 L 1133.00 873.00 L 1123.00 899.00 L 1109.00 909.00 L 1109.00 912.00 L 1123.00 908.00 L 1124.00 911.00 L 1112.00 921.00 L 1111.00 937.00 L 1121.00 959.00 L 1128.00 1012.00 L 1132.00 1096.00 L 1130.00 1155.00 L 1122.00 1189.00 L 1128.00 1243.00 L 1148.00 1317.00 L 1162.00 1389.00 L 1170.00 1459.00 L 1135.00 1500.00 L 1057.00 1512.00 L 971.00 1535.00 L 877.00 1569.00 L 806.00 1599.00 L 758.00 1625.00 L 674.00 1690.00 L 554.00 1794.00 L 487.00 1850.00 L 473.00 1858.00 L 451.00 1858.00 L 421.00 1850.00 L 396.00 1828.00 L 376.00 1792.00 L 368.00 1754.00 L 372.00 1714.00 L 406.00 1635.00 L 470.00 1517.00 L 472.00 1511.00 L 412.00 1617.00 L 410.00 1620.00 L 466.00 1520.00 L 468.00 1515.00 L 416.00 1605.00 L 415.00 1606.00 L 465.00 1518.00 L 466.00 1516.00 L 418.00 1600.00 L 421.00 1593.00 L 475.00 1495.00 L 480.00 1483.00 L 436.00 1557.00 L 436.00 1555.00 L 480.00 1477.00 L 506.00 1417.00 L 514.00 1375.00 L 529.00 1335.00 L 551.00 1297.00 L 558.00 1283.00 L 550.00 1293.00 L 550.00 1291.00 L 558.00 1277.00 L 558.00 1272.00 L 550.00 1276.00 L 538.00 1288.00 L 522.00 1308.00 L 525.00 1303.00 L 547.00 1273.00 L 543.00 1275.00 L 513.00 1309.00 L 514.00 1305.00 L 546.00 1263.00 L 543.00 1264.00 L 505.00 1308.00 L 502.00 1311.00 L 534.00 1273.00 L 532.00 1274.00 L 496.00 1314.00 L 476.00 1335.00 L 472.00 1337.00 L 487.00 1318.00 L 521.00 1278.00 L 516.00 1281.00 L 472.00 1327.00 L 476.00 1321.00 L 528.00 1263.00 L 526.00 1264.00 L 470.00 1324.00 L 469.00 1324.00 L 523.00 1264.00 L 522.00 1262.00 L 466.00 1318.00 L 463.00 1319.00 L 513.00 1265.00 L 534.00 1238.00 L 526.00 1238.00 L 530.00 1230.00 L 546.00 1214.00 L 543.00 1214.00 L 521.00 1230.00 L 518.00 1230.00 L 534.00 1214.00 L 532.00 1213.00 L 512.00 1227.00 L 512.00 1224.00 L 532.00 1204.00 L 529.00 1202.00 L 503.00 1218.00 L 501.00 1216.00 L 523.00 1196.00 L 523.00 1194.00 L 501.00 1210.00 L 499.00 1207.00 L 517.00 1185.00 L 512.00 1155.00 L 484.00 1117.00 L 469.00 1090.00 L 467.00 1074.00 L 469.00 1061.00 L 475.00 1051.00 L 474.00 1040.00 L 466.00 1028.00 L 461.00 1021.00 L 459.00 1019.00 L 463.00 1000.00 Z" fill="black" stroke="black" stroke-width="1"/>
</svg>