<?xml version="1.0" encoding="UTF-8"?>
<svg xmlns="http://www.w3.org/2000/svg" viewBox="253.00 150.00 922.00 1638.00">
  <path d="M 395.00 923.00 L 389.00 909.00 L 386.00 893.00 L 386.00 875.00 L 387.00 865.00 L 389.00 863.00 L 389.00 856.00 L 387.00 844.00 L 380.00 831.00 L 368.00 817.00 L 361.00 807.00 L 359.00 801.00 L 358.00 796.00 L 358.00 792.00 L 361.00 786.00 L 367.00 778.00 L 364.00 768.00 L 352.00 756.00 L 347.00 745.00 L 349.00 735.00 L 349.00 720.00 L 347.00 700.00 L 335.00 680.00 L 313.00 660.00 L 308.00 654.00 L 320.00 662.00 L 318.00 660.00 L 302.00 648.00 L 307.00 651.00 L 333.00 669.00 L 332.00 667.00 L 304.00 645.00 L 303.00 643.00 L 329.00 661.00 L 329.00 658.00 L 303.00 634.00 L 298.00 610.00 L 314.00 586.00 L 340.00 557.00 L 376.00 523.00 L 396.00 501.00 L 400.00 491.00 L 402.00 477.00 L 402.00 459.00 L 404.00 445.00 L 408.00 435.00 L 421.00 409.00 L 443.00 367.00 L 462.00 336.00 L 478.00 316.00 L 486.00 299.00 L 486.00 285.00 L 488.00 282.00 L 492.00 290.00 L 493.00 288.00 L 491.00 276.00 L 492.00 274.00 L 496.00 282.00 L 498.00 279.00 L 498.00 265.00 L 508.00 250.00 L 528.00 234.00 L 559.00 216.00 L 601.00 196.00 L 640.00 181.00 L 676.00 171.00 L 712.00 164.00 L 748.00 160.00 L 779.00 160.00 L 805.00 164.00 L 831.00 166.00 L 857.00 166.00 L 890.00 171.00 L 930.00 181.00 L 970.00 196.00 L 1010.00 216.00 L 1033.00 229.00 L 1039.00 235.00 L 1050.00 241.00 L 1066.00 247.00 L 1082.00 259.00 L 1098.00 277.00 L 1106.00 291.00 L 1106.00 301.00 L 1109.00 310.00 L 1115.00 318.00 L 1118.00 330.00 L 1118.00 346.00 L 1122.00 362.00 L 1130.00 378.00 L 1135.00 391.00 L 1137.00 401.00 L 1137.00 419.00 L 1135.00 445.00 L 1137.00 466.00 L 1143.00 482.00 L 1145.00 501.00 L 1143.00 523.00 L 1146.00 544.00 L 1154.00 564.00 L 1158.00 577.00 L 1158.00 583.00 L 1155.00 596.00 L 1149.00 616.00 L 1147.00 638.00 L 1149.00 662.00 L 1145.00 686.00 L 1135.00 710.00 L 1130.00 727.00 L 1130.00 737.00 L 1128.00 747.00 L 1124.00 757.00 L 1116.00 769.00 L 1104.00 783.00 L 1093.00 799.00 L 1083.00 817.00 L 1063.00 831.00 L 1033.00 841.00 L 1027.00 844.00 L 1045.00 840.00 L 1046.00 843.00 L 1030.00 853.00 L 1023.00 882.00 L 1025.00 930.00 L 1024.00 961.00 L 1020.00 975.00 L 1030.00 1003.00 L 1054.00 1045.00 L 1070.00 1079.00 L 1078.00 1105.00 L 1094.00 1140.00 L 1118.00 1184.00 L 1139.00 1229.00 L 1157.00 1275.00 L 1165.00 1300.00 L 1163.00 1304.00 L 1141.00 1305.00 L 1099.00 1303.00 L 1065.00 1303.00 L 1039.00 1305.00 L 1011.00 1309.00 L 981.00 1315.00 L 939.00 1330.00 L 885.00 1354.00 L 837.00 1380.00 L 795.00 1408.00 L 744.00 1447.00 L 684.00 1497.00 L 645.00 1531.00 L 627.00 1549.00 L 605.00 1575.00 L 579.00 1609.00 L 536.00 1654.00 L 476.00 1710.00 L 429.00 1748.00 L 395.00 1768.00 L 372.00 1778.00 L 360.00 1778.00 L 348.00 1777.00 L 336.00 1775.00 L 327.00 1772.00 L 321.00 1768.00 L 313.00 1761.00 L 303.00 1751.00 L 293.00 1738.00 L 283.00 1722.00 L 274.00 1693.00 L 266.00 1651.00 L 263.00 1621.00 L 265.00 1603.00 L 272.00 1574.00 L 284.00 1534.00 L 302.00 1495.00 L 326.00 1457.00 L 328.00 1452.00 L 308.00 1480.00 L 308.00 1478.00 L 328.00 1446.00 L 338.00 1426.00 L 338.00 1418.00 L 340.00 1409.00 L 344.00 1399.00 L 363.00 1371.00 L 397.00 1325.00 L 397.00 1323.00 L 363.00 1365.00 L 363.00 1362.00 L 397.00 1314.00 L 400.00 1308.00 L 372.00 1344.00 L 364.00 1354.00 L 376.00 1338.00 L 377.00 1336.00 L 367.00 1348.00 L 376.00 1335.00 L 404.00 1297.00 L 418.00 1276.00 L 418.00 1272.00 L 438.00 1245.00 L 478.00 1195.00 L 479.00 1193.00 L 441.00 1239.00 L 439.00 1240.00 L 473.00 1196.00 L 474.00 1192.00 L 442.00 1228.00 L 427.00 1244.00 L 429.00 1240.00 L 446.00 1219.00 L 478.00 1181.00 L 480.00 1178.00 L 452.00 1210.00 L 444.00 1219.00 L 456.00 1205.00 L 459.00 1201.00 L 453.00 1207.00 L 459.00 1196.00 L 477.00 1168.00 L 484.00 1143.00 L 480.00 1121.00 L 475.00 1105.00 L 469.00 1095.00 L 466.00 1084.00 L 466.00 1072.00 L 459.00 1048.00 L 445.00 1012.00 L 439.00 991.00 L 441.00 985.00 L 448.00 977.00 L 460.00 967.00 L 453.00 958.00 L 427.00 950.00 L 412.00 944.00 L 408.00 940.00 L 404.00 936.00 L 400.00 932.00 L 395.00 923.00 Z" fill="black" stroke="black" stroke-width="1"/>
</svg>