<?xml version="1.0" encoding="UTF-8"?>
<svg xmlns="http://www.w3.org/2000/svg" viewBox="327.00 219.00 965.00 1575.00">
  <path d="M 453.00 916.00 L 459.00 904.00 L 456.00 895.00 L 444.00 889.00 L 438.00 869.00 L 438.00 835.00 L 429.00 813.00 L 411.00 803.00 L 405.00 799.00 L 411.00 801.00 L 409.00 794.00 L 399.00 778.00 L 418.00 736.00 L 466.00 668.00 L 491.00 608.00 L 493.00 556.00 L 487.00 517.00 L 473.00 491.00 L 474.00 488.00 L 490.00 508.00 L 491.00 506.00 L 477.00 482.00 L 477.00 480.00 L 491.00 500.00 L 492.00 497.00 L 480.00 471.00 L 481.00 468.00 L 495.00 488.00 L 497.00 486.00 L 487.00 462.00 L 488.00 457.00 L 500.00 471.00 L 502.00 468.00 L 494.00 448.00 L 495.00 446.00 L 505.00 462.00 L 506.00 460.00 L 498.00 440.00 L 499.00 438.00 L 509.00 454.00 L 510.00 452.00 L 502.00 432.00 L 503.00 430.00 L 513.00 446.00 L 516.00 440.00 L 512.00 412.00 L 515.00 406.00 L 525.00 422.00 L 526.00 421.00 L 518.00 403.00 L 519.00 400.00 L 529.00 412.00 L 532.00 410.00 L 528.00 394.00 L 532.00 390.00 L 544.00 398.00 L 557.00 391.00 L 571.00 369.00 L 597.00 352.00 L 635.00 340.00 L 654.00 325.00 L 654.00 307.00 L 657.00 307.00 L 663.00 325.00 L 664.00 322.00 L 660.00 298.00 L 661.00 293.00 L 667.00 307.00 L 670.00 306.00 L 670.00 290.00 L 672.00 294.00 L 676.00 318.00 L 679.00 318.00 L 681.00 294.00 L 686.00 292.00 L 694.00 312.00 L 699.00 312.00 L 701.00 292.00 L 704.00 288.00 L 708.00 300.00 L 711.00 302.00 L 713.00 294.00 L 723.00 289.00 L 741.00 287.00 L 753.00 294.00 L 759.00 310.00 L 764.00 310.00 L 768.00 294.00 L 777.00 286.00 L 791.00 286.00 L 810.00 275.00 L 834.00 253.00 L 867.00 241.00 L 909.00 239.00 L 945.00 245.00 L 975.00 259.00 L 997.00 256.00 L 1011.00 236.00 L 1014.00 238.00 L 1006.00 262.00 L 1008.00 261.00 L 1020.00 235.00 L 1023.00 235.00 L 1017.00 261.00 L 1020.00 261.00 L 1032.00 235.00 L 1051.00 229.00 L 1077.00 243.00 L 1102.00 276.00 L 1126.00 328.00 L 1148.00 355.00 L 1168.00 357.00 L 1180.00 376.00 L 1184.00 412.00 L 1200.00 440.00 L 1228.00 460.00 L 1253.00 514.00 L 1275.00 602.00 L 1282.00 685.00 L 1274.00 763.00 L 1221.00 816.00 L 1123.00 844.00 L 1122.00 847.00 L 1218.00 825.00 L 1220.00 826.00 L 1128.00 850.00 L 1127.00 853.00 L 1217.00 835.00 L 1214.00 837.00 L 1118.00 859.00 L 1117.00 862.00 L 1211.00 846.00 L 1209.00 849.00 L 1111.00 871.00 L 1108.00 876.00 L 1200.00 864.00 L 1197.00 867.00 L 1099.00 885.00 L 1097.00 890.00 L 1191.00 882.00 L 1189.00 884.00 L 1091.00 896.00 L 1090.00 898.00 L 1186.00 890.00 L 1184.00 892.00 L 1084.00 904.00 L 1082.00 907.00 L 1178.00 901.00 L 1172.00 904.00 L 1064.00 916.00 L 1060.00 920.00 L 1160.00 916.00 L 1149.00 919.00 L 1027.00 929.00 L 972.00 935.00 L 984.00 937.00 L 985.00 938.00 L 975.00 938.00 L 970.00 955.00 L 970.00 989.00 L 999.00 1055.00 L 1057.00 1153.00 L 1105.00 1259.00 L 1143.00 1373.00 L 1109.00 1431.00 L 1003.00 1433.00 L 903.00 1450.00 L 809.00 1482.00 L 709.00 1531.00 L 603.00 1597.00 L 510.00 1671.00 L 430.00 1753.00 L 379.00 1784.00 L 357.00 1764.00 L 415.00 1618.00 L 553.00 1346.00 L 549.00 1342.00 L 403.00 1606.00 L 403.00 1604.00 L 549.00 1336.00 L 548.00 1334.00 L 400.00 1598.00 L 401.00 1595.00 L 551.00 1325.00 L 550.00 1322.00 L 398.00 1586.00 L 398.00 1584.00 L 550.00 1316.00 L 549.00 1314.00 L 395.00 1578.00 L 382.00 1598.00 L 510.00 1374.00 L 509.00 1371.00 L 379.00 1589.00 L 392.00 1567.00 L 548.00 1305.00 L 548.00 1303.00 L 392.00 1561.00 L 376.00 1586.00 L 500.00 1378.00 L 499.00 1375.00 L 373.00 1577.00 L 390.00 1548.00 L 550.00 1288.00 L 550.00 1286.00 L 390.00 1542.00 L 390.00 1540.00 L 550.00 1280.00 L 551.00 1271.00 L 393.00 1513.00 L 362.00 1560.00 L 458.00 1412.00 L 459.00 1410.00 L 365.00 1554.00 L 363.00 1556.00 L 453.00 1416.00 L 454.00 1413.00 L 366.00 1547.00 L 337.00 1591.00 L 367.00 1545.00 L 369.00 1541.00 L 343.00 1579.00 L 341.00 1581.00 L 363.00 1547.00 L 364.00 1544.00 L 344.00 1572.00 L 339.00 1577.00 L 349.00 1559.00 L 423.00 1447.00 L 561.00 1241.00 L 627.00 1123.00 L 621.00 1093.00 L 580.00 1061.00 L 504.00 1027.00 L 464.00 991.00 L 460.00 953.00 L 456.00 931.00 L 452.00 925.00 L 453.00 916.00 Z" fill="black" stroke="black" stroke-width="1"/>
</svg>