<?xml version="1.0" encoding="UTF-8"?>
<svg xmlns="http://www.w3.org/2000/svg" viewBox="273.00 137.00 930.00 1611.00">
  <path d="M 348.00 914.00 L 352.00 906.00 L 348.00 896.00 L 336.00 884.00 L 330.00 863.00 L 330.00 833.00 L 319.00 811.00 L 297.00 797.00 L 285.00 784.00 L 283.00 772.00 L 307.00 729.00 L 357.00 655.00 L 379.00 605.00 L 373.00 579.00 L 378.00 546.00 L 394.00 506.00 L 402.00 476.00 L 402.00 456.00 L 404.00 447.00 L 408.00 449.00 L 408.00 443.00 L 404.00 429.00 L 405.00 425.00 L 411.00 431.00 L 411.00 424.00 L 405.00 404.00 L 406.00 400.00 L 414.00 412.00 L 415.00 409.00 L 409.00 391.00 L 410.00 390.00 L 418.00 406.00 L 419.00 404.00 L 413.00 384.00 L 414.00 382.00 L 422.00 398.00 L 423.00 396.00 L 417.00 376.00 L 418.00 374.00 L 426.00 390.00 L 427.00 388.00 L 421.00 368.00 L 422.00 366.00 L 430.00 382.00 L 433.00 386.00 L 431.00 378.00 L 432.00 376.00 L 436.00 380.00 L 435.00 374.00 L 429.00 358.00 L 430.00 355.00 L 438.00 365.00 L 441.00 362.00 L 439.00 346.00 L 441.00 344.00 L 447.00 356.00 L 449.00 354.00 L 447.00 338.00 L 448.00 335.00 L 452.00 345.00 L 453.00 343.00 L 451.00 329.00 L 452.00 327.00 L 456.00 337.00 L 460.00 330.00 L 464.00 306.00 L 473.00 287.00 L 487.00 273.00 L 499.00 264.00 L 509.00 260.00 L 522.00 248.00 L 538.00 228.00 L 564.00 211.00 L 600.00 197.00 L 625.00 184.00 L 639.00 172.00 L 660.00 165.00 L 688.00 163.00 L 714.00 158.00 L 738.00 150.00 L 765.00 147.00 L 795.00 149.00 L 815.00 152.00 L 825.00 156.00 L 840.00 158.00 L 860.00 158.00 L 881.00 164.00 L 903.00 176.00 L 924.00 183.00 L 944.00 185.00 L 966.00 193.00 L 990.00 207.00 L 1011.00 224.00 L 1029.00 244.00 L 1048.00 261.00 L 1068.00 275.00 L 1095.00 305.00 L 1129.00 351.00 L 1156.00 399.00 L 1176.00 449.00 L 1188.00 486.00 L 1192.00 510.00 L 1193.00 546.00 L 1191.00 594.00 L 1177.00 658.00 L 1151.00 738.00 L 1127.00 793.00 L 1105.00 823.00 L 1084.00 858.00 L 1064.00 898.00 L 1045.00 920.00 L 1027.00 924.00 L 1024.00 927.00 L 1036.00 929.00 L 1036.00 932.00 L 1024.00 936.00 L 1020.00 946.00 L 1024.00 962.00 L 1027.00 997.00 L 1029.00 1051.00 L 1027.00 1097.00 L 1021.00 1135.00 L 1019.00 1160.00 L 1021.00 1172.00 L 1040.00 1217.00 L 1076.00 1295.00 L 1092.00 1333.00 L 1088.00 1331.00 L 1085.00 1332.00 L 1083.00 1336.00 L 1049.00 1342.00 L 983.00 1350.00 L 934.00 1359.00 L 902.00 1369.00 L 863.00 1385.00 L 817.00 1407.00 L 761.00 1444.00 L 695.00 1496.00 L 642.00 1545.00 L 602.00 1591.00 L 566.00 1629.00 L 534.00 1659.00 L 505.00 1683.00 L 479.00 1701.00 L 448.00 1717.00 L 412.00 1731.00 L 386.00 1738.00 L 370.00 1738.00 L 353.00 1732.00 L 335.00 1720.00 L 319.00 1695.00 L 305.00 1657.00 L 298.00 1615.00 L 298.00 1569.00 L 304.00 1524.00 L 316.00 1480.00 L 329.00 1445.00 L 343.00 1419.00 L 346.00 1412.00 L 338.00 1424.00 L 339.00 1421.00 L 349.00 1403.00 L 354.00 1389.00 L 354.00 1379.00 L 366.00 1356.00 L 390.00 1320.00 L 391.00 1317.00 L 369.00 1347.00 L 369.00 1345.00 L 391.00 1311.00 L 393.00 1306.00 L 375.00 1330.00 L 379.00 1323.00 L 405.00 1285.00 L 406.00 1283.00 L 382.00 1317.00 L 379.00 1318.00 L 397.00 1286.00 L 392.00 1288.00 L 364.00 1324.00 L 365.00 1321.00 L 395.00 1279.00 L 389.00 1284.00 L 347.00 1336.00 L 348.00 1331.00 L 392.00 1269.00 L 390.00 1269.00 L 342.00 1331.00 L 343.00 1328.00 L 393.00 1260.00 L 390.00 1259.00 L 334.00 1325.00 L 334.00 1322.00 L 390.00 1250.00 L 397.00 1238.00 L 355.00 1286.00 L 355.00 1284.00 L 397.00 1232.00 L 398.00 1229.00 L 358.00 1275.00 L 358.00 1274.00 L 398.00 1226.00 L 398.00 1224.00 L 358.00 1268.00 L 349.00 1277.00 L 371.00 1251.00 L 372.00 1248.00 L 352.00 1268.00 L 343.00 1276.00 L 345.00 1272.00 L 363.00 1250.00 L 397.00 1210.00 L 398.00 1207.00 L 366.00 1241.00 L 365.00 1238.00 L 395.00 1198.00 L 410.00 1172.00 L 410.00 1160.00 L 403.00 1135.00 L 389.00 1097.00 L 384.00 1074.00 L 388.00 1066.00 L 387.00 1053.00 L 381.00 1035.00 L 380.00 1015.00 L 384.00 993.00 L 380.00 971.00 L 368.00 949.00 L 358.00 936.00 L 350.00 932.00 L 346.00 927.00 L 346.00 921.00 L 348.00 914.00 Z" fill="black" stroke="black" stroke-width="1"/>
</svg>