<?xml version="1.0" encoding="UTF-8"?>
<svg xmlns="http://www.w3.org/2000/svg" viewBox="414.00 178.00 1020.00 1583.00">
  <path d="M 496.00 878.00 L 460.00 850.00 L 463.00 793.00 L 505.00 707.00 L 513.00 650.00 L 487.00 622.00 L 487.00 615.00 L 513.00 629.00 L 514.00 622.00 L 490.00 594.00 L 489.00 589.00 L 511.00 607.00 L 512.00 605.00 L 492.00 583.00 L 492.00 580.00 L 512.00 596.00 L 513.00 593.00 L 495.00 571.00 L 495.00 566.00 L 513.00 578.00 L 513.00 565.00 L 495.00 527.00 L 495.00 517.00 L 513.00 535.00 L 511.00 528.00 L 489.00 496.00 L 489.00 492.00 L 511.00 516.00 L 511.00 513.00 L 489.00 483.00 L 490.00 479.00 L 514.00 501.00 L 515.00 497.00 L 493.00 467.00 L 493.00 464.00 L 515.00 488.00 L 516.00 486.00 L 496.00 458.00 L 496.00 456.00 L 516.00 480.00 L 517.00 477.00 L 499.00 447.00 L 500.00 442.00 L 520.00 462.00 L 522.00 460.00 L 506.00 436.00 L 507.00 433.00 L 525.00 451.00 L 527.00 449.00 L 513.00 427.00 L 513.00 425.00 L 527.00 443.00 L 528.00 441.00 L 516.00 419.00 L 517.00 417.00 L 531.00 435.00 L 534.00 425.00 L 526.00 387.00 L 537.00 351.00 L 567.00 317.00 L 622.00 284.00 L 702.00 252.00 L 770.00 236.00 L 826.00 236.00 L 855.00 227.00 L 857.00 209.00 L 860.00 209.00 L 864.00 227.00 L 869.00 224.00 L 875.00 200.00 L 878.00 200.00 L 878.00 224.00 L 881.00 224.00 L 887.00 200.00 L 896.00 188.00 L 908.00 188.00 L 934.00 199.00 L 974.00 221.00 L 1007.00 227.00 L 1033.00 217.00 L 1062.00 221.00 L 1094.00 239.00 L 1120.00 229.00 L 1140.00 191.00 L 1143.00 193.00 L 1129.00 235.00 L 1131.00 238.00 L 1149.00 202.00 L 1166.00 208.00 L 1182.00 256.00 L 1216.00 270.00 L 1268.00 250.00 L 1316.00 255.00 L 1360.00 285.00 L 1393.00 327.00 L 1415.00 381.00 L 1424.00 444.00 L 1420.00 516.00 L 1376.00 581.00 L 1292.00 639.00 L 1289.00 647.00 L 1367.00 605.00 L 1366.00 609.00 L 1286.00 659.00 L 1283.00 665.00 L 1357.00 627.00 L 1357.00 631.00 L 1283.00 677.00 L 1234.00 732.00 L 1210.00 796.00 L 1175.00 860.00 L 1129.00 924.00 L 1108.00 969.00 L 1112.00 995.00 L 1125.00 1015.00 L 1147.00 1029.00 L 1149.00 1032.00 L 1131.00 1024.00 L 1139.00 1035.00 L 1173.00 1065.00 L 1216.00 1122.00 L 1268.00 1206.00 L 1302.00 1274.00 L 1318.00 1326.00 L 1281.00 1362.00 L 1191.00 1382.00 L 1101.00 1412.00 L 1011.00 1452.00 L 861.00 1565.00 L 651.00 1751.00 L 596.00 1690.00 L 696.00 1382.00 L 694.00 1383.00 L 590.00 1693.00 L 591.00 1685.00 L 697.00 1359.00 L 693.00 1357.00 L 579.00 1679.00 L 579.00 1677.00 L 693.00 1351.00 L 691.00 1348.00 L 573.00 1668.00 L 573.00 1664.00 L 691.00 1336.00 L 688.00 1335.00 L 564.00 1661.00 L 564.00 1659.00 L 688.00 1329.00 L 684.00 1326.00 L 552.00 1650.00 L 551.00 1647.00 L 681.00 1317.00 L 676.00 1313.00 L 536.00 1635.00 L 535.00 1633.00 L 673.00 1307.00 L 667.00 1302.00 L 517.00 1618.00 L 488.00 1676.00 L 580.00 1476.00 L 576.00 1470.00 L 476.00 1658.00 L 503.00 1598.00 L 657.00 1290.00 L 656.00 1289.00 L 500.00 1595.00 L 464.00 1663.00 L 548.00 1493.00 L 547.00 1491.00 L 461.00 1657.00 L 459.00 1659.00 L 541.00 1497.00 L 539.00 1491.00 L 453.00 1641.00 L 489.00 1569.00 L 647.00 1275.00 L 646.00 1272.00 L 486.00 1560.00 L 442.00 1638.00 L 514.00 1506.00 L 514.00 1503.00 L 442.00 1629.00 L 439.00 1632.00 L 505.00 1512.00 L 505.00 1508.00 L 439.00 1620.00 L 436.00 1623.00 L 496.00 1517.00 L 496.00 1514.00 L 436.00 1614.00 L 433.00 1616.00 L 487.00 1520.00 L 487.00 1515.00 L 433.00 1601.00 L 429.00 1605.00 L 475.00 1527.00 L 475.00 1524.00 L 429.00 1596.00 L 424.00 1601.00 L 460.00 1539.00 L 462.00 1533.00 L 430.00 1583.00 L 425.00 1589.00 L 447.00 1551.00 L 449.00 1545.00 L 431.00 1571.00 L 495.00 1468.00 L 641.00 1236.00 L 647.00 1226.00 L 513.00 1438.00 L 510.00 1436.00 L 638.00 1220.00 L 662.00 1104.00 L 582.00 1088.00 L 536.00 1036.00 L 524.00 948.00 L 517.00 901.00 L 515.00 895.00 L 496.00 878.00 Z" fill="black" stroke="black" stroke-width="1"/>
</svg>