<?xml version="1.0" encoding="UTF-8"?>
<svg xmlns="http://www.w3.org/2000/svg" viewBox="359.00 312.00 873.00 1341.00">
  <path d="M 425.00 950.00 L 431.00 926.00 L 421.00 903.00 L 395.00 881.00 L 402.00 847.00 L 442.00 801.00 L 460.00 770.00 L 456.00 754.00 L 458.00 749.00 L 466.00 755.00 L 458.00 742.00 L 434.00 710.00 L 429.00 700.00 L 443.00 712.00 L 444.00 710.00 L 432.00 694.00 L 431.00 690.00 L 441.00 698.00 L 443.00 689.00 L 437.00 663.00 L 439.00 655.00 L 449.00 665.00 L 448.00 659.00 L 436.00 637.00 L 437.00 632.00 L 451.00 644.00 L 452.00 639.00 L 440.00 617.00 L 442.00 612.00 L 458.00 624.00 L 459.00 621.00 L 445.00 603.00 L 445.00 601.00 L 459.00 615.00 L 461.00 613.00 L 451.00 595.00 L 452.00 592.00 L 464.00 604.00 L 465.00 602.00 L 455.00 586.00 L 456.00 583.00 L 468.00 593.00 L 472.00 585.00 L 468.00 559.00 L 470.00 552.00 L 478.00 564.00 L 481.00 561.00 L 479.00 543.00 L 520.00 509.00 L 604.00 459.00 L 647.00 426.00 L 649.00 410.00 L 651.00 409.00 L 653.00 423.00 L 654.00 422.00 L 654.00 406.00 L 656.00 406.00 L 660.00 422.00 L 662.00 419.00 L 662.00 397.00 L 664.00 395.00 L 668.00 413.00 L 670.00 412.00 L 670.00 392.00 L 683.00 372.00 L 709.00 352.00 L 726.00 348.00 L 734.00 360.00 L 748.00 358.00 L 768.00 342.00 L 779.00 346.00 L 781.00 370.00 L 783.00 374.00 L 785.00 358.00 L 787.00 357.00 L 789.00 371.00 L 808.00 363.00 L 844.00 333.00 L 890.00 322.00 L 946.00 330.00 L 988.00 352.00 L 1016.00 388.00 L 1030.00 422.00 L 1030.00 454.00 L 1054.00 482.00 L 1102.00 506.00 L 1147.00 548.00 L 1189.00 608.00 L 1214.00 652.00 L 1222.00 680.00 L 1185.00 718.00 L 1103.00 766.00 L 1104.00 769.00 L 1188.00 727.00 L 1188.00 728.00 L 1104.00 772.00 L 1104.00 775.00 L 1188.00 737.00 L 1188.00 740.00 L 1104.00 784.00 L 1104.00 789.00 L 1188.00 755.00 L 1187.00 758.00 L 1101.00 798.00 L 1100.00 801.00 L 1184.00 767.00 L 1182.00 770.00 L 1094.00 810.00 L 1093.00 814.00 L 1179.00 782.00 L 1176.00 786.00 L 1084.00 826.00 L 1083.00 829.00 L 1173.00 795.00 L 1165.00 801.00 L 1059.00 847.00 L 1003.00 903.00 L 997.00 969.00 L 976.00 1005.00 L 940.00 1011.00 L 934.00 1017.00 L 958.00 1023.00 L 959.00 1026.00 L 937.00 1026.00 L 925.00 1036.00 L 923.00 1056.00 L 935.00 1075.00 L 961.00 1093.00 L 966.00 1100.00 L 950.00 1096.00 L 959.00 1111.00 L 993.00 1145.00 L 1030.00 1204.00 L 1070.00 1288.00 L 1010.00 1361.00 L 850.00 1423.00 L 697.00 1517.00 L 551.00 1643.00 L 516.00 1590.00 L 592.00 1358.00 L 587.00 1364.00 L 501.00 1608.00 L 501.00 1605.00 L 587.00 1355.00 L 582.00 1360.00 L 486.00 1620.00 L 486.00 1615.00 L 582.00 1345.00 L 577.00 1341.00 L 471.00 1603.00 L 471.00 1601.00 L 577.00 1335.00 L 576.00 1334.00 L 468.00 1598.00 L 468.00 1595.00 L 576.00 1325.00 L 574.00 1323.00 L 462.00 1589.00 L 448.00 1618.00 L 532.00 1410.00 L 528.00 1406.00 L 436.00 1606.00 L 449.00 1574.00 L 567.00 1310.00 L 565.00 1308.00 L 443.00 1568.00 L 442.00 1567.00 L 562.00 1305.00 L 559.00 1300.00 L 433.00 1552.00 L 408.00 1601.00 L 484.00 1447.00 L 483.00 1445.00 L 405.00 1595.00 L 403.00 1597.00 L 477.00 1451.00 L 476.00 1448.00 L 400.00 1588.00 L 389.00 1606.00 L 443.00 1502.00 L 442.00 1496.00 L 386.00 1588.00 L 422.00 1516.00 L 550.00 1280.00 L 549.00 1277.00 L 419.00 1507.00 L 374.00 1585.00 L 414.00 1511.00 L 414.00 1509.00 L 374.00 1579.00 L 371.00 1581.00 L 405.00 1515.00 L 405.00 1511.00 L 371.00 1569.00 L 369.00 1571.00 L 399.00 1517.00 L 401.00 1512.00 L 375.00 1556.00 L 373.00 1558.00 L 395.00 1518.00 L 395.00 1515.00 L 373.00 1549.00 L 371.00 1551.00 L 389.00 1521.00 L 391.00 1515.00 L 377.00 1533.00 L 428.00 1445.00 L 544.00 1251.00 L 568.00 1141.00 L 500.00 1115.00 L 455.00 1069.00 L 433.00 1003.00 L 422.00 968.00 L 422.00 964.00 L 425.00 950.00 Z" fill="black" stroke="black" stroke-width="1"/>
</svg>