<?xml version="1.0" encoding="UTF-8"?>
<svg xmlns="http://www.w3.org/2000/svg" viewBox="298.00 100.00 983.00 1729.00">
  <path d="M 427.00 995.00 L 397.00 965.00 L 385.00 934.00 L 391.00 902.00 L 388.00 867.00 L 376.00 829.00 L 374.00 804.00 L 382.00 792.00 L 381.00 780.00 L 371.00 768.00 L 368.00 747.00 L 372.00 717.00 L 360.00 688.00 L 332.00 660.00 L 334.00 656.00 L 366.00 676.00 L 365.00 673.00 L 331.00 647.00 L 331.00 645.00 L 365.00 667.00 L 366.00 663.00 L 334.00 633.00 L 346.00 586.00 L 402.00 522.00 L 436.00 471.00 L 448.00 433.00 L 481.00 370.00 L 535.00 282.00 L 561.00 233.00 L 559.00 223.00 L 562.00 220.00 L 570.00 224.00 L 573.00 220.00 L 571.00 208.00 L 572.00 205.00 L 576.00 211.00 L 579.00 208.00 L 581.00 196.00 L 611.00 175.00 L 669.00 145.00 L 730.00 125.00 L 794.00 115.00 L 864.00 110.00 L 940.00 110.00 L 999.00 115.00 L 1041.00 125.00 L 1079.00 141.00 L 1113.00 163.00 L 1155.00 202.00 L 1205.00 258.00 L 1241.00 322.00 L 1263.00 394.00 L 1271.00 543.00 L 1265.00 769.00 L 1258.00 899.00 L 1250.00 933.00 L 1241.00 966.00 L 1231.00 998.00 L 1195.00 1016.00 L 1133.00 1020.00 L 1132.00 1023.00 L 1192.00 1025.00 L 1192.00 1028.00 L 1132.00 1032.00 L 1131.00 1037.00 L 1189.00 1043.00 L 1189.00 1045.00 L 1131.00 1043.00 L 1130.00 1046.00 L 1186.00 1054.00 L 1186.00 1057.00 L 1130.00 1055.00 L 1129.00 1058.00 L 1183.00 1066.00 L 1184.00 1069.00 L 1132.00 1067.00 L 1132.00 1071.00 L 1184.00 1081.00 L 1188.00 1083.00 L 1144.00 1077.00 L 1144.00 1080.00 L 1188.00 1092.00 L 1184.00 1093.00 L 1132.00 1083.00 L 1138.00 1089.00 L 1202.00 1111.00 L 1202.00 1114.00 L 1138.00 1098.00 L 1142.00 1100.00 L 1214.00 1120.00 L 1242.00 1128.00 L 1226.00 1124.00 L 1230.00 1126.00 L 1254.00 1134.00 L 1232.00 1129.00 L 1164.00 1111.00 L 1167.00 1116.00 L 1241.00 1144.00 L 1235.00 1145.00 L 1149.00 1119.00 L 1151.00 1125.00 L 1241.00 1163.00 L 1250.00 1169.00 L 1178.00 1143.00 L 1178.00 1146.00 L 1250.00 1178.00 L 1243.00 1177.00 L 1157.00 1143.00 L 1158.00 1145.00 L 1246.00 1183.00 L 1248.00 1186.00 L 1164.00 1154.00 L 1164.00 1157.00 L 1248.00 1195.00 L 1250.00 1198.00 L 1170.00 1166.00 L 1170.00 1170.00 L 1250.00 1210.00 L 1251.00 1213.00 L 1173.00 1179.00 L 1162.00 1176.00 L 1218.00 1204.00 L 1219.00 1206.00 L 1165.00 1182.00 L 1162.00 1183.00 L 1210.00 1209.00 L 1212.00 1213.00 L 1168.00 1195.00 L 1161.00 1196.00 L 1191.00 1216.00 L 1191.00 1218.00 L 1161.00 1202.00 L 1161.00 1205.00 L 1191.00 1227.00 L 1192.00 1230.00 L 1164.00 1214.00 L 1163.00 1218.00 L 1189.00 1242.00 L 1190.00 1248.00 L 1166.00 1236.00 L 1167.00 1242.00 L 1193.00 1266.00 L 1193.00 1270.00 L 1167.00 1254.00 L 1167.00 1257.00 L 1193.00 1279.00 L 1194.00 1282.00 L 1170.00 1266.00 L 1170.00 1269.00 L 1194.00 1291.00 L 1194.00 1295.00 L 1170.00 1281.00 L 1170.00 1290.00 L 1194.00 1322.00 L 1196.00 1330.00 L 1176.00 1314.00 L 1177.00 1317.00 L 1199.00 1339.00 L 1200.00 1342.00 L 1180.00 1326.00 L 1183.00 1332.00 L 1209.00 1360.00 L 1209.00 1362.00 L 1183.00 1338.00 L 1184.00 1341.00 L 1212.00 1371.00 L 1213.00 1375.00 L 1187.00 1353.00 L 1188.00 1357.00 L 1216.00 1387.00 L 1217.00 1390.00 L 1191.00 1366.00 L 1191.00 1369.00 L 1217.00 1399.00 L 1219.00 1404.00 L 1197.00 1384.00 L 1194.00 1385.00 L 1210.00 1407.00 L 1211.00 1411.00 L 1197.00 1397.00 L 1194.00 1404.00 L 1202.00 1432.00 L 1162.00 1450.00 L 1074.00 1458.00 L 993.00 1475.00 L 919.00 1501.00 L 844.00 1535.00 L 768.00 1577.00 L 661.00 1648.00 L 523.00 1748.00 L 436.00 1804.00 L 400.00 1816.00 L 375.00 1819.00 L 361.00 1813.00 L 344.00 1798.00 L 324.00 1774.00 L 312.00 1740.00 L 308.00 1696.00 L 328.00 1606.00 L 372.00 1470.00 L 411.00 1376.00 L 445.00 1324.00 L 463.00 1283.00 L 465.00 1253.00 L 460.00 1239.00 L 448.00 1241.00 L 452.00 1236.00 L 472.00 1224.00 L 455.00 1230.00 L 401.00 1254.00 L 401.00 1250.00 L 455.00 1218.00 L 461.00 1213.00 L 419.00 1235.00 L 414.00 1237.00 L 446.00 1219.00 L 454.00 1206.00 L 438.00 1198.00 L 443.00 1186.00 L 469.00 1170.00 L 470.00 1167.00 L 446.00 1177.00 L 446.00 1174.00 L 470.00 1158.00 L 476.00 1133.00 L 464.00 1099.00 L 461.00 1076.00 L 467.00 1064.00 L 464.00 1050.00 L 452.00 1034.00 L 445.00 1022.00 L 443.00 1014.00 L 427.00 995.00 Z" fill="black" stroke="black" stroke-width="1"/>
</svg>