<?xml version="1.0" encoding="UTF-8"?>
<svg xmlns="http://www.w3.org/2000/svg" viewBox="539.00 165.00 899.00 1636.00">
  <path d="M 628.00 976.00 L 632.00 956.00 L 628.00 939.00 L 616.00 925.00 L 613.00 907.00 L 619.00 885.00 L 618.00 869.00 L 610.00 859.00 L 609.00 839.00 L 615.00 809.00 L 608.00 784.00 L 588.00 764.00 L 584.00 758.00 L 596.00 766.00 L 595.00 763.00 L 581.00 749.00 L 574.00 738.00 L 574.00 730.00 L 596.00 704.00 L 640.00 660.00 L 665.00 614.00 L 671.00 566.00 L 670.00 532.00 L 662.00 512.00 L 662.00 509.00 L 670.00 523.00 L 670.00 521.00 L 662.00 503.00 L 663.00 500.00 L 673.00 512.00 L 674.00 510.00 L 666.00 494.00 L 667.00 493.00 L 677.00 507.00 L 679.00 504.00 L 673.00 484.00 L 674.00 481.00 L 682.00 495.00 L 684.00 491.00 L 680.00 469.00 L 682.00 465.00 L 690.00 479.00 L 692.00 476.00 L 688.00 456.00 L 689.00 450.00 L 695.00 458.00 L 696.00 456.00 L 692.00 444.00 L 693.00 445.00 L 699.00 459.00 L 700.00 458.00 L 696.00 442.00 L 697.00 440.00 L 703.00 452.00 L 704.00 450.00 L 700.00 434.00 L 701.00 432.00 L 707.00 444.00 L 708.00 441.00 L 704.00 423.00 L 703.00 411.00 L 705.00 405.00 L 709.00 410.00 L 715.00 426.00 L 717.00 422.00 L 715.00 398.00 L 717.00 394.00 L 723.00 410.00 L 724.00 407.00 L 720.00 385.00 L 721.00 383.00 L 727.00 401.00 L 730.00 397.00 L 730.00 371.00 L 749.00 338.00 L 787.00 298.00 L 834.00 261.00 L 890.00 227.00 L 932.00 209.00 L 960.00 207.00 L 990.00 197.00 L 1022.00 179.00 L 1079.00 175.00 L 1161.00 185.00 L 1228.00 201.00 L 1280.00 223.00 L 1321.00 246.00 L 1351.00 270.00 L 1380.00 311.00 L 1408.00 369.00 L 1424.00 413.00 L 1428.00 443.00 L 1428.00 498.00 L 1424.00 578.00 L 1415.00 644.00 L 1401.00 696.00 L 1364.00 769.00 L 1304.00 863.00 L 1268.00 925.00 L 1256.00 955.00 L 1244.00 973.00 L 1232.00 979.00 L 1229.00 982.00 L 1235.00 982.00 L 1235.00 985.00 L 1229.00 991.00 L 1231.00 1025.00 L 1241.00 1087.00 L 1244.00 1131.00 L 1240.00 1157.00 L 1252.00 1198.00 L 1280.00 1254.00 L 1303.00 1314.00 L 1321.00 1378.00 L 1293.00 1416.00 L 1219.00 1428.00 L 1154.00 1444.00 L 1098.00 1464.00 L 1034.00 1497.00 L 962.00 1543.00 L 880.00 1608.00 L 788.00 1692.00 L 724.00 1746.00 L 688.00 1770.00 L 655.00 1785.00 L 625.00 1791.00 L 597.00 1785.00 L 571.00 1767.00 L 555.00 1739.00 L 549.00 1701.00 L 569.00 1636.00 L 615.00 1544.00 L 617.00 1537.00 L 575.00 1615.00 L 574.00 1616.00 L 614.00 1540.00 L 618.00 1531.00 L 586.00 1589.00 L 582.00 1587.00 L 606.00 1525.00 L 607.00 1510.00 L 585.00 1542.00 L 582.00 1542.00 L 598.00 1510.00 L 599.00 1505.00 L 585.00 1527.00 L 584.00 1528.00 L 596.00 1508.00 L 596.00 1506.00 L 584.00 1522.00 L 604.00 1486.00 L 656.00 1398.00 L 657.00 1393.00 L 607.00 1471.00 L 618.00 1450.00 L 690.00 1330.00 L 690.00 1322.00 L 618.00 1426.00 L 615.00 1427.00 L 681.00 1325.00 L 685.00 1312.00 L 627.00 1388.00 L 629.00 1381.00 L 691.00 1291.00 L 705.00 1266.00 L 671.00 1306.00 L 652.00 1326.00 L 648.00 1326.00 L 661.00 1307.00 L 691.00 1269.00 L 688.00 1270.00 L 652.00 1310.00 L 655.00 1302.00 L 697.00 1246.00 L 694.00 1246.00 L 646.00 1302.00 L 639.00 1310.00 L 673.00 1270.00 L 669.00 1271.00 L 627.00 1313.00 L 634.00 1302.00 L 690.00 1238.00 L 689.00 1236.00 L 631.00 1296.00 L 630.00 1295.00 L 686.00 1233.00 L 704.00 1211.00 L 684.00 1229.00 L 680.00 1231.00 L 692.00 1217.00 L 691.00 1215.00 L 677.00 1225.00 L 680.00 1220.00 L 700.00 1200.00 L 701.00 1198.00 L 683.00 1214.00 L 682.00 1211.00 L 698.00 1189.00 L 701.00 1162.00 L 691.00 1130.00 L 690.00 1103.00 L 698.00 1081.00 L 688.00 1062.00 L 660.00 1046.00 L 641.00 1028.00 L 631.00 1008.00 L 626.00 995.00 L 626.00 989.00 L 628.00 976.00 Z" fill="black" stroke="black" stroke-width="1"/>
</svg>