<?xml version="1.0" encoding="UTF-8"?>
<svg xmlns="http://www.w3.org/2000/svg" viewBox="364.00 125.00 949.00 1766.00">
  <path d="M 509.00 982.00 L 515.00 950.00 L 511.00 926.00 L 497.00 910.00 L 490.00 878.00 L 490.00 830.00 L 477.00 795.00 L 451.00 773.00 L 460.00 724.00 L 504.00 648.00 L 525.00 586.00 L 523.00 538.00 L 529.00 475.00 L 543.00 397.00 L 552.00 361.00 L 556.00 367.00 L 563.00 354.00 L 573.00 322.00 L 580.00 310.00 L 584.00 318.00 L 585.00 316.00 L 583.00 304.00 L 586.00 302.00 L 594.00 310.00 L 598.00 306.00 L 598.00 290.00 L 601.00 286.00 L 607.00 294.00 L 613.00 287.00 L 619.00 265.00 L 646.00 240.00 L 694.00 212.00 L 768.00 182.00 L 868.00 150.00 L 959.00 135.00 L 1041.00 137.00 L 1109.00 153.00 L 1163.00 183.00 L 1209.00 220.00 L 1247.00 264.00 L 1278.00 336.00 L 1302.00 436.00 L 1303.00 577.00 L 1281.00 759.00 L 1246.00 861.00 L 1198.00 883.00 L 1199.00 885.00 L 1249.00 867.00 L 1248.00 870.00 L 1196.00 894.00 L 1196.00 898.00 L 1248.00 882.00 L 1248.00 884.00 L 1196.00 904.00 L 1196.00 907.00 L 1248.00 893.00 L 1249.00 896.00 L 1199.00 916.00 L 1199.00 922.00 L 1249.00 914.00 L 1249.00 916.00 L 1199.00 928.00 L 1198.00 931.00 L 1246.00 925.00 L 1246.00 928.00 L 1198.00 940.00 L 1198.00 944.00 L 1246.00 940.00 L 1246.00 943.00 L 1198.00 953.00 L 1197.00 956.00 L 1243.00 952.00 L 1243.00 955.00 L 1197.00 965.00 L 1197.00 968.00 L 1243.00 964.00 L 1243.00 967.00 L 1197.00 977.00 L 1196.00 983.00 L 1240.00 985.00 L 1240.00 989.00 L 1196.00 995.00 L 1196.00 998.00 L 1240.00 998.00 L 1246.00 999.00 L 1214.00 1001.00 L 1215.00 1005.00 L 1249.00 1011.00 L 1244.00 1014.00 L 1200.00 1014.00 L 1201.00 1017.00 L 1247.00 1023.00 L 1254.00 1025.00 L 1222.00 1023.00 L 1227.00 1028.00 L 1269.00 1040.00 L 1262.00 1043.00 L 1206.00 1037.00 L 1209.00 1041.00 L 1271.00 1055.00 L 1271.00 1059.00 L 1209.00 1053.00 L 1212.00 1056.00 L 1280.00 1068.00 L 1290.00 1070.00 L 1242.00 1062.00 L 1242.00 1065.00 L 1290.00 1079.00 L 1290.00 1082.00 L 1242.00 1074.00 L 1233.00 1074.00 L 1263.00 1082.00 L 1253.00 1081.00 L 1203.00 1071.00 L 1211.00 1074.00 L 1277.00 1090.00 L 1287.00 1093.00 L 1241.00 1083.00 L 1238.00 1084.00 L 1278.00 1096.00 L 1278.00 1099.00 L 1238.00 1093.00 L 1229.00 1094.00 L 1251.00 1102.00 L 1240.00 1100.00 L 1196.00 1088.00 L 1202.00 1091.00 L 1258.00 1109.00 L 1269.00 1114.00 L 1235.00 1106.00 L 1231.00 1108.00 L 1257.00 1120.00 L 1245.00 1118.00 L 1195.00 1102.00 L 1197.00 1104.00 L 1251.00 1124.00 L 1251.00 1127.00 L 1197.00 1113.00 L 1193.00 1118.00 L 1239.00 1142.00 L 1240.00 1146.00 L 1196.00 1130.00 L 1195.00 1132.00 L 1237.00 1152.00 L 1250.00 1159.00 L 1234.00 1153.00 L 1234.00 1156.00 L 1250.00 1168.00 L 1237.00 1165.00 L 1195.00 1147.00 L 1195.00 1150.00 L 1237.00 1174.00 L 1237.00 1177.00 L 1195.00 1159.00 L 1195.00 1163.00 L 1237.00 1189.00 L 1238.00 1193.00 L 1198.00 1175.00 L 1198.00 1178.00 L 1238.00 1202.00 L 1240.00 1206.00 L 1204.00 1190.00 L 1204.00 1193.00 L 1240.00 1215.00 L 1241.00 1218.00 L 1207.00 1202.00 L 1207.00 1205.00 L 1241.00 1227.00 L 1254.00 1236.00 L 1246.00 1232.00 L 1246.00 1235.00 L 1254.00 1245.00 L 1242.00 1240.00 L 1210.00 1220.00 L 1211.00 1225.00 L 1245.00 1255.00 L 1245.00 1258.00 L 1211.00 1234.00 L 1212.00 1240.00 L 1248.00 1276.00 L 1249.00 1281.00 L 1215.00 1255.00 L 1215.00 1259.00 L 1249.00 1293.00 L 1252.00 1300.00 L 1224.00 1280.00 L 1225.00 1285.00 L 1255.00 1315.00 L 1256.00 1318.00 L 1228.00 1294.00 L 1226.00 1295.00 L 1250.00 1321.00 L 1252.00 1326.00 L 1232.00 1310.00 L 1229.00 1325.00 L 1243.00 1371.00 L 1200.00 1410.00 L 1100.00 1442.00 L 1021.00 1475.00 L 963.00 1509.00 L 900.00 1553.00 L 832.00 1607.00 L 748.00 1685.00 L 648.00 1787.00 L 570.00 1851.00 L 514.00 1877.00 L 466.00 1881.00 L 426.00 1863.00 L 398.00 1840.00 L 382.00 1812.00 L 374.00 1789.00 L 374.00 1771.00 L 384.00 1708.00 L 404.00 1600.00 L 433.00 1516.00 L 471.00 1456.00 L 487.00 1429.00 L 481.00 1435.00 L 488.00 1403.00 L 508.00 1333.00 L 531.00 1285.00 L 557.00 1259.00 L 569.00 1226.00 L 567.00 1186.00 L 557.00 1145.00 L 539.00 1103.00 L 538.00 1075.00 L 554.00 1061.00 L 549.00 1043.00 L 523.00 1021.00 L 509.00 1007.00 L 507.00 1001.00 L 509.00 982.00 Z" fill="black" stroke="black" stroke-width="1"/>
</svg>