<?xml version="1.0" encoding="UTF-8"?>
<svg xmlns="http://www.w3.org/2000/svg" viewBox="231.00 174.00 961.00 1581.00">
  <path d="M 372.00 931.00 L 376.00 909.00 L 372.00 876.00 L 360.00 832.00 L 354.00 803.00 L 354.00 789.00 L 344.00 747.00 L 324.00 677.00 L 295.00 592.00 L 257.00 492.00 L 241.00 432.00 L 247.00 412.00 L 270.00 387.00 L 310.00 357.00 L 398.00 304.00 L 534.00 228.00 L 609.00 188.00 L 623.00 184.00 L 636.00 184.00 L 648.00 188.00 L 657.00 195.00 L 663.00 205.00 L 679.00 216.00 L 705.00 228.00 L 723.00 234.00 L 733.00 234.00 L 757.00 221.00 L 795.00 195.00 L 817.00 184.00 L 823.00 188.00 L 839.00 218.00 L 865.00 274.00 L 904.00 346.00 L 956.00 434.00 L 1023.00 498.00 L 1105.00 538.00 L 1122.00 582.00 L 1074.00 630.00 L 1075.00 631.00 L 1125.00 585.00 L 1125.00 588.00 L 1075.00 640.00 L 1077.00 641.00 L 1131.00 591.00 L 1138.00 585.00 L 1098.00 623.00 L 1100.00 624.00 L 1144.00 588.00 L 1138.00 597.00 L 1082.00 651.00 L 1085.00 652.00 L 1147.00 600.00 L 1165.00 587.00 L 1139.00 613.00 L 1129.00 625.00 L 1135.00 623.00 L 1118.00 639.00 L 1078.00 673.00 L 1091.00 664.00 L 1157.00 612.00 L 1182.00 594.00 L 1166.00 610.00 L 1160.00 617.00 L 1164.00 615.00 L 1139.00 636.00 L 1085.00 680.00 L 1092.00 676.00 L 1160.00 624.00 L 1161.00 625.00 L 1095.00 679.00 L 1060.00 723.00 L 1056.00 757.00 L 1071.00 812.00 L 1105.00 888.00 L 1119.00 931.00 L 1113.00 941.00 L 1102.00 949.00 L 1086.00 955.00 L 1076.00 961.00 L 1072.00 967.00 L 1072.00 979.00 L 1076.00 997.00 L 1073.00 1013.00 L 1063.00 1027.00 L 1060.00 1041.00 L 1064.00 1055.00 L 1061.00 1070.00 L 1051.00 1086.00 L 1050.00 1105.00 L 1058.00 1127.00 L 1057.00 1145.00 L 1047.00 1159.00 L 1026.00 1173.00 L 994.00 1187.00 L 981.00 1199.00 L 987.00 1209.00 L 986.00 1211.00 L 978.00 1205.00 L 976.00 1208.00 L 980.00 1220.00 L 976.00 1232.00 L 964.00 1244.00 L 965.00 1264.00 L 979.00 1292.00 L 977.00 1294.00 L 959.00 1270.00 L 958.00 1272.00 L 974.00 1300.00 L 973.00 1301.00 L 955.00 1275.00 L 945.00 1264.00 L 943.00 1268.00 L 959.00 1303.00 L 993.00 1369.00 L 992.00 1372.00 L 956.00 1312.00 L 953.00 1314.00 L 983.00 1378.00 L 993.00 1409.00 L 983.00 1407.00 L 968.00 1392.00 L 948.00 1364.00 L 952.00 1380.00 L 980.00 1440.00 L 978.00 1437.00 L 946.00 1371.00 L 971.00 1424.00 L 1053.00 1596.00 L 1066.00 1624.00 L 1010.00 1508.00 L 1009.00 1506.00 L 1063.00 1618.00 L 1066.00 1626.00 L 1018.00 1530.00 L 1020.00 1538.00 L 1072.00 1650.00 L 1066.00 1639.00 L 1002.00 1505.00 L 1002.00 1507.00 L 1066.00 1645.00 L 1055.00 1622.00 L 969.00 1438.00 L 969.00 1440.00 L 1055.00 1628.00 L 1055.00 1630.00 L 969.00 1446.00 L 967.00 1449.00 L 1049.00 1639.00 L 1051.00 1647.00 L 973.00 1473.00 L 970.00 1475.00 L 1042.00 1653.00 L 1076.00 1743.00 L 1072.00 1745.00 L 1060.00 1743.00 L 1040.00 1737.00 L 1019.00 1725.00 L 997.00 1707.00 L 966.00 1676.00 L 926.00 1632.00 L 888.00 1599.00 L 852.00 1577.00 L 804.00 1555.00 L 744.00 1533.00 L 656.00 1508.00 L 540.00 1480.00 L 471.00 1462.00 L 449.00 1454.00 L 428.00 1441.00 L 408.00 1423.00 L 394.00 1402.00 L 386.00 1378.00 L 391.00 1326.00 L 409.00 1246.00 L 417.00 1193.00 L 415.00 1167.00 L 418.00 1140.00 L 426.00 1112.00 L 427.00 1098.00 L 421.00 1098.00 L 421.00 1095.00 L 427.00 1089.00 L 425.00 1088.00 L 415.00 1092.00 L 414.00 1092.00 L 422.00 1088.00 L 422.00 1086.00 L 414.00 1086.00 L 410.00 1081.00 L 410.00 1071.00 L 395.00 1068.00 L 365.00 1072.00 L 365.00 1069.00 L 395.00 1059.00 L 393.00 1059.00 L 359.00 1069.00 L 359.00 1067.00 L 393.00 1053.00 L 391.00 1051.00 L 353.00 1061.00 L 350.00 1060.00 L 382.00 1048.00 L 382.00 1046.00 L 350.00 1054.00 L 342.00 1031.00 L 358.00 977.00 L 367.00 948.00 L 369.00 944.00 L 372.00 931.00 Z" fill="black" stroke="black" stroke-width="1"/>
</svg>