<?xml version="1.0" encoding="UTF-8"?>
<svg xmlns="http://www.w3.org/2000/svg" viewBox="229.00 52.00 1186.00 1822.00">
  <path d="M 302.00 966.00 L 310.00 954.00 L 310.00 943.00 L 302.00 933.00 L 300.00 911.00 L 304.00 877.00 L 292.00 851.00 L 264.00 833.00 L 247.00 817.00 L 241.00 803.00 L 255.00 776.00 L 289.00 736.00 L 323.00 703.00 L 357.00 677.00 L 329.00 614.00 L 239.00 514.00 L 241.00 511.00 L 335.00 605.00 L 336.00 602.00 L 244.00 502.00 L 245.00 498.00 L 339.00 590.00 L 342.00 589.00 L 254.00 495.00 L 254.00 493.00 L 342.00 583.00 L 346.00 581.00 L 266.00 487.00 L 266.00 484.00 L 346.00 572.00 L 349.00 571.00 L 275.00 481.00 L 275.00 478.00 L 349.00 562.00 L 352.00 561.00 L 284.00 475.00 L 285.00 473.00 L 355.00 555.00 L 357.00 555.00 L 291.00 473.00 L 292.00 472.00 L 360.00 552.00 L 363.00 551.00 L 301.00 469.00 L 302.00 467.00 L 366.00 545.00 L 369.00 544.00 L 311.00 464.00 L 312.00 461.00 L 372.00 535.00 L 376.00 535.00 L 324.00 461.00 L 326.00 459.00 L 382.00 529.00 L 385.00 528.00 L 335.00 456.00 L 336.00 454.00 L 388.00 522.00 L 391.00 522.00 L 345.00 454.00 L 337.00 439.00 L 367.00 477.00 L 370.00 477.00 L 346.00 439.00 L 349.00 440.00 L 379.00 480.00 L 381.00 480.00 L 355.00 440.00 L 363.00 450.00 L 405.00 510.00 L 409.00 510.00 L 375.00 450.00 L 376.00 447.00 L 412.00 501.00 L 415.00 501.00 L 385.00 447.00 L 386.00 445.00 L 418.00 495.00 L 422.00 495.00 L 398.00 445.00 L 405.00 421.00 L 443.00 423.00 L 480.00 401.00 L 516.00 355.00 L 569.00 296.00 L 639.00 224.00 L 711.00 158.00 L 785.00 98.00 L 844.00 66.00 L 888.00 62.00 L 968.00 115.00 L 1084.00 225.00 L 1193.00 323.00 L 1295.00 409.00 L 1360.00 468.00 L 1388.00 500.00 L 1403.00 521.00 L 1405.00 531.00 L 1320.00 648.00 L 1148.00 872.00 L 1073.00 1039.00 L 1095.00 1149.00 L 1090.00 1197.00 L 1058.00 1183.00 L 1058.00 1186.00 L 1090.00 1206.00 L 1088.00 1207.00 L 1052.00 1189.00 L 1049.00 1193.00 L 1079.00 1219.00 L 1081.00 1225.00 L 1055.00 1211.00 L 1052.00 1212.00 L 1072.00 1228.00 L 1063.00 1229.00 L 1025.00 1215.00 L 1013.00 1215.00 L 1027.00 1229.00 L 1027.00 1232.00 L 1013.00 1224.00 L 1006.00 1223.00 L 1006.00 1229.00 L 1008.00 1255.00 L 1012.00 1301.00 L 1026.00 1346.00 L 1050.00 1390.00 L 1070.00 1441.00 L 1086.00 1499.00 L 1097.00 1559.00 L 1103.00 1621.00 L 1074.00 1647.00 L 1010.00 1637.00 L 935.00 1636.00 L 849.00 1644.00 L 759.00 1665.00 L 665.00 1699.00 L 577.00 1744.00 L 495.00 1800.00 L 433.00 1837.00 L 391.00 1855.00 L 362.00 1864.00 L 346.00 1864.00 L 326.00 1859.00 L 302.00 1849.00 L 284.00 1838.00 L 272.00 1826.00 L 262.00 1809.00 L 254.00 1787.00 L 251.00 1741.00 L 253.00 1671.00 L 261.00 1619.00 L 275.00 1585.00 L 295.00 1548.00 L 321.00 1508.00 L 326.00 1499.00 L 310.00 1521.00 L 311.00 1518.00 L 329.00 1490.00 L 341.00 1462.00 L 347.00 1434.00 L 355.00 1412.00 L 365.00 1396.00 L 369.00 1382.00 L 367.00 1370.00 L 375.00 1353.00 L 393.00 1331.00 L 393.00 1329.00 L 375.00 1347.00 L 375.00 1337.00 L 393.00 1299.00 L 394.00 1287.00 L 378.00 1301.00 L 378.00 1298.00 L 394.00 1278.00 L 392.00 1277.00 L 372.00 1295.00 L 372.00 1293.00 L 392.00 1271.00 L 390.00 1268.00 L 366.00 1284.00 L 365.00 1281.00 L 387.00 1259.00 L 392.00 1231.00 L 380.00 1197.00 L 381.00 1175.00 L 395.00 1165.00 L 397.00 1162.00 L 387.00 1166.00 L 385.00 1165.00 L 391.00 1159.00 L 377.00 1148.00 L 343.00 1132.00 L 318.00 1116.00 L 302.00 1100.00 L 295.00 1083.00 L 297.00 1065.00 L 305.00 1048.00 L 319.00 1032.00 L 321.00 1014.00 L 311.00 994.00 L 304.00 981.00 L 300.00 975.00 L 302.00 966.00 Z" fill="black" stroke="black" stroke-width="1"/>
</svg>