<?xml version="1.0" encoding="UTF-8"?>
<svg xmlns="http://www.w3.org/2000/svg" viewBox="319.00 60.00 1112.00 1687.00">
  <path d="M 383.00 910.00 L 385.00 886.00 L 374.00 868.00 L 350.00 856.00 L 335.00 845.00 L 329.00 835.00 L 356.00 799.00 L 416.00 737.00 L 451.00 684.00 L 461.00 640.00 L 463.00 612.00 L 457.00 600.00 L 458.00 597.00 L 466.00 603.00 L 442.00 576.00 L 386.00 516.00 L 386.00 514.00 L 442.00 570.00 L 446.00 572.00 L 398.00 520.00 L 400.00 519.00 L 452.00 569.00 L 450.00 564.00 L 394.00 504.00 L 375.00 481.00 L 393.00 495.00 L 394.00 492.00 L 378.00 472.00 L 399.00 493.00 L 457.00 555.00 L 459.00 553.00 L 405.00 487.00 L 406.00 483.00 L 462.00 541.00 L 465.00 540.00 L 415.00 480.00 L 417.00 480.00 L 471.00 540.00 L 474.00 539.00 L 426.00 477.00 L 426.00 474.00 L 474.00 530.00 L 478.00 529.00 L 438.00 471.00 L 440.00 470.00 L 484.00 526.00 L 489.00 525.00 L 455.00 467.00 L 458.00 437.00 L 498.00 435.00 L 537.00 440.00 L 575.00 452.00 L 631.00 416.00 L 705.00 332.00 L 745.00 292.00 L 751.00 296.00 L 756.00 292.00 L 760.00 280.00 L 764.00 279.00 L 768.00 289.00 L 770.00 285.00 L 770.00 267.00 L 772.00 267.00 L 776.00 285.00 L 778.00 283.00 L 778.00 261.00 L 780.00 260.00 L 784.00 280.00 L 786.00 277.00 L 786.00 251.00 L 788.00 249.00 L 792.00 271.00 L 796.00 266.00 L 800.00 234.00 L 836.00 181.00 L 904.00 107.00 L 946.00 70.00 L 962.00 70.00 L 993.00 88.00 L 1039.00 124.00 L 1142.00 212.00 L 1302.00 352.00 L 1392.00 434.00 L 1412.00 458.00 L 1421.00 482.00 L 1419.00 506.00 L 1385.00 572.00 L 1319.00 680.00 L 1255.00 793.00 L 1193.00 911.00 L 1168.00 996.00 L 1180.00 1048.00 L 1165.00 1068.00 L 1123.00 1056.00 L 1123.00 1061.00 L 1165.00 1083.00 L 1164.00 1085.00 L 1120.00 1067.00 L 1120.00 1070.00 L 1164.00 1094.00 L 1162.00 1097.00 L 1114.00 1079.00 L 1115.00 1082.00 L 1165.00 1106.00 L 1171.00 1110.00 L 1133.00 1094.00 L 1133.00 1097.00 L 1171.00 1119.00 L 1162.00 1117.00 L 1106.00 1091.00 L 1106.00 1094.00 L 1162.00 1126.00 L 1159.00 1126.00 L 1097.00 1094.00 L 1096.00 1096.00 L 1156.00 1132.00 L 1153.00 1133.00 L 1087.00 1099.00 L 1087.00 1102.00 L 1153.00 1142.00 L 1154.00 1145.00 L 1090.00 1111.00 L 1089.00 1114.00 L 1151.00 1154.00 L 1151.00 1156.00 L 1089.00 1120.00 L 1088.00 1122.00 L 1148.00 1162.00 L 1148.00 1164.00 L 1088.00 1128.00 L 1087.00 1130.00 L 1145.00 1170.00 L 1166.00 1186.00 L 1150.00 1178.00 L 1149.00 1180.00 L 1163.00 1192.00 L 1163.00 1194.00 L 1149.00 1186.00 L 1121.00 1167.00 L 1079.00 1137.00 L 1083.00 1143.00 L 1133.00 1185.00 L 1134.00 1188.00 L 1086.00 1152.00 L 1065.00 1152.00 L 1071.00 1188.00 L 1073.00 1227.00 L 1071.00 1269.00 L 1084.00 1334.00 L 1112.00 1422.00 L 1125.00 1486.00 L 1123.00 1526.00 L 1082.00 1543.00 L 1002.00 1537.00 L 936.00 1538.00 L 884.00 1546.00 L 826.00 1564.00 L 762.00 1592.00 L 678.00 1638.00 L 574.00 1702.00 L 512.00 1735.00 L 492.00 1737.00 L 474.00 1734.00 L 458.00 1726.00 L 444.00 1715.00 L 432.00 1701.00 L 423.00 1678.00 L 417.00 1646.00 L 438.00 1553.00 L 486.00 1399.00 L 496.00 1334.00 L 468.00 1358.00 L 472.00 1345.00 L 508.00 1295.00 L 505.00 1296.00 L 463.00 1348.00 L 460.00 1349.00 L 496.00 1299.00 L 490.00 1300.00 L 442.00 1352.00 L 441.00 1351.00 L 487.00 1297.00 L 484.00 1296.00 L 432.00 1348.00 L 430.00 1342.00 L 478.00 1278.00 L 494.00 1254.00 L 478.00 1270.00 L 477.00 1267.00 L 491.00 1245.00 L 486.00 1220.00 L 462.00 1192.00 L 451.00 1167.00 L 453.00 1145.00 L 443.00 1126.00 L 421.00 1110.00 L 408.00 1091.00 L 404.00 1069.00 L 405.00 1049.00 L 411.00 1031.00 L 406.00 1010.00 L 390.00 986.00 L 384.00 969.00 L 388.00 959.00 L 386.00 949.00 L 378.00 939.00 L 376.00 931.00 L 380.00 925.00 L 383.00 910.00 Z" fill="black" stroke="black" stroke-width="1"/>
</svg>