<?xml version="1.0" encoding="UTF-8"?>
<svg xmlns="http://www.w3.org/2000/svg" viewBox="318.00 260.00 909.00 1365.00">
  <path d="M 458.00 941.00 L 450.00 923.00 L 447.00 891.00 L 449.00 845.00 L 437.00 812.00 L 411.00 792.00 L 397.00 776.00 L 395.00 764.00 L 416.00 731.00 L 460.00 677.00 L 474.00 635.00 L 458.00 605.00 L 458.00 600.00 L 474.00 620.00 L 474.00 618.00 L 458.00 594.00 L 458.00 592.00 L 474.00 612.00 L 474.00 610.00 L 458.00 586.00 L 458.00 584.00 L 474.00 604.00 L 475.00 602.00 L 461.00 578.00 L 461.00 575.00 L 475.00 593.00 L 475.00 591.00 L 461.00 569.00 L 461.00 567.00 L 475.00 585.00 L 475.00 583.00 L 461.00 561.00 L 461.00 560.00 L 475.00 580.00 L 475.00 569.00 L 461.00 527.00 L 462.00 518.00 L 478.00 542.00 L 479.00 539.00 L 465.00 509.00 L 465.00 505.00 L 479.00 527.00 L 480.00 525.00 L 468.00 499.00 L 469.00 497.00 L 483.00 519.00 L 484.00 516.00 L 472.00 488.00 L 473.00 483.00 L 487.00 501.00 L 490.00 497.00 L 482.00 471.00 L 483.00 467.00 L 493.00 485.00 L 496.00 482.00 L 492.00 458.00 L 494.00 452.00 L 502.00 464.00 L 503.00 462.00 L 497.00 446.00 L 503.00 424.00 L 521.00 396.00 L 550.00 367.00 L 590.00 337.00 L 636.00 312.00 L 688.00 292.00 L 764.00 278.00 L 864.00 270.00 L 940.00 274.00 L 992.00 290.00 L 1048.00 321.00 L 1108.00 367.00 L 1159.00 435.00 L 1201.00 525.00 L 1217.00 608.00 L 1207.00 684.00 L 1171.00 769.00 L 1109.00 863.00 L 1067.00 921.00 L 1045.00 943.00 L 1016.00 956.00 L 980.00 960.00 L 978.00 965.00 L 1010.00 971.00 L 1009.00 974.00 L 975.00 974.00 L 975.00 976.00 L 1009.00 980.00 L 1008.00 982.00 L 972.00 982.00 L 967.00 986.00 L 993.00 994.00 L 993.00 997.00 L 967.00 995.00 L 965.00 996.00 L 987.00 1000.00 L 986.00 1003.00 L 962.00 1005.00 L 949.00 1011.00 L 947.00 1021.00 L 948.00 1051.00 L 952.00 1101.00 L 977.00 1162.00 L 1023.00 1234.00 L 1052.00 1295.00 L 1064.00 1345.00 L 1007.00 1379.00 L 881.00 1397.00 L 765.00 1432.00 L 659.00 1484.00 L 569.00 1537.00 L 495.00 1591.00 L 492.00 1530.00 L 560.00 1354.00 L 559.00 1355.00 L 489.00 1533.00 L 491.00 1527.00 L 565.00 1337.00 L 562.00 1340.00 L 482.00 1536.00 L 483.00 1532.00 L 565.00 1328.00 L 564.00 1329.00 L 480.00 1535.00 L 481.00 1531.00 L 567.00 1317.00 L 562.00 1321.00 L 466.00 1543.00 L 466.00 1541.00 L 562.00 1315.00 L 558.00 1320.00 L 454.00 1556.00 L 454.00 1554.00 L 558.00 1314.00 L 552.00 1320.00 L 436.00 1572.00 L 436.00 1570.00 L 552.00 1314.00 L 548.00 1316.00 L 424.00 1576.00 L 424.00 1574.00 L 548.00 1310.00 L 547.00 1309.00 L 421.00 1571.00 L 421.00 1568.00 L 547.00 1300.00 L 544.00 1297.00 L 412.00 1559.00 L 383.00 1615.00 L 457.00 1465.00 L 455.00 1462.00 L 377.00 1606.00 L 406.00 1547.00 L 542.00 1285.00 L 541.00 1284.00 L 403.00 1544.00 L 403.00 1542.00 L 541.00 1278.00 L 539.00 1275.00 L 397.00 1533.00 L 357.00 1602.00 L 419.00 1482.00 L 417.00 1476.00 L 351.00 1584.00 L 391.00 1512.00 L 537.00 1260.00 L 536.00 1258.00 L 388.00 1506.00 L 342.00 1582.00 L 398.00 1486.00 L 397.00 1484.00 L 339.00 1576.00 L 335.00 1579.00 L 385.00 1493.00 L 385.00 1488.00 L 335.00 1564.00 L 331.00 1567.00 L 373.00 1497.00 L 372.00 1493.00 L 328.00 1555.00 L 381.00 1470.00 L 531.00 1238.00 L 531.00 1236.00 L 381.00 1464.00 L 380.00 1462.00 L 528.00 1230.00 L 568.00 1091.00 L 500.00 1045.00 L 465.00 1005.00 L 463.00 971.00 L 462.00 953.00 L 462.00 951.00 L 458.00 941.00 Z" fill="black" stroke="black" stroke-width="1"/>
</svg>