<?xml version="1.0" encoding="UTF-8"?>
<svg xmlns="http://www.w3.org/2000/svg" viewBox="210.00 122.00 1064.00 1673.00">
  <path d="M 377.00 955.00 L 383.00 949.00 L 379.00 941.00 L 365.00 931.00 L 360.00 917.00 L 364.00 899.00 L 355.00 876.00 L 333.00 848.00 L 322.00 829.00 L 322.00 819.00 L 344.00 786.00 L 388.00 730.00 L 357.00 650.00 L 251.00 546.00 L 253.00 544.00 L 363.00 644.00 L 365.00 641.00 L 259.00 535.00 L 220.00 494.00 L 248.00 518.00 L 250.00 517.00 L 226.00 491.00 L 265.00 529.00 L 367.00 631.00 L 369.00 630.00 L 271.00 526.00 L 272.00 524.00 L 372.00 624.00 L 377.00 623.00 L 287.00 521.00 L 262.00 489.00 L 302.00 527.00 L 305.00 526.00 L 271.00 486.00 L 296.00 513.00 L 380.00 607.00 L 383.00 607.00 L 305.00 513.00 L 305.00 510.00 L 383.00 598.00 L 386.00 598.00 L 314.00 510.00 L 315.00 508.00 L 389.00 592.00 L 393.00 591.00 L 327.00 505.00 L 328.00 502.00 L 396.00 582.00 L 400.00 582.00 L 340.00 502.00 L 341.00 499.00 L 403.00 573.00 L 408.00 573.00 L 356.00 499.00 L 357.00 498.00 L 411.00 570.00 L 414.00 570.00 L 366.00 498.00 L 363.00 491.00 L 405.00 549.00 L 408.00 549.00 L 372.00 491.00 L 377.00 495.00 L 423.00 561.00 L 425.00 561.00 L 383.00 495.00 L 384.00 493.00 L 428.00 555.00 L 430.00 555.00 L 390.00 493.00 L 391.00 491.00 L 433.00 549.00 L 436.00 549.00 L 400.00 491.00 L 404.00 465.00 L 448.00 471.00 L 498.00 439.00 L 554.00 369.00 L 635.00 285.00 L 741.00 187.00 L 807.00 136.00 L 833.00 132.00 L 857.00 137.00 L 879.00 151.00 L 975.00 245.00 L 1145.00 419.00 L 1239.00 520.00 L 1257.00 548.00 L 1264.00 571.00 L 1260.00 589.00 L 1202.00 665.00 L 1090.00 799.00 L 1016.00 895.00 L 980.00 953.00 L 975.00 998.00 L 1001.00 1030.00 L 1024.00 1068.00 L 1044.00 1112.00 L 1031.00 1124.00 L 985.00 1104.00 L 986.00 1106.00 L 1034.00 1130.00 L 1031.00 1129.00 L 977.00 1103.00 L 977.00 1106.00 L 1031.00 1138.00 L 1032.00 1141.00 L 980.00 1115.00 L 981.00 1118.00 L 1035.00 1150.00 L 1036.00 1153.00 L 984.00 1127.00 L 984.00 1129.00 L 1036.00 1159.00 L 1036.00 1160.00 L 984.00 1132.00 L 984.00 1134.00 L 1036.00 1166.00 L 1037.00 1169.00 L 987.00 1143.00 L 986.00 1145.00 L 1034.00 1175.00 L 1035.00 1178.00 L 989.00 1154.00 L 974.00 1175.00 L 990.00 1241.00 L 996.00 1272.00 L 992.00 1268.00 L 1001.00 1283.00 L 1023.00 1317.00 L 1046.00 1369.00 L 1070.00 1439.00 L 1043.00 1477.00 L 965.00 1483.00 L 889.00 1497.00 L 815.00 1519.00 L 747.00 1548.00 L 685.00 1584.00 L 615.00 1637.00 L 537.00 1707.00 L 487.00 1749.00 L 465.00 1763.00 L 438.00 1775.00 L 406.00 1785.00 L 379.00 1781.00 L 357.00 1763.00 L 343.00 1733.00 L 337.00 1691.00 L 345.00 1638.00 L 367.00 1574.00 L 376.00 1545.00 L 372.00 1551.00 L 394.00 1509.00 L 442.00 1419.00 L 448.00 1405.00 L 412.00 1467.00 L 411.00 1464.00 L 445.00 1396.00 L 446.00 1388.00 L 414.00 1440.00 L 418.00 1425.00 L 458.00 1343.00 L 472.00 1307.00 L 460.00 1317.00 L 460.00 1311.00 L 472.00 1289.00 L 469.00 1290.00 L 451.00 1314.00 L 449.00 1313.00 L 463.00 1287.00 L 460.00 1287.00 L 440.00 1313.00 L 443.00 1303.00 L 469.00 1257.00 L 474.00 1243.00 L 458.00 1261.00 L 459.00 1258.00 L 477.00 1234.00 L 476.00 1231.00 L 456.00 1249.00 L 455.00 1247.00 L 473.00 1225.00 L 475.00 1222.00 L 461.00 1238.00 L 462.00 1233.00 L 478.00 1207.00 L 483.00 1180.00 L 477.00 1152.00 L 480.00 1133.00 L 492.00 1123.00 L 493.00 1121.00 L 483.00 1127.00 L 481.00 1126.00 L 487.00 1118.00 L 475.00 1111.00 L 445.00 1105.00 L 420.00 1096.00 L 400.00 1084.00 L 388.00 1074.00 L 384.00 1066.00 L 384.00 1046.00 L 388.00 1014.00 L 385.00 990.00 L 375.00 974.00 L 371.00 964.00 L 373.00 960.00 L 377.00 955.00 Z" fill="black" stroke="black" stroke-width="1"/>
</svg>