<?xml version="1.0" encoding="UTF-8"?>
<svg xmlns="http://www.w3.org/2000/svg" viewBox="378.00 181.00 860.00 1533.00">
  <path d="M 467.00 908.00 L 457.00 896.00 L 454.00 885.00 L 458.00 875.00 L 455.00 866.00 L 445.00 858.00 L 444.00 846.00 L 452.00 830.00 L 440.00 814.00 L 408.00 798.00 L 407.00 795.00 L 437.00 805.00 L 436.00 804.00 L 404.00 792.00 L 403.00 791.00 L 433.00 801.00 L 432.00 798.00 L 400.00 782.00 L 388.00 765.00 L 396.00 747.00 L 404.00 735.00 L 412.00 729.00 L 424.00 711.00 L 440.00 681.00 L 455.00 658.00 L 469.00 642.00 L 478.00 628.00 L 482.00 616.00 L 483.00 600.00 L 481.00 580.00 L 483.00 563.00 L 489.00 549.00 L 488.00 534.00 L 480.00 518.00 L 481.00 516.00 L 491.00 528.00 L 494.00 528.00 L 490.00 516.00 L 491.00 514.00 L 497.00 522.00 L 496.00 520.00 L 488.00 508.00 L 489.00 506.00 L 499.00 514.00 L 501.00 512.00 L 495.00 500.00 L 496.00 499.00 L 504.00 509.00 L 507.00 510.00 L 505.00 502.00 L 506.00 499.00 L 510.00 501.00 L 510.00 498.00 L 506.00 490.00 L 507.00 487.00 L 513.00 489.00 L 514.00 483.00 L 510.00 469.00 L 511.00 467.00 L 517.00 477.00 L 518.00 474.00 L 514.00 458.00 L 515.00 454.00 L 521.00 462.00 L 522.00 460.00 L 518.00 448.00 L 519.00 444.00 L 525.00 448.00 L 526.00 446.00 L 522.00 438.00 L 522.00 436.00 L 526.00 440.00 L 527.00 438.00 L 525.00 430.00 L 526.00 429.00 L 530.00 435.00 L 533.00 436.00 L 535.00 432.00 L 535.00 425.00 L 533.00 415.00 L 538.00 397.00 L 550.00 371.00 L 567.00 350.00 L 589.00 334.00 L 610.00 315.00 L 630.00 293.00 L 649.00 278.00 L 667.00 270.00 L 680.00 261.00 L 688.00 251.00 L 701.00 244.00 L 719.00 240.00 L 740.00 229.00 L 764.00 211.00 L 785.00 202.00 L 803.00 202.00 L 816.00 200.00 L 824.00 196.00 L 838.00 195.00 L 858.00 197.00 L 872.00 196.00 L 880.00 192.00 L 894.00 191.00 L 914.00 193.00 L 951.00 203.00 L 1005.00 221.00 L 1044.00 239.00 L 1068.00 257.00 L 1100.00 290.00 L 1140.00 338.00 L 1167.00 376.00 L 1181.00 404.00 L 1192.00 435.00 L 1200.00 469.00 L 1206.00 505.00 L 1210.00 543.00 L 1212.00 599.00 L 1212.00 673.00 L 1205.00 735.00 L 1191.00 785.00 L 1178.00 823.00 L 1166.00 849.00 L 1160.00 867.00 L 1160.00 877.00 L 1153.00 885.00 L 1139.00 891.00 L 1139.00 894.00 L 1153.00 894.00 L 1154.00 896.00 L 1142.00 900.00 L 1140.00 903.00 L 1148.00 905.00 L 1149.00 908.00 L 1143.00 912.00 L 1143.00 942.00 L 1149.00 998.00 L 1148.00 1035.00 L 1140.00 1053.00 L 1145.00 1074.00 L 1163.00 1098.00 L 1175.00 1123.00 L 1181.00 1149.00 L 1195.00 1182.00 L 1217.00 1222.00 L 1228.00 1247.00 L 1228.00 1257.00 L 1214.00 1262.00 L 1186.00 1262.00 L 1147.00 1266.00 L 1097.00 1274.00 L 1052.00 1285.00 L 1012.00 1299.00 L 976.00 1315.00 L 944.00 1333.00 L 896.00 1366.00 L 832.00 1414.00 L 749.00 1495.00 L 647.00 1609.00 L 586.00 1674.00 L 566.00 1690.00 L 549.00 1700.00 L 535.00 1704.00 L 511.00 1700.00 L 477.00 1688.00 L 453.00 1675.00 L 439.00 1661.00 L 428.00 1645.00 L 420.00 1627.00 L 416.00 1595.00 L 416.00 1549.00 L 420.00 1514.00 L 428.00 1490.00 L 430.00 1481.00 L 426.00 1487.00 L 435.00 1466.00 L 457.00 1418.00 L 469.00 1380.00 L 471.00 1352.00 L 482.00 1320.00 L 502.00 1284.00 L 509.00 1270.00 L 503.00 1278.00 L 502.00 1279.00 L 506.00 1273.00 L 506.00 1262.00 L 502.00 1246.00 L 501.00 1229.00 L 503.00 1211.00 L 500.00 1206.00 L 492.00 1214.00 L 493.00 1212.00 L 503.00 1200.00 L 493.00 1205.00 L 463.00 1227.00 L 464.00 1220.00 L 496.00 1184.00 L 494.00 1183.00 L 458.00 1217.00 L 456.00 1216.00 L 488.00 1180.00 L 502.00 1161.00 L 498.00 1159.00 L 501.00 1151.00 L 511.00 1137.00 L 509.00 1135.00 L 495.00 1145.00 L 496.00 1142.00 L 512.00 1126.00 L 512.00 1123.00 L 496.00 1133.00 L 493.00 1129.00 L 503.00 1111.00 L 508.00 1097.00 L 508.00 1087.00 L 503.00 1076.00 L 493.00 1064.00 L 494.00 1053.00 L 506.00 1043.00 L 509.00 1039.00 L 503.00 1041.00 L 501.00 1040.00 L 503.00 1036.00 L 494.00 1028.00 L 474.00 1016.00 L 461.00 1006.00 L 455.00 998.00 L 452.00 989.00 L 452.00 979.00 L 458.00 965.00 L 470.00 947.00 L 476.00 934.00 L 476.00 926.00 L 475.00 920.00 L 473.00 916.00 L 467.00 908.00 Z" fill="black" stroke="black" stroke-width="1"/>
</svg>