<?xml version="1.0" encoding="UTF-8"?>
<svg xmlns="http://www.w3.org/2000/svg" viewBox="319.00 137.00 940.00 1761.00">
  <path d="M 408.00 1013.00 L 404.00 1003.00 L 406.00 983.00 L 414.00 953.00 L 411.00 926.00 L 397.00 902.00 L 396.00 885.00 L 408.00 875.00 L 410.00 862.00 L 402.00 846.00 L 402.00 824.00 L 410.00 796.00 L 399.00 771.00 L 369.00 749.00 L 369.00 746.00 L 399.00 762.00 L 398.00 759.00 L 366.00 737.00 L 357.00 714.00 L 371.00 690.00 L 397.00 659.00 L 435.00 621.00 L 452.00 587.00 L 448.00 557.00 L 449.00 545.00 L 455.00 551.00 L 454.00 548.00 L 446.00 536.00 L 449.00 537.00 L 463.00 551.00 L 463.00 545.00 L 449.00 519.00 L 456.00 470.00 L 484.00 398.00 L 496.00 356.00 L 492.00 344.00 L 493.00 341.00 L 499.00 347.00 L 500.00 345.00 L 496.00 335.00 L 521.00 309.00 L 575.00 267.00 L 629.00 232.00 L 683.00 204.00 L 738.00 182.00 L 794.00 166.00 L 843.00 155.00 L 885.00 149.00 L 929.00 147.00 L 975.00 149.00 L 1028.00 162.00 L 1088.00 186.00 L 1134.00 216.00 L 1166.00 252.00 L 1192.00 290.00 L 1212.00 330.00 L 1228.00 387.00 L 1240.00 461.00 L 1247.00 543.00 L 1249.00 633.00 L 1245.00 715.00 L 1235.00 789.00 L 1230.00 842.00 L 1230.00 874.00 L 1234.00 904.00 L 1242.00 932.00 L 1245.00 970.00 L 1243.00 1018.00 L 1240.00 1049.00 L 1236.00 1063.00 L 1213.00 1071.00 L 1171.00 1073.00 L 1171.00 1077.00 L 1213.00 1083.00 L 1214.00 1085.00 L 1174.00 1083.00 L 1175.00 1086.00 L 1217.00 1094.00 L 1217.00 1096.00 L 1175.00 1092.00 L 1176.00 1096.00 L 1220.00 1108.00 L 1219.00 1110.00 L 1173.00 1102.00 L 1174.00 1105.00 L 1222.00 1119.00 L 1222.00 1122.00 L 1174.00 1114.00 L 1174.00 1116.00 L 1222.00 1128.00 L 1224.00 1130.00 L 1180.00 1122.00 L 1180.00 1125.00 L 1224.00 1139.00 L 1222.00 1140.00 L 1174.00 1128.00 L 1174.00 1132.00 L 1222.00 1152.00 L 1222.00 1155.00 L 1174.00 1141.00 L 1153.00 1136.00 L 1159.00 1140.00 L 1159.00 1142.00 L 1153.00 1142.00 L 1174.00 1151.00 L 1222.00 1169.00 L 1225.00 1171.00 L 1183.00 1157.00 L 1183.00 1159.00 L 1225.00 1177.00 L 1223.00 1179.00 L 1177.00 1165.00 L 1177.00 1168.00 L 1223.00 1188.00 L 1226.00 1192.00 L 1186.00 1180.00 L 1188.00 1183.00 L 1232.00 1201.00 L 1229.00 1200.00 L 1179.00 1180.00 L 1182.00 1183.00 L 1238.00 1209.00 L 1239.00 1212.00 L 1185.00 1192.00 L 1186.00 1195.00 L 1242.00 1221.00 L 1242.00 1223.00 L 1186.00 1201.00 L 1184.00 1204.00 L 1236.00 1232.00 L 1236.00 1235.00 L 1184.00 1213.00 L 1181.00 1214.00 L 1227.00 1238.00 L 1227.00 1240.00 L 1181.00 1220.00 L 1181.00 1226.00 L 1227.00 1258.00 L 1228.00 1262.00 L 1184.00 1238.00 L 1183.00 1241.00 L 1225.00 1271.00 L 1225.00 1275.00 L 1183.00 1253.00 L 1180.00 1255.00 L 1216.00 1281.00 L 1215.00 1284.00 L 1177.00 1264.00 L 1171.00 1263.00 L 1197.00 1281.00 L 1196.00 1284.00 L 1168.00 1272.00 L 1167.00 1275.00 L 1193.00 1293.00 L 1192.00 1295.00 L 1164.00 1281.00 L 1164.00 1284.00 L 1192.00 1304.00 L 1192.00 1307.00 L 1164.00 1293.00 L 1163.00 1297.00 L 1189.00 1319.00 L 1190.00 1322.00 L 1166.00 1306.00 L 1166.00 1309.00 L 1190.00 1331.00 L 1190.00 1335.00 L 1166.00 1321.00 L 1163.00 1323.00 L 1181.00 1341.00 L 1181.00 1344.00 L 1163.00 1332.00 L 1153.00 1335.00 L 1151.00 1353.00 L 1158.00 1394.00 L 1174.00 1458.00 L 1177.00 1493.00 L 1167.00 1499.00 L 1130.00 1505.00 L 1066.00 1511.00 L 999.00 1528.00 L 929.00 1556.00 L 840.00 1606.00 L 732.00 1678.00 L 640.00 1747.00 L 564.00 1813.00 L 504.00 1857.00 L 460.00 1879.00 L 427.00 1888.00 L 405.00 1884.00 L 388.00 1878.00 L 376.00 1870.00 L 362.00 1853.00 L 346.00 1827.00 L 335.00 1796.00 L 329.00 1760.00 L 329.00 1707.00 L 335.00 1637.00 L 348.00 1578.00 L 368.00 1530.00 L 376.00 1508.00 L 372.00 1512.00 L 389.00 1491.00 L 427.00 1445.00 L 432.00 1437.00 L 404.00 1467.00 L 404.00 1464.00 L 432.00 1428.00 L 450.00 1393.00 L 458.00 1359.00 L 480.00 1324.00 L 516.00 1288.00 L 520.00 1282.00 L 492.00 1306.00 L 489.00 1308.00 L 511.00 1288.00 L 516.00 1283.00 L 504.00 1293.00 L 509.00 1284.00 L 531.00 1256.00 L 536.00 1217.00 L 524.00 1167.00 L 512.00 1135.00 L 500.00 1121.00 L 494.00 1109.00 L 494.00 1099.00 L 502.00 1088.00 L 518.00 1076.00 L 512.00 1068.00 L 484.00 1064.00 L 457.00 1054.00 L 431.00 1038.00 L 416.00 1027.00 L 412.00 1021.00 L 408.00 1013.00 Z" fill="black" stroke="black" stroke-width="1"/>
</svg>