<?xml version="1.0" encoding="UTF-8"?>
<svg xmlns="http://www.w3.org/2000/svg" viewBox="241.00 257.00 905.00 1553.00">
  <path d="M 306.00 1004.00 L 314.00 984.00 L 312.00 964.00 L 300.00 944.00 L 294.00 932.00 L 294.00 928.00 L 298.00 920.00 L 306.00 908.00 L 305.00 898.00 L 295.00 890.00 L 289.00 882.00 L 287.00 874.00 L 292.00 857.00 L 304.00 831.00 L 300.00 810.00 L 280.00 794.00 L 281.00 792.00 L 303.00 804.00 L 301.00 802.00 L 275.00 786.00 L 274.00 785.00 L 298.00 799.00 L 296.00 797.00 L 268.00 779.00 L 253.00 768.00 L 251.00 764.00 L 253.00 756.00 L 259.00 744.00 L 286.00 714.00 L 334.00 666.00 L 361.00 624.00 L 367.00 588.00 L 382.00 543.00 L 406.00 489.00 L 426.00 451.00 L 442.00 429.00 L 465.00 404.00 L 495.00 376.00 L 512.00 355.00 L 516.00 341.00 L 519.00 338.00 L 521.00 346.00 L 522.00 344.00 L 522.00 332.00 L 542.00 316.00 L 582.00 296.00 L 611.00 283.00 L 629.00 277.00 L 651.00 272.00 L 677.00 268.00 L 724.00 267.00 L 792.00 269.00 L 845.00 274.00 L 883.00 282.00 L 909.00 289.00 L 923.00 295.00 L 938.00 303.00 L 954.00 313.00 L 984.00 338.00 L 1028.00 378.00 L 1057.00 407.00 L 1071.00 425.00 L 1086.00 448.00 L 1102.00 476.00 L 1114.00 502.00 L 1122.00 526.00 L 1129.00 554.00 L 1135.00 586.00 L 1136.00 641.00 L 1132.00 719.00 L 1120.00 794.00 L 1100.00 866.00 L 1072.00 931.00 L 1036.00 989.00 L 1014.00 1027.00 L 1006.00 1045.00 L 992.00 1053.00 L 972.00 1051.00 L 972.00 1053.00 L 992.00 1059.00 L 994.00 1061.00 L 978.00 1059.00 L 967.00 1059.00 L 961.00 1061.00 L 967.00 1065.00 L 985.00 1071.00 L 985.00 1073.00 L 967.00 1071.00 L 965.00 1073.00 L 979.00 1079.00 L 978.00 1081.00 L 962.00 1079.00 L 954.00 1090.00 L 954.00 1114.00 L 958.00 1144.00 L 966.00 1180.00 L 974.00 1202.00 L 982.00 1210.00 L 984.00 1213.00 L 980.00 1211.00 L 984.00 1214.00 L 996.00 1222.00 L 1005.00 1234.00 L 1011.00 1250.00 L 1019.00 1265.00 L 1029.00 1279.00 L 1051.00 1318.00 L 1085.00 1382.00 L 1103.00 1417.00 L 1105.00 1423.00 L 1105.00 1428.00 L 1103.00 1432.00 L 1071.00 1434.00 L 1009.00 1434.00 L 968.00 1436.00 L 948.00 1440.00 L 933.00 1441.00 L 923.00 1439.00 L 898.00 1442.00 L 858.00 1450.00 L 814.00 1463.00 L 766.00 1481.00 L 723.00 1500.00 L 685.00 1520.00 L 644.00 1545.00 L 600.00 1575.00 L 523.00 1641.00 L 413.00 1743.00 L 352.00 1796.00 L 340.00 1800.00 L 326.00 1799.00 L 310.00 1793.00 L 295.00 1779.00 L 281.00 1757.00 L 273.00 1726.00 L 271.00 1686.00 L 273.00 1648.00 L 279.00 1612.00 L 324.00 1530.00 L 408.00 1402.00 L 410.00 1397.00 L 330.00 1515.00 L 329.00 1516.00 L 407.00 1400.00 L 408.00 1397.00 L 332.00 1507.00 L 334.00 1503.00 L 414.00 1385.00 L 414.00 1383.00 L 334.00 1497.00 L 335.00 1494.00 L 417.00 1374.00 L 420.00 1368.00 L 344.00 1476.00 L 345.00 1474.00 L 423.00 1362.00 L 424.00 1359.00 L 348.00 1465.00 L 312.00 1515.00 L 316.00 1509.00 L 355.00 1454.00 L 429.00 1350.00 L 428.00 1351.00 L 352.00 1457.00 L 333.00 1483.00 L 371.00 1429.00 L 373.00 1425.00 L 339.00 1471.00 L 334.00 1477.00 L 358.00 1443.00 L 359.00 1441.00 L 337.00 1471.00 L 333.00 1476.00 L 347.00 1456.00 L 348.00 1454.00 L 336.00 1470.00 L 365.00 1429.00 L 435.00 1331.00 L 469.00 1283.00 L 467.00 1285.00 L 467.00 1280.00 L 469.00 1268.00 L 462.00 1251.00 L 446.00 1229.00 L 432.00 1203.00 L 420.00 1173.00 L 401.00 1145.00 L 375.00 1119.00 L 355.00 1102.00 L 341.00 1094.00 L 330.00 1086.00 L 322.00 1078.00 L 314.00 1066.00 L 306.00 1050.00 L 302.00 1037.00 L 302.00 1027.00 L 302.00 1020.00 L 302.00 1016.00 L 306.00 1004.00 Z" fill="black" stroke="black" stroke-width="1"/>
</svg>