<?xml version="1.0" encoding="UTF-8"?>
<svg xmlns="http://www.w3.org/2000/svg" viewBox="321.00 272.00 1112.00 1565.00">
  <path d="M 406.00 943.00 L 414.00 905.00 L 405.00 878.00 L 379.00 862.00 L 364.00 845.00 L 360.00 827.00 L 384.00 785.00 L 436.00 719.00 L 460.00 652.00 L 456.00 584.00 L 459.00 554.00 L 469.00 562.00 L 468.00 558.00 L 456.00 542.00 L 457.00 540.00 L 471.00 552.00 L 471.00 548.00 L 457.00 528.00 L 457.00 526.00 L 471.00 542.00 L 472.00 539.00 L 460.00 517.00 L 461.00 514.00 L 475.00 530.00 L 476.00 527.00 L 464.00 505.00 L 465.00 503.00 L 479.00 521.00 L 481.00 518.00 L 471.00 494.00 L 474.00 489.00 L 490.00 503.00 L 492.00 500.00 L 480.00 480.00 L 481.00 476.00 L 495.00 488.00 L 500.00 476.00 L 496.00 440.00 L 547.00 391.00 L 653.00 329.00 L 776.00 304.00 L 916.00 316.00 L 991.00 313.00 L 1001.00 295.00 L 1004.00 296.00 L 1000.00 316.00 L 1003.00 312.00 L 1013.00 284.00 L 1016.00 285.00 L 1012.00 315.00 L 1015.00 314.00 L 1025.00 282.00 L 1026.00 283.00 L 1018.00 317.00 L 1021.00 317.00 L 1035.00 283.00 L 1037.00 284.00 L 1027.00 320.00 L 1029.00 320.00 L 1043.00 284.00 L 1046.00 285.00 L 1038.00 323.00 L 1043.00 325.00 L 1061.00 291.00 L 1065.00 293.00 L 1055.00 331.00 L 1057.00 332.00 L 1071.00 296.00 L 1073.00 295.00 L 1063.00 329.00 L 1068.00 331.00 L 1088.00 301.00 L 1111.00 301.00 L 1137.00 331.00 L 1155.00 343.00 L 1165.00 337.00 L 1179.00 344.00 L 1197.00 364.00 L 1215.00 372.00 L 1233.00 368.00 L 1253.00 374.00 L 1275.00 390.00 L 1287.00 422.00 L 1289.00 470.00 L 1324.00 532.00 L 1392.00 608.00 L 1423.00 678.00 L 1417.00 742.00 L 1380.00 789.00 L 1312.00 819.00 L 1305.00 829.00 L 1359.00 819.00 L 1358.00 822.00 L 1302.00 838.00 L 1301.00 841.00 L 1355.00 831.00 L 1355.00 833.00 L 1301.00 847.00 L 1300.00 849.00 L 1352.00 839.00 L 1329.00 854.00 L 1231.00 894.00 L 1209.00 910.00 L 1263.00 902.00 L 1263.00 907.00 L 1209.00 925.00 L 1204.00 932.00 L 1248.00 928.00 L 1247.00 931.00 L 1201.00 941.00 L 1171.00 956.00 L 1157.00 976.00 L 1114.00 985.00 L 1042.00 983.00 L 1040.00 985.00 L 1108.00 991.00 L 1110.00 992.00 L 1046.00 988.00 L 1040.00 991.00 L 1092.00 1001.00 L 1088.00 1003.00 L 1028.00 997.00 L 1025.00 998.00 L 1079.00 1006.00 L 1079.00 1009.00 L 1025.00 1007.00 L 996.00 1014.00 L 992.00 1030.00 L 992.00 1058.00 L 996.00 1098.00 L 1016.00 1155.00 L 1052.00 1229.00 L 1078.00 1318.00 L 1094.00 1422.00 L 1063.00 1475.00 L 985.00 1477.00 L 908.00 1489.00 L 832.00 1511.00 L 726.00 1562.00 L 590.00 1642.00 L 481.00 1721.00 L 399.00 1799.00 L 349.00 1827.00 L 331.00 1805.00 L 384.00 1686.00 L 508.00 1470.00 L 507.00 1467.00 L 381.00 1677.00 L 385.00 1668.00 L 519.00 1440.00 L 517.00 1438.00 L 379.00 1662.00 L 380.00 1659.00 L 520.00 1429.00 L 519.00 1426.00 L 377.00 1650.00 L 378.00 1647.00 L 522.00 1417.00 L 521.00 1416.00 L 375.00 1644.00 L 376.00 1641.00 L 524.00 1407.00 L 522.00 1403.00 L 370.00 1629.00 L 370.00 1626.00 L 522.00 1394.00 L 521.00 1391.00 L 367.00 1617.00 L 368.00 1614.00 L 524.00 1382.00 L 523.00 1380.00 L 365.00 1608.00 L 365.00 1606.00 L 523.00 1374.00 L 522.00 1370.00 L 362.00 1594.00 L 361.00 1591.00 L 519.00 1361.00 L 517.00 1352.00 L 355.00 1564.00 L 355.00 1561.00 L 517.00 1343.00 L 519.00 1334.00 L 361.00 1534.00 L 360.00 1533.00 L 516.00 1331.00 L 555.00 1209.00 L 477.00 1167.00 L 431.00 1103.00 L 417.00 1017.00 L 408.00 971.00 L 404.00 965.00 L 406.00 943.00 Z" fill="black" stroke="black" stroke-width="1"/>
</svg>