<?xml version="1.0" encoding="UTF-8"?>
<svg xmlns="http://www.w3.org/2000/svg" viewBox="375.00 257.00 1037.00 1444.00">
  <path d="M 477.00 960.00 L 459.00 924.00 L 454.00 891.00 L 462.00 861.00 L 452.00 838.00 L 424.00 822.00 L 423.00 819.00 L 449.00 829.00 L 448.00 826.00 L 420.00 810.00 L 427.00 770.00 L 469.00 706.00 L 491.00 669.00 L 493.00 659.00 L 486.00 645.00 L 470.00 627.00 L 470.00 624.00 L 486.00 636.00 L 486.00 633.00 L 470.00 615.00 L 469.00 612.00 L 483.00 624.00 L 483.00 622.00 L 469.00 606.00 L 469.00 604.00 L 483.00 616.00 L 485.00 613.00 L 475.00 595.00 L 473.00 589.00 L 479.00 595.00 L 480.00 579.00 L 476.00 541.00 L 482.00 500.00 L 498.00 456.00 L 518.00 422.00 L 542.00 398.00 L 580.00 368.00 L 632.00 332.00 L 676.00 310.00 L 712.00 302.00 L 739.00 299.00 L 757.00 301.00 L 792.00 293.00 L 844.00 275.00 L 891.00 267.00 L 933.00 269.00 L 975.00 277.00 L 1017.00 291.00 L 1057.00 317.00 L 1095.00 355.00 L 1126.00 378.00 L 1150.00 386.00 L 1168.00 388.00 L 1180.00 384.00 L 1191.00 393.00 L 1201.00 415.00 L 1221.00 421.00 L 1251.00 411.00 L 1276.00 411.00 L 1296.00 421.00 L 1313.00 435.00 L 1327.00 453.00 L 1337.00 485.00 L 1343.00 531.00 L 1353.00 559.00 L 1367.00 569.00 L 1381.00 587.00 L 1395.00 613.00 L 1402.00 644.00 L 1402.00 680.00 L 1395.00 714.00 L 1381.00 746.00 L 1366.00 772.00 L 1350.00 792.00 L 1312.00 815.00 L 1252.00 841.00 L 1252.00 844.00 L 1312.00 824.00 L 1342.00 816.00 L 1342.00 820.00 L 1311.00 833.00 L 1249.00 855.00 L 1248.00 857.00 L 1308.00 839.00 L 1315.00 838.00 L 1269.00 854.00 L 1268.00 856.00 L 1312.00 844.00 L 1305.00 847.00 L 1247.00 865.00 L 1246.00 868.00 L 1302.00 856.00 L 1302.00 859.00 L 1246.00 877.00 L 1241.00 881.00 L 1287.00 871.00 L 1286.00 874.00 L 1238.00 890.00 L 1207.00 918.00 L 1193.00 958.00 L 1156.00 980.00 L 1096.00 984.00 L 1094.00 986.00 L 1150.00 986.00 L 1153.00 987.00 L 1103.00 989.00 L 1101.00 991.00 L 1147.00 993.00 L 1145.00 995.00 L 1095.00 997.00 L 1090.00 1000.00 L 1130.00 1004.00 L 1130.00 1007.00 L 1090.00 1009.00 L 1069.00 1023.00 L 1067.00 1049.00 L 1072.00 1072.00 L 1084.00 1092.00 L 1098.00 1108.00 L 1114.00 1120.00 L 1116.00 1124.00 L 1104.00 1120.00 L 1105.00 1123.00 L 1119.00 1133.00 L 1132.00 1148.00 L 1144.00 1168.00 L 1145.00 1175.00 L 1135.00 1169.00 L 1137.00 1176.00 L 1151.00 1196.00 L 1158.00 1222.00 L 1158.00 1254.00 L 1170.00 1298.00 L 1194.00 1354.00 L 1209.00 1402.00 L 1215.00 1442.00 L 1190.00 1457.00 L 1134.00 1447.00 L 1079.00 1442.00 L 1025.00 1442.00 L 970.00 1445.00 L 914.00 1451.00 L 862.00 1461.00 L 814.00 1475.00 L 746.00 1505.00 L 658.00 1551.00 L 569.00 1613.00 L 479.00 1691.00 L 497.00 1612.00 L 623.00 1376.00 L 620.00 1380.00 L 488.00 1624.00 L 489.00 1621.00 L 623.00 1371.00 L 616.00 1377.00 L 468.00 1639.00 L 470.00 1633.00 L 622.00 1359.00 L 620.00 1357.00 L 464.00 1627.00 L 465.00 1623.00 L 623.00 1345.00 L 621.00 1342.00 L 459.00 1614.00 L 442.00 1641.00 L 570.00 1423.00 L 568.00 1420.00 L 436.00 1632.00 L 433.00 1634.00 L 559.00 1426.00 L 557.00 1423.00 L 427.00 1625.00 L 446.00 1593.00 L 614.00 1327.00 L 613.00 1324.00 L 443.00 1584.00 L 419.00 1620.00 L 541.00 1432.00 L 540.00 1429.00 L 416.00 1611.00 L 411.00 1614.00 L 525.00 1438.00 L 525.00 1433.00 L 411.00 1599.00 L 410.00 1600.00 L 522.00 1436.00 L 522.00 1433.00 L 410.00 1591.00 L 439.00 1548.00 L 609.00 1304.00 L 609.00 1301.00 L 439.00 1539.00 L 404.00 1587.00 L 504.00 1445.00 L 504.00 1443.00 L 404.00 1581.00 L 402.00 1583.00 L 498.00 1449.00 L 499.00 1446.00 L 405.00 1574.00 L 402.00 1577.00 L 490.00 1455.00 L 491.00 1452.00 L 405.00 1568.00 L 402.00 1571.00 L 482.00 1461.00 L 485.00 1456.00 L 411.00 1556.00 L 410.00 1557.00 L 482.00 1459.00 L 483.00 1456.00 L 413.00 1548.00 L 385.00 1584.00 L 399.00 1564.00 L 402.00 1559.00 L 394.00 1569.00 L 391.00 1572.00 L 393.00 1568.00 L 468.00 1468.00 L 616.00 1272.00 L 677.00 1161.00 L 651.00 1135.00 L 615.00 1111.00 L 569.00 1089.00 L 532.00 1075.00 L 504.00 1069.00 L 486.00 1060.00 L 478.00 1048.00 L 477.00 1029.00 L 483.00 1003.00 L 486.00 987.00 L 486.00 981.00 L 477.00 960.00 Z" fill="black" stroke="black" stroke-width="1"/>
</svg>