<?xml version="1.0" encoding="UTF-8"?>
<svg xmlns="http://www.w3.org/2000/svg" viewBox="301.00 217.00 1017.00 1596.00">
  <path d="M 353.00 1017.00 L 359.00 991.00 L 355.00 975.00 L 341.00 969.00 L 343.00 966.00 L 361.00 966.00 L 359.00 963.00 L 337.00 957.00 L 338.00 955.00 L 362.00 957.00 L 363.00 954.00 L 341.00 946.00 L 335.00 914.00 L 345.00 858.00 L 341.00 795.00 L 323.00 725.00 L 313.00 661.00 L 311.00 603.00 L 317.00 542.00 L 331.00 478.00 L 352.00 422.00 L 380.00 374.00 L 425.00 328.00 L 487.00 284.00 L 562.00 251.00 L 650.00 229.00 L 734.00 227.00 L 814.00 245.00 L 890.00 280.00 L 962.00 332.00 L 996.00 371.00 L 992.00 397.00 L 994.00 399.00 L 1002.00 377.00 L 1003.00 379.00 L 997.00 405.00 L 999.00 408.00 L 1009.00 388.00 L 1011.00 391.00 L 1005.00 417.00 L 1006.00 420.00 L 1014.00 400.00 L 1019.00 408.00 L 1021.00 444.00 L 1026.00 456.00 L 1034.00 444.00 L 1035.00 447.00 L 1029.00 465.00 L 1031.00 467.00 L 1041.00 453.00 L 1043.00 459.00 L 1037.00 485.00 L 1040.00 487.00 L 1052.00 465.00 L 1054.00 468.00 L 1046.00 496.00 L 1048.00 498.00 L 1060.00 474.00 L 1060.00 477.00 L 1048.00 507.00 L 1049.00 509.00 L 1063.00 483.00 L 1064.00 484.00 L 1052.00 512.00 L 1047.00 539.00 L 1049.00 565.00 L 1076.00 609.00 L 1128.00 671.00 L 1141.00 718.00 L 1115.00 750.00 L 1115.00 755.00 L 1141.00 733.00 L 1140.00 735.00 L 1112.00 761.00 L 1112.00 762.00 L 1140.00 738.00 L 1140.00 741.00 L 1112.00 771.00 L 1100.00 794.00 L 1104.00 810.00 L 1099.00 839.00 L 1085.00 881.00 L 1086.00 910.00 L 1102.00 926.00 L 1111.00 944.00 L 1113.00 964.00 L 1099.00 997.00 L 1069.00 1043.00 L 1062.00 1075.00 L 1078.00 1093.00 L 1077.00 1121.00 L 1059.00 1159.00 L 1072.00 1196.00 L 1116.00 1232.00 L 1114.00 1235.00 L 1066.00 1205.00 L 1070.00 1209.00 L 1126.00 1247.00 L 1125.00 1248.00 L 1067.00 1212.00 L 1067.00 1215.00 L 1125.00 1257.00 L 1124.00 1259.00 L 1064.00 1221.00 L 1063.00 1223.00 L 1121.00 1265.00 L 1146.00 1289.00 L 1138.00 1295.00 L 1116.00 1286.00 L 1080.00 1262.00 L 1078.00 1264.00 L 1110.00 1292.00 L 1105.00 1290.00 L 1063.00 1258.00 L 1060.00 1258.00 L 1096.00 1290.00 L 1090.00 1288.00 L 1042.00 1252.00 L 1014.00 1241.00 L 1006.00 1255.00 L 1051.00 1319.00 L 1149.00 1433.00 L 1186.00 1478.00 L 1162.00 1454.00 L 1166.00 1462.00 L 1198.00 1502.00 L 1195.00 1500.00 L 1157.00 1456.00 L 1160.00 1462.00 L 1204.00 1518.00 L 1186.00 1498.00 L 1106.00 1402.00 L 1107.00 1404.00 L 1189.00 1504.00 L 1187.00 1502.00 L 1101.00 1398.00 L 1103.00 1402.00 L 1193.00 1514.00 L 1178.00 1496.00 L 1058.00 1348.00 L 1059.00 1350.00 L 1181.00 1502.00 L 1207.00 1535.00 L 1137.00 1449.00 L 1141.00 1457.00 L 1219.00 1559.00 L 1205.00 1543.00 L 1099.00 1409.00 L 1103.00 1417.00 L 1217.00 1567.00 L 1215.00 1566.00 L 1097.00 1414.00 L 1101.00 1423.00 L 1227.00 1593.00 L 1216.00 1580.00 L 1068.00 1384.00 L 1069.00 1387.00 L 1219.00 1589.00 L 1295.00 1693.00 L 1297.00 1699.00 L 1229.00 1609.00 L 1091.00 1423.00 L 1092.00 1425.00 L 1232.00 1615.00 L 1304.00 1719.00 L 1308.00 1737.00 L 1235.00 1641.00 L 1085.00 1431.00 L 1084.00 1435.00 L 1232.00 1653.00 L 1225.00 1646.00 L 1063.00 1414.00 L 1061.00 1419.00 L 1219.00 1661.00 L 1219.00 1663.00 L 1061.00 1425.00 L 1059.00 1428.00 L 1213.00 1672.00 L 1279.00 1797.00 L 1257.00 1803.00 L 1237.00 1802.00 L 1219.00 1794.00 L 1159.00 1752.00 L 1057.00 1676.00 L 972.00 1624.00 L 904.00 1596.00 L 834.00 1576.00 L 762.00 1564.00 L 662.00 1560.00 L 534.00 1564.00 L 444.00 1555.00 L 392.00 1533.00 L 355.00 1503.00 L 333.00 1465.00 L 333.00 1385.00 L 355.00 1263.00 L 359.00 1193.00 L 345.00 1175.00 L 341.00 1135.00 L 347.00 1073.00 L 350.00 1039.00 L 350.00 1033.00 L 353.00 1017.00 Z" fill="black" stroke="black" stroke-width="1"/>
</svg>