<?xml version="1.0" encoding="UTF-8"?>
<svg xmlns="http://www.w3.org/2000/svg" viewBox="297.00 199.00 864.00 1537.00">
  <path d="M 394.00 923.00 L 402.00 909.00 L 399.00 891.00 L 385.00 869.00 L 380.00 855.00 L 384.00 849.00 L 382.00 842.00 L 374.00 834.00 L 374.00 817.00 L 382.00 791.00 L 374.00 771.00 L 350.00 757.00 L 337.00 749.00 L 335.00 747.00 L 343.00 750.00 L 361.00 758.00 L 360.00 756.00 L 340.00 744.00 L 343.00 745.00 L 369.00 759.00 L 368.00 757.00 L 340.00 739.00 L 344.00 701.00 L 380.00 643.00 L 395.00 597.00 L 389.00 563.00 L 392.00 528.00 L 404.00 492.00 L 412.00 474.00 L 416.00 474.00 L 417.00 468.00 L 415.00 456.00 L 416.00 453.00 L 420.00 459.00 L 420.00 456.00 L 416.00 444.00 L 417.00 443.00 L 423.00 453.00 L 423.00 450.00 L 417.00 434.00 L 417.00 431.00 L 423.00 441.00 L 427.00 445.00 L 429.00 443.00 L 427.00 433.00 L 421.00 415.00 L 420.00 409.00 L 424.00 415.00 L 425.00 413.00 L 423.00 403.00 L 425.00 404.00 L 431.00 416.00 L 433.00 416.00 L 431.00 404.00 L 432.00 402.00 L 436.00 410.00 L 435.00 407.00 L 429.00 393.00 L 429.00 391.00 L 435.00 401.00 L 437.00 397.00 L 435.00 379.00 L 436.00 372.00 L 440.00 376.00 L 441.00 375.00 L 439.00 369.00 L 442.00 371.00 L 450.00 381.00 L 452.00 378.00 L 448.00 362.00 L 449.00 360.00 L 455.00 372.00 L 457.00 375.00 L 455.00 369.00 L 457.00 367.00 L 463.00 369.00 L 464.00 363.00 L 460.00 349.00 L 461.00 347.00 L 467.00 357.00 L 469.00 355.00 L 467.00 341.00 L 468.00 339.00 L 472.00 349.00 L 474.00 347.00 L 474.00 333.00 L 476.00 330.00 L 480.00 338.00 L 483.00 335.00 L 485.00 321.00 L 510.00 297.00 L 558.00 263.00 L 615.00 236.00 L 681.00 216.00 L 768.00 209.00 L 876.00 215.00 L 946.00 225.00 L 978.00 239.00 L 1014.00 260.00 L 1054.00 288.00 L 1081.00 312.00 L 1095.00 332.00 L 1111.00 362.00 L 1129.00 402.00 L 1142.00 446.00 L 1150.00 494.00 L 1151.00 550.00 L 1145.00 614.00 L 1129.00 674.00 L 1103.00 730.00 L 1086.00 777.00 L 1078.00 815.00 L 1069.00 836.00 L 1059.00 840.00 L 1059.00 856.00 L 1069.00 884.00 L 1075.00 913.00 L 1077.00 943.00 L 1078.00 991.00 L 1078.00 1057.00 L 1074.00 1100.00 L 1066.00 1120.00 L 1066.00 1149.00 L 1074.00 1187.00 L 1077.00 1214.00 L 1075.00 1230.00 L 1084.00 1279.00 L 1104.00 1361.00 L 1113.00 1401.00 L 1111.00 1399.00 L 1111.00 1401.00 L 1113.00 1407.00 L 1111.00 1414.00 L 1105.00 1422.00 L 1072.00 1425.00 L 1012.00 1423.00 L 968.00 1424.00 L 940.00 1428.00 L 903.00 1437.00 L 857.00 1451.00 L 810.00 1468.00 L 762.00 1488.00 L 712.00 1516.00 L 660.00 1552.00 L 609.00 1593.00 L 559.00 1639.00 L 527.00 1667.00 L 513.00 1677.00 L 503.00 1682.00 L 497.00 1682.00 L 489.00 1687.00 L 479.00 1697.00 L 457.00 1708.00 L 423.00 1720.00 L 398.00 1726.00 L 382.00 1726.00 L 368.00 1723.00 L 356.00 1717.00 L 344.00 1708.00 L 332.00 1696.00 L 323.00 1683.00 L 317.00 1669.00 L 312.00 1651.00 L 308.00 1629.00 L 307.00 1610.00 L 309.00 1594.00 L 315.00 1569.00 L 325.00 1535.00 L 342.00 1498.00 L 366.00 1458.00 L 367.00 1456.00 L 345.00 1492.00 L 343.00 1492.00 L 361.00 1456.00 L 362.00 1450.00 L 346.00 1474.00 L 348.00 1462.00 L 368.00 1414.00 L 377.00 1391.00 L 375.00 1393.00 L 380.00 1384.00 L 392.00 1364.00 L 402.00 1337.00 L 410.00 1303.00 L 410.00 1288.00 L 402.00 1292.00 L 416.00 1271.00 L 452.00 1225.00 L 447.00 1227.00 L 401.00 1277.00 L 400.00 1275.00 L 444.00 1221.00 L 450.00 1210.00 L 418.00 1242.00 L 417.00 1241.00 L 447.00 1207.00 L 439.00 1215.00 L 393.00 1265.00 L 388.00 1269.00 L 424.00 1227.00 L 433.00 1215.00 L 415.00 1233.00 L 419.00 1225.00 L 445.00 1191.00 L 446.00 1184.00 L 422.00 1204.00 L 421.00 1200.00 L 443.00 1172.00 L 442.00 1169.00 L 418.00 1191.00 L 413.00 1195.00 L 427.00 1181.00 L 427.00 1178.00 L 413.00 1186.00 L 417.00 1180.00 L 439.00 1160.00 L 442.00 1157.00 L 426.00 1171.00 L 426.00 1169.00 L 442.00 1151.00 L 439.00 1120.00 L 417.00 1076.00 L 412.00 1047.00 L 424.00 1033.00 L 427.00 1027.00 L 421.00 1029.00 L 424.00 1026.00 L 436.00 1018.00 L 430.00 1005.00 L 406.00 987.00 L 392.00 973.00 L 388.00 963.00 L 387.00 955.00 L 389.00 949.00 L 390.00 942.00 L 390.00 934.00 L 394.00 923.00 Z" fill="black" stroke="black" stroke-width="1"/>
</svg>