<?xml version="1.0" encoding="UTF-8"?>
<svg xmlns="http://www.w3.org/2000/svg" viewBox="258.00 172.00 906.00 1696.00">
  <path d="M 365.00 1002.00 L 355.00 986.00 L 352.00 975.00 L 356.00 969.00 L 353.00 960.00 L 343.00 948.00 L 338.00 930.00 L 338.00 906.00 L 322.00 886.00 L 290.00 870.00 L 272.00 856.00 L 268.00 844.00 L 293.00 798.00 L 347.00 718.00 L 375.00 664.00 L 377.00 636.00 L 371.00 610.00 L 357.00 586.00 L 357.00 583.00 L 371.00 601.00 L 370.00 596.00 L 354.00 568.00 L 355.00 566.00 L 373.00 590.00 L 374.00 587.00 L 358.00 557.00 L 359.00 554.00 L 377.00 578.00 L 378.00 576.00 L 362.00 548.00 L 363.00 545.00 L 381.00 567.00 L 382.00 564.00 L 366.00 536.00 L 367.00 533.00 L 385.00 555.00 L 387.00 553.00 L 373.00 527.00 L 373.00 525.00 L 387.00 547.00 L 388.00 545.00 L 376.00 519.00 L 377.00 516.00 L 391.00 536.00 L 393.00 532.00 L 383.00 504.00 L 384.00 498.00 L 396.00 514.00 L 395.00 507.00 L 381.00 477.00 L 382.00 474.00 L 398.00 498.00 L 399.00 495.00 L 385.00 465.00 L 386.00 463.00 L 402.00 489.00 L 403.00 486.00 L 389.00 454.00 L 390.00 451.00 L 406.00 477.00 L 407.00 474.00 L 393.00 442.00 L 394.00 440.00 L 410.00 468.00 L 412.00 466.00 L 400.00 434.00 L 401.00 431.00 L 415.00 457.00 L 418.00 454.00 L 410.00 422.00 L 412.00 418.00 L 424.00 442.00 L 426.00 439.00 L 418.00 409.00 L 420.00 404.00 L 432.00 424.00 L 433.00 418.00 L 423.00 386.00 L 428.00 357.00 L 448.00 331.00 L 487.00 296.00 L 545.00 252.00 L 605.00 221.00 L 667.00 203.00 L 721.00 194.00 L 767.00 194.00 L 797.00 191.00 L 811.00 185.00 L 826.00 182.00 L 842.00 182.00 L 863.00 189.00 L 889.00 203.00 L 913.00 212.00 L 935.00 216.00 L 973.00 238.00 L 1027.00 278.00 L 1071.00 318.00 L 1105.00 358.00 L 1131.00 407.00 L 1149.00 465.00 L 1154.00 544.00 L 1146.00 644.00 L 1123.00 741.00 L 1085.00 835.00 L 1063.00 897.00 L 1057.00 927.00 L 1046.00 945.00 L 1030.00 951.00 L 1029.00 954.00 L 1043.00 954.00 L 1044.00 957.00 L 1032.00 963.00 L 1033.00 976.00 L 1047.00 996.00 L 1055.00 1051.00 L 1057.00 1141.00 L 1056.00 1191.00 L 1052.00 1201.00 L 1053.00 1223.00 L 1059.00 1257.00 L 1085.00 1334.00 L 1131.00 1454.00 L 1100.00 1520.00 L 992.00 1532.00 L 898.00 1551.00 L 818.00 1577.00 L 752.00 1605.00 L 700.00 1635.00 L 628.00 1696.00 L 536.00 1788.00 L 471.00 1841.00 L 433.00 1855.00 L 406.00 1858.00 L 390.00 1850.00 L 375.00 1839.00 L 361.00 1825.00 L 351.00 1810.00 L 345.00 1794.00 L 342.00 1762.00 L 342.00 1714.00 L 357.00 1633.00 L 387.00 1519.00 L 415.00 1439.00 L 441.00 1393.00 L 441.00 1391.00 L 415.00 1433.00 L 414.00 1432.00 L 438.00 1388.00 L 448.00 1364.00 L 444.00 1360.00 L 444.00 1353.00 L 448.00 1343.00 L 431.00 1358.00 L 393.00 1398.00 L 383.00 1405.00 L 401.00 1379.00 L 398.00 1382.00 L 374.00 1414.00 L 381.00 1403.00 L 419.00 1349.00 L 419.00 1346.00 L 381.00 1394.00 L 381.00 1392.00 L 419.00 1340.00 L 431.00 1319.00 L 417.00 1329.00 L 406.00 1333.00 L 398.00 1331.00 L 404.00 1317.00 L 424.00 1291.00 L 423.00 1289.00 L 401.00 1311.00 L 401.00 1309.00 L 423.00 1283.00 L 423.00 1281.00 L 401.00 1303.00 L 398.00 1305.00 L 414.00 1287.00 L 413.00 1284.00 L 395.00 1296.00 L 396.00 1291.00 L 416.00 1269.00 L 417.00 1266.00 L 399.00 1282.00 L 398.00 1280.00 L 414.00 1260.00 L 422.00 1244.00 L 422.00 1232.00 L 418.00 1217.00 L 410.00 1199.00 L 399.00 1184.00 L 385.00 1172.00 L 379.00 1160.00 L 381.00 1148.00 L 373.00 1130.00 L 355.00 1106.00 L 353.00 1076.00 L 367.00 1040.00 L 373.00 1019.00 L 371.00 1013.00 L 365.00 1002.00 Z" fill="black" stroke="black" stroke-width="1"/>
</svg>