<?xml version="1.0" encoding="UTF-8"?>
<svg xmlns="http://www.w3.org/2000/svg" viewBox="286.00 320.00 936.00 1429.00">
  <path d="M 353.00 1004.00 L 347.00 976.00 L 335.00 958.00 L 317.00 950.00 L 305.00 939.00 L 299.00 925.00 L 316.00 887.00 L 356.00 825.00 L 379.00 770.00 L 385.00 722.00 L 383.00 692.00 L 373.00 680.00 L 374.00 678.00 L 386.00 686.00 L 387.00 682.00 L 377.00 666.00 L 377.00 663.00 L 387.00 673.00 L 388.00 670.00 L 380.00 654.00 L 381.00 651.00 L 391.00 661.00 L 392.00 657.00 L 384.00 639.00 L 385.00 634.00 L 395.00 642.00 L 396.00 639.00 L 388.00 625.00 L 389.00 622.00 L 399.00 630.00 L 400.00 628.00 L 392.00 616.00 L 393.00 613.00 L 403.00 619.00 L 405.00 614.00 L 399.00 598.00 L 401.00 594.00 L 411.00 602.00 L 413.00 599.00 L 407.00 585.00 L 408.00 582.00 L 416.00 590.00 L 421.00 581.00 L 423.00 555.00 L 446.00 522.00 L 490.00 482.00 L 550.00 448.00 L 626.00 420.00 L 665.00 394.00 L 667.00 370.00 L 671.00 369.00 L 677.00 391.00 L 681.00 387.00 L 683.00 357.00 L 713.00 338.00 L 771.00 330.00 L 821.00 338.00 L 863.00 362.00 L 889.00 368.00 L 899.00 356.00 L 902.00 357.00 L 898.00 371.00 L 902.00 368.00 L 914.00 348.00 L 927.00 352.00 L 941.00 380.00 L 955.00 390.00 L 969.00 382.00 L 989.00 381.00 L 1015.00 387.00 L 1040.00 404.00 L 1064.00 432.00 L 1080.00 460.00 L 1088.00 488.00 L 1104.00 504.00 L 1128.00 508.00 L 1158.00 565.00 L 1194.00 675.00 L 1212.00 771.00 L 1212.00 853.00 L 1159.00 908.00 L 1053.00 936.00 L 1052.00 938.00 L 1156.00 914.00 L 1208.00 905.00 L 1208.00 911.00 L 1154.00 926.00 L 1046.00 950.00 L 1044.00 954.00 L 1148.00 938.00 L 1146.00 941.00 L 1038.00 963.00 L 1037.00 966.00 L 1143.00 950.00 L 1141.00 953.00 L 1031.00 975.00 L 1029.00 979.00 L 1135.00 965.00 L 1145.00 965.00 L 1059.00 979.00 L 1056.00 983.00 L 1136.00 977.00 L 1124.00 980.00 L 1020.00 992.00 L 1019.00 994.00 L 1121.00 986.00 L 1134.00 986.00 L 1058.00 994.00 L 1055.00 996.00 L 1125.00 992.00 L 1109.00 994.00 L 1007.00 1002.00 L 1005.00 1004.00 L 1103.00 1000.00 L 1121.00 1001.00 L 1059.00 1007.00 L 1056.00 1009.00 L 1112.00 1007.00 L 1091.00 1008.00 L 993.00 1012.00 L 990.00 1014.00 L 1082.00 1014.00 L 1079.00 1015.00 L 981.00 1017.00 L 978.00 1018.00 L 1070.00 1018.00 L 1113.00 1020.00 L 1107.00 1024.00 L 1059.00 1026.00 L 969.00 1026.00 L 966.00 1027.00 L 1050.00 1029.00 L 1043.00 1035.00 L 945.00 1045.00 L 901.00 1084.00 L 911.00 1152.00 L 924.00 1200.00 L 940.00 1228.00 L 944.00 1239.00 L 936.00 1233.00 L 966.00 1284.00 L 1034.00 1392.00 L 1029.00 1447.00 L 951.00 1449.00 L 865.00 1465.00 L 771.00 1495.00 L 686.00 1535.00 L 610.00 1585.00 L 525.00 1653.00 L 431.00 1739.00 L 426.00 1681.00 L 510.00 1479.00 L 508.00 1482.00 L 420.00 1690.00 L 421.00 1686.00 L 511.00 1470.00 L 509.00 1472.00 L 415.00 1692.00 L 416.00 1689.00 L 512.00 1463.00 L 510.00 1465.00 L 410.00 1695.00 L 411.00 1692.00 L 513.00 1456.00 L 511.00 1458.00 L 405.00 1698.00 L 406.00 1693.00 L 514.00 1443.00 L 512.00 1442.00 L 400.00 1690.00 L 400.00 1689.00 L 512.00 1439.00 L 510.00 1437.00 L 394.00 1683.00 L 394.00 1680.00 L 510.00 1428.00 L 508.00 1426.00 L 388.00 1674.00 L 388.00 1671.00 L 508.00 1417.00 L 506.00 1415.00 L 382.00 1665.00 L 382.00 1663.00 L 506.00 1409.00 L 504.00 1407.00 L 376.00 1657.00 L 347.00 1712.00 L 417.00 1572.00 L 413.00 1567.00 L 335.00 1697.00 L 363.00 1639.00 L 497.00 1393.00 L 496.00 1392.00 L 360.00 1636.00 L 359.00 1634.00 L 493.00 1386.00 L 491.00 1379.00 L 353.00 1613.00 L 353.00 1611.00 L 491.00 1373.00 L 490.00 1367.00 L 350.00 1593.00 L 302.00 1669.00 L 346.00 1595.00 L 346.00 1592.00 L 302.00 1660.00 L 298.00 1663.00 L 334.00 1601.00 L 334.00 1598.00 L 298.00 1654.00 L 296.00 1656.00 L 328.00 1604.00 L 329.00 1600.00 L 299.00 1644.00 L 352.00 1561.00 L 488.00 1351.00 L 488.00 1348.00 L 352.00 1552.00 L 350.00 1549.00 L 482.00 1339.00 L 541.00 1225.00 L 527.00 1207.00 L 483.00 1188.00 L 409.00 1168.00 L 370.00 1124.00 L 366.00 1056.00 L 362.00 1021.00 L 358.00 1019.00 L 353.00 1004.00 Z" fill="black" stroke="black" stroke-width="1"/>
</svg>