<?xml version="1.0" encoding="UTF-8"?>
<svg xmlns="http://www.w3.org/2000/svg" viewBox="317.00 247.00 768.00 1381.00">
  <path d="M 398.00 933.00 L 406.00 899.00 L 404.00 870.00 L 392.00 846.00 L 389.00 835.00 L 395.00 837.00 L 393.00 835.00 L 383.00 829.00 L 379.00 817.00 L 381.00 799.00 L 367.00 781.00 L 337.00 763.00 L 336.00 760.00 L 364.00 772.00 L 361.00 769.00 L 327.00 751.00 L 331.00 711.00 L 373.00 649.00 L 392.00 605.00 L 388.00 579.00 L 394.00 541.00 L 410.00 491.00 L 455.00 422.00 L 529.00 334.00 L 599.00 281.00 L 665.00 263.00 L 739.00 257.00 L 821.00 263.00 L 890.00 277.00 L 946.00 299.00 L 986.00 320.00 L 1010.00 340.00 L 1036.00 385.00 L 1064.00 455.00 L 1075.00 536.00 L 1069.00 628.00 L 1056.00 722.00 L 1036.00 818.00 L 1003.00 875.00 L 957.00 893.00 L 956.00 896.00 L 1000.00 884.00 L 1000.00 887.00 L 956.00 905.00 L 954.00 910.00 L 994.00 902.00 L 994.00 904.00 L 954.00 916.00 L 953.00 920.00 L 991.00 916.00 L 991.00 918.00 L 953.00 926.00 L 952.00 928.00 L 988.00 924.00 L 988.00 927.00 L 952.00 937.00 L 953.00 943.00 L 991.00 945.00 L 991.00 948.00 L 953.00 952.00 L 959.00 956.00 L 1009.00 960.00 L 1009.00 962.00 L 959.00 962.00 L 961.00 963.00 L 1015.00 965.00 L 1016.00 967.00 L 964.00 969.00 L 966.00 974.00 L 1022.00 982.00 L 1022.00 985.00 L 966.00 983.00 L 963.00 987.00 L 1013.00 997.00 L 1013.00 999.00 L 963.00 993.00 L 964.00 995.00 L 1016.00 1005.00 L 1021.00 1008.00 L 979.00 1004.00 L 979.00 1008.00 L 1021.00 1020.00 L 1015.00 1020.00 L 961.00 1008.00 L 960.00 1009.00 L 1012.00 1023.00 L 1012.00 1026.00 L 960.00 1018.00 L 953.00 1021.00 L 991.00 1035.00 L 991.00 1037.00 L 953.00 1027.00 L 953.00 1032.00 L 991.00 1052.00 L 990.00 1054.00 L 950.00 1038.00 L 950.00 1043.00 L 990.00 1069.00 L 988.00 1072.00 L 944.00 1052.00 L 944.00 1054.00 L 988.00 1078.00 L 989.00 1080.00 L 947.00 1060.00 L 947.00 1062.00 L 989.00 1086.00 L 990.00 1088.00 L 950.00 1068.00 L 950.00 1070.00 L 990.00 1094.00 L 991.00 1097.00 L 953.00 1079.00 L 953.00 1082.00 L 991.00 1106.00 L 993.00 1108.00 L 959.00 1088.00 L 959.00 1090.00 L 993.00 1114.00 L 994.00 1116.00 L 962.00 1096.00 L 962.00 1098.00 L 994.00 1122.00 L 995.00 1124.00 L 965.00 1104.00 L 966.00 1109.00 L 998.00 1139.00 L 1000.00 1144.00 L 972.00 1124.00 L 972.00 1127.00 L 1000.00 1153.00 L 1002.00 1157.00 L 978.00 1139.00 L 978.00 1140.00 L 1002.00 1160.00 L 1003.00 1163.00 L 981.00 1149.00 L 981.00 1153.00 L 1003.00 1175.00 L 1004.00 1178.00 L 984.00 1162.00 L 985.00 1168.00 L 1007.00 1196.00 L 1008.00 1201.00 L 988.00 1183.00 L 988.00 1185.00 L 1008.00 1207.00 L 1009.00 1210.00 L 991.00 1194.00 L 991.00 1197.00 L 1009.00 1219.00 L 1010.00 1223.00 L 994.00 1209.00 L 994.00 1212.00 L 1010.00 1232.00 L 1011.00 1235.00 L 997.00 1221.00 L 997.00 1224.00 L 1011.00 1244.00 L 1012.00 1248.00 L 1000.00 1236.00 L 1000.00 1238.00 L 1012.00 1254.00 L 1012.00 1256.00 L 1000.00 1244.00 L 998.00 1260.00 L 1006.00 1304.00 L 982.00 1329.00 L 926.00 1335.00 L 861.00 1351.00 L 787.00 1377.00 L 721.00 1410.00 L 663.00 1450.00 L 603.00 1502.00 L 541.00 1566.00 L 495.00 1604.00 L 465.00 1616.00 L 441.00 1618.00 L 423.00 1610.00 L 407.00 1597.00 L 393.00 1579.00 L 383.00 1549.00 L 377.00 1507.00 L 386.00 1449.00 L 410.00 1375.00 L 435.00 1317.00 L 461.00 1275.00 L 477.00 1237.00 L 483.00 1203.00 L 474.00 1190.00 L 450.00 1198.00 L 451.00 1184.00 L 477.00 1148.00 L 482.00 1130.00 L 466.00 1130.00 L 464.00 1122.00 L 476.00 1106.00 L 478.00 1099.00 L 470.00 1101.00 L 462.00 1089.00 L 454.00 1063.00 L 442.00 1045.00 L 426.00 1035.00 L 419.00 1020.00 L 421.00 1000.00 L 416.00 983.00 L 404.00 969.00 L 397.00 959.00 L 395.00 953.00 L 398.00 933.00 Z" fill="black" stroke="black" stroke-width="1"/>
</svg>