<?xml version="1.0" encoding="UTF-8"?>
<svg xmlns="http://www.w3.org/2000/svg" viewBox="415.00 269.00 847.00 1392.00">
  <path d="M 492.00 925.00 L 484.00 915.00 L 481.00 901.00 L 483.00 883.00 L 470.00 860.00 L 442.00 832.00 L 450.00 791.00 L 494.00 737.00 L 510.00 696.00 L 498.00 668.00 L 497.00 658.00 L 507.00 666.00 L 510.00 656.00 L 506.00 628.00 L 507.00 616.00 L 513.00 620.00 L 512.00 617.00 L 504.00 607.00 L 506.00 608.00 L 518.00 620.00 L 518.00 616.00 L 506.00 596.00 L 506.00 593.00 L 518.00 607.00 L 520.00 603.00 L 512.00 581.00 L 514.00 576.00 L 526.00 588.00 L 527.00 586.00 L 517.00 570.00 L 518.00 568.00 L 530.00 580.00 L 532.00 576.00 L 524.00 556.00 L 525.00 553.00 L 535.00 567.00 L 535.00 564.00 L 525.00 544.00 L 526.00 542.00 L 538.00 558.00 L 538.00 553.00 L 526.00 527.00 L 527.00 525.00 L 541.00 547.00 L 542.00 544.00 L 530.00 516.00 L 531.00 513.00 L 545.00 535.00 L 546.00 533.00 L 534.00 507.00 L 535.00 505.00 L 549.00 527.00 L 550.00 525.00 L 538.00 499.00 L 539.00 498.00 L 553.00 522.00 L 555.00 520.00 L 545.00 492.00 L 546.00 489.00 L 558.00 511.00 L 561.00 509.00 L 555.00 483.00 L 557.00 479.00 L 567.00 497.00 L 572.00 491.00 L 572.00 461.00 L 590.00 431.00 L 626.00 401.00 L 677.00 375.00 L 743.00 353.00 L 777.00 331.00 L 779.00 309.00 L 781.00 309.00 L 783.00 331.00 L 786.00 328.00 L 790.00 300.00 L 794.00 299.00 L 798.00 325.00 L 801.00 324.00 L 803.00 296.00 L 814.00 281.00 L 834.00 279.00 L 863.00 284.00 L 901.00 296.00 L 933.00 312.00 L 959.00 332.00 L 979.00 337.00 L 993.00 327.00 L 1012.00 335.00 L 1036.00 361.00 L 1056.00 367.00 L 1072.00 353.00 L 1088.00 347.00 L 1104.00 349.00 L 1136.00 370.00 L 1184.00 410.00 L 1220.00 468.00 L 1244.00 544.00 L 1252.00 624.00 L 1244.00 708.00 L 1218.00 781.00 L 1174.00 843.00 L 1115.00 894.00 L 1041.00 934.00 L 997.00 978.00 L 983.00 1026.00 L 978.00 1086.00 L 982.00 1158.00 L 1010.00 1246.00 L 1062.00 1350.00 L 1046.00 1407.00 L 962.00 1417.00 L 900.00 1429.00 L 860.00 1443.00 L 783.00 1490.00 L 669.00 1570.00 L 632.00 1526.00 L 672.00 1358.00 L 670.00 1359.00 L 626.00 1529.00 L 627.00 1523.00 L 673.00 1341.00 L 671.00 1343.00 L 621.00 1529.00 L 621.00 1527.00 L 671.00 1337.00 L 669.00 1338.00 L 615.00 1530.00 L 615.00 1527.00 L 669.00 1329.00 L 667.00 1331.00 L 609.00 1533.00 L 609.00 1531.00 L 667.00 1325.00 L 664.00 1328.00 L 600.00 1540.00 L 600.00 1537.00 L 664.00 1319.00 L 661.00 1321.00 L 591.00 1543.00 L 591.00 1540.00 L 661.00 1312.00 L 658.00 1314.00 L 582.00 1546.00 L 582.00 1544.00 L 658.00 1308.00 L 654.00 1312.00 L 570.00 1556.00 L 570.00 1553.00 L 654.00 1303.00 L 649.00 1307.00 L 555.00 1565.00 L 554.00 1564.00 L 646.00 1304.00 L 643.00 1306.00 L 545.00 1570.00 L 545.00 1568.00 L 643.00 1300.00 L 640.00 1303.00 L 536.00 1577.00 L 513.00 1635.00 L 571.00 1477.00 L 566.00 1474.00 L 498.00 1626.00 L 520.00 1565.00 L 632.00 1291.00 L 630.00 1289.00 L 514.00 1559.00 L 514.00 1557.00 L 630.00 1283.00 L 628.00 1281.00 L 508.00 1551.00 L 475.00 1621.00 L 529.00 1491.00 L 527.00 1488.00 L 469.00 1612.00 L 501.00 1540.00 L 623.00 1272.00 L 622.00 1269.00 L 498.00 1531.00 L 460.00 1607.00 L 508.00 1497.00 L 506.00 1495.00 L 454.00 1601.00 L 427.00 1651.00 L 425.00 1645.00 L 488.00 1514.00 L 616.00 1258.00 L 615.00 1255.00 L 485.00 1505.00 L 485.00 1503.00 L 615.00 1249.00 L 614.00 1246.00 L 482.00 1494.00 L 436.00 1579.00 L 476.00 1501.00 L 476.00 1499.00 L 436.00 1573.00 L 433.00 1576.00 L 467.00 1508.00 L 467.00 1505.00 L 433.00 1567.00 L 431.00 1569.00 L 461.00 1511.00 L 461.00 1509.00 L 431.00 1563.00 L 430.00 1564.00 L 458.00 1512.00 L 458.00 1510.00 L 430.00 1558.00 L 428.00 1560.00 L 452.00 1516.00 L 452.00 1514.00 L 428.00 1554.00 L 426.00 1556.00 L 446.00 1520.00 L 448.00 1515.00 L 432.00 1541.00 L 487.00 1444.00 L 613.00 1224.00 L 613.00 1223.00 L 487.00 1441.00 L 486.00 1438.00 L 610.00 1214.00 L 667.00 1096.00 L 657.00 1084.00 L 618.00 1070.00 L 550.00 1054.00 L 513.00 1041.00 L 507.00 1031.00 L 507.00 1014.00 L 513.00 990.00 L 510.00 967.00 L 498.00 945.00 L 493.00 933.00 L 495.00 931.00 L 492.00 925.00 Z" fill="black" stroke="black" stroke-width="1"/>
</svg>