<?xml version="1.0" encoding="UTF-8"?>
<svg xmlns="http://www.w3.org/2000/svg" viewBox="308.00 311.00 877.00 1528.00">
  <path d="M 380.00 1029.00 L 384.00 1003.00 L 382.00 980.00 L 374.00 960.00 L 373.00 947.00 L 379.00 941.00 L 378.00 934.00 L 370.00 926.00 L 369.00 910.00 L 375.00 886.00 L 365.00 866.00 L 339.00 850.00 L 338.00 848.00 L 362.00 860.00 L 361.00 858.00 L 335.00 842.00 L 334.00 840.00 L 358.00 852.00 L 357.00 849.00 L 331.00 831.00 L 318.00 819.00 L 318.00 813.00 L 339.00 782.00 L 381.00 726.00 L 402.00 678.00 L 402.00 638.00 L 409.00 602.00 L 423.00 570.00 L 427.00 545.00 L 421.00 527.00 L 422.00 524.00 L 430.00 536.00 L 431.00 533.00 L 425.00 515.00 L 426.00 511.00 L 434.00 521.00 L 435.00 518.00 L 429.00 502.00 L 430.00 499.00 L 438.00 509.00 L 439.00 505.00 L 433.00 487.00 L 434.00 484.00 L 442.00 496.00 L 443.00 495.00 L 437.00 481.00 L 436.00 478.00 L 440.00 486.00 L 443.00 488.00 L 445.00 484.00 L 447.00 484.00 L 449.00 488.00 L 447.00 483.00 L 441.00 469.00 L 442.00 467.00 L 450.00 477.00 L 452.00 475.00 L 448.00 461.00 L 448.00 458.00 L 452.00 466.00 L 455.00 469.00 L 457.00 467.00 L 456.00 461.00 L 452.00 451.00 L 453.00 452.00 L 459.00 464.00 L 462.00 461.00 L 462.00 443.00 L 482.00 416.00 L 522.00 380.00 L 573.00 351.00 L 635.00 329.00 L 714.00 321.00 L 810.00 327.00 L 870.00 333.00 L 894.00 339.00 L 926.00 351.00 L 966.00 369.00 L 1001.00 388.00 L 1031.00 408.00 L 1056.00 428.00 L 1076.00 448.00 L 1096.00 472.00 L 1116.00 500.00 L 1132.00 530.00 L 1144.00 562.00 L 1152.00 597.00 L 1156.00 635.00 L 1157.00 676.00 L 1155.00 720.00 L 1142.00 780.00 L 1118.00 856.00 L 1099.00 910.00 L 1085.00 942.00 L 1073.00 966.00 L 1063.00 982.00 L 1047.00 993.00 L 1025.00 999.00 L 1024.00 1001.00 L 1044.00 999.00 L 1047.00 1000.00 L 1033.00 1004.00 L 1031.00 1006.00 L 1041.00 1006.00 L 1038.00 1008.00 L 1022.00 1012.00 L 1019.00 1014.00 L 1029.00 1014.00 L 1032.00 1016.00 L 1028.00 1020.00 L 1028.00 1025.00 L 1032.00 1031.00 L 1035.00 1049.00 L 1037.00 1079.00 L 1043.00 1112.00 L 1053.00 1148.00 L 1057.00 1183.00 L 1055.00 1217.00 L 1061.00 1248.00 L 1075.00 1276.00 L 1087.00 1308.00 L 1097.00 1344.00 L 1121.00 1387.00 L 1159.00 1437.00 L 1175.00 1463.00 L 1169.00 1465.00 L 1149.00 1462.00 L 1115.00 1454.00 L 1074.00 1451.00 L 1026.00 1453.00 L 964.00 1468.00 L 888.00 1496.00 L 817.00 1533.00 L 751.00 1579.00 L 659.00 1655.00 L 541.00 1761.00 L 475.00 1818.00 L 461.00 1826.00 L 447.00 1829.00 L 433.00 1827.00 L 419.00 1820.00 L 405.00 1808.00 L 394.00 1790.00 L 386.00 1766.00 L 383.00 1737.00 L 385.00 1703.00 L 385.00 1687.00 L 383.00 1689.00 L 385.00 1675.00 L 391.00 1645.00 L 389.00 1629.00 L 379.00 1627.00 L 371.00 1623.00 L 365.00 1617.00 L 370.00 1595.00 L 386.00 1557.00 L 386.00 1549.00 L 370.00 1571.00 L 361.00 1581.00 L 359.00 1579.00 L 393.00 1523.00 L 463.00 1413.00 L 463.00 1412.00 L 393.00 1520.00 L 395.00 1516.00 L 469.00 1400.00 L 471.00 1395.00 L 401.00 1501.00 L 368.00 1550.00 L 372.00 1542.00 L 407.00 1487.00 L 473.00 1385.00 L 470.00 1387.00 L 398.00 1493.00 L 393.00 1500.00 L 455.00 1408.00 L 456.00 1403.00 L 396.00 1485.00 L 370.00 1520.00 L 378.00 1508.00 L 381.00 1503.00 L 379.00 1505.00 L 409.00 1461.00 L 471.00 1371.00 L 467.00 1374.00 L 397.00 1470.00 L 397.00 1468.00 L 467.00 1368.00 L 472.00 1358.00 L 412.00 1438.00 L 412.00 1436.00 L 472.00 1352.00 L 472.00 1348.00 L 412.00 1424.00 L 392.00 1448.00 L 412.00 1420.00 L 416.00 1412.00 L 404.00 1424.00 L 423.00 1398.00 L 473.00 1334.00 L 490.00 1267.00 L 474.00 1197.00 L 467.00 1157.00 L 469.00 1147.00 L 476.00 1139.00 L 488.00 1133.00 L 490.00 1131.00 L 482.00 1133.00 L 478.00 1132.00 L 478.00 1128.00 L 466.00 1124.00 L 442.00 1120.00 L 423.00 1114.00 L 409.00 1106.00 L 400.00 1100.00 L 396.00 1096.00 L 396.00 1093.00 L 400.00 1091.00 L 398.00 1088.00 L 390.00 1084.00 L 386.00 1075.00 L 386.00 1061.00 L 384.00 1053.00 L 380.00 1051.00 L 378.00 1048.00 L 378.00 1044.00 L 380.00 1029.00 Z" fill="black" stroke="black" stroke-width="1"/>
</svg>