<?xml version="1.0" encoding="UTF-8"?>
<svg xmlns="http://www.w3.org/2000/svg" viewBox="285.00 194.00 915.00 1555.00">
  <path d="M 398.00 988.00 L 406.00 976.00 L 404.00 963.00 L 392.00 949.00 L 389.00 929.00 L 395.00 903.00 L 385.00 876.00 L 359.00 848.00 L 366.00 811.00 L 406.00 765.00 L 427.00 732.00 L 429.00 712.00 L 435.00 706.00 L 445.00 714.00 L 399.00 664.00 L 297.00 556.00 L 296.00 554.00 L 396.00 658.00 L 397.00 654.00 L 299.00 542.00 L 295.00 534.00 L 385.00 630.00 L 387.00 629.00 L 301.00 531.00 L 301.00 528.00 L 387.00 620.00 L 390.00 619.00 L 310.00 525.00 L 311.00 522.00 L 393.00 610.00 L 397.00 609.00 L 323.00 519.00 L 324.00 517.00 L 400.00 603.00 L 403.00 602.00 L 333.00 514.00 L 334.00 511.00 L 406.00 593.00 L 411.00 593.00 L 349.00 511.00 L 351.00 509.00 L 417.00 587.00 L 423.00 587.00 L 369.00 509.00 L 370.00 506.00 L 426.00 578.00 L 430.00 578.00 L 382.00 506.00 L 383.00 504.00 L 433.00 572.00 L 436.00 571.00 L 392.00 501.00 L 393.00 498.00 L 439.00 562.00 L 442.00 562.00 L 402.00 498.00 L 402.00 497.00 L 442.00 559.00 L 444.00 559.00 L 408.00 497.00 L 407.00 493.00 L 441.00 547.00 L 444.00 546.00 L 416.00 490.00 L 437.00 464.00 L 507.00 468.00 L 542.00 467.00 L 542.00 461.00 L 543.00 461.00 L 545.00 467.00 L 611.00 408.00 L 741.00 284.00 L 824.00 216.00 L 860.00 204.00 L 966.00 298.00 L 1142.00 498.00 L 1190.00 650.00 L 1110.00 754.00 L 1055.00 833.00 L 1025.00 887.00 L 1029.00 963.00 L 1067.00 1061.00 L 1073.00 1107.00 L 1047.00 1101.00 L 1048.00 1103.00 L 1076.00 1113.00 L 1076.00 1115.00 L 1048.00 1109.00 L 1050.00 1112.00 L 1082.00 1124.00 L 1082.00 1126.00 L 1050.00 1118.00 L 1050.00 1121.00 L 1082.00 1135.00 L 1083.00 1138.00 L 1053.00 1130.00 L 1051.00 1132.00 L 1077.00 1144.00 L 1078.00 1147.00 L 1054.00 1141.00 L 1044.00 1143.00 L 1048.00 1153.00 L 1031.00 1150.00 L 993.00 1134.00 L 1004.00 1145.00 L 1064.00 1183.00 L 1063.00 1186.00 L 1001.00 1154.00 L 1002.00 1158.00 L 1066.00 1198.00 L 1067.00 1201.00 L 1005.00 1167.00 L 1004.00 1169.00 L 1064.00 1207.00 L 1064.00 1210.00 L 1004.00 1178.00 L 1003.00 1185.00 L 1061.00 1231.00 L 1062.00 1238.00 L 1006.00 1206.00 L 1002.00 1209.00 L 1050.00 1247.00 L 1049.00 1249.00 L 999.00 1215.00 L 996.00 1218.00 L 1040.00 1258.00 L 1039.00 1260.00 L 993.00 1224.00 L 993.00 1227.00 L 1039.00 1269.00 L 1040.00 1273.00 L 996.00 1239.00 L 995.00 1243.00 L 1037.00 1285.00 L 1039.00 1290.00 L 1001.00 1258.00 L 1001.00 1260.00 L 1039.00 1296.00 L 1040.00 1298.00 L 1004.00 1266.00 L 1003.00 1268.00 L 1037.00 1304.00 L 1038.00 1307.00 L 1006.00 1277.00 L 1005.00 1278.00 L 1035.00 1310.00 L 1037.00 1315.00 L 1011.00 1293.00 L 1009.00 1294.00 L 1031.00 1318.00 L 1032.00 1320.00 L 1012.00 1300.00 L 1011.00 1339.00 L 1029.00 1437.00 L 983.00 1495.00 L 873.00 1513.00 L 770.00 1545.00 L 674.00 1591.00 L 586.00 1643.00 L 506.00 1701.00 L 457.00 1733.00 L 439.00 1739.00 L 418.00 1737.00 L 394.00 1727.00 L 378.00 1711.00 L 370.00 1689.00 L 368.00 1655.00 L 372.00 1609.00 L 394.00 1545.00 L 434.00 1463.00 L 441.00 1442.00 L 415.00 1482.00 L 415.00 1479.00 L 441.00 1433.00 L 453.00 1403.00 L 451.00 1389.00 L 463.00 1363.00 L 489.00 1325.00 L 490.00 1321.00 L 466.00 1351.00 L 464.00 1352.00 L 484.00 1324.00 L 482.00 1321.00 L 458.00 1343.00 L 458.00 1338.00 L 482.00 1306.00 L 477.00 1309.00 L 443.00 1347.00 L 441.00 1347.00 L 471.00 1309.00 L 483.00 1292.00 L 477.00 1296.00 L 459.00 1316.00 L 429.00 1352.00 L 429.00 1350.00 L 459.00 1310.00 L 456.00 1311.00 L 420.00 1353.00 L 424.00 1347.00 L 468.00 1293.00 L 466.00 1292.00 L 418.00 1344.00 L 417.00 1342.00 L 463.00 1286.00 L 475.00 1265.00 L 453.00 1279.00 L 452.00 1275.00 L 472.00 1253.00 L 472.00 1250.00 L 452.00 1266.00 L 451.00 1263.00 L 469.00 1241.00 L 473.00 1220.00 L 463.00 1200.00 L 461.00 1180.00 L 467.00 1160.00 L 459.00 1141.00 L 437.00 1123.00 L 420.00 1086.00 L 408.00 1030.00 L 400.00 1000.00 L 396.00 996.00 L 398.00 988.00 Z" fill="black" stroke="black" stroke-width="1"/>
</svg>