<?xml version="1.0" encoding="UTF-8"?>
<svg xmlns="http://www.w3.org/2000/svg" viewBox="374.00 108.00 1059.00 1711.00">
  <path d="M 442.00 982.00 L 446.00 974.00 L 445.00 963.00 L 439.00 949.00 L 440.00 937.00 L 448.00 927.00 L 452.00 913.00 L 452.00 895.00 L 442.00 882.00 L 422.00 874.00 L 420.00 872.00 L 436.00 876.00 L 433.00 873.00 L 411.00 863.00 L 400.00 854.00 L 400.00 846.00 L 426.00 810.00 L 478.00 746.00 L 464.00 675.00 L 384.00 597.00 L 385.00 594.00 L 467.00 666.00 L 469.00 663.00 L 391.00 585.00 L 391.00 583.00 L 469.00 657.00 L 474.00 655.00 L 406.00 577.00 L 385.00 550.00 L 411.00 574.00 L 414.00 573.00 L 394.00 547.00 L 416.00 569.00 L 480.00 639.00 L 482.00 639.00 L 422.00 569.00 L 422.00 567.00 L 482.00 633.00 L 485.00 632.00 L 431.00 564.00 L 431.00 561.00 L 485.00 623.00 L 488.00 622.00 L 440.00 558.00 L 441.00 556.00 L 491.00 616.00 L 493.00 616.00 L 447.00 556.00 L 448.00 554.00 L 496.00 610.00 L 500.00 610.00 L 460.00 554.00 L 461.00 552.00 L 503.00 604.00 L 506.00 603.00 L 470.00 549.00 L 471.00 547.00 L 509.00 597.00 L 512.00 597.00 L 480.00 547.00 L 481.00 545.00 L 515.00 591.00 L 518.00 591.00 L 490.00 545.00 L 492.00 542.00 L 524.00 582.00 L 529.00 582.00 L 507.00 542.00 L 509.00 521.00 L 535.00 519.00 L 555.00 514.00 L 569.00 506.00 L 651.00 406.00 L 801.00 214.00 L 885.00 118.00 L 903.00 118.00 L 931.00 129.00 L 969.00 151.00 L 1072.00 220.00 L 1240.00 336.00 L 1348.00 415.00 L 1396.00 457.00 L 1421.00 487.00 L 1423.00 505.00 L 1390.00 564.00 L 1322.00 664.00 L 1256.00 769.00 L 1192.00 879.00 L 1159.00 940.00 L 1157.00 952.00 L 1166.00 978.00 L 1186.00 1018.00 L 1168.00 1036.00 L 1112.00 1032.00 L 1114.00 1036.00 L 1174.00 1048.00 L 1172.00 1050.00 L 1108.00 1042.00 L 1109.00 1045.00 L 1175.00 1059.00 L 1183.00 1062.00 L 1133.00 1054.00 L 1135.00 1057.00 L 1189.00 1071.00 L 1179.00 1071.00 L 1105.00 1057.00 L 1106.00 1059.00 L 1182.00 1077.00 L 1180.00 1079.00 L 1100.00 1065.00 L 1102.00 1068.00 L 1186.00 1088.00 L 1205.00 1093.00 L 1159.00 1083.00 L 1160.00 1087.00 L 1208.00 1105.00 L 1184.00 1103.00 L 1088.00 1081.00 L 1087.00 1085.00 L 1181.00 1115.00 L 1215.00 1126.00 L 1189.00 1118.00 L 1187.00 1119.00 L 1209.00 1129.00 L 1215.00 1133.00 L 1205.00 1131.00 L 1158.00 1116.00 L 1074.00 1088.00 L 1076.00 1089.00 L 1164.00 1119.00 L 1167.00 1121.00 L 1085.00 1095.00 L 1048.00 1090.00 L 1056.00 1106.00 L 1062.00 1170.00 L 1066.00 1282.00 L 1094.00 1378.00 L 1146.00 1458.00 L 1154.00 1474.00 L 1118.00 1426.00 L 1120.00 1430.00 L 1160.00 1486.00 L 1185.00 1528.00 L 1195.00 1556.00 L 1169.00 1566.00 L 1107.00 1558.00 L 1043.00 1558.00 L 977.00 1566.00 L 890.00 1592.00 L 782.00 1636.00 L 674.00 1695.00 L 566.00 1769.00 L 501.00 1807.00 L 479.00 1809.00 L 460.00 1807.00 L 444.00 1801.00 L 429.00 1786.00 L 415.00 1762.00 L 411.00 1723.00 L 417.00 1669.00 L 438.00 1609.00 L 474.00 1543.00 L 487.00 1517.00 L 477.00 1531.00 L 478.00 1528.00 L 490.00 1508.00 L 480.00 1524.00 L 448.00 1576.00 L 460.00 1542.00 L 516.00 1422.00 L 521.00 1388.00 L 475.00 1440.00 L 472.00 1439.00 L 512.00 1385.00 L 510.00 1384.00 L 466.00 1436.00 L 464.00 1435.00 L 504.00 1381.00 L 504.00 1378.00 L 464.00 1426.00 L 463.00 1423.00 L 501.00 1369.00 L 502.00 1364.00 L 466.00 1408.00 L 469.00 1404.00 L 511.00 1352.00 L 513.00 1349.00 L 475.00 1395.00 L 473.00 1396.00 L 507.00 1352.00 L 508.00 1349.00 L 476.00 1387.00 L 476.00 1383.00 L 508.00 1337.00 L 512.00 1327.00 L 488.00 1353.00 L 485.00 1354.00 L 503.00 1330.00 L 506.00 1324.00 L 494.00 1336.00 L 492.00 1337.00 L 500.00 1327.00 L 501.00 1325.00 L 495.00 1331.00 L 502.00 1323.00 L 522.00 1301.00 L 523.00 1296.00 L 505.00 1308.00 L 502.00 1305.00 L 514.00 1287.00 L 511.00 1286.00 L 493.00 1302.00 L 492.00 1299.00 L 508.00 1277.00 L 506.00 1274.00 L 486.00 1290.00 L 485.00 1285.00 L 503.00 1259.00 L 501.00 1229.00 L 479.00 1195.00 L 473.00 1171.00 L 483.00 1157.00 L 481.00 1147.00 L 467.00 1141.00 L 453.00 1130.00 L 439.00 1114.00 L 438.00 1086.00 L 450.00 1046.00 L 453.00 1020.00 L 447.00 1008.00 L 443.00 998.00 L 441.00 990.00 L 442.00 982.00 Z" fill="black" stroke="black" stroke-width="1"/>
</svg>