<?xml version="1.0" encoding="UTF-8"?>
<svg xmlns="http://www.w3.org/2000/svg" viewBox="239.00 291.00 922.00 1433.00">
  <path d="M 338.00 950.00 L 354.00 894.00 L 359.00 862.00 L 353.00 854.00 L 353.00 851.00 L 359.00 853.00 L 348.00 843.00 L 320.00 821.00 L 296.00 766.00 L 276.00 678.00 L 277.00 555.00 L 299.00 397.00 L 334.00 361.00 L 382.00 447.00 L 384.00 443.00 L 340.00 349.00 L 340.00 345.00 L 384.00 431.00 L 406.00 471.00 L 406.00 465.00 L 385.00 419.00 L 343.00 333.00 L 346.00 339.00 L 394.00 437.00 L 396.00 435.00 L 352.00 333.00 L 355.00 330.00 L 405.00 426.00 L 407.00 423.00 L 361.00 321.00 L 356.00 307.00 L 392.00 381.00 L 395.00 379.00 L 365.00 301.00 L 373.00 312.00 L 419.00 412.00 L 423.00 411.00 L 385.00 309.00 L 389.00 306.00 L 435.00 402.00 L 481.00 440.00 L 527.00 420.00 L 577.00 407.00 L 631.00 401.00 L 669.00 384.00 L 691.00 356.00 L 727.00 334.00 L 777.00 318.00 L 842.00 310.00 L 922.00 310.00 L 1007.00 322.00 L 1097.00 346.00 L 1145.00 366.00 L 1151.00 382.00 L 1142.00 430.00 L 1118.00 510.00 L 1088.00 586.00 L 1052.00 658.00 L 1021.00 706.00 L 995.00 730.00 L 985.00 740.00 L 991.00 736.00 L 991.00 749.00 L 985.00 779.00 L 997.00 813.00 L 1027.00 851.00 L 1049.00 887.00 L 1063.00 921.00 L 1055.00 949.00 L 1025.00 971.00 L 1005.00 1021.00 L 995.00 1099.00 L 971.00 1159.00 L 933.00 1201.00 L 913.00 1242.00 L 911.00 1282.00 L 927.00 1327.00 L 961.00 1377.00 L 960.00 1379.00 L 924.00 1333.00 L 949.00 1369.00 L 1035.00 1487.00 L 1056.00 1518.00 L 1012.00 1462.00 L 1013.00 1465.00 L 1059.00 1527.00 L 1038.00 1499.00 L 950.00 1381.00 L 952.00 1385.00 L 1044.00 1511.00 L 1048.00 1517.00 L 964.00 1403.00 L 967.00 1409.00 L 1057.00 1535.00 L 1054.00 1532.00 L 958.00 1400.00 L 960.00 1403.00 L 1060.00 1541.00 L 1112.00 1631.00 L 1116.00 1673.00 L 1109.00 1700.00 L 1091.00 1712.00 L 1066.00 1714.00 L 1034.00 1706.00 L 983.00 1674.00 L 913.00 1618.00 L 840.00 1576.00 L 764.00 1548.00 L 658.00 1531.00 L 522.00 1525.00 L 446.00 1518.00 L 430.00 1510.00 L 416.00 1495.00 L 404.00 1473.00 L 406.00 1437.00 L 422.00 1387.00 L 421.00 1376.00 L 403.00 1404.00 L 404.00 1398.00 L 424.00 1358.00 L 418.00 1360.00 L 386.00 1404.00 L 388.00 1395.00 L 424.00 1333.00 L 422.00 1331.00 L 382.00 1389.00 L 382.00 1386.00 L 422.00 1322.00 L 419.00 1320.00 L 373.00 1380.00 L 372.00 1376.00 L 416.00 1308.00 L 410.00 1307.00 L 354.00 1373.00 L 354.00 1370.00 L 410.00 1298.00 L 407.00 1298.00 L 345.00 1370.00 L 346.00 1366.00 L 410.00 1286.00 L 408.00 1285.00 L 340.00 1363.00 L 341.00 1360.00 L 411.00 1276.00 L 409.00 1274.00 L 335.00 1354.00 L 335.00 1351.00 L 409.00 1265.00 L 409.00 1263.00 L 335.00 1345.00 L 336.00 1343.00 L 412.00 1257.00 L 412.00 1255.00 L 336.00 1337.00 L 337.00 1332.00 L 415.00 1240.00 L 416.00 1232.00 L 340.00 1308.00 L 340.00 1306.00 L 416.00 1226.00 L 415.00 1224.00 L 337.00 1300.00 L 338.00 1298.00 L 418.00 1218.00 L 419.00 1215.00 L 341.00 1289.00 L 337.00 1290.00 L 407.00 1218.00 L 407.00 1214.00 L 337.00 1278.00 L 341.00 1274.00 L 419.00 1202.00 L 419.00 1200.00 L 341.00 1268.00 L 342.00 1264.00 L 422.00 1188.00 L 415.00 1190.00 L 321.00 1270.00 L 322.00 1267.00 L 418.00 1181.00 L 415.00 1179.00 L 313.00 1261.00 L 269.00 1284.00 L 283.00 1248.00 L 284.00 1217.00 L 272.00 1191.00 L 281.00 1168.00 L 311.00 1148.00 L 310.00 1145.00 L 278.00 1159.00 L 280.00 1156.00 L 316.00 1136.00 L 314.00 1133.00 L 274.00 1147.00 L 274.00 1144.00 L 314.00 1124.00 L 312.00 1122.00 L 268.00 1138.00 L 268.00 1136.00 L 312.00 1116.00 L 309.00 1114.00 L 259.00 1130.00 L 259.00 1128.00 L 309.00 1108.00 L 307.00 1105.00 L 253.00 1119.00 L 252.00 1116.00 L 304.00 1096.00 L 303.00 1093.00 L 249.00 1107.00 L 249.00 1105.00 L 303.00 1087.00 L 304.00 1085.00 L 252.00 1099.00 L 251.00 1096.00 L 301.00 1076.00 L 327.00 1047.00 L 329.00 1009.00 L 330.00 987.00 L 330.00 981.00 L 338.00 950.00 Z" fill="black" stroke="black" stroke-width="1"/>
</svg>