<?xml version="1.0" encoding="UTF-8"?>
<svg xmlns="http://www.w3.org/2000/svg" viewBox="441.00 266.00 827.00 1532.00">
  <path d="M 513.00 971.00 L 503.00 949.00 L 501.00 933.00 L 507.00 923.00 L 508.00 914.00 L 504.00 906.00 L 504.00 891.00 L 508.00 869.00 L 496.00 851.00 L 468.00 837.00 L 467.00 835.00 L 493.00 845.00 L 491.00 843.00 L 461.00 829.00 L 459.00 827.00 L 485.00 837.00 L 483.00 835.00 L 453.00 821.00 L 453.00 820.00 L 483.00 832.00 L 483.00 829.00 L 453.00 811.00 L 451.00 781.00 L 477.00 739.00 L 500.00 708.00 L 520.00 688.00 L 534.00 671.00 L 542.00 657.00 L 547.00 637.00 L 549.00 611.00 L 565.00 572.00 L 595.00 520.00 L 611.00 488.00 L 613.00 476.00 L 612.00 464.00 L 608.00 452.00 L 609.00 451.00 L 615.00 461.00 L 616.00 459.00 L 612.00 445.00 L 613.00 443.00 L 619.00 453.00 L 620.00 449.00 L 616.00 431.00 L 617.00 429.00 L 623.00 443.00 L 625.00 441.00 L 623.00 423.00 L 625.00 420.00 L 631.00 432.00 L 635.00 436.00 L 637.00 432.00 L 636.00 423.00 L 632.00 409.00 L 633.00 407.00 L 639.00 417.00 L 641.00 414.00 L 639.00 398.00 L 640.00 396.00 L 644.00 408.00 L 645.00 407.00 L 643.00 393.00 L 644.00 392.00 L 648.00 404.00 L 650.00 403.00 L 650.00 389.00 L 652.00 385.00 L 656.00 391.00 L 658.00 391.00 L 658.00 385.00 L 664.00 375.00 L 676.00 361.00 L 688.00 352.00 L 700.00 348.00 L 712.00 341.00 L 724.00 331.00 L 772.00 315.00 L 856.00 293.00 L 922.00 280.00 L 970.00 276.00 L 1009.00 276.00 L 1039.00 280.00 L 1061.00 286.00 L 1075.00 294.00 L 1094.00 301.00 L 1118.00 307.00 L 1139.00 316.00 L 1157.00 328.00 L 1181.00 349.00 L 1211.00 379.00 L 1234.00 415.00 L 1250.00 457.00 L 1258.00 511.00 L 1258.00 577.00 L 1255.00 641.00 L 1249.00 703.00 L 1240.00 761.00 L 1228.00 815.00 L 1208.00 872.00 L 1180.00 932.00 L 1166.00 980.00 L 1166.00 1016.00 L 1165.00 1036.00 L 1163.00 1040.00 L 1157.00 1042.00 L 1147.00 1042.00 L 1145.00 1043.00 L 1151.00 1045.00 L 1151.00 1047.00 L 1145.00 1049.00 L 1145.00 1070.00 L 1151.00 1110.00 L 1161.00 1156.00 L 1175.00 1208.00 L 1180.00 1241.00 L 1176.00 1255.00 L 1176.00 1271.00 L 1180.00 1289.00 L 1194.00 1321.00 L 1218.00 1367.00 L 1215.00 1406.00 L 1185.00 1438.00 L 1139.00 1461.00 L 1077.00 1475.00 L 1016.00 1498.00 L 956.00 1530.00 L 909.00 1558.00 L 875.00 1582.00 L 821.00 1629.00 L 747.00 1699.00 L 686.00 1748.00 L 638.00 1776.00 L 601.00 1788.00 L 575.00 1784.00 L 555.00 1774.00 L 541.00 1758.00 L 531.00 1738.00 L 525.00 1714.00 L 548.00 1641.00 L 600.00 1519.00 L 600.00 1517.00 L 548.00 1635.00 L 548.00 1633.00 L 600.00 1511.00 L 600.00 1509.00 L 548.00 1627.00 L 548.00 1625.00 L 600.00 1503.00 L 601.00 1497.00 L 551.00 1607.00 L 529.00 1654.00 L 535.00 1638.00 L 570.00 1559.00 L 634.00 1417.00 L 633.00 1418.00 L 567.00 1562.00 L 566.00 1560.00 L 630.00 1412.00 L 655.00 1352.00 L 641.00 1380.00 L 640.00 1378.00 L 652.00 1346.00 L 652.00 1308.00 L 640.00 1264.00 L 624.00 1223.00 L 604.00 1185.00 L 594.00 1161.00 L 594.00 1151.00 L 604.00 1138.00 L 624.00 1122.00 L 616.00 1113.00 L 580.00 1111.00 L 552.00 1106.00 L 532.00 1098.00 L 516.00 1085.00 L 504.00 1067.00 L 502.00 1042.00 L 510.00 1010.00 L 515.00 991.00 L 517.00 985.00 L 513.00 971.00 Z" fill="black" stroke="black" stroke-width="1"/>
</svg>