<?xml version="1.0" encoding="UTF-8"?>
<svg xmlns="http://www.w3.org/2000/svg" viewBox="297.00 276.00 863.00 1495.00">
  <path d="M 512.00 1035.00 L 492.00 1029.00 L 485.00 1026.00 L 491.00 1026.00 L 486.00 1025.00 L 470.00 1023.00 L 466.00 1022.00 L 474.00 1022.00 L 471.00 1020.00 L 457.00 1016.00 L 446.00 1011.00 L 438.00 1005.00 L 432.00 996.00 L 428.00 984.00 L 431.00 970.00 L 441.00 954.00 L 447.00 941.00 L 449.00 931.00 L 446.00 921.00 L 438.00 911.00 L 434.00 901.00 L 434.00 891.00 L 436.00 884.00 L 440.00 880.00 L 437.00 873.00 L 427.00 863.00 L 424.00 853.00 L 428.00 843.00 L 430.00 834.00 L 430.00 826.00 L 419.00 811.00 L 397.00 789.00 L 396.00 785.00 L 416.00 799.00 L 415.00 797.00 L 393.00 779.00 L 391.00 777.00 L 409.00 791.00 L 407.00 788.00 L 385.00 768.00 L 376.00 753.00 L 380.00 743.00 L 396.00 722.00 L 424.00 690.00 L 442.00 667.00 L 450.00 653.00 L 455.00 643.00 L 457.00 637.00 L 457.00 629.00 L 455.00 619.00 L 455.00 601.00 L 457.00 575.00 L 462.00 549.00 L 470.00 523.00 L 474.00 505.00 L 474.00 495.00 L 481.00 476.00 L 495.00 448.00 L 501.00 428.00 L 499.00 416.00 L 500.00 414.00 L 504.00 422.00 L 507.00 424.00 L 509.00 420.00 L 509.00 413.00 L 507.00 403.00 L 526.00 381.00 L 566.00 347.00 L 591.00 329.00 L 601.00 327.00 L 609.00 323.00 L 615.00 317.00 L 623.00 312.00 L 633.00 308.00 L 642.00 306.00 L 650.00 306.00 L 666.00 302.00 L 690.00 294.00 L 713.00 289.00 L 735.00 287.00 L 753.00 287.00 L 767.00 289.00 L 777.00 289.00 L 783.00 287.00 L 804.00 286.00 L 840.00 286.00 L 860.00 287.00 L 864.00 289.00 L 872.00 289.00 L 884.00 287.00 L 895.00 288.00 L 905.00 292.00 L 925.00 296.00 L 955.00 300.00 L 980.00 307.00 L 1000.00 317.00 L 1019.00 330.00 L 1037.00 346.00 L 1057.00 373.00 L 1079.00 411.00 L 1096.00 449.00 L 1108.00 487.00 L 1116.00 522.00 L 1120.00 554.00 L 1122.00 610.00 L 1122.00 690.00 L 1120.00 746.00 L 1116.00 778.00 L 1107.00 823.00 L 1093.00 881.00 L 1086.00 921.00 L 1086.00 943.00 L 1092.00 973.00 L 1104.00 1011.00 L 1111.00 1041.00 L 1113.00 1063.00 L 1112.00 1085.00 L 1108.00 1107.00 L 1107.00 1126.00 L 1109.00 1142.00 L 1111.00 1152.00 L 1113.00 1156.00 L 1120.00 1161.00 L 1132.00 1167.00 L 1134.00 1169.00 L 1126.00 1167.00 L 1128.00 1168.00 L 1140.00 1172.00 L 1139.00 1172.00 L 1125.00 1168.00 L 1126.00 1171.00 L 1142.00 1181.00 L 1150.00 1189.00 L 1150.00 1195.00 L 1142.00 1196.00 L 1126.00 1192.00 L 1124.00 1194.00 L 1136.00 1202.00 L 1134.00 1203.00 L 1118.00 1197.00 L 1112.00 1195.00 L 1116.00 1197.00 L 1120.00 1202.00 L 1124.00 1210.00 L 1122.00 1213.00 L 1114.00 1211.00 L 1112.00 1212.00 L 1116.00 1216.00 L 1114.00 1217.00 L 1106.00 1215.00 L 1104.00 1231.00 L 1108.00 1265.00 L 1110.00 1298.00 L 1110.00 1330.00 L 1108.00 1359.00 L 1104.00 1385.00 L 1103.00 1420.00 L 1105.00 1464.00 L 1105.00 1488.00 L 1103.00 1492.00 L 1088.00 1492.00 L 1060.00 1488.00 L 1022.00 1487.00 L 974.00 1489.00 L 923.00 1497.00 L 869.00 1511.00 L 797.00 1541.00 L 707.00 1587.00 L 647.00 1621.00 L 617.00 1643.00 L 596.00 1657.00 L 584.00 1663.00 L 577.00 1665.00 L 575.00 1663.00 L 569.00 1668.00 L 559.00 1680.00 L 541.00 1695.00 L 515.00 1713.00 L 485.00 1731.00 L 451.00 1749.00 L 420.00 1759.00 L 392.00 1761.00 L 369.00 1758.00 L 351.00 1750.00 L 334.00 1734.00 L 318.00 1710.00 L 310.00 1691.00 L 310.00 1677.00 L 309.00 1669.00 L 307.00 1667.00 L 308.00 1651.00 L 312.00 1621.00 L 317.00 1599.00 L 323.00 1585.00 L 328.00 1568.00 L 332.00 1548.00 L 345.00 1515.00 L 367.00 1469.00 L 399.00 1421.00 L 441.00 1371.00 L 442.00 1368.00 L 402.00 1412.00 L 399.00 1414.00 L 433.00 1374.00 L 434.00 1372.00 L 402.00 1408.00 L 406.00 1403.00 L 446.00 1357.00 L 470.00 1325.00 L 478.00 1307.00 L 481.00 1299.00 L 479.00 1301.00 L 499.00 1280.00 L 541.00 1236.00 L 543.00 1232.00 L 505.00 1268.00 L 500.00 1271.00 L 528.00 1241.00 L 531.00 1236.00 L 509.00 1256.00 L 513.00 1251.00 L 543.00 1221.00 L 545.00 1218.00 L 519.00 1242.00 L 518.00 1240.00 L 542.00 1212.00 L 540.00 1170.00 L 512.00 1114.00 L 497.00 1081.00 L 495.00 1071.00 L 496.00 1063.00 L 500.00 1057.00 L 507.00 1052.00 L 517.00 1048.00 L 522.00 1044.00 L 522.00 1040.00 L 512.00 1035.00 Z" fill="black" stroke="black" stroke-width="1"/>
</svg>