<?xml version="1.0" encoding="UTF-8"?>
<svg xmlns="http://www.w3.org/2000/svg" viewBox="305.00 396.00 881.00 1451.00">
  <path d="M 402.00 1115.00 L 410.00 1085.00 L 407.00 1058.00 L 393.00 1034.00 L 388.00 1016.00 L 392.00 1004.00 L 388.00 992.00 L 376.00 980.00 L 375.00 965.00 L 385.00 947.00 L 378.00 928.00 L 354.00 908.00 L 353.00 905.00 L 375.00 919.00 L 373.00 914.00 L 347.00 890.00 L 336.00 872.00 L 340.00 860.00 L 365.00 827.00 L 411.00 773.00 L 437.00 738.00 L 443.00 722.00 L 444.00 703.00 L 440.00 681.00 L 441.00 675.00 L 447.00 685.00 L 448.00 682.00 L 444.00 666.00 L 445.00 663.00 L 451.00 673.00 L 452.00 668.00 L 448.00 648.00 L 449.00 641.00 L 455.00 647.00 L 456.00 643.00 L 452.00 629.00 L 454.00 628.00 L 462.00 640.00 L 463.00 639.00 L 457.00 625.00 L 457.00 622.00 L 463.00 630.00 L 464.00 627.00 L 460.00 613.00 L 461.00 611.00 L 467.00 621.00 L 469.00 619.00 L 467.00 605.00 L 469.00 600.00 L 475.00 604.00 L 476.00 598.00 L 472.00 582.00 L 474.00 579.00 L 482.00 589.00 L 484.00 583.00 L 480.00 561.00 L 481.00 557.00 L 487.00 571.00 L 490.00 568.00 L 490.00 548.00 L 493.00 544.00 L 499.00 556.00 L 504.00 550.00 L 508.00 526.00 L 521.00 504.00 L 543.00 484.00 L 569.00 467.00 L 599.00 453.00 L 625.00 445.00 L 647.00 443.00 L 667.00 436.00 L 685.00 424.00 L 751.00 414.00 L 865.00 406.00 L 944.00 406.00 L 988.00 414.00 L 1019.00 423.00 L 1037.00 433.00 L 1064.00 457.00 L 1100.00 495.00 L 1129.00 536.00 L 1151.00 580.00 L 1166.00 621.00 L 1174.00 659.00 L 1176.00 709.00 L 1172.00 771.00 L 1162.00 824.00 L 1146.00 868.00 L 1120.00 920.00 L 1084.00 980.00 L 1062.00 1030.00 L 1054.00 1070.00 L 1044.00 1093.00 L 1032.00 1099.00 L 1030.00 1103.00 L 1038.00 1105.00 L 1038.00 1108.00 L 1030.00 1112.00 L 1028.00 1132.00 L 1032.00 1168.00 L 1027.00 1221.00 L 1013.00 1291.00 L 1010.00 1334.00 L 1018.00 1350.00 L 1022.00 1367.00 L 1022.00 1385.00 L 1029.00 1405.00 L 1043.00 1427.00 L 1053.00 1452.00 L 1059.00 1480.00 L 1071.00 1513.00 L 1089.00 1551.00 L 1099.00 1584.00 L 1101.00 1612.00 L 1058.00 1621.00 L 970.00 1611.00 L 890.00 1612.00 L 818.00 1624.00 L 759.00 1637.00 L 713.00 1651.00 L 672.00 1669.00 L 636.00 1691.00 L 617.00 1700.00 L 615.00 1696.00 L 612.00 1698.00 L 608.00 1706.00 L 586.00 1719.00 L 546.00 1737.00 L 519.00 1754.00 L 505.00 1770.00 L 498.00 1776.00 L 498.00 1772.00 L 475.00 1786.00 L 429.00 1818.00 L 393.00 1835.00 L 367.00 1837.00 L 349.00 1835.00 L 339.00 1829.00 L 329.00 1816.00 L 319.00 1796.00 L 315.00 1770.00 L 317.00 1738.00 L 330.00 1695.00 L 354.00 1641.00 L 361.00 1621.00 L 351.00 1635.00 L 363.00 1616.00 L 397.00 1564.00 L 404.00 1552.00 L 384.00 1580.00 L 395.00 1556.00 L 437.00 1480.00 L 453.00 1448.00 L 443.00 1460.00 L 442.00 1455.00 L 450.00 1433.00 L 442.00 1436.00 L 418.00 1464.00 L 416.00 1465.00 L 436.00 1439.00 L 434.00 1440.00 L 410.00 1468.00 L 409.00 1469.00 L 431.00 1443.00 L 424.00 1449.00 L 388.00 1487.00 L 384.00 1488.00 L 412.00 1452.00 L 409.00 1452.00 L 375.00 1488.00 L 382.00 1479.00 L 430.00 1425.00 L 431.00 1422.00 L 385.00 1470.00 L 385.00 1468.00 L 431.00 1416.00 L 432.00 1413.00 L 388.00 1459.00 L 394.00 1447.00 L 450.00 1377.00 L 466.00 1351.00 L 442.00 1369.00 L 441.00 1367.00 L 463.00 1345.00 L 462.00 1344.00 L 438.00 1364.00 L 437.00 1362.00 L 459.00 1338.00 L 459.00 1335.00 L 437.00 1353.00 L 437.00 1351.00 L 459.00 1329.00 L 466.00 1290.00 L 458.00 1234.00 L 461.00 1200.00 L 475.00 1188.00 L 470.00 1180.00 L 446.00 1176.00 L 426.00 1166.00 L 410.00 1150.00 L 401.00 1139.00 L 399.00 1133.00 L 402.00 1115.00 Z" fill="black" stroke="black" stroke-width="1"/>
</svg>