<?xml version="1.0" encoding="UTF-8"?>
<svg xmlns="http://www.w3.org/2000/svg" viewBox="205.00 182.00 952.00 1640.00">
  <path d="M 318.00 966.00 L 306.00 950.00 L 304.00 930.00 L 312.00 906.00 L 305.00 884.00 L 283.00 864.00 L 272.00 846.00 L 272.00 830.00 L 298.00 800.00 L 350.00 756.00 L 379.00 725.00 L 385.00 707.00 L 341.00 643.00 L 247.00 533.00 L 245.00 528.00 L 335.00 628.00 L 334.00 625.00 L 242.00 519.00 L 242.00 517.00 L 334.00 619.00 L 335.00 616.00 L 245.00 508.00 L 215.00 470.00 L 245.00 502.00 L 247.00 501.00 L 221.00 467.00 L 226.00 469.00 L 262.00 507.00 L 265.00 507.00 L 235.00 469.00 L 262.00 502.00 L 346.00 606.00 L 348.00 605.00 L 268.00 499.00 L 250.00 470.00 L 294.00 518.00 L 299.00 518.00 L 265.00 470.00 L 284.00 494.00 L 356.00 590.00 L 359.00 590.00 L 293.00 494.00 L 294.00 491.00 L 362.00 581.00 L 365.00 582.00 L 303.00 494.00 L 304.00 492.00 L 368.00 576.00 L 373.00 576.00 L 319.00 492.00 L 320.00 490.00 L 376.00 570.00 L 378.00 570.00 L 326.00 490.00 L 327.00 488.00 L 381.00 564.00 L 385.00 564.00 L 339.00 488.00 L 340.00 486.00 L 388.00 558.00 L 392.00 558.00 L 352.00 486.00 L 354.00 483.00 L 398.00 549.00 L 402.00 549.00 L 366.00 483.00 L 367.00 481.00 L 405.00 543.00 L 408.00 542.00 L 376.00 478.00 L 402.00 449.00 L 486.00 455.00 L 560.00 404.00 L 624.00 296.00 L 665.00 231.00 L 683.00 209.00 L 699.00 196.00 L 713.00 192.00 L 810.00 249.00 L 990.00 367.00 L 1096.00 442.00 L 1128.00 474.00 L 1145.00 493.00 L 1147.00 499.00 L 1104.00 580.00 L 1016.00 736.00 L 967.00 830.00 L 957.00 862.00 L 961.00 891.00 L 979.00 917.00 L 966.00 935.00 L 922.00 945.00 L 924.00 948.00 L 972.00 944.00 L 975.00 946.00 L 933.00 954.00 L 934.00 957.00 L 978.00 955.00 L 975.00 956.00 L 925.00 960.00 L 927.00 963.00 L 981.00 965.00 L 981.00 967.00 L 927.00 969.00 L 929.00 972.00 L 987.00 976.00 L 987.00 979.00 L 929.00 981.00 L 931.00 985.00 L 993.00 991.00 L 988.00 994.00 L 916.00 994.00 L 917.00 997.00 L 991.00 1003.00 L 993.00 1004.00 L 923.00 1000.00 L 925.00 1003.00 L 999.00 1013.00 L 997.00 1014.00 L 919.00 1006.00 L 920.00 1009.00 L 1000.00 1023.00 L 1001.00 1026.00 L 923.00 1018.00 L 925.00 1021.00 L 1007.00 1035.00 L 1034.00 1041.00 L 1006.00 1039.00 L 1009.00 1042.00 L 1043.00 1050.00 L 1016.00 1046.00 L 928.00 1030.00 L 929.00 1032.00 L 1019.00 1052.00 L 1020.00 1054.00 L 932.00 1038.00 L 935.00 1041.00 L 1029.00 1063.00 L 1062.00 1072.00 L 1034.00 1068.00 L 1035.00 1071.00 L 1065.00 1081.00 L 1032.00 1075.00 L 936.00 1053.00 L 935.00 1056.00 L 1029.00 1084.00 L 1030.00 1087.00 L 938.00 1065.00 L 892.00 1081.00 L 892.00 1135.00 L 923.00 1220.00 L 985.00 1336.00 L 979.00 1402.00 L 905.00 1418.00 L 827.00 1449.00 L 745.00 1495.00 L 659.00 1560.00 L 569.00 1644.00 L 499.00 1715.00 L 449.00 1773.00 L 416.00 1805.00 L 400.00 1811.00 L 378.00 1812.00 L 350.00 1808.00 L 329.00 1798.00 L 315.00 1782.00 L 304.00 1762.00 L 296.00 1738.00 L 292.00 1712.00 L 292.00 1684.00 L 314.00 1623.00 L 358.00 1529.00 L 361.00 1519.00 L 323.00 1593.00 L 320.00 1597.00 L 352.00 1531.00 L 354.00 1525.00 L 326.00 1579.00 L 344.00 1544.00 L 408.00 1420.00 L 411.00 1413.00 L 353.00 1523.00 L 350.00 1526.00 L 402.00 1422.00 L 417.00 1390.00 L 395.00 1430.00 L 398.00 1423.00 L 426.00 1369.00 L 427.00 1365.00 L 401.00 1411.00 L 408.00 1387.00 L 448.00 1293.00 L 462.00 1249.00 L 450.00 1255.00 L 449.00 1250.00 L 459.00 1234.00 L 457.00 1234.00 L 443.00 1250.00 L 442.00 1247.00 L 454.00 1225.00 L 451.00 1223.00 L 433.00 1241.00 L 432.00 1239.00 L 448.00 1217.00 L 448.00 1214.00 L 432.00 1230.00 L 430.00 1227.00 L 442.00 1205.00 L 443.00 1185.00 L 433.00 1167.00 L 430.00 1152.00 L 434.00 1140.00 L 424.00 1134.00 L 400.00 1134.00 L 375.00 1126.00 L 349.00 1110.00 L 334.00 1096.00 L 330.00 1084.00 L 330.00 1063.00 L 334.00 1033.00 L 331.00 1016.00 L 321.00 1012.00 L 315.00 1003.00 L 313.00 989.00 L 315.00 980.00 L 321.00 976.00 L 318.00 966.00 Z" fill="black" stroke="black" stroke-width="1"/>
</svg>