<?xml version="1.0" encoding="UTF-8"?>
<svg xmlns="http://www.w3.org/2000/svg" viewBox="229.00 100.00 1034.00 1767.00">
  <path d="M 313.00 904.00 L 303.00 892.00 L 299.00 881.00 L 301.00 871.00 L 305.00 864.00 L 311.00 860.00 L 305.00 851.00 L 287.00 837.00 L 283.00 817.00 L 293.00 791.00 L 287.00 771.00 L 265.00 757.00 L 265.00 754.00 L 287.00 762.00 L 284.00 759.00 L 256.00 745.00 L 241.00 732.00 L 239.00 720.00 L 265.00 681.00 L 319.00 615.00 L 348.00 576.00 L 352.00 564.00 L 353.00 547.00 L 351.00 525.00 L 354.00 502.00 L 362.00 478.00 L 361.00 456.00 L 351.00 436.00 L 352.00 434.00 L 364.00 450.00 L 365.00 449.00 L 355.00 431.00 L 356.00 428.00 L 368.00 440.00 L 371.00 441.00 L 365.00 431.00 L 366.00 429.00 L 374.00 435.00 L 374.00 431.00 L 366.00 417.00 L 364.00 412.00 L 368.00 416.00 L 369.00 414.00 L 367.00 406.00 L 370.00 408.00 L 378.00 420.00 L 379.00 418.00 L 373.00 402.00 L 374.00 400.00 L 382.00 412.00 L 383.00 410.00 L 377.00 394.00 L 379.00 391.00 L 389.00 401.00 L 390.00 398.00 L 382.00 382.00 L 381.00 377.00 L 387.00 383.00 L 388.00 381.00 L 384.00 371.00 L 387.00 373.00 L 397.00 387.00 L 397.00 385.00 L 387.00 367.00 L 385.00 363.00 L 391.00 373.00 L 392.00 370.00 L 388.00 354.00 L 391.00 355.00 L 401.00 373.00 L 402.00 372.00 L 394.00 352.00 L 395.00 350.00 L 405.00 366.00 L 406.00 364.00 L 398.00 344.00 L 400.00 341.00 L 412.00 355.00 L 414.00 353.00 L 406.00 335.00 L 406.00 332.00 L 414.00 344.00 L 416.00 341.00 L 412.00 323.00 L 414.00 322.00 L 422.00 338.00 L 424.00 336.00 L 420.00 316.00 L 431.00 296.00 L 457.00 276.00 L 482.00 252.00 L 506.00 224.00 L 541.00 197.00 L 587.00 171.00 L 624.00 153.00 L 652.00 143.00 L 679.00 136.00 L 705.00 132.00 L 728.00 126.00 L 748.00 118.00 L 769.00 115.00 L 791.00 117.00 L 808.00 116.00 L 820.00 112.00 L 837.00 110.00 L 859.00 110.00 L 878.00 113.00 L 894.00 119.00 L 914.00 122.00 L 938.00 122.00 L 973.00 129.00 L 1019.00 143.00 L 1063.00 162.00 L 1105.00 186.00 L 1146.00 219.00 L 1186.00 261.00 L 1212.00 293.00 L 1224.00 315.00 L 1236.00 349.00 L 1248.00 395.00 L 1253.00 450.00 L 1251.00 514.00 L 1242.00 575.00 L 1226.00 633.00 L 1204.00 689.00 L 1176.00 743.00 L 1141.00 791.00 L 1099.00 833.00 L 1060.00 881.00 L 1024.00 935.00 L 1000.00 964.00 L 988.00 968.00 L 981.00 973.00 L 979.00 979.00 L 982.00 987.00 L 990.00 997.00 L 1004.00 1039.00 L 1024.00 1113.00 L 1032.00 1169.00 L 1028.00 1207.00 L 1040.00 1256.00 L 1068.00 1316.00 L 1086.00 1367.00 L 1094.00 1409.00 L 1096.00 1432.00 L 1092.00 1436.00 L 1083.00 1438.00 L 1069.00 1438.00 L 1024.00 1449.00 L 948.00 1471.00 L 892.00 1490.00 L 856.00 1506.00 L 792.00 1548.00 L 700.00 1616.00 L 617.00 1688.00 L 543.00 1764.00 L 485.00 1815.00 L 443.00 1841.00 L 416.00 1855.00 L 404.00 1857.00 L 390.00 1857.00 L 374.00 1855.00 L 355.00 1849.00 L 333.00 1839.00 L 314.00 1825.00 L 298.00 1807.00 L 287.00 1788.00 L 281.00 1768.00 L 277.00 1738.00 L 275.00 1698.00 L 279.00 1649.00 L 289.00 1591.00 L 305.00 1533.00 L 327.00 1475.00 L 336.00 1448.00 L 332.00 1452.00 L 341.00 1434.00 L 363.00 1394.00 L 374.00 1363.00 L 374.00 1341.00 L 377.00 1319.00 L 383.00 1297.00 L 394.00 1274.00 L 410.00 1250.00 L 416.00 1240.00 L 412.00 1244.00 L 412.00 1242.00 L 416.00 1234.00 L 413.00 1224.00 L 403.00 1212.00 L 399.00 1197.00 L 401.00 1179.00 L 397.00 1153.00 L 387.00 1119.00 L 383.00 1099.00 L 385.00 1093.00 L 392.00 1086.00 L 404.00 1078.00 L 407.00 1075.00 L 401.00 1077.00 L 398.00 1075.00 L 398.00 1069.00 L 382.00 1053.00 L 350.00 1027.00 L 332.00 1008.00 L 328.00 996.00 L 327.00 973.00 L 329.00 939.00 L 327.00 919.00 L 321.00 913.00 L 313.00 904.00 Z" fill="black" stroke="black" stroke-width="1"/>
</svg>