<?xml version="1.0" encoding="UTF-8"?>
<svg xmlns="http://www.w3.org/2000/svg" viewBox="341.00 360.00 853.00 1429.00">
  <path d="M 434.00 1068.00 L 442.00 1044.00 L 437.00 1025.00 L 419.00 1011.00 L 413.00 999.00 L 419.00 989.00 L 418.00 982.00 L 410.00 978.00 L 409.00 977.00 L 415.00 979.00 L 413.00 976.00 L 403.00 968.00 L 398.00 962.00 L 398.00 958.00 L 402.00 951.00 L 410.00 941.00 L 404.00 929.00 L 384.00 915.00 L 383.00 912.00 L 401.00 920.00 L 399.00 917.00 L 377.00 903.00 L 366.00 893.00 L 366.00 887.00 L 373.00 867.00 L 387.00 833.00 L 409.00 794.00 L 439.00 750.00 L 453.00 719.00 L 451.00 701.00 L 451.00 693.00 L 453.00 695.00 L 451.00 688.00 L 445.00 672.00 L 443.00 654.00 L 445.00 634.00 L 456.00 605.00 L 476.00 567.00 L 487.00 541.00 L 489.00 527.00 L 493.00 521.00 L 499.00 523.00 L 508.00 516.00 L 520.00 500.00 L 524.00 485.00 L 520.00 471.00 L 521.00 469.00 L 527.00 479.00 L 528.00 477.00 L 524.00 463.00 L 526.00 461.00 L 534.00 471.00 L 536.00 468.00 L 532.00 452.00 L 533.00 450.00 L 539.00 462.00 L 542.00 460.00 L 542.00 444.00 L 543.00 435.00 L 545.00 433.00 L 548.00 438.00 L 552.00 450.00 L 554.00 448.00 L 554.00 432.00 L 563.00 421.00 L 581.00 415.00 L 599.00 406.00 L 617.00 394.00 L 635.00 388.00 L 653.00 388.00 L 669.00 385.00 L 683.00 379.00 L 700.00 377.00 L 720.00 379.00 L 740.00 377.00 L 760.00 371.00 L 777.00 370.00 L 791.00 374.00 L 821.00 375.00 L 867.00 373.00 L 904.00 377.00 L 932.00 387.00 L 956.00 392.00 L 976.00 392.00 L 991.00 394.00 L 1001.00 398.00 L 1032.00 417.00 L 1084.00 451.00 L 1114.00 473.00 L 1122.00 483.00 L 1135.00 509.00 L 1153.00 551.00 L 1164.00 592.00 L 1168.00 632.00 L 1174.00 668.00 L 1182.00 700.00 L 1184.00 740.00 L 1180.00 788.00 L 1174.00 821.00 L 1166.00 839.00 L 1162.00 857.00 L 1162.00 875.00 L 1155.00 901.00 L 1141.00 935.00 L 1111.00 982.00 L 1065.00 1042.00 L 1037.00 1073.00 L 1027.00 1075.00 L 1025.00 1076.00 L 1031.00 1076.00 L 1031.00 1077.00 L 1025.00 1079.00 L 1022.00 1083.00 L 1022.00 1089.00 L 1025.00 1100.00 L 1031.00 1116.00 L 1035.00 1154.00 L 1037.00 1214.00 L 1038.00 1260.00 L 1038.00 1292.00 L 1035.00 1313.00 L 1029.00 1323.00 L 1026.00 1336.00 L 1026.00 1352.00 L 1029.00 1366.00 L 1035.00 1378.00 L 1045.00 1420.00 L 1059.00 1492.00 L 1067.00 1549.00 L 1069.00 1591.00 L 1068.00 1617.00 L 1064.00 1627.00 L 1036.00 1625.00 L 984.00 1611.00 L 937.00 1603.00 L 895.00 1601.00 L 845.00 1603.00 L 787.00 1609.00 L 705.00 1631.00 L 599.00 1669.00 L 510.00 1711.00 L 438.00 1757.00 L 394.00 1779.00 L 378.00 1777.00 L 367.00 1772.00 L 361.00 1764.00 L 408.00 1667.00 L 508.00 1481.00 L 507.00 1480.00 L 405.00 1664.00 L 403.00 1667.00 L 501.00 1489.00 L 501.00 1487.00 L 403.00 1661.00 L 353.00 1745.00 L 351.00 1739.00 L 400.00 1649.00 L 500.00 1475.00 L 500.00 1473.00 L 400.00 1643.00 L 394.00 1651.00 L 482.00 1497.00 L 481.00 1494.00 L 391.00 1642.00 L 395.00 1634.00 L 493.00 1470.00 L 493.00 1467.00 L 395.00 1625.00 L 387.00 1636.00 L 469.00 1500.00 L 469.00 1497.00 L 387.00 1627.00 L 385.00 1629.00 L 463.00 1503.00 L 464.00 1499.00 L 388.00 1617.00 L 401.00 1595.00 L 503.00 1433.00 L 503.00 1431.00 L 401.00 1589.00 L 399.00 1589.00 L 497.00 1431.00 L 539.00 1348.00 L 525.00 1340.00 L 511.00 1339.00 L 497.00 1345.00 L 498.00 1338.00 L 514.00 1318.00 L 512.00 1317.00 L 492.00 1335.00 L 491.00 1332.00 L 509.00 1308.00 L 507.00 1306.00 L 485.00 1326.00 L 485.00 1324.00 L 507.00 1300.00 L 509.00 1296.00 L 491.00 1312.00 L 490.00 1310.00 L 506.00 1290.00 L 510.00 1276.00 L 502.00 1268.00 L 497.00 1259.00 L 495.00 1249.00 L 490.00 1241.00 L 482.00 1235.00 L 477.00 1227.00 L 475.00 1217.00 L 491.00 1202.00 L 525.00 1182.00 L 525.00 1180.00 L 491.00 1196.00 L 490.00 1195.00 L 522.00 1177.00 L 522.00 1174.00 L 490.00 1186.00 L 487.00 1185.00 L 513.00 1171.00 L 505.00 1154.00 L 463.00 1134.00 L 439.00 1120.00 L 433.00 1112.00 L 430.00 1104.00 L 430.00 1096.00 L 430.00 1089.00 L 430.00 1083.00 L 434.00 1068.00 Z" fill="black" stroke="black" stroke-width="1"/>
</svg>