<?xml version="1.0" encoding="UTF-8"?>
<svg xmlns="http://www.w3.org/2000/svg" viewBox="301.00 247.00 1076.00 1381.00">
  <path d="M 429.00 900.00 L 427.00 880.00 L 422.00 865.00 L 414.00 855.00 L 412.00 850.00 L 416.00 850.00 L 408.00 846.00 L 388.00 838.00 L 375.00 828.00 L 369.00 816.00 L 387.00 780.00 L 429.00 720.00 L 448.00 653.00 L 444.00 579.00 L 445.00 544.00 L 451.00 548.00 L 445.00 538.00 L 427.00 514.00 L 425.00 509.00 L 439.00 523.00 L 440.00 520.00 L 428.00 500.00 L 431.00 501.00 L 449.00 523.00 L 451.00 525.00 L 437.00 507.00 L 437.00 505.00 L 451.00 519.00 L 452.00 514.00 L 440.00 490.00 L 441.00 485.00 L 455.00 499.00 L 457.00 497.00 L 447.00 479.00 L 448.00 477.00 L 460.00 491.00 L 460.00 488.00 L 448.00 468.00 L 448.00 466.00 L 460.00 482.00 L 461.00 478.00 L 451.00 454.00 L 457.00 435.00 L 479.00 421.00 L 489.00 407.00 L 487.00 393.00 L 488.00 388.00 L 492.00 392.00 L 494.00 389.00 L 494.00 379.00 L 496.00 377.00 L 500.00 383.00 L 501.00 382.00 L 499.00 374.00 L 502.00 371.00 L 510.00 373.00 L 515.00 369.00 L 517.00 359.00 L 527.00 351.00 L 545.00 345.00 L 563.00 332.00 L 581.00 312.00 L 601.00 301.00 L 623.00 299.00 L 638.00 293.00 L 646.00 283.00 L 662.00 277.00 L 686.00 275.00 L 706.00 269.00 L 722.00 259.00 L 740.00 257.00 L 760.00 263.00 L 780.00 265.00 L 800.00 263.00 L 822.00 270.00 L 846.00 286.00 L 868.00 287.00 L 888.00 273.00 L 913.00 265.00 L 943.00 263.00 L 990.00 272.00 L 1054.00 292.00 L 1103.00 325.00 L 1137.00 371.00 L 1154.00 401.00 L 1154.00 415.00 L 1166.00 416.00 L 1190.00 404.00 L 1219.00 401.00 L 1253.00 407.00 L 1292.00 434.00 L 1336.00 482.00 L 1361.00 525.00 L 1367.00 563.00 L 1362.00 600.00 L 1346.00 636.00 L 1325.00 663.00 L 1299.00 681.00 L 1282.00 710.00 L 1274.00 750.00 L 1241.00 779.00 L 1183.00 797.00 L 1181.00 799.00 L 1235.00 785.00 L 1235.00 787.00 L 1181.00 805.00 L 1176.00 810.00 L 1220.00 802.00 L 1219.00 804.00 L 1173.00 816.00 L 1171.00 817.00 L 1213.00 807.00 L 1212.00 809.00 L 1168.00 823.00 L 1134.00 848.00 L 1110.00 884.00 L 1072.00 924.00 L 1020.00 968.00 L 999.00 1023.00 L 1009.00 1089.00 L 1037.00 1172.00 L 1083.00 1272.00 L 1107.00 1331.00 L 1109.00 1349.00 L 1067.00 1362.00 L 981.00 1370.00 L 885.00 1391.00 L 779.00 1425.00 L 691.00 1463.00 L 621.00 1505.00 L 549.00 1554.00 L 475.00 1610.00 L 483.00 1537.00 L 573.00 1335.00 L 572.00 1336.00 L 480.00 1540.00 L 481.00 1537.00 L 575.00 1327.00 L 574.00 1328.00 L 478.00 1540.00 L 479.00 1537.00 L 577.00 1319.00 L 572.00 1323.00 L 464.00 1549.00 L 464.00 1547.00 L 572.00 1317.00 L 569.00 1319.00 L 455.00 1553.00 L 455.00 1550.00 L 569.00 1310.00 L 562.00 1316.00 L 434.00 1568.00 L 434.00 1566.00 L 562.00 1310.00 L 560.00 1311.00 L 428.00 1569.00 L 407.00 1609.00 L 497.00 1431.00 L 493.00 1434.00 L 395.00 1618.00 L 415.00 1575.00 L 553.00 1305.00 L 550.00 1301.00 L 406.00 1563.00 L 376.00 1615.00 L 460.00 1457.00 L 459.00 1455.00 L 373.00 1609.00 L 371.00 1611.00 L 453.00 1461.00 L 452.00 1459.00 L 368.00 1605.00 L 399.00 1548.00 L 545.00 1288.00 L 543.00 1285.00 L 393.00 1539.00 L 357.00 1599.00 L 435.00 1465.00 L 435.00 1463.00 L 357.00 1593.00 L 355.00 1594.00 L 429.00 1466.00 L 428.00 1465.00 L 352.00 1591.00 L 351.00 1592.00 L 425.00 1468.00 L 424.00 1465.00 L 348.00 1583.00 L 386.00 1519.00 L 538.00 1273.00 L 538.00 1271.00 L 386.00 1513.00 L 343.00 1581.00 L 409.00 1475.00 L 408.00 1472.00 L 340.00 1572.00 L 334.00 1576.00 L 390.00 1484.00 L 390.00 1479.00 L 334.00 1561.00 L 331.00 1563.00 L 381.00 1485.00 L 382.00 1482.00 L 334.00 1554.00 L 333.00 1555.00 L 379.00 1485.00 L 379.00 1482.00 L 333.00 1546.00 L 328.00 1550.00 L 364.00 1494.00 L 364.00 1491.00 L 328.00 1541.00 L 311.00 1564.00 L 313.00 1560.00 L 387.00 1453.00 L 533.00 1243.00 L 533.00 1242.00 L 387.00 1450.00 L 384.00 1447.00 L 524.00 1233.00 L 553.00 1104.00 L 471.00 1060.00 L 428.00 1031.00 L 424.00 1017.00 L 427.00 1001.00 L 437.00 983.00 L 438.00 961.00 L 430.00 935.00 L 427.00 919.00 L 429.00 913.00 L 429.00 900.00 Z" fill="black" stroke="black" stroke-width="1"/>
</svg>