<?xml version="1.0" encoding="UTF-8"?>
<svg xmlns="http://www.w3.org/2000/svg" viewBox="407.00 208.00 831.00 1461.00">
  <path d="M 482.00 957.00 L 466.00 939.00 L 461.00 914.00 L 467.00 882.00 L 463.00 847.00 L 449.00 809.00 L 446.00 777.00 L 454.00 751.00 L 447.00 724.00 L 425.00 696.00 L 417.00 675.00 L 423.00 661.00 L 440.00 644.00 L 468.00 624.00 L 487.00 585.00 L 497.00 527.00 L 516.00 469.00 L 544.00 411.00 L 559.00 374.00 L 561.00 358.00 L 564.00 353.00 L 568.00 359.00 L 571.00 353.00 L 573.00 335.00 L 600.00 308.00 L 652.00 272.00 L 717.00 245.00 L 795.00 227.00 L 877.00 218.00 L 963.00 218.00 L 1026.00 223.00 L 1066.00 233.00 L 1099.00 247.00 L 1125.00 265.00 L 1146.00 282.00 L 1162.00 298.00 L 1176.00 318.00 L 1188.00 342.00 L 1201.00 384.00 L 1215.00 444.00 L 1224.00 516.00 L 1228.00 600.00 L 1219.00 707.00 L 1197.00 837.00 L 1191.00 942.00 L 1201.00 1022.00 L 1179.00 1056.00 L 1125.00 1044.00 L 1125.00 1047.00 L 1179.00 1065.00 L 1178.00 1066.00 L 1122.00 1050.00 L 1122.00 1052.00 L 1178.00 1072.00 L 1179.00 1074.00 L 1125.00 1058.00 L 1125.00 1061.00 L 1179.00 1083.00 L 1180.00 1086.00 L 1128.00 1070.00 L 1127.00 1073.00 L 1177.00 1095.00 L 1178.00 1098.00 L 1130.00 1082.00 L 1130.00 1084.00 L 1178.00 1104.00 L 1182.00 1107.00 L 1142.00 1093.00 L 1141.00 1095.00 L 1179.00 1113.00 L 1175.00 1112.00 L 1129.00 1092.00 L 1129.00 1094.00 L 1175.00 1118.00 L 1175.00 1121.00 L 1129.00 1103.00 L 1128.00 1106.00 L 1172.00 1130.00 L 1172.00 1132.00 L 1128.00 1112.00 L 1128.00 1115.00 L 1172.00 1141.00 L 1172.00 1143.00 L 1128.00 1121.00 L 1131.00 1128.00 L 1181.00 1164.00 L 1181.00 1169.00 L 1131.00 1143.00 L 1130.00 1145.00 L 1178.00 1175.00 L 1178.00 1177.00 L 1130.00 1151.00 L 1131.00 1156.00 L 1181.00 1192.00 L 1189.00 1199.00 L 1155.00 1177.00 L 1155.00 1179.00 L 1189.00 1205.00 L 1181.00 1201.00 L 1131.00 1167.00 L 1131.00 1169.00 L 1181.00 1207.00 L 1182.00 1210.00 L 1134.00 1178.00 L 1131.00 1180.00 L 1173.00 1216.00 L 1172.00 1220.00 L 1128.00 1192.00 L 1122.00 1191.00 L 1154.00 1217.00 L 1164.00 1226.00 L 1152.00 1218.00 L 1153.00 1220.00 L 1167.00 1232.00 L 1157.00 1226.00 L 1123.00 1202.00 L 1123.00 1205.00 L 1157.00 1235.00 L 1167.00 1246.00 L 1153.00 1238.00 L 1153.00 1241.00 L 1167.00 1255.00 L 1156.00 1247.00 L 1120.00 1217.00 L 1120.00 1219.00 L 1156.00 1253.00 L 1166.00 1263.00 L 1150.00 1249.00 L 1150.00 1252.00 L 1166.00 1272.00 L 1155.00 1264.00 L 1117.00 1228.00 L 1117.00 1230.00 L 1155.00 1270.00 L 1165.00 1282.00 L 1147.00 1266.00 L 1148.00 1269.00 L 1168.00 1291.00 L 1158.00 1282.00 L 1118.00 1242.00 L 1119.00 1245.00 L 1161.00 1291.00 L 1161.00 1295.00 L 1119.00 1257.00 L 1119.00 1261.00 L 1161.00 1307.00 L 1161.00 1309.00 L 1119.00 1267.00 L 1118.00 1270.00 L 1158.00 1318.00 L 1159.00 1322.00 L 1121.00 1282.00 L 1119.00 1284.00 L 1153.00 1328.00 L 1155.00 1334.00 L 1125.00 1302.00 L 1124.00 1304.00 L 1152.00 1340.00 L 1153.00 1343.00 L 1127.00 1313.00 L 1125.00 1314.00 L 1147.00 1346.00 L 1148.00 1352.00 L 1128.00 1332.00 L 1126.00 1334.00 L 1142.00 1358.00 L 1142.00 1362.00 L 1126.00 1346.00 L 1124.00 1347.00 L 1136.00 1365.00 L 1136.00 1368.00 L 1124.00 1356.00 L 1121.00 1355.00 L 1127.00 1365.00 L 1128.00 1368.00 L 1124.00 1364.00 L 1122.00 1374.00 L 1122.00 1398.00 L 1084.00 1411.00 L 1008.00 1413.00 L 955.00 1419.00 L 925.00 1429.00 L 885.00 1447.00 L 835.00 1473.00 L 765.00 1523.00 L 675.00 1597.00 L 615.00 1641.00 L 585.00 1655.00 L 559.00 1659.00 L 537.00 1653.00 L 515.00 1638.00 L 493.00 1614.00 L 479.00 1575.00 L 473.00 1521.00 L 483.00 1456.00 L 509.00 1380.00 L 533.00 1324.00 L 555.00 1288.00 L 568.00 1255.00 L 572.00 1225.00 L 580.00 1201.00 L 592.00 1183.00 L 597.00 1172.00 L 595.00 1168.00 L 576.00 1178.00 L 540.00 1202.00 L 539.00 1200.00 L 573.00 1172.00 L 570.00 1172.00 L 530.00 1200.00 L 519.00 1207.00 L 537.00 1193.00 L 528.00 1196.00 L 492.00 1216.00 L 501.00 1207.00 L 555.00 1169.00 L 556.00 1167.00 L 504.00 1201.00 L 499.00 1203.00 L 541.00 1173.00 L 564.00 1156.00 L 568.00 1152.00 L 549.00 1164.00 L 507.00 1192.00 L 509.00 1184.00 L 555.00 1140.00 L 566.00 1095.00 L 542.00 1049.00 L 532.00 1020.00 L 536.00 1008.00 L 545.00 998.00 L 559.00 990.00 L 549.00 982.00 L 515.00 974.00 L 496.00 969.00 L 492.00 967.00 L 482.00 957.00 Z" fill="black" stroke="black" stroke-width="1"/>
</svg>