<?xml version="1.0" encoding="UTF-8"?>
<svg xmlns="http://www.w3.org/2000/svg" viewBox="182.00 110.00 1486.00 1714.00">
  <path d="M 627.00 903.00 L 605.00 881.00 L 601.00 856.00 L 615.00 828.00 L 505.00 773.00 L 271.00 691.00 L 274.00 688.00 L 514.00 764.00 L 514.00 762.00 L 274.00 682.00 L 276.00 681.00 L 520.00 759.00 L 520.00 754.00 L 276.00 666.00 L 192.00 632.00 L 268.00 652.00 L 271.00 649.00 L 201.00 623.00 L 287.00 655.00 L 529.00 745.00 L 531.00 742.00 L 293.00 646.00 L 223.00 614.00 L 321.00 646.00 L 324.00 643.00 L 232.00 605.00 L 306.00 634.00 L 546.00 730.00 L 549.00 727.00 L 315.00 625.00 L 249.00 596.00 L 351.00 640.00 L 405.00 662.00 L 411.00 662.00 L 362.00 639.00 L 258.00 593.00 L 268.00 593.00 L 392.00 639.00 L 397.00 634.00 L 283.00 578.00 L 339.00 604.00 L 565.00 712.00 L 568.00 709.00 L 348.00 595.00 L 302.00 568.00 L 430.00 628.00 L 433.00 625.00 L 311.00 559.00 L 359.00 583.00 L 577.00 697.00 L 581.00 694.00 L 371.00 574.00 L 373.00 572.00 L 587.00 688.00 L 593.00 684.00 L 391.00 560.00 L 358.00 538.00 L 494.00 618.00 L 497.00 616.00 L 367.00 532.00 L 401.00 551.00 L 599.00 673.00 L 602.00 670.00 L 410.00 542.00 L 411.00 539.00 L 605.00 661.00 L 609.00 658.00 L 423.00 530.00 L 422.00 526.00 L 606.00 646.00 L 611.00 643.00 L 437.00 517.00 L 353.00 452.00 L 359.00 448.00 L 445.00 507.00 L 611.00 629.00 L 614.00 626.00 L 454.00 498.00 L 447.00 489.00 L 593.00 599.00 L 596.00 597.00 L 456.00 483.00 L 464.00 489.00 L 620.00 615.00 L 623.00 613.00 L 473.00 483.00 L 470.00 477.00 L 614.00 595.00 L 619.00 592.00 L 485.00 468.00 L 490.00 470.00 L 634.00 598.00 L 637.00 596.00 L 499.00 464.00 L 502.00 354.00 L 646.00 266.00 L 790.00 198.00 L 934.00 150.00 L 1044.00 124.00 L 1120.00 120.00 L 1211.00 131.00 L 1317.00 157.00 L 1405.00 192.00 L 1475.00 236.00 L 1533.00 285.00 L 1579.00 339.00 L 1616.00 419.00 L 1644.00 525.00 L 1658.00 617.00 L 1658.00 695.00 L 1644.00 855.00 L 1616.00 1097.00 L 1525.00 1181.00 L 1371.00 1107.00 L 1370.00 1108.00 L 1522.00 1184.00 L 1598.00 1225.00 L 1598.00 1231.00 L 1524.00 1196.00 L 1376.00 1120.00 L 1376.00 1122.00 L 1524.00 1202.00 L 1521.00 1202.00 L 1367.00 1122.00 L 1366.00 1125.00 L 1518.00 1211.00 L 1523.00 1216.00 L 1381.00 1140.00 L 1381.00 1143.00 L 1523.00 1225.00 L 1518.00 1223.00 L 1366.00 1137.00 L 1366.00 1141.00 L 1518.00 1235.00 L 1518.00 1237.00 L 1366.00 1147.00 L 1366.00 1150.00 L 1518.00 1246.00 L 1519.00 1248.00 L 1369.00 1156.00 L 1368.00 1158.00 L 1516.00 1254.00 L 1526.00 1262.00 L 1398.00 1182.00 L 1398.00 1186.00 L 1526.00 1274.00 L 1516.00 1269.00 L 1368.00 1171.00 L 1368.00 1174.00 L 1516.00 1278.00 L 1516.00 1281.00 L 1368.00 1183.00 L 1367.00 1188.00 L 1513.00 1296.00 L 1514.00 1299.00 L 1370.00 1197.00 L 1369.00 1200.00 L 1511.00 1308.00 L 1511.00 1311.00 L 1369.00 1209.00 L 1368.00 1213.00 L 1508.00 1323.00 L 1508.00 1326.00 L 1368.00 1222.00 L 1367.00 1226.00 L 1505.00 1338.00 L 1506.00 1341.00 L 1370.00 1235.00 L 1369.00 1239.00 L 1503.00 1353.00 L 1503.00 1355.00 L 1369.00 1245.00 L 1368.00 1249.00 L 1500.00 1367.00 L 1536.00 1400.00 L 1476.00 1348.00 L 1475.00 1352.00 L 1533.00 1412.00 L 1496.00 1383.00 L 1364.00 1265.00 L 1345.00 1250.00 L 1439.00 1338.00 L 1502.00 1404.00 L 1534.00 1448.00 L 1485.00 1407.00 L 1355.00 1281.00 L 1351.00 1280.00 L 1473.00 1404.00 L 1474.00 1408.00 L 1354.00 1292.00 L 1305.00 1283.00 L 1327.00 1381.00 L 1303.00 1432.00 L 1233.00 1436.00 L 1160.00 1450.00 L 1084.00 1474.00 L 1023.00 1502.00 L 977.00 1534.00 L 895.00 1606.00 L 777.00 1718.00 L 701.00 1784.00 L 667.00 1804.00 L 640.00 1814.00 L 620.00 1814.00 L 601.00 1803.00 L 583.00 1781.00 L 573.00 1744.00 L 571.00 1692.00 L 602.00 1578.00 L 666.00 1402.00 L 694.00 1318.00 L 686.00 1326.00 L 685.00 1323.00 L 691.00 1309.00 L 688.00 1307.00 L 676.00 1317.00 L 677.00 1311.00 L 691.00 1289.00 L 689.00 1287.00 L 671.00 1305.00 L 670.00 1304.00 L 686.00 1284.00 L 683.00 1238.00 L 661.00 1166.00 L 653.00 1117.00 L 659.00 1091.00 L 655.00 1067.00 L 641.00 1045.00 L 637.00 1024.00 L 643.00 1004.00 L 642.00 989.00 L 634.00 979.00 L 631.00 962.00 L 633.00 938.00 L 635.00 923.00 L 637.00 917.00 L 627.00 903.00 Z" fill="black" stroke="black" stroke-width="1"/>
</svg>