<?xml version="1.0" encoding="UTF-8"?>
<svg xmlns="http://www.w3.org/2000/svg" viewBox="435.00 236.00 908.00 1571.00">
  <path d="M 512.00 951.00 L 500.00 941.00 L 498.00 920.00 L 506.00 888.00 L 502.00 868.00 L 486.00 860.00 L 486.00 858.00 L 502.00 862.00 L 495.00 855.00 L 465.00 837.00 L 471.00 797.00 L 513.00 735.00 L 531.00 682.00 L 525.00 638.00 L 526.00 601.00 L 534.00 571.00 L 533.00 546.00 L 523.00 526.00 L 524.00 523.00 L 536.00 537.00 L 535.00 530.00 L 521.00 502.00 L 522.00 499.00 L 538.00 521.00 L 538.00 519.00 L 522.00 493.00 L 522.00 490.00 L 538.00 510.00 L 539.00 507.00 L 525.00 481.00 L 541.00 445.00 L 587.00 399.00 L 642.00 365.00 L 706.00 343.00 L 737.00 313.00 L 735.00 275.00 L 738.00 274.00 L 746.00 310.00 L 749.00 307.00 L 747.00 265.00 L 749.00 264.00 L 755.00 304.00 L 757.00 303.00 L 755.00 261.00 L 758.00 260.00 L 766.00 300.00 L 769.00 300.00 L 767.00 260.00 L 770.00 258.00 L 778.00 294.00 L 781.00 294.00 L 779.00 258.00 L 780.00 260.00 L 784.00 300.00 L 786.00 300.00 L 786.00 260.00 L 790.00 260.00 L 798.00 300.00 L 802.00 302.00 L 802.00 266.00 L 803.00 266.00 L 805.00 302.00 L 808.00 302.00 L 812.00 266.00 L 837.00 252.00 L 883.00 260.00 L 913.00 260.00 L 927.00 252.00 L 942.00 255.00 L 958.00 269.00 L 1000.00 266.00 L 1068.00 246.00 L 1098.00 251.00 L 1090.00 281.00 L 1092.00 281.00 L 1104.00 251.00 L 1106.00 251.00 L 1098.00 281.00 L 1100.00 281.00 L 1112.00 251.00 L 1114.00 252.00 L 1106.00 284.00 L 1109.00 284.00 L 1123.00 252.00 L 1125.00 250.00 L 1115.00 278.00 L 1119.00 279.00 L 1137.00 253.00 L 1141.00 256.00 L 1131.00 288.00 L 1134.00 289.00 L 1150.00 259.00 L 1152.00 259.00 L 1140.00 289.00 L 1142.00 291.00 L 1158.00 265.00 L 1160.00 266.00 L 1148.00 294.00 L 1150.00 297.00 L 1166.00 275.00 L 1169.00 276.00 L 1159.00 300.00 L 1159.00 302.00 L 1169.00 282.00 L 1172.00 284.00 L 1168.00 308.00 L 1193.00 343.00 L 1247.00 389.00 L 1284.00 430.00 L 1304.00 466.00 L 1320.00 511.00 L 1332.00 565.00 L 1333.00 622.00 L 1323.00 682.00 L 1305.00 725.00 L 1279.00 751.00 L 1254.00 786.00 L 1230.00 830.00 L 1194.00 877.00 L 1146.00 927.00 L 1101.00 960.00 L 1059.00 976.00 L 1037.00 988.00 L 1035.00 996.00 L 1036.00 1021.00 L 1040.00 1063.00 L 1063.00 1115.00 L 1105.00 1177.00 L 1117.00 1202.00 L 1099.00 1190.00 L 1099.00 1192.00 L 1117.00 1208.00 L 1119.00 1211.00 L 1105.00 1201.00 L 1106.00 1204.00 L 1122.00 1220.00 L 1133.00 1251.00 L 1139.00 1297.00 L 1156.00 1357.00 L 1184.00 1431.00 L 1151.00 1474.00 L 1057.00 1486.00 L 952.00 1515.00 L 836.00 1561.00 L 731.00 1617.00 L 637.00 1683.00 L 564.00 1743.00 L 512.00 1797.00 L 537.00 1695.00 L 639.00 1437.00 L 636.00 1439.00 L 528.00 1701.00 L 529.00 1698.00 L 639.00 1430.00 L 637.00 1430.00 L 523.00 1698.00 L 523.00 1695.00 L 637.00 1421.00 L 634.00 1420.00 L 514.00 1692.00 L 514.00 1688.00 L 634.00 1408.00 L 631.00 1403.00 L 505.00 1673.00 L 505.00 1671.00 L 631.00 1397.00 L 629.00 1394.00 L 499.00 1662.00 L 499.00 1659.00 L 629.00 1385.00 L 627.00 1382.00 L 493.00 1650.00 L 493.00 1648.00 L 627.00 1376.00 L 626.00 1374.00 L 490.00 1642.00 L 490.00 1640.00 L 626.00 1368.00 L 625.00 1365.00 L 487.00 1631.00 L 451.00 1699.00 L 517.00 1569.00 L 515.00 1565.00 L 445.00 1687.00 L 480.00 1617.00 L 620.00 1355.00 L 620.00 1352.00 L 480.00 1608.00 L 480.00 1606.00 L 620.00 1346.00 L 620.00 1339.00 L 480.00 1585.00 L 480.00 1582.00 L 620.00 1330.00 L 623.00 1318.00 L 489.00 1546.00 L 488.00 1543.00 L 620.00 1309.00 L 675.00 1177.00 L 653.00 1147.00 L 618.00 1126.00 L 570.00 1114.00 L 535.00 1100.00 L 513.00 1084.00 L 501.00 1068.00 L 499.00 1052.00 L 503.00 1036.00 L 513.00 1020.00 L 516.00 999.00 L 512.00 973.00 L 512.00 959.00 L 516.00 957.00 L 512.00 951.00 Z" fill="black" stroke="black" stroke-width="1"/>
</svg>