<?xml version="1.0" encoding="UTF-8"?>
<svg xmlns="http://www.w3.org/2000/svg" viewBox="346.00 176.00 954.00 1648.00">
  <path d="M 431.00 1003.00 L 425.00 997.00 L 424.00 990.00 L 428.00 982.00 L 427.00 975.00 L 421.00 969.00 L 420.00 959.00 L 424.00 945.00 L 424.00 930.00 L 420.00 914.00 L 406.00 901.00 L 382.00 891.00 L 366.00 879.00 L 358.00 865.00 L 356.00 852.00 L 360.00 840.00 L 386.00 805.00 L 434.00 747.00 L 456.00 706.00 L 452.00 682.00 L 452.00 663.00 L 456.00 649.00 L 426.00 599.00 L 362.00 513.00 L 363.00 510.00 L 429.00 590.00 L 430.00 588.00 L 366.00 504.00 L 366.00 502.00 L 430.00 582.00 L 432.00 580.00 L 372.00 496.00 L 373.00 494.00 L 435.00 574.00 L 437.00 574.00 L 379.00 494.00 L 379.00 491.00 L 437.00 565.00 L 440.00 564.00 L 388.00 488.00 L 387.00 485.00 L 437.00 555.00 L 440.00 555.00 L 396.00 485.00 L 397.00 483.00 L 443.00 549.00 L 446.00 549.00 L 406.00 483.00 L 406.00 480.00 L 446.00 540.00 L 458.00 557.00 L 442.00 531.00 L 442.00 528.00 L 458.00 548.00 L 449.00 531.00 L 415.00 477.00 L 412.00 469.00 L 440.00 507.00 L 443.00 507.00 L 421.00 469.00 L 425.00 474.00 L 455.00 522.00 L 457.00 523.00 L 431.00 477.00 L 420.00 454.00 L 424.00 454.00 L 438.00 474.00 L 462.00 514.00 L 463.00 514.00 L 441.00 474.00 L 453.00 459.00 L 499.00 469.00 L 578.00 419.00 L 690.00 309.00 L 764.00 241.00 L 800.00 215.00 L 828.00 198.00 L 848.00 190.00 L 863.00 186.00 L 873.00 186.00 L 893.00 195.00 L 923.00 213.00 L 985.00 266.00 L 1079.00 354.00 L 1167.00 441.00 L 1249.00 527.00 L 1290.00 577.00 L 1290.00 591.00 L 1288.00 601.00 L 1284.00 607.00 L 1219.00 688.00 L 1093.00 844.00 L 1046.00 953.00 L 1078.00 1015.00 L 1094.00 1048.00 L 1094.00 1052.00 L 1082.00 1054.00 L 1058.00 1054.00 L 1059.00 1057.00 L 1085.00 1063.00 L 1084.00 1065.00 L 1056.00 1063.00 L 1056.00 1066.00 L 1084.00 1074.00 L 1084.00 1076.00 L 1056.00 1072.00 L 1047.00 1072.00 L 1057.00 1076.00 L 1058.00 1078.00 L 1050.00 1078.00 L 1059.00 1081.00 L 1085.00 1087.00 L 1086.00 1089.00 L 1062.00 1087.00 L 1059.00 1091.00 L 1077.00 1101.00 L 1079.00 1105.00 L 1065.00 1103.00 L 1064.00 1115.00 L 1076.00 1141.00 L 1086.00 1172.00 L 1094.00 1208.00 L 1104.00 1230.00 L 1116.00 1238.00 L 1117.00 1240.00 L 1107.00 1236.00 L 1112.00 1243.00 L 1132.00 1261.00 L 1142.00 1272.00 L 1142.00 1276.00 L 1133.00 1273.00 L 1115.00 1263.00 L 1113.00 1266.00 L 1127.00 1282.00 L 1128.00 1288.00 L 1116.00 1284.00 L 1113.00 1285.00 L 1119.00 1291.00 L 1118.00 1293.00 L 1110.00 1291.00 L 1102.00 1292.00 L 1094.00 1296.00 L 1090.00 1310.00 L 1090.00 1334.00 L 1097.00 1378.00 L 1111.00 1442.00 L 1117.00 1480.00 L 1115.00 1492.00 L 1110.00 1498.00 L 1102.00 1498.00 L 1099.00 1506.00 L 1101.00 1522.00 L 1100.00 1535.00 L 1096.00 1545.00 L 1058.00 1551.00 L 986.00 1553.00 L 921.00 1563.00 L 863.00 1581.00 L 793.00 1611.00 L 711.00 1653.00 L 634.00 1703.00 L 562.00 1761.00 L 511.00 1796.00 L 481.00 1808.00 L 457.00 1814.00 L 439.00 1814.00 L 422.00 1809.00 L 406.00 1799.00 L 394.00 1789.00 L 386.00 1779.00 L 377.00 1760.00 L 367.00 1732.00 L 362.00 1706.00 L 362.00 1682.00 L 369.00 1645.00 L 383.00 1595.00 L 408.00 1541.00 L 444.00 1483.00 L 448.00 1475.00 L 420.00 1517.00 L 421.00 1515.00 L 451.00 1469.00 L 455.00 1462.00 L 433.00 1494.00 L 434.00 1492.00 L 458.00 1456.00 L 455.00 1460.00 L 425.00 1504.00 L 426.00 1499.00 L 458.00 1445.00 L 492.00 1391.00 L 528.00 1337.00 L 528.00 1335.00 L 492.00 1385.00 L 492.00 1382.00 L 528.00 1326.00 L 531.00 1318.00 L 501.00 1358.00 L 500.00 1357.00 L 528.00 1315.00 L 541.00 1286.00 L 539.00 1270.00 L 525.00 1236.00 L 499.00 1184.00 L 499.00 1150.00 L 525.00 1134.00 L 525.00 1132.00 L 499.00 1144.00 L 498.00 1142.00 L 522.00 1126.00 L 518.00 1114.00 L 486.00 1106.00 L 463.00 1097.00 L 449.00 1087.00 L 441.00 1073.00 L 439.00 1055.00 L 441.00 1042.00 L 447.00 1034.00 L 447.00 1026.00 L 441.00 1018.00 L 437.00 1012.00 L 435.00 1008.00 L 431.00 1003.00 Z" fill="black" stroke="black" stroke-width="1"/>
</svg>