<?xml version="1.0" encoding="UTF-8"?>
<svg xmlns="http://www.w3.org/2000/svg" viewBox="442.00 175.00 935.00 1529.00">
  <path d="M 517.00 955.00 L 507.00 893.00 L 489.00 850.00 L 463.00 826.00 L 477.00 786.00 L 531.00 730.00 L 553.00 660.00 L 543.00 576.00 L 546.00 511.00 L 562.00 465.00 L 597.00 410.00 L 651.00 346.00 L 715.00 301.00 L 789.00 275.00 L 827.00 247.00 L 829.00 217.00 L 831.00 216.00 L 833.00 244.00 L 835.00 242.00 L 837.00 210.00 L 840.00 209.00 L 844.00 239.00 L 847.00 236.00 L 849.00 200.00 L 852.00 200.00 L 856.00 236.00 L 859.00 235.00 L 861.00 197.00 L 867.00 198.00 L 877.00 238.00 L 884.00 238.00 L 888.00 198.00 L 892.00 198.00 L 896.00 238.00 L 900.00 239.00 L 904.00 201.00 L 929.00 185.00 L 975.00 191.00 L 1016.00 207.00 L 1052.00 233.00 L 1081.00 244.00 L 1103.00 240.00 L 1124.00 254.00 L 1144.00 286.00 L 1173.00 304.00 L 1211.00 308.00 L 1255.00 333.00 L 1305.00 379.00 L 1342.00 433.00 L 1366.00 495.00 L 1367.00 583.00 L 1345.00 697.00 L 1308.00 786.00 L 1256.00 850.00 L 1196.00 905.00 L 1128.00 951.00 L 1091.00 984.00 L 1085.00 1004.00 L 1088.00 1035.00 L 1100.00 1077.00 L 1101.00 1096.00 L 1091.00 1092.00 L 1094.00 1094.00 L 1110.00 1102.00 L 1111.00 1105.00 L 1097.00 1103.00 L 1097.00 1106.00 L 1111.00 1114.00 L 1116.00 1146.00 L 1112.00 1202.00 L 1126.00 1278.00 L 1158.00 1374.00 L 1121.00 1428.00 L 1015.00 1440.00 L 907.00 1478.00 L 797.00 1542.00 L 748.00 1529.00 L 760.00 1439.00 L 757.00 1441.00 L 739.00 1535.00 L 739.00 1529.00 L 757.00 1423.00 L 754.00 1426.00 L 730.00 1538.00 L 729.00 1534.00 L 751.00 1414.00 L 748.00 1416.00 L 720.00 1540.00 L 719.00 1537.00 L 745.00 1407.00 L 742.00 1409.00 L 710.00 1543.00 L 709.00 1540.00 L 739.00 1400.00 L 736.00 1402.00 L 700.00 1546.00 L 700.00 1544.00 L 736.00 1396.00 L 730.00 1401.00 L 682.00 1559.00 L 680.00 1556.00 L 724.00 1392.00 L 715.00 1399.00 L 653.00 1577.00 L 651.00 1574.00 L 709.00 1390.00 L 704.00 1394.00 L 636.00 1586.00 L 635.00 1584.00 L 701.00 1388.00 L 694.00 1395.00 L 614.00 1605.00 L 613.00 1603.00 L 691.00 1389.00 L 688.00 1392.00 L 604.00 1612.00 L 596.00 1628.00 L 664.00 1440.00 L 656.00 1448.00 L 572.00 1652.00 L 572.00 1649.00 L 656.00 1439.00 L 651.00 1446.00 L 557.00 1670.00 L 557.00 1667.00 L 651.00 1437.00 L 649.00 1438.00 L 551.00 1670.00 L 556.00 1657.00 L 664.00 1399.00 L 658.00 1402.00 L 538.00 1666.00 L 530.00 1678.00 L 634.00 1438.00 L 631.00 1437.00 L 521.00 1675.00 L 518.00 1677.00 L 622.00 1443.00 L 619.00 1438.00 L 509.00 1662.00 L 511.00 1656.00 L 625.00 1420.00 L 623.00 1415.00 L 505.00 1641.00 L 506.00 1636.00 L 626.00 1400.00 L 625.00 1393.00 L 503.00 1615.00 L 503.00 1612.00 L 625.00 1384.00 L 625.00 1381.00 L 503.00 1603.00 L 452.00 1694.00 L 472.00 1654.00 L 473.00 1650.00 L 455.00 1682.00 L 453.00 1685.00 L 467.00 1659.00 L 469.00 1652.00 L 459.00 1664.00 L 523.00 1542.00 L 661.00 1286.00 L 715.00 1174.00 L 685.00 1206.00 L 684.00 1202.00 L 712.00 1162.00 L 710.00 1160.00 L 678.00 1196.00 L 675.00 1194.00 L 701.00 1154.00 L 698.00 1150.00 L 666.00 1182.00 L 663.00 1181.00 L 689.00 1147.00 L 667.00 1123.00 L 597.00 1109.00 L 560.00 1081.00 L 556.00 1039.00 L 547.00 1012.00 L 533.00 1000.00 L 525.00 992.00 L 523.00 988.00 L 517.00 955.00 Z" fill="black" stroke="black" stroke-width="1"/>
</svg>