<?xml version="1.0" encoding="UTF-8"?>
<svg xmlns="http://www.w3.org/2000/svg" viewBox="352.00 185.00 894.00 1606.00">
  <path d="M 409.00 1007.00 L 391.00 929.00 L 388.00 861.00 L 400.00 803.00 L 394.00 757.00 L 370.00 723.00 L 384.00 676.00 L 436.00 616.00 L 460.00 570.00 L 456.00 538.00 L 467.00 488.00 L 493.00 420.00 L 501.00 370.00 L 491.00 338.00 L 492.00 335.00 L 504.00 361.00 L 504.00 359.00 L 492.00 329.00 L 493.00 328.00 L 507.00 356.00 L 511.00 353.00 L 505.00 319.00 L 508.00 314.00 L 520.00 338.00 L 524.00 336.00 L 520.00 308.00 L 522.00 303.00 L 530.00 321.00 L 534.00 320.00 L 534.00 300.00 L 540.00 295.00 L 552.00 305.00 L 568.00 293.00 L 588.00 259.00 L 633.00 230.00 L 703.00 206.00 L 793.00 195.00 L 903.00 197.00 L 992.00 214.00 L 1060.00 246.00 L 1122.00 301.00 L 1178.00 379.00 L 1216.00 452.00 L 1236.00 520.00 L 1230.00 680.00 L 1198.00 932.00 L 1156.00 1059.00 L 1104.00 1061.00 L 1105.00 1065.00 L 1159.00 1071.00 L 1160.00 1075.00 L 1108.00 1077.00 L 1109.00 1082.00 L 1163.00 1090.00 L 1163.00 1093.00 L 1109.00 1091.00 L 1111.00 1094.00 L 1169.00 1102.00 L 1170.00 1105.00 L 1114.00 1103.00 L 1114.00 1109.00 L 1170.00 1123.00 L 1171.00 1125.00 L 1117.00 1115.00 L 1118.00 1122.00 L 1174.00 1146.00 L 1175.00 1151.00 L 1121.00 1137.00 L 1134.00 1142.00 L 1214.00 1166.00 L 1214.00 1169.00 L 1134.00 1151.00 L 1136.00 1155.00 L 1220.00 1181.00 L 1220.00 1184.00 L 1136.00 1164.00 L 1134.00 1168.00 L 1214.00 1196.00 L 1214.00 1203.00 L 1134.00 1189.00 L 1122.00 1197.00 L 1178.00 1227.00 L 1178.00 1230.00 L 1122.00 1206.00 L 1123.00 1211.00 L 1181.00 1245.00 L 1181.00 1248.00 L 1123.00 1220.00 L 1123.00 1223.00 L 1181.00 1257.00 L 1182.00 1260.00 L 1126.00 1232.00 L 1126.00 1235.00 L 1182.00 1269.00 L 1183.00 1272.00 L 1129.00 1244.00 L 1129.00 1246.00 L 1183.00 1278.00 L 1184.00 1281.00 L 1132.00 1255.00 L 1131.00 1260.00 L 1181.00 1296.00 L 1182.00 1299.00 L 1134.00 1269.00 L 1134.00 1271.00 L 1182.00 1305.00 L 1182.00 1308.00 L 1134.00 1280.00 L 1134.00 1283.00 L 1182.00 1317.00 L 1182.00 1319.00 L 1134.00 1289.00 L 1134.00 1293.00 L 1182.00 1331.00 L 1183.00 1334.00 L 1137.00 1302.00 L 1138.00 1308.00 L 1186.00 1352.00 L 1187.00 1358.00 L 1141.00 1326.00 L 1141.00 1330.00 L 1187.00 1370.00 L 1188.00 1372.00 L 1144.00 1336.00 L 1145.00 1342.00 L 1191.00 1390.00 L 1196.00 1400.00 L 1160.00 1372.00 L 1160.00 1375.00 L 1196.00 1409.00 L 1198.00 1413.00 L 1166.00 1387.00 L 1166.00 1389.00 L 1198.00 1419.00 L 1199.00 1423.00 L 1169.00 1401.00 L 1166.00 1403.00 L 1190.00 1429.00 L 1191.00 1433.00 L 1169.00 1415.00 L 1163.00 1452.00 L 1173.00 1544.00 L 1149.00 1583.00 L 1091.00 1569.00 L 1016.00 1567.00 L 924.00 1577.00 L 818.00 1607.00 L 698.00 1657.00 L 600.00 1707.00 L 524.00 1757.00 L 462.00 1781.00 L 414.00 1779.00 L 381.00 1760.00 L 363.00 1724.00 L 362.00 1671.00 L 378.00 1601.00 L 397.00 1542.00 L 419.00 1494.00 L 455.00 1442.00 L 505.00 1386.00 L 507.00 1383.00 L 461.00 1433.00 L 463.00 1430.00 L 513.00 1374.00 L 514.00 1371.00 L 466.00 1421.00 L 464.00 1419.00 L 508.00 1365.00 L 530.00 1333.00 L 530.00 1323.00 L 522.00 1324.00 L 506.00 1336.00 L 504.00 1334.00 L 516.00 1318.00 L 514.00 1315.00 L 498.00 1325.00 L 498.00 1320.00 L 514.00 1300.00 L 488.00 1309.00 L 420.00 1347.00 L 415.00 1344.00 L 473.00 1300.00 L 472.00 1298.00 L 412.00 1338.00 L 414.00 1334.00 L 478.00 1286.00 L 494.00 1266.00 L 462.00 1274.00 L 460.00 1269.00 L 488.00 1251.00 L 487.00 1249.00 L 457.00 1263.00 L 456.00 1261.00 L 484.00 1243.00 L 485.00 1240.00 L 459.00 1252.00 L 457.00 1248.00 L 479.00 1228.00 L 484.00 1198.00 L 472.00 1158.00 L 476.00 1130.00 L 496.00 1114.00 L 485.00 1093.00 L 443.00 1067.00 L 421.00 1052.00 L 419.00 1048.00 L 409.00 1007.00 Z" fill="black" stroke="black" stroke-width="1"/>
</svg>