<?xml version="1.0" encoding="UTF-8"?>
<svg xmlns="http://www.w3.org/2000/svg" viewBox="483.00 315.00 980.00 1440.00">
  <path d="M 554.00 851.00 L 554.00 809.00 L 549.00 785.00 L 539.00 779.00 L 540.00 776.00 L 552.00 776.00 L 551.00 773.00 L 537.00 767.00 L 538.00 764.00 L 554.00 764.00 L 553.00 760.00 L 535.00 752.00 L 535.00 749.00 L 553.00 751.00 L 554.00 747.00 L 538.00 737.00 L 539.00 735.00 L 557.00 741.00 L 559.00 737.00 L 545.00 723.00 L 549.00 713.00 L 571.00 707.00 L 573.00 696.00 L 555.00 680.00 L 556.00 677.00 L 576.00 687.00 L 577.00 684.00 L 559.00 668.00 L 560.00 665.00 L 580.00 675.00 L 581.00 671.00 L 563.00 653.00 L 564.00 649.00 L 584.00 659.00 L 587.00 656.00 L 573.00 640.00 L 585.00 611.00 L 623.00 569.00 L 680.00 537.00 L 756.00 515.00 L 790.00 478.00 L 782.00 426.00 L 785.00 427.00 L 799.00 481.00 L 803.00 472.00 L 797.00 400.00 L 801.00 399.00 L 815.00 469.00 L 817.00 467.00 L 807.00 393.00 L 813.00 394.00 L 835.00 470.00 L 842.00 469.00 L 834.00 391.00 L 837.00 391.00 L 851.00 469.00 L 857.00 473.00 L 855.00 403.00 L 857.00 404.00 L 863.00 476.00 L 866.00 459.00 L 866.00 353.00 L 869.00 354.00 L 875.00 462.00 L 877.00 460.00 L 875.00 348.00 L 878.00 348.00 L 886.00 460.00 L 890.00 457.00 L 890.00 339.00 L 892.00 338.00 L 896.00 454.00 L 901.00 452.00 L 907.00 332.00 L 910.00 326.00 L 910.00 434.00 L 913.00 434.00 L 919.00 326.00 L 921.00 325.00 L 919.00 431.00 L 922.00 432.00 L 930.00 328.00 L 933.00 327.00 L 931.00 429.00 L 934.00 434.00 L 942.00 342.00 L 945.00 342.00 L 943.00 434.00 L 948.00 445.00 L 960.00 375.00 L 962.00 374.00 L 954.00 442.00 L 956.00 444.00 L 968.00 380.00 L 971.00 379.00 L 965.00 441.00 L 967.00 444.00 L 977.00 388.00 L 980.00 387.00 L 976.00 441.00 L 980.00 444.00 L 992.00 396.00 L 994.00 395.00 L 986.00 441.00 L 988.00 440.00 L 1000.00 392.00 L 1006.00 391.00 L 1006.00 437.00 L 1013.00 436.00 L 1027.00 388.00 L 1031.00 380.00 L 1025.00 412.00 L 1029.00 408.00 L 1043.00 368.00 L 1045.00 371.00 L 1035.00 417.00 L 1041.00 413.00 L 1063.00 359.00 L 1064.00 366.00 L 1044.00 434.00 L 1049.00 433.00 L 1079.00 363.00 L 1080.00 367.00 L 1052.00 445.00 L 1055.00 446.00 L 1089.00 370.00 L 1091.00 374.00 L 1061.00 458.00 L 1064.00 458.00 L 1100.00 374.00 L 1103.00 372.00 L 1073.00 452.00 L 1078.00 454.00 L 1118.00 378.00 L 1149.00 353.00 L 1171.00 379.00 L 1182.00 419.00 L 1182.00 473.00 L 1189.00 515.00 L 1203.00 545.00 L 1256.00 573.00 L 1348.00 599.00 L 1410.00 647.00 L 1442.00 717.00 L 1453.00 777.00 L 1443.00 827.00 L 1399.00 856.00 L 1321.00 864.00 L 1318.00 867.00 L 1390.00 865.00 L 1389.00 867.00 L 1315.00 873.00 L 1309.00 877.00 L 1371.00 879.00 L 1370.00 883.00 L 1306.00 889.00 L 1255.00 937.00 L 1217.00 1027.00 L 1178.00 1084.00 L 1138.00 1108.00 L 1106.00 1117.00 L 1082.00 1111.00 L 1072.00 1144.00 L 1076.00 1216.00 L 1074.00 1245.00 L 1066.00 1231.00 L 1084.00 1297.00 L 1128.00 1443.00 L 1093.00 1529.00 L 979.00 1555.00 L 833.00 1627.00 L 655.00 1745.00 L 606.00 1685.00 L 686.00 1447.00 L 681.00 1450.00 L 591.00 1694.00 L 592.00 1690.00 L 684.00 1438.00 L 682.00 1436.00 L 586.00 1684.00 L 586.00 1681.00 L 682.00 1427.00 L 680.00 1424.00 L 580.00 1672.00 L 580.00 1666.00 L 680.00 1406.00 L 678.00 1403.00 L 574.00 1657.00 L 573.00 1654.00 L 675.00 1394.00 L 671.00 1389.00 L 561.00 1639.00 L 560.00 1636.00 L 668.00 1380.00 L 666.00 1373.00 L 554.00 1615.00 L 553.00 1612.00 L 663.00 1364.00 L 662.00 1354.00 L 550.00 1582.00 L 517.00 1646.00 L 563.00 1546.00 L 564.00 1540.00 L 520.00 1628.00 L 518.00 1630.00 L 558.00 1546.00 L 558.00 1543.00 L 518.00 1621.00 L 516.00 1623.00 L 552.00 1549.00 L 554.00 1543.00 L 522.00 1605.00 L 520.00 1608.00 L 548.00 1552.00 L 548.00 1550.00 L 520.00 1602.00 L 515.00 1609.00 L 533.00 1571.00 L 538.00 1558.00 L 530.00 1570.00 L 571.00 1490.00 L 661.00 1318.00 L 673.00 1230.00 L 607.00 1226.00 L 565.00 1214.00 L 547.00 1194.00 L 535.00 1147.00 L 529.00 1073.00 L 515.00 1021.00 L 493.00 991.00 L 498.00 953.00 L 530.00 907.00 L 548.00 881.00 L 552.00 875.00 L 554.00 851.00 Z" fill="black" stroke="black" stroke-width="1"/>
</svg>