<?xml version="1.0" encoding="UTF-8"?>
<svg xmlns="http://www.w3.org/2000/svg" viewBox="335.00 382.00 800.00 1128.00">
  <path d="M 487.00 873.00 L 489.00 815.00 L 480.00 772.00 L 460.00 744.00 L 466.00 706.00 L 498.00 658.00 L 515.00 612.00 L 517.00 568.00 L 532.00 523.00 L 560.00 477.00 L 590.00 443.00 L 622.00 421.00 L 654.00 407.00 L 686.00 401.00 L 728.00 396.00 L 780.00 392.00 L 831.00 397.00 L 881.00 411.00 L 911.00 410.00 L 921.00 394.00 L 923.00 394.00 L 917.00 410.00 L 919.00 410.00 L 929.00 394.00 L 931.00 394.00 L 925.00 410.00 L 927.00 410.00 L 937.00 394.00 L 939.00 394.00 L 933.00 410.00 L 935.00 411.00 L 945.00 397.00 L 954.00 399.00 L 962.00 417.00 L 973.00 418.00 L 987.00 402.00 L 1000.00 394.00 L 1012.00 394.00 L 1023.00 409.00 L 1033.00 439.00 L 1049.00 462.00 L 1071.00 478.00 L 1093.00 533.00 L 1115.00 627.00 L 1125.00 681.00 L 1123.00 695.00 L 1096.00 716.00 L 1044.00 744.00 L 1043.00 747.00 L 1093.00 725.00 L 1092.00 727.00 L 1040.00 753.00 L 1039.00 756.00 L 1089.00 736.00 L 1089.00 738.00 L 1039.00 762.00 L 1038.00 764.00 L 1086.00 744.00 L 1085.00 745.00 L 1035.00 767.00 L 1033.00 769.00 L 1079.00 751.00 L 1057.00 761.00 L 967.00 799.00 L 966.00 800.00 L 1054.00 764.00 L 1052.00 765.00 L 960.00 803.00 L 956.00 805.00 L 1040.00 771.00 L 1040.00 772.00 L 956.00 808.00 L 935.00 818.00 L 977.00 802.00 L 976.00 804.00 L 932.00 824.00 L 907.00 843.00 L 901.00 861.00 L 898.00 887.00 L 898.00 921.00 L 904.00 944.00 L 916.00 956.00 L 920.00 974.00 L 916.00 998.00 L 927.00 1041.00 L 953.00 1103.00 L 912.00 1153.00 L 804.00 1191.00 L 706.00 1236.00 L 618.00 1288.00 L 590.00 1263.00 L 622.00 1161.00 L 620.00 1162.00 L 584.00 1266.00 L 585.00 1262.00 L 623.00 1150.00 L 619.00 1153.00 L 573.00 1271.00 L 573.00 1268.00 L 619.00 1144.00 L 617.00 1145.00 L 567.00 1271.00 L 567.00 1269.00 L 617.00 1139.00 L 615.00 1141.00 L 561.00 1275.00 L 561.00 1274.00 L 615.00 1138.00 L 610.00 1142.00 L 546.00 1286.00 L 546.00 1283.00 L 610.00 1133.00 L 606.00 1136.00 L 534.00 1292.00 L 534.00 1290.00 L 606.00 1130.00 L 605.00 1131.00 L 531.00 1293.00 L 513.00 1332.00 L 551.00 1248.00 L 550.00 1249.00 L 510.00 1335.00 L 509.00 1336.00 L 547.00 1252.00 L 546.00 1253.00 L 506.00 1339.00 L 505.00 1340.00 L 543.00 1256.00 L 541.00 1258.00 L 499.00 1346.00 L 475.00 1393.00 L 469.00 1399.00 L 488.00 1356.00 L 532.00 1264.00 L 527.00 1269.00 L 473.00 1371.00 L 494.00 1327.00 L 590.00 1137.00 L 581.00 1147.00 L 467.00 1357.00 L 467.00 1355.00 L 581.00 1141.00 L 579.00 1143.00 L 461.00 1361.00 L 432.00 1413.00 L 492.00 1299.00 L 489.00 1302.00 L 423.00 1422.00 L 385.00 1488.00 L 375.00 1500.00 L 406.00 1441.00 L 478.00 1311.00 L 476.00 1311.00 L 400.00 1441.00 L 398.00 1442.00 L 470.00 1314.00 L 469.00 1312.00 L 395.00 1436.00 L 392.00 1438.00 L 460.00 1318.00 L 457.00 1314.00 L 383.00 1426.00 L 418.00 1367.00 L 562.00 1137.00 L 561.00 1135.00 L 415.00 1361.00 L 372.00 1424.00 L 432.00 1324.00 L 430.00 1319.00 L 366.00 1409.00 L 363.00 1411.00 L 421.00 1325.00 L 421.00 1324.00 L 363.00 1408.00 L 360.00 1410.00 L 412.00 1330.00 L 411.00 1326.00 L 357.00 1398.00 L 354.00 1400.00 L 402.00 1332.00 L 402.00 1328.00 L 354.00 1388.00 L 405.00 1316.00 L 555.00 1112.00 L 555.00 1110.00 L 405.00 1310.00 L 347.00 1386.00 L 381.00 1338.00 L 381.00 1336.00 L 347.00 1380.00 L 345.00 1381.00 L 375.00 1339.00 L 376.00 1336.00 L 348.00 1372.00 L 345.00 1374.00 L 367.00 1342.00 L 369.00 1337.00 L 351.00 1359.00 L 349.00 1361.00 L 363.00 1343.00 L 366.00 1338.00 L 358.00 1346.00 L 422.00 1263.00 L 558.00 1089.00 L 592.00 980.00 L 524.00 936.00 L 489.00 911.00 L 487.00 905.00 L 487.00 873.00 Z" fill="black" stroke="black" stroke-width="1"/>
</svg>