<?xml version="1.0" encoding="UTF-8"?>
<svg xmlns="http://www.w3.org/2000/svg" viewBox="222.00 85.00 1033.00 1750.00">
  <path d="M 371.00 958.00 L 381.00 942.00 L 386.00 930.00 L 386.00 922.00 L 377.00 906.00 L 359.00 882.00 L 352.00 865.00 L 356.00 855.00 L 353.00 846.00 L 343.00 838.00 L 343.00 816.00 L 353.00 780.00 L 343.00 749.00 L 313.00 723.00 L 297.00 704.00 L 295.00 692.00 L 296.00 681.00 L 300.00 671.00 L 308.00 662.00 L 320.00 654.00 L 349.00 625.00 L 395.00 575.00 L 422.00 530.00 L 430.00 490.00 L 444.00 453.00 L 464.00 419.00 L 471.00 392.00 L 465.00 372.00 L 466.00 370.00 L 474.00 386.00 L 475.00 381.00 L 469.00 355.00 L 470.00 352.00 L 478.00 372.00 L 479.00 370.00 L 473.00 346.00 L 474.00 343.00 L 482.00 361.00 L 484.00 364.00 L 480.00 352.00 L 481.00 349.00 L 487.00 355.00 L 487.00 349.00 L 481.00 331.00 L 482.00 329.00 L 490.00 343.00 L 491.00 341.00 L 485.00 323.00 L 486.00 320.00 L 494.00 332.00 L 496.00 330.00 L 492.00 314.00 L 493.00 313.00 L 499.00 327.00 L 502.00 324.00 L 502.00 304.00 L 505.00 297.00 L 511.00 303.00 L 513.00 300.00 L 511.00 288.00 L 512.00 286.00 L 516.00 294.00 L 517.00 291.00 L 515.00 277.00 L 517.00 263.00 L 523.00 249.00 L 547.00 223.00 L 589.00 185.00 L 618.00 163.00 L 634.00 157.00 L 647.00 149.00 L 657.00 139.00 L 680.00 130.00 L 716.00 122.00 L 741.00 113.00 L 755.00 103.00 L 783.00 97.00 L 825.00 95.00 L 854.00 96.00 L 870.00 100.00 L 885.00 100.00 L 899.00 96.00 L 920.00 100.00 L 948.00 112.00 L 977.00 121.00 L 1007.00 127.00 L 1031.00 137.00 L 1049.00 151.00 L 1064.00 160.00 L 1076.00 164.00 L 1095.00 180.00 L 1121.00 208.00 L 1144.00 239.00 L 1164.00 273.00 L 1184.00 325.00 L 1204.00 395.00 L 1214.00 446.00 L 1214.00 478.00 L 1216.00 501.00 L 1220.00 515.00 L 1221.00 564.00 L 1219.00 648.00 L 1204.00 723.00 L 1176.00 789.00 L 1159.00 837.00 L 1153.00 867.00 L 1135.00 896.00 L 1105.00 924.00 L 1090.00 945.00 L 1090.00 959.00 L 1094.00 999.00 L 1102.00 1065.00 L 1106.00 1108.00 L 1106.00 1128.00 L 1103.00 1144.00 L 1097.00 1156.00 L 1103.00 1184.00 L 1121.00 1228.00 L 1158.00 1295.00 L 1214.00 1385.00 L 1243.00 1433.00 L 1245.00 1439.00 L 1241.00 1445.00 L 1231.00 1451.00 L 1227.00 1462.00 L 1229.00 1478.00 L 1201.00 1483.00 L 1143.00 1477.00 L 1084.00 1479.00 L 1024.00 1489.00 L 963.00 1506.00 L 901.00 1530.00 L 851.00 1552.00 L 813.00 1572.00 L 741.00 1618.00 L 635.00 1690.00 L 572.00 1730.00 L 552.00 1738.00 L 527.00 1752.00 L 497.00 1772.00 L 449.00 1793.00 L 383.00 1815.00 L 338.00 1825.00 L 314.00 1823.00 L 293.00 1817.00 L 275.00 1807.00 L 257.00 1786.00 L 239.00 1754.00 L 232.00 1717.00 L 236.00 1675.00 L 243.00 1641.00 L 253.00 1615.00 L 258.00 1585.00 L 258.00 1551.00 L 267.00 1516.00 L 285.00 1480.00 L 292.00 1464.00 L 288.00 1468.00 L 299.00 1452.00 L 325.00 1416.00 L 328.00 1405.00 L 308.00 1419.00 L 306.00 1417.00 L 322.00 1399.00 L 321.00 1400.00 L 303.00 1420.00 L 312.00 1409.00 L 348.00 1367.00 L 350.00 1363.00 L 318.00 1397.00 L 320.00 1394.00 L 356.00 1354.00 L 358.00 1351.00 L 326.00 1385.00 L 328.00 1381.00 L 364.00 1339.00 L 370.00 1330.00 L 346.00 1354.00 L 349.00 1346.00 L 379.00 1306.00 L 382.00 1295.00 L 358.00 1313.00 L 361.00 1307.00 L 391.00 1277.00 L 391.00 1275.00 L 361.00 1301.00 L 361.00 1298.00 L 391.00 1266.00 L 394.00 1259.00 L 370.00 1277.00 L 370.00 1275.00 L 394.00 1253.00 L 392.00 1253.00 L 364.00 1275.00 L 363.00 1273.00 L 389.00 1247.00 L 386.00 1245.00 L 354.00 1267.00 L 354.00 1264.00 L 386.00 1236.00 L 386.00 1234.00 L 354.00 1258.00 L 343.00 1264.00 L 353.00 1252.00 L 354.00 1249.00 L 346.00 1255.00 L 356.00 1246.00 L 384.00 1222.00 L 393.00 1193.00 L 383.00 1159.00 L 378.00 1133.00 L 378.00 1115.00 L 389.00 1098.00 L 411.00 1082.00 L 414.00 1069.00 L 398.00 1059.00 L 384.00 1047.00 L 372.00 1033.00 L 364.00 1020.00 L 360.00 1008.00 L 359.00 996.00 L 361.00 984.00 L 363.00 975.00 L 365.00 969.00 L 371.00 958.00 Z" fill="black" stroke="black" stroke-width="1"/>
</svg>