<?xml version="1.0" encoding="UTF-8"?>
<svg xmlns="http://www.w3.org/2000/svg" viewBox="375.00 285.00 713.00 1122.00">
  <path d="M 417.00 820.00 L 415.00 816.00 L 417.00 806.00 L 423.00 790.00 L 418.00 778.00 L 402.00 770.00 L 391.00 759.00 L 385.00 745.00 L 401.00 714.00 L 439.00 666.00 L 459.00 635.00 L 461.00 621.00 L 459.00 608.00 L 453.00 596.00 L 454.00 594.00 L 462.00 602.00 L 461.00 600.00 L 451.00 588.00 L 446.00 576.00 L 446.00 564.00 L 450.00 550.00 L 458.00 534.00 L 465.00 512.00 L 471.00 484.00 L 494.00 451.00 L 534.00 413.00 L 567.00 391.00 L 593.00 385.00 L 617.00 376.00 L 639.00 364.00 L 663.00 359.00 L 689.00 361.00 L 710.00 358.00 L 726.00 350.00 L 755.00 348.00 L 797.00 352.00 L 823.00 342.00 L 833.00 318.00 L 835.00 318.00 L 829.00 342.00 L 830.00 341.00 L 838.00 315.00 L 840.00 310.00 L 836.00 326.00 L 838.00 325.00 L 846.00 307.00 L 846.00 312.00 L 838.00 340.00 L 840.00 339.00 L 852.00 309.00 L 854.00 308.00 L 846.00 336.00 L 848.00 336.00 L 860.00 308.00 L 874.00 295.00 L 890.00 297.00 L 911.00 310.00 L 937.00 334.00 L 954.00 355.00 L 962.00 373.00 L 967.00 396.00 L 969.00 424.00 L 976.00 435.00 L 988.00 429.00 L 999.00 427.00 L 1009.00 429.00 L 1012.00 445.00 L 1008.00 475.00 L 1011.00 487.00 L 1021.00 481.00 L 1030.00 479.00 L 1038.00 481.00 L 1047.00 486.00 L 1057.00 494.00 L 1066.00 505.00 L 1074.00 519.00 L 1078.00 547.00 L 1078.00 589.00 L 1073.00 626.00 L 1063.00 658.00 L 1054.00 680.00 L 1046.00 692.00 L 1027.00 712.00 L 997.00 740.00 L 976.00 765.00 L 964.00 787.00 L 934.00 801.00 L 886.00 807.00 L 884.00 808.00 L 928.00 804.00 L 931.00 804.00 L 893.00 808.00 L 892.00 809.00 L 928.00 807.00 L 924.00 808.00 L 880.00 812.00 L 878.00 813.00 L 918.00 811.00 L 924.00 811.00 L 896.00 813.00 L 889.00 814.00 L 903.00 814.00 L 896.00 817.00 L 868.00 823.00 L 855.00 855.00 L 857.00 913.00 L 872.00 976.00 L 900.00 1044.00 L 914.00 1085.00 L 914.00 1099.00 L 890.00 1108.00 L 842.00 1112.00 L 788.00 1125.00 L 728.00 1147.00 L 684.00 1168.00 L 656.00 1188.00 L 596.00 1248.00 L 504.00 1348.00 L 456.00 1397.00 L 452.00 1395.00 L 482.00 1315.00 L 546.00 1157.00 L 545.00 1156.00 L 479.00 1312.00 L 481.00 1305.00 L 551.00 1135.00 L 549.00 1134.00 L 475.00 1302.00 L 476.00 1299.00 L 552.00 1125.00 L 551.00 1124.00 L 473.00 1296.00 L 473.00 1295.00 L 551.00 1121.00 L 550.00 1120.00 L 470.00 1292.00 L 470.00 1291.00 L 550.00 1117.00 L 549.00 1116.00 L 467.00 1288.00 L 456.00 1310.00 L 516.00 1182.00 L 515.00 1180.00 L 453.00 1304.00 L 451.00 1306.00 L 509.00 1186.00 L 508.00 1185.00 L 448.00 1303.00 L 460.00 1277.00 L 544.00 1107.00 L 543.00 1106.00 L 457.00 1274.00 L 442.00 1302.00 L 498.00 1190.00 L 497.00 1188.00 L 439.00 1296.00 L 454.00 1266.00 L 542.00 1098.00 L 541.00 1097.00 L 451.00 1263.00 L 451.00 1262.00 L 541.00 1094.00 L 540.00 1092.00 L 448.00 1256.00 L 427.00 1292.00 L 477.00 1200.00 L 477.00 1199.00 L 427.00 1289.00 L 426.00 1290.00 L 474.00 1202.00 L 473.00 1199.00 L 423.00 1281.00 L 444.00 1242.00 L 536.00 1082.00 L 536.00 1080.00 L 444.00 1236.00 L 419.00 1278.00 L 461.00 1206.00 L 461.00 1203.00 L 419.00 1269.00 L 416.00 1272.00 L 452.00 1212.00 L 452.00 1211.00 L 416.00 1269.00 L 414.00 1271.00 L 446.00 1217.00 L 446.00 1216.00 L 414.00 1268.00 L 412.00 1270.00 L 440.00 1222.00 L 441.00 1219.00 L 415.00 1261.00 L 414.00 1262.00 L 438.00 1222.00 L 439.00 1219.00 L 417.00 1253.00 L 413.00 1258.00 L 427.00 1234.00 L 430.00 1228.00 L 422.00 1240.00 L 458.00 1183.00 L 538.00 1057.00 L 572.00 989.00 L 560.00 979.00 L 531.00 971.00 L 485.00 965.00 L 453.00 956.00 L 435.00 944.00 L 424.00 932.00 L 420.00 920.00 L 421.00 903.00 L 427.00 881.00 L 428.00 860.00 L 424.00 840.00 L 421.00 828.00 L 419.00 824.00 L 417.00 820.00 Z" fill="black" stroke="black" stroke-width="1"/>
</svg>