<?xml version="1.0" encoding="UTF-8"?>
<svg xmlns="http://www.w3.org/2000/svg" viewBox="391.00 378.00 804.00 1077.00">
  <path d="M 463.00 872.00 L 465.00 852.00 L 457.00 838.00 L 439.00 830.00 L 436.00 827.00 L 448.00 829.00 L 446.00 822.00 L 430.00 806.00 L 438.00 773.00 L 470.00 723.00 L 480.00 687.00 L 468.00 665.00 L 468.00 658.00 L 480.00 666.00 L 479.00 662.00 L 465.00 646.00 L 465.00 644.00 L 479.00 656.00 L 480.00 655.00 L 468.00 641.00 L 468.00 638.00 L 480.00 646.00 L 480.00 644.00 L 468.00 632.00 L 468.00 629.00 L 480.00 635.00 L 481.00 631.00 L 471.00 617.00 L 472.00 615.00 L 484.00 625.00 L 484.00 623.00 L 472.00 609.00 L 472.00 608.00 L 484.00 620.00 L 485.00 618.00 L 475.00 602.00 L 476.00 599.00 L 488.00 609.00 L 489.00 607.00 L 479.00 593.00 L 480.00 591.00 L 492.00 601.00 L 493.00 600.00 L 483.00 588.00 L 484.00 585.00 L 496.00 591.00 L 498.00 587.00 L 490.00 573.00 L 491.00 571.00 L 501.00 581.00 L 502.00 580.00 L 494.00 568.00 L 495.00 567.00 L 505.00 577.00 L 508.00 572.00 L 504.00 552.00 L 506.00 546.00 L 514.00 554.00 L 515.00 553.00 L 509.00 543.00 L 510.00 542.00 L 518.00 550.00 L 519.00 549.00 L 513.00 539.00 L 526.00 522.00 L 558.00 498.00 L 619.00 476.00 L 709.00 456.00 L 757.00 434.00 L 763.00 410.00 L 766.00 410.00 L 766.00 434.00 L 769.00 433.00 L 775.00 407.00 L 779.00 407.00 L 781.00 433.00 L 784.00 432.00 L 788.00 404.00 L 791.00 403.00 L 793.00 429.00 L 797.00 428.00 L 803.00 400.00 L 806.00 400.00 L 806.00 428.00 L 813.00 427.00 L 827.00 397.00 L 832.00 394.00 L 828.00 418.00 L 831.00 418.00 L 841.00 394.00 L 871.00 388.00 L 921.00 400.00 L 953.00 404.00 L 967.00 400.00 L 983.00 408.00 L 1001.00 428.00 L 1024.00 443.00 L 1052.00 453.00 L 1075.00 478.00 L 1093.00 518.00 L 1110.00 536.00 L 1126.00 532.00 L 1146.00 541.00 L 1170.00 563.00 L 1183.00 606.00 L 1185.00 670.00 L 1182.00 710.00 L 1174.00 726.00 L 1160.00 739.00 L 1140.00 749.00 L 1140.00 751.00 L 1160.00 745.00 L 1159.00 747.00 L 1137.00 757.00 L 1134.00 760.00 L 1150.00 756.00 L 1150.00 758.00 L 1134.00 766.00 L 1125.00 780.00 L 1123.00 800.00 L 1089.00 818.00 L 1023.00 834.00 L 1021.00 837.00 L 1083.00 827.00 L 1080.00 830.00 L 1012.00 846.00 L 1009.00 850.00 L 1071.00 842.00 L 1070.00 843.00 L 1006.00 853.00 L 1003.00 855.00 L 1061.00 849.00 L 1060.00 850.00 L 1000.00 858.00 L 996.00 860.00 L 1048.00 856.00 L 1046.00 858.00 L 990.00 866.00 L 935.00 883.00 L 881.00 909.00 L 857.00 954.00 L 863.00 1018.00 L 887.00 1093.00 L 929.00 1179.00 L 949.00 1236.00 L 947.00 1264.00 L 897.00 1289.00 L 799.00 1311.00 L 693.00 1349.00 L 579.00 1403.00 L 546.00 1366.00 L 594.00 1238.00 L 591.00 1239.00 L 537.00 1369.00 L 537.00 1366.00 L 591.00 1230.00 L 590.00 1231.00 L 534.00 1369.00 L 534.00 1368.00 L 590.00 1228.00 L 588.00 1229.00 L 528.00 1371.00 L 528.00 1369.00 L 588.00 1223.00 L 586.00 1224.00 L 522.00 1372.00 L 522.00 1370.00 L 586.00 1218.00 L 584.00 1219.00 L 516.00 1373.00 L 503.00 1401.00 L 545.00 1303.00 L 539.00 1306.00 L 485.00 1410.00 L 497.00 1379.00 L 575.00 1213.00 L 573.00 1214.00 L 491.00 1382.00 L 491.00 1380.00 L 573.00 1208.00 L 567.00 1211.00 L 473.00 1389.00 L 473.00 1386.00 L 567.00 1202.00 L 565.00 1204.00 L 467.00 1392.00 L 440.00 1442.00 L 484.00 1354.00 L 480.00 1355.00 L 428.00 1445.00 L 454.00 1393.00 L 558.00 1199.00 L 556.00 1196.00 L 448.00 1384.00 L 448.00 1382.00 L 556.00 1190.00 L 555.00 1187.00 L 445.00 1373.00 L 408.00 1434.00 L 444.00 1370.00 L 443.00 1368.00 L 405.00 1428.00 L 401.00 1431.00 L 431.00 1377.00 L 431.00 1372.00 L 401.00 1416.00 L 441.00 1349.00 L 551.00 1171.00 L 551.00 1168.00 L 441.00 1340.00 L 440.00 1338.00 L 548.00 1162.00 L 596.00 1062.00 L 584.00 1038.00 L 550.00 1016.00 L 494.00 996.00 L 465.00 962.00 L 463.00 914.00 L 462.00 888.00 L 462.00 884.00 L 463.00 872.00 Z" fill="black" stroke="black" stroke-width="1"/>
</svg>