<?xml version="1.0" encoding="UTF-8"?>
<svg xmlns="http://www.w3.org/2000/svg" viewBox="244.00 250.00 909.00 1534.00">
  <path d="M 324.00 971.00 L 336.00 949.00 L 339.00 924.00 L 333.00 896.00 L 334.00 878.00 L 342.00 870.00 L 342.00 863.00 L 334.00 857.00 L 330.00 851.00 L 330.00 845.00 L 335.00 831.00 L 345.00 809.00 L 341.00 791.00 L 323.00 777.00 L 323.00 775.00 L 341.00 785.00 L 339.00 783.00 L 317.00 769.00 L 316.00 767.00 L 336.00 777.00 L 335.00 774.00 L 313.00 758.00 L 306.00 743.00 L 314.00 729.00 L 323.00 721.00 L 333.00 719.00 L 338.00 715.00 L 338.00 709.00 L 340.00 707.00 L 344.00 709.00 L 346.00 707.00 L 346.00 701.00 L 350.00 700.00 L 358.00 704.00 L 359.00 703.00 L 353.00 697.00 L 357.00 698.00 L 371.00 706.00 L 373.00 705.00 L 363.00 695.00 L 364.00 694.00 L 376.00 702.00 L 377.00 700.00 L 367.00 688.00 L 368.00 687.00 L 380.00 697.00 L 382.00 695.00 L 374.00 681.00 L 378.00 665.00 L 394.00 647.00 L 398.00 617.00 L 390.00 575.00 L 389.00 558.00 L 395.00 566.00 L 395.00 561.00 L 389.00 543.00 L 392.00 524.00 L 404.00 504.00 L 409.00 485.00 L 407.00 467.00 L 414.00 450.00 L 430.00 434.00 L 441.00 420.00 L 447.00 408.00 L 465.00 392.00 L 495.00 372.00 L 512.00 364.00 L 516.00 368.00 L 519.00 368.00 L 521.00 364.00 L 523.00 365.00 L 525.00 371.00 L 527.00 371.00 L 529.00 365.00 L 534.00 362.00 L 542.00 362.00 L 546.00 357.00 L 546.00 347.00 L 548.00 348.00 L 552.00 360.00 L 553.00 358.00 L 551.00 342.00 L 554.00 341.00 L 562.00 355.00 L 565.00 353.00 L 563.00 335.00 L 565.00 334.00 L 571.00 350.00 L 573.00 350.00 L 571.00 334.00 L 590.00 315.00 L 630.00 293.00 L 676.00 279.00 L 728.00 273.00 L 761.00 267.00 L 775.00 261.00 L 790.00 260.00 L 806.00 264.00 L 819.00 265.00 L 829.00 263.00 L 839.00 265.00 L 849.00 271.00 L 862.00 273.00 L 878.00 271.00 L 896.00 273.00 L 916.00 279.00 L 942.00 290.00 L 974.00 306.00 L 1005.00 327.00 L 1035.00 353.00 L 1060.00 395.00 L 1080.00 453.00 L 1093.00 501.00 L 1099.00 539.00 L 1103.00 579.00 L 1105.00 621.00 L 1103.00 676.00 L 1097.00 744.00 L 1094.00 794.00 L 1094.00 826.00 L 1097.00 862.00 L 1103.00 902.00 L 1105.00 946.00 L 1103.00 994.00 L 1108.00 1025.00 L 1120.00 1039.00 L 1123.00 1046.00 L 1117.00 1046.00 L 1119.00 1047.00 L 1129.00 1049.00 L 1137.00 1053.00 L 1143.00 1059.00 L 1138.00 1063.00 L 1122.00 1065.00 L 1121.00 1068.00 L 1135.00 1072.00 L 1138.00 1074.00 L 1130.00 1074.00 L 1129.00 1076.00 L 1135.00 1080.00 L 1136.00 1082.00 L 1132.00 1082.00 L 1131.00 1085.00 L 1133.00 1091.00 L 1127.00 1094.00 L 1113.00 1094.00 L 1112.00 1096.00 L 1124.00 1100.00 L 1124.00 1101.00 L 1112.00 1099.00 L 1110.00 1100.00 L 1118.00 1104.00 L 1117.00 1107.00 L 1107.00 1109.00 L 1101.00 1117.00 L 1099.00 1131.00 L 1098.00 1146.00 L 1098.00 1162.00 L 1107.00 1207.00 L 1125.00 1281.00 L 1132.00 1320.00 L 1128.00 1324.00 L 1129.00 1341.00 L 1135.00 1371.00 L 1136.00 1388.00 L 1132.00 1392.00 L 1088.00 1394.00 L 1004.00 1394.00 L 928.00 1403.00 L 860.00 1421.00 L 782.00 1453.00 L 694.00 1499.00 L 625.00 1542.00 L 575.00 1582.00 L 509.00 1641.00 L 427.00 1719.00 L 376.00 1762.00 L 356.00 1770.00 L 334.00 1774.00 L 310.00 1774.00 L 291.00 1768.00 L 277.00 1756.00 L 265.00 1740.00 L 255.00 1720.00 L 254.00 1685.00 L 262.00 1635.00 L 278.00 1588.00 L 302.00 1544.00 L 309.00 1529.00 L 299.00 1543.00 L 301.00 1538.00 L 315.00 1514.00 L 325.00 1488.00 L 331.00 1460.00 L 363.00 1407.00 L 421.00 1329.00 L 422.00 1327.00 L 366.00 1401.00 L 367.00 1399.00 L 425.00 1321.00 L 426.00 1318.00 L 370.00 1390.00 L 367.00 1393.00 L 417.00 1327.00 L 418.00 1325.00 L 370.00 1387.00 L 372.00 1382.00 L 424.00 1310.00 L 436.00 1291.00 L 408.00 1325.00 L 408.00 1323.00 L 436.00 1285.00 L 447.00 1251.00 L 441.00 1221.00 L 435.00 1204.00 L 429.00 1200.00 L 419.00 1180.00 L 405.00 1144.00 L 399.00 1123.00 L 401.00 1117.00 L 410.00 1109.00 L 426.00 1099.00 L 427.00 1097.00 L 413.00 1103.00 L 415.00 1102.00 L 433.00 1094.00 L 436.00 1092.00 L 424.00 1096.00 L 423.00 1095.00 L 433.00 1089.00 L 413.00 1072.00 L 363.00 1044.00 L 333.00 1025.00 L 323.00 1015.00 L 317.00 1005.00 L 315.00 995.00 L 315.00 988.00 L 317.00 984.00 L 324.00 971.00 Z" fill="black" stroke="black" stroke-width="1"/>
</svg>