<?xml version="1.0" encoding="UTF-8"?>
<svg xmlns="http://www.w3.org/2000/svg" viewBox="369.00 266.00 857.00 1358.00">
  <path d="M 519.00 949.00 L 509.00 939.00 L 505.00 928.00 L 507.00 916.00 L 506.00 906.00 L 502.00 898.00 L 489.00 886.00 L 467.00 870.00 L 459.00 854.00 L 465.00 838.00 L 478.00 819.00 L 498.00 797.00 L 473.00 762.00 L 403.00 714.00 L 404.00 713.00 L 476.00 759.00 L 477.00 757.00 L 407.00 707.00 L 379.00 686.00 L 393.00 694.00 L 430.00 718.00 L 490.00 758.00 L 485.00 753.00 L 415.00 703.00 L 381.00 677.00 L 383.00 675.00 L 391.00 679.00 L 405.00 689.00 L 415.00 694.00 L 421.00 694.00 L 417.00 687.00 L 403.00 673.00 L 430.00 691.00 L 498.00 741.00 L 508.00 747.00 L 460.00 709.00 L 429.00 682.00 L 415.00 666.00 L 420.00 666.00 L 444.00 682.00 L 446.00 681.00 L 426.00 663.00 L 447.00 680.00 L 509.00 732.00 L 510.00 732.00 L 450.00 680.00 L 434.00 663.00 L 462.00 681.00 L 493.00 705.00 L 527.00 735.00 L 516.00 725.00 L 460.00 675.00 L 434.00 649.00 L 438.00 647.00 L 466.00 670.00 L 518.00 718.00 L 521.00 717.00 L 475.00 667.00 L 475.00 664.00 L 521.00 708.00 L 523.00 707.00 L 481.00 661.00 L 481.00 659.00 L 523.00 701.00 L 525.00 701.00 L 487.00 659.00 L 487.00 657.00 L 525.00 695.00 L 528.00 694.00 L 496.00 654.00 L 497.00 651.00 L 531.00 685.00 L 534.00 684.00 L 506.00 648.00 L 506.00 645.00 L 534.00 675.00 L 536.00 675.00 L 512.00 645.00 L 509.00 628.00 L 527.00 624.00 L 543.00 616.00 L 557.00 604.00 L 597.00 535.00 L 663.00 409.00 L 703.00 336.00 L 717.00 316.00 L 735.00 296.00 L 757.00 276.00 L 840.00 304.00 L 984.00 380.00 L 1096.00 444.00 L 1176.00 496.00 L 1216.00 529.00 L 1216.00 543.00 L 1167.00 647.00 L 1069.00 841.00 L 1026.00 949.00 L 1038.00 971.00 L 1059.00 996.00 L 1089.00 1024.00 L 1082.00 1033.00 L 1038.00 1023.00 L 1041.00 1026.00 L 1091.00 1042.00 L 1090.00 1043.00 L 1038.00 1029.00 L 1040.00 1032.00 L 1096.00 1052.00 L 1097.00 1055.00 L 1043.00 1041.00 L 1043.00 1043.00 L 1097.00 1061.00 L 1107.00 1065.00 L 1073.00 1055.00 L 1072.00 1057.00 L 1104.00 1071.00 L 1094.00 1069.00 L 1042.00 1051.00 L 1040.00 1051.00 L 1088.00 1069.00 L 1089.00 1071.00 L 1043.00 1057.00 L 1022.00 1076.00 L 1026.00 1128.00 L 1024.00 1161.00 L 1016.00 1175.00 L 1018.00 1204.00 L 1030.00 1248.00 L 1035.00 1273.00 L 1033.00 1279.00 L 1034.00 1289.00 L 1038.00 1303.00 L 1039.00 1309.00 L 1037.00 1307.00 L 1041.00 1316.00 L 1051.00 1336.00 L 1054.00 1344.00 L 1050.00 1340.00 L 1051.00 1345.00 L 1057.00 1359.00 L 1059.00 1374.00 L 1057.00 1390.00 L 1021.00 1401.00 L 951.00 1407.00 L 881.00 1421.00 L 811.00 1443.00 L 747.00 1469.00 L 689.00 1499.00 L 626.00 1536.00 L 558.00 1580.00 L 512.00 1606.00 L 488.00 1614.00 L 470.00 1613.00 L 458.00 1603.00 L 494.00 1512.00 L 578.00 1340.00 L 577.00 1338.00 L 491.00 1506.00 L 489.00 1509.00 L 571.00 1347.00 L 571.00 1345.00 L 489.00 1503.00 L 447.00 1580.00 L 445.00 1576.00 L 487.00 1492.00 L 573.00 1328.00 L 573.00 1325.00 L 487.00 1483.00 L 492.00 1473.00 L 588.00 1295.00 L 588.00 1292.00 L 492.00 1464.00 L 492.00 1462.00 L 588.00 1286.00 L 589.00 1279.00 L 495.00 1441.00 L 493.00 1442.00 L 583.00 1282.00 L 584.00 1276.00 L 496.00 1424.00 L 472.00 1464.00 L 512.00 1396.00 L 513.00 1394.00 L 475.00 1458.00 L 473.00 1460.00 L 507.00 1400.00 L 507.00 1397.00 L 473.00 1451.00 L 471.00 1453.00 L 501.00 1403.00 L 503.00 1399.00 L 477.00 1441.00 L 473.00 1446.00 L 491.00 1414.00 L 492.00 1411.00 L 476.00 1437.00 L 506.00 1388.00 L 582.00 1264.00 L 583.00 1261.00 L 509.00 1379.00 L 508.00 1374.00 L 580.00 1246.00 L 615.00 1181.00 L 613.00 1179.00 L 603.00 1183.00 L 585.00 1193.00 L 581.00 1190.00 L 591.00 1174.00 L 590.00 1173.00 L 578.00 1187.00 L 579.00 1180.00 L 593.00 1152.00 L 594.00 1143.00 L 582.00 1153.00 L 581.00 1151.00 L 591.00 1137.00 L 589.00 1135.00 L 575.00 1145.00 L 574.00 1142.00 L 586.00 1126.00 L 587.00 1114.00 L 577.00 1106.00 L 571.00 1099.00 L 569.00 1093.00 L 570.00 1088.00 L 574.00 1084.00 L 567.00 1077.00 L 549.00 1067.00 L 538.00 1058.00 L 534.00 1050.00 L 531.00 1041.00 L 529.00 1031.00 L 530.00 1018.00 L 534.00 1002.00 L 534.00 985.00 L 530.00 967.00 L 527.00 957.00 L 525.00 955.00 L 519.00 949.00 Z" fill="black" stroke="black" stroke-width="1"/>
</svg>