<?xml version="1.0" encoding="UTF-8"?>
<svg xmlns="http://www.w3.org/2000/svg" viewBox="525.00 330.00 677.00 1106.00">
  <path d="M 584.00 848.00 L 580.00 836.00 L 579.00 820.00 L 581.00 800.00 L 573.00 785.00 L 555.00 775.00 L 543.00 766.00 L 537.00 758.00 L 550.00 729.00 L 582.00 679.00 L 590.00 642.00 L 574.00 618.00 L 575.00 616.00 L 593.00 636.00 L 592.00 633.00 L 572.00 607.00 L 573.00 606.00 L 595.00 630.00 L 594.00 626.00 L 570.00 594.00 L 568.00 589.00 L 588.00 611.00 L 589.00 609.00 L 571.00 583.00 L 572.00 582.00 L 592.00 606.00 L 593.00 604.00 L 575.00 576.00 L 574.00 572.00 L 590.00 592.00 L 591.00 590.00 L 577.00 566.00 L 577.00 563.00 L 591.00 581.00 L 592.00 580.00 L 580.00 560.00 L 580.00 557.00 L 592.00 571.00 L 593.00 570.00 L 583.00 554.00 L 581.00 549.00 L 587.00 555.00 L 588.00 554.00 L 584.00 546.00 L 587.00 548.00 L 597.00 560.00 L 598.00 559.00 L 590.00 545.00 L 589.00 541.00 L 595.00 547.00 L 595.00 543.00 L 589.00 529.00 L 591.00 530.00 L 601.00 546.00 L 600.00 541.00 L 588.00 515.00 L 589.00 513.00 L 603.00 535.00 L 604.00 533.00 L 592.00 507.00 L 592.00 503.00 L 604.00 521.00 L 605.00 518.00 L 595.00 494.00 L 591.00 481.00 L 593.00 479.00 L 599.00 487.00 L 609.00 505.00 L 610.00 504.00 L 602.00 484.00 L 603.00 482.00 L 613.00 498.00 L 617.00 501.00 L 615.00 491.00 L 616.00 488.00 L 620.00 492.00 L 619.00 487.00 L 613.00 473.00 L 613.00 472.00 L 619.00 484.00 L 623.00 487.00 L 625.00 481.00 L 624.00 473.00 L 620.00 463.00 L 624.00 451.00 L 636.00 437.00 L 648.00 428.00 L 660.00 424.00 L 671.00 414.00 L 681.00 398.00 L 708.00 384.00 L 752.00 372.00 L 785.00 360.00 L 807.00 348.00 L 825.00 343.00 L 839.00 345.00 L 857.00 344.00 L 879.00 340.00 L 897.00 341.00 L 911.00 347.00 L 925.00 349.00 L 939.00 347.00 L 954.00 350.00 L 970.00 358.00 L 987.00 363.00 L 1005.00 365.00 L 1020.00 370.00 L 1032.00 378.00 L 1047.00 383.00 L 1065.00 385.00 L 1078.00 393.00 L 1086.00 407.00 L 1094.00 415.00 L 1102.00 417.00 L 1111.00 423.00 L 1121.00 433.00 L 1125.00 441.00 L 1123.00 447.00 L 1128.00 452.00 L 1140.00 456.00 L 1148.00 466.00 L 1152.00 482.00 L 1155.00 489.00 L 1157.00 487.00 L 1159.00 490.00 L 1161.00 498.00 L 1168.00 506.00 L 1180.00 514.00 L 1188.00 541.00 L 1192.00 587.00 L 1187.00 627.00 L 1173.00 661.00 L 1135.00 716.00 L 1073.00 792.00 L 1046.00 860.00 L 1054.00 920.00 L 1056.00 959.00 L 1052.00 977.00 L 1066.00 1029.00 L 1098.00 1115.00 L 1110.00 1171.00 L 1102.00 1197.00 L 1071.00 1214.00 L 1017.00 1222.00 L 963.00 1234.00 L 909.00 1250.00 L 837.00 1279.00 L 747.00 1321.00 L 677.00 1360.00 L 627.00 1396.00 L 596.00 1417.00 L 584.00 1423.00 L 571.00 1426.00 L 557.00 1426.00 L 545.00 1421.00 L 535.00 1411.00 L 564.00 1333.00 L 632.00 1187.00 L 631.00 1185.00 L 561.00 1327.00 L 560.00 1328.00 L 628.00 1188.00 L 628.00 1186.00 L 560.00 1322.00 L 558.00 1324.00 L 622.00 1192.00 L 622.00 1187.00 L 558.00 1309.00 L 556.00 1312.00 L 616.00 1196.00 L 617.00 1193.00 L 559.00 1303.00 L 558.00 1304.00 L 614.00 1196.00 L 614.00 1195.00 L 558.00 1301.00 L 557.00 1302.00 L 611.00 1198.00 L 612.00 1193.00 L 560.00 1287.00 L 557.00 1291.00 L 603.00 1205.00 L 605.00 1200.00 L 563.00 1276.00 L 570.00 1259.00 L 626.00 1149.00 L 640.00 1115.00 L 612.00 1157.00 L 611.00 1156.00 L 637.00 1112.00 L 635.00 1113.00 L 605.00 1159.00 L 607.00 1154.00 L 641.00 1098.00 L 637.00 1100.00 L 595.00 1160.00 L 594.00 1159.00 L 634.00 1097.00 L 633.00 1094.00 L 591.00 1150.00 L 590.00 1149.00 L 630.00 1091.00 L 648.00 1064.00 L 644.00 1068.00 L 643.00 1067.00 L 645.00 1061.00 L 639.00 1067.00 L 625.00 1085.00 L 625.00 1083.00 L 639.00 1061.00 L 638.00 1060.00 L 622.00 1080.00 L 621.00 1079.00 L 635.00 1057.00 L 634.00 1054.00 L 618.00 1070.00 L 618.00 1068.00 L 634.00 1048.00 L 635.00 1046.00 L 621.00 1062.00 L 620.00 1061.00 L 632.00 1043.00 L 634.00 1025.00 L 626.00 1007.00 L 625.00 994.00 L 631.00 986.00 L 625.00 971.00 L 607.00 949.00 L 598.00 925.00 L 598.00 899.00 L 594.00 880.00 L 586.00 868.00 L 583.00 860.00 L 585.00 856.00 L 584.00 848.00 Z" fill="black" stroke="black" stroke-width="1"/>
</svg>