<?xml version="1.0" encoding="UTF-8"?>
<svg xmlns="http://www.w3.org/2000/svg" viewBox="351.00 412.00 716.00 1093.00">
  <path d="M 411.00 918.00 L 413.00 886.00 L 404.00 860.00 L 384.00 840.00 L 391.00 813.00 L 425.00 779.00 L 442.00 744.00 L 442.00 708.00 L 437.00 683.00 L 427.00 669.00 L 427.00 667.00 L 437.00 677.00 L 437.00 673.00 L 427.00 655.00 L 428.00 653.00 L 440.00 667.00 L 440.00 664.00 L 428.00 644.00 L 428.00 639.00 L 440.00 649.00 L 441.00 645.00 L 431.00 627.00 L 432.00 625.00 L 444.00 639.00 L 445.00 637.00 L 435.00 619.00 L 435.00 616.00 L 445.00 628.00 L 447.00 624.00 L 441.00 604.00 L 443.00 600.00 L 453.00 612.00 L 455.00 609.00 L 449.00 591.00 L 451.00 588.00 L 461.00 600.00 L 463.00 597.00 L 457.00 579.00 L 458.00 577.00 L 466.00 591.00 L 467.00 590.00 L 461.00 574.00 L 462.00 573.00 L 470.00 587.00 L 471.00 586.00 L 465.00 570.00 L 466.00 568.00 L 474.00 580.00 L 475.00 579.00 L 469.00 565.00 L 470.00 564.00 L 478.00 576.00 L 479.00 575.00 L 473.00 561.00 L 474.00 560.00 L 482.00 572.00 L 483.00 571.00 L 477.00 557.00 L 478.00 556.00 L 486.00 568.00 L 488.00 567.00 L 484.00 553.00 L 485.00 552.00 L 491.00 564.00 L 492.00 563.00 L 488.00 549.00 L 491.00 538.00 L 501.00 530.00 L 538.00 515.00 L 602.00 493.00 L 665.00 480.00 L 727.00 476.00 L 763.00 464.00 L 773.00 444.00 L 776.00 444.00 L 772.00 464.00 L 775.00 461.00 L 785.00 435.00 L 788.00 435.00 L 784.00 461.00 L 788.00 461.00 L 800.00 435.00 L 803.00 435.00 L 797.00 461.00 L 799.00 461.00 L 809.00 435.00 L 818.00 422.00 L 826.00 422.00 L 846.00 433.00 L 878.00 455.00 L 904.00 465.00 L 924.00 463.00 L 940.00 475.00 L 952.00 501.00 L 977.00 535.00 L 1015.00 577.00 L 1041.00 621.00 L 1055.00 667.00 L 1057.00 703.00 L 1047.00 729.00 L 1045.00 752.00 L 1051.00 772.00 L 1050.00 797.00 L 1042.00 827.00 L 1032.00 849.00 L 1020.00 863.00 L 1000.00 873.00 L 972.00 879.00 L 971.00 880.00 L 997.00 876.00 L 996.00 877.00 L 968.00 883.00 L 963.00 885.00 L 981.00 883.00 L 980.00 884.00 L 960.00 888.00 L 958.00 889.00 L 974.00 887.00 L 972.00 889.00 L 952.00 895.00 L 922.00 917.00 L 882.00 955.00 L 858.00 1006.00 L 850.00 1070.00 L 856.00 1149.00 L 876.00 1243.00 L 844.00 1299.00 L 760.00 1317.00 L 673.00 1348.00 L 583.00 1392.00 L 550.00 1359.00 L 574.00 1249.00 L 571.00 1251.00 L 541.00 1365.00 L 541.00 1363.00 L 571.00 1245.00 L 569.00 1246.00 L 535.00 1366.00 L 535.00 1361.00 L 569.00 1231.00 L 567.00 1233.00 L 529.00 1367.00 L 529.00 1364.00 L 567.00 1224.00 L 563.00 1227.00 L 517.00 1373.00 L 517.00 1369.00 L 563.00 1215.00 L 558.00 1218.00 L 502.00 1378.00 L 502.00 1375.00 L 558.00 1209.00 L 554.00 1212.00 L 490.00 1384.00 L 490.00 1381.00 L 554.00 1203.00 L 552.00 1204.00 L 484.00 1384.00 L 464.00 1436.00 L 492.00 1360.00 L 487.00 1364.00 L 449.00 1448.00 L 468.00 1394.00 L 544.00 1202.00 L 538.00 1206.00 L 450.00 1406.00 L 450.00 1403.00 L 538.00 1197.00 L 536.00 1198.00 L 444.00 1406.00 L 414.00 1472.00 L 446.00 1396.00 L 440.00 1401.00 L 396.00 1487.00 L 425.00 1420.00 L 527.00 1200.00 L 523.00 1202.00 L 413.00 1426.00 L 413.00 1424.00 L 523.00 1196.00 L 521.00 1195.00 L 407.00 1421.00 L 369.00 1495.00 L 407.00 1417.00 L 407.00 1415.00 L 369.00 1489.00 L 367.00 1490.00 L 401.00 1418.00 L 401.00 1413.00 L 367.00 1475.00 L 364.00 1476.00 L 392.00 1416.00 L 391.00 1409.00 L 361.00 1455.00 L 403.00 1376.00 L 517.00 1172.00 L 517.00 1170.00 L 403.00 1370.00 L 402.00 1369.00 L 514.00 1167.00 L 563.00 1060.00 L 549.00 1048.00 L 526.00 1043.00 L 494.00 1045.00 L 465.00 1041.00 L 439.00 1031.00 L 422.00 1019.00 L 414.00 1005.00 L 411.00 984.00 L 413.00 956.00 L 413.00 940.00 L 411.00 936.00 L 411.00 918.00 Z" fill="black" stroke="black" stroke-width="1"/>
</svg>