<?xml version="1.0" encoding="UTF-8"?>
<svg xmlns="http://www.w3.org/2000/svg" viewBox="456.00 480.00 783.00 1050.00">
  <path d="M 569.00 1021.00 L 567.00 1011.00 L 573.00 991.00 L 587.00 961.00 L 583.00 942.00 L 561.00 934.00 L 556.00 931.00 L 568.00 933.00 L 566.00 931.00 L 550.00 925.00 L 554.00 926.00 L 578.00 934.00 L 577.00 933.00 L 551.00 923.00 L 548.00 921.00 L 568.00 927.00 L 568.00 926.00 L 548.00 918.00 L 548.00 917.00 L 568.00 923.00 L 568.00 921.00 L 548.00 911.00 L 540.00 901.00 L 544.00 891.00 L 550.00 884.00 L 558.00 880.00 L 561.00 877.00 L 559.00 875.00 L 568.00 852.00 L 588.00 808.00 L 599.00 782.00 L 601.00 774.00 L 600.00 761.00 L 596.00 743.00 L 604.00 709.00 L 624.00 659.00 L 641.00 622.00 L 655.00 598.00 L 662.00 582.00 L 662.00 574.00 L 663.00 572.00 L 665.00 576.00 L 665.00 568.00 L 663.00 548.00 L 664.00 542.00 L 668.00 550.00 L 669.00 548.00 L 667.00 536.00 L 669.00 527.00 L 675.00 521.00 L 678.00 512.00 L 678.00 500.00 L 689.00 497.00 L 711.00 503.00 L 731.00 506.00 L 749.00 506.00 L 773.00 502.00 L 803.00 494.00 L 826.00 490.00 L 842.00 490.00 L 872.00 493.00 L 916.00 499.00 L 949.00 506.00 L 971.00 514.00 L 994.00 515.00 L 1018.00 509.00 L 1040.00 508.00 L 1060.00 512.00 L 1083.00 523.00 L 1109.00 541.00 L 1144.00 579.00 L 1188.00 637.00 L 1214.00 675.00 L 1222.00 693.00 L 1227.00 710.00 L 1229.00 726.00 L 1228.00 755.00 L 1224.00 797.00 L 1208.00 839.00 L 1180.00 881.00 L 1152.00 916.00 L 1124.00 944.00 L 1108.00 964.00 L 1104.00 976.00 L 1103.00 986.00 L 1105.00 994.00 L 1112.00 1005.00 L 1124.00 1019.00 L 1125.00 1030.00 L 1115.00 1038.00 L 1104.00 1042.00 L 1092.00 1042.00 L 1090.00 1043.00 L 1098.00 1045.00 L 1092.00 1046.00 L 1072.00 1046.00 L 1071.00 1047.00 L 1089.00 1049.00 L 1081.00 1049.00 L 1047.00 1047.00 L 1042.00 1048.00 L 1066.00 1052.00 L 1066.00 1053.00 L 1042.00 1051.00 L 1036.00 1051.00 L 1048.00 1053.00 L 1048.00 1056.00 L 1036.00 1060.00 L 1029.00 1066.00 L 1027.00 1074.00 L 1030.00 1091.00 L 1038.00 1117.00 L 1046.00 1133.00 L 1054.00 1139.00 L 1055.00 1141.00 L 1049.00 1139.00 L 1055.00 1146.00 L 1073.00 1162.00 L 1079.00 1169.00 L 1073.00 1167.00 L 1074.00 1169.00 L 1082.00 1175.00 L 1102.00 1206.00 L 1134.00 1262.00 L 1155.00 1317.00 L 1165.00 1371.00 L 1169.00 1401.00 L 1167.00 1407.00 L 1140.00 1404.00 L 1088.00 1392.00 L 1016.00 1385.00 L 924.00 1383.00 L 831.00 1393.00 L 737.00 1415.00 L 670.00 1433.00 L 630.00 1447.00 L 593.00 1463.00 L 559.00 1481.00 L 586.00 1422.00 L 674.00 1286.00 L 670.00 1288.00 L 574.00 1428.00 L 575.00 1425.00 L 673.00 1279.00 L 671.00 1280.00 L 569.00 1428.00 L 574.00 1420.00 L 686.00 1256.00 L 683.00 1258.00 L 565.00 1426.00 L 566.00 1424.00 L 686.00 1252.00 L 684.00 1253.00 L 560.00 1427.00 L 495.00 1516.00 L 489.00 1520.00 L 537.00 1451.00 L 639.00 1309.00 L 637.00 1310.00 L 531.00 1454.00 L 519.00 1469.00 L 601.00 1355.00 L 600.00 1354.00 L 516.00 1466.00 L 525.00 1453.00 L 627.00 1315.00 L 626.00 1314.00 L 522.00 1450.00 L 520.00 1452.00 L 620.00 1320.00 L 619.00 1319.00 L 517.00 1449.00 L 466.00 1512.00 L 466.00 1508.00 L 533.00 1421.00 L 667.00 1251.00 L 666.00 1250.00 L 530.00 1418.00 L 497.00 1457.00 L 567.00 1367.00 L 567.00 1364.00 L 497.00 1448.00 L 495.00 1449.00 L 561.00 1367.00 L 562.00 1364.00 L 498.00 1440.00 L 496.00 1442.00 L 556.00 1370.00 L 557.00 1368.00 L 499.00 1436.00 L 497.00 1437.00 L 551.00 1371.00 L 552.00 1368.00 L 500.00 1428.00 L 497.00 1431.00 L 543.00 1377.00 L 544.00 1375.00 L 500.00 1425.00 L 492.00 1433.00 L 520.00 1399.00 L 523.00 1394.00 L 501.00 1418.00 L 548.00 1364.00 L 664.00 1232.00 L 663.00 1233.00 L 545.00 1367.00 L 542.00 1367.00 L 654.00 1233.00 L 702.00 1163.00 L 686.00 1157.00 L 672.00 1148.00 L 660.00 1136.00 L 641.00 1131.00 L 615.00 1133.00 L 595.00 1126.00 L 581.00 1110.00 L 574.00 1084.00 L 574.00 1048.00 L 573.00 1029.00 L 571.00 1027.00 L 569.00 1021.00 Z" fill="black" stroke="black" stroke-width="1"/>
</svg>