<?xml version="1.0" encoding="UTF-8"?>
<svg xmlns="http://www.w3.org/2000/svg" viewBox="389.00 295.00 791.00 1259.00">
  <path d="M 536.00 875.00 L 540.00 813.00 L 537.00 777.00 L 527.00 767.00 L 527.00 765.00 L 537.00 771.00 L 532.00 765.00 L 512.00 747.00 L 520.00 716.00 L 556.00 672.00 L 570.00 642.00 L 562.00 626.00 L 563.00 624.00 L 573.00 636.00 L 571.00 625.00 L 557.00 591.00 L 557.00 585.00 L 571.00 607.00 L 572.00 605.00 L 560.00 579.00 L 560.00 574.00 L 572.00 590.00 L 573.00 588.00 L 563.00 568.00 L 564.00 566.00 L 576.00 582.00 L 577.00 581.00 L 567.00 563.00 L 568.00 561.00 L 580.00 575.00 L 582.00 573.00 L 574.00 555.00 L 575.00 553.00 L 585.00 567.00 L 586.00 566.00 L 578.00 550.00 L 579.00 548.00 L 589.00 560.00 L 592.00 554.00 L 588.00 530.00 L 590.00 525.00 L 598.00 539.00 L 598.00 534.00 L 590.00 510.00 L 591.00 507.00 L 601.00 525.00 L 602.00 523.00 L 594.00 501.00 L 595.00 500.00 L 605.00 520.00 L 606.00 517.00 L 598.00 491.00 L 599.00 487.00 L 609.00 505.00 L 612.00 502.00 L 608.00 478.00 L 609.00 463.00 L 615.00 457.00 L 624.00 452.00 L 636.00 448.00 L 657.00 432.00 L 687.00 404.00 L 713.00 387.00 L 735.00 381.00 L 752.00 370.00 L 764.00 354.00 L 788.00 349.00 L 824.00 355.00 L 858.00 347.00 L 890.00 325.00 L 916.00 311.00 L 936.00 305.00 L 969.00 305.00 L 1015.00 311.00 L 1059.00 330.00 L 1101.00 362.00 L 1135.00 410.00 L 1161.00 474.00 L 1170.00 545.00 L 1162.00 623.00 L 1149.00 688.00 L 1131.00 740.00 L 1109.00 786.00 L 1083.00 826.00 L 1057.00 858.00 L 1031.00 882.00 L 1003.00 901.00 L 973.00 915.00 L 960.00 943.00 L 964.00 985.00 L 984.00 1041.00 L 1020.00 1111.00 L 1043.00 1165.00 L 1053.00 1203.00 L 1027.00 1230.00 L 965.00 1246.00 L 914.00 1264.00 L 874.00 1284.00 L 789.00 1336.00 L 659.00 1420.00 L 617.00 1382.00 L 663.00 1222.00 L 659.00 1225.00 L 605.00 1391.00 L 606.00 1385.00 L 662.00 1207.00 L 659.00 1209.00 L 597.00 1391.00 L 597.00 1388.00 L 659.00 1200.00 L 655.00 1202.00 L 585.00 1394.00 L 585.00 1392.00 L 655.00 1196.00 L 652.00 1199.00 L 576.00 1401.00 L 576.00 1399.00 L 652.00 1193.00 L 650.00 1194.00 L 570.00 1402.00 L 552.00 1447.00 L 596.00 1329.00 L 593.00 1331.00 L 543.00 1453.00 L 561.00 1405.00 L 647.00 1187.00 L 646.00 1188.00 L 558.00 1408.00 L 536.00 1460.00 L 580.00 1344.00 L 577.00 1346.00 L 527.00 1466.00 L 549.00 1412.00 L 643.00 1184.00 L 641.00 1186.00 L 543.00 1418.00 L 519.00 1474.00 L 569.00 1354.00 L 567.00 1355.00 L 513.00 1477.00 L 483.00 1540.00 L 477.00 1544.00 L 500.00 1486.00 L 552.00 1366.00 L 548.00 1370.00 L 488.00 1498.00 L 515.00 1437.00 L 629.00 1187.00 L 626.00 1189.00 L 506.00 1443.00 L 475.00 1507.00 L 533.00 1381.00 L 530.00 1382.00 L 466.00 1510.00 L 497.00 1444.00 L 623.00 1184.00 L 622.00 1183.00 L 494.00 1441.00 L 494.00 1439.00 L 622.00 1177.00 L 619.00 1174.00 L 485.00 1430.00 L 485.00 1429.00 L 619.00 1171.00 L 617.00 1168.00 L 479.00 1420.00 L 437.00 1495.00 L 491.00 1393.00 L 490.00 1391.00 L 434.00 1489.00 L 431.00 1491.00 L 481.00 1397.00 L 480.00 1395.00 L 428.00 1485.00 L 427.00 1486.00 L 477.00 1398.00 L 476.00 1396.00 L 424.00 1480.00 L 421.00 1482.00 L 467.00 1402.00 L 466.00 1400.00 L 418.00 1476.00 L 416.00 1477.00 L 460.00 1403.00 L 460.00 1402.00 L 416.00 1474.00 L 414.00 1475.00 L 454.00 1405.00 L 453.00 1403.00 L 411.00 1469.00 L 463.00 1384.00 L 609.00 1148.00 L 609.00 1146.00 L 463.00 1378.00 L 407.00 1465.00 L 441.00 1407.00 L 441.00 1403.00 L 407.00 1453.00 L 404.00 1456.00 L 432.00 1412.00 L 432.00 1411.00 L 404.00 1453.00 L 402.00 1455.00 L 426.00 1417.00 L 426.00 1415.00 L 402.00 1449.00 L 400.00 1450.00 L 420.00 1418.00 L 421.00 1414.00 L 403.00 1438.00 L 399.00 1442.00 L 409.00 1426.00 L 410.00 1423.00 L 402.00 1433.00 L 468.00 1334.00 L 608.00 1126.00 L 670.00 1011.00 L 654.00 989.00 L 618.00 962.00 L 562.00 930.00 L 534.00 912.00 L 534.00 908.00 L 536.00 875.00 Z" fill="black" stroke="black" stroke-width="1"/>
</svg>