<?xml version="1.0" encoding="UTF-8"?>
<svg xmlns="http://www.w3.org/2000/svg" viewBox="437.00 272.00 812.00 1398.00">
  <path d="M 513.00 900.00 L 519.00 888.00 L 517.00 876.00 L 507.00 864.00 L 506.00 850.00 L 514.00 834.00 L 506.00 820.00 L 482.00 808.00 L 476.00 804.00 L 488.00 808.00 L 486.00 806.00 L 470.00 798.00 L 474.00 798.00 L 498.00 806.00 L 497.00 804.00 L 471.00 792.00 L 458.00 782.00 L 458.00 774.00 L 478.00 738.00 L 518.00 674.00 L 537.00 627.00 L 535.00 597.00 L 529.00 574.00 L 519.00 558.00 L 519.00 555.00 L 529.00 565.00 L 529.00 561.00 L 519.00 543.00 L 520.00 540.00 L 532.00 552.00 L 534.00 549.00 L 526.00 531.00 L 527.00 526.00 L 537.00 534.00 L 540.00 528.00 L 536.00 508.00 L 538.00 503.00 L 546.00 513.00 L 545.00 495.00 L 535.00 449.00 L 534.00 433.00 L 542.00 447.00 L 540.00 433.00 L 528.00 391.00 L 526.00 377.00 L 534.00 391.00 L 533.00 385.00 L 523.00 359.00 L 519.00 348.00 L 521.00 352.00 L 522.00 345.00 L 522.00 327.00 L 525.00 321.00 L 531.00 327.00 L 532.00 324.00 L 528.00 312.00 L 528.00 302.00 L 532.00 294.00 L 542.00 290.00 L 558.00 290.00 L 573.00 297.00 L 587.00 311.00 L 616.00 327.00 L 660.00 345.00 L 724.00 340.00 L 808.00 312.00 L 886.00 293.00 L 958.00 283.00 L 1009.00 282.00 L 1039.00 290.00 L 1073.00 312.00 L 1111.00 348.00 L 1146.00 398.00 L 1178.00 462.00 L 1203.00 529.00 L 1221.00 599.00 L 1233.00 662.00 L 1239.00 718.00 L 1237.00 766.00 L 1227.00 806.00 L 1209.00 840.00 L 1183.00 868.00 L 1158.00 887.00 L 1134.00 897.00 L 1100.00 903.00 L 1056.00 905.00 L 1053.00 906.00 L 1091.00 906.00 L 1089.00 907.00 L 1047.00 909.00 L 1042.00 910.00 L 1074.00 910.00 L 1073.00 913.00 L 1039.00 919.00 L 1027.00 935.00 L 1037.00 961.00 L 1036.00 974.00 L 1024.00 974.00 L 1021.00 975.00 L 1027.00 977.00 L 1025.00 979.00 L 1015.00 981.00 L 1010.00 985.00 L 1010.00 991.00 L 1017.00 1004.00 L 1031.00 1024.00 L 1026.00 1029.00 L 1002.00 1019.00 L 1003.00 1022.00 L 1029.00 1038.00 L 1028.00 1039.00 L 1000.00 1025.00 L 999.00 1027.00 L 1025.00 1045.00 L 1025.00 1048.00 L 999.00 1036.00 L 992.00 1048.00 L 1004.00 1084.00 L 1031.00 1129.00 L 1073.00 1183.00 L 1083.00 1200.00 L 1061.00 1180.00 L 1063.00 1184.00 L 1089.00 1212.00 L 1022.00 1270.00 L 862.00 1358.00 L 743.00 1436.00 L 665.00 1504.00 L 596.00 1569.00 L 536.00 1631.00 L 556.00 1523.00 L 656.00 1245.00 L 653.00 1247.00 L 547.00 1529.00 L 547.00 1528.00 L 653.00 1244.00 L 651.00 1242.00 L 541.00 1522.00 L 484.00 1660.00 L 480.00 1656.00 L 532.00 1520.00 L 640.00 1252.00 L 638.00 1250.00 L 526.00 1514.00 L 528.00 1507.00 L 644.00 1229.00 L 643.00 1228.00 L 525.00 1504.00 L 525.00 1502.00 L 643.00 1222.00 L 641.00 1217.00 L 519.00 1487.00 L 512.00 1500.00 L 620.00 1256.00 L 618.00 1253.00 L 506.00 1491.00 L 450.00 1605.00 L 450.00 1595.00 L 512.00 1461.00 L 636.00 1203.00 L 635.00 1201.00 L 509.00 1455.00 L 447.00 1574.00 L 449.00 1558.00 L 500.00 1452.00 L 600.00 1256.00 L 600.00 1253.00 L 500.00 1443.00 L 449.00 1535.00 L 447.00 1529.00 L 494.00 1437.00 L 590.00 1259.00 L 589.00 1257.00 L 491.00 1431.00 L 505.00 1404.00 L 631.00 1176.00 L 630.00 1174.00 L 502.00 1398.00 L 479.00 1436.00 L 561.00 1288.00 L 560.00 1286.00 L 476.00 1430.00 L 474.00 1432.00 L 554.00 1292.00 L 554.00 1289.00 L 474.00 1423.00 L 472.00 1425.00 L 548.00 1295.00 L 548.00 1291.00 L 472.00 1413.00 L 470.00 1414.00 L 542.00 1294.00 L 542.00 1291.00 L 470.00 1405.00 L 468.00 1407.00 L 536.00 1297.00 L 538.00 1293.00 L 474.00 1395.00 L 472.00 1398.00 L 532.00 1302.00 L 533.00 1299.00 L 475.00 1389.00 L 470.00 1396.00 L 518.00 1320.00 L 523.00 1310.00 L 485.00 1366.00 L 521.00 1309.00 L 631.00 1139.00 L 630.00 1140.00 L 518.00 1312.00 L 517.00 1310.00 L 627.00 1134.00 L 652.00 1046.00 L 592.00 1046.00 L 556.00 1042.00 L 544.00 1034.00 L 535.00 1024.00 L 529.00 1012.00 L 528.00 992.00 L 532.00 964.00 L 530.00 942.00 L 522.00 926.00 L 516.00 915.00 L 512.00 909.00 L 513.00 900.00 Z" fill="black" stroke="black" stroke-width="1"/>
</svg>