<?xml version="1.0" encoding="UTF-8"?>
<svg xmlns="http://www.w3.org/2000/svg" viewBox="404.00 376.00 840.00 1238.00">
  <path d="M 491.00 994.00 L 485.00 986.00 L 487.00 976.00 L 497.00 964.00 L 497.00 952.00 L 487.00 940.00 L 487.00 923.00 L 497.00 901.00 L 492.00 882.00 L 472.00 866.00 L 462.00 852.00 L 462.00 840.00 L 481.00 812.00 L 519.00 768.00 L 528.00 733.00 L 508.00 707.00 L 507.00 703.00 L 525.00 721.00 L 525.00 718.00 L 507.00 694.00 L 505.00 688.00 L 519.00 700.00 L 519.00 698.00 L 505.00 682.00 L 505.00 680.00 L 519.00 692.00 L 520.00 687.00 L 508.00 665.00 L 509.00 659.00 L 523.00 669.00 L 526.00 666.00 L 518.00 650.00 L 519.00 647.00 L 529.00 657.00 L 532.00 648.00 L 528.00 620.00 L 537.00 592.00 L 559.00 564.00 L 569.00 543.00 L 567.00 529.00 L 569.00 528.00 L 575.00 540.00 L 575.00 534.00 L 569.00 510.00 L 571.00 508.00 L 581.00 528.00 L 583.00 527.00 L 577.00 505.00 L 579.00 502.00 L 589.00 518.00 L 591.00 517.00 L 585.00 499.00 L 586.00 490.00 L 594.00 490.00 L 597.00 485.00 L 595.00 475.00 L 597.00 476.00 L 603.00 488.00 L 604.00 485.00 L 600.00 467.00 L 602.00 467.00 L 610.00 485.00 L 614.00 484.00 L 614.00 464.00 L 618.00 455.00 L 626.00 457.00 L 631.00 454.00 L 633.00 446.00 L 636.00 448.00 L 640.00 460.00 L 640.00 458.00 L 636.00 442.00 L 639.00 444.00 L 649.00 464.00 L 652.00 461.00 L 648.00 435.00 L 652.00 422.00 L 664.00 422.00 L 673.00 432.00 L 679.00 452.00 L 681.00 454.00 L 679.00 438.00 L 680.00 437.00 L 684.00 451.00 L 685.00 453.00 L 683.00 443.00 L 683.00 442.00 L 685.00 450.00 L 695.00 453.00 L 713.00 451.00 L 754.00 437.00 L 818.00 411.00 L 884.00 394.00 L 952.00 386.00 L 1020.00 397.00 L 1088.00 427.00 L 1135.00 454.00 L 1161.00 478.00 L 1189.00 527.00 L 1219.00 601.00 L 1234.00 686.00 L 1234.00 782.00 L 1225.00 845.00 L 1207.00 875.00 L 1197.00 902.00 L 1195.00 926.00 L 1183.00 954.00 L 1161.00 986.00 L 1129.00 1005.00 L 1087.00 1011.00 L 1082.00 1015.00 L 1114.00 1017.00 L 1112.00 1019.00 L 1076.00 1021.00 L 1070.00 1023.00 L 1094.00 1025.00 L 1094.00 1027.00 L 1070.00 1029.00 L 1055.00 1040.00 L 1049.00 1060.00 L 1032.00 1068.00 L 1004.00 1064.00 L 995.00 1065.00 L 1005.00 1071.00 L 1003.00 1076.00 L 989.00 1080.00 L 983.00 1104.00 L 985.00 1148.00 L 998.00 1181.00 L 1022.00 1203.00 L 1023.00 1205.00 L 1001.00 1187.00 L 1002.00 1190.00 L 1026.00 1214.00 L 1030.00 1220.00 L 1014.00 1208.00 L 1022.00 1228.00 L 1054.00 1280.00 L 1064.00 1300.00 L 1052.00 1288.00 L 1053.00 1292.00 L 1067.00 1312.00 L 1084.00 1360.00 L 1104.00 1436.00 L 1093.00 1468.00 L 1051.00 1456.00 L 993.00 1453.00 L 919.00 1459.00 L 836.00 1479.00 L 744.00 1513.00 L 661.00 1550.00 L 587.00 1590.00 L 582.00 1529.00 L 646.00 1367.00 L 644.00 1369.00 L 576.00 1535.00 L 579.00 1527.00 L 653.00 1345.00 L 650.00 1347.00 L 570.00 1533.00 L 571.00 1529.00 L 653.00 1335.00 L 651.00 1336.00 L 565.00 1532.00 L 565.00 1530.00 L 651.00 1330.00 L 648.00 1332.00 L 556.00 1536.00 L 556.00 1534.00 L 648.00 1326.00 L 643.00 1329.00 L 541.00 1543.00 L 541.00 1541.00 L 643.00 1323.00 L 641.00 1324.00 L 535.00 1544.00 L 536.00 1541.00 L 644.00 1315.00 L 642.00 1316.00 L 530.00 1544.00 L 508.00 1586.00 L 576.00 1442.00 L 569.00 1448.00 L 487.00 1604.00 L 508.00 1560.00 L 632.00 1316.00 L 629.00 1315.00 L 499.00 1557.00 L 499.00 1555.00 L 629.00 1309.00 L 626.00 1307.00 L 490.00 1549.00 L 490.00 1547.00 L 626.00 1301.00 L 624.00 1298.00 L 484.00 1538.00 L 484.00 1537.00 L 624.00 1295.00 L 623.00 1293.00 L 481.00 1531.00 L 442.00 1595.00 L 506.00 1485.00 L 505.00 1484.00 L 439.00 1592.00 L 437.00 1594.00 L 499.00 1490.00 L 497.00 1486.00 L 431.00 1582.00 L 471.00 1514.00 L 617.00 1282.00 L 617.00 1280.00 L 471.00 1508.00 L 423.00 1582.00 L 473.00 1502.00 L 473.00 1499.00 L 423.00 1573.00 L 417.00 1578.00 L 455.00 1514.00 L 455.00 1510.00 L 417.00 1566.00 L 414.00 1569.00 L 446.00 1519.00 L 448.00 1514.00 L 420.00 1554.00 L 417.00 1557.00 L 439.00 1523.00 L 440.00 1520.00 L 420.00 1548.00 L 479.00 1461.00 L 617.00 1259.00 L 679.00 1150.00 L 665.00 1134.00 L 625.00 1119.00 L 559.00 1105.00 L 520.00 1091.00 L 508.00 1077.00 L 502.00 1055.00 L 502.00 1025.00 L 500.00 1007.00 L 496.00 1001.00 L 491.00 994.00 Z" fill="black" stroke="black" stroke-width="1"/>
</svg>