<?xml version="1.0" encoding="UTF-8"?>
<svg xmlns="http://www.w3.org/2000/svg" viewBox="425.00 388.00 781.00 1208.00">
  <path d="M 479.00 971.00 L 473.00 949.00 L 462.00 932.00 L 446.00 920.00 L 437.00 908.00 L 435.00 896.00 L 451.00 865.00 L 485.00 815.00 L 502.00 778.00 L 502.00 754.00 L 495.00 734.00 L 481.00 718.00 L 481.00 715.00 L 495.00 725.00 L 496.00 724.00 L 484.00 712.00 L 484.00 710.00 L 496.00 718.00 L 497.00 716.00 L 487.00 704.00 L 487.00 701.00 L 497.00 707.00 L 497.00 705.00 L 487.00 695.00 L 487.00 693.00 L 497.00 699.00 L 499.00 696.00 L 493.00 684.00 L 494.00 682.00 L 502.00 690.00 L 502.00 681.00 L 494.00 655.00 L 495.00 647.00 L 505.00 657.00 L 505.00 655.00 L 495.00 641.00 L 496.00 639.00 L 508.00 649.00 L 509.00 646.00 L 499.00 630.00 L 500.00 627.00 L 512.00 637.00 L 513.00 634.00 L 503.00 618.00 L 504.00 617.00 L 516.00 631.00 L 517.00 630.00 L 507.00 614.00 L 508.00 612.00 L 520.00 624.00 L 521.00 621.00 L 511.00 603.00 L 512.00 601.00 L 524.00 615.00 L 525.00 614.00 L 515.00 598.00 L 516.00 596.00 L 528.00 608.00 L 530.00 605.00 L 522.00 587.00 L 523.00 585.00 L 533.00 599.00 L 534.00 598.00 L 526.00 582.00 L 527.00 579.00 L 537.00 589.00 L 538.00 587.00 L 530.00 573.00 L 531.00 571.00 L 541.00 581.00 L 543.00 579.00 L 537.00 565.00 L 538.00 564.00 L 546.00 576.00 L 548.00 574.00 L 544.00 558.00 L 552.00 538.00 L 572.00 514.00 L 611.00 484.00 L 669.00 448.00 L 732.00 421.00 L 800.00 403.00 L 876.00 398.00 L 960.00 406.00 L 1023.00 420.00 L 1065.00 440.00 L 1097.00 461.00 L 1119.00 483.00 L 1145.00 527.00 L 1175.00 593.00 L 1192.00 641.00 L 1196.00 671.00 L 1196.00 711.00 L 1192.00 761.00 L 1178.00 811.00 L 1154.00 861.00 L 1118.00 917.00 L 1070.00 979.00 L 1041.00 1029.00 L 1031.00 1067.00 L 1017.00 1083.00 L 999.00 1077.00 L 999.00 1079.00 L 1017.00 1089.00 L 1017.00 1092.00 L 999.00 1088.00 L 998.00 1090.00 L 1014.00 1098.00 L 1013.00 1100.00 L 995.00 1096.00 L 986.00 1128.00 L 986.00 1196.00 L 996.00 1244.00 L 1016.00 1272.00 L 1018.00 1278.00 L 1002.00 1262.00 L 1002.00 1264.00 L 1018.00 1284.00 L 1017.00 1283.00 L 999.00 1261.00 L 999.00 1264.00 L 1017.00 1292.00 L 1028.00 1315.00 L 1032.00 1333.00 L 1031.00 1338.00 L 1025.00 1330.00 L 1031.00 1348.00 L 1049.00 1392.00 L 1056.00 1417.00 L 1052.00 1423.00 L 1030.00 1423.00 L 990.00 1417.00 L 938.00 1423.00 L 874.00 1441.00 L 818.00 1463.00 L 770.00 1489.00 L 723.00 1519.00 L 677.00 1553.00 L 667.00 1502.00 L 693.00 1366.00 L 691.00 1368.00 L 661.00 1508.00 L 661.00 1504.00 L 691.00 1356.00 L 689.00 1358.00 L 655.00 1510.00 L 655.00 1507.00 L 689.00 1349.00 L 687.00 1351.00 L 649.00 1513.00 L 649.00 1512.00 L 687.00 1348.00 L 686.00 1349.00 L 646.00 1515.00 L 646.00 1513.00 L 686.00 1343.00 L 684.00 1344.00 L 640.00 1516.00 L 640.00 1514.00 L 684.00 1338.00 L 683.00 1339.00 L 637.00 1517.00 L 637.00 1515.00 L 683.00 1333.00 L 682.00 1334.00 L 634.00 1518.00 L 625.00 1551.00 L 655.00 1433.00 L 652.00 1435.00 L 616.00 1557.00 L 624.00 1523.00 L 676.00 1333.00 L 674.00 1335.00 L 618.00 1529.00 L 618.00 1527.00 L 674.00 1329.00 L 673.00 1330.00 L 615.00 1530.00 L 615.00 1528.00 L 673.00 1324.00 L 671.00 1326.00 L 609.00 1534.00 L 595.00 1578.00 L 629.00 1458.00 L 626.00 1460.00 L 586.00 1584.00 L 584.00 1586.00 L 620.00 1466.00 L 618.00 1464.00 L 578.00 1580.00 L 593.00 1531.00 L 663.00 1317.00 L 662.00 1316.00 L 590.00 1528.00 L 572.00 1580.00 L 608.00 1472.00 L 607.00 1471.00 L 569.00 1577.00 L 567.00 1579.00 L 601.00 1477.00 L 600.00 1475.00 L 564.00 1573.00 L 562.00 1575.00 L 594.00 1481.00 L 593.00 1479.00 L 559.00 1569.00 L 580.00 1510.00 L 656.00 1302.00 L 655.00 1300.00 L 577.00 1504.00 L 551.00 1568.00 L 577.00 1492.00 L 576.00 1488.00 L 548.00 1556.00 L 546.00 1558.00 L 570.00 1494.00 L 570.00 1492.00 L 546.00 1552.00 L 534.00 1580.00 L 534.00 1576.00 L 573.00 1477.00 L 651.00 1283.00 L 651.00 1281.00 L 573.00 1471.00 L 572.00 1469.00 L 648.00 1275.00 L 683.00 1171.00 L 677.00 1157.00 L 656.00 1152.00 L 620.00 1156.00 L 587.00 1154.00 L 557.00 1146.00 L 526.00 1104.00 L 494.00 1028.00 L 479.00 988.00 L 481.00 984.00 L 479.00 971.00 Z" fill="black" stroke="black" stroke-width="1"/>
</svg>