<?xml version="1.0" encoding="UTF-8"?>
<svg xmlns="http://www.w3.org/2000/svg" viewBox="412.00 342.00 832.00 1358.00">
  <path d="M 506.00 992.00 L 498.00 980.00 L 497.00 968.00 L 503.00 956.00 L 504.00 943.00 L 500.00 929.00 L 501.00 914.00 L 507.00 898.00 L 502.00 883.00 L 486.00 869.00 L 487.00 866.00 L 505.00 874.00 L 499.00 869.00 L 469.00 851.00 L 470.00 849.00 L 502.00 863.00 L 501.00 860.00 L 467.00 840.00 L 473.00 802.00 L 519.00 746.00 L 541.00 698.00 L 539.00 658.00 L 545.00 623.00 L 559.00 593.00 L 567.00 573.00 L 569.00 563.00 L 568.00 552.00 L 564.00 540.00 L 565.00 538.00 L 571.00 546.00 L 572.00 544.00 L 568.00 532.00 L 569.00 530.00 L 575.00 538.00 L 578.00 534.00 L 578.00 518.00 L 580.00 514.00 L 584.00 522.00 L 588.00 522.00 L 592.00 514.00 L 593.00 507.00 L 591.00 501.00 L 592.00 500.00 L 596.00 504.00 L 598.00 501.00 L 598.00 491.00 L 600.00 488.00 L 604.00 492.00 L 605.00 490.00 L 603.00 482.00 L 604.00 481.00 L 608.00 487.00 L 610.00 484.00 L 610.00 472.00 L 612.00 469.00 L 616.00 475.00 L 617.00 473.00 L 615.00 463.00 L 621.00 450.00 L 635.00 434.00 L 664.00 412.00 L 708.00 384.00 L 762.00 365.00 L 826.00 355.00 L 869.00 352.00 L 891.00 356.00 L 913.00 357.00 L 935.00 355.00 L 969.00 358.00 L 1015.00 366.00 L 1061.00 382.00 L 1107.00 406.00 L 1136.00 424.00 L 1148.00 436.00 L 1166.00 459.00 L 1190.00 493.00 L 1210.00 533.00 L 1226.00 579.00 L 1234.00 627.00 L 1234.00 677.00 L 1229.00 720.00 L 1219.00 756.00 L 1201.00 801.00 L 1175.00 855.00 L 1157.00 901.00 L 1147.00 939.00 L 1134.00 961.00 L 1118.00 967.00 L 1116.00 970.00 L 1128.00 970.00 L 1128.00 973.00 L 1116.00 979.00 L 1116.00 987.00 L 1128.00 997.00 L 1137.00 1015.00 L 1143.00 1041.00 L 1148.00 1082.00 L 1152.00 1138.00 L 1151.00 1170.00 L 1145.00 1178.00 L 1151.00 1212.00 L 1169.00 1272.00 L 1182.00 1329.00 L 1190.00 1383.00 L 1193.00 1418.00 L 1191.00 1434.00 L 1178.00 1438.00 L 1154.00 1430.00 L 1110.00 1425.00 L 1046.00 1423.00 L 978.00 1429.00 L 906.00 1443.00 L 841.00 1463.00 L 783.00 1489.00 L 731.00 1516.00 L 685.00 1544.00 L 650.00 1566.00 L 626.00 1582.00 L 591.00 1612.00 L 545.00 1656.00 L 516.00 1681.00 L 504.00 1687.00 L 491.00 1690.00 L 477.00 1690.00 L 464.00 1687.00 L 452.00 1681.00 L 440.00 1672.00 L 428.00 1660.00 L 422.00 1636.00 L 422.00 1600.00 L 430.00 1563.00 L 446.00 1525.00 L 453.00 1507.00 L 451.00 1509.00 L 464.00 1489.00 L 492.00 1447.00 L 494.00 1443.00 L 470.00 1477.00 L 485.00 1451.00 L 539.00 1365.00 L 553.00 1340.00 L 527.00 1376.00 L 525.00 1378.00 L 547.00 1346.00 L 549.00 1342.00 L 531.00 1366.00 L 533.00 1361.00 L 555.00 1327.00 L 567.00 1307.00 L 569.00 1301.00 L 568.00 1298.00 L 564.00 1298.00 L 567.00 1290.00 L 577.00 1274.00 L 574.00 1274.00 L 558.00 1290.00 L 557.00 1289.00 L 571.00 1271.00 L 572.00 1269.00 L 560.00 1283.00 L 563.00 1279.00 L 581.00 1257.00 L 572.00 1265.00 L 536.00 1303.00 L 536.00 1301.00 L 572.00 1259.00 L 571.00 1258.00 L 533.00 1298.00 L 532.00 1297.00 L 568.00 1255.00 L 568.00 1253.00 L 532.00 1291.00 L 531.00 1289.00 L 565.00 1247.00 L 572.00 1217.00 L 552.00 1199.00 L 544.00 1184.00 L 548.00 1172.00 L 556.00 1162.00 L 568.00 1154.00 L 570.00 1152.00 L 562.00 1156.00 L 559.00 1155.00 L 561.00 1149.00 L 549.00 1138.00 L 523.00 1122.00 L 505.00 1108.00 L 495.00 1096.00 L 489.00 1083.00 L 487.00 1069.00 L 492.00 1049.00 L 504.00 1023.00 L 510.00 1007.00 L 510.00 1001.00 L 506.00 992.00 Z" fill="black" stroke="black" stroke-width="1"/>
</svg>