<?xml version="1.0" encoding="UTF-8"?>
<svg xmlns="http://www.w3.org/2000/svg" viewBox="331.00 297.00 813.00 1309.00">
  <path d="M 402.00 974.00 L 410.00 950.00 L 410.00 930.00 L 402.00 914.00 L 398.00 902.00 L 398.00 894.00 L 401.00 887.00 L 407.00 881.00 L 406.00 875.00 L 398.00 869.00 L 394.00 863.00 L 394.00 857.00 L 398.00 846.00 L 406.00 830.00 L 398.00 814.00 L 374.00 798.00 L 374.00 795.00 L 398.00 805.00 L 397.00 802.00 L 371.00 786.00 L 358.00 776.00 L 358.00 772.00 L 376.00 745.00 L 412.00 695.00 L 430.00 649.00 L 430.00 607.00 L 432.00 580.00 L 436.00 568.00 L 450.00 537.00 L 474.00 487.00 L 496.00 451.00 L 516.00 429.00 L 527.00 412.00 L 529.00 400.00 L 535.00 388.00 L 545.00 376.00 L 567.00 361.00 L 601.00 343.00 L 642.00 327.00 L 690.00 313.00 L 744.00 307.00 L 804.00 309.00 L 862.00 318.00 L 918.00 334.00 L 947.00 345.00 L 949.00 351.00 L 951.00 352.00 L 953.00 348.00 L 957.00 351.00 L 963.00 361.00 L 974.00 370.00 L 990.00 378.00 L 1006.00 390.00 L 1022.00 406.00 L 1040.00 434.00 L 1060.00 474.00 L 1073.00 513.00 L 1079.00 551.00 L 1080.00 601.00 L 1076.00 663.00 L 1080.00 734.00 L 1092.00 814.00 L 1098.00 882.00 L 1098.00 938.00 L 1093.00 994.00 L 1083.00 1050.00 L 1084.00 1084.00 L 1096.00 1096.00 L 1100.00 1102.00 L 1096.00 1102.00 L 1101.00 1105.00 L 1115.00 1111.00 L 1126.00 1120.00 L 1134.00 1132.00 L 1125.00 1136.00 L 1099.00 1132.00 L 1098.00 1135.00 L 1122.00 1145.00 L 1123.00 1147.00 L 1101.00 1141.00 L 1098.00 1142.00 L 1114.00 1150.00 L 1114.00 1151.00 L 1098.00 1145.00 L 1096.00 1145.00 L 1108.00 1151.00 L 1110.00 1153.00 L 1102.00 1151.00 L 1102.00 1153.00 L 1110.00 1159.00 L 1107.00 1159.00 L 1093.00 1153.00 L 1093.00 1155.00 L 1107.00 1165.00 L 1107.00 1167.00 L 1093.00 1161.00 L 1094.00 1164.00 L 1110.00 1176.00 L 1110.00 1179.00 L 1094.00 1173.00 L 1095.00 1175.00 L 1113.00 1185.00 L 1113.00 1187.00 L 1095.00 1181.00 L 1093.00 1183.00 L 1107.00 1193.00 L 1107.00 1195.00 L 1093.00 1189.00 L 1092.00 1191.00 L 1104.00 1201.00 L 1104.00 1203.00 L 1092.00 1197.00 L 1088.00 1209.00 L 1092.00 1239.00 L 1097.00 1261.00 L 1103.00 1275.00 L 1105.00 1288.00 L 1103.00 1300.00 L 1098.00 1306.00 L 1090.00 1306.00 L 1089.00 1316.00 L 1095.00 1336.00 L 1096.00 1349.00 L 1092.00 1355.00 L 1073.00 1353.00 L 1039.00 1343.00 L 1003.00 1338.00 L 965.00 1338.00 L 918.00 1343.00 L 862.00 1353.00 L 801.00 1371.00 L 735.00 1397.00 L 675.00 1424.00 L 621.00 1452.00 L 551.00 1497.00 L 465.00 1559.00 L 414.00 1592.00 L 398.00 1596.00 L 384.00 1595.00 L 372.00 1589.00 L 362.00 1581.00 L 354.00 1571.00 L 347.00 1556.00 L 341.00 1536.00 L 341.00 1502.00 L 347.00 1454.00 L 360.00 1409.00 L 380.00 1367.00 L 388.00 1348.00 L 384.00 1352.00 L 392.00 1342.00 L 412.00 1318.00 L 416.00 1312.00 L 404.00 1324.00 L 405.00 1322.00 L 419.00 1306.00 L 428.00 1291.00 L 432.00 1277.00 L 444.00 1260.00 L 464.00 1240.00 L 468.00 1235.00 L 456.00 1245.00 L 457.00 1243.00 L 471.00 1229.00 L 481.00 1213.00 L 487.00 1195.00 L 477.00 1196.00 L 451.00 1216.00 L 452.00 1214.00 L 480.00 1190.00 L 477.00 1192.00 L 443.00 1220.00 L 441.00 1221.00 L 471.00 1195.00 L 469.00 1194.00 L 435.00 1218.00 L 436.00 1213.00 L 472.00 1179.00 L 481.00 1168.00 L 463.00 1180.00 L 462.00 1179.00 L 478.00 1165.00 L 483.00 1160.00 L 477.00 1164.00 L 475.00 1164.00 L 477.00 1160.00 L 472.00 1156.00 L 460.00 1152.00 L 452.00 1147.00 L 448.00 1141.00 L 452.00 1134.00 L 464.00 1126.00 L 464.00 1124.00 L 452.00 1128.00 L 451.00 1126.00 L 461.00 1118.00 L 457.00 1103.00 L 439.00 1081.00 L 431.00 1067.00 L 433.00 1061.00 L 440.00 1054.00 L 452.00 1046.00 L 445.00 1035.00 L 419.00 1021.00 L 405.00 1009.00 L 403.00 999.00 L 401.00 992.00 L 399.00 988.00 L 402.00 974.00 Z" fill="black" stroke="black" stroke-width="1"/>
</svg>