<?xml version="1.0" encoding="UTF-8"?>
<svg xmlns="http://www.w3.org/2000/svg" viewBox="318.00 268.00 902.00 1410.00">
  <path d="M 426.00 941.00 L 434.00 923.00 L 435.00 901.00 L 429.00 875.00 L 430.00 859.00 L 438.00 853.00 L 439.00 845.00 L 433.00 835.00 L 433.00 822.00 L 439.00 806.00 L 427.00 787.00 L 397.00 765.00 L 397.00 762.00 L 427.00 778.00 L 426.00 777.00 L 394.00 759.00 L 390.00 755.00 L 414.00 765.00 L 414.00 762.00 L 390.00 746.00 L 395.00 747.00 L 429.00 765.00 L 429.00 763.00 L 395.00 741.00 L 403.00 696.00 L 453.00 628.00 L 477.00 583.00 L 475.00 561.00 L 484.00 525.00 L 504.00 475.00 L 523.00 437.00 L 541.00 411.00 L 557.00 392.00 L 571.00 380.00 L 575.00 363.00 L 569.00 341.00 L 571.00 340.00 L 581.00 360.00 L 584.00 359.00 L 580.00 337.00 L 582.00 335.00 L 590.00 353.00 L 593.00 353.00 L 591.00 335.00 L 593.00 333.00 L 599.00 347.00 L 601.00 347.00 L 599.00 333.00 L 601.00 332.00 L 607.00 344.00 L 610.00 343.00 L 610.00 329.00 L 613.00 327.00 L 619.00 337.00 L 621.00 336.00 L 619.00 324.00 L 621.00 323.00 L 627.00 333.00 L 629.00 332.00 L 627.00 320.00 L 628.00 318.00 L 632.00 326.00 L 634.00 325.00 L 634.00 315.00 L 636.00 314.00 L 640.00 322.00 L 642.00 321.00 L 642.00 311.00 L 653.00 302.00 L 675.00 294.00 L 704.00 287.00 L 740.00 281.00 L 793.00 278.00 L 863.00 278.00 L 923.00 283.00 L 973.00 293.00 L 1009.00 303.00 L 1031.00 313.00 L 1055.00 328.00 L 1081.00 348.00 L 1104.00 369.00 L 1124.00 391.00 L 1150.00 433.00 L 1182.00 495.00 L 1201.00 540.00 L 1207.00 568.00 L 1210.00 595.00 L 1210.00 621.00 L 1199.00 677.00 L 1177.00 763.00 L 1156.00 819.00 L 1136.00 845.00 L 1122.00 868.00 L 1114.00 888.00 L 1103.00 899.00 L 1089.00 901.00 L 1080.00 903.00 L 1076.00 905.00 L 1082.00 905.00 L 1098.00 903.00 L 1097.00 905.00 L 1079.00 911.00 L 1078.00 914.00 L 1094.00 914.00 L 1094.00 916.00 L 1078.00 920.00 L 1073.00 924.00 L 1079.00 928.00 L 1084.00 935.00 L 1088.00 945.00 L 1091.00 963.00 L 1093.00 989.00 L 1099.00 1017.00 L 1109.00 1047.00 L 1111.00 1073.00 L 1105.00 1095.00 L 1109.00 1120.00 L 1123.00 1148.00 L 1132.00 1174.00 L 1136.00 1198.00 L 1146.00 1231.00 L 1162.00 1273.00 L 1169.00 1298.00 L 1167.00 1306.00 L 1164.00 1310.00 L 1160.00 1310.00 L 1161.00 1313.00 L 1167.00 1319.00 L 1126.00 1320.00 L 1038.00 1316.00 L 965.00 1319.00 L 907.00 1329.00 L 858.00 1341.00 L 818.00 1355.00 L 757.00 1385.00 L 675.00 1431.00 L 610.00 1472.00 L 562.00 1508.00 L 501.00 1560.00 L 427.00 1628.00 L 383.00 1664.00 L 369.00 1668.00 L 358.00 1668.00 L 350.00 1664.00 L 341.00 1652.00 L 331.00 1632.00 L 328.00 1603.00 L 332.00 1565.00 L 341.00 1531.00 L 355.00 1501.00 L 361.00 1487.00 L 359.00 1489.00 L 385.00 1451.00 L 439.00 1373.00 L 442.00 1368.00 L 394.00 1436.00 L 372.00 1466.00 L 376.00 1458.00 L 377.00 1455.00 L 375.00 1457.00 L 412.00 1404.00 L 488.00 1296.00 L 491.00 1290.00 L 421.00 1386.00 L 422.00 1383.00 L 494.00 1281.00 L 515.00 1250.00 L 485.00 1290.00 L 481.00 1295.00 L 503.00 1265.00 L 504.00 1262.00 L 484.00 1286.00 L 488.00 1278.00 L 516.00 1238.00 L 533.00 1209.00 L 539.00 1191.00 L 534.00 1189.00 L 518.00 1203.00 L 516.00 1203.00 L 528.00 1189.00 L 526.00 1190.00 L 510.00 1206.00 L 500.00 1212.00 L 496.00 1208.00 L 499.00 1197.00 L 509.00 1179.00 L 511.00 1170.00 L 505.00 1170.00 L 508.00 1162.00 L 520.00 1146.00 L 518.00 1145.00 L 502.00 1159.00 L 500.00 1159.00 L 512.00 1145.00 L 511.00 1144.00 L 497.00 1156.00 L 489.00 1161.00 L 487.00 1159.00 L 494.00 1150.00 L 510.00 1134.00 L 511.00 1131.00 L 497.00 1141.00 L 496.00 1139.00 L 508.00 1125.00 L 508.00 1111.00 L 496.00 1097.00 L 489.00 1085.00 L 487.00 1075.00 L 493.00 1064.00 L 507.00 1052.00 L 496.00 1040.00 L 460.00 1028.00 L 436.00 1013.00 L 424.00 995.00 L 418.00 979.00 L 418.00 965.00 L 419.00 956.00 L 421.00 952.00 L 426.00 941.00 Z" fill="black" stroke="black" stroke-width="1"/>
</svg>