<?xml version="1.0" encoding="UTF-8"?>
<svg xmlns="http://www.w3.org/2000/svg" viewBox="281.00 370.00 755.00 1290.00">
  <path d="M 341.00 951.00 L 347.00 905.00 L 355.00 877.00 L 365.00 867.00 L 367.00 858.00 L 361.00 850.00 L 352.00 823.00 L 340.00 777.00 L 332.00 716.00 L 328.00 640.00 L 330.00 588.00 L 338.00 560.00 L 351.00 530.00 L 369.00 498.00 L 399.00 466.00 L 441.00 434.00 L 486.00 409.00 L 534.00 391.00 L 570.00 383.00 L 594.00 385.00 L 621.00 384.00 L 651.00 380.00 L 676.00 381.00 L 696.00 387.00 L 715.00 390.00 L 733.00 390.00 L 754.00 394.00 L 778.00 402.00 L 802.00 415.00 L 826.00 433.00 L 840.00 444.00 L 844.00 448.00 L 845.00 458.00 L 843.00 474.00 L 845.00 475.00 L 851.00 461.00 L 852.00 462.00 L 848.00 478.00 L 849.00 479.00 L 855.00 465.00 L 856.00 468.00 L 852.00 488.00 L 853.00 489.00 L 859.00 471.00 L 861.00 473.00 L 859.00 495.00 L 861.00 497.00 L 867.00 479.00 L 869.00 481.00 L 867.00 503.00 L 869.00 505.00 L 875.00 487.00 L 877.00 490.00 L 875.00 514.00 L 877.00 518.00 L 883.00 502.00 L 884.00 503.00 L 880.00 521.00 L 881.00 524.00 L 887.00 512.00 L 888.00 514.00 L 884.00 530.00 L 885.00 532.00 L 891.00 520.00 L 893.00 522.00 L 891.00 538.00 L 901.00 571.00 L 923.00 621.00 L 932.00 656.00 L 928.00 676.00 L 927.00 685.00 L 929.00 683.00 L 930.00 688.00 L 930.00 700.00 L 933.00 703.00 L 939.00 697.00 L 940.00 699.00 L 936.00 709.00 L 935.00 716.00 L 937.00 720.00 L 953.00 738.00 L 983.00 770.00 L 1003.00 795.00 L 1013.00 813.00 L 1017.00 826.00 L 1015.00 834.00 L 1003.00 845.00 L 981.00 859.00 L 977.00 863.00 L 991.00 857.00 L 989.00 862.00 L 971.00 878.00 L 963.00 896.00 L 965.00 916.00 L 962.00 929.00 L 954.00 935.00 L 952.00 941.00 L 956.00 947.00 L 952.00 959.00 L 940.00 977.00 L 936.00 1003.00 L 940.00 1037.00 L 937.00 1061.00 L 927.00 1075.00 L 922.00 1088.00 L 922.00 1100.00 L 916.00 1112.00 L 904.00 1124.00 L 903.00 1136.00 L 913.00 1148.00 L 912.00 1149.00 L 900.00 1139.00 L 893.00 1135.00 L 891.00 1137.00 L 896.00 1144.00 L 908.00 1156.00 L 907.00 1157.00 L 893.00 1147.00 L 892.00 1149.00 L 904.00 1163.00 L 906.00 1171.00 L 898.00 1173.00 L 899.00 1182.00 L 909.00 1198.00 L 908.00 1200.00 L 896.00 1188.00 L 896.00 1189.00 L 908.00 1203.00 L 906.00 1201.00 L 890.00 1183.00 L 899.00 1194.00 L 933.00 1234.00 L 933.00 1235.00 L 899.00 1197.00 L 898.00 1199.00 L 930.00 1241.00 L 935.00 1256.00 L 913.00 1244.00 L 911.00 1251.00 L 929.00 1277.00 L 921.00 1267.00 L 887.00 1221.00 L 888.00 1224.00 L 924.00 1276.00 L 936.00 1294.00 L 924.00 1278.00 L 925.00 1280.00 L 939.00 1300.00 L 938.00 1299.00 L 922.00 1277.00 L 922.00 1278.00 L 938.00 1302.00 L 931.00 1293.00 L 901.00 1251.00 L 902.00 1254.00 L 934.00 1302.00 L 937.00 1307.00 L 911.00 1269.00 L 911.00 1271.00 L 937.00 1313.00 L 935.00 1312.00 L 905.00 1268.00 L 909.00 1277.00 L 947.00 1339.00 L 964.00 1367.00 L 960.00 1361.00 L 968.00 1377.00 L 988.00 1415.00 L 997.00 1433.00 L 995.00 1431.00 L 999.00 1443.00 L 1009.00 1469.00 L 1018.00 1505.00 L 1026.00 1551.00 L 1024.00 1590.00 L 1012.00 1622.00 L 999.00 1642.00 L 985.00 1650.00 L 968.00 1648.00 L 948.00 1636.00 L 913.00 1600.00 L 863.00 1540.00 L 812.00 1484.00 L 760.00 1432.00 L 698.00 1380.00 L 626.00 1328.00 L 567.00 1292.00 L 521.00 1272.00 L 478.00 1257.00 L 438.00 1247.00 L 400.00 1242.00 L 364.00 1242.00 L 333.00 1246.00 L 307.00 1254.00 L 293.00 1253.00 L 291.00 1243.00 L 298.00 1215.00 L 314.00 1169.00 L 323.00 1127.00 L 325.00 1089.00 L 331.00 1055.00 L 341.00 1025.00 L 344.00 1003.00 L 340.00 989.00 L 338.00 980.00 L 338.00 976.00 L 341.00 951.00 Z" fill="black" stroke="black" stroke-width="1"/>
</svg>