<?xml version="1.0" encoding="UTF-8"?>
<svg xmlns="http://www.w3.org/2000/svg" viewBox="333.00 273.00 755.00 1334.00">
  <path d="M 397.00 934.00 L 387.00 926.00 L 385.00 900.00 L 391.00 856.00 L 382.00 828.00 L 358.00 816.00 L 357.00 813.00 L 379.00 819.00 L 378.00 816.00 L 354.00 804.00 L 358.00 774.00 L 390.00 726.00 L 398.00 687.00 L 382.00 657.00 L 384.00 651.00 L 404.00 669.00 L 405.00 667.00 L 387.00 645.00 L 386.00 642.00 L 402.00 658.00 L 403.00 656.00 L 389.00 636.00 L 389.00 633.00 L 403.00 647.00 L 405.00 644.00 L 395.00 624.00 L 395.00 619.00 L 405.00 629.00 L 407.00 618.00 L 401.00 586.00 L 403.00 575.00 L 413.00 585.00 L 413.00 582.00 L 403.00 566.00 L 404.00 564.00 L 416.00 576.00 L 416.00 573.00 L 404.00 555.00 L 405.00 553.00 L 419.00 567.00 L 421.00 560.00 L 411.00 532.00 L 412.00 526.00 L 424.00 542.00 L 426.00 539.00 L 418.00 517.00 L 419.00 513.00 L 429.00 527.00 L 430.00 525.00 L 422.00 507.00 L 423.00 505.00 L 433.00 519.00 L 434.00 518.00 L 426.00 502.00 L 427.00 500.00 L 437.00 512.00 L 439.00 510.00 L 433.00 494.00 L 434.00 492.00 L 442.00 504.00 L 444.00 502.00 L 440.00 486.00 L 441.00 483.00 L 447.00 493.00 L 448.00 490.00 L 444.00 474.00 L 449.00 453.00 L 463.00 427.00 L 492.00 396.00 L 536.00 360.00 L 598.00 327.00 L 678.00 297.00 L 760.00 283.00 L 844.00 285.00 L 906.00 293.00 L 946.00 307.00 L 978.00 325.00 L 1002.00 347.00 L 1030.00 395.00 L 1062.00 469.00 L 1078.00 549.00 L 1078.00 635.00 L 1073.00 697.00 L 1063.00 735.00 L 1037.00 785.00 L 995.00 847.00 L 967.00 896.00 L 953.00 932.00 L 937.00 952.00 L 919.00 956.00 L 918.00 959.00 L 934.00 961.00 L 937.00 962.00 L 927.00 962.00 L 926.00 964.00 L 934.00 968.00 L 933.00 970.00 L 923.00 970.00 L 922.00 971.00 L 930.00 973.00 L 929.00 975.00 L 919.00 977.00 L 912.00 987.00 L 908.00 1005.00 L 907.00 1048.00 L 909.00 1116.00 L 927.00 1187.00 L 961.00 1261.00 L 983.00 1323.00 L 993.00 1373.00 L 967.00 1399.00 L 905.00 1401.00 L 845.00 1410.00 L 787.00 1426.00 L 698.00 1469.00 L 578.00 1539.00 L 539.00 1482.00 L 581.00 1298.00 L 578.00 1300.00 L 530.00 1488.00 L 530.00 1486.00 L 578.00 1294.00 L 576.00 1296.00 L 524.00 1492.00 L 524.00 1490.00 L 576.00 1290.00 L 574.00 1291.00 L 518.00 1493.00 L 518.00 1490.00 L 574.00 1282.00 L 572.00 1284.00 L 512.00 1496.00 L 501.00 1532.00 L 539.00 1392.00 L 535.00 1395.00 L 489.00 1541.00 L 499.00 1503.00 L 565.00 1281.00 L 563.00 1282.00 L 493.00 1506.00 L 479.00 1549.00 L 521.00 1411.00 L 516.00 1415.00 L 464.00 1561.00 L 477.00 1516.00 L 555.00 1280.00 L 552.00 1282.00 L 468.00 1522.00 L 450.00 1571.00 L 498.00 1429.00 L 493.00 1433.00 L 435.00 1583.00 L 452.00 1532.00 L 544.00 1280.00 L 542.00 1282.00 L 446.00 1538.00 L 425.00 1593.00 L 479.00 1447.00 L 477.00 1448.00 L 419.00 1596.00 L 417.00 1597.00 L 471.00 1451.00 L 467.00 1451.00 L 405.00 1597.00 L 427.00 1538.00 L 533.00 1274.00 L 531.00 1272.00 L 421.00 1532.00 L 393.00 1596.00 L 447.00 1464.00 L 445.00 1462.00 L 387.00 1590.00 L 384.00 1592.00 L 436.00 1468.00 L 434.00 1465.00 L 378.00 1583.00 L 408.00 1514.00 L 524.00 1258.00 L 523.00 1256.00 L 405.00 1508.00 L 370.00 1581.00 L 418.00 1475.00 L 417.00 1472.00 L 367.00 1572.00 L 363.00 1575.00 L 405.00 1481.00 L 404.00 1478.00 L 360.00 1566.00 L 398.00 1488.00 L 518.00 1244.00 L 518.00 1242.00 L 398.00 1482.00 L 398.00 1480.00 L 518.00 1236.00 L 518.00 1229.00 L 398.00 1459.00 L 351.00 1548.00 L 377.00 1496.00 L 377.00 1494.00 L 351.00 1542.00 L 349.00 1544.00 L 371.00 1500.00 L 371.00 1498.00 L 349.00 1538.00 L 346.00 1541.00 L 362.00 1507.00 L 362.00 1504.00 L 346.00 1532.00 L 343.00 1535.00 L 353.00 1513.00 L 356.00 1505.00 L 352.00 1511.00 L 406.00 1412.00 L 518.00 1208.00 L 568.00 1099.00 L 556.00 1085.00 L 518.00 1068.00 L 454.00 1048.00 L 415.00 1028.00 L 401.00 1008.00 L 397.00 985.00 L 403.00 959.00 L 405.00 944.00 L 403.00 940.00 L 397.00 934.00 Z" fill="black" stroke="black" stroke-width="1"/>
</svg>