<?xml version="1.0" encoding="UTF-8"?>
<svg xmlns="http://www.w3.org/2000/svg" viewBox="309.00 357.00 801.00 1289.00">
  <path d="M 525.00 999.00 L 523.00 977.00 L 506.00 954.00 L 474.00 930.00 L 432.00 909.00 L 380.00 891.00 L 379.00 890.00 L 429.00 906.00 L 426.00 903.00 L 370.00 881.00 L 368.00 879.00 L 420.00 897.00 L 418.00 895.00 L 362.00 873.00 L 360.00 871.00 L 412.00 889.00 L 410.00 884.00 L 354.00 856.00 L 351.00 852.00 L 401.00 872.00 L 401.00 871.00 L 351.00 849.00 L 349.00 846.00 L 395.00 862.00 L 394.00 859.00 L 346.00 837.00 L 321.00 789.00 L 319.00 715.00 L 323.00 657.00 L 333.00 615.00 L 354.00 561.00 L 386.00 495.00 L 446.00 437.00 L 534.00 387.00 L 585.00 374.00 L 599.00 398.00 L 604.00 397.00 L 600.00 371.00 L 605.00 370.00 L 619.00 394.00 L 624.00 393.00 L 620.00 367.00 L 621.00 367.00 L 627.00 393.00 L 629.00 393.00 L 627.00 367.00 L 629.00 367.00 L 635.00 393.00 L 637.00 394.00 L 635.00 370.00 L 637.00 370.00 L 643.00 394.00 L 645.00 395.00 L 643.00 373.00 L 646.00 373.00 L 654.00 395.00 L 657.00 397.00 L 655.00 379.00 L 657.00 379.00 L 663.00 397.00 L 704.00 412.00 L 780.00 424.00 L 847.00 445.00 L 905.00 475.00 L 942.00 499.00 L 958.00 517.00 L 963.00 534.00 L 957.00 550.00 L 958.00 551.00 L 966.00 537.00 L 966.00 539.00 L 958.00 557.00 L 960.00 559.00 L 972.00 545.00 L 973.00 548.00 L 963.00 568.00 L 964.00 570.00 L 976.00 554.00 L 977.00 557.00 L 967.00 579.00 L 968.00 581.00 L 980.00 563.00 L 981.00 566.00 L 971.00 590.00 L 972.00 594.00 L 984.00 578.00 L 985.00 580.00 L 975.00 600.00 L 975.00 602.00 L 985.00 586.00 L 986.00 589.00 L 978.00 611.00 L 978.00 617.00 L 986.00 607.00 L 989.00 635.00 L 987.00 701.00 L 1005.00 762.00 L 1043.00 818.00 L 1051.00 859.00 L 1029.00 885.00 L 1019.00 942.00 L 1021.00 1030.00 L 1011.00 1086.00 L 989.00 1110.00 L 952.00 1125.00 L 900.00 1131.00 L 867.00 1142.00 L 853.00 1158.00 L 908.00 1267.00 L 1032.00 1469.00 L 1030.00 1472.00 L 902.00 1276.00 L 903.00 1278.00 L 1033.00 1478.00 L 1091.00 1569.00 L 1077.00 1551.00 L 1080.00 1558.00 L 1100.00 1590.00 L 1098.00 1588.00 L 1074.00 1552.00 L 1074.00 1554.00 L 1098.00 1594.00 L 1096.00 1593.00 L 1068.00 1551.00 L 1069.00 1554.00 L 1099.00 1602.00 L 1096.00 1599.00 L 1060.00 1545.00 L 1060.00 1547.00 L 1096.00 1605.00 L 1093.00 1602.00 L 1051.00 1538.00 L 1051.00 1541.00 L 1093.00 1611.00 L 1090.00 1608.00 L 1042.00 1532.00 L 1042.00 1535.00 L 1090.00 1617.00 L 1044.00 1541.00 L 904.00 1307.00 L 903.00 1310.00 L 1041.00 1550.00 L 1078.00 1619.00 L 1014.00 1517.00 L 1012.00 1521.00 L 1072.00 1631.00 L 1068.00 1627.00 L 1000.00 1509.00 L 998.00 1512.00 L 1062.00 1636.00 L 1028.00 1574.00 L 896.00 1326.00 L 894.00 1328.00 L 1022.00 1580.00 L 1021.00 1582.00 L 891.00 1334.00 L 884.00 1337.00 L 1000.00 1591.00 L 1017.00 1634.00 L 935.00 1466.00 L 929.00 1462.00 L 999.00 1622.00 L 998.00 1621.00 L 926.00 1459.00 L 925.00 1458.00 L 995.00 1618.00 L 978.00 1580.00 L 874.00 1344.00 L 872.00 1342.00 L 972.00 1574.00 L 984.00 1606.00 L 908.00 1438.00 L 903.00 1434.00 L 969.00 1594.00 L 957.00 1565.00 L 867.00 1347.00 L 865.00 1345.00 L 951.00 1559.00 L 951.00 1561.00 L 865.00 1351.00 L 860.00 1347.00 L 936.00 1549.00 L 936.00 1554.00 L 860.00 1362.00 L 856.00 1359.00 L 924.00 1545.00 L 924.00 1547.00 L 856.00 1365.00 L 853.00 1363.00 L 915.00 1541.00 L 907.00 1601.00 L 829.00 1543.00 L 746.00 1493.00 L 658.00 1451.00 L 586.00 1424.00 L 530.00 1412.00 L 465.00 1409.00 L 391.00 1415.00 L 378.00 1358.00 L 426.00 1238.00 L 466.00 1163.00 L 498.00 1133.00 L 517.00 1092.00 L 523.00 1040.00 L 526.00 1013.00 L 526.00 1011.00 L 525.00 999.00 Z" fill="black" stroke="black" stroke-width="1"/>
</svg>