<?xml version="1.0" encoding="UTF-8"?>
<svg xmlns="http://www.w3.org/2000/svg" viewBox="528.00 237.00 995.00 1436.00">
  <path d="M 658.00 955.00 L 666.00 909.00 L 658.00 870.00 L 634.00 838.00 L 638.00 788.00 L 670.00 720.00 L 691.00 687.00 L 701.00 689.00 L 709.00 645.00 L 715.00 555.00 L 713.00 499.00 L 703.00 477.00 L 705.00 474.00 L 719.00 490.00 L 720.00 487.00 L 708.00 465.00 L 708.00 462.00 L 720.00 478.00 L 722.00 477.00 L 714.00 459.00 L 732.00 436.00 L 776.00 408.00 L 798.00 386.00 L 798.00 370.00 L 803.00 366.00 L 813.00 374.00 L 827.00 359.00 L 845.00 321.00 L 857.00 309.00 L 863.00 323.00 L 866.00 318.00 L 866.00 294.00 L 869.00 292.00 L 875.00 312.00 L 877.00 311.00 L 875.00 289.00 L 887.00 280.00 L 913.00 284.00 L 927.00 279.00 L 929.00 265.00 L 931.00 266.00 L 933.00 282.00 L 933.00 280.00 L 931.00 260.00 L 932.00 258.00 L 936.00 274.00 L 938.00 274.00 L 938.00 258.00 L 946.00 249.00 L 962.00 247.00 L 972.00 252.00 L 976.00 264.00 L 978.00 265.00 L 978.00 255.00 L 985.00 251.00 L 999.00 253.00 L 1007.00 266.00 L 1009.00 290.00 L 1011.00 292.00 L 1013.00 272.00 L 1016.00 270.00 L 1020.00 286.00 L 1046.00 287.00 L 1094.00 273.00 L 1149.00 268.00 L 1211.00 272.00 L 1268.00 288.00 L 1320.00 316.00 L 1375.00 364.00 L 1433.00 432.00 L 1477.00 525.00 L 1507.00 643.00 L 1513.00 752.00 L 1495.00 852.00 L 1440.00 913.00 L 1348.00 935.00 L 1343.00 941.00 L 1425.00 931.00 L 1423.00 932.00 L 1337.00 944.00 L 1336.00 946.00 L 1420.00 938.00 L 1422.00 940.00 L 1342.00 952.00 L 1339.00 955.00 L 1413.00 949.00 L 1416.00 949.00 L 1348.00 955.00 L 1345.00 958.00 L 1407.00 958.00 L 1399.00 962.00 L 1321.00 970.00 L 1316.00 973.00 L 1384.00 971.00 L 1385.00 972.00 L 1319.00 976.00 L 1305.00 979.00 L 1343.00 981.00 L 1341.00 983.00 L 1299.00 985.00 L 1292.00 988.00 L 1320.00 992.00 L 1320.00 995.00 L 1292.00 997.00 L 1276.00 1006.00 L 1272.00 1022.00 L 1270.00 1047.00 L 1270.00 1081.00 L 1288.00 1118.00 L 1324.00 1158.00 L 1357.00 1240.00 L 1387.00 1364.00 L 1336.00 1433.00 L 1204.00 1447.00 L 1088.00 1473.00 L 988.00 1511.00 L 905.00 1551.00 L 839.00 1593.00 L 834.00 1525.00 L 890.00 1347.00 L 883.00 1352.00 L 813.00 1540.00 L 812.00 1537.00 L 880.00 1343.00 L 873.00 1347.00 L 791.00 1549.00 L 790.00 1546.00 L 870.00 1338.00 L 865.00 1341.00 L 775.00 1555.00 L 775.00 1552.00 L 865.00 1332.00 L 863.00 1334.00 L 769.00 1558.00 L 755.00 1589.00 L 821.00 1427.00 L 813.00 1433.00 L 731.00 1607.00 L 744.00 1573.00 L 852.00 1331.00 L 846.00 1335.00 L 726.00 1585.00 L 726.00 1582.00 L 846.00 1326.00 L 843.00 1329.00 L 717.00 1591.00 L 695.00 1636.00 L 777.00 1464.00 L 768.00 1471.00 L 668.00 1657.00 L 689.00 1610.00 L 831.00 1330.00 L 825.00 1331.00 L 671.00 1613.00 L 671.00 1610.00 L 825.00 1322.00 L 823.00 1321.00 L 665.00 1607.00 L 665.00 1605.00 L 823.00 1315.00 L 820.00 1313.00 L 656.00 1599.00 L 619.00 1663.00 L 709.00 1505.00 L 707.00 1503.00 L 613.00 1657.00 L 608.00 1660.00 L 692.00 1512.00 L 688.00 1509.00 L 596.00 1651.00 L 637.00 1581.00 L 811.00 1299.00 L 808.00 1296.00 L 628.00 1572.00 L 577.00 1649.00 L 655.00 1527.00 L 654.00 1526.00 L 574.00 1646.00 L 572.00 1647.00 L 648.00 1529.00 L 646.00 1524.00 L 566.00 1632.00 L 617.00 1553.00 L 799.00 1287.00 L 798.00 1285.00 L 614.00 1547.00 L 554.00 1632.00 L 618.00 1540.00 L 617.00 1537.00 L 551.00 1623.00 L 546.00 1626.00 L 602.00 1546.00 L 602.00 1543.00 L 546.00 1617.00 L 544.00 1618.00 L 596.00 1546.00 L 596.00 1543.00 L 544.00 1609.00 L 540.00 1611.00 L 584.00 1549.00 L 584.00 1547.00 L 540.00 1605.00 L 538.00 1607.00 L 578.00 1553.00 L 579.00 1551.00 L 541.00 1601.00 L 539.00 1602.00 L 573.00 1554.00 L 574.00 1551.00 L 542.00 1593.00 L 540.00 1595.00 L 568.00 1557.00 L 571.00 1551.00 L 549.00 1577.00 L 623.00 1480.00 L 793.00 1260.00 L 834.00 1143.00 L 746.00 1129.00 L 696.00 1114.00 L 684.00 1098.00 L 681.00 1071.00 L 687.00 1033.00 L 681.00 1008.00 L 663.00 996.00 L 654.00 987.00 L 654.00 981.00 L 658.00 955.00 Z" fill="black" stroke="black" stroke-width="1"/>
</svg>