<?xml version="1.0" encoding="UTF-8"?>
<svg xmlns="http://www.w3.org/2000/svg" viewBox="374.00 253.00 866.00 1648.00">
  <path d="M 486.00 1029.00 L 510.00 1027.00 L 510.00 1025.00 L 486.00 1023.00 L 481.00 995.00 L 495.00 941.00 L 490.00 890.00 L 466.00 842.00 L 442.00 771.00 L 418.00 677.00 L 411.00 602.00 L 421.00 546.00 L 436.00 497.00 L 456.00 455.00 L 495.00 408.00 L 553.00 356.00 L 596.00 322.00 L 624.00 306.00 L 664.00 290.00 L 716.00 274.00 L 761.00 265.00 L 799.00 263.00 L 838.00 266.00 L 878.00 274.00 L 916.00 284.00 L 952.00 296.00 L 991.00 314.00 L 1033.00 338.00 L 1068.00 364.00 L 1096.00 392.00 L 1110.00 417.00 L 1110.00 439.00 L 1114.00 444.00 L 1122.00 432.00 L 1124.00 437.00 L 1120.00 459.00 L 1122.00 462.00 L 1130.00 446.00 L 1131.00 448.00 L 1125.00 468.00 L 1126.00 470.00 L 1134.00 454.00 L 1136.00 452.00 L 1132.00 464.00 L 1133.00 466.00 L 1139.00 458.00 L 1139.00 463.00 L 1133.00 481.00 L 1134.00 484.00 L 1142.00 472.00 L 1143.00 475.00 L 1137.00 493.00 L 1138.00 495.00 L 1146.00 481.00 L 1148.00 486.00 L 1144.00 510.00 L 1146.00 515.00 L 1154.00 501.00 L 1155.00 502.00 L 1149.00 518.00 L 1150.00 521.00 L 1158.00 511.00 L 1158.00 514.00 L 1150.00 530.00 L 1151.00 532.00 L 1161.00 520.00 L 1162.00 523.00 L 1154.00 541.00 L 1155.00 543.00 L 1165.00 529.00 L 1165.00 532.00 L 1155.00 552.00 L 1156.00 554.00 L 1168.00 538.00 L 1168.00 540.00 L 1156.00 560.00 L 1157.00 562.00 L 1171.00 546.00 L 1172.00 549.00 L 1160.00 571.00 L 1160.00 573.00 L 1172.00 555.00 L 1173.00 557.00 L 1163.00 579.00 L 1164.00 602.00 L 1176.00 626.00 L 1179.00 653.00 L 1173.00 683.00 L 1190.00 738.00 L 1230.00 818.00 L 1230.00 869.00 L 1190.00 891.00 L 1190.00 894.00 L 1230.00 878.00 L 1230.00 881.00 L 1190.00 903.00 L 1171.00 925.00 L 1173.00 947.00 L 1171.00 961.00 L 1165.00 967.00 L 1165.00 975.00 L 1171.00 985.00 L 1167.00 1001.00 L 1153.00 1023.00 L 1153.00 1046.00 L 1167.00 1070.00 L 1172.00 1092.00 L 1168.00 1112.00 L 1153.00 1129.00 L 1127.00 1143.00 L 1100.00 1150.00 L 1072.00 1150.00 L 1060.00 1153.00 L 1064.00 1159.00 L 1061.00 1159.00 L 1051.00 1153.00 L 1053.00 1156.00 L 1067.00 1168.00 L 1062.00 1191.00 L 1038.00 1225.00 L 1032.00 1255.00 L 1044.00 1281.00 L 1043.00 1286.00 L 1029.00 1270.00 L 1032.00 1278.00 L 1052.00 1310.00 L 1051.00 1312.00 L 1029.00 1284.00 L 1041.00 1311.00 L 1087.00 1393.00 L 1103.00 1424.00 L 1089.00 1404.00 L 1090.00 1407.00 L 1106.00 1433.00 L 1104.00 1431.00 L 1084.00 1401.00 L 1085.00 1404.00 L 1107.00 1440.00 L 1104.00 1436.00 L 1076.00 1392.00 L 1077.00 1395.00 L 1107.00 1445.00 L 1128.00 1487.00 L 1140.00 1521.00 L 1140.00 1528.00 L 1128.00 1508.00 L 1135.00 1527.00 L 1161.00 1585.00 L 1175.00 1651.00 L 1177.00 1725.00 L 1175.00 1773.00 L 1169.00 1795.00 L 1154.00 1825.00 L 1130.00 1863.00 L 1104.00 1885.00 L 1076.00 1891.00 L 1048.00 1886.00 L 1020.00 1870.00 L 992.00 1847.00 L 964.00 1817.00 L 921.00 1756.00 L 863.00 1664.00 L 791.00 1584.00 L 705.00 1516.00 L 622.00 1464.00 L 542.00 1428.00 L 474.00 1407.00 L 418.00 1401.00 L 388.00 1394.00 L 384.00 1386.00 L 384.00 1373.00 L 388.00 1355.00 L 406.00 1316.00 L 438.00 1256.00 L 463.00 1215.00 L 481.00 1193.00 L 489.00 1176.00 L 487.00 1164.00 L 494.00 1136.00 L 510.00 1092.00 L 511.00 1069.00 L 497.00 1067.00 L 497.00 1065.00 L 511.00 1063.00 L 508.00 1062.00 L 488.00 1062.00 L 489.00 1060.00 L 511.00 1056.00 L 510.00 1053.00 L 486.00 1051.00 L 487.00 1048.00 L 513.00 1044.00 L 513.00 1041.00 L 487.00 1039.00 L 487.00 1037.00 L 513.00 1035.00 L 522.00 1034.00 L 514.00 1034.00 L 501.00 1033.00 L 483.00 1031.00 L 486.00 1029.00 Z" fill="black" stroke="black" stroke-width="1"/>
</svg>