<?xml version="1.0" encoding="UTF-8"?>
<svg xmlns="http://www.w3.org/2000/svg" viewBox="333.00 293.00 822.00 1422.00">
  <path d="M 397.00 1001.00 L 403.00 983.00 L 404.00 967.00 L 400.00 953.00 L 398.00 940.00 L 398.00 928.00 L 396.00 919.00 L 392.00 913.00 L 393.00 899.00 L 399.00 877.00 L 390.00 859.00 L 366.00 845.00 L 366.00 843.00 L 390.00 853.00 L 389.00 851.00 L 363.00 837.00 L 360.00 835.00 L 380.00 845.00 L 379.00 843.00 L 357.00 829.00 L 361.00 829.00 L 391.00 843.00 L 391.00 840.00 L 361.00 820.00 L 346.00 807.00 L 346.00 801.00 L 359.00 778.00 L 385.00 738.00 L 404.00 712.00 L 416.00 700.00 L 425.00 687.00 L 431.00 673.00 L 433.00 654.00 L 431.00 630.00 L 433.00 607.00 L 439.00 585.00 L 453.00 555.00 L 475.00 517.00 L 485.00 491.00 L 483.00 477.00 L 484.00 474.00 L 488.00 482.00 L 491.00 479.00 L 493.00 465.00 L 505.00 446.00 L 527.00 422.00 L 552.00 400.00 L 580.00 380.00 L 614.00 362.00 L 654.00 346.00 L 695.00 333.00 L 737.00 323.00 L 766.00 319.00 L 782.00 321.00 L 791.00 320.00 L 793.00 316.00 L 796.00 314.00 L 800.00 314.00 L 802.00 316.00 L 802.00 320.00 L 803.00 322.00 L 805.00 322.00 L 809.00 319.00 L 815.00 313.00 L 818.00 313.00 L 818.00 319.00 L 820.00 319.00 L 824.00 313.00 L 837.00 308.00 L 859.00 304.00 L 887.00 303.00 L 921.00 305.00 L 949.00 309.00 L 971.00 315.00 L 1000.00 329.00 L 1036.00 351.00 L 1060.00 368.00 L 1072.00 380.00 L 1086.00 399.00 L 1102.00 425.00 L 1114.00 449.00 L 1122.00 471.00 L 1130.00 499.00 L 1138.00 533.00 L 1143.00 567.00 L 1145.00 601.00 L 1144.00 635.00 L 1140.00 669.00 L 1130.00 716.00 L 1114.00 776.00 L 1098.00 819.00 L 1082.00 845.00 L 1071.00 867.00 L 1065.00 885.00 L 1064.00 901.00 L 1068.00 915.00 L 1078.00 927.00 L 1094.00 937.00 L 1099.00 947.00 L 1093.00 957.00 L 1080.00 964.00 L 1060.00 968.00 L 1057.00 970.00 L 1071.00 970.00 L 1072.00 972.00 L 1060.00 976.00 L 1057.00 995.00 L 1063.00 1029.00 L 1066.00 1059.00 L 1066.00 1085.00 L 1068.00 1103.00 L 1072.00 1113.00 L 1074.00 1126.00 L 1074.00 1142.00 L 1072.00 1154.00 L 1068.00 1162.00 L 1072.00 1178.00 L 1084.00 1202.00 L 1096.00 1236.00 L 1108.00 1280.00 L 1114.00 1306.00 L 1114.00 1314.00 L 1121.00 1338.00 L 1135.00 1378.00 L 1142.00 1401.00 L 1142.00 1407.00 L 1126.00 1406.00 L 1094.00 1398.00 L 1056.00 1394.00 L 1012.00 1394.00 L 975.00 1396.00 L 945.00 1400.00 L 913.00 1408.00 L 879.00 1420.00 L 839.00 1438.00 L 793.00 1462.00 L 752.00 1487.00 L 716.00 1513.00 L 653.00 1563.00 L 563.00 1637.00 L 503.00 1681.00 L 473.00 1695.00 L 450.00 1703.00 L 434.00 1705.00 L 419.00 1705.00 L 405.00 1703.00 L 390.00 1696.00 L 374.00 1684.00 L 361.00 1670.00 L 351.00 1654.00 L 345.00 1641.00 L 343.00 1631.00 L 343.00 1616.00 L 345.00 1596.00 L 355.00 1566.00 L 373.00 1526.00 L 422.00 1447.00 L 502.00 1329.00 L 502.00 1328.00 L 422.00 1444.00 L 420.00 1446.00 L 496.00 1334.00 L 503.00 1322.00 L 441.00 1410.00 L 439.00 1412.00 L 497.00 1328.00 L 498.00 1325.00 L 442.00 1403.00 L 440.00 1405.00 L 492.00 1331.00 L 492.00 1328.00 L 440.00 1396.00 L 444.00 1388.00 L 504.00 1304.00 L 505.00 1301.00 L 447.00 1379.00 L 449.00 1375.00 L 511.00 1289.00 L 511.00 1287.00 L 449.00 1369.00 L 448.00 1370.00 L 508.00 1290.00 L 509.00 1288.00 L 451.00 1364.00 L 453.00 1361.00 L 515.00 1279.00 L 533.00 1250.00 L 507.00 1274.00 L 486.00 1288.00 L 470.00 1292.00 L 474.00 1279.00 L 498.00 1249.00 L 495.00 1249.00 L 465.00 1279.00 L 465.00 1277.00 L 495.00 1243.00 L 504.00 1225.00 L 492.00 1223.00 L 493.00 1215.00 L 507.00 1201.00 L 510.00 1194.00 L 502.00 1194.00 L 493.00 1198.00 L 483.00 1206.00 L 481.00 1206.00 L 487.00 1198.00 L 488.00 1195.00 L 484.00 1197.00 L 487.00 1194.00 L 497.00 1186.00 L 492.00 1174.00 L 472.00 1158.00 L 461.00 1145.00 L 459.00 1135.00 L 465.00 1126.00 L 479.00 1118.00 L 481.00 1116.00 L 471.00 1120.00 L 473.00 1117.00 L 487.00 1107.00 L 486.00 1097.00 L 470.00 1087.00 L 454.00 1080.00 L 438.00 1076.00 L 421.00 1065.00 L 403.00 1047.00 L 394.00 1034.00 L 394.00 1026.00 L 394.00 1019.00 L 394.00 1013.00 L 397.00 1001.00 Z" fill="black" stroke="black" stroke-width="1"/>
</svg>