<?xml version="1.0" encoding="UTF-8"?>
<svg xmlns="http://www.w3.org/2000/svg" viewBox="489.00 198.00 972.00 1674.00">
  <path d="M 630.00 1001.00 L 646.00 999.00 L 643.00 997.00 L 621.00 995.00 L 618.00 994.00 L 634.00 994.00 L 644.00 992.00 L 648.00 988.00 L 639.00 985.00 L 617.00 983.00 L 607.00 965.00 L 609.00 931.00 L 607.00 896.00 L 601.00 860.00 L 579.00 808.00 L 541.00 740.00 L 516.00 683.00 L 504.00 637.00 L 499.00 591.00 L 501.00 545.00 L 506.00 504.00 L 514.00 468.00 L 524.00 434.00 L 536.00 402.00 L 548.00 378.00 L 560.00 362.00 L 583.00 338.00 L 617.00 306.00 L 647.00 283.00 L 673.00 269.00 L 708.00 253.00 L 752.00 235.00 L 804.00 221.00 L 864.00 211.00 L 920.00 208.00 L 972.00 212.00 L 1013.00 219.00 L 1043.00 229.00 L 1080.00 238.00 L 1124.00 246.00 L 1154.00 254.00 L 1170.00 262.00 L 1196.00 282.00 L 1232.00 314.00 L 1255.00 332.00 L 1265.00 336.00 L 1285.00 357.00 L 1315.00 395.00 L 1330.00 422.00 L 1330.00 438.00 L 1333.00 441.00 L 1339.00 431.00 L 1339.00 433.00 L 1333.00 447.00 L 1335.00 450.00 L 1345.00 442.00 L 1346.00 445.00 L 1338.00 459.00 L 1339.00 461.00 L 1349.00 451.00 L 1350.00 453.00 L 1342.00 467.00 L 1342.00 469.00 L 1350.00 459.00 L 1350.00 461.00 L 1342.00 475.00 L 1343.00 478.00 L 1353.00 470.00 L 1354.00 473.00 L 1346.00 487.00 L 1346.00 489.00 L 1354.00 479.00 L 1354.00 481.00 L 1346.00 495.00 L 1345.00 498.00 L 1351.00 490.00 L 1352.00 492.00 L 1348.00 504.00 L 1350.00 504.00 L 1358.00 492.00 L 1358.00 494.00 L 1350.00 510.00 L 1351.00 533.00 L 1361.00 563.00 L 1362.00 594.00 L 1354.00 626.00 L 1351.00 647.00 L 1353.00 657.00 L 1372.00 689.00 L 1408.00 743.00 L 1428.00 770.00 L 1432.00 770.00 L 1439.00 777.00 L 1449.00 791.00 L 1451.00 805.00 L 1445.00 819.00 L 1426.00 833.00 L 1394.00 847.00 L 1392.00 849.00 L 1420.00 839.00 L 1421.00 841.00 L 1395.00 855.00 L 1382.00 871.00 L 1382.00 889.00 L 1384.00 901.00 L 1388.00 907.00 L 1387.00 916.00 L 1381.00 928.00 L 1381.00 939.00 L 1387.00 949.00 L 1386.00 971.00 L 1378.00 1005.00 L 1377.00 1030.00 L 1383.00 1046.00 L 1386.00 1063.00 L 1386.00 1081.00 L 1382.00 1097.00 L 1374.00 1111.00 L 1359.00 1122.00 L 1337.00 1130.00 L 1325.00 1136.00 L 1323.00 1140.00 L 1325.00 1147.00 L 1331.00 1157.00 L 1331.00 1166.00 L 1325.00 1174.00 L 1321.00 1184.00 L 1319.00 1196.00 L 1314.00 1206.00 L 1306.00 1214.00 L 1302.00 1224.00 L 1302.00 1236.00 L 1297.00 1257.00 L 1287.00 1287.00 L 1289.00 1314.00 L 1303.00 1338.00 L 1301.00 1340.00 L 1283.00 1320.00 L 1285.00 1323.00 L 1307.00 1349.00 L 1320.00 1378.00 L 1324.00 1410.00 L 1333.00 1436.00 L 1347.00 1456.00 L 1348.00 1459.00 L 1336.00 1445.00 L 1341.00 1455.00 L 1363.00 1489.00 L 1376.00 1521.00 L 1380.00 1551.00 L 1392.00 1589.00 L 1412.00 1635.00 L 1424.00 1683.00 L 1428.00 1733.00 L 1427.00 1769.00 L 1421.00 1791.00 L 1413.00 1809.00 L 1403.00 1823.00 L 1385.00 1838.00 L 1359.00 1854.00 L 1340.00 1862.00 L 1328.00 1862.00 L 1312.00 1858.00 L 1292.00 1850.00 L 1257.00 1825.00 L 1207.00 1783.00 L 1127.00 1724.00 L 1017.00 1648.00 L 929.00 1593.00 L 863.00 1559.00 L 795.00 1532.00 L 725.00 1512.00 L 693.00 1494.00 L 699.00 1478.00 L 698.00 1475.00 L 690.00 1485.00 L 690.00 1483.00 L 698.00 1469.00 L 695.00 1472.00 L 681.00 1492.00 L 674.00 1499.00 L 674.00 1493.00 L 672.00 1492.00 L 668.00 1496.00 L 673.00 1486.00 L 687.00 1462.00 L 685.00 1462.00 L 667.00 1486.00 L 659.00 1496.00 L 661.00 1492.00 L 658.00 1492.00 L 650.00 1496.00 L 655.00 1483.00 L 673.00 1453.00 L 676.00 1432.00 L 664.00 1420.00 L 649.00 1410.00 L 631.00 1402.00 L 619.00 1390.00 L 613.00 1374.00 L 607.00 1366.00 L 601.00 1366.00 L 596.00 1359.00 L 592.00 1345.00 L 593.00 1329.00 L 599.00 1311.00 L 608.00 1294.00 L 620.00 1278.00 L 626.00 1260.00 L 626.00 1240.00 L 623.00 1226.00 L 617.00 1218.00 L 613.00 1204.00 L 611.00 1184.00 L 617.00 1136.00 L 631.00 1060.00 L 640.00 1019.00 L 644.00 1013.00 L 640.00 1008.00 L 628.00 1004.00 L 630.00 1001.00 Z" fill="black" stroke="black" stroke-width="1"/>
</svg>