<?xml version="1.0" encoding="UTF-8"?>
<svg xmlns="http://www.w3.org/2000/svg" viewBox="282.00 358.00 945.00 1329.00">
  <path d="M 331.00 1006.00 L 333.00 982.00 L 320.00 961.00 L 292.00 943.00 L 299.00 903.00 L 341.00 841.00 L 360.00 785.00 L 356.00 735.00 L 366.00 683.00 L 390.00 629.00 L 399.00 591.00 L 393.00 569.00 L 396.00 562.00 L 408.00 570.00 L 410.00 568.00 L 402.00 556.00 L 402.00 548.00 L 410.00 544.00 L 419.00 520.00 L 429.00 476.00 L 459.00 463.00 L 509.00 481.00 L 562.00 492.00 L 618.00 496.00 L 646.00 469.00 L 646.00 411.00 L 650.00 410.00 L 658.00 466.00 L 661.00 463.00 L 659.00 401.00 L 663.00 398.00 L 673.00 454.00 L 676.00 454.00 L 672.00 398.00 L 673.00 396.00 L 679.00 448.00 L 682.00 448.00 L 682.00 396.00 L 684.00 394.00 L 688.00 442.00 L 689.00 443.00 L 687.00 397.00 L 688.00 395.00 L 692.00 437.00 L 694.00 439.00 L 694.00 401.00 L 697.00 390.00 L 703.00 406.00 L 707.00 404.00 L 709.00 384.00 L 717.00 372.00 L 731.00 368.00 L 740.00 383.00 L 744.00 417.00 L 747.00 421.00 L 749.00 395.00 L 750.00 396.00 L 750.00 424.00 L 755.00 441.00 L 765.00 447.00 L 780.00 445.00 L 800.00 435.00 L 830.00 433.00 L 870.00 439.00 L 907.00 437.00 L 941.00 427.00 L 987.00 428.00 L 1045.00 440.00 L 1093.00 465.00 L 1131.00 503.00 L 1167.00 572.00 L 1201.00 672.00 L 1217.00 759.00 L 1215.00 833.00 L 1204.00 905.00 L 1184.00 975.00 L 1164.00 1022.00 L 1144.00 1046.00 L 1106.00 1057.00 L 1050.00 1055.00 L 1047.00 1057.00 L 1097.00 1063.00 L 1094.00 1064.00 L 1038.00 1060.00 L 1036.00 1062.00 L 1088.00 1070.00 L 1086.00 1071.00 L 1030.00 1065.00 L 1027.00 1066.00 L 1077.00 1074.00 L 1075.00 1075.00 L 1021.00 1069.00 L 1015.00 1069.00 L 1057.00 1075.00 L 1055.00 1075.00 L 1009.00 1069.00 L 968.00 1069.00 L 932.00 1075.00 L 917.00 1079.00 L 923.00 1081.00 L 921.00 1087.00 L 911.00 1097.00 L 917.00 1123.00 L 939.00 1165.00 L 950.00 1205.00 L 950.00 1243.00 L 930.00 1244.00 L 890.00 1208.00 L 882.00 1206.00 L 906.00 1238.00 L 905.00 1243.00 L 879.00 1221.00 L 870.00 1233.00 L 878.00 1279.00 L 913.00 1361.00 L 975.00 1479.00 L 974.00 1481.00 L 910.00 1367.00 L 910.00 1371.00 L 974.00 1493.00 L 977.00 1499.00 L 919.00 1389.00 L 918.00 1392.00 L 974.00 1508.00 L 1003.00 1570.00 L 1005.00 1578.00 L 977.00 1524.00 L 919.00 1408.00 L 917.00 1405.00 L 971.00 1515.00 L 999.00 1582.00 L 1001.00 1606.00 L 998.00 1623.00 L 990.00 1633.00 L 982.00 1637.00 L 974.00 1635.00 L 966.00 1640.00 L 958.00 1652.00 L 913.00 1656.00 L 831.00 1652.00 L 742.00 1659.00 L 646.00 1677.00 L 586.00 1656.00 L 562.00 1596.00 L 527.00 1567.00 L 481.00 1569.00 L 470.00 1542.00 L 494.00 1486.00 L 491.00 1486.00 L 461.00 1542.00 L 461.00 1539.00 L 491.00 1477.00 L 489.00 1477.00 L 455.00 1539.00 L 441.00 1563.00 L 447.00 1549.00 L 442.00 1550.00 L 426.00 1566.00 L 438.00 1538.00 L 478.00 1466.00 L 477.00 1464.00 L 435.00 1532.00 L 432.00 1530.00 L 468.00 1458.00 L 478.00 1414.00 L 462.00 1398.00 L 443.00 1398.00 L 421.00 1414.00 L 405.00 1420.00 L 395.00 1416.00 L 399.00 1401.00 L 417.00 1375.00 L 416.00 1373.00 L 396.00 1395.00 L 403.00 1385.00 L 437.00 1343.00 L 436.00 1339.00 L 400.00 1373.00 L 399.00 1372.00 L 433.00 1336.00 L 434.00 1334.00 L 402.00 1366.00 L 401.00 1363.00 L 431.00 1325.00 L 437.00 1312.00 L 419.00 1324.00 L 419.00 1321.00 L 437.00 1303.00 L 440.00 1299.00 L 428.00 1309.00 L 426.00 1306.00 L 434.00 1290.00 L 434.00 1273.00 L 426.00 1255.00 L 427.00 1242.00 L 437.00 1234.00 L 438.00 1231.00 L 430.00 1233.00 L 428.00 1231.00 L 432.00 1225.00 L 411.00 1207.00 L 365.00 1177.00 L 341.00 1129.00 L 339.00 1063.00 L 336.00 1027.00 L 332.00 1021.00 L 331.00 1006.00 Z" fill="black" stroke="black" stroke-width="1"/>
</svg>