<?xml version="1.0" encoding="UTF-8"?>
<svg xmlns="http://www.w3.org/2000/svg" viewBox="413.00 230.00 817.00 1500.00">
  <path d="M 488.00 928.00 L 492.00 908.00 L 503.00 894.00 L 521.00 886.00 L 531.00 879.00 L 533.00 873.00 L 529.00 867.00 L 519.00 861.00 L 511.00 840.00 L 505.00 804.00 L 493.00 763.00 L 475.00 717.00 L 460.00 669.00 L 448.00 619.00 L 441.00 577.00 L 439.00 543.00 L 440.00 512.00 L 444.00 484.00 L 453.00 451.00 L 467.00 413.00 L 481.00 383.00 L 495.00 361.00 L 513.00 338.00 L 535.00 314.00 L 557.00 294.00 L 579.00 278.00 L 607.00 264.00 L 641.00 252.00 L 671.00 244.00 L 697.00 240.00 L 730.00 240.00 L 770.00 244.00 L 808.00 251.00 L 844.00 261.00 L 875.00 267.00 L 901.00 269.00 L 941.00 283.00 L 995.00 309.00 L 1034.00 334.00 L 1058.00 358.00 L 1068.00 377.00 L 1064.00 391.00 L 1066.00 392.00 L 1074.00 380.00 L 1077.00 382.00 L 1075.00 398.00 L 1077.00 399.00 L 1083.00 385.00 L 1083.00 386.00 L 1077.00 402.00 L 1078.00 403.00 L 1086.00 389.00 L 1087.00 392.00 L 1081.00 412.00 L 1083.00 413.00 L 1093.00 395.00 L 1095.00 397.00 L 1089.00 419.00 L 1090.00 421.00 L 1098.00 403.00 L 1099.00 405.00 L 1093.00 427.00 L 1095.00 430.00 L 1105.00 414.00 L 1106.00 417.00 L 1098.00 439.00 L 1099.00 441.00 L 1109.00 423.00 L 1111.00 426.00 L 1105.00 450.00 L 1106.00 455.00 L 1114.00 441.00 L 1117.00 439.00 L 1115.00 449.00 L 1116.00 451.00 L 1120.00 445.00 L 1118.00 450.00 L 1110.00 466.00 L 1107.00 476.00 L 1109.00 480.00 L 1115.00 475.00 L 1125.00 461.00 L 1131.00 455.00 L 1133.00 457.00 L 1129.00 467.00 L 1119.00 485.00 L 1120.00 487.00 L 1132.00 473.00 L 1134.00 476.00 L 1126.00 496.00 L 1128.00 498.00 L 1140.00 482.00 L 1141.00 484.00 L 1131.00 504.00 L 1133.00 506.00 L 1147.00 490.00 L 1148.00 492.00 L 1136.00 512.00 L 1135.00 515.00 L 1145.00 501.00 L 1146.00 503.00 L 1138.00 521.00 L 1141.00 520.00 L 1155.00 500.00 L 1161.00 493.00 L 1159.00 499.00 L 1160.00 500.00 L 1164.00 496.00 L 1160.00 506.00 L 1148.00 530.00 L 1149.00 533.00 L 1163.00 515.00 L 1164.00 516.00 L 1152.00 536.00 L 1149.00 553.00 L 1155.00 567.00 L 1159.00 591.00 L 1161.00 625.00 L 1177.00 677.00 L 1207.00 747.00 L 1220.00 790.00 L 1216.00 806.00 L 1199.00 820.00 L 1169.00 832.00 L 1167.00 834.00 L 1193.00 826.00 L 1192.00 828.00 L 1164.00 840.00 L 1150.00 864.00 L 1150.00 900.00 L 1145.00 922.00 L 1135.00 930.00 L 1128.00 941.00 L 1124.00 955.00 L 1127.00 970.00 L 1137.00 986.00 L 1141.00 1003.00 L 1139.00 1021.00 L 1133.00 1035.00 L 1123.00 1045.00 L 1110.00 1053.00 L 1094.00 1059.00 L 1086.00 1068.00 L 1086.00 1080.00 L 1076.00 1095.00 L 1056.00 1113.00 L 1050.00 1130.00 L 1058.00 1146.00 L 1056.00 1148.00 L 1044.00 1136.00 L 1043.00 1138.00 L 1053.00 1154.00 L 1051.00 1157.00 L 1037.00 1147.00 L 1049.00 1165.00 L 1087.00 1211.00 L 1091.00 1218.00 L 1061.00 1186.00 L 1059.00 1187.00 L 1085.00 1221.00 L 1085.00 1223.00 L 1059.00 1193.00 L 1056.00 1193.00 L 1076.00 1223.00 L 1067.00 1223.00 L 1029.00 1193.00 L 1025.00 1213.00 L 1055.00 1283.00 L 1061.00 1303.00 L 1043.00 1273.00 L 1043.00 1276.00 L 1061.00 1312.00 L 1071.00 1336.00 L 1073.00 1348.00 L 1089.00 1383.00 L 1119.00 1441.00 L 1119.00 1442.00 L 1089.00 1386.00 L 1091.00 1390.00 L 1125.00 1454.00 L 1125.00 1455.00 L 1091.00 1393.00 L 1092.00 1397.00 L 1128.00 1467.00 L 1128.00 1469.00 L 1092.00 1403.00 L 1093.00 1407.00 L 1131.00 1481.00 L 1153.00 1533.00 L 1159.00 1563.00 L 1160.00 1599.00 L 1156.00 1641.00 L 1144.00 1675.00 L 1124.00 1701.00 L 1105.00 1716.00 L 1087.00 1720.00 L 1066.00 1717.00 L 1042.00 1707.00 L 1016.00 1689.00 L 988.00 1663.00 L 948.00 1620.00 L 896.00 1560.00 L 859.00 1521.00 L 837.00 1503.00 L 810.00 1485.00 L 778.00 1467.00 L 739.00 1450.00 L 693.00 1434.00 L 649.00 1422.00 L 607.00 1414.00 L 545.00 1409.00 L 463.00 1407.00 L 423.00 1396.00 L 425.00 1376.00 L 434.00 1340.00 L 450.00 1288.00 L 459.00 1247.00 L 461.00 1217.00 L 468.00 1187.00 L 480.00 1157.00 L 486.00 1133.00 L 486.00 1115.00 L 482.00 1100.00 L 474.00 1088.00 L 474.00 1049.00 L 482.00 983.00 L 486.00 947.00 L 486.00 941.00 L 488.00 928.00 Z" fill="black" stroke="black" stroke-width="1"/>
</svg>