<?xml version="1.0" encoding="UTF-8"?>
<svg xmlns="http://www.w3.org/2000/svg" viewBox="354.00 249.00 924.00 1587.00">
  <path d="M 473.00 973.00 L 475.00 955.00 L 482.00 941.00 L 494.00 931.00 L 495.00 923.00 L 485.00 917.00 L 486.00 915.00 L 498.00 917.00 L 500.00 917.00 L 492.00 915.00 L 491.00 913.00 L 497.00 911.00 L 493.00 908.00 L 479.00 904.00 L 471.00 899.00 L 469.00 893.00 L 467.00 876.00 L 465.00 848.00 L 451.00 796.00 L 425.00 720.00 L 411.00 659.00 L 409.00 613.00 L 419.00 551.00 L 441.00 473.00 L 457.00 426.00 L 467.00 410.00 L 484.00 390.00 L 508.00 366.00 L 536.00 344.00 L 568.00 324.00 L 596.00 310.00 L 620.00 302.00 L 644.00 291.00 L 668.00 277.00 L 687.00 270.00 L 701.00 270.00 L 717.00 267.00 L 735.00 261.00 L 777.00 259.00 L 843.00 261.00 L 901.00 272.00 L 951.00 292.00 L 995.00 315.00 L 1033.00 341.00 L 1067.00 368.00 L 1097.00 396.00 L 1118.00 420.00 L 1130.00 440.00 L 1134.00 457.00 L 1130.00 471.00 L 1131.00 473.00 L 1137.00 463.00 L 1139.00 467.00 L 1137.00 485.00 L 1140.00 488.00 L 1148.00 476.00 L 1149.00 479.00 L 1143.00 497.00 L 1145.00 501.00 L 1155.00 491.00 L 1156.00 493.00 L 1148.00 507.00 L 1147.00 511.00 L 1153.00 505.00 L 1157.00 504.00 L 1159.00 508.00 L 1158.00 513.00 L 1154.00 519.00 L 1156.00 516.00 L 1164.00 504.00 L 1169.00 499.00 L 1171.00 501.00 L 1168.00 509.00 L 1160.00 523.00 L 1161.00 525.00 L 1171.00 515.00 L 1173.00 518.00 L 1167.00 534.00 L 1168.00 537.00 L 1176.00 527.00 L 1177.00 529.00 L 1171.00 543.00 L 1172.00 545.00 L 1180.00 535.00 L 1181.00 537.00 L 1175.00 551.00 L 1175.00 556.00 L 1181.00 552.00 L 1182.00 554.00 L 1178.00 562.00 L 1177.00 577.00 L 1179.00 599.00 L 1177.00 620.00 L 1171.00 640.00 L 1169.00 656.00 L 1171.00 668.00 L 1186.00 688.00 L 1214.00 716.00 L 1238.00 745.00 L 1258.00 775.00 L 1268.00 792.00 L 1268.00 796.00 L 1252.00 807.00 L 1220.00 825.00 L 1220.00 828.00 L 1252.00 816.00 L 1250.00 818.00 L 1214.00 834.00 L 1213.00 835.00 L 1247.00 821.00 L 1255.00 818.00 L 1237.00 826.00 L 1235.00 828.00 L 1249.00 824.00 L 1240.00 831.00 L 1208.00 849.00 L 1194.00 868.00 L 1198.00 888.00 L 1199.00 906.00 L 1197.00 922.00 L 1192.00 936.00 L 1184.00 948.00 L 1184.00 966.00 L 1192.00 990.00 L 1193.00 1010.00 L 1187.00 1026.00 L 1161.00 1045.00 L 1115.00 1067.00 L 1099.00 1086.00 L 1113.00 1102.00 L 1101.00 1131.00 L 1063.00 1173.00 L 1043.00 1199.00 L 1041.00 1209.00 L 1037.00 1216.00 L 1031.00 1220.00 L 1035.00 1236.00 L 1049.00 1264.00 L 1055.00 1284.00 L 1053.00 1296.00 L 1060.00 1316.00 L 1076.00 1344.00 L 1077.00 1348.00 L 1063.00 1328.00 L 1064.00 1330.00 L 1080.00 1354.00 L 1078.00 1352.00 L 1058.00 1324.00 L 1058.00 1327.00 L 1078.00 1361.00 L 1088.00 1384.00 L 1088.00 1396.00 L 1100.00 1428.00 L 1124.00 1480.00 L 1143.00 1530.00 L 1157.00 1578.00 L 1166.00 1625.00 L 1170.00 1671.00 L 1170.00 1705.00 L 1166.00 1727.00 L 1158.00 1753.00 L 1146.00 1783.00 L 1129.00 1805.00 L 1107.00 1819.00 L 1087.00 1826.00 L 1069.00 1826.00 L 1053.00 1823.00 L 1039.00 1817.00 L 973.00 1757.00 L 855.00 1643.00 L 777.00 1572.00 L 739.00 1544.00 L 693.00 1515.00 L 639.00 1485.00 L 597.00 1464.00 L 567.00 1452.00 L 533.00 1442.00 L 495.00 1434.00 L 448.00 1429.00 L 392.00 1427.00 L 364.00 1418.00 L 364.00 1402.00 L 368.00 1379.00 L 376.00 1349.00 L 384.00 1322.00 L 392.00 1298.00 L 403.00 1274.00 L 417.00 1250.00 L 426.00 1226.00 L 430.00 1202.00 L 439.00 1176.00 L 453.00 1148.00 L 456.00 1128.00 L 448.00 1116.00 L 444.00 1103.00 L 444.00 1089.00 L 450.00 1060.00 L 462.00 1016.00 L 469.00 991.00 L 471.00 985.00 L 473.00 973.00 Z" fill="black" stroke="black" stroke-width="1"/>
</svg>