<?xml version="1.0" encoding="UTF-8"?>
<svg xmlns="http://www.w3.org/2000/svg" viewBox="375.00 294.00 833.00 1496.00">
  <path d="M 582.00 1034.00 L 566.00 1026.00 L 566.00 1022.00 L 582.00 1022.00 L 578.00 1018.00 L 554.00 1010.00 L 548.00 1000.00 L 560.00 988.00 L 540.00 973.00 L 488.00 955.00 L 489.00 952.00 L 543.00 964.00 L 542.00 962.00 L 486.00 946.00 L 486.00 944.00 L 542.00 956.00 L 540.00 953.00 L 480.00 935.00 L 479.00 933.00 L 537.00 947.00 L 530.00 939.00 L 458.00 909.00 L 415.00 884.00 L 401.00 864.00 L 391.00 836.00 L 385.00 800.00 L 388.00 734.00 L 400.00 638.00 L 429.00 550.00 L 475.00 470.00 L 515.00 411.00 L 549.00 373.00 L 585.00 341.00 L 623.00 315.00 L 676.00 304.00 L 744.00 308.00 L 808.00 319.00 L 868.00 337.00 L 930.00 371.00 L 994.00 421.00 L 1056.00 452.00 L 1116.00 464.00 L 1150.00 476.00 L 1158.00 488.00 L 1154.00 510.00 L 1138.00 542.00 L 1139.00 545.00 L 1157.00 519.00 L 1158.00 522.00 L 1142.00 554.00 L 1138.00 564.00 L 1146.00 552.00 L 1149.00 572.00 L 1147.00 624.00 L 1150.00 646.00 L 1158.00 638.00 L 1158.00 642.00 L 1150.00 658.00 L 1151.00 661.00 L 1161.00 651.00 L 1162.00 652.00 L 1154.00 664.00 L 1155.00 667.00 L 1165.00 661.00 L 1165.00 664.00 L 1155.00 676.00 L 1155.00 678.00 L 1165.00 670.00 L 1165.00 673.00 L 1155.00 687.00 L 1155.00 690.00 L 1165.00 682.00 L 1165.00 684.00 L 1155.00 696.00 L 1155.00 699.00 L 1165.00 693.00 L 1164.00 709.00 L 1152.00 747.00 L 1163.00 803.00 L 1197.00 877.00 L 1198.00 925.00 L 1166.00 947.00 L 1151.00 969.00 L 1153.00 991.00 L 1145.00 1014.00 L 1127.00 1038.00 L 1119.00 1072.00 L 1121.00 1116.00 L 1095.00 1147.00 L 1041.00 1165.00 L 1015.00 1177.00 L 1017.00 1183.00 L 1014.00 1183.00 L 1006.00 1177.00 L 1010.00 1181.00 L 1026.00 1195.00 L 1024.00 1195.00 L 1004.00 1181.00 L 1004.00 1184.00 L 1024.00 1204.00 L 1031.00 1216.00 L 1025.00 1220.00 L 1016.00 1216.00 L 1004.00 1204.00 L 1008.00 1212.00 L 1028.00 1240.00 L 1020.00 1236.00 L 984.00 1200.00 L 980.00 1203.00 L 1008.00 1245.00 L 1006.00 1246.00 L 974.00 1206.00 L 972.00 1205.00 L 1000.00 1243.00 L 1002.00 1247.00 L 978.00 1217.00 L 969.00 1207.00 L 975.00 1217.00 L 969.00 1217.00 L 951.00 1207.00 L 1002.00 1302.00 L 1122.00 1502.00 L 1175.00 1592.00 L 1161.00 1572.00 L 1163.00 1577.00 L 1181.00 1607.00 L 1178.00 1603.00 L 1154.00 1565.00 L 1156.00 1570.00 L 1184.00 1618.00 L 1183.00 1617.00 L 1153.00 1567.00 L 1154.00 1569.00 L 1186.00 1623.00 L 1184.00 1621.00 L 1148.00 1563.00 L 1148.00 1566.00 L 1184.00 1630.00 L 1164.00 1598.00 L 1088.00 1470.00 L 1088.00 1473.00 L 1164.00 1607.00 L 1163.00 1606.00 L 1085.00 1470.00 L 1086.00 1472.00 L 1166.00 1612.00 L 1139.00 1565.00 L 1005.00 1331.00 L 1004.00 1335.00 L 1136.00 1577.00 L 1151.00 1606.00 L 1049.00 1422.00 L 1049.00 1425.00 L 1151.00 1615.00 L 1150.00 1614.00 L 1046.00 1422.00 L 1045.00 1424.00 L 1147.00 1620.00 L 1133.00 1595.00 L 1003.00 1349.00 L 1002.00 1353.00 L 1130.00 1607.00 L 1130.00 1609.00 L 1002.00 1359.00 L 1001.00 1361.00 L 1127.00 1615.00 L 1128.00 1618.00 L 1004.00 1370.00 L 1003.00 1373.00 L 1125.00 1627.00 L 1129.00 1637.00 L 1015.00 1403.00 L 1014.00 1405.00 L 1126.00 1643.00 L 1179.00 1765.00 L 1173.00 1771.00 L 1164.00 1776.00 L 1152.00 1780.00 L 1089.00 1734.00 L 975.00 1638.00 L 879.00 1568.00 L 801.00 1524.00 L 719.00 1488.00 L 633.00 1460.00 L 553.00 1446.00 L 479.00 1446.00 L 444.00 1422.00 L 448.00 1374.00 L 459.00 1321.00 L 477.00 1263.00 L 500.00 1204.00 L 528.00 1144.00 L 550.00 1111.00 L 566.00 1105.00 L 568.00 1102.00 L 556.00 1102.00 L 557.00 1099.00 L 571.00 1093.00 L 580.00 1080.00 L 584.00 1060.00 L 587.00 1047.00 L 589.00 1041.00 L 582.00 1034.00 Z" fill="black" stroke="black" stroke-width="1"/>
</svg>