<?xml version="1.0" encoding="UTF-8"?>
<svg xmlns="http://www.w3.org/2000/svg" viewBox="443.00 220.00 935.00 1618.00">
  <path d="M 478.00 1002.00 L 462.00 1002.00 L 465.00 996.00 L 487.00 984.00 L 503.00 954.00 L 513.00 906.00 L 520.00 854.00 L 524.00 798.00 L 522.00 727.00 L 514.00 641.00 L 512.00 567.00 L 516.00 505.00 L 527.00 448.00 L 545.00 396.00 L 567.00 356.00 L 593.00 328.00 L 617.00 305.00 L 639.00 287.00 L 665.00 271.00 L 695.00 257.00 L 725.00 247.00 L 755.00 241.00 L 790.00 240.00 L 830.00 244.00 L 877.00 241.00 L 931.00 231.00 L 983.00 230.00 L 1033.00 238.00 L 1075.00 249.00 L 1109.00 263.00 L 1142.00 279.00 L 1174.00 297.00 L 1202.00 317.00 L 1226.00 339.00 L 1236.00 361.00 L 1232.00 383.00 L 1235.00 388.00 L 1245.00 376.00 L 1248.00 381.00 L 1244.00 403.00 L 1247.00 408.00 L 1257.00 396.00 L 1259.00 399.00 L 1253.00 417.00 L 1255.00 420.00 L 1265.00 408.00 L 1266.00 410.00 L 1258.00 426.00 L 1258.00 428.00 L 1266.00 416.00 L 1269.00 421.00 L 1267.00 443.00 L 1269.00 450.00 L 1275.00 442.00 L 1275.00 445.00 L 1269.00 459.00 L 1270.00 462.00 L 1278.00 454.00 L 1278.00 457.00 L 1270.00 471.00 L 1271.00 473.00 L 1281.00 463.00 L 1282.00 466.00 L 1274.00 482.00 L 1275.00 484.00 L 1285.00 472.00 L 1285.00 476.00 L 1275.00 496.00 L 1276.00 498.00 L 1288.00 482.00 L 1289.00 485.00 L 1279.00 507.00 L 1279.00 532.00 L 1289.00 560.00 L 1291.00 591.00 L 1285.00 625.00 L 1302.00 672.00 L 1342.00 732.00 L 1364.00 771.00 L 1368.00 789.00 L 1351.00 808.00 L 1313.00 828.00 L 1312.00 832.00 L 1348.00 820.00 L 1347.00 823.00 L 1309.00 841.00 L 1304.00 845.00 L 1332.00 835.00 L 1332.00 839.00 L 1304.00 857.00 L 1290.00 874.00 L 1290.00 890.00 L 1285.00 903.00 L 1275.00 913.00 L 1271.00 925.00 L 1273.00 939.00 L 1269.00 957.00 L 1259.00 979.00 L 1255.00 1001.00 L 1257.00 1023.00 L 1253.00 1043.00 L 1243.00 1061.00 L 1217.00 1076.00 L 1175.00 1088.00 L 1162.00 1101.00 L 1178.00 1115.00 L 1172.00 1137.00 L 1144.00 1167.00 L 1137.00 1190.00 L 1151.00 1206.00 L 1149.00 1207.00 L 1131.00 1193.00 L 1132.00 1196.00 L 1152.00 1216.00 L 1150.00 1218.00 L 1126.00 1202.00 L 1124.00 1205.00 L 1144.00 1227.00 L 1149.00 1237.00 L 1139.00 1235.00 L 1147.00 1254.00 L 1173.00 1294.00 L 1180.00 1314.00 L 1168.00 1314.00 L 1148.00 1299.00 L 1120.00 1269.00 L 1113.00 1264.00 L 1127.00 1284.00 L 1124.00 1282.00 L 1104.00 1258.00 L 1123.00 1289.00 L 1181.00 1375.00 L 1180.00 1374.00 L 1120.00 1286.00 L 1121.00 1289.00 L 1183.00 1383.00 L 1186.00 1388.00 L 1130.00 1304.00 L 1131.00 1306.00 L 1189.00 1394.00 L 1207.00 1423.00 L 1185.00 1393.00 L 1186.00 1397.00 L 1210.00 1435.00 L 1191.00 1407.00 L 1129.00 1313.00 L 1129.00 1315.00 L 1191.00 1413.00 L 1206.00 1438.00 L 1174.00 1390.00 L 1174.00 1393.00 L 1206.00 1447.00 L 1202.00 1444.00 L 1162.00 1384.00 L 1162.00 1387.00 L 1202.00 1453.00 L 1195.00 1442.00 L 1141.00 1354.00 L 1144.00 1360.00 L 1204.00 1460.00 L 1202.00 1457.00 L 1138.00 1351.00 L 1141.00 1357.00 L 1211.00 1475.00 L 1207.00 1469.00 L 1129.00 1339.00 L 1137.00 1358.00 L 1231.00 1526.00 L 1229.00 1525.00 L 1131.00 1355.00 L 1132.00 1361.00 L 1232.00 1543.00 L 1283.00 1665.00 L 1285.00 1727.00 L 1277.00 1772.00 L 1259.00 1800.00 L 1242.00 1818.00 L 1226.00 1826.00 L 1208.00 1828.00 L 1188.00 1824.00 L 1140.00 1775.00 L 1064.00 1681.00 L 1003.00 1613.00 L 957.00 1571.00 L 912.00 1535.00 L 868.00 1505.00 L 818.00 1480.00 L 762.00 1460.00 L 713.00 1446.00 L 671.00 1438.00 L 610.00 1439.00 L 530.00 1449.00 L 487.00 1449.00 L 481.00 1439.00 L 478.00 1417.00 L 478.00 1383.00 L 486.00 1343.00 L 502.00 1297.00 L 502.00 1270.00 L 486.00 1262.00 L 478.00 1254.00 L 478.00 1246.00 L 483.00 1235.00 L 493.00 1221.00 L 500.00 1202.00 L 504.00 1178.00 L 504.00 1154.00 L 500.00 1130.00 L 488.00 1118.00 L 468.00 1118.00 L 467.00 1115.00 L 485.00 1109.00 L 482.00 1107.00 L 458.00 1109.00 L 458.00 1106.00 L 482.00 1098.00 L 481.00 1095.00 L 455.00 1097.00 L 455.00 1094.00 L 481.00 1086.00 L 481.00 1083.00 L 455.00 1085.00 L 454.00 1083.00 L 478.00 1077.00 L 479.00 1074.00 L 457.00 1074.00 L 457.00 1071.00 L 479.00 1065.00 L 481.00 1063.00 L 463.00 1065.00 L 456.00 1062.00 L 460.00 1054.00 L 459.00 1040.00 L 453.00 1020.00 L 459.00 1008.00 L 477.00 1004.00 L 478.00 1002.00 Z" fill="black" stroke="black" stroke-width="1"/>
</svg>