<?xml version="1.0" encoding="UTF-8"?>
<svg xmlns="http://www.w3.org/2000/svg" viewBox="445.00 224.00 860.00 1477.00">
  <path d="M 519.00 956.00 L 517.00 944.00 L 512.00 935.00 L 504.00 929.00 L 503.00 913.00 L 509.00 887.00 L 502.00 870.00 L 482.00 862.00 L 481.00 860.00 L 499.00 864.00 L 497.00 862.00 L 475.00 854.00 L 461.00 842.00 L 455.00 826.00 L 476.00 785.00 L 524.00 719.00 L 540.00 672.00 L 524.00 644.00 L 525.00 640.00 L 543.00 660.00 L 540.00 654.00 L 516.00 622.00 L 516.00 619.00 L 540.00 645.00 L 540.00 643.00 L 516.00 613.00 L 510.00 604.00 L 522.00 616.00 L 522.00 614.00 L 510.00 598.00 L 516.00 604.00 L 540.00 632.00 L 540.00 630.00 L 516.00 598.00 L 516.00 596.00 L 540.00 624.00 L 541.00 622.00 L 519.00 590.00 L 519.00 587.00 L 541.00 613.00 L 543.00 610.00 L 525.00 578.00 L 526.00 573.00 L 546.00 595.00 L 548.00 593.00 L 532.00 567.00 L 532.00 565.00 L 548.00 587.00 L 551.00 590.00 L 541.00 574.00 L 542.00 572.00 L 554.00 584.00 L 553.00 578.00 L 539.00 554.00 L 539.00 551.00 L 553.00 569.00 L 554.00 565.00 L 542.00 539.00 L 543.00 536.00 L 557.00 556.00 L 557.00 551.00 L 543.00 521.00 L 544.00 518.00 L 560.00 542.00 L 560.00 539.00 L 544.00 509.00 L 545.00 508.00 L 563.00 536.00 L 564.00 534.00 L 548.00 502.00 L 549.00 499.00 L 567.00 525.00 L 568.00 522.00 L 552.00 490.00 L 553.00 487.00 L 571.00 513.00 L 575.00 509.00 L 565.00 475.00 L 573.00 449.00 L 599.00 431.00 L 617.00 410.00 L 627.00 386.00 L 646.00 366.00 L 674.00 350.00 L 694.00 334.00 L 706.00 318.00 L 720.00 307.00 L 736.00 301.00 L 752.00 290.00 L 768.00 274.00 L 788.00 266.00 L 812.00 266.00 L 833.00 259.00 L 851.00 245.00 L 877.00 237.00 L 911.00 235.00 L 935.00 237.00 L 949.00 243.00 L 967.00 242.00 L 989.00 234.00 L 1030.00 234.00 L 1090.00 242.00 L 1149.00 270.00 L 1207.00 318.00 L 1249.00 372.00 L 1275.00 432.00 L 1290.00 477.00 L 1294.00 507.00 L 1295.00 545.00 L 1293.00 591.00 L 1286.00 640.00 L 1274.00 692.00 L 1252.00 755.00 L 1220.00 829.00 L 1174.00 898.00 L 1114.00 962.00 L 1074.00 995.00 L 1054.00 997.00 L 1051.00 1000.00 L 1065.00 1004.00 L 1065.00 1006.00 L 1051.00 1006.00 L 1049.00 1007.00 L 1059.00 1009.00 L 1058.00 1012.00 L 1046.00 1016.00 L 1038.00 1025.00 L 1034.00 1039.00 L 1034.00 1089.00 L 1038.00 1175.00 L 1057.00 1261.00 L 1091.00 1347.00 L 1117.00 1426.00 L 1135.00 1498.00 L 1142.00 1536.00 L 1138.00 1540.00 L 1110.00 1535.00 L 1058.00 1521.00 L 1016.00 1514.00 L 984.00 1514.00 L 940.00 1520.00 L 884.00 1532.00 L 823.00 1554.00 L 757.00 1586.00 L 691.00 1626.00 L 625.00 1674.00 L 621.00 1601.00 L 679.00 1407.00 L 676.00 1410.00 L 612.00 1610.00 L 612.00 1607.00 L 676.00 1401.00 L 672.00 1404.00 L 600.00 1616.00 L 600.00 1613.00 L 672.00 1395.00 L 669.00 1397.00 L 591.00 1619.00 L 577.00 1657.00 L 627.00 1511.00 L 622.00 1516.00 L 562.00 1672.00 L 575.00 1631.00 L 661.00 1393.00 L 658.00 1396.00 L 566.00 1640.00 L 566.00 1637.00 L 658.00 1387.00 L 656.00 1389.00 L 560.00 1643.00 L 560.00 1642.00 L 656.00 1386.00 L 654.00 1387.00 L 554.00 1645.00 L 554.00 1642.00 L 654.00 1378.00 L 651.00 1377.00 L 545.00 1639.00 L 545.00 1637.00 L 651.00 1371.00 L 650.00 1368.00 L 542.00 1628.00 L 514.00 1691.00 L 566.00 1557.00 L 564.00 1554.00 L 508.00 1682.00 L 535.00 1617.00 L 645.00 1359.00 L 643.00 1357.00 L 529.00 1611.00 L 529.00 1608.00 L 643.00 1348.00 L 640.00 1343.00 L 520.00 1593.00 L 481.00 1672.00 L 523.00 1580.00 L 522.00 1577.00 L 478.00 1663.00 L 472.00 1669.00 L 504.00 1595.00 L 564.00 1470.00 L 652.00 1294.00 L 635.00 1328.00 L 513.00 1572.00 L 467.00 1662.00 L 497.00 1598.00 L 497.00 1593.00 L 467.00 1647.00 L 464.00 1650.00 L 488.00 1602.00 L 488.00 1599.00 L 464.00 1641.00 L 461.00 1644.00 L 479.00 1608.00 L 481.00 1603.00 L 467.00 1629.00 L 518.00 1530.00 L 634.00 1306.00 L 682.00 1174.00 L 662.00 1134.00 L 626.00 1103.00 L 574.00 1081.00 L 543.00 1060.00 L 533.00 1040.00 L 530.00 1021.00 L 534.00 1003.00 L 534.00 989.00 L 530.00 979.00 L 526.00 971.00 L 522.00 965.00 L 519.00 956.00 Z" fill="black" stroke="black" stroke-width="1"/>
</svg>