<?xml version="1.0" encoding="UTF-8"?>
<svg xmlns="http://www.w3.org/2000/svg" viewBox="385.00 282.00 827.00 1411.00">
  <path d="M 495.00 952.00 L 497.00 940.00 L 492.00 927.00 L 480.00 913.00 L 474.00 903.00 L 474.00 897.00 L 469.00 890.00 L 459.00 882.00 L 455.00 866.00 L 457.00 842.00 L 445.00 823.00 L 419.00 809.00 L 418.00 807.00 L 442.00 817.00 L 440.00 815.00 L 412.00 801.00 L 397.00 789.00 L 395.00 779.00 L 414.00 749.00 L 454.00 699.00 L 476.00 667.00 L 480.00 653.00 L 479.00 633.00 L 473.00 607.00 L 474.00 586.00 L 482.00 570.00 L 483.00 555.00 L 477.00 541.00 L 479.00 539.00 L 489.00 549.00 L 490.00 547.00 L 482.00 533.00 L 480.00 528.00 L 484.00 532.00 L 486.00 531.00 L 486.00 525.00 L 490.00 528.00 L 498.00 540.00 L 499.00 539.00 L 493.00 525.00 L 494.00 523.00 L 502.00 533.00 L 504.00 531.00 L 500.00 517.00 L 502.00 515.00 L 510.00 525.00 L 511.00 523.00 L 505.00 509.00 L 506.00 507.00 L 514.00 517.00 L 517.00 517.00 L 515.00 507.00 L 516.00 505.00 L 520.00 511.00 L 518.00 507.00 L 510.00 493.00 L 506.00 484.00 L 506.00 480.00 L 511.00 485.00 L 521.00 499.00 L 522.00 497.00 L 514.00 479.00 L 512.00 473.00 L 516.00 479.00 L 517.00 477.00 L 515.00 467.00 L 520.00 470.00 L 532.00 486.00 L 535.00 482.00 L 529.00 458.00 L 531.00 455.00 L 541.00 473.00 L 544.00 471.00 L 540.00 449.00 L 543.00 446.00 L 553.00 462.00 L 554.00 461.00 L 546.00 443.00 L 547.00 442.00 L 557.00 458.00 L 559.00 457.00 L 553.00 439.00 L 555.00 428.00 L 565.00 424.00 L 584.00 406.00 L 612.00 374.00 L 636.00 356.00 L 656.00 352.00 L 677.00 344.00 L 699.00 332.00 L 731.00 319.00 L 773.00 305.00 L 809.00 298.00 L 839.00 298.00 L 860.00 296.00 L 872.00 292.00 L 910.00 294.00 L 974.00 302.00 L 1019.00 312.00 L 1045.00 324.00 L 1076.00 347.00 L 1112.00 381.00 L 1145.00 430.00 L 1175.00 494.00 L 1194.00 550.00 L 1202.00 598.00 L 1201.00 642.00 L 1191.00 682.00 L 1172.00 731.00 L 1144.00 789.00 L 1120.00 832.00 L 1100.00 860.00 L 1087.00 889.00 L 1081.00 919.00 L 1071.00 935.00 L 1057.00 937.00 L 1057.00 939.00 L 1071.00 941.00 L 1071.00 943.00 L 1057.00 945.00 L 1054.00 947.00 L 1062.00 949.00 L 1064.00 951.00 L 1060.00 953.00 L 1061.00 974.00 L 1067.00 1014.00 L 1074.00 1045.00 L 1082.00 1067.00 L 1082.00 1088.00 L 1074.00 1108.00 L 1079.00 1136.00 L 1097.00 1172.00 L 1113.00 1199.00 L 1127.00 1217.00 L 1147.00 1258.00 L 1173.00 1322.00 L 1188.00 1365.00 L 1192.00 1387.00 L 1194.00 1405.00 L 1194.00 1419.00 L 1192.00 1428.00 L 1188.00 1432.00 L 1172.00 1428.00 L 1144.00 1416.00 L 1110.00 1406.00 L 1070.00 1398.00 L 1029.00 1393.00 L 987.00 1391.00 L 952.00 1393.00 L 924.00 1399.00 L 890.00 1410.00 L 850.00 1426.00 L 815.00 1444.00 L 785.00 1464.00 L 752.00 1488.00 L 716.00 1516.00 L 678.00 1552.00 L 638.00 1596.00 L 604.00 1630.00 L 576.00 1654.00 L 548.00 1671.00 L 520.00 1681.00 L 495.00 1683.00 L 473.00 1677.00 L 457.00 1670.00 L 447.00 1662.00 L 439.00 1650.00 L 433.00 1634.00 L 428.00 1612.00 L 424.00 1584.00 L 425.00 1556.00 L 431.00 1528.00 L 433.00 1515.00 L 431.00 1517.00 L 441.00 1487.00 L 463.00 1425.00 L 473.00 1395.00 L 471.00 1397.00 L 493.00 1358.00 L 539.00 1278.00 L 551.00 1252.00 L 529.00 1280.00 L 526.00 1282.00 L 542.00 1258.00 L 544.00 1253.00 L 532.00 1267.00 L 533.00 1262.00 L 547.00 1238.00 L 556.00 1216.00 L 560.00 1196.00 L 558.00 1182.00 L 550.00 1174.00 L 546.00 1166.00 L 546.00 1158.00 L 536.00 1138.00 L 516.00 1106.00 L 505.00 1085.00 L 503.00 1075.00 L 504.00 1066.00 L 508.00 1058.00 L 515.00 1051.00 L 525.00 1045.00 L 521.00 1034.00 L 503.00 1018.00 L 492.00 1006.00 L 488.00 998.00 L 487.00 988.00 L 489.00 976.00 L 491.00 967.00 L 493.00 961.00 L 495.00 952.00 Z" fill="black" stroke="black" stroke-width="1"/>
</svg>