<?xml version="1.0" encoding="UTF-8"?>
<svg xmlns="http://www.w3.org/2000/svg" viewBox="289.00 299.00 795.00 1355.00">
  <path d="M 391.00 958.00 L 385.00 918.00 L 366.00 863.00 L 334.00 793.00 L 313.00 736.00 L 303.00 692.00 L 299.00 647.00 L 301.00 601.00 L 311.00 552.00 L 329.00 500.00 L 359.00 449.00 L 401.00 399.00 L 437.00 364.00 L 467.00 344.00 L 497.00 329.00 L 527.00 319.00 L 548.00 315.00 L 560.00 317.00 L 577.00 315.00 L 599.00 309.00 L 624.00 309.00 L 652.00 315.00 L 679.00 317.00 L 705.00 315.00 L 737.00 321.00 L 775.00 335.00 L 810.00 354.00 L 842.00 378.00 L 864.00 400.00 L 876.00 420.00 L 892.00 438.00 L 912.00 454.00 L 920.00 470.00 L 916.00 486.00 L 917.00 487.00 L 923.00 473.00 L 924.00 473.00 L 920.00 487.00 L 921.00 488.00 L 927.00 476.00 L 931.00 471.00 L 933.00 473.00 L 931.00 482.00 L 925.00 498.00 L 926.00 499.00 L 934.00 485.00 L 936.00 487.00 L 932.00 505.00 L 934.00 507.00 L 942.00 493.00 L 943.00 494.00 L 937.00 510.00 L 938.00 512.00 L 946.00 500.00 L 947.00 501.00 L 941.00 515.00 L 942.00 517.00 L 950.00 507.00 L 952.00 510.00 L 948.00 526.00 L 949.00 529.00 L 955.00 519.00 L 956.00 520.00 L 952.00 532.00 L 961.00 561.00 L 983.00 607.00 L 994.00 654.00 L 994.00 702.00 L 1014.00 749.00 L 1054.00 795.00 L 1074.00 821.00 L 1074.00 827.00 L 1068.00 834.00 L 1056.00 842.00 L 1053.00 845.00 L 1059.00 843.00 L 1052.00 847.00 L 1032.00 857.00 L 1027.00 860.00 L 1037.00 856.00 L 1037.00 858.00 L 1027.00 866.00 L 1027.00 882.00 L 1037.00 906.00 L 1038.00 923.00 L 1030.00 933.00 L 1028.00 941.00 L 1032.00 947.00 L 1033.00 955.00 L 1031.00 965.00 L 1025.00 976.00 L 1015.00 988.00 L 1011.00 1008.00 L 1013.00 1036.00 L 1012.00 1056.00 L 1008.00 1068.00 L 1000.00 1080.00 L 988.00 1092.00 L 969.00 1101.00 L 943.00 1107.00 L 934.00 1114.00 L 942.00 1122.00 L 946.00 1129.00 L 946.00 1135.00 L 935.00 1148.00 L 913.00 1168.00 L 905.00 1185.00 L 911.00 1199.00 L 908.00 1201.00 L 896.00 1191.00 L 896.00 1193.00 L 908.00 1207.00 L 907.00 1208.00 L 893.00 1196.00 L 891.00 1198.00 L 901.00 1214.00 L 899.00 1219.00 L 885.00 1213.00 L 893.00 1231.00 L 923.00 1273.00 L 921.00 1272.00 L 887.00 1228.00 L 885.00 1229.00 L 915.00 1275.00 L 917.00 1281.00 L 891.00 1247.00 L 887.00 1245.00 L 905.00 1275.00 L 910.00 1287.00 L 902.00 1281.00 L 889.00 1264.00 L 871.00 1236.00 L 870.00 1235.00 L 886.00 1261.00 L 887.00 1263.00 L 873.00 1241.00 L 872.00 1240.00 L 884.00 1260.00 L 889.00 1269.00 L 887.00 1267.00 L 879.00 1255.00 L 865.00 1233.00 L 873.00 1248.00 L 903.00 1300.00 L 903.00 1302.00 L 873.00 1254.00 L 874.00 1258.00 L 906.00 1314.00 L 907.00 1317.00 L 877.00 1267.00 L 892.00 1299.00 L 952.00 1413.00 L 967.00 1443.00 L 937.00 1389.00 L 938.00 1392.00 L 970.00 1452.00 L 959.00 1433.00 L 905.00 1335.00 L 909.00 1346.00 L 971.00 1466.00 L 966.00 1459.00 L 894.00 1325.00 L 895.00 1329.00 L 969.00 1471.00 L 972.00 1477.00 L 904.00 1347.00 L 905.00 1352.00 L 975.00 1492.00 L 973.00 1490.00 L 899.00 1346.00 L 900.00 1349.00 L 976.00 1499.00 L 1014.00 1579.00 L 1014.00 1589.00 L 974.00 1513.00 L 894.00 1351.00 L 893.00 1354.00 L 971.00 1522.00 L 1006.00 1614.00 L 998.00 1630.00 L 984.00 1640.00 L 964.00 1644.00 L 945.00 1643.00 L 927.00 1637.00 L 864.00 1590.00 L 756.00 1502.00 L 684.00 1450.00 L 648.00 1434.00 L 604.00 1421.00 L 552.00 1411.00 L 480.00 1409.00 L 388.00 1415.00 L 344.00 1402.00 L 348.00 1370.00 L 359.00 1326.00 L 377.00 1270.00 L 381.00 1233.00 L 371.00 1215.00 L 371.00 1168.00 L 381.00 1092.00 L 392.00 1047.00 L 404.00 1033.00 L 410.00 1020.00 L 410.00 1008.00 L 408.00 1001.00 L 404.00 999.00 L 404.00 997.00 L 408.00 995.00 L 406.00 993.00 L 398.00 991.00 L 394.00 987.00 L 394.00 981.00 L 391.00 958.00 Z" fill="black" stroke="black" stroke-width="1"/>
</svg>