<?xml version="1.0" encoding="UTF-8"?>
<svg xmlns="http://www.w3.org/2000/svg" viewBox="275.00 203.00 958.00 1547.00">
  <path d="M 530.00 974.00 L 538.00 962.00 L 541.00 951.00 L 539.00 941.00 L 473.00 832.00 L 343.00 624.00 L 285.00 511.00 L 299.00 493.00 L 356.00 451.00 L 456.00 385.00 L 518.00 342.00 L 542.00 322.00 L 581.00 294.00 L 635.00 258.00 L 679.00 232.00 L 713.00 216.00 L 738.00 213.00 L 754.00 223.00 L 812.00 285.00 L 912.00 399.00 L 983.00 489.00 L 1025.00 555.00 L 1082.00 595.00 L 1154.00 609.00 L 1174.00 634.00 L 1142.00 670.00 L 1147.00 671.00 L 1189.00 637.00 L 1189.00 639.00 L 1147.00 677.00 L 1149.00 678.00 L 1195.00 642.00 L 1196.00 644.00 L 1152.00 684.00 L 1154.00 684.00 L 1202.00 644.00 L 1210.00 638.00 L 1178.00 666.00 L 1180.00 667.00 L 1216.00 641.00 L 1209.00 649.00 L 1159.00 691.00 L 1161.00 692.00 L 1215.00 652.00 L 1215.00 654.00 L 1161.00 698.00 L 1150.00 709.00 L 1182.00 687.00 L 1182.00 689.00 L 1150.00 715.00 L 1163.00 706.00 L 1221.00 662.00 L 1220.00 664.00 L 1160.00 712.00 L 1161.00 714.00 L 1223.00 670.00 L 1222.00 673.00 L 1158.00 723.00 L 1158.00 726.00 L 1222.00 682.00 L 1222.00 684.00 L 1158.00 732.00 L 1126.00 766.00 L 1126.00 786.00 L 1145.00 823.00 L 1183.00 877.00 L 1198.00 910.00 L 1190.00 922.00 L 1179.00 932.00 L 1165.00 940.00 L 1158.00 951.00 L 1158.00 965.00 L 1161.00 977.00 L 1167.00 987.00 L 1167.00 997.00 L 1161.00 1007.00 L 1159.00 1014.00 L 1161.00 1018.00 L 1156.00 1027.00 L 1144.00 1041.00 L 1142.00 1054.00 L 1150.00 1066.00 L 1154.00 1081.00 L 1154.00 1099.00 L 1148.00 1115.00 L 1136.00 1129.00 L 1118.00 1142.00 L 1094.00 1154.00 L 1086.00 1165.00 L 1094.00 1175.00 L 1091.00 1187.00 L 1077.00 1201.00 L 1062.00 1225.00 L 1046.00 1259.00 L 1050.00 1293.00 L 1074.00 1327.00 L 1074.00 1331.00 L 1050.00 1305.00 L 1050.00 1308.00 L 1074.00 1340.00 L 1075.00 1342.00 L 1053.00 1314.00 L 1060.00 1324.00 L 1096.00 1372.00 L 1110.00 1392.00 L 1102.00 1384.00 L 1103.00 1387.00 L 1113.00 1401.00 L 1110.00 1398.00 L 1094.00 1378.00 L 1095.00 1381.00 L 1113.00 1407.00 L 1123.00 1429.00 L 1125.00 1447.00 L 1135.00 1482.00 L 1153.00 1534.00 L 1164.00 1585.00 L 1168.00 1635.00 L 1165.00 1673.00 L 1155.00 1699.00 L 1145.00 1717.00 L 1135.00 1727.00 L 1126.00 1734.00 L 1118.00 1738.00 L 1101.00 1740.00 L 1075.00 1740.00 L 1052.00 1735.00 L 1032.00 1725.00 L 977.00 1677.00 L 887.00 1591.00 L 820.00 1531.00 L 776.00 1497.00 L 734.00 1475.00 L 694.00 1465.00 L 647.00 1460.00 L 593.00 1460.00 L 555.00 1462.00 L 533.00 1466.00 L 510.00 1473.00 L 486.00 1483.00 L 472.00 1487.00 L 468.00 1485.00 L 469.00 1468.00 L 475.00 1436.00 L 484.00 1406.00 L 496.00 1378.00 L 503.00 1353.00 L 505.00 1331.00 L 509.00 1313.00 L 515.00 1299.00 L 515.00 1284.00 L 509.00 1268.00 L 515.00 1222.00 L 533.00 1146.00 L 524.00 1116.00 L 488.00 1132.00 L 475.00 1137.00 L 485.00 1131.00 L 483.00 1130.00 L 469.00 1134.00 L 483.00 1126.00 L 525.00 1106.00 L 524.00 1103.00 L 480.00 1117.00 L 481.00 1114.00 L 527.00 1094.00 L 528.00 1092.00 L 484.00 1108.00 L 489.00 1104.00 L 543.00 1080.00 L 543.00 1077.00 L 489.00 1095.00 L 490.00 1094.00 L 546.00 1074.00 L 547.00 1072.00 L 493.00 1088.00 L 484.00 1090.00 L 520.00 1078.00 L 539.00 1070.00 L 541.00 1066.00 L 524.00 1069.00 L 488.00 1079.00 L 496.00 1076.00 L 548.00 1060.00 L 548.00 1058.00 L 496.00 1070.00 L 491.00 1070.00 L 533.00 1058.00 L 534.00 1056.00 L 494.00 1064.00 L 498.00 1062.00 L 546.00 1050.00 L 547.00 1048.00 L 501.00 1056.00 L 487.00 1043.00 L 505.00 1009.00 L 517.00 989.00 L 523.00 983.00 L 530.00 974.00 Z" fill="black" stroke="black" stroke-width="1"/>
</svg>