<?xml version="1.0" encoding="UTF-8"?>
<svg xmlns="http://www.w3.org/2000/svg" viewBox="330.00 354.00 750.00 1384.00">
  <path d="M 483.00 1041.00 L 485.00 1031.00 L 491.00 1023.00 L 501.00 1017.00 L 505.00 1012.00 L 503.00 1008.00 L 505.00 1006.00 L 511.00 1006.00 L 509.00 1004.00 L 499.00 1000.00 L 492.00 990.00 L 488.00 974.00 L 480.00 957.00 L 468.00 939.00 L 442.00 907.00 L 402.00 861.00 L 373.00 816.00 L 355.00 772.00 L 344.00 729.00 L 340.00 687.00 L 342.00 639.00 L 350.00 585.00 L 363.00 538.00 L 381.00 498.00 L 403.00 464.00 L 429.00 436.00 L 461.00 413.00 L 499.00 395.00 L 539.00 380.00 L 581.00 368.00 L 621.00 364.00 L 659.00 368.00 L 686.00 377.00 L 702.00 391.00 L 717.00 397.00 L 731.00 395.00 L 749.00 401.00 L 771.00 415.00 L 788.00 423.00 L 800.00 425.00 L 829.00 442.00 L 875.00 474.00 L 923.00 523.00 L 973.00 589.00 L 998.00 636.00 L 998.00 664.00 L 995.00 684.00 L 989.00 696.00 L 989.00 698.00 L 995.00 690.00 L 995.00 692.00 L 989.00 704.00 L 989.00 706.00 L 995.00 698.00 L 995.00 700.00 L 989.00 712.00 L 985.00 728.00 L 983.00 748.00 L 994.00 772.00 L 1018.00 800.00 L 1038.00 827.00 L 1054.00 853.00 L 1062.00 870.00 L 1062.00 878.00 L 1052.00 888.00 L 1032.00 900.00 L 1031.00 902.00 L 1049.00 894.00 L 1049.00 896.00 L 1031.00 908.00 L 1021.00 917.00 L 1019.00 923.00 L 1022.00 935.00 L 1030.00 953.00 L 1031.00 968.00 L 1025.00 980.00 L 1022.00 991.00 L 1022.00 1001.00 L 1015.00 1013.00 L 1001.00 1027.00 L 992.00 1049.00 L 988.00 1079.00 L 979.00 1100.00 L 965.00 1112.00 L 959.00 1122.00 L 961.00 1130.00 L 959.00 1138.00 L 953.00 1146.00 L 938.00 1157.00 L 914.00 1171.00 L 907.00 1185.00 L 917.00 1199.00 L 916.00 1201.00 L 904.00 1191.00 L 905.00 1194.00 L 919.00 1210.00 L 925.00 1219.00 L 923.00 1221.00 L 915.00 1215.00 L 901.00 1201.00 L 900.00 1203.00 L 912.00 1221.00 L 914.00 1230.00 L 906.00 1230.00 L 897.00 1226.00 L 887.00 1218.00 L 884.00 1221.00 L 888.00 1235.00 L 898.00 1253.00 L 914.00 1275.00 L 914.00 1278.00 L 898.00 1262.00 L 896.00 1264.00 L 908.00 1284.00 L 911.00 1293.00 L 905.00 1291.00 L 895.00 1280.00 L 881.00 1260.00 L 903.00 1299.00 L 961.00 1397.00 L 991.00 1448.00 L 993.00 1452.00 L 992.00 1451.00 L 988.00 1445.00 L 989.00 1447.00 L 995.00 1457.00 L 993.00 1454.00 L 983.00 1438.00 L 985.00 1442.00 L 999.00 1466.00 L 998.00 1465.00 L 982.00 1439.00 L 985.00 1445.00 L 1007.00 1483.00 L 1006.00 1482.00 L 982.00 1442.00 L 986.00 1450.00 L 1018.00 1506.00 L 1016.00 1504.00 L 980.00 1444.00 L 981.00 1447.00 L 1019.00 1513.00 L 997.00 1476.00 L 915.00 1336.00 L 916.00 1339.00 L 1000.00 1485.00 L 1020.00 1520.00 L 976.00 1444.00 L 977.00 1446.00 L 1023.00 1526.00 L 1013.00 1509.00 L 947.00 1395.00 L 948.00 1398.00 L 1016.00 1518.00 L 1014.00 1515.00 L 942.00 1389.00 L 944.00 1393.00 L 1020.00 1527.00 L 1019.00 1526.00 L 941.00 1390.00 L 943.00 1396.00 L 1025.00 1544.00 L 1024.00 1543.00 L 940.00 1393.00 L 941.00 1397.00 L 1027.00 1555.00 L 1021.00 1545.00 L 923.00 1367.00 L 923.00 1370.00 L 1021.00 1554.00 L 1070.00 1651.00 L 1070.00 1661.00 L 1023.00 1576.00 L 929.00 1396.00 L 929.00 1398.00 L 1023.00 1582.00 L 1022.00 1581.00 L 926.00 1395.00 L 926.00 1398.00 L 1022.00 1590.00 L 1020.00 1587.00 L 920.00 1389.00 L 920.00 1391.00 L 1020.00 1593.00 L 1066.00 1701.00 L 1058.00 1715.00 L 1047.00 1724.00 L 1033.00 1728.00 L 1017.00 1726.00 L 999.00 1718.00 L 948.00 1671.00 L 864.00 1585.00 L 804.00 1528.00 L 768.00 1500.00 L 728.00 1474.00 L 684.00 1450.00 L 641.00 1432.00 L 599.00 1420.00 L 540.00 1414.00 L 464.00 1414.00 L 424.00 1412.00 L 420.00 1408.00 L 433.00 1358.00 L 463.00 1262.00 L 474.00 1206.00 L 466.00 1190.00 L 466.00 1167.00 L 474.00 1137.00 L 479.00 1105.00 L 481.00 1071.00 L 482.00 1052.00 L 482.00 1048.00 L 483.00 1041.00 Z" fill="black" stroke="black" stroke-width="1"/>
</svg>