<?xml version="1.0" encoding="UTF-8"?>
<svg xmlns="http://www.w3.org/2000/svg" viewBox="297.00 308.00 931.00 1504.00">
  <path d="M 410.00 1039.00 L 442.00 985.00 L 453.00 945.00 L 443.00 919.00 L 405.00 886.00 L 339.00 846.00 L 340.00 844.00 L 408.00 880.00 L 406.00 877.00 L 334.00 835.00 L 307.00 819.00 L 325.00 829.00 L 340.00 835.00 L 352.00 837.00 L 379.00 850.00 L 421.00 874.00 L 409.00 866.00 L 343.00 826.00 L 344.00 825.00 L 412.00 863.00 L 414.00 861.00 L 350.00 819.00 L 351.00 817.00 L 417.00 855.00 L 420.00 854.00 L 360.00 814.00 L 353.00 807.00 L 399.00 833.00 L 402.00 832.00 L 362.00 804.00 L 371.00 808.00 L 429.00 844.00 L 431.00 843.00 L 377.00 805.00 L 378.00 803.00 L 434.00 837.00 L 438.00 836.00 L 390.00 800.00 L 390.00 798.00 L 438.00 830.00 L 443.00 829.00 L 405.00 795.00 L 414.00 772.00 L 470.00 760.00 L 518.00 678.00 L 558.00 526.00 L 586.00 426.00 L 602.00 378.00 L 617.00 342.00 L 631.00 318.00 L 745.00 338.00 L 959.00 402.00 L 1098.00 446.00 L 1162.00 470.00 L 1202.00 488.00 L 1218.00 500.00 L 1184.00 630.00 L 1100.00 878.00 L 1066.00 1022.00 L 1082.00 1062.00 L 1077.00 1082.00 L 1051.00 1082.00 L 1052.00 1083.00 L 1080.00 1085.00 L 1077.00 1086.00 L 1043.00 1086.00 L 1044.00 1088.00 L 1080.00 1092.00 L 1080.00 1094.00 L 1044.00 1094.00 L 1045.00 1096.00 L 1083.00 1100.00 L 1089.00 1102.00 L 1063.00 1102.00 L 1064.00 1105.00 L 1092.00 1111.00 L 1086.00 1112.00 L 1046.00 1108.00 L 1047.00 1109.00 L 1089.00 1115.00 L 1111.00 1120.00 L 1113.00 1124.00 L 1100.00 1124.00 L 1072.00 1120.00 L 1074.00 1122.00 L 1106.00 1130.00 L 1098.00 1130.00 L 1050.00 1122.00 L 1053.00 1127.00 L 1107.00 1145.00 L 1106.00 1148.00 L 1050.00 1136.00 L 1052.00 1139.00 L 1112.00 1157.00 L 1128.00 1163.00 L 1100.00 1157.00 L 1088.00 1156.00 L 1092.00 1160.00 L 1075.00 1157.00 L 1037.00 1147.00 L 1050.00 1151.00 L 1114.00 1169.00 L 1136.00 1177.00 L 1116.00 1175.00 L 1082.00 1167.00 L 1034.00 1153.00 L 1042.00 1157.00 L 1106.00 1179.00 L 1107.00 1182.00 L 1045.00 1166.00 L 1020.00 1165.00 L 1032.00 1179.00 L 1043.00 1218.00 L 1053.00 1282.00 L 1056.00 1325.00 L 1052.00 1347.00 L 1056.00 1372.00 L 1068.00 1400.00 L 1073.00 1413.00 L 1071.00 1411.00 L 1078.00 1445.00 L 1094.00 1515.00 L 1104.00 1570.00 L 1108.00 1610.00 L 1107.00 1631.00 L 1101.00 1633.00 L 1065.00 1627.00 L 999.00 1613.00 L 938.00 1607.00 L 882.00 1609.00 L 830.00 1620.00 L 782.00 1640.00 L 714.00 1684.00 L 626.00 1752.00 L 559.00 1790.00 L 513.00 1798.00 L 472.00 1802.00 L 436.00 1802.00 L 448.00 1732.00 L 508.00 1592.00 L 505.00 1592.00 L 439.00 1732.00 L 438.00 1734.00 L 502.00 1598.00 L 500.00 1598.00 L 432.00 1734.00 L 430.00 1735.00 L 494.00 1601.00 L 493.00 1599.00 L 427.00 1729.00 L 424.00 1732.00 L 484.00 1608.00 L 485.00 1602.00 L 427.00 1714.00 L 430.00 1706.00 L 494.00 1578.00 L 494.00 1576.00 L 430.00 1700.00 L 413.00 1732.00 L 443.00 1672.00 L 444.00 1668.00 L 416.00 1720.00 L 412.00 1726.00 L 432.00 1686.00 L 434.00 1681.00 L 418.00 1711.00 L 416.00 1714.00 L 428.00 1690.00 L 429.00 1687.00 L 419.00 1705.00 L 441.00 1662.00 L 495.00 1558.00 L 496.00 1555.00 L 444.00 1653.00 L 444.00 1651.00 L 496.00 1549.00 L 525.00 1488.00 L 531.00 1468.00 L 531.00 1463.00 L 525.00 1473.00 L 522.00 1473.00 L 522.00 1463.00 L 520.00 1460.00 L 516.00 1464.00 L 518.00 1457.00 L 526.00 1439.00 L 523.00 1441.00 L 509.00 1463.00 L 509.00 1461.00 L 523.00 1435.00 L 520.00 1436.00 L 500.00 1464.00 L 499.00 1463.00 L 517.00 1433.00 L 514.00 1434.00 L 490.00 1466.00 L 488.00 1463.00 L 508.00 1425.00 L 505.00 1423.00 L 479.00 1457.00 L 478.00 1455.00 L 502.00 1417.00 L 506.00 1389.00 L 490.00 1371.00 L 482.00 1359.00 L 482.00 1353.00 L 486.00 1345.00 L 494.00 1335.00 L 494.00 1333.00 L 486.00 1339.00 L 485.00 1337.00 L 491.00 1327.00 L 489.00 1319.00 L 479.00 1313.00 L 471.00 1304.00 L 465.00 1292.00 L 462.00 1281.00 L 462.00 1271.00 L 466.00 1258.00 L 474.00 1242.00 L 473.00 1226.00 L 463.00 1210.00 L 460.00 1196.00 L 464.00 1184.00 L 463.00 1175.00 L 457.00 1169.00 L 456.00 1160.00 L 460.00 1148.00 L 461.00 1139.00 L 459.00 1133.00 L 446.00 1126.00 L 422.00 1118.00 L 405.00 1105.00 L 395.00 1087.00 L 391.00 1075.00 L 393.00 1069.00 L 410.00 1039.00 Z" fill="black" stroke="black" stroke-width="1"/>
</svg>