<?xml version="1.0" encoding="UTF-8"?>
<svg xmlns="http://www.w3.org/2000/svg" viewBox="336.00 260.00 938.00 1399.00">
  <path d="M 593.00 986.00 L 559.00 986.00 L 559.00 983.00 L 593.00 977.00 L 551.00 954.00 L 433.00 914.00 L 408.00 897.00 L 476.00 903.00 L 475.00 897.00 L 405.00 879.00 L 404.00 877.00 L 472.00 891.00 L 473.00 889.00 L 407.00 871.00 L 406.00 868.00 L 470.00 880.00 L 469.00 875.00 L 403.00 853.00 L 401.00 851.00 L 463.00 869.00 L 463.00 866.00 L 401.00 842.00 L 369.00 785.00 L 367.00 695.00 L 360.00 642.00 L 348.00 626.00 L 346.00 597.00 L 354.00 555.00 L 422.00 471.00 L 550.00 345.00 L 634.00 278.00 L 674.00 270.00 L 751.00 274.00 L 865.00 290.00 L 962.00 330.00 L 1042.00 394.00 L 1080.00 433.00 L 1076.00 447.00 L 1079.00 449.00 L 1089.00 439.00 L 1091.00 442.00 L 1085.00 458.00 L 1087.00 459.00 L 1097.00 445.00 L 1098.00 447.00 L 1090.00 465.00 L 1091.00 467.00 L 1101.00 453.00 L 1102.00 455.00 L 1094.00 473.00 L 1096.00 476.00 L 1108.00 464.00 L 1114.00 475.00 L 1114.00 509.00 L 1119.00 521.00 L 1129.00 511.00 L 1130.00 514.00 L 1122.00 530.00 L 1124.00 532.00 L 1136.00 520.00 L 1137.00 524.00 L 1127.00 544.00 L 1129.00 547.00 L 1143.00 533.00 L 1144.00 537.00 L 1132.00 559.00 L 1133.00 561.00 L 1147.00 543.00 L 1147.00 546.00 L 1133.00 570.00 L 1134.00 573.00 L 1150.00 555.00 L 1150.00 558.00 L 1134.00 582.00 L 1135.00 584.00 L 1153.00 564.00 L 1154.00 575.00 L 1138.00 617.00 L 1140.00 627.00 L 1160.00 605.00 L 1159.00 609.00 L 1137.00 639.00 L 1137.00 642.00 L 1159.00 618.00 L 1158.00 631.00 L 1134.00 681.00 L 1136.00 739.00 L 1164.00 805.00 L 1166.00 846.00 L 1142.00 862.00 L 1126.00 911.00 L 1118.00 993.00 L 1086.00 1045.00 L 1030.00 1067.00 L 1012.00 1097.00 L 1032.00 1135.00 L 1033.00 1148.00 L 1015.00 1136.00 L 1016.00 1142.00 L 1036.00 1166.00 L 1034.00 1168.00 L 1010.00 1148.00 L 1010.00 1151.00 L 1034.00 1177.00 L 1034.00 1180.00 L 1010.00 1160.00 L 1009.00 1163.00 L 1031.00 1189.00 L 1030.00 1191.00 L 1006.00 1169.00 L 1005.00 1172.00 L 1027.00 1200.00 L 1026.00 1202.00 L 1002.00 1178.00 L 1002.00 1181.00 L 1026.00 1211.00 L 1029.00 1224.00 L 1011.00 1220.00 L 1078.00 1331.00 L 1230.00 1557.00 L 1228.00 1558.00 L 1072.00 1334.00 L 1072.00 1337.00 L 1228.00 1567.00 L 1264.00 1624.00 L 1180.00 1508.00 L 1178.00 1515.00 L 1258.00 1645.00 L 1250.00 1640.00 L 1154.00 1500.00 L 1151.00 1503.00 L 1241.00 1649.00 L 1210.00 1600.00 L 1058.00 1356.00 L 1050.00 1358.00 L 1186.00 1606.00 L 1183.00 1605.00 L 1041.00 1355.00 L 1038.00 1356.00 L 1174.00 1608.00 L 1190.00 1644.00 L 1086.00 1464.00 L 1076.00 1460.00 L 1160.00 1632.00 L 1142.00 1599.00 L 1022.00 1361.00 L 1019.00 1360.00 L 1133.00 1596.00 L 1133.00 1598.00 L 1019.00 1366.00 L 1016.00 1364.00 L 1124.00 1592.00 L 1123.00 1595.00 L 1013.00 1373.00 L 1003.00 1367.00 L 1093.00 1577.00 L 1092.00 1579.00 L 1000.00 1373.00 L 994.00 1369.00 L 1074.00 1567.00 L 1072.00 1570.00 L 988.00 1378.00 L 980.00 1372.00 L 1048.00 1552.00 L 1048.00 1559.00 L 980.00 1393.00 L 973.00 1388.00 L 1027.00 1544.00 L 1025.00 1539.00 L 967.00 1373.00 L 964.00 1372.00 L 1016.00 1536.00 L 981.00 1595.00 L 859.00 1549.00 L 732.00 1523.00 L 600.00 1517.00 L 511.00 1503.00 L 465.00 1481.00 L 438.00 1457.00 L 430.00 1431.00 L 431.00 1400.00 L 441.00 1364.00 L 470.00 1308.00 L 518.00 1232.00 L 559.00 1145.00 L 593.00 1047.00 L 610.00 995.00 L 610.00 989.00 L 593.00 986.00 Z" fill="black" stroke="black" stroke-width="1"/>
</svg>