<?xml version="1.0" encoding="UTF-8"?>
<svg xmlns="http://www.w3.org/2000/svg" viewBox="337.00 333.00 749.00 1322.00">
  <path d="M 387.00 957.00 L 397.00 939.00 L 400.00 925.00 L 396.00 915.00 L 394.00 906.00 L 394.00 898.00 L 397.00 890.00 L 403.00 882.00 L 403.00 874.00 L 397.00 866.00 L 395.00 854.00 L 397.00 838.00 L 384.00 820.00 L 356.00 800.00 L 356.00 797.00 L 384.00 811.00 L 382.00 807.00 L 350.00 785.00 L 349.00 783.00 L 379.00 801.00 L 380.00 799.00 L 352.00 777.00 L 347.00 754.00 L 365.00 730.00 L 390.00 704.00 L 422.00 676.00 L 440.00 658.00 L 444.00 650.00 L 446.00 634.00 L 446.00 610.00 L 450.00 588.00 L 458.00 568.00 L 460.00 550.00 L 456.00 534.00 L 457.00 532.00 L 463.00 544.00 L 464.00 542.00 L 460.00 526.00 L 461.00 523.00 L 467.00 533.00 L 467.00 530.00 L 461.00 514.00 L 462.00 512.00 L 470.00 524.00 L 471.00 522.00 L 465.00 506.00 L 466.00 503.00 L 474.00 513.00 L 477.00 512.00 L 475.00 500.00 L 476.00 498.00 L 480.00 506.00 L 481.00 505.00 L 479.00 495.00 L 482.00 491.00 L 490.00 493.00 L 493.00 489.00 L 491.00 479.00 L 492.00 478.00 L 496.00 486.00 L 498.00 484.00 L 498.00 472.00 L 507.00 457.00 L 525.00 439.00 L 556.00 417.00 L 600.00 391.00 L 653.00 369.00 L 715.00 351.00 L 778.00 343.00 L 842.00 345.00 L 891.00 353.00 L 925.00 367.00 L 955.00 385.00 L 981.00 407.00 L 1004.00 433.00 L 1024.00 463.00 L 1043.00 501.00 L 1061.00 547.00 L 1072.00 590.00 L 1076.00 630.00 L 1076.00 671.00 L 1072.00 713.00 L 1058.00 759.00 L 1034.00 809.00 L 1013.00 863.00 L 995.00 921.00 L 981.00 958.00 L 971.00 974.00 L 961.00 982.00 L 951.00 982.00 L 950.00 983.00 L 958.00 985.00 L 958.00 987.00 L 950.00 989.00 L 947.00 1011.00 L 949.00 1053.00 L 947.00 1077.00 L 941.00 1083.00 L 945.00 1097.00 L 959.00 1119.00 L 976.00 1158.00 L 996.00 1214.00 L 1008.00 1251.00 L 1012.00 1269.00 L 1013.00 1287.00 L 1011.00 1305.00 L 969.00 1314.00 L 887.00 1314.00 L 818.00 1325.00 L 762.00 1347.00 L 702.00 1386.00 L 638.00 1442.00 L 571.00 1510.00 L 501.00 1590.00 L 458.00 1634.00 L 442.00 1642.00 L 426.00 1645.00 L 410.00 1643.00 L 395.00 1634.00 L 381.00 1618.00 L 373.00 1605.00 L 371.00 1595.00 L 371.00 1573.00 L 373.00 1539.00 L 373.00 1523.00 L 371.00 1525.00 L 372.00 1518.00 L 376.00 1502.00 L 377.00 1495.00 L 375.00 1497.00 L 383.00 1470.00 L 401.00 1414.00 L 419.00 1370.00 L 437.00 1338.00 L 441.00 1330.00 L 431.00 1346.00 L 431.00 1342.00 L 441.00 1318.00 L 458.00 1287.00 L 482.00 1249.00 L 483.00 1246.00 L 461.00 1278.00 L 461.00 1275.00 L 483.00 1237.00 L 484.00 1231.00 L 464.00 1257.00 L 464.00 1255.00 L 484.00 1225.00 L 487.00 1217.00 L 473.00 1231.00 L 474.00 1225.00 L 490.00 1199.00 L 487.00 1200.00 L 465.00 1228.00 L 465.00 1227.00 L 487.00 1197.00 L 486.00 1195.00 L 462.00 1221.00 L 462.00 1219.00 L 486.00 1189.00 L 485.00 1190.00 L 459.00 1222.00 L 457.00 1223.00 L 479.00 1193.00 L 484.00 1183.00 L 472.00 1193.00 L 467.00 1192.00 L 469.00 1180.00 L 466.00 1174.00 L 458.00 1174.00 L 457.00 1168.00 L 463.00 1156.00 L 461.00 1154.00 L 451.00 1162.00 L 450.00 1160.00 L 458.00 1148.00 L 453.00 1129.00 L 435.00 1103.00 L 426.00 1086.00 L 426.00 1078.00 L 431.00 1070.00 L 441.00 1062.00 L 446.00 1056.00 L 446.00 1052.00 L 435.00 1044.00 L 413.00 1032.00 L 398.00 1020.00 L 390.00 1008.00 L 385.00 996.00 L 383.00 984.00 L 382.00 975.00 L 382.00 969.00 L 387.00 957.00 Z" fill="black" stroke="black" stroke-width="1"/>
</svg>