<?xml version="1.0" encoding="UTF-8"?>
<svg xmlns="http://www.w3.org/2000/svg" viewBox="271.00 318.00 900.00 1448.00">
  <path d="M 341.00 998.00 L 371.00 958.00 L 351.00 836.00 L 281.00 632.00 L 355.00 484.00 L 573.00 392.00 L 706.00 340.00 L 754.00 328.00 L 821.00 408.00 L 907.00 580.00 L 969.00 672.00 L 1007.00 684.00 L 1016.00 703.00 L 996.00 729.00 L 1000.00 730.00 L 1028.00 706.00 L 1029.00 709.00 L 1003.00 739.00 L 1005.00 740.00 L 1035.00 712.00 L 1040.00 710.00 L 1020.00 734.00 L 1022.00 735.00 L 1046.00 713.00 L 1042.00 718.00 L 1010.00 750.00 L 1012.00 750.00 L 1048.00 718.00 L 1048.00 721.00 L 1012.00 759.00 L 1015.00 760.00 L 1057.00 724.00 L 1056.00 727.00 L 1012.00 769.00 L 1015.00 770.00 L 1065.00 730.00 L 1079.00 720.00 L 1057.00 740.00 L 1059.00 741.00 L 1085.00 723.00 L 1071.00 736.00 L 1017.00 780.00 L 1019.00 781.00 L 1077.00 739.00 L 1097.00 727.00 L 1079.00 745.00 L 1081.00 746.00 L 1103.00 730.00 L 1084.00 745.00 L 1024.00 791.00 L 1026.00 792.00 L 1090.00 748.00 L 1091.00 749.00 L 1029.00 795.00 L 1031.00 796.00 L 1097.00 752.00 L 1122.00 737.00 L 1106.00 751.00 L 1109.00 752.00 L 1131.00 740.00 L 1108.00 757.00 L 1040.00 803.00 L 1041.00 804.00 L 1111.00 760.00 L 1138.00 744.00 L 1122.00 756.00 L 1123.00 757.00 L 1141.00 747.00 L 1143.00 748.00 L 1129.00 760.00 L 1095.00 783.00 L 1041.00 817.00 L 1051.00 813.00 L 1125.00 771.00 L 1155.00 755.00 L 1141.00 765.00 L 1143.00 766.00 L 1161.00 758.00 L 1133.00 776.00 L 1059.00 820.00 L 1060.00 822.00 L 1136.00 782.00 L 1138.00 784.00 L 1066.00 828.00 L 1067.00 830.00 L 1141.00 790.00 L 1144.00 793.00 L 1076.00 839.00 L 1052.00 877.00 L 1072.00 907.00 L 1068.00 931.00 L 1040.00 949.00 L 1027.00 974.00 L 1029.00 1006.00 L 1026.00 1028.00 L 1018.00 1040.00 L 1018.00 1057.00 L 1026.00 1079.00 L 1029.00 1096.00 L 1027.00 1108.00 L 1019.00 1122.00 L 1005.00 1138.00 L 998.00 1153.00 L 998.00 1167.00 L 991.00 1180.00 L 977.00 1192.00 L 976.00 1206.00 L 988.00 1222.00 L 986.00 1225.00 L 970.00 1215.00 L 969.00 1217.00 L 983.00 1231.00 L 984.00 1240.00 L 972.00 1244.00 L 971.00 1260.00 L 981.00 1288.00 L 977.00 1294.00 L 959.00 1278.00 L 959.00 1280.00 L 977.00 1300.00 L 977.00 1302.00 L 959.00 1286.00 L 958.00 1287.00 L 974.00 1305.00 L 973.00 1307.00 L 955.00 1293.00 L 945.00 1288.00 L 943.00 1292.00 L 949.00 1307.00 L 963.00 1333.00 L 971.00 1361.00 L 973.00 1391.00 L 983.00 1420.00 L 1001.00 1448.00 L 1001.00 1450.00 L 983.00 1426.00 L 984.00 1429.00 L 1004.00 1459.00 L 1017.00 1490.00 L 1023.00 1522.00 L 1034.00 1557.00 L 1050.00 1595.00 L 1061.00 1635.00 L 1067.00 1677.00 L 1065.00 1709.00 L 1055.00 1731.00 L 1042.00 1746.00 L 1026.00 1754.00 L 1008.00 1756.00 L 988.00 1752.00 L 934.00 1706.00 L 846.00 1618.00 L 769.00 1555.00 L 703.00 1517.00 L 643.00 1491.00 L 589.00 1477.00 L 511.00 1474.00 L 409.00 1482.00 L 365.00 1457.00 L 379.00 1399.00 L 401.00 1346.00 L 431.00 1298.00 L 443.00 1264.00 L 437.00 1244.00 L 438.00 1220.00 L 446.00 1192.00 L 451.00 1158.00 L 453.00 1118.00 L 414.00 1108.00 L 334.00 1128.00 L 335.00 1126.00 L 417.00 1102.00 L 413.00 1100.00 L 323.00 1120.00 L 325.00 1117.00 L 419.00 1091.00 L 419.00 1089.00 L 325.00 1111.00 L 298.00 1116.00 L 338.00 1104.00 L 338.00 1101.00 L 298.00 1107.00 L 325.00 1100.00 L 419.00 1080.00 L 419.00 1078.00 L 325.00 1094.00 L 302.00 1097.00 L 350.00 1087.00 L 351.00 1084.00 L 305.00 1088.00 L 306.00 1086.00 L 354.00 1078.00 L 355.00 1076.00 L 309.00 1080.00 L 324.00 1076.00 L 400.00 1064.00 L 402.00 1060.00 L 330.00 1064.00 L 331.00 1061.00 L 405.00 1051.00 L 407.00 1048.00 L 337.00 1052.00 L 336.00 1049.00 L 404.00 1039.00 L 407.00 1034.00 L 345.00 1034.00 L 345.00 1032.00 L 407.00 1028.00 L 409.00 1026.00 L 351.00 1026.00 L 323.00 1024.00 L 325.00 1020.00 L 341.00 998.00 Z" fill="black" stroke="black" stroke-width="1"/>
</svg>