<?xml version="1.0" encoding="UTF-8"?>
<svg xmlns="http://www.w3.org/2000/svg" viewBox="369.00 355.00 818.00 1341.00">
  <path d="M 426.00 990.00 L 434.00 942.00 L 435.00 915.00 L 429.00 909.00 L 430.00 907.00 L 438.00 909.00 L 437.00 904.00 L 427.00 892.00 L 422.00 873.00 L 422.00 847.00 L 414.00 804.00 L 398.00 744.00 L 391.00 702.00 L 393.00 678.00 L 397.00 650.00 L 403.00 618.00 L 414.00 583.00 L 430.00 545.00 L 455.00 504.00 L 489.00 460.00 L 525.00 426.00 L 563.00 402.00 L 593.00 388.00 L 615.00 384.00 L 630.00 379.00 L 638.00 373.00 L 653.00 371.00 L 675.00 373.00 L 697.00 371.00 L 719.00 365.00 L 735.00 365.00 L 745.00 371.00 L 764.00 373.00 L 792.00 371.00 L 814.00 374.00 L 830.00 382.00 L 847.00 386.00 L 865.00 386.00 L 880.00 391.00 L 892.00 401.00 L 917.00 415.00 L 955.00 433.00 L 981.00 450.00 L 995.00 466.00 L 1002.00 480.00 L 1002.00 492.00 L 1004.00 493.00 L 1008.00 483.00 L 1011.00 479.00 L 1013.00 481.00 L 1012.00 488.00 L 1008.00 500.00 L 1009.00 501.00 L 1015.00 491.00 L 1017.00 494.00 L 1015.00 510.00 L 1017.00 512.00 L 1023.00 500.00 L 1025.00 504.00 L 1023.00 524.00 L 1025.00 527.00 L 1031.00 513.00 L 1033.00 516.00 L 1031.00 536.00 L 1033.00 540.00 L 1039.00 528.00 L 1040.00 530.00 L 1036.00 546.00 L 1039.00 567.00 L 1049.00 593.00 L 1062.00 619.00 L 1078.00 645.00 L 1083.00 667.00 L 1077.00 685.00 L 1090.00 724.00 L 1122.00 784.00 L 1124.00 824.00 L 1096.00 844.00 L 1095.00 847.00 L 1121.00 833.00 L 1125.00 832.00 L 1107.00 844.00 L 1107.00 846.00 L 1125.00 838.00 L 1122.00 842.00 L 1098.00 858.00 L 1093.00 862.00 L 1107.00 854.00 L 1108.00 856.00 L 1096.00 868.00 L 1090.00 879.00 L 1090.00 889.00 L 1092.00 897.00 L 1096.00 903.00 L 1097.00 909.00 L 1095.00 915.00 L 1097.00 922.00 L 1103.00 930.00 L 1104.00 942.00 L 1100.00 958.00 L 1104.00 971.00 L 1116.00 981.00 L 1123.00 993.00 L 1125.00 1007.00 L 1120.00 1023.00 L 1108.00 1041.00 L 1094.00 1054.00 L 1078.00 1062.00 L 1074.00 1069.00 L 1082.00 1075.00 L 1086.00 1083.00 L 1086.00 1093.00 L 1075.00 1109.00 L 1053.00 1131.00 L 1050.00 1148.00 L 1066.00 1160.00 L 1064.00 1161.00 L 1044.00 1151.00 L 1044.00 1153.00 L 1064.00 1167.00 L 1064.00 1169.00 L 1044.00 1159.00 L 1044.00 1161.00 L 1064.00 1175.00 L 1069.00 1183.00 L 1059.00 1185.00 L 1046.00 1182.00 L 1030.00 1174.00 L 1030.00 1182.00 L 1046.00 1206.00 L 1044.00 1210.00 L 1024.00 1194.00 L 1030.00 1203.00 L 1062.00 1237.00 L 1064.00 1241.00 L 1036.00 1215.00 L 1039.00 1218.00 L 1073.00 1250.00 L 1071.00 1250.00 L 1033.00 1218.00 L 1030.00 1219.00 L 1062.00 1253.00 L 1058.00 1254.00 L 1018.00 1222.00 L 1000.00 1214.00 L 1004.00 1230.00 L 1005.00 1243.00 L 1003.00 1253.00 L 1011.00 1276.00 L 1029.00 1312.00 L 1027.00 1314.00 L 1005.00 1282.00 L 1028.00 1319.00 L 1096.00 1425.00 L 1096.00 1427.00 L 1028.00 1325.00 L 1029.00 1327.00 L 1099.00 1433.00 L 1098.00 1432.00 L 1026.00 1324.00 L 1030.00 1332.00 L 1110.00 1456.00 L 1125.00 1481.00 L 1075.00 1407.00 L 1078.00 1415.00 L 1134.00 1505.00 L 1134.00 1507.00 L 1078.00 1421.00 L 1079.00 1424.00 L 1137.00 1516.00 L 1137.00 1518.00 L 1079.00 1430.00 L 1081.00 1437.00 L 1143.00 1539.00 L 1175.00 1604.00 L 1177.00 1632.00 L 1175.00 1652.00 L 1169.00 1664.00 L 1162.00 1674.00 L 1154.00 1682.00 L 1142.00 1686.00 L 1126.00 1686.00 L 1108.00 1682.00 L 1088.00 1674.00 L 1022.00 1622.00 L 910.00 1526.00 L 830.00 1462.00 L 782.00 1430.00 L 739.00 1405.00 L 701.00 1387.00 L 659.00 1371.00 L 613.00 1357.00 L 570.00 1350.00 L 530.00 1350.00 L 478.00 1356.00 L 414.00 1368.00 L 381.00 1369.00 L 379.00 1359.00 L 387.00 1325.00 L 405.00 1267.00 L 413.00 1219.00 L 411.00 1181.00 L 413.00 1152.00 L 419.00 1132.00 L 422.00 1110.00 L 422.00 1086.00 L 420.00 1071.00 L 416.00 1065.00 L 415.00 1053.00 L 417.00 1035.00 L 419.00 1023.00 L 421.00 1017.00 L 426.00 990.00 Z" fill="black" stroke="black" stroke-width="1"/>
</svg>