<?xml version="1.0" encoding="UTF-8"?>
<svg xmlns="http://www.w3.org/2000/svg" viewBox="452.00 184.00 876.00 1414.00">
  <path d="M 547.00 851.00 L 533.00 821.00 L 528.00 791.00 L 532.00 761.00 L 524.00 741.00 L 504.00 731.00 L 503.00 729.00 L 521.00 735.00 L 519.00 733.00 L 497.00 723.00 L 485.00 712.00 L 483.00 700.00 L 503.00 671.00 L 545.00 625.00 L 570.00 560.00 L 578.00 476.00 L 586.00 435.00 L 594.00 437.00 L 596.00 432.00 L 592.00 420.00 L 594.00 416.00 L 602.00 420.00 L 604.00 417.00 L 600.00 407.00 L 601.00 405.00 L 607.00 411.00 L 608.00 408.00 L 604.00 396.00 L 605.00 394.00 L 611.00 402.00 L 613.00 399.00 L 611.00 385.00 L 614.00 380.00 L 622.00 384.00 L 627.00 377.00 L 629.00 359.00 L 680.00 328.00 L 780.00 284.00 L 846.00 263.00 L 878.00 265.00 L 898.00 253.00 L 906.00 227.00 L 911.00 226.00 L 913.00 250.00 L 916.00 248.00 L 920.00 220.00 L 922.00 220.00 L 922.00 248.00 L 925.00 247.00 L 931.00 217.00 L 934.00 217.00 L 934.00 247.00 L 937.00 246.00 L 943.00 214.00 L 945.00 214.00 L 943.00 246.00 L 946.00 246.00 L 954.00 214.00 L 956.00 214.00 L 952.00 246.00 L 954.00 245.00 L 962.00 211.00 L 964.00 211.00 L 960.00 245.00 L 962.00 244.00 L 970.00 208.00 L 972.00 207.00 L 968.00 241.00 L 970.00 241.00 L 978.00 207.00 L 980.00 208.00 L 976.00 244.00 L 979.00 244.00 L 989.00 208.00 L 991.00 208.00 L 985.00 244.00 L 987.00 245.00 L 997.00 211.00 L 1006.00 194.00 L 1014.00 194.00 L 1038.00 202.00 L 1078.00 218.00 L 1118.00 246.00 L 1158.00 286.00 L 1187.00 307.00 L 1205.00 309.00 L 1212.00 327.00 L 1208.00 361.00 L 1231.00 411.00 L 1281.00 477.00 L 1310.00 523.00 L 1318.00 549.00 L 1296.00 582.00 L 1244.00 622.00 L 1244.00 627.00 L 1296.00 597.00 L 1294.00 600.00 L 1238.00 636.00 L 1238.00 638.00 L 1294.00 606.00 L 1292.00 609.00 L 1232.00 647.00 L 1232.00 649.00 L 1292.00 615.00 L 1291.00 617.00 L 1229.00 655.00 L 1229.00 657.00 L 1291.00 623.00 L 1289.00 626.00 L 1223.00 666.00 L 1223.00 669.00 L 1289.00 635.00 L 1287.00 637.00 L 1217.00 675.00 L 1217.00 677.00 L 1287.00 643.00 L 1282.00 650.00 L 1202.00 698.00 L 1197.00 707.00 L 1267.00 677.00 L 1264.00 680.00 L 1188.00 716.00 L 1186.00 718.00 L 1258.00 686.00 L 1229.00 703.00 L 1099.00 769.00 L 1046.00 798.00 L 1070.00 790.00 L 1069.00 792.00 L 1043.00 804.00 L 1026.00 829.00 L 1018.00 867.00 L 1014.00 906.00 L 1014.00 946.00 L 1022.00 999.00 L 1038.00 1065.00 L 1083.00 1159.00 L 1157.00 1281.00 L 1153.00 1344.00 L 1071.00 1348.00 L 1004.00 1357.00 L 952.00 1371.00 L 883.00 1399.00 L 797.00 1441.00 L 713.00 1491.00 L 631.00 1549.00 L 619.00 1497.00 L 677.00 1335.00 L 674.00 1337.00 L 610.00 1503.00 L 613.00 1492.00 L 683.00 1304.00 L 680.00 1307.00 L 604.00 1501.00 L 604.00 1498.00 L 680.00 1298.00 L 674.00 1303.00 L 586.00 1513.00 L 587.00 1508.00 L 677.00 1288.00 L 674.00 1291.00 L 578.00 1517.00 L 578.00 1515.00 L 674.00 1285.00 L 668.00 1291.00 L 560.00 1533.00 L 560.00 1530.00 L 668.00 1282.00 L 665.00 1284.00 L 551.00 1536.00 L 551.00 1534.00 L 665.00 1278.00 L 663.00 1277.00 L 545.00 1531.00 L 545.00 1528.00 L 663.00 1268.00 L 661.00 1266.00 L 539.00 1522.00 L 506.00 1588.00 L 562.00 1464.00 L 559.00 1460.00 L 497.00 1576.00 L 529.00 1508.00 L 655.00 1256.00 L 654.00 1254.00 L 526.00 1502.00 L 526.00 1500.00 L 654.00 1248.00 L 651.00 1244.00 L 517.00 1488.00 L 517.00 1485.00 L 651.00 1235.00 L 650.00 1233.00 L 514.00 1479.00 L 467.00 1562.00 L 509.00 1482.00 L 508.00 1480.00 L 464.00 1556.00 L 462.00 1558.00 L 502.00 1486.00 L 502.00 1481.00 L 462.00 1543.00 L 511.00 1454.00 L 649.00 1214.00 L 649.00 1211.00 L 511.00 1445.00 L 510.00 1442.00 L 646.00 1202.00 L 706.00 1057.00 L 690.00 1007.00 L 664.00 980.00 L 628.00 976.00 L 598.00 966.00 L 574.00 950.00 L 561.00 925.00 L 559.00 891.00 L 557.00 872.00 L 555.00 868.00 L 547.00 851.00 Z" fill="black" stroke="black" stroke-width="1"/>
</svg>