<?xml version="1.0" encoding="UTF-8"?>
<svg xmlns="http://www.w3.org/2000/svg" viewBox="434.00 302.00 766.00 1423.00">
  <path d="M 554.00 996.00 L 562.00 964.00 L 564.00 945.00 L 560.00 939.00 L 563.00 937.00 L 573.00 939.00 L 572.00 937.00 L 560.00 931.00 L 549.00 916.00 L 539.00 892.00 L 521.00 861.00 L 495.00 823.00 L 476.00 789.00 L 464.00 759.00 L 454.00 724.00 L 446.00 684.00 L 444.00 635.00 L 448.00 577.00 L 459.00 524.00 L 477.00 476.00 L 509.00 426.00 L 555.00 374.00 L 600.00 339.00 L 644.00 321.00 L 690.00 312.00 L 738.00 312.00 L 784.00 315.00 L 828.00 321.00 L 875.00 333.00 L 925.00 351.00 L 965.00 369.00 L 995.00 387.00 L 1017.00 404.00 L 1031.00 420.00 L 1046.00 433.00 L 1062.00 443.00 L 1069.00 456.00 L 1067.00 472.00 L 1068.00 480.00 L 1072.00 480.00 L 1076.00 476.00 L 1080.00 468.00 L 1081.00 472.00 L 1079.00 488.00 L 1081.00 490.00 L 1087.00 478.00 L 1088.00 480.00 L 1084.00 496.00 L 1085.00 499.00 L 1091.00 489.00 L 1091.00 491.00 L 1085.00 505.00 L 1086.00 507.00 L 1094.00 497.00 L 1095.00 499.00 L 1089.00 513.00 L 1090.00 515.00 L 1098.00 505.00 L 1099.00 511.00 L 1093.00 533.00 L 1096.00 558.00 L 1108.00 586.00 L 1116.00 611.00 L 1120.00 633.00 L 1119.00 654.00 L 1113.00 674.00 L 1112.00 689.00 L 1116.00 699.00 L 1136.00 726.00 L 1172.00 770.00 L 1190.00 794.00 L 1190.00 798.00 L 1177.00 810.00 L 1151.00 830.00 L 1150.00 833.00 L 1174.00 819.00 L 1174.00 821.00 L 1150.00 839.00 L 1142.00 859.00 L 1150.00 881.00 L 1152.00 895.00 L 1148.00 901.00 L 1147.00 909.00 L 1149.00 919.00 L 1146.00 929.00 L 1138.00 939.00 L 1134.00 949.00 L 1134.00 959.00 L 1140.00 973.00 L 1152.00 991.00 L 1158.00 1007.00 L 1158.00 1021.00 L 1149.00 1038.00 L 1131.00 1058.00 L 1124.00 1073.00 L 1128.00 1083.00 L 1118.00 1102.00 L 1094.00 1130.00 L 1082.00 1147.00 L 1082.00 1153.00 L 1078.00 1161.00 L 1070.00 1171.00 L 1073.00 1185.00 L 1087.00 1203.00 L 1085.00 1206.00 L 1067.00 1194.00 L 1067.00 1196.00 L 1085.00 1212.00 L 1091.00 1223.00 L 1085.00 1229.00 L 1076.00 1229.00 L 1064.00 1223.00 L 1063.00 1231.00 L 1073.00 1253.00 L 1083.00 1270.00 L 1093.00 1282.00 L 1084.00 1273.00 L 1056.00 1243.00 L 1058.00 1247.00 L 1090.00 1285.00 L 1092.00 1289.00 L 1064.00 1259.00 L 1062.00 1259.00 L 1086.00 1289.00 L 1084.00 1288.00 L 1056.00 1256.00 L 1053.00 1254.00 L 1075.00 1282.00 L 1074.00 1285.00 L 1050.00 1263.00 L 1036.00 1255.00 L 1032.00 1261.00 L 1034.00 1277.00 L 1042.00 1303.00 L 1064.00 1347.00 L 1100.00 1409.00 L 1100.00 1412.00 L 1064.00 1356.00 L 1065.00 1358.00 L 1103.00 1418.00 L 1107.00 1426.00 L 1077.00 1382.00 L 1080.00 1390.00 L 1116.00 1450.00 L 1114.00 1448.00 L 1074.00 1384.00 L 1074.00 1385.00 L 1114.00 1451.00 L 1113.00 1450.00 L 1071.00 1382.00 L 1073.00 1387.00 L 1119.00 1465.00 L 1117.00 1463.00 L 1067.00 1381.00 L 1070.00 1389.00 L 1126.00 1487.00 L 1153.00 1535.00 L 1151.00 1533.00 L 1154.00 1547.00 L 1162.00 1577.00 L 1166.00 1608.00 L 1166.00 1640.00 L 1159.00 1670.00 L 1145.00 1698.00 L 1131.00 1713.00 L 1117.00 1715.00 L 1102.00 1713.00 L 1086.00 1707.00 L 1062.00 1689.00 L 1030.00 1659.00 L 993.00 1629.00 L 951.00 1599.00 L 896.00 1564.00 L 828.00 1524.00 L 783.00 1501.00 L 761.00 1495.00 L 747.00 1489.00 L 741.00 1483.00 L 736.00 1481.00 L 732.00 1483.00 L 718.00 1479.00 L 694.00 1469.00 L 678.00 1465.00 L 670.00 1467.00 L 644.00 1463.00 L 600.00 1453.00 L 541.00 1448.00 L 467.00 1448.00 L 446.00 1410.00 L 478.00 1334.00 L 497.00 1278.00 L 503.00 1242.00 L 514.00 1208.00 L 530.00 1176.00 L 536.00 1144.00 L 532.00 1112.00 L 535.00 1077.00 L 545.00 1039.00 L 550.00 1018.00 L 550.00 1014.00 L 554.00 996.00 Z" fill="black" stroke="black" stroke-width="1"/>
</svg>