<?xml version="1.0" encoding="UTF-8"?>
<svg xmlns="http://www.w3.org/2000/svg" viewBox="258.00 352.00 858.00 1378.00">
  <path d="M 370.00 1046.00 L 370.00 1030.00 L 375.00 1014.00 L 385.00 998.00 L 384.00 981.00 L 372.00 963.00 L 366.00 938.00 L 366.00 906.00 L 365.00 887.00 L 363.00 881.00 L 348.00 867.00 L 320.00 845.00 L 319.00 842.00 L 345.00 858.00 L 343.00 855.00 L 313.00 833.00 L 298.00 819.00 L 298.00 813.00 L 305.00 798.00 L 319.00 774.00 L 342.00 743.00 L 374.00 705.00 L 392.00 682.00 L 396.00 674.00 L 398.00 656.00 L 398.00 628.00 L 403.00 604.00 L 413.00 584.00 L 442.00 546.00 L 490.00 490.00 L 514.00 455.00 L 514.00 441.00 L 516.00 440.00 L 520.00 452.00 L 522.00 450.00 L 522.00 434.00 L 525.00 431.00 L 531.00 441.00 L 533.00 439.00 L 531.00 425.00 L 532.00 424.00 L 536.00 436.00 L 538.00 438.00 L 538.00 430.00 L 539.00 429.00 L 541.00 435.00 L 543.00 437.00 L 545.00 435.00 L 545.00 428.00 L 543.00 416.00 L 545.00 415.00 L 551.00 425.00 L 553.00 423.00 L 551.00 409.00 L 552.00 408.00 L 556.00 420.00 L 559.00 418.00 L 561.00 402.00 L 565.00 399.00 L 571.00 409.00 L 574.00 408.00 L 574.00 396.00 L 576.00 394.00 L 580.00 402.00 L 582.00 401.00 L 582.00 391.00 L 597.00 380.00 L 627.00 368.00 L 691.00 362.00 L 789.00 362.00 L 861.00 371.00 L 907.00 389.00 L 958.00 421.00 L 1014.00 467.00 L 1050.00 503.00 L 1066.00 529.00 L 1080.00 561.00 L 1092.00 599.00 L 1100.00 630.00 L 1104.00 654.00 L 1106.00 691.00 L 1106.00 741.00 L 1101.00 781.00 L 1091.00 811.00 L 1081.00 834.00 L 1071.00 850.00 L 1044.00 881.00 L 1000.00 927.00 L 979.00 961.00 L 981.00 983.00 L 974.00 997.00 L 958.00 1003.00 L 958.00 1007.00 L 974.00 1009.00 L 973.00 1012.00 L 955.00 1016.00 L 952.00 1018.00 L 964.00 1018.00 L 964.00 1020.00 L 952.00 1024.00 L 947.00 1030.00 L 949.00 1038.00 L 954.00 1045.00 L 962.00 1051.00 L 966.00 1062.00 L 966.00 1078.00 L 972.00 1091.00 L 984.00 1101.00 L 993.00 1114.00 L 999.00 1130.00 L 1007.00 1168.00 L 1017.00 1228.00 L 1020.00 1270.00 L 1016.00 1294.00 L 1024.00 1332.00 L 1044.00 1384.00 L 1059.00 1437.00 L 1069.00 1491.00 L 1073.00 1522.00 L 1071.00 1530.00 L 1064.00 1533.00 L 1052.00 1531.00 L 1023.00 1519.00 L 977.00 1497.00 L 935.00 1482.00 L 897.00 1474.00 L 860.00 1470.00 L 824.00 1470.00 L 793.00 1473.00 L 767.00 1479.00 L 734.00 1489.00 L 694.00 1503.00 L 647.00 1526.00 L 593.00 1558.00 L 534.00 1601.00 L 470.00 1655.00 L 428.00 1688.00 L 408.00 1700.00 L 385.00 1710.00 L 359.00 1718.00 L 333.00 1720.00 L 307.00 1716.00 L 287.00 1704.00 L 273.00 1684.00 L 268.00 1655.00 L 272.00 1617.00 L 321.00 1532.00 L 415.00 1400.00 L 418.00 1392.00 L 330.00 1508.00 L 330.00 1506.00 L 418.00 1386.00 L 421.00 1380.00 L 339.00 1488.00 L 335.00 1493.00 L 409.00 1395.00 L 410.00 1393.00 L 338.00 1487.00 L 324.00 1504.00 L 368.00 1444.00 L 373.00 1436.00 L 339.00 1480.00 L 363.00 1448.00 L 445.00 1340.00 L 463.00 1315.00 L 417.00 1373.00 L 415.00 1374.00 L 457.00 1318.00 L 463.00 1302.00 L 433.00 1326.00 L 428.00 1326.00 L 448.00 1302.00 L 443.00 1305.00 L 413.00 1335.00 L 416.00 1328.00 L 452.00 1284.00 L 450.00 1281.00 L 410.00 1319.00 L 407.00 1320.00 L 441.00 1284.00 L 445.00 1278.00 L 419.00 1302.00 L 410.00 1305.00 L 418.00 1287.00 L 431.00 1269.00 L 449.00 1251.00 L 451.00 1248.00 L 437.00 1260.00 L 436.00 1260.00 L 448.00 1248.00 L 451.00 1242.00 L 445.00 1242.00 L 446.00 1238.00 L 454.00 1230.00 L 451.00 1231.00 L 437.00 1241.00 L 428.00 1246.00 L 424.00 1246.00 L 430.00 1239.00 L 446.00 1225.00 L 443.00 1225.00 L 421.00 1239.00 L 418.00 1240.00 L 434.00 1228.00 L 433.00 1227.00 L 415.00 1237.00 L 416.00 1233.00 L 436.00 1215.00 L 435.00 1213.00 L 413.00 1227.00 L 412.00 1226.00 L 432.00 1210.00 L 435.00 1192.00 L 421.00 1172.00 L 415.00 1158.00 L 417.00 1150.00 L 423.00 1141.00 L 433.00 1131.00 L 427.00 1119.00 L 405.00 1105.00 L 388.00 1089.00 L 376.00 1071.00 L 370.00 1060.00 L 370.00 1056.00 L 370.00 1046.00 Z" fill="black" stroke="black" stroke-width="1"/>
</svg>