<?xml version="1.0" encoding="UTF-8"?>
<svg xmlns="http://www.w3.org/2000/svg" viewBox="341.00 149.00 897.00 1622.00">
  <path d="M 481.00 973.00 L 455.00 971.00 L 468.00 970.00 L 520.00 970.00 L 521.00 965.00 L 471.00 955.00 L 471.00 952.00 L 521.00 956.00 L 522.00 954.00 L 474.00 946.00 L 475.00 943.00 L 525.00 945.00 L 527.00 940.00 L 481.00 928.00 L 481.00 925.00 L 527.00 931.00 L 529.00 927.00 L 487.00 913.00 L 488.00 910.00 L 532.00 918.00 L 533.00 915.00 L 491.00 901.00 L 490.00 898.00 L 530.00 906.00 L 531.00 904.00 L 493.00 892.00 L 478.00 880.00 L 486.00 868.00 L 448.00 749.00 L 364.00 523.00 L 351.00 390.00 L 409.00 350.00 L 539.00 286.00 L 741.00 198.00 L 849.00 159.00 L 863.00 169.00 L 898.00 226.00 L 954.00 330.00 L 1005.00 436.00 L 1051.00 544.00 L 1095.00 602.00 L 1137.00 610.00 L 1143.00 629.00 L 1113.00 659.00 L 1116.00 659.00 L 1152.00 629.00 L 1153.00 632.00 L 1119.00 668.00 L 1124.00 670.00 L 1168.00 638.00 L 1169.00 641.00 L 1127.00 679.00 L 1130.00 680.00 L 1178.00 644.00 L 1178.00 648.00 L 1130.00 692.00 L 1133.00 694.00 L 1187.00 654.00 L 1186.00 658.00 L 1130.00 706.00 L 1133.00 707.00 L 1195.00 661.00 L 1195.00 664.00 L 1133.00 716.00 L 1138.00 719.00 L 1210.00 673.00 L 1211.00 676.00 L 1141.00 728.00 L 1144.00 731.00 L 1220.00 685.00 L 1221.00 687.00 L 1147.00 737.00 L 1149.00 740.00 L 1227.00 696.00 L 1228.00 698.00 L 1152.00 746.00 L 1132.00 793.00 L 1168.00 839.00 L 1189.00 873.00 L 1195.00 895.00 L 1184.00 911.00 L 1156.00 921.00 L 1144.00 939.00 L 1148.00 965.00 L 1142.00 995.00 L 1126.00 1029.00 L 1120.00 1061.00 L 1124.00 1091.00 L 1114.00 1116.00 L 1090.00 1136.00 L 1081.00 1152.00 L 1087.00 1164.00 L 1074.00 1196.00 L 1042.00 1248.00 L 1033.00 1285.00 L 1047.00 1307.00 L 1046.00 1309.00 L 1030.00 1291.00 L 1031.00 1293.00 L 1049.00 1315.00 L 1082.00 1393.00 L 1130.00 1527.00 L 1153.00 1617.00 L 1151.00 1663.00 L 1140.00 1700.00 L 1120.00 1728.00 L 1101.00 1747.00 L 1083.00 1757.00 L 1065.00 1761.00 L 1047.00 1759.00 L 971.00 1711.00 L 837.00 1617.00 L 744.00 1558.00 L 692.00 1534.00 L 629.00 1516.00 L 555.00 1504.00 L 525.00 1462.00 L 539.00 1390.00 L 538.00 1364.00 L 522.00 1384.00 L 523.00 1375.00 L 541.00 1337.00 L 539.00 1334.00 L 517.00 1366.00 L 520.00 1360.00 L 548.00 1316.00 L 547.00 1314.00 L 517.00 1354.00 L 518.00 1348.00 L 550.00 1296.00 L 549.00 1293.00 L 515.00 1339.00 L 516.00 1334.00 L 552.00 1278.00 L 553.00 1272.00 L 519.00 1316.00 L 519.00 1313.00 L 553.00 1263.00 L 553.00 1258.00 L 519.00 1298.00 L 519.00 1296.00 L 553.00 1252.00 L 553.00 1249.00 L 519.00 1287.00 L 520.00 1284.00 L 556.00 1240.00 L 557.00 1238.00 L 523.00 1278.00 L 523.00 1276.00 L 557.00 1232.00 L 558.00 1228.00 L 526.00 1264.00 L 527.00 1261.00 L 561.00 1219.00 L 562.00 1215.00 L 530.00 1249.00 L 529.00 1245.00 L 559.00 1203.00 L 561.00 1191.00 L 535.00 1209.00 L 534.00 1206.00 L 558.00 1182.00 L 557.00 1181.00 L 531.00 1203.00 L 531.00 1201.00 L 557.00 1175.00 L 557.00 1173.00 L 531.00 1195.00 L 532.00 1192.00 L 560.00 1164.00 L 556.00 1164.00 L 520.00 1192.00 L 520.00 1189.00 L 556.00 1155.00 L 554.00 1154.00 L 514.00 1186.00 L 511.00 1186.00 L 545.00 1154.00 L 546.00 1148.00 L 514.00 1168.00 L 517.00 1164.00 L 555.00 1136.00 L 551.00 1135.00 L 505.00 1161.00 L 505.00 1158.00 L 551.00 1126.00 L 553.00 1123.00 L 511.00 1149.00 L 512.00 1146.00 L 556.00 1114.00 L 560.00 1109.00 L 524.00 1131.00 L 523.00 1129.00 L 557.00 1103.00 L 562.00 1095.00 L 538.00 1105.00 L 539.00 1103.00 L 565.00 1089.00 L 566.00 1086.00 L 542.00 1094.00 L 535.00 1084.00 L 545.00 1056.00 L 525.00 1046.00 L 475.00 1054.00 L 474.00 1050.00 L 522.00 1034.00 L 520.00 1031.00 L 468.00 1041.00 L 468.00 1037.00 L 520.00 1019.00 L 519.00 1013.00 L 465.00 1019.00 L 450.00 1018.00 L 474.00 1010.00 L 474.00 1006.00 L 450.00 1006.00 L 465.00 1003.00 L 519.00 997.00 L 520.00 994.00 L 468.00 994.00 L 468.00 991.00 L 520.00 985.00 L 520.00 982.00 L 468.00 982.00 L 455.00 980.00 L 481.00 976.00 L 481.00 973.00 Z" fill="black" stroke="black" stroke-width="1"/>
</svg>