<?xml version="1.0" encoding="UTF-8"?>
<svg xmlns="http://www.w3.org/2000/svg" viewBox="320.00 264.00 888.00 1448.00">
  <path d="M 415.00 947.00 L 409.00 937.00 L 406.00 923.00 L 406.00 905.00 L 410.00 882.00 L 418.00 854.00 L 410.00 833.00 L 386.00 819.00 L 373.00 804.00 L 371.00 788.00 L 392.00 754.00 L 436.00 702.00 L 459.00 656.00 L 461.00 616.00 L 458.00 589.00 L 450.00 575.00 L 450.00 573.00 L 458.00 583.00 L 458.00 580.00 L 450.00 564.00 L 451.00 563.00 L 461.00 577.00 L 462.00 575.00 L 454.00 557.00 L 455.00 554.00 L 465.00 566.00 L 467.00 564.00 L 461.00 548.00 L 462.00 546.00 L 470.00 558.00 L 471.00 556.00 L 465.00 540.00 L 466.00 536.00 L 474.00 544.00 L 475.00 542.00 L 469.00 530.00 L 467.00 523.00 L 469.00 521.00 L 473.00 525.00 L 479.00 535.00 L 480.00 533.00 L 476.00 519.00 L 477.00 517.00 L 483.00 527.00 L 483.00 526.00 L 477.00 514.00 L 478.00 511.00 L 486.00 517.00 L 487.00 513.00 L 481.00 499.00 L 481.00 497.00 L 487.00 507.00 L 488.00 505.00 L 484.00 491.00 L 486.00 489.00 L 494.00 499.00 L 495.00 497.00 L 489.00 483.00 L 490.00 482.00 L 498.00 494.00 L 499.00 492.00 L 493.00 476.00 L 494.00 474.00 L 502.00 486.00 L 504.00 483.00 L 500.00 465.00 L 501.00 461.00 L 507.00 471.00 L 508.00 470.00 L 504.00 458.00 L 505.00 458.00 L 511.00 470.00 L 512.00 468.00 L 508.00 452.00 L 509.00 450.00 L 515.00 462.00 L 516.00 461.00 L 512.00 447.00 L 513.00 445.00 L 519.00 455.00 L 520.00 454.00 L 516.00 442.00 L 521.00 426.00 L 535.00 406.00 L 549.00 391.00 L 563.00 381.00 L 578.00 374.00 L 594.00 370.00 L 617.00 357.00 L 647.00 335.00 L 682.00 316.00 L 722.00 300.00 L 754.00 291.00 L 778.00 289.00 L 802.00 284.00 L 826.00 276.00 L 845.00 274.00 L 859.00 278.00 L 876.00 278.00 L 896.00 274.00 L 921.00 275.00 L 951.00 281.00 L 976.00 292.00 L 996.00 308.00 L 1020.00 320.00 L 1048.00 328.00 L 1067.00 339.00 L 1077.00 353.00 L 1091.00 367.00 L 1109.00 381.00 L 1133.00 418.00 L 1163.00 478.00 L 1183.00 530.00 L 1193.00 574.00 L 1198.00 608.00 L 1198.00 632.00 L 1193.00 664.00 L 1183.00 704.00 L 1163.00 750.00 L 1133.00 802.00 L 1113.00 849.00 L 1103.00 891.00 L 1096.00 916.00 L 1092.00 924.00 L 1086.00 930.00 L 1078.00 934.00 L 1076.00 936.00 L 1080.00 936.00 L 1079.00 940.00 L 1073.00 948.00 L 1075.00 956.00 L 1085.00 964.00 L 1092.00 974.00 L 1096.00 986.00 L 1100.00 1033.00 L 1104.00 1115.00 L 1102.00 1163.00 L 1094.00 1177.00 L 1093.00 1191.00 L 1099.00 1205.00 L 1103.00 1231.00 L 1105.00 1269.00 L 1113.00 1309.00 L 1127.00 1351.00 L 1135.00 1385.00 L 1137.00 1411.00 L 1135.00 1425.00 L 1129.00 1427.00 L 1106.00 1421.00 L 1066.00 1407.00 L 1026.00 1396.00 L 986.00 1388.00 L 943.00 1385.00 L 897.00 1387.00 L 859.00 1392.00 L 829.00 1400.00 L 793.00 1414.00 L 751.00 1434.00 L 709.00 1458.00 L 667.00 1486.00 L 596.00 1543.00 L 496.00 1629.00 L 440.00 1680.00 L 428.00 1696.00 L 421.00 1701.00 L 419.00 1695.00 L 414.00 1695.00 L 406.00 1701.00 L 390.00 1702.00 L 366.00 1698.00 L 347.00 1681.00 L 333.00 1651.00 L 330.00 1610.00 L 338.00 1558.00 L 351.00 1511.00 L 369.00 1469.00 L 377.00 1449.00 L 375.00 1451.00 L 382.00 1440.00 L 398.00 1416.00 L 400.00 1412.00 L 388.00 1428.00 L 404.00 1403.00 L 448.00 1337.00 L 457.00 1320.00 L 431.00 1352.00 L 425.00 1358.00 L 439.00 1338.00 L 441.00 1334.00 L 431.00 1346.00 L 428.00 1349.00 L 432.00 1343.00 L 433.00 1341.00 L 431.00 1343.00 L 449.00 1317.00 L 487.00 1263.00 L 498.00 1246.00 L 482.00 1266.00 L 481.00 1265.00 L 495.00 1243.00 L 500.00 1221.00 L 496.00 1199.00 L 488.00 1188.00 L 476.00 1188.00 L 467.00 1186.00 L 461.00 1182.00 L 462.00 1173.00 L 470.00 1159.00 L 469.00 1145.00 L 459.00 1131.00 L 446.00 1118.00 L 430.00 1106.00 L 419.00 1092.00 L 413.00 1076.00 L 404.00 1060.00 L 392.00 1044.00 L 387.00 1026.00 L 389.00 1006.00 L 397.00 988.00 L 411.00 972.00 L 418.00 961.00 L 418.00 955.00 L 415.00 947.00 Z" fill="black" stroke="black" stroke-width="1"/>
</svg>