<?xml version="1.0" encoding="UTF-8"?>
<svg xmlns="http://www.w3.org/2000/svg" viewBox="248.00 232.00 882.00 1422.00">
  <path d="M 407.00 925.00 L 393.00 875.00 L 370.00 841.00 L 338.00 823.00 L 337.00 820.00 L 367.00 832.00 L 365.00 830.00 L 331.00 814.00 L 328.00 812.00 L 356.00 824.00 L 354.00 821.00 L 322.00 803.00 L 306.00 789.00 L 306.00 779.00 L 326.00 750.00 L 366.00 702.00 L 389.00 670.00 L 395.00 654.00 L 388.00 632.00 L 368.00 604.00 L 368.00 601.00 L 388.00 623.00 L 388.00 621.00 L 368.00 595.00 L 368.00 593.00 L 388.00 615.00 L 387.00 611.00 L 365.00 581.00 L 364.00 578.00 L 384.00 602.00 L 386.00 601.00 L 370.00 575.00 L 370.00 569.00 L 386.00 583.00 L 388.00 575.00 L 376.00 545.00 L 377.00 539.00 L 391.00 557.00 L 392.00 555.00 L 380.00 533.00 L 381.00 530.00 L 395.00 546.00 L 397.00 543.00 L 387.00 521.00 L 388.00 519.00 L 400.00 537.00 L 403.00 534.00 L 397.00 510.00 L 400.00 504.00 L 412.00 516.00 L 415.00 514.00 L 409.00 498.00 L 410.00 496.00 L 418.00 508.00 L 420.00 504.00 L 416.00 484.00 L 418.00 480.00 L 426.00 492.00 L 426.00 489.00 L 418.00 471.00 L 419.00 470.00 L 429.00 486.00 L 429.00 483.00 L 419.00 461.00 L 426.00 433.00 L 450.00 399.00 L 480.00 366.00 L 516.00 334.00 L 565.00 302.00 L 627.00 270.00 L 690.00 250.00 L 754.00 242.00 L 823.00 249.00 L 897.00 271.00 L 957.00 304.00 L 1003.00 348.00 L 1029.00 377.00 L 1035.00 391.00 L 1046.00 398.00 L 1062.00 398.00 L 1065.00 409.00 L 1055.00 431.00 L 1058.00 432.00 L 1074.00 412.00 L 1076.00 413.00 L 1064.00 435.00 L 1067.00 437.00 L 1085.00 419.00 L 1086.00 421.00 L 1070.00 443.00 L 1066.00 449.00 L 1074.00 439.00 L 1074.00 441.00 L 1066.00 455.00 L 1071.00 451.00 L 1089.00 429.00 L 1089.00 433.00 L 1071.00 463.00 L 1073.00 465.00 L 1095.00 439.00 L 1097.00 440.00 L 1079.00 468.00 L 1080.00 475.00 L 1100.00 461.00 L 1103.00 462.00 L 1089.00 478.00 L 1089.00 509.00 L 1103.00 555.00 L 1113.00 625.00 L 1119.00 719.00 L 1120.00 773.00 L 1116.00 787.00 L 1087.00 805.00 L 1033.00 827.00 L 1032.00 830.00 L 1084.00 814.00 L 1084.00 817.00 L 1032.00 839.00 L 1031.00 842.00 L 1081.00 826.00 L 1085.00 825.00 L 1043.00 839.00 L 1042.00 842.00 L 1082.00 834.00 L 1078.00 838.00 L 1030.00 854.00 L 1028.00 857.00 L 1072.00 847.00 L 1072.00 850.00 L 1028.00 866.00 L 1003.00 880.00 L 997.00 892.00 L 999.00 907.00 L 1009.00 925.00 L 1020.00 973.00 L 1032.00 1051.00 L 1035.00 1101.00 L 1029.00 1123.00 L 1027.00 1152.00 L 1029.00 1188.00 L 1040.00 1241.00 L 1060.00 1311.00 L 1072.00 1365.00 L 1076.00 1403.00 L 1076.00 1424.00 L 1072.00 1428.00 L 1025.00 1412.00 L 935.00 1376.00 L 873.00 1357.00 L 839.00 1355.00 L 800.00 1358.00 L 756.00 1366.00 L 711.00 1379.00 L 665.00 1397.00 L 618.00 1420.00 L 570.00 1448.00 L 515.00 1485.00 L 453.00 1531.00 L 398.00 1577.00 L 350.00 1623.00 L 312.00 1644.00 L 284.00 1640.00 L 267.00 1632.00 L 261.00 1620.00 L 258.00 1603.00 L 258.00 1581.00 L 273.00 1544.00 L 303.00 1492.00 L 303.00 1486.00 L 273.00 1526.00 L 312.00 1465.00 L 420.00 1303.00 L 417.00 1301.00 L 303.00 1459.00 L 270.00 1501.00 L 318.00 1427.00 L 328.00 1409.00 L 300.00 1447.00 L 329.00 1407.00 L 415.00 1289.00 L 416.00 1286.00 L 332.00 1398.00 L 335.00 1393.00 L 425.00 1271.00 L 426.00 1268.00 L 338.00 1384.00 L 333.00 1390.00 L 411.00 1286.00 L 418.00 1272.00 L 354.00 1348.00 L 359.00 1339.00 L 433.00 1245.00 L 431.00 1243.00 L 353.00 1333.00 L 337.00 1349.00 L 383.00 1291.00 L 383.00 1288.00 L 337.00 1340.00 L 332.00 1344.00 L 368.00 1300.00 L 371.00 1295.00 L 341.00 1329.00 L 356.00 1309.00 L 416.00 1235.00 L 436.00 1209.00 L 416.00 1231.00 L 401.00 1243.00 L 391.00 1245.00 L 395.00 1234.00 L 413.00 1210.00 L 412.00 1208.00 L 392.00 1228.00 L 396.00 1223.00 L 424.00 1193.00 L 435.00 1180.00 L 429.00 1184.00 L 432.00 1177.00 L 444.00 1159.00 L 444.00 1155.00 L 432.00 1165.00 L 432.00 1162.00 L 444.00 1146.00 L 441.00 1145.00 L 423.00 1159.00 L 422.00 1156.00 L 438.00 1136.00 L 436.00 1133.00 L 416.00 1147.00 L 414.00 1144.00 L 430.00 1124.00 L 429.00 1102.00 L 411.00 1078.00 L 404.00 1060.00 L 408.00 1048.00 L 406.00 1030.00 L 398.00 1006.00 L 397.00 986.00 L 403.00 970.00 L 408.00 959.00 L 412.00 953.00 L 407.00 925.00 Z" fill="black" stroke="black" stroke-width="1"/>
</svg>