<?xml version="1.0" encoding="UTF-8"?>
<svg xmlns="http://www.w3.org/2000/svg" viewBox="371.00 303.00 931.00 1323.00">
  <path d="M 549.00 983.00 L 511.00 973.00 L 515.00 969.00 L 561.00 971.00 L 552.00 967.00 L 488.00 957.00 L 483.00 954.00 L 537.00 958.00 L 536.00 957.00 L 480.00 951.00 L 479.00 948.00 L 533.00 948.00 L 531.00 943.00 L 473.00 933.00 L 471.00 930.00 L 525.00 934.00 L 525.00 930.00 L 471.00 918.00 L 427.00 895.00 L 393.00 861.00 L 381.00 828.00 L 391.00 796.00 L 393.00 723.00 L 387.00 609.00 L 395.00 543.00 L 417.00 525.00 L 437.00 488.00 L 455.00 432.00 L 481.00 389.00 L 515.00 359.00 L 546.00 349.00 L 574.00 359.00 L 614.00 352.00 L 666.00 328.00 L 734.00 315.00 L 818.00 313.00 L 877.00 320.00 L 911.00 336.00 L 962.00 369.00 L 1030.00 419.00 L 1070.00 451.00 L 1082.00 465.00 L 1085.00 481.00 L 1079.00 499.00 L 1081.00 500.00 L 1091.00 484.00 L 1093.00 488.00 L 1087.00 512.00 L 1089.00 514.00 L 1099.00 494.00 L 1099.00 495.00 L 1089.00 517.00 L 1090.00 520.00 L 1102.00 504.00 L 1106.00 513.00 L 1102.00 547.00 L 1105.00 556.00 L 1115.00 540.00 L 1114.00 546.00 L 1102.00 574.00 L 1104.00 576.00 L 1120.00 552.00 L 1121.00 554.00 L 1107.00 582.00 L 1107.00 585.00 L 1121.00 563.00 L 1121.00 565.00 L 1107.00 591.00 L 1108.00 594.00 L 1124.00 574.00 L 1125.00 578.00 L 1111.00 606.00 L 1113.00 609.00 L 1131.00 587.00 L 1132.00 592.00 L 1116.00 624.00 L 1119.00 626.00 L 1141.00 598.00 L 1141.00 612.00 L 1119.00 668.00 L 1118.00 685.00 L 1138.00 663.00 L 1138.00 665.00 L 1118.00 691.00 L 1119.00 693.00 L 1141.00 671.00 L 1141.00 675.00 L 1119.00 705.00 L 1119.00 708.00 L 1141.00 684.00 L 1142.00 687.00 L 1122.00 717.00 L 1120.00 724.00 L 1136.00 708.00 L 1138.00 711.00 L 1126.00 733.00 L 1131.00 740.00 L 1153.00 732.00 L 1157.00 737.00 L 1143.00 755.00 L 1148.00 781.00 L 1172.00 815.00 L 1169.00 845.00 L 1139.00 871.00 L 1118.00 927.00 L 1106.00 1013.00 L 1071.00 1072.00 L 1013.00 1104.00 L 1047.00 1199.00 L 1173.00 1357.00 L 1171.00 1358.00 L 1041.00 1202.00 L 1041.00 1205.00 L 1171.00 1367.00 L 1240.00 1456.00 L 1248.00 1472.00 L 1238.00 1464.00 L 1210.00 1432.00 L 1226.00 1461.00 L 1286.00 1551.00 L 1283.00 1553.00 L 1217.00 1467.00 L 1220.00 1480.00 L 1292.00 1592.00 L 1237.00 1519.00 L 1055.00 1261.00 L 1055.00 1264.00 L 1237.00 1528.00 L 1281.00 1598.00 L 1187.00 1474.00 L 1184.00 1480.00 L 1272.00 1616.00 L 1268.00 1614.00 L 1172.00 1474.00 L 1162.00 1469.00 L 1238.00 1599.00 L 1235.00 1598.00 L 1153.00 1466.00 L 1150.00 1464.00 L 1226.00 1592.00 L 1186.00 1526.00 L 1030.00 1266.00 L 1026.00 1264.00 L 1174.00 1520.00 L 1205.00 1580.00 L 1119.00 1444.00 L 1107.00 1436.00 L 1169.00 1556.00 L 1167.00 1555.00 L 1101.00 1433.00 L 1098.00 1432.00 L 1158.00 1552.00 L 1127.00 1495.00 L 1005.00 1261.00 L 1002.00 1259.00 L 1118.00 1489.00 L 1146.00 1545.00 L 1086.00 1427.00 L 1083.00 1425.00 L 1137.00 1539.00 L 1159.00 1593.00 L 1149.00 1587.00 L 1119.00 1531.00 L 1069.00 1425.00 L 1065.00 1423.00 L 1107.00 1525.00 L 1080.00 1469.00 L 984.00 1255.00 L 981.00 1253.00 L 1071.00 1463.00 L 1092.00 1518.00 L 1044.00 1418.00 L 1037.00 1415.00 L 1071.00 1509.00 L 1068.00 1506.00 L 1028.00 1406.00 L 1026.00 1404.00 L 1062.00 1500.00 L 1042.00 1450.00 L 966.00 1254.00 L 964.00 1254.00 L 1036.00 1450.00 L 1049.00 1494.00 L 1003.00 1386.00 L 996.00 1382.00 L 1028.00 1482.00 L 1040.00 1530.00 L 1032.00 1526.00 L 1013.00 1475.00 L 983.00 1377.00 L 981.00 1376.00 L 1007.00 1472.00 L 994.00 1432.00 L 942.00 1256.00 L 940.00 1255.00 L 988.00 1429.00 L 987.00 1431.00 L 937.00 1261.00 L 932.00 1258.00 L 972.00 1422.00 L 972.00 1424.00 L 932.00 1264.00 L 929.00 1263.00 L 963.00 1421.00 L 962.00 1423.00 L 926.00 1269.00 L 923.00 1267.00 L 953.00 1417.00 L 953.00 1420.00 L 923.00 1276.00 L 920.00 1275.00 L 944.00 1417.00 L 944.00 1424.00 L 920.00 1296.00 L 916.00 1294.00 L 932.00 1418.00 L 878.00 1456.00 L 754.00 1408.00 L 633.00 1371.00 L 515.00 1345.00 L 452.00 1324.00 L 444.00 1308.00 L 447.00 1286.00 L 461.00 1258.00 L 456.00 1237.00 L 432.00 1223.00 L 449.00 1196.00 L 507.00 1156.00 L 512.00 1146.00 L 464.00 1166.00 L 466.00 1164.00 L 518.00 1140.00 L 550.00 1095.00 L 562.00 1029.00 L 568.00 994.00 L 568.00 990.00 L 549.00 983.00 Z" fill="black" stroke="black" stroke-width="1"/>
</svg>