<?xml version="1.0" encoding="UTF-8"?>
<svg xmlns="http://www.w3.org/2000/svg" viewBox="358.00 259.00 823.00 1466.00">
  <path d="M 426.00 1014.00 L 430.00 998.00 L 438.00 983.00 L 450.00 969.00 L 450.00 945.00 L 438.00 911.00 L 434.00 881.00 L 438.00 855.00 L 429.00 834.00 L 407.00 818.00 L 406.00 815.00 L 426.00 825.00 L 423.00 821.00 L 397.00 803.00 L 384.00 789.00 L 384.00 779.00 L 408.00 744.00 L 456.00 684.00 L 481.00 651.00 L 483.00 645.00 L 481.00 629.00 L 475.00 603.00 L 479.00 576.00 L 493.00 548.00 L 507.00 525.00 L 521.00 507.00 L 530.00 489.00 L 534.00 471.00 L 537.00 464.00 L 539.00 468.00 L 541.00 468.00 L 543.00 464.00 L 543.00 459.00 L 541.00 453.00 L 542.00 452.00 L 546.00 456.00 L 547.00 454.00 L 545.00 446.00 L 549.00 434.00 L 559.00 418.00 L 584.00 394.00 L 624.00 362.00 L 661.00 336.00 L 695.00 316.00 L 720.00 305.00 L 736.00 303.00 L 752.00 297.00 L 768.00 287.00 L 786.00 282.00 L 806.00 282.00 L 826.00 278.00 L 846.00 270.00 L 866.00 269.00 L 886.00 275.00 L 903.00 277.00 L 917.00 275.00 L 930.00 278.00 L 942.00 286.00 L 958.00 292.00 L 978.00 296.00 L 1004.00 308.00 L 1036.00 328.00 L 1067.00 357.00 L 1097.00 395.00 L 1120.00 431.00 L 1136.00 465.00 L 1147.00 490.00 L 1153.00 506.00 L 1160.00 545.00 L 1168.00 607.00 L 1171.00 662.00 L 1169.00 710.00 L 1155.00 764.00 L 1129.00 824.00 L 1117.00 872.00 L 1119.00 908.00 L 1114.00 930.00 L 1102.00 938.00 L 1101.00 941.00 L 1111.00 939.00 L 1110.00 941.00 L 1098.00 947.00 L 1098.00 956.00 L 1110.00 968.00 L 1118.00 988.00 L 1122.00 1016.00 L 1124.00 1056.00 L 1124.00 1108.00 L 1118.00 1139.00 L 1106.00 1149.00 L 1100.00 1160.00 L 1100.00 1172.00 L 1112.00 1218.00 L 1136.00 1298.00 L 1150.00 1354.00 L 1154.00 1386.00 L 1154.00 1404.00 L 1150.00 1408.00 L 1137.00 1408.00 L 1115.00 1404.00 L 1072.00 1404.00 L 1008.00 1408.00 L 948.00 1419.00 L 892.00 1437.00 L 840.00 1458.00 L 792.00 1482.00 L 748.00 1507.00 L 708.00 1533.00 L 640.00 1586.00 L 544.00 1666.00 L 482.00 1709.00 L 454.00 1715.00 L 432.00 1714.00 L 416.00 1706.00 L 403.00 1705.00 L 393.00 1711.00 L 390.00 1708.00 L 394.00 1696.00 L 393.00 1694.00 L 387.00 1702.00 L 384.00 1699.00 L 384.00 1685.00 L 382.00 1680.00 L 378.00 1684.00 L 378.00 1680.00 L 382.00 1668.00 L 381.00 1667.00 L 375.00 1677.00 L 374.00 1678.00 L 378.00 1670.00 L 377.00 1669.00 L 371.00 1675.00 L 371.00 1670.00 L 377.00 1654.00 L 376.00 1652.00 L 368.00 1664.00 L 368.00 1661.00 L 376.00 1643.00 L 380.00 1621.00 L 380.00 1595.00 L 387.00 1557.00 L 401.00 1507.00 L 416.00 1466.00 L 432.00 1434.00 L 437.00 1422.00 L 431.00 1430.00 L 445.00 1408.00 L 479.00 1356.00 L 497.00 1319.00 L 499.00 1297.00 L 503.00 1279.00 L 509.00 1265.00 L 511.00 1259.00 L 509.00 1261.00 L 517.00 1252.00 L 535.00 1232.00 L 537.00 1229.00 L 523.00 1243.00 L 522.00 1240.00 L 534.00 1220.00 L 539.00 1208.00 L 537.00 1204.00 L 527.00 1208.00 L 509.00 1220.00 L 508.00 1218.00 L 524.00 1202.00 L 522.00 1201.00 L 502.00 1215.00 L 502.00 1213.00 L 522.00 1195.00 L 521.00 1194.00 L 499.00 1210.00 L 497.00 1210.00 L 515.00 1194.00 L 515.00 1192.00 L 497.00 1204.00 L 498.00 1202.00 L 518.00 1186.00 L 520.00 1184.00 L 504.00 1196.00 L 503.00 1195.00 L 517.00 1181.00 L 518.00 1178.00 L 506.00 1186.00 L 502.00 1182.00 L 506.00 1166.00 L 502.00 1158.00 L 490.00 1158.00 L 481.00 1155.00 L 475.00 1149.00 L 472.00 1144.00 L 472.00 1140.00 L 478.00 1134.00 L 490.00 1126.00 L 491.00 1124.00 L 481.00 1128.00 L 480.00 1126.00 L 488.00 1118.00 L 480.00 1104.00 L 456.00 1084.00 L 444.00 1069.00 L 444.00 1059.00 L 440.00 1049.00 L 432.00 1039.00 L 427.00 1031.00 L 425.00 1025.00 L 426.00 1014.00 Z" fill="black" stroke="black" stroke-width="1"/>
</svg>