<?xml version="1.0" encoding="UTF-8"?>
<svg xmlns="http://www.w3.org/2000/svg" viewBox="382.00 308.00 909.00 1384.00">
  <path d="M 496.00 985.00 L 500.00 967.00 L 496.00 955.00 L 484.00 949.00 L 484.00 947.00 L 496.00 949.00 L 487.00 944.00 L 457.00 932.00 L 461.00 893.00 L 499.00 827.00 L 507.00 779.00 L 485.00 749.00 L 484.00 742.00 L 504.00 758.00 L 506.00 759.00 L 490.00 745.00 L 481.00 735.00 L 479.00 729.00 L 486.00 733.00 L 502.00 747.00 L 502.00 736.00 L 486.00 700.00 L 485.00 689.00 L 499.00 703.00 L 498.00 700.00 L 482.00 680.00 L 482.00 678.00 L 498.00 694.00 L 499.00 692.00 L 485.00 672.00 L 485.00 669.00 L 499.00 683.00 L 499.00 682.00 L 485.00 666.00 L 485.00 663.00 L 499.00 673.00 L 500.00 670.00 L 488.00 654.00 L 488.00 651.00 L 500.00 661.00 L 501.00 658.00 L 491.00 642.00 L 492.00 640.00 L 504.00 652.00 L 505.00 650.00 L 495.00 634.00 L 495.00 632.00 L 505.00 644.00 L 506.00 642.00 L 498.00 626.00 L 499.00 624.00 L 509.00 636.00 L 510.00 634.00 L 502.00 618.00 L 503.00 614.00 L 513.00 622.00 L 515.00 614.00 L 509.00 590.00 L 513.00 583.00 L 527.00 593.00 L 530.00 586.00 L 522.00 562.00 L 524.00 558.00 L 536.00 574.00 L 538.00 572.00 L 530.00 552.00 L 531.00 550.00 L 541.00 566.00 L 543.00 564.00 L 537.00 544.00 L 548.00 521.00 L 576.00 495.00 L 625.00 465.00 L 695.00 431.00 L 748.00 410.00 L 784.00 402.00 L 805.00 382.00 L 811.00 350.00 L 816.00 349.00 L 820.00 379.00 L 824.00 378.00 L 828.00 346.00 L 830.00 346.00 L 830.00 378.00 L 832.00 378.00 L 836.00 346.00 L 856.00 326.00 L 892.00 318.00 L 927.00 321.00 L 961.00 335.00 L 979.00 339.00 L 981.00 333.00 L 981.00 334.00 L 979.00 342.00 L 982.00 340.00 L 990.00 328.00 L 1007.00 334.00 L 1033.00 358.00 L 1057.00 368.00 L 1079.00 364.00 L 1112.00 378.00 L 1156.00 410.00 L 1185.00 440.00 L 1199.00 468.00 L 1215.00 482.00 L 1233.00 482.00 L 1243.00 493.00 L 1245.00 515.00 L 1254.00 537.00 L 1270.00 559.00 L 1279.00 624.00 L 1281.00 732.00 L 1271.00 792.00 L 1249.00 804.00 L 1247.00 808.00 L 1265.00 804.00 L 1266.00 807.00 L 1250.00 817.00 L 1235.00 844.00 L 1221.00 888.00 L 1195.00 916.00 L 1157.00 928.00 L 1150.00 932.00 L 1174.00 928.00 L 1171.00 931.00 L 1141.00 941.00 L 1105.00 964.00 L 1063.00 1000.00 L 1035.00 1034.00 L 1021.00 1066.00 L 1015.00 1110.00 L 1017.00 1166.00 L 1026.00 1202.00 L 1042.00 1218.00 L 1043.00 1221.00 L 1029.00 1211.00 L 1030.00 1214.00 L 1046.00 1230.00 L 1047.00 1233.00 L 1033.00 1223.00 L 1033.00 1225.00 L 1047.00 1239.00 L 1067.00 1280.00 L 1093.00 1348.00 L 1109.00 1411.00 L 1115.00 1469.00 L 1087.00 1494.00 L 1025.00 1486.00 L 955.00 1490.00 L 877.00 1506.00 L 767.00 1550.00 L 625.00 1622.00 L 580.00 1582.00 L 632.00 1430.00 L 630.00 1432.00 L 574.00 1588.00 L 578.00 1575.00 L 642.00 1393.00 L 640.00 1394.00 L 572.00 1578.00 L 574.00 1571.00 L 646.00 1373.00 L 640.00 1377.00 L 556.00 1583.00 L 555.00 1582.00 L 637.00 1374.00 L 635.00 1376.00 L 549.00 1588.00 L 549.00 1586.00 L 635.00 1370.00 L 632.00 1372.00 L 540.00 1592.00 L 540.00 1590.00 L 632.00 1366.00 L 625.00 1373.00 L 519.00 1611.00 L 519.00 1608.00 L 625.00 1364.00 L 623.00 1365.00 L 513.00 1611.00 L 487.00 1667.00 L 545.00 1533.00 L 538.00 1535.00 L 466.00 1673.00 L 491.00 1613.00 L 613.00 1355.00 L 610.00 1354.00 L 482.00 1610.00 L 446.00 1680.00 L 502.00 1564.00 L 499.00 1560.00 L 437.00 1668.00 L 472.00 1596.00 L 604.00 1344.00 L 602.00 1344.00 L 466.00 1596.00 L 424.00 1673.00 L 476.00 1575.00 L 471.00 1576.00 L 409.00 1676.00 L 401.00 1682.00 L 447.00 1594.00 L 450.00 1583.00 L 410.00 1649.00 L 407.00 1651.00 L 441.00 1589.00 L 440.00 1586.00 L 404.00 1642.00 L 455.00 1554.00 L 593.00 1322.00 L 593.00 1320.00 L 455.00 1548.00 L 396.00 1644.00 L 416.00 1608.00 L 416.00 1605.00 L 396.00 1635.00 L 392.00 1638.00 L 404.00 1614.00 L 405.00 1609.00 L 395.00 1623.00 L 455.00 1521.00 L 585.00 1303.00 L 622.00 1185.00 L 566.00 1167.00 L 533.00 1147.00 L 523.00 1125.00 L 521.00 1104.00 L 527.00 1084.00 L 522.00 1057.00 L 506.00 1023.00 L 497.00 1003.00 L 495.00 997.00 L 496.00 985.00 Z" fill="black" stroke="black" stroke-width="1"/>
</svg>