<?xml version="1.0" encoding="UTF-8"?>
<svg xmlns="http://www.w3.org/2000/svg" viewBox="234.00 270.00 976.00 1446.00">
  <path d="M 397.00 932.00 L 395.00 888.00 L 378.00 854.00 L 346.00 830.00 L 349.00 785.00 L 387.00 719.00 L 400.00 655.00 L 388.00 593.00 L 386.00 566.00 L 394.00 574.00 L 393.00 568.00 L 383.00 548.00 L 384.00 544.00 L 396.00 556.00 L 399.00 552.00 L 393.00 532.00 L 394.00 526.00 L 402.00 534.00 L 405.00 528.00 L 403.00 508.00 L 406.00 502.00 L 414.00 510.00 L 414.00 504.00 L 406.00 484.00 L 408.00 481.00 L 420.00 495.00 L 422.00 490.00 L 414.00 466.00 L 416.00 463.00 L 428.00 481.00 L 431.00 478.00 L 425.00 454.00 L 427.00 451.00 L 437.00 469.00 L 440.00 466.00 L 436.00 442.00 L 439.00 436.00 L 449.00 448.00 L 451.00 447.00 L 445.00 433.00 L 465.00 403.00 L 511.00 357.00 L 585.00 318.00 L 687.00 286.00 L 775.00 280.00 L 849.00 300.00 L 890.00 304.00 L 898.00 292.00 L 900.00 294.00 L 896.00 310.00 L 899.00 308.00 L 909.00 288.00 L 911.00 289.00 L 905.00 311.00 L 907.00 310.00 L 917.00 286.00 L 918.00 287.00 L 910.00 313.00 L 913.00 313.00 L 927.00 287.00 L 929.00 289.00 L 919.00 319.00 L 921.00 319.00 L 935.00 289.00 L 938.00 289.00 L 930.00 319.00 L 933.00 320.00 L 947.00 292.00 L 948.00 294.00 L 936.00 326.00 L 940.00 327.00 L 960.00 297.00 L 982.00 294.00 L 1006.00 318.00 L 1023.00 344.00 L 1033.00 372.00 L 1047.00 384.00 L 1065.00 380.00 L 1068.00 407.00 L 1056.00 465.00 L 1057.00 485.00 L 1071.00 467.00 L 1073.00 466.00 L 1063.00 482.00 L 1066.00 481.00 L 1082.00 463.00 L 1082.00 466.00 L 1066.00 490.00 L 1069.00 490.00 L 1091.00 466.00 L 1118.00 465.00 L 1150.00 487.00 L 1166.00 516.00 L 1166.00 552.00 L 1159.00 588.00 L 1145.00 624.00 L 1152.00 648.00 L 1180.00 660.00 L 1196.00 682.00 L 1200.00 714.00 L 1140.00 758.00 L 1016.00 814.00 L 1015.00 817.00 L 1137.00 767.00 L 1135.00 769.00 L 1009.00 823.00 L 1007.00 825.00 L 1129.00 775.00 L 1129.00 777.00 L 1007.00 831.00 L 1003.00 836.00 L 1117.00 792.00 L 1136.00 786.00 L 1060.00 818.00 L 1054.00 824.00 L 1118.00 804.00 L 1117.00 806.00 L 1051.00 830.00 L 1047.00 832.00 L 1105.00 812.00 L 1087.00 819.00 L 993.00 853.00 L 963.00 866.00 L 997.00 858.00 L 983.00 868.00 L 921.00 896.00 L 886.00 924.00 L 878.00 952.00 L 875.00 1012.00 L 877.00 1104.00 L 898.00 1191.00 L 938.00 1273.00 L 953.00 1308.00 L 943.00 1296.00 L 947.00 1308.00 L 965.00 1344.00 L 982.00 1401.00 L 998.00 1479.00 L 999.00 1524.00 L 985.00 1536.00 L 904.00 1546.00 L 756.00 1554.00 L 624.00 1582.00 L 508.00 1630.00 L 482.00 1560.00 L 546.00 1372.00 L 543.00 1373.00 L 473.00 1563.00 L 474.00 1557.00 L 546.00 1355.00 L 542.00 1358.00 L 462.00 1566.00 L 462.00 1564.00 L 542.00 1352.00 L 538.00 1354.00 L 450.00 1570.00 L 450.00 1567.00 L 538.00 1345.00 L 535.00 1347.00 L 441.00 1573.00 L 441.00 1571.00 L 535.00 1341.00 L 533.00 1342.00 L 435.00 1574.00 L 424.00 1598.00 L 500.00 1414.00 L 498.00 1415.00 L 418.00 1601.00 L 373.00 1698.00 L 363.00 1706.00 L 413.00 1586.00 L 523.00 1338.00 L 518.00 1341.00 L 398.00 1595.00 L 398.00 1592.00 L 518.00 1332.00 L 515.00 1334.00 L 389.00 1598.00 L 364.00 1648.00 L 440.00 1484.00 L 437.00 1486.00 L 355.00 1654.00 L 353.00 1655.00 L 431.00 1489.00 L 425.00 1491.00 L 335.00 1661.00 L 361.00 1607.00 L 503.00 1329.00 L 500.00 1330.00 L 352.00 1610.00 L 352.00 1608.00 L 500.00 1324.00 L 497.00 1325.00 L 343.00 1611.00 L 308.00 1674.00 L 392.00 1514.00 L 387.00 1514.00 L 293.00 1674.00 L 327.00 1608.00 L 489.00 1316.00 L 486.00 1314.00 L 318.00 1602.00 L 268.00 1686.00 L 336.00 1566.00 L 334.00 1563.00 L 262.00 1677.00 L 257.00 1680.00 L 319.00 1572.00 L 318.00 1569.00 L 254.00 1671.00 L 308.00 1582.00 L 480.00 1302.00 L 479.00 1298.00 L 305.00 1570.00 L 244.00 1663.00 L 296.00 1577.00 L 299.00 1570.00 L 253.00 1642.00 L 250.00 1644.00 L 290.00 1576.00 L 288.00 1571.00 L 244.00 1629.00 L 307.00 1531.00 L 477.00 1277.00 L 478.00 1274.00 L 310.00 1522.00 L 309.00 1521.00 L 475.00 1271.00 L 551.00 1135.00 L 537.00 1113.00 L 496.00 1087.00 L 428.00 1057.00 L 391.00 1036.00 L 385.00 1024.00 L 387.00 1005.00 L 397.00 979.00 L 401.00 963.00 L 399.00 957.00 L 397.00 932.00 Z" fill="black" stroke="black" stroke-width="1"/>
</svg>