<?xml version="1.0" encoding="UTF-8"?>
<svg xmlns="http://www.w3.org/2000/svg" viewBox="358.00 336.00 872.00 1466.00">
  <path d="M 554.00 1026.00 L 514.00 1018.00 L 492.00 1013.00 L 488.00 1011.00 L 503.00 1011.00 L 537.00 1013.00 L 535.00 1012.00 L 497.00 1008.00 L 500.00 1008.00 L 544.00 1012.00 L 541.00 1010.00 L 491.00 1002.00 L 459.00 993.00 L 445.00 983.00 L 431.00 970.00 L 417.00 954.00 L 402.00 926.00 L 386.00 886.00 L 375.00 849.00 L 369.00 815.00 L 368.00 747.00 L 372.00 645.00 L 384.00 566.00 L 404.00 510.00 L 430.00 463.00 L 462.00 425.00 L 495.00 401.00 L 529.00 391.00 L 555.00 380.00 L 573.00 368.00 L 587.00 363.00 L 597.00 365.00 L 615.00 361.00 L 641.00 351.00 L 660.00 346.00 L 672.00 346.00 L 682.00 356.00 L 690.00 376.00 L 693.00 376.00 L 691.00 356.00 L 693.00 356.00 L 699.00 376.00 L 701.00 378.00 L 699.00 362.00 L 702.00 362.00 L 710.00 378.00 L 727.00 383.00 L 753.00 377.00 L 793.00 374.00 L 847.00 374.00 L 898.00 382.00 L 946.00 398.00 L 981.00 413.00 L 1003.00 427.00 L 1033.00 456.00 L 1071.00 500.00 L 1088.00 531.00 L 1084.00 549.00 L 1086.00 553.00 L 1094.00 543.00 L 1094.00 547.00 L 1086.00 565.00 L 1087.00 568.00 L 1097.00 556.00 L 1099.00 562.00 L 1093.00 586.00 L 1095.00 592.00 L 1105.00 580.00 L 1105.00 583.00 L 1095.00 601.00 L 1095.00 602.00 L 1105.00 586.00 L 1105.00 589.00 L 1095.00 611.00 L 1096.00 613.00 L 1108.00 595.00 L 1108.00 596.00 L 1096.00 616.00 L 1096.00 618.00 L 1108.00 602.00 L 1108.00 610.00 L 1096.00 642.00 L 1098.00 647.00 L 1114.00 625.00 L 1114.00 627.00 L 1098.00 653.00 L 1099.00 655.00 L 1117.00 633.00 L 1117.00 636.00 L 1099.00 664.00 L 1099.00 666.00 L 1117.00 642.00 L 1117.00 644.00 L 1099.00 672.00 L 1099.00 675.00 L 1117.00 653.00 L 1117.00 655.00 L 1099.00 681.00 L 1093.00 707.00 L 1099.00 733.00 L 1120.00 764.00 L 1156.00 800.00 L 1178.00 828.00 L 1186.00 848.00 L 1189.00 862.00 L 1187.00 870.00 L 1175.00 880.00 L 1153.00 892.00 L 1150.00 895.00 L 1166.00 889.00 L 1164.00 892.00 L 1144.00 904.00 L 1135.00 921.00 L 1137.00 943.00 L 1134.00 959.00 L 1126.00 969.00 L 1123.00 980.00 L 1125.00 992.00 L 1122.00 1005.00 L 1114.00 1019.00 L 1112.00 1033.00 L 1116.00 1047.00 L 1116.00 1067.00 L 1112.00 1093.00 L 1095.00 1116.00 L 1065.00 1136.00 L 1028.00 1153.00 L 984.00 1167.00 L 957.00 1189.00 L 947.00 1219.00 L 1010.00 1358.00 L 1146.00 1606.00 L 1215.00 1733.00 L 1217.00 1739.00 L 1214.00 1735.00 L 1206.00 1721.00 L 1208.00 1726.00 L 1220.00 1750.00 L 1218.00 1748.00 L 1202.00 1720.00 L 1202.00 1721.00 L 1218.00 1751.00 L 1216.00 1749.00 L 1196.00 1715.00 L 1196.00 1717.00 L 1216.00 1755.00 L 1214.00 1753.00 L 1190.00 1711.00 L 1190.00 1713.00 L 1214.00 1759.00 L 1213.00 1758.00 L 1187.00 1710.00 L 1187.00 1713.00 L 1213.00 1767.00 L 1155.00 1658.00 L 1013.00 1386.00 L 1013.00 1388.00 L 1155.00 1664.00 L 1154.00 1663.00 L 1010.00 1385.00 L 1010.00 1388.00 L 1154.00 1672.00 L 1205.00 1775.00 L 1163.00 1697.00 L 1162.00 1699.00 L 1202.00 1781.00 L 1200.00 1779.00 L 1156.00 1693.00 L 1156.00 1695.00 L 1200.00 1785.00 L 1198.00 1783.00 L 1150.00 1689.00 L 1149.00 1690.00 L 1195.00 1786.00 L 1148.00 1690.00 L 1008.00 1402.00 L 1007.00 1404.00 L 1145.00 1696.00 L 1143.00 1693.00 L 1001.00 1395.00 L 999.00 1398.00 L 1137.00 1702.00 L 1140.00 1711.00 L 1008.00 1425.00 L 1007.00 1426.00 L 1137.00 1714.00 L 1137.00 1716.00 L 1007.00 1432.00 L 1004.00 1435.00 L 1128.00 1725.00 L 1128.00 1727.00 L 1004.00 1441.00 L 1001.00 1443.00 L 1119.00 1733.00 L 1119.00 1738.00 L 1001.00 1458.00 L 998.00 1460.00 L 1110.00 1744.00 L 1110.00 1745.00 L 998.00 1463.00 L 996.00 1462.00 L 1104.00 1742.00 L 1122.00 1792.00 L 1050.00 1612.00 L 1046.00 1608.00 L 1110.00 1780.00 L 1092.00 1733.00 L 992.00 1467.00 L 990.00 1464.00 L 1086.00 1724.00 L 1088.00 1732.00 L 996.00 1488.00 L 992.00 1483.00 L 1076.00 1717.00 L 1077.00 1722.00 L 995.00 1498.00 L 991.00 1494.00 L 1065.00 1710.00 L 1055.00 1767.00 L 961.00 1665.00 L 879.00 1588.00 L 809.00 1536.00 L 736.00 1493.00 L 660.00 1459.00 L 587.00 1434.00 L 517.00 1418.00 L 497.00 1383.00 L 527.00 1329.00 L 546.00 1284.00 L 554.00 1248.00 L 565.00 1220.00 L 579.00 1200.00 L 588.00 1170.00 L 592.00 1130.00 L 590.00 1093.00 L 582.00 1059.00 L 577.00 1039.00 L 575.00 1033.00 L 554.00 1026.00 Z" fill="black" stroke="black" stroke-width="1"/>
</svg>