<?xml version="1.0" encoding="UTF-8"?>
<svg xmlns="http://www.w3.org/2000/svg" viewBox="341.00 197.00 915.00 1640.00">
  <path d="M 407.00 1005.00 L 405.00 991.00 L 426.00 956.00 L 470.00 900.00 L 445.00 844.00 L 351.00 788.00 L 352.00 785.00 L 448.00 835.00 L 450.00 832.00 L 358.00 776.00 L 358.00 774.00 L 450.00 826.00 L 453.00 824.00 L 367.00 768.00 L 365.00 764.00 L 447.00 812.00 L 449.00 810.00 L 371.00 758.00 L 369.00 755.00 L 443.00 801.00 L 445.00 800.00 L 375.00 752.00 L 376.00 749.00 L 448.00 791.00 L 454.00 788.00 L 394.00 740.00 L 395.00 737.00 L 457.00 779.00 L 461.00 778.00 L 407.00 734.00 L 408.00 732.00 L 464.00 772.00 L 467.00 771.00 L 417.00 729.00 L 418.00 726.00 L 470.00 762.00 L 475.00 761.00 L 433.00 723.00 L 435.00 721.00 L 481.00 755.00 L 484.00 754.00 L 444.00 718.00 L 445.00 715.00 L 487.00 745.00 L 493.00 744.00 L 463.00 712.00 L 464.00 710.00 L 496.00 738.00 L 498.00 737.00 L 470.00 707.00 L 471.00 688.00 L 501.00 680.00 L 571.00 567.00 L 681.00 349.00 L 738.00 244.00 L 742.00 252.00 L 744.00 249.00 L 744.00 235.00 L 746.00 235.00 L 750.00 249.00 L 752.00 246.00 L 752.00 226.00 L 755.00 226.00 L 761.00 246.00 L 764.00 243.00 L 764.00 217.00 L 766.00 208.00 L 770.00 216.00 L 772.00 216.00 L 772.00 208.00 L 780.00 207.00 L 796.00 213.00 L 806.00 225.00 L 810.00 243.00 L 813.00 244.00 L 815.00 228.00 L 817.00 227.00 L 819.00 241.00 L 821.00 245.00 L 823.00 239.00 L 834.00 239.00 L 854.00 245.00 L 865.00 253.00 L 867.00 263.00 L 870.00 264.00 L 874.00 256.00 L 876.00 256.00 L 876.00 264.00 L 885.00 269.00 L 903.00 271.00 L 972.00 305.00 L 1092.00 371.00 L 1178.00 425.00 L 1230.00 467.00 L 1246.00 528.00 L 1226.00 608.00 L 1183.00 722.00 L 1117.00 870.00 L 1095.00 970.00 L 1117.00 1022.00 L 1105.00 1047.00 L 1059.00 1045.00 L 1060.00 1048.00 L 1108.00 1056.00 L 1108.00 1059.00 L 1060.00 1057.00 L 1062.00 1064.00 L 1114.00 1080.00 L 1112.00 1083.00 L 1056.00 1073.00 L 1058.00 1076.00 L 1118.00 1092.00 L 1118.00 1094.00 L 1058.00 1082.00 L 1059.00 1085.00 L 1121.00 1103.00 L 1135.00 1109.00 L 1101.00 1103.00 L 1103.00 1107.00 L 1141.00 1121.00 L 1128.00 1119.00 L 1064.00 1101.00 L 1066.00 1107.00 L 1134.00 1137.00 L 1134.00 1140.00 L 1066.00 1116.00 L 1066.00 1119.00 L 1134.00 1149.00 L 1134.00 1151.00 L 1066.00 1125.00 L 1063.00 1127.00 L 1125.00 1157.00 L 1125.00 1160.00 L 1063.00 1136.00 L 1035.00 1157.00 L 1041.00 1223.00 L 1054.00 1288.00 L 1074.00 1352.00 L 1091.00 1431.00 L 1105.00 1525.00 L 1075.00 1569.00 L 1001.00 1563.00 L 936.00 1567.00 L 880.00 1581.00 L 818.00 1607.00 L 750.00 1645.00 L 676.00 1704.00 L 596.00 1784.00 L 540.00 1825.00 L 508.00 1827.00 L 485.00 1816.00 L 471.00 1792.00 L 465.00 1753.00 L 467.00 1699.00 L 500.00 1603.00 L 564.00 1465.00 L 565.00 1460.00 L 503.00 1588.00 L 501.00 1586.00 L 559.00 1454.00 L 572.00 1419.00 L 540.00 1481.00 L 539.00 1480.00 L 569.00 1416.00 L 574.00 1394.00 L 554.00 1414.00 L 550.00 1412.00 L 562.00 1388.00 L 556.00 1394.00 L 532.00 1430.00 L 530.00 1425.00 L 550.00 1379.00 L 548.00 1344.00 L 524.00 1320.00 L 513.00 1301.00 L 515.00 1287.00 L 501.00 1268.00 L 471.00 1244.00 L 453.00 1197.00 L 447.00 1127.00 L 447.00 1080.00 L 453.00 1056.00 L 446.00 1038.00 L 426.00 1026.00 L 414.00 1018.00 L 410.00 1014.00 L 407.00 1005.00 Z" fill="black" stroke="black" stroke-width="1"/>
</svg>