<?xml version="1.0" encoding="UTF-8"?>
<svg xmlns="http://www.w3.org/2000/svg" viewBox="344.00 298.00 863.00 1496.00">
  <path d="M 407.00 1035.00 L 409.00 1005.00 L 401.00 985.00 L 383.00 975.00 L 370.00 963.00 L 362.00 949.00 L 378.00 912.00 L 418.00 852.00 L 437.00 814.00 L 435.00 798.00 L 438.00 781.00 L 446.00 763.00 L 422.00 719.00 L 366.00 649.00 L 367.00 648.00 L 425.00 716.00 L 424.00 714.00 L 364.00 642.00 L 364.00 640.00 L 424.00 708.00 L 425.00 706.00 L 367.00 634.00 L 368.00 633.00 L 428.00 703.00 L 430.00 702.00 L 374.00 630.00 L 356.00 604.00 L 376.00 624.00 L 378.00 622.00 L 362.00 598.00 L 382.00 621.00 L 438.00 691.00 L 441.00 691.00 L 391.00 621.00 L 391.00 619.00 L 441.00 685.00 L 444.00 685.00 L 400.00 619.00 L 401.00 617.00 L 447.00 679.00 L 450.00 679.00 L 410.00 617.00 L 411.00 615.00 L 453.00 673.00 L 456.00 673.00 L 420.00 615.00 L 420.00 613.00 L 456.00 667.00 L 457.00 667.00 L 423.00 613.00 L 424.00 611.00 L 460.00 661.00 L 463.00 661.00 L 433.00 611.00 L 434.00 609.00 L 466.00 655.00 L 468.00 655.00 L 440.00 609.00 L 441.00 608.00 L 471.00 652.00 L 474.00 652.00 L 450.00 608.00 L 459.00 588.00 L 501.00 592.00 L 592.00 524.00 L 732.00 384.00 L 808.00 312.00 L 820.00 308.00 L 837.00 314.00 L 859.00 330.00 L 894.00 359.00 L 942.00 401.00 L 972.00 431.00 L 984.00 449.00 L 993.00 457.00 L 999.00 455.00 L 1012.00 463.00 L 1032.00 481.00 L 1041.00 494.00 L 1039.00 502.00 L 1041.00 504.00 L 1047.00 500.00 L 1086.00 531.00 L 1158.00 597.00 L 1195.00 635.00 L 1197.00 645.00 L 1145.00 725.00 L 1039.00 875.00 L 997.00 974.00 L 1019.00 1022.00 L 1008.00 1048.00 L 964.00 1052.00 L 966.00 1057.00 L 1014.00 1063.00 L 1013.00 1066.00 L 963.00 1066.00 L 964.00 1069.00 L 1016.00 1075.00 L 1016.00 1078.00 L 964.00 1078.00 L 966.00 1083.00 L 1022.00 1093.00 L 1022.00 1095.00 L 966.00 1089.00 L 967.00 1091.00 L 1025.00 1101.00 L 1037.00 1105.00 L 1003.00 1103.00 L 1005.00 1107.00 L 1043.00 1117.00 L 1027.00 1116.00 L 957.00 1104.00 L 958.00 1107.00 L 1030.00 1125.00 L 1028.00 1126.00 L 952.00 1110.00 L 952.00 1113.00 L 1028.00 1135.00 L 1053.00 1143.00 L 1027.00 1137.00 L 1027.00 1139.00 L 1053.00 1149.00 L 1028.00 1144.00 L 952.00 1124.00 L 952.00 1125.00 L 1028.00 1147.00 L 1055.00 1155.00 L 1033.00 1149.00 L 1029.00 1151.00 L 1043.00 1161.00 L 1016.00 1155.00 L 948.00 1133.00 L 950.00 1134.00 L 1022.00 1158.00 L 1023.00 1160.00 L 953.00 1140.00 L 930.00 1170.00 L 954.00 1250.00 L 964.00 1306.00 L 960.00 1338.00 L 967.00 1376.00 L 985.00 1420.00 L 995.00 1460.00 L 997.00 1496.00 L 996.00 1516.00 L 992.00 1520.00 L 952.00 1521.00 L 876.00 1519.00 L 806.00 1527.00 L 742.00 1545.00 L 672.00 1576.00 L 596.00 1620.00 L 523.00 1676.00 L 453.00 1744.00 L 409.00 1780.00 L 391.00 1784.00 L 375.00 1775.00 L 361.00 1753.00 L 354.00 1728.00 L 354.00 1700.00 L 399.00 1605.00 L 489.00 1443.00 L 489.00 1441.00 L 399.00 1599.00 L 356.00 1670.00 L 360.00 1654.00 L 404.00 1574.00 L 488.00 1430.00 L 488.00 1428.00 L 404.00 1568.00 L 402.00 1570.00 L 482.00 1434.00 L 482.00 1432.00 L 402.00 1564.00 L 389.00 1583.00 L 443.00 1489.00 L 446.00 1481.00 L 398.00 1559.00 L 397.00 1560.00 L 443.00 1484.00 L 443.00 1482.00 L 397.00 1554.00 L 375.00 1588.00 L 377.00 1584.00 L 411.00 1529.00 L 477.00 1423.00 L 478.00 1421.00 L 414.00 1523.00 L 417.00 1518.00 L 487.00 1406.00 L 488.00 1404.00 L 420.00 1512.00 L 421.00 1510.00 L 491.00 1398.00 L 492.00 1395.00 L 424.00 1501.00 L 424.00 1499.00 L 492.00 1389.00 L 498.00 1376.00 L 442.00 1460.00 L 441.00 1458.00 L 495.00 1370.00 L 510.00 1343.00 L 486.00 1377.00 L 485.00 1374.00 L 507.00 1334.00 L 505.00 1296.00 L 479.00 1260.00 L 471.00 1235.00 L 481.00 1221.00 L 483.00 1216.00 L 477.00 1220.00 L 476.00 1219.00 L 480.00 1213.00 L 471.00 1207.00 L 449.00 1201.00 L 434.00 1191.00 L 426.00 1177.00 L 427.00 1160.00 L 437.00 1140.00 L 435.00 1119.00 L 421.00 1097.00 L 415.00 1079.00 L 417.00 1065.00 L 415.00 1056.00 L 409.00 1052.00 L 407.00 1035.00 Z" fill="black" stroke="black" stroke-width="1"/>
</svg>