<?xml version="1.0" encoding="UTF-8"?>
<svg xmlns="http://www.w3.org/2000/svg" viewBox="379.00 382.00 778.00 1372.00">
  <path d="M 494.00 1030.00 L 478.00 998.00 L 466.00 961.00 L 458.00 919.00 L 441.00 872.00 L 415.00 820.00 L 398.00 778.00 L 390.00 746.00 L 389.00 701.00 L 395.00 643.00 L 414.00 582.00 L 446.00 518.00 L 477.00 473.00 L 507.00 447.00 L 537.00 428.00 L 567.00 416.00 L 609.00 405.00 L 663.00 395.00 L 718.00 392.00 L 774.00 396.00 L 821.00 404.00 L 859.00 416.00 L 898.00 433.00 L 938.00 455.00 L 982.00 490.00 L 1030.00 538.00 L 1051.00 571.00 L 1045.00 589.00 L 1046.00 591.00 L 1054.00 577.00 L 1054.00 580.00 L 1046.00 600.00 L 1047.00 602.00 L 1057.00 586.00 L 1059.00 591.00 L 1053.00 617.00 L 1056.00 623.00 L 1068.00 609.00 L 1069.00 612.00 L 1059.00 632.00 L 1060.00 635.00 L 1072.00 621.00 L 1073.00 624.00 L 1063.00 644.00 L 1064.00 646.00 L 1076.00 630.00 L 1076.00 633.00 L 1064.00 655.00 L 1065.00 658.00 L 1079.00 642.00 L 1080.00 644.00 L 1068.00 664.00 L 1062.00 676.00 L 1062.00 680.00 L 1068.00 673.00 L 1080.00 655.00 L 1080.00 657.00 L 1068.00 679.00 L 1068.00 684.00 L 1080.00 672.00 L 1081.00 675.00 L 1071.00 693.00 L 1072.00 694.00 L 1084.00 678.00 L 1084.00 680.00 L 1072.00 700.00 L 1072.00 703.00 L 1084.00 689.00 L 1085.00 692.00 L 1075.00 712.00 L 1070.00 724.00 L 1070.00 728.00 L 1076.00 723.00 L 1088.00 709.00 L 1089.00 712.00 L 1079.00 732.00 L 1072.00 756.00 L 1068.00 784.00 L 1076.00 818.00 L 1096.00 858.00 L 1103.00 880.00 L 1097.00 884.00 L 1100.00 887.00 L 1112.00 889.00 L 1114.00 894.00 L 1106.00 902.00 L 1108.00 904.00 L 1120.00 900.00 L 1124.00 902.00 L 1120.00 910.00 L 1122.00 913.00 L 1130.00 911.00 L 1127.00 914.00 L 1113.00 922.00 L 1114.00 923.00 L 1130.00 917.00 L 1132.00 918.00 L 1120.00 926.00 L 1121.00 928.00 L 1135.00 924.00 L 1142.00 925.00 L 1142.00 931.00 L 1140.00 938.00 L 1136.00 946.00 L 1126.00 953.00 L 1110.00 959.00 L 1109.00 960.00 L 1123.00 956.00 L 1121.00 957.00 L 1103.00 963.00 L 1101.00 964.00 L 1115.00 960.00 L 1115.00 962.00 L 1101.00 970.00 L 1097.00 983.00 L 1103.00 1001.00 L 1101.00 1015.00 L 1091.00 1025.00 L 1088.00 1030.00 L 1092.00 1030.00 L 1094.00 1037.00 L 1094.00 1051.00 L 1090.00 1067.00 L 1082.00 1085.00 L 1083.00 1104.00 L 1093.00 1124.00 L 1096.00 1143.00 L 1092.00 1161.00 L 1084.00 1175.00 L 1072.00 1185.00 L 1055.00 1192.00 L 1033.00 1196.00 L 1002.00 1197.00 L 962.00 1195.00 L 938.00 1204.00 L 930.00 1224.00 L 983.00 1341.00 L 1097.00 1555.00 L 1097.00 1558.00 L 983.00 1350.00 L 984.00 1353.00 L 1100.00 1567.00 L 1144.00 1649.00 L 1116.00 1599.00 L 1117.00 1603.00 L 1147.00 1661.00 L 1144.00 1658.00 L 1108.00 1594.00 L 1108.00 1596.00 L 1144.00 1664.00 L 1142.00 1662.00 L 1102.00 1590.00 L 1102.00 1592.00 L 1142.00 1668.00 L 1141.00 1667.00 L 1099.00 1589.00 L 1099.00 1591.00 L 1141.00 1673.00 L 1139.00 1671.00 L 1093.00 1585.00 L 1093.00 1588.00 L 1139.00 1680.00 L 1102.00 1608.00 L 982.00 1372.00 L 982.00 1373.00 L 1102.00 1611.00 L 1135.00 1679.00 L 1081.00 1577.00 L 1080.00 1579.00 L 1132.00 1685.00 L 1130.00 1683.00 L 1074.00 1573.00 L 1073.00 1575.00 L 1127.00 1689.00 L 1096.00 1626.00 L 980.00 1386.00 L 979.00 1388.00 L 1093.00 1632.00 L 1093.00 1634.00 L 979.00 1394.00 L 977.00 1397.00 L 1087.00 1643.00 L 1107.00 1692.00 L 1037.00 1544.00 L 1035.00 1546.00 L 1101.00 1698.00 L 1080.00 1652.00 L 972.00 1408.00 L 969.00 1411.00 L 1071.00 1661.00 L 1071.00 1664.00 L 969.00 1420.00 L 967.00 1421.00 L 1065.00 1667.00 L 1065.00 1669.00 L 967.00 1427.00 L 964.00 1428.00 L 1056.00 1672.00 L 1056.00 1675.00 L 964.00 1437.00 L 962.00 1438.00 L 1050.00 1678.00 L 1050.00 1681.00 L 962.00 1447.00 L 959.00 1449.00 L 1041.00 1687.00 L 1042.00 1693.00 L 962.00 1467.00 L 957.00 1462.00 L 1027.00 1678.00 L 1016.00 1744.00 L 924.00 1660.00 L 840.00 1596.00 L 764.00 1552.00 L 691.00 1518.00 L 621.00 1494.00 L 550.00 1480.00 L 478.00 1476.00 L 440.00 1470.00 L 436.00 1462.00 L 445.00 1424.00 L 467.00 1356.00 L 490.00 1304.00 L 514.00 1268.00 L 535.00 1220.00 L 553.00 1160.00 L 561.00 1116.00 L 559.00 1088.00 L 553.00 1074.00 L 543.00 1074.00 L 543.00 1072.00 L 553.00 1068.00 L 547.00 1064.00 L 525.00 1060.00 L 525.00 1057.00 L 547.00 1055.00 L 546.00 1054.00 L 522.00 1054.00 L 508.00 1052.00 L 504.00 1048.00 L 494.00 1030.00 Z" fill="black" stroke="black" stroke-width="1"/>
</svg>