<?xml version="1.0" encoding="UTF-8"?>
<svg xmlns="http://www.w3.org/2000/svg" viewBox="445.00 332.00 734.00 1385.00">
  <path d="M 545.00 992.00 L 551.00 988.00 L 551.00 985.00 L 545.00 983.00 L 544.00 982.00 L 548.00 982.00 L 551.00 979.00 L 553.00 973.00 L 552.00 969.00 L 548.00 967.00 L 555.00 958.00 L 573.00 942.00 L 576.00 928.00 L 564.00 916.00 L 555.00 905.00 L 549.00 895.00 L 547.00 888.00 L 549.00 884.00 L 547.00 880.00 L 541.00 876.00 L 541.00 875.00 L 547.00 877.00 L 539.00 866.00 L 517.00 842.00 L 509.00 831.00 L 515.00 833.00 L 512.00 829.00 L 500.00 819.00 L 494.00 812.00 L 494.00 808.00 L 496.00 806.00 L 500.00 806.00 L 497.00 801.00 L 487.00 791.00 L 475.00 761.00 L 461.00 711.00 L 455.00 652.00 L 457.00 584.00 L 466.00 530.00 L 482.00 490.00 L 495.00 465.00 L 505.00 455.00 L 523.00 438.00 L 549.00 414.00 L 573.00 398.00 L 595.00 390.00 L 618.00 378.00 L 642.00 362.00 L 672.00 353.00 L 708.00 351.00 L 731.00 348.00 L 741.00 344.00 L 766.00 342.00 L 806.00 342.00 L 834.00 345.00 L 850.00 351.00 L 866.00 353.00 L 882.00 351.00 L 905.00 354.00 L 935.00 362.00 L 969.00 376.00 L 1007.00 396.00 L 1032.00 414.00 L 1044.00 430.00 L 1056.00 441.00 L 1068.00 447.00 L 1072.00 455.00 L 1068.00 465.00 L 1066.00 472.00 L 1066.00 476.00 L 1069.00 472.00 L 1075.00 460.00 L 1076.00 461.00 L 1072.00 475.00 L 1073.00 476.00 L 1079.00 464.00 L 1081.00 462.00 L 1079.00 470.00 L 1081.00 471.00 L 1087.00 465.00 L 1087.00 470.00 L 1081.00 486.00 L 1082.00 488.00 L 1090.00 476.00 L 1091.00 477.00 L 1085.00 491.00 L 1086.00 493.00 L 1094.00 483.00 L 1095.00 487.00 L 1089.00 505.00 L 1090.00 506.00 L 1098.00 490.00 L 1099.00 496.00 L 1093.00 524.00 L 1094.00 551.00 L 1102.00 577.00 L 1103.00 612.00 L 1097.00 656.00 L 1114.00 705.00 L 1154.00 759.00 L 1160.00 795.00 L 1132.00 813.00 L 1117.00 824.00 L 1115.00 828.00 L 1119.00 828.00 L 1129.00 824.00 L 1128.00 826.00 L 1116.00 834.00 L 1127.00 828.00 L 1161.00 808.00 L 1169.00 804.00 L 1151.00 816.00 L 1149.00 819.00 L 1163.00 813.00 L 1155.00 819.00 L 1125.00 837.00 L 1123.00 839.00 L 1149.00 825.00 L 1149.00 828.00 L 1123.00 848.00 L 1113.00 861.00 L 1119.00 867.00 L 1119.00 877.00 L 1113.00 891.00 L 1112.00 902.00 L 1116.00 910.00 L 1111.00 923.00 L 1097.00 941.00 L 1093.00 954.00 L 1099.00 962.00 L 1104.00 976.00 L 1108.00 996.00 L 1102.00 1015.00 L 1086.00 1033.00 L 1080.00 1045.00 L 1084.00 1051.00 L 1078.00 1065.00 L 1062.00 1087.00 L 1050.00 1111.00 L 1042.00 1137.00 L 1045.00 1158.00 L 1059.00 1174.00 L 1071.00 1192.00 L 1081.00 1212.00 L 1073.00 1211.00 L 1047.00 1189.00 L 1046.00 1190.00 L 1070.00 1214.00 L 1072.00 1217.00 L 1052.00 1199.00 L 1050.00 1200.00 L 1066.00 1220.00 L 1067.00 1223.00 L 1053.00 1209.00 L 1045.00 1210.00 L 1043.00 1226.00 L 1047.00 1242.00 L 1057.00 1258.00 L 1057.00 1260.00 L 1047.00 1248.00 L 1050.00 1252.00 L 1066.00 1272.00 L 1065.00 1271.00 L 1047.00 1249.00 L 1048.00 1251.00 L 1068.00 1277.00 L 1079.00 1297.00 L 1081.00 1311.00 L 1090.00 1331.00 L 1106.00 1357.00 L 1106.00 1360.00 L 1090.00 1340.00 L 1093.00 1346.00 L 1115.00 1378.00 L 1135.00 1430.00 L 1153.00 1502.00 L 1162.00 1559.00 L 1162.00 1601.00 L 1157.00 1636.00 L 1147.00 1664.00 L 1138.00 1682.00 L 1130.00 1690.00 L 1118.00 1698.00 L 1102.00 1706.00 L 1085.00 1707.00 L 1067.00 1701.00 L 1011.00 1655.00 L 917.00 1569.00 L 831.00 1504.00 L 753.00 1460.00 L 686.00 1430.00 L 630.00 1414.00 L 580.00 1405.00 L 536.00 1403.00 L 505.00 1397.00 L 487.00 1387.00 L 494.00 1331.00 L 526.00 1229.00 L 539.00 1173.00 L 533.00 1163.00 L 533.00 1134.00 L 539.00 1086.00 L 541.00 1047.00 L 539.00 1017.00 L 539.00 1000.00 L 541.00 996.00 L 545.00 992.00 Z" fill="black" stroke="black" stroke-width="1"/>
</svg>