<?xml version="1.0" encoding="UTF-8"?>
<svg xmlns="http://www.w3.org/2000/svg" viewBox="394.00 249.00 922.00 1485.00">
  <path d="M 507.00 983.00 L 509.00 961.00 L 497.00 945.00 L 471.00 935.00 L 471.00 932.00 L 497.00 936.00 L 493.00 932.00 L 459.00 920.00 L 459.00 874.00 L 493.00 794.00 L 501.00 728.00 L 483.00 676.00 L 479.00 653.00 L 489.00 659.00 L 490.00 656.00 L 482.00 644.00 L 483.00 642.00 L 493.00 650.00 L 494.00 648.00 L 486.00 636.00 L 486.00 633.00 L 494.00 639.00 L 495.00 638.00 L 489.00 630.00 L 490.00 627.00 L 498.00 629.00 L 502.00 619.00 L 502.00 597.00 L 505.00 589.00 L 511.00 595.00 L 511.00 588.00 L 505.00 568.00 L 507.00 563.00 L 517.00 573.00 L 517.00 570.00 L 507.00 554.00 L 508.00 552.00 L 520.00 564.00 L 522.00 560.00 L 514.00 540.00 L 515.00 537.00 L 525.00 551.00 L 526.00 549.00 L 518.00 531.00 L 519.00 529.00 L 529.00 543.00 L 531.00 541.00 L 525.00 523.00 L 541.00 497.00 L 579.00 463.00 L 633.00 425.00 L 703.00 383.00 L 768.00 357.00 L 828.00 347.00 L 861.00 326.00 L 867.00 294.00 L 870.00 293.00 L 870.00 323.00 L 872.00 321.00 L 876.00 287.00 L 878.00 287.00 L 878.00 321.00 L 881.00 320.00 L 887.00 284.00 L 889.00 284.00 L 887.00 320.00 L 890.00 319.00 L 898.00 281.00 L 906.00 261.00 L 914.00 259.00 L 936.00 264.00 L 972.00 276.00 L 1014.00 307.00 L 1062.00 357.00 L 1092.00 380.00 L 1104.00 376.00 L 1118.00 391.00 L 1134.00 425.00 L 1152.00 438.00 L 1172.00 430.00 L 1198.00 438.00 L 1230.00 462.00 L 1253.00 486.00 L 1267.00 510.00 L 1283.00 561.00 L 1301.00 639.00 L 1306.00 731.00 L 1298.00 837.00 L 1273.00 919.00 L 1231.00 977.00 L 1169.00 1006.00 L 1087.00 1006.00 L 1082.00 1008.00 L 1154.00 1012.00 L 1156.00 1013.00 L 1088.00 1011.00 L 1086.00 1012.00 L 1150.00 1016.00 L 1147.00 1018.00 L 1077.00 1018.00 L 1070.00 1021.00 L 1126.00 1027.00 L 1126.00 1028.00 L 1070.00 1024.00 L 1065.00 1025.00 L 1111.00 1031.00 L 1110.00 1034.00 L 1062.00 1034.00 L 1039.00 1056.00 L 1041.00 1100.00 L 1048.00 1128.00 L 1060.00 1140.00 L 1061.00 1143.00 L 1051.00 1137.00 L 1058.00 1152.00 L 1082.00 1188.00 L 1117.00 1267.00 L 1163.00 1389.00 L 1111.00 1472.00 L 961.00 1516.00 L 840.00 1562.00 L 748.00 1610.00 L 658.00 1664.00 L 570.00 1724.00 L 570.00 1640.00 L 658.00 1412.00 L 651.00 1418.00 L 549.00 1658.00 L 549.00 1655.00 L 651.00 1409.00 L 649.00 1411.00 L 543.00 1661.00 L 544.00 1658.00 L 652.00 1402.00 L 649.00 1404.00 L 535.00 1664.00 L 536.00 1660.00 L 652.00 1392.00 L 649.00 1395.00 L 527.00 1669.00 L 527.00 1667.00 L 649.00 1389.00 L 646.00 1387.00 L 518.00 1661.00 L 518.00 1659.00 L 646.00 1381.00 L 645.00 1380.00 L 515.00 1656.00 L 516.00 1653.00 L 648.00 1371.00 L 644.00 1368.00 L 504.00 1644.00 L 505.00 1639.00 L 647.00 1353.00 L 645.00 1352.00 L 499.00 1636.00 L 499.00 1633.00 L 645.00 1343.00 L 640.00 1338.00 L 484.00 1618.00 L 484.00 1616.00 L 640.00 1332.00 L 638.00 1330.00 L 478.00 1610.00 L 478.00 1607.00 L 638.00 1321.00 L 637.00 1315.00 L 475.00 1589.00 L 416.00 1688.00 L 460.00 1612.00 L 459.00 1609.00 L 413.00 1679.00 L 408.00 1683.00 L 444.00 1621.00 L 445.00 1616.00 L 411.00 1668.00 L 407.00 1672.00 L 433.00 1628.00 L 433.00 1626.00 L 407.00 1666.00 L 404.00 1669.00 L 424.00 1635.00 L 427.00 1629.00 L 413.00 1651.00 L 410.00 1655.00 L 418.00 1641.00 L 419.00 1638.00 L 413.00 1646.00 L 486.00 1529.00 L 638.00 1287.00 L 714.00 1161.00 L 714.00 1151.00 L 692.00 1151.00 L 648.00 1161.00 L 603.00 1160.00 L 557.00 1148.00 L 529.00 1107.00 L 519.00 1037.00 L 512.00 1000.00 L 508.00 996.00 L 507.00 983.00 Z" fill="black" stroke="black" stroke-width="1"/>
</svg>