<?xml version="1.0" encoding="UTF-8"?>
<svg xmlns="http://www.w3.org/2000/svg" viewBox="509.00 294.00 818.00 1464.00">
  <path d="M 619.00 985.00 L 621.00 967.00 L 626.00 949.00 L 634.00 931.00 L 633.00 919.00 L 623.00 913.00 L 622.00 911.00 L 630.00 913.00 L 630.00 911.00 L 622.00 905.00 L 613.00 885.00 L 603.00 851.00 L 582.00 808.00 L 550.00 756.00 L 530.00 713.00 L 522.00 679.00 L 519.00 638.00 L 521.00 590.00 L 527.00 550.00 L 537.00 518.00 L 552.00 481.00 L 572.00 439.00 L 599.00 402.00 L 633.00 370.00 L 687.00 342.00 L 761.00 318.00 L 810.00 307.00 L 834.00 309.00 L 858.00 308.00 L 882.00 304.00 L 912.00 306.00 L 948.00 314.00 L 988.00 327.00 L 1032.00 345.00 L 1060.00 361.00 L 1072.00 375.00 L 1087.00 387.00 L 1105.00 397.00 L 1123.00 413.00 L 1141.00 435.00 L 1157.00 450.00 L 1171.00 458.00 L 1194.00 482.00 L 1226.00 522.00 L 1236.00 553.00 L 1224.00 575.00 L 1219.00 588.00 L 1221.00 592.00 L 1230.00 584.00 L 1246.00 564.00 L 1247.00 567.00 L 1233.00 593.00 L 1234.00 595.00 L 1250.00 573.00 L 1250.00 574.00 L 1234.00 598.00 L 1235.00 600.00 L 1253.00 580.00 L 1254.00 582.00 L 1238.00 606.00 L 1239.00 609.00 L 1257.00 591.00 L 1259.00 592.00 L 1245.00 612.00 L 1244.00 615.00 L 1256.00 601.00 L 1255.00 604.00 L 1241.00 624.00 L 1241.00 627.00 L 1255.00 613.00 L 1255.00 616.00 L 1241.00 636.00 L 1240.00 640.00 L 1252.00 628.00 L 1252.00 630.00 L 1240.00 646.00 L 1237.00 651.00 L 1243.00 645.00 L 1243.00 648.00 L 1237.00 660.00 L 1241.00 658.00 L 1255.00 642.00 L 1259.00 638.00 L 1253.00 646.00 L 1254.00 647.00 L 1262.00 641.00 L 1262.00 643.00 L 1254.00 653.00 L 1254.00 654.00 L 1262.00 646.00 L 1259.00 653.00 L 1245.00 675.00 L 1246.00 677.00 L 1262.00 659.00 L 1266.00 655.00 L 1258.00 665.00 L 1258.00 668.00 L 1266.00 664.00 L 1263.00 670.00 L 1249.00 686.00 L 1250.00 687.00 L 1266.00 673.00 L 1267.00 675.00 L 1253.00 693.00 L 1253.00 696.00 L 1267.00 684.00 L 1267.00 687.00 L 1253.00 705.00 L 1244.00 720.00 L 1240.00 732.00 L 1239.00 741.00 L 1241.00 747.00 L 1258.00 765.00 L 1290.00 795.00 L 1309.00 816.00 L 1315.00 828.00 L 1317.00 838.00 L 1315.00 846.00 L 1305.00 857.00 L 1287.00 871.00 L 1276.00 883.00 L 1272.00 893.00 L 1272.00 906.00 L 1276.00 922.00 L 1276.00 938.00 L 1272.00 954.00 L 1271.00 968.00 L 1273.00 980.00 L 1268.00 993.00 L 1256.00 1007.00 L 1253.00 1025.00 L 1259.00 1047.00 L 1261.00 1064.00 L 1259.00 1076.00 L 1248.00 1095.00 L 1228.00 1121.00 L 1207.00 1138.00 L 1185.00 1146.00 L 1176.00 1154.00 L 1180.00 1162.00 L 1181.00 1169.00 L 1179.00 1175.00 L 1171.00 1182.00 L 1157.00 1190.00 L 1155.00 1203.00 L 1165.00 1221.00 L 1163.00 1224.00 L 1149.00 1212.00 L 1148.00 1214.00 L 1160.00 1230.00 L 1163.00 1239.00 L 1157.00 1241.00 L 1155.00 1247.00 L 1157.00 1257.00 L 1155.00 1259.00 L 1149.00 1253.00 L 1156.00 1270.00 L 1176.00 1310.00 L 1181.00 1324.00 L 1171.00 1312.00 L 1168.00 1311.00 L 1172.00 1321.00 L 1172.00 1325.00 L 1168.00 1323.00 L 1152.00 1305.00 L 1124.00 1271.00 L 1112.00 1262.00 L 1116.00 1278.00 L 1117.00 1289.00 L 1115.00 1295.00 L 1120.00 1313.00 L 1132.00 1343.00 L 1133.00 1349.00 L 1123.00 1331.00 L 1124.00 1334.00 L 1136.00 1358.00 L 1133.00 1354.00 L 1115.00 1322.00 L 1131.00 1357.00 L 1181.00 1459.00 L 1182.00 1462.00 L 1134.00 1366.00 L 1135.00 1369.00 L 1185.00 1471.00 L 1193.00 1488.00 L 1159.00 1420.00 L 1159.00 1422.00 L 1193.00 1494.00 L 1211.00 1533.00 L 1213.00 1539.00 L 1198.00 1509.00 L 1166.00 1443.00 L 1168.00 1452.00 L 1204.00 1536.00 L 1221.00 1576.00 L 1219.00 1572.00 L 1221.00 1595.00 L 1227.00 1645.00 L 1228.00 1678.00 L 1224.00 1694.00 L 1215.00 1712.00 L 1201.00 1732.00 L 1187.00 1744.00 L 1173.00 1748.00 L 1159.00 1748.00 L 1145.00 1744.00 L 1101.00 1708.00 L 1027.00 1640.00 L 967.00 1591.00 L 921.00 1561.00 L 871.00 1532.00 L 817.00 1504.00 L 768.00 1482.00 L 724.00 1466.00 L 672.00 1453.00 L 612.00 1443.00 L 582.00 1409.00 L 582.00 1351.00 L 587.00 1295.00 L 597.00 1241.00 L 607.00 1201.00 L 617.00 1175.00 L 619.00 1154.00 L 613.00 1138.00 L 612.00 1099.00 L 616.00 1037.00 L 618.00 1003.00 L 618.00 997.00 L 619.00 985.00 Z" fill="black" stroke="black" stroke-width="1"/>
</svg>