<?xml version="1.0" encoding="UTF-8"?>
<svg xmlns="http://www.w3.org/2000/svg" viewBox="434.00 164.00 926.00 1704.00">
  <path d="M 519.00 1022.00 L 521.00 1006.00 L 530.00 989.00 L 546.00 971.00 L 547.00 954.00 L 533.00 938.00 L 525.00 927.00 L 523.00 921.00 L 523.00 915.00 L 525.00 909.00 L 523.00 900.00 L 517.00 888.00 L 515.00 878.00 L 517.00 870.00 L 517.00 860.00 L 515.00 848.00 L 499.00 832.00 L 469.00 812.00 L 469.00 809.00 L 499.00 823.00 L 498.00 821.00 L 466.00 803.00 L 462.00 800.00 L 486.00 812.00 L 485.00 809.00 L 459.00 791.00 L 462.00 791.00 L 494.00 809.00 L 493.00 806.00 L 459.00 782.00 L 444.00 765.00 L 448.00 755.00 L 473.00 723.00 L 519.00 669.00 L 546.00 635.00 L 554.00 621.00 L 558.00 606.00 L 558.00 590.00 L 556.00 577.00 L 552.00 567.00 L 551.00 552.00 L 553.00 532.00 L 560.00 508.00 L 572.00 480.00 L 583.00 460.00 L 593.00 448.00 L 604.00 429.00 L 616.00 403.00 L 628.00 374.00 L 640.00 342.00 L 647.00 320.00 L 649.00 308.00 L 657.00 297.00 L 671.00 287.00 L 685.00 273.00 L 699.00 255.00 L 713.00 240.00 L 727.00 228.00 L 765.00 211.00 L 827.00 189.00 L 882.00 178.00 L 930.00 178.00 L 957.00 177.00 L 963.00 175.00 L 974.00 174.00 L 990.00 174.00 L 1004.00 176.00 L 1016.00 180.00 L 1035.00 180.00 L 1061.00 176.00 L 1081.00 175.00 L 1095.00 177.00 L 1121.00 183.00 L 1159.00 193.00 L 1192.00 208.00 L 1220.00 228.00 L 1239.00 240.00 L 1249.00 244.00 L 1260.00 252.00 L 1272.00 264.00 L 1287.00 285.00 L 1305.00 315.00 L 1318.00 339.00 L 1326.00 357.00 L 1335.00 387.00 L 1345.00 429.00 L 1350.00 469.00 L 1350.00 507.00 L 1347.00 555.00 L 1341.00 613.00 L 1335.00 653.00 L 1329.00 675.00 L 1320.00 700.00 L 1308.00 728.00 L 1296.00 765.00 L 1284.00 811.00 L 1283.00 861.00 L 1293.00 915.00 L 1298.00 948.00 L 1298.00 960.00 L 1288.00 970.00 L 1268.00 978.00 L 1267.00 981.00 L 1285.00 979.00 L 1285.00 981.00 L 1267.00 987.00 L 1266.00 989.00 L 1282.00 987.00 L 1283.00 990.00 L 1269.00 998.00 L 1264.00 1007.00 L 1268.00 1017.00 L 1276.00 1026.00 L 1288.00 1034.00 L 1297.00 1045.00 L 1303.00 1059.00 L 1307.00 1103.00 L 1309.00 1177.00 L 1312.00 1234.00 L 1316.00 1274.00 L 1313.00 1302.00 L 1303.00 1318.00 L 1303.00 1347.00 L 1313.00 1389.00 L 1318.00 1425.00 L 1318.00 1455.00 L 1322.00 1486.00 L 1330.00 1518.00 L 1334.00 1550.00 L 1334.00 1582.00 L 1331.00 1600.00 L 1325.00 1604.00 L 1300.00 1602.00 L 1256.00 1594.00 L 1206.00 1590.00 L 1150.00 1590.00 L 1079.00 1599.00 L 993.00 1617.00 L 931.00 1633.00 L 893.00 1647.00 L 851.00 1665.00 L 805.00 1687.00 L 748.00 1719.00 L 680.00 1761.00 L 632.00 1794.00 L 604.00 1818.00 L 583.00 1834.00 L 569.00 1842.00 L 554.00 1849.00 L 538.00 1855.00 L 521.00 1858.00 L 503.00 1858.00 L 491.00 1856.00 L 485.00 1852.00 L 477.00 1844.00 L 467.00 1832.00 L 461.00 1822.00 L 459.00 1814.00 L 457.00 1803.00 L 455.00 1789.00 L 456.00 1775.00 L 460.00 1761.00 L 511.00 1671.00 L 609.00 1505.00 L 609.00 1502.00 L 511.00 1662.00 L 507.00 1667.00 L 597.00 1517.00 L 599.00 1511.00 L 513.00 1649.00 L 531.00 1619.00 L 653.00 1421.00 L 655.00 1415.00 L 537.00 1601.00 L 534.00 1605.00 L 646.00 1427.00 L 643.00 1430.00 L 525.00 1614.00 L 516.00 1627.00 L 616.00 1469.00 L 623.00 1456.00 L 537.00 1588.00 L 502.00 1641.00 L 518.00 1615.00 L 522.00 1608.00 L 514.00 1620.00 L 560.00 1549.00 L 660.00 1395.00 L 658.00 1398.00 L 554.00 1558.00 L 549.00 1565.00 L 643.00 1419.00 L 650.00 1407.00 L 570.00 1529.00 L 566.00 1535.00 L 638.00 1425.00 L 643.00 1417.00 L 581.00 1511.00 L 584.00 1506.00 L 652.00 1402.00 L 656.00 1395.00 L 596.00 1485.00 L 600.00 1474.00 L 668.00 1362.00 L 698.00 1300.00 L 690.00 1288.00 L 676.00 1282.00 L 656.00 1282.00 L 645.00 1281.00 L 643.00 1279.00 L 649.00 1270.00 L 663.00 1254.00 L 662.00 1252.00 L 646.00 1264.00 L 643.00 1265.00 L 653.00 1255.00 L 653.00 1254.00 L 643.00 1262.00 L 644.00 1258.00 L 656.00 1242.00 L 655.00 1229.00 L 641.00 1219.00 L 626.00 1206.00 L 610.00 1190.00 L 599.00 1177.00 L 593.00 1167.00 L 590.00 1158.00 L 590.00 1150.00 L 597.00 1139.00 L 611.00 1125.00 L 600.00 1108.00 L 564.00 1088.00 L 541.00 1073.00 L 531.00 1063.00 L 524.00 1053.00 L 520.00 1043.00 L 518.00 1036.00 L 518.00 1032.00 L 519.00 1022.00 Z" fill="black" stroke="black" stroke-width="1"/>
</svg>