<?xml version="1.0" encoding="UTF-8"?>
<svg xmlns="http://www.w3.org/2000/svg" viewBox="334.00 305.00 749.00 1401.00">
  <path d="M 394.00 944.00 L 378.00 868.00 L 370.00 813.00 L 370.00 779.00 L 365.00 736.00 L 355.00 684.00 L 350.00 631.00 L 350.00 577.00 L 354.00 537.00 L 362.00 511.00 L 375.00 483.00 L 393.00 453.00 L 413.00 427.00 L 435.00 405.00 L 462.00 383.00 L 494.00 361.00 L 529.00 343.00 L 567.00 329.00 L 601.00 320.00 L 631.00 316.00 L 661.00 315.00 L 691.00 317.00 L 725.00 323.00 L 763.00 333.00 L 815.00 357.00 L 881.00 395.00 L 927.00 430.00 L 953.00 462.00 L 972.00 489.00 L 984.00 511.00 L 989.00 530.00 L 987.00 546.00 L 989.00 550.00 L 995.00 542.00 L 999.00 539.00 L 1001.00 541.00 L 999.00 548.00 L 993.00 560.00 L 994.00 563.00 L 1002.00 557.00 L 1003.00 560.00 L 997.00 572.00 L 998.00 574.00 L 1006.00 566.00 L 1007.00 568.00 L 1001.00 580.00 L 1002.00 582.00 L 1010.00 574.00 L 1011.00 576.00 L 1005.00 588.00 L 1005.00 590.00 L 1011.00 582.00 L 1011.00 584.00 L 1005.00 596.00 L 1006.00 599.00 L 1014.00 593.00 L 1015.00 597.00 L 1009.00 611.00 L 1010.00 613.00 L 1018.00 603.00 L 1019.00 606.00 L 1013.00 622.00 L 1009.00 646.00 L 1007.00 678.00 L 1023.00 721.00 L 1057.00 775.00 L 1073.00 808.00 L 1071.00 820.00 L 1059.00 832.00 L 1037.00 844.00 L 1036.00 846.00 L 1056.00 838.00 L 1055.00 842.00 L 1033.00 858.00 L 1024.00 873.00 L 1028.00 887.00 L 1025.00 900.00 L 1015.00 912.00 L 1011.00 924.00 L 1013.00 936.00 L 1006.00 954.00 L 990.00 978.00 L 983.00 996.00 L 985.00 1008.00 L 984.00 1022.00 L 980.00 1038.00 L 970.00 1052.00 L 954.00 1064.00 L 945.00 1076.00 L 943.00 1088.00 L 928.00 1106.00 L 900.00 1130.00 L 890.00 1151.00 L 898.00 1169.00 L 896.00 1172.00 L 884.00 1160.00 L 883.00 1161.00 L 893.00 1175.00 L 893.00 1181.00 L 883.00 1179.00 L 882.00 1187.00 L 890.00 1205.00 L 891.00 1215.00 L 885.00 1217.00 L 875.00 1209.00 L 861.00 1191.00 L 859.00 1189.00 L 869.00 1203.00 L 870.00 1205.00 L 862.00 1195.00 L 860.00 1193.00 L 864.00 1199.00 L 862.00 1199.00 L 854.00 1193.00 L 867.00 1217.00 L 901.00 1271.00 L 902.00 1274.00 L 870.00 1226.00 L 867.00 1222.00 L 893.00 1262.00 L 907.00 1284.00 L 909.00 1288.00 L 897.00 1271.00 L 871.00 1233.00 L 886.00 1263.00 L 942.00 1361.00 L 943.00 1366.00 L 889.00 1278.00 L 890.00 1280.00 L 946.00 1372.00 L 962.00 1399.00 L 938.00 1361.00 L 940.00 1366.00 L 968.00 1414.00 L 953.00 1390.00 L 895.00 1294.00 L 897.00 1301.00 L 959.00 1411.00 L 957.00 1410.00 L 891.00 1298.00 L 891.00 1300.00 L 957.00 1416.00 L 995.00 1488.00 L 1005.00 1516.00 L 1012.00 1549.00 L 1016.00 1587.00 L 1017.00 1614.00 L 1015.00 1630.00 L 1012.00 1645.00 L 1008.00 1659.00 L 1001.00 1672.00 L 991.00 1684.00 L 980.00 1692.00 L 968.00 1696.00 L 955.00 1695.00 L 941.00 1689.00 L 892.00 1640.00 L 808.00 1548.00 L 748.00 1488.00 L 712.00 1460.00 L 677.00 1436.00 L 643.00 1416.00 L 597.00 1395.00 L 539.00 1373.00 L 496.00 1360.00 L 468.00 1356.00 L 436.00 1356.00 L 400.00 1360.00 L 380.00 1360.00 L 376.00 1356.00 L 375.00 1347.00 L 377.00 1333.00 L 374.00 1325.00 L 366.00 1323.00 L 362.00 1317.00 L 362.00 1307.00 L 366.00 1292.00 L 374.00 1272.00 L 382.00 1238.00 L 390.00 1190.00 L 386.00 1169.00 L 370.00 1175.00 L 370.00 1173.00 L 386.00 1163.00 L 384.00 1161.00 L 364.00 1167.00 L 364.00 1164.00 L 384.00 1152.00 L 384.00 1149.00 L 364.00 1155.00 L 364.00 1153.00 L 384.00 1143.00 L 385.00 1142.00 L 367.00 1150.00 L 368.00 1148.00 L 388.00 1136.00 L 389.00 1133.00 L 371.00 1139.00 L 371.00 1137.00 L 389.00 1127.00 L 390.00 1125.00 L 374.00 1131.00 L 373.00 1129.00 L 387.00 1119.00 L 387.00 1116.00 L 373.00 1120.00 L 367.00 1121.00 L 369.00 1119.00 L 378.00 1114.00 L 394.00 1106.00 L 391.00 1104.00 L 369.00 1108.00 L 363.00 1108.00 L 373.00 1104.00 L 371.00 1103.00 L 357.00 1105.00 L 348.00 1103.00 L 344.00 1097.00 L 346.00 1087.00 L 354.00 1073.00 L 367.00 1058.00 L 385.00 1042.00 L 395.00 1022.00 L 397.00 998.00 L 399.00 985.00 L 401.00 983.00 L 394.00 944.00 Z" fill="black" stroke="black" stroke-width="1"/>
</svg>