<?xml version="1.0" encoding="UTF-8"?>
<svg xmlns="http://www.w3.org/2000/svg" viewBox="360.00 169.00 819.00 1474.00">
  <path d="M 579.00 919.00 L 581.00 905.00 L 560.00 894.00 L 516.00 886.00 L 516.00 885.00 L 560.00 891.00 L 559.00 890.00 L 513.00 882.00 L 512.00 881.00 L 556.00 887.00 L 551.00 885.00 L 497.00 875.00 L 496.00 874.00 L 548.00 882.00 L 543.00 880.00 L 481.00 868.00 L 444.00 854.00 L 432.00 838.00 L 423.00 799.00 L 417.00 737.00 L 403.00 686.00 L 381.00 646.00 L 370.00 614.00 L 370.00 590.00 L 377.00 565.00 L 391.00 539.00 L 398.00 502.00 L 398.00 454.00 L 410.00 410.00 L 434.00 370.00 L 467.00 332.00 L 509.00 296.00 L 543.00 258.00 L 569.00 218.00 L 594.00 193.00 L 618.00 183.00 L 645.00 179.00 L 675.00 181.00 L 695.00 183.00 L 705.00 185.00 L 713.00 200.00 L 719.00 228.00 L 722.00 229.00 L 722.00 203.00 L 724.00 204.00 L 728.00 232.00 L 730.00 233.00 L 730.00 207.00 L 732.00 207.00 L 736.00 233.00 L 738.00 235.00 L 738.00 213.00 L 740.00 213.00 L 744.00 235.00 L 745.00 236.00 L 743.00 216.00 L 746.00 215.00 L 754.00 233.00 L 788.00 253.00 L 848.00 275.00 L 911.00 306.00 L 977.00 346.00 L 1022.00 375.00 L 1046.00 393.00 L 1056.00 413.00 L 1052.00 435.00 L 1055.00 437.00 L 1065.00 419.00 L 1067.00 422.00 L 1061.00 446.00 L 1063.00 449.00 L 1073.00 431.00 L 1074.00 432.00 L 1066.00 452.00 L 1069.00 455.00 L 1083.00 441.00 L 1085.00 445.00 L 1075.00 467.00 L 1076.00 470.00 L 1088.00 454.00 L 1091.00 460.00 L 1085.00 488.00 L 1087.00 496.00 L 1097.00 484.00 L 1098.00 487.00 L 1090.00 505.00 L 1092.00 509.00 L 1104.00 499.00 L 1105.00 502.00 L 1095.00 518.00 L 1097.00 520.00 L 1111.00 508.00 L 1112.00 513.00 L 1100.00 535.00 L 1101.00 537.00 L 1115.00 519.00 L 1116.00 522.00 L 1104.00 546.00 L 1105.00 549.00 L 1119.00 531.00 L 1117.00 555.00 L 1099.00 621.00 L 1109.00 683.00 L 1147.00 741.00 L 1152.00 781.00 L 1124.00 803.00 L 1112.00 826.00 L 1116.00 850.00 L 1109.00 882.00 L 1091.00 922.00 L 1084.00 956.00 L 1088.00 984.00 L 1082.00 1006.00 L 1066.00 1022.00 L 1060.00 1037.00 L 1064.00 1051.00 L 1053.00 1077.00 L 1027.00 1115.00 L 1026.00 1150.00 L 1050.00 1182.00 L 1049.00 1184.00 L 1023.00 1156.00 L 1027.00 1164.00 L 1061.00 1208.00 L 1059.00 1211.00 L 1021.00 1173.00 L 1019.00 1175.00 L 1053.00 1217.00 L 1053.00 1219.00 L 1019.00 1181.00 L 1018.00 1182.00 L 1050.00 1222.00 L 1051.00 1225.00 L 1021.00 1191.00 L 1019.00 1191.00 L 1045.00 1225.00 L 1050.00 1237.00 L 1034.00 1227.00 L 1025.00 1233.00 L 1023.00 1255.00 L 1016.00 1265.00 L 1004.00 1263.00 L 1045.00 1349.00 L 1139.00 1523.00 L 1133.00 1514.00 L 1027.00 1322.00 L 1028.00 1327.00 L 1136.00 1529.00 L 1169.00 1593.00 L 1127.00 1519.00 L 1126.00 1523.00 L 1166.00 1605.00 L 1162.00 1601.00 L 1114.00 1511.00 L 1113.00 1514.00 L 1159.00 1610.00 L 1128.00 1554.00 L 1020.00 1346.00 L 1017.00 1349.00 L 1119.00 1563.00 L 1118.00 1566.00 L 1014.00 1358.00 L 1008.00 1361.00 L 1100.00 1575.00 L 1100.00 1580.00 L 1008.00 1376.00 L 1006.00 1376.00 L 1094.00 1580.00 L 1094.00 1581.00 L 1006.00 1379.00 L 1003.00 1379.00 L 1085.00 1581.00 L 1084.00 1584.00 L 1000.00 1388.00 L 995.00 1386.00 L 1069.00 1578.00 L 1069.00 1581.00 L 995.00 1395.00 L 993.00 1394.00 L 1063.00 1578.00 L 1065.00 1586.00 L 999.00 1418.00 L 996.00 1417.00 L 1056.00 1583.00 L 1049.00 1633.00 L 975.00 1567.00 L 909.00 1515.00 L 851.00 1477.00 L 794.00 1452.00 L 738.00 1440.00 L 669.00 1435.00 L 587.00 1437.00 L 521.00 1430.00 L 471.00 1414.00 L 440.00 1384.00 L 428.00 1340.00 L 429.00 1301.00 L 443.00 1267.00 L 475.00 1218.00 L 525.00 1154.00 L 557.00 1076.00 L 571.00 984.00 L 578.00 935.00 L 578.00 929.00 L 579.00 919.00 Z" fill="black" stroke="black" stroke-width="1"/>
</svg>