<?xml version="1.0" encoding="UTF-8"?>
<svg xmlns="http://www.w3.org/2000/svg" viewBox="363.00 282.00 1078.00 1510.00">
  <path d="M 694.00 994.00 L 646.00 946.00 L 585.00 909.00 L 511.00 883.00 L 510.00 881.00 L 582.00 903.00 L 573.00 899.00 L 483.00 869.00 L 481.00 867.00 L 567.00 893.00 L 564.00 888.00 L 472.00 852.00 L 471.00 849.00 L 561.00 879.00 L 560.00 877.00 L 468.00 843.00 L 467.00 842.00 L 557.00 874.00 L 554.00 870.00 L 458.00 830.00 L 458.00 828.00 L 554.00 864.00 L 552.00 862.00 L 452.00 822.00 L 450.00 819.00 L 546.00 853.00 L 544.00 849.00 L 444.00 807.00 L 443.00 804.00 L 541.00 840.00 L 540.00 835.00 L 440.00 789.00 L 439.00 787.00 L 537.00 829.00 L 538.00 826.00 L 442.00 778.00 L 387.00 708.00 L 373.00 616.00 L 380.00 540.00 L 408.00 480.00 L 458.00 427.00 L 530.00 381.00 L 574.00 346.00 L 590.00 322.00 L 622.00 304.00 L 670.00 292.00 L 702.00 298.00 L 718.00 322.00 L 724.00 322.00 L 720.00 298.00 L 723.00 298.00 L 733.00 322.00 L 736.00 322.00 L 732.00 298.00 L 734.00 297.00 L 742.00 319.00 L 744.00 320.00 L 740.00 300.00 L 743.00 300.00 L 753.00 320.00 L 799.00 326.00 L 881.00 318.00 L 971.00 323.00 L 1069.00 341.00 L 1145.00 364.00 L 1199.00 392.00 L 1236.00 415.00 L 1256.00 433.00 L 1265.00 449.00 L 1263.00 463.00 L 1265.00 465.00 L 1271.00 455.00 L 1271.00 457.00 L 1265.00 471.00 L 1267.00 473.00 L 1277.00 463.00 L 1278.00 466.00 L 1270.00 482.00 L 1271.00 485.00 L 1281.00 475.00 L 1286.00 487.00 L 1286.00 521.00 L 1292.00 532.00 L 1304.00 520.00 L 1305.00 523.00 L 1295.00 541.00 L 1296.00 543.00 L 1308.00 529.00 L 1309.00 533.00 L 1299.00 555.00 L 1301.00 560.00 L 1315.00 548.00 L 1316.00 552.00 L 1304.00 572.00 L 1303.00 576.00 L 1313.00 564.00 L 1312.00 596.00 L 1300.00 672.00 L 1316.00 749.00 L 1360.00 827.00 L 1366.00 879.00 L 1334.00 905.00 L 1306.00 969.00 L 1282.00 1071.00 L 1231.00 1140.00 L 1153.00 1176.00 L 1109.00 1203.00 L 1099.00 1221.00 L 1179.00 1350.00 L 1349.00 1590.00 L 1425.00 1699.00 L 1407.00 1677.00 L 1409.00 1682.00 L 1431.00 1714.00 L 1428.00 1711.00 L 1400.00 1673.00 L 1401.00 1676.00 L 1431.00 1720.00 L 1428.00 1718.00 L 1392.00 1670.00 L 1393.00 1675.00 L 1431.00 1733.00 L 1428.00 1731.00 L 1384.00 1669.00 L 1384.00 1672.00 L 1428.00 1740.00 L 1423.00 1736.00 L 1369.00 1660.00 L 1369.00 1663.00 L 1423.00 1745.00 L 1360.00 1650.00 L 1180.00 1378.00 L 1179.00 1381.00 L 1357.00 1659.00 L 1357.00 1660.00 L 1179.00 1384.00 L 1179.00 1386.00 L 1357.00 1666.00 L 1408.00 1751.00 L 1332.00 1641.00 L 1330.00 1646.00 L 1402.00 1766.00 L 1350.00 1683.00 L 1174.00 1397.00 L 1173.00 1400.00 L 1347.00 1692.00 L 1385.00 1764.00 L 1287.00 1616.00 L 1283.00 1622.00 L 1373.00 1782.00 L 1334.00 1713.00 L 1166.00 1415.00 L 1161.00 1420.00 L 1319.00 1728.00 L 1318.00 1731.00 L 1158.00 1429.00 L 1156.00 1431.00 L 1312.00 1737.00 L 1312.00 1739.00 L 1156.00 1437.00 L 1150.00 1431.00 L 1294.00 1721.00 L 1314.00 1766.00 L 1210.00 1566.00 L 1199.00 1557.00 L 1281.00 1739.00 L 1260.00 1697.00 L 1136.00 1431.00 L 1133.00 1428.00 L 1251.00 1688.00 L 1251.00 1691.00 L 1133.00 1437.00 L 1128.00 1433.00 L 1236.00 1679.00 L 1237.00 1685.00 L 1131.00 1451.00 L 1126.00 1448.00 L 1222.00 1676.00 L 1222.00 1678.00 L 1126.00 1454.00 L 1123.00 1451.00 L 1213.00 1669.00 L 1214.00 1672.00 L 1126.00 1460.00 L 1124.00 1459.00 L 1208.00 1669.00 L 1209.00 1673.00 L 1127.00 1471.00 L 1125.00 1470.00 L 1203.00 1670.00 L 1154.00 1725.00 L 978.00 1635.00 L 809.00 1576.00 L 647.00 1548.00 L 589.00 1449.00 L 635.00 1279.00 L 667.00 1187.00 L 685.00 1173.00 L 685.00 1170.00 L 667.00 1178.00 L 671.00 1167.00 L 697.00 1137.00 L 712.00 1099.00 L 716.00 1053.00 L 718.00 1027.00 L 718.00 1021.00 L 694.00 994.00 Z" fill="black" stroke="black" stroke-width="1"/>
</svg>