<?xml version="1.0" encoding="UTF-8"?>
<svg xmlns="http://www.w3.org/2000/svg" viewBox="281.00 317.00 851.00 1283.00">
  <path d="M 488.00 932.00 L 412.00 920.00 L 412.00 917.00 L 488.00 923.00 L 487.00 922.00 L 409.00 914.00 L 409.00 913.00 L 487.00 919.00 L 483.00 916.00 L 397.00 904.00 L 382.00 900.00 L 438.00 904.00 L 434.00 900.00 L 370.00 888.00 L 372.00 887.00 L 440.00 897.00 L 439.00 896.00 L 369.00 884.00 L 382.00 886.00 L 478.00 902.00 L 477.00 900.00 L 379.00 880.00 L 378.00 878.00 L 474.00 894.00 L 473.00 891.00 L 375.00 869.00 L 373.00 867.00 L 467.00 885.00 L 464.00 878.00 L 364.00 846.00 L 315.00 816.00 L 317.00 788.00 L 309.00 751.00 L 291.00 705.00 L 293.00 672.00 L 315.00 652.00 L 325.00 620.00 L 323.00 576.00 L 332.00 542.00 L 352.00 518.00 L 366.00 486.00 L 374.00 446.00 L 396.00 410.00 L 432.00 378.00 L 459.00 374.00 L 477.00 398.00 L 483.00 401.00 L 477.00 383.00 L 479.00 380.00 L 489.00 392.00 L 501.00 386.00 L 515.00 362.00 L 532.00 345.00 L 552.00 335.00 L 603.00 329.00 L 685.00 327.00 L 756.00 334.00 L 816.00 350.00 L 860.00 373.00 L 888.00 403.00 L 900.00 425.00 L 896.00 439.00 L 897.00 440.00 L 903.00 428.00 L 905.00 433.00 L 903.00 455.00 L 907.00 458.00 L 917.00 442.00 L 919.00 447.00 L 913.00 473.00 L 915.00 476.00 L 925.00 456.00 L 927.00 459.00 L 921.00 485.00 L 923.00 489.00 L 933.00 471.00 L 934.00 473.00 L 926.00 495.00 L 926.00 500.00 L 934.00 488.00 L 937.00 496.00 L 935.00 524.00 L 940.00 532.00 L 952.00 520.00 L 953.00 525.00 L 943.00 547.00 L 945.00 550.00 L 959.00 534.00 L 960.00 537.00 L 948.00 559.00 L 949.00 561.00 L 963.00 543.00 L 964.00 545.00 L 952.00 567.00 L 952.00 570.00 L 964.00 554.00 L 963.00 559.00 L 949.00 585.00 L 949.00 588.00 L 963.00 568.00 L 964.00 577.00 L 952.00 615.00 L 968.00 658.00 L 1012.00 706.00 L 1034.00 735.00 L 1034.00 745.00 L 1024.00 760.00 L 1004.00 780.00 L 995.00 835.00 L 997.00 925.00 L 961.00 986.00 L 887.00 1018.00 L 843.00 1052.00 L 829.00 1088.00 L 894.00 1215.00 L 1038.00 1433.00 L 1114.00 1549.00 L 1122.00 1563.00 L 1116.00 1555.00 L 1096.00 1525.00 L 1097.00 1527.00 L 1119.00 1561.00 L 1116.00 1558.00 L 1088.00 1518.00 L 1089.00 1521.00 L 1119.00 1567.00 L 1118.00 1566.00 L 1086.00 1518.00 L 1087.00 1520.00 L 1121.00 1572.00 L 1117.00 1568.00 L 1075.00 1508.00 L 1075.00 1511.00 L 1117.00 1577.00 L 1115.00 1576.00 L 1069.00 1508.00 L 1069.00 1511.00 L 1115.00 1585.00 L 1114.00 1584.00 L 1066.00 1508.00 L 1066.00 1510.00 L 1114.00 1590.00 L 1058.00 1502.00 L 898.00 1246.00 L 895.00 1249.00 L 1049.00 1511.00 L 1090.00 1586.00 L 1018.00 1474.00 L 1014.00 1475.00 L 1078.00 1589.00 L 1076.00 1588.00 L 1008.00 1472.00 L 1005.00 1472.00 L 1067.00 1588.00 L 1027.00 1517.00 L 885.00 1259.00 L 883.00 1260.00 L 1021.00 1520.00 L 1021.00 1523.00 L 883.00 1269.00 L 878.00 1268.00 L 1006.00 1520.00 L 1033.00 1579.00 L 959.00 1445.00 L 954.00 1444.00 L 1018.00 1576.00 L 1016.00 1574.00 L 948.00 1438.00 L 944.00 1436.00 L 1004.00 1568.00 L 978.00 1514.00 L 866.00 1274.00 L 863.00 1273.00 L 969.00 1511.00 L 968.00 1513.00 L 860.00 1279.00 L 854.00 1276.00 L 950.00 1504.00 L 950.00 1507.00 L 854.00 1285.00 L 850.00 1283.00 L 938.00 1501.00 L 951.00 1537.00 L 889.00 1391.00 L 885.00 1389.00 L 939.00 1531.00 L 925.00 1497.00 L 843.00 1287.00 L 840.00 1286.00 L 916.00 1494.00 L 916.00 1497.00 L 840.00 1295.00 L 835.00 1292.00 L 901.00 1488.00 L 900.00 1491.00 L 832.00 1301.00 L 826.00 1295.00 L 882.00 1473.00 L 883.00 1478.00 L 829.00 1310.00 L 827.00 1308.00 L 877.00 1472.00 L 881.00 1539.00 L 839.00 1509.00 L 785.00 1479.00 L 719.00 1449.00 L 654.00 1431.00 L 590.00 1425.00 L 528.00 1427.00 L 468.00 1437.00 L 428.00 1436.00 L 408.00 1424.00 L 395.00 1389.00 L 389.00 1331.00 L 413.00 1251.00 L 467.00 1149.00 L 502.00 1060.00 L 518.00 984.00 L 526.00 944.00 L 526.00 940.00 L 488.00 932.00 Z" fill="black" stroke="black" stroke-width="1"/>
</svg>