<?xml version="1.0" encoding="UTF-8"?>
<svg xmlns="http://www.w3.org/2000/svg" viewBox="266.00 93.00 1070.00 1668.00">
  <path d="M 377.00 926.00 L 383.00 926.00 L 378.00 923.00 L 362.00 917.00 L 353.00 907.00 L 351.00 893.00 L 373.00 859.00 L 419.00 805.00 L 442.00 773.00 L 442.00 763.00 L 391.00 729.00 L 289.00 671.00 L 287.00 669.00 L 385.00 723.00 L 382.00 718.00 L 278.00 654.00 L 276.00 651.00 L 376.00 709.00 L 378.00 707.00 L 282.00 645.00 L 281.00 641.00 L 375.00 695.00 L 379.00 693.00 L 293.00 635.00 L 293.00 632.00 L 379.00 684.00 L 383.00 683.00 L 305.00 629.00 L 306.00 627.00 L 386.00 677.00 L 389.00 676.00 L 315.00 624.00 L 316.00 623.00 L 392.00 673.00 L 396.00 673.00 L 328.00 623.00 L 314.00 611.00 L 354.00 637.00 L 358.00 636.00 L 326.00 608.00 L 342.00 617.00 L 406.00 663.00 L 408.00 662.00 L 348.00 614.00 L 349.00 612.00 L 411.00 656.00 L 416.00 656.00 L 364.00 612.00 L 364.00 610.00 L 416.00 650.00 L 419.00 650.00 L 373.00 610.00 L 371.00 606.00 L 413.00 638.00 L 416.00 638.00 L 380.00 606.00 L 365.00 590.00 L 371.00 590.00 L 394.00 607.00 L 434.00 641.00 L 437.00 640.00 L 403.00 604.00 L 405.00 582.00 L 443.00 574.00 L 481.00 539.00 L 519.00 477.00 L 606.00 361.00 L 742.00 191.00 L 816.00 105.00 L 828.00 103.00 L 843.00 107.00 L 861.00 117.00 L 904.00 147.00 L 972.00 197.00 L 1074.00 265.00 L 1210.00 351.00 L 1294.00 411.00 L 1326.00 445.00 L 1274.00 584.00 L 1138.00 828.00 L 1085.00 976.00 L 1115.00 1028.00 L 1136.00 1072.00 L 1148.00 1108.00 L 1154.00 1128.00 L 1154.00 1132.00 L 1126.00 1121.00 L 1070.00 1095.00 L 1070.00 1097.00 L 1126.00 1127.00 L 1127.00 1130.00 L 1073.00 1106.00 L 1073.00 1109.00 L 1127.00 1139.00 L 1134.00 1143.00 L 1094.00 1121.00 L 1092.00 1123.00 L 1128.00 1149.00 L 1135.00 1157.00 L 1113.00 1147.00 L 1105.00 1144.00 L 1111.00 1148.00 L 1097.00 1140.00 L 1063.00 1120.00 L 1069.00 1124.00 L 1115.00 1152.00 L 1116.00 1154.00 L 1072.00 1130.00 L 1052.00 1137.00 L 1056.00 1175.00 L 1055.00 1203.00 L 1049.00 1221.00 L 1054.00 1253.00 L 1070.00 1299.00 L 1081.00 1347.00 L 1087.00 1397.00 L 1038.00 1436.00 L 934.00 1464.00 L 863.00 1488.00 L 825.00 1508.00 L 780.00 1535.00 L 728.00 1569.00 L 664.00 1623.00 L 588.00 1697.00 L 540.00 1739.00 L 520.00 1749.00 L 500.00 1751.00 L 480.00 1745.00 L 463.00 1733.00 L 449.00 1715.00 L 476.00 1617.00 L 544.00 1439.00 L 542.00 1436.00 L 470.00 1608.00 L 471.00 1601.00 L 545.00 1415.00 L 544.00 1412.00 L 468.00 1592.00 L 469.00 1589.00 L 547.00 1403.00 L 547.00 1400.00 L 469.00 1580.00 L 462.00 1595.00 L 526.00 1445.00 L 525.00 1442.00 L 459.00 1586.00 L 445.00 1614.00 L 483.00 1526.00 L 483.00 1524.00 L 445.00 1608.00 L 464.00 1564.00 L 540.00 1392.00 L 541.00 1388.00 L 467.00 1552.00 L 463.00 1558.00 L 529.00 1406.00 L 534.00 1390.00 L 478.00 1510.00 L 453.00 1563.00 L 459.00 1549.00 L 460.00 1546.00 L 456.00 1554.00 L 482.00 1498.00 L 538.00 1378.00 L 554.00 1333.00 L 530.00 1363.00 L 527.00 1358.00 L 545.00 1318.00 L 550.00 1305.00 L 542.00 1319.00 L 542.00 1311.00 L 550.00 1281.00 L 548.00 1275.00 L 536.00 1293.00 L 534.00 1291.00 L 542.00 1269.00 L 541.00 1266.00 L 531.00 1282.00 L 529.00 1281.00 L 535.00 1263.00 L 533.00 1244.00 L 523.00 1224.00 L 516.00 1216.00 L 512.00 1220.00 L 513.00 1218.00 L 519.00 1210.00 L 498.00 1199.00 L 450.00 1185.00 L 419.00 1171.00 L 405.00 1157.00 L 398.00 1140.00 L 398.00 1120.00 L 402.00 1101.00 L 410.00 1083.00 L 407.00 1063.00 L 393.00 1041.00 L 388.00 1005.00 L 392.00 955.00 L 389.00 929.00 L 379.00 927.00 L 377.00 926.00 Z" fill="black" stroke="black" stroke-width="1"/>
</svg>