<?xml version="1.0" encoding="UTF-8"?>
<svg xmlns="http://www.w3.org/2000/svg" viewBox="418.00 332.00 752.00 1434.00">
  <path d="M 519.00 1005.00 L 529.00 987.00 L 534.00 974.00 L 534.00 966.00 L 530.00 959.00 L 522.00 953.00 L 516.00 940.00 L 512.00 920.00 L 495.00 883.00 L 465.00 829.00 L 444.00 769.00 L 432.00 703.00 L 428.00 671.00 L 432.00 673.00 L 432.00 672.00 L 428.00 668.00 L 428.00 648.00 L 432.00 612.00 L 447.00 563.00 L 473.00 501.00 L 505.00 451.00 L 543.00 413.00 L 576.00 390.00 L 604.00 382.00 L 630.00 372.00 L 654.00 360.00 L 676.00 354.00 L 696.00 354.00 L 712.00 351.00 L 724.00 345.00 L 752.00 342.00 L 796.00 342.00 L 827.00 346.00 L 845.00 354.00 L 862.00 359.00 L 878.00 361.00 L 904.00 375.00 L 940.00 401.00 L 961.00 419.00 L 967.00 429.00 L 980.00 442.00 L 1000.00 458.00 L 1013.00 473.00 L 1019.00 487.00 L 1030.00 502.00 L 1046.00 518.00 L 1051.00 534.00 L 1045.00 550.00 L 1043.00 560.00 L 1045.00 564.00 L 1050.00 558.00 L 1058.00 542.00 L 1059.00 543.00 L 1053.00 561.00 L 1054.00 563.00 L 1062.00 549.00 L 1063.00 551.00 L 1057.00 569.00 L 1058.00 572.00 L 1066.00 560.00 L 1067.00 562.00 L 1061.00 578.00 L 1062.00 579.00 L 1070.00 565.00 L 1071.00 568.00 L 1065.00 588.00 L 1066.00 591.00 L 1074.00 577.00 L 1075.00 581.00 L 1069.00 603.00 L 1069.00 609.00 L 1075.00 599.00 L 1075.00 601.00 L 1069.00 615.00 L 1070.00 616.00 L 1078.00 604.00 L 1079.00 609.00 L 1073.00 631.00 L 1074.00 651.00 L 1082.00 669.00 L 1086.00 689.00 L 1086.00 711.00 L 1091.00 731.00 L 1101.00 749.00 L 1124.00 777.00 L 1160.00 815.00 L 1159.00 845.00 L 1121.00 867.00 L 1121.00 869.00 L 1159.00 851.00 L 1160.00 851.00 L 1124.00 869.00 L 1123.00 872.00 L 1157.00 860.00 L 1157.00 862.00 L 1123.00 878.00 L 1122.00 880.00 L 1154.00 868.00 L 1156.00 869.00 L 1128.00 883.00 L 1116.00 891.00 L 1120.00 893.00 L 1120.00 897.00 L 1116.00 903.00 L 1115.00 917.00 L 1117.00 939.00 L 1114.00 953.00 L 1106.00 959.00 L 1104.00 962.00 L 1108.00 962.00 L 1108.00 964.00 L 1104.00 968.00 L 1103.00 972.00 L 1105.00 976.00 L 1099.00 987.00 L 1085.00 1005.00 L 1080.00 1025.00 L 1084.00 1047.00 L 1083.00 1065.00 L 1077.00 1079.00 L 1069.00 1091.00 L 1059.00 1101.00 L 1042.00 1112.00 L 1018.00 1124.00 L 1009.00 1133.00 L 1015.00 1139.00 L 1013.00 1140.00 L 1003.00 1136.00 L 1004.00 1138.00 L 1016.00 1146.00 L 1014.00 1162.00 L 998.00 1186.00 L 996.00 1215.00 L 1008.00 1249.00 L 1010.00 1268.00 L 1002.00 1272.00 L 993.00 1268.00 L 983.00 1256.00 L 980.00 1253.00 L 984.00 1259.00 L 983.00 1261.00 L 977.00 1259.00 L 979.00 1275.00 L 989.00 1309.00 L 990.00 1319.00 L 982.00 1305.00 L 984.00 1309.00 L 996.00 1331.00 L 996.00 1333.00 L 984.00 1315.00 L 979.00 1309.00 L 981.00 1315.00 L 1007.00 1370.00 L 1057.00 1474.00 L 1073.00 1509.00 L 1055.00 1475.00 L 1058.00 1482.00 L 1082.00 1530.00 L 1081.00 1529.00 L 1055.00 1479.00 L 1057.00 1484.00 L 1087.00 1544.00 L 1085.00 1541.00 L 1051.00 1475.00 L 1052.00 1480.00 L 1088.00 1556.00 L 1078.00 1538.00 L 1022.00 1426.00 L 1024.00 1431.00 L 1084.00 1553.00 L 1089.00 1565.00 L 1039.00 1467.00 L 1040.00 1472.00 L 1092.00 1580.00 L 1087.00 1571.00 L 1025.00 1445.00 L 1025.00 1447.00 L 1087.00 1577.00 L 1117.00 1658.00 L 1115.00 1690.00 L 1106.00 1717.00 L 1090.00 1739.00 L 1074.00 1752.00 L 1058.00 1756.00 L 1042.00 1754.00 L 1026.00 1746.00 L 985.00 1707.00 L 919.00 1637.00 L 865.00 1587.00 L 823.00 1557.00 L 790.00 1536.00 L 766.00 1524.00 L 717.00 1506.00 L 643.00 1482.00 L 578.00 1466.00 L 522.00 1458.00 L 487.00 1456.00 L 473.00 1460.00 L 463.00 1461.00 L 457.00 1459.00 L 454.00 1443.00 L 454.00 1413.00 L 467.00 1344.00 L 493.00 1236.00 L 503.00 1168.00 L 497.00 1140.00 L 499.00 1108.00 L 509.00 1072.00 L 514.00 1046.00 L 514.00 1030.00 L 514.00 1020.00 L 514.00 1016.00 L 519.00 1005.00 Z" fill="black" stroke="black" stroke-width="1"/>
</svg>