<?xml version="1.0" encoding="UTF-8"?>
<svg xmlns="http://www.w3.org/2000/svg" viewBox="345.00 304.00 831.00 1293.00">
  <path d="M 427.00 966.00 L 429.00 958.00 L 425.00 950.00 L 415.00 942.00 L 412.00 927.00 L 416.00 905.00 L 404.00 888.00 L 376.00 876.00 L 375.00 874.00 L 401.00 882.00 L 399.00 879.00 L 369.00 865.00 L 355.00 852.00 L 357.00 840.00 L 378.00 809.00 L 418.00 759.00 L 436.00 719.00 L 432.00 689.00 L 434.00 663.00 L 442.00 641.00 L 440.00 621.00 L 428.00 603.00 L 429.00 601.00 L 443.00 615.00 L 444.00 613.00 L 432.00 595.00 L 432.00 594.00 L 444.00 610.00 L 445.00 609.00 L 435.00 591.00 L 436.00 589.00 L 448.00 603.00 L 449.00 602.00 L 439.00 586.00 L 440.00 584.00 L 452.00 596.00 L 455.00 594.00 L 449.00 578.00 L 450.00 575.00 L 458.00 585.00 L 459.00 583.00 L 453.00 569.00 L 454.00 568.00 L 462.00 580.00 L 465.00 575.00 L 463.00 553.00 L 466.00 548.00 L 474.00 560.00 L 475.00 556.00 L 469.00 536.00 L 471.00 533.00 L 481.00 547.00 L 482.00 545.00 L 474.00 527.00 L 475.00 525.00 L 485.00 539.00 L 486.00 537.00 L 478.00 519.00 L 479.00 517.00 L 489.00 531.00 L 491.00 528.00 L 485.00 508.00 L 488.00 505.00 L 500.00 519.00 L 503.00 518.00 L 497.00 502.00 L 498.00 500.00 L 506.00 512.00 L 509.00 510.00 L 507.00 494.00 L 509.00 480.00 L 515.00 468.00 L 531.00 453.00 L 557.00 435.00 L 578.00 416.00 L 594.00 396.00 L 611.00 383.00 L 629.00 377.00 L 644.00 368.00 L 656.00 356.00 L 688.00 341.00 L 740.00 323.00 L 800.00 314.00 L 868.00 314.00 L 920.00 320.00 L 956.00 332.00 L 999.00 361.00 L 1049.00 407.00 L 1088.00 453.00 L 1116.00 499.00 L 1139.00 551.00 L 1157.00 609.00 L 1166.00 650.00 L 1166.00 674.00 L 1161.00 705.00 L 1151.00 743.00 L 1128.00 788.00 L 1092.00 840.00 L 1068.00 895.00 L 1056.00 953.00 L 1045.00 983.00 L 1035.00 985.00 L 1034.00 987.00 L 1042.00 989.00 L 1041.00 990.00 L 1031.00 990.00 L 1032.00 1026.00 L 1044.00 1098.00 L 1047.00 1150.00 L 1041.00 1182.00 L 1047.00 1251.00 L 1065.00 1357.00 L 1071.00 1412.00 L 1065.00 1416.00 L 1047.00 1414.00 L 1017.00 1406.00 L 987.00 1403.00 L 957.00 1405.00 L 907.00 1413.00 L 837.00 1427.00 L 755.00 1452.00 L 661.00 1488.00 L 563.00 1533.00 L 461.00 1587.00 L 443.00 1538.00 L 509.00 1386.00 L 504.00 1388.00 L 428.00 1544.00 L 429.00 1539.00 L 507.00 1373.00 L 502.00 1377.00 L 414.00 1551.00 L 416.00 1544.00 L 508.00 1356.00 L 505.00 1357.00 L 407.00 1547.00 L 406.00 1546.00 L 502.00 1354.00 L 499.00 1354.00 L 397.00 1546.00 L 387.00 1564.00 L 469.00 1408.00 L 467.00 1406.00 L 381.00 1558.00 L 388.00 1541.00 L 488.00 1355.00 L 487.00 1353.00 L 385.00 1535.00 L 386.00 1532.00 L 490.00 1344.00 L 490.00 1341.00 L 386.00 1523.00 L 385.00 1523.00 L 487.00 1341.00 L 489.00 1333.00 L 391.00 1499.00 L 390.00 1498.00 L 486.00 1330.00 L 498.00 1304.00 L 426.00 1420.00 L 426.00 1418.00 L 498.00 1298.00 L 531.00 1240.00 L 525.00 1244.00 L 525.00 1240.00 L 531.00 1228.00 L 519.00 1241.00 L 489.00 1279.00 L 487.00 1276.00 L 513.00 1232.00 L 510.00 1231.00 L 478.00 1273.00 L 469.00 1282.00 L 483.00 1258.00 L 482.00 1256.00 L 466.00 1276.00 L 474.00 1265.00 L 506.00 1223.00 L 507.00 1221.00 L 477.00 1259.00 L 476.00 1257.00 L 504.00 1215.00 L 513.00 1185.00 L 503.00 1167.00 L 503.00 1151.00 L 513.00 1137.00 L 512.00 1135.00 L 500.00 1145.00 L 500.00 1142.00 L 512.00 1126.00 L 510.00 1115.00 L 494.00 1109.00 L 479.00 1099.00 L 465.00 1085.00 L 456.00 1074.00 L 452.00 1066.00 L 452.00 1046.00 L 456.00 1014.00 L 452.00 994.00 L 440.00 986.00 L 432.00 979.00 L 428.00 973.00 L 427.00 966.00 Z" fill="black" stroke="black" stroke-width="1"/>
</svg>