<?xml version="1.0" encoding="UTF-8"?>
<svg xmlns="http://www.w3.org/2000/svg" viewBox="333.00 272.00 850.00 1475.00">
  <path d="M 407.00 997.00 L 369.00 995.00 L 378.00 994.00 L 434.00 994.00 L 435.00 992.00 L 381.00 988.00 L 381.00 985.00 L 435.00 983.00 L 437.00 980.00 L 387.00 976.00 L 382.00 975.00 L 422.00 977.00 L 423.00 975.00 L 385.00 969.00 L 391.00 968.00 L 441.00 972.00 L 442.00 970.00 L 394.00 962.00 L 394.00 959.00 L 442.00 961.00 L 444.00 958.00 L 400.00 950.00 L 387.00 935.00 L 405.00 913.00 L 416.00 891.00 L 420.00 869.00 L 406.00 787.00 L 374.00 645.00 L 359.00 575.00 L 361.00 577.00 L 359.00 563.00 L 353.00 533.00 L 352.00 512.00 L 356.00 500.00 L 377.00 481.00 L 415.00 455.00 L 468.00 424.00 L 536.00 388.00 L 620.00 348.00 L 720.00 304.00 L 778.00 282.00 L 794.00 282.00 L 814.00 300.00 L 838.00 336.00 L 886.00 435.00 L 958.00 597.00 L 1016.00 688.00 L 1060.00 708.00 L 1067.00 731.00 L 1037.00 757.00 L 1039.00 757.00 L 1073.00 731.00 L 1072.00 733.00 L 1036.00 763.00 L 1037.00 764.00 L 1075.00 736.00 L 1075.00 738.00 L 1037.00 770.00 L 1039.00 771.00 L 1081.00 741.00 L 1081.00 743.00 L 1039.00 777.00 L 1042.00 778.00 L 1090.00 746.00 L 1098.00 742.00 L 1066.00 766.00 L 1068.00 767.00 L 1104.00 745.00 L 1096.00 752.00 L 1044.00 788.00 L 1048.00 789.00 L 1108.00 755.00 L 1108.00 758.00 L 1048.00 798.00 L 1050.00 800.00 L 1114.00 764.00 L 1131.00 756.00 L 1101.00 776.00 L 1103.00 777.00 L 1137.00 759.00 L 1121.00 770.00 L 1055.00 810.00 L 1057.00 811.00 L 1127.00 773.00 L 1148.00 762.00 L 1120.00 778.00 L 1110.00 787.00 L 1118.00 789.00 L 1135.00 784.00 L 1161.00 772.00 L 1138.00 785.00 L 1066.00 823.00 L 1056.00 830.00 L 1108.00 806.00 L 1109.00 807.00 L 1059.00 833.00 L 1070.00 828.00 L 1142.00 792.00 L 1170.00 779.00 L 1154.00 789.00 L 1153.00 792.00 L 1167.00 788.00 L 1173.00 787.00 L 1171.00 789.00 L 1138.00 806.00 L 1074.00 838.00 L 1047.00 859.00 L 1057.00 869.00 L 1070.00 890.00 L 1086.00 922.00 L 1094.00 942.00 L 1094.00 950.00 L 1089.00 958.00 L 1079.00 966.00 L 1076.00 970.00 L 1080.00 970.00 L 1072.00 971.00 L 1052.00 973.00 L 1049.00 974.00 L 1063.00 974.00 L 1061.00 977.00 L 1043.00 983.00 L 1034.00 997.00 L 1034.00 1019.00 L 1029.00 1035.00 L 1019.00 1045.00 L 1016.00 1055.00 L 1020.00 1065.00 L 1018.00 1076.00 L 1010.00 1088.00 L 1006.00 1110.00 L 1006.00 1142.00 L 1001.00 1163.00 L 991.00 1173.00 L 972.00 1182.00 L 944.00 1190.00 L 931.00 1198.00 L 933.00 1206.00 L 921.00 1228.00 L 895.00 1264.00 L 907.00 1336.00 L 957.00 1444.00 L 958.00 1451.00 L 910.00 1357.00 L 912.00 1365.00 L 964.00 1475.00 L 973.00 1496.00 L 939.00 1428.00 L 940.00 1431.00 L 976.00 1505.00 L 965.00 1483.00 L 907.00 1365.00 L 908.00 1368.00 L 968.00 1492.00 L 977.00 1511.00 L 935.00 1425.00 L 936.00 1428.00 L 980.00 1520.00 L 1001.00 1565.00 L 999.00 1563.00 L 1002.00 1574.00 L 1010.00 1598.00 L 1013.00 1608.00 L 1011.00 1604.00 L 1013.00 1622.00 L 1019.00 1662.00 L 1015.00 1695.00 L 1001.00 1721.00 L 991.00 1735.00 L 985.00 1737.00 L 976.00 1735.00 L 964.00 1729.00 L 914.00 1693.00 L 826.00 1627.00 L 752.00 1579.00 L 692.00 1549.00 L 629.00 1523.00 L 563.00 1501.00 L 502.00 1488.00 L 446.00 1484.00 L 416.00 1474.00 L 412.00 1458.00 L 411.00 1434.00 L 413.00 1402.00 L 430.00 1348.00 L 462.00 1272.00 L 476.00 1216.00 L 472.00 1180.00 L 474.00 1141.00 L 482.00 1099.00 L 481.00 1077.00 L 471.00 1075.00 L 465.00 1069.00 L 463.00 1059.00 L 430.00 1058.00 L 366.00 1066.00 L 367.00 1063.00 L 433.00 1049.00 L 431.00 1047.00 L 361.00 1057.00 L 361.00 1055.00 L 431.00 1041.00 L 431.00 1038.00 L 361.00 1046.00 L 360.00 1045.00 L 428.00 1035.00 L 428.00 1033.00 L 360.00 1039.00 L 343.00 1040.00 L 377.00 1036.00 L 396.00 1032.00 L 400.00 1028.00 L 384.00 1027.00 L 348.00 1029.00 L 363.00 1027.00 L 429.00 1021.00 L 430.00 1019.00 L 366.00 1021.00 L 366.00 1019.00 L 430.00 1013.00 L 431.00 1011.00 L 369.00 1013.00 L 358.00 1012.00 L 398.00 1008.00 L 399.00 1006.00 L 361.00 1006.00 L 372.00 1005.00 L 432.00 1003.00 L 453.00 1001.00 L 435.00 999.00 L 407.00 997.00 Z" fill="black" stroke="black" stroke-width="1"/>
</svg>