<?xml version="1.0" encoding="UTF-8"?>
<svg xmlns="http://www.w3.org/2000/svg" viewBox="214.00 302.00 922.00 1403.00">
  <path d="M 504.00 998.00 L 508.00 974.00 L 492.00 947.00 L 456.00 917.00 L 448.00 906.00 L 468.00 914.00 L 443.00 898.00 L 373.00 858.00 L 351.00 843.00 L 377.00 853.00 L 373.00 849.00 L 339.00 831.00 L 342.00 832.00 L 382.00 852.00 L 381.00 851.00 L 339.00 829.00 L 347.00 833.00 L 405.00 863.00 L 404.00 862.00 L 344.00 830.00 L 344.00 829.00 L 404.00 859.00 L 403.00 857.00 L 341.00 823.00 L 339.00 821.00 L 397.00 851.00 L 394.00 846.00 L 330.00 806.00 L 282.00 772.00 L 250.00 744.00 L 249.00 739.00 L 279.00 757.00 L 274.00 751.00 L 234.00 721.00 L 233.00 718.00 L 271.00 742.00 L 271.00 739.00 L 233.00 709.00 L 233.00 706.00 L 271.00 730.00 L 271.00 727.00 L 233.00 697.00 L 231.00 692.00 L 265.00 712.00 L 266.00 709.00 L 234.00 683.00 L 233.00 680.00 L 263.00 700.00 L 264.00 697.00 L 236.00 671.00 L 224.00 642.00 L 228.00 610.00 L 242.00 582.00 L 266.00 558.00 L 275.00 517.00 L 269.00 459.00 L 271.00 419.00 L 281.00 397.00 L 300.00 376.00 L 328.00 356.00 L 353.00 352.00 L 375.00 364.00 L 407.00 355.00 L 449.00 325.00 L 510.00 312.00 L 590.00 316.00 L 646.00 326.00 L 678.00 342.00 L 708.00 349.00 L 736.00 347.00 L 786.00 354.00 L 858.00 370.00 L 902.00 386.00 L 918.00 402.00 L 923.00 425.00 L 917.00 455.00 L 920.00 460.00 L 932.00 440.00 L 933.00 442.00 L 923.00 466.00 L 923.00 468.00 L 933.00 448.00 L 934.00 449.00 L 926.00 471.00 L 927.00 474.00 L 937.00 458.00 L 940.00 466.00 L 936.00 498.00 L 939.00 505.00 L 949.00 487.00 L 950.00 490.00 L 942.00 514.00 L 942.00 544.00 L 950.00 580.00 L 952.00 613.00 L 948.00 643.00 L 961.00 685.00 L 991.00 739.00 L 993.00 779.00 L 967.00 805.00 L 968.00 810.00 L 996.00 794.00 L 996.00 797.00 L 968.00 819.00 L 966.00 822.00 L 990.00 806.00 L 990.00 807.00 L 966.00 825.00 L 956.00 841.00 L 960.00 855.00 L 954.00 897.00 L 938.00 967.00 L 895.00 1015.00 L 825.00 1041.00 L 786.00 1073.00 L 778.00 1111.00 L 860.00 1253.00 L 1032.00 1499.00 L 1032.00 1501.00 L 860.00 1259.00 L 860.00 1260.00 L 1032.00 1504.00 L 1114.00 1621.00 L 1106.00 1611.00 L 1110.00 1618.00 L 1126.00 1642.00 L 1106.00 1616.00 L 1050.00 1540.00 L 1049.00 1542.00 L 1103.00 1622.00 L 1101.00 1620.00 L 1043.00 1536.00 L 1046.00 1543.00 L 1110.00 1641.00 L 1050.00 1554.00 L 866.00 1282.00 L 866.00 1285.00 L 1050.00 1563.00 L 1104.00 1645.00 L 1028.00 1531.00 L 1028.00 1534.00 L 1104.00 1654.00 L 1101.00 1652.00 L 1019.00 1528.00 L 1019.00 1531.00 L 1101.00 1661.00 L 1099.00 1660.00 L 1013.00 1528.00 L 1012.00 1530.00 L 1096.00 1666.00 L 1094.00 1666.00 L 1006.00 1530.00 L 1005.00 1533.00 L 1091.00 1675.00 L 1089.00 1674.00 L 999.00 1530.00 L 998.00 1532.00 L 1086.00 1680.00 L 1040.00 1604.00 L 860.00 1304.00 L 857.00 1309.00 L 1031.00 1619.00 L 1031.00 1621.00 L 857.00 1315.00 L 855.00 1316.00 L 1025.00 1624.00 L 1025.00 1626.00 L 855.00 1322.00 L 852.00 1323.00 L 1016.00 1629.00 L 1049.00 1694.00 L 951.00 1518.00 L 946.00 1518.00 L 1034.00 1694.00 L 1031.00 1692.00 L 937.00 1512.00 L 933.00 1513.00 L 1019.00 1695.00 L 988.00 1635.00 L 840.00 1333.00 L 837.00 1333.00 L 979.00 1635.00 L 1003.00 1690.00 L 909.00 1498.00 L 904.00 1496.00 L 988.00 1684.00 L 964.00 1632.00 L 832.00 1340.00 L 829.00 1339.00 L 955.00 1629.00 L 972.00 1674.00 L 880.00 1474.00 L 874.00 1471.00 L 954.00 1665.00 L 936.00 1622.00 L 820.00 1342.00 L 817.00 1341.00 L 927.00 1619.00 L 927.00 1622.00 L 817.00 1350.00 L 811.00 1347.00 L 909.00 1613.00 L 909.00 1615.00 L 811.00 1353.00 L 809.00 1351.00 L 903.00 1609.00 L 909.00 1630.00 L 827.00 1414.00 L 822.00 1411.00 L 894.00 1621.00 L 888.00 1604.00 L 804.00 1360.00 L 803.00 1359.00 L 885.00 1601.00 L 884.00 1599.00 L 800.00 1353.00 L 798.00 1352.00 L 878.00 1596.00 L 879.00 1602.00 L 801.00 1370.00 L 797.00 1368.00 L 867.00 1596.00 L 837.00 1657.00 L 707.00 1551.00 L 616.00 1488.00 L 564.00 1468.00 L 504.00 1454.00 L 436.00 1446.00 L 392.00 1435.00 L 372.00 1421.00 L 360.00 1395.00 L 356.00 1357.00 L 390.00 1259.00 L 462.00 1101.00 L 499.00 1019.00 L 501.00 1013.00 L 504.00 998.00 Z" fill="black" stroke="black" stroke-width="1"/>
</svg>