<?xml version="1.0" encoding="UTF-8"?>
<svg xmlns="http://www.w3.org/2000/svg" viewBox="256.00 317.00 792.00 1357.00">
  <path d="M 344.00 982.00 L 348.00 966.00 L 353.00 955.00 L 359.00 949.00 L 362.00 941.00 L 362.00 931.00 L 358.00 923.00 L 350.00 917.00 L 345.00 907.00 L 343.00 893.00 L 345.00 887.00 L 351.00 889.00 L 350.00 887.00 L 342.00 881.00 L 341.00 866.00 L 347.00 842.00 L 337.00 819.00 L 311.00 797.00 L 311.00 794.00 L 337.00 810.00 L 336.00 808.00 L 308.00 788.00 L 305.00 785.00 L 327.00 799.00 L 327.00 796.00 L 305.00 776.00 L 308.00 753.00 L 336.00 727.00 L 359.00 700.00 L 377.00 672.00 L 385.00 652.00 L 383.00 640.00 L 385.00 626.00 L 391.00 610.00 L 391.00 595.00 L 385.00 581.00 L 385.00 579.00 L 391.00 589.00 L 392.00 586.00 L 388.00 570.00 L 390.00 567.00 L 398.00 577.00 L 399.00 575.00 L 393.00 561.00 L 394.00 559.00 L 402.00 569.00 L 403.00 567.00 L 397.00 553.00 L 398.00 551.00 L 406.00 561.00 L 407.00 560.00 L 401.00 548.00 L 400.00 545.00 L 404.00 551.00 L 405.00 549.00 L 403.00 539.00 L 405.00 539.00 L 411.00 549.00 L 412.00 547.00 L 408.00 533.00 L 409.00 531.00 L 415.00 541.00 L 416.00 538.00 L 412.00 522.00 L 413.00 519.00 L 419.00 529.00 L 420.00 524.00 L 416.00 504.00 L 417.00 499.00 L 423.00 509.00 L 424.00 507.00 L 420.00 493.00 L 421.00 491.00 L 427.00 501.00 L 428.00 499.00 L 424.00 485.00 L 425.00 484.00 L 431.00 496.00 L 434.00 491.00 L 434.00 469.00 L 458.00 438.00 L 506.00 398.00 L 551.00 370.00 L 593.00 354.00 L 645.00 342.00 L 707.00 334.00 L 754.00 330.00 L 786.00 330.00 L 817.00 334.00 L 847.00 342.00 L 866.00 341.00 L 874.00 331.00 L 883.00 327.00 L 893.00 329.00 L 907.00 337.00 L 925.00 351.00 L 935.00 357.00 L 937.00 355.00 L 941.00 357.00 L 947.00 363.00 L 952.00 375.00 L 956.00 393.00 L 972.00 421.00 L 1000.00 459.00 L 1021.00 512.00 L 1035.00 580.00 L 1038.00 642.00 L 1030.00 698.00 L 1027.00 754.00 L 1029.00 810.00 L 1025.00 862.00 L 1015.00 910.00 L 1007.00 940.00 L 1001.00 952.00 L 977.00 962.00 L 935.00 970.00 L 933.00 973.00 L 971.00 971.00 L 974.00 971.00 L 942.00 973.00 L 939.00 975.00 L 965.00 977.00 L 962.00 980.00 L 930.00 984.00 L 925.00 986.00 L 947.00 986.00 L 947.00 989.00 L 925.00 995.00 L 919.00 1004.00 L 929.00 1016.00 L 936.00 1052.00 L 940.00 1112.00 L 940.00 1165.00 L 936.00 1211.00 L 946.00 1272.00 L 970.00 1348.00 L 983.00 1402.00 L 985.00 1434.00 L 966.00 1446.00 L 926.00 1438.00 L 884.00 1434.00 L 840.00 1434.00 L 789.00 1438.00 L 731.00 1446.00 L 661.00 1464.00 L 579.00 1492.00 L 497.00 1529.00 L 415.00 1575.00 L 356.00 1615.00 L 320.00 1649.00 L 295.00 1664.00 L 281.00 1660.00 L 272.00 1655.00 L 268.00 1649.00 L 266.00 1637.00 L 266.00 1619.00 L 272.00 1589.00 L 284.00 1547.00 L 296.00 1512.00 L 308.00 1484.00 L 313.00 1471.00 L 311.00 1473.00 L 329.00 1444.00 L 367.00 1384.00 L 368.00 1381.00 L 332.00 1435.00 L 344.00 1411.00 L 404.00 1309.00 L 422.00 1275.00 L 398.00 1309.00 L 398.00 1307.00 L 422.00 1269.00 L 425.00 1262.00 L 407.00 1286.00 L 410.00 1272.00 L 434.00 1220.00 L 441.00 1194.00 L 431.00 1194.00 L 408.00 1212.00 L 372.00 1248.00 L 370.00 1249.00 L 402.00 1215.00 L 400.00 1215.00 L 364.00 1249.00 L 368.00 1243.00 L 412.00 1197.00 L 411.00 1195.00 L 365.00 1237.00 L 363.00 1236.00 L 405.00 1192.00 L 412.00 1182.00 L 384.00 1206.00 L 381.00 1207.00 L 403.00 1185.00 L 403.00 1183.00 L 381.00 1201.00 L 382.00 1199.00 L 406.00 1177.00 L 406.00 1176.00 L 382.00 1196.00 L 380.00 1196.00 L 400.00 1176.00 L 401.00 1173.00 L 383.00 1187.00 L 389.00 1181.00 L 419.00 1155.00 L 421.00 1152.00 L 395.00 1172.00 L 394.00 1170.00 L 418.00 1146.00 L 420.00 1140.00 L 400.00 1152.00 L 395.00 1153.00 L 405.00 1143.00 L 403.00 1142.00 L 389.00 1150.00 L 392.00 1147.00 L 412.00 1133.00 L 411.00 1130.00 L 389.00 1138.00 L 388.00 1135.00 L 408.00 1121.00 L 409.00 1119.00 L 391.00 1129.00 L 391.00 1126.00 L 409.00 1110.00 L 412.00 1095.00 L 400.00 1081.00 L 387.00 1071.00 L 373.00 1065.00 L 367.00 1057.00 L 369.00 1047.00 L 365.00 1037.00 L 355.00 1027.00 L 348.00 1016.00 L 344.00 1004.00 L 342.00 996.00 L 342.00 992.00 L 344.00 982.00 Z" fill="black" stroke="black" stroke-width="1"/>
</svg>