<?xml version="1.0" encoding="UTF-8"?>
<svg xmlns="http://www.w3.org/2000/svg" viewBox="315.00 254.00 844.00 1480.00">
  <path d="M 508.00 935.00 L 480.00 889.00 L 441.00 845.00 L 391.00 803.00 L 358.00 764.00 L 342.00 728.00 L 331.00 680.00 L 325.00 620.00 L 325.00 573.00 L 331.00 539.00 L 341.00 505.00 L 355.00 471.00 L 374.00 435.00 L 398.00 397.00 L 427.00 364.00 L 461.00 336.00 L 511.00 309.00 L 577.00 283.00 L 616.00 271.00 L 628.00 273.00 L 655.00 271.00 L 697.00 265.00 L 727.00 264.00 L 745.00 268.00 L 762.00 269.00 L 778.00 267.00 L 809.00 273.00 L 855.00 287.00 L 890.00 305.00 L 914.00 327.00 L 939.00 345.00 L 965.00 359.00 L 983.00 377.00 L 993.00 399.00 L 1006.00 416.00 L 1022.00 428.00 L 1028.00 443.00 L 1024.00 461.00 L 1026.00 463.00 L 1034.00 449.00 L 1035.00 451.00 L 1029.00 469.00 L 1030.00 471.00 L 1038.00 457.00 L 1039.00 459.00 L 1033.00 477.00 L 1034.00 482.00 L 1042.00 474.00 L 1043.00 477.00 L 1037.00 491.00 L 1037.00 493.00 L 1043.00 483.00 L 1045.00 487.00 L 1043.00 505.00 L 1046.00 510.00 L 1054.00 502.00 L 1055.00 505.00 L 1049.00 519.00 L 1050.00 521.00 L 1058.00 511.00 L 1058.00 516.00 L 1050.00 536.00 L 1052.00 539.00 L 1064.00 525.00 L 1066.00 526.00 L 1058.00 542.00 L 1059.00 545.00 L 1069.00 535.00 L 1070.00 537.00 L 1062.00 551.00 L 1059.00 576.00 L 1061.00 612.00 L 1084.00 662.00 L 1128.00 726.00 L 1149.00 764.00 L 1147.00 776.00 L 1136.00 788.00 L 1116.00 800.00 L 1112.00 803.00 L 1124.00 797.00 L 1123.00 798.00 L 1109.00 806.00 L 1101.00 813.00 L 1099.00 819.00 L 1099.00 833.00 L 1101.00 855.00 L 1098.00 872.00 L 1090.00 884.00 L 1086.00 899.00 L 1086.00 917.00 L 1083.00 931.00 L 1077.00 941.00 L 1078.00 957.00 L 1086.00 979.00 L 1087.00 999.00 L 1081.00 1017.00 L 1059.00 1038.00 L 1021.00 1062.00 L 982.00 1079.00 L 942.00 1089.00 L 918.00 1099.00 L 910.00 1109.00 L 902.00 1127.00 L 894.00 1153.00 L 947.00 1274.00 L 1061.00 1490.00 L 1113.00 1589.00 L 1103.00 1571.00 L 1104.00 1574.00 L 1116.00 1598.00 L 1114.00 1596.00 L 1098.00 1568.00 L 1099.00 1571.00 L 1117.00 1605.00 L 1114.00 1601.00 L 1090.00 1559.00 L 1091.00 1566.00 L 1117.00 1622.00 L 1111.00 1616.00 L 1073.00 1548.00 L 1073.00 1551.00 L 1111.00 1625.00 L 1069.00 1543.00 L 947.00 1305.00 L 946.00 1308.00 L 1066.00 1552.00 L 1102.00 1628.00 L 1054.00 1536.00 L 1053.00 1538.00 L 1099.00 1634.00 L 1063.00 1561.00 L 945.00 1319.00 L 944.00 1321.00 L 1060.00 1567.00 L 1060.00 1569.00 L 944.00 1327.00 L 943.00 1329.00 L 1057.00 1575.00 L 1085.00 1638.00 L 1027.00 1518.00 L 1026.00 1520.00 L 1082.00 1644.00 L 1080.00 1642.00 L 1020.00 1514.00 L 1019.00 1516.00 L 1077.00 1648.00 L 1050.00 1590.00 L 938.00 1342.00 L 936.00 1344.00 L 1044.00 1596.00 L 1065.00 1646.00 L 999.00 1494.00 L 998.00 1495.00 L 1062.00 1649.00 L 1041.00 1601.00 L 935.00 1351.00 L 934.00 1352.00 L 1038.00 1604.00 L 1053.00 1644.00 L 979.00 1472.00 L 977.00 1473.00 L 1047.00 1647.00 L 1032.00 1610.00 L 932.00 1362.00 L 930.00 1364.00 L 1026.00 1616.00 L 1026.00 1618.00 L 930.00 1370.00 L 928.00 1369.00 L 1020.00 1615.00 L 1020.00 1618.00 L 928.00 1378.00 L 926.00 1377.00 L 1014.00 1615.00 L 1020.00 1633.00 L 944.00 1431.00 L 942.00 1429.00 L 1014.00 1627.00 L 1049.00 1724.00 L 1047.00 1720.00 L 1005.00 1606.00 L 923.00 1382.00 L 921.00 1380.00 L 999.00 1600.00 L 1000.00 1603.00 L 924.00 1389.00 L 922.00 1387.00 L 994.00 1597.00 L 985.00 1661.00 L 895.00 1579.00 L 825.00 1520.00 L 775.00 1484.00 L 734.00 1457.00 L 702.00 1439.00 L 649.00 1414.00 L 575.00 1382.00 L 506.00 1364.00 L 442.00 1360.00 L 417.00 1339.00 L 431.00 1301.00 L 456.00 1259.00 L 492.00 1213.00 L 506.00 1193.00 L 498.00 1199.00 L 500.00 1197.00 L 512.00 1187.00 L 513.00 1185.00 L 503.00 1191.00 L 505.00 1188.00 L 519.00 1176.00 L 531.00 1157.00 L 541.00 1131.00 L 549.00 1104.00 L 555.00 1076.00 L 558.00 1051.00 L 558.00 1029.00 L 556.00 1009.00 L 552.00 991.00 L 545.00 979.00 L 535.00 973.00 L 528.00 967.00 L 524.00 961.00 L 508.00 935.00 Z" fill="black" stroke="black" stroke-width="1"/>
</svg>