<?xml version="1.0" encoding="UTF-8"?>
<svg xmlns="http://www.w3.org/2000/svg" viewBox="441.00 315.00 770.00 1299.00">
  <path d="M 502.00 955.00 L 494.00 941.00 L 492.00 934.00 L 496.00 934.00 L 495.00 933.00 L 489.00 931.00 L 490.00 930.00 L 498.00 930.00 L 498.00 928.00 L 490.00 924.00 L 488.00 918.00 L 492.00 910.00 L 490.00 902.00 L 482.00 894.00 L 480.00 876.00 L 484.00 848.00 L 478.00 827.00 L 462.00 813.00 L 453.00 801.00 L 451.00 791.00 L 468.00 757.00 L 504.00 699.00 L 525.00 643.00 L 531.00 589.00 L 531.00 551.00 L 525.00 529.00 L 526.00 524.00 L 534.00 536.00 L 535.00 535.00 L 529.00 521.00 L 530.00 519.00 L 538.00 529.00 L 540.00 526.00 L 536.00 510.00 L 537.00 507.00 L 543.00 517.00 L 544.00 515.00 L 540.00 501.00 L 541.00 499.00 L 547.00 509.00 L 549.00 505.00 L 547.00 487.00 L 549.00 483.00 L 555.00 493.00 L 558.00 489.00 L 558.00 471.00 L 570.00 449.00 L 594.00 423.00 L 642.00 391.00 L 714.00 353.00 L 784.00 331.00 L 852.00 325.00 L 927.00 335.00 L 1009.00 361.00 L 1077.00 398.00 L 1131.00 446.00 L 1165.00 483.00 L 1179.00 509.00 L 1191.00 545.00 L 1201.00 591.00 L 1201.00 654.00 L 1191.00 734.00 L 1155.00 809.00 L 1093.00 879.00 L 1044.00 919.00 L 1008.00 929.00 L 1002.00 933.00 L 1026.00 931.00 L 1025.00 932.00 L 999.00 936.00 L 998.00 937.00 L 1022.00 935.00 L 1022.00 936.00 L 998.00 940.00 L 997.00 941.00 L 1019.00 939.00 L 1020.00 940.00 L 1000.00 944.00 L 998.00 946.00 L 1014.00 946.00 L 1012.00 947.00 L 992.00 949.00 L 991.00 951.00 L 1009.00 953.00 L 1008.00 956.00 L 988.00 960.00 L 986.00 962.00 L 1002.00 962.00 L 1002.00 963.00 L 986.00 965.00 L 984.00 967.00 L 996.00 969.00 L 995.00 975.00 L 981.00 985.00 L 972.00 1031.00 L 968.00 1113.00 L 978.00 1207.00 L 1002.00 1313.00 L 979.00 1374.00 L 909.00 1390.00 L 853.00 1406.00 L 811.00 1422.00 L 754.00 1454.00 L 682.00 1502.00 L 623.00 1549.00 L 577.00 1595.00 L 587.00 1515.00 L 653.00 1309.00 L 651.00 1312.00 L 581.00 1524.00 L 582.00 1520.00 L 654.00 1300.00 L 649.00 1305.00 L 567.00 1535.00 L 567.00 1532.00 L 649.00 1296.00 L 645.00 1297.00 L 555.00 1535.00 L 554.00 1533.00 L 642.00 1291.00 L 640.00 1290.00 L 548.00 1530.00 L 536.00 1560.00 L 604.00 1380.00 L 602.00 1378.00 L 530.00 1554.00 L 542.00 1521.00 L 638.00 1279.00 L 637.00 1278.00 L 539.00 1518.00 L 522.00 1556.00 L 586.00 1392.00 L 584.00 1389.00 L 516.00 1547.00 L 514.00 1549.00 L 578.00 1395.00 L 577.00 1393.00 L 511.00 1543.00 L 529.00 1501.00 L 631.00 1267.00 L 630.00 1266.00 L 526.00 1498.00 L 506.00 1542.00 L 570.00 1398.00 L 569.00 1396.00 L 503.00 1536.00 L 470.00 1604.00 L 470.00 1600.00 L 523.00 1483.00 L 629.00 1253.00 L 628.00 1250.00 L 520.00 1474.00 L 495.00 1525.00 L 553.00 1403.00 L 553.00 1402.00 L 495.00 1522.00 L 493.00 1523.00 L 547.00 1405.00 L 546.00 1402.00 L 490.00 1514.00 L 489.00 1515.00 L 543.00 1405.00 L 543.00 1403.00 L 489.00 1509.00 L 487.00 1511.00 L 537.00 1409.00 L 537.00 1406.00 L 487.00 1502.00 L 486.00 1503.00 L 534.00 1409.00 L 534.00 1407.00 L 486.00 1497.00 L 516.00 1439.00 L 624.00 1233.00 L 624.00 1231.00 L 516.00 1433.00 L 516.00 1432.00 L 624.00 1228.00 L 624.00 1226.00 L 516.00 1426.00 L 481.00 1489.00 L 519.00 1415.00 L 521.00 1408.00 L 487.00 1468.00 L 484.00 1471.00 L 512.00 1417.00 L 512.00 1415.00 L 484.00 1465.00 L 482.00 1468.00 L 506.00 1424.00 L 509.00 1417.00 L 491.00 1447.00 L 530.00 1376.00 L 626.00 1204.00 L 669.00 1107.00 L 659.00 1085.00 L 632.00 1074.00 L 588.00 1074.00 L 552.00 1067.00 L 524.00 1053.00 L 506.00 1038.00 L 498.00 1022.00 L 497.00 1003.00 L 503.00 981.00 L 506.00 968.00 L 506.00 964.00 L 502.00 955.00 Z" fill="black" stroke="black" stroke-width="1"/>
</svg>