<?xml version="1.0" encoding="UTF-8"?>
<svg xmlns="http://www.w3.org/2000/svg" viewBox="312.00 386.00 791.00 1258.00">
  <path d="M 392.00 972.00 L 396.00 952.00 L 379.00 894.00 L 341.00 798.00 L 322.00 728.00 L 322.00 684.00 L 326.00 643.00 L 334.00 605.00 L 348.00 572.00 L 368.00 544.00 L 378.00 526.00 L 378.00 518.00 L 388.00 503.00 L 408.00 481.00 L 433.00 461.00 L 463.00 443.00 L 478.00 431.00 L 478.00 425.00 L 483.00 424.00 L 493.00 428.00 L 505.00 425.00 L 519.00 415.00 L 529.00 412.00 L 535.00 416.00 L 537.00 415.00 L 535.00 409.00 L 536.00 410.00 L 540.00 418.00 L 542.00 419.00 L 542.00 413.00 L 547.00 411.00 L 557.00 413.00 L 568.00 409.00 L 580.00 399.00 L 593.00 396.00 L 607.00 400.00 L 631.00 400.00 L 665.00 396.00 L 689.00 398.00 L 703.00 406.00 L 721.00 408.00 L 743.00 404.00 L 757.00 407.00 L 763.00 417.00 L 767.00 419.00 L 769.00 413.00 L 778.00 416.00 L 794.00 428.00 L 810.00 434.00 L 826.00 434.00 L 846.00 443.00 L 870.00 461.00 L 897.00 476.00 L 927.00 488.00 L 952.00 505.00 L 972.00 527.00 L 981.00 546.00 L 979.00 562.00 L 981.00 565.00 L 987.00 555.00 L 987.00 556.00 L 981.00 568.00 L 983.00 570.00 L 993.00 562.00 L 995.00 566.00 L 989.00 582.00 L 990.00 584.00 L 998.00 572.00 L 999.00 574.00 L 993.00 590.00 L 994.00 592.00 L 1002.00 580.00 L 1002.00 582.00 L 994.00 598.00 L 994.00 600.00 L 1002.00 588.00 L 1003.00 591.00 L 997.00 609.00 L 998.00 613.00 L 1006.00 603.00 L 1007.00 606.00 L 1001.00 622.00 L 1002.00 625.00 L 1010.00 615.00 L 1011.00 616.00 L 1005.00 628.00 L 1004.00 632.00 L 1008.00 628.00 L 1008.00 630.00 L 1004.00 638.00 L 1006.00 637.00 L 1014.00 627.00 L 1014.00 629.00 L 1006.00 643.00 L 1004.00 674.00 L 1008.00 722.00 L 1031.00 770.00 L 1073.00 818.00 L 1093.00 848.00 L 1091.00 860.00 L 1080.00 872.00 L 1060.00 884.00 L 1051.00 905.00 L 1053.00 935.00 L 1050.00 953.00 L 1042.00 959.00 L 1038.00 968.00 L 1038.00 980.00 L 1031.00 992.00 L 1017.00 1004.00 L 1009.00 1033.00 L 1007.00 1079.00 L 997.00 1115.00 L 979.00 1141.00 L 974.00 1158.00 L 982.00 1166.00 L 981.00 1167.00 L 971.00 1161.00 L 972.00 1165.00 L 984.00 1179.00 L 984.00 1182.00 L 972.00 1174.00 L 970.00 1176.00 L 978.00 1188.00 L 977.00 1194.00 L 967.00 1194.00 L 976.00 1213.00 L 1004.00 1251.00 L 1004.00 1257.00 L 976.00 1231.00 L 975.00 1233.00 L 1001.00 1263.00 L 1002.00 1265.00 L 978.00 1239.00 L 976.00 1238.00 L 996.00 1262.00 L 993.00 1261.00 L 967.00 1235.00 L 947.00 1220.00 L 933.00 1216.00 L 926.00 1219.00 L 926.00 1229.00 L 933.00 1246.00 L 947.00 1270.00 L 951.00 1278.00 L 945.00 1270.00 L 957.00 1288.00 L 987.00 1332.00 L 985.00 1330.00 L 951.00 1282.00 L 953.00 1286.00 L 991.00 1342.00 L 988.00 1338.00 L 944.00 1274.00 L 945.00 1277.00 L 991.00 1347.00 L 991.00 1348.00 L 945.00 1280.00 L 959.00 1306.00 L 1033.00 1426.00 L 1057.00 1466.00 L 1031.00 1426.00 L 1034.00 1435.00 L 1066.00 1493.00 L 1084.00 1534.00 L 1088.00 1558.00 L 1088.00 1580.00 L 1084.00 1600.00 L 1076.00 1616.00 L 1064.00 1628.00 L 1050.00 1634.00 L 1034.00 1634.00 L 984.00 1596.00 L 900.00 1520.00 L 815.00 1462.00 L 729.00 1422.00 L 653.00 1395.00 L 587.00 1381.00 L 503.00 1374.00 L 401.00 1374.00 L 353.00 1350.00 L 359.00 1302.00 L 376.00 1246.00 L 404.00 1182.00 L 413.00 1144.00 L 403.00 1132.00 L 401.00 1108.00 L 407.00 1072.00 L 408.00 1039.00 L 404.00 1009.00 L 404.00 993.00 L 408.00 991.00 L 406.00 990.00 L 398.00 990.00 L 393.00 988.00 L 391.00 984.00 L 392.00 972.00 Z" fill="black" stroke="black" stroke-width="1"/>
</svg>