<?xml version="1.0" encoding="UTF-8"?>
<svg xmlns="http://www.w3.org/2000/svg" viewBox="440.00 361.00 850.00 1447.00">
  <path d="M 513.00 1095.00 L 519.00 1049.00 L 526.00 1020.00 L 534.00 1008.00 L 528.00 996.00 L 508.00 984.00 L 510.00 981.00 L 534.00 987.00 L 534.00 984.00 L 510.00 972.00 L 510.00 969.00 L 534.00 975.00 L 535.00 972.00 L 513.00 960.00 L 512.00 957.00 L 532.00 963.00 L 532.00 960.00 L 512.00 948.00 L 498.00 911.00 L 490.00 849.00 L 480.00 799.00 L 468.00 761.00 L 460.00 727.00 L 456.00 697.00 L 455.00 659.00 L 457.00 613.00 L 466.00 570.00 L 482.00 530.00 L 509.00 490.00 L 547.00 450.00 L 581.00 421.00 L 611.00 403.00 L 646.00 389.00 L 686.00 379.00 L 749.00 373.00 L 835.00 371.00 L 899.00 375.00 L 941.00 385.00 L 980.00 399.00 L 1016.00 417.00 L 1049.00 441.00 L 1079.00 471.00 L 1105.00 513.00 L 1127.00 567.00 L 1138.00 606.00 L 1138.00 630.00 L 1140.00 648.00 L 1144.00 660.00 L 1168.00 696.00 L 1212.00 756.00 L 1235.00 791.00 L 1237.00 801.00 L 1226.00 819.00 L 1202.00 845.00 L 1202.00 848.00 L 1226.00 828.00 L 1224.00 831.00 L 1196.00 857.00 L 1195.00 860.00 L 1221.00 840.00 L 1221.00 842.00 L 1195.00 866.00 L 1184.00 887.00 L 1188.00 905.00 L 1189.00 919.00 L 1187.00 929.00 L 1188.00 936.00 L 1192.00 940.00 L 1191.00 956.00 L 1185.00 984.00 L 1187.00 1010.00 L 1197.00 1034.00 L 1202.00 1051.00 L 1202.00 1061.00 L 1194.00 1076.00 L 1178.00 1096.00 L 1154.00 1110.00 L 1122.00 1118.00 L 1109.00 1126.00 L 1115.00 1134.00 L 1117.00 1142.00 L 1115.00 1150.00 L 1103.00 1162.00 L 1081.00 1178.00 L 1074.00 1189.00 L 1082.00 1195.00 L 1082.00 1197.00 L 1074.00 1195.00 L 1076.00 1197.00 L 1088.00 1203.00 L 1090.00 1210.00 L 1082.00 1218.00 L 1073.00 1221.00 L 1063.00 1219.00 L 1064.00 1227.00 L 1076.00 1245.00 L 1071.00 1248.00 L 1049.00 1236.00 L 1050.00 1239.00 L 1074.00 1257.00 L 1076.00 1260.00 L 1056.00 1248.00 L 1062.00 1256.00 L 1094.00 1284.00 L 1092.00 1284.00 L 1056.00 1256.00 L 1058.00 1259.00 L 1098.00 1293.00 L 1098.00 1295.00 L 1058.00 1265.00 L 1057.00 1266.00 L 1095.00 1298.00 L 1102.00 1304.00 L 1078.00 1284.00 L 1075.00 1282.00 L 1093.00 1298.00 L 1096.00 1301.00 L 1084.00 1291.00 L 1082.00 1290.00 L 1090.00 1298.00 L 1075.00 1286.00 L 1037.00 1254.00 L 1021.00 1243.00 L 1027.00 1253.00 L 1025.00 1255.00 L 1015.00 1249.00 L 1042.00 1283.00 L 1106.00 1357.00 L 1105.00 1359.00 L 1039.00 1289.00 L 1041.00 1292.00 L 1111.00 1368.00 L 1122.00 1381.00 L 1074.00 1331.00 L 1075.00 1334.00 L 1125.00 1390.00 L 1122.00 1387.00 L 1066.00 1325.00 L 1067.00 1327.00 L 1125.00 1393.00 L 1122.00 1391.00 L 1058.00 1321.00 L 1059.00 1324.00 L 1125.00 1400.00 L 1136.00 1413.00 L 1092.00 1363.00 L 1095.00 1369.00 L 1145.00 1431.00 L 1131.00 1416.00 L 1053.00 1324.00 L 1055.00 1327.00 L 1137.00 1425.00 L 1136.00 1424.00 L 1052.00 1324.00 L 1058.00 1333.00 L 1154.00 1451.00 L 1151.00 1448.00 L 1049.00 1324.00 L 1052.00 1328.00 L 1160.00 1460.00 L 1212.00 1524.00 L 1208.00 1520.00 L 1215.00 1534.00 L 1233.00 1566.00 L 1181.00 1504.00 L 1059.00 1348.00 L 1060.00 1350.00 L 1184.00 1510.00 L 1183.00 1509.00 L 1057.00 1347.00 L 1057.00 1349.00 L 1183.00 1515.00 L 1253.00 1617.00 L 1267.00 1655.00 L 1276.00 1687.00 L 1280.00 1713.00 L 1278.00 1741.00 L 1270.00 1771.00 L 1263.00 1789.00 L 1257.00 1795.00 L 1247.00 1798.00 L 1233.00 1798.00 L 1220.00 1795.00 L 1208.00 1789.00 L 1181.00 1767.00 L 1139.00 1729.00 L 1121.00 1718.00 L 1127.00 1734.00 L 1124.00 1731.00 L 1112.00 1709.00 L 1111.00 1711.00 L 1121.00 1737.00 L 1118.00 1736.00 L 1102.00 1708.00 L 1095.00 1699.00 L 1097.00 1709.00 L 1095.00 1707.00 L 1089.00 1693.00 L 1087.00 1691.00 L 1089.00 1701.00 L 1081.00 1695.00 L 1063.00 1673.00 L 1042.00 1653.00 L 1018.00 1635.00 L 986.00 1613.00 L 946.00 1587.00 L 897.00 1561.00 L 839.00 1535.00 L 785.00 1516.00 L 735.00 1504.00 L 686.00 1495.00 L 638.00 1489.00 L 573.00 1489.00 L 491.00 1495.00 L 450.00 1475.00 L 450.00 1429.00 L 464.00 1363.00 L 492.00 1277.00 L 506.00 1225.00 L 506.00 1207.00 L 504.00 1194.00 L 500.00 1186.00 L 500.00 1168.00 L 504.00 1140.00 L 507.00 1124.00 L 509.00 1120.00 L 513.00 1095.00 Z" fill="black" stroke="black" stroke-width="1"/>
</svg>