<?xml version="1.0" encoding="UTF-8"?>
<svg xmlns="http://www.w3.org/2000/svg" viewBox="376.00 304.00 812.00 1475.00">
  <path d="M 411.00 931.00 L 413.00 733.00 L 417.00 620.00 L 423.00 592.00 L 436.00 554.00 L 456.00 506.00 L 479.00 464.00 L 505.00 428.00 L 540.00 392.00 L 584.00 356.00 L 622.00 332.00 L 654.00 320.00 L 705.00 314.00 L 775.00 314.00 L 820.00 316.00 L 840.00 320.00 L 871.00 331.00 L 913.00 349.00 L 947.00 367.00 L 973.00 385.00 L 1004.00 415.00 L 1040.00 457.00 L 1055.00 486.00 L 1049.00 502.00 L 1050.00 504.00 L 1058.00 492.00 L 1059.00 493.00 L 1053.00 507.00 L 1053.00 509.00 L 1059.00 499.00 L 1061.00 497.00 L 1059.00 503.00 L 1060.00 505.00 L 1064.00 503.00 L 1063.00 508.00 L 1057.00 520.00 L 1058.00 544.00 L 1066.00 580.00 L 1075.00 609.00 L 1085.00 631.00 L 1088.00 655.00 L 1084.00 681.00 L 1085.00 700.00 L 1091.00 712.00 L 1106.00 731.00 L 1130.00 757.00 L 1151.00 787.00 L 1169.00 821.00 L 1178.00 841.00 L 1178.00 847.00 L 1165.00 857.00 L 1139.00 871.00 L 1137.00 874.00 L 1159.00 866.00 L 1158.00 868.00 L 1134.00 880.00 L 1132.00 882.00 L 1152.00 874.00 L 1152.00 876.00 L 1132.00 888.00 L 1120.00 904.00 L 1116.00 924.00 L 1109.00 938.00 L 1099.00 946.00 L 1096.00 952.00 L 1100.00 956.00 L 1102.00 963.00 L 1102.00 973.00 L 1099.00 982.00 L 1093.00 990.00 L 1093.00 1009.00 L 1099.00 1039.00 L 1099.00 1061.00 L 1093.00 1075.00 L 1079.00 1088.00 L 1057.00 1100.00 L 1049.00 1110.00 L 1055.00 1118.00 L 1057.00 1126.00 L 1055.00 1134.00 L 1043.00 1146.00 L 1021.00 1162.00 L 998.00 1184.00 L 974.00 1212.00 L 953.00 1232.00 L 935.00 1244.00 L 931.00 1259.00 L 941.00 1277.00 L 946.00 1297.00 L 946.00 1319.00 L 952.00 1342.00 L 964.00 1366.00 L 965.00 1370.00 L 955.00 1354.00 L 957.00 1358.00 L 971.00 1382.00 L 970.00 1381.00 L 954.00 1355.00 L 955.00 1357.00 L 973.00 1387.00 L 985.00 1418.00 L 991.00 1450.00 L 993.00 1465.00 L 991.00 1463.00 L 1002.00 1489.00 L 1026.00 1543.00 L 1036.00 1567.00 L 1032.00 1561.00 L 1039.00 1586.00 L 1057.00 1642.00 L 1066.00 1684.00 L 1066.00 1712.00 L 1064.00 1733.00 L 1060.00 1747.00 L 1055.00 1757.00 L 1049.00 1763.00 L 1041.00 1767.00 L 1031.00 1769.00 L 1018.00 1766.00 L 1002.00 1758.00 L 956.00 1723.00 L 880.00 1661.00 L 803.00 1609.00 L 725.00 1567.00 L 652.00 1535.00 L 584.00 1513.00 L 514.00 1499.00 L 442.00 1493.00 L 408.00 1479.00 L 412.00 1457.00 L 409.00 1444.00 L 399.00 1440.00 L 394.00 1434.00 L 394.00 1426.00 L 399.00 1400.00 L 409.00 1356.00 L 415.00 1316.00 L 417.00 1280.00 L 413.00 1265.00 L 403.00 1271.00 L 403.00 1270.00 L 413.00 1262.00 L 412.00 1260.00 L 400.00 1264.00 L 400.00 1262.00 L 412.00 1254.00 L 414.00 1252.00 L 406.00 1256.00 L 406.00 1253.00 L 414.00 1243.00 L 411.00 1242.00 L 397.00 1250.00 L 394.00 1250.00 L 402.00 1242.00 L 402.00 1240.00 L 394.00 1244.00 L 397.00 1242.00 L 411.00 1234.00 L 411.00 1233.00 L 397.00 1239.00 L 398.00 1237.00 L 414.00 1227.00 L 414.00 1224.00 L 398.00 1228.00 L 397.00 1226.00 L 411.00 1218.00 L 411.00 1216.00 L 397.00 1220.00 L 398.00 1216.00 L 414.00 1204.00 L 415.00 1201.00 L 401.00 1207.00 L 400.00 1207.00 L 412.00 1201.00 L 413.00 1199.00 L 403.00 1201.00 L 401.00 1196.00 L 407.00 1184.00 L 406.00 1179.00 L 398.00 1181.00 L 396.00 1181.00 L 400.00 1179.00 L 398.00 1178.00 L 390.00 1178.00 L 386.00 1175.00 L 386.00 1169.00 L 392.00 1162.00 L 404.00 1154.00 L 408.00 1150.00 L 404.00 1150.00 L 407.00 1144.00 L 417.00 1132.00 L 419.00 1105.00 L 413.00 1063.00 L 410.00 1039.00 L 410.00 1033.00 L 411.00 931.00 Z" fill="black" stroke="black" stroke-width="1"/>
</svg>