<?xml version="1.0" encoding="UTF-8"?>
<svg xmlns="http://www.w3.org/2000/svg" viewBox="325.00 249.00 891.00 1525.00">
  <path d="M 348.00 993.00 L 360.00 983.00 L 366.00 969.00 L 366.00 951.00 L 374.00 940.00 L 390.00 936.00 L 395.00 933.00 L 389.00 931.00 L 395.00 924.00 L 413.00 912.00 L 437.00 877.00 L 467.00 819.00 L 482.00 780.00 L 482.00 760.00 L 474.00 719.00 L 458.00 657.00 L 453.00 629.00 L 459.00 635.00 L 459.00 634.00 L 453.00 626.00 L 450.00 589.00 L 450.00 523.00 L 457.00 465.00 L 471.00 415.00 L 484.00 379.00 L 496.00 357.00 L 509.00 339.00 L 523.00 325.00 L 536.00 313.00 L 548.00 303.00 L 574.00 290.00 L 614.00 274.00 L 649.00 264.00 L 679.00 260.00 L 732.00 259.00 L 808.00 261.00 L 863.00 266.00 L 897.00 274.00 L 933.00 288.00 L 971.00 308.00 L 1000.00 327.00 L 1020.00 345.00 L 1029.00 361.00 L 1027.00 375.00 L 1029.00 376.00 L 1035.00 364.00 L 1038.00 363.00 L 1038.00 373.00 L 1040.00 375.00 L 1044.00 369.00 L 1044.00 371.00 L 1040.00 381.00 L 1042.00 383.00 L 1050.00 377.00 L 1054.00 382.00 L 1054.00 398.00 L 1057.00 401.00 L 1063.00 391.00 L 1064.00 393.00 L 1060.00 407.00 L 1063.00 410.00 L 1073.00 402.00 L 1075.00 405.00 L 1069.00 419.00 L 1068.00 422.00 L 1072.00 414.00 L 1076.00 409.00 L 1080.00 407.00 L 1080.00 413.00 L 1076.00 427.00 L 1078.00 429.00 L 1086.00 419.00 L 1087.00 421.00 L 1081.00 435.00 L 1083.00 437.00 L 1093.00 427.00 L 1095.00 430.00 L 1089.00 446.00 L 1091.00 449.00 L 1101.00 439.00 L 1103.00 442.00 L 1097.00 458.00 L 1103.00 493.00 L 1121.00 547.00 L 1129.00 585.00 L 1127.00 607.00 L 1128.00 624.00 L 1132.00 636.00 L 1155.00 671.00 L 1197.00 729.00 L 1201.00 770.00 L 1167.00 794.00 L 1167.00 797.00 L 1201.00 779.00 L 1206.00 778.00 L 1182.00 794.00 L 1181.00 797.00 L 1203.00 787.00 L 1198.00 791.00 L 1166.00 809.00 L 1162.00 812.00 L 1186.00 800.00 L 1186.00 801.00 L 1162.00 815.00 L 1151.00 832.00 L 1153.00 852.00 L 1149.00 873.00 L 1139.00 895.00 L 1131.00 907.00 L 1125.00 909.00 L 1121.00 913.00 L 1119.00 919.00 L 1122.00 930.00 L 1130.00 946.00 L 1132.00 963.00 L 1128.00 981.00 L 1117.00 995.00 L 1099.00 1005.00 L 1079.00 1011.00 L 1057.00 1013.00 L 1038.00 1017.00 L 1022.00 1023.00 L 1022.00 1032.00 L 1038.00 1044.00 L 1047.00 1053.00 L 1049.00 1059.00 L 1048.00 1066.00 L 1044.00 1074.00 L 1021.00 1088.00 L 979.00 1108.00 L 966.00 1127.00 L 982.00 1145.00 L 992.00 1160.00 L 996.00 1172.00 L 983.00 1166.00 L 953.00 1142.00 L 954.00 1144.00 L 986.00 1172.00 L 986.00 1174.00 L 954.00 1150.00 L 956.00 1156.00 L 992.00 1192.00 L 993.00 1195.00 L 959.00 1165.00 L 957.00 1167.00 L 987.00 1201.00 L 984.00 1203.00 L 948.00 1173.00 L 929.00 1160.00 L 927.00 1164.00 L 927.00 1175.00 L 929.00 1193.00 L 940.00 1219.00 L 960.00 1253.00 L 959.00 1254.00 L 937.00 1222.00 L 938.00 1225.00 L 962.00 1263.00 L 965.00 1269.00 L 947.00 1243.00 L 957.00 1265.00 L 995.00 1335.00 L 990.00 1331.00 L 942.00 1253.00 L 944.00 1258.00 L 996.00 1346.00 L 997.00 1349.00 L 947.00 1267.00 L 948.00 1272.00 L 1000.00 1364.00 L 998.00 1362.00 L 942.00 1266.00 L 942.00 1268.00 L 998.00 1368.00 L 1039.00 1449.00 L 1065.00 1511.00 L 1082.00 1567.00 L 1090.00 1617.00 L 1093.00 1640.00 L 1091.00 1636.00 L 1090.00 1662.00 L 1090.00 1718.00 L 1082.00 1751.00 L 1066.00 1761.00 L 1048.00 1764.00 L 1028.00 1760.00 L 1003.00 1742.00 L 973.00 1710.00 L 940.00 1679.00 L 904.00 1649.00 L 861.00 1618.00 L 811.00 1586.00 L 759.00 1559.00 L 705.00 1537.00 L 657.00 1520.00 L 615.00 1508.00 L 563.00 1497.00 L 501.00 1487.00 L 445.00 1483.00 L 395.00 1485.00 L 369.00 1467.00 L 367.00 1429.00 L 369.00 1396.00 L 375.00 1368.00 L 370.00 1354.00 L 354.00 1354.00 L 343.00 1349.00 L 337.00 1339.00 L 340.00 1320.00 L 352.00 1292.00 L 361.00 1262.00 L 367.00 1230.00 L 370.00 1200.00 L 370.00 1172.00 L 367.00 1151.00 L 361.00 1137.00 L 358.00 1119.00 L 358.00 1097.00 L 363.00 1072.00 L 373.00 1044.00 L 369.00 1030.00 L 351.00 1030.00 L 340.00 1027.00 L 336.00 1021.00 L 335.00 1015.00 L 337.00 1009.00 L 339.00 1004.00 L 341.00 1000.00 L 348.00 993.00 Z" fill="black" stroke="black" stroke-width="1"/>
</svg>