<?xml version="1.0" encoding="UTF-8"?>
<svg xmlns="http://www.w3.org/2000/svg" viewBox="178.00 281.00 900.00 1466.00">
  <path d="M 371.00 1027.00 L 365.00 1013.00 L 364.00 999.00 L 368.00 985.00 L 366.00 973.00 L 358.00 963.00 L 357.00 946.00 L 363.00 922.00 L 355.00 901.00 L 333.00 883.00 L 333.00 880.00 L 355.00 892.00 L 352.00 888.00 L 324.00 868.00 L 330.00 828.00 L 370.00 768.00 L 392.00 713.00 L 396.00 663.00 L 394.00 628.00 L 386.00 608.00 L 387.00 606.00 L 397.00 622.00 L 395.00 615.00 L 381.00 585.00 L 381.00 583.00 L 395.00 609.00 L 395.00 608.00 L 381.00 580.00 L 381.00 578.00 L 395.00 602.00 L 394.00 597.00 L 378.00 563.00 L 370.00 538.00 L 370.00 522.00 L 375.00 512.00 L 385.00 508.00 L 404.00 509.00 L 432.00 515.00 L 458.00 514.00 L 482.00 506.00 L 524.00 476.00 L 584.00 424.00 L 628.00 391.00 L 656.00 377.00 L 687.00 353.00 L 721.00 319.00 L 744.00 299.00 L 756.00 293.00 L 773.00 291.00 L 795.00 293.00 L 821.00 311.00 L 851.00 345.00 L 889.00 405.00 L 935.00 491.00 L 970.00 550.00 L 994.00 582.00 L 1016.00 625.00 L 1036.00 679.00 L 1052.00 739.00 L 1064.00 805.00 L 1068.00 853.00 L 1064.00 883.00 L 1047.00 916.00 L 1017.00 952.00 L 966.00 984.00 L 894.00 1012.00 L 858.00 1030.00 L 858.00 1038.00 L 872.00 1057.00 L 900.00 1087.00 L 909.00 1110.00 L 899.00 1126.00 L 877.00 1130.00 L 843.00 1122.00 L 840.00 1124.00 L 868.00 1136.00 L 867.00 1137.00 L 837.00 1127.00 L 825.00 1140.00 L 831.00 1176.00 L 850.00 1231.00 L 882.00 1305.00 L 899.00 1359.00 L 901.00 1393.00 L 899.00 1419.00 L 893.00 1437.00 L 877.00 1457.00 L 851.00 1479.00 L 810.00 1496.00 L 754.00 1508.00 L 724.00 1517.00 L 720.00 1523.00 L 714.00 1525.00 L 706.00 1523.00 L 674.00 1532.00 L 618.00 1552.00 L 546.00 1585.00 L 458.00 1631.00 L 447.00 1556.00 L 513.00 1360.00 L 509.00 1362.00 L 435.00 1562.00 L 435.00 1559.00 L 509.00 1353.00 L 507.00 1354.00 L 429.00 1562.00 L 429.00 1560.00 L 507.00 1348.00 L 504.00 1349.00 L 420.00 1563.00 L 420.00 1561.00 L 504.00 1343.00 L 501.00 1345.00 L 411.00 1567.00 L 411.00 1565.00 L 501.00 1339.00 L 499.00 1340.00 L 405.00 1568.00 L 385.00 1615.00 L 439.00 1481.00 L 433.00 1485.00 L 367.00 1627.00 L 387.00 1577.00 L 493.00 1335.00 L 490.00 1337.00 L 378.00 1583.00 L 351.00 1639.00 L 409.00 1505.00 L 406.00 1506.00 L 342.00 1642.00 L 308.00 1711.00 L 304.00 1713.00 L 333.00 1648.00 L 395.00 1516.00 L 392.00 1518.00 L 324.00 1654.00 L 353.00 1592.00 L 479.00 1332.00 L 476.00 1333.00 L 344.00 1595.00 L 276.00 1727.00 L 272.00 1729.00 L 303.00 1664.00 L 369.00 1532.00 L 367.00 1533.00 L 297.00 1667.00 L 332.00 1599.00 L 472.00 1329.00 L 470.00 1329.00 L 326.00 1599.00 L 251.00 1735.00 L 245.00 1737.00 L 277.00 1673.00 L 347.00 1543.00 L 344.00 1543.00 L 268.00 1673.00 L 264.00 1676.00 L 332.00 1552.00 L 330.00 1552.00 L 258.00 1676.00 L 255.00 1677.00 L 321.00 1555.00 L 318.00 1555.00 L 246.00 1677.00 L 292.00 1599.00 L 456.00 1321.00 L 455.00 1320.00 L 289.00 1596.00 L 241.00 1675.00 L 311.00 1557.00 L 308.00 1556.00 L 232.00 1672.00 L 279.00 1592.00 L 449.00 1316.00 L 447.00 1313.00 L 273.00 1583.00 L 219.00 1666.00 L 285.00 1562.00 L 284.00 1561.00 L 216.00 1663.00 L 212.00 1665.00 L 272.00 1567.00 L 270.00 1562.00 L 206.00 1650.00 L 201.00 1653.00 L 255.00 1571.00 L 255.00 1569.00 L 201.00 1647.00 L 198.00 1649.00 L 246.00 1575.00 L 245.00 1572.00 L 195.00 1640.00 L 190.00 1644.00 L 230.00 1584.00 L 231.00 1580.00 L 193.00 1632.00 L 263.00 1535.00 L 441.00 1289.00 L 441.00 1287.00 L 263.00 1529.00 L 190.00 1628.00 L 222.00 1584.00 L 223.00 1581.00 L 193.00 1619.00 L 188.00 1623.00 L 208.00 1593.00 L 210.00 1588.00 L 194.00 1608.00 L 270.00 1503.00 L 438.00 1273.00 L 491.00 1145.00 L 429.00 1119.00 L 391.00 1099.00 L 377.00 1085.00 L 370.00 1070.00 L 370.00 1054.00 L 371.00 1043.00 L 373.00 1037.00 L 371.00 1027.00 Z" fill="black" stroke="black" stroke-width="1"/>
</svg>