<?xml version="1.0" encoding="UTF-8"?>
<svg xmlns="http://www.w3.org/2000/svg" viewBox="362.00 288.00 730.00 1395.00">
  <path d="M 458.00 969.00 L 458.00 959.00 L 454.00 950.00 L 446.00 942.00 L 443.00 935.00 L 445.00 929.00 L 443.00 921.00 L 437.00 911.00 L 434.00 898.00 L 434.00 882.00 L 421.00 864.00 L 395.00 844.00 L 381.00 828.00 L 379.00 816.00 L 398.00 780.00 L 438.00 720.00 L 460.00 673.00 L 464.00 639.00 L 462.00 615.00 L 454.00 601.00 L 454.00 599.00 L 462.00 609.00 L 462.00 606.00 L 454.00 590.00 L 455.00 588.00 L 465.00 600.00 L 465.00 597.00 L 455.00 579.00 L 455.00 577.00 L 465.00 591.00 L 465.00 589.00 L 455.00 571.00 L 456.00 569.00 L 468.00 583.00 L 469.00 581.00 L 459.00 563.00 L 459.00 560.00 L 469.00 572.00 L 470.00 568.00 L 462.00 548.00 L 463.00 546.00 L 473.00 562.00 L 475.00 559.00 L 469.00 537.00 L 470.00 533.00 L 478.00 547.00 L 479.00 546.00 L 473.00 530.00 L 475.00 510.00 L 485.00 486.00 L 496.00 468.00 L 508.00 456.00 L 518.00 441.00 L 526.00 423.00 L 548.00 399.00 L 584.00 369.00 L 616.00 347.00 L 644.00 333.00 L 679.00 319.00 L 721.00 305.00 L 768.00 298.00 L 820.00 298.00 L 871.00 308.00 L 921.00 328.00 L 967.00 358.00 L 1009.00 398.00 L 1039.00 433.00 L 1057.00 463.00 L 1070.00 493.00 L 1078.00 523.00 L 1082.00 577.00 L 1082.00 655.00 L 1072.00 719.00 L 1052.00 769.00 L 1028.00 818.00 L 1000.00 866.00 L 985.00 898.00 L 983.00 914.00 L 975.00 925.00 L 961.00 931.00 L 960.00 933.00 L 972.00 931.00 L 971.00 932.00 L 957.00 936.00 L 956.00 938.00 L 968.00 938.00 L 967.00 941.00 L 953.00 947.00 L 943.00 957.00 L 937.00 971.00 L 932.00 1000.00 L 928.00 1044.00 L 930.00 1092.00 L 938.00 1144.00 L 946.00 1182.00 L 954.00 1206.00 L 978.00 1251.00 L 1018.00 1317.00 L 1037.00 1349.00 L 1035.00 1347.00 L 1041.00 1362.00 L 1055.00 1394.00 L 1062.00 1414.00 L 1062.00 1422.00 L 1028.00 1425.00 L 960.00 1423.00 L 894.00 1428.00 L 830.00 1440.00 L 763.00 1460.00 L 693.00 1488.00 L 619.00 1526.00 L 541.00 1574.00 L 528.00 1519.00 L 580.00 1361.00 L 578.00 1362.00 L 522.00 1522.00 L 523.00 1518.00 L 581.00 1350.00 L 578.00 1352.00 L 514.00 1524.00 L 515.00 1519.00 L 581.00 1337.00 L 579.00 1338.00 L 509.00 1522.00 L 509.00 1520.00 L 579.00 1332.00 L 577.00 1334.00 L 503.00 1526.00 L 503.00 1524.00 L 577.00 1328.00 L 575.00 1329.00 L 497.00 1527.00 L 498.00 1524.00 L 578.00 1320.00 L 575.00 1322.00 L 489.00 1530.00 L 489.00 1527.00 L 575.00 1313.00 L 572.00 1315.00 L 480.00 1533.00 L 480.00 1532.00 L 572.00 1312.00 L 571.00 1313.00 L 477.00 1535.00 L 453.00 1591.00 L 499.00 1481.00 L 498.00 1482.00 L 450.00 1594.00 L 423.00 1652.00 L 417.00 1656.00 L 437.00 1605.00 L 483.00 1499.00 L 481.00 1501.00 L 431.00 1611.00 L 459.00 1547.00 L 565.00 1309.00 L 562.00 1311.00 L 450.00 1553.00 L 418.00 1621.00 L 466.00 1515.00 L 487.00 1465.00 L 481.00 1471.00 L 513.00 1400.00 L 583.00 1252.00 L 559.00 1302.00 L 441.00 1550.00 L 381.00 1673.00 L 379.00 1671.00 L 438.00 1545.00 L 558.00 1295.00 L 557.00 1293.00 L 435.00 1539.00 L 396.00 1617.00 L 440.00 1527.00 L 439.00 1524.00 L 393.00 1608.00 L 432.00 1528.00 L 556.00 1284.00 L 555.00 1282.00 L 429.00 1522.00 L 429.00 1520.00 L 555.00 1276.00 L 554.00 1272.00 L 426.00 1508.00 L 377.00 1598.00 L 407.00 1542.00 L 407.00 1540.00 L 377.00 1592.00 L 375.00 1593.00 L 401.00 1543.00 L 402.00 1539.00 L 378.00 1581.00 L 377.00 1582.00 L 399.00 1542.00 L 399.00 1540.00 L 377.00 1576.00 L 374.00 1579.00 L 390.00 1549.00 L 390.00 1547.00 L 374.00 1573.00 L 372.00 1575.00 L 384.00 1553.00 L 385.00 1550.00 L 375.00 1566.00 L 432.00 1466.00 L 556.00 1250.00 L 557.00 1247.00 L 435.00 1457.00 L 434.00 1456.00 L 554.00 1244.00 L 613.00 1129.00 L 611.00 1111.00 L 606.00 1092.00 L 598.00 1072.00 L 579.00 1063.00 L 549.00 1065.00 L 520.00 1060.00 L 492.00 1048.00 L 472.00 1036.00 L 460.00 1024.00 L 454.00 1009.00 L 454.00 991.00 L 455.00 980.00 L 457.00 976.00 L 458.00 969.00 Z" fill="black" stroke="black" stroke-width="1"/>
</svg>