<?xml version="1.0" encoding="UTF-8"?>
<svg xmlns="http://www.w3.org/2000/svg" viewBox="306.00 344.00 800.00 1429.00">
  <path d="M 412.00 1023.00 L 416.00 993.00 L 421.00 972.00 L 427.00 960.00 L 432.00 954.00 L 436.00 954.00 L 435.00 952.00 L 429.00 948.00 L 430.00 947.00 L 438.00 949.00 L 437.00 948.00 L 427.00 944.00 L 405.00 911.00 L 371.00 849.00 L 346.00 800.00 L 330.00 764.00 L 320.00 732.00 L 316.00 704.00 L 317.00 669.00 L 323.00 627.00 L 335.00 584.00 L 353.00 540.00 L 367.00 511.00 L 377.00 497.00 L 404.00 469.00 L 448.00 427.00 L 489.00 396.00 L 527.00 376.00 L 562.00 363.00 L 594.00 357.00 L 634.00 354.00 L 682.00 354.00 L 725.00 358.00 L 763.00 366.00 L 812.00 383.00 L 872.00 409.00 L 909.00 427.00 L 923.00 437.00 L 937.00 449.00 L 951.00 463.00 L 957.00 477.00 L 955.00 491.00 L 955.00 499.00 L 957.00 501.00 L 960.00 497.00 L 964.00 487.00 L 967.00 484.00 L 969.00 488.00 L 968.00 495.00 L 964.00 505.00 L 965.00 506.00 L 971.00 498.00 L 972.00 500.00 L 968.00 512.00 L 967.00 516.00 L 969.00 512.00 L 970.00 515.00 L 970.00 525.00 L 973.00 524.00 L 979.00 512.00 L 980.00 513.00 L 976.00 527.00 L 977.00 529.00 L 983.00 519.00 L 984.00 522.00 L 980.00 538.00 L 981.00 540.00 L 987.00 528.00 L 988.00 530.00 L 984.00 546.00 L 984.00 563.00 L 988.00 581.00 L 998.00 606.00 L 1014.00 638.00 L 1021.00 670.00 L 1019.00 702.00 L 1040.00 750.00 L 1084.00 814.00 L 1093.00 856.00 L 1067.00 876.00 L 1068.00 879.00 L 1096.00 865.00 L 1096.00 867.00 L 1068.00 885.00 L 1066.00 889.00 L 1090.00 879.00 L 1090.00 881.00 L 1066.00 895.00 L 1055.00 916.00 L 1057.00 944.00 L 1054.00 961.00 L 1046.00 967.00 L 1043.00 976.00 L 1045.00 988.00 L 1041.00 1002.00 L 1031.00 1018.00 L 1031.00 1038.00 L 1041.00 1062.00 L 1044.00 1083.00 L 1040.00 1101.00 L 1022.00 1119.00 L 990.00 1137.00 L 976.00 1151.00 L 980.00 1161.00 L 973.00 1170.00 L 955.00 1178.00 L 943.00 1186.00 L 937.00 1194.00 L 936.00 1202.00 L 940.00 1210.00 L 938.00 1211.00 L 930.00 1205.00 L 928.00 1204.00 L 932.00 1208.00 L 931.00 1209.00 L 925.00 1207.00 L 926.00 1210.00 L 934.00 1218.00 L 932.00 1219.00 L 920.00 1213.00 L 919.00 1215.00 L 929.00 1225.00 L 927.00 1226.00 L 913.00 1218.00 L 917.00 1226.00 L 939.00 1250.00 L 938.00 1250.00 L 914.00 1226.00 L 915.00 1228.00 L 941.00 1256.00 L 945.00 1262.00 L 927.00 1246.00 L 928.00 1249.00 L 948.00 1271.00 L 944.00 1269.00 L 916.00 1243.00 L 915.00 1245.00 L 941.00 1275.00 L 946.00 1282.00 L 930.00 1266.00 L 914.00 1253.00 L 898.00 1243.00 L 888.00 1239.00 L 884.00 1241.00 L 882.00 1250.00 L 882.00 1266.00 L 890.00 1289.00 L 906.00 1319.00 L 905.00 1320.00 L 887.00 1292.00 L 889.00 1299.00 L 911.00 1341.00 L 910.00 1342.00 L 886.00 1302.00 L 907.00 1342.00 L 973.00 1462.00 L 974.00 1465.00 L 910.00 1351.00 L 911.00 1353.00 L 977.00 1471.00 L 988.00 1491.00 L 944.00 1413.00 L 945.00 1416.00 L 991.00 1500.00 L 1015.00 1544.00 L 1017.00 1548.00 L 1003.00 1523.00 L 973.00 1469.00 L 974.00 1471.00 L 1006.00 1529.00 L 1004.00 1526.00 L 968.00 1462.00 L 969.00 1465.00 L 1007.00 1535.00 L 1003.00 1529.00 L 957.00 1447.00 L 957.00 1449.00 L 1003.00 1535.00 L 987.00 1506.00 L 909.00 1362.00 L 910.00 1365.00 L 990.00 1515.00 L 1034.00 1604.00 L 1042.00 1632.00 L 1047.00 1658.00 L 1049.00 1682.00 L 1049.00 1692.00 L 1047.00 1688.00 L 1046.00 1697.00 L 1046.00 1719.00 L 1041.00 1736.00 L 1031.00 1748.00 L 1020.00 1757.00 L 1008.00 1763.00 L 992.00 1761.00 L 972.00 1751.00 L 938.00 1722.00 L 890.00 1674.00 L 853.00 1640.00 L 827.00 1620.00 L 773.00 1585.00 L 691.00 1535.00 L 625.00 1500.00 L 575.00 1480.00 L 516.00 1462.00 L 448.00 1446.00 L 394.00 1438.00 L 354.00 1438.00 L 331.00 1435.00 L 325.00 1429.00 L 322.00 1412.00 L 322.00 1384.00 L 325.00 1352.00 L 331.00 1316.00 L 351.00 1259.00 L 385.00 1181.00 L 399.00 1134.00 L 393.00 1118.00 L 395.00 1094.00 L 405.00 1062.00 L 410.00 1044.00 L 410.00 1040.00 L 412.00 1023.00 Z" fill="black" stroke="black" stroke-width="1"/>
</svg>