<?xml version="1.0" encoding="UTF-8"?>
<svg xmlns="http://www.w3.org/2000/svg" viewBox="425.00 278.00 885.00 1433.00">
  <path d="M 523.00 979.00 L 509.00 965.00 L 503.00 954.00 L 505.00 946.00 L 500.00 939.00 L 488.00 933.00 L 485.00 923.00 L 491.00 909.00 L 494.00 893.00 L 494.00 875.00 L 485.00 860.00 L 467.00 848.00 L 455.00 836.00 L 449.00 824.00 L 470.00 788.00 L 518.00 728.00 L 545.00 681.00 L 551.00 647.00 L 559.00 620.00 L 569.00 600.00 L 571.00 583.00 L 565.00 569.00 L 566.00 566.00 L 574.00 574.00 L 576.00 571.00 L 572.00 557.00 L 573.00 554.00 L 579.00 562.00 L 580.00 560.00 L 576.00 548.00 L 577.00 545.00 L 583.00 551.00 L 584.00 546.00 L 580.00 530.00 L 581.00 526.00 L 587.00 534.00 L 587.00 532.00 L 581.00 520.00 L 582.00 521.00 L 590.00 535.00 L 591.00 533.00 L 585.00 515.00 L 587.00 512.00 L 597.00 524.00 L 598.00 522.00 L 590.00 506.00 L 587.00 496.00 L 589.00 492.00 L 594.00 497.00 L 602.00 511.00 L 604.00 509.00 L 600.00 491.00 L 621.00 458.00 L 667.00 410.00 L 700.00 381.00 L 720.00 371.00 L 736.00 359.00 L 748.00 345.00 L 761.00 337.00 L 775.00 335.00 L 788.00 330.00 L 800.00 322.00 L 812.00 318.00 L 824.00 318.00 L 838.00 314.00 L 854.00 306.00 L 873.00 302.00 L 895.00 302.00 L 909.00 300.00 L 915.00 296.00 L 931.00 295.00 L 957.00 297.00 L 977.00 295.00 L 991.00 289.00 L 1028.00 288.00 L 1088.00 292.00 L 1129.00 302.00 L 1151.00 318.00 L 1169.00 326.00 L 1183.00 326.00 L 1202.00 338.00 L 1226.00 362.00 L 1247.00 393.00 L 1265.00 431.00 L 1274.00 457.00 L 1274.00 471.00 L 1279.00 487.00 L 1289.00 505.00 L 1296.00 540.00 L 1300.00 592.00 L 1284.00 666.00 L 1248.00 762.00 L 1219.00 823.00 L 1197.00 849.00 L 1182.00 872.00 L 1174.00 892.00 L 1164.00 905.00 L 1152.00 911.00 L 1151.00 913.00 L 1161.00 911.00 L 1160.00 913.00 L 1148.00 919.00 L 1142.00 924.00 L 1142.00 928.00 L 1148.00 935.00 L 1160.00 945.00 L 1166.00 966.00 L 1166.00 998.00 L 1170.00 1030.00 L 1178.00 1062.00 L 1182.00 1085.00 L 1182.00 1099.00 L 1178.00 1113.00 L 1170.00 1127.00 L 1176.00 1151.00 L 1196.00 1185.00 L 1212.00 1235.00 L 1224.00 1301.00 L 1231.00 1354.00 L 1233.00 1394.00 L 1231.00 1417.00 L 1225.00 1423.00 L 1213.00 1424.00 L 1195.00 1420.00 L 1155.00 1418.00 L 1093.00 1418.00 L 1041.00 1422.00 L 999.00 1430.00 L 952.00 1442.00 L 900.00 1458.00 L 827.00 1490.00 L 733.00 1538.00 L 639.00 1596.00 L 545.00 1664.00 L 491.00 1699.00 L 477.00 1701.00 L 466.00 1700.00 L 458.00 1696.00 L 451.00 1691.00 L 445.00 1685.00 L 501.00 1577.00 L 619.00 1367.00 L 618.00 1365.00 L 498.00 1571.00 L 438.00 1671.00 L 438.00 1665.00 L 495.00 1565.00 L 609.00 1371.00 L 608.00 1368.00 L 492.00 1556.00 L 435.00 1646.00 L 437.00 1638.00 L 437.00 1635.00 L 435.00 1637.00 L 489.00 1549.00 L 599.00 1371.00 L 600.00 1367.00 L 492.00 1537.00 L 496.00 1530.00 L 612.00 1346.00 L 612.00 1343.00 L 496.00 1521.00 L 488.00 1532.00 L 588.00 1376.00 L 589.00 1373.00 L 491.00 1523.00 L 445.00 1590.00 L 451.00 1574.00 L 480.00 1526.00 L 532.00 1446.00 L 532.00 1444.00 L 480.00 1520.00 L 489.00 1506.00 L 559.00 1402.00 L 562.00 1397.00 L 498.00 1491.00 L 516.00 1464.00 L 616.00 1316.00 L 617.00 1313.00 L 519.00 1455.00 L 518.00 1453.00 L 614.00 1307.00 L 646.00 1253.00 L 614.00 1291.00 L 602.00 1304.00 L 610.00 1292.00 L 615.00 1279.00 L 617.00 1265.00 L 622.00 1253.00 L 630.00 1243.00 L 630.00 1242.00 L 622.00 1250.00 L 623.00 1248.00 L 633.00 1236.00 L 635.00 1230.00 L 629.00 1230.00 L 628.00 1224.00 L 632.00 1212.00 L 629.00 1211.00 L 619.00 1221.00 L 613.00 1224.00 L 611.00 1220.00 L 614.00 1212.00 L 622.00 1200.00 L 614.00 1183.00 L 590.00 1161.00 L 576.00 1146.00 L 572.00 1138.00 L 575.00 1130.00 L 585.00 1122.00 L 573.00 1106.00 L 539.00 1082.00 L 520.00 1064.00 L 516.00 1052.00 L 519.00 1034.00 L 529.00 1010.00 L 533.00 995.00 L 531.00 989.00 L 523.00 979.00 Z" fill="black" stroke="black" stroke-width="1"/>
</svg>