<?xml version="1.0" encoding="UTF-8"?>
<svg xmlns="http://www.w3.org/2000/svg" viewBox="378.00 323.00 816.00 1335.00">
  <path d="M 490.00 982.00 L 490.00 958.00 L 484.00 940.00 L 472.00 928.00 L 469.00 915.00 L 475.00 901.00 L 474.00 886.00 L 466.00 870.00 L 465.00 856.00 L 471.00 844.00 L 462.00 822.00 L 438.00 790.00 L 431.00 766.00 L 441.00 750.00 L 452.00 740.00 L 464.00 736.00 L 480.00 716.00 L 500.00 680.00 L 516.00 637.00 L 528.00 587.00 L 532.00 555.00 L 528.00 541.00 L 529.00 538.00 L 535.00 546.00 L 536.00 545.00 L 532.00 535.00 L 533.00 533.00 L 539.00 539.00 L 541.00 534.00 L 539.00 518.00 L 541.00 513.00 L 547.00 519.00 L 548.00 516.00 L 544.00 504.00 L 545.00 502.00 L 551.00 510.00 L 552.00 508.00 L 548.00 496.00 L 550.00 493.00 L 558.00 499.00 L 560.00 496.00 L 556.00 484.00 L 558.00 482.00 L 566.00 490.00 L 568.00 487.00 L 564.00 473.00 L 565.00 471.00 L 571.00 481.00 L 574.00 478.00 L 574.00 462.00 L 576.00 457.00 L 580.00 463.00 L 582.00 461.00 L 582.00 451.00 L 589.00 439.00 L 603.00 425.00 L 640.00 401.00 L 700.00 367.00 L 747.00 345.00 L 781.00 335.00 L 830.00 333.00 L 894.00 339.00 L 954.00 354.00 L 1010.00 378.00 L 1056.00 410.00 L 1092.00 450.00 L 1120.00 487.00 L 1140.00 521.00 L 1157.00 559.00 L 1171.00 601.00 L 1180.00 644.00 L 1184.00 688.00 L 1175.00 743.00 L 1153.00 809.00 L 1115.00 873.00 L 1061.00 935.00 L 1028.00 985.00 L 1016.00 1023.00 L 1003.00 1042.00 L 989.00 1042.00 L 987.00 1044.00 L 997.00 1048.00 L 996.00 1049.00 L 984.00 1047.00 L 977.00 1049.00 L 975.00 1055.00 L 977.00 1066.00 L 983.00 1082.00 L 987.00 1115.00 L 989.00 1165.00 L 987.00 1200.00 L 981.00 1220.00 L 979.00 1242.00 L 981.00 1266.00 L 986.00 1288.00 L 994.00 1308.00 L 1001.00 1348.00 L 1007.00 1408.00 L 974.00 1438.00 L 902.00 1438.00 L 858.00 1441.00 L 842.00 1447.00 L 830.00 1448.00 L 822.00 1444.00 L 818.00 1445.00 L 818.00 1451.00 L 790.00 1463.00 L 734.00 1481.00 L 702.00 1489.00 L 694.00 1487.00 L 684.00 1491.00 L 672.00 1501.00 L 664.00 1502.00 L 660.00 1494.00 L 657.00 1495.00 L 655.00 1505.00 L 653.00 1506.00 L 651.00 1498.00 L 648.00 1499.00 L 644.00 1509.00 L 587.00 1548.00 L 477.00 1616.00 L 415.00 1648.00 L 401.00 1644.00 L 392.00 1635.00 L 388.00 1621.00 L 439.00 1518.00 L 545.00 1326.00 L 545.00 1323.00 L 439.00 1509.00 L 429.00 1524.00 L 515.00 1368.00 L 516.00 1362.00 L 432.00 1506.00 L 439.00 1494.00 L 537.00 1326.00 L 537.00 1325.00 L 439.00 1491.00 L 438.00 1492.00 L 534.00 1328.00 L 535.00 1325.00 L 441.00 1483.00 L 440.00 1484.00 L 532.00 1328.00 L 532.00 1325.00 L 440.00 1475.00 L 443.00 1469.00 L 541.00 1307.00 L 542.00 1304.00 L 446.00 1460.00 L 432.00 1481.00 L 500.00 1367.00 L 501.00 1361.00 L 435.00 1463.00 L 403.00 1512.00 L 405.00 1508.00 L 451.00 1435.00 L 541.00 1293.00 L 542.00 1291.00 L 454.00 1429.00 L 437.00 1455.00 L 491.00 1369.00 L 491.00 1367.00 L 437.00 1449.00 L 435.00 1451.00 L 485.00 1373.00 L 489.00 1365.00 L 447.00 1427.00 L 437.00 1441.00 L 459.00 1407.00 L 462.00 1402.00 L 446.00 1426.00 L 475.00 1382.00 L 549.00 1270.00 L 557.00 1257.00 L 499.00 1343.00 L 499.00 1341.00 L 557.00 1251.00 L 586.00 1204.00 L 586.00 1200.00 L 580.00 1199.00 L 568.00 1201.00 L 562.00 1199.00 L 562.00 1193.00 L 549.00 1201.00 L 523.00 1223.00 L 506.00 1232.00 L 498.00 1228.00 L 510.00 1208.00 L 542.00 1172.00 L 552.00 1159.00 L 540.00 1169.00 L 539.00 1166.00 L 549.00 1150.00 L 546.00 1148.00 L 530.00 1160.00 L 530.00 1158.00 L 546.00 1142.00 L 546.00 1139.00 L 530.00 1149.00 L 529.00 1147.00 L 543.00 1133.00 L 546.00 1115.00 L 538.00 1093.00 L 539.00 1076.00 L 549.00 1064.00 L 546.00 1054.00 L 530.00 1046.00 L 514.00 1032.00 L 498.00 1012.00 L 490.00 1000.00 L 490.00 996.00 L 490.00 982.00 Z" fill="black" stroke="black" stroke-width="1"/>
</svg>