<?xml version="1.0" encoding="UTF-8"?>
<svg xmlns="http://www.w3.org/2000/svg" viewBox="324.00 301.00 840.00 1371.00">
  <path d="M 334.00 866.00 L 334.00 822.00 L 395.00 703.00 L 517.00 509.00 L 571.00 394.00 L 557.00 358.00 L 560.00 357.00 L 580.00 391.00 L 582.00 388.00 L 566.00 348.00 L 569.00 348.00 L 591.00 388.00 L 593.00 387.00 L 575.00 345.00 L 578.00 344.00 L 602.00 384.00 L 608.00 384.00 L 596.00 344.00 L 599.00 346.00 L 617.00 390.00 L 619.00 383.00 L 605.00 325.00 L 608.00 319.00 L 628.00 365.00 L 631.00 364.00 L 617.00 316.00 L 620.00 315.00 L 640.00 361.00 L 643.00 362.00 L 629.00 318.00 L 631.00 315.00 L 649.00 353.00 L 659.00 354.00 L 661.00 318.00 L 668.00 318.00 L 680.00 354.00 L 683.00 353.00 L 677.00 315.00 L 679.00 314.00 L 689.00 350.00 L 693.00 353.00 L 691.00 323.00 L 693.00 320.00 L 699.00 344.00 L 701.00 346.00 L 699.00 326.00 L 704.00 329.00 L 716.00 355.00 L 722.00 355.00 L 722.00 329.00 L 743.00 334.00 L 785.00 370.00 L 819.00 374.00 L 845.00 346.00 L 866.00 335.00 L 882.00 341.00 L 902.00 333.00 L 926.00 311.00 L 930.00 354.00 L 914.00 462.00 L 919.00 463.00 L 945.00 357.00 L 946.00 358.00 L 922.00 466.00 L 924.00 465.00 L 952.00 355.00 L 955.00 351.00 L 933.00 453.00 L 939.00 450.00 L 973.00 342.00 L 974.00 346.00 L 942.00 462.00 L 945.00 463.00 L 983.00 349.00 L 986.00 350.00 L 954.00 466.00 L 957.00 472.00 L 995.00 368.00 L 997.00 368.00 L 963.00 472.00 L 965.00 471.00 L 1003.00 365.00 L 1008.00 357.00 L 980.00 447.00 L 985.00 446.00 L 1023.00 354.00 L 1022.00 362.00 L 982.00 470.00 L 979.00 480.00 L 1013.00 392.00 L 1017.00 384.00 L 991.00 456.00 L 997.00 447.00 L 1035.00 357.00 L 1034.00 365.00 L 994.00 471.00 L 997.00 473.00 L 1043.00 371.00 L 1045.00 373.00 L 1003.00 479.00 L 1003.00 486.00 L 1045.00 394.00 L 1049.00 394.00 L 1015.00 486.00 L 1020.00 488.00 L 1064.00 400.00 L 1066.00 402.00 L 1026.00 494.00 L 1025.00 508.00 L 1063.00 444.00 L 1064.00 446.00 L 1028.00 514.00 L 1015.00 555.00 L 1025.00 569.00 L 1046.00 569.00 L 1078.00 555.00 L 1102.00 555.00 L 1118.00 569.00 L 1128.00 588.00 L 1132.00 612.00 L 1122.00 656.00 L 1098.00 720.00 L 1092.00 752.00 L 1104.00 752.00 L 1105.00 758.00 L 1095.00 770.00 L 1096.00 774.00 L 1108.00 770.00 L 1109.00 774.00 L 1099.00 786.00 L 1100.00 790.00 L 1112.00 786.00 L 1110.00 810.00 L 1094.00 862.00 L 1107.00 919.00 L 1149.00 981.00 L 1154.00 1023.00 L 1122.00 1045.00 L 1098.00 1103.00 L 1082.00 1197.00 L 1057.00 1247.00 L 1023.00 1253.00 L 1048.00 1348.00 L 1132.00 1532.00 L 1129.00 1532.00 L 1039.00 1348.00 L 1039.00 1359.00 L 1129.00 1565.00 L 1126.00 1564.00 L 1030.00 1356.00 L 1029.00 1360.00 L 1123.00 1576.00 L 1120.00 1575.00 L 1020.00 1357.00 L 1017.00 1361.00 L 1111.00 1587.00 L 1109.00 1586.00 L 1011.00 1358.00 L 1007.00 1364.00 L 1097.00 1604.00 L 1094.00 1603.00 L 998.00 1361.00 L 995.00 1361.00 L 1085.00 1603.00 L 1103.00 1662.00 L 1049.00 1538.00 L 1042.00 1534.00 L 1082.00 1650.00 L 1060.00 1589.00 L 976.00 1351.00 L 973.00 1348.00 L 1051.00 1580.00 L 1048.00 1579.00 L 964.00 1345.00 L 954.00 1333.00 L 1018.00 1543.00 L 1019.00 1549.00 L 957.00 1351.00 L 954.00 1351.00 L 1010.00 1549.00 L 1007.00 1552.00 L 945.00 1360.00 L 936.00 1352.00 L 980.00 1528.00 L 978.00 1531.00 L 930.00 1361.00 L 922.00 1355.00 L 954.00 1513.00 L 951.00 1507.00 L 913.00 1337.00 L 910.00 1335.00 L 942.00 1501.00 L 939.00 1503.00 L 901.00 1341.00 L 893.00 1336.00 L 915.00 1488.00 L 913.00 1489.00 L 887.00 1339.00 L 885.00 1338.00 L 907.00 1486.00 L 906.00 1489.00 L 882.00 1347.00 L 879.00 1345.00 L 897.00 1483.00 L 896.00 1486.00 L 876.00 1354.00 L 871.00 1351.00 L 881.00 1477.00 L 879.00 1482.00 L 865.00 1366.00 L 863.00 1365.00 L 873.00 1479.00 L 819.00 1515.00 L 701.00 1473.00 L 638.00 1457.00 L 630.00 1467.00 L 591.00 1471.00 L 521.00 1469.00 L 515.00 1392.00 L 573.00 1240.00 L 603.00 1156.00 L 605.00 1140.00 L 594.00 1131.00 L 570.00 1129.00 L 569.00 1117.00 L 591.00 1095.00 L 591.00 1092.00 L 569.00 1108.00 L 567.00 1108.00 L 585.00 1092.00 L 587.00 1089.00 L 573.00 1099.00 L 574.00 1087.00 L 590.00 1053.00 L 535.00 1001.00 L 409.00 931.00 L 343.00 894.00 L 337.00 890.00 L 334.00 866.00 Z" fill="black" stroke="black" stroke-width="1"/>
</svg>