<?xml version="1.0" encoding="UTF-8"?>
<svg xmlns="http://www.w3.org/2000/svg" viewBox="405.00 216.00 950.00 1534.00">
  <path d="M 523.00 952.00 L 509.00 932.00 L 503.00 917.00 L 505.00 907.00 L 510.00 898.00 L 518.00 890.00 L 519.00 883.00 L 513.00 877.00 L 512.00 856.00 L 516.00 820.00 L 500.00 790.00 L 464.00 766.00 L 463.00 763.00 L 497.00 781.00 L 495.00 779.00 L 457.00 757.00 L 456.00 756.00 L 492.00 776.00 L 491.00 773.00 L 453.00 747.00 L 434.00 731.00 L 434.00 725.00 L 452.00 702.00 L 488.00 662.00 L 517.00 634.00 L 539.00 618.00 L 557.00 580.00 L 571.00 520.00 L 575.00 482.00 L 569.00 466.00 L 570.00 464.00 L 578.00 476.00 L 578.00 474.00 L 570.00 458.00 L 571.00 455.00 L 581.00 465.00 L 583.00 464.00 L 577.00 452.00 L 578.00 450.00 L 586.00 458.00 L 587.00 456.00 L 581.00 444.00 L 580.00 441.00 L 584.00 447.00 L 585.00 445.00 L 583.00 435.00 L 586.00 435.00 L 594.00 445.00 L 596.00 443.00 L 592.00 429.00 L 593.00 427.00 L 599.00 437.00 L 602.00 438.00 L 602.00 430.00 L 603.00 428.00 L 605.00 432.00 L 604.00 429.00 L 600.00 419.00 L 602.00 417.00 L 610.00 423.00 L 612.00 420.00 L 608.00 408.00 L 610.00 406.00 L 618.00 414.00 L 620.00 410.00 L 616.00 394.00 L 617.00 392.00 L 623.00 404.00 L 627.00 409.00 L 629.00 407.00 L 629.00 398.00 L 627.00 382.00 L 629.00 380.00 L 635.00 392.00 L 638.00 390.00 L 638.00 374.00 L 665.00 346.00 L 719.00 306.00 L 777.00 275.00 L 839.00 253.00 L 892.00 238.00 L 936.00 230.00 L 993.00 226.00 L 1063.00 226.00 L 1112.00 229.00 L 1140.00 235.00 L 1167.00 244.00 L 1193.00 256.00 L 1218.00 272.00 L 1242.00 292.00 L 1271.00 327.00 L 1305.00 377.00 L 1328.00 427.00 L 1340.00 477.00 L 1345.00 527.00 L 1343.00 577.00 L 1338.00 618.00 L 1330.00 650.00 L 1319.00 687.00 L 1305.00 729.00 L 1281.00 781.00 L 1247.00 843.00 L 1228.00 890.00 L 1224.00 922.00 L 1217.00 941.00 L 1207.00 947.00 L 1207.00 950.00 L 1217.00 950.00 L 1217.00 952.00 L 1207.00 956.00 L 1207.00 964.00 L 1217.00 976.00 L 1223.00 987.00 L 1225.00 997.00 L 1226.00 1024.00 L 1226.00 1068.00 L 1224.00 1106.00 L 1220.00 1138.00 L 1215.00 1160.00 L 1209.00 1172.00 L 1206.00 1187.00 L 1206.00 1205.00 L 1210.00 1223.00 L 1218.00 1241.00 L 1223.00 1264.00 L 1225.00 1292.00 L 1232.00 1323.00 L 1244.00 1357.00 L 1249.00 1384.00 L 1247.00 1404.00 L 1249.00 1425.00 L 1255.00 1447.00 L 1258.00 1467.00 L 1258.00 1485.00 L 1223.00 1493.00 L 1153.00 1491.00 L 1091.00 1493.00 L 1037.00 1499.00 L 985.00 1508.00 L 935.00 1520.00 L 887.00 1534.00 L 841.00 1550.00 L 786.00 1573.00 L 722.00 1603.00 L 690.00 1616.00 L 690.00 1612.00 L 688.00 1613.00 L 684.00 1619.00 L 665.00 1631.00 L 631.00 1649.00 L 590.00 1675.00 L 542.00 1709.00 L 504.00 1730.00 L 476.00 1738.00 L 455.00 1740.00 L 441.00 1736.00 L 429.00 1726.00 L 419.00 1710.00 L 473.00 1600.00 L 591.00 1396.00 L 591.00 1393.00 L 473.00 1591.00 L 471.00 1592.00 L 585.00 1396.00 L 585.00 1391.00 L 471.00 1577.00 L 415.00 1668.00 L 417.00 1664.00 L 476.00 1567.00 L 592.00 1377.00 L 592.00 1375.00 L 476.00 1561.00 L 418.00 1650.00 L 418.00 1642.00 L 472.00 1553.00 L 580.00 1383.00 L 579.00 1384.00 L 469.00 1556.00 L 418.00 1633.00 L 426.00 1615.00 L 483.00 1524.00 L 589.00 1360.00 L 590.00 1357.00 L 486.00 1515.00 L 452.00 1565.00 L 488.00 1507.00 L 494.00 1495.00 L 470.00 1529.00 L 465.00 1535.00 L 479.00 1513.00 L 483.00 1506.00 L 477.00 1514.00 L 512.00 1461.00 L 588.00 1347.00 L 595.00 1334.00 L 533.00 1422.00 L 503.00 1464.00 L 505.00 1460.00 L 536.00 1414.00 L 596.00 1326.00 L 597.00 1323.00 L 539.00 1405.00 L 540.00 1403.00 L 600.00 1317.00 L 603.00 1311.00 L 549.00 1385.00 L 547.00 1382.00 L 597.00 1302.00 L 622.00 1256.00 L 622.00 1244.00 L 615.00 1240.00 L 601.00 1244.00 L 591.00 1237.00 L 585.00 1219.00 L 583.00 1206.00 L 585.00 1198.00 L 582.00 1192.00 L 574.00 1188.00 L 564.00 1177.00 L 552.00 1159.00 L 540.00 1145.00 L 528.00 1135.00 L 522.00 1127.00 L 522.00 1121.00 L 524.00 1117.00 L 528.00 1115.00 L 529.00 1112.00 L 527.00 1108.00 L 531.00 1102.00 L 541.00 1094.00 L 546.00 1088.00 L 546.00 1084.00 L 539.00 1077.00 L 525.00 1067.00 L 515.00 1052.00 L 509.00 1032.00 L 512.00 1010.00 L 524.00 986.00 L 530.00 971.00 L 530.00 965.00 L 523.00 952.00 Z" fill="black" stroke="black" stroke-width="1"/>
</svg>