<?xml version="1.0" encoding="UTF-8"?>
<svg xmlns="http://www.w3.org/2000/svg" viewBox="373.00 205.00 932.00 1520.00">
  <path d="M 580.00 960.00 L 568.00 940.00 L 568.00 931.00 L 580.00 933.00 L 579.00 932.00 L 565.00 928.00 L 565.00 926.00 L 579.00 926.00 L 577.00 924.00 L 559.00 920.00 L 558.00 918.00 L 574.00 918.00 L 574.00 916.00 L 558.00 912.00 L 512.00 846.00 L 436.00 718.00 L 393.00 627.00 L 383.00 573.00 L 384.00 517.00 L 396.00 459.00 L 428.00 397.00 L 480.00 331.00 L 531.00 281.00 L 581.00 247.00 L 634.00 225.00 L 690.00 215.00 L 767.00 220.00 L 865.00 240.00 L 944.00 272.00 L 1004.00 316.00 L 1051.00 360.00 L 1085.00 404.00 L 1100.00 436.00 L 1096.00 456.00 L 1098.00 458.00 L 1106.00 442.00 L 1110.00 460.00 L 1110.00 512.00 L 1117.00 530.00 L 1131.00 514.00 L 1132.00 520.00 L 1120.00 548.00 L 1121.00 551.00 L 1135.00 529.00 L 1133.00 536.00 L 1115.00 572.00 L 1116.00 575.00 L 1136.00 545.00 L 1136.00 548.00 L 1116.00 584.00 L 1117.00 587.00 L 1139.00 557.00 L 1139.00 560.00 L 1117.00 596.00 L 1117.00 598.00 L 1139.00 566.00 L 1139.00 571.00 L 1117.00 613.00 L 1123.00 659.00 L 1157.00 709.00 L 1163.00 748.00 L 1141.00 776.00 L 1135.00 787.00 L 1145.00 781.00 L 1137.00 824.00 L 1111.00 916.00 L 1063.00 995.00 L 993.00 1061.00 L 1049.00 1227.00 L 1231.00 1493.00 L 1228.00 1496.00 L 1040.00 1236.00 L 1040.00 1239.00 L 1228.00 1505.00 L 1292.00 1598.00 L 1232.00 1518.00 L 1233.00 1524.00 L 1295.00 1616.00 L 1291.00 1614.00 L 1221.00 1518.00 L 1220.00 1521.00 L 1288.00 1623.00 L 1285.00 1621.00 L 1211.00 1515.00 L 1211.00 1518.00 L 1285.00 1630.00 L 1283.00 1629.00 L 1205.00 1515.00 L 1204.00 1517.00 L 1280.00 1635.00 L 1224.00 1549.00 L 1036.00 1259.00 L 1032.00 1267.00 L 1212.00 1573.00 L 1211.00 1575.00 L 1029.00 1273.00 L 1026.00 1276.00 L 1202.00 1584.00 L 1241.00 1656.00 L 1143.00 1492.00 L 1139.00 1495.00 L 1229.00 1665.00 L 1227.00 1664.00 L 1133.00 1492.00 L 1132.00 1494.00 L 1224.00 1670.00 L 1219.00 1666.00 L 1117.00 1482.00 L 1111.00 1484.00 L 1201.00 1672.00 L 1198.00 1670.00 L 1102.00 1478.00 L 1100.00 1475.00 L 1192.00 1661.00 L 1191.00 1660.00 L 1097.00 1472.00 L 1095.00 1471.00 L 1185.00 1657.00 L 1155.00 1596.00 L 1005.00 1288.00 L 1002.00 1285.00 L 1146.00 1587.00 L 1170.00 1643.00 L 1074.00 1453.00 L 1067.00 1450.00 L 1149.00 1634.00 L 1184.00 1715.00 L 1172.00 1693.00 L 1128.00 1598.00 L 1052.00 1430.00 L 1050.00 1430.00 L 1122.00 1598.00 L 1100.00 1548.00 L 984.00 1280.00 L 982.00 1279.00 L 1094.00 1545.00 L 1112.00 1591.00 L 1036.00 1417.00 L 1032.00 1415.00 L 1100.00 1585.00 L 1126.00 1658.00 L 1110.00 1634.00 L 1073.00 1547.00 L 1015.00 1397.00 L 1013.00 1395.00 L 1067.00 1541.00 L 1051.00 1500.00 L 965.00 1272.00 L 963.00 1270.00 L 1045.00 1494.00 L 1045.00 1496.00 L 963.00 1276.00 L 958.00 1272.00 L 1030.00 1484.00 L 1029.00 1486.00 L 955.00 1278.00 L 947.00 1272.00 L 1005.00 1468.00 L 1005.00 1471.00 L 947.00 1281.00 L 945.00 1279.00 L 999.00 1465.00 L 999.00 1467.00 L 945.00 1285.00 L 943.00 1284.00 L 993.00 1464.00 L 993.00 1466.00 L 943.00 1290.00 L 942.00 1289.00 L 990.00 1463.00 L 990.00 1466.00 L 942.00 1298.00 L 939.00 1296.00 L 981.00 1460.00 L 981.00 1463.00 L 939.00 1305.00 L 937.00 1302.00 L 975.00 1454.00 L 911.00 1496.00 L 745.00 1428.00 L 605.00 1391.00 L 491.00 1385.00 L 456.00 1321.00 L 500.00 1199.00 L 517.00 1139.00 L 507.00 1141.00 L 516.00 1126.00 L 544.00 1094.00 L 565.00 1054.00 L 579.00 1006.00 L 586.00 979.00 L 586.00 973.00 L 580.00 960.00 Z" fill="black" stroke="black" stroke-width="1"/>
</svg>