<?xml version="1.0" encoding="UTF-8"?>
<svg xmlns="http://www.w3.org/2000/svg" viewBox="321.00 330.00 971.00 1258.00">
  <path d="M 354.00 1011.00 L 362.00 981.00 L 372.00 965.00 L 384.00 963.00 L 385.00 961.00 L 375.00 959.00 L 376.00 958.00 L 388.00 958.00 L 389.00 957.00 L 379.00 955.00 L 378.00 953.00 L 386.00 951.00 L 386.00 941.00 L 378.00 923.00 L 382.00 915.00 L 398.00 917.00 L 399.00 915.00 L 385.00 909.00 L 386.00 908.00 L 402.00 912.00 L 404.00 910.00 L 392.00 902.00 L 392.00 900.00 L 404.00 904.00 L 416.00 895.00 L 428.00 873.00 L 435.00 857.00 L 437.00 847.00 L 434.00 816.00 L 426.00 764.00 L 426.00 707.00 L 434.00 645.00 L 446.00 593.00 L 462.00 551.00 L 489.00 503.00 L 527.00 449.00 L 571.00 408.00 L 621.00 380.00 L 682.00 359.00 L 754.00 345.00 L 811.00 340.00 L 853.00 344.00 L 897.00 355.00 L 943.00 373.00 L 996.00 413.00 L 1056.00 475.00 L 1090.00 520.00 L 1098.00 548.00 L 1102.00 573.00 L 1102.00 595.00 L 1125.00 631.00 L 1171.00 681.00 L 1197.00 712.00 L 1203.00 724.00 L 1191.00 741.00 L 1161.00 763.00 L 1159.00 767.00 L 1185.00 753.00 L 1184.00 756.00 L 1156.00 776.00 L 1155.00 778.00 L 1181.00 762.00 L 1181.00 764.00 L 1155.00 784.00 L 1144.00 804.00 L 1148.00 824.00 L 1146.00 840.00 L 1138.00 852.00 L 1137.00 862.00 L 1143.00 870.00 L 1144.00 885.00 L 1140.00 907.00 L 1142.00 926.00 L 1150.00 942.00 L 1154.00 960.00 L 1154.00 980.00 L 1143.00 1001.00 L 1121.00 1023.00 L 1092.00 1043.00 L 1056.00 1061.00 L 1041.00 1072.00 L 1047.00 1076.00 L 1048.00 1096.00 L 1044.00 1132.00 L 1043.00 1155.00 L 1045.00 1165.00 L 1057.00 1177.00 L 1079.00 1191.00 L 1079.00 1193.00 L 1057.00 1183.00 L 1058.00 1185.00 L 1082.00 1199.00 L 1083.00 1201.00 L 1061.00 1191.00 L 1062.00 1193.00 L 1086.00 1207.00 L 1086.00 1209.00 L 1062.00 1199.00 L 1062.00 1201.00 L 1086.00 1215.00 L 1101.00 1230.00 L 1107.00 1246.00 L 1120.00 1265.00 L 1140.00 1287.00 L 1157.00 1311.00 L 1171.00 1337.00 L 1190.00 1364.00 L 1214.00 1392.00 L 1238.00 1425.00 L 1262.00 1463.00 L 1276.00 1486.00 L 1280.00 1494.00 L 1282.00 1510.00 L 1282.00 1534.00 L 1274.00 1554.00 L 1258.00 1570.00 L 1235.00 1578.00 L 1205.00 1578.00 L 1177.00 1572.00 L 1151.00 1560.00 L 1101.00 1530.00 L 1027.00 1482.00 L 952.00 1448.00 L 876.00 1428.00 L 802.00 1420.00 L 730.00 1424.00 L 674.00 1432.00 L 634.00 1444.00 L 590.00 1454.00 L 542.00 1462.00 L 497.00 1459.00 L 455.00 1445.00 L 427.00 1431.00 L 413.00 1417.00 L 402.00 1400.00 L 394.00 1380.00 L 398.00 1340.00 L 414.00 1280.00 L 398.00 1263.00 L 350.00 1289.00 L 350.00 1286.00 L 398.00 1254.00 L 395.00 1253.00 L 341.00 1283.00 L 342.00 1281.00 L 398.00 1247.00 L 398.00 1244.00 L 342.00 1272.00 L 342.00 1270.00 L 398.00 1238.00 L 399.00 1236.00 L 345.00 1264.00 L 344.00 1262.00 L 396.00 1230.00 L 396.00 1227.00 L 344.00 1253.00 L 331.00 1259.00 L 357.00 1245.00 L 358.00 1242.00 L 334.00 1250.00 L 347.00 1240.00 L 397.00 1212.00 L 397.00 1209.00 L 347.00 1231.00 L 348.00 1229.00 L 400.00 1203.00 L 400.00 1200.00 L 348.00 1220.00 L 339.00 1222.00 L 373.00 1206.00 L 374.00 1204.00 L 342.00 1216.00 L 351.00 1211.00 L 401.00 1189.00 L 402.00 1186.00 L 354.00 1202.00 L 355.00 1200.00 L 405.00 1180.00 L 406.00 1178.00 L 358.00 1194.00 L 351.00 1195.00 L 385.00 1181.00 L 385.00 1179.00 L 351.00 1189.00 L 358.00 1185.00 L 406.00 1167.00 L 407.00 1166.00 L 361.00 1182.00 L 357.00 1182.00 L 395.00 1166.00 L 396.00 1164.00 L 360.00 1176.00 L 343.00 1181.00 L 345.00 1179.00 L 365.00 1171.00 L 403.00 1157.00 L 403.00 1156.00 L 365.00 1168.00 L 367.00 1167.00 L 409.00 1153.00 L 411.00 1150.00 L 373.00 1158.00 L 361.00 1145.00 L 375.00 1111.00 L 374.00 1093.00 L 358.00 1091.00 L 357.00 1089.00 L 371.00 1087.00 L 369.00 1086.00 L 351.00 1086.00 L 350.00 1085.00 L 366.00 1083.00 L 365.00 1081.00 L 347.00 1079.00 L 339.00 1074.00 L 341.00 1066.00 L 346.00 1058.00 L 354.00 1050.00 L 357.00 1044.00 L 355.00 1040.00 L 353.00 1035.00 L 351.00 1029.00 L 354.00 1011.00 Z" fill="black" stroke="black" stroke-width="1"/>
</svg>