<?xml version="1.0" encoding="UTF-8"?>
<svg xmlns="http://www.w3.org/2000/svg" viewBox="456.00 274.00 783.00 1367.00">
  <path d="M 562.00 868.00 L 578.00 848.00 L 577.00 832.00 L 559.00 820.00 L 560.00 817.00 L 580.00 823.00 L 581.00 821.00 L 563.00 811.00 L 563.00 809.00 L 581.00 815.00 L 578.00 807.00 L 554.00 785.00 L 552.00 778.00 L 572.00 786.00 L 573.00 784.00 L 555.00 772.00 L 554.00 769.00 L 570.00 775.00 L 570.00 767.00 L 554.00 745.00 L 555.00 739.00 L 573.00 749.00 L 573.00 745.00 L 555.00 727.00 L 555.00 724.00 L 573.00 736.00 L 574.00 734.00 L 558.00 718.00 L 543.00 662.00 L 529.00 566.00 L 530.00 516.00 L 546.00 512.00 L 590.00 526.00 L 662.00 558.00 L 703.00 550.00 L 713.00 502.00 L 721.00 492.00 L 727.00 520.00 L 727.00 510.00 L 721.00 462.00 L 724.00 464.00 L 736.00 516.00 L 739.00 487.00 L 733.00 377.00 L 736.00 380.00 L 748.00 496.00 L 750.00 494.00 L 742.00 374.00 L 744.00 373.00 L 756.00 491.00 L 762.00 484.00 L 762.00 352.00 L 766.00 349.00 L 774.00 475.00 L 782.00 475.00 L 790.00 349.00 L 793.00 348.00 L 791.00 472.00 L 793.00 471.00 L 799.00 345.00 L 809.00 290.00 L 823.00 306.00 L 833.00 304.00 L 839.00 284.00 L 845.00 303.00 L 851.00 361.00 L 859.00 372.00 L 869.00 336.00 L 871.00 343.00 L 865.00 393.00 L 868.00 393.00 L 880.00 343.00 L 882.00 350.00 L 874.00 414.00 L 877.00 423.00 L 891.00 377.00 L 894.00 382.00 L 886.00 438.00 L 885.00 460.00 L 891.00 448.00 L 893.00 448.00 L 891.00 460.00 L 911.00 458.00 L 953.00 442.00 L 987.00 444.00 L 1013.00 464.00 L 1071.00 545.00 L 1161.00 687.00 L 1212.00 778.00 L 1224.00 818.00 L 1229.00 846.00 L 1227.00 862.00 L 1173.00 906.00 L 1067.00 978.00 L 1017.00 1025.00 L 1023.00 1047.00 L 1020.00 1054.00 L 1008.00 1046.00 L 1009.00 1052.00 L 1023.00 1072.00 L 1014.00 1079.00 L 982.00 1073.00 L 988.00 1162.00 L 1032.00 1346.00 L 999.00 1444.00 L 889.00 1456.00 L 783.00 1490.00 L 681.00 1546.00 L 647.00 1491.00 L 681.00 1325.00 L 679.00 1326.00 L 641.00 1494.00 L 641.00 1490.00 L 679.00 1314.00 L 674.00 1318.00 L 626.00 1502.00 L 625.00 1499.00 L 671.00 1309.00 L 666.00 1313.00 L 610.00 1511.00 L 609.00 1509.00 L 663.00 1307.00 L 661.00 1309.00 L 603.00 1515.00 L 603.00 1513.00 L 661.00 1303.00 L 651.00 1313.00 L 573.00 1543.00 L 571.00 1540.00 L 645.00 1304.00 L 642.00 1307.00 L 562.00 1549.00 L 544.00 1595.00 L 588.00 1445.00 L 576.00 1457.00 L 508.00 1631.00 L 523.00 1583.00 L 621.00 1313.00 L 619.00 1310.00 L 517.00 1574.00 L 514.00 1574.00 L 610.00 1310.00 L 606.00 1305.00 L 502.00 1559.00 L 478.00 1617.00 L 534.00 1479.00 L 531.00 1474.00 L 469.00 1602.00 L 490.00 1544.00 L 594.00 1300.00 L 592.00 1298.00 L 484.00 1538.00 L 482.00 1537.00 L 586.00 1295.00 L 583.00 1287.00 L 473.00 1513.00 L 471.00 1513.00 L 577.00 1287.00 L 576.00 1277.00 L 468.00 1483.00 L 466.00 1482.00 L 570.00 1274.00 L 606.00 1160.00 L 574.00 1140.00 L 558.00 1093.00 L 558.00 1019.00 L 546.00 969.00 L 522.00 943.00 L 519.00 919.00 L 537.00 897.00 L 548.00 884.00 L 552.00 880.00 L 562.00 868.00 Z" fill="black" stroke="black" stroke-width="1"/>
</svg>