<?xml version="1.0" encoding="UTF-8"?>
<svg xmlns="http://www.w3.org/2000/svg" viewBox="352.00 145.00 1007.00 1782.00">
  <path d="M 478.00 1012.00 L 462.00 1008.00 L 464.00 1005.00 L 484.00 1003.00 L 484.00 1001.00 L 464.00 999.00 L 463.00 996.00 L 481.00 992.00 L 481.00 989.00 L 463.00 987.00 L 465.00 986.00 L 487.00 986.00 L 487.00 983.00 L 465.00 977.00 L 455.00 947.00 L 457.00 893.00 L 443.00 825.00 L 413.00 743.00 L 389.00 664.00 L 371.00 588.00 L 362.00 536.00 L 362.00 508.00 L 368.00 465.00 L 380.00 407.00 L 411.00 347.00 L 461.00 285.00 L 506.00 240.00 L 546.00 212.00 L 584.00 190.00 L 620.00 174.00 L 654.00 163.00 L 686.00 157.00 L 728.00 155.00 L 780.00 157.00 L 842.00 169.00 L 914.00 191.00 L 971.00 217.00 L 1013.00 247.00 L 1043.00 275.00 L 1061.00 301.00 L 1087.00 328.00 L 1121.00 356.00 L 1140.00 375.00 L 1144.00 385.00 L 1142.00 401.00 L 1134.00 423.00 L 1135.00 426.00 L 1145.00 410.00 L 1148.00 412.00 L 1144.00 432.00 L 1146.00 436.00 L 1154.00 424.00 L 1155.00 428.00 L 1149.00 448.00 L 1151.00 450.00 L 1161.00 434.00 L 1163.00 436.00 L 1157.00 456.00 L 1160.00 458.00 L 1172.00 442.00 L 1173.00 444.00 L 1163.00 464.00 L 1164.00 466.00 L 1176.00 450.00 L 1178.00 453.00 L 1170.00 475.00 L 1172.00 478.00 L 1184.00 462.00 L 1185.00 465.00 L 1175.00 487.00 L 1176.00 489.00 L 1188.00 471.00 L 1189.00 473.00 L 1179.00 495.00 L 1179.00 498.00 L 1189.00 482.00 L 1190.00 484.00 L 1182.00 504.00 L 1182.00 508.00 L 1190.00 496.00 L 1192.00 499.00 L 1188.00 517.00 L 1194.00 566.00 L 1210.00 646.00 L 1245.00 722.00 L 1299.00 794.00 L 1326.00 835.00 L 1326.00 845.00 L 1308.00 859.00 L 1272.00 877.00 L 1271.00 880.00 L 1305.00 868.00 L 1304.00 870.00 L 1268.00 886.00 L 1249.00 901.00 L 1247.00 915.00 L 1249.00 930.00 L 1255.00 946.00 L 1250.00 959.00 L 1234.00 969.00 L 1231.00 979.00 L 1241.00 989.00 L 1246.00 998.00 L 1246.00 1006.00 L 1238.00 1019.00 L 1222.00 1037.00 L 1210.00 1075.00 L 1202.00 1133.00 L 1170.00 1190.00 L 1114.00 1246.00 L 1117.00 1314.00 L 1179.00 1394.00 L 1178.00 1396.00 L 1114.00 1320.00 L 1115.00 1323.00 L 1181.00 1405.00 L 1203.00 1434.00 L 1181.00 1410.00 L 1182.00 1413.00 L 1206.00 1443.00 L 1192.00 1426.00 L 1140.00 1362.00 L 1141.00 1364.00 L 1195.00 1432.00 L 1193.00 1430.00 L 1135.00 1358.00 L 1141.00 1367.00 L 1211.00 1457.00 L 1208.00 1454.00 L 1132.00 1358.00 L 1141.00 1373.00 L 1235.00 1499.00 L 1230.00 1495.00 L 1126.00 1361.00 L 1134.00 1376.00 L 1254.00 1540.00 L 1267.00 1560.00 L 1173.00 1436.00 L 1175.00 1443.00 L 1273.00 1581.00 L 1328.00 1676.00 L 1340.00 1728.00 L 1347.00 1779.00 L 1349.00 1829.00 L 1348.00 1862.00 L 1344.00 1878.00 L 1335.00 1893.00 L 1321.00 1907.00 L 1306.00 1915.00 L 1290.00 1917.00 L 1272.00 1914.00 L 1252.00 1906.00 L 1192.00 1860.00 L 1092.00 1776.00 L 987.00 1705.00 L 877.00 1647.00 L 762.00 1602.00 L 642.00 1570.00 L 536.00 1556.00 L 444.00 1560.00 L 396.00 1528.00 L 392.00 1460.00 L 408.00 1375.00 L 444.00 1273.00 L 461.00 1206.00 L 459.00 1174.00 L 464.00 1125.00 L 476.00 1059.00 L 483.00 1023.00 L 485.00 1017.00 L 478.00 1012.00 Z" fill="black" stroke="black" stroke-width="1"/>
</svg>