<?xml version="1.0" encoding="UTF-8"?>
<svg xmlns="http://www.w3.org/2000/svg" viewBox="298.00 216.00 1008.00 1604.00">
  <path d="M 508.00 912.00 L 464.00 860.00 L 428.00 830.00 L 400.00 822.00 L 398.00 820.00 L 422.00 824.00 L 418.00 821.00 L 386.00 811.00 L 385.00 809.00 L 415.00 815.00 L 413.00 812.00 L 379.00 800.00 L 348.00 753.00 L 320.00 671.00 L 308.00 594.00 L 312.00 522.00 L 331.00 458.00 L 365.00 402.00 L 404.00 372.00 L 448.00 368.00 L 472.00 352.00 L 476.00 324.00 L 493.00 312.00 L 523.00 316.00 L 548.00 303.00 L 568.00 273.00 L 595.00 250.00 L 629.00 234.00 L 653.00 226.00 L 667.00 226.00 L 682.00 245.00 L 698.00 283.00 L 704.00 282.00 L 700.00 242.00 L 704.00 242.00 L 716.00 282.00 L 722.00 282.00 L 722.00 242.00 L 729.00 240.00 L 743.00 276.00 L 747.00 276.00 L 741.00 240.00 L 743.00 239.00 L 753.00 273.00 L 756.00 274.00 L 752.00 242.00 L 754.00 242.00 L 762.00 274.00 L 764.00 276.00 L 760.00 248.00 L 763.00 247.00 L 773.00 273.00 L 850.00 293.00 L 994.00 307.00 L 1082.00 321.00 L 1114.00 335.00 L 1128.00 354.00 L 1124.00 378.00 L 1127.00 381.00 L 1137.00 363.00 L 1138.00 365.00 L 1130.00 387.00 L 1132.00 389.00 L 1144.00 371.00 L 1146.00 374.00 L 1138.00 398.00 L 1140.00 400.00 L 1152.00 380.00 L 1156.00 386.00 L 1152.00 418.00 L 1158.00 426.00 L 1174.00 410.00 L 1177.00 413.00 L 1167.00 435.00 L 1170.00 437.00 L 1186.00 419.00 L 1188.00 423.00 L 1176.00 449.00 L 1179.00 452.00 L 1197.00 432.00 L 1199.00 434.00 L 1185.00 458.00 L 1186.00 460.00 L 1202.00 440.00 L 1203.00 443.00 L 1189.00 469.00 L 1190.00 474.00 L 1206.00 458.00 L 1210.00 467.00 L 1202.00 501.00 L 1208.00 511.00 L 1228.00 497.00 L 1230.00 501.00 L 1214.00 523.00 L 1217.00 526.00 L 1239.00 510.00 L 1241.00 514.00 L 1223.00 538.00 L 1226.00 543.00 L 1250.00 529.00 L 1252.00 533.00 L 1232.00 555.00 L 1233.00 556.00 L 1255.00 536.00 L 1256.00 539.00 L 1236.00 565.00 L 1236.00 570.00 L 1256.00 554.00 L 1258.00 559.00 L 1242.00 585.00 L 1242.00 591.00 L 1258.00 577.00 L 1258.00 581.00 L 1242.00 603.00 L 1232.00 641.00 L 1228.00 695.00 L 1244.00 758.00 L 1280.00 830.00 L 1280.00 880.00 L 1244.00 908.00 L 1228.00 936.00 L 1232.00 964.00 L 1224.00 995.00 L 1204.00 1029.00 L 1196.00 1068.00 L 1200.00 1112.00 L 1159.00 1152.00 L 1073.00 1188.00 L 1098.00 1339.00 L 1234.00 1605.00 L 1231.00 1606.00 L 1089.00 1342.00 L 1090.00 1345.00 L 1234.00 1615.00 L 1293.00 1727.00 L 1267.00 1681.00 L 1268.00 1686.00 L 1296.00 1742.00 L 1293.00 1739.00 L 1259.00 1677.00 L 1259.00 1680.00 L 1293.00 1748.00 L 1290.00 1745.00 L 1250.00 1671.00 L 1250.00 1674.00 L 1290.00 1754.00 L 1287.00 1751.00 L 1241.00 1665.00 L 1241.00 1669.00 L 1287.00 1763.00 L 1283.00 1760.00 L 1229.00 1660.00 L 1228.00 1663.00 L 1280.00 1769.00 L 1277.00 1766.00 L 1219.00 1654.00 L 1218.00 1656.00 L 1274.00 1772.00 L 1272.00 1771.00 L 1212.00 1653.00 L 1210.00 1656.00 L 1266.00 1780.00 L 1221.00 1686.00 L 1075.00 1374.00 L 1073.00 1380.00 L 1215.00 1704.00 L 1248.00 1788.00 L 1172.00 1632.00 L 1165.00 1630.00 L 1227.00 1782.00 L 1192.00 1701.00 L 1060.00 1387.00 L 1057.00 1384.00 L 1183.00 1692.00 L 1210.00 1766.00 L 1138.00 1606.00 L 1130.00 1598.00 L 1186.00 1742.00 L 1211.00 1810.00 L 1205.00 1802.00 L 1175.00 1728.00 L 1121.00 1588.00 L 1118.00 1585.00 L 1166.00 1719.00 L 1139.00 1650.00 L 1037.00 1378.00 L 1034.00 1376.00 L 1130.00 1644.00 L 1147.00 1701.00 L 1085.00 1547.00 L 1075.00 1537.00 L 1117.00 1671.00 L 1098.00 1618.00 L 1018.00 1378.00 L 1016.00 1376.00 L 1092.00 1612.00 L 1091.00 1615.00 L 1013.00 1385.00 L 1007.00 1380.00 L 1073.00 1600.00 L 1072.00 1604.00 L 1004.00 1392.00 L 996.00 1386.00 L 1048.00 1586.00 L 1048.00 1592.00 L 996.00 1404.00 L 994.00 1402.00 L 1042.00 1586.00 L 1043.00 1590.00 L 997.00 1414.00 L 994.00 1413.00 L 1034.00 1587.00 L 973.00 1632.00 L 811.00 1548.00 L 650.00 1486.00 L 490.00 1446.00 L 425.00 1385.00 L 455.00 1303.00 L 489.00 1244.00 L 527.00 1208.00 L 531.00 1200.00 L 501.00 1220.00 L 502.00 1218.00 L 534.00 1194.00 L 535.00 1192.00 L 505.00 1212.00 L 506.00 1208.00 L 538.00 1180.00 L 562.00 1148.00 L 578.00 1112.00 L 587.00 1066.00 L 589.00 1010.00 L 577.00 973.00 L 551.00 955.00 L 536.00 944.00 L 532.00 940.00 L 508.00 912.00 Z" fill="black" stroke="black" stroke-width="1"/>
</svg>