<?xml version="1.0" encoding="UTF-8"?>
<svg xmlns="http://www.w3.org/2000/svg" viewBox="277.00 297.00 923.00 1518.00">
  <path d="M 411.00 1027.00 L 413.00 1005.00 L 403.00 988.00 L 381.00 976.00 L 367.00 963.00 L 361.00 949.00 L 376.00 917.00 L 412.00 867.00 L 387.00 808.00 L 301.00 740.00 L 304.00 737.00 L 396.00 799.00 L 398.00 797.00 L 310.00 731.00 L 287.00 711.00 L 329.00 737.00 L 332.00 736.00 L 296.00 708.00 L 321.00 725.00 L 407.00 787.00 L 410.00 787.00 L 330.00 725.00 L 330.00 723.00 L 410.00 781.00 L 413.00 780.00 L 339.00 720.00 L 321.00 705.00 L 359.00 735.00 L 382.00 750.00 L 390.00 750.00 L 375.00 734.00 L 337.00 702.00 L 352.00 714.00 L 420.00 770.00 L 423.00 769.00 L 361.00 711.00 L 362.00 708.00 L 426.00 760.00 L 430.00 760.00 L 374.00 708.00 L 374.00 706.00 L 430.00 754.00 L 433.00 753.00 L 383.00 703.00 L 383.00 700.00 L 433.00 744.00 L 435.00 743.00 L 389.00 697.00 L 386.00 692.00 L 426.00 728.00 L 429.00 727.00 L 395.00 689.00 L 398.00 690.00 L 438.00 730.00 L 441.00 729.00 L 407.00 687.00 L 414.00 660.00 L 462.00 648.00 L 533.00 562.00 L 627.00 402.00 L 680.00 317.00 L 692.00 307.00 L 739.00 319.00 L 821.00 353.00 L 914.00 398.00 L 1018.00 454.00 L 1075.00 482.00 L 1085.00 482.00 L 1091.00 486.00 L 1093.00 494.00 L 1098.00 498.00 L 1106.00 498.00 L 1130.00 511.00 L 1170.00 537.00 L 1190.00 557.00 L 1190.00 571.00 L 1156.00 666.00 L 1088.00 842.00 L 1068.00 944.00 L 1096.00 972.00 L 1135.00 995.00 L 1185.00 1013.00 L 1171.00 1025.00 L 1093.00 1031.00 L 1095.00 1034.00 L 1177.00 1034.00 L 1179.00 1035.00 L 1101.00 1037.00 L 1102.00 1039.00 L 1182.00 1041.00 L 1178.00 1042.00 L 1090.00 1042.00 L 1088.00 1045.00 L 1172.00 1051.00 L 1172.00 1054.00 L 1088.00 1054.00 L 1083.00 1056.00 L 1157.00 1060.00 L 1158.00 1063.00 L 1086.00 1065.00 L 1051.00 1071.00 L 1053.00 1081.00 L 1049.00 1087.00 L 1039.00 1089.00 L 1038.00 1091.00 L 1046.00 1093.00 L 1047.00 1094.00 L 1041.00 1094.00 L 1047.00 1126.00 L 1065.00 1190.00 L 1071.00 1228.00 L 1065.00 1240.00 L 1072.00 1273.00 L 1092.00 1327.00 L 1109.00 1387.00 L 1123.00 1453.00 L 1081.00 1485.00 L 983.00 1483.00 L 900.00 1491.00 L 832.00 1509.00 L 761.00 1541.00 L 687.00 1587.00 L 612.00 1652.00 L 536.00 1736.00 L 485.00 1785.00 L 459.00 1799.00 L 440.00 1805.00 L 428.00 1803.00 L 414.00 1795.00 L 398.00 1781.00 L 388.00 1745.00 L 384.00 1687.00 L 386.00 1645.00 L 394.00 1619.00 L 437.00 1540.00 L 515.00 1408.00 L 517.00 1404.00 L 443.00 1528.00 L 444.00 1526.00 L 520.00 1398.00 L 519.00 1399.00 L 441.00 1529.00 L 439.00 1528.00 L 513.00 1396.00 L 527.00 1366.00 L 481.00 1438.00 L 473.00 1450.00 L 503.00 1402.00 L 519.00 1376.00 L 521.00 1372.00 L 516.00 1379.00 L 504.00 1397.00 L 505.00 1395.00 L 519.00 1373.00 L 509.00 1387.00 L 475.00 1437.00 L 478.00 1425.00 L 518.00 1351.00 L 536.00 1311.00 L 532.00 1305.00 L 516.00 1315.00 L 488.00 1341.00 L 484.00 1338.00 L 504.00 1306.00 L 505.00 1300.00 L 487.00 1320.00 L 485.00 1322.00 L 499.00 1306.00 L 500.00 1304.00 L 488.00 1316.00 L 485.00 1313.00 L 491.00 1295.00 L 488.00 1285.00 L 476.00 1283.00 L 474.00 1276.00 L 482.00 1264.00 L 480.00 1262.00 L 468.00 1270.00 L 466.00 1264.00 L 474.00 1244.00 L 459.00 1217.00 L 421.00 1183.00 L 402.00 1155.00 L 402.00 1133.00 L 413.00 1110.00 L 435.00 1086.00 L 441.00 1072.00 L 431.00 1068.00 L 424.00 1061.00 L 420.00 1051.00 L 416.00 1044.00 L 412.00 1040.00 L 411.00 1027.00 Z" fill="black" stroke="black" stroke-width="1"/>
</svg>