<?xml version="1.0" encoding="UTF-8"?>
<svg xmlns="http://www.w3.org/2000/svg" viewBox="456.00 224.00 999.00 1403.00">
  <path d="M 552.00 881.00 L 556.00 863.00 L 543.00 845.00 L 513.00 827.00 L 519.00 781.00 L 561.00 707.00 L 573.00 657.00 L 555.00 631.00 L 555.00 624.00 L 573.00 636.00 L 574.00 633.00 L 558.00 615.00 L 557.00 611.00 L 571.00 621.00 L 572.00 618.00 L 560.00 602.00 L 560.00 599.00 L 572.00 609.00 L 573.00 599.00 L 563.00 569.00 L 565.00 559.00 L 579.00 569.00 L 579.00 566.00 L 565.00 550.00 L 566.00 548.00 L 582.00 560.00 L 583.00 557.00 L 569.00 539.00 L 569.00 537.00 L 583.00 551.00 L 584.00 549.00 L 572.00 531.00 L 573.00 530.00 L 587.00 546.00 L 588.00 543.00 L 576.00 521.00 L 577.00 518.00 L 591.00 534.00 L 593.00 531.00 L 583.00 509.00 L 585.00 505.00 L 599.00 519.00 L 601.00 517.00 L 591.00 499.00 L 592.00 497.00 L 604.00 511.00 L 607.00 508.00 L 601.00 488.00 L 603.00 484.00 L 613.00 496.00 L 617.00 490.00 L 615.00 466.00 L 619.00 460.00 L 629.00 472.00 L 630.00 471.00 L 622.00 457.00 L 623.00 455.00 L 633.00 465.00 L 636.00 462.00 L 632.00 446.00 L 634.00 443.00 L 642.00 453.00 L 643.00 451.00 L 637.00 437.00 L 637.00 435.00 L 643.00 445.00 L 652.00 439.00 L 664.00 417.00 L 726.00 390.00 L 838.00 358.00 L 896.00 323.00 L 900.00 285.00 L 902.00 284.00 L 902.00 320.00 L 906.00 315.00 L 914.00 269.00 L 917.00 269.00 L 915.00 315.00 L 918.00 314.00 L 926.00 266.00 L 929.00 265.00 L 927.00 311.00 L 929.00 310.00 L 935.00 262.00 L 938.00 261.00 L 938.00 307.00 L 943.00 306.00 L 953.00 258.00 L 979.00 234.00 L 1021.00 234.00 L 1101.00 248.00 L 1219.00 276.00 L 1283.00 302.00 L 1293.00 326.00 L 1311.00 340.00 L 1337.00 344.00 L 1362.00 363.00 L 1386.00 397.00 L 1412.00 465.00 L 1440.00 567.00 L 1445.00 646.00 L 1427.00 702.00 L 1358.00 756.00 L 1238.00 808.00 L 1206.00 829.00 L 1262.00 819.00 L 1261.00 821.00 L 1203.00 835.00 L 1200.00 839.00 L 1252.00 833.00 L 1251.00 835.00 L 1197.00 845.00 L 1196.00 847.00 L 1248.00 841.00 L 1247.00 843.00 L 1193.00 853.00 L 1191.00 855.00 L 1241.00 849.00 L 1240.00 851.00 L 1188.00 861.00 L 1183.00 864.00 L 1225.00 860.00 L 1224.00 863.00 L 1180.00 873.00 L 1133.00 897.00 L 1083.00 935.00 L 1065.00 984.00 L 1079.00 1044.00 L 1100.00 1092.00 L 1128.00 1128.00 L 1134.00 1139.00 L 1118.00 1125.00 L 1134.00 1166.00 L 1182.00 1262.00 L 1203.00 1324.00 L 1197.00 1352.00 L 1141.00 1377.00 L 1035.00 1399.00 L 912.00 1442.00 L 772.00 1506.00 L 720.00 1467.00 L 756.00 1325.00 L 752.00 1327.00 L 708.00 1473.00 L 708.00 1470.00 L 752.00 1318.00 L 751.00 1319.00 L 705.00 1473.00 L 705.00 1471.00 L 751.00 1313.00 L 749.00 1314.00 L 699.00 1474.00 L 699.00 1469.00 L 749.00 1299.00 L 745.00 1301.00 L 687.00 1475.00 L 687.00 1472.00 L 745.00 1292.00 L 743.00 1293.00 L 681.00 1475.00 L 681.00 1473.00 L 743.00 1287.00 L 738.00 1290.00 L 666.00 1482.00 L 665.00 1480.00 L 735.00 1284.00 L 731.00 1287.00 L 653.00 1489.00 L 653.00 1486.00 L 731.00 1278.00 L 725.00 1282.00 L 635.00 1498.00 L 634.00 1496.00 L 722.00 1276.00 L 714.00 1281.00 L 610.00 1511.00 L 609.00 1508.00 L 711.00 1272.00 L 702.00 1279.00 L 582.00 1529.00 L 581.00 1527.00 L 699.00 1273.00 L 697.00 1274.00 L 575.00 1530.00 L 541.00 1599.00 L 595.00 1481.00 L 587.00 1487.00 L 517.00 1617.00 L 550.00 1546.00 L 686.00 1274.00 L 684.00 1271.00 L 544.00 1537.00 L 543.00 1534.00 L 681.00 1262.00 L 678.00 1256.00 L 534.00 1516.00 L 533.00 1515.00 L 675.00 1253.00 L 674.00 1247.00 L 530.00 1497.00 L 477.00 1588.00 L 515.00 1520.00 L 515.00 1518.00 L 477.00 1582.00 L 474.00 1584.00 L 506.00 1524.00 L 506.00 1520.00 L 474.00 1572.00 L 470.00 1576.00 L 494.00 1532.00 L 495.00 1528.00 L 473.00 1564.00 L 466.00 1574.00 L 474.00 1558.00 L 544.00 1441.00 L 676.00 1223.00 L 698.00 1097.00 L 610.00 1063.00 L 561.00 1010.00 L 551.00 938.00 L 547.00 899.00 L 549.00 893.00 L 552.00 881.00 Z" fill="black" stroke="black" stroke-width="1"/>
</svg>