<?xml version="1.0" encoding="UTF-8"?>
<svg xmlns="http://www.w3.org/2000/svg" viewBox="386.00 219.00 937.00 1534.00">
  <path d="M 460.00 946.00 L 464.00 922.00 L 450.00 901.00 L 418.00 883.00 L 400.00 868.00 L 396.00 856.00 L 423.00 814.00 L 481.00 742.00 L 510.00 696.00 L 510.00 676.00 L 516.00 649.00 L 528.00 615.00 L 526.00 587.00 L 510.00 565.00 L 510.00 562.00 L 526.00 578.00 L 527.00 575.00 L 513.00 553.00 L 513.00 551.00 L 527.00 569.00 L 528.00 566.00 L 516.00 542.00 L 517.00 539.00 L 531.00 557.00 L 531.00 554.00 L 517.00 530.00 L 518.00 526.00 L 534.00 542.00 L 535.00 539.00 L 521.00 517.00 L 522.00 515.00 L 538.00 533.00 L 539.00 530.00 L 525.00 506.00 L 526.00 503.00 L 542.00 521.00 L 543.00 519.00 L 529.00 497.00 L 526.00 491.00 L 534.00 501.00 L 536.00 499.00 L 532.00 485.00 L 537.00 489.00 L 551.00 511.00 L 553.00 506.00 L 543.00 474.00 L 545.00 469.00 L 559.00 491.00 L 561.00 490.00 L 551.00 466.00 L 553.00 464.00 L 567.00 484.00 L 570.00 481.00 L 562.00 455.00 L 564.00 450.00 L 576.00 466.00 L 580.00 463.00 L 576.00 441.00 L 578.00 422.00 L 586.00 406.00 L 615.00 375.00 L 665.00 329.00 L 714.00 293.00 L 762.00 267.00 L 837.00 247.00 L 939.00 233.00 L 1010.00 229.00 L 1050.00 235.00 L 1095.00 248.00 L 1145.00 268.00 L 1192.00 299.00 L 1236.00 341.00 L 1271.00 393.00 L 1297.00 455.00 L 1311.00 514.00 L 1313.00 570.00 L 1307.00 632.00 L 1293.00 700.00 L 1277.00 757.00 L 1259.00 803.00 L 1243.00 835.00 L 1229.00 853.00 L 1218.00 879.00 L 1210.00 913.00 L 1200.00 935.00 L 1188.00 945.00 L 1188.00 959.00 L 1200.00 977.00 L 1208.00 996.00 L 1212.00 1016.00 L 1218.00 1053.00 L 1226.00 1107.00 L 1230.00 1144.00 L 1230.00 1164.00 L 1227.00 1179.00 L 1221.00 1189.00 L 1221.00 1198.00 L 1227.00 1206.00 L 1228.00 1209.00 L 1224.00 1207.00 L 1224.00 1224.00 L 1228.00 1260.00 L 1239.00 1307.00 L 1257.00 1365.00 L 1266.00 1407.00 L 1266.00 1433.00 L 1213.00 1447.00 L 1107.00 1449.00 L 997.00 1465.00 L 883.00 1495.00 L 785.00 1531.00 L 703.00 1573.00 L 625.00 1626.00 L 551.00 1690.00 L 497.00 1729.00 L 463.00 1743.00 L 438.00 1740.00 L 422.00 1720.00 L 448.00 1647.00 L 516.00 1521.00 L 514.00 1521.00 L 442.00 1647.00 L 441.00 1645.00 L 511.00 1515.00 L 509.00 1512.00 L 435.00 1636.00 L 398.00 1695.00 L 398.00 1689.00 L 435.00 1623.00 L 509.00 1497.00 L 509.00 1495.00 L 435.00 1617.00 L 435.00 1615.00 L 509.00 1489.00 L 512.00 1481.00 L 444.00 1591.00 L 438.00 1599.00 L 494.00 1505.00 L 496.00 1500.00 L 444.00 1584.00 L 424.00 1616.00 L 436.00 1596.00 L 437.00 1594.00 L 427.00 1610.00 L 425.00 1613.00 L 431.00 1603.00 L 432.00 1601.00 L 428.00 1607.00 L 467.00 1543.00 L 549.00 1409.00 L 555.00 1397.00 L 485.00 1507.00 L 482.00 1510.00 L 546.00 1406.00 L 548.00 1400.00 L 488.00 1492.00 L 489.00 1486.00 L 551.00 1382.00 L 581.00 1327.00 L 579.00 1321.00 L 567.00 1314.00 L 545.00 1306.00 L 542.00 1292.00 L 558.00 1272.00 L 556.00 1270.00 L 536.00 1286.00 L 537.00 1281.00 L 559.00 1255.00 L 558.00 1254.00 L 534.00 1278.00 L 533.00 1277.00 L 555.00 1251.00 L 555.00 1249.00 L 533.00 1271.00 L 532.00 1270.00 L 552.00 1246.00 L 559.00 1221.00 L 553.00 1195.00 L 553.00 1175.00 L 559.00 1161.00 L 552.00 1151.00 L 532.00 1145.00 L 517.00 1137.00 L 507.00 1127.00 L 499.00 1111.00 L 493.00 1089.00 L 495.00 1068.00 L 505.00 1048.00 L 501.00 1034.00 L 483.00 1026.00 L 475.00 1012.00 L 477.00 992.00 L 474.00 979.00 L 466.00 973.00 L 461.00 967.00 L 459.00 961.00 L 460.00 946.00 Z" fill="black" stroke="black" stroke-width="1"/>
</svg>