<?xml version="1.0" encoding="UTF-8"?>
<svg xmlns="http://www.w3.org/2000/svg" viewBox="411.00 208.00 1014.00 1541.00">
  <path d="M 512.00 891.00 L 508.00 833.00 L 491.00 785.00 L 461.00 747.00 L 477.00 694.00 L 539.00 626.00 L 572.00 569.00 L 576.00 523.00 L 572.00 487.00 L 560.00 461.00 L 561.00 458.00 L 575.00 478.00 L 576.00 475.00 L 564.00 449.00 L 566.00 446.00 L 582.00 466.00 L 584.00 464.00 L 572.00 440.00 L 573.00 437.00 L 587.00 455.00 L 590.00 453.00 L 582.00 431.00 L 583.00 429.00 L 593.00 447.00 L 595.00 446.00 L 589.00 426.00 L 594.00 420.00 L 610.00 428.00 L 615.00 418.00 L 609.00 390.00 L 611.00 387.00 L 621.00 409.00 L 624.00 406.00 L 620.00 378.00 L 624.00 373.00 L 636.00 391.00 L 639.00 389.00 L 633.00 367.00 L 661.00 345.00 L 723.00 323.00 L 758.00 303.00 L 766.00 285.00 L 772.00 283.00 L 776.00 297.00 L 779.00 296.00 L 781.00 280.00 L 784.00 280.00 L 788.00 296.00 L 790.00 296.00 L 790.00 280.00 L 794.00 278.00 L 802.00 290.00 L 807.00 289.00 L 809.00 275.00 L 811.00 276.00 L 813.00 292.00 L 817.00 292.00 L 823.00 276.00 L 828.00 275.00 L 832.00 289.00 L 842.00 289.00 L 858.00 275.00 L 877.00 271.00 L 899.00 277.00 L 913.00 267.00 L 919.00 241.00 L 922.00 243.00 L 922.00 273.00 L 925.00 270.00 L 931.00 234.00 L 943.00 218.00 L 961.00 222.00 L 977.00 238.00 L 991.00 266.00 L 1012.00 278.00 L 1040.00 274.00 L 1064.00 262.00 L 1084.00 242.00 L 1118.00 244.00 L 1166.00 268.00 L 1199.00 278.00 L 1217.00 274.00 L 1239.00 301.00 L 1265.00 359.00 L 1298.00 399.00 L 1338.00 421.00 L 1370.00 450.00 L 1394.00 486.00 L 1409.00 541.00 L 1415.00 615.00 L 1388.00 670.00 L 1328.00 706.00 L 1325.00 713.00 L 1379.00 691.00 L 1378.00 694.00 L 1322.00 722.00 L 1319.00 727.00 L 1369.00 709.00 L 1369.00 712.00 L 1319.00 736.00 L 1315.00 740.00 L 1357.00 724.00 L 1356.00 727.00 L 1312.00 749.00 L 1278.00 782.00 L 1254.00 826.00 L 1220.00 868.00 L 1176.00 908.00 L 1130.00 936.00 L 1082.00 952.00 L 1063.00 962.00 L 1073.00 966.00 L 1072.00 973.00 L 1060.00 983.00 L 1057.00 1011.00 L 1063.00 1057.00 L 1081.00 1101.00 L 1111.00 1143.00 L 1119.00 1159.00 L 1105.00 1149.00 L 1117.00 1178.00 L 1155.00 1246.00 L 1182.00 1311.00 L 1198.00 1373.00 L 1129.00 1429.00 L 975.00 1479.00 L 821.00 1551.00 L 667.00 1645.00 L 623.00 1594.00 L 689.00 1398.00 L 687.00 1400.00 L 617.00 1600.00 L 617.00 1598.00 L 687.00 1394.00 L 685.00 1396.00 L 611.00 1604.00 L 611.00 1602.00 L 685.00 1390.00 L 680.00 1393.00 L 596.00 1611.00 L 596.00 1608.00 L 680.00 1384.00 L 677.00 1387.00 L 587.00 1617.00 L 587.00 1615.00 L 677.00 1381.00 L 673.00 1384.00 L 575.00 1624.00 L 575.00 1621.00 L 673.00 1375.00 L 670.00 1378.00 L 566.00 1630.00 L 566.00 1628.00 L 670.00 1372.00 L 668.00 1373.00 L 560.00 1631.00 L 560.00 1629.00 L 668.00 1367.00 L 662.00 1373.00 L 542.00 1647.00 L 542.00 1644.00 L 662.00 1364.00 L 659.00 1366.00 L 533.00 1650.00 L 502.00 1715.00 L 566.00 1561.00 L 557.00 1569.00 L 475.00 1739.00 L 505.00 1671.00 L 647.00 1365.00 L 644.00 1366.00 L 496.00 1674.00 L 495.00 1671.00 L 641.00 1357.00 L 637.00 1349.00 L 483.00 1647.00 L 482.00 1645.00 L 634.00 1343.00 L 632.00 1334.00 L 476.00 1618.00 L 427.00 1706.00 L 485.00 1598.00 L 485.00 1594.00 L 427.00 1694.00 L 424.00 1696.00 L 476.00 1600.00 L 475.00 1594.00 L 421.00 1678.00 L 472.00 1585.00 L 628.00 1315.00 L 628.00 1312.00 L 472.00 1576.00 L 471.00 1573.00 L 625.00 1303.00 L 672.00 1143.00 L 612.00 1093.00 L 563.00 1061.00 L 525.00 1047.00 L 508.00 1013.00 L 512.00 959.00 L 514.00 929.00 L 514.00 923.00 L 512.00 891.00 Z" fill="black" stroke="black" stroke-width="1"/>
</svg>