<?xml version="1.0" encoding="UTF-8"?>
<svg xmlns="http://www.w3.org/2000/svg" viewBox="457.00 327.00 743.00 1328.00">
  <path d="M 536.00 959.00 L 532.00 937.00 L 527.00 923.00 L 521.00 917.00 L 519.00 908.00 L 521.00 896.00 L 520.00 887.00 L 516.00 881.00 L 514.00 868.00 L 514.00 848.00 L 505.00 830.00 L 487.00 814.00 L 484.00 809.00 L 496.00 815.00 L 495.00 814.00 L 481.00 806.00 L 480.00 805.00 L 492.00 811.00 L 491.00 810.00 L 477.00 802.00 L 469.00 794.00 L 467.00 786.00 L 487.00 754.00 L 529.00 698.00 L 549.00 661.00 L 547.00 643.00 L 552.00 621.00 L 564.00 595.00 L 566.00 574.00 L 558.00 558.00 L 555.00 551.00 L 557.00 553.00 L 558.00 551.00 L 558.00 545.00 L 562.00 549.00 L 570.00 563.00 L 571.00 562.00 L 565.00 546.00 L 566.00 543.00 L 574.00 553.00 L 576.00 551.00 L 572.00 537.00 L 573.00 534.00 L 579.00 542.00 L 580.00 540.00 L 576.00 528.00 L 576.00 526.00 L 580.00 534.00 L 581.00 532.00 L 579.00 520.00 L 581.00 517.00 L 587.00 523.00 L 588.00 520.00 L 584.00 508.00 L 585.00 506.00 L 591.00 514.00 L 592.00 512.00 L 588.00 500.00 L 589.00 498.00 L 595.00 506.00 L 596.00 504.00 L 592.00 492.00 L 593.00 491.00 L 599.00 501.00 L 601.00 498.00 L 599.00 482.00 L 600.00 478.00 L 604.00 486.00 L 605.00 485.00 L 603.00 475.00 L 605.00 475.00 L 611.00 485.00 L 613.00 483.00 L 611.00 469.00 L 612.00 467.00 L 616.00 477.00 L 617.00 476.00 L 615.00 464.00 L 626.00 444.00 L 650.00 416.00 L 678.00 394.00 L 710.00 378.00 L 744.00 364.00 L 780.00 352.00 L 809.00 346.00 L 831.00 346.00 L 852.00 343.00 L 872.00 337.00 L 906.00 337.00 L 954.00 343.00 L 992.00 351.00 L 1020.00 361.00 L 1050.00 377.00 L 1082.00 399.00 L 1110.00 423.00 L 1134.00 449.00 L 1157.00 487.00 L 1179.00 537.00 L 1190.00 582.00 L 1190.00 622.00 L 1184.00 663.00 L 1172.00 705.00 L 1143.00 761.00 L 1097.00 831.00 L 1073.00 873.00 L 1071.00 887.00 L 1075.00 903.00 L 1085.00 921.00 L 1082.00 932.00 L 1066.00 936.00 L 1068.00 939.00 L 1088.00 941.00 L 1088.00 943.00 L 1068.00 945.00 L 1066.00 947.00 L 1082.00 949.00 L 1083.00 951.00 L 1069.00 953.00 L 1068.00 961.00 L 1080.00 975.00 L 1087.00 986.00 L 1089.00 994.00 L 1090.00 1009.00 L 1090.00 1031.00 L 1094.00 1056.00 L 1102.00 1084.00 L 1106.00 1107.00 L 1106.00 1125.00 L 1104.00 1137.00 L 1100.00 1143.00 L 1100.00 1158.00 L 1104.00 1182.00 L 1110.00 1201.00 L 1118.00 1215.00 L 1127.00 1254.00 L 1137.00 1318.00 L 1117.00 1353.00 L 1067.00 1359.00 L 1009.00 1372.00 L 943.00 1392.00 L 867.00 1427.00 L 781.00 1477.00 L 700.00 1536.00 L 624.00 1604.00 L 581.00 1640.00 L 571.00 1644.00 L 556.00 1645.00 L 536.00 1643.00 L 520.00 1637.00 L 508.00 1627.00 L 499.00 1616.00 L 493.00 1604.00 L 490.00 1577.00 L 490.00 1535.00 L 489.00 1515.00 L 487.00 1517.00 L 488.00 1509.00 L 492.00 1491.00 L 499.00 1469.00 L 509.00 1443.00 L 511.00 1435.00 L 505.00 1445.00 L 514.00 1425.00 L 538.00 1375.00 L 551.00 1342.00 L 553.00 1326.00 L 566.00 1299.00 L 590.00 1261.00 L 590.00 1259.00 L 566.00 1293.00 L 577.00 1272.00 L 623.00 1196.00 L 636.00 1170.00 L 616.00 1194.00 L 615.00 1193.00 L 633.00 1167.00 L 640.00 1152.00 L 636.00 1148.00 L 634.00 1139.00 L 634.00 1125.00 L 631.00 1117.00 L 625.00 1115.00 L 623.00 1113.00 L 625.00 1111.00 L 618.00 1112.00 L 602.00 1116.00 L 600.00 1113.00 L 612.00 1103.00 L 610.00 1101.00 L 594.00 1107.00 L 593.00 1105.00 L 607.00 1095.00 L 611.00 1092.00 L 605.00 1096.00 L 604.00 1092.00 L 608.00 1080.00 L 605.00 1068.00 L 595.00 1056.00 L 595.00 1047.00 L 605.00 1041.00 L 605.00 1039.00 L 595.00 1041.00 L 593.00 1040.00 L 599.00 1036.00 L 593.00 1031.00 L 575.00 1025.00 L 559.00 1012.00 L 545.00 992.00 L 538.00 979.00 L 538.00 973.00 L 536.00 959.00 Z" fill="black" stroke="black" stroke-width="1"/>
</svg>