<?xml version="1.0" encoding="UTF-8"?>
<svg xmlns="http://www.w3.org/2000/svg" viewBox="422.00 159.00 949.00 1600.00">
  <path d="M 506.00 991.00 L 514.00 953.00 L 514.00 928.00 L 506.00 916.00 L 509.00 910.00 L 523.00 910.00 L 523.00 908.00 L 509.00 904.00 L 504.00 883.00 L 508.00 845.00 L 495.00 791.00 L 465.00 721.00 L 444.00 654.00 L 432.00 590.00 L 436.00 514.00 L 456.00 426.00 L 482.00 354.00 L 514.00 298.00 L 549.00 253.00 L 587.00 219.00 L 640.00 192.00 L 708.00 172.00 L 798.00 169.00 L 910.00 183.00 L 1012.00 211.00 L 1104.00 253.00 L 1179.00 312.00 L 1237.00 388.00 L 1261.00 437.00 L 1251.00 459.00 L 1253.00 461.00 L 1267.00 443.00 L 1268.00 447.00 L 1256.00 473.00 L 1258.00 476.00 L 1274.00 456.00 L 1275.00 459.00 L 1261.00 485.00 L 1262.00 488.00 L 1278.00 468.00 L 1279.00 472.00 L 1265.00 500.00 L 1266.00 504.00 L 1282.00 484.00 L 1283.00 487.00 L 1269.00 513.00 L 1270.00 516.00 L 1286.00 496.00 L 1288.00 499.00 L 1276.00 525.00 L 1275.00 531.00 L 1285.00 517.00 L 1285.00 519.00 L 1275.00 537.00 L 1276.00 540.00 L 1288.00 528.00 L 1289.00 531.00 L 1279.00 549.00 L 1280.00 551.00 L 1292.00 537.00 L 1293.00 539.00 L 1283.00 557.00 L 1284.00 560.00 L 1296.00 548.00 L 1296.00 551.00 L 1284.00 569.00 L 1283.00 572.00 L 1293.00 560.00 L 1292.00 591.00 L 1280.00 665.00 L 1296.00 742.00 L 1340.00 822.00 L 1361.00 870.00 L 1359.00 886.00 L 1344.00 904.00 L 1316.00 924.00 L 1303.00 947.00 L 1305.00 973.00 L 1293.00 1004.00 L 1267.00 1040.00 L 1256.00 1083.00 L 1260.00 1133.00 L 1242.00 1170.00 L 1202.00 1194.00 L 1186.00 1211.00 L 1194.00 1221.00 L 1191.00 1239.00 L 1177.00 1265.00 L 1178.00 1293.00 L 1194.00 1323.00 L 1191.00 1328.00 L 1169.00 1308.00 L 1167.00 1311.00 L 1185.00 1337.00 L 1185.00 1340.00 L 1167.00 1320.00 L 1173.00 1342.00 L 1203.00 1406.00 L 1203.00 1415.00 L 1173.00 1369.00 L 1175.00 1375.00 L 1209.00 1433.00 L 1209.00 1435.00 L 1175.00 1381.00 L 1176.00 1384.00 L 1212.00 1444.00 L 1210.00 1442.00 L 1170.00 1378.00 L 1171.00 1381.00 L 1213.00 1451.00 L 1214.00 1457.00 L 1174.00 1399.00 L 1171.00 1399.00 L 1205.00 1457.00 L 1212.00 1470.00 L 1192.00 1438.00 L 1188.00 1434.00 L 1200.00 1458.00 L 1191.00 1444.00 L 1161.00 1392.00 L 1189.00 1457.00 L 1275.00 1639.00 L 1274.00 1646.00 L 1186.00 1478.00 L 1188.00 1484.00 L 1280.00 1664.00 L 1278.00 1662.00 L 1182.00 1478.00 L 1183.00 1486.00 L 1281.00 1686.00 L 1279.00 1685.00 L 1177.00 1483.00 L 1177.00 1486.00 L 1279.00 1694.00 L 1288.00 1717.00 L 1204.00 1555.00 L 1203.00 1560.00 L 1285.00 1732.00 L 1273.00 1707.00 L 1167.00 1485.00 L 1166.00 1487.00 L 1270.00 1713.00 L 1270.00 1716.00 L 1166.00 1496.00 L 1164.00 1498.00 L 1264.00 1722.00 L 1268.00 1735.00 L 1176.00 1537.00 L 1172.00 1536.00 L 1256.00 1732.00 L 1251.00 1722.00 L 1157.00 1506.00 L 1155.00 1505.00 L 1245.00 1719.00 L 1247.00 1727.00 L 1161.00 1529.00 L 1156.00 1525.00 L 1232.00 1715.00 L 1230.00 1713.00 L 1150.00 1519.00 L 1149.00 1518.00 L 1227.00 1710.00 L 1225.00 1707.00 L 1143.00 1509.00 L 1140.00 1507.00 L 1216.00 1701.00 L 1215.00 1701.00 L 1137.00 1507.00 L 1135.00 1505.00 L 1209.00 1695.00 L 1194.00 1749.00 L 1090.00 1667.00 L 997.00 1603.00 L 915.00 1557.00 L 807.00 1513.00 L 673.00 1471.00 L 560.00 1449.00 L 468.00 1447.00 L 437.00 1385.00 L 467.00 1263.00 L 486.00 1156.00 L 494.00 1064.00 L 499.00 1016.00 L 501.00 1012.00 L 506.00 991.00 Z" fill="black" stroke="black" stroke-width="1"/>
</svg>