<?xml version="1.0" encoding="UTF-8"?>
<svg xmlns="http://www.w3.org/2000/svg" viewBox="356.00 319.00 910.00 1418.00">
  <path d="M 411.00 976.00 L 381.00 900.00 L 366.00 814.00 L 366.00 718.00 L 395.00 596.00 L 453.00 448.00 L 504.00 359.00 L 548.00 329.00 L 617.00 329.00 L 711.00 359.00 L 778.00 366.00 L 818.00 350.00 L 840.00 348.00 L 844.00 360.00 L 856.00 362.00 L 876.00 354.00 L 886.00 359.00 L 886.00 377.00 L 888.00 377.00 L 892.00 359.00 L 895.00 360.00 L 897.00 380.00 L 900.00 380.00 L 904.00 360.00 L 906.00 366.00 L 906.00 398.00 L 909.00 400.00 L 915.00 372.00 L 918.00 374.00 L 918.00 406.00 L 920.00 414.00 L 924.00 398.00 L 928.00 398.00 L 932.00 414.00 L 937.00 414.00 L 943.00 398.00 L 946.00 399.00 L 946.00 417.00 L 950.00 418.00 L 958.00 402.00 L 960.00 404.00 L 956.00 424.00 L 958.00 426.00 L 966.00 410.00 L 968.00 412.00 L 964.00 432.00 L 982.00 460.00 L 1022.00 496.00 L 1045.00 530.00 L 1051.00 562.00 L 1058.00 572.00 L 1066.00 560.00 L 1071.00 573.00 L 1073.00 611.00 L 1078.00 625.00 L 1086.00 615.00 L 1086.00 617.00 L 1078.00 631.00 L 1079.00 633.00 L 1089.00 623.00 L 1090.00 628.00 L 1082.00 648.00 L 1083.00 651.00 L 1093.00 637.00 L 1094.00 642.00 L 1086.00 666.00 L 1087.00 673.00 L 1097.00 663.00 L 1097.00 669.00 L 1087.00 691.00 L 1088.00 696.00 L 1100.00 684.00 L 1101.00 701.00 L 1091.00 747.00 L 1103.00 804.00 L 1137.00 872.00 L 1140.00 918.00 L 1112.00 942.00 L 1087.00 999.00 L 1065.00 1089.00 L 1029.00 1146.00 L 979.00 1170.00 L 1040.00 1311.00 L 1212.00 1569.00 L 1209.00 1569.00 L 1031.00 1311.00 L 1030.00 1320.00 L 1206.00 1596.00 L 1204.00 1596.00 L 1024.00 1320.00 L 1023.00 1323.00 L 1201.00 1605.00 L 1256.00 1697.00 L 1188.00 1599.00 L 1185.00 1603.00 L 1247.00 1709.00 L 1245.00 1708.00 L 1179.00 1600.00 L 1178.00 1602.00 L 1242.00 1714.00 L 1239.00 1712.00 L 1169.00 1596.00 L 1168.00 1598.00 L 1236.00 1718.00 L 1234.00 1717.00 L 1162.00 1595.00 L 1161.00 1597.00 L 1231.00 1723.00 L 1180.00 1635.00 L 1008.00 1333.00 L 1007.00 1336.00 L 1177.00 1644.00 L 1219.00 1727.00 L 1133.00 1585.00 L 1124.00 1579.00 L 1192.00 1709.00 L 1191.00 1708.00 L 1121.00 1576.00 L 1118.00 1574.00 L 1182.00 1702.00 L 1180.00 1701.00 L 1112.00 1571.00 L 1109.00 1569.00 L 1171.00 1695.00 L 1129.00 1613.00 L 983.00 1323.00 L 981.00 1322.00 L 1123.00 1610.00 L 1157.00 1686.00 L 1083.00 1550.00 L 1073.00 1543.00 L 1127.00 1665.00 L 1124.00 1663.00 L 1064.00 1537.00 L 1061.00 1535.00 L 1115.00 1657.00 L 1113.00 1655.00 L 1055.00 1529.00 L 1052.00 1527.00 L 1104.00 1649.00 L 1072.00 1577.00 L 956.00 1311.00 L 953.00 1309.00 L 1063.00 1571.00 L 1087.00 1635.00 L 1025.00 1501.00 L 1018.00 1497.00 L 1066.00 1623.00 L 1041.00 1561.00 L 943.00 1311.00 L 940.00 1309.00 L 1032.00 1555.00 L 1049.00 1609.00 L 991.00 1471.00 L 984.00 1467.00 L 1028.00 1597.00 L 1010.00 1546.00 L 930.00 1314.00 L 927.00 1312.00 L 1001.00 1540.00 L 1001.00 1543.00 L 927.00 1321.00 L 924.00 1320.00 L 992.00 1540.00 L 991.00 1542.00 L 921.00 1326.00 L 914.00 1322.00 L 970.00 1530.00 L 970.00 1532.00 L 914.00 1328.00 L 912.00 1326.00 L 964.00 1526.00 L 964.00 1528.00 L 912.00 1332.00 L 910.00 1331.00 L 958.00 1525.00 L 958.00 1527.00 L 910.00 1337.00 L 908.00 1336.00 L 952.00 1524.00 L 952.00 1528.00 L 908.00 1348.00 L 905.00 1346.00 L 943.00 1522.00 L 943.00 1525.00 L 905.00 1355.00 L 902.00 1354.00 L 934.00 1522.00 L 886.00 1583.00 L 758.00 1537.00 L 639.00 1508.00 L 529.00 1496.00 L 502.00 1398.00 L 558.00 1214.00 L 584.00 1111.00 L 580.00 1089.00 L 564.00 1078.00 L 536.00 1078.00 L 536.00 1075.00 L 564.00 1069.00 L 558.00 1068.00 L 518.00 1072.00 L 517.00 1070.00 L 555.00 1062.00 L 551.00 1060.00 L 505.00 1064.00 L 502.00 1062.00 L 542.00 1054.00 L 539.00 1052.00 L 493.00 1056.00 L 495.00 1055.00 L 545.00 1049.00 L 543.00 1047.00 L 489.00 1049.00 L 455.00 1044.00 L 441.00 1032.00 L 432.00 1023.00 L 428.00 1017.00 L 411.00 976.00 Z" fill="black" stroke="black" stroke-width="1"/>
</svg>