<?xml version="1.0" encoding="UTF-8"?>
<svg xmlns="http://www.w3.org/2000/svg" viewBox="366.00 139.00 1016.00 1696.00">
  <path d="M 550.00 930.00 L 542.00 866.00 L 522.00 820.00 L 490.00 792.00 L 495.00 743.00 L 537.00 673.00 L 556.00 623.00 L 552.00 593.00 L 540.00 561.00 L 520.00 527.00 L 520.00 524.00 L 540.00 552.00 L 539.00 550.00 L 517.00 518.00 L 517.00 517.00 L 539.00 547.00 L 538.00 544.00 L 514.00 508.00 L 513.00 505.00 L 535.00 535.00 L 536.00 532.00 L 516.00 496.00 L 516.00 491.00 L 536.00 517.00 L 537.00 513.00 L 519.00 479.00 L 520.00 476.00 L 540.00 504.00 L 542.00 501.00 L 526.00 467.00 L 526.00 462.00 L 542.00 486.00 L 543.00 485.00 L 529.00 459.00 L 530.00 456.00 L 546.00 476.00 L 548.00 466.00 L 536.00 426.00 L 538.00 419.00 L 554.00 445.00 L 554.00 442.00 L 538.00 410.00 L 538.00 407.00 L 554.00 433.00 L 556.00 430.00 L 544.00 398.00 L 571.00 346.00 L 637.00 274.00 L 716.00 218.00 L 808.00 178.00 L 897.00 155.00 L 983.00 149.00 L 1050.00 153.00 L 1098.00 167.00 L 1165.00 207.00 L 1251.00 273.00 L 1314.00 348.00 L 1354.00 432.00 L 1372.00 517.00 L 1368.00 603.00 L 1351.00 674.00 L 1321.00 730.00 L 1281.00 778.00 L 1231.00 818.00 L 1198.00 865.00 L 1182.00 919.00 L 1157.00 950.00 L 1123.00 958.00 L 1123.00 962.00 L 1157.00 962.00 L 1156.00 965.00 L 1120.00 971.00 L 1120.00 975.00 L 1156.00 977.00 L 1155.00 979.00 L 1117.00 981.00 L 1117.00 984.00 L 1155.00 988.00 L 1155.00 991.00 L 1117.00 993.00 L 1117.00 996.00 L 1155.00 1000.00 L 1162.00 1003.00 L 1138.00 1005.00 L 1138.00 1008.00 L 1162.00 1012.00 L 1154.00 1012.00 L 1114.00 1008.00 L 1113.00 1011.00 L 1151.00 1021.00 L 1151.00 1025.00 L 1113.00 1023.00 L 1094.00 1026.00 L 1094.00 1034.00 L 1105.00 1069.00 L 1127.00 1131.00 L 1134.00 1161.00 L 1126.00 1159.00 L 1129.00 1165.00 L 1143.00 1179.00 L 1161.00 1215.00 L 1183.00 1273.00 L 1203.00 1340.00 L 1221.00 1416.00 L 1171.00 1458.00 L 1053.00 1466.00 L 949.00 1489.00 L 859.00 1527.00 L 764.00 1579.00 L 664.00 1645.00 L 656.00 1543.00 L 740.00 1273.00 L 737.00 1276.00 L 647.00 1552.00 L 593.00 1698.00 L 575.00 1714.00 L 606.00 1607.00 L 686.00 1377.00 L 682.00 1380.00 L 594.00 1616.00 L 605.00 1586.00 L 715.00 1290.00 L 712.00 1292.00 L 596.00 1592.00 L 535.00 1745.00 L 529.00 1751.00 L 577.00 1624.00 L 679.00 1364.00 L 676.00 1367.00 L 568.00 1633.00 L 550.00 1675.00 L 622.00 1493.00 L 620.00 1495.00 L 544.00 1681.00 L 542.00 1683.00 L 614.00 1501.00 L 609.00 1505.00 L 527.00 1695.00 L 554.00 1630.00 L 690.00 1310.00 L 687.00 1313.00 L 545.00 1639.00 L 514.00 1708.00 L 594.00 1520.00 L 592.00 1522.00 L 508.00 1714.00 L 460.00 1815.00 L 448.00 1825.00 L 487.00 1731.00 L 577.00 1533.00 L 576.00 1534.00 L 484.00 1734.00 L 516.00 1664.00 L 672.00 1324.00 L 668.00 1328.00 L 504.00 1676.00 L 505.00 1672.00 L 671.00 1316.00 L 668.00 1316.00 L 496.00 1672.00 L 457.00 1752.00 L 551.00 1556.00 L 548.00 1553.00 L 448.00 1743.00 L 485.00 1664.00 L 659.00 1316.00 L 656.00 1313.00 L 476.00 1655.00 L 430.00 1741.00 L 518.00 1571.00 L 514.00 1566.00 L 418.00 1726.00 L 461.00 1641.00 L 643.00 1311.00 L 641.00 1308.00 L 455.00 1632.00 L 453.00 1635.00 L 635.00 1317.00 L 628.00 1320.00 L 432.00 1644.00 L 430.00 1645.00 L 622.00 1323.00 L 626.00 1308.00 L 442.00 1600.00 L 377.00 1702.00 L 431.00 1614.00 L 432.00 1610.00 L 380.00 1690.00 L 378.00 1691.00 L 426.00 1613.00 L 427.00 1610.00 L 381.00 1682.00 L 378.00 1685.00 L 418.00 1619.00 L 418.00 1616.00 L 378.00 1676.00 L 376.00 1678.00 L 412.00 1622.00 L 413.00 1620.00 L 379.00 1672.00 L 376.00 1674.00 L 404.00 1626.00 L 407.00 1618.00 L 385.00 1650.00 L 381.00 1655.00 L 395.00 1633.00 L 397.00 1629.00 L 387.00 1643.00 L 462.00 1527.00 L 622.00 1281.00 L 677.00 1140.00 L 627.00 1104.00 L 590.00 1083.00 L 566.00 1077.00 L 550.00 1067.00 L 542.00 1053.00 L 542.00 1028.00 L 550.00 992.00 L 554.00 971.00 L 554.00 965.00 L 550.00 930.00 Z" fill="black" stroke="black" stroke-width="1"/>
</svg>