<?xml version="1.0" encoding="UTF-8"?>
<svg xmlns="http://www.w3.org/2000/svg" viewBox="301.00 275.00 894.00 1432.00">
  <path d="M 436.00 950.00 L 424.00 918.00 L 420.00 878.00 L 424.00 830.00 L 413.00 799.00 L 387.00 785.00 L 381.00 781.00 L 395.00 787.00 L 392.00 783.00 L 372.00 769.00 L 362.00 757.00 L 362.00 747.00 L 392.00 712.00 L 452.00 652.00 L 482.00 612.00 L 482.00 592.00 L 475.00 572.00 L 461.00 552.00 L 461.00 547.00 L 475.00 557.00 L 476.00 550.00 L 464.00 526.00 L 465.00 523.00 L 479.00 541.00 L 478.00 538.00 L 462.00 514.00 L 463.00 511.00 L 481.00 529.00 L 483.00 524.00 L 469.00 496.00 L 470.00 493.00 L 486.00 515.00 L 487.00 514.00 L 473.00 490.00 L 475.00 487.00 L 493.00 505.00 L 497.00 502.00 L 487.00 478.00 L 489.00 475.00 L 503.00 493.00 L 505.00 490.00 L 495.00 466.00 L 496.00 464.00 L 508.00 484.00 L 509.00 482.00 L 499.00 458.00 L 501.00 455.00 L 515.00 473.00 L 517.00 468.00 L 507.00 440.00 L 508.00 437.00 L 520.00 459.00 L 521.00 457.00 L 511.00 431.00 L 513.00 428.00 L 527.00 448.00 L 530.00 444.00 L 522.00 416.00 L 523.00 413.00 L 533.00 435.00 L 535.00 434.00 L 529.00 410.00 L 530.00 407.00 L 538.00 425.00 L 541.00 424.00 L 539.00 404.00 L 547.00 392.00 L 565.00 388.00 L 579.00 379.00 L 589.00 365.00 L 625.00 342.00 L 687.00 310.00 L 747.00 291.00 L 805.00 285.00 L 869.00 289.00 L 939.00 303.00 L 1016.00 341.00 L 1100.00 403.00 L 1149.00 449.00 L 1163.00 479.00 L 1175.00 533.00 L 1185.00 611.00 L 1183.00 699.00 L 1169.00 797.00 L 1164.00 889.00 L 1168.00 975.00 L 1148.00 1021.00 L 1104.00 1027.00 L 1103.00 1034.00 L 1145.00 1042.00 L 1145.00 1043.00 L 1103.00 1037.00 L 1102.00 1040.00 L 1142.00 1052.00 L 1142.00 1054.00 L 1102.00 1046.00 L 1102.00 1048.00 L 1142.00 1060.00 L 1142.00 1062.00 L 1102.00 1054.00 L 1102.00 1059.00 L 1142.00 1077.00 L 1142.00 1082.00 L 1102.00 1074.00 L 1103.00 1081.00 L 1145.00 1103.00 L 1146.00 1107.00 L 1106.00 1093.00 L 1105.00 1096.00 L 1143.00 1116.00 L 1145.00 1121.00 L 1111.00 1111.00 L 1112.00 1114.00 L 1148.00 1130.00 L 1148.00 1132.00 L 1112.00 1120.00 L 1111.00 1123.00 L 1145.00 1141.00 L 1146.00 1144.00 L 1114.00 1132.00 L 1115.00 1134.00 L 1149.00 1150.00 L 1149.00 1153.00 L 1115.00 1143.00 L 1117.00 1150.00 L 1155.00 1174.00 L 1154.00 1178.00 L 1114.00 1162.00 L 1114.00 1167.00 L 1154.00 1193.00 L 1154.00 1195.00 L 1114.00 1173.00 L 1114.00 1176.00 L 1154.00 1204.00 L 1154.00 1207.00 L 1114.00 1185.00 L 1114.00 1188.00 L 1154.00 1216.00 L 1155.00 1218.00 L 1117.00 1194.00 L 1115.00 1195.00 L 1149.00 1221.00 L 1151.00 1226.00 L 1121.00 1210.00 L 1117.00 1231.00 L 1139.00 1289.00 L 1151.00 1347.00 L 1153.00 1405.00 L 1106.00 1433.00 L 1010.00 1431.00 L 922.00 1438.00 L 842.00 1454.00 L 753.00 1482.00 L 655.00 1522.00 L 558.00 1577.00 L 462.00 1647.00 L 395.00 1687.00 L 357.00 1697.00 L 330.00 1684.00 L 314.00 1648.00 L 311.00 1604.00 L 321.00 1552.00 L 337.00 1504.00 L 359.00 1460.00 L 390.00 1414.00 L 430.00 1366.00 L 428.00 1367.00 L 384.00 1417.00 L 383.00 1416.00 L 425.00 1364.00 L 430.00 1355.00 L 398.00 1389.00 L 398.00 1388.00 L 430.00 1352.00 L 431.00 1349.00 L 401.00 1379.00 L 402.00 1376.00 L 434.00 1340.00 L 435.00 1338.00 L 405.00 1370.00 L 417.00 1352.00 L 471.00 1284.00 L 491.00 1257.00 L 477.00 1271.00 L 476.00 1259.00 L 488.00 1221.00 L 478.00 1164.00 L 446.00 1088.00 L 432.00 1032.00 L 436.00 996.00 L 439.00 975.00 L 441.00 969.00 L 436.00 950.00 Z" fill="black" stroke="black" stroke-width="1"/>
</svg>