<?xml version="1.0" encoding="UTF-8"?>
<svg xmlns="http://www.w3.org/2000/svg" viewBox="326.00 90.00 1023.00 1800.00">
  <path d="M 472.00 884.00 L 476.00 856.00 L 484.00 836.00 L 496.00 824.00 L 495.00 814.00 L 481.00 806.00 L 481.00 803.00 L 495.00 805.00 L 494.00 802.00 L 478.00 794.00 L 461.00 759.00 L 443.00 697.00 L 432.00 618.00 L 428.00 522.00 L 437.00 430.00 L 459.00 342.00 L 474.00 288.00 L 482.00 268.00 L 489.00 261.00 L 495.00 267.00 L 496.00 265.00 L 492.00 255.00 L 494.00 254.00 L 502.00 262.00 L 505.00 261.00 L 503.00 251.00 L 513.00 228.00 L 535.00 192.00 L 553.00 176.00 L 567.00 180.00 L 573.00 176.00 L 571.00 164.00 L 574.00 165.00 L 582.00 179.00 L 585.00 178.00 L 583.00 162.00 L 588.00 162.00 L 600.00 178.00 L 603.00 175.00 L 597.00 153.00 L 600.00 150.00 L 612.00 166.00 L 617.00 167.00 L 615.00 153.00 L 618.00 158.00 L 626.00 182.00 L 626.00 179.00 L 618.00 149.00 L 620.00 147.00 L 632.00 173.00 L 635.00 172.00 L 629.00 144.00 L 631.00 146.00 L 641.00 178.00 L 644.00 176.00 L 640.00 140.00 L 644.00 133.00 L 656.00 155.00 L 659.00 153.00 L 653.00 127.00 L 656.00 125.00 L 668.00 147.00 L 671.00 146.00 L 665.00 122.00 L 666.00 122.00 L 674.00 146.00 L 677.00 145.00 L 675.00 119.00 L 678.00 115.00 L 686.00 133.00 L 689.00 133.00 L 687.00 115.00 L 689.00 112.00 L 695.00 124.00 L 699.00 124.00 L 701.00 112.00 L 719.00 104.00 L 753.00 100.00 L 781.00 103.00 L 803.00 113.00 L 838.00 119.00 L 886.00 121.00 L 946.00 144.00 L 1018.00 188.00 L 1069.00 224.00 L 1099.00 252.00 L 1119.00 277.00 L 1129.00 299.00 L 1136.00 306.00 L 1140.00 298.00 L 1142.00 303.00 L 1142.00 321.00 L 1147.00 325.00 L 1157.00 315.00 L 1160.00 322.00 L 1156.00 346.00 L 1160.00 350.00 L 1172.00 334.00 L 1173.00 337.00 L 1163.00 359.00 L 1165.00 362.00 L 1179.00 346.00 L 1180.00 349.00 L 1168.00 371.00 L 1170.00 374.00 L 1186.00 358.00 L 1188.00 361.00 L 1176.00 383.00 L 1177.00 386.00 L 1191.00 370.00 L 1192.00 373.00 L 1180.00 395.00 L 1181.00 399.00 L 1195.00 385.00 L 1196.00 389.00 L 1184.00 411.00 L 1186.00 443.00 L 1202.00 485.00 L 1210.00 519.00 L 1210.00 545.00 L 1243.00 604.00 L 1309.00 696.00 L 1339.00 749.00 L 1333.00 763.00 L 1310.00 777.00 L 1270.00 791.00 L 1267.00 794.00 L 1301.00 786.00 L 1302.00 789.00 L 1270.00 803.00 L 1252.00 830.00 L 1248.00 870.00 L 1251.00 897.00 L 1261.00 911.00 L 1260.00 932.00 L 1248.00 960.00 L 1245.00 993.00 L 1251.00 1031.00 L 1248.00 1059.00 L 1236.00 1077.00 L 1216.00 1093.00 L 1188.00 1107.00 L 1175.00 1122.00 L 1177.00 1138.00 L 1169.00 1147.00 L 1151.00 1149.00 L 1142.00 1157.00 L 1142.00 1171.00 L 1136.00 1181.00 L 1124.00 1187.00 L 1127.00 1206.00 L 1145.00 1238.00 L 1144.00 1243.00 L 1124.00 1221.00 L 1123.00 1224.00 L 1141.00 1252.00 L 1138.00 1254.00 L 1114.00 1230.00 L 1121.00 1248.00 L 1159.00 1308.00 L 1165.00 1321.00 L 1139.00 1287.00 L 1134.00 1288.00 L 1150.00 1324.00 L 1143.00 1326.00 L 1113.00 1294.00 L 1095.00 1277.00 L 1089.00 1275.00 L 1086.00 1280.00 L 1086.00 1292.00 L 1078.00 1291.00 L 1062.00 1277.00 L 1081.00 1323.00 L 1135.00 1429.00 L 1160.00 1479.00 L 1156.00 1473.00 L 1157.00 1476.00 L 1163.00 1488.00 L 1147.00 1459.00 L 1109.00 1389.00 L 1110.00 1393.00 L 1150.00 1471.00 L 1147.00 1468.00 L 1101.00 1384.00 L 1101.00 1387.00 L 1147.00 1477.00 L 1141.00 1466.00 L 1083.00 1354.00 L 1095.00 1389.00 L 1177.00 1571.00 L 1175.00 1573.00 L 1089.00 1395.00 L 1090.00 1399.00 L 1178.00 1585.00 L 1224.00 1704.00 L 1228.00 1756.00 L 1222.00 1803.00 L 1206.00 1845.00 L 1191.00 1870.00 L 1177.00 1878.00 L 1161.00 1880.00 L 1143.00 1876.00 L 1102.00 1840.00 L 1038.00 1772.00 L 952.00 1694.00 L 844.00 1606.00 L 789.00 1565.00 L 787.00 1571.00 L 774.00 1566.00 L 750.00 1550.00 L 686.00 1524.00 L 582.00 1488.00 L 481.00 1468.00 L 383.00 1464.00 L 336.00 1443.00 L 340.00 1405.00 L 359.00 1349.00 L 393.00 1275.00 L 421.00 1195.00 L 443.00 1109.00 L 450.00 1056.00 L 442.00 1036.00 L 445.00 998.00 L 459.00 942.00 L 467.00 910.00 L 469.00 902.00 L 472.00 884.00 Z" fill="black" stroke="black" stroke-width="1"/>
</svg>