<?xml version="1.0" encoding="UTF-8"?>
<svg xmlns="http://www.w3.org/2000/svg" viewBox="432.00 134.00 997.00 1681.00">
  <path d="M 562.00 964.00 L 570.00 952.00 L 566.00 930.00 L 550.00 898.00 L 544.00 879.00 L 548.00 873.00 L 546.00 864.00 L 538.00 852.00 L 535.00 837.00 L 537.00 819.00 L 529.00 803.00 L 511.00 789.00 L 509.00 785.00 L 523.00 791.00 L 515.00 785.00 L 485.00 767.00 L 469.00 751.00 L 467.00 737.00 L 497.00 696.00 L 559.00 628.00 L 593.00 566.00 L 599.00 510.00 L 607.00 471.00 L 617.00 449.00 L 619.00 429.00 L 613.00 411.00 L 614.00 408.00 L 622.00 420.00 L 623.00 417.00 L 617.00 399.00 L 618.00 397.00 L 626.00 411.00 L 627.00 409.00 L 621.00 391.00 L 620.00 386.00 L 624.00 394.00 L 625.00 392.00 L 623.00 380.00 L 626.00 382.00 L 634.00 398.00 L 636.00 394.00 L 632.00 370.00 L 634.00 367.00 L 642.00 385.00 L 644.00 383.00 L 640.00 361.00 L 643.00 356.00 L 653.00 368.00 L 655.00 366.00 L 649.00 350.00 L 650.00 347.00 L 658.00 357.00 L 660.00 355.00 L 656.00 341.00 L 660.00 331.00 L 672.00 325.00 L 682.00 315.00 L 690.00 301.00 L 713.00 278.00 L 751.00 246.00 L 785.00 224.00 L 815.00 212.00 L 840.00 198.00 L 860.00 182.00 L 896.00 167.00 L 948.00 153.00 L 1002.00 147.00 L 1058.00 149.00 L 1089.00 148.00 L 1095.00 144.00 L 1098.00 145.00 L 1098.00 151.00 L 1101.00 152.00 L 1107.00 148.00 L 1110.00 148.00 L 1110.00 152.00 L 1113.00 152.00 L 1119.00 148.00 L 1130.00 148.00 L 1146.00 152.00 L 1172.00 162.00 L 1208.00 178.00 L 1249.00 205.00 L 1295.00 243.00 L 1338.00 292.00 L 1378.00 352.00 L 1405.00 424.00 L 1419.00 508.00 L 1418.00 580.00 L 1402.00 640.00 L 1386.00 684.00 L 1370.00 712.00 L 1355.00 730.00 L 1341.00 738.00 L 1333.00 744.00 L 1331.00 748.00 L 1336.00 747.00 L 1348.00 741.00 L 1340.00 763.00 L 1312.00 813.00 L 1298.00 867.00 L 1298.00 925.00 L 1285.00 957.00 L 1259.00 963.00 L 1259.00 966.00 L 1285.00 966.00 L 1285.00 969.00 L 1259.00 975.00 L 1257.00 979.00 L 1279.00 981.00 L 1279.00 984.00 L 1257.00 988.00 L 1251.00 1023.00 L 1261.00 1089.00 L 1266.00 1137.00 L 1266.00 1167.00 L 1262.00 1192.00 L 1254.00 1212.00 L 1265.00 1298.00 L 1295.00 1450.00 L 1265.00 1526.00 L 1175.00 1526.00 L 1076.00 1537.00 L 968.00 1559.00 L 868.00 1589.00 L 776.00 1627.00 L 706.00 1661.00 L 658.00 1691.00 L 608.00 1728.00 L 556.00 1772.00 L 522.00 1797.00 L 506.00 1803.00 L 491.00 1805.00 L 477.00 1803.00 L 464.00 1794.00 L 452.00 1778.00 L 513.00 1649.00 L 647.00 1407.00 L 646.00 1404.00 L 510.00 1640.00 L 442.00 1753.00 L 442.00 1743.00 L 509.00 1623.00 L 643.00 1393.00 L 642.00 1390.00 L 506.00 1614.00 L 507.00 1612.00 L 645.00 1384.00 L 645.00 1381.00 L 507.00 1603.00 L 508.00 1600.00 L 648.00 1372.00 L 649.00 1369.00 L 511.00 1591.00 L 512.00 1589.00 L 652.00 1363.00 L 652.00 1360.00 L 512.00 1580.00 L 512.00 1578.00 L 652.00 1354.00 L 654.00 1347.00 L 518.00 1557.00 L 497.00 1589.00 L 591.00 1443.00 L 592.00 1440.00 L 500.00 1580.00 L 498.00 1581.00 L 586.00 1443.00 L 588.00 1437.00 L 504.00 1563.00 L 501.00 1565.00 L 579.00 1443.00 L 583.00 1433.00 L 513.00 1535.00 L 510.00 1537.00 L 574.00 1439.00 L 583.00 1423.00 L 537.00 1489.00 L 564.00 1450.00 L 664.00 1306.00 L 676.00 1288.00 L 600.00 1396.00 L 598.00 1396.00 L 670.00 1288.00 L 685.00 1252.00 L 643.00 1288.00 L 638.00 1285.00 L 670.00 1243.00 L 668.00 1242.00 L 632.00 1282.00 L 630.00 1283.00 L 662.00 1245.00 L 665.00 1241.00 L 639.00 1271.00 L 643.00 1262.00 L 677.00 1214.00 L 686.00 1194.00 L 670.00 1202.00 L 669.00 1199.00 L 683.00 1185.00 L 682.00 1184.00 L 666.00 1196.00 L 666.00 1194.00 L 682.00 1178.00 L 682.00 1176.00 L 666.00 1188.00 L 664.00 1186.00 L 676.00 1170.00 L 666.00 1143.00 L 634.00 1105.00 L 622.00 1080.00 L 630.00 1068.00 L 627.00 1061.00 L 613.00 1059.00 L 597.00 1051.00 L 579.00 1037.00 L 567.00 1018.00 L 561.00 994.00 L 558.00 979.00 L 558.00 973.00 L 562.00 964.00 Z" fill="black" stroke="black" stroke-width="1"/>
</svg>