<?xml version="1.0" encoding="UTF-8"?>
<svg xmlns="http://www.w3.org/2000/svg" viewBox="336.00 310.00 999.00 1386.00">
  <path d="M 518.00 1030.00 L 526.00 1030.00 L 521.00 1027.00 L 503.00 1021.00 L 501.00 1004.00 L 515.00 976.00 L 507.00 957.00 L 477.00 947.00 L 475.00 945.00 L 501.00 951.00 L 500.00 950.00 L 472.00 942.00 L 446.00 928.00 L 422.00 908.00 L 405.00 887.00 L 395.00 865.00 L 383.00 846.00 L 369.00 830.00 L 357.00 804.00 L 347.00 768.00 L 346.00 720.00 L 354.00 660.00 L 363.00 619.00 L 373.00 597.00 L 380.00 569.00 L 384.00 535.00 L 394.00 495.00 L 410.00 449.00 L 425.00 415.00 L 439.00 393.00 L 457.00 372.00 L 479.00 352.00 L 503.00 336.00 L 529.00 324.00 L 555.00 320.00 L 581.00 324.00 L 634.00 325.00 L 714.00 323.00 L 776.00 331.00 L 820.00 349.00 L 855.00 367.00 L 881.00 385.00 L 899.00 402.00 L 909.00 418.00 L 924.00 428.00 L 944.00 432.00 L 979.00 433.00 L 1029.00 431.00 L 1059.00 437.00 L 1069.00 451.00 L 1072.00 463.00 L 1068.00 473.00 L 1068.00 475.00 L 1072.00 469.00 L 1064.00 491.00 L 1044.00 541.00 L 1038.00 558.00 L 1046.00 542.00 L 1047.00 545.00 L 1041.00 567.00 L 1043.00 593.00 L 1053.00 623.00 L 1056.00 663.00 L 1052.00 713.00 L 1057.00 750.00 L 1071.00 774.00 L 1090.00 800.00 L 1114.00 828.00 L 1111.00 852.00 L 1081.00 872.00 L 1080.00 875.00 L 1108.00 861.00 L 1108.00 863.00 L 1080.00 881.00 L 1079.00 883.00 L 1105.00 869.00 L 1105.00 872.00 L 1079.00 892.00 L 1066.00 920.00 L 1066.00 956.00 L 1063.00 980.00 L 1057.00 992.00 L 1058.00 1004.00 L 1066.00 1016.00 L 1070.00 1031.00 L 1070.00 1049.00 L 1065.00 1064.00 L 1055.00 1076.00 L 1038.00 1087.00 L 1014.00 1097.00 L 998.00 1110.00 L 990.00 1126.00 L 977.00 1140.00 L 959.00 1152.00 L 949.00 1162.00 L 947.00 1170.00 L 1022.00 1260.00 L 1174.00 1432.00 L 1243.00 1511.00 L 1229.00 1497.00 L 1240.00 1511.00 L 1276.00 1553.00 L 1272.00 1551.00 L 1228.00 1505.00 L 1234.00 1513.00 L 1290.00 1575.00 L 1226.00 1504.00 L 1042.00 1300.00 L 1043.00 1302.00 L 1229.00 1510.00 L 1323.00 1616.00 L 1325.00 1620.00 L 1291.00 1584.00 L 1221.00 1508.00 L 1221.00 1510.00 L 1291.00 1590.00 L 1287.00 1587.00 L 1209.00 1501.00 L 1209.00 1504.00 L 1287.00 1596.00 L 1285.00 1596.00 L 1203.00 1504.00 L 1202.00 1506.00 L 1282.00 1602.00 L 1280.00 1601.00 L 1196.00 1503.00 L 1196.00 1504.00 L 1280.00 1604.00 L 1228.00 1542.00 L 1040.00 1318.00 L 1038.00 1321.00 L 1222.00 1551.00 L 1222.00 1553.00 L 1038.00 1327.00 L 1036.00 1329.00 L 1216.00 1559.00 L 1255.00 1611.00 L 1153.00 1485.00 L 1151.00 1486.00 L 1249.00 1614.00 L 1210.00 1564.00 L 1034.00 1336.00 L 1031.00 1337.00 L 1201.00 1567.00 L 1231.00 1610.00 L 1121.00 1466.00 L 1119.00 1467.00 L 1225.00 1613.00 L 1223.00 1613.00 L 1113.00 1467.00 L 1110.00 1467.00 L 1214.00 1613.00 L 1264.00 1686.00 L 1260.00 1686.00 L 1179.00 1573.00 L 1021.00 1347.00 L 1019.00 1347.00 L 1173.00 1573.00 L 1194.00 1606.00 L 1082.00 1446.00 L 1080.00 1446.00 L 1188.00 1606.00 L 1167.00 1575.00 L 1017.00 1353.00 L 1015.00 1353.00 L 1161.00 1575.00 L 1161.00 1577.00 L 1015.00 1359.00 L 1012.00 1359.00 L 1152.00 1577.00 L 1155.00 1583.00 L 1021.00 1377.00 L 1018.00 1377.00 L 1146.00 1583.00 L 1143.00 1579.00 L 1009.00 1365.00 L 1007.00 1364.00 L 1137.00 1576.00 L 1142.00 1585.00 L 1022.00 1391.00 L 1020.00 1391.00 L 1136.00 1585.00 L 1177.00 1675.00 L 1143.00 1661.00 L 1109.00 1640.00 L 1075.00 1612.00 L 1036.00 1585.00 L 992.00 1559.00 L 943.00 1536.00 L 889.00 1516.00 L 829.00 1504.00 L 763.00 1500.00 L 705.00 1503.00 L 655.00 1513.00 L 600.00 1519.00 L 540.00 1521.00 L 495.00 1516.00 L 465.00 1504.00 L 446.00 1494.00 L 438.00 1486.00 L 430.00 1473.00 L 422.00 1455.00 L 417.00 1431.00 L 415.00 1401.00 L 419.00 1376.00 L 429.00 1356.00 L 435.00 1337.00 L 437.00 1319.00 L 449.00 1274.00 L 471.00 1202.00 L 498.00 1140.00 L 530.00 1088.00 L 547.00 1058.00 L 549.00 1050.00 L 548.00 1043.00 L 544.00 1037.00 L 535.00 1033.00 L 521.00 1031.00 L 518.00 1030.00 Z" fill="black" stroke="black" stroke-width="1"/>
</svg>