<?xml version="1.0" encoding="UTF-8"?>
<svg xmlns="http://www.w3.org/2000/svg" viewBox="395.00 230.00 999.00 1623.00">
  <path d="M 494.00 901.00 L 510.00 899.00 L 510.00 896.00 L 494.00 892.00 L 485.00 874.00 L 483.00 842.00 L 465.00 810.00 L 431.00 778.00 L 445.00 728.00 L 507.00 660.00 L 545.00 580.00 L 559.00 488.00 L 583.00 425.00 L 617.00 391.00 L 637.00 378.00 L 643.00 386.00 L 644.00 383.00 L 640.00 369.00 L 661.00 354.00 L 707.00 338.00 L 737.00 334.00 L 751.00 342.00 L 765.00 337.00 L 779.00 319.00 L 790.00 314.00 L 798.00 322.00 L 801.00 313.00 L 799.00 287.00 L 804.00 284.00 L 816.00 304.00 L 823.00 302.00 L 825.00 278.00 L 840.00 278.00 L 868.00 302.00 L 882.00 305.00 L 882.00 287.00 L 884.00 289.00 L 888.00 311.00 L 891.00 312.00 L 893.00 292.00 L 896.00 296.00 L 900.00 324.00 L 905.00 325.00 L 911.00 299.00 L 914.00 299.00 L 914.00 325.00 L 917.00 327.00 L 923.00 305.00 L 928.00 307.00 L 932.00 333.00 L 935.00 334.00 L 937.00 310.00 L 943.00 311.00 L 953.00 337.00 L 977.00 343.00 L 1015.00 329.00 L 1034.00 329.00 L 1034.00 343.00 L 1047.00 315.00 L 1073.00 245.00 L 1079.00 240.00 L 1065.00 300.00 L 1069.00 305.00 L 1091.00 255.00 L 1094.00 257.00 L 1078.00 311.00 L 1082.00 308.00 L 1106.00 248.00 L 1109.00 249.00 L 1091.00 311.00 L 1097.00 312.00 L 1127.00 252.00 L 1131.00 254.00 L 1109.00 318.00 L 1112.00 321.00 L 1140.00 263.00 L 1143.00 267.00 L 1121.00 333.00 L 1124.00 335.00 L 1152.00 273.00 L 1155.00 276.00 L 1133.00 344.00 L 1136.00 347.00 L 1164.00 285.00 L 1167.00 284.00 L 1145.00 344.00 L 1149.00 345.00 L 1179.00 287.00 L 1187.00 281.00 L 1173.00 327.00 L 1179.00 328.00 L 1205.00 284.00 L 1207.00 286.00 L 1185.00 334.00 L 1188.00 336.00 L 1216.00 292.00 L 1257.00 297.00 L 1311.00 351.00 L 1350.00 406.00 L 1374.00 462.00 L 1384.00 548.00 L 1380.00 664.00 L 1358.00 767.00 L 1318.00 857.00 L 1298.00 922.00 L 1298.00 962.00 L 1291.00 982.00 L 1277.00 982.00 L 1276.00 985.00 L 1288.00 991.00 L 1287.00 993.00 L 1273.00 991.00 L 1273.00 1004.00 L 1287.00 1032.00 L 1291.00 1104.00 L 1285.00 1220.00 L 1307.00 1336.00 L 1357.00 1452.00 L 1381.00 1522.00 L 1379.00 1546.00 L 1317.00 1553.00 L 1195.00 1543.00 L 1088.00 1548.00 L 996.00 1568.00 L 902.00 1600.00 L 806.00 1644.00 L 706.00 1708.00 L 602.00 1792.00 L 524.00 1837.00 L 472.00 1843.00 L 435.00 1828.00 L 413.00 1792.00 L 405.00 1749.00 L 411.00 1699.00 L 459.00 1594.00 L 549.00 1434.00 L 558.00 1409.00 L 486.00 1519.00 L 486.00 1516.00 L 558.00 1400.00 L 564.00 1387.00 L 504.00 1477.00 L 501.00 1481.00 L 555.00 1399.00 L 569.00 1376.00 L 543.00 1412.00 L 547.00 1391.00 L 581.00 1313.00 L 580.00 1287.00 L 544.00 1313.00 L 537.00 1312.00 L 559.00 1284.00 L 556.00 1286.00 L 528.00 1318.00 L 530.00 1315.00 L 562.00 1277.00 L 559.00 1278.00 L 521.00 1318.00 L 521.00 1316.00 L 559.00 1272.00 L 559.00 1269.00 L 521.00 1307.00 L 517.00 1309.00 L 547.00 1275.00 L 549.00 1272.00 L 523.00 1300.00 L 522.00 1290.00 L 546.00 1242.00 L 548.00 1222.00 L 528.00 1230.00 L 525.00 1225.00 L 539.00 1207.00 L 537.00 1191.00 L 519.00 1177.00 L 515.00 1159.00 L 525.00 1137.00 L 524.00 1129.00 L 512.00 1135.00 L 499.00 1117.00 L 485.00 1075.00 L 485.00 1038.00 L 499.00 1006.00 L 499.00 978.00 L 485.00 954.00 L 485.00 933.00 L 499.00 915.00 L 501.00 905.00 L 491.00 903.00 L 494.00 901.00 Z" fill="black" stroke="black" stroke-width="1"/>
</svg>