<?xml version="1.0" encoding="UTF-8"?>
<svg xmlns="http://www.w3.org/2000/svg" viewBox="192.00 195.00 1010.00 1585.00">
  <path d="M 320.00 979.00 L 332.00 953.00 L 348.00 930.00 L 368.00 910.00 L 384.00 900.00 L 396.00 900.00 L 400.00 899.00 L 396.00 897.00 L 396.00 893.00 L 400.00 887.00 L 392.00 862.00 L 372.00 818.00 L 322.00 730.00 L 242.00 598.00 L 202.00 526.00 L 202.00 514.00 L 226.00 487.00 L 274.00 445.00 L 389.00 373.00 L 571.00 271.00 L 681.00 215.00 L 719.00 205.00 L 769.00 237.00 L 831.00 311.00 L 887.00 387.00 L 937.00 465.00 L 975.00 530.00 L 1001.00 582.00 L 1051.00 615.00 L 1125.00 629.00 L 1132.00 663.00 L 1072.00 717.00 L 1077.00 718.00 L 1147.00 666.00 L 1148.00 668.00 L 1080.00 724.00 L 1085.00 725.00 L 1163.00 671.00 L 1164.00 674.00 L 1088.00 734.00 L 1090.00 735.00 L 1170.00 677.00 L 1180.00 670.00 L 1120.00 714.00 L 1123.00 715.00 L 1189.00 673.00 L 1180.00 684.00 L 1096.00 748.00 L 1099.00 750.00 L 1189.00 690.00 L 1189.00 692.00 L 1099.00 756.00 L 1100.00 759.00 L 1192.00 701.00 L 1191.00 704.00 L 1097.00 768.00 L 1091.00 775.00 L 1173.00 725.00 L 1173.00 728.00 L 1091.00 784.00 L 1049.00 820.00 L 1047.00 836.00 L 1059.00 864.00 L 1085.00 904.00 L 1102.00 936.00 L 1110.00 960.00 L 1107.00 979.00 L 1093.00 993.00 L 1078.00 1000.00 L 1062.00 1000.00 L 1055.00 1012.00 L 1057.00 1036.00 L 1050.00 1060.00 L 1034.00 1084.00 L 1029.00 1105.00 L 1035.00 1123.00 L 1038.00 1142.00 L 1038.00 1162.00 L 1033.00 1178.00 L 1023.00 1190.00 L 1020.00 1202.00 L 1024.00 1214.00 L 1022.00 1217.00 L 1014.00 1211.00 L 1015.00 1214.00 L 1025.00 1226.00 L 1021.00 1243.00 L 1003.00 1265.00 L 998.00 1286.00 L 1006.00 1306.00 L 1004.00 1311.00 L 992.00 1301.00 L 996.00 1315.00 L 1016.00 1353.00 L 1018.00 1362.00 L 1002.00 1342.00 L 1007.00 1351.00 L 1033.00 1389.00 L 1028.00 1391.00 L 992.00 1357.00 L 971.00 1345.00 L 965.00 1355.00 L 973.00 1386.00 L 995.00 1438.00 L 995.00 1446.00 L 973.00 1410.00 L 976.00 1418.00 L 1004.00 1470.00 L 1004.00 1473.00 L 976.00 1427.00 L 976.00 1430.00 L 1004.00 1482.00 L 1005.00 1485.00 L 979.00 1439.00 L 999.00 1480.00 L 1065.00 1608.00 L 1083.00 1645.00 L 1053.00 1591.00 L 1054.00 1597.00 L 1086.00 1663.00 L 1102.00 1706.00 L 1102.00 1726.00 L 1098.00 1742.00 L 1090.00 1754.00 L 1079.00 1763.00 L 1065.00 1769.00 L 1050.00 1770.00 L 1034.00 1766.00 L 976.00 1726.00 L 876.00 1650.00 L 784.00 1590.00 L 700.00 1546.00 L 633.00 1516.00 L 583.00 1500.00 L 515.00 1487.00 L 429.00 1477.00 L 384.00 1455.00 L 380.00 1421.00 L 386.00 1371.00 L 402.00 1305.00 L 407.00 1267.00 L 401.00 1257.00 L 404.00 1211.00 L 416.00 1129.00 L 394.00 1094.00 L 338.00 1106.00 L 338.00 1104.00 L 394.00 1088.00 L 392.00 1086.00 L 332.00 1098.00 L 333.00 1095.00 L 395.00 1077.00 L 394.00 1072.00 L 330.00 1080.00 L 330.00 1077.00 L 394.00 1063.00 L 394.00 1060.00 L 330.00 1068.00 L 331.00 1064.00 L 397.00 1048.00 L 397.00 1045.00 L 331.00 1055.00 L 318.00 1056.00 L 358.00 1048.00 L 359.00 1045.00 L 321.00 1047.00 L 335.00 1043.00 L 401.00 1033.00 L 401.00 1031.00 L 335.00 1037.00 L 324.00 1037.00 L 368.00 1031.00 L 368.00 1029.00 L 324.00 1031.00 L 337.00 1028.00 L 407.00 1020.00 L 407.00 1018.00 L 337.00 1022.00 L 337.00 1020.00 L 407.00 1012.00 L 408.00 1009.00 L 340.00 1011.00 L 333.00 1010.00 L 387.00 1006.00 L 388.00 1004.00 L 336.00 1004.00 L 343.00 1003.00 L 409.00 1001.00 L 438.00 999.00 L 430.00 997.00 L 398.00 995.00 L 342.00 993.00 L 320.00 979.00 Z" fill="black" stroke="black" stroke-width="1"/>
</svg>