<?xml version="1.0" encoding="UTF-8"?>
<svg xmlns="http://www.w3.org/2000/svg" viewBox="292.00 272.00 996.00 1463.00">
  <path d="M 453.00 1033.00 L 451.00 1023.00 L 445.00 1011.00 L 435.00 997.00 L 433.00 984.00 L 439.00 972.00 L 440.00 960.00 L 436.00 948.00 L 439.00 928.00 L 449.00 900.00 L 444.00 879.00 L 424.00 865.00 L 424.00 863.00 L 444.00 873.00 L 443.00 872.00 L 421.00 860.00 L 408.00 850.00 L 404.00 842.00 L 409.00 824.00 L 423.00 796.00 L 446.00 766.00 L 478.00 734.00 L 493.00 701.00 L 491.00 667.00 L 505.00 607.00 L 535.00 521.00 L 549.00 469.00 L 547.00 451.00 L 552.00 430.00 L 564.00 406.00 L 590.00 377.00 L 630.00 343.00 L 672.00 317.00 L 716.00 299.00 L 751.00 288.00 L 777.00 284.00 L 808.00 282.00 L 844.00 282.00 L 879.00 286.00 L 913.00 294.00 L 961.00 314.00 L 1023.00 346.00 L 1060.00 368.00 L 1072.00 380.00 L 1086.00 399.00 L 1102.00 425.00 L 1112.00 443.00 L 1116.00 453.00 L 1116.00 463.00 L 1112.00 473.00 L 1112.00 475.00 L 1116.00 469.00 L 1117.00 471.00 L 1115.00 481.00 L 1126.00 510.00 L 1150.00 558.00 L 1171.00 607.00 L 1189.00 657.00 L 1198.00 707.00 L 1198.00 757.00 L 1185.00 809.00 L 1159.00 863.00 L 1158.00 912.00 L 1182.00 956.00 L 1186.00 981.00 L 1170.00 987.00 L 1170.00 989.00 L 1186.00 987.00 L 1184.00 989.00 L 1164.00 995.00 L 1163.00 998.00 L 1181.00 998.00 L 1182.00 1000.00 L 1166.00 1004.00 L 1165.00 1011.00 L 1179.00 1021.00 L 1189.00 1033.00 L 1195.00 1047.00 L 1202.00 1072.00 L 1210.00 1108.00 L 1215.00 1138.00 L 1217.00 1162.00 L 1216.00 1179.00 L 1212.00 1189.00 L 1213.00 1205.00 L 1219.00 1227.00 L 1228.00 1246.00 L 1240.00 1262.00 L 1254.00 1291.00 L 1270.00 1333.00 L 1278.00 1364.00 L 1278.00 1384.00 L 1273.00 1404.00 L 1263.00 1424.00 L 1250.00 1441.00 L 1234.00 1455.00 L 1205.00 1467.00 L 1163.00 1477.00 L 1082.00 1482.00 L 962.00 1482.00 L 863.00 1489.00 L 785.00 1503.00 L 725.00 1519.00 L 683.00 1537.00 L 645.00 1556.00 L 611.00 1576.00 L 569.00 1608.00 L 519.00 1652.00 L 478.00 1684.00 L 446.00 1704.00 L 419.00 1717.00 L 397.00 1723.00 L 375.00 1725.00 L 353.00 1723.00 L 337.00 1719.00 L 327.00 1713.00 L 317.00 1702.00 L 307.00 1686.00 L 302.00 1670.00 L 302.00 1654.00 L 305.00 1638.00 L 311.00 1622.00 L 313.00 1615.00 L 311.00 1617.00 L 319.00 1600.00 L 337.00 1564.00 L 357.00 1531.00 L 379.00 1501.00 L 380.00 1498.00 L 360.00 1522.00 L 359.00 1523.00 L 377.00 1501.00 L 379.00 1498.00 L 365.00 1514.00 L 367.00 1510.00 L 385.00 1486.00 L 397.00 1466.00 L 403.00 1450.00 L 426.00 1418.00 L 466.00 1370.00 L 467.00 1367.00 L 429.00 1409.00 L 428.00 1409.00 L 464.00 1367.00 L 466.00 1362.00 L 434.00 1394.00 L 431.00 1394.00 L 457.00 1362.00 L 467.00 1343.00 L 461.00 1337.00 L 461.00 1327.00 L 467.00 1313.00 L 456.00 1317.00 L 428.00 1339.00 L 424.00 1341.00 L 444.00 1323.00 L 441.00 1324.00 L 415.00 1344.00 L 394.00 1354.00 L 378.00 1354.00 L 374.00 1348.00 L 382.00 1336.00 L 383.00 1332.00 L 377.00 1336.00 L 385.00 1326.00 L 407.00 1302.00 L 429.00 1282.00 L 451.00 1266.00 L 453.00 1264.00 L 435.00 1276.00 L 433.00 1277.00 L 447.00 1267.00 L 448.00 1266.00 L 436.00 1274.00 L 448.00 1265.00 L 484.00 1239.00 L 501.00 1225.00 L 499.00 1223.00 L 487.00 1229.00 L 465.00 1243.00 L 464.00 1241.00 L 484.00 1223.00 L 482.00 1220.00 L 458.00 1232.00 L 454.00 1232.00 L 470.00 1220.00 L 470.00 1218.00 L 454.00 1226.00 L 456.00 1224.00 L 476.00 1212.00 L 478.00 1209.00 L 462.00 1215.00 L 460.00 1213.00 L 472.00 1203.00 L 476.00 1193.00 L 472.00 1183.00 L 476.00 1173.00 L 488.00 1163.00 L 482.00 1147.00 L 458.00 1125.00 L 445.00 1105.00 L 443.00 1087.00 L 445.00 1071.00 L 451.00 1057.00 L 454.00 1047.00 L 454.00 1041.00 L 453.00 1033.00 Z" fill="black" stroke="black" stroke-width="1"/>
</svg>