<?xml version="1.0" encoding="UTF-8"?>
<svg xmlns="http://www.w3.org/2000/svg" viewBox="297.00 217.00 896.00 1491.00">
  <path d="M 419.00 916.00 L 429.00 872.00 L 436.00 846.00 L 440.00 838.00 L 445.00 833.00 L 451.00 831.00 L 449.00 827.00 L 439.00 821.00 L 441.00 820.00 L 455.00 824.00 L 454.00 822.00 L 438.00 814.00 L 440.00 813.00 L 460.00 819.00 L 460.00 817.00 L 440.00 807.00 L 439.00 805.00 L 457.00 811.00 L 457.00 809.00 L 439.00 799.00 L 429.00 788.00 L 427.00 776.00 L 424.00 767.00 L 420.00 761.00 L 417.00 738.00 L 415.00 698.00 L 401.00 647.00 L 375.00 585.00 L 361.00 528.00 L 359.00 476.00 L 368.00 425.00 L 388.00 375.00 L 403.00 343.00 L 413.00 329.00 L 429.00 311.00 L 451.00 289.00 L 472.00 272.00 L 492.00 260.00 L 517.00 249.00 L 547.00 239.00 L 579.00 232.00 L 613.00 228.00 L 640.00 227.00 L 660.00 229.00 L 699.00 229.00 L 757.00 227.00 L 795.00 228.00 L 813.00 232.00 L 833.00 238.00 L 855.00 246.00 L 875.00 256.00 L 893.00 268.00 L 918.00 281.00 L 950.00 295.00 L 975.00 311.00 L 993.00 329.00 L 1006.00 348.00 L 1014.00 368.00 L 1022.00 381.00 L 1030.00 387.00 L 1031.00 397.00 L 1025.00 411.00 L 1026.00 412.00 L 1034.00 400.00 L 1035.00 402.00 L 1029.00 418.00 L 1031.00 420.00 L 1041.00 408.00 L 1044.00 408.00 L 1040.00 420.00 L 1041.00 421.00 L 1047.00 411.00 L 1046.00 414.00 L 1038.00 430.00 L 1039.00 432.00 L 1049.00 420.00 L 1051.00 423.00 L 1045.00 441.00 L 1046.00 443.00 L 1054.00 429.00 L 1054.00 430.00 L 1046.00 446.00 L 1047.00 447.00 L 1057.00 433.00 L 1059.00 435.00 L 1053.00 453.00 L 1054.00 455.00 L 1062.00 441.00 L 1064.00 439.00 L 1060.00 449.00 L 1060.00 452.00 L 1064.00 448.00 L 1063.00 453.00 L 1057.00 467.00 L 1058.00 469.00 L 1066.00 459.00 L 1067.00 460.00 L 1061.00 472.00 L 1061.00 474.00 L 1067.00 466.00 L 1068.00 468.00 L 1064.00 480.00 L 1069.00 503.00 L 1083.00 537.00 L 1090.00 572.00 L 1090.00 608.00 L 1111.00 652.00 L 1153.00 704.00 L 1177.00 738.00 L 1183.00 754.00 L 1181.00 769.00 L 1171.00 783.00 L 1157.00 795.00 L 1139.00 805.00 L 1128.00 816.00 L 1124.00 828.00 L 1123.00 842.00 L 1125.00 858.00 L 1125.00 869.00 L 1123.00 875.00 L 1117.00 882.00 L 1107.00 890.00 L 1103.00 896.00 L 1105.00 900.00 L 1103.00 907.00 L 1097.00 917.00 L 1086.00 928.00 L 1070.00 940.00 L 1067.00 958.00 L 1077.00 982.00 L 1081.00 997.00 L 1079.00 1003.00 L 1071.00 1018.00 L 1057.00 1042.00 L 1040.00 1062.00 L 1020.00 1078.00 L 1000.00 1099.00 L 980.00 1125.00 L 969.00 1140.00 L 967.00 1144.00 L 970.00 1153.00 L 978.00 1167.00 L 977.00 1169.00 L 967.00 1159.00 L 969.00 1163.00 L 983.00 1181.00 L 990.00 1201.00 L 990.00 1223.00 L 988.00 1236.00 L 984.00 1240.00 L 995.00 1264.00 L 1021.00 1308.00 L 1020.00 1310.00 L 992.00 1270.00 L 993.00 1273.00 L 1023.00 1319.00 L 1028.00 1327.00 L 1008.00 1297.00 L 1024.00 1325.00 L 1076.00 1411.00 L 1073.00 1409.00 L 1015.00 1319.00 L 1017.00 1323.00 L 1079.00 1421.00 L 1076.00 1417.00 L 1008.00 1311.00 L 1009.00 1313.00 L 1079.00 1423.00 L 1080.00 1425.00 L 1012.00 1319.00 L 1013.00 1322.00 L 1083.00 1434.00 L 1119.00 1492.00 L 1121.00 1496.00 L 1120.00 1495.00 L 1116.00 1489.00 L 1117.00 1492.00 L 1123.00 1504.00 L 1130.00 1534.00 L 1138.00 1582.00 L 1142.00 1623.00 L 1142.00 1657.00 L 1140.00 1678.00 L 1136.00 1686.00 L 1131.00 1692.00 L 1125.00 1696.00 L 1117.00 1698.00 L 1107.00 1698.00 L 1097.00 1696.00 L 1087.00 1692.00 L 1052.00 1668.00 L 992.00 1624.00 L 937.00 1586.00 L 887.00 1554.00 L 808.00 1507.00 L 700.00 1445.00 L 604.00 1398.00 L 520.00 1366.00 L 451.00 1343.00 L 397.00 1329.00 L 355.00 1321.00 L 325.00 1319.00 L 309.00 1312.00 L 307.00 1300.00 L 309.00 1285.00 L 315.00 1267.00 L 328.00 1236.00 L 348.00 1192.00 L 362.00 1152.00 L 370.00 1116.00 L 378.00 1087.00 L 386.00 1065.00 L 395.00 1047.00 L 405.00 1033.00 L 406.00 1020.00 L 398.00 1008.00 L 398.00 988.00 L 406.00 960.00 L 411.00 944.00 L 413.00 940.00 L 419.00 916.00 Z" fill="black" stroke="black" stroke-width="1"/>
</svg>