<?xml version="1.0" encoding="UTF-8"?>
<svg xmlns="http://www.w3.org/2000/svg" viewBox="316.00 354.00 949.00 1308.00">
  <path d="M 395.00 889.00 L 437.00 839.00 L 462.00 806.00 L 470.00 790.00 L 473.00 760.00 L 471.00 716.00 L 473.00 696.00 L 479.00 700.00 L 480.00 697.00 L 476.00 687.00 L 477.00 684.00 L 483.00 688.00 L 484.00 686.00 L 480.00 678.00 L 481.00 676.00 L 487.00 680.00 L 488.00 679.00 L 484.00 673.00 L 485.00 672.00 L 491.00 676.00 L 493.00 673.00 L 491.00 663.00 L 494.00 656.00 L 502.00 652.00 L 495.00 620.00 L 473.00 560.00 L 463.00 511.00 L 465.00 473.00 L 473.00 454.00 L 487.00 454.00 L 516.00 467.00 L 560.00 493.00 L 579.00 488.00 L 573.00 452.00 L 575.00 447.00 L 585.00 473.00 L 587.00 472.00 L 581.00 444.00 L 582.00 442.00 L 590.00 466.00 L 593.00 468.00 L 591.00 448.00 L 596.00 444.00 L 608.00 456.00 L 614.00 452.00 L 614.00 432.00 L 616.00 430.00 L 620.00 446.00 L 622.00 431.00 L 622.00 385.00 L 631.00 367.00 L 649.00 377.00 L 660.00 400.00 L 664.00 436.00 L 664.00 431.00 L 660.00 385.00 L 662.00 395.00 L 670.00 461.00 L 674.00 457.00 L 674.00 383.00 L 679.00 390.00 L 689.00 478.00 L 694.00 478.00 L 694.00 390.00 L 696.00 389.00 L 700.00 475.00 L 703.00 476.00 L 705.00 392.00 L 708.00 390.00 L 712.00 470.00 L 716.00 471.00 L 720.00 393.00 L 724.00 389.00 L 728.00 459.00 L 732.00 461.00 L 736.00 395.00 L 737.00 394.00 L 735.00 458.00 L 777.00 460.00 L 863.00 400.00 L 926.00 368.00 L 966.00 364.00 L 1054.00 491.00 L 1190.00 749.00 L 1255.00 888.00 L 1249.00 908.00 L 1187.00 952.00 L 1069.00 1020.00 L 1008.00 1065.00 L 1004.00 1087.00 L 995.00 1094.00 L 981.00 1086.00 L 978.00 1087.00 L 986.00 1097.00 L 985.00 1101.00 L 975.00 1099.00 L 969.00 1103.00 L 967.00 1113.00 L 966.00 1134.00 L 966.00 1166.00 L 970.00 1188.00 L 978.00 1200.00 L 978.00 1203.00 L 970.00 1197.00 L 981.00 1234.00 L 1011.00 1314.00 L 1021.00 1364.00 L 1011.00 1384.00 L 979.00 1395.00 L 925.00 1397.00 L 870.00 1405.00 L 814.00 1419.00 L 729.00 1456.00 L 615.00 1516.00 L 576.00 1470.00 L 612.00 1318.00 L 610.00 1319.00 L 570.00 1473.00 L 570.00 1467.00 L 610.00 1301.00 L 607.00 1303.00 L 561.00 1473.00 L 556.00 1490.00 L 592.00 1354.00 L 587.00 1358.00 L 541.00 1502.00 L 545.00 1482.00 L 599.00 1298.00 L 596.00 1300.00 L 536.00 1488.00 L 535.00 1486.00 L 593.00 1294.00 L 586.00 1299.00 L 514.00 1501.00 L 513.00 1499.00 L 583.00 1293.00 L 580.00 1295.00 L 504.00 1505.00 L 502.00 1508.00 L 574.00 1304.00 L 571.00 1307.00 L 493.00 1517.00 L 471.00 1571.00 L 505.00 1469.00 L 502.00 1471.00 L 462.00 1577.00 L 481.00 1525.00 L 559.00 1315.00 L 556.00 1318.00 L 472.00 1534.00 L 449.00 1591.00 L 487.00 1489.00 L 485.00 1490.00 L 443.00 1594.00 L 419.00 1648.00 L 413.00 1652.00 L 431.00 1602.00 L 473.00 1498.00 L 470.00 1501.00 L 422.00 1611.00 L 447.00 1549.00 L 545.00 1315.00 L 543.00 1317.00 L 441.00 1555.00 L 413.00 1619.00 L 459.00 1509.00 L 458.00 1510.00 L 410.00 1622.00 L 407.00 1624.00 L 449.00 1516.00 L 441.00 1522.00 L 383.00 1642.00 L 413.00 1572.00 L 531.00 1312.00 L 528.00 1314.00 L 404.00 1578.00 L 368.00 1651.00 L 420.00 1533.00 L 419.00 1530.00 L 365.00 1642.00 L 363.00 1643.00 L 413.00 1533.00 L 411.00 1530.00 L 357.00 1634.00 L 392.00 1560.00 L 516.00 1308.00 L 515.00 1305.00 L 389.00 1551.00 L 388.00 1551.00 L 512.00 1305.00 L 511.00 1302.00 L 385.00 1542.00 L 343.00 1621.00 L 385.00 1539.00 L 384.00 1536.00 L 340.00 1612.00 L 337.00 1614.00 L 375.00 1542.00 L 375.00 1540.00 L 337.00 1608.00 L 334.00 1611.00 L 366.00 1549.00 L 365.00 1547.00 L 331.00 1605.00 L 326.00 1609.00 L 350.00 1559.00 L 350.00 1555.00 L 326.00 1597.00 L 376.00 1509.00 L 500.00 1291.00 L 500.00 1288.00 L 376.00 1500.00 L 373.00 1500.00 L 491.00 1288.00 L 532.00 1179.00 L 496.00 1173.00 L 467.00 1163.00 L 445.00 1149.00 L 435.00 1100.00 L 437.00 1016.00 L 422.00 962.00 L 390.00 938.00 L 374.00 923.00 L 374.00 917.00 L 395.00 889.00 Z" fill="black" stroke="black" stroke-width="1"/>
</svg>