<?xml version="1.0" encoding="UTF-8"?>
<svg xmlns="http://www.w3.org/2000/svg" viewBox="454.00 301.00 839.00 1422.00">
  <path d="M 564.00 965.00 L 568.00 939.00 L 572.00 922.00 L 576.00 914.00 L 582.00 907.00 L 590.00 901.00 L 594.00 896.00 L 594.00 892.00 L 588.00 886.00 L 576.00 878.00 L 575.00 875.00 L 585.00 877.00 L 585.00 875.00 L 575.00 869.00 L 569.00 850.00 L 567.00 818.00 L 554.00 768.00 L 530.00 700.00 L 517.00 642.00 L 515.00 594.00 L 520.00 546.00 L 532.00 498.00 L 546.00 460.00 L 562.00 432.00 L 581.00 407.00 L 603.00 385.00 L 624.00 367.00 L 644.00 353.00 L 667.00 340.00 L 693.00 328.00 L 721.00 319.00 L 751.00 313.00 L 788.00 311.00 L 832.00 313.00 L 871.00 319.00 L 905.00 329.00 L 932.00 335.00 L 952.00 337.00 L 976.00 346.00 L 1004.00 362.00 L 1033.00 381.00 L 1063.00 403.00 L 1096.00 435.00 L 1132.00 477.00 L 1151.00 500.00 L 1153.00 504.00 L 1153.00 511.00 L 1151.00 521.00 L 1152.00 523.00 L 1156.00 517.00 L 1157.00 518.00 L 1155.00 526.00 L 1156.00 529.00 L 1160.00 527.00 L 1161.00 530.00 L 1159.00 538.00 L 1160.00 539.00 L 1164.00 533.00 L 1165.00 534.00 L 1163.00 542.00 L 1164.00 543.00 L 1168.00 537.00 L 1169.00 539.00 L 1167.00 549.00 L 1168.00 552.00 L 1172.00 548.00 L 1173.00 549.00 L 1171.00 555.00 L 1172.00 556.00 L 1176.00 552.00 L 1176.00 554.00 L 1172.00 562.00 L 1172.00 567.00 L 1176.00 569.00 L 1177.00 572.00 L 1175.00 576.00 L 1178.00 574.00 L 1186.00 566.00 L 1187.00 569.00 L 1181.00 583.00 L 1179.00 592.00 L 1181.00 596.00 L 1181.00 609.00 L 1179.00 631.00 L 1179.00 641.00 L 1181.00 639.00 L 1181.00 641.00 L 1179.00 647.00 L 1179.00 656.00 L 1181.00 668.00 L 1187.00 682.00 L 1197.00 698.00 L 1215.00 720.00 L 1241.00 748.00 L 1262.00 775.00 L 1278.00 801.00 L 1283.00 820.00 L 1277.00 832.00 L 1261.00 844.00 L 1235.00 856.00 L 1233.00 858.00 L 1255.00 850.00 L 1253.00 852.00 L 1227.00 864.00 L 1213.00 883.00 L 1211.00 909.00 L 1207.00 924.00 L 1201.00 928.00 L 1197.00 932.00 L 1195.00 936.00 L 1195.00 940.00 L 1197.00 944.00 L 1191.00 957.00 L 1177.00 979.00 L 1172.00 994.00 L 1176.00 1002.00 L 1179.00 1014.00 L 1181.00 1030.00 L 1176.00 1047.00 L 1164.00 1065.00 L 1152.00 1072.00 L 1140.00 1068.00 L 1141.00 1070.00 L 1155.00 1078.00 L 1154.00 1079.00 L 1138.00 1073.00 L 1138.00 1074.00 L 1154.00 1082.00 L 1151.00 1082.00 L 1129.00 1074.00 L 1128.00 1075.00 L 1148.00 1085.00 L 1147.00 1100.00 L 1125.00 1120.00 L 1110.00 1140.00 L 1102.00 1160.00 L 1102.00 1177.00 L 1110.00 1191.00 L 1114.00 1205.00 L 1114.00 1219.00 L 1119.00 1233.00 L 1129.00 1247.00 L 1129.00 1249.00 L 1119.00 1239.00 L 1121.00 1244.00 L 1135.00 1264.00 L 1142.00 1283.00 L 1142.00 1301.00 L 1147.00 1320.00 L 1157.00 1340.00 L 1157.00 1343.00 L 1147.00 1329.00 L 1149.00 1332.00 L 1163.00 1352.00 L 1165.00 1355.00 L 1155.00 1341.00 L 1163.00 1356.00 L 1189.00 1400.00 L 1201.00 1421.00 L 1199.00 1419.00 L 1201.00 1424.00 L 1207.00 1436.00 L 1214.00 1460.00 L 1222.00 1496.00 L 1228.00 1528.00 L 1232.00 1556.00 L 1234.00 1579.00 L 1234.00 1597.00 L 1232.00 1617.00 L 1228.00 1639.00 L 1222.00 1660.00 L 1214.00 1680.00 L 1205.00 1695.00 L 1195.00 1705.00 L 1182.00 1711.00 L 1166.00 1713.00 L 1149.00 1709.00 L 1131.00 1699.00 L 1108.00 1675.00 L 1080.00 1637.00 L 1043.00 1593.00 L 997.00 1543.00 L 961.00 1507.00 L 935.00 1485.00 L 904.00 1462.00 L 868.00 1438.00 L 838.00 1420.00 L 814.00 1408.00 L 780.00 1394.00 L 736.00 1378.00 L 681.00 1363.00 L 615.00 1349.00 L 554.00 1341.00 L 498.00 1339.00 L 468.00 1337.00 L 464.00 1335.00 L 467.00 1316.00 L 477.00 1280.00 L 488.00 1249.00 L 500.00 1223.00 L 507.00 1197.00 L 509.00 1171.00 L 519.00 1139.00 L 537.00 1101.00 L 544.00 1077.00 L 540.00 1067.00 L 538.00 1058.00 L 538.00 1050.00 L 543.00 1032.00 L 553.00 1004.00 L 559.00 987.00 L 561.00 981.00 L 564.00 965.00 Z" fill="black" stroke="black" stroke-width="1"/>
</svg>