<?xml version="1.0" encoding="UTF-8"?>
<svg xmlns="http://www.w3.org/2000/svg" viewBox="208.00 274.00 878.00 1460.00">
  <path d="M 309.00 981.00 L 251.00 979.00 L 251.00 977.00 L 309.00 975.00 L 306.00 973.00 L 242.00 971.00 L 221.00 968.00 L 243.00 964.00 L 242.00 961.00 L 218.00 959.00 L 239.00 959.00 L 305.00 961.00 L 306.00 959.00 L 242.00 953.00 L 242.00 952.00 L 306.00 956.00 L 307.00 954.00 L 245.00 946.00 L 246.00 944.00 L 310.00 948.00 L 311.00 946.00 L 249.00 938.00 L 238.00 934.00 L 278.00 934.00 L 280.00 931.00 L 244.00 925.00 L 256.00 926.00 L 316.00 934.00 L 317.00 932.00 L 259.00 920.00 L 260.00 917.00 L 320.00 923.00 L 324.00 919.00 L 272.00 905.00 L 273.00 902.00 L 327.00 910.00 L 330.00 907.00 L 282.00 893.00 L 283.00 892.00 L 333.00 904.00 L 334.00 903.00 L 286.00 889.00 L 283.00 886.00 L 325.00 894.00 L 328.00 892.00 L 292.00 880.00 L 296.00 880.00 L 340.00 892.00 L 342.00 890.00 L 302.00 874.00 L 295.00 851.00 L 321.00 821.00 L 317.00 736.00 L 283.00 596.00 L 341.00 479.00 L 491.00 385.00 L 610.00 320.00 L 698.00 284.00 L 788.00 357.00 L 880.00 539.00 L 943.00 634.00 L 977.00 642.00 L 980.00 661.00 L 952.00 691.00 L 954.00 691.00 L 986.00 661.00 L 986.00 662.00 L 954.00 694.00 L 956.00 695.00 L 992.00 665.00 L 993.00 667.00 L 959.00 701.00 L 964.00 702.00 L 1008.00 670.00 L 1009.00 673.00 L 967.00 711.00 L 969.00 711.00 L 1015.00 673.00 L 1015.00 676.00 L 969.00 720.00 L 972.00 721.00 L 1024.00 679.00 L 1039.00 669.00 L 1017.00 691.00 L 1021.00 692.00 L 1051.00 672.00 L 1036.00 686.00 L 976.00 734.00 L 978.00 735.00 L 1042.00 689.00 L 1041.00 692.00 L 975.00 744.00 L 977.00 744.00 L 1047.00 692.00 L 1048.00 694.00 L 980.00 750.00 L 984.00 753.00 L 1060.00 703.00 L 1060.00 705.00 L 984.00 759.00 L 986.00 761.00 L 1066.00 711.00 L 1068.00 714.00 L 992.00 770.00 L 994.00 773.00 L 1074.00 723.00 L 1076.00 725.00 L 1000.00 779.00 L 977.00 828.00 L 1007.00 872.00 L 1007.00 903.00 L 977.00 921.00 L 963.00 941.00 L 965.00 963.00 L 958.00 991.00 L 942.00 1025.00 L 937.00 1055.00 L 943.00 1081.00 L 927.00 1111.00 L 889.00 1145.00 L 872.00 1167.00 L 876.00 1177.00 L 869.00 1194.00 L 851.00 1218.00 L 844.00 1240.00 L 848.00 1260.00 L 845.00 1263.00 L 835.00 1249.00 L 843.00 1268.00 L 869.00 1320.00 L 868.00 1324.00 L 840.00 1280.00 L 862.00 1333.00 L 934.00 1483.00 L 940.00 1504.00 L 880.00 1396.00 L 883.00 1404.00 L 949.00 1528.00 L 945.00 1522.00 L 871.00 1386.00 L 872.00 1390.00 L 948.00 1534.00 L 949.00 1537.00 L 875.00 1399.00 L 876.00 1402.00 L 952.00 1546.00 L 947.00 1537.00 L 861.00 1375.00 L 861.00 1378.00 L 947.00 1546.00 L 945.00 1544.00 L 855.00 1372.00 L 856.00 1375.00 L 948.00 1553.00 L 950.00 1558.00 L 862.00 1390.00 L 862.00 1395.00 L 950.00 1573.00 L 951.00 1579.00 L 865.00 1413.00 L 863.00 1420.00 L 945.00 1600.00 L 940.00 1594.00 L 848.00 1402.00 L 846.00 1405.00 L 934.00 1603.00 L 933.00 1603.00 L 843.00 1405.00 L 839.00 1409.00 L 921.00 1615.00 L 955.00 1720.00 L 941.00 1724.00 L 925.00 1722.00 L 907.00 1714.00 L 829.00 1654.00 L 691.00 1542.00 L 594.00 1477.00 L 538.00 1459.00 L 456.00 1444.00 L 348.00 1432.00 L 291.00 1405.00 L 285.00 1363.00 L 303.00 1276.00 L 345.00 1144.00 L 359.00 1078.00 L 345.00 1078.00 L 345.00 1074.00 L 359.00 1066.00 L 357.00 1063.00 L 339.00 1065.00 L 339.00 1063.00 L 357.00 1057.00 L 356.00 1056.00 L 336.00 1060.00 L 329.00 1045.00 L 335.00 1011.00 L 338.00 991.00 L 338.00 985.00 L 309.00 981.00 Z" fill="black" stroke="black" stroke-width="1"/>
</svg>