<?xml version="1.0" encoding="UTF-8"?>
<svg xmlns="http://www.w3.org/2000/svg" viewBox="484.00 177.00 926.00 1574.00">
  <path d="M 550.00 970.00 L 542.00 962.00 L 538.00 950.00 L 538.00 934.00 L 544.00 912.00 L 556.00 884.00 L 557.00 859.00 L 547.00 837.00 L 544.00 818.00 L 548.00 802.00 L 548.00 788.00 L 544.00 776.00 L 546.00 762.00 L 554.00 746.00 L 546.00 727.00 L 522.00 705.00 L 522.00 702.00 L 546.00 718.00 L 545.00 716.00 L 519.00 696.00 L 517.00 693.00 L 539.00 707.00 L 539.00 705.00 L 517.00 687.00 L 520.00 688.00 L 548.00 708.00 L 548.00 705.00 L 520.00 679.00 L 507.00 661.00 L 509.00 651.00 L 538.00 620.00 L 594.00 568.00 L 622.00 539.00 L 622.00 533.00 L 623.00 531.00 L 625.00 533.00 L 622.00 527.00 L 614.00 513.00 L 612.00 509.00 L 616.00 515.00 L 617.00 512.00 L 615.00 500.00 L 618.00 483.00 L 626.00 461.00 L 635.00 444.00 L 645.00 432.00 L 648.00 418.00 L 644.00 402.00 L 645.00 399.00 L 651.00 409.00 L 652.00 406.00 L 648.00 390.00 L 656.00 362.00 L 676.00 322.00 L 693.00 295.00 L 707.00 281.00 L 725.00 269.00 L 747.00 259.00 L 767.00 247.00 L 785.00 233.00 L 821.00 217.00 L 875.00 199.00 L 944.00 189.00 L 1028.00 187.00 L 1099.00 196.00 L 1157.00 216.00 L 1203.00 237.00 L 1237.00 259.00 L 1263.00 279.00 L 1281.00 297.00 L 1307.00 332.00 L 1341.00 384.00 L 1369.00 446.00 L 1391.00 518.00 L 1400.00 579.00 L 1396.00 629.00 L 1387.00 677.00 L 1373.00 723.00 L 1354.00 774.00 L 1330.00 830.00 L 1307.00 863.00 L 1285.00 873.00 L 1285.00 875.00 L 1307.00 869.00 L 1305.00 871.00 L 1279.00 881.00 L 1277.00 885.00 L 1299.00 883.00 L 1300.00 886.00 L 1280.00 894.00 L 1279.00 896.00 L 1297.00 892.00 L 1297.00 895.00 L 1279.00 905.00 L 1271.00 926.00 L 1273.00 958.00 L 1280.00 1001.00 L 1292.00 1055.00 L 1296.00 1092.00 L 1292.00 1112.00 L 1298.00 1132.00 L 1314.00 1152.00 L 1323.00 1171.00 L 1325.00 1189.00 L 1338.00 1219.00 L 1362.00 1261.00 L 1378.00 1302.00 L 1386.00 1342.00 L 1390.00 1372.00 L 1390.00 1392.00 L 1387.00 1406.00 L 1381.00 1414.00 L 1349.00 1410.00 L 1291.00 1394.00 L 1242.00 1385.00 L 1202.00 1383.00 L 1161.00 1384.00 L 1119.00 1388.00 L 1068.00 1401.00 L 1008.00 1423.00 L 977.00 1432.00 L 975.00 1428.00 L 971.00 1427.00 L 965.00 1429.00 L 961.00 1433.00 L 959.00 1439.00 L 944.00 1448.00 L 916.00 1460.00 L 874.00 1484.00 L 818.00 1520.00 L 753.00 1567.00 L 679.00 1625.00 L 630.00 1667.00 L 606.00 1693.00 L 583.00 1714.00 L 561.00 1730.00 L 545.00 1739.00 L 535.00 1741.00 L 524.00 1736.00 L 512.00 1724.00 L 503.00 1709.00 L 497.00 1691.00 L 494.00 1669.00 L 494.00 1643.00 L 498.00 1609.00 L 506.00 1567.00 L 525.00 1511.00 L 555.00 1441.00 L 586.00 1385.00 L 618.00 1343.00 L 619.00 1341.00 L 589.00 1379.00 L 588.00 1380.00 L 616.00 1344.00 L 617.00 1342.00 L 591.00 1374.00 L 592.00 1371.00 L 620.00 1333.00 L 621.00 1330.00 L 595.00 1362.00 L 610.00 1342.00 L 666.00 1270.00 L 680.00 1251.00 L 652.00 1285.00 L 650.00 1286.00 L 674.00 1254.00 L 675.00 1251.00 L 653.00 1277.00 L 654.00 1274.00 L 678.00 1242.00 L 680.00 1237.00 L 660.00 1259.00 L 659.00 1257.00 L 677.00 1231.00 L 686.00 1210.00 L 686.00 1194.00 L 682.00 1188.00 L 674.00 1192.00 L 673.00 1190.00 L 679.00 1182.00 L 652.00 1200.00 L 592.00 1244.00 L 584.00 1247.00 L 628.00 1209.00 L 626.00 1209.00 L 578.00 1247.00 L 578.00 1244.00 L 626.00 1200.00 L 623.00 1199.00 L 569.00 1241.00 L 570.00 1238.00 L 626.00 1190.00 L 634.00 1181.00 L 594.00 1211.00 L 590.00 1213.00 L 622.00 1187.00 L 623.00 1185.00 L 593.00 1207.00 L 598.00 1203.00 L 638.00 1173.00 L 639.00 1170.00 L 601.00 1194.00 L 585.00 1199.00 L 591.00 1185.00 L 600.00 1172.00 L 612.00 1160.00 L 616.00 1151.00 L 612.00 1145.00 L 620.00 1135.00 L 640.00 1121.00 L 640.00 1119.00 L 620.00 1129.00 L 620.00 1127.00 L 640.00 1113.00 L 642.00 1110.00 L 626.00 1118.00 L 625.00 1115.00 L 639.00 1101.00 L 644.00 1088.00 L 640.00 1076.00 L 629.00 1058.00 L 611.00 1034.00 L 603.00 1017.00 L 605.00 1007.00 L 595.00 997.00 L 573.00 987.00 L 560.00 980.00 L 556.00 976.00 L 550.00 970.00 Z" fill="black" stroke="black" stroke-width="1"/>
</svg>