<?xml version="1.0" encoding="UTF-8"?>
<svg xmlns="http://www.w3.org/2000/svg" viewBox="191.00 272.00 900.00 1468.00">
  <path d="M 215.00 872.00 L 201.00 772.00 L 208.00 679.00 L 236.00 593.00 L 241.00 538.00 L 223.00 514.00 L 225.00 511.00 L 247.00 529.00 L 247.00 524.00 L 225.00 496.00 L 227.00 493.00 L 253.00 515.00 L 252.00 512.00 L 224.00 484.00 L 227.00 481.00 L 261.00 503.00 L 264.00 495.00 L 236.00 457.00 L 238.00 455.00 L 270.00 489.00 L 273.00 486.00 L 247.00 446.00 L 252.00 442.00 L 288.00 474.00 L 291.00 471.00 L 261.00 433.00 L 263.00 432.00 L 297.00 468.00 L 300.00 463.00 L 272.00 417.00 L 276.00 416.00 L 312.00 460.00 L 314.00 458.00 L 282.00 410.00 L 284.00 408.00 L 320.00 452.00 L 322.00 451.00 L 290.00 405.00 L 292.00 403.00 L 328.00 445.00 L 331.00 443.00 L 301.00 397.00 L 303.00 396.00 L 337.00 440.00 L 339.00 439.00 L 309.00 393.00 L 311.00 392.00 L 345.00 436.00 L 348.00 435.00 L 320.00 389.00 L 335.00 366.00 L 393.00 366.00 L 424.00 354.00 L 428.00 330.00 L 441.00 322.00 L 463.00 330.00 L 488.00 321.00 L 516.00 295.00 L 543.00 282.00 L 569.00 282.00 L 588.00 319.00 L 600.00 393.00 L 602.00 392.00 L 594.00 316.00 L 597.00 316.00 L 611.00 392.00 L 615.00 389.00 L 609.00 307.00 L 612.00 307.00 L 624.00 389.00 L 630.00 389.00 L 630.00 307.00 L 634.00 307.00 L 642.00 389.00 L 644.00 389.00 L 640.00 307.00 L 643.00 307.00 L 653.00 389.00 L 658.00 390.00 L 658.00 310.00 L 660.00 310.00 L 664.00 390.00 L 667.00 390.00 L 669.00 310.00 L 672.00 310.00 L 676.00 390.00 L 679.00 391.00 L 681.00 313.00 L 683.00 314.00 L 685.00 394.00 L 688.00 395.00 L 692.00 317.00 L 694.00 317.00 L 694.00 395.00 L 696.00 396.00 L 700.00 320.00 L 703.00 320.00 L 705.00 396.00 L 710.00 399.00 L 718.00 329.00 L 720.00 329.00 L 716.00 399.00 L 718.00 401.00 L 726.00 335.00 L 729.00 335.00 L 727.00 401.00 L 731.00 406.00 L 741.00 350.00 L 745.00 350.00 L 743.00 406.00 L 745.00 414.00 L 751.00 374.00 L 754.00 372.00 L 754.00 408.00 L 774.00 427.00 L 814.00 429.00 L 866.00 447.00 L 930.00 481.00 L 958.00 512.00 L 950.00 540.00 L 953.00 546.00 L 967.00 530.00 L 967.00 532.00 L 953.00 552.00 L 956.00 555.00 L 976.00 541.00 L 979.00 545.00 L 965.00 567.00 L 969.00 567.00 L 991.00 545.00 L 992.00 548.00 L 972.00 576.00 L 977.00 575.00 L 1007.00 545.00 L 1008.00 547.00 L 980.00 581.00 L 983.00 582.00 L 1017.00 550.00 L 1018.00 552.00 L 986.00 588.00 L 988.00 589.00 L 1024.00 555.00 L 1025.00 557.00 L 991.00 595.00 L 994.00 597.00 L 1034.00 563.00 L 1035.00 566.00 L 997.00 606.00 L 998.00 609.00 L 1038.00 575.00 L 1039.00 578.00 L 1001.00 618.00 L 997.00 624.00 L 1027.00 596.00 L 1027.00 599.00 L 997.00 633.00 L 982.00 683.00 L 982.00 749.00 L 1002.00 821.00 L 1042.00 899.00 L 1048.00 946.00 L 1020.00 962.00 L 997.00 1013.00 L 979.00 1099.00 L 935.00 1156.00 L 865.00 1184.00 L 901.00 1326.00 L 1043.00 1582.00 L 1042.00 1584.00 L 898.00 1332.00 L 898.00 1342.00 L 1042.00 1614.00 L 1041.00 1616.00 L 895.00 1348.00 L 894.00 1350.00 L 1038.00 1622.00 L 1081.00 1708.00 L 1023.00 1608.00 L 1020.00 1613.00 L 1072.00 1723.00 L 1028.00 1640.00 L 888.00 1364.00 L 885.00 1368.00 L 1019.00 1652.00 L 1018.00 1654.00 L 882.00 1374.00 L 878.00 1378.00 L 1006.00 1666.00 L 1005.00 1668.00 L 875.00 1384.00 L 871.00 1386.00 L 993.00 1674.00 L 992.00 1676.00 L 868.00 1392.00 L 864.00 1393.00 L 980.00 1679.00 L 998.00 1730.00 L 918.00 1546.00 L 911.00 1542.00 L 977.00 1718.00 L 958.00 1672.00 L 854.00 1404.00 L 853.00 1403.00 L 955.00 1669.00 L 955.00 1672.00 L 853.00 1412.00 L 847.00 1405.00 L 937.00 1651.00 L 937.00 1654.00 L 847.00 1414.00 L 842.00 1409.00 L 922.00 1639.00 L 922.00 1642.00 L 842.00 1418.00 L 840.00 1415.00 L 916.00 1633.00 L 916.00 1636.00 L 840.00 1424.00 L 836.00 1420.00 L 904.00 1624.00 L 904.00 1628.00 L 836.00 1432.00 L 829.00 1426.00 L 883.00 1610.00 L 836.00 1648.00 L 688.00 1540.00 L 562.00 1468.00 L 458.00 1432.00 L 419.00 1358.00 L 445.00 1246.00 L 457.00 1153.00 L 455.00 1079.00 L 445.00 1034.00 L 427.00 1018.00 L 396.00 1012.00 L 352.00 1016.00 L 345.00 1014.00 L 375.00 1006.00 L 371.00 1005.00 L 333.00 1011.00 L 329.00 1010.00 L 359.00 1002.00 L 355.00 1000.00 L 317.00 1004.00 L 282.00 988.00 L 250.00 952.00 L 231.00 931.00 L 225.00 925.00 L 215.00 872.00 Z" fill="black" stroke="black" stroke-width="1"/>
</svg>