<?xml version="1.0" encoding="UTF-8"?>
<svg xmlns="http://www.w3.org/2000/svg" viewBox="291.00 269.00 893.00 1468.00">
  <path d="M 443.00 987.00 L 461.00 965.00 L 470.00 948.00 L 470.00 936.00 L 425.00 844.00 L 335.00 672.00 L 301.00 573.00 L 323.00 547.00 L 348.00 524.00 L 376.00 504.00 L 455.00 455.00 L 585.00 377.00 L 670.00 324.00 L 710.00 296.00 L 736.00 281.00 L 748.00 279.00 L 761.00 285.00 L 775.00 299.00 L 810.00 345.00 L 866.00 423.00 L 918.00 501.00 L 966.00 579.00 L 1003.00 623.00 L 1029.00 633.00 L 1056.00 639.00 L 1084.00 641.00 L 1080.00 663.00 L 1044.00 705.00 L 1047.00 706.00 L 1089.00 666.00 L 1092.00 665.00 L 1056.00 703.00 L 1058.00 703.00 L 1098.00 665.00 L 1097.00 667.00 L 1055.00 709.00 L 1042.00 724.00 L 1058.00 712.00 L 1058.00 714.00 L 1042.00 730.00 L 1058.00 716.00 L 1106.00 672.00 L 1132.00 650.00 L 1136.00 650.00 L 1113.00 675.00 L 1063.00 725.00 L 1065.00 726.00 L 1119.00 678.00 L 1134.00 666.00 L 1110.00 690.00 L 1113.00 691.00 L 1143.00 669.00 L 1130.00 684.00 L 1074.00 736.00 L 1077.00 737.00 L 1139.00 687.00 L 1139.00 689.00 L 1077.00 743.00 L 1079.00 744.00 L 1145.00 692.00 L 1171.00 672.00 L 1157.00 684.00 L 1158.00 685.00 L 1174.00 675.00 L 1149.00 697.00 L 1083.00 751.00 L 1052.00 787.00 L 1056.00 805.00 L 1056.00 826.00 L 1052.00 850.00 L 1051.00 867.00 L 1053.00 877.00 L 1069.00 908.00 L 1099.00 960.00 L 1114.00 991.00 L 1114.00 1001.00 L 1110.00 1010.00 L 1102.00 1018.00 L 1089.00 1023.00 L 1071.00 1025.00 L 1063.00 1037.00 L 1065.00 1059.00 L 1062.00 1075.00 L 1054.00 1085.00 L 1051.00 1094.00 L 1053.00 1102.00 L 1048.00 1115.00 L 1036.00 1133.00 L 1032.00 1148.00 L 1036.00 1160.00 L 1037.00 1181.00 L 1035.00 1211.00 L 1023.00 1238.00 L 1001.00 1262.00 L 993.00 1279.00 L 999.00 1289.00 L 999.00 1292.00 L 993.00 1288.00 L 993.00 1291.00 L 999.00 1301.00 L 1000.00 1308.00 L 996.00 1312.00 L 995.00 1318.00 L 997.00 1326.00 L 994.00 1325.00 L 986.00 1315.00 L 987.00 1322.00 L 997.00 1346.00 L 994.00 1348.00 L 978.00 1328.00 L 977.00 1330.00 L 991.00 1354.00 L 993.00 1360.00 L 983.00 1348.00 L 981.00 1348.00 L 987.00 1360.00 L 983.00 1356.00 L 969.00 1336.00 L 960.00 1327.00 L 956.00 1329.00 L 952.00 1327.00 L 948.00 1321.00 L 961.00 1349.00 L 991.00 1411.00 L 998.00 1429.00 L 982.00 1403.00 L 983.00 1407.00 L 1001.00 1441.00 L 1011.00 1466.00 L 1013.00 1482.00 L 1022.00 1508.00 L 1038.00 1544.00 L 1050.00 1577.00 L 1058.00 1607.00 L 1061.00 1620.00 L 1059.00 1616.00 L 1058.00 1629.00 L 1058.00 1659.00 L 1050.00 1685.00 L 1034.00 1707.00 L 1017.00 1721.00 L 999.00 1727.00 L 979.00 1724.00 L 957.00 1712.00 L 921.00 1674.00 L 871.00 1610.00 L 821.00 1554.00 L 771.00 1506.00 L 728.00 1470.00 L 692.00 1446.00 L 657.00 1426.00 L 623.00 1410.00 L 592.00 1398.00 L 564.00 1390.00 L 528.00 1385.00 L 484.00 1383.00 L 448.00 1385.00 L 420.00 1391.00 L 404.00 1391.00 L 400.00 1385.00 L 397.00 1383.00 L 395.00 1385.00 L 407.00 1360.00 L 433.00 1308.00 L 449.00 1262.00 L 455.00 1222.00 L 462.00 1191.00 L 470.00 1169.00 L 472.00 1156.00 L 468.00 1152.00 L 467.00 1140.00 L 469.00 1120.00 L 454.00 1113.00 L 422.00 1119.00 L 422.00 1116.00 L 454.00 1104.00 L 452.00 1102.00 L 416.00 1110.00 L 417.00 1107.00 L 455.00 1093.00 L 454.00 1091.00 L 414.00 1101.00 L 414.00 1099.00 L 454.00 1085.00 L 454.00 1083.00 L 414.00 1093.00 L 415.00 1090.00 L 457.00 1074.00 L 457.00 1071.00 L 415.00 1081.00 L 411.00 1081.00 L 445.00 1071.00 L 445.00 1069.00 L 411.00 1075.00 L 415.00 1073.00 L 457.00 1063.00 L 458.00 1061.00 L 418.00 1067.00 L 417.00 1065.00 L 455.00 1055.00 L 455.00 1053.00 L 417.00 1059.00 L 419.00 1058.00 L 461.00 1050.00 L 462.00 1048.00 L 422.00 1052.00 L 409.00 1042.00 L 423.00 1018.00 L 431.00 1004.00 L 433.00 1000.00 L 443.00 987.00 Z" fill="black" stroke="black" stroke-width="1"/>
</svg>