<?xml version="1.0" encoding="UTF-8"?>
<svg xmlns="http://www.w3.org/2000/svg" viewBox="336.00 352.00 738.00 1308.00">
  <path d="M 419.00 990.00 L 421.00 966.00 L 426.00 946.00 L 434.00 930.00 L 430.00 918.00 L 414.00 910.00 L 414.00 907.00 L 430.00 909.00 L 430.00 907.00 L 414.00 901.00 L 390.00 850.00 L 358.00 754.00 L 346.00 670.00 L 354.00 598.00 L 363.00 548.00 L 373.00 520.00 L 386.00 495.00 L 402.00 473.00 L 425.00 448.00 L 455.00 420.00 L 486.00 398.00 L 518.00 382.00 L 574.00 370.00 L 654.00 362.00 L 727.00 366.00 L 793.00 382.00 L 852.00 409.00 L 904.00 447.00 L 944.00 485.00 L 972.00 523.00 L 985.00 549.00 L 983.00 563.00 L 985.00 566.00 L 991.00 558.00 L 993.00 561.00 L 991.00 575.00 L 993.00 577.00 L 999.00 567.00 L 999.00 570.00 L 993.00 586.00 L 994.00 588.00 L 1002.00 576.00 L 1003.00 581.00 L 997.00 603.00 L 998.00 608.00 L 1006.00 596.00 L 1007.00 600.00 L 1001.00 620.00 L 1002.00 625.00 L 1010.00 615.00 L 1012.00 615.00 L 1008.00 625.00 L 1008.00 628.00 L 1012.00 624.00 L 1011.00 627.00 L 1005.00 637.00 L 1006.00 639.00 L 1014.00 633.00 L 1014.00 636.00 L 1006.00 648.00 L 1006.00 649.00 L 1014.00 639.00 L 1014.00 641.00 L 1006.00 655.00 L 1007.00 657.00 L 1017.00 647.00 L 1018.00 650.00 L 1010.00 666.00 L 1011.00 669.00 L 1021.00 659.00 L 1021.00 661.00 L 1011.00 675.00 L 1011.00 677.00 L 1021.00 667.00 L 1020.00 673.00 L 1008.00 695.00 L 1001.00 717.00 L 999.00 739.00 L 1013.00 774.00 L 1043.00 822.00 L 1060.00 855.00 L 1064.00 873.00 L 1053.00 891.00 L 1027.00 909.00 L 1014.00 932.00 L 1014.00 960.00 L 1010.00 977.00 L 1002.00 983.00 L 998.00 993.00 L 998.00 1007.00 L 991.00 1021.00 L 977.00 1035.00 L 972.00 1055.00 L 976.00 1081.00 L 967.00 1103.00 L 945.00 1121.00 L 938.00 1137.00 L 946.00 1151.00 L 942.00 1164.00 L 926.00 1176.00 L 925.00 1194.00 L 939.00 1218.00 L 936.00 1221.00 L 916.00 1203.00 L 905.00 1196.00 L 903.00 1200.00 L 922.00 1232.00 L 962.00 1292.00 L 968.00 1303.00 L 940.00 1265.00 L 939.00 1266.00 L 965.00 1306.00 L 962.00 1304.00 L 930.00 1260.00 L 928.00 1258.00 L 956.00 1298.00 L 953.00 1296.00 L 919.00 1252.00 L 914.00 1248.00 L 938.00 1284.00 L 935.00 1287.00 L 905.00 1257.00 L 923.00 1307.00 L 989.00 1437.00 L 1019.00 1497.00 L 1013.00 1487.00 L 1014.00 1490.00 L 1022.00 1506.00 L 993.00 1454.00 L 927.00 1334.00 L 928.00 1337.00 L 996.00 1463.00 L 1022.00 1512.00 L 1006.00 1484.00 L 1007.00 1487.00 L 1025.00 1521.00 L 1023.00 1518.00 L 1001.00 1478.00 L 1002.00 1482.00 L 1026.00 1530.00 L 1023.00 1527.00 L 993.00 1473.00 L 994.00 1478.00 L 1026.00 1542.00 L 1004.00 1501.00 L 928.00 1355.00 L 927.00 1361.00 L 1001.00 1519.00 L 999.00 1519.00 L 921.00 1361.00 L 921.00 1365.00 L 999.00 1531.00 L 999.00 1533.00 L 921.00 1371.00 L 920.00 1374.00 L 996.00 1542.00 L 999.00 1552.00 L 929.00 1404.00 L 927.00 1407.00 L 993.00 1561.00 L 990.00 1556.00 L 918.00 1392.00 L 917.00 1393.00 L 987.00 1559.00 L 987.00 1561.00 L 917.00 1399.00 L 915.00 1400.00 L 981.00 1564.00 L 1012.00 1647.00 L 1008.00 1649.00 L 996.00 1650.00 L 976.00 1650.00 L 929.00 1618.00 L 855.00 1554.00 L 766.00 1495.00 L 662.00 1441.00 L 550.00 1406.00 L 430.00 1390.00 L 370.00 1362.00 L 370.00 1322.00 L 383.00 1256.00 L 409.00 1164.00 L 418.00 1110.00 L 410.00 1094.00 L 409.00 1068.00 L 415.00 1032.00 L 418.00 1011.00 L 418.00 1005.00 L 419.00 990.00 Z" fill="black" stroke="black" stroke-width="1"/>
</svg>