<?xml version="1.0" encoding="UTF-8"?>
<svg xmlns="http://www.w3.org/2000/svg" viewBox="350.00 334.00 841.00 1332.00">
  <path d="M 486.00 991.00 L 478.00 977.00 L 477.00 966.00 L 483.00 958.00 L 482.00 949.00 L 474.00 939.00 L 473.00 923.00 L 479.00 901.00 L 471.00 883.00 L 449.00 869.00 L 447.00 866.00 L 465.00 874.00 L 463.00 872.00 L 441.00 860.00 L 430.00 849.00 L 430.00 839.00 L 445.00 815.00 L 475.00 777.00 L 494.00 750.00 L 502.00 734.00 L 504.00 717.00 L 500.00 699.00 L 499.00 679.00 L 501.00 657.00 L 505.00 635.00 L 511.00 613.00 L 521.00 588.00 L 535.00 560.00 L 540.00 539.00 L 536.00 525.00 L 537.00 523.00 L 543.00 533.00 L 544.00 531.00 L 540.00 517.00 L 541.00 516.00 L 547.00 528.00 L 547.00 526.00 L 541.00 510.00 L 542.00 509.00 L 550.00 523.00 L 551.00 522.00 L 545.00 506.00 L 546.00 504.00 L 554.00 516.00 L 555.00 514.00 L 549.00 498.00 L 548.00 494.00 L 552.00 502.00 L 553.00 500.00 L 551.00 488.00 L 554.00 490.00 L 562.00 506.00 L 564.00 504.00 L 560.00 484.00 L 562.00 482.00 L 570.00 498.00 L 575.00 505.00 L 577.00 503.00 L 575.00 493.00 L 569.00 475.00 L 569.00 473.00 L 575.00 487.00 L 580.00 494.00 L 584.00 494.00 L 584.00 486.00 L 580.00 470.00 L 583.00 460.00 L 593.00 456.00 L 605.00 446.00 L 619.00 430.00 L 634.00 419.00 L 650.00 413.00 L 669.00 402.00 L 691.00 386.00 L 714.00 377.00 L 738.00 375.00 L 758.00 370.00 L 774.00 362.00 L 792.00 358.00 L 812.00 358.00 L 827.00 356.00 L 837.00 352.00 L 852.00 351.00 L 872.00 353.00 L 890.00 351.00 L 906.00 345.00 L 927.00 344.00 L 953.00 348.00 L 977.00 349.00 L 999.00 347.00 L 1015.00 348.00 L 1025.00 352.00 L 1045.00 363.00 L 1075.00 381.00 L 1103.00 403.00 L 1129.00 429.00 L 1147.00 453.00 L 1157.00 475.00 L 1166.00 504.00 L 1174.00 540.00 L 1179.00 585.00 L 1181.00 639.00 L 1179.00 675.00 L 1173.00 693.00 L 1168.00 720.00 L 1164.00 756.00 L 1150.00 804.00 L 1126.00 864.00 L 1114.00 903.00 L 1114.00 921.00 L 1108.00 934.00 L 1096.00 942.00 L 1094.00 946.00 L 1102.00 946.00 L 1103.00 948.00 L 1097.00 952.00 L 1100.00 965.00 L 1112.00 987.00 L 1118.00 1016.00 L 1118.00 1052.00 L 1122.00 1086.00 L 1130.00 1118.00 L 1134.00 1140.00 L 1134.00 1152.00 L 1131.00 1162.00 L 1125.00 1170.00 L 1123.00 1228.00 L 1125.00 1336.00 L 1122.00 1401.00 L 1114.00 1423.00 L 1103.00 1435.00 L 1089.00 1437.00 L 1063.00 1431.00 L 1025.00 1417.00 L 985.00 1407.00 L 943.00 1401.00 L 896.00 1399.00 L 844.00 1401.00 L 803.00 1405.00 L 773.00 1411.00 L 721.00 1431.00 L 647.00 1465.00 L 583.00 1501.00 L 529.00 1539.00 L 474.00 1583.00 L 418.00 1633.00 L 385.00 1656.00 L 375.00 1652.00 L 367.00 1639.00 L 361.00 1617.00 L 360.00 1599.00 L 364.00 1585.00 L 381.00 1551.00 L 411.00 1497.00 L 417.00 1483.00 L 399.00 1509.00 L 428.00 1466.00 L 504.00 1354.00 L 506.00 1350.00 L 434.00 1454.00 L 434.00 1452.00 L 506.00 1344.00 L 516.00 1327.00 L 464.00 1401.00 L 460.00 1406.00 L 504.00 1342.00 L 521.00 1317.00 L 511.00 1331.00 L 516.00 1319.00 L 536.00 1281.00 L 546.00 1260.00 L 546.00 1256.00 L 537.00 1263.00 L 519.00 1281.00 L 502.00 1294.00 L 486.00 1302.00 L 492.00 1290.00 L 520.00 1258.00 L 519.00 1258.00 L 489.00 1290.00 L 487.00 1291.00 L 513.00 1261.00 L 511.00 1262.00 L 481.00 1294.00 L 481.00 1292.00 L 511.00 1256.00 L 509.00 1256.00 L 475.00 1292.00 L 473.00 1292.00 L 503.00 1256.00 L 501.00 1255.00 L 467.00 1289.00 L 472.00 1282.00 L 516.00 1234.00 L 531.00 1216.00 L 517.00 1228.00 L 515.00 1228.00 L 525.00 1216.00 L 524.00 1215.00 L 512.00 1225.00 L 514.00 1222.00 L 530.00 1206.00 L 534.00 1201.00 L 526.00 1207.00 L 526.00 1205.00 L 534.00 1195.00 L 529.00 1197.00 L 511.00 1211.00 L 510.00 1209.00 L 526.00 1191.00 L 532.00 1174.00 L 528.00 1158.00 L 531.00 1144.00 L 541.00 1132.00 L 541.00 1129.00 L 531.00 1135.00 L 529.00 1134.00 L 535.00 1126.00 L 530.00 1119.00 L 514.00 1113.00 L 500.00 1104.00 L 488.00 1092.00 L 480.00 1080.00 L 476.00 1068.00 L 479.00 1048.00 L 489.00 1020.00 L 493.00 1004.00 L 491.00 1000.00 L 486.00 991.00 Z" fill="black" stroke="black" stroke-width="1"/>
</svg>