<?xml version="1.0" encoding="UTF-8"?>
<svg xmlns="http://www.w3.org/2000/svg" viewBox="440.00 304.00 903.00 1275.00">
  <path d="M 513.00 891.00 L 519.00 869.00 L 509.00 850.00 L 483.00 834.00 L 492.00 795.00 L 536.00 733.00 L 554.00 689.00 L 546.00 663.00 L 546.00 653.00 L 554.00 659.00 L 555.00 657.00 L 549.00 647.00 L 549.00 644.00 L 555.00 648.00 L 557.00 643.00 L 555.00 629.00 L 558.00 621.00 L 566.00 619.00 L 568.00 612.00 L 564.00 600.00 L 566.00 598.00 L 574.00 606.00 L 574.00 603.00 L 566.00 589.00 L 567.00 587.00 L 577.00 597.00 L 578.00 593.00 L 570.00 575.00 L 572.00 572.00 L 584.00 584.00 L 584.00 581.00 L 572.00 563.00 L 573.00 561.00 L 587.00 575.00 L 589.00 572.00 L 579.00 552.00 L 580.00 550.00 L 592.00 566.00 L 594.00 563.00 L 586.00 541.00 L 588.00 537.00 L 600.00 551.00 L 602.00 549.00 L 594.00 531.00 L 596.00 527.00 L 608.00 537.00 L 611.00 535.00 L 605.00 521.00 L 606.00 520.00 L 614.00 532.00 L 615.00 530.00 L 609.00 514.00 L 610.00 512.00 L 618.00 524.00 L 622.00 518.00 L 622.00 494.00 L 658.00 463.00 L 730.00 425.00 L 766.00 391.00 L 766.00 361.00 L 769.00 360.00 L 775.00 388.00 L 778.00 383.00 L 778.00 345.00 L 781.00 344.00 L 787.00 380.00 L 789.00 379.00 L 787.00 341.00 L 789.00 340.00 L 795.00 376.00 L 798.00 374.00 L 798.00 334.00 L 801.00 333.00 L 807.00 371.00 L 812.00 370.00 L 816.00 330.00 L 819.00 331.00 L 821.00 373.00 L 824.00 373.00 L 828.00 331.00 L 832.00 330.00 L 836.00 370.00 L 838.00 370.00 L 838.00 330.00 L 840.00 330.00 L 844.00 370.00 L 847.00 371.00 L 849.00 333.00 L 861.00 314.00 L 883.00 314.00 L 922.00 325.00 L 978.00 347.00 L 1018.00 354.00 L 1042.00 346.00 L 1061.00 356.00 L 1075.00 384.00 L 1107.00 391.00 L 1157.00 377.00 L 1203.00 384.00 L 1245.00 412.00 L 1273.00 445.00 L 1287.00 483.00 L 1284.00 512.00 L 1264.00 532.00 L 1263.00 535.00 L 1281.00 521.00 L 1283.00 523.00 L 1269.00 541.00 L 1279.00 571.00 L 1313.00 613.00 L 1331.00 666.00 L 1333.00 730.00 L 1332.00 766.00 L 1328.00 774.00 L 1301.00 785.00 L 1251.00 799.00 L 1250.00 801.00 L 1298.00 791.00 L 1297.00 793.00 L 1247.00 807.00 L 1246.00 810.00 L 1294.00 802.00 L 1294.00 804.00 L 1246.00 816.00 L 1245.00 817.00 L 1291.00 807.00 L 1290.00 809.00 L 1242.00 823.00 L 1237.00 826.00 L 1275.00 818.00 L 1275.00 820.00 L 1237.00 832.00 L 1211.00 851.00 L 1197.00 877.00 L 1175.00 903.00 L 1145.00 929.00 L 1107.00 949.00 L 1061.00 963.00 L 1041.00 999.00 L 1047.00 1057.00 L 1068.00 1109.00 L 1104.00 1155.00 L 1109.00 1168.00 L 1083.00 1148.00 L 1087.00 1156.00 L 1121.00 1192.00 L 1144.00 1231.00 L 1156.00 1273.00 L 1117.00 1305.00 L 1027.00 1327.00 L 932.00 1360.00 L 832.00 1404.00 L 722.00 1472.00 L 602.00 1564.00 L 580.00 1519.00 L 656.00 1337.00 L 654.00 1339.00 L 574.00 1525.00 L 576.00 1519.00 L 660.00 1321.00 L 657.00 1324.00 L 567.00 1528.00 L 568.00 1524.00 L 660.00 1312.00 L 653.00 1318.00 L 547.00 1542.00 L 548.00 1537.00 L 656.00 1303.00 L 654.00 1305.00 L 542.00 1543.00 L 542.00 1541.00 L 654.00 1299.00 L 651.00 1297.00 L 533.00 1535.00 L 533.00 1533.00 L 651.00 1291.00 L 650.00 1289.00 L 530.00 1527.00 L 530.00 1524.00 L 650.00 1280.00 L 647.00 1276.00 L 521.00 1512.00 L 490.00 1569.00 L 554.00 1447.00 L 553.00 1445.00 L 487.00 1563.00 L 484.00 1566.00 L 544.00 1454.00 L 542.00 1451.00 L 478.00 1557.00 L 511.00 1494.00 L 641.00 1262.00 L 640.00 1259.00 L 508.00 1485.00 L 507.00 1483.00 L 637.00 1253.00 L 636.00 1248.00 L 504.00 1468.00 L 458.00 1544.00 L 498.00 1476.00 L 497.00 1474.00 L 455.00 1538.00 L 452.00 1540.00 L 488.00 1480.00 L 488.00 1477.00 L 452.00 1531.00 L 450.00 1532.00 L 482.00 1480.00 L 482.00 1477.00 L 450.00 1523.00 L 500.00 1442.00 L 632.00 1234.00 L 633.00 1231.00 L 503.00 1433.00 L 501.00 1431.00 L 627.00 1225.00 L 651.00 1105.00 L 573.00 1071.00 L 529.00 1019.00 L 519.00 949.00 L 513.00 911.00 L 511.00 905.00 L 513.00 891.00 Z" fill="black" stroke="black" stroke-width="1"/>
</svg>