<?xml version="1.0" encoding="UTF-8"?>
<svg xmlns="http://www.w3.org/2000/svg" viewBox="391.00 330.00 966.00 1316.00">
  <path d="M 562.00 949.00 L 562.00 899.00 L 547.00 862.00 L 517.00 838.00 L 520.00 800.00 L 556.00 748.00 L 571.00 687.00 L 565.00 617.00 L 576.00 556.00 L 604.00 504.00 L 659.00 456.00 L 741.00 412.00 L 835.00 389.00 L 941.00 387.00 L 998.00 374.00 L 1006.00 350.00 L 1008.00 350.00 L 1004.00 374.00 L 1008.00 371.00 L 1020.00 341.00 L 1025.00 342.00 L 1023.00 374.00 L 1030.00 374.00 L 1046.00 342.00 L 1049.00 343.00 L 1039.00 377.00 L 1041.00 377.00 L 1055.00 343.00 L 1057.00 343.00 L 1047.00 377.00 L 1048.00 377.00 L 1060.00 343.00 L 1062.00 342.00 L 1054.00 374.00 L 1056.00 375.00 L 1068.00 345.00 L 1093.00 340.00 L 1131.00 360.00 L 1158.00 363.00 L 1174.00 349.00 L 1187.00 344.00 L 1197.00 348.00 L 1206.00 372.00 L 1214.00 416.00 L 1226.00 445.00 L 1242.00 459.00 L 1253.00 479.00 L 1259.00 505.00 L 1269.00 519.00 L 1283.00 521.00 L 1299.00 537.00 L 1317.00 567.00 L 1333.00 626.00 L 1347.00 714.00 L 1323.00 773.00 L 1261.00 803.00 L 1260.00 806.00 L 1320.00 782.00 L 1318.00 784.00 L 1254.00 812.00 L 1253.00 815.00 L 1315.00 793.00 L 1314.00 795.00 L 1250.00 821.00 L 1249.00 824.00 L 1311.00 804.00 L 1309.00 807.00 L 1243.00 833.00 L 1242.00 836.00 L 1306.00 816.00 L 1305.00 818.00 L 1239.00 842.00 L 1238.00 844.00 L 1302.00 824.00 L 1301.00 827.00 L 1235.00 853.00 L 1233.00 856.00 L 1295.00 836.00 L 1294.00 839.00 L 1230.00 865.00 L 1162.00 914.00 L 1090.00 986.00 L 1053.00 1056.00 L 1051.00 1124.00 L 1062.00 1206.00 L 1086.00 1302.00 L 1098.00 1371.00 L 1098.00 1413.00 L 1046.00 1437.00 L 942.00 1443.00 L 829.00 1469.00 L 707.00 1515.00 L 664.00 1488.00 L 700.00 1388.00 L 698.00 1389.00 L 658.00 1491.00 L 660.00 1482.00 L 704.00 1362.00 L 701.00 1363.00 L 651.00 1485.00 L 651.00 1482.00 L 701.00 1354.00 L 699.00 1355.00 L 645.00 1485.00 L 645.00 1484.00 L 699.00 1352.00 L 696.00 1354.00 L 636.00 1490.00 L 636.00 1486.00 L 696.00 1342.00 L 693.00 1343.00 L 627.00 1489.00 L 627.00 1487.00 L 693.00 1337.00 L 690.00 1339.00 L 618.00 1493.00 L 618.00 1490.00 L 690.00 1330.00 L 684.00 1333.00 L 600.00 1499.00 L 600.00 1496.00 L 684.00 1324.00 L 681.00 1326.00 L 591.00 1502.00 L 591.00 1500.00 L 681.00 1320.00 L 676.00 1323.00 L 576.00 1509.00 L 576.00 1506.00 L 676.00 1314.00 L 668.00 1319.00 L 552.00 1521.00 L 552.00 1518.00 L 668.00 1310.00 L 665.00 1312.00 L 543.00 1524.00 L 478.00 1632.00 L 470.00 1636.00 L 490.00 1597.00 L 538.00 1515.00 L 536.00 1517.00 L 484.00 1603.00 L 524.00 1535.00 L 656.00 1313.00 L 651.00 1316.00 L 509.00 1544.00 L 509.00 1542.00 L 651.00 1310.00 L 646.00 1313.00 L 494.00 1551.00 L 494.00 1549.00 L 646.00 1307.00 L 642.00 1309.00 L 482.00 1555.00 L 482.00 1553.00 L 642.00 1303.00 L 639.00 1300.00 L 473.00 1544.00 L 413.00 1629.00 L 459.00 1555.00 L 455.00 1549.00 L 401.00 1611.00 L 460.00 1523.00 L 632.00 1285.00 L 633.00 1282.00 L 463.00 1514.00 L 462.00 1512.00 L 630.00 1276.00 L 706.00 1142.00 L 690.00 1110.00 L 652.00 1083.00 L 592.00 1061.00 L 563.00 1034.00 L 565.00 1002.00 L 565.00 983.00 L 563.00 977.00 L 562.00 949.00 Z" fill="black" stroke="black" stroke-width="1"/>
</svg>