<?xml version="1.0" encoding="UTF-8"?>
<svg xmlns="http://www.w3.org/2000/svg" viewBox="400.00 333.00 840.00 1430.00">
  <path d="M 564.00 1087.00 L 568.00 1081.00 L 554.00 1046.00 L 522.00 982.00 L 507.00 934.00 L 509.00 902.00 L 496.00 874.00 L 468.00 850.00 L 470.00 847.00 L 502.00 865.00 L 503.00 862.00 L 473.00 838.00 L 473.00 835.00 L 503.00 853.00 L 504.00 850.00 L 476.00 826.00 L 480.00 793.00 L 516.00 751.00 L 536.00 695.00 L 540.00 625.00 L 544.00 593.00 L 548.00 599.00 L 553.00 585.00 L 559.00 551.00 L 574.00 514.00 L 598.00 474.00 L 632.00 436.00 L 676.00 400.00 L 728.00 372.00 L 788.00 352.00 L 850.00 343.00 L 914.00 345.00 L 981.00 359.00 L 1051.00 385.00 L 1111.00 426.00 L 1161.00 482.00 L 1197.00 553.00 L 1219.00 639.00 L 1230.00 699.00 L 1230.00 733.00 L 1216.00 795.00 L 1188.00 885.00 L 1175.00 960.00 L 1177.00 1020.00 L 1155.00 1054.00 L 1109.00 1062.00 L 1111.00 1064.00 L 1161.00 1060.00 L 1159.00 1061.00 L 1105.00 1067.00 L 1107.00 1068.00 L 1165.00 1064.00 L 1168.00 1065.00 L 1116.00 1071.00 L 1119.00 1074.00 L 1177.00 1074.00 L 1174.00 1077.00 L 1110.00 1083.00 L 1112.00 1086.00 L 1180.00 1086.00 L 1180.00 1089.00 L 1112.00 1095.00 L 1108.00 1100.00 L 1168.00 1104.00 L 1168.00 1107.00 L 1108.00 1109.00 L 1106.00 1113.00 L 1162.00 1119.00 L 1168.00 1121.00 L 1124.00 1119.00 L 1123.00 1122.00 L 1165.00 1130.00 L 1159.00 1131.00 L 1105.00 1125.00 L 1104.00 1131.00 L 1156.00 1149.00 L 1156.00 1153.00 L 1104.00 1143.00 L 1111.00 1150.00 L 1177.00 1174.00 L 1177.00 1178.00 L 1111.00 1162.00 L 1114.00 1165.00 L 1186.00 1187.00 L 1193.00 1191.00 L 1135.00 1177.00 L 1136.00 1182.00 L 1196.00 1206.00 L 1187.00 1205.00 L 1109.00 1179.00 L 1106.00 1181.00 L 1178.00 1211.00 L 1178.00 1213.00 L 1106.00 1187.00 L 1102.00 1188.00 L 1166.00 1216.00 L 1168.00 1219.00 L 1108.00 1197.00 L 1109.00 1200.00 L 1171.00 1228.00 L 1172.00 1230.00 L 1112.00 1206.00 L 1116.00 1214.00 L 1184.00 1254.00 L 1185.00 1258.00 L 1119.00 1226.00 L 1116.00 1226.00 L 1176.00 1258.00 L 1178.00 1261.00 L 1122.00 1235.00 L 1121.00 1237.00 L 1175.00 1267.00 L 1176.00 1270.00 L 1124.00 1246.00 L 1116.00 1248.00 L 1152.00 1276.00 L 1154.00 1281.00 L 1122.00 1263.00 L 1122.00 1267.00 L 1154.00 1293.00 L 1155.00 1296.00 L 1125.00 1276.00 L 1125.00 1279.00 L 1155.00 1305.00 L 1156.00 1308.00 L 1128.00 1288.00 L 1128.00 1289.00 L 1156.00 1311.00 L 1156.00 1313.00 L 1128.00 1295.00 L 1128.00 1298.00 L 1156.00 1322.00 L 1157.00 1324.00 L 1131.00 1304.00 L 1131.00 1307.00 L 1157.00 1333.00 L 1157.00 1336.00 L 1131.00 1316.00 L 1131.00 1318.00 L 1157.00 1342.00 L 1158.00 1345.00 L 1134.00 1327.00 L 1134.00 1329.00 L 1158.00 1351.00 L 1158.00 1354.00 L 1134.00 1338.00 L 1135.00 1346.00 L 1161.00 1378.00 L 1162.00 1384.00 L 1138.00 1364.00 L 1138.00 1369.00 L 1162.00 1399.00 L 1163.00 1405.00 L 1141.00 1387.00 L 1138.00 1389.00 L 1154.00 1411.00 L 1155.00 1416.00 L 1141.00 1404.00 L 1138.00 1404.00 L 1146.00 1416.00 L 1147.00 1419.00 L 1141.00 1413.00 L 1134.00 1433.00 L 1126.00 1479.00 L 1081.00 1494.00 L 999.00 1478.00 L 926.00 1474.00 L 862.00 1482.00 L 784.00 1507.00 L 692.00 1549.00 L 598.00 1616.00 L 502.00 1708.00 L 446.00 1753.00 L 430.00 1751.00 L 418.00 1734.00 L 410.00 1702.00 L 417.00 1647.00 L 439.00 1569.00 L 502.00 1468.00 L 606.00 1344.00 L 644.00 1295.00 L 616.00 1321.00 L 615.00 1318.00 L 641.00 1286.00 L 654.00 1261.00 L 654.00 1243.00 L 630.00 1245.00 L 582.00 1267.00 L 573.00 1267.00 L 603.00 1245.00 L 601.00 1244.00 L 567.00 1264.00 L 570.00 1258.00 L 610.00 1226.00 L 619.00 1215.00 L 597.00 1225.00 L 595.00 1225.00 L 613.00 1215.00 L 616.00 1212.00 L 604.00 1216.00 L 602.00 1213.00 L 610.00 1203.00 L 603.00 1199.00 L 581.00 1201.00 L 580.00 1195.00 L 600.00 1181.00 L 596.00 1155.00 L 568.00 1117.00 L 556.00 1096.00 L 560.00 1092.00 L 564.00 1087.00 Z" fill="black" stroke="black" stroke-width="1"/>
</svg>