<?xml version="1.0" encoding="UTF-8"?>
<svg xmlns="http://www.w3.org/2000/svg" viewBox="192.00 411.00 859.00 1263.00">
  <path d="M 450.00 1032.00 L 442.00 1028.00 L 442.00 1026.00 L 450.00 1026.00 L 451.00 1020.00 L 445.00 1008.00 L 421.00 997.00 L 379.00 987.00 L 378.00 985.00 L 418.00 991.00 L 415.00 988.00 L 369.00 976.00 L 368.00 974.00 L 412.00 982.00 L 411.00 981.00 L 365.00 971.00 L 364.00 969.00 L 408.00 975.00 L 407.00 972.00 L 361.00 960.00 L 360.00 959.00 L 404.00 969.00 L 390.00 964.00 L 318.00 944.00 L 294.00 937.00 L 318.00 943.00 L 315.00 940.00 L 285.00 928.00 L 252.00 893.00 L 216.00 835.00 L 202.00 762.00 L 210.00 674.00 L 237.00 593.00 L 283.00 519.00 L 341.00 466.00 L 411.00 434.00 L 460.00 421.00 L 488.00 427.00 L 526.00 428.00 L 574.00 424.00 L 623.00 431.00 L 673.00 449.00 L 717.00 461.00 L 755.00 467.00 L 800.00 481.00 L 852.00 503.00 L 896.00 542.00 L 932.00 598.00 L 946.00 636.00 L 938.00 656.00 L 939.00 659.00 L 949.00 645.00 L 951.00 649.00 L 945.00 671.00 L 947.00 677.00 L 957.00 667.00 L 958.00 669.00 L 950.00 683.00 L 951.00 685.00 L 961.00 675.00 L 961.00 678.00 L 951.00 694.00 L 952.00 696.00 L 964.00 684.00 L 966.00 687.00 L 958.00 705.00 L 958.00 710.00 L 966.00 702.00 L 965.00 704.00 L 955.00 716.00 L 956.00 717.00 L 968.00 707.00 L 968.00 710.00 L 956.00 726.00 L 955.00 729.00 L 965.00 719.00 L 965.00 722.00 L 955.00 738.00 L 948.00 768.00 L 944.00 812.00 L 959.00 865.00 L 993.00 927.00 L 1004.00 964.00 L 992.00 976.00 L 988.00 982.00 L 992.00 982.00 L 986.00 984.00 L 970.00 988.00 L 960.00 994.00 L 956.00 1002.00 L 955.00 1012.00 L 957.00 1024.00 L 952.00 1046.00 L 940.00 1078.00 L 936.00 1110.00 L 940.00 1142.00 L 936.00 1163.00 L 924.00 1173.00 L 909.00 1179.00 L 891.00 1181.00 L 883.00 1186.00 L 885.00 1194.00 L 880.00 1206.00 L 868.00 1222.00 L 866.00 1236.00 L 874.00 1248.00 L 874.00 1250.00 L 866.00 1242.00 L 866.00 1245.00 L 874.00 1259.00 L 874.00 1272.00 L 866.00 1284.00 L 864.00 1293.00 L 868.00 1299.00 L 866.00 1297.00 L 858.00 1287.00 L 897.00 1351.00 L 983.00 1489.00 L 990.00 1506.00 L 918.00 1402.00 L 920.00 1407.00 L 996.00 1521.00 L 994.00 1519.00 L 914.00 1401.00 L 916.00 1405.00 L 1000.00 1531.00 L 997.00 1528.00 L 907.00 1396.00 L 907.00 1401.00 L 997.00 1543.00 L 993.00 1539.00 L 895.00 1389.00 L 895.00 1392.00 L 993.00 1548.00 L 992.00 1547.00 L 892.00 1389.00 L 892.00 1391.00 L 992.00 1553.00 L 991.00 1552.00 L 889.00 1388.00 L 889.00 1390.00 L 991.00 1558.00 L 1041.00 1645.00 L 1039.00 1651.00 L 985.00 1565.00 L 879.00 1387.00 L 878.00 1389.00 L 982.00 1571.00 L 1005.00 1613.00 L 947.00 1515.00 L 947.00 1517.00 L 1005.00 1619.00 L 1003.00 1617.00 L 941.00 1511.00 L 940.00 1512.00 L 1000.00 1620.00 L 998.00 1619.00 L 934.00 1509.00 L 933.00 1510.00 L 995.00 1622.00 L 976.00 1588.00 L 876.00 1408.00 L 873.00 1406.00 L 967.00 1582.00 L 983.00 1614.00 L 921.00 1502.00 L 919.00 1501.00 L 977.00 1611.00 L 1004.00 1664.00 L 1000.00 1660.00 L 954.00 1575.00 L 866.00 1409.00 L 864.00 1408.00 L 948.00 1572.00 L 958.00 1595.00 L 894.00 1477.00 L 889.00 1473.00 L 943.00 1583.00 L 932.00 1562.00 L 856.00 1410.00 L 855.00 1409.00 L 929.00 1559.00 L 935.00 1574.00 L 873.00 1454.00 L 869.00 1451.00 L 923.00 1565.00 L 916.00 1551.00 L 848.00 1409.00 L 846.00 1408.00 L 910.00 1548.00 L 910.00 1550.00 L 846.00 1414.00 L 845.00 1413.00 L 907.00 1547.00 L 908.00 1550.00 L 848.00 1422.00 L 845.00 1420.00 L 899.00 1544.00 L 890.00 1582.00 L 818.00 1534.00 L 743.00 1491.00 L 665.00 1453.00 L 590.00 1424.00 L 518.00 1404.00 L 452.00 1393.00 L 392.00 1391.00 L 358.00 1386.00 L 350.00 1378.00 L 345.00 1369.00 L 343.00 1359.00 L 348.00 1345.00 L 360.00 1327.00 L 367.00 1308.00 L 369.00 1288.00 L 376.00 1268.00 L 388.00 1248.00 L 394.00 1230.00 L 394.00 1214.00 L 401.00 1199.00 L 415.00 1185.00 L 415.00 1182.00 L 401.00 1190.00 L 404.00 1185.00 L 424.00 1167.00 L 435.00 1139.00 L 437.00 1101.00 L 444.00 1080.00 L 456.00 1076.00 L 457.00 1068.00 L 447.00 1056.00 L 446.00 1049.00 L 454.00 1047.00 L 453.00 1044.00 L 443.00 1040.00 L 442.00 1037.00 L 450.00 1035.00 L 450.00 1032.00 Z" fill="black" stroke="black" stroke-width="1"/>
</svg>