<?xml version="1.0" encoding="UTF-8"?>
<svg xmlns="http://www.w3.org/2000/svg" viewBox="377.00 201.00 1057.00 1602.00">
  <path d="M 509.00 1023.00 L 511.00 1001.00 L 502.00 984.00 L 482.00 972.00 L 470.00 961.00 L 466.00 951.00 L 487.00 920.00 L 533.00 868.00 L 556.00 828.00 L 556.00 800.00 L 525.00 755.00 L 463.00 693.00 L 463.00 690.00 L 525.00 746.00 L 523.00 743.00 L 457.00 681.00 L 458.00 679.00 L 526.00 737.00 L 528.00 734.00 L 464.00 670.00 L 444.00 648.00 L 468.00 668.00 L 470.00 667.00 L 450.00 645.00 L 471.00 665.00 L 533.00 727.00 L 537.00 726.00 L 483.00 662.00 L 484.00 659.00 L 540.00 717.00 L 543.00 716.00 L 493.00 656.00 L 490.00 649.00 L 534.00 695.00 L 537.00 695.00 L 499.00 649.00 L 504.00 653.00 L 552.00 707.00 L 554.00 706.00 L 510.00 650.00 L 511.00 647.00 L 557.00 697.00 L 560.00 696.00 L 520.00 644.00 L 522.00 642.00 L 566.00 690.00 L 569.00 689.00 L 531.00 639.00 L 549.00 604.00 L 623.00 584.00 L 709.00 496.00 L 807.00 340.00 L 868.00 249.00 L 892.00 223.00 L 913.00 211.00 L 931.00 213.00 L 1025.00 260.00 L 1195.00 352.00 L 1313.00 423.00 L 1379.00 473.00 L 1416.00 504.00 L 1424.00 516.00 L 1375.00 604.00 L 1269.00 768.00 L 1205.00 873.00 L 1183.00 919.00 L 1183.00 962.00 L 1205.00 1002.00 L 1199.00 1025.00 L 1165.00 1031.00 L 1166.00 1034.00 L 1202.00 1034.00 L 1204.00 1036.00 L 1172.00 1040.00 L 1174.00 1043.00 L 1210.00 1045.00 L 1207.00 1046.00 L 1165.00 1046.00 L 1167.00 1049.00 L 1213.00 1055.00 L 1212.00 1058.00 L 1164.00 1058.00 L 1165.00 1060.00 L 1215.00 1064.00 L 1242.00 1069.00 L 1246.00 1075.00 L 1232.00 1077.00 L 1200.00 1075.00 L 1200.00 1076.00 L 1232.00 1080.00 L 1220.00 1080.00 L 1164.00 1076.00 L 1165.00 1079.00 L 1223.00 1089.00 L 1220.00 1090.00 L 1156.00 1082.00 L 1157.00 1086.00 L 1223.00 1102.00 L 1222.00 1105.00 L 1154.00 1095.00 L 1153.00 1096.00 L 1219.00 1108.00 L 1220.00 1111.00 L 1156.00 1105.00 L 1132.00 1138.00 L 1148.00 1210.00 L 1157.00 1254.00 L 1159.00 1270.00 L 1156.00 1288.00 L 1148.00 1308.00 L 1155.00 1378.00 L 1177.00 1498.00 L 1184.00 1560.00 L 1176.00 1564.00 L 1119.00 1559.00 L 1013.00 1545.00 L 925.00 1544.00 L 855.00 1556.00 L 777.00 1583.00 L 691.00 1625.00 L 581.00 1695.00 L 447.00 1793.00 L 434.00 1745.00 L 542.00 1551.00 L 539.00 1552.00 L 425.00 1748.00 L 426.00 1745.00 L 542.00 1543.00 L 539.00 1541.00 L 417.00 1739.00 L 419.00 1731.00 L 545.00 1517.00 L 544.00 1514.00 L 416.00 1722.00 L 415.00 1723.00 L 541.00 1517.00 L 540.00 1514.00 L 412.00 1714.00 L 412.00 1711.00 L 540.00 1505.00 L 540.00 1502.00 L 412.00 1702.00 L 400.00 1719.00 L 504.00 1553.00 L 504.00 1550.00 L 400.00 1710.00 L 398.00 1712.00 L 498.00 1556.00 L 498.00 1553.00 L 398.00 1703.00 L 387.00 1718.00 L 465.00 1598.00 L 466.00 1595.00 L 390.00 1709.00 L 417.00 1668.00 L 547.00 1472.00 L 547.00 1470.00 L 417.00 1662.00 L 415.00 1664.00 L 541.00 1476.00 L 542.00 1473.00 L 418.00 1655.00 L 387.00 1699.00 L 449.00 1605.00 L 450.00 1601.00 L 390.00 1687.00 L 388.00 1689.00 L 444.00 1607.00 L 445.00 1604.00 L 391.00 1680.00 L 388.00 1683.00 L 436.00 1613.00 L 440.00 1606.00 L 400.00 1662.00 L 398.00 1664.00 L 434.00 1612.00 L 436.00 1608.00 L 404.00 1652.00 L 402.00 1654.00 L 430.00 1614.00 L 432.00 1611.00 L 408.00 1645.00 L 406.00 1647.00 L 426.00 1617.00 L 430.00 1610.00 L 418.00 1626.00 L 457.00 1570.00 L 547.00 1442.00 L 589.00 1376.00 L 583.00 1372.00 L 585.00 1361.00 L 595.00 1343.00 L 592.00 1342.00 L 576.00 1358.00 L 575.00 1354.00 L 589.00 1330.00 L 587.00 1328.00 L 569.00 1348.00 L 567.00 1347.00 L 581.00 1325.00 L 580.00 1306.00 L 564.00 1290.00 L 556.00 1273.00 L 556.00 1255.00 L 547.00 1234.00 L 529.00 1210.00 L 522.00 1179.00 L 526.00 1141.00 L 522.00 1115.00 L 510.00 1101.00 L 507.00 1088.00 L 513.00 1076.00 L 513.00 1063.00 L 507.00 1049.00 L 505.00 1040.00 L 507.00 1036.00 L 509.00 1023.00 Z" fill="black" stroke="black" stroke-width="1"/>
</svg>