<?xml version="1.0" encoding="UTF-8"?>
<svg xmlns="http://www.w3.org/2000/svg" viewBox="416.00 313.00 735.00 1254.00">
  <path d="M 521.00 928.00 L 507.00 908.00 L 503.00 898.00 L 509.00 898.00 L 503.00 891.00 L 485.00 877.00 L 461.00 811.00 L 431.00 693.00 L 426.00 596.00 L 446.00 520.00 L 484.00 449.00 L 540.00 383.00 L 594.00 342.00 L 646.00 326.00 L 723.00 323.00 L 825.00 333.00 L 913.00 358.00 L 987.00 398.00 L 1036.00 429.00 L 1060.00 451.00 L 1088.00 493.00 L 1120.00 555.00 L 1137.00 596.00 L 1139.00 616.00 L 1134.00 633.00 L 1122.00 647.00 L 1123.00 649.00 L 1137.00 639.00 L 1137.00 641.00 L 1123.00 655.00 L 1123.00 658.00 L 1137.00 650.00 L 1138.00 652.00 L 1126.00 664.00 L 1126.00 665.00 L 1138.00 655.00 L 1137.00 658.00 L 1123.00 674.00 L 1124.00 676.00 L 1140.00 664.00 L 1139.00 670.00 L 1121.00 694.00 L 1121.00 700.00 L 1139.00 688.00 L 1138.00 693.00 L 1118.00 715.00 L 1119.00 720.00 L 1141.00 708.00 L 1140.00 713.00 L 1116.00 735.00 L 1116.00 738.00 L 1140.00 722.00 L 1139.00 724.00 L 1113.00 744.00 L 1113.00 746.00 L 1139.00 730.00 L 1138.00 733.00 L 1110.00 755.00 L 1093.00 774.00 L 1087.00 790.00 L 1095.00 831.00 L 1117.00 897.00 L 1116.00 938.00 L 1092.00 954.00 L 1081.00 973.00 L 1083.00 995.00 L 1066.00 1037.00 L 1030.00 1099.00 L 987.00 1133.00 L 937.00 1139.00 L 946.00 1216.00 L 1014.00 1364.00 L 1012.00 1364.00 L 940.00 1216.00 L 943.00 1224.00 L 1021.00 1388.00 L 1057.00 1464.00 L 1051.00 1452.00 L 1052.00 1455.00 L 1060.00 1473.00 L 1053.00 1459.00 L 1031.00 1413.00 L 1035.00 1424.00 L 1065.00 1492.00 L 1062.00 1489.00 L 1026.00 1415.00 L 1026.00 1418.00 L 1062.00 1498.00 L 1059.00 1494.00 L 1017.00 1406.00 L 1017.00 1409.00 L 1059.00 1503.00 L 1034.00 1448.00 L 942.00 1244.00 L 942.00 1247.00 L 1034.00 1457.00 L 1055.00 1507.00 L 1005.00 1397.00 L 1005.00 1403.00 L 1055.00 1525.00 L 1053.00 1523.00 L 999.00 1397.00 L 998.00 1400.00 L 1050.00 1532.00 L 1047.00 1529.00 L 989.00 1391.00 L 988.00 1393.00 L 1044.00 1535.00 L 1043.00 1534.00 L 985.00 1390.00 L 984.00 1392.00 L 1040.00 1540.00 L 1022.00 1495.00 L 930.00 1257.00 L 930.00 1259.00 L 1022.00 1501.00 L 1036.00 1543.00 L 972.00 1385.00 L 970.00 1389.00 L 1030.00 1555.00 L 1029.00 1554.00 L 967.00 1386.00 L 966.00 1387.00 L 1026.00 1557.00 L 1011.00 1516.00 L 921.00 1264.00 L 919.00 1266.00 L 1005.00 1522.00 L 1004.00 1524.00 L 916.00 1272.00 L 911.00 1273.00 L 989.00 1527.00 L 997.00 1556.00 L 935.00 1360.00 L 930.00 1356.00 L 982.00 1544.00 L 980.00 1541.00 L 924.00 1347.00 L 922.00 1345.00 L 974.00 1535.00 L 967.00 1511.00 L 901.00 1273.00 L 900.00 1272.00 L 964.00 1508.00 L 964.00 1512.00 L 900.00 1284.00 L 896.00 1280.00 L 952.00 1500.00 L 952.00 1502.00 L 896.00 1286.00 L 893.00 1282.00 L 943.00 1490.00 L 942.00 1487.00 L 890.00 1273.00 L 889.00 1271.00 L 939.00 1481.00 L 940.00 1487.00 L 892.00 1289.00 L 890.00 1287.00 L 934.00 1481.00 L 923.00 1544.00 L 857.00 1476.00 L 750.00 1413.00 L 602.00 1355.00 L 551.00 1258.00 L 597.00 1122.00 L 606.00 1058.00 L 578.00 1066.00 L 578.00 1063.00 L 606.00 1049.00 L 601.00 1047.00 L 563.00 1057.00 L 563.00 1054.00 L 601.00 1038.00 L 600.00 1036.00 L 560.00 1048.00 L 560.00 1046.00 L 600.00 1030.00 L 599.00 1027.00 L 557.00 1037.00 L 558.00 1034.00 L 602.00 1018.00 L 601.00 1016.00 L 555.00 1028.00 L 554.00 1026.00 L 598.00 1010.00 L 599.00 1007.00 L 557.00 1017.00 L 557.00 1014.00 L 599.00 998.00 L 599.00 993.00 L 557.00 999.00 L 557.00 997.00 L 599.00 987.00 L 598.00 984.00 L 554.00 988.00 L 532.00 980.00 L 532.00 960.00 L 531.00 947.00 L 529.00 941.00 L 521.00 928.00 Z" fill="black" stroke="black" stroke-width="1"/>
</svg>