<?xml version="1.0" encoding="UTF-8"?>
<svg xmlns="http://www.w3.org/2000/svg" viewBox="339.00 320.00 855.00 1402.00">
  <path d="M 398.00 992.00 L 390.00 980.00 L 387.00 952.00 L 389.00 908.00 L 382.00 880.00 L 366.00 868.00 L 355.00 855.00 L 349.00 841.00 L 366.00 810.00 L 406.00 762.00 L 428.00 733.00 L 432.00 723.00 L 433.00 707.00 L 431.00 685.00 L 435.00 660.00 L 445.00 632.00 L 445.00 607.00 L 435.00 585.00 L 435.00 578.00 L 445.00 586.00 L 446.00 583.00 L 438.00 569.00 L 440.00 569.00 L 452.00 583.00 L 453.00 580.00 L 443.00 560.00 L 444.00 559.00 L 456.00 577.00 L 461.00 580.00 L 459.00 568.00 L 460.00 565.00 L 464.00 571.00 L 462.00 565.00 L 454.00 547.00 L 455.00 545.00 L 465.00 559.00 L 468.00 556.00 L 464.00 536.00 L 466.00 533.00 L 474.00 547.00 L 479.00 552.00 L 481.00 548.00 L 479.00 539.00 L 473.00 525.00 L 471.00 514.00 L 473.00 506.00 L 480.00 495.00 L 492.00 481.00 L 509.00 468.00 L 531.00 456.00 L 554.00 438.00 L 578.00 414.00 L 612.00 392.00 L 656.00 372.00 L 685.00 362.00 L 699.00 362.00 L 720.00 357.00 L 748.00 347.00 L 779.00 339.00 L 813.00 333.00 L 867.00 330.00 L 941.00 330.00 L 993.00 335.00 L 1023.00 345.00 L 1055.00 361.00 L 1089.00 383.00 L 1114.00 405.00 L 1130.00 427.00 L 1144.00 451.00 L 1156.00 477.00 L 1168.00 517.00 L 1180.00 571.00 L 1184.00 618.00 L 1180.00 658.00 L 1166.00 719.00 L 1142.00 801.00 L 1120.00 873.00 L 1100.00 935.00 L 1083.00 972.00 L 1069.00 984.00 L 1067.00 994.00 L 1077.00 1002.00 L 1083.00 1033.00 L 1085.00 1087.00 L 1083.00 1118.00 L 1077.00 1126.00 L 1074.00 1139.00 L 1074.00 1157.00 L 1083.00 1195.00 L 1101.00 1253.00 L 1110.00 1291.00 L 1110.00 1309.00 L 1113.00 1327.00 L 1119.00 1345.00 L 1121.00 1369.00 L 1119.00 1399.00 L 1087.00 1412.00 L 1025.00 1408.00 L 978.00 1408.00 L 946.00 1412.00 L 907.00 1421.00 L 861.00 1435.00 L 808.00 1456.00 L 748.00 1484.00 L 688.00 1517.00 L 628.00 1555.00 L 579.00 1588.00 L 541.00 1616.00 L 504.00 1648.00 L 468.00 1684.00 L 443.00 1705.00 L 429.00 1711.00 L 417.00 1712.00 L 407.00 1708.00 L 398.00 1702.00 L 390.00 1694.00 L 384.00 1684.00 L 380.00 1672.00 L 379.00 1649.00 L 381.00 1615.00 L 387.00 1586.00 L 397.00 1562.00 L 419.00 1521.00 L 453.00 1463.00 L 452.00 1464.00 L 416.00 1524.00 L 417.00 1522.00 L 455.00 1458.00 L 457.00 1454.00 L 423.00 1510.00 L 424.00 1508.00 L 460.00 1448.00 L 461.00 1446.00 L 427.00 1502.00 L 422.00 1510.00 L 446.00 1470.00 L 448.00 1466.00 L 428.00 1498.00 L 441.00 1476.00 L 487.00 1400.00 L 508.00 1365.00 L 504.00 1371.00 L 505.00 1369.00 L 511.00 1359.00 L 489.00 1395.00 L 439.00 1477.00 L 431.00 1490.00 L 465.00 1434.00 L 471.00 1424.00 L 449.00 1460.00 L 450.00 1458.00 L 474.00 1418.00 L 470.00 1424.00 L 438.00 1476.00 L 445.00 1463.00 L 491.00 1385.00 L 519.00 1333.00 L 529.00 1307.00 L 530.00 1291.00 L 522.00 1285.00 L 519.00 1280.00 L 521.00 1276.00 L 511.00 1285.00 L 489.00 1307.00 L 489.00 1302.00 L 511.00 1270.00 L 509.00 1269.00 L 483.00 1299.00 L 478.00 1304.00 L 494.00 1284.00 L 495.00 1281.00 L 481.00 1295.00 L 482.00 1291.00 L 498.00 1269.00 L 498.00 1266.00 L 482.00 1282.00 L 486.00 1276.00 L 510.00 1248.00 L 511.00 1246.00 L 489.00 1270.00 L 488.00 1270.00 L 508.00 1246.00 L 511.00 1241.00 L 497.00 1255.00 L 494.00 1256.00 L 502.00 1244.00 L 500.00 1243.00 L 488.00 1253.00 L 489.00 1250.00 L 503.00 1234.00 L 502.00 1233.00 L 486.00 1247.00 L 485.00 1245.00 L 499.00 1227.00 L 498.00 1225.00 L 482.00 1239.00 L 481.00 1236.00 L 495.00 1216.00 L 487.00 1193.00 L 457.00 1167.00 L 441.00 1150.00 L 439.00 1142.00 L 443.00 1134.00 L 453.00 1126.00 L 457.00 1120.00 L 455.00 1116.00 L 446.00 1112.00 L 430.00 1108.00 L 417.00 1102.00 L 407.00 1094.00 L 399.00 1084.00 L 393.00 1072.00 L 393.00 1051.00 L 399.00 1021.00 L 402.00 1004.00 L 402.00 1000.00 L 398.00 992.00 Z" fill="black" stroke="black" stroke-width="1"/>
</svg>