<?xml version="1.0" encoding="UTF-8"?>
<svg xmlns="http://www.w3.org/2000/svg" viewBox="260.00 286.00 922.00 1397.00">
  <path d="M 420.00 952.00 L 432.00 924.00 L 431.00 890.00 L 417.00 850.00 L 411.00 821.00 L 413.00 803.00 L 399.00 784.00 L 369.00 764.00 L 369.00 762.00 L 399.00 778.00 L 398.00 776.00 L 366.00 756.00 L 365.00 755.00 L 395.00 773.00 L 395.00 770.00 L 365.00 746.00 L 350.00 732.00 L 350.00 728.00 L 362.00 711.00 L 386.00 681.00 L 413.00 652.00 L 443.00 624.00 L 462.00 590.00 L 470.00 550.00 L 492.00 506.00 L 528.00 458.00 L 547.00 426.00 L 549.00 410.00 L 552.00 407.00 L 556.00 417.00 L 558.00 414.00 L 558.00 398.00 L 560.00 396.00 L 564.00 408.00 L 566.00 405.00 L 566.00 387.00 L 569.00 385.00 L 575.00 399.00 L 578.00 396.00 L 578.00 376.00 L 581.00 374.00 L 587.00 390.00 L 589.00 389.00 L 587.00 371.00 L 588.00 369.00 L 592.00 383.00 L 594.00 382.00 L 594.00 366.00 L 598.00 356.00 L 606.00 352.00 L 619.00 349.00 L 637.00 347.00 L 657.00 341.00 L 679.00 331.00 L 696.00 326.00 L 708.00 326.00 L 738.00 319.00 L 786.00 305.00 L 820.00 299.00 L 840.00 301.00 L 861.00 300.00 L 883.00 296.00 L 904.00 297.00 L 924.00 303.00 L 943.00 305.00 L 961.00 303.00 L 985.00 307.00 L 1015.00 317.00 L 1052.00 340.00 L 1096.00 376.00 L 1128.00 414.00 L 1148.00 454.00 L 1162.00 501.00 L 1170.00 555.00 L 1172.00 606.00 L 1168.00 654.00 L 1154.00 713.00 L 1130.00 783.00 L 1115.00 841.00 L 1109.00 887.00 L 1102.00 913.00 L 1094.00 919.00 L 1095.00 922.00 L 1105.00 922.00 L 1103.00 923.00 L 1089.00 925.00 L 1088.00 926.00 L 1100.00 926.00 L 1100.00 929.00 L 1088.00 935.00 L 1091.00 974.00 L 1109.00 1046.00 L 1118.00 1089.00 L 1118.00 1103.00 L 1115.00 1113.00 L 1109.00 1119.00 L 1105.00 1131.00 L 1103.00 1149.00 L 1112.00 1194.00 L 1132.00 1266.00 L 1145.00 1322.00 L 1151.00 1362.00 L 1154.00 1390.00 L 1154.00 1406.00 L 1152.00 1418.00 L 1148.00 1426.00 L 1144.00 1431.00 L 1140.00 1433.00 L 1121.00 1429.00 L 1087.00 1419.00 L 1042.00 1414.00 L 986.00 1414.00 L 939.00 1416.00 L 901.00 1420.00 L 853.00 1429.00 L 795.00 1443.00 L 743.00 1458.00 L 697.00 1474.00 L 653.00 1492.00 L 611.00 1512.00 L 532.00 1559.00 L 416.00 1633.00 L 348.00 1671.00 L 328.00 1673.00 L 313.00 1672.00 L 303.00 1668.00 L 294.00 1662.00 L 286.00 1654.00 L 278.00 1636.00 L 270.00 1608.00 L 270.00 1572.00 L 278.00 1528.00 L 281.00 1507.00 L 279.00 1509.00 L 284.00 1497.00 L 296.00 1471.00 L 300.00 1460.00 L 296.00 1464.00 L 325.00 1428.00 L 387.00 1352.00 L 396.00 1338.00 L 352.00 1386.00 L 334.00 1405.00 L 342.00 1395.00 L 380.00 1352.00 L 448.00 1276.00 L 449.00 1274.00 L 383.00 1346.00 L 383.00 1344.00 L 449.00 1268.00 L 469.00 1243.00 L 443.00 1269.00 L 450.00 1258.00 L 490.00 1210.00 L 507.00 1183.00 L 501.00 1177.00 L 504.00 1166.00 L 516.00 1150.00 L 519.00 1144.00 L 513.00 1148.00 L 510.00 1148.00 L 510.00 1144.00 L 504.00 1144.00 L 492.00 1148.00 L 480.00 1148.00 L 468.00 1144.00 L 471.00 1136.00 L 489.00 1124.00 L 490.00 1121.00 L 474.00 1127.00 L 473.00 1124.00 L 487.00 1112.00 L 486.00 1093.00 L 470.00 1067.00 L 460.00 1046.00 L 456.00 1030.00 L 456.00 1019.00 L 460.00 1013.00 L 453.00 1006.00 L 435.00 998.00 L 424.00 990.00 L 420.00 982.00 L 417.00 975.00 L 415.00 969.00 L 420.00 952.00 Z" fill="black" stroke="black" stroke-width="1"/>
</svg>