<?xml version="1.0" encoding="UTF-8"?>
<svg xmlns="http://www.w3.org/2000/svg" viewBox="255.00 197.00 872.00 1434.00">
  <path d="M 519.00 870.00 L 465.00 814.00 L 407.00 772.00 L 345.00 744.00 L 344.00 742.00 L 404.00 766.00 L 401.00 763.00 L 335.00 733.00 L 335.00 732.00 L 401.00 760.00 L 397.00 756.00 L 323.00 720.00 L 322.00 718.00 L 394.00 750.00 L 393.00 748.00 L 319.00 712.00 L 318.00 709.00 L 390.00 739.00 L 388.00 735.00 L 312.00 697.00 L 271.00 653.00 L 265.00 603.00 L 268.00 560.00 L 280.00 524.00 L 301.00 483.00 L 331.00 437.00 L 367.00 397.00 L 409.00 363.00 L 433.00 329.00 L 439.00 295.00 L 452.00 277.00 L 472.00 275.00 L 487.00 264.00 L 497.00 244.00 L 515.00 225.00 L 541.00 207.00 L 557.00 209.00 L 563.00 231.00 L 565.00 231.00 L 563.00 209.00 L 567.00 209.00 L 577.00 231.00 L 580.00 231.00 L 576.00 209.00 L 577.00 208.00 L 583.00 228.00 L 585.00 229.00 L 583.00 211.00 L 586.00 211.00 L 594.00 229.00 L 624.00 238.00 L 676.00 238.00 L 721.00 244.00 L 759.00 256.00 L 825.00 287.00 L 919.00 337.00 L 968.00 372.00 L 972.00 392.00 L 977.00 397.00 L 983.00 387.00 L 985.00 389.00 L 983.00 403.00 L 985.00 406.00 L 991.00 398.00 L 992.00 400.00 L 988.00 412.00 L 990.00 414.00 L 998.00 406.00 L 999.00 408.00 L 993.00 420.00 L 996.00 424.00 L 1008.00 420.00 L 1011.00 424.00 L 1005.00 436.00 L 1006.00 439.00 L 1014.00 433.00 L 1015.00 436.00 L 1009.00 448.00 L 1015.00 500.00 L 1033.00 592.00 L 1061.00 664.00 L 1099.00 716.00 L 1117.00 748.00 L 1115.00 760.00 L 1101.00 775.00 L 1075.00 793.00 L 1064.00 814.00 L 1068.00 838.00 L 1061.00 866.00 L 1043.00 898.00 L 1036.00 925.00 L 1040.00 947.00 L 1038.00 966.00 L 1030.00 982.00 L 990.00 1001.00 L 918.00 1023.00 L 872.00 1054.00 L 852.00 1094.00 L 898.00 1225.00 L 1010.00 1447.00 L 1061.00 1549.00 L 1051.00 1531.00 L 1053.00 1536.00 L 1067.00 1564.00 L 1065.00 1561.00 L 1047.00 1527.00 L 1048.00 1532.00 L 1068.00 1576.00 L 1064.00 1572.00 L 1036.00 1520.00 L 1036.00 1523.00 L 1064.00 1581.00 L 1060.00 1577.00 L 1024.00 1511.00 L 1023.00 1514.00 L 1057.00 1586.00 L 1015.00 1498.00 L 897.00 1250.00 L 897.00 1252.00 L 1015.00 1504.00 L 1052.00 1587.00 L 1008.00 1501.00 L 1007.00 1504.00 L 1049.00 1596.00 L 1047.00 1595.00 L 1001.00 1501.00 L 1000.00 1504.00 L 1044.00 1604.00 L 1008.00 1525.00 L 892.00 1267.00 L 890.00 1270.00 L 1002.00 1534.00 L 1002.00 1536.00 L 890.00 1276.00 L 888.00 1278.00 L 996.00 1542.00 L 1024.00 1612.00 L 972.00 1488.00 L 970.00 1491.00 L 1018.00 1621.00 L 989.00 1554.00 L 883.00 1290.00 L 877.00 1288.00 L 971.00 1548.00 L 971.00 1550.00 L 877.00 1294.00 L 875.00 1293.00 L 965.00 1547.00 L 965.00 1549.00 L 875.00 1299.00 L 874.00 1298.00 L 962.00 1546.00 L 977.00 1594.00 L 919.00 1442.00 L 916.00 1443.00 L 968.00 1597.00 L 952.00 1551.00 L 868.00 1305.00 L 866.00 1305.00 L 946.00 1551.00 L 946.00 1554.00 L 866.00 1314.00 L 860.00 1312.00 L 928.00 1548.00 L 929.00 1557.00 L 863.00 1339.00 L 860.00 1336.00 L 920.00 1548.00 L 920.00 1550.00 L 860.00 1342.00 L 859.00 1340.00 L 917.00 1544.00 L 917.00 1546.00 L 859.00 1346.00 L 856.00 1343.00 L 908.00 1537.00 L 908.00 1542.00 L 856.00 1358.00 L 853.00 1354.00 L 899.00 1530.00 L 888.00 1577.00 L 820.00 1495.00 L 785.00 1446.00 L 783.00 1430.00 L 780.00 1427.00 L 776.00 1437.00 L 772.00 1436.00 L 768.00 1424.00 L 765.00 1421.00 L 763.00 1427.00 L 751.00 1419.00 L 729.00 1397.00 L 677.00 1362.00 L 595.00 1314.00 L 533.00 1283.00 L 491.00 1269.00 L 449.00 1261.00 L 407.00 1259.00 L 394.00 1236.00 L 410.00 1192.00 L 438.00 1146.00 L 478.00 1098.00 L 489.00 1080.00 L 471.00 1092.00 L 475.00 1088.00 L 501.00 1068.00 L 500.00 1066.00 L 472.00 1082.00 L 474.00 1078.00 L 506.00 1054.00 L 504.00 1052.00 L 468.00 1072.00 L 468.00 1070.00 L 504.00 1046.00 L 528.00 1003.00 L 540.00 941.00 L 546.00 907.00 L 546.00 901.00 L 519.00 870.00 Z" fill="black" stroke="black" stroke-width="1"/>
</svg>