<?xml version="1.0" encoding="UTF-8"?>
<svg xmlns="http://www.w3.org/2000/svg" viewBox="388.00 460.00 864.00 1295.00">
  <path d="M 508.00 1106.00 L 512.00 1098.00 L 511.00 1084.00 L 505.00 1064.00 L 504.00 1036.00 L 508.00 1000.00 L 498.00 971.00 L 474.00 949.00 L 461.00 933.00 L 459.00 923.00 L 478.00 896.00 L 518.00 852.00 L 540.00 824.00 L 544.00 812.00 L 545.00 789.00 L 543.00 755.00 L 549.00 717.00 L 563.00 675.00 L 568.00 647.00 L 564.00 633.00 L 565.00 631.00 L 571.00 641.00 L 571.00 639.00 L 565.00 625.00 L 566.00 623.00 L 574.00 633.00 L 576.00 631.00 L 572.00 617.00 L 573.00 615.00 L 579.00 625.00 L 580.00 624.00 L 576.00 612.00 L 578.00 610.00 L 586.00 618.00 L 589.00 615.00 L 587.00 601.00 L 589.00 598.00 L 595.00 606.00 L 597.00 604.00 L 595.00 592.00 L 596.00 591.00 L 600.00 601.00 L 602.00 599.00 L 602.00 585.00 L 605.00 582.00 L 611.00 590.00 L 613.00 588.00 L 611.00 576.00 L 613.00 574.00 L 619.00 582.00 L 622.00 580.00 L 622.00 568.00 L 624.00 566.00 L 628.00 574.00 L 630.00 573.00 L 630.00 563.00 L 632.00 556.00 L 636.00 552.00 L 652.00 542.00 L 680.00 526.00 L 732.00 506.00 L 808.00 482.00 L 858.00 470.00 L 882.00 470.00 L 927.00 474.00 L 993.00 482.00 L 1035.00 491.00 L 1053.00 501.00 L 1073.00 509.00 L 1095.00 515.00 L 1128.00 540.00 L 1172.00 584.00 L 1204.00 630.00 L 1224.00 678.00 L 1233.00 711.00 L 1231.00 729.00 L 1233.00 745.00 L 1239.00 759.00 L 1242.00 782.00 L 1242.00 814.00 L 1235.00 855.00 L 1221.00 905.00 L 1203.00 949.00 L 1181.00 987.00 L 1156.00 1022.00 L 1128.00 1054.00 L 1112.00 1076.00 L 1108.00 1088.00 L 1106.00 1100.00 L 1106.00 1112.00 L 1114.00 1138.00 L 1130.00 1178.00 L 1128.00 1196.00 L 1108.00 1192.00 L 1108.00 1194.00 L 1128.00 1202.00 L 1128.00 1204.00 L 1108.00 1200.00 L 1107.00 1201.00 L 1125.00 1207.00 L 1125.00 1209.00 L 1107.00 1207.00 L 1108.00 1210.00 L 1128.00 1218.00 L 1132.00 1221.00 L 1120.00 1219.00 L 1119.00 1221.00 L 1129.00 1227.00 L 1125.00 1227.00 L 1107.00 1221.00 L 1105.00 1223.00 L 1119.00 1233.00 L 1120.00 1237.00 L 1108.00 1235.00 L 1105.00 1249.00 L 1111.00 1279.00 L 1112.00 1303.00 L 1108.00 1321.00 L 1107.00 1338.00 L 1109.00 1354.00 L 1115.00 1376.00 L 1125.00 1404.00 L 1129.00 1438.00 L 1127.00 1478.00 L 1123.00 1505.00 L 1117.00 1519.00 L 1081.00 1526.00 L 1015.00 1526.00 L 924.00 1539.00 L 808.00 1565.00 L 733.00 1586.00 L 699.00 1602.00 L 668.00 1614.00 L 640.00 1622.00 L 604.00 1637.00 L 560.00 1659.00 L 510.00 1688.00 L 454.00 1724.00 L 421.00 1743.00 L 411.00 1745.00 L 455.00 1662.00 L 553.00 1494.00 L 550.00 1493.00 L 446.00 1659.00 L 442.00 1663.00 L 538.00 1505.00 L 536.00 1504.00 L 436.00 1660.00 L 438.00 1655.00 L 542.00 1489.00 L 540.00 1488.00 L 432.00 1652.00 L 433.00 1648.00 L 543.00 1476.00 L 542.00 1473.00 L 430.00 1639.00 L 429.00 1640.00 L 539.00 1476.00 L 539.00 1475.00 L 429.00 1637.00 L 420.00 1650.00 L 512.00 1514.00 L 511.00 1513.00 L 417.00 1647.00 L 409.00 1657.00 L 487.00 1543.00 L 487.00 1540.00 L 409.00 1648.00 L 426.00 1622.00 L 538.00 1462.00 L 539.00 1459.00 L 429.00 1613.00 L 405.00 1646.00 L 467.00 1558.00 L 468.00 1555.00 L 408.00 1637.00 L 405.00 1640.00 L 459.00 1564.00 L 459.00 1563.00 L 405.00 1637.00 L 403.00 1639.00 L 453.00 1569.00 L 455.00 1565.00 L 409.00 1627.00 L 398.00 1641.00 L 422.00 1607.00 L 427.00 1599.00 L 413.00 1617.00 L 407.00 1624.00 L 409.00 1620.00 L 454.00 1558.00 L 542.00 1438.00 L 581.00 1377.00 L 571.00 1375.00 L 572.00 1366.00 L 584.00 1350.00 L 582.00 1349.00 L 566.00 1363.00 L 566.00 1360.00 L 582.00 1340.00 L 580.00 1340.00 L 560.00 1360.00 L 559.00 1358.00 L 577.00 1334.00 L 576.00 1332.00 L 556.00 1352.00 L 557.00 1349.00 L 579.00 1323.00 L 579.00 1321.00 L 557.00 1343.00 L 557.00 1341.00 L 579.00 1315.00 L 587.00 1287.00 L 581.00 1257.00 L 583.00 1238.00 L 593.00 1230.00 L 592.00 1229.00 L 580.00 1235.00 L 582.00 1233.00 L 598.00 1223.00 L 599.00 1221.00 L 585.00 1227.00 L 583.00 1227.00 L 593.00 1221.00 L 582.00 1213.00 L 550.00 1203.00 L 527.00 1190.00 L 513.00 1174.00 L 505.00 1154.00 L 503.00 1130.00 L 503.00 1116.00 L 505.00 1112.00 L 508.00 1106.00 Z" fill="black" stroke="black" stroke-width="1"/>
</svg>