<?xml version="1.0" encoding="UTF-8"?>
<svg xmlns="http://www.w3.org/2000/svg" viewBox="352.00 421.00 792.00 1200.00">
  <path d="M 501.00 1033.00 L 491.00 1031.00 L 491.00 1029.00 L 501.00 1027.00 L 499.00 1025.00 L 485.00 1023.00 L 486.00 1020.00 L 502.00 1016.00 L 502.00 1013.00 L 486.00 1011.00 L 487.00 1009.00 L 505.00 1007.00 L 504.00 1003.00 L 484.00 997.00 L 485.00 995.00 L 507.00 997.00 L 507.00 996.00 L 485.00 992.00 L 469.00 978.00 L 459.00 954.00 L 438.00 922.00 L 406.00 882.00 L 383.00 843.00 L 369.00 805.00 L 362.00 771.00 L 362.00 741.00 L 367.00 706.00 L 377.00 666.00 L 390.00 632.00 L 406.00 604.00 L 427.00 574.00 L 453.00 542.00 L 480.00 514.00 L 508.00 490.00 L 537.00 471.00 L 567.00 457.00 L 600.00 446.00 L 636.00 438.00 L 674.00 433.00 L 714.00 431.00 L 775.00 435.00 L 857.00 445.00 L 917.00 458.00 L 955.00 474.00 L 986.00 491.00 L 1010.00 509.00 L 1035.00 532.00 L 1061.00 560.00 L 1080.00 589.00 L 1092.00 619.00 L 1094.00 641.00 L 1086.00 655.00 L 1086.00 658.00 L 1094.00 650.00 L 1094.00 652.00 L 1086.00 664.00 L 1082.00 712.00 L 1082.00 796.00 L 1089.00 854.00 L 1103.00 886.00 L 1116.00 910.00 L 1128.00 926.00 L 1134.00 939.00 L 1134.00 949.00 L 1123.00 963.00 L 1101.00 981.00 L 1092.00 997.00 L 1096.00 1011.00 L 1096.00 1025.00 L 1092.00 1039.00 L 1091.00 1052.00 L 1093.00 1064.00 L 1087.00 1077.00 L 1073.00 1091.00 L 1067.00 1106.00 L 1069.00 1122.00 L 1067.00 1137.00 L 1061.00 1151.00 L 1055.00 1161.00 L 1049.00 1167.00 L 1039.00 1172.00 L 1025.00 1176.00 L 1006.00 1176.00 L 982.00 1172.00 L 965.00 1181.00 L 955.00 1203.00 L 957.00 1224.00 L 971.00 1244.00 L 971.00 1246.00 L 957.00 1230.00 L 957.00 1232.00 L 971.00 1252.00 L 971.00 1254.00 L 957.00 1238.00 L 956.00 1240.00 L 968.00 1260.00 L 967.00 1262.00 L 953.00 1246.00 L 945.00 1239.00 L 943.00 1241.00 L 980.00 1305.00 L 1056.00 1431.00 L 1095.00 1496.00 L 1097.00 1500.00 L 1094.00 1496.00 L 1086.00 1484.00 L 1087.00 1486.00 L 1097.00 1502.00 L 1096.00 1501.00 L 1084.00 1483.00 L 1085.00 1485.00 L 1099.00 1507.00 L 1082.00 1481.00 L 1034.00 1407.00 L 1035.00 1409.00 L 1085.00 1487.00 L 1111.00 1528.00 L 1113.00 1532.00 L 1100.00 1513.00 L 1072.00 1471.00 L 1073.00 1477.00 L 1103.00 1531.00 L 1090.00 1513.00 L 1034.00 1423.00 L 1034.00 1425.00 L 1090.00 1519.00 L 1088.00 1518.00 L 1028.00 1422.00 L 1028.00 1425.00 L 1088.00 1527.00 L 1077.00 1510.00 L 995.00 1374.00 L 995.00 1377.00 L 1077.00 1519.00 L 1074.00 1515.00 L 986.00 1365.00 L 986.00 1369.00 L 1074.00 1527.00 L 1072.00 1526.00 L 980.00 1366.00 L 979.00 1368.00 L 1069.00 1532.00 L 1079.00 1552.00 L 1009.00 1428.00 L 1008.00 1430.00 L 1076.00 1558.00 L 1065.00 1540.00 L 975.00 1376.00 L 972.00 1375.00 L 1056.00 1537.00 L 1064.00 1553.00 L 996.00 1423.00 L 995.00 1422.00 L 1061.00 1550.00 L 1091.00 1611.00 L 1085.00 1605.00 L 1044.00 1527.00 L 968.00 1377.00 L 966.00 1376.00 L 1038.00 1524.00 L 1037.00 1525.00 L 963.00 1379.00 L 959.00 1376.00 L 1025.00 1516.00 L 1028.00 1525.00 L 968.00 1403.00 L 964.00 1400.00 L 1016.00 1516.00 L 1040.00 1572.00 L 1036.00 1568.00 L 1005.00 1502.00 L 947.00 1374.00 L 945.00 1373.00 L 999.00 1499.00 L 1000.00 1504.00 L 948.00 1388.00 L 946.00 1387.00 L 994.00 1501.00 L 991.00 1495.00 L 937.00 1369.00 L 936.00 1368.00 L 988.00 1492.00 L 988.00 1494.00 L 936.00 1374.00 L 933.00 1372.00 L 979.00 1488.00 L 964.00 1521.00 L 888.00 1471.00 L 814.00 1428.00 L 742.00 1392.00 L 669.00 1364.00 L 595.00 1344.00 L 533.00 1334.00 L 483.00 1334.00 L 457.00 1323.00 L 455.00 1301.00 L 462.00 1273.00 L 478.00 1239.00 L 486.00 1212.00 L 486.00 1192.00 L 488.00 1178.00 L 492.00 1170.00 L 492.00 1154.00 L 488.00 1130.00 L 491.00 1098.00 L 501.00 1058.00 L 506.00 1037.00 L 506.00 1035.00 L 501.00 1033.00 Z" fill="black" stroke="black" stroke-width="1"/>
</svg>