<?xml version="1.0" encoding="UTF-8"?>
<svg xmlns="http://www.w3.org/2000/svg" viewBox="282.00 178.00 1405.00 1627.00">
  <path d="M 321.00 906.00 L 359.00 698.00 L 402.00 549.00 L 450.00 459.00 L 512.00 375.00 L 588.00 297.00 L 684.00 239.00 L 800.00 201.00 L 914.00 188.00 L 1026.00 200.00 L 1121.00 222.00 L 1199.00 254.00 L 1278.00 305.00 L 1358.00 375.00 L 1433.00 461.00 L 1503.00 563.00 L 1541.00 620.00 L 1547.00 632.00 L 1466.00 689.00 L 1298.00 791.00 L 1300.00 794.00 L 1472.00 698.00 L 1470.00 700.00 L 1294.00 800.00 L 1296.00 803.00 L 1476.00 709.00 L 1483.00 708.00 L 1317.00 800.00 L 1319.00 804.00 L 1489.00 720.00 L 1483.00 725.00 L 1301.00 819.00 L 1304.00 824.00 L 1492.00 740.00 L 1492.00 743.00 L 1304.00 833.00 L 1307.00 839.00 L 1501.00 761.00 L 1501.00 765.00 L 1307.00 851.00 L 1311.00 858.00 L 1513.00 786.00 L 1513.00 790.00 L 1311.00 870.00 L 1313.00 876.00 L 1519.00 808.00 L 1519.00 811.00 L 1313.00 885.00 L 1315.00 888.00 L 1525.00 820.00 L 1570.00 806.00 L 1450.00 846.00 L 1451.00 849.00 L 1573.00 815.00 L 1577.00 816.00 L 1463.00 852.00 L 1466.00 858.00 L 1586.00 834.00 L 1540.00 851.00 L 1328.00 909.00 L 1330.00 914.00 L 1546.00 866.00 L 1549.00 869.00 L 1339.00 923.00 L 1342.00 931.00 L 1558.00 893.00 L 1560.00 896.00 L 1348.00 940.00 L 1350.00 944.00 L 1566.00 908.00 L 1568.00 910.00 L 1356.00 950.00 L 1357.00 955.00 L 1571.00 925.00 L 1658.00 914.00 L 1618.00 922.00 L 1620.00 927.00 L 1664.00 929.00 L 1579.00 943.00 L 1365.00 969.00 L 1353.00 972.00 L 1543.00 952.00 L 1651.00 946.00 L 1677.00 954.00 L 1584.00 967.00 L 1372.00 985.00 L 1370.00 987.00 L 1578.00 973.00 L 1579.00 976.00 L 1373.00 996.00 L 1267.00 1016.00 L 1261.00 1036.00 L 1249.00 1046.00 L 1231.00 1046.00 L 1225.00 1093.00 L 1231.00 1187.00 L 1210.00 1268.00 L 1162.00 1336.00 L 1168.00 1422.00 L 1228.00 1526.00 L 1226.00 1529.00 L 1162.00 1431.00 L 1172.00 1452.00 L 1256.00 1592.00 L 1255.00 1594.00 L 1169.00 1458.00 L 1170.00 1469.00 L 1258.00 1627.00 L 1256.00 1629.00 L 1164.00 1475.00 L 1163.00 1480.00 L 1253.00 1644.00 L 1284.00 1744.00 L 1256.00 1780.00 L 1228.00 1795.00 L 1200.00 1789.00 L 1138.00 1738.00 L 1042.00 1642.00 L 954.00 1573.00 L 874.00 1531.00 L 804.00 1502.00 L 744.00 1486.00 L 672.00 1485.00 L 588.00 1499.00 L 557.00 1481.00 L 579.00 1431.00 L 575.00 1423.00 L 545.00 1457.00 L 549.00 1450.00 L 587.00 1402.00 L 587.00 1399.00 L 549.00 1441.00 L 550.00 1436.00 L 590.00 1384.00 L 594.00 1375.00 L 562.00 1409.00 L 565.00 1394.00 L 603.00 1330.00 L 600.00 1319.00 L 556.00 1361.00 L 557.00 1359.00 L 603.00 1313.00 L 603.00 1310.00 L 557.00 1350.00 L 557.00 1347.00 L 603.00 1301.00 L 604.00 1298.00 L 560.00 1338.00 L 561.00 1336.00 L 607.00 1292.00 L 609.00 1289.00 L 567.00 1327.00 L 558.00 1327.00 L 582.00 1289.00 L 582.00 1278.00 L 558.00 1294.00 L 559.00 1288.00 L 585.00 1260.00 L 531.00 1292.00 L 397.00 1384.00 L 396.00 1380.00 L 528.00 1280.00 L 525.00 1275.00 L 387.00 1365.00 L 387.00 1362.00 L 525.00 1266.00 L 523.00 1259.00 L 381.00 1341.00 L 381.00 1338.00 L 523.00 1250.00 L 521.00 1244.00 L 375.00 1320.00 L 375.00 1316.00 L 521.00 1232.00 L 520.00 1225.00 L 372.00 1295.00 L 372.00 1291.00 L 520.00 1213.00 L 520.00 1207.00 L 372.00 1273.00 L 373.00 1269.00 L 523.00 1195.00 L 522.00 1192.00 L 370.00 1260.00 L 360.00 1262.00 L 492.00 1198.00 L 492.00 1193.00 L 360.00 1247.00 L 371.00 1241.00 L 525.00 1175.00 L 524.00 1167.00 L 368.00 1217.00 L 369.00 1213.00 L 527.00 1155.00 L 527.00 1148.00 L 369.00 1192.00 L 370.00 1188.00 L 530.00 1136.00 L 530.00 1132.00 L 370.00 1176.00 L 369.00 1174.00 L 527.00 1126.00 L 527.00 1119.00 L 369.00 1153.00 L 371.00 1150.00 L 533.00 1110.00 L 533.00 1106.00 L 371.00 1138.00 L 292.00 1122.00 L 296.00 1058.00 L 299.00 1022.00 L 301.00 1014.00 L 321.00 906.00 Z" fill="black" stroke="black" stroke-width="1"/>
</svg>