<?xml version="1.0" encoding="UTF-8"?>
<svg xmlns="http://www.w3.org/2000/svg" viewBox="134.00 332.00 953.00 1259.00">
  <path d="M 210.00 935.00 L 210.00 909.00 L 195.00 877.00 L 165.00 839.00 L 148.00 796.00 L 144.00 748.00 L 159.00 692.00 L 193.00 628.00 L 204.00 581.00 L 192.00 551.00 L 200.00 525.00 L 228.00 503.00 L 239.00 477.00 L 233.00 447.00 L 243.00 414.00 L 269.00 378.00 L 297.00 354.00 L 327.00 342.00 L 360.00 378.00 L 396.00 462.00 L 398.00 461.00 L 366.00 375.00 L 367.00 372.00 L 401.00 452.00 L 404.00 452.00 L 376.00 372.00 L 378.00 372.00 L 410.00 452.00 L 411.00 452.00 L 381.00 372.00 L 381.00 370.00 L 411.00 446.00 L 414.00 447.00 L 390.00 373.00 L 392.00 373.00 L 420.00 447.00 L 421.00 448.00 L 395.00 376.00 L 398.00 373.00 L 430.00 439.00 L 435.00 438.00 L 413.00 370.00 L 414.00 369.00 L 438.00 435.00 L 442.00 433.00 L 426.00 363.00 L 430.00 361.00 L 454.00 427.00 L 458.00 427.00 L 442.00 361.00 L 445.00 361.00 L 467.00 427.00 L 470.00 428.00 L 454.00 364.00 L 457.00 364.00 L 479.00 428.00 L 484.00 430.00 L 472.00 370.00 L 474.00 370.00 L 490.00 430.00 L 492.00 431.00 L 480.00 373.00 L 482.00 372.00 L 498.00 428.00 L 501.00 430.00 L 491.00 378.00 L 494.00 377.00 L 510.00 427.00 L 515.00 434.00 L 509.00 398.00 L 513.00 398.00 L 527.00 434.00 L 569.00 450.00 L 639.00 446.00 L 709.00 463.00 L 779.00 501.00 L 814.00 532.00 L 814.00 556.00 L 819.00 562.00 L 829.00 550.00 L 830.00 552.00 L 822.00 568.00 L 824.00 572.00 L 836.00 564.00 L 838.00 568.00 L 830.00 584.00 L 832.00 587.00 L 844.00 577.00 L 846.00 582.00 L 838.00 602.00 L 840.00 604.00 L 852.00 588.00 L 852.00 591.00 L 840.00 613.00 L 841.00 615.00 L 855.00 597.00 L 856.00 599.00 L 844.00 621.00 L 846.00 624.00 L 862.00 608.00 L 862.00 612.00 L 846.00 636.00 L 847.00 638.00 L 865.00 618.00 L 866.00 621.00 L 850.00 647.00 L 850.00 653.00 L 866.00 639.00 L 867.00 652.00 L 853.00 692.00 L 868.00 746.00 L 912.00 814.00 L 920.00 857.00 L 892.00 875.00 L 878.00 924.00 L 878.00 1004.00 L 847.00 1069.00 L 785.00 1119.00 L 834.00 1244.00 L 994.00 1444.00 L 1068.00 1538.00 L 1056.00 1526.00 L 1059.00 1532.00 L 1077.00 1556.00 L 1074.00 1553.00 L 1050.00 1523.00 L 1050.00 1524.00 L 1074.00 1556.00 L 1072.00 1555.00 L 1044.00 1521.00 L 1045.00 1526.00 L 1075.00 1570.00 L 1071.00 1568.00 L 1033.00 1520.00 L 1033.00 1522.00 L 1071.00 1574.00 L 1005.00 1488.00 L 835.00 1264.00 L 834.00 1267.00 L 1002.00 1497.00 L 1001.00 1499.00 L 831.00 1273.00 L 825.00 1276.00 L 983.00 1508.00 L 982.00 1511.00 L 822.00 1285.00 L 816.00 1288.00 L 964.00 1520.00 L 999.00 1581.00 L 921.00 1471.00 L 914.00 1470.00 L 978.00 1578.00 L 976.00 1576.00 L 908.00 1464.00 L 906.00 1462.00 L 970.00 1570.00 L 936.00 1514.00 L 804.00 1294.00 L 802.00 1293.00 L 930.00 1511.00 L 930.00 1514.00 L 802.00 1302.00 L 794.00 1297.00 L 906.00 1499.00 L 906.00 1500.00 L 794.00 1300.00 L 792.00 1298.00 L 900.00 1494.00 L 900.00 1497.00 L 792.00 1307.00 L 786.00 1303.00 L 882.00 1485.00 L 883.00 1488.00 L 789.00 1312.00 L 787.00 1310.00 L 877.00 1482.00 L 877.00 1485.00 L 787.00 1319.00 L 781.00 1316.00 L 859.00 1476.00 L 861.00 1482.00 L 787.00 1334.00 L 785.00 1332.00 L 855.00 1476.00 L 855.00 1477.00 L 785.00 1335.00 L 782.00 1334.00 L 846.00 1474.00 L 823.00 1517.00 L 713.00 1463.00 L 587.00 1425.00 L 445.00 1403.00 L 369.00 1378.00 L 359.00 1350.00 L 361.00 1324.00 L 375.00 1300.00 L 375.00 1298.00 L 361.00 1318.00 L 365.00 1306.00 L 387.00 1262.00 L 401.00 1188.00 L 407.00 1084.00 L 388.00 1037.00 L 344.00 1047.00 L 344.00 1044.00 L 388.00 1028.00 L 386.00 1028.00 L 338.00 1044.00 L 337.00 1043.00 L 383.00 1025.00 L 377.00 1023.00 L 319.00 1037.00 L 319.00 1035.00 L 377.00 1017.00 L 374.00 1015.00 L 310.00 1029.00 L 310.00 1027.00 L 374.00 1009.00 L 371.00 1007.00 L 301.00 1021.00 L 301.00 1019.00 L 371.00 1001.00 L 367.00 995.00 L 289.00 1001.00 L 288.00 998.00 L 364.00 986.00 L 360.00 981.00 L 276.00 983.00 L 275.00 980.00 L 357.00 972.00 L 354.00 970.00 L 266.00 974.00 L 266.00 973.00 L 354.00 967.00 L 353.00 965.00 L 263.00 967.00 L 263.00 966.00 L 353.00 962.00 L 352.00 960.00 L 260.00 960.00 L 213.00 957.00 L 211.00 951.00 L 210.00 935.00 Z" fill="black" stroke="black" stroke-width="1"/>
</svg>