<?xml version="1.0" encoding="UTF-8"?>
<svg xmlns="http://www.w3.org/2000/svg" viewBox="266.00 209.00 863.00 1504.00">
  <path d="M 367.00 968.00 L 377.00 932.00 L 386.00 910.00 L 394.00 902.00 L 402.00 899.00 L 410.00 901.00 L 406.00 897.00 L 390.00 887.00 L 389.00 883.00 L 403.00 885.00 L 404.00 883.00 L 392.00 877.00 L 378.00 845.00 L 362.00 787.00 L 340.00 729.00 L 312.00 671.00 L 301.00 643.00 L 307.00 645.00 L 306.00 642.00 L 298.00 634.00 L 300.00 634.00 L 312.00 642.00 L 311.00 640.00 L 297.00 628.00 L 289.00 600.00 L 287.00 556.00 L 295.00 506.00 L 313.00 450.00 L 346.00 394.00 L 394.00 338.00 L 436.00 301.00 L 472.00 283.00 L 491.00 271.00 L 493.00 265.00 L 495.00 265.00 L 497.00 271.00 L 500.00 270.00 L 504.00 262.00 L 528.00 249.00 L 572.00 231.00 L 626.00 221.00 L 690.00 219.00 L 751.00 228.00 L 809.00 248.00 L 861.00 278.00 L 907.00 318.00 L 929.00 345.00 L 927.00 359.00 L 929.00 361.00 L 935.00 351.00 L 938.00 353.00 L 938.00 367.00 L 940.00 369.00 L 944.00 359.00 L 946.00 358.00 L 946.00 366.00 L 949.00 368.00 L 955.00 364.00 L 956.00 368.00 L 952.00 380.00 L 954.00 381.00 L 962.00 371.00 L 964.00 374.00 L 960.00 390.00 L 962.00 392.00 L 970.00 380.00 L 972.00 382.00 L 968.00 398.00 L 970.00 400.00 L 978.00 388.00 L 980.00 390.00 L 976.00 406.00 L 977.00 408.00 L 983.00 396.00 L 984.00 399.00 L 980.00 417.00 L 988.00 447.00 L 1008.00 489.00 L 1018.00 528.00 L 1018.00 564.00 L 1047.00 619.00 L 1105.00 693.00 L 1119.00 742.00 L 1089.00 766.00 L 1088.00 770.00 L 1116.00 754.00 L 1114.00 757.00 L 1082.00 779.00 L 1080.00 782.00 L 1108.00 766.00 L 1109.00 770.00 L 1083.00 794.00 L 1072.00 820.00 L 1076.00 848.00 L 1074.00 865.00 L 1066.00 871.00 L 1065.00 879.00 L 1071.00 889.00 L 1065.00 908.00 L 1047.00 936.00 L 1041.00 958.00 L 1047.00 974.00 L 1048.00 993.00 L 1044.00 1015.00 L 1037.00 1032.00 L 1027.00 1044.00 L 1004.00 1059.00 L 968.00 1077.00 L 956.00 1091.00 L 968.00 1101.00 L 973.00 1111.00 L 971.00 1121.00 L 961.00 1136.00 L 943.00 1156.00 L 939.00 1174.00 L 949.00 1190.00 L 947.00 1194.00 L 933.00 1186.00 L 946.00 1211.00 L 986.00 1269.00 L 993.00 1284.00 L 967.00 1256.00 L 969.00 1259.00 L 999.00 1293.00 L 994.00 1288.00 L 954.00 1244.00 L 952.00 1246.00 L 988.00 1294.00 L 986.00 1295.00 L 946.00 1249.00 L 943.00 1247.00 L 977.00 1289.00 L 975.00 1288.00 L 937.00 1244.00 L 934.00 1242.00 L 966.00 1282.00 L 964.00 1287.00 L 928.00 1257.00 L 946.00 1295.00 L 1018.00 1401.00 L 1055.00 1456.00 L 1057.00 1460.00 L 1040.00 1437.00 L 1004.00 1387.00 L 1005.00 1390.00 L 1043.00 1446.00 L 1032.00 1431.00 L 972.00 1345.00 L 974.00 1349.00 L 1038.00 1443.00 L 1033.00 1436.00 L 959.00 1328.00 L 965.00 1340.00 L 1051.00 1472.00 L 1058.00 1484.00 L 986.00 1376.00 L 988.00 1382.00 L 1064.00 1502.00 L 1056.00 1492.00 L 964.00 1352.00 L 965.00 1355.00 L 1059.00 1501.00 L 1058.00 1500.00 L 962.00 1352.00 L 962.00 1354.00 L 1058.00 1506.00 L 1108.00 1590.00 L 1112.00 1606.00 L 1112.00 1631.00 L 1108.00 1665.00 L 1103.00 1680.00 L 1097.00 1676.00 L 1095.00 1678.00 L 1097.00 1686.00 L 1095.00 1687.00 L 1089.00 1681.00 L 1088.00 1682.00 L 1092.00 1690.00 L 1091.00 1692.00 L 1085.00 1688.00 L 1083.00 1689.00 L 1085.00 1695.00 L 1081.00 1693.00 L 1071.00 1683.00 L 1068.00 1685.00 L 1072.00 1699.00 L 1071.00 1700.00 L 1065.00 1688.00 L 1060.00 1688.00 L 1056.00 1700.00 L 1046.00 1703.00 L 1030.00 1697.00 L 995.00 1674.00 L 941.00 1634.00 L 868.00 1571.00 L 776.00 1485.00 L 714.00 1431.00 L 682.00 1409.00 L 645.00 1389.00 L 603.00 1371.00 L 571.00 1359.00 L 549.00 1353.00 L 521.00 1351.00 L 487.00 1353.00 L 447.00 1361.00 L 401.00 1375.00 L 354.00 1395.00 L 306.00 1421.00 L 280.00 1429.00 L 276.00 1419.00 L 276.00 1390.00 L 280.00 1342.00 L 299.00 1271.00 L 333.00 1177.00 L 346.00 1117.00 L 338.00 1091.00 L 340.00 1058.00 L 352.00 1018.00 L 359.00 995.00 L 361.00 989.00 L 367.00 968.00 Z" fill="black" stroke="black" stroke-width="1"/>
</svg>