<?xml version="1.0" encoding="UTF-8"?>
<svg xmlns="http://www.w3.org/2000/svg" viewBox="384.00 371.00 730.00 1283.00">
  <path d="M 432.00 1045.00 L 420.00 1043.00 L 426.00 1042.00 L 450.00 1042.00 L 451.00 1041.00 L 429.00 1039.00 L 429.00 1037.00 L 451.00 1035.00 L 451.00 1033.00 L 429.00 1031.00 L 421.00 1011.00 L 427.00 973.00 L 421.00 918.00 L 403.00 846.00 L 394.00 776.00 L 394.00 708.00 L 407.00 635.00 L 433.00 557.00 L 464.00 497.00 L 500.00 455.00 L 548.00 420.00 L 608.00 392.00 L 675.00 381.00 L 749.00 387.00 L 817.00 405.00 L 879.00 435.00 L 927.00 464.00 L 961.00 492.00 L 997.00 528.00 L 1035.00 572.00 L 1051.00 600.00 L 1045.00 612.00 L 1046.00 613.00 L 1054.00 603.00 L 1055.00 606.00 L 1049.00 622.00 L 1051.00 625.00 L 1061.00 615.00 L 1062.00 617.00 L 1054.00 631.00 L 1055.00 633.00 L 1065.00 623.00 L 1066.00 626.00 L 1058.00 642.00 L 1059.00 645.00 L 1069.00 635.00 L 1070.00 638.00 L 1062.00 654.00 L 1063.00 656.00 L 1073.00 644.00 L 1073.00 645.00 L 1063.00 659.00 L 1064.00 661.00 L 1076.00 651.00 L 1077.00 655.00 L 1067.00 673.00 L 1068.00 675.00 L 1080.00 661.00 L 1081.00 665.00 L 1071.00 687.00 L 1072.00 692.00 L 1084.00 680.00 L 1088.00 677.00 L 1084.00 683.00 L 1085.00 685.00 L 1091.00 683.00 L 1088.00 689.00 L 1076.00 703.00 L 1074.00 706.00 L 1082.00 698.00 L 1082.00 700.00 L 1074.00 712.00 L 1076.00 712.00 L 1088.00 700.00 L 1088.00 703.00 L 1076.00 721.00 L 1071.00 771.00 L 1073.00 853.00 L 1084.00 922.00 L 1104.00 978.00 L 1100.00 1017.00 L 1072.00 1039.00 L 1059.00 1063.00 L 1061.00 1089.00 L 1057.00 1105.00 L 1047.00 1111.00 L 1043.00 1119.00 L 1045.00 1129.00 L 1037.00 1144.00 L 1019.00 1164.00 L 1006.00 1186.00 L 998.00 1210.00 L 983.00 1229.00 L 961.00 1243.00 L 942.00 1251.00 L 926.00 1253.00 L 921.00 1259.00 L 927.00 1269.00 L 925.00 1269.00 L 915.00 1259.00 L 915.00 1262.00 L 925.00 1278.00 L 924.00 1278.00 L 912.00 1262.00 L 910.00 1264.00 L 918.00 1284.00 L 915.00 1302.00 L 901.00 1318.00 L 898.00 1342.00 L 906.00 1374.00 L 904.00 1377.00 L 892.00 1351.00 L 888.00 1345.00 L 892.00 1359.00 L 892.00 1363.00 L 888.00 1357.00 L 897.00 1384.00 L 919.00 1444.00 L 918.00 1446.00 L 894.00 1390.00 L 893.00 1392.00 L 915.00 1452.00 L 917.00 1459.00 L 899.00 1413.00 L 898.00 1412.00 L 914.00 1456.00 L 912.00 1456.00 L 892.00 1412.00 L 887.00 1406.00 L 897.00 1438.00 L 896.00 1437.00 L 884.00 1403.00 L 894.00 1441.00 L 926.00 1551.00 L 926.00 1557.00 L 894.00 1459.00 L 895.00 1466.00 L 929.00 1578.00 L 928.00 1577.00 L 892.00 1463.00 L 892.00 1465.00 L 928.00 1583.00 L 927.00 1581.00 L 889.00 1459.00 L 889.00 1464.00 L 927.00 1596.00 L 926.00 1597.00 L 886.00 1467.00 L 886.00 1470.00 L 926.00 1606.00 L 925.00 1604.00 L 883.00 1464.00 L 882.00 1466.00 L 922.00 1610.00 L 922.00 1614.00 L 882.00 1478.00 L 880.00 1479.00 L 916.00 1617.00 L 916.00 1624.00 L 880.00 1500.00 L 878.00 1501.00 L 910.00 1627.00 L 908.00 1621.00 L 872.00 1483.00 L 870.00 1482.00 L 902.00 1618.00 L 901.00 1619.00 L 867.00 1485.00 L 864.00 1482.00 L 892.00 1610.00 L 891.00 1609.00 L 861.00 1479.00 L 859.00 1476.00 L 885.00 1600.00 L 880.00 1644.00 L 844.00 1608.00 L 793.00 1567.00 L 727.00 1521.00 L 660.00 1483.00 L 592.00 1453.00 L 520.00 1432.00 L 444.00 1420.00 L 405.00 1398.00 L 403.00 1366.00 L 403.00 1343.00 L 405.00 1329.00 L 410.00 1318.00 L 418.00 1310.00 L 419.00 1308.00 L 413.00 1312.00 L 416.00 1290.00 L 428.00 1242.00 L 432.00 1209.00 L 428.00 1191.00 L 432.00 1152.00 L 444.00 1092.00 L 443.00 1062.00 L 429.00 1062.00 L 431.00 1060.00 L 449.00 1056.00 L 447.00 1054.00 L 425.00 1054.00 L 419.00 1053.00 L 429.00 1051.00 L 435.00 1049.00 L 437.00 1047.00 L 432.00 1045.00 Z" fill="black" stroke="black" stroke-width="1"/>
</svg>