<?xml version="1.0" encoding="UTF-8"?>
<svg xmlns="http://www.w3.org/2000/svg" viewBox="341.00 321.00 917.00 1464.00">
  <path d="M 426.00 1049.00 L 426.00 1039.00 L 433.00 1024.00 L 447.00 1004.00 L 449.00 982.00 L 439.00 958.00 L 435.00 925.00 L 437.00 883.00 L 421.00 850.00 L 387.00 826.00 L 386.00 823.00 L 418.00 841.00 L 417.00 838.00 L 383.00 814.00 L 366.00 797.00 L 366.00 787.00 L 400.00 749.00 L 468.00 683.00 L 501.00 642.00 L 499.00 626.00 L 518.00 571.00 L 558.00 477.00 L 579.00 433.00 L 581.00 439.00 L 582.00 437.00 L 582.00 427.00 L 583.00 425.00 L 585.00 431.00 L 588.00 433.00 L 592.00 431.00 L 594.00 424.00 L 594.00 412.00 L 609.00 397.00 L 639.00 379.00 L 681.00 360.00 L 735.00 340.00 L 798.00 331.00 L 870.00 333.00 L 947.00 345.00 L 1029.00 367.00 L 1074.00 381.00 L 1082.00 387.00 L 1085.00 394.00 L 1083.00 402.00 L 1086.00 404.00 L 1094.00 400.00 L 1096.00 404.00 L 1092.00 416.00 L 1095.00 418.00 L 1105.00 410.00 L 1107.00 412.00 L 1101.00 424.00 L 1103.00 426.00 L 1113.00 418.00 L 1127.00 423.00 L 1145.00 441.00 L 1151.00 457.00 L 1145.00 471.00 L 1147.00 473.00 L 1157.00 463.00 L 1160.00 463.00 L 1156.00 473.00 L 1158.00 476.00 L 1166.00 472.00 L 1174.00 474.00 L 1182.00 482.00 L 1202.00 528.00 L 1234.00 612.00 L 1248.00 685.00 L 1244.00 747.00 L 1230.00 807.00 L 1206.00 865.00 L 1182.00 901.00 L 1158.00 915.00 L 1155.00 921.00 L 1173.00 919.00 L 1173.00 922.00 L 1155.00 930.00 L 1154.00 933.00 L 1170.00 931.00 L 1170.00 933.00 L 1154.00 939.00 L 1151.00 948.00 L 1161.00 960.00 L 1171.00 1006.00 L 1181.00 1086.00 L 1184.00 1138.00 L 1180.00 1162.00 L 1187.00 1193.00 L 1205.00 1231.00 L 1218.00 1275.00 L 1226.00 1325.00 L 1231.00 1367.00 L 1233.00 1401.00 L 1231.00 1428.00 L 1225.00 1448.00 L 1210.00 1455.00 L 1186.00 1449.00 L 1151.00 1447.00 L 1105.00 1449.00 L 1024.00 1464.00 L 908.00 1492.00 L 806.00 1526.00 L 718.00 1566.00 L 625.00 1616.00 L 527.00 1676.00 L 458.00 1723.00 L 418.00 1757.00 L 395.00 1772.00 L 389.00 1768.00 L 383.00 1769.00 L 377.00 1775.00 L 375.00 1773.00 L 377.00 1763.00 L 374.00 1761.00 L 366.00 1767.00 L 359.00 1765.00 L 353.00 1755.00 L 351.00 1738.00 L 353.00 1714.00 L 391.00 1644.00 L 465.00 1528.00 L 466.00 1525.00 L 394.00 1635.00 L 380.00 1655.00 L 424.00 1585.00 L 425.00 1582.00 L 383.00 1646.00 L 409.00 1606.00 L 503.00 1462.00 L 504.00 1459.00 L 412.00 1597.00 L 413.00 1593.00 L 507.00 1447.00 L 530.00 1408.00 L 482.00 1476.00 L 482.00 1473.00 L 530.00 1399.00 L 551.00 1361.00 L 545.00 1359.00 L 522.00 1381.00 L 482.00 1427.00 L 474.00 1434.00 L 498.00 1402.00 L 495.00 1404.00 L 465.00 1440.00 L 472.00 1430.00 L 516.00 1374.00 L 514.00 1372.00 L 466.00 1424.00 L 467.00 1420.00 L 517.00 1360.00 L 519.00 1357.00 L 473.00 1411.00 L 471.00 1410.00 L 513.00 1354.00 L 521.00 1340.00 L 495.00 1368.00 L 487.00 1369.00 L 497.00 1343.00 L 498.00 1334.00 L 490.00 1342.00 L 492.00 1339.00 L 504.00 1325.00 L 506.00 1316.00 L 498.00 1312.00 L 502.00 1302.00 L 518.00 1286.00 L 517.00 1285.00 L 499.00 1299.00 L 500.00 1297.00 L 520.00 1279.00 L 527.00 1271.00 L 521.00 1273.00 L 521.00 1271.00 L 527.00 1265.00 L 519.00 1271.00 L 497.00 1289.00 L 497.00 1288.00 L 519.00 1268.00 L 521.00 1265.00 L 503.00 1279.00 L 502.00 1277.00 L 518.00 1259.00 L 523.00 1237.00 L 517.00 1211.00 L 507.00 1188.00 L 493.00 1168.00 L 493.00 1154.00 L 507.00 1146.00 L 493.00 1122.00 L 451.00 1082.00 L 429.00 1060.00 L 427.00 1056.00 L 426.00 1049.00 Z" fill="black" stroke="black" stroke-width="1"/>
</svg>