<?xml version="1.0" encoding="UTF-8"?>
<svg xmlns="http://www.w3.org/2000/svg" viewBox="317.00 281.00 814.00 1431.00">
  <path d="M 413.00 956.00 L 419.00 928.00 L 428.00 910.00 L 440.00 902.00 L 446.00 894.00 L 446.00 886.00 L 442.00 880.00 L 434.00 876.00 L 434.00 873.00 L 442.00 871.00 L 441.00 868.00 L 431.00 864.00 L 425.00 842.00 L 423.00 802.00 L 413.00 744.00 L 395.00 668.00 L 386.00 613.00 L 386.00 579.00 L 388.00 545.00 L 392.00 511.00 L 399.00 476.00 L 409.00 440.00 L 426.00 406.00 L 450.00 374.00 L 479.00 347.00 L 513.00 325.00 L 536.00 314.00 L 548.00 314.00 L 565.00 309.00 L 587.00 299.00 L 622.00 293.00 L 670.00 291.00 L 730.00 296.00 L 802.00 308.00 L 854.00 319.00 L 886.00 329.00 L 917.00 343.00 L 947.00 361.00 L 968.00 379.00 L 980.00 397.00 L 992.00 410.00 L 1004.00 418.00 L 1023.00 441.00 L 1049.00 479.00 L 1060.00 509.00 L 1056.00 531.00 L 1057.00 538.00 L 1063.00 530.00 L 1063.00 533.00 L 1057.00 547.00 L 1058.00 550.00 L 1066.00 542.00 L 1067.00 545.00 L 1061.00 559.00 L 1062.00 561.00 L 1070.00 551.00 L 1070.00 552.00 L 1062.00 564.00 L 1060.00 568.00 L 1064.00 564.00 L 1065.00 565.00 L 1063.00 571.00 L 1067.00 569.00 L 1077.00 559.00 L 1077.00 561.00 L 1067.00 575.00 L 1068.00 578.00 L 1080.00 570.00 L 1081.00 573.00 L 1071.00 587.00 L 1072.00 589.00 L 1084.00 579.00 L 1084.00 582.00 L 1072.00 598.00 L 1072.00 600.00 L 1084.00 588.00 L 1084.00 590.00 L 1072.00 606.00 L 1072.00 608.00 L 1084.00 596.00 L 1084.00 599.00 L 1072.00 617.00 L 1072.00 619.00 L 1084.00 605.00 L 1088.00 603.00 L 1084.00 613.00 L 1084.00 616.00 L 1088.00 612.00 L 1085.00 617.00 L 1075.00 631.00 L 1075.00 634.00 L 1085.00 626.00 L 1085.00 628.00 L 1075.00 640.00 L 1068.00 671.00 L 1064.00 721.00 L 1077.00 771.00 L 1107.00 821.00 L 1121.00 851.00 L 1119.00 861.00 L 1104.00 876.00 L 1076.00 896.00 L 1062.00 916.00 L 1062.00 936.00 L 1058.00 950.00 L 1050.00 958.00 L 1047.00 966.00 L 1049.00 974.00 L 1047.00 979.00 L 1041.00 981.00 L 1039.00 983.00 L 1041.00 985.00 L 1038.00 991.00 L 1030.00 1001.00 L 1029.00 1018.00 L 1035.00 1042.00 L 1036.00 1062.00 L 1032.00 1078.00 L 1024.00 1092.00 L 1012.00 1104.00 L 1001.00 1112.00 L 991.00 1116.00 L 990.00 1122.00 L 998.00 1130.00 L 996.00 1131.00 L 984.00 1125.00 L 984.00 1127.00 L 996.00 1137.00 L 995.00 1153.00 L 981.00 1175.00 L 981.00 1197.00 L 995.00 1219.00 L 995.00 1223.00 L 981.00 1209.00 L 981.00 1212.00 L 995.00 1232.00 L 994.00 1234.00 L 978.00 1218.00 L 977.00 1220.00 L 991.00 1240.00 L 990.00 1241.00 L 974.00 1223.00 L 972.00 1224.00 L 984.00 1244.00 L 984.00 1247.00 L 972.00 1233.00 L 976.00 1240.00 L 996.00 1268.00 L 1004.00 1280.00 L 1000.00 1276.00 L 1002.00 1281.00 L 1010.00 1295.00 L 1005.00 1290.00 L 987.00 1266.00 L 989.00 1272.00 L 1011.00 1308.00 L 1009.00 1308.00 L 983.00 1272.00 L 982.00 1273.00 L 1006.00 1311.00 L 1003.00 1313.00 L 973.00 1279.00 L 961.00 1269.00 L 967.00 1283.00 L 965.00 1282.00 L 955.00 1266.00 L 953.00 1267.00 L 959.00 1285.00 L 959.00 1294.00 L 953.00 1294.00 L 949.00 1301.00 L 947.00 1315.00 L 956.00 1347.00 L 976.00 1397.00 L 975.00 1399.00 L 953.00 1353.00 L 965.00 1384.00 L 1011.00 1492.00 L 1010.00 1494.00 L 962.00 1390.00 L 963.00 1395.00 L 1013.00 1509.00 L 1037.00 1564.00 L 1035.00 1560.00 L 1037.00 1571.00 L 1043.00 1597.00 L 1045.00 1608.00 L 1043.00 1604.00 L 1043.00 1614.00 L 1045.00 1638.00 L 1043.00 1660.00 L 1037.00 1680.00 L 1031.00 1693.00 L 1025.00 1699.00 L 1012.00 1702.00 L 992.00 1702.00 L 932.00 1642.00 L 832.00 1522.00 L 754.00 1438.00 L 698.00 1390.00 L 652.00 1357.00 L 616.00 1339.00 L 581.00 1326.00 L 547.00 1318.00 L 503.00 1314.00 L 449.00 1314.00 L 398.00 1319.00 L 350.00 1329.00 L 327.00 1316.00 L 329.00 1280.00 L 333.00 1249.00 L 339.00 1223.00 L 355.00 1181.00 L 381.00 1123.00 L 394.00 1079.00 L 394.00 1049.00 L 397.00 1020.00 L 403.00 992.00 L 407.00 976.00 L 409.00 972.00 L 413.00 956.00 Z" fill="black" stroke="black" stroke-width="1"/>
</svg>