<?xml version="1.0" encoding="UTF-8"?>
<svg xmlns="http://www.w3.org/2000/svg" viewBox="343.00 376.00 772.00 1322.00">
  <path d="M 434.00 1017.00 L 442.00 999.00 L 438.00 982.00 L 422.00 966.00 L 414.00 949.00 L 414.00 931.00 L 405.00 903.00 L 387.00 865.00 L 373.00 822.00 L 363.00 774.00 L 358.00 737.00 L 358.00 711.00 L 364.00 677.00 L 376.00 635.00 L 393.00 593.00 L 415.00 551.00 L 444.00 510.00 L 480.00 470.00 L 510.00 442.00 L 534.00 426.00 L 558.00 413.00 L 582.00 403.00 L 607.00 395.00 L 633.00 389.00 L 671.00 386.00 L 721.00 386.00 L 771.00 390.00 L 821.00 398.00 L 869.00 414.00 L 915.00 438.00 L 950.00 459.00 L 974.00 477.00 L 992.00 495.00 L 1004.00 513.00 L 1008.00 529.00 L 1004.00 543.00 L 1006.00 544.00 L 1014.00 532.00 L 1019.00 527.00 L 1021.00 529.00 L 1019.00 536.00 L 1013.00 548.00 L 1011.00 557.00 L 1013.00 563.00 L 1018.00 559.00 L 1026.00 545.00 L 1028.00 545.00 L 1024.00 559.00 L 1025.00 561.00 L 1031.00 551.00 L 1030.00 553.00 L 1022.00 567.00 L 1023.00 568.00 L 1033.00 556.00 L 1034.00 558.00 L 1026.00 574.00 L 1027.00 577.00 L 1037.00 567.00 L 1038.00 570.00 L 1030.00 586.00 L 1031.00 588.00 L 1041.00 576.00 L 1043.00 578.00 L 1037.00 594.00 L 1038.00 597.00 L 1046.00 587.00 L 1047.00 590.00 L 1041.00 606.00 L 1042.00 630.00 L 1050.00 662.00 L 1052.00 698.00 L 1048.00 738.00 L 1047.00 763.00 L 1049.00 773.00 L 1057.00 789.00 L 1071.00 811.00 L 1076.00 826.00 L 1072.00 834.00 L 1073.00 837.00 L 1079.00 835.00 L 1081.00 836.00 L 1079.00 840.00 L 1081.00 843.00 L 1087.00 845.00 L 1095.00 857.00 L 1105.00 879.00 L 1105.00 898.00 L 1095.00 914.00 L 1081.00 926.00 L 1063.00 934.00 L 1051.00 945.00 L 1045.00 959.00 L 1043.00 972.00 L 1045.00 984.00 L 1042.00 994.00 L 1034.00 1002.00 L 1031.00 1011.00 L 1033.00 1021.00 L 1025.00 1033.00 L 1007.00 1047.00 L 998.00 1063.00 L 998.00 1081.00 L 995.00 1098.00 L 989.00 1114.00 L 980.00 1127.00 L 968.00 1137.00 L 953.00 1144.00 L 935.00 1148.00 L 925.00 1152.00 L 923.00 1156.00 L 925.00 1161.00 L 931.00 1167.00 L 933.00 1173.00 L 931.00 1179.00 L 921.00 1191.00 L 903.00 1209.00 L 898.00 1226.00 L 906.00 1242.00 L 906.00 1245.00 L 898.00 1235.00 L 899.00 1237.00 L 909.00 1251.00 L 910.00 1255.00 L 902.00 1249.00 L 901.00 1252.00 L 907.00 1264.00 L 905.00 1263.00 L 895.00 1249.00 L 892.00 1250.00 L 896.00 1266.00 L 909.00 1293.00 L 931.00 1331.00 L 929.00 1331.00 L 903.00 1293.00 L 902.00 1295.00 L 926.00 1337.00 L 924.00 1336.00 L 896.00 1292.00 L 894.00 1292.00 L 918.00 1336.00 L 922.00 1350.00 L 906.00 1334.00 L 910.00 1352.00 L 934.00 1404.00 L 932.00 1402.00 L 904.00 1346.00 L 905.00 1349.00 L 935.00 1411.00 L 931.00 1404.00 L 893.00 1328.00 L 903.00 1353.00 L 961.00 1479.00 L 961.00 1481.00 L 903.00 1359.00 L 900.00 1353.00 L 952.00 1463.00 L 959.00 1478.00 L 921.00 1398.00 L 923.00 1403.00 L 965.00 1493.00 L 962.00 1487.00 L 914.00 1385.00 L 917.00 1393.00 L 971.00 1511.00 L 970.00 1510.00 L 914.00 1390.00 L 916.00 1396.00 L 976.00 1528.00 L 975.00 1527.00 L 913.00 1393.00 L 913.00 1396.00 L 975.00 1536.00 L 974.00 1535.00 L 910.00 1393.00 L 910.00 1397.00 L 974.00 1547.00 L 972.00 1545.00 L 904.00 1391.00 L 904.00 1393.00 L 972.00 1551.00 L 971.00 1549.00 L 901.00 1387.00 L 901.00 1390.00 L 971.00 1558.00 L 1004.00 1648.00 L 1000.00 1660.00 L 994.00 1670.00 L 986.00 1678.00 L 977.00 1684.00 L 967.00 1688.00 L 958.00 1688.00 L 950.00 1684.00 L 905.00 1644.00 L 823.00 1568.00 L 753.00 1511.00 L 695.00 1473.00 L 632.00 1439.00 L 564.00 1409.00 L 485.00 1385.00 L 395.00 1367.00 L 353.00 1336.00 L 359.00 1292.00 L 372.00 1251.00 L 392.00 1213.00 L 402.00 1190.00 L 402.00 1182.00 L 407.00 1171.00 L 417.00 1157.00 L 419.00 1146.00 L 413.00 1138.00 L 410.00 1126.00 L 410.00 1110.00 L 415.00 1085.00 L 425.00 1051.00 L 430.00 1032.00 L 430.00 1028.00 L 434.00 1017.00 Z" fill="black" stroke="black" stroke-width="1"/>
</svg>