<?xml version="1.0" encoding="UTF-8"?>
<svg xmlns="http://www.w3.org/2000/svg" viewBox="308.00 197.00 904.00 1475.00">
  <path d="M 433.00 930.00 L 463.00 906.00 L 457.00 830.00 L 415.00 702.00 L 375.00 597.00 L 337.00 515.00 L 318.00 468.00 L 318.00 456.00 L 372.00 419.00 L 480.00 357.00 L 596.00 297.00 L 720.00 239.00 L 792.00 209.00 L 812.00 207.00 L 836.00 221.00 L 864.00 251.00 L 895.00 296.00 L 929.00 356.00 L 971.00 442.00 L 1021.00 554.00 L 1080.00 615.00 L 1148.00 625.00 L 1159.00 648.00 L 1113.00 684.00 L 1116.00 684.00 L 1168.00 648.00 L 1169.00 650.00 L 1119.00 690.00 L 1121.00 691.00 L 1175.00 653.00 L 1180.00 650.00 L 1136.00 682.00 L 1139.00 683.00 L 1189.00 653.00 L 1185.00 659.00 L 1127.00 701.00 L 1130.00 702.00 L 1194.00 662.00 L 1189.00 668.00 L 1115.00 720.00 L 1118.00 723.00 L 1198.00 677.00 L 1198.00 680.00 L 1118.00 732.00 L 1119.00 734.00 L 1201.00 686.00 L 1202.00 687.00 L 1122.00 737.00 L 1121.00 739.00 L 1199.00 693.00 L 1198.00 696.00 L 1118.00 748.00 L 1084.00 771.00 L 1096.00 765.00 L 1096.00 767.00 L 1084.00 777.00 L 1085.00 779.00 L 1099.00 773.00 L 1098.00 777.00 L 1082.00 791.00 L 1085.00 794.00 L 1107.00 786.00 L 1107.00 788.00 L 1085.00 800.00 L 1086.00 803.00 L 1110.00 797.00 L 1109.00 800.00 L 1083.00 812.00 L 1082.00 813.00 L 1106.00 803.00 L 1105.00 806.00 L 1079.00 822.00 L 1066.00 838.00 L 1066.00 854.00 L 1078.00 891.00 L 1102.00 949.00 L 1112.00 982.00 L 1108.00 990.00 L 1094.00 997.00 L 1070.00 1003.00 L 1059.00 1016.00 L 1061.00 1036.00 L 1056.00 1049.00 L 1044.00 1055.00 L 1038.00 1064.00 L 1038.00 1076.00 L 1032.00 1089.00 L 1020.00 1103.00 L 1014.00 1119.00 L 1014.00 1137.00 L 1007.00 1157.00 L 993.00 1179.00 L 987.00 1198.00 L 989.00 1214.00 L 981.00 1227.00 L 963.00 1237.00 L 968.00 1271.00 L 996.00 1329.00 L 995.00 1332.00 L 965.00 1280.00 L 962.00 1277.00 L 986.00 1323.00 L 984.00 1324.00 L 956.00 1280.00 L 957.00 1286.00 L 987.00 1342.00 L 987.00 1344.00 L 957.00 1292.00 L 954.00 1292.00 L 978.00 1344.00 L 978.00 1347.00 L 954.00 1301.00 L 952.00 1301.00 L 972.00 1347.00 L 971.00 1350.00 L 949.00 1310.00 L 946.00 1309.00 L 962.00 1347.00 L 963.00 1362.00 L 949.00 1354.00 L 966.00 1414.00 L 1014.00 1542.00 L 1011.00 1540.00 L 957.00 1408.00 L 958.00 1413.00 L 1014.00 1555.00 L 1041.00 1624.00 L 1039.00 1620.00 L 1039.00 1622.00 L 1041.00 1630.00 L 1026.00 1594.00 L 994.00 1514.00 L 994.00 1517.00 L 1026.00 1603.00 L 1024.00 1601.00 L 988.00 1511.00 L 988.00 1515.00 L 1024.00 1613.00 L 1011.00 1580.00 L 949.00 1416.00 L 949.00 1417.00 L 1011.00 1583.00 L 1018.00 1605.00 L 970.00 1483.00 L 969.00 1486.00 L 1015.00 1614.00 L 1007.00 1595.00 L 945.00 1429.00 L 943.00 1433.00 L 1001.00 1607.00 L 1000.00 1609.00 L 940.00 1439.00 L 937.00 1440.00 L 991.00 1612.00 L 989.00 1613.00 L 931.00 1443.00 L 927.00 1443.00 L 977.00 1613.00 L 954.00 1662.00 L 858.00 1590.00 L 784.00 1540.00 L 732.00 1512.00 L 686.00 1490.00 L 646.00 1474.00 L 583.00 1457.00 L 497.00 1439.00 L 447.00 1426.00 L 433.00 1418.00 L 424.00 1403.00 L 420.00 1381.00 L 429.00 1327.00 L 451.00 1241.00 L 459.00 1188.00 L 453.00 1168.00 L 455.00 1132.00 L 465.00 1080.00 L 476.00 1045.00 L 488.00 1027.00 L 464.00 1023.00 L 404.00 1033.00 L 405.00 1030.00 L 467.00 1014.00 L 465.00 1012.00 L 399.00 1024.00 L 399.00 1021.00 L 465.00 1003.00 L 465.00 1000.00 L 399.00 1012.00 L 381.00 1014.00 L 411.00 1006.00 L 411.00 1004.00 L 381.00 1008.00 L 398.00 1004.00 L 462.00 992.00 L 463.00 990.00 L 401.00 998.00 L 400.00 996.00 L 460.00 984.00 L 461.00 981.00 L 403.00 987.00 L 382.00 981.00 L 398.00 963.00 L 409.00 951.00 L 415.00 945.00 L 433.00 930.00 Z" fill="black" stroke="black" stroke-width="1"/>
</svg>