<?xml version="1.0" encoding="UTF-8"?>
<svg xmlns="http://www.w3.org/2000/svg" viewBox="365.00 304.00 822.00 1421.00">
  <path d="M 516.00 989.00 L 528.00 979.00 L 529.00 954.00 L 519.00 914.00 L 491.00 862.00 L 445.00 798.00 L 411.00 737.00 L 389.00 679.00 L 377.00 641.00 L 375.00 623.00 L 376.00 600.00 L 380.00 572.00 L 392.00 534.00 L 412.00 486.00 L 435.00 447.00 L 461.00 417.00 L 487.00 393.00 L 513.00 375.00 L 542.00 359.00 L 574.00 345.00 L 615.00 332.00 L 665.00 320.00 L 719.00 314.00 L 777.00 314.00 L 842.00 331.00 L 914.00 365.00 L 955.00 389.00 L 965.00 403.00 L 992.00 430.00 L 1036.00 470.00 L 1059.00 496.00 L 1061.00 508.00 L 1064.00 511.00 L 1068.00 505.00 L 1069.00 506.00 L 1067.00 514.00 L 1068.00 515.00 L 1072.00 509.00 L 1073.00 508.00 L 1071.00 512.00 L 1072.00 513.00 L 1076.00 511.00 L 1076.00 514.00 L 1072.00 522.00 L 1071.00 529.00 L 1073.00 535.00 L 1077.00 533.00 L 1083.00 523.00 L 1085.00 520.00 L 1083.00 524.00 L 1084.00 525.00 L 1088.00 523.00 L 1087.00 529.00 L 1081.00 543.00 L 1081.00 560.00 L 1087.00 580.00 L 1091.00 610.00 L 1093.00 650.00 L 1099.00 682.00 L 1109.00 706.00 L 1122.00 729.00 L 1138.00 751.00 L 1154.00 778.00 L 1170.00 810.00 L 1177.00 830.00 L 1175.00 838.00 L 1164.00 848.00 L 1144.00 860.00 L 1139.00 864.00 L 1149.00 860.00 L 1144.00 866.00 L 1124.00 882.00 L 1115.00 898.00 L 1117.00 914.00 L 1115.00 925.00 L 1109.00 931.00 L 1109.00 940.00 L 1115.00 952.00 L 1112.00 966.00 L 1100.00 982.00 L 1094.00 1003.00 L 1094.00 1029.00 L 1091.00 1048.00 L 1085.00 1060.00 L 1078.00 1071.00 L 1070.00 1081.00 L 1056.00 1090.00 L 1036.00 1098.00 L 1031.00 1108.00 L 1041.00 1120.00 L 1036.00 1139.00 L 1016.00 1165.00 L 1014.00 1188.00 L 1030.00 1208.00 L 1030.00 1211.00 L 1014.00 1197.00 L 1013.00 1199.00 L 1027.00 1217.00 L 1026.00 1220.00 L 1010.00 1208.00 L 1007.00 1210.00 L 1017.00 1226.00 L 1014.00 1234.00 L 998.00 1234.00 L 989.00 1236.00 L 987.00 1240.00 L 988.00 1247.00 L 992.00 1257.00 L 989.00 1266.00 L 979.00 1274.00 L 974.00 1283.00 L 974.00 1293.00 L 984.00 1320.00 L 1004.00 1364.00 L 1003.00 1367.00 L 981.00 1329.00 L 1001.00 1369.00 L 1063.00 1487.00 L 1062.00 1488.00 L 998.00 1372.00 L 999.00 1375.00 L 1065.00 1497.00 L 1066.00 1500.00 L 1002.00 1384.00 L 1003.00 1388.00 L 1069.00 1512.00 L 1071.00 1516.00 L 1009.00 1400.00 L 1010.00 1404.00 L 1074.00 1528.00 L 1108.00 1608.00 L 1112.00 1644.00 L 1112.00 1671.00 L 1108.00 1689.00 L 1101.00 1703.00 L 1091.00 1713.00 L 1078.00 1715.00 L 1062.00 1709.00 L 1048.00 1698.00 L 1036.00 1682.00 L 1011.00 1657.00 L 973.00 1623.00 L 920.00 1583.00 L 852.00 1537.00 L 817.00 1515.00 L 815.00 1517.00 L 804.00 1512.00 L 784.00 1500.00 L 746.00 1485.00 L 690.00 1467.00 L 662.00 1456.00 L 662.00 1452.00 L 638.00 1444.00 L 590.00 1432.00 L 551.00 1424.00 L 521.00 1420.00 L 491.00 1419.00 L 461.00 1421.00 L 444.00 1419.00 L 440.00 1413.00 L 438.00 1402.00 L 438.00 1386.00 L 447.00 1344.00 L 465.00 1276.00 L 474.00 1233.00 L 474.00 1215.00 L 476.00 1202.00 L 480.00 1194.00 L 480.00 1179.00 L 476.00 1157.00 L 477.00 1139.00 L 483.00 1125.00 L 488.00 1101.00 L 492.00 1067.00 L 497.00 1048.00 L 503.00 1044.00 L 503.00 1042.00 L 497.00 1042.00 L 498.00 1041.00 L 506.00 1039.00 L 507.00 1038.00 L 501.00 1038.00 L 500.00 1030.00 L 504.00 1014.00 L 507.00 1003.00 L 509.00 997.00 L 516.00 989.00 Z" fill="black" stroke="black" stroke-width="1"/>
</svg>