<?xml version="1.0" encoding="UTF-8"?>
<svg xmlns="http://www.w3.org/2000/svg" viewBox="396.00 226.00 955.00 1436.00">
  <path d="M 521.00 931.00 L 527.00 901.00 L 526.00 877.00 L 518.00 859.00 L 519.00 844.00 L 529.00 832.00 L 531.00 821.00 L 525.00 811.00 L 523.00 794.00 L 525.00 770.00 L 510.00 746.00 L 478.00 722.00 L 478.00 719.00 L 510.00 737.00 L 509.00 735.00 L 475.00 713.00 L 473.00 711.00 L 503.00 729.00 L 503.00 727.00 L 473.00 705.00 L 458.00 692.00 L 458.00 688.00 L 463.00 678.00 L 473.00 662.00 L 503.00 635.00 L 553.00 597.00 L 578.00 554.00 L 578.00 506.00 L 591.00 459.00 L 617.00 413.00 L 639.00 380.00 L 657.00 360.00 L 666.00 343.00 L 666.00 329.00 L 668.00 327.00 L 672.00 337.00 L 674.00 335.00 L 674.00 321.00 L 677.00 318.00 L 683.00 326.00 L 685.00 324.00 L 683.00 312.00 L 686.00 311.00 L 694.00 321.00 L 697.00 321.00 L 695.00 311.00 L 696.00 309.00 L 700.00 315.00 L 703.00 313.00 L 705.00 303.00 L 715.00 292.00 L 733.00 280.00 L 769.00 266.00 L 823.00 250.00 L 893.00 240.00 L 979.00 236.00 L 1031.00 237.00 L 1049.00 243.00 L 1067.00 246.00 L 1085.00 246.00 L 1113.00 253.00 L 1151.00 267.00 L 1191.00 287.00 L 1233.00 313.00 L 1266.00 341.00 L 1290.00 371.00 L 1308.00 402.00 L 1320.00 434.00 L 1330.00 478.00 L 1338.00 534.00 L 1341.00 576.00 L 1339.00 604.00 L 1334.00 634.00 L 1326.00 666.00 L 1318.00 692.00 L 1310.00 712.00 L 1299.00 732.00 L 1285.00 752.00 L 1254.00 792.00 L 1206.00 852.00 L 1184.00 882.00 L 1188.00 882.00 L 1186.00 883.00 L 1178.00 885.00 L 1174.00 889.00 L 1174.00 895.00 L 1180.00 904.00 L 1192.00 916.00 L 1202.00 957.00 L 1210.00 1027.00 L 1219.00 1083.00 L 1229.00 1125.00 L 1231.00 1157.00 L 1225.00 1179.00 L 1231.00 1209.00 L 1249.00 1247.00 L 1261.00 1278.00 L 1267.00 1302.00 L 1272.00 1335.00 L 1276.00 1377.00 L 1276.00 1405.00 L 1272.00 1419.00 L 1256.00 1425.00 L 1228.00 1423.00 L 1207.00 1419.00 L 1193.00 1413.00 L 1165.00 1412.00 L 1123.00 1416.00 L 1092.00 1417.00 L 1072.00 1415.00 L 1038.00 1417.00 L 990.00 1423.00 L 933.00 1434.00 L 867.00 1450.00 L 803.00 1471.00 L 741.00 1497.00 L 710.00 1508.00 L 710.00 1504.00 L 702.00 1508.00 L 686.00 1520.00 L 677.00 1524.00 L 675.00 1520.00 L 673.00 1521.00 L 671.00 1527.00 L 653.00 1538.00 L 619.00 1554.00 L 566.00 1585.00 L 494.00 1631.00 L 450.00 1652.00 L 434.00 1648.00 L 421.00 1636.00 L 411.00 1616.00 L 406.00 1597.00 L 406.00 1579.00 L 409.00 1559.00 L 415.00 1537.00 L 455.00 1474.00 L 529.00 1370.00 L 531.00 1365.00 L 461.00 1459.00 L 476.00 1438.00 L 576.00 1302.00 L 580.00 1295.00 L 488.00 1417.00 L 468.00 1443.00 L 520.00 1373.00 L 521.00 1370.00 L 471.00 1434.00 L 469.00 1435.00 L 515.00 1373.00 L 518.00 1368.00 L 478.00 1420.00 L 484.00 1412.00 L 536.00 1344.00 L 544.00 1333.00 L 508.00 1379.00 L 500.00 1388.00 L 520.00 1360.00 L 522.00 1356.00 L 506.00 1376.00 L 527.00 1349.00 L 585.00 1275.00 L 586.00 1273.00 L 530.00 1343.00 L 532.00 1340.00 L 592.00 1264.00 L 594.00 1261.00 L 538.00 1331.00 L 533.00 1336.00 L 579.00 1276.00 L 593.00 1257.00 L 575.00 1279.00 L 578.00 1272.00 L 602.00 1236.00 L 613.00 1213.00 L 611.00 1203.00 L 606.00 1202.00 L 598.00 1210.00 L 598.00 1208.00 L 606.00 1196.00 L 603.00 1196.00 L 589.00 1208.00 L 580.00 1212.00 L 576.00 1208.00 L 576.00 1197.00 L 580.00 1179.00 L 586.00 1166.00 L 594.00 1158.00 L 597.00 1153.00 L 595.00 1151.00 L 585.00 1154.00 L 567.00 1162.00 L 553.00 1164.00 L 543.00 1160.00 L 537.00 1155.00 L 535.00 1149.00 L 543.00 1140.00 L 561.00 1128.00 L 563.00 1125.00 L 549.00 1131.00 L 549.00 1129.00 L 563.00 1119.00 L 565.00 1117.00 L 555.00 1123.00 L 554.00 1121.00 L 562.00 1111.00 L 560.00 1094.00 L 548.00 1070.00 L 538.00 1055.00 L 530.00 1049.00 L 526.00 1043.00 L 526.00 1037.00 L 533.00 1026.00 L 547.00 1010.00 L 548.00 997.00 L 536.00 987.00 L 527.00 975.00 L 521.00 961.00 L 518.00 952.00 L 518.00 948.00 L 521.00 931.00 Z" fill="black" stroke="black" stroke-width="1"/>
</svg>