<?xml version="1.0" encoding="UTF-8"?>
<svg xmlns="http://www.w3.org/2000/svg" viewBox="380.00 226.00 882.00 1441.00">
  <path d="M 471.00 845.00 L 457.00 803.00 L 434.00 770.00 L 402.00 746.00 L 390.00 725.00 L 398.00 707.00 L 409.00 695.00 L 423.00 689.00 L 427.00 684.00 L 421.00 680.00 L 426.00 679.00 L 442.00 681.00 L 453.00 669.00 L 459.00 643.00 L 473.00 620.00 L 495.00 600.00 L 510.00 587.00 L 518.00 581.00 L 530.00 581.00 L 546.00 587.00 L 545.00 574.00 L 527.00 542.00 L 530.00 539.00 L 554.00 565.00 L 555.00 561.00 L 533.00 527.00 L 535.00 526.00 L 561.00 558.00 L 562.00 555.00 L 538.00 517.00 L 542.00 516.00 L 574.00 552.00 L 576.00 549.00 L 548.00 507.00 L 550.00 507.00 L 582.00 549.00 L 584.00 547.00 L 556.00 501.00 L 556.00 498.00 L 584.00 538.00 L 585.00 535.00 L 559.00 489.00 L 560.00 434.00 L 588.00 370.00 L 604.00 342.00 L 608.00 350.00 L 609.00 347.00 L 607.00 333.00 L 610.00 329.00 L 618.00 335.00 L 621.00 332.00 L 619.00 320.00 L 620.00 317.00 L 624.00 323.00 L 628.00 321.00 L 632.00 311.00 L 638.00 311.00 L 646.00 321.00 L 649.00 320.00 L 647.00 308.00 L 649.00 310.00 L 655.00 326.00 L 659.00 324.00 L 661.00 304.00 L 667.00 306.00 L 677.00 330.00 L 680.00 328.00 L 676.00 300.00 L 678.00 297.00 L 686.00 319.00 L 688.00 318.00 L 684.00 294.00 L 684.00 290.00 L 688.00 306.00 L 691.00 304.00 L 693.00 284.00 L 703.00 268.00 L 721.00 256.00 L 763.00 246.00 L 829.00 238.00 L 886.00 236.00 L 934.00 240.00 L 998.00 261.00 L 1078.00 299.00 L 1133.00 330.00 L 1163.00 354.00 L 1157.00 399.00 L 1115.00 465.00 L 1117.00 467.00 L 1163.00 405.00 L 1162.00 407.00 L 1114.00 473.00 L 1117.00 476.00 L 1171.00 416.00 L 1176.00 418.00 L 1132.00 482.00 L 1134.00 485.00 L 1182.00 427.00 L 1187.00 426.00 L 1149.00 482.00 L 1151.00 486.00 L 1193.00 438.00 L 1195.00 439.00 L 1157.00 489.00 L 1158.00 492.00 L 1198.00 448.00 L 1201.00 448.00 L 1167.00 492.00 L 1169.00 495.00 L 1207.00 457.00 L 1204.00 464.00 L 1160.00 516.00 L 1161.00 520.00 L 1207.00 476.00 L 1207.00 479.00 L 1161.00 529.00 L 1162.00 532.00 L 1210.00 488.00 L 1211.00 491.00 L 1165.00 541.00 L 1163.00 547.00 L 1205.00 509.00 L 1207.00 509.00 L 1169.00 547.00 L 1161.00 556.00 L 1183.00 536.00 L 1204.00 527.00 L 1224.00 529.00 L 1231.00 538.00 L 1225.00 554.00 L 1230.00 566.00 L 1246.00 574.00 L 1252.00 599.00 L 1248.00 641.00 L 1233.00 698.00 L 1207.00 770.00 L 1185.00 820.00 L 1167.00 848.00 L 1144.00 865.00 L 1116.00 871.00 L 1115.00 875.00 L 1141.00 877.00 L 1140.00 880.00 L 1112.00 884.00 L 1111.00 887.00 L 1137.00 889.00 L 1137.00 891.00 L 1111.00 893.00 L 1109.00 895.00 L 1131.00 897.00 L 1132.00 902.00 L 1112.00 910.00 L 1108.00 921.00 L 1120.00 935.00 L 1133.00 986.00 L 1147.00 1074.00 L 1152.00 1132.00 L 1148.00 1160.00 L 1157.00 1213.00 L 1179.00 1291.00 L 1191.00 1339.00 L 1193.00 1357.00 L 1189.00 1375.00 L 1179.00 1393.00 L 1105.00 1406.00 L 967.00 1414.00 L 845.00 1440.00 L 739.00 1484.00 L 641.00 1540.00 L 551.00 1608.00 L 489.00 1647.00 L 455.00 1657.00 L 433.00 1654.00 L 423.00 1638.00 L 420.00 1606.00 L 424.00 1558.00 L 434.00 1509.00 L 450.00 1459.00 L 480.00 1398.00 L 524.00 1326.00 L 526.00 1321.00 L 486.00 1383.00 L 484.00 1385.00 L 520.00 1327.00 L 529.00 1311.00 L 511.00 1337.00 L 514.00 1322.00 L 538.00 1266.00 L 543.00 1238.00 L 529.00 1238.00 L 525.00 1230.00 L 531.00 1214.00 L 514.00 1222.00 L 474.00 1254.00 L 475.00 1243.00 L 517.00 1189.00 L 531.00 1166.00 L 517.00 1174.00 L 517.00 1171.00 L 531.00 1157.00 L 529.00 1156.00 L 511.00 1168.00 L 510.00 1161.00 L 526.00 1135.00 L 528.00 1108.00 L 516.00 1080.00 L 513.00 1062.00 L 519.00 1054.00 L 511.00 1036.00 L 489.00 1008.00 L 482.00 975.00 L 490.00 937.00 L 489.00 909.00 L 479.00 891.00 L 475.00 878.00 L 477.00 870.00 L 471.00 845.00 Z" fill="black" stroke="black" stroke-width="1"/>
</svg>