<?xml version="1.0" encoding="UTF-8"?>
<svg xmlns="http://www.w3.org/2000/svg" viewBox="331.00 214.00 871.00 1548.00">
  <path d="M 403.00 937.00 L 405.00 919.00 L 413.00 902.00 L 427.00 886.00 L 434.00 874.00 L 434.00 866.00 L 426.00 859.00 L 410.00 853.00 L 410.00 851.00 L 426.00 853.00 L 426.00 851.00 L 410.00 845.00 L 403.00 828.00 L 405.00 800.00 L 398.00 758.00 L 382.00 702.00 L 375.00 649.00 L 377.00 599.00 L 400.00 525.00 L 444.00 427.00 L 483.00 359.00 L 517.00 321.00 L 550.00 291.00 L 582.00 269.00 L 617.00 251.00 L 655.00 237.00 L 685.00 231.00 L 707.00 233.00 L 728.00 231.00 L 748.00 225.00 L 771.00 224.00 L 797.00 228.00 L 844.00 243.00 L 912.00 269.00 L 955.00 293.00 L 973.00 315.00 L 987.00 328.00 L 997.00 332.00 L 1013.00 347.00 L 1035.00 373.00 L 1043.00 396.00 L 1037.00 416.00 L 1039.00 418.00 L 1049.00 402.00 L 1050.00 405.00 L 1042.00 427.00 L 1043.00 428.00 L 1053.00 408.00 L 1056.00 407.00 L 1052.00 425.00 L 1054.00 426.00 L 1062.00 410.00 L 1061.00 413.00 L 1051.00 435.00 L 1052.00 436.00 L 1064.00 416.00 L 1066.00 420.00 L 1058.00 448.00 L 1061.00 451.00 L 1075.00 429.00 L 1076.00 431.00 L 1064.00 457.00 L 1064.00 459.00 L 1076.00 437.00 L 1077.00 439.00 L 1067.00 465.00 L 1068.00 469.00 L 1080.00 451.00 L 1081.00 453.00 L 1071.00 475.00 L 1071.00 477.00 L 1081.00 459.00 L 1083.00 465.00 L 1077.00 495.00 L 1080.00 501.00 L 1092.00 483.00 L 1097.00 479.00 L 1095.00 489.00 L 1096.00 491.00 L 1100.00 485.00 L 1097.00 494.00 L 1087.00 518.00 L 1089.00 520.00 L 1103.00 500.00 L 1104.00 503.00 L 1092.00 529.00 L 1095.00 531.00 L 1113.00 509.00 L 1115.00 514.00 L 1101.00 546.00 L 1102.00 552.00 L 1118.00 532.00 L 1119.00 534.00 L 1105.00 558.00 L 1107.00 561.00 L 1125.00 543.00 L 1126.00 545.00 L 1110.00 567.00 L 1102.00 595.00 L 1102.00 629.00 L 1122.00 672.00 L 1162.00 724.00 L 1185.00 758.00 L 1191.00 774.00 L 1192.00 786.00 L 1188.00 794.00 L 1172.00 804.00 L 1144.00 816.00 L 1143.00 817.00 L 1169.00 807.00 L 1167.00 809.00 L 1137.00 823.00 L 1135.00 825.00 L 1161.00 815.00 L 1160.00 817.00 L 1132.00 831.00 L 1119.00 852.00 L 1121.00 880.00 L 1119.00 898.00 L 1113.00 906.00 L 1112.00 915.00 L 1116.00 925.00 L 1112.00 941.00 L 1100.00 963.00 L 1099.00 992.00 L 1109.00 1028.00 L 1110.00 1053.00 L 1102.00 1067.00 L 1094.00 1074.00 L 1086.00 1074.00 L 1084.00 1075.00 L 1088.00 1077.00 L 1086.00 1082.00 L 1078.00 1090.00 L 1075.00 1097.00 L 1077.00 1103.00 L 1060.00 1125.00 L 1024.00 1163.00 L 1011.00 1196.00 L 1021.00 1224.00 L 1020.00 1231.00 L 1008.00 1217.00 L 1009.00 1220.00 L 1023.00 1240.00 L 1021.00 1238.00 L 1003.00 1214.00 L 1015.00 1237.00 L 1057.00 1307.00 L 1073.00 1335.00 L 1063.00 1321.00 L 1064.00 1324.00 L 1076.00 1344.00 L 1073.00 1341.00 L 1055.00 1315.00 L 1056.00 1317.00 L 1076.00 1347.00 L 1073.00 1344.00 L 1047.00 1308.00 L 1047.00 1310.00 L 1073.00 1350.00 L 1086.00 1379.00 L 1086.00 1397.00 L 1093.00 1419.00 L 1107.00 1445.00 L 1107.00 1447.00 L 1093.00 1425.00 L 1102.00 1445.00 L 1134.00 1507.00 L 1153.00 1567.00 L 1159.00 1625.00 L 1159.00 1665.00 L 1153.00 1687.00 L 1142.00 1710.00 L 1126.00 1734.00 L 1111.00 1748.00 L 1097.00 1752.00 L 1081.00 1752.00 L 1063.00 1748.00 L 1016.00 1710.00 L 940.00 1638.00 L 849.00 1567.00 L 743.00 1497.00 L 636.00 1443.00 L 528.00 1405.00 L 443.00 1384.00 L 381.00 1380.00 L 347.00 1368.00 L 341.00 1348.00 L 344.00 1299.00 L 356.00 1221.00 L 370.00 1167.00 L 386.00 1137.00 L 391.00 1108.00 L 385.00 1080.00 L 387.00 1038.00 L 397.00 982.00 L 402.00 952.00 L 402.00 948.00 L 403.00 937.00 Z" fill="black" stroke="black" stroke-width="1"/>
</svg>