<?xml version="1.0" encoding="UTF-8"?>
<svg xmlns="http://www.w3.org/2000/svg" viewBox="430.00 303.00 846.00 1421.00">
  <path d="M 537.00 990.00 L 543.00 974.00 L 551.00 961.00 L 561.00 951.00 L 561.00 942.00 L 551.00 934.00 L 551.00 931.00 L 561.00 933.00 L 561.00 931.00 L 551.00 925.00 L 551.00 922.00 L 561.00 922.00 L 560.00 920.00 L 548.00 916.00 L 540.00 904.00 L 536.00 884.00 L 519.00 850.00 L 489.00 802.00 L 465.00 746.00 L 447.00 682.00 L 440.00 621.00 L 444.00 563.00 L 455.00 517.00 L 473.00 483.00 L 504.00 443.00 L 548.00 397.00 L 581.00 368.00 L 603.00 356.00 L 634.00 343.00 L 674.00 329.00 L 731.00 319.00 L 805.00 313.00 L 877.00 320.00 L 947.00 340.00 L 992.00 358.00 L 1012.00 374.00 L 1028.00 388.00 L 1040.00 400.00 L 1048.00 411.00 L 1052.00 421.00 L 1064.00 435.00 L 1084.00 453.00 L 1092.00 469.00 L 1088.00 483.00 L 1089.00 484.00 L 1095.00 472.00 L 1096.00 475.00 L 1092.00 493.00 L 1094.00 495.00 L 1102.00 481.00 L 1103.00 483.00 L 1097.00 501.00 L 1098.00 502.00 L 1106.00 486.00 L 1108.00 485.00 L 1104.00 499.00 L 1105.00 501.00 L 1111.00 491.00 L 1114.00 488.00 L 1114.00 492.00 L 1111.00 501.00 L 1105.00 515.00 L 1106.00 518.00 L 1114.00 510.00 L 1115.00 513.00 L 1109.00 527.00 L 1110.00 529.00 L 1118.00 519.00 L 1119.00 522.00 L 1113.00 538.00 L 1121.00 569.00 L 1143.00 615.00 L 1156.00 655.00 L 1160.00 689.00 L 1166.00 714.00 L 1174.00 730.00 L 1188.00 748.00 L 1208.00 768.00 L 1231.00 798.00 L 1257.00 838.00 L 1266.00 865.00 L 1258.00 879.00 L 1245.00 889.00 L 1227.00 895.00 L 1226.00 896.00 L 1242.00 892.00 L 1240.00 893.00 L 1220.00 899.00 L 1214.00 901.00 L 1222.00 899.00 L 1220.00 900.00 L 1208.00 904.00 L 1200.00 909.00 L 1196.00 915.00 L 1195.00 927.00 L 1197.00 945.00 L 1194.00 957.00 L 1186.00 963.00 L 1184.00 971.00 L 1188.00 981.00 L 1189.00 989.00 L 1187.00 995.00 L 1179.00 1004.00 L 1165.00 1016.00 L 1163.00 1029.00 L 1173.00 1043.00 L 1179.00 1059.00 L 1181.00 1077.00 L 1177.00 1093.00 L 1167.00 1107.00 L 1157.00 1116.00 L 1147.00 1120.00 L 1145.00 1127.00 L 1151.00 1137.00 L 1141.00 1156.00 L 1115.00 1184.00 L 1098.00 1207.00 L 1090.00 1225.00 L 1090.00 1246.00 L 1098.00 1270.00 L 1097.00 1277.00 L 1087.00 1267.00 L 1089.00 1271.00 L 1103.00 1289.00 L 1102.00 1288.00 L 1086.00 1268.00 L 1096.00 1284.00 L 1132.00 1336.00 L 1145.00 1356.00 L 1135.00 1344.00 L 1136.00 1346.00 L 1148.00 1362.00 L 1147.00 1361.00 L 1133.00 1343.00 L 1135.00 1347.00 L 1153.00 1373.00 L 1150.00 1370.00 L 1126.00 1338.00 L 1145.00 1375.00 L 1207.00 1481.00 L 1237.00 1533.00 L 1235.00 1531.00 L 1242.00 1556.00 L 1258.00 1608.00 L 1266.00 1641.00 L 1266.00 1655.00 L 1263.00 1671.00 L 1257.00 1689.00 L 1250.00 1702.00 L 1242.00 1710.00 L 1232.00 1714.00 L 1220.00 1714.00 L 1158.00 1670.00 L 1046.00 1582.00 L 968.00 1524.00 L 924.00 1496.00 L 885.00 1474.00 L 851.00 1458.00 L 788.00 1437.00 L 696.00 1411.00 L 629.00 1395.00 L 587.00 1389.00 L 542.00 1387.00 L 494.00 1389.00 L 468.00 1388.00 L 464.00 1384.00 L 463.00 1370.00 L 465.00 1346.00 L 470.00 1329.00 L 478.00 1319.00 L 478.00 1317.00 L 470.00 1323.00 L 472.00 1319.00 L 484.00 1305.00 L 487.00 1300.00 L 481.00 1304.00 L 482.00 1296.00 L 490.00 1276.00 L 494.00 1256.00 L 494.00 1236.00 L 499.00 1212.00 L 509.00 1184.00 L 513.00 1160.00 L 511.00 1140.00 L 514.00 1118.00 L 522.00 1094.00 L 528.00 1064.00 L 532.00 1028.00 L 534.00 1007.00 L 534.00 1001.00 L 537.00 990.00 Z" fill="black" stroke="black" stroke-width="1"/>
</svg>