<?xml version="1.0" encoding="UTF-8"?>
<svg xmlns="http://www.w3.org/2000/svg" viewBox="419.00 322.00 887.00 1409.00">
  <path d="M 482.00 973.00 L 470.00 963.00 L 466.00 953.00 L 470.00 943.00 L 476.00 935.00 L 484.00 929.00 L 497.00 926.00 L 515.00 926.00 L 523.00 924.00 L 521.00 920.00 L 509.00 914.00 L 487.00 906.00 L 478.00 902.00 L 482.00 902.00 L 481.00 899.00 L 475.00 893.00 L 474.00 885.00 L 478.00 875.00 L 479.00 866.00 L 477.00 858.00 L 465.00 846.00 L 443.00 830.00 L 431.00 815.00 L 429.00 801.00 L 453.00 772.00 L 503.00 728.00 L 529.00 686.00 L 531.00 646.00 L 541.00 610.00 L 559.00 578.00 L 565.00 554.00 L 559.00 538.00 L 560.00 535.00 L 568.00 545.00 L 568.00 542.00 L 560.00 526.00 L 561.00 524.00 L 571.00 536.00 L 572.00 531.00 L 564.00 509.00 L 565.00 507.00 L 575.00 525.00 L 576.00 523.00 L 568.00 501.00 L 569.00 498.00 L 579.00 514.00 L 580.00 512.00 L 572.00 492.00 L 573.00 490.00 L 583.00 506.00 L 584.00 504.00 L 576.00 484.00 L 575.00 480.00 L 581.00 492.00 L 582.00 491.00 L 578.00 477.00 L 580.00 478.00 L 588.00 494.00 L 589.00 493.00 L 583.00 475.00 L 585.00 473.00 L 595.00 487.00 L 598.00 485.00 L 594.00 467.00 L 595.00 465.00 L 601.00 479.00 L 602.00 478.00 L 598.00 462.00 L 599.00 460.00 L 605.00 472.00 L 607.00 471.00 L 605.00 457.00 L 616.00 439.00 L 640.00 417.00 L 692.00 389.00 L 772.00 355.00 L 832.00 336.00 L 872.00 332.00 L 905.00 334.00 L 931.00 342.00 L 959.00 346.00 L 989.00 346.00 L 1039.00 364.00 L 1109.00 400.00 L 1172.00 448.00 L 1228.00 508.00 L 1264.00 554.00 L 1280.00 586.00 L 1290.00 612.00 L 1294.00 632.00 L 1296.00 659.00 L 1296.00 693.00 L 1291.00 728.00 L 1281.00 764.00 L 1260.00 805.00 L 1228.00 851.00 L 1186.00 898.00 L 1134.00 946.00 L 1105.00 980.00 L 1099.00 1000.00 L 1091.00 1011.00 L 1081.00 1013.00 L 1081.00 1022.00 L 1091.00 1038.00 L 1098.00 1061.00 L 1102.00 1091.00 L 1109.00 1121.00 L 1119.00 1151.00 L 1122.00 1171.00 L 1118.00 1181.00 L 1117.00 1189.00 L 1119.00 1195.00 L 1134.00 1225.00 L 1162.00 1279.00 L 1180.00 1332.00 L 1188.00 1384.00 L 1190.00 1412.00 L 1186.00 1416.00 L 1171.00 1417.00 L 1145.00 1415.00 L 1113.00 1417.00 L 1075.00 1423.00 L 1019.00 1439.00 L 945.00 1465.00 L 868.00 1500.00 L 788.00 1544.00 L 720.00 1588.00 L 664.00 1632.00 L 627.00 1664.00 L 609.00 1684.00 L 588.00 1701.00 L 564.00 1715.00 L 547.00 1721.00 L 537.00 1719.00 L 528.00 1712.00 L 520.00 1700.00 L 514.00 1676.00 L 510.00 1640.00 L 544.00 1543.00 L 616.00 1385.00 L 616.00 1382.00 L 544.00 1534.00 L 508.00 1608.00 L 508.00 1604.00 L 544.00 1526.00 L 616.00 1374.00 L 616.00 1372.00 L 544.00 1520.00 L 542.00 1523.00 L 610.00 1381.00 L 611.00 1376.00 L 545.00 1508.00 L 543.00 1509.00 L 605.00 1379.00 L 607.00 1370.00 L 549.00 1482.00 L 548.00 1483.00 L 604.00 1373.00 L 606.00 1367.00 L 554.00 1465.00 L 552.00 1467.00 L 600.00 1373.00 L 602.00 1367.00 L 558.00 1449.00 L 557.00 1450.00 L 599.00 1370.00 L 616.00 1337.00 L 608.00 1351.00 L 613.00 1340.00 L 631.00 1304.00 L 641.00 1280.00 L 643.00 1268.00 L 642.00 1265.00 L 638.00 1271.00 L 638.00 1269.00 L 642.00 1259.00 L 642.00 1257.00 L 638.00 1263.00 L 637.00 1261.00 L 639.00 1251.00 L 636.00 1248.00 L 628.00 1252.00 L 621.00 1246.00 L 615.00 1230.00 L 602.00 1224.00 L 582.00 1228.00 L 576.00 1224.00 L 584.00 1212.00 L 582.00 1212.00 L 570.00 1224.00 L 568.00 1225.00 L 576.00 1215.00 L 574.00 1214.00 L 562.00 1222.00 L 561.00 1218.00 L 571.00 1202.00 L 570.00 1198.00 L 558.00 1206.00 L 558.00 1203.00 L 570.00 1189.00 L 567.00 1170.00 L 549.00 1146.00 L 543.00 1129.00 L 549.00 1119.00 L 549.00 1114.00 L 543.00 1114.00 L 544.00 1112.00 L 552.00 1108.00 L 547.00 1106.00 L 529.00 1106.00 L 510.00 1097.00 L 490.00 1079.00 L 477.00 1064.00 L 471.00 1052.00 L 468.00 1037.00 L 468.00 1019.00 L 473.00 1004.00 L 483.00 992.00 L 488.00 984.00 L 488.00 980.00 L 482.00 973.00 Z" fill="black" stroke="black" stroke-width="1"/>
</svg>