<?xml version="1.0" encoding="UTF-8"?>
<svg xmlns="http://www.w3.org/2000/svg" viewBox="296.00 149.00 1007.00 1649.00">
  <path d="M 436.00 954.00 L 424.00 930.00 L 420.00 914.00 L 424.00 906.00 L 424.00 897.00 L 420.00 887.00 L 418.00 872.00 L 418.00 852.00 L 405.00 836.00 L 379.00 824.00 L 364.00 810.00 L 360.00 794.00 L 365.00 769.00 L 379.00 735.00 L 400.00 697.00 L 428.00 655.00 L 438.00 620.00 L 430.00 592.00 L 437.00 537.00 L 459.00 455.00 L 467.00 407.00 L 461.00 393.00 L 462.00 391.00 L 470.00 401.00 L 470.00 395.00 L 462.00 373.00 L 463.00 371.00 L 473.00 389.00 L 474.00 387.00 L 466.00 365.00 L 467.00 362.00 L 477.00 378.00 L 478.00 375.00 L 470.00 353.00 L 471.00 350.00 L 481.00 366.00 L 487.00 371.00 L 489.00 365.00 L 487.00 354.00 L 481.00 338.00 L 486.00 321.00 L 502.00 303.00 L 530.00 280.00 L 570.00 252.00 L 605.00 233.00 L 635.00 223.00 L 661.00 210.00 L 683.00 194.00 L 719.00 180.00 L 769.00 168.00 L 810.00 161.00 L 842.00 159.00 L 868.00 160.00 L 888.00 164.00 L 912.00 165.00 L 940.00 163.00 L 984.00 170.00 L 1044.00 186.00 L 1096.00 206.00 L 1140.00 230.00 L 1178.00 256.00 L 1210.00 284.00 L 1238.00 328.00 L 1262.00 388.00 L 1278.00 442.00 L 1286.00 490.00 L 1291.00 544.00 L 1293.00 604.00 L 1290.00 657.00 L 1282.00 703.00 L 1264.00 769.00 L 1236.00 855.00 L 1209.00 901.00 L 1183.00 907.00 L 1182.00 909.00 L 1206.00 907.00 L 1218.00 908.00 L 1218.00 912.00 L 1204.00 916.00 L 1176.00 920.00 L 1175.00 922.00 L 1201.00 922.00 L 1201.00 924.00 L 1175.00 928.00 L 1174.00 930.00 L 1198.00 930.00 L 1204.00 932.00 L 1192.00 936.00 L 1191.00 938.00 L 1201.00 938.00 L 1195.00 939.00 L 1173.00 941.00 L 1170.00 943.00 L 1186.00 945.00 L 1187.00 948.00 L 1173.00 952.00 L 1166.00 957.00 L 1166.00 963.00 L 1171.00 970.00 L 1181.00 978.00 L 1188.00 987.00 L 1192.00 997.00 L 1194.00 1022.00 L 1194.00 1062.00 L 1198.00 1106.00 L 1206.00 1154.00 L 1206.00 1190.00 L 1198.00 1214.00 L 1197.00 1242.00 L 1203.00 1274.00 L 1205.00 1297.00 L 1203.00 1311.00 L 1207.00 1343.00 L 1217.00 1393.00 L 1222.00 1429.00 L 1222.00 1451.00 L 1165.00 1468.00 L 1051.00 1480.00 L 946.00 1499.00 L 850.00 1525.00 L 742.00 1565.00 L 622.00 1619.00 L 500.00 1682.00 L 376.00 1754.00 L 312.00 1788.00 L 308.00 1784.00 L 306.00 1772.00 L 306.00 1752.00 L 312.00 1711.00 L 324.00 1649.00 L 369.00 1561.00 L 447.00 1447.00 L 448.00 1445.00 L 372.00 1555.00 L 373.00 1553.00 L 451.00 1439.00 L 452.00 1436.00 L 376.00 1544.00 L 376.00 1542.00 L 452.00 1430.00 L 456.00 1422.00 L 388.00 1518.00 L 389.00 1515.00 L 459.00 1413.00 L 463.00 1405.00 L 401.00 1491.00 L 402.00 1488.00 L 466.00 1396.00 L 472.00 1385.00 L 420.00 1455.00 L 417.00 1457.00 L 463.00 1391.00 L 465.00 1386.00 L 423.00 1442.00 L 421.00 1444.00 L 459.00 1392.00 L 469.00 1371.00 L 451.00 1381.00 L 440.00 1383.00 L 436.00 1377.00 L 433.00 1375.00 L 431.00 1377.00 L 455.00 1345.00 L 505.00 1279.00 L 522.00 1254.00 L 506.00 1270.00 L 496.00 1278.00 L 492.00 1278.00 L 499.00 1268.00 L 517.00 1248.00 L 523.00 1238.00 L 517.00 1238.00 L 506.00 1246.00 L 490.00 1262.00 L 492.00 1259.00 L 512.00 1237.00 L 512.00 1234.00 L 492.00 1250.00 L 492.00 1247.00 L 512.00 1225.00 L 513.00 1222.00 L 495.00 1238.00 L 493.00 1236.00 L 507.00 1216.00 L 506.00 1189.00 L 490.00 1155.00 L 483.00 1134.00 L 485.00 1126.00 L 491.00 1118.00 L 501.00 1110.00 L 503.00 1107.00 L 497.00 1109.00 L 496.00 1107.00 L 500.00 1101.00 L 492.00 1087.00 L 472.00 1065.00 L 459.00 1035.00 L 453.00 997.00 L 448.00 975.00 L 444.00 969.00 L 436.00 954.00 Z" fill="black" stroke="black" stroke-width="1"/>
</svg>