<?xml version="1.0" encoding="UTF-8"?>
<svg xmlns="http://www.w3.org/2000/svg" viewBox="479.00 252.00 928.00 1526.00">
  <path d="M 645.00 979.00 L 635.00 973.00 L 635.00 970.00 L 645.00 970.00 L 643.00 967.00 L 629.00 961.00 L 628.00 942.00 L 640.00 910.00 L 644.00 884.00 L 640.00 864.00 L 609.00 817.00 L 551.00 743.00 L 513.00 675.00 L 495.00 613.00 L 489.00 558.00 L 495.00 510.00 L 514.00 455.00 L 546.00 393.00 L 576.00 350.00 L 604.00 326.00 L 635.00 305.00 L 669.00 287.00 L 702.00 274.00 L 734.00 266.00 L 775.00 262.00 L 825.00 262.00 L 902.00 273.00 L 1006.00 295.00 L 1073.00 312.00 L 1103.00 324.00 L 1137.00 343.00 L 1175.00 369.00 L 1202.00 394.00 L 1218.00 418.00 L 1224.00 439.00 L 1220.00 457.00 L 1221.00 459.00 L 1227.00 445.00 L 1228.00 448.00 L 1224.00 468.00 L 1226.00 470.00 L 1234.00 454.00 L 1235.00 455.00 L 1229.00 473.00 L 1230.00 475.00 L 1238.00 461.00 L 1240.00 465.00 L 1236.00 487.00 L 1239.00 490.00 L 1249.00 474.00 L 1250.00 476.00 L 1242.00 496.00 L 1244.00 498.00 L 1256.00 482.00 L 1257.00 485.00 L 1247.00 507.00 L 1248.00 509.00 L 1260.00 491.00 L 1262.00 494.00 L 1254.00 518.00 L 1255.00 522.00 L 1265.00 506.00 L 1267.00 509.00 L 1261.00 531.00 L 1263.00 535.00 L 1273.00 521.00 L 1276.00 524.00 L 1272.00 544.00 L 1276.00 549.00 L 1288.00 539.00 L 1290.00 543.00 L 1282.00 561.00 L 1283.00 563.00 L 1293.00 549.00 L 1294.00 551.00 L 1286.00 569.00 L 1287.00 571.00 L 1297.00 557.00 L 1298.00 559.00 L 1290.00 577.00 L 1288.00 602.00 L 1292.00 634.00 L 1320.00 683.00 L 1372.00 749.00 L 1397.00 785.00 L 1395.00 791.00 L 1379.00 802.00 L 1349.00 818.00 L 1347.00 820.00 L 1373.00 808.00 L 1378.00 806.00 L 1362.00 814.00 L 1360.00 816.00 L 1372.00 812.00 L 1366.00 817.00 L 1342.00 831.00 L 1333.00 848.00 L 1339.00 868.00 L 1338.00 883.00 L 1330.00 893.00 L 1328.00 904.00 L 1332.00 916.00 L 1329.00 929.00 L 1319.00 943.00 L 1318.00 962.00 L 1326.00 986.00 L 1329.00 1004.00 L 1327.00 1016.00 L 1321.00 1027.00 L 1311.00 1037.00 L 1289.00 1049.00 L 1255.00 1063.00 L 1244.00 1077.00 L 1256.00 1091.00 L 1251.00 1112.00 L 1229.00 1140.00 L 1218.00 1158.00 L 1218.00 1166.00 L 1227.00 1180.00 L 1245.00 1200.00 L 1244.00 1202.00 L 1224.00 1186.00 L 1224.00 1188.00 L 1244.00 1208.00 L 1244.00 1210.00 L 1224.00 1194.00 L 1223.00 1196.00 L 1241.00 1216.00 L 1247.00 1231.00 L 1241.00 1241.00 L 1248.00 1262.00 L 1268.00 1294.00 L 1278.00 1315.00 L 1278.00 1325.00 L 1259.00 1310.00 L 1221.00 1270.00 L 1211.00 1264.00 L 1229.00 1292.00 L 1228.00 1293.00 L 1208.00 1267.00 L 1193.00 1256.00 L 1183.00 1260.00 L 1200.00 1301.00 L 1244.00 1379.00 L 1243.00 1382.00 L 1197.00 1310.00 L 1218.00 1352.00 L 1306.00 1508.00 L 1332.00 1556.00 L 1296.00 1496.00 L 1297.00 1502.00 L 1335.00 1574.00 L 1354.00 1633.00 L 1354.00 1679.00 L 1346.00 1716.00 L 1330.00 1744.00 L 1317.00 1761.00 L 1307.00 1767.00 L 1294.00 1768.00 L 1278.00 1764.00 L 1219.00 1719.00 L 1117.00 1633.00 L 1034.00 1573.00 L 970.00 1539.00 L 892.00 1511.00 L 800.00 1489.00 L 714.00 1479.00 L 634.00 1481.00 L 592.00 1476.00 L 588.00 1464.00 L 591.00 1444.00 L 601.00 1416.00 L 609.00 1372.00 L 615.00 1312.00 L 614.00 1269.00 L 606.00 1243.00 L 606.00 1185.00 L 614.00 1095.00 L 626.00 1035.00 L 642.00 1005.00 L 650.00 988.00 L 650.00 984.00 L 645.00 979.00 Z" fill="black" stroke="black" stroke-width="1"/>
</svg>