<?xml version="1.0" encoding="UTF-8"?>
<svg xmlns="http://www.w3.org/2000/svg" viewBox="375.00 378.00 780.00 1305.00">
  <path d="M 439.00 982.00 L 433.00 974.00 L 432.00 966.00 L 436.00 958.00 L 437.00 947.00 L 435.00 933.00 L 426.00 924.00 L 410.00 920.00 L 409.00 919.00 L 423.00 921.00 L 422.00 920.00 L 406.00 916.00 L 394.00 910.00 L 386.00 902.00 L 385.00 887.00 L 391.00 865.00 L 410.00 829.00 L 442.00 779.00 L 458.00 748.00 L 458.00 736.00 L 451.00 721.00 L 437.00 703.00 L 437.00 700.00 L 451.00 712.00 L 451.00 708.00 L 437.00 688.00 L 437.00 685.00 L 451.00 699.00 L 452.00 696.00 L 440.00 676.00 L 441.00 672.00 L 455.00 684.00 L 456.00 683.00 L 444.00 669.00 L 444.00 667.00 L 456.00 677.00 L 457.00 674.00 L 447.00 658.00 L 448.00 657.00 L 460.00 671.00 L 462.00 669.00 L 454.00 651.00 L 455.00 646.00 L 465.00 654.00 L 466.00 652.00 L 458.00 640.00 L 459.00 638.00 L 469.00 646.00 L 471.00 643.00 L 465.00 629.00 L 466.00 625.00 L 474.00 631.00 L 475.00 629.00 L 469.00 619.00 L 469.00 616.00 L 475.00 620.00 L 476.00 619.00 L 472.00 613.00 L 473.00 614.00 L 479.00 622.00 L 480.00 620.00 L 476.00 608.00 L 477.00 606.00 L 483.00 614.00 L 487.00 617.00 L 489.00 615.00 L 487.00 609.00 L 481.00 599.00 L 482.00 598.00 L 490.00 606.00 L 491.00 604.00 L 485.00 592.00 L 483.00 585.00 L 485.00 583.00 L 489.00 586.00 L 495.00 594.00 L 499.00 597.00 L 501.00 595.00 L 500.00 589.00 L 496.00 579.00 L 495.00 572.00 L 497.00 568.00 L 513.00 549.00 L 543.00 515.00 L 575.00 485.00 L 609.00 459.00 L 638.00 442.00 L 662.00 434.00 L 686.00 423.00 L 710.00 409.00 L 748.00 398.00 L 800.00 390.00 L 849.00 388.00 L 895.00 392.00 L 923.00 397.00 L 933.00 403.00 L 941.00 405.00 L 947.00 403.00 L 956.00 404.00 L 968.00 408.00 L 999.00 426.00 L 1049.00 458.00 L 1085.00 489.00 L 1107.00 519.00 L 1125.00 554.00 L 1139.00 594.00 L 1145.00 634.00 L 1143.00 674.00 L 1136.00 719.00 L 1124.00 769.00 L 1103.00 823.00 L 1073.00 881.00 L 1055.00 919.00 L 1049.00 937.00 L 1046.00 955.00 L 1046.00 973.00 L 1043.00 984.00 L 1037.00 988.00 L 1038.00 996.00 L 1046.00 1008.00 L 1050.00 1035.00 L 1050.00 1077.00 L 1053.00 1111.00 L 1059.00 1137.00 L 1059.00 1157.00 L 1053.00 1171.00 L 1052.00 1192.00 L 1056.00 1220.00 L 1065.00 1250.00 L 1079.00 1282.00 L 1090.00 1319.00 L 1098.00 1361.00 L 1098.00 1394.00 L 1090.00 1418.00 L 1047.00 1433.00 L 969.00 1439.00 L 894.00 1451.00 L 822.00 1469.00 L 765.00 1487.00 L 723.00 1505.00 L 671.00 1533.00 L 609.00 1571.00 L 555.00 1609.00 L 509.00 1647.00 L 477.00 1668.00 L 459.00 1672.00 L 448.00 1673.00 L 444.00 1671.00 L 476.00 1588.00 L 544.00 1424.00 L 542.00 1423.00 L 470.00 1585.00 L 468.00 1587.00 L 536.00 1429.00 L 535.00 1427.00 L 465.00 1581.00 L 466.00 1577.00 L 538.00 1415.00 L 537.00 1413.00 L 463.00 1571.00 L 462.00 1570.00 L 534.00 1410.00 L 533.00 1406.00 L 459.00 1558.00 L 455.00 1565.00 L 521.00 1427.00 L 521.00 1424.00 L 455.00 1556.00 L 453.00 1558.00 L 515.00 1430.00 L 515.00 1428.00 L 453.00 1552.00 L 458.00 1541.00 L 530.00 1395.00 L 530.00 1393.00 L 458.00 1535.00 L 451.00 1548.00 L 509.00 1432.00 L 509.00 1429.00 L 451.00 1539.00 L 457.00 1525.00 L 527.00 1387.00 L 527.00 1384.00 L 457.00 1516.00 L 457.00 1514.00 L 527.00 1378.00 L 529.00 1371.00 L 463.00 1493.00 L 463.00 1491.00 L 529.00 1365.00 L 532.00 1356.00 L 472.00 1464.00 L 470.00 1465.00 L 526.00 1359.00 L 553.00 1307.00 L 551.00 1309.00 L 549.00 1308.00 L 547.00 1304.00 L 546.00 1290.00 L 546.00 1266.00 L 541.00 1245.00 L 531.00 1227.00 L 518.00 1210.00 L 502.00 1194.00 L 495.00 1179.00 L 497.00 1165.00 L 489.00 1154.00 L 471.00 1146.00 L 456.00 1136.00 L 444.00 1124.00 L 437.00 1113.00 L 435.00 1103.00 L 438.00 1088.00 L 446.00 1068.00 L 446.00 1046.00 L 438.00 1022.00 L 435.00 1007.00 L 437.00 1001.00 L 439.00 995.00 L 441.00 989.00 L 439.00 982.00 Z" fill="black" stroke="black" stroke-width="1"/>
</svg>