<?xml version="1.0" encoding="UTF-8"?>
<svg xmlns="http://www.w3.org/2000/svg" viewBox="417.00 215.00 954.00 1584.00">
  <path d="M 462.00 965.00 L 518.00 923.00 L 547.00 895.00 L 549.00 881.00 L 519.00 759.00 L 457.00 529.00 L 437.00 407.00 L 459.00 393.00 L 580.00 349.00 L 800.00 275.00 L 925.00 234.00 L 955.00 226.00 L 978.00 225.00 L 994.00 231.00 L 1044.00 338.00 L 1128.00 546.00 L 1174.00 654.00 L 1182.00 662.00 L 1199.00 667.00 L 1225.00 669.00 L 1221.00 687.00 L 1187.00 721.00 L 1189.00 722.00 L 1227.00 690.00 L 1230.00 688.00 L 1198.00 716.00 L 1202.00 716.00 L 1242.00 688.00 L 1240.00 692.00 L 1196.00 728.00 L 1199.00 729.00 L 1249.00 695.00 L 1250.00 698.00 L 1202.00 738.00 L 1207.00 739.00 L 1265.00 701.00 L 1266.00 703.00 L 1210.00 745.00 L 1215.00 746.00 L 1281.00 706.00 L 1282.00 709.00 L 1218.00 755.00 L 1224.00 756.00 L 1300.00 712.00 L 1300.00 715.00 L 1224.00 765.00 L 1228.00 766.00 L 1312.00 718.00 L 1313.00 720.00 L 1231.00 772.00 L 1234.00 773.00 L 1322.00 723.00 L 1352.00 707.00 L 1324.00 725.00 L 1327.00 726.00 L 1361.00 710.00 L 1331.00 729.00 L 1237.00 783.00 L 1240.00 785.00 L 1340.00 735.00 L 1340.00 738.00 L 1240.00 794.00 L 1242.00 796.00 L 1346.00 744.00 L 1346.00 746.00 L 1242.00 802.00 L 1190.00 842.00 L 1190.00 866.00 L 1208.00 909.00 L 1244.00 971.00 L 1258.00 1008.00 L 1250.00 1020.00 L 1232.00 1033.00 L 1204.00 1047.00 L 1187.00 1064.00 L 1181.00 1084.00 L 1169.00 1104.00 L 1151.00 1124.00 L 1144.00 1143.00 L 1148.00 1161.00 L 1148.00 1181.00 L 1144.00 1203.00 L 1135.00 1219.00 L 1121.00 1229.00 L 1095.00 1239.00 L 1057.00 1249.00 L 1040.00 1261.00 L 1044.00 1275.00 L 1043.00 1277.00 L 1037.00 1267.00 L 1042.00 1287.00 L 1058.00 1337.00 L 1079.00 1387.00 L 1105.00 1437.00 L 1096.00 1422.00 L 1052.00 1342.00 L 1050.00 1343.00 L 1090.00 1425.00 L 1090.00 1428.00 L 1050.00 1352.00 L 1047.00 1351.00 L 1081.00 1425.00 L 1080.00 1427.00 L 1044.00 1357.00 L 1040.00 1355.00 L 1068.00 1421.00 L 1067.00 1424.00 L 1037.00 1364.00 L 1034.00 1362.00 L 1058.00 1418.00 L 1059.00 1422.00 L 1037.00 1374.00 L 1056.00 1422.00 L 1116.00 1566.00 L 1115.00 1565.00 L 1053.00 1419.00 L 1050.00 1413.00 L 1106.00 1547.00 L 1133.00 1612.00 L 1131.00 1608.00 L 1135.00 1619.00 L 1145.00 1645.00 L 1126.00 1601.00 L 1078.00 1487.00 L 1079.00 1492.00 L 1129.00 1616.00 L 1127.00 1613.00 L 1073.00 1483.00 L 1073.00 1485.00 L 1127.00 1619.00 L 1125.00 1615.00 L 1067.00 1473.00 L 1067.00 1476.00 L 1125.00 1624.00 L 1123.00 1621.00 L 1061.00 1467.00 L 1061.00 1473.00 L 1123.00 1639.00 L 1121.00 1637.00 L 1055.00 1467.00 L 1055.00 1473.00 L 1121.00 1655.00 L 1120.00 1656.00 L 1052.00 1476.00 L 1051.00 1479.00 L 1117.00 1665.00 L 1117.00 1668.00 L 1051.00 1488.00 L 1049.00 1490.00 L 1111.00 1674.00 L 1110.00 1676.00 L 1046.00 1496.00 L 1045.00 1498.00 L 1107.00 1682.00 L 1106.00 1684.00 L 1042.00 1504.00 L 1040.00 1506.00 L 1100.00 1690.00 L 1100.00 1692.00 L 1040.00 1512.00 L 1037.00 1513.00 L 1091.00 1695.00 L 1115.00 1787.00 L 1109.00 1789.00 L 1060.00 1750.00 L 968.00 1670.00 L 893.00 1613.00 L 835.00 1579.00 L 760.00 1546.00 L 668.00 1514.00 L 583.00 1494.00 L 505.00 1486.00 L 465.00 1460.00 L 463.00 1416.00 L 469.00 1373.00 L 483.00 1331.00 L 489.00 1288.00 L 487.00 1244.00 L 493.00 1179.00 L 507.00 1093.00 L 486.00 1053.00 L 430.00 1059.00 L 433.00 1057.00 L 495.00 1047.00 L 493.00 1045.00 L 427.00 1051.00 L 429.00 1048.00 L 499.00 1036.00 L 500.00 1032.00 L 432.00 1036.00 L 433.00 1033.00 L 503.00 1023.00 L 504.00 1021.00 L 436.00 1027.00 L 436.00 1025.00 L 504.00 1015.00 L 506.00 1011.00 L 442.00 1013.00 L 442.00 1012.00 L 506.00 1008.00 L 508.00 1005.00 L 448.00 1003.00 L 448.00 1000.00 L 508.00 996.00 L 511.00 993.00 L 457.00 991.00 L 431.00 989.00 L 433.00 987.00 L 462.00 965.00 Z" fill="black" stroke="black" stroke-width="1"/>
</svg>