<?xml version="1.0" encoding="UTF-8"?>
<svg xmlns="http://www.w3.org/2000/svg" viewBox="301.00 66.00 1162.00 1734.00">
  <path d="M 405.00 1026.00 L 387.00 1018.00 L 374.00 1005.00 L 366.00 987.00 L 384.00 944.00 L 428.00 876.00 L 451.00 823.00 L 453.00 785.00 L 407.00 721.00 L 313.00 631.00 L 314.00 628.00 L 410.00 712.00 L 409.00 710.00 L 311.00 622.00 L 311.00 620.00 L 409.00 704.00 L 411.00 702.00 L 317.00 614.00 L 312.00 608.00 L 396.00 684.00 L 398.00 683.00 L 318.00 605.00 L 324.00 608.00 L 416.00 692.00 L 419.00 692.00 L 333.00 608.00 L 329.00 603.00 L 407.00 677.00 L 411.00 677.00 L 341.00 603.00 L 346.00 605.00 L 426.00 683.00 L 429.00 682.00 L 355.00 602.00 L 357.00 598.00 L 435.00 670.00 L 441.00 670.00 L 375.00 598.00 L 364.00 584.00 L 408.00 628.00 L 411.00 628.00 L 373.00 584.00 L 383.00 593.00 L 441.00 655.00 L 444.00 655.00 L 392.00 593.00 L 395.00 595.00 L 453.00 661.00 L 456.00 661.00 L 404.00 595.00 L 405.00 592.00 L 459.00 652.00 L 462.00 652.00 L 414.00 592.00 L 415.00 590.00 L 465.00 646.00 L 468.00 646.00 L 424.00 590.00 L 438.00 558.00 L 510.00 550.00 L 601.00 446.00 L 711.00 246.00 L 783.00 127.00 L 817.00 89.00 L 851.00 76.00 L 885.00 88.00 L 970.00 140.00 L 1106.00 232.00 L 1232.00 313.00 L 1348.00 383.00 L 1417.00 429.00 L 1439.00 451.00 L 1451.00 466.00 L 1453.00 474.00 L 1433.00 517.00 L 1391.00 595.00 L 1321.00 716.00 L 1223.00 880.00 L 1197.00 1007.00 L 1243.00 1097.00 L 1239.00 1138.00 L 1185.00 1130.00 L 1187.00 1134.00 L 1245.00 1150.00 L 1250.00 1154.00 L 1202.00 1146.00 L 1203.00 1149.00 L 1253.00 1163.00 L 1248.00 1163.00 L 1188.00 1149.00 L 1189.00 1152.00 L 1251.00 1172.00 L 1263.00 1178.00 L 1225.00 1170.00 L 1223.00 1172.00 L 1257.00 1184.00 L 1260.00 1186.00 L 1232.00 1178.00 L 1229.00 1178.00 L 1251.00 1186.00 L 1236.00 1182.00 L 1184.00 1166.00 L 1180.00 1166.00 L 1224.00 1182.00 L 1225.00 1185.00 L 1183.00 1175.00 L 1165.00 1195.00 L 1171.00 1245.00 L 1171.00 1302.00 L 1165.00 1366.00 L 1173.00 1438.00 L 1195.00 1518.00 L 1205.00 1581.00 L 1203.00 1627.00 L 1199.00 1658.00 L 1193.00 1674.00 L 1185.00 1685.00 L 1175.00 1691.00 L 1153.00 1697.00 L 1119.00 1703.00 L 1058.00 1698.00 L 970.00 1682.00 L 874.00 1677.00 L 770.00 1683.00 L 677.00 1697.00 L 595.00 1719.00 L 508.00 1750.00 L 416.00 1790.00 L 411.00 1729.00 L 493.00 1567.00 L 490.00 1568.00 L 402.00 1732.00 L 403.00 1729.00 L 493.00 1559.00 L 490.00 1560.00 L 394.00 1732.00 L 393.00 1729.00 L 487.00 1551.00 L 482.00 1552.00 L 378.00 1732.00 L 378.00 1729.00 L 482.00 1543.00 L 478.00 1545.00 L 366.00 1735.00 L 355.00 1753.00 L 445.00 1599.00 L 442.00 1598.00 L 346.00 1750.00 L 334.00 1766.00 L 406.00 1646.00 L 404.00 1643.00 L 328.00 1757.00 L 349.00 1719.00 L 467.00 1529.00 L 466.00 1527.00 L 346.00 1713.00 L 342.00 1717.00 L 454.00 1539.00 L 454.00 1535.00 L 342.00 1705.00 L 330.00 1722.00 L 418.00 1586.00 L 419.00 1583.00 L 333.00 1713.00 L 330.00 1716.00 L 410.00 1592.00 L 411.00 1589.00 L 333.00 1707.00 L 343.00 1685.00 L 441.00 1523.00 L 467.00 1471.00 L 421.00 1529.00 L 427.00 1518.00 L 485.00 1438.00 L 482.00 1439.00 L 418.00 1521.00 L 418.00 1518.00 L 482.00 1430.00 L 482.00 1427.00 L 418.00 1509.00 L 417.00 1507.00 L 479.00 1421.00 L 499.00 1390.00 L 477.00 1414.00 L 476.00 1411.00 L 496.00 1381.00 L 496.00 1378.00 L 476.00 1402.00 L 474.00 1400.00 L 490.00 1372.00 L 491.00 1350.00 L 477.00 1334.00 L 475.00 1318.00 L 485.00 1302.00 L 482.00 1284.00 L 466.00 1264.00 L 457.00 1245.00 L 455.00 1227.00 L 460.00 1205.00 L 472.00 1179.00 L 467.00 1146.00 L 445.00 1106.00 L 436.00 1076.00 L 440.00 1056.00 L 439.00 1044.00 L 433.00 1040.00 L 426.00 1036.00 L 418.00 1032.00 L 405.00 1026.00 Z" fill="black" stroke="black" stroke-width="1"/>
</svg>