<?xml version="1.0" encoding="UTF-8"?>
<svg xmlns="http://www.w3.org/2000/svg" viewBox="416.00 412.00 780.00 1304.00">
  <path d="M 490.00 1036.00 L 498.00 1032.00 L 499.00 1028.00 L 493.00 1024.00 L 492.00 1022.00 L 496.00 1022.00 L 494.00 1021.00 L 486.00 1019.00 L 485.00 1013.00 L 491.00 1003.00 L 493.00 990.00 L 491.00 974.00 L 488.00 961.00 L 484.00 951.00 L 481.00 937.00 L 479.00 919.00 L 469.00 889.00 L 451.00 847.00 L 440.00 818.00 L 436.00 802.00 L 433.00 776.00 L 431.00 740.00 L 433.00 708.00 L 439.00 680.00 L 451.00 641.00 L 469.00 591.00 L 486.00 554.00 L 502.00 530.00 L 525.00 505.00 L 555.00 479.00 L 587.00 458.00 L 621.00 442.00 L 649.00 433.00 L 671.00 431.00 L 686.00 428.00 L 694.00 424.00 L 705.00 422.00 L 719.00 422.00 L 734.00 424.00 L 750.00 428.00 L 761.00 428.00 L 767.00 424.00 L 774.00 422.00 L 782.00 422.00 L 789.00 425.00 L 795.00 431.00 L 808.00 434.00 L 828.00 434.00 L 841.00 437.00 L 847.00 443.00 L 857.00 448.00 L 871.00 452.00 L 885.00 460.00 L 899.00 472.00 L 913.00 480.00 L 927.00 484.00 L 940.00 492.00 L 952.00 504.00 L 958.00 512.00 L 958.00 516.00 L 966.00 523.00 L 982.00 533.00 L 999.00 548.00 L 1017.00 568.00 L 1025.00 583.00 L 1023.00 593.00 L 1025.00 594.00 L 1031.00 586.00 L 1032.00 587.00 L 1028.00 597.00 L 1027.00 603.00 L 1029.00 605.00 L 1033.00 601.00 L 1039.00 591.00 L 1040.00 593.00 L 1036.00 607.00 L 1037.00 608.00 L 1043.00 596.00 L 1047.00 591.00 L 1049.00 593.00 L 1048.00 601.00 L 1044.00 615.00 L 1046.00 617.00 L 1054.00 607.00 L 1055.00 609.00 L 1049.00 623.00 L 1050.00 624.00 L 1058.00 612.00 L 1059.00 613.00 L 1053.00 627.00 L 1055.00 629.00 L 1065.00 619.00 L 1067.00 621.00 L 1061.00 635.00 L 1062.00 637.00 L 1070.00 627.00 L 1071.00 628.00 L 1065.00 640.00 L 1066.00 641.00 L 1074.00 631.00 L 1075.00 633.00 L 1069.00 647.00 L 1070.00 650.00 L 1078.00 642.00 L 1079.00 645.00 L 1073.00 659.00 L 1073.00 679.00 L 1079.00 705.00 L 1087.00 729.00 L 1097.00 751.00 L 1103.00 779.00 L 1105.00 813.00 L 1111.00 838.00 L 1121.00 854.00 L 1139.00 876.00 L 1165.00 904.00 L 1180.00 921.00 L 1184.00 927.00 L 1186.00 934.00 L 1186.00 942.00 L 1183.00 951.00 L 1177.00 961.00 L 1163.00 971.00 L 1141.00 981.00 L 1128.00 991.00 L 1124.00 1001.00 L 1123.00 1017.00 L 1125.00 1039.00 L 1124.00 1053.00 L 1120.00 1059.00 L 1118.00 1065.00 L 1118.00 1071.00 L 1111.00 1086.00 L 1097.00 1110.00 L 1090.00 1124.00 L 1090.00 1128.00 L 1093.00 1134.00 L 1099.00 1142.00 L 1101.00 1154.00 L 1099.00 1170.00 L 1095.00 1183.00 L 1089.00 1193.00 L 1077.00 1202.00 L 1059.00 1210.00 L 1055.00 1220.00 L 1065.00 1232.00 L 1061.00 1248.00 L 1043.00 1268.00 L 1032.00 1282.00 L 1028.00 1290.00 L 1033.00 1305.00 L 1047.00 1327.00 L 1046.00 1329.00 L 1030.00 1311.00 L 1029.00 1312.00 L 1043.00 1332.00 L 1043.00 1334.00 L 1029.00 1318.00 L 1028.00 1319.00 L 1040.00 1337.00 L 1042.00 1346.00 L 1034.00 1346.00 L 1026.00 1343.00 L 1018.00 1337.00 L 1012.00 1336.00 L 1008.00 1340.00 L 1006.00 1345.00 L 1006.00 1351.00 L 1023.00 1388.00 L 1057.00 1456.00 L 1060.00 1465.00 L 1032.00 1415.00 L 1041.00 1435.00 L 1087.00 1525.00 L 1092.00 1537.00 L 1056.00 1471.00 L 1057.00 1473.00 L 1095.00 1543.00 L 1090.00 1534.00 L 1042.00 1446.00 L 1044.00 1451.00 L 1096.00 1549.00 L 1121.00 1597.00 L 1119.00 1595.00 L 1125.00 1616.00 L 1139.00 1660.00 L 1143.00 1688.00 L 1137.00 1700.00 L 1132.00 1706.00 L 1128.00 1706.00 L 1118.00 1701.00 L 1102.00 1691.00 L 1048.00 1653.00 L 956.00 1587.00 L 879.00 1537.00 L 817.00 1503.00 L 764.00 1478.00 L 720.00 1462.00 L 680.00 1450.00 L 644.00 1442.00 L 616.00 1437.00 L 596.00 1435.00 L 548.00 1435.00 L 472.00 1437.00 L 433.00 1437.00 L 431.00 1435.00 L 429.00 1431.00 L 427.00 1425.00 L 426.00 1404.00 L 426.00 1368.00 L 427.00 1349.00 L 429.00 1347.00 L 429.00 1344.00 L 427.00 1340.00 L 433.00 1315.00 L 447.00 1269.00 L 455.00 1239.00 L 457.00 1225.00 L 456.00 1211.00 L 452.00 1197.00 L 455.00 1177.00 L 465.00 1151.00 L 473.00 1115.00 L 479.00 1069.00 L 483.00 1044.00 L 485.00 1040.00 L 490.00 1036.00 Z" fill="black" stroke="black" stroke-width="1"/>
</svg>