<?xml version="1.0" encoding="UTF-8"?>
<svg xmlns="http://www.w3.org/2000/svg" viewBox="461.00 312.00 941.00 1380.00">
  <path d="M 502.00 957.00 L 510.00 931.00 L 504.00 911.00 L 484.00 897.00 L 473.00 885.00 L 471.00 875.00 L 474.00 860.00 L 482.00 840.00 L 499.00 814.00 L 525.00 782.00 L 543.00 756.00 L 553.00 736.00 L 556.00 713.00 L 552.00 687.00 L 550.00 660.00 L 550.00 632.00 L 552.00 610.00 L 556.00 594.00 L 555.00 580.00 L 549.00 568.00 L 550.00 567.00 L 558.00 577.00 L 559.00 575.00 L 553.00 561.00 L 553.00 558.00 L 559.00 566.00 L 560.00 564.00 L 556.00 552.00 L 558.00 550.00 L 566.00 558.00 L 567.00 556.00 L 561.00 544.00 L 562.00 541.00 L 570.00 547.00 L 571.00 545.00 L 565.00 535.00 L 565.00 534.00 L 571.00 542.00 L 572.00 540.00 L 568.00 528.00 L 569.00 526.00 L 575.00 534.00 L 579.00 536.00 L 581.00 532.00 L 580.00 526.00 L 576.00 518.00 L 577.00 518.00 L 583.00 526.00 L 584.00 524.00 L 580.00 512.00 L 607.00 479.00 L 665.00 425.00 L 719.00 389.00 L 769.00 371.00 L 808.00 354.00 L 836.00 338.00 L 869.00 331.00 L 907.00 333.00 L 935.00 331.00 L 953.00 325.00 L 970.00 322.00 L 986.00 322.00 L 1010.00 328.00 L 1042.00 340.00 L 1071.00 347.00 L 1097.00 349.00 L 1136.00 362.00 L 1188.00 386.00 L 1219.00 401.00 L 1229.00 407.00 L 1260.00 438.00 L 1312.00 494.00 L 1350.00 554.00 L 1374.00 618.00 L 1388.00 664.00 L 1392.00 692.00 L 1392.00 731.00 L 1388.00 781.00 L 1379.00 823.00 L 1365.00 857.00 L 1347.00 888.00 L 1325.00 916.00 L 1285.00 955.00 L 1227.00 1005.00 L 1184.00 1050.00 L 1156.00 1090.00 L 1139.00 1112.00 L 1133.00 1116.00 L 1124.00 1115.00 L 1112.00 1109.00 L 1110.00 1109.00 L 1118.00 1115.00 L 1120.00 1119.00 L 1116.00 1121.00 L 1109.00 1120.00 L 1099.00 1116.00 L 1093.00 1116.00 L 1091.00 1120.00 L 1093.00 1139.00 L 1099.00 1173.00 L 1106.00 1198.00 L 1114.00 1214.00 L 1118.00 1243.00 L 1118.00 1285.00 L 1122.00 1316.00 L 1130.00 1336.00 L 1133.00 1356.00 L 1131.00 1376.00 L 1128.00 1389.00 L 1124.00 1395.00 L 1113.00 1402.00 L 1095.00 1410.00 L 1051.00 1418.00 L 981.00 1426.00 L 917.00 1440.00 L 859.00 1460.00 L 788.00 1497.00 L 704.00 1551.00 L 647.00 1593.00 L 617.00 1623.00 L 640.00 1539.00 L 716.00 1341.00 L 714.00 1343.00 L 634.00 1545.00 L 635.00 1542.00 L 717.00 1334.00 L 716.00 1335.00 L 632.00 1545.00 L 632.00 1543.00 L 716.00 1329.00 L 713.00 1332.00 L 623.00 1552.00 L 620.00 1559.00 L 704.00 1353.00 L 701.00 1355.00 L 611.00 1565.00 L 565.00 1671.00 L 563.00 1673.00 L 602.00 1579.00 L 682.00 1389.00 L 679.00 1390.00 L 593.00 1582.00 L 601.00 1561.00 L 703.00 1327.00 L 701.00 1328.00 L 595.00 1564.00 L 540.00 1682.00 L 536.00 1682.00 L 576.00 1589.00 L 660.00 1403.00 L 658.00 1403.00 L 570.00 1589.00 L 582.00 1562.00 L 694.00 1322.00 L 693.00 1321.00 L 579.00 1559.00 L 521.00 1677.00 L 519.00 1675.00 L 559.00 1587.00 L 641.00 1413.00 L 639.00 1412.00 L 553.00 1584.00 L 552.00 1585.00 L 636.00 1415.00 L 635.00 1413.00 L 549.00 1579.00 L 547.00 1581.00 L 629.00 1419.00 L 629.00 1417.00 L 547.00 1575.00 L 565.00 1540.00 L 683.00 1312.00 L 683.00 1310.00 L 565.00 1534.00 L 540.00 1580.00 L 608.00 1448.00 L 607.00 1447.00 L 537.00 1577.00 L 502.00 1640.00 L 502.00 1636.00 L 561.00 1524.00 L 679.00 1304.00 L 679.00 1301.00 L 561.00 1515.00 L 531.00 1569.00 L 589.00 1463.00 L 589.00 1460.00 L 531.00 1560.00 L 528.00 1562.00 L 580.00 1466.00 L 580.00 1463.00 L 528.00 1553.00 L 526.00 1555.00 L 574.00 1469.00 L 574.00 1467.00 L 526.00 1549.00 L 524.00 1551.00 L 568.00 1473.00 L 569.00 1470.00 L 527.00 1542.00 L 526.00 1543.00 L 566.00 1473.00 L 566.00 1472.00 L 526.00 1540.00 L 524.00 1542.00 L 560.00 1478.00 L 563.00 1471.00 L 533.00 1521.00 L 530.00 1525.00 L 554.00 1483.00 L 555.00 1479.00 L 533.00 1513.00 L 573.00 1444.00 L 675.00 1272.00 L 702.00 1185.00 L 654.00 1183.00 L 611.00 1173.00 L 573.00 1155.00 L 550.00 1140.00 L 542.00 1128.00 L 537.00 1114.00 L 535.00 1098.00 L 536.00 1083.00 L 540.00 1069.00 L 535.00 1052.00 L 521.00 1032.00 L 514.00 1014.00 L 514.00 998.00 L 511.00 987.00 L 505.00 981.00 L 501.00 976.00 L 499.00 972.00 L 502.00 957.00 Z" fill="black" stroke="black" stroke-width="1"/>
</svg>