<?xml version="1.0" encoding="UTF-8"?>
<svg xmlns="http://www.w3.org/2000/svg" viewBox="398.00 185.00 933.00 1480.00">
  <path d="M 476.00 926.00 L 472.00 918.00 L 472.00 897.00 L 476.00 863.00 L 465.00 838.00 L 439.00 822.00 L 422.00 807.00 L 414.00 793.00 L 430.00 755.00 L 470.00 693.00 L 500.00 625.00 L 520.00 551.00 L 526.00 505.00 L 518.00 487.00 L 516.00 476.00 L 520.00 472.00 L 526.00 476.00 L 534.00 488.00 L 535.00 485.00 L 529.00 467.00 L 530.00 463.00 L 538.00 473.00 L 542.00 475.00 L 542.00 469.00 L 539.00 461.00 L 533.00 451.00 L 534.00 452.00 L 542.00 464.00 L 544.00 461.00 L 540.00 443.00 L 542.00 439.00 L 550.00 449.00 L 551.00 448.00 L 545.00 436.00 L 546.00 435.00 L 554.00 445.00 L 555.00 443.00 L 549.00 429.00 L 550.00 427.00 L 558.00 437.00 L 560.00 436.00 L 556.00 424.00 L 557.00 422.00 L 563.00 430.00 L 564.00 428.00 L 560.00 416.00 L 565.00 396.00 L 579.00 368.00 L 644.00 321.00 L 760.00 255.00 L 828.00 221.00 L 848.00 219.00 L 871.00 212.00 L 897.00 200.00 L 951.00 195.00 L 1033.00 197.00 L 1094.00 205.00 L 1134.00 219.00 L 1162.00 235.00 L 1178.00 253.00 L 1197.00 267.00 L 1219.00 277.00 L 1242.00 300.00 L 1266.00 336.00 L 1285.00 373.00 L 1299.00 411.00 L 1310.00 457.00 L 1318.00 511.00 L 1321.00 563.00 L 1319.00 613.00 L 1310.00 665.00 L 1294.00 719.00 L 1267.00 774.00 L 1229.00 830.00 L 1202.00 865.00 L 1186.00 879.00 L 1174.00 895.00 L 1166.00 913.00 L 1154.00 924.00 L 1138.00 928.00 L 1137.00 930.00 L 1151.00 930.00 L 1149.00 934.00 L 1131.00 942.00 L 1121.00 957.00 L 1119.00 979.00 L 1123.00 1015.00 L 1133.00 1065.00 L 1151.00 1107.00 L 1177.00 1141.00 L 1198.00 1176.00 L 1214.00 1212.00 L 1225.00 1246.00 L 1231.00 1278.00 L 1198.00 1305.00 L 1126.00 1327.00 L 1058.00 1353.00 L 994.00 1383.00 L 863.00 1457.00 L 665.00 1575.00 L 596.00 1549.00 L 656.00 1379.00 L 653.00 1381.00 L 587.00 1555.00 L 588.00 1550.00 L 656.00 1366.00 L 653.00 1368.00 L 579.00 1556.00 L 579.00 1554.00 L 653.00 1362.00 L 650.00 1364.00 L 570.00 1560.00 L 571.00 1555.00 L 653.00 1349.00 L 651.00 1350.00 L 565.00 1558.00 L 549.00 1595.00 L 603.00 1461.00 L 600.00 1463.00 L 540.00 1601.00 L 556.00 1561.00 L 648.00 1343.00 L 646.00 1344.00 L 550.00 1564.00 L 550.00 1562.00 L 646.00 1338.00 L 644.00 1340.00 L 544.00 1568.00 L 522.00 1617.00 L 578.00 1487.00 L 575.00 1488.00 L 513.00 1620.00 L 535.00 1568.00 L 641.00 1332.00 L 638.00 1334.00 L 526.00 1574.00 L 498.00 1632.00 L 554.00 1508.00 L 551.00 1510.00 L 489.00 1638.00 L 487.00 1640.00 L 545.00 1516.00 L 543.00 1517.00 L 481.00 1643.00 L 478.00 1645.00 L 534.00 1523.00 L 530.00 1526.00 L 466.00 1654.00 L 498.00 1588.00 L 626.00 1328.00 L 622.00 1329.00 L 486.00 1591.00 L 486.00 1589.00 L 622.00 1323.00 L 621.00 1321.00 L 483.00 1583.00 L 444.00 1655.00 L 504.00 1537.00 L 504.00 1535.00 L 444.00 1649.00 L 443.00 1650.00 L 501.00 1538.00 L 500.00 1535.00 L 440.00 1641.00 L 438.00 1642.00 L 494.00 1538.00 L 493.00 1536.00 L 435.00 1636.00 L 431.00 1639.00 L 481.00 1545.00 L 481.00 1542.00 L 431.00 1630.00 L 475.00 1551.00 L 613.00 1305.00 L 612.00 1302.00 L 472.00 1542.00 L 423.00 1625.00 L 465.00 1551.00 L 465.00 1548.00 L 423.00 1616.00 L 421.00 1617.00 L 459.00 1551.00 L 459.00 1549.00 L 421.00 1611.00 L 471.00 1525.00 L 609.00 1291.00 L 608.00 1289.00 L 468.00 1519.00 L 413.00 1609.00 L 443.00 1559.00 L 443.00 1558.00 L 413.00 1606.00 L 410.00 1609.00 L 434.00 1567.00 L 434.00 1565.00 L 410.00 1603.00 L 408.00 1605.00 L 428.00 1571.00 L 429.00 1568.00 L 411.00 1596.00 L 410.00 1597.00 L 426.00 1571.00 L 426.00 1570.00 L 410.00 1594.00 L 408.00 1596.00 L 420.00 1576.00 L 422.00 1572.00 L 414.00 1584.00 L 475.00 1483.00 L 605.00 1269.00 L 630.00 1138.00 L 550.00 1090.00 L 510.00 1050.00 L 510.00 1018.00 L 503.00 991.00 L 489.00 969.00 L 483.00 953.00 L 485.00 943.00 L 484.00 936.00 L 480.00 932.00 L 476.00 926.00 Z" fill="black" stroke="black" stroke-width="1"/>
</svg>