<?xml version="1.0" encoding="UTF-8"?>
<svg xmlns="http://www.w3.org/2000/svg" viewBox="447.00 405.00 771.00 1243.00">
  <path d="M 583.00 1013.00 L 569.00 995.00 L 557.00 982.00 L 547.00 974.00 L 526.00 941.00 L 494.00 883.00 L 475.00 844.00 L 469.00 824.00 L 463.00 792.00 L 457.00 748.00 L 458.00 699.00 L 466.00 645.00 L 479.00 601.00 L 497.00 567.00 L 518.00 535.00 L 542.00 505.00 L 580.00 474.00 L 632.00 442.00 L 678.00 423.00 L 718.00 417.00 L 765.00 415.00 L 819.00 417.00 L 864.00 422.00 L 900.00 430.00 L 938.00 444.00 L 978.00 464.00 L 1006.00 479.00 L 1022.00 489.00 L 1044.00 506.00 L 1072.00 530.00 L 1090.00 547.00 L 1098.00 557.00 L 1104.00 567.00 L 1108.00 577.00 L 1119.00 591.00 L 1137.00 609.00 L 1150.00 625.00 L 1158.00 639.00 L 1160.00 650.00 L 1156.00 658.00 L 1156.00 661.00 L 1160.00 659.00 L 1160.00 661.00 L 1156.00 667.00 L 1155.00 669.00 L 1157.00 667.00 L 1161.00 689.00 L 1167.00 735.00 L 1166.00 773.00 L 1158.00 803.00 L 1154.00 827.00 L 1154.00 845.00 L 1158.00 863.00 L 1166.00 881.00 L 1178.00 900.00 L 1194.00 920.00 L 1204.00 937.00 L 1208.00 951.00 L 1208.00 962.00 L 1204.00 970.00 L 1192.00 982.00 L 1172.00 998.00 L 1165.00 1013.00 L 1171.00 1027.00 L 1174.00 1037.00 L 1174.00 1043.00 L 1171.00 1050.00 L 1165.00 1058.00 L 1159.00 1063.00 L 1153.00 1065.00 L 1151.00 1070.00 L 1153.00 1078.00 L 1147.00 1087.00 L 1133.00 1097.00 L 1128.00 1119.00 L 1132.00 1153.00 L 1131.00 1176.00 L 1125.00 1188.00 L 1117.00 1197.00 L 1107.00 1203.00 L 1079.00 1207.00 L 1033.00 1209.00 L 1012.00 1214.00 L 1016.00 1222.00 L 1015.00 1223.00 L 1009.00 1217.00 L 1008.00 1219.00 L 1012.00 1229.00 L 1012.00 1240.00 L 1008.00 1252.00 L 1043.00 1323.00 L 1117.00 1453.00 L 1128.00 1475.00 L 1076.00 1389.00 L 1077.00 1391.00 L 1131.00 1481.00 L 1119.00 1461.00 L 1041.00 1331.00 L 1044.00 1338.00 L 1128.00 1482.00 L 1128.00 1483.00 L 1044.00 1341.00 L 1043.00 1340.00 L 1125.00 1480.00 L 1150.00 1523.00 L 1118.00 1469.00 L 1119.00 1471.00 L 1153.00 1529.00 L 1137.00 1502.00 L 1071.00 1390.00 L 1072.00 1393.00 L 1140.00 1511.00 L 1138.00 1509.00 L 1066.00 1387.00 L 1067.00 1391.00 L 1141.00 1521.00 L 1139.00 1519.00 L 1061.00 1385.00 L 1061.00 1388.00 L 1139.00 1528.00 L 1133.00 1519.00 L 1043.00 1361.00 L 1042.00 1364.00 L 1130.00 1528.00 L 1130.00 1530.00 L 1042.00 1370.00 L 1041.00 1372.00 L 1127.00 1536.00 L 1168.00 1620.00 L 1164.00 1624.00 L 1158.00 1629.00 L 1150.00 1635.00 L 1140.00 1638.00 L 1128.00 1638.00 L 1116.00 1636.00 L 1104.00 1632.00 L 1079.00 1622.00 L 1041.00 1606.00 L 990.00 1581.00 L 926.00 1547.00 L 866.00 1518.00 L 810.00 1494.00 L 763.00 1476.00 L 725.00 1464.00 L 683.00 1453.00 L 637.00 1443.00 L 600.00 1431.00 L 572.00 1417.00 L 551.00 1404.00 L 537.00 1392.00 L 528.00 1381.00 L 524.00 1371.00 L 523.00 1354.00 L 525.00 1330.00 L 540.00 1298.00 L 568.00 1258.00 L 583.00 1231.00 L 585.00 1217.00 L 595.00 1191.00 L 613.00 1153.00 L 624.00 1127.00 L 628.00 1113.00 L 635.00 1102.00 L 645.00 1094.00 L 650.00 1088.00 L 650.00 1084.00 L 646.00 1081.00 L 638.00 1079.00 L 629.00 1073.00 L 619.00 1063.00 L 609.00 1050.00 L 599.00 1034.00 L 593.00 1025.00 L 591.00 1023.00 L 583.00 1013.00 Z" fill="black" stroke="black" stroke-width="1"/>
</svg>