<?xml version="1.0" encoding="UTF-8"?>
<svg xmlns="http://www.w3.org/2000/svg" viewBox="285.00 192.00 994.00 1676.00">
  <path d="M 493.00 1000.00 L 483.00 964.00 L 454.00 922.00 L 406.00 874.00 L 360.00 817.00 L 316.00 751.00 L 295.00 690.00 L 297.00 634.00 L 308.00 593.00 L 328.00 567.00 L 347.00 551.00 L 365.00 545.00 L 363.00 519.00 L 341.00 473.00 L 334.00 433.00 L 342.00 399.00 L 359.00 368.00 L 385.00 340.00 L 438.00 320.00 L 518.00 308.00 L 569.00 282.00 L 591.00 242.00 L 615.00 226.00 L 641.00 234.00 L 680.00 228.00 L 732.00 208.00 L 792.00 202.00 L 860.00 210.00 L 897.00 215.00 L 903.00 217.00 L 905.00 243.00 L 903.00 293.00 L 906.00 294.00 L 914.00 246.00 L 916.00 247.00 L 912.00 297.00 L 913.00 298.00 L 919.00 250.00 L 921.00 251.00 L 919.00 301.00 L 922.00 302.00 L 930.00 254.00 L 932.00 254.00 L 928.00 302.00 L 930.00 304.00 L 938.00 260.00 L 941.00 261.00 L 939.00 307.00 L 943.00 311.00 L 953.00 273.00 L 956.00 274.00 L 952.00 314.00 L 953.00 316.00 L 959.00 280.00 L 962.00 281.00 L 962.00 319.00 L 977.00 345.00 L 1007.00 359.00 L 1055.00 396.00 L 1121.00 456.00 L 1149.00 495.00 L 1139.00 513.00 L 1140.00 514.00 L 1152.00 498.00 L 1155.00 505.00 L 1149.00 535.00 L 1154.00 543.00 L 1170.00 529.00 L 1172.00 532.00 L 1160.00 552.00 L 1161.00 554.00 L 1175.00 538.00 L 1176.00 540.00 L 1164.00 560.00 L 1165.00 562.00 L 1179.00 546.00 L 1180.00 548.00 L 1168.00 568.00 L 1168.00 571.00 L 1180.00 557.00 L 1181.00 560.00 L 1171.00 580.00 L 1171.00 606.00 L 1181.00 638.00 L 1182.00 681.00 L 1174.00 735.00 L 1192.00 796.00 L 1236.00 864.00 L 1242.00 915.00 L 1210.00 949.00 L 1198.00 977.00 L 1206.00 999.00 L 1205.00 1017.00 L 1195.00 1031.00 L 1193.00 1044.00 L 1199.00 1056.00 L 1193.00 1074.00 L 1175.00 1098.00 L 1170.00 1123.00 L 1178.00 1149.00 L 1178.00 1171.00 L 1170.00 1189.00 L 1156.00 1205.00 L 1136.00 1219.00 L 1086.00 1229.00 L 1006.00 1235.00 L 1045.00 1380.00 L 1203.00 1664.00 L 1201.00 1665.00 L 1039.00 1383.00 L 1029.00 1367.00 L 1171.00 1617.00 L 1239.00 1739.00 L 1233.00 1733.00 L 1243.00 1753.00 L 1269.00 1799.00 L 1267.00 1797.00 L 1237.00 1747.00 L 1237.00 1751.00 L 1267.00 1809.00 L 1263.00 1806.00 L 1225.00 1742.00 L 1225.00 1745.00 L 1263.00 1815.00 L 1261.00 1813.00 L 1219.00 1739.00 L 1219.00 1743.00 L 1261.00 1825.00 L 1200.00 1712.00 L 1036.00 1404.00 L 1035.00 1407.00 L 1197.00 1721.00 L 1251.00 1829.00 L 1197.00 1731.00 L 1196.00 1734.00 L 1248.00 1838.00 L 1245.00 1836.00 L 1187.00 1728.00 L 1186.00 1731.00 L 1242.00 1845.00 L 1190.00 1742.00 L 1030.00 1422.00 L 1026.00 1427.00 L 1178.00 1757.00 L 1177.00 1758.00 L 1023.00 1430.00 L 1022.00 1432.00 L 1174.00 1764.00 L 1209.00 1846.00 L 1127.00 1678.00 L 1125.00 1682.00 L 1203.00 1858.00 L 1167.00 1779.00 L 1017.00 1445.00 L 1010.00 1438.00 L 1146.00 1758.00 L 1163.00 1801.00 L 1061.00 1567.00 L 1056.00 1563.00 L 1148.00 1789.00 L 1131.00 1749.00 L 1005.00 1443.00 L 1002.00 1440.00 L 1122.00 1740.00 L 1122.00 1742.00 L 1002.00 1446.00 L 998.00 1442.00 L 1110.00 1730.00 L 1111.00 1734.00 L 1001.00 1454.00 L 999.00 1453.00 L 1105.00 1731.00 L 1105.00 1734.00 L 999.00 1462.00 L 995.00 1458.00 L 1093.00 1722.00 L 1097.00 1734.00 L 1007.00 1494.00 L 1005.00 1493.00 L 1091.00 1731.00 L 1079.00 1811.00 L 969.00 1733.00 L 913.00 1689.00 L 911.00 1679.00 L 906.00 1677.00 L 898.00 1683.00 L 843.00 1658.00 L 741.00 1602.00 L 628.00 1556.00 L 504.00 1520.00 L 437.00 1497.00 L 427.00 1487.00 L 419.00 1475.00 L 413.00 1461.00 L 421.00 1424.00 L 443.00 1364.00 L 454.00 1323.00 L 454.00 1301.00 L 475.00 1261.00 L 517.00 1203.00 L 542.00 1159.00 L 550.00 1129.00 L 541.00 1093.00 L 515.00 1051.00 L 501.00 1027.00 L 499.00 1021.00 L 493.00 1000.00 Z" fill="black" stroke="black" stroke-width="1"/>
</svg>