<?xml version="1.0" encoding="UTF-8"?>
<svg xmlns="http://www.w3.org/2000/svg" viewBox="453.00 329.00 802.00 1260.00">
  <path d="M 499.00 926.00 L 493.00 918.00 L 492.00 898.00 L 496.00 866.00 L 490.00 843.00 L 474.00 829.00 L 465.00 816.00 L 463.00 804.00 L 480.00 778.00 L 516.00 738.00 L 536.00 712.00 L 540.00 700.00 L 542.00 684.00 L 542.00 664.00 L 534.00 643.00 L 518.00 621.00 L 518.00 619.00 L 534.00 637.00 L 534.00 635.00 L 518.00 613.00 L 518.00 611.00 L 534.00 629.00 L 533.00 626.00 L 515.00 602.00 L 516.00 599.00 L 536.00 617.00 L 538.00 614.00 L 522.00 590.00 L 522.00 588.00 L 538.00 608.00 L 539.00 606.00 L 525.00 582.00 L 525.00 579.00 L 539.00 597.00 L 540.00 596.00 L 528.00 576.00 L 529.00 573.00 L 543.00 587.00 L 544.00 585.00 L 532.00 567.00 L 529.00 560.00 L 535.00 564.00 L 536.00 561.00 L 532.00 551.00 L 536.00 555.00 L 548.00 573.00 L 549.00 572.00 L 539.00 552.00 L 540.00 550.00 L 552.00 566.00 L 553.00 563.00 L 543.00 541.00 L 544.00 538.00 L 556.00 554.00 L 557.00 551.00 L 547.00 529.00 L 548.00 526.00 L 560.00 542.00 L 562.00 537.00 L 554.00 511.00 L 557.00 507.00 L 571.00 525.00 L 572.00 522.00 L 560.00 498.00 L 558.00 493.00 L 566.00 507.00 L 567.00 505.00 L 561.00 487.00 L 564.00 490.00 L 576.00 514.00 L 577.00 513.00 L 567.00 487.00 L 568.00 484.00 L 580.00 504.00 L 582.00 502.00 L 574.00 478.00 L 575.00 476.00 L 585.00 496.00 L 586.00 495.00 L 578.00 473.00 L 579.00 470.00 L 589.00 486.00 L 591.00 484.00 L 585.00 464.00 L 598.00 440.00 L 630.00 412.00 L 663.00 391.00 L 697.00 377.00 L 752.00 362.00 L 828.00 346.00 L 900.00 339.00 L 968.00 341.00 L 1022.00 347.00 L 1062.00 357.00 L 1093.00 368.00 L 1115.00 380.00 L 1150.00 413.00 L 1198.00 467.00 L 1229.00 521.00 L 1243.00 575.00 L 1245.00 630.00 L 1235.00 686.00 L 1212.00 747.00 L 1176.00 813.00 L 1144.00 861.00 L 1116.00 891.00 L 1092.00 933.00 L 1072.00 987.00 L 1057.00 1020.00 L 1047.00 1032.00 L 1031.00 1040.00 L 1009.00 1044.00 L 994.00 1056.00 L 986.00 1076.00 L 981.00 1115.00 L 979.00 1173.00 L 989.00 1229.00 L 1011.00 1283.00 L 1019.00 1307.00 L 1013.00 1301.00 L 1014.00 1312.00 L 1022.00 1340.00 L 1024.00 1363.00 L 1020.00 1381.00 L 1008.00 1397.00 L 988.00 1411.00 L 968.00 1418.00 L 948.00 1418.00 L 916.00 1425.00 L 872.00 1439.00 L 799.00 1468.00 L 697.00 1512.00 L 660.00 1471.00 L 688.00 1345.00 L 687.00 1346.00 L 657.00 1474.00 L 657.00 1472.00 L 687.00 1340.00 L 685.00 1341.00 L 651.00 1475.00 L 652.00 1466.00 L 688.00 1314.00 L 686.00 1315.00 L 646.00 1469.00 L 646.00 1467.00 L 686.00 1309.00 L 684.00 1310.00 L 640.00 1470.00 L 640.00 1464.00 L 684.00 1292.00 L 681.00 1293.00 L 631.00 1467.00 L 631.00 1465.00 L 681.00 1287.00 L 679.00 1288.00 L 625.00 1468.00 L 625.00 1465.00 L 679.00 1279.00 L 676.00 1281.00 L 616.00 1471.00 L 616.00 1469.00 L 676.00 1275.00 L 671.00 1278.00 L 601.00 1478.00 L 600.00 1476.00 L 668.00 1272.00 L 665.00 1273.00 L 591.00 1479.00 L 591.00 1477.00 L 665.00 1267.00 L 662.00 1269.00 L 582.00 1483.00 L 582.00 1481.00 L 662.00 1263.00 L 659.00 1264.00 L 573.00 1484.00 L 544.00 1555.00 L 572.00 1477.00 L 569.00 1479.00 L 535.00 1561.00 L 563.00 1489.00 L 653.00 1263.00 L 649.00 1266.00 L 551.00 1498.00 L 551.00 1496.00 L 649.00 1260.00 L 645.00 1261.00 L 539.00 1499.00 L 502.00 1579.00 L 534.00 1501.00 L 533.00 1500.00 L 499.00 1576.00 L 498.00 1577.00 L 530.00 1503.00 L 543.00 1468.00 L 537.00 1472.00 L 574.00 1388.00 L 654.00 1216.00 L 639.00 1248.00 L 529.00 1484.00 L 488.00 1571.00 L 516.00 1509.00 L 516.00 1508.00 L 488.00 1568.00 L 487.00 1569.00 L 513.00 1511.00 L 513.00 1508.00 L 487.00 1560.00 L 484.00 1563.00 L 504.00 1517.00 L 504.00 1513.00 L 484.00 1551.00 L 482.00 1553.00 L 498.00 1519.00 L 499.00 1515.00 L 485.00 1541.00 L 482.00 1545.00 L 490.00 1527.00 L 491.00 1523.00 L 485.00 1533.00 L 534.00 1434.00 L 638.00 1226.00 L 683.00 1115.00 L 669.00 1101.00 L 643.00 1093.00 L 605.00 1091.00 L 574.00 1086.00 L 550.00 1078.00 L 532.00 1063.00 L 520.00 1041.00 L 515.00 1018.00 L 517.00 994.00 L 514.00 972.00 L 506.00 952.00 L 502.00 939.00 L 502.00 933.00 L 499.00 926.00 Z" fill="black" stroke="black" stroke-width="1"/>
</svg>