<?xml version="1.0" encoding="UTF-8"?>
<svg xmlns="http://www.w3.org/2000/svg" viewBox="356.00 421.00 694.00 1143.00">
  <path d="M 414.00 964.00 L 406.00 920.00 L 396.00 882.00 L 384.00 850.00 L 375.00 814.00 L 369.00 774.00 L 366.00 736.00 L 366.00 700.00 L 374.00 658.00 L 390.00 610.00 L 404.00 577.00 L 416.00 559.00 L 432.00 540.00 L 452.00 520.00 L 469.00 505.00 L 483.00 495.00 L 503.00 482.00 L 529.00 466.00 L 562.00 452.00 L 602.00 440.00 L 632.00 434.00 L 652.00 434.00 L 663.00 433.00 L 665.00 431.00 L 672.00 431.00 L 684.00 433.00 L 692.00 433.00 L 696.00 431.00 L 724.00 434.00 L 776.00 442.00 L 817.00 450.00 L 847.00 458.00 L 873.00 467.00 L 895.00 477.00 L 933.00 507.00 L 987.00 557.00 L 1018.00 591.00 L 1026.00 609.00 L 1027.00 626.00 L 1021.00 642.00 L 1022.00 646.00 L 1030.00 638.00 L 1030.00 640.00 L 1022.00 652.00 L 1022.00 654.00 L 1030.00 646.00 L 1031.00 648.00 L 1025.00 660.00 L 1026.00 662.00 L 1034.00 654.00 L 1034.00 656.00 L 1026.00 668.00 L 1023.00 688.00 L 1025.00 716.00 L 1020.00 753.00 L 1008.00 799.00 L 1002.00 833.00 L 1002.00 855.00 L 1012.00 881.00 L 1032.00 911.00 L 1040.00 933.00 L 1036.00 947.00 L 1027.00 958.00 L 1013.00 966.00 L 1007.00 970.00 L 1009.00 970.00 L 1009.00 971.00 L 1007.00 973.00 L 1006.00 982.00 L 1006.00 998.00 L 1008.00 1011.00 L 1012.00 1021.00 L 1011.00 1030.00 L 1005.00 1038.00 L 999.00 1043.00 L 993.00 1045.00 L 989.00 1052.00 L 987.00 1064.00 L 981.00 1074.00 L 971.00 1082.00 L 964.00 1095.00 L 960.00 1113.00 L 950.00 1131.00 L 934.00 1149.00 L 898.00 1165.00 L 842.00 1179.00 L 841.00 1252.00 L 895.00 1384.00 L 893.00 1385.00 L 835.00 1255.00 L 836.00 1259.00 L 896.00 1397.00 L 917.00 1446.00 L 899.00 1406.00 L 900.00 1409.00 L 920.00 1455.00 L 918.00 1451.00 L 894.00 1397.00 L 894.00 1399.00 L 918.00 1457.00 L 915.00 1453.00 L 885.00 1387.00 L 885.00 1390.00 L 915.00 1462.00 L 914.00 1460.00 L 882.00 1384.00 L 882.00 1386.00 L 914.00 1466.00 L 912.00 1464.00 L 876.00 1380.00 L 876.00 1383.00 L 912.00 1473.00 L 897.00 1436.00 L 831.00 1272.00 L 831.00 1275.00 L 897.00 1445.00 L 906.00 1471.00 L 858.00 1353.00 L 857.00 1356.00 L 903.00 1480.00 L 900.00 1475.00 L 848.00 1341.00 L 847.00 1343.00 L 897.00 1481.00 L 895.00 1478.00 L 841.00 1334.00 L 840.00 1337.00 L 892.00 1487.00 L 891.00 1486.00 L 837.00 1334.00 L 836.00 1335.00 L 888.00 1489.00 L 882.00 1473.00 L 818.00 1287.00 L 817.00 1288.00 L 879.00 1476.00 L 883.00 1490.00 L 829.00 1330.00 L 828.00 1331.00 L 880.00 1493.00 L 875.00 1480.00 L 813.00 1292.00 L 811.00 1293.00 L 869.00 1483.00 L 868.00 1484.00 L 808.00 1296.00 L 805.00 1297.00 L 859.00 1487.00 L 861.00 1495.00 L 811.00 1321.00 L 809.00 1321.00 L 855.00 1495.00 L 852.00 1488.00 L 800.00 1300.00 L 798.00 1299.00 L 846.00 1485.00 L 846.00 1487.00 L 798.00 1305.00 L 795.00 1304.00 L 837.00 1484.00 L 837.00 1487.00 L 795.00 1313.00 L 793.00 1312.00 L 831.00 1484.00 L 830.00 1554.00 L 790.00 1522.00 L 752.00 1494.00 L 716.00 1470.00 L 676.00 1447.00 L 632.00 1425.00 L 582.00 1406.00 L 526.00 1390.00 L 488.00 1374.00 L 468.00 1358.00 L 457.00 1347.00 L 455.00 1341.00 L 455.00 1331.00 L 457.00 1317.00 L 457.00 1311.00 L 455.00 1313.00 L 458.00 1302.00 L 466.00 1278.00 L 469.00 1267.00 L 467.00 1269.00 L 467.00 1254.00 L 469.00 1222.00 L 466.00 1197.00 L 458.00 1179.00 L 455.00 1167.00 L 457.00 1161.00 L 457.00 1133.00 L 455.00 1083.00 L 456.00 1054.00 L 460.00 1046.00 L 460.00 1037.00 L 456.00 1027.00 L 448.00 1022.00 L 436.00 1022.00 L 436.00 1021.00 L 448.00 1019.00 L 447.00 1018.00 L 433.00 1018.00 L 432.00 1017.00 L 444.00 1015.00 L 443.00 1014.00 L 429.00 1014.00 L 421.00 1013.00 L 419.00 1011.00 L 418.00 1006.00 L 418.00 998.00 L 418.00 992.00 L 418.00 988.00 L 414.00 964.00 Z" fill="black" stroke="black" stroke-width="1"/>
</svg>