<?xml version="1.0" encoding="UTF-8"?>
<svg xmlns="http://www.w3.org/2000/svg" viewBox="284.00 224.00 920.00 1467.00">
  <path d="M 354.00 959.00 L 354.00 953.00 L 361.00 936.00 L 375.00 908.00 L 380.00 890.00 L 376.00 882.00 L 373.00 871.00 L 371.00 857.00 L 373.00 847.00 L 379.00 841.00 L 380.00 836.00 L 376.00 832.00 L 374.00 826.00 L 374.00 818.00 L 377.00 808.00 L 383.00 796.00 L 375.00 783.00 L 353.00 769.00 L 354.00 767.00 L 378.00 777.00 L 376.00 774.00 L 348.00 758.00 L 332.00 745.00 L 328.00 735.00 L 329.00 723.00 L 335.00 709.00 L 362.00 675.00 L 410.00 621.00 L 435.00 589.00 L 437.00 579.00 L 436.00 569.00 L 432.00 559.00 L 430.00 545.00 L 430.00 527.00 L 436.00 506.00 L 448.00 482.00 L 459.00 464.00 L 469.00 452.00 L 480.00 433.00 L 492.00 407.00 L 503.00 386.00 L 513.00 370.00 L 524.00 356.00 L 536.00 344.00 L 551.00 331.00 L 569.00 317.00 L 597.00 300.00 L 635.00 280.00 L 666.00 265.00 L 690.00 255.00 L 723.00 246.00 L 765.00 238.00 L 815.00 234.00 L 873.00 234.00 L 928.00 238.00 L 980.00 246.00 L 1022.00 258.00 L 1054.00 274.00 L 1081.00 291.00 L 1103.00 309.00 L 1126.00 336.00 L 1150.00 372.00 L 1168.00 411.00 L 1180.00 453.00 L 1186.00 480.00 L 1186.00 492.00 L 1188.00 505.00 L 1192.00 519.00 L 1194.00 542.00 L 1194.00 574.00 L 1192.00 600.00 L 1188.00 620.00 L 1187.00 646.00 L 1189.00 678.00 L 1189.00 726.00 L 1187.00 790.00 L 1184.00 830.00 L 1180.00 846.00 L 1172.00 868.00 L 1160.00 896.00 L 1147.00 912.00 L 1133.00 916.00 L 1132.00 918.00 L 1144.00 918.00 L 1142.00 920.00 L 1126.00 924.00 L 1125.00 926.00 L 1139.00 926.00 L 1139.00 928.00 L 1125.00 932.00 L 1123.00 935.00 L 1133.00 937.00 L 1134.00 939.00 L 1126.00 941.00 L 1122.00 945.00 L 1122.00 951.00 L 1124.00 957.00 L 1128.00 963.00 L 1132.00 974.00 L 1136.00 990.00 L 1139.00 1017.00 L 1141.00 1055.00 L 1144.00 1082.00 L 1148.00 1098.00 L 1149.00 1127.00 L 1147.00 1169.00 L 1150.00 1204.00 L 1158.00 1232.00 L 1164.00 1261.00 L 1168.00 1291.00 L 1169.00 1321.00 L 1167.00 1351.00 L 1162.00 1376.00 L 1154.00 1396.00 L 1146.00 1410.00 L 1138.00 1418.00 L 1075.00 1432.00 L 957.00 1452.00 L 856.00 1474.00 L 772.00 1498.00 L 697.00 1522.00 L 631.00 1546.00 L 564.00 1574.00 L 496.00 1606.00 L 441.00 1634.00 L 399.00 1658.00 L 369.00 1673.00 L 351.00 1679.00 L 337.00 1681.00 L 327.00 1679.00 L 318.00 1674.00 L 310.00 1666.00 L 303.00 1654.00 L 297.00 1638.00 L 294.00 1615.00 L 294.00 1585.00 L 297.00 1559.00 L 303.00 1537.00 L 305.00 1527.00 L 303.00 1529.00 L 307.00 1517.00 L 317.00 1491.00 L 328.00 1467.00 L 340.00 1445.00 L 344.00 1436.00 L 340.00 1440.00 L 357.00 1413.00 L 395.00 1355.00 L 412.00 1328.00 L 408.00 1332.00 L 412.00 1327.00 L 424.00 1313.00 L 427.00 1309.00 L 421.00 1315.00 L 422.00 1313.00 L 430.00 1303.00 L 434.00 1296.00 L 434.00 1292.00 L 423.00 1300.00 L 401.00 1320.00 L 391.00 1328.00 L 393.00 1324.00 L 408.00 1307.00 L 436.00 1277.00 L 434.00 1277.00 L 402.00 1307.00 L 402.00 1305.00 L 434.00 1271.00 L 434.00 1269.00 L 402.00 1299.00 L 397.00 1301.00 L 419.00 1275.00 L 419.00 1272.00 L 397.00 1292.00 L 400.00 1288.00 L 428.00 1260.00 L 430.00 1257.00 L 406.00 1279.00 L 406.00 1277.00 L 430.00 1251.00 L 432.00 1247.00 L 412.00 1265.00 L 404.00 1266.00 L 408.00 1250.00 L 415.00 1237.00 L 425.00 1227.00 L 426.00 1225.00 L 418.00 1231.00 L 420.00 1228.00 L 432.00 1216.00 L 438.00 1208.00 L 438.00 1204.00 L 436.00 1200.00 L 432.00 1196.00 L 432.00 1189.00 L 436.00 1179.00 L 438.00 1170.00 L 438.00 1162.00 L 433.00 1140.00 L 423.00 1104.00 L 431.00 1080.00 L 457.00 1068.00 L 458.00 1066.00 L 434.00 1074.00 L 429.00 1075.00 L 443.00 1069.00 L 446.00 1067.00 L 438.00 1069.00 L 440.00 1065.00 L 452.00 1055.00 L 452.00 1043.00 L 440.00 1029.00 L 421.00 1017.00 L 395.00 1007.00 L 376.00 994.00 L 364.00 978.00 L 357.00 968.00 L 355.00 964.00 L 354.00 959.00 Z" fill="black" stroke="black" stroke-width="1"/>
</svg>