<?xml version="1.0" encoding="UTF-8"?>
<svg xmlns="http://www.w3.org/2000/svg" viewBox="354.00 233.00 998.00 1601.00">
  <path d="M 450.00 1068.00 L 450.00 1056.00 L 454.00 1038.00 L 462.00 1014.00 L 471.00 997.00 L 481.00 987.00 L 492.00 980.00 L 504.00 976.00 L 503.00 970.00 L 489.00 962.00 L 489.00 960.00 L 503.00 964.00 L 502.00 961.00 L 486.00 951.00 L 472.00 920.00 L 460.00 868.00 L 435.00 809.00 L 397.00 743.00 L 374.00 692.00 L 366.00 656.00 L 364.00 606.00 L 368.00 542.00 L 382.00 481.00 L 406.00 423.00 L 437.00 374.00 L 475.00 334.00 L 529.00 300.00 L 599.00 272.00 L 646.00 258.00 L 670.00 258.00 L 694.00 254.00 L 718.00 246.00 L 750.00 243.00 L 790.00 245.00 L 834.00 251.00 L 882.00 261.00 L 913.00 272.00 L 927.00 284.00 L 949.00 296.00 L 979.00 308.00 L 1003.00 325.00 L 1021.00 347.00 L 1045.00 370.00 L 1075.00 394.00 L 1095.00 419.00 L 1105.00 445.00 L 1110.00 465.00 L 1110.00 479.00 L 1113.00 482.00 L 1119.00 474.00 L 1120.00 475.00 L 1116.00 485.00 L 1116.00 494.00 L 1120.00 502.00 L 1125.00 500.00 L 1131.00 488.00 L 1132.00 492.00 L 1128.00 512.00 L 1131.00 515.00 L 1141.00 501.00 L 1142.00 505.00 L 1134.00 527.00 L 1135.00 530.00 L 1145.00 514.00 L 1145.00 517.00 L 1135.00 539.00 L 1136.00 542.00 L 1148.00 526.00 L 1150.00 530.00 L 1142.00 554.00 L 1143.00 557.00 L 1153.00 539.00 L 1154.00 542.00 L 1146.00 566.00 L 1147.00 569.00 L 1157.00 551.00 L 1160.00 546.00 L 1156.00 554.00 L 1157.00 557.00 L 1163.00 555.00 L 1162.00 563.00 L 1154.00 581.00 L 1153.00 597.00 L 1159.00 611.00 L 1165.00 638.00 L 1171.00 678.00 L 1195.00 722.00 L 1237.00 770.00 L 1268.00 812.00 L 1288.00 848.00 L 1296.00 870.00 L 1292.00 878.00 L 1276.00 889.00 L 1248.00 903.00 L 1246.00 905.00 L 1270.00 895.00 L 1267.00 897.00 L 1237.00 911.00 L 1235.00 913.00 L 1261.00 903.00 L 1259.00 905.00 L 1229.00 919.00 L 1212.00 941.00 L 1208.00 971.00 L 1202.00 991.00 L 1194.00 1001.00 L 1193.00 1011.00 L 1199.00 1021.00 L 1198.00 1037.00 L 1190.00 1059.00 L 1190.00 1086.00 L 1198.00 1118.00 L 1199.00 1141.00 L 1193.00 1155.00 L 1184.00 1167.00 L 1172.00 1177.00 L 1154.00 1187.00 L 1130.00 1197.00 L 1126.00 1207.00 L 1142.00 1217.00 L 1144.00 1219.00 L 1132.00 1213.00 L 1131.00 1216.00 L 1141.00 1228.00 L 1138.00 1244.00 L 1122.00 1264.00 L 1120.00 1282.00 L 1132.00 1298.00 L 1132.00 1301.00 L 1120.00 1291.00 L 1122.00 1293.00 L 1138.00 1307.00 L 1137.00 1308.00 L 1119.00 1296.00 L 1120.00 1299.00 L 1140.00 1317.00 L 1142.00 1320.00 L 1126.00 1308.00 L 1115.00 1302.00 L 1109.00 1302.00 L 1115.00 1311.00 L 1133.00 1329.00 L 1139.00 1339.00 L 1133.00 1341.00 L 1147.00 1361.00 L 1181.00 1399.00 L 1179.00 1400.00 L 1141.00 1364.00 L 1142.00 1367.00 L 1182.00 1409.00 L 1201.00 1432.00 L 1199.00 1436.00 L 1191.00 1436.00 L 1177.00 1432.00 L 1157.00 1416.00 L 1131.00 1388.00 L 1128.00 1386.00 L 1148.00 1410.00 L 1150.00 1413.00 L 1134.00 1395.00 L 1132.00 1394.00 L 1144.00 1410.00 L 1140.00 1409.00 L 1120.00 1391.00 L 1109.00 1384.00 L 1107.00 1388.00 L 1153.00 1454.00 L 1247.00 1582.00 L 1246.00 1583.00 L 1150.00 1457.00 L 1154.00 1463.00 L 1258.00 1601.00 L 1286.00 1639.00 L 1238.00 1577.00 L 1240.00 1581.00 L 1292.00 1651.00 L 1276.00 1631.00 L 1192.00 1521.00 L 1195.00 1527.00 L 1285.00 1649.00 L 1283.00 1647.00 L 1189.00 1521.00 L 1191.00 1527.00 L 1289.00 1665.00 L 1277.00 1651.00 L 1155.00 1485.00 L 1156.00 1491.00 L 1280.00 1669.00 L 1277.00 1666.00 L 1147.00 1482.00 L 1147.00 1485.00 L 1277.00 1675.00 L 1342.00 1773.00 L 1342.00 1779.00 L 1283.00 1696.00 L 1165.00 1524.00 L 1165.00 1527.00 L 1283.00 1705.00 L 1277.00 1697.00 L 1147.00 1503.00 L 1146.00 1505.00 L 1274.00 1703.00 L 1277.00 1710.00 L 1155.00 1526.00 L 1155.00 1529.00 L 1277.00 1719.00 L 1274.00 1715.00 L 1146.00 1517.00 L 1082.00 1421.00 L 1082.00 1427.00 L 1143.00 1529.00 L 1265.00 1727.00 L 1313.00 1824.00 L 1287.00 1820.00 L 1243.00 1807.00 L 1181.00 1785.00 L 1111.00 1755.00 L 1033.00 1717.00 L 940.00 1683.00 L 832.00 1653.00 L 736.00 1632.00 L 652.00 1620.00 L 573.00 1615.00 L 499.00 1617.00 L 440.00 1622.00 L 396.00 1630.00 L 373.00 1618.00 L 371.00 1586.00 L 373.00 1547.00 L 379.00 1501.00 L 398.00 1432.00 L 430.00 1340.00 L 442.00 1286.00 L 434.00 1270.00 L 434.00 1238.00 L 442.00 1190.00 L 447.00 1145.00 L 449.00 1103.00 L 450.00 1080.00 L 450.00 1076.00 L 450.00 1068.00 Z" fill="black" stroke="black" stroke-width="1"/>
</svg>