<?xml version="1.0" encoding="UTF-8"?>
<svg xmlns="http://www.w3.org/2000/svg" viewBox="339.00 175.00 1023.00 1552.00">
  <path d="M 575.00 998.00 L 577.00 990.00 L 571.00 972.00 L 557.00 944.00 L 483.00 840.00 L 349.00 660.00 L 367.00 494.00 L 537.00 342.00 L 649.00 245.00 L 703.00 203.00 L 743.00 185.00 L 769.00 191.00 L 814.00 226.00 L 878.00 290.00 L 954.00 374.00 L 1042.00 478.00 L 1099.00 533.00 L 1125.00 539.00 L 1141.00 546.00 L 1147.00 554.00 L 1157.00 558.00 L 1171.00 558.00 L 1169.00 574.00 L 1151.00 606.00 L 1154.00 606.00 L 1178.00 574.00 L 1191.00 559.00 L 1193.00 561.00 L 1180.00 584.00 L 1152.00 628.00 L 1155.00 628.00 L 1189.00 584.00 L 1190.00 585.00 L 1158.00 631.00 L 1160.00 631.00 L 1196.00 585.00 L 1197.00 587.00 L 1163.00 637.00 L 1166.00 637.00 L 1206.00 587.00 L 1207.00 589.00 L 1169.00 643.00 L 1172.00 644.00 L 1216.00 592.00 L 1217.00 594.00 L 1175.00 650.00 L 1178.00 650.00 L 1226.00 594.00 L 1225.00 596.00 L 1175.00 656.00 L 1178.00 657.00 L 1234.00 599.00 L 1235.00 601.00 L 1181.00 663.00 L 1184.00 663.00 L 1244.00 601.00 L 1244.00 604.00 L 1184.00 672.00 L 1188.00 672.00 L 1256.00 604.00 L 1256.00 606.00 L 1188.00 678.00 L 1191.00 679.00 L 1265.00 609.00 L 1266.00 612.00 L 1194.00 688.00 L 1197.00 688.00 L 1275.00 612.00 L 1305.00 585.00 L 1287.00 607.00 L 1290.00 607.00 L 1314.00 585.00 L 1292.00 607.00 L 1224.00 673.00 L 1215.00 684.00 L 1265.00 640.00 L 1263.00 644.00 L 1209.00 696.00 L 1221.00 686.00 L 1299.00 614.00 L 1295.00 618.00 L 1209.00 698.00 L 1211.00 698.00 L 1301.00 618.00 L 1336.00 588.00 L 1316.00 608.00 L 1313.00 616.00 L 1327.00 612.00 L 1340.00 605.00 L 1352.00 595.00 L 1311.00 631.00 L 1217.00 713.00 L 1170.00 767.00 L 1170.00 793.00 L 1184.00 829.00 L 1212.00 875.00 L 1233.00 915.00 L 1247.00 949.00 L 1251.00 972.00 L 1245.00 984.00 L 1228.00 991.00 L 1200.00 993.00 L 1197.00 994.00 L 1219.00 994.00 L 1216.00 996.00 L 1188.00 1000.00 L 1172.00 1005.00 L 1168.00 1011.00 L 1165.00 1033.00 L 1163.00 1071.00 L 1157.00 1103.00 L 1147.00 1129.00 L 1143.00 1153.00 L 1145.00 1175.00 L 1141.00 1197.00 L 1131.00 1219.00 L 1119.00 1234.00 L 1105.00 1242.00 L 1100.00 1250.00 L 1104.00 1258.00 L 1103.00 1259.00 L 1097.00 1253.00 L 1098.00 1256.00 L 1106.00 1268.00 L 1107.00 1279.00 L 1101.00 1289.00 L 1105.00 1307.00 L 1119.00 1333.00 L 1117.00 1335.00 L 1099.00 1313.00 L 1093.00 1308.00 L 1099.00 1320.00 L 1098.00 1323.00 L 1090.00 1317.00 L 1093.00 1325.00 L 1107.00 1347.00 L 1107.00 1349.00 L 1093.00 1331.00 L 1093.00 1336.00 L 1107.00 1364.00 L 1115.00 1387.00 L 1117.00 1405.00 L 1111.00 1403.00 L 1097.00 1381.00 L 1098.00 1387.00 L 1114.00 1421.00 L 1110.00 1418.00 L 1086.00 1378.00 L 1086.00 1382.00 L 1110.00 1430.00 L 1111.00 1436.00 L 1089.00 1400.00 L 1112.00 1449.00 L 1180.00 1583.00 L 1179.00 1585.00 L 1109.00 1455.00 L 1110.00 1458.00 L 1182.00 1594.00 L 1190.00 1610.00 L 1134.00 1506.00 L 1135.00 1509.00 L 1193.00 1619.00 L 1198.00 1629.00 L 1150.00 1539.00 L 1151.00 1542.00 L 1201.00 1638.00 L 1197.00 1631.00 L 1139.00 1521.00 L 1139.00 1524.00 L 1197.00 1640.00 L 1186.00 1622.00 L 1106.00 1470.00 L 1106.00 1473.00 L 1186.00 1631.00 L 1184.00 1629.00 L 1100.00 1467.00 L 1100.00 1471.00 L 1184.00 1641.00 L 1184.00 1643.00 L 1100.00 1477.00 L 1098.00 1479.00 L 1178.00 1649.00 L 1180.00 1655.00 L 1104.00 1497.00 L 1102.00 1498.00 L 1174.00 1658.00 L 1173.00 1661.00 L 1099.00 1507.00 L 1096.00 1508.00 L 1164.00 1664.00 L 1163.00 1666.00 L 1093.00 1514.00 L 1090.00 1513.00 L 1154.00 1663.00 L 1146.00 1717.00 L 1066.00 1675.00 L 990.00 1639.00 L 918.00 1609.00 L 857.00 1586.00 L 807.00 1570.00 L 736.00 1554.00 L 644.00 1538.00 L 567.00 1530.00 L 505.00 1530.00 L 472.00 1528.00 L 468.00 1524.00 L 474.00 1482.00 L 490.00 1402.00 L 502.00 1351.00 L 510.00 1329.00 L 512.00 1311.00 L 508.00 1297.00 L 515.00 1258.00 L 533.00 1194.00 L 525.00 1168.00 L 491.00 1180.00 L 492.00 1177.00 L 528.00 1159.00 L 526.00 1158.00 L 486.00 1174.00 L 487.00 1172.00 L 529.00 1152.00 L 527.00 1150.00 L 481.00 1166.00 L 479.00 1164.00 L 521.00 1144.00 L 521.00 1142.00 L 479.00 1158.00 L 483.00 1156.00 L 533.00 1136.00 L 534.00 1133.00 L 486.00 1147.00 L 472.00 1135.00 L 492.00 1097.00 L 518.00 1061.00 L 550.00 1027.00 L 568.00 1008.00 L 572.00 1004.00 L 575.00 998.00 Z" fill="black" stroke="black" stroke-width="1"/>
</svg>