<?xml version="1.0" encoding="UTF-8"?>
<svg xmlns="http://www.w3.org/2000/svg" viewBox="413.00 151.00 1080.00 1611.00">
  <path d="M 531.00 849.00 L 581.00 787.00 L 600.00 751.00 L 588.00 741.00 L 589.00 738.00 L 603.00 742.00 L 604.00 728.00 L 592.00 696.00 L 593.00 683.00 L 607.00 689.00 L 608.00 685.00 L 596.00 671.00 L 597.00 668.00 L 611.00 676.00 L 614.00 661.00 L 606.00 623.00 L 617.00 581.00 L 647.00 535.00 L 657.00 491.00 L 647.00 449.00 L 646.00 404.00 L 654.00 356.00 L 667.00 328.00 L 685.00 320.00 L 710.00 323.00 L 742.00 337.00 L 754.00 325.00 L 746.00 287.00 L 748.00 288.00 L 760.00 328.00 L 760.00 310.00 L 748.00 234.00 L 752.00 235.00 L 772.00 313.00 L 777.00 312.00 L 767.00 232.00 L 770.00 233.00 L 786.00 315.00 L 789.00 316.00 L 779.00 236.00 L 782.00 236.00 L 798.00 316.00 L 803.00 317.00 L 797.00 239.00 L 800.00 239.00 L 812.00 317.00 L 816.00 318.00 L 812.00 242.00 L 815.00 241.00 L 825.00 315.00 L 827.00 312.00 L 821.00 232.00 L 824.00 232.00 L 836.00 312.00 L 841.00 306.00 L 839.00 214.00 L 842.00 214.00 L 850.00 306.00 L 854.00 304.00 L 854.00 208.00 L 858.00 207.00 L 866.00 301.00 L 869.00 308.00 L 867.00 228.00 L 873.00 179.00 L 887.00 161.00 L 895.00 167.00 L 897.00 197.00 L 899.00 195.00 L 901.00 161.00 L 904.00 171.00 L 908.00 225.00 L 919.00 256.00 L 937.00 264.00 L 951.00 259.00 L 961.00 241.00 L 966.00 245.00 L 966.00 271.00 L 969.00 268.00 L 975.00 236.00 L 976.00 235.00 L 972.00 265.00 L 973.00 267.00 L 979.00 241.00 L 983.00 248.00 L 985.00 288.00 L 991.00 295.00 L 1001.00 269.00 L 1006.00 276.00 L 1006.00 316.00 L 1060.00 316.00 L 1168.00 276.00 L 1239.00 268.00 L 1273.00 292.00 L 1330.00 394.00 L 1410.00 574.00 L 1461.00 715.00 L 1483.00 817.00 L 1482.00 886.00 L 1458.00 922.00 L 1392.00 963.00 L 1284.00 1009.00 L 1223.00 1053.00 L 1209.00 1095.00 L 1194.00 1112.00 L 1178.00 1104.00 L 1179.00 1107.00 L 1197.00 1121.00 L 1196.00 1123.00 L 1176.00 1113.00 L 1174.00 1116.00 L 1190.00 1132.00 L 1190.00 1135.00 L 1174.00 1125.00 L 1169.00 1156.00 L 1175.00 1228.00 L 1192.00 1306.00 L 1220.00 1390.00 L 1178.00 1444.00 L 1066.00 1468.00 L 959.00 1505.00 L 857.00 1555.00 L 811.00 1520.00 L 821.00 1400.00 L 818.00 1402.00 L 802.00 1526.00 L 802.00 1518.00 L 818.00 1378.00 L 812.00 1381.00 L 784.00 1527.00 L 782.00 1523.00 L 806.00 1369.00 L 799.00 1372.00 L 761.00 1532.00 L 758.00 1529.00 L 790.00 1363.00 L 781.00 1369.00 L 731.00 1547.00 L 727.00 1545.00 L 769.00 1363.00 L 766.00 1365.00 L 718.00 1551.00 L 716.00 1553.00 L 760.00 1371.00 L 758.00 1372.00 L 710.00 1556.00 L 708.00 1559.00 L 752.00 1381.00 L 744.00 1385.00 L 684.00 1571.00 L 684.00 1562.00 L 744.00 1358.00 L 740.00 1360.00 L 672.00 1568.00 L 668.00 1573.00 L 728.00 1375.00 L 723.00 1379.00 L 653.00 1585.00 L 653.00 1582.00 L 723.00 1370.00 L 715.00 1376.00 L 629.00 1600.00 L 629.00 1592.00 L 715.00 1352.00 L 712.00 1354.00 L 620.00 1598.00 L 616.00 1605.00 L 700.00 1375.00 L 692.00 1380.00 L 592.00 1620.00 L 592.00 1613.00 L 692.00 1359.00 L 689.00 1360.00 L 583.00 1616.00 L 553.00 1686.00 L 599.00 1570.00 L 595.00 1573.00 L 541.00 1695.00 L 538.00 1697.00 L 586.00 1579.00 L 577.00 1585.00 L 511.00 1715.00 L 539.00 1643.00 L 661.00 1369.00 L 658.00 1370.00 L 530.00 1646.00 L 494.00 1723.00 L 550.00 1601.00 L 539.00 1610.00 L 461.00 1750.00 L 494.00 1673.00 L 638.00 1379.00 L 636.00 1377.00 L 488.00 1667.00 L 443.00 1752.00 L 501.00 1632.00 L 500.00 1628.00 L 440.00 1740.00 L 437.00 1742.00 L 491.00 1634.00 L 490.00 1628.00 L 434.00 1724.00 L 479.00 1636.00 L 625.00 1364.00 L 625.00 1361.00 L 479.00 1627.00 L 426.00 1720.00 L 466.00 1640.00 L 466.00 1634.00 L 426.00 1702.00 L 423.00 1705.00 L 457.00 1643.00 L 458.00 1637.00 L 426.00 1687.00 L 479.00 1591.00 L 617.00 1349.00 L 618.00 1345.00 L 482.00 1579.00 L 479.00 1578.00 L 609.00 1342.00 L 648.00 1212.00 L 596.00 1188.00 L 567.00 1122.00 L 561.00 1014.00 L 544.00 949.00 L 516.00 927.00 L 502.00 908.00 L 502.00 892.00 L 503.00 883.00 L 505.00 881.00 L 531.00 849.00 Z" fill="black" stroke="black" stroke-width="1"/>
</svg>