<?xml version="1.0" encoding="UTF-8"?>
<svg xmlns="http://www.w3.org/2000/svg" viewBox="197.00 101.00 1011.00 1764.00">
  <path d="M 379.00 988.00 L 397.00 952.00 L 405.00 929.00 L 403.00 919.00 L 344.00 797.00 L 228.00 563.00 L 207.00 420.00 L 281.00 368.00 L 400.00 294.00 L 564.00 198.00 L 668.00 140.00 L 712.00 120.00 L 740.00 111.00 L 752.00 113.00 L 800.00 173.00 L 884.00 291.00 L 952.00 393.00 L 1004.00 479.00 L 1036.00 522.00 L 1048.00 522.00 L 1059.00 529.00 L 1069.00 543.00 L 1091.00 556.00 L 1125.00 568.00 L 1123.00 597.00 L 1085.00 643.00 L 1088.00 645.00 L 1132.00 603.00 L 1133.00 606.00 L 1091.00 654.00 L 1094.00 656.00 L 1142.00 612.00 L 1144.00 615.00 L 1100.00 665.00 L 1103.00 667.00 L 1153.00 621.00 L 1157.00 620.00 L 1115.00 664.00 L 1117.00 665.00 L 1163.00 623.00 L 1159.00 627.00 L 1105.00 677.00 L 1107.00 679.00 L 1165.00 633.00 L 1165.00 636.00 L 1107.00 688.00 L 1109.00 690.00 L 1171.00 642.00 L 1172.00 644.00 L 1112.00 696.00 L 1114.00 698.00 L 1178.00 650.00 L 1181.00 650.00 L 1123.00 698.00 L 1091.00 725.00 L 1085.00 731.00 L 1109.00 713.00 L 1163.00 671.00 L 1163.00 674.00 L 1109.00 722.00 L 1117.00 719.00 L 1187.00 665.00 L 1192.00 664.00 L 1132.00 716.00 L 1134.00 719.00 L 1198.00 673.00 L 1194.00 677.00 L 1122.00 731.00 L 1122.00 734.00 L 1194.00 686.00 L 1194.00 688.00 L 1122.00 740.00 L 1081.00 777.00 L 1071.00 799.00 L 1083.00 846.00 L 1117.00 918.00 L 1128.00 960.00 L 1116.00 972.00 L 1099.00 981.00 L 1077.00 987.00 L 1064.00 1009.00 L 1060.00 1047.00 L 1051.00 1077.00 L 1037.00 1099.00 L 1034.00 1124.00 L 1042.00 1152.00 L 1039.00 1176.00 L 1025.00 1196.00 L 1016.00 1217.00 L 1012.00 1239.00 L 1003.00 1257.00 L 989.00 1271.00 L 988.00 1285.00 L 1000.00 1299.00 L 1002.00 1303.00 L 994.00 1297.00 L 993.00 1300.00 L 999.00 1312.00 L 994.00 1311.00 L 978.00 1297.00 L 986.00 1318.00 L 1018.00 1374.00 L 1022.00 1386.00 L 998.00 1354.00 L 1004.00 1363.00 L 1040.00 1413.00 L 1049.00 1427.00 L 1031.00 1405.00 L 1029.00 1407.00 L 1043.00 1433.00 L 1042.00 1442.00 L 1026.00 1434.00 L 1002.00 1408.00 L 970.00 1364.00 L 966.00 1361.00 L 990.00 1399.00 L 990.00 1402.00 L 966.00 1370.00 L 951.00 1358.00 L 945.00 1366.00 L 956.00 1395.00 L 984.00 1445.00 L 981.00 1440.00 L 947.00 1380.00 L 968.00 1422.00 L 1044.00 1566.00 L 1057.00 1593.00 L 1007.00 1503.00 L 1012.00 1518.00 L 1072.00 1638.00 L 1069.00 1636.00 L 1003.00 1512.00 L 1005.00 1518.00 L 1075.00 1654.00 L 1063.00 1632.00 L 969.00 1452.00 L 969.00 1456.00 L 1063.00 1644.00 L 1066.00 1652.00 L 978.00 1480.00 L 979.00 1483.00 L 1069.00 1661.00 L 1071.00 1666.00 L 985.00 1498.00 L 985.00 1503.00 L 1071.00 1681.00 L 1065.00 1671.00 L 967.00 1473.00 L 968.00 1476.00 L 1068.00 1680.00 L 1116.00 1792.00 L 1112.00 1812.00 L 1105.00 1828.00 L 1095.00 1840.00 L 1079.00 1849.00 L 1057.00 1855.00 L 1023.00 1842.00 L 977.00 1810.00 L 925.00 1779.00 L 867.00 1749.00 L 787.00 1715.00 L 685.00 1677.00 L 586.00 1650.00 L 490.00 1634.00 L 404.00 1626.00 L 328.00 1626.00 L 291.00 1606.00 L 293.00 1566.00 L 303.00 1525.00 L 321.00 1483.00 L 325.00 1467.00 L 315.00 1477.00 L 323.00 1456.00 L 349.00 1404.00 L 365.00 1359.00 L 371.00 1321.00 L 372.00 1288.00 L 368.00 1260.00 L 374.00 1218.00 L 390.00 1162.00 L 391.00 1136.00 L 377.00 1140.00 L 372.00 1140.00 L 376.00 1136.00 L 374.00 1134.00 L 366.00 1134.00 L 371.00 1131.00 L 389.00 1125.00 L 388.00 1123.00 L 368.00 1125.00 L 367.00 1123.00 L 385.00 1117.00 L 384.00 1116.00 L 364.00 1120.00 L 353.00 1119.00 L 351.00 1113.00 L 354.00 1086.00 L 362.00 1038.00 L 367.00 1012.00 L 369.00 1008.00 L 379.00 988.00 Z" fill="black" stroke="black" stroke-width="1"/>
</svg>