<?xml version="1.0" encoding="UTF-8"?>
<svg xmlns="http://www.w3.org/2000/svg" viewBox="358.00 238.00 994.00 1533.00">
  <path d="M 442.00 1023.00 L 442.00 1001.00 L 437.00 988.00 L 427.00 984.00 L 427.00 982.00 L 437.00 982.00 L 434.00 979.00 L 418.00 973.00 L 418.00 971.00 L 434.00 973.00 L 433.00 971.00 L 415.00 965.00 L 415.00 962.00 L 433.00 962.00 L 432.00 960.00 L 412.00 956.00 L 410.00 955.00 L 426.00 957.00 L 426.00 955.00 L 410.00 949.00 L 412.00 947.00 L 432.00 949.00 L 432.00 947.00 L 412.00 941.00 L 412.00 940.00 L 432.00 944.00 L 443.00 944.00 L 445.00 940.00 L 434.00 935.00 L 410.00 929.00 L 398.00 919.00 L 398.00 905.00 L 404.00 882.00 L 416.00 850.00 L 421.00 815.00 L 419.00 777.00 L 420.00 746.00 L 424.00 722.00 L 424.00 694.00 L 420.00 662.00 L 425.00 606.00 L 439.00 526.00 L 455.00 465.00 L 473.00 423.00 L 494.00 387.00 L 518.00 357.00 L 550.00 328.00 L 590.00 300.00 L 632.00 278.00 L 676.00 262.00 L 712.00 252.00 L 740.00 248.00 L 785.00 248.00 L 847.00 252.00 L 905.00 252.00 L 959.00 248.00 L 1004.00 252.00 L 1040.00 264.00 L 1075.00 282.00 L 1109.00 306.00 L 1137.00 330.00 L 1159.00 354.00 L 1171.00 370.00 L 1173.00 378.00 L 1175.00 381.00 L 1177.00 379.00 L 1181.00 381.00 L 1187.00 387.00 L 1195.00 399.00 L 1205.00 417.00 L 1211.00 436.00 L 1213.00 456.00 L 1222.00 484.00 L 1238.00 520.00 L 1247.00 548.00 L 1249.00 568.00 L 1255.00 589.00 L 1265.00 611.00 L 1271.00 631.00 L 1273.00 649.00 L 1272.00 674.00 L 1268.00 706.00 L 1285.00 762.00 L 1323.00 842.00 L 1342.00 886.00 L 1342.00 894.00 L 1338.00 903.00 L 1330.00 913.00 L 1310.00 924.00 L 1278.00 936.00 L 1262.00 957.00 L 1262.00 987.00 L 1259.00 1004.00 L 1253.00 1008.00 L 1250.00 1015.00 L 1250.00 1025.00 L 1246.00 1038.00 L 1238.00 1054.00 L 1235.00 1079.00 L 1237.00 1113.00 L 1235.00 1137.00 L 1229.00 1151.00 L 1221.00 1164.00 L 1211.00 1176.00 L 1187.00 1187.00 L 1149.00 1197.00 L 1135.00 1209.00 L 1145.00 1223.00 L 1143.00 1238.00 L 1129.00 1254.00 L 1161.00 1301.00 L 1239.00 1379.00 L 1239.00 1381.00 L 1161.00 1307.00 L 1154.00 1301.00 L 1218.00 1363.00 L 1219.00 1365.00 L 1157.00 1307.00 L 1162.00 1314.00 L 1234.00 1386.00 L 1260.00 1413.00 L 1240.00 1395.00 L 1238.00 1395.00 L 1254.00 1413.00 L 1235.00 1396.00 L 1181.00 1344.00 L 1178.00 1343.00 L 1226.00 1393.00 L 1223.00 1391.00 L 1169.00 1337.00 L 1167.00 1337.00 L 1217.00 1391.00 L 1211.00 1386.00 L 1149.00 1322.00 L 1146.00 1322.00 L 1202.00 1386.00 L 1211.00 1399.00 L 1173.00 1361.00 L 1170.00 1360.00 L 1202.00 1396.00 L 1191.00 1385.00 L 1137.00 1327.00 L 1134.00 1326.00 L 1182.00 1382.00 L 1182.00 1384.00 L 1134.00 1332.00 L 1129.00 1330.00 L 1167.00 1378.00 L 1168.00 1381.00 L 1132.00 1339.00 L 1129.00 1337.00 L 1159.00 1375.00 L 1162.00 1384.00 L 1138.00 1364.00 L 1130.00 1363.00 L 1138.00 1381.00 L 1136.00 1382.00 L 1124.00 1366.00 L 1142.00 1393.00 L 1190.00 1463.00 L 1190.00 1465.00 L 1142.00 1399.00 L 1144.00 1402.00 L 1196.00 1474.00 L 1197.00 1476.00 L 1147.00 1408.00 L 1148.00 1411.00 L 1200.00 1485.00 L 1227.00 1524.00 L 1229.00 1528.00 L 1211.00 1504.00 L 1173.00 1452.00 L 1174.00 1455.00 L 1214.00 1513.00 L 1220.00 1523.00 L 1192.00 1485.00 L 1193.00 1488.00 L 1223.00 1532.00 L 1221.00 1530.00 L 1187.00 1482.00 L 1188.00 1485.00 L 1224.00 1539.00 L 1220.00 1534.00 L 1176.00 1470.00 L 1185.00 1485.00 L 1247.00 1579.00 L 1248.00 1582.00 L 1188.00 1494.00 L 1190.00 1499.00 L 1254.00 1597.00 L 1291.00 1663.00 L 1301.00 1697.00 L 1305.00 1723.00 L 1303.00 1741.00 L 1298.00 1753.00 L 1290.00 1759.00 L 1278.00 1761.00 L 1262.00 1759.00 L 1237.00 1747.00 L 1203.00 1725.00 L 1156.00 1703.00 L 1096.00 1681.00 L 1050.00 1661.00 L 1018.00 1643.00 L 941.00 1614.00 L 819.00 1574.00 L 716.00 1548.00 L 632.00 1536.00 L 541.00 1533.00 L 443.00 1539.00 L 389.00 1533.00 L 379.00 1515.00 L 372.00 1486.00 L 368.00 1446.00 L 377.00 1392.00 L 399.00 1324.00 L 416.00 1259.00 L 428.00 1197.00 L 432.00 1154.00 L 428.00 1130.00 L 429.00 1101.00 L 435.00 1067.00 L 439.00 1046.00 L 441.00 1038.00 L 442.00 1023.00 Z" fill="black" stroke="black" stroke-width="1"/>
</svg>