<?xml version="1.0" encoding="UTF-8"?>
<svg xmlns="http://www.w3.org/2000/svg" viewBox="322.00 135.00 1124.00 1757.00">
  <path d="M 407.00 996.00 L 445.00 944.00 L 420.00 795.00 L 332.00 549.00 L 386.00 389.00 L 582.00 315.00 L 737.00 249.00 L 851.00 191.00 L 923.00 157.00 L 953.00 147.00 L 976.00 145.00 L 992.00 151.00 L 1025.00 199.00 L 1075.00 289.00 L 1126.00 392.00 L 1178.00 508.00 L 1209.00 571.00 L 1219.00 581.00 L 1240.00 591.00 L 1272.00 601.00 L 1270.00 627.00 L 1234.00 669.00 L 1237.00 670.00 L 1279.00 630.00 L 1302.00 611.00 L 1306.00 613.00 L 1285.00 637.00 L 1239.00 683.00 L 1242.00 684.00 L 1294.00 640.00 L 1295.00 642.00 L 1245.00 690.00 L 1248.00 691.00 L 1304.00 645.00 L 1305.00 647.00 L 1251.00 697.00 L 1254.00 698.00 L 1314.00 650.00 L 1314.00 653.00 L 1254.00 707.00 L 1257.00 709.00 L 1323.00 659.00 L 1339.00 648.00 L 1305.00 676.00 L 1308.00 677.00 L 1348.00 651.00 L 1333.00 667.00 L 1263.00 725.00 L 1266.00 727.00 L 1342.00 673.00 L 1342.00 676.00 L 1266.00 736.00 L 1269.00 738.00 L 1351.00 682.00 L 1348.00 686.00 L 1260.00 750.00 L 1262.00 751.00 L 1354.00 689.00 L 1354.00 691.00 L 1262.00 757.00 L 1264.00 759.00 L 1360.00 697.00 L 1360.00 699.00 L 1264.00 765.00 L 1267.00 767.00 L 1369.00 705.00 L 1369.00 708.00 L 1267.00 776.00 L 1269.00 778.00 L 1375.00 714.00 L 1418.00 689.00 L 1398.00 703.00 L 1401.00 706.00 L 1427.00 698.00 L 1385.00 726.00 L 1275.00 790.00 L 1268.00 795.00 L 1364.00 741.00 L 1420.00 712.00 L 1436.00 708.00 L 1389.00 737.00 L 1279.00 799.00 L 1237.00 846.00 L 1263.00 878.00 L 1280.00 907.00 L 1288.00 933.00 L 1289.00 951.00 L 1283.00 961.00 L 1269.00 972.00 L 1247.00 984.00 L 1237.00 1008.00 L 1239.00 1044.00 L 1234.00 1079.00 L 1222.00 1113.00 L 1219.00 1142.00 L 1225.00 1166.00 L 1226.00 1192.00 L 1222.00 1220.00 L 1214.00 1240.00 L 1202.00 1252.00 L 1181.00 1262.00 L 1151.00 1270.00 L 1142.00 1283.00 L 1154.00 1301.00 L 1152.00 1303.00 L 1136.00 1289.00 L 1136.00 1291.00 L 1152.00 1309.00 L 1150.00 1332.00 L 1130.00 1360.00 L 1142.00 1409.00 L 1186.00 1479.00 L 1184.00 1481.00 L 1136.00 1415.00 L 1133.00 1415.00 L 1175.00 1481.00 L 1173.00 1484.00 L 1127.00 1424.00 L 1124.00 1424.00 L 1164.00 1484.00 L 1164.00 1487.00 L 1124.00 1433.00 L 1120.00 1432.00 L 1152.00 1484.00 L 1153.00 1487.00 L 1123.00 1441.00 L 1120.00 1440.00 L 1144.00 1484.00 L 1142.00 1495.00 L 1114.00 1473.00 L 1120.00 1504.00 L 1160.00 1588.00 L 1159.00 1591.00 L 1117.00 1513.00 L 1123.00 1527.00 L 1177.00 1633.00 L 1177.00 1635.00 L 1123.00 1533.00 L 1121.00 1530.00 L 1171.00 1626.00 L 1181.00 1647.00 L 1151.00 1593.00 L 1154.00 1601.00 L 1190.00 1671.00 L 1183.00 1658.00 L 1133.00 1562.00 L 1139.00 1576.00 L 1201.00 1700.00 L 1228.00 1756.00 L 1220.00 1744.00 L 1221.00 1752.00 L 1231.00 1780.00 L 1198.00 1717.00 L 1122.00 1563.00 L 1122.00 1566.00 L 1198.00 1726.00 L 1234.00 1822.00 L 1230.00 1854.00 L 1221.00 1874.00 L 1207.00 1882.00 L 1188.00 1882.00 L 1164.00 1874.00 L 1127.00 1852.00 L 1077.00 1816.00 L 1017.00 1780.00 L 947.00 1744.00 L 859.00 1706.00 L 753.00 1666.00 L 649.00 1635.00 L 547.00 1613.00 L 464.00 1601.00 L 400.00 1599.00 L 366.00 1589.00 L 362.00 1571.00 L 375.00 1502.00 L 405.00 1382.00 L 423.00 1278.00 L 429.00 1190.00 L 410.00 1151.00 L 366.00 1161.00 L 368.00 1158.00 L 416.00 1142.00 L 413.00 1140.00 L 359.00 1152.00 L 360.00 1150.00 L 416.00 1134.00 L 415.00 1132.00 L 357.00 1144.00 L 357.00 1142.00 L 415.00 1126.00 L 416.00 1123.00 L 360.00 1133.00 L 334.00 1129.00 L 338.00 1111.00 L 350.00 1085.00 L 370.00 1051.00 L 382.00 1031.00 L 386.00 1025.00 L 407.00 996.00 Z" fill="black" stroke="black" stroke-width="1"/>
</svg>