<?xml version="1.0" encoding="UTF-8"?>
<svg xmlns="http://www.w3.org/2000/svg" viewBox="312.00 193.00 1029.00 1634.00">
  <path d="M 458.00 987.00 L 434.00 957.00 L 422.00 926.00 L 422.00 894.00 L 411.00 873.00 L 389.00 863.00 L 381.00 859.00 L 387.00 861.00 L 382.00 853.00 L 366.00 835.00 L 385.00 789.00 L 439.00 715.00 L 466.00 662.00 L 466.00 630.00 L 457.00 601.00 L 439.00 575.00 L 439.00 572.00 L 457.00 592.00 L 457.00 589.00 L 439.00 563.00 L 439.00 560.00 L 457.00 580.00 L 459.00 577.00 L 445.00 551.00 L 446.00 548.00 L 462.00 568.00 L 464.00 565.00 L 452.00 539.00 L 454.00 534.00 L 470.00 550.00 L 472.00 547.00 L 460.00 525.00 L 461.00 523.00 L 475.00 541.00 L 477.00 539.00 L 467.00 517.00 L 468.00 515.00 L 480.00 533.00 L 482.00 530.00 L 474.00 506.00 L 476.00 501.00 L 488.00 515.00 L 491.00 512.00 L 485.00 492.00 L 487.00 488.00 L 497.00 500.00 L 499.00 493.00 L 493.00 467.00 L 493.00 459.00 L 499.00 469.00 L 500.00 466.00 L 496.00 450.00 L 499.00 452.00 L 509.00 472.00 L 510.00 469.00 L 502.00 443.00 L 503.00 439.00 L 513.00 457.00 L 515.00 454.00 L 509.00 430.00 L 511.00 427.00 L 521.00 445.00 L 522.00 442.00 L 514.00 418.00 L 516.00 414.00 L 528.00 430.00 L 530.00 427.00 L 522.00 405.00 L 524.00 401.00 L 536.00 415.00 L 540.00 411.00 L 536.00 389.00 L 579.00 345.00 L 669.00 279.00 L 756.00 234.00 L 840.00 210.00 L 937.00 203.00 L 1047.00 213.00 L 1135.00 239.00 L 1201.00 281.00 L 1253.00 330.00 L 1291.00 386.00 L 1317.00 462.00 L 1331.00 558.00 L 1327.00 638.00 L 1305.00 702.00 L 1273.00 763.00 L 1231.00 821.00 L 1208.00 874.00 L 1204.00 922.00 L 1207.00 966.00 L 1217.00 1006.00 L 1207.00 1027.00 L 1177.00 1029.00 L 1177.00 1033.00 L 1207.00 1039.00 L 1208.00 1042.00 L 1180.00 1042.00 L 1179.00 1046.00 L 1205.00 1054.00 L 1206.00 1057.00 L 1182.00 1055.00 L 1180.00 1058.00 L 1200.00 1066.00 L 1200.00 1071.00 L 1180.00 1073.00 L 1175.00 1112.00 L 1185.00 1188.00 L 1184.00 1231.00 L 1172.00 1241.00 L 1172.00 1269.00 L 1184.00 1315.00 L 1189.00 1371.00 L 1187.00 1437.00 L 1190.00 1483.00 L 1198.00 1509.00 L 1140.00 1514.00 L 1016.00 1498.00 L 914.00 1499.00 L 834.00 1517.00 L 723.00 1566.00 L 581.00 1646.00 L 469.00 1719.00 L 387.00 1785.00 L 338.00 1817.00 L 322.00 1815.00 L 376.00 1696.00 L 500.00 1460.00 L 496.00 1456.00 L 364.00 1684.00 L 353.00 1701.00 L 463.00 1507.00 L 462.00 1504.00 L 350.00 1692.00 L 347.00 1694.00 L 453.00 1510.00 L 452.00 1507.00 L 344.00 1685.00 L 356.00 1664.00 L 488.00 1444.00 L 488.00 1442.00 L 356.00 1658.00 L 340.00 1681.00 L 440.00 1511.00 L 439.00 1507.00 L 337.00 1669.00 L 334.00 1673.00 L 430.00 1519.00 L 430.00 1516.00 L 334.00 1664.00 L 330.00 1668.00 L 418.00 1528.00 L 419.00 1524.00 L 333.00 1656.00 L 330.00 1659.00 L 410.00 1533.00 L 410.00 1530.00 L 330.00 1650.00 L 355.00 1611.00 L 485.00 1413.00 L 485.00 1410.00 L 355.00 1602.00 L 354.00 1600.00 L 482.00 1404.00 L 487.00 1391.00 L 369.00 1561.00 L 330.00 1615.00 L 370.00 1553.00 L 373.00 1546.00 L 339.00 1594.00 L 337.00 1596.00 L 367.00 1552.00 L 368.00 1549.00 L 340.00 1587.00 L 335.00 1593.00 L 353.00 1567.00 L 354.00 1565.00 L 338.00 1587.00 L 332.00 1594.00 L 336.00 1586.00 L 389.00 1511.00 L 491.00 1369.00 L 535.00 1304.00 L 521.00 1316.00 L 516.00 1310.00 L 520.00 1286.00 L 501.00 1285.00 L 459.00 1307.00 L 458.00 1297.00 L 498.00 1255.00 L 491.00 1257.00 L 437.00 1303.00 L 437.00 1300.00 L 491.00 1248.00 L 488.00 1249.00 L 428.00 1303.00 L 419.00 1310.00 L 461.00 1270.00 L 456.00 1270.00 L 404.00 1310.00 L 412.00 1300.00 L 480.00 1240.00 L 497.00 1178.00 L 463.00 1114.00 L 453.00 1065.00 L 467.00 1031.00 L 473.00 1011.00 L 471.00 1005.00 L 458.00 987.00 Z" fill="black" stroke="black" stroke-width="1"/>
</svg>