<?xml version="1.0" encoding="UTF-8"?>
<svg xmlns="http://www.w3.org/2000/svg" viewBox="489.00 134.00 957.00 1698.00">
  <path d="M 607.00 1008.00 L 609.00 996.00 L 617.00 983.00 L 631.00 969.00 L 637.00 959.00 L 635.00 953.00 L 629.00 948.00 L 619.00 944.00 L 613.00 940.00 L 611.00 936.00 L 609.00 920.00 L 607.00 892.00 L 588.00 839.00 L 552.00 761.00 L 528.00 703.00 L 516.00 665.00 L 507.00 627.00 L 501.00 589.00 L 499.00 550.00 L 501.00 510.00 L 504.00 482.00 L 508.00 466.00 L 515.00 443.00 L 525.00 413.00 L 537.00 384.00 L 551.00 356.00 L 569.00 326.00 L 591.00 294.00 L 611.00 269.00 L 629.00 251.00 L 652.00 232.00 L 680.00 212.00 L 696.00 202.00 L 700.00 202.00 L 706.00 198.00 L 714.00 190.00 L 727.00 184.00 L 745.00 180.00 L 764.00 173.00 L 784.00 163.00 L 808.00 154.00 L 836.00 146.00 L 856.00 144.00 L 868.00 148.00 L 894.00 152.00 L 934.00 156.00 L 967.00 164.00 L 993.00 176.00 L 1012.00 183.00 L 1024.00 185.00 L 1038.00 193.00 L 1054.00 207.00 L 1071.00 218.00 L 1089.00 226.00 L 1107.00 240.00 L 1125.00 260.00 L 1153.00 285.00 L 1191.00 315.00 L 1218.00 339.00 L 1234.00 357.00 L 1245.00 372.00 L 1251.00 384.00 L 1253.00 397.00 L 1251.00 411.00 L 1251.00 416.00 L 1253.00 412.00 L 1254.00 415.00 L 1254.00 425.00 L 1264.00 449.00 L 1284.00 487.00 L 1303.00 533.00 L 1321.00 587.00 L 1331.00 618.00 L 1333.00 626.00 L 1333.00 647.00 L 1331.00 681.00 L 1333.00 704.00 L 1339.00 716.00 L 1364.00 747.00 L 1408.00 797.00 L 1432.00 827.00 L 1436.00 837.00 L 1436.00 850.00 L 1432.00 866.00 L 1417.00 879.00 L 1391.00 889.00 L 1389.00 891.00 L 1411.00 885.00 L 1414.00 885.00 L 1398.00 891.00 L 1397.00 892.00 L 1411.00 888.00 L 1406.00 890.00 L 1382.00 898.00 L 1369.00 904.00 L 1367.00 908.00 L 1366.00 915.00 L 1366.00 925.00 L 1369.00 940.00 L 1375.00 960.00 L 1373.00 975.00 L 1363.00 985.00 L 1361.00 994.00 L 1367.00 1002.00 L 1370.00 1008.00 L 1370.00 1012.00 L 1363.00 1026.00 L 1349.00 1050.00 L 1344.00 1069.00 L 1348.00 1083.00 L 1350.00 1099.00 L 1350.00 1117.00 L 1348.00 1131.00 L 1344.00 1141.00 L 1332.00 1154.00 L 1312.00 1170.00 L 1301.00 1185.00 L 1299.00 1199.00 L 1286.00 1213.00 L 1262.00 1227.00 L 1247.00 1239.00 L 1241.00 1249.00 L 1238.00 1258.00 L 1238.00 1266.00 L 1234.00 1277.00 L 1226.00 1291.00 L 1221.00 1304.00 L 1219.00 1316.00 L 1218.00 1329.00 L 1218.00 1343.00 L 1233.00 1374.00 L 1263.00 1422.00 L 1266.00 1430.00 L 1242.00 1398.00 L 1234.00 1388.00 L 1242.00 1400.00 L 1243.00 1403.00 L 1237.00 1397.00 L 1245.00 1410.00 L 1267.00 1442.00 L 1280.00 1466.00 L 1284.00 1482.00 L 1292.00 1500.00 L 1304.00 1520.00 L 1306.00 1524.00 L 1298.00 1512.00 L 1313.00 1537.00 L 1351.00 1599.00 L 1362.00 1618.00 L 1346.00 1594.00 L 1347.00 1596.00 L 1365.00 1624.00 L 1364.00 1623.00 L 1344.00 1593.00 L 1345.00 1595.00 L 1367.00 1629.00 L 1374.00 1640.00 L 1366.00 1628.00 L 1367.00 1630.00 L 1377.00 1646.00 L 1388.00 1668.00 L 1400.00 1696.00 L 1408.00 1719.00 L 1412.00 1737.00 L 1413.00 1745.00 L 1411.00 1743.00 L 1411.00 1750.00 L 1413.00 1766.00 L 1412.00 1781.00 L 1408.00 1795.00 L 1402.00 1806.00 L 1394.00 1814.00 L 1387.00 1819.00 L 1381.00 1821.00 L 1373.00 1822.00 L 1363.00 1822.00 L 1352.00 1820.00 L 1340.00 1816.00 L 1310.00 1797.00 L 1262.00 1763.00 L 1217.00 1734.00 L 1175.00 1710.00 L 1125.00 1685.00 L 1067.00 1659.00 L 1011.00 1637.00 L 957.00 1619.00 L 898.00 1604.00 L 834.00 1592.00 L 777.00 1584.00 L 727.00 1580.00 L 686.00 1578.00 L 654.00 1578.00 L 620.00 1580.00 L 584.00 1584.00 L 558.00 1578.00 L 542.00 1562.00 L 532.00 1548.00 L 528.00 1536.00 L 526.00 1522.00 L 526.00 1506.00 L 528.00 1487.00 L 532.00 1465.00 L 542.00 1431.00 L 558.00 1385.00 L 566.00 1351.00 L 566.00 1329.00 L 572.00 1304.00 L 584.00 1276.00 L 587.00 1253.00 L 581.00 1235.00 L 584.00 1195.00 L 596.00 1133.00 L 603.00 1083.00 L 605.00 1045.00 L 606.00 1023.00 L 606.00 1017.00 L 607.00 1008.00 Z" fill="black" stroke="black" stroke-width="1"/>
</svg>