<?xml version="1.0" encoding="UTF-8"?>
<svg xmlns="http://www.w3.org/2000/svg" viewBox="382.00 172.00 1043.00 1637.00">
  <path d="M 518.00 990.00 L 510.00 974.00 L 508.00 959.00 L 512.00 945.00 L 509.00 930.00 L 499.00 914.00 L 494.00 891.00 L 494.00 861.00 L 479.00 838.00 L 449.00 822.00 L 447.00 819.00 L 473.00 829.00 L 470.00 827.00 L 438.00 813.00 L 419.00 803.00 L 413.00 797.00 L 409.00 789.00 L 407.00 779.00 L 437.00 733.00 L 499.00 651.00 L 529.00 592.00 L 527.00 556.00 L 538.00 505.00 L 562.00 439.00 L 572.00 397.00 L 568.00 379.00 L 570.00 377.00 L 578.00 391.00 L 579.00 390.00 L 573.00 374.00 L 574.00 371.00 L 582.00 381.00 L 583.00 379.00 L 577.00 365.00 L 575.00 356.00 L 577.00 352.00 L 582.00 357.00 L 590.00 371.00 L 591.00 368.00 L 585.00 348.00 L 586.00 346.00 L 594.00 362.00 L 597.00 366.00 L 595.00 358.00 L 597.00 355.00 L 603.00 357.00 L 603.00 350.00 L 597.00 334.00 L 596.00 330.00 L 600.00 338.00 L 604.00 341.00 L 608.00 339.00 L 608.00 333.00 L 604.00 323.00 L 605.00 325.00 L 611.00 339.00 L 614.00 337.00 L 614.00 319.00 L 625.00 298.00 L 647.00 274.00 L 671.00 254.00 L 697.00 238.00 L 737.00 221.00 L 791.00 203.00 L 829.00 194.00 L 851.00 194.00 L 875.00 191.00 L 901.00 185.00 L 960.00 182.00 L 1052.00 182.00 L 1128.00 192.00 L 1188.00 212.00 L 1245.00 243.00 L 1299.00 285.00 L 1335.00 317.00 L 1353.00 339.00 L 1368.00 362.00 L 1380.00 386.00 L 1394.00 433.00 L 1410.00 503.00 L 1415.00 561.00 L 1409.00 607.00 L 1399.00 651.00 L 1385.00 693.00 L 1366.00 740.00 L 1342.00 792.00 L 1327.00 837.00 L 1321.00 875.00 L 1310.00 898.00 L 1294.00 906.00 L 1293.00 909.00 L 1307.00 907.00 L 1306.00 910.00 L 1290.00 918.00 L 1289.00 942.00 L 1303.00 982.00 L 1311.00 1027.00 L 1313.00 1077.00 L 1317.00 1115.00 L 1323.00 1141.00 L 1326.00 1163.00 L 1326.00 1181.00 L 1324.00 1195.00 L 1320.00 1205.00 L 1324.00 1230.00 L 1336.00 1270.00 L 1349.00 1305.00 L 1363.00 1335.00 L 1375.00 1372.00 L 1385.00 1416.00 L 1389.00 1472.00 L 1387.00 1540.00 L 1383.00 1582.00 L 1377.00 1598.00 L 1354.00 1604.00 L 1314.00 1600.00 L 1257.00 1598.00 L 1183.00 1598.00 L 1095.00 1604.00 L 993.00 1616.00 L 910.00 1629.00 L 846.00 1643.00 L 779.00 1661.00 L 709.00 1683.00 L 642.00 1708.00 L 578.00 1736.00 L 536.00 1759.00 L 516.00 1777.00 L 505.00 1784.00 L 503.00 1780.00 L 490.00 1784.00 L 466.00 1796.00 L 445.00 1799.00 L 427.00 1793.00 L 414.00 1792.00 L 406.00 1796.00 L 400.00 1796.00 L 396.00 1792.00 L 395.00 1786.00 L 397.00 1778.00 L 396.00 1776.00 L 392.00 1780.00 L 392.00 1777.00 L 396.00 1767.00 L 397.00 1754.00 L 395.00 1738.00 L 459.00 1633.00 L 589.00 1439.00 L 588.00 1437.00 L 456.00 1627.00 L 456.00 1626.00 L 588.00 1434.00 L 588.00 1431.00 L 456.00 1617.00 L 453.00 1620.00 L 579.00 1440.00 L 580.00 1438.00 L 456.00 1614.00 L 394.00 1699.00 L 394.00 1693.00 L 458.00 1600.00 L 586.00 1420.00 L 587.00 1417.00 L 461.00 1591.00 L 456.00 1597.00 L 572.00 1435.00 L 572.00 1432.00 L 456.00 1588.00 L 451.00 1593.00 L 557.00 1447.00 L 559.00 1441.00 L 457.00 1575.00 L 407.00 1640.00 L 409.00 1636.00 L 469.00 1555.00 L 587.00 1397.00 L 588.00 1394.00 L 472.00 1546.00 L 443.00 1583.00 L 501.00 1505.00 L 505.00 1498.00 L 455.00 1562.00 L 453.00 1564.00 L 499.00 1504.00 L 500.00 1502.00 L 456.00 1558.00 L 454.00 1560.00 L 494.00 1508.00 L 496.00 1505.00 L 460.00 1551.00 L 492.00 1507.00 L 592.00 1373.00 L 644.00 1299.00 L 648.00 1285.00 L 646.00 1266.00 L 638.00 1242.00 L 615.00 1210.00 L 577.00 1170.00 L 559.00 1147.00 L 561.00 1141.00 L 556.00 1130.00 L 544.00 1114.00 L 536.00 1099.00 L 532.00 1085.00 L 531.00 1064.00 L 533.00 1036.00 L 532.00 1017.00 L 528.00 1007.00 L 525.00 1001.00 L 523.00 999.00 L 518.00 990.00 Z" fill="black" stroke="black" stroke-width="1"/>
</svg>