<?xml version="1.0" encoding="UTF-8"?>
<svg xmlns="http://www.w3.org/2000/svg" viewBox="367.00 294.00 868.00 1529.00">
  <path d="M 414.00 1029.00 L 454.00 1027.00 L 454.00 1025.00 L 414.00 1023.00 L 412.00 1022.00 L 448.00 1022.00 L 448.00 1020.00 L 412.00 1016.00 L 415.00 1014.00 L 457.00 1014.00 L 457.00 1011.00 L 415.00 1005.00 L 415.00 1003.00 L 457.00 1005.00 L 457.00 1003.00 L 415.00 997.00 L 415.00 994.00 L 457.00 994.00 L 458.00 991.00 L 418.00 985.00 L 398.00 980.00 L 398.00 976.00 L 418.00 977.00 L 458.00 983.00 L 479.00 984.00 L 481.00 980.00 L 461.00 974.00 L 419.00 966.00 L 421.00 965.00 L 467.00 971.00 L 467.00 968.00 L 421.00 956.00 L 398.00 913.00 L 398.00 839.00 L 402.00 770.00 L 410.00 706.00 L 414.00 638.00 L 414.00 566.00 L 422.00 509.00 L 438.00 467.00 L 461.00 427.00 L 491.00 389.00 L 521.00 361.00 L 551.00 343.00 L 588.00 328.00 L 632.00 316.00 L 693.00 308.00 L 771.00 304.00 L 850.00 310.00 L 930.00 326.00 L 982.00 340.00 L 1006.00 352.00 L 1034.00 372.00 L 1066.00 400.00 L 1083.00 423.00 L 1085.00 441.00 L 1092.00 459.00 L 1104.00 477.00 L 1115.00 504.00 L 1125.00 540.00 L 1137.00 573.00 L 1151.00 603.00 L 1153.00 643.00 L 1143.00 693.00 L 1158.00 745.00 L 1198.00 799.00 L 1220.00 832.00 L 1224.00 844.00 L 1225.00 852.00 L 1223.00 856.00 L 1208.00 864.00 L 1180.00 876.00 L 1179.00 878.00 L 1205.00 870.00 L 1210.00 869.00 L 1194.00 875.00 L 1193.00 876.00 L 1207.00 872.00 L 1203.00 876.00 L 1181.00 888.00 L 1172.00 905.00 L 1176.00 927.00 L 1174.00 943.00 L 1166.00 953.00 L 1162.00 965.00 L 1162.00 979.00 L 1158.00 992.00 L 1150.00 1004.00 L 1149.00 1020.00 L 1155.00 1040.00 L 1157.00 1062.00 L 1155.00 1086.00 L 1145.00 1106.00 L 1127.00 1122.00 L 1111.00 1131.00 L 1097.00 1133.00 L 1081.00 1162.00 L 1063.00 1218.00 L 1047.00 1260.00 L 1033.00 1288.00 L 1039.00 1322.00 L 1065.00 1362.00 L 1080.00 1391.00 L 1084.00 1409.00 L 1083.00 1427.00 L 1077.00 1445.00 L 1081.00 1468.00 L 1095.00 1496.00 L 1112.00 1540.00 L 1132.00 1600.00 L 1142.00 1656.00 L 1142.00 1708.00 L 1137.00 1752.00 L 1127.00 1788.00 L 1119.00 1808.00 L 1113.00 1812.00 L 1107.00 1813.00 L 1101.00 1811.00 L 1063.00 1781.00 L 993.00 1723.00 L 912.00 1663.00 L 820.00 1601.00 L 728.00 1546.00 L 636.00 1498.00 L 575.00 1468.00 L 545.00 1456.00 L 514.00 1447.00 L 482.00 1441.00 L 456.00 1430.00 L 436.00 1414.00 L 425.00 1391.00 L 423.00 1361.00 L 431.00 1315.00 L 449.00 1253.00 L 446.00 1228.00 L 422.00 1240.00 L 422.00 1238.00 L 446.00 1222.00 L 444.00 1222.00 L 416.00 1238.00 L 405.00 1242.00 L 411.00 1234.00 L 408.00 1233.00 L 396.00 1239.00 L 406.00 1232.00 L 438.00 1212.00 L 438.00 1209.00 L 406.00 1223.00 L 405.00 1221.00 L 435.00 1203.00 L 435.00 1201.00 L 405.00 1215.00 L 390.00 1220.00 L 390.00 1216.00 L 405.00 1206.00 L 435.00 1190.00 L 435.00 1188.00 L 405.00 1200.00 L 397.00 1201.00 L 411.00 1191.00 L 411.00 1189.00 L 397.00 1195.00 L 405.00 1191.00 L 435.00 1177.00 L 435.00 1174.00 L 405.00 1182.00 L 406.00 1179.00 L 438.00 1165.00 L 438.00 1162.00 L 406.00 1170.00 L 406.00 1167.00 L 438.00 1153.00 L 438.00 1151.00 L 406.00 1161.00 L 407.00 1159.00 L 441.00 1145.00 L 440.00 1142.00 L 404.00 1150.00 L 404.00 1147.00 L 440.00 1133.00 L 438.00 1132.00 L 398.00 1144.00 L 390.00 1145.00 L 414.00 1135.00 L 413.00 1133.00 L 387.00 1139.00 L 396.00 1135.00 L 440.00 1121.00 L 441.00 1119.00 L 399.00 1129.00 L 399.00 1127.00 L 441.00 1113.00 L 441.00 1110.00 L 399.00 1118.00 L 400.00 1115.00 L 444.00 1101.00 L 444.00 1098.00 L 400.00 1106.00 L 393.00 1106.00 L 423.00 1098.00 L 424.00 1096.00 L 396.00 1100.00 L 403.00 1098.00 L 445.00 1090.00 L 441.00 1087.00 L 391.00 1089.00 L 392.00 1086.00 L 444.00 1078.00 L 447.00 1077.00 L 401.00 1083.00 L 401.00 1081.00 L 447.00 1071.00 L 441.00 1069.00 L 383.00 1075.00 L 383.00 1074.00 L 441.00 1066.00 L 439.00 1063.00 L 377.00 1065.00 L 378.00 1062.00 L 442.00 1054.00 L 444.00 1051.00 L 384.00 1053.00 L 384.00 1051.00 L 444.00 1045.00 L 454.00 1042.00 L 414.00 1042.00 L 414.00 1040.00 L 454.00 1036.00 L 471.00 1034.00 L 465.00 1034.00 L 445.00 1033.00 L 411.00 1031.00 L 414.00 1029.00 Z" fill="black" stroke="black" stroke-width="1"/>
</svg>