<?xml version="1.0" encoding="UTF-8"?>
<svg xmlns="http://www.w3.org/2000/svg" viewBox="354.00 296.00 936.00 1506.00">
  <path d="M 487.00 1004.00 L 485.00 964.00 L 472.00 934.00 L 448.00 914.00 L 434.00 899.00 L 430.00 889.00 L 435.00 870.00 L 449.00 842.00 L 473.00 809.00 L 507.00 771.00 L 523.00 740.00 L 521.00 716.00 L 512.00 691.00 L 496.00 665.00 L 496.00 662.00 L 512.00 682.00 L 513.00 679.00 L 499.00 653.00 L 500.00 651.00 L 516.00 673.00 L 517.00 670.00 L 503.00 642.00 L 504.00 638.00 L 520.00 658.00 L 522.00 656.00 L 510.00 632.00 L 512.00 629.00 L 528.00 647.00 L 530.00 643.00 L 518.00 617.00 L 520.00 613.00 L 536.00 631.00 L 537.00 625.00 L 523.00 595.00 L 524.00 591.00 L 540.00 613.00 L 541.00 611.00 L 527.00 585.00 L 527.00 583.00 L 541.00 605.00 L 541.00 603.00 L 527.00 577.00 L 524.00 571.00 L 532.00 585.00 L 533.00 582.00 L 527.00 562.00 L 531.00 565.00 L 545.00 591.00 L 547.00 589.00 L 537.00 559.00 L 538.00 555.00 L 550.00 577.00 L 552.00 575.00 L 544.00 549.00 L 546.00 546.00 L 558.00 566.00 L 559.00 564.00 L 549.00 540.00 L 550.00 538.00 L 562.00 558.00 L 563.00 551.00 L 553.00 517.00 L 554.00 514.00 L 566.00 542.00 L 566.00 540.00 L 554.00 508.00 L 555.00 506.00 L 569.00 534.00 L 570.00 530.00 L 558.00 494.00 L 559.00 493.00 L 573.00 527.00 L 574.00 525.00 L 562.00 487.00 L 563.00 484.00 L 577.00 516.00 L 579.00 513.00 L 569.00 475.00 L 590.00 432.00 L 642.00 384.00 L 713.00 346.00 L 803.00 318.00 L 865.00 306.00 L 899.00 310.00 L 926.00 310.00 L 946.00 306.00 L 978.00 310.00 L 1022.00 322.00 L 1070.00 341.00 L 1122.00 367.00 L 1165.00 399.00 L 1199.00 437.00 L 1219.00 471.00 L 1225.00 501.00 L 1237.00 533.00 L 1255.00 567.00 L 1268.00 609.00 L 1276.00 659.00 L 1280.00 711.00 L 1280.00 765.00 L 1279.00 809.00 L 1277.00 843.00 L 1271.00 869.00 L 1261.00 887.00 L 1254.00 910.00 L 1250.00 938.00 L 1230.00 975.00 L 1194.00 1021.00 L 1165.00 1047.00 L 1143.00 1053.00 L 1139.00 1097.00 L 1153.00 1179.00 L 1160.00 1228.00 L 1160.00 1244.00 L 1157.00 1256.00 L 1151.00 1264.00 L 1151.00 1308.00 L 1157.00 1388.00 L 1153.00 1436.00 L 1139.00 1452.00 L 1123.00 1463.00 L 1105.00 1469.00 L 1045.00 1478.00 L 943.00 1490.00 L 843.00 1514.00 L 745.00 1550.00 L 671.00 1584.00 L 621.00 1616.00 L 559.00 1669.00 L 485.00 1743.00 L 431.00 1784.00 L 397.00 1792.00 L 433.00 1689.00 L 539.00 1475.00 L 536.00 1473.00 L 424.00 1683.00 L 418.00 1690.00 L 518.00 1494.00 L 514.00 1490.00 L 406.00 1678.00 L 410.00 1667.00 L 526.00 1457.00 L 525.00 1456.00 L 407.00 1664.00 L 398.00 1679.00 L 498.00 1501.00 L 496.00 1498.00 L 392.00 1670.00 L 389.00 1671.00 L 487.00 1501.00 L 487.00 1496.00 L 389.00 1656.00 L 399.00 1638.00 L 517.00 1442.00 L 516.00 1439.00 L 396.00 1629.00 L 391.00 1634.00 L 501.00 1454.00 L 501.00 1451.00 L 391.00 1625.00 L 388.00 1629.00 L 492.00 1463.00 L 493.00 1460.00 L 391.00 1620.00 L 385.00 1628.00 L 475.00 1484.00 L 475.00 1481.00 L 385.00 1619.00 L 382.00 1622.00 L 466.00 1490.00 L 466.00 1488.00 L 382.00 1616.00 L 364.00 1643.00 L 412.00 1569.00 L 413.00 1567.00 L 367.00 1637.00 L 401.00 1585.00 L 515.00 1411.00 L 516.00 1408.00 L 404.00 1576.00 L 404.00 1574.00 L 516.00 1402.00 L 523.00 1387.00 L 425.00 1529.00 L 425.00 1527.00 L 523.00 1381.00 L 551.00 1338.00 L 509.00 1398.00 L 504.00 1404.00 L 536.00 1356.00 L 534.00 1354.00 L 498.00 1398.00 L 501.00 1390.00 L 543.00 1330.00 L 543.00 1328.00 L 501.00 1384.00 L 500.00 1381.00 L 540.00 1319.00 L 550.00 1270.00 L 530.00 1234.00 L 523.00 1211.00 L 529.00 1201.00 L 525.00 1187.00 L 511.00 1169.00 L 506.00 1145.00 L 510.00 1115.00 L 505.00 1088.00 L 491.00 1064.00 L 484.00 1046.00 L 484.00 1034.00 L 485.00 1027.00 L 487.00 1025.00 L 487.00 1004.00 Z" fill="black" stroke="black" stroke-width="1"/>
</svg>