<?xml version="1.0" encoding="UTF-8"?>
<svg xmlns="http://www.w3.org/2000/svg" viewBox="242.00 285.00 890.00 1411.00">
  <path d="M 384.00 990.00 L 388.00 990.00 L 385.00 987.00 L 375.00 981.00 L 370.00 951.00 L 370.00 897.00 L 345.00 829.00 L 295.00 747.00 L 265.00 685.00 L 255.00 643.00 L 252.00 599.00 L 256.00 553.00 L 262.00 517.00 L 270.00 491.00 L 286.00 459.00 L 310.00 421.00 L 342.00 386.00 L 382.00 354.00 L 434.00 327.00 L 498.00 305.00 L 568.00 295.00 L 644.00 297.00 L 688.00 301.00 L 700.00 307.00 L 717.00 311.00 L 739.00 313.00 L 769.00 322.00 L 807.00 338.00 L 843.00 356.00 L 877.00 376.00 L 895.00 385.00 L 897.00 383.00 L 905.00 391.00 L 919.00 409.00 L 925.00 426.00 L 923.00 442.00 L 925.00 444.00 L 931.00 432.00 L 933.00 434.00 L 931.00 450.00 L 933.00 452.00 L 939.00 440.00 L 940.00 442.00 L 936.00 458.00 L 937.00 459.00 L 943.00 445.00 L 944.00 447.00 L 940.00 465.00 L 941.00 467.00 L 947.00 453.00 L 947.00 454.00 L 941.00 470.00 L 942.00 471.00 L 950.00 457.00 L 951.00 458.00 L 945.00 474.00 L 945.00 476.00 L 951.00 464.00 L 952.00 467.00 L 948.00 485.00 L 950.00 488.00 L 958.00 476.00 L 959.00 478.00 L 953.00 494.00 L 954.00 496.00 L 962.00 484.00 L 963.00 488.00 L 957.00 508.00 L 958.00 510.00 L 966.00 494.00 L 967.00 499.00 L 961.00 525.00 L 964.00 528.00 L 976.00 508.00 L 977.00 510.00 L 967.00 534.00 L 968.00 536.00 L 980.00 516.00 L 981.00 519.00 L 971.00 545.00 L 972.00 549.00 L 984.00 531.00 L 985.00 534.00 L 975.00 558.00 L 976.00 562.00 L 988.00 546.00 L 989.00 548.00 L 979.00 568.00 L 978.00 591.00 L 986.00 617.00 L 990.00 642.00 L 990.00 666.00 L 1004.00 701.00 L 1032.00 747.00 L 1049.00 779.00 L 1055.00 797.00 L 1057.00 811.00 L 1055.00 821.00 L 1041.00 833.00 L 1015.00 847.00 L 1013.00 849.00 L 1035.00 839.00 L 1034.00 840.00 L 1010.00 852.00 L 1009.00 853.00 L 1031.00 843.00 L 1030.00 846.00 L 1006.00 862.00 L 997.00 880.00 L 1003.00 900.00 L 1003.00 914.00 L 997.00 922.00 L 995.00 930.00 L 997.00 938.00 L 994.00 952.00 L 986.00 972.00 L 986.00 990.00 L 994.00 1006.00 L 998.00 1019.00 L 998.00 1029.00 L 996.00 1039.00 L 992.00 1049.00 L 981.00 1063.00 L 963.00 1081.00 L 958.00 1093.00 L 966.00 1099.00 L 970.00 1105.00 L 970.00 1111.00 L 962.00 1127.00 L 946.00 1153.00 L 945.00 1174.00 L 959.00 1190.00 L 957.00 1191.00 L 939.00 1177.00 L 941.00 1180.00 L 963.00 1200.00 L 963.00 1202.00 L 941.00 1186.00 L 940.00 1188.00 L 960.00 1208.00 L 961.00 1212.00 L 943.00 1200.00 L 942.00 1202.00 L 958.00 1218.00 L 956.00 1217.00 L 936.00 1199.00 L 935.00 1200.00 L 953.00 1220.00 L 952.00 1222.00 L 932.00 1206.00 L 929.00 1207.00 L 943.00 1225.00 L 947.00 1232.00 L 941.00 1228.00 L 935.00 1232.00 L 929.00 1244.00 L 923.00 1249.00 L 917.00 1247.00 L 914.00 1252.00 L 914.00 1264.00 L 943.00 1314.00 L 1001.00 1402.00 L 1010.00 1418.00 L 970.00 1362.00 L 971.00 1365.00 L 1013.00 1427.00 L 1012.00 1426.00 L 968.00 1362.00 L 969.00 1364.00 L 1015.00 1432.00 L 1006.00 1419.00 L 942.00 1325.00 L 956.00 1346.00 L 1048.00 1482.00 L 1055.00 1493.00 L 977.00 1379.00 L 982.00 1390.00 L 1070.00 1526.00 L 1062.00 1516.00 L 958.00 1360.00 L 959.00 1363.00 L 1065.00 1525.00 L 1117.00 1605.00 L 1115.00 1603.00 L 1116.00 1607.00 L 1120.00 1617.00 L 1072.00 1545.00 L 972.00 1391.00 L 972.00 1395.00 L 1072.00 1557.00 L 1067.00 1551.00 L 957.00 1377.00 L 957.00 1380.00 L 1067.00 1560.00 L 1122.00 1652.00 L 1122.00 1656.00 L 1068.00 1570.00 L 960.00 1394.00 L 959.00 1396.00 L 1065.00 1576.00 L 1063.00 1574.00 L 953.00 1390.00 L 952.00 1392.00 L 1060.00 1580.00 L 1111.00 1677.00 L 1105.00 1683.00 L 1097.00 1686.00 L 1087.00 1686.00 L 1041.00 1662.00 L 959.00 1614.00 L 873.00 1574.00 L 783.00 1542.00 L 694.00 1520.00 L 606.00 1508.00 L 508.00 1502.00 L 400.00 1502.00 L 344.00 1494.00 L 340.00 1478.00 L 341.00 1448.00 L 347.00 1404.00 L 349.00 1372.00 L 347.00 1352.00 L 349.00 1329.00 L 355.00 1303.00 L 358.00 1280.00 L 358.00 1260.00 L 361.00 1243.00 L 367.00 1229.00 L 368.00 1216.00 L 364.00 1204.00 L 368.00 1167.00 L 380.00 1105.00 L 386.00 1055.00 L 386.00 1017.00 L 385.00 996.00 L 383.00 992.00 L 384.00 990.00 Z" fill="black" stroke="black" stroke-width="1"/>
</svg>