<?xml version="1.0" encoding="UTF-8"?>
<svg xmlns="http://www.w3.org/2000/svg" viewBox="320.00 336.00 819.00 1263.00">
  <path d="M 480.00 974.00 L 484.00 966.00 L 481.00 960.00 L 471.00 956.00 L 470.00 954.00 L 478.00 954.00 L 477.00 953.00 L 467.00 951.00 L 467.00 950.00 L 477.00 950.00 L 476.00 949.00 L 464.00 947.00 L 463.00 945.00 L 473.00 943.00 L 472.00 940.00 L 460.00 936.00 L 452.00 926.00 L 448.00 910.00 L 424.00 870.00 L 380.00 806.00 L 351.00 757.00 L 337.00 723.00 L 330.00 689.00 L 330.00 655.00 L 332.00 626.00 L 336.00 602.00 L 347.00 569.00 L 365.00 527.00 L 384.00 492.00 L 404.00 464.00 L 426.00 438.00 L 450.00 414.00 L 476.00 394.00 L 504.00 378.00 L 537.00 364.00 L 575.00 352.00 L 607.00 346.00 L 633.00 346.00 L 647.00 347.00 L 649.00 349.00 L 665.00 350.00 L 695.00 350.00 L 715.00 352.00 L 725.00 356.00 L 738.00 358.00 L 754.00 358.00 L 775.00 361.00 L 801.00 367.00 L 824.00 377.00 L 844.00 391.00 L 865.00 403.00 L 887.00 413.00 L 913.00 430.00 L 943.00 454.00 L 962.00 470.00 L 970.00 478.00 L 980.00 493.00 L 992.00 515.00 L 1003.00 531.00 L 1013.00 541.00 L 1020.00 551.00 L 1024.00 561.00 L 1027.00 572.00 L 1029.00 584.00 L 1028.00 595.00 L 1024.00 605.00 L 1025.00 606.00 L 1031.00 598.00 L 1032.00 600.00 L 1028.00 612.00 L 1027.00 635.00 L 1029.00 669.00 L 1031.00 687.00 L 1033.00 689.00 L 1033.00 708.00 L 1031.00 744.00 L 1033.00 772.00 L 1039.00 792.00 L 1048.00 809.00 L 1060.00 823.00 L 1070.00 838.00 L 1078.00 854.00 L 1080.00 869.00 L 1076.00 883.00 L 1067.00 894.00 L 1053.00 902.00 L 1045.00 908.00 L 1043.00 912.00 L 1042.00 920.00 L 1042.00 932.00 L 1045.00 946.00 L 1051.00 962.00 L 1050.00 974.00 L 1042.00 982.00 L 1040.00 991.00 L 1044.00 1001.00 L 1045.00 1009.00 L 1043.00 1015.00 L 1035.00 1027.00 L 1021.00 1045.00 L 1014.00 1066.00 L 1014.00 1090.00 L 1012.00 1106.00 L 1008.00 1114.00 L 1001.00 1122.00 L 991.00 1130.00 L 987.00 1137.00 L 989.00 1143.00 L 987.00 1144.00 L 981.00 1140.00 L 983.00 1143.00 L 993.00 1153.00 L 997.00 1162.00 L 995.00 1170.00 L 990.00 1179.00 L 982.00 1189.00 L 987.00 1204.00 L 1005.00 1224.00 L 1009.00 1231.00 L 999.00 1225.00 L 999.00 1228.00 L 1009.00 1240.00 L 1004.00 1236.00 L 984.00 1216.00 L 983.00 1217.00 L 1001.00 1239.00 L 1000.00 1241.00 L 980.00 1223.00 L 986.00 1235.00 L 1018.00 1277.00 L 1025.00 1288.00 L 1007.00 1268.00 L 1008.00 1270.00 L 1028.00 1294.00 L 1036.00 1306.00 L 1032.00 1306.00 L 1031.00 1308.00 L 1033.00 1312.00 L 1033.00 1315.00 L 1031.00 1317.00 L 1028.00 1318.00 L 1024.00 1318.00 L 1020.00 1316.00 L 1016.00 1312.00 L 1028.00 1329.00 L 1056.00 1367.00 L 1055.00 1367.00 L 1025.00 1329.00 L 1026.00 1331.00 L 1058.00 1373.00 L 1057.00 1372.00 L 1023.00 1328.00 L 1024.00 1330.00 L 1060.00 1378.00 L 1061.00 1380.00 L 1027.00 1336.00 L 1028.00 1339.00 L 1064.00 1389.00 L 1066.00 1393.00 L 1034.00 1351.00 L 1035.00 1353.00 L 1069.00 1399.00 L 1070.00 1401.00 L 1038.00 1359.00 L 1047.00 1373.00 L 1097.00 1443.00 L 1113.00 1466.00 L 1095.00 1442.00 L 1094.00 1441.00 L 1110.00 1463.00 L 1112.00 1466.00 L 1100.00 1450.00 L 1103.00 1457.00 L 1121.00 1487.00 L 1129.00 1501.00 L 1127.00 1499.00 L 1127.00 1508.00 L 1129.00 1528.00 L 1129.00 1542.00 L 1127.00 1550.00 L 1123.00 1558.00 L 1117.00 1566.00 L 1109.00 1574.00 L 1099.00 1582.00 L 1088.00 1587.00 L 1076.00 1589.00 L 1061.00 1587.00 L 1043.00 1581.00 L 1016.00 1567.00 L 980.00 1545.00 L 935.00 1521.00 L 881.00 1495.00 L 833.00 1475.00 L 791.00 1461.00 L 737.00 1447.00 L 671.00 1433.00 L 611.00 1424.00 L 557.00 1420.00 L 517.00 1413.00 L 491.00 1403.00 L 473.00 1391.00 L 463.00 1377.00 L 455.00 1362.00 L 449.00 1346.00 L 446.00 1328.00 L 446.00 1308.00 L 450.00 1288.00 L 458.00 1268.00 L 462.00 1252.00 L 462.00 1240.00 L 465.00 1222.00 L 471.00 1198.00 L 474.00 1181.00 L 474.00 1171.00 L 471.00 1159.00 L 465.00 1145.00 L 463.00 1107.00 L 465.00 1045.00 L 468.00 1007.00 L 472.00 993.00 L 475.00 984.00 L 477.00 980.00 L 480.00 974.00 Z" fill="black" stroke="black" stroke-width="1"/>
</svg>