<?xml version="1.0" encoding="UTF-8"?>
<svg xmlns="http://www.w3.org/2000/svg" viewBox="170.00 42.00 1111.00 1764.00">
  <path d="M 311.00 908.00 L 345.00 872.00 L 342.00 798.00 L 302.00 686.00 L 258.00 579.00 L 210.00 477.00 L 184.00 420.00 L 180.00 408.00 L 180.00 397.00 L 184.00 387.00 L 220.00 355.00 L 288.00 301.00 L 375.00 246.00 L 481.00 190.00 L 590.00 138.00 L 702.00 90.00 L 771.00 62.00 L 797.00 54.00 L 822.00 52.00 L 846.00 56.00 L 888.00 107.00 L 948.00 205.00 L 1006.00 328.00 L 1062.00 476.00 L 1127.00 569.00 L 1201.00 607.00 L 1212.00 644.00 L 1160.00 680.00 L 1165.00 683.00 L 1227.00 653.00 L 1228.00 656.00 L 1168.00 692.00 L 1171.00 694.00 L 1237.00 662.00 L 1232.00 667.00 L 1156.00 709.00 L 1142.00 720.00 L 1190.00 700.00 L 1190.00 702.00 L 1142.00 726.00 L 1159.00 718.00 L 1241.00 678.00 L 1268.00 666.00 L 1240.00 682.00 L 1241.00 685.00 L 1271.00 675.00 L 1243.00 692.00 L 1157.00 736.00 L 1157.00 739.00 L 1243.00 701.00 L 1243.00 704.00 L 1157.00 748.00 L 1117.00 769.00 L 1123.00 767.00 L 1123.00 770.00 L 1117.00 778.00 L 1116.00 789.00 L 1120.00 803.00 L 1137.00 839.00 L 1167.00 897.00 L 1170.00 941.00 L 1146.00 971.00 L 1135.00 1007.00 L 1137.00 1049.00 L 1128.00 1081.00 L 1108.00 1103.00 L 1099.00 1128.00 L 1101.00 1156.00 L 1079.00 1195.00 L 1033.00 1245.00 L 1013.00 1279.00 L 1019.00 1297.00 L 1016.00 1299.00 L 1004.00 1285.00 L 1005.00 1287.00 L 1019.00 1305.00 L 1019.00 1308.00 L 1005.00 1296.00 L 1010.00 1316.00 L 1034.00 1368.00 L 1044.00 1392.00 L 1040.00 1388.00 L 1041.00 1391.00 L 1047.00 1401.00 L 1044.00 1398.00 L 1032.00 1382.00 L 1033.00 1385.00 L 1047.00 1407.00 L 1053.00 1421.00 L 1051.00 1427.00 L 1034.00 1408.00 L 1002.00 1364.00 L 996.00 1360.00 L 1016.00 1396.00 L 1014.00 1396.00 L 990.00 1360.00 L 988.00 1358.00 L 1008.00 1390.00 L 1011.00 1395.00 L 997.00 1373.00 L 995.00 1371.00 L 1005.00 1389.00 L 996.00 1383.00 L 968.00 1353.00 L 955.00 1343.00 L 957.00 1353.00 L 956.00 1356.00 L 952.00 1352.00 L 948.00 1355.00 L 944.00 1365.00 L 959.00 1409.00 L 993.00 1487.00 L 992.00 1489.00 L 956.00 1415.00 L 953.00 1409.00 L 983.00 1471.00 L 986.00 1479.00 L 962.00 1433.00 L 966.00 1445.00 L 998.00 1515.00 L 995.00 1512.00 L 957.00 1436.00 L 957.00 1440.00 L 995.00 1524.00 L 993.00 1521.00 L 951.00 1431.00 L 963.00 1462.00 L 1029.00 1614.00 L 1063.00 1704.00 L 1065.00 1732.00 L 1061.00 1756.00 L 1051.00 1776.00 L 1039.00 1789.00 L 1025.00 1795.00 L 1008.00 1796.00 L 988.00 1792.00 L 944.00 1757.00 L 876.00 1691.00 L 799.00 1631.00 L 713.00 1577.00 L 600.00 1527.00 L 460.00 1481.00 L 389.00 1444.00 L 387.00 1416.00 L 399.00 1370.00 L 425.00 1306.00 L 439.00 1265.00 L 441.00 1247.00 L 439.00 1231.00 L 433.00 1217.00 L 415.00 1221.00 L 385.00 1243.00 L 386.00 1237.00 L 418.00 1203.00 L 415.00 1201.00 L 377.00 1231.00 L 378.00 1228.00 L 418.00 1192.00 L 417.00 1189.00 L 375.00 1219.00 L 376.00 1213.00 L 420.00 1171.00 L 420.00 1166.00 L 376.00 1198.00 L 376.00 1195.00 L 420.00 1157.00 L 422.00 1152.00 L 382.00 1180.00 L 383.00 1177.00 L 425.00 1143.00 L 429.00 1137.00 L 395.00 1159.00 L 395.00 1157.00 L 429.00 1131.00 L 431.00 1127.00 L 401.00 1145.00 L 400.00 1143.00 L 428.00 1121.00 L 428.00 1118.00 L 400.00 1134.00 L 401.00 1131.00 L 431.00 1109.00 L 433.00 1105.00 L 407.00 1119.00 L 407.00 1116.00 L 433.00 1096.00 L 433.00 1093.00 L 407.00 1107.00 L 400.00 1091.00 L 412.00 1045.00 L 383.00 1032.00 L 313.00 1052.00 L 274.00 1062.00 L 266.00 1062.00 L 271.00 1058.00 L 289.00 1050.00 L 286.00 1048.00 L 262.00 1052.00 L 292.00 1043.00 L 376.00 1021.00 L 376.00 1020.00 L 292.00 1040.00 L 268.00 1045.00 L 304.00 1035.00 L 303.00 1033.00 L 265.00 1039.00 L 289.00 1031.00 L 375.00 1009.00 L 374.00 1007.00 L 286.00 1025.00 L 268.00 1028.00 L 320.00 1016.00 L 320.00 1013.00 L 268.00 1019.00 L 286.00 1013.00 L 374.00 995.00 L 375.00 992.00 L 289.00 1004.00 L 288.00 1002.00 L 372.00 986.00 L 372.00 984.00 L 288.00 996.00 L 285.00 996.00 L 363.00 984.00 L 364.00 982.00 L 288.00 990.00 L 258.00 980.00 L 274.00 952.00 L 285.00 935.00 L 291.00 929.00 L 311.00 908.00 Z" fill="black" stroke="black" stroke-width="1"/>
</svg>