<?xml version="1.0" encoding="UTF-8"?>
<svg xmlns="http://www.w3.org/2000/svg" viewBox="223.00 117.00 1070.00 1689.00">
  <path d="M 429.00 969.00 L 443.00 935.00 L 448.00 910.00 L 444.00 894.00 L 422.00 841.00 L 382.00 751.00 L 341.00 667.00 L 299.00 589.00 L 265.00 530.00 L 239.00 490.00 L 233.00 462.00 L 247.00 446.00 L 274.00 422.00 L 314.00 390.00 L 363.00 354.00 L 421.00 314.00 L 509.00 258.00 L 627.00 186.00 L 696.00 145.00 L 716.00 135.00 L 735.00 129.00 L 753.00 127.00 L 775.00 137.00 L 801.00 159.00 L 853.00 225.00 L 931.00 335.00 L 981.00 408.00 L 1003.00 444.00 L 1031.00 498.00 L 1065.00 570.00 L 1090.00 610.00 L 1106.00 618.00 L 1122.00 623.00 L 1138.00 625.00 L 1129.00 644.00 L 1095.00 680.00 L 1097.00 681.00 L 1135.00 647.00 L 1136.00 650.00 L 1100.00 690.00 L 1103.00 691.00 L 1145.00 653.00 L 1146.00 654.00 L 1106.00 694.00 L 1109.00 695.00 L 1155.00 657.00 L 1156.00 660.00 L 1112.00 704.00 L 1114.00 705.00 L 1162.00 663.00 L 1171.00 656.00 L 1141.00 684.00 L 1144.00 685.00 L 1180.00 659.00 L 1172.00 669.00 L 1120.00 715.00 L 1123.00 716.00 L 1181.00 672.00 L 1182.00 675.00 L 1126.00 725.00 L 1130.00 726.00 L 1194.00 678.00 L 1195.00 680.00 L 1133.00 732.00 L 1138.00 733.00 L 1210.00 683.00 L 1211.00 685.00 L 1141.00 739.00 L 1143.00 740.00 L 1217.00 688.00 L 1240.00 673.00 L 1212.00 695.00 L 1215.00 696.00 L 1249.00 676.00 L 1225.00 694.00 L 1143.00 750.00 L 1145.00 751.00 L 1231.00 697.00 L 1231.00 699.00 L 1145.00 757.00 L 1147.00 758.00 L 1237.00 702.00 L 1237.00 705.00 L 1147.00 767.00 L 1149.00 770.00 L 1243.00 714.00 L 1283.00 692.00 L 1269.00 704.00 L 1267.00 708.00 L 1277.00 704.00 L 1280.00 704.00 L 1276.00 708.00 L 1231.00 735.00 L 1145.00 785.00 L 1116.00 828.00 L 1144.00 864.00 L 1168.00 900.00 L 1188.00 936.00 L 1195.00 961.00 L 1189.00 975.00 L 1175.00 988.00 L 1153.00 1000.00 L 1143.00 1018.00 L 1145.00 1042.00 L 1143.00 1060.00 L 1137.00 1072.00 L 1134.00 1083.00 L 1134.00 1093.00 L 1126.00 1110.00 L 1110.00 1134.00 L 1104.00 1161.00 L 1108.00 1191.00 L 1104.00 1217.00 L 1092.00 1239.00 L 1087.00 1256.00 L 1089.00 1268.00 L 1078.00 1284.00 L 1054.00 1304.00 L 1048.00 1328.00 L 1060.00 1356.00 L 1057.00 1358.00 L 1039.00 1334.00 L 1054.00 1359.00 L 1102.00 1433.00 L 1101.00 1436.00 L 1051.00 1368.00 L 1049.00 1370.00 L 1095.00 1442.00 L 1111.00 1474.00 L 1097.00 1466.00 L 1074.00 1444.00 L 1042.00 1408.00 L 1029.00 1396.00 L 1035.00 1408.00 L 1033.00 1406.00 L 1023.00 1390.00 L 1023.00 1392.00 L 1033.00 1412.00 L 1033.00 1415.00 L 1023.00 1401.00 L 1023.00 1415.00 L 1033.00 1457.00 L 1059.00 1520.00 L 1101.00 1604.00 L 1094.00 1591.00 L 1038.00 1481.00 L 1039.00 1484.00 L 1097.00 1600.00 L 1123.00 1653.00 L 1117.00 1643.00 L 1118.00 1646.00 L 1126.00 1662.00 L 1109.00 1628.00 L 1067.00 1544.00 L 1070.00 1553.00 L 1118.00 1655.00 L 1108.00 1638.00 L 1040.00 1502.00 L 1040.00 1507.00 L 1108.00 1653.00 L 1107.00 1654.00 L 1037.00 1510.00 L 1037.00 1513.00 L 1107.00 1663.00 L 1109.00 1668.00 L 1043.00 1528.00 L 1043.00 1531.00 L 1109.00 1677.00 L 1107.00 1675.00 L 1037.00 1525.00 L 1036.00 1528.00 L 1104.00 1684.00 L 1135.00 1768.00 L 1129.00 1780.00 L 1121.00 1789.00 L 1111.00 1795.00 L 1099.00 1796.00 L 1085.00 1792.00 L 1066.00 1777.00 L 1042.00 1751.00 L 1007.00 1719.00 L 961.00 1681.00 L 915.00 1648.00 L 869.00 1620.00 L 825.00 1596.00 L 783.00 1576.00 L 718.00 1550.00 L 630.00 1518.00 L 569.00 1498.00 L 535.00 1490.00 L 488.00 1483.00 L 428.00 1477.00 L 394.00 1465.00 L 386.00 1447.00 L 382.00 1427.00 L 382.00 1405.00 L 394.00 1371.00 L 418.00 1325.00 L 432.00 1293.00 L 436.00 1275.00 L 437.00 1256.00 L 435.00 1236.00 L 440.00 1209.00 L 452.00 1175.00 L 447.00 1160.00 L 425.00 1164.00 L 426.00 1160.00 L 450.00 1148.00 L 447.00 1148.00 L 417.00 1160.00 L 409.00 1162.00 L 423.00 1154.00 L 421.00 1153.00 L 403.00 1159.00 L 412.00 1154.00 L 448.00 1138.00 L 447.00 1136.00 L 409.00 1148.00 L 409.00 1146.00 L 447.00 1130.00 L 447.00 1128.00 L 409.00 1140.00 L 410.00 1137.00 L 450.00 1119.00 L 450.00 1117.00 L 410.00 1131.00 L 411.00 1128.00 L 453.00 1108.00 L 453.00 1105.00 L 411.00 1119.00 L 411.00 1117.00 L 453.00 1099.00 L 454.00 1096.00 L 414.00 1108.00 L 400.00 1083.00 L 412.00 1021.00 L 419.00 989.00 L 421.00 987.00 L 429.00 969.00 Z" fill="black" stroke="black" stroke-width="1"/>
</svg>