<?xml version="1.0" encoding="UTF-8"?>
<svg xmlns="http://www.w3.org/2000/svg" viewBox="314.00 257.00 930.00 1467.00">
  <path d="M 418.00 981.00 L 410.00 951.00 L 409.00 932.00 L 415.00 924.00 L 415.00 915.00 L 409.00 905.00 L 407.00 889.00 L 409.00 867.00 L 404.00 850.00 L 392.00 838.00 L 391.00 834.00 L 401.00 838.00 L 397.00 834.00 L 379.00 822.00 L 368.00 806.00 L 364.00 786.00 L 388.00 749.00 L 440.00 695.00 L 471.00 630.00 L 481.00 554.00 L 482.00 505.00 L 474.00 483.00 L 475.00 481.00 L 485.00 499.00 L 487.00 501.00 L 481.00 487.00 L 483.00 486.00 L 493.00 498.00 L 493.00 494.00 L 483.00 474.00 L 484.00 473.00 L 496.00 491.00 L 497.00 489.00 L 487.00 467.00 L 486.00 464.00 L 494.00 480.00 L 495.00 478.00 L 489.00 458.00 L 490.00 456.00 L 498.00 472.00 L 500.00 470.00 L 496.00 450.00 L 498.00 446.00 L 506.00 458.00 L 507.00 456.00 L 501.00 440.00 L 502.00 437.00 L 510.00 447.00 L 511.00 444.00 L 505.00 428.00 L 506.00 427.00 L 514.00 441.00 L 517.00 438.00 L 515.00 418.00 L 530.00 392.00 L 562.00 360.00 L 591.00 336.00 L 617.00 320.00 L 656.00 303.00 L 708.00 285.00 L 773.00 273.00 L 851.00 267.00 L 915.00 268.00 L 965.00 276.00 L 1001.00 289.00 L 1023.00 307.00 L 1036.00 313.00 L 1040.00 307.00 L 1045.00 305.00 L 1051.00 307.00 L 1062.00 313.00 L 1078.00 323.00 L 1085.00 331.00 L 1083.00 337.00 L 1085.00 338.00 L 1091.00 334.00 L 1112.00 348.00 L 1148.00 380.00 L 1180.00 419.00 L 1208.00 465.00 L 1226.00 513.00 L 1234.00 563.00 L 1224.00 621.00 L 1196.00 687.00 L 1174.00 768.00 L 1158.00 864.00 L 1138.00 917.00 L 1114.00 927.00 L 1113.00 930.00 L 1135.00 926.00 L 1135.00 928.00 L 1113.00 936.00 L 1110.00 940.00 L 1126.00 940.00 L 1126.00 943.00 L 1110.00 949.00 L 1109.00 964.00 L 1123.00 988.00 L 1136.00 1029.00 L 1148.00 1087.00 L 1150.00 1141.00 L 1142.00 1191.00 L 1146.00 1243.00 L 1162.00 1297.00 L 1169.00 1339.00 L 1167.00 1369.00 L 1164.00 1383.00 L 1160.00 1381.00 L 1156.00 1390.00 L 1152.00 1410.00 L 1147.00 1419.00 L 1141.00 1417.00 L 1132.00 1426.00 L 1120.00 1446.00 L 1095.00 1462.00 L 1057.00 1474.00 L 1030.00 1480.00 L 1014.00 1480.00 L 1004.00 1477.00 L 1000.00 1471.00 L 998.00 1471.00 L 998.00 1477.00 L 907.00 1505.00 L 725.00 1555.00 L 558.00 1615.00 L 406.00 1685.00 L 328.00 1714.00 L 324.00 1702.00 L 325.00 1682.00 L 331.00 1654.00 L 331.00 1644.00 L 325.00 1652.00 L 329.00 1639.00 L 343.00 1605.00 L 370.00 1556.00 L 410.00 1492.00 L 414.00 1483.00 L 382.00 1529.00 L 383.00 1526.00 L 417.00 1474.00 L 422.00 1465.00 L 398.00 1499.00 L 398.00 1497.00 L 422.00 1459.00 L 434.00 1434.00 L 434.00 1422.00 L 454.00 1389.00 L 494.00 1335.00 L 495.00 1332.00 L 457.00 1380.00 L 458.00 1377.00 L 498.00 1323.00 L 498.00 1321.00 L 458.00 1371.00 L 457.00 1369.00 L 495.00 1315.00 L 497.00 1309.00 L 463.00 1351.00 L 465.00 1342.00 L 503.00 1282.00 L 497.00 1269.00 L 447.00 1303.00 L 444.00 1297.00 L 488.00 1251.00 L 486.00 1250.00 L 438.00 1294.00 L 439.00 1289.00 L 489.00 1235.00 L 497.00 1223.00 L 463.00 1253.00 L 463.00 1251.00 L 497.00 1217.00 L 501.00 1211.00 L 475.00 1233.00 L 474.00 1230.00 L 498.00 1202.00 L 508.00 1177.00 L 504.00 1155.00 L 498.00 1141.00 L 490.00 1135.00 L 489.00 1126.00 L 495.00 1114.00 L 481.00 1100.00 L 447.00 1084.00 L 426.00 1068.00 L 418.00 1052.00 L 416.00 1034.00 L 420.00 1014.00 L 422.00 1002.00 L 422.00 998.00 L 418.00 981.00 Z" fill="black" stroke="black" stroke-width="1"/>
</svg>