<?xml version="1.0" encoding="UTF-8"?>
<svg xmlns="http://www.w3.org/2000/svg" viewBox="345.00 302.00 848.00 1382.00">
  <path d="M 395.00 960.00 L 397.00 936.00 L 405.00 909.00 L 419.00 879.00 L 424.00 862.00 L 420.00 858.00 L 416.00 833.00 L 412.00 787.00 L 400.00 739.00 L 380.00 689.00 L 369.00 646.00 L 367.00 610.00 L 371.00 573.00 L 381.00 535.00 L 399.00 497.00 L 425.00 459.00 L 454.00 425.00 L 486.00 395.00 L 520.00 369.00 L 556.00 347.00 L 576.00 333.00 L 580.00 327.00 L 588.00 324.00 L 600.00 324.00 L 612.00 321.00 L 624.00 315.00 L 662.00 312.00 L 726.00 312.00 L 775.00 315.00 L 809.00 321.00 L 844.00 330.00 L 880.00 342.00 L 913.00 358.00 L 943.00 378.00 L 963.00 393.00 L 973.00 403.00 L 977.00 415.00 L 975.00 429.00 L 976.00 430.00 L 980.00 418.00 L 981.00 419.00 L 979.00 433.00 L 980.00 434.00 L 984.00 422.00 L 986.00 421.00 L 986.00 431.00 L 988.00 433.00 L 992.00 427.00 L 994.00 430.00 L 994.00 442.00 L 996.00 444.00 L 1000.00 436.00 L 1002.00 439.00 L 1002.00 453.00 L 1004.00 455.00 L 1008.00 445.00 L 1009.00 446.00 L 1007.00 458.00 L 1018.00 484.00 L 1042.00 524.00 L 1056.00 550.00 L 1060.00 562.00 L 1060.00 580.00 L 1056.00 604.00 L 1055.00 615.00 L 1057.00 613.00 L 1060.00 620.00 L 1064.00 636.00 L 1082.00 660.00 L 1114.00 692.00 L 1138.00 723.00 L 1154.00 753.00 L 1149.00 778.00 L 1123.00 798.00 L 1123.00 801.00 L 1149.00 787.00 L 1148.00 788.00 L 1120.00 804.00 L 1120.00 806.00 L 1148.00 794.00 L 1147.00 796.00 L 1117.00 812.00 L 1116.00 814.00 L 1144.00 802.00 L 1144.00 805.00 L 1116.00 823.00 L 1103.00 841.00 L 1105.00 859.00 L 1103.00 873.00 L 1097.00 883.00 L 1095.00 893.00 L 1097.00 903.00 L 1095.00 916.00 L 1089.00 932.00 L 1092.00 947.00 L 1104.00 961.00 L 1110.00 977.00 L 1110.00 995.00 L 1107.00 1009.00 L 1101.00 1019.00 L 1076.00 1039.00 L 1032.00 1069.00 L 1017.00 1089.00 L 1031.00 1099.00 L 1030.00 1100.00 L 1014.00 1092.00 L 1014.00 1094.00 L 1030.00 1106.00 L 1034.00 1124.00 L 1026.00 1148.00 L 1022.00 1163.00 L 1022.00 1169.00 L 1027.00 1178.00 L 1037.00 1190.00 L 1037.00 1192.00 L 1027.00 1184.00 L 1028.00 1186.00 L 1040.00 1198.00 L 1043.00 1204.00 L 1037.00 1204.00 L 1035.00 1205.00 L 1037.00 1207.00 L 1035.00 1206.00 L 1029.00 1202.00 L 1029.00 1206.00 L 1035.00 1218.00 L 1038.00 1231.00 L 1038.00 1245.00 L 1050.00 1269.00 L 1074.00 1303.00 L 1073.00 1305.00 L 1047.00 1275.00 L 1048.00 1277.00 L 1076.00 1311.00 L 1078.00 1315.00 L 1054.00 1289.00 L 1055.00 1293.00 L 1081.00 1327.00 L 1079.00 1326.00 L 1049.00 1290.00 L 1059.00 1306.00 L 1109.00 1374.00 L 1124.00 1396.00 L 1104.00 1372.00 L 1106.00 1376.00 L 1130.00 1408.00 L 1141.00 1423.00 L 1139.00 1421.00 L 1146.00 1439.00 L 1162.00 1477.00 L 1169.00 1495.00 L 1167.00 1493.00 L 1171.00 1520.00 L 1181.00 1576.00 L 1183.00 1620.00 L 1177.00 1652.00 L 1166.00 1670.00 L 1150.00 1674.00 L 1133.00 1665.00 L 1115.00 1643.00 L 1079.00 1615.00 L 1025.00 1581.00 L 977.00 1552.00 L 935.00 1528.00 L 874.00 1499.00 L 794.00 1465.00 L 709.00 1434.00 L 619.00 1406.00 L 552.00 1387.00 L 508.00 1377.00 L 466.00 1370.00 L 426.00 1366.00 L 400.00 1361.00 L 388.00 1355.00 L 379.00 1349.00 L 373.00 1343.00 L 367.00 1331.00 L 361.00 1313.00 L 357.00 1287.00 L 355.00 1253.00 L 365.00 1195.00 L 387.00 1113.00 L 396.00 1067.00 L 392.00 1057.00 L 391.00 1034.00 L 393.00 998.00 L 394.00 978.00 L 394.00 974.00 L 395.00 960.00 Z" fill="black" stroke="black" stroke-width="1"/>
</svg>