<?xml version="1.0" encoding="UTF-8"?>
<svg xmlns="http://www.w3.org/2000/svg" viewBox="301.00 320.00 777.00 1375.00">
  <path d="M 394.00 979.00 L 354.00 925.00 L 328.00 878.00 L 316.00 838.00 L 311.00 778.00 L 313.00 698.00 L 330.00 621.00 L 362.00 547.00 L 387.00 499.00 L 405.00 477.00 L 430.00 462.00 L 462.00 454.00 L 475.00 438.00 L 469.00 414.00 L 474.00 392.00 L 490.00 372.00 L 521.00 353.00 L 567.00 335.00 L 623.00 330.00 L 689.00 338.00 L 724.00 368.00 L 728.00 420.00 L 730.00 421.00 L 730.00 371.00 L 731.00 373.00 L 733.00 427.00 L 736.00 428.00 L 740.00 376.00 L 742.00 376.00 L 742.00 428.00 L 743.00 429.00 L 745.00 379.00 L 747.00 380.00 L 749.00 432.00 L 751.00 434.00 L 753.00 386.00 L 755.00 387.00 L 757.00 437.00 L 759.00 439.00 L 761.00 393.00 L 762.00 393.00 L 762.00 439.00 L 764.00 442.00 L 768.00 402.00 L 771.00 403.00 L 773.00 445.00 L 777.00 449.00 L 783.00 415.00 L 785.00 415.00 L 783.00 449.00 L 784.00 452.00 L 788.00 424.00 L 790.00 425.00 L 790.00 455.00 L 829.00 493.00 L 907.00 539.00 L 946.00 582.00 L 946.00 622.00 L 953.00 632.00 L 967.00 612.00 L 969.00 616.00 L 959.00 644.00 L 961.00 647.00 L 975.00 625.00 L 979.00 638.00 L 973.00 686.00 L 978.00 704.00 L 994.00 692.00 L 995.00 707.00 L 981.00 749.00 L 980.00 765.00 L 992.00 755.00 L 990.00 760.00 L 974.00 780.00 L 975.00 782.00 L 993.00 766.00 L 992.00 770.00 L 972.00 794.00 L 970.00 799.00 L 986.00 785.00 L 987.00 789.00 L 973.00 811.00 L 982.00 848.00 L 1014.00 900.00 L 1017.00 939.00 L 991.00 965.00 L 975.00 1021.00 L 969.00 1107.00 L 940.00 1163.00 L 888.00 1189.00 L 922.00 1308.00 L 1042.00 1520.00 L 1039.00 1520.00 L 913.00 1308.00 L 914.00 1318.00 L 1042.00 1550.00 L 1040.00 1549.00 L 908.00 1315.00 L 906.00 1321.00 L 1034.00 1567.00 L 1032.00 1567.00 L 900.00 1321.00 L 899.00 1324.00 L 1029.00 1576.00 L 1068.00 1659.00 L 1016.00 1573.00 L 1013.00 1580.00 L 1059.00 1680.00 L 1057.00 1679.00 L 1007.00 1577.00 L 1006.00 1579.00 L 1054.00 1685.00 L 1014.00 1603.00 L 886.00 1333.00 L 882.00 1331.00 L 1002.00 1597.00 L 1030.00 1669.00 L 966.00 1547.00 L 953.00 1537.00 L 991.00 1639.00 L 987.00 1635.00 L 941.00 1525.00 L 938.00 1523.00 L 978.00 1629.00 L 951.00 1563.00 L 857.00 1325.00 L 854.00 1323.00 L 942.00 1557.00 L 959.00 1608.00 L 905.00 1476.00 L 899.00 1473.00 L 941.00 1599.00 L 938.00 1594.00 L 890.00 1458.00 L 889.00 1457.00 L 935.00 1591.00 L 920.00 1548.00 L 844.00 1328.00 L 841.00 1327.00 L 911.00 1545.00 L 910.00 1546.00 L 838.00 1330.00 L 835.00 1328.00 L 901.00 1540.00 L 908.00 1570.00 L 856.00 1418.00 L 850.00 1414.00 L 890.00 1558.00 L 882.00 1531.00 L 826.00 1333.00 L 824.00 1332.00 L 876.00 1528.00 L 876.00 1531.00 L 824.00 1341.00 L 822.00 1340.00 L 870.00 1528.00 L 870.00 1531.00 L 822.00 1349.00 L 820.00 1348.00 L 864.00 1528.00 L 864.00 1531.00 L 820.00 1357.00 L 817.00 1356.00 L 855.00 1528.00 L 855.00 1532.00 L 817.00 1368.00 L 815.00 1367.00 L 849.00 1529.00 L 747.00 1561.00 L 509.00 1463.00 L 389.00 1401.00 L 387.00 1375.00 L 403.00 1332.00 L 437.00 1272.00 L 448.00 1247.00 L 436.00 1257.00 L 440.00 1233.00 L 460.00 1175.00 L 470.00 1123.00 L 470.00 1077.00 L 457.00 1043.00 L 431.00 1021.00 L 417.00 1009.00 L 415.00 1007.00 L 394.00 979.00 Z" fill="black" stroke="black" stroke-width="1"/>
</svg>