<?xml version="1.0" encoding="UTF-8"?>
<svg xmlns="http://www.w3.org/2000/svg" viewBox="285.00 294.00 922.00 1408.00">
  <path d="M 400.00 1014.00 L 404.00 990.00 L 404.00 967.00 L 400.00 945.00 L 392.00 921.00 L 380.00 895.00 L 368.00 875.00 L 356.00 861.00 L 341.00 837.00 L 323.00 803.00 L 309.00 761.00 L 299.00 711.00 L 295.00 671.00 L 297.00 641.00 L 303.00 614.00 L 313.00 590.00 L 319.00 572.00 L 321.00 560.00 L 339.00 524.00 L 373.00 464.00 L 397.00 428.00 L 411.00 416.00 L 421.00 405.00 L 427.00 395.00 L 437.00 383.00 L 451.00 369.00 L 463.00 360.00 L 473.00 356.00 L 488.00 347.00 L 508.00 333.00 L 526.00 325.00 L 542.00 323.00 L 559.00 317.00 L 577.00 307.00 L 628.00 304.00 L 712.00 308.00 L 766.00 313.00 L 790.00 319.00 L 806.00 325.00 L 814.00 331.00 L 827.00 337.00 L 845.00 343.00 L 864.00 355.00 L 884.00 373.00 L 902.00 386.00 L 918.00 394.00 L 935.00 407.00 L 953.00 425.00 L 966.00 445.00 L 974.00 467.00 L 979.00 476.00 L 981.00 472.00 L 981.00 476.00 L 979.00 488.00 L 988.00 510.00 L 1008.00 542.00 L 1022.00 572.00 L 1030.00 600.00 L 1035.00 630.00 L 1037.00 662.00 L 1053.00 701.00 L 1083.00 747.00 L 1105.00 777.00 L 1119.00 791.00 L 1129.00 805.00 L 1135.00 819.00 L 1138.00 827.00 L 1138.00 829.00 L 1122.00 839.00 L 1090.00 857.00 L 1089.00 860.00 L 1119.00 848.00 L 1120.00 851.00 L 1092.00 869.00 L 1080.00 881.00 L 1084.00 887.00 L 1087.00 896.00 L 1089.00 908.00 L 1085.00 919.00 L 1075.00 929.00 L 1072.00 938.00 L 1076.00 946.00 L 1071.00 962.00 L 1057.00 986.00 L 1053.00 1008.00 L 1059.00 1028.00 L 1061.00 1049.00 L 1059.00 1071.00 L 1053.00 1089.00 L 1043.00 1103.00 L 1027.00 1113.00 L 1005.00 1119.00 L 997.00 1127.00 L 1003.00 1137.00 L 994.00 1160.00 L 970.00 1196.00 L 955.00 1225.00 L 949.00 1247.00 L 991.00 1320.00 L 1081.00 1444.00 L 1079.00 1447.00 L 985.00 1329.00 L 986.00 1331.00 L 1082.00 1453.00 L 1131.00 1516.00 L 1133.00 1520.00 L 1116.00 1500.00 L 1080.00 1456.00 L 1080.00 1458.00 L 1116.00 1506.00 L 1109.00 1498.00 L 1059.00 1434.00 L 1060.00 1436.00 L 1112.00 1504.00 L 1113.00 1506.00 L 1063.00 1442.00 L 1066.00 1448.00 L 1122.00 1524.00 L 1118.00 1520.00 L 1054.00 1436.00 L 1063.00 1449.00 L 1145.00 1559.00 L 1123.00 1530.00 L 997.00 1362.00 L 996.00 1361.00 L 1120.00 1527.00 L 1184.00 1614.00 L 1188.00 1622.00 L 1146.00 1567.00 L 1058.00 1449.00 L 1059.00 1451.00 L 1149.00 1573.00 L 1195.00 1638.00 L 1197.00 1646.00 L 1132.00 1559.00 L 1000.00 1377.00 L 1000.00 1379.00 L 1132.00 1565.00 L 1148.00 1589.00 L 1048.00 1451.00 L 1048.00 1453.00 L 1148.00 1595.00 L 1132.00 1573.00 L 1000.00 1387.00 L 1000.00 1390.00 L 1132.00 1582.00 L 1137.00 1591.00 L 1015.00 1417.00 L 1015.00 1420.00 L 1137.00 1600.00 L 1139.00 1604.00 L 1021.00 1432.00 L 1020.00 1433.00 L 1136.00 1607.00 L 1132.00 1602.00 L 1008.00 1418.00 L 1008.00 1420.00 L 1132.00 1608.00 L 1128.00 1603.00 L 996.00 1405.00 L 995.00 1407.00 L 1125.00 1609.00 L 1126.00 1612.00 L 998.00 1416.00 L 996.00 1419.00 L 1120.00 1621.00 L 1128.00 1692.00 L 1020.00 1632.00 L 917.00 1584.00 L 819.00 1548.00 L 744.00 1523.00 L 692.00 1509.00 L 628.00 1498.00 L 552.00 1490.00 L 492.00 1482.00 L 448.00 1474.00 L 406.00 1470.00 L 366.00 1470.00 L 343.00 1465.00 L 337.00 1455.00 L 337.00 1441.00 L 343.00 1423.00 L 347.00 1404.00 L 349.00 1384.00 L 356.00 1360.00 L 368.00 1332.00 L 370.00 1313.00 L 362.00 1303.00 L 357.00 1294.00 L 355.00 1286.00 L 357.00 1262.00 L 363.00 1222.00 L 365.00 1182.00 L 363.00 1142.00 L 365.00 1111.00 L 371.00 1089.00 L 382.00 1073.00 L 398.00 1063.00 L 406.00 1055.00 L 406.00 1049.00 L 404.00 1046.00 L 400.00 1046.00 L 397.00 1044.00 L 395.00 1040.00 L 395.00 1035.00 L 397.00 1029.00 L 400.00 1014.00 Z" fill="black" stroke="black" stroke-width="1"/>
</svg>