<?xml version="1.0" encoding="UTF-8"?>
<svg xmlns="http://www.w3.org/2000/svg" viewBox="243.00 152.00 1195.00 1614.00">
  <path d="M 577.00 867.00 L 543.00 813.00 L 496.00 772.00 L 436.00 744.00 L 435.00 739.00 L 493.00 757.00 L 487.00 752.00 L 417.00 724.00 L 415.00 721.00 L 481.00 743.00 L 479.00 740.00 L 409.00 712.00 L 346.00 673.00 L 290.00 623.00 L 259.00 586.00 L 253.00 562.00 L 261.00 534.00 L 283.00 502.00 L 291.00 464.00 L 285.00 420.00 L 293.00 380.00 L 315.00 344.00 L 349.00 326.00 L 395.00 326.00 L 427.00 308.00 L 445.00 272.00 L 481.00 249.00 L 535.00 239.00 L 569.00 218.00 L 583.00 186.00 L 599.00 174.00 L 617.00 182.00 L 638.00 178.00 L 662.00 162.00 L 680.00 172.00 L 692.00 208.00 L 696.00 207.00 L 692.00 169.00 L 696.00 169.00 L 708.00 207.00 L 711.00 206.00 L 705.00 166.00 L 708.00 167.00 L 720.00 209.00 L 724.00 210.00 L 720.00 170.00 L 723.00 169.00 L 733.00 207.00 L 736.00 207.00 L 732.00 169.00 L 740.00 170.00 L 760.00 210.00 L 766.00 210.00 L 758.00 170.00 L 761.00 171.00 L 775.00 213.00 L 778.00 213.00 L 770.00 171.00 L 773.00 171.00 L 787.00 213.00 L 793.00 216.00 L 791.00 180.00 L 794.00 180.00 L 802.00 216.00 L 804.00 219.00 L 800.00 189.00 L 803.00 189.00 L 813.00 219.00 L 846.00 235.00 L 902.00 237.00 L 985.00 257.00 L 1095.00 295.00 L 1170.00 332.00 L 1210.00 368.00 L 1230.00 408.00 L 1230.00 452.00 L 1237.00 465.00 L 1251.00 447.00 L 1252.00 449.00 L 1240.00 471.00 L 1241.00 474.00 L 1255.00 458.00 L 1256.00 463.00 L 1244.00 489.00 L 1245.00 495.00 L 1259.00 481.00 L 1260.00 484.00 L 1248.00 504.00 L 1250.00 506.00 L 1266.00 490.00 L 1267.00 494.00 L 1253.00 518.00 L 1255.00 521.00 L 1273.00 503.00 L 1274.00 506.00 L 1258.00 530.00 L 1257.00 537.00 L 1271.00 527.00 L 1273.00 540.00 L 1263.00 576.00 L 1266.00 591.00 L 1282.00 585.00 L 1283.00 599.00 L 1269.00 633.00 L 1269.00 648.00 L 1283.00 644.00 L 1283.00 647.00 L 1269.00 657.00 L 1270.00 659.00 L 1286.00 653.00 L 1288.00 658.00 L 1276.00 674.00 L 1280.00 680.00 L 1300.00 676.00 L 1303.00 679.00 L 1289.00 689.00 L 1289.00 691.00 L 1303.00 685.00 L 1305.00 687.00 L 1295.00 697.00 L 1303.00 732.00 L 1329.00 792.00 L 1323.00 835.00 L 1285.00 861.00 L 1258.00 921.00 L 1242.00 1015.00 L 1199.00 1084.00 L 1129.00 1128.00 L 1182.00 1284.00 L 1358.00 1552.00 L 1355.00 1554.00 L 1173.00 1290.00 L 1173.00 1293.00 L 1355.00 1563.00 L 1428.00 1674.00 L 1392.00 1626.00 L 1392.00 1631.00 L 1428.00 1689.00 L 1424.00 1688.00 L 1380.00 1628.00 L 1379.00 1633.00 L 1421.00 1703.00 L 1417.00 1701.00 L 1367.00 1627.00 L 1366.00 1630.00 L 1414.00 1710.00 L 1346.00 1603.00 L 1162.00 1309.00 L 1161.00 1312.00 L 1343.00 1612.00 L 1402.00 1715.00 L 1338.00 1621.00 L 1336.00 1627.00 L 1396.00 1733.00 L 1394.00 1732.00 L 1330.00 1624.00 L 1330.00 1626.00 L 1394.00 1738.00 L 1391.00 1736.00 L 1321.00 1620.00 L 1320.00 1623.00 L 1388.00 1745.00 L 1385.00 1744.00 L 1311.00 1620.00 L 1310.00 1624.00 L 1382.00 1756.00 L 1328.00 1660.00 L 1148.00 1336.00 L 1146.00 1335.00 L 1322.00 1657.00 L 1369.00 1749.00 L 1287.00 1611.00 L 1277.00 1603.00 L 1339.00 1725.00 L 1336.00 1723.00 L 1268.00 1597.00 L 1262.00 1592.00 L 1318.00 1708.00 L 1315.00 1707.00 L 1253.00 1589.00 L 1250.00 1587.00 L 1306.00 1701.00 L 1262.00 1614.00 L 1118.00 1326.00 L 1115.00 1323.00 L 1253.00 1605.00 L 1289.00 1686.00 L 1223.00 1566.00 L 1212.00 1558.00 L 1256.00 1662.00 L 1218.00 1583.00 L 1098.00 1321.00 L 1095.00 1319.00 L 1209.00 1577.00 L 1236.00 1647.00 L 1176.00 1529.00 L 1165.00 1520.00 L 1203.00 1620.00 L 1174.00 1553.00 L 1078.00 1319.00 L 1076.00 1318.00 L 1168.00 1550.00 L 1168.00 1552.00 L 1076.00 1324.00 L 1072.00 1321.00 L 1156.00 1543.00 L 1155.00 1546.00 L 1069.00 1330.00 L 1063.00 1326.00 L 1137.00 1534.00 L 1137.00 1537.00 L 1063.00 1335.00 L 1060.00 1333.00 L 1128.00 1531.00 L 1128.00 1533.00 L 1060.00 1339.00 L 1057.00 1337.00 L 1119.00 1527.00 L 1119.00 1530.00 L 1057.00 1346.00 L 1054.00 1344.00 L 1110.00 1524.00 L 1110.00 1529.00 L 1054.00 1359.00 L 1051.00 1357.00 L 1101.00 1523.00 L 1051.00 1566.00 L 901.00 1486.00 L 737.00 1423.00 L 559.00 1377.00 L 486.00 1312.00 L 518.00 1228.00 L 549.00 1174.00 L 579.00 1150.00 L 579.00 1148.00 L 549.00 1168.00 L 550.00 1165.00 L 582.00 1139.00 L 583.00 1136.00 L 553.00 1156.00 L 554.00 1153.00 L 586.00 1127.00 L 619.00 1080.00 L 653.00 1012.00 L 653.00 959.00 L 619.00 921.00 L 600.00 900.00 L 596.00 896.00 L 577.00 867.00 Z" fill="black" stroke="black" stroke-width="1"/>
</svg>