<?xml version="1.0" encoding="UTF-8"?>
<svg xmlns="http://www.w3.org/2000/svg" viewBox="280.00 310.00 856.00 1345.00">
  <path d="M 364.00 954.00 L 360.00 898.00 L 344.00 840.00 L 316.00 780.00 L 299.00 729.00 L 293.00 687.00 L 290.00 653.00 L 290.00 627.00 L 293.00 601.00 L 299.00 575.00 L 309.00 544.00 L 323.00 508.00 L 336.00 482.00 L 348.00 466.00 L 357.00 450.00 L 363.00 434.00 L 386.00 408.00 L 426.00 372.00 L 451.00 354.00 L 461.00 354.00 L 480.00 347.00 L 508.00 333.00 L 541.00 324.00 L 579.00 320.00 L 622.00 320.00 L 670.00 324.00 L 704.00 330.00 L 724.00 338.00 L 748.00 344.00 L 776.00 348.00 L 814.00 366.00 L 862.00 398.00 L 904.00 437.00 L 940.00 483.00 L 956.00 517.00 L 952.00 539.00 L 955.00 542.00 L 965.00 526.00 L 966.00 528.00 L 958.00 548.00 L 958.00 551.00 L 966.00 537.00 L 966.00 538.00 L 958.00 554.00 L 959.00 556.00 L 969.00 544.00 L 970.00 546.00 L 962.00 562.00 L 959.00 572.00 L 961.00 576.00 L 967.00 571.00 L 977.00 557.00 L 978.00 559.00 L 970.00 577.00 L 972.00 579.00 L 984.00 565.00 L 985.00 568.00 L 975.00 588.00 L 976.00 591.00 L 988.00 577.00 L 989.00 579.00 L 979.00 597.00 L 979.00 599.00 L 989.00 585.00 L 990.00 589.00 L 982.00 611.00 L 982.00 617.00 L 990.00 607.00 L 990.00 609.00 L 982.00 623.00 L 983.00 624.00 L 993.00 612.00 L 994.00 614.00 L 986.00 630.00 L 987.00 633.00 L 997.00 623.00 L 997.00 626.00 L 987.00 642.00 L 988.00 645.00 L 1000.00 635.00 L 1001.00 637.00 L 991.00 651.00 L 991.00 653.00 L 1001.00 643.00 L 1001.00 645.00 L 991.00 659.00 L 990.00 662.00 L 998.00 654.00 L 999.00 655.00 L 993.00 665.00 L 988.00 685.00 L 984.00 715.00 L 998.00 754.00 L 1030.00 802.00 L 1044.00 832.00 L 1040.00 844.00 L 1027.00 857.00 L 1005.00 871.00 L 997.00 889.00 L 1003.00 911.00 L 1002.00 927.00 L 994.00 937.00 L 992.00 947.00 L 996.00 957.00 L 993.00 968.00 L 983.00 980.00 L 981.00 1002.00 L 987.00 1034.00 L 984.00 1059.00 L 972.00 1077.00 L 968.00 1091.00 L 972.00 1101.00 L 966.00 1119.00 L 950.00 1145.00 L 947.00 1163.00 L 957.00 1173.00 L 956.00 1175.00 L 944.00 1169.00 L 944.00 1171.00 L 956.00 1181.00 L 956.00 1182.00 L 944.00 1174.00 L 943.00 1175.00 L 953.00 1185.00 L 951.00 1191.00 L 937.00 1193.00 L 926.00 1197.00 L 918.00 1203.00 L 921.00 1219.00 L 935.00 1245.00 L 935.00 1250.00 L 921.00 1234.00 L 932.00 1251.00 L 968.00 1301.00 L 976.00 1314.00 L 956.00 1290.00 L 959.00 1296.00 L 985.00 1332.00 L 997.00 1349.00 L 995.00 1347.00 L 999.00 1358.00 L 1009.00 1382.00 L 1013.00 1393.00 L 1011.00 1391.00 L 1036.00 1432.00 L 1088.00 1516.00 L 1117.00 1569.00 L 1123.00 1591.00 L 1126.00 1609.00 L 1126.00 1623.00 L 1124.00 1633.00 L 1120.00 1639.00 L 1110.00 1643.00 L 1094.00 1645.00 L 1081.00 1641.00 L 1071.00 1631.00 L 1066.00 1628.00 L 1066.00 1632.00 L 1054.00 1625.00 L 1030.00 1607.00 L 998.00 1588.00 L 958.00 1568.00 L 886.00 1539.00 L 782.00 1501.00 L 671.00 1472.00 L 553.00 1452.00 L 453.00 1441.00 L 371.00 1439.00 L 323.00 1434.00 L 309.00 1426.00 L 300.00 1416.00 L 296.00 1404.00 L 295.00 1390.00 L 297.00 1374.00 L 310.00 1343.00 L 334.00 1297.00 L 344.00 1268.00 L 340.00 1256.00 L 347.00 1209.00 L 365.00 1127.00 L 381.00 1077.00 L 395.00 1059.00 L 397.00 1048.00 L 387.00 1044.00 L 387.00 1041.00 L 397.00 1039.00 L 395.00 1038.00 L 381.00 1038.00 L 373.00 1027.00 L 371.00 1005.00 L 369.00 991.00 L 367.00 985.00 L 364.00 954.00 Z" fill="black" stroke="black" stroke-width="1"/>
</svg>