<?xml version="1.0" encoding="UTF-8"?>
<svg xmlns="http://www.w3.org/2000/svg" viewBox="313.00 206.00 904.00 1409.00">
  <path d="M 377.00 973.00 L 351.00 963.00 L 335.00 950.00 L 329.00 934.00 L 347.00 896.00 L 389.00 836.00 L 409.00 787.00 L 407.00 749.00 L 410.00 724.00 L 418.00 712.00 L 389.00 668.00 L 323.00 592.00 L 325.00 589.00 L 395.00 659.00 L 395.00 654.00 L 325.00 574.00 L 326.00 572.00 L 398.00 648.00 L 400.00 646.00 L 332.00 566.00 L 333.00 563.00 L 403.00 637.00 L 405.00 636.00 L 339.00 560.00 L 340.00 559.00 L 408.00 633.00 L 413.00 632.00 L 355.00 556.00 L 356.00 552.00 L 416.00 620.00 L 420.00 619.00 L 368.00 549.00 L 368.00 546.00 L 420.00 610.00 L 422.00 610.00 L 374.00 546.00 L 375.00 544.00 L 425.00 604.00 L 428.00 604.00 L 384.00 544.00 L 385.00 542.00 L 431.00 598.00 L 434.00 597.00 L 394.00 539.00 L 392.00 535.00 L 428.00 585.00 L 431.00 585.00 L 401.00 535.00 L 402.00 531.00 L 434.00 573.00 L 437.00 572.00 L 411.00 528.00 L 412.00 527.00 L 440.00 569.00 L 443.00 569.00 L 421.00 527.00 L 423.00 523.00 L 449.00 557.00 L 453.00 557.00 L 435.00 523.00 L 461.00 505.00 L 531.00 503.00 L 634.00 430.00 L 770.00 286.00 L 846.00 216.00 L 862.00 220.00 L 895.00 244.00 L 945.00 288.00 L 1043.00 383.00 L 1189.00 529.00 L 1207.00 691.00 L 1097.00 869.00 L 1058.00 991.00 L 1090.00 1057.00 L 1085.00 1085.00 L 1043.00 1075.00 L 1044.00 1078.00 L 1088.00 1094.00 L 1088.00 1096.00 L 1044.00 1084.00 L 1045.00 1087.00 L 1091.00 1105.00 L 1091.00 1108.00 L 1045.00 1096.00 L 1045.00 1098.00 L 1091.00 1114.00 L 1092.00 1115.00 L 1048.00 1101.00 L 1049.00 1102.00 L 1095.00 1118.00 L 1097.00 1120.00 L 1055.00 1108.00 L 1055.00 1113.00 L 1097.00 1135.00 L 1098.00 1139.00 L 1058.00 1125.00 L 1057.00 1128.00 L 1095.00 1148.00 L 1096.00 1151.00 L 1060.00 1137.00 L 1058.00 1139.00 L 1090.00 1157.00 L 1090.00 1159.00 L 1058.00 1145.00 L 1055.00 1145.00 L 1081.00 1159.00 L 1082.00 1161.00 L 1058.00 1151.00 L 1046.00 1190.00 L 1046.00 1278.00 L 1052.00 1359.00 L 1064.00 1433.00 L 1060.00 1481.00 L 1040.00 1503.00 L 967.00 1518.00 L 841.00 1526.00 L 695.00 1555.00 L 529.00 1605.00 L 472.00 1565.00 L 524.00 1435.00 L 521.00 1436.00 L 463.00 1568.00 L 462.00 1566.00 L 518.00 1430.00 L 514.00 1432.00 L 450.00 1572.00 L 449.00 1571.00 L 511.00 1429.00 L 506.00 1431.00 L 434.00 1577.00 L 433.00 1574.00 L 503.00 1422.00 L 501.00 1423.00 L 427.00 1577.00 L 427.00 1574.00 L 501.00 1414.00 L 498.00 1415.00 L 418.00 1577.00 L 418.00 1575.00 L 498.00 1409.00 L 495.00 1410.00 L 409.00 1578.00 L 409.00 1576.00 L 495.00 1404.00 L 491.00 1403.00 L 397.00 1573.00 L 396.00 1571.00 L 488.00 1397.00 L 486.00 1395.00 L 390.00 1565.00 L 379.00 1581.00 L 453.00 1443.00 L 452.00 1440.00 L 376.00 1572.00 L 372.00 1574.00 L 440.00 1446.00 L 439.00 1440.00 L 369.00 1556.00 L 347.00 1591.00 L 373.00 1545.00 L 374.00 1542.00 L 350.00 1582.00 L 348.00 1585.00 L 368.00 1551.00 L 369.00 1548.00 L 351.00 1576.00 L 383.00 1522.00 L 465.00 1386.00 L 464.00 1387.00 L 380.00 1525.00 L 383.00 1516.00 L 473.00 1360.00 L 511.00 1290.00 L 497.00 1306.00 L 496.00 1304.00 L 508.00 1284.00 L 506.00 1281.00 L 490.00 1295.00 L 489.00 1292.00 L 503.00 1272.00 L 504.00 1269.00 L 492.00 1283.00 L 491.00 1281.00 L 501.00 1263.00 L 501.00 1249.00 L 491.00 1239.00 L 492.00 1226.00 L 504.00 1210.00 L 503.00 1207.00 L 489.00 1217.00 L 485.00 1216.00 L 491.00 1204.00 L 479.00 1194.00 L 449.00 1186.00 L 427.00 1173.00 L 413.00 1155.00 L 407.00 1133.00 L 409.00 1107.00 L 403.00 1076.00 L 389.00 1040.00 L 385.00 1014.00 L 391.00 998.00 L 393.00 987.00 L 391.00 981.00 L 377.00 973.00 Z" fill="black" stroke="black" stroke-width="1"/>
</svg>