<?xml version="1.0" encoding="UTF-8"?>
<svg xmlns="http://www.w3.org/2000/svg" viewBox="231.00 249.00 955.00 1480.00">
  <path d="M 439.00 963.00 L 433.00 917.00 L 420.00 889.00 L 400.00 879.00 L 399.00 877.00 L 417.00 883.00 L 413.00 878.00 L 387.00 862.00 L 392.00 834.00 L 428.00 794.00 L 429.00 749.00 L 395.00 699.00 L 392.00 686.00 L 420.00 710.00 L 422.00 707.00 L 398.00 677.00 L 396.00 671.00 L 416.00 689.00 L 419.00 684.00 L 405.00 656.00 L 405.00 649.00 L 419.00 663.00 L 420.00 653.00 L 408.00 619.00 L 409.00 608.00 L 423.00 620.00 L 427.00 612.00 L 421.00 584.00 L 424.00 577.00 L 436.00 591.00 L 436.00 584.00 L 424.00 556.00 L 426.00 551.00 L 442.00 569.00 L 445.00 564.00 L 435.00 536.00 L 437.00 531.00 L 451.00 549.00 L 452.00 547.00 L 440.00 525.00 L 441.00 524.00 L 455.00 544.00 L 458.00 541.00 L 450.00 515.00 L 453.00 494.00 L 467.00 478.00 L 525.00 445.00 L 627.00 395.00 L 679.00 360.00 L 681.00 340.00 L 683.00 340.00 L 685.00 360.00 L 687.00 357.00 L 689.00 331.00 L 691.00 331.00 L 693.00 357.00 L 697.00 353.00 L 703.00 319.00 L 706.00 318.00 L 706.00 350.00 L 709.00 349.00 L 715.00 315.00 L 718.00 314.00 L 718.00 346.00 L 720.00 345.00 L 724.00 311.00 L 726.00 310.00 L 726.00 342.00 L 730.00 341.00 L 738.00 307.00 L 762.00 289.00 L 802.00 287.00 L 837.00 277.00 L 867.00 259.00 L 915.00 266.00 L 981.00 298.00 L 1016.00 325.00 L 1020.00 347.00 L 1048.00 381.00 L 1100.00 427.00 L 1140.00 496.00 L 1168.00 588.00 L 1176.00 662.00 L 1164.00 718.00 L 1130.00 765.00 L 1074.00 803.00 L 1047.00 856.00 L 1049.00 924.00 L 1039.00 960.00 L 1017.00 964.00 L 1020.00 966.00 L 1048.00 966.00 L 1048.00 968.00 L 1020.00 972.00 L 1022.00 974.00 L 1054.00 974.00 L 1053.00 977.00 L 1019.00 983.00 L 1020.00 986.00 L 1056.00 986.00 L 1056.00 989.00 L 1020.00 995.00 L 1017.00 999.00 L 1047.00 1001.00 L 1047.00 1004.00 L 1017.00 1008.00 L 1002.00 1018.00 L 1002.00 1034.00 L 1023.00 1116.00 L 1065.00 1264.00 L 1085.00 1354.00 L 1083.00 1386.00 L 1059.00 1413.00 L 1013.00 1435.00 L 936.00 1455.00 L 828.00 1473.00 L 732.00 1500.00 L 648.00 1536.00 L 619.00 1470.00 L 645.00 1302.00 L 643.00 1303.00 L 613.00 1473.00 L 613.00 1470.00 L 643.00 1294.00 L 639.00 1296.00 L 601.00 1476.00 L 600.00 1473.00 L 636.00 1287.00 L 630.00 1290.00 L 582.00 1482.00 L 581.00 1480.00 L 627.00 1284.00 L 625.00 1285.00 L 575.00 1483.00 L 568.00 1507.00 L 604.00 1357.00 L 601.00 1359.00 L 559.00 1513.00 L 557.00 1514.00 L 595.00 1362.00 L 592.00 1364.00 L 548.00 1520.00 L 520.00 1601.00 L 508.00 1607.00 L 536.00 1501.00 L 604.00 1283.00 L 601.00 1284.00 L 527.00 1504.00 L 516.00 1534.00 L 568.00 1374.00 L 561.00 1378.00 L 495.00 1546.00 L 504.00 1515.00 L 588.00 1285.00 L 586.00 1286.00 L 498.00 1518.00 L 484.00 1553.00 L 544.00 1391.00 L 541.00 1392.00 L 475.00 1556.00 L 473.00 1557.00 L 535.00 1395.00 L 533.00 1395.00 L 467.00 1557.00 L 465.00 1558.00 L 527.00 1398.00 L 516.00 1406.00 L 432.00 1582.00 L 447.00 1543.00 L 561.00 1289.00 L 559.00 1288.00 L 441.00 1540.00 L 419.00 1586.00 L 493.00 1426.00 L 491.00 1427.00 L 413.00 1589.00 L 411.00 1590.00 L 485.00 1430.00 L 481.00 1433.00 L 399.00 1599.00 L 398.00 1600.00 L 478.00 1436.00 L 475.00 1437.00 L 389.00 1603.00 L 384.00 1609.00 L 460.00 1455.00 L 458.00 1455.00 L 378.00 1609.00 L 376.00 1612.00 L 452.00 1464.00 L 444.00 1469.00 L 352.00 1627.00 L 381.00 1568.00 L 531.00 1292.00 L 528.00 1293.00 L 372.00 1571.00 L 289.00 1713.00 L 279.00 1719.00 L 319.00 1643.00 L 409.00 1485.00 L 400.00 1491.00 L 292.00 1661.00 L 328.00 1597.00 L 508.00 1299.00 L 508.00 1294.00 L 328.00 1582.00 L 284.00 1651.00 L 376.00 1501.00 L 376.00 1499.00 L 284.00 1645.00 L 281.00 1647.00 L 367.00 1505.00 L 365.00 1501.00 L 275.00 1635.00 L 270.00 1639.00 L 350.00 1513.00 L 349.00 1509.00 L 267.00 1627.00 L 260.00 1635.00 L 328.00 1533.00 L 327.00 1529.00 L 257.00 1623.00 L 244.00 1636.00 L 288.00 1568.00 L 287.00 1561.00 L 241.00 1615.00 L 310.00 1517.00 L 494.00 1267.00 L 495.00 1265.00 L 313.00 1511.00 L 312.00 1510.00 L 492.00 1262.00 L 550.00 1119.00 L 486.00 1081.00 L 453.00 1045.00 L 451.00 1011.00 L 448.00 992.00 L 444.00 988.00 L 439.00 963.00 Z" fill="black" stroke="black" stroke-width="1"/>
</svg>