<?xml version="1.0" encoding="UTF-8"?>
<svg xmlns="http://www.w3.org/2000/svg" viewBox="207.00 450.00 933.00 1209.00">
  <path d="M 456.00 995.00 L 428.00 965.00 L 396.00 945.00 L 360.00 935.00 L 359.00 933.00 L 393.00 939.00 L 389.00 937.00 L 347.00 927.00 L 345.00 925.00 L 383.00 931.00 L 379.00 927.00 L 333.00 913.00 L 332.00 911.00 L 376.00 921.00 L 371.00 917.00 L 317.00 899.00 L 315.00 896.00 L 365.00 908.00 L 362.00 905.00 L 306.00 887.00 L 270.00 866.00 L 254.00 842.00 L 238.00 808.00 L 222.00 764.00 L 217.00 725.00 L 223.00 691.00 L 234.00 661.00 L 250.00 635.00 L 266.00 610.00 L 282.00 586.00 L 300.00 569.00 L 320.00 559.00 L 331.00 537.00 L 333.00 503.00 L 337.00 482.00 L 343.00 474.00 L 350.00 469.00 L 358.00 467.00 L 372.00 471.00 L 392.00 481.00 L 411.00 481.00 L 429.00 471.00 L 455.00 464.00 L 489.00 460.00 L 513.00 468.00 L 527.00 488.00 L 533.00 492.00 L 531.00 480.00 L 534.00 479.00 L 542.00 489.00 L 573.00 486.00 L 627.00 470.00 L 701.00 463.00 L 795.00 465.00 L 868.00 477.00 L 920.00 499.00 L 962.00 524.00 L 994.00 552.00 L 1017.00 576.00 L 1031.00 596.00 L 1035.00 613.00 L 1029.00 627.00 L 1030.00 629.00 L 1038.00 619.00 L 1040.00 620.00 L 1036.00 632.00 L 1037.00 634.00 L 1043.00 626.00 L 1043.00 630.00 L 1037.00 646.00 L 1038.00 649.00 L 1046.00 639.00 L 1048.00 639.00 L 1044.00 649.00 L 1045.00 652.00 L 1051.00 648.00 L 1050.00 653.00 L 1042.00 667.00 L 1043.00 669.00 L 1053.00 659.00 L 1054.00 663.00 L 1046.00 681.00 L 1047.00 686.00 L 1057.00 678.00 L 1058.00 680.00 L 1050.00 692.00 L 1051.00 694.00 L 1061.00 686.00 L 1061.00 690.00 L 1051.00 706.00 L 1052.00 711.00 L 1064.00 705.00 L 1065.00 708.00 L 1055.00 720.00 L 1055.00 723.00 L 1065.00 717.00 L 1065.00 720.00 L 1055.00 732.00 L 1055.00 735.00 L 1065.00 729.00 L 1065.00 731.00 L 1055.00 741.00 L 1055.00 743.00 L 1065.00 737.00 L 1065.00 739.00 L 1055.00 749.00 L 1055.00 751.00 L 1065.00 745.00 L 1065.00 748.00 L 1055.00 760.00 L 1055.00 762.00 L 1065.00 754.00 L 1066.00 756.00 L 1058.00 768.00 L 1059.00 771.00 L 1069.00 765.00 L 1069.00 768.00 L 1059.00 780.00 L 1074.00 820.00 L 1114.00 888.00 L 1130.00 929.00 L 1122.00 943.00 L 1108.00 955.00 L 1088.00 965.00 L 1080.00 977.00 L 1084.00 991.00 L 1082.00 1004.00 L 1074.00 1016.00 L 1071.00 1028.00 L 1073.00 1040.00 L 1069.00 1052.00 L 1059.00 1064.00 L 1056.00 1076.00 L 1060.00 1088.00 L 1060.00 1105.00 L 1056.00 1127.00 L 1024.00 1150.00 L 964.00 1174.00 L 927.00 1190.00 L 913.00 1198.00 L 901.00 1210.00 L 891.00 1226.00 L 939.00 1328.00 L 1045.00 1516.00 L 1099.00 1612.00 L 1101.00 1616.00 L 1099.00 1613.00 L 1093.00 1603.00 L 1095.00 1609.00 L 1105.00 1631.00 L 1099.00 1624.00 L 1077.00 1588.00 L 1078.00 1592.00 L 1102.00 1636.00 L 1056.00 1554.00 L 940.00 1346.00 L 927.00 1323.00 L 1017.00 1485.00 L 1058.00 1562.00 L 1050.00 1554.00 L 1062.00 1580.00 L 1094.00 1640.00 L 1092.00 1638.00 L 1056.00 1574.00 L 1056.00 1576.00 L 1092.00 1644.00 L 1090.00 1643.00 L 1050.00 1573.00 L 1049.00 1575.00 L 1087.00 1649.00 L 1049.00 1577.00 L 935.00 1359.00 L 934.00 1362.00 L 1046.00 1586.00 L 1046.00 1588.00 L 934.00 1368.00 L 932.00 1370.00 L 1040.00 1594.00 L 1040.00 1597.00 L 932.00 1379.00 L 929.00 1377.00 L 1031.00 1591.00 L 1054.00 1643.00 L 998.00 1533.00 L 993.00 1530.00 L 1039.00 1634.00 L 1015.00 1584.00 L 921.00 1380.00 L 919.00 1379.00 L 1009.00 1581.00 L 1009.00 1584.00 L 919.00 1388.00 L 915.00 1386.00 L 997.00 1578.00 L 997.00 1581.00 L 915.00 1395.00 L 910.00 1391.00 L 982.00 1569.00 L 982.00 1570.00 L 910.00 1394.00 L 908.00 1393.00 L 976.00 1567.00 L 980.00 1580.00 L 920.00 1432.00 L 918.00 1431.00 L 974.00 1577.00 L 973.00 1634.00 L 915.00 1602.00 L 852.00 1572.00 L 784.00 1544.00 L 729.00 1524.00 L 687.00 1512.00 L 635.00 1502.00 L 573.00 1494.00 L 533.00 1485.00 L 515.00 1475.00 L 505.00 1462.00 L 503.00 1446.00 L 512.00 1401.00 L 532.00 1327.00 L 551.00 1274.00 L 569.00 1242.00 L 580.00 1201.00 L 584.00 1151.00 L 583.00 1115.00 L 577.00 1093.00 L 550.00 1066.00 L 502.00 1034.00 L 476.00 1016.00 L 472.00 1012.00 L 456.00 995.00 Z" fill="black" stroke="black" stroke-width="1"/>
</svg>