<?xml version="1.0" encoding="UTF-8"?>
<svg xmlns="http://www.w3.org/2000/svg" viewBox="390.00 393.00 774.00 1322.00">
  <path d="M 482.00 1013.00 L 482.00 979.00 L 485.00 958.00 L 491.00 950.00 L 490.00 943.00 L 482.00 937.00 L 483.00 935.00 L 493.00 937.00 L 492.00 935.00 L 480.00 929.00 L 481.00 928.00 L 495.00 932.00 L 495.00 931.00 L 481.00 925.00 L 473.00 916.00 L 471.00 904.00 L 461.00 881.00 L 443.00 847.00 L 425.00 790.00 L 407.00 710.00 L 400.00 654.00 L 404.00 622.00 L 414.00 588.00 L 430.00 552.00 L 445.00 524.00 L 459.00 504.00 L 480.00 480.00 L 508.00 452.00 L 538.00 432.00 L 570.00 420.00 L 597.00 412.00 L 619.00 408.00 L 676.00 405.00 L 768.00 403.00 L 821.00 403.00 L 835.00 405.00 L 861.00 413.00 L 899.00 427.00 L 923.00 438.00 L 933.00 446.00 L 938.00 453.00 L 938.00 459.00 L 939.00 461.00 L 941.00 459.00 L 942.00 460.00 L 942.00 464.00 L 952.00 473.00 L 972.00 487.00 L 989.00 502.00 L 1003.00 518.00 L 1016.00 540.00 L 1028.00 568.00 L 1040.00 592.00 L 1052.00 612.00 L 1059.00 637.00 L 1061.00 667.00 L 1072.00 693.00 L 1092.00 715.00 L 1115.00 744.00 L 1141.00 780.00 L 1154.00 804.00 L 1154.00 816.00 L 1141.00 830.00 L 1115.00 846.00 L 1114.00 848.00 L 1138.00 836.00 L 1138.00 838.00 L 1114.00 854.00 L 1113.00 856.00 L 1135.00 844.00 L 1135.00 847.00 L 1113.00 865.00 L 1104.00 879.00 L 1108.00 889.00 L 1110.00 898.00 L 1110.00 906.00 L 1108.00 914.00 L 1104.00 922.00 L 1104.00 929.00 L 1108.00 935.00 L 1106.00 945.00 L 1098.00 959.00 L 1096.00 983.00 L 1100.00 1017.00 L 1097.00 1041.00 L 1087.00 1055.00 L 1071.00 1065.00 L 1049.00 1071.00 L 1049.00 1077.00 L 1071.00 1083.00 L 1084.00 1090.00 L 1088.00 1098.00 L 1084.00 1111.00 L 1072.00 1129.00 L 1066.00 1141.00 L 1066.00 1147.00 L 1064.00 1153.00 L 1060.00 1159.00 L 1055.00 1173.00 L 1049.00 1195.00 L 1043.00 1210.00 L 1037.00 1218.00 L 1031.00 1230.00 L 1025.00 1246.00 L 1031.00 1264.00 L 1049.00 1284.00 L 1049.00 1285.00 L 1031.00 1267.00 L 1033.00 1272.00 L 1055.00 1300.00 L 1066.00 1323.00 L 1066.00 1341.00 L 1064.00 1356.00 L 1060.00 1368.00 L 1071.00 1392.00 L 1097.00 1428.00 L 1097.00 1430.00 L 1071.00 1398.00 L 1070.00 1400.00 L 1094.00 1436.00 L 1104.00 1455.00 L 1100.00 1457.00 L 1091.00 1451.00 L 1077.00 1437.00 L 1075.00 1438.00 L 1085.00 1454.00 L 1098.00 1483.00 L 1114.00 1525.00 L 1125.00 1570.00 L 1131.00 1618.00 L 1132.00 1657.00 L 1128.00 1687.00 L 1124.00 1703.00 L 1120.00 1705.00 L 1113.00 1704.00 L 1103.00 1700.00 L 1053.00 1669.00 L 963.00 1611.00 L 874.00 1558.00 L 786.00 1510.00 L 721.00 1477.00 L 679.00 1459.00 L 639.00 1444.00 L 601.00 1432.00 L 560.00 1423.00 L 516.00 1417.00 L 485.00 1408.00 L 467.00 1396.00 L 456.00 1383.00 L 452.00 1369.00 L 450.00 1351.00 L 450.00 1329.00 L 454.00 1299.00 L 462.00 1261.00 L 467.00 1225.00 L 469.00 1191.00 L 472.00 1170.00 L 476.00 1162.00 L 475.00 1151.00 L 469.00 1137.00 L 466.00 1122.00 L 466.00 1106.00 L 469.00 1087.00 L 475.00 1065.00 L 478.00 1049.00 L 478.00 1039.00 L 479.00 1033.00 L 481.00 1031.00 L 482.00 1013.00 Z" fill="black" stroke="black" stroke-width="1"/>
</svg>