<?xml version="1.0" encoding="UTF-8"?>
<svg xmlns="http://www.w3.org/2000/svg" viewBox="320.00 338.00 810.00 1345.00">
  <path d="M 446.00 983.00 L 446.00 969.00 L 449.00 958.00 L 455.00 950.00 L 452.00 942.00 L 440.00 934.00 L 441.00 931.00 L 455.00 933.00 L 454.00 932.00 L 438.00 928.00 L 426.00 919.00 L 418.00 905.00 L 412.00 882.00 L 408.00 850.00 L 396.00 817.00 L 376.00 783.00 L 359.00 746.00 L 345.00 706.00 L 336.00 667.00 L 332.00 629.00 L 330.00 599.00 L 330.00 577.00 L 333.00 556.00 L 339.00 536.00 L 347.00 515.00 L 357.00 493.00 L 372.00 471.00 L 392.00 449.00 L 420.00 427.00 L 456.00 405.00 L 496.00 385.00 L 540.00 367.00 L 585.00 356.00 L 631.00 352.00 L 668.00 351.00 L 696.00 353.00 L 717.00 352.00 L 731.00 348.00 L 751.00 348.00 L 777.00 352.00 L 807.00 360.00 L 841.00 372.00 L 881.00 389.00 L 927.00 411.00 L 963.00 431.00 L 989.00 449.00 L 1002.00 464.00 L 1002.00 476.00 L 1003.00 483.00 L 1005.00 485.00 L 1008.00 483.00 L 1012.00 477.00 L 1013.00 478.00 L 1011.00 486.00 L 1012.00 487.00 L 1016.00 481.00 L 1016.00 483.00 L 1012.00 493.00 L 1013.00 494.00 L 1019.00 486.00 L 1021.00 488.00 L 1019.00 500.00 L 1021.00 502.00 L 1027.00 494.00 L 1028.00 497.00 L 1024.00 511.00 L 1025.00 513.00 L 1031.00 503.00 L 1032.00 505.00 L 1028.00 519.00 L 1029.00 523.00 L 1035.00 517.00 L 1036.00 520.00 L 1032.00 532.00 L 1032.00 536.00 L 1036.00 532.00 L 1037.00 534.00 L 1035.00 542.00 L 1036.00 556.00 L 1040.00 576.00 L 1045.00 599.00 L 1051.00 625.00 L 1055.00 640.00 L 1057.00 644.00 L 1059.00 645.00 L 1061.00 643.00 L 1062.00 648.00 L 1062.00 660.00 L 1056.00 675.00 L 1044.00 693.00 L 1040.00 700.00 L 1044.00 696.00 L 1045.00 700.00 L 1043.00 712.00 L 1051.00 733.00 L 1069.00 763.00 L 1087.00 788.00 L 1105.00 808.00 L 1116.00 828.00 L 1120.00 848.00 L 1118.00 863.00 L 1110.00 873.00 L 1099.00 881.00 L 1085.00 887.00 L 1084.00 888.00 L 1096.00 884.00 L 1095.00 885.00 L 1081.00 891.00 L 1080.00 892.00 L 1092.00 888.00 L 1091.00 890.00 L 1077.00 898.00 L 1074.00 918.00 L 1082.00 950.00 L 1081.00 975.00 L 1071.00 993.00 L 1070.00 1011.00 L 1078.00 1029.00 L 1078.00 1048.00 L 1070.00 1068.00 L 1049.00 1087.00 L 1015.00 1105.00 L 1004.00 1120.00 L 1016.00 1132.00 L 1014.00 1133.00 L 998.00 1123.00 L 999.00 1124.00 L 1017.00 1136.00 L 1016.00 1137.00 L 996.00 1127.00 L 995.00 1129.00 L 1013.00 1143.00 L 1019.00 1154.00 L 1013.00 1162.00 L 1007.00 1177.00 L 1001.00 1199.00 L 1001.00 1219.00 L 1007.00 1237.00 L 1006.00 1242.00 L 998.00 1234.00 L 1000.00 1238.00 L 1012.00 1254.00 L 1011.00 1256.00 L 997.00 1244.00 L 1004.00 1261.00 L 1032.00 1307.00 L 1039.00 1321.00 L 1025.00 1303.00 L 1028.00 1308.00 L 1048.00 1336.00 L 1044.00 1333.00 L 1016.00 1299.00 L 1015.00 1301.00 L 1041.00 1339.00 L 1039.00 1339.00 L 1009.00 1301.00 L 1003.00 1296.00 L 1021.00 1324.00 L 1020.00 1330.00 L 1000.00 1314.00 L 991.00 1309.00 L 993.00 1315.00 L 991.00 1314.00 L 985.00 1306.00 L 1009.00 1347.00 L 1063.00 1437.00 L 1063.00 1438.00 L 1009.00 1350.00 L 1009.00 1351.00 L 1063.00 1441.00 L 1091.00 1488.00 L 1093.00 1492.00 L 1082.00 1475.00 L 1058.00 1437.00 L 1059.00 1440.00 L 1085.00 1484.00 L 1083.00 1481.00 L 1053.00 1431.00 L 1054.00 1434.00 L 1086.00 1490.00 L 1077.00 1476.00 L 1027.00 1392.00 L 1029.00 1396.00 L 1083.00 1488.00 L 1089.00 1499.00 L 1047.00 1429.00 L 1048.00 1432.00 L 1092.00 1508.00 L 1089.00 1504.00 L 1039.00 1420.00 L 1039.00 1422.00 L 1089.00 1510.00 L 1088.00 1509.00 L 1036.00 1419.00 L 1036.00 1421.00 L 1088.00 1515.00 L 1085.00 1511.00 L 1027.00 1409.00 L 1027.00 1411.00 L 1085.00 1517.00 L 1115.00 1589.00 L 1117.00 1627.00 L 1115.00 1652.00 L 1109.00 1664.00 L 1104.00 1671.00 L 1100.00 1673.00 L 1093.00 1672.00 L 1083.00 1668.00 L 1060.00 1650.00 L 1024.00 1618.00 L 981.00 1584.00 L 931.00 1548.00 L 870.00 1511.00 L 798.00 1473.00 L 733.00 1444.00 L 675.00 1424.00 L 598.00 1404.00 L 502.00 1384.00 L 447.00 1371.00 L 433.00 1365.00 L 420.00 1356.00 L 408.00 1344.00 L 401.00 1325.00 L 399.00 1299.00 L 409.00 1250.00 L 431.00 1178.00 L 439.00 1135.00 L 433.00 1121.00 L 430.00 1106.00 L 430.00 1090.00 L 434.00 1060.00 L 442.00 1016.00 L 446.00 993.00 L 446.00 991.00 L 446.00 983.00 Z" fill="black" stroke="black" stroke-width="1"/>
</svg>