<?xml version="1.0" encoding="UTF-8"?>
<svg xmlns="http://www.w3.org/2000/svg" viewBox="375.00 308.00 801.00 1339.00">
  <path d="M 425.00 944.00 L 423.00 940.00 L 424.00 934.00 L 428.00 926.00 L 428.00 916.00 L 424.00 904.00 L 425.00 889.00 L 431.00 871.00 L 421.00 856.00 L 395.00 844.00 L 395.00 841.00 L 421.00 847.00 L 419.00 845.00 L 389.00 835.00 L 388.00 834.00 L 416.00 842.00 L 415.00 840.00 L 385.00 828.00 L 392.00 784.00 L 436.00 708.00 L 459.00 665.00 L 461.00 655.00 L 460.00 641.00 L 456.00 623.00 L 461.00 592.00 L 475.00 548.00 L 477.00 513.00 L 467.00 487.00 L 468.00 483.00 L 480.00 501.00 L 482.00 503.00 L 474.00 489.00 L 472.00 482.00 L 476.00 482.00 L 481.00 487.00 L 487.00 497.00 L 485.00 493.00 L 475.00 475.00 L 475.00 473.00 L 485.00 487.00 L 487.00 485.00 L 481.00 467.00 L 483.00 463.00 L 493.00 473.00 L 495.00 471.00 L 489.00 457.00 L 487.00 449.00 L 489.00 447.00 L 494.00 450.00 L 502.00 458.00 L 505.00 456.00 L 503.00 444.00 L 508.00 431.00 L 520.00 417.00 L 547.00 396.00 L 589.00 368.00 L 624.00 348.00 L 652.00 336.00 L 682.00 327.00 L 714.00 321.00 L 756.00 318.00 L 808.00 318.00 L 856.00 321.00 L 900.00 327.00 L 952.00 343.00 L 1012.00 369.00 L 1056.00 394.00 L 1084.00 418.00 L 1098.00 432.00 L 1098.00 436.00 L 1099.00 437.00 L 1101.00 435.00 L 1108.00 443.00 L 1120.00 461.00 L 1129.00 467.00 L 1135.00 461.00 L 1139.00 459.00 L 1141.00 461.00 L 1139.00 466.00 L 1133.00 474.00 L 1131.00 481.00 L 1133.00 487.00 L 1138.00 486.00 L 1146.00 478.00 L 1147.00 479.00 L 1141.00 489.00 L 1142.00 491.00 L 1150.00 485.00 L 1151.00 486.00 L 1145.00 494.00 L 1147.00 496.00 L 1157.00 492.00 L 1158.00 495.00 L 1150.00 505.00 L 1147.00 511.00 L 1149.00 513.00 L 1153.00 511.00 L 1159.00 505.00 L 1160.00 508.00 L 1156.00 520.00 L 1157.00 538.00 L 1163.00 562.00 L 1166.00 590.00 L 1166.00 622.00 L 1163.00 646.00 L 1157.00 662.00 L 1155.00 675.00 L 1157.00 685.00 L 1148.00 715.00 L 1128.00 765.00 L 1114.00 797.00 L 1106.00 811.00 L 1096.00 821.00 L 1084.00 827.00 L 1083.00 829.00 L 1093.00 827.00 L 1095.00 828.00 L 1089.00 832.00 L 1088.00 834.00 L 1092.00 834.00 L 1092.00 835.00 L 1088.00 837.00 L 1086.00 841.00 L 1086.00 847.00 L 1089.00 858.00 L 1095.00 874.00 L 1103.00 888.00 L 1113.00 900.00 L 1120.00 950.00 L 1124.00 1038.00 L 1122.00 1091.00 L 1114.00 1109.00 L 1112.00 1126.00 L 1116.00 1142.00 L 1117.00 1158.00 L 1115.00 1174.00 L 1117.00 1193.00 L 1123.00 1215.00 L 1125.00 1231.00 L 1123.00 1241.00 L 1127.00 1260.00 L 1137.00 1288.00 L 1142.00 1315.00 L 1142.00 1341.00 L 1136.00 1363.00 L 1124.00 1381.00 L 1107.00 1394.00 L 1085.00 1402.00 L 1017.00 1415.00 L 903.00 1433.00 L 832.00 1446.00 L 804.00 1454.00 L 758.00 1470.00 L 694.00 1494.00 L 639.00 1519.00 L 593.00 1545.00 L 569.00 1557.00 L 567.00 1555.00 L 538.00 1573.00 L 482.00 1611.00 L 448.00 1632.00 L 436.00 1636.00 L 427.00 1637.00 L 421.00 1635.00 L 413.00 1629.00 L 403.00 1619.00 L 396.00 1608.00 L 392.00 1596.00 L 391.00 1567.00 L 393.00 1521.00 L 393.00 1499.00 L 391.00 1501.00 L 394.00 1487.00 L 402.00 1457.00 L 422.00 1417.00 L 454.00 1367.00 L 458.00 1358.00 L 434.00 1390.00 L 434.00 1387.00 L 458.00 1349.00 L 469.00 1327.00 L 467.00 1321.00 L 479.00 1300.00 L 505.00 1264.00 L 506.00 1261.00 L 482.00 1291.00 L 482.00 1289.00 L 506.00 1255.00 L 506.00 1252.00 L 482.00 1280.00 L 482.00 1277.00 L 506.00 1243.00 L 510.00 1202.00 L 494.00 1154.00 L 496.00 1121.00 L 516.00 1103.00 L 515.00 1101.00 L 493.00 1115.00 L 493.00 1114.00 L 515.00 1098.00 L 516.00 1096.00 L 496.00 1108.00 L 494.00 1109.00 L 510.00 1099.00 L 512.00 1097.00 L 500.00 1103.00 L 499.00 1101.00 L 509.00 1091.00 L 502.00 1082.00 L 478.00 1074.00 L 460.00 1064.00 L 448.00 1052.00 L 441.00 1040.00 L 439.00 1028.00 L 441.00 1011.00 L 447.00 989.00 L 446.00 972.00 L 438.00 960.00 L 432.00 952.00 L 428.00 948.00 L 425.00 944.00 Z" fill="black" stroke="black" stroke-width="1"/>
</svg>