<?xml version="1.0" encoding="UTF-8"?>
<svg xmlns="http://www.w3.org/2000/svg" viewBox="351.00 292.00 842.00 1428.00">
  <path d="M 417.00 1024.00 L 439.00 964.00 L 450.00 921.00 L 450.00 895.00 L 436.00 841.00 L 408.00 759.00 L 394.00 695.00 L 394.00 649.00 L 400.00 601.00 L 412.00 551.00 L 439.00 494.00 L 481.00 430.00 L 524.00 380.00 L 568.00 344.00 L 615.00 318.00 L 665.00 302.00 L 735.00 303.00 L 825.00 321.00 L 899.00 346.00 L 957.00 378.00 L 1002.00 412.00 L 1034.00 448.00 L 1051.00 475.00 L 1053.00 493.00 L 1057.00 498.00 L 1063.00 490.00 L 1065.00 494.00 L 1063.00 510.00 L 1065.00 513.00 L 1071.00 503.00 L 1072.00 505.00 L 1068.00 519.00 L 1071.00 522.00 L 1081.00 514.00 L 1085.00 520.00 L 1083.00 540.00 L 1086.00 545.00 L 1094.00 535.00 L 1096.00 540.00 L 1092.00 560.00 L 1095.00 566.00 L 1105.00 558.00 L 1106.00 561.00 L 1098.00 575.00 L 1099.00 578.00 L 1109.00 570.00 L 1109.00 573.00 L 1099.00 587.00 L 1100.00 589.00 L 1112.00 579.00 L 1113.00 581.00 L 1103.00 595.00 L 1104.00 596.00 L 1116.00 584.00 L 1117.00 587.00 L 1107.00 605.00 L 1108.00 608.00 L 1120.00 596.00 L 1120.00 598.00 L 1108.00 614.00 L 1109.00 617.00 L 1123.00 607.00 L 1124.00 610.00 L 1112.00 626.00 L 1110.00 646.00 L 1118.00 670.00 L 1120.00 702.00 L 1116.00 742.00 L 1132.00 796.00 L 1168.00 864.00 L 1169.00 907.00 L 1135.00 925.00 L 1136.00 928.00 L 1172.00 916.00 L 1171.00 919.00 L 1133.00 937.00 L 1131.00 941.00 L 1165.00 931.00 L 1165.00 933.00 L 1131.00 947.00 L 1116.00 962.00 L 1120.00 978.00 L 1110.00 1002.00 L 1086.00 1034.00 L 1078.00 1064.00 L 1086.00 1092.00 L 1072.00 1118.00 L 1036.00 1142.00 L 1021.00 1158.00 L 1027.00 1166.00 L 1023.00 1168.00 L 1009.00 1164.00 L 1010.00 1167.00 L 1026.00 1177.00 L 1023.00 1203.00 L 1001.00 1245.00 L 993.00 1272.00 L 999.00 1284.00 L 998.00 1287.00 L 990.00 1281.00 L 1008.00 1303.00 L 1052.00 1353.00 L 1067.00 1372.00 L 1053.00 1360.00 L 1065.00 1383.00 L 1103.00 1441.00 L 1112.00 1461.00 L 1092.00 1443.00 L 1092.00 1445.00 L 1112.00 1467.00 L 1126.00 1493.00 L 1134.00 1523.00 L 1133.00 1532.00 L 1123.00 1520.00 L 1132.00 1540.00 L 1160.00 1592.00 L 1177.00 1630.00 L 1183.00 1654.00 L 1183.00 1674.00 L 1177.00 1690.00 L 1157.00 1702.00 L 1123.00 1710.00 L 1034.00 1678.00 L 890.00 1606.00 L 708.00 1552.00 L 488.00 1516.00 L 376.00 1488.00 L 372.00 1468.00 L 376.00 1445.00 L 388.00 1419.00 L 387.00 1411.00 L 373.00 1421.00 L 375.00 1415.00 L 393.00 1393.00 L 391.00 1392.00 L 369.00 1412.00 L 369.00 1409.00 L 391.00 1383.00 L 391.00 1380.00 L 369.00 1400.00 L 370.00 1398.00 L 394.00 1374.00 L 394.00 1372.00 L 370.00 1392.00 L 375.00 1381.00 L 409.00 1339.00 L 411.00 1330.00 L 381.00 1354.00 L 383.00 1346.00 L 417.00 1306.00 L 419.00 1297.00 L 389.00 1319.00 L 391.00 1317.00 L 425.00 1291.00 L 421.00 1292.00 L 379.00 1320.00 L 382.00 1315.00 L 430.00 1277.00 L 425.00 1275.00 L 367.00 1309.00 L 368.00 1304.00 L 428.00 1260.00 L 426.00 1257.00 L 362.00 1295.00 L 361.00 1293.00 L 423.00 1251.00 L 425.00 1245.00 L 367.00 1275.00 L 367.00 1273.00 L 425.00 1239.00 L 426.00 1237.00 L 370.00 1267.00 L 370.00 1264.00 L 426.00 1228.00 L 432.00 1220.00 L 388.00 1240.00 L 388.00 1236.00 L 432.00 1208.00 L 434.00 1203.00 L 394.00 1221.00 L 394.00 1219.00 L 434.00 1197.00 L 435.00 1194.00 L 397.00 1210.00 L 398.00 1209.00 L 438.00 1191.00 L 438.00 1189.00 L 398.00 1203.00 L 398.00 1200.00 L 438.00 1180.00 L 439.00 1177.00 L 401.00 1191.00 L 401.00 1187.00 L 439.00 1165.00 L 439.00 1159.00 L 401.00 1169.00 L 401.00 1166.00 L 439.00 1150.00 L 440.00 1147.00 L 404.00 1157.00 L 404.00 1155.00 L 440.00 1141.00 L 440.00 1138.00 L 404.00 1146.00 L 404.00 1143.00 L 440.00 1129.00 L 441.00 1125.00 L 407.00 1131.00 L 394.00 1116.00 L 402.00 1080.00 L 406.00 1060.00 L 406.00 1056.00 L 417.00 1024.00 Z" fill="black" stroke="black" stroke-width="1"/>
</svg>