<?xml version="1.0" encoding="UTF-8"?>
<svg xmlns="http://www.w3.org/2000/svg" viewBox="395.00 295.00 793.00 1384.00">
  <path d="M 468.00 1041.00 L 504.00 1039.00 L 505.00 1036.00 L 471.00 1032.00 L 471.00 1029.00 L 505.00 1027.00 L 506.00 1022.00 L 474.00 1014.00 L 475.00 1011.00 L 509.00 1013.00 L 510.00 1011.00 L 478.00 1005.00 L 478.00 1002.00 L 510.00 1002.00 L 511.00 999.00 L 481.00 993.00 L 481.00 991.00 L 511.00 993.00 L 512.00 991.00 L 484.00 985.00 L 484.00 983.00 L 512.00 985.00 L 513.00 981.00 L 487.00 971.00 L 487.00 968.00 L 513.00 972.00 L 514.00 966.00 L 490.00 950.00 L 492.00 946.00 L 520.00 954.00 L 520.00 952.00 L 492.00 940.00 L 493.00 939.00 L 523.00 949.00 L 523.00 947.00 L 493.00 933.00 L 456.00 856.00 L 412.00 716.00 L 405.00 605.00 L 435.00 523.00 L 480.00 449.00 L 540.00 383.00 L 591.00 341.00 L 633.00 323.00 L 696.00 311.00 L 780.00 305.00 L 859.00 317.00 L 933.00 347.00 L 1007.00 417.00 L 1081.00 527.00 L 1117.00 626.00 L 1115.00 714.00 L 1133.00 790.00 L 1171.00 854.00 L 1174.00 898.00 L 1142.00 922.00 L 1116.00 991.00 L 1096.00 1105.00 L 1080.00 1160.00 L 1068.00 1156.00 L 1069.00 1158.00 L 1083.00 1166.00 L 1081.00 1168.00 L 1063.00 1164.00 L 1062.00 1166.00 L 1078.00 1174.00 L 1079.00 1212.00 L 1065.00 1280.00 L 1078.00 1333.00 L 1118.00 1371.00 L 1117.00 1371.00 L 1075.00 1333.00 L 1075.00 1336.00 L 1117.00 1380.00 L 1113.00 1385.00 L 1063.00 1351.00 L 1064.00 1381.00 L 1116.00 1475.00 L 1122.00 1497.00 L 1082.00 1447.00 L 1086.00 1453.00 L 1134.00 1515.00 L 1134.00 1517.00 L 1086.00 1459.00 L 1088.00 1465.00 L 1140.00 1535.00 L 1170.00 1603.00 L 1178.00 1669.00 L 1099.00 1656.00 L 933.00 1564.00 L 775.00 1494.00 L 625.00 1446.00 L 536.00 1403.00 L 508.00 1365.00 L 486.00 1354.00 L 470.00 1370.00 L 470.00 1360.00 L 486.00 1324.00 L 485.00 1312.00 L 467.00 1324.00 L 467.00 1320.00 L 485.00 1300.00 L 485.00 1298.00 L 467.00 1314.00 L 468.00 1311.00 L 488.00 1289.00 L 488.00 1286.00 L 468.00 1302.00 L 468.00 1300.00 L 488.00 1280.00 L 488.00 1278.00 L 468.00 1294.00 L 469.00 1292.00 L 491.00 1272.00 L 483.00 1274.00 L 445.00 1298.00 L 445.00 1295.00 L 483.00 1265.00 L 481.00 1263.00 L 439.00 1289.00 L 440.00 1280.00 L 484.00 1236.00 L 488.00 1223.00 L 452.00 1241.00 L 453.00 1238.00 L 491.00 1214.00 L 489.00 1213.00 L 447.00 1235.00 L 447.00 1233.00 L 489.00 1207.00 L 487.00 1205.00 L 441.00 1227.00 L 440.00 1225.00 L 484.00 1199.00 L 485.00 1197.00 L 443.00 1219.00 L 444.00 1216.00 L 488.00 1188.00 L 496.00 1180.00 L 468.00 1192.00 L 467.00 1189.00 L 493.00 1171.00 L 492.00 1165.00 L 464.00 1171.00 L 463.00 1166.00 L 489.00 1150.00 L 489.00 1145.00 L 463.00 1151.00 L 463.00 1148.00 L 489.00 1136.00 L 488.00 1134.00 L 460.00 1142.00 L 460.00 1140.00 L 488.00 1128.00 L 488.00 1125.00 L 460.00 1131.00 L 461.00 1128.00 L 491.00 1116.00 L 491.00 1112.00 L 461.00 1116.00 L 461.00 1114.00 L 491.00 1106.00 L 490.00 1103.00 L 458.00 1105.00 L 459.00 1102.00 L 493.00 1094.00 L 494.00 1091.00 L 462.00 1093.00 L 462.00 1091.00 L 494.00 1085.00 L 494.00 1082.00 L 462.00 1082.00 L 463.00 1079.00 L 497.00 1073.00 L 497.00 1069.00 L 463.00 1067.00 L 464.00 1062.00 L 500.00 1054.00 L 513.00 1049.00 L 503.00 1047.00 L 486.00 1045.00 L 462.00 1043.00 L 468.00 1041.00 Z" fill="black" stroke="black" stroke-width="1"/>
</svg>