<?xml version="1.0" encoding="UTF-8"?>
<svg xmlns="http://www.w3.org/2000/svg" viewBox="166.00 196.00 1099.00 1569.00">
  <path d="M 180.00 925.00 L 176.00 859.00 L 176.00 796.00 L 180.00 736.00 L 191.00 662.00 L 209.00 574.00 L 232.00 493.00 L 260.00 419.00 L 287.00 367.00 L 313.00 337.00 L 342.00 310.00 L 374.00 286.00 L 441.00 257.00 L 543.00 223.00 L 617.00 206.00 L 663.00 206.00 L 710.00 211.00 L 758.00 221.00 L 817.00 248.00 L 887.00 292.00 L 963.00 355.00 L 1045.00 437.00 L 1116.00 523.00 L 1176.00 613.00 L 1205.00 664.00 L 1203.00 676.00 L 1206.00 681.00 L 1214.00 679.00 L 1219.00 680.00 L 1221.00 684.00 L 1154.00 723.00 L 1018.00 797.00 L 1019.00 799.00 L 1157.00 729.00 L 1156.00 731.00 L 1016.00 805.00 L 1018.00 808.00 L 1162.00 740.00 L 1166.00 739.00 L 1030.00 805.00 L 1031.00 807.00 L 1169.00 745.00 L 1171.00 745.00 L 1037.00 807.00 L 1038.00 808.00 L 1174.00 748.00 L 1177.00 748.00 L 1047.00 808.00 L 1048.00 810.00 L 1180.00 754.00 L 1172.00 758.00 L 1024.00 822.00 L 1026.00 825.00 L 1178.00 767.00 L 1179.00 769.00 L 1029.00 831.00 L 1030.00 834.00 L 1182.00 778.00 L 1202.00 772.00 L 1090.00 816.00 L 1091.00 817.00 L 1205.00 775.00 L 1208.00 775.00 L 1100.00 817.00 L 1101.00 819.00 L 1211.00 781.00 L 1189.00 790.00 L 1035.00 846.00 L 1036.00 848.00 L 1192.00 796.00 L 1224.00 786.00 L 1132.00 818.00 L 1134.00 821.00 L 1230.00 795.00 L 1198.00 807.00 L 1038.00 857.00 L 1039.00 860.00 L 1201.00 816.00 L 1252.00 803.00 L 1192.00 821.00 L 1193.00 824.00 L 1255.00 812.00 L 1204.00 828.00 L 1040.00 872.00 L 1038.00 874.00 L 1198.00 834.00 L 1197.00 839.00 L 1035.00 889.00 L 955.00 919.00 L 957.00 929.00 L 975.00 956.00 L 1009.00 1000.00 L 1016.00 1031.00 L 996.00 1049.00 L 988.00 1067.00 L 992.00 1085.00 L 990.00 1098.00 L 982.00 1106.00 L 979.00 1115.00 L 981.00 1125.00 L 977.00 1134.00 L 967.00 1142.00 L 963.00 1157.00 L 965.00 1179.00 L 958.00 1198.00 L 942.00 1214.00 L 929.00 1222.00 L 919.00 1222.00 L 917.00 1228.00 L 923.00 1240.00 L 921.00 1242.00 L 911.00 1234.00 L 910.00 1237.00 L 918.00 1251.00 L 912.00 1274.00 L 892.00 1306.00 L 901.00 1369.00 L 939.00 1463.00 L 937.00 1466.00 L 895.00 1378.00 L 897.00 1383.00 L 943.00 1481.00 L 956.00 1510.00 L 936.00 1470.00 L 936.00 1472.00 L 956.00 1516.00 L 948.00 1502.00 L 912.00 1430.00 L 914.00 1438.00 L 954.00 1526.00 L 948.00 1514.00 L 896.00 1402.00 L 896.00 1407.00 L 948.00 1529.00 L 947.00 1531.00 L 893.00 1413.00 L 893.00 1421.00 L 947.00 1555.00 L 947.00 1558.00 L 893.00 1430.00 L 892.00 1433.00 L 944.00 1567.00 L 970.00 1637.00 L 970.00 1643.00 L 967.00 1645.00 L 961.00 1643.00 L 959.00 1647.00 L 961.00 1657.00 L 960.00 1657.00 L 956.00 1647.00 L 957.00 1650.00 L 963.00 1666.00 L 964.00 1686.00 L 960.00 1710.00 L 949.00 1733.00 L 931.00 1755.00 L 851.00 1714.00 L 709.00 1610.00 L 608.00 1544.00 L 548.00 1516.00 L 502.00 1487.00 L 470.00 1457.00 L 455.00 1428.00 L 457.00 1400.00 L 465.00 1368.00 L 479.00 1332.00 L 487.00 1303.00 L 489.00 1281.00 L 487.00 1263.00 L 481.00 1249.00 L 486.00 1203.00 L 502.00 1125.00 L 448.00 1122.00 L 324.00 1194.00 L 323.00 1192.00 L 445.00 1116.00 L 455.00 1109.00 L 353.00 1171.00 L 350.00 1172.00 L 446.00 1112.00 L 434.00 1116.00 L 314.00 1184.00 L 286.00 1197.00 L 350.00 1155.00 L 349.00 1152.00 L 283.00 1188.00 L 289.00 1183.00 L 367.00 1137.00 L 366.00 1134.00 L 286.00 1174.00 L 306.00 1163.00 L 426.00 1101.00 L 425.00 1098.00 L 303.00 1154.00 L 303.00 1152.00 L 425.00 1092.00 L 424.00 1091.00 L 300.00 1149.00 L 290.00 1152.00 L 394.00 1100.00 L 393.00 1097.00 L 287.00 1143.00 L 289.00 1141.00 L 399.00 1091.00 L 398.00 1089.00 L 286.00 1135.00 L 294.00 1131.00 L 422.00 1077.00 L 421.00 1074.00 L 291.00 1122.00 L 287.00 1122.00 L 409.00 1074.00 L 408.00 1071.00 L 284.00 1113.00 L 287.00 1110.00 L 417.00 1062.00 L 416.00 1059.00 L 284.00 1101.00 L 209.00 1083.00 L 191.00 1005.00 L 182.00 964.00 L 182.00 960.00 L 180.00 925.00 Z" fill="black" stroke="black" stroke-width="1"/>
</svg>