<?xml version="1.0" encoding="UTF-8"?>
<svg xmlns="http://www.w3.org/2000/svg" viewBox="329.00 283.00 807.00 1381.00">
  <path d="M 524.00 929.00 L 520.00 883.00 L 509.00 854.00 L 491.00 842.00 L 490.00 839.00 L 506.00 845.00 L 493.00 837.00 L 451.00 815.00 L 424.00 792.00 L 412.00 768.00 L 406.00 740.00 L 406.00 708.00 L 391.00 679.00 L 361.00 653.00 L 361.00 650.00 L 391.00 670.00 L 386.00 664.00 L 346.00 632.00 L 347.00 630.00 L 389.00 658.00 L 388.00 655.00 L 344.00 621.00 L 345.00 619.00 L 391.00 649.00 L 391.00 643.00 L 345.00 601.00 L 345.00 598.00 L 391.00 634.00 L 392.00 631.00 L 348.00 589.00 L 339.00 550.00 L 365.00 514.00 L 400.00 485.00 L 444.00 463.00 L 470.00 431.00 L 478.00 389.00 L 492.00 368.00 L 512.00 368.00 L 543.00 353.00 L 585.00 323.00 L 635.00 303.00 L 693.00 293.00 L 728.00 305.00 L 740.00 339.00 L 745.00 341.00 L 743.00 311.00 L 745.00 311.00 L 751.00 341.00 L 754.00 342.00 L 754.00 314.00 L 757.00 314.00 L 763.00 342.00 L 766.00 346.00 L 766.00 326.00 L 768.00 326.00 L 772.00 346.00 L 807.00 361.00 L 873.00 371.00 L 940.00 400.00 L 1008.00 448.00 L 1054.00 490.00 L 1078.00 526.00 L 1088.00 552.00 L 1084.00 568.00 L 1086.00 573.00 L 1094.00 567.00 L 1097.00 576.00 L 1095.00 600.00 L 1098.00 609.00 L 1106.00 603.00 L 1107.00 611.00 L 1101.00 633.00 L 1103.00 640.00 L 1113.00 632.00 L 1113.00 635.00 L 1103.00 649.00 L 1104.00 652.00 L 1116.00 644.00 L 1116.00 646.00 L 1104.00 658.00 L 1105.00 661.00 L 1119.00 655.00 L 1120.00 660.00 L 1108.00 676.00 L 1109.00 678.00 L 1123.00 666.00 L 1123.00 669.00 L 1109.00 687.00 L 1110.00 690.00 L 1126.00 678.00 L 1126.00 680.00 L 1110.00 696.00 L 1110.00 699.00 L 1126.00 689.00 L 1121.00 705.00 L 1095.00 747.00 L 1093.00 802.00 L 1115.00 870.00 L 1114.00 914.00 L 1090.00 934.00 L 1069.00 993.00 L 1051.00 1091.00 L 1024.00 1149.00 L 988.00 1167.00 L 957.00 1177.00 L 931.00 1179.00 L 972.00 1292.00 L 1080.00 1516.00 L 1078.00 1517.00 L 966.00 1295.00 L 967.00 1298.00 L 1081.00 1526.00 L 1122.00 1612.00 L 1090.00 1556.00 L 1089.00 1561.00 L 1119.00 1627.00 L 1117.00 1626.00 L 1083.00 1558.00 L 1083.00 1560.00 L 1117.00 1632.00 L 1116.00 1631.00 L 1080.00 1557.00 L 1079.00 1561.00 L 1113.00 1643.00 L 1110.00 1641.00 L 1070.00 1555.00 L 1069.00 1556.00 L 1107.00 1644.00 L 1070.00 1564.00 L 958.00 1316.00 L 957.00 1319.00 L 1067.00 1573.00 L 1097.00 1644.00 L 1047.00 1532.00 L 1046.00 1535.00 L 1094.00 1653.00 L 1088.00 1645.00 L 1028.00 1511.00 L 1026.00 1514.00 L 1082.00 1654.00 L 1056.00 1593.00 L 948.00 1331.00 L 946.00 1331.00 L 1050.00 1593.00 L 1069.00 1645.00 L 1003.00 1487.00 L 998.00 1483.00 L 1054.00 1633.00 L 1034.00 1583.00 L 938.00 1333.00 L 936.00 1332.00 L 1028.00 1580.00 L 1042.00 1623.00 L 978.00 1461.00 L 973.00 1456.00 L 1027.00 1608.00 L 1012.00 1567.00 L 928.00 1333.00 L 925.00 1330.00 L 1003.00 1558.00 L 1003.00 1561.00 L 925.00 1339.00 L 920.00 1334.00 L 988.00 1546.00 L 987.00 1547.00 L 917.00 1337.00 L 911.00 1331.00 L 969.00 1529.00 L 969.00 1532.00 L 911.00 1340.00 L 909.00 1338.00 L 963.00 1526.00 L 962.00 1527.00 L 906.00 1341.00 L 903.00 1338.00 L 953.00 1518.00 L 953.00 1523.00 L 903.00 1353.00 L 898.00 1349.00 L 938.00 1511.00 L 919.00 1563.00 L 841.00 1505.00 L 719.00 1443.00 L 553.00 1377.00 L 497.00 1271.00 L 551.00 1125.00 L 578.00 1047.00 L 578.00 1037.00 L 573.00 1032.00 L 563.00 1032.00 L 563.00 1030.00 L 573.00 1026.00 L 570.00 1024.00 L 554.00 1024.00 L 554.00 1021.00 L 570.00 1015.00 L 568.00 1013.00 L 548.00 1015.00 L 547.00 1013.00 L 565.00 1007.00 L 564.00 1006.00 L 544.00 1010.00 L 545.00 1009.00 L 567.00 1003.00 L 566.00 1000.00 L 542.00 1000.00 L 529.00 991.00 L 527.00 973.00 L 526.00 961.00 L 526.00 955.00 L 524.00 929.00 Z" fill="black" stroke="black" stroke-width="1"/>
</svg>