<?xml version="1.0" encoding="UTF-8"?>
<svg xmlns="http://www.w3.org/2000/svg" viewBox="323.00 156.00 911.00 1433.00">
  <path d="M 429.00 890.00 L 431.00 866.00 L 420.00 840.00 L 396.00 812.00 L 405.00 772.00 L 447.00 720.00 L 432.00 661.00 L 360.00 595.00 L 361.00 591.00 L 435.00 649.00 L 435.00 646.00 L 361.00 582.00 L 333.00 557.00 L 351.00 571.00 L 363.00 578.00 L 369.00 578.00 L 397.00 600.00 L 447.00 644.00 L 437.00 635.00 L 367.00 573.00 L 366.00 570.00 L 434.00 626.00 L 436.00 624.00 L 372.00 564.00 L 371.00 561.00 L 433.00 615.00 L 435.00 614.00 L 377.00 558.00 L 362.00 543.00 L 390.00 569.00 L 392.00 569.00 L 368.00 543.00 L 385.00 557.00 L 443.00 611.00 L 446.00 610.00 L 394.00 554.00 L 394.00 552.00 L 446.00 604.00 L 448.00 604.00 L 400.00 552.00 L 401.00 550.00 L 451.00 598.00 L 453.00 597.00 L 407.00 547.00 L 408.00 547.00 L 456.00 597.00 L 458.00 597.00 L 414.00 547.00 L 407.00 538.00 L 437.00 570.00 L 455.00 587.00 L 461.00 589.00 L 449.00 573.00 L 419.00 539.00 L 422.00 542.00 L 458.00 582.00 L 460.00 581.00 L 428.00 539.00 L 414.00 518.00 L 418.00 518.00 L 435.00 536.00 L 465.00 572.00 L 468.00 572.00 L 444.00 536.00 L 456.00 514.00 L 504.00 506.00 L 537.00 486.00 L 555.00 454.00 L 611.00 370.00 L 705.00 234.00 L 763.00 166.00 L 785.00 166.00 L 827.00 178.00 L 889.00 202.00 L 983.00 249.00 L 1109.00 319.00 L 1185.00 366.00 L 1211.00 390.00 L 1224.00 406.00 L 1224.00 414.00 L 1207.00 460.00 L 1173.00 544.00 L 1140.00 614.00 L 1108.00 670.00 L 1079.00 731.00 L 1053.00 797.00 L 1040.00 833.00 L 1040.00 839.00 L 1049.00 854.00 L 1067.00 878.00 L 1088.00 912.00 L 1112.00 956.00 L 1106.00 975.00 L 1070.00 969.00 L 1070.00 970.00 L 1106.00 978.00 L 1106.00 980.00 L 1070.00 976.00 L 1069.00 978.00 L 1103.00 986.00 L 1110.00 988.00 L 1090.00 984.00 L 1088.00 985.00 L 1104.00 991.00 L 1107.00 993.00 L 1097.00 991.00 L 1096.00 992.00 L 1104.00 996.00 L 1095.00 995.00 L 1069.00 989.00 L 1059.00 1009.00 L 1065.00 1055.00 L 1068.00 1085.00 L 1068.00 1099.00 L 1066.00 1108.00 L 1062.00 1112.00 L 1061.00 1128.00 L 1063.00 1156.00 L 1076.00 1203.00 L 1100.00 1269.00 L 1112.00 1314.00 L 1112.00 1338.00 L 1110.00 1355.00 L 1106.00 1365.00 L 1097.00 1376.00 L 1083.00 1388.00 L 1058.00 1400.00 L 1022.00 1412.00 L 961.00 1422.00 L 875.00 1430.00 L 800.00 1441.00 L 736.00 1455.00 L 675.00 1471.00 L 617.00 1489.00 L 564.00 1509.00 L 516.00 1531.00 L 473.00 1548.00 L 435.00 1560.00 L 412.00 1570.00 L 404.00 1578.00 L 400.00 1579.00 L 400.00 1573.00 L 398.00 1572.00 L 394.00 1576.00 L 394.00 1574.00 L 398.00 1566.00 L 398.00 1560.00 L 394.00 1556.00 L 432.00 1477.00 L 512.00 1323.00 L 509.00 1321.00 L 423.00 1471.00 L 422.00 1469.00 L 506.00 1315.00 L 505.00 1313.00 L 419.00 1463.00 L 415.00 1468.00 L 493.00 1328.00 L 493.00 1324.00 L 415.00 1456.00 L 418.00 1450.00 L 502.00 1306.00 L 502.00 1304.00 L 418.00 1444.00 L 413.00 1451.00 L 487.00 1325.00 L 487.00 1322.00 L 413.00 1442.00 L 411.00 1444.00 L 481.00 1328.00 L 482.00 1325.00 L 414.00 1435.00 L 411.00 1438.00 L 473.00 1334.00 L 473.00 1332.00 L 411.00 1432.00 L 421.00 1415.00 L 503.00 1281.00 L 504.00 1278.00 L 424.00 1406.00 L 392.00 1456.00 L 408.00 1428.00 L 409.00 1425.00 L 395.00 1447.00 L 427.00 1394.00 L 505.00 1266.00 L 533.00 1217.00 L 511.00 1247.00 L 509.00 1248.00 L 527.00 1220.00 L 523.00 1224.00 L 497.00 1260.00 L 486.00 1275.00 L 490.00 1269.00 L 485.00 1271.00 L 471.00 1281.00 L 466.00 1281.00 L 470.00 1271.00 L 493.00 1237.00 L 535.00 1179.00 L 532.00 1182.00 L 484.00 1246.00 L 483.00 1243.00 L 529.00 1173.00 L 544.00 1146.00 L 528.00 1162.00 L 525.00 1160.00 L 535.00 1140.00 L 532.00 1119.00 L 516.00 1097.00 L 512.00 1082.00 L 520.00 1074.00 L 521.00 1072.00 L 515.00 1076.00 L 512.00 1075.00 L 512.00 1069.00 L 502.00 1063.00 L 482.00 1057.00 L 468.00 1049.00 L 460.00 1039.00 L 454.00 1026.00 L 450.00 1010.00 L 451.00 993.00 L 457.00 975.00 L 454.00 959.00 L 442.00 945.00 L 438.00 934.00 L 442.00 926.00 L 441.00 919.00 L 435.00 913.00 L 431.00 908.00 L 429.00 904.00 L 429.00 890.00 Z" fill="black" stroke="black" stroke-width="1"/>
</svg>