<?xml version="1.0" encoding="UTF-8"?>
<svg xmlns="http://www.w3.org/2000/svg" viewBox="320.00 236.00 874.00 1422.00">
  <path d="M 437.00 944.00 L 451.00 940.00 L 460.00 933.00 L 464.00 923.00 L 462.00 913.00 L 454.00 903.00 L 455.00 878.00 L 465.00 838.00 L 465.00 801.00 L 455.00 767.00 L 437.00 724.00 L 411.00 672.00 L 397.00 613.00 L 395.00 547.00 L 396.00 499.00 L 400.00 469.00 L 409.00 432.00 L 423.00 388.00 L 443.00 350.00 L 469.00 318.00 L 493.00 295.00 L 515.00 281.00 L 551.00 266.00 L 601.00 250.00 L 672.00 246.00 L 764.00 254.00 L 836.00 272.00 L 888.00 300.00 L 929.00 329.00 L 959.00 359.00 L 983.00 379.00 L 1001.00 389.00 L 1020.00 403.00 L 1040.00 421.00 L 1050.00 440.00 L 1050.00 460.00 L 1053.00 465.00 L 1059.00 455.00 L 1060.00 457.00 L 1056.00 471.00 L 1057.00 474.00 L 1063.00 466.00 L 1064.00 469.00 L 1060.00 483.00 L 1061.00 485.00 L 1067.00 475.00 L 1071.00 473.00 L 1073.00 479.00 L 1071.00 488.00 L 1065.00 500.00 L 1066.00 502.00 L 1074.00 494.00 L 1075.00 499.00 L 1069.00 517.00 L 1071.00 521.00 L 1081.00 511.00 L 1082.00 514.00 L 1074.00 530.00 L 1075.00 531.00 L 1085.00 517.00 L 1086.00 518.00 L 1078.00 534.00 L 1079.00 536.00 L 1089.00 524.00 L 1095.00 519.00 L 1097.00 521.00 L 1093.00 529.00 L 1083.00 543.00 L 1084.00 545.00 L 1096.00 535.00 L 1097.00 538.00 L 1087.00 554.00 L 1088.00 556.00 L 1100.00 544.00 L 1101.00 547.00 L 1091.00 565.00 L 1092.00 567.00 L 1104.00 553.00 L 1105.00 555.00 L 1095.00 573.00 L 1096.00 576.00 L 1108.00 564.00 L 1109.00 567.00 L 1099.00 585.00 L 1100.00 587.00 L 1112.00 573.00 L 1112.00 576.00 L 1100.00 596.00 L 1095.00 618.00 L 1097.00 642.00 L 1106.00 668.00 L 1122.00 696.00 L 1142.00 723.00 L 1166.00 749.00 L 1180.00 769.00 L 1184.00 783.00 L 1183.00 794.00 L 1177.00 802.00 L 1162.00 812.00 L 1138.00 824.00 L 1136.00 827.00 L 1156.00 821.00 L 1155.00 824.00 L 1133.00 836.00 L 1123.00 853.00 L 1125.00 875.00 L 1124.00 888.00 L 1120.00 892.00 L 1120.00 899.00 L 1124.00 909.00 L 1122.00 922.00 L 1114.00 938.00 L 1113.00 955.00 L 1119.00 973.00 L 1121.00 994.00 L 1119.00 1018.00 L 1109.00 1037.00 L 1091.00 1051.00 L 1067.00 1059.00 L 1037.00 1061.00 L 1024.00 1069.00 L 1028.00 1083.00 L 1016.00 1102.00 L 988.00 1126.00 L 980.00 1148.00 L 992.00 1168.00 L 990.00 1170.00 L 974.00 1154.00 L 974.00 1157.00 L 990.00 1179.00 L 990.00 1181.00 L 974.00 1163.00 L 973.00 1165.00 L 987.00 1187.00 L 991.00 1199.00 L 985.00 1201.00 L 978.00 1200.00 L 970.00 1196.00 L 970.00 1200.00 L 978.00 1212.00 L 977.00 1211.00 L 967.00 1197.00 L 970.00 1203.00 L 986.00 1229.00 L 991.00 1248.00 L 985.00 1260.00 L 971.00 1249.00 L 949.00 1215.00 L 947.00 1214.00 L 965.00 1246.00 L 967.00 1252.00 L 953.00 1232.00 L 961.00 1255.00 L 991.00 1321.00 L 992.00 1328.00 L 964.00 1276.00 L 988.00 1324.00 L 1064.00 1472.00 L 1066.00 1477.00 L 994.00 1339.00 L 997.00 1346.00 L 1075.00 1498.00 L 1073.00 1495.00 L 991.00 1337.00 L 991.00 1339.00 L 1073.00 1501.00 L 1091.00 1538.00 L 1045.00 1450.00 L 1045.00 1452.00 L 1091.00 1544.00 L 1075.00 1513.00 L 997.00 1359.00 L 997.00 1360.00 L 1075.00 1516.00 L 1073.00 1513.00 L 991.00 1351.00 L 991.00 1354.00 L 1073.00 1522.00 L 1115.00 1611.00 L 1117.00 1621.00 L 1115.00 1630.00 L 1109.00 1638.00 L 1101.00 1644.00 L 1091.00 1648.00 L 1077.00 1648.00 L 1059.00 1644.00 L 1039.00 1630.00 L 1017.00 1606.00 L 987.00 1579.00 L 949.00 1549.00 L 904.00 1519.00 L 852.00 1489.00 L 787.00 1457.00 L 709.00 1423.00 L 626.00 1394.00 L 538.00 1370.00 L 468.00 1355.00 L 416.00 1349.00 L 378.00 1339.00 L 354.00 1325.00 L 339.00 1311.00 L 333.00 1297.00 L 330.00 1278.00 L 330.00 1254.00 L 337.00 1228.00 L 351.00 1200.00 L 361.00 1176.00 L 367.00 1156.00 L 368.00 1139.00 L 364.00 1125.00 L 363.00 1114.00 L 365.00 1106.00 L 380.00 1065.00 L 408.00 991.00 L 424.00 952.00 L 428.00 948.00 L 437.00 944.00 Z" fill="black" stroke="black" stroke-width="1"/>
</svg>