<?xml version="1.0" encoding="UTF-8"?>
<svg xmlns="http://www.w3.org/2000/svg" viewBox="443.00 340.00 861.00 1279.00">
  <path d="M 477.00 925.00 L 499.00 859.00 L 510.00 813.00 L 510.00 787.00 L 509.00 768.00 L 507.00 756.00 L 495.00 741.00 L 473.00 723.00 L 473.00 721.00 L 495.00 735.00 L 496.00 732.00 L 476.00 712.00 L 476.00 708.00 L 496.00 720.00 L 497.00 718.00 L 479.00 702.00 L 479.00 701.00 L 497.00 715.00 L 498.00 714.00 L 482.00 698.00 L 483.00 696.00 L 501.00 708.00 L 502.00 706.00 L 486.00 690.00 L 486.00 688.00 L 502.00 700.00 L 503.00 697.00 L 489.00 679.00 L 490.00 674.00 L 506.00 682.00 L 508.00 679.00 L 496.00 665.00 L 496.00 662.00 L 508.00 670.00 L 509.00 667.00 L 499.00 653.00 L 500.00 650.00 L 512.00 658.00 L 513.00 656.00 L 503.00 644.00 L 503.00 643.00 L 513.00 653.00 L 514.00 650.00 L 506.00 634.00 L 507.00 630.00 L 517.00 638.00 L 517.00 635.00 L 507.00 621.00 L 508.00 618.00 L 520.00 626.00 L 521.00 623.00 L 511.00 609.00 L 511.00 608.00 L 521.00 620.00 L 523.00 617.00 L 517.00 599.00 L 520.00 593.00 L 532.00 599.00 L 534.00 596.00 L 526.00 584.00 L 535.00 564.00 L 561.00 536.00 L 609.00 502.00 L 679.00 462.00 L 729.00 440.00 L 759.00 436.00 L 776.00 423.00 L 780.00 401.00 L 783.00 402.00 L 785.00 426.00 L 786.00 424.00 L 786.00 396.00 L 787.00 396.00 L 789.00 424.00 L 791.00 422.00 L 793.00 390.00 L 795.00 390.00 L 797.00 422.00 L 800.00 421.00 L 804.00 387.00 L 807.00 387.00 L 809.00 421.00 L 812.00 420.00 L 816.00 384.00 L 828.00 362.00 L 848.00 354.00 L 873.00 350.00 L 903.00 350.00 L 936.00 358.00 L 972.00 374.00 L 998.00 380.00 L 1014.00 376.00 L 1031.00 386.00 L 1049.00 410.00 L 1068.00 423.00 L 1088.00 425.00 L 1116.00 436.00 L 1152.00 456.00 L 1193.00 495.00 L 1239.00 553.00 L 1270.00 606.00 L 1286.00 654.00 L 1294.00 702.00 L 1294.00 750.00 L 1265.00 787.00 L 1207.00 813.00 L 1206.00 816.00 L 1262.00 796.00 L 1261.00 798.00 L 1203.00 822.00 L 1202.00 824.00 L 1258.00 804.00 L 1261.00 803.00 L 1211.00 821.00 L 1210.00 823.00 L 1258.00 809.00 L 1254.00 812.00 L 1198.00 832.00 L 1196.00 834.00 L 1248.00 818.00 L 1246.00 820.00 L 1190.00 840.00 L 1188.00 842.00 L 1240.00 826.00 L 1239.00 828.00 L 1185.00 848.00 L 1146.00 882.00 L 1122.00 930.00 L 1098.00 965.00 L 1074.00 987.00 L 1049.00 1000.00 L 1023.00 1004.00 L 1008.00 1009.00 L 1004.00 1015.00 L 1000.00 1041.00 L 996.00 1087.00 L 998.00 1142.00 L 1006.00 1206.00 L 1017.00 1257.00 L 1031.00 1295.00 L 1040.00 1331.00 L 1044.00 1365.00 L 1044.00 1390.00 L 1040.00 1406.00 L 1026.00 1423.00 L 1002.00 1441.00 L 930.00 1468.00 L 810.00 1504.00 L 697.00 1551.00 L 591.00 1609.00 L 570.00 1552.00 L 634.00 1380.00 L 631.00 1382.00 L 561.00 1558.00 L 562.00 1555.00 L 634.00 1373.00 L 631.00 1376.00 L 553.00 1564.00 L 553.00 1562.00 L 631.00 1370.00 L 628.00 1372.00 L 544.00 1568.00 L 547.00 1557.00 L 637.00 1339.00 L 634.00 1340.00 L 538.00 1560.00 L 541.00 1551.00 L 643.00 1313.00 L 641.00 1311.00 L 535.00 1545.00 L 535.00 1544.00 L 641.00 1308.00 L 640.00 1306.00 L 532.00 1538.00 L 507.00 1591.00 L 565.00 1465.00 L 564.00 1464.00 L 504.00 1588.00 L 501.00 1592.00 L 555.00 1476.00 L 553.00 1474.00 L 495.00 1586.00 L 522.00 1527.00 L 634.00 1297.00 L 633.00 1296.00 L 519.00 1524.00 L 518.00 1524.00 L 630.00 1296.00 L 628.00 1293.00 L 512.00 1515.00 L 476.00 1583.00 L 520.00 1497.00 L 520.00 1496.00 L 476.00 1580.00 L 474.00 1582.00 L 514.00 1502.00 L 513.00 1499.00 L 471.00 1573.00 L 466.00 1577.00 L 498.00 1511.00 L 497.00 1507.00 L 463.00 1565.00 L 503.00 1491.00 L 617.00 1285.00 L 617.00 1282.00 L 503.00 1482.00 L 459.00 1559.00 L 485.00 1513.00 L 485.00 1511.00 L 459.00 1553.00 L 456.00 1555.00 L 476.00 1517.00 L 476.00 1515.00 L 456.00 1549.00 L 453.00 1553.00 L 467.00 1527.00 L 468.00 1523.00 L 456.00 1541.00 L 453.00 1544.00 L 459.00 1532.00 L 512.00 1440.00 L 612.00 1268.00 L 649.00 1184.00 L 623.00 1188.00 L 599.00 1182.00 L 577.00 1166.00 L 552.00 1130.00 L 524.00 1074.00 L 511.00 1033.00 L 513.00 1007.00 L 505.00 988.00 L 487.00 976.00 L 475.00 967.00 L 469.00 961.00 L 477.00 925.00 Z" fill="black" stroke="black" stroke-width="1"/>
</svg>