<?xml version="1.0" encoding="UTF-8"?>
<svg xmlns="http://www.w3.org/2000/svg" viewBox="448.00 185.00 972.00 1634.00">
  <path d="M 568.00 1016.00 L 572.00 996.00 L 568.00 975.00 L 556.00 953.00 L 551.00 937.00 L 553.00 927.00 L 550.00 919.00 L 542.00 913.00 L 536.00 905.00 L 532.00 895.00 L 530.00 879.00 L 530.00 857.00 L 515.00 838.00 L 485.00 822.00 L 483.00 820.00 L 509.00 832.00 L 506.00 829.00 L 474.00 811.00 L 458.00 797.00 L 458.00 787.00 L 482.00 744.00 L 530.00 668.00 L 556.00 612.00 L 560.00 576.00 L 576.00 526.00 L 604.00 462.00 L 632.00 414.00 L 660.00 382.00 L 681.00 353.00 L 695.00 327.00 L 711.00 305.00 L 729.00 287.00 L 754.00 268.00 L 786.00 248.00 L 824.00 229.00 L 868.00 211.00 L 902.00 200.00 L 926.00 196.00 L 968.00 195.00 L 1028.00 197.00 L 1064.00 200.00 L 1076.00 204.00 L 1084.00 212.00 L 1088.00 224.00 L 1091.00 225.00 L 1093.00 215.00 L 1095.00 215.00 L 1097.00 225.00 L 1116.00 236.00 L 1152.00 248.00 L 1186.00 265.00 L 1218.00 287.00 L 1250.00 313.00 L 1282.00 343.00 L 1312.00 379.00 L 1340.00 421.00 L 1363.00 464.00 L 1381.00 508.00 L 1395.00 549.00 L 1405.00 587.00 L 1410.00 618.00 L 1410.00 642.00 L 1407.00 666.00 L 1401.00 690.00 L 1384.00 726.00 L 1356.00 774.00 L 1334.00 824.00 L 1318.00 876.00 L 1315.00 912.00 L 1325.00 932.00 L 1330.00 950.00 L 1330.00 966.00 L 1334.00 985.00 L 1342.00 1007.00 L 1346.00 1028.00 L 1346.00 1048.00 L 1331.00 1058.00 L 1301.00 1058.00 L 1300.00 1061.00 L 1328.00 1067.00 L 1342.00 1072.00 L 1342.00 1076.00 L 1328.00 1077.00 L 1300.00 1075.00 L 1299.00 1077.00 L 1325.00 1083.00 L 1326.00 1085.00 L 1302.00 1083.00 L 1290.00 1084.00 L 1290.00 1088.00 L 1302.00 1092.00 L 1326.00 1096.00 L 1330.00 1097.00 L 1314.00 1095.00 L 1302.00 1096.00 L 1294.00 1100.00 L 1300.00 1104.00 L 1320.00 1108.00 L 1324.00 1109.00 L 1312.00 1107.00 L 1312.00 1109.00 L 1324.00 1115.00 L 1320.00 1116.00 L 1300.00 1112.00 L 1291.00 1112.00 L 1293.00 1116.00 L 1301.00 1120.00 L 1315.00 1124.00 L 1315.00 1126.00 L 1301.00 1126.00 L 1300.00 1128.00 L 1312.00 1132.00 L 1312.00 1135.00 L 1300.00 1137.00 L 1296.00 1160.00 L 1300.00 1204.00 L 1299.00 1239.00 L 1293.00 1265.00 L 1306.00 1338.00 L 1338.00 1458.00 L 1356.00 1528.00 L 1360.00 1548.00 L 1361.00 1557.00 L 1359.00 1555.00 L 1356.00 1559.00 L 1352.00 1569.00 L 1288.00 1574.00 L 1164.00 1574.00 L 1059.00 1581.00 L 973.00 1595.00 L 889.00 1616.00 L 807.00 1644.00 L 705.00 1695.00 L 583.00 1769.00 L 516.00 1807.00 L 504.00 1809.00 L 495.00 1808.00 L 489.00 1804.00 L 482.00 1798.00 L 474.00 1790.00 L 467.00 1777.00 L 461.00 1759.00 L 459.00 1732.00 L 461.00 1696.00 L 466.00 1664.00 L 474.00 1636.00 L 520.00 1565.00 L 604.00 1451.00 L 648.00 1391.00 L 652.00 1385.00 L 626.00 1417.00 L 570.00 1487.00 L 571.00 1485.00 L 629.00 1411.00 L 631.00 1408.00 L 577.00 1476.00 L 593.00 1453.00 L 679.00 1339.00 L 710.00 1296.00 L 686.00 1324.00 L 684.00 1326.00 L 704.00 1302.00 L 705.00 1300.00 L 687.00 1320.00 L 690.00 1313.00 L 714.00 1279.00 L 724.00 1255.00 L 720.00 1241.00 L 719.00 1231.00 L 721.00 1225.00 L 717.00 1213.00 L 707.00 1195.00 L 698.00 1183.00 L 690.00 1177.00 L 689.00 1166.00 L 695.00 1150.00 L 684.00 1138.00 L 656.00 1130.00 L 628.00 1117.00 L 600.00 1099.00 L 580.00 1077.00 L 568.00 1051.00 L 563.00 1035.00 L 565.00 1029.00 L 568.00 1016.00 Z" fill="black" stroke="black" stroke-width="1"/>
</svg>