<?xml version="1.0" encoding="UTF-8"?>
<svg xmlns="http://www.w3.org/2000/svg" viewBox="320.00 172.00 894.00 1543.00">
  <path d="M 574.00 833.00 L 518.00 727.00 L 473.00 662.00 L 439.00 638.00 L 438.00 635.00 L 470.00 653.00 L 466.00 648.00 L 426.00 620.00 L 425.00 617.00 L 463.00 639.00 L 443.00 612.00 L 365.00 536.00 L 336.00 505.00 L 356.00 519.00 L 354.00 508.00 L 330.00 472.00 L 332.00 429.00 L 360.00 379.00 L 409.00 331.00 L 479.00 285.00 L 570.00 254.00 L 682.00 238.00 L 755.00 214.00 L 789.00 182.00 L 837.00 182.00 L 899.00 214.00 L 928.00 264.00 L 924.00 332.00 L 927.00 333.00 L 937.00 267.00 L 940.00 268.00 L 936.00 336.00 L 940.00 337.00 L 952.00 271.00 L 955.00 272.00 L 949.00 340.00 L 954.00 342.00 L 970.00 278.00 L 974.00 279.00 L 966.00 345.00 L 971.00 346.00 L 989.00 282.00 L 992.00 283.00 L 980.00 349.00 L 985.00 352.00 L 1007.00 292.00 L 1010.00 293.00 L 994.00 355.00 L 996.00 357.00 L 1016.00 299.00 L 1018.00 300.00 L 1002.00 360.00 L 1003.00 361.00 L 1021.00 303.00 L 1024.00 304.00 L 1012.00 364.00 L 1017.00 366.00 L 1039.00 310.00 L 1042.00 311.00 L 1026.00 369.00 L 1032.00 373.00 L 1060.00 323.00 L 1065.00 325.00 L 1047.00 379.00 L 1049.00 381.00 L 1071.00 331.00 L 1073.00 331.00 L 1055.00 381.00 L 1056.00 382.00 L 1076.00 334.00 L 1079.00 335.00 L 1065.00 385.00 L 1068.00 392.00 L 1088.00 356.00 L 1090.00 357.00 L 1074.00 395.00 L 1074.00 398.00 L 1090.00 366.00 L 1093.00 367.00 L 1083.00 401.00 L 1102.00 442.00 L 1150.00 490.00 L 1172.00 527.00 L 1168.00 553.00 L 1172.00 564.00 L 1184.00 560.00 L 1184.00 567.00 L 1172.00 585.00 L 1173.00 588.00 L 1187.00 576.00 L 1188.00 578.00 L 1176.00 594.00 L 1177.00 598.00 L 1191.00 590.00 L 1191.00 596.00 L 1177.00 616.00 L 1179.00 625.00 L 1197.00 623.00 L 1195.00 640.00 L 1173.00 676.00 L 1176.00 732.00 L 1204.00 808.00 L 1200.00 854.00 L 1164.00 870.00 L 1133.00 921.00 L 1107.00 1007.00 L 1057.00 1063.00 L 983.00 1089.00 L 999.00 1225.00 L 1105.00 1471.00 L 1104.00 1473.00 L 996.00 1231.00 L 997.00 1235.00 L 1107.00 1485.00 L 1154.00 1595.00 L 1138.00 1565.00 L 1140.00 1574.00 L 1160.00 1622.00 L 1158.00 1619.00 L 1134.00 1565.00 L 1134.00 1567.00 L 1158.00 1625.00 L 1154.00 1620.00 L 1122.00 1552.00 L 1121.00 1557.00 L 1151.00 1635.00 L 1147.00 1631.00 L 1109.00 1545.00 L 1108.00 1548.00 L 1144.00 1640.00 L 1140.00 1635.00 L 1096.00 1533.00 L 1095.00 1536.00 L 1137.00 1644.00 L 1135.00 1641.00 L 1089.00 1527.00 L 1087.00 1530.00 L 1129.00 1650.00 L 1095.00 1563.00 L 985.00 1269.00 L 984.00 1272.00 L 1092.00 1572.00 L 1118.00 1650.00 L 1062.00 1506.00 L 1059.00 1512.00 L 1109.00 1668.00 L 1106.00 1665.00 L 1050.00 1503.00 L 1049.00 1506.00 L 1103.00 1674.00 L 1078.00 1601.00 L 974.00 1287.00 L 971.00 1297.00 L 1069.00 1631.00 L 1068.00 1633.00 L 968.00 1303.00 L 966.00 1305.00 L 1062.00 1639.00 L 1062.00 1641.00 L 966.00 1311.00 L 964.00 1313.00 L 1056.00 1647.00 L 1068.00 1701.00 L 1000.00 1475.00 L 992.00 1467.00 L 1044.00 1677.00 L 1030.00 1626.00 L 950.00 1314.00 L 947.00 1311.00 L 1021.00 1617.00 L 1020.00 1620.00 L 944.00 1320.00 L 936.00 1310.00 L 996.00 1590.00 L 1001.00 1624.00 L 951.00 1412.00 L 946.00 1407.00 L 986.00 1609.00 L 1003.00 1705.00 L 997.00 1695.00 L 970.00 1563.00 L 922.00 1309.00 L 920.00 1307.00 L 964.00 1557.00 L 963.00 1562.00 L 917.00 1322.00 L 912.00 1317.00 L 948.00 1547.00 L 948.00 1550.00 L 912.00 1326.00 L 910.00 1324.00 L 942.00 1544.00 L 942.00 1548.00 L 910.00 1336.00 L 907.00 1333.00 L 933.00 1539.00 L 908.00 1612.00 L 832.00 1552.00 L 717.00 1482.00 L 563.00 1402.00 L 483.00 1350.00 L 477.00 1326.00 L 482.00 1287.00 L 498.00 1233.00 L 518.00 1171.00 L 542.00 1101.00 L 567.00 1050.00 L 593.00 1018.00 L 606.00 975.00 L 606.00 921.00 L 605.00 892.00 L 603.00 888.00 L 574.00 833.00 Z" fill="black" stroke="black" stroke-width="1"/>
</svg>