<?xml version="1.0" encoding="UTF-8"?>
<svg xmlns="http://www.w3.org/2000/svg" viewBox="380.00 363.00 935.00 1370.00">
  <path d="M 558.00 977.00 L 558.00 967.00 L 548.00 960.00 L 528.00 956.00 L 527.00 955.00 L 545.00 957.00 L 542.00 951.00 L 518.00 937.00 L 524.00 898.00 L 560.00 834.00 L 579.00 796.00 L 581.00 784.00 L 573.00 768.00 L 555.00 748.00 L 555.00 745.00 L 573.00 759.00 L 573.00 756.00 L 555.00 736.00 L 554.00 732.00 L 570.00 744.00 L 567.00 736.00 L 545.00 708.00 L 545.00 705.00 L 567.00 727.00 L 567.00 723.00 L 545.00 693.00 L 544.00 688.00 L 564.00 708.00 L 565.00 707.00 L 547.00 685.00 L 547.00 684.00 L 565.00 704.00 L 568.00 707.00 L 556.00 693.00 L 556.00 691.00 L 568.00 701.00 L 566.00 686.00 L 550.00 646.00 L 549.00 635.00 L 563.00 653.00 L 563.00 652.00 L 549.00 632.00 L 550.00 630.00 L 566.00 646.00 L 567.00 643.00 L 553.00 621.00 L 553.00 618.00 L 567.00 634.00 L 568.00 633.00 L 556.00 615.00 L 555.00 613.00 L 565.00 627.00 L 566.00 625.00 L 558.00 607.00 L 560.00 603.00 L 572.00 613.00 L 574.00 610.00 L 566.00 594.00 L 566.00 592.00 L 574.00 604.00 L 575.00 602.00 L 569.00 586.00 L 570.00 583.00 L 578.00 593.00 L 579.00 590.00 L 573.00 574.00 L 574.00 572.00 L 582.00 584.00 L 583.00 583.00 L 577.00 569.00 L 579.00 556.00 L 589.00 544.00 L 634.00 517.00 L 714.00 475.00 L 755.00 448.00 L 757.00 436.00 L 759.00 436.00 L 761.00 448.00 L 762.00 447.00 L 762.00 433.00 L 765.00 432.00 L 771.00 444.00 L 774.00 444.00 L 774.00 432.00 L 783.00 428.00 L 801.00 432.00 L 812.00 427.00 L 816.00 413.00 L 819.00 414.00 L 821.00 430.00 L 824.00 427.00 L 828.00 405.00 L 836.00 397.00 L 848.00 403.00 L 856.00 416.00 L 860.00 436.00 L 873.00 448.00 L 895.00 452.00 L 914.00 446.00 L 930.00 430.00 L 950.00 420.00 L 974.00 416.00 L 993.00 401.00 L 1007.00 375.00 L 1010.00 375.00 L 1002.00 401.00 L 1004.00 401.00 L 1016.00 375.00 L 1043.00 373.00 L 1085.00 395.00 L 1118.00 400.00 L 1142.00 388.00 L 1158.00 386.00 L 1166.00 394.00 L 1200.00 447.00 L 1260.00 545.00 L 1295.00 638.00 L 1305.00 726.00 L 1302.00 796.00 L 1286.00 848.00 L 1236.00 895.00 L 1152.00 937.00 L 1095.00 977.00 L 1065.00 1015.00 L 1045.00 1066.00 L 1035.00 1130.00 L 1043.00 1202.00 L 1069.00 1282.00 L 1079.00 1338.00 L 1073.00 1370.00 L 948.00 1459.00 L 704.00 1605.00 L 606.00 1602.00 L 654.00 1450.00 L 651.00 1451.00 L 597.00 1605.00 L 597.00 1603.00 L 651.00 1445.00 L 650.00 1446.00 L 594.00 1606.00 L 595.00 1601.00 L 653.00 1431.00 L 651.00 1432.00 L 589.00 1604.00 L 590.00 1599.00 L 654.00 1417.00 L 652.00 1418.00 L 584.00 1602.00 L 584.00 1600.00 L 652.00 1412.00 L 649.00 1413.00 L 575.00 1603.00 L 575.00 1600.00 L 649.00 1404.00 L 645.00 1407.00 L 563.00 1609.00 L 563.00 1606.00 L 645.00 1398.00 L 642.00 1401.00 L 554.00 1615.00 L 554.00 1612.00 L 642.00 1392.00 L 639.00 1393.00 L 545.00 1615.00 L 545.00 1614.00 L 639.00 1390.00 L 636.00 1392.00 L 536.00 1620.00 L 536.00 1618.00 L 636.00 1386.00 L 633.00 1388.00 L 527.00 1624.00 L 527.00 1622.00 L 633.00 1382.00 L 630.00 1385.00 L 518.00 1631.00 L 488.00 1695.00 L 540.00 1577.00 L 538.00 1578.00 L 482.00 1698.00 L 480.00 1699.00 L 532.00 1581.00 L 527.00 1584.00 L 465.00 1708.00 L 496.00 1640.00 L 620.00 1380.00 L 615.00 1383.00 L 481.00 1649.00 L 481.00 1647.00 L 615.00 1377.00 L 612.00 1376.00 L 472.00 1644.00 L 431.00 1720.00 L 489.00 1604.00 L 488.00 1599.00 L 428.00 1705.00 L 468.00 1626.00 L 608.00 1362.00 L 607.00 1360.00 L 465.00 1620.00 L 419.00 1703.00 L 469.00 1609.00 L 468.00 1606.00 L 416.00 1694.00 L 411.00 1698.00 L 453.00 1618.00 L 453.00 1615.00 L 411.00 1689.00 L 390.00 1723.00 L 390.00 1717.00 L 461.00 1590.00 L 603.00 1342.00 L 602.00 1339.00 L 458.00 1581.00 L 400.00 1677.00 L 428.00 1627.00 L 428.00 1624.00 L 400.00 1668.00 L 398.00 1669.00 L 422.00 1627.00 L 424.00 1621.00 L 404.00 1651.00 L 400.00 1656.00 L 412.00 1636.00 L 414.00 1631.00 L 406.00 1641.00 L 468.00 1536.00 L 600.00 1316.00 L 641.00 1190.00 L 591.00 1158.00 L 563.00 1104.00 L 557.00 1028.00 L 555.00 988.00 L 557.00 984.00 L 558.00 977.00 Z" fill="black" stroke="black" stroke-width="1"/>
</svg>