<?xml version="1.0" encoding="UTF-8"?>
<svg xmlns="http://www.w3.org/2000/svg" viewBox="243.00 249.00 1068.00 1446.00">
  <path d="M 370.00 976.00 L 378.00 976.00 L 364.00 975.00 L 328.00 973.00 L 371.00 972.00 L 493.00 972.00 L 494.00 969.00 L 374.00 963.00 L 334.00 959.00 L 374.00 957.00 L 376.00 955.00 L 340.00 953.00 L 362.00 954.00 L 442.00 958.00 L 443.00 956.00 L 365.00 948.00 L 383.00 948.00 L 497.00 956.00 L 505.00 956.00 L 407.00 948.00 L 384.00 946.00 L 436.00 950.00 L 430.00 949.00 L 366.00 943.00 L 374.00 943.00 L 454.00 949.00 L 443.00 946.00 L 341.00 934.00 L 343.00 933.00 L 449.00 943.00 L 447.00 942.00 L 337.00 930.00 L 350.00 931.00 L 486.00 945.00 L 483.00 942.00 L 341.00 922.00 L 337.00 920.00 L 471.00 936.00 L 469.00 934.00 L 331.00 914.00 L 327.00 913.00 L 457.00 931.00 L 455.00 926.00 L 321.00 898.00 L 323.00 896.00 L 461.00 920.00 L 460.00 915.00 L 320.00 881.00 L 253.00 843.00 L 259.00 801.00 L 269.00 770.00 L 283.00 750.00 L 298.00 712.00 L 314.00 656.00 L 333.00 612.00 L 355.00 580.00 L 370.00 532.00 L 378.00 468.00 L 387.00 425.00 L 397.00 403.00 L 412.00 387.00 L 432.00 377.00 L 446.00 363.00 L 454.00 345.00 L 468.00 326.00 L 488.00 306.00 L 513.00 288.00 L 543.00 272.00 L 582.00 265.00 L 630.00 267.00 L 678.00 265.00 L 726.00 259.00 L 771.00 263.00 L 813.00 277.00 L 846.00 298.00 L 870.00 326.00 L 889.00 360.00 L 903.00 400.00 L 919.00 430.00 L 937.00 450.00 L 960.00 471.00 L 988.00 493.00 L 1010.00 515.00 L 1026.00 537.00 L 1043.00 546.00 L 1061.00 542.00 L 1075.00 557.00 L 1085.00 591.00 L 1099.00 608.00 L 1117.00 608.00 L 1115.00 624.00 L 1093.00 656.00 L 1094.00 662.00 L 1118.00 642.00 L 1119.00 644.00 L 1097.00 668.00 L 1096.00 673.00 L 1116.00 659.00 L 1118.00 663.00 L 1102.00 685.00 L 1102.00 690.00 L 1118.00 678.00 L 1119.00 680.00 L 1105.00 696.00 L 1096.00 721.00 L 1092.00 755.00 L 1107.00 797.00 L 1141.00 847.00 L 1152.00 881.00 L 1140.00 899.00 L 1128.00 910.00 L 1116.00 914.00 L 1112.00 930.00 L 1116.00 958.00 L 1116.00 975.00 L 1112.00 981.00 L 1113.00 989.00 L 1119.00 999.00 L 1115.00 1015.00 L 1101.00 1037.00 L 1096.00 1060.00 L 1100.00 1084.00 L 1098.00 1105.00 L 1090.00 1123.00 L 1060.00 1144.00 L 1008.00 1168.00 L 995.00 1198.00 L 1021.00 1234.00 L 1022.00 1240.00 L 998.00 1216.00 L 1003.00 1223.00 L 1037.00 1261.00 L 1035.00 1260.00 L 997.00 1220.00 L 1000.00 1226.00 L 1044.00 1278.00 L 1041.00 1277.00 L 991.00 1223.00 L 1050.00 1292.00 L 1218.00 1484.00 L 1218.00 1486.00 L 1050.00 1298.00 L 1050.00 1300.00 L 1218.00 1492.00 L 1216.00 1490.00 L 1044.00 1294.00 L 1045.00 1297.00 L 1219.00 1499.00 L 1218.00 1499.00 L 1042.00 1297.00 L 1042.00 1300.00 L 1218.00 1508.00 L 1301.00 1628.00 L 1291.00 1660.00 L 1277.00 1679.00 L 1259.00 1685.00 L 1193.00 1646.00 L 1079.00 1562.00 L 966.00 1493.00 L 854.00 1439.00 L 757.00 1405.00 L 675.00 1391.00 L 577.00 1389.00 L 463.00 1399.00 L 403.00 1397.00 L 397.00 1383.00 L 397.00 1360.00 L 403.00 1328.00 L 424.00 1278.00 L 460.00 1210.00 L 483.00 1159.00 L 493.00 1125.00 L 511.00 1088.00 L 537.00 1048.00 L 551.00 1020.00 L 553.00 1004.00 L 498.00 995.00 L 386.00 993.00 L 387.00 990.00 L 501.00 986.00 L 498.00 984.00 L 378.00 984.00 L 331.00 983.00 L 357.00 981.00 L 364.00 980.00 L 352.00 980.00 L 351.00 979.00 L 361.00 977.00 L 370.00 976.00 Z" fill="black" stroke="black" stroke-width="1"/>
</svg>