<?xml version="1.0" encoding="UTF-8"?>
<svg xmlns="http://www.w3.org/2000/svg" viewBox="405.00 234.00 794.00 1429.00">
  <path d="M 523.00 885.00 L 517.00 851.00 L 496.00 803.00 L 460.00 741.00 L 435.00 688.00 L 421.00 644.00 L 415.00 591.00 L 417.00 529.00 L 423.00 480.00 L 433.00 444.00 L 446.00 411.00 L 462.00 381.00 L 483.00 352.00 L 509.00 324.00 L 536.00 302.00 L 564.00 286.00 L 600.00 272.00 L 644.00 260.00 L 693.00 251.00 L 747.00 245.00 L 795.00 244.00 L 837.00 248.00 L 882.00 259.00 L 930.00 277.00 L 974.00 300.00 L 1014.00 328.00 L 1048.00 356.00 L 1076.00 384.00 L 1094.00 405.00 L 1102.00 419.00 L 1104.00 430.00 L 1100.00 438.00 L 1101.00 439.00 L 1107.00 433.00 L 1108.00 435.00 L 1104.00 445.00 L 1105.00 447.00 L 1111.00 441.00 L 1112.00 444.00 L 1108.00 456.00 L 1109.00 458.00 L 1115.00 450.00 L 1117.00 448.00 L 1115.00 452.00 L 1116.00 453.00 L 1120.00 451.00 L 1119.00 457.00 L 1113.00 471.00 L 1114.00 473.00 L 1122.00 463.00 L 1125.00 461.00 L 1123.00 467.00 L 1124.00 468.00 L 1128.00 464.00 L 1126.00 469.00 L 1118.00 483.00 L 1119.00 486.00 L 1129.00 478.00 L 1130.00 481.00 L 1122.00 495.00 L 1123.00 497.00 L 1133.00 487.00 L 1134.00 490.00 L 1126.00 506.00 L 1124.00 520.00 L 1128.00 532.00 L 1130.00 559.00 L 1130.00 601.00 L 1137.00 640.00 L 1151.00 676.00 L 1165.00 704.00 L 1179.00 724.00 L 1187.00 740.00 L 1189.00 752.00 L 1189.00 761.00 L 1187.00 767.00 L 1173.00 778.00 L 1147.00 794.00 L 1135.00 812.00 L 1137.00 832.00 L 1134.00 846.00 L 1126.00 854.00 L 1125.00 861.00 L 1131.00 867.00 L 1134.00 873.00 L 1134.00 879.00 L 1129.00 885.00 L 1119.00 891.00 L 1111.00 899.00 L 1105.00 909.00 L 1103.00 925.00 L 1105.00 947.00 L 1102.00 965.00 L 1094.00 979.00 L 1081.00 991.00 L 1063.00 1001.00 L 1027.00 1010.00 L 973.00 1018.00 L 943.00 1026.00 L 937.00 1034.00 L 931.00 1056.00 L 925.00 1092.00 L 965.00 1199.00 L 1051.00 1377.00 L 1088.00 1454.00 L 1076.00 1430.00 L 1077.00 1433.00 L 1091.00 1463.00 L 1054.00 1388.00 L 966.00 1208.00 L 966.00 1211.00 L 1054.00 1397.00 L 1085.00 1464.00 L 1059.00 1412.00 L 1059.00 1415.00 L 1085.00 1473.00 L 1054.00 1408.00 L 966.00 1220.00 L 966.00 1222.00 L 1054.00 1414.00 L 1081.00 1474.00 L 1047.00 1402.00 L 1047.00 1404.00 L 1081.00 1480.00 L 1079.00 1477.00 L 1041.00 1395.00 L 1041.00 1397.00 L 1079.00 1483.00 L 1054.00 1429.00 L 966.00 1235.00 L 965.00 1237.00 L 1051.00 1435.00 L 1072.00 1484.00 L 1028.00 1384.00 L 1028.00 1386.00 L 1072.00 1490.00 L 1067.00 1482.00 L 1013.00 1362.00 L 1012.00 1364.00 L 1064.00 1488.00 L 1061.00 1483.00 L 1003.00 1349.00 L 1002.00 1351.00 L 1058.00 1489.00 L 1044.00 1456.00 L 960.00 1252.00 L 959.00 1254.00 L 1041.00 1462.00 L 1041.00 1464.00 L 959.00 1260.00 L 958.00 1263.00 L 1038.00 1473.00 L 1039.00 1477.00 L 961.00 1275.00 L 960.00 1277.00 L 1036.00 1483.00 L 1037.00 1487.00 L 963.00 1289.00 L 963.00 1290.00 L 1037.00 1490.00 L 1038.00 1494.00 L 966.00 1302.00 L 965.00 1304.00 L 1035.00 1500.00 L 1070.00 1605.00 L 1070.00 1619.00 L 1066.00 1633.00 L 1058.00 1647.00 L 1051.00 1653.00 L 1045.00 1651.00 L 1015.00 1622.00 L 961.00 1566.00 L 909.00 1518.00 L 859.00 1478.00 L 799.00 1439.00 L 729.00 1401.00 L 660.00 1369.00 L 592.00 1343.00 L 552.00 1327.00 L 540.00 1321.00 L 531.00 1314.00 L 525.00 1306.00 L 522.00 1290.00 L 522.00 1266.00 L 527.00 1238.00 L 537.00 1206.00 L 546.00 1184.00 L 554.00 1172.00 L 556.00 1168.00 L 552.00 1172.00 L 561.00 1126.00 L 583.00 1030.00 L 594.00 978.00 L 594.00 970.00 L 587.00 966.00 L 573.00 966.00 L 573.00 964.00 L 587.00 960.00 L 585.00 958.00 L 567.00 958.00 L 567.00 956.00 L 585.00 952.00 L 583.00 950.00 L 561.00 950.00 L 561.00 948.00 L 583.00 944.00 L 582.00 942.00 L 558.00 942.00 L 554.00 940.00 L 570.00 936.00 L 569.00 935.00 L 551.00 937.00 L 555.00 936.00 L 581.00 932.00 L 580.00 931.00 L 552.00 933.00 L 552.00 931.00 L 580.00 925.00 L 579.00 922.00 L 549.00 922.00 L 546.00 921.00 L 570.00 919.00 L 569.00 917.00 L 543.00 915.00 L 546.00 913.00 L 578.00 911.00 L 592.00 910.00 L 588.00 910.00 L 571.00 908.00 L 541.00 904.00 L 523.00 885.00 Z" fill="black" stroke="black" stroke-width="1"/>
</svg>