<?xml version="1.0" encoding="UTF-8"?>
<svg xmlns="http://www.w3.org/2000/svg" viewBox="387.00 179.00 911.00 1491.00">
  <path d="M 493.00 897.00 L 491.00 871.00 L 475.00 846.00 L 445.00 822.00 L 453.00 776.00 L 499.00 708.00 L 507.00 657.00 L 477.00 623.00 L 474.00 617.00 L 498.00 639.00 L 498.00 637.00 L 474.00 611.00 L 472.00 607.00 L 492.00 625.00 L 493.00 622.00 L 475.00 598.00 L 475.00 595.00 L 493.00 613.00 L 493.00 604.00 L 475.00 568.00 L 475.00 558.00 L 493.00 574.00 L 493.00 570.00 L 475.00 546.00 L 475.00 543.00 L 493.00 561.00 L 493.00 558.00 L 475.00 534.00 L 475.00 531.00 L 493.00 549.00 L 495.00 546.00 L 481.00 522.00 L 481.00 517.00 L 495.00 531.00 L 496.00 529.00 L 484.00 511.00 L 484.00 508.00 L 496.00 520.00 L 497.00 517.00 L 487.00 499.00 L 487.00 495.00 L 497.00 505.00 L 499.00 497.00 L 493.00 471.00 L 496.00 462.00 L 508.00 470.00 L 511.00 465.00 L 505.00 447.00 L 520.00 416.00 L 556.00 372.00 L 610.00 334.00 L 682.00 302.00 L 720.00 275.00 L 724.00 253.00 L 728.00 252.00 L 732.00 272.00 L 735.00 266.00 L 737.00 234.00 L 740.00 233.00 L 744.00 263.00 L 748.00 260.00 L 752.00 224.00 L 778.00 201.00 L 826.00 191.00 L 864.00 189.00 L 892.00 195.00 L 914.00 195.00 L 930.00 189.00 L 951.00 200.00 L 977.00 228.00 L 1011.00 245.00 L 1053.00 251.00 L 1091.00 268.00 L 1125.00 296.00 L 1168.00 354.00 L 1220.00 442.00 L 1257.00 514.00 L 1279.00 570.00 L 1288.00 618.00 L 1284.00 658.00 L 1247.00 696.00 L 1177.00 732.00 L 1176.00 734.00 L 1244.00 702.00 L 1242.00 704.00 L 1170.00 740.00 L 1169.00 743.00 L 1239.00 713.00 L 1237.00 715.00 L 1163.00 749.00 L 1160.00 752.00 L 1228.00 724.00 L 1227.00 726.00 L 1157.00 758.00 L 1156.00 761.00 L 1224.00 735.00 L 1224.00 738.00 L 1156.00 770.00 L 1153.00 774.00 L 1215.00 750.00 L 1215.00 753.00 L 1153.00 783.00 L 1115.00 822.00 L 1101.00 870.00 L 1098.00 902.00 L 1106.00 918.00 L 1100.00 928.00 L 1080.00 932.00 L 1069.00 940.00 L 1067.00 952.00 L 1067.00 1000.00 L 1069.00 1084.00 L 1082.00 1145.00 L 1106.00 1183.00 L 1130.00 1244.00 L 1154.00 1328.00 L 1155.00 1378.00 L 1133.00 1394.00 L 1048.00 1419.00 L 900.00 1453.00 L 786.00 1492.00 L 706.00 1536.00 L 678.00 1487.00 L 702.00 1345.00 L 699.00 1347.00 L 669.00 1493.00 L 669.00 1489.00 L 699.00 1335.00 L 697.00 1336.00 L 663.00 1492.00 L 664.00 1485.00 L 700.00 1315.00 L 697.00 1317.00 L 655.00 1491.00 L 654.00 1487.00 L 694.00 1305.00 L 691.00 1307.00 L 645.00 1493.00 L 645.00 1490.00 L 691.00 1298.00 L 689.00 1299.00 L 639.00 1493.00 L 639.00 1490.00 L 689.00 1290.00 L 682.00 1296.00 L 618.00 1508.00 L 617.00 1505.00 L 679.00 1287.00 L 676.00 1290.00 L 608.00 1514.00 L 608.00 1512.00 L 676.00 1284.00 L 673.00 1286.00 L 599.00 1518.00 L 599.00 1516.00 L 673.00 1280.00 L 671.00 1281.00 L 593.00 1519.00 L 593.00 1517.00 L 671.00 1275.00 L 669.00 1277.00 L 587.00 1523.00 L 587.00 1521.00 L 669.00 1271.00 L 666.00 1273.00 L 578.00 1527.00 L 555.00 1591.00 L 597.00 1465.00 L 590.00 1470.00 L 534.00 1606.00 L 556.00 1539.00 L 656.00 1269.00 L 654.00 1270.00 L 550.00 1542.00 L 521.00 1614.00 L 567.00 1486.00 L 563.00 1489.00 L 509.00 1623.00 L 507.00 1624.00 L 557.00 1492.00 L 552.00 1496.00 L 492.00 1636.00 L 522.00 1560.00 L 642.00 1268.00 L 635.00 1274.00 L 501.00 1578.00 L 464.00 1660.00 L 524.00 1520.00 L 522.00 1518.00 L 458.00 1654.00 L 455.00 1656.00 L 513.00 1524.00 L 512.00 1522.00 L 452.00 1650.00 L 450.00 1651.00 L 506.00 1525.00 L 502.00 1520.00 L 438.00 1636.00 L 477.00 1548.00 L 619.00 1256.00 L 617.00 1253.00 L 471.00 1539.00 L 470.00 1539.00 L 614.00 1253.00 L 612.00 1247.00 L 464.00 1521.00 L 407.00 1625.00 L 441.00 1559.00 L 441.00 1555.00 L 407.00 1613.00 L 404.00 1616.00 L 432.00 1564.00 L 432.00 1561.00 L 404.00 1607.00 L 401.00 1610.00 L 423.00 1570.00 L 424.00 1566.00 L 404.00 1598.00 L 397.00 1608.00 L 403.00 1596.00 L 473.00 1470.00 L 607.00 1230.00 L 658.00 1110.00 L 626.00 1110.00 L 589.00 1102.00 L 547.00 1086.00 L 522.00 1071.00 L 514.00 1057.00 L 513.00 1034.00 L 519.00 1002.00 L 515.00 970.00 L 501.00 938.00 L 494.00 919.00 L 494.00 913.00 L 493.00 897.00 Z" fill="black" stroke="black" stroke-width="1"/>
</svg>