<?xml version="1.0" encoding="UTF-8"?>
<svg xmlns="http://www.w3.org/2000/svg" viewBox="260.00 99.00 1016.00 1575.00">
  <path d="M 572.00 830.00 L 544.00 798.00 L 506.00 769.00 L 458.00 743.00 L 411.00 721.00 L 365.00 703.00 L 334.00 688.00 L 318.00 676.00 L 303.00 663.00 L 289.00 649.00 L 279.00 632.00 L 273.00 612.00 L 270.00 580.00 L 270.00 536.00 L 286.00 476.00 L 318.00 400.00 L 344.00 349.00 L 364.00 323.00 L 387.00 287.00 L 413.00 241.00 L 443.00 200.00 L 477.00 164.00 L 504.00 139.00 L 524.00 125.00 L 546.00 115.00 L 570.00 109.00 L 615.00 113.00 L 681.00 127.00 L 718.00 138.00 L 726.00 146.00 L 752.00 157.00 L 796.00 171.00 L 828.00 185.00 L 848.00 199.00 L 883.00 212.00 L 933.00 224.00 L 996.00 250.00 L 1072.00 290.00 L 1118.00 309.00 L 1134.00 307.00 L 1151.00 309.00 L 1169.00 315.00 L 1177.00 323.00 L 1175.00 333.00 L 1176.00 335.00 L 1180.00 329.00 L 1177.00 337.00 L 1167.00 359.00 L 1167.00 382.00 L 1177.00 406.00 L 1180.00 423.00 L 1176.00 433.00 L 1178.00 436.00 L 1186.00 432.00 L 1187.00 435.00 L 1181.00 445.00 L 1182.00 447.00 L 1190.00 441.00 L 1190.00 443.00 L 1182.00 453.00 L 1180.00 456.00 L 1184.00 452.00 L 1185.00 454.00 L 1183.00 462.00 L 1186.00 462.00 L 1194.00 454.00 L 1198.00 452.00 L 1198.00 456.00 L 1194.00 463.00 L 1186.00 473.00 L 1185.00 475.00 L 1191.00 469.00 L 1191.00 472.00 L 1185.00 484.00 L 1180.00 503.00 L 1176.00 529.00 L 1194.00 570.00 L 1234.00 626.00 L 1257.00 660.00 L 1263.00 672.00 L 1266.00 683.00 L 1266.00 693.00 L 1265.00 700.00 L 1263.00 704.00 L 1248.00 712.00 L 1220.00 724.00 L 1219.00 726.00 L 1245.00 718.00 L 1257.00 715.00 L 1255.00 717.00 L 1241.00 723.00 L 1215.00 733.00 L 1203.00 746.00 L 1205.00 762.00 L 1204.00 773.00 L 1200.00 779.00 L 1198.00 799.00 L 1198.00 833.00 L 1200.00 860.00 L 1204.00 880.00 L 1201.00 901.00 L 1191.00 923.00 L 1154.00 946.00 L 1090.00 970.00 L 1062.00 987.00 L 1070.00 997.00 L 1068.00 999.00 L 1056.00 993.00 L 1058.00 996.00 L 1074.00 1008.00 L 1072.00 1008.00 L 1052.00 996.00 L 1051.00 997.00 L 1069.00 1011.00 L 1072.00 1023.00 L 1060.00 1033.00 L 1050.00 1059.00 L 1042.00 1101.00 L 1066.00 1166.00 L 1122.00 1254.00 L 1121.00 1257.00 L 1063.00 1175.00 L 1066.00 1180.00 L 1130.00 1272.00 L 1145.00 1294.00 L 1111.00 1246.00 L 1114.00 1251.00 L 1154.00 1309.00 L 1153.00 1308.00 L 1111.00 1248.00 L 1115.00 1255.00 L 1165.00 1329.00 L 1162.00 1326.00 L 1106.00 1246.00 L 1108.00 1250.00 L 1168.00 1338.00 L 1157.00 1322.00 L 1075.00 1202.00 L 1074.00 1201.00 L 1154.00 1319.00 L 1162.00 1331.00 L 1098.00 1237.00 L 1101.00 1243.00 L 1171.00 1349.00 L 1168.00 1346.00 L 1092.00 1234.00 L 1093.00 1237.00 L 1171.00 1355.00 L 1168.00 1351.00 L 1084.00 1225.00 L 1085.00 1227.00 L 1171.00 1357.00 L 1172.00 1359.00 L 1088.00 1233.00 L 1089.00 1237.00 L 1175.00 1371.00 L 1171.00 1366.00 L 1077.00 1222.00 L 1079.00 1226.00 L 1177.00 1378.00 L 1227.00 1463.00 L 1229.00 1481.00 L 1225.00 1506.00 L 1215.00 1538.00 L 1210.00 1566.00 L 1210.00 1590.00 L 1204.00 1618.00 L 1192.00 1650.00 L 1181.00 1664.00 L 1171.00 1660.00 L 1160.00 1659.00 L 1148.00 1661.00 L 1118.00 1640.00 L 1070.00 1596.00 L 987.00 1532.00 L 869.00 1448.00 L 777.00 1388.00 L 711.00 1352.00 L 637.00 1320.00 L 555.00 1292.00 L 503.00 1269.00 L 481.00 1251.00 L 468.00 1228.00 L 464.00 1200.00 L 469.00 1164.00 L 483.00 1120.00 L 489.00 1095.00 L 487.00 1089.00 L 491.00 1077.00 L 501.00 1059.00 L 510.00 1033.00 L 518.00 999.00 L 529.00 976.00 L 543.00 964.00 L 547.00 959.00 L 541.00 961.00 L 543.00 955.00 L 553.00 941.00 L 559.00 926.00 L 561.00 910.00 L 566.00 897.00 L 574.00 887.00 L 579.00 876.00 L 581.00 864.00 L 583.00 855.00 L 585.00 849.00 L 572.00 830.00 Z" fill="black" stroke="black" stroke-width="1"/>
</svg>