<?xml version="1.0" encoding="UTF-8"?>
<svg xmlns="http://www.w3.org/2000/svg" viewBox="278.00 218.00 980.00 1527.00">
  <path d="M 458.00 960.00 L 446.00 948.00 L 448.00 942.00 L 464.00 942.00 L 462.00 938.00 L 442.00 930.00 L 441.00 927.00 L 459.00 929.00 L 455.00 922.00 L 429.00 906.00 L 422.00 892.00 L 434.00 880.00 L 405.00 848.00 L 335.00 796.00 L 296.00 736.00 L 288.00 668.00 L 299.00 590.00 L 329.00 502.00 L 379.00 423.00 L 449.00 353.00 L 520.00 297.00 L 592.00 255.00 L 649.00 232.00 L 691.00 228.00 L 738.00 238.00 L 790.00 262.00 L 842.00 310.00 L 894.00 382.00 L 924.00 407.00 L 932.00 385.00 L 943.00 378.00 L 957.00 386.00 L 969.00 380.00 L 979.00 360.00 L 989.00 364.00 L 999.00 392.00 L 1021.00 404.00 L 1055.00 400.00 L 1065.00 430.00 L 1051.00 494.00 L 1049.00 518.00 L 1059.00 502.00 L 1061.00 510.00 L 1055.00 542.00 L 1059.00 548.00 L 1073.00 528.00 L 1074.00 530.00 L 1062.00 554.00 L 1063.00 556.00 L 1077.00 536.00 L 1077.00 538.00 L 1063.00 562.00 L 1064.00 564.00 L 1080.00 544.00 L 1083.00 558.00 L 1073.00 606.00 L 1076.00 621.00 L 1092.00 603.00 L 1092.00 606.00 L 1076.00 630.00 L 1077.00 633.00 L 1095.00 615.00 L 1095.00 618.00 L 1077.00 642.00 L 1077.00 645.00 L 1095.00 627.00 L 1094.00 630.00 L 1074.00 654.00 L 1074.00 656.00 L 1094.00 636.00 L 1093.00 644.00 L 1071.00 680.00 L 1071.00 693.00 L 1093.00 683.00 L 1095.00 687.00 L 1077.00 705.00 L 1078.00 707.00 L 1098.00 693.00 L 1100.00 696.00 L 1084.00 716.00 L 1093.00 761.00 L 1127.00 831.00 L 1131.00 871.00 L 1105.00 881.00 L 1101.00 885.00 L 1119.00 883.00 L 1118.00 887.00 L 1098.00 897.00 L 1086.00 919.00 L 1082.00 953.00 L 1072.00 977.00 L 1056.00 991.00 L 1048.00 1017.00 L 1048.00 1055.00 L 1017.00 1091.00 L 955.00 1125.00 L 1011.00 1286.00 L 1185.00 1574.00 L 1182.00 1576.00 L 1002.00 1292.00 L 1002.00 1294.00 L 1182.00 1582.00 L 1248.00 1692.00 L 1200.00 1624.00 L 1199.00 1631.00 L 1245.00 1713.00 L 1241.00 1710.00 L 1187.00 1622.00 L 1186.00 1624.00 L 1238.00 1716.00 L 1235.00 1714.00 L 1177.00 1618.00 L 1176.00 1620.00 L 1232.00 1720.00 L 1227.00 1716.00 L 1161.00 1608.00 L 1160.00 1611.00 L 1224.00 1725.00 L 1221.00 1723.00 L 1151.00 1605.00 L 1150.00 1608.00 L 1218.00 1732.00 L 1164.00 1635.00 L 988.00 1317.00 L 987.00 1320.00 L 1161.00 1644.00 L 1207.00 1735.00 L 1125.00 1593.00 L 1117.00 1590.00 L 1183.00 1726.00 L 1180.00 1725.00 L 1108.00 1587.00 L 1105.00 1585.00 L 1171.00 1719.00 L 1169.00 1717.00 L 1099.00 1579.00 L 1096.00 1577.00 L 1160.00 1711.00 L 1117.00 1624.00 L 967.00 1316.00 L 964.00 1314.00 L 1108.00 1618.00 L 1143.00 1700.00 L 1069.00 1560.00 L 1061.00 1555.00 L 1119.00 1685.00 L 1117.00 1683.00 L 1055.00 1549.00 L 1051.00 1546.00 L 1105.00 1674.00 L 1102.00 1671.00 L 1042.00 1537.00 L 1040.00 1536.00 L 1096.00 1668.00 L 1064.00 1593.00 L 944.00 1311.00 L 942.00 1310.00 L 1058.00 1590.00 L 1083.00 1658.00 L 1017.00 1514.00 L 1009.00 1508.00 L 1059.00 1640.00 L 1056.00 1636.00 L 1000.00 1496.00 L 996.00 1494.00 L 1044.00 1630.00 L 1020.00 1568.00 L 924.00 1308.00 L 921.00 1306.00 L 1011.00 1562.00 L 1010.00 1565.00 L 918.00 1315.00 L 910.00 1310.00 L 986.00 1550.00 L 985.00 1554.00 L 907.00 1322.00 L 900.00 1318.00 L 964.00 1542.00 L 964.00 1545.00 L 900.00 1327.00 L 895.00 1324.00 L 949.00 1536.00 L 949.00 1539.00 L 895.00 1333.00 L 893.00 1332.00 L 943.00 1536.00 L 899.00 1605.00 L 761.00 1539.00 L 623.00 1487.00 L 485.00 1449.00 L 415.00 1413.00 L 413.00 1379.00 L 440.00 1283.00 L 496.00 1125.00 L 509.00 1044.00 L 479.00 1040.00 L 479.00 1032.00 L 509.00 1020.00 L 507.00 1013.00 L 473.00 1011.00 L 473.00 1006.00 L 507.00 998.00 L 507.00 995.00 L 473.00 997.00 L 457.00 992.00 L 459.00 980.00 L 461.00 972.00 L 463.00 968.00 L 458.00 960.00 Z" fill="black" stroke="black" stroke-width="1"/>
</svg>