<?xml version="1.0" encoding="UTF-8"?>
<svg xmlns="http://www.w3.org/2000/svg" viewBox="316.00 260.00 873.00 1415.00">
  <path d="M 422.00 939.00 L 430.00 901.00 L 432.00 870.00 L 428.00 846.00 L 422.00 824.00 L 414.00 804.00 L 396.00 773.00 L 368.00 731.00 L 347.00 689.00 L 333.00 647.00 L 326.00 605.00 L 326.00 563.00 L 328.00 531.00 L 332.00 509.00 L 338.00 485.00 L 346.00 459.00 L 359.00 429.00 L 377.00 395.00 L 400.00 365.00 L 428.00 339.00 L 464.00 316.00 L 508.00 296.00 L 537.00 287.00 L 551.00 289.00 L 572.00 286.00 L 600.00 278.00 L 624.00 275.00 L 644.00 277.00 L 660.00 276.00 L 672.00 272.00 L 695.00 270.00 L 729.00 270.00 L 756.00 274.00 L 776.00 282.00 L 798.00 285.00 L 822.00 283.00 L 851.00 289.00 L 885.00 303.00 L 922.00 323.00 L 962.00 349.00 L 984.00 364.00 L 988.00 368.00 L 989.00 373.00 L 987.00 379.00 L 988.00 380.00 L 992.00 376.00 L 992.00 380.00 L 988.00 392.00 L 988.00 402.00 L 992.00 410.00 L 997.00 407.00 L 1003.00 393.00 L 1004.00 395.00 L 1000.00 413.00 L 1001.00 415.00 L 1007.00 401.00 L 1008.00 403.00 L 1004.00 421.00 L 1005.00 426.00 L 1011.00 418.00 L 1012.00 421.00 L 1008.00 435.00 L 1009.00 436.00 L 1015.00 424.00 L 1015.00 426.00 L 1009.00 442.00 L 1008.00 447.00 L 1012.00 441.00 L 1013.00 444.00 L 1011.00 456.00 L 1014.00 454.00 L 1022.00 438.00 L 1023.00 441.00 L 1017.00 463.00 L 1018.00 466.00 L 1026.00 450.00 L 1027.00 452.00 L 1021.00 472.00 L 1027.00 494.00 L 1045.00 518.00 L 1061.00 544.00 L 1075.00 572.00 L 1082.00 593.00 L 1082.00 607.00 L 1079.00 622.00 L 1073.00 638.00 L 1071.00 649.00 L 1073.00 655.00 L 1096.00 689.00 L 1140.00 751.00 L 1159.00 788.00 L 1153.00 800.00 L 1142.00 810.00 L 1126.00 818.00 L 1124.00 820.00 L 1136.00 816.00 L 1134.00 818.00 L 1118.00 826.00 L 1109.00 835.00 L 1107.00 845.00 L 1110.00 860.00 L 1118.00 880.00 L 1116.00 897.00 L 1104.00 911.00 L 1098.00 925.00 L 1098.00 939.00 L 1091.00 949.00 L 1077.00 955.00 L 1068.00 962.00 L 1064.00 970.00 L 1067.00 986.00 L 1077.00 1010.00 L 1081.00 1027.00 L 1079.00 1037.00 L 1070.00 1050.00 L 1054.00 1066.00 L 1039.00 1077.00 L 1025.00 1083.00 L 1022.00 1091.00 L 1030.00 1101.00 L 1023.00 1119.00 L 1001.00 1145.00 L 995.00 1165.00 L 1005.00 1179.00 L 1004.00 1181.00 L 992.00 1171.00 L 1003.00 1187.00 L 1037.00 1229.00 L 1035.00 1231.00 L 997.00 1193.00 L 995.00 1194.00 L 1029.00 1234.00 L 1028.00 1236.00 L 992.00 1200.00 L 989.00 1200.00 L 1019.00 1236.00 L 1021.00 1248.00 L 995.00 1236.00 L 983.00 1235.00 L 985.00 1245.00 L 1004.00 1278.00 L 1040.00 1334.00 L 1046.00 1346.00 L 1022.00 1314.00 L 1023.00 1317.00 L 1049.00 1355.00 L 1042.00 1345.00 L 1002.00 1287.00 L 1024.00 1321.00 L 1108.00 1447.00 L 1130.00 1481.00 L 1090.00 1423.00 L 1091.00 1425.00 L 1133.00 1487.00 L 1116.00 1462.00 L 1040.00 1350.00 L 1041.00 1352.00 L 1119.00 1468.00 L 1139.00 1498.00 L 1101.00 1442.00 L 1103.00 1446.00 L 1145.00 1510.00 L 1143.00 1508.00 L 1097.00 1440.00 L 1099.00 1445.00 L 1149.00 1523.00 L 1125.00 1488.00 L 1027.00 1340.00 L 1028.00 1344.00 L 1128.00 1500.00 L 1129.00 1504.00 L 1031.00 1356.00 L 1031.00 1359.00 L 1129.00 1513.00 L 1128.00 1512.00 L 1028.00 1356.00 L 1029.00 1359.00 L 1131.00 1521.00 L 1130.00 1520.00 L 1026.00 1356.00 L 1026.00 1359.00 L 1130.00 1529.00 L 1179.00 1623.00 L 1173.00 1641.00 L 1164.00 1654.00 L 1152.00 1662.00 L 1140.00 1665.00 L 1128.00 1663.00 L 1096.00 1644.00 L 1044.00 1608.00 L 1002.00 1582.00 L 970.00 1566.00 L 901.00 1538.00 L 795.00 1498.00 L 708.00 1470.00 L 640.00 1454.00 L 573.00 1443.00 L 507.00 1437.00 L 453.00 1435.00 L 411.00 1437.00 L 382.00 1435.00 L 366.00 1429.00 L 354.00 1420.00 L 346.00 1408.00 L 340.00 1389.00 L 336.00 1363.00 L 349.00 1301.00 L 379.00 1203.00 L 394.00 1129.00 L 394.00 1079.00 L 397.00 1047.00 L 403.00 1033.00 L 408.00 1012.00 L 412.00 984.00 L 415.00 967.00 L 417.00 961.00 L 422.00 939.00 Z" fill="black" stroke="black" stroke-width="1"/>
</svg>