<?xml version="1.0" encoding="UTF-8"?>
<svg xmlns="http://www.w3.org/2000/svg" viewBox="303.00 252.00 923.00 1512.00">
  <path d="M 397.00 962.00 L 407.00 930.00 L 407.00 911.00 L 397.00 905.00 L 397.00 902.00 L 407.00 902.00 L 406.00 900.00 L 394.00 896.00 L 381.00 877.00 L 367.00 843.00 L 349.00 787.00 L 327.00 709.00 L 315.00 648.00 L 313.00 604.00 L 316.00 567.00 L 324.00 537.00 L 335.00 507.00 L 349.00 477.00 L 366.00 449.00 L 386.00 423.00 L 408.00 399.00 L 432.00 377.00 L 460.00 354.00 L 492.00 330.00 L 526.00 308.00 L 562.00 288.00 L 613.00 274.00 L 679.00 266.00 L 729.00 262.00 L 763.00 262.00 L 814.00 274.00 L 882.00 298.00 L 942.00 328.00 L 994.00 364.00 L 1030.00 392.00 L 1050.00 412.00 L 1061.00 425.00 L 1063.00 431.00 L 1062.00 442.00 L 1058.00 458.00 L 1059.00 460.00 L 1065.00 448.00 L 1067.00 450.00 L 1065.00 466.00 L 1068.00 469.00 L 1076.00 459.00 L 1077.00 460.00 L 1071.00 472.00 L 1070.00 478.00 L 1074.00 478.00 L 1075.00 480.00 L 1073.00 484.00 L 1076.00 480.00 L 1084.00 468.00 L 1085.00 470.00 L 1079.00 486.00 L 1078.00 491.00 L 1082.00 485.00 L 1084.00 487.00 L 1084.00 497.00 L 1088.00 495.00 L 1096.00 481.00 L 1098.00 484.00 L 1094.00 504.00 L 1096.00 508.00 L 1104.00 496.00 L 1105.00 498.00 L 1099.00 514.00 L 1100.00 517.00 L 1108.00 507.00 L 1109.00 509.00 L 1103.00 523.00 L 1104.00 525.00 L 1112.00 515.00 L 1113.00 517.00 L 1107.00 531.00 L 1106.00 535.00 L 1110.00 529.00 L 1111.00 531.00 L 1109.00 541.00 L 1113.00 540.00 L 1123.00 528.00 L 1124.00 530.00 L 1116.00 546.00 L 1117.00 548.00 L 1127.00 536.00 L 1128.00 538.00 L 1120.00 554.00 L 1122.00 556.00 L 1134.00 544.00 L 1135.00 546.00 L 1125.00 562.00 L 1125.00 585.00 L 1135.00 615.00 L 1138.00 652.00 L 1134.00 696.00 L 1144.00 736.00 L 1168.00 772.00 L 1189.00 809.00 L 1207.00 847.00 L 1216.00 871.00 L 1216.00 881.00 L 1212.00 890.00 L 1204.00 898.00 L 1187.00 905.00 L 1161.00 911.00 L 1159.00 912.00 L 1181.00 908.00 L 1180.00 910.00 L 1156.00 918.00 L 1145.00 931.00 L 1147.00 949.00 L 1142.00 965.00 L 1130.00 979.00 L 1124.00 993.00 L 1124.00 1007.00 L 1116.00 1018.00 L 1100.00 1026.00 L 1098.00 1038.00 L 1110.00 1054.00 L 1115.00 1071.00 L 1113.00 1089.00 L 1106.00 1105.00 L 1094.00 1119.00 L 1078.00 1131.00 L 1058.00 1141.00 L 1054.00 1154.00 L 1066.00 1170.00 L 1064.00 1194.00 L 1048.00 1226.00 L 1043.00 1248.00 L 1049.00 1260.00 L 1048.00 1262.00 L 1040.00 1254.00 L 1040.00 1256.00 L 1048.00 1268.00 L 1051.00 1276.00 L 1049.00 1280.00 L 1062.00 1303.00 L 1090.00 1345.00 L 1088.00 1347.00 L 1056.00 1309.00 L 1054.00 1310.00 L 1082.00 1350.00 L 1075.00 1354.00 L 1033.00 1322.00 L 1014.00 1311.00 L 1018.00 1321.00 L 1019.00 1325.00 L 1017.00 1323.00 L 1016.00 1325.00 L 1016.00 1331.00 L 1024.00 1349.00 L 1040.00 1379.00 L 1039.00 1380.00 L 1021.00 1352.00 L 1034.00 1381.00 L 1078.00 1467.00 L 1097.00 1505.00 L 1091.00 1495.00 L 1102.00 1524.00 L 1130.00 1592.00 L 1145.00 1645.00 L 1147.00 1683.00 L 1143.00 1715.00 L 1133.00 1741.00 L 1124.00 1754.00 L 1116.00 1754.00 L 1100.00 1747.00 L 1076.00 1733.00 L 1040.00 1705.00 L 992.00 1663.00 L 948.00 1629.00 L 908.00 1603.00 L 841.00 1564.00 L 747.00 1512.00 L 648.00 1467.00 L 544.00 1429.00 L 476.00 1406.00 L 444.00 1398.00 L 421.00 1395.00 L 407.00 1397.00 L 386.00 1392.00 L 358.00 1380.00 L 342.00 1368.00 L 338.00 1356.00 L 338.00 1332.00 L 342.00 1296.00 L 351.00 1255.00 L 365.00 1209.00 L 377.00 1176.00 L 387.00 1156.00 L 390.00 1134.00 L 386.00 1110.00 L 386.00 1071.00 L 390.00 1017.00 L 392.00 987.00 L 392.00 981.00 L 397.00 962.00 Z" fill="black" stroke="black" stroke-width="1"/>
</svg>