<?xml version="1.0" encoding="UTF-8"?>
<svg xmlns="http://www.w3.org/2000/svg" viewBox="220.00 271.00 983.00 1541.00">
  <path d="M 365.00 1053.00 L 403.00 1051.00 L 402.00 1049.00 L 362.00 1047.00 L 361.00 1046.00 L 399.00 1046.00 L 398.00 1041.00 L 358.00 1031.00 L 330.00 985.00 L 314.00 903.00 L 287.00 813.00 L 249.00 715.00 L 230.00 644.00 L 230.00 600.00 L 235.00 562.00 L 245.00 530.00 L 288.00 472.00 L 364.00 388.00 L 437.00 332.00 L 507.00 304.00 L 572.00 287.00 L 632.00 281.00 L 711.00 292.00 L 809.00 320.00 L 879.00 354.00 L 921.00 394.00 L 946.00 422.00 L 954.00 438.00 L 955.00 457.00 L 949.00 479.00 L 952.00 482.00 L 964.00 466.00 L 967.00 469.00 L 961.00 491.00 L 963.00 493.00 L 973.00 475.00 L 974.00 476.00 L 966.00 496.00 L 967.00 498.00 L 977.00 482.00 L 978.00 484.00 L 970.00 504.00 L 971.00 507.00 L 981.00 493.00 L 982.00 497.00 L 974.00 519.00 L 975.00 521.00 L 985.00 503.00 L 986.00 506.00 L 978.00 530.00 L 979.00 533.00 L 989.00 515.00 L 991.00 520.00 L 985.00 548.00 L 988.00 603.00 L 1000.00 685.00 L 1033.00 756.00 L 1087.00 816.00 L 1112.00 853.00 L 1108.00 867.00 L 1095.00 882.00 L 1073.00 898.00 L 1048.00 967.00 L 1020.00 1089.00 L 971.00 1172.00 L 901.00 1216.00 L 948.00 1343.00 L 1112.00 1553.00 L 1111.00 1554.00 L 945.00 1346.00 L 946.00 1348.00 L 1114.00 1560.00 L 1179.00 1645.00 L 1141.00 1603.00 L 1143.00 1610.00 L 1185.00 1666.00 L 1181.00 1663.00 L 1131.00 1601.00 L 1131.00 1606.00 L 1181.00 1678.00 L 1176.00 1675.00 L 1116.00 1597.00 L 1116.00 1599.00 L 1176.00 1681.00 L 1173.00 1680.00 L 1107.00 1596.00 L 1106.00 1598.00 L 1170.00 1686.00 L 1115.00 1610.00 L 941.00 1370.00 L 940.00 1376.00 L 1112.00 1628.00 L 1111.00 1629.00 L 937.00 1379.00 L 936.00 1381.00 L 1108.00 1635.00 L 1193.00 1765.00 L 1191.00 1771.00 L 1149.00 1713.00 L 1067.00 1591.00 L 1066.00 1593.00 L 1146.00 1719.00 L 1143.00 1718.00 L 1057.00 1590.00 L 1056.00 1592.00 L 1140.00 1724.00 L 1097.00 1658.00 L 927.00 1394.00 L 925.00 1400.00 L 1091.00 1676.00 L 1091.00 1678.00 L 925.00 1406.00 L 924.00 1409.00 L 1088.00 1687.00 L 1121.00 1746.00 L 1023.00 1586.00 L 1021.00 1589.00 L 1115.00 1755.00 L 1081.00 1697.00 L 919.00 1415.00 L 917.00 1413.00 L 1075.00 1691.00 L 1075.00 1693.00 L 917.00 1419.00 L 911.00 1415.00 L 1057.00 1681.00 L 1085.00 1735.00 L 995.00 1577.00 L 991.00 1575.00 L 1073.00 1729.00 L 1110.00 1802.00 L 1102.00 1794.00 L 1059.00 1716.00 L 981.00 1568.00 L 978.00 1566.00 L 1050.00 1710.00 L 1023.00 1660.00 L 897.00 1416.00 L 895.00 1415.00 L 1017.00 1657.00 L 1017.00 1659.00 L 895.00 1421.00 L 890.00 1418.00 L 1002.00 1650.00 L 1001.00 1652.00 L 887.00 1424.00 L 880.00 1420.00 L 980.00 1640.00 L 980.00 1643.00 L 880.00 1429.00 L 875.00 1426.00 L 965.00 1634.00 L 965.00 1637.00 L 875.00 1435.00 L 870.00 1432.00 L 950.00 1628.00 L 950.00 1630.00 L 870.00 1438.00 L 868.00 1437.00 L 944.00 1627.00 L 944.00 1629.00 L 868.00 1443.00 L 866.00 1442.00 L 938.00 1626.00 L 938.00 1629.00 L 866.00 1451.00 L 862.00 1449.00 L 926.00 1623.00 L 928.00 1630.00 L 868.00 1470.00 L 865.00 1469.00 L 919.00 1627.00 L 903.00 1687.00 L 817.00 1649.00 L 685.00 1608.00 L 507.00 1564.00 L 412.00 1537.00 L 400.00 1527.00 L 387.00 1509.00 L 373.00 1483.00 L 366.00 1452.00 L 366.00 1416.00 L 382.00 1359.00 L 414.00 1281.00 L 433.00 1213.00 L 439.00 1155.00 L 432.00 1124.00 L 412.00 1120.00 L 411.00 1115.00 L 429.00 1109.00 L 426.00 1107.00 L 402.00 1109.00 L 402.00 1107.00 L 426.00 1101.00 L 423.00 1099.00 L 393.00 1101.00 L 392.00 1099.00 L 420.00 1093.00 L 417.00 1090.00 L 383.00 1090.00 L 383.00 1088.00 L 417.00 1084.00 L 416.00 1082.00 L 380.00 1082.00 L 379.00 1080.00 L 413.00 1076.00 L 411.00 1074.00 L 373.00 1074.00 L 372.00 1071.00 L 408.00 1065.00 L 407.00 1062.00 L 369.00 1062.00 L 349.00 1060.00 L 347.00 1056.00 L 365.00 1053.00 Z" fill="black" stroke="black" stroke-width="1"/>
</svg>