<?xml version="1.0" encoding="UTF-8"?>
<svg xmlns="http://www.w3.org/2000/svg" viewBox="222.00 214.00 949.00 1438.00">
  <path d="M 280.00 971.00 L 292.00 941.00 L 292.00 874.00 L 280.00 770.00 L 275.00 685.00 L 277.00 619.00 L 285.00 543.00 L 299.00 457.00 L 318.00 393.00 L 342.00 351.00 L 381.00 311.00 L 435.00 273.00 L 511.00 246.00 L 609.00 230.00 L 698.00 224.00 L 778.00 228.00 L 846.00 241.00 L 902.00 263.00 L 947.00 290.00 L 981.00 322.00 L 997.00 348.00 L 995.00 368.00 L 998.00 372.00 L 1006.00 360.00 L 1009.00 365.00 L 1007.00 387.00 L 1010.00 392.00 L 1018.00 380.00 L 1021.00 386.00 L 1019.00 410.00 L 1022.00 420.00 L 1030.00 416.00 L 1035.00 425.00 L 1037.00 447.00 L 1042.00 456.00 L 1050.00 452.00 L 1051.00 455.00 L 1045.00 465.00 L 1046.00 504.00 L 1054.00 572.00 L 1078.00 631.00 L 1118.00 681.00 L 1138.00 711.00 L 1138.00 721.00 L 1123.00 737.00 L 1093.00 759.00 L 1082.00 782.00 L 1090.00 806.00 L 1085.00 838.00 L 1067.00 878.00 L 1060.00 919.00 L 1064.00 961.00 L 1057.00 988.00 L 1039.00 1000.00 L 1013.00 1006.00 L 979.00 1006.00 L 972.00 1014.00 L 992.00 1030.00 L 991.00 1076.00 L 969.00 1152.00 L 959.00 1203.00 L 961.00 1229.00 L 970.00 1253.00 L 986.00 1275.00 L 984.00 1278.00 L 964.00 1262.00 L 996.00 1303.00 L 1080.00 1401.00 L 1117.00 1446.00 L 1107.00 1438.00 L 1116.00 1460.00 L 1144.00 1512.00 L 1159.00 1570.00 L 1161.00 1634.00 L 1109.00 1642.00 L 1003.00 1594.00 L 909.00 1557.00 L 827.00 1531.00 L 726.00 1509.00 L 606.00 1491.00 L 501.00 1485.00 L 411.00 1491.00 L 349.00 1491.00 L 315.00 1485.00 L 292.00 1473.00 L 280.00 1455.00 L 277.00 1422.00 L 283.00 1374.00 L 279.00 1355.00 L 265.00 1365.00 L 268.00 1357.00 L 288.00 1331.00 L 285.00 1328.00 L 259.00 1348.00 L 261.00 1342.00 L 291.00 1310.00 L 290.00 1307.00 L 258.00 1333.00 L 259.00 1330.00 L 293.00 1298.00 L 295.00 1294.00 L 265.00 1318.00 L 266.00 1312.00 L 298.00 1276.00 L 300.00 1268.00 L 272.00 1288.00 L 264.00 1292.00 L 276.00 1280.00 L 277.00 1277.00 L 267.00 1283.00 L 276.00 1275.00 L 304.00 1253.00 L 299.00 1255.00 L 261.00 1281.00 L 262.00 1278.00 L 302.00 1246.00 L 297.00 1248.00 L 247.00 1284.00 L 249.00 1281.00 L 303.00 1239.00 L 302.00 1236.00 L 246.00 1272.00 L 248.00 1268.00 L 308.00 1224.00 L 309.00 1221.00 L 251.00 1259.00 L 232.00 1271.00 L 252.00 1257.00 L 253.00 1254.00 L 235.00 1262.00 L 255.00 1247.00 L 313.00 1209.00 L 315.00 1205.00 L 261.00 1235.00 L 262.00 1232.00 L 318.00 1196.00 L 319.00 1193.00 L 265.00 1223.00 L 253.00 1227.00 L 283.00 1205.00 L 284.00 1202.00 L 256.00 1218.00 L 268.00 1210.00 L 320.00 1178.00 L 314.00 1178.00 L 250.00 1210.00 L 251.00 1207.00 L 317.00 1169.00 L 315.00 1166.00 L 245.00 1198.00 L 243.00 1195.00 L 309.00 1157.00 L 314.00 1151.00 L 258.00 1177.00 L 257.00 1174.00 L 311.00 1142.00 L 319.00 1133.00 L 281.00 1147.00 L 280.00 1144.00 L 316.00 1124.00 L 318.00 1119.00 L 286.00 1129.00 L 286.00 1125.00 L 318.00 1107.00 L 318.00 1100.00 L 286.00 1104.00 L 286.00 1100.00 L 318.00 1088.00 L 317.00 1086.00 L 283.00 1094.00 L 284.00 1092.00 L 320.00 1080.00 L 320.00 1078.00 L 284.00 1086.00 L 266.00 1087.00 L 266.00 1081.00 L 284.00 1074.00 L 320.00 1066.00 L 320.00 1064.00 L 284.00 1068.00 L 285.00 1065.00 L 323.00 1055.00 L 323.00 1053.00 L 285.00 1059.00 L 281.00 1057.00 L 311.00 1047.00 L 311.00 1044.00 L 281.00 1048.00 L 285.00 1047.00 L 323.00 1041.00 L 323.00 1038.00 L 285.00 1038.00 L 286.00 1035.00 L 326.00 1029.00 L 326.00 1026.00 L 286.00 1026.00 L 300.00 1022.00 L 368.00 1014.00 L 369.00 1012.00 L 303.00 1016.00 L 301.00 1016.00 L 363.00 1012.00 L 363.00 1010.00 L 301.00 1010.00 L 296.00 1008.00 L 348.00 1004.00 L 348.00 1001.00 L 296.00 999.00 L 271.00 995.00 L 273.00 989.00 L 280.00 971.00 Z" fill="black" stroke="black" stroke-width="1"/>
</svg>