<?xml version="1.0" encoding="UTF-8"?>
<svg xmlns="http://www.w3.org/2000/svg" viewBox="299.00 197.00 1014.00 1577.00">
  <path d="M 530.00 1031.00 L 506.00 1009.00 L 485.00 949.00 L 467.00 851.00 L 444.00 791.00 L 416.00 769.00 L 416.00 766.00 L 444.00 782.00 L 442.00 774.00 L 410.00 742.00 L 426.00 686.00 L 490.00 606.00 L 521.00 550.00 L 519.00 518.00 L 539.00 454.00 L 581.00 358.00 L 627.00 294.00 L 677.00 262.00 L 751.00 236.00 L 849.00 216.00 L 920.00 207.00 L 964.00 209.00 L 1035.00 231.00 L 1133.00 273.00 L 1202.00 321.00 L 1242.00 375.00 L 1268.00 423.00 L 1280.00 465.00 L 1281.00 512.00 L 1271.00 564.00 L 1269.00 660.00 L 1275.00 800.00 L 1264.00 878.00 L 1236.00 894.00 L 1237.00 898.00 L 1267.00 890.00 L 1267.00 894.00 L 1237.00 910.00 L 1237.00 913.00 L 1267.00 903.00 L 1268.00 906.00 L 1240.00 922.00 L 1242.00 928.00 L 1274.00 924.00 L 1274.00 927.00 L 1242.00 937.00 L 1243.00 939.00 L 1277.00 933.00 L 1277.00 936.00 L 1243.00 948.00 L 1245.00 955.00 L 1283.00 957.00 L 1284.00 964.00 L 1248.00 976.00 L 1248.00 979.00 L 1284.00 973.00 L 1284.00 975.00 L 1248.00 985.00 L 1249.00 991.00 L 1287.00 993.00 L 1288.00 999.00 L 1252.00 1009.00 L 1252.00 1013.00 L 1288.00 1011.00 L 1289.00 1014.00 L 1255.00 1022.00 L 1255.00 1025.00 L 1289.00 1023.00 L 1289.00 1027.00 L 1255.00 1037.00 L 1255.00 1042.00 L 1289.00 1042.00 L 1289.00 1045.00 L 1255.00 1051.00 L 1255.00 1060.00 L 1289.00 1072.00 L 1288.00 1079.00 L 1252.00 1081.00 L 1251.00 1084.00 L 1285.00 1088.00 L 1285.00 1092.00 L 1251.00 1096.00 L 1251.00 1102.00 L 1285.00 1110.00 L 1285.00 1117.00 L 1251.00 1123.00 L 1250.00 1131.00 L 1282.00 1141.00 L 1282.00 1144.00 L 1250.00 1140.00 L 1256.00 1145.00 L 1300.00 1159.00 L 1299.00 1162.00 L 1253.00 1154.00 L 1254.00 1157.00 L 1302.00 1171.00 L 1303.00 1174.00 L 1257.00 1166.00 L 1256.00 1170.00 L 1300.00 1186.00 L 1300.00 1189.00 L 1256.00 1179.00 L 1256.00 1182.00 L 1300.00 1198.00 L 1300.00 1202.00 L 1256.00 1194.00 L 1256.00 1199.00 L 1300.00 1217.00 L 1300.00 1220.00 L 1256.00 1208.00 L 1252.00 1210.00 L 1288.00 1226.00 L 1289.00 1229.00 L 1255.00 1219.00 L 1256.00 1222.00 L 1292.00 1238.00 L 1292.00 1240.00 L 1256.00 1228.00 L 1252.00 1230.00 L 1280.00 1246.00 L 1281.00 1248.00 L 1255.00 1236.00 L 1255.00 1240.00 L 1281.00 1260.00 L 1282.00 1266.00 L 1258.00 1258.00 L 1258.00 1261.00 L 1282.00 1275.00 L 1283.00 1278.00 L 1261.00 1270.00 L 1261.00 1274.00 L 1283.00 1290.00 L 1284.00 1293.00 L 1264.00 1283.00 L 1264.00 1286.00 L 1284.00 1302.00 L 1284.00 1304.00 L 1264.00 1292.00 L 1264.00 1295.00 L 1284.00 1313.00 L 1285.00 1319.00 L 1267.00 1313.00 L 1269.00 1328.00 L 1291.00 1364.00 L 1291.00 1375.00 L 1269.00 1361.00 L 1256.00 1365.00 L 1252.00 1387.00 L 1238.00 1408.00 L 1214.00 1428.00 L 1121.00 1452.00 L 959.00 1480.00 L 833.00 1509.00 L 743.00 1539.00 L 650.00 1578.00 L 554.00 1626.00 L 483.00 1672.00 L 437.00 1716.00 L 421.00 1727.00 L 435.00 1705.00 L 425.00 1715.00 L 391.00 1757.00 L 383.00 1764.00 L 401.00 1736.00 L 399.00 1734.00 L 377.00 1758.00 L 374.00 1758.00 L 390.00 1734.00 L 392.00 1726.00 L 380.00 1734.00 L 359.00 1729.00 L 329.00 1711.00 L 324.00 1687.00 L 344.00 1657.00 L 341.00 1656.00 L 315.00 1684.00 L 315.00 1682.00 L 341.00 1650.00 L 339.00 1649.00 L 309.00 1679.00 L 309.00 1676.00 L 339.00 1640.00 L 339.00 1638.00 L 309.00 1670.00 L 318.00 1644.00 L 366.00 1560.00 L 388.00 1494.00 L 384.00 1446.00 L 391.00 1408.00 L 409.00 1380.00 L 412.00 1370.00 L 400.00 1378.00 L 411.00 1358.00 L 445.00 1310.00 L 493.00 1260.00 L 555.00 1208.00 L 573.00 1185.00 L 547.00 1191.00 L 547.00 1186.00 L 573.00 1170.00 L 579.00 1164.00 L 565.00 1168.00 L 564.00 1167.00 L 576.00 1161.00 L 585.00 1137.00 L 591.00 1095.00 L 584.00 1069.00 L 564.00 1059.00 L 551.00 1051.00 L 545.00 1045.00 L 530.00 1031.00 Z" fill="black" stroke="black" stroke-width="1"/>
</svg>