<?xml version="1.0" encoding="UTF-8"?>
<svg xmlns="http://www.w3.org/2000/svg" viewBox="226.00 165.00 936.00 1570.00">
  <path d="M 352.00 963.00 L 360.00 933.00 L 323.00 906.00 L 241.00 882.00 L 242.00 880.00 L 326.00 900.00 L 327.00 897.00 L 245.00 871.00 L 247.00 868.00 L 333.00 888.00 L 336.00 884.00 L 256.00 856.00 L 236.00 846.00 L 276.00 854.00 L 282.00 849.00 L 254.00 831.00 L 276.00 836.00 L 348.00 864.00 L 351.00 862.00 L 285.00 830.00 L 286.00 827.00 L 354.00 853.00 L 358.00 850.00 L 298.00 818.00 L 298.00 814.00 L 358.00 838.00 L 362.00 835.00 L 310.00 805.00 L 311.00 802.00 L 365.00 826.00 L 369.00 823.00 L 323.00 793.00 L 323.00 791.00 L 369.00 817.00 L 373.00 814.00 L 335.00 782.00 L 334.00 777.00 L 370.00 799.00 L 373.00 796.00 L 343.00 768.00 L 335.00 741.00 L 349.00 715.00 L 340.00 602.00 L 308.00 402.00 L 376.00 277.00 L 544.00 227.00 L 686.00 193.00 L 802.00 175.00 L 873.00 187.00 L 899.00 229.00 L 935.00 329.00 L 981.00 487.00 L 1020.00 569.00 L 1052.00 575.00 L 1059.00 588.00 L 1041.00 608.00 L 1044.00 608.00 L 1068.00 588.00 L 1069.00 591.00 L 1047.00 617.00 L 1050.00 618.00 L 1078.00 594.00 L 1079.00 596.00 L 1053.00 624.00 L 1058.00 625.00 L 1094.00 599.00 L 1095.00 602.00 L 1061.00 634.00 L 1064.00 635.00 L 1104.00 605.00 L 1104.00 608.00 L 1064.00 644.00 L 1068.00 645.00 L 1116.00 611.00 L 1117.00 614.00 L 1071.00 654.00 L 1073.00 655.00 L 1123.00 617.00 L 1122.00 621.00 L 1070.00 667.00 L 1073.00 668.00 L 1131.00 624.00 L 1131.00 628.00 L 1073.00 680.00 L 1077.00 682.00 L 1143.00 634.00 L 1142.00 637.00 L 1074.00 691.00 L 1077.00 694.00 L 1151.00 646.00 L 1152.00 649.00 L 1080.00 703.00 L 1065.00 763.00 L 1107.00 829.00 L 1113.00 871.00 L 1083.00 889.00 L 1073.00 897.00 L 1083.00 895.00 L 1080.00 943.00 L 1064.00 1041.00 L 1043.00 1103.00 L 1017.00 1129.00 L 1013.00 1150.00 L 1031.00 1166.00 L 1031.00 1193.00 L 1013.00 1231.00 L 1014.00 1264.00 L 1034.00 1292.00 L 1034.00 1299.00 L 1014.00 1285.00 L 1016.00 1291.00 L 1040.00 1317.00 L 1038.00 1322.00 L 1010.00 1306.00 L 1004.00 1307.00 L 1020.00 1325.00 L 1018.00 1326.00 L 998.00 1310.00 L 993.00 1314.00 L 1003.00 1338.00 L 1001.00 1343.00 L 987.00 1329.00 L 990.00 1334.00 L 1010.00 1358.00 L 1020.00 1390.00 L 1020.00 1430.00 L 1042.00 1495.00 L 1086.00 1585.00 L 1103.00 1650.00 L 1093.00 1690.00 L 1068.00 1715.00 L 1028.00 1725.00 L 944.00 1686.00 L 816.00 1598.00 L 686.00 1532.00 L 554.00 1488.00 L 493.00 1445.00 L 503.00 1403.00 L 500.00 1402.00 L 484.00 1442.00 L 483.00 1439.00 L 497.00 1393.00 L 494.00 1392.00 L 474.00 1436.00 L 473.00 1435.00 L 491.00 1389.00 L 486.00 1388.00 L 458.00 1432.00 L 452.00 1432.00 L 468.00 1388.00 L 465.00 1386.00 L 443.00 1426.00 L 438.00 1429.00 L 450.00 1395.00 L 447.00 1391.00 L 429.00 1417.00 L 426.00 1415.00 L 438.00 1385.00 L 435.00 1373.00 L 417.00 1379.00 L 413.00 1356.00 L 423.00 1304.00 L 401.00 1309.00 L 347.00 1371.00 L 348.00 1368.00 L 404.00 1300.00 L 401.00 1301.00 L 339.00 1371.00 L 340.00 1367.00 L 404.00 1289.00 L 401.00 1288.00 L 331.00 1364.00 L 331.00 1361.00 L 401.00 1279.00 L 406.00 1271.00 L 346.00 1337.00 L 346.00 1335.00 L 406.00 1265.00 L 411.00 1254.00 L 361.00 1302.00 L 360.00 1299.00 L 408.00 1245.00 L 409.00 1241.00 L 363.00 1287.00 L 362.00 1284.00 L 406.00 1232.00 L 410.00 1219.00 L 374.00 1245.00 L 374.00 1242.00 L 410.00 1210.00 L 411.00 1207.00 L 377.00 1233.00 L 378.00 1230.00 L 414.00 1198.00 L 408.00 1194.00 L 360.00 1218.00 L 358.00 1213.00 L 402.00 1179.00 L 401.00 1177.00 L 355.00 1207.00 L 355.00 1204.00 L 401.00 1168.00 L 400.00 1165.00 L 352.00 1195.00 L 352.00 1192.00 L 400.00 1156.00 L 406.00 1149.00 L 370.00 1171.00 L 371.00 1164.00 L 409.00 1128.00 L 414.00 1115.00 L 386.00 1125.00 L 386.00 1122.00 L 414.00 1106.00 L 415.00 1103.00 L 389.00 1113.00 L 390.00 1110.00 L 418.00 1094.00 L 417.00 1091.00 L 387.00 1101.00 L 387.00 1097.00 L 417.00 1079.00 L 415.00 1072.00 L 381.00 1076.00 L 381.00 1072.00 L 415.00 1060.00 L 414.00 1057.00 L 378.00 1063.00 L 379.00 1059.00 L 417.00 1045.00 L 416.00 1042.00 L 376.00 1050.00 L 376.00 1046.00 L 416.00 1030.00 L 414.00 1020.00 L 370.00 1016.00 L 370.00 1012.00 L 414.00 1008.00 L 414.00 1003.00 L 370.00 997.00 L 348.00 990.00 L 348.00 982.00 L 352.00 963.00 Z" fill="black" stroke="black" stroke-width="1"/>
</svg>