<?xml version="1.0" encoding="UTF-8"?>
<svg xmlns="http://www.w3.org/2000/svg" viewBox="416.00 241.00 823.00 1387.00">
  <path d="M 513.00 917.00 L 503.00 907.00 L 500.00 896.00 L 504.00 884.00 L 504.00 869.00 L 500.00 851.00 L 492.00 837.00 L 480.00 827.00 L 480.00 824.00 L 492.00 828.00 L 487.00 826.00 L 465.00 818.00 L 463.00 817.00 L 481.00 823.00 L 479.00 821.00 L 457.00 811.00 L 445.00 799.00 L 443.00 785.00 L 449.00 762.00 L 463.00 730.00 L 482.00 698.00 L 506.00 666.00 L 513.00 623.00 L 503.00 569.00 L 501.00 546.00 L 507.00 554.00 L 510.00 556.00 L 510.00 552.00 L 507.00 545.00 L 501.00 535.00 L 502.00 534.00 L 510.00 542.00 L 511.00 538.00 L 505.00 522.00 L 506.00 518.00 L 514.00 526.00 L 515.00 521.00 L 509.00 503.00 L 508.00 497.00 L 512.00 503.00 L 513.00 501.00 L 511.00 491.00 L 513.00 490.00 L 519.00 498.00 L 520.00 497.00 L 516.00 487.00 L 517.00 485.00 L 523.00 491.00 L 524.00 489.00 L 520.00 479.00 L 520.00 477.00 L 524.00 483.00 L 525.00 477.00 L 523.00 459.00 L 525.00 455.00 L 531.00 465.00 L 533.00 459.00 L 531.00 437.00 L 537.00 413.00 L 551.00 387.00 L 571.00 360.00 L 597.00 332.00 L 638.00 305.00 L 694.00 279.00 L 765.00 261.00 L 851.00 251.00 L 929.00 254.00 L 999.00 270.00 L 1065.00 299.00 L 1127.00 341.00 L 1173.00 385.00 L 1203.00 431.00 L 1221.00 471.00 L 1227.00 505.00 L 1229.00 543.00 L 1227.00 585.00 L 1212.00 640.00 L 1184.00 708.00 L 1150.00 768.00 L 1110.00 820.00 L 1076.00 851.00 L 1048.00 861.00 L 1048.00 863.00 L 1076.00 857.00 L 1075.00 858.00 L 1045.00 866.00 L 1044.00 869.00 L 1072.00 867.00 L 1071.00 871.00 L 1041.00 881.00 L 1040.00 884.00 L 1068.00 880.00 L 1067.00 883.00 L 1037.00 893.00 L 1032.00 897.00 L 1052.00 895.00 L 1052.00 898.00 L 1032.00 906.00 L 1020.00 918.00 L 1016.00 934.00 L 1014.00 968.00 L 1014.00 1020.00 L 1031.00 1103.00 L 1065.00 1217.00 L 1080.00 1291.00 L 1076.00 1325.00 L 1029.00 1355.00 L 939.00 1381.00 L 861.00 1409.00 L 795.00 1439.00 L 714.00 1490.00 L 618.00 1562.00 L 595.00 1513.00 L 645.00 1343.00 L 642.00 1345.00 L 586.00 1519.00 L 587.00 1513.00 L 645.00 1327.00 L 640.00 1332.00 L 572.00 1528.00 L 572.00 1525.00 L 640.00 1323.00 L 638.00 1325.00 L 566.00 1531.00 L 567.00 1526.00 L 641.00 1310.00 L 639.00 1312.00 L 561.00 1532.00 L 561.00 1530.00 L 639.00 1306.00 L 635.00 1309.00 L 549.00 1539.00 L 549.00 1536.00 L 635.00 1300.00 L 631.00 1304.00 L 537.00 1548.00 L 537.00 1546.00 L 631.00 1298.00 L 627.00 1302.00 L 525.00 1558.00 L 525.00 1555.00 L 627.00 1293.00 L 624.00 1295.00 L 516.00 1561.00 L 492.00 1618.00 L 552.00 1466.00 L 551.00 1464.00 L 489.00 1612.00 L 488.00 1613.00 L 548.00 1467.00 L 547.00 1465.00 L 485.00 1607.00 L 510.00 1546.00 L 622.00 1282.00 L 621.00 1279.00 L 507.00 1537.00 L 507.00 1534.00 L 621.00 1270.00 L 619.00 1266.00 L 501.00 1522.00 L 467.00 1595.00 L 517.00 1485.00 L 515.00 1482.00 L 461.00 1586.00 L 495.00 1510.00 L 617.00 1254.00 L 616.00 1251.00 L 492.00 1501.00 L 448.00 1587.00 L 484.00 1509.00 L 483.00 1506.00 L 445.00 1578.00 L 489.00 1489.00 L 615.00 1239.00 L 614.00 1237.00 L 486.00 1483.00 L 436.00 1578.00 L 464.00 1522.00 L 464.00 1520.00 L 436.00 1572.00 L 434.00 1574.00 L 458.00 1526.00 L 458.00 1524.00 L 434.00 1568.00 L 432.00 1570.00 L 452.00 1530.00 L 452.00 1528.00 L 432.00 1564.00 L 431.00 1565.00 L 449.00 1531.00 L 449.00 1529.00 L 431.00 1559.00 L 429.00 1561.00 L 443.00 1535.00 L 443.00 1533.00 L 429.00 1555.00 L 426.00 1558.00 L 434.00 1542.00 L 436.00 1537.00 L 432.00 1543.00 L 491.00 1436.00 L 613.00 1216.00 L 669.00 1093.00 L 659.00 1067.00 L 621.00 1039.00 L 555.00 1009.00 L 520.00 990.00 L 516.00 982.00 L 516.00 966.00 L 520.00 942.00 L 521.00 928.00 L 519.00 924.00 L 513.00 917.00 Z" fill="black" stroke="black" stroke-width="1"/>
</svg>