<?xml version="1.0" encoding="UTF-8"?>
<svg xmlns="http://www.w3.org/2000/svg" viewBox="349.00 301.00 899.00 1359.00">
  <path d="M 406.00 974.00 L 406.00 958.00 L 407.00 949.00 L 409.00 947.00 L 409.00 941.00 L 407.00 931.00 L 395.00 920.00 L 373.00 908.00 L 361.00 893.00 L 359.00 875.00 L 362.00 859.00 L 370.00 845.00 L 383.00 828.00 L 401.00 808.00 L 413.00 789.00 L 419.00 771.00 L 424.00 763.00 L 428.00 765.00 L 429.00 763.00 L 427.00 757.00 L 428.00 730.00 L 432.00 682.00 L 438.00 643.00 L 446.00 613.00 L 447.00 594.00 L 441.00 586.00 L 440.00 583.00 L 444.00 585.00 L 443.00 578.00 L 437.00 562.00 L 436.00 555.00 L 440.00 557.00 L 443.00 557.00 L 445.00 555.00 L 445.00 551.00 L 443.00 545.00 L 443.00 537.00 L 445.00 527.00 L 454.00 507.00 L 470.00 477.00 L 485.00 452.00 L 499.00 432.00 L 519.00 410.00 L 545.00 386.00 L 571.00 367.00 L 597.00 353.00 L 638.00 337.00 L 694.00 319.00 L 777.00 311.00 L 887.00 313.00 L 958.00 318.00 L 990.00 326.00 L 1025.00 341.00 L 1063.00 363.00 L 1092.00 383.00 L 1112.00 401.00 L 1132.00 423.00 L 1152.00 449.00 L 1171.00 478.00 L 1189.00 510.00 L 1205.00 545.00 L 1219.00 583.00 L 1229.00 622.00 L 1235.00 662.00 L 1238.00 693.00 L 1238.00 715.00 L 1229.00 744.00 L 1211.00 780.00 L 1181.00 821.00 L 1139.00 867.00 L 1110.00 910.00 L 1094.00 950.00 L 1081.00 972.00 L 1071.00 976.00 L 1071.00 983.00 L 1081.00 993.00 L 1087.00 1002.00 L 1089.00 1010.00 L 1091.00 1034.00 L 1093.00 1074.00 L 1097.00 1105.00 L 1103.00 1127.00 L 1105.00 1144.00 L 1103.00 1156.00 L 1103.00 1173.00 L 1105.00 1195.00 L 1108.00 1209.00 L 1112.00 1215.00 L 1115.00 1222.00 L 1117.00 1230.00 L 1117.00 1236.00 L 1115.00 1240.00 L 1121.00 1262.00 L 1135.00 1302.00 L 1142.00 1331.00 L 1142.00 1349.00 L 1140.00 1363.00 L 1136.00 1373.00 L 1130.00 1381.00 L 1122.00 1387.00 L 1110.00 1393.00 L 1094.00 1399.00 L 1080.00 1402.00 L 1068.00 1402.00 L 1022.00 1412.00 L 942.00 1432.00 L 865.00 1456.00 L 791.00 1484.00 L 735.00 1507.00 L 697.00 1525.00 L 678.00 1532.00 L 678.00 1528.00 L 677.00 1529.00 L 675.00 1535.00 L 674.00 1535.00 L 674.00 1529.00 L 671.00 1530.00 L 665.00 1538.00 L 661.00 1540.00 L 659.00 1536.00 L 657.00 1537.00 L 655.00 1543.00 L 654.00 1543.00 L 654.00 1537.00 L 650.00 1540.00 L 642.00 1552.00 L 632.00 1561.00 L 620.00 1567.00 L 608.00 1576.00 L 596.00 1588.00 L 577.00 1602.00 L 551.00 1618.00 L 537.00 1628.00 L 535.00 1632.00 L 529.00 1635.00 L 519.00 1637.00 L 509.00 1641.00 L 499.00 1647.00 L 488.00 1650.00 L 476.00 1650.00 L 466.00 1648.00 L 458.00 1644.00 L 450.00 1637.00 L 442.00 1627.00 L 474.00 1547.00 L 546.00 1397.00 L 545.00 1394.00 L 471.00 1538.00 L 472.00 1536.00 L 548.00 1388.00 L 548.00 1386.00 L 472.00 1530.00 L 467.00 1538.00 L 533.00 1410.00 L 533.00 1408.00 L 467.00 1532.00 L 466.00 1533.00 L 530.00 1411.00 L 530.00 1409.00 L 466.00 1527.00 L 471.00 1516.00 L 545.00 1376.00 L 546.00 1371.00 L 474.00 1501.00 L 466.00 1514.00 L 522.00 1410.00 L 523.00 1407.00 L 469.00 1505.00 L 468.00 1506.00 L 520.00 1410.00 L 521.00 1407.00 L 471.00 1497.00 L 454.00 1526.00 L 470.00 1494.00 L 470.00 1492.00 L 454.00 1520.00 L 452.00 1523.00 L 464.00 1501.00 L 466.00 1497.00 L 458.00 1511.00 L 455.00 1516.00 L 457.00 1512.00 L 486.00 1457.00 L 542.00 1351.00 L 572.00 1291.00 L 576.00 1277.00 L 573.00 1277.00 L 563.00 1291.00 L 556.00 1298.00 L 552.00 1298.00 L 556.00 1288.00 L 568.00 1268.00 L 565.00 1268.00 L 547.00 1288.00 L 546.00 1286.00 L 562.00 1262.00 L 561.00 1261.00 L 543.00 1283.00 L 542.00 1281.00 L 558.00 1255.00 L 556.00 1252.00 L 536.00 1272.00 L 535.00 1270.00 L 553.00 1246.00 L 553.00 1244.00 L 535.00 1264.00 L 534.00 1262.00 L 550.00 1238.00 L 555.00 1223.00 L 549.00 1217.00 L 552.00 1205.00 L 564.00 1187.00 L 563.00 1185.00 L 549.00 1199.00 L 546.00 1201.00 L 554.00 1191.00 L 554.00 1190.00 L 546.00 1198.00 L 546.00 1196.00 L 554.00 1184.00 L 543.00 1175.00 L 513.00 1169.00 L 493.00 1164.00 L 483.00 1160.00 L 475.00 1155.00 L 469.00 1149.00 L 463.00 1140.00 L 457.00 1128.00 L 457.00 1113.00 L 463.00 1095.00 L 455.00 1073.00 L 433.00 1047.00 L 423.00 1030.00 L 425.00 1022.00 L 423.00 1016.00 L 417.00 1012.00 L 412.00 1005.00 L 408.00 995.00 L 406.00 988.00 L 406.00 984.00 L 406.00 974.00 Z" fill="black" stroke="black" stroke-width="1"/>
</svg>