<?xml version="1.0" encoding="UTF-8"?>
<svg xmlns="http://www.w3.org/2000/svg" viewBox="391.00 242.00 939.00 1505.00">
  <path d="M 492.00 953.00 L 488.00 911.00 L 474.00 880.00 L 450.00 860.00 L 436.00 843.00 L 432.00 829.00 L 453.00 791.00 L 499.00 729.00 L 521.00 687.00 L 519.00 665.00 L 510.00 641.00 L 494.00 615.00 L 494.00 612.00 L 510.00 632.00 L 512.00 629.00 L 500.00 603.00 L 502.00 598.00 L 518.00 614.00 L 519.00 612.00 L 505.00 592.00 L 505.00 590.00 L 519.00 606.00 L 520.00 603.00 L 508.00 581.00 L 509.00 578.00 L 523.00 594.00 L 524.00 592.00 L 512.00 572.00 L 513.00 569.00 L 527.00 583.00 L 529.00 581.00 L 519.00 563.00 L 520.00 560.00 L 532.00 572.00 L 533.00 568.00 L 523.00 548.00 L 524.00 545.00 L 536.00 559.00 L 538.00 554.00 L 530.00 530.00 L 531.00 527.00 L 541.00 545.00 L 542.00 543.00 L 534.00 521.00 L 535.00 517.00 L 545.00 531.00 L 547.00 528.00 L 541.00 508.00 L 542.00 504.00 L 550.00 516.00 L 551.00 515.00 L 545.00 501.00 L 546.00 498.00 L 554.00 506.00 L 556.00 503.00 L 552.00 489.00 L 558.00 471.00 L 574.00 449.00 L 594.00 428.00 L 618.00 408.00 L 673.00 384.00 L 759.00 356.00 L 805.00 329.00 L 811.00 303.00 L 814.00 303.00 L 814.00 329.00 L 816.00 325.00 L 820.00 291.00 L 821.00 291.00 L 819.00 325.00 L 822.00 322.00 L 830.00 282.00 L 833.00 282.00 L 831.00 322.00 L 833.00 320.00 L 839.00 276.00 L 842.00 276.00 L 842.00 320.00 L 846.00 318.00 L 854.00 270.00 L 908.00 252.00 L 1008.00 264.00 L 1071.00 294.00 L 1097.00 342.00 L 1140.00 382.00 L 1200.00 414.00 L 1248.00 448.00 L 1284.00 484.00 L 1308.00 523.00 L 1320.00 565.00 L 1295.00 610.00 L 1233.00 658.00 L 1232.00 663.00 L 1292.00 625.00 L 1293.00 627.00 L 1235.00 669.00 L 1235.00 673.00 L 1293.00 639.00 L 1293.00 641.00 L 1235.00 679.00 L 1233.00 683.00 L 1287.00 653.00 L 1287.00 656.00 L 1233.00 692.00 L 1229.00 697.00 L 1275.00 671.00 L 1275.00 673.00 L 1229.00 703.00 L 1206.00 729.00 L 1206.00 751.00 L 1185.00 804.00 L 1143.00 888.00 L 1095.00 957.00 L 1041.00 1011.00 L 1013.00 1078.00 L 1011.00 1158.00 L 1021.00 1237.00 L 1043.00 1315.00 L 1053.00 1370.00 L 1051.00 1402.00 L 963.00 1455.00 L 789.00 1529.00 L 659.00 1593.00 L 573.00 1647.00 L 565.00 1572.00 L 635.00 1368.00 L 632.00 1370.00 L 556.00 1578.00 L 557.00 1573.00 L 635.00 1355.00 L 632.00 1357.00 L 548.00 1579.00 L 540.00 1599.00 L 608.00 1417.00 L 599.00 1428.00 L 513.00 1632.00 L 520.00 1609.00 L 620.00 1359.00 L 619.00 1361.00 L 517.00 1615.00 L 517.00 1613.00 L 619.00 1355.00 L 613.00 1356.00 L 499.00 1616.00 L 499.00 1613.00 L 613.00 1347.00 L 610.00 1349.00 L 490.00 1619.00 L 490.00 1616.00 L 610.00 1340.00 L 607.00 1339.00 L 481.00 1613.00 L 456.00 1666.00 L 532.00 1498.00 L 531.00 1496.00 L 453.00 1660.00 L 414.00 1737.00 L 414.00 1727.00 L 478.00 1589.00 L 606.00 1323.00 L 604.00 1322.00 L 472.00 1586.00 L 441.00 1647.00 L 511.00 1505.00 L 509.00 1508.00 L 435.00 1656.00 L 433.00 1658.00 L 503.00 1514.00 L 497.00 1519.00 L 415.00 1673.00 L 447.00 1607.00 L 593.00 1321.00 L 594.00 1311.00 L 450.00 1577.00 L 410.00 1649.00 L 474.00 1527.00 L 471.00 1528.00 L 401.00 1652.00 L 441.00 1578.00 L 591.00 1306.00 L 586.00 1309.00 L 426.00 1587.00 L 426.00 1585.00 L 586.00 1303.00 L 584.00 1301.00 L 420.00 1579.00 L 420.00 1577.00 L 584.00 1295.00 L 595.00 1270.00 L 453.00 1502.00 L 453.00 1500.00 L 595.00 1264.00 L 597.00 1254.00 L 459.00 1470.00 L 458.00 1469.00 L 594.00 1251.00 L 626.00 1129.00 L 554.00 1103.00 L 513.00 1083.00 L 503.00 1069.00 L 499.00 1042.00 L 501.00 1002.00 L 500.00 980.00 L 496.00 976.00 L 492.00 953.00 Z" fill="black" stroke="black" stroke-width="1"/>
</svg>