<?xml version="1.0" encoding="UTF-8"?>
<svg xmlns="http://www.w3.org/2000/svg" viewBox="393.00 240.00 871.00 1364.00">
  <path d="M 519.00 887.00 L 457.00 785.00 L 420.00 715.00 L 408.00 677.00 L 403.00 632.00 L 405.00 580.00 L 418.00 527.00 L 442.00 473.00 L 481.00 419.00 L 535.00 365.00 L 587.00 322.00 L 637.00 290.00 L 696.00 267.00 L 764.00 253.00 L 839.00 250.00 L 921.00 258.00 L 997.00 284.00 L 1067.00 328.00 L 1113.00 367.00 L 1135.00 401.00 L 1144.00 423.00 L 1140.00 433.00 L 1142.00 435.00 L 1150.00 429.00 L 1153.00 433.00 L 1151.00 447.00 L 1153.00 450.00 L 1159.00 442.00 L 1160.00 444.00 L 1156.00 456.00 L 1158.00 458.00 L 1166.00 450.00 L 1167.00 453.00 L 1161.00 467.00 L 1162.00 469.00 L 1170.00 459.00 L 1171.00 461.00 L 1165.00 475.00 L 1166.00 477.00 L 1174.00 467.00 L 1176.00 472.00 L 1172.00 492.00 L 1174.00 497.00 L 1182.00 487.00 L 1183.00 497.00 L 1177.00 527.00 L 1181.00 534.00 L 1195.00 518.00 L 1196.00 520.00 L 1184.00 540.00 L 1185.00 541.00 L 1199.00 523.00 L 1199.00 530.00 L 1185.00 562.00 L 1187.00 567.00 L 1205.00 545.00 L 1206.00 547.00 L 1190.00 573.00 L 1191.00 575.00 L 1209.00 553.00 L 1209.00 555.00 L 1191.00 581.00 L 1192.00 584.00 L 1212.00 564.00 L 1212.00 567.00 L 1192.00 593.00 L 1193.00 594.00 L 1215.00 570.00 L 1213.00 576.00 L 1187.00 612.00 L 1189.00 614.00 L 1219.00 582.00 L 1218.00 587.00 L 1186.00 629.00 L 1191.00 680.00 L 1233.00 740.00 L 1254.00 776.00 L 1254.00 788.00 L 1243.00 803.00 L 1221.00 821.00 L 1212.00 853.00 L 1216.00 899.00 L 1207.00 952.00 L 1185.00 1012.00 L 1164.00 1047.00 L 1144.00 1057.00 L 1106.00 1060.00 L 1050.00 1056.00 L 1014.00 1063.00 L 998.00 1081.00 L 1053.00 1203.00 L 1179.00 1429.00 L 1240.00 1539.00 L 1236.00 1533.00 L 1240.00 1543.00 L 1252.00 1569.00 L 1249.00 1566.00 L 1231.00 1534.00 L 1232.00 1536.00 L 1252.00 1572.00 L 1250.00 1569.00 L 1226.00 1527.00 L 1227.00 1531.00 L 1253.00 1581.00 L 1249.00 1577.00 L 1215.00 1519.00 L 1215.00 1522.00 L 1249.00 1586.00 L 1247.00 1584.00 L 1209.00 1516.00 L 1209.00 1518.00 L 1247.00 1590.00 L 1245.00 1588.00 L 1203.00 1512.00 L 1203.00 1514.00 L 1245.00 1594.00 L 1196.00 1501.00 L 1056.00 1235.00 L 1055.00 1238.00 L 1193.00 1510.00 L 1200.00 1525.00 L 1076.00 1283.00 L 1075.00 1288.00 L 1197.00 1540.00 L 1195.00 1538.00 L 1069.00 1282.00 L 1066.00 1281.00 L 1186.00 1535.00 L 1188.00 1542.00 L 1072.00 1302.00 L 1069.00 1301.00 L 1179.00 1539.00 L 1171.00 1522.00 L 1045.00 1250.00 L 1043.00 1250.00 L 1165.00 1522.00 L 1173.00 1542.00 L 1067.00 1310.00 L 1060.00 1306.00 L 1152.00 1530.00 L 1143.00 1512.00 L 1033.00 1252.00 L 1031.00 1251.00 L 1137.00 1509.00 L 1137.00 1512.00 L 1031.00 1260.00 L 1026.00 1257.00 L 1122.00 1503.00 L 1122.00 1506.00 L 1026.00 1266.00 L 1021.00 1263.00 L 1107.00 1497.00 L 1114.00 1518.00 L 1042.00 1326.00 L 1038.00 1325.00 L 1102.00 1515.00 L 1101.00 1516.00 L 1035.00 1328.00 L 1032.00 1325.00 L 1092.00 1507.00 L 1091.00 1510.00 L 1029.00 1334.00 L 1024.00 1331.00 L 1076.00 1501.00 L 1075.00 1505.00 L 1021.00 1343.00 L 1015.00 1342.00 L 1057.00 1502.00 L 1057.00 1507.00 L 1015.00 1357.00 L 1013.00 1357.00 L 1051.00 1507.00 L 1027.00 1565.00 L 941.00 1531.00 L 875.00 1508.00 L 829.00 1496.00 L 802.00 1493.00 L 794.00 1499.00 L 767.00 1500.00 L 721.00 1496.00 L 684.00 1487.00 L 656.00 1473.00 L 638.00 1447.00 L 630.00 1409.00 L 634.00 1359.00 L 650.00 1297.00 L 653.00 1253.00 L 643.00 1227.00 L 647.00 1199.00 L 665.00 1169.00 L 673.00 1131.00 L 671.00 1085.00 L 666.00 1050.00 L 658.00 1026.00 L 647.00 1015.00 L 633.00 1017.00 L 632.00 1016.00 L 644.00 1012.00 L 642.00 1011.00 L 626.00 1013.00 L 625.00 1011.00 L 639.00 1005.00 L 636.00 1004.00 L 616.00 1008.00 L 615.00 1006.00 L 633.00 998.00 L 629.00 995.00 L 603.00 997.00 L 602.00 995.00 L 626.00 989.00 L 622.00 985.00 L 590.00 983.00 L 588.00 980.00 L 616.00 976.00 L 615.00 974.00 L 585.00 974.00 L 584.00 972.00 L 612.00 968.00 L 610.00 966.00 L 578.00 966.00 L 560.00 961.00 L 556.00 951.00 L 553.00 944.00 L 551.00 940.00 L 519.00 887.00 Z" fill="black" stroke="black" stroke-width="1"/>
</svg>