<?xml version="1.0" encoding="UTF-8"?>
<svg xmlns="http://www.w3.org/2000/svg" viewBox="260.00 309.00 872.00 1370.00">
  <path d="M 361.00 1001.00 L 359.00 999.00 L 360.00 991.00 L 364.00 977.00 L 365.00 965.00 L 363.00 955.00 L 351.00 944.00 L 329.00 932.00 L 315.00 921.00 L 309.00 911.00 L 324.00 879.00 L 360.00 825.00 L 379.00 788.00 L 381.00 768.00 L 380.00 750.00 L 376.00 734.00 L 376.00 716.00 L 380.00 696.00 L 385.00 679.00 L 391.00 665.00 L 396.00 648.00 L 400.00 628.00 L 411.00 604.00 L 429.00 576.00 L 436.00 558.00 L 432.00 550.00 L 433.00 549.00 L 439.00 555.00 L 440.00 553.00 L 436.00 543.00 L 437.00 541.00 L 443.00 547.00 L 444.00 545.00 L 440.00 535.00 L 441.00 533.00 L 447.00 539.00 L 448.00 537.00 L 444.00 527.00 L 443.00 521.00 L 445.00 519.00 L 449.00 523.00 L 455.00 533.00 L 457.00 532.00 L 455.00 520.00 L 460.00 511.00 L 472.00 505.00 L 483.00 491.00 L 493.00 469.00 L 507.00 451.00 L 525.00 437.00 L 538.00 425.00 L 546.00 415.00 L 559.00 406.00 L 577.00 398.00 L 592.00 388.00 L 604.00 376.00 L 621.00 367.00 L 643.00 361.00 L 662.00 353.00 L 678.00 343.00 L 694.00 338.00 L 710.00 338.00 L 723.00 336.00 L 733.00 332.00 L 749.00 330.00 L 771.00 330.00 L 787.00 328.00 L 797.00 324.00 L 819.00 321.00 L 853.00 319.00 L 889.00 323.00 L 927.00 333.00 L 956.00 344.00 L 976.00 356.00 L 998.00 372.00 L 1022.00 392.00 L 1040.00 411.00 L 1052.00 429.00 L 1060.00 452.00 L 1064.00 480.00 L 1073.00 506.00 L 1087.00 530.00 L 1100.00 558.00 L 1112.00 590.00 L 1119.00 610.00 L 1121.00 618.00 L 1122.00 646.00 L 1122.00 694.00 L 1115.00 736.00 L 1101.00 772.00 L 1076.00 822.00 L 1040.00 886.00 L 1019.00 928.00 L 1013.00 948.00 L 1014.00 967.00 L 1022.00 985.00 L 1016.00 996.00 L 996.00 1000.00 L 992.00 1002.00 L 1004.00 1002.00 L 1002.00 1003.00 L 986.00 1005.00 L 985.00 1007.00 L 999.00 1009.00 L 999.00 1011.00 L 985.00 1013.00 L 981.00 1022.00 L 987.00 1038.00 L 991.00 1056.00 L 993.00 1076.00 L 995.00 1105.00 L 997.00 1143.00 L 998.00 1170.00 L 998.00 1186.00 L 996.00 1198.00 L 992.00 1206.00 L 991.00 1217.00 L 993.00 1231.00 L 996.00 1242.00 L 1000.00 1250.00 L 1002.00 1259.00 L 1002.00 1269.00 L 1004.00 1277.00 L 1008.00 1283.00 L 1011.00 1294.00 L 1013.00 1310.00 L 1020.00 1332.00 L 1032.00 1360.00 L 1038.00 1382.00 L 1038.00 1398.00 L 1033.00 1413.00 L 1023.00 1427.00 L 1014.00 1436.00 L 1006.00 1440.00 L 1001.00 1441.00 L 999.00 1439.00 L 997.00 1439.00 L 995.00 1441.00 L 987.00 1442.00 L 973.00 1442.00 L 932.00 1448.00 L 864.00 1460.00 L 799.00 1474.00 L 737.00 1490.00 L 646.00 1523.00 L 526.00 1573.00 L 441.00 1614.00 L 391.00 1646.00 L 359.00 1664.00 L 345.00 1668.00 L 328.00 1669.00 L 308.00 1667.00 L 293.00 1662.00 L 283.00 1654.00 L 276.00 1646.00 L 272.00 1638.00 L 270.00 1630.00 L 270.00 1622.00 L 272.00 1610.00 L 276.00 1594.00 L 284.00 1576.00 L 296.00 1556.00 L 296.00 1554.00 L 284.00 1570.00 L 285.00 1567.00 L 299.00 1545.00 L 306.00 1531.00 L 306.00 1525.00 L 344.00 1468.00 L 420.00 1360.00 L 420.00 1358.00 L 344.00 1462.00 L 342.00 1463.00 L 414.00 1361.00 L 414.00 1359.00 L 342.00 1457.00 L 343.00 1455.00 L 417.00 1353.00 L 417.00 1351.00 L 343.00 1449.00 L 340.00 1452.00 L 408.00 1360.00 L 409.00 1357.00 L 343.00 1443.00 L 342.00 1441.00 L 406.00 1351.00 L 416.00 1334.00 L 372.00 1390.00 L 367.00 1395.00 L 401.00 1349.00 L 401.00 1347.00 L 367.00 1389.00 L 365.00 1391.00 L 395.00 1353.00 L 395.00 1352.00 L 365.00 1388.00 L 372.00 1378.00 L 416.00 1322.00 L 417.00 1319.00 L 375.00 1369.00 L 360.00 1386.00 L 372.00 1370.00 L 373.00 1368.00 L 363.00 1380.00 L 362.00 1381.00 L 370.00 1371.00 L 371.00 1369.00 L 365.00 1375.00 L 381.00 1355.00 L 419.00 1309.00 L 443.00 1277.00 L 453.00 1259.00 L 456.00 1242.00 L 452.00 1226.00 L 443.00 1210.00 L 429.00 1194.00 L 424.00 1181.00 L 428.00 1171.00 L 421.00 1158.00 L 403.00 1142.00 L 393.00 1127.00 L 391.00 1113.00 L 394.00 1098.00 L 402.00 1082.00 L 403.00 1069.00 L 397.00 1059.00 L 390.00 1051.00 L 382.00 1045.00 L 377.00 1040.00 L 375.00 1036.00 L 376.00 1030.00 L 380.00 1022.00 L 379.00 1016.00 L 373.00 1012.00 L 368.00 1008.00 L 364.00 1004.00 L 361.00 1001.00 Z" fill="black" stroke="black" stroke-width="1"/>
</svg>