<?xml version="1.0" encoding="UTF-8"?>
<svg xmlns="http://www.w3.org/2000/svg" viewBox="352.00 284.00 803.00 1424.00">
  <path d="M 472.00 935.00 L 452.00 865.00 L 428.00 804.00 L 400.00 752.00 L 380.00 709.00 L 368.00 675.00 L 362.00 643.00 L 362.00 613.00 L 367.00 578.00 L 377.00 538.00 L 399.00 490.00 L 433.00 434.00 L 466.00 391.00 L 498.00 361.00 L 548.00 333.00 L 616.00 307.00 L 685.00 294.00 L 755.00 294.00 L 805.00 297.00 L 835.00 303.00 L 867.00 315.00 L 901.00 333.00 L 926.00 353.00 L 942.00 375.00 L 959.00 393.00 L 977.00 407.00 L 985.00 421.00 L 983.00 435.00 L 984.00 438.00 L 988.00 430.00 L 989.00 431.00 L 987.00 441.00 L 987.00 447.00 L 989.00 449.00 L 992.00 446.00 L 996.00 438.00 L 997.00 439.00 L 995.00 449.00 L 996.00 450.00 L 1000.00 442.00 L 1001.00 445.00 L 999.00 459.00 L 1002.00 461.00 L 1010.00 451.00 L 1012.00 453.00 L 1008.00 467.00 L 1009.00 468.00 L 1015.00 456.00 L 1016.00 458.00 L 1012.00 474.00 L 1013.00 476.00 L 1019.00 464.00 L 1020.00 463.00 L 1016.00 473.00 L 1016.00 475.00 L 1020.00 469.00 L 1021.00 473.00 L 1019.00 487.00 L 1021.00 490.00 L 1027.00 482.00 L 1028.00 484.00 L 1024.00 496.00 L 1025.00 498.00 L 1031.00 490.00 L 1032.00 492.00 L 1028.00 504.00 L 1029.00 506.00 L 1035.00 498.00 L 1036.00 501.00 L 1032.00 515.00 L 1033.00 518.00 L 1039.00 510.00 L 1040.00 512.00 L 1036.00 524.00 L 1038.00 539.00 L 1046.00 557.00 L 1048.00 586.00 L 1044.00 626.00 L 1068.00 675.00 L 1120.00 733.00 L 1145.00 768.00 L 1143.00 780.00 L 1129.00 798.00 L 1103.00 822.00 L 1093.00 844.00 L 1099.00 864.00 L 1097.00 879.00 L 1087.00 889.00 L 1082.00 897.00 L 1082.00 903.00 L 1076.00 915.00 L 1064.00 933.00 L 1063.00 950.00 L 1073.00 966.00 L 1078.00 981.00 L 1078.00 995.00 L 1075.00 1008.00 L 1069.00 1020.00 L 1057.00 1030.00 L 1039.00 1038.00 L 1031.00 1044.00 L 1033.00 1048.00 L 1031.00 1049.00 L 1025.00 1047.00 L 1027.00 1048.00 L 1037.00 1052.00 L 1045.00 1057.00 L 1051.00 1063.00 L 1054.00 1069.00 L 1054.00 1075.00 L 1041.00 1102.00 L 1015.00 1150.00 L 1006.00 1181.00 L 1014.00 1195.00 L 1013.00 1197.00 L 1003.00 1187.00 L 1015.00 1202.00 L 1049.00 1242.00 L 1054.00 1249.00 L 1030.00 1223.00 L 1032.00 1226.00 L 1060.00 1258.00 L 1055.00 1253.00 L 1017.00 1211.00 L 1017.00 1213.00 L 1055.00 1259.00 L 1060.00 1266.00 L 1032.00 1234.00 L 1030.00 1235.00 L 1054.00 1269.00 L 1053.00 1271.00 L 1027.00 1241.00 L 1022.00 1236.00 L 1038.00 1256.00 L 1037.00 1256.00 L 1019.00 1236.00 L 1017.00 1235.00 L 1031.00 1253.00 L 1031.00 1260.00 L 1017.00 1256.00 L 1005.00 1250.00 L 995.00 1242.00 L 989.00 1240.00 L 987.00 1244.00 L 993.00 1264.00 L 1007.00 1300.00 L 1006.00 1305.00 L 990.00 1279.00 L 991.00 1282.00 L 1009.00 1314.00 L 1009.00 1317.00 L 991.00 1291.00 L 991.00 1294.00 L 1009.00 1326.00 L 1008.00 1325.00 L 988.00 1291.00 L 995.00 1313.00 L 1029.00 1391.00 L 1038.00 1415.00 L 1022.00 1385.00 L 1030.00 1401.00 L 1062.00 1463.00 L 1064.00 1468.00 L 1036.00 1416.00 L 1039.00 1423.00 L 1073.00 1489.00 L 1071.00 1486.00 L 1033.00 1414.00 L 1036.00 1424.00 L 1080.00 1516.00 L 1102.00 1586.00 L 1102.00 1634.00 L 1094.00 1668.00 L 1078.00 1688.00 L 1064.00 1698.00 L 1052.00 1698.00 L 1010.00 1669.00 L 938.00 1611.00 L 876.00 1566.00 L 824.00 1534.00 L 767.00 1504.00 L 705.00 1476.00 L 631.00 1448.00 L 545.00 1420.00 L 493.00 1399.00 L 475.00 1385.00 L 467.00 1374.00 L 469.00 1366.00 L 468.00 1364.00 L 464.00 1368.00 L 460.00 1365.00 L 456.00 1355.00 L 457.00 1322.00 L 463.00 1266.00 L 468.00 1234.00 L 472.00 1226.00 L 472.00 1205.00 L 468.00 1171.00 L 471.00 1122.00 L 481.00 1058.00 L 491.00 1017.00 L 501.00 999.00 L 504.00 989.00 L 500.00 987.00 L 500.00 985.00 L 504.00 983.00 L 501.00 981.00 L 491.00 979.00 L 485.00 976.00 L 483.00 972.00 L 472.00 935.00 Z" fill="black" stroke="black" stroke-width="1"/>
</svg>