<?xml version="1.0" encoding="UTF-8"?>
<svg xmlns="http://www.w3.org/2000/svg" viewBox="409.00 358.00 736.00 1197.00">
  <path d="M 491.00 909.00 L 453.00 835.00 L 429.00 772.00 L 419.00 720.00 L 419.00 666.00 L 429.00 610.00 L 451.00 552.00 L 485.00 492.00 L 522.00 446.00 L 562.00 414.00 L 608.00 390.00 L 660.00 374.00 L 733.00 368.00 L 827.00 372.00 L 903.00 386.00 L 961.00 410.00 L 1012.00 446.00 L 1056.00 494.00 L 1075.00 525.00 L 1069.00 539.00 L 1070.00 540.00 L 1078.00 528.00 L 1078.00 530.00 L 1070.00 546.00 L 1071.00 547.00 L 1081.00 533.00 L 1082.00 537.00 L 1074.00 559.00 L 1076.00 563.00 L 1088.00 549.00 L 1089.00 551.00 L 1079.00 569.00 L 1080.00 571.00 L 1092.00 557.00 L 1092.00 559.00 L 1080.00 577.00 L 1081.00 580.00 L 1095.00 568.00 L 1096.00 571.00 L 1084.00 589.00 L 1085.00 590.00 L 1099.00 574.00 L 1100.00 579.00 L 1088.00 605.00 L 1089.00 612.00 L 1103.00 600.00 L 1103.00 603.00 L 1089.00 621.00 L 1090.00 623.00 L 1106.00 609.00 L 1107.00 611.00 L 1093.00 629.00 L 1094.00 631.00 L 1110.00 617.00 L 1110.00 621.00 L 1094.00 643.00 L 1095.00 645.00 L 1113.00 627.00 L 1113.00 630.00 L 1095.00 654.00 L 1096.00 657.00 L 1116.00 639.00 L 1116.00 642.00 L 1096.00 666.00 L 1097.00 668.00 L 1119.00 648.00 L 1119.00 650.00 L 1097.00 674.00 L 1084.00 705.00 L 1080.00 743.00 L 1095.00 789.00 L 1129.00 843.00 L 1135.00 883.00 L 1113.00 909.00 L 1099.00 938.00 L 1093.00 970.00 L 1093.00 992.00 L 1099.00 1004.00 L 1090.00 1035.00 L 1066.00 1085.00 L 1017.00 1113.00 L 943.00 1119.00 L 955.00 1216.00 L 1053.00 1404.00 L 1103.00 1502.00 L 1105.00 1510.00 L 1101.00 1505.00 L 1091.00 1487.00 L 1092.00 1490.00 L 1104.00 1514.00 L 1102.00 1511.00 L 1086.00 1481.00 L 1086.00 1483.00 L 1102.00 1517.00 L 1100.00 1515.00 L 1080.00 1477.00 L 1080.00 1479.00 L 1100.00 1521.00 L 1098.00 1519.00 L 1074.00 1473.00 L 1074.00 1476.00 L 1098.00 1528.00 L 1094.00 1525.00 L 1062.00 1467.00 L 1061.00 1470.00 L 1091.00 1534.00 L 1088.00 1531.00 L 1052.00 1461.00 L 1051.00 1464.00 L 1085.00 1540.00 L 1050.00 1467.00 L 946.00 1245.00 L 943.00 1248.00 L 1041.00 1476.00 L 1068.00 1545.00 L 1024.00 1455.00 L 1020.00 1455.00 L 1056.00 1545.00 L 1055.00 1544.00 L 1017.00 1452.00 L 1016.00 1451.00 L 1052.00 1541.00 L 1025.00 1475.00 L 935.00 1253.00 L 933.00 1252.00 L 1019.00 1472.00 L 1042.00 1535.00 L 1002.00 1441.00 L 997.00 1437.00 L 1027.00 1523.00 L 1025.00 1521.00 L 991.00 1431.00 L 989.00 1430.00 L 1019.00 1518.00 L 997.00 1460.00 L 923.00 1256.00 L 922.00 1255.00 L 994.00 1457.00 L 994.00 1459.00 L 922.00 1261.00 L 919.00 1260.00 L 985.00 1456.00 L 984.00 1458.00 L 916.00 1266.00 L 910.00 1262.00 L 966.00 1446.00 L 966.00 1448.00 L 910.00 1268.00 L 908.00 1266.00 L 960.00 1442.00 L 960.00 1445.00 L 908.00 1275.00 L 906.00 1274.00 L 954.00 1442.00 L 954.00 1445.00 L 906.00 1283.00 L 902.00 1281.00 L 942.00 1439.00 L 941.00 1442.00 L 899.00 1290.00 L 896.00 1288.00 L 932.00 1436.00 L 933.00 1441.00 L 899.00 1303.00 L 898.00 1302.00 L 930.00 1438.00 L 930.00 1441.00 L 898.00 1311.00 L 896.00 1310.00 L 924.00 1438.00 L 924.00 1441.00 L 896.00 1319.00 L 894.00 1318.00 L 918.00 1438.00 L 918.00 1443.00 L 894.00 1333.00 L 893.00 1332.00 L 915.00 1440.00 L 889.00 1477.00 L 815.00 1443.00 L 725.00 1415.00 L 619.00 1393.00 L 551.00 1373.00 L 521.00 1355.00 L 504.00 1336.00 L 500.00 1316.00 L 512.00 1281.00 L 540.00 1231.00 L 557.00 1189.00 L 563.00 1155.00 L 566.00 1121.00 L 566.00 1087.00 L 558.00 1070.00 L 542.00 1070.00 L 541.00 1066.00 L 555.00 1058.00 L 553.00 1057.00 L 535.00 1063.00 L 535.00 1060.00 L 553.00 1048.00 L 553.00 1044.00 L 535.00 1048.00 L 534.00 1046.00 L 550.00 1038.00 L 549.00 1036.00 L 531.00 1040.00 L 520.00 1020.00 L 516.00 976.00 L 513.00 952.00 L 511.00 948.00 L 491.00 909.00 Z" fill="black" stroke="black" stroke-width="1"/>
</svg>