<?xml version="1.0" encoding="UTF-8"?>
<svg xmlns="http://www.w3.org/2000/svg" viewBox="434.00 292.00 927.00 1324.00">
  <path d="M 481.00 878.00 L 479.00 862.00 L 471.00 850.00 L 457.00 842.00 L 448.00 832.00 L 444.00 820.00 L 460.00 786.00 L 496.00 730.00 L 514.00 692.00 L 514.00 672.00 L 507.00 654.00 L 493.00 638.00 L 493.00 635.00 L 507.00 645.00 L 507.00 643.00 L 493.00 629.00 L 493.00 627.00 L 507.00 637.00 L 507.00 635.00 L 493.00 621.00 L 493.00 618.00 L 507.00 626.00 L 507.00 624.00 L 493.00 612.00 L 493.00 609.00 L 507.00 615.00 L 508.00 612.00 L 496.00 600.00 L 493.00 595.00 L 499.00 597.00 L 499.00 595.00 L 493.00 589.00 L 496.00 591.00 L 508.00 601.00 L 508.00 599.00 L 496.00 585.00 L 496.00 583.00 L 508.00 593.00 L 508.00 591.00 L 496.00 577.00 L 496.00 574.00 L 508.00 582.00 L 509.00 580.00 L 499.00 568.00 L 499.00 566.00 L 509.00 574.00 L 510.00 569.00 L 502.00 551.00 L 503.00 547.00 L 513.00 557.00 L 513.00 555.00 L 503.00 541.00 L 503.00 539.00 L 513.00 549.00 L 514.00 546.00 L 506.00 530.00 L 509.00 507.00 L 523.00 477.00 L 547.00 447.00 L 581.00 417.00 L 610.00 397.00 L 634.00 387.00 L 682.00 373.00 L 754.00 355.00 L 824.00 350.00 L 892.00 358.00 L 929.00 360.00 L 935.00 356.00 L 938.00 357.00 L 938.00 363.00 L 942.00 356.00 L 950.00 336.00 L 964.00 320.00 L 984.00 308.00 L 1000.00 302.00 L 1012.00 302.00 L 1031.00 310.00 L 1057.00 326.00 L 1077.00 331.00 L 1091.00 325.00 L 1107.00 337.00 L 1125.00 367.00 L 1152.00 391.00 L 1188.00 409.00 L 1223.00 436.00 L 1257.00 472.00 L 1283.00 502.00 L 1301.00 526.00 L 1318.00 556.00 L 1334.00 592.00 L 1345.00 632.00 L 1351.00 676.00 L 1349.00 713.00 L 1339.00 743.00 L 1288.00 770.00 L 1196.00 794.00 L 1195.00 796.00 L 1285.00 776.00 L 1284.00 778.00 L 1192.00 802.00 L 1189.00 805.00 L 1275.00 787.00 L 1274.00 789.00 L 1186.00 811.00 L 1179.00 815.00 L 1253.00 801.00 L 1251.00 803.00 L 1173.00 821.00 L 1100.00 861.00 L 1032.00 923.00 L 993.00 977.00 L 983.00 1023.00 L 993.00 1112.00 L 1023.00 1244.00 L 1033.00 1314.00 L 1023.00 1322.00 L 991.00 1332.00 L 937.00 1344.00 L 880.00 1363.00 L 820.00 1389.00 L 756.00 1423.00 L 688.00 1465.00 L 615.00 1516.00 L 537.00 1576.00 L 495.00 1606.00 L 489.00 1606.00 L 525.00 1517.00 L 603.00 1339.00 L 601.00 1338.00 L 519.00 1514.00 L 521.00 1508.00 L 607.00 1320.00 L 606.00 1318.00 L 518.00 1502.00 L 519.00 1499.00 L 609.00 1309.00 L 609.00 1306.00 L 519.00 1490.00 L 474.00 1580.00 L 474.00 1576.00 L 519.00 1481.00 L 609.00 1295.00 L 609.00 1292.00 L 519.00 1472.00 L 520.00 1469.00 L 612.00 1283.00 L 612.00 1281.00 L 520.00 1463.00 L 506.00 1490.00 L 570.00 1362.00 L 570.00 1360.00 L 506.00 1484.00 L 504.00 1487.00 L 564.00 1369.00 L 564.00 1367.00 L 504.00 1481.00 L 520.00 1449.00 L 612.00 1271.00 L 613.00 1268.00 L 523.00 1440.00 L 524.00 1437.00 L 616.00 1259.00 L 616.00 1256.00 L 524.00 1428.00 L 502.00 1466.00 L 550.00 1370.00 L 552.00 1362.00 L 508.00 1442.00 L 530.00 1401.00 L 618.00 1239.00 L 619.00 1236.00 L 533.00 1392.00 L 509.00 1435.00 L 547.00 1365.00 L 548.00 1361.00 L 512.00 1423.00 L 536.00 1378.00 L 620.00 1226.00 L 662.00 1137.00 L 662.00 1111.00 L 661.00 1094.00 L 659.00 1086.00 L 638.00 1081.00 L 598.00 1079.00 L 562.00 1069.00 L 530.00 1051.00 L 514.00 1031.00 L 514.00 1009.00 L 508.00 985.00 L 496.00 959.00 L 488.00 933.00 L 484.00 907.00 L 482.00 892.00 L 482.00 888.00 L 481.00 878.00 Z" fill="black" stroke="black" stroke-width="1"/>
</svg>