<?xml version="1.0" encoding="UTF-8"?>
<svg xmlns="http://www.w3.org/2000/svg" viewBox="270.00 206.00 931.00 1335.00">
  <path d="M 472.00 902.00 L 468.00 890.00 L 431.00 857.00 L 361.00 803.00 L 313.00 747.00 L 287.00 689.00 L 280.00 613.00 L 292.00 519.00 L 308.00 453.00 L 328.00 415.00 L 360.00 373.00 L 404.00 327.00 L 467.00 282.00 L 549.00 238.00 L 625.00 216.00 L 695.00 216.00 L 752.00 223.00 L 796.00 237.00 L 844.00 271.00 L 896.00 325.00 L 933.00 346.00 L 955.00 334.00 L 968.00 343.00 L 972.00 373.00 L 978.00 377.00 L 986.00 355.00 L 990.00 357.00 L 990.00 383.00 L 1020.00 392.00 L 1080.00 384.00 L 1097.00 407.00 L 1071.00 461.00 L 1073.00 466.00 L 1103.00 422.00 L 1100.00 430.00 L 1064.00 490.00 L 1065.00 493.00 L 1103.00 439.00 L 1103.00 441.00 L 1065.00 499.00 L 1064.00 502.00 L 1100.00 450.00 L 1113.00 432.00 L 1103.00 448.00 L 1102.00 451.00 L 1110.00 441.00 L 1098.00 462.00 L 1066.00 514.00 L 1049.00 543.00 L 1047.00 549.00 L 1051.00 545.00 L 1061.00 531.00 L 1059.00 541.00 L 1045.00 575.00 L 1045.00 583.00 L 1059.00 565.00 L 1057.00 571.00 L 1039.00 601.00 L 1040.00 604.00 L 1060.00 580.00 L 1059.00 583.00 L 1037.00 613.00 L 1037.00 615.00 L 1059.00 589.00 L 1059.00 594.00 L 1037.00 630.00 L 1035.00 640.00 L 1053.00 624.00 L 1053.00 627.00 L 1035.00 649.00 L 1036.00 652.00 L 1056.00 636.00 L 1057.00 639.00 L 1039.00 661.00 L 1041.00 664.00 L 1063.00 648.00 L 1065.00 650.00 L 1047.00 670.00 L 1047.00 674.00 L 1065.00 662.00 L 1066.00 664.00 L 1050.00 680.00 L 1057.00 705.00 L 1087.00 739.00 L 1102.00 762.00 L 1102.00 774.00 L 1091.00 788.00 L 1069.00 804.00 L 1066.00 809.00 L 1082.00 803.00 L 1081.00 806.00 L 1063.00 818.00 L 1047.00 848.00 L 1033.00 896.00 L 1027.00 933.00 L 1029.00 959.00 L 1008.00 985.00 L 964.00 1011.00 L 945.00 1030.00 L 951.00 1042.00 L 949.00 1054.00 L 939.00 1066.00 L 938.00 1079.00 L 946.00 1093.00 L 945.00 1095.00 L 935.00 1085.00 L 939.00 1094.00 L 957.00 1122.00 L 955.00 1125.00 L 933.00 1103.00 L 930.00 1105.00 L 946.00 1131.00 L 946.00 1134.00 L 930.00 1114.00 L 989.00 1204.00 L 1123.00 1404.00 L 1182.00 1494.00 L 1166.00 1474.00 L 1169.00 1481.00 L 1191.00 1515.00 L 1188.00 1512.00 L 1160.00 1472.00 L 1161.00 1478.00 L 1191.00 1530.00 L 1141.00 1458.00 L 1011.00 1262.00 L 1011.00 1265.00 L 1141.00 1467.00 L 1142.00 1470.00 L 1014.00 1274.00 L 1014.00 1276.00 L 1142.00 1476.00 L 1146.00 1483.00 L 1026.00 1297.00 L 1025.00 1300.00 L 1143.00 1492.00 L 1147.00 1502.00 L 1037.00 1330.00 L 1035.00 1335.00 L 1141.00 1517.00 L 1139.00 1517.00 L 1029.00 1335.00 L 1028.00 1337.00 L 1136.00 1523.00 L 1133.00 1522.00 L 1019.00 1334.00 L 1015.00 1336.00 L 1121.00 1528.00 L 1122.00 1531.00 L 1018.00 1345.00 L 1013.00 1340.00 L 1107.00 1516.00 L 1094.00 1494.00 L 974.00 1274.00 L 971.00 1273.00 L 1085.00 1491.00 L 1084.00 1491.00 L 968.00 1273.00 L 962.00 1270.00 L 1066.00 1482.00 L 1065.00 1483.00 L 959.00 1273.00 L 955.00 1271.00 L 1053.00 1477.00 L 1053.00 1479.00 L 955.00 1277.00 L 952.00 1275.00 L 1044.00 1473.00 L 1044.00 1475.00 L 952.00 1281.00 L 949.00 1280.00 L 1035.00 1472.00 L 1053.00 1517.00 L 1003.00 1415.00 L 998.00 1413.00 L 1038.00 1511.00 L 1035.00 1509.00 L 989.00 1407.00 L 986.00 1406.00 L 1026.00 1506.00 L 1009.00 1466.00 L 935.00 1286.00 L 932.00 1285.00 L 1000.00 1463.00 L 999.00 1467.00 L 929.00 1297.00 L 923.00 1294.00 L 981.00 1458.00 L 989.00 1487.00 L 947.00 1381.00 L 943.00 1380.00 L 977.00 1484.00 L 967.00 1457.00 L 913.00 1299.00 L 910.00 1297.00 L 958.00 1451.00 L 957.00 1453.00 L 907.00 1303.00 L 904.00 1302.00 L 948.00 1450.00 L 948.00 1453.00 L 904.00 1311.00 L 900.00 1310.00 L 936.00 1450.00 L 936.00 1456.00 L 900.00 1328.00 L 897.00 1327.00 L 927.00 1453.00 L 883.00 1499.00 L 765.00 1465.00 L 635.00 1437.00 L 493.00 1415.00 L 416.00 1391.00 L 404.00 1365.00 L 417.00 1306.00 L 455.00 1214.00 L 472.00 1154.00 L 468.00 1126.00 L 472.00 1076.00 L 484.00 1004.00 L 479.00 964.00 L 457.00 956.00 L 453.00 944.00 L 467.00 928.00 L 474.00 917.00 L 474.00 911.00 L 472.00 902.00 Z" fill="black" stroke="black" stroke-width="1"/>
</svg>