<?xml version="1.0" encoding="UTF-8"?>
<svg xmlns="http://www.w3.org/2000/svg" viewBox="321.00 272.00 915.00 1432.00">
  <path d="M 445.00 962.00 L 451.00 954.00 L 452.00 948.00 L 448.00 944.00 L 450.00 941.00 L 458.00 939.00 L 455.00 936.00 L 441.00 932.00 L 430.00 913.00 L 422.00 879.00 L 400.00 826.00 L 364.00 754.00 L 342.00 700.00 L 334.00 664.00 L 331.00 630.00 L 333.00 598.00 L 339.00 568.00 L 349.00 540.00 L 362.00 511.00 L 378.00 481.00 L 392.00 460.00 L 404.00 448.00 L 417.00 430.00 L 431.00 406.00 L 463.00 373.00 L 513.00 331.00 L 569.00 303.00 L 631.00 289.00 L 677.00 282.00 L 707.00 282.00 L 727.00 286.00 L 737.00 294.00 L 745.00 294.00 L 751.00 286.00 L 761.00 282.00 L 775.00 282.00 L 788.00 286.00 L 800.00 294.00 L 806.00 296.00 L 806.00 292.00 L 814.00 291.00 L 830.00 293.00 L 852.00 298.00 L 880.00 306.00 L 915.00 322.00 L 957.00 346.00 L 991.00 371.00 L 1017.00 397.00 L 1028.00 420.00 L 1024.00 440.00 L 1026.00 442.00 L 1034.00 426.00 L 1036.00 428.00 L 1032.00 448.00 L 1035.00 452.00 L 1045.00 440.00 L 1047.00 442.00 L 1041.00 458.00 L 1042.00 460.00 L 1050.00 448.00 L 1051.00 450.00 L 1045.00 466.00 L 1046.00 468.00 L 1054.00 456.00 L 1055.00 457.00 L 1049.00 471.00 L 1050.00 473.00 L 1058.00 463.00 L 1059.00 465.00 L 1053.00 479.00 L 1054.00 481.00 L 1062.00 471.00 L 1063.00 473.00 L 1057.00 487.00 L 1057.00 492.00 L 1063.00 488.00 L 1064.00 490.00 L 1060.00 498.00 L 1062.00 495.00 L 1070.00 481.00 L 1075.00 476.00 L 1077.00 480.00 L 1074.00 490.00 L 1066.00 506.00 L 1065.00 509.00 L 1071.00 499.00 L 1072.00 500.00 L 1068.00 512.00 L 1070.00 511.00 L 1078.00 497.00 L 1079.00 498.00 L 1073.00 514.00 L 1074.00 517.00 L 1082.00 507.00 L 1083.00 509.00 L 1077.00 523.00 L 1077.00 526.00 L 1083.00 518.00 L 1084.00 520.00 L 1080.00 532.00 L 1080.00 536.00 L 1084.00 532.00 L 1085.00 534.00 L 1083.00 542.00 L 1088.00 553.00 L 1100.00 567.00 L 1108.00 580.00 L 1112.00 592.00 L 1113.00 613.00 L 1111.00 643.00 L 1135.00 687.00 L 1185.00 745.00 L 1214.00 784.00 L 1222.00 804.00 L 1226.00 817.00 L 1226.00 823.00 L 1222.00 830.00 L 1214.00 838.00 L 1198.00 847.00 L 1174.00 857.00 L 1166.00 880.00 L 1174.00 916.00 L 1171.00 939.00 L 1157.00 949.00 L 1152.00 962.00 L 1156.00 978.00 L 1152.00 995.00 L 1140.00 1013.00 L 1136.00 1042.00 L 1140.00 1082.00 L 1132.00 1113.00 L 1112.00 1135.00 L 1092.00 1149.00 L 1072.00 1155.00 L 1049.00 1158.00 L 1023.00 1158.00 L 1013.00 1162.00 L 1019.00 1170.00 L 1014.00 1194.00 L 998.00 1234.00 L 994.00 1264.00 L 1002.00 1284.00 L 1001.00 1288.00 L 991.00 1276.00 L 1004.00 1305.00 L 1040.00 1375.00 L 1045.00 1387.00 L 1019.00 1341.00 L 1017.00 1338.00 L 1039.00 1378.00 L 1045.00 1390.00 L 1035.00 1374.00 L 1038.00 1382.00 L 1054.00 1414.00 L 1051.00 1411.00 L 1029.00 1373.00 L 1029.00 1375.00 L 1051.00 1417.00 L 1049.00 1415.00 L 1023.00 1369.00 L 1045.00 1412.00 L 1115.00 1544.00 L 1112.00 1539.00 L 1036.00 1397.00 L 1037.00 1400.00 L 1115.00 1548.00 L 1131.00 1579.00 L 1085.00 1493.00 L 1085.00 1495.00 L 1131.00 1585.00 L 1142.00 1608.00 L 1118.00 1564.00 L 1120.00 1569.00 L 1148.00 1623.00 L 1146.00 1620.00 L 1114.00 1560.00 L 1115.00 1563.00 L 1149.00 1629.00 L 1140.00 1612.00 L 1088.00 1512.00 L 1088.00 1515.00 L 1140.00 1621.00 L 1124.00 1592.00 L 1040.00 1428.00 L 1041.00 1433.00 L 1127.00 1607.00 L 1125.00 1604.00 L 1035.00 1424.00 L 1034.00 1427.00 L 1122.00 1613.00 L 1139.00 1652.00 L 1085.00 1544.00 L 1082.00 1542.00 L 1130.00 1646.00 L 1113.00 1612.00 L 1031.00 1440.00 L 1030.00 1439.00 L 1110.00 1609.00 L 1147.00 1694.00 L 1141.00 1694.00 L 1098.00 1606.00 L 1018.00 1430.00 L 1016.00 1429.00 L 1092.00 1603.00 L 1091.00 1604.00 L 1013.00 1432.00 L 1011.00 1431.00 L 1085.00 1601.00 L 1085.00 1604.00 L 1011.00 1440.00 L 1008.00 1439.00 L 1076.00 1601.00 L 1072.00 1662.00 L 996.00 1622.00 L 916.00 1585.00 L 832.00 1551.00 L 750.00 1522.00 L 670.00 1498.00 L 592.00 1480.00 L 516.00 1468.00 L 463.00 1455.00 L 433.00 1441.00 L 412.00 1425.00 L 400.00 1407.00 L 393.00 1388.00 L 391.00 1368.00 L 394.00 1333.00 L 402.00 1283.00 L 409.00 1251.00 L 415.00 1237.00 L 415.00 1212.00 L 409.00 1176.00 L 413.00 1113.00 L 427.00 1023.00 L 436.00 975.00 L 440.00 969.00 L 445.00 962.00 Z" fill="black" stroke="black" stroke-width="1"/>
</svg>