<?xml version="1.0" encoding="UTF-8"?>
<svg xmlns="http://www.w3.org/2000/svg" viewBox="301.00 342.00 805.00 1394.00">
  <path d="M 417.00 1071.00 L 407.00 1065.00 L 407.00 1062.00 L 417.00 1062.00 L 414.00 1059.00 L 398.00 1053.00 L 388.00 1046.00 L 384.00 1038.00 L 382.00 1001.00 L 382.00 935.00 L 370.00 879.00 L 346.00 833.00 L 331.00 795.00 L 325.00 765.00 L 325.00 716.00 L 331.00 648.00 L 343.00 589.00 L 361.00 539.00 L 382.00 497.00 L 406.00 463.00 L 431.00 435.00 L 457.00 413.00 L 495.00 391.00 L 545.00 369.00 L 611.00 356.00 L 693.00 352.00 L 752.00 354.00 L 788.00 362.00 L 828.00 381.00 L 872.00 411.00 L 910.00 443.00 L 942.00 477.00 L 965.00 513.00 L 979.00 551.00 L 988.00 566.00 L 992.00 558.00 L 992.00 560.00 L 988.00 572.00 L 989.00 573.00 L 995.00 563.00 L 996.00 566.00 L 992.00 582.00 L 995.00 585.00 L 1005.00 575.00 L 1007.00 578.00 L 1001.00 594.00 L 1002.00 596.00 L 1010.00 584.00 L 1012.00 588.00 L 1008.00 608.00 L 1010.00 611.00 L 1018.00 597.00 L 1021.00 595.00 L 1019.00 605.00 L 1020.00 607.00 L 1024.00 601.00 L 1022.00 606.00 L 1014.00 622.00 L 1015.00 624.00 L 1025.00 612.00 L 1026.00 614.00 L 1018.00 630.00 L 1019.00 633.00 L 1029.00 623.00 L 1030.00 627.00 L 1022.00 645.00 L 1023.00 648.00 L 1033.00 636.00 L 1034.00 638.00 L 1026.00 654.00 L 1027.00 656.00 L 1037.00 644.00 L 1038.00 648.00 L 1030.00 668.00 L 1031.00 671.00 L 1041.00 657.00 L 1042.00 659.00 L 1034.00 677.00 L 1036.00 679.00 L 1048.00 665.00 L 1048.00 668.00 L 1036.00 688.00 L 1037.00 690.00 L 1051.00 674.00 L 1051.00 677.00 L 1037.00 699.00 L 1038.00 701.00 L 1054.00 683.00 L 1054.00 686.00 L 1038.00 710.00 L 1029.00 737.00 L 1027.00 767.00 L 1046.00 820.00 L 1086.00 896.00 L 1091.00 941.00 L 1061.00 955.00 L 1061.00 957.00 L 1091.00 947.00 L 1090.00 949.00 L 1058.00 963.00 L 1056.00 966.00 L 1084.00 958.00 L 1083.00 961.00 L 1053.00 975.00 L 1037.00 1003.00 L 1035.00 1045.00 L 1029.00 1075.00 L 1019.00 1093.00 L 1015.00 1118.00 L 1017.00 1150.00 L 1012.00 1173.00 L 1000.00 1187.00 L 984.00 1199.00 L 964.00 1209.00 L 958.00 1221.00 L 966.00 1235.00 L 964.00 1250.00 L 952.00 1266.00 L 954.00 1287.00 L 970.00 1313.00 L 968.00 1316.00 L 948.00 1296.00 L 948.00 1298.00 L 968.00 1322.00 L 967.00 1324.00 L 945.00 1304.00 L 962.00 1330.00 L 1018.00 1402.00 L 1017.00 1403.00 L 959.00 1333.00 L 952.00 1326.00 L 996.00 1382.00 L 1006.00 1397.00 L 982.00 1371.00 L 986.00 1379.00 L 1018.00 1421.00 L 1014.00 1418.00 L 974.00 1370.00 L 970.00 1369.00 L 1002.00 1415.00 L 1012.00 1435.00 L 1000.00 1429.00 L 1023.00 1475.00 L 1081.00 1573.00 L 1078.00 1573.00 L 1014.00 1475.00 L 1015.00 1478.00 L 1081.00 1582.00 L 1079.00 1580.00 L 1009.00 1472.00 L 1010.00 1478.00 L 1082.00 1598.00 L 1078.00 1595.00 L 998.00 1469.00 L 998.00 1472.00 L 1078.00 1604.00 L 1072.00 1596.00 L 980.00 1448.00 L 980.00 1451.00 L 1072.00 1605.00 L 1070.00 1603.00 L 974.00 1445.00 L 973.00 1449.00 L 1067.00 1615.00 L 1067.00 1617.00 L 973.00 1455.00 L 971.00 1457.00 L 1061.00 1623.00 L 1061.00 1626.00 L 971.00 1466.00 L 970.00 1467.00 L 1058.00 1629.00 L 1096.00 1714.00 L 1084.00 1722.00 L 1072.00 1726.00 L 1060.00 1726.00 L 1051.00 1720.00 L 1045.00 1708.00 L 1042.00 1706.00 L 1042.00 1714.00 L 1017.00 1707.00 L 967.00 1685.00 L 943.00 1683.00 L 945.00 1701.00 L 942.00 1699.00 L 934.00 1677.00 L 933.00 1679.00 L 939.00 1705.00 L 940.00 1718.00 L 936.00 1718.00 L 928.00 1703.00 L 916.00 1673.00 L 911.00 1672.00 L 913.00 1700.00 L 910.00 1699.00 L 902.00 1669.00 L 900.00 1668.00 L 904.00 1696.00 L 902.00 1695.00 L 894.00 1665.00 L 845.00 1635.00 L 755.00 1605.00 L 675.00 1582.00 L 605.00 1566.00 L 526.00 1555.00 L 438.00 1549.00 L 380.00 1540.00 L 352.00 1528.00 L 332.00 1512.00 L 320.00 1492.00 L 313.00 1470.00 L 311.00 1446.00 L 322.00 1396.00 L 346.00 1320.00 L 356.00 1276.00 L 352.00 1264.00 L 357.00 1225.00 L 371.00 1159.00 L 387.00 1115.00 L 405.00 1093.00 L 416.00 1080.00 L 420.00 1076.00 L 417.00 1071.00 Z" fill="black" stroke="black" stroke-width="1"/>
</svg>