<?xml version="1.0" encoding="UTF-8"?>
<svg xmlns="http://www.w3.org/2000/svg" viewBox="346.00 200.00 946.00 1614.00">
  <path d="M 512.00 1038.00 L 516.00 1022.00 L 509.00 1006.00 L 491.00 990.00 L 480.00 977.00 L 476.00 967.00 L 479.00 948.00 L 489.00 920.00 L 493.00 901.00 L 491.00 891.00 L 486.00 881.00 L 478.00 871.00 L 475.00 859.00 L 477.00 845.00 L 475.00 835.00 L 469.00 829.00 L 468.00 816.00 L 472.00 796.00 L 461.00 773.00 L 435.00 747.00 L 435.00 744.00 L 461.00 764.00 L 459.00 762.00 L 429.00 738.00 L 418.00 729.00 L 426.00 735.00 L 424.00 732.00 L 412.00 720.00 L 422.00 726.00 L 454.00 750.00 L 454.00 748.00 L 422.00 720.00 L 422.00 717.00 L 454.00 739.00 L 454.00 735.00 L 422.00 705.00 L 415.00 677.00 L 433.00 651.00 L 462.00 619.00 L 502.00 581.00 L 527.00 541.00 L 537.00 499.00 L 550.00 465.00 L 566.00 439.00 L 573.00 419.00 L 571.00 405.00 L 572.00 403.00 L 576.00 413.00 L 578.00 410.00 L 578.00 394.00 L 580.00 389.00 L 584.00 395.00 L 585.00 392.00 L 583.00 380.00 L 585.00 377.00 L 591.00 383.00 L 593.00 381.00 L 591.00 371.00 L 594.00 358.00 L 602.00 342.00 L 630.00 315.00 L 678.00 277.00 L 718.00 251.00 L 750.00 237.00 L 799.00 225.00 L 865.00 215.00 L 912.00 210.00 L 940.00 210.00 L 976.00 216.00 L 1020.00 228.00 L 1064.00 243.00 L 1108.00 261.00 L 1157.00 297.00 L 1211.00 351.00 L 1243.00 388.00 L 1253.00 408.00 L 1264.00 445.00 L 1276.00 499.00 L 1282.00 542.00 L 1282.00 574.00 L 1278.00 607.00 L 1270.00 641.00 L 1258.00 676.00 L 1242.00 712.00 L 1226.00 740.00 L 1210.00 760.00 L 1196.00 783.00 L 1184.00 809.00 L 1188.00 863.00 L 1208.00 945.00 L 1216.00 1034.00 L 1212.00 1130.00 L 1213.00 1182.00 L 1219.00 1190.00 L 1222.00 1202.00 L 1222.00 1218.00 L 1228.00 1232.00 L 1240.00 1244.00 L 1247.00 1255.00 L 1249.00 1265.00 L 1240.00 1266.00 L 1220.00 1258.00 L 1220.00 1260.00 L 1240.00 1272.00 L 1240.00 1275.00 L 1220.00 1269.00 L 1220.00 1273.00 L 1240.00 1287.00 L 1240.00 1290.00 L 1220.00 1282.00 L 1221.00 1285.00 L 1243.00 1299.00 L 1248.00 1303.00 L 1236.00 1297.00 L 1231.00 1297.00 L 1233.00 1303.00 L 1227.00 1302.00 L 1213.00 1294.00 L 1217.00 1297.00 L 1239.00 1311.00 L 1250.00 1320.00 L 1250.00 1324.00 L 1240.00 1320.00 L 1220.00 1308.00 L 1216.00 1306.00 L 1228.00 1314.00 L 1228.00 1316.00 L 1216.00 1312.00 L 1220.00 1319.00 L 1240.00 1337.00 L 1240.00 1340.00 L 1220.00 1328.00 L 1221.00 1331.00 L 1243.00 1349.00 L 1243.00 1352.00 L 1221.00 1340.00 L 1220.00 1342.00 L 1240.00 1358.00 L 1240.00 1360.00 L 1220.00 1348.00 L 1217.00 1348.00 L 1231.00 1360.00 L 1231.00 1363.00 L 1217.00 1357.00 L 1210.00 1369.00 L 1210.00 1399.00 L 1215.00 1423.00 L 1225.00 1441.00 L 1230.00 1455.00 L 1230.00 1465.00 L 1224.00 1474.00 L 1212.00 1482.00 L 1202.00 1485.00 L 1194.00 1483.00 L 1193.00 1493.00 L 1199.00 1515.00 L 1201.00 1525.00 L 1199.00 1523.00 L 1199.00 1534.00 L 1201.00 1558.00 L 1181.00 1566.00 L 1139.00 1558.00 L 1091.00 1553.00 L 1037.00 1551.00 L 968.00 1559.00 L 884.00 1577.00 L 801.00 1603.00 L 719.00 1637.00 L 659.00 1666.00 L 621.00 1690.00 L 589.00 1715.00 L 563.00 1741.00 L 533.00 1764.00 L 499.00 1784.00 L 473.00 1797.00 L 455.00 1803.00 L 435.00 1804.00 L 413.00 1800.00 L 396.00 1792.00 L 384.00 1780.00 L 372.00 1758.00 L 360.00 1726.00 L 356.00 1688.00 L 360.00 1644.00 L 374.00 1592.00 L 398.00 1532.00 L 428.00 1479.00 L 464.00 1433.00 L 480.00 1412.00 L 476.00 1416.00 L 485.00 1395.00 L 507.00 1349.00 L 533.00 1310.00 L 563.00 1278.00 L 577.00 1256.00 L 575.00 1244.00 L 559.00 1248.00 L 529.00 1268.00 L 529.00 1266.00 L 559.00 1242.00 L 556.00 1241.00 L 520.00 1263.00 L 520.00 1261.00 L 556.00 1235.00 L 556.00 1232.00 L 520.00 1252.00 L 521.00 1249.00 L 559.00 1223.00 L 562.00 1220.00 L 530.00 1240.00 L 530.00 1237.00 L 562.00 1211.00 L 565.00 1205.00 L 539.00 1219.00 L 542.00 1215.00 L 574.00 1193.00 L 575.00 1190.00 L 545.00 1206.00 L 534.00 1206.00 L 542.00 1190.00 L 543.00 1183.00 L 537.00 1185.00 L 542.00 1181.00 L 558.00 1171.00 L 556.00 1170.00 L 536.00 1178.00 L 526.00 1176.00 L 526.00 1164.00 L 536.00 1153.00 L 556.00 1143.00 L 559.00 1140.00 L 545.00 1144.00 L 543.00 1144.00 L 553.00 1140.00 L 559.00 1134.00 L 561.00 1126.00 L 550.00 1105.00 L 526.00 1071.00 L 513.00 1052.00 L 511.00 1048.00 L 512.00 1038.00 Z" fill="black" stroke="black" stroke-width="1"/>
</svg>