<?xml version="1.0" encoding="UTF-8"?>
<svg xmlns="http://www.w3.org/2000/svg" viewBox="338.00 367.00 847.00 1355.00">
  <path d="M 433.00 1029.00 L 439.00 1019.00 L 437.00 1012.00 L 427.00 1008.00 L 427.00 1006.00 L 437.00 1006.00 L 437.00 1004.00 L 427.00 1000.00 L 427.00 998.00 L 437.00 998.00 L 436.00 996.00 L 424.00 992.00 L 418.00 972.00 L 418.00 936.00 L 405.00 889.00 L 379.00 831.00 L 361.00 775.00 L 351.00 721.00 L 348.00 667.00 L 352.00 613.00 L 362.00 568.00 L 378.00 532.00 L 393.00 506.00 L 407.00 490.00 L 441.00 463.00 L 495.00 425.00 L 555.00 398.00 L 621.00 382.00 L 697.00 377.00 L 783.00 383.00 L 860.00 402.00 L 928.00 434.00 L 969.00 457.00 L 983.00 471.00 L 988.00 489.00 L 984.00 511.00 L 986.00 513.00 L 994.00 495.00 L 995.00 497.00 L 989.00 519.00 L 990.00 520.00 L 998.00 500.00 L 1000.00 504.00 L 996.00 532.00 L 999.00 536.00 L 1009.00 516.00 L 1011.00 518.00 L 1005.00 542.00 L 1006.00 544.00 L 1014.00 524.00 L 1015.00 526.00 L 1009.00 550.00 L 1011.00 553.00 L 1021.00 535.00 L 1023.00 538.00 L 1017.00 562.00 L 1019.00 564.00 L 1029.00 544.00 L 1030.00 546.00 L 1022.00 570.00 L 1024.00 573.00 L 1036.00 555.00 L 1038.00 559.00 L 1030.00 585.00 L 1032.00 588.00 L 1044.00 568.00 L 1045.00 570.00 L 1035.00 594.00 L 1036.00 596.00 L 1048.00 576.00 L 1049.00 579.00 L 1039.00 605.00 L 1040.00 607.00 L 1052.00 585.00 L 1056.00 581.00 L 1052.00 595.00 L 1053.00 597.00 L 1059.00 587.00 L 1056.00 594.00 L 1044.00 618.00 L 1044.00 619.00 L 1056.00 597.00 L 1056.00 599.00 L 1044.00 625.00 L 1042.00 631.00 L 1050.00 617.00 L 1050.00 619.00 L 1042.00 637.00 L 1045.00 634.00 L 1059.00 610.00 L 1060.00 612.00 L 1048.00 640.00 L 1049.00 643.00 L 1063.00 621.00 L 1063.00 623.00 L 1049.00 649.00 L 1050.00 651.00 L 1066.00 629.00 L 1067.00 632.00 L 1053.00 660.00 L 1053.00 664.00 L 1067.00 644.00 L 1068.00 647.00 L 1056.00 673.00 L 1049.00 704.00 L 1047.00 740.00 L 1062.00 775.00 L 1094.00 809.00 L 1119.00 841.00 L 1137.00 871.00 L 1144.00 892.00 L 1140.00 904.00 L 1127.00 915.00 L 1105.00 925.00 L 1102.00 927.00 L 1118.00 921.00 L 1114.00 926.00 L 1090.00 942.00 L 1078.00 962.00 L 1078.00 986.00 L 1072.00 1003.00 L 1060.00 1013.00 L 1055.00 1023.00 L 1057.00 1033.00 L 1053.00 1046.00 L 1043.00 1062.00 L 1040.00 1090.00 L 1044.00 1130.00 L 1034.00 1158.00 L 1010.00 1174.00 L 1000.00 1186.00 L 1004.00 1194.00 L 1001.00 1195.00 L 991.00 1189.00 L 993.00 1192.00 L 1007.00 1204.00 L 1009.00 1206.00 L 999.00 1198.00 L 999.00 1199.00 L 1009.00 1209.00 L 1010.00 1223.00 L 1002.00 1241.00 L 1008.00 1266.00 L 1028.00 1298.00 L 1026.00 1301.00 L 1002.00 1275.00 L 1002.00 1277.00 L 1026.00 1307.00 L 1028.00 1311.00 L 1008.00 1289.00 L 1031.00 1320.00 L 1097.00 1404.00 L 1094.00 1402.00 L 1022.00 1314.00 L 1020.00 1315.00 L 1088.00 1405.00 L 1088.00 1407.00 L 1020.00 1321.00 L 1016.00 1319.00 L 1076.00 1401.00 L 1102.00 1439.00 L 1094.00 1433.00 L 1063.00 1393.00 L 1009.00 1319.00 L 1008.00 1318.00 L 1060.00 1390.00 L 1080.00 1422.00 L 1068.00 1414.00 L 1092.00 1454.00 L 1152.00 1542.00 L 1131.00 1512.00 L 1029.00 1364.00 L 1030.00 1367.00 L 1134.00 1521.00 L 1152.00 1549.00 L 1084.00 1451.00 L 1087.00 1459.00 L 1161.00 1573.00 L 1159.00 1572.00 L 1081.00 1456.00 L 1081.00 1458.00 L 1159.00 1578.00 L 1154.00 1572.00 L 1066.00 1440.00 L 1066.00 1443.00 L 1154.00 1581.00 L 1149.00 1576.00 L 1051.00 1428.00 L 1050.00 1433.00 L 1146.00 1591.00 L 1144.00 1589.00 L 1044.00 1427.00 L 1043.00 1430.00 L 1141.00 1598.00 L 1140.00 1599.00 L 1040.00 1433.00 L 1038.00 1436.00 L 1134.00 1608.00 L 1175.00 1699.00 L 1161.00 1709.00 L 1140.00 1712.00 L 1112.00 1708.00 L 1082.00 1700.00 L 1050.00 1688.00 L 1006.00 1663.00 L 950.00 1625.00 L 873.00 1584.00 L 775.00 1540.00 L 687.00 1507.00 L 609.00 1485.00 L 534.00 1471.00 L 462.00 1465.00 L 421.00 1459.00 L 411.00 1453.00 L 401.00 1442.00 L 391.00 1426.00 L 386.00 1410.00 L 386.00 1394.00 L 390.00 1365.00 L 398.00 1323.00 L 401.00 1280.00 L 399.00 1236.00 L 405.00 1172.00 L 419.00 1088.00 L 427.00 1043.00 L 429.00 1037.00 L 433.00 1029.00 Z" fill="black" stroke="black" stroke-width="1"/>
</svg>