<?xml version="1.0" encoding="UTF-8"?>
<svg xmlns="http://www.w3.org/2000/svg" viewBox="248.00 177.00 956.00 1592.00">
  <path d="M 519.00 893.00 L 481.00 859.00 L 449.00 822.00 L 423.00 782.00 L 404.00 738.00 L 392.00 690.00 L 365.00 651.00 L 323.00 621.00 L 323.00 619.00 L 365.00 645.00 L 358.00 638.00 L 302.00 598.00 L 302.00 596.00 L 358.00 632.00 L 356.00 629.00 L 296.00 587.00 L 296.00 585.00 L 356.00 623.00 L 355.00 620.00 L 293.00 576.00 L 292.00 573.00 L 352.00 611.00 L 351.00 606.00 L 289.00 558.00 L 258.00 515.00 L 258.00 477.00 L 261.00 449.00 L 267.00 431.00 L 275.00 413.00 L 285.00 395.00 L 308.00 370.00 L 344.00 338.00 L 385.00 313.00 L 431.00 295.00 L 471.00 264.00 L 505.00 220.00 L 535.00 203.00 L 561.00 213.00 L 587.00 211.00 L 613.00 197.00 L 637.00 191.00 L 659.00 193.00 L 677.00 220.00 L 691.00 272.00 L 694.00 271.00 L 686.00 217.00 L 685.00 189.00 L 691.00 187.00 L 698.00 214.00 L 706.00 270.00 L 708.00 269.00 L 704.00 211.00 L 706.00 210.00 L 714.00 266.00 L 716.00 266.00 L 712.00 210.00 L 714.00 210.00 L 722.00 266.00 L 724.00 266.00 L 720.00 210.00 L 722.00 210.00 L 730.00 266.00 L 732.00 266.00 L 728.00 210.00 L 731.00 211.00 L 741.00 269.00 L 745.00 271.00 L 743.00 217.00 L 746.00 217.00 L 754.00 271.00 L 757.00 273.00 L 755.00 223.00 L 757.00 201.00 L 763.00 207.00 L 767.00 231.00 L 769.00 273.00 L 770.00 274.00 L 770.00 234.00 L 773.00 234.00 L 779.00 274.00 L 782.00 282.00 L 782.00 258.00 L 785.00 258.00 L 791.00 282.00 L 822.00 297.00 L 878.00 303.00 L 935.00 316.00 L 993.00 336.00 L 1049.00 364.00 L 1103.00 400.00 L 1128.00 423.00 L 1124.00 433.00 L 1125.00 436.00 L 1131.00 432.00 L 1132.00 434.00 L 1128.00 442.00 L 1132.00 465.00 L 1144.00 503.00 L 1147.00 558.00 L 1141.00 630.00 L 1155.00 696.00 L 1189.00 756.00 L 1194.00 798.00 L 1170.00 822.00 L 1161.00 846.00 L 1167.00 870.00 L 1163.00 888.00 L 1149.00 900.00 L 1143.00 914.00 L 1145.00 930.00 L 1138.00 943.00 L 1122.00 953.00 L 1117.00 967.00 L 1123.00 985.00 L 1120.00 1004.00 L 1108.00 1024.00 L 1071.00 1047.00 L 1009.00 1073.00 L 965.00 1099.00 L 939.00 1125.00 L 996.00 1263.00 L 1136.00 1513.00 L 1135.00 1515.00 L 993.00 1269.00 L 994.00 1277.00 L 1138.00 1539.00 L 1138.00 1541.00 L 994.00 1283.00 L 993.00 1285.00 L 1135.00 1547.00 L 1183.00 1638.00 L 1137.00 1558.00 L 1137.00 1561.00 L 1183.00 1647.00 L 1177.00 1641.00 L 1119.00 1543.00 L 1116.00 1548.00 L 1168.00 1656.00 L 1125.00 1574.00 L 987.00 1302.00 L 986.00 1304.00 L 1122.00 1580.00 L 1160.00 1658.00 L 1100.00 1538.00 L 1099.00 1540.00 L 1157.00 1664.00 L 1154.00 1661.00 L 1090.00 1531.00 L 1089.00 1533.00 L 1151.00 1667.00 L 1115.00 1594.00 L 981.00 1314.00 L 980.00 1321.00 L 1112.00 1615.00 L 1112.00 1618.00 L 980.00 1330.00 L 980.00 1332.00 L 1112.00 1624.00 L 1112.00 1626.00 L 980.00 1338.00 L 978.00 1340.00 L 1106.00 1632.00 L 1130.00 1689.00 L 1050.00 1511.00 L 1046.00 1508.00 L 1118.00 1680.00 L 1116.00 1678.00 L 1040.00 1502.00 L 1039.00 1501.00 L 1113.00 1675.00 L 1147.00 1759.00 L 1141.00 1753.00 L 1081.00 1614.00 L 967.00 1342.00 L 965.00 1341.00 L 1075.00 1611.00 L 1092.00 1655.00 L 1016.00 1473.00 L 1012.00 1469.00 L 1080.00 1643.00 L 1063.00 1603.00 L 961.00 1349.00 L 958.00 1346.00 L 1054.00 1594.00 L 1054.00 1596.00 L 958.00 1352.00 L 954.00 1350.00 L 1042.00 1590.00 L 1042.00 1593.00 L 954.00 1359.00 L 951.00 1356.00 L 1033.00 1584.00 L 1033.00 1585.00 L 951.00 1359.00 L 949.00 1358.00 L 1027.00 1582.00 L 1028.00 1587.00 L 952.00 1373.00 L 950.00 1371.00 L 1022.00 1581.00 L 1023.00 1586.00 L 953.00 1386.00 L 951.00 1384.00 L 1017.00 1580.00 L 988.00 1639.00 L 864.00 1561.00 L 720.00 1491.00 L 556.00 1429.00 L 471.00 1390.00 L 465.00 1374.00 L 463.00 1357.00 L 465.00 1339.00 L 481.00 1303.00 L 511.00 1249.00 L 538.00 1183.00 L 562.00 1105.00 L 574.00 1050.00 L 574.00 1018.00 L 566.00 981.00 L 550.00 939.00 L 541.00 916.00 L 539.00 912.00 L 519.00 893.00 Z" fill="black" stroke="black" stroke-width="1"/>
</svg>