<?xml version="1.0" encoding="UTF-8"?>
<svg xmlns="http://www.w3.org/2000/svg" viewBox="233.00 133.00 1074.00 1761.00">
  <path d="M 332.00 1013.00 L 336.00 1007.00 L 338.00 997.00 L 338.00 983.00 L 335.00 972.00 L 329.00 964.00 L 318.00 956.00 L 302.00 948.00 L 292.00 941.00 L 288.00 935.00 L 287.00 927.00 L 289.00 917.00 L 316.00 886.00 L 368.00 834.00 L 354.00 781.00 L 274.00 727.00 L 243.00 704.00 L 261.00 712.00 L 302.00 737.00 L 366.00 779.00 L 359.00 773.00 L 281.00 719.00 L 254.00 699.00 L 278.00 713.00 L 280.00 712.00 L 260.00 696.00 L 288.00 713.00 L 364.00 763.00 L 367.00 761.00 L 297.00 707.00 L 297.00 704.00 L 367.00 752.00 L 370.00 751.00 L 306.00 701.00 L 306.00 698.00 L 370.00 742.00 L 373.00 741.00 L 315.00 695.00 L 304.00 685.00 L 340.00 711.00 L 343.00 710.00 L 313.00 682.00 L 325.00 689.00 L 379.00 731.00 L 381.00 730.00 L 331.00 686.00 L 326.00 679.00 L 366.00 709.00 L 368.00 708.00 L 332.00 676.00 L 316.00 660.00 L 320.00 660.00 L 345.00 680.00 L 391.00 720.00 L 393.00 719.00 L 351.00 677.00 L 353.00 675.00 L 399.00 713.00 L 402.00 713.00 L 362.00 675.00 L 367.00 649.00 L 417.00 635.00 L 460.00 591.00 L 496.00 517.00 L 530.00 456.00 L 562.00 408.00 L 603.00 339.00 L 653.00 249.00 L 689.00 191.00 L 711.00 165.00 L 730.00 149.00 L 746.00 143.00 L 774.00 148.00 L 814.00 164.00 L 909.00 216.00 L 1059.00 304.00 L 1172.00 377.00 L 1248.00 435.00 L 1289.00 471.00 L 1295.00 485.00 L 1297.00 495.00 L 1295.00 501.00 L 1273.00 546.00 L 1231.00 630.00 L 1181.00 744.00 L 1123.00 888.00 L 1092.00 970.00 L 1088.00 990.00 L 1093.00 1003.00 L 1107.00 1009.00 L 1115.00 1017.00 L 1117.00 1027.00 L 1115.00 1032.00 L 1109.00 1032.00 L 1105.00 1034.00 L 1103.00 1038.00 L 1113.00 1063.00 L 1135.00 1109.00 L 1114.00 1125.00 L 1050.00 1111.00 L 1051.00 1115.00 L 1117.00 1137.00 L 1116.00 1140.00 L 1048.00 1124.00 L 1049.00 1128.00 L 1119.00 1152.00 L 1118.00 1154.00 L 1046.00 1134.00 L 1047.00 1138.00 L 1121.00 1166.00 L 1136.00 1173.00 L 1092.00 1159.00 L 1072.00 1155.00 L 1076.00 1161.00 L 1098.00 1172.00 L 1138.00 1188.00 L 1120.00 1182.00 L 1044.00 1154.00 L 1044.00 1157.00 L 1120.00 1191.00 L 1143.00 1202.00 L 1113.00 1190.00 L 1111.00 1192.00 L 1137.00 1208.00 L 1113.00 1200.00 L 1039.00 1168.00 L 995.00 1160.00 L 981.00 1176.00 L 980.00 1198.00 L 992.00 1226.00 L 1005.00 1289.00 L 1019.00 1387.00 L 1023.00 1443.00 L 1017.00 1457.00 L 1022.00 1504.00 L 1038.00 1584.00 L 1045.00 1641.00 L 1043.00 1675.00 L 1023.00 1688.00 L 985.00 1680.00 L 943.00 1676.00 L 897.00 1676.00 L 843.00 1681.00 L 781.00 1691.00 L 711.00 1712.00 L 633.00 1744.00 L 548.00 1791.00 L 456.00 1853.00 L 397.00 1884.00 L 371.00 1884.00 L 353.00 1877.00 L 343.00 1863.00 L 338.00 1843.00 L 338.00 1817.00 L 387.00 1706.00 L 485.00 1510.00 L 485.00 1507.00 L 387.00 1697.00 L 342.00 1778.00 L 350.00 1750.00 L 396.00 1657.00 L 480.00 1499.00 L 482.00 1494.00 L 402.00 1642.00 L 365.00 1708.00 L 371.00 1692.00 L 412.00 1613.00 L 488.00 1471.00 L 488.00 1468.00 L 412.00 1604.00 L 407.00 1612.00 L 473.00 1492.00 L 474.00 1489.00 L 410.00 1603.00 L 407.00 1607.00 L 465.00 1501.00 L 469.00 1492.00 L 419.00 1580.00 L 417.00 1583.00 L 463.00 1501.00 L 465.00 1496.00 L 423.00 1568.00 L 422.00 1569.00 L 462.00 1499.00 L 463.00 1497.00 L 425.00 1563.00 L 410.00 1588.00 L 418.00 1572.00 L 419.00 1569.00 L 413.00 1579.00 L 411.00 1582.00 L 413.00 1578.00 L 440.00 1530.00 L 492.00 1438.00 L 510.00 1380.00 L 494.00 1356.00 L 471.00 1330.00 L 441.00 1302.00 L 430.00 1279.00 L 438.00 1261.00 L 425.00 1244.00 L 391.00 1228.00 L 366.00 1213.00 L 350.00 1199.00 L 339.00 1183.00 L 333.00 1165.00 L 336.00 1145.00 L 348.00 1123.00 L 348.00 1104.00 L 336.00 1088.00 L 334.00 1073.00 L 342.00 1059.00 L 340.00 1046.00 L 328.00 1034.00 L 324.00 1025.00 L 328.00 1019.00 L 332.00 1013.00 Z" fill="black" stroke="black" stroke-width="1"/>
</svg>