<?xml version="1.0" encoding="UTF-8"?>
<svg xmlns="http://www.w3.org/2000/svg" viewBox="394.00 214.00 829.00 1469.00">
  <path d="M 500.00 954.00 L 504.00 926.00 L 512.00 903.00 L 524.00 885.00 L 527.00 874.00 L 521.00 870.00 L 521.00 867.00 L 527.00 865.00 L 525.00 861.00 L 515.00 855.00 L 507.00 839.00 L 501.00 813.00 L 480.00 764.00 L 444.00 692.00 L 420.00 632.00 L 408.00 584.00 L 404.00 540.00 L 408.00 500.00 L 414.00 469.00 L 422.00 447.00 L 438.00 415.00 L 462.00 373.00 L 489.00 337.00 L 519.00 307.00 L 551.00 279.00 L 585.00 253.00 L 620.00 236.00 L 656.00 228.00 L 702.00 224.00 L 758.00 224.00 L 800.00 226.00 L 828.00 230.00 L 860.00 237.00 L 896.00 247.00 L 937.00 264.00 L 983.00 288.00 L 1025.00 319.00 L 1063.00 357.00 L 1084.00 381.00 L 1088.00 391.00 L 1089.00 401.00 L 1087.00 411.00 L 1094.00 428.00 L 1110.00 452.00 L 1120.00 476.00 L 1124.00 500.00 L 1130.00 520.00 L 1138.00 536.00 L 1143.00 553.00 L 1145.00 571.00 L 1144.00 593.00 L 1140.00 619.00 L 1157.00 668.00 L 1195.00 740.00 L 1213.00 780.00 L 1211.00 788.00 L 1198.00 799.00 L 1174.00 813.00 L 1173.00 815.00 L 1195.00 805.00 L 1198.00 804.00 L 1182.00 812.00 L 1179.00 814.00 L 1189.00 810.00 L 1186.00 814.00 L 1170.00 826.00 L 1165.00 838.00 L 1171.00 850.00 L 1174.00 861.00 L 1174.00 871.00 L 1169.00 881.00 L 1159.00 891.00 L 1155.00 903.00 L 1157.00 917.00 L 1153.00 927.00 L 1143.00 933.00 L 1133.00 943.00 L 1123.00 957.00 L 1118.00 974.00 L 1118.00 994.00 L 1113.00 1010.00 L 1103.00 1022.00 L 1085.00 1033.00 L 1059.00 1043.00 L 1055.00 1056.00 L 1073.00 1072.00 L 1082.00 1083.00 L 1082.00 1089.00 L 1071.00 1111.00 L 1049.00 1149.00 L 1042.00 1174.00 L 1050.00 1186.00 L 1049.00 1189.00 L 1039.00 1183.00 L 1038.00 1185.00 L 1046.00 1195.00 L 1047.00 1201.00 L 1041.00 1203.00 L 1040.00 1207.00 L 1044.00 1213.00 L 1042.00 1212.00 L 1034.00 1204.00 L 1037.00 1211.00 L 1051.00 1233.00 L 1054.00 1241.00 L 1046.00 1235.00 L 1045.00 1236.00 L 1051.00 1244.00 L 1049.00 1242.00 L 1039.00 1230.00 L 1028.00 1221.00 L 1016.00 1215.00 L 1010.00 1215.00 L 1010.00 1221.00 L 1019.00 1240.00 L 1037.00 1272.00 L 1036.00 1274.00 L 1016.00 1246.00 L 1016.00 1248.00 L 1036.00 1280.00 L 1036.00 1282.00 L 1016.00 1254.00 L 1027.00 1277.00 L 1069.00 1351.00 L 1086.00 1382.00 L 1078.00 1370.00 L 1079.00 1372.00 L 1089.00 1388.00 L 1082.00 1377.00 L 1058.00 1339.00 L 1059.00 1341.00 L 1085.00 1383.00 L 1086.00 1386.00 L 1062.00 1350.00 L 1065.00 1357.00 L 1095.00 1407.00 L 1094.00 1406.00 L 1062.00 1354.00 L 1060.00 1351.00 L 1088.00 1397.00 L 1109.00 1436.00 L 1123.00 1468.00 L 1129.00 1483.00 L 1127.00 1481.00 L 1128.00 1485.00 L 1132.00 1495.00 L 1134.00 1529.00 L 1134.00 1587.00 L 1133.00 1628.00 L 1131.00 1652.00 L 1128.00 1667.00 L 1124.00 1673.00 L 1117.00 1673.00 L 1107.00 1667.00 L 1096.00 1664.00 L 1084.00 1664.00 L 1074.00 1659.00 L 1066.00 1649.00 L 1064.00 1650.00 L 1068.00 1662.00 L 1066.00 1662.00 L 1058.00 1650.00 L 1056.00 1652.00 L 1060.00 1668.00 L 1056.00 1664.00 L 1044.00 1640.00 L 1042.00 1641.00 L 1050.00 1667.00 L 1049.00 1666.00 L 1039.00 1638.00 L 1036.00 1631.00 L 1040.00 1645.00 L 1038.00 1644.00 L 1030.00 1628.00 L 1030.00 1634.00 L 1038.00 1662.00 L 1037.00 1661.00 L 1027.00 1631.00 L 1027.00 1635.00 L 1037.00 1673.00 L 1034.00 1671.00 L 1018.00 1629.00 L 1014.00 1623.00 L 1022.00 1653.00 L 1025.00 1666.00 L 1023.00 1662.00 L 1018.00 1646.00 L 1010.00 1618.00 L 1012.00 1626.00 L 1024.00 1670.00 L 1022.00 1669.00 L 1006.00 1623.00 L 973.00 1584.00 L 923.00 1552.00 L 859.00 1516.00 L 781.00 1476.00 L 718.00 1448.00 L 670.00 1432.00 L 613.00 1419.00 L 547.00 1409.00 L 508.00 1402.00 L 496.00 1398.00 L 486.00 1392.00 L 478.00 1384.00 L 469.00 1368.00 L 459.00 1344.00 L 454.00 1322.00 L 454.00 1302.00 L 457.00 1281.00 L 463.00 1259.00 L 467.00 1232.00 L 469.00 1200.00 L 475.00 1166.00 L 485.00 1130.00 L 488.00 1094.00 L 484.00 1058.00 L 486.00 1024.00 L 494.00 992.00 L 498.00 974.00 L 498.00 970.00 L 500.00 954.00 Z" fill="black" stroke="black" stroke-width="1"/>
</svg>