<?xml version="1.0" encoding="UTF-8"?>
<svg xmlns="http://www.w3.org/2000/svg" viewBox="369.00 342.00 770.00 1260.00">
  <path d="M 415.00 946.00 L 409.00 938.00 L 408.00 921.00 L 412.00 895.00 L 406.00 875.00 L 390.00 861.00 L 381.00 848.00 L 379.00 836.00 L 399.00 802.00 L 441.00 746.00 L 464.00 709.00 L 468.00 691.00 L 469.00 668.00 L 467.00 640.00 L 469.00 615.00 L 475.00 593.00 L 475.00 573.00 L 469.00 555.00 L 470.00 550.00 L 478.00 558.00 L 479.00 554.00 L 473.00 538.00 L 474.00 536.00 L 482.00 548.00 L 483.00 546.00 L 477.00 530.00 L 478.00 527.00 L 486.00 537.00 L 487.00 534.00 L 481.00 518.00 L 490.00 490.00 L 514.00 450.00 L 532.00 424.00 L 544.00 412.00 L 559.00 401.00 L 577.00 391.00 L 607.00 379.00 L 649.00 365.00 L 718.00 356.00 L 814.00 352.00 L 883.00 357.00 L 925.00 371.00 L 959.00 385.00 L 985.00 399.00 L 1008.00 415.00 L 1028.00 433.00 L 1057.00 473.00 L 1095.00 535.00 L 1117.00 576.00 L 1123.00 596.00 L 1127.00 620.00 L 1129.00 648.00 L 1128.00 680.00 L 1124.00 716.00 L 1114.00 755.00 L 1098.00 797.00 L 1088.00 832.00 L 1084.00 860.00 L 1081.00 876.00 L 1079.00 880.00 L 1062.00 887.00 L 1030.00 897.00 L 1030.00 899.00 L 1062.00 893.00 L 1061.00 894.00 L 1027.00 902.00 L 1027.00 904.00 L 1061.00 900.00 L 1062.00 901.00 L 1030.00 907.00 L 1030.00 909.00 L 1062.00 907.00 L 1064.00 908.00 L 1036.00 912.00 L 1036.00 914.00 L 1064.00 914.00 L 1063.00 916.00 L 1033.00 920.00 L 1033.00 922.00 L 1063.00 922.00 L 1064.00 924.00 L 1036.00 928.00 L 1036.00 930.00 L 1064.00 930.00 L 1065.00 932.00 L 1039.00 936.00 L 1039.00 939.00 L 1065.00 941.00 L 1065.00 943.00 L 1039.00 945.00 L 1038.00 946.00 L 1062.00 946.00 L 1065.00 948.00 L 1047.00 952.00 L 1047.00 954.00 L 1065.00 954.00 L 1062.00 955.00 L 1038.00 957.00 L 1038.00 959.00 L 1062.00 961.00 L 1062.00 964.00 L 1038.00 968.00 L 1037.00 971.00 L 1059.00 973.00 L 1063.00 975.00 L 1049.00 977.00 L 1048.00 979.00 L 1060.00 981.00 L 1056.00 982.00 L 1036.00 982.00 L 1034.00 984.00 L 1050.00 988.00 L 1050.00 991.00 L 1034.00 993.00 L 1031.00 995.00 L 1041.00 997.00 L 1041.00 1000.00 L 1031.00 1004.00 L 1027.00 1025.00 L 1029.00 1063.00 L 1026.00 1091.00 L 1018.00 1109.00 L 1015.00 1129.00 L 1017.00 1151.00 L 1023.00 1175.00 L 1033.00 1201.00 L 1039.00 1223.00 L 1041.00 1241.00 L 1041.00 1262.00 L 1039.00 1286.00 L 1035.00 1304.00 L 1029.00 1316.00 L 1016.00 1329.00 L 996.00 1343.00 L 957.00 1355.00 L 899.00 1365.00 L 841.00 1380.00 L 783.00 1400.00 L 737.00 1419.00 L 703.00 1437.00 L 640.00 1481.00 L 548.00 1551.00 L 496.00 1588.00 L 484.00 1592.00 L 473.00 1583.00 L 463.00 1561.00 L 458.00 1539.00 L 458.00 1517.00 L 457.00 1507.00 L 455.00 1509.00 L 457.00 1496.00 L 463.00 1468.00 L 465.00 1455.00 L 463.00 1457.00 L 477.00 1429.00 L 507.00 1371.00 L 521.00 1343.00 L 519.00 1345.00 L 520.00 1342.00 L 524.00 1334.00 L 512.00 1355.00 L 484.00 1405.00 L 484.00 1403.00 L 512.00 1349.00 L 515.00 1341.00 L 493.00 1379.00 L 493.00 1377.00 L 515.00 1335.00 L 526.00 1309.00 L 526.00 1299.00 L 540.00 1270.00 L 568.00 1222.00 L 568.00 1220.00 L 540.00 1264.00 L 539.00 1265.00 L 565.00 1223.00 L 565.00 1221.00 L 539.00 1259.00 L 542.00 1252.00 L 574.00 1200.00 L 575.00 1196.00 L 545.00 1240.00 L 544.00 1240.00 L 572.00 1196.00 L 573.00 1193.00 L 547.00 1231.00 L 545.00 1232.00 L 567.00 1196.00 L 570.00 1184.00 L 554.00 1196.00 L 555.00 1190.00 L 573.00 1166.00 L 570.00 1168.00 L 546.00 1196.00 L 544.00 1197.00 L 564.00 1171.00 L 566.00 1166.00 L 550.00 1182.00 L 550.00 1180.00 L 566.00 1160.00 L 563.00 1163.00 L 541.00 1189.00 L 540.00 1186.00 L 560.00 1154.00 L 569.00 1139.00 L 567.00 1141.00 L 567.00 1139.00 L 569.00 1133.00 L 568.00 1123.00 L 564.00 1109.00 L 565.00 1098.00 L 571.00 1090.00 L 559.00 1087.00 L 529.00 1089.00 L 505.00 1086.00 L 487.00 1078.00 L 473.00 1068.00 L 463.00 1056.00 L 458.00 1037.00 L 458.00 1011.00 L 450.00 993.00 L 434.00 983.00 L 426.00 972.00 L 426.00 960.00 L 424.00 953.00 L 420.00 951.00 L 415.00 946.00 Z" fill="black" stroke="black" stroke-width="1"/>
</svg>