<?xml version="1.0" encoding="UTF-8"?>
<svg xmlns="http://www.w3.org/2000/svg" viewBox="269.00 264.00 799.00 1397.00">
  <path d="M 413.00 923.00 L 419.00 913.00 L 419.00 906.00 L 413.00 902.00 L 414.00 900.00 L 422.00 900.00 L 421.00 899.00 L 411.00 897.00 L 411.00 895.00 L 421.00 893.00 L 419.00 891.00 L 405.00 889.00 L 404.00 888.00 L 416.00 888.00 L 415.00 886.00 L 401.00 882.00 L 392.00 871.00 L 388.00 853.00 L 363.00 835.00 L 317.00 817.00 L 317.00 814.00 L 363.00 826.00 L 362.00 823.00 L 314.00 805.00 L 287.00 783.00 L 281.00 757.00 L 279.00 711.00 L 281.00 645.00 L 290.00 584.00 L 306.00 528.00 L 309.00 486.00 L 299.00 458.00 L 301.00 439.00 L 315.00 429.00 L 327.00 403.00 L 337.00 361.00 L 347.00 336.00 L 357.00 328.00 L 373.00 340.00 L 395.00 372.00 L 397.00 370.00 L 379.00 334.00 L 381.00 335.00 L 403.00 373.00 L 406.00 372.00 L 390.00 332.00 L 392.00 328.00 L 412.00 360.00 L 415.00 359.00 L 401.00 325.00 L 402.00 323.00 L 418.00 353.00 L 420.00 353.00 L 408.00 323.00 L 409.00 321.00 L 423.00 347.00 L 425.00 348.00 L 415.00 324.00 L 417.00 322.00 L 431.00 342.00 L 435.00 345.00 L 429.00 331.00 L 432.00 328.00 L 444.00 336.00 L 482.00 325.00 L 546.00 295.00 L 598.00 278.00 L 638.00 274.00 L 686.00 274.00 L 742.00 278.00 L 795.00 292.00 L 845.00 316.00 L 882.00 343.00 L 906.00 373.00 L 922.00 406.00 L 930.00 442.00 L 937.00 456.00 L 943.00 448.00 L 944.00 451.00 L 940.00 465.00 L 943.00 469.00 L 953.00 463.00 L 956.00 468.00 L 952.00 484.00 L 954.00 487.00 L 962.00 477.00 L 963.00 480.00 L 957.00 496.00 L 958.00 498.00 L 966.00 486.00 L 966.00 488.00 L 958.00 504.00 L 960.00 506.00 L 972.00 494.00 L 973.00 497.00 L 963.00 515.00 L 964.00 516.00 L 976.00 500.00 L 977.00 504.00 L 967.00 528.00 L 968.00 531.00 L 980.00 513.00 L 981.00 515.00 L 971.00 537.00 L 972.00 541.00 L 984.00 527.00 L 985.00 532.00 L 975.00 556.00 L 977.00 560.00 L 991.00 544.00 L 992.00 546.00 L 980.00 566.00 L 981.00 568.00 L 995.00 552.00 L 996.00 555.00 L 984.00 577.00 L 980.00 614.00 L 984.00 666.00 L 1006.00 716.00 L 1046.00 764.00 L 1052.00 797.00 L 1024.00 815.00 L 1022.00 821.00 L 1046.00 815.00 L 1046.00 818.00 L 1022.00 830.00 L 1012.00 882.00 L 1016.00 974.00 L 1000.00 1035.00 L 964.00 1065.00 L 953.00 1088.00 L 967.00 1104.00 L 964.00 1107.00 L 944.00 1097.00 L 944.00 1100.00 L 964.00 1116.00 L 965.00 1145.00 L 947.00 1187.00 L 943.00 1218.00 L 953.00 1238.00 L 952.00 1241.00 L 940.00 1227.00 L 955.00 1250.00 L 997.00 1310.00 L 998.00 1313.00 L 958.00 1259.00 L 956.00 1260.00 L 992.00 1316.00 L 996.00 1326.00 L 968.00 1290.00 L 963.00 1285.00 L 981.00 1311.00 L 978.00 1309.00 L 954.00 1279.00 L 949.00 1276.00 L 963.00 1300.00 L 961.00 1300.00 L 943.00 1276.00 L 941.00 1275.00 L 955.00 1297.00 L 954.00 1298.00 L 938.00 1278.00 L 934.00 1282.00 L 942.00 1310.00 L 940.00 1314.00 L 928.00 1294.00 L 950.00 1337.00 L 1006.00 1443.00 L 1025.00 1480.00 L 1007.00 1448.00 L 1008.00 1451.00 L 1028.00 1489.00 L 1015.00 1467.00 L 969.00 1385.00 L 971.00 1391.00 L 1021.00 1485.00 L 1021.00 1487.00 L 971.00 1397.00 L 971.00 1400.00 L 1021.00 1496.00 L 1021.00 1498.00 L 971.00 1406.00 L 971.00 1407.00 L 1021.00 1501.00 L 1050.00 1562.00 L 1058.00 1590.00 L 1058.00 1616.00 L 1050.00 1640.00 L 1036.00 1651.00 L 1016.00 1649.00 L 991.00 1636.00 L 961.00 1612.00 L 948.00 1607.00 L 952.00 1621.00 L 950.00 1619.00 L 942.00 1601.00 L 940.00 1600.00 L 944.00 1616.00 L 942.00 1614.00 L 934.00 1594.00 L 921.00 1577.00 L 903.00 1563.00 L 843.00 1526.00 L 741.00 1466.00 L 608.00 1408.00 L 444.00 1352.00 L 358.00 1311.00 L 350.00 1285.00 L 357.00 1235.00 L 379.00 1161.00 L 387.00 1114.00 L 381.00 1094.00 L 386.00 1047.00 L 402.00 973.00 L 410.00 934.00 L 410.00 930.00 L 413.00 923.00 Z" fill="black" stroke="black" stroke-width="1"/>
</svg>