<?xml version="1.0" encoding="UTF-8"?>
<svg xmlns="http://www.w3.org/2000/svg" viewBox="278.00 250.00 1255.00 1585.00">
  <path d="M 637.00 1032.00 L 655.00 1008.00 L 662.00 989.00 L 658.00 975.00 L 650.00 965.00 L 638.00 959.00 L 637.00 956.00 L 647.00 956.00 L 654.00 954.00 L 658.00 950.00 L 655.00 946.00 L 645.00 942.00 L 643.00 941.00 L 649.00 943.00 L 650.00 940.00 L 646.00 932.00 L 649.00 930.00 L 659.00 934.00 L 663.00 934.00 L 661.00 930.00 L 574.00 890.00 L 402.00 814.00 L 322.00 778.00 L 334.00 782.00 L 331.00 780.00 L 313.00 772.00 L 321.00 775.00 L 355.00 789.00 L 345.00 784.00 L 291.00 760.00 L 301.00 764.00 L 375.00 796.00 L 372.00 794.00 L 292.00 758.00 L 297.00 760.00 L 387.00 800.00 L 384.00 797.00 L 288.00 751.00 L 347.00 777.00 L 561.00 875.00 L 574.00 880.00 L 386.00 792.00 L 386.00 791.00 L 574.00 877.00 L 561.00 868.00 L 347.00 764.00 L 344.00 762.00 L 552.00 862.00 L 553.00 860.00 L 347.00 756.00 L 351.00 756.00 L 565.00 860.00 L 566.00 857.00 L 354.00 747.00 L 338.00 737.00 L 518.00 827.00 L 520.00 824.00 L 344.00 728.00 L 361.00 736.00 L 571.00 848.00 L 573.00 845.00 L 367.00 727.00 L 361.00 722.00 L 555.00 830.00 L 558.00 827.00 L 370.00 713.00 L 373.00 713.00 L 567.00 827.00 L 568.00 825.00 L 376.00 707.00 L 298.00 626.00 L 334.00 582.00 L 387.00 527.00 L 457.00 461.00 L 518.00 411.00 L 570.00 377.00 L 630.00 345.00 L 698.00 315.00 L 780.00 293.00 L 876.00 279.00 L 959.00 275.00 L 1029.00 281.00 L 1072.00 276.00 L 1088.00 260.00 L 1096.00 260.00 L 1096.00 276.00 L 1099.00 276.00 L 1105.00 260.00 L 1111.00 261.00 L 1117.00 279.00 L 1142.00 293.00 L 1186.00 303.00 L 1224.00 317.00 L 1256.00 335.00 L 1300.00 372.00 L 1356.00 428.00 L 1403.00 491.00 L 1441.00 561.00 L 1472.00 645.00 L 1496.00 743.00 L 1513.00 865.00 L 1523.00 1011.00 L 1520.00 1159.00 L 1504.00 1309.00 L 1420.00 1341.00 L 1268.00 1255.00 L 1267.00 1259.00 L 1417.00 1353.00 L 1420.00 1355.00 L 1276.00 1265.00 L 1275.00 1268.00 L 1417.00 1364.00 L 1423.00 1370.00 L 1293.00 1286.00 L 1292.00 1289.00 L 1420.00 1379.00 L 1410.00 1374.00 L 1262.00 1274.00 L 1261.00 1277.00 L 1407.00 1383.00 L 1406.00 1386.00 L 1258.00 1286.00 L 1256.00 1290.00 L 1400.00 1398.00 L 1427.00 1419.00 L 1337.00 1353.00 L 1336.00 1357.00 L 1424.00 1431.00 L 1396.00 1413.00 L 1252.00 1303.00 L 1251.00 1307.00 L 1393.00 1425.00 L 1438.00 1463.00 L 1386.00 1421.00 L 1384.00 1424.00 L 1432.00 1472.00 L 1385.00 1437.00 L 1243.00 1319.00 L 1238.00 1320.00 L 1370.00 1440.00 L 1369.00 1442.00 L 1235.00 1326.00 L 1171.00 1273.00 L 1177.00 1283.00 L 1184.00 1326.00 L 1192.00 1402.00 L 1194.00 1451.00 L 1190.00 1473.00 L 1196.00 1502.00 L 1212.00 1538.00 L 1217.00 1552.00 L 1211.00 1544.00 L 1212.00 1552.00 L 1220.00 1576.00 L 1222.00 1600.00 L 1218.00 1624.00 L 1203.00 1642.00 L 1177.00 1654.00 L 1124.00 1664.00 L 1044.00 1672.00 L 970.00 1684.00 L 902.00 1700.00 L 833.00 1720.00 L 763.00 1744.00 L 708.00 1768.00 L 668.00 1792.00 L 627.00 1811.00 L 585.00 1825.00 L 595.00 1761.00 L 657.00 1619.00 L 654.00 1617.00 L 586.00 1755.00 L 584.00 1754.00 L 648.00 1614.00 L 646.00 1611.00 L 578.00 1745.00 L 576.00 1746.00 L 640.00 1614.00 L 640.00 1610.00 L 576.00 1734.00 L 573.00 1736.00 L 631.00 1616.00 L 630.00 1613.00 L 570.00 1727.00 L 572.00 1720.00 L 636.00 1592.00 L 636.00 1587.00 L 572.00 1705.00 L 575.00 1699.00 L 645.00 1569.00 L 646.00 1566.00 L 578.00 1690.00 L 576.00 1693.00 L 640.00 1575.00 L 640.00 1572.00 L 576.00 1684.00 L 580.00 1675.00 L 652.00 1545.00 L 653.00 1543.00 L 583.00 1669.00 L 582.00 1666.00 L 650.00 1534.00 L 673.00 1486.00 L 651.00 1522.00 L 651.00 1520.00 L 673.00 1480.00 L 673.00 1477.00 L 651.00 1511.00 L 650.00 1508.00 L 670.00 1468.00 L 670.00 1427.00 L 650.00 1385.00 L 642.00 1361.00 L 646.00 1355.00 L 642.00 1344.00 L 630.00 1328.00 L 621.00 1299.00 L 615.00 1257.00 L 613.00 1215.00 L 615.00 1173.00 L 606.00 1145.00 L 586.00 1131.00 L 586.00 1107.00 L 606.00 1073.00 L 619.00 1053.00 L 625.00 1047.00 L 637.00 1032.00 Z" fill="black" stroke="black" stroke-width="1"/>
</svg>