<?xml version="1.0" encoding="UTF-8"?>
<svg xmlns="http://www.w3.org/2000/svg" viewBox="321.00 301.00 850.00 1486.00">
  <path d="M 419.00 1054.00 L 397.00 1038.00 L 385.00 1025.00 L 383.00 1015.00 L 382.00 1006.00 L 382.00 998.00 L 389.00 983.00 L 403.00 961.00 L 406.00 940.00 L 398.00 920.00 L 397.00 905.00 L 403.00 895.00 L 404.00 888.00 L 400.00 884.00 L 399.00 869.00 L 401.00 843.00 L 387.00 817.00 L 357.00 791.00 L 357.00 787.00 L 387.00 805.00 L 387.00 802.00 L 357.00 778.00 L 356.00 776.00 L 384.00 796.00 L 385.00 793.00 L 359.00 767.00 L 369.00 726.00 L 415.00 670.00 L 435.00 632.00 L 429.00 612.00 L 427.00 594.00 L 429.00 578.00 L 447.00 539.00 L 481.00 477.00 L 499.00 440.00 L 501.00 428.00 L 503.00 425.00 L 505.00 431.00 L 507.00 433.00 L 509.00 431.00 L 509.00 426.00 L 507.00 418.00 L 508.00 417.00 L 512.00 423.00 L 515.00 420.00 L 517.00 408.00 L 532.00 391.00 L 560.00 369.00 L 597.00 350.00 L 643.00 334.00 L 684.00 323.00 L 720.00 317.00 L 749.00 313.00 L 771.00 311.00 L 817.00 313.00 L 887.00 319.00 L 937.00 331.00 L 967.00 349.00 L 998.00 375.00 L 1030.00 409.00 L 1060.00 451.00 L 1088.00 501.00 L 1106.00 538.00 L 1114.00 562.00 L 1118.00 621.00 L 1118.00 715.00 L 1113.00 797.00 L 1103.00 867.00 L 1099.00 915.00 L 1101.00 941.00 L 1107.00 971.00 L 1117.00 1005.00 L 1121.00 1059.00 L 1119.00 1133.00 L 1128.00 1175.00 L 1148.00 1185.00 L 1159.00 1193.00 L 1161.00 1199.00 L 1161.00 1205.00 L 1159.00 1211.00 L 1150.00 1212.00 L 1134.00 1208.00 L 1129.00 1209.00 L 1135.00 1215.00 L 1135.00 1217.00 L 1129.00 1215.00 L 1132.00 1218.00 L 1144.00 1226.00 L 1144.00 1228.00 L 1132.00 1224.00 L 1133.00 1226.00 L 1147.00 1234.00 L 1148.00 1237.00 L 1136.00 1235.00 L 1134.00 1237.00 L 1142.00 1243.00 L 1144.00 1246.00 L 1140.00 1246.00 L 1138.00 1251.00 L 1138.00 1261.00 L 1143.00 1282.00 L 1153.00 1314.00 L 1158.00 1340.00 L 1158.00 1360.00 L 1155.00 1378.00 L 1149.00 1394.00 L 1139.00 1406.00 L 1125.00 1414.00 L 1115.00 1428.00 L 1109.00 1448.00 L 1102.00 1462.00 L 1094.00 1470.00 L 1080.00 1478.00 L 1060.00 1486.00 L 1010.00 1496.00 L 930.00 1508.00 L 853.00 1526.00 L 779.00 1550.00 L 700.00 1583.00 L 616.00 1625.00 L 535.00 1671.00 L 457.00 1721.00 L 415.00 1745.00 L 409.00 1743.00 L 402.00 1745.00 L 394.00 1751.00 L 388.00 1753.00 L 384.00 1751.00 L 378.00 1757.00 L 370.00 1771.00 L 368.00 1772.00 L 372.00 1760.00 L 370.00 1761.00 L 362.00 1775.00 L 359.00 1777.00 L 361.00 1767.00 L 358.00 1766.00 L 350.00 1774.00 L 343.00 1773.00 L 337.00 1763.00 L 333.00 1743.00 L 331.00 1713.00 L 335.00 1674.00 L 345.00 1626.00 L 364.00 1572.00 L 392.00 1512.00 L 403.00 1486.00 L 397.00 1494.00 L 415.00 1468.00 L 457.00 1408.00 L 461.00 1401.00 L 427.00 1447.00 L 428.00 1445.00 L 464.00 1395.00 L 467.00 1390.00 L 437.00 1430.00 L 436.00 1429.00 L 464.00 1387.00 L 477.00 1358.00 L 475.00 1342.00 L 483.00 1321.00 L 501.00 1295.00 L 504.00 1288.00 L 492.00 1300.00 L 490.00 1301.00 L 498.00 1291.00 L 494.00 1293.00 L 478.00 1307.00 L 458.00 1318.00 L 434.00 1326.00 L 424.00 1326.00 L 428.00 1318.00 L 444.00 1301.00 L 472.00 1275.00 L 470.00 1276.00 L 438.00 1304.00 L 436.00 1304.00 L 464.00 1276.00 L 468.00 1270.00 L 448.00 1286.00 L 449.00 1284.00 L 471.00 1264.00 L 477.00 1258.00 L 467.00 1266.00 L 470.00 1260.00 L 486.00 1240.00 L 490.00 1233.00 L 482.00 1239.00 L 484.00 1237.00 L 496.00 1227.00 L 498.00 1225.00 L 490.00 1231.00 L 490.00 1228.00 L 498.00 1216.00 L 499.00 1196.00 L 493.00 1168.00 L 494.00 1149.00 L 502.00 1139.00 L 495.00 1130.00 L 473.00 1122.00 L 457.00 1112.00 L 447.00 1100.00 L 440.00 1088.00 L 436.00 1076.00 L 433.00 1068.00 L 431.00 1064.00 L 419.00 1054.00 Z" fill="black" stroke="black" stroke-width="1"/>
</svg>