<?xml version="1.0" encoding="UTF-8"?>
<svg xmlns="http://www.w3.org/2000/svg" viewBox="309.00 310.00 902.00 1484.00">
  <path d="M 355.00 1066.00 L 357.00 1054.00 L 364.00 1039.00 L 376.00 1021.00 L 382.00 1010.00 L 382.00 1006.00 L 375.00 1000.00 L 361.00 992.00 L 362.00 989.00 L 378.00 991.00 L 376.00 988.00 L 356.00 980.00 L 357.00 978.00 L 379.00 982.00 L 378.00 980.00 L 354.00 972.00 L 344.00 929.00 L 348.00 851.00 L 345.00 789.00 L 335.00 743.00 L 331.00 693.00 L 333.00 639.00 L 341.00 590.00 L 355.00 546.00 L 375.00 508.00 L 401.00 476.00 L 416.00 455.00 L 420.00 445.00 L 446.00 421.00 L 494.00 383.00 L 534.00 357.00 L 566.00 343.00 L 602.00 332.00 L 642.00 324.00 L 702.00 320.00 L 782.00 320.00 L 833.00 323.00 L 855.00 329.00 L 875.00 338.00 L 893.00 350.00 L 916.00 361.00 L 944.00 371.00 L 966.00 386.00 L 982.00 406.00 L 993.00 423.00 L 999.00 437.00 L 1003.00 462.00 L 1005.00 498.00 L 1011.00 522.00 L 1021.00 534.00 L 1041.00 568.00 L 1071.00 624.00 L 1088.00 663.00 L 1092.00 685.00 L 1091.00 707.00 L 1085.00 729.00 L 1091.00 751.00 L 1109.00 773.00 L 1130.00 806.00 L 1154.00 850.00 L 1166.00 875.00 L 1166.00 881.00 L 1151.00 892.00 L 1121.00 908.00 L 1120.00 910.00 L 1148.00 898.00 L 1151.00 898.00 L 1129.00 910.00 L 1127.00 912.00 L 1145.00 904.00 L 1140.00 907.00 L 1112.00 921.00 L 1110.00 923.00 L 1134.00 913.00 L 1134.00 916.00 L 1110.00 932.00 L 1100.00 949.00 L 1104.00 967.00 L 1103.00 979.00 L 1097.00 985.00 L 1093.00 993.00 L 1091.00 1003.00 L 1084.00 1012.00 L 1072.00 1020.00 L 1075.00 1032.00 L 1093.00 1048.00 L 1104.00 1064.00 L 1108.00 1080.00 L 1108.00 1096.00 L 1104.00 1112.00 L 1098.00 1125.00 L 1090.00 1135.00 L 1068.00 1149.00 L 1032.00 1167.00 L 1019.00 1179.00 L 1029.00 1185.00 L 1028.00 1186.00 L 1016.00 1182.00 L 1018.00 1184.00 L 1034.00 1192.00 L 1032.00 1193.00 L 1012.00 1187.00 L 1013.00 1190.00 L 1035.00 1202.00 L 1031.00 1203.00 L 1001.00 1193.00 L 1000.00 1196.00 L 1028.00 1212.00 L 1039.00 1227.00 L 1033.00 1241.00 L 1032.00 1256.00 L 1036.00 1272.00 L 1056.00 1296.00 L 1092.00 1328.00 L 1091.00 1330.00 L 1053.00 1302.00 L 1052.00 1304.00 L 1088.00 1336.00 L 1085.00 1341.00 L 1043.00 1319.00 L 1022.00 1311.00 L 1022.00 1317.00 L 1050.00 1351.00 L 1106.00 1413.00 L 1105.00 1415.00 L 1047.00 1357.00 L 1052.00 1367.00 L 1120.00 1445.00 L 1120.00 1448.00 L 1052.00 1376.00 L 1053.00 1378.00 L 1123.00 1454.00 L 1162.00 1503.00 L 1170.00 1525.00 L 1170.00 1532.00 L 1162.00 1524.00 L 1165.00 1529.00 L 1179.00 1547.00 L 1178.00 1548.00 L 1162.00 1532.00 L 1161.00 1537.00 L 1175.00 1563.00 L 1179.00 1578.00 L 1173.00 1582.00 L 1172.00 1590.00 L 1176.00 1602.00 L 1174.00 1603.00 L 1166.00 1593.00 L 1168.00 1597.00 L 1180.00 1615.00 L 1190.00 1638.00 L 1198.00 1666.00 L 1201.00 1692.00 L 1199.00 1716.00 L 1193.00 1738.00 L 1183.00 1758.00 L 1174.00 1772.00 L 1166.00 1780.00 L 1158.00 1784.00 L 1150.00 1784.00 L 1102.00 1761.00 L 1014.00 1715.00 L 916.00 1670.00 L 808.00 1626.00 L 702.00 1588.00 L 598.00 1556.00 L 495.00 1528.00 L 393.00 1504.00 L 337.00 1485.00 L 327.00 1471.00 L 321.00 1455.00 L 319.00 1437.00 L 329.00 1384.00 L 351.00 1296.00 L 356.00 1234.00 L 344.00 1198.00 L 342.00 1156.00 L 350.00 1108.00 L 354.00 1081.00 L 354.00 1075.00 L 355.00 1066.00 Z" fill="black" stroke="black" stroke-width="1"/>
</svg>