<?xml version="1.0" encoding="UTF-8"?>
<svg xmlns="http://www.w3.org/2000/svg" viewBox="299.00 242.00 1022.00 1674.00">
  <path d="M 439.00 1069.00 L 453.00 1047.00 L 461.00 1030.00 L 463.00 1018.00 L 452.00 1009.00 L 428.00 1003.00 L 427.00 1001.00 L 449.00 1003.00 L 448.00 1001.00 L 424.00 995.00 L 411.00 987.00 L 409.00 977.00 L 402.00 964.00 L 390.00 948.00 L 379.00 926.00 L 369.00 898.00 L 359.00 875.00 L 349.00 857.00 L 336.00 817.00 L 320.00 755.00 L 311.00 695.00 L 309.00 637.00 L 322.00 571.00 L 350.00 497.00 L 375.00 445.00 L 397.00 415.00 L 418.00 389.00 L 438.00 367.00 L 460.00 348.00 L 484.00 332.00 L 509.00 318.00 L 535.00 306.00 L 556.00 299.00 L 572.00 297.00 L 591.00 292.00 L 613.00 284.00 L 639.00 277.00 L 669.00 271.00 L 689.00 266.00 L 699.00 262.00 L 705.00 258.00 L 707.00 254.00 L 725.00 252.00 L 759.00 252.00 L 807.00 255.00 L 869.00 261.00 L 909.00 267.00 L 927.00 273.00 L 957.00 285.00 L 999.00 303.00 L 1039.00 326.00 L 1077.00 354.00 L 1101.00 373.00 L 1111.00 383.00 L 1114.00 395.00 L 1110.00 409.00 L 1111.00 412.00 L 1117.00 404.00 L 1119.00 407.00 L 1117.00 421.00 L 1131.00 459.00 L 1161.00 521.00 L 1179.00 569.00 L 1185.00 603.00 L 1189.00 645.00 L 1191.00 695.00 L 1196.00 727.00 L 1204.00 741.00 L 1220.00 762.00 L 1244.00 790.00 L 1270.00 826.00 L 1298.00 870.00 L 1311.00 898.00 L 1309.00 910.00 L 1304.00 920.00 L 1296.00 928.00 L 1281.00 937.00 L 1259.00 947.00 L 1244.00 957.00 L 1236.00 967.00 L 1232.00 988.00 L 1232.00 1020.00 L 1228.00 1040.00 L 1220.00 1048.00 L 1219.00 1056.00 L 1225.00 1064.00 L 1221.00 1081.00 L 1207.00 1107.00 L 1202.00 1133.00 L 1206.00 1159.00 L 1205.00 1180.00 L 1199.00 1196.00 L 1186.00 1215.00 L 1166.00 1237.00 L 1148.00 1252.00 L 1132.00 1260.00 L 1117.00 1265.00 L 1103.00 1267.00 L 1103.00 1274.00 L 1117.00 1286.00 L 1116.00 1287.00 L 1100.00 1277.00 L 1100.00 1280.00 L 1116.00 1296.00 L 1112.00 1322.00 L 1088.00 1358.00 L 1084.00 1389.00 L 1100.00 1415.00 L 1099.00 1417.00 L 1081.00 1395.00 L 1085.00 1402.00 L 1111.00 1438.00 L 1110.00 1440.00 L 1082.00 1408.00 L 1082.00 1411.00 L 1110.00 1449.00 L 1127.00 1475.00 L 1133.00 1489.00 L 1120.00 1477.00 L 1088.00 1439.00 L 1086.00 1440.00 L 1114.00 1480.00 L 1118.00 1486.00 L 1098.00 1458.00 L 1096.00 1457.00 L 1112.00 1483.00 L 1106.00 1476.00 L 1078.00 1436.00 L 1074.00 1431.00 L 1094.00 1461.00 L 1094.00 1463.00 L 1074.00 1437.00 L 1062.00 1428.00 L 1058.00 1436.00 L 1068.00 1465.00 L 1092.00 1515.00 L 1088.00 1515.00 L 1056.00 1465.00 L 1056.00 1468.00 L 1088.00 1524.00 L 1089.00 1527.00 L 1059.00 1477.00 L 1073.00 1507.00 L 1131.00 1617.00 L 1128.00 1615.00 L 1064.00 1501.00 L 1064.00 1502.00 L 1128.00 1618.00 L 1165.00 1689.00 L 1175.00 1715.00 L 1182.00 1742.00 L 1186.00 1770.00 L 1187.00 1783.00 L 1185.00 1781.00 L 1185.00 1784.00 L 1187.00 1792.00 L 1187.00 1808.00 L 1185.00 1832.00 L 1180.00 1853.00 L 1172.00 1871.00 L 1161.00 1888.00 L 1147.00 1904.00 L 1130.00 1906.00 L 1110.00 1894.00 L 1093.00 1881.00 L 1079.00 1867.00 L 1064.00 1855.00 L 1048.00 1845.00 L 1026.00 1826.00 L 998.00 1798.00 L 981.00 1785.00 L 975.00 1787.00 L 969.00 1783.00 L 963.00 1773.00 L 960.00 1774.00 L 960.00 1786.00 L 958.00 1784.00 L 954.00 1768.00 L 953.00 1766.00 L 955.00 1778.00 L 953.00 1775.00 L 947.00 1757.00 L 944.00 1751.00 L 944.00 1757.00 L 941.00 1755.00 L 935.00 1745.00 L 924.00 1733.00 L 908.00 1719.00 L 878.00 1698.00 L 834.00 1670.00 L 763.00 1639.00 L 665.00 1605.00 L 568.00 1575.00 L 472.00 1549.00 L 410.00 1527.00 L 382.00 1509.00 L 364.00 1488.00 L 356.00 1464.00 L 353.00 1441.00 L 355.00 1419.00 L 364.00 1386.00 L 380.00 1342.00 L 391.00 1316.00 L 397.00 1308.00 L 398.00 1285.00 L 394.00 1247.00 L 398.00 1213.00 L 410.00 1183.00 L 419.00 1148.00 L 425.00 1108.00 L 429.00 1086.00 L 431.00 1082.00 L 439.00 1069.00 Z" fill="black" stroke="black" stroke-width="1"/>
</svg>