<?xml version="1.0" encoding="UTF-8"?>
<svg xmlns="http://www.w3.org/2000/svg" viewBox="260.00 196.00 1092.00 1642.00">
  <path d="M 446.00 1010.00 L 474.00 1010.00 L 470.00 1007.00 L 434.00 1001.00 L 433.00 998.00 L 467.00 998.00 L 468.00 997.00 L 436.00 995.00 L 430.00 974.00 L 450.00 934.00 L 417.00 831.00 L 331.00 665.00 L 282.00 557.00 L 270.00 507.00 L 333.00 440.00 L 471.00 356.00 L 623.00 280.00 L 789.00 212.00 L 893.00 206.00 L 935.00 262.00 L 999.00 377.00 L 1085.00 551.00 L 1141.00 640.00 L 1167.00 644.00 L 1163.00 666.00 L 1129.00 706.00 L 1133.00 706.00 L 1175.00 666.00 L 1175.00 669.00 L 1133.00 715.00 L 1137.00 716.00 L 1187.00 672.00 L 1187.00 675.00 L 1137.00 725.00 L 1140.00 725.00 L 1196.00 675.00 L 1195.00 678.00 L 1137.00 734.00 L 1140.00 734.00 L 1204.00 678.00 L 1203.00 682.00 L 1137.00 746.00 L 1140.00 746.00 L 1212.00 682.00 L 1211.00 685.00 L 1137.00 755.00 L 1140.00 756.00 L 1220.00 688.00 L 1241.00 672.00 L 1203.00 708.00 L 1208.00 708.00 L 1256.00 672.00 L 1235.00 692.00 L 1145.00 768.00 L 1148.00 768.00 L 1244.00 692.00 L 1272.00 671.00 L 1232.00 705.00 L 1234.00 705.00 L 1278.00 671.00 L 1280.00 671.00 L 1240.00 705.00 L 1246.00 705.00 L 1298.00 671.00 L 1269.00 696.00 L 1159.00 780.00 L 1162.00 780.00 L 1278.00 696.00 L 1279.00 698.00 L 1165.00 786.00 L 1168.00 789.00 L 1288.00 707.00 L 1335.00 676.00 L 1309.00 696.00 L 1309.00 699.00 L 1335.00 685.00 L 1342.00 683.00 L 1330.00 693.00 L 1272.00 733.00 L 1168.00 803.00 L 1136.00 866.00 L 1176.00 922.00 L 1181.00 959.00 L 1151.00 977.00 L 1139.00 1001.00 L 1145.00 1031.00 L 1142.00 1065.00 L 1130.00 1103.00 L 1125.00 1140.00 L 1127.00 1176.00 L 1107.00 1207.00 L 1065.00 1233.00 L 1048.00 1252.00 L 1056.00 1264.00 L 1054.00 1265.00 L 1042.00 1255.00 L 1041.00 1258.00 L 1051.00 1274.00 L 1053.00 1288.00 L 1047.00 1300.00 L 1071.00 1346.00 L 1125.00 1426.00 L 1123.00 1428.00 L 1065.00 1352.00 L 1062.00 1353.00 L 1114.00 1431.00 L 1114.00 1434.00 L 1062.00 1362.00 L 1057.00 1358.00 L 1099.00 1422.00 L 1103.00 1429.00 L 1069.00 1379.00 L 1067.00 1378.00 L 1097.00 1426.00 L 1095.00 1429.00 L 1061.00 1387.00 L 1076.00 1423.00 L 1140.00 1537.00 L 1143.00 1545.00 L 1085.00 1447.00 L 1086.00 1450.00 L 1146.00 1554.00 L 1144.00 1552.00 L 1080.00 1444.00 L 1081.00 1447.00 L 1147.00 1561.00 L 1149.00 1567.00 L 1087.00 1465.00 L 1088.00 1471.00 L 1152.00 1585.00 L 1148.00 1579.00 L 1076.00 1453.00 L 1077.00 1456.00 L 1151.00 1588.00 L 1161.00 1608.00 L 1107.00 1516.00 L 1108.00 1521.00 L 1164.00 1623.00 L 1155.00 1607.00 L 1081.00 1473.00 L 1081.00 1478.00 L 1155.00 1622.00 L 1151.00 1618.00 L 1069.00 1466.00 L 1069.00 1468.00 L 1151.00 1624.00 L 1192.00 1705.00 L 1192.00 1711.00 L 1151.00 1635.00 L 1069.00 1477.00 L 1069.00 1482.00 L 1151.00 1650.00 L 1149.00 1649.00 L 1063.00 1479.00 L 1062.00 1482.00 L 1146.00 1658.00 L 1180.00 1762.00 L 1164.00 1794.00 L 1149.00 1815.00 L 1135.00 1825.00 L 1121.00 1828.00 L 1107.00 1824.00 L 1014.00 1766.00 L 842.00 1654.00 L 685.00 1575.00 L 543.00 1529.00 L 464.00 1500.00 L 448.00 1488.00 L 434.00 1457.00 L 422.00 1407.00 L 431.00 1308.00 L 461.00 1160.00 L 459.00 1086.00 L 425.00 1086.00 L 426.00 1083.00 L 462.00 1077.00 L 462.00 1074.00 L 426.00 1074.00 L 426.00 1071.00 L 462.00 1065.00 L 463.00 1062.00 L 429.00 1062.00 L 433.00 1057.00 L 475.00 1047.00 L 477.00 1043.00 L 439.00 1045.00 L 440.00 1044.00 L 480.00 1040.00 L 481.00 1038.00 L 443.00 1038.00 L 443.00 1035.00 L 481.00 1029.00 L 486.00 1024.00 L 458.00 1020.00 L 441.00 1016.00 L 435.00 1012.00 L 446.00 1010.00 Z" fill="black" stroke="black" stroke-width="1"/>
</svg>