<?xml version="1.0" encoding="UTF-8"?>
<svg xmlns="http://www.w3.org/2000/svg" viewBox="211.00 174.00 1054.00 1626.00">
  <path d="M 321.00 966.00 L 331.00 942.00 L 356.00 906.00 L 396.00 858.00 L 363.00 804.00 L 257.00 744.00 L 257.00 741.00 L 363.00 795.00 L 364.00 792.00 L 260.00 732.00 L 221.00 707.00 L 247.00 717.00 L 249.00 715.00 L 227.00 701.00 L 265.00 722.00 L 363.00 778.00 L 365.00 777.00 L 271.00 719.00 L 240.00 697.00 L 272.00 711.00 L 274.00 709.00 L 246.00 691.00 L 278.00 710.00 L 370.00 766.00 L 372.00 765.00 L 284.00 707.00 L 259.00 688.00 L 297.00 708.00 L 300.00 707.00 L 268.00 685.00 L 292.00 701.00 L 372.00 755.00 L 375.00 754.00 L 301.00 698.00 L 301.00 696.00 L 375.00 748.00 L 378.00 747.00 L 310.00 693.00 L 311.00 690.00 L 381.00 738.00 L 384.00 737.00 L 320.00 687.00 L 308.00 676.00 L 348.00 704.00 L 351.00 703.00 L 317.00 673.00 L 329.00 681.00 L 387.00 727.00 L 390.00 726.00 L 338.00 678.00 L 339.00 676.00 L 393.00 720.00 L 396.00 720.00 L 348.00 676.00 L 348.00 673.00 L 396.00 711.00 L 399.00 711.00 L 357.00 673.00 L 359.00 671.00 L 405.00 705.00 L 411.00 705.00 L 377.00 671.00 L 376.00 669.00 L 408.00 699.00 L 411.00 698.00 L 385.00 666.00 L 385.00 648.00 L 411.00 644.00 L 464.00 569.00 L 544.00 423.00 L 612.00 310.00 L 668.00 230.00 L 706.00 188.00 L 726.00 184.00 L 766.00 192.00 L 826.00 212.00 L 897.00 245.00 L 979.00 291.00 L 1043.00 323.00 L 1089.00 341.00 L 1147.00 371.00 L 1217.00 413.00 L 1253.00 441.00 L 1255.00 455.00 L 1229.00 526.00 L 1175.00 654.00 L 1127.00 778.00 L 1085.00 898.00 L 1069.00 964.00 L 1079.00 976.00 L 1072.00 983.00 L 1048.00 985.00 L 1050.00 988.00 L 1078.00 992.00 L 1077.00 994.00 L 1047.00 994.00 L 1048.00 997.00 L 1080.00 1003.00 L 1076.00 1006.00 L 1036.00 1006.00 L 1038.00 1009.00 L 1082.00 1015.00 L 1082.00 1017.00 L 1038.00 1015.00 L 1040.00 1018.00 L 1088.00 1026.00 L 1088.00 1028.00 L 1040.00 1024.00 L 1041.00 1027.00 L 1091.00 1037.00 L 1093.00 1040.00 L 1047.00 1036.00 L 1049.00 1039.00 L 1099.00 1049.00 L 1100.00 1051.00 L 1052.00 1045.00 L 1054.00 1049.00 L 1106.00 1063.00 L 1106.00 1065.00 L 1054.00 1055.00 L 1055.00 1058.00 L 1109.00 1074.00 L 1110.00 1078.00 L 1058.00 1070.00 L 1060.00 1074.00 L 1116.00 1090.00 L 1133.00 1096.00 L 1111.00 1092.00 L 1112.00 1095.00 L 1136.00 1105.00 L 1119.00 1103.00 L 1061.00 1089.00 L 1062.00 1093.00 L 1122.00 1115.00 L 1122.00 1117.00 L 1062.00 1099.00 L 1060.00 1102.00 L 1116.00 1126.00 L 1117.00 1130.00 L 1063.00 1114.00 L 1041.00 1134.00 L 1051.00 1190.00 L 1054.00 1225.00 L 1050.00 1239.00 L 1054.00 1267.00 L 1066.00 1309.00 L 1069.00 1349.00 L 1063.00 1387.00 L 1047.00 1415.00 L 1021.00 1433.00 L 961.00 1454.00 L 867.00 1478.00 L 774.00 1511.00 L 682.00 1553.00 L 634.00 1580.00 L 630.00 1592.00 L 624.00 1601.00 L 616.00 1607.00 L 611.00 1607.00 L 609.00 1601.00 L 607.00 1603.00 L 605.00 1613.00 L 603.00 1613.00 L 601.00 1603.00 L 532.00 1646.00 L 396.00 1742.00 L 325.00 1790.00 L 319.00 1790.00 L 313.00 1785.00 L 307.00 1775.00 L 306.00 1738.00 L 310.00 1674.00 L 319.00 1627.00 L 333.00 1597.00 L 338.00 1585.00 L 334.00 1591.00 L 329.00 1586.00 L 323.00 1570.00 L 321.00 1555.00 L 323.00 1541.00 L 355.00 1485.00 L 417.00 1387.00 L 420.00 1377.00 L 364.00 1455.00 L 360.00 1460.00 L 408.00 1392.00 L 408.00 1390.00 L 360.00 1454.00 L 364.00 1445.00 L 420.00 1363.00 L 425.00 1352.00 L 379.00 1412.00 L 370.00 1423.00 L 398.00 1385.00 L 398.00 1382.00 L 370.00 1414.00 L 380.00 1394.00 L 428.00 1322.00 L 439.00 1298.00 L 413.00 1322.00 L 412.00 1320.00 L 436.00 1292.00 L 435.00 1293.00 L 409.00 1323.00 L 394.00 1339.00 L 390.00 1341.00 L 395.00 1333.00 L 409.00 1315.00 L 404.00 1317.00 L 380.00 1339.00 L 390.00 1324.00 L 434.00 1272.00 L 433.00 1270.00 L 387.00 1318.00 L 385.00 1317.00 L 427.00 1267.00 L 440.00 1233.00 L 424.00 1215.00 L 418.00 1196.00 L 422.00 1176.00 L 416.00 1154.00 L 400.00 1130.00 L 393.00 1112.00 L 395.00 1100.00 L 391.00 1076.00 L 381.00 1040.00 L 366.00 1020.00 L 346.00 1016.00 L 331.00 1007.00 L 321.00 993.00 L 316.00 984.00 L 316.00 980.00 L 321.00 966.00 Z" fill="black" stroke="black" stroke-width="1"/>
</svg>