<?xml version="1.0" encoding="UTF-8"?>
<svg xmlns="http://www.w3.org/2000/svg" viewBox="344.00 237.00 878.00 1615.00">
  <path d="M 438.00 976.00 L 430.00 908.00 L 414.00 844.00 L 390.00 784.00 L 372.00 728.00 L 360.00 676.00 L 354.00 626.00 L 354.00 578.00 L 356.00 545.00 L 360.00 527.00 L 369.00 501.00 L 383.00 467.00 L 402.00 432.00 L 426.00 396.00 L 454.00 363.00 L 486.00 333.00 L 520.00 307.00 L 556.00 285.00 L 594.00 267.00 L 634.00 253.00 L 689.00 247.00 L 759.00 249.00 L 806.00 254.00 L 830.00 262.00 L 856.00 267.00 L 884.00 269.00 L 917.00 279.00 L 955.00 297.00 L 985.00 316.00 L 1007.00 336.00 L 1029.00 364.00 L 1051.00 400.00 L 1061.00 428.00 L 1059.00 448.00 L 1062.00 451.00 L 1070.00 437.00 L 1071.00 438.00 L 1065.00 454.00 L 1066.00 456.00 L 1074.00 444.00 L 1076.00 445.00 L 1072.00 459.00 L 1073.00 462.00 L 1079.00 454.00 L 1079.00 457.00 L 1073.00 471.00 L 1074.00 473.00 L 1082.00 463.00 L 1083.00 465.00 L 1077.00 479.00 L 1078.00 482.00 L 1086.00 474.00 L 1087.00 476.00 L 1081.00 488.00 L 1081.00 490.00 L 1087.00 482.00 L 1088.00 485.00 L 1084.00 499.00 L 1085.00 501.00 L 1091.00 491.00 L 1095.00 488.00 L 1097.00 492.00 L 1095.00 500.00 L 1089.00 512.00 L 1088.00 515.00 L 1092.00 509.00 L 1093.00 512.00 L 1091.00 524.00 L 1094.00 524.00 L 1102.00 512.00 L 1103.00 515.00 L 1097.00 533.00 L 1098.00 536.00 L 1106.00 524.00 L 1107.00 529.00 L 1101.00 551.00 L 1101.00 558.00 L 1107.00 550.00 L 1108.00 552.00 L 1104.00 564.00 L 1109.00 590.00 L 1123.00 630.00 L 1127.00 663.00 L 1121.00 689.00 L 1125.00 710.00 L 1139.00 726.00 L 1163.00 762.00 L 1197.00 818.00 L 1212.00 851.00 L 1208.00 861.00 L 1195.00 871.00 L 1173.00 881.00 L 1171.00 883.00 L 1189.00 877.00 L 1187.00 879.00 L 1165.00 889.00 L 1154.00 909.00 L 1154.00 939.00 L 1150.00 959.00 L 1142.00 969.00 L 1141.00 980.00 L 1147.00 992.00 L 1141.00 1009.00 L 1123.00 1031.00 L 1117.00 1051.00 L 1123.00 1069.00 L 1125.00 1089.00 L 1123.00 1111.00 L 1113.00 1133.00 L 1095.00 1155.00 L 1079.00 1170.00 L 1065.00 1178.00 L 1047.00 1184.00 L 1025.00 1188.00 L 1018.00 1196.00 L 1026.00 1208.00 L 1026.00 1225.00 L 1018.00 1247.00 L 1030.00 1279.00 L 1062.00 1321.00 L 1061.00 1324.00 L 1027.00 1288.00 L 1026.00 1290.00 L 1058.00 1330.00 L 1062.00 1339.00 L 1038.00 1317.00 L 1036.00 1319.00 L 1056.00 1345.00 L 1051.00 1339.00 L 1021.00 1301.00 L 1018.00 1301.00 L 1042.00 1339.00 L 1041.00 1341.00 L 1015.00 1307.00 L 1012.00 1308.00 L 1032.00 1344.00 L 1034.00 1358.00 L 1018.00 1350.00 L 1006.00 1347.00 L 998.00 1349.00 L 1003.00 1369.00 L 1021.00 1407.00 L 1020.00 1409.00 L 1000.00 1375.00 L 1015.00 1405.00 L 1065.00 1499.00 L 1091.00 1548.00 L 1093.00 1552.00 L 1078.00 1525.00 L 1046.00 1467.00 L 1050.00 1478.00 L 1090.00 1558.00 L 1079.00 1540.00 L 1017.00 1424.00 L 1022.00 1437.00 L 1094.00 1579.00 L 1104.00 1601.00 L 1052.00 1503.00 L 1053.00 1508.00 L 1107.00 1616.00 L 1135.00 1687.00 L 1137.00 1721.00 L 1129.00 1764.00 L 1111.00 1816.00 L 1097.00 1842.00 L 1087.00 1842.00 L 1073.00 1837.00 L 1055.00 1827.00 L 1013.00 1797.00 L 947.00 1747.00 L 881.00 1702.00 L 815.00 1662.00 L 736.00 1622.00 L 644.00 1582.00 L 552.00 1547.00 L 460.00 1517.00 L 412.00 1499.00 L 408.00 1493.00 L 406.00 1474.00 L 406.00 1442.00 L 415.00 1390.00 L 433.00 1318.00 L 439.00 1276.00 L 433.00 1264.00 L 430.00 1246.00 L 430.00 1222.00 L 435.00 1184.00 L 445.00 1132.00 L 453.00 1097.00 L 459.00 1079.00 L 467.00 1063.00 L 477.00 1049.00 L 478.00 1041.00 L 470.00 1039.00 L 470.00 1037.00 L 478.00 1035.00 L 476.00 1034.00 L 464.00 1034.00 L 455.00 1030.00 L 449.00 1022.00 L 445.00 1016.00 L 443.00 1012.00 L 438.00 976.00 Z" fill="black" stroke="black" stroke-width="1"/>
</svg>