<?xml version="1.0" encoding="UTF-8"?>
<svg xmlns="http://www.w3.org/2000/svg" viewBox="341.00 239.00 950.00 1627.00">
  <path d="M 437.00 1014.00 L 443.00 958.00 L 431.00 891.00 L 401.00 813.00 L 382.00 752.00 L 374.00 708.00 L 370.00 670.00 L 370.00 638.00 L 374.00 603.00 L 382.00 565.00 L 396.00 525.00 L 416.00 483.00 L 436.00 448.00 L 456.00 420.00 L 483.00 390.00 L 517.00 358.00 L 536.00 338.00 L 540.00 330.00 L 572.00 309.00 L 632.00 275.00 L 706.00 255.00 L 794.00 249.00 L 861.00 251.00 L 907.00 261.00 L 932.00 269.00 L 936.00 275.00 L 946.00 280.00 L 962.00 284.00 L 983.00 293.00 L 1009.00 307.00 L 1039.00 328.00 L 1073.00 356.00 L 1099.00 382.00 L 1117.00 406.00 L 1124.00 425.00 L 1120.00 439.00 L 1121.00 442.00 L 1127.00 434.00 L 1128.00 437.00 L 1124.00 451.00 L 1124.00 462.00 L 1128.00 470.00 L 1131.00 473.00 L 1133.00 471.00 L 1134.00 473.00 L 1134.00 479.00 L 1137.00 478.00 L 1143.00 470.00 L 1149.00 470.00 L 1155.00 478.00 L 1157.00 488.00 L 1155.00 500.00 L 1161.00 525.00 L 1175.00 563.00 L 1185.00 608.00 L 1191.00 660.00 L 1190.00 692.00 L 1182.00 704.00 L 1183.00 707.00 L 1193.00 701.00 L 1192.00 705.00 L 1180.00 719.00 L 1176.00 729.00 L 1180.00 735.00 L 1180.00 743.00 L 1176.00 753.00 L 1201.00 800.00 L 1255.00 884.00 L 1281.00 931.00 L 1279.00 941.00 L 1273.00 951.00 L 1263.00 961.00 L 1247.00 970.00 L 1225.00 978.00 L 1217.00 1002.00 L 1223.00 1042.00 L 1220.00 1066.00 L 1208.00 1074.00 L 1204.00 1086.00 L 1208.00 1102.00 L 1198.00 1125.00 L 1174.00 1155.00 L 1162.00 1182.00 L 1162.00 1206.00 L 1160.00 1224.00 L 1156.00 1236.00 L 1148.00 1248.00 L 1136.00 1260.00 L 1120.00 1271.00 L 1100.00 1281.00 L 1094.00 1291.00 L 1102.00 1301.00 L 1100.00 1301.00 L 1088.00 1291.00 L 1088.00 1293.00 L 1100.00 1307.00 L 1095.00 1325.00 L 1073.00 1347.00 L 1065.00 1364.00 L 1071.00 1376.00 L 1069.00 1377.00 L 1059.00 1367.00 L 1060.00 1371.00 L 1072.00 1389.00 L 1072.00 1391.00 L 1060.00 1377.00 L 1059.00 1379.00 L 1069.00 1397.00 L 1067.00 1397.00 L 1053.00 1379.00 L 1050.00 1381.00 L 1058.00 1403.00 L 1055.00 1411.00 L 1041.00 1405.00 L 1028.00 1403.00 L 1016.00 1405.00 L 1030.00 1443.00 L 1070.00 1517.00 L 1070.00 1519.00 L 1030.00 1449.00 L 1039.00 1471.00 L 1097.00 1585.00 L 1102.00 1597.00 L 1054.00 1507.00 L 1057.00 1513.00 L 1111.00 1615.00 L 1107.00 1608.00 L 1045.00 1492.00 L 1046.00 1495.00 L 1110.00 1617.00 L 1108.00 1615.00 L 1040.00 1489.00 L 1041.00 1495.00 L 1111.00 1633.00 L 1146.00 1704.00 L 1146.00 1708.00 L 1116.00 1652.00 L 1056.00 1536.00 L 1055.00 1538.00 L 1113.00 1658.00 L 1112.00 1660.00 L 1052.00 1544.00 L 1050.00 1546.00 L 1106.00 1666.00 L 1113.00 1760.00 L 1071.00 1828.00 L 1037.00 1856.00 L 1011.00 1844.00 L 997.00 1835.00 L 995.00 1829.00 L 993.00 1828.00 L 991.00 1832.00 L 989.00 1831.00 L 987.00 1825.00 L 975.00 1814.00 L 953.00 1798.00 L 914.00 1775.00 L 858.00 1745.00 L 776.00 1710.00 L 668.00 1670.00 L 573.00 1641.00 L 491.00 1623.00 L 437.00 1607.00 L 411.00 1593.00 L 390.00 1578.00 L 374.00 1562.00 L 363.00 1548.00 L 357.00 1536.00 L 353.00 1517.00 L 351.00 1491.00 L 355.00 1461.00 L 365.00 1427.00 L 380.00 1387.00 L 400.00 1341.00 L 408.00 1308.00 L 404.00 1288.00 L 407.00 1259.00 L 417.00 1221.00 L 433.00 1178.00 L 455.00 1130.00 L 466.00 1100.00 L 466.00 1088.00 L 462.00 1081.00 L 454.00 1079.00 L 455.00 1077.00 L 465.00 1075.00 L 463.00 1073.00 L 449.00 1071.00 L 449.00 1069.00 L 463.00 1067.00 L 462.00 1065.00 L 446.00 1063.00 L 437.00 1059.00 L 435.00 1053.00 L 434.00 1048.00 L 434.00 1044.00 L 437.00 1014.00 Z" fill="black" stroke="black" stroke-width="1"/>
</svg>