<?xml version="1.0" encoding="UTF-8"?>
<svg xmlns="http://www.w3.org/2000/svg" viewBox="338.00 326.00 973.00 1479.00">
  <path d="M 628.00 1012.00 L 600.00 992.00 L 564.00 945.00 L 520.00 871.00 L 466.00 816.00 L 402.00 780.00 L 401.00 777.00 L 463.00 807.00 L 461.00 804.00 L 395.00 768.00 L 395.00 766.00 L 461.00 798.00 L 459.00 793.00 L 389.00 751.00 L 388.00 748.00 L 456.00 784.00 L 456.00 782.00 L 388.00 742.00 L 352.00 714.00 L 348.00 698.00 L 352.00 667.00 L 364.00 621.00 L 396.00 568.00 L 448.00 508.00 L 493.00 465.00 L 531.00 439.00 L 574.00 420.00 L 622.00 408.00 L 667.00 384.00 L 709.00 348.00 L 738.00 336.00 L 754.00 348.00 L 792.00 351.00 L 852.00 345.00 L 883.00 355.00 L 885.00 381.00 L 888.00 382.00 L 892.00 358.00 L 896.00 358.00 L 900.00 382.00 L 902.00 382.00 L 902.00 358.00 L 905.00 358.00 L 911.00 382.00 L 914.00 384.00 L 914.00 364.00 L 917.00 365.00 L 923.00 387.00 L 927.00 393.00 L 929.00 383.00 L 932.00 384.00 L 936.00 396.00 L 991.00 421.00 L 1097.00 459.00 L 1148.00 487.00 L 1144.00 505.00 L 1146.00 507.00 L 1154.00 493.00 L 1155.00 493.00 L 1149.00 507.00 L 1151.00 509.00 L 1161.00 499.00 L 1166.00 504.00 L 1166.00 524.00 L 1172.00 529.00 L 1184.00 519.00 L 1188.00 524.00 L 1184.00 544.00 L 1186.00 548.00 L 1194.00 536.00 L 1196.00 539.00 L 1192.00 557.00 L 1195.00 562.00 L 1205.00 554.00 L 1206.00 557.00 L 1198.00 571.00 L 1199.00 573.00 L 1209.00 563.00 L 1211.00 567.00 L 1205.00 585.00 L 1207.00 590.00 L 1217.00 582.00 L 1219.00 590.00 L 1213.00 614.00 L 1215.00 623.00 L 1225.00 617.00 L 1226.00 621.00 L 1218.00 635.00 L 1219.00 638.00 L 1229.00 630.00 L 1230.00 635.00 L 1222.00 653.00 L 1223.00 658.00 L 1233.00 650.00 L 1233.00 653.00 L 1223.00 667.00 L 1215.00 695.00 L 1209.00 737.00 L 1227.00 797.00 L 1269.00 875.00 L 1274.00 924.00 L 1242.00 944.00 L 1227.00 968.00 L 1229.00 996.00 L 1221.00 1032.00 L 1203.00 1076.00 L 1193.00 1113.00 L 1191.00 1143.00 L 1183.00 1164.00 L 1169.00 1176.00 L 1134.00 1185.00 L 1078.00 1191.00 L 1044.00 1199.00 L 1032.00 1209.00 L 1099.00 1348.00 L 1245.00 1616.00 L 1244.00 1618.00 L 1096.00 1354.00 L 1097.00 1363.00 L 1247.00 1645.00 L 1247.00 1647.00 L 1097.00 1369.00 L 1097.00 1370.00 L 1247.00 1650.00 L 1301.00 1754.00 L 1259.00 1682.00 L 1257.00 1687.00 L 1295.00 1769.00 L 1290.00 1766.00 L 1242.00 1678.00 L 1241.00 1680.00 L 1287.00 1772.00 L 1285.00 1771.00 L 1235.00 1677.00 L 1234.00 1679.00 L 1282.00 1777.00 L 1234.00 1680.00 L 1090.00 1388.00 L 1089.00 1390.00 L 1231.00 1686.00 L 1273.00 1780.00 L 1215.00 1672.00 L 1213.00 1677.00 L 1267.00 1795.00 L 1224.00 1703.00 L 1084.00 1401.00 L 1082.00 1404.00 L 1218.00 1712.00 L 1218.00 1714.00 L 1082.00 1410.00 L 1079.00 1407.00 L 1209.00 1705.00 L 1245.00 1792.00 L 1187.00 1668.00 L 1181.00 1664.00 L 1227.00 1780.00 L 1225.00 1779.00 L 1175.00 1661.00 L 1173.00 1659.00 L 1219.00 1773.00 L 1217.00 1772.00 L 1167.00 1656.00 L 1164.00 1654.00 L 1208.00 1766.00 L 1175.00 1684.00 L 1065.00 1408.00 L 1063.00 1406.00 L 1169.00 1678.00 L 1169.00 1679.00 L 1063.00 1409.00 L 1061.00 1408.00 L 1163.00 1676.00 L 1162.00 1678.00 L 1058.00 1414.00 L 1052.00 1409.00 L 1144.00 1663.00 L 1144.00 1665.00 L 1052.00 1415.00 L 1048.00 1412.00 L 1132.00 1656.00 L 1132.00 1659.00 L 1048.00 1421.00 L 1044.00 1419.00 L 1120.00 1653.00 L 1119.00 1655.00 L 1041.00 1425.00 L 1036.00 1421.00 L 1104.00 1643.00 L 1122.00 1704.00 L 1090.00 1604.00 L 1086.00 1601.00 L 1110.00 1695.00 L 1091.00 1637.00 L 1029.00 1427.00 L 1027.00 1425.00 L 1085.00 1631.00 L 1085.00 1633.00 L 1027.00 1431.00 L 1023.00 1428.00 L 1073.00 1624.00 L 1072.00 1628.00 L 1020.00 1440.00 L 1017.00 1439.00 L 1063.00 1625.00 L 1063.00 1627.00 L 1017.00 1445.00 L 1016.00 1444.00 L 1060.00 1624.00 L 1059.00 1626.00 L 1013.00 1450.00 L 1009.00 1448.00 L 1047.00 1620.00 L 1047.00 1622.00 L 1009.00 1454.00 L 1007.00 1452.00 L 1041.00 1616.00 L 1041.00 1619.00 L 1007.00 1461.00 L 1005.00 1460.00 L 1035.00 1616.00 L 1035.00 1622.00 L 1005.00 1478.00 L 1002.00 1476.00 L 1026.00 1616.00 L 984.00 1658.00 L 876.00 1602.00 L 767.00 1554.00 L 657.00 1514.00 L 601.00 1469.00 L 599.00 1419.00 L 613.00 1329.00 L 643.00 1199.00 L 655.00 1109.00 L 649.00 1059.00 L 645.00 1031.00 L 643.00 1025.00 L 628.00 1012.00 Z" fill="black" stroke="black" stroke-width="1"/>
</svg>