<?xml version="1.0" encoding="UTF-8"?>
<svg xmlns="http://www.w3.org/2000/svg" viewBox="210.00 176.00 1000.00 1602.00">
  <path d="M 433.00 945.00 L 339.00 831.00 L 268.00 740.00 L 220.00 672.00 L 220.00 605.00 L 268.00 539.00 L 328.00 469.00 L 400.00 395.00 L 467.00 332.00 L 529.00 280.00 L 585.00 237.00 L 635.00 203.00 L 665.00 186.00 L 675.00 186.00 L 704.00 205.00 L 752.00 243.00 L 837.00 341.00 L 959.00 499.00 L 1036.00 581.00 L 1068.00 587.00 L 1075.00 604.00 L 1057.00 632.00 L 1059.00 632.00 L 1081.00 604.00 L 1081.00 606.00 L 1059.00 638.00 L 1061.00 639.00 L 1087.00 609.00 L 1090.00 609.00 L 1070.00 639.00 L 1072.00 639.00 L 1096.00 609.00 L 1095.00 612.00 L 1069.00 648.00 L 1073.00 649.00 L 1107.00 615.00 L 1108.00 618.00 L 1076.00 658.00 L 1066.00 673.00 L 1078.00 663.00 L 1079.00 665.00 L 1069.00 679.00 L 1082.00 665.00 L 1118.00 623.00 L 1117.00 626.00 L 1079.00 674.00 L 1081.00 674.00 L 1123.00 626.00 L 1129.00 621.00 L 1099.00 659.00 L 1103.00 660.00 L 1141.00 624.00 L 1138.00 631.00 L 1094.00 681.00 L 1097.00 682.00 L 1147.00 634.00 L 1148.00 637.00 L 1100.00 691.00 L 1103.00 691.00 L 1157.00 637.00 L 1186.00 611.00 L 1190.00 613.00 L 1164.00 643.00 L 1108.00 701.00 L 1110.00 702.00 L 1170.00 646.00 L 1194.00 625.00 L 1182.00 639.00 L 1184.00 640.00 L 1200.00 628.00 L 1177.00 651.00 L 1115.00 709.00 L 1117.00 710.00 L 1183.00 654.00 L 1184.00 657.00 L 1120.00 719.00 L 1121.00 722.00 L 1187.00 666.00 L 1188.00 669.00 L 1124.00 731.00 L 1090.00 773.00 L 1086.00 795.00 L 1107.00 834.00 L 1153.00 890.00 L 1162.00 931.00 L 1134.00 957.00 L 1120.00 981.00 L 1120.00 1003.00 L 1117.00 1017.00 L 1111.00 1023.00 L 1106.00 1039.00 L 1102.00 1065.00 L 1105.00 1085.00 L 1115.00 1099.00 L 1121.00 1117.00 L 1123.00 1139.00 L 1119.00 1155.00 L 1109.00 1165.00 L 1095.00 1172.00 L 1077.00 1176.00 L 1058.00 1189.00 L 1038.00 1211.00 L 1034.00 1231.00 L 1046.00 1249.00 L 1045.00 1266.00 L 1031.00 1282.00 L 1027.00 1296.00 L 1033.00 1308.00 L 1031.00 1309.00 L 1021.00 1299.00 L 1022.00 1302.00 L 1034.00 1318.00 L 1032.00 1320.00 L 1016.00 1308.00 L 1026.00 1330.00 L 1062.00 1386.00 L 1062.00 1390.00 L 1026.00 1342.00 L 1023.00 1343.00 L 1053.00 1393.00 L 1051.00 1394.00 L 1017.00 1346.00 L 1038.00 1389.00 L 1114.00 1523.00 L 1123.00 1544.00 L 1065.00 1452.00 L 1066.00 1458.00 L 1126.00 1562.00 L 1124.00 1561.00 L 1060.00 1455.00 L 1068.00 1473.00 L 1148.00 1615.00 L 1143.00 1610.00 L 1053.00 1458.00 L 1053.00 1461.00 L 1143.00 1619.00 L 1189.00 1701.00 L 1191.00 1707.00 L 1151.00 1639.00 L 1069.00 1497.00 L 1068.00 1499.00 L 1148.00 1645.00 L 1142.00 1636.00 L 1050.00 1472.00 L 1049.00 1476.00 L 1139.00 1648.00 L 1180.00 1741.00 L 1172.00 1755.00 L 1163.00 1764.00 L 1153.00 1768.00 L 1133.00 1768.00 L 1103.00 1764.00 L 1072.00 1755.00 L 1040.00 1741.00 L 981.00 1706.00 L 895.00 1650.00 L 825.00 1611.00 L 771.00 1589.00 L 699.00 1568.00 L 609.00 1548.00 L 548.00 1532.00 L 516.00 1520.00 L 491.00 1506.00 L 473.00 1490.00 L 465.00 1449.00 L 467.00 1383.00 L 465.00 1344.00 L 459.00 1332.00 L 458.00 1291.00 L 462.00 1221.00 L 469.00 1179.00 L 479.00 1165.00 L 464.00 1167.00 L 424.00 1185.00 L 410.00 1191.00 L 422.00 1185.00 L 420.00 1185.00 L 404.00 1191.00 L 411.00 1186.00 L 441.00 1170.00 L 436.00 1171.00 L 396.00 1189.00 L 402.00 1186.00 L 454.00 1162.00 L 456.00 1161.00 L 408.00 1183.00 L 405.00 1184.00 L 447.00 1164.00 L 443.00 1164.00 L 393.00 1184.00 L 368.00 1190.00 L 368.00 1182.00 L 400.00 1148.00 L 464.00 1088.00 L 494.00 1047.00 L 490.00 1025.00 L 486.00 1011.00 L 482.00 1005.00 L 433.00 945.00 Z" fill="black" stroke="black" stroke-width="1"/>
</svg>