<?xml version="1.0" encoding="UTF-8"?>
<svg xmlns="http://www.w3.org/2000/svg" viewBox="318.00 239.00 991.00 1545.00">
  <path d="M 408.00 1015.00 L 404.00 989.00 L 392.00 971.00 L 372.00 961.00 L 364.00 956.00 L 368.00 956.00 L 364.00 949.00 L 352.00 935.00 L 373.00 895.00 L 427.00 829.00 L 452.00 785.00 L 448.00 763.00 L 448.00 740.00 L 452.00 716.00 L 432.00 675.00 L 388.00 617.00 L 389.00 615.00 L 435.00 669.00 L 437.00 667.00 L 395.00 609.00 L 379.00 585.00 L 389.00 595.00 L 391.00 594.00 L 385.00 582.00 L 403.00 603.00 L 445.00 657.00 L 448.00 655.00 L 412.00 597.00 L 414.00 594.00 L 454.00 646.00 L 456.00 646.00 L 420.00 594.00 L 421.00 592.00 L 459.00 640.00 L 462.00 639.00 L 430.00 589.00 L 431.00 587.00 L 465.00 633.00 L 467.00 633.00 L 437.00 587.00 L 432.00 575.00 L 452.00 597.00 L 456.00 597.00 L 444.00 575.00 L 451.00 584.00 L 477.00 624.00 L 479.00 624.00 L 457.00 584.00 L 459.00 582.00 L 485.00 618.00 L 487.00 617.00 L 465.00 579.00 L 466.00 577.00 L 490.00 611.00 L 495.00 612.00 L 481.00 580.00 L 489.00 564.00 L 519.00 564.00 L 544.00 560.00 L 564.00 552.00 L 653.00 473.00 L 811.00 323.00 L 903.00 249.00 L 929.00 251.00 L 962.00 269.00 L 1002.00 303.00 L 1075.00 375.00 L 1181.00 485.00 L 1251.00 565.00 L 1285.00 615.00 L 1299.00 650.00 L 1293.00 670.00 L 1230.00 750.00 L 1110.00 890.00 L 1047.00 965.00 L 1041.00 975.00 L 1041.00 989.00 L 1047.00 1007.00 L 1039.00 1019.00 L 1017.00 1025.00 L 1019.00 1030.00 L 1045.00 1034.00 L 1044.00 1036.00 L 1016.00 1036.00 L 1006.00 1037.00 L 1014.00 1039.00 L 1014.00 1041.00 L 1006.00 1043.00 L 1017.00 1045.00 L 1047.00 1047.00 L 1047.00 1049.00 L 1017.00 1051.00 L 1018.00 1054.00 L 1050.00 1058.00 L 1050.00 1061.00 L 1018.00 1063.00 L 1019.00 1068.00 L 1053.00 1076.00 L 1048.00 1078.00 L 1004.00 1074.00 L 1004.00 1076.00 L 1048.00 1084.00 L 1046.00 1085.00 L 998.00 1079.00 L 999.00 1081.00 L 1049.00 1091.00 L 1049.00 1093.00 L 999.00 1087.00 L 997.00 1089.00 L 1043.00 1099.00 L 1044.00 1101.00 L 1000.00 1095.00 L 998.00 1097.00 L 1038.00 1107.00 L 1039.00 1110.00 L 1001.00 1106.00 L 987.00 1130.00 L 997.00 1182.00 L 999.00 1233.00 L 993.00 1283.00 L 996.00 1329.00 L 1008.00 1371.00 L 1012.00 1411.00 L 1008.00 1449.00 L 1001.00 1476.00 L 991.00 1492.00 L 976.00 1506.00 L 956.00 1518.00 L 921.00 1529.00 L 871.00 1539.00 L 792.00 1562.00 L 684.00 1598.00 L 591.00 1636.00 L 513.00 1676.00 L 448.00 1714.00 L 396.00 1750.00 L 362.00 1770.00 L 346.00 1774.00 L 335.00 1768.00 L 329.00 1752.00 L 328.00 1723.00 L 332.00 1681.00 L 364.00 1611.00 L 424.00 1513.00 L 424.00 1511.00 L 364.00 1605.00 L 364.00 1603.00 L 424.00 1505.00 L 427.00 1498.00 L 373.00 1582.00 L 380.00 1565.00 L 448.00 1447.00 L 474.00 1399.00 L 458.00 1421.00 L 458.00 1419.00 L 474.00 1393.00 L 478.00 1375.00 L 470.00 1365.00 L 468.00 1355.00 L 472.00 1345.00 L 457.00 1353.00 L 423.00 1379.00 L 421.00 1367.00 L 451.00 1317.00 L 459.00 1296.00 L 445.00 1304.00 L 444.00 1302.00 L 456.00 1290.00 L 456.00 1288.00 L 444.00 1296.00 L 443.00 1294.00 L 453.00 1282.00 L 452.00 1263.00 L 440.00 1237.00 L 441.00 1219.00 L 455.00 1209.00 L 458.00 1206.00 L 450.00 1210.00 L 448.00 1209.00 L 452.00 1203.00 L 444.00 1192.00 L 424.00 1176.00 L 413.00 1161.00 L 411.00 1147.00 L 414.00 1128.00 L 422.00 1104.00 L 421.00 1083.00 L 411.00 1065.00 L 409.00 1052.00 L 415.00 1044.00 L 416.00 1037.00 L 412.00 1031.00 L 408.00 1015.00 Z" fill="black" stroke="black" stroke-width="1"/>
</svg>