<?xml version="1.0" encoding="UTF-8"?>
<svg xmlns="http://www.w3.org/2000/svg" viewBox="329.00 230.00 910.00 1429.00">
  <path d="M 424.00 962.00 L 428.00 946.00 L 440.00 934.00 L 460.00 926.00 L 471.00 917.00 L 473.00 907.00 L 469.00 898.00 L 459.00 890.00 L 459.00 887.00 L 469.00 889.00 L 467.00 884.00 L 453.00 872.00 L 445.00 851.00 L 443.00 821.00 L 439.00 795.00 L 433.00 773.00 L 413.00 733.00 L 379.00 675.00 L 358.00 636.00 L 350.00 616.00 L 344.00 593.00 L 340.00 567.00 L 339.00 533.00 L 341.00 491.00 L 351.00 447.00 L 369.00 401.00 L 384.00 370.00 L 396.00 354.00 L 414.00 335.00 L 438.00 313.00 L 462.00 295.00 L 486.00 281.00 L 511.00 269.00 L 537.00 259.00 L 575.00 250.00 L 625.00 242.00 L 685.00 240.00 L 755.00 244.00 L 807.00 250.00 L 841.00 258.00 L 881.00 273.00 L 927.00 295.00 L 964.00 316.00 L 992.00 336.00 L 1020.00 360.00 L 1048.00 388.00 L 1074.00 422.00 L 1098.00 462.00 L 1111.00 485.00 L 1113.00 491.00 L 1111.00 501.00 L 1105.00 515.00 L 1105.00 518.00 L 1111.00 510.00 L 1112.00 512.00 L 1108.00 524.00 L 1109.00 526.00 L 1115.00 518.00 L 1115.00 519.00 L 1109.00 529.00 L 1109.00 532.00 L 1115.00 528.00 L 1116.00 531.00 L 1112.00 541.00 L 1112.00 556.00 L 1116.00 576.00 L 1117.00 604.00 L 1115.00 640.00 L 1122.00 673.00 L 1138.00 703.00 L 1156.00 728.00 L 1176.00 748.00 L 1188.00 766.00 L 1192.00 782.00 L 1180.00 799.00 L 1152.00 817.00 L 1139.00 840.00 L 1141.00 868.00 L 1139.00 886.00 L 1133.00 894.00 L 1131.00 905.00 L 1133.00 919.00 L 1128.00 933.00 L 1116.00 947.00 L 1110.00 973.00 L 1110.00 1011.00 L 1103.00 1037.00 L 1089.00 1051.00 L 1068.00 1061.00 L 1040.00 1067.00 L 1023.00 1073.00 L 1017.00 1079.00 L 1018.00 1087.00 L 1026.00 1097.00 L 1023.00 1111.00 L 1009.00 1129.00 L 1009.00 1145.00 L 1023.00 1159.00 L 1022.00 1160.00 L 1006.00 1148.00 L 1008.00 1151.00 L 1028.00 1169.00 L 1028.00 1171.00 L 1008.00 1157.00 L 1007.00 1159.00 L 1025.00 1177.00 L 1033.00 1188.00 L 1031.00 1192.00 L 1020.00 1185.00 L 1000.00 1167.00 L 1022.00 1192.00 L 1086.00 1260.00 L 1086.00 1263.00 L 1022.00 1201.00 L 1021.00 1203.00 L 1083.00 1269.00 L 1090.00 1277.00 L 1042.00 1227.00 L 1039.00 1226.00 L 1081.00 1274.00 L 1072.00 1266.00 L 1012.00 1202.00 L 1008.00 1200.00 L 1060.00 1260.00 L 1060.00 1261.00 L 1008.00 1203.00 L 1005.00 1203.00 L 1051.00 1261.00 L 1070.00 1286.00 L 1062.00 1278.00 L 1054.00 1274.00 L 1046.00 1274.00 L 1034.00 1265.00 L 1018.00 1247.00 L 1045.00 1283.00 L 1115.00 1373.00 L 1116.00 1375.00 L 1048.00 1289.00 L 1050.00 1294.00 L 1122.00 1390.00 L 1119.00 1387.00 L 1041.00 1285.00 L 1042.00 1289.00 L 1122.00 1399.00 L 1120.00 1398.00 L 1036.00 1286.00 L 1047.00 1305.00 L 1153.00 1455.00 L 1156.00 1461.00 L 1056.00 1323.00 L 1057.00 1325.00 L 1159.00 1467.00 L 1176.00 1491.00 L 1108.00 1397.00 L 1109.00 1399.00 L 1179.00 1497.00 L 1163.00 1475.00 L 1061.00 1333.00 L 1062.00 1335.00 L 1166.00 1481.00 L 1170.00 1487.00 L 1074.00 1353.00 L 1075.00 1355.00 L 1173.00 1493.00 L 1172.00 1492.00 L 1072.00 1352.00 L 1073.00 1354.00 L 1175.00 1498.00 L 1188.00 1517.00 L 1112.00 1411.00 L 1112.00 1414.00 L 1188.00 1526.00 L 1227.00 1588.00 L 1229.00 1600.00 L 1228.00 1611.00 L 1224.00 1621.00 L 1215.00 1631.00 L 1201.00 1641.00 L 1187.00 1647.00 L 1173.00 1649.00 L 1150.00 1644.00 L 1118.00 1632.00 L 1084.00 1615.00 L 1048.00 1593.00 L 979.00 1558.00 L 877.00 1510.00 L 796.00 1476.00 L 736.00 1456.00 L 671.00 1438.00 L 601.00 1422.00 L 547.00 1412.00 L 509.00 1408.00 L 467.00 1399.00 L 421.00 1385.00 L 392.00 1372.00 L 380.00 1360.00 L 371.00 1343.00 L 365.00 1321.00 L 373.00 1277.00 L 395.00 1211.00 L 406.00 1167.00 L 406.00 1145.00 L 403.00 1126.00 L 397.00 1110.00 L 401.00 1072.00 L 415.00 1012.00 L 422.00 979.00 L 422.00 973.00 L 424.00 962.00 Z" fill="black" stroke="black" stroke-width="1"/>
</svg>