<?xml version="1.0" encoding="UTF-8"?>
<svg xmlns="http://www.w3.org/2000/svg" viewBox="242.00 209.00 897.00 1486.00">
  <path d="M 335.00 935.00 L 345.00 893.00 L 327.00 817.00 L 281.00 707.00 L 256.00 627.00 L 252.00 577.00 L 252.00 535.00 L 256.00 501.00 L 267.00 456.00 L 285.00 400.00 L 306.00 357.00 L 330.00 327.00 L 358.00 301.00 L 390.00 279.00 L 433.00 258.00 L 487.00 238.00 L 550.00 225.00 L 622.00 219.00 L 694.00 225.00 L 766.00 243.00 L 832.00 271.00 L 892.00 309.00 L 938.00 346.00 L 970.00 382.00 L 985.00 409.00 L 983.00 427.00 L 985.00 430.00 L 991.00 418.00 L 991.00 421.00 L 985.00 439.00 L 986.00 441.00 L 994.00 427.00 L 995.00 428.00 L 989.00 444.00 L 991.00 447.00 L 1001.00 437.00 L 1002.00 440.00 L 994.00 456.00 L 995.00 457.00 L 1005.00 443.00 L 1007.00 447.00 L 1001.00 469.00 L 1004.00 474.00 L 1016.00 462.00 L 1017.00 465.00 L 1007.00 483.00 L 1008.00 486.00 L 1020.00 474.00 L 1022.00 480.00 L 1014.00 504.00 L 1016.00 507.00 L 1028.00 489.00 L 1029.00 491.00 L 1019.00 513.00 L 1020.00 516.00 L 1032.00 500.00 L 1032.00 503.00 L 1020.00 525.00 L 1021.00 528.00 L 1035.00 512.00 L 1036.00 517.00 L 1024.00 543.00 L 1025.00 546.00 L 1039.00 526.00 L 1044.00 522.00 L 1040.00 534.00 L 1041.00 537.00 L 1047.00 531.00 L 1043.00 538.00 L 1029.00 558.00 L 1027.00 564.00 L 1037.00 556.00 L 1037.00 559.00 L 1027.00 573.00 L 1030.00 571.00 L 1046.00 553.00 L 1046.00 556.00 L 1030.00 580.00 L 1030.00 583.00 L 1046.00 565.00 L 1046.00 567.00 L 1030.00 589.00 L 1030.00 591.00 L 1046.00 573.00 L 1044.00 582.00 L 1024.00 618.00 L 1016.00 643.00 L 1020.00 657.00 L 1047.00 694.00 L 1097.00 754.00 L 1118.00 795.00 L 1110.00 817.00 L 1096.00 833.00 L 1076.00 843.00 L 1069.00 847.00 L 1075.00 845.00 L 1073.00 849.00 L 1063.00 859.00 L 1058.00 878.00 L 1058.00 906.00 L 1049.00 939.00 L 1031.00 977.00 L 1026.00 1007.00 L 1034.00 1029.00 L 1034.00 1054.00 L 1026.00 1082.00 L 1002.00 1104.00 L 962.00 1120.00 L 948.00 1135.00 L 960.00 1149.00 L 958.00 1149.00 L 942.00 1135.00 L 942.00 1137.00 L 958.00 1155.00 L 960.00 1170.00 L 948.00 1182.00 L 946.00 1196.00 L 954.00 1212.00 L 953.00 1215.00 L 943.00 1205.00 L 943.00 1208.00 L 953.00 1224.00 L 953.00 1227.00 L 943.00 1217.00 L 963.00 1250.00 L 1013.00 1326.00 L 1010.00 1326.00 L 954.00 1250.00 L 953.00 1249.00 L 1007.00 1323.00 L 1008.00 1325.00 L 956.00 1255.00 L 955.00 1258.00 L 1005.00 1334.00 L 1003.00 1335.00 L 949.00 1261.00 L 946.00 1261.00 L 994.00 1335.00 L 1000.00 1347.00 L 964.00 1297.00 L 987.00 1340.00 L 1069.00 1476.00 L 1081.00 1499.00 L 1023.00 1409.00 L 1031.00 1423.00 L 1105.00 1541.00 L 1126.00 1575.00 L 1094.00 1525.00 L 1095.00 1528.00 L 1129.00 1584.00 L 1105.00 1547.00 L 1023.00 1417.00 L 1024.00 1420.00 L 1108.00 1556.00 L 1102.00 1547.00 L 1006.00 1393.00 L 1007.00 1397.00 L 1105.00 1559.00 L 1102.00 1556.00 L 998.00 1388.00 L 997.00 1391.00 L 1099.00 1565.00 L 1097.00 1564.00 L 991.00 1388.00 L 990.00 1390.00 L 1094.00 1570.00 L 1091.00 1568.00 L 981.00 1384.00 L 979.00 1387.00 L 1085.00 1577.00 L 1082.00 1575.00 L 970.00 1381.00 L 966.00 1384.00 L 1070.00 1584.00 L 1070.00 1586.00 L 966.00 1390.00 L 963.00 1391.00 L 1061.00 1589.00 L 1087.00 1685.00 L 1041.00 1679.00 L 953.00 1642.00 L 823.00 1574.00 L 715.00 1525.00 L 629.00 1495.00 L 546.00 1471.00 L 466.00 1453.00 L 407.00 1436.00 L 369.00 1420.00 L 342.00 1403.00 L 326.00 1385.00 L 317.00 1366.00 L 315.00 1346.00 L 323.00 1306.00 L 341.00 1246.00 L 347.00 1208.00 L 341.00 1192.00 L 338.00 1150.00 L 338.00 1082.00 L 342.00 1040.00 L 350.00 1024.00 L 344.00 1017.00 L 324.00 1019.00 L 327.00 1017.00 L 353.00 1011.00 L 350.00 1009.00 L 318.00 1011.00 L 318.00 1009.00 L 350.00 1003.00 L 350.00 1001.00 L 318.00 1003.00 L 318.00 1001.00 L 350.00 995.00 L 351.00 992.00 L 321.00 992.00 L 311.00 985.00 L 321.00 971.00 L 327.00 962.00 L 329.00 958.00 L 335.00 935.00 Z" fill="black" stroke="black" stroke-width="1"/>
</svg>