<?xml version="1.0" encoding="UTF-8"?>
<svg xmlns="http://www.w3.org/2000/svg" viewBox="309.00 186.00 978.00 1510.00">
  <path d="M 489.00 945.00 L 487.00 935.00 L 480.00 923.00 L 468.00 909.00 L 464.00 898.00 L 468.00 890.00 L 465.00 882.00 L 455.00 874.00 L 449.00 857.00 L 447.00 831.00 L 436.00 812.00 L 416.00 800.00 L 403.00 791.00 L 397.00 785.00 L 393.00 777.00 L 391.00 767.00 L 399.00 746.00 L 417.00 714.00 L 442.00 679.00 L 474.00 641.00 L 491.00 617.00 L 493.00 607.00 L 492.00 592.00 L 488.00 572.00 L 497.00 532.00 L 519.00 472.00 L 526.00 433.00 L 518.00 415.00 L 519.00 413.00 L 529.00 427.00 L 531.00 425.00 L 525.00 407.00 L 526.00 404.00 L 534.00 416.00 L 535.00 414.00 L 529.00 398.00 L 530.00 397.00 L 538.00 411.00 L 538.00 408.00 L 530.00 388.00 L 531.00 387.00 L 541.00 405.00 L 542.00 402.00 L 534.00 378.00 L 536.00 375.00 L 548.00 393.00 L 550.00 391.00 L 542.00 369.00 L 542.00 364.00 L 550.00 376.00 L 551.00 374.00 L 545.00 358.00 L 547.00 360.00 L 557.00 380.00 L 559.00 379.00 L 553.00 357.00 L 554.00 356.00 L 562.00 376.00 L 567.00 383.00 L 569.00 377.00 L 567.00 365.00 L 561.00 347.00 L 562.00 336.00 L 570.00 332.00 L 581.00 319.00 L 595.00 297.00 L 621.00 274.00 L 659.00 250.00 L 702.00 230.00 L 750.00 214.00 L 784.00 207.00 L 804.00 209.00 L 826.00 206.00 L 850.00 198.00 L 872.00 196.00 L 892.00 200.00 L 909.00 200.00 L 923.00 196.00 L 943.00 199.00 L 969.00 209.00 L 991.00 214.00 L 1009.00 214.00 L 1027.00 219.00 L 1045.00 229.00 L 1061.00 235.00 L 1075.00 237.00 L 1091.00 243.00 L 1109.00 253.00 L 1132.00 270.00 L 1160.00 294.00 L 1186.00 324.00 L 1210.00 360.00 L 1230.00 399.00 L 1246.00 441.00 L 1259.00 483.00 L 1269.00 525.00 L 1275.00 566.00 L 1277.00 606.00 L 1275.00 649.00 L 1269.00 695.00 L 1260.00 736.00 L 1248.00 772.00 L 1221.00 826.00 L 1179.00 898.00 L 1154.00 953.00 L 1146.00 991.00 L 1134.00 1009.00 L 1118.00 1007.00 L 1116.00 1009.00 L 1128.00 1015.00 L 1127.00 1017.00 L 1113.00 1015.00 L 1110.00 1015.00 L 1118.00 1017.00 L 1119.00 1019.00 L 1113.00 1021.00 L 1113.00 1026.00 L 1119.00 1034.00 L 1123.00 1048.00 L 1125.00 1068.00 L 1125.00 1107.00 L 1123.00 1165.00 L 1119.00 1201.00 L 1113.00 1215.00 L 1120.00 1273.00 L 1140.00 1375.00 L 1149.00 1438.00 L 1147.00 1462.00 L 1138.00 1484.00 L 1122.00 1504.00 L 1064.00 1516.00 L 964.00 1520.00 L 885.00 1526.00 L 827.00 1534.00 L 743.00 1553.00 L 633.00 1583.00 L 561.00 1605.00 L 527.00 1619.00 L 509.00 1628.00 L 507.00 1632.00 L 504.00 1633.00 L 500.00 1631.00 L 482.00 1636.00 L 450.00 1648.00 L 430.00 1659.00 L 422.00 1669.00 L 411.00 1677.00 L 397.00 1683.00 L 382.00 1686.00 L 366.00 1686.00 L 354.00 1684.00 L 346.00 1680.00 L 337.00 1670.00 L 327.00 1654.00 L 321.00 1640.00 L 319.00 1628.00 L 320.00 1611.00 L 324.00 1589.00 L 387.00 1494.00 L 509.00 1326.00 L 510.00 1323.00 L 390.00 1485.00 L 392.00 1482.00 L 516.00 1314.00 L 516.00 1313.00 L 392.00 1479.00 L 370.00 1508.00 L 450.00 1400.00 L 452.00 1396.00 L 376.00 1496.00 L 399.00 1464.00 L 521.00 1300.00 L 532.00 1283.00 L 432.00 1413.00 L 434.00 1410.00 L 538.00 1274.00 L 539.00 1271.00 L 437.00 1401.00 L 438.00 1399.00 L 542.00 1265.00 L 543.00 1262.00 L 441.00 1390.00 L 441.00 1388.00 L 543.00 1256.00 L 576.00 1212.00 L 540.00 1256.00 L 539.00 1255.00 L 573.00 1209.00 L 591.00 1180.00 L 593.00 1168.00 L 591.00 1158.00 L 585.00 1150.00 L 582.00 1142.00 L 582.00 1134.00 L 577.00 1124.00 L 567.00 1112.00 L 562.00 1103.00 L 562.00 1097.00 L 568.00 1089.00 L 580.00 1079.00 L 581.00 1077.00 L 571.00 1083.00 L 569.00 1084.00 L 575.00 1080.00 L 577.00 1076.00 L 575.00 1072.00 L 566.00 1067.00 L 550.00 1061.00 L 529.00 1048.00 L 503.00 1028.00 L 488.00 1013.00 L 484.00 1003.00 L 483.00 988.00 L 485.00 968.00 L 487.00 956.00 L 489.00 952.00 L 489.00 945.00 Z" fill="black" stroke="black" stroke-width="1"/>
</svg>