<?xml version="1.0" encoding="UTF-8"?>
<svg xmlns="http://www.w3.org/2000/svg" viewBox="361.00 320.00 794.00 1241.00">
  <path d="M 463.00 973.00 L 465.00 963.00 L 463.00 956.00 L 457.00 952.00 L 460.00 949.00 L 472.00 947.00 L 470.00 945.00 L 454.00 943.00 L 451.00 941.00 L 461.00 939.00 L 461.00 937.00 L 451.00 935.00 L 456.00 934.00 L 476.00 934.00 L 476.00 932.00 L 456.00 928.00 L 456.00 927.00 L 476.00 929.00 L 477.00 927.00 L 459.00 921.00 L 456.00 904.00 L 468.00 876.00 L 474.00 853.00 L 474.00 835.00 L 462.00 800.00 L 438.00 748.00 L 422.00 704.00 L 414.00 668.00 L 410.00 626.00 L 410.00 578.00 L 413.00 540.00 L 419.00 512.00 L 432.00 479.00 L 452.00 441.00 L 473.00 412.00 L 495.00 392.00 L 521.00 375.00 L 551.00 361.00 L 600.00 348.00 L 668.00 336.00 L 721.00 330.00 L 759.00 330.00 L 793.00 333.00 L 823.00 339.00 L 867.00 356.00 L 925.00 384.00 L 961.00 405.00 L 975.00 419.00 L 983.00 431.00 L 985.00 441.00 L 988.00 444.00 L 992.00 440.00 L 993.00 443.00 L 991.00 453.00 L 999.00 473.00 L 1017.00 503.00 L 1027.00 525.00 L 1029.00 539.00 L 1036.00 559.00 L 1048.00 585.00 L 1053.00 615.00 L 1051.00 649.00 L 1069.00 697.00 L 1107.00 759.00 L 1126.00 793.00 L 1126.00 799.00 L 1116.00 810.00 L 1096.00 826.00 L 1096.00 829.00 L 1116.00 819.00 L 1115.00 821.00 L 1093.00 835.00 L 1089.00 839.00 L 1103.00 833.00 L 1103.00 836.00 L 1089.00 848.00 L 1083.00 867.00 L 1085.00 893.00 L 1083.00 908.00 L 1077.00 912.00 L 1078.00 918.00 L 1086.00 926.00 L 1090.00 933.00 L 1090.00 939.00 L 1084.00 953.00 L 1072.00 975.00 L 1069.00 997.00 L 1075.00 1019.00 L 1071.00 1040.00 L 1057.00 1060.00 L 1036.00 1072.00 L 1008.00 1076.00 L 998.00 1083.00 L 1006.00 1093.00 L 1003.00 1106.00 L 989.00 1122.00 L 987.00 1136.00 L 997.00 1148.00 L 996.00 1149.00 L 984.00 1139.00 L 986.00 1143.00 L 1002.00 1161.00 L 1002.00 1163.00 L 986.00 1149.00 L 985.00 1150.00 L 999.00 1166.00 L 998.00 1168.00 L 982.00 1156.00 L 998.00 1175.00 L 1046.00 1225.00 L 1045.00 1226.00 L 995.00 1178.00 L 994.00 1180.00 L 1042.00 1232.00 L 1046.00 1239.00 L 1006.00 1201.00 L 997.00 1194.00 L 1019.00 1218.00 L 1020.00 1220.00 L 1000.00 1200.00 L 998.00 1199.00 L 1014.00 1217.00 L 1016.00 1225.00 L 1004.00 1223.00 L 989.00 1213.00 L 971.00 1195.00 L 992.00 1228.00 L 1052.00 1312.00 L 1051.00 1314.00 L 989.00 1234.00 L 995.00 1243.00 L 1069.00 1341.00 L 1096.00 1377.00 L 1076.00 1351.00 L 1078.00 1354.00 L 1102.00 1386.00 L 1100.00 1384.00 L 1072.00 1348.00 L 1073.00 1350.00 L 1103.00 1390.00 L 1102.00 1389.00 L 1070.00 1347.00 L 1071.00 1349.00 L 1105.00 1395.00 L 1092.00 1379.00 L 1032.00 1301.00 L 1033.00 1304.00 L 1095.00 1388.00 L 1094.00 1387.00 L 1030.00 1301.00 L 1032.00 1305.00 L 1100.00 1399.00 L 1090.00 1386.00 L 1002.00 1266.00 L 1003.00 1268.00 L 1093.00 1392.00 L 1099.00 1401.00 L 1021.00 1295.00 L 1022.00 1300.00 L 1102.00 1416.00 L 1096.00 1409.00 L 1004.00 1279.00 L 1004.00 1280.00 L 1096.00 1412.00 L 1143.00 1482.00 L 1145.00 1490.00 L 1101.00 1429.00 L 1011.00 1299.00 L 1011.00 1302.00 L 1101.00 1438.00 L 1098.00 1435.00 L 1002.00 1293.00 L 1002.00 1295.00 L 1098.00 1441.00 L 1099.00 1443.00 L 1005.00 1301.00 L 1004.00 1303.00 L 1096.00 1449.00 L 1139.00 1527.00 L 1133.00 1537.00 L 1126.00 1545.00 L 1118.00 1551.00 L 1103.00 1551.00 L 1081.00 1545.00 L 1059.00 1537.00 L 1037.00 1527.00 L 1021.00 1516.00 L 1011.00 1504.00 L 998.00 1494.00 L 982.00 1486.00 L 936.00 1465.00 L 860.00 1431.00 L 801.00 1407.00 L 759.00 1393.00 L 709.00 1378.00 L 651.00 1362.00 L 578.00 1347.00 L 490.00 1333.00 L 444.00 1325.00 L 440.00 1323.00 L 439.00 1321.00 L 441.00 1319.00 L 439.00 1319.00 L 433.00 1321.00 L 420.00 1316.00 L 400.00 1304.00 L 385.00 1288.00 L 375.00 1268.00 L 371.00 1249.00 L 373.00 1231.00 L 389.00 1198.00 L 419.00 1150.00 L 433.00 1118.00 L 431.00 1102.00 L 437.00 1067.00 L 451.00 1013.00 L 459.00 984.00 L 461.00 980.00 L 463.00 973.00 Z" fill="black" stroke="black" stroke-width="1"/>
</svg>