<?xml version="1.0" encoding="UTF-8"?>
<svg xmlns="http://www.w3.org/2000/svg" viewBox="346.00 217.00 877.00 1321.00">
  <path d="M 563.00 778.00 L 525.00 722.00 L 478.00 683.00 L 422.00 661.00 L 421.00 659.00 L 475.00 677.00 L 469.00 673.00 L 403.00 647.00 L 402.00 645.00 L 466.00 667.00 L 463.00 663.00 L 393.00 633.00 L 393.00 631.00 L 463.00 657.00 L 462.00 654.00 L 390.00 622.00 L 388.00 618.00 L 456.00 642.00 L 455.00 637.00 L 385.00 603.00 L 356.00 549.00 L 368.00 475.00 L 418.00 393.00 L 506.00 303.00 L 558.00 261.00 L 574.00 267.00 L 608.00 257.00 L 660.00 231.00 L 690.00 231.00 L 698.00 257.00 L 699.00 257.00 L 693.00 231.00 L 694.00 231.00 L 702.00 257.00 L 704.00 257.00 L 700.00 231.00 L 702.00 231.00 L 710.00 257.00 L 711.00 256.00 L 705.00 228.00 L 707.00 227.00 L 717.00 253.00 L 719.00 253.00 L 713.00 227.00 L 715.00 227.00 L 725.00 253.00 L 729.00 254.00 L 727.00 230.00 L 729.00 230.00 L 735.00 254.00 L 737.00 255.00 L 735.00 233.00 L 737.00 233.00 L 743.00 255.00 L 745.00 256.00 L 743.00 236.00 L 745.00 236.00 L 751.00 256.00 L 753.00 260.00 L 751.00 248.00 L 753.00 248.00 L 759.00 260.00 L 791.00 268.00 L 849.00 272.00 L 896.00 281.00 L 932.00 295.00 L 980.00 319.00 L 1040.00 353.00 L 1074.00 382.00 L 1082.00 406.00 L 1089.00 414.00 L 1095.00 406.00 L 1096.00 408.00 L 1092.00 420.00 L 1094.00 422.00 L 1102.00 414.00 L 1104.00 419.00 L 1100.00 437.00 L 1103.00 440.00 L 1113.00 428.00 L 1114.00 434.00 L 1106.00 458.00 L 1108.00 465.00 L 1120.00 455.00 L 1121.00 457.00 L 1111.00 471.00 L 1112.00 472.00 L 1124.00 460.00 L 1124.00 462.00 L 1112.00 478.00 L 1112.00 480.00 L 1124.00 468.00 L 1124.00 470.00 L 1112.00 486.00 L 1112.00 489.00 L 1124.00 479.00 L 1125.00 481.00 L 1115.00 495.00 L 1118.00 495.00 L 1134.00 481.00 L 1134.00 488.00 L 1118.00 516.00 L 1121.00 521.00 L 1143.00 503.00 L 1143.00 506.00 L 1121.00 530.00 L 1121.00 532.00 L 1143.00 512.00 L 1143.00 515.00 L 1121.00 541.00 L 1121.00 545.00 L 1143.00 527.00 L 1142.00 532.00 L 1118.00 560.00 L 1119.00 562.00 L 1145.00 538.00 L 1145.00 540.00 L 1119.00 568.00 L 1120.00 571.00 L 1148.00 549.00 L 1148.00 552.00 L 1120.00 580.00 L 1106.00 602.00 L 1106.00 618.00 L 1125.00 661.00 L 1163.00 731.00 L 1179.00 771.00 L 1173.00 781.00 L 1160.00 788.00 L 1140.00 792.00 L 1136.00 794.00 L 1148.00 794.00 L 1148.00 796.00 L 1136.00 800.00 L 1133.00 814.00 L 1139.00 838.00 L 1137.00 854.00 L 1127.00 862.00 L 1124.00 873.00 L 1128.00 887.00 L 1120.00 915.00 L 1100.00 957.00 L 1064.00 993.00 L 1012.00 1023.00 L 1046.00 1148.00 L 1166.00 1368.00 L 1164.00 1368.00 L 1040.00 1148.00 L 1040.00 1150.00 L 1164.00 1374.00 L 1213.00 1465.00 L 1187.00 1423.00 L 1187.00 1427.00 L 1213.00 1477.00 L 1210.00 1475.00 L 1178.00 1421.00 L 1177.00 1423.00 L 1207.00 1481.00 L 1205.00 1479.00 L 1171.00 1417.00 L 1171.00 1420.00 L 1205.00 1488.00 L 1202.00 1486.00 L 1162.00 1414.00 L 1161.00 1416.00 L 1199.00 1492.00 L 1155.00 1407.00 L 1029.00 1161.00 L 1027.00 1167.00 L 1149.00 1425.00 L 1148.00 1426.00 L 1024.00 1170.00 L 1022.00 1173.00 L 1142.00 1435.00 L 1176.00 1511.00 L 1124.00 1401.00 L 1123.00 1404.00 L 1173.00 1520.00 L 1170.00 1518.00 L 1114.00 1398.00 L 1114.00 1401.00 L 1170.00 1527.00 L 1138.00 1456.00 L 1018.00 1188.00 L 1017.00 1190.00 L 1135.00 1462.00 L 1162.00 1528.00 L 1098.00 1388.00 L 1094.00 1387.00 L 1150.00 1525.00 L 1123.00 1462.00 L 1013.00 1198.00 L 1010.00 1195.00 L 1114.00 1453.00 L 1114.00 1456.00 L 1010.00 1204.00 L 1007.00 1202.00 L 1105.00 1450.00 L 1105.00 1453.00 L 1007.00 1211.00 L 1001.00 1205.00 L 1087.00 1435.00 L 1087.00 1437.00 L 1001.00 1211.00 L 998.00 1208.00 L 1078.00 1428.00 L 1079.00 1433.00 L 1001.00 1223.00 L 998.00 1221.00 L 1070.00 1427.00 L 1070.00 1429.00 L 998.00 1227.00 L 996.00 1225.00 L 1064.00 1423.00 L 1065.00 1428.00 L 999.00 1240.00 L 997.00 1238.00 L 1059.00 1422.00 L 1060.00 1426.00 L 1000.00 1250.00 L 997.00 1248.00 L 1051.00 1420.00 L 1018.00 1465.00 L 898.00 1383.00 L 768.00 1312.00 L 628.00 1252.00 L 560.00 1197.00 L 564.00 1147.00 L 581.00 1075.00 L 611.00 981.00 L 625.00 916.00 L 623.00 880.00 L 613.00 850.00 L 595.00 826.00 L 585.00 812.00 L 583.00 808.00 L 563.00 778.00 Z" fill="black" stroke="black" stroke-width="1"/>
</svg>