<?xml version="1.0" encoding="UTF-8"?>
<svg xmlns="http://www.w3.org/2000/svg" viewBox="284.00 217.00 894.00 1478.00">
  <path d="M 407.00 917.00 L 409.00 907.00 L 405.00 899.00 L 395.00 893.00 L 397.00 889.00 L 411.00 887.00 L 410.00 884.00 L 394.00 880.00 L 385.00 876.00 L 383.00 872.00 L 392.00 871.00 L 412.00 873.00 L 411.00 870.00 L 389.00 862.00 L 376.00 847.00 L 372.00 825.00 L 365.00 808.00 L 355.00 796.00 L 342.00 770.00 L 326.00 730.00 L 312.00 685.00 L 300.00 635.00 L 294.00 583.00 L 294.00 529.00 L 300.00 478.00 L 312.00 430.00 L 327.00 392.00 L 345.00 364.00 L 370.00 336.00 L 402.00 308.00 L 433.00 286.00 L 463.00 270.00 L 518.00 253.00 L 598.00 235.00 L 659.00 227.00 L 701.00 229.00 L 731.00 233.00 L 749.00 239.00 L 766.00 241.00 L 782.00 239.00 L 797.00 240.00 L 811.00 244.00 L 830.00 251.00 L 854.00 261.00 L 879.00 275.00 L 905.00 293.00 L 917.00 309.00 L 915.00 323.00 L 915.00 331.00 L 917.00 333.00 L 921.00 329.00 L 927.00 319.00 L 930.00 321.00 L 930.00 335.00 L 932.00 337.00 L 936.00 327.00 L 938.00 326.00 L 938.00 334.00 L 940.00 335.00 L 944.00 329.00 L 945.00 333.00 L 943.00 347.00 L 946.00 348.00 L 954.00 336.00 L 957.00 338.00 L 955.00 354.00 L 957.00 356.00 L 963.00 344.00 L 965.00 347.00 L 963.00 365.00 L 965.00 368.00 L 971.00 356.00 L 973.00 357.00 L 971.00 371.00 L 973.00 373.00 L 979.00 363.00 L 981.00 366.00 L 979.00 382.00 L 981.00 384.00 L 987.00 372.00 L 989.00 370.00 L 987.00 378.00 L 988.00 379.00 L 992.00 373.00 L 992.00 377.00 L 988.00 391.00 L 990.00 393.00 L 998.00 383.00 L 1000.00 386.00 L 996.00 402.00 L 998.00 404.00 L 1006.00 392.00 L 1007.00 395.00 L 1001.00 413.00 L 1002.00 416.00 L 1010.00 404.00 L 1011.00 406.00 L 1005.00 422.00 L 1006.00 423.00 L 1014.00 409.00 L 1015.00 410.00 L 1009.00 426.00 L 1010.00 429.00 L 1018.00 419.00 L 1019.00 422.00 L 1013.00 438.00 L 1023.00 473.00 L 1049.00 527.00 L 1059.00 568.00 L 1053.00 596.00 L 1051.00 614.00 L 1053.00 622.00 L 1081.00 652.00 L 1135.00 704.00 L 1164.00 735.00 L 1168.00 745.00 L 1168.00 755.00 L 1164.00 765.00 L 1152.00 775.00 L 1132.00 785.00 L 1130.00 787.00 L 1146.00 781.00 L 1143.00 784.00 L 1121.00 796.00 L 1110.00 816.00 L 1110.00 844.00 L 1108.00 860.00 L 1104.00 864.00 L 1104.00 871.00 L 1108.00 881.00 L 1106.00 896.00 L 1098.00 916.00 L 1099.00 938.00 L 1109.00 962.00 L 1114.00 979.00 L 1114.00 989.00 L 1110.00 1000.00 L 1102.00 1012.00 L 1092.00 1021.00 L 1080.00 1027.00 L 1077.00 1032.00 L 1083.00 1036.00 L 1082.00 1037.00 L 1074.00 1035.00 L 1075.00 1038.00 L 1085.00 1046.00 L 1090.00 1052.00 L 1090.00 1056.00 L 1071.00 1084.00 L 1033.00 1136.00 L 1020.00 1169.00 L 1032.00 1183.00 L 1032.00 1185.00 L 1020.00 1175.00 L 1020.00 1178.00 L 1032.00 1194.00 L 1030.00 1195.00 L 1014.00 1181.00 L 1012.00 1183.00 L 1024.00 1201.00 L 1027.00 1210.00 L 1021.00 1210.00 L 1023.00 1218.00 L 1033.00 1234.00 L 1030.00 1233.00 L 1014.00 1215.00 L 1020.00 1224.00 L 1048.00 1260.00 L 1050.00 1264.00 L 1026.00 1236.00 L 1028.00 1239.00 L 1056.00 1273.00 L 1054.00 1271.00 L 1022.00 1233.00 L 1023.00 1235.00 L 1057.00 1277.00 L 1054.00 1275.00 L 1014.00 1229.00 L 1014.00 1231.00 L 1054.00 1281.00 L 1061.00 1292.00 L 1035.00 1264.00 L 1029.00 1259.00 L 1043.00 1277.00 L 1032.00 1270.00 L 996.00 1238.00 L 986.00 1234.00 L 1002.00 1258.00 L 1000.00 1258.00 L 980.00 1234.00 L 980.00 1237.00 L 1000.00 1267.00 L 1010.00 1287.00 L 1010.00 1297.00 L 1016.00 1316.00 L 1028.00 1344.00 L 1027.00 1347.00 L 1013.00 1325.00 L 1022.00 1341.00 L 1054.00 1395.00 L 1057.00 1401.00 L 1031.00 1359.00 L 1033.00 1363.00 L 1063.00 1413.00 L 1073.00 1430.00 L 1063.00 1414.00 L 1075.00 1440.00 L 1109.00 1508.00 L 1129.00 1563.00 L 1135.00 1605.00 L 1134.00 1640.00 L 1126.00 1668.00 L 1114.00 1683.00 L 1098.00 1685.00 L 1067.00 1668.00 L 1021.00 1632.00 L 976.00 1600.00 L 932.00 1572.00 L 858.00 1532.00 L 754.00 1480.00 L 673.00 1443.00 L 615.00 1421.00 L 544.00 1401.00 L 460.00 1383.00 L 407.00 1367.00 L 385.00 1353.00 L 370.00 1339.00 L 362.00 1325.00 L 357.00 1310.00 L 355.00 1294.00 L 367.00 1235.00 L 393.00 1133.00 L 404.00 1072.00 L 400.00 1052.00 L 400.00 1015.00 L 404.00 961.00 L 406.00 931.00 L 406.00 925.00 L 407.00 917.00 Z" fill="black" stroke="black" stroke-width="1"/>
</svg>