<?xml version="1.0" encoding="UTF-8"?>
<svg xmlns="http://www.w3.org/2000/svg" viewBox="303.00 218.00 947.00 1467.00">
  <path d="M 439.00 955.00 L 433.00 949.00 L 432.00 939.00 L 436.00 925.00 L 434.00 913.00 L 426.00 903.00 L 426.00 883.00 L 434.00 853.00 L 422.00 826.00 L 390.00 802.00 L 374.00 783.00 L 374.00 769.00 L 393.00 739.00 L 431.00 693.00 L 454.00 662.00 L 462.00 646.00 L 465.00 624.00 L 463.00 596.00 L 469.00 568.00 L 483.00 540.00 L 487.00 518.00 L 481.00 502.00 L 483.00 500.00 L 493.00 512.00 L 496.00 510.00 L 492.00 494.00 L 494.00 491.00 L 502.00 501.00 L 505.00 496.00 L 503.00 476.00 L 506.00 471.00 L 514.00 481.00 L 515.00 479.00 L 509.00 465.00 L 510.00 463.00 L 518.00 473.00 L 519.00 469.00 L 513.00 451.00 L 514.00 448.00 L 522.00 460.00 L 525.00 457.00 L 523.00 439.00 L 525.00 433.00 L 531.00 439.00 L 532.00 436.00 L 528.00 424.00 L 529.00 409.00 L 535.00 391.00 L 554.00 363.00 L 586.00 325.00 L 618.00 296.00 L 650.00 276.00 L 684.00 260.00 L 720.00 248.00 L 763.00 238.00 L 813.00 230.00 L 861.00 228.00 L 907.00 232.00 L 941.00 232.00 L 963.00 228.00 L 1008.00 239.00 L 1076.00 265.00 L 1125.00 291.00 L 1155.00 317.00 L 1179.00 342.00 L 1197.00 366.00 L 1213.00 401.00 L 1227.00 447.00 L 1236.00 506.00 L 1240.00 578.00 L 1233.00 653.00 L 1215.00 731.00 L 1192.00 793.00 L 1164.00 839.00 L 1147.00 883.00 L 1141.00 925.00 L 1135.00 947.00 L 1129.00 949.00 L 1132.00 956.00 L 1144.00 968.00 L 1152.00 981.00 L 1156.00 995.00 L 1158.00 1038.00 L 1158.00 1110.00 L 1154.00 1153.00 L 1146.00 1167.00 L 1142.00 1182.00 L 1142.00 1198.00 L 1151.00 1258.00 L 1169.00 1362.00 L 1176.00 1423.00 L 1172.00 1441.00 L 1164.00 1456.00 L 1152.00 1468.00 L 1045.00 1491.00 L 843.00 1525.00 L 688.00 1560.00 L 580.00 1596.00 L 494.00 1630.00 L 430.00 1662.00 L 380.00 1675.00 L 344.00 1669.00 L 322.00 1659.00 L 314.00 1645.00 L 313.00 1626.00 L 319.00 1602.00 L 365.00 1526.00 L 451.00 1398.00 L 452.00 1395.00 L 368.00 1517.00 L 327.00 1576.00 L 329.00 1572.00 L 383.00 1492.00 L 489.00 1336.00 L 489.00 1333.00 L 383.00 1483.00 L 381.00 1484.00 L 483.00 1336.00 L 483.00 1332.00 L 381.00 1472.00 L 358.00 1503.00 L 414.00 1425.00 L 415.00 1422.00 L 361.00 1494.00 L 357.00 1498.00 L 403.00 1434.00 L 404.00 1431.00 L 360.00 1489.00 L 342.00 1511.00 L 350.00 1497.00 L 351.00 1494.00 L 345.00 1502.00 L 387.00 1446.00 L 477.00 1326.00 L 478.00 1324.00 L 390.00 1440.00 L 397.00 1427.00 L 499.00 1285.00 L 527.00 1240.00 L 481.00 1292.00 L 481.00 1290.00 L 527.00 1234.00 L 529.00 1231.00 L 487.00 1281.00 L 468.00 1303.00 L 472.00 1297.00 L 467.00 1302.00 L 453.00 1318.00 L 470.00 1297.00 L 518.00 1239.00 L 515.00 1239.00 L 461.00 1297.00 L 462.00 1293.00 L 518.00 1227.00 L 514.00 1227.00 L 450.00 1293.00 L 448.00 1291.00 L 508.00 1221.00 L 506.00 1219.00 L 442.00 1285.00 L 434.00 1293.00 L 482.00 1243.00 L 483.00 1241.00 L 437.00 1287.00 L 441.00 1282.00 L 495.00 1226.00 L 519.00 1200.00 L 513.00 1204.00 L 515.00 1198.00 L 525.00 1182.00 L 523.00 1165.00 L 509.00 1147.00 L 510.00 1131.00 L 526.00 1117.00 L 526.00 1114.00 L 510.00 1122.00 L 507.00 1121.00 L 517.00 1111.00 L 509.00 1096.00 L 483.00 1076.00 L 471.00 1049.00 L 473.00 1015.00 L 469.00 991.00 L 459.00 977.00 L 451.00 967.00 L 445.00 961.00 L 439.00 955.00 Z" fill="black" stroke="black" stroke-width="1"/>
</svg>