<?xml version="1.0" encoding="UTF-8"?>
<svg xmlns="http://www.w3.org/2000/svg" viewBox="374.00 302.00 891.00 1456.00">
  <path d="M 506.00 1005.00 L 426.00 1003.00 L 392.00 1002.00 L 404.00 1002.00 L 402.00 1001.00 L 386.00 999.00 L 390.00 998.00 L 414.00 998.00 L 412.00 997.00 L 384.00 995.00 L 414.00 995.00 L 502.00 997.00 L 502.00 994.00 L 414.00 986.00 L 414.00 984.00 L 502.00 988.00 L 504.00 985.00 L 420.00 975.00 L 420.00 973.00 L 504.00 979.00 L 506.00 977.00 L 426.00 967.00 L 410.00 964.00 L 458.00 968.00 L 459.00 967.00 L 413.00 961.00 L 391.00 957.00 L 393.00 955.00 L 432.00 959.00 L 508.00 969.00 L 509.00 967.00 L 435.00 953.00 L 426.00 949.00 L 482.00 955.00 L 484.00 953.00 L 432.00 943.00 L 441.00 944.00 L 511.00 956.00 L 513.00 954.00 L 447.00 938.00 L 440.00 935.00 L 492.00 945.00 L 493.00 944.00 L 443.00 932.00 L 451.00 932.00 L 517.00 944.00 L 520.00 942.00 L 460.00 926.00 L 459.00 925.00 L 517.00 939.00 L 519.00 937.00 L 465.00 919.00 L 457.00 896.00 L 495.00 868.00 L 516.00 849.00 L 520.00 839.00 L 510.00 782.00 L 486.00 678.00 L 465.00 596.00 L 447.00 536.00 L 437.00 496.00 L 435.00 476.00 L 447.00 459.00 L 473.00 445.00 L 579.00 409.00 L 765.00 351.00 L 872.00 319.00 L 900.00 313.00 L 922.00 312.00 L 938.00 316.00 L 952.00 326.00 L 964.00 342.00 L 985.00 381.00 L 1015.00 443.00 L 1047.00 524.00 L 1081.00 624.00 L 1117.00 681.00 L 1155.00 695.00 L 1159.00 717.00 L 1129.00 747.00 L 1132.00 748.00 L 1168.00 720.00 L 1167.00 722.00 L 1129.00 754.00 L 1131.00 755.00 L 1173.00 725.00 L 1173.00 727.00 L 1131.00 761.00 L 1133.00 762.00 L 1179.00 730.00 L 1178.00 733.00 L 1130.00 771.00 L 1133.00 772.00 L 1187.00 736.00 L 1187.00 739.00 L 1133.00 781.00 L 1134.00 782.00 L 1190.00 742.00 L 1190.00 744.00 L 1134.00 788.00 L 1137.00 789.00 L 1199.00 747.00 L 1218.00 736.00 L 1194.00 756.00 L 1198.00 757.00 L 1230.00 739.00 L 1212.00 753.00 L 1144.00 799.00 L 1146.00 800.00 L 1218.00 756.00 L 1219.00 757.00 L 1149.00 803.00 L 1152.00 804.00 L 1228.00 760.00 L 1255.00 745.00 L 1233.00 759.00 L 1225.00 766.00 L 1231.00 766.00 L 1206.00 783.00 L 1150.00 817.00 L 1160.00 813.00 L 1236.00 771.00 L 1237.00 772.00 L 1163.00 816.00 L 1136.00 848.00 L 1156.00 868.00 L 1174.00 899.00 L 1190.00 941.00 L 1195.00 966.00 L 1189.00 974.00 L 1177.00 979.00 L 1159.00 981.00 L 1156.00 982.00 L 1168.00 982.00 L 1165.00 985.00 L 1147.00 991.00 L 1139.00 1004.00 L 1141.00 1024.00 L 1140.00 1036.00 L 1136.00 1040.00 L 1134.00 1049.00 L 1134.00 1063.00 L 1129.00 1077.00 L 1119.00 1091.00 L 1116.00 1106.00 L 1120.00 1122.00 L 1120.00 1140.00 L 1116.00 1160.00 L 1110.00 1174.00 L 1102.00 1182.00 L 1085.00 1192.00 L 1059.00 1204.00 L 1052.00 1219.00 L 1064.00 1237.00 L 1055.00 1256.00 L 1025.00 1276.00 L 1005.00 1297.00 L 995.00 1319.00 L 1018.00 1383.00 L 1074.00 1489.00 L 1084.00 1509.00 L 1048.00 1443.00 L 1049.00 1445.00 L 1087.00 1515.00 L 1084.00 1510.00 L 1040.00 1430.00 L 1042.00 1437.00 L 1090.00 1531.00 L 1082.00 1518.00 L 1018.00 1398.00 L 1019.00 1401.00 L 1085.00 1527.00 L 1089.00 1536.00 L 1031.00 1428.00 L 1031.00 1430.00 L 1089.00 1542.00 L 1099.00 1563.00 L 1061.00 1493.00 L 1068.00 1512.00 L 1120.00 1620.00 L 1105.00 1593.00 L 1023.00 1431.00 L 1023.00 1433.00 L 1105.00 1599.00 L 1148.00 1688.00 L 1152.00 1700.00 L 1111.00 1619.00 L 1025.00 1445.00 L 1025.00 1447.00 L 1111.00 1625.00 L 1152.00 1718.00 L 1148.00 1726.00 L 1143.00 1732.00 L 1137.00 1736.00 L 1133.00 1736.00 L 1131.00 1732.00 L 1129.00 1733.00 L 1127.00 1739.00 L 1120.00 1744.00 L 1108.00 1748.00 L 1098.00 1747.00 L 1090.00 1741.00 L 1083.00 1739.00 L 1077.00 1741.00 L 1037.00 1715.00 L 963.00 1661.00 L 887.00 1616.00 L 809.00 1580.00 L 736.00 1554.00 L 668.00 1538.00 L 606.00 1527.00 L 550.00 1521.00 L 507.00 1510.00 L 477.00 1494.00 L 459.00 1480.00 L 453.00 1468.00 L 450.00 1456.00 L 450.00 1444.00 L 469.00 1391.00 L 507.00 1297.00 L 525.00 1242.00 L 523.00 1226.00 L 528.00 1186.00 L 540.00 1122.00 L 545.00 1088.00 L 543.00 1084.00 L 546.00 1080.00 L 554.00 1076.00 L 552.00 1075.00 L 540.00 1077.00 L 538.00 1062.00 L 546.00 1030.00 L 549.00 1012.00 L 547.00 1008.00 L 506.00 1005.00 Z" fill="black" stroke="black" stroke-width="1"/>
</svg>