<?xml version="1.0" encoding="UTF-8"?>
<svg xmlns="http://www.w3.org/2000/svg" viewBox="204.00 185.00 1284.00 1613.00">
  <path d="M 218.00 918.00 L 226.00 758.00 L 248.00 611.00 L 284.00 477.00 L 311.00 394.00 L 329.00 362.00 L 357.00 327.00 L 395.00 289.00 L 458.00 252.00 L 546.00 216.00 L 619.00 197.00 L 677.00 195.00 L 763.00 206.00 L 877.00 230.00 L 985.00 269.00 L 1087.00 323.00 L 1195.00 400.00 L 1309.00 500.00 L 1383.00 573.00 L 1417.00 619.00 L 1353.00 689.00 L 1191.00 783.00 L 1193.00 786.00 L 1359.00 698.00 L 1357.00 701.00 L 1187.00 795.00 L 1189.00 797.00 L 1363.00 707.00 L 1372.00 704.00 L 1216.00 788.00 L 1217.00 790.00 L 1375.00 710.00 L 1379.00 709.00 L 1229.00 787.00 L 1232.00 791.00 L 1388.00 721.00 L 1375.00 730.00 L 1193.00 818.00 L 1195.00 821.00 L 1381.00 739.00 L 1404.00 730.00 L 1264.00 794.00 L 1266.00 797.00 L 1410.00 739.00 L 1387.00 752.00 L 1197.00 836.00 L 1198.00 839.00 L 1390.00 761.00 L 1426.00 748.00 L 1306.00 800.00 L 1309.00 804.00 L 1435.00 760.00 L 1401.00 776.00 L 1207.00 852.00 L 1210.00 857.00 L 1410.00 791.00 L 1412.00 793.00 L 1216.00 863.00 L 1217.00 866.00 L 1415.00 802.00 L 1475.00 783.00 L 1397.00 809.00 L 1398.00 812.00 L 1478.00 792.00 L 1420.00 813.00 L 1224.00 875.00 L 1225.00 878.00 L 1423.00 822.00 L 1424.00 824.00 L 1228.00 884.00 L 1225.00 889.00 L 1415.00 839.00 L 1417.00 842.00 L 1231.00 898.00 L 1155.00 945.00 L 1189.00 983.00 L 1194.00 1011.00 L 1170.00 1029.00 L 1161.00 1052.00 L 1167.00 1080.00 L 1165.00 1113.00 L 1155.00 1151.00 L 1151.00 1194.00 L 1153.00 1242.00 L 1139.00 1273.00 L 1109.00 1287.00 L 1097.00 1298.00 L 1103.00 1306.00 L 1094.00 1334.00 L 1070.00 1382.00 L 1077.00 1448.00 L 1115.00 1532.00 L 1112.00 1538.00 L 1068.00 1466.00 L 1082.00 1495.00 L 1154.00 1625.00 L 1154.00 1627.00 L 1082.00 1501.00 L 1084.00 1511.00 L 1160.00 1657.00 L 1159.00 1660.00 L 1081.00 1520.00 L 1081.00 1524.00 L 1159.00 1672.00 L 1198.00 1752.00 L 1198.00 1764.00 L 1190.00 1776.00 L 1174.00 1788.00 L 1131.00 1783.00 L 1061.00 1761.00 L 964.00 1719.00 L 840.00 1657.00 L 716.00 1610.00 L 592.00 1578.00 L 525.00 1547.00 L 515.00 1517.00 L 519.00 1472.00 L 537.00 1412.00 L 543.00 1368.00 L 537.00 1340.00 L 539.00 1305.00 L 549.00 1263.00 L 505.00 1287.00 L 407.00 1377.00 L 408.00 1374.00 L 508.00 1278.00 L 504.00 1278.00 L 396.00 1374.00 L 398.00 1369.00 L 510.00 1263.00 L 506.00 1258.00 L 386.00 1354.00 L 386.00 1351.00 L 506.00 1249.00 L 505.00 1247.00 L 383.00 1345.00 L 351.00 1368.00 L 409.00 1316.00 L 408.00 1313.00 L 348.00 1359.00 L 381.00 1332.00 L 507.00 1232.00 L 505.00 1228.00 L 375.00 1320.00 L 379.00 1313.00 L 517.00 1207.00 L 515.00 1204.00 L 373.00 1304.00 L 376.00 1301.00 L 524.00 1195.00 L 522.00 1191.00 L 370.00 1289.00 L 371.00 1286.00 L 525.00 1182.00 L 524.00 1179.00 L 368.00 1277.00 L 368.00 1275.00 L 524.00 1173.00 L 522.00 1169.00 L 362.00 1263.00 L 359.00 1263.00 L 513.00 1169.00 L 512.00 1164.00 L 356.00 1248.00 L 358.00 1246.00 L 518.00 1158.00 L 517.00 1156.00 L 355.00 1240.00 L 350.00 1241.00 L 502.00 1159.00 L 501.00 1156.00 L 347.00 1232.00 L 336.00 1235.00 L 468.00 1165.00 L 467.00 1162.00 L 333.00 1226.00 L 343.00 1220.00 L 497.00 1144.00 L 496.00 1140.00 L 340.00 1208.00 L 335.00 1208.00 L 481.00 1140.00 L 480.00 1137.00 L 332.00 1199.00 L 338.00 1196.00 L 498.00 1128.00 L 497.00 1125.00 L 335.00 1187.00 L 335.00 1185.00 L 497.00 1119.00 L 496.00 1116.00 L 332.00 1176.00 L 330.00 1176.00 L 490.00 1116.00 L 489.00 1112.00 L 327.00 1164.00 L 238.00 1145.00 L 222.00 1055.00 L 214.00 1007.00 L 214.00 1001.00 L 218.00 918.00 Z" fill="black" stroke="black" stroke-width="1"/>
</svg>