<?xml version="1.0" encoding="UTF-8"?>
<svg xmlns="http://www.w3.org/2000/svg" viewBox="500.00 318.00 800.00 1315.00">
  <path d="M 574.00 927.00 L 566.00 913.00 L 565.00 900.00 L 571.00 888.00 L 571.00 878.00 L 565.00 870.00 L 565.00 852.00 L 571.00 824.00 L 560.00 801.00 L 532.00 783.00 L 518.00 768.00 L 518.00 756.00 L 540.00 729.00 L 584.00 687.00 L 612.00 663.00 L 624.00 657.00 L 629.00 637.00 L 627.00 603.00 L 633.00 575.00 L 647.00 553.00 L 651.00 533.00 L 645.00 515.00 L 646.00 514.00 L 654.00 530.00 L 655.00 529.00 L 649.00 511.00 L 650.00 508.00 L 658.00 520.00 L 659.00 518.00 L 653.00 502.00 L 654.00 501.00 L 662.00 515.00 L 663.00 511.00 L 657.00 489.00 L 658.00 487.00 L 666.00 505.00 L 667.00 503.00 L 661.00 481.00 L 662.00 479.00 L 670.00 497.00 L 671.00 495.00 L 665.00 473.00 L 666.00 471.00 L 674.00 489.00 L 677.00 492.00 L 675.00 480.00 L 676.00 478.00 L 680.00 486.00 L 679.00 482.00 L 673.00 466.00 L 674.00 465.00 L 682.00 479.00 L 684.00 477.00 L 680.00 459.00 L 681.00 457.00 L 687.00 471.00 L 690.00 467.00 L 690.00 445.00 L 693.00 442.00 L 699.00 458.00 L 700.00 457.00 L 696.00 439.00 L 697.00 438.00 L 703.00 454.00 L 704.00 453.00 L 700.00 435.00 L 702.00 434.00 L 710.00 450.00 L 713.00 449.00 L 711.00 431.00 L 722.00 413.00 L 746.00 395.00 L 790.00 374.00 L 854.00 350.00 L 893.00 338.00 L 907.00 338.00 L 923.00 335.00 L 941.00 329.00 L 965.00 328.00 L 995.00 332.00 L 1016.00 333.00 L 1028.00 331.00 L 1055.00 335.00 L 1097.00 345.00 L 1137.00 362.00 L 1175.00 386.00 L 1194.00 400.00 L 1194.00 404.00 L 1195.00 405.00 L 1197.00 403.00 L 1196.00 407.00 L 1192.00 417.00 L 1192.00 420.00 L 1196.00 416.00 L 1203.00 418.00 L 1213.00 426.00 L 1226.00 444.00 L 1242.00 472.00 L 1259.00 509.00 L 1277.00 555.00 L 1287.00 586.00 L 1289.00 602.00 L 1290.00 623.00 L 1290.00 649.00 L 1287.00 679.00 L 1281.00 713.00 L 1259.00 772.00 L 1221.00 856.00 L 1205.00 904.00 L 1211.00 916.00 L 1218.00 945.00 L 1226.00 991.00 L 1230.00 1022.00 L 1230.00 1038.00 L 1225.00 1053.00 L 1215.00 1067.00 L 1214.00 1086.00 L 1222.00 1110.00 L 1229.00 1144.00 L 1235.00 1188.00 L 1238.00 1228.00 L 1238.00 1264.00 L 1232.00 1292.00 L 1220.00 1312.00 L 1210.00 1325.00 L 1202.00 1331.00 L 1178.00 1339.00 L 1138.00 1349.00 L 1072.00 1371.00 L 980.00 1405.00 L 885.00 1445.00 L 787.00 1491.00 L 702.00 1537.00 L 630.00 1583.00 L 579.00 1611.00 L 549.00 1621.00 L 531.00 1623.00 L 525.00 1617.00 L 520.00 1607.00 L 516.00 1593.00 L 513.00 1587.00 L 511.00 1589.00 L 510.00 1581.00 L 510.00 1563.00 L 513.00 1542.00 L 519.00 1518.00 L 532.00 1482.00 L 552.00 1434.00 L 560.00 1413.00 L 556.00 1419.00 L 572.00 1391.00 L 608.00 1329.00 L 615.00 1315.00 L 593.00 1349.00 L 593.00 1348.00 L 615.00 1312.00 L 625.00 1288.00 L 623.00 1276.00 L 632.00 1255.00 L 652.00 1225.00 L 652.00 1223.00 L 632.00 1249.00 L 632.00 1247.00 L 652.00 1217.00 L 652.00 1215.00 L 632.00 1241.00 L 631.00 1240.00 L 649.00 1212.00 L 651.00 1188.00 L 637.00 1168.00 L 631.00 1155.00 L 633.00 1149.00 L 619.00 1123.00 L 589.00 1077.00 L 574.00 1052.00 L 574.00 1048.00 L 581.00 1043.00 L 595.00 1037.00 L 597.00 1035.00 L 587.00 1037.00 L 585.00 1035.00 L 591.00 1029.00 L 588.00 1024.00 L 576.00 1020.00 L 566.00 1011.00 L 558.00 997.00 L 556.00 983.00 L 560.00 969.00 L 566.00 958.00 L 574.00 950.00 L 578.00 943.00 L 578.00 937.00 L 574.00 927.00 Z" fill="black" stroke="black" stroke-width="1"/>
</svg>