<?xml version="1.0" encoding="UTF-8"?>
<svg xmlns="http://www.w3.org/2000/svg" viewBox="329.00 257.00 846.00 1452.00">
  <path d="M 372.00 931.00 L 376.00 901.00 L 365.00 874.00 L 339.00 850.00 L 348.00 809.00 L 392.00 751.00 L 409.00 699.00 L 399.00 653.00 L 400.00 636.00 L 412.00 648.00 L 414.00 641.00 L 406.00 615.00 L 408.00 609.00 L 420.00 623.00 L 421.00 621.00 L 411.00 603.00 L 412.00 600.00 L 424.00 612.00 L 425.00 610.00 L 415.00 594.00 L 416.00 591.00 L 428.00 601.00 L 430.00 598.00 L 422.00 582.00 L 423.00 579.00 L 433.00 589.00 L 435.00 583.00 L 429.00 561.00 L 431.00 555.00 L 441.00 565.00 L 442.00 562.00 L 434.00 546.00 L 435.00 543.00 L 445.00 553.00 L 447.00 550.00 L 441.00 534.00 L 442.00 531.00 L 450.00 541.00 L 461.00 522.00 L 475.00 474.00 L 486.00 458.00 L 494.00 474.00 L 493.00 463.00 L 483.00 425.00 L 485.00 393.00 L 499.00 367.00 L 519.00 348.00 L 545.00 336.00 L 565.00 348.00 L 579.00 384.00 L 584.00 385.00 L 580.00 351.00 L 585.00 346.00 L 599.00 370.00 L 607.00 364.00 L 609.00 328.00 L 612.00 324.00 L 616.00 352.00 L 619.00 354.00 L 621.00 330.00 L 627.00 324.00 L 637.00 336.00 L 643.00 359.00 L 645.00 393.00 L 651.00 378.00 L 661.00 314.00 L 668.00 306.00 L 672.00 354.00 L 674.00 351.00 L 674.00 297.00 L 676.00 299.00 L 680.00 357.00 L 683.00 355.00 L 685.00 293.00 L 687.00 290.00 L 689.00 346.00 L 692.00 348.00 L 696.00 296.00 L 699.00 295.00 L 701.00 345.00 L 703.00 347.00 L 705.00 301.00 L 708.00 299.00 L 712.00 341.00 L 715.00 346.00 L 717.00 314.00 L 720.00 312.00 L 724.00 340.00 L 787.00 325.00 L 909.00 267.00 L 1035.00 373.00 L 1165.00 643.00 L 1156.00 832.00 L 1008.00 940.00 L 939.00 1011.00 L 949.00 1045.00 L 945.00 1060.00 L 927.00 1056.00 L 927.00 1059.00 L 945.00 1069.00 L 945.00 1072.00 L 927.00 1068.00 L 927.00 1071.00 L 945.00 1081.00 L 945.00 1087.00 L 927.00 1089.00 L 924.00 1096.00 L 936.00 1108.00 L 939.00 1123.00 L 933.00 1141.00 L 945.00 1211.00 L 975.00 1333.00 L 895.00 1445.00 L 705.00 1547.00 L 607.00 1616.00 L 601.00 1652.00 L 599.00 1653.00 L 601.00 1619.00 L 599.00 1622.00 L 593.00 1662.00 L 590.00 1664.00 L 590.00 1628.00 L 587.00 1630.00 L 581.00 1670.00 L 578.00 1673.00 L 578.00 1639.00 L 575.00 1633.00 L 569.00 1655.00 L 567.00 1655.00 L 569.00 1633.00 L 567.00 1630.00 L 561.00 1646.00 L 558.00 1648.00 L 558.00 1636.00 L 540.00 1642.00 L 504.00 1666.00 L 504.00 1606.00 L 540.00 1462.00 L 533.00 1467.00 L 483.00 1621.00 L 482.00 1611.00 L 530.00 1437.00 L 527.00 1440.00 L 473.00 1620.00 L 471.00 1622.00 L 521.00 1446.00 L 515.00 1450.00 L 453.00 1634.00 L 450.00 1638.00 L 506.00 1462.00 L 503.00 1464.00 L 441.00 1644.00 L 438.00 1645.00 L 494.00 1467.00 L 488.00 1472.00 L 420.00 1660.00 L 408.00 1687.00 L 452.00 1553.00 L 447.00 1557.00 L 393.00 1699.00 L 401.00 1673.00 L 471.00 1479.00 L 468.00 1480.00 L 392.00 1676.00 L 400.00 1655.00 L 492.00 1417.00 L 490.00 1414.00 L 394.00 1646.00 L 393.00 1644.00 L 487.00 1408.00 L 486.00 1403.00 L 390.00 1629.00 L 388.00 1627.00 L 480.00 1397.00 L 477.00 1392.00 L 379.00 1612.00 L 374.00 1620.00 L 462.00 1416.00 L 459.00 1407.00 L 365.00 1593.00 L 367.00 1583.00 L 465.00 1377.00 L 464.00 1374.00 L 364.00 1574.00 L 356.00 1589.00 L 440.00 1419.00 L 440.00 1416.00 L 356.00 1580.00 L 361.00 1566.00 L 455.00 1374.00 L 486.00 1281.00 L 454.00 1287.00 L 451.00 1270.00 L 477.00 1230.00 L 475.00 1230.00 L 445.00 1270.00 L 447.00 1265.00 L 481.00 1215.00 L 479.00 1214.00 L 441.00 1262.00 L 445.00 1254.00 L 491.00 1190.00 L 490.00 1188.00 L 442.00 1248.00 L 439.00 1247.00 L 481.00 1185.00 L 487.00 1171.00 L 457.00 1205.00 L 454.00 1204.00 L 478.00 1168.00 L 465.00 1136.00 L 415.00 1108.00 L 388.00 1060.00 L 384.00 992.00 L 379.00 955.00 L 373.00 949.00 L 372.00 931.00 Z" fill="black" stroke="black" stroke-width="1"/>
</svg>