<?xml version="1.0" encoding="UTF-8"?>
<svg xmlns="http://www.w3.org/2000/svg" viewBox="376.00 67.00 1032.00 1631.00">
  <path d="M 411.00 694.00 L 461.00 626.00 L 477.00 579.00 L 459.00 553.00 L 461.00 545.00 L 483.00 555.00 L 485.00 547.00 L 467.00 521.00 L 468.00 513.00 L 488.00 523.00 L 489.00 520.00 L 471.00 504.00 L 471.00 501.00 L 489.00 511.00 L 490.00 508.00 L 474.00 492.00 L 475.00 489.00 L 493.00 499.00 L 496.00 496.00 L 484.00 480.00 L 485.00 476.00 L 499.00 484.00 L 500.00 481.00 L 488.00 467.00 L 490.00 460.00 L 506.00 460.00 L 508.00 453.00 L 496.00 439.00 L 495.00 436.00 L 505.00 444.00 L 507.00 439.00 L 501.00 421.00 L 505.00 415.00 L 519.00 421.00 L 521.00 417.00 L 511.00 403.00 L 512.00 400.00 L 524.00 408.00 L 511.00 380.00 L 473.00 316.00 L 469.00 305.00 L 499.00 347.00 L 498.00 344.00 L 466.00 296.00 L 447.00 246.00 L 441.00 194.00 L 448.00 173.00 L 468.00 183.00 L 473.00 177.00 L 463.00 155.00 L 476.00 173.00 L 512.00 231.00 L 515.00 230.00 L 485.00 170.00 L 488.00 173.00 L 524.00 239.00 L 527.00 237.00 L 497.00 167.00 L 504.00 171.00 L 548.00 249.00 L 553.00 250.00 L 519.00 174.00 L 522.00 174.00 L 562.00 250.00 L 567.00 250.00 L 537.00 174.00 L 538.00 168.00 L 570.00 232.00 L 575.00 234.00 L 553.00 174.00 L 556.00 152.00 L 584.00 168.00 L 605.00 192.00 L 619.00 224.00 L 632.00 212.00 L 644.00 156.00 L 684.00 111.00 L 752.00 77.00 L 788.00 94.00 L 792.00 162.00 L 796.00 161.00 L 800.00 91.00 L 803.00 89.00 L 805.00 155.00 L 808.00 156.00 L 812.00 92.00 L 816.00 91.00 L 820.00 153.00 L 831.00 153.00 L 849.00 91.00 L 855.00 89.00 L 849.00 147.00 L 853.00 149.00 L 867.00 95.00 L 873.00 93.00 L 871.00 143.00 L 876.00 145.00 L 888.00 99.00 L 891.00 98.00 L 885.00 142.00 L 888.00 144.00 L 900.00 104.00 L 903.00 103.00 L 897.00 141.00 L 899.00 143.00 L 909.00 109.00 L 913.00 108.00 L 911.00 140.00 L 913.00 144.00 L 919.00 120.00 L 922.00 119.00 L 922.00 141.00 L 925.00 145.00 L 931.00 131.00 L 935.00 130.00 L 937.00 142.00 L 968.00 144.00 L 1028.00 136.00 L 1100.00 149.00 L 1184.00 183.00 L 1252.00 229.00 L 1304.00 287.00 L 1348.00 369.00 L 1384.00 475.00 L 1398.00 562.00 L 1390.00 630.00 L 1369.00 708.00 L 1335.00 796.00 L 1274.00 860.00 L 1186.00 900.00 L 1121.00 937.00 L 1079.00 971.00 L 1072.00 1104.00 L 1100.00 1336.00 L 1055.00 1467.00 L 937.00 1497.00 L 827.00 1535.00 L 725.00 1581.00 L 680.00 1529.00 L 692.00 1379.00 L 688.00 1381.00 L 668.00 1535.00 L 668.00 1524.00 L 688.00 1348.00 L 685.00 1350.00 L 659.00 1530.00 L 659.00 1522.00 L 685.00 1326.00 L 682.00 1328.00 L 650.00 1528.00 L 649.00 1524.00 L 679.00 1316.00 L 675.00 1318.00 L 637.00 1530.00 L 636.00 1525.00 L 672.00 1303.00 L 669.00 1305.00 L 627.00 1531.00 L 626.00 1528.00 L 666.00 1296.00 L 663.00 1298.00 L 617.00 1534.00 L 616.00 1530.00 L 660.00 1286.00 L 653.00 1290.00 L 595.00 1542.00 L 594.00 1537.00 L 650.00 1275.00 L 644.00 1279.00 L 576.00 1549.00 L 575.00 1546.00 L 641.00 1270.00 L 636.00 1274.00 L 560.00 1558.00 L 559.00 1555.00 L 633.00 1265.00 L 631.00 1266.00 L 553.00 1558.00 L 523.00 1659.00 L 541.00 1569.00 L 535.00 1574.00 L 505.00 1674.00 L 533.00 1568.00 L 619.00 1256.00 L 608.00 1264.00 L 500.00 1592.00 L 498.00 1587.00 L 602.00 1249.00 L 598.00 1242.00 L 486.00 1566.00 L 443.00 1688.00 L 469.00 1608.00 L 467.00 1604.00 L 437.00 1676.00 L 432.00 1679.00 L 452.00 1613.00 L 451.00 1610.00 L 429.00 1670.00 L 426.00 1672.00 L 442.00 1616.00 L 440.00 1608.00 L 420.00 1648.00 L 468.00 1517.00 L 584.00 1215.00 L 584.00 1210.00 L 468.00 1502.00 L 467.00 1500.00 L 581.00 1204.00 L 596.00 1036.00 L 512.00 996.00 L 463.00 926.00 L 449.00 826.00 L 428.00 766.00 L 400.00 746.00 L 386.00 734.00 L 386.00 730.00 L 411.00 694.00 Z" fill="black" stroke="black" stroke-width="1"/>
</svg>