<?xml version="1.0" encoding="UTF-8"?>
<svg xmlns="http://www.w3.org/2000/svg" viewBox="247.00 87.00 1045.00 1527.00">
  <path d="M 577.00 845.00 L 575.00 831.00 L 553.00 821.00 L 511.00 815.00 L 511.00 814.00 L 553.00 818.00 L 548.00 816.00 L 496.00 808.00 L 494.00 807.00 L 542.00 813.00 L 534.00 810.00 L 470.00 798.00 L 467.00 796.00 L 525.00 804.00 L 523.00 803.00 L 461.00 793.00 L 458.00 792.00 L 514.00 800.00 L 504.00 797.00 L 428.00 783.00 L 392.00 776.00 L 396.00 776.00 L 379.00 768.00 L 341.00 752.00 L 311.00 733.00 L 289.00 711.00 L 272.00 681.00 L 260.00 643.00 L 257.00 603.00 L 263.00 561.00 L 281.00 503.00 L 311.00 429.00 L 341.00 366.00 L 371.00 314.00 L 424.00 241.00 L 500.00 147.00 L 553.00 99.00 L 583.00 97.00 L 606.00 101.00 L 622.00 111.00 L 641.00 130.00 L 663.00 158.00 L 688.00 171.00 L 716.00 169.00 L 753.00 172.00 L 799.00 180.00 L 834.00 191.00 L 858.00 205.00 L 916.00 226.00 L 1008.00 254.00 L 1070.00 281.00 L 1102.00 307.00 L 1133.00 319.00 L 1163.00 317.00 L 1179.00 323.00 L 1181.00 337.00 L 1194.00 348.00 L 1218.00 356.00 L 1220.00 377.00 L 1200.00 411.00 L 1197.00 420.00 L 1211.00 404.00 L 1211.00 407.00 L 1197.00 429.00 L 1192.00 472.00 L 1196.00 536.00 L 1220.00 611.00 L 1264.00 697.00 L 1282.00 745.00 L 1274.00 755.00 L 1255.00 766.00 L 1225.00 778.00 L 1208.00 797.00 L 1204.00 823.00 L 1199.00 839.00 L 1193.00 845.00 L 1195.00 852.00 L 1205.00 860.00 L 1207.00 873.00 L 1201.00 891.00 L 1201.00 911.00 L 1207.00 933.00 L 1209.00 954.00 L 1207.00 974.00 L 1167.00 1001.00 L 1089.00 1035.00 L 1048.00 1055.00 L 1044.00 1061.00 L 1054.00 1080.00 L 1078.00 1112.00 L 1077.00 1115.00 L 1051.00 1089.00 L 1050.00 1091.00 L 1074.00 1121.00 L 1074.00 1124.00 L 1050.00 1100.00 L 1048.00 1102.00 L 1068.00 1130.00 L 1069.00 1133.00 L 1051.00 1111.00 L 1050.00 1116.00 L 1066.00 1148.00 L 1116.00 1222.00 L 1200.00 1338.00 L 1195.00 1332.00 L 1101.00 1204.00 L 1110.00 1219.00 L 1222.00 1377.00 L 1226.00 1384.00 L 1122.00 1240.00 L 1122.00 1242.00 L 1226.00 1390.00 L 1279.00 1466.00 L 1281.00 1470.00 L 1255.00 1434.00 L 1201.00 1358.00 L 1202.00 1360.00 L 1258.00 1440.00 L 1252.00 1434.00 L 1184.00 1342.00 L 1184.00 1345.00 L 1252.00 1443.00 L 1230.00 1412.00 L 1118.00 1252.00 L 1118.00 1257.00 L 1230.00 1427.00 L 1227.00 1425.00 L 1109.00 1251.00 L 1108.00 1255.00 L 1224.00 1437.00 L 1222.00 1437.00 L 1102.00 1255.00 L 1101.00 1257.00 L 1219.00 1443.00 L 1221.00 1447.00 L 1107.00 1269.00 L 1106.00 1272.00 L 1218.00 1456.00 L 1222.00 1465.00 L 1118.00 1299.00 L 1116.00 1301.00 L 1216.00 1471.00 L 1262.00 1572.00 L 1254.00 1604.00 L 1160.00 1562.00 L 980.00 1446.00 L 857.00 1375.00 L 791.00 1349.00 L 713.00 1327.00 L 623.00 1309.00 L 561.00 1290.00 L 527.00 1270.00 L 507.00 1247.00 L 501.00 1221.00 L 502.00 1190.00 L 510.00 1154.00 L 523.00 1112.00 L 541.00 1064.00 L 548.00 1041.00 L 544.00 1043.00 L 548.00 1040.00 L 560.00 1032.00 L 564.00 1029.00 L 560.00 1031.00 L 563.00 1008.00 L 573.00 960.00 L 584.00 923.00 L 596.00 897.00 L 602.00 881.00 L 602.00 875.00 L 598.00 872.00 L 590.00 872.00 L 589.00 870.00 L 595.00 866.00 L 594.00 864.00 L 586.00 864.00 L 581.00 861.00 L 579.00 855.00 L 577.00 845.00 Z" fill="black" stroke="black" stroke-width="1"/>
</svg>