<?xml version="1.0" encoding="UTF-8"?>
<svg xmlns="http://www.w3.org/2000/svg" viewBox="395.00 148.00 1009.00 1543.00">
  <path d="M 455.00 826.00 L 433.00 786.00 L 438.00 744.00 L 470.00 700.00 L 483.00 670.00 L 477.00 654.00 L 483.00 649.00 L 501.00 655.00 L 504.00 649.00 L 492.00 631.00 L 495.00 628.00 L 513.00 640.00 L 514.00 633.00 L 498.00 607.00 L 500.00 602.00 L 520.00 618.00 L 521.00 615.00 L 503.00 593.00 L 504.00 590.00 L 524.00 606.00 L 525.00 599.00 L 507.00 569.00 L 506.00 560.00 L 522.00 572.00 L 523.00 569.00 L 509.00 551.00 L 510.00 547.00 L 526.00 557.00 L 527.00 554.00 L 513.00 538.00 L 513.00 534.00 L 527.00 542.00 L 528.00 539.00 L 516.00 525.00 L 517.00 522.00 L 531.00 530.00 L 534.00 521.00 L 526.00 495.00 L 527.00 488.00 L 537.00 500.00 L 524.00 476.00 L 488.00 416.00 L 481.00 400.00 L 503.00 428.00 L 501.00 423.00 L 475.00 385.00 L 479.00 390.00 L 513.00 438.00 L 513.00 436.00 L 479.00 384.00 L 462.00 347.00 L 462.00 325.00 L 470.00 307.00 L 486.00 293.00 L 512.00 301.00 L 548.00 331.00 L 561.00 334.00 L 551.00 310.00 L 553.00 310.00 L 567.00 334.00 L 566.00 323.00 L 550.00 277.00 L 553.00 277.00 L 575.00 323.00 L 576.00 314.00 L 556.00 250.00 L 559.00 249.00 L 585.00 311.00 L 588.00 308.00 L 568.00 240.00 L 570.00 237.00 L 594.00 299.00 L 596.00 298.00 L 576.00 234.00 L 573.00 221.00 L 587.00 259.00 L 589.00 256.00 L 579.00 212.00 L 589.00 190.00 L 619.00 190.00 L 633.00 182.00 L 631.00 166.00 L 652.00 158.00 L 696.00 158.00 L 722.00 179.00 L 730.00 221.00 L 737.00 223.00 L 743.00 185.00 L 748.00 182.00 L 752.00 214.00 L 756.00 214.00 L 760.00 182.00 L 763.00 180.00 L 765.00 208.00 L 766.00 211.00 L 766.00 189.00 L 769.00 188.00 L 775.00 208.00 L 819.00 205.00 L 901.00 179.00 L 981.00 167.00 L 1059.00 169.00 L 1127.00 183.00 L 1185.00 209.00 L 1243.00 257.00 L 1301.00 327.00 L 1346.00 419.00 L 1378.00 533.00 L 1394.00 619.00 L 1394.00 677.00 L 1368.00 760.00 L 1316.00 868.00 L 1233.00 950.00 L 1119.00 1006.00 L 1068.00 1043.00 L 1080.00 1061.00 L 1080.00 1070.00 L 1068.00 1070.00 L 1068.00 1075.00 L 1080.00 1085.00 L 1080.00 1087.00 L 1068.00 1081.00 L 1067.00 1083.00 L 1077.00 1093.00 L 1077.00 1096.00 L 1067.00 1092.00 L 1063.00 1108.00 L 1065.00 1144.00 L 1078.00 1221.00 L 1102.00 1339.00 L 1065.00 1412.00 L 967.00 1440.00 L 854.00 1486.00 L 726.00 1550.00 L 673.00 1511.00 L 695.00 1369.00 L 692.00 1371.00 L 664.00 1517.00 L 665.00 1507.00 L 695.00 1341.00 L 692.00 1343.00 L 656.00 1513.00 L 656.00 1507.00 L 692.00 1325.00 L 690.00 1327.00 L 650.00 1513.00 L 650.00 1510.00 L 690.00 1318.00 L 687.00 1320.00 L 641.00 1516.00 L 640.00 1514.00 L 684.00 1314.00 L 682.00 1315.00 L 634.00 1517.00 L 634.00 1514.00 L 682.00 1306.00 L 676.00 1310.00 L 616.00 1526.00 L 615.00 1523.00 L 673.00 1301.00 L 668.00 1304.00 L 600.00 1532.00 L 599.00 1529.00 L 665.00 1295.00 L 660.00 1299.00 L 584.00 1541.00 L 583.00 1538.00 L 657.00 1290.00 L 655.00 1291.00 L 577.00 1541.00 L 556.00 1605.00 L 592.00 1483.00 L 586.00 1487.00 L 538.00 1617.00 L 558.00 1550.00 L 646.00 1286.00 L 640.00 1291.00 L 540.00 1565.00 L 539.00 1562.00 L 637.00 1282.00 L 629.00 1288.00 L 515.00 1580.00 L 514.00 1578.00 L 626.00 1282.00 L 623.00 1284.00 L 505.00 1584.00 L 468.00 1672.00 L 512.00 1548.00 L 506.00 1551.00 L 450.00 1681.00 L 485.00 1591.00 L 611.00 1281.00 L 608.00 1279.00 L 476.00 1585.00 L 434.00 1680.00 L 482.00 1564.00 L 483.00 1559.00 L 437.00 1665.00 L 435.00 1667.00 L 477.00 1565.00 L 475.00 1560.00 L 429.00 1652.00 L 471.00 1554.00 L 601.00 1266.00 L 600.00 1263.00 L 468.00 1545.00 L 418.00 1649.00 L 450.00 1575.00 L 449.00 1572.00 L 415.00 1640.00 L 413.00 1641.00 L 443.00 1575.00 L 443.00 1572.00 L 413.00 1632.00 L 410.00 1635.00 L 434.00 1581.00 L 434.00 1578.00 L 410.00 1626.00 L 408.00 1627.00 L 428.00 1581.00 L 428.00 1577.00 L 408.00 1615.00 L 405.00 1619.00 L 419.00 1589.00 L 422.00 1580.00 L 414.00 1592.00 L 471.00 1478.00 L 593.00 1238.00 L 627.00 1111.00 L 573.00 1097.00 L 538.00 1080.00 L 522.00 1060.00 L 500.00 1022.00 L 472.00 966.00 L 460.00 919.00 L 464.00 881.00 L 466.00 858.00 L 466.00 850.00 L 455.00 826.00 Z" fill="black" stroke="black" stroke-width="1"/>
</svg>