<?xml version="1.0" encoding="UTF-8"?>
<svg xmlns="http://www.w3.org/2000/svg" viewBox="443.00 233.00 853.00 1454.00">
  <path d="M 540.00 911.00 L 544.00 889.00 L 543.00 875.00 L 537.00 869.00 L 538.00 866.00 L 546.00 866.00 L 542.00 863.00 L 526.00 857.00 L 528.00 855.00 L 548.00 857.00 L 547.00 853.00 L 525.00 843.00 L 526.00 840.00 L 550.00 844.00 L 549.00 842.00 L 523.00 834.00 L 510.00 808.00 L 510.00 764.00 L 499.00 713.00 L 477.00 655.00 L 462.00 605.00 L 454.00 563.00 L 453.00 526.00 L 459.00 494.00 L 473.00 454.00 L 495.00 406.00 L 520.00 368.00 L 548.00 340.00 L 591.00 310.00 L 649.00 278.00 L 702.00 257.00 L 750.00 247.00 L 796.00 243.00 L 840.00 245.00 L 890.00 254.00 L 946.00 270.00 L 994.00 287.00 L 1034.00 305.00 L 1068.00 324.00 L 1096.00 344.00 L 1109.00 364.00 L 1107.00 384.00 L 1109.00 386.00 L 1115.00 370.00 L 1116.00 370.00 L 1112.00 386.00 L 1113.00 388.00 L 1119.00 376.00 L 1120.00 378.00 L 1116.00 394.00 L 1118.00 396.00 L 1126.00 384.00 L 1127.00 386.00 L 1121.00 402.00 L 1123.00 404.00 L 1133.00 392.00 L 1135.00 394.00 L 1129.00 410.00 L 1129.00 416.00 L 1135.00 412.00 L 1137.00 415.00 L 1135.00 425.00 L 1138.00 421.00 L 1146.00 403.00 L 1147.00 405.00 L 1141.00 427.00 L 1143.00 429.00 L 1153.00 411.00 L 1154.00 413.00 L 1146.00 435.00 L 1148.00 437.00 L 1160.00 419.00 L 1161.00 423.00 L 1151.00 449.00 L 1152.00 452.00 L 1164.00 432.00 L 1165.00 433.00 L 1155.00 455.00 L 1155.00 457.00 L 1165.00 439.00 L 1166.00 443.00 L 1158.00 469.00 L 1159.00 473.00 L 1169.00 455.00 L 1170.00 458.00 L 1162.00 482.00 L 1164.00 487.00 L 1176.00 473.00 L 1177.00 476.00 L 1167.00 496.00 L 1168.00 498.00 L 1180.00 482.00 L 1181.00 484.00 L 1171.00 504.00 L 1172.00 529.00 L 1184.00 559.00 L 1189.00 583.00 L 1187.00 601.00 L 1211.00 647.00 L 1261.00 721.00 L 1286.00 761.00 L 1286.00 767.00 L 1270.00 778.00 L 1238.00 794.00 L 1238.00 797.00 L 1270.00 787.00 L 1268.00 789.00 L 1232.00 803.00 L 1231.00 805.00 L 1265.00 795.00 L 1265.00 798.00 L 1231.00 814.00 L 1217.00 832.00 L 1223.00 852.00 L 1222.00 867.00 L 1214.00 877.00 L 1213.00 888.00 L 1219.00 900.00 L 1216.00 917.00 L 1204.00 939.00 L 1202.00 958.00 L 1210.00 974.00 L 1214.00 991.00 L 1214.00 1009.00 L 1210.00 1026.00 L 1202.00 1042.00 L 1187.00 1053.00 L 1165.00 1059.00 L 1155.00 1065.00 L 1157.00 1071.00 L 1154.00 1072.00 L 1146.00 1068.00 L 1148.00 1071.00 L 1160.00 1081.00 L 1160.00 1101.00 L 1148.00 1131.00 L 1145.00 1152.00 L 1151.00 1164.00 L 1150.00 1166.00 L 1142.00 1158.00 L 1143.00 1161.00 L 1153.00 1175.00 L 1151.00 1178.00 L 1137.00 1170.00 L 1138.00 1181.00 L 1154.00 1211.00 L 1156.00 1220.00 L 1144.00 1208.00 L 1144.00 1210.00 L 1156.00 1226.00 L 1154.00 1224.00 L 1138.00 1204.00 L 1138.00 1208.00 L 1154.00 1236.00 L 1148.00 1239.00 L 1120.00 1217.00 L 1119.00 1232.00 L 1145.00 1284.00 L 1144.00 1290.00 L 1116.00 1250.00 L 1115.00 1252.00 L 1141.00 1296.00 L 1153.00 1322.00 L 1151.00 1330.00 L 1167.00 1367.00 L 1201.00 1433.00 L 1204.00 1441.00 L 1176.00 1391.00 L 1178.00 1396.00 L 1210.00 1456.00 L 1209.00 1455.00 L 1175.00 1393.00 L 1176.00 1395.00 L 1212.00 1461.00 L 1209.00 1456.00 L 1167.00 1380.00 L 1169.00 1387.00 L 1215.00 1477.00 L 1215.00 1479.00 L 1169.00 1393.00 L 1170.00 1395.00 L 1218.00 1485.00 L 1244.00 1555.00 L 1248.00 1605.00 L 1246.00 1639.00 L 1238.00 1657.00 L 1231.00 1665.00 L 1225.00 1663.00 L 1217.00 1666.00 L 1207.00 1674.00 L 1193.00 1677.00 L 1175.00 1675.00 L 1096.00 1618.00 L 956.00 1506.00 L 852.00 1432.00 L 784.00 1396.00 L 694.00 1355.00 L 582.00 1309.00 L 522.00 1279.00 L 514.00 1265.00 L 510.00 1248.00 L 510.00 1228.00 L 518.00 1176.00 L 534.00 1092.00 L 538.00 1040.00 L 530.00 1020.00 L 529.00 991.00 L 535.00 953.00 L 538.00 931.00 L 538.00 925.00 L 540.00 911.00 Z" fill="black" stroke="black" stroke-width="1"/>
</svg>