<?xml version="1.0" encoding="UTF-8"?>
<svg xmlns="http://www.w3.org/2000/svg" viewBox="416.00 272.00 876.00 1300.00">
  <path d="M 494.00 919.00 L 494.00 905.00 L 485.00 891.00 L 467.00 877.00 L 458.00 867.00 L 458.00 861.00 L 460.00 852.00 L 464.00 840.00 L 483.00 811.00 L 517.00 765.00 L 534.00 733.00 L 534.00 715.00 L 527.00 697.00 L 513.00 679.00 L 513.00 676.00 L 527.00 688.00 L 526.00 686.00 L 510.00 670.00 L 509.00 667.00 L 523.00 677.00 L 522.00 674.00 L 506.00 658.00 L 507.00 656.00 L 525.00 668.00 L 526.00 665.00 L 510.00 647.00 L 502.00 636.00 L 502.00 632.00 L 510.00 638.00 L 526.00 654.00 L 527.00 652.00 L 513.00 632.00 L 513.00 629.00 L 527.00 643.00 L 527.00 642.00 L 513.00 626.00 L 513.00 623.00 L 527.00 633.00 L 528.00 628.00 L 516.00 608.00 L 514.00 601.00 L 522.00 607.00 L 523.00 605.00 L 517.00 595.00 L 520.00 597.00 L 532.00 611.00 L 533.00 608.00 L 523.00 588.00 L 524.00 585.00 L 536.00 599.00 L 537.00 597.00 L 527.00 579.00 L 528.00 577.00 L 540.00 591.00 L 541.00 588.00 L 531.00 568.00 L 532.00 565.00 L 544.00 579.00 L 545.00 578.00 L 535.00 562.00 L 534.00 558.00 L 542.00 566.00 L 543.00 564.00 L 537.00 552.00 L 539.00 553.00 L 549.00 567.00 L 550.00 565.00 L 542.00 547.00 L 543.00 545.00 L 553.00 559.00 L 554.00 557.00 L 546.00 539.00 L 544.00 526.00 L 548.00 518.00 L 558.00 502.00 L 574.00 478.00 L 593.00 457.00 L 615.00 439.00 L 636.00 418.00 L 656.00 394.00 L 678.00 376.00 L 702.00 364.00 L 721.00 351.00 L 735.00 337.00 L 757.00 325.00 L 787.00 315.00 L 808.00 306.00 L 820.00 298.00 L 843.00 291.00 L 877.00 285.00 L 907.00 282.00 L 933.00 282.00 L 963.00 286.00 L 997.00 294.00 L 1028.00 305.00 L 1056.00 319.00 L 1078.00 331.00 L 1094.00 341.00 L 1118.00 362.00 L 1150.00 394.00 L 1183.00 436.00 L 1217.00 488.00 L 1244.00 537.00 L 1264.00 583.00 L 1276.00 619.00 L 1280.00 645.00 L 1282.00 682.00 L 1282.00 730.00 L 1274.00 779.00 L 1258.00 829.00 L 1232.00 878.00 L 1196.00 926.00 L 1170.00 965.00 L 1154.00 995.00 L 1131.00 1008.00 L 1101.00 1004.00 L 1100.00 1006.00 L 1128.00 1014.00 L 1130.00 1015.00 L 1106.00 1009.00 L 1105.00 1010.00 L 1127.00 1018.00 L 1123.00 1020.00 L 1093.00 1016.00 L 1090.00 1019.00 L 1114.00 1029.00 L 1113.00 1031.00 L 1087.00 1025.00 L 1086.00 1026.00 L 1110.00 1034.00 L 1117.00 1037.00 L 1107.00 1035.00 L 1106.00 1036.00 L 1114.00 1040.00 L 1106.00 1039.00 L 1082.00 1033.00 L 1072.00 1040.00 L 1076.00 1060.00 L 1075.00 1106.00 L 1069.00 1178.00 L 1071.00 1233.00 L 1081.00 1271.00 L 1085.00 1289.00 L 1083.00 1287.00 L 1083.00 1295.00 L 1085.00 1313.00 L 1077.00 1335.00 L 1059.00 1361.00 L 1026.00 1385.00 L 978.00 1407.00 L 914.00 1427.00 L 834.00 1445.00 L 751.00 1467.00 L 665.00 1493.00 L 596.00 1518.00 L 544.00 1542.00 L 547.00 1487.00 L 605.00 1353.00 L 603.00 1354.00 L 541.00 1490.00 L 542.00 1487.00 L 606.00 1345.00 L 605.00 1346.00 L 539.00 1490.00 L 503.00 1562.00 L 497.00 1562.00 L 529.00 1487.00 L 599.00 1337.00 L 595.00 1342.00 L 517.00 1502.00 L 517.00 1499.00 L 595.00 1333.00 L 593.00 1332.00 L 511.00 1496.00 L 512.00 1491.00 L 596.00 1317.00 L 592.00 1319.00 L 500.00 1497.00 L 500.00 1495.00 L 592.00 1313.00 L 590.00 1312.00 L 494.00 1492.00 L 494.00 1489.00 L 590.00 1303.00 L 587.00 1301.00 L 485.00 1483.00 L 469.00 1511.00 L 539.00 1385.00 L 538.00 1383.00 L 466.00 1505.00 L 463.00 1508.00 L 529.00 1392.00 L 528.00 1390.00 L 460.00 1502.00 L 478.00 1469.00 L 582.00 1291.00 L 582.00 1290.00 L 478.00 1466.00 L 426.00 1552.00 L 426.00 1548.00 L 478.00 1458.00 L 582.00 1282.00 L 582.00 1280.00 L 478.00 1452.00 L 479.00 1450.00 L 585.00 1274.00 L 585.00 1272.00 L 479.00 1444.00 L 445.00 1497.00 L 483.00 1431.00 L 485.00 1425.00 L 451.00 1479.00 L 439.00 1497.00 L 449.00 1479.00 L 450.00 1476.00 L 442.00 1488.00 L 489.00 1412.00 L 591.00 1248.00 L 640.00 1163.00 L 636.00 1157.00 L 617.00 1150.00 L 583.00 1142.00 L 559.00 1131.00 L 545.00 1117.00 L 536.00 1106.00 L 532.00 1098.00 L 531.00 1082.00 L 533.00 1058.00 L 527.00 1036.00 L 513.00 1016.00 L 506.00 999.00 L 506.00 985.00 L 500.00 974.00 L 488.00 966.00 L 485.00 955.00 L 491.00 941.00 L 494.00 932.00 L 494.00 928.00 L 494.00 919.00 Z" fill="black" stroke="black" stroke-width="1"/>
</svg>