<?xml version="1.0" encoding="UTF-8"?>
<svg xmlns="http://www.w3.org/2000/svg" viewBox="326.00 216.00 937.00 1414.00">
  <path d="M 443.00 912.00 L 445.00 868.00 L 437.00 843.00 L 419.00 837.00 L 417.00 834.00 L 431.00 834.00 L 427.00 830.00 L 405.00 822.00 L 392.00 813.00 L 388.00 803.00 L 405.00 765.00 L 443.00 699.00 L 462.00 650.00 L 462.00 618.00 L 458.00 597.00 L 450.00 587.00 L 450.00 584.00 L 458.00 588.00 L 458.00 583.00 L 450.00 569.00 L 451.00 567.00 L 461.00 577.00 L 462.00 574.00 L 454.00 558.00 L 455.00 555.00 L 465.00 565.00 L 466.00 562.00 L 458.00 546.00 L 459.00 541.00 L 469.00 547.00 L 472.00 536.00 L 468.00 508.00 L 470.00 500.00 L 478.00 512.00 L 479.00 510.00 L 473.00 494.00 L 475.00 491.00 L 485.00 501.00 L 487.00 499.00 L 481.00 485.00 L 482.00 482.00 L 490.00 490.00 L 492.00 488.00 L 488.00 476.00 L 491.00 461.00 L 501.00 443.00 L 522.00 419.00 L 554.00 389.00 L 625.00 353.00 L 735.00 311.00 L 795.00 282.00 L 805.00 266.00 L 810.00 265.00 L 810.00 279.00 L 813.00 275.00 L 819.00 253.00 L 822.00 252.00 L 822.00 272.00 L 825.00 270.00 L 831.00 246.00 L 836.00 245.00 L 840.00 267.00 L 846.00 265.00 L 854.00 239.00 L 856.00 239.00 L 852.00 265.00 L 854.00 265.00 L 862.00 239.00 L 871.00 226.00 L 881.00 226.00 L 905.00 235.00 L 943.00 253.00 L 972.00 260.00 L 992.00 256.00 L 1012.00 276.00 L 1032.00 320.00 L 1083.00 376.00 L 1165.00 444.00 L 1219.00 523.00 L 1245.00 613.00 L 1253.00 681.00 L 1243.00 727.00 L 1214.00 764.00 L 1166.00 792.00 L 1156.00 802.00 L 1184.00 794.00 L 1174.00 801.00 L 1126.00 823.00 L 1092.00 851.00 L 1072.00 885.00 L 1041.00 917.00 L 999.00 947.00 L 975.00 972.00 L 969.00 992.00 L 965.00 1028.00 L 963.00 1080.00 L 974.00 1177.00 L 998.00 1319.00 L 936.00 1411.00 L 788.00 1453.00 L 668.00 1501.00 L 576.00 1555.00 L 555.00 1501.00 L 605.00 1339.00 L 602.00 1341.00 L 546.00 1507.00 L 546.00 1502.00 L 602.00 1326.00 L 598.00 1329.00 L 534.00 1511.00 L 534.00 1508.00 L 598.00 1320.00 L 595.00 1323.00 L 525.00 1517.00 L 525.00 1514.00 L 595.00 1314.00 L 591.00 1317.00 L 513.00 1523.00 L 513.00 1521.00 L 591.00 1311.00 L 586.00 1315.00 L 498.00 1533.00 L 498.00 1530.00 L 586.00 1306.00 L 584.00 1308.00 L 492.00 1536.00 L 492.00 1534.00 L 584.00 1302.00 L 582.00 1303.00 L 486.00 1537.00 L 468.00 1578.00 L 528.00 1426.00 L 520.00 1433.00 L 444.00 1599.00 L 461.00 1555.00 L 571.00 1301.00 L 569.00 1302.00 L 455.00 1558.00 L 432.00 1607.00 L 500.00 1449.00 L 494.00 1453.00 L 414.00 1619.00 L 437.00 1567.00 L 563.00 1297.00 L 561.00 1296.00 L 431.00 1564.00 L 403.00 1620.00 L 477.00 1464.00 L 477.00 1462.00 L 403.00 1614.00 L 401.00 1615.00 L 471.00 1465.00 L 470.00 1462.00 L 398.00 1606.00 L 427.00 1547.00 L 557.00 1285.00 L 556.00 1283.00 L 424.00 1541.00 L 424.00 1539.00 L 556.00 1277.00 L 554.00 1274.00 L 418.00 1530.00 L 382.00 1596.00 L 446.00 1472.00 L 444.00 1470.00 L 376.00 1590.00 L 373.00 1592.00 L 435.00 1476.00 L 434.00 1472.00 L 370.00 1580.00 L 408.00 1509.00 L 548.00 1259.00 L 547.00 1256.00 L 405.00 1500.00 L 359.00 1577.00 L 409.00 1487.00 L 408.00 1484.00 L 356.00 1568.00 L 354.00 1569.00 L 402.00 1487.00 L 401.00 1484.00 L 351.00 1560.00 L 347.00 1563.00 L 389.00 1493.00 L 389.00 1489.00 L 347.00 1551.00 L 398.00 1467.00 L 542.00 1237.00 L 542.00 1235.00 L 398.00 1461.00 L 342.00 1548.00 L 374.00 1496.00 L 374.00 1494.00 L 342.00 1542.00 L 340.00 1544.00 L 368.00 1500.00 L 368.00 1498.00 L 340.00 1538.00 L 336.00 1541.00 L 356.00 1507.00 L 358.00 1501.00 L 342.00 1523.00 L 339.00 1526.00 L 349.00 1510.00 L 351.00 1505.00 L 345.00 1511.00 L 408.00 1413.00 L 540.00 1211.00 L 589.00 1106.00 L 555.00 1098.00 L 518.00 1082.00 L 478.00 1058.00 L 460.00 1028.00 L 464.00 992.00 L 460.00 965.00 L 448.00 947.00 L 442.00 937.00 L 442.00 935.00 L 443.00 912.00 Z" fill="black" stroke="black" stroke-width="1"/>
</svg>