<?xml version="1.0" encoding="UTF-8"?>
<svg xmlns="http://www.w3.org/2000/svg" viewBox="286.00 224.00 882.00 1435.00">
  <path d="M 359.00 940.00 L 345.00 920.00 L 338.00 907.00 L 338.00 901.00 L 341.00 894.00 L 347.00 886.00 L 345.00 875.00 L 335.00 861.00 L 333.00 848.00 L 339.00 836.00 L 343.00 822.00 L 345.00 806.00 L 336.00 791.00 L 316.00 777.00 L 316.00 775.00 L 336.00 785.00 L 335.00 784.00 L 313.00 772.00 L 300.00 761.00 L 296.00 751.00 L 309.00 723.00 L 339.00 677.00 L 366.00 640.00 L 390.00 612.00 L 404.00 583.00 L 408.00 553.00 L 416.00 525.00 L 428.00 499.00 L 437.00 483.00 L 443.00 477.00 L 443.00 466.00 L 437.00 450.00 L 438.00 448.00 L 446.00 460.00 L 447.00 457.00 L 441.00 439.00 L 442.00 438.00 L 450.00 454.00 L 451.00 452.00 L 445.00 432.00 L 446.00 430.00 L 454.00 446.00 L 455.00 443.00 L 449.00 421.00 L 451.00 418.00 L 461.00 434.00 L 463.00 432.00 L 457.00 412.00 L 458.00 409.00 L 466.00 423.00 L 468.00 421.00 L 464.00 403.00 L 474.00 380.00 L 498.00 352.00 L 523.00 327.00 L 549.00 305.00 L 565.00 294.00 L 571.00 294.00 L 588.00 286.00 L 616.00 270.00 L 663.00 255.00 L 729.00 241.00 L 793.00 234.00 L 855.00 234.00 L 907.00 238.00 L 949.00 246.00 L 984.00 259.00 L 1012.00 277.00 L 1034.00 294.00 L 1050.00 310.00 L 1066.00 328.00 L 1082.00 348.00 L 1101.00 378.00 L 1123.00 418.00 L 1138.00 449.00 L 1146.00 471.00 L 1152.00 493.00 L 1156.00 515.00 L 1158.00 535.00 L 1158.00 553.00 L 1155.00 574.00 L 1149.00 598.00 L 1136.00 638.00 L 1116.00 694.00 L 1103.00 727.00 L 1097.00 737.00 L 1091.00 759.00 L 1085.00 793.00 L 1075.00 813.00 L 1061.00 819.00 L 1057.00 823.00 L 1063.00 825.00 L 1064.00 827.00 L 1060.00 829.00 L 1064.00 828.00 L 1076.00 824.00 L 1078.00 826.00 L 1070.00 834.00 L 1068.00 856.00 L 1072.00 892.00 L 1074.00 935.00 L 1074.00 985.00 L 1071.00 1021.00 L 1065.00 1043.00 L 1059.00 1059.00 L 1053.00 1069.00 L 1052.00 1079.00 L 1056.00 1089.00 L 1058.00 1102.00 L 1058.00 1118.00 L 1060.00 1133.00 L 1064.00 1147.00 L 1065.00 1174.00 L 1063.00 1214.00 L 1066.00 1253.00 L 1074.00 1291.00 L 1077.00 1328.00 L 1075.00 1364.00 L 1070.00 1386.00 L 1062.00 1394.00 L 1050.00 1401.00 L 1034.00 1407.00 L 1008.00 1412.00 L 972.00 1416.00 L 926.00 1424.00 L 870.00 1436.00 L 789.00 1457.00 L 683.00 1487.00 L 593.00 1517.00 L 519.00 1547.00 L 442.00 1583.00 L 362.00 1625.00 L 323.00 1643.00 L 325.00 1637.00 L 323.00 1638.00 L 317.00 1646.00 L 312.00 1649.00 L 308.00 1647.00 L 308.00 1642.00 L 312.00 1634.00 L 313.00 1631.00 L 311.00 1633.00 L 311.00 1614.00 L 313.00 1574.00 L 313.00 1555.00 L 311.00 1557.00 L 315.00 1541.00 L 325.00 1507.00 L 334.00 1481.00 L 342.00 1463.00 L 364.00 1426.00 L 400.00 1370.00 L 401.00 1367.00 L 367.00 1417.00 L 366.00 1418.00 L 398.00 1370.00 L 398.00 1369.00 L 366.00 1415.00 L 378.00 1395.00 L 434.00 1309.00 L 451.00 1280.00 L 429.00 1308.00 L 428.00 1307.00 L 448.00 1277.00 L 449.00 1274.00 L 431.00 1298.00 L 427.00 1303.00 L 437.00 1289.00 L 438.00 1287.00 L 430.00 1297.00 L 432.00 1291.00 L 444.00 1269.00 L 448.00 1254.00 L 444.00 1246.00 L 443.00 1238.00 L 445.00 1230.00 L 438.00 1233.00 L 422.00 1247.00 L 403.00 1261.00 L 381.00 1275.00 L 369.00 1281.00 L 367.00 1279.00 L 382.00 1260.00 L 414.00 1224.00 L 416.00 1220.00 L 388.00 1248.00 L 386.00 1249.00 L 410.00 1223.00 L 417.00 1214.00 L 407.00 1222.00 L 406.00 1221.00 L 414.00 1211.00 L 416.00 1206.00 L 412.00 1206.00 L 418.00 1198.00 L 434.00 1182.00 L 433.00 1181.00 L 415.00 1195.00 L 413.00 1195.00 L 427.00 1181.00 L 426.00 1180.00 L 410.00 1192.00 L 411.00 1190.00 L 429.00 1174.00 L 428.00 1172.00 L 408.00 1184.00 L 407.00 1181.00 L 425.00 1163.00 L 426.00 1160.00 L 410.00 1172.00 L 408.00 1170.00 L 420.00 1154.00 L 426.00 1143.00 L 426.00 1137.00 L 421.00 1124.00 L 411.00 1104.00 L 408.00 1090.00 L 412.00 1082.00 L 406.00 1075.00 L 390.00 1069.00 L 375.00 1058.00 L 361.00 1042.00 L 353.00 1026.00 L 351.00 1010.00 L 354.00 992.00 L 362.00 972.00 L 366.00 959.00 L 366.00 953.00 L 359.00 940.00 Z" fill="black" stroke="black" stroke-width="1"/>
</svg>