<?xml version="1.0" encoding="UTF-8"?>
<svg xmlns="http://www.w3.org/2000/svg" viewBox="315.00 203.00 953.00 1406.00">
  <path d="M 407.00 890.00 L 393.00 858.00 L 392.00 838.00 L 404.00 830.00 L 391.00 806.00 L 353.00 766.00 L 359.00 712.00 L 409.00 644.00 L 436.00 600.00 L 440.00 580.00 L 434.00 560.00 L 418.00 540.00 L 418.00 538.00 L 434.00 554.00 L 435.00 551.00 L 421.00 529.00 L 421.00 524.00 L 435.00 536.00 L 436.00 533.00 L 424.00 515.00 L 424.00 513.00 L 436.00 527.00 L 437.00 526.00 L 427.00 510.00 L 428.00 507.00 L 440.00 517.00 L 442.00 512.00 L 434.00 492.00 L 435.00 486.00 L 445.00 494.00 L 448.00 490.00 L 444.00 474.00 L 446.00 468.00 L 454.00 472.00 L 456.00 468.00 L 452.00 456.00 L 463.00 433.00 L 489.00 399.00 L 547.00 366.00 L 637.00 334.00 L 683.00 303.00 L 685.00 273.00 L 687.00 273.00 L 689.00 303.00 L 690.00 300.00 L 690.00 264.00 L 692.00 263.00 L 696.00 297.00 L 698.00 295.00 L 698.00 257.00 L 700.00 257.00 L 704.00 295.00 L 709.00 291.00 L 715.00 245.00 L 718.00 245.00 L 718.00 291.00 L 721.00 290.00 L 727.00 242.00 L 734.00 241.00 L 742.00 287.00 L 748.00 287.00 L 752.00 241.00 L 757.00 240.00 L 763.00 284.00 L 769.00 285.00 L 775.00 243.00 L 806.00 219.00 L 862.00 213.00 L 905.00 227.00 L 935.00 261.00 L 994.00 305.00 L 1082.00 359.00 L 1156.00 425.00 L 1216.00 503.00 L 1250.00 558.00 L 1258.00 590.00 L 1216.00 633.00 L 1124.00 687.00 L 1124.00 692.00 L 1216.00 648.00 L 1214.00 651.00 L 1118.00 701.00 L 1117.00 703.00 L 1211.00 657.00 L 1210.00 659.00 L 1114.00 709.00 L 1114.00 711.00 L 1210.00 665.00 L 1207.00 668.00 L 1105.00 720.00 L 1105.00 722.00 L 1207.00 674.00 L 1205.00 676.00 L 1099.00 728.00 L 1098.00 730.00 L 1202.00 682.00 L 1189.00 689.00 L 1059.00 751.00 L 1057.00 755.00 L 1183.00 701.00 L 1182.00 703.00 L 1054.00 761.00 L 1053.00 763.00 L 1179.00 709.00 L 1178.00 710.00 L 1050.00 766.00 L 1048.00 769.00 L 1172.00 719.00 L 1172.00 720.00 L 1048.00 772.00 L 1046.00 775.00 L 1166.00 729.00 L 1166.00 732.00 L 1046.00 784.00 L 979.00 824.00 L 965.00 852.00 L 957.00 897.00 L 955.00 959.00 L 972.00 1044.00 L 1008.00 1152.00 L 1028.00 1239.00 L 1032.00 1305.00 L 973.00 1358.00 L 851.00 1398.00 L 732.00 1444.00 L 616.00 1496.00 L 539.00 1537.00 L 501.00 1567.00 L 512.00 1493.00 L 572.00 1315.00 L 570.00 1316.00 L 506.00 1496.00 L 506.00 1493.00 L 570.00 1307.00 L 568.00 1308.00 L 500.00 1496.00 L 501.00 1493.00 L 571.00 1299.00 L 569.00 1300.00 L 495.00 1496.00 L 495.00 1493.00 L 569.00 1291.00 L 564.00 1294.00 L 480.00 1502.00 L 482.00 1492.00 L 570.00 1264.00 L 565.00 1267.00 L 467.00 1501.00 L 467.00 1500.00 L 565.00 1264.00 L 560.00 1267.00 L 452.00 1509.00 L 452.00 1506.00 L 560.00 1258.00 L 553.00 1263.00 L 431.00 1521.00 L 431.00 1517.00 L 553.00 1251.00 L 550.00 1252.00 L 422.00 1520.00 L 393.00 1579.00 L 463.00 1429.00 L 461.00 1431.00 L 387.00 1585.00 L 385.00 1587.00 L 455.00 1437.00 L 447.00 1441.00 L 361.00 1599.00 L 391.00 1535.00 L 537.00 1249.00 L 535.00 1247.00 L 385.00 1529.00 L 385.00 1526.00 L 535.00 1238.00 L 534.00 1229.00 L 382.00 1499.00 L 337.00 1577.00 L 399.00 1463.00 L 399.00 1460.00 L 337.00 1568.00 L 336.00 1569.00 L 396.00 1463.00 L 395.00 1461.00 L 333.00 1563.00 L 330.00 1565.00 L 386.00 1467.00 L 386.00 1464.00 L 330.00 1556.00 L 328.00 1557.00 L 380.00 1467.00 L 380.00 1464.00 L 328.00 1548.00 L 325.00 1550.00 L 371.00 1470.00 L 372.00 1465.00 L 328.00 1535.00 L 381.00 1448.00 L 531.00 1204.00 L 531.00 1202.00 L 381.00 1442.00 L 381.00 1439.00 L 531.00 1193.00 L 598.00 1060.00 L 582.00 1040.00 L 536.00 1021.00 L 460.00 1003.00 L 421.00 975.00 L 419.00 937.00 L 417.00 915.00 L 415.00 909.00 L 407.00 890.00 Z" fill="black" stroke="black" stroke-width="1"/>
</svg>