<?xml version="1.0" encoding="UTF-8"?>
<svg xmlns="http://www.w3.org/2000/svg" viewBox="269.00 295.00 869.00 1484.00">
  <path d="M 349.00 1019.00 L 355.00 981.00 L 364.00 950.00 L 376.00 926.00 L 378.00 912.00 L 370.00 908.00 L 369.00 905.00 L 375.00 903.00 L 373.00 900.00 L 363.00 896.00 L 359.00 891.00 L 361.00 885.00 L 360.00 879.00 L 356.00 873.00 L 353.00 857.00 L 351.00 831.00 L 338.00 787.00 L 314.00 725.00 L 301.00 675.00 L 299.00 637.00 L 300.00 607.00 L 304.00 585.00 L 314.00 556.00 L 330.00 520.00 L 349.00 487.00 L 371.00 457.00 L 396.00 428.00 L 424.00 400.00 L 457.00 373.00 L 495.00 347.00 L 525.00 329.00 L 547.00 319.00 L 585.00 311.00 L 639.00 305.00 L 691.00 306.00 L 741.00 314.00 L 788.00 325.00 L 832.00 339.00 L 887.00 370.00 L 953.00 418.00 L 984.00 450.00 L 980.00 466.00 L 981.00 468.00 L 987.00 456.00 L 988.00 458.00 L 984.00 474.00 L 986.00 477.00 L 994.00 467.00 L 995.00 470.00 L 989.00 486.00 L 990.00 488.00 L 998.00 476.00 L 1000.00 478.00 L 996.00 494.00 L 997.00 497.00 L 1003.00 487.00 L 1004.00 490.00 L 1000.00 506.00 L 1001.00 509.00 L 1007.00 499.00 L 1008.00 501.00 L 1004.00 515.00 L 1007.00 531.00 L 1017.00 549.00 L 1028.00 578.00 L 1040.00 618.00 L 1047.00 659.00 L 1049.00 701.00 L 1066.00 743.00 L 1098.00 785.00 L 1118.00 815.00 L 1126.00 833.00 L 1128.00 845.00 L 1124.00 851.00 L 1108.00 861.00 L 1080.00 875.00 L 1079.00 876.00 L 1105.00 864.00 L 1104.00 865.00 L 1076.00 879.00 L 1061.00 889.00 L 1059.00 895.00 L 1060.00 910.00 L 1064.00 934.00 L 1063.00 952.00 L 1057.00 964.00 L 1058.00 977.00 L 1066.00 991.00 L 1064.00 1008.00 L 1052.00 1028.00 L 1046.00 1053.00 L 1046.00 1083.00 L 1044.00 1106.00 L 1040.00 1122.00 L 1030.00 1137.00 L 1014.00 1151.00 L 991.00 1161.00 L 961.00 1167.00 L 949.00 1173.00 L 955.00 1179.00 L 958.00 1185.00 L 958.00 1191.00 L 952.00 1199.00 L 940.00 1209.00 L 928.00 1224.00 L 916.00 1244.00 L 918.00 1264.00 L 934.00 1284.00 L 933.00 1285.00 L 915.00 1267.00 L 914.00 1269.00 L 930.00 1291.00 L 929.00 1293.00 L 911.00 1275.00 L 910.00 1277.00 L 926.00 1299.00 L 926.00 1302.00 L 910.00 1286.00 L 908.00 1287.00 L 920.00 1305.00 L 916.00 1315.00 L 896.00 1317.00 L 888.00 1324.00 L 892.00 1336.00 L 893.00 1341.00 L 891.00 1339.00 L 908.00 1371.00 L 944.00 1437.00 L 942.00 1435.00 L 902.00 1365.00 L 924.00 1408.00 L 1008.00 1564.00 L 1021.00 1590.00 L 963.00 1486.00 L 964.00 1489.00 L 1024.00 1599.00 L 1013.00 1579.00 L 931.00 1429.00 L 931.00 1432.00 L 1013.00 1588.00 L 1016.00 1595.00 L 940.00 1453.00 L 941.00 1456.00 L 1019.00 1604.00 L 1018.00 1603.00 L 938.00 1453.00 L 938.00 1457.00 L 1018.00 1615.00 L 1014.00 1610.00 L 926.00 1442.00 L 926.00 1444.00 L 1014.00 1616.00 L 1058.00 1705.00 L 1058.00 1711.00 L 1014.00 1627.00 L 926.00 1453.00 L 926.00 1455.00 L 1014.00 1633.00 L 1052.00 1733.00 L 1040.00 1755.00 L 1027.00 1767.00 L 1013.00 1769.00 L 1001.00 1768.00 L 991.00 1764.00 L 951.00 1731.00 L 881.00 1669.00 L 808.00 1616.00 L 732.00 1572.00 L 659.00 1537.00 L 589.00 1511.00 L 534.00 1494.00 L 494.00 1486.00 L 469.00 1484.00 L 459.00 1488.00 L 455.00 1488.00 L 457.00 1484.00 L 455.00 1483.00 L 449.00 1485.00 L 439.00 1483.00 L 425.00 1477.00 L 388.00 1474.00 L 328.00 1474.00 L 294.00 1470.00 L 286.00 1462.00 L 281.00 1446.00 L 279.00 1422.00 L 280.00 1400.00 L 284.00 1380.00 L 295.00 1347.00 L 313.00 1301.00 L 325.00 1263.00 L 331.00 1233.00 L 335.00 1205.00 L 337.00 1179.00 L 336.00 1154.00 L 332.00 1130.00 L 334.00 1100.00 L 342.00 1064.00 L 346.00 1044.00 L 346.00 1040.00 L 349.00 1019.00 Z" fill="black" stroke="black" stroke-width="1"/>
</svg>