<?xml version="1.0" encoding="UTF-8"?>
<svg xmlns="http://www.w3.org/2000/svg" viewBox="152.00 262.00 982.00 1376.00">
  <path d="M 442.00 886.00 L 410.00 854.00 L 352.00 825.00 L 268.00 799.00 L 266.00 796.00 L 346.00 816.00 L 342.00 814.00 L 254.00 790.00 L 253.00 788.00 L 339.00 808.00 L 334.00 803.00 L 238.00 773.00 L 237.00 771.00 L 331.00 797.00 L 328.00 793.00 L 228.00 759.00 L 227.00 757.00 L 325.00 787.00 L 324.00 785.00 L 224.00 751.00 L 223.00 749.00 L 321.00 779.00 L 320.00 776.00 L 220.00 740.00 L 219.00 738.00 L 317.00 770.00 L 317.00 768.00 L 219.00 732.00 L 168.00 708.00 L 164.00 696.00 L 162.00 679.00 L 162.00 657.00 L 174.00 616.00 L 198.00 556.00 L 237.00 496.00 L 291.00 436.00 L 344.00 397.00 L 396.00 379.00 L 430.00 363.00 L 446.00 349.00 L 465.00 338.00 L 487.00 330.00 L 512.00 311.00 L 540.00 281.00 L 563.00 272.00 L 581.00 284.00 L 612.00 287.00 L 656.00 281.00 L 692.00 280.00 L 720.00 284.00 L 735.00 307.00 L 737.00 349.00 L 740.00 350.00 L 744.00 310.00 L 747.00 311.00 L 749.00 353.00 L 751.00 353.00 L 753.00 311.00 L 756.00 291.00 L 760.00 293.00 L 761.00 314.00 L 759.00 354.00 L 761.00 355.00 L 767.00 317.00 L 769.00 317.00 L 767.00 355.00 L 769.00 357.00 L 775.00 323.00 L 777.00 323.00 L 775.00 357.00 L 777.00 360.00 L 783.00 332.00 L 785.00 332.00 L 783.00 360.00 L 784.00 362.00 L 788.00 338.00 L 790.00 338.00 L 790.00 362.00 L 824.00 386.00 L 892.00 410.00 L 953.00 441.00 L 1007.00 479.00 L 1043.00 520.00 L 1061.00 564.00 L 1065.00 591.00 L 1055.00 601.00 L 1055.00 602.00 L 1065.00 594.00 L 1066.00 595.00 L 1058.00 605.00 L 1059.00 608.00 L 1069.00 604.00 L 1069.00 607.00 L 1059.00 617.00 L 1059.00 618.00 L 1069.00 610.00 L 1069.00 614.00 L 1059.00 630.00 L 1059.00 634.00 L 1069.00 626.00 L 1070.00 629.00 L 1062.00 643.00 L 1063.00 648.00 L 1073.00 644.00 L 1073.00 647.00 L 1063.00 657.00 L 1064.00 659.00 L 1076.00 653.00 L 1076.00 659.00 L 1064.00 677.00 L 1065.00 683.00 L 1079.00 677.00 L 1079.00 680.00 L 1065.00 692.00 L 1057.00 700.00 L 1055.00 704.00 L 1062.00 701.00 L 1078.00 691.00 L 1078.00 694.00 L 1062.00 710.00 L 1063.00 713.00 L 1081.00 703.00 L 1080.00 706.00 L 1060.00 722.00 L 1060.00 725.00 L 1080.00 715.00 L 1079.00 720.00 L 1057.00 740.00 L 1064.00 779.00 L 1100.00 837.00 L 1120.00 874.00 L 1124.00 890.00 L 1123.00 903.00 L 1117.00 913.00 L 1101.00 920.00 L 1075.00 924.00 L 1061.00 945.00 L 1059.00 983.00 L 1052.00 1010.00 L 1040.00 1026.00 L 1033.00 1044.00 L 1031.00 1064.00 L 1025.00 1081.00 L 1015.00 1095.00 L 991.00 1104.00 L 953.00 1108.00 L 922.00 1106.00 L 898.00 1098.00 L 881.00 1099.00 L 871.00 1109.00 L 868.00 1118.00 L 872.00 1126.00 L 869.00 1138.00 L 859.00 1154.00 L 902.00 1261.00 L 998.00 1459.00 L 1042.00 1551.00 L 1034.00 1537.00 L 1036.00 1543.00 L 1048.00 1569.00 L 1046.00 1566.00 L 1030.00 1534.00 L 1031.00 1537.00 L 1049.00 1575.00 L 1024.00 1527.00 L 956.00 1393.00 L 956.00 1396.00 L 1024.00 1536.00 L 1021.00 1531.00 L 947.00 1381.00 L 947.00 1384.00 L 1021.00 1540.00 L 1005.00 1507.00 L 899.00 1285.00 L 898.00 1290.00 L 1002.00 1522.00 L 1002.00 1525.00 L 898.00 1299.00 L 898.00 1302.00 L 1002.00 1534.00 L 1010.00 1554.00 L 922.00 1362.00 L 921.00 1365.00 L 1007.00 1563.00 L 998.00 1544.00 L 894.00 1308.00 L 894.00 1310.00 L 998.00 1550.00 L 998.00 1552.00 L 894.00 1316.00 L 892.00 1318.00 L 992.00 1558.00 L 996.00 1570.00 L 904.00 1354.00 L 901.00 1352.00 L 987.00 1564.00 L 983.00 1555.00 L 889.00 1325.00 L 888.00 1324.00 L 980.00 1552.00 L 980.00 1554.00 L 888.00 1330.00 L 884.00 1328.00 L 968.00 1548.00 L 971.00 1628.00 L 893.00 1568.00 L 811.00 1512.00 L 725.00 1460.00 L 645.00 1415.00 L 571.00 1377.00 L 505.00 1347.00 L 447.00 1325.00 L 416.00 1301.00 L 412.00 1275.00 L 413.00 1252.00 L 419.00 1232.00 L 420.00 1224.00 L 416.00 1228.00 L 425.00 1207.00 L 447.00 1161.00 L 462.00 1106.00 L 470.00 1042.00 L 481.00 997.00 L 495.00 971.00 L 502.00 954.00 L 502.00 946.00 L 493.00 935.00 L 475.00 921.00 L 464.00 911.00 L 460.00 905.00 L 442.00 886.00 Z" fill="black" stroke="black" stroke-width="1"/>
</svg>