<?xml version="1.0" encoding="UTF-8"?>
<svg xmlns="http://www.w3.org/2000/svg" viewBox="300.00 242.00 991.00 1459.00">
  <path d="M 384.00 962.00 L 380.00 954.00 L 366.00 944.00 L 342.00 932.00 L 329.00 920.00 L 327.00 908.00 L 343.00 872.00 L 377.00 812.00 L 394.00 775.00 L 394.00 761.00 L 387.00 746.00 L 373.00 730.00 L 373.00 727.00 L 387.00 737.00 L 388.00 735.00 L 376.00 721.00 L 376.00 718.00 L 388.00 726.00 L 387.00 721.00 L 373.00 703.00 L 372.00 698.00 L 384.00 706.00 L 385.00 703.00 L 375.00 689.00 L 375.00 686.00 L 385.00 694.00 L 386.00 689.00 L 378.00 671.00 L 379.00 665.00 L 389.00 671.00 L 389.00 668.00 L 379.00 656.00 L 379.00 654.00 L 389.00 662.00 L 391.00 659.00 L 385.00 645.00 L 386.00 641.00 L 394.00 647.00 L 383.00 634.00 L 353.00 602.00 L 346.00 594.00 L 362.00 610.00 L 360.00 607.00 L 340.00 585.00 L 343.00 587.00 L 369.00 613.00 L 365.00 607.00 L 331.00 569.00 L 332.00 569.00 L 368.00 607.00 L 367.00 605.00 L 329.00 563.00 L 310.00 537.00 L 310.00 527.00 L 323.00 517.00 L 349.00 507.00 L 384.00 505.00 L 428.00 511.00 L 457.00 512.00 L 471.00 508.00 L 507.00 473.00 L 565.00 407.00 L 617.00 351.00 L 663.00 305.00 L 696.00 276.00 L 716.00 264.00 L 738.00 256.00 L 762.00 252.00 L 797.00 254.00 L 843.00 262.00 L 897.00 284.00 L 959.00 320.00 L 995.00 336.00 L 1005.00 332.00 L 1027.00 345.00 L 1061.00 375.00 L 1076.00 394.00 L 1072.00 402.00 L 1074.00 403.00 L 1082.00 397.00 L 1083.00 399.00 L 1077.00 409.00 L 1076.00 412.00 L 1080.00 408.00 L 1098.00 414.00 L 1130.00 430.00 L 1177.00 468.00 L 1239.00 528.00 L 1273.00 568.00 L 1279.00 588.00 L 1281.00 627.00 L 1279.00 685.00 L 1268.00 753.00 L 1248.00 831.00 L 1230.00 883.00 L 1214.00 909.00 L 1166.00 943.00 L 1086.00 985.00 L 1021.00 1006.00 L 971.00 1006.00 L 955.00 1008.00 L 973.00 1012.00 L 970.00 1014.00 L 946.00 1014.00 L 929.00 1025.00 L 919.00 1047.00 L 912.00 1077.00 L 908.00 1115.00 L 926.00 1186.00 L 966.00 1290.00 L 983.00 1353.00 L 977.00 1375.00 L 968.00 1391.00 L 956.00 1401.00 L 922.00 1414.00 L 866.00 1430.00 L 808.00 1453.00 L 748.00 1483.00 L 688.00 1517.00 L 628.00 1555.00 L 548.00 1613.00 L 448.00 1691.00 L 446.00 1609.00 L 542.00 1367.00 L 539.00 1369.00 L 437.00 1615.00 L 437.00 1612.00 L 539.00 1360.00 L 536.00 1363.00 L 428.00 1621.00 L 419.00 1642.00 L 509.00 1426.00 L 507.00 1424.00 L 413.00 1636.00 L 423.00 1610.00 L 537.00 1346.00 L 537.00 1343.00 L 423.00 1601.00 L 409.00 1632.00 L 495.00 1436.00 L 494.00 1434.00 L 406.00 1626.00 L 404.00 1628.00 L 488.00 1440.00 L 488.00 1438.00 L 404.00 1622.00 L 400.00 1627.00 L 476.00 1453.00 L 476.00 1447.00 L 400.00 1609.00 L 419.00 1568.00 L 533.00 1324.00 L 533.00 1321.00 L 419.00 1559.00 L 396.00 1604.00 L 464.00 1456.00 L 463.00 1453.00 L 393.00 1595.00 L 416.00 1547.00 L 532.00 1309.00 L 531.00 1306.00 L 413.00 1538.00 L 384.00 1592.00 L 444.00 1468.00 L 443.00 1466.00 L 381.00 1586.00 L 379.00 1588.00 L 437.00 1472.00 L 436.00 1469.00 L 376.00 1579.00 L 397.00 1538.00 L 499.00 1346.00 L 498.00 1344.00 L 394.00 1532.00 L 403.00 1514.00 L 525.00 1290.00 L 524.00 1287.00 L 400.00 1505.00 L 394.00 1513.00 L 506.00 1311.00 L 506.00 1306.00 L 394.00 1498.00 L 387.00 1509.00 L 485.00 1339.00 L 485.00 1337.00 L 387.00 1503.00 L 398.00 1484.00 L 518.00 1280.00 L 518.00 1278.00 L 398.00 1478.00 L 339.00 1576.00 L 341.00 1572.00 L 401.00 1471.00 L 519.00 1273.00 L 521.00 1268.00 L 407.00 1456.00 L 408.00 1454.00 L 524.00 1262.00 L 522.00 1265.00 L 402.00 1463.00 L 389.00 1482.00 L 483.00 1322.00 L 485.00 1310.00 L 395.00 1446.00 L 407.00 1425.00 L 521.00 1247.00 L 566.00 1176.00 L 542.00 1212.00 L 537.00 1217.00 L 551.00 1191.00 L 557.00 1175.00 L 555.00 1169.00 L 549.00 1171.00 L 539.00 1181.00 L 540.00 1178.00 L 552.00 1162.00 L 549.00 1164.00 L 531.00 1184.00 L 529.00 1185.00 L 543.00 1167.00 L 541.00 1166.00 L 523.00 1182.00 L 513.00 1186.00 L 511.00 1178.00 L 518.00 1164.00 L 534.00 1144.00 L 535.00 1141.00 L 521.00 1155.00 L 519.00 1155.00 L 529.00 1141.00 L 510.00 1132.00 L 462.00 1128.00 L 430.00 1120.00 L 414.00 1108.00 L 401.00 1070.00 L 391.00 1006.00 L 386.00 972.00 L 386.00 968.00 L 384.00 962.00 Z" fill="black" stroke="black" stroke-width="1"/>
</svg>