<?xml version="1.0" encoding="UTF-8"?>
<svg xmlns="http://www.w3.org/2000/svg" viewBox="369.00 206.00 779.00 1466.00">
  <path d="M 459.00 902.00 L 477.00 898.00 L 477.00 895.00 L 459.00 893.00 L 458.00 891.00 L 474.00 889.00 L 474.00 887.00 L 458.00 885.00 L 450.00 862.00 L 450.00 818.00 L 433.00 757.00 L 399.00 679.00 L 381.00 613.00 L 379.00 559.00 L 383.00 508.00 L 393.00 460.00 L 407.00 418.00 L 425.00 382.00 L 444.00 351.00 L 464.00 325.00 L 496.00 297.00 L 540.00 267.00 L 591.00 243.00 L 649.00 225.00 L 701.00 216.00 L 747.00 216.00 L 772.00 218.00 L 776.00 222.00 L 789.00 223.00 L 811.00 221.00 L 835.00 223.00 L 861.00 229.00 L 895.00 245.00 L 937.00 271.00 L 983.00 315.00 L 1033.00 377.00 L 1061.00 415.00 L 1067.00 429.00 L 1067.00 442.00 L 1061.00 454.00 L 1059.00 462.00 L 1061.00 466.00 L 1066.00 463.00 L 1074.00 453.00 L 1079.00 449.00 L 1081.00 451.00 L 1078.00 461.00 L 1070.00 479.00 L 1071.00 482.00 L 1081.00 470.00 L 1084.00 467.00 L 1080.00 473.00 L 1081.00 474.00 L 1087.00 470.00 L 1085.00 478.00 L 1075.00 498.00 L 1076.00 501.00 L 1088.00 487.00 L 1088.00 490.00 L 1076.00 510.00 L 1077.00 511.00 L 1091.00 493.00 L 1091.00 496.00 L 1077.00 520.00 L 1076.00 526.00 L 1088.00 514.00 L 1088.00 516.00 L 1076.00 532.00 L 1078.00 530.00 L 1094.00 510.00 L 1103.00 502.00 L 1105.00 506.00 L 1098.00 519.00 L 1082.00 541.00 L 1082.00 543.00 L 1098.00 525.00 L 1098.00 528.00 L 1082.00 552.00 L 1083.00 554.00 L 1101.00 534.00 L 1101.00 537.00 L 1083.00 563.00 L 1084.00 565.00 L 1104.00 543.00 L 1104.00 546.00 L 1084.00 574.00 L 1073.00 601.00 L 1071.00 627.00 L 1090.00 676.00 L 1130.00 748.00 L 1138.00 791.00 L 1114.00 805.00 L 1112.00 809.00 L 1132.00 803.00 L 1129.00 804.00 L 1103.00 812.00 L 1102.00 813.00 L 1126.00 807.00 L 1125.00 808.00 L 1099.00 816.00 L 1095.00 818.00 L 1113.00 814.00 L 1112.00 816.00 L 1092.00 824.00 L 1085.00 836.00 L 1091.00 852.00 L 1089.00 866.00 L 1079.00 878.00 L 1076.00 891.00 L 1080.00 905.00 L 1076.00 920.00 L 1064.00 936.00 L 1059.00 958.00 L 1061.00 986.00 L 1059.00 1008.00 L 1053.00 1024.00 L 1037.00 1038.00 L 1011.00 1050.00 L 998.00 1064.00 L 998.00 1080.00 L 989.00 1097.00 L 971.00 1115.00 L 956.00 1136.00 L 944.00 1160.00 L 963.00 1223.00 L 1013.00 1325.00 L 1012.00 1328.00 L 960.00 1232.00 L 981.00 1273.00 L 1075.00 1451.00 L 1075.00 1453.00 L 981.00 1279.00 L 982.00 1284.00 L 1078.00 1468.00 L 1088.00 1489.00 L 1012.00 1347.00 L 1012.00 1350.00 L 1088.00 1498.00 L 1096.00 1514.00 L 1036.00 1398.00 L 1037.00 1401.00 L 1099.00 1523.00 L 1097.00 1520.00 L 1031.00 1392.00 L 1031.00 1394.00 L 1097.00 1526.00 L 1092.00 1517.00 L 1016.00 1367.00 L 1015.00 1368.00 L 1089.00 1520.00 L 1126.00 1602.00 L 1126.00 1614.00 L 1120.00 1629.00 L 1108.00 1647.00 L 1093.00 1658.00 L 1075.00 1662.00 L 1051.00 1657.00 L 1021.00 1643.00 L 987.00 1620.00 L 949.00 1588.00 L 925.00 1571.00 L 915.00 1569.00 L 909.00 1565.00 L 907.00 1559.00 L 905.00 1558.00 L 903.00 1562.00 L 900.00 1560.00 L 896.00 1552.00 L 876.00 1535.00 L 840.00 1509.00 L 780.00 1473.00 L 696.00 1427.00 L 625.00 1392.00 L 567.00 1368.00 L 515.00 1351.00 L 469.00 1341.00 L 434.00 1329.00 L 410.00 1315.00 L 394.00 1298.00 L 386.00 1278.00 L 390.00 1255.00 L 406.00 1229.00 L 422.00 1196.00 L 438.00 1156.00 L 444.00 1127.00 L 440.00 1109.00 L 439.00 1090.00 L 441.00 1070.00 L 447.00 1044.00 L 457.00 1012.00 L 462.00 986.00 L 462.00 966.00 L 468.00 947.00 L 480.00 929.00 L 479.00 918.00 L 465.00 914.00 L 465.00 911.00 L 479.00 909.00 L 481.00 908.00 L 471.00 908.00 L 462.00 907.00 L 454.00 905.00 L 459.00 902.00 Z" fill="black" stroke="black" stroke-width="1"/>
</svg>