<?xml version="1.0" encoding="UTF-8"?>
<svg xmlns="http://www.w3.org/2000/svg" viewBox="268.00 248.00 818.00 1505.00">
  <path d="M 307.00 1009.00 L 341.00 1007.00 L 341.00 1005.00 L 307.00 1003.00 L 305.00 1002.00 L 335.00 1002.00 L 336.00 999.00 L 308.00 993.00 L 311.00 991.00 L 345.00 993.00 L 340.00 990.00 L 296.00 982.00 L 296.00 979.00 L 340.00 981.00 L 340.00 979.00 L 296.00 973.00 L 297.00 970.00 L 343.00 970.00 L 354.00 967.00 L 330.00 961.00 L 331.00 958.00 L 357.00 958.00 L 359.00 952.00 L 337.00 940.00 L 338.00 936.00 L 362.00 940.00 L 361.00 937.00 L 335.00 927.00 L 336.00 925.00 L 364.00 931.00 L 363.00 927.00 L 333.00 913.00 L 314.00 820.00 L 306.00 648.00 L 312.00 528.00 L 332.00 460.00 L 357.00 405.00 L 387.00 363.00 L 447.00 321.00 L 537.00 279.00 L 612.00 258.00 L 672.00 258.00 L 738.00 270.00 L 810.00 294.00 L 872.00 325.00 L 924.00 363.00 L 964.00 424.00 L 992.00 508.00 L 1004.00 572.00 L 1000.00 616.00 L 1021.00 673.00 L 1067.00 743.00 L 1073.00 789.00 L 1039.00 811.00 L 1040.00 814.00 L 1076.00 798.00 L 1076.00 801.00 L 1040.00 823.00 L 1036.00 829.00 L 1064.00 819.00 L 1064.00 821.00 L 1036.00 835.00 L 1023.00 859.00 L 1025.00 893.00 L 1020.00 924.00 L 1008.00 952.00 L 1006.00 980.00 L 1014.00 1008.00 L 993.00 1072.00 L 943.00 1172.00 L 921.00 1229.00 L 927.00 1243.00 L 922.00 1244.00 L 906.00 1232.00 L 904.00 1233.00 L 916.00 1247.00 L 917.00 1250.00 L 907.00 1242.00 L 898.00 1247.00 L 890.00 1265.00 L 896.00 1291.00 L 916.00 1325.00 L 925.00 1360.00 L 923.00 1396.00 L 938.00 1456.00 L 970.00 1540.00 L 984.00 1623.00 L 980.00 1705.00 L 968.00 1743.00 L 948.00 1737.00 L 871.00 1686.00 L 737.00 1590.00 L 586.00 1509.00 L 418.00 1443.00 L 325.00 1402.00 L 307.00 1386.00 L 296.00 1356.00 L 292.00 1312.00 L 287.00 1290.00 L 281.00 1290.00 L 284.00 1283.00 L 296.00 1269.00 L 294.00 1266.00 L 278.00 1274.00 L 279.00 1271.00 L 297.00 1257.00 L 297.00 1255.00 L 279.00 1265.00 L 280.00 1262.00 L 300.00 1246.00 L 300.00 1244.00 L 280.00 1256.00 L 281.00 1254.00 L 303.00 1238.00 L 304.00 1235.00 L 284.00 1245.00 L 286.00 1237.00 L 310.00 1211.00 L 313.00 1203.00 L 295.00 1213.00 L 295.00 1212.00 L 313.00 1200.00 L 313.00 1196.00 L 295.00 1200.00 L 296.00 1196.00 L 316.00 1184.00 L 317.00 1182.00 L 299.00 1190.00 L 300.00 1186.00 L 320.00 1170.00 L 321.00 1165.00 L 303.00 1171.00 L 305.00 1168.00 L 327.00 1156.00 L 327.00 1154.00 L 305.00 1162.00 L 306.00 1160.00 L 330.00 1148.00 L 331.00 1146.00 L 309.00 1154.00 L 310.00 1152.00 L 334.00 1140.00 L 334.00 1138.00 L 310.00 1146.00 L 310.00 1142.00 L 334.00 1126.00 L 335.00 1122.00 L 313.00 1130.00 L 312.00 1127.00 L 332.00 1113.00 L 333.00 1107.00 L 315.00 1109.00 L 315.00 1106.00 L 333.00 1098.00 L 333.00 1096.00 L 315.00 1100.00 L 315.00 1097.00 L 333.00 1087.00 L 334.00 1082.00 L 318.00 1082.00 L 319.00 1079.00 L 337.00 1073.00 L 337.00 1068.00 L 319.00 1064.00 L 320.00 1060.00 L 340.00 1056.00 L 340.00 1054.00 L 320.00 1054.00 L 320.00 1052.00 L 340.00 1048.00 L 333.00 1046.00 L 299.00 1046.00 L 300.00 1042.00 L 336.00 1034.00 L 336.00 1031.00 L 300.00 1033.00 L 301.00 1029.00 L 339.00 1019.00 L 347.00 1014.00 L 325.00 1014.00 L 308.00 1013.00 L 296.00 1011.00 L 307.00 1009.00 Z" fill="black" stroke="black" stroke-width="1"/>
</svg>