<?xml version="1.0" encoding="UTF-8"?>
<svg xmlns="http://www.w3.org/2000/svg" viewBox="372.00 269.00 857.00 1383.00">
  <path d="M 476.00 936.00 L 480.00 924.00 L 487.00 912.00 L 497.00 900.00 L 498.00 893.00 L 490.00 891.00 L 489.00 888.00 L 495.00 884.00 L 493.00 881.00 L 483.00 879.00 L 484.00 879.00 L 496.00 881.00 L 495.00 879.00 L 481.00 873.00 L 472.00 859.00 L 468.00 837.00 L 449.00 793.00 L 415.00 727.00 L 394.00 679.00 L 386.00 649.00 L 382.00 612.00 L 382.00 568.00 L 384.00 538.00 L 388.00 522.00 L 400.00 494.00 L 420.00 454.00 L 440.00 422.00 L 460.00 398.00 L 493.00 368.00 L 539.00 332.00 L 579.00 306.00 L 613.00 290.00 L 659.00 281.00 L 717.00 279.00 L 765.00 279.00 L 803.00 281.00 L 828.00 285.00 L 840.00 291.00 L 858.00 296.00 L 882.00 300.00 L 917.00 314.00 L 963.00 338.00 L 1001.00 362.00 L 1031.00 386.00 L 1057.00 410.00 L 1079.00 434.00 L 1089.00 454.00 L 1087.00 470.00 L 1089.00 474.00 L 1095.00 466.00 L 1096.00 469.00 L 1092.00 483.00 L 1093.00 485.00 L 1099.00 475.00 L 1101.00 474.00 L 1099.00 482.00 L 1100.00 484.00 L 1104.00 480.00 L 1103.00 484.00 L 1097.00 496.00 L 1098.00 497.00 L 1106.00 487.00 L 1107.00 488.00 L 1101.00 500.00 L 1102.00 502.00 L 1110.00 494.00 L 1111.00 496.00 L 1105.00 508.00 L 1106.00 510.00 L 1114.00 502.00 L 1115.00 505.00 L 1109.00 519.00 L 1110.00 522.00 L 1118.00 514.00 L 1119.00 517.00 L 1113.00 531.00 L 1114.00 533.00 L 1122.00 523.00 L 1123.00 525.00 L 1117.00 539.00 L 1117.00 544.00 L 1123.00 540.00 L 1124.00 543.00 L 1120.00 553.00 L 1121.00 554.00 L 1127.00 546.00 L 1128.00 550.00 L 1124.00 566.00 L 1126.00 585.00 L 1134.00 607.00 L 1141.00 637.00 L 1147.00 675.00 L 1168.00 725.00 L 1204.00 787.00 L 1219.00 826.00 L 1213.00 842.00 L 1200.00 857.00 L 1180.00 871.00 L 1172.00 892.00 L 1176.00 920.00 L 1175.00 940.00 L 1169.00 952.00 L 1168.00 962.00 L 1172.00 970.00 L 1166.00 985.00 L 1150.00 1007.00 L 1143.00 1025.00 L 1145.00 1039.00 L 1143.00 1055.00 L 1137.00 1073.00 L 1123.00 1092.00 L 1101.00 1112.00 L 1091.00 1126.00 L 1093.00 1134.00 L 1087.00 1154.00 L 1073.00 1186.00 L 1074.00 1213.00 L 1090.00 1235.00 L 1090.00 1238.00 L 1074.00 1222.00 L 1074.00 1224.00 L 1090.00 1244.00 L 1090.00 1247.00 L 1074.00 1233.00 L 1073.00 1235.00 L 1087.00 1253.00 L 1087.00 1255.00 L 1073.00 1241.00 L 1072.00 1242.00 L 1084.00 1258.00 L 1079.00 1267.00 L 1057.00 1269.00 L 1048.00 1277.00 L 1052.00 1291.00 L 1050.00 1292.00 L 1042.00 1280.00 L 1042.00 1281.00 L 1050.00 1295.00 L 1050.00 1297.00 L 1042.00 1287.00 L 1041.00 1289.00 L 1047.00 1303.00 L 1049.00 1312.00 L 1047.00 1316.00 L 1053.00 1332.00 L 1067.00 1360.00 L 1070.00 1368.00 L 1062.00 1356.00 L 1072.00 1376.00 L 1100.00 1428.00 L 1095.00 1420.00 L 1057.00 1352.00 L 1069.00 1377.00 L 1131.00 1495.00 L 1133.00 1501.00 L 1075.00 1395.00 L 1075.00 1396.00 L 1133.00 1504.00 L 1132.00 1503.00 L 1072.00 1393.00 L 1075.00 1400.00 L 1141.00 1524.00 L 1138.00 1520.00 L 1066.00 1388.00 L 1067.00 1393.00 L 1141.00 1535.00 L 1176.00 1611.00 L 1172.00 1621.00 L 1161.00 1631.00 L 1143.00 1641.00 L 1122.00 1642.00 L 1098.00 1634.00 L 1077.00 1625.00 L 1059.00 1615.00 L 1013.00 1580.00 L 939.00 1520.00 L 872.00 1472.00 L 812.00 1436.00 L 761.00 1409.00 L 719.00 1391.00 L 666.00 1373.00 L 602.00 1355.00 L 546.00 1343.00 L 498.00 1337.00 L 462.00 1335.00 L 438.00 1337.00 L 427.00 1337.00 L 429.00 1335.00 L 427.00 1333.00 L 421.00 1331.00 L 417.00 1322.00 L 415.00 1306.00 L 426.00 1263.00 L 450.00 1193.00 L 461.00 1152.00 L 459.00 1140.00 L 460.00 1127.00 L 464.00 1113.00 L 464.00 1103.00 L 460.00 1097.00 L 458.00 1087.00 L 458.00 1073.00 L 461.00 1060.00 L 467.00 1048.00 L 471.00 1019.00 L 473.00 973.00 L 474.00 948.00 L 474.00 944.00 L 476.00 936.00 Z" fill="black" stroke="black" stroke-width="1"/>
</svg>