<?xml version="1.0" encoding="UTF-8"?>
<svg xmlns="http://www.w3.org/2000/svg" viewBox="328.00 241.00 983.00 1414.00">
  <path d="M 339.00 871.00 L 341.00 817.00 L 345.00 784.00 L 351.00 772.00 L 352.00 737.00 L 348.00 679.00 L 350.00 630.00 L 358.00 590.00 L 362.00 540.00 L 362.00 480.00 L 370.00 435.00 L 386.00 405.00 L 407.00 379.00 L 433.00 357.00 L 464.00 341.00 L 500.00 331.00 L 528.00 328.00 L 548.00 332.00 L 569.00 328.00 L 591.00 316.00 L 645.00 312.00 L 731.00 316.00 L 776.00 305.00 L 780.00 279.00 L 783.00 280.00 L 785.00 308.00 L 786.00 306.00 L 786.00 274.00 L 788.00 266.00 L 792.00 282.00 L 794.00 279.00 L 794.00 257.00 L 796.00 265.00 L 800.00 303.00 L 804.00 302.00 L 808.00 262.00 L 810.00 262.00 L 810.00 302.00 L 812.00 319.00 L 816.00 313.00 L 819.00 293.00 L 821.00 259.00 L 822.00 262.00 L 822.00 302.00 L 825.00 303.00 L 831.00 265.00 L 841.00 251.00 L 855.00 261.00 L 864.00 276.00 L 868.00 296.00 L 874.00 301.00 L 882.00 291.00 L 896.00 286.00 L 916.00 286.00 L 925.00 300.00 L 923.00 328.00 L 925.00 329.00 L 931.00 303.00 L 932.00 300.00 L 928.00 320.00 L 927.00 334.00 L 929.00 342.00 L 933.00 334.00 L 939.00 310.00 L 942.00 310.00 L 942.00 334.00 L 971.00 352.00 L 1029.00 364.00 L 1081.00 386.00 L 1127.00 418.00 L 1149.00 438.00 L 1147.00 446.00 L 1153.00 459.00 L 1167.00 477.00 L 1180.00 500.00 L 1192.00 528.00 L 1200.00 552.00 L 1204.00 572.00 L 1205.00 600.00 L 1203.00 636.00 L 1213.00 667.00 L 1235.00 693.00 L 1252.00 717.00 L 1264.00 739.00 L 1277.00 755.00 L 1291.00 765.00 L 1299.00 775.00 L 1301.00 785.00 L 1299.00 795.00 L 1293.00 805.00 L 1278.00 818.00 L 1254.00 834.00 L 1243.00 856.00 L 1245.00 884.00 L 1243.00 904.00 L 1237.00 916.00 L 1235.00 932.00 L 1237.00 952.00 L 1232.00 974.00 L 1220.00 998.00 L 1215.00 1023.00 L 1217.00 1049.00 L 1215.00 1068.00 L 1209.00 1080.00 L 1200.00 1092.00 L 1188.00 1104.00 L 1164.00 1118.00 L 1128.00 1134.00 L 1112.00 1157.00 L 1116.00 1187.00 L 1113.00 1227.00 L 1103.00 1277.00 L 1100.00 1310.00 L 1104.00 1326.00 L 1116.00 1354.00 L 1136.00 1394.00 L 1134.00 1397.00 L 1110.00 1363.00 L 1108.00 1361.00 L 1128.00 1391.00 L 1128.00 1392.00 L 1108.00 1364.00 L 1109.00 1369.00 L 1131.00 1407.00 L 1135.00 1417.00 L 1121.00 1399.00 L 1120.00 1400.00 L 1132.00 1420.00 L 1126.00 1413.00 L 1102.00 1379.00 L 1101.00 1382.00 L 1123.00 1422.00 L 1122.00 1424.00 L 1098.00 1388.00 L 1097.00 1391.00 L 1119.00 1433.00 L 1129.00 1458.00 L 1127.00 1466.00 L 1108.00 1493.00 L 1072.00 1539.00 L 1050.00 1574.00 L 1042.00 1598.00 L 1030.00 1621.00 L 1014.00 1643.00 L 966.00 1645.00 L 886.00 1627.00 L 787.00 1612.00 L 669.00 1600.00 L 601.00 1591.00 L 583.00 1585.00 L 570.00 1578.00 L 562.00 1570.00 L 554.00 1552.00 L 546.00 1524.00 L 543.00 1496.00 L 545.00 1468.00 L 558.00 1427.00 L 582.00 1373.00 L 587.00 1359.00 L 573.00 1385.00 L 581.00 1361.00 L 611.00 1287.00 L 617.00 1264.00 L 599.00 1292.00 L 599.00 1289.00 L 617.00 1255.00 L 618.00 1252.00 L 602.00 1280.00 L 602.00 1279.00 L 618.00 1249.00 L 618.00 1248.00 L 602.00 1276.00 L 605.00 1266.00 L 627.00 1218.00 L 638.00 1161.00 L 638.00 1095.00 L 645.00 1055.00 L 659.00 1041.00 L 660.00 1039.00 L 648.00 1049.00 L 646.00 1050.00 L 654.00 1042.00 L 648.00 1040.00 L 628.00 1044.00 L 613.00 1040.00 L 603.00 1028.00 L 589.00 1020.00 L 571.00 1016.00 L 548.00 1004.00 L 520.00 984.00 L 476.00 979.00 L 416.00 989.00 L 414.00 988.00 L 470.00 976.00 L 469.00 975.00 L 411.00 985.00 L 406.00 985.00 L 454.00 975.00 L 452.00 974.00 L 400.00 982.00 L 396.00 981.00 L 440.00 971.00 L 438.00 968.00 L 390.00 972.00 L 385.00 971.00 L 423.00 965.00 L 422.00 964.00 L 382.00 968.00 L 380.00 967.00 L 416.00 961.00 L 414.00 958.00 L 374.00 958.00 L 350.00 946.00 L 342.00 922.00 L 338.00 907.00 L 338.00 901.00 L 339.00 871.00 Z" fill="black" stroke="black" stroke-width="1"/>
</svg>