<?xml version="1.0" encoding="UTF-8"?>
<svg xmlns="http://www.w3.org/2000/svg" viewBox="324.00 216.00 955.00 1523.00">
  <path d="M 440.00 993.00 L 436.00 983.00 L 436.00 972.00 L 440.00 960.00 L 437.00 949.00 L 427.00 939.00 L 420.00 922.00 L 416.00 898.00 L 398.00 879.00 L 366.00 865.00 L 365.00 863.00 L 395.00 873.00 L 392.00 870.00 L 356.00 854.00 L 337.00 841.00 L 335.00 831.00 L 344.00 808.00 L 364.00 772.00 L 389.00 735.00 L 419.00 697.00 L 435.00 668.00 L 437.00 648.00 L 436.00 623.00 L 432.00 593.00 L 436.00 551.00 L 448.00 497.00 L 459.00 458.00 L 469.00 434.00 L 482.00 410.00 L 498.00 386.00 L 513.00 368.00 L 527.00 356.00 L 534.00 343.00 L 534.00 329.00 L 539.00 320.00 L 549.00 316.00 L 570.00 301.00 L 602.00 275.00 L 636.00 256.00 L 672.00 244.00 L 724.00 234.00 L 792.00 226.00 L 865.00 228.00 L 943.00 240.00 L 1005.00 258.00 L 1051.00 282.00 L 1091.00 307.00 L 1125.00 333.00 L 1156.00 366.00 L 1184.00 406.00 L 1207.00 444.00 L 1225.00 480.00 L 1239.00 512.00 L 1249.00 540.00 L 1258.00 575.00 L 1266.00 617.00 L 1269.00 654.00 L 1267.00 686.00 L 1262.00 718.00 L 1254.00 750.00 L 1233.00 794.00 L 1199.00 850.00 L 1176.00 902.00 L 1164.00 950.00 L 1150.00 975.00 L 1134.00 977.00 L 1133.00 979.00 L 1147.00 981.00 L 1147.00 984.00 L 1133.00 988.00 L 1131.00 990.00 L 1141.00 990.00 L 1143.00 993.00 L 1137.00 999.00 L 1137.00 1015.00 L 1143.00 1041.00 L 1145.00 1063.00 L 1143.00 1081.00 L 1148.00 1119.00 L 1160.00 1177.00 L 1165.00 1212.00 L 1163.00 1224.00 L 1168.00 1244.00 L 1180.00 1272.00 L 1188.00 1300.00 L 1192.00 1328.00 L 1194.00 1351.00 L 1194.00 1369.00 L 1187.00 1388.00 L 1173.00 1408.00 L 1142.00 1427.00 L 1094.00 1445.00 L 1030.00 1461.00 L 950.00 1475.00 L 866.00 1497.00 L 778.00 1527.00 L 692.00 1562.00 L 608.00 1602.00 L 524.00 1648.00 L 440.00 1700.00 L 393.00 1727.00 L 383.00 1729.00 L 370.00 1727.00 L 354.00 1721.00 L 342.00 1713.00 L 334.00 1703.00 L 379.00 1615.00 L 477.00 1449.00 L 476.00 1447.00 L 376.00 1609.00 L 375.00 1610.00 L 473.00 1450.00 L 473.00 1448.00 L 375.00 1604.00 L 360.00 1626.00 L 428.00 1514.00 L 428.00 1511.00 L 360.00 1617.00 L 376.00 1591.00 L 476.00 1433.00 L 476.00 1429.00 L 376.00 1579.00 L 376.00 1576.00 L 476.00 1420.00 L 478.00 1414.00 L 382.00 1558.00 L 382.00 1556.00 L 478.00 1408.00 L 521.00 1335.00 L 511.00 1337.00 L 494.00 1352.00 L 470.00 1380.00 L 466.00 1382.00 L 482.00 1358.00 L 477.00 1362.00 L 451.00 1394.00 L 432.00 1412.00 L 420.00 1416.00 L 434.00 1391.00 L 474.00 1337.00 L 475.00 1332.00 L 437.00 1376.00 L 443.00 1368.00 L 493.00 1308.00 L 490.00 1311.00 L 434.00 1377.00 L 434.00 1376.00 L 490.00 1308.00 L 509.00 1284.00 L 491.00 1304.00 L 491.00 1301.00 L 509.00 1275.00 L 506.00 1275.00 L 482.00 1301.00 L 468.00 1313.00 L 464.00 1311.00 L 475.00 1295.00 L 501.00 1265.00 L 500.00 1264.00 L 472.00 1292.00 L 468.00 1295.00 L 488.00 1273.00 L 487.00 1272.00 L 465.00 1292.00 L 467.00 1286.00 L 493.00 1254.00 L 494.00 1249.00 L 470.00 1271.00 L 466.00 1274.00 L 482.00 1258.00 L 483.00 1256.00 L 469.00 1268.00 L 472.00 1262.00 L 492.00 1238.00 L 492.00 1235.00 L 472.00 1253.00 L 472.00 1251.00 L 492.00 1229.00 L 491.00 1227.00 L 469.00 1245.00 L 466.00 1242.00 L 482.00 1218.00 L 487.00 1199.00 L 481.00 1185.00 L 485.00 1171.00 L 499.00 1157.00 L 495.00 1145.00 L 473.00 1135.00 L 456.00 1120.00 L 444.00 1100.00 L 443.00 1073.00 L 453.00 1039.00 L 456.00 1018.00 L 452.00 1010.00 L 448.00 1004.00 L 444.00 1000.00 L 440.00 993.00 Z" fill="black" stroke="black" stroke-width="1"/>
</svg>