<?xml version="1.0" encoding="UTF-8"?>
<svg xmlns="http://www.w3.org/2000/svg" viewBox="213.00 173.00 984.00 1678.00">
  <path d="M 320.00 983.00 L 388.00 981.00 L 389.00 979.00 L 323.00 977.00 L 305.00 974.00 L 335.00 970.00 L 336.00 967.00 L 308.00 965.00 L 325.00 965.00 L 387.00 967.00 L 389.00 964.00 L 331.00 956.00 L 330.00 954.00 L 386.00 958.00 L 388.00 955.00 L 336.00 945.00 L 334.00 941.00 L 382.00 943.00 L 383.00 941.00 L 337.00 935.00 L 331.00 933.00 L 365.00 935.00 L 366.00 932.00 L 334.00 924.00 L 339.00 922.00 L 381.00 926.00 L 382.00 924.00 L 342.00 916.00 L 341.00 914.00 L 379.00 918.00 L 380.00 915.00 L 344.00 905.00 L 332.00 892.00 L 344.00 876.00 L 347.00 866.00 L 341.00 862.00 L 341.00 849.00 L 347.00 827.00 L 322.00 737.00 L 266.00 579.00 L 233.00 474.00 L 223.00 422.00 L 229.00 387.00 L 251.00 369.00 L 301.00 346.00 L 379.00 318.00 L 431.00 294.00 L 457.00 274.00 L 485.00 265.00 L 515.00 267.00 L 595.00 246.00 L 725.00 202.00 L 804.00 183.00 L 832.00 189.00 L 889.00 292.00 L 975.00 492.00 L 1024.00 600.00 L 1036.00 616.00 L 1054.00 628.00 L 1078.00 636.00 L 1079.00 652.00 L 1057.00 676.00 L 1062.00 675.00 L 1094.00 649.00 L 1095.00 652.00 L 1065.00 684.00 L 1068.00 686.00 L 1104.00 658.00 L 1104.00 662.00 L 1068.00 698.00 L 1073.00 699.00 L 1119.00 665.00 L 1119.00 668.00 L 1073.00 708.00 L 1076.00 708.00 L 1128.00 668.00 L 1127.00 671.00 L 1073.00 717.00 L 1075.00 718.00 L 1133.00 674.00 L 1133.00 677.00 L 1075.00 727.00 L 1078.00 728.00 L 1142.00 680.00 L 1165.00 666.00 L 1147.00 686.00 L 1151.00 687.00 L 1177.00 669.00 L 1154.00 687.00 L 1082.00 741.00 L 1087.00 744.00 L 1169.00 696.00 L 1171.00 699.00 L 1093.00 753.00 L 1095.00 754.00 L 1177.00 702.00 L 1178.00 704.00 L 1098.00 760.00 L 1100.00 763.00 L 1184.00 713.00 L 1187.00 716.00 L 1109.00 772.00 L 1088.00 827.00 L 1124.00 881.00 L 1138.00 914.00 L 1130.00 926.00 L 1112.00 937.00 L 1084.00 947.00 L 1070.00 966.00 L 1070.00 994.00 L 1063.00 1024.00 L 1049.00 1056.00 L 1045.00 1087.00 L 1051.00 1117.00 L 1039.00 1151.00 L 1009.00 1189.00 L 1000.00 1217.00 L 1012.00 1235.00 L 1009.00 1238.00 L 991.00 1226.00 L 991.00 1229.00 L 1009.00 1247.00 L 1010.00 1249.00 L 994.00 1235.00 L 993.00 1237.00 L 1007.00 1255.00 L 1013.00 1275.00 L 1011.00 1297.00 L 1018.00 1321.00 L 1034.00 1347.00 L 1034.00 1350.00 L 1018.00 1330.00 L 1018.00 1333.00 L 1034.00 1359.00 L 1032.00 1364.00 L 1012.00 1348.00 L 1014.00 1362.00 L 1038.00 1406.00 L 1042.00 1417.00 L 1026.00 1395.00 L 1023.00 1395.00 L 1033.00 1417.00 L 1023.00 1421.00 L 993.00 1407.00 L 1009.00 1466.00 L 1071.00 1598.00 L 1072.00 1608.00 L 1012.00 1496.00 L 1012.00 1501.00 L 1072.00 1623.00 L 1070.00 1623.00 L 1006.00 1501.00 L 1006.00 1506.00 L 1070.00 1638.00 L 1069.00 1639.00 L 1003.00 1509.00 L 1004.00 1517.00 L 1072.00 1663.00 L 1105.00 1760.00 L 1103.00 1808.00 L 1097.00 1831.00 L 1087.00 1829.00 L 1081.00 1832.00 L 1079.00 1840.00 L 1069.00 1841.00 L 1051.00 1835.00 L 951.00 1770.00 L 769.00 1646.00 L 601.00 1552.00 L 447.00 1488.00 L 368.00 1440.00 L 364.00 1408.00 L 372.00 1354.00 L 392.00 1278.00 L 401.00 1221.00 L 399.00 1183.00 L 412.00 1130.00 L 440.00 1062.00 L 412.00 1031.00 L 328.00 1037.00 L 326.00 1035.00 L 406.00 1025.00 L 408.00 1024.00 L 332.00 1032.00 L 288.00 1035.00 L 276.00 1033.00 L 313.00 1027.00 L 399.00 1017.00 L 399.00 1014.00 L 313.00 1018.00 L 283.00 1017.00 L 309.00 1011.00 L 310.00 1008.00 L 286.00 1008.00 L 314.00 1006.00 L 394.00 1002.00 L 396.00 998.00 L 320.00 994.00 L 318.00 991.00 L 390.00 989.00 L 391.00 987.00 L 321.00 985.00 L 320.00 983.00 Z" fill="black" stroke="black" stroke-width="1"/>
</svg>