<?xml version="1.0" encoding="UTF-8"?>
<svg xmlns="http://www.w3.org/2000/svg" viewBox="348.00 187.00 875.00 1506.00">
  <path d="M 488.00 910.00 L 468.00 862.00 L 440.00 813.00 L 404.00 763.00 L 379.00 712.00 L 365.00 660.00 L 358.00 595.00 L 358.00 517.00 L 363.00 458.00 L 373.00 418.00 L 386.00 381.00 L 402.00 347.00 L 424.00 316.00 L 452.00 288.00 L 487.00 263.00 L 529.00 241.00 L 573.00 223.00 L 619.00 209.00 L 659.00 203.00 L 693.00 205.00 L 720.00 203.00 L 740.00 197.00 L 769.00 197.00 L 807.00 203.00 L 867.00 223.00 L 949.00 257.00 L 1017.00 304.00 L 1071.00 364.00 L 1097.00 401.00 L 1095.00 415.00 L 1097.00 418.00 L 1103.00 410.00 L 1104.00 412.00 L 1100.00 424.00 L 1102.00 426.00 L 1110.00 418.00 L 1112.00 423.00 L 1108.00 441.00 L 1110.00 444.00 L 1118.00 432.00 L 1123.00 428.00 L 1125.00 432.00 L 1122.00 441.00 L 1114.00 455.00 L 1115.00 458.00 L 1125.00 450.00 L 1127.00 453.00 L 1121.00 467.00 L 1122.00 469.00 L 1130.00 459.00 L 1131.00 462.00 L 1125.00 478.00 L 1127.00 504.00 L 1137.00 540.00 L 1140.00 586.00 L 1136.00 642.00 L 1154.00 700.00 L 1194.00 760.00 L 1213.00 797.00 L 1211.00 811.00 L 1200.00 822.00 L 1180.00 830.00 L 1179.00 832.00 L 1197.00 828.00 L 1194.00 831.00 L 1170.00 841.00 L 1156.00 851.00 L 1152.00 861.00 L 1152.00 878.00 L 1156.00 902.00 L 1149.00 931.00 L 1131.00 965.00 L 1125.00 990.00 L 1131.00 1006.00 L 1131.00 1026.00 L 1125.00 1050.00 L 1100.00 1075.00 L 1056.00 1101.00 L 1011.00 1115.00 L 965.00 1117.00 L 937.00 1124.00 L 927.00 1136.00 L 983.00 1264.00 L 1105.00 1508.00 L 1104.00 1509.00 L 980.00 1267.00 L 981.00 1270.00 L 1107.00 1518.00 L 1158.00 1620.00 L 1134.00 1576.00 L 1135.00 1580.00 L 1161.00 1632.00 L 1158.00 1628.00 L 1126.00 1568.00 L 1126.00 1573.00 L 1158.00 1643.00 L 1155.00 1640.00 L 1117.00 1564.00 L 1116.00 1566.00 L 1152.00 1646.00 L 1149.00 1643.00 L 1107.00 1557.00 L 1107.00 1559.00 L 1149.00 1649.00 L 1106.00 1560.00 L 978.00 1292.00 L 977.00 1295.00 L 1103.00 1569.00 L 1137.00 1649.00 L 1079.00 1535.00 L 1077.00 1539.00 L 1131.00 1661.00 L 1096.00 1582.00 L 972.00 1302.00 L 971.00 1303.00 L 1093.00 1585.00 L 1125.00 1661.00 L 1067.00 1531.00 L 1065.00 1534.00 L 1119.00 1670.00 L 1086.00 1595.00 L 966.00 1309.00 L 964.00 1311.00 L 1080.00 1601.00 L 1106.00 1670.00 L 1042.00 1518.00 L 1040.00 1520.00 L 1100.00 1676.00 L 1073.00 1609.00 L 959.00 1319.00 L 956.00 1321.00 L 1064.00 1615.00 L 1083.00 1674.00 L 1013.00 1498.00 L 1010.00 1501.00 L 1074.00 1683.00 L 1054.00 1627.00 L 950.00 1333.00 L 948.00 1334.00 L 1048.00 1630.00 L 1047.00 1632.00 L 945.00 1340.00 L 941.00 1342.00 L 1035.00 1638.00 L 1035.00 1639.00 L 941.00 1345.00 L 938.00 1342.00 L 1026.00 1630.00 L 1038.00 1674.00 L 974.00 1474.00 L 970.00 1468.00 L 1026.00 1656.00 L 1013.00 1613.00 L 931.00 1339.00 L 928.00 1336.00 L 1004.00 1604.00 L 1004.00 1606.00 L 928.00 1342.00 L 926.00 1339.00 L 998.00 1597.00 L 1007.00 1633.00 L 953.00 1447.00 L 949.00 1442.00 L 995.00 1618.00 L 985.00 1583.00 L 919.00 1337.00 L 917.00 1335.00 L 979.00 1577.00 L 978.00 1579.00 L 914.00 1341.00 L 908.00 1334.00 L 960.00 1558.00 L 964.00 1582.00 L 920.00 1406.00 L 916.00 1400.00 L 952.00 1564.00 L 947.00 1544.00 L 901.00 1340.00 L 899.00 1338.00 L 941.00 1538.00 L 941.00 1540.00 L 899.00 1344.00 L 898.00 1343.00 L 938.00 1537.00 L 939.00 1546.00 L 901.00 1370.00 L 898.00 1367.00 L 930.00 1537.00 L 928.00 1531.00 L 892.00 1349.00 L 891.00 1348.00 L 925.00 1528.00 L 925.00 1530.00 L 891.00 1354.00 L 890.00 1352.00 L 922.00 1524.00 L 894.00 1568.00 L 806.00 1484.00 L 740.00 1426.00 L 696.00 1394.00 L 648.00 1365.00 L 596.00 1339.00 L 533.00 1318.00 L 459.00 1302.00 L 450.00 1228.00 L 506.00 1096.00 L 534.00 1016.00 L 534.00 988.00 L 526.00 967.00 L 510.00 953.00 L 501.00 943.00 L 499.00 937.00 L 488.00 910.00 Z" fill="black" stroke="black" stroke-width="1"/>
</svg>