<?xml version="1.0" encoding="UTF-8"?>
<svg xmlns="http://www.w3.org/2000/svg" viewBox="224.00 242.00 991.00 1326.00">
  <path d="M 534.00 855.00 L 502.00 825.00 L 464.00 804.00 L 420.00 792.00 L 419.00 790.00 L 461.00 798.00 L 457.00 796.00 L 407.00 784.00 L 406.00 783.00 L 454.00 793.00 L 437.00 788.00 L 355.00 768.00 L 354.00 766.00 L 434.00 782.00 L 431.00 779.00 L 345.00 757.00 L 340.00 754.00 L 416.00 770.00 L 410.00 765.00 L 322.00 739.00 L 326.00 739.00 L 422.00 765.00 L 421.00 764.00 L 323.00 736.00 L 321.00 735.00 L 415.00 761.00 L 412.00 759.00 L 312.00 729.00 L 255.00 703.00 L 241.00 681.00 L 234.00 659.00 L 234.00 637.00 L 242.00 613.00 L 258.00 587.00 L 273.00 542.00 L 287.00 478.00 L 299.00 438.00 L 309.00 422.00 L 323.00 409.00 L 341.00 399.00 L 352.00 380.00 L 356.00 352.00 L 367.00 325.00 L 385.00 299.00 L 398.00 288.00 L 406.00 292.00 L 416.00 288.00 L 428.00 276.00 L 443.00 268.00 L 461.00 264.00 L 476.00 264.00 L 488.00 268.00 L 500.00 279.00 L 512.00 297.00 L 517.00 301.00 L 515.00 291.00 L 517.00 290.00 L 523.00 298.00 L 540.00 294.00 L 568.00 278.00 L 602.00 265.00 L 642.00 255.00 L 703.00 252.00 L 785.00 256.00 L 846.00 262.00 L 886.00 270.00 L 946.00 290.00 L 1026.00 322.00 L 1082.00 350.00 L 1114.00 374.00 L 1127.00 394.00 L 1121.00 410.00 L 1124.00 413.00 L 1136.00 403.00 L 1137.00 405.00 L 1127.00 419.00 L 1127.00 422.00 L 1137.00 414.00 L 1139.00 416.00 L 1133.00 428.00 L 1137.00 455.00 L 1151.00 497.00 L 1158.00 539.00 L 1158.00 581.00 L 1154.00 620.00 L 1146.00 656.00 L 1161.00 705.00 L 1199.00 767.00 L 1192.00 805.00 L 1140.00 819.00 L 1137.00 824.00 L 1183.00 820.00 L 1185.00 821.00 L 1143.00 827.00 L 1141.00 829.00 L 1179.00 827.00 L 1181.00 828.00 L 1147.00 832.00 L 1146.00 833.00 L 1178.00 831.00 L 1186.00 831.00 L 1170.00 833.00 L 1166.00 834.00 L 1174.00 834.00 L 1175.00 836.00 L 1169.00 840.00 L 1169.00 857.00 L 1175.00 887.00 L 1174.00 912.00 L 1166.00 932.00 L 1155.00 948.00 L 1141.00 960.00 L 1133.00 980.00 L 1131.00 1008.00 L 1125.00 1030.00 L 1115.00 1046.00 L 1094.00 1059.00 L 1062.00 1069.00 L 1036.00 1074.00 L 1016.00 1074.00 L 991.00 1069.00 L 961.00 1059.00 L 942.00 1057.00 L 934.00 1063.00 L 998.00 1173.00 L 1134.00 1387.00 L 1133.00 1388.00 L 995.00 1176.00 L 996.00 1179.00 L 1136.00 1397.00 L 1200.00 1497.00 L 1188.00 1479.00 L 1189.00 1482.00 L 1203.00 1506.00 L 1199.00 1502.00 L 1177.00 1470.00 L 1179.00 1476.00 L 1205.00 1520.00 L 1203.00 1519.00 L 1173.00 1473.00 L 1173.00 1476.00 L 1203.00 1528.00 L 1145.00 1436.00 L 999.00 1200.00 L 999.00 1203.00 L 1145.00 1445.00 L 1196.00 1532.00 L 1152.00 1464.00 L 1151.00 1468.00 L 1193.00 1544.00 L 1188.00 1540.00 L 1136.00 1456.00 L 1135.00 1459.00 L 1185.00 1549.00 L 1138.00 1469.00 L 994.00 1219.00 L 991.00 1223.00 L 1129.00 1481.00 L 1129.00 1483.00 L 991.00 1229.00 L 990.00 1230.00 L 1126.00 1486.00 L 1126.00 1488.00 L 990.00 1236.00 L 988.00 1238.00 L 1120.00 1494.00 L 1148.00 1551.00 L 1072.00 1409.00 L 1069.00 1411.00 L 1139.00 1557.00 L 1110.00 1502.00 L 982.00 1246.00 L 980.00 1248.00 L 1104.00 1508.00 L 1125.00 1555.00 L 1043.00 1389.00 L 1041.00 1390.00 L 1119.00 1558.00 L 1098.00 1514.00 L 978.00 1258.00 L 977.00 1257.00 L 1095.00 1511.00 L 1095.00 1513.00 L 977.00 1263.00 L 973.00 1261.00 L 1083.00 1507.00 L 1097.00 1541.00 L 1015.00 1363.00 L 1011.00 1360.00 L 1085.00 1532.00 L 1071.00 1501.00 L 969.00 1267.00 L 967.00 1265.00 L 1065.00 1495.00 L 1065.00 1497.00 L 967.00 1271.00 L 963.00 1267.00 L 1053.00 1485.00 L 1053.00 1488.00 L 963.00 1276.00 L 959.00 1273.00 L 1041.00 1479.00 L 1041.00 1481.00 L 959.00 1279.00 L 955.00 1276.00 L 1029.00 1472.00 L 1029.00 1475.00 L 955.00 1285.00 L 952.00 1282.00 L 1020.00 1466.00 L 1020.00 1469.00 L 952.00 1291.00 L 950.00 1290.00 L 1014.00 1466.00 L 984.00 1513.00 L 860.00 1431.00 L 736.00 1362.00 L 612.00 1306.00 L 548.00 1267.00 L 544.00 1245.00 L 552.00 1209.00 L 572.00 1159.00 L 587.00 1111.00 L 597.00 1065.00 L 600.00 1011.00 L 596.00 949.00 L 591.00 910.00 L 585.00 894.00 L 576.00 883.00 L 564.00 877.00 L 556.00 873.00 L 552.00 871.00 L 534.00 855.00 Z" fill="black" stroke="black" stroke-width="1"/>
</svg>