<?xml version="1.0" encoding="UTF-8"?>
<svg xmlns="http://www.w3.org/2000/svg" viewBox="321.00 205.00 838.00 1521.00">
  <path d="M 381.00 955.00 L 379.00 949.00 L 381.00 943.00 L 387.00 937.00 L 387.00 929.00 L 381.00 919.00 L 379.00 903.00 L 381.00 881.00 L 377.00 867.00 L 367.00 861.00 L 366.00 859.00 L 374.00 861.00 L 372.00 860.00 L 360.00 856.00 L 358.00 855.00 L 366.00 857.00 L 365.00 856.00 L 355.00 852.00 L 346.00 846.00 L 338.00 838.00 L 333.00 829.00 L 331.00 819.00 L 346.00 790.00 L 378.00 742.00 L 395.00 710.00 L 397.00 694.00 L 395.00 681.00 L 389.00 671.00 L 386.00 660.00 L 386.00 648.00 L 392.00 625.00 L 404.00 591.00 L 421.00 551.00 L 443.00 505.00 L 454.00 476.00 L 454.00 464.00 L 456.00 461.00 L 460.00 467.00 L 460.00 464.00 L 456.00 452.00 L 456.00 449.00 L 460.00 455.00 L 461.00 453.00 L 459.00 443.00 L 462.00 443.00 L 470.00 453.00 L 472.00 451.00 L 468.00 437.00 L 467.00 425.00 L 469.00 415.00 L 472.00 406.00 L 476.00 398.00 L 484.00 389.00 L 496.00 379.00 L 508.00 362.00 L 520.00 338.00 L 533.00 318.00 L 547.00 302.00 L 561.00 292.00 L 575.00 288.00 L 590.00 281.00 L 606.00 271.00 L 622.00 263.00 L 638.00 257.00 L 658.00 253.00 L 682.00 251.00 L 698.00 245.00 L 706.00 235.00 L 711.00 234.00 L 713.00 242.00 L 716.00 239.00 L 720.00 225.00 L 723.00 224.00 L 725.00 236.00 L 726.00 235.00 L 726.00 221.00 L 728.00 215.00 L 732.00 217.00 L 734.00 224.00 L 734.00 236.00 L 760.00 243.00 L 812.00 245.00 L 855.00 253.00 L 889.00 267.00 L 907.00 276.00 L 909.00 280.00 L 916.00 284.00 L 928.00 288.00 L 944.00 299.00 L 964.00 317.00 L 980.00 329.00 L 992.00 335.00 L 1014.00 353.00 L 1046.00 383.00 L 1067.00 406.00 L 1077.00 422.00 L 1082.00 435.00 L 1082.00 445.00 L 1086.00 462.00 L 1094.00 486.00 L 1100.00 511.00 L 1104.00 537.00 L 1105.00 560.00 L 1103.00 580.00 L 1103.00 610.00 L 1105.00 650.00 L 1103.00 684.00 L 1097.00 712.00 L 1094.00 746.00 L 1094.00 786.00 L 1093.00 808.00 L 1091.00 812.00 L 1084.00 818.00 L 1072.00 826.00 L 1071.00 829.00 L 1081.00 827.00 L 1081.00 828.00 L 1071.00 832.00 L 1070.00 834.00 L 1078.00 834.00 L 1079.00 837.00 L 1073.00 843.00 L 1076.00 852.00 L 1088.00 864.00 L 1097.00 880.00 L 1103.00 900.00 L 1106.00 918.00 L 1106.00 934.00 L 1110.00 960.00 L 1118.00 996.00 L 1117.00 1027.00 L 1107.00 1053.00 L 1103.00 1068.00 L 1105.00 1072.00 L 1105.00 1081.00 L 1103.00 1095.00 L 1103.00 1109.00 L 1105.00 1123.00 L 1109.00 1137.00 L 1115.00 1151.00 L 1119.00 1171.00 L 1121.00 1197.00 L 1127.00 1223.00 L 1137.00 1249.00 L 1144.00 1274.00 L 1148.00 1298.00 L 1149.00 1311.00 L 1147.00 1313.00 L 1146.00 1320.00 L 1146.00 1332.00 L 1143.00 1343.00 L 1137.00 1353.00 L 1128.00 1364.00 L 1116.00 1376.00 L 1106.00 1385.00 L 1098.00 1391.00 L 1063.00 1401.00 L 1001.00 1415.00 L 957.00 1427.00 L 931.00 1437.00 L 907.00 1444.00 L 885.00 1448.00 L 838.00 1465.00 L 766.00 1495.00 L 691.00 1532.00 L 613.00 1576.00 L 554.00 1611.00 L 514.00 1637.00 L 476.00 1665.00 L 440.00 1695.00 L 416.00 1712.00 L 404.00 1716.00 L 395.00 1715.00 L 389.00 1709.00 L 388.00 1682.00 L 392.00 1634.00 L 400.00 1589.00 L 412.00 1547.00 L 434.00 1496.00 L 466.00 1436.00 L 467.00 1433.00 L 437.00 1487.00 L 438.00 1484.00 L 470.00 1424.00 L 472.00 1419.00 L 444.00 1469.00 L 439.00 1477.00 L 457.00 1443.00 L 461.00 1435.00 L 451.00 1453.00 L 455.00 1442.00 L 473.00 1402.00 L 480.00 1373.00 L 476.00 1355.00 L 475.00 1332.00 L 477.00 1304.00 L 477.00 1291.00 L 475.00 1293.00 L 483.00 1280.00 L 501.00 1252.00 L 506.00 1243.00 L 498.00 1253.00 L 499.00 1251.00 L 509.00 1237.00 L 510.00 1235.00 L 502.00 1245.00 L 502.00 1243.00 L 510.00 1229.00 L 497.00 1200.00 L 463.00 1156.00 L 440.00 1130.00 L 428.00 1122.00 L 421.00 1116.00 L 419.00 1112.00 L 419.00 1107.00 L 421.00 1101.00 L 415.00 1094.00 L 401.00 1086.00 L 389.00 1076.00 L 379.00 1064.00 L 373.00 1050.00 L 371.00 1034.00 L 375.00 1017.00 L 385.00 999.00 L 389.00 984.00 L 387.00 972.00 L 385.00 964.00 L 383.00 960.00 L 381.00 955.00 Z" fill="black" stroke="black" stroke-width="1"/>
</svg>