<?xml version="1.0" encoding="UTF-8"?>
<svg xmlns="http://www.w3.org/2000/svg" viewBox="290.00 190.00 987.00 1646.00">
  <path d="M 345.00 1072.00 L 383.00 1064.00 L 385.00 1058.00 L 351.00 1054.00 L 352.00 1052.00 L 388.00 1052.00 L 388.00 1049.00 L 352.00 1043.00 L 353.00 1040.00 L 391.00 1040.00 L 390.00 1037.00 L 350.00 1031.00 L 350.00 1028.00 L 390.00 1028.00 L 390.00 1025.00 L 350.00 1019.00 L 337.00 918.00 L 351.00 722.00 L 366.00 588.00 L 382.00 516.00 L 414.00 435.00 L 462.00 345.00 L 525.00 278.00 L 603.00 234.00 L 683.00 208.00 L 765.00 200.00 L 840.00 205.00 L 908.00 223.00 L 968.00 250.00 L 1020.00 286.00 L 1079.00 356.00 L 1145.00 460.00 L 1173.00 528.00 L 1163.00 560.00 L 1190.00 614.00 L 1254.00 690.00 L 1264.00 746.00 L 1220.00 782.00 L 1221.00 786.00 L 1267.00 758.00 L 1264.00 763.00 L 1212.00 801.00 L 1212.00 806.00 L 1264.00 778.00 L 1264.00 781.00 L 1212.00 815.00 L 1208.00 820.00 L 1252.00 796.00 L 1251.00 800.00 L 1205.00 832.00 L 1187.00 899.00 L 1197.00 1001.00 L 1154.00 1069.00 L 1058.00 1103.00 L 1026.00 1140.00 L 1058.00 1180.00 L 1062.00 1197.00 L 1038.00 1191.00 L 1038.00 1194.00 L 1062.00 1206.00 L 1063.00 1214.00 L 1041.00 1218.00 L 1045.00 1235.00 L 1075.00 1265.00 L 1074.00 1272.00 L 1042.00 1256.00 L 1043.00 1259.00 L 1077.00 1281.00 L 1071.00 1279.00 L 1025.00 1253.00 L 1024.00 1255.00 L 1068.00 1285.00 L 1066.00 1285.00 L 1018.00 1255.00 L 1015.00 1264.00 L 1057.00 1312.00 L 1077.00 1355.00 L 1075.00 1393.00 L 1087.00 1429.00 L 1113.00 1463.00 L 1114.00 1468.00 L 1090.00 1444.00 L 1092.00 1447.00 L 1120.00 1477.00 L 1118.00 1475.00 L 1086.00 1441.00 L 1092.00 1455.00 L 1136.00 1517.00 L 1167.00 1629.00 L 1185.00 1791.00 L 1113.00 1826.00 L 951.00 1734.00 L 743.00 1649.00 L 489.00 1571.00 L 357.00 1508.00 L 347.00 1460.00 L 334.00 1440.00 L 318.00 1448.00 L 318.00 1445.00 L 334.00 1431.00 L 331.00 1433.00 L 309.00 1451.00 L 309.00 1448.00 L 331.00 1424.00 L 328.00 1423.00 L 300.00 1445.00 L 301.00 1442.00 L 331.00 1414.00 L 331.00 1410.00 L 301.00 1430.00 L 305.00 1418.00 L 343.00 1374.00 L 346.00 1361.00 L 314.00 1379.00 L 315.00 1376.00 L 349.00 1352.00 L 350.00 1349.00 L 318.00 1367.00 L 319.00 1362.00 L 353.00 1334.00 L 354.00 1328.00 L 322.00 1344.00 L 322.00 1341.00 L 354.00 1319.00 L 355.00 1316.00 L 325.00 1332.00 L 327.00 1328.00 L 361.00 1304.00 L 361.00 1301.00 L 327.00 1319.00 L 328.00 1316.00 L 364.00 1292.00 L 365.00 1288.00 L 331.00 1304.00 L 333.00 1300.00 L 371.00 1276.00 L 371.00 1273.00 L 333.00 1291.00 L 333.00 1284.00 L 371.00 1252.00 L 372.00 1244.00 L 336.00 1260.00 L 336.00 1258.00 L 372.00 1238.00 L 373.00 1234.00 L 339.00 1246.00 L 338.00 1243.00 L 370.00 1225.00 L 370.00 1222.00 L 338.00 1234.00 L 337.00 1231.00 L 367.00 1213.00 L 368.00 1206.00 L 340.00 1210.00 L 339.00 1207.00 L 365.00 1197.00 L 365.00 1192.00 L 339.00 1192.00 L 339.00 1188.00 L 365.00 1180.00 L 361.00 1178.00 L 327.00 1182.00 L 328.00 1179.00 L 364.00 1169.00 L 361.00 1166.00 L 319.00 1170.00 L 319.00 1167.00 L 361.00 1157.00 L 360.00 1154.00 L 316.00 1158.00 L 317.00 1154.00 L 363.00 1142.00 L 365.00 1136.00 L 323.00 1136.00 L 323.00 1133.00 L 365.00 1127.00 L 361.00 1124.00 L 311.00 1124.00 L 312.00 1119.00 L 364.00 1109.00 L 362.00 1103.00 L 306.00 1101.00 L 307.00 1097.00 L 365.00 1091.00 L 370.00 1086.00 L 322.00 1082.00 L 305.00 1079.00 L 319.00 1077.00 L 345.00 1072.00 Z" fill="black" stroke="black" stroke-width="1"/>
</svg>