<?xml version="1.0" encoding="UTF-8"?>
<svg xmlns="http://www.w3.org/2000/svg" viewBox="334.00 226.00 909.00 1509.00">
  <path d="M 433.00 1028.00 L 399.00 1024.00 L 399.00 1020.00 L 433.00 1016.00 L 433.00 1013.00 L 399.00 1011.00 L 394.00 1008.00 L 418.00 1004.00 L 418.00 1001.00 L 394.00 999.00 L 400.00 997.00 L 436.00 995.00 L 436.00 991.00 L 400.00 985.00 L 400.00 983.00 L 436.00 985.00 L 436.00 981.00 L 400.00 971.00 L 401.00 968.00 L 439.00 972.00 L 438.00 969.00 L 398.00 959.00 L 398.00 955.00 L 438.00 957.00 L 438.00 953.00 L 398.00 943.00 L 382.00 902.00 L 390.00 830.00 L 385.00 754.00 L 367.00 674.00 L 362.00 590.00 L 370.00 502.00 L 391.00 430.00 L 425.00 374.00 L 479.00 322.00 L 553.00 274.00 L 630.00 246.00 L 710.00 238.00 L 793.00 236.00 L 879.00 240.00 L 958.00 263.00 L 1030.00 305.00 L 1091.00 363.00 L 1141.00 437.00 L 1167.00 518.00 L 1169.00 606.00 L 1189.00 686.00 L 1227.00 758.00 L 1230.00 804.00 L 1198.00 824.00 L 1199.00 827.00 L 1233.00 813.00 L 1233.00 816.00 L 1199.00 836.00 L 1199.00 839.00 L 1233.00 825.00 L 1233.00 827.00 L 1199.00 845.00 L 1196.00 850.00 L 1224.00 842.00 L 1225.00 845.00 L 1199.00 859.00 L 1189.00 877.00 L 1195.00 899.00 L 1190.00 916.00 L 1174.00 928.00 L 1167.00 942.00 L 1169.00 958.00 L 1162.00 978.00 L 1146.00 1002.00 L 1139.00 1027.00 L 1141.00 1053.00 L 1131.00 1076.00 L 1109.00 1096.00 L 1102.00 1111.00 L 1110.00 1121.00 L 1109.00 1134.00 L 1099.00 1150.00 L 1098.00 1163.00 L 1106.00 1173.00 L 1105.00 1176.00 L 1095.00 1172.00 L 1099.00 1178.00 L 1117.00 1194.00 L 1115.00 1197.00 L 1093.00 1187.00 L 1091.00 1190.00 L 1109.00 1206.00 L 1108.00 1209.00 L 1088.00 1199.00 L 1091.00 1214.00 L 1117.00 1254.00 L 1117.00 1266.00 L 1091.00 1250.00 L 1096.00 1258.00 L 1132.00 1290.00 L 1129.00 1291.00 L 1087.00 1261.00 L 1089.00 1263.00 L 1135.00 1297.00 L 1143.00 1304.00 L 1113.00 1284.00 L 1117.00 1292.00 L 1155.00 1328.00 L 1145.00 1324.00 L 1087.00 1280.00 L 1089.00 1283.00 L 1151.00 1333.00 L 1151.00 1336.00 L 1089.00 1292.00 L 1083.00 1291.00 L 1133.00 1333.00 L 1135.00 1336.00 L 1089.00 1300.00 L 1089.00 1318.00 L 1135.00 1390.00 L 1149.00 1417.00 L 1131.00 1399.00 L 1134.00 1405.00 L 1158.00 1435.00 L 1182.00 1481.00 L 1206.00 1543.00 L 1219.00 1605.00 L 1221.00 1667.00 L 1206.00 1707.00 L 1174.00 1725.00 L 1086.00 1696.00 L 942.00 1620.00 L 824.00 1566.00 L 732.00 1534.00 L 621.00 1503.00 L 491.00 1473.00 L 418.00 1447.00 L 402.00 1425.00 L 398.00 1390.00 L 406.00 1342.00 L 402.00 1324.00 L 386.00 1336.00 L 386.00 1333.00 L 402.00 1315.00 L 399.00 1314.00 L 377.00 1330.00 L 378.00 1327.00 L 402.00 1305.00 L 400.00 1303.00 L 372.00 1321.00 L 372.00 1315.00 L 400.00 1285.00 L 400.00 1278.00 L 372.00 1294.00 L 373.00 1291.00 L 403.00 1269.00 L 404.00 1266.00 L 376.00 1282.00 L 377.00 1279.00 L 407.00 1257.00 L 402.00 1255.00 L 362.00 1273.00 L 362.00 1270.00 L 402.00 1246.00 L 401.00 1243.00 L 359.00 1261.00 L 359.00 1258.00 L 401.00 1234.00 L 400.00 1231.00 L 356.00 1249.00 L 357.00 1245.00 L 403.00 1219.00 L 403.00 1216.00 L 357.00 1236.00 L 344.00 1240.00 L 364.00 1228.00 L 364.00 1225.00 L 344.00 1231.00 L 357.00 1223.00 L 403.00 1201.00 L 404.00 1198.00 L 360.00 1214.00 L 361.00 1211.00 L 407.00 1189.00 L 408.00 1186.00 L 364.00 1202.00 L 366.00 1199.00 L 414.00 1177.00 L 414.00 1174.00 L 366.00 1190.00 L 369.00 1187.00 L 423.00 1165.00 L 424.00 1163.00 L 372.00 1181.00 L 370.00 1178.00 L 418.00 1154.00 L 420.00 1148.00 L 376.00 1160.00 L 375.00 1156.00 L 417.00 1136.00 L 420.00 1130.00 L 384.00 1138.00 L 384.00 1135.00 L 420.00 1121.00 L 420.00 1118.00 L 384.00 1126.00 L 376.00 1126.00 L 396.00 1118.00 L 397.00 1114.00 L 379.00 1114.00 L 388.00 1110.00 L 424.00 1102.00 L 424.00 1099.00 L 388.00 1101.00 L 389.00 1097.00 L 427.00 1087.00 L 428.00 1084.00 L 392.00 1088.00 L 392.00 1084.00 L 428.00 1072.00 L 429.00 1066.00 L 395.00 1066.00 L 395.00 1063.00 L 429.00 1057.00 L 429.00 1054.00 L 395.00 1054.00 L 395.00 1051.00 L 429.00 1045.00 L 430.00 1040.00 L 398.00 1036.00 L 399.00 1033.00 L 433.00 1031.00 L 433.00 1028.00 Z" fill="black" stroke="black" stroke-width="1"/>
</svg>