<?xml version="1.0" encoding="UTF-8"?>
<svg xmlns="http://www.w3.org/2000/svg" viewBox="324.00 433.00 779.00 1162.00">
  <path d="M 577.00 968.00 L 575.00 956.00 L 563.00 943.00 L 541.00 929.00 L 502.00 915.00 L 446.00 901.00 L 445.00 900.00 L 499.00 912.00 L 494.00 908.00 L 430.00 888.00 L 429.00 886.00 L 491.00 902.00 L 489.00 901.00 L 423.00 883.00 L 422.00 882.00 L 486.00 898.00 L 484.00 896.00 L 416.00 876.00 L 406.00 872.00 L 454.00 884.00 L 451.00 880.00 L 397.00 860.00 L 406.00 861.00 L 478.00 883.00 L 477.00 882.00 L 403.00 858.00 L 402.00 856.00 L 474.00 876.00 L 472.00 873.00 L 396.00 847.00 L 395.00 845.00 L 469.00 867.00 L 467.00 863.00 L 389.00 833.00 L 388.00 832.00 L 464.00 860.00 L 463.00 857.00 L 385.00 823.00 L 343.00 797.00 L 337.00 779.00 L 334.00 757.00 L 334.00 731.00 L 354.00 687.00 L 394.00 625.00 L 415.00 579.00 L 417.00 549.00 L 434.00 518.00 L 466.00 486.00 L 498.00 462.00 L 530.00 446.00 L 554.00 444.00 L 570.00 456.00 L 599.00 457.00 L 641.00 447.00 L 687.00 443.00 L 737.00 445.00 L 797.00 457.00 L 867.00 479.00 L 924.00 503.00 L 968.00 529.00 L 1003.00 556.00 L 1029.00 584.00 L 1044.00 610.00 L 1048.00 634.00 L 1053.00 643.00 L 1059.00 637.00 L 1059.00 638.00 L 1053.00 646.00 L 1054.00 647.00 L 1062.00 641.00 L 1063.00 643.00 L 1057.00 653.00 L 1059.00 655.00 L 1069.00 649.00 L 1069.00 652.00 L 1059.00 664.00 L 1060.00 667.00 L 1072.00 661.00 L 1073.00 665.00 L 1063.00 679.00 L 1063.00 682.00 L 1073.00 674.00 L 1074.00 681.00 L 1066.00 703.00 L 1069.00 709.00 L 1083.00 699.00 L 1083.00 702.00 L 1069.00 718.00 L 1070.00 720.00 L 1086.00 708.00 L 1086.00 714.00 L 1070.00 738.00 L 1071.00 744.00 L 1089.00 732.00 L 1088.00 737.00 L 1068.00 759.00 L 1068.00 764.00 L 1088.00 752.00 L 1088.00 754.00 L 1068.00 770.00 L 1067.00 773.00 L 1085.00 763.00 L 1085.00 765.00 L 1067.00 779.00 L 1069.00 779.00 L 1091.00 765.00 L 1090.00 767.00 L 1066.00 785.00 L 1065.00 787.00 L 1087.00 773.00 L 1087.00 774.00 L 1065.00 790.00 L 1053.00 806.00 L 1051.00 822.00 L 1064.00 856.00 L 1092.00 908.00 L 1093.00 944.00 L 1067.00 964.00 L 1052.00 992.00 L 1048.00 1028.00 L 1036.00 1054.00 L 1016.00 1070.00 L 1005.00 1088.00 L 1003.00 1108.00 L 996.00 1125.00 L 984.00 1139.00 L 953.00 1149.00 L 903.00 1155.00 L 924.00 1247.00 L 1016.00 1425.00 L 1059.00 1510.00 L 1053.00 1502.00 L 1054.00 1506.00 L 1062.00 1522.00 L 1061.00 1521.00 L 1051.00 1503.00 L 1052.00 1506.00 L 1064.00 1530.00 L 1062.00 1528.00 L 1046.00 1500.00 L 1046.00 1504.00 L 1062.00 1540.00 L 1060.00 1538.00 L 1040.00 1498.00 L 1040.00 1501.00 L 1060.00 1547.00 L 1057.00 1545.00 L 1031.00 1495.00 L 1031.00 1498.00 L 1057.00 1554.00 L 1020.00 1477.00 L 920.00 1267.00 L 920.00 1269.00 L 1020.00 1483.00 L 1053.00 1558.00 L 1019.00 1494.00 L 1017.00 1498.00 L 1047.00 1570.00 L 1013.00 1497.00 L 915.00 1279.00 L 914.00 1282.00 L 1010.00 1506.00 L 1036.00 1572.00 L 992.00 1480.00 L 990.00 1484.00 L 1030.00 1584.00 L 1028.00 1582.00 L 984.00 1478.00 L 983.00 1479.00 L 1025.00 1585.00 L 1000.00 1523.00 L 908.00 1293.00 L 907.00 1295.00 L 997.00 1529.00 L 1016.00 1584.00 L 964.00 1460.00 L 959.00 1456.00 L 1001.00 1572.00 L 1000.00 1571.00 L 956.00 1453.00 L 954.00 1452.00 L 994.00 1568.00 L 975.00 1517.00 L 897.00 1299.00 L 895.00 1297.00 L 969.00 1511.00 L 969.00 1514.00 L 895.00 1306.00 L 892.00 1304.00 L 960.00 1508.00 L 960.00 1510.00 L 892.00 1310.00 L 889.00 1308.00 L 951.00 1504.00 L 951.00 1507.00 L 889.00 1317.00 L 886.00 1315.00 L 942.00 1501.00 L 942.00 1504.00 L 886.00 1324.00 L 882.00 1321.00 L 930.00 1495.00 L 931.00 1501.00 L 885.00 1339.00 L 884.00 1338.00 L 928.00 1498.00 L 928.00 1500.00 L 884.00 1344.00 L 882.00 1342.00 L 922.00 1494.00 L 901.00 1540.00 L 819.00 1480.00 L 706.00 1409.00 L 562.00 1327.00 L 489.00 1280.00 L 487.00 1268.00 L 505.00 1223.00 L 543.00 1145.00 L 566.00 1075.00 L 574.00 1013.00 L 578.00 980.00 L 578.00 976.00 L 577.00 968.00 Z" fill="black" stroke="black" stroke-width="1"/>
</svg>