<?xml version="1.0" encoding="UTF-8"?>
<svg xmlns="http://www.w3.org/2000/svg" viewBox="183.00 288.00 963.00 1534.00">
  <path d="M 344.00 1013.00 L 364.00 987.00 L 331.00 873.00 L 245.00 671.00 L 199.00 557.00 L 193.00 531.00 L 198.00 509.00 L 214.00 491.00 L 267.00 458.00 L 357.00 410.00 L 476.00 359.00 L 624.00 305.00 L 713.00 298.00 L 743.00 338.00 L 804.00 440.00 L 896.00 604.00 L 971.00 693.00 L 1029.00 707.00 L 1040.00 731.00 L 1004.00 765.00 L 1008.00 766.00 L 1052.00 734.00 L 1052.00 736.00 L 1008.00 772.00 L 1010.00 772.00 L 1058.00 736.00 L 1062.00 735.00 L 1022.00 769.00 L 1024.00 770.00 L 1068.00 738.00 L 1065.00 742.00 L 1015.00 782.00 L 1018.00 783.00 L 1074.00 745.00 L 1074.00 747.00 L 1018.00 789.00 L 1020.00 789.00 L 1080.00 747.00 L 1081.00 748.00 L 1023.00 792.00 L 1027.00 794.00 L 1093.00 754.00 L 1093.00 756.00 L 1027.00 800.00 L 1029.00 801.00 L 1099.00 759.00 L 1100.00 762.00 L 1032.00 810.00 L 1034.00 812.00 L 1106.00 768.00 L 1133.00 753.00 L 1115.00 767.00 L 1116.00 769.00 L 1136.00 759.00 L 1109.00 777.00 L 1035.00 823.00 L 1032.00 827.00 L 1100.00 789.00 L 1100.00 790.00 L 1032.00 830.00 L 1000.00 861.00 L 1004.00 883.00 L 1003.00 906.00 L 997.00 930.00 L 1009.00 965.00 L 1039.00 1011.00 L 1056.00 1044.00 L 1060.00 1064.00 L 1057.00 1079.00 L 1047.00 1089.00 L 1031.00 1098.00 L 1009.00 1106.00 L 999.00 1121.00 L 1001.00 1143.00 L 995.00 1171.00 L 981.00 1205.00 L 978.00 1234.00 L 986.00 1258.00 L 988.00 1275.00 L 984.00 1285.00 L 969.00 1300.00 L 943.00 1320.00 L 933.00 1337.00 L 939.00 1351.00 L 935.00 1366.00 L 921.00 1382.00 L 919.00 1402.00 L 929.00 1426.00 L 927.00 1429.00 L 913.00 1411.00 L 911.00 1413.00 L 921.00 1435.00 L 920.00 1438.00 L 908.00 1422.00 L 914.00 1440.00 L 938.00 1492.00 L 950.00 1521.00 L 950.00 1527.00 L 946.00 1525.00 L 938.00 1515.00 L 936.00 1515.00 L 940.00 1525.00 L 932.00 1517.00 L 912.00 1491.00 L 915.00 1508.00 L 941.00 1568.00 L 938.00 1565.00 L 906.00 1499.00 L 914.00 1522.00 L 962.00 1634.00 L 963.00 1641.00 L 917.00 1543.00 L 917.00 1545.00 L 963.00 1647.00 L 965.00 1654.00 L 923.00 1566.00 L 924.00 1574.00 L 968.00 1678.00 L 965.00 1674.00 L 915.00 1562.00 L 915.00 1564.00 L 965.00 1680.00 L 986.00 1752.00 L 978.00 1780.00 L 969.00 1800.00 L 959.00 1812.00 L 949.00 1810.00 L 939.00 1794.00 L 934.00 1789.00 L 934.00 1795.00 L 929.00 1791.00 L 919.00 1777.00 L 914.00 1774.00 L 914.00 1782.00 L 912.00 1780.00 L 908.00 1768.00 L 892.00 1749.00 L 864.00 1723.00 L 824.00 1693.00 L 772.00 1659.00 L 691.00 1611.00 L 581.00 1549.00 L 489.00 1504.00 L 415.00 1476.00 L 374.00 1458.00 L 366.00 1450.00 L 360.00 1441.00 L 356.00 1431.00 L 361.00 1408.00 L 375.00 1372.00 L 385.00 1325.00 L 391.00 1267.00 L 403.00 1216.00 L 421.00 1172.00 L 425.00 1144.00 L 415.00 1132.00 L 415.00 1124.00 L 425.00 1120.00 L 425.00 1115.00 L 415.00 1109.00 L 377.00 1114.00 L 311.00 1130.00 L 286.00 1134.00 L 302.00 1126.00 L 301.00 1124.00 L 283.00 1128.00 L 307.00 1121.00 L 373.00 1103.00 L 373.00 1101.00 L 307.00 1115.00 L 291.00 1116.00 L 325.00 1104.00 L 326.00 1101.00 L 294.00 1107.00 L 310.00 1103.00 L 374.00 1089.00 L 375.00 1087.00 L 313.00 1097.00 L 313.00 1095.00 L 375.00 1081.00 L 376.00 1079.00 L 316.00 1089.00 L 307.00 1089.00 L 349.00 1079.00 L 350.00 1077.00 L 310.00 1083.00 L 320.00 1081.00 L 380.00 1071.00 L 381.00 1069.00 L 323.00 1075.00 L 316.00 1074.00 L 360.00 1066.00 L 362.00 1064.00 L 322.00 1068.00 L 330.00 1066.00 L 386.00 1058.00 L 388.00 1055.00 L 336.00 1057.00 L 335.00 1054.00 L 385.00 1046.00 L 388.00 1042.00 L 344.00 1042.00 L 324.00 1040.00 L 328.00 1036.00 L 331.00 1032.00 L 333.00 1028.00 L 344.00 1013.00 Z" fill="black" stroke="black" stroke-width="1"/>
</svg>