<?xml version="1.0" encoding="UTF-8"?>
<svg xmlns="http://www.w3.org/2000/svg" viewBox="225.00 187.00 940.00 1552.00">
  <path d="M 409.00 944.00 L 363.00 932.00 L 360.00 927.00 L 400.00 929.00 L 394.00 927.00 L 342.00 921.00 L 298.00 897.00 L 262.00 855.00 L 241.00 820.00 L 235.00 792.00 L 235.00 748.00 L 241.00 688.00 L 253.00 636.00 L 271.00 592.00 L 266.00 555.00 L 238.00 525.00 L 240.00 522.00 L 272.00 546.00 L 273.00 544.00 L 243.00 516.00 L 244.00 514.00 L 276.00 538.00 L 277.00 537.00 L 247.00 511.00 L 235.00 496.00 L 241.00 492.00 L 259.00 502.00 L 289.00 526.00 L 292.00 525.00 L 268.00 499.00 L 269.00 497.00 L 295.00 519.00 L 298.00 518.00 L 278.00 494.00 L 281.00 491.00 L 307.00 509.00 L 312.00 505.00 L 296.00 479.00 L 301.00 461.00 L 327.00 451.00 L 350.00 448.00 L 370.00 452.00 L 386.00 449.00 L 398.00 439.00 L 416.00 401.00 L 440.00 335.00 L 469.00 284.00 L 503.00 248.00 L 533.00 224.00 L 559.00 212.00 L 603.00 203.00 L 665.00 197.00 L 732.00 211.00 L 804.00 245.00 L 865.00 285.00 L 915.00 331.00 L 991.00 377.00 L 1093.00 423.00 L 1125.00 474.00 L 1087.00 530.00 L 1089.00 531.00 L 1131.00 477.00 L 1132.00 481.00 L 1092.00 543.00 L 1095.00 546.00 L 1141.00 490.00 L 1141.00 493.00 L 1095.00 555.00 L 1079.00 580.00 L 1093.00 568.00 L 1094.00 575.00 L 1082.00 601.00 L 1088.00 605.00 L 1112.00 587.00 L 1113.00 592.00 L 1091.00 620.00 L 1094.00 622.00 L 1122.00 598.00 L 1121.00 601.00 L 1091.00 631.00 L 1093.00 633.00 L 1127.00 607.00 L 1127.00 611.00 L 1093.00 645.00 L 1096.00 647.00 L 1136.00 617.00 L 1137.00 621.00 L 1099.00 659.00 L 1102.00 661.00 L 1146.00 627.00 L 1146.00 629.00 L 1102.00 667.00 L 1102.00 669.00 L 1146.00 635.00 L 1147.00 639.00 L 1105.00 681.00 L 1104.00 740.00 L 1144.00 816.00 L 1151.00 867.00 L 1125.00 893.00 L 1113.00 915.00 L 1115.00 933.00 L 1106.00 963.00 L 1086.00 1005.00 L 1075.00 1047.00 L 1073.00 1089.00 L 1037.00 1124.00 L 967.00 1152.00 L 938.00 1177.00 L 950.00 1199.00 L 949.00 1201.00 L 935.00 1183.00 L 936.00 1186.00 L 952.00 1210.00 L 952.00 1213.00 L 936.00 1195.00 L 938.00 1213.00 L 958.00 1267.00 L 963.00 1287.00 L 953.00 1273.00 L 996.00 1348.00 L 1092.00 1512.00 L 1098.00 1524.00 L 1014.00 1384.00 L 1015.00 1386.00 L 1101.00 1530.00 L 1102.00 1532.00 L 1018.00 1392.00 L 1020.00 1396.00 L 1108.00 1544.00 L 1153.00 1621.00 L 1155.00 1627.00 L 1147.00 1615.00 L 1129.00 1585.00 L 1130.00 1588.00 L 1150.00 1624.00 L 1106.00 1551.00 L 998.00 1369.00 L 999.00 1373.00 L 1109.00 1563.00 L 1117.00 1577.00 L 1023.00 1415.00 L 1024.00 1419.00 L 1120.00 1589.00 L 1120.00 1592.00 L 1024.00 1428.00 L 1024.00 1436.00 L 1120.00 1616.00 L 1118.00 1615.00 L 1018.00 1433.00 L 1018.00 1439.00 L 1118.00 1633.00 L 1116.00 1633.00 L 1012.00 1439.00 L 1012.00 1442.00 L 1116.00 1642.00 L 1134.00 1679.00 L 1066.00 1553.00 L 1065.00 1556.00 L 1131.00 1688.00 L 1121.00 1672.00 L 1035.00 1508.00 L 1033.00 1515.00 L 1115.00 1693.00 L 1111.00 1692.00 L 1021.00 1512.00 L 1017.00 1516.00 L 1099.00 1704.00 L 1093.00 1699.00 L 999.00 1501.00 L 995.00 1502.00 L 1081.00 1702.00 L 1078.00 1701.00 L 986.00 1499.00 L 980.00 1497.00 L 1060.00 1695.00 L 1059.00 1696.00 L 977.00 1500.00 L 974.00 1498.00 L 1050.00 1690.00 L 1004.00 1729.00 L 836.00 1615.00 L 663.00 1524.00 L 485.00 1456.00 L 395.00 1408.00 L 393.00 1380.00 L 412.00 1326.00 L 452.00 1246.00 L 478.00 1177.00 L 490.00 1119.00 L 506.00 1083.00 L 526.00 1069.00 L 527.00 1066.00 L 509.00 1074.00 L 511.00 1072.00 L 533.00 1060.00 L 535.00 1057.00 L 517.00 1063.00 L 522.00 1054.00 L 550.00 1030.00 L 554.00 1018.00 L 534.00 1018.00 L 504.00 1004.00 L 464.00 976.00 L 441.00 959.00 L 435.00 953.00 L 409.00 944.00 Z" fill="black" stroke="black" stroke-width="1"/>
</svg>