<?xml version="1.0" encoding="UTF-8"?>
<svg xmlns="http://www.w3.org/2000/svg" viewBox="280.00 167.00 918.00 1580.00">
  <path d="M 388.00 921.00 L 392.00 919.00 L 375.00 917.00 L 337.00 915.00 L 337.00 912.00 L 375.00 908.00 L 376.00 904.00 L 340.00 900.00 L 341.00 898.00 L 379.00 898.00 L 380.00 896.00 L 344.00 892.00 L 346.00 890.00 L 386.00 890.00 L 386.00 887.00 L 346.00 881.00 L 330.00 860.00 L 338.00 824.00 L 342.00 788.00 L 342.00 752.00 L 329.00 690.00 L 303.00 602.00 L 290.00 542.00 L 290.00 510.00 L 295.00 473.00 L 305.00 431.00 L 332.00 381.00 L 376.00 323.00 L 417.00 277.00 L 455.00 243.00 L 488.00 219.00 L 516.00 205.00 L 566.00 192.00 L 638.00 180.00 L 719.00 177.00 L 809.00 183.00 L 878.00 198.00 L 926.00 222.00 L 965.00 247.00 L 995.00 273.00 L 1013.00 290.00 L 1019.00 298.00 L 1020.00 310.00 L 1016.00 326.00 L 1017.00 328.00 L 1023.00 316.00 L 1024.00 318.00 L 1020.00 334.00 L 1021.00 337.00 L 1027.00 327.00 L 1028.00 329.00 L 1024.00 343.00 L 1025.00 346.00 L 1031.00 338.00 L 1032.00 341.00 L 1028.00 355.00 L 1029.00 357.00 L 1035.00 347.00 L 1036.00 349.00 L 1032.00 363.00 L 1034.00 365.00 L 1042.00 355.00 L 1043.00 358.00 L 1037.00 374.00 L 1039.00 376.00 L 1049.00 364.00 L 1050.00 367.00 L 1042.00 385.00 L 1043.00 387.00 L 1053.00 373.00 L 1054.00 376.00 L 1046.00 396.00 L 1047.00 399.00 L 1057.00 385.00 L 1057.00 387.00 L 1047.00 405.00 L 1048.00 408.00 L 1060.00 396.00 L 1061.00 399.00 L 1051.00 417.00 L 1051.00 440.00 L 1061.00 468.00 L 1068.00 501.00 L 1072.00 539.00 L 1103.00 585.00 L 1161.00 639.00 L 1188.00 674.00 L 1184.00 690.00 L 1172.00 707.00 L 1152.00 725.00 L 1146.00 748.00 L 1154.00 776.00 L 1154.00 798.00 L 1146.00 814.00 L 1145.00 830.00 L 1151.00 846.00 L 1147.00 863.00 L 1133.00 881.00 L 1123.00 905.00 L 1117.00 935.00 L 1106.00 958.00 L 1090.00 974.00 L 1086.00 988.00 L 1094.00 1000.00 L 1071.00 1043.00 L 1017.00 1117.00 L 1003.00 1180.00 L 1029.00 1232.00 L 1035.00 1250.00 L 1021.00 1234.00 L 1022.00 1236.00 L 1038.00 1256.00 L 1051.00 1279.00 L 1061.00 1305.00 L 1062.00 1313.00 L 1054.00 1303.00 L 1055.00 1305.00 L 1065.00 1319.00 L 1072.00 1343.00 L 1076.00 1377.00 L 1088.00 1413.00 L 1108.00 1451.00 L 1107.00 1454.00 L 1085.00 1422.00 L 1086.00 1424.00 L 1110.00 1460.00 L 1113.00 1465.00 L 1095.00 1439.00 L 1096.00 1441.00 L 1116.00 1471.00 L 1135.00 1508.00 L 1153.00 1552.00 L 1165.00 1601.00 L 1171.00 1655.00 L 1170.00 1695.00 L 1162.00 1721.00 L 1151.00 1735.00 L 1137.00 1737.00 L 1094.00 1707.00 L 1022.00 1645.00 L 917.00 1573.00 L 779.00 1491.00 L 685.00 1439.00 L 635.00 1417.00 L 562.00 1392.00 L 466.00 1364.00 L 409.00 1344.00 L 391.00 1332.00 L 375.00 1314.00 L 361.00 1290.00 L 354.00 1261.00 L 354.00 1227.00 L 360.00 1181.00 L 372.00 1123.00 L 377.00 1086.00 L 375.00 1070.00 L 368.00 1063.00 L 356.00 1065.00 L 356.00 1062.00 L 368.00 1054.00 L 365.00 1052.00 L 347.00 1056.00 L 347.00 1054.00 L 365.00 1046.00 L 364.00 1045.00 L 344.00 1051.00 L 345.00 1046.00 L 367.00 1030.00 L 366.00 1025.00 L 342.00 1031.00 L 343.00 1027.00 L 369.00 1013.00 L 368.00 1009.00 L 340.00 1015.00 L 337.00 1015.00 L 359.00 1009.00 L 373.00 1004.00 L 379.00 1000.00 L 368.00 1000.00 L 340.00 1004.00 L 340.00 1001.00 L 368.00 991.00 L 367.00 988.00 L 337.00 992.00 L 322.00 992.00 L 322.00 988.00 L 338.00 983.00 L 370.00 977.00 L 369.00 975.00 L 335.00 977.00 L 336.00 974.00 L 372.00 966.00 L 372.00 963.00 L 336.00 965.00 L 336.00 963.00 L 372.00 957.00 L 372.00 954.00 L 336.00 954.00 L 336.00 952.00 L 372.00 948.00 L 372.00 946.00 L 336.00 946.00 L 336.00 944.00 L 372.00 940.00 L 372.00 938.00 L 336.00 938.00 L 335.00 936.00 L 369.00 932.00 L 369.00 929.00 L 335.00 927.00 L 335.00 925.00 L 369.00 923.00 L 388.00 921.00 Z" fill="black" stroke="black" stroke-width="1"/>
</svg>