<?xml version="1.0" encoding="UTF-8"?>
<svg xmlns="http://www.w3.org/2000/svg" viewBox="221.00 188.00 951.00 1571.00">
  <path d="M 353.00 971.00 L 351.00 965.00 L 344.00 956.00 L 332.00 944.00 L 329.00 931.00 L 335.00 917.00 L 333.00 906.00 L 323.00 898.00 L 318.00 890.00 L 318.00 882.00 L 321.00 874.00 L 327.00 866.00 L 333.00 854.00 L 339.00 838.00 L 329.00 824.00 L 303.00 812.00 L 295.00 808.00 L 305.00 812.00 L 304.00 811.00 L 292.00 805.00 L 294.00 805.00 L 310.00 811.00 L 309.00 810.00 L 291.00 802.00 L 294.00 803.00 L 318.00 813.00 L 317.00 811.00 L 291.00 797.00 L 278.00 785.00 L 278.00 775.00 L 287.00 760.00 L 305.00 740.00 L 330.00 705.00 L 362.00 655.00 L 379.00 626.00 L 381.00 618.00 L 380.00 606.00 L 376.00 590.00 L 375.00 581.00 L 377.00 579.00 L 378.00 571.00 L 378.00 557.00 L 396.00 513.00 L 432.00 439.00 L 451.00 390.00 L 453.00 366.00 L 464.00 342.00 L 484.00 318.00 L 497.00 305.00 L 503.00 303.00 L 511.00 296.00 L 521.00 284.00 L 534.00 275.00 L 550.00 269.00 L 568.00 260.00 L 588.00 248.00 L 614.00 236.00 L 646.00 224.00 L 669.00 218.00 L 683.00 218.00 L 691.00 216.00 L 693.00 212.00 L 700.00 207.00 L 712.00 201.00 L 721.00 198.00 L 727.00 198.00 L 736.00 200.00 L 748.00 204.00 L 758.00 205.00 L 766.00 203.00 L 781.00 205.00 L 803.00 211.00 L 822.00 214.00 L 838.00 214.00 L 874.00 226.00 L 930.00 250.00 L 966.00 263.00 L 982.00 265.00 L 1011.00 283.00 L 1053.00 317.00 L 1087.00 352.00 L 1113.00 388.00 L 1133.00 423.00 L 1147.00 457.00 L 1156.00 490.00 L 1160.00 522.00 L 1162.00 551.00 L 1162.00 577.00 L 1156.00 617.00 L 1144.00 671.00 L 1125.00 721.00 L 1099.00 767.00 L 1078.00 801.00 L 1062.00 823.00 L 1051.00 845.00 L 1045.00 867.00 L 1037.00 881.00 L 1027.00 887.00 L 1027.00 890.00 L 1037.00 890.00 L 1037.00 893.00 L 1027.00 899.00 L 1027.00 901.00 L 1037.00 899.00 L 1040.00 900.00 L 1036.00 904.00 L 1037.00 909.00 L 1043.00 915.00 L 1048.00 923.00 L 1052.00 933.00 L 1054.00 947.00 L 1054.00 965.00 L 1056.00 984.00 L 1060.00 1004.00 L 1061.00 1023.00 L 1059.00 1041.00 L 1054.00 1062.00 L 1046.00 1086.00 L 1042.00 1109.00 L 1042.00 1131.00 L 1044.00 1144.00 L 1048.00 1148.00 L 1051.00 1154.00 L 1053.00 1162.00 L 1053.00 1169.00 L 1051.00 1175.00 L 1053.00 1187.00 L 1059.00 1205.00 L 1062.00 1218.00 L 1062.00 1226.00 L 1069.00 1252.00 L 1083.00 1296.00 L 1089.00 1332.00 L 1087.00 1360.00 L 1080.00 1382.00 L 1068.00 1398.00 L 1056.00 1409.00 L 1044.00 1415.00 L 1015.00 1421.00 L 969.00 1427.00 L 894.00 1442.00 L 790.00 1466.00 L 706.00 1489.00 L 642.00 1511.00 L 574.00 1539.00 L 502.00 1573.00 L 429.00 1615.00 L 355.00 1665.00 L 302.00 1703.00 L 270.00 1729.00 L 251.00 1744.00 L 245.00 1748.00 L 240.00 1749.00 L 236.00 1747.00 L 233.00 1744.00 L 231.00 1740.00 L 232.00 1731.00 L 236.00 1717.00 L 237.00 1711.00 L 235.00 1713.00 L 239.00 1698.00 L 249.00 1666.00 L 273.00 1619.00 L 311.00 1557.00 L 310.00 1558.00 L 270.00 1622.00 L 273.00 1617.00 L 319.00 1543.00 L 321.00 1539.00 L 279.00 1605.00 L 279.00 1603.00 L 321.00 1533.00 L 326.00 1523.00 L 294.00 1573.00 L 294.00 1571.00 L 326.00 1517.00 L 341.00 1487.00 L 339.00 1481.00 L 358.00 1446.00 L 398.00 1382.00 L 398.00 1379.00 L 358.00 1437.00 L 354.00 1442.00 L 386.00 1394.00 L 386.00 1391.00 L 354.00 1433.00 L 358.00 1425.00 L 398.00 1367.00 L 399.00 1364.00 L 361.00 1416.00 L 345.00 1437.00 L 351.00 1427.00 L 351.00 1426.00 L 345.00 1434.00 L 371.00 1395.00 L 429.00 1309.00 L 447.00 1280.00 L 425.00 1308.00 L 426.00 1306.00 L 450.00 1274.00 L 451.00 1272.00 L 429.00 1300.00 L 428.00 1298.00 L 448.00 1266.00 L 457.00 1248.00 L 455.00 1244.00 L 454.00 1221.00 L 454.00 1179.00 L 453.00 1157.00 L 451.00 1155.00 L 451.00 1146.00 L 453.00 1130.00 L 458.00 1116.00 L 466.00 1104.00 L 459.00 1099.00 L 437.00 1101.00 L 409.00 1096.00 L 375.00 1084.00 L 354.00 1072.00 L 346.00 1060.00 L 342.00 1047.00 L 342.00 1033.00 L 345.00 1015.00 L 351.00 993.00 L 354.00 980.00 L 354.00 976.00 L 353.00 971.00 Z" fill="black" stroke="black" stroke-width="1"/>
</svg>