<?xml version="1.0" encoding="UTF-8"?>
<svg xmlns="http://www.w3.org/2000/svg" viewBox="243.00 378.00 827.00 1246.00">
  <path d="M 270.00 1053.00 L 278.00 1051.00 L 275.00 1048.00 L 261.00 1044.00 L 264.00 1041.00 L 284.00 1039.00 L 284.00 1036.00 L 264.00 1032.00 L 254.00 1027.00 L 254.00 1021.00 L 260.00 1013.00 L 272.00 1003.00 L 287.00 998.00 L 305.00 998.00 L 315.00 994.00 L 317.00 986.00 L 317.00 961.00 L 315.00 919.00 L 302.00 861.00 L 278.00 787.00 L 266.00 730.00 L 266.00 690.00 L 278.00 636.00 L 302.00 568.00 L 325.00 521.00 L 347.00 495.00 L 374.00 468.00 L 406.00 440.00 L 457.00 416.00 L 527.00 396.00 L 596.00 388.00 L 664.00 392.00 L 722.00 400.00 L 770.00 412.00 L 807.00 425.00 L 833.00 439.00 L 867.00 474.00 L 909.00 530.00 L 935.00 579.00 L 945.00 621.00 L 971.00 661.00 L 1013.00 699.00 L 1041.00 732.00 L 1055.00 760.00 L 1060.00 780.00 L 1056.00 792.00 L 1044.00 805.00 L 1024.00 819.00 L 1012.00 844.00 L 1008.00 880.00 L 1016.00 926.00 L 1036.00 982.00 L 1038.00 1019.00 L 1022.00 1037.00 L 991.00 1059.00 L 945.00 1085.00 L 916.00 1107.00 L 904.00 1125.00 L 904.00 1138.00 L 916.00 1146.00 L 921.00 1175.00 L 919.00 1225.00 L 915.00 1255.00 L 909.00 1265.00 L 918.00 1281.00 L 942.00 1303.00 L 941.00 1305.00 L 915.00 1287.00 L 917.00 1291.00 L 947.00 1317.00 L 961.00 1342.00 L 959.00 1366.00 L 973.00 1417.00 L 1003.00 1495.00 L 1018.00 1546.00 L 1018.00 1570.00 L 1015.00 1587.00 L 1009.00 1597.00 L 997.00 1606.00 L 979.00 1614.00 L 913.00 1591.00 L 799.00 1537.00 L 715.00 1502.00 L 661.00 1486.00 L 618.00 1475.00 L 586.00 1469.00 L 527.00 1468.00 L 441.00 1472.00 L 388.00 1472.00 L 368.00 1468.00 L 348.00 1459.00 L 328.00 1445.00 L 315.00 1420.00 L 309.00 1384.00 L 295.00 1376.00 L 273.00 1396.00 L 273.00 1393.00 L 295.00 1367.00 L 292.00 1368.00 L 264.00 1396.00 L 265.00 1394.00 L 295.00 1362.00 L 293.00 1361.00 L 259.00 1391.00 L 259.00 1389.00 L 293.00 1355.00 L 291.00 1354.00 L 253.00 1386.00 L 253.00 1384.00 L 291.00 1348.00 L 311.00 1328.00 L 313.00 1324.00 L 294.00 1339.00 L 254.00 1373.00 L 255.00 1370.00 L 297.00 1330.00 L 297.00 1328.00 L 255.00 1364.00 L 255.00 1363.00 L 297.00 1325.00 L 303.00 1319.00 L 273.00 1345.00 L 274.00 1342.00 L 306.00 1310.00 L 307.00 1306.00 L 277.00 1330.00 L 270.00 1335.00 L 286.00 1321.00 L 287.00 1319.00 L 273.00 1329.00 L 280.00 1322.00 L 308.00 1298.00 L 307.00 1297.00 L 277.00 1319.00 L 277.00 1317.00 L 307.00 1291.00 L 308.00 1288.00 L 280.00 1308.00 L 281.00 1305.00 L 311.00 1279.00 L 312.00 1276.00 L 284.00 1296.00 L 286.00 1292.00 L 318.00 1264.00 L 318.00 1260.00 L 286.00 1280.00 L 286.00 1278.00 L 318.00 1254.00 L 318.00 1252.00 L 286.00 1272.00 L 286.00 1270.00 L 318.00 1246.00 L 318.00 1244.00 L 286.00 1264.00 L 286.00 1261.00 L 318.00 1235.00 L 319.00 1229.00 L 289.00 1243.00 L 288.00 1241.00 L 316.00 1223.00 L 317.00 1221.00 L 291.00 1235.00 L 290.00 1232.00 L 314.00 1212.00 L 315.00 1206.00 L 293.00 1214.00 L 293.00 1211.00 L 315.00 1197.00 L 315.00 1195.00 L 293.00 1205.00 L 293.00 1203.00 L 315.00 1189.00 L 315.00 1186.00 L 293.00 1194.00 L 293.00 1191.00 L 315.00 1177.00 L 316.00 1174.00 L 296.00 1182.00 L 297.00 1180.00 L 319.00 1168.00 L 319.00 1166.00 L 297.00 1174.00 L 297.00 1172.00 L 319.00 1160.00 L 320.00 1157.00 L 300.00 1163.00 L 301.00 1161.00 L 323.00 1151.00 L 323.00 1148.00 L 301.00 1152.00 L 301.00 1149.00 L 323.00 1139.00 L 323.00 1136.00 L 301.00 1140.00 L 302.00 1137.00 L 326.00 1127.00 L 338.00 1120.00 L 338.00 1116.00 L 327.00 1116.00 L 305.00 1120.00 L 302.00 1120.00 L 318.00 1116.00 L 318.00 1114.00 L 302.00 1114.00 L 306.00 1111.00 L 330.00 1105.00 L 323.00 1103.00 L 285.00 1105.00 L 283.00 1103.00 L 317.00 1097.00 L 316.00 1096.00 L 280.00 1100.00 L 282.00 1099.00 L 322.00 1093.00 L 322.00 1091.00 L 282.00 1093.00 L 282.00 1091.00 L 322.00 1085.00 L 321.00 1083.00 L 279.00 1085.00 L 268.00 1084.00 L 288.00 1080.00 L 289.00 1078.00 L 271.00 1078.00 L 265.00 1077.00 L 271.00 1075.00 L 292.00 1073.00 L 328.00 1071.00 L 329.00 1068.00 L 295.00 1064.00 L 275.00 1060.00 L 269.00 1056.00 L 270.00 1053.00 Z" fill="black" stroke="black" stroke-width="1"/>
</svg>