<?xml version="1.0" encoding="UTF-8"?>
<svg xmlns="http://www.w3.org/2000/svg" viewBox="349.00 249.00 926.00 1432.00">
  <path d="M 419.00 984.00 L 421.00 972.00 L 411.00 957.00 L 389.00 939.00 L 378.00 925.00 L 378.00 915.00 L 402.00 883.00 L 450.00 829.00 L 476.00 781.00 L 480.00 739.00 L 445.00 682.00 L 371.00 610.00 L 372.00 607.00 L 448.00 673.00 L 450.00 671.00 L 378.00 601.00 L 378.00 598.00 L 450.00 662.00 L 453.00 661.00 L 387.00 595.00 L 388.00 592.00 L 456.00 652.00 L 460.00 651.00 L 400.00 589.00 L 401.00 586.00 L 463.00 642.00 L 469.00 642.00 L 419.00 586.00 L 420.00 584.00 L 472.00 636.00 L 475.00 636.00 L 429.00 584.00 L 430.00 581.00 L 478.00 627.00 L 484.00 627.00 L 448.00 581.00 L 447.00 557.00 L 481.00 555.00 L 508.00 548.00 L 528.00 536.00 L 595.00 463.00 L 709.00 329.00 L 776.00 261.00 L 796.00 259.00 L 823.00 265.00 L 857.00 279.00 L 954.00 328.00 L 1114.00 412.00 L 1212.00 469.00 L 1248.00 499.00 L 1265.00 526.00 L 1263.00 550.00 L 1218.00 644.00 L 1130.00 808.00 L 1092.00 902.00 L 1104.00 926.00 L 1102.00 942.00 L 1086.00 950.00 L 1089.00 955.00 L 1111.00 957.00 L 1112.00 961.00 L 1092.00 967.00 L 1094.00 970.00 L 1118.00 970.00 L 1119.00 972.00 L 1097.00 976.00 L 1098.00 979.00 L 1122.00 981.00 L 1123.00 984.00 L 1101.00 988.00 L 1102.00 991.00 L 1126.00 993.00 L 1127.00 996.00 L 1105.00 1000.00 L 1108.00 1005.00 L 1136.00 1011.00 L 1123.00 1014.00 L 1069.00 1014.00 L 1070.00 1017.00 L 1126.00 1023.00 L 1128.00 1024.00 L 1076.00 1020.00 L 1078.00 1023.00 L 1134.00 1033.00 L 1135.00 1035.00 L 1081.00 1029.00 L 1082.00 1033.00 L 1138.00 1047.00 L 1137.00 1050.00 L 1079.00 1042.00 L 1078.00 1045.00 L 1134.00 1059.00 L 1136.00 1063.00 L 1084.00 1057.00 L 1073.00 1058.00 L 1103.00 1066.00 L 1104.00 1068.00 L 1076.00 1064.00 L 1076.00 1067.00 L 1104.00 1077.00 L 1105.00 1081.00 L 1079.00 1079.00 L 1080.00 1084.00 L 1108.00 1096.00 L 1108.00 1098.00 L 1080.00 1090.00 L 1089.00 1100.00 L 1135.00 1128.00 L 1136.00 1133.00 L 1092.00 1115.00 L 1091.00 1117.00 L 1133.00 1139.00 L 1134.00 1142.00 L 1094.00 1126.00 L 1089.00 1127.00 L 1119.00 1145.00 L 1121.00 1150.00 L 1095.00 1142.00 L 1092.00 1145.00 L 1112.00 1159.00 L 1113.00 1162.00 L 1095.00 1154.00 L 1095.00 1157.00 L 1113.00 1171.00 L 1114.00 1175.00 L 1098.00 1169.00 L 1099.00 1173.00 L 1117.00 1187.00 L 1121.00 1192.00 L 1111.00 1188.00 L 1111.00 1191.00 L 1121.00 1201.00 L 1117.00 1200.00 L 1099.00 1188.00 L 1100.00 1191.00 L 1120.00 1209.00 L 1119.00 1212.00 L 1097.00 1200.00 L 1097.00 1203.00 L 1119.00 1221.00 L 1118.00 1223.00 L 1094.00 1209.00 L 1095.00 1217.00 L 1121.00 1247.00 L 1119.00 1250.00 L 1089.00 1226.00 L 1090.00 1228.00 L 1122.00 1256.00 L 1123.00 1260.00 L 1093.00 1240.00 L 1093.00 1244.00 L 1123.00 1272.00 L 1124.00 1275.00 L 1096.00 1253.00 L 1097.00 1259.00 L 1127.00 1293.00 L 1130.00 1300.00 L 1106.00 1280.00 L 1106.00 1282.00 L 1130.00 1306.00 L 1130.00 1310.00 L 1106.00 1294.00 L 1105.00 1299.00 L 1127.00 1325.00 L 1128.00 1329.00 L 1108.00 1311.00 L 1108.00 1314.00 L 1128.00 1338.00 L 1129.00 1341.00 L 1111.00 1323.00 L 1111.00 1325.00 L 1129.00 1347.00 L 1129.00 1350.00 L 1111.00 1334.00 L 1111.00 1341.00 L 1129.00 1371.00 L 1132.00 1379.00 L 1120.00 1365.00 L 1117.00 1366.00 L 1123.00 1382.00 L 1123.00 1388.00 L 1117.00 1384.00 L 1105.00 1395.00 L 1087.00 1421.00 L 975.00 1461.00 L 769.00 1515.00 L 593.00 1576.00 L 447.00 1644.00 L 369.00 1671.00 L 359.00 1657.00 L 359.00 1631.00 L 369.00 1593.00 L 392.00 1550.00 L 428.00 1502.00 L 430.00 1499.00 L 398.00 1541.00 L 410.00 1515.00 L 466.00 1421.00 L 480.00 1390.00 L 452.00 1422.00 L 452.00 1420.00 L 480.00 1384.00 L 481.00 1381.00 L 455.00 1411.00 L 454.00 1408.00 L 478.00 1372.00 L 489.00 1349.00 L 487.00 1339.00 L 481.00 1339.00 L 471.00 1349.00 L 471.00 1335.00 L 481.00 1297.00 L 481.00 1282.00 L 471.00 1290.00 L 471.00 1287.00 L 481.00 1273.00 L 480.00 1270.00 L 468.00 1278.00 L 467.00 1275.00 L 477.00 1261.00 L 476.00 1238.00 L 464.00 1206.00 L 462.00 1186.00 L 470.00 1178.00 L 461.00 1147.00 L 435.00 1093.00 L 420.00 1049.00 L 416.00 1015.00 L 415.00 996.00 L 417.00 992.00 L 419.00 984.00 Z" fill="black" stroke="black" stroke-width="1"/>
</svg>