<?xml version="1.0" encoding="UTF-8"?>
<svg xmlns="http://www.w3.org/2000/svg" viewBox="300.00 186.00 910.00 1600.00">
  <path d="M 319.00 978.00 L 321.00 962.00 L 329.00 937.00 L 343.00 903.00 L 368.00 863.00 L 404.00 817.00 L 397.00 728.00 L 347.00 596.00 L 318.00 510.00 L 310.00 470.00 L 312.00 439.00 L 324.00 417.00 L 338.00 398.00 L 354.00 382.00 L 386.00 356.00 L 434.00 320.00 L 477.00 292.00 L 515.00 272.00 L 558.00 252.00 L 606.00 232.00 L 648.00 217.00 L 684.00 207.00 L 716.00 200.00 L 744.00 196.00 L 763.00 197.00 L 773.00 203.00 L 789.00 216.00 L 811.00 236.00 L 858.00 299.00 L 930.00 405.00 L 969.00 465.00 L 975.00 479.00 L 1030.00 503.00 L 1134.00 537.00 L 1158.00 584.00 L 1102.00 644.00 L 1105.00 645.00 L 1167.00 587.00 L 1170.00 587.00 L 1114.00 645.00 L 1117.00 647.00 L 1179.00 593.00 L 1177.00 596.00 L 1111.00 656.00 L 1113.00 657.00 L 1183.00 599.00 L 1183.00 601.00 L 1113.00 663.00 L 1115.00 665.00 L 1189.00 607.00 L 1190.00 609.00 L 1118.00 671.00 L 1120.00 674.00 L 1196.00 618.00 L 1196.00 621.00 L 1120.00 683.00 L 1121.00 685.00 L 1199.00 627.00 L 1199.00 629.00 L 1121.00 691.00 L 1121.00 693.00 L 1199.00 635.00 L 1200.00 637.00 L 1124.00 699.00 L 1119.00 706.00 L 1185.00 658.00 L 1183.00 664.00 L 1113.00 724.00 L 1077.00 760.00 L 1075.00 772.00 L 1076.00 784.00 L 1080.00 796.00 L 1096.00 822.00 L 1124.00 862.00 L 1139.00 889.00 L 1141.00 903.00 L 1141.00 912.00 L 1139.00 916.00 L 1126.00 922.00 L 1102.00 930.00 L 1100.00 933.00 L 1120.00 931.00 L 1118.00 932.00 L 1094.00 936.00 L 1092.00 937.00 L 1112.00 935.00 L 1111.00 937.00 L 1089.00 943.00 L 1079.00 957.00 L 1081.00 979.00 L 1079.00 994.00 L 1073.00 1002.00 L 1071.00 1011.00 L 1073.00 1021.00 L 1068.00 1035.00 L 1056.00 1053.00 L 1053.00 1076.00 L 1059.00 1104.00 L 1056.00 1127.00 L 1044.00 1145.00 L 1030.00 1158.00 L 1014.00 1166.00 L 1011.00 1176.00 L 1021.00 1188.00 L 1024.00 1198.00 L 1020.00 1206.00 L 997.00 1224.00 L 955.00 1252.00 L 936.00 1281.00 L 940.00 1311.00 L 936.00 1316.00 L 924.00 1296.00 L 937.00 1323.00 L 975.00 1397.00 L 977.00 1404.00 L 943.00 1344.00 L 944.00 1346.00 L 980.00 1410.00 L 979.00 1409.00 L 941.00 1343.00 L 943.00 1348.00 L 985.00 1424.00 L 983.00 1421.00 L 937.00 1339.00 L 940.00 1346.00 L 992.00 1442.00 L 1005.00 1467.00 L 979.00 1421.00 L 980.00 1424.00 L 1008.00 1476.00 L 1004.00 1469.00 L 968.00 1403.00 L 969.00 1406.00 L 1007.00 1478.00 L 1027.00 1517.00 L 1029.00 1523.00 L 1010.00 1489.00 L 970.00 1415.00 L 971.00 1418.00 L 1013.00 1498.00 L 1044.00 1571.00 L 1064.00 1637.00 L 1073.00 1669.00 L 1071.00 1667.00 L 1071.00 1675.00 L 1073.00 1693.00 L 1072.00 1711.00 L 1068.00 1729.00 L 1060.00 1746.00 L 1048.00 1762.00 L 1033.00 1772.00 L 1015.00 1776.00 L 997.00 1774.00 L 979.00 1766.00 L 942.00 1730.00 L 886.00 1666.00 L 825.00 1611.00 L 759.00 1565.00 L 679.00 1524.00 L 585.00 1488.00 L 508.00 1467.00 L 448.00 1461.00 L 419.00 1446.00 L 421.00 1422.00 L 416.00 1410.00 L 404.00 1410.00 L 397.00 1406.00 L 395.00 1398.00 L 400.00 1379.00 L 412.00 1349.00 L 420.00 1320.00 L 424.00 1292.00 L 421.00 1281.00 L 411.00 1287.00 L 412.00 1284.00 L 424.00 1272.00 L 423.00 1270.00 L 409.00 1278.00 L 410.00 1273.00 L 426.00 1255.00 L 425.00 1252.00 L 407.00 1264.00 L 404.00 1259.00 L 416.00 1237.00 L 417.00 1225.00 L 407.00 1223.00 L 401.00 1220.00 L 399.00 1216.00 L 403.00 1209.00 L 413.00 1199.00 L 413.00 1197.00 L 403.00 1203.00 L 405.00 1201.00 L 419.00 1191.00 L 421.00 1189.00 L 411.00 1195.00 L 413.00 1191.00 L 427.00 1177.00 L 434.00 1154.00 L 434.00 1122.00 L 437.00 1096.00 L 443.00 1076.00 L 426.00 1068.00 L 386.00 1072.00 L 386.00 1069.00 L 426.00 1059.00 L 424.00 1058.00 L 380.00 1066.00 L 378.00 1065.00 L 418.00 1055.00 L 415.00 1054.00 L 369.00 1062.00 L 341.00 1061.00 L 331.00 1051.00 L 324.00 1034.00 L 320.00 1010.00 L 318.00 995.00 L 318.00 989.00 L 319.00 978.00 Z" fill="black" stroke="black" stroke-width="1"/>
</svg>