<?xml version="1.0" encoding="UTF-8"?>
<svg xmlns="http://www.w3.org/2000/svg" viewBox="365.00 217.00 873.00 1535.00">
  <path d="M 460.00 998.00 L 440.00 990.00 L 426.00 978.00 L 418.00 962.00 L 418.00 936.00 L 426.00 900.00 L 431.00 851.00 L 433.00 789.00 L 420.00 748.00 L 392.00 728.00 L 393.00 726.00 L 423.00 742.00 L 421.00 737.00 L 387.00 711.00 L 387.00 709.00 L 421.00 731.00 L 422.00 729.00 L 390.00 703.00 L 375.00 687.00 L 377.00 681.00 L 385.00 668.00 L 399.00 648.00 L 428.00 619.00 L 472.00 581.00 L 498.00 545.00 L 506.00 511.00 L 521.00 473.00 L 543.00 431.00 L 582.00 377.00 L 638.00 311.00 L 682.00 269.00 L 714.00 251.00 L 765.00 237.00 L 835.00 227.00 L 905.00 234.00 L 975.00 258.00 L 1023.00 282.00 L 1049.00 306.00 L 1078.00 345.00 L 1110.00 399.00 L 1135.00 467.00 L 1153.00 549.00 L 1162.00 656.00 L 1162.00 788.00 L 1157.00 873.00 L 1147.00 911.00 L 1143.00 939.00 L 1145.00 957.00 L 1132.00 970.00 L 1104.00 978.00 L 1104.00 981.00 L 1132.00 979.00 L 1134.00 980.00 L 1110.00 984.00 L 1119.00 987.00 L 1161.00 989.00 L 1159.00 991.00 L 1113.00 993.00 L 1115.00 994.00 L 1165.00 994.00 L 1169.00 996.00 L 1127.00 1000.00 L 1129.00 1003.00 L 1175.00 1005.00 L 1172.00 1006.00 L 1120.00 1006.00 L 1120.00 1009.00 L 1172.00 1015.00 L 1172.00 1017.00 L 1120.00 1015.00 L 1117.00 1017.00 L 1163.00 1023.00 L 1163.00 1026.00 L 1117.00 1026.00 L 1111.00 1028.00 L 1145.00 1032.00 L 1151.00 1033.00 L 1129.00 1031.00 L 1130.00 1033.00 L 1154.00 1039.00 L 1148.00 1040.00 L 1112.00 1036.00 L 1113.00 1039.00 L 1151.00 1049.00 L 1151.00 1052.00 L 1113.00 1048.00 L 1115.00 1053.00 L 1157.00 1067.00 L 1157.00 1070.00 L 1115.00 1062.00 L 1117.00 1066.00 L 1163.00 1082.00 L 1162.00 1085.00 L 1114.00 1075.00 L 1115.00 1079.00 L 1165.00 1097.00 L 1165.00 1099.00 L 1115.00 1085.00 L 1114.00 1088.00 L 1162.00 1108.00 L 1163.00 1111.00 L 1117.00 1097.00 L 1118.00 1100.00 L 1166.00 1120.00 L 1168.00 1124.00 L 1124.00 1112.00 L 1125.00 1115.00 L 1171.00 1133.00 L 1185.00 1139.00 L 1167.00 1133.00 L 1167.00 1135.00 L 1185.00 1145.00 L 1172.00 1142.00 L 1128.00 1126.00 L 1129.00 1128.00 L 1175.00 1148.00 L 1190.00 1155.00 L 1174.00 1149.00 L 1174.00 1151.00 L 1190.00 1161.00 L 1177.00 1157.00 L 1135.00 1139.00 L 1136.00 1142.00 L 1180.00 1166.00 L 1182.00 1169.00 L 1142.00 1151.00 L 1143.00 1153.00 L 1185.00 1175.00 L 1187.00 1177.00 L 1149.00 1159.00 L 1150.00 1162.00 L 1190.00 1186.00 L 1192.00 1189.00 L 1156.00 1171.00 L 1157.00 1173.00 L 1195.00 1195.00 L 1198.00 1199.00 L 1166.00 1185.00 L 1167.00 1188.00 L 1201.00 1208.00 L 1202.00 1210.00 L 1170.00 1194.00 L 1171.00 1197.00 L 1205.00 1219.00 L 1215.00 1227.00 L 1201.00 1221.00 L 1201.00 1223.00 L 1215.00 1233.00 L 1208.00 1230.00 L 1180.00 1214.00 L 1181.00 1217.00 L 1211.00 1239.00 L 1219.00 1247.00 L 1205.00 1241.00 L 1206.00 1243.00 L 1222.00 1253.00 L 1217.00 1250.00 L 1191.00 1234.00 L 1192.00 1237.00 L 1220.00 1259.00 L 1221.00 1262.00 L 1195.00 1246.00 L 1196.00 1249.00 L 1224.00 1271.00 L 1226.00 1274.00 L 1202.00 1258.00 L 1202.00 1261.00 L 1226.00 1283.00 L 1228.00 1289.00 L 1208.00 1279.00 L 1205.00 1281.00 L 1219.00 1295.00 L 1220.00 1298.00 L 1208.00 1290.00 L 1203.00 1291.00 L 1205.00 1301.00 L 1203.00 1310.00 L 1197.00 1318.00 L 1157.00 1325.00 L 1083.00 1331.00 L 1016.00 1344.00 L 956.00 1364.00 L 882.00 1406.00 L 794.00 1470.00 L 702.00 1555.00 L 606.00 1661.00 L 545.00 1721.00 L 519.00 1735.00 L 493.00 1742.00 L 467.00 1742.00 L 442.00 1729.00 L 418.00 1703.00 L 402.00 1671.00 L 394.00 1633.00 L 391.00 1601.00 L 393.00 1575.00 L 412.00 1508.00 L 448.00 1400.00 L 478.00 1326.00 L 502.00 1286.00 L 517.00 1252.00 L 523.00 1224.00 L 533.00 1203.00 L 547.00 1189.00 L 551.00 1184.00 L 545.00 1188.00 L 545.00 1186.00 L 551.00 1178.00 L 553.00 1167.00 L 551.00 1153.00 L 536.00 1127.00 L 508.00 1089.00 L 498.00 1065.00 L 506.00 1055.00 L 503.00 1040.00 L 489.00 1020.00 L 479.00 1008.00 L 473.00 1004.00 L 460.00 998.00 Z" fill="black" stroke="black" stroke-width="1"/>
</svg>