<?xml version="1.0" encoding="UTF-8"?>
<svg xmlns="http://www.w3.org/2000/svg" viewBox="406.00 140.00 1049.00 1559.00">
  <path d="M 424.00 837.00 L 420.00 819.00 L 437.00 784.00 L 475.00 732.00 L 493.00 686.00 L 491.00 646.00 L 483.00 617.00 L 469.00 599.00 L 470.00 594.00 L 486.00 602.00 L 486.00 596.00 L 470.00 576.00 L 471.00 572.00 L 489.00 584.00 L 490.00 581.00 L 474.00 563.00 L 475.00 560.00 L 493.00 572.00 L 495.00 569.00 L 481.00 551.00 L 482.00 548.00 L 498.00 560.00 L 503.00 550.00 L 497.00 518.00 L 502.00 508.00 L 518.00 520.00 L 519.00 517.00 L 505.00 499.00 L 506.00 497.00 L 522.00 511.00 L 524.00 508.00 L 512.00 488.00 L 513.00 485.00 L 527.00 499.00 L 530.00 497.00 L 522.00 479.00 L 525.00 466.00 L 539.00 458.00 L 537.00 421.00 L 519.00 355.00 L 515.00 317.00 L 525.00 307.00 L 546.00 305.00 L 578.00 311.00 L 593.00 306.00 L 591.00 290.00 L 594.00 291.00 L 602.00 309.00 L 601.00 302.00 L 591.00 270.00 L 594.00 271.00 L 610.00 305.00 L 609.00 291.00 L 591.00 229.00 L 594.00 229.00 L 618.00 291.00 L 619.00 289.00 L 597.00 223.00 L 599.00 224.00 L 625.00 292.00 L 627.00 288.00 L 605.00 212.00 L 607.00 212.00 L 633.00 288.00 L 635.00 285.00 L 613.00 203.00 L 616.00 204.00 L 644.00 288.00 L 648.00 285.00 L 628.00 195.00 L 631.00 196.00 L 657.00 288.00 L 660.00 290.00 L 640.00 202.00 L 644.00 202.00 L 672.00 290.00 L 680.00 296.00 L 668.00 220.00 L 668.00 204.00 L 680.00 248.00 L 683.00 250.00 L 677.00 210.00 L 683.00 204.00 L 701.00 232.00 L 708.00 230.00 L 704.00 198.00 L 705.00 201.00 L 711.00 239.00 L 714.00 234.00 L 714.00 186.00 L 723.00 200.00 L 741.00 276.00 L 748.00 276.00 L 744.00 200.00 L 747.00 197.00 L 757.00 267.00 L 760.00 268.00 L 756.00 200.00 L 759.00 197.00 L 769.00 259.00 L 774.00 262.00 L 774.00 206.00 L 778.00 201.00 L 786.00 247.00 L 790.00 251.00 L 790.00 213.00 L 793.00 210.00 L 799.00 242.00 L 844.00 229.00 L 928.00 171.00 L 1012.00 150.00 L 1096.00 166.00 L 1180.00 207.00 L 1264.00 273.00 L 1319.00 347.00 L 1345.00 429.00 L 1367.00 467.00 L 1385.00 461.00 L 1386.00 464.00 L 1370.00 476.00 L 1373.00 477.00 L 1395.00 467.00 L 1396.00 471.00 L 1376.00 489.00 L 1379.00 491.00 L 1405.00 477.00 L 1413.00 477.00 L 1403.00 491.00 L 1409.00 500.00 L 1431.00 504.00 L 1441.00 522.00 L 1439.00 554.00 L 1425.00 576.00 L 1399.00 588.00 L 1403.00 587.00 L 1437.00 573.00 L 1438.00 578.00 L 1406.00 602.00 L 1408.00 610.00 L 1444.00 602.00 L 1445.00 607.00 L 1411.00 625.00 L 1410.00 629.00 L 1442.00 619.00 L 1443.00 624.00 L 1413.00 644.00 L 1385.00 703.00 L 1359.00 801.00 L 1334.00 857.00 L 1310.00 871.00 L 1262.00 879.00 L 1190.00 881.00 L 1168.00 884.00 L 1196.00 888.00 L 1186.00 894.00 L 1138.00 902.00 L 1106.00 914.00 L 1090.00 930.00 L 1084.00 953.00 L 1088.00 983.00 L 1080.00 995.00 L 1060.00 989.00 L 1057.00 991.00 L 1071.00 1001.00 L 1071.00 1004.00 L 1057.00 1000.00 L 1056.00 1010.00 L 1068.00 1034.00 L 1068.00 1042.00 L 1056.00 1034.00 L 1079.00 1101.00 L 1137.00 1243.00 L 1161.00 1309.00 L 1151.00 1299.00 L 1152.00 1305.00 L 1164.00 1327.00 L 1167.00 1365.00 L 1161.00 1419.00 L 1069.00 1477.00 L 891.00 1539.00 L 734.00 1608.00 L 598.00 1684.00 L 556.00 1637.00 L 608.00 1467.00 L 605.00 1469.00 L 547.00 1643.00 L 546.00 1640.00 L 602.00 1460.00 L 596.00 1465.00 L 528.00 1655.00 L 527.00 1652.00 L 593.00 1456.00 L 590.00 1459.00 L 518.00 1661.00 L 519.00 1654.00 L 593.00 1438.00 L 589.00 1441.00 L 507.00 1663.00 L 505.00 1664.00 L 583.00 1444.00 L 574.00 1452.00 L 478.00 1688.00 L 475.00 1689.00 L 565.00 1455.00 L 563.00 1452.00 L 469.00 1680.00 L 468.00 1672.00 L 560.00 1428.00 L 557.00 1419.00 L 459.00 1645.00 L 457.00 1645.00 L 551.00 1419.00 L 546.00 1413.00 L 442.00 1627.00 L 439.00 1628.00 L 537.00 1416.00 L 533.00 1408.00 L 427.00 1604.00 L 426.00 1598.00 L 530.00 1390.00 L 528.00 1386.00 L 420.00 1586.00 L 423.00 1576.00 L 537.00 1356.00 L 536.00 1353.00 L 420.00 1567.00 L 420.00 1564.00 L 536.00 1344.00 L 535.00 1340.00 L 417.00 1552.00 L 416.00 1549.00 L 532.00 1331.00 L 536.00 1317.00 L 428.00 1507.00 L 425.00 1511.00 L 527.00 1329.00 L 556.00 1272.00 L 512.00 1340.00 L 513.00 1332.00 L 559.00 1248.00 L 572.00 1222.00 L 552.00 1254.00 L 554.00 1234.00 L 578.00 1162.00 L 582.00 1134.00 L 566.00 1150.00 L 564.00 1148.00 L 576.00 1128.00 L 558.00 1106.00 L 510.00 1082.00 L 482.00 1024.00 L 474.00 932.00 L 462.00 878.00 L 446.00 862.00 L 435.00 852.00 L 429.00 848.00 L 424.00 837.00 Z" fill="black" stroke="black" stroke-width="1"/>
</svg>