<?xml version="1.0" encoding="UTF-8"?>
<svg xmlns="http://www.w3.org/2000/svg" viewBox="360.00 250.00 812.00 1437.00">
  <path d="M 421.00 923.00 L 411.00 917.00 L 408.00 914.00 L 412.00 914.00 L 407.00 913.00 L 393.00 911.00 L 389.00 910.00 L 395.00 910.00 L 391.00 906.00 L 377.00 898.00 L 370.00 891.00 L 370.00 885.00 L 379.00 869.00 L 397.00 843.00 L 415.00 811.00 L 433.00 773.00 L 440.00 746.00 L 436.00 730.00 L 435.00 706.00 L 437.00 674.00 L 427.00 647.00 L 405.00 625.00 L 405.00 622.00 L 427.00 638.00 L 428.00 635.00 L 408.00 613.00 L 408.00 611.00 L 428.00 629.00 L 429.00 628.00 L 411.00 608.00 L 411.00 607.00 L 429.00 625.00 L 429.00 623.00 L 411.00 601.00 L 411.00 598.00 L 429.00 614.00 L 430.00 611.00 L 414.00 589.00 L 414.00 586.00 L 430.00 602.00 L 430.00 598.00 L 414.00 574.00 L 414.00 571.00 L 430.00 589.00 L 431.00 588.00 L 417.00 568.00 L 418.00 567.00 L 434.00 585.00 L 434.00 584.00 L 418.00 564.00 L 418.00 562.00 L 434.00 578.00 L 435.00 575.00 L 421.00 553.00 L 421.00 550.00 L 435.00 566.00 L 436.00 564.00 L 424.00 544.00 L 421.00 535.00 L 427.00 537.00 L 428.00 535.00 L 424.00 529.00 L 428.00 534.00 L 440.00 550.00 L 443.00 552.00 L 437.00 540.00 L 437.00 537.00 L 443.00 543.00 L 441.00 539.00 L 431.00 525.00 L 432.00 523.00 L 444.00 533.00 L 445.00 530.00 L 435.00 514.00 L 435.00 512.00 L 445.00 524.00 L 446.00 522.00 L 438.00 506.00 L 439.00 504.00 L 449.00 516.00 L 450.00 515.00 L 442.00 501.00 L 442.00 499.00 L 450.00 509.00 L 451.00 507.00 L 445.00 493.00 L 446.00 492.00 L 454.00 504.00 L 457.00 508.00 L 455.00 504.00 L 456.00 501.00 L 460.00 499.00 L 459.00 492.00 L 453.00 480.00 L 454.00 479.00 L 462.00 489.00 L 463.00 488.00 L 457.00 476.00 L 464.00 456.00 L 484.00 428.00 L 512.00 395.00 L 548.00 357.00 L 584.00 327.00 L 620.00 305.00 L 661.00 286.00 L 707.00 270.00 L 742.00 263.00 L 766.00 265.00 L 803.00 264.00 L 853.00 260.00 L 892.00 260.00 L 920.00 264.00 L 951.00 272.00 L 985.00 284.00 L 1013.00 296.00 L 1035.00 308.00 L 1062.00 330.00 L 1094.00 362.00 L 1120.00 396.00 L 1140.00 432.00 L 1153.00 466.00 L 1159.00 498.00 L 1162.00 535.00 L 1162.00 577.00 L 1158.00 615.00 L 1150.00 649.00 L 1138.00 686.00 L 1122.00 726.00 L 1113.00 756.00 L 1111.00 776.00 L 1103.00 809.00 L 1089.00 855.00 L 1073.00 880.00 L 1055.00 884.00 L 1054.00 886.00 L 1070.00 886.00 L 1070.00 889.00 L 1054.00 895.00 L 1050.00 898.00 L 1058.00 898.00 L 1058.00 901.00 L 1050.00 907.00 L 1050.00 917.00 L 1058.00 931.00 L 1063.00 959.00 L 1065.00 1001.00 L 1066.00 1037.00 L 1066.00 1067.00 L 1062.00 1093.00 L 1054.00 1115.00 L 1056.00 1146.00 L 1068.00 1186.00 L 1078.00 1238.00 L 1086.00 1302.00 L 1089.00 1340.00 L 1087.00 1352.00 L 1079.00 1369.00 L 1065.00 1391.00 L 1008.00 1416.00 L 908.00 1444.00 L 823.00 1472.00 L 753.00 1500.00 L 679.00 1534.00 L 601.00 1574.00 L 531.00 1615.00 L 469.00 1657.00 L 430.00 1677.00 L 414.00 1675.00 L 403.00 1670.00 L 397.00 1662.00 L 395.00 1640.00 L 397.00 1604.00 L 435.00 1509.00 L 509.00 1355.00 L 510.00 1352.00 L 438.00 1500.00 L 437.00 1501.00 L 507.00 1355.00 L 507.00 1353.00 L 437.00 1495.00 L 437.00 1491.00 L 507.00 1341.00 L 531.00 1286.00 L 509.00 1326.00 L 508.00 1324.00 L 528.00 1280.00 L 528.00 1275.00 L 508.00 1309.00 L 507.00 1305.00 L 525.00 1263.00 L 525.00 1223.00 L 507.00 1185.00 L 501.00 1161.00 L 507.00 1151.00 L 505.00 1144.00 L 495.00 1140.00 L 485.00 1132.00 L 475.00 1120.00 L 469.00 1106.00 L 467.00 1090.00 L 468.00 1075.00 L 472.00 1061.00 L 465.00 1045.00 L 447.00 1027.00 L 441.00 1012.00 L 447.00 1000.00 L 444.00 989.00 L 432.00 979.00 L 426.00 965.00 L 426.00 947.00 L 426.00 935.00 L 426.00 929.00 L 421.00 923.00 Z" fill="black" stroke="black" stroke-width="1"/>
</svg>