<?xml version="1.0" encoding="UTF-8"?>
<svg xmlns="http://www.w3.org/2000/svg" viewBox="217.00 165.00 993.00 1577.00">
  <path d="M 320.00 924.00 L 316.00 912.00 L 317.00 899.00 L 323.00 885.00 L 322.00 874.00 L 314.00 866.00 L 312.00 845.00 L 316.00 811.00 L 306.00 780.00 L 282.00 752.00 L 274.00 728.00 L 282.00 708.00 L 313.00 663.00 L 367.00 593.00 L 393.00 551.00 L 391.00 537.00 L 395.00 515.00 L 405.00 485.00 L 397.00 443.00 L 371.00 389.00 L 372.00 388.00 L 400.00 440.00 L 400.00 437.00 L 372.00 379.00 L 373.00 377.00 L 403.00 431.00 L 405.00 431.00 L 379.00 377.00 L 381.00 375.00 L 411.00 425.00 L 414.00 424.00 L 390.00 372.00 L 392.00 369.00 L 420.00 415.00 L 423.00 414.00 L 401.00 366.00 L 403.00 363.00 L 429.00 405.00 L 432.00 403.00 L 412.00 357.00 L 413.00 354.00 L 435.00 394.00 L 438.00 393.00 L 422.00 351.00 L 424.00 348.00 L 444.00 384.00 L 447.00 383.00 L 433.00 345.00 L 435.00 343.00 L 453.00 377.00 L 456.00 377.00 L 444.00 343.00 L 442.00 331.00 L 450.00 341.00 L 453.00 341.00 L 451.00 331.00 L 455.00 340.00 L 465.00 368.00 L 466.00 367.00 L 458.00 337.00 L 459.00 335.00 L 469.00 361.00 L 472.00 360.00 L 468.00 332.00 L 469.00 325.00 L 475.00 339.00 L 477.00 337.00 L 475.00 319.00 L 478.00 321.00 L 486.00 343.00 L 488.00 342.00 L 484.00 318.00 L 487.00 316.00 L 497.00 336.00 L 500.00 334.00 L 496.00 310.00 L 512.00 283.00 L 548.00 253.00 L 594.00 227.00 L 650.00 205.00 L 715.00 188.00 L 789.00 176.00 L 860.00 175.00 L 928.00 185.00 L 983.00 203.00 L 1025.00 229.00 L 1069.00 263.00 L 1115.00 305.00 L 1152.00 356.00 L 1180.00 416.00 L 1196.00 471.00 L 1200.00 521.00 L 1196.00 579.00 L 1184.00 645.00 L 1167.00 707.00 L 1145.00 765.00 L 1134.00 827.00 L 1134.00 893.00 L 1120.00 928.00 L 1092.00 932.00 L 1091.00 935.00 L 1117.00 937.00 L 1117.00 939.00 L 1091.00 941.00 L 1090.00 944.00 L 1114.00 948.00 L 1114.00 953.00 L 1090.00 959.00 L 1086.00 963.00 L 1102.00 965.00 L 1103.00 968.00 L 1089.00 972.00 L 1087.00 981.00 L 1097.00 995.00 L 1108.00 1032.00 L 1120.00 1092.00 L 1125.00 1132.00 L 1123.00 1152.00 L 1115.00 1167.00 L 1101.00 1177.00 L 1104.00 1222.00 L 1124.00 1302.00 L 1134.00 1353.00 L 1134.00 1375.00 L 1127.00 1397.00 L 1113.00 1419.00 L 1089.00 1429.00 L 1055.00 1427.00 L 1003.00 1431.00 L 933.00 1441.00 L 864.00 1455.00 L 796.00 1473.00 L 720.00 1498.00 L 636.00 1530.00 L 557.00 1564.00 L 483.00 1600.00 L 404.00 1645.00 L 320.00 1699.00 L 273.00 1728.00 L 263.00 1732.00 L 253.00 1732.00 L 243.00 1728.00 L 235.00 1721.00 L 229.00 1711.00 L 227.00 1692.00 L 229.00 1664.00 L 267.00 1588.00 L 341.00 1464.00 L 341.00 1462.00 L 267.00 1582.00 L 266.00 1583.00 L 338.00 1465.00 L 339.00 1462.00 L 269.00 1574.00 L 271.00 1570.00 L 345.00 1450.00 L 345.00 1448.00 L 271.00 1564.00 L 235.00 1619.00 L 237.00 1613.00 L 274.00 1553.00 L 346.00 1439.00 L 347.00 1436.00 L 277.00 1544.00 L 243.00 1595.00 L 245.00 1589.00 L 280.00 1532.00 L 348.00 1424.00 L 349.00 1420.00 L 283.00 1520.00 L 292.00 1500.00 L 376.00 1360.00 L 408.00 1302.00 L 388.00 1326.00 L 385.00 1328.00 L 399.00 1308.00 L 400.00 1305.00 L 388.00 1319.00 L 388.00 1315.00 L 400.00 1293.00 L 402.00 1275.00 L 394.00 1261.00 L 371.00 1270.00 L 333.00 1302.00 L 309.00 1319.00 L 299.00 1321.00 L 316.00 1299.00 L 360.00 1253.00 L 363.00 1249.00 L 325.00 1287.00 L 323.00 1288.00 L 357.00 1252.00 L 366.00 1242.00 L 350.00 1258.00 L 349.00 1258.00 L 363.00 1242.00 L 366.00 1237.00 L 358.00 1243.00 L 359.00 1241.00 L 369.00 1231.00 L 370.00 1224.00 L 362.00 1220.00 L 365.00 1210.00 L 379.00 1194.00 L 378.00 1191.00 L 362.00 1201.00 L 360.00 1198.00 L 372.00 1182.00 L 371.00 1163.00 L 357.00 1141.00 L 358.00 1124.00 L 374.00 1112.00 L 373.00 1111.00 L 355.00 1121.00 L 353.00 1121.00 L 367.00 1111.00 L 369.00 1108.00 L 359.00 1112.00 L 359.00 1109.00 L 369.00 1099.00 L 365.00 1089.00 L 347.00 1079.00 L 333.00 1066.00 L 323.00 1050.00 L 318.00 1033.00 L 318.00 1015.00 L 323.00 996.00 L 333.00 976.00 L 336.00 960.00 L 332.00 948.00 L 328.00 939.00 L 324.00 933.00 L 320.00 924.00 Z" fill="black" stroke="black" stroke-width="1"/>
</svg>