<?xml version="1.0" encoding="UTF-8"?>
<svg xmlns="http://www.w3.org/2000/svg" viewBox="212.00 200.00 1113.00 1532.00">
  <path d="M 387.00 872.00 L 285.00 708.00 L 231.00 620.00 L 225.00 608.00 L 222.00 594.00 L 222.00 578.00 L 226.00 562.00 L 234.00 546.00 L 246.00 530.00 L 262.00 514.00 L 299.00 484.00 L 357.00 440.00 L 416.00 400.00 L 476.00 364.00 L 539.00 323.00 L 605.00 277.00 L 658.00 243.00 L 698.00 221.00 L 726.00 210.00 L 742.00 210.00 L 757.00 213.00 L 771.00 219.00 L 793.00 237.00 L 823.00 267.00 L 894.00 346.00 L 1006.00 474.00 L 1073.00 558.00 L 1095.00 598.00 L 1118.00 623.00 L 1142.00 633.00 L 1172.00 641.00 L 1208.00 647.00 L 1198.00 672.00 L 1142.00 716.00 L 1144.00 717.00 L 1204.00 675.00 L 1205.00 676.00 L 1147.00 720.00 L 1150.00 720.00 L 1214.00 676.00 L 1214.00 677.00 L 1150.00 723.00 L 1153.00 722.00 L 1223.00 674.00 L 1223.00 676.00 L 1153.00 728.00 L 1156.00 729.00 L 1232.00 679.00 L 1236.00 677.00 L 1168.00 723.00 L 1173.00 724.00 L 1251.00 680.00 L 1249.00 684.00 L 1167.00 736.00 L 1169.00 737.00 L 1255.00 687.00 L 1255.00 690.00 L 1169.00 746.00 L 1172.00 747.00 L 1264.00 693.00 L 1263.00 694.00 L 1169.00 750.00 L 1146.00 765.00 L 1194.00 739.00 L 1196.00 739.00 L 1152.00 765.00 L 1133.00 777.00 L 1139.00 775.00 L 1187.00 749.00 L 1277.00 699.00 L 1272.00 702.00 L 1172.00 758.00 L 1173.00 759.00 L 1275.00 705.00 L 1306.00 689.00 L 1266.00 711.00 L 1267.00 713.00 L 1309.00 695.00 L 1277.00 714.00 L 1171.00 770.00 L 1170.00 772.00 L 1274.00 720.00 L 1313.00 701.00 L 1287.00 715.00 L 1286.00 717.00 L 1310.00 707.00 L 1315.00 706.00 L 1301.00 714.00 L 1298.00 717.00 L 1306.00 715.00 L 1262.00 738.00 L 1166.00 786.00 L 1115.00 821.00 L 1109.00 843.00 L 1108.00 865.00 L 1112.00 887.00 L 1126.00 916.00 L 1150.00 952.00 L 1164.00 977.00 L 1168.00 991.00 L 1168.00 1003.00 L 1164.00 1013.00 L 1155.00 1022.00 L 1141.00 1030.00 L 1133.00 1040.00 L 1131.00 1052.00 L 1133.00 1066.00 L 1139.00 1082.00 L 1138.00 1095.00 L 1130.00 1105.00 L 1128.00 1115.00 L 1132.00 1125.00 L 1127.00 1141.00 L 1113.00 1163.00 L 1106.00 1190.00 L 1106.00 1222.00 L 1100.00 1244.00 L 1088.00 1256.00 L 1069.00 1267.00 L 1043.00 1277.00 L 1032.00 1285.00 L 1036.00 1291.00 L 1034.00 1303.00 L 1026.00 1321.00 L 1032.00 1354.00 L 1052.00 1402.00 L 1050.00 1405.00 L 1026.00 1363.00 L 1037.00 1387.00 L 1083.00 1477.00 L 1083.00 1481.00 L 1037.00 1399.00 L 1037.00 1400.00 L 1083.00 1484.00 L 1083.00 1486.00 L 1037.00 1406.00 L 1037.00 1409.00 L 1083.00 1495.00 L 1084.00 1498.00 L 1040.00 1418.00 L 1050.00 1441.00 L 1114.00 1567.00 L 1147.00 1639.00 L 1149.00 1657.00 L 1148.00 1672.00 L 1144.00 1684.00 L 1137.00 1696.00 L 1127.00 1708.00 L 1117.00 1716.00 L 1107.00 1720.00 L 1092.00 1722.00 L 1072.00 1722.00 L 1059.00 1719.00 L 1053.00 1713.00 L 1051.00 1714.00 L 1053.00 1722.00 L 1052.00 1721.00 L 1048.00 1711.00 L 1047.00 1710.00 L 1049.00 1718.00 L 1047.00 1717.00 L 1041.00 1707.00 L 1021.00 1686.00 L 987.00 1654.00 L 950.00 1626.00 L 910.00 1602.00 L 864.00 1578.00 L 812.00 1554.00 L 725.00 1526.00 L 603.00 1494.00 L 530.00 1468.00 L 506.00 1448.00 L 491.00 1432.00 L 485.00 1420.00 L 482.00 1404.00 L 482.00 1384.00 L 486.00 1365.00 L 494.00 1347.00 L 499.00 1322.00 L 501.00 1290.00 L 501.00 1264.00 L 499.00 1244.00 L 494.00 1228.00 L 486.00 1216.00 L 484.00 1196.00 L 488.00 1168.00 L 468.00 1164.00 L 424.00 1184.00 L 424.00 1181.00 L 468.00 1155.00 L 467.00 1155.00 L 421.00 1181.00 L 410.00 1185.00 L 434.00 1167.00 L 431.00 1166.00 L 401.00 1182.00 L 411.00 1175.00 L 461.00 1145.00 L 459.00 1144.00 L 405.00 1172.00 L 402.00 1171.00 L 450.00 1141.00 L 448.00 1139.00 L 396.00 1165.00 L 399.00 1163.00 L 457.00 1133.00 L 457.00 1131.00 L 399.00 1157.00 L 372.00 1159.00 L 376.00 1137.00 L 399.00 1096.00 L 441.00 1036.00 L 457.00 996.00 L 447.00 976.00 L 441.00 963.00 L 439.00 957.00 L 387.00 872.00 Z" fill="black" stroke="black" stroke-width="1"/>
</svg>