<?xml version="1.0" encoding="UTF-8"?>
<svg xmlns="http://www.w3.org/2000/svg" viewBox="197.00 167.00 1106.00 1529.00">
  <path d="M 301.00 946.00 L 331.00 910.00 L 348.00 878.00 L 352.00 850.00 L 350.00 829.00 L 342.00 815.00 L 338.00 801.00 L 338.00 787.00 L 342.00 765.00 L 350.00 735.00 L 318.00 689.00 L 246.00 627.00 L 209.00 595.00 L 207.00 593.00 L 239.00 618.00 L 305.00 670.00 L 311.00 673.00 L 257.00 627.00 L 259.00 628.00 L 317.00 676.00 L 312.00 670.00 L 244.00 610.00 L 248.00 612.00 L 324.00 676.00 L 325.00 675.00 L 251.00 609.00 L 249.00 606.00 L 319.00 666.00 L 320.00 665.00 L 252.00 603.00 L 250.00 600.00 L 314.00 656.00 L 316.00 656.00 L 256.00 600.00 L 239.00 582.00 L 265.00 602.00 L 301.00 633.00 L 347.00 675.00 L 337.00 664.00 L 271.00 600.00 L 267.00 595.00 L 325.00 649.00 L 328.00 649.00 L 276.00 595.00 L 281.00 597.00 L 343.00 655.00 L 346.00 654.00 L 290.00 594.00 L 285.00 585.00 L 331.00 627.00 L 334.00 627.00 L 294.00 585.00 L 296.00 586.00 L 340.00 630.00 L 341.00 630.00 L 299.00 586.00 L 302.00 588.00 L 350.00 636.00 L 353.00 636.00 L 311.00 588.00 L 330.00 569.00 L 410.00 579.00 L 492.00 531.00 L 576.00 425.00 L 661.00 327.00 L 747.00 237.00 L 800.00 187.00 L 820.00 177.00 L 840.00 177.00 L 860.00 187.00 L 906.00 227.00 L 978.00 297.00 L 1075.00 398.00 L 1197.00 530.00 L 1268.00 612.00 L 1288.00 644.00 L 1293.00 671.00 L 1283.00 693.00 L 1208.00 772.00 L 1068.00 908.00 L 987.00 991.00 L 965.00 1021.00 L 953.00 1042.00 L 951.00 1054.00 L 968.00 1088.00 L 1004.00 1144.00 L 1000.00 1160.00 L 956.00 1136.00 L 957.00 1138.00 L 1003.00 1166.00 L 1027.00 1181.00 L 1029.00 1183.00 L 1008.00 1172.00 L 964.00 1148.00 L 965.00 1150.00 L 1011.00 1178.00 L 1007.00 1176.00 L 953.00 1144.00 L 953.00 1147.00 L 1007.00 1185.00 L 1011.00 1190.00 L 965.00 1162.00 L 965.00 1164.00 L 1011.00 1196.00 L 1011.00 1198.00 L 965.00 1170.00 L 964.00 1171.00 L 1008.00 1201.00 L 1016.00 1208.00 L 988.00 1192.00 L 985.00 1192.00 L 1007.00 1208.00 L 999.00 1203.00 L 961.00 1177.00 L 946.00 1189.00 L 954.00 1239.00 L 955.00 1275.00 L 949.00 1297.00 L 947.00 1316.00 L 949.00 1332.00 L 956.00 1358.00 L 968.00 1394.00 L 973.00 1411.00 L 971.00 1409.00 L 970.00 1416.00 L 970.00 1432.00 L 966.00 1446.00 L 958.00 1458.00 L 951.00 1467.00 L 945.00 1473.00 L 931.00 1480.00 L 909.00 1488.00 L 857.00 1495.00 L 775.00 1501.00 L 690.00 1516.00 L 602.00 1540.00 L 530.00 1564.00 L 474.00 1588.00 L 426.00 1614.00 L 386.00 1642.00 L 350.00 1664.00 L 318.00 1680.00 L 291.00 1686.00 L 269.00 1682.00 L 254.00 1674.00 L 246.00 1662.00 L 283.00 1589.00 L 365.00 1455.00 L 365.00 1453.00 L 283.00 1583.00 L 284.00 1578.00 L 368.00 1438.00 L 367.00 1435.00 L 281.00 1569.00 L 280.00 1570.00 L 364.00 1438.00 L 364.00 1436.00 L 280.00 1564.00 L 274.00 1571.00 L 346.00 1457.00 L 347.00 1453.00 L 277.00 1559.00 L 283.00 1548.00 L 365.00 1420.00 L 367.00 1414.00 L 289.00 1530.00 L 258.00 1575.00 L 274.00 1549.00 L 314.00 1487.00 L 378.00 1389.00 L 394.00 1362.00 L 362.00 1406.00 L 360.00 1403.00 L 388.00 1353.00 L 402.00 1314.00 L 402.00 1286.00 L 395.00 1269.00 L 381.00 1263.00 L 368.00 1253.00 L 356.00 1239.00 L 350.00 1211.00 L 350.00 1169.00 L 346.00 1142.00 L 338.00 1130.00 L 335.00 1120.00 L 337.00 1112.00 L 334.00 1103.00 L 326.00 1093.00 L 324.00 1078.00 L 328.00 1058.00 L 316.00 1038.00 L 288.00 1018.00 L 273.00 1002.00 L 271.00 990.00 L 272.00 981.00 L 276.00 975.00 L 280.00 970.00 L 284.00 966.00 L 301.00 946.00 Z" fill="black" stroke="black" stroke-width="1"/>
</svg>