<?xml version="1.0" encoding="UTF-8"?>
<svg xmlns="http://www.w3.org/2000/svg" viewBox="305.00 176.00 964.00 1610.00">
  <path d="M 507.00 941.00 L 517.00 923.00 L 476.00 824.00 L 384.00 644.00 L 331.00 532.00 L 317.00 488.00 L 315.00 459.00 L 325.00 445.00 L 375.00 411.00 L 465.00 357.00 L 586.00 293.00 L 738.00 219.00 L 826.00 186.00 L 850.00 194.00 L 862.00 204.00 L 862.00 216.00 L 864.00 214.00 L 868.00 198.00 L 870.00 200.00 L 870.00 220.00 L 872.00 218.00 L 876.00 194.00 L 879.00 199.00 L 881.00 233.00 L 931.00 327.00 L 1029.00 481.00 L 1082.00 563.00 L 1090.00 573.00 L 1115.00 581.00 L 1157.00 587.00 L 1163.00 607.00 L 1133.00 641.00 L 1135.00 641.00 L 1169.00 607.00 L 1166.00 611.00 L 1126.00 653.00 L 1128.00 654.00 L 1172.00 614.00 L 1173.00 616.00 L 1131.00 660.00 L 1136.00 660.00 L 1188.00 616.00 L 1189.00 619.00 L 1139.00 669.00 L 1142.00 669.00 L 1198.00 619.00 L 1198.00 621.00 L 1142.00 675.00 L 1146.00 676.00 L 1210.00 624.00 L 1211.00 626.00 L 1149.00 682.00 L 1152.00 682.00 L 1220.00 626.00 L 1220.00 628.00 L 1152.00 688.00 L 1155.00 689.00 L 1229.00 631.00 L 1228.00 634.00 L 1152.00 698.00 L 1155.00 698.00 L 1237.00 634.00 L 1237.00 636.00 L 1155.00 704.00 L 1158.00 705.00 L 1246.00 639.00 L 1244.00 643.00 L 1152.00 717.00 L 1157.00 720.00 L 1259.00 652.00 L 1257.00 658.00 L 1151.00 738.00 L 1115.00 811.00 L 1149.00 877.00 L 1150.00 920.00 L 1118.00 940.00 L 1104.00 961.00 L 1108.00 983.00 L 1105.00 1014.00 L 1095.00 1054.00 L 1095.00 1087.00 L 1105.00 1113.00 L 1098.00 1136.00 L 1074.00 1156.00 L 1064.00 1171.00 L 1068.00 1181.00 L 1065.00 1182.00 L 1055.00 1174.00 L 1057.00 1177.00 L 1071.00 1191.00 L 1070.00 1192.00 L 1054.00 1180.00 L 1053.00 1182.00 L 1067.00 1198.00 L 1066.00 1219.00 L 1050.00 1245.00 L 1048.00 1270.00 L 1060.00 1294.00 L 1059.00 1296.00 L 1045.00 1276.00 L 1045.00 1283.00 L 1059.00 1317.00 L 1056.00 1322.00 L 1036.00 1298.00 L 1043.00 1317.00 L 1077.00 1379.00 L 1076.00 1382.00 L 1040.00 1326.00 L 1038.00 1326.00 L 1070.00 1382.00 L 1070.00 1385.00 L 1038.00 1335.00 L 1033.00 1332.00 L 1055.00 1376.00 L 1055.00 1384.00 L 1033.00 1356.00 L 1036.00 1378.00 L 1064.00 1450.00 L 1064.00 1457.00 L 1036.00 1399.00 L 1046.00 1423.00 L 1094.00 1529.00 L 1092.00 1527.00 L 1040.00 1417.00 L 1042.00 1425.00 L 1098.00 1551.00 L 1097.00 1551.00 L 1039.00 1425.00 L 1042.00 1434.00 L 1106.00 1578.00 L 1137.00 1680.00 L 1135.00 1740.00 L 1122.00 1772.00 L 1098.00 1776.00 L 1021.00 1723.00 L 891.00 1613.00 L 744.00 1518.00 L 580.00 1438.00 L 491.00 1391.00 L 477.00 1377.00 L 468.00 1352.00 L 464.00 1316.00 L 472.00 1270.00 L 492.00 1214.00 L 504.00 1160.00 L 508.00 1108.00 L 497.00 1085.00 L 471.00 1091.00 L 472.00 1088.00 L 500.00 1076.00 L 496.00 1073.00 L 460.00 1079.00 L 460.00 1076.00 L 496.00 1064.00 L 496.00 1061.00 L 460.00 1067.00 L 461.00 1064.00 L 499.00 1052.00 L 500.00 1049.00 L 464.00 1055.00 L 466.00 1050.00 L 506.00 1034.00 L 508.00 1030.00 L 472.00 1038.00 L 473.00 1036.00 L 511.00 1024.00 L 512.00 1021.00 L 476.00 1027.00 L 478.00 1024.00 L 518.00 1012.00 L 519.00 1009.00 L 481.00 1015.00 L 476.00 1014.00 L 504.00 1006.00 L 506.00 1003.00 L 482.00 1005.00 L 489.00 1003.00 L 527.00 997.00 L 528.00 995.00 L 492.00 997.00 L 492.00 995.00 L 528.00 989.00 L 530.00 986.00 L 498.00 986.00 L 486.00 979.00 L 494.00 965.00 L 499.00 956.00 L 501.00 952.00 L 507.00 941.00 Z" fill="black" stroke="black" stroke-width="1"/>
</svg>