<?xml version="1.0" encoding="UTF-8"?>
<svg xmlns="http://www.w3.org/2000/svg" viewBox="332.00 284.00 890.00 1407.00">
  <path d="M 439.00 962.00 L 441.00 946.00 L 437.00 937.00 L 427.00 935.00 L 429.00 934.00 L 443.00 934.00 L 441.00 932.00 L 423.00 928.00 L 422.00 927.00 L 438.00 929.00 L 438.00 928.00 L 422.00 924.00 L 421.00 923.00 L 435.00 925.00 L 434.00 922.00 L 418.00 914.00 L 418.00 911.00 L 434.00 913.00 L 441.00 912.00 L 439.00 908.00 L 430.00 904.00 L 414.00 900.00 L 416.00 900.00 L 436.00 904.00 L 436.00 902.00 L 416.00 894.00 L 404.00 885.00 L 400.00 875.00 L 397.00 865.00 L 395.00 855.00 L 395.00 845.00 L 397.00 835.00 L 396.00 823.00 L 392.00 809.00 L 390.00 796.00 L 390.00 784.00 L 382.00 756.00 L 366.00 712.00 L 354.00 669.00 L 346.00 627.00 L 342.00 592.00 L 342.00 564.00 L 344.00 538.00 L 348.00 514.00 L 357.00 487.00 L 371.00 457.00 L 391.00 428.00 L 417.00 400.00 L 444.00 374.00 L 472.00 350.00 L 506.00 329.00 L 546.00 311.00 L 577.00 300.00 L 599.00 296.00 L 634.00 294.00 L 682.00 294.00 L 726.00 298.00 L 766.00 306.00 L 798.00 314.00 L 822.00 322.00 L 874.00 350.00 L 954.00 398.00 L 998.00 427.00 L 1006.00 437.00 L 1009.00 448.00 L 1007.00 460.00 L 1009.00 462.00 L 1015.00 454.00 L 1017.00 455.00 L 1015.00 465.00 L 1017.00 467.00 L 1023.00 461.00 L 1024.00 465.00 L 1020.00 479.00 L 1021.00 481.00 L 1027.00 471.00 L 1029.00 471.00 L 1027.00 481.00 L 1028.00 482.00 L 1032.00 474.00 L 1031.00 477.00 L 1025.00 491.00 L 1023.00 499.00 L 1025.00 501.00 L 1029.00 496.00 L 1035.00 484.00 L 1035.00 485.00 L 1029.00 499.00 L 1029.00 501.00 L 1035.00 491.00 L 1037.00 490.00 L 1035.00 498.00 L 1036.00 500.00 L 1040.00 496.00 L 1039.00 500.00 L 1033.00 512.00 L 1033.00 513.00 L 1039.00 503.00 L 1041.00 500.00 L 1039.00 504.00 L 1040.00 505.00 L 1044.00 503.00 L 1043.00 508.00 L 1037.00 520.00 L 1042.00 544.00 L 1058.00 580.00 L 1067.00 605.00 L 1069.00 619.00 L 1067.00 635.00 L 1061.00 653.00 L 1060.00 666.00 L 1064.00 674.00 L 1081.00 693.00 L 1111.00 723.00 L 1136.00 754.00 L 1156.00 786.00 L 1166.00 808.00 L 1166.00 820.00 L 1165.00 827.00 L 1163.00 829.00 L 1147.00 837.00 L 1117.00 851.00 L 1115.00 854.00 L 1141.00 846.00 L 1140.00 848.00 L 1112.00 860.00 L 1097.00 870.00 L 1095.00 878.00 L 1095.00 892.00 L 1097.00 912.00 L 1093.00 924.00 L 1083.00 928.00 L 1080.00 930.00 L 1084.00 930.00 L 1083.00 932.00 L 1077.00 936.00 L 1076.00 943.00 L 1080.00 953.00 L 1078.00 967.00 L 1070.00 985.00 L 1070.00 1007.00 L 1078.00 1033.00 L 1081.00 1050.00 L 1079.00 1058.00 L 1072.00 1070.00 L 1060.00 1086.00 L 1048.00 1097.00 L 1036.00 1103.00 L 1035.00 1111.00 L 1045.00 1121.00 L 1043.00 1122.00 L 1029.00 1114.00 L 1030.00 1116.00 L 1046.00 1128.00 L 1054.00 1137.00 L 1054.00 1143.00 L 1049.00 1158.00 L 1039.00 1182.00 L 1032.00 1207.00 L 1028.00 1233.00 L 1032.00 1253.00 L 1044.00 1267.00 L 1045.00 1269.00 L 1035.00 1259.00 L 1036.00 1261.00 L 1048.00 1275.00 L 1058.00 1293.00 L 1066.00 1315.00 L 1086.00 1346.00 L 1118.00 1386.00 L 1132.00 1404.00 L 1128.00 1400.00 L 1129.00 1402.00 L 1135.00 1410.00 L 1132.00 1407.00 L 1120.00 1393.00 L 1121.00 1395.00 L 1135.00 1413.00 L 1133.00 1411.00 L 1115.00 1389.00 L 1116.00 1391.00 L 1136.00 1417.00 L 1127.00 1406.00 L 1089.00 1358.00 L 1089.00 1360.00 L 1127.00 1412.00 L 1128.00 1415.00 L 1092.00 1369.00 L 1093.00 1371.00 L 1131.00 1421.00 L 1132.00 1423.00 L 1096.00 1377.00 L 1096.00 1379.00 L 1132.00 1429.00 L 1160.00 1473.00 L 1180.00 1511.00 L 1188.00 1528.00 L 1184.00 1524.00 L 1187.00 1532.00 L 1197.00 1552.00 L 1205.00 1578.00 L 1211.00 1610.00 L 1212.00 1636.00 L 1208.00 1656.00 L 1201.00 1670.00 L 1191.00 1678.00 L 1174.00 1681.00 L 1150.00 1679.00 L 1129.00 1673.00 L 1111.00 1663.00 L 1058.00 1627.00 L 970.00 1565.00 L 909.00 1524.00 L 875.00 1504.00 L 838.00 1485.00 L 798.00 1467.00 L 739.00 1447.00 L 661.00 1425.00 L 583.00 1410.00 L 505.00 1402.00 L 458.00 1395.00 L 442.00 1389.00 L 424.00 1380.00 L 404.00 1368.00 L 391.00 1356.00 L 385.00 1344.00 L 382.00 1329.00 L 382.00 1311.00 L 392.00 1265.00 L 412.00 1191.00 L 424.00 1142.00 L 428.00 1118.00 L 428.00 1093.00 L 424.00 1067.00 L 424.00 1050.00 L 428.00 1042.00 L 432.00 1024.00 L 436.00 996.00 L 438.00 979.00 L 438.00 973.00 L 439.00 962.00 Z" fill="black" stroke="black" stroke-width="1"/>
</svg>