<?xml version="1.0" encoding="UTF-8"?>
<svg xmlns="http://www.w3.org/2000/svg" viewBox="277.00 217.00 905.00 1398.00">
  <path d="M 364.00 920.00 L 376.00 920.00 L 374.00 919.00 L 358.00 917.00 L 357.00 914.00 L 371.00 910.00 L 370.00 907.00 L 354.00 905.00 L 354.00 904.00 L 370.00 904.00 L 369.00 901.00 L 351.00 895.00 L 340.00 877.00 L 336.00 847.00 L 323.00 802.00 L 301.00 742.00 L 289.00 692.00 L 287.00 652.00 L 299.00 587.00 L 325.00 497.00 L 358.00 424.00 L 398.00 368.00 L 441.00 324.00 L 487.00 292.00 L 561.00 263.00 L 663.00 237.00 L 740.00 227.00 L 792.00 233.00 L 842.00 246.00 L 890.00 266.00 L 932.00 291.00 L 968.00 321.00 L 996.00 346.00 L 1016.00 366.00 L 1034.00 392.00 L 1050.00 424.00 L 1050.00 454.00 L 1034.00 482.00 L 1035.00 484.00 L 1053.00 460.00 L 1054.00 463.00 L 1038.00 493.00 L 1038.00 496.00 L 1054.00 472.00 L 1055.00 473.00 L 1041.00 499.00 L 1042.00 503.00 L 1058.00 485.00 L 1059.00 487.00 L 1045.00 509.00 L 1045.00 512.00 L 1059.00 496.00 L 1060.00 497.00 L 1048.00 515.00 L 1049.00 517.00 L 1063.00 503.00 L 1065.00 507.00 L 1055.00 529.00 L 1058.00 533.00 L 1074.00 519.00 L 1076.00 522.00 L 1064.00 542.00 L 1065.00 544.00 L 1079.00 528.00 L 1079.00 530.00 L 1065.00 550.00 L 1066.00 552.00 L 1082.00 536.00 L 1083.00 538.00 L 1069.00 558.00 L 1069.00 560.00 L 1083.00 544.00 L 1084.00 546.00 L 1072.00 566.00 L 1073.00 569.00 L 1087.00 555.00 L 1087.00 558.00 L 1073.00 578.00 L 1073.00 581.00 L 1087.00 567.00 L 1087.00 568.00 L 1073.00 584.00 L 1071.00 609.00 L 1081.00 643.00 L 1083.00 679.00 L 1077.00 717.00 L 1099.00 770.00 L 1149.00 838.00 L 1172.00 879.00 L 1168.00 893.00 L 1153.00 908.00 L 1127.00 924.00 L 1116.00 949.00 L 1120.00 983.00 L 1118.00 1004.00 L 1110.00 1012.00 L 1105.00 1024.00 L 1103.00 1040.00 L 1096.00 1053.00 L 1084.00 1063.00 L 1080.00 1081.00 L 1084.00 1107.00 L 1080.00 1131.00 L 1068.00 1153.00 L 1043.00 1171.00 L 1005.00 1185.00 L 988.00 1197.00 L 992.00 1207.00 L 990.00 1208.00 L 982.00 1200.00 L 982.00 1204.00 L 990.00 1220.00 L 985.00 1220.00 L 967.00 1204.00 L 966.00 1207.00 L 982.00 1229.00 L 981.00 1229.00 L 963.00 1207.00 L 962.00 1208.00 L 978.00 1232.00 L 980.00 1258.00 L 968.00 1286.00 L 1000.00 1373.00 L 1076.00 1519.00 L 1075.00 1521.00 L 997.00 1379.00 L 989.00 1365.00 L 1051.00 1479.00 L 1090.00 1552.00 L 1106.00 1584.00 L 1104.00 1582.00 L 1084.00 1546.00 L 1085.00 1549.00 L 1107.00 1591.00 L 1104.00 1588.00 L 1076.00 1540.00 L 1075.00 1542.00 L 1101.00 1594.00 L 1074.00 1544.00 L 994.00 1392.00 L 994.00 1393.00 L 1074.00 1547.00 L 1074.00 1549.00 L 994.00 1399.00 L 993.00 1401.00 L 1071.00 1555.00 L 1071.00 1558.00 L 993.00 1410.00 L 992.00 1413.00 L 1068.00 1567.00 L 1068.00 1570.00 L 992.00 1422.00 L 990.00 1424.00 L 1062.00 1576.00 L 1061.00 1577.00 L 987.00 1427.00 L 984.00 1429.00 L 1052.00 1583.00 L 1051.00 1585.00 L 981.00 1435.00 L 978.00 1433.00 L 1042.00 1579.00 L 1042.00 1581.00 L 978.00 1439.00 L 975.00 1437.00 L 1033.00 1575.00 L 1033.00 1578.00 L 975.00 1446.00 L 973.00 1445.00 L 1027.00 1575.00 L 1027.00 1578.00 L 973.00 1454.00 L 970.00 1452.00 L 1018.00 1572.00 L 1018.00 1575.00 L 970.00 1461.00 L 968.00 1460.00 L 1012.00 1572.00 L 1002.00 1605.00 L 938.00 1559.00 L 849.00 1510.00 L 735.00 1458.00 L 645.00 1419.00 L 579.00 1393.00 L 492.00 1367.00 L 384.00 1341.00 L 325.00 1322.00 L 315.00 1310.00 L 308.00 1290.00 L 304.00 1262.00 L 309.00 1229.00 L 323.00 1191.00 L 330.00 1149.00 L 330.00 1103.00 L 337.00 1052.00 L 351.00 996.00 L 364.00 959.00 L 376.00 941.00 L 376.00 929.00 L 364.00 923.00 L 364.00 920.00 Z" fill="black" stroke="black" stroke-width="1"/>
</svg>