<?xml version="1.0" encoding="UTF-8"?>
<svg xmlns="http://www.w3.org/2000/svg" viewBox="349.00 263.00 872.00 1477.00">
  <path d="M 420.00 938.00 L 424.00 914.00 L 433.00 891.00 L 447.00 869.00 L 452.00 854.00 L 448.00 846.00 L 449.00 841.00 L 455.00 839.00 L 452.00 834.00 L 440.00 826.00 L 441.00 824.00 L 455.00 828.00 L 454.00 826.00 L 438.00 818.00 L 428.00 811.00 L 424.00 805.00 L 420.00 775.00 L 416.00 721.00 L 407.00 664.00 L 393.00 604.00 L 386.00 562.00 L 386.00 538.00 L 394.00 501.00 L 410.00 451.00 L 436.00 406.00 L 472.00 366.00 L 515.00 334.00 L 565.00 310.00 L 618.00 294.00 L 674.00 286.00 L 748.00 279.00 L 840.00 273.00 L 910.00 279.00 L 958.00 297.00 L 1009.00 322.00 L 1063.00 354.00 L 1093.00 376.00 L 1099.00 388.00 L 1098.00 405.00 L 1090.00 427.00 L 1091.00 429.00 L 1101.00 411.00 L 1102.00 412.00 L 1094.00 432.00 L 1095.00 433.00 L 1105.00 415.00 L 1106.00 415.00 L 1098.00 433.00 L 1097.00 440.00 L 1103.00 436.00 L 1104.00 438.00 L 1100.00 446.00 L 1104.00 442.00 L 1116.00 426.00 L 1117.00 427.00 L 1107.00 445.00 L 1105.00 451.00 L 1111.00 445.00 L 1112.00 446.00 L 1108.00 454.00 L 1111.00 451.00 L 1121.00 437.00 L 1122.00 440.00 L 1114.00 460.00 L 1115.00 462.00 L 1125.00 446.00 L 1127.00 443.00 L 1121.00 453.00 L 1119.00 459.00 L 1121.00 461.00 L 1124.00 459.00 L 1128.00 453.00 L 1126.00 457.00 L 1118.00 471.00 L 1119.00 473.00 L 1129.00 463.00 L 1130.00 466.00 L 1122.00 482.00 L 1126.00 514.00 L 1142.00 562.00 L 1149.00 597.00 L 1147.00 619.00 L 1144.00 633.00 L 1140.00 639.00 L 1139.00 648.00 L 1141.00 660.00 L 1145.00 673.00 L 1151.00 687.00 L 1166.00 710.00 L 1190.00 742.00 L 1205.00 769.00 L 1211.00 791.00 L 1211.00 806.00 L 1205.00 814.00 L 1194.00 822.00 L 1178.00 830.00 L 1176.00 832.00 L 1188.00 828.00 L 1184.00 831.00 L 1164.00 841.00 L 1155.00 856.00 L 1157.00 876.00 L 1153.00 893.00 L 1143.00 907.00 L 1138.00 919.00 L 1138.00 929.00 L 1134.00 940.00 L 1126.00 952.00 L 1125.00 972.00 L 1131.00 1000.00 L 1130.00 1022.00 L 1122.00 1038.00 L 1112.00 1051.00 L 1100.00 1061.00 L 1085.00 1067.00 L 1067.00 1069.00 L 1060.00 1075.00 L 1064.00 1085.00 L 1046.00 1113.00 L 1006.00 1159.00 L 983.00 1192.00 L 977.00 1212.00 L 968.00 1223.00 L 956.00 1225.00 L 958.00 1245.00 L 974.00 1283.00 L 973.00 1285.00 L 955.00 1251.00 L 956.00 1256.00 L 976.00 1300.00 L 975.00 1301.00 L 953.00 1259.00 L 952.00 1262.00 L 972.00 1310.00 L 982.00 1336.00 L 982.00 1340.00 L 972.00 1319.00 L 952.00 1273.00 L 951.00 1275.00 L 969.00 1325.00 L 967.00 1324.00 L 945.00 1272.00 L 961.00 1312.00 L 1015.00 1444.00 L 1014.00 1442.00 L 958.00 1306.00 L 963.00 1321.00 L 1029.00 1487.00 L 1049.00 1539.00 L 1023.00 1477.00 L 1023.00 1479.00 L 1049.00 1545.00 L 1048.00 1543.00 L 1020.00 1473.00 L 1021.00 1476.00 L 1051.00 1552.00 L 1043.00 1533.00 L 997.00 1419.00 L 997.00 1421.00 L 1043.00 1539.00 L 1043.00 1540.00 L 997.00 1424.00 L 998.00 1429.00 L 1046.00 1555.00 L 1049.00 1565.00 L 1007.00 1459.00 L 1007.00 1462.00 L 1049.00 1574.00 L 1047.00 1570.00 L 1001.00 1450.00 L 1002.00 1456.00 L 1050.00 1588.00 L 1048.00 1585.00 L 996.00 1447.00 L 996.00 1449.00 L 1048.00 1591.00 L 1048.00 1592.00 L 996.00 1452.00 L 997.00 1457.00 L 1051.00 1607.00 L 1077.00 1680.00 L 1075.00 1676.00 L 1075.00 1683.00 L 1077.00 1701.00 L 1075.00 1715.00 L 1069.00 1725.00 L 1055.00 1730.00 L 1033.00 1730.00 L 995.00 1702.00 L 941.00 1646.00 L 873.00 1584.00 L 791.00 1516.00 L 706.00 1454.00 L 618.00 1398.00 L 536.00 1352.00 L 460.00 1316.00 L 410.00 1288.00 L 386.00 1268.00 L 371.00 1253.00 L 365.00 1243.00 L 361.00 1230.00 L 359.00 1214.00 L 364.00 1178.00 L 376.00 1122.00 L 389.00 1082.00 L 403.00 1058.00 L 408.00 1035.00 L 404.00 1013.00 L 405.00 990.00 L 411.00 966.00 L 415.00 953.00 L 417.00 951.00 L 420.00 938.00 Z" fill="black" stroke="black" stroke-width="1"/>
</svg>