<?xml version="1.0" encoding="UTF-8"?>
<svg xmlns="http://www.w3.org/2000/svg" viewBox="205.00 166.00 1062.00 1619.00">
  <path d="M 334.00 947.00 L 302.00 933.00 L 284.00 919.00 L 280.00 905.00 L 295.00 871.00 L 329.00 817.00 L 357.00 780.00 L 379.00 760.00 L 347.00 721.00 L 261.00 663.00 L 221.00 635.00 L 227.00 637.00 L 225.00 634.00 L 215.00 626.00 L 218.00 627.00 L 234.00 637.00 L 234.00 636.00 L 218.00 624.00 L 257.00 648.00 L 351.00 708.00 L 353.00 706.00 L 263.00 642.00 L 263.00 640.00 L 353.00 700.00 L 356.00 699.00 L 272.00 637.00 L 272.00 634.00 L 356.00 690.00 L 361.00 689.00 L 287.00 631.00 L 287.00 628.00 L 361.00 680.00 L 365.00 679.00 L 299.00 625.00 L 299.00 623.00 L 365.00 673.00 L 369.00 673.00 L 311.00 623.00 L 299.00 611.00 L 333.00 637.00 L 335.00 636.00 L 305.00 608.00 L 318.00 617.00 L 374.00 663.00 L 376.00 663.00 L 324.00 617.00 L 324.00 616.00 L 376.00 660.00 L 378.00 659.00 L 330.00 613.00 L 331.00 610.00 L 381.00 650.00 L 386.00 649.00 L 346.00 607.00 L 355.00 583.00 L 413.00 577.00 L 453.00 552.00 L 475.00 508.00 L 547.00 407.00 L 669.00 249.00 L 750.00 176.00 L 790.00 188.00 L 857.00 218.00 L 951.00 266.00 L 1042.00 317.00 L 1130.00 371.00 L 1195.00 416.00 L 1237.00 452.00 L 1257.00 478.00 L 1255.00 494.00 L 1244.00 523.00 L 1224.00 565.00 L 1216.00 588.00 L 1220.00 592.00 L 1219.00 602.00 L 1213.00 618.00 L 1205.00 630.00 L 1195.00 638.00 L 1192.00 641.00 L 1196.00 639.00 L 1164.00 702.00 L 1096.00 830.00 L 1076.00 910.00 L 1104.00 942.00 L 1096.00 958.00 L 1052.00 958.00 L 1054.00 959.00 L 1102.00 961.00 L 1101.00 963.00 L 1051.00 965.00 L 1061.00 969.00 L 1131.00 975.00 L 1131.00 978.00 L 1061.00 978.00 L 1061.00 981.00 L 1131.00 987.00 L 1144.00 989.00 L 1100.00 987.00 L 1100.00 990.00 L 1144.00 998.00 L 1131.00 999.00 L 1061.00 993.00 L 1060.00 994.00 L 1128.00 1002.00 L 1129.00 1004.00 L 1063.00 1000.00 L 1031.00 1001.00 L 1033.00 1007.00 L 1030.00 1012.00 L 1022.00 1016.00 L 1023.00 1026.00 L 1033.00 1042.00 L 1043.00 1079.00 L 1053.00 1137.00 L 1054.00 1178.00 L 1046.00 1202.00 L 1049.00 1249.00 L 1063.00 1319.00 L 1067.00 1371.00 L 1061.00 1405.00 L 1008.00 1433.00 L 908.00 1455.00 L 815.00 1485.00 L 729.00 1523.00 L 663.00 1556.00 L 617.00 1584.00 L 549.00 1638.00 L 459.00 1718.00 L 404.00 1763.00 L 384.00 1773.00 L 360.00 1775.00 L 332.00 1769.00 L 313.00 1761.00 L 303.00 1751.00 L 294.00 1732.00 L 286.00 1704.00 L 310.00 1639.00 L 366.00 1537.00 L 366.00 1534.00 L 310.00 1630.00 L 308.00 1632.00 L 360.00 1540.00 L 360.00 1538.00 L 308.00 1626.00 L 310.00 1622.00 L 366.00 1526.00 L 366.00 1524.00 L 310.00 1616.00 L 326.00 1585.00 L 414.00 1431.00 L 421.00 1414.00 L 347.00 1534.00 L 331.00 1559.00 L 373.00 1489.00 L 376.00 1482.00 L 340.00 1538.00 L 356.00 1508.00 L 424.00 1392.00 L 442.00 1358.00 L 410.00 1406.00 L 408.00 1404.00 L 436.00 1352.00 L 438.00 1309.00 L 414.00 1275.00 L 405.00 1250.00 L 411.00 1234.00 L 412.00 1218.00 L 408.00 1202.00 L 396.00 1182.00 L 376.00 1158.00 L 371.00 1130.00 L 381.00 1098.00 L 379.00 1074.00 L 365.00 1058.00 L 360.00 1045.00 L 364.00 1035.00 L 364.00 1014.00 L 360.00 982.00 L 356.00 963.00 L 352.00 957.00 L 334.00 947.00 Z" fill="black" stroke="black" stroke-width="1"/>
</svg>