<?xml version="1.0" encoding="UTF-8"?>
<svg xmlns="http://www.w3.org/2000/svg" viewBox="231.00 245.00 941.00 1412.00">
  <path d="M 512.00 880.00 L 492.00 860.00 L 475.00 833.00 L 461.00 799.00 L 419.00 766.00 L 349.00 734.00 L 349.00 731.00 L 419.00 757.00 L 418.00 754.00 L 346.00 722.00 L 345.00 719.00 L 415.00 745.00 L 402.00 735.00 L 306.00 689.00 L 305.00 686.00 L 399.00 726.00 L 397.00 723.00 L 299.00 677.00 L 247.00 646.00 L 241.00 630.00 L 245.00 598.00 L 259.00 550.00 L 290.00 505.00 L 338.00 463.00 L 362.00 436.00 L 362.00 424.00 L 376.00 411.00 L 404.00 397.00 L 426.00 366.00 L 442.00 318.00 L 464.00 296.00 L 492.00 300.00 L 523.00 291.00 L 557.00 269.00 L 589.00 257.00 L 619.00 255.00 L 640.00 271.00 L 652.00 305.00 L 657.00 304.00 L 655.00 268.00 L 658.00 268.00 L 666.00 304.00 L 670.00 304.00 L 670.00 268.00 L 673.00 267.00 L 679.00 301.00 L 682.00 302.00 L 682.00 270.00 L 687.00 270.00 L 697.00 302.00 L 700.00 302.00 L 696.00 270.00 L 698.00 270.00 L 706.00 302.00 L 709.00 306.00 L 707.00 282.00 L 710.00 281.00 L 718.00 303.00 L 742.00 314.00 L 782.00 314.00 L 837.00 326.00 L 907.00 350.00 L 974.00 384.00 L 1038.00 428.00 L 1066.00 457.00 L 1058.00 471.00 L 1060.00 474.00 L 1072.00 466.00 L 1076.00 476.00 L 1072.00 504.00 L 1076.00 513.00 L 1088.00 503.00 L 1089.00 507.00 L 1079.00 525.00 L 1081.00 529.00 L 1095.00 519.00 L 1096.00 524.00 L 1084.00 544.00 L 1085.00 546.00 L 1099.00 530.00 L 1100.00 535.00 L 1088.00 561.00 L 1089.00 568.00 L 1103.00 556.00 L 1105.00 563.00 L 1095.00 589.00 L 1098.00 595.00 L 1114.00 581.00 L 1114.00 584.00 L 1098.00 604.00 L 1088.00 627.00 L 1084.00 653.00 L 1086.00 668.00 L 1094.00 672.00 L 1094.00 678.00 L 1086.00 686.00 L 1103.00 722.00 L 1145.00 786.00 L 1162.00 825.00 L 1154.00 839.00 L 1140.00 850.00 L 1120.00 858.00 L 1111.00 878.00 L 1113.00 910.00 L 1104.00 943.00 L 1084.00 977.00 L 1072.00 1011.00 L 1068.00 1045.00 L 1053.00 1070.00 L 1027.00 1086.00 L 987.00 1093.00 L 933.00 1091.00 L 901.00 1097.00 L 891.00 1111.00 L 943.00 1237.00 L 1057.00 1475.00 L 1057.00 1477.00 L 943.00 1243.00 L 942.00 1249.00 L 1054.00 1495.00 L 1054.00 1498.00 L 942.00 1258.00 L 941.00 1260.00 L 1051.00 1504.00 L 1088.00 1593.00 L 1052.00 1527.00 L 1050.00 1532.00 L 1082.00 1608.00 L 1044.00 1523.00 L 936.00 1277.00 L 934.00 1279.00 L 1038.00 1529.00 L 1067.00 1607.00 L 1021.00 1513.00 L 1018.00 1518.00 L 1058.00 1622.00 L 1028.00 1546.00 L 928.00 1290.00 L 927.00 1293.00 L 1025.00 1555.00 L 1025.00 1558.00 L 927.00 1302.00 L 927.00 1306.00 L 1025.00 1570.00 L 1047.00 1635.00 L 993.00 1501.00 L 990.00 1505.00 L 1038.00 1647.00 L 1015.00 1585.00 L 921.00 1319.00 L 920.00 1321.00 L 1012.00 1591.00 L 1012.00 1594.00 L 920.00 1330.00 L 916.00 1327.00 L 1000.00 1585.00 L 1000.00 1588.00 L 916.00 1336.00 L 911.00 1331.00 L 985.00 1573.00 L 984.00 1575.00 L 908.00 1337.00 L 902.00 1331.00 L 966.00 1557.00 L 966.00 1560.00 L 902.00 1340.00 L 900.00 1337.00 L 960.00 1551.00 L 960.00 1553.00 L 900.00 1343.00 L 898.00 1341.00 L 954.00 1547.00 L 954.00 1549.00 L 898.00 1347.00 L 895.00 1344.00 L 945.00 1540.00 L 944.00 1543.00 L 892.00 1353.00 L 888.00 1350.00 L 932.00 1534.00 L 932.00 1537.00 L 888.00 1359.00 L 887.00 1357.00 L 929.00 1531.00 L 929.00 1534.00 L 887.00 1366.00 L 885.00 1365.00 L 923.00 1531.00 L 923.00 1533.00 L 885.00 1371.00 L 883.00 1369.00 L 917.00 1527.00 L 897.00 1575.00 L 823.00 1513.00 L 712.00 1442.00 L 564.00 1362.00 L 487.00 1308.00 L 481.00 1280.00 L 499.00 1197.00 L 541.00 1059.00 L 559.00 971.00 L 553.00 933.00 L 545.00 910.00 L 535.00 902.00 L 528.00 896.00 L 524.00 892.00 L 512.00 880.00 Z" fill="black" stroke="black" stroke-width="1"/>
</svg>