<?xml version="1.0" encoding="UTF-8"?>
<svg xmlns="http://www.w3.org/2000/svg" viewBox="373.00 325.00 788.00 1296.00">
  <path d="M 452.00 934.00 L 416.00 862.00 L 393.00 781.00 L 383.00 691.00 L 383.00 620.00 L 393.00 568.00 L 415.00 518.00 L 449.00 470.00 L 479.00 434.00 L 505.00 410.00 L 531.00 390.00 L 557.00 374.00 L 590.00 359.00 L 630.00 345.00 L 693.00 337.00 L 779.00 335.00 L 848.00 342.00 L 900.00 358.00 L 943.00 376.00 L 977.00 396.00 L 1015.00 426.00 L 1057.00 466.00 L 1076.00 496.00 L 1072.00 516.00 L 1074.00 520.00 L 1082.00 508.00 L 1083.00 509.00 L 1077.00 523.00 L 1078.00 524.00 L 1086.00 512.00 L 1086.00 515.00 L 1078.00 533.00 L 1079.00 535.00 L 1089.00 521.00 L 1090.00 523.00 L 1082.00 541.00 L 1084.00 543.00 L 1096.00 529.00 L 1097.00 533.00 L 1087.00 555.00 L 1088.00 557.00 L 1100.00 539.00 L 1101.00 541.00 L 1091.00 563.00 L 1092.00 566.00 L 1104.00 550.00 L 1105.00 553.00 L 1095.00 575.00 L 1092.00 597.00 L 1096.00 619.00 L 1096.00 662.00 L 1092.00 726.00 L 1107.00 780.00 L 1141.00 824.00 L 1151.00 859.00 L 1137.00 885.00 L 1134.00 913.00 L 1142.00 943.00 L 1140.00 981.00 L 1128.00 1027.00 L 1123.00 1060.00 L 1125.00 1080.00 L 1117.00 1103.00 L 1099.00 1129.00 L 1072.00 1151.00 L 1036.00 1169.00 L 999.00 1182.00 L 961.00 1190.00 L 984.00 1265.00 L 1068.00 1407.00 L 1108.00 1476.00 L 1104.00 1472.00 L 1104.00 1474.00 L 1108.00 1482.00 L 1107.00 1481.00 L 1101.00 1471.00 L 1102.00 1473.00 L 1110.00 1487.00 L 1105.00 1481.00 L 1087.00 1455.00 L 1088.00 1462.00 L 1108.00 1502.00 L 1072.00 1441.00 L 980.00 1279.00 L 980.00 1282.00 L 1072.00 1450.00 L 1104.00 1509.00 L 1076.00 1459.00 L 1077.00 1462.00 L 1107.00 1518.00 L 1106.00 1517.00 L 1074.00 1459.00 L 1074.00 1464.00 L 1106.00 1532.00 L 1103.00 1531.00 L 1065.00 1461.00 L 1065.00 1464.00 L 1103.00 1540.00 L 1102.00 1540.00 L 1062.00 1464.00 L 1063.00 1467.00 L 1105.00 1549.00 L 1127.00 1597.00 L 1129.00 1611.00 L 1105.00 1569.00 L 1055.00 1471.00 L 1055.00 1473.00 L 1105.00 1575.00 L 1078.00 1521.00 L 974.00 1311.00 L 972.00 1314.00 L 1072.00 1530.00 L 1092.00 1579.00 L 1032.00 1461.00 L 1026.00 1458.00 L 1074.00 1570.00 L 1053.00 1524.00 L 963.00 1320.00 L 961.00 1319.00 L 1047.00 1521.00 L 1064.00 1564.00 L 1012.00 1448.00 L 1009.00 1446.00 L 1055.00 1558.00 L 1037.00 1517.00 L 955.00 1323.00 L 953.00 1322.00 L 1031.00 1514.00 L 1031.00 1516.00 L 953.00 1328.00 L 950.00 1326.00 L 1022.00 1510.00 L 1033.00 1542.00 L 983.00 1422.00 L 979.00 1419.00 L 1021.00 1533.00 L 1009.00 1503.00 L 943.00 1329.00 L 941.00 1328.00 L 1003.00 1500.00 L 1003.00 1503.00 L 941.00 1337.00 L 938.00 1335.00 L 994.00 1497.00 L 994.00 1499.00 L 938.00 1341.00 L 936.00 1340.00 L 988.00 1496.00 L 988.00 1498.00 L 936.00 1346.00 L 935.00 1345.00 L 985.00 1495.00 L 984.00 1497.00 L 932.00 1351.00 L 928.00 1349.00 L 972.00 1491.00 L 973.00 1496.00 L 931.00 1364.00 L 929.00 1362.00 L 967.00 1490.00 L 926.00 1522.00 L 806.00 1458.00 L 707.00 1414.00 L 629.00 1390.00 L 586.00 1379.00 L 578.00 1381.00 L 572.00 1379.00 L 568.00 1373.00 L 563.00 1372.00 L 557.00 1376.00 L 549.00 1374.00 L 539.00 1366.00 L 533.00 1344.00 L 531.00 1308.00 L 543.00 1247.00 L 569.00 1161.00 L 582.00 1111.00 L 582.00 1097.00 L 577.00 1091.00 L 567.00 1093.00 L 567.00 1091.00 L 577.00 1085.00 L 574.00 1084.00 L 558.00 1088.00 L 558.00 1086.00 L 574.00 1078.00 L 571.00 1076.00 L 549.00 1080.00 L 549.00 1077.00 L 571.00 1067.00 L 569.00 1065.00 L 543.00 1071.00 L 542.00 1068.00 L 566.00 1056.00 L 564.00 1053.00 L 536.00 1059.00 L 535.00 1057.00 L 561.00 1047.00 L 560.00 1045.00 L 532.00 1051.00 L 531.00 1049.00 L 557.00 1039.00 L 556.00 1037.00 L 528.00 1043.00 L 504.00 1028.00 L 484.00 992.00 L 473.00 973.00 L 471.00 971.00 L 452.00 934.00 Z" fill="black" stroke="black" stroke-width="1"/>
</svg>