<?xml version="1.0" encoding="UTF-8"?>
<svg xmlns="http://www.w3.org/2000/svg" viewBox="148.00 189.00 1079.00 1579.00">
  <path d="M 272.00 826.00 L 196.00 738.00 L 158.00 682.00 L 158.00 658.00 L 185.00 607.00 L 239.00 529.00 L 338.00 418.00 L 482.00 274.00 L 580.00 201.00 L 632.00 199.00 L 691.00 221.00 L 757.00 267.00 L 791.00 273.00 L 793.00 239.00 L 798.00 242.00 L 806.00 282.00 L 810.00 282.00 L 810.00 242.00 L 813.00 243.00 L 819.00 285.00 L 824.00 289.00 L 828.00 255.00 L 841.00 272.00 L 863.00 340.00 L 882.00 382.00 L 898.00 398.00 L 911.00 397.00 L 921.00 379.00 L 924.00 382.00 L 920.00 406.00 L 926.00 398.00 L 942.00 358.00 L 945.00 360.00 L 935.00 404.00 L 937.00 401.00 L 951.00 351.00 L 973.00 321.00 L 1003.00 311.00 L 1017.00 313.00 L 1015.00 327.00 L 1021.00 327.00 L 1035.00 313.00 L 1030.00 346.00 L 1006.00 426.00 L 1010.00 429.00 L 1042.00 355.00 L 1044.00 355.00 L 1016.00 429.00 L 1016.00 435.00 L 1044.00 373.00 L 1047.00 374.00 L 1025.00 438.00 L 1033.00 439.00 L 1071.00 377.00 L 1074.00 378.00 L 1042.00 442.00 L 1046.00 441.00 L 1086.00 375.00 L 1090.00 374.00 L 1058.00 438.00 L 1061.00 438.00 L 1099.00 374.00 L 1103.00 375.00 L 1073.00 441.00 L 1081.00 440.00 L 1127.00 372.00 L 1132.00 375.00 L 1096.00 449.00 L 1102.00 456.00 L 1150.00 396.00 L 1153.00 397.00 L 1111.00 459.00 L 1112.00 462.00 L 1156.00 406.00 L 1159.00 407.00 L 1121.00 465.00 L 1123.00 471.00 L 1165.00 425.00 L 1169.00 426.00 L 1135.00 474.00 L 1135.00 477.00 L 1169.00 435.00 L 1173.00 434.00 L 1147.00 474.00 L 1149.00 476.00 L 1179.00 440.00 L 1182.00 442.00 L 1158.00 482.00 L 1160.00 503.00 L 1188.00 505.00 L 1207.00 514.00 L 1217.00 530.00 L 1182.00 574.00 L 1102.00 646.00 L 1060.00 691.00 L 1056.00 709.00 L 1061.00 717.00 L 1075.00 715.00 L 1076.00 718.00 L 1064.00 726.00 L 1065.00 731.00 L 1079.00 733.00 L 1080.00 738.00 L 1068.00 746.00 L 1067.00 748.00 L 1077.00 744.00 L 1076.00 766.00 L 1064.00 814.00 L 1071.00 869.00 L 1097.00 931.00 L 1099.00 973.00 L 1077.00 995.00 L 1066.00 1049.00 L 1066.00 1135.00 L 1045.00 1195.00 L 1003.00 1229.00 L 1028.00 1362.00 L 1120.00 1594.00 L 1117.00 1596.00 L 1019.00 1368.00 L 1017.00 1369.00 L 1111.00 1599.00 L 1151.00 1712.00 L 1137.00 1708.00 L 1133.00 1714.00 L 1139.00 1730.00 L 1096.00 1618.00 L 1004.00 1378.00 L 1004.00 1382.00 L 1096.00 1630.00 L 1130.00 1732.00 L 1106.00 1688.00 L 1104.00 1694.00 L 1124.00 1750.00 L 1119.00 1746.00 L 1089.00 1682.00 L 1086.00 1686.00 L 1110.00 1758.00 L 1077.00 1661.00 L 987.00 1395.00 L 984.00 1402.00 L 1068.00 1682.00 L 1064.00 1683.00 L 972.00 1405.00 L 964.00 1402.00 L 1040.00 1674.00 L 1037.00 1675.00 L 955.00 1405.00 L 946.00 1398.00 L 1010.00 1654.00 L 1025.00 1728.00 L 991.00 1620.00 L 984.00 1615.00 L 1004.00 1713.00 L 1002.00 1711.00 L 978.00 1609.00 L 975.00 1611.00 L 993.00 1717.00 L 976.00 1647.00 L 924.00 1401.00 L 923.00 1402.00 L 973.00 1650.00 L 971.00 1653.00 L 917.00 1411.00 L 910.00 1403.00 L 950.00 1629.00 L 948.00 1633.00 L 904.00 1415.00 L 898.00 1408.00 L 930.00 1612.00 L 928.00 1616.00 L 892.00 1420.00 L 885.00 1415.00 L 907.00 1601.00 L 906.00 1604.00 L 882.00 1424.00 L 879.00 1422.00 L 897.00 1598.00 L 896.00 1602.00 L 876.00 1434.00 L 873.00 1432.00 L 887.00 1596.00 L 886.00 1601.00 L 870.00 1447.00 L 865.00 1447.00 L 871.00 1601.00 L 841.00 1651.00 L 775.00 1597.00 L 661.00 1527.00 L 499.00 1441.00 L 440.00 1337.00 L 484.00 1215.00 L 490.00 1158.00 L 458.00 1166.00 L 436.00 1126.00 L 424.00 1038.00 L 394.00 966.00 L 346.00 910.00 L 319.00 879.00 L 313.00 873.00 L 272.00 826.00 Z" fill="black" stroke="black" stroke-width="1"/>
</svg>