<?xml version="1.0" encoding="UTF-8"?>
<svg xmlns="http://www.w3.org/2000/svg" viewBox="268.00 258.00 856.00 1487.00">
  <path d="M 359.00 929.00 L 377.00 887.00 L 382.00 862.00 L 374.00 854.00 L 375.00 851.00 L 385.00 853.00 L 384.00 851.00 L 372.00 845.00 L 363.00 834.00 L 357.00 818.00 L 353.00 794.00 L 351.00 762.00 L 341.00 718.00 L 323.00 662.00 L 314.00 605.00 L 314.00 547.00 L 325.00 494.00 L 347.00 446.00 L 385.00 396.00 L 439.00 344.00 L 482.00 311.00 L 514.00 297.00 L 559.00 284.00 L 617.00 272.00 L 670.00 268.00 L 718.00 272.00 L 789.00 290.00 L 883.00 322.00 L 956.00 361.00 L 1008.00 407.00 L 1039.00 437.00 L 1049.00 451.00 L 1052.00 464.00 L 1048.00 476.00 L 1049.00 478.00 L 1055.00 470.00 L 1055.00 472.00 L 1049.00 484.00 L 1051.00 486.00 L 1061.00 478.00 L 1063.00 484.00 L 1057.00 504.00 L 1059.00 507.00 L 1069.00 493.00 L 1071.00 493.00 L 1065.00 507.00 L 1066.00 509.00 L 1074.00 499.00 L 1073.00 502.00 L 1063.00 518.00 L 1064.00 520.00 L 1076.00 508.00 L 1076.00 511.00 L 1064.00 529.00 L 1065.00 532.00 L 1079.00 520.00 L 1080.00 526.00 L 1068.00 550.00 L 1069.00 554.00 L 1083.00 538.00 L 1083.00 541.00 L 1069.00 563.00 L 1070.00 566.00 L 1086.00 550.00 L 1087.00 553.00 L 1073.00 575.00 L 1074.00 577.00 L 1090.00 559.00 L 1090.00 562.00 L 1074.00 586.00 L 1075.00 588.00 L 1093.00 568.00 L 1099.00 563.00 L 1093.00 573.00 L 1094.00 575.00 L 1102.00 569.00 L 1097.00 579.00 L 1079.00 605.00 L 1080.00 608.00 L 1100.00 588.00 L 1101.00 590.00 L 1083.00 614.00 L 1083.00 618.00 L 1101.00 602.00 L 1101.00 604.00 L 1083.00 624.00 L 1082.00 627.00 L 1098.00 613.00 L 1098.00 615.00 L 1082.00 633.00 L 1082.00 636.00 L 1098.00 624.00 L 1098.00 626.00 L 1082.00 642.00 L 1079.00 646.00 L 1089.00 638.00 L 1089.00 640.00 L 1079.00 652.00 L 1083.00 650.00 L 1101.00 634.00 L 1101.00 635.00 L 1083.00 653.00 L 1082.00 655.00 L 1098.00 641.00 L 1097.00 645.00 L 1079.00 667.00 L 1066.00 694.00 L 1058.00 726.00 L 1069.00 772.00 L 1099.00 832.00 L 1114.00 867.00 L 1114.00 877.00 L 1111.00 887.00 L 1105.00 897.00 L 1089.00 905.00 L 1063.00 911.00 L 1059.00 913.00 L 1077.00 911.00 L 1079.00 911.00 L 1065.00 913.00 L 1055.00 919.00 L 1049.00 929.00 L 1045.00 951.00 L 1043.00 985.00 L 1035.00 1014.00 L 1021.00 1038.00 L 1017.00 1066.00 L 1023.00 1098.00 L 1020.00 1122.00 L 1008.00 1138.00 L 992.00 1151.00 L 972.00 1161.00 L 966.00 1172.00 L 974.00 1184.00 L 972.00 1185.00 L 960.00 1175.00 L 958.00 1178.00 L 966.00 1194.00 L 959.00 1211.00 L 937.00 1229.00 L 929.00 1248.00 L 935.00 1268.00 L 933.00 1269.00 L 923.00 1251.00 L 922.00 1254.00 L 930.00 1278.00 L 928.00 1280.00 L 916.00 1260.00 L 914.00 1261.00 L 922.00 1283.00 L 921.00 1284.00 L 911.00 1264.00 L 916.00 1279.00 L 936.00 1329.00 L 935.00 1331.00 L 913.00 1285.00 L 914.00 1288.00 L 938.00 1340.00 L 940.00 1348.00 L 920.00 1312.00 L 918.00 1314.00 L 934.00 1354.00 L 933.00 1354.00 L 915.00 1314.00 L 913.00 1312.00 L 927.00 1348.00 L 925.00 1349.00 L 907.00 1315.00 L 922.00 1375.00 L 970.00 1529.00 L 972.00 1546.00 L 928.00 1426.00 L 929.00 1432.00 L 975.00 1564.00 L 971.00 1554.00 L 917.00 1402.00 L 916.00 1400.00 L 968.00 1548.00 L 984.00 1594.00 L 964.00 1538.00 L 965.00 1542.00 L 987.00 1606.00 L 973.00 1568.00 L 923.00 1428.00 L 923.00 1433.00 L 973.00 1583.00 L 972.00 1582.00 L 920.00 1430.00 L 920.00 1433.00 L 972.00 1591.00 L 968.00 1582.00 L 908.00 1406.00 L 907.00 1408.00 L 965.00 1588.00 L 994.00 1683.00 L 994.00 1693.00 L 965.00 1607.00 L 907.00 1425.00 L 906.00 1428.00 L 962.00 1616.00 L 984.00 1718.00 L 972.00 1734.00 L 951.00 1735.00 L 921.00 1721.00 L 866.00 1675.00 L 786.00 1597.00 L 710.00 1531.00 L 638.00 1477.00 L 571.00 1431.00 L 509.00 1393.00 L 442.00 1360.00 L 370.00 1332.00 L 323.00 1310.00 L 301.00 1294.00 L 286.00 1267.00 L 278.00 1229.00 L 286.00 1177.00 L 310.00 1111.00 L 321.00 1063.00 L 319.00 1033.00 L 325.00 1003.00 L 339.00 973.00 L 347.00 956.00 L 349.00 952.00 L 359.00 929.00 Z" fill="black" stroke="black" stroke-width="1"/>
</svg>