<?xml version="1.0" encoding="UTF-8"?>
<svg xmlns="http://www.w3.org/2000/svg" viewBox="306.00 285.00 892.00 1435.00">
  <path d="M 424.00 998.00 L 428.00 986.00 L 426.00 978.00 L 418.00 974.00 L 420.00 970.00 L 432.00 966.00 L 429.00 962.00 L 411.00 958.00 L 413.00 956.00 L 435.00 956.00 L 434.00 954.00 L 410.00 950.00 L 395.00 930.00 L 389.00 894.00 L 377.00 859.00 L 359.00 825.00 L 341.00 777.00 L 323.00 715.00 L 316.00 656.00 L 320.00 600.00 L 332.00 542.00 L 352.00 482.00 L 381.00 433.00 L 419.00 395.00 L 456.00 365.00 L 492.00 343.00 L 558.00 325.00 L 654.00 311.00 L 705.00 301.00 L 711.00 295.00 L 746.00 297.00 L 810.00 307.00 L 880.00 328.00 L 956.00 360.00 L 1005.00 388.00 L 1027.00 412.00 L 1037.00 432.00 L 1035.00 448.00 L 1037.00 450.00 L 1043.00 438.00 L 1044.00 439.00 L 1040.00 453.00 L 1041.00 454.00 L 1047.00 442.00 L 1049.00 445.00 L 1047.00 463.00 L 1049.00 466.00 L 1055.00 454.00 L 1056.00 456.00 L 1052.00 472.00 L 1053.00 475.00 L 1059.00 465.00 L 1061.00 464.00 L 1059.00 472.00 L 1060.00 474.00 L 1064.00 470.00 L 1063.00 474.00 L 1057.00 486.00 L 1058.00 487.00 L 1066.00 477.00 L 1067.00 478.00 L 1061.00 490.00 L 1061.00 492.00 L 1067.00 484.00 L 1068.00 487.00 L 1064.00 501.00 L 1070.00 536.00 L 1086.00 592.00 L 1093.00 636.00 L 1091.00 668.00 L 1115.00 728.00 L 1165.00 816.00 L 1188.00 865.00 L 1184.00 875.00 L 1167.00 886.00 L 1137.00 898.00 L 1134.00 901.00 L 1158.00 895.00 L 1157.00 897.00 L 1131.00 907.00 L 1120.00 925.00 L 1124.00 951.00 L 1121.00 971.00 L 1111.00 985.00 L 1106.00 1000.00 L 1106.00 1016.00 L 1098.00 1033.00 L 1082.00 1051.00 L 1076.00 1078.00 L 1080.00 1114.00 L 1078.00 1141.00 L 1070.00 1159.00 L 1057.00 1174.00 L 1039.00 1186.00 L 1013.00 1191.00 L 979.00 1189.00 L 967.00 1194.00 L 977.00 1206.00 L 975.00 1206.00 L 961.00 1194.00 L 961.00 1196.00 L 975.00 1212.00 L 974.00 1213.00 L 958.00 1199.00 L 968.00 1224.00 L 1004.00 1288.00 L 1008.00 1302.00 L 980.00 1266.00 L 981.00 1268.00 L 1011.00 1308.00 L 1009.00 1306.00 L 975.00 1262.00 L 976.00 1264.00 L 1012.00 1312.00 L 1013.00 1316.00 L 979.00 1276.00 L 975.00 1274.00 L 1001.00 1310.00 L 1000.00 1317.00 L 972.00 1295.00 L 965.00 1298.00 L 979.00 1326.00 L 976.00 1324.00 L 956.00 1292.00 L 957.00 1294.00 L 979.00 1330.00 L 978.00 1329.00 L 954.00 1291.00 L 954.00 1293.00 L 978.00 1335.00 L 979.00 1338.00 L 957.00 1302.00 L 957.00 1303.00 L 979.00 1341.00 L 982.00 1348.00 L 966.00 1324.00 L 966.00 1327.00 L 982.00 1357.00 L 979.00 1355.00 L 957.00 1321.00 L 957.00 1324.00 L 979.00 1364.00 L 977.00 1361.00 L 951.00 1315.00 L 975.00 1362.00 L 1049.00 1502.00 L 1061.00 1527.00 L 1011.00 1437.00 L 1012.00 1441.00 L 1064.00 1539.00 L 1075.00 1561.00 L 1045.00 1507.00 L 1046.00 1510.00 L 1078.00 1570.00 L 1076.00 1567.00 L 1040.00 1501.00 L 1042.00 1507.00 L 1082.00 1585.00 L 1080.00 1583.00 L 1036.00 1501.00 L 1037.00 1504.00 L 1083.00 1592.00 L 1075.00 1578.00 L 1013.00 1462.00 L 1013.00 1465.00 L 1075.00 1587.00 L 1077.00 1593.00 L 1019.00 1483.00 L 1020.00 1488.00 L 1080.00 1608.00 L 1078.00 1605.00 L 1014.00 1479.00 L 1014.00 1481.00 L 1078.00 1611.00 L 1076.00 1608.00 L 1008.00 1472.00 L 1008.00 1474.00 L 1076.00 1614.00 L 1110.00 1690.00 L 1110.00 1702.00 L 1107.00 1704.00 L 1101.00 1696.00 L 1100.00 1698.00 L 1104.00 1710.00 L 1102.00 1708.00 L 1094.00 1692.00 L 1092.00 1690.00 L 1096.00 1702.00 L 1094.00 1701.00 L 1086.00 1687.00 L 1085.00 1688.00 L 1091.00 1704.00 L 1066.00 1691.00 L 1010.00 1649.00 L 936.00 1604.00 L 844.00 1556.00 L 735.00 1512.00 L 609.00 1472.00 L 518.00 1448.00 L 462.00 1440.00 L 417.00 1428.00 L 383.00 1412.00 L 362.00 1393.00 L 354.00 1371.00 L 351.00 1347.00 L 353.00 1321.00 L 366.00 1278.00 L 390.00 1218.00 L 399.00 1170.00 L 393.00 1134.00 L 398.00 1091.00 L 414.00 1041.00 L 422.00 1013.00 L 422.00 1007.00 L 424.00 998.00 Z" fill="black" stroke="black" stroke-width="1"/>
</svg>