<?xml version="1.0" encoding="UTF-8"?>
<svg xmlns="http://www.w3.org/2000/svg" viewBox="356.00 204.00 1005.00 1727.00">
  <path d="M 485.00 1090.00 L 475.00 1086.00 L 476.00 1083.00 L 488.00 1081.00 L 487.00 1079.00 L 473.00 1077.00 L 472.00 1075.00 L 484.00 1073.00 L 483.00 1071.00 L 469.00 1069.00 L 468.00 1044.00 L 480.00 996.00 L 481.00 962.00 L 471.00 942.00 L 455.00 921.00 L 433.00 899.00 L 411.00 866.00 L 389.00 822.00 L 374.00 775.00 L 366.00 725.00 L 370.00 653.00 L 386.00 559.00 L 419.00 469.00 L 469.00 383.00 L 516.00 322.00 L 560.00 286.00 L 624.00 254.00 L 708.00 226.00 L 790.00 214.00 L 870.00 218.00 L 935.00 228.00 L 985.00 244.00 L 1043.00 270.00 L 1109.00 306.00 L 1148.00 330.00 L 1160.00 342.00 L 1163.00 360.00 L 1157.00 384.00 L 1158.00 387.00 L 1166.00 369.00 L 1171.00 362.00 L 1173.00 366.00 L 1171.00 378.00 L 1165.00 398.00 L 1166.00 400.00 L 1174.00 384.00 L 1179.00 378.00 L 1181.00 382.00 L 1179.00 394.00 L 1173.00 414.00 L 1174.00 417.00 L 1182.00 403.00 L 1184.00 406.00 L 1180.00 426.00 L 1184.00 430.00 L 1196.00 418.00 L 1198.00 422.00 L 1190.00 442.00 L 1192.00 444.00 L 1204.00 428.00 L 1207.00 433.00 L 1201.00 459.00 L 1203.00 462.00 L 1213.00 442.00 L 1214.00 445.00 L 1206.00 471.00 L 1208.00 474.00 L 1220.00 454.00 L 1222.00 459.00 L 1214.00 489.00 L 1216.00 495.00 L 1228.00 477.00 L 1228.00 480.00 L 1216.00 504.00 L 1218.00 505.00 L 1234.00 483.00 L 1235.00 486.00 L 1221.00 514.00 L 1222.00 516.00 L 1238.00 492.00 L 1239.00 495.00 L 1225.00 525.00 L 1225.00 557.00 L 1239.00 591.00 L 1244.00 629.00 L 1240.00 671.00 L 1243.00 705.00 L 1253.00 731.00 L 1279.00 776.00 L 1321.00 840.00 L 1341.00 876.00 L 1339.00 884.00 L 1323.00 897.00 L 1293.00 915.00 L 1291.00 918.00 L 1317.00 906.00 L 1320.00 905.00 L 1300.00 915.00 L 1299.00 917.00 L 1317.00 911.00 L 1313.00 914.00 L 1287.00 926.00 L 1280.00 947.00 L 1292.00 977.00 L 1294.00 999.00 L 1286.00 1013.00 L 1284.00 1027.00 L 1288.00 1041.00 L 1282.00 1057.00 L 1266.00 1075.00 L 1257.00 1094.00 L 1255.00 1114.00 L 1257.00 1132.00 L 1263.00 1148.00 L 1264.00 1169.00 L 1260.00 1195.00 L 1241.00 1219.00 L 1207.00 1241.00 L 1196.00 1259.00 L 1208.00 1273.00 L 1201.00 1292.00 L 1175.00 1316.00 L 1173.00 1342.00 L 1195.00 1370.00 L 1193.00 1373.00 L 1167.00 1351.00 L 1165.00 1354.00 L 1187.00 1382.00 L 1186.00 1386.00 L 1162.00 1366.00 L 1171.00 1384.00 L 1213.00 1440.00 L 1232.00 1471.00 L 1228.00 1477.00 L 1230.00 1485.00 L 1238.00 1495.00 L 1238.00 1497.00 L 1230.00 1491.00 L 1229.00 1494.00 L 1235.00 1506.00 L 1213.00 1483.00 L 1163.00 1425.00 L 1161.00 1428.00 L 1207.00 1492.00 L 1207.00 1495.00 L 1161.00 1437.00 L 1158.00 1439.00 L 1198.00 1501.00 L 1215.00 1530.00 L 1209.00 1526.00 L 1188.00 1498.00 L 1152.00 1446.00 L 1190.00 1502.00 L 1302.00 1666.00 L 1344.00 1728.00 L 1316.00 1688.00 L 1317.00 1690.00 L 1347.00 1734.00 L 1344.00 1731.00 L 1308.00 1681.00 L 1310.00 1686.00 L 1350.00 1746.00 L 1348.00 1744.00 L 1304.00 1680.00 L 1305.00 1683.00 L 1351.00 1753.00 L 1331.00 1725.00 L 1245.00 1599.00 L 1246.00 1605.00 L 1334.00 1743.00 L 1315.00 1716.00 L 1189.00 1524.00 L 1190.00 1528.00 L 1318.00 1728.00 L 1316.00 1726.00 L 1184.00 1522.00 L 1185.00 1528.00 L 1319.00 1744.00 L 1319.00 1746.00 L 1185.00 1534.00 L 1186.00 1537.00 L 1322.00 1755.00 L 1325.00 1762.00 L 1195.00 1558.00 L 1194.00 1561.00 L 1322.00 1771.00 L 1330.00 1785.00 L 1218.00 1603.00 L 1218.00 1606.00 L 1330.00 1794.00 L 1322.00 1783.00 L 1194.00 1573.00 L 1193.00 1576.00 L 1319.00 1792.00 L 1319.00 1796.00 L 1193.00 1588.00 L 1191.00 1591.00 L 1313.00 1805.00 L 1315.00 1809.00 L 1197.00 1603.00 L 1193.00 1606.00 L 1303.00 1818.00 L 1346.00 1921.00 L 1322.00 1915.00 L 1289.00 1898.00 L 1247.00 1870.00 L 1205.00 1847.00 L 1163.00 1829.00 L 1090.00 1802.00 L 986.00 1766.00 L 857.00 1731.00 L 703.00 1697.00 L 571.00 1679.00 L 461.00 1677.00 L 405.00 1651.00 L 403.00 1601.00 L 417.00 1518.00 L 447.00 1402.00 L 463.00 1332.00 L 465.00 1308.00 L 463.00 1285.00 L 457.00 1263.00 L 463.00 1214.00 L 481.00 1138.00 L 490.00 1098.00 L 490.00 1094.00 L 485.00 1090.00 Z" fill="black" stroke="black" stroke-width="1"/>
</svg>