<?xml version="1.0" encoding="UTF-8"?>
<svg xmlns="http://www.w3.org/2000/svg" viewBox="288.00 308.00 919.00 1328.00">
  <path d="M 525.00 905.00 L 499.00 871.00 L 450.00 843.00 L 378.00 821.00 L 377.00 818.00 L 447.00 834.00 L 444.00 832.00 L 368.00 812.00 L 366.00 810.00 L 438.00 826.00 L 436.00 824.00 L 360.00 804.00 L 316.00 781.00 L 304.00 755.00 L 298.00 718.00 L 298.00 670.00 L 305.00 624.00 L 319.00 580.00 L 322.00 536.00 L 314.00 492.00 L 342.00 436.00 L 406.00 368.00 L 450.00 345.00 L 474.00 367.00 L 480.00 368.00 L 468.00 348.00 L 470.00 347.00 L 486.00 365.00 L 521.00 360.00 L 575.00 332.00 L 647.00 318.00 L 737.00 318.00 L 829.00 329.00 L 923.00 351.00 L 989.00 375.00 L 1027.00 401.00 L 1044.00 420.00 L 1040.00 432.00 L 1041.00 433.00 L 1047.00 423.00 L 1048.00 425.00 L 1044.00 439.00 L 1048.00 443.00 L 1060.00 437.00 L 1064.00 442.00 L 1060.00 458.00 L 1063.00 461.00 L 1073.00 451.00 L 1076.00 455.00 L 1072.00 473.00 L 1076.00 478.00 L 1088.00 470.00 L 1090.00 473.00 L 1082.00 487.00 L 1083.00 489.00 L 1093.00 479.00 L 1094.00 481.00 L 1086.00 495.00 L 1087.00 497.00 L 1097.00 487.00 L 1098.00 490.00 L 1090.00 506.00 L 1091.00 509.00 L 1101.00 499.00 L 1102.00 501.00 L 1094.00 515.00 L 1095.00 518.00 L 1105.00 510.00 L 1106.00 513.00 L 1098.00 527.00 L 1099.00 529.00 L 1109.00 519.00 L 1110.00 521.00 L 1102.00 535.00 L 1103.00 537.00 L 1113.00 527.00 L 1114.00 531.00 L 1106.00 549.00 L 1107.00 552.00 L 1117.00 540.00 L 1118.00 543.00 L 1110.00 561.00 L 1112.00 567.00 L 1124.00 561.00 L 1125.00 566.00 L 1115.00 582.00 L 1116.00 585.00 L 1128.00 575.00 L 1129.00 582.00 L 1119.00 606.00 L 1120.00 612.00 L 1132.00 600.00 L 1130.00 612.00 L 1114.00 648.00 L 1127.00 698.00 L 1169.00 762.00 L 1178.00 806.00 L 1154.00 830.00 L 1144.00 866.00 L 1148.00 914.00 L 1143.00 949.00 L 1129.00 971.00 L 1121.00 999.00 L 1119.00 1033.00 L 1109.00 1057.00 L 1091.00 1071.00 L 1057.00 1084.00 L 1007.00 1096.00 L 975.00 1111.00 L 961.00 1129.00 L 1023.00 1255.00 L 1161.00 1489.00 L 1160.00 1492.00 L 1020.00 1264.00 L 1019.00 1269.00 L 1157.00 1507.00 L 1157.00 1509.00 L 1019.00 1275.00 L 1018.00 1277.00 L 1154.00 1515.00 L 1154.00 1517.00 L 1018.00 1283.00 L 1017.00 1286.00 L 1151.00 1526.00 L 1197.00 1609.00 L 1155.00 1535.00 L 1154.00 1538.00 L 1194.00 1618.00 L 1189.00 1615.00 L 1139.00 1529.00 L 1138.00 1531.00 L 1186.00 1621.00 L 1184.00 1620.00 L 1132.00 1528.00 L 1131.00 1530.00 L 1181.00 1626.00 L 1141.00 1550.00 L 1011.00 1302.00 L 1008.00 1301.00 L 1132.00 1547.00 L 1132.00 1549.00 L 1008.00 1307.00 L 1004.00 1305.00 L 1120.00 1543.00 L 1119.00 1545.00 L 1001.00 1311.00 L 994.00 1307.00 L 1098.00 1533.00 L 1098.00 1536.00 L 994.00 1316.00 L 989.00 1314.00 L 1083.00 1530.00 L 1083.00 1533.00 L 989.00 1323.00 L 987.00 1322.00 L 1077.00 1530.00 L 1077.00 1532.00 L 987.00 1328.00 L 984.00 1327.00 L 1068.00 1529.00 L 1068.00 1532.00 L 984.00 1336.00 L 979.00 1333.00 L 1053.00 1523.00 L 1052.00 1525.00 L 976.00 1339.00 L 972.00 1336.00 L 1040.00 1516.00 L 1040.00 1519.00 L 972.00 1345.00 L 969.00 1344.00 L 1031.00 1516.00 L 1031.00 1518.00 L 969.00 1350.00 L 967.00 1348.00 L 1025.00 1512.00 L 1025.00 1514.00 L 967.00 1354.00 L 965.00 1353.00 L 1019.00 1511.00 L 1020.00 1516.00 L 968.00 1368.00 L 966.00 1367.00 L 1014.00 1513.00 L 1014.00 1515.00 L 966.00 1373.00 L 964.00 1372.00 L 1008.00 1512.00 L 1008.00 1517.00 L 964.00 1387.00 L 961.00 1385.00 L 999.00 1511.00 L 962.00 1548.00 L 850.00 1496.00 L 726.00 1449.00 L 590.00 1407.00 L 520.00 1372.00 L 516.00 1344.00 L 536.00 1262.00 L 580.00 1126.00 L 602.00 1039.00 L 602.00 1001.00 L 587.00 968.00 L 557.00 940.00 L 541.00 925.00 L 539.00 923.00 L 525.00 905.00 Z" fill="black" stroke="black" stroke-width="1"/>
</svg>