<?xml version="1.0" encoding="UTF-8"?>
<svg xmlns="http://www.w3.org/2000/svg" viewBox="376.00 189.00 855.00 1561.00">
  <path d="M 440.00 946.00 L 452.00 930.00 L 454.00 911.00 L 446.00 889.00 L 444.00 874.00 L 448.00 866.00 L 448.00 859.00 L 444.00 853.00 L 441.00 836.00 L 439.00 808.00 L 429.00 788.00 L 411.00 776.00 L 410.00 774.00 L 426.00 782.00 L 425.00 781.00 L 407.00 771.00 L 394.00 759.00 L 386.00 745.00 L 392.00 722.00 L 412.00 690.00 L 437.00 659.00 L 467.00 629.00 L 484.00 609.00 L 488.00 599.00 L 489.00 579.00 L 487.00 549.00 L 504.00 497.00 L 540.00 423.00 L 558.00 380.00 L 558.00 368.00 L 559.00 361.00 L 561.00 359.00 L 565.00 361.00 L 571.00 367.00 L 573.00 365.00 L 571.00 355.00 L 579.00 340.00 L 597.00 320.00 L 617.00 302.00 L 639.00 286.00 L 663.00 272.00 L 689.00 260.00 L 753.00 245.00 L 855.00 227.00 L 921.00 218.00 L 951.00 218.00 L 967.00 220.00 L 969.00 224.00 L 971.00 222.00 L 973.00 214.00 L 975.00 215.00 L 977.00 225.00 L 980.00 223.00 L 984.00 209.00 L 986.00 209.00 L 986.00 223.00 L 989.00 222.00 L 995.00 206.00 L 997.00 207.00 L 995.00 225.00 L 999.00 223.00 L 1009.00 201.00 L 1011.00 202.00 L 1005.00 226.00 L 1005.00 229.00 L 1011.00 211.00 L 1016.00 201.00 L 1020.00 199.00 L 1019.00 208.00 L 1013.00 228.00 L 1024.00 244.00 L 1052.00 256.00 L 1075.00 269.00 L 1093.00 283.00 L 1116.00 306.00 L 1144.00 338.00 L 1171.00 384.00 L 1197.00 444.00 L 1212.00 486.00 L 1216.00 510.00 L 1219.00 536.00 L 1221.00 564.00 L 1215.00 607.00 L 1201.00 665.00 L 1186.00 713.00 L 1170.00 751.00 L 1160.00 781.00 L 1156.00 803.00 L 1145.00 819.00 L 1127.00 829.00 L 1127.00 831.00 L 1145.00 825.00 L 1146.00 827.00 L 1130.00 837.00 L 1129.00 840.00 L 1143.00 836.00 L 1143.00 837.00 L 1129.00 843.00 L 1129.00 844.00 L 1143.00 840.00 L 1144.00 842.00 L 1132.00 850.00 L 1130.00 853.00 L 1138.00 851.00 L 1140.00 851.00 L 1136.00 853.00 L 1133.00 859.00 L 1131.00 869.00 L 1137.00 900.00 L 1151.00 952.00 L 1158.00 989.00 L 1158.00 1011.00 L 1155.00 1032.00 L 1149.00 1052.00 L 1151.00 1073.00 L 1161.00 1095.00 L 1168.00 1125.00 L 1172.00 1163.00 L 1180.00 1204.00 L 1192.00 1248.00 L 1198.00 1276.00 L 1198.00 1288.00 L 1194.00 1302.00 L 1186.00 1318.00 L 1173.00 1333.00 L 1155.00 1347.00 L 1098.00 1369.00 L 1002.00 1399.00 L 907.00 1437.00 L 813.00 1483.00 L 729.00 1532.00 L 655.00 1584.00 L 604.00 1621.00 L 576.00 1643.00 L 557.00 1661.00 L 547.00 1675.00 L 543.00 1678.00 L 545.00 1670.00 L 541.00 1674.00 L 531.00 1690.00 L 527.00 1693.00 L 529.00 1683.00 L 526.00 1689.00 L 518.00 1711.00 L 516.00 1714.00 L 520.00 1698.00 L 518.00 1701.00 L 510.00 1723.00 L 508.00 1726.00 L 512.00 1710.00 L 510.00 1711.00 L 502.00 1729.00 L 503.00 1724.00 L 513.00 1696.00 L 510.00 1701.00 L 494.00 1739.00 L 491.00 1740.00 L 501.00 1704.00 L 498.00 1704.00 L 482.00 1740.00 L 480.00 1740.00 L 492.00 1704.00 L 495.00 1692.00 L 489.00 1704.00 L 487.00 1704.00 L 489.00 1692.00 L 487.00 1691.00 L 481.00 1701.00 L 479.00 1700.00 L 481.00 1688.00 L 476.00 1680.00 L 464.00 1676.00 L 452.00 1667.00 L 440.00 1653.00 L 432.00 1640.00 L 428.00 1628.00 L 427.00 1611.00 L 429.00 1589.00 L 450.00 1542.00 L 490.00 1470.00 L 491.00 1467.00 L 453.00 1533.00 L 451.00 1536.00 L 485.00 1476.00 L 494.00 1459.00 L 478.00 1485.00 L 480.00 1480.00 L 500.00 1444.00 L 511.00 1417.00 L 513.00 1399.00 L 524.00 1373.00 L 544.00 1339.00 L 545.00 1336.00 L 527.00 1364.00 L 525.00 1366.00 L 539.00 1342.00 L 540.00 1339.00 L 528.00 1357.00 L 529.00 1353.00 L 543.00 1327.00 L 550.00 1309.00 L 550.00 1299.00 L 558.00 1281.00 L 574.00 1255.00 L 574.00 1253.00 L 558.00 1275.00 L 556.00 1277.00 L 568.00 1259.00 L 569.00 1256.00 L 559.00 1268.00 L 562.00 1263.00 L 578.00 1241.00 L 580.00 1238.00 L 568.00 1254.00 L 566.00 1253.00 L 574.00 1235.00 L 576.00 1223.00 L 572.00 1217.00 L 571.00 1210.00 L 573.00 1202.00 L 568.00 1196.00 L 556.00 1192.00 L 547.00 1186.00 L 541.00 1178.00 L 543.00 1168.00 L 553.00 1156.00 L 546.00 1130.00 L 522.00 1090.00 L 516.00 1062.00 L 528.00 1046.00 L 516.00 1032.00 L 480.00 1020.00 L 457.00 1009.00 L 447.00 999.00 L 440.00 987.00 L 436.00 973.00 L 434.00 963.00 L 434.00 957.00 L 440.00 946.00 Z" fill="black" stroke="black" stroke-width="1"/>
</svg>