<?xml version="1.0" encoding="UTF-8"?>
<svg xmlns="http://www.w3.org/2000/svg" viewBox="356.00 364.00 794.00 1317.00">
  <path d="M 443.00 990.00 L 445.00 982.00 L 442.00 970.00 L 434.00 954.00 L 429.00 937.00 L 427.00 919.00 L 415.00 905.00 L 393.00 895.00 L 393.00 893.00 L 415.00 899.00 L 412.00 897.00 L 384.00 887.00 L 382.00 886.00 L 406.00 894.00 L 405.00 892.00 L 379.00 880.00 L 366.00 871.00 L 366.00 865.00 L 373.00 847.00 L 387.00 817.00 L 414.00 778.00 L 454.00 730.00 L 472.00 692.00 L 468.00 664.00 L 471.00 639.00 L 481.00 617.00 L 482.00 597.00 L 474.00 579.00 L 475.00 577.00 L 485.00 591.00 L 486.00 588.00 L 478.00 568.00 L 479.00 567.00 L 489.00 585.00 L 490.00 583.00 L 482.00 561.00 L 483.00 559.00 L 493.00 577.00 L 494.00 575.00 L 486.00 553.00 L 487.00 551.00 L 497.00 569.00 L 498.00 568.00 L 490.00 548.00 L 488.00 541.00 L 492.00 547.00 L 493.00 546.00 L 491.00 538.00 L 494.00 541.00 L 502.00 555.00 L 503.00 553.00 L 497.00 535.00 L 498.00 533.00 L 506.00 547.00 L 508.00 545.00 L 504.00 527.00 L 506.00 525.00 L 514.00 539.00 L 515.00 538.00 L 509.00 522.00 L 510.00 520.00 L 518.00 532.00 L 519.00 530.00 L 513.00 514.00 L 514.00 513.00 L 522.00 527.00 L 525.00 531.00 L 523.00 525.00 L 524.00 523.00 L 528.00 525.00 L 530.00 524.00 L 530.00 520.00 L 528.00 512.00 L 524.00 500.00 L 525.00 501.00 L 531.00 515.00 L 532.00 514.00 L 528.00 498.00 L 529.00 496.00 L 535.00 508.00 L 537.00 507.00 L 535.00 493.00 L 536.00 491.00 L 540.00 501.00 L 541.00 501.00 L 539.00 491.00 L 549.00 474.00 L 571.00 450.00 L 597.00 428.00 L 627.00 408.00 L 666.00 392.00 L 714.00 380.00 L 767.00 374.00 L 825.00 374.00 L 867.00 376.00 L 893.00 380.00 L 923.00 388.00 L 957.00 400.00 L 987.00 414.00 L 1013.00 430.00 L 1047.00 460.00 L 1089.00 504.00 L 1118.00 546.00 L 1134.00 586.00 L 1140.00 632.00 L 1136.00 684.00 L 1130.00 724.00 L 1122.00 752.00 L 1107.00 789.00 L 1085.00 835.00 L 1073.00 884.00 L 1071.00 936.00 L 1061.00 964.00 L 1043.00 968.00 L 1042.00 970.00 L 1058.00 970.00 L 1057.00 971.00 L 1039.00 973.00 L 1037.00 976.00 L 1051.00 980.00 L 1053.00 984.00 L 1043.00 988.00 L 1038.00 993.00 L 1038.00 999.00 L 1043.00 1013.00 L 1053.00 1035.00 L 1064.00 1076.00 L 1076.00 1136.00 L 1079.00 1175.00 L 1073.00 1193.00 L 1075.00 1229.00 L 1085.00 1283.00 L 1086.00 1322.00 L 1078.00 1346.00 L 1065.00 1365.00 L 1047.00 1379.00 L 991.00 1398.00 L 897.00 1422.00 L 821.00 1445.00 L 763.00 1467.00 L 698.00 1498.00 L 626.00 1538.00 L 554.00 1584.00 L 482.00 1636.00 L 438.00 1665.00 L 422.00 1671.00 L 410.00 1671.00 L 402.00 1665.00 L 395.00 1655.00 L 389.00 1641.00 L 384.00 1626.00 L 380.00 1610.00 L 378.00 1588.00 L 378.00 1560.00 L 402.00 1503.00 L 450.00 1417.00 L 451.00 1410.00 L 405.00 1482.00 L 405.00 1479.00 L 451.00 1401.00 L 453.00 1394.00 L 411.00 1458.00 L 401.00 1472.00 L 423.00 1436.00 L 424.00 1432.00 L 404.00 1460.00 L 399.00 1466.00 L 409.00 1450.00 L 411.00 1446.00 L 405.00 1454.00 L 429.00 1415.00 L 483.00 1329.00 L 502.00 1297.00 L 486.00 1319.00 L 484.00 1321.00 L 496.00 1303.00 L 497.00 1301.00 L 487.00 1315.00 L 486.00 1316.00 L 494.00 1304.00 L 497.00 1299.00 L 495.00 1301.00 L 495.00 1297.00 L 497.00 1287.00 L 482.00 1296.00 L 450.00 1324.00 L 450.00 1318.00 L 482.00 1278.00 L 480.00 1279.00 L 444.00 1321.00 L 442.00 1322.00 L 474.00 1282.00 L 473.00 1280.00 L 439.00 1316.00 L 438.00 1315.00 L 470.00 1277.00 L 470.00 1275.00 L 438.00 1309.00 L 435.00 1310.00 L 461.00 1278.00 L 468.00 1260.00 L 456.00 1256.00 L 457.00 1246.00 L 471.00 1230.00 L 470.00 1229.00 L 454.00 1243.00 L 453.00 1241.00 L 467.00 1223.00 L 467.00 1220.00 L 453.00 1232.00 L 452.00 1229.00 L 464.00 1211.00 L 467.00 1182.00 L 461.00 1142.00 L 463.00 1119.00 L 473.00 1113.00 L 473.00 1103.00 L 463.00 1089.00 L 461.00 1070.00 L 467.00 1046.00 L 464.00 1026.00 L 452.00 1010.00 L 445.00 1000.00 L 443.00 996.00 L 443.00 990.00 Z" fill="black" stroke="black" stroke-width="1"/>
</svg>