<?xml version="1.0" encoding="UTF-8"?>
<svg xmlns="http://www.w3.org/2000/svg" viewBox="408.00 210.00 919.00 1590.00">
  <path d="M 507.00 928.00 L 525.00 884.00 L 527.00 858.00 L 513.00 850.00 L 515.00 848.00 L 533.00 852.00 L 531.00 850.00 L 509.00 842.00 L 508.00 840.00 L 528.00 844.00 L 526.00 842.00 L 502.00 834.00 L 505.00 833.00 L 535.00 839.00 L 535.00 836.00 L 505.00 824.00 L 486.00 801.00 L 478.00 767.00 L 468.00 736.00 L 456.00 708.00 L 448.00 672.00 L 444.00 628.00 L 444.00 579.00 L 448.00 525.00 L 456.00 479.00 L 468.00 441.00 L 487.00 404.00 L 513.00 368.00 L 535.00 341.00 L 553.00 323.00 L 576.00 304.00 L 604.00 284.00 L 645.00 262.00 L 699.00 238.00 L 759.00 224.00 L 825.00 220.00 L 871.00 221.00 L 897.00 227.00 L 918.00 229.00 L 934.00 227.00 L 952.00 228.00 L 972.00 232.00 L 1005.00 245.00 L 1051.00 267.00 L 1082.00 287.00 L 1098.00 305.00 L 1115.00 318.00 L 1133.00 326.00 L 1146.00 334.00 L 1154.00 342.00 L 1160.00 350.00 L 1164.00 358.00 L 1164.00 372.00 L 1160.00 392.00 L 1162.00 395.00 L 1170.00 381.00 L 1172.00 380.00 L 1168.00 392.00 L 1169.00 394.00 L 1175.00 386.00 L 1176.00 389.00 L 1172.00 403.00 L 1173.00 405.00 L 1179.00 395.00 L 1181.00 398.00 L 1179.00 414.00 L 1182.00 417.00 L 1190.00 407.00 L 1192.00 409.00 L 1188.00 423.00 L 1191.00 426.00 L 1201.00 418.00 L 1204.00 422.00 L 1200.00 438.00 L 1202.00 440.00 L 1210.00 428.00 L 1211.00 430.00 L 1205.00 446.00 L 1207.00 449.00 L 1217.00 439.00 L 1218.00 443.00 L 1210.00 461.00 L 1211.00 463.00 L 1221.00 449.00 L 1225.00 446.00 L 1223.00 454.00 L 1224.00 455.00 L 1228.00 449.00 L 1225.00 454.00 L 1215.00 470.00 L 1216.00 472.00 L 1228.00 460.00 L 1229.00 463.00 L 1219.00 481.00 L 1220.00 482.00 L 1232.00 466.00 L 1233.00 469.00 L 1223.00 491.00 L 1225.00 518.00 L 1239.00 550.00 L 1245.00 577.00 L 1243.00 599.00 L 1238.00 618.00 L 1230.00 634.00 L 1248.00 678.00 L 1292.00 750.00 L 1315.00 791.00 L 1317.00 801.00 L 1299.00 815.00 L 1261.00 833.00 L 1260.00 836.00 L 1296.00 824.00 L 1295.00 826.00 L 1257.00 842.00 L 1256.00 845.00 L 1292.00 835.00 L 1292.00 836.00 L 1256.00 848.00 L 1253.00 850.00 L 1283.00 842.00 L 1283.00 845.00 L 1253.00 859.00 L 1239.00 875.00 L 1241.00 893.00 L 1238.00 906.00 L 1230.00 914.00 L 1227.00 923.00 L 1229.00 933.00 L 1224.00 948.00 L 1212.00 968.00 L 1211.00 989.00 L 1221.00 1011.00 L 1222.00 1034.00 L 1214.00 1058.00 L 1204.00 1074.00 L 1192.00 1082.00 L 1178.00 1086.00 L 1162.00 1086.00 L 1139.00 1090.00 L 1109.00 1098.00 L 1098.00 1106.00 L 1106.00 1114.00 L 1107.00 1121.00 L 1101.00 1127.00 L 1102.00 1135.00 L 1110.00 1145.00 L 1108.00 1147.00 L 1096.00 1141.00 L 1096.00 1144.00 L 1108.00 1156.00 L 1108.00 1159.00 L 1096.00 1153.00 L 1094.00 1155.00 L 1102.00 1165.00 L 1104.00 1170.00 L 1100.00 1170.00 L 1100.00 1175.00 L 1104.00 1185.00 L 1103.00 1187.00 L 1097.00 1181.00 L 1108.00 1194.00 L 1136.00 1226.00 L 1134.00 1224.00 L 1102.00 1188.00 L 1100.00 1186.00 L 1128.00 1218.00 L 1137.00 1229.00 L 1127.00 1219.00 L 1126.00 1222.00 L 1134.00 1238.00 L 1122.00 1227.00 L 1090.00 1189.00 L 1087.00 1187.00 L 1113.00 1221.00 L 1112.00 1221.00 L 1084.00 1187.00 L 1082.00 1186.00 L 1106.00 1218.00 L 1104.00 1224.00 L 1076.00 1204.00 L 1076.00 1218.00 L 1104.00 1266.00 L 1101.00 1266.00 L 1067.00 1218.00 L 1067.00 1223.00 L 1101.00 1281.00 L 1100.00 1281.00 L 1064.00 1223.00 L 1075.00 1246.00 L 1133.00 1350.00 L 1151.00 1384.00 L 1129.00 1348.00 L 1129.00 1351.00 L 1151.00 1393.00 L 1162.00 1422.00 L 1162.00 1438.00 L 1178.00 1499.00 L 1210.00 1605.00 L 1225.00 1656.00 L 1223.00 1652.00 L 1222.00 1663.00 L 1222.00 1689.00 L 1218.00 1715.00 L 1210.00 1741.00 L 1198.00 1766.00 L 1182.00 1790.00 L 1142.00 1773.00 L 1078.00 1715.00 L 992.00 1645.00 L 884.00 1563.00 L 808.00 1509.00 L 764.00 1483.00 L 700.00 1450.00 L 616.00 1410.00 L 552.00 1382.00 L 508.00 1366.00 L 472.00 1349.00 L 444.00 1331.00 L 427.00 1313.00 L 421.00 1295.00 L 418.00 1273.00 L 418.00 1247.00 L 422.00 1218.00 L 430.00 1186.00 L 444.00 1145.00 L 464.00 1095.00 L 473.00 1060.00 L 471.00 1040.00 L 476.00 1013.00 L 488.00 979.00 L 495.00 959.00 L 497.00 953.00 L 507.00 928.00 Z" fill="black" stroke="black" stroke-width="1"/>
</svg>