<?xml version="1.0" encoding="UTF-8"?>
<svg xmlns="http://www.w3.org/2000/svg" viewBox="322.00 213.00 874.00 1346.00">
  <path d="M 379.00 859.00 L 373.00 853.00 L 370.00 836.00 L 370.00 808.00 L 362.00 788.00 L 346.00 776.00 L 336.00 762.00 L 332.00 746.00 L 354.00 704.00 L 402.00 636.00 L 426.00 578.00 L 426.00 530.00 L 418.00 496.00 L 402.00 476.00 L 402.00 475.00 L 418.00 493.00 L 419.00 491.00 L 405.00 469.00 L 400.00 458.00 L 404.00 458.00 L 411.00 464.00 L 421.00 476.00 L 420.00 473.00 L 408.00 455.00 L 408.00 452.00 L 420.00 464.00 L 421.00 463.00 L 411.00 449.00 L 412.00 447.00 L 424.00 457.00 L 425.00 455.00 L 415.00 441.00 L 413.00 436.00 L 419.00 440.00 L 420.00 439.00 L 416.00 433.00 L 419.00 436.00 L 429.00 448.00 L 431.00 445.00 L 425.00 427.00 L 426.00 423.00 L 434.00 433.00 L 435.00 432.00 L 429.00 420.00 L 430.00 418.00 L 438.00 426.00 L 439.00 424.00 L 433.00 412.00 L 433.00 410.00 L 439.00 418.00 L 443.00 421.00 L 445.00 419.00 L 443.00 413.00 L 437.00 403.00 L 435.00 397.00 L 437.00 395.00 L 441.00 398.00 L 447.00 406.00 L 448.00 404.00 L 444.00 392.00 L 445.00 391.00 L 451.00 401.00 L 452.00 400.00 L 448.00 388.00 L 467.00 362.00 L 509.00 322.00 L 551.00 291.00 L 593.00 269.00 L 624.00 255.00 L 644.00 249.00 L 664.00 246.00 L 684.00 246.00 L 727.00 240.00 L 793.00 228.00 L 845.00 223.00 L 883.00 225.00 L 925.00 231.00 L 971.00 241.00 L 1003.00 250.00 L 1021.00 258.00 L 1041.00 269.00 L 1063.00 283.00 L 1092.00 310.00 L 1128.00 350.00 L 1156.00 404.00 L 1176.00 472.00 L 1186.00 527.00 L 1186.00 569.00 L 1174.00 628.00 L 1150.00 704.00 L 1125.00 763.00 L 1099.00 805.00 L 1073.00 840.00 L 1047.00 868.00 L 1024.00 883.00 L 1004.00 885.00 L 1003.00 887.00 L 1021.00 889.00 L 1018.00 889.00 L 994.00 887.00 L 993.00 888.00 L 1015.00 892.00 L 1020.00 894.00 L 1008.00 894.00 L 1007.00 895.00 L 1017.00 897.00 L 1018.00 898.00 L 1010.00 898.00 L 1009.00 899.00 L 1015.00 901.00 L 1010.00 901.00 L 994.00 899.00 L 992.00 899.00 L 1004.00 901.00 L 1005.00 904.00 L 995.00 908.00 L 994.00 919.00 L 1002.00 937.00 L 1009.00 967.00 L 1015.00 1009.00 L 1015.00 1046.00 L 1009.00 1078.00 L 1009.00 1098.00 L 1015.00 1106.00 L 1024.00 1134.00 L 1036.00 1182.00 L 1039.00 1221.00 L 1033.00 1251.00 L 1018.00 1276.00 L 994.00 1296.00 L 933.00 1319.00 L 835.00 1345.00 L 785.00 1363.00 L 783.00 1373.00 L 781.00 1374.00 L 779.00 1366.00 L 778.00 1367.00 L 778.00 1377.00 L 761.00 1388.00 L 727.00 1400.00 L 674.00 1426.00 L 602.00 1466.00 L 553.00 1499.00 L 527.00 1525.00 L 516.00 1528.00 L 520.00 1508.00 L 518.00 1507.00 L 510.00 1525.00 L 507.00 1527.00 L 509.00 1513.00 L 508.00 1512.00 L 504.00 1524.00 L 502.00 1525.00 L 502.00 1515.00 L 491.00 1519.00 L 469.00 1537.00 L 452.00 1547.00 L 440.00 1549.00 L 431.00 1548.00 L 425.00 1544.00 L 422.00 1521.00 L 422.00 1479.00 L 429.00 1437.00 L 443.00 1395.00 L 450.00 1363.00 L 450.00 1341.00 L 479.00 1279.00 L 537.00 1177.00 L 538.00 1174.00 L 482.00 1270.00 L 459.00 1305.00 L 469.00 1279.00 L 496.00 1229.00 L 540.00 1155.00 L 540.00 1154.00 L 496.00 1226.00 L 496.00 1224.00 L 540.00 1148.00 L 540.00 1145.00 L 496.00 1215.00 L 492.00 1220.00 L 528.00 1160.00 L 532.00 1150.00 L 504.00 1190.00 L 507.00 1184.00 L 541.00 1132.00 L 541.00 1129.00 L 507.00 1175.00 L 506.00 1174.00 L 538.00 1126.00 L 539.00 1123.00 L 509.00 1165.00 L 507.00 1164.00 L 533.00 1120.00 L 544.00 1096.00 L 540.00 1092.00 L 543.00 1082.00 L 553.00 1066.00 L 551.00 1065.00 L 537.00 1079.00 L 536.00 1077.00 L 548.00 1059.00 L 546.00 1058.00 L 530.00 1074.00 L 528.00 1072.00 L 540.00 1052.00 L 538.00 1050.00 L 522.00 1066.00 L 518.00 1069.00 L 526.00 1059.00 L 526.00 1057.00 L 518.00 1063.00 L 521.00 1059.00 L 535.00 1045.00 L 536.00 1043.00 L 524.00 1053.00 L 523.00 1052.00 L 533.00 1040.00 L 519.00 1033.00 L 481.00 1031.00 L 456.00 1028.00 L 444.00 1024.00 L 433.00 1017.00 L 423.00 1007.00 L 415.00 993.00 L 409.00 975.00 L 406.00 956.00 L 406.00 936.00 L 400.00 917.00 L 388.00 899.00 L 384.00 884.00 L 388.00 872.00 L 388.00 865.00 L 384.00 863.00 L 379.00 859.00 Z" fill="black" stroke="black" stroke-width="1"/>
</svg>