<?xml version="1.0" encoding="UTF-8"?>
<svg xmlns="http://www.w3.org/2000/svg" viewBox="310.00 320.00 799.00 1228.00">
  <path d="M 381.00 890.00 L 371.00 866.00 L 365.00 841.00 L 363.00 815.00 L 353.00 773.00 L 335.00 715.00 L 324.00 669.00 L 320.00 635.00 L 322.00 602.00 L 330.00 570.00 L 341.00 539.00 L 355.00 509.00 L 373.00 479.00 L 395.00 449.00 L 414.00 427.00 L 430.00 413.00 L 457.00 395.00 L 495.00 373.00 L 533.00 357.00 L 571.00 347.00 L 606.00 339.00 L 638.00 333.00 L 681.00 330.00 L 735.00 330.00 L 784.00 334.00 L 828.00 342.00 L 864.00 351.00 L 892.00 361.00 L 918.00 372.00 L 942.00 384.00 L 964.00 399.00 L 984.00 417.00 L 1003.00 436.00 L 1021.00 456.00 L 1034.00 475.00 L 1042.00 493.00 L 1040.00 514.00 L 1028.00 538.00 L 1029.00 541.00 L 1043.00 523.00 L 1044.00 524.00 L 1032.00 544.00 L 1033.00 546.00 L 1047.00 530.00 L 1047.00 532.00 L 1033.00 552.00 L 1034.00 554.00 L 1050.00 538.00 L 1051.00 540.00 L 1037.00 560.00 L 1038.00 562.00 L 1054.00 546.00 L 1055.00 547.00 L 1041.00 565.00 L 1041.00 566.00 L 1055.00 550.00 L 1056.00 552.00 L 1044.00 572.00 L 1045.00 574.00 L 1059.00 558.00 L 1059.00 560.00 L 1045.00 580.00 L 1045.00 583.00 L 1059.00 569.00 L 1060.00 571.00 L 1048.00 589.00 L 1049.00 593.00 L 1063.00 583.00 L 1064.00 585.00 L 1052.00 599.00 L 1052.00 601.00 L 1064.00 591.00 L 1065.00 592.00 L 1055.00 604.00 L 1056.00 606.00 L 1068.00 598.00 L 1068.00 600.00 L 1056.00 612.00 L 1054.00 615.00 L 1062.00 609.00 L 1063.00 611.00 L 1057.00 621.00 L 1060.00 621.00 L 1072.00 611.00 L 1073.00 614.00 L 1063.00 630.00 L 1065.00 632.00 L 1079.00 620.00 L 1079.00 622.00 L 1065.00 638.00 L 1067.00 640.00 L 1085.00 628.00 L 1085.00 630.00 L 1067.00 646.00 L 1055.00 684.00 L 1049.00 744.00 L 1050.00 786.00 L 1058.00 810.00 L 1073.00 837.00 L 1095.00 867.00 L 1099.00 892.00 L 1085.00 912.00 L 1077.00 927.00 L 1075.00 937.00 L 1076.00 947.00 L 1080.00 957.00 L 1076.00 969.00 L 1064.00 983.00 L 1059.00 993.00 L 1061.00 999.00 L 1055.00 1012.00 L 1041.00 1032.00 L 1033.00 1050.00 L 1031.00 1066.00 L 1027.00 1079.00 L 1021.00 1089.00 L 1010.00 1102.00 L 994.00 1118.00 L 958.00 1138.00 L 902.00 1162.00 L 910.00 1260.00 L 982.00 1432.00 L 1014.00 1510.00 L 1006.00 1494.00 L 1007.00 1500.00 L 1017.00 1528.00 L 1013.00 1522.00 L 995.00 1482.00 L 995.00 1485.00 L 1013.00 1531.00 L 984.00 1460.00 L 908.00 1272.00 L 898.00 1248.00 L 954.00 1388.00 L 980.00 1456.00 L 976.00 1452.00 L 985.00 1478.00 L 1007.00 1534.00 L 1006.00 1532.00 L 982.00 1472.00 L 982.00 1474.00 L 1006.00 1538.00 L 980.00 1474.00 L 904.00 1282.00 L 901.00 1285.00 L 971.00 1483.00 L 970.00 1485.00 L 898.00 1291.00 L 895.00 1292.00 L 961.00 1488.00 L 961.00 1491.00 L 895.00 1301.00 L 893.00 1301.00 L 955.00 1491.00 L 968.00 1534.00 L 932.00 1430.00 L 930.00 1430.00 L 962.00 1534.00 L 948.00 1493.00 L 888.00 1307.00 L 887.00 1306.00 L 945.00 1490.00 L 945.00 1493.00 L 887.00 1315.00 L 884.00 1314.00 L 936.00 1490.00 L 936.00 1493.00 L 884.00 1323.00 L 882.00 1321.00 L 930.00 1487.00 L 931.00 1492.00 L 885.00 1336.00 L 883.00 1334.00 L 925.00 1486.00 L 904.00 1531.00 L 820.00 1469.00 L 753.00 1423.00 L 703.00 1393.00 L 653.00 1367.00 L 603.00 1345.00 L 565.00 1323.00 L 539.00 1301.00 L 522.00 1281.00 L 514.00 1263.00 L 513.00 1246.00 L 519.00 1230.00 L 519.00 1226.00 L 513.00 1234.00 L 515.00 1231.00 L 525.00 1217.00 L 526.00 1215.00 L 518.00 1225.00 L 523.00 1211.00 L 541.00 1173.00 L 547.00 1138.00 L 541.00 1106.00 L 535.00 1084.00 L 529.00 1072.00 L 518.00 1069.00 L 502.00 1075.00 L 501.00 1073.00 L 515.00 1063.00 L 514.00 1062.00 L 498.00 1070.00 L 497.00 1069.00 L 511.00 1059.00 L 509.00 1057.00 L 491.00 1063.00 L 490.00 1061.00 L 506.00 1051.00 L 505.00 1050.00 L 487.00 1058.00 L 485.00 1057.00 L 499.00 1047.00 L 497.00 1045.00 L 479.00 1051.00 L 477.00 1050.00 L 491.00 1042.00 L 489.00 1039.00 L 471.00 1041.00 L 460.00 1037.00 L 456.00 1027.00 L 443.00 1009.00 L 421.00 983.00 L 405.00 955.00 L 395.00 925.00 L 389.00 908.00 L 387.00 904.00 L 381.00 890.00 Z" fill="black" stroke="black" stroke-width="1"/>
</svg>