<?xml version="1.0" encoding="UTF-8"?>
<svg xmlns="http://www.w3.org/2000/svg" viewBox="357.00 324.00 870.00 1423.00">
  <path d="M 429.00 1009.00 L 435.00 999.00 L 433.00 990.00 L 423.00 982.00 L 419.00 964.00 L 421.00 936.00 L 420.00 919.00 L 416.00 913.00 L 403.00 904.00 L 381.00 892.00 L 369.00 882.00 L 367.00 874.00 L 376.00 850.00 L 396.00 810.00 L 421.00 774.00 L 451.00 742.00 L 467.00 714.00 L 469.00 690.00 L 480.00 643.00 L 500.00 573.00 L 508.00 532.00 L 504.00 520.00 L 505.00 518.00 L 511.00 526.00 L 512.00 523.00 L 508.00 509.00 L 509.00 507.00 L 515.00 517.00 L 515.00 515.00 L 509.00 501.00 L 507.00 493.00 L 509.00 491.00 L 513.00 494.00 L 519.00 502.00 L 520.00 499.00 L 516.00 485.00 L 518.00 486.00 L 526.00 502.00 L 528.00 500.00 L 524.00 480.00 L 530.00 465.00 L 546.00 455.00 L 566.00 438.00 L 590.00 414.00 L 616.00 398.00 L 644.00 390.00 L 668.00 380.00 L 688.00 368.00 L 710.00 360.00 L 734.00 356.00 L 759.00 349.00 L 785.00 339.00 L 808.00 334.00 L 828.00 334.00 L 843.00 336.00 L 853.00 340.00 L 878.00 341.00 L 918.00 339.00 L 962.00 346.00 L 1010.00 362.00 L 1055.00 384.00 L 1097.00 412.00 L 1119.00 431.00 L 1121.00 441.00 L 1124.00 444.00 L 1128.00 440.00 L 1130.00 441.00 L 1130.00 447.00 L 1132.00 449.00 L 1136.00 447.00 L 1150.00 468.00 L 1174.00 512.00 L 1194.00 559.00 L 1210.00 609.00 L 1217.00 645.00 L 1215.00 667.00 L 1205.00 700.00 L 1187.00 744.00 L 1159.00 801.00 L 1121.00 871.00 L 1099.00 922.00 L 1093.00 954.00 L 1098.00 1000.00 L 1114.00 1060.00 L 1122.00 1097.00 L 1122.00 1111.00 L 1117.00 1127.00 L 1107.00 1145.00 L 1116.00 1204.00 L 1144.00 1304.00 L 1156.00 1365.00 L 1152.00 1387.00 L 1144.00 1406.00 L 1132.00 1422.00 L 1111.00 1435.00 L 1081.00 1445.00 L 1062.00 1449.00 L 1054.00 1447.00 L 1019.00 1450.00 L 957.00 1458.00 L 899.00 1469.00 L 845.00 1483.00 L 797.00 1498.00 L 755.00 1514.00 L 700.00 1543.00 L 632.00 1585.00 L 564.00 1633.00 L 496.00 1687.00 L 451.00 1720.00 L 429.00 1732.00 L 413.00 1737.00 L 403.00 1735.00 L 394.00 1727.00 L 386.00 1713.00 L 386.00 1687.00 L 394.00 1649.00 L 396.00 1633.00 L 392.00 1639.00 L 422.00 1586.00 L 486.00 1474.00 L 488.00 1469.00 L 428.00 1571.00 L 426.00 1573.00 L 482.00 1475.00 L 482.00 1473.00 L 426.00 1567.00 L 428.00 1563.00 L 488.00 1461.00 L 488.00 1459.00 L 428.00 1557.00 L 415.00 1577.00 L 449.00 1519.00 L 450.00 1516.00 L 418.00 1568.00 L 430.00 1547.00 L 486.00 1453.00 L 503.00 1422.00 L 481.00 1454.00 L 480.00 1452.00 L 500.00 1416.00 L 510.00 1394.00 L 510.00 1386.00 L 520.00 1367.00 L 540.00 1337.00 L 540.00 1335.00 L 520.00 1361.00 L 516.00 1363.00 L 528.00 1341.00 L 529.00 1336.00 L 519.00 1348.00 L 520.00 1343.00 L 532.00 1321.00 L 539.00 1301.00 L 541.00 1283.00 L 538.00 1275.00 L 530.00 1277.00 L 517.00 1287.00 L 499.00 1305.00 L 486.00 1314.00 L 478.00 1314.00 L 485.00 1300.00 L 507.00 1272.00 L 510.00 1266.00 L 494.00 1282.00 L 492.00 1283.00 L 504.00 1269.00 L 504.00 1267.00 L 492.00 1277.00 L 492.00 1275.00 L 504.00 1261.00 L 512.00 1248.00 L 516.00 1236.00 L 511.00 1222.00 L 497.00 1206.00 L 496.00 1192.00 L 508.00 1180.00 L 510.00 1176.00 L 502.00 1180.00 L 501.00 1179.00 L 507.00 1173.00 L 505.00 1169.00 L 495.00 1167.00 L 481.00 1160.00 L 463.00 1148.00 L 451.00 1134.00 L 445.00 1118.00 L 444.00 1099.00 L 448.00 1077.00 L 444.00 1055.00 L 432.00 1033.00 L 426.00 1020.00 L 426.00 1016.00 L 429.00 1009.00 Z" fill="black" stroke="black" stroke-width="1"/>
</svg>