<?xml version="1.0" encoding="UTF-8"?>
<svg xmlns="http://www.w3.org/2000/svg" viewBox="273.00 282.00 925.00 1451.00">
  <path d="M 408.00 1024.00 L 420.00 996.00 L 423.00 972.00 L 417.00 952.00 L 416.00 935.00 L 420.00 921.00 L 420.00 901.00 L 416.00 875.00 L 392.00 846.00 L 348.00 814.00 L 347.00 809.00 L 389.00 831.00 L 389.00 828.00 L 347.00 800.00 L 342.00 760.00 L 374.00 708.00 L 402.00 672.00 L 426.00 652.00 L 453.00 601.00 L 483.00 519.00 L 513.00 461.00 L 543.00 427.00 L 558.00 405.00 L 558.00 395.00 L 560.00 394.00 L 564.00 402.00 L 570.00 395.00 L 578.00 373.00 L 608.00 349.00 L 660.00 323.00 L 733.00 304.00 L 827.00 292.00 L 905.00 293.00 L 967.00 307.00 L 1009.00 319.00 L 1031.00 329.00 L 1059.00 348.00 L 1093.00 376.00 L 1120.00 402.00 L 1140.00 426.00 L 1158.00 455.00 L 1174.00 489.00 L 1184.00 534.00 L 1188.00 590.00 L 1180.00 668.00 L 1160.00 768.00 L 1148.00 876.00 L 1144.00 992.00 L 1125.00 1050.00 L 1091.00 1050.00 L 1091.00 1052.00 L 1125.00 1056.00 L 1126.00 1059.00 L 1094.00 1061.00 L 1094.00 1063.00 L 1126.00 1065.00 L 1127.00 1067.00 L 1097.00 1069.00 L 1098.00 1072.00 L 1130.00 1076.00 L 1129.00 1078.00 L 1095.00 1078.00 L 1096.00 1081.00 L 1132.00 1087.00 L 1134.00 1089.00 L 1102.00 1087.00 L 1102.00 1090.00 L 1134.00 1098.00 L 1133.00 1100.00 L 1099.00 1096.00 L 1099.00 1098.00 L 1133.00 1106.00 L 1134.00 1109.00 L 1102.00 1107.00 L 1102.00 1110.00 L 1134.00 1118.00 L 1136.00 1121.00 L 1108.00 1119.00 L 1109.00 1123.00 L 1139.00 1133.00 L 1138.00 1136.00 L 1106.00 1132.00 L 1111.00 1138.00 L 1153.00 1154.00 L 1153.00 1157.00 L 1111.00 1147.00 L 1112.00 1150.00 L 1156.00 1166.00 L 1156.00 1168.00 L 1112.00 1156.00 L 1111.00 1159.00 L 1153.00 1177.00 L 1153.00 1180.00 L 1111.00 1168.00 L 1106.00 1169.00 L 1138.00 1183.00 L 1146.00 1188.00 L 1130.00 1184.00 L 1128.00 1186.00 L 1140.00 1194.00 L 1132.00 1193.00 L 1104.00 1183.00 L 1104.00 1185.00 L 1132.00 1199.00 L 1132.00 1201.00 L 1104.00 1191.00 L 1105.00 1194.00 L 1135.00 1210.00 L 1134.00 1212.00 L 1102.00 1200.00 L 1102.00 1202.00 L 1134.00 1218.00 L 1145.00 1224.00 L 1135.00 1220.00 L 1136.00 1223.00 L 1148.00 1233.00 L 1136.00 1230.00 L 1100.00 1214.00 L 1100.00 1218.00 L 1136.00 1242.00 L 1155.00 1256.00 L 1157.00 1260.00 L 1142.00 1254.00 L 1110.00 1238.00 L 1110.00 1241.00 L 1142.00 1263.00 L 1142.00 1266.00 L 1110.00 1250.00 L 1111.00 1254.00 L 1145.00 1278.00 L 1146.00 1281.00 L 1114.00 1263.00 L 1114.00 1266.00 L 1146.00 1290.00 L 1147.00 1293.00 L 1117.00 1275.00 L 1118.00 1281.00 L 1150.00 1311.00 L 1151.00 1316.00 L 1121.00 1296.00 L 1120.00 1299.00 L 1148.00 1325.00 L 1148.00 1328.00 L 1120.00 1308.00 L 1120.00 1309.00 L 1148.00 1331.00 L 1149.00 1334.00 L 1123.00 1318.00 L 1121.00 1320.00 L 1143.00 1340.00 L 1144.00 1343.00 L 1124.00 1329.00 L 1121.00 1329.00 L 1135.00 1343.00 L 1135.00 1345.00 L 1121.00 1335.00 L 1114.00 1356.00 L 1114.00 1408.00 L 1107.00 1443.00 L 1093.00 1461.00 L 1033.00 1479.00 L 927.00 1497.00 L 831.00 1518.00 L 745.00 1542.00 L 644.00 1577.00 L 528.00 1623.00 L 455.00 1654.00 L 425.00 1670.00 L 404.00 1687.00 L 392.00 1705.00 L 390.00 1706.00 L 398.00 1690.00 L 393.00 1694.00 L 375.00 1718.00 L 369.00 1721.00 L 375.00 1703.00 L 373.00 1702.00 L 363.00 1718.00 L 360.00 1719.00 L 364.00 1705.00 L 348.00 1705.00 L 312.00 1719.00 L 291.00 1723.00 L 285.00 1717.00 L 283.00 1696.00 L 285.00 1660.00 L 296.00 1608.00 L 316.00 1540.00 L 351.00 1469.00 L 401.00 1395.00 L 436.00 1348.00 L 456.00 1328.00 L 457.00 1326.00 L 439.00 1342.00 L 441.00 1340.00 L 463.00 1320.00 L 466.00 1317.00 L 450.00 1331.00 L 456.00 1319.00 L 484.00 1281.00 L 493.00 1266.00 L 483.00 1274.00 L 482.00 1271.00 L 490.00 1257.00 L 480.00 1221.00 L 452.00 1163.00 L 444.00 1130.00 L 456.00 1122.00 L 457.00 1119.00 L 447.00 1121.00 L 446.00 1118.00 L 454.00 1110.00 L 445.00 1091.00 L 419.00 1061.00 L 405.00 1044.00 L 403.00 1040.00 L 408.00 1024.00 Z" fill="black" stroke="black" stroke-width="1"/>
</svg>