<?xml version="1.0" encoding="UTF-8"?>
<svg xmlns="http://www.w3.org/2000/svg" viewBox="242.00 323.00 926.00 1386.00">
  <path d="M 391.00 1002.00 L 353.00 998.00 L 352.00 996.00 L 388.00 996.00 L 384.00 994.00 L 340.00 990.00 L 333.00 988.00 L 363.00 988.00 L 361.00 987.00 L 327.00 985.00 L 333.00 985.00 L 379.00 987.00 L 376.00 985.00 L 324.00 979.00 L 297.00 975.00 L 295.00 973.00 L 320.00 973.00 L 372.00 975.00 L 369.00 972.00 L 311.00 964.00 L 310.00 962.00 L 366.00 966.00 L 363.00 963.00 L 301.00 953.00 L 267.00 942.00 L 261.00 930.00 L 256.00 911.00 L 252.00 885.00 L 254.00 810.00 L 262.00 686.00 L 271.00 608.00 L 281.00 576.00 L 296.00 551.00 L 316.00 533.00 L 328.00 508.00 L 332.00 476.00 L 341.00 459.00 L 355.00 457.00 L 372.00 440.00 L 392.00 408.00 L 413.00 388.00 L 435.00 380.00 L 452.00 371.00 L 464.00 361.00 L 474.00 363.00 L 482.00 377.00 L 484.00 378.00 L 480.00 366.00 L 481.00 365.00 L 487.00 375.00 L 506.00 373.00 L 538.00 359.00 L 579.00 347.00 L 629.00 337.00 L 684.00 333.00 L 744.00 335.00 L 796.00 342.00 L 840.00 354.00 L 874.00 367.00 L 898.00 381.00 L 917.00 395.00 L 931.00 409.00 L 938.00 422.00 L 938.00 434.00 L 941.00 437.00 L 947.00 431.00 L 949.00 433.00 L 947.00 443.00 L 948.00 445.00 L 952.00 439.00 L 954.00 442.00 L 954.00 454.00 L 971.00 496.00 L 1005.00 568.00 L 1022.00 617.00 L 1022.00 643.00 L 1024.00 662.00 L 1028.00 674.00 L 1040.00 690.00 L 1060.00 710.00 L 1085.00 742.00 L 1115.00 786.00 L 1130.00 810.00 L 1130.00 814.00 L 1117.00 823.00 L 1091.00 837.00 L 1090.00 839.00 L 1114.00 829.00 L 1112.00 832.00 L 1084.00 848.00 L 1069.00 859.00 L 1067.00 865.00 L 1068.00 875.00 L 1072.00 889.00 L 1071.00 903.00 L 1065.00 917.00 L 1064.00 926.00 L 1068.00 930.00 L 1065.00 944.00 L 1055.00 968.00 L 1054.00 989.00 L 1062.00 1007.00 L 1065.00 1024.00 L 1063.00 1040.00 L 1057.00 1054.00 L 1047.00 1066.00 L 1039.00 1072.00 L 1033.00 1072.00 L 1032.00 1073.00 L 1036.00 1075.00 L 1026.00 1080.00 L 1002.00 1088.00 L 995.00 1096.00 L 1005.00 1104.00 L 1003.00 1106.00 L 989.00 1102.00 L 990.00 1105.00 L 1006.00 1115.00 L 1008.00 1127.00 L 996.00 1141.00 L 998.00 1154.00 L 1014.00 1166.00 L 1013.00 1168.00 L 995.00 1160.00 L 995.00 1162.00 L 1013.00 1174.00 L 1015.00 1177.00 L 1001.00 1171.00 L 1002.00 1174.00 L 1018.00 1186.00 L 1014.00 1185.00 L 990.00 1171.00 L 980.00 1166.00 L 984.00 1170.00 L 983.00 1171.00 L 977.00 1169.00 L 986.00 1177.00 L 1010.00 1195.00 L 1009.00 1197.00 L 983.00 1183.00 L 981.00 1185.00 L 1003.00 1203.00 L 1003.00 1204.00 L 981.00 1188.00 L 980.00 1189.00 L 1000.00 1207.00 L 1013.00 1220.00 L 1019.00 1228.00 L 1017.00 1228.00 L 1007.00 1220.00 L 1009.00 1223.00 L 1023.00 1237.00 L 1021.00 1237.00 L 1003.00 1223.00 L 1004.00 1225.00 L 1024.00 1243.00 L 1025.00 1245.00 L 1007.00 1231.00 L 1006.00 1233.00 L 1022.00 1251.00 L 1015.00 1253.00 L 985.00 1239.00 L 981.00 1246.00 L 1003.00 1274.00 L 1001.00 1275.00 L 975.00 1249.00 L 976.00 1251.00 L 1004.00 1281.00 L 1020.00 1299.00 L 1024.00 1305.00 L 1018.00 1300.00 L 1002.00 1284.00 L 1003.00 1286.00 L 1021.00 1306.00 L 1016.00 1301.00 L 988.00 1271.00 L 988.00 1273.00 L 1016.00 1307.00 L 1016.00 1310.00 L 988.00 1282.00 L 994.00 1292.00 L 1034.00 1340.00 L 1052.00 1362.00 L 1048.00 1358.00 L 1067.00 1389.00 L 1109.00 1455.00 L 1137.00 1519.00 L 1151.00 1581.00 L 1158.00 1624.00 L 1158.00 1648.00 L 1156.00 1665.00 L 1152.00 1675.00 L 1141.00 1685.00 L 1123.00 1695.00 L 1110.00 1699.00 L 1102.00 1697.00 L 1048.00 1664.00 L 948.00 1600.00 L 870.00 1554.00 L 814.00 1526.00 L 769.00 1506.00 L 735.00 1494.00 L 691.00 1484.00 L 637.00 1476.00 L 576.00 1470.00 L 508.00 1466.00 L 455.00 1459.00 L 417.00 1449.00 L 395.00 1440.00 L 389.00 1432.00 L 386.00 1417.00 L 386.00 1395.00 L 389.00 1373.00 L 395.00 1351.00 L 396.00 1321.00 L 392.00 1283.00 L 397.00 1226.00 L 411.00 1150.00 L 422.00 1104.00 L 430.00 1088.00 L 435.00 1072.00 L 437.00 1056.00 L 432.00 1040.00 L 420.00 1024.00 L 413.00 1013.00 L 411.00 1007.00 L 391.00 1002.00 Z" fill="black" stroke="black" stroke-width="1"/>
</svg>