<?xml version="1.0" encoding="UTF-8"?>
<svg xmlns="http://www.w3.org/2000/svg" viewBox="240.00 178.00 936.00 1536.00">
  <path d="M 282.00 757.00 L 346.00 599.00 L 411.00 471.00 L 477.00 373.00 L 527.00 318.00 L 561.00 306.00 L 612.00 316.00 L 680.00 348.00 L 713.00 349.00 L 711.00 319.00 L 714.00 320.00 L 722.00 352.00 L 724.00 349.00 L 720.00 311.00 L 722.00 282.00 L 730.00 262.00 L 739.00 264.00 L 749.00 288.00 L 752.00 285.00 L 748.00 255.00 L 750.00 236.00 L 758.00 228.00 L 763.00 230.00 L 765.00 242.00 L 765.00 237.00 L 763.00 215.00 L 763.00 212.00 L 765.00 228.00 L 769.00 222.00 L 775.00 194.00 L 784.00 230.00 L 796.00 330.00 L 799.00 330.00 L 793.00 230.00 L 796.00 236.00 L 808.00 348.00 L 813.00 350.00 L 811.00 242.00 L 813.00 242.00 L 819.00 350.00 L 821.00 347.00 L 819.00 233.00 L 819.00 217.00 L 821.00 299.00 L 824.00 295.00 L 828.00 205.00 L 832.00 223.00 L 836.00 349.00 L 841.00 346.00 L 847.00 214.00 L 850.00 214.00 L 850.00 346.00 L 853.00 348.00 L 859.00 220.00 L 861.00 188.00 L 859.00 252.00 L 862.00 254.00 L 870.00 194.00 L 871.00 226.00 L 865.00 350.00 L 868.00 350.00 L 880.00 226.00 L 883.00 224.00 L 877.00 344.00 L 880.00 344.00 L 892.00 224.00 L 893.00 222.00 L 883.00 338.00 L 886.00 339.00 L 902.00 225.00 L 905.00 223.00 L 895.00 333.00 L 897.00 340.00 L 911.00 244.00 L 913.00 242.00 L 903.00 334.00 L 906.00 334.00 L 922.00 242.00 L 925.00 240.00 L 915.00 328.00 L 918.00 329.00 L 934.00 243.00 L 937.00 241.00 L 927.00 323.00 L 929.00 327.00 L 943.00 253.00 L 948.00 233.00 L 944.00 267.00 L 947.00 266.00 L 957.00 230.00 L 955.00 249.00 L 941.00 323.00 L 944.00 323.00 L 964.00 249.00 L 967.00 248.00 L 953.00 320.00 L 957.00 323.00 L 979.00 257.00 L 983.00 256.00 L 969.00 320.00 L 976.00 350.00 L 1004.00 346.00 L 1031.00 358.00 L 1057.00 386.00 L 1064.00 420.00 L 1052.00 460.00 L 1053.00 505.00 L 1067.00 555.00 L 1068.00 589.00 L 1056.00 607.00 L 1059.00 607.00 L 1077.00 589.00 L 1078.00 592.00 L 1062.00 616.00 L 1064.00 619.00 L 1084.00 601.00 L 1084.00 603.00 L 1064.00 625.00 L 1066.00 629.00 L 1090.00 615.00 L 1091.00 618.00 L 1069.00 638.00 L 1069.00 641.00 L 1091.00 627.00 L 1092.00 630.00 L 1072.00 650.00 L 1071.00 656.00 L 1089.00 648.00 L 1091.00 651.00 L 1077.00 665.00 L 1077.00 668.00 L 1091.00 660.00 L 1092.00 664.00 L 1080.00 680.00 L 1074.00 706.00 L 1074.00 742.00 L 1077.00 772.00 L 1083.00 796.00 L 1105.00 838.00 L 1143.00 898.00 L 1159.00 937.00 L 1153.00 955.00 L 1141.00 967.00 L 1123.00 973.00 L 1110.00 983.00 L 1102.00 997.00 L 1091.00 1046.00 L 1077.00 1130.00 L 1063.00 1185.00 L 1049.00 1211.00 L 1055.00 1252.00 L 1081.00 1308.00 L 1080.00 1311.00 L 1052.00 1261.00 L 1053.00 1267.00 L 1083.00 1329.00 L 1084.00 1337.00 L 1056.00 1291.00 L 1052.00 1297.00 L 1072.00 1355.00 L 1070.00 1361.00 L 1046.00 1315.00 L 1078.00 1389.00 L 1166.00 1583.00 L 1165.00 1585.00 L 1075.00 1395.00 L 1073.00 1396.00 L 1159.00 1588.00 L 1159.00 1591.00 L 1073.00 1405.00 L 1070.00 1410.00 L 1150.00 1606.00 L 1149.00 1609.00 L 1067.00 1419.00 L 1066.00 1422.00 L 1146.00 1618.00 L 1158.00 1652.00 L 1102.00 1524.00 L 1101.00 1528.00 L 1155.00 1664.00 L 1148.00 1649.00 L 1080.00 1483.00 L 1078.00 1488.00 L 1142.00 1664.00 L 1139.00 1664.00 L 1069.00 1488.00 L 1068.00 1490.00 L 1136.00 1670.00 L 1144.00 1698.00 L 1092.00 1574.00 L 1089.00 1576.00 L 1135.00 1704.00 L 1125.00 1677.00 L 1059.00 1495.00 L 1057.00 1497.00 L 1119.00 1683.00 L 1116.00 1685.00 L 1048.00 1503.00 L 1043.00 1500.00 L 1101.00 1676.00 L 1100.00 1679.00 L 1040.00 1509.00 L 1034.00 1501.00 L 1082.00 1655.00 L 1023.00 1661.00 L 857.00 1519.00 L 709.00 1418.00 L 579.00 1358.00 L 530.00 1281.00 L 562.00 1187.00 L 569.00 1145.00 L 551.00 1155.00 L 530.00 1156.00 L 506.00 1148.00 L 488.00 1132.00 L 476.00 1108.00 L 477.00 1090.00 L 491.00 1078.00 L 492.00 1075.00 L 480.00 1081.00 L 477.00 1077.00 L 483.00 1063.00 L 432.00 1022.00 L 324.00 954.00 L 265.00 903.00 L 255.00 869.00 L 250.00 848.00 L 250.00 840.00 L 282.00 757.00 Z" fill="black" stroke="black" stroke-width="1"/>
</svg>