<?xml version="1.0" encoding="UTF-8"?>
<svg xmlns="http://www.w3.org/2000/svg" viewBox="376.00 280.00 961.00 1387.00">
  <path d="M 473.00 930.00 L 471.00 906.00 L 496.00 867.00 L 548.00 813.00 L 577.00 775.00 L 583.00 753.00 L 558.00 683.00 L 502.00 565.00 L 473.00 491.00 L 471.00 461.00 L 500.00 448.00 L 560.00 452.00 L 587.00 442.00 L 581.00 418.00 L 585.00 419.00 L 599.00 445.00 L 602.00 441.00 L 594.00 407.00 L 597.00 407.00 L 611.00 441.00 L 613.00 439.00 L 603.00 401.00 L 606.00 402.00 L 622.00 442.00 L 626.00 439.00 L 618.00 393.00 L 623.00 393.00 L 641.00 439.00 L 646.00 430.00 L 638.00 366.00 L 642.00 354.00 L 658.00 394.00 L 663.00 391.00 L 657.00 345.00 L 668.00 318.00 L 696.00 310.00 L 715.00 315.00 L 725.00 333.00 L 730.00 332.00 L 730.00 312.00 L 731.00 311.00 L 733.00 329.00 L 741.00 326.00 L 755.00 302.00 L 771.00 290.00 L 789.00 290.00 L 800.00 310.00 L 804.00 350.00 L 807.00 351.00 L 809.00 313.00 L 810.00 313.00 L 810.00 351.00 L 813.00 351.00 L 819.00 313.00 L 823.00 311.00 L 825.00 345.00 L 827.00 347.00 L 829.00 317.00 L 831.00 316.00 L 833.00 344.00 L 836.00 345.00 L 840.00 319.00 L 842.00 318.00 L 842.00 342.00 L 877.00 340.00 L 947.00 312.00 L 1000.00 308.00 L 1036.00 328.00 L 1096.00 387.00 L 1180.00 485.00 L 1257.00 617.00 L 1327.00 783.00 L 1309.00 912.00 L 1203.00 1004.00 L 1126.00 1063.00 L 1078.00 1089.00 L 1051.00 1141.00 L 1045.00 1219.00 L 1052.00 1296.00 L 1072.00 1372.00 L 1075.00 1426.00 L 1061.00 1458.00 L 1042.00 1482.00 L 1018.00 1498.00 L 933.00 1522.00 L 787.00 1554.00 L 719.00 1511.00 L 729.00 1393.00 L 726.00 1394.00 L 710.00 1514.00 L 710.00 1501.00 L 726.00 1355.00 L 723.00 1356.00 L 701.00 1504.00 L 701.00 1501.00 L 723.00 1347.00 L 720.00 1348.00 L 692.00 1504.00 L 691.00 1499.00 L 717.00 1333.00 L 713.00 1334.00 L 679.00 1502.00 L 678.00 1499.00 L 710.00 1325.00 L 705.00 1327.00 L 663.00 1505.00 L 661.00 1500.00 L 699.00 1312.00 L 695.00 1313.00 L 649.00 1503.00 L 649.00 1502.00 L 695.00 1310.00 L 692.00 1311.00 L 640.00 1505.00 L 639.00 1503.00 L 689.00 1305.00 L 686.00 1307.00 L 630.00 1509.00 L 611.00 1570.00 L 629.00 1490.00 L 623.00 1492.00 L 593.00 1576.00 L 610.00 1513.00 L 674.00 1303.00 L 668.00 1306.00 L 592.00 1522.00 L 590.00 1521.00 L 662.00 1303.00 L 659.00 1304.00 L 581.00 1524.00 L 555.00 1593.00 L 581.00 1511.00 L 572.00 1514.00 L 528.00 1602.00 L 551.00 1532.00 L 641.00 1304.00 L 632.00 1310.00 L 524.00 1550.00 L 521.00 1550.00 L 623.00 1310.00 L 620.00 1311.00 L 512.00 1553.00 L 477.00 1630.00 L 515.00 1542.00 L 511.00 1545.00 L 465.00 1639.00 L 462.00 1640.00 L 502.00 1548.00 L 499.00 1549.00 L 453.00 1643.00 L 451.00 1643.00 L 493.00 1549.00 L 487.00 1553.00 L 433.00 1655.00 L 431.00 1654.00 L 481.00 1550.00 L 478.00 1551.00 L 422.00 1657.00 L 460.00 1580.00 L 592.00 1320.00 L 589.00 1319.00 L 451.00 1577.00 L 448.00 1577.00 L 580.00 1319.00 L 578.00 1309.00 L 442.00 1547.00 L 395.00 1627.00 L 437.00 1549.00 L 436.00 1546.00 L 392.00 1618.00 L 389.00 1618.00 L 427.00 1546.00 L 426.00 1541.00 L 386.00 1603.00 L 433.00 1523.00 L 567.00 1301.00 L 567.00 1299.00 L 433.00 1517.00 L 431.00 1517.00 L 561.00 1299.00 L 564.00 1286.00 L 440.00 1478.00 L 437.00 1478.00 L 555.00 1286.00 L 595.00 1182.00 L 557.00 1166.00 L 531.00 1110.00 L 517.00 1014.00 L 502.00 962.00 L 486.00 954.00 L 477.00 948.00 L 475.00 944.00 L 473.00 930.00 Z" fill="black" stroke="black" stroke-width="1"/>
</svg>