<?xml version="1.0" encoding="UTF-8"?>
<svg xmlns="http://www.w3.org/2000/svg" viewBox="300.00 239.00 892.00 1523.00">
  <path d="M 426.00 990.00 L 434.00 990.00 L 429.00 987.00 L 411.00 981.00 L 410.00 978.00 L 426.00 978.00 L 425.00 977.00 L 407.00 975.00 L 409.00 974.00 L 431.00 974.00 L 430.00 971.00 L 406.00 965.00 L 394.00 953.00 L 394.00 935.00 L 390.00 917.00 L 382.00 899.00 L 379.00 888.00 L 381.00 884.00 L 373.00 863.00 L 355.00 825.00 L 337.00 776.00 L 319.00 716.00 L 310.00 646.00 L 310.00 566.00 L 314.00 512.00 L 322.00 484.00 L 337.00 449.00 L 359.00 407.00 L 387.00 369.00 L 421.00 335.00 L 453.00 308.00 L 483.00 288.00 L 510.00 273.00 L 534.00 263.00 L 583.00 255.00 L 657.00 249.00 L 724.00 251.00 L 784.00 261.00 L 826.00 271.00 L 850.00 281.00 L 872.00 294.00 L 892.00 310.00 L 902.00 326.00 L 902.00 342.00 L 903.00 348.00 L 905.00 344.00 L 907.00 345.00 L 909.00 351.00 L 921.00 361.00 L 943.00 375.00 L 973.00 404.00 L 1011.00 448.00 L 1044.00 497.00 L 1072.00 551.00 L 1087.00 594.00 L 1089.00 626.00 L 1104.00 658.00 L 1132.00 690.00 L 1155.00 725.00 L 1173.00 763.00 L 1164.00 793.00 L 1128.00 815.00 L 1128.00 817.00 L 1164.00 799.00 L 1182.00 792.00 L 1182.00 796.00 L 1163.00 808.00 L 1125.00 828.00 L 1124.00 830.00 L 1160.00 814.00 L 1160.00 816.00 L 1124.00 836.00 L 1122.00 839.00 L 1154.00 825.00 L 1154.00 827.00 L 1122.00 845.00 L 1108.00 865.00 L 1112.00 887.00 L 1111.00 901.00 L 1105.00 907.00 L 1108.00 915.00 L 1120.00 925.00 L 1122.00 943.00 L 1114.00 969.00 L 1112.00 1001.00 L 1116.00 1039.00 L 1115.00 1066.00 L 1109.00 1082.00 L 1101.00 1095.00 L 1091.00 1105.00 L 1076.00 1116.00 L 1056.00 1128.00 L 1039.00 1135.00 L 1025.00 1137.00 L 1018.00 1143.00 L 1018.00 1153.00 L 1010.00 1182.00 L 994.00 1230.00 L 986.00 1263.00 L 986.00 1281.00 L 1004.00 1317.00 L 1040.00 1371.00 L 1039.00 1373.00 L 1001.00 1323.00 L 1002.00 1326.00 L 1042.00 1382.00 L 1045.00 1387.00 L 1011.00 1341.00 L 1012.00 1344.00 L 1048.00 1396.00 L 1045.00 1393.00 L 1003.00 1335.00 L 1012.00 1353.00 L 1072.00 1447.00 L 1093.00 1481.00 L 1075.00 1455.00 L 1080.00 1464.00 L 1108.00 1508.00 L 1119.00 1526.00 L 1113.00 1518.00 L 1123.00 1542.00 L 1149.00 1598.00 L 1159.00 1622.00 L 1153.00 1614.00 L 1154.00 1630.00 L 1162.00 1670.00 L 1166.00 1692.00 L 1166.00 1696.00 L 1164.00 1696.00 L 1160.00 1692.00 L 1160.00 1696.00 L 1164.00 1708.00 L 1163.00 1722.00 L 1157.00 1738.00 L 1150.00 1748.00 L 1142.00 1752.00 L 1132.00 1752.00 L 1120.00 1748.00 L 1098.00 1734.00 L 1066.00 1710.00 L 1050.00 1700.00 L 1050.00 1704.00 L 1048.00 1703.00 L 1044.00 1697.00 L 1038.00 1693.00 L 1030.00 1691.00 L 1016.00 1681.00 L 996.00 1663.00 L 958.00 1640.00 L 902.00 1612.00 L 815.00 1580.00 L 697.00 1544.00 L 585.00 1517.00 L 479.00 1499.00 L 416.00 1484.00 L 396.00 1472.00 L 380.00 1458.00 L 368.00 1442.00 L 359.00 1425.00 L 353.00 1407.00 L 350.00 1390.00 L 350.00 1374.00 L 354.00 1345.00 L 362.00 1303.00 L 371.00 1272.00 L 381.00 1252.00 L 386.00 1233.00 L 386.00 1215.00 L 383.00 1200.00 L 377.00 1188.00 L 375.00 1170.00 L 377.00 1146.00 L 385.00 1113.00 L 399.00 1071.00 L 413.00 1038.00 L 427.00 1014.00 L 431.00 999.00 L 425.00 993.00 L 426.00 990.00 Z" fill="black" stroke="black" stroke-width="1"/>
</svg>