<?xml version="1.0" encoding="UTF-8"?>
<svg xmlns="http://www.w3.org/2000/svg" viewBox="432.00 169.00 1043.00 1530.00">
  <path d="M 569.00 958.00 L 575.00 914.00 L 572.00 888.00 L 560.00 880.00 L 561.00 877.00 L 575.00 879.00 L 571.00 874.00 L 549.00 862.00 L 522.00 824.00 L 490.00 760.00 L 466.00 702.00 L 450.00 650.00 L 442.00 599.00 L 442.00 549.00 L 448.00 501.00 L 460.00 455.00 L 473.00 415.00 L 487.00 381.00 L 507.00 344.00 L 533.00 304.00 L 574.00 264.00 L 630.00 224.00 L 699.00 197.00 L 781.00 183.00 L 852.00 179.00 L 912.00 185.00 L 967.00 195.00 L 1017.00 209.00 L 1073.00 234.00 L 1135.00 270.00 L 1168.00 301.00 L 1172.00 327.00 L 1176.00 333.00 L 1180.00 319.00 L 1181.00 322.00 L 1179.00 342.00 L 1181.00 345.00 L 1187.00 331.00 L 1189.00 332.00 L 1187.00 348.00 L 1190.00 349.00 L 1198.00 335.00 L 1200.00 337.00 L 1196.00 355.00 L 1198.00 356.00 L 1206.00 340.00 L 1208.00 343.00 L 1204.00 365.00 L 1207.00 366.00 L 1217.00 346.00 L 1219.00 348.00 L 1213.00 372.00 L 1215.00 373.00 L 1225.00 351.00 L 1227.00 354.00 L 1221.00 382.00 L 1224.00 385.00 L 1236.00 363.00 L 1238.00 365.00 L 1230.00 391.00 L 1232.00 393.00 L 1244.00 371.00 L 1246.00 374.00 L 1238.00 402.00 L 1240.00 404.00 L 1252.00 380.00 L 1253.00 382.00 L 1243.00 410.00 L 1245.00 412.00 L 1259.00 388.00 L 1261.00 391.00 L 1251.00 421.00 L 1254.00 423.00 L 1270.00 397.00 L 1273.00 401.00 L 1263.00 435.00 L 1266.00 468.00 L 1282.00 500.00 L 1290.00 532.00 L 1290.00 564.00 L 1323.00 616.00 L 1389.00 688.00 L 1427.00 733.00 L 1437.00 751.00 L 1441.00 764.00 L 1439.00 772.00 L 1423.00 784.00 L 1393.00 800.00 L 1392.00 802.00 L 1420.00 790.00 L 1418.00 793.00 L 1386.00 811.00 L 1373.00 829.00 L 1379.00 847.00 L 1378.00 863.00 L 1370.00 877.00 L 1368.00 891.00 L 1372.00 905.00 L 1367.00 921.00 L 1353.00 939.00 L 1351.00 963.00 L 1361.00 993.00 L 1365.00 1019.00 L 1363.00 1041.00 L 1350.00 1060.00 L 1326.00 1076.00 L 1298.00 1085.00 L 1266.00 1087.00 L 1258.00 1093.00 L 1274.00 1103.00 L 1272.00 1104.00 L 1252.00 1096.00 L 1257.00 1100.00 L 1287.00 1116.00 L 1304.00 1129.00 L 1308.00 1139.00 L 1301.00 1161.00 L 1283.00 1195.00 L 1294.00 1235.00 L 1334.00 1281.00 L 1332.00 1284.00 L 1288.00 1244.00 L 1289.00 1246.00 L 1335.00 1290.00 L 1333.00 1289.00 L 1283.00 1243.00 L 1282.00 1243.00 L 1330.00 1289.00 L 1329.00 1291.00 L 1279.00 1249.00 L 1276.00 1250.00 L 1320.00 1294.00 L 1322.00 1298.00 L 1282.00 1262.00 L 1279.00 1262.00 L 1313.00 1298.00 L 1326.00 1313.00 L 1318.00 1307.00 L 1299.00 1289.00 L 1269.00 1259.00 L 1270.00 1262.00 L 1302.00 1298.00 L 1308.00 1306.00 L 1288.00 1286.00 L 1285.00 1287.00 L 1299.00 1309.00 L 1296.00 1316.00 L 1276.00 1308.00 L 1271.00 1312.00 L 1281.00 1328.00 L 1280.00 1330.00 L 1268.00 1318.00 L 1300.00 1368.00 L 1376.00 1480.00 L 1382.00 1493.00 L 1318.00 1407.00 L 1322.00 1415.00 L 1394.00 1517.00 L 1399.00 1526.00 L 1337.00 1442.00 L 1338.00 1445.00 L 1402.00 1535.00 L 1400.00 1533.00 L 1332.00 1439.00 L 1333.00 1442.00 L 1403.00 1542.00 L 1400.00 1539.00 L 1324.00 1433.00 L 1325.00 1437.00 L 1403.00 1551.00 L 1449.00 1630.00 L 1463.00 1674.00 L 1465.00 1689.00 L 1455.00 1675.00 L 1452.00 1675.00 L 1456.00 1689.00 L 1448.00 1686.00 L 1428.00 1666.00 L 1422.00 1663.00 L 1430.00 1677.00 L 1426.00 1677.00 L 1410.00 1663.00 L 1404.00 1661.00 L 1408.00 1671.00 L 1406.00 1670.00 L 1398.00 1658.00 L 1396.00 1657.00 L 1400.00 1667.00 L 1395.00 1665.00 L 1381.00 1651.00 L 1371.00 1644.00 L 1365.00 1644.00 L 1361.00 1648.00 L 1359.00 1656.00 L 1350.00 1651.00 L 1334.00 1633.00 L 1329.00 1630.00 L 1335.00 1642.00 L 1332.00 1643.00 L 1320.00 1633.00 L 1290.00 1621.00 L 1242.00 1607.00 L 1216.00 1597.00 L 1212.00 1591.00 L 1056.00 1566.00 L 748.00 1522.00 L 584.00 1485.00 L 564.00 1455.00 L 554.00 1422.00 L 554.00 1386.00 L 561.00 1359.00 L 575.00 1341.00 L 576.00 1335.00 L 564.00 1341.00 L 565.00 1338.00 L 579.00 1326.00 L 580.00 1323.00 L 568.00 1329.00 L 566.00 1328.00 L 574.00 1320.00 L 575.00 1318.00 L 569.00 1322.00 L 567.00 1302.00 L 569.00 1258.00 L 576.00 1211.00 L 588.00 1161.00 L 586.00 1115.00 L 570.00 1073.00 L 563.00 1037.00 L 565.00 1007.00 L 566.00 989.00 L 566.00 983.00 L 569.00 958.00 Z" fill="black" stroke="black" stroke-width="1"/>
</svg>