<?xml version="1.0" encoding="UTF-8"?>
<svg xmlns="http://www.w3.org/2000/svg" viewBox="321.00 190.00 992.00 1590.00">
  <path d="M 420.00 1021.00 L 432.00 991.00 L 434.00 974.00 L 426.00 970.00 L 428.00 968.00 L 440.00 968.00 L 438.00 965.00 L 422.00 959.00 L 424.00 957.00 L 444.00 959.00 L 443.00 957.00 L 421.00 951.00 L 421.00 948.00 L 443.00 948.00 L 442.00 945.00 L 418.00 939.00 L 405.00 934.00 L 403.00 930.00 L 404.00 915.00 L 408.00 889.00 L 409.00 856.00 L 407.00 816.00 L 394.00 758.00 L 370.00 682.00 L 354.00 615.00 L 346.00 557.00 L 347.00 505.00 L 357.00 459.00 L 374.00 414.00 L 398.00 370.00 L 438.00 325.00 L 494.00 279.00 L 551.00 246.00 L 609.00 226.00 L 660.00 212.00 L 704.00 204.00 L 757.00 200.00 L 819.00 200.00 L 873.00 207.00 L 919.00 221.00 L 958.00 237.00 L 990.00 255.00 L 1019.00 277.00 L 1045.00 303.00 L 1066.00 321.00 L 1082.00 331.00 L 1098.00 346.00 L 1114.00 366.00 L 1119.00 386.00 L 1113.00 406.00 L 1114.00 408.00 L 1122.00 392.00 L 1123.00 394.00 L 1117.00 414.00 L 1118.00 416.00 L 1126.00 400.00 L 1128.00 402.00 L 1124.00 422.00 L 1126.00 425.00 L 1134.00 411.00 L 1137.00 414.00 L 1135.00 434.00 L 1138.00 437.00 L 1146.00 423.00 L 1148.00 426.00 L 1144.00 446.00 L 1146.00 449.00 L 1154.00 435.00 L 1155.00 437.00 L 1149.00 455.00 L 1150.00 457.00 L 1158.00 443.00 L 1161.00 441.00 L 1159.00 451.00 L 1161.00 453.00 L 1167.00 447.00 L 1166.00 452.00 L 1158.00 468.00 L 1159.00 470.00 L 1169.00 458.00 L 1170.00 460.00 L 1162.00 476.00 L 1169.00 519.00 L 1191.00 589.00 L 1200.00 645.00 L 1196.00 687.00 L 1200.00 721.00 L 1212.00 747.00 L 1236.00 786.00 L 1272.00 838.00 L 1288.00 874.00 L 1284.00 894.00 L 1265.00 911.00 L 1231.00 925.00 L 1228.00 928.00 L 1256.00 920.00 L 1256.00 923.00 L 1228.00 937.00 L 1216.00 955.00 L 1220.00 977.00 L 1217.00 993.00 L 1207.00 1003.00 L 1205.00 1014.00 L 1211.00 1026.00 L 1206.00 1039.00 L 1190.00 1053.00 L 1187.00 1071.00 L 1197.00 1093.00 L 1201.00 1114.00 L 1199.00 1134.00 L 1195.00 1149.00 L 1189.00 1159.00 L 1161.00 1180.00 L 1111.00 1212.00 L 1094.00 1237.00 L 1110.00 1255.00 L 1111.00 1258.00 L 1097.00 1246.00 L 1108.00 1257.00 L 1144.00 1291.00 L 1140.00 1288.00 L 1096.00 1248.00 L 1098.00 1251.00 L 1146.00 1297.00 L 1147.00 1299.00 L 1101.00 1257.00 L 1102.00 1260.00 L 1150.00 1308.00 L 1147.00 1308.00 L 1093.00 1260.00 L 1092.00 1263.00 L 1144.00 1317.00 L 1142.00 1316.00 L 1086.00 1260.00 L 1108.00 1287.00 L 1208.00 1397.00 L 1220.00 1413.00 L 1144.00 1335.00 L 1142.00 1337.00 L 1214.00 1419.00 L 1225.00 1434.00 L 1175.00 1382.00 L 1172.00 1381.00 L 1216.00 1431.00 L 1218.00 1435.00 L 1178.00 1393.00 L 1175.00 1392.00 L 1209.00 1432.00 L 1205.00 1429.00 L 1163.00 1383.00 L 1161.00 1383.00 L 1199.00 1429.00 L 1198.00 1429.00 L 1158.00 1383.00 L 1155.00 1382.00 L 1189.00 1426.00 L 1193.00 1437.00 L 1167.00 1415.00 L 1146.00 1401.00 L 1130.00 1395.00 L 1141.00 1419.00 L 1179.00 1473.00 L 1180.00 1475.00 L 1144.00 1425.00 L 1144.00 1429.00 L 1180.00 1487.00 L 1181.00 1493.00 L 1147.00 1447.00 L 1147.00 1450.00 L 1181.00 1502.00 L 1181.00 1504.00 L 1147.00 1456.00 L 1166.00 1488.00 L 1238.00 1600.00 L 1255.00 1628.00 L 1217.00 1572.00 L 1220.00 1579.00 L 1264.00 1649.00 L 1291.00 1704.00 L 1301.00 1744.00 L 1303.00 1766.00 L 1297.00 1770.00 L 1286.00 1768.00 L 1270.00 1760.00 L 1264.00 1760.00 L 1268.00 1768.00 L 1264.00 1764.00 L 1252.00 1748.00 L 1240.00 1737.00 L 1228.00 1731.00 L 1223.00 1731.00 L 1225.00 1737.00 L 1218.00 1732.00 L 1202.00 1716.00 L 1196.00 1714.00 L 1200.00 1726.00 L 1196.00 1724.00 L 1184.00 1708.00 L 1181.00 1707.00 L 1187.00 1721.00 L 1184.00 1719.00 L 1172.00 1701.00 L 1152.00 1684.00 L 1124.00 1668.00 L 1078.00 1646.00 L 1014.00 1618.00 L 960.00 1597.00 L 916.00 1583.00 L 837.00 1564.00 L 723.00 1540.00 L 614.00 1523.00 L 510.00 1513.00 L 438.00 1501.00 L 398.00 1487.00 L 367.00 1463.00 L 345.00 1429.00 L 333.00 1404.00 L 331.00 1388.00 L 332.00 1369.00 L 336.00 1347.00 L 351.00 1303.00 L 377.00 1237.00 L 387.00 1196.00 L 381.00 1180.00 L 378.00 1161.00 L 378.00 1139.00 L 387.00 1107.00 L 405.00 1065.00 L 414.00 1042.00 L 414.00 1038.00 L 420.00 1021.00 Z" fill="black" stroke="black" stroke-width="1"/>
</svg>