<?xml version="1.0" encoding="UTF-8"?>
<svg xmlns="http://www.w3.org/2000/svg" viewBox="360.00 170.00 951.00 1430.00">
  <path d="M 463.00 862.00 L 457.00 846.00 L 457.00 829.00 L 463.00 811.00 L 453.00 795.00 L 427.00 781.00 L 409.00 765.00 L 399.00 747.00 L 395.00 733.00 L 397.00 723.00 L 425.00 685.00 L 479.00 619.00 L 507.00 572.00 L 509.00 544.00 L 514.00 521.00 L 522.00 503.00 L 523.00 486.00 L 517.00 470.00 L 518.00 468.00 L 526.00 480.00 L 526.00 476.00 L 518.00 456.00 L 519.00 453.00 L 529.00 467.00 L 530.00 464.00 L 522.00 444.00 L 524.00 441.00 L 536.00 455.00 L 538.00 451.00 L 530.00 429.00 L 531.00 426.00 L 541.00 442.00 L 542.00 440.00 L 534.00 420.00 L 535.00 418.00 L 545.00 434.00 L 546.00 430.00 L 538.00 406.00 L 539.00 402.00 L 549.00 418.00 L 550.00 416.00 L 542.00 396.00 L 543.00 394.00 L 553.00 410.00 L 554.00 407.00 L 546.00 385.00 L 547.00 383.00 L 557.00 401.00 L 558.00 399.00 L 550.00 377.00 L 551.00 375.00 L 561.00 393.00 L 562.00 391.00 L 554.00 369.00 L 555.00 367.00 L 565.00 385.00 L 566.00 382.00 L 558.00 358.00 L 559.00 356.00 L 569.00 376.00 L 572.00 372.00 L 568.00 344.00 L 570.00 339.00 L 578.00 357.00 L 581.00 355.00 L 579.00 333.00 L 583.00 328.00 L 593.00 340.00 L 596.00 337.00 L 592.00 319.00 L 593.00 317.00 L 599.00 331.00 L 603.00 327.00 L 605.00 305.00 L 615.00 286.00 L 633.00 270.00 L 671.00 248.00 L 729.00 220.00 L 819.00 198.00 L 941.00 182.00 L 1022.00 180.00 L 1062.00 192.00 L 1097.00 209.00 L 1127.00 231.00 L 1170.00 272.00 L 1226.00 332.00 L 1262.00 381.00 L 1278.00 419.00 L 1291.00 478.00 L 1301.00 558.00 L 1301.00 620.00 L 1291.00 664.00 L 1270.00 723.00 L 1238.00 797.00 L 1220.00 838.00 L 1216.00 846.00 L 1205.00 851.00 L 1187.00 853.00 L 1184.00 856.00 L 1196.00 860.00 L 1195.00 863.00 L 1181.00 865.00 L 1178.00 867.00 L 1186.00 869.00 L 1187.00 872.00 L 1181.00 876.00 L 1184.00 913.00 L 1196.00 983.00 L 1201.00 1029.00 L 1199.00 1051.00 L 1192.00 1072.00 L 1180.00 1092.00 L 1177.00 1109.00 L 1183.00 1123.00 L 1190.00 1170.00 L 1198.00 1250.00 L 1199.00 1303.00 L 1193.00 1329.00 L 1183.00 1350.00 L 1169.00 1366.00 L 1154.00 1378.00 L 1138.00 1386.00 L 1068.00 1396.00 L 944.00 1408.00 L 848.00 1422.00 L 780.00 1438.00 L 654.00 1482.00 L 470.00 1554.00 L 427.00 1502.00 L 525.00 1326.00 L 523.00 1327.00 L 421.00 1505.00 L 370.00 1590.00 L 370.00 1582.00 L 419.00 1494.00 L 517.00 1326.00 L 517.00 1324.00 L 419.00 1488.00 L 418.00 1486.00 L 514.00 1318.00 L 516.00 1309.00 L 424.00 1459.00 L 421.00 1462.00 L 507.00 1318.00 L 510.00 1310.00 L 430.00 1438.00 L 430.00 1435.00 L 510.00 1301.00 L 525.00 1272.00 L 475.00 1348.00 L 473.00 1348.00 L 519.00 1272.00 L 522.00 1263.00 L 482.00 1321.00 L 480.00 1322.00 L 516.00 1266.00 L 532.00 1240.00 L 528.00 1244.00 L 530.00 1238.00 L 538.00 1222.00 L 535.00 1223.00 L 521.00 1241.00 L 512.00 1251.00 L 508.00 1253.00 L 513.00 1244.00 L 527.00 1224.00 L 525.00 1225.00 L 507.00 1247.00 L 504.00 1248.00 L 516.00 1228.00 L 515.00 1226.00 L 501.00 1242.00 L 504.00 1234.00 L 524.00 1202.00 L 527.00 1194.00 L 513.00 1210.00 L 512.00 1208.00 L 524.00 1188.00 L 522.00 1186.00 L 506.00 1202.00 L 507.00 1199.00 L 525.00 1177.00 L 531.00 1159.00 L 525.00 1145.00 L 524.00 1133.00 L 528.00 1123.00 L 528.00 1118.00 L 524.00 1118.00 L 531.00 1107.00 L 549.00 1085.00 L 548.00 1082.00 L 528.00 1098.00 L 525.00 1096.00 L 539.00 1076.00 L 536.00 1074.00 L 516.00 1090.00 L 515.00 1089.00 L 533.00 1071.00 L 532.00 1069.00 L 512.00 1083.00 L 511.00 1082.00 L 529.00 1066.00 L 526.00 1051.00 L 502.00 1037.00 L 486.00 1024.00 L 478.00 1012.00 L 473.00 999.00 L 471.00 985.00 L 475.00 967.00 L 485.00 945.00 L 483.00 925.00 L 469.00 907.00 L 463.00 893.00 L 465.00 883.00 L 466.00 876.00 L 466.00 872.00 L 463.00 862.00 Z" fill="black" stroke="black" stroke-width="1"/>
</svg>