<?xml version="1.0" encoding="UTF-8"?>
<svg xmlns="http://www.w3.org/2000/svg" viewBox="422.00 278.00 882.00 1453.00">
  <path d="M 546.00 999.00 L 546.00 993.00 L 537.00 982.00 L 519.00 966.00 L 511.00 953.00 L 513.00 943.00 L 510.00 933.00 L 502.00 923.00 L 500.00 913.00 L 504.00 903.00 L 505.00 892.00 L 503.00 880.00 L 488.00 867.00 L 460.00 853.00 L 458.00 851.00 L 482.00 861.00 L 480.00 859.00 L 452.00 845.00 L 436.00 832.00 L 432.00 820.00 L 445.00 795.00 L 475.00 757.00 L 497.00 732.00 L 511.00 720.00 L 524.00 704.00 L 536.00 684.00 L 540.00 664.00 L 536.00 644.00 L 540.00 618.00 L 552.00 586.00 L 555.00 563.00 L 549.00 549.00 L 550.00 547.00 L 558.00 557.00 L 558.00 555.00 L 550.00 541.00 L 550.00 539.00 L 558.00 549.00 L 559.00 546.00 L 553.00 530.00 L 554.00 528.00 L 562.00 540.00 L 565.00 543.00 L 563.00 537.00 L 564.00 535.00 L 568.00 537.00 L 567.00 532.00 L 561.00 520.00 L 562.00 518.00 L 570.00 526.00 L 572.00 524.00 L 568.00 512.00 L 569.00 509.00 L 575.00 515.00 L 576.00 513.00 L 572.00 503.00 L 573.00 502.00 L 579.00 510.00 L 583.00 512.00 L 585.00 508.00 L 584.00 501.00 L 580.00 491.00 L 581.00 489.00 L 587.00 495.00 L 588.00 492.00 L 584.00 480.00 L 585.00 479.00 L 591.00 489.00 L 592.00 486.00 L 588.00 470.00 L 590.00 468.00 L 598.00 480.00 L 599.00 477.00 L 593.00 459.00 L 594.00 457.00 L 602.00 471.00 L 607.00 477.00 L 609.00 475.00 L 607.00 466.00 L 601.00 450.00 L 600.00 439.00 L 604.00 433.00 L 615.00 424.00 L 633.00 412.00 L 647.00 399.00 L 657.00 385.00 L 677.00 369.00 L 707.00 351.00 L 733.00 339.00 L 755.00 333.00 L 777.00 324.00 L 799.00 312.00 L 826.00 303.00 L 858.00 297.00 L 907.00 292.00 L 973.00 288.00 L 1027.00 292.00 L 1069.00 304.00 L 1097.00 316.00 L 1111.00 328.00 L 1125.00 336.00 L 1139.00 340.00 L 1161.00 358.00 L 1191.00 390.00 L 1218.00 424.00 L 1242.00 460.00 L 1261.00 493.00 L 1275.00 523.00 L 1285.00 555.00 L 1291.00 589.00 L 1294.00 624.00 L 1294.00 660.00 L 1291.00 691.00 L 1285.00 717.00 L 1265.00 763.00 L 1231.00 829.00 L 1211.00 872.00 L 1205.00 892.00 L 1196.00 905.00 L 1184.00 911.00 L 1184.00 914.00 L 1196.00 914.00 L 1195.00 917.00 L 1181.00 923.00 L 1179.00 925.00 L 1189.00 923.00 L 1189.00 925.00 L 1179.00 931.00 L 1179.00 938.00 L 1189.00 946.00 L 1194.00 964.00 L 1194.00 992.00 L 1199.00 1032.00 L 1209.00 1084.00 L 1211.00 1122.00 L 1205.00 1146.00 L 1206.00 1167.00 L 1214.00 1185.00 L 1217.00 1202.00 L 1215.00 1218.00 L 1218.00 1236.00 L 1226.00 1256.00 L 1231.00 1283.00 L 1233.00 1317.00 L 1242.00 1353.00 L 1258.00 1391.00 L 1269.00 1426.00 L 1275.00 1458.00 L 1275.00 1476.00 L 1269.00 1480.00 L 1244.00 1478.00 L 1200.00 1470.00 L 1154.00 1466.00 L 1106.00 1466.00 L 1040.00 1473.00 L 956.00 1487.00 L 894.00 1501.00 L 854.00 1515.00 L 798.00 1541.00 L 726.00 1579.00 L 648.00 1628.00 L 564.00 1688.00 L 515.00 1719.00 L 501.00 1721.00 L 488.00 1720.00 L 476.00 1716.00 L 464.00 1703.00 L 452.00 1681.00 L 450.00 1652.00 L 458.00 1616.00 L 459.00 1602.00 L 453.00 1610.00 L 463.00 1586.00 L 489.00 1530.00 L 500.00 1504.00 L 496.00 1508.00 L 508.00 1488.00 L 536.00 1444.00 L 555.00 1405.00 L 565.00 1371.00 L 569.00 1355.00 L 567.00 1357.00 L 575.00 1345.00 L 593.00 1319.00 L 602.00 1300.00 L 602.00 1288.00 L 605.00 1275.00 L 611.00 1261.00 L 599.00 1267.00 L 569.00 1293.00 L 546.00 1309.00 L 530.00 1315.00 L 530.00 1309.00 L 546.00 1291.00 L 545.00 1290.00 L 527.00 1306.00 L 530.00 1302.00 L 554.00 1278.00 L 569.00 1259.00 L 575.00 1245.00 L 577.00 1236.00 L 575.00 1232.00 L 581.00 1223.00 L 595.00 1209.00 L 594.00 1208.00 L 578.00 1220.00 L 578.00 1217.00 L 594.00 1199.00 L 585.00 1166.00 L 551.00 1118.00 L 532.00 1085.00 L 528.00 1067.00 L 528.00 1047.00 L 532.00 1025.00 L 537.00 1011.00 L 543.00 1005.00 L 546.00 999.00 Z" fill="black" stroke="black" stroke-width="1"/>
</svg>