<?xml version="1.0" encoding="UTF-8"?>
<svg xmlns="http://www.w3.org/2000/svg" viewBox="410.00 264.00 873.00 1500.00">
  <path d="M 505.00 990.00 L 511.00 966.00 L 509.00 953.00 L 499.00 951.00 L 497.00 948.00 L 503.00 944.00 L 501.00 941.00 L 491.00 939.00 L 494.00 939.00 L 510.00 941.00 L 509.00 938.00 L 491.00 930.00 L 494.00 926.00 L 518.00 926.00 L 518.00 923.00 L 494.00 917.00 L 494.00 915.00 L 518.00 917.00 L 518.00 914.00 L 494.00 906.00 L 482.00 886.00 L 482.00 854.00 L 472.00 813.00 L 452.00 763.00 L 438.00 720.00 L 430.00 684.00 L 424.00 634.00 L 420.00 570.00 L 431.00 506.00 L 457.00 442.00 L 476.00 402.00 L 488.00 386.00 L 510.00 364.00 L 542.00 336.00 L 576.00 314.00 L 612.00 298.00 L 655.00 285.00 L 705.00 275.00 L 783.00 274.00 L 889.00 282.00 L 957.00 292.00 L 987.00 304.00 L 1028.00 329.00 L 1080.00 367.00 L 1111.00 393.00 L 1121.00 407.00 L 1125.00 422.00 L 1123.00 438.00 L 1126.00 441.00 L 1134.00 431.00 L 1135.00 433.00 L 1129.00 447.00 L 1127.00 457.00 L 1129.00 463.00 L 1134.00 459.00 L 1142.00 445.00 L 1143.00 446.00 L 1137.00 462.00 L 1138.00 465.00 L 1146.00 455.00 L 1147.00 458.00 L 1141.00 474.00 L 1143.00 475.00 L 1153.00 461.00 L 1154.00 463.00 L 1146.00 481.00 L 1148.00 481.00 L 1160.00 463.00 L 1161.00 467.00 L 1151.00 493.00 L 1153.00 494.00 L 1167.00 470.00 L 1168.00 472.00 L 1156.00 500.00 L 1158.00 501.00 L 1174.00 475.00 L 1175.00 477.00 L 1161.00 507.00 L 1164.00 509.00 L 1184.00 483.00 L 1185.00 486.00 L 1167.00 518.00 L 1168.00 520.00 L 1188.00 492.00 L 1189.00 495.00 L 1171.00 529.00 L 1173.00 532.00 L 1195.00 504.00 L 1196.00 507.00 L 1176.00 541.00 L 1176.00 544.00 L 1196.00 516.00 L 1208.00 501.00 L 1212.00 499.00 L 1214.00 500.00 L 1214.00 504.00 L 1204.00 522.00 L 1184.00 554.00 L 1186.00 553.00 L 1210.00 519.00 L 1210.00 521.00 L 1186.00 559.00 L 1176.00 588.00 L 1180.00 608.00 L 1177.00 625.00 L 1167.00 639.00 L 1166.00 642.00 L 1174.00 634.00 L 1174.00 637.00 L 1166.00 651.00 L 1165.00 664.00 L 1171.00 676.00 L 1189.00 697.00 L 1219.00 727.00 L 1245.00 759.00 L 1267.00 793.00 L 1273.00 818.00 L 1263.00 834.00 L 1245.00 850.00 L 1219.00 866.00 L 1210.00 882.00 L 1218.00 898.00 L 1217.00 911.00 L 1207.00 921.00 L 1201.00 932.00 L 1199.00 944.00 L 1193.00 956.00 L 1183.00 968.00 L 1181.00 986.00 L 1187.00 1010.00 L 1186.00 1032.00 L 1178.00 1052.00 L 1169.00 1066.00 L 1159.00 1074.00 L 1139.00 1084.00 L 1109.00 1096.00 L 1099.00 1106.00 L 1109.00 1114.00 L 1108.00 1116.00 L 1096.00 1112.00 L 1099.00 1115.00 L 1117.00 1125.00 L 1120.00 1139.00 L 1108.00 1157.00 L 1108.00 1174.00 L 1120.00 1190.00 L 1119.00 1193.00 L 1105.00 1183.00 L 1106.00 1185.00 L 1122.00 1199.00 L 1123.00 1201.00 L 1109.00 1191.00 L 1109.00 1193.00 L 1123.00 1207.00 L 1121.00 1207.00 L 1103.00 1193.00 L 1100.00 1196.00 L 1112.00 1216.00 L 1118.00 1230.00 L 1118.00 1238.00 L 1135.00 1260.00 L 1169.00 1296.00 L 1165.00 1293.00 L 1123.00 1251.00 L 1122.00 1253.00 L 1162.00 1299.00 L 1180.00 1321.00 L 1176.00 1319.00 L 1153.00 1296.00 L 1111.00 1252.00 L 1109.00 1251.00 L 1147.00 1293.00 L 1150.00 1297.00 L 1118.00 1263.00 L 1116.00 1262.00 L 1144.00 1294.00 L 1147.00 1298.00 L 1125.00 1274.00 L 1123.00 1273.00 L 1141.00 1295.00 L 1140.00 1297.00 L 1120.00 1279.00 L 1108.00 1275.00 L 1104.00 1285.00 L 1100.00 1290.00 L 1096.00 1290.00 L 1107.00 1311.00 L 1133.00 1353.00 L 1131.00 1354.00 L 1101.00 1314.00 L 1104.00 1321.00 L 1140.00 1375.00 L 1156.00 1416.00 L 1152.00 1444.00 L 1166.00 1487.00 L 1198.00 1545.00 L 1217.00 1593.00 L 1223.00 1631.00 L 1226.00 1665.00 L 1226.00 1695.00 L 1223.00 1721.00 L 1217.00 1743.00 L 1206.00 1754.00 L 1190.00 1754.00 L 1176.00 1747.00 L 1164.00 1733.00 L 1132.00 1710.00 L 1080.00 1678.00 L 1010.00 1641.00 L 922.00 1599.00 L 837.00 1567.00 L 755.00 1545.00 L 671.00 1528.00 L 585.00 1516.00 L 532.00 1506.00 L 512.00 1498.00 L 494.00 1487.00 L 478.00 1473.00 L 464.00 1452.00 L 452.00 1424.00 L 446.00 1396.00 L 446.00 1368.00 L 459.00 1305.00 L 485.00 1207.00 L 494.00 1151.00 L 486.00 1137.00 L 481.00 1122.00 L 479.00 1106.00 L 484.00 1077.00 L 496.00 1035.00 L 502.00 1011.00 L 502.00 1005.00 L 505.00 990.00 Z" fill="black" stroke="black" stroke-width="1"/>
</svg>