<?xml version="1.0" encoding="UTF-8"?>
<svg xmlns="http://www.w3.org/2000/svg" viewBox="386.00 286.00 888.00 1413.00">
  <path d="M 516.00 963.00 L 504.00 957.00 L 504.00 954.00 L 516.00 954.00 L 514.00 953.00 L 498.00 951.00 L 497.00 950.00 L 511.00 950.00 L 508.00 949.00 L 488.00 947.00 L 478.00 929.00 L 478.00 895.00 L 474.00 866.00 L 466.00 842.00 L 463.00 828.00 L 465.00 824.00 L 457.00 807.00 L 439.00 777.00 L 424.00 745.00 L 412.00 711.00 L 403.00 673.00 L 397.00 631.00 L 396.00 593.00 L 400.00 559.00 L 412.00 514.00 L 432.00 458.00 L 455.00 415.00 L 481.00 385.00 L 502.00 365.00 L 518.00 355.00 L 528.00 346.00 L 532.00 338.00 L 551.00 328.00 L 585.00 316.00 L 620.00 306.00 L 656.00 298.00 L 693.00 296.00 L 731.00 300.00 L 767.00 301.00 L 801.00 299.00 L 832.00 303.00 L 860.00 313.00 L 891.00 320.00 L 925.00 324.00 L 961.00 336.00 L 999.00 356.00 L 1034.00 378.00 L 1066.00 402.00 L 1081.00 423.00 L 1079.00 441.00 L 1081.00 443.00 L 1087.00 429.00 L 1088.00 430.00 L 1084.00 446.00 L 1085.00 448.00 L 1091.00 436.00 L 1093.00 437.00 L 1091.00 451.00 L 1093.00 453.00 L 1099.00 443.00 L 1099.00 445.00 L 1093.00 459.00 L 1092.00 466.00 L 1096.00 466.00 L 1100.00 462.00 L 1104.00 454.00 L 1104.00 456.00 L 1100.00 468.00 L 1101.00 470.00 L 1107.00 462.00 L 1108.00 465.00 L 1104.00 479.00 L 1106.00 481.00 L 1114.00 471.00 L 1115.00 473.00 L 1109.00 487.00 L 1108.00 492.00 L 1112.00 488.00 L 1113.00 489.00 L 1111.00 495.00 L 1114.00 492.00 L 1122.00 480.00 L 1123.00 482.00 L 1117.00 498.00 L 1118.00 499.00 L 1126.00 485.00 L 1128.00 484.00 L 1124.00 496.00 L 1125.00 499.00 L 1131.00 493.00 L 1130.00 497.00 L 1122.00 511.00 L 1123.00 514.00 L 1133.00 506.00 L 1134.00 509.00 L 1126.00 523.00 L 1127.00 525.00 L 1137.00 515.00 L 1138.00 518.00 L 1130.00 534.00 L 1131.00 536.00 L 1141.00 524.00 L 1142.00 526.00 L 1134.00 542.00 L 1134.00 544.00 L 1142.00 532.00 L 1143.00 536.00 L 1137.00 556.00 L 1141.00 579.00 L 1155.00 605.00 L 1162.00 630.00 L 1162.00 654.00 L 1177.00 685.00 L 1207.00 723.00 L 1233.00 764.00 L 1255.00 808.00 L 1264.00 838.00 L 1260.00 854.00 L 1244.00 866.00 L 1216.00 874.00 L 1215.00 875.00 L 1241.00 869.00 L 1240.00 870.00 L 1212.00 878.00 L 1210.00 879.00 L 1234.00 873.00 L 1234.00 875.00 L 1210.00 885.00 L 1199.00 904.00 L 1201.00 932.00 L 1199.00 950.00 L 1193.00 958.00 L 1191.00 968.00 L 1193.00 980.00 L 1190.00 993.00 L 1182.00 1007.00 L 1178.00 1019.00 L 1178.00 1029.00 L 1183.00 1047.00 L 1193.00 1073.00 L 1191.00 1096.00 L 1177.00 1116.00 L 1156.00 1130.00 L 1128.00 1138.00 L 1117.00 1146.00 L 1123.00 1154.00 L 1122.00 1166.00 L 1114.00 1182.00 L 1109.00 1202.00 L 1107.00 1226.00 L 1102.00 1246.00 L 1094.00 1262.00 L 1102.00 1287.00 L 1126.00 1321.00 L 1126.00 1323.00 L 1102.00 1293.00 L 1104.00 1296.00 L 1132.00 1332.00 L 1131.00 1331.00 L 1101.00 1293.00 L 1103.00 1298.00 L 1137.00 1346.00 L 1152.00 1384.00 L 1148.00 1412.00 L 1164.00 1462.00 L 1200.00 1534.00 L 1219.00 1589.00 L 1221.00 1627.00 L 1216.00 1656.00 L 1204.00 1676.00 L 1196.00 1687.00 L 1192.00 1689.00 L 1187.00 1685.00 L 1181.00 1675.00 L 1179.00 1675.00 L 1181.00 1685.00 L 1180.00 1687.00 L 1176.00 1681.00 L 1174.00 1681.00 L 1174.00 1687.00 L 1165.00 1687.00 L 1147.00 1681.00 L 1084.00 1645.00 L 976.00 1579.00 L 922.00 1548.00 L 922.00 1552.00 L 870.00 1538.00 L 766.00 1506.00 L 686.00 1486.00 L 630.00 1478.00 L 575.00 1473.00 L 521.00 1471.00 L 484.00 1464.00 L 464.00 1452.00 L 450.00 1440.00 L 442.00 1428.00 L 438.00 1409.00 L 438.00 1383.00 L 441.00 1363.00 L 447.00 1349.00 L 452.00 1326.00 L 456.00 1294.00 L 465.00 1263.00 L 479.00 1233.00 L 482.00 1197.00 L 474.00 1155.00 L 476.00 1103.00 L 488.00 1041.00 L 500.00 1002.00 L 512.00 986.00 L 519.00 975.00 L 521.00 969.00 L 516.00 963.00 Z" fill="black" stroke="black" stroke-width="1"/>
</svg>