<?xml version="1.0" encoding="UTF-8"?>
<svg xmlns="http://www.w3.org/2000/svg" viewBox="264.00 41.00 1080.00 1617.00">
  <path d="M 414.00 813.00 L 406.00 771.00 L 407.00 737.00 L 417.00 711.00 L 408.00 687.00 L 380.00 665.00 L 365.00 648.00 L 363.00 636.00 L 388.00 603.00 L 440.00 549.00 L 467.00 514.00 L 469.00 498.00 L 464.00 481.00 L 452.00 463.00 L 452.00 461.00 L 464.00 475.00 L 464.00 472.00 L 452.00 452.00 L 452.00 450.00 L 464.00 466.00 L 465.00 464.00 L 455.00 444.00 L 456.00 441.00 L 468.00 455.00 L 470.00 450.00 L 462.00 426.00 L 463.00 421.00 L 473.00 435.00 L 475.00 432.00 L 469.00 412.00 L 470.00 408.00 L 478.00 420.00 L 479.00 418.00 L 473.00 402.00 L 475.00 399.00 L 485.00 409.00 L 489.00 404.00 L 487.00 384.00 L 501.00 354.00 L 531.00 314.00 L 545.00 283.00 L 543.00 261.00 L 546.00 261.00 L 554.00 283.00 L 556.00 278.00 L 552.00 246.00 L 558.00 226.00 L 574.00 218.00 L 601.00 224.00 L 639.00 244.00 L 666.00 224.00 L 682.00 164.00 L 693.00 131.00 L 699.00 125.00 L 704.00 128.00 L 708.00 140.00 L 724.00 138.00 L 752.00 122.00 L 774.00 99.00 L 790.00 69.00 L 802.00 53.00 L 810.00 51.00 L 812.00 79.00 L 808.00 137.00 L 809.00 140.00 L 815.00 88.00 L 816.00 90.00 L 812.00 146.00 L 814.00 145.00 L 822.00 87.00 L 823.00 86.00 L 817.00 142.00 L 819.00 144.00 L 829.00 92.00 L 832.00 91.00 L 828.00 141.00 L 830.00 142.00 L 838.00 94.00 L 841.00 92.00 L 839.00 136.00 L 841.00 139.00 L 847.00 101.00 L 849.00 100.00 L 847.00 136.00 L 878.00 136.00 L 942.00 100.00 L 990.00 91.00 L 1022.00 109.00 L 1093.00 190.00 L 1203.00 334.00 L 1278.00 448.00 L 1318.00 532.00 L 1334.00 583.00 L 1326.00 601.00 L 1253.00 667.00 L 1115.00 781.00 L 1032.00 859.00 L 1004.00 901.00 L 990.00 965.00 L 990.00 1051.00 L 998.00 1111.00 L 1014.00 1145.00 L 1015.00 1155.00 L 1001.00 1141.00 L 1002.00 1144.00 L 1018.00 1164.00 L 1024.00 1181.00 L 1020.00 1195.00 L 1029.00 1233.00 L 1051.00 1295.00 L 1058.00 1340.00 L 1050.00 1368.00 L 962.00 1411.00 L 794.00 1469.00 L 632.00 1548.00 L 476.00 1648.00 L 448.00 1569.00 L 548.00 1311.00 L 543.00 1315.00 L 433.00 1581.00 L 435.00 1573.00 L 549.00 1291.00 L 545.00 1293.00 L 423.00 1579.00 L 424.00 1574.00 L 548.00 1278.00 L 544.00 1281.00 L 412.00 1583.00 L 413.00 1578.00 L 547.00 1266.00 L 544.00 1267.00 L 404.00 1581.00 L 385.00 1621.00 L 487.00 1387.00 L 484.00 1385.00 L 376.00 1615.00 L 373.00 1618.00 L 475.00 1394.00 L 475.00 1391.00 L 373.00 1609.00 L 394.00 1563.00 L 538.00 1253.00 L 538.00 1250.00 L 394.00 1554.00 L 395.00 1551.00 L 541.00 1241.00 L 540.00 1239.00 L 392.00 1545.00 L 392.00 1542.00 L 540.00 1230.00 L 539.00 1222.00 L 389.00 1518.00 L 356.00 1580.00 L 440.00 1408.00 L 438.00 1402.00 L 350.00 1562.00 L 383.00 1497.00 L 537.00 1207.00 L 535.00 1204.00 L 377.00 1488.00 L 336.00 1559.00 L 412.00 1417.00 L 409.00 1413.00 L 327.00 1547.00 L 367.00 1473.00 L 529.00 1191.00 L 528.00 1189.00 L 364.00 1467.00 L 364.00 1465.00 L 528.00 1183.00 L 526.00 1180.00 L 358.00 1456.00 L 305.00 1542.00 L 367.00 1438.00 L 365.00 1435.00 L 299.00 1533.00 L 292.00 1538.00 L 344.00 1450.00 L 343.00 1448.00 L 289.00 1532.00 L 286.00 1534.00 L 334.00 1454.00 L 334.00 1451.00 L 286.00 1525.00 L 348.00 1430.00 L 520.00 1166.00 L 520.00 1163.00 L 348.00 1421.00 L 282.00 1518.00 L 322.00 1454.00 L 322.00 1449.00 L 282.00 1503.00 L 276.00 1508.00 L 304.00 1464.00 L 304.00 1461.00 L 276.00 1499.00 L 274.00 1500.00 L 298.00 1464.00 L 299.00 1461.00 L 277.00 1491.00 L 274.00 1494.00 L 290.00 1470.00 L 292.00 1466.00 L 280.00 1482.00 L 277.00 1485.00 L 283.00 1475.00 L 365.00 1358.00 L 523.00 1134.00 L 597.00 1010.00 L 587.00 986.00 L 561.00 973.00 L 519.00 971.00 L 484.00 963.00 L 456.00 949.00 L 437.00 936.00 L 427.00 924.00 L 422.00 900.00 L 422.00 864.00 L 421.00 843.00 L 419.00 837.00 L 414.00 813.00 Z" fill="black" stroke="black" stroke-width="1"/>
</svg>