<?xml version="1.0" encoding="UTF-8"?>
<svg xmlns="http://www.w3.org/2000/svg" viewBox="257.00 233.00 1085.00 1504.00">
  <path d="M 444.00 1004.00 L 456.00 976.00 L 457.00 953.00 L 447.00 935.00 L 445.00 920.00 L 451.00 908.00 L 450.00 896.00 L 442.00 884.00 L 439.00 866.00 L 441.00 842.00 L 427.00 815.00 L 397.00 785.00 L 406.00 742.00 L 454.00 686.00 L 473.00 641.00 L 463.00 607.00 L 465.00 601.00 L 479.00 623.00 L 479.00 620.00 L 465.00 592.00 L 465.00 589.00 L 479.00 611.00 L 478.00 605.00 L 462.00 571.00 L 460.00 562.00 L 472.00 578.00 L 473.00 574.00 L 463.00 550.00 L 462.00 545.00 L 470.00 559.00 L 471.00 554.00 L 465.00 530.00 L 466.00 523.00 L 474.00 533.00 L 475.00 528.00 L 469.00 508.00 L 470.00 483.00 L 478.00 453.00 L 496.00 421.00 L 524.00 387.00 L 600.00 351.00 L 724.00 313.00 L 804.00 294.00 L 840.00 294.00 L 863.00 283.00 L 873.00 261.00 L 876.00 261.00 L 872.00 283.00 L 874.00 282.00 L 882.00 258.00 L 885.00 258.00 L 883.00 282.00 L 886.00 282.00 L 894.00 258.00 L 912.00 245.00 L 940.00 243.00 L 969.00 252.00 L 999.00 272.00 L 1024.00 277.00 L 1044.00 267.00 L 1063.00 279.00 L 1081.00 313.00 L 1118.00 348.00 L 1174.00 384.00 L 1228.00 431.00 L 1280.00 489.00 L 1314.00 542.00 L 1330.00 590.00 L 1332.00 656.00 L 1320.00 740.00 L 1272.00 801.00 L 1188.00 839.00 L 1186.00 842.00 L 1266.00 810.00 L 1264.00 813.00 L 1180.00 851.00 L 1175.00 856.00 L 1249.00 828.00 L 1248.00 831.00 L 1172.00 865.00 L 1125.00 898.00 L 1107.00 930.00 L 1078.00 964.00 L 1038.00 1000.00 L 1015.00 1053.00 L 1009.00 1123.00 L 1017.00 1223.00 L 1039.00 1353.00 L 1048.00 1436.00 L 1044.00 1472.00 L 1031.00 1496.00 L 1009.00 1508.00 L 932.00 1526.00 L 800.00 1550.00 L 671.00 1587.00 L 545.00 1637.00 L 515.00 1575.00 L 581.00 1401.00 L 579.00 1402.00 L 509.00 1578.00 L 510.00 1574.00 L 582.00 1390.00 L 580.00 1391.00 L 504.00 1577.00 L 506.00 1569.00 L 586.00 1367.00 L 580.00 1370.00 L 488.00 1578.00 L 488.00 1575.00 L 580.00 1361.00 L 573.00 1365.00 L 467.00 1587.00 L 467.00 1584.00 L 573.00 1356.00 L 567.00 1360.00 L 449.00 1596.00 L 449.00 1593.00 L 567.00 1351.00 L 565.00 1352.00 L 443.00 1596.00 L 416.00 1649.00 L 484.00 1511.00 L 474.00 1523.00 L 386.00 1685.00 L 413.00 1629.00 L 555.00 1355.00 L 557.00 1349.00 L 419.00 1611.00 L 386.00 1673.00 L 458.00 1535.00 L 453.00 1543.00 L 371.00 1697.00 L 369.00 1698.00 L 447.00 1546.00 L 442.00 1550.00 L 354.00 1710.00 L 351.00 1713.00 L 433.00 1559.00 L 427.00 1562.00 L 333.00 1722.00 L 371.00 1652.00 L 541.00 1352.00 L 539.00 1353.00 L 365.00 1655.00 L 323.00 1727.00 L 413.00 1569.00 L 415.00 1564.00 L 329.00 1712.00 L 327.00 1714.00 L 409.00 1570.00 L 404.00 1572.00 L 312.00 1720.00 L 356.00 1644.00 L 536.00 1344.00 L 537.00 1340.00 L 359.00 1632.00 L 310.00 1711.00 L 390.00 1577.00 L 387.00 1580.00 L 301.00 1720.00 L 298.00 1722.00 L 378.00 1586.00 L 373.00 1587.00 L 283.00 1725.00 L 335.00 1641.00 L 529.00 1335.00 L 526.00 1333.00 L 326.00 1635.00 L 267.00 1723.00 L 349.00 1597.00 L 354.00 1586.00 L 282.00 1690.00 L 279.00 1692.00 L 345.00 1592.00 L 350.00 1582.00 L 294.00 1662.00 L 356.00 1570.00 L 536.00 1306.00 L 535.00 1304.00 L 353.00 1564.00 L 285.00 1660.00 L 331.00 1592.00 L 331.00 1589.00 L 285.00 1651.00 L 282.00 1653.00 L 322.00 1595.00 L 322.00 1592.00 L 282.00 1644.00 L 278.00 1647.00 L 310.00 1601.00 L 310.00 1598.00 L 278.00 1638.00 L 275.00 1640.00 L 301.00 1604.00 L 302.00 1601.00 L 278.00 1631.00 L 268.00 1642.00 L 272.00 1634.00 L 361.00 1514.00 L 535.00 1282.00 L 536.00 1279.00 L 364.00 1505.00 L 364.00 1502.00 L 536.00 1270.00 L 616.00 1143.00 L 604.00 1121.00 L 566.00 1099.00 L 502.00 1077.00 L 462.00 1057.00 L 446.00 1039.00 L 438.00 1027.00 L 438.00 1021.00 L 444.00 1004.00 Z" fill="black" stroke="black" stroke-width="1"/>
</svg>