<?xml version="1.0" encoding="UTF-8"?>
<svg xmlns="http://www.w3.org/2000/svg" viewBox="467.00 380.00 858.00 1238.00">
  <path d="M 545.00 947.00 L 539.00 937.00 L 553.00 905.00 L 587.00 851.00 L 604.00 816.00 L 604.00 800.00 L 596.00 784.00 L 580.00 768.00 L 579.00 763.00 L 593.00 769.00 L 593.00 766.00 L 579.00 754.00 L 580.00 753.00 L 596.00 763.00 L 597.00 762.00 L 583.00 750.00 L 583.00 748.00 L 597.00 756.00 L 598.00 753.00 L 586.00 739.00 L 586.00 736.00 L 598.00 744.00 L 599.00 742.00 L 589.00 730.00 L 590.00 726.00 L 602.00 730.00 L 603.00 727.00 L 593.00 717.00 L 593.00 715.00 L 603.00 721.00 L 604.00 719.00 L 596.00 709.00 L 596.00 708.00 L 604.00 716.00 L 606.00 713.00 L 602.00 699.00 L 604.00 694.00 L 612.00 698.00 L 613.00 695.00 L 607.00 685.00 L 611.00 668.00 L 625.00 644.00 L 620.00 609.00 L 596.00 563.00 L 599.00 563.00 L 629.00 609.00 L 630.00 607.00 L 602.00 557.00 L 597.00 530.00 L 615.00 526.00 L 648.00 535.00 L 696.00 557.00 L 722.00 552.00 L 726.00 520.00 L 742.00 487.00 L 770.00 453.00 L 787.00 457.00 L 793.00 499.00 L 796.00 497.00 L 796.00 451.00 L 798.00 451.00 L 802.00 497.00 L 804.00 495.00 L 804.00 445.00 L 806.00 444.00 L 810.00 492.00 L 813.00 489.00 L 815.00 435.00 L 818.00 434.00 L 822.00 486.00 L 827.00 483.00 L 833.00 425.00 L 837.00 424.00 L 839.00 480.00 L 842.00 477.00 L 846.00 415.00 L 848.00 414.00 L 848.00 474.00 L 850.00 473.00 L 854.00 411.00 L 855.00 410.00 L 853.00 470.00 L 857.00 465.00 L 867.00 395.00 L 870.00 394.00 L 866.00 462.00 L 867.00 461.00 L 873.00 391.00 L 875.00 390.00 L 873.00 458.00 L 878.00 460.00 L 890.00 396.00 L 893.00 395.00 L 887.00 457.00 L 889.00 457.00 L 899.00 395.00 L 902.00 394.00 L 898.00 454.00 L 900.00 460.00 L 908.00 412.00 L 911.00 411.00 L 909.00 457.00 L 912.00 458.00 L 920.00 414.00 L 922.00 413.00 L 918.00 455.00 L 919.00 459.00 L 925.00 425.00 L 927.00 425.00 L 925.00 459.00 L 959.00 466.00 L 1029.00 446.00 L 1073.00 444.00 L 1091.00 460.00 L 1128.00 512.00 L 1184.00 600.00 L 1239.00 706.00 L 1293.00 830.00 L 1315.00 904.00 L 1305.00 928.00 L 1259.00 966.00 L 1177.00 1018.00 L 1122.00 1068.00 L 1094.00 1116.00 L 1079.00 1178.00 L 1077.00 1254.00 L 1081.00 1316.00 L 1091.00 1364.00 L 1090.00 1406.00 L 1078.00 1442.00 L 1013.00 1465.00 L 895.00 1475.00 L 807.00 1488.00 L 749.00 1504.00 L 730.00 1454.00 L 750.00 1338.00 L 747.00 1339.00 L 721.00 1457.00 L 721.00 1454.00 L 747.00 1330.00 L 745.00 1331.00 L 715.00 1457.00 L 715.00 1451.00 L 745.00 1313.00 L 742.00 1314.00 L 706.00 1454.00 L 706.00 1451.00 L 742.00 1305.00 L 739.00 1306.00 L 697.00 1454.00 L 696.00 1451.00 L 736.00 1297.00 L 730.00 1300.00 L 678.00 1460.00 L 677.00 1457.00 L 727.00 1291.00 L 721.00 1294.00 L 659.00 1466.00 L 658.00 1463.00 L 718.00 1285.00 L 717.00 1285.00 L 655.00 1463.00 L 638.00 1510.00 L 666.00 1426.00 L 662.00 1428.00 L 626.00 1516.00 L 642.00 1466.00 L 710.00 1278.00 L 707.00 1279.00 L 633.00 1469.00 L 612.00 1522.00 L 644.00 1438.00 L 642.00 1439.00 L 606.00 1525.00 L 604.00 1526.00 L 636.00 1442.00 L 632.00 1445.00 L 592.00 1535.00 L 590.00 1536.00 L 626.00 1448.00 L 621.00 1450.00 L 575.00 1542.00 L 597.00 1485.00 L 687.00 1279.00 L 684.00 1280.00 L 588.00 1488.00 L 558.00 1549.00 L 594.00 1463.00 L 589.00 1465.00 L 543.00 1555.00 L 571.00 1493.00 L 673.00 1279.00 L 671.00 1280.00 L 565.00 1496.00 L 533.00 1560.00 L 575.00 1472.00 L 573.00 1473.00 L 527.00 1563.00 L 501.00 1608.00 L 495.00 1608.00 L 514.00 1565.00 L 558.00 1479.00 L 553.00 1481.00 L 499.00 1571.00 L 532.00 1505.00 L 652.00 1283.00 L 654.00 1278.00 L 538.00 1490.00 L 499.00 1559.00 L 537.00 1485.00 L 532.00 1487.00 L 484.00 1565.00 L 521.00 1495.00 L 643.00 1277.00 L 644.00 1267.00 L 524.00 1465.00 L 477.00 1540.00 L 503.00 1492.00 L 503.00 1485.00 L 477.00 1519.00 L 522.00 1444.00 L 638.00 1260.00 L 639.00 1258.00 L 525.00 1438.00 L 522.00 1438.00 L 630.00 1258.00 L 662.00 1157.00 L 618.00 1135.00 L 593.00 1116.00 L 587.00 1100.00 L 589.00 1081.00 L 599.00 1059.00 L 593.00 1025.00 L 571.00 979.00 L 557.00 955.00 L 551.00 953.00 L 545.00 947.00 Z" fill="black" stroke="black" stroke-width="1"/>
</svg>