<?xml version="1.0" encoding="UTF-8"?>
<svg xmlns="http://www.w3.org/2000/svg" viewBox="298.00 174.00 1002.00 1623.00">
  <path d="M 396.00 988.00 L 384.00 976.00 L 379.00 965.00 L 381.00 955.00 L 378.00 944.00 L 370.00 932.00 L 369.00 922.00 L 375.00 914.00 L 377.00 906.00 L 375.00 898.00 L 361.00 888.00 L 335.00 876.00 L 318.00 861.00 L 310.00 843.00 L 308.00 829.00 L 312.00 819.00 L 337.00 785.00 L 383.00 727.00 L 410.00 689.00 L 418.00 671.00 L 419.00 651.00 L 413.00 629.00 L 412.00 596.00 L 416.00 552.00 L 415.00 514.00 L 409.00 482.00 L 408.00 460.00 L 412.00 448.00 L 422.00 434.00 L 438.00 418.00 L 449.00 400.00 L 455.00 380.00 L 475.00 351.00 L 509.00 313.00 L 535.00 290.00 L 553.00 282.00 L 579.00 264.00 L 613.00 236.00 L 636.00 220.00 L 648.00 216.00 L 662.00 214.00 L 678.00 214.00 L 702.00 208.00 L 734.00 196.00 L 783.00 188.00 L 849.00 184.00 L 929.00 193.00 L 1023.00 215.00 L 1093.00 246.00 L 1139.00 286.00 L 1172.00 319.00 L 1192.00 345.00 L 1220.00 394.00 L 1256.00 466.00 L 1278.00 517.00 L 1286.00 547.00 L 1290.00 589.00 L 1290.00 643.00 L 1283.00 692.00 L 1269.00 736.00 L 1249.00 781.00 L 1223.00 827.00 L 1198.00 862.00 L 1174.00 886.00 L 1152.00 902.00 L 1132.00 910.00 L 1130.00 913.00 L 1146.00 911.00 L 1147.00 913.00 L 1133.00 919.00 L 1132.00 921.00 L 1144.00 919.00 L 1145.00 921.00 L 1135.00 927.00 L 1139.00 973.00 L 1157.00 1059.00 L 1166.00 1109.00 L 1166.00 1123.00 L 1159.00 1144.00 L 1145.00 1172.00 L 1142.00 1197.00 L 1150.00 1219.00 L 1162.00 1271.00 L 1178.00 1353.00 L 1183.00 1414.00 L 1177.00 1454.00 L 1166.00 1484.00 L 1150.00 1504.00 L 1134.00 1519.00 L 1118.00 1529.00 L 1055.00 1536.00 L 945.00 1540.00 L 861.00 1547.00 L 803.00 1557.00 L 745.00 1570.00 L 687.00 1586.00 L 631.00 1605.00 L 577.00 1627.00 L 522.00 1655.00 L 466.00 1689.00 L 432.00 1710.00 L 420.00 1718.00 L 406.00 1738.00 L 390.00 1770.00 L 388.00 1772.00 L 400.00 1744.00 L 401.00 1741.00 L 391.00 1763.00 L 384.00 1775.00 L 380.00 1777.00 L 382.00 1768.00 L 390.00 1748.00 L 388.00 1751.00 L 376.00 1777.00 L 374.00 1778.00 L 382.00 1754.00 L 379.00 1756.00 L 365.00 1784.00 L 363.00 1786.00 L 373.00 1762.00 L 371.00 1761.00 L 357.00 1783.00 L 353.00 1787.00 L 359.00 1773.00 L 357.00 1766.00 L 347.00 1766.00 L 338.00 1747.00 L 330.00 1709.00 L 330.00 1665.00 L 338.00 1615.00 L 348.00 1573.00 L 360.00 1539.00 L 377.00 1506.00 L 399.00 1474.00 L 400.00 1472.00 L 380.00 1500.00 L 381.00 1498.00 L 403.00 1466.00 L 406.00 1461.00 L 390.00 1483.00 L 390.00 1480.00 L 406.00 1452.00 L 413.00 1433.00 L 411.00 1423.00 L 428.00 1394.00 L 464.00 1346.00 L 464.00 1343.00 L 428.00 1385.00 L 429.00 1381.00 L 467.00 1331.00 L 467.00 1329.00 L 429.00 1375.00 L 431.00 1372.00 L 473.00 1320.00 L 473.00 1318.00 L 431.00 1366.00 L 429.00 1366.00 L 467.00 1318.00 L 469.00 1313.00 L 435.00 1351.00 L 433.00 1351.00 L 463.00 1313.00 L 472.00 1296.00 L 460.00 1300.00 L 438.00 1313.00 L 406.00 1335.00 L 411.00 1325.00 L 453.00 1283.00 L 450.00 1285.00 L 402.00 1331.00 L 401.00 1331.00 L 447.00 1285.00 L 447.00 1282.00 L 401.00 1322.00 L 398.00 1322.00 L 438.00 1282.00 L 455.00 1261.00 L 449.00 1259.00 L 452.00 1248.00 L 464.00 1228.00 L 461.00 1225.00 L 443.00 1239.00 L 440.00 1238.00 L 452.00 1222.00 L 454.00 1217.00 L 446.00 1223.00 L 448.00 1221.00 L 460.00 1211.00 L 462.00 1208.00 L 454.00 1212.00 L 451.00 1209.00 L 453.00 1199.00 L 450.00 1189.00 L 442.00 1179.00 L 449.00 1167.00 L 471.00 1153.00 L 477.00 1146.00 L 467.00 1146.00 L 454.00 1150.00 L 438.00 1158.00 L 441.00 1156.00 L 463.00 1144.00 L 464.00 1142.00 L 444.00 1150.00 L 441.00 1149.00 L 455.00 1139.00 L 449.00 1126.00 L 423.00 1110.00 L 406.00 1096.00 L 398.00 1084.00 L 393.00 1071.00 L 391.00 1057.00 L 394.00 1039.00 L 402.00 1017.00 L 405.00 1003.00 L 403.00 997.00 L 396.00 988.00 Z" fill="black" stroke="black" stroke-width="1"/>
</svg>