<?xml version="1.0" encoding="UTF-8"?>
<svg xmlns="http://www.w3.org/2000/svg" viewBox="221.00 190.00 968.00 1609.00">
  <path d="M 267.00 936.00 L 245.00 836.00 L 233.00 745.00 L 231.00 663.00 L 238.00 586.00 L 254.00 514.00 L 288.00 441.00 L 340.00 367.00 L 405.00 305.00 L 483.00 255.00 L 562.00 220.00 L 642.00 200.00 L 719.00 200.00 L 793.00 220.00 L 867.00 253.00 L 941.00 299.00 L 996.00 342.00 L 1032.00 382.00 L 1044.00 416.00 L 1032.00 444.00 L 1032.00 447.00 L 1044.00 425.00 L 1044.00 427.00 L 1032.00 453.00 L 1033.00 456.00 L 1047.00 436.00 L 1049.00 441.00 L 1039.00 471.00 L 1041.00 473.00 L 1055.00 447.00 L 1056.00 450.00 L 1044.00 482.00 L 1046.00 485.00 L 1062.00 459.00 L 1064.00 461.00 L 1052.00 491.00 L 1054.00 496.00 L 1070.00 476.00 L 1071.00 479.00 L 1057.00 505.00 L 1056.00 508.00 L 1068.00 488.00 L 1070.00 491.00 L 1062.00 517.00 L 1065.00 523.00 L 1079.00 509.00 L 1081.00 513.00 L 1071.00 535.00 L 1072.00 540.00 L 1084.00 528.00 L 1085.00 532.00 L 1075.00 552.00 L 1075.00 555.00 L 1085.00 541.00 L 1086.00 543.00 L 1078.00 561.00 L 1077.00 566.00 L 1083.00 558.00 L 1084.00 596.00 L 1080.00 680.00 L 1104.00 767.00 L 1156.00 857.00 L 1179.00 908.00 L 1173.00 920.00 L 1155.00 933.00 L 1125.00 947.00 L 1106.00 972.00 L 1098.00 1008.00 L 1097.00 1034.00 L 1103.00 1050.00 L 1098.00 1083.00 L 1082.00 1133.00 L 1060.00 1176.00 L 1032.00 1212.00 L 1022.00 1236.00 L 1030.00 1248.00 L 1029.00 1250.00 L 1019.00 1242.00 L 1019.00 1244.00 L 1029.00 1256.00 L 1031.00 1259.00 L 1025.00 1253.00 L 1021.00 1256.00 L 1019.00 1268.00 L 1015.00 1273.00 L 1009.00 1271.00 L 1015.00 1283.00 L 1033.00 1309.00 L 1031.00 1311.00 L 1009.00 1289.00 L 1008.00 1291.00 L 1028.00 1317.00 L 1029.00 1322.00 L 1011.00 1306.00 L 1018.00 1330.00 L 1050.00 1394.00 L 1054.00 1409.00 L 1030.00 1375.00 L 1031.00 1377.00 L 1057.00 1415.00 L 1054.00 1411.00 L 1022.00 1365.00 L 1025.00 1374.00 L 1063.00 1438.00 L 1059.00 1446.00 L 1013.00 1398.00 L 987.00 1376.00 L 981.00 1380.00 L 1017.00 1464.00 L 1095.00 1628.00 L 1094.00 1632.00 L 1014.00 1476.00 L 1015.00 1479.00 L 1097.00 1641.00 L 1100.00 1649.00 L 1024.00 1503.00 L 1023.00 1508.00 L 1097.00 1664.00 L 1094.00 1661.00 L 1014.00 1499.00 L 1013.00 1502.00 L 1091.00 1670.00 L 1123.00 1764.00 L 1109.00 1784.00 L 1085.00 1789.00 L 1051.00 1779.00 L 997.00 1739.00 L 923.00 1669.00 L 848.00 1610.00 L 772.00 1562.00 L 692.00 1523.00 L 608.00 1493.00 L 507.00 1469.00 L 389.00 1451.00 L 326.00 1436.00 L 318.00 1424.00 L 314.00 1396.00 L 314.00 1352.00 L 326.00 1259.00 L 350.00 1117.00 L 348.00 1045.00 L 320.00 1043.00 L 320.00 1040.00 L 348.00 1036.00 L 346.00 1033.00 L 314.00 1031.00 L 313.00 1026.00 L 343.00 1018.00 L 341.00 1015.00 L 307.00 1017.00 L 306.00 1015.00 L 338.00 1009.00 L 336.00 1003.00 L 300.00 997.00 L 281.00 992.00 L 279.00 988.00 L 267.00 936.00 Z" fill="black" stroke="black" stroke-width="1"/>
</svg>