<?xml version="1.0" encoding="UTF-8"?>
<svg xmlns="http://www.w3.org/2000/svg" viewBox="353.00 184.00 1057.00 1417.00">
  <path d="M 379.00 793.00 L 413.00 727.00 L 419.00 681.00 L 397.00 655.00 L 396.00 646.00 L 416.00 654.00 L 415.00 649.00 L 393.00 631.00 L 393.00 627.00 L 415.00 637.00 L 415.00 634.00 L 393.00 618.00 L 393.00 616.00 L 415.00 628.00 L 415.00 625.00 L 393.00 607.00 L 392.00 600.00 L 412.00 604.00 L 412.00 599.00 L 392.00 585.00 L 392.00 582.00 L 412.00 590.00 L 412.00 587.00 L 392.00 573.00 L 392.00 570.00 L 412.00 578.00 L 413.00 575.00 L 395.00 561.00 L 395.00 559.00 L 413.00 569.00 L 415.00 563.00 L 401.00 541.00 L 401.00 535.00 L 415.00 545.00 L 417.00 542.00 L 407.00 526.00 L 408.00 522.00 L 420.00 530.00 L 420.00 528.00 L 408.00 516.00 L 408.00 514.00 L 420.00 522.00 L 422.00 516.00 L 414.00 496.00 L 416.00 490.00 L 428.00 498.00 L 429.00 496.00 L 419.00 484.00 L 421.00 479.00 L 435.00 481.00 L 437.00 476.00 L 427.00 464.00 L 429.00 462.00 L 443.00 470.00 L 446.00 466.00 L 438.00 450.00 L 456.00 425.00 L 500.00 391.00 L 574.00 353.00 L 678.00 311.00 L 802.00 282.00 L 946.00 266.00 L 1026.00 243.00 L 1042.00 213.00 L 1044.00 213.00 L 1032.00 243.00 L 1036.00 239.00 L 1056.00 201.00 L 1059.00 202.00 L 1045.00 242.00 L 1050.00 240.00 L 1074.00 196.00 L 1077.00 197.00 L 1059.00 243.00 L 1062.00 242.00 L 1086.00 194.00 L 1089.00 194.00 L 1071.00 242.00 L 1075.00 242.00 L 1101.00 194.00 L 1104.00 196.00 L 1084.00 248.00 L 1087.00 249.00 L 1113.00 199.00 L 1116.00 200.00 L 1096.00 252.00 L 1102.00 255.00 L 1134.00 209.00 L 1137.00 212.00 L 1111.00 264.00 L 1114.00 266.00 L 1146.00 218.00 L 1149.00 220.00 L 1123.00 272.00 L 1126.00 275.00 L 1158.00 229.00 L 1192.00 228.00 L 1228.00 272.00 L 1264.00 300.00 L 1300.00 312.00 L 1314.00 351.00 L 1306.00 417.00 L 1319.00 471.00 L 1353.00 513.00 L 1380.00 567.00 L 1400.00 633.00 L 1362.00 680.00 L 1266.00 708.00 L 1266.00 713.00 L 1362.00 695.00 L 1361.00 698.00 L 1263.00 722.00 L 1262.00 725.00 L 1358.00 707.00 L 1357.00 710.00 L 1259.00 734.00 L 1258.00 737.00 L 1354.00 719.00 L 1353.00 722.00 L 1255.00 746.00 L 1252.00 752.00 L 1344.00 740.00 L 1342.00 743.00 L 1246.00 761.00 L 1244.00 763.00 L 1336.00 749.00 L 1335.00 752.00 L 1241.00 772.00 L 1235.00 778.00 L 1317.00 770.00 L 1314.00 774.00 L 1226.00 790.00 L 1166.00 813.00 L 1134.00 843.00 L 1092.00 868.00 L 1040.00 888.00 L 1009.00 937.00 L 999.00 1015.00 L 1005.00 1109.00 L 1027.00 1219.00 L 964.00 1299.00 L 816.00 1349.00 L 705.00 1397.00 L 631.00 1443.00 L 613.00 1399.00 L 651.00 1265.00 L 647.00 1268.00 L 601.00 1408.00 L 600.00 1406.00 L 644.00 1262.00 L 642.00 1263.00 L 594.00 1409.00 L 594.00 1406.00 L 642.00 1254.00 L 636.00 1259.00 L 576.00 1421.00 L 575.00 1418.00 L 633.00 1250.00 L 631.00 1251.00 L 569.00 1421.00 L 569.00 1418.00 L 631.00 1242.00 L 623.00 1249.00 L 545.00 1439.00 L 544.00 1436.00 L 620.00 1240.00 L 613.00 1246.00 L 523.00 1454.00 L 522.00 1451.00 L 610.00 1237.00 L 606.00 1241.00 L 510.00 1463.00 L 510.00 1461.00 L 606.00 1235.00 L 604.00 1237.00 L 504.00 1467.00 L 450.00 1585.00 L 442.00 1591.00 L 481.00 1497.00 L 567.00 1303.00 L 562.00 1305.00 L 466.00 1503.00 L 475.00 1479.00 L 589.00 1233.00 L 586.00 1236.00 L 466.00 1488.00 L 453.00 1513.00 L 547.00 1311.00 L 540.00 1314.00 L 432.00 1522.00 L 443.00 1494.00 L 573.00 1230.00 L 568.00 1229.00 L 428.00 1491.00 L 404.00 1531.00 L 496.00 1349.00 L 495.00 1343.00 L 401.00 1513.00 L 399.00 1514.00 L 489.00 1346.00 L 489.00 1340.00 L 399.00 1496.00 L 423.00 1453.00 L 561.00 1211.00 L 562.00 1207.00 L 426.00 1441.00 L 397.00 1489.00 L 475.00 1351.00 L 475.00 1348.00 L 397.00 1480.00 L 395.00 1480.00 L 469.00 1348.00 L 470.00 1336.00 L 398.00 1444.00 L 426.00 1395.00 L 554.00 1189.00 L 555.00 1185.00 L 429.00 1383.00 L 426.00 1383.00 L 546.00 1185.00 L 568.00 1081.00 L 492.00 1071.00 L 438.00 1029.00 L 406.00 955.00 L 392.00 903.00 L 396.00 873.00 L 390.00 852.00 L 374.00 840.00 L 365.00 832.00 L 363.00 828.00 L 379.00 793.00 Z" fill="black" stroke="black" stroke-width="1"/>
</svg>