<?xml version="1.0" encoding="UTF-8"?>
<svg xmlns="http://www.w3.org/2000/svg" viewBox="219.00 34.00 1147.00 1744.00">
  <path d="M 445.00 888.00 L 451.00 884.00 L 452.00 874.00 L 448.00 858.00 L 397.00 760.00 L 299.00 580.00 L 243.00 472.00 L 229.00 436.00 L 229.00 410.00 L 243.00 394.00 L 309.00 345.00 L 427.00 263.00 L 540.00 195.00 L 648.00 141.00 L 702.00 108.00 L 702.00 96.00 L 704.00 95.00 L 708.00 105.00 L 710.00 101.00 L 710.00 83.00 L 712.00 81.00 L 716.00 95.00 L 718.00 98.00 L 718.00 90.00 L 721.00 89.00 L 727.00 95.00 L 744.00 94.00 L 772.00 86.00 L 793.00 75.00 L 807.00 61.00 L 814.00 58.00 L 814.00 66.00 L 817.00 63.00 L 823.00 49.00 L 826.00 50.00 L 826.00 66.00 L 828.00 64.00 L 832.00 44.00 L 836.00 47.00 L 840.00 73.00 L 913.00 200.00 L 1055.00 428.00 L 1142.00 545.00 L 1174.00 551.00 L 1170.00 573.00 L 1130.00 611.00 L 1134.00 611.00 L 1182.00 573.00 L 1183.00 575.00 L 1137.00 617.00 L 1140.00 618.00 L 1192.00 578.00 L 1192.00 581.00 L 1140.00 627.00 L 1143.00 628.00 L 1201.00 584.00 L 1201.00 586.00 L 1143.00 634.00 L 1146.00 635.00 L 1210.00 589.00 L 1211.00 592.00 L 1149.00 644.00 L 1153.00 645.00 L 1223.00 595.00 L 1225.00 594.00 L 1159.00 642.00 L 1163.00 643.00 L 1237.00 597.00 L 1236.00 602.00 L 1160.00 658.00 L 1163.00 659.00 L 1245.00 605.00 L 1249.00 604.00 L 1175.00 656.00 L 1178.00 657.00 L 1258.00 607.00 L 1255.00 611.00 L 1169.00 669.00 L 1172.00 670.00 L 1264.00 614.00 L 1268.00 612.00 L 1184.00 664.00 L 1187.00 665.00 L 1277.00 615.00 L 1273.00 620.00 L 1175.00 680.00 L 1177.00 681.00 L 1279.00 623.00 L 1286.00 620.00 L 1198.00 672.00 L 1201.00 673.00 L 1295.00 623.00 L 1288.00 628.00 L 1180.00 688.00 L 1182.00 690.00 L 1294.00 634.00 L 1294.00 637.00 L 1182.00 699.00 L 1184.00 701.00 L 1300.00 643.00 L 1350.00 619.00 L 1334.00 629.00 L 1336.00 631.00 L 1356.00 625.00 L 1306.00 652.00 L 1186.00 712.00 L 1127.00 750.00 L 1129.00 766.00 L 1152.00 808.00 L 1196.00 876.00 L 1214.00 916.00 L 1206.00 928.00 L 1188.00 938.00 L 1160.00 946.00 L 1145.00 975.00 L 1143.00 1025.00 L 1136.00 1059.00 L 1124.00 1077.00 L 1124.00 1098.00 L 1136.00 1122.00 L 1141.00 1143.00 L 1139.00 1161.00 L 1125.00 1175.00 L 1099.00 1185.00 L 1088.00 1194.00 L 1092.00 1202.00 L 1078.00 1228.00 L 1046.00 1272.00 L 1052.00 1343.00 L 1096.00 1441.00 L 1096.00 1448.00 L 1052.00 1364.00 L 1055.00 1371.00 L 1105.00 1469.00 L 1102.00 1464.00 L 1046.00 1356.00 L 1045.00 1355.00 L 1099.00 1461.00 L 1119.00 1501.00 L 1105.00 1475.00 L 1106.00 1478.00 L 1122.00 1510.00 L 1103.00 1474.00 L 1049.00 1370.00 L 1063.00 1409.00 L 1145.00 1591.00 L 1174.00 1658.00 L 1150.00 1610.00 L 1151.00 1616.00 L 1177.00 1676.00 L 1192.00 1715.00 L 1196.00 1733.00 L 1197.00 1740.00 L 1195.00 1736.00 L 1192.00 1743.00 L 1188.00 1761.00 L 1177.00 1768.00 L 1159.00 1764.00 L 1071.00 1721.00 L 913.00 1639.00 L 794.00 1587.00 L 714.00 1565.00 L 615.00 1546.00 L 497.00 1530.00 L 424.00 1514.00 L 396.00 1498.00 L 379.00 1475.00 L 373.00 1445.00 L 386.00 1383.00 L 418.00 1289.00 L 432.00 1228.00 L 428.00 1200.00 L 435.00 1161.00 L 453.00 1111.00 L 454.00 1090.00 L 438.00 1098.00 L 439.00 1096.00 L 457.00 1084.00 L 456.00 1082.00 L 436.00 1090.00 L 437.00 1086.00 L 459.00 1070.00 L 458.00 1067.00 L 434.00 1077.00 L 435.00 1074.00 L 461.00 1058.00 L 461.00 1055.00 L 435.00 1065.00 L 436.00 1061.00 L 464.00 1043.00 L 464.00 1040.00 L 436.00 1052.00 L 437.00 1050.00 L 467.00 1034.00 L 468.00 1031.00 L 440.00 1041.00 L 437.00 1040.00 L 459.00 1028.00 L 460.00 1025.00 L 440.00 1031.00 L 438.00 1030.00 L 454.00 1022.00 L 455.00 1020.00 L 441.00 1024.00 L 436.00 1021.00 L 440.00 1011.00 L 434.00 1007.00 L 418.00 1009.00 L 415.00 1007.00 L 425.00 1001.00 L 422.00 1000.00 L 406.00 1004.00 L 402.00 997.00 L 410.00 979.00 L 428.00 955.00 L 456.00 925.00 L 465.00 909.00 L 455.00 907.00 L 455.00 905.00 L 465.00 903.00 L 468.00 901.00 L 464.00 899.00 L 456.00 898.00 L 444.00 898.00 L 439.00 896.00 L 441.00 892.00 L 445.00 888.00 Z" fill="black" stroke="black" stroke-width="1"/>
</svg>