<?xml version="1.0" encoding="UTF-8"?>
<svg xmlns="http://www.w3.org/2000/svg" viewBox="370.00 150.00 921.00 1546.00">
  <path d="M 472.00 896.00 L 476.00 884.00 L 470.00 865.00 L 454.00 839.00 L 449.00 822.00 L 455.00 814.00 L 455.00 804.00 L 449.00 792.00 L 451.00 773.00 L 461.00 747.00 L 451.00 724.00 L 421.00 704.00 L 417.00 699.00 L 439.00 709.00 L 438.00 707.00 L 414.00 693.00 L 416.00 694.00 L 444.00 710.00 L 444.00 707.00 L 416.00 685.00 L 421.00 647.00 L 459.00 593.00 L 488.00 555.00 L 508.00 533.00 L 519.00 504.00 L 521.00 468.00 L 531.00 431.00 L 549.00 393.00 L 554.00 362.00 L 546.00 338.00 L 547.00 336.00 L 557.00 356.00 L 558.00 354.00 L 550.00 330.00 L 551.00 329.00 L 561.00 351.00 L 563.00 349.00 L 557.00 323.00 L 559.00 320.00 L 569.00 340.00 L 571.00 339.00 L 565.00 317.00 L 566.00 315.00 L 574.00 333.00 L 579.00 338.00 L 581.00 330.00 L 580.00 320.00 L 576.00 308.00 L 577.00 310.00 L 583.00 326.00 L 585.00 325.00 L 583.00 307.00 L 585.00 305.00 L 591.00 319.00 L 593.00 316.00 L 591.00 296.00 L 608.00 271.00 L 644.00 241.00 L 678.00 218.00 L 710.00 202.00 L 766.00 185.00 L 846.00 167.00 L 909.00 160.00 L 955.00 164.00 L 996.00 173.00 L 1032.00 187.00 L 1061.00 196.00 L 1083.00 200.00 L 1102.00 206.00 L 1118.00 214.00 L 1147.00 238.00 L 1189.00 278.00 L 1227.00 334.00 L 1261.00 406.00 L 1279.00 462.00 L 1281.00 502.00 L 1281.00 529.00 L 1279.00 543.00 L 1266.00 578.00 L 1242.00 634.00 L 1218.00 706.00 L 1194.00 794.00 L 1171.00 843.00 L 1149.00 853.00 L 1146.00 857.00 L 1162.00 855.00 L 1165.00 855.00 L 1155.00 857.00 L 1153.00 858.00 L 1159.00 858.00 L 1157.00 861.00 L 1147.00 867.00 L 1146.00 880.00 L 1154.00 900.00 L 1157.00 929.00 L 1155.00 967.00 L 1156.00 1002.00 L 1160.00 1034.00 L 1155.00 1072.00 L 1141.00 1116.00 L 1137.00 1165.00 L 1143.00 1219.00 L 1146.00 1261.00 L 1146.00 1291.00 L 1143.00 1314.00 L 1137.00 1330.00 L 1128.00 1342.00 L 1116.00 1350.00 L 1066.00 1363.00 L 978.00 1381.00 L 899.00 1404.00 L 829.00 1432.00 L 755.00 1470.00 L 677.00 1518.00 L 601.00 1574.00 L 527.00 1638.00 L 482.00 1674.00 L 466.00 1682.00 L 449.00 1686.00 L 431.00 1686.00 L 413.00 1680.00 L 395.00 1668.00 L 384.00 1655.00 L 380.00 1641.00 L 407.00 1579.00 L 465.00 1469.00 L 464.00 1468.00 L 404.00 1576.00 L 405.00 1573.00 L 467.00 1459.00 L 467.00 1456.00 L 405.00 1564.00 L 405.00 1563.00 L 467.00 1453.00 L 467.00 1450.00 L 405.00 1554.00 L 395.00 1569.00 L 437.00 1495.00 L 437.00 1493.00 L 395.00 1563.00 L 404.00 1546.00 L 464.00 1442.00 L 464.00 1440.00 L 404.00 1540.00 L 391.00 1561.00 L 425.00 1503.00 L 426.00 1501.00 L 394.00 1555.00 L 393.00 1556.00 L 423.00 1504.00 L 423.00 1502.00 L 393.00 1550.00 L 407.00 1523.00 L 465.00 1421.00 L 472.00 1406.00 L 428.00 1478.00 L 453.00 1437.00 L 547.00 1283.00 L 569.00 1244.00 L 519.00 1320.00 L 515.00 1324.00 L 557.00 1256.00 L 557.00 1254.00 L 515.00 1318.00 L 518.00 1312.00 L 566.00 1236.00 L 568.00 1231.00 L 524.00 1297.00 L 523.00 1295.00 L 565.00 1225.00 L 588.00 1183.00 L 592.00 1169.00 L 574.00 1176.00 L 534.00 1204.00 L 524.00 1203.00 L 544.00 1173.00 L 550.00 1162.00 L 542.00 1170.00 L 543.00 1167.00 L 553.00 1153.00 L 557.00 1140.00 L 555.00 1128.00 L 556.00 1119.00 L 560.00 1113.00 L 544.00 1088.00 L 508.00 1044.00 L 490.00 1019.00 L 490.00 1013.00 L 494.00 1006.00 L 502.00 998.00 L 497.00 986.00 L 479.00 970.00 L 468.00 956.00 L 464.00 944.00 L 463.00 932.00 L 465.00 920.00 L 467.00 911.00 L 469.00 905.00 L 472.00 896.00 Z" fill="black" stroke="black" stroke-width="1"/>
</svg>