<?xml version="1.0" encoding="UTF-8"?>
<svg xmlns="http://www.w3.org/2000/svg" viewBox="347.00 310.00 782.00 1397.00">
  <path d="M 471.00 994.00 L 505.00 994.00 L 504.00 991.00 L 468.00 985.00 L 426.00 902.00 L 378.00 742.00 L 357.00 632.00 L 363.00 572.00 L 387.00 510.00 L 429.00 446.00 L 467.00 403.00 L 501.00 381.00 L 551.00 359.00 L 617.00 337.00 L 679.00 324.00 L 737.00 320.00 L 802.00 329.00 L 874.00 351.00 L 937.00 382.00 L 991.00 422.00 L 1038.00 473.00 L 1078.00 535.00 L 1093.00 573.00 L 1083.00 587.00 L 1084.00 589.00 L 1096.00 579.00 L 1097.00 581.00 L 1087.00 595.00 L 1088.00 597.00 L 1100.00 587.00 L 1101.00 589.00 L 1091.00 603.00 L 1093.00 605.00 L 1107.00 595.00 L 1109.00 600.00 L 1099.00 620.00 L 1101.00 623.00 L 1115.00 609.00 L 1116.00 613.00 L 1104.00 635.00 L 1105.00 641.00 L 1119.00 631.00 L 1119.00 635.00 L 1105.00 653.00 L 1105.00 657.00 L 1119.00 647.00 L 1119.00 650.00 L 1105.00 666.00 L 1105.00 669.00 L 1119.00 659.00 L 1119.00 662.00 L 1105.00 678.00 L 1105.00 680.00 L 1119.00 668.00 L 1110.00 696.00 L 1078.00 764.00 L 1076.00 833.00 L 1104.00 903.00 L 1108.00 946.00 L 1088.00 962.00 L 1079.00 990.00 L 1081.00 1030.00 L 1074.00 1054.00 L 1058.00 1062.00 L 1052.00 1070.00 L 1056.00 1078.00 L 1047.00 1105.00 L 1025.00 1151.00 L 999.00 1183.00 L 969.00 1201.00 L 933.00 1210.00 L 891.00 1210.00 L 897.00 1269.00 L 951.00 1387.00 L 949.00 1386.00 L 891.00 1266.00 L 889.00 1272.00 L 943.00 1404.00 L 941.00 1403.00 L 883.00 1269.00 L 886.00 1277.00 L 950.00 1427.00 L 983.00 1505.00 L 985.00 1511.00 L 982.00 1506.00 L 974.00 1490.00 L 974.00 1492.00 L 982.00 1512.00 L 968.00 1481.00 L 932.00 1399.00 L 932.00 1402.00 L 968.00 1490.00 L 966.00 1487.00 L 926.00 1393.00 L 926.00 1396.00 L 966.00 1496.00 L 965.00 1495.00 L 923.00 1393.00 L 923.00 1396.00 L 965.00 1504.00 L 964.00 1503.00 L 920.00 1393.00 L 920.00 1395.00 L 964.00 1509.00 L 950.00 1474.00 L 878.00 1290.00 L 877.00 1293.00 L 947.00 1483.00 L 982.00 1583.00 L 982.00 1593.00 L 958.00 1532.00 L 910.00 1400.00 L 910.00 1405.00 L 958.00 1547.00 L 945.00 1512.00 L 871.00 1300.00 L 871.00 1308.00 L 945.00 1536.00 L 944.00 1536.00 L 868.00 1308.00 L 868.00 1311.00 L 944.00 1545.00 L 954.00 1578.00 L 898.00 1410.00 L 897.00 1415.00 L 951.00 1593.00 L 976.00 1687.00 L 972.00 1697.00 L 941.00 1603.00 L 883.00 1405.00 L 881.00 1408.00 L 935.00 1612.00 L 926.00 1584.00 L 854.00 1324.00 L 852.00 1323.00 L 920.00 1581.00 L 922.00 1593.00 L 858.00 1359.00 L 853.00 1355.00 L 907.00 1581.00 L 906.00 1580.00 L 850.00 1352.00 L 847.00 1349.00 L 897.00 1571.00 L 894.00 1560.00 L 838.00 1316.00 L 836.00 1314.00 L 888.00 1554.00 L 891.00 1570.00 L 845.00 1362.00 L 844.00 1361.00 L 888.00 1567.00 L 889.00 1574.00 L 847.00 1382.00 L 843.00 1378.00 L 877.00 1562.00 L 873.00 1548.00 L 831.00 1336.00 L 830.00 1335.00 L 870.00 1545.00 L 871.00 1554.00 L 833.00 1362.00 L 831.00 1360.00 L 865.00 1548.00 L 865.00 1553.00 L 831.00 1375.00 L 828.00 1372.00 L 856.00 1544.00 L 852.00 1521.00 L 816.00 1303.00 L 814.00 1301.00 L 846.00 1515.00 L 848.00 1535.00 L 820.00 1361.00 L 815.00 1357.00 L 833.00 1523.00 L 830.00 1512.00 L 806.00 1324.00 L 805.00 1323.00 L 827.00 1509.00 L 835.00 1599.00 L 829.00 1593.00 L 816.00 1492.00 L 796.00 1296.00 L 795.00 1295.00 L 813.00 1489.00 L 812.00 1497.00 L 792.00 1319.00 L 787.00 1315.00 L 797.00 1485.00 L 796.00 1478.00 L 784.00 1294.00 L 781.00 1292.00 L 787.00 1472.00 L 785.00 1474.00 L 775.00 1298.00 L 770.00 1293.00 L 770.00 1459.00 L 769.00 1460.00 L 767.00 1296.00 L 765.00 1295.00 L 763.00 1457.00 L 762.00 1459.00 L 762.00 1301.00 L 758.00 1298.00 L 750.00 1450.00 L 670.00 1484.00 L 518.00 1400.00 L 442.00 1335.00 L 442.00 1289.00 L 449.00 1256.00 L 463.00 1236.00 L 484.00 1182.00 L 512.00 1094.00 L 519.00 1050.00 L 505.00 1050.00 L 505.00 1047.00 L 519.00 1041.00 L 516.00 1039.00 L 496.00 1041.00 L 496.00 1039.00 L 516.00 1033.00 L 513.00 1030.00 L 487.00 1030.00 L 487.00 1027.00 L 513.00 1021.00 L 510.00 1018.00 L 478.00 1018.00 L 478.00 1016.00 L 510.00 1012.00 L 509.00 1009.00 L 475.00 1007.00 L 475.00 1005.00 L 509.00 1003.00 L 508.00 1002.00 L 472.00 1002.00 L 454.00 1000.00 L 454.00 996.00 L 471.00 994.00 Z" fill="black" stroke="black" stroke-width="1"/>
</svg>