<?xml version="1.0" encoding="UTF-8"?>
<svg xmlns="http://www.w3.org/2000/svg" viewBox="263.00 232.00 1000.00 1404.00">
  <path d="M 343.00 965.00 L 329.00 955.00 L 327.00 941.00 L 337.00 923.00 L 335.00 908.00 L 321.00 896.00 L 318.00 875.00 L 326.00 845.00 L 318.00 820.00 L 294.00 800.00 L 279.00 780.00 L 273.00 760.00 L 305.00 716.00 L 375.00 648.00 L 414.00 590.00 L 422.00 542.00 L 422.00 510.00 L 414.00 494.00 L 415.00 492.00 L 425.00 504.00 L 426.00 502.00 L 418.00 486.00 L 419.00 483.00 L 429.00 493.00 L 430.00 490.00 L 422.00 474.00 L 423.00 472.00 L 433.00 484.00 L 434.00 481.00 L 426.00 463.00 L 425.00 457.00 L 431.00 463.00 L 432.00 461.00 L 428.00 451.00 L 431.00 455.00 L 441.00 473.00 L 443.00 471.00 L 437.00 449.00 L 439.00 446.00 L 449.00 462.00 L 451.00 460.00 L 445.00 440.00 L 447.00 438.00 L 457.00 454.00 L 459.00 452.00 L 453.00 432.00 L 455.00 429.00 L 465.00 443.00 L 467.00 440.00 L 461.00 420.00 L 462.00 417.00 L 470.00 431.00 L 472.00 428.00 L 468.00 408.00 L 470.00 405.00 L 478.00 419.00 L 480.00 416.00 L 476.00 396.00 L 479.00 375.00 L 489.00 353.00 L 515.00 323.00 L 557.00 285.00 L 601.00 260.00 L 647.00 248.00 L 736.00 242.00 L 868.00 242.00 L 953.00 248.00 L 991.00 260.00 L 1013.00 263.00 L 1019.00 257.00 L 1045.00 266.00 L 1091.00 290.00 L 1127.00 316.00 L 1153.00 344.00 L 1182.00 390.00 L 1214.00 454.00 L 1237.00 521.00 L 1251.00 591.00 L 1253.00 648.00 L 1243.00 692.00 L 1230.00 730.00 L 1214.00 762.00 L 1178.00 817.00 L 1122.00 895.00 L 1092.00 948.00 L 1088.00 976.00 L 1089.00 1002.00 L 1095.00 1026.00 L 1084.00 1037.00 L 1056.00 1035.00 L 1057.00 1038.00 L 1087.00 1046.00 L 1102.00 1052.00 L 1102.00 1056.00 L 1087.00 1055.00 L 1057.00 1049.00 L 1057.00 1052.00 L 1087.00 1064.00 L 1087.00 1067.00 L 1057.00 1061.00 L 1057.00 1063.00 L 1087.00 1073.00 L 1087.00 1075.00 L 1057.00 1069.00 L 1055.00 1072.00 L 1081.00 1084.00 L 1082.00 1087.00 L 1058.00 1081.00 L 1055.00 1082.00 L 1073.00 1090.00 L 1073.00 1092.00 L 1055.00 1088.00 L 1053.00 1097.00 L 1067.00 1119.00 L 1079.00 1154.00 L 1089.00 1202.00 L 1093.00 1233.00 L 1091.00 1247.00 L 1083.00 1265.00 L 1069.00 1287.00 L 1066.00 1330.00 L 1074.00 1394.00 L 1073.00 1437.00 L 1063.00 1459.00 L 1048.00 1474.00 L 1028.00 1482.00 L 972.00 1490.00 L 880.00 1498.00 L 807.00 1508.00 L 753.00 1520.00 L 656.00 1555.00 L 516.00 1613.00 L 411.00 1626.00 L 341.00 1594.00 L 343.00 1519.00 L 417.00 1401.00 L 415.00 1398.00 L 337.00 1510.00 L 331.00 1517.00 L 397.00 1419.00 L 396.00 1417.00 L 328.00 1511.00 L 331.00 1505.00 L 405.00 1399.00 L 404.00 1398.00 L 328.00 1502.00 L 326.00 1503.00 L 398.00 1401.00 L 399.00 1399.00 L 329.00 1497.00 L 326.00 1497.00 L 390.00 1399.00 L 399.00 1379.00 L 353.00 1437.00 L 349.00 1438.00 L 387.00 1382.00 L 396.00 1359.00 L 376.00 1369.00 L 387.00 1349.00 L 429.00 1299.00 L 426.00 1302.00 L 378.00 1358.00 L 379.00 1356.00 L 429.00 1296.00 L 418.00 1304.00 L 346.00 1380.00 L 346.00 1377.00 L 418.00 1295.00 L 417.00 1293.00 L 343.00 1371.00 L 336.00 1374.00 L 396.00 1302.00 L 411.00 1281.00 L 381.00 1311.00 L 386.00 1305.00 L 426.00 1263.00 L 425.00 1262.00 L 383.00 1302.00 L 382.00 1301.00 L 422.00 1259.00 L 422.00 1255.00 L 382.00 1289.00 L 382.00 1286.00 L 422.00 1246.00 L 423.00 1244.00 L 385.00 1280.00 L 383.00 1277.00 L 417.00 1235.00 L 427.00 1200.00 L 413.00 1172.00 L 408.00 1152.00 L 412.00 1140.00 L 405.00 1129.00 L 387.00 1119.00 L 370.00 1100.00 L 354.00 1072.00 L 349.00 1038.00 L 355.00 998.00 L 356.00 976.00 L 352.00 972.00 L 343.00 965.00 Z" fill="black" stroke="black" stroke-width="1"/>
</svg>