<?xml version="1.0" encoding="UTF-8"?>
<svg xmlns="http://www.w3.org/2000/svg" viewBox="257.00 189.00 1056.00 1667.00">
  <path d="M 311.00 1010.00 L 377.00 1010.00 L 380.00 1006.00 L 320.00 998.00 L 320.00 995.00 L 380.00 997.00 L 381.00 994.00 L 323.00 986.00 L 322.00 983.00 L 378.00 985.00 L 380.00 983.00 L 328.00 977.00 L 303.00 972.00 L 305.00 968.00 L 330.00 967.00 L 378.00 969.00 L 379.00 966.00 L 333.00 958.00 L 325.00 938.00 L 355.00 906.00 L 372.00 882.00 L 376.00 866.00 L 350.00 768.00 L 294.00 588.00 L 267.00 486.00 L 269.00 462.00 L 293.00 434.00 L 339.00 402.00 L 460.00 349.00 L 656.00 275.00 L 784.00 229.00 L 844.00 211.00 L 884.00 201.00 L 904.00 199.00 L 923.00 202.00 L 941.00 210.00 L 956.00 223.00 L 968.00 241.00 L 991.00 308.00 L 1025.00 424.00 L 1056.00 513.00 L 1084.00 575.00 L 1125.00 618.00 L 1179.00 642.00 L 1187.00 672.00 L 1149.00 708.00 L 1152.00 709.00 L 1196.00 675.00 L 1201.00 673.00 L 1167.00 703.00 L 1169.00 704.00 L 1207.00 676.00 L 1204.00 681.00 L 1160.00 719.00 L 1163.00 720.00 L 1213.00 684.00 L 1214.00 686.00 L 1166.00 726.00 L 1169.00 727.00 L 1223.00 689.00 L 1223.00 691.00 L 1169.00 733.00 L 1171.00 734.00 L 1229.00 694.00 L 1244.00 686.00 L 1216.00 710.00 L 1219.00 711.00 L 1253.00 689.00 L 1239.00 701.00 L 1177.00 747.00 L 1181.00 749.00 L 1251.00 707.00 L 1251.00 710.00 L 1181.00 758.00 L 1185.00 760.00 L 1263.00 716.00 L 1265.00 719.00 L 1191.00 769.00 L 1193.00 771.00 L 1271.00 725.00 L 1303.00 707.00 L 1289.00 717.00 L 1288.00 720.00 L 1300.00 716.00 L 1262.00 742.00 L 1174.00 798.00 L 1131.00 834.00 L 1133.00 850.00 L 1152.00 886.00 L 1188.00 942.00 L 1206.00 974.00 L 1206.00 982.00 L 1202.00 993.00 L 1194.00 1007.00 L 1176.00 1019.00 L 1148.00 1029.00 L 1135.00 1047.00 L 1137.00 1073.00 L 1129.00 1105.00 L 1111.00 1143.00 L 1105.00 1179.00 L 1111.00 1213.00 L 1109.00 1238.00 L 1099.00 1254.00 L 1082.00 1267.00 L 1058.00 1277.00 L 1048.00 1287.00 L 1052.00 1297.00 L 1049.00 1307.00 L 1039.00 1317.00 L 1043.00 1336.00 L 1061.00 1364.00 L 1061.00 1367.00 L 1043.00 1345.00 L 1043.00 1347.00 L 1061.00 1373.00 L 1060.00 1375.00 L 1040.00 1353.00 L 1038.00 1355.00 L 1054.00 1381.00 L 1053.00 1382.00 L 1035.00 1358.00 L 1032.00 1359.00 L 1044.00 1385.00 L 1043.00 1388.00 L 1029.00 1368.00 L 1021.00 1361.00 L 1019.00 1367.00 L 1023.00 1378.00 L 1033.00 1394.00 L 1030.00 1400.00 L 1014.00 1396.00 L 1008.00 1403.00 L 1012.00 1421.00 L 1008.00 1422.00 L 996.00 1406.00 L 1011.00 1446.00 L 1053.00 1542.00 L 1059.00 1562.00 L 1029.00 1506.00 L 1030.00 1510.00 L 1062.00 1574.00 L 1057.00 1564.00 L 1015.00 1480.00 L 1027.00 1508.00 L 1093.00 1648.00 L 1092.00 1649.00 L 1024.00 1511.00 L 1027.00 1519.00 L 1101.00 1673.00 L 1102.00 1676.00 L 1030.00 1528.00 L 1032.00 1533.00 L 1108.00 1691.00 L 1116.00 1709.00 L 1056.00 1587.00 L 1057.00 1591.00 L 1119.00 1721.00 L 1149.00 1784.00 L 1147.00 1780.00 L 1148.00 1789.00 L 1152.00 1811.00 L 1151.00 1828.00 L 1145.00 1840.00 L 1136.00 1846.00 L 1124.00 1846.00 L 1108.00 1840.00 L 1088.00 1828.00 L 1036.00 1793.00 L 952.00 1735.00 L 854.00 1681.00 L 742.00 1631.00 L 631.00 1589.00 L 521.00 1555.00 L 433.00 1534.00 L 367.00 1526.00 L 342.00 1486.00 L 358.00 1414.00 L 374.00 1364.00 L 390.00 1336.00 L 400.00 1309.00 L 404.00 1283.00 L 403.00 1261.00 L 397.00 1243.00 L 399.00 1195.00 L 409.00 1117.00 L 417.00 1072.00 L 423.00 1060.00 L 389.00 1057.00 L 315.00 1063.00 L 281.00 1064.00 L 287.00 1060.00 L 285.00 1058.00 L 275.00 1058.00 L 310.00 1054.00 L 390.00 1046.00 L 397.00 1044.00 L 331.00 1048.00 L 291.00 1048.00 L 277.00 1044.00 L 309.00 1038.00 L 387.00 1030.00 L 387.00 1027.00 L 309.00 1029.00 L 285.00 1028.00 L 315.00 1024.00 L 316.00 1022.00 L 288.00 1022.00 L 310.00 1021.00 L 382.00 1019.00 L 398.00 1018.00 L 358.00 1018.00 L 323.00 1016.00 L 293.00 1012.00 L 311.00 1010.00 Z" fill="black" stroke="black" stroke-width="1"/>
</svg>