<?xml version="1.0" encoding="UTF-8"?>
<svg xmlns="http://www.w3.org/2000/svg" viewBox="432.00 221.00 843.00 1483.00">
  <path d="M 536.00 977.00 L 540.00 967.00 L 541.00 954.00 L 539.00 938.00 L 536.00 926.00 L 532.00 918.00 L 530.00 911.00 L 530.00 905.00 L 533.00 899.00 L 539.00 893.00 L 540.00 886.00 L 536.00 878.00 L 535.00 869.00 L 537.00 859.00 L 537.00 851.00 L 535.00 845.00 L 522.00 833.00 L 498.00 815.00 L 499.00 812.00 L 525.00 824.00 L 522.00 821.00 L 490.00 803.00 L 490.00 801.00 L 522.00 815.00 L 522.00 813.00 L 490.00 795.00 L 486.00 792.00 L 510.00 804.00 L 527.00 811.00 L 537.00 813.00 L 524.00 804.00 L 488.00 784.00 L 488.00 782.00 L 524.00 798.00 L 525.00 795.00 L 491.00 773.00 L 482.00 745.00 L 498.00 711.00 L 515.00 680.00 L 533.00 652.00 L 544.00 632.00 L 548.00 620.00 L 548.00 604.00 L 544.00 584.00 L 553.00 537.00 L 575.00 463.00 L 596.00 411.00 L 616.00 381.00 L 634.00 359.00 L 650.00 345.00 L 659.00 332.00 L 661.00 320.00 L 665.00 309.00 L 671.00 299.00 L 686.00 287.00 L 710.00 273.00 L 738.00 261.00 L 770.00 251.00 L 811.00 242.00 L 861.00 234.00 L 887.00 231.00 L 889.00 233.00 L 909.00 233.00 L 947.00 231.00 L 978.00 231.00 L 1002.00 233.00 L 1025.00 237.00 L 1047.00 243.00 L 1083.00 261.00 L 1133.00 291.00 L 1170.00 318.00 L 1194.00 342.00 L 1215.00 368.00 L 1233.00 396.00 L 1247.00 424.00 L 1257.00 452.00 L 1263.00 480.00 L 1265.00 508.00 L 1264.00 535.00 L 1260.00 561.00 L 1259.00 573.00 L 1261.00 571.00 L 1259.00 582.00 L 1253.00 606.00 L 1242.00 638.00 L 1226.00 678.00 L 1208.00 717.00 L 1188.00 755.00 L 1173.00 792.00 L 1163.00 828.00 L 1158.00 850.00 L 1158.00 858.00 L 1155.00 866.00 L 1149.00 874.00 L 1136.00 883.00 L 1116.00 893.00 L 1115.00 896.00 L 1133.00 892.00 L 1132.00 894.00 L 1112.00 902.00 L 1112.00 904.00 L 1132.00 900.00 L 1132.00 902.00 L 1112.00 910.00 L 1111.00 913.00 L 1129.00 911.00 L 1129.00 913.00 L 1111.00 919.00 L 1110.00 921.00 L 1126.00 919.00 L 1126.00 922.00 L 1110.00 930.00 L 1107.00 937.00 L 1117.00 943.00 L 1126.00 953.00 L 1134.00 967.00 L 1138.00 986.00 L 1138.00 1010.00 L 1142.00 1032.00 L 1150.00 1052.00 L 1154.00 1067.00 L 1154.00 1077.00 L 1158.00 1098.00 L 1166.00 1130.00 L 1169.00 1148.00 L 1167.00 1152.00 L 1169.00 1157.00 L 1175.00 1163.00 L 1182.00 1176.00 L 1190.00 1196.00 L 1194.00 1208.00 L 1194.00 1212.00 L 1191.00 1217.00 L 1185.00 1223.00 L 1187.00 1242.00 L 1197.00 1274.00 L 1207.00 1298.00 L 1217.00 1314.00 L 1229.00 1342.00 L 1243.00 1382.00 L 1252.00 1412.00 L 1256.00 1432.00 L 1258.00 1454.00 L 1258.00 1478.00 L 1257.00 1491.00 L 1255.00 1493.00 L 1250.00 1493.00 L 1242.00 1491.00 L 1201.00 1491.00 L 1127.00 1493.00 L 1033.00 1504.00 L 919.00 1524.00 L 842.00 1540.00 L 802.00 1552.00 L 744.00 1572.00 L 668.00 1600.00 L 612.00 1622.00 L 576.00 1638.00 L 537.00 1658.00 L 495.00 1682.00 L 472.00 1694.00 L 468.00 1694.00 L 462.00 1689.00 L 454.00 1679.00 L 448.00 1667.00 L 444.00 1653.00 L 442.00 1640.00 L 442.00 1628.00 L 445.00 1612.00 L 451.00 1592.00 L 462.00 1566.00 L 478.00 1534.00 L 483.00 1522.00 L 477.00 1530.00 L 490.00 1508.00 L 522.00 1456.00 L 541.00 1417.00 L 547.00 1391.00 L 559.00 1366.00 L 577.00 1342.00 L 576.00 1343.00 L 556.00 1369.00 L 571.00 1348.00 L 621.00 1280.00 L 644.00 1247.00 L 640.00 1249.00 L 626.00 1265.00 L 602.00 1295.00 L 603.00 1292.00 L 629.00 1256.00 L 629.00 1253.00 L 603.00 1283.00 L 605.00 1278.00 L 635.00 1238.00 L 635.00 1235.00 L 605.00 1269.00 L 596.00 1279.00 L 608.00 1265.00 L 609.00 1263.00 L 599.00 1273.00 L 597.00 1274.00 L 603.00 1266.00 L 603.00 1265.00 L 597.00 1271.00 L 607.00 1258.00 L 633.00 1226.00 L 645.00 1202.00 L 643.00 1186.00 L 639.00 1175.00 L 633.00 1169.00 L 628.00 1160.00 L 624.00 1148.00 L 615.00 1136.00 L 601.00 1124.00 L 593.00 1115.00 L 591.00 1109.00 L 597.00 1101.00 L 611.00 1091.00 L 613.00 1081.00 L 603.00 1071.00 L 588.00 1064.00 L 568.00 1060.00 L 554.00 1055.00 L 546.00 1049.00 L 539.00 1038.00 L 533.00 1022.00 L 531.00 1009.00 L 533.00 999.00 L 534.00 991.00 L 534.00 985.00 L 536.00 977.00 Z" fill="black" stroke="black" stroke-width="1"/>
</svg>