<?xml version="1.0" encoding="UTF-8"?>
<svg xmlns="http://www.w3.org/2000/svg" viewBox="257.00 281.00 831.00 1441.00">
  <path d="M 342.00 981.00 L 318.00 979.00 L 318.00 977.00 L 342.00 975.00 L 341.00 973.00 L 315.00 971.00 L 316.00 969.00 L 344.00 967.00 L 344.00 965.00 L 316.00 963.00 L 316.00 961.00 L 344.00 959.00 L 344.00 955.00 L 316.00 949.00 L 317.00 945.00 L 347.00 943.00 L 347.00 940.00 L 317.00 936.00 L 302.00 932.00 L 302.00 928.00 L 317.00 928.00 L 347.00 932.00 L 363.00 932.00 L 365.00 928.00 L 351.00 923.00 L 321.00 917.00 L 307.00 912.00 L 309.00 908.00 L 327.00 908.00 L 361.00 912.00 L 361.00 910.00 L 327.00 902.00 L 312.00 889.00 L 316.00 871.00 L 306.00 809.00 L 282.00 703.00 L 269.00 635.00 L 267.00 605.00 L 272.00 566.00 L 284.00 518.00 L 301.00 476.00 L 323.00 440.00 L 344.00 411.00 L 364.00 389.00 L 388.00 367.00 L 416.00 345.00 L 451.00 325.00 L 493.00 307.00 L 536.00 296.00 L 580.00 292.00 L 627.00 291.00 L 677.00 293.00 L 733.00 306.00 L 795.00 330.00 L 852.00 363.00 L 904.00 405.00 L 938.00 436.00 L 954.00 456.00 L 959.00 475.00 L 953.00 493.00 L 954.00 495.00 L 962.00 481.00 L 963.00 482.00 L 957.00 498.00 L 958.00 499.00 L 966.00 485.00 L 971.00 480.00 L 973.00 484.00 L 970.00 493.00 L 962.00 507.00 L 963.00 509.00 L 973.00 499.00 L 974.00 501.00 L 966.00 515.00 L 967.00 518.00 L 977.00 510.00 L 978.00 513.00 L 970.00 527.00 L 967.00 535.00 L 969.00 537.00 L 974.00 532.00 L 982.00 520.00 L 983.00 523.00 L 977.00 541.00 L 977.00 547.00 L 983.00 541.00 L 984.00 543.00 L 980.00 553.00 L 981.00 570.00 L 987.00 594.00 L 990.00 637.00 L 990.00 699.00 L 1012.00 762.00 L 1056.00 826.00 L 1078.00 863.00 L 1078.00 873.00 L 1066.00 888.00 L 1042.00 908.00 L 1028.00 922.00 L 1024.00 930.00 L 1020.00 939.00 L 1016.00 949.00 L 1015.00 963.00 L 1017.00 981.00 L 1014.00 993.00 L 1006.00 999.00 L 1003.00 1007.00 L 1005.00 1017.00 L 995.00 1032.00 L 973.00 1052.00 L 962.00 1075.00 L 962.00 1101.00 L 957.00 1119.00 L 947.00 1129.00 L 920.00 1138.00 L 876.00 1146.00 L 858.00 1157.00 L 866.00 1171.00 L 862.00 1172.00 L 846.00 1160.00 L 851.00 1171.00 L 877.00 1205.00 L 888.00 1220.00 L 884.00 1216.00 L 884.00 1218.00 L 888.00 1226.00 L 883.00 1222.00 L 869.00 1206.00 L 865.00 1202.00 L 871.00 1210.00 L 870.00 1211.00 L 862.00 1205.00 L 865.00 1211.00 L 879.00 1229.00 L 878.00 1231.00 L 862.00 1217.00 L 873.00 1240.00 L 911.00 1300.00 L 910.00 1303.00 L 870.00 1249.00 L 868.00 1249.00 L 904.00 1303.00 L 907.00 1309.00 L 877.00 1267.00 L 875.00 1266.00 L 901.00 1306.00 L 900.00 1306.00 L 872.00 1266.00 L 868.00 1262.00 L 888.00 1294.00 L 884.00 1297.00 L 856.00 1271.00 L 859.00 1291.00 L 893.00 1357.00 L 893.00 1360.00 L 859.00 1300.00 L 860.00 1303.00 L 896.00 1369.00 L 894.00 1366.00 L 854.00 1294.00 L 855.00 1297.00 L 897.00 1375.00 L 898.00 1377.00 L 858.00 1303.00 L 859.00 1306.00 L 901.00 1386.00 L 907.00 1399.00 L 877.00 1345.00 L 877.00 1347.00 L 907.00 1405.00 L 901.00 1395.00 L 859.00 1317.00 L 874.00 1352.00 L 946.00 1500.00 L 948.00 1507.00 L 880.00 1373.00 L 881.00 1378.00 L 951.00 1522.00 L 948.00 1517.00 L 872.00 1363.00 L 872.00 1365.00 L 948.00 1523.00 L 987.00 1607.00 L 989.00 1617.00 L 950.00 1539.00 L 870.00 1373.00 L 870.00 1376.00 L 950.00 1548.00 L 990.00 1641.00 L 990.00 1655.00 L 986.00 1673.00 L 978.00 1695.00 L 968.00 1708.00 L 956.00 1712.00 L 942.00 1710.00 L 926.00 1702.00 L 879.00 1663.00 L 801.00 1593.00 L 712.00 1523.00 L 612.00 1453.00 L 531.00 1405.00 L 469.00 1379.00 L 413.00 1360.00 L 363.00 1348.00 L 328.00 1335.00 L 308.00 1321.00 L 298.00 1299.00 L 298.00 1269.00 L 309.00 1220.00 L 331.00 1152.00 L 338.00 1108.00 L 330.00 1088.00 L 332.00 1058.00 L 344.00 1018.00 L 343.00 997.00 L 329.00 995.00 L 329.00 993.00 L 343.00 991.00 L 340.00 989.00 L 320.00 987.00 L 321.00 985.00 L 343.00 983.00 L 342.00 981.00 Z" fill="black" stroke="black" stroke-width="1"/>
</svg>