<?xml version="1.0" encoding="UTF-8"?>
<svg xmlns="http://www.w3.org/2000/svg" viewBox="503.00 254.00 846.00 1496.00">
  <path d="M 576.00 973.00 L 564.00 947.00 L 560.00 929.00 L 564.00 919.00 L 562.00 910.00 L 554.00 902.00 L 552.00 884.00 L 556.00 856.00 L 547.00 829.00 L 525.00 803.00 L 514.00 785.00 L 514.00 775.00 L 538.00 739.00 L 586.00 677.00 L 613.00 619.00 L 619.00 565.00 L 631.00 517.00 L 649.00 475.00 L 657.00 444.00 L 655.00 424.00 L 657.00 422.00 L 663.00 438.00 L 664.00 437.00 L 660.00 419.00 L 661.00 416.00 L 667.00 428.00 L 668.00 425.00 L 664.00 407.00 L 668.00 392.00 L 680.00 380.00 L 694.00 372.00 L 710.00 368.00 L 740.00 347.00 L 784.00 309.00 L 815.00 290.00 L 833.00 290.00 L 861.00 283.00 L 899.00 269.00 L 931.00 264.00 L 957.00 268.00 L 992.00 268.00 L 1036.00 264.00 L 1087.00 272.00 L 1145.00 292.00 L 1175.00 305.00 L 1177.00 311.00 L 1200.00 326.00 L 1244.00 350.00 L 1277.00 373.00 L 1299.00 395.00 L 1318.00 430.00 L 1334.00 478.00 L 1339.00 539.00 L 1333.00 613.00 L 1308.00 700.00 L 1264.00 800.00 L 1221.00 876.00 L 1179.00 928.00 L 1150.00 957.00 L 1134.00 963.00 L 1131.00 966.00 L 1141.00 966.00 L 1140.00 968.00 L 1128.00 972.00 L 1120.00 985.00 L 1116.00 1007.00 L 1120.00 1065.00 L 1132.00 1159.00 L 1145.00 1216.00 L 1159.00 1236.00 L 1168.00 1257.00 L 1172.00 1279.00 L 1164.00 1298.00 L 1144.00 1314.00 L 1124.00 1323.00 L 1104.00 1325.00 L 1063.00 1339.00 L 1001.00 1365.00 L 937.00 1399.00 L 871.00 1441.00 L 804.00 1495.00 L 736.00 1561.00 L 694.00 1620.00 L 678.00 1672.00 L 674.00 1677.00 L 682.00 1635.00 L 680.00 1635.00 L 668.00 1677.00 L 667.00 1678.00 L 677.00 1638.00 L 676.00 1639.00 L 664.00 1681.00 L 663.00 1683.00 L 673.00 1645.00 L 674.00 1640.00 L 666.00 1668.00 L 665.00 1669.00 L 671.00 1643.00 L 667.00 1648.00 L 653.00 1684.00 L 649.00 1688.00 L 655.00 1660.00 L 652.00 1660.00 L 640.00 1688.00 L 667.00 1593.00 L 733.00 1375.00 L 731.00 1375.00 L 661.00 1593.00 L 659.00 1598.00 L 725.00 1390.00 L 722.00 1392.00 L 650.00 1604.00 L 652.00 1596.00 L 728.00 1368.00 L 727.00 1369.00 L 649.00 1599.00 L 650.00 1594.00 L 730.00 1354.00 L 728.00 1353.00 L 644.00 1591.00 L 636.00 1612.00 L 704.00 1416.00 L 700.00 1419.00 L 624.00 1621.00 L 631.00 1598.00 L 721.00 1350.00 L 718.00 1353.00 L 622.00 1607.00 L 571.00 1736.00 L 565.00 1740.00 L 613.00 1610.00 L 715.00 1346.00 L 714.00 1346.00 L 610.00 1610.00 L 597.00 1642.00 L 675.00 1442.00 L 673.00 1441.00 L 591.00 1639.00 L 589.00 1641.00 L 667.00 1447.00 L 667.00 1444.00 L 589.00 1632.00 L 604.00 1595.00 L 712.00 1333.00 L 712.00 1330.00 L 604.00 1586.00 L 549.00 1710.00 L 547.00 1702.00 L 582.00 1614.00 L 654.00 1446.00 L 654.00 1443.00 L 582.00 1605.00 L 546.00 1684.00 L 546.00 1680.00 L 600.00 1557.00 L 708.00 1315.00 L 708.00 1312.00 L 600.00 1548.00 L 600.00 1546.00 L 708.00 1306.00 L 707.00 1302.00 L 597.00 1534.00 L 597.00 1533.00 L 707.00 1299.00 L 706.00 1296.00 L 594.00 1524.00 L 568.00 1575.00 L 628.00 1449.00 L 627.00 1448.00 L 565.00 1572.00 L 563.00 1574.00 L 621.00 1454.00 L 620.00 1453.00 L 560.00 1571.00 L 559.00 1572.00 L 617.00 1456.00 L 615.00 1453.00 L 553.00 1563.00 L 581.00 1506.00 L 699.00 1282.00 L 698.00 1279.00 L 578.00 1497.00 L 544.00 1558.00 L 596.00 1462.00 L 595.00 1461.00 L 541.00 1555.00 L 537.00 1558.00 L 583.00 1470.00 L 582.00 1466.00 L 534.00 1546.00 L 571.00 1479.00 L 693.00 1265.00 L 692.00 1262.00 L 568.00 1470.00 L 568.00 1469.00 L 692.00 1259.00 L 692.00 1256.00 L 568.00 1460.00 L 522.00 1535.00 L 554.00 1481.00 L 554.00 1478.00 L 522.00 1526.00 L 519.00 1528.00 L 545.00 1484.00 L 545.00 1482.00 L 519.00 1522.00 L 517.00 1524.00 L 539.00 1488.00 L 539.00 1485.00 L 517.00 1515.00 L 513.00 1519.00 L 527.00 1497.00 L 528.00 1494.00 L 516.00 1510.00 L 513.00 1513.00 L 519.00 1503.00 L 520.00 1500.00 L 516.00 1504.00 L 573.00 1415.00 L 691.00 1233.00 L 744.00 1136.00 L 732.00 1124.00 L 710.00 1113.00 L 678.00 1103.00 L 650.00 1090.00 L 626.00 1074.00 L 606.00 1057.00 L 590.00 1039.00 L 582.00 1021.00 L 582.00 1003.00 L 582.00 992.00 L 582.00 988.00 L 576.00 973.00 Z" fill="black" stroke="black" stroke-width="1"/>
</svg>