<?xml version="1.0" encoding="UTF-8"?>
<svg xmlns="http://www.w3.org/2000/svg" viewBox="130.00 183.00 1078.00 1477.00">
  <path d="M 315.00 894.00 L 317.00 850.00 L 302.00 814.00 L 270.00 786.00 L 277.00 742.00 L 323.00 682.00 L 344.00 629.00 L 340.00 583.00 L 351.00 527.00 L 377.00 461.00 L 388.00 418.00 L 384.00 398.00 L 386.00 395.00 L 394.00 409.00 L 396.00 406.00 L 392.00 386.00 L 394.00 384.00 L 402.00 400.00 L 405.00 399.00 L 403.00 381.00 L 410.00 376.00 L 426.00 384.00 L 432.00 380.00 L 428.00 364.00 L 429.00 363.00 L 435.00 377.00 L 442.00 372.00 L 450.00 348.00 L 518.00 321.00 L 646.00 291.00 L 715.00 262.00 L 725.00 234.00 L 728.00 235.00 L 724.00 265.00 L 727.00 259.00 L 737.00 217.00 L 740.00 217.00 L 736.00 259.00 L 741.00 255.00 L 755.00 205.00 L 758.00 205.00 L 750.00 255.00 L 752.00 254.00 L 764.00 202.00 L 767.00 203.00 L 761.00 257.00 L 764.00 256.00 L 776.00 200.00 L 778.00 200.00 L 770.00 256.00 L 773.00 256.00 L 787.00 200.00 L 789.00 200.00 L 779.00 256.00 L 783.00 256.00 L 801.00 200.00 L 805.00 201.00 L 795.00 259.00 L 801.00 259.00 L 823.00 201.00 L 826.00 202.00 L 810.00 262.00 L 813.00 263.00 L 835.00 205.00 L 839.00 203.00 L 825.00 257.00 L 827.00 258.00 L 845.00 206.00 L 880.00 193.00 L 932.00 219.00 L 966.00 243.00 L 982.00 265.00 L 1009.00 271.00 L 1047.00 261.00 L 1071.00 284.00 L 1081.00 340.00 L 1111.00 400.00 L 1161.00 464.00 L 1190.00 519.00 L 1198.00 565.00 L 1193.00 614.00 L 1175.00 666.00 L 1130.00 711.00 L 1058.00 749.00 L 1048.00 759.00 L 1100.00 741.00 L 1099.00 743.00 L 1045.00 765.00 L 1040.00 768.00 L 1084.00 752.00 L 1083.00 754.00 L 1037.00 774.00 L 1005.00 802.00 L 987.00 838.00 L 955.00 877.00 L 909.00 919.00 L 888.00 996.00 L 892.00 1108.00 L 912.00 1194.00 L 948.00 1254.00 L 952.00 1270.00 L 924.00 1242.00 L 925.00 1245.00 L 955.00 1279.00 L 956.00 1282.00 L 928.00 1254.00 L 927.00 1257.00 L 953.00 1291.00 L 960.00 1313.00 L 948.00 1323.00 L 942.00 1349.00 L 942.00 1391.00 L 929.00 1427.00 L 903.00 1457.00 L 822.00 1487.00 L 686.00 1517.00 L 559.00 1556.00 L 441.00 1604.00 L 411.00 1542.00 L 469.00 1370.00 L 467.00 1371.00 L 405.00 1545.00 L 405.00 1542.00 L 467.00 1362.00 L 464.00 1363.00 L 396.00 1545.00 L 396.00 1542.00 L 464.00 1354.00 L 460.00 1356.00 L 384.00 1548.00 L 384.00 1545.00 L 460.00 1347.00 L 456.00 1349.00 L 372.00 1551.00 L 372.00 1548.00 L 456.00 1340.00 L 455.00 1340.00 L 369.00 1548.00 L 369.00 1545.00 L 455.00 1331.00 L 446.00 1337.00 L 342.00 1563.00 L 341.00 1561.00 L 443.00 1331.00 L 440.00 1332.00 L 332.00 1564.00 L 332.00 1561.00 L 440.00 1323.00 L 432.00 1332.00 L 308.00 1588.00 L 308.00 1584.00 L 432.00 1320.00 L 422.00 1325.00 L 278.00 1599.00 L 278.00 1596.00 L 422.00 1316.00 L 420.00 1317.00 L 272.00 1599.00 L 272.00 1598.00 L 420.00 1314.00 L 416.00 1317.00 L 260.00 1607.00 L 260.00 1605.00 L 416.00 1311.00 L 413.00 1311.00 L 251.00 1605.00 L 251.00 1602.00 L 413.00 1302.00 L 411.00 1297.00 L 245.00 1587.00 L 245.00 1585.00 L 411.00 1291.00 L 409.00 1287.00 L 239.00 1573.00 L 191.00 1650.00 L 265.00 1518.00 L 263.00 1515.00 L 185.00 1641.00 L 183.00 1642.00 L 257.00 1518.00 L 255.00 1513.00 L 177.00 1627.00 L 226.00 1546.00 L 402.00 1270.00 L 401.00 1268.00 L 223.00 1540.00 L 167.00 1624.00 L 233.00 1520.00 L 232.00 1517.00 L 164.00 1615.00 L 160.00 1617.00 L 220.00 1523.00 L 219.00 1517.00 L 157.00 1599.00 L 216.00 1510.00 L 396.00 1250.00 L 395.00 1247.00 L 213.00 1501.00 L 144.00 1595.00 L 188.00 1529.00 L 188.00 1526.00 L 144.00 1586.00 L 142.00 1587.00 L 182.00 1529.00 L 183.00 1524.00 L 145.00 1572.00 L 141.00 1575.00 L 171.00 1533.00 L 172.00 1530.00 L 144.00 1566.00 L 140.00 1569.00 L 160.00 1539.00 L 162.00 1533.00 L 146.00 1551.00 L 224.00 1447.00 L 396.00 1221.00 L 443.00 1087.00 L 365.00 1045.00 L 325.00 1000.00 L 323.00 952.00 L 320.00 925.00 L 316.00 919.00 L 315.00 894.00 Z" fill="black" stroke="black" stroke-width="1"/>
</svg>