<?xml version="1.0" encoding="UTF-8"?>
<svg xmlns="http://www.w3.org/2000/svg" viewBox="204.00 247.00 1019.00 1470.00">
  <path d="M 520.00 912.00 L 508.00 900.00 L 457.00 888.00 L 367.00 876.00 L 336.00 869.00 L 364.00 867.00 L 359.00 863.00 L 321.00 857.00 L 350.00 861.00 L 446.00 875.00 L 441.00 873.00 L 335.00 855.00 L 308.00 850.00 L 360.00 858.00 L 355.00 854.00 L 293.00 838.00 L 318.00 840.00 L 430.00 860.00 L 428.00 857.00 L 312.00 831.00 L 251.00 815.00 L 245.00 809.00 L 283.00 815.00 L 365.00 833.00 L 364.00 831.00 L 280.00 809.00 L 297.00 812.00 L 415.00 840.00 L 414.00 838.00 L 294.00 806.00 L 293.00 804.00 L 411.00 832.00 L 408.00 827.00 L 284.00 789.00 L 282.00 787.00 L 402.00 821.00 L 402.00 818.00 L 282.00 778.00 L 281.00 776.00 L 399.00 812.00 L 398.00 809.00 L 278.00 767.00 L 277.00 765.00 L 395.00 803.00 L 393.00 799.00 L 271.00 753.00 L 269.00 750.00 L 387.00 790.00 L 385.00 784.00 L 263.00 732.00 L 261.00 728.00 L 379.00 772.00 L 379.00 768.00 L 261.00 716.00 L 214.00 653.00 L 238.00 579.00 L 266.00 524.00 L 298.00 488.00 L 311.00 443.00 L 305.00 389.00 L 320.00 361.00 L 356.00 359.00 L 401.00 333.00 L 455.00 283.00 L 491.00 276.00 L 509.00 312.00 L 511.00 311.00 L 497.00 273.00 L 498.00 272.00 L 514.00 308.00 L 517.00 306.00 L 507.00 266.00 L 510.00 266.00 L 526.00 306.00 L 529.00 305.00 L 519.00 263.00 L 523.00 262.00 L 541.00 302.00 L 543.00 301.00 L 529.00 259.00 L 530.00 258.00 L 546.00 298.00 L 549.00 298.00 L 539.00 258.00 L 542.00 257.00 L 558.00 295.00 L 561.00 296.00 L 551.00 260.00 L 552.00 259.00 L 564.00 293.00 L 566.00 293.00 L 558.00 259.00 L 560.00 259.00 L 572.00 293.00 L 575.00 294.00 L 569.00 262.00 L 572.00 261.00 L 584.00 291.00 L 587.00 293.00 L 581.00 267.00 L 584.00 266.00 L 596.00 290.00 L 633.00 294.00 L 695.00 278.00 L 743.00 271.00 L 777.00 273.00 L 851.00 288.00 L 965.00 316.00 L 1044.00 346.00 L 1088.00 378.00 L 1121.00 408.00 L 1143.00 436.00 L 1150.00 455.00 L 1142.00 465.00 L 1143.00 467.00 L 1153.00 461.00 L 1155.00 469.00 L 1149.00 491.00 L 1151.00 497.00 L 1161.00 487.00 L 1162.00 490.00 L 1154.00 506.00 L 1150.00 555.00 L 1150.00 637.00 L 1170.00 714.00 L 1210.00 786.00 L 1213.00 838.00 L 1179.00 870.00 L 1163.00 907.00 L 1165.00 949.00 L 1156.00 982.00 L 1136.00 1006.00 L 1123.00 1036.00 L 1117.00 1072.00 L 1076.00 1103.00 L 1000.00 1129.00 L 951.00 1164.00 L 929.00 1208.00 L 970.00 1333.00 L 1074.00 1539.00 L 1073.00 1542.00 L 967.00 1342.00 L 967.00 1345.00 L 1073.00 1551.00 L 1111.00 1629.00 L 1081.00 1579.00 L 1081.00 1586.00 L 1111.00 1650.00 L 1072.00 1574.00 L 964.00 1358.00 L 962.00 1363.00 L 1066.00 1589.00 L 1065.00 1592.00 L 959.00 1372.00 L 958.00 1375.00 L 1062.00 1601.00 L 1062.00 1603.00 L 958.00 1381.00 L 956.00 1383.00 L 1056.00 1609.00 L 1077.00 1661.00 L 1019.00 1539.00 L 1017.00 1542.00 L 1071.00 1670.00 L 1049.00 1621.00 L 951.00 1395.00 L 950.00 1398.00 L 1046.00 1630.00 L 1046.00 1634.00 L 950.00 1410.00 L 948.00 1416.00 L 1040.00 1652.00 L 1039.00 1655.00 L 945.00 1425.00 L 943.00 1427.00 L 1033.00 1661.00 L 1033.00 1664.00 L 943.00 1436.00 L 940.00 1434.00 L 1024.00 1658.00 L 1024.00 1660.00 L 940.00 1440.00 L 938.00 1439.00 L 1018.00 1657.00 L 1018.00 1660.00 L 938.00 1448.00 L 936.00 1447.00 L 1012.00 1657.00 L 1013.00 1660.00 L 939.00 1456.00 L 938.00 1455.00 L 1010.00 1657.00 L 1011.00 1662.00 L 941.00 1470.00 L 940.00 1470.00 L 1008.00 1662.00 L 985.00 1707.00 L 871.00 1605.00 L 717.00 1504.00 L 523.00 1404.00 L 429.00 1343.00 L 435.00 1321.00 L 434.00 1315.00 L 426.00 1325.00 L 423.00 1327.00 L 425.00 1321.00 L 445.00 1288.00 L 483.00 1228.00 L 490.00 1211.00 L 466.00 1237.00 L 467.00 1235.00 L 493.00 1205.00 L 516.00 1164.00 L 536.00 1112.00 L 549.00 1070.00 L 555.00 1038.00 L 552.00 999.00 L 540.00 953.00 L 532.00 927.00 L 528.00 921.00 L 520.00 912.00 Z" fill="black" stroke="black" stroke-width="1"/>
</svg>