<?xml version="1.0" encoding="UTF-8"?>
<svg xmlns="http://www.w3.org/2000/svg" viewBox="309.00 305.00 938.00 1508.00">
  <path d="M 425.00 1037.00 L 423.00 995.00 L 410.00 954.00 L 386.00 914.00 L 367.00 877.00 L 353.00 843.00 L 341.00 812.00 L 331.00 784.00 L 324.00 755.00 L 320.00 725.00 L 319.00 687.00 L 321.00 641.00 L 333.00 591.00 L 355.00 537.00 L 401.00 475.00 L 471.00 405.00 L 525.00 360.00 L 563.00 340.00 L 593.00 327.00 L 615.00 321.00 L 654.00 317.00 L 710.00 315.00 L 746.00 317.00 L 762.00 323.00 L 781.00 326.00 L 803.00 326.00 L 843.00 338.00 L 901.00 362.00 L 962.00 405.00 L 1026.00 467.00 L 1059.00 501.00 L 1061.00 507.00 L 1059.00 520.00 L 1053.00 540.00 L 1054.00 543.00 L 1062.00 529.00 L 1063.00 530.00 L 1057.00 546.00 L 1058.00 549.00 L 1066.00 539.00 L 1067.00 541.00 L 1061.00 555.00 L 1062.00 557.00 L 1070.00 547.00 L 1072.00 549.00 L 1068.00 563.00 L 1070.00 565.00 L 1078.00 555.00 L 1079.00 557.00 L 1073.00 571.00 L 1075.00 573.00 L 1085.00 563.00 L 1086.00 566.00 L 1078.00 582.00 L 1080.00 584.00 L 1092.00 572.00 L 1093.00 575.00 L 1083.00 593.00 L 1084.00 596.00 L 1096.00 584.00 L 1097.00 587.00 L 1087.00 605.00 L 1088.00 606.00 L 1100.00 590.00 L 1101.00 595.00 L 1091.00 621.00 L 1093.00 623.00 L 1107.00 601.00 L 1115.00 591.00 L 1117.00 593.00 L 1111.00 606.00 L 1097.00 630.00 L 1098.00 631.00 L 1114.00 609.00 L 1115.00 610.00 L 1101.00 634.00 L 1102.00 635.00 L 1118.00 613.00 L 1127.00 603.00 L 1129.00 605.00 L 1122.00 619.00 L 1106.00 645.00 L 1107.00 647.00 L 1125.00 625.00 L 1126.00 627.00 L 1110.00 653.00 L 1110.00 656.00 L 1126.00 636.00 L 1127.00 639.00 L 1113.00 665.00 L 1109.00 688.00 L 1115.00 708.00 L 1117.00 731.00 L 1115.00 757.00 L 1137.00 800.00 L 1183.00 860.00 L 1210.00 899.00 L 1218.00 917.00 L 1220.00 933.00 L 1216.00 947.00 L 1209.00 957.00 L 1199.00 963.00 L 1196.00 966.00 L 1200.00 966.00 L 1191.00 970.00 L 1169.00 978.00 L 1159.00 995.00 L 1161.00 1021.00 L 1159.00 1038.00 L 1153.00 1046.00 L 1153.00 1056.00 L 1159.00 1068.00 L 1156.00 1084.00 L 1144.00 1104.00 L 1140.00 1125.00 L 1144.00 1147.00 L 1144.00 1169.00 L 1140.00 1191.00 L 1131.00 1208.00 L 1117.00 1220.00 L 1101.00 1226.00 L 1083.00 1226.00 L 1072.00 1228.00 L 1068.00 1232.00 L 1068.00 1239.00 L 1072.00 1249.00 L 1064.00 1274.00 L 1044.00 1314.00 L 1045.00 1351.00 L 1067.00 1385.00 L 1064.00 1387.00 L 1036.00 1357.00 L 1034.00 1360.00 L 1058.00 1396.00 L 1057.00 1399.00 L 1031.00 1369.00 L 1038.00 1387.00 L 1078.00 1453.00 L 1078.00 1456.00 L 1038.00 1396.00 L 1068.00 1444.00 L 1168.00 1600.00 L 1166.00 1599.00 L 1062.00 1441.00 L 1063.00 1444.00 L 1169.00 1608.00 L 1195.00 1649.00 L 1141.00 1567.00 L 1142.00 1570.00 L 1198.00 1658.00 L 1185.00 1639.00 L 1103.00 1513.00 L 1105.00 1519.00 L 1191.00 1657.00 L 1184.00 1647.00 L 1084.00 1489.00 L 1083.00 1488.00 L 1181.00 1644.00 L 1212.00 1694.00 L 1176.00 1638.00 L 1178.00 1642.00 L 1218.00 1706.00 L 1208.00 1691.00 L 1148.00 1597.00 L 1148.00 1601.00 L 1208.00 1703.00 L 1187.00 1671.00 L 1085.00 1505.00 L 1086.00 1508.00 L 1190.00 1680.00 L 1191.00 1682.00 L 1089.00 1514.00 L 1089.00 1515.00 L 1191.00 1685.00 L 1211.00 1719.00 L 1149.00 1617.00 L 1148.00 1620.00 L 1208.00 1728.00 L 1237.00 1784.00 L 1235.00 1788.00 L 1227.00 1794.00 L 1213.00 1802.00 L 1197.00 1803.00 L 1179.00 1797.00 L 1124.00 1766.00 L 1032.00 1710.00 L 938.00 1663.00 L 842.00 1625.00 L 759.00 1597.00 L 689.00 1579.00 L 620.00 1567.00 L 552.00 1561.00 L 499.00 1552.00 L 461.00 1540.00 L 433.00 1520.00 L 415.00 1492.00 L 406.00 1466.00 L 406.00 1442.00 L 415.00 1408.00 L 433.00 1364.00 L 440.00 1323.00 L 436.00 1285.00 L 439.00 1246.00 L 449.00 1206.00 L 455.00 1173.00 L 457.00 1147.00 L 463.00 1124.00 L 473.00 1104.00 L 472.00 1092.00 L 460.00 1088.00 L 462.00 1085.00 L 478.00 1083.00 L 476.00 1082.00 L 456.00 1082.00 L 451.00 1081.00 L 461.00 1079.00 L 458.00 1077.00 L 442.00 1075.00 L 448.00 1073.00 L 476.00 1071.00 L 487.00 1069.00 L 481.00 1067.00 L 481.00 1065.00 L 487.00 1063.00 L 475.00 1062.00 L 445.00 1062.00 L 429.00 1061.00 L 427.00 1059.00 L 425.00 1037.00 Z" fill="black" stroke="black" stroke-width="1"/>
</svg>