<?xml version="1.0" encoding="UTF-8"?>
<svg xmlns="http://www.w3.org/2000/svg" viewBox="319.00 261.00 845.00 1406.00">
  <path d="M 394.00 946.00 L 386.00 930.00 L 386.00 915.00 L 394.00 901.00 L 393.00 889.00 L 383.00 879.00 L 380.00 860.00 L 384.00 832.00 L 372.00 810.00 L 344.00 794.00 L 344.00 791.00 L 372.00 801.00 L 371.00 799.00 L 341.00 785.00 L 339.00 784.00 L 365.00 796.00 L 365.00 793.00 L 339.00 775.00 L 329.00 760.00 L 335.00 748.00 L 365.00 712.00 L 419.00 652.00 L 446.00 605.00 L 446.00 571.00 L 451.00 542.00 L 461.00 518.00 L 475.00 492.00 L 493.00 464.00 L 502.00 442.00 L 502.00 426.00 L 504.00 423.00 L 508.00 433.00 L 509.00 432.00 L 507.00 420.00 L 509.00 418.00 L 515.00 426.00 L 517.00 423.00 L 515.00 409.00 L 517.00 407.00 L 523.00 417.00 L 524.00 415.00 L 520.00 401.00 L 520.00 392.00 L 524.00 388.00 L 528.00 392.00 L 532.00 404.00 L 534.00 403.00 L 534.00 389.00 L 546.00 372.00 L 570.00 352.00 L 612.00 329.00 L 672.00 303.00 L 710.00 290.00 L 726.00 290.00 L 751.00 285.00 L 785.00 275.00 L 827.00 271.00 L 877.00 273.00 L 917.00 277.00 L 947.00 283.00 L 967.00 288.00 L 977.00 292.00 L 984.00 297.00 L 988.00 303.00 L 999.00 309.00 L 1017.00 315.00 L 1036.00 325.00 L 1056.00 339.00 L 1079.00 359.00 L 1105.00 385.00 L 1127.00 423.00 L 1145.00 473.00 L 1154.00 526.00 L 1154.00 582.00 L 1148.00 635.00 L 1136.00 685.00 L 1123.00 729.00 L 1109.00 767.00 L 1097.00 794.00 L 1087.00 810.00 L 1081.00 825.00 L 1079.00 839.00 L 1066.00 850.00 L 1042.00 858.00 L 1041.00 860.00 L 1063.00 856.00 L 1066.00 857.00 L 1050.00 863.00 L 1050.00 865.00 L 1066.00 863.00 L 1063.00 865.00 L 1041.00 871.00 L 1040.00 873.00 L 1060.00 871.00 L 1061.00 875.00 L 1043.00 885.00 L 1041.00 889.00 L 1055.00 887.00 L 1057.00 889.00 L 1047.00 895.00 L 1050.00 925.00 L 1066.00 979.00 L 1074.00 1013.00 L 1074.00 1027.00 L 1069.00 1042.00 L 1059.00 1058.00 L 1055.00 1069.00 L 1057.00 1075.00 L 1056.00 1082.00 L 1052.00 1090.00 L 1053.00 1101.00 L 1059.00 1115.00 L 1063.00 1136.00 L 1065.00 1164.00 L 1069.00 1187.00 L 1075.00 1205.00 L 1078.00 1227.00 L 1078.00 1253.00 L 1082.00 1279.00 L 1090.00 1305.00 L 1094.00 1331.00 L 1094.00 1357.00 L 1088.00 1382.00 L 1076.00 1406.00 L 1061.00 1421.00 L 1043.00 1427.00 L 980.00 1437.00 L 872.00 1451.00 L 776.00 1470.00 L 692.00 1494.00 L 627.00 1516.00 L 581.00 1536.00 L 518.00 1572.00 L 438.00 1624.00 L 393.00 1652.00 L 383.00 1656.00 L 374.00 1657.00 L 366.00 1655.00 L 356.00 1645.00 L 344.00 1627.00 L 341.00 1594.00 L 347.00 1546.00 L 353.00 1514.00 L 359.00 1498.00 L 377.00 1467.00 L 407.00 1421.00 L 408.00 1419.00 L 380.00 1461.00 L 383.00 1456.00 L 417.00 1404.00 L 418.00 1401.00 L 386.00 1447.00 L 403.00 1417.00 L 469.00 1311.00 L 486.00 1280.00 L 454.00 1324.00 L 455.00 1322.00 L 489.00 1274.00 L 490.00 1271.00 L 458.00 1313.00 L 458.00 1308.00 L 490.00 1256.00 L 496.00 1237.00 L 476.00 1251.00 L 470.00 1253.00 L 478.00 1243.00 L 477.00 1244.00 L 467.00 1256.00 L 474.00 1247.00 L 498.00 1217.00 L 495.00 1219.00 L 465.00 1253.00 L 464.00 1253.00 L 492.00 1219.00 L 491.00 1218.00 L 461.00 1250.00 L 461.00 1248.00 L 491.00 1212.00 L 494.00 1206.00 L 470.00 1230.00 L 466.00 1233.00 L 482.00 1215.00 L 483.00 1213.00 L 469.00 1227.00 L 471.00 1224.00 L 489.00 1204.00 L 490.00 1202.00 L 474.00 1218.00 L 477.00 1211.00 L 499.00 1181.00 L 502.00 1172.00 L 486.00 1184.00 L 485.00 1182.00 L 499.00 1166.00 L 498.00 1164.00 L 482.00 1176.00 L 480.00 1173.00 L 492.00 1155.00 L 494.00 1139.00 L 486.00 1125.00 L 487.00 1113.00 L 497.00 1103.00 L 489.00 1095.00 L 463.00 1089.00 L 439.00 1078.00 L 417.00 1062.00 L 403.00 1046.00 L 397.00 1030.00 L 398.00 1009.00 L 406.00 983.00 L 409.00 968.00 L 407.00 964.00 L 404.00 960.00 L 400.00 956.00 L 394.00 946.00 Z" fill="black" stroke="black" stroke-width="1"/>
</svg>