<?xml version="1.0" encoding="UTF-8"?>
<svg xmlns="http://www.w3.org/2000/svg" viewBox="384.00 171.00 1003.00 1467.00">
  <path d="M 430.00 875.00 L 410.00 861.00 L 417.00 819.00 L 451.00 749.00 L 466.00 692.00 L 462.00 648.00 L 451.00 616.00 L 433.00 596.00 L 433.00 593.00 L 451.00 607.00 L 451.00 604.00 L 433.00 584.00 L 433.00 579.00 L 451.00 589.00 L 451.00 586.00 L 433.00 570.00 L 433.00 567.00 L 451.00 577.00 L 452.00 574.00 L 436.00 558.00 L 436.00 556.00 L 452.00 568.00 L 453.00 565.00 L 439.00 547.00 L 440.00 544.00 L 456.00 556.00 L 457.00 554.00 L 443.00 538.00 L 443.00 535.00 L 457.00 545.00 L 458.00 542.00 L 446.00 526.00 L 447.00 523.00 L 461.00 533.00 L 462.00 531.00 L 450.00 517.00 L 451.00 515.00 L 465.00 525.00 L 466.00 522.00 L 454.00 506.00 L 455.00 502.00 L 469.00 510.00 L 473.00 505.00 L 467.00 487.00 L 469.00 482.00 L 479.00 490.00 L 482.00 486.00 L 478.00 470.00 L 482.00 450.00 L 494.00 426.00 L 541.00 387.00 L 623.00 333.00 L 708.00 299.00 L 796.00 285.00 L 844.00 263.00 L 852.00 233.00 L 855.00 233.00 L 853.00 263.00 L 856.00 258.00 L 864.00 218.00 L 867.00 218.00 L 865.00 258.00 L 867.00 257.00 L 873.00 215.00 L 875.00 214.00 L 873.00 254.00 L 875.00 253.00 L 881.00 211.00 L 912.00 187.00 L 968.00 181.00 L 1008.00 186.00 L 1032.00 202.00 L 1057.00 203.00 L 1083.00 189.00 L 1111.00 208.00 L 1141.00 260.00 L 1180.00 298.00 L 1228.00 322.00 L 1280.00 368.00 L 1336.00 436.00 L 1368.00 497.00 L 1376.00 551.00 L 1377.00 585.00 L 1371.00 599.00 L 1354.00 613.00 L 1326.00 627.00 L 1325.00 629.00 L 1351.00 619.00 L 1350.00 622.00 L 1322.00 638.00 L 1319.00 641.00 L 1341.00 631.00 L 1340.00 634.00 L 1316.00 650.00 L 1300.00 669.00 L 1292.00 691.00 L 1251.00 717.00 L 1177.00 747.00 L 1176.00 749.00 L 1248.00 723.00 L 1246.00 726.00 L 1170.00 758.00 L 1165.00 763.00 L 1231.00 741.00 L 1236.00 740.00 L 1180.00 760.00 L 1177.00 762.00 L 1227.00 746.00 L 1219.00 751.00 L 1153.00 777.00 L 1107.00 801.00 L 1081.00 823.00 L 1050.00 869.00 L 1014.00 939.00 L 996.00 1008.00 L 996.00 1076.00 L 1014.00 1173.00 L 1050.00 1299.00 L 1062.00 1382.00 L 1050.00 1422.00 L 982.00 1453.00 L 858.00 1475.00 L 765.00 1498.00 L 703.00 1522.00 L 642.00 1552.00 L 582.00 1588.00 L 576.00 1534.00 L 624.00 1390.00 L 622.00 1392.00 L 570.00 1540.00 L 572.00 1531.00 L 628.00 1365.00 L 624.00 1368.00 L 560.00 1540.00 L 560.00 1537.00 L 624.00 1359.00 L 622.00 1360.00 L 554.00 1540.00 L 554.00 1536.00 L 622.00 1348.00 L 617.00 1352.00 L 539.00 1548.00 L 539.00 1545.00 L 617.00 1343.00 L 612.00 1347.00 L 524.00 1557.00 L 524.00 1554.00 L 612.00 1338.00 L 608.00 1341.00 L 512.00 1563.00 L 512.00 1559.00 L 608.00 1329.00 L 604.00 1333.00 L 500.00 1571.00 L 500.00 1569.00 L 604.00 1327.00 L 600.00 1329.00 L 488.00 1575.00 L 487.00 1573.00 L 597.00 1323.00 L 622.00 1261.00 L 562.00 1387.00 L 562.00 1384.00 L 622.00 1252.00 L 592.00 1310.00 L 472.00 1558.00 L 437.00 1628.00 L 487.00 1520.00 L 486.00 1518.00 L 434.00 1622.00 L 431.00 1625.00 L 477.00 1527.00 L 475.00 1523.00 L 425.00 1613.00 L 462.00 1537.00 L 586.00 1295.00 L 585.00 1293.00 L 459.00 1531.00 L 459.00 1528.00 L 585.00 1284.00 L 583.00 1280.00 L 453.00 1516.00 L 402.00 1607.00 L 430.00 1553.00 L 430.00 1549.00 L 402.00 1595.00 L 399.00 1598.00 L 421.00 1558.00 L 421.00 1556.00 L 399.00 1592.00 L 395.00 1596.00 L 409.00 1568.00 L 410.00 1563.00 L 398.00 1581.00 L 394.00 1586.00 L 398.00 1578.00 L 459.00 1468.00 L 577.00 1256.00 L 606.00 1137.00 L 546.00 1111.00 L 503.00 1048.00 L 477.00 948.00 L 460.00 895.00 L 452.00 889.00 L 446.00 885.00 L 442.00 883.00 L 430.00 875.00 Z" fill="black" stroke="black" stroke-width="1"/>
</svg>