<?xml version="1.0" encoding="UTF-8"?>
<svg xmlns="http://www.w3.org/2000/svg" viewBox="373.00 349.00 771.00 1193.00">
  <path d="M 385.00 897.00 L 383.00 879.00 L 396.00 846.00 L 424.00 798.00 L 438.00 767.00 L 438.00 753.00 L 427.00 739.00 L 405.00 725.00 L 405.00 723.00 L 427.00 733.00 L 427.00 730.00 L 405.00 714.00 L 405.00 712.00 L 427.00 724.00 L 427.00 722.00 L 405.00 706.00 L 394.00 696.00 L 394.00 692.00 L 405.00 697.00 L 427.00 711.00 L 427.00 708.00 L 405.00 688.00 L 405.00 686.00 L 427.00 702.00 L 427.00 700.00 L 405.00 680.00 L 404.00 677.00 L 424.00 691.00 L 425.00 687.00 L 407.00 665.00 L 407.00 661.00 L 425.00 675.00 L 426.00 674.00 L 410.00 658.00 L 406.00 651.00 L 414.00 653.00 L 415.00 651.00 L 409.00 645.00 L 414.00 649.00 L 430.00 663.00 L 431.00 661.00 L 417.00 643.00 L 417.00 640.00 L 431.00 652.00 L 431.00 649.00 L 417.00 631.00 L 417.00 627.00 L 431.00 637.00 L 432.00 635.00 L 420.00 621.00 L 421.00 619.00 L 435.00 629.00 L 436.00 626.00 L 424.00 610.00 L 424.00 607.00 L 436.00 617.00 L 437.00 616.00 L 427.00 604.00 L 428.00 602.00 L 440.00 610.00 L 442.00 606.00 L 434.00 590.00 L 435.00 587.00 L 445.00 597.00 L 447.00 594.00 L 441.00 578.00 L 466.00 538.00 L 522.00 474.00 L 580.00 427.00 L 640.00 397.00 L 709.00 375.00 L 787.00 361.00 L 866.00 359.00 L 946.00 369.00 L 1009.00 394.00 L 1055.00 434.00 L 1092.00 490.00 L 1120.00 562.00 L 1134.00 626.00 L 1134.00 682.00 L 1128.00 728.00 L 1116.00 764.00 L 1076.00 845.00 L 1008.00 971.00 L 963.00 1030.00 L 941.00 1022.00 L 941.00 1024.00 L 963.00 1036.00 L 963.00 1037.00 L 941.00 1027.00 L 940.00 1028.00 L 960.00 1040.00 L 960.00 1041.00 L 940.00 1031.00 L 939.00 1032.00 L 957.00 1044.00 L 956.00 1046.00 L 936.00 1038.00 L 934.00 1040.00 L 950.00 1052.00 L 950.00 1055.00 L 934.00 1049.00 L 930.00 1052.00 L 938.00 1064.00 L 937.00 1067.00 L 927.00 1061.00 L 922.00 1081.00 L 922.00 1127.00 L 931.00 1178.00 L 949.00 1234.00 L 958.00 1269.00 L 958.00 1283.00 L 954.00 1296.00 L 946.00 1308.00 L 884.00 1334.00 L 768.00 1374.00 L 679.00 1412.00 L 617.00 1448.00 L 596.00 1417.00 L 616.00 1319.00 L 614.00 1320.00 L 590.00 1420.00 L 590.00 1418.00 L 614.00 1314.00 L 613.00 1315.00 L 587.00 1421.00 L 587.00 1416.00 L 613.00 1300.00 L 611.00 1301.00 L 581.00 1419.00 L 581.00 1417.00 L 611.00 1295.00 L 610.00 1296.00 L 578.00 1420.00 L 578.00 1418.00 L 610.00 1290.00 L 607.00 1292.00 L 569.00 1424.00 L 568.00 1421.00 L 604.00 1283.00 L 602.00 1284.00 L 562.00 1424.00 L 539.00 1496.00 L 533.00 1500.00 L 552.00 1428.00 L 596.00 1280.00 L 594.00 1281.00 L 546.00 1431.00 L 546.00 1428.00 L 594.00 1272.00 L 590.00 1276.00 L 534.00 1440.00 L 533.00 1438.00 L 587.00 1270.00 L 585.00 1271.00 L 527.00 1441.00 L 496.00 1528.00 L 492.00 1532.00 L 504.00 1491.00 L 532.00 1405.00 L 530.00 1406.00 L 498.00 1494.00 L 514.00 1448.00 L 578.00 1268.00 L 574.00 1270.00 L 502.00 1454.00 L 501.00 1452.00 L 571.00 1264.00 L 569.00 1263.00 L 495.00 1449.00 L 474.00 1500.00 L 506.00 1416.00 L 505.00 1413.00 L 471.00 1491.00 L 469.00 1492.00 L 499.00 1416.00 L 498.00 1414.00 L 466.00 1486.00 L 487.00 1433.00 L 561.00 1255.00 L 560.00 1253.00 L 484.00 1427.00 L 459.00 1483.00 L 485.00 1421.00 L 485.00 1418.00 L 459.00 1474.00 L 456.00 1476.00 L 476.00 1424.00 L 476.00 1420.00 L 456.00 1464.00 L 455.00 1465.00 L 473.00 1423.00 L 473.00 1419.00 L 455.00 1453.00 L 481.00 1394.00 L 551.00 1242.00 L 551.00 1239.00 L 481.00 1385.00 L 478.00 1385.00 L 542.00 1239.00 L 551.00 1160.00 L 505.00 1148.00 L 476.00 1137.00 L 464.00 1127.00 L 449.00 1097.00 L 431.00 1047.00 L 423.00 1016.00 L 425.00 1004.00 L 421.00 994.00 L 411.00 986.00 L 408.00 968.00 L 412.00 940.00 L 409.00 922.00 L 399.00 914.00 L 392.00 909.00 L 388.00 907.00 L 385.00 897.00 Z" fill="black" stroke="black" stroke-width="1"/>
</svg>