<?xml version="1.0" encoding="UTF-8"?>
<svg xmlns="http://www.w3.org/2000/svg" viewBox="365.00 209.00 867.00 1575.00">
  <path d="M 495.00 979.00 L 473.00 973.00 L 475.00 970.00 L 501.00 970.00 L 498.00 967.00 L 466.00 961.00 L 468.00 958.00 L 504.00 958.00 L 501.00 955.00 L 459.00 949.00 L 461.00 946.00 L 507.00 946.00 L 507.00 943.00 L 461.00 937.00 L 461.00 934.00 L 507.00 934.00 L 515.00 931.00 L 485.00 925.00 L 483.00 922.00 L 509.00 922.00 L 510.00 919.00 L 486.00 913.00 L 489.00 912.00 L 519.00 916.00 L 520.00 912.00 L 492.00 900.00 L 461.00 858.00 L 427.00 786.00 L 400.00 716.00 L 380.00 648.00 L 375.00 582.00 L 385.00 518.00 L 412.00 451.00 L 456.00 381.00 L 510.00 321.00 L 574.00 271.00 L 632.00 239.00 L 684.00 225.00 L 748.00 219.00 L 824.00 221.00 L 903.00 244.00 L 985.00 288.00 L 1052.00 341.00 L 1104.00 403.00 L 1129.00 444.00 L 1127.00 464.00 L 1130.00 467.00 L 1138.00 453.00 L 1139.00 457.00 L 1133.00 479.00 L 1135.00 482.00 L 1145.00 466.00 L 1146.00 469.00 L 1138.00 491.00 L 1140.00 494.00 L 1152.00 478.00 L 1154.00 484.00 L 1146.00 512.00 L 1148.00 520.00 L 1160.00 508.00 L 1161.00 511.00 L 1151.00 529.00 L 1152.00 531.00 L 1164.00 517.00 L 1165.00 520.00 L 1155.00 540.00 L 1157.00 543.00 L 1171.00 529.00 L 1172.00 533.00 L 1160.00 555.00 L 1161.00 558.00 L 1175.00 542.00 L 1177.00 549.00 L 1167.00 579.00 L 1168.00 588.00 L 1180.00 576.00 L 1180.00 579.00 L 1168.00 597.00 L 1168.00 599.00 L 1180.00 585.00 L 1180.00 588.00 L 1168.00 608.00 L 1169.00 611.00 L 1183.00 597.00 L 1182.00 603.00 L 1166.00 629.00 L 1167.00 632.00 L 1185.00 612.00 L 1183.00 615.00 L 1161.00 641.00 L 1161.00 643.00 L 1183.00 621.00 L 1180.00 628.00 L 1152.00 664.00 L 1153.00 666.00 L 1183.00 634.00 L 1183.00 637.00 L 1153.00 675.00 L 1152.00 681.00 L 1180.00 655.00 L 1181.00 658.00 L 1155.00 690.00 L 1155.00 693.00 L 1181.00 667.00 L 1182.00 669.00 L 1158.00 699.00 L 1159.00 702.00 L 1185.00 678.00 L 1186.00 681.00 L 1162.00 711.00 L 1164.00 715.00 L 1192.00 693.00 L 1194.00 696.00 L 1170.00 724.00 L 1174.00 766.00 L 1206.00 822.00 L 1222.00 856.00 L 1222.00 868.00 L 1207.00 886.00 L 1177.00 910.00 L 1158.00 969.00 L 1150.00 1063.00 L 1133.00 1120.00 L 1107.00 1140.00 L 1099.00 1157.00 L 1109.00 1171.00 L 1105.00 1196.00 L 1087.00 1232.00 L 1086.00 1265.00 L 1102.00 1295.00 L 1100.00 1298.00 L 1080.00 1274.00 L 1080.00 1277.00 L 1100.00 1307.00 L 1098.00 1310.00 L 1074.00 1286.00 L 1072.00 1289.00 L 1092.00 1319.00 L 1091.00 1321.00 L 1069.00 1295.00 L 1083.00 1325.00 L 1133.00 1411.00 L 1132.00 1414.00 L 1080.00 1334.00 L 1078.00 1335.00 L 1126.00 1417.00 L 1127.00 1424.00 L 1081.00 1356.00 L 1072.00 1347.00 L 1100.00 1397.00 L 1098.00 1396.00 L 1066.00 1344.00 L 1060.00 1338.00 L 1080.00 1378.00 L 1079.00 1378.00 L 1057.00 1338.00 L 1053.00 1333.00 L 1067.00 1363.00 L 1067.00 1372.00 L 1053.00 1360.00 L 1051.00 1368.00 L 1061.00 1396.00 L 1058.00 1394.00 L 1042.00 1362.00 L 1062.00 1412.00 L 1118.00 1544.00 L 1126.00 1567.00 L 1086.00 1481.00 L 1088.00 1491.00 L 1132.00 1597.00 L 1131.00 1600.00 L 1085.00 1500.00 L 1085.00 1504.00 L 1131.00 1612.00 L 1154.00 1677.00 L 1154.00 1699.00 L 1146.00 1726.00 L 1130.00 1758.00 L 1087.00 1774.00 L 1017.00 1774.00 L 976.00 1755.00 L 964.00 1717.00 L 960.00 1715.00 L 964.00 1749.00 L 963.00 1748.00 L 957.00 1712.00 L 954.00 1710.00 L 954.00 1742.00 L 949.00 1737.00 L 939.00 1695.00 L 892.00 1641.00 L 808.00 1575.00 L 732.00 1526.00 L 664.00 1494.00 L 593.00 1470.00 L 519.00 1454.00 L 470.00 1438.00 L 446.00 1422.00 L 432.00 1399.00 L 428.00 1369.00 L 439.00 1315.00 L 465.00 1237.00 L 474.00 1180.00 L 466.00 1144.00 L 471.00 1093.00 L 489.00 1027.00 L 500.00 991.00 L 504.00 985.00 L 495.00 979.00 Z" fill="black" stroke="black" stroke-width="1"/>
</svg>