<?xml version="1.0" encoding="UTF-8"?>
<svg xmlns="http://www.w3.org/2000/svg" viewBox="297.00 195.00 927.00 1571.00">
  <path d="M 367.00 961.00 L 377.00 919.00 L 377.00 895.00 L 367.00 889.00 L 367.00 886.00 L 377.00 886.00 L 375.00 884.00 L 361.00 880.00 L 353.00 876.00 L 351.00 872.00 L 359.00 871.00 L 377.00 873.00 L 376.00 870.00 L 356.00 862.00 L 358.00 860.00 L 382.00 864.00 L 382.00 861.00 L 358.00 851.00 L 359.00 849.00 L 385.00 855.00 L 385.00 853.00 L 359.00 843.00 L 345.00 836.00 L 343.00 832.00 L 358.00 834.00 L 390.00 842.00 L 390.00 839.00 L 358.00 825.00 L 341.00 797.00 L 339.00 755.00 L 331.00 709.00 L 317.00 659.00 L 309.00 618.00 L 307.00 586.00 L 313.00 537.00 L 327.00 471.00 L 338.00 429.00 L 346.00 411.00 L 360.00 389.00 L 380.00 363.00 L 406.00 336.00 L 438.00 308.00 L 477.00 281.00 L 523.00 255.00 L 582.00 232.00 L 654.00 212.00 L 717.00 205.00 L 771.00 211.00 L 803.00 212.00 L 813.00 208.00 L 823.00 210.00 L 833.00 218.00 L 859.00 230.00 L 901.00 246.00 L 943.00 267.00 L 985.00 293.00 L 1013.00 316.00 L 1027.00 336.00 L 1032.00 354.00 L 1028.00 370.00 L 1029.00 371.00 L 1035.00 357.00 L 1038.00 355.00 L 1038.00 365.00 L 1040.00 366.00 L 1044.00 358.00 L 1043.00 363.00 L 1037.00 381.00 L 1038.00 383.00 L 1046.00 369.00 L 1051.00 363.00 L 1053.00 365.00 L 1051.00 375.00 L 1045.00 393.00 L 1057.00 437.00 L 1087.00 507.00 L 1102.00 566.00 L 1102.00 614.00 L 1123.00 662.00 L 1165.00 710.00 L 1193.00 746.00 L 1207.00 770.00 L 1214.00 785.00 L 1214.00 791.00 L 1198.00 802.00 L 1166.00 818.00 L 1165.00 819.00 L 1195.00 805.00 L 1194.00 807.00 L 1162.00 825.00 L 1160.00 828.00 L 1188.00 816.00 L 1188.00 818.00 L 1160.00 834.00 L 1145.00 848.00 L 1143.00 860.00 L 1144.00 873.00 L 1148.00 887.00 L 1149.00 897.00 L 1147.00 903.00 L 1142.00 908.00 L 1134.00 912.00 L 1131.00 919.00 L 1133.00 929.00 L 1130.00 939.00 L 1122.00 949.00 L 1114.00 965.00 L 1106.00 987.00 L 1105.00 1008.00 L 1111.00 1028.00 L 1112.00 1046.00 L 1108.00 1062.00 L 1099.00 1076.00 L 1085.00 1088.00 L 1066.00 1100.00 L 1042.00 1112.00 L 1034.00 1123.00 L 1042.00 1133.00 L 1039.00 1134.00 L 1025.00 1126.00 L 1026.00 1131.00 L 1042.00 1149.00 L 1046.00 1156.00 L 1038.00 1152.00 L 1040.00 1155.00 L 1052.00 1165.00 L 1053.00 1177.00 L 1043.00 1191.00 L 1053.00 1212.00 L 1083.00 1240.00 L 1081.00 1239.00 L 1047.00 1209.00 L 1049.00 1211.00 L 1087.00 1245.00 L 1086.00 1245.00 L 1046.00 1211.00 L 1048.00 1214.00 L 1092.00 1254.00 L 1101.00 1263.00 L 1075.00 1241.00 L 1077.00 1245.00 L 1107.00 1275.00 L 1111.00 1282.00 L 1089.00 1266.00 L 1087.00 1267.00 L 1105.00 1285.00 L 1100.00 1281.00 L 1072.00 1255.00 L 1060.00 1244.00 L 1064.00 1248.00 L 1055.00 1244.00 L 1033.00 1232.00 L 1036.00 1246.00 L 1064.00 1286.00 L 1070.00 1298.00 L 1054.00 1282.00 L 1065.00 1298.00 L 1103.00 1346.00 L 1099.00 1343.00 L 1053.00 1289.00 L 1057.00 1295.00 L 1111.00 1361.00 L 1112.00 1363.00 L 1060.00 1301.00 L 1062.00 1306.00 L 1118.00 1378.00 L 1145.00 1415.00 L 1143.00 1417.00 L 1124.00 1396.00 L 1088.00 1352.00 L 1091.00 1358.00 L 1133.00 1414.00 L 1134.00 1417.00 L 1094.00 1367.00 L 1095.00 1370.00 L 1137.00 1426.00 L 1151.00 1445.00 L 1137.00 1427.00 L 1130.00 1420.00 L 1130.00 1424.00 L 1128.00 1424.00 L 1124.00 1420.00 L 1133.00 1434.00 L 1155.00 1466.00 L 1164.00 1480.00 L 1160.00 1476.00 L 1160.00 1478.00 L 1164.00 1486.00 L 1165.00 1498.00 L 1163.00 1514.00 L 1151.00 1514.00 L 1129.00 1498.00 L 1126.00 1506.00 L 1142.00 1538.00 L 1140.00 1538.00 L 1120.00 1506.00 L 1123.00 1512.00 L 1149.00 1556.00 L 1150.00 1559.00 L 1126.00 1521.00 L 1127.00 1524.00 L 1153.00 1568.00 L 1172.00 1607.00 L 1184.00 1641.00 L 1190.00 1670.00 L 1190.00 1694.00 L 1188.00 1711.00 L 1184.00 1721.00 L 1176.00 1731.00 L 1164.00 1741.00 L 1150.00 1749.00 L 1134.00 1755.00 L 1114.00 1756.00 L 1090.00 1752.00 L 1037.00 1713.00 L 955.00 1639.00 L 893.00 1587.00 L 851.00 1557.00 L 812.00 1532.00 L 776.00 1512.00 L 714.00 1485.00 L 626.00 1451.00 L 535.00 1423.00 L 441.00 1401.00 L 382.00 1385.00 L 358.00 1375.00 L 339.00 1362.00 L 325.00 1346.00 L 317.00 1322.00 L 315.00 1290.00 L 323.00 1248.00 L 341.00 1196.00 L 355.00 1145.00 L 365.00 1095.00 L 366.00 1059.00 L 358.00 1037.00 L 355.00 1018.00 L 357.00 1002.00 L 359.00 991.00 L 361.00 985.00 L 367.00 961.00 Z" fill="black" stroke="black" stroke-width="1"/>
</svg>