<?xml version="1.0" encoding="UTF-8"?>
<svg xmlns="http://www.w3.org/2000/svg" viewBox="340.00 254.00 904.00 1494.00">
  <path d="M 483.00 1024.00 L 493.00 996.00 L 491.00 972.00 L 477.00 952.00 L 471.00 919.00 L 473.00 873.00 L 460.00 838.00 L 432.00 814.00 L 432.00 812.00 L 460.00 832.00 L 458.00 829.00 L 426.00 803.00 L 426.00 801.00 L 458.00 823.00 L 458.00 820.00 L 426.00 792.00 L 426.00 789.00 L 458.00 811.00 L 459.00 808.00 L 429.00 780.00 L 434.00 741.00 L 474.00 691.00 L 495.00 661.00 L 497.00 651.00 L 489.00 627.00 L 471.00 589.00 L 463.00 568.00 L 465.00 564.00 L 471.00 570.00 L 481.00 586.00 L 483.00 583.00 L 477.00 561.00 L 479.00 557.00 L 489.00 571.00 L 492.00 569.00 L 488.00 551.00 L 489.00 547.00 L 495.00 557.00 L 497.00 554.00 L 495.00 538.00 L 497.00 534.00 L 503.00 542.00 L 504.00 536.00 L 500.00 516.00 L 501.00 512.00 L 507.00 524.00 L 508.00 522.00 L 504.00 506.00 L 505.00 503.00 L 511.00 513.00 L 512.00 511.00 L 508.00 497.00 L 509.00 496.00 L 515.00 508.00 L 517.00 506.00 L 515.00 490.00 L 517.00 478.00 L 523.00 470.00 L 555.00 437.00 L 613.00 379.00 L 658.00 339.00 L 690.00 317.00 L 727.00 297.00 L 769.00 279.00 L 830.00 268.00 L 910.00 264.00 L 975.00 272.00 L 1025.00 292.00 L 1064.00 313.00 L 1092.00 335.00 L 1123.00 366.00 L 1157.00 406.00 L 1185.00 462.00 L 1207.00 534.00 L 1219.00 594.00 L 1221.00 642.00 L 1219.00 680.00 L 1213.00 708.00 L 1191.00 770.00 L 1153.00 866.00 L 1128.00 918.00 L 1116.00 926.00 L 1115.00 929.00 L 1125.00 927.00 L 1124.00 932.00 L 1112.00 944.00 L 1113.00 954.00 L 1127.00 962.00 L 1137.00 975.00 L 1143.00 993.00 L 1153.00 1045.00 L 1167.00 1131.00 L 1170.00 1184.00 L 1162.00 1204.00 L 1174.00 1251.00 L 1206.00 1325.00 L 1226.00 1382.00 L 1234.00 1422.00 L 1191.00 1435.00 L 1097.00 1421.00 L 1031.00 1415.00 L 993.00 1417.00 L 952.00 1424.00 L 908.00 1436.00 L 859.00 1454.00 L 805.00 1478.00 L 750.00 1508.00 L 694.00 1544.00 L 634.00 1587.00 L 570.00 1637.00 L 517.00 1684.00 L 475.00 1728.00 L 442.00 1738.00 L 418.00 1714.00 L 406.00 1694.00 L 406.00 1678.00 L 403.00 1675.00 L 397.00 1685.00 L 435.00 1612.00 L 517.00 1456.00 L 514.00 1456.00 L 426.00 1612.00 L 428.00 1607.00 L 520.00 1441.00 L 518.00 1440.00 L 422.00 1604.00 L 422.00 1602.00 L 518.00 1434.00 L 517.00 1432.00 L 419.00 1596.00 L 427.00 1580.00 L 541.00 1384.00 L 539.00 1381.00 L 421.00 1571.00 L 421.00 1569.00 L 539.00 1375.00 L 538.00 1373.00 L 418.00 1563.00 L 381.00 1621.00 L 427.00 1547.00 L 425.00 1544.00 L 375.00 1612.00 L 411.00 1552.00 L 533.00 1364.00 L 531.00 1362.00 L 405.00 1546.00 L 365.00 1602.00 L 411.00 1530.00 L 430.00 1493.00 L 422.00 1491.00 L 460.00 1432.00 L 544.00 1316.00 L 544.00 1313.00 L 460.00 1423.00 L 416.00 1479.00 L 412.00 1481.00 L 454.00 1423.00 L 542.00 1305.00 L 540.00 1303.00 L 448.00 1417.00 L 440.00 1426.00 L 516.00 1330.00 L 517.00 1328.00 L 443.00 1420.00 L 451.00 1408.00 L 541.00 1292.00 L 536.00 1290.00 L 436.00 1402.00 L 435.00 1401.00 L 533.00 1287.00 L 533.00 1284.00 L 435.00 1392.00 L 422.00 1404.00 L 494.00 1320.00 L 491.00 1320.00 L 413.00 1404.00 L 414.00 1402.00 L 494.00 1314.00 L 491.00 1315.00 L 405.00 1405.00 L 408.00 1400.00 L 500.00 1300.00 L 499.00 1298.00 L 405.00 1394.00 L 409.00 1388.00 L 511.00 1280.00 L 512.00 1276.00 L 412.00 1376.00 L 358.00 1426.00 L 350.00 1426.00 L 401.00 1373.00 L 511.00 1267.00 L 511.00 1264.00 L 401.00 1364.00 L 398.00 1365.00 L 502.00 1267.00 L 547.00 1218.00 L 533.00 1218.00 L 534.00 1210.00 L 550.00 1194.00 L 549.00 1191.00 L 531.00 1201.00 L 529.00 1198.00 L 543.00 1182.00 L 537.00 1157.00 L 511.00 1123.00 L 499.00 1099.00 L 501.00 1085.00 L 497.00 1071.00 L 487.00 1057.00 L 481.00 1047.00 L 479.00 1041.00 L 483.00 1024.00 Z" fill="black" stroke="black" stroke-width="1"/>
</svg>