<?xml version="1.0" encoding="UTF-8"?>
<svg xmlns="http://www.w3.org/2000/svg" viewBox="272.00 260.00 903.00 1410.00">
  <path d="M 488.00 920.00 L 460.00 884.00 L 415.00 856.00 L 353.00 836.00 L 352.00 833.00 L 412.00 847.00 L 410.00 846.00 L 346.00 830.00 L 344.00 829.00 L 404.00 843.00 L 402.00 841.00 L 338.00 823.00 L 332.00 820.00 L 384.00 832.00 L 381.00 829.00 L 323.00 811.00 L 290.00 790.00 L 282.00 766.00 L 285.00 717.00 L 299.00 643.00 L 327.00 570.00 L 369.00 498.00 L 393.00 441.00 L 399.00 399.00 L 413.00 377.00 L 435.00 375.00 L 453.00 363.00 L 467.00 341.00 L 502.00 315.00 L 558.00 285.00 L 592.00 270.00 L 604.00 270.00 L 618.00 293.00 L 634.00 339.00 L 637.00 338.00 L 627.00 290.00 L 629.00 289.00 L 643.00 335.00 L 644.00 336.00 L 632.00 292.00 L 634.00 292.00 L 650.00 336.00 L 653.00 336.00 L 643.00 292.00 L 645.00 292.00 L 659.00 336.00 L 661.00 337.00 L 651.00 295.00 L 654.00 294.00 L 670.00 334.00 L 675.00 338.00 L 669.00 306.00 L 672.00 305.00 L 684.00 335.00 L 731.00 352.00 L 813.00 356.00 L 900.00 380.00 L 992.00 424.00 L 1048.00 459.00 L 1068.00 485.00 L 1076.00 509.00 L 1072.00 531.00 L 1074.00 537.00 L 1082.00 527.00 L 1082.00 531.00 L 1074.00 549.00 L 1075.00 552.00 L 1085.00 540.00 L 1086.00 544.00 L 1078.00 564.00 L 1079.00 567.00 L 1089.00 553.00 L 1090.00 559.00 L 1082.00 585.00 L 1084.00 592.00 L 1096.00 580.00 L 1096.00 584.00 L 1084.00 604.00 L 1086.00 607.00 L 1102.00 593.00 L 1103.00 602.00 L 1089.00 634.00 L 1091.00 642.00 L 1109.00 626.00 L 1109.00 630.00 L 1091.00 654.00 L 1092.00 656.00 L 1112.00 636.00 L 1111.00 638.00 L 1089.00 662.00 L 1090.00 665.00 L 1114.00 647.00 L 1114.00 650.00 L 1090.00 674.00 L 1091.00 676.00 L 1117.00 656.00 L 1117.00 662.00 L 1091.00 694.00 L 1093.00 697.00 L 1123.00 671.00 L 1124.00 673.00 L 1096.00 703.00 L 1101.00 752.00 L 1139.00 820.00 L 1144.00 863.00 L 1116.00 881.00 L 1106.00 905.00 L 1114.00 935.00 L 1109.00 988.00 L 1091.00 1064.00 L 1069.00 1110.00 L 1043.00 1126.00 L 1005.00 1136.00 L 955.00 1140.00 L 994.00 1261.00 L 1122.00 1499.00 L 1120.00 1500.00 L 988.00 1264.00 L 988.00 1266.00 L 1120.00 1506.00 L 1165.00 1591.00 L 1123.00 1521.00 L 1122.00 1527.00 L 1162.00 1609.00 L 1159.00 1607.00 L 1113.00 1521.00 L 1113.00 1523.00 L 1159.00 1613.00 L 1155.00 1609.00 L 1101.00 1511.00 L 1100.00 1513.00 L 1152.00 1615.00 L 1112.00 1537.00 L 980.00 1279.00 L 980.00 1281.00 L 1112.00 1543.00 L 1149.00 1619.00 L 1091.00 1509.00 L 1091.00 1514.00 L 1149.00 1634.00 L 1147.00 1633.00 L 1085.00 1511.00 L 1084.00 1516.00 L 1144.00 1648.00 L 1108.00 1575.00 L 976.00 1297.00 L 976.00 1299.00 L 1108.00 1581.00 L 1137.00 1648.00 L 1063.00 1500.00 L 1060.00 1504.00 L 1128.00 1660.00 L 1098.00 1596.00 L 970.00 1312.00 L 965.00 1309.00 L 1083.00 1587.00 L 1083.00 1589.00 L 965.00 1315.00 L 959.00 1310.00 L 1065.00 1574.00 L 1064.00 1576.00 L 956.00 1316.00 L 948.00 1307.00 L 1040.00 1549.00 L 1040.00 1551.00 L 948.00 1313.00 L 943.00 1308.00 L 1025.00 1536.00 L 1024.00 1538.00 L 940.00 1314.00 L 934.00 1309.00 L 1006.00 1523.00 L 1005.00 1525.00 L 931.00 1315.00 L 925.00 1310.00 L 987.00 1510.00 L 987.00 1513.00 L 925.00 1319.00 L 921.00 1315.00 L 975.00 1501.00 L 975.00 1503.00 L 921.00 1321.00 L 919.00 1320.00 L 969.00 1500.00 L 969.00 1504.00 L 919.00 1332.00 L 916.00 1329.00 L 960.00 1495.00 L 962.00 1505.00 L 922.00 1359.00 L 920.00 1358.00 L 956.00 1502.00 L 937.00 1550.00 L 863.00 1502.00 L 755.00 1452.00 L 613.00 1400.00 L 539.00 1357.00 L 533.00 1323.00 L 544.00 1250.00 L 572.00 1138.00 L 568.00 1048.00 L 532.00 980.00 L 511.00 944.00 L 505.00 940.00 L 488.00 920.00 Z" fill="black" stroke="black" stroke-width="1"/>
</svg>