<?xml version="1.0" encoding="UTF-8"?>
<svg xmlns="http://www.w3.org/2000/svg" viewBox="332.00 276.00 903.00 1330.00">
  <path d="M 432.00 984.00 L 428.00 948.00 L 429.00 898.00 L 435.00 834.00 L 434.00 750.00 L 426.00 646.00 L 435.00 558.00 L 461.00 486.00 L 484.00 437.00 L 504.00 411.00 L 536.00 375.00 L 580.00 329.00 L 620.00 300.00 L 656.00 288.00 L 712.00 286.00 L 788.00 294.00 L 861.00 314.00 L 931.00 346.00 L 978.00 374.00 L 1002.00 398.00 L 1014.00 415.00 L 1014.00 425.00 L 1016.00 425.00 L 1020.00 415.00 L 1021.00 419.00 L 1019.00 437.00 L 1023.00 439.00 L 1033.00 425.00 L 1035.00 431.00 L 1029.00 457.00 L 1032.00 459.00 L 1044.00 437.00 L 1046.00 440.00 L 1038.00 468.00 L 1040.00 471.00 L 1052.00 449.00 L 1053.00 451.00 L 1043.00 477.00 L 1046.00 508.00 L 1062.00 544.00 L 1072.00 582.00 L 1076.00 622.00 L 1100.00 669.00 L 1144.00 723.00 L 1154.00 762.00 L 1130.00 786.00 L 1129.00 791.00 L 1151.00 777.00 L 1149.00 779.00 L 1123.00 797.00 L 1113.00 817.00 L 1119.00 839.00 L 1118.00 858.00 L 1110.00 874.00 L 1110.00 889.00 L 1118.00 903.00 L 1117.00 919.00 L 1107.00 937.00 L 1105.00 963.00 L 1111.00 997.00 L 1106.00 1023.00 L 1090.00 1041.00 L 1069.00 1055.00 L 1043.00 1065.00 L 1033.00 1072.00 L 1039.00 1076.00 L 1037.00 1077.00 L 1027.00 1075.00 L 1029.00 1077.00 L 1043.00 1083.00 L 1048.00 1092.00 L 1044.00 1104.00 L 1047.00 1114.00 L 1057.00 1122.00 L 1056.00 1124.00 L 1044.00 1120.00 L 1047.00 1122.00 L 1065.00 1130.00 L 1068.00 1132.00 L 1056.00 1128.00 L 1055.00 1130.00 L 1065.00 1138.00 L 1060.00 1140.00 L 1040.00 1136.00 L 1045.00 1145.00 L 1075.00 1167.00 L 1096.00 1190.00 L 1108.00 1214.00 L 1097.00 1217.00 L 1063.00 1199.00 L 1063.00 1202.00 L 1097.00 1226.00 L 1092.00 1225.00 L 1048.00 1199.00 L 1046.00 1201.00 L 1086.00 1231.00 L 1096.00 1240.00 L 1076.00 1228.00 L 1072.00 1227.00 L 1084.00 1237.00 L 1072.00 1229.00 L 1036.00 1203.00 L 1017.00 1196.00 L 1015.00 1208.00 L 1029.00 1230.00 L 1059.00 1262.00 L 1059.00 1265.00 L 1029.00 1239.00 L 1043.00 1255.00 L 1101.00 1313.00 L 1101.00 1315.00 L 1043.00 1261.00 L 1044.00 1264.00 L 1104.00 1324.00 L 1106.00 1327.00 L 1050.00 1273.00 L 1051.00 1275.00 L 1109.00 1333.00 L 1149.00 1377.00 L 1171.00 1407.00 L 1180.00 1420.00 L 1176.00 1416.00 L 1187.00 1444.00 L 1213.00 1504.00 L 1225.00 1545.00 L 1223.00 1567.00 L 1217.00 1583.00 L 1207.00 1593.00 L 1189.00 1596.00 L 1163.00 1592.00 L 1106.00 1564.00 L 1018.00 1512.00 L 942.00 1476.00 L 878.00 1456.00 L 819.00 1446.00 L 765.00 1446.00 L 677.00 1455.00 L 555.00 1473.00 L 480.00 1473.00 L 452.00 1455.00 L 437.00 1426.00 L 435.00 1386.00 L 419.00 1378.00 L 389.00 1402.00 L 389.00 1399.00 L 419.00 1369.00 L 418.00 1369.00 L 386.00 1399.00 L 386.00 1397.00 L 418.00 1363.00 L 416.00 1362.00 L 380.00 1394.00 L 380.00 1392.00 L 416.00 1356.00 L 414.00 1355.00 L 374.00 1389.00 L 376.00 1383.00 L 420.00 1337.00 L 418.00 1335.00 L 370.00 1377.00 L 370.00 1376.00 L 418.00 1332.00 L 417.00 1329.00 L 367.00 1367.00 L 342.00 1365.00 L 342.00 1323.00 L 355.00 1262.00 L 381.00 1182.00 L 385.00 1143.00 L 367.00 1145.00 L 368.00 1142.00 L 388.00 1134.00 L 388.00 1133.00 L 368.00 1139.00 L 366.00 1138.00 L 382.00 1130.00 L 381.00 1127.00 L 363.00 1129.00 L 361.00 1121.00 L 375.00 1103.00 L 377.00 1094.00 L 367.00 1094.00 L 367.00 1092.00 L 377.00 1088.00 L 374.00 1084.00 L 358.00 1080.00 L 364.00 1074.00 L 392.00 1066.00 L 392.00 1063.00 L 364.00 1065.00 L 365.00 1063.00 L 395.00 1057.00 L 397.00 1055.00 L 371.00 1057.00 L 374.00 1054.00 L 406.00 1046.00 L 424.00 1035.00 L 428.00 1021.00 L 431.00 1011.00 L 433.00 1005.00 L 432.00 984.00 Z" fill="black" stroke="black" stroke-width="1"/>
</svg>