<?xml version="1.0" encoding="UTF-8"?>
<svg xmlns="http://www.w3.org/2000/svg" viewBox="249.00 240.00 997.00 1365.00">
  <path d="M 374.00 881.00 L 374.00 863.00 L 363.00 845.00 L 341.00 827.00 L 349.00 790.00 L 387.00 734.00 L 406.00 678.00 L 406.00 622.00 L 410.00 579.00 L 418.00 549.00 L 419.00 527.00 L 413.00 513.00 L 414.00 510.00 L 422.00 518.00 L 423.00 516.00 L 417.00 504.00 L 418.00 502.00 L 426.00 510.00 L 427.00 508.00 L 421.00 496.00 L 423.00 492.00 L 433.00 496.00 L 435.00 493.00 L 429.00 483.00 L 453.00 453.00 L 507.00 403.00 L 563.00 365.00 L 621.00 339.00 L 693.00 323.00 L 779.00 317.00 L 827.00 300.00 L 837.00 272.00 L 840.00 273.00 L 836.00 303.00 L 839.00 301.00 L 849.00 267.00 L 850.00 267.00 L 842.00 301.00 L 844.00 299.00 L 856.00 261.00 L 859.00 261.00 L 853.00 299.00 L 855.00 299.00 L 865.00 261.00 L 867.00 261.00 L 861.00 299.00 L 864.00 298.00 L 876.00 258.00 L 878.00 257.00 L 870.00 295.00 L 872.00 295.00 L 884.00 257.00 L 885.00 259.00 L 875.00 301.00 L 878.00 301.00 L 894.00 259.00 L 896.00 259.00 L 884.00 301.00 L 887.00 301.00 L 905.00 259.00 L 908.00 260.00 L 896.00 304.00 L 898.00 304.00 L 914.00 260.00 L 916.00 260.00 L 904.00 304.00 L 908.00 305.00 L 928.00 263.00 L 962.00 250.00 L 1010.00 266.00 L 1042.00 288.00 L 1058.00 316.00 L 1080.00 334.00 L 1108.00 342.00 L 1121.00 363.00 L 1119.00 397.00 L 1127.00 421.00 L 1145.00 435.00 L 1160.00 457.00 L 1172.00 487.00 L 1188.00 514.00 L 1208.00 538.00 L 1223.00 574.00 L 1233.00 622.00 L 1236.00 651.00 L 1232.00 661.00 L 1202.00 680.00 L 1146.00 708.00 L 1145.00 711.00 L 1199.00 689.00 L 1200.00 690.00 L 1148.00 714.00 L 1144.00 717.00 L 1188.00 699.00 L 1167.00 708.00 L 1081.00 744.00 L 1073.00 748.00 L 1143.00 720.00 L 1142.00 722.00 L 1070.00 754.00 L 1068.00 757.00 L 1136.00 731.00 L 1135.00 733.00 L 1065.00 763.00 L 1047.00 773.00 L 1081.00 763.00 L 1080.00 766.00 L 1044.00 782.00 L 1021.00 801.00 L 1011.00 823.00 L 994.00 844.00 L 970.00 864.00 L 945.00 898.00 L 919.00 946.00 L 902.00 988.00 L 894.00 1024.00 L 895.00 1081.00 L 905.00 1159.00 L 917.00 1218.00 L 931.00 1258.00 L 936.00 1291.00 L 932.00 1317.00 L 921.00 1336.00 L 903.00 1348.00 L 859.00 1359.00 L 789.00 1369.00 L 720.00 1383.00 L 652.00 1401.00 L 570.00 1435.00 L 474.00 1485.00 L 459.00 1434.00 L 525.00 1282.00 L 523.00 1283.00 L 453.00 1437.00 L 454.00 1433.00 L 526.00 1271.00 L 521.00 1275.00 L 439.00 1445.00 L 439.00 1443.00 L 521.00 1269.00 L 519.00 1270.00 L 433.00 1446.00 L 434.00 1442.00 L 522.00 1258.00 L 520.00 1259.00 L 428.00 1445.00 L 428.00 1443.00 L 520.00 1253.00 L 516.00 1256.00 L 416.00 1452.00 L 416.00 1451.00 L 516.00 1253.00 L 511.00 1257.00 L 401.00 1463.00 L 401.00 1461.00 L 511.00 1251.00 L 506.00 1254.00 L 386.00 1470.00 L 386.00 1467.00 L 506.00 1245.00 L 503.00 1247.00 L 377.00 1473.00 L 311.00 1589.00 L 305.00 1595.00 L 340.00 1530.00 L 416.00 1394.00 L 412.00 1396.00 L 328.00 1536.00 L 356.00 1485.00 L 496.00 1243.00 L 494.00 1241.00 L 350.00 1479.00 L 350.00 1477.00 L 494.00 1235.00 L 493.00 1232.00 L 347.00 1468.00 L 309.00 1527.00 L 379.00 1409.00 L 379.00 1406.00 L 309.00 1518.00 L 306.00 1520.00 L 370.00 1412.00 L 369.00 1410.00 L 303.00 1514.00 L 302.00 1515.00 L 366.00 1413.00 L 365.00 1411.00 L 299.00 1509.00 L 340.00 1444.00 L 488.00 1216.00 L 487.00 1214.00 L 337.00 1438.00 L 290.00 1506.00 L 346.00 1418.00 L 345.00 1416.00 L 287.00 1500.00 L 285.00 1502.00 L 339.00 1422.00 L 338.00 1420.00 L 282.00 1496.00 L 330.00 1424.00 L 482.00 1204.00 L 482.00 1200.00 L 330.00 1412.00 L 275.00 1487.00 L 317.00 1425.00 L 316.00 1422.00 L 272.00 1478.00 L 267.00 1481.00 L 301.00 1431.00 L 301.00 1427.00 L 267.00 1469.00 L 263.00 1472.00 L 289.00 1436.00 L 289.00 1433.00 L 263.00 1463.00 L 259.00 1466.00 L 277.00 1442.00 L 278.00 1440.00 L 262.00 1460.00 L 260.00 1462.00 L 272.00 1446.00 L 273.00 1444.00 L 263.00 1456.00 L 331.00 1368.00 L 477.00 1180.00 L 479.00 1177.00 L 337.00 1359.00 L 336.00 1358.00 L 476.00 1174.00 L 520.00 1079.00 L 468.00 1073.00 L 433.00 1064.00 L 415.00 1052.00 L 406.00 1035.00 L 406.00 1013.00 L 397.00 977.00 L 379.00 927.00 L 371.00 899.00 L 373.00 893.00 L 374.00 881.00 Z" fill="black" stroke="black" stroke-width="1"/>
</svg>