<?xml version="1.0" encoding="UTF-8"?>
<svg xmlns="http://www.w3.org/2000/svg" viewBox="239.00 284.00 942.00 1335.00">
  <path d="M 509.00 902.00 L 463.00 862.00 L 434.00 831.00 L 422.00 809.00 L 386.00 786.00 L 326.00 762.00 L 307.00 753.00 L 329.00 759.00 L 327.00 757.00 L 301.00 747.00 L 303.00 747.00 L 333.00 757.00 L 331.00 755.00 L 297.00 741.00 L 313.00 747.00 L 379.00 773.00 L 377.00 771.00 L 307.00 741.00 L 306.00 739.00 L 374.00 765.00 L 373.00 763.00 L 303.00 733.00 L 267.00 716.00 L 265.00 712.00 L 299.00 725.00 L 369.00 755.00 L 369.00 753.00 L 299.00 719.00 L 259.00 686.00 L 249.00 654.00 L 251.00 619.00 L 265.00 581.00 L 305.00 523.00 L 371.00 445.00 L 417.00 401.00 L 443.00 391.00 L 463.00 368.00 L 477.00 332.00 L 496.00 320.00 L 520.00 332.00 L 549.00 326.00 L 583.00 302.00 L 605.00 305.00 L 615.00 335.00 L 617.00 334.00 L 611.00 302.00 L 615.00 301.00 L 629.00 331.00 L 634.00 330.00 L 630.00 298.00 L 634.00 297.00 L 646.00 327.00 L 650.00 326.00 L 646.00 294.00 L 648.00 295.00 L 656.00 329.00 L 658.00 329.00 L 654.00 295.00 L 656.00 295.00 L 664.00 329.00 L 667.00 330.00 L 665.00 298.00 L 668.00 298.00 L 676.00 330.00 L 678.00 331.00 L 674.00 301.00 L 675.00 301.00 L 681.00 331.00 L 683.00 333.00 L 681.00 307.00 L 684.00 307.00 L 692.00 333.00 L 729.00 344.00 L 795.00 340.00 L 858.00 346.00 L 918.00 362.00 L 970.00 384.00 L 1014.00 412.00 L 1056.00 447.00 L 1096.00 489.00 L 1119.00 534.00 L 1125.00 582.00 L 1125.00 641.00 L 1119.00 711.00 L 1126.00 765.00 L 1146.00 803.00 L 1161.00 839.00 L 1171.00 873.00 L 1163.00 898.00 L 1137.00 914.00 L 1120.00 941.00 L 1112.00 979.00 L 1102.00 1004.00 L 1090.00 1016.00 L 1081.00 1041.00 L 1075.00 1079.00 L 1047.00 1107.00 L 997.00 1125.00 L 958.00 1135.00 L 930.00 1137.00 L 909.00 1143.00 L 895.00 1153.00 L 936.00 1253.00 L 1032.00 1443.00 L 1031.00 1445.00 L 933.00 1259.00 L 933.00 1261.00 L 1031.00 1451.00 L 1031.00 1452.00 L 933.00 1264.00 L 933.00 1267.00 L 1031.00 1461.00 L 1069.00 1538.00 L 1047.00 1498.00 L 1047.00 1503.00 L 1069.00 1553.00 L 1066.00 1551.00 L 1038.00 1497.00 L 1038.00 1499.00 L 1066.00 1557.00 L 1030.00 1484.00 L 930.00 1280.00 L 930.00 1282.00 L 1030.00 1490.00 L 1062.00 1559.00 L 1026.00 1489.00 L 1025.00 1491.00 L 1059.00 1565.00 L 1027.00 1498.00 L 929.00 1290.00 L 928.00 1293.00 L 1024.00 1507.00 L 1049.00 1569.00 L 1003.00 1479.00 L 1001.00 1482.00 L 1043.00 1578.00 L 1017.00 1519.00 L 923.00 1305.00 L 922.00 1307.00 L 1014.00 1525.00 L 1035.00 1580.00 L 985.00 1472.00 L 983.00 1474.00 L 1029.00 1586.00 L 1007.00 1533.00 L 917.00 1315.00 L 916.00 1317.00 L 1004.00 1539.00 L 1004.00 1542.00 L 916.00 1326.00 L 915.00 1329.00 L 1001.00 1551.00 L 1018.00 1597.00 L 966.00 1467.00 L 964.00 1471.00 L 1012.00 1609.00 L 994.00 1565.00 L 910.00 1339.00 L 909.00 1340.00 L 991.00 1568.00 L 991.00 1570.00 L 909.00 1346.00 L 907.00 1348.00 L 985.00 1576.00 L 985.00 1578.00 L 907.00 1354.00 L 905.00 1353.00 L 979.00 1575.00 L 979.00 1577.00 L 905.00 1359.00 L 904.00 1358.00 L 976.00 1574.00 L 986.00 1605.00 L 934.00 1451.00 L 931.00 1449.00 L 977.00 1599.00 L 975.00 1597.00 L 925.00 1443.00 L 924.00 1442.00 L 972.00 1594.00 L 963.00 1567.00 L 897.00 1361.00 L 895.00 1360.00 L 957.00 1564.00 L 957.00 1569.00 L 895.00 1375.00 L 891.00 1371.00 L 945.00 1557.00 L 947.00 1567.00 L 897.00 1401.00 L 895.00 1399.00 L 941.00 1561.00 L 921.00 1609.00 L 835.00 1543.00 L 761.00 1493.00 L 699.00 1459.00 L 626.00 1427.00 L 542.00 1397.00 L 494.00 1377.00 L 482.00 1367.00 L 477.00 1354.00 L 479.00 1338.00 L 492.00 1311.00 L 516.00 1273.00 L 520.00 1264.00 L 504.00 1284.00 L 504.00 1282.00 L 520.00 1258.00 L 521.00 1255.00 L 507.00 1273.00 L 508.00 1270.00 L 524.00 1246.00 L 542.00 1203.00 L 562.00 1141.00 L 571.00 1085.00 L 569.00 1035.00 L 560.00 989.00 L 544.00 947.00 L 535.00 925.00 L 533.00 923.00 L 509.00 902.00 Z" fill="black" stroke="black" stroke-width="1"/>
</svg>