<?xml version="1.0" encoding="UTF-8"?>
<svg xmlns="http://www.w3.org/2000/svg" viewBox="400.00 247.00 931.00 1423.00">
  <path d="M 531.00 936.00 L 541.00 920.00 L 544.00 908.00 L 540.00 900.00 L 531.00 893.00 L 517.00 887.00 L 506.00 879.00 L 498.00 869.00 L 498.00 864.00 L 506.00 864.00 L 506.00 862.00 L 498.00 858.00 L 495.00 855.00 L 497.00 853.00 L 502.00 853.00 L 510.00 855.00 L 515.00 855.00 L 517.00 853.00 L 513.00 850.00 L 503.00 846.00 L 499.00 835.00 L 501.00 817.00 L 500.00 802.00 L 496.00 790.00 L 485.00 769.00 L 467.00 739.00 L 446.00 693.00 L 422.00 631.00 L 410.00 588.00 L 410.00 564.00 L 417.00 533.00 L 431.00 495.00 L 458.00 452.00 L 498.00 404.00 L 526.00 373.00 L 542.00 359.00 L 570.00 341.00 L 610.00 319.00 L 657.00 298.00 L 711.00 278.00 L 753.00 265.00 L 783.00 259.00 L 823.00 257.00 L 873.00 259.00 L 920.00 264.00 L 964.00 272.00 L 1005.00 284.00 L 1043.00 300.00 L 1072.00 315.00 L 1092.00 329.00 L 1108.00 343.00 L 1120.00 357.00 L 1124.00 371.00 L 1120.00 385.00 L 1122.00 387.00 L 1130.00 377.00 L 1132.00 377.00 L 1128.00 387.00 L 1127.00 393.00 L 1129.00 395.00 L 1132.00 392.00 L 1136.00 384.00 L 1136.00 386.00 L 1132.00 398.00 L 1133.00 399.00 L 1139.00 389.00 L 1141.00 388.00 L 1139.00 396.00 L 1140.00 397.00 L 1144.00 391.00 L 1144.00 393.00 L 1140.00 403.00 L 1140.00 406.00 L 1144.00 402.00 L 1146.00 404.00 L 1146.00 412.00 L 1152.00 425.00 L 1164.00 443.00 L 1175.00 463.00 L 1185.00 485.00 L 1191.00 506.00 L 1193.00 526.00 L 1199.00 551.00 L 1209.00 581.00 L 1215.00 611.00 L 1217.00 641.00 L 1231.00 670.00 L 1257.00 698.00 L 1283.00 731.00 L 1309.00 769.00 L 1321.00 792.00 L 1319.00 800.00 L 1314.00 808.00 L 1306.00 816.00 L 1293.00 824.00 L 1275.00 832.00 L 1261.00 847.00 L 1251.00 869.00 L 1245.00 887.00 L 1243.00 901.00 L 1238.00 911.00 L 1230.00 917.00 L 1228.00 923.00 L 1232.00 929.00 L 1232.00 938.00 L 1228.00 950.00 L 1228.00 981.00 L 1232.00 1031.00 L 1230.00 1064.00 L 1222.00 1080.00 L 1213.00 1092.00 L 1203.00 1100.00 L 1195.00 1104.00 L 1189.00 1104.00 L 1173.00 1109.00 L 1147.00 1119.00 L 1140.00 1129.00 L 1152.00 1139.00 L 1158.00 1149.00 L 1158.00 1159.00 L 1155.00 1166.00 L 1149.00 1170.00 L 1144.00 1179.00 L 1140.00 1193.00 L 1131.00 1211.00 L 1117.00 1233.00 L 1105.00 1257.00 L 1095.00 1283.00 L 1087.00 1299.00 L 1081.00 1305.00 L 1083.00 1317.00 L 1093.00 1335.00 L 1092.00 1335.00 L 1080.00 1317.00 L 1093.00 1342.00 L 1131.00 1410.00 L 1131.00 1412.00 L 1093.00 1348.00 L 1093.00 1351.00 L 1131.00 1421.00 L 1142.00 1443.00 L 1126.00 1417.00 L 1126.00 1419.00 L 1142.00 1449.00 L 1139.00 1446.00 L 1117.00 1410.00 L 1117.00 1412.00 L 1139.00 1452.00 L 1135.00 1446.00 L 1105.00 1394.00 L 1091.00 1371.00 L 1093.00 1377.00 L 1093.00 1379.00 L 1091.00 1377.00 L 1116.00 1429.00 L 1168.00 1535.00 L 1181.00 1564.00 L 1155.00 1516.00 L 1156.00 1522.00 L 1184.00 1582.00 L 1197.00 1624.00 L 1195.00 1648.00 L 1190.00 1660.00 L 1182.00 1660.00 L 1151.00 1649.00 L 1097.00 1627.00 L 1030.00 1595.00 L 950.00 1553.00 L 865.00 1514.00 L 775.00 1478.00 L 695.00 1454.00 L 625.00 1442.00 L 564.00 1435.00 L 512.00 1433.00 L 481.00 1431.00 L 471.00 1429.00 L 463.00 1425.00 L 457.00 1419.00 L 450.00 1407.00 L 442.00 1389.00 L 438.00 1369.00 L 438.00 1347.00 L 444.00 1320.00 L 456.00 1288.00 L 463.00 1266.00 L 465.00 1254.00 L 469.00 1244.00 L 475.00 1236.00 L 479.00 1224.00 L 481.00 1208.00 L 488.00 1186.00 L 500.00 1158.00 L 505.00 1135.00 L 503.00 1117.00 L 500.00 1104.00 L 496.00 1096.00 L 494.00 1082.00 L 494.00 1062.00 L 502.00 1028.00 L 518.00 980.00 L 526.00 953.00 L 526.00 947.00 L 531.00 936.00 Z" fill="black" stroke="black" stroke-width="1"/>
</svg>