<?xml version="1.0" encoding="UTF-8"?>
<svg xmlns="http://www.w3.org/2000/svg" viewBox="212.00 165.00 941.00 1518.00">
  <path d="M 414.00 842.00 L 358.00 750.00 L 315.00 695.00 L 285.00 677.00 L 284.00 674.00 L 312.00 686.00 L 307.00 682.00 L 269.00 662.00 L 267.00 659.00 L 301.00 673.00 L 297.00 668.00 L 255.00 644.00 L 230.00 607.00 L 222.00 557.00 L 223.00 508.00 L 233.00 460.00 L 264.00 403.00 L 316.00 337.00 L 363.00 292.00 L 405.00 268.00 L 473.00 247.00 L 567.00 229.00 L 636.00 226.00 L 680.00 238.00 L 717.00 231.00 L 747.00 205.00 L 764.00 196.00 L 768.00 204.00 L 772.00 197.00 L 776.00 175.00 L 783.00 181.00 L 793.00 215.00 L 801.00 214.00 L 807.00 178.00 L 810.00 179.00 L 810.00 217.00 L 812.00 216.00 L 816.00 176.00 L 819.00 176.00 L 821.00 216.00 L 842.00 239.00 L 882.00 245.00 L 919.00 259.00 L 953.00 281.00 L 958.00 329.00 L 934.00 403.00 L 937.00 406.00 L 967.00 338.00 L 969.00 341.00 L 943.00 415.00 L 945.00 418.00 L 975.00 350.00 L 977.00 352.00 L 951.00 424.00 L 954.00 427.00 L 986.00 361.00 L 988.00 363.00 L 960.00 433.00 L 961.00 436.00 L 991.00 372.00 L 993.00 374.00 L 967.00 442.00 L 968.00 444.00 L 996.00 380.00 L 999.00 380.00 L 977.00 444.00 L 973.00 479.00 L 987.00 485.00 L 992.00 494.00 L 988.00 506.00 L 991.00 507.00 L 1001.00 497.00 L 1004.00 501.00 L 1000.00 519.00 L 1003.00 521.00 L 1013.00 507.00 L 1013.00 508.00 L 1003.00 524.00 L 1004.00 525.00 L 1016.00 511.00 L 1018.00 513.00 L 1010.00 531.00 L 1013.00 536.00 L 1027.00 528.00 L 1032.00 537.00 L 1028.00 563.00 L 1033.00 573.00 L 1047.00 567.00 L 1049.00 571.00 L 1039.00 585.00 L 1041.00 587.00 L 1055.00 577.00 L 1056.00 581.00 L 1044.00 599.00 L 1045.00 601.00 L 1059.00 587.00 L 1060.00 588.00 L 1048.00 604.00 L 1048.00 606.00 L 1060.00 594.00 L 1060.00 597.00 L 1048.00 615.00 L 1048.00 620.00 L 1060.00 612.00 L 1062.00 621.00 L 1054.00 647.00 L 1056.00 655.00 L 1068.00 645.00 L 1068.00 647.00 L 1056.00 661.00 L 1056.00 665.00 L 1068.00 659.00 L 1068.00 678.00 L 1056.00 722.00 L 1068.00 768.00 L 1104.00 816.00 L 1108.00 855.00 L 1080.00 885.00 L 1070.00 911.00 L 1078.00 933.00 L 1076.00 977.00 L 1064.00 1043.00 L 1026.00 1093.00 L 962.00 1127.00 L 992.00 1255.00 L 1116.00 1477.00 L 1113.00 1478.00 L 983.00 1258.00 L 983.00 1260.00 L 1113.00 1484.00 L 1140.00 1534.00 L 1064.00 1410.00 L 1065.00 1418.00 L 1143.00 1558.00 L 1139.00 1553.00 L 1053.00 1403.00 L 1053.00 1406.00 L 1139.00 1562.00 L 1137.00 1560.00 L 1047.00 1400.00 L 1046.00 1402.00 L 1134.00 1566.00 L 1132.00 1564.00 L 1040.00 1396.00 L 1040.00 1399.00 L 1132.00 1573.00 L 1130.00 1571.00 L 1034.00 1393.00 L 1034.00 1396.00 L 1130.00 1580.00 L 1110.00 1543.00 L 974.00 1285.00 L 974.00 1289.00 L 1110.00 1555.00 L 1123.00 1586.00 L 1013.00 1382.00 L 1011.00 1391.00 L 1117.00 1613.00 L 1114.00 1610.00 L 1002.00 1382.00 L 1000.00 1385.00 L 1108.00 1619.00 L 1095.00 1593.00 L 961.00 1307.00 L 960.00 1310.00 L 1092.00 1602.00 L 1102.00 1626.00 L 990.00 1382.00 L 988.00 1387.00 L 1096.00 1641.00 L 1093.00 1638.00 L 979.00 1378.00 L 977.00 1381.00 L 1087.00 1647.00 L 1078.00 1629.00 L 950.00 1327.00 L 947.00 1328.00 L 1069.00 1632.00 L 1068.00 1635.00 L 944.00 1337.00 L 938.00 1333.00 L 1050.00 1623.00 L 1051.00 1631.00 L 941.00 1357.00 L 933.00 1351.00 L 1027.00 1613.00 L 1025.00 1608.00 L 927.00 1336.00 L 924.00 1333.00 L 1016.00 1599.00 L 980.00 1673.00 L 816.00 1555.00 L 675.00 1470.00 L 557.00 1418.00 L 487.00 1394.00 L 465.00 1398.00 L 427.00 1384.00 L 373.00 1352.00 L 367.00 1269.00 L 409.00 1135.00 L 444.00 1046.00 L 472.00 1002.00 L 477.00 960.00 L 459.00 920.00 L 448.00 897.00 L 444.00 891.00 L 414.00 842.00 Z" fill="black" stroke="black" stroke-width="1"/>
</svg>