<?xml version="1.0" encoding="UTF-8"?>
<svg xmlns="http://www.w3.org/2000/svg" viewBox="227.00 316.00 905.00 1343.00">
  <path d="M 515.00 945.00 L 493.00 927.00 L 439.00 908.00 L 353.00 888.00 L 350.00 885.00 L 430.00 899.00 L 427.00 897.00 L 341.00 879.00 L 340.00 877.00 L 424.00 891.00 L 422.00 889.00 L 334.00 871.00 L 333.00 868.00 L 419.00 880.00 L 413.00 874.00 L 315.00 850.00 L 258.00 814.00 L 242.00 766.00 L 237.00 715.00 L 243.00 661.00 L 277.00 598.00 L 339.00 526.00 L 375.00 468.00 L 385.00 424.00 L 430.00 383.00 L 510.00 345.00 L 557.00 326.00 L 571.00 326.00 L 586.00 344.00 L 602.00 380.00 L 605.00 380.00 L 595.00 344.00 L 596.00 346.00 L 608.00 386.00 L 612.00 387.00 L 608.00 349.00 L 613.00 348.00 L 627.00 384.00 L 633.00 383.00 L 631.00 345.00 L 636.00 344.00 L 648.00 380.00 L 652.00 381.00 L 648.00 347.00 L 651.00 346.00 L 661.00 378.00 L 666.00 381.00 L 666.00 355.00 L 669.00 354.00 L 675.00 378.00 L 677.00 381.00 L 675.00 363.00 L 677.00 362.00 L 683.00 378.00 L 727.00 381.00 L 809.00 371.00 L 881.00 383.00 L 943.00 417.00 L 988.00 448.00 L 1016.00 476.00 L 1028.00 495.00 L 1024.00 505.00 L 1026.00 506.00 L 1034.00 498.00 L 1036.00 500.00 L 1032.00 512.00 L 1033.00 513.00 L 1039.00 503.00 L 1040.00 508.00 L 1036.00 528.00 L 1039.00 531.00 L 1049.00 517.00 L 1051.00 523.00 L 1045.00 549.00 L 1049.00 556.00 L 1063.00 544.00 L 1064.00 549.00 L 1052.00 571.00 L 1054.00 573.00 L 1070.00 555.00 L 1071.00 557.00 L 1057.00 579.00 L 1058.00 581.00 L 1074.00 563.00 L 1074.00 569.00 L 1058.00 599.00 L 1061.00 602.00 L 1083.00 578.00 L 1084.00 580.00 L 1064.00 608.00 L 1065.00 612.00 L 1087.00 592.00 L 1086.00 597.00 L 1062.00 627.00 L 1063.00 629.00 L 1089.00 603.00 L 1088.00 607.00 L 1060.00 641.00 L 1060.00 644.00 L 1088.00 616.00 L 1088.00 619.00 L 1060.00 653.00 L 1062.00 657.00 L 1094.00 631.00 L 1094.00 634.00 L 1062.00 666.00 L 1063.00 667.00 L 1097.00 637.00 L 1097.00 639.00 L 1063.00 673.00 L 1068.00 721.00 L 1112.00 783.00 L 1122.00 829.00 L 1098.00 859.00 L 1080.00 923.00 L 1068.00 1021.00 L 1048.00 1082.00 L 1020.00 1106.00 L 980.00 1122.00 L 928.00 1130.00 L 896.00 1143.00 L 884.00 1161.00 L 934.00 1282.00 L 1046.00 1506.00 L 1045.00 1507.00 L 931.00 1285.00 L 931.00 1288.00 L 1045.00 1516.00 L 1045.00 1518.00 L 931.00 1294.00 L 929.00 1299.00 L 1039.00 1533.00 L 1039.00 1535.00 L 929.00 1305.00 L 926.00 1311.00 L 1030.00 1553.00 L 1029.00 1556.00 L 923.00 1320.00 L 922.00 1322.00 L 1026.00 1562.00 L 1026.00 1564.00 L 922.00 1328.00 L 919.00 1336.00 L 1017.00 1588.00 L 1016.00 1591.00 L 916.00 1345.00 L 914.00 1347.00 L 1010.00 1597.00 L 1010.00 1600.00 L 914.00 1356.00 L 908.00 1354.00 L 992.00 1594.00 L 992.00 1597.00 L 908.00 1363.00 L 906.00 1361.00 L 986.00 1591.00 L 986.00 1594.00 L 906.00 1370.00 L 902.00 1366.00 L 974.00 1582.00 L 974.00 1585.00 L 902.00 1375.00 L 898.00 1371.00 L 962.00 1573.00 L 963.00 1578.00 L 901.00 1386.00 L 898.00 1383.00 L 954.00 1569.00 L 955.00 1575.00 L 901.00 1401.00 L 899.00 1399.00 L 949.00 1569.00 L 968.00 1649.00 L 956.00 1639.00 L 948.00 1639.00 L 944.00 1649.00 L 934.00 1640.00 L 918.00 1612.00 L 912.00 1609.00 L 916.00 1631.00 L 914.00 1630.00 L 906.00 1606.00 L 904.00 1607.00 L 908.00 1633.00 L 905.00 1630.00 L 895.00 1598.00 L 892.00 1598.00 L 896.00 1630.00 L 893.00 1628.00 L 883.00 1592.00 L 881.00 1593.00 L 887.00 1631.00 L 886.00 1630.00 L 878.00 1590.00 L 876.00 1587.00 L 880.00 1621.00 L 877.00 1618.00 L 867.00 1578.00 L 847.00 1547.00 L 817.00 1525.00 L 721.00 1474.00 L 559.00 1394.00 L 478.00 1337.00 L 478.00 1303.00 L 496.00 1241.00 L 532.00 1151.00 L 545.00 1071.00 L 535.00 1001.00 L 529.00 963.00 L 527.00 957.00 L 515.00 945.00 Z" fill="black" stroke="black" stroke-width="1"/>
</svg>