<?xml version="1.0" encoding="UTF-8"?>
<svg xmlns="http://www.w3.org/2000/svg" viewBox="401.00 223.00 877.00 1508.00">
  <path d="M 652.00 933.00 L 648.00 891.00 L 642.00 859.00 L 634.00 837.00 L 598.00 804.00 L 534.00 760.00 L 515.00 745.00 L 541.00 759.00 L 537.00 755.00 L 503.00 733.00 L 506.00 734.00 L 546.00 758.00 L 544.00 756.00 L 500.00 728.00 L 469.00 705.00 L 451.00 687.00 L 437.00 665.00 L 427.00 639.00 L 419.00 616.00 L 413.00 596.00 L 411.00 561.00 L 413.00 511.00 L 425.00 456.00 L 447.00 396.00 L 468.00 354.00 L 488.00 330.00 L 510.00 312.00 L 534.00 300.00 L 556.00 283.00 L 576.00 261.00 L 592.00 246.00 L 604.00 238.00 L 613.00 239.00 L 619.00 249.00 L 621.00 248.00 L 619.00 236.00 L 622.00 233.00 L 630.00 239.00 L 644.00 239.00 L 664.00 233.00 L 685.00 234.00 L 707.00 242.00 L 748.00 243.00 L 808.00 237.00 L 858.00 237.00 L 898.00 243.00 L 938.00 253.00 L 978.00 267.00 L 1034.00 307.00 L 1106.00 373.00 L 1144.00 410.00 L 1148.00 418.00 L 1147.00 430.00 L 1141.00 446.00 L 1141.00 449.00 L 1147.00 439.00 L 1151.00 437.00 L 1153.00 443.00 L 1151.00 453.00 L 1145.00 467.00 L 1147.00 469.00 L 1157.00 459.00 L 1158.00 462.00 L 1150.00 478.00 L 1147.00 490.00 L 1149.00 498.00 L 1156.00 493.00 L 1168.00 475.00 L 1168.00 478.00 L 1156.00 502.00 L 1156.00 508.00 L 1168.00 496.00 L 1169.00 498.00 L 1159.00 514.00 L 1160.00 513.00 L 1172.00 495.00 L 1170.00 504.00 L 1154.00 540.00 L 1153.00 549.00 L 1167.00 531.00 L 1167.00 534.00 L 1153.00 558.00 L 1155.00 559.00 L 1173.00 537.00 L 1173.00 539.00 L 1155.00 565.00 L 1154.00 570.00 L 1170.00 554.00 L 1171.00 556.00 L 1157.00 576.00 L 1160.00 573.00 L 1180.00 547.00 L 1181.00 550.00 L 1163.00 582.00 L 1173.00 616.00 L 1211.00 652.00 L 1227.00 678.00 L 1221.00 694.00 L 1207.00 712.00 L 1185.00 732.00 L 1177.00 749.00 L 1183.00 763.00 L 1182.00 777.00 L 1174.00 791.00 L 1173.00 805.00 L 1179.00 819.00 L 1177.00 832.00 L 1167.00 844.00 L 1161.00 867.00 L 1159.00 901.00 L 1149.00 925.00 L 1131.00 939.00 L 1094.00 954.00 L 1038.00 970.00 L 1004.00 987.00 L 992.00 1005.00 L 981.00 1033.00 L 971.00 1071.00 L 1039.00 1205.00 L 1185.00 1435.00 L 1254.00 1544.00 L 1246.00 1532.00 L 1250.00 1539.00 L 1266.00 1565.00 L 1262.00 1560.00 L 1238.00 1524.00 L 1239.00 1527.00 L 1265.00 1569.00 L 1262.00 1566.00 L 1230.00 1518.00 L 1232.00 1523.00 L 1268.00 1581.00 L 1205.00 1483.00 L 1043.00 1229.00 L 1043.00 1232.00 L 1205.00 1492.00 L 1205.00 1493.00 L 1043.00 1235.00 L 1043.00 1238.00 L 1205.00 1502.00 L 1254.00 1584.00 L 1190.00 1484.00 L 1190.00 1487.00 L 1254.00 1593.00 L 1251.00 1590.00 L 1181.00 1478.00 L 1181.00 1482.00 L 1251.00 1602.00 L 1205.00 1525.00 L 1043.00 1251.00 L 1043.00 1253.00 L 1205.00 1531.00 L 1246.00 1603.00 L 1166.00 1469.00 L 1166.00 1471.00 L 1246.00 1609.00 L 1244.00 1606.00 L 1160.00 1462.00 L 1159.00 1464.00 L 1241.00 1612.00 L 1238.00 1609.00 L 1150.00 1455.00 L 1150.00 1457.00 L 1238.00 1615.00 L 1202.00 1551.00 L 1042.00 1265.00 L 1041.00 1268.00 L 1199.00 1560.00 L 1228.00 1616.00 L 1128.00 1436.00 L 1126.00 1439.00 L 1222.00 1625.00 L 1216.00 1617.00 L 1108.00 1415.00 L 1107.00 1417.00 L 1213.00 1623.00 L 1189.00 1577.00 L 1035.00 1279.00 L 1034.00 1282.00 L 1186.00 1586.00 L 1186.00 1588.00 L 1034.00 1288.00 L 1032.00 1290.00 L 1180.00 1594.00 L 1180.00 1596.00 L 1032.00 1296.00 L 1029.00 1299.00 L 1171.00 1605.00 L 1183.00 1632.00 L 1065.00 1380.00 L 1063.00 1382.00 L 1177.00 1638.00 L 1165.00 1614.00 L 1027.00 1310.00 L 1025.00 1311.00 L 1159.00 1617.00 L 1167.00 1637.00 L 1049.00 1371.00 L 1047.00 1373.00 L 1161.00 1643.00 L 1153.00 1626.00 L 1023.00 1322.00 L 1020.00 1320.00 L 1144.00 1620.00 L 1144.00 1622.00 L 1020.00 1326.00 L 1015.00 1323.00 L 1129.00 1613.00 L 1129.00 1614.00 L 1015.00 1326.00 L 1012.00 1325.00 L 1120.00 1611.00 L 1123.00 1721.00 L 1021.00 1655.00 L 934.00 1603.00 L 862.00 1565.00 L 788.00 1531.00 L 712.00 1501.00 L 633.00 1477.00 L 551.00 1459.00 L 519.00 1410.00 L 537.00 1330.00 L 547.00 1273.00 L 549.00 1239.00 L 562.00 1204.00 L 586.00 1168.00 L 598.00 1142.00 L 598.00 1126.00 L 608.00 1104.00 L 628.00 1076.00 L 642.00 1038.00 L 650.00 990.00 L 654.00 963.00 L 654.00 957.00 L 652.00 933.00 Z" fill="black" stroke="black" stroke-width="1"/>
</svg>