<?xml version="1.0" encoding="UTF-8"?>
<svg xmlns="http://www.w3.org/2000/svg" viewBox="337.00 287.00 941.00 1553.00">
  <path d="M 493.00 1054.00 L 503.00 1010.00 L 511.00 983.00 L 517.00 973.00 L 515.00 964.00 L 505.00 956.00 L 506.00 953.00 L 518.00 955.00 L 518.00 953.00 L 506.00 947.00 L 507.00 945.00 L 521.00 947.00 L 520.00 944.00 L 504.00 936.00 L 477.00 882.00 L 439.00 782.00 L 415.00 710.00 L 405.00 666.00 L 400.00 621.00 L 400.00 575.00 L 404.00 538.00 L 412.00 510.00 L 432.00 469.00 L 464.00 415.00 L 490.00 379.00 L 510.00 361.00 L 537.00 343.00 L 571.00 325.00 L 605.00 312.00 L 639.00 304.00 L 682.00 299.00 L 734.00 297.00 L 795.00 307.00 L 865.00 329.00 L 923.00 351.00 L 969.00 373.00 L 1003.00 392.00 L 1025.00 408.00 L 1037.00 422.00 L 1039.00 434.00 L 1042.00 437.00 L 1046.00 431.00 L 1047.00 432.00 L 1045.00 440.00 L 1046.00 441.00 L 1050.00 435.00 L 1051.00 436.00 L 1049.00 444.00 L 1050.00 445.00 L 1054.00 439.00 L 1055.00 440.00 L 1053.00 448.00 L 1054.00 455.00 L 1058.00 461.00 L 1062.00 460.00 L 1066.00 452.00 L 1067.00 455.00 L 1065.00 469.00 L 1066.00 471.00 L 1070.00 461.00 L 1071.00 463.00 L 1069.00 477.00 L 1070.00 479.00 L 1074.00 469.00 L 1075.00 471.00 L 1073.00 485.00 L 1074.00 488.00 L 1078.00 480.00 L 1080.00 484.00 L 1080.00 500.00 L 1083.00 505.00 L 1089.00 499.00 L 1090.00 501.00 L 1086.00 511.00 L 1089.00 525.00 L 1099.00 543.00 L 1107.00 563.00 L 1113.00 585.00 L 1115.00 608.00 L 1113.00 632.00 L 1114.00 650.00 L 1118.00 662.00 L 1141.00 697.00 L 1183.00 755.00 L 1204.00 787.00 L 1204.00 793.00 L 1191.00 807.00 L 1165.00 829.00 L 1164.00 832.00 L 1188.00 816.00 L 1187.00 818.00 L 1161.00 838.00 L 1159.00 841.00 L 1181.00 827.00 L 1181.00 828.00 L 1159.00 844.00 L 1158.00 845.00 L 1178.00 831.00 L 1177.00 834.00 L 1155.00 854.00 L 1147.00 872.00 L 1153.00 888.00 L 1153.00 900.00 L 1147.00 908.00 L 1145.00 917.00 L 1147.00 927.00 L 1142.00 942.00 L 1130.00 962.00 L 1126.00 980.00 L 1130.00 996.00 L 1130.00 1016.00 L 1126.00 1040.00 L 1116.00 1061.00 L 1100.00 1079.00 L 1087.00 1091.00 L 1077.00 1097.00 L 1064.00 1101.00 L 1048.00 1103.00 L 1049.00 1110.00 L 1067.00 1122.00 L 1063.00 1147.00 L 1037.00 1185.00 L 1043.00 1221.00 L 1081.00 1255.00 L 1083.00 1260.00 L 1049.00 1236.00 L 1065.00 1249.00 L 1131.00 1299.00 L 1127.00 1297.00 L 1053.00 1243.00 L 1057.00 1248.00 L 1139.00 1312.00 L 1168.00 1336.00 L 1144.00 1320.00 L 1145.00 1322.00 L 1171.00 1342.00 L 1164.00 1337.00 L 1124.00 1307.00 L 1128.00 1313.00 L 1176.00 1355.00 L 1180.00 1361.00 L 1140.00 1331.00 L 1141.00 1334.00 L 1183.00 1370.00 L 1178.00 1367.00 L 1126.00 1325.00 L 1126.00 1327.00 L 1178.00 1373.00 L 1177.00 1375.00 L 1123.00 1333.00 L 1122.00 1336.00 L 1174.00 1384.00 L 1173.00 1385.00 L 1119.00 1339.00 L 1130.00 1353.00 L 1206.00 1427.00 L 1205.00 1428.00 L 1127.00 1356.00 L 1129.00 1359.00 L 1211.00 1437.00 L 1240.00 1465.00 L 1216.00 1443.00 L 1217.00 1446.00 L 1243.00 1474.00 L 1238.00 1471.00 L 1202.00 1437.00 L 1205.00 1443.00 L 1247.00 1489.00 L 1268.00 1518.00 L 1268.00 1530.00 L 1264.00 1542.00 L 1256.00 1554.00 L 1248.00 1560.00 L 1240.00 1560.00 L 1229.00 1555.00 L 1215.00 1545.00 L 1215.00 1570.00 L 1229.00 1630.00 L 1236.00 1676.00 L 1236.00 1708.00 L 1231.00 1740.00 L 1221.00 1772.00 L 1208.00 1797.00 L 1192.00 1815.00 L 1171.00 1826.00 L 1145.00 1830.00 L 1115.00 1825.00 L 1081.00 1811.00 L 1046.00 1795.00 L 1010.00 1777.00 L 949.00 1740.00 L 863.00 1684.00 L 783.00 1639.00 L 709.00 1605.00 L 634.00 1576.00 L 558.00 1552.00 L 475.00 1533.00 L 385.00 1519.00 L 347.00 1482.00 L 361.00 1422.00 L 377.00 1374.00 L 395.00 1338.00 L 413.00 1292.00 L 431.00 1236.00 L 449.00 1195.00 L 467.00 1169.00 L 476.00 1143.00 L 476.00 1117.00 L 478.00 1099.00 L 482.00 1089.00 L 485.00 1082.00 L 487.00 1078.00 L 493.00 1054.00 Z" fill="black" stroke="black" stroke-width="1"/>
</svg>