<?xml version="1.0" encoding="UTF-8"?>
<svg xmlns="http://www.w3.org/2000/svg" viewBox="297.00 256.00 801.00 1451.00">
  <path d="M 533.00 954.00 L 531.00 930.00 L 526.00 913.00 L 518.00 903.00 L 510.00 882.00 L 502.00 850.00 L 466.00 815.00 L 402.00 777.00 L 379.00 763.00 L 397.00 773.00 L 394.00 770.00 L 370.00 754.00 L 374.00 755.00 L 406.00 773.00 L 405.00 772.00 L 371.00 752.00 L 374.00 753.00 L 414.00 775.00 L 413.00 773.00 L 371.00 747.00 L 374.00 748.00 L 422.00 776.00 L 420.00 774.00 L 368.00 742.00 L 380.00 749.00 L 456.00 795.00 L 455.00 794.00 L 377.00 746.00 L 367.00 739.00 L 425.00 773.00 L 424.00 771.00 L 364.00 733.00 L 366.00 733.00 L 430.00 771.00 L 428.00 767.00 L 360.00 721.00 L 368.00 725.00 L 452.00 779.00 L 451.00 776.00 L 365.00 716.00 L 365.00 714.00 L 451.00 770.00 L 450.00 767.00 L 362.00 705.00 L 361.00 703.00 L 447.00 761.00 L 445.00 757.00 L 355.00 691.00 L 309.00 641.00 L 307.00 607.00 L 308.00 582.00 L 312.00 566.00 L 323.00 546.00 L 341.00 522.00 L 354.00 494.00 L 362.00 462.00 L 377.00 434.00 L 399.00 410.00 L 419.00 394.00 L 437.00 386.00 L 453.00 361.00 L 467.00 319.00 L 482.00 302.00 L 498.00 310.00 L 514.00 308.00 L 530.00 296.00 L 565.00 282.00 L 619.00 266.00 L 650.00 270.00 L 658.00 294.00 L 662.00 296.00 L 662.00 276.00 L 664.00 277.00 L 668.00 299.00 L 670.00 301.00 L 670.00 283.00 L 671.00 282.00 L 673.00 298.00 L 674.00 300.00 L 674.00 288.00 L 676.00 288.00 L 680.00 300.00 L 716.00 314.00 L 784.00 330.00 L 847.00 358.00 L 905.00 398.00 L 945.00 431.00 L 967.00 457.00 L 985.00 485.00 L 999.00 515.00 L 1003.00 544.00 L 997.00 572.00 L 996.00 585.00 L 1000.00 583.00 L 1000.00 587.00 L 996.00 597.00 L 999.00 596.00 L 1009.00 584.00 L 1009.00 586.00 L 999.00 602.00 L 996.00 622.00 L 1000.00 646.00 L 1020.00 683.00 L 1056.00 733.00 L 1061.00 769.00 L 1035.00 791.00 L 1031.00 797.00 L 1049.00 787.00 L 1049.00 789.00 L 1031.00 803.00 L 1021.00 850.00 L 1019.00 930.00 L 1008.00 976.00 L 988.00 988.00 L 959.00 997.00 L 921.00 1003.00 L 894.00 1012.00 L 878.00 1024.00 L 866.00 1037.00 L 858.00 1051.00 L 863.00 1067.00 L 881.00 1085.00 L 881.00 1087.00 L 863.00 1073.00 L 867.00 1079.00 L 893.00 1105.00 L 892.00 1107.00 L 864.00 1085.00 L 862.00 1088.00 L 886.00 1116.00 L 888.00 1136.00 L 868.00 1148.00 L 917.00 1247.00 L 1035.00 1433.00 L 1084.00 1511.00 L 1064.00 1481.00 L 1065.00 1484.00 L 1087.00 1520.00 L 1085.00 1518.00 L 1059.00 1478.00 L 1060.00 1481.00 L 1088.00 1527.00 L 1085.00 1524.00 L 1051.00 1472.00 L 1052.00 1476.00 L 1088.00 1536.00 L 1043.00 1465.00 L 917.00 1263.00 L 917.00 1266.00 L 1043.00 1474.00 L 1082.00 1539.00 L 1034.00 1461.00 L 1034.00 1463.00 L 1082.00 1545.00 L 1043.00 1481.00 L 917.00 1271.00 L 916.00 1274.00 L 1040.00 1490.00 L 1067.00 1541.00 L 997.00 1427.00 L 996.00 1431.00 L 1064.00 1553.00 L 1036.00 1504.00 L 912.00 1284.00 L 911.00 1287.00 L 1033.00 1513.00 L 1034.00 1516.00 L 914.00 1296.00 L 913.00 1297.00 L 1031.00 1519.00 L 1032.00 1522.00 L 916.00 1306.00 L 915.00 1308.00 L 1029.00 1528.00 L 1043.00 1558.00 L 957.00 1398.00 L 956.00 1401.00 L 1040.00 1567.00 L 1027.00 1542.00 L 917.00 1326.00 L 915.00 1328.00 L 1021.00 1548.00 L 1021.00 1552.00 L 915.00 1340.00 L 912.00 1343.00 L 1012.00 1561.00 L 1012.00 1563.00 L 912.00 1349.00 L 910.00 1350.00 L 1006.00 1566.00 L 1006.00 1569.00 L 910.00 1359.00 L 907.00 1361.00 L 997.00 1575.00 L 1033.00 1687.00 L 1015.00 1697.00 L 972.00 1677.00 L 904.00 1627.00 L 825.00 1575.00 L 735.00 1521.00 L 652.00 1476.00 L 576.00 1440.00 L 499.00 1410.00 L 421.00 1386.00 L 388.00 1352.00 L 400.00 1308.00 L 430.00 1241.00 L 478.00 1151.00 L 505.00 1097.00 L 511.00 1079.00 L 513.00 1061.00 L 511.00 1043.00 L 516.00 1025.00 L 528.00 1007.00 L 534.00 992.00 L 534.00 980.00 L 534.00 972.00 L 534.00 968.00 L 533.00 954.00 Z" fill="black" stroke="black" stroke-width="1"/>
</svg>