<?xml version="1.0" encoding="UTF-8"?>
<svg xmlns="http://www.w3.org/2000/svg" viewBox="218.00 200.00 901.00 1640.00">
  <path d="M 384.00 979.00 L 396.00 933.00 L 394.00 905.00 L 378.00 895.00 L 380.00 893.00 L 400.00 899.00 L 399.00 897.00 L 377.00 887.00 L 378.00 886.00 L 402.00 894.00 L 402.00 891.00 L 378.00 877.00 L 379.00 875.00 L 405.00 885.00 L 401.00 880.00 L 367.00 860.00 L 347.00 837.00 L 341.00 811.00 L 325.00 780.00 L 299.00 744.00 L 275.00 700.00 L 253.00 648.00 L 238.00 603.00 L 230.00 565.00 L 228.00 518.00 L 232.00 462.00 L 251.00 405.00 L 285.00 347.00 L 313.00 307.00 L 335.00 285.00 L 364.00 265.00 L 400.00 247.00 L 442.00 231.00 L 490.00 217.00 L 534.00 210.00 L 574.00 210.00 L 630.00 222.00 L 702.00 246.00 L 754.00 269.00 L 786.00 291.00 L 821.00 308.00 L 859.00 320.00 L 897.00 338.00 L 935.00 362.00 L 954.00 383.00 L 954.00 401.00 L 957.00 404.00 L 963.00 392.00 L 964.00 394.00 L 960.00 410.00 L 961.00 411.00 L 967.00 397.00 L 971.00 393.00 L 973.00 399.00 L 972.00 409.00 L 968.00 423.00 L 969.00 425.00 L 975.00 415.00 L 976.00 418.00 L 972.00 434.00 L 973.00 437.00 L 979.00 427.00 L 981.00 435.00 L 979.00 461.00 L 981.00 469.00 L 987.00 459.00 L 987.00 462.00 L 981.00 478.00 L 982.00 480.00 L 990.00 468.00 L 990.00 470.00 L 982.00 486.00 L 983.00 488.00 L 993.00 476.00 L 994.00 479.00 L 986.00 497.00 L 986.00 499.00 L 994.00 485.00 L 995.00 487.00 L 989.00 505.00 L 991.00 533.00 L 1001.00 571.00 L 1003.00 601.00 L 997.00 623.00 L 996.00 640.00 L 1000.00 652.00 L 1016.00 674.00 L 1044.00 706.00 L 1065.00 739.00 L 1079.00 773.00 L 1067.00 802.00 L 1029.00 826.00 L 1029.00 829.00 L 1067.00 811.00 L 1065.00 814.00 L 1023.00 838.00 L 1021.00 840.00 L 1059.00 820.00 L 1056.00 826.00 L 1012.00 858.00 L 995.00 883.00 L 1005.00 901.00 L 1007.00 919.00 L 1001.00 937.00 L 1001.00 954.00 L 1007.00 970.00 L 1008.00 988.00 L 1004.00 1008.00 L 974.00 1032.00 L 918.00 1060.00 L 891.00 1080.00 L 893.00 1092.00 L 889.00 1105.00 L 879.00 1119.00 L 905.00 1158.00 L 967.00 1222.00 L 964.00 1225.00 L 896.00 1167.00 L 897.00 1170.00 L 967.00 1234.00 L 975.00 1242.00 L 921.00 1194.00 L 920.00 1196.00 L 972.00 1248.00 L 964.00 1242.00 L 896.00 1178.00 L 902.00 1186.00 L 982.00 1266.00 L 987.00 1272.00 L 917.00 1204.00 L 923.00 1211.00 L 1005.00 1293.00 L 1034.00 1324.00 L 1010.00 1304.00 L 1010.00 1307.00 L 1034.00 1333.00 L 1001.00 1300.00 L 911.00 1208.00 L 910.00 1210.00 L 998.00 1306.00 L 995.00 1305.00 L 901.00 1207.00 L 910.00 1224.00 L 1022.00 1356.00 L 1068.00 1412.00 L 1048.00 1392.00 L 1048.00 1394.00 L 1068.00 1418.00 L 1064.00 1415.00 L 1036.00 1385.00 L 1035.00 1388.00 L 1061.00 1424.00 L 1059.00 1425.00 L 1029.00 1391.00 L 1036.00 1407.00 L 1080.00 1473.00 L 1094.00 1496.00 L 1078.00 1476.00 L 1078.00 1479.00 L 1094.00 1505.00 L 1089.00 1504.00 L 1063.00 1476.00 L 1061.00 1478.00 L 1083.00 1510.00 L 1083.00 1530.00 L 1061.00 1538.00 L 1061.00 1563.00 L 1083.00 1605.00 L 1098.00 1646.00 L 1106.00 1686.00 L 1109.00 1720.00 L 1107.00 1748.00 L 1099.00 1776.00 L 1085.00 1804.00 L 1070.00 1822.00 L 1054.00 1830.00 L 1029.00 1830.00 L 995.00 1822.00 L 925.00 1778.00 L 819.00 1698.00 L 714.00 1624.00 L 610.00 1556.00 L 514.00 1502.00 L 426.00 1462.00 L 346.00 1431.00 L 274.00 1409.00 L 248.00 1370.00 L 268.00 1314.00 L 292.00 1266.00 L 320.00 1226.00 L 342.00 1182.00 L 358.00 1134.00 L 364.00 1100.00 L 360.00 1080.00 L 362.00 1055.00 L 370.00 1025.00 L 375.00 1008.00 L 377.00 1004.00 L 384.00 979.00 Z" fill="black" stroke="black" stroke-width="1"/>
</svg>