<?xml version="1.0" encoding="UTF-8"?>
<svg xmlns="http://www.w3.org/2000/svg" viewBox="346.00 229.00 870.00 1671.00">
  <path d="M 463.00 1014.00 L 473.00 950.00 L 485.00 905.00 L 499.00 879.00 L 502.00 861.00 L 494.00 851.00 L 495.00 848.00 L 505.00 852.00 L 491.00 837.00 L 453.00 803.00 L 416.00 752.00 L 380.00 684.00 L 362.00 611.00 L 362.00 533.00 L 371.00 471.00 L 389.00 425.00 L 426.00 375.00 L 482.00 321.00 L 522.00 287.00 L 546.00 273.00 L 587.00 258.00 L 645.00 242.00 L 709.00 239.00 L 779.00 249.00 L 853.00 273.00 L 931.00 311.00 L 986.00 349.00 L 1018.00 387.00 L 1034.00 413.00 L 1034.00 427.00 L 1036.00 429.00 L 1040.00 419.00 L 1041.00 421.00 L 1039.00 435.00 L 1041.00 437.00 L 1047.00 427.00 L 1049.00 431.00 L 1047.00 449.00 L 1049.00 451.00 L 1055.00 437.00 L 1056.00 439.00 L 1052.00 457.00 L 1054.00 459.00 L 1062.00 445.00 L 1064.00 448.00 L 1060.00 468.00 L 1062.00 471.00 L 1070.00 457.00 L 1072.00 461.00 L 1068.00 483.00 L 1070.00 488.00 L 1078.00 476.00 L 1079.00 478.00 L 1073.00 494.00 L 1074.00 495.00 L 1082.00 481.00 L 1083.00 487.00 L 1077.00 513.00 L 1078.00 518.00 L 1086.00 502.00 L 1087.00 504.00 L 1081.00 524.00 L 1083.00 526.00 L 1093.00 510.00 L 1093.00 513.00 L 1083.00 535.00 L 1081.00 567.00 L 1087.00 609.00 L 1111.00 656.00 L 1153.00 708.00 L 1158.00 751.00 L 1126.00 785.00 L 1127.00 788.00 L 1161.00 760.00 L 1161.00 763.00 L 1127.00 797.00 L 1125.00 802.00 L 1155.00 778.00 L 1156.00 780.00 L 1128.00 808.00 L 1118.00 827.00 L 1126.00 837.00 L 1126.00 848.00 L 1118.00 860.00 L 1115.00 874.00 L 1117.00 890.00 L 1112.00 904.00 L 1100.00 916.00 L 1095.00 940.00 L 1097.00 976.00 L 1092.00 1001.00 L 1080.00 1015.00 L 1062.00 1025.00 L 1038.00 1031.00 L 1030.00 1034.00 L 1038.00 1034.00 L 1039.00 1036.00 L 1033.00 1040.00 L 1037.00 1049.00 L 1051.00 1063.00 L 1048.00 1082.00 L 1028.00 1106.00 L 1025.00 1124.00 L 1039.00 1136.00 L 1038.00 1139.00 L 1022.00 1133.00 L 1025.00 1137.00 L 1047.00 1151.00 L 1046.00 1154.00 L 1022.00 1146.00 L 1022.00 1149.00 L 1046.00 1163.00 L 1056.00 1173.00 L 1052.00 1179.00 L 1055.00 1188.00 L 1065.00 1200.00 L 1063.00 1202.00 L 1049.00 1194.00 L 1051.00 1196.00 L 1069.00 1208.00 L 1070.00 1210.00 L 1054.00 1202.00 L 1064.00 1211.00 L 1100.00 1237.00 L 1097.00 1236.00 L 1055.00 1208.00 L 1054.00 1210.00 L 1094.00 1242.00 L 1102.00 1258.00 L 1078.00 1258.00 L 1055.00 1252.00 L 1033.00 1240.00 L 1046.00 1258.00 L 1094.00 1306.00 L 1090.00 1303.00 L 1034.00 1249.00 L 1034.00 1252.00 L 1090.00 1312.00 L 1090.00 1314.00 L 1034.00 1258.00 L 1041.00 1267.00 L 1111.00 1341.00 L 1107.00 1338.00 L 1029.00 1258.00 L 1033.00 1263.00 L 1119.00 1353.00 L 1160.00 1396.00 L 1156.00 1392.00 L 1157.00 1394.00 L 1163.00 1402.00 L 1153.00 1393.00 L 1127.00 1367.00 L 1129.00 1374.00 L 1159.00 1414.00 L 1158.00 1417.00 L 1126.00 1383.00 L 1127.00 1386.00 L 1161.00 1426.00 L 1171.00 1452.00 L 1157.00 1464.00 L 1161.00 1488.00 L 1183.00 1524.00 L 1180.00 1524.00 L 1152.00 1488.00 L 1150.00 1490.00 L 1174.00 1530.00 L 1184.00 1553.00 L 1180.00 1559.00 L 1166.00 1562.00 L 1142.00 1562.00 L 1147.00 1596.00 L 1181.00 1664.00 L 1178.00 1664.00 L 1138.00 1596.00 L 1139.00 1604.00 L 1181.00 1688.00 L 1179.00 1689.00 L 1133.00 1607.00 L 1134.00 1610.00 L 1182.00 1698.00 L 1206.00 1755.00 L 1206.00 1781.00 L 1194.00 1814.00 L 1170.00 1854.00 L 1144.00 1879.00 L 1116.00 1889.00 L 1088.00 1890.00 L 1060.00 1882.00 L 989.00 1831.00 L 875.00 1737.00 L 784.00 1666.00 L 716.00 1618.00 L 639.00 1572.00 L 553.00 1528.00 L 473.00 1494.00 L 399.00 1470.00 L 360.00 1451.00 L 356.00 1437.00 L 363.00 1395.00 L 381.00 1325.00 L 409.00 1238.00 L 447.00 1134.00 L 464.00 1075.00 L 460.00 1061.00 L 458.00 1052.00 L 458.00 1048.00 L 463.00 1014.00 Z" fill="black" stroke="black" stroke-width="1"/>
</svg>