<?xml version="1.0" encoding="UTF-8"?>
<svg xmlns="http://www.w3.org/2000/svg" viewBox="220.00 194.00 1040.00 1610.00">
  <path d="M 463.00 888.00 L 425.00 836.00 L 411.00 811.00 L 421.00 813.00 L 396.00 799.00 L 336.00 769.00 L 292.00 721.00 L 264.00 655.00 L 251.00 609.00 L 253.00 583.00 L 246.00 563.00 L 230.00 549.00 L 244.00 487.00 L 288.00 377.00 L 334.00 304.00 L 382.00 268.00 L 455.00 241.00 L 553.00 223.00 L 662.00 222.00 L 782.00 238.00 L 844.00 232.00 L 848.00 204.00 L 850.00 205.00 L 850.00 235.00 L 853.00 237.00 L 859.00 211.00 L 862.00 212.00 L 862.00 240.00 L 865.00 240.00 L 871.00 212.00 L 874.00 212.00 L 874.00 240.00 L 880.00 241.00 L 892.00 215.00 L 897.00 216.00 L 895.00 244.00 L 897.00 243.00 L 903.00 213.00 L 909.00 219.00 L 915.00 261.00 L 921.00 263.00 L 927.00 225.00 L 940.00 216.00 L 960.00 236.00 L 971.00 260.00 L 973.00 288.00 L 991.00 298.00 L 1025.00 290.00 L 1036.00 304.00 L 1024.00 340.00 L 1026.00 342.00 L 1042.00 310.00 L 1045.00 311.00 L 1035.00 345.00 L 1036.00 347.00 L 1048.00 317.00 L 1049.00 318.00 L 1039.00 350.00 L 1040.00 352.00 L 1052.00 324.00 L 1054.00 325.00 L 1046.00 355.00 L 1047.00 358.00 L 1057.00 334.00 L 1060.00 337.00 L 1056.00 367.00 L 1057.00 376.00 L 1063.00 364.00 L 1065.00 366.00 L 1063.00 382.00 L 1082.00 409.00 L 1122.00 447.00 L 1150.00 484.00 L 1166.00 520.00 L 1170.00 543.00 L 1162.00 553.00 L 1164.00 554.00 L 1176.00 546.00 L 1177.00 549.00 L 1167.00 563.00 L 1169.00 568.00 L 1183.00 564.00 L 1184.00 570.00 L 1172.00 586.00 L 1173.00 588.00 L 1187.00 576.00 L 1187.00 581.00 L 1173.00 603.00 L 1175.00 608.00 L 1193.00 596.00 L 1193.00 602.00 L 1175.00 626.00 L 1178.00 631.00 L 1202.00 617.00 L 1202.00 623.00 L 1178.00 649.00 L 1180.00 652.00 L 1208.00 632.00 L 1208.00 635.00 L 1180.00 661.00 L 1180.00 664.00 L 1208.00 644.00 L 1207.00 656.00 L 1177.00 700.00 L 1185.00 765.00 L 1231.00 851.00 L 1250.00 901.00 L 1242.00 915.00 L 1221.00 926.00 L 1187.00 934.00 L 1163.00 984.00 L 1149.00 1076.00 L 1102.00 1140.00 L 1022.00 1176.00 L 1047.00 1321.00 L 1177.00 1575.00 L 1175.00 1576.00 L 1041.00 1324.00 L 1041.00 1327.00 L 1175.00 1585.00 L 1225.00 1687.00 L 1191.00 1633.00 L 1190.00 1638.00 L 1222.00 1702.00 L 1219.00 1700.00 L 1181.00 1632.00 L 1180.00 1635.00 L 1216.00 1709.00 L 1213.00 1706.00 L 1171.00 1626.00 L 1170.00 1629.00 L 1210.00 1715.00 L 1208.00 1714.00 L 1164.00 1626.00 L 1163.00 1628.00 L 1205.00 1720.00 L 1160.00 1626.00 L 1028.00 1346.00 L 1027.00 1349.00 L 1157.00 1635.00 L 1156.00 1636.00 L 1024.00 1352.00 L 1022.00 1355.00 L 1150.00 1645.00 L 1183.00 1727.00 L 1121.00 1601.00 L 1118.00 1606.00 L 1174.00 1742.00 L 1139.00 1663.00 L 1013.00 1369.00 L 1010.00 1372.00 L 1130.00 1672.00 L 1129.00 1675.00 L 1007.00 1381.00 L 1000.00 1377.00 L 1108.00 1663.00 L 1131.00 1727.00 L 1069.00 1569.00 L 1066.00 1567.00 L 1122.00 1721.00 L 1146.00 1794.00 L 1138.00 1786.00 L 1086.00 1649.00 L 990.00 1383.00 L 987.00 1380.00 L 1077.00 1640.00 L 1076.00 1642.00 L 984.00 1386.00 L 978.00 1381.00 L 1058.00 1627.00 L 1058.00 1629.00 L 978.00 1387.00 L 975.00 1384.00 L 1049.00 1620.00 L 1049.00 1622.00 L 975.00 1390.00 L 973.00 1388.00 L 1043.00 1616.00 L 1042.00 1620.00 L 970.00 1400.00 L 964.00 1395.00 L 1024.00 1605.00 L 1024.00 1609.00 L 964.00 1407.00 L 959.00 1403.00 L 1009.00 1597.00 L 1010.00 1605.00 L 962.00 1427.00 L 960.00 1425.00 L 1004.00 1599.00 L 977.00 1655.00 L 879.00 1593.00 L 735.00 1528.00 L 545.00 1460.00 L 446.00 1415.00 L 438.00 1393.00 L 462.00 1311.00 L 518.00 1169.00 L 530.00 1055.00 L 498.00 969.00 L 482.00 923.00 L 482.00 917.00 L 463.00 888.00 Z" fill="black" stroke="black" stroke-width="1"/>
</svg>