<?xml version="1.0" encoding="UTF-8"?>
<svg xmlns="http://www.w3.org/2000/svg" viewBox="374.00 351.00 827.00 1453.00">
  <path d="M 583.00 1055.00 L 577.00 993.00 L 536.00 912.00 L 460.00 812.00 L 414.00 745.00 L 398.00 711.00 L 388.00 674.00 L 384.00 634.00 L 389.00 590.00 L 403.00 542.00 L 430.00 494.00 L 470.00 446.00 L 504.00 413.00 L 532.00 395.00 L 575.00 379.00 L 633.00 365.00 L 674.00 361.00 L 698.00 367.00 L 725.00 369.00 L 755.00 367.00 L 794.00 372.00 L 842.00 384.00 L 882.00 400.00 L 914.00 420.00 L 946.00 435.00 L 978.00 445.00 L 1011.00 467.00 L 1045.00 501.00 L 1060.00 529.00 L 1056.00 551.00 L 1058.00 554.00 L 1066.00 538.00 L 1067.00 542.00 L 1061.00 566.00 L 1063.00 568.00 L 1073.00 548.00 L 1074.00 550.00 L 1066.00 574.00 L 1067.00 577.00 L 1077.00 559.00 L 1078.00 560.00 L 1070.00 580.00 L 1070.00 582.00 L 1078.00 566.00 L 1079.00 565.00 L 1073.00 579.00 L 1074.00 581.00 L 1082.00 571.00 L 1083.00 578.00 L 1077.00 602.00 L 1078.00 607.00 L 1086.00 593.00 L 1086.00 595.00 L 1078.00 613.00 L 1080.00 615.00 L 1092.00 601.00 L 1093.00 603.00 L 1083.00 621.00 L 1083.00 623.00 L 1093.00 609.00 L 1094.00 612.00 L 1086.00 632.00 L 1085.00 663.00 L 1091.00 705.00 L 1090.00 742.00 L 1082.00 774.00 L 1096.00 818.00 L 1132.00 874.00 L 1139.00 912.00 L 1117.00 932.00 L 1112.00 953.00 L 1124.00 975.00 L 1126.00 992.00 L 1118.00 1004.00 L 1116.00 1019.00 L 1120.00 1037.00 L 1116.00 1051.00 L 1104.00 1061.00 L 1094.00 1082.00 L 1086.00 1114.00 L 1067.00 1136.00 L 1037.00 1148.00 L 1000.00 1153.00 L 956.00 1151.00 L 929.00 1152.00 L 919.00 1156.00 L 911.00 1168.00 L 905.00 1188.00 L 965.00 1280.00 L 1091.00 1444.00 L 1156.00 1530.00 L 1160.00 1538.00 L 1155.00 1535.00 L 1141.00 1521.00 L 1140.00 1523.00 L 1152.00 1541.00 L 1149.00 1539.00 L 1131.00 1517.00 L 1145.00 1541.00 L 1191.00 1611.00 L 1183.00 1603.00 L 1121.00 1517.00 L 1122.00 1520.00 L 1186.00 1612.00 L 1175.00 1598.00 L 1089.00 1478.00 L 1090.00 1481.00 L 1178.00 1607.00 L 1141.00 1554.00 L 979.00 1322.00 L 979.00 1323.00 L 1141.00 1557.00 L 1176.00 1609.00 L 1084.00 1479.00 L 1084.00 1482.00 L 1176.00 1618.00 L 1174.00 1617.00 L 1078.00 1479.00 L 1078.00 1483.00 L 1174.00 1629.00 L 1172.00 1628.00 L 1072.00 1480.00 L 1072.00 1483.00 L 1172.00 1637.00 L 1141.00 1590.00 L 979.00 1342.00 L 978.00 1345.00 L 1138.00 1599.00 L 1166.00 1645.00 L 1062.00 1483.00 L 1061.00 1487.00 L 1163.00 1657.00 L 1159.00 1653.00 L 1049.00 1475.00 L 1047.00 1478.00 L 1153.00 1662.00 L 1151.00 1661.00 L 1041.00 1475.00 L 1040.00 1478.00 L 1148.00 1670.00 L 1125.00 1631.00 L 971.00 1361.00 L 970.00 1363.00 L 1122.00 1637.00 L 1142.00 1675.00 L 1030.00 1477.00 L 1027.00 1481.00 L 1133.00 1687.00 L 1113.00 1652.00 L 967.00 1376.00 L 965.00 1377.00 L 1107.00 1655.00 L 1124.00 1689.00 L 1016.00 1479.00 L 1014.00 1481.00 L 1118.00 1695.00 L 1101.00 1664.00 L 963.00 1388.00 L 960.00 1391.00 L 1092.00 1673.00 L 1105.00 1702.00 L 999.00 1478.00 L 996.00 1480.00 L 1096.00 1708.00 L 1094.00 1707.00 L 990.00 1477.00 L 987.00 1479.00 L 1085.00 1713.00 L 1073.00 1688.00 L 951.00 1404.00 L 948.00 1406.00 L 1064.00 1694.00 L 1064.00 1696.00 L 948.00 1412.00 L 946.00 1413.00 L 1058.00 1699.00 L 1058.00 1701.00 L 946.00 1419.00 L 943.00 1420.00 L 1049.00 1704.00 L 1049.00 1707.00 L 943.00 1429.00 L 939.00 1427.00 L 1037.00 1701.00 L 1009.00 1794.00 L 855.00 1706.00 L 740.00 1644.00 L 664.00 1608.00 L 584.00 1576.00 L 500.00 1548.00 L 462.00 1502.00 L 470.00 1438.00 L 485.00 1377.00 L 507.00 1319.00 L 502.00 1267.00 L 470.00 1221.00 L 456.00 1194.00 L 460.00 1186.00 L 491.00 1173.00 L 549.00 1155.00 L 550.00 1152.00 L 494.00 1164.00 L 495.00 1162.00 L 553.00 1146.00 L 556.00 1143.00 L 504.00 1153.00 L 505.00 1151.00 L 559.00 1137.00 L 586.00 1122.00 L 586.00 1106.00 L 586.00 1095.00 L 586.00 1089.00 L 583.00 1055.00 Z" fill="black" stroke="black" stroke-width="1"/>
</svg>