<?xml version="1.0" encoding="UTF-8"?>
<svg xmlns="http://www.w3.org/2000/svg" viewBox="431.00 269.00 789.00 1453.00">
  <path d="M 549.00 952.00 L 555.00 916.00 L 541.00 892.00 L 507.00 880.00 L 506.00 878.00 L 538.00 886.00 L 536.00 884.00 L 500.00 872.00 L 502.00 872.00 L 542.00 884.00 L 541.00 882.00 L 499.00 866.00 L 500.00 864.00 L 544.00 876.00 L 544.00 874.00 L 500.00 858.00 L 500.00 856.00 L 544.00 868.00 L 545.00 866.00 L 503.00 850.00 L 504.00 849.00 L 548.00 863.00 L 550.00 861.00 L 510.00 843.00 L 493.00 833.00 L 499.00 831.00 L 521.00 838.00 L 559.00 854.00 L 562.00 854.00 L 530.00 838.00 L 518.00 830.00 L 526.00 830.00 L 511.00 794.00 L 473.00 722.00 L 450.00 667.00 L 442.00 629.00 L 441.00 574.00 L 447.00 502.00 L 461.00 446.00 L 483.00 406.00 L 517.00 368.00 L 563.00 332.00 L 610.00 306.00 L 658.00 290.00 L 729.00 281.00 L 823.00 279.00 L 892.00 285.00 L 936.00 299.00 L 976.00 317.00 L 1012.00 339.00 L 1039.00 360.00 L 1057.00 380.00 L 1070.00 406.00 L 1078.00 438.00 L 1085.00 450.00 L 1091.00 442.00 L 1092.00 445.00 L 1088.00 459.00 L 1089.00 460.00 L 1095.00 448.00 L 1096.00 450.00 L 1092.00 466.00 L 1093.00 468.00 L 1099.00 456.00 L 1100.00 459.00 L 1096.00 477.00 L 1098.00 482.00 L 1106.00 474.00 L 1107.00 476.00 L 1101.00 488.00 L 1102.00 490.00 L 1110.00 482.00 L 1112.00 486.00 L 1108.00 502.00 L 1110.00 505.00 L 1118.00 495.00 L 1119.00 499.00 L 1113.00 517.00 L 1115.00 519.00 L 1125.00 505.00 L 1126.00 506.00 L 1118.00 522.00 L 1119.00 523.00 L 1129.00 509.00 L 1129.00 511.00 L 1119.00 529.00 L 1116.00 552.00 L 1120.00 580.00 L 1146.00 634.00 L 1194.00 714.00 L 1201.00 766.00 L 1167.00 790.00 L 1166.00 794.00 L 1198.00 778.00 L 1197.00 780.00 L 1163.00 800.00 L 1161.00 802.00 L 1191.00 786.00 L 1190.00 787.00 L 1158.00 805.00 L 1142.00 823.00 L 1142.00 841.00 L 1139.00 852.00 L 1133.00 856.00 L 1127.00 871.00 L 1121.00 897.00 L 1120.00 925.00 L 1124.00 955.00 L 1121.00 978.00 L 1111.00 994.00 L 1095.00 1007.00 L 1073.00 1017.00 L 1065.00 1028.00 L 1071.00 1040.00 L 1064.00 1065.00 L 1044.00 1103.00 L 1046.00 1134.00 L 1070.00 1158.00 L 1069.00 1161.00 L 1043.00 1143.00 L 1054.00 1156.00 L 1102.00 1200.00 L 1103.00 1203.00 L 1057.00 1165.00 L 1058.00 1168.00 L 1106.00 1212.00 L 1117.00 1223.00 L 1091.00 1201.00 L 1091.00 1203.00 L 1117.00 1229.00 L 1116.00 1232.00 L 1088.00 1212.00 L 1097.00 1229.00 L 1143.00 1283.00 L 1157.00 1301.00 L 1139.00 1283.00 L 1140.00 1285.00 L 1160.00 1307.00 L 1157.00 1306.00 L 1131.00 1282.00 L 1131.00 1284.00 L 1157.00 1312.00 L 1167.00 1330.00 L 1161.00 1338.00 L 1167.00 1353.00 L 1185.00 1375.00 L 1188.00 1380.00 L 1176.00 1368.00 L 1176.00 1370.00 L 1188.00 1386.00 L 1184.00 1384.00 L 1164.00 1364.00 L 1164.00 1366.00 L 1184.00 1390.00 L 1183.00 1389.00 L 1161.00 1363.00 L 1159.00 1366.00 L 1177.00 1398.00 L 1183.00 1418.00 L 1177.00 1426.00 L 1183.00 1458.00 L 1201.00 1514.00 L 1210.00 1557.00 L 1210.00 1587.00 L 1201.00 1623.00 L 1183.00 1665.00 L 1161.00 1693.00 L 1135.00 1707.00 L 1108.00 1712.00 L 1080.00 1708.00 L 1019.00 1676.00 L 925.00 1616.00 L 874.00 1580.00 L 866.00 1568.00 L 857.00 1562.00 L 847.00 1562.00 L 803.00 1539.00 L 725.00 1493.00 L 657.00 1458.00 L 599.00 1434.00 L 565.00 1424.00 L 555.00 1428.00 L 550.00 1427.00 L 550.00 1421.00 L 548.00 1421.00 L 544.00 1427.00 L 543.00 1426.00 L 545.00 1418.00 L 537.00 1419.00 L 519.00 1429.00 L 510.00 1428.00 L 510.00 1416.00 L 491.00 1405.00 L 453.00 1395.00 L 448.00 1329.00 L 476.00 1207.00 L 504.00 1118.00 L 532.00 1062.00 L 546.00 1021.00 L 546.00 995.00 L 546.00 979.00 L 546.00 973.00 L 549.00 952.00 Z" fill="black" stroke="black" stroke-width="1"/>
</svg>