<?xml version="1.0" encoding="UTF-8"?>
<svg xmlns="http://www.w3.org/2000/svg" viewBox="464.00 354.00 695.00 1407.00">
  <path d="M 622.00 1045.00 L 606.00 1043.00 L 601.00 1042.00 L 607.00 1042.00 L 606.00 1041.00 L 598.00 1039.00 L 602.00 1038.00 L 618.00 1038.00 L 616.00 1036.00 L 596.00 1032.00 L 584.00 1028.00 L 580.00 1024.00 L 573.00 1011.00 L 563.00 989.00 L 551.00 969.00 L 537.00 951.00 L 526.00 934.00 L 518.00 918.00 L 512.00 897.00 L 508.00 871.00 L 500.00 842.00 L 488.00 810.00 L 480.00 784.00 L 476.00 764.00 L 474.00 727.00 L 474.00 673.00 L 476.00 636.00 L 480.00 616.00 L 486.00 598.00 L 494.00 582.00 L 502.00 561.00 L 510.00 535.00 L 519.00 515.00 L 529.00 501.00 L 548.00 480.00 L 576.00 452.00 L 591.00 435.00 L 593.00 429.00 L 599.00 425.00 L 609.00 423.00 L 627.00 416.00 L 653.00 404.00 L 669.00 398.00 L 675.00 398.00 L 692.00 391.00 L 720.00 377.00 L 741.00 368.00 L 755.00 364.00 L 792.00 364.00 L 852.00 368.00 L 919.00 387.00 L 993.00 421.00 L 1044.00 452.00 L 1072.00 480.00 L 1091.00 503.00 L 1101.00 521.00 L 1107.00 535.00 L 1109.00 545.00 L 1109.00 560.00 L 1107.00 580.00 L 1109.00 604.00 L 1115.00 632.00 L 1117.00 661.00 L 1115.00 691.00 L 1115.00 705.00 L 1117.00 703.00 L 1115.00 710.00 L 1109.00 726.00 L 1106.00 746.00 L 1106.00 770.00 L 1109.00 789.00 L 1115.00 803.00 L 1125.00 818.00 L 1139.00 834.00 L 1147.00 847.00 L 1149.00 857.00 L 1149.00 865.00 L 1147.00 871.00 L 1140.00 879.00 L 1128.00 889.00 L 1122.00 899.00 L 1122.00 909.00 L 1125.00 923.00 L 1131.00 941.00 L 1130.00 955.00 L 1122.00 965.00 L 1120.00 976.00 L 1124.00 988.00 L 1123.00 999.00 L 1117.00 1009.00 L 1114.00 1027.00 L 1114.00 1053.00 L 1112.00 1069.00 L 1108.00 1075.00 L 1100.00 1083.00 L 1088.00 1093.00 L 1076.00 1100.00 L 1064.00 1104.00 L 1053.00 1107.00 L 1043.00 1109.00 L 1020.00 1109.00 L 984.00 1107.00 L 963.00 1107.00 L 957.00 1109.00 L 950.00 1112.00 L 942.00 1116.00 L 932.00 1124.00 L 920.00 1136.00 L 911.00 1151.00 L 905.00 1169.00 L 950.00 1276.00 L 1046.00 1472.00 L 1045.00 1474.00 L 947.00 1282.00 L 948.00 1286.00 L 1048.00 1486.00 L 1079.00 1550.00 L 1041.00 1478.00 L 1042.00 1483.00 L 1082.00 1565.00 L 1051.00 1502.00 L 949.00 1294.00 L 949.00 1296.00 L 1051.00 1508.00 L 1079.00 1567.00 L 1033.00 1473.00 L 1034.00 1478.00 L 1082.00 1582.00 L 1079.00 1578.00 L 1025.00 1466.00 L 1025.00 1468.00 L 1079.00 1584.00 L 1076.00 1580.00 L 1016.00 1456.00 L 1015.00 1458.00 L 1073.00 1586.00 L 1072.00 1585.00 L 1012.00 1455.00 L 1012.00 1457.00 L 1072.00 1591.00 L 1071.00 1590.00 L 1009.00 1454.00 L 1009.00 1458.00 L 1071.00 1602.00 L 1068.00 1598.00 L 1000.00 1446.00 L 999.00 1448.00 L 1065.00 1604.00 L 1047.00 1562.00 L 945.00 1322.00 L 945.00 1323.00 L 1047.00 1565.00 L 1098.00 1688.00 L 1098.00 1692.00 L 1062.00 1609.00 L 990.00 1439.00 L 989.00 1441.00 L 1059.00 1615.00 L 1044.00 1579.00 L 944.00 1333.00 L 944.00 1335.00 L 1044.00 1585.00 L 1093.00 1713.00 L 1091.00 1719.00 L 1052.00 1625.00 L 976.00 1431.00 L 975.00 1432.00 L 1049.00 1628.00 L 1038.00 1600.00 L 942.00 1348.00 L 941.00 1350.00 L 1035.00 1606.00 L 1043.00 1630.00 L 965.00 1422.00 L 964.00 1424.00 L 1040.00 1636.00 L 1039.00 1634.00 L 961.00 1418.00 L 960.00 1419.00 L 1036.00 1637.00 L 1028.00 1617.00 L 936.00 1359.00 L 933.00 1361.00 L 1019.00 1623.00 L 1019.00 1624.00 L 933.00 1364.00 L 930.00 1365.00 L 1010.00 1627.00 L 1011.00 1634.00 L 933.00 1386.00 L 930.00 1386.00 L 1002.00 1634.00 L 1027.00 1751.00 L 1005.00 1737.00 L 958.00 1697.00 L 886.00 1631.00 L 820.00 1576.00 L 760.00 1532.00 L 691.00 1490.00 L 613.00 1450.00 L 554.00 1423.00 L 514.00 1409.00 L 493.00 1400.00 L 491.00 1396.00 L 492.00 1385.00 L 496.00 1367.00 L 504.00 1348.00 L 516.00 1328.00 L 523.00 1313.00 L 525.00 1303.00 L 530.00 1293.00 L 538.00 1283.00 L 539.00 1280.00 L 533.00 1284.00 L 537.00 1277.00 L 551.00 1259.00 L 555.00 1252.00 L 549.00 1256.00 L 550.00 1255.00 L 558.00 1249.00 L 559.00 1248.00 L 553.00 1252.00 L 562.00 1238.00 L 586.00 1206.00 L 601.00 1183.00 L 607.00 1169.00 L 614.00 1147.00 L 622.00 1117.00 L 627.00 1091.00 L 629.00 1069.00 L 630.00 1055.00 L 630.00 1049.00 L 622.00 1045.00 Z" fill="black" stroke="black" stroke-width="1"/>
</svg>