<?xml version="1.0" encoding="UTF-8"?>
<svg xmlns="http://www.w3.org/2000/svg" viewBox="290.00 124.00 870.00 1696.00">
  <path d="M 433.00 940.00 L 439.00 920.00 L 446.00 905.00 L 454.00 895.00 L 455.00 872.00 L 449.00 836.00 L 423.00 791.00 L 377.00 737.00 L 343.00 686.00 L 321.00 638.00 L 307.00 596.00 L 301.00 560.00 L 301.00 507.00 L 307.00 437.00 L 327.00 364.00 L 361.00 288.00 L 396.00 233.00 L 432.00 199.00 L 480.00 170.00 L 540.00 146.00 L 599.00 134.00 L 657.00 134.00 L 700.00 139.00 L 728.00 149.00 L 761.00 157.00 L 799.00 163.00 L 842.00 178.00 L 890.00 202.00 L 928.00 229.00 L 956.00 259.00 L 970.00 281.00 L 970.00 295.00 L 973.00 298.00 L 979.00 290.00 L 980.00 293.00 L 976.00 307.00 L 977.00 309.00 L 983.00 299.00 L 984.00 303.00 L 980.00 321.00 L 981.00 322.00 L 987.00 306.00 L 988.00 309.00 L 984.00 331.00 L 985.00 334.00 L 991.00 318.00 L 991.00 319.00 L 985.00 337.00 L 987.00 339.00 L 997.00 325.00 L 998.00 329.00 L 990.00 351.00 L 989.00 354.00 L 995.00 338.00 L 995.00 340.00 L 989.00 360.00 L 990.00 363.00 L 998.00 349.00 L 999.00 354.00 L 993.00 378.00 L 994.00 382.00 L 1002.00 366.00 L 1003.00 368.00 L 997.00 388.00 L 998.00 391.00 L 1006.00 377.00 L 1007.00 379.00 L 1001.00 397.00 L 1002.00 426.00 L 1010.00 466.00 L 1012.00 493.00 L 1008.00 507.00 L 1009.00 509.00 L 1015.00 499.00 L 1014.00 502.00 L 1006.00 518.00 L 1002.00 531.00 L 1002.00 541.00 L 1027.00 576.00 L 1077.00 636.00 L 1102.00 672.00 L 1102.00 684.00 L 1093.00 699.00 L 1075.00 717.00 L 1068.00 725.00 L 1072.00 723.00 L 1070.00 729.00 L 1062.00 743.00 L 1060.00 757.00 L 1064.00 771.00 L 1063.00 783.00 L 1057.00 793.00 L 1054.00 814.00 L 1054.00 846.00 L 1057.00 874.00 L 1063.00 898.00 L 1065.00 921.00 L 1063.00 943.00 L 1041.00 974.00 L 999.00 1014.00 L 984.00 1039.00 L 996.00 1049.00 L 999.00 1061.00 L 993.00 1075.00 L 1000.00 1091.00 L 1020.00 1109.00 L 1019.00 1112.00 L 997.00 1100.00 L 999.00 1103.00 L 1025.00 1121.00 L 1030.00 1125.00 L 1014.00 1115.00 L 1014.00 1117.00 L 1030.00 1131.00 L 1024.00 1130.00 L 996.00 1114.00 L 997.00 1117.00 L 1027.00 1139.00 L 1027.00 1140.00 L 997.00 1120.00 L 997.00 1122.00 L 1027.00 1146.00 L 1027.00 1148.00 L 997.00 1128.00 L 997.00 1130.00 L 1027.00 1154.00 L 1052.00 1176.00 L 1072.00 1196.00 L 1071.00 1198.00 L 1049.00 1182.00 L 1051.00 1186.00 L 1077.00 1210.00 L 1076.00 1213.00 L 1048.00 1195.00 L 1048.00 1198.00 L 1076.00 1222.00 L 1091.00 1241.00 L 1093.00 1255.00 L 1081.00 1251.00 L 1055.00 1229.00 L 1058.00 1235.00 L 1090.00 1269.00 L 1087.00 1268.00 L 1049.00 1232.00 L 1048.00 1234.00 L 1084.00 1274.00 L 1081.00 1274.00 L 1039.00 1234.00 L 1037.00 1236.00 L 1075.00 1280.00 L 1078.00 1286.00 L 1046.00 1254.00 L 1043.00 1253.00 L 1069.00 1283.00 L 1074.00 1290.00 L 1058.00 1274.00 L 1056.00 1273.00 L 1068.00 1287.00 L 1069.00 1289.00 L 1059.00 1279.00 L 1068.00 1307.00 L 1096.00 1373.00 L 1120.00 1443.00 L 1140.00 1517.00 L 1150.00 1590.00 L 1150.00 1662.00 L 1142.00 1718.00 L 1126.00 1758.00 L 1113.00 1783.00 L 1103.00 1793.00 L 1087.00 1802.00 L 1065.00 1810.00 L 1042.00 1810.00 L 1018.00 1802.00 L 995.00 1792.00 L 973.00 1780.00 L 944.00 1759.00 L 908.00 1729.00 L 861.00 1695.00 L 803.00 1657.00 L 772.00 1632.00 L 768.00 1620.00 L 766.00 1619.00 L 766.00 1629.00 L 764.00 1627.00 L 760.00 1613.00 L 722.00 1584.00 L 650.00 1540.00 L 583.00 1503.00 L 521.00 1473.00 L 463.00 1448.00 L 409.00 1428.00 L 363.00 1414.00 L 325.00 1406.00 L 304.00 1399.00 L 300.00 1393.00 L 306.00 1351.00 L 322.00 1273.00 L 337.00 1217.00 L 351.00 1183.00 L 371.00 1145.00 L 397.00 1103.00 L 408.00 1075.00 L 404.00 1061.00 L 409.00 1030.00 L 423.00 982.00 L 430.00 956.00 L 430.00 952.00 L 433.00 940.00 Z" fill="black" stroke="black" stroke-width="1"/>
</svg>