<?xml version="1.0" encoding="UTF-8"?>
<svg xmlns="http://www.w3.org/2000/svg" viewBox="267.00 346.00 825.00 1407.00">
  <path d="M 465.00 952.00 L 495.00 952.00 L 491.00 951.00 L 453.00 949.00 L 451.00 948.00 L 485.00 948.00 L 479.00 945.00 L 433.00 939.00 L 395.00 918.00 L 365.00 882.00 L 342.00 847.00 L 326.00 813.00 L 314.00 779.00 L 306.00 745.00 L 303.00 704.00 L 305.00 656.00 L 299.00 626.00 L 285.00 614.00 L 286.00 611.00 L 302.00 617.00 L 303.00 612.00 L 289.00 596.00 L 290.00 593.00 L 306.00 603.00 L 307.00 599.00 L 293.00 581.00 L 294.00 578.00 L 310.00 590.00 L 311.00 588.00 L 297.00 572.00 L 298.00 569.00 L 314.00 579.00 L 310.00 570.00 L 286.00 542.00 L 287.00 540.00 L 313.00 564.00 L 313.00 561.00 L 287.00 531.00 L 277.00 509.00 L 283.00 495.00 L 291.00 484.00 L 301.00 476.00 L 315.00 471.00 L 333.00 469.00 L 364.00 448.00 L 408.00 408.00 L 447.00 380.00 L 481.00 364.00 L 515.00 362.00 L 549.00 374.00 L 583.00 380.00 L 617.00 380.00 L 660.00 385.00 L 712.00 395.00 L 740.00 394.00 L 744.00 382.00 L 746.00 383.00 L 746.00 397.00 L 749.00 394.00 L 755.00 374.00 L 758.00 375.00 L 758.00 397.00 L 761.00 394.00 L 767.00 366.00 L 769.00 368.00 L 767.00 400.00 L 769.00 400.00 L 775.00 368.00 L 778.00 370.00 L 778.00 406.00 L 781.00 407.00 L 787.00 373.00 L 789.00 374.00 L 787.00 410.00 L 789.00 411.00 L 795.00 377.00 L 796.00 378.00 L 792.00 414.00 L 794.00 416.00 L 802.00 384.00 L 804.00 386.00 L 800.00 422.00 L 801.00 424.00 L 807.00 392.00 L 815.00 371.00 L 825.00 361.00 L 835.00 356.00 L 845.00 356.00 L 859.00 361.00 L 877.00 371.00 L 884.00 384.00 L 880.00 400.00 L 880.00 402.00 L 884.00 390.00 L 886.00 391.00 L 886.00 405.00 L 895.00 415.00 L 913.00 421.00 L 930.00 423.00 L 946.00 421.00 L 951.00 436.00 L 945.00 468.00 L 948.00 471.00 L 960.00 445.00 L 967.00 434.00 L 969.00 438.00 L 964.00 453.00 L 952.00 479.00 L 952.00 482.00 L 964.00 462.00 L 966.00 464.00 L 958.00 488.00 L 958.00 492.00 L 966.00 476.00 L 969.00 477.00 L 967.00 495.00 L 978.00 504.00 L 1002.00 504.00 L 1019.00 507.00 L 1029.00 513.00 L 1035.00 523.00 L 1037.00 537.00 L 1032.00 559.00 L 1020.00 589.00 L 1016.00 602.00 L 1020.00 598.00 L 1017.00 624.00 L 1007.00 680.00 L 1022.00 740.00 L 1062.00 804.00 L 1082.00 841.00 L 1082.00 851.00 L 1078.00 860.00 L 1070.00 868.00 L 1055.00 877.00 L 1033.00 887.00 L 1023.00 901.00 L 1025.00 919.00 L 1020.00 958.00 L 1008.00 1018.00 L 975.00 1071.00 L 921.00 1117.00 L 890.00 1150.00 L 882.00 1170.00 L 878.00 1186.00 L 878.00 1198.00 L 900.00 1243.00 L 944.00 1321.00 L 946.00 1327.00 L 906.00 1261.00 L 907.00 1263.00 L 949.00 1333.00 L 947.00 1330.00 L 901.00 1254.00 L 928.00 1305.00 L 1028.00 1483.00 L 1057.00 1536.00 L 1015.00 1464.00 L 1014.00 1463.00 L 1054.00 1533.00 L 1055.00 1536.00 L 1017.00 1472.00 L 1020.00 1484.00 L 1064.00 1572.00 L 1082.00 1632.00 L 1074.00 1664.00 L 1063.00 1691.00 L 1049.00 1713.00 L 1032.00 1729.00 L 1012.00 1739.00 L 997.00 1743.00 L 987.00 1741.00 L 900.00 1681.00 L 736.00 1563.00 L 617.00 1486.00 L 543.00 1450.00 L 484.00 1425.00 L 440.00 1411.00 L 424.00 1381.00 L 436.00 1335.00 L 468.00 1250.00 L 520.00 1126.00 L 547.00 1051.00 L 549.00 1025.00 L 542.00 1007.00 L 526.00 997.00 L 518.00 985.00 L 518.00 971.00 L 501.00 961.00 L 467.00 955.00 L 465.00 952.00 Z" fill="black" stroke="black" stroke-width="1"/>
</svg>