<?xml version="1.0" encoding="UTF-8"?>
<svg xmlns="http://www.w3.org/2000/svg" viewBox="300.00 210.00 939.00 1604.00">
  <path d="M 339.00 1043.00 L 341.00 1037.00 L 352.00 1033.00 L 372.00 1031.00 L 375.00 1029.00 L 361.00 1027.00 L 362.00 1025.00 L 378.00 1023.00 L 385.00 997.00 L 383.00 947.00 L 385.00 907.00 L 391.00 877.00 L 391.00 855.00 L 385.00 841.00 L 381.00 795.00 L 379.00 717.00 L 375.00 663.00 L 369.00 633.00 L 367.00 587.00 L 369.00 525.00 L 373.00 482.00 L 379.00 458.00 L 393.00 428.00 L 415.00 392.00 L 429.00 365.00 L 435.00 347.00 L 459.00 318.00 L 501.00 278.00 L 539.00 250.00 L 573.00 234.00 L 599.00 226.00 L 617.00 226.00 L 631.00 224.00 L 641.00 220.00 L 662.00 220.00 L 694.00 224.00 L 718.00 225.00 L 734.00 223.00 L 749.00 225.00 L 763.00 231.00 L 777.00 234.00 L 791.00 234.00 L 818.00 242.00 L 858.00 258.00 L 887.00 277.00 L 905.00 299.00 L 932.00 324.00 L 968.00 352.00 L 1005.00 393.00 L 1043.00 447.00 L 1065.00 483.00 L 1071.00 501.00 L 1073.00 525.00 L 1071.00 555.00 L 1090.00 596.00 L 1130.00 648.00 L 1137.00 690.00 L 1111.00 722.00 L 1113.00 725.00 L 1143.00 699.00 L 1143.00 700.00 L 1113.00 728.00 L 1104.00 738.00 L 1116.00 730.00 L 1115.00 733.00 L 1101.00 747.00 L 1110.00 740.00 L 1142.00 712.00 L 1141.00 714.00 L 1107.00 746.00 L 1105.00 749.00 L 1135.00 723.00 L 1134.00 726.00 L 1102.00 758.00 L 1086.00 779.00 L 1086.00 789.00 L 1083.00 799.00 L 1077.00 809.00 L 1077.00 812.00 L 1083.00 808.00 L 1082.00 820.00 L 1074.00 848.00 L 1077.00 874.00 L 1091.00 898.00 L 1098.00 916.00 L 1098.00 928.00 L 1095.00 939.00 L 1089.00 949.00 L 1070.00 968.00 L 1038.00 996.00 L 1013.00 1014.00 L 995.00 1022.00 L 989.00 1032.00 L 995.00 1044.00 L 988.00 1062.00 L 968.00 1086.00 L 954.00 1107.00 L 946.00 1125.00 L 972.00 1157.00 L 1032.00 1203.00 L 1046.00 1217.00 L 1014.00 1199.00 L 1000.00 1192.00 L 1004.00 1196.00 L 1027.00 1212.00 L 1069.00 1240.00 L 1083.00 1250.00 L 1069.00 1242.00 L 1070.00 1245.00 L 1086.00 1259.00 L 1069.00 1250.00 L 1019.00 1218.00 L 1019.00 1220.00 L 1069.00 1256.00 L 1068.00 1256.00 L 1016.00 1220.00 L 1032.00 1241.00 L 1116.00 1319.00 L 1136.00 1342.00 L 1092.00 1310.00 L 1092.00 1313.00 L 1136.00 1351.00 L 1134.00 1352.00 L 1086.00 1316.00 L 1085.00 1318.00 L 1131.00 1358.00 L 1130.00 1358.00 L 1082.00 1318.00 L 1087.00 1326.00 L 1145.00 1382.00 L 1166.00 1404.00 L 1150.00 1392.00 L 1155.00 1398.00 L 1181.00 1422.00 L 1180.00 1423.00 L 1152.00 1401.00 L 1155.00 1408.00 L 1189.00 1444.00 L 1205.00 1467.00 L 1203.00 1477.00 L 1199.00 1484.00 L 1193.00 1488.00 L 1183.00 1490.00 L 1169.00 1490.00 L 1173.00 1508.00 L 1195.00 1544.00 L 1205.00 1561.00 L 1203.00 1559.00 L 1209.00 1583.00 L 1223.00 1633.00 L 1229.00 1674.00 L 1227.00 1706.00 L 1219.00 1737.00 L 1205.00 1767.00 L 1188.00 1788.00 L 1168.00 1800.00 L 1154.00 1804.00 L 1146.00 1800.00 L 1133.00 1800.00 L 1115.00 1804.00 L 1093.00 1802.00 L 1067.00 1794.00 L 970.00 1736.00 L 802.00 1628.00 L 659.00 1553.00 L 541.00 1511.00 L 439.00 1482.00 L 353.00 1466.00 L 310.00 1450.00 L 310.00 1434.00 L 319.00 1396.00 L 337.00 1336.00 L 344.00 1292.00 L 340.00 1264.00 L 344.00 1232.00 L 356.00 1196.00 L 366.00 1172.00 L 374.00 1160.00 L 373.00 1154.00 L 363.00 1154.00 L 365.00 1152.00 L 379.00 1148.00 L 387.00 1144.00 L 389.00 1140.00 L 380.00 1140.00 L 360.00 1144.00 L 355.00 1144.00 L 365.00 1140.00 L 363.00 1138.00 L 349.00 1138.00 L 354.00 1135.00 L 378.00 1129.00 L 379.00 1128.00 L 357.00 1132.00 L 357.00 1130.00 L 379.00 1122.00 L 381.00 1119.00 L 363.00 1121.00 L 360.00 1120.00 L 372.00 1116.00 L 372.00 1114.00 L 360.00 1114.00 L 362.00 1112.00 L 378.00 1108.00 L 378.00 1105.00 L 362.00 1103.00 L 360.00 1101.00 L 372.00 1099.00 L 372.00 1097.00 L 360.00 1095.00 L 362.00 1093.00 L 378.00 1091.00 L 379.00 1089.00 L 365.00 1087.00 L 360.00 1083.00 L 364.00 1077.00 L 361.00 1073.00 L 351.00 1071.00 L 345.00 1065.00 L 343.00 1055.00 L 341.00 1049.00 L 339.00 1047.00 L 339.00 1043.00 Z" fill="black" stroke="black" stroke-width="1"/>
</svg>