<?xml version="1.0" encoding="UTF-8"?>
<svg xmlns="http://www.w3.org/2000/svg" viewBox="288.00 180.00 919.00 1587.00">
  <path d="M 546.00 917.00 L 538.00 859.00 L 517.00 815.00 L 483.00 785.00 L 457.00 753.00 L 439.00 719.00 L 415.00 690.00 L 385.00 666.00 L 384.00 664.00 L 412.00 684.00 L 408.00 679.00 L 372.00 649.00 L 346.00 621.00 L 330.00 595.00 L 326.00 585.00 L 334.00 591.00 L 328.00 584.00 L 308.00 564.00 L 298.00 541.00 L 298.00 515.00 L 306.00 485.00 L 322.00 451.00 L 346.00 414.00 L 378.00 374.00 L 419.00 337.00 L 469.00 303.00 L 507.00 281.00 L 533.00 271.00 L 568.00 245.00 L 612.00 203.00 L 643.00 190.00 L 661.00 206.00 L 682.00 213.00 L 706.00 211.00 L 741.00 215.00 L 787.00 225.00 L 810.00 249.00 L 810.00 287.00 L 812.00 288.00 L 816.00 252.00 L 819.00 253.00 L 821.00 291.00 L 824.00 293.00 L 828.00 259.00 L 830.00 259.00 L 830.00 293.00 L 832.00 295.00 L 836.00 265.00 L 839.00 265.00 L 841.00 295.00 L 859.00 314.00 L 893.00 322.00 L 926.00 335.00 L 958.00 353.00 L 992.00 380.00 L 1028.00 416.00 L 1053.00 452.00 L 1067.00 488.00 L 1068.00 527.00 L 1056.00 569.00 L 1054.00 586.00 L 1062.00 578.00 L 1062.00 580.00 L 1054.00 592.00 L 1055.00 594.00 L 1065.00 586.00 L 1066.00 589.00 L 1058.00 603.00 L 1074.00 643.00 L 1114.00 709.00 L 1121.00 753.00 L 1095.00 775.00 L 1073.00 832.00 L 1055.00 924.00 L 1034.00 979.00 L 1010.00 997.00 L 974.00 1013.00 L 926.00 1027.00 L 894.00 1046.00 L 878.00 1070.00 L 957.00 1210.00 L 1131.00 1466.00 L 1131.00 1468.00 L 957.00 1216.00 L 957.00 1219.00 L 1131.00 1477.00 L 1194.00 1571.00 L 1146.00 1501.00 L 1147.00 1504.00 L 1197.00 1580.00 L 1193.00 1576.00 L 1135.00 1492.00 L 1135.00 1494.00 L 1193.00 1582.00 L 1190.00 1579.00 L 1126.00 1485.00 L 1126.00 1488.00 L 1190.00 1588.00 L 1186.00 1584.00 L 1114.00 1476.00 L 1114.00 1479.00 L 1186.00 1593.00 L 1184.00 1591.00 L 1108.00 1473.00 L 1108.00 1474.00 L 1184.00 1594.00 L 1133.00 1514.00 L 955.00 1234.00 L 955.00 1236.00 L 1133.00 1520.00 L 1179.00 1596.00 L 1093.00 1464.00 L 1092.00 1467.00 L 1176.00 1605.00 L 1172.00 1601.00 L 1080.00 1455.00 L 1079.00 1457.00 L 1169.00 1607.00 L 1167.00 1605.00 L 1073.00 1451.00 L 1073.00 1453.00 L 1167.00 1611.00 L 1165.00 1609.00 L 1067.00 1447.00 L 1066.00 1448.00 L 1162.00 1612.00 L 1160.00 1610.00 L 1060.00 1442.00 L 1059.00 1444.00 L 1157.00 1616.00 L 1155.00 1614.00 L 1053.00 1438.00 L 1052.00 1440.00 L 1152.00 1620.00 L 1117.00 1559.00 L 947.00 1257.00 L 946.00 1259.00 L 1114.00 1565.00 L 1142.00 1618.00 L 1030.00 1418.00 L 1028.00 1421.00 L 1136.00 1627.00 L 1131.00 1622.00 L 1013.00 1406.00 L 1010.00 1409.00 L 1122.00 1631.00 L 1098.00 1585.00 L 938.00 1271.00 L 937.00 1273.00 L 1095.00 1591.00 L 1115.00 1633.00 L 997.00 1399.00 L 996.00 1400.00 L 1112.00 1636.00 L 1168.00 1755.00 L 1164.00 1757.00 L 1086.00 1599.00 L 934.00 1281.00 L 932.00 1283.00 L 1080.00 1605.00 L 1091.00 1634.00 L 965.00 1370.00 L 961.00 1374.00 L 1079.00 1646.00 L 1067.00 1619.00 L 925.00 1293.00 L 922.00 1291.00 L 1058.00 1613.00 L 1065.00 1633.00 L 943.00 1351.00 L 938.00 1348.00 L 1050.00 1624.00 L 1043.00 1607.00 L 917.00 1297.00 L 916.00 1296.00 L 1040.00 1604.00 L 1097.00 1754.00 L 1087.00 1746.00 L 1025.00 1595.00 L 911.00 1301.00 L 909.00 1300.00 L 1019.00 1592.00 L 1022.00 1601.00 L 918.00 1327.00 L 915.00 1325.00 L 1013.00 1595.00 L 1060.00 1728.00 L 1056.00 1724.00 L 1004.00 1583.00 L 904.00 1305.00 L 903.00 1304.00 L 1001.00 1580.00 L 1004.00 1686.00 L 912.00 1622.00 L 823.00 1565.00 L 737.00 1515.00 L 645.00 1467.00 L 547.00 1421.00 L 471.00 1390.00 L 417.00 1374.00 L 391.00 1357.00 L 393.00 1339.00 L 420.00 1284.00 L 472.00 1192.00 L 504.00 1125.00 L 516.00 1083.00 L 527.00 1058.00 L 537.00 1050.00 L 544.00 1024.00 L 548.00 980.00 L 550.00 955.00 L 550.00 949.00 L 546.00 917.00 Z" fill="black" stroke="black" stroke-width="1"/>
</svg>