<?xml version="1.0" encoding="UTF-8"?>
<svg xmlns="http://www.w3.org/2000/svg" viewBox="345.00 230.00 822.00 1559.00">
  <path d="M 480.00 986.00 L 492.00 938.00 L 505.00 905.00 L 519.00 887.00 L 522.00 873.00 L 514.00 863.00 L 507.00 847.00 L 501.00 825.00 L 479.00 785.00 L 441.00 727.00 L 417.00 686.00 L 407.00 662.00 L 399.00 634.00 L 393.00 602.00 L 391.00 565.00 L 393.00 523.00 L 406.00 471.00 L 430.00 409.00 L 449.00 369.00 L 463.00 351.00 L 491.00 326.00 L 533.00 294.00 L 585.00 268.00 L 647.00 248.00 L 707.00 240.00 L 765.00 244.00 L 821.00 256.00 L 875.00 276.00 L 932.00 320.00 L 992.00 388.00 L 1021.00 431.00 L 1019.00 449.00 L 1021.00 451.00 L 1027.00 437.00 L 1029.00 444.00 L 1027.00 472.00 L 1030.00 477.00 L 1038.00 459.00 L 1039.00 458.00 L 1033.00 474.00 L 1033.00 477.00 L 1039.00 467.00 L 1039.00 471.00 L 1033.00 489.00 L 1034.00 490.00 L 1042.00 474.00 L 1043.00 476.00 L 1037.00 496.00 L 1038.00 499.00 L 1046.00 485.00 L 1047.00 488.00 L 1041.00 508.00 L 1043.00 511.00 L 1053.00 497.00 L 1054.00 499.00 L 1046.00 517.00 L 1047.00 518.00 L 1057.00 502.00 L 1058.00 505.00 L 1050.00 527.00 L 1052.00 528.00 L 1064.00 508.00 L 1064.00 512.00 L 1052.00 540.00 L 1054.00 541.00 L 1070.00 515.00 L 1070.00 518.00 L 1054.00 550.00 L 1054.00 553.00 L 1070.00 527.00 L 1070.00 532.00 L 1054.00 568.00 L 1049.00 593.00 L 1055.00 607.00 L 1078.00 636.00 L 1118.00 680.00 L 1138.00 707.00 L 1138.00 717.00 L 1126.00 735.00 L 1102.00 761.00 L 1092.00 783.00 L 1096.00 801.00 L 1097.00 819.00 L 1095.00 837.00 L 1096.00 850.00 L 1100.00 858.00 L 1097.00 874.00 L 1087.00 898.00 L 1083.00 925.00 L 1085.00 955.00 L 1083.00 976.00 L 1077.00 988.00 L 1062.00 1003.00 L 1038.00 1021.00 L 1031.00 1034.00 L 1041.00 1042.00 L 1046.00 1048.00 L 1046.00 1052.00 L 1037.00 1069.00 L 1019.00 1099.00 L 1018.00 1119.00 L 1034.00 1129.00 L 1040.00 1133.00 L 1036.00 1131.00 L 1037.00 1132.00 L 1043.00 1136.00 L 1039.00 1136.00 L 1025.00 1132.00 L 1026.00 1135.00 L 1042.00 1145.00 L 1039.00 1144.00 L 1017.00 1132.00 L 1017.00 1134.00 L 1039.00 1150.00 L 1038.00 1152.00 L 1014.00 1140.00 L 1014.00 1143.00 L 1038.00 1161.00 L 1049.00 1173.00 L 1047.00 1179.00 L 1053.00 1190.00 L 1067.00 1206.00 L 1066.00 1208.00 L 1050.00 1196.00 L 1053.00 1200.00 L 1075.00 1220.00 L 1075.00 1222.00 L 1053.00 1206.00 L 1054.00 1208.00 L 1078.00 1228.00 L 1076.00 1227.00 L 1048.00 1205.00 L 1060.00 1217.00 L 1112.00 1263.00 L 1128.00 1278.00 L 1108.00 1262.00 L 1105.00 1260.00 L 1119.00 1272.00 L 1120.00 1275.00 L 1108.00 1269.00 L 1110.00 1274.00 L 1126.00 1290.00 L 1127.00 1299.00 L 1113.00 1301.00 L 1085.00 1283.00 L 1043.00 1245.00 L 1040.00 1245.00 L 1076.00 1283.00 L 1077.00 1286.00 L 1043.00 1254.00 L 1041.00 1254.00 L 1071.00 1286.00 L 1071.00 1287.00 L 1041.00 1257.00 L 1039.00 1256.00 L 1065.00 1284.00 L 1064.00 1286.00 L 1036.00 1262.00 L 1020.00 1254.00 L 1016.00 1262.00 L 1021.00 1275.00 L 1035.00 1293.00 L 1037.00 1296.00 L 1027.00 1284.00 L 1032.00 1295.00 L 1052.00 1329.00 L 1066.00 1366.00 L 1074.00 1406.00 L 1076.00 1423.00 L 1072.00 1417.00 L 1085.00 1442.00 L 1115.00 1498.00 L 1128.00 1523.00 L 1124.00 1517.00 L 1128.00 1529.00 L 1140.00 1559.00 L 1149.00 1588.00 L 1155.00 1616.00 L 1157.00 1644.00 L 1155.00 1672.00 L 1151.00 1695.00 L 1145.00 1713.00 L 1134.00 1733.00 L 1118.00 1755.00 L 1102.00 1770.00 L 1086.00 1778.00 L 1066.00 1779.00 L 1042.00 1773.00 L 961.00 1718.00 L 823.00 1614.00 L 731.00 1550.00 L 685.00 1526.00 L 618.00 1498.00 L 530.00 1466.00 L 454.00 1444.00 L 390.00 1432.00 L 357.00 1422.00 L 355.00 1414.00 L 356.00 1402.00 L 360.00 1386.00 L 373.00 1348.00 L 395.00 1288.00 L 412.00 1244.00 L 424.00 1216.00 L 441.00 1187.00 L 463.00 1157.00 L 476.00 1133.00 L 480.00 1115.00 L 479.00 1093.00 L 473.00 1067.00 L 471.00 1046.00 L 473.00 1030.00 L 474.00 1019.00 L 474.00 1013.00 L 480.00 986.00 Z" fill="black" stroke="black" stroke-width="1"/>
</svg>