<?xml version="1.0" encoding="UTF-8"?>
<svg xmlns="http://www.w3.org/2000/svg" viewBox="275.00 204.00 1116.00 1611.00">
  <path d="M 790.00 936.00 L 790.00 924.00 L 747.00 907.00 L 661.00 885.00 L 623.00 875.00 L 633.00 877.00 L 629.00 874.00 L 611.00 866.00 L 614.00 865.00 L 638.00 871.00 L 634.00 869.00 L 602.00 859.00 L 605.00 859.00 L 643.00 869.00 L 641.00 868.00 L 599.00 856.00 L 631.00 864.00 L 737.00 892.00 L 734.00 890.00 L 622.00 858.00 L 593.00 849.00 L 647.00 863.00 L 637.00 858.00 L 563.00 834.00 L 564.00 833.00 L 640.00 855.00 L 635.00 851.00 L 549.00 821.00 L 577.00 829.00 L 719.00 875.00 L 717.00 873.00 L 571.00 823.00 L 546.00 814.00 L 642.00 846.00 L 605.00 830.00 L 435.00 766.00 L 455.00 772.00 L 665.00 848.00 L 660.00 844.00 L 440.00 760.00 L 444.00 761.00 L 672.00 847.00 L 670.00 844.00 L 438.00 752.00 L 417.00 743.00 L 607.00 817.00 L 606.00 815.00 L 414.00 737.00 L 358.00 714.00 L 438.00 746.00 L 436.00 742.00 L 352.00 702.00 L 428.00 732.00 L 664.00 832.00 L 662.00 829.00 L 422.00 723.00 L 338.00 685.00 L 410.00 715.00 L 409.00 713.00 L 335.00 679.00 L 297.00 659.00 L 295.00 653.00 L 401.00 699.00 L 615.00 797.00 L 615.00 795.00 L 401.00 693.00 L 291.00 626.00 L 285.00 594.00 L 286.00 556.00 L 294.00 512.00 L 320.00 464.00 L 364.00 412.00 L 398.00 379.00 L 422.00 365.00 L 447.00 359.00 L 473.00 361.00 L 496.00 368.00 L 516.00 380.00 L 541.00 364.00 L 571.00 320.00 L 611.00 279.00 L 661.00 241.00 L 694.00 220.00 L 710.00 216.00 L 729.00 214.00 L 751.00 214.00 L 767.00 226.00 L 777.00 250.00 L 780.00 250.00 L 776.00 226.00 L 779.00 226.00 L 789.00 250.00 L 792.00 251.00 L 788.00 229.00 L 791.00 228.00 L 801.00 248.00 L 837.00 257.00 L 899.00 255.00 L 970.00 266.00 L 1050.00 290.00 L 1114.00 316.00 L 1162.00 344.00 L 1216.00 386.00 L 1276.00 442.00 L 1303.00 481.00 L 1297.00 503.00 L 1298.00 510.00 L 1306.00 502.00 L 1307.00 506.00 L 1301.00 522.00 L 1303.00 526.00 L 1313.00 518.00 L 1313.00 523.00 L 1303.00 541.00 L 1304.00 544.00 L 1316.00 532.00 L 1317.00 533.00 L 1307.00 547.00 L 1307.00 549.00 L 1317.00 539.00 L 1316.00 545.00 L 1304.00 567.00 L 1302.00 574.00 L 1310.00 566.00 L 1309.00 578.00 L 1299.00 610.00 L 1314.00 658.00 L 1354.00 722.00 L 1369.00 762.00 L 1359.00 778.00 L 1347.00 789.00 L 1333.00 795.00 L 1329.00 797.00 L 1335.00 795.00 L 1334.00 798.00 L 1326.00 806.00 L 1325.00 818.00 L 1331.00 834.00 L 1320.00 884.00 L 1292.00 968.00 L 1268.00 1017.00 L 1248.00 1031.00 L 1219.00 1039.00 L 1181.00 1041.00 L 1158.00 1046.00 L 1150.00 1054.00 L 1140.00 1071.00 L 1128.00 1097.00 L 1120.00 1132.00 L 1116.00 1176.00 L 1168.00 1276.00 L 1276.00 1432.00 L 1278.00 1437.00 L 1174.00 1291.00 L 1177.00 1296.00 L 1287.00 1452.00 L 1295.00 1464.00 L 1201.00 1332.00 L 1204.00 1337.00 L 1304.00 1479.00 L 1299.00 1472.00 L 1189.00 1316.00 L 1191.00 1319.00 L 1305.00 1481.00 L 1308.00 1486.00 L 1200.00 1334.00 L 1204.00 1344.00 L 1320.00 1516.00 L 1379.00 1630.00 L 1381.00 1686.00 L 1366.00 1736.00 L 1334.00 1780.00 L 1312.00 1803.00 L 1300.00 1805.00 L 1235.00 1764.00 L 1117.00 1680.00 L 1009.00 1608.00 L 911.00 1548.00 L 805.00 1494.00 L 691.00 1446.00 L 639.00 1405.00 L 649.00 1371.00 L 663.00 1338.00 L 681.00 1306.00 L 694.00 1272.00 L 702.00 1236.00 L 715.00 1201.00 L 733.00 1167.00 L 754.00 1101.00 L 778.00 1003.00 L 790.00 951.00 L 790.00 945.00 L 790.00 936.00 Z" fill="black" stroke="black" stroke-width="1"/>
</svg>