<?xml version="1.0" encoding="UTF-8"?>
<svg xmlns="http://www.w3.org/2000/svg" viewBox="385.00 267.00 953.00 1528.00">
  <path d="M 472.00 1025.00 L 476.00 999.00 L 482.00 985.00 L 490.00 983.00 L 491.00 978.00 L 485.00 970.00 L 489.00 956.00 L 503.00 936.00 L 516.00 924.00 L 528.00 920.00 L 536.00 910.00 L 540.00 894.00 L 537.00 881.00 L 527.00 871.00 L 506.00 832.00 L 474.00 764.00 L 455.00 721.00 L 449.00 703.00 L 444.00 676.00 L 440.00 640.00 L 442.00 594.00 L 450.00 538.00 L 461.00 493.00 L 475.00 459.00 L 492.00 428.00 L 512.00 400.00 L 528.00 380.00 L 540.00 368.00 L 573.00 346.00 L 627.00 314.00 L 662.00 295.00 L 678.00 289.00 L 698.00 286.00 L 722.00 286.00 L 747.00 283.00 L 773.00 277.00 L 814.00 278.00 L 870.00 286.00 L 936.00 308.00 L 1012.00 344.00 L 1063.00 376.00 L 1089.00 404.00 L 1101.00 424.00 L 1099.00 436.00 L 1100.00 437.00 L 1104.00 427.00 L 1107.00 423.00 L 1109.00 425.00 L 1108.00 433.00 L 1104.00 447.00 L 1105.00 448.00 L 1111.00 436.00 L 1113.00 436.00 L 1111.00 448.00 L 1112.00 451.00 L 1116.00 445.00 L 1116.00 448.00 L 1112.00 460.00 L 1114.00 462.00 L 1122.00 454.00 L 1124.00 457.00 L 1120.00 471.00 L 1122.00 472.00 L 1130.00 460.00 L 1131.00 462.00 L 1125.00 478.00 L 1124.00 483.00 L 1128.00 477.00 L 1129.00 479.00 L 1127.00 489.00 L 1130.00 486.00 L 1138.00 470.00 L 1139.00 472.00 L 1133.00 492.00 L 1134.00 494.00 L 1142.00 478.00 L 1142.00 481.00 L 1134.00 503.00 L 1136.00 522.00 L 1148.00 538.00 L 1157.00 554.00 L 1163.00 570.00 L 1165.00 590.00 L 1163.00 614.00 L 1182.00 648.00 L 1222.00 692.00 L 1246.00 722.00 L 1254.00 738.00 L 1247.00 757.00 L 1225.00 779.00 L 1223.00 784.00 L 1241.00 772.00 L 1239.00 775.00 L 1217.00 793.00 L 1206.00 809.00 L 1206.00 823.00 L 1209.00 836.00 L 1215.00 848.00 L 1214.00 858.00 L 1206.00 866.00 L 1204.00 869.00 L 1208.00 867.00 L 1208.00 875.00 L 1204.00 893.00 L 1195.00 908.00 L 1181.00 920.00 L 1178.00 935.00 L 1186.00 953.00 L 1189.00 968.00 L 1187.00 980.00 L 1181.00 993.00 L 1171.00 1007.00 L 1158.00 1018.00 L 1142.00 1026.00 L 1132.00 1033.00 L 1128.00 1039.00 L 1132.00 1045.00 L 1144.00 1051.00 L 1153.00 1058.00 L 1159.00 1066.00 L 1157.00 1077.00 L 1147.00 1091.00 L 1140.00 1105.00 L 1136.00 1119.00 L 1142.00 1132.00 L 1158.00 1144.00 L 1157.00 1147.00 L 1139.00 1141.00 L 1141.00 1143.00 L 1163.00 1153.00 L 1165.00 1156.00 L 1147.00 1152.00 L 1147.00 1154.00 L 1165.00 1162.00 L 1161.00 1162.00 L 1135.00 1154.00 L 1135.00 1156.00 L 1161.00 1168.00 L 1160.00 1170.00 L 1132.00 1162.00 L 1130.00 1164.00 L 1154.00 1176.00 L 1164.00 1183.00 L 1160.00 1185.00 L 1162.00 1189.00 L 1170.00 1195.00 L 1171.00 1197.00 L 1165.00 1195.00 L 1167.00 1197.00 L 1177.00 1203.00 L 1172.00 1201.00 L 1152.00 1191.00 L 1167.00 1202.00 L 1217.00 1234.00 L 1214.00 1235.00 L 1158.00 1205.00 L 1153.00 1204.00 L 1199.00 1232.00 L 1200.00 1233.00 L 1156.00 1207.00 L 1161.00 1211.00 L 1215.00 1245.00 L 1239.00 1261.00 L 1233.00 1259.00 L 1228.00 1260.00 L 1224.00 1264.00 L 1201.00 1253.00 L 1159.00 1227.00 L 1157.00 1227.00 L 1195.00 1253.00 L 1202.00 1258.00 L 1178.00 1242.00 L 1175.00 1242.00 L 1193.00 1258.00 L 1183.00 1253.00 L 1145.00 1227.00 L 1141.00 1225.00 L 1171.00 1247.00 L 1175.00 1252.00 L 1153.00 1240.00 L 1150.00 1240.00 L 1166.00 1252.00 L 1159.00 1247.00 L 1129.00 1225.00 L 1132.00 1229.00 L 1168.00 1259.00 L 1169.00 1261.00 L 1135.00 1235.00 L 1136.00 1237.00 L 1172.00 1267.00 L 1198.00 1302.00 L 1214.00 1342.00 L 1235.00 1382.00 L 1261.00 1422.00 L 1281.00 1458.00 L 1295.00 1490.00 L 1308.00 1527.00 L 1320.00 1569.00 L 1325.00 1589.00 L 1323.00 1587.00 L 1324.00 1603.00 L 1328.00 1637.00 L 1323.00 1675.00 L 1309.00 1717.00 L 1298.00 1744.00 L 1290.00 1756.00 L 1277.00 1768.00 L 1259.00 1780.00 L 1235.00 1785.00 L 1205.00 1783.00 L 1168.00 1772.00 L 1124.00 1752.00 L 1069.00 1720.00 L 1003.00 1676.00 L 964.00 1648.00 L 952.00 1636.00 L 911.00 1613.00 L 841.00 1579.00 L 761.00 1547.00 L 671.00 1517.00 L 593.00 1495.00 L 527.00 1481.00 L 470.00 1472.00 L 422.00 1468.00 L 397.00 1461.00 L 395.00 1451.00 L 401.00 1407.00 L 415.00 1329.00 L 431.00 1269.00 L 449.00 1227.00 L 459.00 1199.00 L 461.00 1185.00 L 465.00 1174.00 L 471.00 1166.00 L 471.00 1152.00 L 465.00 1132.00 L 464.00 1103.00 L 468.00 1065.00 L 470.00 1044.00 L 470.00 1040.00 L 472.00 1025.00 Z" fill="black" stroke="black" stroke-width="1"/>
</svg>