<?xml version="1.0" encoding="UTF-8"?>
<svg xmlns="http://www.w3.org/2000/svg" viewBox="402.00 85.00 967.00 1731.00">
  <path d="M 540.00 957.00 L 540.00 947.00 L 542.00 937.00 L 546.00 927.00 L 554.00 915.00 L 566.00 901.00 L 579.00 890.00 L 593.00 882.00 L 601.00 876.00 L 603.00 872.00 L 598.00 864.00 L 586.00 852.00 L 579.00 843.00 L 577.00 837.00 L 577.00 825.00 L 579.00 807.00 L 578.00 792.00 L 574.00 780.00 L 565.00 763.00 L 551.00 741.00 L 534.00 720.00 L 514.00 700.00 L 497.00 680.00 L 483.00 660.00 L 466.00 632.00 L 446.00 596.00 L 432.00 566.00 L 424.00 542.00 L 418.00 519.00 L 414.00 497.00 L 412.00 461.00 L 412.00 411.00 L 421.00 361.00 L 439.00 311.00 L 452.00 279.00 L 460.00 265.00 L 488.00 234.00 L 536.00 186.00 L 569.00 157.00 L 587.00 147.00 L 601.00 141.00 L 611.00 139.00 L 622.00 134.00 L 634.00 126.00 L 656.00 116.00 L 688.00 104.00 L 737.00 97.00 L 803.00 95.00 L 845.00 97.00 L 863.00 103.00 L 878.00 106.00 L 890.00 106.00 L 904.00 108.00 L 920.00 112.00 L 935.00 117.00 L 949.00 123.00 L 984.00 146.00 L 1040.00 186.00 L 1081.00 222.00 L 1107.00 254.00 L 1119.00 277.00 L 1117.00 291.00 L 1117.00 299.00 L 1119.00 301.00 L 1123.00 297.00 L 1129.00 287.00 L 1130.00 289.00 L 1126.00 303.00 L 1125.00 312.00 L 1127.00 316.00 L 1132.00 312.00 L 1140.00 300.00 L 1142.00 303.00 L 1138.00 321.00 L 1139.00 323.00 L 1145.00 309.00 L 1146.00 314.00 L 1142.00 338.00 L 1144.00 340.00 L 1152.00 320.00 L 1156.00 314.00 L 1156.00 322.00 L 1157.00 324.00 L 1159.00 320.00 L 1156.00 329.00 L 1148.00 351.00 L 1150.00 378.00 L 1162.00 410.00 L 1167.00 441.00 L 1165.00 471.00 L 1169.00 494.00 L 1179.00 510.00 L 1202.00 539.00 L 1238.00 581.00 L 1260.00 610.00 L 1268.00 626.00 L 1260.00 646.00 L 1236.00 670.00 L 1236.00 672.00 L 1260.00 652.00 L 1262.00 651.00 L 1242.00 669.00 L 1240.00 672.00 L 1256.00 660.00 L 1254.00 664.00 L 1234.00 684.00 L 1228.00 707.00 L 1236.00 733.00 L 1237.00 753.00 L 1231.00 767.00 L 1231.00 782.00 L 1237.00 798.00 L 1234.00 818.00 L 1222.00 842.00 L 1217.00 868.00 L 1219.00 896.00 L 1217.00 916.00 L 1211.00 928.00 L 1203.00 939.00 L 1193.00 949.00 L 1177.00 960.00 L 1155.00 972.00 L 1149.00 981.00 L 1159.00 987.00 L 1166.00 993.00 L 1170.00 999.00 L 1171.00 1006.00 L 1169.00 1014.00 L 1162.00 1023.00 L 1150.00 1033.00 L 1139.00 1047.00 L 1129.00 1065.00 L 1121.00 1076.00 L 1115.00 1080.00 L 1112.00 1084.00 L 1112.00 1088.00 L 1123.00 1099.00 L 1145.00 1117.00 L 1144.00 1119.00 L 1120.00 1105.00 L 1122.00 1107.00 L 1150.00 1125.00 L 1152.00 1127.00 L 1128.00 1113.00 L 1129.00 1116.00 L 1155.00 1136.00 L 1152.00 1137.00 L 1120.00 1119.00 L 1127.00 1131.00 L 1173.00 1173.00 L 1189.00 1189.00 L 1175.00 1179.00 L 1186.00 1188.00 L 1222.00 1216.00 L 1220.00 1215.00 L 1180.00 1185.00 L 1181.00 1188.00 L 1223.00 1224.00 L 1235.00 1235.00 L 1217.00 1221.00 L 1215.00 1223.00 L 1229.00 1241.00 L 1228.00 1252.00 L 1212.00 1256.00 L 1187.00 1244.00 L 1153.00 1216.00 L 1148.00 1214.00 L 1172.00 1238.00 L 1170.00 1237.00 L 1142.00 1211.00 L 1123.00 1197.00 L 1113.00 1195.00 L 1124.00 1214.00 L 1156.00 1254.00 L 1155.00 1255.00 L 1121.00 1217.00 L 1122.00 1219.00 L 1158.00 1261.00 L 1182.00 1294.00 L 1194.00 1318.00 L 1218.00 1353.00 L 1254.00 1399.00 L 1263.00 1411.00 L 1245.00 1389.00 L 1246.00 1391.00 L 1266.00 1417.00 L 1284.00 1444.00 L 1300.00 1472.00 L 1317.00 1509.00 L 1335.00 1555.00 L 1347.00 1591.00 L 1353.00 1617.00 L 1357.00 1649.00 L 1359.00 1687.00 L 1355.00 1722.00 L 1345.00 1754.00 L 1333.00 1778.00 L 1319.00 1794.00 L 1310.00 1803.00 L 1306.00 1805.00 L 1290.00 1806.00 L 1262.00 1806.00 L 1233.00 1800.00 L 1203.00 1788.00 L 1120.00 1744.00 L 984.00 1668.00 L 883.00 1616.00 L 817.00 1588.00 L 740.00 1561.00 L 652.00 1535.00 L 569.00 1516.00 L 491.00 1504.00 L 461.00 1455.00 L 479.00 1369.00 L 498.00 1299.00 L 518.00 1245.00 L 528.00 1212.00 L 528.00 1200.00 L 530.00 1188.00 L 534.00 1176.00 L 532.00 1157.00 L 524.00 1131.00 L 521.00 1102.00 L 523.00 1070.00 L 527.00 1036.00 L 533.00 1000.00 L 535.00 979.00 L 533.00 973.00 L 534.00 968.00 L 538.00 964.00 L 540.00 957.00 Z" fill="black" stroke="black" stroke-width="1"/>
</svg>