<?xml version="1.0" encoding="UTF-8"?>
<svg xmlns="http://www.w3.org/2000/svg" viewBox="252.00 238.00 863.00 1600.00">
  <path d="M 345.00 1002.00 L 351.00 962.00 L 362.00 924.00 L 378.00 888.00 L 376.00 856.00 L 356.00 828.00 L 346.00 795.00 L 346.00 757.00 L 335.00 699.00 L 313.00 621.00 L 302.00 563.00 L 302.00 525.00 L 310.00 483.00 L 326.00 437.00 L 341.00 403.00 L 355.00 381.00 L 384.00 351.00 L 428.00 313.00 L 458.00 290.00 L 474.00 282.00 L 496.00 272.00 L 524.00 260.00 L 558.00 252.00 L 598.00 248.00 L 646.00 250.00 L 702.00 258.00 L 753.00 271.00 L 799.00 289.00 L 830.00 306.00 L 846.00 322.00 L 865.00 336.00 L 887.00 348.00 L 904.00 361.00 L 916.00 375.00 L 921.00 390.00 L 919.00 406.00 L 920.00 408.00 L 924.00 396.00 L 925.00 398.00 L 923.00 414.00 L 925.00 415.00 L 931.00 401.00 L 932.00 402.00 L 928.00 418.00 L 930.00 419.00 L 938.00 405.00 L 939.00 407.00 L 933.00 425.00 L 935.00 427.00 L 945.00 413.00 L 947.00 415.00 L 941.00 433.00 L 942.00 434.00 L 950.00 418.00 L 951.00 421.00 L 945.00 443.00 L 946.00 444.00 L 954.00 424.00 L 955.00 426.00 L 949.00 450.00 L 950.00 452.00 L 958.00 432.00 L 959.00 434.00 L 953.00 458.00 L 954.00 461.00 L 962.00 443.00 L 963.00 446.00 L 957.00 470.00 L 958.00 475.00 L 966.00 461.00 L 967.00 464.00 L 961.00 484.00 L 966.00 509.00 L 982.00 539.00 L 991.00 570.00 L 993.00 602.00 L 1012.00 644.00 L 1048.00 696.00 L 1054.00 735.00 L 1030.00 761.00 L 1031.00 763.00 L 1057.00 741.00 L 1057.00 744.00 L 1031.00 772.00 L 1031.00 775.00 L 1057.00 753.00 L 1056.00 755.00 L 1028.00 781.00 L 1027.00 784.00 L 1053.00 764.00 L 1053.00 767.00 L 1027.00 793.00 L 1017.00 812.00 L 1023.00 824.00 L 1021.00 836.00 L 1011.00 848.00 L 1008.00 853.00 L 1012.00 851.00 L 1014.00 860.00 L 1014.00 880.00 L 1008.00 895.00 L 996.00 905.00 L 992.00 918.00 L 996.00 934.00 L 997.00 951.00 L 995.00 969.00 L 987.00 986.00 L 973.00 1002.00 L 952.00 1019.00 L 924.00 1037.00 L 913.00 1051.00 L 919.00 1061.00 L 917.00 1071.00 L 907.00 1081.00 L 899.00 1094.00 L 893.00 1110.00 L 894.00 1122.00 L 902.00 1130.00 L 901.00 1132.00 L 891.00 1128.00 L 917.00 1150.00 L 979.00 1198.00 L 990.00 1209.00 L 950.00 1183.00 L 952.00 1185.00 L 996.00 1215.00 L 983.00 1207.00 L 913.00 1161.00 L 912.00 1163.00 L 980.00 1213.00 L 992.00 1224.00 L 948.00 1196.00 L 945.00 1197.00 L 983.00 1227.00 L 983.00 1228.00 L 945.00 1200.00 L 943.00 1201.00 L 977.00 1231.00 L 989.00 1247.00 L 979.00 1249.00 L 961.00 1243.00 L 935.00 1229.00 L 941.00 1241.00 L 979.00 1279.00 L 977.00 1278.00 L 935.00 1238.00 L 936.00 1241.00 L 980.00 1287.00 L 978.00 1287.00 L 930.00 1241.00 L 930.00 1243.00 L 978.00 1293.00 L 981.00 1298.00 L 939.00 1258.00 L 938.00 1260.00 L 978.00 1304.00 L 973.00 1299.00 L 923.00 1245.00 L 941.00 1269.00 L 1027.00 1371.00 L 1026.00 1373.00 L 938.00 1275.00 L 938.00 1277.00 L 1026.00 1379.00 L 1024.00 1377.00 L 932.00 1271.00 L 932.00 1273.00 L 1024.00 1383.00 L 1025.00 1385.00 L 935.00 1279.00 L 937.00 1285.00 L 1031.00 1403.00 L 1028.00 1401.00 L 928.00 1279.00 L 932.00 1285.00 L 1040.00 1419.00 L 1093.00 1485.00 L 1091.00 1483.00 L 1093.00 1496.00 L 1099.00 1524.00 L 1098.00 1543.00 L 1090.00 1553.00 L 1086.00 1561.00 L 1086.00 1567.00 L 1090.00 1582.00 L 1098.00 1606.00 L 1103.00 1635.00 L 1105.00 1669.00 L 1101.00 1707.00 L 1091.00 1749.00 L 1078.00 1779.00 L 1062.00 1797.00 L 1041.00 1812.00 L 1015.00 1824.00 L 990.00 1828.00 L 966.00 1824.00 L 937.00 1811.00 L 903.00 1789.00 L 864.00 1760.00 L 820.00 1724.00 L 745.00 1673.00 L 639.00 1607.00 L 548.00 1556.00 L 472.00 1520.00 L 389.00 1488.00 L 299.00 1460.00 L 262.00 1412.00 L 278.00 1344.00 L 299.00 1281.00 L 325.00 1223.00 L 339.00 1186.00 L 341.00 1170.00 L 346.00 1153.00 L 354.00 1135.00 L 355.00 1117.00 L 349.00 1099.00 L 345.00 1076.00 L 343.00 1048.00 L 342.00 1031.00 L 342.00 1025.00 L 345.00 1002.00 Z" fill="black" stroke="black" stroke-width="1"/>
</svg>