<?xml version="1.0" encoding="UTF-8"?>
<svg xmlns="http://www.w3.org/2000/svg" viewBox="457.00 175.00 874.00 1639.00">
  <path d="M 677.00 963.00 L 691.00 945.00 L 696.00 913.00 L 692.00 867.00 L 670.00 832.00 L 630.00 808.00 L 626.00 805.00 L 658.00 823.00 L 657.00 822.00 L 623.00 802.00 L 622.00 801.00 L 654.00 819.00 L 627.00 796.00 L 541.00 732.00 L 490.00 684.00 L 474.00 652.00 L 467.00 610.00 L 469.00 558.00 L 487.00 499.00 L 521.00 433.00 L 559.00 383.00 L 601.00 349.00 L 631.00 316.00 L 649.00 284.00 L 667.00 269.00 L 685.00 271.00 L 705.00 255.00 L 727.00 221.00 L 748.00 200.00 L 768.00 192.00 L 816.00 187.00 L 892.00 185.00 L 944.00 194.00 L 972.00 214.00 L 984.00 251.00 L 980.00 305.00 L 982.00 308.00 L 990.00 260.00 L 993.00 261.00 L 991.00 311.00 L 994.00 314.00 L 1002.00 270.00 L 1004.00 271.00 L 1000.00 317.00 L 1001.00 320.00 L 1007.00 280.00 L 1009.00 280.00 L 1007.00 320.00 L 1028.00 349.00 L 1072.00 367.00 L 1110.00 387.00 L 1142.00 409.00 L 1160.00 431.00 L 1164.00 453.00 L 1169.00 458.00 L 1175.00 446.00 L 1176.00 449.00 L 1172.00 467.00 L 1174.00 469.00 L 1182.00 455.00 L 1183.00 460.00 L 1177.00 484.00 L 1179.00 488.00 L 1189.00 472.00 L 1190.00 473.00 L 1182.00 491.00 L 1182.00 494.00 L 1190.00 482.00 L 1190.00 484.00 L 1182.00 500.00 L 1183.00 503.00 L 1193.00 493.00 L 1194.00 497.00 L 1186.00 515.00 L 1187.00 517.00 L 1197.00 503.00 L 1197.00 507.00 L 1187.00 529.00 L 1188.00 531.00 L 1200.00 513.00 L 1201.00 515.00 L 1191.00 537.00 L 1192.00 539.00 L 1204.00 521.00 L 1204.00 523.00 L 1192.00 545.00 L 1193.00 547.00 L 1207.00 529.00 L 1207.00 532.00 L 1193.00 556.00 L 1193.00 558.00 L 1207.00 538.00 L 1206.00 548.00 L 1190.00 588.00 L 1190.00 599.00 L 1206.00 581.00 L 1207.00 584.00 L 1193.00 608.00 L 1206.00 647.00 L 1246.00 701.00 L 1265.00 733.00 L 1263.00 743.00 L 1250.00 759.00 L 1226.00 781.00 L 1217.00 810.00 L 1223.00 846.00 L 1222.00 873.00 L 1214.00 891.00 L 1213.00 910.00 L 1219.00 930.00 L 1219.00 950.00 L 1213.00 970.00 L 1171.00 998.00 L 1093.00 1034.00 L 1045.00 1063.00 L 1027.00 1085.00 L 1086.00 1189.00 L 1222.00 1375.00 L 1270.00 1442.00 L 1230.00 1390.00 L 1232.00 1394.00 L 1276.00 1454.00 L 1270.00 1447.00 L 1214.00 1373.00 L 1215.00 1375.00 L 1273.00 1453.00 L 1271.00 1451.00 L 1209.00 1369.00 L 1210.00 1372.00 L 1274.00 1460.00 L 1272.00 1458.00 L 1204.00 1366.00 L 1207.00 1371.00 L 1281.00 1473.00 L 1242.00 1420.00 L 1090.00 1212.00 L 1091.00 1215.00 L 1245.00 1429.00 L 1277.00 1475.00 L 1187.00 1353.00 L 1188.00 1357.00 L 1280.00 1487.00 L 1278.00 1485.00 L 1182.00 1351.00 L 1183.00 1354.00 L 1281.00 1494.00 L 1279.00 1492.00 L 1177.00 1348.00 L 1178.00 1352.00 L 1282.00 1504.00 L 1254.00 1464.00 L 1094.00 1232.00 L 1094.00 1234.00 L 1254.00 1470.00 L 1277.00 1505.00 L 1163.00 1339.00 L 1163.00 1341.00 L 1277.00 1511.00 L 1274.00 1507.00 L 1154.00 1329.00 L 1154.00 1332.00 L 1274.00 1516.00 L 1271.00 1513.00 L 1145.00 1323.00 L 1146.00 1326.00 L 1274.00 1522.00 L 1256.00 1495.00 L 1092.00 1245.00 L 1092.00 1248.00 L 1256.00 1504.00 L 1268.00 1524.00 L 1128.00 1308.00 L 1127.00 1313.00 L 1265.00 1539.00 L 1263.00 1537.00 L 1121.00 1307.00 L 1121.00 1309.00 L 1263.00 1543.00 L 1260.00 1539.00 L 1112.00 1297.00 L 1111.00 1301.00 L 1257.00 1551.00 L 1255.00 1549.00 L 1105.00 1295.00 L 1104.00 1298.00 L 1252.00 1558.00 L 1246.00 1549.00 L 1086.00 1271.00 L 1085.00 1272.00 L 1243.00 1552.00 L 1321.00 1695.00 L 1319.00 1701.00 L 1240.00 1563.00 L 1084.00 1281.00 L 1083.00 1283.00 L 1237.00 1569.00 L 1297.00 1738.00 L 1263.00 1790.00 L 1215.00 1804.00 L 1153.00 1780.00 L 1073.00 1735.00 L 975.00 1669.00 L 891.00 1617.00 L 821.00 1579.00 L 752.00 1546.00 L 684.00 1518.00 L 612.00 1494.00 L 536.00 1474.00 L 510.00 1415.00 L 534.00 1317.00 L 576.00 1196.00 L 636.00 1052.00 L 667.00 978.00 L 669.00 974.00 L 677.00 963.00 Z" fill="black" stroke="black" stroke-width="1"/>
</svg>