<?xml version="1.0" encoding="UTF-8"?>
<svg xmlns="http://www.w3.org/2000/svg" viewBox="338.00 428.00 710.00 1285.00">
  <path d="M 547.00 1022.00 L 525.00 1014.00 L 525.00 1011.00 L 547.00 1013.00 L 549.00 1013.00 L 531.00 1011.00 L 525.00 1010.00 L 531.00 1010.00 L 527.00 1008.00 L 513.00 1004.00 L 514.00 1003.00 L 530.00 1005.00 L 528.00 1004.00 L 508.00 1000.00 L 513.00 1000.00 L 543.00 1004.00 L 541.00 1002.00 L 507.00 994.00 L 504.00 992.00 L 532.00 996.00 L 531.00 995.00 L 501.00 989.00 L 504.00 989.00 L 540.00 995.00 L 539.00 993.00 L 501.00 983.00 L 500.00 981.00 L 536.00 987.00 L 534.00 985.00 L 494.00 975.00 L 468.00 962.00 L 456.00 946.00 L 426.00 890.00 L 378.00 794.00 L 352.00 719.00 L 348.00 665.00 L 351.00 622.00 L 361.00 590.00 L 373.00 563.00 L 387.00 541.00 L 409.00 516.00 L 439.00 488.00 L 464.00 469.00 L 484.00 459.00 L 517.00 450.00 L 563.00 442.00 L 617.00 438.00 L 679.00 438.00 L 721.00 440.00 L 743.00 444.00 L 786.00 459.00 L 850.00 485.00 L 901.00 511.00 L 939.00 537.00 L 966.00 559.00 L 982.00 577.00 L 987.00 594.00 L 981.00 610.00 L 982.00 611.00 L 990.00 597.00 L 991.00 599.00 L 985.00 617.00 L 986.00 620.00 L 994.00 608.00 L 995.00 609.00 L 989.00 623.00 L 990.00 624.00 L 998.00 612.00 L 998.00 614.00 L 990.00 630.00 L 991.00 631.00 L 1001.00 617.00 L 1002.00 619.00 L 994.00 637.00 L 995.00 639.00 L 1005.00 625.00 L 1011.00 620.00 L 1013.00 624.00 L 1009.00 636.00 L 999.00 656.00 L 1000.00 659.00 L 1012.00 645.00 L 1013.00 648.00 L 1003.00 668.00 L 1004.00 670.00 L 1016.00 654.00 L 1016.00 656.00 L 1004.00 676.00 L 1004.00 678.00 L 1016.00 662.00 L 1017.00 663.00 L 1007.00 681.00 L 1008.00 683.00 L 1020.00 669.00 L 1020.00 672.00 L 1008.00 692.00 L 1009.00 694.00 L 1023.00 678.00 L 1024.00 681.00 L 1012.00 703.00 L 1012.00 707.00 L 1024.00 693.00 L 1024.00 695.00 L 1012.00 713.00 L 1013.00 714.00 L 1027.00 698.00 L 1027.00 701.00 L 1013.00 723.00 L 1012.00 729.00 L 1024.00 719.00 L 1024.00 721.00 L 1012.00 735.00 L 1011.00 738.00 L 1021.00 730.00 L 1021.00 732.00 L 1011.00 744.00 L 1010.00 746.00 L 1018.00 738.00 L 1018.00 740.00 L 1010.00 752.00 L 1005.00 776.00 L 1003.00 812.00 L 1005.00 838.00 L 1011.00 854.00 L 1020.00 870.00 L 1032.00 886.00 L 1038.00 898.00 L 1038.00 906.00 L 1030.00 917.00 L 1014.00 931.00 L 1007.00 949.00 L 1009.00 971.00 L 1006.00 987.00 L 998.00 997.00 L 995.00 1004.00 L 997.00 1008.00 L 995.00 1017.00 L 989.00 1031.00 L 987.00 1046.00 L 989.00 1062.00 L 982.00 1080.00 L 966.00 1100.00 L 953.00 1112.00 L 943.00 1116.00 L 907.00 1116.00 L 845.00 1112.00 L 812.00 1114.00 L 808.00 1122.00 L 859.00 1212.00 L 965.00 1384.00 L 1011.00 1459.00 L 997.00 1437.00 L 998.00 1439.00 L 1014.00 1465.00 L 1011.00 1461.00 L 989.00 1427.00 L 990.00 1430.00 L 1014.00 1470.00 L 1013.00 1469.00 L 987.00 1427.00 L 988.00 1429.00 L 1016.00 1475.00 L 1015.00 1474.00 L 985.00 1426.00 L 986.00 1429.00 L 1018.00 1483.00 L 1016.00 1481.00 L 980.00 1423.00 L 981.00 1426.00 L 1019.00 1490.00 L 993.00 1447.00 L 903.00 1297.00 L 904.00 1300.00 L 996.00 1456.00 L 991.00 1448.00 L 889.00 1276.00 L 889.00 1279.00 L 991.00 1457.00 L 990.00 1456.00 L 886.00 1276.00 L 886.00 1278.00 L 990.00 1462.00 L 988.00 1459.00 L 880.00 1269.00 L 881.00 1272.00 L 991.00 1468.00 L 989.00 1465.00 L 875.00 1263.00 L 875.00 1266.00 L 989.00 1474.00 L 988.00 1473.00 L 872.00 1263.00 L 872.00 1265.00 L 988.00 1479.00 L 985.00 1474.00 L 863.00 1250.00 L 862.00 1253.00 L 982.00 1483.00 L 1038.00 1613.00 L 1030.00 1643.00 L 1013.00 1673.00 L 987.00 1703.00 L 929.00 1685.00 L 839.00 1619.00 L 770.00 1572.00 L 722.00 1544.00 L 665.00 1516.00 L 599.00 1488.00 L 530.00 1464.00 L 458.00 1444.00 L 428.00 1414.00 L 440.00 1374.00 L 458.00 1326.00 L 482.00 1270.00 L 497.00 1220.00 L 503.00 1176.00 L 514.00 1144.00 L 530.00 1124.00 L 543.00 1094.00 L 553.00 1054.00 L 558.00 1032.00 L 558.00 1028.00 L 547.00 1022.00 Z" fill="black" stroke="black" stroke-width="1"/>
</svg>