<?xml version="1.0" encoding="UTF-8"?>
<svg xmlns="http://www.w3.org/2000/svg" viewBox="375.00 309.00 828.00 1600.00">
  <path d="M 496.00 1089.00 L 500.00 1071.00 L 511.00 1049.00 L 529.00 1023.00 L 537.00 1006.00 L 535.00 998.00 L 530.00 990.00 L 522.00 982.00 L 509.00 974.00 L 491.00 966.00 L 496.00 967.00 L 524.00 977.00 L 518.00 971.00 L 478.00 949.00 L 452.00 927.00 L 440.00 905.00 L 432.00 884.00 L 428.00 864.00 L 421.00 844.00 L 411.00 824.00 L 400.00 777.00 L 388.00 703.00 L 385.00 659.00 L 391.00 645.00 L 393.00 631.00 L 391.00 617.00 L 392.00 593.00 L 396.00 559.00 L 402.00 530.00 L 410.00 506.00 L 425.00 478.00 L 447.00 446.00 L 471.00 418.00 L 497.00 394.00 L 535.00 371.00 L 585.00 349.00 L 619.00 335.00 L 637.00 329.00 L 658.00 327.00 L 682.00 329.00 L 702.00 327.00 L 718.00 321.00 L 733.00 319.00 L 747.00 321.00 L 761.00 326.00 L 775.00 334.00 L 792.00 337.00 L 812.00 335.00 L 829.00 337.00 L 843.00 343.00 L 855.00 351.00 L 865.00 361.00 L 886.00 373.00 L 918.00 387.00 L 951.00 408.00 L 985.00 436.00 L 1006.00 461.00 L 1014.00 483.00 L 1017.00 500.00 L 1015.00 512.00 L 1017.00 513.00 L 1023.00 503.00 L 1024.00 506.00 L 1020.00 522.00 L 1022.00 523.00 L 1030.00 509.00 L 1031.00 512.00 L 1025.00 532.00 L 1027.00 534.00 L 1037.00 518.00 L 1039.00 520.00 L 1033.00 540.00 L 1034.00 541.00 L 1042.00 523.00 L 1043.00 526.00 L 1037.00 550.00 L 1038.00 553.00 L 1046.00 535.00 L 1047.00 537.00 L 1041.00 559.00 L 1042.00 563.00 L 1050.00 549.00 L 1051.00 550.00 L 1045.00 566.00 L 1045.00 569.00 L 1051.00 559.00 L 1051.00 561.00 L 1045.00 575.00 L 1044.00 579.00 L 1048.00 573.00 L 1049.00 578.00 L 1047.00 594.00 L 1051.00 592.00 L 1061.00 572.00 L 1062.00 573.00 L 1054.00 595.00 L 1056.00 597.00 L 1068.00 579.00 L 1069.00 582.00 L 1059.00 606.00 L 1060.00 609.00 L 1072.00 591.00 L 1073.00 593.00 L 1063.00 615.00 L 1062.00 635.00 L 1070.00 653.00 L 1072.00 676.00 L 1068.00 704.00 L 1068.00 723.00 L 1072.00 733.00 L 1096.00 764.00 L 1140.00 816.00 L 1162.00 845.00 L 1162.00 851.00 L 1150.00 863.00 L 1126.00 881.00 L 1125.00 883.00 L 1147.00 869.00 L 1146.00 871.00 L 1122.00 889.00 L 1119.00 892.00 L 1137.00 880.00 L 1138.00 883.00 L 1122.00 901.00 L 1117.00 919.00 L 1123.00 937.00 L 1121.00 951.00 L 1111.00 961.00 L 1107.00 973.00 L 1109.00 987.00 L 1103.00 1003.00 L 1089.00 1021.00 L 1082.00 1041.00 L 1082.00 1063.00 L 1080.00 1080.00 L 1076.00 1092.00 L 1068.00 1103.00 L 1056.00 1113.00 L 1038.00 1122.00 L 1014.00 1130.00 L 1005.00 1138.00 L 1011.00 1146.00 L 1005.00 1162.00 L 987.00 1186.00 L 987.00 1204.00 L 1005.00 1216.00 L 1008.00 1219.00 L 996.00 1213.00 L 996.00 1215.00 L 1008.00 1225.00 L 1004.00 1224.00 L 984.00 1212.00 L 984.00 1214.00 L 1004.00 1230.00 L 1003.00 1232.00 L 981.00 1220.00 L 982.00 1223.00 L 1006.00 1241.00 L 1017.00 1252.00 L 1015.00 1256.00 L 1023.00 1267.00 L 1041.00 1285.00 L 1041.00 1288.00 L 1023.00 1276.00 L 1033.00 1287.00 L 1071.00 1321.00 L 1068.00 1320.00 L 1024.00 1284.00 L 1024.00 1287.00 L 1068.00 1329.00 L 1082.00 1351.00 L 1066.00 1353.00 L 1053.00 1352.00 L 1043.00 1348.00 L 1044.00 1362.00 L 1056.00 1394.00 L 1061.00 1409.00 L 1059.00 1407.00 L 1070.00 1422.00 L 1094.00 1454.00 L 1096.00 1458.00 L 1076.00 1434.00 L 1085.00 1447.00 L 1123.00 1497.00 L 1140.00 1520.00 L 1136.00 1516.00 L 1140.00 1524.00 L 1152.00 1544.00 L 1166.00 1575.00 L 1182.00 1617.00 L 1191.00 1662.00 L 1193.00 1710.00 L 1192.00 1748.00 L 1188.00 1776.00 L 1182.00 1802.00 L 1174.00 1826.00 L 1159.00 1851.00 L 1137.00 1877.00 L 1114.00 1893.00 L 1090.00 1899.00 L 1062.00 1898.00 L 1030.00 1890.00 L 943.00 1847.00 L 801.00 1769.00 L 693.00 1715.00 L 619.00 1685.00 L 546.00 1660.00 L 474.00 1640.00 L 432.00 1626.00 L 420.00 1618.00 L 421.00 1578.00 L 435.00 1506.00 L 451.00 1447.00 L 469.00 1401.00 L 483.00 1354.00 L 493.00 1306.00 L 495.00 1276.00 L 489.00 1264.00 L 488.00 1220.00 L 492.00 1144.00 L 494.00 1104.00 L 494.00 1100.00 L 496.00 1089.00 Z" fill="black" stroke="black" stroke-width="1"/>
</svg>