<?xml version="1.0" encoding="UTF-8"?>
<svg xmlns="http://www.w3.org/2000/svg" viewBox="470.00 327.00 817.00 1388.00">
  <path d="M 572.00 998.00 L 576.00 982.00 L 585.00 964.00 L 599.00 944.00 L 585.00 898.00 L 543.00 826.00 L 517.00 778.00 L 507.00 754.00 L 500.00 731.00 L 496.00 709.00 L 494.00 689.00 L 494.00 671.00 L 493.00 661.00 L 491.00 659.00 L 492.00 641.00 L 496.00 607.00 L 502.00 575.00 L 510.00 545.00 L 526.00 509.00 L 550.00 467.00 L 572.00 436.00 L 592.00 416.00 L 618.00 395.00 L 650.00 373.00 L 676.00 358.00 L 696.00 350.00 L 725.00 343.00 L 763.00 337.00 L 818.00 337.00 L 890.00 343.00 L 933.00 348.00 L 947.00 352.00 L 976.00 365.00 L 1020.00 387.00 L 1051.00 405.00 L 1069.00 419.00 L 1083.00 428.00 L 1093.00 432.00 L 1098.00 441.00 L 1098.00 455.00 L 1100.00 457.00 L 1104.00 447.00 L 1105.00 448.00 L 1103.00 460.00 L 1105.00 461.00 L 1111.00 451.00 L 1112.00 454.00 L 1108.00 470.00 L 1109.00 471.00 L 1115.00 457.00 L 1119.00 451.00 L 1121.00 453.00 L 1119.00 462.00 L 1113.00 478.00 L 1114.00 480.00 L 1122.00 468.00 L 1124.00 470.00 L 1120.00 486.00 L 1121.00 488.00 L 1127.00 476.00 L 1128.00 479.00 L 1124.00 497.00 L 1128.00 517.00 L 1140.00 539.00 L 1151.00 570.00 L 1161.00 610.00 L 1174.00 638.00 L 1190.00 654.00 L 1214.00 683.00 L 1246.00 725.00 L 1262.00 748.00 L 1262.00 752.00 L 1249.00 764.00 L 1223.00 784.00 L 1223.00 786.00 L 1249.00 770.00 L 1248.00 772.00 L 1220.00 792.00 L 1217.00 795.00 L 1239.00 781.00 L 1239.00 784.00 L 1217.00 804.00 L 1209.00 820.00 L 1215.00 832.00 L 1218.00 841.00 L 1218.00 847.00 L 1216.00 853.00 L 1212.00 859.00 L 1212.00 868.00 L 1216.00 880.00 L 1212.00 896.00 L 1200.00 916.00 L 1196.00 933.00 L 1200.00 947.00 L 1202.00 963.00 L 1202.00 981.00 L 1196.00 999.00 L 1184.00 1017.00 L 1166.00 1033.00 L 1142.00 1047.00 L 1134.00 1057.00 L 1142.00 1063.00 L 1146.00 1068.00 L 1146.00 1072.00 L 1139.00 1087.00 L 1125.00 1113.00 L 1114.00 1130.00 L 1106.00 1138.00 L 1102.00 1145.00 L 1102.00 1151.00 L 1097.00 1163.00 L 1087.00 1181.00 L 1095.00 1206.00 L 1121.00 1238.00 L 1132.00 1252.00 L 1128.00 1248.00 L 1133.00 1259.00 L 1147.00 1285.00 L 1155.00 1304.00 L 1157.00 1316.00 L 1165.00 1332.00 L 1179.00 1352.00 L 1180.00 1355.00 L 1168.00 1341.00 L 1176.00 1353.00 L 1204.00 1391.00 L 1232.00 1439.00 L 1260.00 1497.00 L 1275.00 1533.00 L 1277.00 1547.00 L 1276.00 1568.00 L 1272.00 1596.00 L 1265.00 1624.00 L 1255.00 1652.00 L 1244.00 1672.00 L 1232.00 1684.00 L 1219.00 1694.00 L 1205.00 1702.00 L 1186.00 1705.00 L 1162.00 1703.00 L 1130.00 1691.00 L 1090.00 1669.00 L 1054.00 1646.00 L 1022.00 1622.00 L 1004.00 1607.00 L 1000.00 1601.00 L 984.00 1589.00 L 956.00 1571.00 L 903.00 1541.00 L 825.00 1499.00 L 757.00 1466.00 L 699.00 1442.00 L 645.00 1424.00 L 595.00 1412.00 L 564.00 1406.00 L 552.00 1406.00 L 531.00 1403.00 L 501.00 1397.00 L 484.00 1392.00 L 480.00 1388.00 L 480.00 1381.00 L 484.00 1371.00 L 489.00 1348.00 L 495.00 1312.00 L 505.00 1279.00 L 519.00 1249.00 L 528.00 1221.00 L 532.00 1195.00 L 541.00 1168.00 L 555.00 1140.00 L 560.00 1119.00 L 556.00 1105.00 L 558.00 1078.00 L 566.00 1038.00 L 570.00 1015.00 L 570.00 1009.00 L 572.00 998.00 Z" fill="black" stroke="black" stroke-width="1"/>
</svg>