<?xml version="1.0" encoding="UTF-8"?>
<svg xmlns="http://www.w3.org/2000/svg" viewBox="234.00 249.00 923.00 1652.00">
  <path d="M 340.00 1031.00 L 340.00 985.00 L 343.00 951.00 L 349.00 929.00 L 356.00 912.00 L 364.00 900.00 L 362.00 890.00 L 350.00 882.00 L 338.00 868.00 L 326.00 848.00 L 316.00 824.00 L 308.00 796.00 L 292.00 756.00 L 268.00 704.00 L 253.00 665.00 L 247.00 639.00 L 244.00 596.00 L 244.00 536.00 L 257.00 478.00 L 283.00 422.00 L 310.00 380.00 L 338.00 352.00 L 367.00 328.00 L 397.00 308.00 L 437.00 289.00 L 487.00 271.00 L 520.00 261.00 L 536.00 259.00 L 559.00 261.00 L 589.00 267.00 L 621.00 270.00 L 655.00 270.00 L 684.00 277.00 L 708.00 291.00 L 728.00 298.00 L 744.00 298.00 L 768.00 304.00 L 800.00 316.00 L 828.00 333.00 L 852.00 355.00 L 874.00 371.00 L 894.00 381.00 L 904.00 395.00 L 904.00 413.00 L 907.00 415.00 L 913.00 401.00 L 914.00 403.00 L 910.00 421.00 L 912.00 422.00 L 920.00 406.00 L 921.00 409.00 L 915.00 431.00 L 916.00 432.00 L 924.00 412.00 L 925.00 413.00 L 919.00 435.00 L 920.00 438.00 L 928.00 422.00 L 929.00 423.00 L 923.00 441.00 L 921.00 449.00 L 923.00 447.00 L 924.00 450.00 L 924.00 458.00 L 928.00 453.00 L 936.00 435.00 L 937.00 438.00 L 931.00 462.00 L 931.00 466.00 L 937.00 450.00 L 939.00 455.00 L 937.00 481.00 L 940.00 486.00 L 948.00 470.00 L 949.00 472.00 L 943.00 492.00 L 942.00 498.00 L 946.00 490.00 L 947.00 492.00 L 945.00 504.00 L 949.00 500.00 L 959.00 480.00 L 961.00 483.00 L 955.00 509.00 L 957.00 512.00 L 967.00 492.00 L 970.00 495.00 L 966.00 521.00 L 966.00 543.00 L 970.00 561.00 L 973.00 569.00 L 975.00 567.00 L 975.00 577.00 L 973.00 599.00 L 983.00 622.00 L 1005.00 646.00 L 1029.00 677.00 L 1055.00 715.00 L 1068.00 737.00 L 1068.00 743.00 L 1056.00 758.00 L 1032.00 782.00 L 1032.00 785.00 L 1056.00 767.00 L 1055.00 770.00 L 1029.00 794.00 L 1019.00 816.00 L 1025.00 836.00 L 1023.00 850.00 L 1013.00 858.00 L 1010.00 861.00 L 1014.00 859.00 L 1014.00 861.00 L 1010.00 867.00 L 1011.00 875.00 L 1017.00 885.00 L 1013.00 900.00 L 999.00 920.00 L 996.00 937.00 L 1004.00 951.00 L 1007.00 966.00 L 1005.00 982.00 L 990.00 1002.00 L 962.00 1026.00 L 951.00 1038.00 L 957.00 1038.00 L 944.00 1044.00 L 912.00 1056.00 L 899.00 1066.00 L 905.00 1074.00 L 905.00 1086.00 L 899.00 1102.00 L 903.00 1114.00 L 917.00 1122.00 L 917.00 1124.00 L 903.00 1120.00 L 904.00 1122.00 L 920.00 1130.00 L 919.00 1131.00 L 901.00 1125.00 L 902.00 1127.00 L 922.00 1137.00 L 931.00 1145.00 L 929.00 1151.00 L 920.00 1157.00 L 904.00 1163.00 L 898.00 1169.00 L 902.00 1175.00 L 902.00 1180.00 L 898.00 1184.00 L 906.00 1198.00 L 926.00 1222.00 L 948.00 1265.00 L 972.00 1327.00 L 982.00 1356.00 L 978.00 1352.00 L 994.00 1372.00 L 1030.00 1416.00 L 1046.00 1436.00 L 1042.00 1432.00 L 1054.00 1453.00 L 1082.00 1499.00 L 1094.00 1520.00 L 1090.00 1516.00 L 1094.00 1524.00 L 1106.00 1544.00 L 1119.00 1575.00 L 1133.00 1617.00 L 1142.00 1647.00 L 1146.00 1665.00 L 1147.00 1701.00 L 1145.00 1755.00 L 1137.00 1796.00 L 1123.00 1824.00 L 1107.00 1847.00 L 1089.00 1865.00 L 1071.00 1878.00 L 1053.00 1886.00 L 1040.00 1887.00 L 1032.00 1881.00 L 1029.00 1882.00 L 1031.00 1890.00 L 1029.00 1890.00 L 1023.00 1882.00 L 1020.00 1881.00 L 1020.00 1887.00 L 1018.00 1886.00 L 1014.00 1878.00 L 1012.00 1877.00 L 1012.00 1883.00 L 1010.00 1885.00 L 1006.00 1883.00 L 1005.00 1885.00 L 1007.00 1891.00 L 1005.00 1888.00 L 999.00 1876.00 L 997.00 1873.00 L 999.00 1879.00 L 997.00 1878.00 L 991.00 1870.00 L 954.00 1845.00 L 886.00 1803.00 L 847.00 1775.00 L 837.00 1761.00 L 779.00 1722.00 L 673.00 1658.00 L 570.00 1604.00 L 470.00 1560.00 L 375.00 1526.00 L 285.00 1502.00 L 247.00 1455.00 L 261.00 1385.00 L 275.00 1329.00 L 289.00 1287.00 L 308.00 1243.00 L 332.00 1197.00 L 347.00 1163.00 L 353.00 1141.00 L 352.00 1120.00 L 344.00 1100.00 L 340.00 1084.00 L 340.00 1072.00 L 340.00 1063.00 L 340.00 1057.00 L 340.00 1031.00 Z" fill="black" stroke="black" stroke-width="1"/>
</svg>