<?xml version="1.0" encoding="UTF-8"?>
<svg xmlns="http://www.w3.org/2000/svg" viewBox="321.00 236.00 846.00 1347.00">
  <path d="M 376.00 911.00 L 380.00 905.00 L 381.00 896.00 L 379.00 884.00 L 380.00 873.00 L 384.00 863.00 L 375.00 855.00 L 353.00 849.00 L 340.00 845.00 L 336.00 843.00 L 341.00 843.00 L 355.00 845.00 L 353.00 843.00 L 335.00 837.00 L 342.00 837.00 L 374.00 843.00 L 373.00 840.00 L 339.00 828.00 L 340.00 826.00 L 376.00 834.00 L 375.00 832.00 L 337.00 820.00 L 340.00 776.00 L 384.00 700.00 L 405.00 642.00 L 403.00 602.00 L 412.00 556.00 L 432.00 504.00 L 440.00 471.00 L 436.00 457.00 L 437.00 455.00 L 443.00 465.00 L 444.00 466.00 L 440.00 458.00 L 438.00 451.00 L 438.00 445.00 L 441.00 447.00 L 447.00 457.00 L 448.00 455.00 L 444.00 441.00 L 445.00 439.00 L 451.00 449.00 L 452.00 447.00 L 448.00 433.00 L 449.00 431.00 L 455.00 441.00 L 457.00 443.00 L 455.00 437.00 L 456.00 435.00 L 460.00 437.00 L 460.00 433.00 L 456.00 423.00 L 455.00 420.00 L 457.00 424.00 L 458.00 423.00 L 458.00 417.00 L 460.00 418.00 L 464.00 426.00 L 466.00 423.00 L 466.00 409.00 L 468.00 406.00 L 472.00 414.00 L 476.00 408.00 L 480.00 388.00 L 488.00 372.00 L 500.00 360.00 L 517.00 348.00 L 539.00 336.00 L 555.00 325.00 L 565.00 315.00 L 596.00 298.00 L 648.00 274.00 L 707.00 258.00 L 773.00 250.00 L 833.00 246.00 L 887.00 246.00 L 915.00 249.00 L 917.00 255.00 L 934.00 262.00 L 966.00 270.00 L 991.00 279.00 L 1009.00 289.00 L 1033.00 307.00 L 1063.00 333.00 L 1089.00 362.00 L 1111.00 394.00 L 1131.00 437.00 L 1149.00 491.00 L 1157.00 530.00 L 1155.00 554.00 L 1134.00 626.00 L 1094.00 746.00 L 1073.00 820.00 L 1071.00 848.00 L 1061.00 865.00 L 1043.00 871.00 L 1041.00 875.00 L 1055.00 877.00 L 1055.00 879.00 L 1041.00 881.00 L 1037.00 882.00 L 1043.00 882.00 L 1043.00 884.00 L 1037.00 888.00 L 1038.00 890.00 L 1046.00 890.00 L 1047.00 895.00 L 1041.00 905.00 L 1044.00 922.00 L 1056.00 946.00 L 1068.00 986.00 L 1080.00 1042.00 L 1084.00 1083.00 L 1080.00 1109.00 L 1083.00 1131.00 L 1093.00 1149.00 L 1104.00 1181.00 L 1116.00 1227.00 L 1120.00 1259.00 L 1116.00 1277.00 L 1106.00 1296.00 L 1090.00 1316.00 L 1068.00 1331.00 L 1040.00 1341.00 L 969.00 1354.00 L 855.00 1370.00 L 759.00 1389.00 L 681.00 1411.00 L 602.00 1440.00 L 522.00 1476.00 L 455.00 1512.00 L 401.00 1548.00 L 370.00 1568.00 L 362.00 1572.00 L 355.00 1573.00 L 349.00 1571.00 L 344.00 1566.00 L 340.00 1558.00 L 340.00 1541.00 L 344.00 1515.00 L 344.00 1501.00 L 340.00 1499.00 L 341.00 1489.00 L 347.00 1471.00 L 347.00 1463.00 L 341.00 1465.00 L 372.00 1413.00 L 440.00 1307.00 L 439.00 1308.00 L 369.00 1416.00 L 333.00 1468.00 L 331.00 1464.00 L 365.00 1407.00 L 435.00 1297.00 L 438.00 1287.00 L 374.00 1377.00 L 377.00 1371.00 L 447.00 1269.00 L 450.00 1260.00 L 386.00 1344.00 L 383.00 1345.00 L 441.00 1263.00 L 441.00 1261.00 L 383.00 1339.00 L 368.00 1357.00 L 396.00 1315.00 L 401.00 1305.00 L 383.00 1327.00 L 395.00 1310.00 L 437.00 1254.00 L 436.00 1255.00 L 392.00 1313.00 L 394.00 1307.00 L 442.00 1237.00 L 456.00 1211.00 L 436.00 1229.00 L 433.00 1229.00 L 447.00 1211.00 L 451.00 1202.00 L 445.00 1202.00 L 448.00 1195.00 L 460.00 1181.00 L 459.00 1179.00 L 445.00 1189.00 L 445.00 1186.00 L 459.00 1170.00 L 458.00 1169.00 L 442.00 1183.00 L 441.00 1181.00 L 455.00 1163.00 L 456.00 1160.00 L 444.00 1172.00 L 443.00 1169.00 L 453.00 1151.00 L 454.00 1135.00 L 446.00 1121.00 L 452.00 1104.00 L 472.00 1084.00 L 470.00 1082.00 L 446.00 1098.00 L 445.00 1097.00 L 467.00 1079.00 L 467.00 1077.00 L 445.00 1091.00 L 442.00 1091.00 L 458.00 1077.00 L 448.00 1068.00 L 412.00 1064.00 L 388.00 1057.00 L 376.00 1047.00 L 368.00 1037.00 L 364.00 1027.00 L 362.00 1017.00 L 362.00 1007.00 L 366.00 992.00 L 374.00 972.00 L 376.00 953.00 L 372.00 935.00 L 371.00 923.00 L 373.00 917.00 L 376.00 911.00 Z" fill="black" stroke="black" stroke-width="1"/>
</svg>