<?xml version="1.0" encoding="UTF-8"?>
<svg xmlns="http://www.w3.org/2000/svg" viewBox="352.00 264.00 888.00 1592.00">
  <path d="M 489.00 1036.00 L 495.00 1008.00 L 504.00 987.00 L 516.00 973.00 L 511.00 959.00 L 489.00 945.00 L 475.00 934.00 L 469.00 926.00 L 464.00 904.00 L 460.00 868.00 L 439.00 816.00 L 401.00 748.00 L 377.00 690.00 L 367.00 642.00 L 362.00 595.00 L 362.00 549.00 L 364.00 515.00 L 368.00 493.00 L 380.00 461.00 L 400.00 419.00 L 419.00 388.00 L 437.00 368.00 L 463.00 346.00 L 497.00 322.00 L 544.00 301.00 L 604.00 283.00 L 662.00 274.00 L 718.00 274.00 L 756.00 281.00 L 776.00 295.00 L 797.00 303.00 L 819.00 305.00 L 849.00 314.00 L 887.00 330.00 L 917.00 354.00 L 939.00 386.00 L 963.00 410.00 L 989.00 426.00 L 1014.00 448.00 L 1038.00 476.00 L 1052.00 496.00 L 1056.00 508.00 L 1056.00 521.00 L 1052.00 535.00 L 1052.00 538.00 L 1056.00 530.00 L 1053.00 537.00 L 1043.00 559.00 L 1041.00 565.00 L 1047.00 555.00 L 1048.00 559.00 L 1044.00 577.00 L 1045.00 582.00 L 1051.00 574.00 L 1051.00 576.00 L 1045.00 588.00 L 1046.00 589.00 L 1054.00 579.00 L 1055.00 580.00 L 1049.00 592.00 L 1050.00 594.00 L 1058.00 586.00 L 1059.00 589.00 L 1053.00 603.00 L 1050.00 621.00 L 1050.00 643.00 L 1047.00 663.00 L 1041.00 681.00 L 1051.00 707.00 L 1077.00 741.00 L 1097.00 764.00 L 1111.00 776.00 L 1120.00 787.00 L 1124.00 797.00 L 1126.00 805.00 L 1126.00 811.00 L 1118.00 821.00 L 1102.00 835.00 L 1100.00 838.00 L 1112.00 830.00 L 1110.00 832.00 L 1094.00 844.00 L 1092.00 846.00 L 1104.00 838.00 L 1103.00 841.00 L 1089.00 855.00 L 1086.00 872.00 L 1094.00 892.00 L 1092.00 907.00 L 1080.00 917.00 L 1076.00 921.00 L 1080.00 919.00 L 1081.00 920.00 L 1079.00 924.00 L 1080.00 931.00 L 1084.00 941.00 L 1078.00 958.00 L 1062.00 982.00 L 1055.00 1000.00 L 1057.00 1012.00 L 1056.00 1026.00 L 1052.00 1042.00 L 1041.00 1060.00 L 1023.00 1080.00 L 1008.00 1092.00 L 996.00 1096.00 L 996.00 1101.00 L 1008.00 1107.00 L 1017.00 1114.00 L 1023.00 1122.00 L 1020.00 1134.00 L 1008.00 1150.00 L 1011.00 1166.00 L 1029.00 1182.00 L 1026.00 1184.00 L 1002.00 1172.00 L 1003.00 1174.00 L 1029.00 1190.00 L 1036.00 1195.00 L 1024.00 1189.00 L 1026.00 1192.00 L 1042.00 1204.00 L 1039.00 1204.00 L 1017.00 1192.00 L 1019.00 1195.00 L 1045.00 1213.00 L 1040.00 1211.00 L 1004.00 1189.00 L 1004.00 1191.00 L 1040.00 1217.00 L 1043.00 1220.00 L 1013.00 1200.00 L 1031.00 1217.00 L 1097.00 1271.00 L 1093.00 1271.00 L 1019.00 1217.00 L 1018.00 1220.00 L 1090.00 1280.00 L 1123.00 1310.00 L 1117.00 1310.00 L 1080.00 1283.00 L 1012.00 1229.00 L 1009.00 1229.00 L 1071.00 1283.00 L 1091.00 1307.00 L 1069.00 1301.00 L 1071.00 1315.00 L 1097.00 1349.00 L 1109.00 1365.00 L 1107.00 1363.00 L 1111.00 1372.00 L 1121.00 1392.00 L 1129.00 1417.00 L 1135.00 1447.00 L 1143.00 1470.00 L 1153.00 1486.00 L 1155.00 1491.00 L 1149.00 1485.00 L 1157.00 1496.00 L 1179.00 1524.00 L 1185.00 1532.00 L 1175.00 1520.00 L 1181.00 1532.00 L 1203.00 1568.00 L 1218.00 1603.00 L 1226.00 1637.00 L 1230.00 1673.00 L 1230.00 1711.00 L 1225.00 1747.00 L 1215.00 1781.00 L 1204.00 1805.00 L 1192.00 1819.00 L 1175.00 1831.00 L 1153.00 1841.00 L 1134.00 1846.00 L 1118.00 1846.00 L 1103.00 1843.00 L 1089.00 1837.00 L 1041.00 1804.00 L 959.00 1744.00 L 872.00 1686.00 L 780.00 1630.00 L 687.00 1581.00 L 593.00 1539.00 L 506.00 1509.00 L 426.00 1491.00 L 389.00 1462.00 L 395.00 1422.00 L 406.00 1371.00 L 422.00 1309.00 L 442.00 1254.00 L 466.00 1206.00 L 477.00 1166.00 L 475.00 1134.00 L 477.00 1104.00 L 483.00 1076.00 L 486.00 1059.00 L 486.00 1053.00 L 489.00 1036.00 Z" fill="black" stroke="black" stroke-width="1"/>
</svg>