<?xml version="1.0" encoding="UTF-8"?>
<svg xmlns="http://www.w3.org/2000/svg" viewBox="382.00 228.00 844.00 1488.00">
  <path d="M 520.00 981.00 L 532.00 947.00 L 547.00 922.00 L 565.00 906.00 L 566.00 892.00 L 550.00 880.00 L 525.00 847.00 L 491.00 793.00 L 463.00 738.00 L 441.00 682.00 L 425.00 623.00 L 415.00 561.00 L 412.00 531.00 L 416.00 533.00 L 416.00 530.00 L 412.00 522.00 L 411.00 516.00 L 413.00 512.00 L 416.00 511.00 L 420.00 513.00 L 424.00 502.00 L 428.00 478.00 L 435.00 453.00 L 445.00 427.00 L 464.00 394.00 L 492.00 354.00 L 536.00 315.00 L 596.00 277.00 L 657.00 252.00 L 719.00 240.00 L 766.00 238.00 L 798.00 246.00 L 828.00 250.00 L 856.00 250.00 L 882.00 254.00 L 906.00 262.00 L 940.00 282.00 L 984.00 314.00 L 1016.00 340.00 L 1036.00 360.00 L 1048.00 380.00 L 1052.00 400.00 L 1055.00 411.00 L 1057.00 413.00 L 1060.00 411.00 L 1064.00 405.00 L 1065.00 408.00 L 1063.00 420.00 L 1065.00 422.00 L 1071.00 414.00 L 1073.00 416.00 L 1071.00 428.00 L 1073.00 430.00 L 1079.00 422.00 L 1080.00 424.00 L 1076.00 436.00 L 1077.00 437.00 L 1083.00 427.00 L 1084.00 429.00 L 1080.00 443.00 L 1081.00 445.00 L 1087.00 435.00 L 1089.00 438.00 L 1087.00 454.00 L 1094.00 473.00 L 1110.00 495.00 L 1122.00 519.00 L 1130.00 545.00 L 1132.00 570.00 L 1128.00 594.00 L 1140.00 626.00 L 1168.00 666.00 L 1189.00 691.00 L 1203.00 701.00 L 1212.00 710.00 L 1216.00 718.00 L 1206.00 733.00 L 1182.00 755.00 L 1183.00 757.00 L 1209.00 739.00 L 1208.00 742.00 L 1180.00 766.00 L 1180.00 769.00 L 1208.00 751.00 L 1208.00 753.00 L 1180.00 775.00 L 1169.00 801.00 L 1175.00 831.00 L 1175.00 849.00 L 1169.00 855.00 L 1167.00 862.00 L 1169.00 870.00 L 1163.00 887.00 L 1149.00 913.00 L 1143.00 939.00 L 1145.00 965.00 L 1143.00 985.00 L 1137.00 999.00 L 1124.00 1013.00 L 1104.00 1027.00 L 1099.00 1038.00 L 1109.00 1046.00 L 1106.00 1065.00 L 1090.00 1095.00 L 1087.00 1117.00 L 1097.00 1131.00 L 1094.00 1134.00 L 1078.00 1126.00 L 1080.00 1128.00 L 1100.00 1140.00 L 1101.00 1143.00 L 1083.00 1137.00 L 1083.00 1139.00 L 1101.00 1149.00 L 1098.00 1148.00 L 1074.00 1136.00 L 1063.00 1132.00 L 1065.00 1136.00 L 1064.00 1137.00 L 1060.00 1135.00 L 1070.00 1142.00 L 1094.00 1158.00 L 1102.00 1168.00 L 1094.00 1172.00 L 1083.00 1172.00 L 1069.00 1168.00 L 1074.00 1176.00 L 1098.00 1196.00 L 1096.00 1196.00 L 1068.00 1176.00 L 1085.00 1190.00 L 1147.00 1238.00 L 1150.00 1241.00 L 1094.00 1199.00 L 1094.00 1201.00 L 1150.00 1247.00 L 1147.00 1246.00 L 1085.00 1198.00 L 1083.00 1199.00 L 1141.00 1249.00 L 1139.00 1249.00 L 1077.00 1199.00 L 1072.00 1195.00 L 1124.00 1237.00 L 1143.00 1253.00 L 1129.00 1243.00 L 1131.00 1248.00 L 1149.00 1268.00 L 1135.00 1259.00 L 1089.00 1221.00 L 1086.00 1221.00 L 1126.00 1259.00 L 1123.00 1258.00 L 1077.00 1218.00 L 1075.00 1218.00 L 1117.00 1258.00 L 1115.00 1258.00 L 1069.00 1218.00 L 1066.00 1218.00 L 1106.00 1258.00 L 1104.00 1259.00 L 1060.00 1221.00 L 1043.00 1208.00 L 1053.00 1220.00 L 1056.00 1229.00 L 1052.00 1235.00 L 1064.00 1255.00 L 1092.00 1289.00 L 1093.00 1292.00 L 1067.00 1264.00 L 1067.00 1266.00 L 1093.00 1298.00 L 1089.00 1295.00 L 1055.00 1257.00 L 1057.00 1261.00 L 1095.00 1307.00 L 1119.00 1351.00 L 1129.00 1393.00 L 1142.00 1435.00 L 1158.00 1477.00 L 1170.00 1517.00 L 1178.00 1555.00 L 1182.00 1583.00 L 1182.00 1601.00 L 1178.00 1628.00 L 1170.00 1664.00 L 1161.00 1690.00 L 1151.00 1706.00 L 1121.00 1701.00 L 1071.00 1675.00 L 995.00 1643.00 L 893.00 1605.00 L 762.00 1566.00 L 602.00 1526.00 L 491.00 1501.00 L 429.00 1491.00 L 396.00 1478.00 L 392.00 1462.00 L 394.00 1433.00 L 402.00 1391.00 L 414.00 1349.00 L 430.00 1307.00 L 447.00 1272.00 L 465.00 1244.00 L 476.00 1221.00 L 480.00 1203.00 L 486.00 1187.00 L 494.00 1173.00 L 496.00 1150.00 L 492.00 1118.00 L 496.00 1078.00 L 508.00 1030.00 L 514.00 1004.00 L 514.00 1000.00 L 520.00 981.00 Z" fill="black" stroke="black" stroke-width="1"/>
</svg>