<?xml version="1.0" encoding="UTF-8"?>
<svg xmlns="http://www.w3.org/2000/svg" viewBox="317.00 208.00 962.00 1558.00">
  <path d="M 426.00 965.00 L 434.00 911.00 L 443.00 873.00 L 453.00 851.00 L 454.00 837.00 L 446.00 831.00 L 430.00 804.00 L 406.00 756.00 L 390.00 713.00 L 382.00 675.00 L 371.00 645.00 L 357.00 623.00 L 345.00 598.00 L 335.00 570.00 L 331.00 534.00 L 333.00 490.00 L 339.00 454.00 L 349.00 426.00 L 361.00 402.00 L 375.00 382.00 L 393.00 361.00 L 415.00 339.00 L 443.00 316.00 L 477.00 292.00 L 523.00 268.00 L 581.00 244.00 L 624.00 229.00 L 652.00 223.00 L 678.00 221.00 L 702.00 223.00 L 716.00 222.00 L 720.00 218.00 L 749.00 221.00 L 803.00 231.00 L 847.00 237.00 L 881.00 239.00 L 905.00 243.00 L 919.00 249.00 L 949.00 268.00 L 995.00 300.00 L 1020.00 318.00 L 1024.00 322.00 L 1026.00 328.00 L 1026.00 336.00 L 1027.00 337.00 L 1029.00 331.00 L 1030.00 333.00 L 1030.00 343.00 L 1032.00 350.00 L 1036.00 354.00 L 1038.00 360.00 L 1038.00 368.00 L 1039.00 370.00 L 1041.00 366.00 L 1043.00 365.00 L 1045.00 367.00 L 1045.00 371.00 L 1043.00 377.00 L 1045.00 389.00 L 1051.00 407.00 L 1062.00 433.00 L 1078.00 467.00 L 1087.00 488.00 L 1089.00 496.00 L 1090.00 504.00 L 1090.00 512.00 L 1088.00 521.00 L 1084.00 531.00 L 1084.00 533.00 L 1088.00 527.00 L 1088.00 529.00 L 1084.00 539.00 L 1083.00 550.00 L 1085.00 562.00 L 1099.00 581.00 L 1125.00 607.00 L 1143.00 627.00 L 1153.00 641.00 L 1159.00 651.00 L 1161.00 657.00 L 1156.00 666.00 L 1144.00 678.00 L 1144.00 680.00 L 1156.00 672.00 L 1149.00 682.00 L 1123.00 710.00 L 1118.00 717.00 L 1134.00 703.00 L 1133.00 707.00 L 1115.00 729.00 L 1107.00 750.00 L 1109.00 770.00 L 1107.00 785.00 L 1101.00 795.00 L 1099.00 807.00 L 1101.00 821.00 L 1098.00 836.00 L 1090.00 852.00 L 1087.00 873.00 L 1089.00 899.00 L 1091.00 913.00 L 1093.00 915.00 L 1093.00 921.00 L 1091.00 931.00 L 1086.00 943.00 L 1078.00 957.00 L 1070.00 968.00 L 1062.00 976.00 L 1053.00 982.00 L 1043.00 986.00 L 1037.00 990.00 L 1035.00 994.00 L 1036.00 997.00 L 1040.00 999.00 L 1043.00 1004.00 L 1045.00 1012.00 L 1040.00 1029.00 L 1028.00 1055.00 L 1029.00 1073.00 L 1043.00 1083.00 L 1051.00 1090.00 L 1053.00 1094.00 L 1044.00 1093.00 L 1024.00 1087.00 L 1025.00 1090.00 L 1047.00 1102.00 L 1057.00 1112.00 L 1055.00 1120.00 L 1068.00 1134.00 L 1096.00 1154.00 L 1097.00 1158.00 L 1071.00 1146.00 L 1082.00 1155.00 L 1130.00 1185.00 L 1125.00 1184.00 L 1067.00 1152.00 L 1065.00 1155.00 L 1119.00 1193.00 L 1138.00 1214.00 L 1122.00 1218.00 L 1094.00 1206.00 L 1054.00 1178.00 L 1052.00 1178.00 L 1088.00 1206.00 L 1089.00 1208.00 L 1055.00 1184.00 L 1052.00 1183.00 L 1080.00 1205.00 L 1083.00 1208.00 L 1061.00 1192.00 L 1057.00 1191.00 L 1071.00 1205.00 L 1083.00 1223.00 L 1093.00 1245.00 L 1106.00 1268.00 L 1122.00 1292.00 L 1148.00 1325.00 L 1184.00 1367.00 L 1209.00 1401.00 L 1223.00 1427.00 L 1229.00 1439.00 L 1227.00 1437.00 L 1235.00 1457.00 L 1253.00 1499.00 L 1264.00 1530.00 L 1268.00 1550.00 L 1269.00 1574.00 L 1267.00 1602.00 L 1262.00 1631.00 L 1254.00 1661.00 L 1243.00 1688.00 L 1229.00 1712.00 L 1214.00 1730.00 L 1198.00 1742.00 L 1181.00 1750.00 L 1163.00 1754.00 L 1146.00 1756.00 L 1130.00 1756.00 L 1099.00 1746.00 L 1053.00 1726.00 L 998.00 1694.00 L 934.00 1650.00 L 867.00 1608.00 L 797.00 1568.00 L 736.00 1536.00 L 684.00 1512.00 L 656.00 1498.00 L 652.00 1494.00 L 612.00 1481.00 L 536.00 1459.00 L 474.00 1444.00 L 426.00 1436.00 L 384.00 1431.00 L 348.00 1429.00 L 329.00 1423.00 L 327.00 1413.00 L 333.00 1366.00 L 347.00 1282.00 L 359.00 1224.00 L 369.00 1192.00 L 383.00 1158.00 L 401.00 1122.00 L 414.00 1093.00 L 422.00 1071.00 L 424.00 1053.00 L 420.00 1039.00 L 419.00 1024.00 L 421.00 1008.00 L 422.00 998.00 L 422.00 994.00 L 426.00 965.00 Z" fill="black" stroke="black" stroke-width="1"/>
</svg>