<?xml version="1.0" encoding="UTF-8"?>
<svg xmlns="http://www.w3.org/2000/svg" viewBox="346.00 180.00 905.00 1526.00">
  <path d="M 558.00 939.00 L 558.00 917.00 L 554.00 903.00 L 546.00 897.00 L 533.00 879.00 L 515.00 849.00 L 481.00 808.00 L 431.00 756.00 L 397.00 714.00 L 379.00 682.00 L 367.00 656.00 L 361.00 636.00 L 359.00 612.00 L 361.00 584.00 L 360.00 560.00 L 356.00 540.00 L 357.00 507.00 L 363.00 461.00 L 373.00 425.00 L 387.00 399.00 L 398.00 372.00 L 406.00 344.00 L 416.00 323.00 L 428.00 309.00 L 461.00 281.00 L 515.00 239.00 L 571.00 211.00 L 629.00 197.00 L 669.00 190.00 L 691.00 190.00 L 716.00 194.00 L 744.00 202.00 L 778.00 208.00 L 818.00 212.00 L 844.00 217.00 L 856.00 223.00 L 867.00 232.00 L 877.00 244.00 L 902.00 258.00 L 942.00 274.00 L 970.00 292.00 L 986.00 312.00 L 992.00 330.00 L 988.00 346.00 L 989.00 348.00 L 995.00 336.00 L 996.00 338.00 L 992.00 354.00 L 994.00 356.00 L 1002.00 344.00 L 1005.00 347.00 L 1003.00 365.00 L 1005.00 366.00 L 1011.00 350.00 L 1013.00 352.00 L 1011.00 372.00 L 1014.00 374.00 L 1022.00 358.00 L 1024.00 359.00 L 1020.00 377.00 L 1023.00 380.00 L 1033.00 368.00 L 1035.00 370.00 L 1029.00 386.00 L 1027.00 395.00 L 1029.00 397.00 L 1033.00 392.00 L 1039.00 380.00 L 1039.00 383.00 L 1033.00 401.00 L 1035.00 404.00 L 1045.00 392.00 L 1047.00 394.00 L 1041.00 410.00 L 1040.00 415.00 L 1044.00 409.00 L 1045.00 411.00 L 1043.00 421.00 L 1046.00 418.00 L 1054.00 402.00 L 1057.00 398.00 L 1055.00 406.00 L 1056.00 409.00 L 1060.00 407.00 L 1059.00 414.00 L 1053.00 430.00 L 1054.00 431.00 L 1062.00 417.00 L 1064.00 420.00 L 1060.00 440.00 L 1063.00 468.00 L 1073.00 504.00 L 1075.00 529.00 L 1069.00 543.00 L 1069.00 546.00 L 1075.00 538.00 L 1074.00 541.00 L 1066.00 555.00 L 1062.00 566.00 L 1062.00 574.00 L 1066.00 586.00 L 1074.00 602.00 L 1093.00 621.00 L 1123.00 643.00 L 1141.00 659.00 L 1147.00 669.00 L 1149.00 680.00 L 1147.00 692.00 L 1138.00 706.00 L 1122.00 722.00 L 1121.00 725.00 L 1135.00 715.00 L 1134.00 718.00 L 1118.00 734.00 L 1115.00 753.00 L 1125.00 775.00 L 1130.00 789.00 L 1130.00 795.00 L 1126.00 803.00 L 1118.00 813.00 L 1117.00 823.00 L 1123.00 833.00 L 1121.00 853.00 L 1111.00 883.00 L 1108.00 908.00 L 1112.00 928.00 L 1113.00 949.00 L 1111.00 971.00 L 1104.00 988.00 L 1092.00 1000.00 L 1075.00 1011.00 L 1053.00 1021.00 L 1045.00 1028.00 L 1051.00 1032.00 L 1049.00 1033.00 L 1039.00 1031.00 L 1041.00 1034.00 L 1055.00 1042.00 L 1062.00 1048.00 L 1062.00 1052.00 L 1057.00 1060.00 L 1047.00 1072.00 L 1033.00 1084.00 L 1015.00 1096.00 L 1015.00 1111.00 L 1033.00 1129.00 L 1032.00 1131.00 L 1012.00 1117.00 L 1011.00 1120.00 L 1029.00 1140.00 L 1028.00 1142.00 L 1008.00 1126.00 L 1016.00 1138.00 L 1052.00 1178.00 L 1051.00 1181.00 L 1013.00 1147.00 L 1014.00 1149.00 L 1054.00 1187.00 L 1064.00 1197.00 L 1044.00 1179.00 L 1046.00 1182.00 L 1070.00 1206.00 L 1067.00 1204.00 L 1037.00 1176.00 L 1044.00 1186.00 L 1088.00 1234.00 L 1086.00 1234.00 L 1038.00 1186.00 L 1036.00 1188.00 L 1080.00 1240.00 L 1077.00 1240.00 L 1027.00 1188.00 L 1025.00 1187.00 L 1071.00 1237.00 L 1092.00 1262.00 L 1088.00 1262.00 L 1064.00 1238.00 L 1020.00 1190.00 L 1018.00 1189.00 L 1058.00 1235.00 L 1071.00 1255.00 L 1057.00 1249.00 L 1054.00 1255.00 L 1062.00 1273.00 L 1095.00 1321.00 L 1153.00 1399.00 L 1154.00 1402.00 L 1098.00 1330.00 L 1100.00 1333.00 L 1160.00 1411.00 L 1162.00 1414.00 L 1106.00 1342.00 L 1107.00 1344.00 L 1165.00 1420.00 L 1166.00 1422.00 L 1110.00 1350.00 L 1114.00 1358.00 L 1178.00 1446.00 L 1218.00 1517.00 L 1234.00 1571.00 L 1241.00 1610.00 L 1239.00 1634.00 L 1231.00 1657.00 L 1217.00 1679.00 L 1196.00 1692.00 L 1168.00 1696.00 L 1145.00 1695.00 L 1127.00 1689.00 L 1052.00 1654.00 L 920.00 1590.00 L 819.00 1546.00 L 749.00 1522.00 L 673.00 1501.00 L 591.00 1483.00 L 524.00 1472.00 L 472.00 1468.00 L 443.00 1464.00 L 437.00 1460.00 L 437.00 1431.00 L 443.00 1377.00 L 462.00 1313.00 L 494.00 1239.00 L 509.00 1180.00 L 507.00 1136.00 L 509.00 1091.00 L 515.00 1045.00 L 520.00 1016.00 L 524.00 1004.00 L 533.00 989.00 L 547.00 971.00 L 555.00 959.00 L 557.00 953.00 L 558.00 939.00 Z" fill="black" stroke="black" stroke-width="1"/>
</svg>