<?xml version="1.0" encoding="UTF-8"?>
<svg xmlns="http://www.w3.org/2000/svg" viewBox="233.00 156.00 914.00 1651.00">
  <path d="M 432.00 962.00 L 436.00 946.00 L 446.00 932.00 L 462.00 920.00 L 472.00 903.00 L 476.00 881.00 L 447.00 855.00 L 385.00 825.00 L 360.00 812.00 L 372.00 816.00 L 368.00 813.00 L 348.00 803.00 L 355.00 806.00 L 389.00 822.00 L 387.00 820.00 L 349.00 800.00 L 351.00 800.00 L 393.00 820.00 L 391.00 818.00 L 345.00 794.00 L 361.00 802.00 L 439.00 842.00 L 438.00 840.00 L 358.00 796.00 L 345.00 788.00 L 399.00 816.00 L 397.00 813.00 L 339.00 779.00 L 341.00 779.00 L 403.00 813.00 L 402.00 812.00 L 338.00 776.00 L 349.00 781.00 L 435.00 827.00 L 434.00 824.00 L 346.00 772.00 L 300.00 743.00 L 296.00 737.00 L 340.00 761.00 L 432.00 815.00 L 430.00 810.00 L 334.00 746.00 L 334.00 744.00 L 430.00 804.00 L 429.00 801.00 L 331.00 735.00 L 327.00 731.00 L 417.00 789.00 L 415.00 786.00 L 321.00 722.00 L 325.00 724.00 L 427.00 792.00 L 427.00 790.00 L 325.00 718.00 L 323.00 715.00 L 421.00 781.00 L 420.00 778.00 L 320.00 706.00 L 321.00 706.00 L 423.00 778.00 L 422.00 776.00 L 318.00 700.00 L 318.00 699.00 L 422.00 773.00 L 421.00 768.00 L 315.00 684.00 L 263.00 614.00 L 265.00 558.00 L 268.00 522.00 L 272.00 506.00 L 283.00 480.00 L 301.00 444.00 L 325.00 410.00 L 355.00 378.00 L 375.00 338.00 L 385.00 290.00 L 396.00 266.00 L 408.00 266.00 L 423.00 254.00 L 441.00 230.00 L 461.00 209.00 L 483.00 191.00 L 506.00 178.00 L 530.00 170.00 L 552.00 166.00 L 572.00 166.00 L 584.00 179.00 L 588.00 205.00 L 589.00 206.00 L 587.00 182.00 L 589.00 182.00 L 595.00 206.00 L 598.00 210.00 L 598.00 194.00 L 600.00 194.00 L 604.00 210.00 L 618.00 216.00 L 642.00 212.00 L 665.00 211.00 L 687.00 213.00 L 725.00 220.00 L 779.00 232.00 L 826.00 246.00 L 866.00 262.00 L 914.00 291.00 L 970.00 333.00 L 1008.00 366.00 L 1028.00 390.00 L 1041.00 410.00 L 1047.00 426.00 L 1047.00 442.00 L 1041.00 458.00 L 1042.00 463.00 L 1050.00 457.00 L 1051.00 459.00 L 1045.00 469.00 L 1045.00 472.00 L 1051.00 468.00 L 1051.00 471.00 L 1045.00 481.00 L 1044.00 484.00 L 1048.00 480.00 L 1048.00 481.00 L 1044.00 487.00 L 1044.00 489.00 L 1048.00 487.00 L 1048.00 490.00 L 1044.00 498.00 L 1043.00 515.00 L 1045.00 541.00 L 1043.00 569.00 L 1037.00 599.00 L 1038.00 626.00 L 1046.00 650.00 L 1060.00 679.00 L 1080.00 713.00 L 1073.00 743.00 L 1039.00 769.00 L 1039.00 772.00 L 1073.00 752.00 L 1073.00 754.00 L 1039.00 778.00 L 1038.00 781.00 L 1070.00 763.00 L 1071.00 766.00 L 1041.00 790.00 L 1027.00 805.00 L 1029.00 811.00 L 1027.00 817.00 L 1021.00 823.00 L 1019.00 828.00 L 1021.00 832.00 L 1020.00 839.00 L 1016.00 849.00 L 1016.00 866.00 L 1020.00 890.00 L 1019.00 908.00 L 1013.00 920.00 L 999.00 931.00 L 977.00 941.00 L 969.00 946.00 L 975.00 946.00 L 955.00 962.00 L 909.00 994.00 L 872.00 1025.00 L 844.00 1055.00 L 829.00 1074.00 L 827.00 1082.00 L 836.00 1110.00 L 856.00 1158.00 L 883.00 1206.00 L 917.00 1254.00 L 922.00 1263.00 L 898.00 1233.00 L 929.00 1274.00 L 1015.00 1386.00 L 1036.00 1414.00 L 992.00 1358.00 L 1008.00 1382.00 L 1084.00 1486.00 L 1118.00 1533.00 L 1110.00 1523.00 L 1113.00 1533.00 L 1127.00 1563.00 L 1135.00 1595.00 L 1137.00 1629.00 L 1133.00 1661.00 L 1123.00 1691.00 L 1109.00 1717.00 L 1091.00 1739.00 L 1069.00 1758.00 L 1043.00 1774.00 L 1013.00 1787.00 L 979.00 1797.00 L 927.00 1771.00 L 857.00 1709.00 L 776.00 1650.00 L 684.00 1594.00 L 604.00 1550.00 L 536.00 1518.00 L 471.00 1492.00 L 409.00 1472.00 L 345.00 1455.00 L 279.00 1441.00 L 245.00 1431.00 L 243.00 1425.00 L 251.00 1393.00 L 269.00 1335.00 L 296.00 1272.00 L 332.00 1204.00 L 352.00 1159.00 L 356.00 1137.00 L 365.00 1113.00 L 379.00 1087.00 L 390.00 1060.00 L 398.00 1032.00 L 409.00 1008.00 L 423.00 988.00 L 430.00 976.00 L 430.00 972.00 L 432.00 962.00 Z" fill="black" stroke="black" stroke-width="1"/>
</svg>