<?xml version="1.0" encoding="UTF-8"?>
<svg xmlns="http://www.w3.org/2000/svg" viewBox="392.00 196.00 843.00 1491.00">
  <path d="M 511.00 930.00 L 521.00 898.00 L 537.00 876.00 L 559.00 864.00 L 571.00 855.00 L 573.00 849.00 L 551.00 811.00 L 505.00 741.00 L 468.00 664.00 L 440.00 580.00 L 424.00 523.00 L 420.00 493.00 L 422.00 460.00 L 430.00 424.00 L 438.00 397.00 L 446.00 379.00 L 465.00 351.00 L 495.00 313.00 L 526.00 282.00 L 558.00 258.00 L 615.00 235.00 L 697.00 213.00 L 753.00 206.00 L 783.00 214.00 L 812.00 219.00 L 840.00 221.00 L 866.00 230.00 L 890.00 246.00 L 910.00 256.00 L 926.00 260.00 L 944.00 268.00 L 964.00 280.00 L 991.00 301.00 L 1025.00 331.00 L 1046.00 354.00 L 1054.00 370.00 L 1065.00 382.00 L 1079.00 390.00 L 1085.00 402.00 L 1083.00 418.00 L 1085.00 420.00 L 1091.00 408.00 L 1095.00 403.00 L 1097.00 405.00 L 1095.00 415.00 L 1089.00 433.00 L 1090.00 436.00 L 1098.00 424.00 L 1099.00 426.00 L 1093.00 442.00 L 1094.00 445.00 L 1102.00 435.00 L 1103.00 437.00 L 1097.00 451.00 L 1097.00 455.00 L 1103.00 449.00 L 1105.00 454.00 L 1103.00 470.00 L 1108.00 471.00 L 1120.00 457.00 L 1122.00 460.00 L 1114.00 480.00 L 1117.00 480.00 L 1131.00 460.00 L 1132.00 462.00 L 1120.00 486.00 L 1119.00 491.00 L 1129.00 477.00 L 1129.00 479.00 L 1119.00 497.00 L 1121.00 495.00 L 1135.00 473.00 L 1135.00 475.00 L 1121.00 501.00 L 1114.00 534.00 L 1114.00 574.00 L 1116.00 599.00 L 1120.00 609.00 L 1145.00 641.00 L 1191.00 695.00 L 1213.00 725.00 L 1211.00 731.00 L 1197.00 742.00 L 1171.00 758.00 L 1169.00 760.00 L 1191.00 748.00 L 1189.00 750.00 L 1163.00 766.00 L 1149.00 785.00 L 1147.00 807.00 L 1138.00 833.00 L 1122.00 863.00 L 1116.00 883.00 L 1120.00 893.00 L 1121.00 908.00 L 1119.00 928.00 L 1113.00 945.00 L 1103.00 959.00 L 1090.00 969.00 L 1074.00 975.00 L 1071.00 984.00 L 1081.00 996.00 L 1079.00 1009.00 L 1065.00 1023.00 L 1065.00 1036.00 L 1079.00 1048.00 L 1078.00 1052.00 L 1062.00 1048.00 L 1064.00 1052.00 L 1084.00 1064.00 L 1083.00 1066.00 L 1061.00 1058.00 L 1062.00 1060.00 L 1086.00 1072.00 L 1097.00 1083.00 L 1095.00 1093.00 L 1088.00 1101.00 L 1076.00 1107.00 L 1073.00 1115.00 L 1079.00 1125.00 L 1076.00 1126.00 L 1064.00 1118.00 L 1068.00 1122.00 L 1088.00 1138.00 L 1101.00 1153.00 L 1107.00 1167.00 L 1122.00 1185.00 L 1146.00 1207.00 L 1147.00 1210.00 L 1125.00 1194.00 L 1121.00 1192.00 L 1135.00 1204.00 L 1136.00 1206.00 L 1124.00 1198.00 L 1127.00 1202.00 L 1145.00 1218.00 L 1126.00 1202.00 L 1070.00 1154.00 L 1069.00 1155.00 L 1123.00 1205.00 L 1121.00 1204.00 L 1063.00 1152.00 L 1061.00 1153.00 L 1115.00 1207.00 L 1113.00 1207.00 L 1055.00 1153.00 L 1052.00 1153.00 L 1104.00 1207.00 L 1112.00 1217.00 L 1076.00 1183.00 L 1073.00 1182.00 L 1103.00 1214.00 L 1104.00 1216.00 L 1076.00 1188.00 L 1074.00 1188.00 L 1098.00 1216.00 L 1093.00 1213.00 L 1059.00 1179.00 L 1057.00 1178.00 L 1087.00 1210.00 L 1089.00 1213.00 L 1063.00 1187.00 L 1060.00 1185.00 L 1080.00 1207.00 L 1081.00 1209.00 L 1063.00 1191.00 L 1059.00 1188.00 L 1069.00 1200.00 L 1081.00 1223.00 L 1095.00 1257.00 L 1121.00 1309.00 L 1159.00 1379.00 L 1184.00 1430.00 L 1196.00 1462.00 L 1207.00 1495.00 L 1217.00 1529.00 L 1223.00 1557.00 L 1225.00 1579.00 L 1225.00 1599.00 L 1223.00 1617.00 L 1217.00 1635.00 L 1207.00 1653.00 L 1193.00 1666.00 L 1175.00 1674.00 L 1153.00 1677.00 L 1127.00 1675.00 L 1079.00 1651.00 L 1009.00 1605.00 L 934.00 1563.00 L 854.00 1525.00 L 786.00 1496.00 L 730.00 1476.00 L 658.00 1456.00 L 570.00 1436.00 L 510.00 1424.00 L 478.00 1420.00 L 449.00 1419.00 L 423.00 1421.00 L 408.00 1420.00 L 404.00 1416.00 L 402.00 1408.00 L 402.00 1396.00 L 414.00 1353.00 L 438.00 1279.00 L 452.00 1222.00 L 456.00 1182.00 L 468.00 1140.00 L 488.00 1096.00 L 496.00 1064.00 L 492.00 1044.00 L 492.00 1026.00 L 496.00 1010.00 L 497.00 999.00 L 495.00 993.00 L 497.00 982.00 L 503.00 966.00 L 506.00 955.00 L 506.00 949.00 L 511.00 930.00 Z" fill="black" stroke="black" stroke-width="1"/>
</svg>