<?xml version="1.0" encoding="UTF-8"?>
<svg xmlns="http://www.w3.org/2000/svg" viewBox="333.00 258.00 886.00 1486.00">
  <path d="M 635.00 947.00 L 637.00 941.00 L 630.00 934.00 L 614.00 926.00 L 614.00 923.00 L 630.00 925.00 L 626.00 924.00 L 602.00 920.00 L 599.00 919.00 L 617.00 921.00 L 616.00 920.00 L 596.00 916.00 L 577.00 908.00 L 559.00 896.00 L 532.00 883.00 L 496.00 869.00 L 494.00 866.00 L 526.00 874.00 L 524.00 873.00 L 488.00 863.00 L 486.00 862.00 L 518.00 870.00 L 531.00 873.00 L 525.00 871.00 L 524.00 870.00 L 528.00 870.00 L 510.00 864.00 L 470.00 852.00 L 432.00 828.00 L 396.00 792.00 L 370.00 754.00 L 354.00 714.00 L 345.00 676.00 L 343.00 640.00 L 346.00 610.00 L 354.00 586.00 L 360.00 555.00 L 364.00 517.00 L 374.00 479.00 L 390.00 441.00 L 415.00 394.00 L 449.00 338.00 L 474.00 304.00 L 490.00 292.00 L 508.00 282.00 L 528.00 274.00 L 554.00 271.00 L 586.00 273.00 L 614.00 272.00 L 638.00 268.00 L 672.00 268.00 L 716.00 272.00 L 742.00 278.00 L 750.00 286.00 L 759.00 290.00 L 769.00 290.00 L 780.00 293.00 L 792.00 299.00 L 822.00 302.00 L 870.00 302.00 L 903.00 305.00 L 921.00 311.00 L 959.00 334.00 L 1017.00 374.00 L 1050.00 396.00 L 1058.00 400.00 L 1073.00 402.00 L 1095.00 402.00 L 1102.00 421.00 L 1094.00 459.00 L 1091.00 480.00 L 1093.00 484.00 L 1097.00 481.00 L 1103.00 471.00 L 1103.00 472.00 L 1097.00 484.00 L 1095.00 491.00 L 1097.00 493.00 L 1101.00 489.00 L 1107.00 479.00 L 1108.00 480.00 L 1104.00 492.00 L 1106.00 494.00 L 1114.00 486.00 L 1116.00 490.00 L 1112.00 506.00 L 1114.00 509.00 L 1122.00 499.00 L 1123.00 501.00 L 1117.00 515.00 L 1118.00 518.00 L 1126.00 510.00 L 1127.00 513.00 L 1121.00 527.00 L 1122.00 529.00 L 1130.00 519.00 L 1131.00 520.00 L 1125.00 532.00 L 1126.00 534.00 L 1134.00 526.00 L 1135.00 529.00 L 1129.00 543.00 L 1127.00 561.00 L 1129.00 583.00 L 1128.00 606.00 L 1124.00 630.00 L 1127.00 651.00 L 1137.00 669.00 L 1158.00 693.00 L 1190.00 723.00 L 1206.00 743.00 L 1206.00 753.00 L 1196.00 766.00 L 1176.00 782.00 L 1171.00 788.00 L 1181.00 784.00 L 1181.00 787.00 L 1171.00 797.00 L 1171.00 816.00 L 1181.00 844.00 L 1182.00 864.00 L 1174.00 876.00 L 1172.00 888.00 L 1176.00 900.00 L 1172.00 916.00 L 1160.00 936.00 L 1152.00 960.00 L 1148.00 988.00 L 1141.00 1008.00 L 1131.00 1020.00 L 1107.00 1035.00 L 1069.00 1053.00 L 1044.00 1063.00 L 1032.00 1065.00 L 1020.00 1074.00 L 1008.00 1090.00 L 1000.00 1109.00 L 996.00 1131.00 L 1002.00 1154.00 L 1018.00 1178.00 L 1017.00 1179.00 L 999.00 1157.00 L 1001.00 1162.00 L 1023.00 1194.00 L 1023.00 1197.00 L 1001.00 1171.00 L 1000.00 1174.00 L 1020.00 1206.00 L 1020.00 1210.00 L 1000.00 1186.00 L 1045.00 1271.00 L 1155.00 1465.00 L 1162.00 1484.00 L 1066.00 1328.00 L 1069.00 1336.00 L 1171.00 1508.00 L 1170.00 1509.00 L 1066.00 1339.00 L 1067.00 1345.00 L 1173.00 1527.00 L 1197.00 1570.00 L 1139.00 1474.00 L 1139.00 1476.00 L 1197.00 1576.00 L 1172.00 1534.00 L 1064.00 1350.00 L 1064.00 1353.00 L 1172.00 1543.00 L 1191.00 1578.00 L 1121.00 1458.00 L 1120.00 1460.00 L 1188.00 1584.00 L 1177.00 1566.00 L 1087.00 1406.00 L 1087.00 1408.00 L 1177.00 1572.00 L 1175.00 1569.00 L 1081.00 1399.00 L 1081.00 1400.00 L 1175.00 1572.00 L 1168.00 1560.00 L 1060.00 1364.00 L 1059.00 1365.00 L 1165.00 1563.00 L 1170.00 1573.00 L 1074.00 1395.00 L 1074.00 1397.00 L 1170.00 1579.00 L 1176.00 1592.00 L 1092.00 1436.00 L 1091.00 1437.00 L 1173.00 1595.00 L 1161.00 1574.00 L 1055.00 1374.00 L 1054.00 1377.00 L 1158.00 1583.00 L 1209.00 1687.00 L 1207.00 1689.00 L 1155.00 1589.00 L 1053.00 1387.00 L 1052.00 1389.00 L 1152.00 1595.00 L 1195.00 1707.00 L 1181.00 1725.00 L 1167.00 1734.00 L 1153.00 1734.00 L 1093.00 1697.00 L 987.00 1623.00 L 893.00 1562.00 L 811.00 1514.00 L 732.00 1473.00 L 656.00 1439.00 L 597.00 1416.00 L 555.00 1404.00 L 534.00 1392.00 L 534.00 1380.00 L 550.00 1333.00 L 582.00 1251.00 L 599.00 1202.00 L 601.00 1186.00 L 605.00 1174.00 L 611.00 1166.00 L 612.00 1153.00 L 608.00 1135.00 L 615.00 1100.00 L 633.00 1048.00 L 650.00 1017.00 L 666.00 1007.00 L 672.00 1002.00 L 668.00 1002.00 L 670.00 997.00 L 678.00 987.00 L 671.00 976.00 L 649.00 964.00 L 637.00 956.00 L 635.00 952.00 L 635.00 947.00 Z" fill="black" stroke="black" stroke-width="1"/>
</svg>