<?xml version="1.0" encoding="UTF-8"?>
<svg xmlns="http://www.w3.org/2000/svg" viewBox="306.00 199.00 781.00 1536.00">
  <path d="M 516.00 896.00 L 536.00 868.00 L 540.00 849.00 L 528.00 839.00 L 528.00 836.00 L 540.00 840.00 L 539.00 839.00 L 525.00 833.00 L 524.00 832.00 L 536.00 836.00 L 534.00 833.00 L 518.00 823.00 L 508.00 811.00 L 504.00 797.00 L 495.00 784.00 L 481.00 772.00 L 476.00 767.00 L 480.00 769.00 L 450.00 751.00 L 386.00 713.00 L 383.00 710.00 L 441.00 742.00 L 438.00 738.00 L 374.00 698.00 L 373.00 696.00 L 435.00 732.00 L 433.00 728.00 L 367.00 684.00 L 366.00 681.00 L 430.00 719.00 L 428.00 716.00 L 360.00 672.00 L 359.00 670.00 L 425.00 710.00 L 424.00 707.00 L 356.00 661.00 L 356.00 659.00 L 424.00 701.00 L 423.00 698.00 L 353.00 650.00 L 352.00 647.00 L 420.00 689.00 L 420.00 686.00 L 352.00 638.00 L 318.00 612.00 L 318.00 608.00 L 352.00 630.00 L 420.00 678.00 L 419.00 676.00 L 349.00 624.00 L 316.00 571.00 L 320.00 517.00 L 330.00 466.00 L 346.00 418.00 L 369.00 379.00 L 399.00 349.00 L 428.00 328.00 L 456.00 316.00 L 478.00 293.00 L 494.00 259.00 L 507.00 246.00 L 517.00 254.00 L 535.00 245.00 L 561.00 219.00 L 586.00 209.00 L 610.00 215.00 L 624.00 224.00 L 628.00 236.00 L 659.00 241.00 L 717.00 239.00 L 771.00 246.00 L 821.00 262.00 L 863.00 281.00 L 897.00 303.00 L 937.00 338.00 L 983.00 386.00 L 1010.00 423.00 L 1018.00 449.00 L 1019.00 470.00 L 1013.00 486.00 L 1014.00 488.00 L 1022.00 476.00 L 1022.00 478.00 L 1014.00 494.00 L 1016.00 496.00 L 1028.00 484.00 L 1029.00 487.00 L 1019.00 505.00 L 1021.00 507.00 L 1035.00 493.00 L 1036.00 498.00 L 1024.00 522.00 L 1026.00 524.00 L 1042.00 504.00 L 1043.00 508.00 L 1029.00 536.00 L 1031.00 539.00 L 1049.00 517.00 L 1049.00 520.00 L 1031.00 548.00 L 1032.00 550.00 L 1052.00 526.00 L 1052.00 534.00 L 1032.00 574.00 L 1030.00 587.00 L 1046.00 573.00 L 1045.00 576.00 L 1027.00 596.00 L 1028.00 597.00 L 1048.00 579.00 L 1048.00 582.00 L 1028.00 606.00 L 1030.00 608.00 L 1054.00 588.00 L 1054.00 591.00 L 1030.00 617.00 L 1031.00 619.00 L 1057.00 597.00 L 1057.00 599.00 L 1031.00 625.00 L 1029.00 628.00 L 1051.00 608.00 L 1053.00 610.00 L 1035.00 634.00 L 1041.00 671.00 L 1071.00 721.00 L 1077.00 755.00 L 1059.00 773.00 L 1051.00 792.00 L 1053.00 812.00 L 1048.00 830.00 L 1036.00 846.00 L 1030.00 860.00 L 1030.00 872.00 L 1022.00 882.00 L 1006.00 890.00 L 995.00 907.00 L 989.00 933.00 L 970.00 955.00 L 938.00 973.00 L 907.00 984.00 L 877.00 988.00 L 859.00 993.00 L 853.00 999.00 L 857.00 1012.00 L 871.00 1032.00 L 869.00 1034.00 L 851.00 1018.00 L 849.00 1020.00 L 863.00 1040.00 L 865.00 1058.00 L 855.00 1074.00 L 853.00 1089.00 L 859.00 1103.00 L 858.00 1104.00 L 850.00 1092.00 L 872.00 1137.00 L 924.00 1239.00 L 929.00 1253.00 L 887.00 1179.00 L 892.00 1189.00 L 944.00 1283.00 L 956.00 1305.00 L 928.00 1255.00 L 929.00 1258.00 L 959.00 1314.00 L 958.00 1313.00 L 926.00 1255.00 L 927.00 1257.00 L 961.00 1319.00 L 960.00 1318.00 L 924.00 1254.00 L 924.00 1256.00 L 960.00 1324.00 L 958.00 1321.00 L 918.00 1247.00 L 922.00 1257.00 L 970.00 1351.00 L 961.00 1336.00 L 895.00 1212.00 L 906.00 1238.00 L 994.00 1414.00 L 994.00 1416.00 L 906.00 1244.00 L 909.00 1255.00 L 1003.00 1449.00 L 1003.00 1451.00 L 909.00 1261.00 L 910.00 1267.00 L 1006.00 1469.00 L 1006.00 1471.00 L 910.00 1273.00 L 910.00 1275.00 L 1006.00 1477.00 L 1046.00 1602.00 L 1030.00 1650.00 L 1008.00 1686.00 L 980.00 1710.00 L 959.00 1723.00 L 945.00 1725.00 L 911.00 1703.00 L 857.00 1657.00 L 783.00 1601.00 L 689.00 1535.00 L 579.00 1467.00 L 453.00 1397.00 L 397.00 1334.00 L 411.00 1278.00 L 438.00 1211.00 L 478.00 1133.00 L 501.00 1081.00 L 507.00 1055.00 L 509.00 1011.00 L 507.00 949.00 L 506.00 916.00 L 506.00 912.00 L 516.00 896.00 Z" fill="black" stroke="black" stroke-width="1"/>
</svg>