<?xml version="1.0" encoding="UTF-8"?>
<svg xmlns="http://www.w3.org/2000/svg" viewBox="321.00 233.00 843.00 1386.00">
  <path d="M 391.00 935.00 L 393.00 929.00 L 390.00 917.00 L 382.00 899.00 L 381.00 884.00 L 387.00 872.00 L 387.00 861.00 L 381.00 851.00 L 380.00 841.00 L 384.00 831.00 L 386.00 820.00 L 386.00 808.00 L 378.00 798.00 L 362.00 790.00 L 360.00 788.00 L 372.00 792.00 L 371.00 791.00 L 357.00 785.00 L 346.00 778.00 L 338.00 770.00 L 333.00 760.00 L 331.00 748.00 L 335.00 736.00 L 345.00 724.00 L 365.00 690.00 L 395.00 634.00 L 411.00 587.00 L 413.00 549.00 L 419.00 519.00 L 429.00 497.00 L 437.00 470.00 L 443.00 438.00 L 456.00 401.00 L 476.00 359.00 L 509.00 324.00 L 555.00 296.00 L 595.00 275.00 L 629.00 261.00 L 660.00 252.00 L 688.00 248.00 L 743.00 245.00 L 825.00 243.00 L 883.00 244.00 L 917.00 248.00 L 945.00 254.00 L 967.00 262.00 L 992.00 274.00 L 1020.00 290.00 L 1046.00 311.00 L 1070.00 337.00 L 1088.00 358.00 L 1100.00 374.00 L 1114.00 397.00 L 1130.00 427.00 L 1142.00 465.00 L 1150.00 511.00 L 1154.00 551.00 L 1154.00 585.00 L 1152.00 609.00 L 1148.00 623.00 L 1147.00 646.00 L 1149.00 678.00 L 1147.00 706.00 L 1141.00 730.00 L 1138.00 756.00 L 1138.00 784.00 L 1134.00 809.00 L 1126.00 831.00 L 1122.00 850.00 L 1122.00 866.00 L 1129.00 888.00 L 1143.00 916.00 L 1140.00 931.00 L 1120.00 933.00 L 1120.00 935.00 L 1140.00 937.00 L 1139.00 940.00 L 1117.00 944.00 L 1118.00 947.00 L 1142.00 949.00 L 1142.00 951.00 L 1118.00 953.00 L 1118.00 956.00 L 1142.00 960.00 L 1148.00 962.00 L 1136.00 962.00 L 1135.00 964.00 L 1145.00 968.00 L 1141.00 970.00 L 1123.00 970.00 L 1123.00 972.00 L 1141.00 976.00 L 1142.00 978.00 L 1126.00 978.00 L 1120.00 1011.00 L 1124.00 1077.00 L 1124.00 1117.00 L 1120.00 1131.00 L 1113.00 1142.00 L 1103.00 1150.00 L 1105.00 1181.00 L 1119.00 1235.00 L 1127.00 1287.00 L 1129.00 1337.00 L 1129.00 1364.00 L 1127.00 1368.00 L 1126.00 1383.00 L 1126.00 1409.00 L 1125.00 1423.00 L 1123.00 1425.00 L 1098.00 1424.00 L 1050.00 1420.00 L 1011.00 1419.00 L 981.00 1421.00 L 965.00 1421.00 L 963.00 1419.00 L 961.00 1419.00 L 959.00 1421.00 L 937.00 1423.00 L 895.00 1425.00 L 853.00 1431.00 L 811.00 1441.00 L 785.00 1446.00 L 775.00 1446.00 L 731.00 1459.00 L 653.00 1485.00 L 605.00 1503.00 L 587.00 1513.00 L 569.00 1521.00 L 551.00 1527.00 L 523.00 1542.00 L 485.00 1566.00 L 451.00 1585.00 L 421.00 1599.00 L 397.00 1607.00 L 379.00 1609.00 L 365.00 1608.00 L 355.00 1604.00 L 347.00 1599.00 L 341.00 1593.00 L 336.00 1584.00 L 332.00 1572.00 L 331.00 1556.00 L 333.00 1536.00 L 337.00 1518.00 L 343.00 1502.00 L 345.00 1495.00 L 343.00 1497.00 L 347.00 1490.00 L 357.00 1474.00 L 367.00 1449.00 L 377.00 1415.00 L 385.00 1392.00 L 391.00 1380.00 L 404.00 1361.00 L 424.00 1335.00 L 425.00 1333.00 L 407.00 1355.00 L 409.00 1352.00 L 431.00 1324.00 L 432.00 1322.00 L 412.00 1346.00 L 427.00 1323.00 L 477.00 1253.00 L 491.00 1231.00 L 469.00 1257.00 L 468.00 1258.00 L 488.00 1234.00 L 489.00 1232.00 L 471.00 1252.00 L 469.00 1253.00 L 483.00 1235.00 L 485.00 1231.00 L 475.00 1241.00 L 477.00 1236.00 L 491.00 1216.00 L 498.00 1203.00 L 498.00 1197.00 L 495.00 1191.00 L 489.00 1185.00 L 484.00 1177.00 L 480.00 1167.00 L 475.00 1160.00 L 469.00 1156.00 L 462.00 1145.00 L 454.00 1127.00 L 440.00 1109.00 L 420.00 1091.00 L 410.00 1079.00 L 410.00 1073.00 L 415.00 1065.00 L 425.00 1055.00 L 419.00 1042.00 L 397.00 1026.00 L 384.00 1011.00 L 380.00 997.00 L 378.00 984.00 L 378.00 972.00 L 380.00 962.00 L 384.00 954.00 L 387.00 947.00 L 389.00 941.00 L 391.00 935.00 Z" fill="black" stroke="black" stroke-width="1"/>
</svg>