<?xml version="1.0" encoding="UTF-8"?>
<svg xmlns="http://www.w3.org/2000/svg" viewBox="231.00 259.00 911.00 1616.00">
  <path d="M 557.00 985.00 L 555.00 967.00 L 546.00 945.00 L 530.00 919.00 L 506.00 896.00 L 474.00 876.00 L 471.00 872.00 L 497.00 884.00 L 476.00 871.00 L 408.00 833.00 L 408.00 831.00 L 476.00 865.00 L 472.00 860.00 L 396.00 816.00 L 396.00 814.00 L 472.00 854.00 L 472.00 852.00 L 396.00 808.00 L 394.00 806.00 L 466.00 846.00 L 465.00 844.00 L 391.00 800.00 L 354.00 775.00 L 354.00 769.00 L 344.00 759.00 L 324.00 745.00 L 323.00 743.00 L 341.00 753.00 L 334.00 746.00 L 302.00 722.00 L 302.00 719.00 L 334.00 737.00 L 333.00 735.00 L 299.00 713.00 L 297.00 711.00 L 327.00 729.00 L 327.00 726.00 L 297.00 702.00 L 283.00 680.00 L 285.00 660.00 L 279.00 642.00 L 265.00 626.00 L 266.00 624.00 L 282.00 636.00 L 280.00 634.00 L 260.00 618.00 L 257.00 614.00 L 271.00 622.00 L 270.00 618.00 L 254.00 602.00 L 259.00 603.00 L 285.00 621.00 L 284.00 618.00 L 256.00 594.00 L 242.00 579.00 L 242.00 573.00 L 257.00 582.00 L 287.00 606.00 L 286.00 603.00 L 254.00 573.00 L 241.00 542.00 L 247.00 510.00 L 261.00 483.00 L 283.00 461.00 L 305.00 430.00 L 327.00 390.00 L 348.00 360.00 L 368.00 340.00 L 393.00 323.00 L 423.00 309.00 L 452.00 298.00 L 480.00 290.00 L 518.00 289.00 L 566.00 295.00 L 618.00 289.00 L 674.00 271.00 L 724.00 269.00 L 768.00 283.00 L 803.00 286.00 L 829.00 278.00 L 841.00 287.00 L 839.00 313.00 L 842.00 315.00 L 850.00 293.00 L 853.00 294.00 L 851.00 318.00 L 852.00 320.00 L 856.00 300.00 L 858.00 300.00 L 858.00 320.00 L 866.00 331.00 L 882.00 333.00 L 889.00 347.00 L 887.00 373.00 L 890.00 375.00 L 898.00 353.00 L 900.00 352.00 L 896.00 372.00 L 896.00 385.00 L 900.00 391.00 L 905.00 383.00 L 911.00 361.00 L 913.00 362.00 L 911.00 386.00 L 913.00 388.00 L 919.00 368.00 L 920.00 369.00 L 916.00 391.00 L 918.00 392.00 L 926.00 372.00 L 929.00 373.00 L 927.00 395.00 L 941.00 417.00 L 971.00 439.00 L 1002.00 472.00 L 1034.00 516.00 L 1061.00 561.00 L 1083.00 607.00 L 1090.00 635.00 L 1082.00 645.00 L 1081.00 648.00 L 1087.00 644.00 L 1087.00 646.00 L 1081.00 654.00 L 1075.00 679.00 L 1069.00 721.00 L 1083.00 768.00 L 1117.00 820.00 L 1132.00 854.00 L 1128.00 870.00 L 1119.00 884.00 L 1105.00 896.00 L 1103.00 910.00 L 1113.00 926.00 L 1114.00 946.00 L 1106.00 970.00 L 1105.00 990.00 L 1111.00 1006.00 L 1109.00 1018.00 L 1099.00 1026.00 L 1087.00 1048.00 L 1073.00 1084.00 L 1051.00 1108.00 L 1021.00 1120.00 L 1008.00 1127.00 L 1012.00 1129.00 L 989.00 1125.00 L 939.00 1115.00 L 907.00 1117.00 L 893.00 1131.00 L 880.00 1157.00 L 868.00 1195.00 L 913.00 1306.00 L 1015.00 1490.00 L 1067.00 1584.00 L 1069.00 1588.00 L 1061.00 1575.00 L 1043.00 1545.00 L 1046.00 1552.00 L 1070.00 1596.00 L 1068.00 1593.00 L 1040.00 1543.00 L 1041.00 1545.00 L 1071.00 1599.00 L 1059.00 1579.00 L 1005.00 1485.00 L 1005.00 1487.00 L 1059.00 1585.00 L 1056.00 1580.00 L 996.00 1472.00 L 997.00 1475.00 L 1059.00 1589.00 L 1049.00 1572.00 L 967.00 1424.00 L 968.00 1429.00 L 1052.00 1587.00 L 1035.00 1556.00 L 917.00 1336.00 L 917.00 1339.00 L 1035.00 1565.00 L 1046.00 1588.00 L 950.00 1408.00 L 950.00 1412.00 L 1046.00 1600.00 L 1044.00 1597.00 L 944.00 1403.00 L 943.00 1405.00 L 1041.00 1603.00 L 1031.00 1585.00 L 913.00 1351.00 L 913.00 1354.00 L 1031.00 1594.00 L 1038.00 1609.00 L 934.00 1399.00 L 934.00 1402.00 L 1038.00 1618.00 L 1036.00 1615.00 L 928.00 1393.00 L 928.00 1396.00 L 1036.00 1624.00 L 1033.00 1619.00 L 919.00 1381.00 L 918.00 1384.00 L 1030.00 1628.00 L 1027.00 1624.00 L 909.00 1372.00 L 908.00 1376.00 L 1024.00 1636.00 L 1073.00 1781.00 L 1055.00 1811.00 L 1035.00 1835.00 L 1013.00 1853.00 L 999.00 1863.00 L 993.00 1865.00 L 968.00 1853.00 L 924.00 1827.00 L 870.00 1787.00 L 806.00 1733.00 L 744.00 1686.00 L 684.00 1646.00 L 619.00 1608.00 L 549.00 1572.00 L 483.00 1542.00 L 421.00 1518.00 L 392.00 1473.00 L 396.00 1407.00 L 403.00 1353.00 L 413.00 1311.00 L 435.00 1247.00 L 469.00 1161.00 L 495.00 1104.00 L 513.00 1076.00 L 529.00 1057.00 L 543.00 1047.00 L 552.00 1032.00 L 556.00 1012.00 L 558.00 1000.00 L 558.00 996.00 L 557.00 985.00 Z" fill="black" stroke="black" stroke-width="1"/>
</svg>