<?xml version="1.0" encoding="UTF-8"?>
<svg xmlns="http://www.w3.org/2000/svg" viewBox="224.00 164.00 1083.00 1684.00">
  <path d="M 690.00 948.00 L 690.00 936.00 L 685.00 928.00 L 675.00 924.00 L 674.00 922.00 L 682.00 922.00 L 600.00 894.00 L 428.00 838.00 L 340.00 809.00 L 336.00 807.00 L 338.00 807.00 L 346.00 809.00 L 342.00 807.00 L 326.00 801.00 L 330.00 801.00 L 354.00 807.00 L 351.00 805.00 L 321.00 795.00 L 394.00 819.00 L 570.00 877.00 L 567.00 875.00 L 385.00 813.00 L 290.00 779.00 L 282.00 773.00 L 319.00 783.00 L 401.00 809.00 L 399.00 806.00 L 313.00 774.00 L 366.00 793.00 L 558.00 863.00 L 556.00 861.00 L 360.00 787.00 L 337.00 778.00 L 487.00 834.00 L 486.00 832.00 L 334.00 772.00 L 337.00 772.00 L 495.00 832.00 L 495.00 831.00 L 337.00 769.00 L 356.00 776.00 L 552.00 852.00 L 550.00 849.00 L 350.00 767.00 L 349.00 766.00 L 547.00 846.00 L 546.00 844.00 L 346.00 760.00 L 315.00 746.00 L 453.00 802.00 L 453.00 800.00 L 315.00 740.00 L 338.00 749.00 L 522.00 827.00 L 521.00 824.00 L 335.00 740.00 L 340.00 742.00 L 536.00 830.00 L 535.00 827.00 L 337.00 733.00 L 305.00 717.00 L 439.00 779.00 L 438.00 776.00 L 302.00 708.00 L 234.00 655.00 L 234.00 617.00 L 242.00 579.00 L 258.00 541.00 L 270.00 504.00 L 278.00 468.00 L 288.00 438.00 L 300.00 414.00 L 313.00 395.00 L 327.00 381.00 L 349.00 369.00 L 379.00 359.00 L 408.00 335.00 L 436.00 297.00 L 459.00 271.00 L 477.00 257.00 L 502.00 243.00 L 534.00 229.00 L 585.00 220.00 L 655.00 216.00 L 710.00 204.00 L 750.00 184.00 L 779.00 174.00 L 797.00 174.00 L 815.00 177.00 L 833.00 183.00 L 843.00 197.00 L 845.00 219.00 L 848.00 222.00 L 852.00 206.00 L 854.00 208.00 L 854.00 228.00 L 856.00 241.00 L 860.00 247.00 L 888.00 255.00 L 940.00 265.00 L 989.00 280.00 L 1035.00 300.00 L 1071.00 318.00 L 1097.00 334.00 L 1128.00 359.00 L 1164.00 393.00 L 1190.00 422.00 L 1206.00 446.00 L 1219.00 462.00 L 1229.00 470.00 L 1237.00 483.00 L 1243.00 501.00 L 1241.00 517.00 L 1231.00 531.00 L 1232.00 533.00 L 1244.00 523.00 L 1244.00 526.00 L 1232.00 542.00 L 1232.00 544.00 L 1244.00 532.00 L 1245.00 534.00 L 1235.00 550.00 L 1231.00 566.00 L 1233.00 582.00 L 1232.00 602.00 L 1228.00 626.00 L 1229.00 647.00 L 1235.00 665.00 L 1253.00 692.00 L 1283.00 728.00 L 1297.00 754.00 L 1295.00 770.00 L 1286.00 784.00 L 1270.00 796.00 L 1261.00 805.00 L 1259.00 811.00 L 1262.00 822.00 L 1270.00 838.00 L 1274.00 849.00 L 1274.00 855.00 L 1270.00 863.00 L 1262.00 873.00 L 1261.00 886.00 L 1267.00 902.00 L 1269.00 913.00 L 1267.00 919.00 L 1257.00 929.00 L 1239.00 943.00 L 1226.00 964.00 L 1218.00 992.00 L 1206.00 1017.00 L 1190.00 1039.00 L 1175.00 1052.00 L 1161.00 1056.00 L 1146.00 1057.00 L 1130.00 1055.00 L 1125.00 1055.00 L 1131.00 1057.00 L 1114.00 1055.00 L 1074.00 1049.00 L 1051.00 1048.00 L 1045.00 1052.00 L 1035.00 1063.00 L 1021.00 1081.00 L 1009.00 1109.00 L 999.00 1147.00 L 994.00 1170.00 L 994.00 1178.00 L 1061.00 1272.00 L 1195.00 1452.00 L 1250.00 1527.00 L 1226.00 1497.00 L 1227.00 1500.00 L 1253.00 1536.00 L 1251.00 1534.00 L 1221.00 1494.00 L 1224.00 1499.00 L 1260.00 1549.00 L 1253.00 1541.00 L 1203.00 1475.00 L 1204.00 1479.00 L 1256.00 1553.00 L 1254.00 1552.00 L 1198.00 1476.00 L 1199.00 1479.00 L 1257.00 1561.00 L 1213.00 1500.00 L 1067.00 1296.00 L 1069.00 1303.00 L 1219.00 1521.00 L 1220.00 1524.00 L 1072.00 1312.00 L 1073.00 1319.00 L 1223.00 1545.00 L 1223.00 1547.00 L 1073.00 1325.00 L 1073.00 1328.00 L 1223.00 1556.00 L 1294.00 1688.00 L 1286.00 1724.00 L 1264.00 1760.00 L 1228.00 1796.00 L 1199.00 1822.00 L 1177.00 1838.00 L 1160.00 1837.00 L 1148.00 1819.00 L 1145.00 1819.00 L 1151.00 1837.00 L 1149.00 1837.00 L 1139.00 1819.00 L 1125.00 1809.00 L 1107.00 1807.00 L 1077.00 1788.00 L 1035.00 1752.00 L 967.00 1708.00 L 873.00 1656.00 L 781.00 1612.00 L 691.00 1576.00 L 608.00 1550.00 L 532.00 1534.00 L 515.00 1443.00 L 557.00 1277.00 L 586.00 1179.00 L 602.00 1149.00 L 615.00 1115.00 L 625.00 1077.00 L 640.00 1049.00 L 660.00 1031.00 L 675.00 1008.00 L 685.00 980.00 L 690.00 963.00 L 690.00 957.00 L 690.00 948.00 Z" fill="black" stroke="black" stroke-width="1"/>
</svg>