<?xml version="1.0" encoding="UTF-8"?>
<svg xmlns="http://www.w3.org/2000/svg" viewBox="308.00 188.00 936.00 1640.00">
  <path d="M 449.00 990.00 L 447.00 966.00 L 449.00 935.00 L 455.00 897.00 L 462.00 867.00 L 470.00 845.00 L 454.00 819.00 L 414.00 789.00 L 411.00 783.00 L 445.00 801.00 L 443.00 799.00 L 405.00 777.00 L 411.00 780.00 L 461.00 808.00 L 459.00 806.00 L 405.00 774.00 L 401.00 771.00 L 447.00 797.00 L 446.00 795.00 L 398.00 765.00 L 401.00 766.00 L 455.00 798.00 L 450.00 793.00 L 386.00 751.00 L 345.00 708.00 L 327.00 664.00 L 318.00 611.00 L 318.00 549.00 L 323.00 504.00 L 333.00 476.00 L 338.00 457.00 L 338.00 447.00 L 346.00 423.00 L 362.00 385.00 L 386.00 346.00 L 418.00 306.00 L 444.00 280.00 L 464.00 268.00 L 484.00 260.00 L 504.00 256.00 L 526.00 240.00 L 550.00 212.00 L 566.00 202.00 L 574.00 210.00 L 588.00 210.00 L 608.00 202.00 L 626.00 198.00 L 642.00 198.00 L 656.00 204.00 L 668.00 216.00 L 704.00 222.00 L 764.00 222.00 L 820.00 230.00 L 872.00 246.00 L 929.00 279.00 L 991.00 329.00 L 1022.00 362.00 L 1022.00 378.00 L 1025.00 381.00 L 1031.00 371.00 L 1034.00 375.00 L 1034.00 393.00 L 1037.00 396.00 L 1043.00 384.00 L 1046.00 386.00 L 1046.00 402.00 L 1048.00 406.00 L 1052.00 398.00 L 1053.00 400.00 L 1051.00 412.00 L 1053.00 415.00 L 1059.00 409.00 L 1060.00 411.00 L 1056.00 421.00 L 1057.00 423.00 L 1063.00 417.00 L 1065.00 419.00 L 1063.00 429.00 L 1065.00 432.00 L 1071.00 428.00 L 1074.00 434.00 L 1074.00 450.00 L 1076.00 455.00 L 1080.00 449.00 L 1081.00 451.00 L 1079.00 461.00 L 1082.00 480.00 L 1090.00 508.00 L 1091.00 533.00 L 1085.00 555.00 L 1083.00 572.00 L 1085.00 584.00 L 1111.00 622.00 L 1161.00 686.00 L 1172.00 730.00 L 1144.00 754.00 L 1143.00 757.00 L 1169.00 739.00 L 1167.00 742.00 L 1137.00 766.00 L 1136.00 768.00 L 1164.00 748.00 L 1164.00 750.00 L 1136.00 774.00 L 1123.00 797.00 L 1125.00 819.00 L 1123.00 833.00 L 1117.00 839.00 L 1116.00 848.00 L 1120.00 860.00 L 1117.00 877.00 L 1107.00 899.00 L 1106.00 922.00 L 1114.00 946.00 L 1118.00 966.00 L 1118.00 982.00 L 1114.00 995.00 L 1106.00 1005.00 L 1092.00 1016.00 L 1072.00 1028.00 L 1051.00 1037.00 L 1029.00 1043.00 L 1028.00 1051.00 L 1048.00 1061.00 L 1057.00 1071.00 L 1055.00 1081.00 L 1045.00 1098.00 L 1027.00 1122.00 L 1027.00 1140.00 L 1045.00 1152.00 L 1048.00 1156.00 L 1036.00 1152.00 L 1037.00 1155.00 L 1051.00 1165.00 L 1046.00 1164.00 L 1022.00 1152.00 L 1023.00 1155.00 L 1049.00 1173.00 L 1050.00 1175.00 L 1026.00 1161.00 L 1026.00 1164.00 L 1050.00 1184.00 L 1047.00 1185.00 L 1017.00 1167.00 L 1016.00 1169.00 L 1044.00 1191.00 L 1057.00 1203.00 L 1055.00 1205.00 L 1040.00 1195.00 L 1012.00 1173.00 L 1017.00 1180.00 L 1055.00 1216.00 L 1072.00 1233.00 L 1068.00 1231.00 L 1069.00 1233.00 L 1075.00 1239.00 L 1071.00 1237.00 L 1057.00 1227.00 L 1062.00 1234.00 L 1086.00 1258.00 L 1083.00 1257.00 L 1053.00 1231.00 L 1058.00 1236.00 L 1098.00 1272.00 L 1115.00 1288.00 L 1109.00 1284.00 L 1110.00 1286.00 L 1118.00 1294.00 L 1098.00 1278.00 L 1050.00 1238.00 L 1047.00 1238.00 L 1089.00 1278.00 L 1085.00 1276.00 L 1035.00 1232.00 L 1031.00 1232.00 L 1073.00 1276.00 L 1080.00 1294.00 L 1052.00 1286.00 L 1059.00 1315.00 L 1101.00 1381.00 L 1114.00 1404.00 L 1098.00 1384.00 L 1105.00 1394.00 L 1135.00 1434.00 L 1139.00 1440.00 L 1117.00 1412.00 L 1121.00 1419.00 L 1151.00 1461.00 L 1164.00 1480.00 L 1160.00 1476.00 L 1172.00 1499.00 L 1200.00 1549.00 L 1219.00 1593.00 L 1229.00 1631.00 L 1234.00 1670.00 L 1234.00 1710.00 L 1229.00 1743.00 L 1219.00 1769.00 L 1207.00 1789.00 L 1193.00 1803.00 L 1182.00 1812.00 L 1174.00 1816.00 L 1161.00 1818.00 L 1143.00 1818.00 L 1118.00 1812.00 L 1086.00 1800.00 L 1040.00 1773.00 L 980.00 1731.00 L 943.00 1702.00 L 929.00 1686.00 L 896.00 1659.00 L 844.00 1621.00 L 780.00 1580.00 L 704.00 1536.00 L 637.00 1502.00 L 579.00 1478.00 L 524.00 1460.00 L 472.00 1448.00 L 427.00 1440.00 L 389.00 1436.00 L 368.00 1432.00 L 364.00 1428.00 L 362.00 1396.00 L 362.00 1336.00 L 364.00 1292.00 L 368.00 1264.00 L 375.00 1229.00 L 385.00 1187.00 L 405.00 1128.00 L 435.00 1052.00 L 450.00 1011.00 L 450.00 1005.00 L 449.00 990.00 Z" fill="black" stroke="black" stroke-width="1"/>
</svg>