<?xml version="1.0" encoding="UTF-8"?>
<svg xmlns="http://www.w3.org/2000/svg" viewBox="361.00 209.00 882.00 1644.00">
  <path d="M 572.00 946.00 L 576.00 922.00 L 574.00 907.00 L 566.00 901.00 L 566.00 898.00 L 574.00 898.00 L 573.00 895.00 L 563.00 889.00 L 558.00 875.00 L 558.00 853.00 L 535.00 825.00 L 489.00 791.00 L 449.00 750.00 L 415.00 702.00 L 392.00 661.00 L 380.00 627.00 L 377.00 580.00 L 383.00 520.00 L 381.00 481.00 L 371.00 463.00 L 372.00 458.00 L 384.00 466.00 L 384.00 460.00 L 372.00 440.00 L 373.00 438.00 L 387.00 454.00 L 387.00 452.00 L 373.00 432.00 L 374.00 429.00 L 390.00 443.00 L 391.00 438.00 L 377.00 414.00 L 379.00 410.00 L 397.00 426.00 L 398.00 423.00 L 382.00 401.00 L 380.00 379.00 L 392.00 357.00 L 408.00 340.00 L 428.00 328.00 L 437.00 318.00 L 435.00 310.00 L 436.00 309.00 L 440.00 315.00 L 440.00 312.00 L 436.00 300.00 L 439.00 282.00 L 449.00 258.00 L 471.00 237.00 L 505.00 219.00 L 533.00 220.00 L 555.00 240.00 L 581.00 243.00 L 611.00 229.00 L 647.00 222.00 L 689.00 222.00 L 730.00 234.00 L 770.00 258.00 L 802.00 270.00 L 826.00 270.00 L 891.00 301.00 L 997.00 363.00 L 1070.00 418.00 L 1110.00 466.00 L 1125.00 505.00 L 1115.00 535.00 L 1115.00 545.00 L 1125.00 535.00 L 1127.00 542.00 L 1121.00 566.00 L 1123.00 572.00 L 1133.00 560.00 L 1133.00 562.00 L 1123.00 578.00 L 1123.00 581.00 L 1133.00 571.00 L 1132.00 574.00 L 1120.00 590.00 L 1120.00 592.00 L 1132.00 580.00 L 1131.00 589.00 L 1117.00 619.00 L 1116.00 629.00 L 1128.00 619.00 L 1127.00 622.00 L 1113.00 638.00 L 1114.00 639.00 L 1130.00 625.00 L 1130.00 628.00 L 1114.00 648.00 L 1114.00 650.00 L 1130.00 634.00 L 1130.00 639.00 L 1114.00 665.00 L 1122.00 713.00 L 1154.00 783.00 L 1157.00 828.00 L 1131.00 848.00 L 1111.00 908.00 L 1097.00 1008.00 L 1055.00 1082.00 L 985.00 1130.00 L 1008.00 1243.00 L 1124.00 1421.00 L 1173.00 1498.00 L 1155.00 1474.00 L 1162.00 1487.00 L 1194.00 1537.00 L 1189.00 1531.00 L 1147.00 1469.00 L 1150.00 1475.00 L 1198.00 1549.00 L 1196.00 1547.00 L 1144.00 1469.00 L 1145.00 1472.00 L 1199.00 1556.00 L 1196.00 1553.00 L 1136.00 1463.00 L 1137.00 1466.00 L 1199.00 1562.00 L 1157.00 1497.00 L 1011.00 1271.00 L 1011.00 1273.00 L 1157.00 1503.00 L 1231.00 1621.00 L 1233.00 1627.00 L 1196.00 1570.00 L 1120.00 1450.00 L 1121.00 1453.00 L 1199.00 1579.00 L 1195.00 1575.00 L 1109.00 1441.00 L 1109.00 1444.00 L 1195.00 1584.00 L 1192.00 1581.00 L 1100.00 1435.00 L 1100.00 1442.00 L 1192.00 1602.00 L 1162.00 1554.00 L 1010.00 1298.00 L 1009.00 1305.00 L 1159.00 1575.00 L 1158.00 1576.00 L 1006.00 1308.00 L 1005.00 1311.00 L 1155.00 1585.00 L 1171.00 1618.00 L 1053.00 1410.00 L 1051.00 1414.00 L 1165.00 1630.00 L 1163.00 1628.00 L 1045.00 1408.00 L 1043.00 1410.00 L 1157.00 1634.00 L 1142.00 1606.00 L 998.00 1326.00 L 997.00 1329.00 L 1139.00 1615.00 L 1148.00 1637.00 L 1024.00 1395.00 L 1020.00 1400.00 L 1136.00 1652.00 L 1126.00 1634.00 L 990.00 1346.00 L 988.00 1348.00 L 1120.00 1640.00 L 1120.00 1642.00 L 988.00 1354.00 L 986.00 1356.00 L 1114.00 1648.00 L 1175.00 1796.00 L 1169.00 1800.00 L 1104.00 1656.00 L 980.00 1364.00 L 978.00 1366.00 L 1098.00 1662.00 L 1135.00 1821.00 L 1089.00 1843.00 L 1045.00 1828.00 L 1003.00 1776.00 L 981.00 1756.00 L 979.00 1768.00 L 976.00 1765.00 L 972.00 1747.00 L 972.00 1749.00 L 976.00 1771.00 L 974.00 1770.00 L 966.00 1746.00 L 911.00 1685.00 L 809.00 1587.00 L 700.00 1498.00 L 584.00 1418.00 L 503.00 1368.00 L 457.00 1348.00 L 452.00 1269.00 L 488.00 1131.00 L 521.00 1038.00 L 551.00 990.00 L 567.00 964.00 L 569.00 960.00 L 572.00 946.00 Z" fill="black" stroke="black" stroke-width="1"/>
</svg>