<?xml version="1.0" encoding="UTF-8"?>
<svg xmlns="http://www.w3.org/2000/svg" viewBox="313.00 280.00 759.00 1499.00">
  <path d="M 515.00 959.00 L 533.00 937.00 L 544.00 909.00 L 548.00 875.00 L 510.00 827.00 L 430.00 765.00 L 396.00 738.00 L 408.00 746.00 L 404.00 742.00 L 384.00 726.00 L 389.00 729.00 L 419.00 751.00 L 415.00 747.00 L 377.00 717.00 L 381.00 719.00 L 427.00 753.00 L 424.00 749.00 L 372.00 707.00 L 397.00 726.00 L 499.00 806.00 L 498.00 804.00 L 394.00 720.00 L 340.00 676.00 L 336.00 672.00 L 368.00 697.00 L 436.00 751.00 L 435.00 748.00 L 365.00 688.00 L 369.00 689.00 L 447.00 751.00 L 446.00 748.00 L 366.00 680.00 L 382.00 693.00 L 494.00 787.00 L 494.00 785.00 L 382.00 687.00 L 378.00 683.00 L 482.00 773.00 L 481.00 771.00 L 375.00 677.00 L 378.00 679.00 L 490.00 777.00 L 490.00 776.00 L 378.00 676.00 L 323.00 609.00 L 325.00 575.00 L 333.00 539.00 L 347.00 501.00 L 362.00 468.00 L 378.00 440.00 L 401.00 413.00 L 431.00 387.00 L 459.00 370.00 L 485.00 362.00 L 511.00 341.00 L 537.00 307.00 L 556.00 290.00 L 568.00 290.00 L 579.00 295.00 L 589.00 305.00 L 613.00 308.00 L 651.00 304.00 L 673.00 303.00 L 679.00 305.00 L 684.00 315.00 L 688.00 333.00 L 690.00 334.00 L 690.00 318.00 L 691.00 319.00 L 693.00 337.00 L 695.00 337.00 L 697.00 319.00 L 700.00 319.00 L 704.00 337.00 L 706.00 339.00 L 706.00 325.00 L 708.00 325.00 L 712.00 339.00 L 735.00 352.00 L 777.00 364.00 L 821.00 383.00 L 867.00 409.00 L 912.00 444.00 L 956.00 488.00 L 976.00 515.00 L 972.00 525.00 L 973.00 526.00 L 979.00 518.00 L 980.00 520.00 L 976.00 532.00 L 977.00 533.00 L 983.00 523.00 L 984.00 525.00 L 980.00 539.00 L 982.00 542.00 L 990.00 534.00 L 991.00 537.00 L 985.00 551.00 L 986.00 552.00 L 994.00 540.00 L 995.00 543.00 L 989.00 561.00 L 991.00 563.00 L 1001.00 549.00 L 1002.00 551.00 L 994.00 569.00 L 995.00 571.00 L 1005.00 557.00 L 1005.00 558.00 L 995.00 574.00 L 993.00 578.00 L 999.00 570.00 L 1000.00 573.00 L 996.00 587.00 L 1000.00 586.00 L 1012.00 570.00 L 1012.00 572.00 L 1000.00 592.00 L 1001.00 595.00 L 1015.00 581.00 L 1015.00 584.00 L 1001.00 604.00 L 1001.00 606.00 L 1015.00 590.00 L 1015.00 593.00 L 1001.00 615.00 L 994.00 641.00 L 994.00 671.00 L 1011.00 713.00 L 1045.00 767.00 L 1062.00 797.00 L 1062.00 803.00 L 1058.00 811.00 L 1050.00 821.00 L 1039.00 830.00 L 1025.00 838.00 L 1020.00 851.00 L 1024.00 869.00 L 1023.00 884.00 L 1017.00 896.00 L 1015.00 908.00 L 1017.00 920.00 L 1013.00 929.00 L 1003.00 935.00 L 997.00 941.00 L 995.00 947.00 L 996.00 956.00 L 1000.00 968.00 L 1001.00 982.00 L 999.00 998.00 L 995.00 1009.00 L 989.00 1015.00 L 973.00 1020.00 L 947.00 1024.00 L 934.00 1029.00 L 934.00 1035.00 L 931.00 1040.00 L 925.00 1044.00 L 908.00 1050.00 L 880.00 1058.00 L 859.00 1075.00 L 845.00 1101.00 L 879.00 1196.00 L 961.00 1360.00 L 1013.00 1474.00 L 1035.00 1538.00 L 1046.00 1598.00 L 1046.00 1654.00 L 1044.00 1692.00 L 1040.00 1712.00 L 1028.00 1733.00 L 1008.00 1755.00 L 992.00 1767.00 L 980.00 1769.00 L 964.00 1766.00 L 944.00 1758.00 L 909.00 1733.00 L 859.00 1691.00 L 768.00 1631.00 L 636.00 1553.00 L 538.00 1499.00 L 474.00 1469.00 L 414.00 1444.00 L 358.00 1424.00 L 348.00 1360.00 L 384.00 1252.00 L 413.00 1175.00 L 435.00 1129.00 L 448.00 1095.00 L 452.00 1073.00 L 465.00 1042.00 L 487.00 1002.00 L 500.00 979.00 L 504.00 973.00 L 515.00 959.00 Z" fill="black" stroke="black" stroke-width="1"/>
</svg>