<?xml version="1.0" encoding="UTF-8"?>
<svg xmlns="http://www.w3.org/2000/svg" viewBox="416.00 129.00 868.00 1578.00">
  <path d="M 548.00 898.00 L 552.00 866.00 L 559.00 834.00 L 569.00 802.00 L 570.00 781.00 L 562.00 771.00 L 563.00 768.00 L 573.00 772.00 L 570.00 768.00 L 554.00 756.00 L 555.00 753.00 L 573.00 759.00 L 573.00 757.00 L 555.00 747.00 L 544.00 738.00 L 540.00 730.00 L 535.00 709.00 L 529.00 675.00 L 514.00 637.00 L 490.00 595.00 L 471.00 553.00 L 457.00 511.00 L 449.00 478.00 L 447.00 454.00 L 447.00 431.00 L 449.00 409.00 L 455.00 383.00 L 465.00 353.00 L 474.00 330.00 L 482.00 314.00 L 501.00 287.00 L 531.00 249.00 L 566.00 216.00 L 606.00 188.00 L 636.00 174.00 L 656.00 174.00 L 683.00 167.00 L 717.00 153.00 L 769.00 144.00 L 839.00 140.00 L 882.00 139.00 L 898.00 141.00 L 910.00 145.00 L 918.00 151.00 L 946.00 162.00 L 994.00 178.00 L 1031.00 195.00 L 1057.00 213.00 L 1070.00 226.00 L 1070.00 234.00 L 1071.00 235.00 L 1073.00 229.00 L 1074.00 231.00 L 1074.00 241.00 L 1076.00 242.00 L 1080.00 234.00 L 1081.00 235.00 L 1079.00 245.00 L 1079.00 248.00 L 1081.00 244.00 L 1083.00 246.00 L 1085.00 254.00 L 1088.00 252.00 L 1092.00 240.00 L 1095.00 238.00 L 1097.00 246.00 L 1099.00 247.00 L 1101.00 241.00 L 1101.00 246.00 L 1099.00 262.00 L 1101.00 263.00 L 1107.00 249.00 L 1111.00 246.00 L 1113.00 254.00 L 1112.00 264.00 L 1108.00 276.00 L 1111.00 275.00 L 1121.00 261.00 L 1123.00 263.00 L 1117.00 281.00 L 1118.00 297.00 L 1126.00 311.00 L 1138.00 343.00 L 1154.00 393.00 L 1163.00 429.00 L 1165.00 451.00 L 1164.00 468.00 L 1160.00 480.00 L 1160.00 492.00 L 1164.00 504.00 L 1185.00 532.00 L 1223.00 576.00 L 1245.00 604.00 L 1251.00 616.00 L 1240.00 634.00 L 1212.00 658.00 L 1212.00 660.00 L 1240.00 640.00 L 1240.00 641.00 L 1212.00 663.00 L 1211.00 665.00 L 1237.00 647.00 L 1237.00 649.00 L 1211.00 671.00 L 1208.00 675.00 L 1228.00 661.00 L 1228.00 664.00 L 1208.00 684.00 L 1201.00 703.00 L 1207.00 721.00 L 1206.00 734.00 L 1198.00 742.00 L 1196.00 751.00 L 1200.00 761.00 L 1195.00 778.00 L 1181.00 802.00 L 1178.00 825.00 L 1186.00 847.00 L 1188.00 863.00 L 1184.00 873.00 L 1175.00 885.00 L 1161.00 899.00 L 1144.00 911.00 L 1124.00 921.00 L 1123.00 932.00 L 1141.00 944.00 L 1151.00 953.00 L 1153.00 959.00 L 1153.00 965.00 L 1151.00 971.00 L 1137.00 985.00 L 1111.00 1007.00 L 1108.00 1025.00 L 1128.00 1039.00 L 1127.00 1041.00 L 1105.00 1031.00 L 1106.00 1035.00 L 1130.00 1053.00 L 1128.00 1056.00 L 1100.00 1044.00 L 1106.00 1053.00 L 1146.00 1083.00 L 1158.00 1096.00 L 1142.00 1092.00 L 1138.00 1093.00 L 1146.00 1099.00 L 1137.00 1097.00 L 1111.00 1087.00 L 1090.00 1082.00 L 1074.00 1082.00 L 1066.00 1084.00 L 1066.00 1088.00 L 1074.00 1103.00 L 1090.00 1129.00 L 1101.00 1155.00 L 1107.00 1181.00 L 1115.00 1202.00 L 1125.00 1218.00 L 1128.00 1224.00 L 1124.00 1220.00 L 1132.00 1231.00 L 1152.00 1257.00 L 1157.00 1264.00 L 1147.00 1252.00 L 1148.00 1254.00 L 1160.00 1270.00 L 1182.00 1309.00 L 1214.00 1371.00 L 1238.00 1424.00 L 1254.00 1468.00 L 1265.00 1507.00 L 1271.00 1541.00 L 1274.00 1573.00 L 1274.00 1603.00 L 1270.00 1629.00 L 1262.00 1651.00 L 1253.00 1667.00 L 1243.00 1677.00 L 1225.00 1686.00 L 1199.00 1694.00 L 1175.00 1697.00 L 1153.00 1695.00 L 1119.00 1683.00 L 1073.00 1661.00 L 1018.00 1628.00 L 954.00 1584.00 L 900.00 1552.00 L 856.00 1532.00 L 809.00 1514.00 L 759.00 1498.00 L 697.00 1482.00 L 623.00 1466.00 L 551.00 1456.00 L 481.00 1452.00 L 441.00 1442.00 L 431.00 1426.00 L 426.00 1409.00 L 426.00 1391.00 L 447.00 1330.00 L 489.00 1226.00 L 521.00 1141.00 L 543.00 1075.00 L 552.00 1012.00 L 548.00 952.00 L 546.00 920.00 L 546.00 916.00 L 548.00 898.00 Z" fill="black" stroke="black" stroke-width="1"/>
</svg>