<?xml version="1.0" encoding="UTF-8"?>
<svg xmlns="http://www.w3.org/2000/svg" viewBox="276.00 185.00 899.00 1599.00">
  <path d="M 393.00 987.00 L 407.00 937.00 L 421.00 899.00 L 435.00 873.00 L 421.00 831.00 L 379.00 773.00 L 350.00 723.00 L 334.00 681.00 L 322.00 625.00 L 314.00 555.00 L 318.00 483.00 L 334.00 409.00 L 364.00 345.00 L 408.00 291.00 L 462.00 249.00 L 526.00 219.00 L 597.00 201.00 L 675.00 195.00 L 739.00 199.00 L 789.00 213.00 L 829.00 230.00 L 859.00 250.00 L 898.00 284.00 L 946.00 332.00 L 977.00 371.00 L 991.00 401.00 L 996.00 423.00 L 992.00 437.00 L 993.00 440.00 L 999.00 432.00 L 1001.00 458.00 L 999.00 518.00 L 1023.00 579.00 L 1073.00 641.00 L 1086.00 685.00 L 1062.00 711.00 L 1063.00 713.00 L 1089.00 691.00 L 1089.00 694.00 L 1063.00 722.00 L 1062.00 725.00 L 1086.00 703.00 L 1086.00 705.00 L 1062.00 731.00 L 1050.00 755.00 L 1050.00 777.00 L 1053.00 793.00 L 1059.00 803.00 L 1059.00 816.00 L 1053.00 832.00 L 1053.00 852.00 L 1059.00 876.00 L 1060.00 898.00 L 1056.00 918.00 L 1048.00 935.00 L 1036.00 949.00 L 1021.00 959.00 L 1003.00 965.00 L 1000.00 967.00 L 1012.00 965.00 L 1003.00 968.00 L 973.00 976.00 L 963.00 984.00 L 973.00 992.00 L 967.00 1010.00 L 945.00 1038.00 L 945.00 1058.00 L 967.00 1070.00 L 966.00 1073.00 L 942.00 1067.00 L 942.00 1069.00 L 966.00 1079.00 L 977.00 1089.00 L 975.00 1099.00 L 981.00 1114.00 L 995.00 1134.00 L 988.00 1137.00 L 960.00 1123.00 L 969.00 1128.00 L 1015.00 1152.00 L 1012.00 1151.00 L 960.00 1125.00 L 963.00 1128.00 L 1021.00 1160.00 L 1022.00 1163.00 L 966.00 1137.00 L 961.00 1139.00 L 1007.00 1169.00 L 1016.00 1176.00 L 988.00 1160.00 L 986.00 1160.00 L 1010.00 1176.00 L 1006.00 1175.00 L 974.00 1157.00 L 970.00 1156.00 L 994.00 1172.00 L 992.00 1175.00 L 964.00 1165.00 L 971.00 1183.00 L 1013.00 1229.00 L 1024.00 1245.00 L 1004.00 1231.00 L 1007.00 1236.00 L 1033.00 1260.00 L 1031.00 1260.00 L 1001.00 1236.00 L 1015.00 1254.00 L 1073.00 1314.00 L 1071.00 1315.00 L 1009.00 1257.00 L 1010.00 1259.00 L 1074.00 1321.00 L 1104.00 1357.00 L 1100.00 1367.00 L 1104.00 1380.00 L 1116.00 1396.00 L 1117.00 1400.00 L 1107.00 1392.00 L 1114.00 1402.00 L 1138.00 1430.00 L 1135.00 1428.00 L 1105.00 1396.00 L 1105.00 1398.00 L 1135.00 1434.00 L 1148.00 1457.00 L 1144.00 1467.00 L 1134.00 1475.00 L 1118.00 1481.00 L 1118.00 1498.00 L 1134.00 1526.00 L 1132.00 1528.00 L 1112.00 1504.00 L 1114.00 1509.00 L 1138.00 1543.00 L 1154.00 1576.00 L 1162.00 1608.00 L 1165.00 1641.00 L 1163.00 1675.00 L 1155.00 1708.00 L 1141.00 1740.00 L 1124.00 1762.00 L 1104.00 1774.00 L 1073.00 1771.00 L 1031.00 1753.00 L 962.00 1706.00 L 866.00 1630.00 L 817.00 1594.00 L 815.00 1598.00 L 803.00 1594.00 L 781.00 1582.00 L 765.00 1570.00 L 755.00 1558.00 L 749.00 1555.00 L 747.00 1561.00 L 745.00 1558.00 L 743.00 1546.00 L 741.00 1544.00 L 739.00 1552.00 L 736.00 1552.00 L 732.00 1544.00 L 727.00 1542.00 L 721.00 1546.00 L 659.00 1525.00 L 541.00 1479.00 L 432.00 1447.00 L 332.00 1429.00 L 286.00 1387.00 L 294.00 1321.00 L 317.00 1240.00 L 355.00 1144.00 L 376.00 1077.00 L 380.00 1039.00 L 383.00 1018.00 L 385.00 1014.00 L 393.00 987.00 Z" fill="black" stroke="black" stroke-width="1"/>
</svg>