<?xml version="1.0" encoding="UTF-8"?>
<svg xmlns="http://www.w3.org/2000/svg" viewBox="349.00 169.00 966.00 1710.00">
  <path d="M 631.00 1012.00 L 625.00 976.00 L 610.00 947.00 L 586.00 925.00 L 578.00 915.00 L 586.00 917.00 L 581.00 914.00 L 563.00 906.00 L 548.00 892.00 L 536.00 872.00 L 523.00 858.00 L 509.00 850.00 L 496.00 840.00 L 484.00 828.00 L 473.00 813.00 L 463.00 795.00 L 446.00 773.00 L 422.00 747.00 L 401.00 717.00 L 383.00 683.00 L 370.00 653.00 L 362.00 627.00 L 359.00 601.00 L 361.00 575.00 L 361.00 550.00 L 359.00 526.00 L 370.00 479.00 L 394.00 409.00 L 416.00 363.00 L 436.00 341.00 L 449.00 324.00 L 455.00 312.00 L 466.00 298.00 L 482.00 282.00 L 497.00 270.00 L 511.00 262.00 L 527.00 255.00 L 545.00 249.00 L 563.00 239.00 L 581.00 225.00 L 598.00 214.00 L 614.00 206.00 L 630.00 200.00 L 646.00 196.00 L 663.00 194.00 L 681.00 194.00 L 699.00 191.00 L 717.00 185.00 L 737.00 181.00 L 759.00 179.00 L 785.00 184.00 L 815.00 196.00 L 843.00 201.00 L 869.00 199.00 L 914.00 208.00 L 978.00 228.00 L 1014.00 243.00 L 1022.00 253.00 L 1034.00 262.00 L 1050.00 270.00 L 1057.00 282.00 L 1055.00 298.00 L 1056.00 300.00 L 1060.00 288.00 L 1063.00 290.00 L 1065.00 306.00 L 1081.00 327.00 L 1111.00 353.00 L 1134.00 378.00 L 1150.00 402.00 L 1165.00 443.00 L 1179.00 501.00 L 1184.00 549.00 L 1180.00 587.00 L 1181.00 613.00 L 1187.00 627.00 L 1197.00 643.00 L 1211.00 661.00 L 1228.00 678.00 L 1248.00 694.00 L 1260.00 708.00 L 1264.00 720.00 L 1265.00 729.00 L 1263.00 735.00 L 1256.00 744.00 L 1244.00 756.00 L 1242.00 759.00 L 1250.00 753.00 L 1253.00 756.00 L 1251.00 768.00 L 1254.00 775.00 L 1262.00 777.00 L 1270.00 782.00 L 1278.00 790.00 L 1283.00 797.00 L 1285.00 803.00 L 1285.00 811.00 L 1283.00 821.00 L 1280.00 828.00 L 1276.00 832.00 L 1274.00 837.00 L 1274.00 843.00 L 1276.00 848.00 L 1280.00 852.00 L 1283.00 859.00 L 1285.00 869.00 L 1279.00 881.00 L 1265.00 895.00 L 1254.00 917.00 L 1246.00 947.00 L 1235.00 973.00 L 1221.00 995.00 L 1209.00 1010.00 L 1199.00 1018.00 L 1184.00 1026.00 L 1164.00 1034.00 L 1130.00 1038.00 L 1082.00 1038.00 L 1051.00 1040.00 L 1037.00 1044.00 L 1026.00 1052.00 L 1018.00 1064.00 L 1011.00 1085.00 L 1005.00 1115.00 L 1002.00 1139.00 L 1002.00 1157.00 L 1060.00 1235.00 L 1176.00 1373.00 L 1176.00 1375.00 L 1060.00 1241.00 L 1064.00 1246.00 L 1188.00 1390.00 L 1227.00 1436.00 L 1181.00 1384.00 L 1184.00 1389.00 L 1236.00 1451.00 L 1218.00 1431.00 L 1130.00 1329.00 L 1131.00 1332.00 L 1221.00 1440.00 L 1218.00 1437.00 L 1122.00 1323.00 L 1124.00 1327.00 L 1224.00 1449.00 L 1221.00 1446.00 L 1115.00 1318.00 L 1117.00 1321.00 L 1227.00 1455.00 L 1213.00 1438.00 L 1075.00 1270.00 L 1074.00 1269.00 L 1210.00 1435.00 L 1218.00 1445.00 L 1098.00 1299.00 L 1100.00 1302.00 L 1224.00 1454.00 L 1222.00 1452.00 L 1094.00 1296.00 L 1095.00 1299.00 L 1225.00 1461.00 L 1222.00 1458.00 L 1086.00 1290.00 L 1088.00 1295.00 L 1228.00 1473.00 L 1226.00 1471.00 L 1082.00 1289.00 L 1083.00 1294.00 L 1229.00 1486.00 L 1303.00 1622.00 L 1305.00 1702.00 L 1300.00 1763.00 L 1288.00 1805.00 L 1274.00 1839.00 L 1258.00 1865.00 L 1226.00 1869.00 L 1178.00 1851.00 L 1096.00 1806.00 L 980.00 1734.00 L 890.00 1681.00 L 826.00 1647.00 L 745.00 1609.00 L 647.00 1567.00 L 574.00 1538.00 L 526.00 1522.00 L 501.00 1511.00 L 499.00 1505.00 L 506.00 1472.00 L 522.00 1412.00 L 529.00 1383.00 L 527.00 1385.00 L 528.00 1383.00 L 532.00 1377.00 L 535.00 1368.00 L 537.00 1356.00 L 549.00 1331.00 L 571.00 1293.00 L 582.00 1269.00 L 582.00 1259.00 L 588.00 1241.00 L 600.00 1215.00 L 605.00 1197.00 L 603.00 1187.00 L 598.00 1176.00 L 590.00 1164.00 L 586.00 1151.00 L 586.00 1137.00 L 591.00 1119.00 L 601.00 1097.00 L 613.00 1079.00 L 627.00 1065.00 L 634.00 1054.00 L 634.00 1046.00 L 634.00 1039.00 L 634.00 1033.00 L 631.00 1012.00 Z" fill="black" stroke="black" stroke-width="1"/>
</svg>