<?xml version="1.0" encoding="UTF-8"?>
<svg xmlns="http://www.w3.org/2000/svg" viewBox="312.00 305.00 800.00 1518.00">
  <path d="M 515.00 1002.00 L 525.00 962.00 L 495.00 924.00 L 425.00 888.00 L 425.00 886.00 L 495.00 918.00 L 493.00 916.00 L 419.00 880.00 L 409.00 874.00 L 463.00 898.00 L 459.00 894.00 L 397.00 862.00 L 408.00 866.00 L 492.00 906.00 L 491.00 904.00 L 405.00 860.00 L 397.00 855.00 L 467.00 889.00 L 466.00 887.00 L 394.00 849.00 L 356.00 825.00 L 352.00 815.00 L 396.00 836.00 L 488.00 888.00 L 488.00 886.00 L 396.00 830.00 L 349.00 798.00 L 347.00 790.00 L 393.00 815.00 L 487.00 873.00 L 487.00 871.00 L 393.00 809.00 L 340.00 766.00 L 328.00 742.00 L 322.00 710.00 L 322.00 670.00 L 329.00 638.00 L 343.00 614.00 L 350.00 598.00 L 350.00 590.00 L 351.00 587.00 L 353.00 589.00 L 351.00 570.00 L 345.00 530.00 L 348.00 507.00 L 360.00 501.00 L 369.00 483.00 L 375.00 453.00 L 386.00 433.00 L 402.00 423.00 L 414.00 422.00 L 422.00 430.00 L 443.00 420.00 L 477.00 392.00 L 502.00 374.00 L 518.00 366.00 L 561.00 351.00 L 631.00 329.00 L 683.00 317.00 L 717.00 315.00 L 749.00 316.00 L 779.00 320.00 L 824.00 330.00 L 884.00 346.00 L 927.00 363.00 L 953.00 381.00 L 976.00 400.00 L 996.00 420.00 L 1007.00 435.00 L 1009.00 445.00 L 1012.00 448.00 L 1016.00 444.00 L 1017.00 446.00 L 1015.00 454.00 L 1016.00 455.00 L 1020.00 449.00 L 1021.00 450.00 L 1019.00 458.00 L 1020.00 459.00 L 1024.00 453.00 L 1033.00 478.00 L 1047.00 534.00 L 1054.00 573.00 L 1054.00 595.00 L 1057.00 604.00 L 1063.00 600.00 L 1063.00 603.00 L 1057.00 613.00 L 1051.00 637.00 L 1045.00 675.00 L 1045.00 703.00 L 1051.00 721.00 L 1066.00 747.00 L 1090.00 781.00 L 1102.00 803.00 L 1102.00 813.00 L 1087.00 830.00 L 1057.00 854.00 L 1045.00 873.00 L 1051.00 887.00 L 1050.00 900.00 L 1042.00 912.00 L 1039.00 924.00 L 1041.00 936.00 L 1036.00 948.00 L 1024.00 960.00 L 1022.00 975.00 L 1030.00 993.00 L 1031.00 1012.00 L 1025.00 1032.00 L 1011.00 1049.00 L 989.00 1063.00 L 965.00 1071.00 L 939.00 1073.00 L 927.00 1075.00 L 929.00 1077.00 L 913.00 1077.00 L 879.00 1075.00 L 852.00 1098.00 L 832.00 1146.00 L 866.00 1251.00 L 954.00 1413.00 L 953.00 1416.00 L 863.00 1260.00 L 872.00 1278.00 L 980.00 1470.00 L 999.00 1505.00 L 929.00 1383.00 L 929.00 1385.00 L 999.00 1511.00 L 997.00 1508.00 L 923.00 1376.00 L 924.00 1379.00 L 1000.00 1517.00 L 983.00 1487.00 L 873.00 1289.00 L 874.00 1293.00 L 986.00 1499.00 L 996.00 1518.00 L 904.00 1350.00 L 904.00 1352.00 L 996.00 1524.00 L 990.00 1514.00 L 886.00 1322.00 L 886.00 1325.00 L 990.00 1523.00 L 986.00 1516.00 L 874.00 1304.00 L 875.00 1308.00 L 989.00 1528.00 L 991.00 1533.00 L 881.00 1323.00 L 881.00 1326.00 L 991.00 1542.00 L 989.00 1539.00 L 875.00 1317.00 L 875.00 1320.00 L 989.00 1548.00 L 1044.00 1675.00 L 1040.00 1701.00 L 1019.00 1734.00 L 981.00 1774.00 L 952.00 1799.00 L 932.00 1809.00 L 918.00 1813.00 L 910.00 1811.00 L 899.00 1799.00 L 885.00 1777.00 L 879.00 1771.00 L 881.00 1781.00 L 880.00 1780.00 L 876.00 1768.00 L 863.00 1750.00 L 841.00 1726.00 L 812.00 1696.00 L 776.00 1660.00 L 729.00 1618.00 L 671.00 1570.00 L 624.00 1533.00 L 588.00 1507.00 L 544.00 1479.00 L 492.00 1449.00 L 431.00 1420.00 L 361.00 1392.00 L 329.00 1366.00 L 335.00 1342.00 L 345.00 1315.00 L 359.00 1285.00 L 394.00 1227.00 L 450.00 1141.00 L 485.00 1081.00 L 499.00 1047.00 L 507.00 1028.00 L 509.00 1024.00 L 515.00 1002.00 Z" fill="black" stroke="black" stroke-width="1"/>
</svg>