<?xml version="1.0" encoding="UTF-8"?>
<svg xmlns="http://www.w3.org/2000/svg" viewBox="318.00 199.00 959.00 1580.00">
  <path d="M 570.00 955.00 L 570.00 925.00 L 559.00 896.00 L 537.00 868.00 L 529.00 855.00 L 535.00 857.00 L 499.00 832.00 L 421.00 780.00 L 368.00 725.00 L 340.00 667.00 L 328.00 604.00 L 332.00 536.00 L 350.00 475.00 L 382.00 421.00 L 399.00 372.00 L 401.00 328.00 L 420.00 286.00 L 456.00 246.00 L 483.00 228.00 L 501.00 232.00 L 514.00 240.00 L 522.00 252.00 L 562.00 245.00 L 634.00 219.00 L 713.00 209.00 L 799.00 215.00 L 870.00 228.00 L 926.00 248.00 L 980.00 276.00 L 1032.00 312.00 L 1075.00 348.00 L 1109.00 384.00 L 1123.00 414.00 L 1117.00 438.00 L 1119.00 444.00 L 1129.00 432.00 L 1129.00 435.00 L 1119.00 453.00 L 1119.00 456.00 L 1129.00 444.00 L 1132.00 450.00 L 1128.00 474.00 L 1132.00 479.00 L 1144.00 465.00 L 1145.00 467.00 L 1135.00 485.00 L 1137.00 487.00 L 1151.00 473.00 L 1152.00 476.00 L 1140.00 496.00 L 1141.00 498.00 L 1155.00 482.00 L 1156.00 485.00 L 1144.00 507.00 L 1144.00 510.00 L 1156.00 494.00 L 1157.00 498.00 L 1147.00 522.00 L 1146.00 530.00 L 1154.00 522.00 L 1156.00 527.00 L 1152.00 545.00 L 1154.00 550.00 L 1162.00 542.00 L 1161.00 548.00 L 1151.00 568.00 L 1154.00 570.00 L 1170.00 554.00 L 1168.00 561.00 L 1148.00 591.00 L 1149.00 594.00 L 1171.00 570.00 L 1170.00 573.00 L 1146.00 603.00 L 1135.00 628.00 L 1137.00 648.00 L 1159.00 688.00 L 1201.00 748.00 L 1214.00 791.00 L 1198.00 817.00 L 1193.00 837.00 L 1199.00 851.00 L 1196.00 865.00 L 1184.00 879.00 L 1179.00 895.00 L 1181.00 913.00 L 1176.00 929.00 L 1164.00 943.00 L 1158.00 968.00 L 1158.00 1004.00 L 1137.00 1033.00 L 1095.00 1055.00 L 1042.00 1068.00 L 978.00 1072.00 L 941.00 1084.00 L 931.00 1104.00 L 1008.00 1224.00 L 1172.00 1444.00 L 1250.00 1549.00 L 1242.00 1539.00 L 1244.00 1542.00 L 1256.00 1558.00 L 1254.00 1556.00 L 1238.00 1536.00 L 1241.00 1541.00 L 1263.00 1571.00 L 1258.00 1566.00 L 1226.00 1526.00 L 1229.00 1532.00 L 1267.00 1584.00 L 1264.00 1581.00 L 1220.00 1523.00 L 1220.00 1526.00 L 1264.00 1590.00 L 1262.00 1589.00 L 1214.00 1523.00 L 1215.00 1526.00 L 1265.00 1598.00 L 1261.00 1594.00 L 1203.00 1514.00 L 1204.00 1517.00 L 1264.00 1603.00 L 1258.00 1598.00 L 1186.00 1502.00 L 1186.00 1506.00 L 1258.00 1610.00 L 1201.00 1528.00 L 1015.00 1260.00 L 1014.00 1267.00 L 1198.00 1549.00 L 1198.00 1551.00 L 1014.00 1273.00 L 1013.00 1276.00 L 1195.00 1560.00 L 1236.00 1626.00 L 1136.00 1474.00 L 1135.00 1477.00 L 1233.00 1635.00 L 1231.00 1634.00 L 1129.00 1474.00 L 1127.00 1478.00 L 1225.00 1646.00 L 1186.00 1584.00 L 1010.00 1292.00 L 1009.00 1294.00 L 1183.00 1590.00 L 1214.00 1646.00 L 1102.00 1462.00 L 1100.00 1465.00 L 1208.00 1655.00 L 1203.00 1650.00 L 1085.00 1450.00 L 1083.00 1453.00 L 1197.00 1659.00 L 1170.00 1611.00 L 1002.00 1309.00 L 999.00 1312.00 L 1161.00 1620.00 L 1161.00 1622.00 L 999.00 1318.00 L 994.00 1322.00 L 1146.00 1634.00 L 1146.00 1637.00 L 994.00 1331.00 L 992.00 1333.00 L 1140.00 1643.00 L 1140.00 1646.00 L 992.00 1342.00 L 988.00 1345.00 L 1128.00 1655.00 L 1139.00 1681.00 L 1021.00 1423.00 L 1018.00 1424.00 L 1130.00 1684.00 L 1119.00 1661.00 L 985.00 1355.00 L 982.00 1357.00 L 1110.00 1667.00 L 1110.00 1670.00 L 982.00 1366.00 L 978.00 1368.00 L 1098.00 1676.00 L 1098.00 1679.00 L 978.00 1377.00 L 975.00 1378.00 L 1089.00 1682.00 L 1089.00 1685.00 L 975.00 1387.00 L 972.00 1386.00 L 1080.00 1682.00 L 1027.00 1769.00 L 813.00 1647.00 L 662.00 1570.00 L 574.00 1538.00 L 495.00 1515.00 L 425.00 1501.00 L 410.00 1419.00 L 450.00 1269.00 L 481.00 1166.00 L 503.00 1110.00 L 527.00 1065.00 L 553.00 1031.00 L 566.00 1007.00 L 566.00 993.00 L 567.00 982.00 L 569.00 974.00 L 570.00 955.00 Z" fill="black" stroke="black" stroke-width="1"/>
</svg>