<?xml version="1.0" encoding="UTF-8"?>
<svg xmlns="http://www.w3.org/2000/svg" viewBox="297.00 241.00 868.00 1544.00">
  <path d="M 467.00 997.00 L 469.00 963.00 L 476.00 924.00 L 488.00 880.00 L 485.00 851.00 L 467.00 837.00 L 461.00 831.00 L 467.00 833.00 L 465.00 831.00 L 455.00 825.00 L 462.00 829.00 L 486.00 843.00 L 480.00 836.00 L 444.00 808.00 L 446.00 806.00 L 486.00 830.00 L 480.00 824.00 L 428.00 788.00 L 429.00 787.00 L 483.00 821.00 L 482.00 818.00 L 426.00 778.00 L 397.00 756.00 L 395.00 752.00 L 424.00 770.00 L 484.00 810.00 L 483.00 807.00 L 421.00 761.00 L 391.00 725.00 L 393.00 699.00 L 391.00 675.00 L 385.00 653.00 L 388.00 603.00 L 400.00 525.00 L 408.00 481.00 L 412.00 471.00 L 421.00 458.00 L 435.00 442.00 L 446.00 417.00 L 454.00 383.00 L 461.00 364.00 L 467.00 360.00 L 473.00 353.00 L 479.00 343.00 L 490.00 337.00 L 506.00 335.00 L 526.00 325.00 L 550.00 307.00 L 579.00 293.00 L 613.00 283.00 L 633.00 276.00 L 639.00 272.00 L 658.00 266.00 L 690.00 258.00 L 729.00 253.00 L 775.00 251.00 L 812.00 255.00 L 840.00 265.00 L 863.00 271.00 L 881.00 273.00 L 902.00 279.00 L 926.00 289.00 L 947.00 303.00 L 965.00 321.00 L 978.00 332.00 L 986.00 336.00 L 996.00 345.00 L 1008.00 359.00 L 1018.00 377.00 L 1026.00 399.00 L 1043.00 430.00 L 1069.00 470.00 L 1085.00 500.00 L 1091.00 520.00 L 1093.00 541.00 L 1091.00 563.00 L 1092.00 579.00 L 1096.00 589.00 L 1105.00 606.00 L 1119.00 630.00 L 1131.00 646.00 L 1141.00 654.00 L 1149.00 663.00 L 1155.00 673.00 L 1146.00 692.00 L 1122.00 720.00 L 1122.00 724.00 L 1146.00 704.00 L 1146.00 706.00 L 1122.00 730.00 L 1121.00 733.00 L 1143.00 715.00 L 1147.00 712.00 L 1133.00 724.00 L 1131.00 727.00 L 1141.00 721.00 L 1138.00 726.00 L 1122.00 742.00 L 1116.00 755.00 L 1120.00 765.00 L 1122.00 775.00 L 1122.00 785.00 L 1120.00 795.00 L 1116.00 805.00 L 1115.00 817.00 L 1117.00 831.00 L 1114.00 847.00 L 1106.00 865.00 L 1106.00 883.00 L 1114.00 901.00 L 1118.00 917.00 L 1118.00 931.00 L 1114.00 945.00 L 1106.00 959.00 L 1092.00 970.00 L 1072.00 978.00 L 1055.00 987.00 L 1041.00 997.00 L 1033.00 1004.00 L 1031.00 1008.00 L 1035.00 1014.00 L 1045.00 1022.00 L 1050.00 1028.00 L 1050.00 1032.00 L 1049.00 1036.00 L 1047.00 1040.00 L 1040.00 1046.00 L 1028.00 1054.00 L 1020.00 1063.00 L 1016.00 1073.00 L 1019.00 1081.00 L 1029.00 1087.00 L 1028.00 1089.00 L 1016.00 1087.00 L 1017.00 1090.00 L 1031.00 1098.00 L 1038.00 1105.00 L 1038.00 1111.00 L 1035.00 1117.00 L 1029.00 1123.00 L 1022.00 1127.00 L 1014.00 1129.00 L 1017.00 1135.00 L 1031.00 1145.00 L 1032.00 1147.00 L 1020.00 1141.00 L 1026.00 1146.00 L 1050.00 1162.00 L 1065.00 1178.00 L 1071.00 1194.00 L 1064.00 1198.00 L 1044.00 1190.00 L 1026.00 1181.00 L 1010.00 1171.00 L 1020.00 1178.00 L 1056.00 1202.00 L 1057.00 1204.00 L 1023.00 1184.00 L 1023.00 1186.00 L 1057.00 1210.00 L 1067.00 1218.00 L 1053.00 1210.00 L 1053.00 1212.00 L 1067.00 1224.00 L 1057.00 1219.00 L 1023.00 1197.00 L 1021.00 1199.00 L 1051.00 1225.00 L 1052.00 1228.00 L 1024.00 1208.00 L 1010.00 1206.00 L 1010.00 1222.00 L 1015.00 1243.00 L 1025.00 1269.00 L 1029.00 1281.00 L 1027.00 1279.00 L 1049.00 1321.00 L 1095.00 1407.00 L 1117.00 1449.00 L 1115.00 1447.00 L 1120.00 1462.00 L 1132.00 1494.00 L 1140.00 1521.00 L 1144.00 1543.00 L 1147.00 1571.00 L 1149.00 1605.00 L 1148.00 1631.00 L 1144.00 1649.00 L 1139.00 1669.00 L 1133.00 1691.00 L 1125.00 1712.00 L 1115.00 1732.00 L 1106.00 1746.00 L 1098.00 1754.00 L 1084.00 1763.00 L 1064.00 1773.00 L 1039.00 1775.00 L 1009.00 1769.00 L 974.00 1753.00 L 934.00 1727.00 L 905.00 1705.00 L 887.00 1687.00 L 854.00 1663.00 L 806.00 1633.00 L 758.00 1606.00 L 710.00 1582.00 L 654.00 1557.00 L 590.00 1531.00 L 536.00 1511.00 L 492.00 1497.00 L 465.00 1490.00 L 455.00 1490.00 L 437.00 1486.00 L 411.00 1478.00 L 396.00 1475.00 L 392.00 1477.00 L 385.00 1477.00 L 375.00 1475.00 L 369.00 1475.00 L 367.00 1477.00 L 362.00 1476.00 L 354.00 1472.00 L 340.00 1471.00 L 320.00 1473.00 L 309.00 1464.00 L 307.00 1444.00 L 310.00 1412.00 L 318.00 1368.00 L 330.00 1319.00 L 346.00 1265.00 L 359.00 1226.00 L 369.00 1202.00 L 385.00 1170.00 L 407.00 1130.00 L 420.00 1100.00 L 424.00 1080.00 L 436.00 1058.00 L 456.00 1034.00 L 466.00 1020.00 L 466.00 1016.00 L 467.00 997.00 Z" fill="black" stroke="black" stroke-width="1"/>
</svg>