<?xml version="1.0" encoding="UTF-8"?>
<svg xmlns="http://www.w3.org/2000/svg" viewBox="324.00 236.00 956.00 1500.00">
  <path d="M 416.00 1004.00 L 436.00 976.00 L 447.00 954.00 L 449.00 938.00 L 446.00 913.00 L 438.00 879.00 L 416.00 828.00 L 380.00 760.00 L 358.00 710.00 L 350.00 678.00 L 346.00 644.00 L 346.00 608.00 L 348.00 577.00 L 352.00 551.00 L 362.00 514.00 L 378.00 466.00 L 399.00 420.00 L 425.00 376.00 L 446.00 346.00 L 462.00 330.00 L 489.00 309.00 L 527.00 283.00 L 553.00 267.00 L 567.00 261.00 L 589.00 257.00 L 619.00 255.00 L 638.00 252.00 L 646.00 248.00 L 673.00 246.00 L 719.00 246.00 L 767.00 250.00 L 817.00 258.00 L 853.00 261.00 L 875.00 259.00 L 909.00 268.00 L 955.00 288.00 L 998.00 312.00 L 1038.00 340.00 L 1066.00 364.00 L 1082.00 384.00 L 1089.00 402.00 L 1087.00 418.00 L 1090.00 420.00 L 1098.00 408.00 L 1100.00 410.00 L 1096.00 426.00 L 1098.00 428.00 L 1106.00 416.00 L 1109.00 419.00 L 1107.00 437.00 L 1109.00 441.00 L 1115.00 431.00 L 1117.00 433.00 L 1115.00 447.00 L 1117.00 450.00 L 1123.00 442.00 L 1125.00 444.00 L 1123.00 456.00 L 1130.00 477.00 L 1146.00 507.00 L 1161.00 548.00 L 1175.00 600.00 L 1179.00 642.00 L 1173.00 674.00 L 1193.00 719.00 L 1239.00 777.00 L 1264.00 811.00 L 1268.00 821.00 L 1270.00 831.00 L 1270.00 841.00 L 1252.00 855.00 L 1216.00 873.00 L 1214.00 876.00 L 1246.00 864.00 L 1248.00 864.00 L 1220.00 876.00 L 1218.00 879.00 L 1242.00 873.00 L 1241.00 875.00 L 1215.00 885.00 L 1204.00 906.00 L 1208.00 938.00 L 1205.00 959.00 L 1195.00 969.00 L 1193.00 977.00 L 1199.00 983.00 L 1202.00 989.00 L 1202.00 995.00 L 1194.00 1009.00 L 1178.00 1031.00 L 1174.00 1053.00 L 1182.00 1075.00 L 1184.00 1097.00 L 1180.00 1119.00 L 1170.00 1139.00 L 1154.00 1157.00 L 1124.00 1176.00 L 1080.00 1196.00 L 1061.00 1214.00 L 1067.00 1230.00 L 1066.00 1244.00 L 1058.00 1256.00 L 1061.00 1270.00 L 1075.00 1286.00 L 1074.00 1288.00 L 1058.00 1276.00 L 1058.00 1279.00 L 1074.00 1297.00 L 1074.00 1300.00 L 1058.00 1288.00 L 1063.00 1301.00 L 1089.00 1339.00 L 1088.00 1342.00 L 1060.00 1310.00 L 1061.00 1313.00 L 1091.00 1351.00 L 1111.00 1380.00 L 1121.00 1400.00 L 1112.00 1393.00 L 1084.00 1359.00 L 1082.00 1360.00 L 1106.00 1396.00 L 1103.00 1395.00 L 1073.00 1357.00 L 1068.00 1351.00 L 1088.00 1377.00 L 1085.00 1376.00 L 1059.00 1348.00 L 1049.00 1339.00 L 1055.00 1349.00 L 1052.00 1349.00 L 1040.00 1339.00 L 1048.00 1358.00 L 1076.00 1406.00 L 1079.00 1415.00 L 1057.00 1385.00 L 1068.00 1405.00 L 1112.00 1475.00 L 1112.00 1478.00 L 1068.00 1414.00 L 1068.00 1417.00 L 1112.00 1487.00 L 1110.00 1485.00 L 1062.00 1411.00 L 1063.00 1414.00 L 1113.00 1494.00 L 1127.00 1517.00 L 1105.00 1483.00 L 1118.00 1511.00 L 1166.00 1601.00 L 1178.00 1627.00 L 1154.00 1589.00 L 1156.00 1594.00 L 1184.00 1642.00 L 1185.00 1645.00 L 1159.00 1603.00 L 1160.00 1606.00 L 1188.00 1654.00 L 1203.00 1687.00 L 1205.00 1705.00 L 1191.00 1718.00 L 1161.00 1726.00 L 1105.00 1709.00 L 1023.00 1667.00 L 953.00 1636.00 L 895.00 1616.00 L 842.00 1601.00 L 794.00 1591.00 L 744.00 1583.00 L 692.00 1577.00 L 607.00 1573.00 L 489.00 1571.00 L 418.00 1568.00 L 394.00 1564.00 L 375.00 1558.00 L 361.00 1550.00 L 349.00 1537.00 L 339.00 1519.00 L 334.00 1497.00 L 334.00 1471.00 L 348.00 1415.00 L 376.00 1329.00 L 391.00 1277.00 L 393.00 1259.00 L 391.00 1245.00 L 385.00 1235.00 L 382.00 1223.00 L 382.00 1209.00 L 388.00 1177.00 L 400.00 1127.00 L 408.00 1097.00 L 412.00 1087.00 L 420.00 1077.00 L 432.00 1067.00 L 438.00 1060.00 L 438.00 1056.00 L 431.00 1053.00 L 417.00 1051.00 L 417.00 1049.00 L 431.00 1047.00 L 428.00 1045.00 L 408.00 1043.00 L 399.00 1039.00 L 401.00 1033.00 L 403.00 1027.00 L 405.00 1021.00 L 416.00 1004.00 Z" fill="black" stroke="black" stroke-width="1"/>
</svg>