<?xml version="1.0" encoding="UTF-8"?>
<svg xmlns="http://www.w3.org/2000/svg" viewBox="228.00 162.00 1018.00 1697.00">
  <path d="M 379.00 1002.00 L 389.00 970.00 L 405.00 936.00 L 427.00 900.00 L 434.00 877.00 L 426.00 867.00 L 418.00 840.00 L 410.00 796.00 L 385.00 743.00 L 343.00 681.00 L 314.00 622.00 L 298.00 566.00 L 290.00 522.00 L 290.00 490.00 L 293.00 458.00 L 299.00 426.00 L 309.00 392.00 L 323.00 356.00 L 340.00 323.00 L 360.00 293.00 L 388.00 262.00 L 424.00 230.00 L 460.00 207.00 L 496.00 193.00 L 538.00 182.00 L 586.00 174.00 L 638.00 172.00 L 694.00 176.00 L 746.00 183.00 L 794.00 193.00 L 855.00 217.00 L 929.00 255.00 L 983.00 290.00 L 1017.00 322.00 L 1033.00 345.00 L 1031.00 359.00 L 1032.00 361.00 L 1036.00 351.00 L 1038.00 353.00 L 1038.00 367.00 L 1040.00 370.00 L 1044.00 362.00 L 1045.00 364.00 L 1043.00 376.00 L 1044.00 378.00 L 1048.00 370.00 L 1049.00 372.00 L 1047.00 384.00 L 1049.00 387.00 L 1055.00 381.00 L 1056.00 383.00 L 1052.00 393.00 L 1051.00 400.00 L 1053.00 404.00 L 1057.00 402.00 L 1063.00 394.00 L 1064.00 397.00 L 1060.00 411.00 L 1061.00 413.00 L 1067.00 403.00 L 1069.00 406.00 L 1067.00 422.00 L 1073.00 439.00 L 1087.00 457.00 L 1096.00 487.00 L 1100.00 529.00 L 1120.00 577.00 L 1156.00 631.00 L 1175.00 661.00 L 1177.00 667.00 L 1163.00 684.00 L 1133.00 712.00 L 1134.00 714.00 L 1166.00 690.00 L 1165.00 693.00 L 1131.00 723.00 L 1131.00 725.00 L 1165.00 699.00 L 1165.00 702.00 L 1131.00 734.00 L 1128.00 739.00 L 1156.00 717.00 L 1157.00 720.00 L 1131.00 748.00 L 1120.00 768.00 L 1124.00 780.00 L 1120.00 792.00 L 1108.00 804.00 L 1103.00 813.00 L 1105.00 819.00 L 1101.00 831.00 L 1091.00 849.00 L 1092.00 872.00 L 1104.00 900.00 L 1108.00 920.00 L 1104.00 932.00 L 1095.00 946.00 L 1081.00 962.00 L 1055.00 980.00 L 1017.00 1000.00 L 1007.00 1011.00 L 1025.00 1013.00 L 1036.00 1018.00 L 1040.00 1026.00 L 1031.00 1043.00 L 1009.00 1069.00 L 1010.00 1089.00 L 1034.00 1103.00 L 1033.00 1106.00 L 1007.00 1098.00 L 1008.00 1100.00 L 1036.00 1112.00 L 1050.00 1121.00 L 1050.00 1127.00 L 1035.00 1124.00 L 1005.00 1112.00 L 1003.00 1114.00 L 1029.00 1130.00 L 1028.00 1133.00 L 1000.00 1123.00 L 997.00 1124.00 L 1019.00 1136.00 L 1027.00 1142.00 L 1021.00 1142.00 L 1020.00 1145.00 L 1024.00 1151.00 L 1023.00 1153.00 L 1017.00 1151.00 L 1023.00 1156.00 L 1041.00 1168.00 L 1038.00 1168.00 L 1014.00 1156.00 L 1015.00 1158.00 L 1041.00 1174.00 L 1071.00 1195.00 L 1105.00 1221.00 L 1109.00 1227.00 L 1083.00 1213.00 L 1084.00 1215.00 L 1112.00 1233.00 L 1113.00 1235.00 L 1087.00 1221.00 L 1084.00 1224.00 L 1104.00 1244.00 L 1085.00 1234.00 L 1027.00 1194.00 L 1025.00 1195.00 L 1079.00 1237.00 L 1076.00 1237.00 L 1016.00 1195.00 L 1013.00 1195.00 L 1067.00 1237.00 L 1066.00 1238.00 L 1010.00 1198.00 L 1007.00 1199.00 L 1057.00 1241.00 L 1058.00 1243.00 L 1010.00 1205.00 L 1007.00 1205.00 L 1049.00 1243.00 L 1054.00 1249.00 L 1022.00 1223.00 L 1019.00 1221.00 L 1045.00 1243.00 L 1047.00 1246.00 L 1025.00 1230.00 L 1027.00 1254.00 L 1053.00 1318.00 L 1091.00 1394.00 L 1141.00 1482.00 L 1164.00 1524.00 L 1160.00 1520.00 L 1176.00 1555.00 L 1212.00 1629.00 L 1232.00 1689.00 L 1236.00 1735.00 L 1233.00 1771.00 L 1223.00 1797.00 L 1204.00 1819.00 L 1176.00 1837.00 L 1157.00 1847.00 L 1147.00 1849.00 L 1128.00 1847.00 L 1100.00 1841.00 L 997.00 1778.00 L 819.00 1658.00 L 700.00 1584.00 L 640.00 1556.00 L 602.00 1540.00 L 586.00 1536.00 L 572.00 1530.00 L 560.00 1522.00 L 549.00 1518.00 L 539.00 1518.00 L 533.00 1516.00 L 531.00 1512.00 L 515.00 1507.00 L 485.00 1501.00 L 462.00 1494.00 L 446.00 1486.00 L 431.00 1482.00 L 417.00 1482.00 L 408.00 1480.00 L 404.00 1476.00 L 392.00 1472.00 L 372.00 1468.00 L 348.00 1467.00 L 320.00 1469.00 L 307.00 1468.00 L 309.00 1464.00 L 290.00 1462.00 L 250.00 1462.00 L 238.00 1425.00 L 254.00 1351.00 L 280.00 1270.00 L 316.00 1182.00 L 341.00 1130.00 L 355.00 1114.00 L 364.00 1087.00 L 368.00 1049.00 L 371.00 1027.00 L 373.00 1021.00 L 379.00 1002.00 Z" fill="black" stroke="black" stroke-width="1"/>
</svg>