<?xml version="1.0" encoding="UTF-8"?>
<svg xmlns="http://www.w3.org/2000/svg" viewBox="231.00 204.00 899.00 1640.00">
  <path d="M 387.00 1003.00 L 381.00 989.00 L 378.00 970.00 L 378.00 946.00 L 390.00 896.00 L 414.00 820.00 L 418.00 775.00 L 402.00 761.00 L 401.00 759.00 L 415.00 769.00 L 412.00 765.00 L 392.00 747.00 L 376.00 728.00 L 364.00 708.00 L 351.00 682.00 L 337.00 650.00 L 326.00 617.00 L 318.00 583.00 L 317.00 536.00 L 323.00 476.00 L 337.00 421.00 L 359.00 371.00 L 391.00 325.00 L 433.00 283.00 L 471.00 254.00 L 505.00 238.00 L 543.00 226.00 L 585.00 218.00 L 618.00 214.00 L 642.00 214.00 L 663.00 217.00 L 681.00 223.00 L 713.00 228.00 L 759.00 232.00 L 807.00 246.00 L 857.00 270.00 L 894.00 292.00 L 918.00 312.00 L 936.00 331.00 L 948.00 349.00 L 963.00 363.00 L 981.00 373.00 L 990.00 384.00 L 990.00 396.00 L 992.00 398.00 L 996.00 390.00 L 997.00 392.00 L 995.00 404.00 L 996.00 406.00 L 1000.00 398.00 L 1001.00 400.00 L 999.00 412.00 L 1001.00 415.00 L 1007.00 409.00 L 1010.00 413.00 L 1010.00 427.00 L 1013.00 429.00 L 1019.00 419.00 L 1021.00 425.00 L 1019.00 447.00 L 1022.00 450.00 L 1030.00 434.00 L 1030.00 439.00 L 1022.00 465.00 L 1024.00 468.00 L 1036.00 448.00 L 1036.00 450.00 L 1024.00 474.00 L 1020.00 498.00 L 1024.00 522.00 L 1050.00 564.00 L 1098.00 624.00 L 1111.00 667.00 L 1089.00 693.00 L 1090.00 695.00 L 1114.00 673.00 L 1117.00 671.00 L 1099.00 689.00 L 1099.00 691.00 L 1117.00 677.00 L 1120.00 676.00 L 1108.00 688.00 L 1107.00 690.00 L 1117.00 682.00 L 1111.00 688.00 L 1089.00 708.00 L 1088.00 710.00 L 1108.00 694.00 L 1108.00 696.00 L 1088.00 716.00 L 1082.00 732.00 L 1090.00 744.00 L 1094.00 755.00 L 1094.00 765.00 L 1090.00 775.00 L 1082.00 785.00 L 1080.00 796.00 L 1084.00 808.00 L 1079.00 820.00 L 1065.00 832.00 L 1056.00 843.00 L 1052.00 853.00 L 1053.00 869.00 L 1059.00 891.00 L 1060.00 908.00 L 1056.00 920.00 L 1049.00 932.00 L 1039.00 944.00 L 1024.00 954.00 L 1004.00 962.00 L 997.00 971.00 L 1003.00 981.00 L 1005.00 990.00 L 1003.00 998.00 L 995.00 1005.00 L 981.00 1011.00 L 968.00 1023.00 L 956.00 1041.00 L 961.00 1053.00 L 983.00 1059.00 L 983.00 1061.00 L 961.00 1059.00 L 964.00 1062.00 L 992.00 1070.00 L 990.00 1071.00 L 958.00 1065.00 L 957.00 1068.00 L 987.00 1080.00 L 993.00 1086.00 L 975.00 1086.00 L 973.00 1088.00 L 987.00 1092.00 L 980.00 1093.00 L 952.00 1091.00 L 950.00 1097.00 L 974.00 1111.00 L 972.00 1114.00 L 944.00 1106.00 L 946.00 1109.00 L 978.00 1123.00 L 996.00 1140.00 L 1000.00 1160.00 L 1013.00 1178.00 L 1035.00 1194.00 L 1036.00 1197.00 L 1016.00 1187.00 L 1014.00 1190.00 L 1030.00 1206.00 L 1036.00 1214.00 L 1032.00 1214.00 L 1015.00 1205.00 L 985.00 1187.00 L 982.00 1187.00 L 1006.00 1205.00 L 1008.00 1208.00 L 988.00 1196.00 L 970.00 1188.00 L 954.00 1184.00 L 959.00 1200.00 L 985.00 1236.00 L 1006.00 1289.00 L 1022.00 1359.00 L 1044.00 1427.00 L 1072.00 1493.00 L 1092.00 1547.00 L 1104.00 1589.00 L 1112.00 1624.00 L 1116.00 1652.00 L 1116.00 1692.00 L 1112.00 1744.00 L 1100.00 1784.00 L 1080.00 1812.00 L 1066.00 1828.00 L 1058.00 1832.00 L 1046.00 1834.00 L 1030.00 1834.00 L 1011.00 1829.00 L 989.00 1819.00 L 930.00 1780.00 L 834.00 1712.00 L 742.00 1655.00 L 654.00 1609.00 L 576.00 1575.00 L 508.00 1553.00 L 428.00 1533.00 L 336.00 1515.00 L 280.00 1506.00 L 260.00 1506.00 L 247.00 1504.00 L 241.00 1500.00 L 248.00 1446.00 L 268.00 1342.00 L 294.00 1257.00 L 326.00 1191.00 L 353.00 1124.00 L 375.00 1056.00 L 387.00 1019.00 L 389.00 1013.00 L 387.00 1003.00 Z" fill="black" stroke="black" stroke-width="1"/>
</svg>