<?xml version="1.0" encoding="UTF-8"?>
<svg xmlns="http://www.w3.org/2000/svg" viewBox="271.00 232.00 842.00 1593.00">
  <path d="M 417.00 1005.00 L 427.00 971.00 L 442.00 943.00 L 462.00 921.00 L 467.00 902.00 L 457.00 886.00 L 456.00 880.00 L 464.00 884.00 L 461.00 881.00 L 447.00 871.00 L 435.00 849.00 L 425.00 815.00 L 402.00 761.00 L 366.00 687.00 L 343.00 632.00 L 333.00 596.00 L 328.00 556.00 L 328.00 512.00 L 330.00 478.00 L 334.00 454.00 L 344.00 421.00 L 360.00 379.00 L 374.00 350.00 L 386.00 334.00 L 407.00 313.00 L 437.00 287.00 L 463.00 271.00 L 485.00 265.00 L 497.00 260.00 L 499.00 256.00 L 515.00 251.00 L 545.00 245.00 L 583.00 242.00 L 629.00 242.00 L 694.00 256.00 L 778.00 284.00 L 853.00 325.00 L 919.00 379.00 L 960.00 418.00 L 976.00 442.00 L 982.00 462.00 L 978.00 478.00 L 980.00 480.00 L 988.00 468.00 L 989.00 470.00 L 983.00 486.00 L 984.00 489.00 L 992.00 479.00 L 993.00 481.00 L 987.00 495.00 L 988.00 497.00 L 996.00 487.00 L 997.00 489.00 L 991.00 503.00 L 992.00 506.00 L 1000.00 498.00 L 1001.00 500.00 L 995.00 512.00 L 995.00 514.00 L 1001.00 506.00 L 1002.00 508.00 L 998.00 520.00 L 998.00 548.00 L 1002.00 592.00 L 1018.00 629.00 L 1046.00 659.00 L 1066.00 689.00 L 1078.00 719.00 L 1074.00 744.00 L 1054.00 764.00 L 1055.00 766.00 L 1077.00 750.00 L 1076.00 753.00 L 1052.00 775.00 L 1052.00 778.00 L 1076.00 762.00 L 1075.00 764.00 L 1049.00 784.00 L 1047.00 787.00 L 1069.00 773.00 L 1068.00 776.00 L 1044.00 796.00 L 1032.00 812.00 L 1032.00 824.00 L 1028.00 835.00 L 1020.00 845.00 L 1018.00 849.00 L 1022.00 847.00 L 1020.00 849.00 L 1012.00 855.00 L 1008.00 862.00 L 1008.00 870.00 L 1003.00 878.00 L 993.00 886.00 L 990.00 900.00 L 994.00 920.00 L 993.00 941.00 L 987.00 963.00 L 981.00 977.00 L 975.00 983.00 L 961.00 988.00 L 939.00 992.00 L 936.00 993.00 L 952.00 991.00 L 954.00 991.00 L 942.00 993.00 L 940.00 994.00 L 948.00 994.00 L 947.00 996.00 L 937.00 1000.00 L 935.00 1005.00 L 941.00 1011.00 L 943.00 1016.00 L 941.00 1020.00 L 930.00 1030.00 L 910.00 1046.00 L 909.00 1056.00 L 927.00 1060.00 L 932.00 1062.00 L 924.00 1062.00 L 928.00 1065.00 L 944.00 1071.00 L 937.00 1072.00 L 907.00 1068.00 L 906.00 1071.00 L 934.00 1081.00 L 945.00 1088.00 L 939.00 1092.00 L 927.00 1093.00 L 909.00 1091.00 L 908.00 1095.00 L 924.00 1105.00 L 924.00 1107.00 L 908.00 1101.00 L 910.00 1102.00 L 930.00 1110.00 L 945.00 1124.00 L 955.00 1144.00 L 965.00 1158.00 L 975.00 1166.00 L 976.00 1168.00 L 968.00 1164.00 L 970.00 1166.00 L 982.00 1174.00 L 987.00 1180.00 L 985.00 1184.00 L 970.00 1179.00 L 942.00 1165.00 L 939.00 1165.00 L 961.00 1179.00 L 963.00 1181.00 L 945.00 1171.00 L 942.00 1170.00 L 954.00 1178.00 L 952.00 1179.00 L 936.00 1173.00 L 930.00 1181.00 L 934.00 1203.00 L 964.00 1268.00 L 1020.00 1376.00 L 1047.00 1429.00 L 1045.00 1427.00 L 1058.00 1468.00 L 1086.00 1552.00 L 1101.00 1621.00 L 1103.00 1675.00 L 1098.00 1721.00 L 1086.00 1759.00 L 1075.00 1783.00 L 1065.00 1793.00 L 1050.00 1803.00 L 1030.00 1813.00 L 1011.00 1815.00 L 993.00 1809.00 L 944.00 1780.00 L 864.00 1728.00 L 809.00 1694.00 L 779.00 1678.00 L 731.00 1657.00 L 665.00 1631.00 L 576.00 1605.00 L 464.00 1579.00 L 391.00 1563.00 L 357.00 1557.00 L 329.00 1555.00 L 307.00 1557.00 L 291.00 1556.00 L 281.00 1552.00 L 307.00 1458.00 L 369.00 1274.00 L 398.00 1162.00 L 394.00 1122.00 L 396.00 1085.00 L 404.00 1051.00 L 409.00 1031.00 L 411.00 1025.00 L 417.00 1005.00 Z" fill="black" stroke="black" stroke-width="1"/>
</svg>