<?xml version="1.0" encoding="UTF-8"?>
<svg xmlns="http://www.w3.org/2000/svg" viewBox="306.00 331.00 707.00 1361.00">
  <path d="M 475.00 979.00 L 485.00 957.00 L 490.00 935.00 L 490.00 913.00 L 457.00 884.00 L 391.00 848.00 L 371.00 836.00 L 397.00 848.00 L 395.00 846.00 L 365.00 830.00 L 377.00 835.00 L 431.00 861.00 L 430.00 859.00 L 374.00 829.00 L 367.00 824.00 L 409.00 844.00 L 407.00 841.00 L 361.00 815.00 L 366.00 816.00 L 422.00 844.00 L 421.00 842.00 L 363.00 810.00 L 331.00 784.00 L 325.00 764.00 L 320.00 731.00 L 316.00 685.00 L 318.00 651.00 L 326.00 629.00 L 330.00 606.00 L 330.00 582.00 L 336.00 558.00 L 348.00 534.00 L 356.00 503.00 L 360.00 465.00 L 375.00 433.00 L 401.00 407.00 L 421.00 395.00 L 435.00 397.00 L 462.00 386.00 L 502.00 362.00 L 540.00 347.00 L 576.00 341.00 L 631.00 341.00 L 705.00 347.00 L 776.00 367.00 L 844.00 401.00 L 888.00 428.00 L 908.00 448.00 L 918.00 464.00 L 918.00 476.00 L 921.00 477.00 L 927.00 467.00 L 928.00 470.00 L 924.00 486.00 L 926.00 488.00 L 934.00 476.00 L 935.00 478.00 L 929.00 494.00 L 930.00 495.00 L 938.00 481.00 L 939.00 483.00 L 933.00 501.00 L 934.00 502.00 L 942.00 486.00 L 943.00 489.00 L 937.00 511.00 L 939.00 515.00 L 949.00 501.00 L 951.00 504.00 L 945.00 524.00 L 946.00 528.00 L 954.00 516.00 L 954.00 518.00 L 946.00 534.00 L 946.00 535.00 L 954.00 521.00 L 955.00 523.00 L 949.00 541.00 L 950.00 559.00 L 958.00 577.00 L 959.00 599.00 L 953.00 625.00 L 966.00 663.00 L 998.00 713.00 L 1002.00 751.00 L 978.00 777.00 L 978.00 782.00 L 1002.00 766.00 L 1002.00 770.00 L 978.00 794.00 L 969.00 813.00 L 975.00 827.00 L 972.00 849.00 L 960.00 879.00 L 954.00 914.00 L 954.00 954.00 L 918.00 986.00 L 846.00 1010.00 L 799.00 1041.00 L 777.00 1079.00 L 822.00 1187.00 L 934.00 1365.00 L 986.00 1448.00 L 978.00 1436.00 L 982.00 1443.00 L 998.00 1469.00 L 995.00 1465.00 L 973.00 1431.00 L 974.00 1433.00 L 998.00 1471.00 L 995.00 1467.00 L 965.00 1421.00 L 967.00 1425.00 L 1001.00 1479.00 L 999.00 1476.00 L 961.00 1416.00 L 962.00 1418.00 L 1002.00 1482.00 L 1000.00 1480.00 L 956.00 1412.00 L 957.00 1415.00 L 1003.00 1489.00 L 998.00 1482.00 L 942.00 1394.00 L 943.00 1397.00 L 1001.00 1491.00 L 997.00 1486.00 L 931.00 1382.00 L 932.00 1387.00 L 1000.00 1501.00 L 966.00 1445.00 L 830.00 1219.00 L 830.00 1222.00 L 966.00 1454.00 L 993.00 1502.00 L 911.00 1366.00 L 911.00 1369.00 L 993.00 1511.00 L 990.00 1508.00 L 902.00 1360.00 L 901.00 1363.00 L 987.00 1517.00 L 986.00 1516.00 L 898.00 1360.00 L 898.00 1362.00 L 986.00 1522.00 L 983.00 1518.00 L 889.00 1350.00 L 888.00 1352.00 L 980.00 1524.00 L 979.00 1523.00 L 885.00 1349.00 L 885.00 1351.00 L 979.00 1529.00 L 959.00 1492.00 L 825.00 1240.00 L 824.00 1241.00 L 956.00 1495.00 L 972.00 1528.00 L 872.00 1340.00 L 871.00 1343.00 L 969.00 1537.00 L 967.00 1534.00 L 865.00 1334.00 L 864.00 1335.00 L 964.00 1537.00 L 961.00 1533.00 L 855.00 1323.00 L 853.00 1325.00 L 955.00 1539.00 L 944.00 1516.00 L 820.00 1256.00 L 818.00 1258.00 L 938.00 1522.00 L 938.00 1524.00 L 818.00 1264.00 L 816.00 1266.00 L 932.00 1530.00 L 933.00 1533.00 L 819.00 1275.00 L 817.00 1277.00 L 927.00 1539.00 L 971.00 1674.00 L 949.00 1682.00 L 913.00 1665.00 L 863.00 1623.00 L 783.00 1570.00 L 673.00 1506.00 L 565.00 1450.00 L 459.00 1402.00 L 387.00 1373.00 L 349.00 1363.00 L 340.00 1323.00 L 360.00 1253.00 L 394.00 1163.00 L 442.00 1053.00 L 467.00 996.00 L 469.00 992.00 L 475.00 979.00 Z" fill="black" stroke="black" stroke-width="1"/>
</svg>