<?xml version="1.0" encoding="UTF-8"?>
<svg xmlns="http://www.w3.org/2000/svg" viewBox="338.00 290.00 712.00 1399.00">
  <path d="M 434.00 959.00 L 442.00 949.00 L 442.00 942.00 L 434.00 938.00 L 435.00 936.00 L 445.00 936.00 L 443.00 935.00 L 429.00 933.00 L 419.00 912.00 L 413.00 872.00 L 399.00 829.00 L 377.00 783.00 L 363.00 747.00 L 357.00 721.00 L 352.00 681.00 L 348.00 627.00 L 349.00 578.00 L 355.00 534.00 L 366.00 496.00 L 382.00 464.00 L 402.00 431.00 L 426.00 397.00 L 446.00 372.00 L 462.00 356.00 L 487.00 339.00 L 521.00 321.00 L 547.00 309.00 L 565.00 303.00 L 584.00 300.00 L 604.00 300.00 L 646.00 303.00 L 710.00 309.00 L 764.00 318.00 L 808.00 330.00 L 857.00 355.00 L 911.00 393.00 L 950.00 425.00 L 974.00 451.00 L 985.00 469.00 L 983.00 479.00 L 985.00 481.00 L 991.00 475.00 L 995.00 473.00 L 997.00 475.00 L 996.00 480.00 L 992.00 488.00 L 992.00 489.00 L 996.00 483.00 L 996.00 485.00 L 992.00 495.00 L 993.00 496.00 L 999.00 488.00 L 1000.00 493.00 L 996.00 511.00 L 998.00 514.00 L 1006.00 502.00 L 1008.00 502.00 L 1004.00 514.00 L 1005.00 516.00 L 1011.00 508.00 L 1010.00 511.00 L 1002.00 525.00 L 1003.00 526.00 L 1013.00 514.00 L 1014.00 517.00 L 1006.00 535.00 L 1002.00 546.00 L 1002.00 550.00 L 1007.00 545.00 L 1017.00 531.00 L 1018.00 533.00 L 1010.00 551.00 L 1011.00 553.00 L 1021.00 539.00 L 1021.00 542.00 L 1011.00 562.00 L 1011.00 566.00 L 1021.00 554.00 L 1021.00 556.00 L 1011.00 572.00 L 1011.00 574.00 L 1021.00 562.00 L 1021.00 565.00 L 1011.00 583.00 L 1011.00 585.00 L 1021.00 571.00 L 1021.00 573.00 L 1011.00 591.00 L 1004.00 619.00 L 1000.00 657.00 L 1009.00 701.00 L 1031.00 751.00 L 1031.00 785.00 L 1009.00 803.00 L 1004.00 809.00 L 1016.00 803.00 L 1015.00 806.00 L 1001.00 818.00 L 995.00 830.00 L 997.00 842.00 L 995.00 850.00 L 989.00 854.00 L 982.00 865.00 L 974.00 883.00 L 970.00 907.00 L 970.00 937.00 L 964.00 958.00 L 952.00 970.00 L 938.00 979.00 L 922.00 985.00 L 919.00 992.00 L 929.00 1000.00 L 934.00 1006.00 L 934.00 1010.00 L 926.00 1021.00 L 910.00 1039.00 L 910.00 1052.00 L 926.00 1060.00 L 925.00 1061.00 L 907.00 1055.00 L 908.00 1058.00 L 928.00 1070.00 L 930.00 1072.00 L 914.00 1064.00 L 914.00 1066.00 L 930.00 1078.00 L 927.00 1078.00 L 905.00 1066.00 L 904.00 1068.00 L 924.00 1084.00 L 929.00 1093.00 L 919.00 1095.00 L 920.00 1102.00 L 932.00 1114.00 L 929.00 1114.00 L 911.00 1102.00 L 925.00 1115.00 L 971.00 1153.00 L 970.00 1153.00 L 922.00 1115.00 L 920.00 1116.00 L 964.00 1156.00 L 976.00 1174.00 L 956.00 1170.00 L 932.00 1155.00 L 904.00 1129.00 L 902.00 1128.00 L 926.00 1152.00 L 936.00 1163.00 L 932.00 1161.00 L 920.00 1151.00 L 900.00 1133.00 L 896.00 1132.00 L 908.00 1148.00 L 918.00 1171.00 L 926.00 1201.00 L 946.00 1250.00 L 978.00 1318.00 L 1003.00 1381.00 L 1021.00 1439.00 L 1033.00 1496.00 L 1039.00 1552.00 L 1040.00 1590.00 L 1036.00 1610.00 L 1029.00 1629.00 L 1019.00 1647.00 L 1003.00 1662.00 L 981.00 1674.00 L 957.00 1679.00 L 931.00 1677.00 L 908.00 1671.00 L 888.00 1661.00 L 834.00 1624.00 L 746.00 1560.00 L 684.00 1518.00 L 648.00 1498.00 L 599.00 1476.00 L 537.00 1452.00 L 476.00 1434.00 L 416.00 1422.00 L 384.00 1414.00 L 380.00 1410.00 L 387.00 1373.00 L 405.00 1303.00 L 421.00 1251.00 L 435.00 1217.00 L 444.00 1187.00 L 448.00 1161.00 L 445.00 1142.00 L 435.00 1130.00 L 428.00 1117.00 L 424.00 1103.00 L 421.00 1077.00 L 419.00 1039.00 L 420.00 1008.00 L 424.00 984.00 L 427.00 970.00 L 429.00 966.00 L 434.00 959.00 Z" fill="black" stroke="black" stroke-width="1"/>
</svg>