<?xml version="1.0" encoding="UTF-8"?>
<svg xmlns="http://www.w3.org/2000/svg" viewBox="277.00 209.00 933.00 1567.00">
  <path d="M 611.00 928.00 L 621.00 924.00 L 565.00 910.00 L 443.00 886.00 L 443.00 884.00 L 565.00 904.00 L 558.00 900.00 L 422.00 872.00 L 422.00 871.00 L 558.00 897.00 L 551.00 891.00 L 401.00 853.00 L 366.00 841.00 L 446.00 855.00 L 443.00 850.00 L 357.00 826.00 L 387.00 833.00 L 533.00 871.00 L 532.00 868.00 L 384.00 824.00 L 356.00 815.00 L 448.00 841.00 L 447.00 839.00 L 353.00 809.00 L 304.00 790.00 L 300.00 782.00 L 376.00 803.00 L 532.00 853.00 L 531.00 850.00 L 373.00 794.00 L 349.00 785.00 L 459.00 823.00 L 457.00 818.00 L 343.00 770.00 L 367.00 777.00 L 529.00 839.00 L 529.00 836.00 L 367.00 768.00 L 365.00 765.00 L 523.00 827.00 L 522.00 820.00 L 362.00 744.00 L 364.00 744.00 L 528.00 820.00 L 529.00 817.00 L 367.00 735.00 L 287.00 650.00 L 289.00 562.00 L 314.00 480.00 L 362.00 404.00 L 403.00 348.00 L 437.00 312.00 L 483.00 288.00 L 541.00 276.00 L 589.00 257.00 L 627.00 231.00 L 669.00 219.00 L 715.00 221.00 L 740.00 233.00 L 744.00 255.00 L 746.00 255.00 L 746.00 233.00 L 748.00 234.00 L 752.00 258.00 L 754.00 258.00 L 754.00 234.00 L 756.00 234.00 L 760.00 258.00 L 763.00 258.00 L 765.00 234.00 L 768.00 234.00 L 772.00 258.00 L 776.00 257.00 L 780.00 231.00 L 783.00 231.00 L 785.00 257.00 L 786.00 260.00 L 786.00 240.00 L 789.00 240.00 L 795.00 260.00 L 829.00 276.00 L 891.00 288.00 L 956.00 318.00 L 1024.00 366.00 L 1078.00 412.00 L 1118.00 456.00 L 1140.00 489.00 L 1144.00 511.00 L 1150.00 519.00 L 1158.00 513.00 L 1161.00 522.00 L 1159.00 546.00 L 1163.00 553.00 L 1173.00 543.00 L 1174.00 545.00 L 1166.00 559.00 L 1167.00 562.00 L 1177.00 554.00 L 1177.00 556.00 L 1167.00 568.00 L 1167.00 571.00 L 1177.00 565.00 L 1177.00 568.00 L 1167.00 580.00 L 1167.00 582.00 L 1177.00 574.00 L 1178.00 576.00 L 1170.00 588.00 L 1164.00 623.00 L 1160.00 681.00 L 1172.00 746.00 L 1200.00 818.00 L 1200.00 865.00 L 1172.00 887.00 L 1141.00 946.00 L 1107.00 1042.00 L 1053.00 1097.00 L 979.00 1111.00 L 935.00 1125.00 L 921.00 1139.00 L 974.00 1246.00 L 1094.00 1446.00 L 1144.00 1530.00 L 1124.00 1498.00 L 1126.00 1503.00 L 1150.00 1545.00 L 1100.00 1463.00 L 976.00 1257.00 L 976.00 1258.00 L 1100.00 1466.00 L 1142.00 1537.00 L 1102.00 1471.00 L 1104.00 1476.00 L 1148.00 1552.00 L 1145.00 1549.00 L 1095.00 1467.00 L 1096.00 1472.00 L 1148.00 1564.00 L 1145.00 1561.00 L 1087.00 1463.00 L 1087.00 1465.00 L 1145.00 1567.00 L 1142.00 1564.00 L 1078.00 1456.00 L 1078.00 1459.00 L 1142.00 1573.00 L 1108.00 1513.00 L 976.00 1279.00 L 976.00 1281.00 L 1108.00 1519.00 L 1135.00 1571.00 L 1057.00 1437.00 L 1056.00 1443.00 L 1132.00 1589.00 L 1105.00 1540.00 L 975.00 1296.00 L 974.00 1299.00 L 1102.00 1549.00 L 1120.00 1588.00 L 1028.00 1416.00 L 1026.00 1419.00 L 1114.00 1597.00 L 1112.00 1595.00 L 1020.00 1413.00 L 1019.00 1415.00 L 1109.00 1601.00 L 1092.00 1567.00 L 968.00 1313.00 L 967.00 1315.00 L 1089.00 1573.00 L 1089.00 1576.00 L 967.00 1324.00 L 964.00 1324.00 L 1080.00 1576.00 L 1139.00 1705.00 L 1141.00 1711.00 L 1090.00 1603.00 L 986.00 1381.00 L 984.00 1383.00 L 1084.00 1609.00 L 1076.00 1594.00 L 960.00 1338.00 L 957.00 1339.00 L 1067.00 1597.00 L 1067.00 1600.00 L 957.00 1348.00 L 954.00 1350.00 L 1058.00 1606.00 L 1059.00 1609.00 L 957.00 1359.00 L 955.00 1361.00 L 1053.00 1615.00 L 1096.00 1750.00 L 1084.00 1766.00 L 988.00 1708.00 L 808.00 1576.00 L 678.00 1488.00 L 598.00 1444.00 L 532.00 1413.00 L 480.00 1395.00 L 480.00 1330.00 L 532.00 1218.00 L 575.00 1107.00 L 609.00 997.00 L 621.00 939.00 L 611.00 933.00 L 611.00 928.00 Z" fill="black" stroke="black" stroke-width="1"/>
</svg>