<?xml version="1.0" encoding="UTF-8"?>
<svg xmlns="http://www.w3.org/2000/svg" viewBox="345.00 268.00 886.00 1493.00">
  <path d="M 504.00 1002.00 L 508.00 978.00 L 516.00 953.00 L 528.00 927.00 L 516.00 901.00 L 480.00 875.00 L 450.00 848.00 L 426.00 820.00 L 405.00 790.00 L 387.00 758.00 L 373.00 723.00 L 363.00 685.00 L 357.00 651.00 L 355.00 621.00 L 356.00 582.00 L 360.00 534.00 L 377.00 481.00 L 407.00 423.00 L 428.00 387.00 L 440.00 373.00 L 466.00 352.00 L 506.00 324.00 L 556.00 302.00 L 616.00 286.00 L 672.00 278.00 L 724.00 278.00 L 785.00 293.00 L 855.00 323.00 L 906.00 352.00 L 938.00 380.00 L 954.00 400.00 L 954.00 412.00 L 956.00 413.00 L 960.00 403.00 L 962.00 406.00 L 962.00 422.00 L 965.00 424.00 L 971.00 412.00 L 972.00 414.00 L 968.00 430.00 L 967.00 435.00 L 969.00 429.00 L 970.00 431.00 L 970.00 441.00 L 972.00 443.00 L 976.00 437.00 L 977.00 439.00 L 975.00 449.00 L 977.00 445.00 L 983.00 427.00 L 984.00 428.00 L 980.00 448.00 L 981.00 449.00 L 987.00 431.00 L 989.00 434.00 L 987.00 458.00 L 989.00 462.00 L 995.00 446.00 L 996.00 448.00 L 992.00 468.00 L 993.00 470.00 L 999.00 454.00 L 1000.00 455.00 L 996.00 473.00 L 997.00 476.00 L 1003.00 464.00 L 1005.00 467.00 L 1003.00 485.00 L 1006.00 488.00 L 1014.00 476.00 L 1016.00 479.00 L 1012.00 497.00 L 1014.00 498.00 L 1022.00 482.00 L 1023.00 484.00 L 1017.00 504.00 L 1017.00 511.00 L 1023.00 505.00 L 1024.00 508.00 L 1020.00 520.00 L 1023.00 515.00 L 1033.00 493.00 L 1033.00 495.00 L 1023.00 521.00 L 1024.00 523.00 L 1036.00 501.00 L 1037.00 502.00 L 1027.00 526.00 L 1027.00 528.00 L 1037.00 508.00 L 1037.00 510.00 L 1027.00 534.00 L 1023.00 557.00 L 1025.00 579.00 L 1051.00 617.00 L 1101.00 671.00 L 1126.00 701.00 L 1126.00 707.00 L 1116.00 721.00 L 1096.00 743.00 L 1096.00 745.00 L 1116.00 727.00 L 1117.00 729.00 L 1099.00 751.00 L 1094.00 769.00 L 1102.00 783.00 L 1105.00 797.00 L 1103.00 811.00 L 1105.00 825.00 L 1111.00 839.00 L 1107.00 855.00 L 1093.00 873.00 L 1090.00 886.00 L 1098.00 894.00 L 1103.00 907.00 L 1105.00 925.00 L 1101.00 942.00 L 1091.00 958.00 L 1074.00 976.00 L 1050.00 996.00 L 1042.00 1008.00 L 1050.00 1012.00 L 1056.00 1020.00 L 1060.00 1032.00 L 1060.00 1042.00 L 1056.00 1050.00 L 1045.00 1061.00 L 1027.00 1075.00 L 1027.00 1087.00 L 1045.00 1097.00 L 1044.00 1100.00 L 1024.00 1096.00 L 1024.00 1098.00 L 1044.00 1106.00 L 1043.00 1106.00 L 1021.00 1098.00 L 1020.00 1100.00 L 1040.00 1112.00 L 1047.00 1120.00 L 1041.00 1124.00 L 1032.00 1126.00 L 1020.00 1126.00 L 1023.00 1132.00 L 1041.00 1144.00 L 1042.00 1147.00 L 1026.00 1141.00 L 1028.00 1144.00 L 1048.00 1156.00 L 1044.00 1154.00 L 1016.00 1138.00 L 1030.00 1151.00 L 1086.00 1193.00 L 1102.00 1207.00 L 1078.00 1193.00 L 1078.00 1195.00 L 1102.00 1213.00 L 1103.00 1215.00 L 1081.00 1201.00 L 1079.00 1204.00 L 1097.00 1224.00 L 1089.00 1223.00 L 1055.00 1201.00 L 1052.00 1202.00 L 1080.00 1226.00 L 1081.00 1228.00 L 1055.00 1208.00 L 1052.00 1207.00 L 1072.00 1225.00 L 1074.00 1228.00 L 1058.00 1216.00 L 1056.00 1215.00 L 1068.00 1225.00 L 1068.00 1226.00 L 1056.00 1218.00 L 1056.00 1231.00 L 1068.00 1265.00 L 1097.00 1322.00 L 1143.00 1402.00 L 1165.00 1441.00 L 1163.00 1439.00 L 1176.00 1475.00 L 1204.00 1549.00 L 1219.00 1601.00 L 1221.00 1631.00 L 1221.00 1651.00 L 1219.00 1661.00 L 1216.00 1664.00 L 1212.00 1660.00 L 1211.00 1665.00 L 1213.00 1679.00 L 1210.00 1694.00 L 1202.00 1710.00 L 1192.00 1724.00 L 1180.00 1736.00 L 1165.00 1745.00 L 1147.00 1751.00 L 1123.00 1751.00 L 1093.00 1745.00 L 1030.00 1717.00 L 934.00 1667.00 L 835.00 1623.00 L 733.00 1585.00 L 655.00 1559.00 L 601.00 1545.00 L 535.00 1533.00 L 457.00 1523.00 L 422.00 1487.00 L 430.00 1425.00 L 443.00 1371.00 L 461.00 1325.00 L 473.00 1286.00 L 479.00 1254.00 L 485.00 1234.00 L 491.00 1226.00 L 497.00 1210.00 L 503.00 1186.00 L 501.00 1160.00 L 491.00 1132.00 L 489.00 1094.00 L 495.00 1046.00 L 499.00 1020.00 L 501.00 1016.00 L 504.00 1002.00 Z" fill="black" stroke="black" stroke-width="1"/>
</svg>