<?xml version="1.0" encoding="UTF-8"?>
<svg xmlns="http://www.w3.org/2000/svg" viewBox="381.00 237.00 787.00 1513.00">
  <path d="M 575.00 946.00 L 577.00 894.00 L 562.00 858.00 L 530.00 838.00 L 530.00 836.00 L 562.00 852.00 L 556.00 847.00 L 512.00 821.00 L 474.00 784.00 L 442.00 736.00 L 420.00 688.00 L 408.00 640.00 L 405.00 591.00 L 411.00 541.00 L 409.00 506.00 L 399.00 486.00 L 400.00 483.00 L 412.00 497.00 L 409.00 491.00 L 391.00 465.00 L 391.00 462.00 L 409.00 482.00 L 409.00 480.00 L 391.00 456.00 L 398.00 420.00 L 430.00 372.00 L 457.00 345.00 L 479.00 339.00 L 502.00 325.00 L 526.00 303.00 L 567.00 281.00 L 625.00 259.00 L 658.00 253.00 L 666.00 263.00 L 669.00 261.00 L 667.00 247.00 L 670.00 247.00 L 678.00 261.00 L 699.00 264.00 L 733.00 256.00 L 760.00 261.00 L 780.00 279.00 L 823.00 300.00 L 889.00 324.00 L 960.00 371.00 L 1036.00 441.00 L 1072.00 483.00 L 1068.00 497.00 L 1070.00 499.00 L 1078.00 489.00 L 1080.00 495.00 L 1076.00 517.00 L 1079.00 521.00 L 1089.00 507.00 L 1090.00 510.00 L 1082.00 530.00 L 1083.00 532.00 L 1093.00 516.00 L 1094.00 524.00 L 1086.00 556.00 L 1087.00 566.00 L 1097.00 554.00 L 1097.00 559.00 L 1087.00 581.00 L 1089.00 584.00 L 1103.00 568.00 L 1103.00 571.00 L 1089.00 593.00 L 1090.00 594.00 L 1106.00 574.00 L 1106.00 583.00 L 1090.00 621.00 L 1089.00 632.00 L 1103.00 616.00 L 1105.00 621.00 L 1095.00 647.00 L 1100.00 655.00 L 1120.00 645.00 L 1122.00 649.00 L 1106.00 667.00 L 1106.00 668.00 L 1122.00 652.00 L 1124.00 654.00 L 1112.00 674.00 L 1120.00 703.00 L 1148.00 741.00 L 1149.00 772.00 L 1123.00 796.00 L 1111.00 821.00 L 1113.00 847.00 L 1105.00 893.00 L 1087.00 959.00 L 1066.00 999.00 L 1042.00 1013.00 L 1005.00 1023.00 L 955.00 1029.00 L 919.00 1049.00 L 897.00 1083.00 L 954.00 1218.00 L 1090.00 1454.00 L 1152.00 1562.00 L 1140.00 1542.00 L 1142.00 1547.00 L 1158.00 1577.00 L 1148.00 1562.00 L 1112.00 1502.00 L 1113.00 1505.00 L 1151.00 1571.00 L 1148.00 1567.00 L 1104.00 1493.00 L 1105.00 1496.00 L 1151.00 1576.00 L 1145.00 1567.00 L 1087.00 1469.00 L 1087.00 1474.00 L 1145.00 1582.00 L 1101.00 1505.00 L 955.00 1243.00 L 955.00 1245.00 L 1101.00 1511.00 L 1134.00 1573.00 L 1054.00 1431.00 L 1054.00 1438.00 L 1134.00 1594.00 L 1128.00 1587.00 L 1036.00 1417.00 L 1035.00 1421.00 L 1125.00 1599.00 L 1123.00 1597.00 L 1029.00 1415.00 L 1028.00 1418.00 L 1120.00 1606.00 L 1094.00 1555.00 L 950.00 1265.00 L 949.00 1268.00 L 1091.00 1564.00 L 1109.00 1605.00 L 1003.00 1391.00 L 1001.00 1395.00 L 1103.00 1617.00 L 1085.00 1579.00 L 947.00 1281.00 L 945.00 1284.00 L 1079.00 1588.00 L 1091.00 1618.00 L 981.00 1374.00 L 979.00 1378.00 L 1085.00 1630.00 L 1072.00 1601.00 L 940.00 1291.00 L 939.00 1292.00 L 1069.00 1604.00 L 1069.00 1606.00 L 939.00 1298.00 L 935.00 1301.00 L 1057.00 1615.00 L 1063.00 1634.00 L 953.00 1358.00 L 950.00 1361.00 L 1054.00 1643.00 L 1047.00 1626.00 L 929.00 1310.00 L 926.00 1313.00 L 1038.00 1635.00 L 1038.00 1638.00 L 926.00 1322.00 L 922.00 1325.00 L 1026.00 1647.00 L 1026.00 1649.00 L 922.00 1331.00 L 919.00 1331.00 L 1017.00 1649.00 L 1017.00 1652.00 L 919.00 1340.00 L 915.00 1338.00 L 1005.00 1646.00 L 964.00 1740.00 L 792.00 1620.00 L 623.00 1523.00 L 457.00 1449.00 L 392.00 1383.00 L 428.00 1325.00 L 452.00 1270.00 L 464.00 1218.00 L 481.00 1182.00 L 503.00 1162.00 L 521.00 1136.00 L 535.00 1104.00 L 542.00 1075.00 L 542.00 1049.00 L 550.00 1030.00 L 566.00 1018.00 L 574.00 1004.00 L 574.00 988.00 L 574.00 978.00 L 574.00 974.00 L 575.00 946.00 Z" fill="black" stroke="black" stroke-width="1"/>
</svg>