<?xml version="1.0" encoding="UTF-8"?>
<svg xmlns="http://www.w3.org/2000/svg" viewBox="249.00 287.00 864.00 1541.00">
  <path d="M 452.00 1012.00 L 456.00 996.00 L 445.00 983.00 L 419.00 973.00 L 419.00 970.00 L 445.00 974.00 L 442.00 972.00 L 410.00 964.00 L 410.00 962.00 L 442.00 966.00 L 440.00 963.00 L 404.00 953.00 L 382.00 944.00 L 374.00 936.00 L 392.00 938.00 L 436.00 950.00 L 433.00 947.00 L 383.00 929.00 L 355.00 917.00 L 349.00 911.00 L 374.00 917.00 L 430.00 935.00 L 429.00 934.00 L 371.00 914.00 L 367.00 912.00 L 417.00 928.00 L 416.00 926.00 L 364.00 906.00 L 368.00 906.00 L 428.00 926.00 L 427.00 924.00 L 365.00 900.00 L 363.00 898.00 L 421.00 918.00 L 419.00 915.00 L 357.00 889.00 L 313.00 848.00 L 287.00 792.00 L 271.00 748.00 L 265.00 716.00 L 261.00 666.00 L 259.00 598.00 L 260.00 549.00 L 264.00 519.00 L 270.00 492.00 L 278.00 468.00 L 290.00 444.00 L 306.00 420.00 L 331.00 393.00 L 365.00 363.00 L 403.00 339.00 L 445.00 321.00 L 473.00 312.00 L 487.00 312.00 L 497.00 309.00 L 503.00 303.00 L 518.00 299.00 L 542.00 297.00 L 581.00 298.00 L 635.00 302.00 L 694.00 315.00 L 758.00 337.00 L 807.00 360.00 L 841.00 384.00 L 859.00 395.00 L 861.00 393.00 L 863.00 396.00 L 865.00 404.00 L 873.00 415.00 L 887.00 429.00 L 903.00 440.00 L 921.00 448.00 L 938.00 467.00 L 954.00 497.00 L 960.00 520.00 L 956.00 536.00 L 958.00 539.00 L 966.00 529.00 L 967.00 532.00 L 961.00 548.00 L 963.00 551.00 L 973.00 541.00 L 974.00 545.00 L 966.00 563.00 L 967.00 565.00 L 977.00 551.00 L 979.00 551.00 L 973.00 565.00 L 974.00 567.00 L 982.00 557.00 L 981.00 563.00 L 971.00 585.00 L 972.00 588.00 L 984.00 572.00 L 991.00 567.00 L 993.00 573.00 L 988.00 585.00 L 976.00 603.00 L 976.00 604.00 L 988.00 588.00 L 994.00 582.00 L 994.00 586.00 L 988.00 597.00 L 976.00 615.00 L 976.00 617.00 L 988.00 603.00 L 988.00 606.00 L 976.00 626.00 L 976.00 628.00 L 988.00 612.00 L 993.00 608.00 L 991.00 616.00 L 991.00 619.00 L 993.00 617.00 L 988.00 624.00 L 976.00 640.00 L 969.00 659.00 L 967.00 681.00 L 985.00 727.00 L 1023.00 797.00 L 1042.00 835.00 L 1042.00 841.00 L 1027.00 852.00 L 997.00 868.00 L 996.00 870.00 L 1024.00 858.00 L 1037.00 853.00 L 1035.00 855.00 L 1020.00 863.00 L 992.00 877.00 L 989.00 879.00 L 1011.00 869.00 L 1011.00 872.00 L 989.00 888.00 L 979.00 901.00 L 981.00 911.00 L 980.00 920.00 L 976.00 928.00 L 976.00 937.00 L 980.00 947.00 L 979.00 959.00 L 973.00 973.00 L 972.00 995.00 L 976.00 1025.00 L 975.00 1046.00 L 969.00 1058.00 L 961.00 1069.00 L 951.00 1079.00 L 938.00 1087.00 L 922.00 1093.00 L 894.00 1096.00 L 854.00 1096.00 L 824.00 1102.00 L 804.00 1114.00 L 794.00 1123.00 L 794.00 1129.00 L 800.00 1139.00 L 812.00 1153.00 L 814.00 1156.00 L 806.00 1148.00 L 840.00 1191.00 L 916.00 1285.00 L 989.00 1392.00 L 1059.00 1512.00 L 1097.00 1589.00 L 1103.00 1623.00 L 1100.00 1662.00 L 1088.00 1706.00 L 1074.00 1740.00 L 1058.00 1764.00 L 1037.00 1788.00 L 1011.00 1812.00 L 984.00 1818.00 L 956.00 1806.00 L 897.00 1768.00 L 807.00 1704.00 L 726.00 1650.00 L 654.00 1606.00 L 576.00 1564.00 L 492.00 1524.00 L 405.00 1488.00 L 315.00 1456.00 L 276.00 1433.00 L 288.00 1419.00 L 286.00 1418.00 L 270.00 1430.00 L 270.00 1428.00 L 286.00 1412.00 L 287.00 1410.00 L 273.00 1422.00 L 272.00 1420.00 L 284.00 1404.00 L 286.00 1399.00 L 278.00 1405.00 L 278.00 1403.00 L 286.00 1393.00 L 288.00 1389.00 L 284.00 1391.00 L 290.00 1369.00 L 306.00 1323.00 L 325.00 1280.00 L 347.00 1240.00 L 364.00 1202.00 L 376.00 1166.00 L 395.00 1130.00 L 421.00 1094.00 L 434.00 1069.00 L 434.00 1055.00 L 437.00 1043.00 L 443.00 1033.00 L 447.00 1026.00 L 449.00 1022.00 L 452.00 1012.00 Z" fill="black" stroke="black" stroke-width="1"/>
</svg>