<?xml version="1.0" encoding="UTF-8"?>
<svg xmlns="http://www.w3.org/2000/svg" viewBox="359.00 278.00 824.00 1469.00">
  <path d="M 420.00 1009.00 L 452.00 1007.00 L 447.00 1004.00 L 405.00 1000.00 L 405.00 998.00 L 447.00 998.00 L 448.00 995.00 L 408.00 989.00 L 409.00 986.00 L 451.00 986.00 L 452.00 984.00 L 412.00 980.00 L 412.00 978.00 L 452.00 978.00 L 453.00 975.00 L 415.00 969.00 L 413.00 967.00 L 447.00 969.00 L 448.00 966.00 L 416.00 958.00 L 419.00 957.00 L 457.00 963.00 L 458.00 960.00 L 422.00 948.00 L 423.00 945.00 L 461.00 951.00 L 462.00 949.00 L 426.00 939.00 L 425.00 936.00 L 459.00 940.00 L 461.00 937.00 L 431.00 927.00 L 433.00 926.00 L 467.00 934.00 L 464.00 926.00 L 424.00 902.00 L 426.00 897.00 L 470.00 911.00 L 470.00 909.00 L 426.00 891.00 L 427.00 888.00 L 473.00 900.00 L 475.00 897.00 L 433.00 879.00 L 434.00 877.00 L 478.00 891.00 L 480.00 889.00 L 440.00 871.00 L 439.00 868.00 L 477.00 880.00 L 483.00 879.00 L 457.00 865.00 L 459.00 865.00 L 489.00 879.00 L 490.00 876.00 L 462.00 856.00 L 441.00 796.00 L 427.00 696.00 L 423.00 609.00 L 429.00 535.00 L 445.00 473.00 L 471.00 423.00 L 498.00 384.00 L 526.00 356.00 L 559.00 333.00 L 597.00 315.00 L 651.00 300.00 L 721.00 288.00 L 791.00 290.00 L 861.00 306.00 L 920.00 329.00 L 968.00 359.00 L 993.00 381.00 L 995.00 395.00 L 999.00 398.00 L 1005.00 390.00 L 1008.00 395.00 L 1008.00 413.00 L 1013.00 418.00 L 1023.00 410.00 L 1026.00 415.00 L 1022.00 433.00 L 1025.00 436.00 L 1035.00 424.00 L 1038.00 427.00 L 1034.00 445.00 L 1036.00 449.00 L 1044.00 439.00 L 1045.00 442.00 L 1039.00 458.00 L 1040.00 460.00 L 1048.00 448.00 L 1055.00 481.00 L 1061.00 559.00 L 1084.00 623.00 L 1124.00 673.00 L 1128.00 714.00 L 1096.00 746.00 L 1097.00 749.00 L 1131.00 723.00 L 1134.00 721.00 L 1106.00 743.00 L 1105.00 747.00 L 1131.00 733.00 L 1128.00 738.00 L 1096.00 762.00 L 1094.00 764.00 L 1122.00 744.00 L 1116.00 755.00 L 1076.00 797.00 L 1066.00 841.00 L 1086.00 887.00 L 1095.00 920.00 L 1093.00 940.00 L 1075.00 955.00 L 1041.00 965.00 L 1039.00 968.00 L 1069.00 964.00 L 1070.00 965.00 L 1042.00 971.00 L 1039.00 974.00 L 1061.00 974.00 L 1058.00 979.00 L 1030.00 989.00 L 1026.00 999.00 L 1046.00 1009.00 L 1046.00 1021.00 L 1026.00 1035.00 L 1025.00 1045.00 L 1043.00 1051.00 L 1042.00 1054.00 L 1022.00 1054.00 L 1024.00 1056.00 L 1048.00 1060.00 L 1053.00 1069.00 L 1039.00 1083.00 L 1051.00 1102.00 L 1089.00 1126.00 L 1083.00 1133.00 L 1033.00 1123.00 L 1029.00 1127.00 L 1071.00 1145.00 L 1072.00 1147.00 L 1032.00 1133.00 L 1029.00 1134.00 L 1063.00 1150.00 L 1064.00 1153.00 L 1032.00 1143.00 L 1053.00 1230.00 L 1127.00 1414.00 L 1167.00 1537.00 L 1173.00 1599.00 L 1170.00 1649.00 L 1158.00 1687.00 L 1138.00 1714.00 L 1110.00 1730.00 L 1087.00 1737.00 L 1069.00 1735.00 L 1016.00 1702.00 L 928.00 1638.00 L 881.00 1608.00 L 875.00 1612.00 L 825.00 1589.00 L 731.00 1539.00 L 628.00 1493.00 L 516.00 1451.00 L 434.00 1429.00 L 382.00 1427.00 L 369.00 1371.00 L 395.00 1261.00 L 403.00 1208.00 L 393.00 1212.00 L 394.00 1206.00 L 406.00 1190.00 L 402.00 1187.00 L 382.00 1197.00 L 384.00 1195.00 L 408.00 1181.00 L 408.00 1178.00 L 384.00 1186.00 L 385.00 1183.00 L 411.00 1169.00 L 413.00 1165.00 L 391.00 1171.00 L 393.00 1168.00 L 419.00 1156.00 L 421.00 1153.00 L 399.00 1159.00 L 400.00 1156.00 L 424.00 1144.00 L 425.00 1142.00 L 403.00 1150.00 L 404.00 1148.00 L 428.00 1136.00 L 430.00 1132.00 L 410.00 1136.00 L 412.00 1129.00 L 436.00 1111.00 L 438.00 1104.00 L 418.00 1108.00 L 420.00 1105.00 L 444.00 1095.00 L 445.00 1092.00 L 423.00 1096.00 L 425.00 1093.00 L 451.00 1083.00 L 451.00 1080.00 L 425.00 1084.00 L 426.00 1082.00 L 454.00 1074.00 L 455.00 1071.00 L 429.00 1073.00 L 428.00 1070.00 L 452.00 1062.00 L 453.00 1057.00 L 431.00 1055.00 L 431.00 1051.00 L 453.00 1045.00 L 454.00 1042.00 L 434.00 1042.00 L 434.00 1039.00 L 454.00 1033.00 L 454.00 1028.00 L 434.00 1024.00 L 434.00 1021.00 L 454.00 1019.00 L 451.00 1017.00 L 425.00 1015.00 L 410.00 1013.00 L 406.00 1011.00 L 420.00 1009.00 Z" fill="black" stroke="black" stroke-width="1"/>
</svg>