<?xml version="1.0" encoding="UTF-8"?>
<svg xmlns="http://www.w3.org/2000/svg" viewBox="282.00 283.00 820.00 1524.00">
  <path d="M 493.00 989.00 L 507.00 975.00 L 515.00 955.00 L 517.00 929.00 L 477.00 891.00 L 395.00 841.00 L 384.00 830.00 L 444.00 858.00 L 438.00 853.00 L 366.00 815.00 L 365.00 813.00 L 435.00 847.00 L 432.00 844.00 L 356.00 804.00 L 354.00 802.00 L 426.00 838.00 L 424.00 836.00 L 348.00 796.00 L 347.00 794.00 L 421.00 830.00 L 419.00 827.00 L 341.00 785.00 L 339.00 782.00 L 413.00 818.00 L 412.00 814.00 L 336.00 770.00 L 296.00 713.00 L 292.00 643.00 L 300.00 584.00 L 320.00 536.00 L 344.00 493.00 L 372.00 455.00 L 416.00 418.00 L 476.00 382.00 L 523.00 346.00 L 557.00 310.00 L 577.00 299.00 L 583.00 313.00 L 605.00 311.00 L 643.00 293.00 L 666.00 300.00 L 674.00 332.00 L 677.00 332.00 L 675.00 300.00 L 676.00 300.00 L 680.00 332.00 L 683.00 334.00 L 685.00 306.00 L 688.00 306.00 L 692.00 334.00 L 694.00 336.00 L 694.00 312.00 L 697.00 312.00 L 703.00 336.00 L 740.00 357.00 L 808.00 375.00 L 861.00 397.00 L 899.00 423.00 L 936.00 455.00 L 972.00 493.00 L 988.00 517.00 L 984.00 527.00 L 985.00 528.00 L 991.00 520.00 L 994.00 524.00 L 994.00 540.00 L 997.00 543.00 L 1003.00 533.00 L 1003.00 535.00 L 997.00 549.00 L 998.00 550.00 L 1006.00 538.00 L 1007.00 540.00 L 1001.00 556.00 L 1002.00 558.00 L 1010.00 546.00 L 1014.00 556.00 L 1014.00 588.00 L 1019.00 601.00 L 1029.00 595.00 L 1030.00 599.00 L 1022.00 613.00 L 1023.00 616.00 L 1033.00 608.00 L 1033.00 614.00 L 1023.00 634.00 L 1024.00 636.00 L 1036.00 620.00 L 1036.00 622.00 L 1024.00 642.00 L 1025.00 645.00 L 1039.00 631.00 L 1039.00 639.00 L 1025.00 669.00 L 1034.00 712.00 L 1066.00 768.00 L 1068.00 807.00 L 1040.00 829.00 L 1040.00 832.00 L 1068.00 816.00 L 1067.00 821.00 L 1037.00 847.00 L 1017.00 886.00 L 1007.00 938.00 L 1006.00 977.00 L 1014.00 1003.00 L 1013.00 1023.00 L 1003.00 1037.00 L 988.00 1044.00 L 968.00 1044.00 L 965.00 1046.00 L 979.00 1050.00 L 966.00 1051.00 L 926.00 1049.00 L 913.00 1051.00 L 927.00 1057.00 L 926.00 1058.00 L 910.00 1054.00 L 911.00 1056.00 L 929.00 1064.00 L 932.00 1066.00 L 920.00 1062.00 L 917.00 1063.00 L 923.00 1069.00 L 915.00 1069.00 L 893.00 1063.00 L 891.00 1064.00 L 909.00 1072.00 L 906.00 1074.00 L 882.00 1070.00 L 876.00 1072.00 L 888.00 1080.00 L 886.00 1081.00 L 870.00 1075.00 L 867.00 1075.00 L 877.00 1081.00 L 869.00 1093.00 L 843.00 1111.00 L 896.00 1221.00 L 1028.00 1423.00 L 1074.00 1495.00 L 1034.00 1437.00 L 1037.00 1443.00 L 1083.00 1513.00 L 1080.00 1509.00 L 1028.00 1431.00 L 1030.00 1435.00 L 1086.00 1521.00 L 1083.00 1517.00 L 1021.00 1423.00 L 1024.00 1429.00 L 1092.00 1535.00 L 1088.00 1530.00 L 1012.00 1414.00 L 1013.00 1417.00 L 1091.00 1539.00 L 1087.00 1534.00 L 1001.00 1402.00 L 1001.00 1404.00 L 1087.00 1540.00 L 1085.00 1538.00 L 995.00 1398.00 L 995.00 1401.00 L 1085.00 1547.00 L 1082.00 1543.00 L 986.00 1389.00 L 987.00 1392.00 L 1085.00 1552.00 L 1057.00 1507.00 L 903.00 1257.00 L 903.00 1260.00 L 1057.00 1516.00 L 1076.00 1549.00 L 960.00 1359.00 L 959.00 1363.00 L 1073.00 1561.00 L 1069.00 1556.00 L 947.00 1348.00 L 947.00 1350.00 L 1069.00 1562.00 L 1067.00 1560.00 L 941.00 1344.00 L 940.00 1347.00 L 1064.00 1569.00 L 1061.00 1565.00 L 931.00 1335.00 L 930.00 1337.00 L 1058.00 1571.00 L 1047.00 1551.00 L 897.00 1277.00 L 896.00 1280.00 L 1044.00 1560.00 L 1050.00 1574.00 L 914.00 1322.00 L 912.00 1326.00 L 1044.00 1586.00 L 1043.00 1585.00 L 909.00 1323.00 L 907.00 1325.00 L 1037.00 1591.00 L 1033.00 1585.00 L 895.00 1307.00 L 893.00 1309.00 L 1027.00 1591.00 L 1025.00 1587.00 L 887.00 1297.00 L 886.00 1298.00 L 1022.00 1590.00 L 1022.00 1592.00 L 886.00 1304.00 L 882.00 1308.00 L 1010.00 1604.00 L 1063.00 1761.00 L 1041.00 1779.00 L 1024.00 1791.00 L 1012.00 1797.00 L 1000.00 1797.00 L 988.00 1791.00 L 916.00 1725.00 L 784.00 1599.00 L 675.00 1505.00 L 589.00 1443.00 L 531.00 1408.00 L 501.00 1400.00 L 478.00 1388.00 L 462.00 1372.00 L 451.00 1367.00 L 445.00 1373.00 L 417.00 1366.00 L 367.00 1346.00 L 377.00 1254.00 L 447.00 1090.00 L 483.00 1005.00 L 485.00 999.00 L 493.00 989.00 Z" fill="black" stroke="black" stroke-width="1"/>
</svg>