<?xml version="1.0" encoding="UTF-8"?>
<svg xmlns="http://www.w3.org/2000/svg" viewBox="308.00 202.00 888.00 1596.00">
  <path d="M 452.00 963.00 L 456.00 937.00 L 461.00 917.00 L 467.00 903.00 L 474.00 891.00 L 482.00 881.00 L 483.00 873.00 L 477.00 867.00 L 477.00 865.00 L 483.00 867.00 L 477.00 863.00 L 459.00 853.00 L 447.00 844.00 L 441.00 836.00 L 433.00 821.00 L 423.00 799.00 L 402.00 765.00 L 370.00 719.00 L 348.00 684.00 L 336.00 660.00 L 327.00 636.00 L 321.00 612.00 L 318.00 582.00 L 318.00 546.00 L 321.00 515.00 L 327.00 489.00 L 338.00 457.00 L 354.00 419.00 L 370.00 388.00 L 386.00 364.00 L 416.00 334.00 L 460.00 298.00 L 495.00 273.00 L 521.00 259.00 L 539.00 250.00 L 549.00 246.00 L 570.00 242.00 L 602.00 238.00 L 638.00 230.00 L 678.00 218.00 L 714.00 212.00 L 746.00 212.00 L 775.00 216.00 L 801.00 224.00 L 824.00 228.00 L 844.00 228.00 L 859.00 229.00 L 869.00 231.00 L 875.00 235.00 L 877.00 241.00 L 879.00 242.00 L 881.00 238.00 L 884.00 236.00 L 888.00 236.00 L 908.00 244.00 L 944.00 260.00 L 973.00 276.00 L 995.00 292.00 L 1009.00 303.00 L 1015.00 309.00 L 1018.00 318.00 L 1018.00 330.00 L 1020.00 332.00 L 1024.00 324.00 L 1025.00 325.00 L 1023.00 335.00 L 1024.00 336.00 L 1028.00 328.00 L 1029.00 330.00 L 1027.00 342.00 L 1029.00 344.00 L 1035.00 336.00 L 1036.00 338.00 L 1032.00 350.00 L 1035.00 368.00 L 1045.00 392.00 L 1060.00 422.00 L 1080.00 458.00 L 1091.00 496.00 L 1093.00 536.00 L 1101.00 568.00 L 1115.00 592.00 L 1138.00 623.00 L 1170.00 661.00 L 1186.00 683.00 L 1186.00 689.00 L 1174.00 702.00 L 1150.00 722.00 L 1148.00 725.00 L 1168.00 711.00 L 1166.00 713.00 L 1142.00 731.00 L 1140.00 733.00 L 1160.00 719.00 L 1159.00 721.00 L 1137.00 739.00 L 1127.00 760.00 L 1129.00 784.00 L 1127.00 800.00 L 1121.00 808.00 L 1119.00 815.00 L 1121.00 821.00 L 1121.00 829.00 L 1119.00 839.00 L 1114.00 850.00 L 1106.00 862.00 L 1107.00 878.00 L 1117.00 898.00 L 1121.00 916.00 L 1119.00 932.00 L 1111.00 947.00 L 1097.00 961.00 L 1071.00 977.00 L 1033.00 995.00 L 1024.00 1007.00 L 1044.00 1013.00 L 1056.00 1019.00 L 1060.00 1025.00 L 1062.00 1030.00 L 1062.00 1034.00 L 1058.00 1040.00 L 1050.00 1048.00 L 1037.00 1057.00 L 1019.00 1067.00 L 1018.00 1077.00 L 1034.00 1087.00 L 1033.00 1088.00 L 1015.00 1080.00 L 1016.00 1081.00 L 1036.00 1091.00 L 1039.00 1094.00 L 1025.00 1090.00 L 1026.00 1093.00 L 1042.00 1103.00 L 1038.00 1102.00 L 1014.00 1090.00 L 1014.00 1092.00 L 1038.00 1108.00 L 1047.00 1120.00 L 1041.00 1128.00 L 1025.00 1132.00 L 999.00 1132.00 L 989.00 1138.00 L 995.00 1150.00 L 996.00 1155.00 L 992.00 1153.00 L 994.00 1156.00 L 1002.00 1164.00 L 999.00 1162.00 L 985.00 1150.00 L 987.00 1153.00 L 1005.00 1171.00 L 1021.00 1191.00 L 1035.00 1213.00 L 1040.00 1222.00 L 1036.00 1218.00 L 1038.00 1224.00 L 1046.00 1240.00 L 1052.00 1258.00 L 1056.00 1278.00 L 1071.00 1314.00 L 1097.00 1366.00 L 1126.00 1442.00 L 1158.00 1542.00 L 1176.00 1603.00 L 1180.00 1625.00 L 1182.00 1652.00 L 1182.00 1684.00 L 1177.00 1713.00 L 1167.00 1739.00 L 1157.00 1758.00 L 1147.00 1770.00 L 1137.00 1779.00 L 1127.00 1785.00 L 1109.00 1788.00 L 1083.00 1788.00 L 1050.00 1778.00 L 1010.00 1758.00 L 942.00 1713.00 L 846.00 1643.00 L 771.00 1592.00 L 717.00 1560.00 L 668.00 1533.00 L 624.00 1511.00 L 575.00 1489.00 L 521.00 1467.00 L 477.00 1451.00 L 443.00 1441.00 L 418.00 1435.00 L 402.00 1433.00 L 392.00 1429.00 L 388.00 1423.00 L 388.00 1398.00 L 392.00 1354.00 L 404.00 1299.00 L 424.00 1233.00 L 443.00 1181.00 L 461.00 1143.00 L 470.00 1118.00 L 470.00 1106.00 L 471.00 1099.00 L 473.00 1097.00 L 474.00 1092.00 L 474.00 1084.00 L 468.00 1068.00 L 456.00 1044.00 L 450.00 1021.00 L 450.00 999.00 L 450.00 985.00 L 450.00 979.00 L 452.00 963.00 Z" fill="black" stroke="black" stroke-width="1"/>
</svg>