<?xml version="1.0" encoding="UTF-8"?>
<svg xmlns="http://www.w3.org/2000/svg" viewBox="337.00 224.00 754.00 1578.00">
  <path d="M 468.00 962.00 L 472.00 938.00 L 480.00 913.00 L 492.00 887.00 L 490.00 869.00 L 474.00 859.00 L 475.00 857.00 L 493.00 863.00 L 492.00 860.00 L 472.00 848.00 L 473.00 846.00 L 495.00 854.00 L 494.00 850.00 L 470.00 834.00 L 454.00 813.00 L 446.00 787.00 L 423.00 741.00 L 385.00 675.00 L 361.00 623.00 L 351.00 585.00 L 347.00 539.00 L 349.00 485.00 L 361.00 433.00 L 383.00 383.00 L 420.00 333.00 L 472.00 283.00 L 519.00 252.00 L 561.00 240.00 L 624.00 234.00 L 708.00 234.00 L 771.00 240.00 L 813.00 252.00 L 847.00 265.00 L 873.00 279.00 L 906.00 301.00 L 946.00 331.00 L 971.00 353.00 L 981.00 367.00 L 991.00 384.00 L 1001.00 404.00 L 1004.00 419.00 L 1000.00 429.00 L 1001.00 430.00 L 1007.00 422.00 L 1007.00 426.00 L 1001.00 442.00 L 999.00 448.00 L 1001.00 444.00 L 1002.00 447.00 L 1002.00 457.00 L 1006.00 453.00 L 1014.00 435.00 L 1016.00 433.00 L 1012.00 447.00 L 1013.00 449.00 L 1019.00 439.00 L 1018.00 445.00 L 1010.00 467.00 L 1011.00 469.00 L 1021.00 451.00 L 1021.00 453.00 L 1011.00 475.00 L 1012.00 477.00 L 1024.00 459.00 L 1025.00 462.00 L 1015.00 486.00 L 1015.00 488.00 L 1025.00 468.00 L 1026.00 472.00 L 1018.00 500.00 L 1019.00 505.00 L 1029.00 487.00 L 1029.00 490.00 L 1019.00 514.00 L 1019.00 517.00 L 1029.00 499.00 L 1030.00 500.00 L 1022.00 520.00 L 1023.00 522.00 L 1033.00 506.00 L 1033.00 508.00 L 1023.00 528.00 L 1018.00 543.00 L 1018.00 553.00 L 1025.00 546.00 L 1039.00 522.00 L 1037.00 531.00 L 1019.00 573.00 L 1020.00 578.00 L 1040.00 546.00 L 1039.00 548.00 L 1017.00 584.00 L 1019.00 582.00 L 1045.00 542.00 L 1045.00 545.00 L 1019.00 591.00 L 1023.00 640.00 L 1057.00 692.00 L 1064.00 729.00 L 1044.00 751.00 L 1045.00 753.00 L 1067.00 735.00 L 1065.00 738.00 L 1039.00 762.00 L 1038.00 765.00 L 1062.00 747.00 L 1062.00 750.00 L 1038.00 774.00 L 1029.00 793.00 L 1035.00 807.00 L 1033.00 819.00 L 1023.00 829.00 L 1022.00 832.00 L 1030.00 828.00 L 1026.00 842.00 L 1010.00 874.00 L 1004.00 898.00 L 1008.00 914.00 L 1009.00 931.00 L 1007.00 949.00 L 993.00 966.00 L 967.00 982.00 L 959.00 992.00 L 969.00 996.00 L 976.00 1003.00 L 980.00 1013.00 L 975.00 1022.00 L 961.00 1030.00 L 950.00 1040.00 L 942.00 1052.00 L 950.00 1066.00 L 974.00 1082.00 L 973.00 1084.00 L 947.00 1072.00 L 947.00 1075.00 L 973.00 1093.00 L 985.00 1103.00 L 983.00 1105.00 L 969.00 1099.00 L 943.00 1085.00 L 941.00 1086.00 L 963.00 1102.00 L 968.00 1108.00 L 956.00 1104.00 L 955.00 1106.00 L 965.00 1114.00 L 975.00 1128.00 L 985.00 1148.00 L 976.00 1147.00 L 948.00 1125.00 L 959.00 1135.00 L 1009.00 1177.00 L 1006.00 1177.00 L 950.00 1135.00 L 947.00 1137.00 L 997.00 1183.00 L 1004.00 1190.00 L 968.00 1158.00 L 966.00 1158.00 L 998.00 1190.00 L 989.00 1183.00 L 939.00 1137.00 L 937.00 1137.00 L 983.00 1183.00 L 981.00 1183.00 L 931.00 1137.00 L 927.00 1135.00 L 969.00 1177.00 L 979.00 1188.00 L 957.00 1168.00 L 943.00 1159.00 L 937.00 1161.00 L 935.00 1166.00 L 937.00 1174.00 L 936.00 1176.00 L 932.00 1172.00 L 938.00 1184.00 L 954.00 1212.00 L 978.00 1270.00 L 1010.00 1358.00 L 1038.00 1450.00 L 1062.00 1546.00 L 1076.00 1605.00 L 1080.00 1627.00 L 1081.00 1661.00 L 1079.00 1707.00 L 1075.00 1738.00 L 1069.00 1754.00 L 1061.00 1768.00 L 1051.00 1780.00 L 1036.00 1788.00 L 1016.00 1792.00 L 989.00 1786.00 L 955.00 1770.00 L 903.00 1735.00 L 833.00 1681.00 L 745.00 1627.00 L 639.00 1573.00 L 567.00 1538.00 L 529.00 1522.00 L 474.00 1505.00 L 402.00 1487.00 L 365.00 1475.00 L 363.00 1469.00 L 370.00 1429.00 L 386.00 1355.00 L 407.00 1286.00 L 433.00 1222.00 L 450.00 1172.00 L 458.00 1136.00 L 460.00 1109.00 L 456.00 1091.00 L 456.00 1057.00 L 460.00 1007.00 L 463.00 980.00 L 465.00 976.00 L 468.00 962.00 Z" fill="black" stroke="black" stroke-width="1"/>
</svg>