<?xml version="1.0" encoding="UTF-8"?>
<svg xmlns="http://www.w3.org/2000/svg" viewBox="258.00 212.00 840.00 1647.00">
  <path d="M 418.00 1052.00 L 426.00 1048.00 L 427.00 1045.00 L 421.00 1043.00 L 426.00 1042.00 L 442.00 1042.00 L 440.00 1041.00 L 420.00 1039.00 L 419.00 1036.00 L 437.00 1032.00 L 437.00 1029.00 L 419.00 1027.00 L 418.00 1025.00 L 434.00 1023.00 L 435.00 1020.00 L 421.00 1016.00 L 419.00 991.00 L 429.00 945.00 L 425.00 915.00 L 407.00 901.00 L 390.00 873.00 L 374.00 831.00 L 356.00 792.00 L 336.00 756.00 L 322.00 729.00 L 314.00 711.00 L 306.00 680.00 L 298.00 636.00 L 297.00 584.00 L 303.00 524.00 L 315.00 471.00 L 333.00 425.00 L 363.00 374.00 L 405.00 318.00 L 436.00 287.00 L 456.00 281.00 L 480.00 269.00 L 508.00 251.00 L 539.00 240.00 L 573.00 236.00 L 597.00 231.00 L 611.00 225.00 L 629.00 222.00 L 651.00 222.00 L 674.00 226.00 L 698.00 234.00 L 719.00 238.00 L 737.00 238.00 L 758.00 241.00 L 782.00 247.00 L 804.00 260.00 L 824.00 280.00 L 855.00 301.00 L 897.00 323.00 L 924.00 342.00 L 936.00 358.00 L 940.00 373.00 L 936.00 387.00 L 937.00 389.00 L 943.00 379.00 L 944.00 380.00 L 940.00 392.00 L 941.00 394.00 L 947.00 386.00 L 949.00 389.00 L 947.00 403.00 L 948.00 406.00 L 952.00 398.00 L 954.00 400.00 L 954.00 412.00 L 968.00 443.00 L 996.00 493.00 L 1012.00 524.00 L 1016.00 536.00 L 1017.00 549.00 L 1015.00 563.00 L 1018.00 582.00 L 1026.00 606.00 L 1047.00 644.00 L 1081.00 696.00 L 1085.00 736.00 L 1059.00 764.00 L 1060.00 767.00 L 1088.00 745.00 L 1088.00 747.00 L 1060.00 773.00 L 1057.00 778.00 L 1079.00 762.00 L 1078.00 765.00 L 1054.00 787.00 L 1043.00 809.00 L 1045.00 831.00 L 1043.00 844.00 L 1037.00 848.00 L 1036.00 856.00 L 1040.00 868.00 L 1038.00 881.00 L 1030.00 895.00 L 1030.00 913.00 L 1038.00 935.00 L 1041.00 954.00 L 1039.00 970.00 L 1031.00 985.00 L 1017.00 999.00 L 995.00 1015.00 L 965.00 1033.00 L 956.00 1045.00 L 968.00 1051.00 L 974.00 1057.00 L 974.00 1063.00 L 966.00 1073.00 L 950.00 1087.00 L 940.00 1099.00 L 936.00 1109.00 L 942.00 1119.00 L 958.00 1129.00 L 956.00 1132.00 L 936.00 1128.00 L 937.00 1130.00 L 959.00 1138.00 L 958.00 1139.00 L 934.00 1133.00 L 931.00 1135.00 L 949.00 1145.00 L 950.00 1147.00 L 934.00 1141.00 L 931.00 1142.00 L 941.00 1150.00 L 940.00 1155.00 L 928.00 1157.00 L 930.00 1164.00 L 946.00 1176.00 L 957.00 1188.00 L 963.00 1200.00 L 952.00 1199.00 L 924.00 1185.00 L 935.00 1195.00 L 985.00 1229.00 L 985.00 1231.00 L 935.00 1201.00 L 927.00 1197.00 L 961.00 1219.00 L 979.00 1231.00 L 981.00 1233.00 L 969.00 1226.00 L 943.00 1210.00 L 947.00 1215.00 L 981.00 1241.00 L 977.00 1240.00 L 935.00 1212.00 L 932.00 1212.00 L 968.00 1240.00 L 969.00 1243.00 L 935.00 1221.00 L 932.00 1221.00 L 960.00 1243.00 L 961.00 1246.00 L 935.00 1230.00 L 924.00 1233.00 L 928.00 1255.00 L 954.00 1318.00 L 1002.00 1422.00 L 1035.00 1505.00 L 1053.00 1567.00 L 1064.00 1633.00 L 1068.00 1703.00 L 1065.00 1754.00 L 1055.00 1786.00 L 1044.00 1810.00 L 1032.00 1826.00 L 1014.00 1839.00 L 990.00 1849.00 L 958.00 1849.00 L 918.00 1839.00 L 828.00 1797.00 L 688.00 1723.00 L 585.00 1674.00 L 519.00 1650.00 L 475.00 1632.00 L 453.00 1620.00 L 397.00 1604.00 L 307.00 1584.00 L 268.00 1549.00 L 280.00 1499.00 L 301.00 1440.00 L 331.00 1372.00 L 350.00 1319.00 L 358.00 1281.00 L 371.00 1249.00 L 389.00 1223.00 L 400.00 1197.00 L 404.00 1171.00 L 409.00 1152.00 L 415.00 1140.00 L 415.00 1125.00 L 409.00 1107.00 L 406.00 1092.00 L 406.00 1080.00 L 409.00 1071.00 L 415.00 1065.00 L 415.00 1062.00 L 409.00 1062.00 L 411.00 1061.00 L 421.00 1059.00 L 423.00 1057.00 L 417.00 1055.00 L 418.00 1052.00 Z" fill="black" stroke="black" stroke-width="1"/>
</svg>