<?xml version="1.0" encoding="UTF-8"?>
<svg xmlns="http://www.w3.org/2000/svg" viewBox="441.00 207.00 792.00 1558.00">
  <path d="M 654.00 915.00 L 654.00 869.00 L 620.00 827.00 L 552.00 789.00 L 551.00 786.00 L 617.00 818.00 L 609.00 810.00 L 527.00 762.00 L 527.00 760.00 L 609.00 804.00 L 607.00 801.00 L 521.00 751.00 L 520.00 749.00 L 604.00 795.00 L 601.00 790.00 L 511.00 734.00 L 510.00 732.00 L 598.00 784.00 L 597.00 781.00 L 507.00 723.00 L 459.00 672.00 L 453.00 628.00 L 457.00 590.00 L 471.00 558.00 L 469.00 518.00 L 451.00 470.00 L 464.00 413.00 L 508.00 347.00 L 554.00 296.00 L 602.00 260.00 L 661.00 234.00 L 731.00 218.00 L 810.00 217.00 L 898.00 231.00 L 990.00 272.00 L 1086.00 340.00 L 1140.00 384.00 L 1152.00 404.00 L 1156.00 419.00 L 1152.00 429.00 L 1153.00 430.00 L 1159.00 422.00 L 1160.00 424.00 L 1156.00 436.00 L 1157.00 438.00 L 1163.00 430.00 L 1164.00 434.00 L 1160.00 450.00 L 1162.00 454.00 L 1170.00 446.00 L 1171.00 450.00 L 1165.00 466.00 L 1167.00 470.00 L 1177.00 462.00 L 1178.00 466.00 L 1170.00 482.00 L 1171.00 485.00 L 1181.00 475.00 L 1182.00 480.00 L 1174.00 500.00 L 1175.00 503.00 L 1185.00 489.00 L 1185.00 494.00 L 1175.00 518.00 L 1176.00 524.00 L 1188.00 512.00 L 1187.00 518.00 L 1173.00 542.00 L 1173.00 546.00 L 1187.00 530.00 L 1187.00 532.00 L 1173.00 552.00 L 1173.00 554.00 L 1187.00 538.00 L 1187.00 548.00 L 1173.00 584.00 L 1181.00 632.00 L 1211.00 692.00 L 1209.00 737.00 L 1175.00 767.00 L 1154.00 820.00 L 1146.00 896.00 L 1129.00 945.00 L 1103.00 967.00 L 1068.00 978.00 L 1024.00 978.00 L 989.00 1002.00 L 963.00 1050.00 L 1027.00 1215.00 L 1181.00 1497.00 L 1180.00 1499.00 L 1024.00 1221.00 L 1024.00 1224.00 L 1180.00 1508.00 L 1223.00 1589.00 L 1153.00 1467.00 L 1153.00 1472.00 L 1223.00 1604.00 L 1220.00 1600.00 L 1144.00 1460.00 L 1143.00 1462.00 L 1217.00 1606.00 L 1214.00 1603.00 L 1134.00 1453.00 L 1134.00 1455.00 L 1214.00 1609.00 L 1177.00 1538.00 L 1023.00 1242.00 L 1022.00 1244.00 L 1174.00 1544.00 L 1206.00 1609.00 L 1118.00 1439.00 L 1117.00 1444.00 L 1203.00 1624.00 L 1198.00 1618.00 L 1102.00 1426.00 L 1100.00 1429.00 L 1192.00 1627.00 L 1188.00 1623.00 L 1088.00 1417.00 L 1086.00 1419.00 L 1182.00 1629.00 L 1158.00 1576.00 L 1014.00 1260.00 L 1012.00 1262.00 L 1152.00 1582.00 L 1172.00 1630.00 L 1072.00 1406.00 L 1071.00 1407.00 L 1169.00 1633.00 L 1216.00 1749.00 L 1212.00 1755.00 L 1158.00 1636.00 L 1054.00 1392.00 L 1052.00 1394.00 L 1152.00 1642.00 L 1136.00 1603.00 L 1004.00 1277.00 L 1001.00 1280.00 L 1127.00 1612.00 L 1138.00 1646.00 L 1034.00 1382.00 L 1029.00 1385.00 L 1123.00 1655.00 L 1111.00 1624.00 L 993.00 1292.00 L 990.00 1294.00 L 1102.00 1630.00 L 1102.00 1632.00 L 990.00 1300.00 L 988.00 1301.00 L 1096.00 1635.00 L 1096.00 1638.00 L 988.00 1310.00 L 985.00 1311.00 L 1087.00 1641.00 L 1087.00 1644.00 L 985.00 1320.00 L 979.00 1315.00 L 1069.00 1629.00 L 1069.00 1631.00 L 979.00 1321.00 L 977.00 1319.00 L 1063.00 1625.00 L 1063.00 1735.00 L 977.00 1649.00 L 891.00 1575.00 L 805.00 1513.00 L 730.00 1466.00 L 666.00 1434.00 L 592.00 1406.00 L 508.00 1382.00 L 512.00 1265.00 L 604.00 1055.00 L 651.00 947.00 L 653.00 941.00 L 654.00 915.00 Z" fill="black" stroke="black" stroke-width="1"/>
</svg>