<?xml version="1.0" encoding="UTF-8"?>
<svg xmlns="http://www.w3.org/2000/svg" viewBox="262.00 168.00 906.00 1624.00">
  <path d="M 384.00 954.00 L 388.00 914.00 L 394.00 877.00 L 402.00 843.00 L 404.00 823.00 L 400.00 817.00 L 401.00 815.00 L 407.00 817.00 L 404.00 815.00 L 392.00 809.00 L 392.00 807.00 L 404.00 809.00 L 405.00 807.00 L 395.00 801.00 L 396.00 800.00 L 408.00 804.00 L 408.00 802.00 L 396.00 794.00 L 393.00 781.00 L 399.00 763.00 L 402.00 745.00 L 402.00 727.00 L 389.00 682.00 L 363.00 610.00 L 347.00 555.00 L 341.00 517.00 L 341.00 477.00 L 347.00 435.00 L 353.00 403.00 L 359.00 381.00 L 370.00 355.00 L 386.00 325.00 L 401.00 302.00 L 415.00 286.00 L 442.00 264.00 L 482.00 236.00 L 519.00 215.00 L 553.00 201.00 L 576.00 193.00 L 588.00 191.00 L 612.00 189.00 L 648.00 187.00 L 675.00 184.00 L 693.00 180.00 L 721.00 178.00 L 759.00 178.00 L 799.00 187.00 L 841.00 205.00 L 867.00 215.00 L 877.00 217.00 L 895.00 226.00 L 921.00 242.00 L 947.00 262.00 L 973.00 286.00 L 992.00 307.00 L 1004.00 325.00 L 1019.00 355.00 L 1037.00 397.00 L 1047.00 426.00 L 1049.00 442.00 L 1048.00 459.00 L 1044.00 477.00 L 1046.00 493.00 L 1054.00 507.00 L 1067.00 525.00 L 1085.00 547.00 L 1100.00 571.00 L 1112.00 597.00 L 1106.00 626.00 L 1082.00 658.00 L 1084.00 660.00 L 1112.00 632.00 L 1111.00 634.00 L 1081.00 666.00 L 1082.00 669.00 L 1114.00 643.00 L 1114.00 646.00 L 1082.00 678.00 L 1083.00 680.00 L 1117.00 652.00 L 1128.00 644.00 L 1116.00 656.00 L 1115.00 659.00 L 1125.00 653.00 L 1115.00 664.00 L 1085.00 692.00 L 1071.00 711.00 L 1073.00 721.00 L 1071.00 731.00 L 1065.00 741.00 L 1063.00 751.00 L 1065.00 761.00 L 1062.00 771.00 L 1054.00 781.00 L 1051.00 805.00 L 1053.00 843.00 L 1050.00 869.00 L 1042.00 883.00 L 1032.00 895.00 L 1020.00 905.00 L 1016.00 913.00 L 1020.00 919.00 L 1021.00 928.00 L 1019.00 940.00 L 1012.00 949.00 L 1000.00 955.00 L 985.00 970.00 L 967.00 994.00 L 970.00 1010.00 L 994.00 1018.00 L 992.00 1020.00 L 964.00 1016.00 L 962.00 1016.00 L 986.00 1020.00 L 987.00 1021.00 L 965.00 1019.00 L 970.00 1022.00 L 1002.00 1030.00 L 1030.00 1052.00 L 1054.00 1088.00 L 1069.00 1109.00 L 1075.00 1115.00 L 1089.00 1124.00 L 1111.00 1136.00 L 1116.00 1140.00 L 1104.00 1136.00 L 1107.00 1138.00 L 1125.00 1146.00 L 1127.00 1147.00 L 1113.00 1141.00 L 1113.00 1143.00 L 1127.00 1153.00 L 1128.00 1160.00 L 1116.00 1164.00 L 1073.00 1147.00 L 999.00 1109.00 L 996.00 1109.00 L 1064.00 1147.00 L 1065.00 1149.00 L 999.00 1115.00 L 997.00 1116.00 L 1059.00 1152.00 L 1060.00 1154.00 L 1000.00 1122.00 L 994.00 1121.00 L 1042.00 1151.00 L 1043.00 1153.00 L 997.00 1127.00 L 993.00 1126.00 L 1031.00 1150.00 L 1032.00 1152.00 L 996.00 1132.00 L 983.00 1135.00 L 993.00 1161.00 L 1014.00 1200.00 L 1046.00 1252.00 L 1070.00 1304.00 L 1086.00 1356.00 L 1100.00 1395.00 L 1112.00 1421.00 L 1125.00 1460.00 L 1139.00 1512.00 L 1149.00 1556.00 L 1155.00 1592.00 L 1158.00 1626.00 L 1158.00 1658.00 L 1155.00 1686.00 L 1149.00 1710.00 L 1143.00 1727.00 L 1137.00 1737.00 L 1128.00 1748.00 L 1116.00 1760.00 L 1099.00 1770.00 L 1077.00 1778.00 L 1061.00 1782.00 L 1051.00 1782.00 L 1035.00 1778.00 L 1013.00 1770.00 L 983.00 1753.00 L 945.00 1727.00 L 917.00 1705.00 L 899.00 1687.00 L 865.00 1660.00 L 815.00 1624.00 L 738.00 1575.00 L 634.00 1513.00 L 533.00 1462.00 L 435.00 1422.00 L 359.00 1398.00 L 305.00 1390.00 L 276.00 1384.00 L 272.00 1380.00 L 274.00 1359.00 L 282.00 1321.00 L 294.00 1275.00 L 310.00 1221.00 L 329.00 1173.00 L 351.00 1131.00 L 370.00 1090.00 L 386.00 1050.00 L 391.00 1019.00 L 385.00 997.00 L 382.00 983.00 L 382.00 977.00 L 384.00 954.00 Z" fill="black" stroke="black" stroke-width="1"/>
</svg>