<?xml version="1.0" encoding="UTF-8"?>
<svg xmlns="http://www.w3.org/2000/svg" viewBox="395.00 231.00 765.00 1527.00">
  <path d="M 595.00 929.00 L 597.00 891.00 L 591.00 861.00 L 577.00 839.00 L 573.00 829.00 L 579.00 831.00 L 577.00 829.00 L 567.00 823.00 L 554.00 806.00 L 538.00 778.00 L 512.00 750.00 L 476.00 722.00 L 475.00 720.00 L 509.00 744.00 L 502.00 737.00 L 454.00 699.00 L 453.00 696.00 L 499.00 728.00 L 495.00 721.00 L 441.00 675.00 L 411.00 627.00 L 405.00 577.00 L 408.00 535.00 L 420.00 501.00 L 428.00 466.00 L 432.00 430.00 L 444.00 393.00 L 464.00 355.00 L 491.00 324.00 L 525.00 300.00 L 561.00 286.00 L 599.00 282.00 L 632.00 268.00 L 660.00 244.00 L 681.00 241.00 L 695.00 259.00 L 719.00 263.00 L 753.00 253.00 L 772.00 265.00 L 776.00 299.00 L 778.00 300.00 L 778.00 268.00 L 780.00 269.00 L 784.00 303.00 L 786.00 303.00 L 786.00 269.00 L 789.00 269.00 L 795.00 303.00 L 798.00 304.00 L 798.00 272.00 L 800.00 272.00 L 804.00 304.00 L 806.00 306.00 L 806.00 278.00 L 807.00 266.00 L 809.00 270.00 L 810.00 285.00 L 810.00 311.00 L 811.00 314.00 L 813.00 294.00 L 816.00 294.00 L 820.00 314.00 L 848.00 330.00 L 900.00 342.00 L 947.00 360.00 L 989.00 384.00 L 1025.00 412.00 L 1055.00 444.00 L 1069.00 467.00 L 1067.00 481.00 L 1069.00 484.00 L 1075.00 476.00 L 1076.00 478.00 L 1072.00 490.00 L 1074.00 492.00 L 1082.00 484.00 L 1083.00 489.00 L 1077.00 507.00 L 1080.00 510.00 L 1092.00 498.00 L 1093.00 500.00 L 1083.00 516.00 L 1081.00 520.00 L 1087.00 512.00 L 1088.00 515.00 L 1084.00 529.00 L 1088.00 527.00 L 1100.00 509.00 L 1100.00 515.00 L 1088.00 545.00 L 1090.00 549.00 L 1106.00 527.00 L 1106.00 529.00 L 1090.00 555.00 L 1090.00 557.00 L 1106.00 535.00 L 1106.00 537.00 L 1090.00 563.00 L 1091.00 565.00 L 1109.00 543.00 L 1109.00 545.00 L 1091.00 571.00 L 1091.00 572.00 L 1109.00 548.00 L 1116.00 540.00 L 1112.00 548.00 L 1112.00 550.00 L 1116.00 546.00 L 1109.00 557.00 L 1091.00 583.00 L 1091.00 586.00 L 1109.00 566.00 L 1109.00 568.00 L 1091.00 592.00 L 1082.00 613.00 L 1082.00 631.00 L 1102.00 671.00 L 1142.00 733.00 L 1150.00 774.00 L 1126.00 794.00 L 1116.00 812.00 L 1120.00 828.00 L 1118.00 842.00 L 1110.00 854.00 L 1108.00 865.00 L 1112.00 875.00 L 1109.00 886.00 L 1099.00 898.00 L 1093.00 919.00 L 1091.00 949.00 L 1082.00 971.00 L 1066.00 985.00 L 1029.00 1000.00 L 971.00 1016.00 L 935.00 1036.00 L 921.00 1060.00 L 912.00 1082.00 L 908.00 1102.00 L 961.00 1217.00 L 1071.00 1427.00 L 1070.00 1432.00 L 958.00 1232.00 L 960.00 1237.00 L 1076.00 1447.00 L 1108.00 1506.00 L 1056.00 1414.00 L 1057.00 1417.00 L 1111.00 1515.00 L 1104.00 1504.00 L 1036.00 1384.00 L 1036.00 1389.00 L 1104.00 1519.00 L 1099.00 1512.00 L 1021.00 1368.00 L 1021.00 1371.00 L 1099.00 1521.00 L 1097.00 1518.00 L 1015.00 1362.00 L 1015.00 1364.00 L 1097.00 1524.00 L 1096.00 1523.00 L 1012.00 1361.00 L 1012.00 1363.00 L 1096.00 1529.00 L 1078.00 1495.00 L 958.00 1261.00 L 957.00 1264.00 L 1075.00 1504.00 L 1134.00 1626.00 L 1134.00 1630.00 L 1076.00 1514.00 L 960.00 1278.00 L 959.00 1280.00 L 1073.00 1520.00 L 1072.00 1519.00 L 956.00 1277.00 L 956.00 1279.00 L 1072.00 1525.00 L 1073.00 1528.00 L 959.00 1288.00 L 958.00 1291.00 L 1070.00 1537.00 L 1072.00 1543.00 L 964.00 1309.00 L 963.00 1311.00 L 1069.00 1549.00 L 1114.00 1682.00 L 1098.00 1710.00 L 1081.00 1732.00 L 1063.00 1748.00 L 1023.00 1734.00 L 961.00 1690.00 L 908.00 1660.00 L 864.00 1644.00 L 833.00 1626.00 L 815.00 1606.00 L 805.00 1600.00 L 803.00 1608.00 L 801.00 1609.00 L 799.00 1603.00 L 788.00 1598.00 L 768.00 1594.00 L 722.00 1575.00 L 650.00 1541.00 L 574.00 1514.00 L 494.00 1494.00 L 463.00 1445.00 L 481.00 1367.00 L 504.00 1286.00 L 532.00 1202.00 L 549.00 1133.00 L 555.00 1079.00 L 567.00 1029.00 L 585.00 983.00 L 594.00 957.00 L 594.00 951.00 L 595.00 929.00 Z" fill="black" stroke="black" stroke-width="1"/>
</svg>