<?xml version="1.0" encoding="UTF-8"?>
<svg xmlns="http://www.w3.org/2000/svg" viewBox="190.00 185.00 1102.00 1653.00">
  <path d="M 514.00 920.00 L 534.00 908.00 L 547.00 896.00 L 553.00 884.00 L 544.00 874.00 L 520.00 866.00 L 518.00 864.00 L 538.00 868.00 L 535.00 865.00 L 509.00 855.00 L 492.00 845.00 L 484.00 835.00 L 464.00 824.00 L 432.00 812.00 L 431.00 811.00 L 461.00 821.00 L 444.00 814.00 L 380.00 790.00 L 378.00 788.00 L 438.00 808.00 L 435.00 806.00 L 369.00 782.00 L 324.00 755.00 L 300.00 725.00 L 281.00 689.00 L 267.00 647.00 L 255.00 621.00 L 245.00 611.00 L 244.00 608.00 L 252.00 612.00 L 243.00 603.00 L 217.00 581.00 L 213.00 575.00 L 231.00 585.00 L 230.00 581.00 L 210.00 563.00 L 200.00 542.00 L 200.00 518.00 L 219.00 469.00 L 257.00 395.00 L 302.00 335.00 L 354.00 289.00 L 418.00 247.00 L 494.00 209.00 L 573.00 195.00 L 655.00 205.00 L 715.00 221.00 L 753.00 243.00 L 775.00 251.00 L 781.00 245.00 L 784.00 246.00 L 784.00 254.00 L 790.00 246.00 L 802.00 222.00 L 817.00 207.00 L 835.00 201.00 L 857.00 200.00 L 883.00 204.00 L 911.00 214.00 L 941.00 230.00 L 952.00 262.00 L 944.00 310.00 L 947.00 310.00 L 961.00 262.00 L 963.00 264.00 L 953.00 316.00 L 957.00 314.00 L 975.00 258.00 L 976.00 259.00 L 960.00 317.00 L 961.00 320.00 L 979.00 268.00 L 981.00 269.00 L 967.00 323.00 L 966.00 337.00 L 978.00 311.00 L 980.00 313.00 L 972.00 343.00 L 975.00 344.00 L 989.00 316.00 L 991.00 319.00 L 981.00 353.00 L 984.00 353.00 L 1000.00 319.00 L 1003.00 319.00 L 993.00 353.00 L 995.00 354.00 L 1009.00 322.00 L 1010.00 326.00 L 998.00 366.00 L 1000.00 367.00 L 1016.00 329.00 L 1018.00 327.00 L 1006.00 361.00 L 1009.00 363.00 L 1027.00 333.00 L 1028.00 337.00 L 1012.00 375.00 L 1006.00 395.00 L 1010.00 397.00 L 1021.00 381.00 L 1039.00 347.00 L 1041.00 348.00 L 1027.00 384.00 L 1031.00 386.00 L 1053.00 354.00 L 1057.00 357.00 L 1043.00 395.00 L 1045.00 397.00 L 1063.00 363.00 L 1070.00 354.00 L 1066.00 370.00 L 1069.00 370.00 L 1079.00 354.00 L 1075.00 365.00 L 1057.00 403.00 L 1060.00 402.00 L 1084.00 362.00 L 1093.00 349.00 L 1087.00 363.00 L 1088.00 366.00 L 1096.00 358.00 L 1090.00 374.00 L 1070.00 414.00 L 1071.00 440.00 L 1093.00 452.00 L 1101.00 467.00 L 1095.00 485.00 L 1102.00 512.00 L 1122.00 548.00 L 1131.00 581.00 L 1129.00 611.00 L 1150.00 654.00 L 1194.00 710.00 L 1214.00 745.00 L 1210.00 759.00 L 1193.00 774.00 L 1163.00 790.00 L 1151.00 806.00 L 1157.00 822.00 L 1158.00 834.00 L 1154.00 842.00 L 1155.00 852.00 L 1161.00 864.00 L 1163.00 878.00 L 1161.00 894.00 L 1164.00 911.00 L 1172.00 929.00 L 1174.00 951.00 L 1170.00 977.00 L 1142.00 1008.00 L 1090.00 1044.00 L 1037.00 1073.00 L 983.00 1095.00 L 1007.00 1156.00 L 1109.00 1256.00 L 1141.00 1288.00 L 1103.00 1252.00 L 1109.00 1259.00 L 1159.00 1309.00 L 1154.00 1305.00 L 1094.00 1247.00 L 1099.00 1254.00 L 1169.00 1326.00 L 1162.00 1320.00 L 1078.00 1236.00 L 1081.00 1241.00 L 1171.00 1335.00 L 1167.00 1332.00 L 1069.00 1232.00 L 1071.00 1236.00 L 1173.00 1344.00 L 1169.00 1341.00 L 1059.00 1227.00 L 1062.00 1232.00 L 1178.00 1356.00 L 1164.00 1342.00 L 1020.00 1190.00 L 1022.00 1193.00 L 1170.00 1351.00 L 1245.00 1433.00 L 1247.00 1439.00 L 1182.00 1371.00 L 1050.00 1229.00 L 1051.00 1231.00 L 1185.00 1377.00 L 1182.00 1374.00 L 1042.00 1222.00 L 1044.00 1227.00 L 1188.00 1389.00 L 1185.00 1387.00 L 1035.00 1221.00 L 1036.00 1224.00 L 1188.00 1396.00 L 1184.00 1392.00 L 1024.00 1212.00 L 1024.00 1214.00 L 1184.00 1398.00 L 1185.00 1400.00 L 1027.00 1220.00 L 1029.00 1226.00 L 1191.00 1418.00 L 1275.00 1528.00 L 1281.00 1556.00 L 1282.00 1594.00 L 1278.00 1642.00 L 1268.00 1683.00 L 1252.00 1717.00 L 1222.00 1756.00 L 1178.00 1800.00 L 1153.00 1824.00 L 1147.00 1828.00 L 1111.00 1804.00 L 1045.00 1752.00 L 938.00 1684.00 L 790.00 1600.00 L 660.00 1534.00 L 548.00 1486.00 L 440.00 1448.00 L 336.00 1420.00 L 277.00 1401.00 L 263.00 1391.00 L 262.00 1358.00 L 274.00 1302.00 L 300.00 1226.00 L 340.00 1130.00 L 393.00 1046.00 L 459.00 974.00 L 495.00 935.00 L 501.00 929.00 L 514.00 920.00 Z" fill="black" stroke="black" stroke-width="1"/>
</svg>