<?xml version="1.0" encoding="UTF-8"?>
<svg xmlns="http://www.w3.org/2000/svg" viewBox="316.00 252.00 812.00 1510.00">
  <path d="M 493.00 930.00 L 499.00 882.00 L 489.00 837.00 L 463.00 795.00 L 435.00 759.00 L 405.00 729.00 L 384.00 688.00 L 372.00 636.00 L 355.00 596.00 L 333.00 568.00 L 326.00 521.00 L 334.00 455.00 L 348.00 403.00 L 368.00 365.00 L 388.00 338.00 L 408.00 322.00 L 430.00 316.00 L 454.00 320.00 L 473.00 310.00 L 487.00 286.00 L 498.00 278.00 L 506.00 286.00 L 509.00 287.00 L 507.00 281.00 L 510.00 280.00 L 518.00 284.00 L 545.00 280.00 L 591.00 268.00 L 639.00 262.00 L 689.00 262.00 L 740.00 266.00 L 792.00 274.00 L 835.00 284.00 L 869.00 296.00 L 905.00 310.00 L 943.00 326.00 L 979.00 346.00 L 1013.00 370.00 L 1040.00 398.00 L 1060.00 430.00 L 1067.00 453.00 L 1061.00 467.00 L 1062.00 469.00 L 1070.00 459.00 L 1070.00 462.00 L 1062.00 478.00 L 1063.00 480.00 L 1073.00 468.00 L 1074.00 472.00 L 1066.00 492.00 L 1069.00 495.00 L 1083.00 481.00 L 1084.00 484.00 L 1072.00 504.00 L 1073.00 507.00 L 1087.00 493.00 L 1088.00 497.00 L 1076.00 519.00 L 1077.00 521.00 L 1091.00 503.00 L 1091.00 505.00 L 1077.00 527.00 L 1078.00 531.00 L 1094.00 517.00 L 1095.00 520.00 L 1081.00 540.00 L 1076.00 548.00 L 1080.00 544.00 L 1080.00 546.00 L 1076.00 554.00 L 1081.00 549.00 L 1095.00 531.00 L 1095.00 538.00 L 1081.00 570.00 L 1081.00 579.00 L 1095.00 565.00 L 1095.00 568.00 L 1081.00 588.00 L 1081.00 590.00 L 1095.00 574.00 L 1094.00 579.00 L 1078.00 605.00 L 1079.00 608.00 L 1097.00 588.00 L 1097.00 590.00 L 1079.00 614.00 L 1080.00 616.00 L 1100.00 596.00 L 1099.00 598.00 L 1077.00 622.00 L 1077.00 624.00 L 1099.00 604.00 L 1099.00 607.00 L 1077.00 633.00 L 1066.00 650.00 L 1066.00 658.00 L 1082.00 689.00 L 1114.00 743.00 L 1118.00 784.00 L 1094.00 812.00 L 1084.00 834.00 L 1088.00 850.00 L 1080.00 878.00 L 1060.00 918.00 L 1048.00 956.00 L 1044.00 992.00 L 1034.00 1016.00 L 1018.00 1028.00 L 979.00 1038.00 L 917.00 1046.00 L 875.00 1060.00 L 853.00 1080.00 L 899.00 1183.00 L 1013.00 1369.00 L 1068.00 1459.00 L 1064.00 1453.00 L 1065.00 1456.00 L 1071.00 1468.00 L 1064.00 1458.00 L 1044.00 1426.00 L 1047.00 1431.00 L 1073.00 1473.00 L 1068.00 1466.00 L 1032.00 1410.00 L 1033.00 1413.00 L 1071.00 1475.00 L 1069.00 1472.00 L 1027.00 1404.00 L 1029.00 1409.00 L 1075.00 1487.00 L 1033.00 1419.00 L 903.00 1205.00 L 903.00 1208.00 L 1033.00 1428.00 L 1099.00 1541.00 L 1101.00 1547.00 L 1068.00 1493.00 L 1000.00 1379.00 L 1000.00 1380.00 L 1068.00 1496.00 L 1065.00 1492.00 L 991.00 1368.00 L 991.00 1370.00 L 1065.00 1498.00 L 1064.00 1497.00 L 988.00 1367.00 L 989.00 1372.00 L 1067.00 1512.00 L 1061.00 1504.00 L 971.00 1348.00 L 971.00 1351.00 L 1061.00 1513.00 L 1060.00 1512.00 L 968.00 1348.00 L 968.00 1350.00 L 1060.00 1518.00 L 1038.00 1478.00 L 902.00 1230.00 L 902.00 1233.00 L 1038.00 1487.00 L 1054.00 1519.00 L 950.00 1329.00 L 949.00 1332.00 L 1051.00 1528.00 L 1048.00 1524.00 L 940.00 1320.00 L 939.00 1322.00 L 1045.00 1530.00 L 1097.00 1637.00 L 1095.00 1643.00 L 1039.00 1535.00 L 929.00 1313.00 L 928.00 1315.00 L 1036.00 1541.00 L 1025.00 1520.00 L 895.00 1252.00 L 894.00 1255.00 L 1022.00 1529.00 L 1027.00 1542.00 L 909.00 1294.00 L 907.00 1296.00 L 1021.00 1548.00 L 1019.00 1545.00 L 901.00 1287.00 L 899.00 1290.00 L 1013.00 1554.00 L 1009.00 1546.00 L 887.00 1266.00 L 886.00 1268.00 L 1006.00 1552.00 L 1006.00 1554.00 L 886.00 1274.00 L 882.00 1278.00 L 994.00 1566.00 L 1044.00 1716.00 L 1032.00 1728.00 L 1014.00 1740.00 L 990.00 1752.00 L 918.00 1714.00 L 798.00 1626.00 L 699.00 1562.00 L 621.00 1522.00 L 549.00 1491.00 L 483.00 1469.00 L 417.00 1454.00 L 351.00 1446.00 L 326.00 1411.00 L 342.00 1349.00 L 364.00 1289.00 L 392.00 1231.00 L 412.00 1174.00 L 424.00 1118.00 L 444.00 1059.00 L 472.00 997.00 L 487.00 963.00 L 489.00 957.00 L 493.00 930.00 Z" fill="black" stroke="black" stroke-width="1"/>
</svg>