<?xml version="1.0" encoding="UTF-8"?>
<svg xmlns="http://www.w3.org/2000/svg" viewBox="330.00 198.00 897.00 1634.00">
  <path d="M 459.00 1016.00 L 453.00 1004.00 L 449.00 985.00 L 447.00 959.00 L 449.00 910.00 L 455.00 838.00 L 461.00 794.00 L 467.00 778.00 L 467.00 766.00 L 461.00 758.00 L 461.00 756.00 L 467.00 760.00 L 463.00 756.00 L 449.00 744.00 L 439.00 730.00 L 433.00 714.00 L 422.00 662.00 L 406.00 574.00 L 406.00 499.00 L 422.00 437.00 L 449.00 382.00 L 487.00 334.00 L 518.00 299.00 L 542.00 277.00 L 579.00 258.00 L 629.00 242.00 L 660.00 229.00 L 672.00 219.00 L 690.00 212.00 L 714.00 208.00 L 745.00 211.00 L 783.00 221.00 L 818.00 225.00 L 850.00 223.00 L 876.00 226.00 L 896.00 234.00 L 916.00 248.00 L 936.00 268.00 L 957.00 285.00 L 979.00 299.00 L 1008.00 324.00 L 1044.00 360.00 L 1062.00 384.00 L 1062.00 396.00 L 1064.00 397.00 L 1068.00 387.00 L 1069.00 389.00 L 1067.00 403.00 L 1070.00 405.00 L 1078.00 395.00 L 1079.00 398.00 L 1073.00 414.00 L 1071.00 423.00 L 1073.00 425.00 L 1078.00 420.00 L 1086.00 408.00 L 1087.00 411.00 L 1081.00 429.00 L 1082.00 430.00 L 1090.00 414.00 L 1091.00 416.00 L 1085.00 436.00 L 1086.00 438.00 L 1094.00 422.00 L 1095.00 425.00 L 1089.00 447.00 L 1090.00 450.00 L 1098.00 434.00 L 1099.00 436.00 L 1093.00 456.00 L 1095.00 477.00 L 1105.00 499.00 L 1109.00 526.00 L 1107.00 558.00 L 1111.00 583.00 L 1121.00 601.00 L 1141.00 625.00 L 1171.00 655.00 L 1188.00 675.00 L 1192.00 685.00 L 1194.00 693.00 L 1194.00 699.00 L 1185.00 711.00 L 1167.00 729.00 L 1166.00 732.00 L 1182.00 720.00 L 1180.00 723.00 L 1160.00 741.00 L 1155.00 746.00 L 1165.00 738.00 L 1164.00 741.00 L 1152.00 755.00 L 1148.00 772.00 L 1152.00 792.00 L 1146.00 809.00 L 1130.00 823.00 L 1123.00 832.00 L 1125.00 836.00 L 1120.00 844.00 L 1108.00 856.00 L 1101.00 865.00 L 1099.00 871.00 L 1101.00 882.00 L 1107.00 898.00 L 1108.00 913.00 L 1104.00 927.00 L 1095.00 941.00 L 1081.00 955.00 L 1069.00 964.00 L 1059.00 968.00 L 1058.00 971.00 L 1066.00 973.00 L 1066.00 975.00 L 1058.00 977.00 L 1061.00 977.00 L 1075.00 975.00 L 1083.00 977.00 L 1085.00 983.00 L 1068.00 1011.00 L 1032.00 1061.00 L 1014.00 1092.00 L 1014.00 1104.00 L 1016.00 1112.00 L 1020.00 1116.00 L 1037.00 1126.00 L 1067.00 1142.00 L 1066.00 1143.00 L 1034.00 1129.00 L 1037.00 1132.00 L 1075.00 1152.00 L 1097.00 1167.00 L 1103.00 1177.00 L 1119.00 1190.00 L 1145.00 1206.00 L 1124.00 1197.00 L 1056.00 1163.00 L 1053.00 1165.00 L 1115.00 1203.00 L 1117.00 1205.00 L 1059.00 1171.00 L 1032.00 1157.00 L 1036.00 1163.00 L 1062.00 1181.00 L 1110.00 1211.00 L 1106.00 1209.00 L 1050.00 1175.00 L 1048.00 1175.00 L 1100.00 1209.00 L 1105.00 1213.00 L 1063.00 1187.00 L 1060.00 1187.00 L 1096.00 1213.00 L 1091.00 1211.00 L 1045.00 1181.00 L 1043.00 1181.00 L 1085.00 1211.00 L 1086.00 1214.00 L 1046.00 1190.00 L 1039.00 1188.00 L 1065.00 1208.00 L 1066.00 1210.00 L 1042.00 1194.00 L 1033.00 1200.00 L 1039.00 1228.00 L 1067.00 1285.00 L 1117.00 1371.00 L 1141.00 1413.00 L 1139.00 1411.00 L 1149.00 1436.00 L 1171.00 1488.00 L 1189.00 1539.00 L 1203.00 1589.00 L 1212.00 1626.00 L 1216.00 1650.00 L 1217.00 1675.00 L 1215.00 1701.00 L 1213.00 1719.00 L 1211.00 1729.00 L 1201.00 1749.00 L 1183.00 1779.00 L 1161.00 1801.00 L 1135.00 1815.00 L 1117.00 1822.00 L 1107.00 1822.00 L 1088.00 1815.00 L 1060.00 1801.00 L 1009.00 1769.00 L 935.00 1719.00 L 860.00 1676.00 L 784.00 1640.00 L 745.00 1620.00 L 743.00 1616.00 L 740.00 1615.00 L 736.00 1617.00 L 708.00 1608.00 L 656.00 1588.00 L 599.00 1570.00 L 537.00 1554.00 L 488.00 1544.00 L 452.00 1540.00 L 427.00 1535.00 L 413.00 1529.00 L 388.00 1525.00 L 352.00 1523.00 L 340.00 1470.00 L 352.00 1366.00 L 365.00 1292.00 L 379.00 1248.00 L 396.00 1207.00 L 416.00 1169.00 L 428.00 1136.00 L 432.00 1108.00 L 439.00 1079.00 L 449.00 1049.00 L 456.00 1031.00 L 460.00 1025.00 L 459.00 1016.00 Z" fill="black" stroke="black" stroke-width="1"/>
</svg>