<?xml version="1.0" encoding="UTF-8"?>
<svg xmlns="http://www.w3.org/2000/svg" viewBox="364.00 236.00 851.00 1572.00">
  <path d="M 497.00 997.00 L 503.00 963.00 L 512.00 931.00 L 524.00 901.00 L 523.00 880.00 L 509.00 868.00 L 510.00 865.00 L 526.00 871.00 L 526.00 868.00 L 510.00 856.00 L 502.00 839.00 L 502.00 817.00 L 495.00 786.00 L 481.00 746.00 L 473.00 708.00 L 471.00 672.00 L 468.00 643.00 L 464.00 621.00 L 462.00 586.00 L 462.00 538.00 L 468.00 491.00 L 480.00 445.00 L 495.00 407.00 L 513.00 377.00 L 533.00 351.00 L 555.00 329.00 L 573.00 313.00 L 587.00 303.00 L 618.00 288.00 L 666.00 268.00 L 706.00 255.00 L 738.00 249.00 L 788.00 246.00 L 856.00 246.00 L 895.00 247.00 L 905.00 249.00 L 929.00 256.00 L 967.00 268.00 L 993.00 277.00 L 1007.00 283.00 L 1021.00 291.00 L 1035.00 301.00 L 1047.00 313.00 L 1057.00 327.00 L 1067.00 338.00 L 1077.00 346.00 L 1092.00 368.00 L 1112.00 404.00 L 1122.00 425.00 L 1122.00 431.00 L 1128.00 450.00 L 1140.00 482.00 L 1145.00 519.00 L 1143.00 561.00 L 1150.00 599.00 L 1166.00 633.00 L 1181.00 660.00 L 1195.00 680.00 L 1203.00 694.00 L 1205.00 702.00 L 1193.00 719.00 L 1167.00 745.00 L 1167.00 748.00 L 1193.00 728.00 L 1193.00 729.00 L 1167.00 751.00 L 1166.00 753.00 L 1190.00 735.00 L 1190.00 738.00 L 1166.00 762.00 L 1154.00 784.00 L 1154.00 804.00 L 1152.00 817.00 L 1148.00 823.00 L 1147.00 827.00 L 1149.00 829.00 L 1150.00 836.00 L 1150.00 848.00 L 1147.00 861.00 L 1141.00 875.00 L 1140.00 885.00 L 1144.00 891.00 L 1145.00 907.00 L 1143.00 933.00 L 1137.00 953.00 L 1127.00 967.00 L 1112.00 978.00 L 1092.00 986.00 L 1086.00 995.00 L 1094.00 1005.00 L 1098.00 1012.00 L 1098.00 1016.00 L 1090.00 1023.00 L 1074.00 1033.00 L 1063.00 1042.00 L 1057.00 1050.00 L 1060.00 1058.00 L 1072.00 1066.00 L 1071.00 1069.00 L 1057.00 1067.00 L 1058.00 1069.00 L 1074.00 1075.00 L 1072.00 1076.00 L 1052.00 1072.00 L 1052.00 1074.00 L 1072.00 1082.00 L 1078.00 1090.00 L 1070.00 1098.00 L 1061.00 1102.00 L 1051.00 1102.00 L 1053.00 1107.00 L 1067.00 1117.00 L 1077.00 1129.00 L 1083.00 1143.00 L 1072.00 1143.00 L 1044.00 1129.00 L 1045.00 1132.00 L 1075.00 1152.00 L 1078.00 1156.00 L 1054.00 1144.00 L 1054.00 1145.00 L 1078.00 1159.00 L 1074.00 1157.00 L 1042.00 1139.00 L 1052.00 1147.00 L 1104.00 1181.00 L 1105.00 1184.00 L 1055.00 1156.00 L 1054.00 1159.00 L 1102.00 1193.00 L 1107.00 1198.00 L 1069.00 1174.00 L 1067.00 1174.00 L 1101.00 1198.00 L 1097.00 1196.00 L 1055.00 1168.00 L 1053.00 1168.00 L 1091.00 1196.00 L 1091.00 1197.00 L 1053.00 1171.00 L 1051.00 1171.00 L 1085.00 1197.00 L 1086.00 1199.00 L 1054.00 1177.00 L 1051.00 1176.00 L 1077.00 1196.00 L 1077.00 1199.00 L 1051.00 1185.00 L 1038.00 1188.00 L 1038.00 1208.00 L 1049.00 1242.00 L 1071.00 1290.00 L 1081.00 1313.00 L 1079.00 1311.00 L 1089.00 1340.00 L 1111.00 1400.00 L 1128.00 1470.00 L 1140.00 1550.00 L 1146.00 1607.00 L 1146.00 1641.00 L 1144.00 1669.00 L 1140.00 1691.00 L 1133.00 1714.00 L 1123.00 1738.00 L 1111.00 1759.00 L 1097.00 1777.00 L 1082.00 1789.00 L 1066.00 1795.00 L 1052.00 1798.00 L 1040.00 1798.00 L 1025.00 1794.00 L 1007.00 1786.00 L 982.00 1768.00 L 950.00 1740.00 L 927.00 1719.00 L 913.00 1705.00 L 903.00 1693.00 L 897.00 1683.00 L 886.00 1672.00 L 870.00 1660.00 L 842.00 1641.00 L 802.00 1615.00 L 747.00 1584.00 L 677.00 1548.00 L 635.00 1525.00 L 621.00 1515.00 L 611.00 1510.00 L 605.00 1510.00 L 568.00 1499.00 L 500.00 1477.00 L 446.00 1463.00 L 406.00 1457.00 L 382.00 1452.00 L 374.00 1448.00 L 378.00 1415.00 L 394.00 1353.00 L 404.00 1319.00 L 408.00 1313.00 L 412.00 1302.00 L 416.00 1286.00 L 427.00 1260.00 L 445.00 1224.00 L 458.00 1187.00 L 466.00 1149.00 L 476.00 1118.00 L 488.00 1094.00 L 493.00 1078.00 L 491.00 1070.00 L 490.00 1056.00 L 490.00 1036.00 L 491.00 1025.00 L 493.00 1023.00 L 494.00 1020.00 L 494.00 1016.00 L 497.00 997.00 Z" fill="black" stroke="black" stroke-width="1"/>
</svg>