<?xml version="1.0" encoding="UTF-8"?>
<svg xmlns="http://www.w3.org/2000/svg" viewBox="452.00 250.00 774.00 1237.00">
  <path d="M 545.00 896.00 L 535.00 892.00 L 536.00 890.00 L 548.00 890.00 L 546.00 888.00 L 530.00 884.00 L 531.00 881.00 L 549.00 879.00 L 548.00 877.00 L 528.00 875.00 L 529.00 874.00 L 551.00 874.00 L 550.00 871.00 L 526.00 865.00 L 527.00 862.00 L 553.00 862.00 L 552.00 860.00 L 524.00 856.00 L 525.00 855.00 L 555.00 857.00 L 555.00 854.00 L 525.00 846.00 L 524.00 844.00 L 552.00 848.00 L 551.00 845.00 L 521.00 835.00 L 505.00 811.00 L 503.00 773.00 L 492.00 712.00 L 472.00 628.00 L 462.00 566.00 L 462.00 526.00 L 470.00 482.00 L 486.00 434.00 L 514.00 385.00 L 554.00 335.00 L 588.00 302.00 L 616.00 286.00 L 647.00 273.00 L 681.00 263.00 L 735.00 260.00 L 809.00 264.00 L 852.00 264.00 L 864.00 260.00 L 914.00 276.00 L 1002.00 312.00 L 1065.00 343.00 L 1103.00 369.00 L 1134.00 395.00 L 1158.00 421.00 L 1182.00 455.00 L 1206.00 497.00 L 1210.00 529.00 L 1194.00 551.00 L 1194.00 555.00 L 1210.00 541.00 L 1209.00 544.00 L 1191.00 564.00 L 1191.00 565.00 L 1209.00 547.00 L 1209.00 549.00 L 1191.00 571.00 L 1192.00 573.00 L 1212.00 555.00 L 1211.00 560.00 L 1189.00 588.00 L 1187.00 594.00 L 1205.00 578.00 L 1204.00 580.00 L 1184.00 600.00 L 1187.00 599.00 L 1213.00 577.00 L 1213.00 580.00 L 1187.00 608.00 L 1188.00 612.00 L 1216.00 592.00 L 1216.00 594.00 L 1188.00 618.00 L 1187.00 619.00 L 1213.00 597.00 L 1212.00 600.00 L 1184.00 628.00 L 1184.00 631.00 L 1212.00 609.00 L 1211.00 611.00 L 1181.00 637.00 L 1165.00 656.00 L 1163.00 668.00 L 1176.00 710.00 L 1204.00 782.00 L 1207.00 827.00 L 1185.00 845.00 L 1174.00 867.00 L 1174.00 893.00 L 1168.00 910.00 L 1156.00 918.00 L 1152.00 926.00 L 1156.00 934.00 L 1153.00 948.00 L 1143.00 968.00 L 1140.00 991.00 L 1144.00 1017.00 L 1143.00 1035.00 L 1137.00 1045.00 L 1122.00 1055.00 L 1098.00 1065.00 L 1060.00 1073.00 L 1008.00 1079.00 L 993.00 1098.00 L 1015.00 1130.00 L 1027.00 1148.00 L 1029.00 1152.00 L 1027.00 1150.00 L 1021.00 1142.00 L 1021.00 1143.00 L 1027.00 1153.00 L 1023.00 1150.00 L 1009.00 1134.00 L 1008.00 1136.00 L 1020.00 1156.00 L 1012.00 1147.00 L 984.00 1109.00 L 982.00 1111.00 L 1006.00 1153.00 L 1006.00 1155.00 L 982.00 1117.00 L 980.00 1119.00 L 1000.00 1161.00 L 997.00 1164.00 L 971.00 1128.00 L 983.00 1162.00 L 1033.00 1266.00 L 1037.00 1276.00 L 995.00 1192.00 L 995.00 1194.00 L 1037.00 1282.00 L 1036.00 1281.00 L 992.00 1191.00 L 1003.00 1220.00 L 1069.00 1368.00 L 1068.00 1368.00 L 1000.00 1220.00 L 1000.00 1223.00 L 1068.00 1377.00 L 1075.00 1394.00 L 1021.00 1274.00 L 1022.00 1281.00 L 1078.00 1415.00 L 1076.00 1413.00 L 1016.00 1275.00 L 1017.00 1282.00 L 1079.00 1434.00 L 1071.00 1418.00 L 993.00 1234.00 L 993.00 1236.00 L 1071.00 1424.00 L 1076.00 1437.00 L 1008.00 1275.00 L 1008.00 1282.00 L 1076.00 1458.00 L 1074.00 1457.00 L 1002.00 1279.00 L 1001.00 1281.00 L 1071.00 1463.00 L 1066.00 1453.00 L 986.00 1251.00 L 983.00 1250.00 L 1057.00 1450.00 L 1056.00 1448.00 L 980.00 1244.00 L 978.00 1242.00 L 1050.00 1442.00 L 1051.00 1446.00 L 981.00 1254.00 L 979.00 1253.00 L 1045.00 1443.00 L 1045.00 1445.00 L 979.00 1259.00 L 976.00 1257.00 L 1036.00 1439.00 L 1036.00 1443.00 L 976.00 1269.00 L 970.00 1265.00 L 1018.00 1431.00 L 1016.00 1430.00 L 964.00 1262.00 L 961.00 1260.00 L 1007.00 1424.00 L 974.00 1477.00 L 862.00 1419.00 L 768.00 1377.00 L 692.00 1351.00 L 623.00 1332.00 L 561.00 1320.00 L 527.00 1311.00 L 521.00 1305.00 L 515.00 1292.00 L 509.00 1272.00 L 508.00 1243.00 L 512.00 1205.00 L 511.00 1183.00 L 505.00 1177.00 L 509.00 1150.00 L 523.00 1102.00 L 527.00 1062.00 L 521.00 1030.00 L 525.00 987.00 L 539.00 933.00 L 547.00 904.00 L 549.00 900.00 L 545.00 896.00 Z" fill="black" stroke="black" stroke-width="1"/>
</svg>