<?xml version="1.0" encoding="UTF-8"?>
<svg xmlns="http://www.w3.org/2000/svg" viewBox="370.00 171.00 965.00 1536.00">
  <path d="M 725.00 903.00 L 691.00 897.00 L 686.00 894.00 L 710.00 894.00 L 708.00 893.00 L 680.00 891.00 L 685.00 891.00 L 723.00 893.00 L 740.00 893.00 L 736.00 891.00 L 714.00 887.00 L 674.00 881.00 L 675.00 880.00 L 717.00 884.00 L 669.00 873.00 L 531.00 847.00 L 464.00 834.00 L 468.00 834.00 L 466.00 833.00 L 458.00 831.00 L 464.00 831.00 L 484.00 833.00 L 482.00 831.00 L 458.00 825.00 L 461.00 824.00 L 491.00 828.00 L 488.00 826.00 L 452.00 818.00 L 483.00 823.00 L 581.00 841.00 L 579.00 839.00 L 477.00 817.00 L 471.00 815.00 L 561.00 833.00 L 560.00 832.00 L 468.00 812.00 L 450.00 807.00 L 506.00 817.00 L 504.00 815.00 L 444.00 801.00 L 446.00 801.00 L 510.00 815.00 L 508.00 813.00 L 440.00 795.00 L 399.00 761.00 L 385.00 711.00 L 380.00 651.00 L 384.00 581.00 L 398.00 517.00 L 422.00 459.00 L 447.00 419.00 L 473.00 397.00 L 495.00 371.00 L 513.00 341.00 L 537.00 313.00 L 567.00 287.00 L 601.00 266.00 L 639.00 250.00 L 683.00 238.00 L 733.00 230.00 L 774.00 217.00 L 806.00 199.00 L 836.00 187.00 L 864.00 181.00 L 905.00 182.00 L 959.00 190.00 L 986.00 210.00 L 986.00 242.00 L 989.00 243.00 L 995.00 213.00 L 997.00 215.00 L 995.00 249.00 L 998.00 249.00 L 1006.00 215.00 L 1008.00 215.00 L 1004.00 249.00 L 1006.00 250.00 L 1014.00 218.00 L 1017.00 219.00 L 1015.00 253.00 L 1017.00 256.00 L 1023.00 228.00 L 1026.00 229.00 L 1026.00 259.00 L 1054.00 283.00 L 1110.00 301.00 L 1159.00 326.00 L 1201.00 358.00 L 1221.00 388.00 L 1219.00 416.00 L 1220.00 427.00 L 1224.00 421.00 L 1226.00 425.00 L 1226.00 439.00 L 1229.00 442.00 L 1235.00 434.00 L 1236.00 436.00 L 1232.00 448.00 L 1233.00 450.00 L 1239.00 442.00 L 1239.00 444.00 L 1233.00 456.00 L 1234.00 457.00 L 1242.00 447.00 L 1243.00 450.00 L 1237.00 466.00 L 1238.00 469.00 L 1246.00 459.00 L 1247.00 464.00 L 1241.00 484.00 L 1242.00 489.00 L 1250.00 479.00 L 1250.00 480.00 L 1242.00 492.00 L 1242.00 495.00 L 1250.00 489.00 L 1250.00 497.00 L 1242.00 519.00 L 1238.00 544.00 L 1238.00 572.00 L 1258.00 620.00 L 1298.00 688.00 L 1317.00 729.00 L 1315.00 743.00 L 1302.00 756.00 L 1278.00 768.00 L 1265.00 789.00 L 1263.00 819.00 L 1253.00 852.00 L 1235.00 888.00 L 1228.00 919.00 L 1232.00 945.00 L 1231.00 963.00 L 1225.00 973.00 L 1191.00 995.00 L 1129.00 1029.00 L 1089.00 1063.00 L 1071.00 1097.00 L 1118.00 1195.00 L 1230.00 1357.00 L 1289.00 1443.00 L 1295.00 1453.00 L 1289.00 1446.00 L 1271.00 1422.00 L 1274.00 1428.00 L 1298.00 1464.00 L 1295.00 1461.00 L 1265.00 1419.00 L 1266.00 1422.00 L 1298.00 1470.00 L 1291.00 1461.00 L 1245.00 1395.00 L 1247.00 1399.00 L 1297.00 1473.00 L 1257.00 1414.00 L 1127.00 1222.00 L 1127.00 1224.00 L 1257.00 1420.00 L 1323.00 1521.00 L 1325.00 1527.00 L 1294.00 1482.00 L 1230.00 1386.00 L 1231.00 1389.00 L 1297.00 1491.00 L 1295.00 1489.00 L 1225.00 1383.00 L 1225.00 1385.00 L 1295.00 1495.00 L 1290.00 1489.00 L 1210.00 1367.00 L 1210.00 1370.00 L 1290.00 1498.00 L 1282.00 1487.00 L 1186.00 1337.00 L 1186.00 1339.00 L 1282.00 1493.00 L 1262.00 1462.00 L 1126.00 1246.00 L 1126.00 1249.00 L 1262.00 1471.00 L 1262.00 1472.00 L 1126.00 1252.00 L 1126.00 1254.00 L 1262.00 1478.00 L 1273.00 1497.00 L 1159.00 1311.00 L 1159.00 1313.00 L 1273.00 1503.00 L 1270.00 1499.00 L 1150.00 1301.00 L 1150.00 1303.00 L 1270.00 1505.00 L 1262.00 1492.00 L 1126.00 1264.00 L 1125.00 1266.00 L 1259.00 1498.00 L 1259.00 1500.00 L 1125.00 1272.00 L 1124.00 1274.00 L 1256.00 1506.00 L 1257.00 1508.00 L 1127.00 1280.00 L 1126.00 1283.00 L 1254.00 1517.00 L 1306.00 1649.00 L 1282.00 1679.00 L 1268.00 1695.00 L 1264.00 1697.00 L 1210.00 1663.00 L 1106.00 1593.00 L 1015.00 1538.00 L 937.00 1498.00 L 854.00 1462.00 L 766.00 1430.00 L 689.00 1407.00 L 623.00 1393.00 L 589.00 1381.00 L 587.00 1371.00 L 596.00 1330.00 L 616.00 1258.00 L 654.00 1145.00 L 710.00 991.00 L 739.00 912.00 L 741.00 908.00 L 725.00 903.00 Z" fill="black" stroke="black" stroke-width="1"/>
</svg>