<?xml version="1.0" encoding="UTF-8"?>
<svg xmlns="http://www.w3.org/2000/svg" viewBox="300.00 273.00 778.00 1483.00">
  <path d="M 533.00 928.00 L 531.00 900.00 L 485.00 866.00 L 395.00 826.00 L 393.00 824.00 L 479.00 860.00 L 476.00 858.00 L 384.00 818.00 L 381.00 816.00 L 467.00 852.00 L 460.00 846.00 L 360.00 798.00 L 356.00 794.00 L 448.00 834.00 L 447.00 831.00 L 353.00 785.00 L 353.00 784.00 L 447.00 828.00 L 446.00 825.00 L 350.00 775.00 L 342.00 769.00 L 422.00 807.00 L 422.00 804.00 L 342.00 760.00 L 348.00 763.00 L 440.00 813.00 L 439.00 810.00 L 345.00 754.00 L 344.00 751.00 L 436.00 801.00 L 437.00 798.00 L 347.00 742.00 L 340.00 737.00 L 416.00 783.00 L 416.00 780.00 L 340.00 728.00 L 342.00 727.00 L 422.00 777.00 L 423.00 776.00 L 345.00 724.00 L 310.00 693.00 L 318.00 683.00 L 318.00 663.00 L 310.00 633.00 L 310.00 597.00 L 318.00 555.00 L 320.00 510.00 L 316.00 462.00 L 317.00 438.00 L 323.00 438.00 L 327.00 432.00 L 329.00 420.00 L 336.00 409.00 L 348.00 399.00 L 361.00 400.00 L 375.00 412.00 L 381.00 416.00 L 379.00 412.00 L 381.00 410.00 L 387.00 410.00 L 408.00 392.00 L 444.00 356.00 L 476.00 330.00 L 504.00 314.00 L 547.00 300.00 L 605.00 288.00 L 664.00 283.00 L 724.00 285.00 L 769.00 290.00 L 799.00 298.00 L 836.00 316.00 L 880.00 344.00 L 917.00 375.00 L 947.00 409.00 L 964.00 430.00 L 968.00 438.00 L 968.00 448.00 L 964.00 460.00 L 966.00 463.00 L 974.00 457.00 L 975.00 460.00 L 969.00 472.00 L 970.00 474.00 L 978.00 466.00 L 980.00 467.00 L 976.00 477.00 L 977.00 479.00 L 983.00 473.00 L 983.00 476.00 L 977.00 488.00 L 978.00 490.00 L 986.00 482.00 L 987.00 485.00 L 981.00 499.00 L 982.00 500.00 L 990.00 488.00 L 990.00 490.00 L 982.00 506.00 L 983.00 508.00 L 993.00 496.00 L 994.00 497.00 L 986.00 511.00 L 986.00 513.00 L 994.00 503.00 L 996.00 503.00 L 992.00 513.00 L 993.00 515.00 L 999.00 509.00 L 998.00 512.00 L 990.00 524.00 L 991.00 526.00 L 1001.00 518.00 L 1001.00 521.00 L 991.00 535.00 L 991.00 538.00 L 1001.00 530.00 L 1002.00 533.00 L 994.00 547.00 L 995.00 549.00 L 1005.00 539.00 L 1005.00 541.00 L 995.00 555.00 L 990.00 564.00 L 990.00 568.00 L 995.00 564.00 L 1005.00 552.00 L 1005.00 554.00 L 995.00 570.00 L 995.00 572.00 L 1005.00 560.00 L 1005.00 563.00 L 995.00 581.00 L 991.00 596.00 L 993.00 608.00 L 1013.00 647.00 L 1051.00 713.00 L 1068.00 751.00 L 1064.00 761.00 L 1053.00 772.00 L 1035.00 784.00 L 1033.00 787.00 L 1047.00 781.00 L 1044.00 785.00 L 1024.00 799.00 L 1016.00 812.00 L 1020.00 824.00 L 1016.00 849.00 L 1004.00 887.00 L 997.00 920.00 L 995.00 948.00 L 986.00 966.00 L 970.00 974.00 L 952.00 978.00 L 932.00 978.00 L 928.00 979.00 L 940.00 981.00 L 932.00 982.00 L 904.00 982.00 L 886.00 985.00 L 878.00 991.00 L 869.00 1008.00 L 859.00 1036.00 L 863.00 1059.00 L 881.00 1077.00 L 882.00 1081.00 L 866.00 1071.00 L 867.00 1076.00 L 885.00 1096.00 L 883.00 1121.00 L 861.00 1151.00 L 846.00 1181.00 L 838.00 1211.00 L 835.00 1240.00 L 837.00 1268.00 L 876.00 1368.00 L 952.00 1540.00 L 952.00 1542.00 L 876.00 1374.00 L 877.00 1377.00 L 955.00 1551.00 L 976.00 1599.00 L 940.00 1521.00 L 940.00 1524.00 L 976.00 1608.00 L 955.00 1563.00 L 877.00 1389.00 L 878.00 1395.00 L 958.00 1581.00 L 960.00 1588.00 L 884.00 1416.00 L 883.00 1419.00 L 957.00 1597.00 L 961.00 1608.00 L 895.00 1452.00 L 895.00 1455.00 L 961.00 1617.00 L 984.00 1714.00 L 964.00 1746.00 L 905.00 1720.00 L 807.00 1636.00 L 722.00 1568.00 L 650.00 1516.00 L 562.00 1469.00 L 458.00 1427.00 L 382.00 1402.00 L 334.00 1394.00 L 316.00 1376.00 L 328.00 1348.00 L 360.00 1297.00 L 412.00 1223.00 L 445.00 1166.00 L 459.00 1126.00 L 475.00 1094.00 L 493.00 1070.00 L 504.00 1036.00 L 508.00 992.00 L 515.00 965.00 L 525.00 955.00 L 531.00 948.00 L 533.00 944.00 L 533.00 928.00 Z" fill="black" stroke="black" stroke-width="1"/>
</svg>