<?xml version="1.0" encoding="UTF-8"?>
<svg xmlns="http://www.w3.org/2000/svg" viewBox="263.00 54.00 911.00 1852.00">
  <path d="M 373.00 953.00 L 379.00 871.00 L 386.00 819.00 L 394.00 797.00 L 391.00 781.00 L 377.00 771.00 L 377.00 768.00 L 391.00 772.00 L 388.00 765.00 L 368.00 747.00 L 371.00 744.00 L 397.00 756.00 L 397.00 752.00 L 371.00 732.00 L 336.00 672.00 L 292.00 572.00 L 273.00 481.00 L 279.00 399.00 L 289.00 338.00 L 303.00 298.00 L 321.00 260.00 L 343.00 224.00 L 383.00 181.00 L 441.00 131.00 L 498.00 97.00 L 554.00 79.00 L 598.00 68.00 L 630.00 64.00 L 695.00 73.00 L 793.00 95.00 L 876.00 127.00 L 944.00 169.00 L 991.00 203.00 L 1017.00 229.00 L 1040.00 258.00 L 1060.00 290.00 L 1069.00 315.00 L 1067.00 333.00 L 1069.00 337.00 L 1075.00 327.00 L 1076.00 329.00 L 1072.00 343.00 L 1078.00 375.00 L 1094.00 425.00 L 1102.00 476.00 L 1102.00 528.00 L 1112.00 571.00 L 1132.00 605.00 L 1146.00 637.00 L 1154.00 667.00 L 1158.00 685.00 L 1158.00 691.00 L 1139.00 709.00 L 1101.00 739.00 L 1101.00 742.00 L 1139.00 718.00 L 1141.00 721.00 L 1107.00 751.00 L 1091.00 770.00 L 1093.00 778.00 L 1086.00 801.00 L 1070.00 839.00 L 1066.00 874.00 L 1074.00 906.00 L 1076.00 930.00 L 1072.00 946.00 L 1067.00 957.00 L 1061.00 963.00 L 1041.00 969.00 L 1007.00 975.00 L 1005.00 977.00 L 1035.00 975.00 L 1045.00 975.00 L 1035.00 977.00 L 1032.00 978.00 L 1036.00 978.00 L 1024.00 979.00 L 996.00 981.00 L 993.00 982.00 L 1015.00 982.00 L 1017.00 984.00 L 999.00 988.00 L 997.00 996.00 L 1011.00 1008.00 L 1008.00 1022.00 L 988.00 1038.00 L 986.00 1051.00 L 1002.00 1061.00 L 1001.00 1064.00 L 983.00 1060.00 L 985.00 1062.00 L 1007.00 1070.00 L 1006.00 1072.00 L 982.00 1068.00 L 982.00 1070.00 L 1006.00 1078.00 L 1016.00 1086.00 L 1012.00 1094.00 L 1004.00 1099.00 L 992.00 1101.00 L 994.00 1107.00 L 1010.00 1117.00 L 1011.00 1119.00 L 997.00 1113.00 L 1000.00 1116.00 L 1020.00 1128.00 L 1045.00 1150.00 L 1075.00 1182.00 L 1063.00 1184.00 L 1009.00 1156.00 L 1007.00 1158.00 L 1057.00 1190.00 L 1058.00 1193.00 L 1010.00 1167.00 L 1006.00 1168.00 L 1046.00 1196.00 L 1047.00 1199.00 L 1009.00 1177.00 L 1002.00 1175.00 L 1026.00 1193.00 L 1027.00 1195.00 L 1005.00 1181.00 L 1002.00 1180.00 L 1018.00 1192.00 L 1019.00 1195.00 L 1005.00 1189.00 L 999.00 1194.00 L 1001.00 1210.00 L 1016.00 1244.00 L 1044.00 1296.00 L 1074.00 1362.00 L 1106.00 1442.00 L 1130.00 1513.00 L 1146.00 1575.00 L 1157.00 1629.00 L 1163.00 1675.00 L 1164.00 1719.00 L 1160.00 1761.00 L 1155.00 1795.00 L 1149.00 1821.00 L 1136.00 1848.00 L 1116.00 1876.00 L 1091.00 1892.00 L 1061.00 1896.00 L 1032.00 1891.00 L 1004.00 1877.00 L 929.00 1816.00 L 807.00 1708.00 L 690.00 1619.00 L 578.00 1549.00 L 521.00 1516.00 L 519.00 1520.00 L 514.00 1520.00 L 506.00 1516.00 L 499.00 1512.00 L 493.00 1508.00 L 491.00 1503.00 L 493.00 1497.00 L 491.00 1497.00 L 485.00 1503.00 L 483.00 1503.00 L 485.00 1497.00 L 480.00 1495.00 L 468.00 1497.00 L 461.00 1494.00 L 459.00 1486.00 L 452.00 1484.00 L 440.00 1488.00 L 429.00 1484.00 L 419.00 1472.00 L 406.00 1468.00 L 390.00 1472.00 L 384.00 1466.00 L 388.00 1450.00 L 384.00 1448.00 L 372.00 1460.00 L 363.00 1465.00 L 357.00 1463.00 L 358.00 1457.00 L 366.00 1447.00 L 365.00 1447.00 L 355.00 1457.00 L 353.00 1457.00 L 359.00 1447.00 L 356.00 1446.00 L 344.00 1454.00 L 340.00 1452.00 L 344.00 1440.00 L 339.00 1439.00 L 325.00 1449.00 L 321.00 1448.00 L 327.00 1436.00 L 324.00 1435.00 L 312.00 1445.00 L 311.00 1444.00 L 321.00 1432.00 L 319.00 1431.00 L 305.00 1441.00 L 292.00 1444.00 L 280.00 1440.00 L 301.00 1352.00 L 355.00 1180.00 L 383.00 1085.00 L 385.00 1067.00 L 382.00 1044.00 L 374.00 1016.00 L 370.00 1000.00 L 370.00 996.00 L 373.00 953.00 Z" fill="black" stroke="black" stroke-width="1"/>
</svg>