<?xml version="1.0" encoding="UTF-8"?>
<svg xmlns="http://www.w3.org/2000/svg" viewBox="385.00 112.00 968.00 1753.00">
  <path d="M 573.00 963.00 L 587.00 921.00 L 603.00 886.00 L 621.00 858.00 L 630.00 841.00 L 630.00 835.00 L 623.00 825.00 L 609.00 811.00 L 610.00 808.00 L 626.00 816.00 L 624.00 814.00 L 604.00 802.00 L 592.00 794.00 L 588.00 790.00 L 597.00 794.00 L 619.00 806.00 L 617.00 804.00 L 591.00 788.00 L 575.00 776.00 L 569.00 768.00 L 541.00 709.00 L 491.00 599.00 L 463.00 530.00 L 457.00 502.00 L 455.00 473.00 L 457.00 443.00 L 464.00 406.00 L 476.00 362.00 L 487.00 330.00 L 497.00 310.00 L 517.00 283.00 L 547.00 249.00 L 573.00 224.00 L 595.00 208.00 L 634.00 187.00 L 690.00 161.00 L 735.00 143.00 L 769.00 133.00 L 828.00 126.00 L 912.00 122.00 L 973.00 124.00 L 1011.00 132.00 L 1047.00 143.00 L 1081.00 157.00 L 1118.00 182.00 L 1158.00 218.00 L 1183.00 244.00 L 1193.00 260.00 L 1203.00 280.00 L 1213.00 304.00 L 1216.00 326.00 L 1212.00 346.00 L 1213.00 350.00 L 1219.00 338.00 L 1220.00 341.00 L 1216.00 359.00 L 1217.00 362.00 L 1223.00 350.00 L 1225.00 352.00 L 1223.00 368.00 L 1225.00 370.00 L 1231.00 358.00 L 1232.00 360.00 L 1228.00 376.00 L 1230.00 378.00 L 1238.00 366.00 L 1239.00 369.00 L 1233.00 387.00 L 1235.00 389.00 L 1245.00 375.00 L 1246.00 376.00 L 1238.00 392.00 L 1239.00 394.00 L 1249.00 382.00 L 1250.00 384.00 L 1242.00 400.00 L 1242.00 403.00 L 1250.00 393.00 L 1251.00 396.00 L 1245.00 412.00 L 1246.00 415.00 L 1254.00 405.00 L 1256.00 410.00 L 1252.00 430.00 L 1253.00 448.00 L 1259.00 464.00 L 1260.00 486.00 L 1256.00 514.00 L 1256.00 535.00 L 1260.00 549.00 L 1274.00 573.00 L 1298.00 607.00 L 1321.00 645.00 L 1343.00 687.00 L 1338.00 720.00 L 1306.00 744.00 L 1306.00 748.00 L 1338.00 732.00 L 1337.00 735.00 L 1303.00 757.00 L 1301.00 760.00 L 1331.00 744.00 L 1331.00 747.00 L 1301.00 769.00 L 1288.00 791.00 L 1292.00 813.00 L 1289.00 828.00 L 1279.00 836.00 L 1269.00 849.00 L 1259.00 867.00 L 1256.00 888.00 L 1260.00 912.00 L 1261.00 936.00 L 1259.00 960.00 L 1253.00 978.00 L 1243.00 990.00 L 1217.00 1005.00 L 1175.00 1023.00 L 1164.00 1038.00 L 1184.00 1050.00 L 1194.00 1061.00 L 1194.00 1071.00 L 1185.00 1084.00 L 1167.00 1100.00 L 1167.00 1113.00 L 1185.00 1123.00 L 1197.00 1131.00 L 1203.00 1137.00 L 1200.00 1138.00 L 1188.00 1134.00 L 1189.00 1137.00 L 1203.00 1147.00 L 1195.00 1145.00 L 1165.00 1131.00 L 1165.00 1133.00 L 1195.00 1151.00 L 1199.00 1154.00 L 1177.00 1142.00 L 1164.00 1137.00 L 1160.00 1139.00 L 1170.00 1148.00 L 1194.00 1164.00 L 1191.00 1163.00 L 1161.00 1145.00 L 1161.00 1147.00 L 1191.00 1169.00 L 1191.00 1171.00 L 1161.00 1153.00 L 1160.00 1154.00 L 1188.00 1174.00 L 1186.00 1175.00 L 1154.00 1157.00 L 1152.00 1159.00 L 1180.00 1181.00 L 1215.00 1213.00 L 1257.00 1255.00 L 1264.00 1265.00 L 1236.00 1243.00 L 1236.00 1245.00 L 1264.00 1271.00 L 1266.00 1275.00 L 1242.00 1257.00 L 1240.00 1259.00 L 1260.00 1281.00 L 1262.00 1291.00 L 1246.00 1289.00 L 1217.00 1270.00 L 1175.00 1234.00 L 1170.00 1232.00 L 1202.00 1264.00 L 1202.00 1266.00 L 1170.00 1238.00 L 1165.00 1236.00 L 1187.00 1260.00 L 1188.00 1264.00 L 1168.00 1248.00 L 1160.00 1249.00 L 1164.00 1267.00 L 1180.00 1307.00 L 1208.00 1369.00 L 1232.00 1428.00 L 1252.00 1484.00 L 1267.00 1535.00 L 1277.00 1581.00 L 1283.00 1635.00 L 1285.00 1697.00 L 1282.00 1743.00 L 1274.00 1773.00 L 1264.00 1797.00 L 1252.00 1815.00 L 1236.00 1826.00 L 1216.00 1830.00 L 1201.00 1838.00 L 1191.00 1850.00 L 1178.00 1855.00 L 1162.00 1853.00 L 1138.00 1843.00 L 1106.00 1825.00 L 1081.00 1806.00 L 1063.00 1786.00 L 1036.00 1763.00 L 1000.00 1737.00 L 961.00 1712.00 L 919.00 1688.00 L 871.00 1664.00 L 817.00 1640.00 L 739.00 1609.00 L 637.00 1571.00 L 575.00 1553.00 L 553.00 1555.00 L 541.00 1553.00 L 539.00 1547.00 L 532.00 1546.00 L 520.00 1550.00 L 506.00 1549.00 L 490.00 1543.00 L 461.00 1541.00 L 419.00 1543.00 L 397.00 1542.00 L 395.00 1538.00 L 411.00 1490.00 L 445.00 1398.00 L 481.00 1317.00 L 519.00 1247.00 L 544.00 1195.00 L 556.00 1161.00 L 559.00 1133.00 L 553.00 1111.00 L 550.00 1088.00 L 550.00 1064.00 L 553.00 1037.00 L 559.00 1007.00 L 563.00 990.00 L 565.00 986.00 L 573.00 963.00 Z" fill="black" stroke="black" stroke-width="1"/>
</svg>