<?xml version="1.0" encoding="UTF-8"?>
<svg xmlns="http://www.w3.org/2000/svg" viewBox="139.00 199.00 1025.00 1630.00">
  <path d="M 446.00 1034.00 L 454.00 1034.00 L 432.00 1033.00 L 380.00 1031.00 L 379.00 1029.00 L 429.00 1027.00 L 430.00 1024.00 L 382.00 1020.00 L 368.00 998.00 L 388.00 958.00 L 334.00 840.00 L 206.00 644.00 L 149.00 538.00 L 163.00 522.00 L 228.00 472.00 L 344.00 388.00 L 463.00 310.00 L 585.00 238.00 L 655.00 209.00 L 673.00 223.00 L 700.00 253.00 L 736.00 299.00 L 779.00 357.00 L 829.00 427.00 L 864.00 481.00 L 884.00 519.00 L 902.00 546.00 L 918.00 562.00 L 951.00 573.00 L 1001.00 579.00 L 1012.00 607.00 L 984.00 657.00 L 987.00 658.00 L 1021.00 610.00 L 1041.00 586.00 L 1047.00 586.00 L 1032.00 613.00 L 996.00 667.00 L 999.00 668.00 L 1041.00 616.00 L 1042.00 618.00 L 1002.00 674.00 L 1005.00 674.00 L 1051.00 618.00 L 1052.00 619.00 L 1008.00 677.00 L 1011.00 678.00 L 1061.00 622.00 L 1062.00 624.00 L 1014.00 684.00 L 1016.00 685.00 L 1068.00 627.00 L 1069.00 629.00 L 1019.00 691.00 L 1022.00 692.00 L 1078.00 632.00 L 1079.00 635.00 L 1025.00 701.00 L 1027.00 702.00 L 1085.00 638.00 L 1104.00 619.00 L 1084.00 645.00 L 1086.00 646.00 L 1110.00 622.00 L 1092.00 643.00 L 1032.00 709.00 L 1035.00 710.00 L 1101.00 646.00 L 1101.00 649.00 L 1035.00 719.00 L 1038.00 721.00 L 1110.00 655.00 L 1110.00 658.00 L 1038.00 730.00 L 1033.00 737.00 L 1095.00 679.00 L 1133.00 645.00 L 1147.00 635.00 L 1151.00 635.00 L 1145.00 645.00 L 1146.00 647.00 L 1154.00 641.00 L 1120.00 673.00 L 1044.00 743.00 L 1042.00 745.00 L 1114.00 679.00 L 1115.00 682.00 L 1045.00 754.00 L 1032.00 823.00 L 1076.00 889.00 L 1094.00 930.00 L 1086.00 946.00 L 1072.00 959.00 L 1052.00 969.00 L 1043.00 986.00 L 1045.00 1010.00 L 1043.00 1026.00 L 1037.00 1034.00 L 1037.00 1042.00 L 1043.00 1050.00 L 1043.00 1060.00 L 1037.00 1072.00 L 1036.00 1098.00 L 1040.00 1138.00 L 1035.00 1166.00 L 1021.00 1182.00 L 1000.00 1196.00 L 972.00 1208.00 L 961.00 1218.00 L 967.00 1226.00 L 965.00 1227.00 L 955.00 1221.00 L 958.00 1225.00 L 974.00 1239.00 L 976.00 1258.00 L 964.00 1282.00 L 968.00 1309.00 L 988.00 1339.00 L 987.00 1342.00 L 965.00 1318.00 L 962.00 1320.00 L 978.00 1348.00 L 977.00 1351.00 L 959.00 1329.00 L 978.00 1357.00 L 1034.00 1435.00 L 1033.00 1437.00 L 975.00 1363.00 L 974.00 1365.00 L 1030.00 1443.00 L 1030.00 1446.00 L 974.00 1374.00 L 963.00 1363.00 L 997.00 1413.00 L 1000.00 1426.00 L 972.00 1402.00 L 974.00 1418.00 L 1006.00 1474.00 L 1004.00 1475.00 L 968.00 1421.00 L 969.00 1424.00 L 1007.00 1484.00 L 1006.00 1483.00 L 966.00 1421.00 L 967.00 1424.00 L 1009.00 1492.00 L 1013.00 1500.00 L 979.00 1448.00 L 979.00 1454.00 L 1013.00 1518.00 L 1011.00 1520.00 L 973.00 1460.00 L 973.00 1462.00 L 1011.00 1526.00 L 1012.00 1529.00 L 976.00 1471.00 L 989.00 1502.00 L 1051.00 1622.00 L 1085.00 1701.00 L 1091.00 1739.00 L 1086.00 1771.00 L 1070.00 1797.00 L 1053.00 1813.00 L 1035.00 1819.00 L 1011.00 1817.00 L 981.00 1807.00 L 900.00 1751.00 L 768.00 1649.00 L 666.00 1579.00 L 594.00 1541.00 L 517.00 1508.00 L 435.00 1480.00 L 392.00 1459.00 L 388.00 1445.00 L 394.00 1401.00 L 410.00 1327.00 L 415.00 1274.00 L 409.00 1242.00 L 411.00 1200.00 L 421.00 1148.00 L 400.00 1127.00 L 348.00 1137.00 L 349.00 1134.00 L 403.00 1118.00 L 402.00 1115.00 L 346.00 1125.00 L 347.00 1122.00 L 405.00 1106.00 L 406.00 1101.00 L 350.00 1107.00 L 351.00 1104.00 L 409.00 1092.00 L 410.00 1089.00 L 354.00 1095.00 L 355.00 1093.00 L 413.00 1083.00 L 414.00 1081.00 L 358.00 1087.00 L 359.00 1085.00 L 417.00 1075.00 L 418.00 1073.00 L 362.00 1079.00 L 363.00 1077.00 L 421.00 1067.00 L 422.00 1064.00 L 366.00 1068.00 L 358.00 1067.00 L 398.00 1061.00 L 399.00 1058.00 L 361.00 1058.00 L 370.00 1056.00 L 426.00 1052.00 L 427.00 1050.00 L 373.00 1050.00 L 368.00 1048.00 L 412.00 1044.00 L 413.00 1041.00 L 371.00 1039.00 L 373.00 1037.00 L 419.00 1035.00 L 446.00 1034.00 Z" fill="black" stroke="black" stroke-width="1"/>
</svg>