<?xml version="1.0" encoding="UTF-8"?>
<svg xmlns="http://www.w3.org/2000/svg" viewBox="282.00 87.00 954.00 1727.00">
  <path d="M 376.00 941.00 L 420.00 939.00 L 421.00 936.00 L 379.00 932.00 L 379.00 929.00 L 421.00 927.00 L 422.00 923.00 L 382.00 917.00 L 357.00 908.00 L 347.00 896.00 L 346.00 882.00 L 354.00 866.00 L 368.00 860.00 L 388.00 864.00 L 392.00 864.00 L 380.00 860.00 L 380.00 855.00 L 392.00 849.00 L 399.00 814.00 L 401.00 750.00 L 398.00 632.00 L 390.00 460.00 L 390.00 353.00 L 398.00 311.00 L 413.00 271.00 L 435.00 233.00 L 473.00 196.00 L 527.00 160.00 L 597.00 130.00 L 683.00 106.00 L 760.00 97.00 L 828.00 103.00 L 896.00 122.00 L 964.00 154.00 L 1011.00 182.00 L 1037.00 206.00 L 1050.00 225.00 L 1050.00 239.00 L 1053.00 242.00 L 1059.00 234.00 L 1060.00 238.00 L 1056.00 254.00 L 1059.00 258.00 L 1069.00 250.00 L 1071.00 253.00 L 1065.00 267.00 L 1066.00 270.00 L 1074.00 262.00 L 1077.00 274.00 L 1075.00 306.00 L 1078.00 316.00 L 1086.00 304.00 L 1087.00 307.00 L 1081.00 325.00 L 1083.00 328.00 L 1093.00 316.00 L 1094.00 319.00 L 1086.00 337.00 L 1088.00 339.00 L 1100.00 325.00 L 1102.00 330.00 L 1094.00 354.00 L 1097.00 356.00 L 1111.00 336.00 L 1113.00 340.00 L 1103.00 368.00 L 1105.00 371.00 L 1119.00 349.00 L 1119.00 367.00 L 1105.00 425.00 L 1124.00 488.00 L 1176.00 556.00 L 1185.00 605.00 L 1151.00 635.00 L 1152.00 638.00 L 1188.00 614.00 L 1187.00 618.00 L 1149.00 650.00 L 1147.00 654.00 L 1181.00 630.00 L 1181.00 633.00 L 1147.00 663.00 L 1126.00 689.00 L 1118.00 711.00 L 1117.00 752.00 L 1123.00 812.00 L 1114.00 855.00 L 1090.00 881.00 L 1083.00 901.00 L 1093.00 915.00 L 1086.00 935.00 L 1062.00 961.00 L 1055.00 978.00 L 1065.00 986.00 L 1062.00 990.00 L 1046.00 990.00 L 1048.00 993.00 L 1068.00 999.00 L 1078.00 1011.00 L 1078.00 1029.00 L 1073.00 1042.00 L 1063.00 1050.00 L 1050.00 1052.00 L 1034.00 1048.00 L 1041.00 1064.00 L 1071.00 1100.00 L 1080.00 1115.00 L 1068.00 1109.00 L 1071.00 1111.00 L 1089.00 1121.00 L 1081.00 1126.00 L 1047.00 1126.00 L 1030.00 1129.00 L 1030.00 1135.00 L 1061.00 1192.00 L 1123.00 1300.00 L 1172.00 1404.00 L 1208.00 1504.00 L 1226.00 1586.00 L 1226.00 1650.00 L 1211.00 1708.00 L 1181.00 1760.00 L 1154.00 1791.00 L 1130.00 1801.00 L 1104.00 1804.00 L 1076.00 1800.00 L 1013.00 1766.00 L 915.00 1702.00 L 799.00 1635.00 L 665.00 1565.00 L 564.00 1519.00 L 496.00 1497.00 L 414.00 1479.00 L 318.00 1465.00 L 292.00 1400.00 L 336.00 1284.00 L 350.00 1231.00 L 334.00 1241.00 L 336.00 1236.00 L 356.00 1216.00 L 354.00 1213.00 L 330.00 1227.00 L 332.00 1223.00 L 360.00 1201.00 L 364.00 1195.00 L 344.00 1205.00 L 345.00 1200.00 L 367.00 1180.00 L 371.00 1174.00 L 357.00 1182.00 L 358.00 1180.00 L 374.00 1168.00 L 375.00 1165.00 L 361.00 1171.00 L 362.00 1169.00 L 378.00 1159.00 L 379.00 1156.00 L 365.00 1160.00 L 366.00 1157.00 L 382.00 1147.00 L 391.00 1139.00 L 393.00 1133.00 L 386.00 1134.00 L 370.00 1142.00 L 371.00 1136.00 L 389.00 1116.00 L 391.00 1109.00 L 377.00 1115.00 L 378.00 1114.00 L 394.00 1106.00 L 394.00 1103.00 L 378.00 1105.00 L 379.00 1101.00 L 397.00 1091.00 L 398.00 1088.00 L 382.00 1092.00 L 384.00 1088.00 L 404.00 1076.00 L 405.00 1072.00 L 387.00 1076.00 L 388.00 1073.00 L 408.00 1063.00 L 409.00 1059.00 L 391.00 1061.00 L 393.00 1058.00 L 415.00 1050.00 L 415.00 1048.00 L 393.00 1052.00 L 394.00 1050.00 L 418.00 1042.00 L 418.00 1039.00 L 394.00 1041.00 L 397.00 1037.00 L 427.00 1027.00 L 428.00 1024.00 L 400.00 1028.00 L 400.00 1025.00 L 428.00 1015.00 L 420.00 1014.00 L 376.00 1022.00 L 370.00 1021.00 L 402.00 1011.00 L 400.00 1009.00 L 364.00 1015.00 L 370.00 1013.00 L 418.00 1003.00 L 416.00 1000.00 L 364.00 1004.00 L 364.00 1000.00 L 416.00 988.00 L 418.00 983.00 L 370.00 985.00 L 370.00 983.00 L 418.00 977.00 L 420.00 974.00 L 376.00 974.00 L 376.00 971.00 L 420.00 965.00 L 420.00 963.00 L 376.00 965.00 L 373.00 964.00 L 411.00 960.00 L 411.00 957.00 L 373.00 955.00 L 375.00 952.00 L 417.00 948.00 L 423.00 946.00 L 393.00 946.00 L 372.00 945.00 L 360.00 943.00 L 376.00 941.00 Z" fill="black" stroke="black" stroke-width="1"/>
</svg>