<?xml version="1.0" encoding="UTF-8"?>
<svg xmlns="http://www.w3.org/2000/svg" viewBox="286.00 141.00 905.00 1653.00">
  <path d="M 428.00 947.00 L 432.00 893.00 L 439.00 855.00 L 449.00 833.00 L 450.00 817.00 L 442.00 807.00 L 444.00 804.00 L 456.00 808.00 L 454.00 805.00 L 438.00 795.00 L 427.00 772.00 L 421.00 736.00 L 420.00 704.00 L 424.00 676.00 L 417.00 636.00 L 399.00 584.00 L 388.00 529.00 L 384.00 471.00 L 385.00 426.00 L 391.00 394.00 L 399.00 369.00 L 409.00 351.00 L 416.00 343.00 L 420.00 345.00 L 421.00 343.00 L 419.00 337.00 L 420.00 336.00 L 424.00 340.00 L 425.00 338.00 L 423.00 330.00 L 431.00 311.00 L 449.00 281.00 L 469.00 256.00 L 491.00 236.00 L 532.00 210.00 L 592.00 178.00 L 625.00 162.00 L 631.00 162.00 L 635.00 166.00 L 637.00 174.00 L 640.00 178.00 L 644.00 178.00 L 646.00 173.00 L 646.00 163.00 L 648.00 162.00 L 652.00 170.00 L 654.00 170.00 L 654.00 162.00 L 659.00 158.00 L 669.00 158.00 L 677.00 163.00 L 683.00 173.00 L 687.00 173.00 L 689.00 163.00 L 692.00 162.00 L 696.00 170.00 L 699.00 169.00 L 701.00 159.00 L 709.00 153.00 L 723.00 151.00 L 743.00 152.00 L 769.00 156.00 L 805.00 166.00 L 851.00 182.00 L 887.00 197.00 L 913.00 211.00 L 933.00 225.00 L 947.00 239.00 L 969.00 253.00 L 999.00 267.00 L 1023.00 285.00 L 1041.00 307.00 L 1049.00 322.00 L 1047.00 330.00 L 1048.00 332.00 L 1052.00 328.00 L 1053.00 329.00 L 1051.00 335.00 L 1055.00 350.00 L 1065.00 374.00 L 1071.00 395.00 L 1073.00 413.00 L 1081.00 438.00 L 1095.00 470.00 L 1103.00 500.00 L 1105.00 528.00 L 1104.00 547.00 L 1100.00 557.00 L 1100.00 568.00 L 1104.00 580.00 L 1122.00 612.00 L 1154.00 664.00 L 1170.00 693.00 L 1170.00 699.00 L 1157.00 712.00 L 1131.00 732.00 L 1131.00 733.00 L 1157.00 715.00 L 1156.00 717.00 L 1128.00 739.00 L 1126.00 742.00 L 1150.00 726.00 L 1150.00 729.00 L 1126.00 751.00 L 1117.00 770.00 L 1123.00 786.00 L 1121.00 802.00 L 1111.00 818.00 L 1107.00 829.00 L 1109.00 835.00 L 1106.00 847.00 L 1098.00 865.00 L 1094.00 896.00 L 1094.00 940.00 L 1087.00 969.00 L 1073.00 983.00 L 1047.00 990.00 L 1009.00 990.00 L 1006.00 991.00 L 1038.00 993.00 L 1033.00 993.00 L 991.00 991.00 L 988.00 991.00 L 1024.00 993.00 L 1027.00 995.00 L 997.00 997.00 L 995.00 1001.00 L 1021.00 1007.00 L 1034.00 1012.00 L 1034.00 1016.00 L 1022.00 1028.00 L 998.00 1048.00 L 993.00 1063.00 L 1007.00 1073.00 L 1005.00 1075.00 L 987.00 1069.00 L 989.00 1071.00 L 1011.00 1081.00 L 1015.00 1083.00 L 1001.00 1077.00 L 1002.00 1079.00 L 1018.00 1089.00 L 1015.00 1090.00 L 993.00 1082.00 L 993.00 1084.00 L 1015.00 1096.00 L 1012.00 1096.00 L 984.00 1084.00 L 982.00 1086.00 L 1006.00 1102.00 L 1016.00 1110.00 L 1012.00 1110.00 L 1014.00 1124.00 L 1022.00 1152.00 L 1035.00 1175.00 L 1053.00 1193.00 L 1057.00 1204.00 L 1047.00 1208.00 L 1031.00 1202.00 L 1009.00 1186.00 L 1004.00 1184.00 L 1016.00 1196.00 L 1016.00 1198.00 L 1004.00 1190.00 L 1012.00 1208.00 L 1040.00 1252.00 L 1058.00 1291.00 L 1066.00 1325.00 L 1084.00 1368.00 L 1112.00 1420.00 L 1139.00 1484.00 L 1165.00 1560.00 L 1179.00 1627.00 L 1181.00 1685.00 L 1179.00 1722.00 L 1173.00 1738.00 L 1163.00 1754.00 L 1149.00 1770.00 L 1131.00 1780.00 L 1109.00 1784.00 L 1088.00 1783.00 L 1068.00 1777.00 L 1004.00 1743.00 L 896.00 1681.00 L 793.00 1630.00 L 695.00 1590.00 L 607.00 1560.00 L 529.00 1540.00 L 469.00 1526.00 L 427.00 1518.00 L 380.00 1513.00 L 328.00 1511.00 L 300.00 1508.00 L 296.00 1504.00 L 301.00 1469.00 L 315.00 1403.00 L 338.00 1324.00 L 370.00 1232.00 L 399.00 1156.00 L 425.00 1096.00 L 435.00 1058.00 L 429.00 1042.00 L 426.00 1022.00 L 426.00 998.00 L 426.00 983.00 L 426.00 977.00 L 428.00 947.00 Z" fill="black" stroke="black" stroke-width="1"/>
</svg>