<?xml version="1.0" encoding="UTF-8"?>
<svg xmlns="http://www.w3.org/2000/svg" viewBox="305.00 125.00 997.00 1623.00">
  <path d="M 540.00 899.00 L 544.00 885.00 L 557.00 870.00 L 579.00 854.00 L 594.00 834.00 L 602.00 810.00 L 599.00 793.00 L 585.00 783.00 L 585.00 781.00 L 599.00 787.00 L 594.00 782.00 L 570.00 766.00 L 569.00 764.00 L 591.00 776.00 L 588.00 771.00 L 560.00 749.00 L 543.00 732.00 L 537.00 720.00 L 513.00 690.00 L 471.00 642.00 L 440.00 601.00 L 420.00 567.00 L 407.00 535.00 L 401.00 505.00 L 399.00 474.00 L 401.00 442.00 L 408.00 408.00 L 420.00 372.00 L 446.00 325.00 L 486.00 267.00 L 531.00 219.00 L 581.00 181.00 L 616.00 158.00 L 636.00 150.00 L 661.00 146.00 L 691.00 146.00 L 718.00 143.00 L 742.00 137.00 L 780.00 135.00 L 832.00 137.00 L 894.00 152.00 L 966.00 180.00 L 1021.00 210.00 L 1059.00 242.00 L 1087.00 263.00 L 1105.00 273.00 L 1112.00 285.00 L 1108.00 299.00 L 1107.00 307.00 L 1109.00 309.00 L 1113.00 304.00 L 1119.00 292.00 L 1120.00 294.00 L 1116.00 310.00 L 1115.00 321.00 L 1117.00 327.00 L 1122.00 322.00 L 1130.00 306.00 L 1131.00 308.00 L 1125.00 328.00 L 1127.00 331.00 L 1137.00 317.00 L 1138.00 320.00 L 1130.00 340.00 L 1131.00 342.00 L 1141.00 326.00 L 1147.00 319.00 L 1149.00 321.00 L 1145.00 332.00 L 1135.00 352.00 L 1131.00 364.00 L 1133.00 368.00 L 1139.00 361.00 L 1149.00 343.00 L 1151.00 341.00 L 1145.00 355.00 L 1146.00 357.00 L 1154.00 347.00 L 1153.00 352.00 L 1143.00 372.00 L 1144.00 375.00 L 1156.00 361.00 L 1157.00 366.00 L 1147.00 390.00 L 1148.00 394.00 L 1160.00 378.00 L 1161.00 384.00 L 1151.00 412.00 L 1152.00 417.00 L 1164.00 399.00 L 1164.00 401.00 L 1152.00 423.00 L 1153.00 425.00 L 1167.00 407.00 L 1167.00 409.00 L 1153.00 431.00 L 1152.00 435.00 L 1164.00 421.00 L 1165.00 424.00 L 1155.00 444.00 L 1158.00 443.00 L 1174.00 421.00 L 1175.00 423.00 L 1161.00 449.00 L 1166.00 476.00 L 1190.00 504.00 L 1211.00 532.00 L 1229.00 560.00 L 1239.00 579.00 L 1241.00 589.00 L 1229.00 606.00 L 1203.00 630.00 L 1202.00 633.00 L 1226.00 615.00 L 1226.00 617.00 L 1202.00 639.00 L 1197.00 645.00 L 1211.00 635.00 L 1211.00 637.00 L 1197.00 651.00 L 1191.00 668.00 L 1193.00 688.00 L 1191.00 703.00 L 1185.00 713.00 L 1183.00 721.00 L 1185.00 727.00 L 1184.00 737.00 L 1180.00 751.00 L 1181.00 772.00 L 1187.00 800.00 L 1189.00 821.00 L 1187.00 835.00 L 1178.00 849.00 L 1162.00 863.00 L 1145.00 872.00 L 1127.00 876.00 L 1103.00 891.00 L 1073.00 917.00 L 1047.00 936.00 L 1025.00 948.00 L 1006.00 962.00 L 990.00 978.00 L 980.00 993.00 L 976.00 1007.00 L 1023.00 1068.00 L 1121.00 1176.00 L 1188.00 1253.00 L 1224.00 1299.00 L 1239.00 1319.00 L 1233.00 1313.00 L 1237.00 1320.00 L 1251.00 1340.00 L 1256.00 1348.00 L 1252.00 1344.00 L 1259.00 1362.00 L 1277.00 1402.00 L 1288.00 1441.00 L 1292.00 1479.00 L 1288.00 1520.00 L 1276.00 1564.00 L 1247.00 1612.00 L 1201.00 1664.00 L 1155.00 1706.00 L 1109.00 1738.00 L 1056.00 1729.00 L 996.00 1679.00 L 906.00 1620.00 L 786.00 1552.00 L 693.00 1504.00 L 627.00 1476.00 L 564.00 1453.00 L 504.00 1435.00 L 468.00 1426.00 L 456.00 1426.00 L 450.00 1424.00 L 450.00 1420.00 L 447.00 1421.00 L 441.00 1427.00 L 440.00 1427.00 L 444.00 1421.00 L 442.00 1420.00 L 434.00 1424.00 L 429.00 1424.00 L 427.00 1420.00 L 419.00 1416.00 L 405.00 1412.00 L 378.00 1409.00 L 338.00 1407.00 L 317.00 1403.00 L 315.00 1397.00 L 337.00 1339.00 L 383.00 1229.00 L 415.00 1144.00 L 433.00 1084.00 L 450.00 1037.00 L 466.00 1003.00 L 479.00 979.00 L 489.00 965.00 L 502.00 952.00 L 518.00 940.00 L 528.00 929.00 L 532.00 919.00 L 535.00 912.00 L 537.00 908.00 L 540.00 899.00 Z" fill="black" stroke="black" stroke-width="1"/>
</svg>