<?xml version="1.0" encoding="UTF-8"?>
<svg xmlns="http://www.w3.org/2000/svg" viewBox="537.00 323.00 760.00 1482.00">
  <path d="M 733.00 1005.00 L 739.00 979.00 L 742.00 955.00 L 742.00 933.00 L 716.00 906.00 L 664.00 874.00 L 664.00 872.00 L 716.00 900.00 L 709.00 894.00 L 643.00 854.00 L 642.00 852.00 L 706.00 888.00 L 705.00 887.00 L 639.00 849.00 L 598.00 821.00 L 582.00 803.00 L 567.00 778.00 L 553.00 746.00 L 548.00 731.00 L 552.00 733.00 L 552.00 730.00 L 548.00 722.00 L 547.00 681.00 L 549.00 607.00 L 557.00 554.00 L 571.00 522.00 L 586.00 499.00 L 602.00 485.00 L 611.00 456.00 L 613.00 412.00 L 616.00 388.00 L 620.00 384.00 L 629.00 382.00 L 643.00 382.00 L 656.00 375.00 L 668.00 361.00 L 679.00 352.00 L 689.00 348.00 L 703.00 348.00 L 721.00 352.00 L 737.00 351.00 L 751.00 345.00 L 776.00 339.00 L 812.00 333.00 L 860.00 333.00 L 920.00 339.00 L 968.00 348.00 L 1004.00 360.00 L 1051.00 384.00 L 1109.00 420.00 L 1146.00 447.00 L 1162.00 465.00 L 1178.00 489.00 L 1194.00 519.00 L 1209.00 559.00 L 1223.00 609.00 L 1230.00 653.00 L 1230.00 691.00 L 1246.00 736.00 L 1278.00 788.00 L 1279.00 826.00 L 1249.00 850.00 L 1250.00 853.00 L 1282.00 835.00 L 1287.00 833.00 L 1265.00 847.00 L 1263.00 850.00 L 1281.00 842.00 L 1275.00 847.00 L 1245.00 865.00 L 1243.00 867.00 L 1269.00 853.00 L 1269.00 855.00 L 1243.00 873.00 L 1232.00 888.00 L 1236.00 900.00 L 1233.00 913.00 L 1223.00 927.00 L 1219.00 938.00 L 1221.00 946.00 L 1218.00 956.00 L 1210.00 968.00 L 1210.00 983.00 L 1218.00 1001.00 L 1219.00 1020.00 L 1213.00 1040.00 L 1191.00 1058.00 L 1153.00 1074.00 L 1121.00 1084.00 L 1095.00 1088.00 L 1077.00 1096.00 L 1067.00 1108.00 L 1057.00 1126.00 L 1047.00 1150.00 L 1097.00 1249.00 L 1207.00 1423.00 L 1256.00 1501.00 L 1244.00 1483.00 L 1249.00 1492.00 L 1271.00 1528.00 L 1269.00 1526.00 L 1243.00 1486.00 L 1244.00 1488.00 L 1272.00 1532.00 L 1271.00 1531.00 L 1241.00 1485.00 L 1242.00 1487.00 L 1274.00 1537.00 L 1269.00 1530.00 L 1227.00 1466.00 L 1231.00 1474.00 L 1281.00 1554.00 L 1239.00 1488.00 L 1105.00 1276.00 L 1105.00 1278.00 L 1239.00 1494.00 L 1275.00 1553.00 L 1213.00 1455.00 L 1215.00 1461.00 L 1281.00 1571.00 L 1276.00 1565.00 L 1200.00 1443.00 L 1200.00 1446.00 L 1276.00 1574.00 L 1274.00 1572.00 L 1194.00 1440.00 L 1195.00 1443.00 L 1277.00 1581.00 L 1275.00 1579.00 L 1189.00 1437.00 L 1189.00 1440.00 L 1275.00 1588.00 L 1274.00 1587.00 L 1186.00 1437.00 L 1186.00 1438.00 L 1274.00 1590.00 L 1248.00 1545.00 L 1108.00 1303.00 L 1107.00 1308.00 L 1245.00 1560.00 L 1245.00 1562.00 L 1107.00 1314.00 L 1106.00 1315.00 L 1242.00 1565.00 L 1260.00 1599.00 L 1160.00 1417.00 L 1160.00 1419.00 L 1260.00 1605.00 L 1259.00 1604.00 L 1157.00 1416.00 L 1156.00 1418.00 L 1256.00 1610.00 L 1253.00 1607.00 L 1147.00 1409.00 L 1146.00 1412.00 L 1250.00 1616.00 L 1235.00 1587.00 L 1101.00 1325.00 L 1099.00 1328.00 L 1229.00 1596.00 L 1240.00 1621.00 L 1132.00 1403.00 L 1131.00 1404.00 L 1237.00 1624.00 L 1226.00 1602.00 L 1098.00 1338.00 L 1096.00 1341.00 L 1220.00 1611.00 L 1227.00 1629.00 L 1117.00 1395.00 L 1115.00 1397.00 L 1221.00 1635.00 L 1214.00 1620.00 L 1094.00 1352.00 L 1093.00 1354.00 L 1211.00 1626.00 L 1211.00 1628.00 L 1093.00 1360.00 L 1091.00 1362.00 L 1205.00 1634.00 L 1208.00 1643.00 L 1100.00 1389.00 L 1099.00 1390.00 L 1205.00 1646.00 L 1202.00 1640.00 L 1090.00 1372.00 L 1087.00 1373.00 L 1193.00 1643.00 L 1245.00 1779.00 L 1243.00 1781.00 L 1190.00 1650.00 L 1086.00 1386.00 L 1084.00 1387.00 L 1184.00 1653.00 L 1228.00 1789.00 L 1216.00 1795.00 L 1205.00 1795.00 L 1195.00 1789.00 L 1188.00 1787.00 L 1184.00 1789.00 L 1150.00 1750.00 L 1086.00 1670.00 L 1027.00 1606.00 L 973.00 1558.00 L 912.00 1513.00 L 844.00 1471.00 L 758.00 1428.00 L 654.00 1384.00 L 614.00 1328.00 L 638.00 1260.00 L 654.00 1207.00 L 662.00 1169.00 L 674.00 1139.00 L 690.00 1117.00 L 699.00 1097.00 L 701.00 1079.00 L 708.00 1060.00 L 720.00 1040.00 L 727.00 1027.00 L 729.00 1021.00 L 733.00 1005.00 Z" fill="black" stroke="black" stroke-width="1"/>
</svg>