<?xml version="1.0" encoding="UTF-8"?>
<svg xmlns="http://www.w3.org/2000/svg" viewBox="122.00 180.00 974.00 1539.00">
  <path d="M 452.00 879.00 L 408.00 809.00 L 333.00 740.00 L 227.00 672.00 L 210.00 657.00 L 282.00 695.00 L 281.00 693.00 L 207.00 651.00 L 207.00 649.00 L 281.00 687.00 L 278.00 682.00 L 198.00 634.00 L 197.00 632.00 L 275.00 676.00 L 273.00 673.00 L 191.00 623.00 L 190.00 621.00 L 270.00 667.00 L 268.00 664.00 L 184.00 612.00 L 183.00 610.00 L 265.00 658.00 L 264.00 655.00 L 180.00 601.00 L 136.00 565.00 L 132.00 547.00 L 138.00 514.00 L 154.00 466.00 L 212.00 405.00 L 312.00 331.00 L 373.00 279.00 L 395.00 249.00 L 415.00 236.00 L 433.00 240.00 L 451.00 232.00 L 469.00 212.00 L 495.00 198.00 L 529.00 190.00 L 555.00 221.00 L 573.00 291.00 L 575.00 290.00 L 561.00 218.00 L 563.00 217.00 L 581.00 287.00 L 583.00 286.00 L 569.00 214.00 L 572.00 213.00 L 592.00 283.00 L 597.00 282.00 L 587.00 210.00 L 590.00 211.00 L 606.00 285.00 L 612.00 285.00 L 608.00 211.00 L 611.00 210.00 L 621.00 282.00 L 623.00 283.00 L 617.00 213.00 L 619.00 213.00 L 629.00 283.00 L 631.00 283.00 L 625.00 213.00 L 627.00 212.00 L 637.00 280.00 L 639.00 281.00 L 633.00 215.00 L 636.00 215.00 L 648.00 281.00 L 652.00 283.00 L 648.00 221.00 L 651.00 220.00 L 661.00 280.00 L 664.00 281.00 L 660.00 223.00 L 662.00 222.00 L 670.00 278.00 L 675.00 279.00 L 677.00 225.00 L 680.00 224.00 L 684.00 276.00 L 686.00 278.00 L 686.00 230.00 L 689.00 230.00 L 695.00 278.00 L 698.00 285.00 L 698.00 251.00 L 700.00 251.00 L 704.00 285.00 L 732.00 305.00 L 784.00 311.00 L 845.00 329.00 L 915.00 359.00 L 963.00 384.00 L 989.00 404.00 L 999.00 422.00 L 993.00 438.00 L 996.00 439.00 L 1008.00 425.00 L 1010.00 430.00 L 1002.00 454.00 L 1005.00 457.00 L 1019.00 439.00 L 1020.00 440.00 L 1008.00 460.00 L 1010.00 462.00 L 1026.00 446.00 L 1028.00 450.00 L 1016.00 474.00 L 1018.00 475.00 L 1034.00 453.00 L 1035.00 456.00 L 1021.00 484.00 L 1023.00 487.00 L 1041.00 465.00 L 1042.00 468.00 L 1026.00 496.00 L 1028.00 497.00 L 1048.00 471.00 L 1049.00 474.00 L 1031.00 506.00 L 1033.00 508.00 L 1055.00 480.00 L 1056.00 483.00 L 1036.00 517.00 L 1028.00 570.00 L 1032.00 642.00 L 1051.00 720.00 L 1085.00 804.00 L 1086.00 852.00 L 1054.00 864.00 L 1048.00 869.00 L 1068.00 867.00 L 1067.00 870.00 L 1045.00 878.00 L 1024.00 923.00 L 1004.00 1005.00 L 952.00 1065.00 L 868.00 1103.00 L 883.00 1234.00 L 997.00 1458.00 L 995.00 1461.00 L 877.00 1243.00 L 879.00 1248.00 L 1001.00 1476.00 L 1054.00 1577.00 L 1038.00 1551.00 L 1040.00 1560.00 L 1060.00 1604.00 L 1055.00 1600.00 L 1025.00 1548.00 L 1024.00 1551.00 L 1052.00 1609.00 L 1003.00 1514.00 L 877.00 1266.00 L 874.00 1275.00 L 994.00 1541.00 L 993.00 1544.00 L 871.00 1284.00 L 870.00 1287.00 L 990.00 1553.00 L 990.00 1554.00 L 870.00 1290.00 L 867.00 1297.00 L 981.00 1575.00 L 980.00 1577.00 L 864.00 1303.00 L 862.00 1313.00 L 974.00 1607.00 L 973.00 1609.00 L 859.00 1319.00 L 857.00 1325.00 L 967.00 1627.00 L 966.00 1629.00 L 854.00 1331.00 L 850.00 1329.00 L 954.00 1623.00 L 954.00 1624.00 L 850.00 1332.00 L 849.00 1331.00 L 951.00 1621.00 L 950.00 1624.00 L 846.00 1340.00 L 836.00 1328.00 L 920.00 1588.00 L 919.00 1590.00 L 833.00 1334.00 L 826.00 1326.00 L 898.00 1566.00 L 898.00 1567.00 L 826.00 1329.00 L 823.00 1328.00 L 889.00 1564.00 L 889.00 1569.00 L 823.00 1343.00 L 820.00 1342.00 L 880.00 1566.00 L 880.00 1568.00 L 820.00 1348.00 L 820.00 1352.00 L 880.00 1580.00 L 880.00 1583.00 L 820.00 1361.00 L 819.00 1363.00 L 877.00 1589.00 L 899.00 1683.00 L 885.00 1645.00 L 883.00 1650.00 L 893.00 1698.00 L 891.00 1697.00 L 877.00 1647.00 L 875.00 1648.00 L 885.00 1700.00 L 882.00 1697.00 L 866.00 1639.00 L 863.00 1641.00 L 873.00 1703.00 L 870.00 1700.00 L 854.00 1632.00 L 852.00 1635.00 L 864.00 1709.00 L 859.00 1704.00 L 837.00 1620.00 L 834.00 1621.00 L 850.00 1707.00 L 843.00 1701.00 L 813.00 1603.00 L 702.00 1494.00 L 510.00 1374.00 L 409.00 1303.00 L 399.00 1281.00 L 413.00 1212.00 L 451.00 1096.00 L 471.00 1010.00 L 473.00 954.00 L 474.00 923.00 L 474.00 917.00 L 452.00 879.00 Z" fill="black" stroke="black" stroke-width="1"/>
</svg>