<?xml version="1.0" encoding="UTF-8"?>
<svg xmlns="http://www.w3.org/2000/svg" viewBox="267.00 193.00 909.00 1663.00">
  <path d="M 410.00 983.00 L 426.00 897.00 L 439.00 843.00 L 449.00 821.00 L 443.00 799.00 L 421.00 777.00 L 420.00 773.00 L 440.00 787.00 L 437.00 784.00 L 411.00 764.00 L 413.00 765.00 L 443.00 787.00 L 441.00 785.00 L 407.00 759.00 L 404.00 756.00 L 432.00 776.00 L 431.00 774.00 L 401.00 750.00 L 398.00 747.00 L 422.00 765.00 L 421.00 762.00 L 395.00 738.00 L 376.00 716.00 L 364.00 696.00 L 352.00 662.00 L 340.00 614.00 L 335.00 584.00 L 337.00 572.00 L 334.00 552.00 L 326.00 524.00 L 323.00 479.00 L 325.00 417.00 L 337.00 371.00 L 359.00 341.00 L 401.00 304.00 L 463.00 260.00 L 512.00 235.00 L 548.00 229.00 L 579.00 221.00 L 605.00 211.00 L 629.00 205.00 L 651.00 203.00 L 677.00 205.00 L 707.00 211.00 L 736.00 214.00 L 764.00 214.00 L 799.00 224.00 L 841.00 244.00 L 872.00 263.00 L 892.00 281.00 L 920.00 300.00 L 956.00 320.00 L 984.00 340.00 L 1004.00 360.00 L 1014.00 377.00 L 1014.00 391.00 L 1016.00 393.00 L 1020.00 383.00 L 1021.00 385.00 L 1019.00 399.00 L 1021.00 401.00 L 1027.00 391.00 L 1028.00 395.00 L 1024.00 413.00 L 1025.00 415.00 L 1031.00 401.00 L 1035.00 395.00 L 1037.00 397.00 L 1035.00 409.00 L 1029.00 431.00 L 1030.00 434.00 L 1038.00 418.00 L 1040.00 420.00 L 1036.00 440.00 L 1037.00 446.00 L 1043.00 438.00 L 1044.00 443.00 L 1040.00 461.00 L 1042.00 464.00 L 1050.00 452.00 L 1052.00 455.00 L 1048.00 473.00 L 1050.00 476.00 L 1058.00 464.00 L 1056.00 476.00 L 1044.00 512.00 L 1043.00 522.00 L 1053.00 506.00 L 1055.00 505.00 L 1049.00 519.00 L 1050.00 521.00 L 1058.00 511.00 L 1061.00 510.00 L 1059.00 518.00 L 1061.00 522.00 L 1067.00 522.00 L 1072.00 527.00 L 1076.00 537.00 L 1076.00 551.00 L 1072.00 569.00 L 1071.00 586.00 L 1073.00 602.00 L 1098.00 637.00 L 1146.00 691.00 L 1155.00 732.00 L 1125.00 760.00 L 1125.00 763.00 L 1155.00 741.00 L 1157.00 740.00 L 1131.00 760.00 L 1130.00 762.00 L 1154.00 746.00 L 1151.00 750.00 L 1121.00 774.00 L 1109.00 799.00 L 1115.00 825.00 L 1115.00 844.00 L 1109.00 856.00 L 1108.00 871.00 L 1112.00 889.00 L 1106.00 906.00 L 1090.00 922.00 L 1081.00 948.00 L 1079.00 984.00 L 1071.00 1009.00 L 1057.00 1023.00 L 1042.00 1032.00 L 1026.00 1036.00 L 1016.00 1040.00 L 1012.00 1044.00 L 1012.00 1048.00 L 1016.00 1052.00 L 1016.00 1058.00 L 1012.00 1066.00 L 1002.00 1075.00 L 986.00 1085.00 L 970.00 1101.00 L 954.00 1123.00 L 958.00 1142.00 L 982.00 1158.00 L 983.00 1162.00 L 961.00 1154.00 L 962.00 1158.00 L 986.00 1174.00 L 983.00 1173.00 L 953.00 1155.00 L 956.00 1160.00 L 992.00 1188.00 L 1014.00 1213.00 L 1022.00 1235.00 L 1006.00 1230.00 L 966.00 1198.00 L 977.00 1210.00 L 1039.00 1266.00 L 1044.00 1272.00 L 992.00 1228.00 L 990.00 1229.00 L 1038.00 1275.00 L 1043.00 1282.00 L 1005.00 1250.00 L 1000.00 1248.00 L 1028.00 1276.00 L 1023.00 1273.00 L 985.00 1239.00 L 981.00 1237.00 L 1011.00 1267.00 L 1009.00 1269.00 L 975.00 1243.00 L 970.00 1248.00 L 994.00 1284.00 L 1012.00 1320.00 L 1024.00 1356.00 L 1051.00 1417.00 L 1093.00 1503.00 L 1124.00 1573.00 L 1144.00 1627.00 L 1157.00 1668.00 L 1163.00 1696.00 L 1166.00 1725.00 L 1166.00 1755.00 L 1165.00 1776.00 L 1163.00 1788.00 L 1155.00 1804.00 L 1141.00 1824.00 L 1122.00 1838.00 L 1098.00 1846.00 L 1061.00 1833.00 L 1011.00 1799.00 L 957.00 1768.00 L 899.00 1740.00 L 867.00 1721.00 L 861.00 1711.00 L 855.00 1708.00 L 849.00 1712.00 L 826.00 1705.00 L 786.00 1687.00 L 740.00 1670.00 L 688.00 1654.00 L 615.00 1637.00 L 521.00 1619.00 L 427.00 1610.00 L 333.00 1610.00 L 283.00 1608.00 L 277.00 1604.00 L 286.00 1531.00 L 310.00 1389.00 L 332.00 1293.00 L 352.00 1243.00 L 366.00 1202.00 L 374.00 1170.00 L 386.00 1137.00 L 402.00 1103.00 L 408.00 1073.00 L 404.00 1047.00 L 402.00 1032.00 L 402.00 1028.00 L 410.00 983.00 Z" fill="black" stroke="black" stroke-width="1"/>
</svg>