<?xml version="1.0" encoding="UTF-8"?>
<svg xmlns="http://www.w3.org/2000/svg" viewBox="276.00 265.00 859.00 1325.00">
  <path d="M 365.00 907.00 L 355.00 861.00 L 351.00 796.00 L 353.00 712.00 L 349.00 644.00 L 339.00 592.00 L 336.00 567.00 L 340.00 569.00 L 342.00 562.00 L 342.00 546.00 L 344.00 536.00 L 348.00 532.00 L 355.00 510.00 L 365.00 470.00 L 380.00 435.00 L 400.00 405.00 L 428.00 374.00 L 464.00 342.00 L 514.00 314.00 L 578.00 290.00 L 642.00 277.00 L 706.00 275.00 L 770.00 283.00 L 834.00 301.00 L 883.00 318.00 L 917.00 334.00 L 934.00 347.00 L 934.00 357.00 L 936.00 359.00 L 940.00 353.00 L 941.00 355.00 L 939.00 365.00 L 940.00 366.00 L 944.00 358.00 L 946.00 359.00 L 946.00 369.00 L 950.00 372.00 L 958.00 368.00 L 961.00 371.00 L 959.00 381.00 L 960.00 382.00 L 964.00 374.00 L 965.00 375.00 L 963.00 385.00 L 964.00 386.00 L 968.00 378.00 L 971.00 375.00 L 973.00 377.00 L 972.00 383.00 L 968.00 393.00 L 971.00 403.00 L 981.00 413.00 L 994.00 432.00 L 1010.00 460.00 L 1024.00 508.00 L 1036.00 576.00 L 1059.00 635.00 L 1093.00 685.00 L 1114.00 724.00 L 1122.00 752.00 L 1125.00 773.00 L 1123.00 787.00 L 1106.00 801.00 L 1074.00 815.00 L 1072.00 817.00 L 1100.00 807.00 L 1099.00 809.00 L 1069.00 823.00 L 1053.00 838.00 L 1051.00 854.00 L 1046.00 865.00 L 1038.00 871.00 L 1035.00 878.00 L 1037.00 886.00 L 1032.00 897.00 L 1020.00 911.00 L 1016.00 927.00 L 1020.00 945.00 L 1022.00 962.00 L 1022.00 978.00 L 1020.00 989.00 L 1016.00 995.00 L 1010.00 1002.00 L 1002.00 1010.00 L 991.00 1015.00 L 977.00 1017.00 L 961.00 1023.00 L 943.00 1033.00 L 937.00 1042.00 L 943.00 1050.00 L 941.00 1062.00 L 931.00 1078.00 L 934.00 1094.00 L 950.00 1110.00 L 949.00 1113.00 L 931.00 1103.00 L 931.00 1106.00 L 949.00 1122.00 L 956.00 1132.00 L 952.00 1136.00 L 956.00 1144.00 L 968.00 1156.00 L 969.00 1158.00 L 959.00 1150.00 L 961.00 1153.00 L 975.00 1167.00 L 973.00 1166.00 L 955.00 1150.00 L 959.00 1156.00 L 985.00 1184.00 L 994.00 1200.00 L 986.00 1204.00 L 980.00 1205.00 L 976.00 1203.00 L 961.00 1190.00 L 935.00 1166.00 L 924.00 1159.00 L 928.00 1169.00 L 929.00 1173.00 L 927.00 1171.00 L 938.00 1185.00 L 962.00 1215.00 L 964.00 1219.00 L 944.00 1197.00 L 957.00 1214.00 L 1003.00 1270.00 L 1002.00 1269.00 L 954.00 1211.00 L 952.00 1209.00 L 996.00 1263.00 L 998.00 1266.00 L 958.00 1218.00 L 961.00 1223.00 L 1007.00 1281.00 L 1017.00 1294.00 L 991.00 1262.00 L 1007.00 1290.00 L 1065.00 1378.00 L 1084.00 1409.00 L 1064.00 1383.00 L 1064.00 1386.00 L 1084.00 1418.00 L 1098.00 1453.00 L 1106.00 1491.00 L 1107.00 1520.00 L 1101.00 1540.00 L 1091.00 1556.00 L 1077.00 1568.00 L 1058.00 1576.00 L 1034.00 1580.00 L 1004.00 1573.00 L 968.00 1555.00 L 923.00 1528.00 L 869.00 1492.00 L 804.00 1454.00 L 728.00 1414.00 L 641.00 1378.00 L 543.00 1346.00 L 478.00 1327.00 L 446.00 1321.00 L 415.00 1318.00 L 385.00 1318.00 L 362.00 1315.00 L 346.00 1309.00 L 334.00 1298.00 L 326.00 1282.00 L 322.00 1267.00 L 322.00 1253.00 L 325.00 1239.00 L 331.00 1225.00 L 327.00 1216.00 L 313.00 1212.00 L 314.00 1197.00 L 330.00 1171.00 L 338.00 1148.00 L 338.00 1128.00 L 331.00 1118.00 L 317.00 1118.00 L 317.00 1115.00 L 331.00 1109.00 L 330.00 1108.00 L 314.00 1112.00 L 314.00 1110.00 L 330.00 1102.00 L 331.00 1100.00 L 317.00 1104.00 L 311.00 1105.00 L 313.00 1103.00 L 321.00 1099.00 L 335.00 1093.00 L 336.00 1091.00 L 324.00 1093.00 L 319.00 1092.00 L 321.00 1088.00 L 317.00 1086.00 L 307.00 1086.00 L 307.00 1084.00 L 317.00 1080.00 L 315.00 1080.00 L 301.00 1084.00 L 302.00 1083.00 L 318.00 1077.00 L 317.00 1076.00 L 299.00 1080.00 L 299.00 1079.00 L 317.00 1073.00 L 323.00 1070.00 L 317.00 1070.00 L 317.00 1068.00 L 323.00 1064.00 L 316.00 1065.00 L 296.00 1071.00 L 286.00 1071.00 L 286.00 1065.00 L 289.00 1058.00 L 295.00 1050.00 L 302.00 1045.00 L 310.00 1043.00 L 311.00 1042.00 L 305.00 1042.00 L 311.00 1037.00 L 329.00 1027.00 L 343.00 1012.00 L 353.00 992.00 L 360.00 972.00 L 364.00 952.00 L 367.00 939.00 L 369.00 933.00 L 365.00 907.00 Z" fill="black" stroke="black" stroke-width="1"/>
</svg>