<?xml version="1.0" encoding="UTF-8"?>
<svg xmlns="http://www.w3.org/2000/svg" viewBox="397.00 364.00 730.00 1385.00">
  <path d="M 580.00 1020.00 L 584.00 1016.00 L 586.00 1012.00 L 586.00 1008.00 L 581.00 1003.00 L 571.00 997.00 L 560.00 988.00 L 548.00 976.00 L 538.00 961.00 L 530.00 943.00 L 505.00 901.00 L 463.00 835.00 L 435.00 784.00 L 421.00 748.00 L 413.00 714.00 L 411.00 682.00 L 409.00 665.00 L 407.00 663.00 L 408.00 644.00 L 412.00 608.00 L 419.00 575.00 L 429.00 545.00 L 445.00 512.00 L 467.00 476.00 L 492.00 445.00 L 520.00 419.00 L 547.00 400.00 L 573.00 388.00 L 597.00 380.00 L 619.00 376.00 L 665.00 374.00 L 735.00 374.00 L 785.00 380.00 L 815.00 392.00 L 846.00 402.00 L 878.00 410.00 L 922.00 430.00 L 978.00 462.00 L 1012.00 484.00 L 1024.00 496.00 L 1036.00 511.00 L 1048.00 529.00 L 1057.00 544.00 L 1063.00 556.00 L 1065.00 567.00 L 1063.00 577.00 L 1064.00 579.00 L 1068.00 573.00 L 1069.00 574.00 L 1067.00 582.00 L 1068.00 583.00 L 1072.00 577.00 L 1072.00 579.00 L 1068.00 589.00 L 1069.00 590.00 L 1075.00 582.00 L 1076.00 584.00 L 1072.00 596.00 L 1073.00 598.00 L 1079.00 590.00 L 1079.00 592.00 L 1073.00 604.00 L 1073.00 606.00 L 1079.00 598.00 L 1081.00 597.00 L 1079.00 603.00 L 1080.00 604.00 L 1084.00 600.00 L 1083.00 603.00 L 1077.00 613.00 L 1077.00 615.00 L 1083.00 609.00 L 1083.00 611.00 L 1077.00 621.00 L 1078.00 622.00 L 1086.00 614.00 L 1088.00 615.00 L 1084.00 625.00 L 1084.00 628.00 L 1088.00 624.00 L 1087.00 626.00 L 1081.00 634.00 L 1078.00 639.00 L 1078.00 641.00 L 1081.00 640.00 L 1087.00 636.00 L 1087.00 638.00 L 1081.00 646.00 L 1081.00 648.00 L 1087.00 644.00 L 1087.00 647.00 L 1081.00 657.00 L 1078.00 671.00 L 1078.00 689.00 L 1075.00 710.00 L 1069.00 734.00 L 1066.00 754.00 L 1066.00 770.00 L 1078.00 796.00 L 1102.00 832.00 L 1115.00 856.00 L 1117.00 868.00 L 1115.00 879.00 L 1109.00 889.00 L 1097.00 898.00 L 1079.00 906.00 L 1076.00 908.00 L 1088.00 904.00 L 1089.00 906.00 L 1079.00 914.00 L 1076.00 926.00 L 1080.00 942.00 L 1078.00 955.00 L 1070.00 965.00 L 1067.00 972.00 L 1069.00 976.00 L 1065.00 984.00 L 1055.00 996.00 L 1052.00 1010.00 L 1056.00 1026.00 L 1058.00 1040.00 L 1058.00 1052.00 L 1055.00 1064.00 L 1049.00 1076.00 L 1038.00 1087.00 L 1022.00 1097.00 L 1010.00 1102.00 L 1002.00 1102.00 L 986.00 1106.00 L 962.00 1114.00 L 945.00 1118.00 L 935.00 1118.00 L 922.00 1121.00 L 906.00 1127.00 L 889.00 1142.00 L 871.00 1166.00 L 891.00 1243.00 L 949.00 1373.00 L 953.00 1385.00 L 903.00 1279.00 L 906.00 1287.00 L 962.00 1409.00 L 959.00 1403.00 L 897.00 1269.00 L 898.00 1272.00 L 962.00 1412.00 L 961.00 1410.00 L 895.00 1266.00 L 894.00 1264.00 L 958.00 1404.00 L 960.00 1409.00 L 900.00 1279.00 L 903.00 1288.00 L 969.00 1436.00 L 1001.00 1508.00 L 999.00 1504.00 L 1001.00 1513.00 L 1007.00 1535.00 L 1009.00 1544.00 L 1007.00 1540.00 L 1009.00 1561.00 L 1015.00 1607.00 L 1014.00 1650.00 L 1006.00 1690.00 L 999.00 1715.00 L 993.00 1725.00 L 984.00 1733.00 L 972.00 1739.00 L 955.00 1736.00 L 933.00 1724.00 L 895.00 1689.00 L 841.00 1631.00 L 807.00 1598.00 L 793.00 1590.00 L 782.00 1582.00 L 774.00 1574.00 L 764.00 1568.00 L 752.00 1564.00 L 739.00 1557.00 L 725.00 1547.00 L 687.00 1526.00 L 625.00 1494.00 L 569.00 1468.00 L 519.00 1448.00 L 482.00 1435.00 L 458.00 1429.00 L 443.00 1423.00 L 437.00 1417.00 L 445.00 1378.00 L 467.00 1306.00 L 483.00 1258.00 L 493.00 1234.00 L 505.00 1211.00 L 519.00 1189.00 L 527.00 1166.00 L 529.00 1142.00 L 533.00 1119.00 L 539.00 1097.00 L 550.00 1071.00 L 566.00 1041.00 L 575.00 1025.00 L 577.00 1023.00 L 580.00 1020.00 Z" fill="black" stroke="black" stroke-width="1"/>
</svg>