<?xml version="1.0" encoding="UTF-8"?>
<svg xmlns="http://www.w3.org/2000/svg" viewBox="376.00 276.00 809.00 1474.00">
  <path d="M 581.00 954.00 L 583.00 946.00 L 592.00 936.00 L 608.00 924.00 L 618.00 911.00 L 622.00 897.00 L 576.00 866.00 L 480.00 818.00 L 480.00 816.00 L 576.00 860.00 L 568.00 854.00 L 456.00 798.00 L 455.00 796.00 L 565.00 848.00 L 564.00 845.00 L 452.00 787.00 L 425.00 771.00 L 483.00 797.00 L 482.00 794.00 L 422.00 762.00 L 390.00 741.00 L 386.00 731.00 L 388.00 710.00 L 396.00 678.00 L 397.00 640.00 L 391.00 596.00 L 395.00 547.00 L 409.00 493.00 L 427.00 451.00 L 449.00 421.00 L 464.00 385.00 L 472.00 343.00 L 482.00 325.00 L 494.00 331.00 L 510.00 325.00 L 530.00 307.00 L 549.00 303.00 L 567.00 313.00 L 598.00 310.00 L 642.00 294.00 L 684.00 286.00 L 724.00 286.00 L 782.00 295.00 L 858.00 313.00 L 909.00 328.00 L 935.00 340.00 L 978.00 376.00 L 1038.00 436.00 L 1065.00 472.00 L 1059.00 484.00 L 1060.00 486.00 L 1068.00 478.00 L 1070.00 482.00 L 1066.00 498.00 L 1068.00 501.00 L 1076.00 491.00 L 1077.00 493.00 L 1071.00 507.00 L 1072.00 509.00 L 1080.00 499.00 L 1080.00 502.00 L 1072.00 518.00 L 1072.00 521.00 L 1080.00 511.00 L 1082.00 519.00 L 1078.00 545.00 L 1081.00 551.00 L 1091.00 537.00 L 1091.00 539.00 L 1081.00 557.00 L 1081.00 560.00 L 1091.00 548.00 L 1091.00 555.00 L 1081.00 581.00 L 1081.00 590.00 L 1091.00 582.00 L 1092.00 584.00 L 1084.00 596.00 L 1086.00 597.00 L 1098.00 587.00 L 1098.00 590.00 L 1086.00 606.00 L 1087.00 608.00 L 1101.00 596.00 L 1102.00 598.00 L 1090.00 614.00 L 1104.00 650.00 L 1144.00 706.00 L 1164.00 739.00 L 1164.00 749.00 L 1152.00 765.00 L 1128.00 787.00 L 1119.00 807.00 L 1125.00 825.00 L 1121.00 852.00 L 1107.00 888.00 L 1102.00 915.00 L 1106.00 933.00 L 1106.00 952.00 L 1102.00 972.00 L 1088.00 990.00 L 1064.00 1006.00 L 1024.00 1018.00 L 968.00 1026.00 L 933.00 1037.00 L 919.00 1051.00 L 909.00 1067.00 L 903.00 1085.00 L 958.00 1176.00 L 1074.00 1340.00 L 1124.00 1411.00 L 1108.00 1389.00 L 1110.00 1392.00 L 1130.00 1420.00 L 1124.00 1412.00 L 1092.00 1368.00 L 1094.00 1371.00 L 1130.00 1421.00 L 1129.00 1420.00 L 1091.00 1368.00 L 1092.00 1370.00 L 1132.00 1426.00 L 1126.00 1418.00 L 1074.00 1346.00 L 1075.00 1348.00 L 1129.00 1424.00 L 1127.00 1422.00 L 1069.00 1342.00 L 1070.00 1345.00 L 1130.00 1431.00 L 1126.00 1426.00 L 1058.00 1330.00 L 1060.00 1335.00 L 1132.00 1441.00 L 1100.00 1396.00 L 964.00 1200.00 L 965.00 1203.00 L 1103.00 1405.00 L 1173.00 1508.00 L 1175.00 1512.00 L 1130.00 1447.00 L 1038.00 1313.00 L 1039.00 1318.00 L 1133.00 1462.00 L 1130.00 1459.00 L 1030.00 1309.00 L 1031.00 1313.00 L 1133.00 1471.00 L 1112.00 1440.00 L 968.00 1220.00 L 968.00 1222.00 L 1112.00 1446.00 L 1127.00 1470.00 L 1013.00 1294.00 L 1013.00 1299.00 L 1127.00 1485.00 L 1124.00 1482.00 L 1004.00 1290.00 L 1004.00 1292.00 L 1124.00 1488.00 L 1123.00 1487.00 L 1001.00 1289.00 L 1001.00 1291.00 L 1123.00 1493.00 L 1120.00 1490.00 L 992.00 1282.00 L 991.00 1287.00 L 1117.00 1505.00 L 1108.00 1491.00 L 964.00 1245.00 L 963.00 1248.00 L 1105.00 1500.00 L 1108.00 1507.00 L 972.00 1269.00 L 971.00 1272.00 L 1105.00 1516.00 L 1102.00 1511.00 L 962.00 1257.00 L 961.00 1259.00 L 1099.00 1517.00 L 1168.00 1648.00 L 1168.00 1652.00 L 1100.00 1526.00 L 964.00 1270.00 L 963.00 1272.00 L 1097.00 1532.00 L 1153.00 1674.00 L 1131.00 1698.00 L 1096.00 1720.00 L 1048.00 1740.00 L 992.00 1720.00 L 928.00 1660.00 L 858.00 1600.00 L 782.00 1540.00 L 697.00 1482.00 L 603.00 1426.00 L 515.00 1381.00 L 433.00 1347.00 L 405.00 1292.00 L 431.00 1216.00 L 462.00 1143.00 L 498.00 1073.00 L 532.00 1021.00 L 564.00 987.00 L 580.00 967.00 L 580.00 961.00 L 581.00 954.00 Z" fill="black" stroke="black" stroke-width="1"/>
</svg>