<?xml version="1.0" encoding="UTF-8"?>
<svg xmlns="http://www.w3.org/2000/svg" viewBox="272.00 297.00 827.00 1434.00">
  <path d="M 379.00 998.00 L 381.00 974.00 L 385.00 952.00 L 391.00 932.00 L 398.00 917.00 L 406.00 907.00 L 410.00 900.00 L 410.00 896.00 L 405.00 889.00 L 395.00 879.00 L 376.00 852.00 L 348.00 808.00 L 325.00 768.00 L 307.00 732.00 L 294.00 699.00 L 286.00 669.00 L 282.00 646.00 L 282.00 630.00 L 284.00 607.00 L 288.00 577.00 L 296.00 546.00 L 308.00 514.00 L 323.00 484.00 L 341.00 456.00 L 362.00 428.00 L 386.00 400.00 L 416.00 374.00 L 452.00 350.00 L 482.00 332.00 L 506.00 320.00 L 526.00 312.00 L 542.00 308.00 L 560.00 307.00 L 580.00 309.00 L 606.00 309.00 L 638.00 307.00 L 664.00 308.00 L 684.00 312.00 L 706.00 319.00 L 730.00 329.00 L 750.00 335.00 L 766.00 337.00 L 789.00 344.00 L 819.00 356.00 L 847.00 369.00 L 873.00 383.00 L 902.00 404.00 L 934.00 432.00 L 958.00 454.00 L 974.00 470.00 L 988.00 487.00 L 1000.00 505.00 L 1004.00 521.00 L 1000.00 535.00 L 1002.00 536.00 L 1010.00 524.00 L 1010.00 525.00 L 1002.00 539.00 L 1003.00 541.00 L 1013.00 531.00 L 1014.00 534.00 L 1006.00 550.00 L 1007.00 551.00 L 1017.00 537.00 L 1018.00 539.00 L 1010.00 557.00 L 1011.00 559.00 L 1021.00 545.00 L 1021.00 548.00 L 1011.00 568.00 L 1008.00 575.00 L 1012.00 569.00 L 1012.00 570.00 L 1008.00 578.00 L 1012.00 574.00 L 1024.00 558.00 L 1025.00 560.00 L 1015.00 580.00 L 1016.00 583.00 L 1028.00 569.00 L 1028.00 571.00 L 1016.00 589.00 L 1010.00 600.00 L 1010.00 604.00 L 1017.00 598.00 L 1031.00 582.00 L 1031.00 585.00 L 1017.00 607.00 L 1017.00 610.00 L 1031.00 594.00 L 1031.00 596.00 L 1017.00 616.00 L 1017.00 618.00 L 1031.00 602.00 L 1031.00 604.00 L 1017.00 624.00 L 1017.00 625.00 L 1031.00 607.00 L 1031.00 609.00 L 1017.00 631.00 L 1017.00 634.00 L 1031.00 618.00 L 1036.00 614.00 L 1032.00 622.00 L 1032.00 624.00 L 1036.00 620.00 L 1031.00 627.00 L 1017.00 645.00 L 1010.00 657.00 L 1010.00 663.00 L 1013.00 675.00 L 1019.00 693.00 L 1032.00 717.00 L 1052.00 747.00 L 1065.00 770.00 L 1071.00 786.00 L 1072.00 797.00 L 1068.00 803.00 L 1056.00 812.00 L 1036.00 824.00 L 1035.00 825.00 L 1053.00 815.00 L 1052.00 816.00 L 1032.00 828.00 L 1031.00 829.00 L 1049.00 819.00 L 1049.00 821.00 L 1031.00 835.00 L 1023.00 851.00 L 1025.00 869.00 L 1022.00 881.00 L 1014.00 887.00 L 1011.00 890.00 L 1013.00 890.00 L 1012.00 892.00 L 1008.00 896.00 L 1005.00 904.00 L 1003.00 916.00 L 1000.00 924.00 L 996.00 928.00 L 993.00 947.00 L 991.00 981.00 L 987.00 1004.00 L 981.00 1016.00 L 976.00 1024.00 L 972.00 1028.00 L 958.00 1033.00 L 934.00 1039.00 L 923.00 1047.00 L 925.00 1057.00 L 913.00 1079.00 L 887.00 1113.00 L 881.00 1138.00 L 895.00 1154.00 L 899.00 1160.00 L 893.00 1156.00 L 895.00 1159.00 L 905.00 1169.00 L 913.00 1180.00 L 919.00 1192.00 L 928.00 1217.00 L 940.00 1255.00 L 970.00 1320.00 L 1018.00 1412.00 L 1053.00 1486.00 L 1075.00 1542.00 L 1087.00 1589.00 L 1089.00 1627.00 L 1088.00 1655.00 L 1084.00 1673.00 L 1079.00 1686.00 L 1073.00 1694.00 L 1062.00 1704.00 L 1046.00 1716.00 L 1027.00 1721.00 L 1005.00 1719.00 L 958.00 1691.00 L 886.00 1637.00 L 842.00 1608.00 L 826.00 1604.00 L 817.00 1600.00 L 815.00 1596.00 L 813.00 1595.00 L 811.00 1597.00 L 809.00 1596.00 L 807.00 1592.00 L 800.00 1588.00 L 788.00 1584.00 L 775.00 1577.00 L 761.00 1567.00 L 726.00 1552.00 L 670.00 1532.00 L 631.00 1521.00 L 609.00 1519.00 L 592.00 1516.00 L 580.00 1512.00 L 567.00 1510.00 L 553.00 1510.00 L 541.00 1508.00 L 531.00 1504.00 L 514.00 1502.00 L 490.00 1502.00 L 464.00 1500.00 L 436.00 1496.00 L 415.00 1496.00 L 401.00 1500.00 L 386.00 1500.00 L 370.00 1496.00 L 361.00 1495.00 L 359.00 1497.00 L 343.00 1498.00 L 313.00 1498.00 L 297.00 1492.00 L 295.00 1480.00 L 301.00 1436.00 L 315.00 1360.00 L 333.00 1293.00 L 355.00 1235.00 L 367.00 1192.00 L 369.00 1164.00 L 372.00 1144.00 L 376.00 1132.00 L 376.00 1114.00 L 372.00 1090.00 L 371.00 1063.00 L 373.00 1033.00 L 375.00 1016.00 L 377.00 1012.00 L 379.00 998.00 Z" fill="black" stroke="black" stroke-width="1"/>
</svg>