<?xml version="1.0" encoding="UTF-8"?>
<svg xmlns="http://www.w3.org/2000/svg" viewBox="321.00 255.00 938.00 1513.00">
  <path d="M 373.00 1001.00 L 379.00 983.00 L 378.00 961.00 L 370.00 935.00 L 370.00 915.00 L 378.00 901.00 L 379.00 888.00 L 373.00 876.00 L 372.00 853.00 L 376.00 819.00 L 364.00 792.00 L 336.00 772.00 L 337.00 770.00 L 367.00 786.00 L 366.00 784.00 L 334.00 764.00 L 331.00 760.00 L 357.00 772.00 L 357.00 769.00 L 331.00 751.00 L 334.00 752.00 L 366.00 772.00 L 367.00 770.00 L 337.00 746.00 L 345.00 709.00 L 391.00 659.00 L 415.00 607.00 L 417.00 553.00 L 435.00 497.00 L 469.00 439.00 L 487.00 400.00 L 489.00 380.00 L 492.00 374.00 L 496.00 382.00 L 499.00 379.00 L 501.00 365.00 L 504.00 360.00 L 508.00 364.00 L 512.00 360.00 L 516.00 348.00 L 519.00 345.00 L 521.00 351.00 L 529.00 346.00 L 543.00 330.00 L 588.00 310.00 L 664.00 286.00 L 749.00 271.00 L 843.00 265.00 L 928.00 270.00 L 1004.00 286.00 L 1055.00 300.00 L 1081.00 312.00 L 1106.00 329.00 L 1130.00 351.00 L 1160.00 388.00 L 1196.00 440.00 L 1223.00 495.00 L 1241.00 553.00 L 1249.00 602.00 L 1247.00 642.00 L 1225.00 717.00 L 1183.00 827.00 L 1161.00 890.00 L 1159.00 906.00 L 1163.00 926.00 L 1173.00 950.00 L 1163.00 964.00 L 1133.00 968.00 L 1121.00 971.00 L 1127.00 973.00 L 1128.00 975.00 L 1124.00 977.00 L 1137.00 977.00 L 1167.00 975.00 L 1168.00 977.00 L 1140.00 983.00 L 1143.00 987.00 L 1177.00 989.00 L 1177.00 992.00 L 1143.00 996.00 L 1144.00 998.00 L 1180.00 998.00 L 1181.00 1000.00 L 1147.00 1004.00 L 1149.00 1007.00 L 1187.00 1009.00 L 1188.00 1012.00 L 1152.00 1016.00 L 1153.00 1020.00 L 1191.00 1024.00 L 1193.00 1027.00 L 1159.00 1029.00 L 1159.00 1031.00 L 1193.00 1033.00 L 1202.00 1034.00 L 1186.00 1034.00 L 1186.00 1036.00 L 1202.00 1040.00 L 1195.00 1042.00 L 1165.00 1042.00 L 1165.00 1044.00 L 1195.00 1048.00 L 1196.00 1050.00 L 1168.00 1050.00 L 1166.00 1053.00 L 1190.00 1059.00 L 1190.00 1062.00 L 1166.00 1062.00 L 1163.00 1098.00 L 1181.00 1170.00 L 1188.00 1213.00 L 1184.00 1227.00 L 1178.00 1236.00 L 1170.00 1240.00 L 1177.00 1268.00 L 1199.00 1320.00 L 1207.00 1365.00 L 1201.00 1403.00 L 1192.00 1428.00 L 1180.00 1440.00 L 1110.00 1452.00 L 982.00 1464.00 L 879.00 1481.00 L 801.00 1503.00 L 716.00 1536.00 L 624.00 1580.00 L 569.00 1608.00 L 551.00 1620.00 L 515.00 1655.00 L 461.00 1713.00 L 427.00 1746.00 L 413.00 1754.00 L 399.00 1758.00 L 385.00 1758.00 L 374.00 1752.00 L 366.00 1740.00 L 361.00 1720.00 L 359.00 1692.00 L 367.00 1651.00 L 385.00 1597.00 L 389.00 1571.00 L 379.00 1573.00 L 372.00 1571.00 L 368.00 1565.00 L 374.00 1550.00 L 390.00 1526.00 L 389.00 1524.00 L 371.00 1544.00 L 366.00 1546.00 L 374.00 1530.00 L 374.00 1527.00 L 366.00 1537.00 L 366.00 1535.00 L 374.00 1521.00 L 375.00 1513.00 L 369.00 1511.00 L 379.00 1492.00 L 405.00 1456.00 L 405.00 1455.00 L 379.00 1489.00 L 376.00 1489.00 L 396.00 1455.00 L 396.00 1450.00 L 376.00 1474.00 L 371.00 1478.00 L 381.00 1462.00 L 381.00 1459.00 L 371.00 1469.00 L 383.00 1452.00 L 417.00 1408.00 L 423.00 1399.00 L 401.00 1425.00 L 402.00 1423.00 L 426.00 1393.00 L 427.00 1390.00 L 405.00 1414.00 L 410.00 1401.00 L 442.00 1351.00 L 448.00 1337.00 L 428.00 1359.00 L 433.00 1351.00 L 463.00 1313.00 L 463.00 1310.00 L 433.00 1342.00 L 438.00 1331.00 L 478.00 1277.00 L 481.00 1265.00 L 447.00 1295.00 L 444.00 1295.00 L 472.00 1265.00 L 470.00 1264.00 L 438.00 1292.00 L 441.00 1287.00 L 479.00 1249.00 L 481.00 1245.00 L 447.00 1275.00 L 451.00 1270.00 L 493.00 1230.00 L 494.00 1227.00 L 454.00 1261.00 L 448.00 1265.00 L 476.00 1239.00 L 477.00 1237.00 L 451.00 1259.00 L 447.00 1262.00 L 465.00 1246.00 L 466.00 1244.00 L 450.00 1256.00 L 460.00 1246.00 L 496.00 1214.00 L 497.00 1212.00 L 463.00 1240.00 L 459.00 1240.00 L 485.00 1212.00 L 492.00 1201.00 L 480.00 1207.00 L 488.00 1197.00 L 516.00 1171.00 L 514.00 1169.00 L 482.00 1191.00 L 481.00 1189.00 L 511.00 1163.00 L 494.00 1134.00 L 430.00 1102.00 L 391.00 1077.00 L 377.00 1059.00 L 369.00 1042.00 L 367.00 1026.00 L 367.00 1016.00 L 369.00 1012.00 L 373.00 1001.00 Z" fill="black" stroke="black" stroke-width="1"/>
</svg>