<?xml version="1.0" encoding="UTF-8"?>
<svg xmlns="http://www.w3.org/2000/svg" viewBox="292.00 285.00 749.00 1378.00">
  <path d="M 428.00 923.00 L 432.00 893.00 L 430.00 874.00 L 422.00 866.00 L 423.00 863.00 L 433.00 865.00 L 433.00 863.00 L 423.00 857.00 L 400.00 827.00 L 364.00 773.00 L 340.00 734.00 L 328.00 710.00 L 317.00 679.00 L 307.00 641.00 L 302.00 606.00 L 302.00 574.00 L 306.00 541.00 L 314.00 507.00 L 325.00 476.00 L 339.00 448.00 L 354.00 423.00 L 370.00 401.00 L 387.00 383.00 L 405.00 369.00 L 438.00 349.00 L 486.00 323.00 L 524.00 310.00 L 552.00 310.00 L 582.00 306.00 L 614.00 298.00 L 650.00 295.00 L 690.00 297.00 L 715.00 299.00 L 725.00 301.00 L 741.00 309.00 L 763.00 323.00 L 788.00 334.00 L 816.00 342.00 L 840.00 351.00 L 860.00 361.00 L 877.00 373.00 L 891.00 387.00 L 907.00 398.00 L 925.00 406.00 L 946.00 420.00 L 970.00 440.00 L 989.00 462.00 L 1003.00 486.00 L 1008.00 505.00 L 1004.00 519.00 L 1006.00 521.00 L 1014.00 511.00 L 1015.00 513.00 L 1009.00 527.00 L 1010.00 529.00 L 1018.00 519.00 L 1018.00 520.00 L 1010.00 532.00 L 1011.00 534.00 L 1021.00 526.00 L 1023.00 527.00 L 1017.00 537.00 L 1017.00 539.00 L 1023.00 533.00 L 1022.00 536.00 L 1014.00 548.00 L 1011.00 553.00 L 1013.00 551.00 L 1014.00 552.00 L 1014.00 556.00 L 1018.00 553.00 L 1026.00 543.00 L 1027.00 545.00 L 1021.00 559.00 L 1022.00 562.00 L 1030.00 554.00 L 1029.00 557.00 L 1019.00 571.00 L 1019.00 572.00 L 1029.00 560.00 L 1029.00 562.00 L 1019.00 578.00 L 1014.00 587.00 L 1014.00 589.00 L 1019.00 584.00 L 1029.00 572.00 L 1029.00 575.00 L 1019.00 593.00 L 1017.00 599.00 L 1023.00 593.00 L 1022.00 595.00 L 1014.00 605.00 L 1017.00 602.00 L 1031.00 586.00 L 1029.00 592.00 L 1011.00 620.00 L 998.00 647.00 L 990.00 673.00 L 987.00 696.00 L 989.00 716.00 L 998.00 735.00 L 1014.00 753.00 L 1022.00 767.00 L 1022.00 777.00 L 1020.00 785.00 L 1016.00 791.00 L 1009.00 797.00 L 999.00 803.00 L 998.00 804.00 L 1006.00 800.00 L 1005.00 801.00 L 995.00 807.00 L 990.00 816.00 L 990.00 828.00 L 992.00 837.00 L 996.00 843.00 L 998.00 850.00 L 998.00 858.00 L 992.00 867.00 L 980.00 877.00 L 974.00 888.00 L 974.00 900.00 L 969.00 914.00 L 959.00 930.00 L 950.00 953.00 L 942.00 983.00 L 933.00 1003.00 L 923.00 1013.00 L 910.00 1021.00 L 894.00 1027.00 L 890.00 1033.00 L 898.00 1039.00 L 903.00 1045.00 L 905.00 1051.00 L 900.00 1060.00 L 888.00 1072.00 L 887.00 1086.00 L 897.00 1102.00 L 895.00 1105.00 L 881.00 1095.00 L 882.00 1099.00 L 898.00 1117.00 L 899.00 1120.00 L 885.00 1108.00 L 884.00 1109.00 L 896.00 1123.00 L 893.00 1122.00 L 875.00 1106.00 L 874.00 1107.00 L 890.00 1125.00 L 891.00 1127.00 L 877.00 1113.00 L 876.00 1114.00 L 888.00 1130.00 L 886.00 1130.00 L 870.00 1114.00 L 873.00 1122.00 L 895.00 1154.00 L 899.00 1163.00 L 885.00 1149.00 L 886.00 1152.00 L 902.00 1172.00 L 900.00 1170.00 L 880.00 1146.00 L 891.00 1160.00 L 933.00 1212.00 L 943.00 1226.00 L 921.00 1202.00 L 920.00 1204.00 L 940.00 1232.00 L 942.00 1237.00 L 926.00 1219.00 L 924.00 1218.00 L 936.00 1234.00 L 941.00 1241.00 L 939.00 1239.00 L 938.00 1241.00 L 938.00 1247.00 L 930.00 1247.00 L 914.00 1241.00 L 901.00 1233.00 L 891.00 1223.00 L 889.00 1228.00 L 895.00 1248.00 L 920.00 1299.00 L 964.00 1381.00 L 985.00 1421.00 L 983.00 1419.00 L 991.00 1440.00 L 1009.00 1484.00 L 1020.00 1513.00 L 1024.00 1527.00 L 1027.00 1548.00 L 1029.00 1576.00 L 1029.00 1595.00 L 1027.00 1605.00 L 1021.00 1617.00 L 1011.00 1631.00 L 998.00 1642.00 L 982.00 1650.00 L 961.00 1653.00 L 935.00 1651.00 L 911.00 1645.00 L 889.00 1635.00 L 861.00 1618.00 L 827.00 1594.00 L 794.00 1573.00 L 762.00 1555.00 L 740.00 1544.00 L 728.00 1540.00 L 698.00 1525.00 L 650.00 1499.00 L 616.00 1485.00 L 596.00 1483.00 L 562.00 1475.00 L 514.00 1461.00 L 487.00 1452.00 L 481.00 1448.00 L 451.00 1443.00 L 397.00 1437.00 L 367.00 1432.00 L 361.00 1428.00 L 360.00 1395.00 L 364.00 1333.00 L 371.00 1279.00 L 381.00 1233.00 L 392.00 1191.00 L 404.00 1153.00 L 412.00 1120.00 L 416.00 1092.00 L 421.00 1070.00 L 427.00 1054.00 L 428.00 1040.00 L 424.00 1028.00 L 423.00 1004.00 L 425.00 968.00 L 426.00 947.00 L 426.00 941.00 L 428.00 923.00 Z" fill="black" stroke="black" stroke-width="1"/>
</svg>