<?xml version="1.0" encoding="UTF-8"?>
<svg xmlns="http://www.w3.org/2000/svg" viewBox="385.00 233.00 834.00 1462.00">
  <path d="M 645.00 952.00 L 619.00 948.00 L 619.00 946.00 L 645.00 946.00 L 644.00 945.00 L 616.00 943.00 L 601.00 941.00 L 599.00 939.00 L 612.00 938.00 L 640.00 938.00 L 639.00 936.00 L 609.00 932.00 L 607.00 931.00 L 633.00 933.00 L 633.00 932.00 L 607.00 928.00 L 608.00 927.00 L 636.00 929.00 L 635.00 927.00 L 605.00 921.00 L 606.00 920.00 L 638.00 924.00 L 638.00 923.00 L 606.00 917.00 L 606.00 916.00 L 638.00 920.00 L 638.00 917.00 L 606.00 907.00 L 605.00 905.00 L 635.00 911.00 L 635.00 909.00 L 605.00 899.00 L 572.00 880.00 L 536.00 852.00 L 505.00 825.00 L 479.00 799.00 L 456.00 771.00 L 436.00 741.00 L 424.00 721.00 L 420.00 711.00 L 413.00 683.00 L 403.00 637.00 L 397.00 600.00 L 395.00 572.00 L 399.00 538.00 L 409.00 498.00 L 423.00 458.00 L 441.00 418.00 L 460.00 385.00 L 480.00 359.00 L 503.00 338.00 L 529.00 322.00 L 551.00 306.00 L 569.00 290.00 L 586.00 277.00 L 602.00 267.00 L 616.00 260.00 L 628.00 256.00 L 659.00 251.00 L 709.00 245.00 L 744.00 243.00 L 764.00 245.00 L 783.00 249.00 L 801.00 255.00 L 828.00 259.00 L 864.00 261.00 L 895.00 267.00 L 921.00 277.00 L 949.00 290.00 L 979.00 306.00 L 1001.00 316.00 L 1015.00 320.00 L 1035.00 330.00 L 1061.00 346.00 L 1086.00 366.00 L 1110.00 390.00 L 1121.00 405.00 L 1119.00 411.00 L 1126.00 425.00 L 1142.00 447.00 L 1153.00 476.00 L 1159.00 512.00 L 1162.00 540.00 L 1162.00 560.00 L 1158.00 586.00 L 1150.00 618.00 L 1146.00 640.00 L 1146.00 652.00 L 1150.00 667.00 L 1158.00 685.00 L 1172.00 709.00 L 1192.00 739.00 L 1202.00 757.00 L 1202.00 763.00 L 1193.00 776.00 L 1175.00 796.00 L 1167.00 819.00 L 1169.00 845.00 L 1166.00 862.00 L 1158.00 870.00 L 1151.00 875.00 L 1145.00 877.00 L 1144.00 884.00 L 1148.00 896.00 L 1145.00 914.00 L 1135.00 938.00 L 1131.00 953.00 L 1133.00 959.00 L 1132.00 969.00 L 1128.00 983.00 L 1119.00 997.00 L 1105.00 1011.00 L 1093.00 1021.00 L 1083.00 1027.00 L 1059.00 1034.00 L 1021.00 1042.00 L 990.00 1047.00 L 966.00 1049.00 L 951.00 1067.00 L 945.00 1101.00 L 994.00 1204.00 L 1098.00 1376.00 L 1143.00 1451.00 L 1129.00 1429.00 L 1131.00 1433.00 L 1149.00 1463.00 L 1145.00 1457.00 L 1119.00 1415.00 L 1121.00 1419.00 L 1151.00 1469.00 L 1150.00 1468.00 L 1118.00 1416.00 L 1119.00 1418.00 L 1153.00 1474.00 L 1151.00 1471.00 L 1113.00 1409.00 L 1114.00 1412.00 L 1154.00 1480.00 L 1116.00 1418.00 L 1000.00 1226.00 L 1002.00 1230.00 L 1122.00 1430.00 L 1135.00 1452.00 L 1041.00 1296.00 L 1042.00 1299.00 L 1138.00 1461.00 L 1135.00 1457.00 L 1033.00 1287.00 L 1035.00 1292.00 L 1141.00 1472.00 L 1139.00 1469.00 L 1029.00 1283.00 L 1031.00 1289.00 L 1145.00 1487.00 L 1142.00 1483.00 L 1022.00 1277.00 L 1023.00 1282.00 L 1145.00 1498.00 L 1140.00 1490.00 L 1008.00 1258.00 L 1009.00 1262.00 L 1143.00 1502.00 L 1146.00 1508.00 L 1018.00 1280.00 L 1018.00 1283.00 L 1146.00 1517.00 L 1209.00 1641.00 L 1207.00 1655.00 L 1202.00 1667.00 L 1194.00 1677.00 L 1187.00 1683.00 L 1181.00 1685.00 L 1172.00 1684.00 L 1160.00 1680.00 L 1144.00 1670.00 L 1124.00 1654.00 L 1110.00 1641.00 L 1102.00 1631.00 L 1038.00 1594.00 L 918.00 1530.00 L 814.00 1484.00 L 726.00 1456.00 L 642.00 1437.00 L 562.00 1427.00 L 530.00 1393.00 L 546.00 1335.00 L 553.00 1307.00 L 551.00 1309.00 L 554.00 1300.00 L 562.00 1280.00 L 568.00 1257.00 L 572.00 1231.00 L 579.00 1207.00 L 589.00 1185.00 L 598.00 1156.00 L 606.00 1120.00 L 615.00 1096.00 L 625.00 1084.00 L 628.00 1079.00 L 624.00 1081.00 L 625.00 1079.00 L 631.00 1073.00 L 637.00 1063.00 L 643.00 1049.00 L 649.00 1031.00 L 655.00 1009.00 L 658.00 990.00 L 658.00 974.00 L 658.00 963.00 L 658.00 957.00 L 645.00 952.00 Z" fill="black" stroke="black" stroke-width="1"/>
</svg>