<?xml version="1.0" encoding="UTF-8"?>
<svg xmlns="http://www.w3.org/2000/svg" viewBox="301.00 317.00 867.00 1406.00">
  <path d="M 574.00 988.00 L 566.00 972.00 L 547.00 954.00 L 517.00 934.00 L 494.00 911.00 L 478.00 885.00 L 443.00 857.00 L 389.00 827.00 L 388.00 824.00 L 440.00 848.00 L 437.00 845.00 L 379.00 815.00 L 378.00 813.00 L 434.00 839.00 L 432.00 837.00 L 372.00 807.00 L 341.00 790.00 L 339.00 786.00 L 368.00 799.00 L 428.00 829.00 L 425.00 825.00 L 359.00 787.00 L 321.00 747.00 L 311.00 705.00 L 327.00 640.00 L 369.00 552.00 L 415.00 483.00 L 465.00 433.00 L 494.00 396.00 L 502.00 372.00 L 516.00 362.00 L 536.00 366.00 L 555.00 360.00 L 573.00 344.00 L 592.00 333.00 L 612.00 327.00 L 628.00 346.00 L 640.00 390.00 L 642.00 391.00 L 634.00 349.00 L 635.00 348.00 L 645.00 388.00 L 647.00 390.00 L 641.00 354.00 L 644.00 354.00 L 656.00 390.00 L 659.00 389.00 L 653.00 351.00 L 656.00 350.00 L 668.00 386.00 L 671.00 385.00 L 665.00 347.00 L 665.00 345.00 L 671.00 379.00 L 676.00 396.00 L 680.00 396.00 L 680.00 379.00 L 676.00 345.00 L 677.00 347.00 L 683.00 385.00 L 686.00 386.00 L 686.00 350.00 L 689.00 350.00 L 695.00 386.00 L 697.00 386.00 L 695.00 350.00 L 697.00 350.00 L 703.00 386.00 L 705.00 387.00 L 703.00 353.00 L 706.00 353.00 L 714.00 387.00 L 718.00 391.00 L 718.00 365.00 L 720.00 365.00 L 724.00 391.00 L 749.00 408.00 L 795.00 416.00 L 844.00 429.00 L 896.00 447.00 L 959.00 478.00 L 1033.00 522.00 L 1079.00 556.00 L 1097.00 580.00 L 1103.00 597.00 L 1097.00 607.00 L 1096.00 610.00 L 1100.00 606.00 L 1106.00 633.00 L 1114.00 691.00 L 1116.00 743.00 L 1112.00 789.00 L 1123.00 841.00 L 1149.00 899.00 L 1158.00 934.00 L 1150.00 946.00 L 1140.00 954.00 L 1128.00 958.00 L 1120.00 973.00 L 1116.00 999.00 L 1109.00 1016.00 L 1099.00 1024.00 L 1096.00 1033.00 L 1100.00 1043.00 L 1097.00 1054.00 L 1087.00 1066.00 L 1082.00 1081.00 L 1082.00 1099.00 L 1078.00 1115.00 L 1070.00 1129.00 L 1045.00 1141.00 L 1003.00 1151.00 L 969.00 1155.00 L 943.00 1153.00 L 920.00 1159.00 L 900.00 1173.00 L 893.00 1188.00 L 899.00 1204.00 L 898.00 1207.00 L 890.00 1197.00 L 939.00 1297.00 L 1045.00 1507.00 L 1043.00 1511.00 L 933.00 1309.00 L 933.00 1312.00 L 1043.00 1520.00 L 1089.00 1608.00 L 1071.00 1576.00 L 1072.00 1579.00 L 1092.00 1617.00 L 1089.00 1614.00 L 1063.00 1570.00 L 1062.00 1575.00 L 1086.00 1629.00 L 1083.00 1627.00 L 1053.00 1569.00 L 1053.00 1571.00 L 1083.00 1633.00 L 1080.00 1631.00 L 1044.00 1565.00 L 1043.00 1567.00 L 1077.00 1637.00 L 1039.00 1560.00 L 929.00 1336.00 L 928.00 1339.00 L 1036.00 1569.00 L 1071.00 1644.00 L 1033.00 1564.00 L 1032.00 1567.00 L 1068.00 1653.00 L 1065.00 1652.00 L 1023.00 1564.00 L 1021.00 1566.00 L 1059.00 1658.00 L 1026.00 1586.00 L 922.00 1350.00 L 921.00 1352.00 L 1023.00 1592.00 L 1023.00 1595.00 L 921.00 1361.00 L 919.00 1366.00 L 1017.00 1610.00 L 1041.00 1673.00 L 991.00 1555.00 L 988.00 1554.00 L 1032.00 1670.00 L 1007.00 1609.00 L 913.00 1371.00 L 911.00 1370.00 L 1001.00 1606.00 L 1001.00 1607.00 L 911.00 1373.00 L 909.00 1372.00 L 995.00 1604.00 L 1015.00 1660.00 L 969.00 1540.00 L 968.00 1539.00 L 1012.00 1657.00 L 1030.00 1713.00 L 1022.00 1707.00 L 997.00 1646.00 L 955.00 1530.00 L 953.00 1528.00 L 991.00 1640.00 L 973.00 1590.00 L 899.00 1378.00 L 897.00 1377.00 L 967.00 1587.00 L 981.00 1633.00 L 939.00 1515.00 L 935.00 1512.00 L 969.00 1624.00 L 954.00 1580.00 L 890.00 1380.00 L 889.00 1379.00 L 951.00 1577.00 L 951.00 1578.00 L 889.00 1382.00 L 887.00 1381.00 L 945.00 1575.00 L 944.00 1578.00 L 884.00 1390.00 L 880.00 1387.00 L 932.00 1569.00 L 932.00 1571.00 L 880.00 1393.00 L 877.00 1391.00 L 923.00 1565.00 L 923.00 1568.00 L 877.00 1400.00 L 876.00 1399.00 L 920.00 1565.00 L 919.00 1566.00 L 873.00 1402.00 L 870.00 1400.00 L 910.00 1560.00 L 911.00 1565.00 L 873.00 1415.00 L 870.00 1413.00 L 902.00 1559.00 L 884.00 1613.00 L 816.00 1575.00 L 712.00 1533.00 L 572.00 1487.00 L 499.00 1453.00 L 493.00 1431.00 L 495.00 1399.00 L 505.00 1357.00 L 508.00 1338.00 L 504.00 1342.00 L 508.00 1335.00 L 520.00 1317.00 L 542.00 1259.00 L 574.00 1161.00 L 588.00 1086.00 L 584.00 1034.00 L 581.00 1005.00 L 579.00 999.00 L 574.00 988.00 Z" fill="black" stroke="black" stroke-width="1"/>
</svg>