<?xml version="1.0" encoding="UTF-8"?>
<svg xmlns="http://www.w3.org/2000/svg" viewBox="206.00 229.00 934.00 1608.00">
  <path d="M 475.00 1004.00 L 477.00 992.00 L 483.00 980.00 L 493.00 968.00 L 499.00 958.00 L 501.00 950.00 L 485.00 940.00 L 451.00 928.00 L 448.00 926.00 L 476.00 934.00 L 474.00 932.00 L 442.00 920.00 L 445.00 920.00 L 483.00 932.00 L 466.00 925.00 L 394.00 899.00 L 373.00 891.00 L 403.00 901.00 L 400.00 898.00 L 364.00 882.00 L 342.00 861.00 L 334.00 835.00 L 320.00 804.00 L 300.00 768.00 L 288.00 736.00 L 284.00 708.00 L 275.00 684.00 L 261.00 664.00 L 251.00 640.00 L 245.00 612.00 L 235.00 587.00 L 221.00 565.00 L 216.00 545.00 L 220.00 527.00 L 226.00 510.00 L 234.00 494.00 L 249.00 472.00 L 271.00 444.00 L 297.00 403.00 L 327.00 349.00 L 351.00 317.00 L 369.00 307.00 L 390.00 292.00 L 414.00 272.00 L 436.00 257.00 L 456.00 247.00 L 477.00 241.00 L 499.00 239.00 L 521.00 243.00 L 543.00 253.00 L 570.00 269.00 L 602.00 291.00 L 633.00 304.00 L 663.00 308.00 L 691.00 317.00 L 717.00 331.00 L 750.00 340.00 L 790.00 344.00 L 826.00 346.00 L 858.00 346.00 L 880.00 348.00 L 892.00 352.00 L 902.00 356.00 L 910.00 360.00 L 914.00 370.00 L 914.00 386.00 L 917.00 387.00 L 923.00 373.00 L 925.00 374.00 L 923.00 390.00 L 925.00 390.00 L 931.00 374.00 L 932.00 375.00 L 928.00 393.00 L 930.00 393.00 L 938.00 375.00 L 940.00 372.00 L 936.00 384.00 L 936.00 389.00 L 940.00 387.00 L 945.00 380.00 L 951.00 368.00 L 950.00 373.00 L 942.00 395.00 L 945.00 393.00 L 959.00 367.00 L 961.00 369.00 L 951.00 399.00 L 951.00 402.00 L 961.00 378.00 L 964.00 379.00 L 960.00 405.00 L 964.00 422.00 L 976.00 430.00 L 992.00 444.00 L 1012.00 464.00 L 1032.00 489.00 L 1052.00 519.00 L 1073.00 545.00 L 1095.00 567.00 L 1102.00 585.00 L 1094.00 599.00 L 1094.00 602.00 L 1102.00 594.00 L 1101.00 597.00 L 1091.00 611.00 L 1088.00 630.00 L 1092.00 654.00 L 1091.00 675.00 L 1085.00 693.00 L 1081.00 712.00 L 1079.00 732.00 L 1080.00 748.00 L 1084.00 760.00 L 1092.00 776.00 L 1104.00 796.00 L 1115.00 820.00 L 1125.00 848.00 L 1130.00 865.00 L 1130.00 871.00 L 1128.00 877.00 L 1124.00 883.00 L 1109.00 891.00 L 1083.00 901.00 L 1077.00 904.00 L 1091.00 900.00 L 1090.00 903.00 L 1074.00 913.00 L 1066.00 927.00 L 1066.00 945.00 L 1063.00 957.00 L 1057.00 963.00 L 1055.00 971.00 L 1057.00 981.00 L 1054.00 994.00 L 1046.00 1010.00 L 1045.00 1026.00 L 1051.00 1042.00 L 1051.00 1058.00 L 1045.00 1074.00 L 1037.00 1086.00 L 1027.00 1094.00 L 1011.00 1099.00 L 989.00 1101.00 L 968.00 1108.00 L 948.00 1120.00 L 933.00 1126.00 L 923.00 1126.00 L 910.00 1132.00 L 894.00 1144.00 L 884.00 1154.00 L 880.00 1162.00 L 889.00 1179.00 L 911.00 1205.00 L 933.00 1234.00 L 955.00 1266.00 L 964.00 1280.00 L 960.00 1276.00 L 965.00 1286.00 L 979.00 1310.00 L 991.00 1336.00 L 1001.00 1364.00 L 1020.00 1398.00 L 1048.00 1438.00 L 1061.00 1457.00 L 1059.00 1455.00 L 1065.00 1466.00 L 1079.00 1490.00 L 1095.00 1526.00 L 1113.00 1574.00 L 1124.00 1612.00 L 1128.00 1640.00 L 1128.00 1668.00 L 1124.00 1696.00 L 1118.00 1719.00 L 1110.00 1737.00 L 1100.00 1754.00 L 1088.00 1770.00 L 1071.00 1788.00 L 1049.00 1808.00 L 1033.00 1821.00 L 1023.00 1827.00 L 977.00 1797.00 L 895.00 1731.00 L 841.00 1690.00 L 815.00 1674.00 L 778.00 1655.00 L 730.00 1633.00 L 660.00 1608.00 L 568.00 1580.00 L 494.00 1562.00 L 438.00 1554.00 L 397.00 1550.00 L 371.00 1550.00 L 357.00 1549.00 L 355.00 1547.00 L 352.00 1547.00 L 348.00 1549.00 L 344.00 1549.00 L 340.00 1547.00 L 339.00 1517.00 L 341.00 1459.00 L 349.00 1389.00 L 363.00 1307.00 L 377.00 1248.00 L 391.00 1212.00 L 400.00 1181.00 L 404.00 1155.00 L 412.00 1132.00 L 424.00 1112.00 L 431.00 1094.00 L 433.00 1078.00 L 436.00 1066.00 L 440.00 1058.00 L 450.00 1047.00 L 466.00 1033.00 L 474.00 1024.00 L 474.00 1020.00 L 474.00 1016.00 L 474.00 1012.00 L 475.00 1004.00 Z" fill="black" stroke="black" stroke-width="1"/>
</svg>