<?xml version="1.0" encoding="UTF-8"?>
<svg xmlns="http://www.w3.org/2000/svg" viewBox="182.00 185.00 858.00 1646.00">
  <path d="M 304.00 983.00 L 316.00 937.00 L 326.00 907.00 L 334.00 893.00 L 344.00 882.00 L 356.00 874.00 L 350.00 861.00 L 326.00 843.00 L 326.00 840.00 L 350.00 852.00 L 347.00 848.00 L 317.00 828.00 L 300.00 810.00 L 296.00 794.00 L 290.00 780.00 L 282.00 768.00 L 274.00 744.00 L 266.00 708.00 L 256.00 677.00 L 244.00 651.00 L 237.00 617.00 L 235.00 575.00 L 239.00 517.00 L 249.00 443.00 L 267.00 379.00 L 293.00 325.00 L 331.00 273.00 L 381.00 223.00 L 413.00 203.00 L 427.00 213.00 L 446.00 213.00 L 470.00 203.00 L 491.00 197.00 L 509.00 195.00 L 537.00 195.00 L 575.00 197.00 L 619.00 206.00 L 669.00 222.00 L 706.00 239.00 L 730.00 257.00 L 756.00 272.00 L 784.00 284.00 L 818.00 307.00 L 858.00 341.00 L 889.00 372.00 L 911.00 400.00 L 919.00 421.00 L 913.00 435.00 L 910.00 444.00 L 910.00 448.00 L 912.00 449.00 L 916.00 447.00 L 917.00 449.00 L 915.00 455.00 L 919.00 450.00 L 929.00 434.00 L 929.00 436.00 L 919.00 456.00 L 920.00 458.00 L 932.00 442.00 L 933.00 444.00 L 923.00 464.00 L 924.00 466.00 L 936.00 450.00 L 937.00 453.00 L 927.00 475.00 L 928.00 478.00 L 940.00 462.00 L 941.00 465.00 L 931.00 487.00 L 932.00 490.00 L 944.00 474.00 L 945.00 477.00 L 935.00 499.00 L 936.00 500.00 L 948.00 480.00 L 948.00 482.00 L 936.00 506.00 L 936.00 510.00 L 948.00 494.00 L 949.00 497.00 L 939.00 519.00 L 940.00 522.00 L 952.00 506.00 L 952.00 509.00 L 940.00 531.00 L 940.00 534.00 L 952.00 518.00 L 952.00 523.00 L 940.00 549.00 L 941.00 552.00 L 955.00 532.00 L 961.00 525.00 L 959.00 531.00 L 960.00 533.00 L 964.00 531.00 L 959.00 541.00 L 945.00 563.00 L 938.00 577.00 L 938.00 583.00 L 952.00 604.00 L 980.00 640.00 L 1006.00 678.00 L 1030.00 718.00 L 1027.00 749.00 L 997.00 771.00 L 996.00 774.00 L 1024.00 758.00 L 1023.00 761.00 L 993.00 783.00 L 991.00 787.00 L 1017.00 773.00 L 1018.00 776.00 L 994.00 796.00 L 982.00 811.00 L 982.00 821.00 L 979.00 829.00 L 973.00 835.00 L 972.00 843.00 L 976.00 853.00 L 977.00 863.00 L 975.00 873.00 L 966.00 883.00 L 950.00 893.00 L 944.00 908.00 L 948.00 928.00 L 948.00 944.00 L 944.00 956.00 L 936.00 969.00 L 924.00 983.00 L 908.00 994.00 L 888.00 1002.00 L 882.00 1011.00 L 890.00 1021.00 L 894.00 1030.00 L 894.00 1038.00 L 882.00 1055.00 L 858.00 1081.00 L 843.00 1103.00 L 837.00 1121.00 L 830.00 1134.00 L 822.00 1142.00 L 828.00 1167.00 L 848.00 1209.00 L 859.00 1238.00 L 861.00 1254.00 L 886.00 1295.00 L 934.00 1361.00 L 957.00 1393.00 L 955.00 1391.00 L 960.00 1401.00 L 972.00 1423.00 L 985.00 1454.00 L 999.00 1494.00 L 1011.00 1547.00 L 1021.00 1613.00 L 1024.00 1664.00 L 1020.00 1700.00 L 1010.00 1736.00 L 994.00 1772.00 L 974.00 1798.00 L 950.00 1814.00 L 927.00 1821.00 L 905.00 1819.00 L 882.00 1812.00 L 858.00 1800.00 L 837.00 1787.00 L 819.00 1773.00 L 807.00 1761.00 L 801.00 1751.00 L 787.00 1740.00 L 765.00 1728.00 L 702.00 1700.00 L 598.00 1656.00 L 519.00 1626.00 L 465.00 1610.00 L 412.00 1597.00 L 360.00 1587.00 L 300.00 1579.00 L 232.00 1573.00 L 196.00 1568.00 L 192.00 1564.00 L 196.00 1523.00 L 208.00 1445.00 L 220.00 1381.00 L 232.00 1331.00 L 250.00 1270.00 L 274.00 1198.00 L 289.00 1159.00 L 295.00 1153.00 L 296.00 1141.00 L 292.00 1123.00 L 290.00 1097.00 L 290.00 1063.00 L 292.00 1039.00 L 296.00 1025.00 L 298.00 1015.00 L 298.00 1009.00 L 304.00 983.00 Z" fill="black" stroke="black" stroke-width="1"/>
</svg>