<?xml version="1.0" encoding="UTF-8"?>
<svg xmlns="http://www.w3.org/2000/svg" viewBox="289.00 184.00 955.00 1565.00">
  <path d="M 371.00 1046.00 L 429.00 1042.00 L 428.00 1036.00 L 368.00 1028.00 L 369.00 1025.00 L 431.00 1027.00 L 431.00 1023.00 L 369.00 1013.00 L 371.00 1010.00 L 437.00 1014.00 L 437.00 1010.00 L 371.00 998.00 L 372.00 995.00 L 440.00 1001.00 L 440.00 996.00 L 372.00 980.00 L 371.00 978.00 L 437.00 990.00 L 438.00 985.00 L 374.00 963.00 L 350.00 837.00 L 366.00 607.00 L 392.00 446.00 L 428.00 354.00 L 476.00 287.00 L 536.00 245.00 L 612.00 214.00 L 704.00 194.00 L 798.00 195.00 L 894.00 217.00 L 969.00 246.00 L 1023.00 282.00 L 1058.00 316.00 L 1074.00 348.00 L 1085.00 360.00 L 1091.00 352.00 L 1092.00 355.00 L 1088.00 369.00 L 1090.00 371.00 L 1098.00 361.00 L 1100.00 367.00 L 1096.00 389.00 L 1098.00 394.00 L 1106.00 382.00 L 1113.00 414.00 L 1119.00 490.00 L 1147.00 556.00 L 1197.00 612.00 L 1219.00 646.00 L 1213.00 658.00 L 1216.00 662.00 L 1228.00 658.00 L 1217.00 672.00 L 1183.00 704.00 L 1185.00 708.00 L 1223.00 684.00 L 1200.00 707.00 L 1116.00 777.00 L 1100.00 798.00 L 1152.00 770.00 L 1153.00 774.00 L 1103.00 810.00 L 1087.00 833.00 L 1105.00 843.00 L 1108.00 864.00 L 1096.00 896.00 L 1100.00 908.00 L 1120.00 900.00 L 1123.00 900.00 L 1109.00 908.00 L 1111.00 913.00 L 1129.00 915.00 L 1119.00 925.00 L 1081.00 943.00 L 1079.00 949.00 L 1113.00 943.00 L 1107.00 947.00 L 1061.00 961.00 L 1064.00 963.00 L 1116.00 953.00 L 1114.00 956.00 L 1058.00 972.00 L 1054.00 975.00 L 1102.00 965.00 L 1084.00 977.00 L 1000.00 1011.00 L 972.00 1030.00 L 1000.00 1034.00 L 1001.00 1042.00 L 975.00 1054.00 L 974.00 1070.00 L 998.00 1090.00 L 1005.00 1103.00 L 995.00 1109.00 L 1007.00 1118.00 L 1041.00 1130.00 L 1043.00 1133.00 L 1013.00 1127.00 L 1016.00 1130.00 L 1052.00 1142.00 L 1053.00 1144.00 L 1019.00 1136.00 L 1016.00 1137.00 L 1044.00 1147.00 L 1069.00 1176.00 L 1091.00 1224.00 L 1088.00 1242.00 L 1060.00 1230.00 L 1070.00 1240.00 L 1118.00 1272.00 L 1105.00 1268.00 L 1031.00 1228.00 L 1020.00 1226.00 L 1072.00 1262.00 L 1074.00 1265.00 L 1026.00 1235.00 L 1048.00 1301.00 L 1140.00 1463.00 L 1202.00 1601.00 L 1234.00 1715.00 L 1132.00 1739.00 L 896.00 1673.00 L 704.00 1638.00 L 556.00 1634.00 L 440.00 1623.00 L 356.00 1605.00 L 316.00 1570.00 L 320.00 1518.00 L 315.00 1498.00 L 301.00 1510.00 L 302.00 1504.00 L 318.00 1480.00 L 317.00 1476.00 L 299.00 1492.00 L 304.00 1476.00 L 332.00 1428.00 L 335.00 1412.00 L 313.00 1428.00 L 319.00 1413.00 L 353.00 1367.00 L 355.00 1355.00 L 325.00 1377.00 L 326.00 1374.00 L 358.00 1346.00 L 359.00 1341.00 L 329.00 1359.00 L 332.00 1354.00 L 368.00 1326.00 L 369.00 1322.00 L 335.00 1342.00 L 336.00 1339.00 L 372.00 1313.00 L 372.00 1310.00 L 336.00 1330.00 L 337.00 1327.00 L 375.00 1301.00 L 375.00 1298.00 L 337.00 1318.00 L 338.00 1315.00 L 378.00 1289.00 L 379.00 1284.00 L 341.00 1300.00 L 342.00 1296.00 L 382.00 1272.00 L 383.00 1268.00 L 345.00 1284.00 L 349.00 1277.00 L 395.00 1247.00 L 395.00 1243.00 L 349.00 1265.00 L 350.00 1262.00 L 398.00 1234.00 L 398.00 1230.00 L 350.00 1250.00 L 352.00 1244.00 L 404.00 1212.00 L 405.00 1203.00 L 355.00 1217.00 L 355.00 1213.00 L 405.00 1191.00 L 405.00 1188.00 L 355.00 1204.00 L 355.00 1201.00 L 405.00 1179.00 L 406.00 1175.00 L 358.00 1189.00 L 359.00 1185.00 L 409.00 1163.00 L 409.00 1160.00 L 359.00 1176.00 L 359.00 1173.00 L 409.00 1151.00 L 406.00 1147.00 L 350.00 1161.00 L 351.00 1159.00 L 409.00 1141.00 L 405.00 1140.00 L 339.00 1156.00 L 339.00 1153.00 L 405.00 1131.00 L 406.00 1126.00 L 342.00 1138.00 L 343.00 1133.00 L 409.00 1111.00 L 400.00 1101.00 L 316.00 1103.00 L 317.00 1099.00 L 403.00 1089.00 L 404.00 1087.00 L 320.00 1093.00 L 321.00 1089.00 L 407.00 1075.00 L 423.00 1067.00 L 369.00 1065.00 L 366.00 1061.00 L 414.00 1055.00 L 414.00 1051.00 L 366.00 1049.00 L 371.00 1046.00 Z" fill="black" stroke="black" stroke-width="1"/>
</svg>