<?xml version="1.0" encoding="UTF-8"?>
<svg xmlns="http://www.w3.org/2000/svg" viewBox="172.00 127.00 888.00 1726.00">
  <path d="M 288.00 950.00 L 292.00 918.00 L 285.00 900.00 L 267.00 896.00 L 268.00 893.00 L 288.00 891.00 L 286.00 884.00 L 262.00 872.00 L 263.00 869.00 L 289.00 875.00 L 289.00 872.00 L 263.00 860.00 L 264.00 855.00 L 292.00 857.00 L 292.00 853.00 L 264.00 843.00 L 232.00 766.00 L 196.00 622.00 L 182.00 514.00 L 190.00 442.00 L 207.00 381.00 L 233.00 331.00 L 270.00 282.00 L 318.00 234.00 L 376.00 196.00 L 444.00 168.00 L 497.00 151.00 L 535.00 145.00 L 559.00 145.00 L 569.00 151.00 L 585.00 149.00 L 607.00 139.00 L 620.00 137.00 L 624.00 143.00 L 633.00 143.00 L 647.00 137.00 L 656.00 138.00 L 660.00 146.00 L 663.00 146.00 L 665.00 138.00 L 668.00 138.00 L 672.00 146.00 L 681.00 149.00 L 695.00 147.00 L 733.00 158.00 L 795.00 182.00 L 855.00 227.00 L 913.00 293.00 L 943.00 338.00 L 945.00 362.00 L 950.00 368.00 L 958.00 356.00 L 960.00 360.00 L 956.00 380.00 L 959.00 384.00 L 969.00 372.00 L 970.00 375.00 L 962.00 393.00 L 963.00 397.00 L 973.00 387.00 L 976.00 396.00 L 972.00 424.00 L 975.00 430.00 L 985.00 414.00 L 985.00 417.00 L 975.00 439.00 L 976.00 443.00 L 988.00 429.00 L 988.00 432.00 L 976.00 452.00 L 976.00 453.00 L 988.00 435.00 L 988.00 438.00 L 976.00 462.00 L 977.00 464.00 L 991.00 444.00 L 990.00 447.00 L 974.00 473.00 L 975.00 476.00 L 993.00 456.00 L 993.00 461.00 L 975.00 491.00 L 967.00 513.00 L 969.00 527.00 L 993.00 567.00 L 1039.00 633.00 L 1050.00 679.00 L 1026.00 705.00 L 1025.00 711.00 L 1047.00 697.00 L 1045.00 699.00 L 1019.00 717.00 L 1018.00 719.00 L 1042.00 705.00 L 1042.00 707.00 L 1018.00 725.00 L 1006.00 746.00 L 1006.00 770.00 L 995.00 803.00 L 973.00 845.00 L 960.00 883.00 L 956.00 917.00 L 940.00 939.00 L 912.00 949.00 L 907.00 954.00 L 925.00 954.00 L 921.00 956.00 L 895.00 960.00 L 892.00 962.00 L 912.00 962.00 L 910.00 965.00 L 886.00 971.00 L 879.00 978.00 L 889.00 986.00 L 892.00 996.00 L 888.00 1008.00 L 872.00 1017.00 L 844.00 1023.00 L 841.00 1033.00 L 863.00 1047.00 L 864.00 1051.00 L 844.00 1045.00 L 845.00 1051.00 L 867.00 1069.00 L 865.00 1074.00 L 839.00 1066.00 L 834.00 1068.00 L 850.00 1080.00 L 848.00 1081.00 L 828.00 1071.00 L 839.00 1088.00 L 881.00 1132.00 L 902.00 1157.00 L 902.00 1163.00 L 892.00 1160.00 L 872.00 1148.00 L 873.00 1151.00 L 895.00 1169.00 L 892.00 1168.00 L 864.00 1148.00 L 864.00 1150.00 L 892.00 1174.00 L 889.00 1172.00 L 855.00 1144.00 L 855.00 1147.00 L 889.00 1181.00 L 889.00 1184.00 L 855.00 1156.00 L 852.00 1157.00 L 880.00 1187.00 L 880.00 1191.00 L 852.00 1169.00 L 875.00 1268.00 L 949.00 1488.00 L 988.00 1631.00 L 992.00 1697.00 L 983.00 1754.00 L 961.00 1802.00 L 943.00 1831.00 L 929.00 1841.00 L 903.00 1843.00 L 865.00 1837.00 L 833.00 1826.00 L 807.00 1810.00 L 789.00 1787.00 L 779.00 1757.00 L 776.00 1756.00 L 780.00 1784.00 L 776.00 1783.00 L 764.00 1753.00 L 758.00 1749.00 L 758.00 1771.00 L 756.00 1771.00 L 752.00 1749.00 L 750.00 1747.00 L 750.00 1765.00 L 747.00 1766.00 L 741.00 1750.00 L 736.00 1747.00 L 732.00 1757.00 L 673.00 1724.00 L 559.00 1648.00 L 452.00 1594.00 L 352.00 1562.00 L 296.00 1540.00 L 284.00 1528.00 L 252.00 1517.00 L 200.00 1507.00 L 187.00 1447.00 L 213.00 1337.00 L 244.00 1236.00 L 280.00 1144.00 L 294.00 1070.00 L 286.00 1014.00 L 283.00 981.00 L 285.00 971.00 L 288.00 950.00 Z" fill="black" stroke="black" stroke-width="1"/>
</svg>