<?xml version="1.0" encoding="UTF-8"?>
<svg xmlns="http://www.w3.org/2000/svg" viewBox="339.00 304.00 867.00 1458.00">
  <path d="M 569.00 985.00 L 567.00 943.00 L 545.00 899.00 L 503.00 853.00 L 462.00 818.00 L 422.00 794.00 L 421.00 792.00 L 459.00 812.00 L 455.00 808.00 L 409.00 780.00 L 408.00 778.00 L 452.00 802.00 L 451.00 800.00 L 405.00 772.00 L 403.00 770.00 L 445.00 794.00 L 444.00 792.00 L 400.00 764.00 L 399.00 762.00 L 441.00 786.00 L 440.00 784.00 L 396.00 756.00 L 370.00 734.00 L 362.00 718.00 L 355.00 691.00 L 349.00 653.00 L 350.00 614.00 L 358.00 574.00 L 372.00 532.00 L 392.00 488.00 L 425.00 446.00 L 471.00 406.00 L 500.00 374.00 L 512.00 350.00 L 531.00 332.00 L 557.00 320.00 L 576.00 314.00 L 588.00 314.00 L 598.00 324.00 L 606.00 344.00 L 608.00 345.00 L 604.00 327.00 L 605.00 328.00 L 611.00 348.00 L 612.00 349.00 L 608.00 331.00 L 611.00 330.00 L 621.00 346.00 L 643.00 350.00 L 677.00 342.00 L 718.00 338.00 L 766.00 338.00 L 825.00 348.00 L 895.00 368.00 L 944.00 386.00 L 972.00 402.00 L 1007.00 429.00 L 1049.00 467.00 L 1071.00 501.00 L 1073.00 531.00 L 1078.00 543.00 L 1086.00 537.00 L 1087.00 541.00 L 1081.00 555.00 L 1082.00 558.00 L 1090.00 550.00 L 1091.00 553.00 L 1085.00 567.00 L 1086.00 569.00 L 1094.00 559.00 L 1094.00 561.00 L 1086.00 575.00 L 1086.00 576.00 L 1094.00 564.00 L 1095.00 566.00 L 1089.00 582.00 L 1085.00 612.00 L 1083.00 656.00 L 1099.00 704.00 L 1133.00 756.00 L 1152.00 791.00 L 1156.00 809.00 L 1145.00 826.00 L 1119.00 842.00 L 1115.00 846.00 L 1133.00 838.00 L 1133.00 841.00 L 1115.00 855.00 L 1104.00 879.00 L 1100.00 913.00 L 1093.00 936.00 L 1083.00 948.00 L 1082.00 964.00 L 1090.00 984.00 L 1092.00 1002.00 L 1088.00 1018.00 L 1063.00 1038.00 L 1017.00 1062.00 L 976.00 1076.00 L 940.00 1080.00 L 916.00 1091.00 L 904.00 1109.00 L 975.00 1226.00 L 1129.00 1442.00 L 1128.00 1445.00 L 972.00 1235.00 L 974.00 1238.00 L 1134.00 1454.00 L 1193.00 1534.00 L 1151.00 1478.00 L 1152.00 1480.00 L 1196.00 1540.00 L 1192.00 1536.00 L 1140.00 1468.00 L 1141.00 1471.00 L 1195.00 1545.00 L 1192.00 1542.00 L 1132.00 1462.00 L 1132.00 1464.00 L 1192.00 1548.00 L 1190.00 1546.00 L 1126.00 1458.00 L 1127.00 1462.00 L 1193.00 1558.00 L 1189.00 1555.00 L 1115.00 1453.00 L 1115.00 1456.00 L 1189.00 1564.00 L 1184.00 1559.00 L 1100.00 1441.00 L 1100.00 1446.00 L 1184.00 1574.00 L 1181.00 1572.00 L 1091.00 1440.00 L 1091.00 1442.00 L 1181.00 1578.00 L 1178.00 1575.00 L 1082.00 1433.00 L 1082.00 1436.00 L 1178.00 1584.00 L 1142.00 1529.00 L 974.00 1271.00 L 973.00 1274.00 L 1139.00 1538.00 L 1169.00 1587.00 L 1063.00 1421.00 L 1062.00 1424.00 L 1166.00 1596.00 L 1136.00 1550.00 L 972.00 1286.00 L 970.00 1289.00 L 1130.00 1559.00 L 1153.00 1599.00 L 1039.00 1409.00 L 1038.00 1411.00 L 1150.00 1605.00 L 1145.00 1600.00 L 1023.00 1396.00 L 1020.00 1399.00 L 1136.00 1609.00 L 1118.00 1577.00 L 966.00 1303.00 L 965.00 1305.00 L 1115.00 1583.00 L 1188.00 1724.00 L 1184.00 1728.00 L 1122.00 1617.00 L 1002.00 1391.00 L 1000.00 1392.00 L 1116.00 1620.00 L 1102.00 1594.00 L 958.00 1314.00 L 956.00 1316.00 L 1096.00 1600.00 L 1096.00 1602.00 L 956.00 1322.00 L 953.00 1324.00 L 1087.00 1608.00 L 1087.00 1609.00 L 953.00 1327.00 L 952.00 1328.00 L 1084.00 1612.00 L 1090.00 1627.00 L 970.00 1373.00 L 967.00 1375.00 L 1081.00 1633.00 L 1075.00 1621.00 L 949.00 1339.00 L 947.00 1338.00 L 1069.00 1618.00 L 1073.00 1628.00 L 959.00 1368.00 L 957.00 1367.00 L 1067.00 1625.00 L 1119.00 1752.00 L 1113.00 1748.00 L 1054.00 1612.00 L 942.00 1344.00 L 940.00 1343.00 L 1048.00 1609.00 L 1049.00 1613.00 L 943.00 1355.00 L 940.00 1352.00 L 1040.00 1604.00 L 1036.00 1692.00 L 928.00 1616.00 L 841.00 1559.00 L 775.00 1521.00 L 700.00 1484.00 L 616.00 1448.00 L 537.00 1420.00 L 463.00 1400.00 L 436.00 1358.00 L 456.00 1294.00 L 492.00 1200.00 L 544.00 1076.00 L 570.00 1012.00 L 570.00 1008.00 L 569.00 985.00 Z" fill="black" stroke="black" stroke-width="1"/>
</svg>