<?xml version="1.0" encoding="UTF-8"?>
<svg xmlns="http://www.w3.org/2000/svg" viewBox="273.00 322.00 791.00 1381.00">
  <path d="M 491.00 1001.00 L 493.00 999.00 L 488.00 993.00 L 476.00 983.00 L 464.00 968.00 L 452.00 948.00 L 420.00 912.00 L 368.00 860.00 L 336.00 826.00 L 324.00 810.00 L 310.00 783.00 L 294.00 745.00 L 285.00 702.00 L 283.00 654.00 L 285.00 616.00 L 291.00 588.00 L 301.00 554.00 L 315.00 514.00 L 334.00 478.00 L 358.00 446.00 L 383.00 419.00 L 409.00 397.00 L 452.00 374.00 L 512.00 350.00 L 577.00 336.00 L 647.00 332.00 L 696.00 334.00 L 724.00 342.00 L 751.00 347.00 L 777.00 349.00 L 800.00 354.00 L 820.00 362.00 L 845.00 375.00 L 875.00 393.00 L 901.00 411.00 L 923.00 429.00 L 953.00 461.00 L 991.00 507.00 L 1014.00 540.00 L 1022.00 560.00 L 1026.00 574.00 L 1026.00 582.00 L 1021.00 594.00 L 1011.00 610.00 L 1011.00 612.00 L 1021.00 600.00 L 1021.00 602.00 L 1011.00 618.00 L 1011.00 620.00 L 1021.00 608.00 L 1021.00 611.00 L 1011.00 629.00 L 1005.00 651.00 L 1003.00 677.00 L 1015.00 706.00 L 1041.00 738.00 L 1054.00 758.00 L 1054.00 766.00 L 1052.00 774.00 L 1048.00 782.00 L 1040.00 791.00 L 1028.00 801.00 L 1024.00 805.00 L 1028.00 803.00 L 1028.00 806.00 L 1024.00 814.00 L 1025.00 827.00 L 1031.00 845.00 L 1026.00 867.00 L 1010.00 893.00 L 1002.00 909.00 L 1002.00 915.00 L 1005.00 925.00 L 1011.00 939.00 L 1012.00 954.00 L 1008.00 970.00 L 1004.00 981.00 L 1000.00 987.00 L 991.00 995.00 L 977.00 1005.00 L 965.00 1011.00 L 955.00 1013.00 L 933.00 1022.00 L 899.00 1038.00 L 875.00 1047.00 L 861.00 1049.00 L 850.00 1052.00 L 842.00 1056.00 L 834.00 1063.00 L 826.00 1073.00 L 822.00 1088.00 L 822.00 1108.00 L 825.00 1123.00 L 831.00 1133.00 L 833.00 1137.00 L 831.00 1135.00 L 862.00 1177.00 L 926.00 1263.00 L 956.00 1304.00 L 952.00 1300.00 L 958.00 1310.00 L 974.00 1334.00 L 981.00 1345.00 L 979.00 1343.00 L 986.00 1357.00 L 1002.00 1387.00 L 1013.00 1411.00 L 1019.00 1429.00 L 1021.00 1437.00 L 1019.00 1435.00 L 1021.00 1443.00 L 1027.00 1461.00 L 1033.00 1494.00 L 1039.00 1542.00 L 1041.00 1565.00 L 1039.00 1563.00 L 1039.00 1577.00 L 1041.00 1607.00 L 1041.00 1623.00 L 1039.00 1625.00 L 1038.00 1633.00 L 1038.00 1647.00 L 1032.00 1662.00 L 1020.00 1678.00 L 1010.00 1688.00 L 1002.00 1692.00 L 993.00 1693.00 L 983.00 1691.00 L 948.00 1674.00 L 888.00 1642.00 L 798.00 1600.00 L 678.00 1548.00 L 577.00 1511.00 L 495.00 1489.00 L 434.00 1476.00 L 394.00 1472.00 L 373.00 1468.00 L 371.00 1464.00 L 381.00 1422.00 L 403.00 1342.00 L 413.00 1303.00 L 411.00 1305.00 L 419.00 1289.00 L 437.00 1255.00 L 447.00 1231.00 L 449.00 1217.00 L 455.00 1201.00 L 465.00 1183.00 L 469.00 1173.00 L 467.00 1171.00 L 466.00 1161.00 L 466.00 1143.00 L 471.00 1104.00 L 481.00 1044.00 L 487.00 1011.00 L 489.00 1005.00 L 491.00 1001.00 Z" fill="black" stroke="black" stroke-width="1"/>
</svg>