<?xml version="1.0" encoding="UTF-8"?>
<svg xmlns="http://www.w3.org/2000/svg" viewBox="326.00 218.00 950.00 1638.00">
  <path d="M 574.00 989.00 L 582.00 983.00 L 587.00 970.00 L 589.00 950.00 L 588.00 929.00 L 584.00 907.00 L 572.00 890.00 L 552.00 878.00 L 538.00 865.00 L 530.00 851.00 L 493.00 824.00 L 427.00 784.00 L 425.00 781.00 L 487.00 815.00 L 486.00 814.00 L 422.00 778.00 L 387.00 758.00 L 381.00 754.00 L 390.00 758.00 L 414.00 770.00 L 413.00 768.00 L 387.00 752.00 L 409.00 764.00 L 479.00 804.00 L 476.00 801.00 L 400.00 755.00 L 399.00 753.00 L 473.00 795.00 L 472.00 792.00 L 396.00 744.00 L 394.00 741.00 L 466.00 783.00 L 464.00 777.00 L 388.00 723.00 L 346.00 670.00 L 338.00 618.00 L 336.00 580.00 L 340.00 556.00 L 348.00 529.00 L 360.00 499.00 L 376.00 469.00 L 396.00 439.00 L 416.00 416.00 L 436.00 400.00 L 451.00 372.00 L 461.00 332.00 L 471.00 306.00 L 481.00 294.00 L 495.00 286.00 L 513.00 282.00 L 527.00 271.00 L 537.00 253.00 L 546.00 246.00 L 554.00 250.00 L 569.00 246.00 L 591.00 234.00 L 604.00 228.00 L 608.00 228.00 L 614.00 234.00 L 622.00 246.00 L 625.00 247.00 L 623.00 237.00 L 625.00 237.00 L 631.00 247.00 L 654.00 248.00 L 694.00 240.00 L 724.00 236.00 L 744.00 236.00 L 777.00 241.00 L 823.00 251.00 L 867.00 264.00 L 909.00 280.00 L 950.00 302.00 L 990.00 330.00 L 1029.00 366.00 L 1067.00 410.00 L 1088.00 437.00 L 1092.00 447.00 L 1092.00 459.00 L 1088.00 473.00 L 1089.00 475.00 L 1095.00 465.00 L 1095.00 467.00 L 1089.00 481.00 L 1090.00 482.00 L 1098.00 470.00 L 1100.00 472.00 L 1096.00 488.00 L 1097.00 492.00 L 1103.00 484.00 L 1103.00 486.00 L 1097.00 498.00 L 1097.00 501.00 L 1103.00 495.00 L 1104.00 500.00 L 1100.00 516.00 L 1103.00 538.00 L 1113.00 566.00 L 1118.00 600.00 L 1118.00 640.00 L 1135.00 685.00 L 1169.00 735.00 L 1188.00 769.00 L 1192.00 787.00 L 1193.00 799.00 L 1191.00 805.00 L 1181.00 814.00 L 1163.00 826.00 L 1153.00 835.00 L 1151.00 841.00 L 1153.00 851.00 L 1159.00 865.00 L 1160.00 877.00 L 1156.00 887.00 L 1155.00 902.00 L 1157.00 922.00 L 1152.00 940.00 L 1140.00 956.00 L 1135.00 975.00 L 1137.00 997.00 L 1135.00 1016.00 L 1129.00 1032.00 L 1120.00 1046.00 L 1108.00 1058.00 L 1091.00 1067.00 L 1069.00 1073.00 L 1031.00 1073.00 L 977.00 1067.00 L 943.00 1080.00 L 929.00 1112.00 L 991.00 1224.00 L 1129.00 1416.00 L 1129.00 1419.00 L 991.00 1233.00 L 999.00 1246.00 L 1153.00 1458.00 L 1191.00 1511.00 L 1113.00 1405.00 L 1117.00 1412.00 L 1203.00 1532.00 L 1197.00 1525.00 L 1099.00 1391.00 L 1101.00 1396.00 L 1203.00 1540.00 L 1200.00 1537.00 L 1092.00 1387.00 L 1092.00 1389.00 L 1200.00 1543.00 L 1199.00 1542.00 L 1089.00 1386.00 L 1090.00 1388.00 L 1202.00 1548.00 L 1259.00 1632.00 L 1261.00 1640.00 L 1199.00 1553.00 L 1073.00 1371.00 L 1074.00 1374.00 L 1202.00 1562.00 L 1200.00 1560.00 L 1068.00 1368.00 L 1069.00 1372.00 L 1203.00 1572.00 L 1201.00 1570.00 L 1063.00 1366.00 L 1063.00 1368.00 L 1201.00 1576.00 L 1198.00 1572.00 L 1054.00 1356.00 L 1054.00 1358.00 L 1198.00 1578.00 L 1182.00 1554.00 L 1006.00 1286.00 L 1006.00 1288.00 L 1182.00 1560.00 L 1193.00 1578.00 L 1039.00 1342.00 L 1038.00 1345.00 L 1190.00 1587.00 L 1266.00 1711.00 L 1266.00 1717.00 L 1185.00 1590.00 L 1023.00 1330.00 L 1022.00 1332.00 L 1182.00 1596.00 L 1176.00 1587.00 L 1004.00 1305.00 L 1003.00 1308.00 L 1173.00 1596.00 L 1250.00 1754.00 L 1234.00 1782.00 L 1209.00 1807.00 L 1175.00 1829.00 L 1148.00 1842.00 L 1128.00 1846.00 L 1079.00 1814.00 L 1001.00 1746.00 L 899.00 1667.00 L 773.00 1577.00 L 668.00 1510.00 L 584.00 1466.00 L 512.00 1433.00 L 452.00 1411.00 L 420.00 1397.00 L 416.00 1391.00 L 425.00 1362.00 L 447.00 1310.00 L 459.00 1277.00 L 461.00 1263.00 L 479.00 1221.00 L 513.00 1151.00 L 529.00 1113.00 L 527.00 1107.00 L 530.00 1100.00 L 538.00 1092.00 L 545.00 1079.00 L 551.00 1061.00 L 558.00 1047.00 L 566.00 1037.00 L 570.00 1025.00 L 570.00 1011.00 L 570.00 1001.00 L 570.00 995.00 L 574.00 989.00 Z" fill="black" stroke="black" stroke-width="1"/>
</svg>