<?xml version="1.0" encoding="UTF-8"?>
<svg xmlns="http://www.w3.org/2000/svg" viewBox="341.00 266.00 857.00 1586.00">
  <path d="M 597.00 1011.00 L 603.00 985.00 L 605.00 968.00 L 603.00 960.00 L 588.00 945.00 L 560.00 923.00 L 532.00 894.00 L 504.00 858.00 L 468.00 825.00 L 424.00 795.00 L 422.00 792.00 L 462.00 816.00 L 461.00 813.00 L 419.00 783.00 L 415.00 779.00 L 449.00 801.00 L 449.00 800.00 L 415.00 776.00 L 389.00 754.00 L 371.00 734.00 L 360.00 718.00 L 356.00 706.00 L 353.00 689.00 L 351.00 667.00 L 352.00 651.00 L 356.00 641.00 L 358.00 622.00 L 358.00 594.00 L 361.00 572.00 L 367.00 556.00 L 377.00 538.00 L 391.00 518.00 L 402.00 494.00 L 410.00 466.00 L 418.00 446.00 L 426.00 434.00 L 438.00 420.00 L 454.00 404.00 L 471.00 376.00 L 489.00 336.00 L 501.00 315.00 L 507.00 313.00 L 512.00 314.00 L 516.00 318.00 L 529.00 311.00 L 551.00 293.00 L 567.00 282.00 L 577.00 278.00 L 588.00 276.00 L 600.00 276.00 L 613.00 283.00 L 627.00 297.00 L 652.00 301.00 L 688.00 295.00 L 717.00 292.00 L 739.00 292.00 L 751.00 293.00 L 753.00 295.00 L 755.00 295.00 L 757.00 293.00 L 766.00 294.00 L 782.00 298.00 L 797.00 300.00 L 811.00 300.00 L 837.00 307.00 L 875.00 321.00 L 895.00 338.00 L 897.00 358.00 L 900.00 359.00 L 904.00 341.00 L 907.00 341.00 L 909.00 359.00 L 912.00 360.00 L 916.00 344.00 L 918.00 341.00 L 918.00 351.00 L 920.00 352.00 L 924.00 344.00 L 925.00 347.00 L 923.00 361.00 L 925.00 362.00 L 931.00 350.00 L 933.00 350.00 L 931.00 362.00 L 932.00 367.00 L 936.00 365.00 L 938.00 366.00 L 938.00 370.00 L 940.00 367.00 L 944.00 357.00 L 946.00 356.00 L 946.00 364.00 L 948.00 366.00 L 952.00 362.00 L 957.00 361.00 L 963.00 363.00 L 977.00 373.00 L 999.00 391.00 L 1020.00 411.00 L 1040.00 433.00 L 1056.00 448.00 L 1068.00 456.00 L 1073.00 466.00 L 1071.00 478.00 L 1074.00 480.00 L 1082.00 472.00 L 1083.00 475.00 L 1077.00 489.00 L 1079.00 491.00 L 1089.00 481.00 L 1090.00 484.00 L 1082.00 500.00 L 1083.00 517.00 L 1093.00 535.00 L 1101.00 556.00 L 1107.00 580.00 L 1108.00 607.00 L 1104.00 637.00 L 1103.00 657.00 L 1105.00 667.00 L 1127.00 702.00 L 1169.00 762.00 L 1188.00 799.00 L 1184.00 813.00 L 1172.00 828.00 L 1152.00 844.00 L 1140.00 856.00 L 1136.00 864.00 L 1134.00 878.00 L 1134.00 898.00 L 1129.00 913.00 L 1119.00 923.00 L 1115.00 934.00 L 1117.00 946.00 L 1112.00 956.00 L 1100.00 964.00 L 1092.00 982.00 L 1088.00 1010.00 L 1083.00 1029.00 L 1077.00 1039.00 L 1070.00 1047.00 L 1062.00 1053.00 L 1054.00 1057.00 L 1046.00 1059.00 L 1020.00 1061.00 L 976.00 1063.00 L 947.00 1066.00 L 933.00 1070.00 L 921.00 1075.00 L 911.00 1081.00 L 901.00 1099.00 L 891.00 1129.00 L 896.00 1162.00 L 916.00 1198.00 L 921.00 1209.00 L 911.00 1195.00 L 935.00 1232.00 L 993.00 1320.00 L 1007.00 1342.00 L 977.00 1298.00 L 980.00 1303.00 L 1016.00 1357.00 L 1017.00 1359.00 L 983.00 1309.00 L 986.00 1314.00 L 1026.00 1374.00 L 1041.00 1397.00 L 1031.00 1383.00 L 1057.00 1427.00 L 1119.00 1529.00 L 1140.00 1565.00 L 1120.00 1535.00 L 1121.00 1538.00 L 1143.00 1574.00 L 1159.00 1604.00 L 1169.00 1628.00 L 1176.00 1650.00 L 1180.00 1670.00 L 1182.00 1691.00 L 1182.00 1713.00 L 1179.00 1738.00 L 1173.00 1766.00 L 1164.00 1787.00 L 1152.00 1801.00 L 1137.00 1815.00 L 1119.00 1829.00 L 1104.00 1838.00 L 1092.00 1842.00 L 1072.00 1842.00 L 1044.00 1838.00 L 1023.00 1833.00 L 1009.00 1827.00 L 969.00 1799.00 L 903.00 1749.00 L 849.00 1712.00 L 807.00 1688.00 L 725.00 1651.00 L 603.00 1601.00 L 524.00 1571.00 L 488.00 1561.00 L 452.00 1554.00 L 416.00 1550.00 L 396.00 1545.00 L 392.00 1539.00 L 394.00 1518.00 L 402.00 1482.00 L 410.00 1453.00 L 418.00 1431.00 L 423.00 1412.00 L 425.00 1396.00 L 442.00 1351.00 L 474.00 1277.00 L 495.00 1222.00 L 505.00 1186.00 L 513.00 1161.00 L 519.00 1147.00 L 528.00 1133.00 L 540.00 1119.00 L 549.00 1102.00 L 555.00 1082.00 L 565.00 1069.00 L 579.00 1063.00 L 584.00 1060.00 L 580.00 1060.00 L 581.00 1057.00 L 587.00 1051.00 L 590.00 1045.00 L 590.00 1039.00 L 591.00 1033.00 L 593.00 1027.00 L 597.00 1011.00 Z" fill="black" stroke="black" stroke-width="1"/>
</svg>