<?xml version="1.0" encoding="UTF-8"?>
<svg xmlns="http://www.w3.org/2000/svg" viewBox="189.00 221.00 930.00 1631.00">
  <path d="M 412.00 1008.00 L 424.00 996.00 L 431.00 985.00 L 433.00 975.00 L 434.00 959.00 L 434.00 937.00 L 428.00 921.00 L 416.00 911.00 L 415.00 908.00 L 425.00 912.00 L 420.00 909.00 L 400.00 899.00 L 382.00 885.00 L 366.00 867.00 L 335.00 845.00 L 289.00 819.00 L 288.00 817.00 L 332.00 839.00 L 327.00 835.00 L 273.00 805.00 L 268.00 801.00 L 312.00 823.00 L 311.00 821.00 L 265.00 795.00 L 268.00 796.00 L 320.00 824.00 L 318.00 822.00 L 262.00 790.00 L 227.00 762.00 L 213.00 738.00 L 204.00 714.00 L 200.00 690.00 L 199.00 663.00 L 201.00 633.00 L 211.00 601.00 L 229.00 567.00 L 234.00 527.00 L 226.00 481.00 L 223.00 452.00 L 225.00 440.00 L 234.00 435.00 L 250.00 437.00 L 260.00 424.00 L 264.00 396.00 L 271.00 376.00 L 281.00 364.00 L 291.00 358.00 L 301.00 358.00 L 310.00 361.00 L 318.00 367.00 L 337.00 356.00 L 367.00 328.00 L 394.00 307.00 L 418.00 293.00 L 450.00 278.00 L 490.00 262.00 L 533.00 249.00 L 579.00 239.00 L 622.00 233.00 L 662.00 231.00 L 695.00 232.00 L 721.00 236.00 L 750.00 243.00 L 782.00 253.00 L 817.00 268.00 L 855.00 288.00 L 889.00 313.00 L 919.00 343.00 L 948.00 378.00 L 976.00 418.00 L 988.00 446.00 L 984.00 462.00 L 983.00 471.00 L 985.00 473.00 L 990.00 468.00 L 998.00 456.00 L 1003.00 451.00 L 1005.00 453.00 L 1002.00 462.00 L 994.00 478.00 L 995.00 480.00 L 1005.00 468.00 L 1006.00 471.00 L 998.00 489.00 L 1000.00 491.00 L 1012.00 477.00 L 1013.00 479.00 L 1003.00 497.00 L 1004.00 501.00 L 1016.00 491.00 L 1017.00 494.00 L 1007.00 510.00 L 1007.00 513.00 L 1017.00 503.00 L 1017.00 506.00 L 1007.00 522.00 L 1008.00 524.00 L 1020.00 512.00 L 1021.00 514.00 L 1011.00 530.00 L 1006.00 562.00 L 1006.00 610.00 L 1011.00 647.00 L 1021.00 673.00 L 1037.00 702.00 L 1059.00 734.00 L 1070.00 755.00 L 1070.00 765.00 L 1069.00 773.00 L 1067.00 779.00 L 1053.00 790.00 L 1027.00 806.00 L 1024.00 809.00 L 1044.00 799.00 L 1044.00 802.00 L 1024.00 818.00 L 1015.00 834.00 L 1017.00 850.00 L 1008.00 872.00 L 988.00 900.00 L 979.00 925.00 L 981.00 947.00 L 980.00 964.00 L 976.00 976.00 L 961.00 994.00 L 935.00 1018.00 L 891.00 1035.00 L 829.00 1045.00 L 791.00 1074.00 L 777.00 1122.00 L 824.00 1217.00 L 932.00 1359.00 L 978.00 1420.00 L 962.00 1400.00 L 963.00 1402.00 L 981.00 1426.00 L 973.00 1416.00 L 939.00 1372.00 L 949.00 1387.00 L 1003.00 1461.00 L 1000.00 1458.00 L 940.00 1378.00 L 944.00 1384.00 L 1012.00 1476.00 L 1007.00 1470.00 L 929.00 1366.00 L 931.00 1371.00 L 1013.00 1485.00 L 1010.00 1482.00 L 922.00 1362.00 L 926.00 1368.00 L 1022.00 1500.00 L 1021.00 1499.00 L 923.00 1365.00 L 925.00 1369.00 L 1027.00 1511.00 L 1025.00 1509.00 L 919.00 1363.00 L 921.00 1368.00 L 1031.00 1524.00 L 1029.00 1522.00 L 915.00 1362.00 L 917.00 1367.00 L 1035.00 1537.00 L 1012.00 1505.00 L 848.00 1271.00 L 849.00 1273.00 L 1015.00 1511.00 L 1035.00 1540.00 L 909.00 1360.00 L 910.00 1364.00 L 1038.00 1552.00 L 1035.00 1549.00 L 901.00 1355.00 L 902.00 1360.00 L 1038.00 1564.00 L 1021.00 1540.00 L 851.00 1288.00 L 851.00 1291.00 L 1021.00 1549.00 L 1107.00 1683.00 L 1109.00 1693.00 L 1035.00 1582.00 L 885.00 1350.00 L 885.00 1354.00 L 1035.00 1594.00 L 1032.00 1591.00 L 876.00 1345.00 L 876.00 1348.00 L 1032.00 1600.00 L 1024.00 1588.00 L 852.00 1312.00 L 851.00 1315.00 L 1021.00 1597.00 L 1106.00 1740.00 L 1106.00 1744.00 L 1025.00 1611.00 L 863.00 1341.00 L 862.00 1343.00 L 1022.00 1617.00 L 1018.00 1612.00 L 850.00 1328.00 L 848.00 1331.00 L 1012.00 1621.00 L 1012.00 1622.00 L 848.00 1334.00 L 847.00 1337.00 L 1009.00 1631.00 L 1077.00 1794.00 L 1051.00 1826.00 L 1015.00 1842.00 L 969.00 1842.00 L 904.00 1815.00 L 820.00 1761.00 L 728.00 1709.00 L 628.00 1659.00 L 539.00 1620.00 L 461.00 1592.00 L 390.00 1574.00 L 326.00 1566.00 L 290.00 1559.00 L 282.00 1553.00 L 284.00 1516.00 L 296.00 1448.00 L 301.00 1415.00 L 299.00 1417.00 L 308.00 1380.00 L 328.00 1304.00 L 350.00 1239.00 L 374.00 1185.00 L 388.00 1134.00 L 392.00 1086.00 L 398.00 1055.00 L 406.00 1041.00 L 409.00 1032.00 L 407.00 1028.00 L 406.00 1023.00 L 406.00 1017.00 L 412.00 1008.00 Z" fill="black" stroke="black" stroke-width="1"/>
</svg>