<?xml version="1.0" encoding="UTF-8"?>
<svg xmlns="http://www.w3.org/2000/svg" viewBox="272.00 229.00 811.00 1536.00">
  <path d="M 496.00 962.00 L 500.00 938.00 L 485.00 919.00 L 451.00 905.00 L 450.00 902.00 L 482.00 910.00 L 480.00 908.00 L 444.00 896.00 L 420.00 886.00 L 408.00 878.00 L 385.00 857.00 L 351.00 823.00 L 330.00 799.00 L 322.00 785.00 L 309.00 749.00 L 291.00 691.00 L 282.00 642.00 L 282.00 602.00 L 294.00 547.00 L 318.00 477.00 L 341.00 424.00 L 363.00 388.00 L 392.00 348.00 L 428.00 304.00 L 451.00 277.00 L 461.00 267.00 L 470.00 264.00 L 478.00 268.00 L 496.00 263.00 L 524.00 249.00 L 547.00 241.00 L 565.00 239.00 L 579.00 251.00 L 589.00 277.00 L 592.00 277.00 L 588.00 251.00 L 589.00 252.00 L 595.00 280.00 L 597.00 281.00 L 595.00 255.00 L 598.00 255.00 L 606.00 281.00 L 630.00 297.00 L 670.00 303.00 L 708.00 312.00 L 744.00 324.00 L 791.00 343.00 L 849.00 369.00 L 889.00 390.00 L 911.00 406.00 L 938.00 429.00 L 970.00 459.00 L 984.00 479.00 L 980.00 489.00 L 979.00 493.00 L 981.00 491.00 L 983.00 492.00 L 985.00 496.00 L 989.00 494.00 L 995.00 486.00 L 994.00 489.00 L 986.00 503.00 L 987.00 504.00 L 997.00 492.00 L 998.00 495.00 L 990.00 513.00 L 992.00 515.00 L 1004.00 501.00 L 1004.00 506.00 L 992.00 530.00 L 993.00 532.00 L 1007.00 512.00 L 1011.00 509.00 L 1005.00 523.00 L 1006.00 525.00 L 1014.00 515.00 L 1011.00 521.00 L 997.00 543.00 L 994.00 551.00 L 1002.00 545.00 L 1002.00 548.00 L 994.00 560.00 L 998.00 555.00 L 1014.00 533.00 L 1014.00 535.00 L 998.00 561.00 L 998.00 565.00 L 1014.00 547.00 L 1014.00 551.00 L 998.00 577.00 L 999.00 578.00 L 1017.00 554.00 L 1023.00 548.00 L 1017.00 560.00 L 1017.00 563.00 L 1023.00 557.00 L 1017.00 566.00 L 999.00 590.00 L 998.00 592.00 L 1014.00 572.00 L 1014.00 575.00 L 998.00 601.00 L 999.00 603.00 L 1017.00 581.00 L 1016.00 585.00 L 996.00 615.00 L 996.00 618.00 L 1016.00 594.00 L 1016.00 596.00 L 996.00 624.00 L 997.00 626.00 L 1019.00 602.00 L 1019.00 604.00 L 997.00 632.00 L 988.00 652.00 L 992.00 664.00 L 1013.00 693.00 L 1051.00 739.00 L 1071.00 769.00 L 1073.00 783.00 L 1070.00 795.00 L 1062.00 805.00 L 1050.00 815.00 L 1034.00 825.00 L 1031.00 828.00 L 1041.00 824.00 L 1040.00 827.00 L 1028.00 837.00 L 1024.00 850.00 L 1028.00 866.00 L 1026.00 880.00 L 1018.00 892.00 L 1015.00 904.00 L 1017.00 916.00 L 1014.00 930.00 L 1006.00 946.00 L 1004.00 969.00 L 1008.00 999.00 L 1008.00 1019.00 L 1004.00 1029.00 L 992.00 1042.00 L 972.00 1058.00 L 930.00 1067.00 L 866.00 1069.00 L 829.00 1073.00 L 819.00 1079.00 L 809.00 1090.00 L 799.00 1106.00 L 858.00 1215.00 L 986.00 1417.00 L 985.00 1419.00 L 855.00 1221.00 L 856.00 1224.00 L 988.00 1428.00 L 1032.00 1497.00 L 988.00 1431.00 L 989.00 1434.00 L 1035.00 1506.00 L 1029.00 1498.00 L 971.00 1410.00 L 971.00 1412.00 L 1029.00 1504.00 L 1025.00 1499.00 L 959.00 1397.00 L 961.00 1402.00 L 1031.00 1514.00 L 1027.00 1509.00 L 949.00 1387.00 L 949.00 1389.00 L 1027.00 1515.00 L 1025.00 1512.00 L 943.00 1380.00 L 943.00 1383.00 L 1025.00 1521.00 L 996.00 1475.00 L 856.00 1245.00 L 856.00 1248.00 L 996.00 1484.00 L 1013.00 1514.00 L 907.00 1338.00 L 907.00 1341.00 L 1013.00 1523.00 L 1009.00 1517.00 L 895.00 1323.00 L 895.00 1325.00 L 1009.00 1523.00 L 1006.00 1519.00 L 886.00 1313.00 L 885.00 1315.00 L 1003.00 1525.00 L 1001.00 1522.00 L 879.00 1306.00 L 879.00 1308.00 L 1001.00 1528.00 L 993.00 1514.00 L 855.00 1266.00 L 854.00 1268.00 L 990.00 1520.00 L 995.00 1530.00 L 869.00 1298.00 L 868.00 1301.00 L 992.00 1539.00 L 1042.00 1674.00 L 1018.00 1706.00 L 985.00 1733.00 L 943.00 1755.00 L 899.00 1748.00 L 853.00 1712.00 L 822.00 1692.00 L 806.00 1688.00 L 780.00 1676.00 L 744.00 1656.00 L 693.00 1632.00 L 627.00 1604.00 L 565.00 1581.00 L 507.00 1563.00 L 434.00 1549.00 L 346.00 1539.00 L 301.00 1531.00 L 299.00 1525.00 L 302.00 1504.00 L 310.00 1468.00 L 313.00 1451.00 L 311.00 1453.00 L 325.00 1399.00 L 355.00 1289.00 L 379.00 1219.00 L 397.00 1189.00 L 418.00 1141.00 L 442.00 1075.00 L 464.00 1028.00 L 484.00 1000.00 L 494.00 983.00 L 494.00 977.00 L 496.00 962.00 Z" fill="black" stroke="black" stroke-width="1"/>
</svg>