<?xml version="1.0" encoding="UTF-8"?>
<svg xmlns="http://www.w3.org/2000/svg" viewBox="240.00 281.00 885.00 1465.00">
  <path d="M 343.00 961.00 L 297.00 887.00 L 268.00 823.00 L 256.00 769.00 L 250.00 717.00 L 250.00 667.00 L 254.00 621.00 L 262.00 579.00 L 271.00 544.00 L 281.00 516.00 L 300.00 480.00 L 328.00 436.00 L 374.00 390.00 L 438.00 342.00 L 479.00 314.00 L 497.00 306.00 L 524.00 299.00 L 560.00 293.00 L 606.00 291.00 L 662.00 293.00 L 706.00 297.00 L 738.00 303.00 L 770.00 313.00 L 802.00 327.00 L 828.00 341.00 L 848.00 355.00 L 875.00 378.00 L 909.00 410.00 L 936.00 439.00 L 956.00 465.00 L 967.00 481.00 L 969.00 487.00 L 967.00 497.00 L 961.00 511.00 L 959.00 519.00 L 961.00 521.00 L 966.00 517.00 L 974.00 507.00 L 979.00 503.00 L 981.00 505.00 L 979.00 514.00 L 973.00 530.00 L 974.00 534.00 L 982.00 526.00 L 983.00 528.00 L 977.00 540.00 L 978.00 543.00 L 986.00 537.00 L 987.00 540.00 L 981.00 552.00 L 982.00 553.00 L 990.00 543.00 L 991.00 545.00 L 985.00 559.00 L 986.00 561.00 L 994.00 551.00 L 995.00 554.00 L 989.00 570.00 L 990.00 572.00 L 998.00 560.00 L 999.00 562.00 L 993.00 578.00 L 994.00 580.00 L 1002.00 568.00 L 1003.00 570.00 L 997.00 586.00 L 999.00 588.00 L 1009.00 576.00 L 1009.00 579.00 L 999.00 597.00 L 1000.00 599.00 L 1012.00 585.00 L 1016.00 582.00 L 1012.00 590.00 L 1013.00 591.00 L 1019.00 585.00 L 1016.00 591.00 L 1004.00 609.00 L 999.00 619.00 L 1001.00 621.00 L 1008.00 614.00 L 1020.00 598.00 L 1025.00 593.00 L 1023.00 599.00 L 1024.00 600.00 L 1028.00 596.00 L 1024.00 603.00 L 1012.00 621.00 L 1009.00 640.00 L 1015.00 660.00 L 1018.00 684.00 L 1018.00 712.00 L 1022.00 734.00 L 1030.00 750.00 L 1052.00 777.00 L 1088.00 815.00 L 1109.00 842.00 L 1115.00 858.00 L 1115.00 873.00 L 1109.00 887.00 L 1095.00 899.00 L 1073.00 909.00 L 1066.00 913.00 L 1074.00 911.00 L 1073.00 914.00 L 1063.00 922.00 L 1058.00 935.00 L 1058.00 953.00 L 1060.00 966.00 L 1064.00 974.00 L 1063.00 982.00 L 1057.00 990.00 L 1056.00 1002.00 L 1060.00 1018.00 L 1056.00 1036.00 L 1044.00 1056.00 L 1039.00 1079.00 L 1041.00 1105.00 L 1034.00 1128.00 L 1018.00 1148.00 L 1002.00 1162.00 L 986.00 1170.00 L 982.00 1178.00 L 990.00 1186.00 L 993.00 1193.00 L 991.00 1199.00 L 983.00 1206.00 L 969.00 1214.00 L 962.00 1221.00 L 962.00 1227.00 L 956.00 1236.00 L 944.00 1248.00 L 962.00 1284.00 L 1010.00 1344.00 L 1028.00 1369.00 L 1016.00 1359.00 L 1014.00 1360.00 L 1022.00 1372.00 L 1003.00 1350.00 L 957.00 1294.00 L 955.00 1293.00 L 997.00 1347.00 L 1010.00 1367.00 L 994.00 1353.00 L 989.00 1351.00 L 995.00 1361.00 L 986.00 1351.00 L 962.00 1321.00 L 957.00 1316.00 L 971.00 1336.00 L 965.00 1329.00 L 939.00 1295.00 L 941.00 1300.00 L 971.00 1344.00 L 970.00 1345.00 L 938.00 1303.00 L 936.00 1303.00 L 964.00 1345.00 L 963.00 1346.00 L 933.00 1306.00 L 930.00 1306.00 L 954.00 1346.00 L 953.00 1347.00 L 927.00 1309.00 L 926.00 1309.00 L 950.00 1347.00 L 951.00 1363.00 L 929.00 1357.00 L 950.00 1421.00 L 1014.00 1555.00 L 1014.00 1562.00 L 950.00 1442.00 L 952.00 1451.00 L 1020.00 1589.00 L 1018.00 1588.00 L 946.00 1448.00 L 946.00 1451.00 L 1018.00 1597.00 L 1055.00 1677.00 L 1057.00 1691.00 L 1021.00 1622.00 L 947.00 1470.00 L 947.00 1472.00 L 1021.00 1628.00 L 1019.00 1626.00 L 941.00 1466.00 L 941.00 1468.00 L 1019.00 1632.00 L 1017.00 1629.00 L 935.00 1459.00 L 934.00 1461.00 L 1014.00 1635.00 L 1050.00 1726.00 L 1042.00 1734.00 L 1030.00 1736.00 L 1014.00 1732.00 L 972.00 1702.00 L 904.00 1646.00 L 833.00 1597.00 L 759.00 1555.00 L 682.00 1520.00 L 602.00 1492.00 L 526.00 1473.00 L 454.00 1463.00 L 402.00 1458.00 L 370.00 1458.00 L 351.00 1455.00 L 345.00 1449.00 L 340.00 1441.00 L 336.00 1431.00 L 334.00 1412.00 L 334.00 1384.00 L 341.00 1348.00 L 355.00 1304.00 L 359.00 1270.00 L 353.00 1246.00 L 356.00 1200.00 L 368.00 1132.00 L 365.00 1099.00 L 347.00 1101.00 L 348.00 1098.00 L 368.00 1090.00 L 367.00 1088.00 L 345.00 1092.00 L 345.00 1091.00 L 367.00 1085.00 L 367.00 1082.00 L 345.00 1082.00 L 341.00 1072.00 L 355.00 1052.00 L 363.00 1034.00 L 365.00 1018.00 L 366.00 1007.00 L 366.00 1001.00 L 343.00 961.00 Z" fill="black" stroke="black" stroke-width="1"/>
</svg>