<?xml version="1.0" encoding="UTF-8"?>
<svg xmlns="http://www.w3.org/2000/svg" viewBox="368.00 252.00 936.00 1586.00">
  <path d="M 514.00 1014.00 L 514.00 950.00 L 516.00 905.00 L 520.00 879.00 L 527.00 855.00 L 537.00 833.00 L 534.00 811.00 L 518.00 789.00 L 508.00 767.00 L 504.00 745.00 L 493.00 710.00 L 475.00 662.00 L 463.00 618.00 L 457.00 578.00 L 460.00 535.00 L 472.00 489.00 L 491.00 446.00 L 517.00 406.00 L 541.00 375.00 L 563.00 353.00 L 595.00 328.00 L 637.00 300.00 L 667.00 283.00 L 685.00 277.00 L 723.00 270.00 L 781.00 262.00 L 851.00 263.00 L 933.00 273.00 L 1000.00 289.00 L 1052.00 311.00 L 1087.00 329.00 L 1105.00 343.00 L 1133.00 373.00 L 1171.00 419.00 L 1192.00 452.00 L 1196.00 472.00 L 1201.00 480.00 L 1207.00 476.00 L 1208.00 478.00 L 1204.00 486.00 L 1203.00 493.00 L 1205.00 499.00 L 1209.00 497.00 L 1215.00 487.00 L 1219.00 485.00 L 1221.00 491.00 L 1219.00 500.00 L 1213.00 512.00 L 1214.00 514.00 L 1222.00 506.00 L 1223.00 508.00 L 1217.00 520.00 L 1218.00 523.00 L 1226.00 517.00 L 1227.00 520.00 L 1221.00 532.00 L 1222.00 534.00 L 1230.00 526.00 L 1231.00 529.00 L 1225.00 543.00 L 1226.00 546.00 L 1234.00 538.00 L 1235.00 542.00 L 1229.00 558.00 L 1224.00 588.00 L 1220.00 632.00 L 1230.00 669.00 L 1254.00 699.00 L 1275.00 735.00 L 1293.00 777.00 L 1286.00 810.00 L 1254.00 834.00 L 1255.00 836.00 L 1289.00 816.00 L 1287.00 818.00 L 1249.00 842.00 L 1229.00 856.00 L 1227.00 860.00 L 1246.00 851.00 L 1286.00 829.00 L 1292.00 826.00 L 1264.00 842.00 L 1263.00 844.00 L 1289.00 832.00 L 1294.00 831.00 L 1278.00 841.00 L 1276.00 843.00 L 1288.00 837.00 L 1276.00 844.00 L 1240.00 864.00 L 1237.00 866.00 L 1267.00 850.00 L 1266.00 853.00 L 1234.00 875.00 L 1218.00 891.00 L 1218.00 901.00 L 1213.00 909.00 L 1203.00 915.00 L 1201.00 917.00 L 1207.00 915.00 L 1208.00 919.00 L 1204.00 929.00 L 1193.00 944.00 L 1175.00 964.00 L 1165.00 985.00 L 1163.00 1007.00 L 1159.00 1026.00 L 1153.00 1042.00 L 1142.00 1054.00 L 1126.00 1062.00 L 1107.00 1066.00 L 1085.00 1066.00 L 1082.00 1067.00 L 1098.00 1069.00 L 1100.00 1071.00 L 1088.00 1073.00 L 1086.00 1078.00 L 1094.00 1086.00 L 1096.00 1094.00 L 1092.00 1102.00 L 1085.00 1108.00 L 1075.00 1112.00 L 1067.00 1118.00 L 1061.00 1126.00 L 1066.00 1136.00 L 1082.00 1148.00 L 1081.00 1150.00 L 1063.00 1142.00 L 1064.00 1145.00 L 1084.00 1159.00 L 1085.00 1162.00 L 1067.00 1154.00 L 1067.00 1156.00 L 1085.00 1168.00 L 1082.00 1168.00 L 1058.00 1156.00 L 1057.00 1157.00 L 1079.00 1171.00 L 1078.00 1173.00 L 1054.00 1163.00 L 1051.00 1165.00 L 1069.00 1179.00 L 1075.00 1187.00 L 1069.00 1189.00 L 1090.00 1210.00 L 1138.00 1250.00 L 1150.00 1261.00 L 1126.00 1243.00 L 1127.00 1245.00 L 1153.00 1267.00 L 1138.00 1257.00 L 1082.00 1215.00 L 1082.00 1218.00 L 1138.00 1266.00 L 1145.00 1274.00 L 1103.00 1242.00 L 1102.00 1244.00 L 1142.00 1280.00 L 1134.00 1274.00 L 1078.00 1226.00 L 1076.00 1226.00 L 1128.00 1274.00 L 1126.00 1275.00 L 1070.00 1229.00 L 1059.00 1223.00 L 1093.00 1257.00 L 1108.00 1273.00 L 1104.00 1271.00 L 1084.00 1253.00 L 1048.00 1219.00 L 1046.00 1219.00 L 1078.00 1253.00 L 1077.00 1253.00 L 1043.00 1219.00 L 1041.00 1218.00 L 1071.00 1250.00 L 1078.00 1262.00 L 1062.00 1254.00 L 1073.00 1277.00 L 1111.00 1331.00 L 1135.00 1378.00 L 1145.00 1418.00 L 1156.00 1450.00 L 1168.00 1474.00 L 1173.00 1485.00 L 1171.00 1483.00 L 1181.00 1513.00 L 1203.00 1575.00 L 1218.00 1622.00 L 1226.00 1654.00 L 1232.00 1690.00 L 1236.00 1730.00 L 1237.00 1756.00 L 1235.00 1768.00 L 1228.00 1783.00 L 1216.00 1801.00 L 1197.00 1815.00 L 1171.00 1825.00 L 1149.00 1828.00 L 1131.00 1824.00 L 1088.00 1804.00 L 1020.00 1768.00 L 959.00 1739.00 L 905.00 1717.00 L 877.00 1704.00 L 875.00 1700.00 L 873.00 1699.00 L 871.00 1701.00 L 836.00 1689.00 L 768.00 1663.00 L 692.00 1638.00 L 608.00 1614.00 L 519.00 1595.00 L 425.00 1581.00 L 378.00 1553.00 L 378.00 1511.00 L 387.00 1434.00 L 405.00 1322.00 L 427.00 1232.00 L 453.00 1164.00 L 466.00 1126.00 L 466.00 1118.00 L 476.00 1099.00 L 496.00 1069.00 L 508.00 1052.00 L 512.00 1048.00 L 514.00 1014.00 Z" fill="black" stroke="black" stroke-width="1"/>
</svg>