<?xml version="1.0" encoding="UTF-8"?>
<svg xmlns="http://www.w3.org/2000/svg" viewBox="408.00 328.00 895.00 1456.00">
  <path d="M 656.00 1030.00 L 660.00 1014.00 L 672.00 990.00 L 692.00 958.00 L 668.00 921.00 L 600.00 879.00 L 571.00 861.00 L 581.00 867.00 L 577.00 864.00 L 559.00 852.00 L 575.00 861.00 L 625.00 891.00 L 624.00 889.00 L 572.00 855.00 L 586.00 863.00 L 666.00 913.00 L 663.00 909.00 L 577.00 851.00 L 577.00 850.00 L 663.00 906.00 L 645.00 891.00 L 523.00 805.00 L 470.00 767.00 L 486.00 777.00 L 484.00 775.00 L 464.00 761.00 L 472.00 766.00 L 508.00 790.00 L 504.00 786.00 L 460.00 754.00 L 499.00 781.00 L 621.00 867.00 L 619.00 865.00 L 493.00 775.00 L 498.00 778.00 L 634.00 874.00 L 632.00 870.00 L 492.00 766.00 L 422.00 712.00 L 422.00 708.00 L 489.00 756.00 L 623.00 856.00 L 622.00 854.00 L 486.00 750.00 L 418.00 696.00 L 418.00 692.00 L 489.00 745.00 L 631.00 855.00 L 631.00 852.00 L 489.00 736.00 L 420.00 668.00 L 424.00 648.00 L 424.00 622.00 L 420.00 590.00 L 424.00 554.00 L 436.00 514.00 L 454.00 477.00 L 478.00 443.00 L 499.00 419.00 L 517.00 405.00 L 547.00 388.00 L 589.00 368.00 L 620.00 356.00 L 640.00 352.00 L 676.00 351.00 L 728.00 353.00 L 765.00 350.00 L 787.00 342.00 L 812.00 342.00 L 840.00 350.00 L 869.00 350.00 L 899.00 342.00 L 925.00 338.00 L 947.00 338.00 L 970.00 344.00 L 994.00 356.00 L 1005.00 370.00 L 1003.00 386.00 L 1005.00 386.00 L 1011.00 370.00 L 1013.00 371.00 L 1011.00 389.00 L 1013.00 390.00 L 1019.00 374.00 L 1022.00 375.00 L 1022.00 393.00 L 1042.00 415.00 L 1082.00 441.00 L 1108.00 462.00 L 1120.00 478.00 L 1141.00 499.00 L 1171.00 525.00 L 1183.00 547.00 L 1177.00 565.00 L 1176.00 571.00 L 1180.00 565.00 L 1181.00 571.00 L 1179.00 589.00 L 1181.00 608.00 L 1187.00 628.00 L 1190.00 656.00 L 1190.00 692.00 L 1201.00 724.00 L 1223.00 752.00 L 1243.00 784.00 L 1261.00 820.00 L 1255.00 848.00 L 1225.00 868.00 L 1225.00 871.00 L 1255.00 857.00 L 1253.00 859.00 L 1219.00 877.00 L 1217.00 880.00 L 1247.00 868.00 L 1246.00 870.00 L 1214.00 886.00 L 1198.00 914.00 L 1198.00 954.00 L 1195.00 980.00 L 1189.00 992.00 L 1188.00 1012.00 L 1192.00 1040.00 L 1191.00 1059.00 L 1185.00 1069.00 L 1175.00 1078.00 L 1161.00 1086.00 L 1148.00 1090.00 L 1136.00 1090.00 L 1110.00 1101.00 L 1070.00 1123.00 L 1042.00 1143.00 L 1026.00 1161.00 L 1016.00 1177.00 L 1012.00 1191.00 L 1010.00 1201.00 L 1010.00 1207.00 L 1071.00 1285.00 L 1193.00 1435.00 L 1193.00 1437.00 L 1071.00 1291.00 L 1077.00 1302.00 L 1211.00 1470.00 L 1212.00 1473.00 L 1080.00 1311.00 L 1081.00 1315.00 L 1215.00 1485.00 L 1217.00 1488.00 L 1087.00 1324.00 L 1087.00 1326.00 L 1217.00 1494.00 L 1218.00 1496.00 L 1090.00 1332.00 L 1091.00 1335.00 L 1221.00 1505.00 L 1222.00 1507.00 L 1094.00 1341.00 L 1096.00 1346.00 L 1228.00 1522.00 L 1293.00 1629.00 L 1291.00 1667.00 L 1286.00 1695.00 L 1278.00 1713.00 L 1266.00 1731.00 L 1250.00 1749.00 L 1235.00 1763.00 L 1221.00 1773.00 L 1209.00 1774.00 L 1199.00 1766.00 L 1154.00 1744.00 L 1074.00 1708.00 L 989.00 1675.00 L 899.00 1645.00 L 796.00 1615.00 L 680.00 1585.00 L 588.00 1566.00 L 520.00 1558.00 L 483.00 1552.00 L 477.00 1548.00 L 486.00 1493.00 L 510.00 1387.00 L 532.00 1313.00 L 552.00 1271.00 L 564.00 1239.00 L 568.00 1217.00 L 576.00 1195.00 L 588.00 1173.00 L 599.00 1143.00 L 609.00 1105.00 L 624.00 1077.00 L 644.00 1059.00 L 654.00 1047.00 L 654.00 1041.00 L 656.00 1030.00 Z" fill="black" stroke="black" stroke-width="1"/>
</svg>