<?xml version="1.0" encoding="UTF-8"?>
<svg xmlns="http://www.w3.org/2000/svg" viewBox="314.00 226.00 830.00 1637.00">
  <path d="M 428.00 1007.00 L 432.00 969.00 L 444.00 931.00 L 464.00 893.00 L 469.00 870.00 L 459.00 862.00 L 434.00 832.00 L 394.00 780.00 L 364.00 727.00 L 344.00 673.00 L 334.00 629.00 L 334.00 595.00 L 338.00 555.00 L 346.00 509.00 L 357.00 468.00 L 371.00 432.00 L 387.00 399.00 L 405.00 369.00 L 421.00 347.00 L 435.00 333.00 L 450.00 322.00 L 466.00 314.00 L 489.00 298.00 L 519.00 274.00 L 547.00 257.00 L 573.00 247.00 L 621.00 240.00 L 691.00 236.00 L 757.00 241.00 L 819.00 255.00 L 868.00 273.00 L 904.00 295.00 L 930.00 312.00 L 946.00 324.00 L 968.00 346.00 L 996.00 378.00 L 1010.00 401.00 L 1010.00 415.00 L 1013.00 418.00 L 1019.00 410.00 L 1020.00 412.00 L 1016.00 424.00 L 1017.00 425.00 L 1023.00 415.00 L 1024.00 418.00 L 1020.00 434.00 L 1022.00 437.00 L 1030.00 427.00 L 1031.00 429.00 L 1025.00 443.00 L 1026.00 445.00 L 1034.00 435.00 L 1035.00 438.00 L 1029.00 454.00 L 1031.00 457.00 L 1041.00 447.00 L 1043.00 451.00 L 1037.00 469.00 L 1038.00 471.00 L 1046.00 457.00 L 1047.00 460.00 L 1041.00 480.00 L 1043.00 482.00 L 1053.00 466.00 L 1055.00 468.00 L 1049.00 488.00 L 1052.00 490.00 L 1064.00 474.00 L 1065.00 477.00 L 1055.00 499.00 L 1056.00 500.00 L 1068.00 480.00 L 1069.00 485.00 L 1059.00 515.00 L 1062.00 518.00 L 1078.00 494.00 L 1078.00 497.00 L 1062.00 527.00 L 1053.00 552.00 L 1051.00 572.00 L 1069.00 606.00 L 1107.00 654.00 L 1128.00 683.00 L 1132.00 693.00 L 1134.00 701.00 L 1134.00 707.00 L 1122.00 721.00 L 1098.00 743.00 L 1097.00 746.00 L 1119.00 730.00 L 1118.00 732.00 L 1094.00 752.00 L 1093.00 753.00 L 1115.00 735.00 L 1115.00 738.00 L 1093.00 762.00 L 1083.00 782.00 L 1085.00 798.00 L 1081.00 811.00 L 1071.00 821.00 L 1070.00 824.00 L 1078.00 820.00 L 1078.00 823.00 L 1070.00 833.00 L 1062.00 850.00 L 1054.00 874.00 L 1052.00 892.00 L 1056.00 904.00 L 1056.00 925.00 L 1052.00 955.00 L 1046.00 974.00 L 1038.00 982.00 L 1026.00 989.00 L 1010.00 995.00 L 1004.00 998.00 L 1008.00 998.00 L 994.00 1000.00 L 962.00 1004.00 L 957.00 1005.00 L 979.00 1003.00 L 981.00 1004.00 L 963.00 1008.00 L 960.00 1013.00 L 972.00 1019.00 L 979.00 1026.00 L 981.00 1034.00 L 971.00 1049.00 L 949.00 1071.00 L 947.00 1087.00 L 965.00 1097.00 L 967.00 1100.00 L 953.00 1096.00 L 955.00 1098.00 L 973.00 1106.00 L 970.00 1106.00 L 946.00 1098.00 L 946.00 1100.00 L 970.00 1112.00 L 980.00 1123.00 L 976.00 1133.00 L 971.00 1140.00 L 965.00 1144.00 L 966.00 1152.00 L 974.00 1164.00 L 990.00 1179.00 L 1014.00 1197.00 L 1015.00 1199.00 L 993.00 1185.00 L 989.00 1183.00 L 1003.00 1193.00 L 1005.00 1195.00 L 995.00 1189.00 L 997.00 1194.00 L 1011.00 1210.00 L 1012.00 1217.00 L 1000.00 1215.00 L 982.00 1206.00 L 958.00 1190.00 L 952.00 1187.00 L 964.00 1197.00 L 965.00 1198.00 L 955.00 1190.00 L 953.00 1189.00 L 959.00 1195.00 L 959.00 1197.00 L 953.00 1195.00 L 951.00 1203.00 L 953.00 1221.00 L 978.00 1279.00 L 1026.00 1377.00 L 1057.00 1446.00 L 1071.00 1486.00 L 1085.00 1537.00 L 1099.00 1599.00 L 1108.00 1659.00 L 1112.00 1717.00 L 1110.00 1759.00 L 1102.00 1785.00 L 1091.00 1807.00 L 1077.00 1825.00 L 1060.00 1839.00 L 1040.00 1849.00 L 1022.00 1853.00 L 1006.00 1851.00 L 984.00 1843.00 L 956.00 1829.00 L 899.00 1791.00 L 813.00 1729.00 L 735.00 1680.00 L 665.00 1644.00 L 584.00 1611.00 L 492.00 1581.00 L 417.00 1562.00 L 359.00 1554.00 L 328.00 1548.00 L 324.00 1544.00 L 331.00 1507.00 L 349.00 1437.00 L 376.00 1352.00 L 412.00 1252.00 L 432.00 1191.00 L 436.00 1169.00 L 433.00 1145.00 L 423.00 1119.00 L 420.00 1088.00 L 424.00 1052.00 L 426.00 1032.00 L 426.00 1028.00 L 428.00 1007.00 Z" fill="black" stroke="black" stroke-width="1"/>
</svg>