<?xml version="1.0" encoding="UTF-8"?>
<svg xmlns="http://www.w3.org/2000/svg" viewBox="320.00 290.00 732.00 1403.00">
  <path d="M 502.00 954.00 L 510.00 934.00 L 505.00 907.00 L 487.00 873.00 L 478.00 854.00 L 478.00 850.00 L 471.00 843.00 L 457.00 833.00 L 458.00 832.00 L 474.00 840.00 L 468.00 835.00 L 440.00 817.00 L 428.00 809.00 L 432.00 811.00 L 423.00 802.00 L 401.00 782.00 L 378.00 754.00 L 354.00 718.00 L 339.00 682.00 L 333.00 646.00 L 330.00 608.00 L 330.00 568.00 L 336.00 524.00 L 348.00 476.00 L 362.00 439.00 L 378.00 413.00 L 401.00 386.00 L 431.00 358.00 L 454.00 340.00 L 470.00 332.00 L 488.00 326.00 L 508.00 322.00 L 525.00 317.00 L 539.00 311.00 L 554.00 306.00 L 570.00 302.00 L 606.00 300.00 L 662.00 300.00 L 704.00 303.00 L 732.00 309.00 L 756.00 316.00 L 776.00 324.00 L 814.00 347.00 L 870.00 385.00 L 907.00 413.00 L 925.00 431.00 L 945.00 454.00 L 967.00 482.00 L 976.00 503.00 L 972.00 517.00 L 974.00 520.00 L 982.00 512.00 L 983.00 514.00 L 977.00 526.00 L 978.00 529.00 L 986.00 523.00 L 987.00 526.00 L 981.00 538.00 L 982.00 541.00 L 990.00 535.00 L 991.00 539.00 L 985.00 553.00 L 986.00 556.00 L 994.00 548.00 L 995.00 551.00 L 989.00 565.00 L 988.00 571.00 L 992.00 569.00 L 992.00 571.00 L 988.00 577.00 L 990.00 575.00 L 998.00 565.00 L 998.00 567.00 L 990.00 581.00 L 990.00 583.00 L 998.00 573.00 L 998.00 576.00 L 990.00 592.00 L 991.00 594.00 L 1001.00 582.00 L 1000.00 587.00 L 988.00 609.00 L 989.00 612.00 L 1003.00 596.00 L 1002.00 602.00 L 986.00 630.00 L 979.00 654.00 L 981.00 674.00 L 993.00 704.00 L 1015.00 744.00 L 1023.00 772.00 L 1017.00 788.00 L 1009.00 799.00 L 999.00 805.00 L 996.00 807.00 L 1000.00 805.00 L 1000.00 806.00 L 996.00 810.00 L 998.00 824.00 L 1006.00 848.00 L 1006.00 865.00 L 998.00 875.00 L 995.00 884.00 L 997.00 892.00 L 995.00 900.00 L 989.00 908.00 L 984.00 917.00 L 980.00 927.00 L 978.00 938.00 L 978.00 950.00 L 973.00 965.00 L 963.00 983.00 L 952.00 997.00 L 940.00 1007.00 L 922.00 1015.00 L 898.00 1021.00 L 887.00 1030.00 L 889.00 1042.00 L 882.00 1057.00 L 866.00 1075.00 L 863.00 1090.00 L 873.00 1102.00 L 872.00 1104.00 L 860.00 1096.00 L 859.00 1098.00 L 869.00 1110.00 L 873.00 1118.00 L 871.00 1122.00 L 866.00 1125.00 L 858.00 1127.00 L 858.00 1136.00 L 866.00 1152.00 L 866.00 1155.00 L 858.00 1145.00 L 861.00 1149.00 L 875.00 1167.00 L 874.00 1166.00 L 858.00 1146.00 L 860.00 1149.00 L 880.00 1175.00 L 882.00 1178.00 L 866.00 1158.00 L 867.00 1161.00 L 885.00 1187.00 L 895.00 1205.00 L 897.00 1215.00 L 897.00 1223.00 L 895.00 1229.00 L 915.00 1268.00 L 957.00 1340.00 L 963.00 1353.00 L 933.00 1307.00 L 935.00 1311.00 L 969.00 1365.00 L 963.00 1356.00 L 917.00 1284.00 L 918.00 1287.00 L 966.00 1365.00 L 965.00 1364.00 L 915.00 1284.00 L 916.00 1286.00 L 968.00 1370.00 L 1003.00 1435.00 L 1021.00 1481.00 L 1029.00 1503.00 L 1027.00 1501.00 L 1030.00 1514.00 L 1038.00 1542.00 L 1042.00 1572.00 L 1042.00 1604.00 L 1038.00 1631.00 L 1030.00 1653.00 L 1022.00 1668.00 L 1014.00 1676.00 L 1002.00 1681.00 L 986.00 1683.00 L 962.00 1677.00 L 930.00 1663.00 L 887.00 1637.00 L 833.00 1599.00 L 770.00 1561.00 L 698.00 1523.00 L 634.00 1493.00 L 578.00 1471.00 L 534.00 1455.00 L 502.00 1445.00 L 466.00 1436.00 L 426.00 1428.00 L 402.00 1421.00 L 394.00 1415.00 L 392.00 1401.00 L 396.00 1379.00 L 397.00 1369.00 L 395.00 1371.00 L 401.00 1345.00 L 415.00 1291.00 L 434.00 1238.00 L 458.00 1186.00 L 470.00 1155.00 L 470.00 1145.00 L 475.00 1129.00 L 485.00 1107.00 L 489.00 1083.00 L 487.00 1057.00 L 489.00 1026.00 L 495.00 990.00 L 498.00 970.00 L 498.00 966.00 L 502.00 954.00 Z" fill="black" stroke="black" stroke-width="1"/>
</svg>