<?xml version="1.0" encoding="UTF-8"?>
<svg xmlns="http://www.w3.org/2000/svg" viewBox="164.00 229.00 1039.00 1604.00">
  <path d="M 611.00 927.00 L 613.00 921.00 L 552.00 905.00 L 428.00 879.00 L 377.00 868.00 L 399.00 872.00 L 396.00 870.00 L 368.00 862.00 L 373.00 861.00 L 411.00 867.00 L 408.00 865.00 L 364.00 855.00 L 340.00 848.00 L 336.00 844.00 L 360.00 848.00 L 412.00 860.00 L 409.00 857.00 L 351.00 839.00 L 395.00 849.00 L 541.00 887.00 L 539.00 885.00 L 389.00 843.00 L 368.00 836.00 L 476.00 864.00 L 475.00 861.00 L 365.00 827.00 L 368.00 827.00 L 484.00 861.00 L 483.00 858.00 L 365.00 818.00 L 380.00 822.00 L 528.00 870.00 L 506.00 859.00 L 314.00 789.00 L 317.00 789.00 L 515.00 859.00 L 514.00 858.00 L 314.00 786.00 L 227.00 754.00 L 253.00 762.00 L 249.00 758.00 L 215.00 742.00 L 291.00 769.00 L 477.00 839.00 L 474.00 836.00 L 282.00 760.00 L 216.00 733.00 L 276.00 755.00 L 275.00 752.00 L 213.00 724.00 L 214.00 722.00 L 278.00 746.00 L 277.00 744.00 L 211.00 716.00 L 211.00 715.00 L 277.00 741.00 L 276.00 737.00 L 208.00 703.00 L 207.00 700.00 L 273.00 728.00 L 273.00 725.00 L 207.00 691.00 L 174.00 634.00 L 174.00 554.00 L 178.00 500.00 L 186.00 472.00 L 196.00 451.00 L 208.00 437.00 L 213.00 428.00 L 211.00 424.00 L 213.00 421.00 L 219.00 419.00 L 224.00 412.00 L 228.00 400.00 L 236.00 391.00 L 248.00 385.00 L 254.00 379.00 L 254.00 373.00 L 261.00 365.00 L 275.00 355.00 L 287.00 348.00 L 297.00 344.00 L 314.00 343.00 L 338.00 345.00 L 349.00 343.00 L 347.00 337.00 L 349.00 329.00 L 355.00 319.00 L 371.00 304.00 L 397.00 284.00 L 423.00 272.00 L 449.00 268.00 L 477.00 271.00 L 507.00 281.00 L 536.00 277.00 L 564.00 259.00 L 589.00 247.00 L 611.00 241.00 L 652.00 239.00 L 712.00 241.00 L 752.00 245.00 L 772.00 251.00 L 781.00 272.00 L 779.00 308.00 L 781.00 309.00 L 787.00 275.00 L 790.00 276.00 L 790.00 312.00 L 793.00 313.00 L 799.00 279.00 L 801.00 279.00 L 799.00 313.00 L 801.00 315.00 L 807.00 285.00 L 809.00 285.00 L 807.00 315.00 L 809.00 316.00 L 815.00 288.00 L 818.00 289.00 L 818.00 319.00 L 821.00 322.00 L 827.00 298.00 L 830.00 298.00 L 830.00 322.00 L 832.00 326.00 L 836.00 310.00 L 838.00 310.00 L 838.00 326.00 L 856.00 339.00 L 892.00 349.00 L 929.00 364.00 L 967.00 384.00 L 1005.00 414.00 L 1043.00 454.00 L 1072.00 479.00 L 1092.00 489.00 L 1097.00 504.00 L 1087.00 524.00 L 1089.00 527.00 L 1103.00 513.00 L 1104.00 515.00 L 1092.00 533.00 L 1089.00 553.00 L 1095.00 575.00 L 1097.00 596.00 L 1095.00 616.00 L 1107.00 645.00 L 1133.00 683.00 L 1154.00 718.00 L 1170.00 750.00 L 1175.00 773.00 L 1169.00 787.00 L 1151.00 802.00 L 1121.00 818.00 L 1106.00 841.00 L 1106.00 871.00 L 1102.00 898.00 L 1094.00 922.00 L 1092.00 940.00 L 1096.00 952.00 L 1096.00 970.00 L 1092.00 994.00 L 1083.00 1011.00 L 1069.00 1021.00 L 1038.00 1032.00 L 990.00 1044.00 L 952.00 1071.00 L 924.00 1113.00 L 909.00 1139.00 L 907.00 1149.00 L 971.00 1252.00 L 1101.00 1448.00 L 1146.00 1519.00 L 1106.00 1465.00 L 1109.00 1471.00 L 1155.00 1537.00 L 1161.00 1546.00 L 1127.00 1498.00 L 1128.00 1501.00 L 1164.00 1555.00 L 1184.00 1588.00 L 1188.00 1600.00 L 1191.00 1623.00 L 1193.00 1657.00 L 1189.00 1691.00 L 1179.00 1725.00 L 1169.00 1749.00 L 1159.00 1763.00 L 1139.00 1781.00 L 1109.00 1803.00 L 1086.00 1817.00 L 1070.00 1823.00 L 987.00 1758.00 L 837.00 1622.00 L 712.00 1515.00 L 612.00 1437.00 L 551.00 1387.00 L 529.00 1365.00 L 491.00 1336.00 L 437.00 1300.00 L 409.00 1279.00 L 407.00 1273.00 L 409.00 1263.00 L 415.00 1249.00 L 430.00 1229.00 L 454.00 1203.00 L 456.00 1199.00 L 436.00 1217.00 L 437.00 1213.00 L 459.00 1187.00 L 463.00 1180.00 L 449.00 1192.00 L 449.00 1188.00 L 463.00 1168.00 L 466.00 1161.00 L 458.00 1167.00 L 465.00 1159.00 L 487.00 1137.00 L 510.00 1097.00 L 534.00 1039.00 L 553.00 1007.00 L 567.00 1001.00 L 569.00 999.00 L 559.00 1001.00 L 559.00 999.00 L 569.00 993.00 L 582.00 978.00 L 598.00 954.00 L 607.00 939.00 L 609.00 933.00 L 611.00 927.00 Z" fill="black" stroke="black" stroke-width="1"/>
</svg>