<?xml version="1.0" encoding="UTF-8"?>
<svg xmlns="http://www.w3.org/2000/svg" viewBox="400.00 237.00 908.00 1612.00">
  <path d="M 678.00 954.00 L 686.00 910.00 L 642.00 864.00 L 546.00 816.00 L 543.00 813.00 L 633.00 855.00 L 631.00 853.00 L 537.00 807.00 L 534.00 805.00 L 622.00 847.00 L 620.00 845.00 L 528.00 799.00 L 525.00 797.00 L 611.00 839.00 L 609.00 837.00 L 519.00 791.00 L 512.00 787.00 L 588.00 825.00 L 585.00 822.00 L 503.00 778.00 L 497.00 774.00 L 567.00 810.00 L 565.00 807.00 L 491.00 765.00 L 445.00 727.00 L 427.00 693.00 L 416.00 665.00 L 412.00 643.00 L 410.00 611.00 L 410.00 569.00 L 424.00 507.00 L 452.00 425.00 L 474.00 375.00 L 490.00 357.00 L 511.00 341.00 L 537.00 327.00 L 565.00 300.00 L 595.00 260.00 L 616.00 247.00 L 628.00 261.00 L 644.00 263.00 L 664.00 253.00 L 681.00 248.00 L 695.00 248.00 L 707.00 252.00 L 717.00 260.00 L 725.00 271.00 L 731.00 285.00 L 733.00 287.00 L 731.00 277.00 L 734.00 276.00 L 742.00 284.00 L 768.00 280.00 L 812.00 264.00 L 852.00 255.00 L 888.00 253.00 L 923.00 255.00 L 957.00 261.00 L 987.00 269.00 L 1013.00 279.00 L 1042.00 295.00 L 1074.00 317.00 L 1101.00 339.00 L 1123.00 361.00 L 1143.00 377.00 L 1161.00 387.00 L 1167.00 401.00 L 1161.00 419.00 L 1163.00 421.00 L 1173.00 407.00 L 1174.00 410.00 L 1166.00 430.00 L 1164.00 437.00 L 1168.00 431.00 L 1169.00 433.00 L 1167.00 443.00 L 1172.00 439.00 L 1184.00 421.00 L 1186.00 425.00 L 1178.00 451.00 L 1180.00 454.00 L 1192.00 434.00 L 1192.00 436.00 L 1180.00 460.00 L 1181.00 462.00 L 1195.00 442.00 L 1197.00 445.00 L 1187.00 471.00 L 1188.00 474.00 L 1200.00 454.00 L 1201.00 457.00 L 1191.00 483.00 L 1191.00 490.00 L 1201.00 478.00 L 1202.00 480.00 L 1194.00 496.00 L 1194.00 499.00 L 1202.00 489.00 L 1203.00 490.00 L 1197.00 502.00 L 1198.00 528.00 L 1206.00 568.00 L 1232.00 619.00 L 1276.00 681.00 L 1298.00 716.00 L 1298.00 724.00 L 1285.00 738.00 L 1259.00 758.00 L 1248.00 784.00 L 1252.00 816.00 L 1249.00 835.00 L 1239.00 841.00 L 1237.00 843.00 L 1243.00 841.00 L 1244.00 844.00 L 1240.00 852.00 L 1239.00 858.00 L 1241.00 862.00 L 1235.00 875.00 L 1221.00 897.00 L 1216.00 920.00 L 1220.00 944.00 L 1219.00 962.00 L 1213.00 974.00 L 1205.00 984.00 L 1195.00 992.00 L 1176.00 996.00 L 1148.00 996.00 L 1146.00 997.00 L 1170.00 999.00 L 1168.00 1000.00 L 1140.00 1000.00 L 1136.00 1001.00 L 1156.00 1003.00 L 1150.00 1005.00 L 1118.00 1007.00 L 1109.00 1010.00 L 1123.00 1014.00 L 1116.00 1022.00 L 1088.00 1034.00 L 1065.00 1061.00 L 1047.00 1103.00 L 1038.00 1143.00 L 1038.00 1181.00 L 1086.00 1275.00 L 1182.00 1425.00 L 1182.00 1427.00 L 1086.00 1281.00 L 1089.00 1287.00 L 1191.00 1445.00 L 1199.00 1458.00 L 1113.00 1326.00 L 1114.00 1329.00 L 1202.00 1467.00 L 1253.00 1554.00 L 1267.00 1590.00 L 1273.00 1607.00 L 1271.00 1605.00 L 1273.00 1616.00 L 1279.00 1640.00 L 1280.00 1671.00 L 1276.00 1709.00 L 1267.00 1745.00 L 1253.00 1779.00 L 1237.00 1806.00 L 1219.00 1826.00 L 1204.00 1837.00 L 1192.00 1839.00 L 1152.00 1807.00 L 1084.00 1741.00 L 1018.00 1685.00 L 954.00 1639.00 L 876.00 1595.00 L 784.00 1553.00 L 706.00 1521.00 L 642.00 1499.00 L 605.00 1489.00 L 595.00 1491.00 L 590.00 1488.00 L 590.00 1480.00 L 580.00 1476.00 L 560.00 1476.00 L 551.00 1473.00 L 553.00 1467.00 L 552.00 1463.00 L 548.00 1461.00 L 540.00 1462.00 L 528.00 1466.00 L 514.00 1467.00 L 498.00 1465.00 L 514.00 1399.00 L 562.00 1269.00 L 597.00 1185.00 L 619.00 1147.00 L 631.00 1114.00 L 633.00 1086.00 L 643.00 1050.00 L 661.00 1006.00 L 671.00 982.00 L 673.00 978.00 L 678.00 954.00 Z" fill="black" stroke="black" stroke-width="1"/>
</svg>