<?xml version="1.0" encoding="UTF-8"?>
<svg xmlns="http://www.w3.org/2000/svg" viewBox="397.00 220.00 954.00 1372.00">
  <path d="M 444.00 830.00 L 448.00 814.00 L 440.00 800.00 L 420.00 788.00 L 409.00 776.00 L 407.00 764.00 L 424.00 728.00 L 460.00 668.00 L 478.00 610.00 L 478.00 554.00 L 472.00 518.00 L 460.00 502.00 L 461.00 499.00 L 475.00 509.00 L 477.00 506.00 L 467.00 490.00 L 468.00 487.00 L 480.00 497.00 L 481.00 494.00 L 471.00 478.00 L 472.00 474.00 L 484.00 482.00 L 485.00 479.00 L 475.00 465.00 L 476.00 462.00 L 488.00 470.00 L 490.00 465.00 L 482.00 447.00 L 483.00 444.00 L 493.00 456.00 L 496.00 452.00 L 492.00 432.00 L 502.00 408.00 L 526.00 380.00 L 560.00 355.00 L 604.00 333.00 L 625.00 312.00 L 623.00 292.00 L 625.00 291.00 L 631.00 309.00 L 633.00 305.00 L 631.00 279.00 L 634.00 278.00 L 642.00 302.00 L 643.00 300.00 L 637.00 272.00 L 643.00 272.00 L 661.00 300.00 L 668.00 298.00 L 664.00 266.00 L 667.00 266.00 L 677.00 298.00 L 680.00 299.00 L 676.00 269.00 L 679.00 270.00 L 689.00 302.00 L 693.00 304.00 L 691.00 276.00 L 693.00 275.00 L 699.00 301.00 L 701.00 301.00 L 699.00 275.00 L 704.00 254.00 L 716.00 238.00 L 726.00 230.00 L 734.00 230.00 L 742.00 243.00 L 750.00 269.00 L 753.00 270.00 L 751.00 246.00 L 753.00 244.00 L 759.00 264.00 L 766.00 269.00 L 774.00 259.00 L 780.00 263.00 L 784.00 281.00 L 786.00 279.00 L 786.00 257.00 L 788.00 257.00 L 792.00 279.00 L 796.00 276.00 L 800.00 248.00 L 804.00 245.00 L 808.00 267.00 L 811.00 265.00 L 813.00 239.00 L 816.00 240.00 L 820.00 268.00 L 824.00 269.00 L 828.00 243.00 L 832.00 242.00 L 836.00 266.00 L 840.00 265.00 L 844.00 239.00 L 847.00 239.00 L 849.00 265.00 L 852.00 264.00 L 856.00 236.00 L 858.00 236.00 L 858.00 264.00 L 879.00 271.00 L 921.00 257.00 L 951.00 256.00 L 969.00 268.00 L 1002.00 276.00 L 1050.00 280.00 L 1089.00 291.00 L 1119.00 309.00 L 1146.00 334.00 L 1170.00 366.00 L 1199.00 393.00 L 1233.00 415.00 L 1273.00 479.00 L 1319.00 585.00 L 1341.00 660.00 L 1339.00 704.00 L 1326.00 759.00 L 1302.00 825.00 L 1238.00 858.00 L 1134.00 858.00 L 1132.00 860.00 L 1232.00 864.00 L 1229.00 865.00 L 1123.00 863.00 L 1121.00 867.00 L 1223.00 877.00 L 1217.00 878.00 L 1103.00 870.00 L 1101.00 871.00 L 1211.00 881.00 L 1223.00 884.00 L 1137.00 880.00 L 1132.00 883.00 L 1208.00 893.00 L 1228.00 897.00 L 1192.00 895.00 L 1189.00 896.00 L 1219.00 900.00 L 1186.00 896.00 L 1090.00 884.00 L 1073.00 883.00 L 1135.00 893.00 L 1134.00 895.00 L 1070.00 889.00 L 1025.00 895.00 L 999.00 913.00 L 984.00 942.00 L 980.00 982.00 L 989.00 1042.00 L 1011.00 1122.00 L 1033.00 1182.00 L 1055.00 1222.00 L 1056.00 1227.00 L 1036.00 1197.00 L 1039.00 1209.00 L 1065.00 1263.00 L 1074.00 1306.00 L 1066.00 1338.00 L 1053.00 1361.00 L 1035.00 1375.00 L 974.00 1396.00 L 870.00 1424.00 L 753.00 1477.00 L 623.00 1555.00 L 584.00 1513.00 L 636.00 1351.00 L 633.00 1354.00 L 575.00 1522.00 L 576.00 1517.00 L 636.00 1339.00 L 634.00 1340.00 L 570.00 1520.00 L 570.00 1516.00 L 634.00 1328.00 L 631.00 1330.00 L 561.00 1522.00 L 561.00 1520.00 L 631.00 1324.00 L 629.00 1326.00 L 555.00 1526.00 L 555.00 1524.00 L 629.00 1320.00 L 624.00 1324.00 L 540.00 1536.00 L 539.00 1534.00 L 621.00 1318.00 L 618.00 1321.00 L 530.00 1543.00 L 530.00 1541.00 L 618.00 1315.00 L 612.00 1318.00 L 512.00 1550.00 L 511.00 1548.00 L 609.00 1312.00 L 607.00 1313.00 L 505.00 1551.00 L 504.00 1549.00 L 604.00 1307.00 L 601.00 1303.00 L 495.00 1537.00 L 494.00 1535.00 L 598.00 1297.00 L 596.00 1292.00 L 488.00 1520.00 L 458.00 1582.00 L 506.00 1478.00 L 505.00 1473.00 L 455.00 1567.00 L 484.00 1503.00 L 592.00 1281.00 L 591.00 1278.00 L 481.00 1494.00 L 480.00 1491.00 L 588.00 1269.00 L 588.00 1260.00 L 480.00 1464.00 L 479.00 1461.00 L 585.00 1251.00 L 628.00 1124.00 L 608.00 1080.00 L 569.00 1040.00 L 511.00 1004.00 L 471.00 952.00 L 449.00 884.00 L 439.00 847.00 L 441.00 841.00 L 444.00 830.00 Z" fill="black" stroke="black" stroke-width="1"/>
</svg>