<?xml version="1.0" encoding="UTF-8"?>
<svg xmlns="http://www.w3.org/2000/svg" viewBox="284.00 273.00 759.00 1609.00">
  <path d="M 356.00 1035.00 L 360.00 973.00 L 371.00 930.00 L 389.00 906.00 L 392.00 888.00 L 380.00 876.00 L 362.00 844.00 L 338.00 792.00 L 319.00 740.00 L 305.00 688.00 L 298.00 653.00 L 298.00 635.00 L 304.00 597.00 L 316.00 539.00 L 337.00 483.00 L 367.00 429.00 L 401.00 386.00 L 439.00 354.00 L 474.00 330.00 L 506.00 314.00 L 540.00 300.00 L 576.00 288.00 L 631.00 283.00 L 705.00 285.00 L 776.00 301.00 L 844.00 331.00 L 898.00 363.00 L 938.00 397.00 L 970.00 427.00 L 994.00 453.00 L 1012.00 484.00 L 1024.00 520.00 L 1027.00 549.00 L 1021.00 571.00 L 1022.00 577.00 L 1030.00 567.00 L 1030.00 568.00 L 1022.00 580.00 L 1022.00 583.00 L 1030.00 577.00 L 1030.00 583.00 L 1022.00 601.00 L 1023.00 605.00 L 1033.00 595.00 L 1033.00 598.00 L 1023.00 614.00 L 1023.00 617.00 L 1033.00 607.00 L 1032.00 610.00 L 1020.00 626.00 L 1020.00 628.00 L 1032.00 616.00 L 1032.00 618.00 L 1020.00 634.00 L 1020.00 636.00 L 1032.00 624.00 L 1031.00 627.00 L 1017.00 645.00 L 1016.00 648.00 L 1028.00 636.00 L 1027.00 639.00 L 1013.00 657.00 L 1011.00 660.00 L 1021.00 648.00 L 1021.00 649.00 L 1011.00 663.00 L 1003.00 680.00 L 997.00 700.00 L 997.00 724.00 L 1003.00 752.00 L 1013.00 780.00 L 1027.00 808.00 L 1033.00 829.00 L 1031.00 843.00 L 1023.00 859.00 L 1009.00 877.00 L 1003.00 899.00 L 1005.00 925.00 L 1003.00 943.00 L 997.00 953.00 L 995.00 962.00 L 997.00 970.00 L 995.00 979.00 L 989.00 989.00 L 982.00 996.00 L 974.00 1000.00 L 968.00 1013.00 L 964.00 1035.00 L 957.00 1056.00 L 947.00 1076.00 L 930.00 1093.00 L 906.00 1107.00 L 877.00 1118.00 L 843.00 1126.00 L 830.00 1133.00 L 838.00 1139.00 L 841.00 1145.00 L 839.00 1151.00 L 847.00 1161.00 L 865.00 1175.00 L 869.00 1180.00 L 859.00 1176.00 L 859.00 1178.00 L 869.00 1186.00 L 863.00 1184.00 L 841.00 1172.00 L 842.00 1175.00 L 866.00 1193.00 L 866.00 1195.00 L 842.00 1181.00 L 843.00 1183.00 L 869.00 1201.00 L 871.00 1203.00 L 849.00 1189.00 L 848.00 1191.00 L 868.00 1209.00 L 865.00 1209.00 L 839.00 1191.00 L 838.00 1193.00 L 862.00 1215.00 L 870.00 1228.00 L 862.00 1232.00 L 865.00 1243.00 L 879.00 1261.00 L 876.00 1261.00 L 856.00 1243.00 L 858.00 1248.00 L 882.00 1276.00 L 880.00 1276.00 L 852.00 1248.00 L 862.00 1262.00 L 910.00 1318.00 L 932.00 1348.00 L 928.00 1352.00 L 920.00 1353.00 L 908.00 1351.00 L 888.00 1333.00 L 860.00 1299.00 L 858.00 1298.00 L 882.00 1330.00 L 883.00 1332.00 L 861.00 1304.00 L 859.00 1302.00 L 877.00 1326.00 L 879.00 1329.00 L 865.00 1311.00 L 862.00 1309.00 L 870.00 1323.00 L 870.00 1325.00 L 862.00 1315.00 L 860.00 1313.00 L 864.00 1319.00 L 864.00 1320.00 L 860.00 1316.00 L 858.00 1325.00 L 858.00 1347.00 L 874.00 1401.00 L 906.00 1487.00 L 930.00 1571.00 L 946.00 1653.00 L 953.00 1692.00 L 951.00 1688.00 L 952.00 1705.00 L 956.00 1743.00 L 957.00 1761.00 L 955.00 1759.00 L 954.00 1769.00 L 954.00 1791.00 L 950.00 1813.00 L 942.00 1835.00 L 933.00 1851.00 L 923.00 1861.00 L 912.00 1868.00 L 900.00 1872.00 L 884.00 1872.00 L 864.00 1868.00 L 829.00 1851.00 L 779.00 1821.00 L 744.00 1797.00 L 724.00 1779.00 L 661.00 1744.00 L 555.00 1692.00 L 481.00 1658.00 L 439.00 1642.00 L 387.00 1627.00 L 325.00 1613.00 L 294.00 1576.00 L 294.00 1516.00 L 296.00 1473.00 L 300.00 1447.00 L 311.00 1397.00 L 329.00 1323.00 L 338.00 1275.00 L 338.00 1253.00 L 345.00 1224.00 L 359.00 1188.00 L 363.00 1160.00 L 357.00 1140.00 L 354.00 1117.00 L 354.00 1091.00 L 354.00 1075.00 L 354.00 1069.00 L 356.00 1035.00 Z" fill="black" stroke="black" stroke-width="1"/>
</svg>