<?xml version="1.0" encoding="UTF-8"?>
<svg xmlns="http://www.w3.org/2000/svg" viewBox="282.00 226.00 969.00 1571.00">
  <path d="M 614.00 940.00 L 614.00 928.00 L 568.00 914.00 L 476.00 898.00 L 432.00 890.00 L 436.00 890.00 L 433.00 889.00 L 423.00 887.00 L 426.00 887.00 L 442.00 889.00 L 439.00 888.00 L 417.00 884.00 L 420.00 884.00 L 448.00 888.00 L 446.00 887.00 L 414.00 881.00 L 419.00 881.00 L 461.00 887.00 L 456.00 883.00 L 404.00 869.00 L 407.00 868.00 L 465.00 880.00 L 464.00 879.00 L 404.00 865.00 L 435.00 871.00 L 557.00 897.00 L 555.00 895.00 L 429.00 865.00 L 365.00 849.00 L 363.00 847.00 L 399.00 854.00 L 473.00 870.00 L 472.00 867.00 L 396.00 845.00 L 423.00 851.00 L 553.00 885.00 L 550.00 882.00 L 414.00 842.00 L 390.00 834.00 L 478.00 858.00 L 475.00 855.00 L 381.00 825.00 L 405.00 831.00 L 547.00 873.00 L 544.00 869.00 L 396.00 819.00 L 374.00 811.00 L 478.00 845.00 L 477.00 842.00 L 371.00 802.00 L 317.00 780.00 L 315.00 776.00 L 390.00 801.00 L 542.00 855.00 L 541.00 852.00 L 387.00 792.00 L 370.00 785.00 L 490.00 831.00 L 489.00 829.00 L 367.00 779.00 L 383.00 784.00 L 537.00 844.00 L 537.00 841.00 L 383.00 775.00 L 378.00 772.00 L 522.00 832.00 L 521.00 830.00 L 375.00 766.00 L 372.00 764.00 L 512.00 824.00 L 512.00 821.00 L 372.00 755.00 L 374.00 755.00 L 518.00 821.00 L 517.00 818.00 L 371.00 746.00 L 296.00 684.00 L 292.00 632.00 L 296.00 589.00 L 308.00 555.00 L 315.00 518.00 L 317.00 478.00 L 321.00 450.00 L 327.00 434.00 L 335.00 424.00 L 345.00 420.00 L 353.00 414.00 L 359.00 406.00 L 363.00 396.00 L 365.00 384.00 L 382.00 363.00 L 414.00 333.00 L 444.00 316.00 L 472.00 312.00 L 499.00 301.00 L 525.00 283.00 L 546.00 271.00 L 562.00 265.00 L 584.00 261.00 L 612.00 259.00 L 635.00 260.00 L 653.00 264.00 L 683.00 259.00 L 725.00 245.00 L 749.00 238.00 L 755.00 238.00 L 759.00 253.00 L 761.00 283.00 L 763.00 286.00 L 765.00 262.00 L 767.00 261.00 L 769.00 283.00 L 770.00 279.00 L 770.00 249.00 L 771.00 250.00 L 773.00 282.00 L 775.00 282.00 L 777.00 250.00 L 780.00 250.00 L 784.00 282.00 L 786.00 281.00 L 786.00 247.00 L 789.00 247.00 L 795.00 281.00 L 799.00 282.00 L 801.00 250.00 L 804.00 236.00 L 808.00 240.00 L 810.00 256.00 L 810.00 284.00 L 825.00 299.00 L 855.00 301.00 L 891.00 310.00 L 933.00 326.00 L 984.00 360.00 L 1044.00 412.00 L 1084.00 452.00 L 1104.00 480.00 L 1114.00 497.00 L 1114.00 503.00 L 1117.00 506.00 L 1123.00 506.00 L 1132.00 512.00 L 1144.00 524.00 L 1149.00 553.00 L 1147.00 599.00 L 1149.00 631.00 L 1155.00 649.00 L 1179.00 681.00 L 1221.00 727.00 L 1241.00 756.00 L 1239.00 768.00 L 1224.00 783.00 L 1196.00 801.00 L 1186.00 824.00 L 1194.00 852.00 L 1198.00 873.00 L 1198.00 887.00 L 1193.00 898.00 L 1183.00 906.00 L 1179.00 915.00 L 1181.00 925.00 L 1178.00 936.00 L 1170.00 948.00 L 1166.00 966.00 L 1166.00 990.00 L 1163.00 1010.00 L 1157.00 1026.00 L 1147.00 1038.00 L 1133.00 1046.00 L 1112.00 1051.00 L 1084.00 1053.00 L 1058.00 1058.00 L 1034.00 1066.00 L 1013.00 1077.00 L 995.00 1091.00 L 978.00 1113.00 L 962.00 1143.00 L 1005.00 1227.00 L 1107.00 1365.00 L 1159.00 1436.00 L 1161.00 1440.00 L 1110.00 1373.00 L 1006.00 1235.00 L 1002.00 1232.00 L 1098.00 1364.00 L 1099.00 1366.00 L 1005.00 1238.00 L 1008.00 1244.00 L 1108.00 1384.00 L 1109.00 1386.00 L 1011.00 1250.00 L 1012.00 1253.00 L 1112.00 1395.00 L 1113.00 1397.00 L 1015.00 1259.00 L 1018.00 1265.00 L 1122.00 1415.00 L 1180.00 1503.00 L 1192.00 1529.00 L 1200.00 1551.00 L 1204.00 1569.00 L 1205.00 1596.00 L 1203.00 1632.00 L 1195.00 1666.00 L 1181.00 1698.00 L 1158.00 1730.00 L 1126.00 1762.00 L 1101.00 1781.00 L 1083.00 1787.00 L 1019.00 1744.00 L 909.00 1652.00 L 831.00 1590.00 L 785.00 1558.00 L 724.00 1520.00 L 648.00 1476.00 L 565.00 1433.00 L 475.00 1391.00 L 445.00 1337.00 L 475.00 1271.00 L 493.00 1226.00 L 499.00 1202.00 L 511.00 1169.00 L 529.00 1127.00 L 540.00 1094.00 L 544.00 1070.00 L 550.00 1051.00 L 558.00 1037.00 L 570.00 1025.00 L 586.00 1015.00 L 598.00 997.00 L 606.00 971.00 L 611.00 955.00 L 613.00 949.00 L 614.00 940.00 Z" fill="black" stroke="black" stroke-width="1"/>
</svg>