<?xml version="1.0" encoding="UTF-8"?>
<svg xmlns="http://www.w3.org/2000/svg" viewBox="258.00 287.00 878.00 1448.00">
  <path d="M 510.00 978.00 L 510.00 938.00 L 457.00 887.00 L 351.00 825.00 L 337.00 813.00 L 415.00 851.00 L 413.00 848.00 L 331.00 804.00 L 329.00 802.00 L 407.00 842.00 L 404.00 839.00 L 320.00 793.00 L 319.00 791.00 L 401.00 833.00 L 399.00 830.00 L 313.00 782.00 L 310.00 779.00 L 390.00 821.00 L 390.00 819.00 L 310.00 773.00 L 309.00 772.00 L 387.00 816.00 L 384.00 808.00 L 300.00 748.00 L 294.00 740.00 L 366.00 784.00 L 367.00 782.00 L 297.00 734.00 L 295.00 731.00 L 361.00 773.00 L 361.00 771.00 L 295.00 725.00 L 292.00 721.00 L 352.00 759.00 L 352.00 756.00 L 292.00 712.00 L 268.00 621.00 L 280.00 483.00 L 294.00 398.00 L 310.00 366.00 L 322.00 347.00 L 330.00 341.00 L 341.00 350.00 L 355.00 374.00 L 356.00 373.00 L 344.00 347.00 L 345.00 346.00 L 359.00 370.00 L 361.00 370.00 L 351.00 346.00 L 353.00 344.00 L 367.00 364.00 L 369.00 364.00 L 359.00 344.00 L 360.00 344.00 L 372.00 364.00 L 374.00 365.00 L 366.00 347.00 L 373.00 346.00 L 395.00 362.00 L 406.00 364.00 L 406.00 352.00 L 422.00 339.00 L 454.00 325.00 L 507.00 311.00 L 581.00 297.00 L 680.00 302.00 L 804.00 326.00 L 887.00 354.00 L 929.00 386.00 L 958.00 418.00 L 974.00 450.00 L 986.00 462.00 L 994.00 454.00 L 997.00 459.00 L 995.00 477.00 L 998.00 479.00 L 1006.00 465.00 L 1008.00 467.00 L 1004.00 485.00 L 1006.00 487.00 L 1014.00 473.00 L 1016.00 478.00 L 1012.00 502.00 L 1015.00 507.00 L 1025.00 493.00 L 1033.00 537.00 L 1039.00 639.00 L 1062.00 726.00 L 1102.00 798.00 L 1108.00 841.00 L 1080.00 855.00 L 1077.00 858.00 L 1099.00 850.00 L 1098.00 853.00 L 1074.00 867.00 L 1053.00 918.00 L 1035.00 1006.00 L 983.00 1062.00 L 897.00 1086.00 L 848.00 1107.00 L 836.00 1125.00 L 881.00 1195.00 L 983.00 1317.00 L 1024.00 1371.00 L 1004.00 1357.00 L 1038.00 1407.00 L 1126.00 1521.00 L 1122.00 1518.00 L 1026.00 1398.00 L 1027.00 1402.00 L 1125.00 1530.00 L 1087.00 1482.00 L 913.00 1258.00 L 914.00 1261.00 L 1090.00 1491.00 L 1123.00 1536.00 L 1013.00 1396.00 L 1014.00 1406.00 L 1126.00 1566.00 L 1122.00 1565.00 L 1002.00 1403.00 L 1001.00 1406.00 L 1119.00 1574.00 L 1117.00 1572.00 L 995.00 1400.00 L 995.00 1403.00 L 1117.00 1581.00 L 1089.00 1542.00 L 911.00 1286.00 L 910.00 1289.00 L 1086.00 1551.00 L 1110.00 1590.00 L 982.00 1406.00 L 980.00 1412.00 L 1104.00 1608.00 L 1080.00 1572.00 L 908.00 1304.00 L 905.00 1312.00 L 1071.00 1596.00 L 1071.00 1599.00 L 905.00 1321.00 L 902.00 1325.00 L 1062.00 1611.00 L 1061.00 1612.00 L 899.00 1328.00 L 896.00 1331.00 L 1052.00 1621.00 L 1052.00 1624.00 L 896.00 1340.00 L 894.00 1343.00 L 1046.00 1633.00 L 1046.00 1635.00 L 894.00 1349.00 L 891.00 1352.00 L 1037.00 1644.00 L 1037.00 1647.00 L 891.00 1361.00 L 884.00 1360.00 L 1016.00 1644.00 L 1017.00 1648.00 L 887.00 1372.00 L 884.00 1370.00 L 1008.00 1642.00 L 1008.00 1644.00 L 884.00 1376.00 L 881.00 1375.00 L 999.00 1641.00 L 1000.00 1644.00 L 884.00 1384.00 L 880.00 1382.00 L 988.00 1638.00 L 953.00 1725.00 L 775.00 1643.00 L 592.00 1575.00 L 404.00 1521.00 L 328.00 1454.00 L 364.00 1374.00 L 374.00 1321.00 L 358.00 1295.00 L 368.00 1267.00 L 404.00 1237.00 L 405.00 1234.00 L 371.00 1258.00 L 375.00 1252.00 L 417.00 1216.00 L 416.00 1212.00 L 372.00 1240.00 L 374.00 1237.00 L 422.00 1203.00 L 426.00 1198.00 L 386.00 1222.00 L 387.00 1220.00 L 429.00 1192.00 L 465.00 1135.00 L 495.00 1049.00 L 510.00 1004.00 L 510.00 1000.00 L 510.00 978.00 Z" fill="black" stroke="black" stroke-width="1"/>
</svg>