<?xml version="1.0" encoding="UTF-8"?>
<svg xmlns="http://www.w3.org/2000/svg" viewBox="452.00 257.00 831.00 1488.00">
  <path d="M 714.00 962.00 L 714.00 946.00 L 712.00 935.00 L 708.00 929.00 L 696.00 921.00 L 676.00 911.00 L 657.00 896.00 L 639.00 876.00 L 611.00 857.00 L 573.00 839.00 L 570.00 837.00 L 602.00 851.00 L 596.00 847.00 L 552.00 825.00 L 519.00 802.00 L 497.00 778.00 L 480.00 749.00 L 468.00 715.00 L 462.00 674.00 L 462.00 626.00 L 467.00 586.00 L 477.00 554.00 L 493.00 519.00 L 515.00 481.00 L 535.00 454.00 L 553.00 438.00 L 570.00 419.00 L 586.00 397.00 L 602.00 380.00 L 618.00 368.00 L 639.00 357.00 L 665.00 347.00 L 688.00 324.00 L 708.00 288.00 L 720.00 269.00 L 724.00 267.00 L 727.00 267.00 L 729.00 269.00 L 734.00 278.00 L 742.00 294.00 L 762.00 295.00 L 794.00 281.00 L 813.00 275.00 L 819.00 277.00 L 832.00 277.00 L 852.00 275.00 L 871.00 277.00 L 889.00 283.00 L 900.00 289.00 L 904.00 295.00 L 906.00 304.00 L 906.00 316.00 L 907.00 318.00 L 909.00 310.00 L 910.00 312.00 L 910.00 324.00 L 919.00 331.00 L 937.00 333.00 L 975.00 345.00 L 1033.00 367.00 L 1083.00 396.00 L 1125.00 432.00 L 1144.00 455.00 L 1140.00 465.00 L 1142.00 467.00 L 1150.00 461.00 L 1152.00 463.00 L 1148.00 473.00 L 1147.00 477.00 L 1149.00 475.00 L 1150.00 478.00 L 1150.00 486.00 L 1153.00 485.00 L 1159.00 475.00 L 1160.00 476.00 L 1156.00 488.00 L 1158.00 490.00 L 1166.00 482.00 L 1167.00 485.00 L 1161.00 499.00 L 1162.00 501.00 L 1170.00 491.00 L 1171.00 494.00 L 1165.00 510.00 L 1166.00 513.00 L 1174.00 503.00 L 1175.00 504.00 L 1169.00 516.00 L 1166.00 524.00 L 1166.00 528.00 L 1170.00 524.00 L 1178.00 512.00 L 1179.00 514.00 L 1173.00 530.00 L 1174.00 532.00 L 1182.00 520.00 L 1183.00 523.00 L 1177.00 541.00 L 1175.00 558.00 L 1177.00 574.00 L 1176.00 587.00 L 1172.00 597.00 L 1170.00 609.00 L 1170.00 623.00 L 1173.00 637.00 L 1179.00 651.00 L 1191.00 669.00 L 1209.00 691.00 L 1224.00 715.00 L 1236.00 741.00 L 1242.00 757.00 L 1242.00 763.00 L 1229.00 775.00 L 1203.00 793.00 L 1202.00 796.00 L 1226.00 784.00 L 1225.00 786.00 L 1199.00 802.00 L 1196.00 805.00 L 1216.00 795.00 L 1216.00 797.00 L 1196.00 811.00 L 1188.00 824.00 L 1192.00 836.00 L 1189.00 848.00 L 1179.00 860.00 L 1175.00 871.00 L 1177.00 881.00 L 1175.00 892.00 L 1169.00 904.00 L 1167.00 917.00 L 1169.00 931.00 L 1169.00 947.00 L 1167.00 965.00 L 1157.00 981.00 L 1139.00 995.00 L 1111.00 1005.00 L 1073.00 1011.00 L 1047.00 1022.00 L 1033.00 1038.00 L 1017.00 1066.00 L 999.00 1106.00 L 1048.00 1214.00 L 1164.00 1390.00 L 1215.00 1468.00 L 1201.00 1448.00 L 1204.00 1453.00 L 1224.00 1483.00 L 1221.00 1479.00 L 1195.00 1441.00 L 1200.00 1450.00 L 1236.00 1506.00 L 1227.00 1494.00 L 1173.00 1414.00 L 1174.00 1417.00 L 1230.00 1503.00 L 1224.00 1495.00 L 1156.00 1393.00 L 1157.00 1396.00 L 1227.00 1504.00 L 1194.00 1453.00 L 1058.00 1243.00 L 1059.00 1246.00 L 1197.00 1462.00 L 1222.00 1502.00 L 1134.00 1366.00 L 1135.00 1369.00 L 1225.00 1511.00 L 1219.00 1503.00 L 1117.00 1345.00 L 1117.00 1348.00 L 1219.00 1512.00 L 1216.00 1508.00 L 1108.00 1336.00 L 1108.00 1338.00 L 1216.00 1514.00 L 1271.00 1606.00 L 1273.00 1614.00 L 1203.00 1501.00 L 1061.00 1267.00 L 1060.00 1268.00 L 1200.00 1504.00 L 1207.00 1517.00 L 1081.00 1307.00 L 1081.00 1310.00 L 1207.00 1526.00 L 1201.00 1516.00 L 1063.00 1280.00 L 1063.00 1282.00 L 1201.00 1522.00 L 1267.00 1649.00 L 1261.00 1663.00 L 1247.00 1681.00 L 1225.00 1703.00 L 1198.00 1721.00 L 1166.00 1735.00 L 1126.00 1725.00 L 1078.00 1691.00 L 1040.00 1666.00 L 1012.00 1650.00 L 954.00 1621.00 L 866.00 1579.00 L 778.00 1542.00 L 690.00 1510.00 L 635.00 1492.00 L 613.00 1488.00 L 591.00 1482.00 L 569.00 1474.00 L 549.00 1469.00 L 531.00 1467.00 L 521.00 1464.00 L 519.00 1460.00 L 529.00 1425.00 L 551.00 1359.00 L 568.00 1313.00 L 580.00 1287.00 L 594.00 1262.00 L 610.00 1238.00 L 621.00 1216.00 L 627.00 1196.00 L 636.00 1179.00 L 648.00 1165.00 L 655.00 1153.00 L 657.00 1143.00 L 668.00 1119.00 L 688.00 1081.00 L 701.00 1049.00 L 707.00 1023.00 L 710.00 1003.00 L 710.00 989.00 L 711.00 979.00 L 713.00 973.00 L 714.00 962.00 Z" fill="black" stroke="black" stroke-width="1"/>
</svg>