<?xml version="1.0" encoding="UTF-8"?>
<svg xmlns="http://www.w3.org/2000/svg" viewBox="261.00 166.00 838.00 1677.00">
  <path d="M 394.00 984.00 L 402.00 948.00 L 411.00 916.00 L 421.00 888.00 L 422.00 867.00 L 414.00 853.00 L 405.00 828.00 L 395.00 792.00 L 374.00 735.00 L 342.00 657.00 L 322.00 601.00 L 314.00 567.00 L 311.00 529.00 L 313.00 487.00 L 325.00 437.00 L 347.00 379.00 L 371.00 335.00 L 397.00 305.00 L 431.00 273.00 L 473.00 239.00 L 520.00 212.00 L 572.00 192.00 L 608.00 180.00 L 628.00 176.00 L 657.00 176.00 L 695.00 180.00 L 724.00 185.00 L 744.00 191.00 L 785.00 210.00 L 847.00 242.00 L 897.00 277.00 L 935.00 315.00 L 959.00 341.00 L 969.00 355.00 L 974.00 368.00 L 974.00 380.00 L 976.00 382.00 L 980.00 374.00 L 981.00 375.00 L 979.00 385.00 L 980.00 387.00 L 984.00 381.00 L 984.00 384.00 L 980.00 396.00 L 979.00 404.00 L 981.00 408.00 L 985.00 405.00 L 991.00 395.00 L 992.00 398.00 L 988.00 414.00 L 990.00 417.00 L 998.00 407.00 L 999.00 410.00 L 993.00 426.00 L 994.00 428.00 L 1002.00 416.00 L 1003.00 421.00 L 997.00 443.00 L 999.00 447.00 L 1009.00 433.00 L 1010.00 436.00 L 1002.00 456.00 L 1002.00 459.00 L 1010.00 445.00 L 1011.00 448.00 L 1005.00 468.00 L 1005.00 490.00 L 1011.00 514.00 L 1013.00 535.00 L 1011.00 553.00 L 1011.00 569.00 L 1013.00 583.00 L 1019.00 603.00 L 1029.00 629.00 L 1046.00 660.00 L 1070.00 696.00 L 1084.00 719.00 L 1088.00 729.00 L 1089.00 737.00 L 1087.00 743.00 L 1073.00 756.00 L 1047.00 776.00 L 1046.00 778.00 L 1070.00 762.00 L 1069.00 765.00 L 1043.00 787.00 L 1030.00 803.00 L 1030.00 813.00 L 1032.00 823.00 L 1036.00 833.00 L 1034.00 842.00 L 1026.00 850.00 L 1024.00 853.00 L 1028.00 851.00 L 1028.00 853.00 L 1024.00 859.00 L 1023.00 865.00 L 1025.00 871.00 L 1025.00 877.00 L 1023.00 883.00 L 1019.00 891.00 L 1013.00 901.00 L 1012.00 922.00 L 1016.00 954.00 L 1015.00 976.00 L 1009.00 988.00 L 995.00 1003.00 L 973.00 1021.00 L 964.00 1031.00 L 968.00 1033.00 L 971.00 1038.00 L 973.00 1046.00 L 968.00 1055.00 L 956.00 1065.00 L 946.00 1077.00 L 938.00 1091.00 L 943.00 1103.00 L 961.00 1113.00 L 963.00 1115.00 L 949.00 1109.00 L 939.00 1106.00 L 933.00 1106.00 L 941.00 1112.00 L 963.00 1124.00 L 971.00 1135.00 L 965.00 1145.00 L 957.00 1149.00 L 947.00 1147.00 L 949.00 1151.00 L 963.00 1161.00 L 959.00 1160.00 L 937.00 1148.00 L 939.00 1151.00 L 965.00 1169.00 L 963.00 1168.00 L 933.00 1148.00 L 945.00 1158.00 L 999.00 1198.00 L 1016.00 1212.00 L 996.00 1200.00 L 997.00 1202.00 L 1019.00 1218.00 L 1020.00 1220.00 L 1000.00 1208.00 L 998.00 1210.00 L 1014.00 1226.00 L 1016.00 1235.00 L 1004.00 1237.00 L 987.00 1233.00 L 965.00 1223.00 L 946.00 1211.00 L 930.00 1197.00 L 927.00 1195.00 L 937.00 1205.00 L 938.00 1207.00 L 930.00 1201.00 L 928.00 1209.00 L 932.00 1231.00 L 954.00 1283.00 L 994.00 1365.00 L 1018.00 1418.00 L 1026.00 1442.00 L 1035.00 1479.00 L 1045.00 1529.00 L 1050.00 1563.00 L 1050.00 1581.00 L 1052.00 1597.00 L 1056.00 1611.00 L 1059.00 1632.00 L 1061.00 1660.00 L 1061.00 1690.00 L 1059.00 1722.00 L 1053.00 1751.00 L 1043.00 1777.00 L 1033.00 1797.00 L 1023.00 1811.00 L 1012.00 1821.00 L 1000.00 1827.00 L 987.00 1831.00 L 973.00 1833.00 L 961.00 1833.00 L 951.00 1831.00 L 938.00 1826.00 L 922.00 1818.00 L 902.00 1806.00 L 878.00 1790.00 L 831.00 1754.00 L 761.00 1698.00 L 705.00 1657.00 L 663.00 1631.00 L 620.00 1608.00 L 576.00 1588.00 L 520.00 1567.00 L 452.00 1545.00 L 390.00 1529.00 L 334.00 1519.00 L 299.00 1514.00 L 285.00 1514.00 L 276.00 1512.00 L 272.00 1508.00 L 271.00 1499.00 L 273.00 1485.00 L 283.00 1452.00 L 301.00 1400.00 L 317.00 1345.00 L 331.00 1287.00 L 342.00 1248.00 L 350.00 1228.00 L 356.00 1203.00 L 360.00 1173.00 L 367.00 1147.00 L 377.00 1125.00 L 381.00 1100.00 L 379.00 1072.00 L 381.00 1047.00 L 387.00 1025.00 L 390.00 1011.00 L 390.00 1005.00 L 394.00 984.00 Z" fill="black" stroke="black" stroke-width="1"/>
</svg>