<?xml version="1.0" encoding="UTF-8"?>
<svg xmlns="http://www.w3.org/2000/svg" viewBox="237.00 208.00 958.00 1565.00">
  <path d="M 375.00 994.00 L 377.00 938.00 L 380.00 901.00 L 384.00 883.00 L 388.00 871.00 L 392.00 865.00 L 383.00 844.00 L 361.00 808.00 L 338.00 774.00 L 314.00 742.00 L 292.00 705.00 L 272.00 663.00 L 258.00 623.00 L 250.00 585.00 L 247.00 546.00 L 249.00 506.00 L 256.00 471.00 L 268.00 441.00 L 280.00 416.00 L 292.00 396.00 L 314.00 368.00 L 346.00 332.00 L 371.00 308.00 L 389.00 296.00 L 407.00 286.00 L 425.00 278.00 L 444.00 266.00 L 464.00 250.00 L 486.00 238.00 L 510.00 230.00 L 531.00 226.00 L 549.00 226.00 L 566.00 224.00 L 582.00 220.00 L 611.00 218.00 L 653.00 218.00 L 691.00 221.00 L 725.00 227.00 L 753.00 234.00 L 775.00 242.00 L 815.00 262.00 L 873.00 294.00 L 924.00 336.00 L 968.00 388.00 L 993.00 422.00 L 999.00 438.00 L 1002.00 456.00 L 1002.00 476.00 L 1005.00 492.00 L 1011.00 504.00 L 1015.00 530.00 L 1017.00 570.00 L 1020.00 596.00 L 1024.00 608.00 L 1042.00 632.00 L 1074.00 668.00 L 1095.00 695.00 L 1105.00 713.00 L 1096.00 736.00 L 1068.00 764.00 L 1068.00 767.00 L 1096.00 745.00 L 1094.00 747.00 L 1062.00 773.00 L 1061.00 776.00 L 1091.00 756.00 L 1091.00 758.00 L 1061.00 782.00 L 1057.00 786.00 L 1079.00 770.00 L 1079.00 772.00 L 1057.00 792.00 L 1047.00 811.00 L 1049.00 829.00 L 1046.00 842.00 L 1038.00 850.00 L 1035.00 857.00 L 1037.00 863.00 L 1037.00 869.00 L 1035.00 875.00 L 1029.00 881.00 L 1019.00 887.00 L 1017.00 889.00 L 1023.00 887.00 L 1022.00 889.00 L 1014.00 895.00 L 1013.00 905.00 L 1019.00 919.00 L 1022.00 934.00 L 1022.00 950.00 L 1020.00 964.00 L 1016.00 976.00 L 1003.00 993.00 L 981.00 1015.00 L 972.00 1029.00 L 976.00 1035.00 L 975.00 1038.00 L 969.00 1038.00 L 972.00 1041.00 L 984.00 1047.00 L 990.00 1052.00 L 990.00 1056.00 L 987.00 1061.00 L 981.00 1067.00 L 976.00 1075.00 L 972.00 1085.00 L 977.00 1094.00 L 991.00 1102.00 L 991.00 1104.00 L 977.00 1100.00 L 971.00 1100.00 L 973.00 1104.00 L 981.00 1109.00 L 995.00 1115.00 L 993.00 1115.00 L 975.00 1109.00 L 976.00 1112.00 L 996.00 1124.00 L 995.00 1126.00 L 973.00 1118.00 L 974.00 1119.00 L 998.00 1129.00 L 1007.00 1137.00 L 1001.00 1143.00 L 1008.00 1152.00 L 1028.00 1164.00 L 1026.00 1165.00 L 1002.00 1155.00 L 1004.00 1157.00 L 1032.00 1171.00 L 1048.00 1180.00 L 1052.00 1184.00 L 1040.00 1179.00 L 1012.00 1165.00 L 1014.00 1167.00 L 1046.00 1185.00 L 1064.00 1197.00 L 1068.00 1203.00 L 1078.00 1211.00 L 1094.00 1221.00 L 1095.00 1223.00 L 1081.00 1217.00 L 1083.00 1220.00 L 1101.00 1232.00 L 1103.00 1234.00 L 1089.00 1226.00 L 1087.00 1228.00 L 1097.00 1240.00 L 1073.00 1230.00 L 1015.00 1198.00 L 1012.00 1199.00 L 1064.00 1233.00 L 1066.00 1236.00 L 1018.00 1208.00 L 1013.00 1207.00 L 1051.00 1233.00 L 1053.00 1236.00 L 1019.00 1216.00 L 1007.00 1222.00 L 1017.00 1254.00 L 1047.00 1311.00 L 1097.00 1393.00 L 1120.00 1432.00 L 1116.00 1428.00 L 1118.00 1432.00 L 1126.00 1444.00 L 1135.00 1465.00 L 1145.00 1495.00 L 1159.00 1551.00 L 1177.00 1633.00 L 1185.00 1686.00 L 1183.00 1710.00 L 1176.00 1730.00 L 1164.00 1746.00 L 1152.00 1757.00 L 1140.00 1763.00 L 1120.00 1763.00 L 1092.00 1757.00 L 1029.00 1724.00 L 931.00 1664.00 L 849.00 1617.00 L 783.00 1583.00 L 722.00 1554.00 L 666.00 1530.00 L 634.00 1515.00 L 626.00 1509.00 L 620.00 1507.00 L 616.00 1509.00 L 589.00 1501.00 L 539.00 1483.00 L 480.00 1467.00 L 412.00 1453.00 L 375.00 1444.00 L 369.00 1440.00 L 363.00 1439.00 L 357.00 1441.00 L 347.00 1440.00 L 333.00 1436.00 L 314.00 1434.00 L 290.00 1434.00 L 277.00 1433.00 L 275.00 1431.00 L 269.00 1431.00 L 259.00 1433.00 L 253.00 1431.00 L 251.00 1425.00 L 258.00 1392.00 L 274.00 1332.00 L 289.00 1285.00 L 303.00 1251.00 L 316.00 1226.00 L 328.00 1210.00 L 338.00 1194.00 L 346.00 1178.00 L 354.00 1157.00 L 362.00 1131.00 L 366.00 1114.00 L 366.00 1106.00 L 369.00 1093.00 L 375.00 1075.00 L 377.00 1057.00 L 375.00 1039.00 L 374.00 1028.00 L 374.00 1024.00 L 375.00 994.00 Z" fill="black" stroke="black" stroke-width="1"/>
</svg>