<?xml version="1.0" encoding="UTF-8"?>
<svg xmlns="http://www.w3.org/2000/svg" viewBox="282.00 136.00 868.00 1676.00">
  <path d="M 451.00 941.00 L 453.00 891.00 L 456.00 860.00 L 460.00 848.00 L 443.00 832.00 L 405.00 812.00 L 383.00 800.00 L 377.00 796.00 L 391.00 802.00 L 425.00 818.00 L 423.00 816.00 L 385.00 796.00 L 388.00 797.00 L 432.00 819.00 L 429.00 816.00 L 379.00 788.00 L 381.00 788.00 L 435.00 816.00 L 433.00 814.00 L 375.00 782.00 L 343.00 759.00 L 337.00 745.00 L 330.00 712.00 L 322.00 660.00 L 317.00 617.00 L 315.00 583.00 L 315.00 563.00 L 317.00 557.00 L 319.00 555.00 L 321.00 557.00 L 320.00 550.00 L 316.00 534.00 L 318.00 507.00 L 326.00 469.00 L 337.00 433.00 L 351.00 399.00 L 366.00 382.00 L 382.00 382.00 L 392.00 379.00 L 396.00 373.00 L 395.00 362.00 L 389.00 346.00 L 390.00 343.00 L 398.00 353.00 L 399.00 352.00 L 393.00 340.00 L 391.00 333.00 L 393.00 331.00 L 397.00 335.00 L 403.00 345.00 L 406.00 347.00 L 406.00 341.00 L 407.00 339.00 L 409.00 341.00 L 404.00 323.00 L 392.00 285.00 L 390.00 273.00 L 398.00 287.00 L 399.00 284.00 L 393.00 264.00 L 406.00 242.00 L 438.00 218.00 L 471.00 199.00 L 505.00 185.00 L 542.00 177.00 L 582.00 175.00 L 617.00 170.00 L 647.00 162.00 L 667.00 159.00 L 677.00 161.00 L 705.00 158.00 L 751.00 150.00 L 787.00 146.00 L 813.00 146.00 L 831.00 148.00 L 841.00 152.00 L 860.00 168.00 L 888.00 196.00 L 910.00 222.00 L 926.00 246.00 L 937.00 265.00 L 943.00 279.00 L 946.00 294.00 L 946.00 310.00 L 947.00 317.00 L 949.00 315.00 L 948.00 323.00 L 944.00 341.00 L 943.00 348.00 L 945.00 344.00 L 951.00 346.00 L 961.00 354.00 L 979.00 374.00 L 1005.00 406.00 L 1027.00 452.00 L 1045.00 512.00 L 1052.00 548.00 L 1048.00 560.00 L 1047.00 579.00 L 1049.00 605.00 L 1055.00 626.00 L 1065.00 642.00 L 1083.00 662.00 L 1109.00 686.00 L 1124.00 703.00 L 1128.00 713.00 L 1128.00 723.00 L 1124.00 733.00 L 1114.00 744.00 L 1098.00 756.00 L 1095.00 759.00 L 1105.00 753.00 L 1105.00 755.00 L 1095.00 765.00 L 1092.00 775.00 L 1096.00 785.00 L 1102.00 792.00 L 1110.00 796.00 L 1116.00 802.00 L 1120.00 810.00 L 1120.00 820.00 L 1116.00 832.00 L 1111.00 840.00 L 1105.00 844.00 L 1104.00 852.00 L 1108.00 864.00 L 1108.00 875.00 L 1104.00 885.00 L 1093.00 898.00 L 1075.00 914.00 L 1067.00 933.00 L 1069.00 955.00 L 1068.00 972.00 L 1064.00 984.00 L 1055.00 998.00 L 1041.00 1014.00 L 1027.00 1026.00 L 1013.00 1034.00 L 1001.00 1038.00 L 991.00 1038.00 L 992.00 1044.00 L 1004.00 1056.00 L 1009.00 1066.00 L 1007.00 1074.00 L 999.00 1084.00 L 985.00 1096.00 L 984.00 1108.00 L 996.00 1120.00 L 994.00 1122.00 L 978.00 1114.00 L 979.00 1116.00 L 997.00 1128.00 L 998.00 1130.00 L 982.00 1122.00 L 981.00 1125.00 L 995.00 1139.00 L 992.00 1140.00 L 972.00 1128.00 L 973.00 1131.00 L 995.00 1149.00 L 1004.00 1165.00 L 1000.00 1179.00 L 994.00 1186.00 L 986.00 1186.00 L 988.00 1194.00 L 1000.00 1210.00 L 997.00 1210.00 L 979.00 1194.00 L 981.00 1196.00 L 1003.00 1216.00 L 1018.00 1237.00 L 1026.00 1259.00 L 1034.00 1274.00 L 1042.00 1282.00 L 1043.00 1288.00 L 1037.00 1292.00 L 1020.00 1280.00 L 992.00 1252.00 L 990.00 1251.00 L 1014.00 1277.00 L 1015.00 1279.00 L 993.00 1257.00 L 991.00 1256.00 L 1009.00 1276.00 L 1011.00 1279.00 L 997.00 1265.00 L 994.00 1263.00 L 1002.00 1273.00 L 997.00 1272.00 L 979.00 1260.00 L 978.00 1265.00 L 994.00 1287.00 L 995.00 1290.00 L 981.00 1274.00 L 990.00 1289.00 L 1022.00 1335.00 L 1036.00 1356.00 L 1032.00 1352.00 L 1039.00 1366.00 L 1057.00 1398.00 L 1083.00 1455.00 L 1117.00 1537.00 L 1136.00 1593.00 L 1140.00 1623.00 L 1139.00 1657.00 L 1133.00 1695.00 L 1126.00 1723.00 L 1118.00 1741.00 L 1104.00 1760.00 L 1084.00 1780.00 L 1066.00 1793.00 L 1050.00 1799.00 L 1032.00 1802.00 L 1012.00 1802.00 L 988.00 1798.00 L 960.00 1790.00 L 886.00 1746.00 L 766.00 1666.00 L 670.00 1606.00 L 598.00 1566.00 L 527.00 1532.00 L 457.00 1504.00 L 385.00 1482.00 L 311.00 1466.00 L 292.00 1419.00 L 328.00 1341.00 L 357.00 1286.00 L 379.00 1254.00 L 396.00 1223.00 L 408.00 1193.00 L 415.00 1164.00 L 417.00 1136.00 L 428.00 1092.00 L 448.00 1032.00 L 456.00 996.00 L 452.00 984.00 L 450.00 975.00 L 450.00 969.00 L 451.00 941.00 Z" fill="black" stroke="black" stroke-width="1"/>
</svg>