<?xml version="1.0" encoding="UTF-8"?>
<svg xmlns="http://www.w3.org/2000/svg" viewBox="275.00 269.00 921.00 1577.00">
  <path d="M 529.00 1022.00 L 539.00 1006.00 L 546.00 990.00 L 550.00 974.00 L 524.00 956.00 L 468.00 936.00 L 433.00 923.00 L 419.00 917.00 L 426.00 918.00 L 454.00 926.00 L 452.00 924.00 L 420.00 912.00 L 422.00 912.00 L 458.00 924.00 L 455.00 922.00 L 413.00 906.00 L 432.00 913.00 L 512.00 943.00 L 510.00 941.00 L 426.00 907.00 L 383.00 889.00 L 381.00 887.00 L 407.00 896.00 L 461.00 916.00 L 456.00 912.00 L 392.00 884.00 L 409.00 890.00 L 507.00 930.00 L 504.00 927.00 L 400.00 881.00 L 346.00 857.00 L 342.00 855.00 L 380.00 871.00 L 460.00 905.00 L 458.00 903.00 L 374.00 865.00 L 331.00 844.00 L 329.00 840.00 L 385.00 864.00 L 499.00 916.00 L 498.00 914.00 L 382.00 858.00 L 322.00 826.00 L 318.00 818.00 L 376.00 844.00 L 496.00 904.00 L 495.00 900.00 L 373.00 832.00 L 372.00 830.00 L 492.00 894.00 L 492.00 893.00 L 372.00 827.00 L 371.00 826.00 L 489.00 890.00 L 488.00 887.00 L 368.00 817.00 L 303.00 772.00 L 293.00 752.00 L 287.00 715.00 L 285.00 661.00 L 294.00 604.00 L 314.00 544.00 L 330.00 504.00 L 342.00 484.00 L 361.00 461.00 L 387.00 435.00 L 436.00 398.00 L 508.00 350.00 L 566.00 321.00 L 610.00 311.00 L 648.00 308.00 L 680.00 312.00 L 711.00 307.00 L 741.00 293.00 L 772.00 284.00 L 804.00 280.00 L 822.00 279.00 L 826.00 281.00 L 828.00 298.00 L 828.00 330.00 L 831.00 330.00 L 837.00 298.00 L 839.00 298.00 L 837.00 330.00 L 840.00 329.00 L 848.00 295.00 L 851.00 296.00 L 849.00 332.00 L 851.00 332.00 L 857.00 296.00 L 859.00 287.00 L 857.00 305.00 L 859.00 307.00 L 865.00 293.00 L 866.00 302.00 L 862.00 334.00 L 877.00 355.00 L 911.00 365.00 L 966.00 391.00 L 1042.00 433.00 L 1081.00 459.00 L 1083.00 469.00 L 1090.00 482.00 L 1102.00 498.00 L 1114.00 520.00 L 1126.00 548.00 L 1129.00 567.00 L 1123.00 577.00 L 1123.00 580.00 L 1129.00 576.00 L 1130.00 579.00 L 1126.00 589.00 L 1126.00 604.00 L 1130.00 624.00 L 1130.00 654.00 L 1126.00 694.00 L 1132.00 728.00 L 1148.00 756.00 L 1157.00 777.00 L 1159.00 791.00 L 1162.00 797.00 L 1166.00 795.00 L 1166.00 796.00 L 1162.00 800.00 L 1165.00 805.00 L 1175.00 811.00 L 1182.00 818.00 L 1186.00 826.00 L 1185.00 835.00 L 1179.00 845.00 L 1165.00 855.00 L 1143.00 865.00 L 1140.00 867.00 L 1156.00 861.00 L 1155.00 864.00 L 1137.00 876.00 L 1127.00 890.00 L 1125.00 906.00 L 1121.00 919.00 L 1115.00 929.00 L 1113.00 938.00 L 1115.00 946.00 L 1112.00 957.00 L 1104.00 971.00 L 1101.00 991.00 L 1103.00 1017.00 L 1102.00 1036.00 L 1098.00 1048.00 L 1091.00 1058.00 L 1081.00 1066.00 L 1066.00 1071.00 L 1046.00 1073.00 L 1029.00 1077.00 L 1015.00 1083.00 L 994.00 1095.00 L 966.00 1113.00 L 934.00 1140.00 L 898.00 1176.00 L 879.00 1197.00 L 877.00 1203.00 L 934.00 1293.00 L 1050.00 1467.00 L 1109.00 1556.00 L 1111.00 1560.00 L 1107.00 1556.00 L 1097.00 1544.00 L 1105.00 1559.00 L 1131.00 1601.00 L 1129.00 1600.00 L 1099.00 1556.00 L 1100.00 1558.00 L 1132.00 1606.00 L 1129.00 1602.00 L 1091.00 1546.00 L 1092.00 1548.00 L 1132.00 1608.00 L 1082.00 1533.00 L 942.00 1323.00 L 942.00 1325.00 L 1082.00 1539.00 L 1154.00 1651.00 L 1158.00 1661.00 L 1088.00 1555.00 L 944.00 1333.00 L 945.00 1336.00 L 1091.00 1564.00 L 1128.00 1623.00 L 1056.00 1513.00 L 1056.00 1516.00 L 1128.00 1632.00 L 1091.00 1575.00 L 945.00 1345.00 L 945.00 1348.00 L 1091.00 1584.00 L 1119.00 1630.00 L 1029.00 1486.00 L 1029.00 1488.00 L 1119.00 1636.00 L 1111.00 1625.00 L 1005.00 1455.00 L 1005.00 1460.00 L 1111.00 1640.00 L 1091.00 1608.00 L 945.00 1364.00 L 944.00 1367.00 L 1088.00 1617.00 L 1098.00 1636.00 L 974.00 1424.00 L 973.00 1426.00 L 1095.00 1642.00 L 1085.00 1625.00 L 943.00 1375.00 L 942.00 1377.00 L 1082.00 1631.00 L 1142.00 1770.00 L 1122.00 1794.00 L 1096.00 1816.00 L 1064.00 1836.00 L 970.00 1795.00 L 814.00 1693.00 L 680.00 1614.00 L 568.00 1558.00 L 484.00 1521.00 L 428.00 1503.00 L 385.00 1493.00 L 355.00 1491.00 L 335.00 1487.00 L 325.00 1481.00 L 342.00 1421.00 L 386.00 1307.00 L 436.00 1197.00 L 492.00 1091.00 L 521.00 1036.00 L 523.00 1032.00 L 529.00 1022.00 Z" fill="black" stroke="black" stroke-width="1"/>
</svg>