<?xml version="1.0" encoding="UTF-8"?>
<svg xmlns="http://www.w3.org/2000/svg" viewBox="222.00 210.00 1098.00 1389.00">
  <path d="M 380.00 898.00 L 376.00 874.00 L 361.00 851.00 L 335.00 829.00 L 342.00 788.00 L 382.00 728.00 L 402.00 670.00 L 402.00 614.00 L 391.00 572.00 L 369.00 544.00 L 370.00 541.00 L 394.00 563.00 L 396.00 561.00 L 376.00 535.00 L 376.00 533.00 L 396.00 555.00 L 398.00 554.00 L 382.00 530.00 L 383.00 526.00 L 401.00 542.00 L 404.00 540.00 L 392.00 520.00 L 393.00 517.00 L 407.00 531.00 L 409.00 528.00 L 399.00 508.00 L 400.00 505.00 L 412.00 519.00 L 414.00 516.00 L 406.00 496.00 L 408.00 489.00 L 420.00 495.00 L 430.00 483.00 L 438.00 453.00 L 505.00 414.00 L 631.00 366.00 L 695.00 323.00 L 697.00 285.00 L 699.00 285.00 L 701.00 323.00 L 706.00 317.00 L 714.00 267.00 L 720.00 267.00 L 724.00 317.00 L 730.00 312.00 L 738.00 252.00 L 741.00 253.00 L 739.00 315.00 L 740.00 313.00 L 744.00 247.00 L 746.00 247.00 L 746.00 313.00 L 750.00 311.00 L 758.00 241.00 L 761.00 242.00 L 759.00 314.00 L 762.00 313.00 L 770.00 239.00 L 773.00 239.00 L 771.00 313.00 L 774.00 313.00 L 782.00 239.00 L 785.00 239.00 L 783.00 313.00 L 790.00 314.00 L 806.00 242.00 L 809.00 243.00 L 799.00 317.00 L 802.00 318.00 L 818.00 246.00 L 821.00 247.00 L 811.00 321.00 L 814.00 322.00 L 830.00 250.00 L 832.00 249.00 L 820.00 319.00 L 822.00 320.00 L 838.00 252.00 L 860.00 220.00 L 888.00 224.00 L 919.00 240.00 L 953.00 268.00 L 981.00 277.00 L 1003.00 267.00 L 1025.00 283.00 L 1047.00 325.00 L 1095.00 360.00 L 1169.00 388.00 L 1229.00 427.00 L 1275.00 477.00 L 1302.00 514.00 L 1310.00 538.00 L 1280.00 573.00 L 1212.00 619.00 L 1211.00 626.00 L 1277.00 594.00 L 1277.00 597.00 L 1211.00 635.00 L 1209.00 640.00 L 1271.00 612.00 L 1272.00 617.00 L 1212.00 655.00 L 1176.00 697.00 L 1164.00 743.00 L 1114.00 815.00 L 1026.00 913.00 L 1009.00 1044.00 L 1063.00 1208.00 L 1086.00 1317.00 L 1078.00 1371.00 L 1057.00 1406.00 L 1023.00 1422.00 L 936.00 1439.00 L 796.00 1457.00 L 636.00 1503.00 L 456.00 1577.00 L 413.00 1518.00 L 507.00 1326.00 L 504.00 1328.00 L 404.00 1524.00 L 405.00 1520.00 L 507.00 1316.00 L 499.00 1322.00 L 381.00 1538.00 L 381.00 1535.00 L 499.00 1313.00 L 492.00 1318.00 L 360.00 1550.00 L 360.00 1547.00 L 492.00 1309.00 L 489.00 1311.00 L 351.00 1553.00 L 351.00 1551.00 L 489.00 1305.00 L 479.00 1313.00 L 321.00 1575.00 L 321.00 1572.00 L 479.00 1304.00 L 477.00 1303.00 L 315.00 1569.00 L 301.00 1589.00 L 435.00 1363.00 L 435.00 1355.00 L 301.00 1565.00 L 299.00 1566.00 L 429.00 1358.00 L 430.00 1353.00 L 302.00 1551.00 L 317.00 1527.00 L 475.00 1281.00 L 475.00 1279.00 L 317.00 1521.00 L 300.00 1544.00 L 424.00 1348.00 L 423.00 1341.00 L 297.00 1523.00 L 293.00 1527.00 L 411.00 1353.00 L 409.00 1347.00 L 287.00 1509.00 L 305.00 1479.00 L 463.00 1257.00 L 462.00 1254.00 L 302.00 1470.00 L 272.00 1510.00 L 372.00 1374.00 L 371.00 1371.00 L 269.00 1501.00 L 253.00 1519.00 L 323.00 1425.00 L 322.00 1420.00 L 250.00 1504.00 L 294.00 1444.00 L 454.00 1240.00 L 454.00 1237.00 L 294.00 1435.00 L 239.00 1501.00 L 289.00 1435.00 L 290.00 1430.00 L 242.00 1486.00 L 240.00 1487.00 L 284.00 1433.00 L 285.00 1430.00 L 243.00 1478.00 L 240.00 1480.00 L 276.00 1436.00 L 276.00 1435.00 L 240.00 1477.00 L 238.00 1478.00 L 270.00 1438.00 L 271.00 1435.00 L 241.00 1469.00 L 232.00 1477.00 L 244.00 1459.00 L 318.00 1371.00 L 454.00 1213.00 L 450.00 1217.00 L 306.00 1383.00 L 304.00 1382.00 L 444.00 1214.00 L 485.00 1114.00 L 427.00 1082.00 L 393.00 1030.00 L 383.00 958.00 L 379.00 919.00 L 381.00 913.00 L 380.00 898.00 Z" fill="black" stroke="black" stroke-width="1"/>
</svg>