<?xml version="1.0" encoding="UTF-8"?>
<svg xmlns="http://www.w3.org/2000/svg" viewBox="248.00 180.00 1027.00 1607.00">
  <path d="M 520.00 967.00 L 532.00 945.00 L 538.00 925.00 L 538.00 907.00 L 494.00 877.00 L 406.00 835.00 L 357.00 811.00 L 347.00 805.00 L 351.00 806.00 L 369.00 814.00 L 363.00 809.00 L 333.00 791.00 L 373.00 809.00 L 483.00 863.00 L 481.00 861.00 L 367.00 803.00 L 333.00 784.00 L 379.00 804.00 L 378.00 801.00 L 330.00 775.00 L 340.00 779.00 L 408.00 813.00 L 407.00 811.00 L 337.00 773.00 L 361.00 785.00 L 479.00 847.00 L 477.00 844.00 L 355.00 776.00 L 337.00 765.00 L 423.00 811.00 L 421.00 807.00 L 331.00 753.00 L 333.00 753.00 L 427.00 807.00 L 426.00 805.00 L 330.00 747.00 L 346.00 756.00 L 474.00 832.00 L 473.00 830.00 L 343.00 750.00 L 343.00 749.00 L 473.00 827.00 L 472.00 824.00 L 340.00 740.00 L 272.00 694.00 L 268.00 686.00 L 334.00 726.00 L 470.00 814.00 L 470.00 811.00 L 334.00 717.00 L 333.00 715.00 L 467.00 805.00 L 466.00 802.00 L 330.00 706.00 L 322.00 699.00 L 442.00 781.00 L 441.00 778.00 L 319.00 690.00 L 258.00 643.00 L 258.00 637.00 L 327.00 685.00 L 465.00 787.00 L 465.00 785.00 L 327.00 679.00 L 326.00 677.00 L 462.00 779.00 L 462.00 775.00 L 326.00 665.00 L 326.00 663.00 L 462.00 769.00 L 462.00 766.00 L 326.00 654.00 L 325.00 652.00 L 459.00 760.00 L 459.00 758.00 L 325.00 646.00 L 261.00 575.00 L 267.00 545.00 L 280.00 508.00 L 300.00 464.00 L 315.00 423.00 L 325.00 385.00 L 333.00 362.00 L 339.00 354.00 L 341.00 348.00 L 339.00 344.00 L 347.00 329.00 L 365.00 303.00 L 379.00 286.00 L 389.00 278.00 L 409.00 268.00 L 439.00 256.00 L 463.00 242.00 L 481.00 226.00 L 491.00 219.00 L 493.00 221.00 L 497.00 217.00 L 503.00 207.00 L 514.00 199.00 L 530.00 193.00 L 543.00 190.00 L 553.00 190.00 L 564.00 209.00 L 576.00 247.00 L 578.00 247.00 L 570.00 209.00 L 572.00 206.00 L 584.00 238.00 L 587.00 239.00 L 581.00 209.00 L 582.00 211.00 L 590.00 245.00 L 592.00 244.00 L 588.00 208.00 L 589.00 204.00 L 595.00 232.00 L 600.00 248.00 L 604.00 252.00 L 604.00 237.00 L 600.00 203.00 L 600.00 196.00 L 604.00 216.00 L 606.00 218.00 L 606.00 202.00 L 607.00 197.00 L 609.00 203.00 L 612.00 217.00 L 616.00 239.00 L 629.00 249.00 L 651.00 247.00 L 688.00 249.00 L 740.00 255.00 L 789.00 269.00 L 835.00 291.00 L 905.00 348.00 L 999.00 440.00 L 1043.00 493.00 L 1037.00 507.00 L 1039.00 509.00 L 1049.00 499.00 L 1050.00 502.00 L 1042.00 518.00 L 1040.00 534.00 L 1044.00 550.00 L 1044.00 584.00 L 1040.00 636.00 L 1043.00 672.00 L 1053.00 692.00 L 1066.00 708.00 L 1082.00 720.00 L 1095.00 733.00 L 1105.00 747.00 L 1106.00 762.00 L 1098.00 778.00 L 1088.00 790.00 L 1076.00 798.00 L 1072.00 809.00 L 1076.00 823.00 L 1082.00 834.00 L 1090.00 842.00 L 1091.00 851.00 L 1085.00 861.00 L 1083.00 874.00 L 1085.00 890.00 L 1078.00 906.00 L 1062.00 922.00 L 1054.00 941.00 L 1054.00 963.00 L 1051.00 980.00 L 1045.00 992.00 L 1035.00 1003.00 L 1021.00 1013.00 L 981.00 1026.00 L 915.00 1042.00 L 879.00 1066.00 L 873.00 1098.00 L 949.00 1192.00 L 1107.00 1348.00 L 1122.00 1364.00 L 994.00 1240.00 L 1002.00 1250.00 L 1146.00 1394.00 L 1132.00 1381.00 L 960.00 1211.00 L 962.00 1214.00 L 1138.00 1390.00 L 1230.00 1484.00 L 1238.00 1496.00 L 1156.00 1415.00 L 984.00 1241.00 L 986.00 1246.00 L 1162.00 1430.00 L 1156.00 1425.00 L 968.00 1231.00 L 969.00 1235.00 L 1159.00 1437.00 L 1257.00 1548.00 L 1263.00 1568.00 L 1265.00 1590.00 L 1263.00 1614.00 L 1255.00 1644.00 L 1241.00 1680.00 L 1223.00 1711.00 L 1201.00 1737.00 L 1177.00 1759.00 L 1151.00 1777.00 L 1087.00 1756.00 L 985.00 1696.00 L 899.00 1654.00 L 829.00 1630.00 L 735.00 1605.00 L 617.00 1579.00 L 516.00 1564.00 L 432.00 1560.00 L 393.00 1525.00 L 399.00 1459.00 L 408.00 1408.00 L 420.00 1372.00 L 423.00 1356.00 L 417.00 1360.00 L 415.00 1357.00 L 417.00 1347.00 L 424.00 1320.00 L 436.00 1276.00 L 446.00 1248.00 L 454.00 1236.00 L 456.00 1231.00 L 452.00 1233.00 L 453.00 1214.00 L 459.00 1174.00 L 468.00 1140.00 L 480.00 1112.00 L 486.00 1086.00 L 486.00 1062.00 L 492.00 1040.00 L 504.00 1020.00 L 510.00 1005.00 L 510.00 995.00 L 511.00 987.00 L 513.00 981.00 L 520.00 967.00 Z" fill="black" stroke="black" stroke-width="1"/>
</svg>