<?xml version="1.0" encoding="UTF-8"?>
<svg xmlns="http://www.w3.org/2000/svg" viewBox="433.00 281.00 942.00 1550.00">
  <path d="M 531.00 1029.00 L 517.00 1011.00 L 515.00 990.00 L 525.00 966.00 L 521.00 948.00 L 503.00 936.00 L 492.00 921.00 L 488.00 903.00 L 504.00 873.00 L 540.00 831.00 L 558.00 793.00 L 558.00 759.00 L 551.00 731.00 L 537.00 709.00 L 536.00 702.00 L 548.00 710.00 L 549.00 707.00 L 539.00 693.00 L 549.00 654.00 L 579.00 590.00 L 605.00 545.00 L 627.00 519.00 L 671.00 482.00 L 737.00 434.00 L 786.00 405.00 L 818.00 395.00 L 835.00 373.00 L 837.00 339.00 L 840.00 339.00 L 844.00 373.00 L 845.00 372.00 L 843.00 336.00 L 845.00 335.00 L 851.00 369.00 L 855.00 367.00 L 857.00 329.00 L 859.00 329.00 L 861.00 367.00 L 864.00 366.00 L 868.00 326.00 L 871.00 326.00 L 873.00 366.00 L 876.00 364.00 L 880.00 320.00 L 888.00 296.00 L 900.00 292.00 L 922.00 291.00 L 954.00 293.00 L 985.00 300.00 L 1015.00 312.00 L 1050.00 319.00 L 1090.00 321.00 L 1122.00 327.00 L 1146.00 337.00 L 1174.00 355.00 L 1206.00 381.00 L 1235.00 416.00 L 1261.00 460.00 L 1287.00 497.00 L 1313.00 527.00 L 1336.00 585.00 L 1356.00 671.00 L 1365.00 724.00 L 1363.00 744.00 L 1337.00 771.00 L 1287.00 805.00 L 1287.00 807.00 L 1337.00 777.00 L 1330.00 783.00 L 1266.00 825.00 L 1265.00 829.00 L 1327.00 795.00 L 1326.00 798.00 L 1262.00 838.00 L 1261.00 841.00 L 1323.00 807.00 L 1323.00 808.00 L 1261.00 844.00 L 1260.00 847.00 L 1320.00 817.00 L 1303.00 828.00 L 1209.00 880.00 L 1208.00 883.00 L 1300.00 837.00 L 1299.00 839.00 L 1205.00 889.00 L 1204.00 891.00 L 1296.00 845.00 L 1304.00 842.00 L 1228.00 882.00 L 1227.00 885.00 L 1301.00 851.00 L 1305.00 850.00 L 1239.00 882.00 L 1238.00 883.00 L 1302.00 853.00 L 1333.00 840.00 L 1331.00 844.00 L 1287.00 866.00 L 1201.00 906.00 L 1200.00 908.00 L 1284.00 872.00 L 1283.00 875.00 L 1197.00 917.00 L 1193.00 923.00 L 1271.00 893.00 L 1270.00 895.00 L 1190.00 929.00 L 1137.00 955.00 L 1111.00 973.00 L 1097.00 997.00 L 1095.00 1027.00 L 1098.00 1061.00 L 1106.00 1099.00 L 1115.00 1125.00 L 1125.00 1139.00 L 1138.00 1175.00 L 1154.00 1233.00 L 1172.00 1283.00 L 1192.00 1325.00 L 1213.00 1383.00 L 1235.00 1457.00 L 1245.00 1498.00 L 1243.00 1506.00 L 1202.00 1518.00 L 1122.00 1534.00 L 1042.00 1559.00 L 962.00 1593.00 L 894.00 1626.00 L 838.00 1658.00 L 754.00 1713.00 L 642.00 1791.00 L 569.00 1821.00 L 535.00 1803.00 L 513.00 1791.00 L 503.00 1785.00 L 569.00 1647.00 L 711.00 1377.00 L 709.00 1376.00 L 563.00 1644.00 L 488.00 1776.00 L 484.00 1772.00 L 557.00 1636.00 L 707.00 1368.00 L 705.00 1366.00 L 551.00 1630.00 L 547.00 1635.00 L 693.00 1381.00 L 692.00 1380.00 L 544.00 1632.00 L 541.00 1635.00 L 683.00 1389.00 L 681.00 1386.00 L 535.00 1626.00 L 541.00 1616.00 L 699.00 1356.00 L 698.00 1355.00 L 538.00 1613.00 L 538.00 1611.00 L 698.00 1349.00 L 696.00 1346.00 L 532.00 1602.00 L 521.00 1618.00 L 663.00 1394.00 L 662.00 1392.00 L 518.00 1612.00 L 445.00 1720.00 L 443.00 1716.00 L 513.00 1607.00 L 655.00 1393.00 L 654.00 1390.00 L 510.00 1598.00 L 522.00 1579.00 L 690.00 1333.00 L 689.00 1330.00 L 519.00 1570.00 L 500.00 1595.00 L 632.00 1405.00 L 631.00 1402.00 L 497.00 1586.00 L 494.00 1589.00 L 622.00 1411.00 L 622.00 1409.00 L 494.00 1583.00 L 491.00 1585.00 L 613.00 1415.00 L 613.00 1411.00 L 491.00 1573.00 L 515.00 1541.00 L 685.00 1315.00 L 685.00 1312.00 L 515.00 1532.00 L 485.00 1569.00 L 595.00 1423.00 L 595.00 1419.00 L 485.00 1557.00 L 515.00 1518.00 L 685.00 1302.00 L 685.00 1300.00 L 515.00 1512.00 L 477.00 1559.00 L 571.00 1441.00 L 572.00 1439.00 L 480.00 1553.00 L 477.00 1554.00 L 563.00 1442.00 L 565.00 1435.00 L 483.00 1533.00 L 476.00 1541.00 L 544.00 1459.00 L 545.00 1457.00 L 479.00 1535.00 L 476.00 1537.00 L 536.00 1463.00 L 538.00 1459.00 L 482.00 1525.00 L 532.00 1466.00 L 688.00 1282.00 L 689.00 1280.00 L 535.00 1460.00 L 534.00 1457.00 L 686.00 1271.00 L 753.00 1173.00 L 735.00 1163.00 L 718.00 1159.00 L 702.00 1161.00 L 676.00 1158.00 L 640.00 1150.00 L 614.00 1140.00 L 598.00 1128.00 L 584.00 1109.00 L 572.00 1083.00 L 559.00 1068.00 L 545.00 1064.00 L 538.00 1059.00 L 538.00 1053.00 L 538.00 1047.00 L 538.00 1041.00 L 531.00 1029.00 Z" fill="black" stroke="black" stroke-width="1"/>
</svg>