<?xml version="1.0" encoding="UTF-8"?>
<svg xmlns="http://www.w3.org/2000/svg" viewBox="329.00 309.00 710.00 1397.00">
  <path d="M 464.00 976.00 L 468.00 964.00 L 469.00 957.00 L 467.00 955.00 L 468.00 943.00 L 472.00 921.00 L 476.00 905.00 L 480.00 895.00 L 471.00 873.00 L 449.00 839.00 L 429.00 813.00 L 411.00 795.00 L 393.00 773.00 L 375.00 747.00 L 359.00 715.00 L 345.00 677.00 L 339.00 630.00 L 341.00 574.00 L 344.00 538.00 L 348.00 522.00 L 357.00 500.00 L 371.00 472.00 L 387.00 445.00 L 405.00 419.00 L 428.00 396.00 L 456.00 376.00 L 485.00 359.00 L 515.00 345.00 L 548.00 333.00 L 584.00 323.00 L 609.00 319.00 L 623.00 321.00 L 640.00 321.00 L 660.00 319.00 L 682.00 322.00 L 706.00 330.00 L 722.00 333.00 L 730.00 331.00 L 738.00 331.00 L 746.00 333.00 L 751.00 333.00 L 753.00 331.00 L 766.00 336.00 L 790.00 348.00 L 812.00 356.00 L 832.00 360.00 L 847.00 366.00 L 857.00 374.00 L 866.00 384.00 L 874.00 396.00 L 889.00 407.00 L 911.00 417.00 L 933.00 433.00 L 955.00 455.00 L 969.00 472.00 L 975.00 484.00 L 976.00 496.00 L 972.00 508.00 L 973.00 509.00 L 979.00 499.00 L 979.00 500.00 L 973.00 512.00 L 974.00 513.00 L 982.00 503.00 L 983.00 504.00 L 977.00 516.00 L 978.00 519.00 L 986.00 513.00 L 987.00 515.00 L 981.00 525.00 L 981.00 538.00 L 987.00 554.00 L 991.00 572.00 L 993.00 592.00 L 997.00 612.00 L 1003.00 632.00 L 1004.00 651.00 L 1000.00 669.00 L 999.00 677.00 L 1001.00 675.00 L 999.00 681.00 L 993.00 695.00 L 990.00 713.00 L 990.00 735.00 L 995.00 755.00 L 1005.00 773.00 L 1015.00 796.00 L 1025.00 824.00 L 1029.00 844.00 L 1027.00 856.00 L 1018.00 868.00 L 1002.00 880.00 L 996.00 894.00 L 1000.00 910.00 L 1002.00 921.00 L 1002.00 927.00 L 999.00 935.00 L 993.00 945.00 L 991.00 956.00 L 993.00 968.00 L 987.00 980.00 L 973.00 992.00 L 965.00 1005.00 L 963.00 1019.00 L 958.00 1034.00 L 950.00 1050.00 L 942.00 1062.00 L 934.00 1070.00 L 926.00 1075.00 L 918.00 1077.00 L 901.00 1078.00 L 875.00 1078.00 L 861.00 1082.00 L 859.00 1090.00 L 855.00 1096.00 L 849.00 1100.00 L 853.00 1109.00 L 867.00 1123.00 L 866.00 1125.00 L 850.00 1115.00 L 851.00 1117.00 L 869.00 1131.00 L 872.00 1134.00 L 860.00 1126.00 L 860.00 1127.00 L 872.00 1137.00 L 871.00 1138.00 L 857.00 1130.00 L 857.00 1132.00 L 871.00 1144.00 L 868.00 1142.00 L 848.00 1126.00 L 847.00 1127.00 L 865.00 1145.00 L 867.00 1148.00 L 853.00 1136.00 L 852.00 1137.00 L 864.00 1151.00 L 861.00 1150.00 L 843.00 1134.00 L 842.00 1135.00 L 858.00 1153.00 L 858.00 1155.00 L 842.00 1141.00 L 840.00 1141.00 L 852.00 1155.00 L 854.00 1161.00 L 846.00 1159.00 L 840.00 1162.00 L 836.00 1170.00 L 842.00 1187.00 L 858.00 1213.00 L 870.00 1241.00 L 878.00 1271.00 L 894.00 1311.00 L 918.00 1361.00 L 937.00 1408.00 L 951.00 1452.00 L 959.00 1496.00 L 961.00 1540.00 L 960.00 1572.00 L 956.00 1592.00 L 950.00 1612.00 L 942.00 1632.00 L 927.00 1652.00 L 905.00 1672.00 L 882.00 1686.00 L 858.00 1694.00 L 839.00 1696.00 L 825.00 1692.00 L 807.00 1684.00 L 785.00 1672.00 L 749.00 1648.00 L 699.00 1612.00 L 645.00 1577.00 L 587.00 1543.00 L 538.00 1516.00 L 498.00 1496.00 L 463.00 1480.00 L 433.00 1468.00 L 402.00 1458.00 L 370.00 1450.00 L 350.00 1443.00 L 342.00 1437.00 L 340.00 1415.00 L 344.00 1377.00 L 354.00 1325.00 L 370.00 1259.00 L 385.00 1211.00 L 399.00 1181.00 L 414.00 1155.00 L 430.00 1133.00 L 438.00 1119.00 L 438.00 1113.00 L 441.00 1103.00 L 447.00 1089.00 L 453.00 1079.00 L 459.00 1073.00 L 460.00 1065.00 L 456.00 1055.00 L 454.00 1043.00 L 454.00 1029.00 L 456.00 1015.00 L 460.00 1001.00 L 462.00 991.00 L 462.00 985.00 L 464.00 976.00 Z" fill="black" stroke="black" stroke-width="1"/>
</svg>