<?xml version="1.0" encoding="UTF-8"?>
<svg xmlns="http://www.w3.org/2000/svg" viewBox="421.00 233.00 830.00 1485.00">
  <path d="M 569.00 966.00 L 583.00 958.00 L 584.00 951.00 L 572.00 945.00 L 555.00 933.00 L 533.00 915.00 L 520.00 901.00 L 516.00 891.00 L 514.00 877.00 L 514.00 859.00 L 511.00 844.00 L 505.00 832.00 L 498.00 822.00 L 490.00 814.00 L 487.00 792.00 L 489.00 756.00 L 474.00 725.00 L 442.00 699.00 L 441.00 697.00 L 471.00 719.00 L 477.00 723.00 L 459.00 709.00 L 459.00 708.00 L 477.00 720.00 L 471.00 714.00 L 441.00 690.00 L 440.00 688.00 L 468.00 708.00 L 469.00 706.00 L 443.00 682.00 L 439.00 656.00 L 457.00 628.00 L 479.00 600.00 L 505.00 572.00 L 520.00 539.00 L 524.00 501.00 L 536.00 459.00 L 556.00 413.00 L 572.00 381.00 L 584.00 363.00 L 590.00 350.00 L 590.00 342.00 L 598.00 330.00 L 614.00 314.00 L 635.00 299.00 L 661.00 285.00 L 685.00 275.00 L 707.00 269.00 L 727.00 261.00 L 745.00 251.00 L 762.00 246.00 L 778.00 246.00 L 787.00 245.00 L 789.00 243.00 L 828.00 243.00 L 904.00 245.00 L 955.00 249.00 L 981.00 255.00 L 1008.00 267.00 L 1036.00 285.00 L 1063.00 306.00 L 1089.00 330.00 L 1108.00 354.00 L 1120.00 378.00 L 1129.00 400.00 L 1135.00 420.00 L 1138.00 436.00 L 1138.00 448.00 L 1139.00 455.00 L 1141.00 457.00 L 1142.00 489.00 L 1142.00 551.00 L 1141.00 585.00 L 1139.00 591.00 L 1139.00 593.00 L 1141.00 591.00 L 1141.00 594.00 L 1139.00 602.00 L 1139.00 640.00 L 1141.00 708.00 L 1141.00 749.00 L 1139.00 763.00 L 1140.00 773.00 L 1144.00 779.00 L 1147.00 789.00 L 1149.00 803.00 L 1148.00 830.00 L 1144.00 870.00 L 1151.00 942.00 L 1169.00 1046.00 L 1188.00 1136.00 L 1208.00 1212.00 L 1216.00 1254.00 L 1212.00 1262.00 L 1207.00 1264.00 L 1201.00 1260.00 L 1200.00 1261.00 L 1204.00 1267.00 L 1205.00 1271.00 L 1203.00 1273.00 L 1206.00 1295.00 L 1214.00 1337.00 L 1223.00 1373.00 L 1233.00 1403.00 L 1239.00 1425.00 L 1241.00 1439.00 L 1216.00 1449.00 L 1164.00 1455.00 L 1101.00 1467.00 L 1027.00 1485.00 L 955.00 1507.00 L 885.00 1533.00 L 824.00 1558.00 L 772.00 1582.00 L 724.00 1610.00 L 680.00 1642.00 L 635.00 1669.00 L 589.00 1691.00 L 561.00 1704.00 L 551.00 1708.00 L 533.00 1708.00 L 507.00 1704.00 L 486.00 1695.00 L 470.00 1681.00 L 456.00 1659.00 L 444.00 1629.00 L 436.00 1601.00 L 432.00 1575.00 L 431.00 1536.00 L 433.00 1484.00 L 437.00 1442.00 L 443.00 1410.00 L 450.00 1384.00 L 458.00 1364.00 L 461.00 1355.00 L 459.00 1357.00 L 474.00 1323.00 L 506.00 1253.00 L 533.00 1203.00 L 555.00 1173.00 L 567.00 1145.00 L 569.00 1119.00 L 578.00 1093.00 L 594.00 1067.00 L 592.00 1035.00 L 572.00 997.00 L 562.00 976.00 L 562.00 972.00 L 569.00 966.00 Z" fill="black" stroke="black" stroke-width="1"/>
</svg>