<?xml version="1.0" encoding="UTF-8"?>
<svg xmlns="http://www.w3.org/2000/svg" viewBox="457.00 236.00 901.00 1556.00">
  <path d="M 619.00 973.00 L 605.00 955.00 L 599.00 939.00 L 601.00 925.00 L 606.00 912.00 L 614.00 900.00 L 614.00 884.00 L 606.00 864.00 L 603.00 849.00 L 605.00 839.00 L 603.00 831.00 L 597.00 825.00 L 595.00 813.00 L 597.00 795.00 L 586.00 774.00 L 562.00 750.00 L 562.00 747.00 L 586.00 765.00 L 584.00 763.00 L 556.00 741.00 L 549.00 735.00 L 563.00 745.00 L 562.00 743.00 L 546.00 729.00 L 552.00 733.00 L 580.00 755.00 L 579.00 753.00 L 549.00 727.00 L 548.00 725.00 L 576.00 747.00 L 576.00 745.00 L 548.00 719.00 L 554.00 679.00 L 594.00 625.00 L 606.00 580.00 L 590.00 544.00 L 591.00 540.00 L 609.00 568.00 L 610.00 565.00 L 594.00 531.00 L 593.00 524.00 L 607.00 544.00 L 609.00 540.00 L 599.00 512.00 L 600.00 507.00 L 612.00 525.00 L 614.00 520.00 L 606.00 492.00 L 607.00 486.00 L 617.00 502.00 L 617.00 499.00 L 607.00 477.00 L 608.00 475.00 L 620.00 493.00 L 621.00 491.00 L 611.00 469.00 L 611.00 467.00 L 621.00 485.00 L 623.00 482.00 L 617.00 458.00 L 619.00 455.00 L 629.00 473.00 L 634.00 477.00 L 634.00 467.00 L 631.00 455.00 L 625.00 441.00 L 627.00 443.00 L 637.00 461.00 L 639.00 459.00 L 633.00 437.00 L 634.00 435.00 L 642.00 453.00 L 643.00 452.00 L 637.00 432.00 L 638.00 429.00 L 646.00 443.00 L 648.00 441.00 L 644.00 423.00 L 645.00 421.00 L 651.00 435.00 L 654.00 433.00 L 654.00 415.00 L 667.00 390.00 L 693.00 358.00 L 724.00 333.00 L 760.00 315.00 L 789.00 298.00 L 811.00 282.00 L 836.00 270.00 L 864.00 262.00 L 891.00 258.00 L 917.00 258.00 L 952.00 254.00 L 996.00 246.00 L 1049.00 249.00 L 1111.00 263.00 L 1156.00 277.00 L 1184.00 291.00 L 1224.00 328.00 L 1276.00 388.00 L 1308.00 430.00 L 1320.00 454.00 L 1332.00 488.00 L 1344.00 532.00 L 1348.00 580.00 L 1344.00 632.00 L 1324.00 692.00 L 1288.00 760.00 L 1267.00 808.00 L 1261.00 836.00 L 1250.00 855.00 L 1234.00 865.00 L 1229.00 879.00 L 1235.00 897.00 L 1242.00 936.00 L 1250.00 996.00 L 1254.00 1033.00 L 1254.00 1047.00 L 1250.00 1065.00 L 1242.00 1087.00 L 1243.00 1119.00 L 1253.00 1161.00 L 1268.00 1201.00 L 1288.00 1239.00 L 1307.00 1292.00 L 1325.00 1360.00 L 1331.00 1396.00 L 1325.00 1400.00 L 1309.00 1402.00 L 1283.00 1402.00 L 1251.00 1406.00 L 1213.00 1414.00 L 1154.00 1434.00 L 1074.00 1466.00 L 1006.00 1498.00 L 950.00 1530.00 L 896.00 1566.00 L 844.00 1606.00 L 804.00 1641.00 L 776.00 1671.00 L 736.00 1705.00 L 684.00 1743.00 L 646.00 1767.00 L 622.00 1777.00 L 599.00 1782.00 L 577.00 1782.00 L 558.00 1777.00 L 542.00 1767.00 L 522.00 1747.00 L 498.00 1717.00 L 482.00 1689.00 L 474.00 1663.00 L 469.00 1633.00 L 467.00 1599.00 L 470.00 1559.00 L 478.00 1513.00 L 489.00 1470.00 L 503.00 1430.00 L 518.00 1396.00 L 534.00 1368.00 L 540.00 1356.00 L 536.00 1360.00 L 551.00 1338.00 L 585.00 1290.00 L 599.00 1269.00 L 593.00 1275.00 L 601.00 1262.00 L 623.00 1230.00 L 642.00 1206.00 L 658.00 1190.00 L 651.00 1195.00 L 621.00 1221.00 L 608.00 1232.00 L 612.00 1228.00 L 607.00 1230.00 L 593.00 1238.00 L 576.00 1242.00 L 556.00 1242.00 L 572.00 1220.00 L 624.00 1176.00 L 622.00 1175.00 L 566.00 1217.00 L 562.00 1219.00 L 610.00 1181.00 L 611.00 1179.00 L 565.00 1213.00 L 567.00 1210.00 L 617.00 1170.00 L 627.00 1160.00 L 597.00 1180.00 L 594.00 1179.00 L 618.00 1157.00 L 627.00 1144.00 L 621.00 1140.00 L 631.00 1129.00 L 657.00 1111.00 L 655.00 1110.00 L 625.00 1126.00 L 625.00 1124.00 L 655.00 1104.00 L 654.00 1101.00 L 622.00 1115.00 L 621.00 1113.00 L 651.00 1095.00 L 651.00 1093.00 L 621.00 1107.00 L 620.00 1104.00 L 648.00 1084.00 L 654.00 1077.00 L 638.00 1083.00 L 637.00 1081.00 L 651.00 1071.00 L 652.00 1057.00 L 640.00 1039.00 L 636.00 1026.00 L 640.00 1018.00 L 649.00 1011.00 L 663.00 1005.00 L 662.00 998.00 L 646.00 990.00 L 635.00 985.00 L 629.00 983.00 L 619.00 973.00 Z" fill="black" stroke="black" stroke-width="1"/>
</svg>