<?xml version="1.0" encoding="UTF-8"?>
<svg xmlns="http://www.w3.org/2000/svg" viewBox="432.00 306.00 824.00 1409.00">
  <path d="M 579.00 1002.00 L 565.00 994.00 L 555.00 983.00 L 549.00 969.00 L 548.00 955.00 L 552.00 941.00 L 561.00 926.00 L 575.00 910.00 L 578.00 897.00 L 570.00 887.00 L 564.00 870.00 L 560.00 846.00 L 556.00 830.00 L 552.00 822.00 L 538.00 808.00 L 514.00 788.00 L 511.00 784.00 L 529.00 796.00 L 528.00 793.00 L 508.00 775.00 L 501.00 760.00 L 507.00 748.00 L 522.00 728.00 L 546.00 700.00 L 563.00 677.00 L 573.00 659.00 L 578.00 638.00 L 578.00 614.00 L 583.00 592.00 L 593.00 572.00 L 596.00 551.00 L 592.00 529.00 L 594.00 526.00 L 602.00 542.00 L 604.00 545.00 L 600.00 535.00 L 601.00 534.00 L 607.00 542.00 L 606.00 537.00 L 598.00 519.00 L 599.00 517.00 L 609.00 531.00 L 611.00 529.00 L 605.00 511.00 L 606.00 508.00 L 614.00 520.00 L 616.00 519.00 L 612.00 505.00 L 613.00 503.00 L 619.00 513.00 L 620.00 512.00 L 616.00 500.00 L 617.00 499.00 L 623.00 509.00 L 624.00 508.00 L 620.00 496.00 L 619.00 488.00 L 621.00 484.00 L 624.00 487.00 L 628.00 497.00 L 629.00 495.00 L 627.00 481.00 L 628.00 479.00 L 632.00 489.00 L 633.00 487.00 L 631.00 473.00 L 632.00 471.00 L 636.00 481.00 L 637.00 480.00 L 635.00 468.00 L 636.00 467.00 L 640.00 477.00 L 643.00 481.00 L 645.00 479.00 L 644.00 472.00 L 640.00 460.00 L 640.00 459.00 L 644.00 469.00 L 647.00 473.00 L 649.00 471.00 L 649.00 464.00 L 647.00 452.00 L 648.00 451.00 L 652.00 461.00 L 654.00 459.00 L 654.00 445.00 L 660.00 436.00 L 672.00 432.00 L 695.00 414.00 L 729.00 382.00 L 778.00 355.00 L 842.00 333.00 L 899.00 320.00 L 949.00 316.00 L 997.00 319.00 L 1043.00 329.00 L 1076.00 339.00 L 1096.00 349.00 L 1123.00 370.00 L 1157.00 402.00 L 1177.00 425.00 L 1183.00 439.00 L 1195.00 460.00 L 1213.00 488.00 L 1227.00 518.00 L 1237.00 550.00 L 1242.00 574.00 L 1242.00 590.00 L 1243.00 599.00 L 1245.00 601.00 L 1246.00 613.00 L 1246.00 635.00 L 1245.00 647.00 L 1243.00 649.00 L 1243.00 653.00 L 1245.00 659.00 L 1244.00 675.00 L 1240.00 701.00 L 1235.00 725.00 L 1229.00 747.00 L 1219.00 773.00 L 1205.00 803.00 L 1196.00 833.00 L 1192.00 863.00 L 1188.00 882.00 L 1184.00 890.00 L 1177.00 896.00 L 1167.00 900.00 L 1166.00 901.00 L 1174.00 899.00 L 1176.00 899.00 L 1172.00 901.00 L 1169.00 905.00 L 1167.00 911.00 L 1169.00 924.00 L 1175.00 944.00 L 1178.00 969.00 L 1178.00 999.00 L 1179.00 1016.00 L 1181.00 1020.00 L 1182.00 1035.00 L 1182.00 1061.00 L 1178.00 1087.00 L 1170.00 1113.00 L 1168.00 1130.00 L 1172.00 1138.00 L 1175.00 1149.00 L 1177.00 1163.00 L 1185.00 1186.00 L 1199.00 1218.00 L 1211.00 1252.00 L 1221.00 1288.00 L 1230.00 1330.00 L 1238.00 1378.00 L 1242.00 1411.00 L 1242.00 1429.00 L 1240.00 1439.00 L 1236.00 1441.00 L 1232.00 1441.00 L 1228.00 1439.00 L 1224.00 1439.00 L 1220.00 1441.00 L 1192.00 1443.00 L 1140.00 1445.00 L 1097.00 1449.00 L 1063.00 1455.00 L 1017.00 1466.00 L 959.00 1482.00 L 897.00 1503.00 L 831.00 1529.00 L 786.00 1548.00 L 762.00 1560.00 L 749.00 1568.00 L 747.00 1572.00 L 699.00 1606.00 L 605.00 1670.00 L 554.00 1703.00 L 546.00 1705.00 L 528.00 1705.00 L 500.00 1703.00 L 478.00 1695.00 L 462.00 1681.00 L 451.00 1666.00 L 445.00 1650.00 L 442.00 1617.00 L 442.00 1567.00 L 445.00 1524.00 L 451.00 1488.00 L 463.00 1450.00 L 481.00 1410.00 L 489.00 1391.00 L 487.00 1393.00 L 497.00 1378.00 L 519.00 1346.00 L 529.00 1331.00 L 527.00 1333.00 L 530.00 1323.00 L 538.00 1301.00 L 556.00 1274.00 L 584.00 1242.00 L 588.00 1228.00 L 568.00 1232.00 L 582.00 1214.00 L 630.00 1174.00 L 628.00 1174.00 L 576.00 1214.00 L 573.00 1214.00 L 619.00 1174.00 L 617.00 1173.00 L 567.00 1211.00 L 564.00 1213.00 L 608.00 1179.00 L 609.00 1177.00 L 567.00 1207.00 L 568.00 1204.00 L 612.00 1168.00 L 628.00 1147.00 L 616.00 1141.00 L 609.00 1136.00 L 607.00 1132.00 L 611.00 1122.00 L 621.00 1106.00 L 623.00 1094.00 L 617.00 1086.00 L 608.00 1078.00 L 596.00 1070.00 L 590.00 1063.00 L 590.00 1057.00 L 596.00 1049.00 L 608.00 1039.00 L 609.00 1030.00 L 599.00 1022.00 L 592.00 1015.00 L 588.00 1009.00 L 579.00 1002.00 Z" fill="black" stroke="black" stroke-width="1"/>
</svg>