<?xml version="1.0" encoding="UTF-8"?>
<svg xmlns="http://www.w3.org/2000/svg" viewBox="314.00 213.00 897.00 1466.00">
  <path d="M 405.00 976.00 L 403.00 964.00 L 405.00 951.00 L 411.00 937.00 L 406.00 920.00 L 390.00 900.00 L 387.00 885.00 L 397.00 875.00 L 397.00 864.00 L 387.00 852.00 L 384.00 836.00 L 388.00 816.00 L 380.00 798.00 L 360.00 782.00 L 360.00 779.00 L 380.00 789.00 L 376.00 786.00 L 348.00 770.00 L 346.00 768.00 L 370.00 780.00 L 369.00 778.00 L 343.00 762.00 L 328.00 749.00 L 324.00 739.00 L 324.00 728.00 L 328.00 716.00 L 358.00 681.00 L 414.00 623.00 L 444.00 579.00 L 448.00 549.00 L 459.00 518.00 L 477.00 486.00 L 482.00 460.00 L 474.00 440.00 L 475.00 438.00 L 485.00 454.00 L 486.00 453.00 L 478.00 435.00 L 479.00 432.00 L 489.00 444.00 L 491.00 442.00 L 485.00 426.00 L 484.00 419.00 L 488.00 421.00 L 489.00 419.00 L 487.00 413.00 L 490.00 417.00 L 498.00 431.00 L 499.00 428.00 L 493.00 408.00 L 494.00 405.00 L 502.00 419.00 L 503.00 417.00 L 497.00 399.00 L 499.00 396.00 L 509.00 408.00 L 511.00 405.00 L 505.00 387.00 L 506.00 385.00 L 514.00 399.00 L 516.00 396.00 L 512.00 376.00 L 514.00 373.00 L 522.00 387.00 L 523.00 386.00 L 517.00 370.00 L 516.00 359.00 L 520.00 353.00 L 525.00 358.00 L 531.00 374.00 L 533.00 373.00 L 531.00 355.00 L 552.00 329.00 L 596.00 295.00 L 649.00 266.00 L 711.00 242.00 L 758.00 228.00 L 790.00 224.00 L 831.00 223.00 L 881.00 225.00 L 927.00 231.00 L 969.00 241.00 L 1022.00 274.00 L 1086.00 330.00 L 1131.00 382.00 L 1157.00 430.00 L 1178.00 483.00 L 1194.00 541.00 L 1201.00 598.00 L 1199.00 654.00 L 1187.00 708.00 L 1165.00 760.00 L 1162.00 826.00 L 1178.00 906.00 L 1182.00 956.00 L 1174.00 976.00 L 1147.00 986.00 L 1101.00 986.00 L 1098.00 988.00 L 1138.00 992.00 L 1136.00 995.00 L 1092.00 997.00 L 1089.00 999.00 L 1127.00 1001.00 L 1132.00 1002.00 L 1104.00 1002.00 L 1097.00 1003.00 L 1111.00 1005.00 L 1105.00 1008.00 L 1079.00 1012.00 L 1077.00 1015.00 L 1099.00 1017.00 L 1100.00 1019.00 L 1080.00 1021.00 L 1078.00 1025.00 L 1094.00 1031.00 L 1108.00 1049.00 L 1120.00 1079.00 L 1132.00 1130.00 L 1144.00 1202.00 L 1150.00 1243.00 L 1150.00 1253.00 L 1146.00 1260.00 L 1138.00 1264.00 L 1146.00 1296.00 L 1170.00 1356.00 L 1182.00 1400.00 L 1182.00 1428.00 L 1177.00 1448.00 L 1167.00 1460.00 L 1102.00 1468.00 L 982.00 1472.00 L 880.00 1481.00 L 796.00 1495.00 L 692.00 1526.00 L 568.00 1574.00 L 479.00 1615.00 L 425.00 1649.00 L 387.00 1667.00 L 365.00 1669.00 L 349.00 1664.00 L 339.00 1652.00 L 334.00 1639.00 L 334.00 1625.00 L 342.00 1604.00 L 358.00 1576.00 L 360.00 1571.00 L 348.00 1589.00 L 361.00 1559.00 L 399.00 1481.00 L 448.00 1399.00 L 508.00 1313.00 L 508.00 1311.00 L 448.00 1393.00 L 448.00 1390.00 L 508.00 1302.00 L 508.00 1297.00 L 448.00 1375.00 L 448.00 1374.00 L 508.00 1294.00 L 508.00 1293.00 L 448.00 1371.00 L 438.00 1383.00 L 478.00 1329.00 L 478.00 1326.00 L 438.00 1374.00 L 419.00 1396.00 L 421.00 1392.00 L 450.00 1353.00 L 506.00 1279.00 L 519.00 1260.00 L 489.00 1296.00 L 488.00 1293.00 L 516.00 1251.00 L 512.00 1250.00 L 476.00 1290.00 L 468.00 1297.00 L 488.00 1271.00 L 486.00 1271.00 L 462.00 1297.00 L 468.00 1289.00 L 504.00 1247.00 L 502.00 1246.00 L 462.00 1286.00 L 458.00 1285.00 L 490.00 1243.00 L 502.00 1225.00 L 494.00 1231.00 L 491.00 1231.00 L 493.00 1225.00 L 491.00 1222.00 L 485.00 1222.00 L 494.00 1209.00 L 518.00 1183.00 L 516.00 1181.00 L 488.00 1203.00 L 488.00 1201.00 L 516.00 1175.00 L 516.00 1173.00 L 488.00 1195.00 L 488.00 1192.00 L 516.00 1164.00 L 519.00 1156.00 L 497.00 1168.00 L 496.00 1166.00 L 516.00 1150.00 L 517.00 1148.00 L 499.00 1160.00 L 499.00 1157.00 L 517.00 1139.00 L 525.00 1124.00 L 523.00 1112.00 L 528.00 1101.00 L 540.00 1091.00 L 540.00 1089.00 L 528.00 1095.00 L 526.00 1095.00 L 534.00 1089.00 L 523.00 1080.00 L 493.00 1068.00 L 466.00 1053.00 L 442.00 1035.00 L 425.00 1018.00 L 415.00 1002.00 L 409.00 991.00 L 407.00 985.00 L 405.00 976.00 Z" fill="black" stroke="black" stroke-width="1"/>
</svg>