<?xml version="1.0" encoding="UTF-8"?>
<svg xmlns="http://www.w3.org/2000/svg" viewBox="231.00 205.00 1304.00 1540.00">
  <path d="M 584.00 954.00 L 588.00 922.00 L 578.00 897.00 L 554.00 879.00 L 542.00 865.00 L 542.00 855.00 L 466.00 825.00 L 314.00 775.00 L 315.00 773.00 L 469.00 819.00 L 467.00 816.00 L 309.00 764.00 L 241.00 740.00 L 263.00 744.00 L 264.00 741.00 L 244.00 731.00 L 249.00 730.00 L 279.00 738.00 L 280.00 736.00 L 252.00 724.00 L 318.00 746.00 L 478.00 802.00 L 479.00 800.00 L 321.00 740.00 L 263.00 715.00 L 305.00 725.00 L 306.00 722.00 L 266.00 706.00 L 326.00 728.00 L 486.00 788.00 L 488.00 784.00 L 332.00 716.00 L 281.00 692.00 L 335.00 712.00 L 337.00 709.00 L 287.00 683.00 L 340.00 704.00 L 496.00 772.00 L 497.00 770.00 L 343.00 698.00 L 298.00 675.00 L 362.00 701.00 L 364.00 698.00 L 304.00 666.00 L 351.00 687.00 L 505.00 761.00 L 506.00 758.00 L 354.00 678.00 L 357.00 676.00 L 515.00 752.00 L 517.00 749.00 L 363.00 667.00 L 330.00 644.00 L 418.00 680.00 L 422.00 675.00 L 342.00 629.00 L 378.00 649.00 L 530.00 735.00 L 531.00 734.00 L 381.00 646.00 L 383.00 645.00 L 537.00 731.00 L 539.00 728.00 L 389.00 636.00 L 360.00 615.00 L 452.00 665.00 L 455.00 661.00 L 369.00 603.00 L 401.00 621.00 L 551.00 715.00 L 553.00 712.00 L 407.00 612.00 L 383.00 593.00 L 481.00 655.00 L 483.00 652.00 L 389.00 584.00 L 415.00 600.00 L 561.00 700.00 L 563.00 698.00 L 421.00 594.00 L 422.00 591.00 L 566.00 689.00 L 571.00 684.00 L 437.00 576.00 L 437.00 573.00 L 571.00 675.00 L 573.00 673.00 L 443.00 567.00 L 443.00 564.00 L 573.00 664.00 L 577.00 660.00 L 455.00 552.00 L 456.00 550.00 L 580.00 654.00 L 584.00 651.00 L 468.00 541.00 L 468.00 538.00 L 584.00 642.00 L 587.00 639.00 L 477.00 529.00 L 470.00 438.00 L 566.00 366.00 L 675.00 305.00 L 797.00 255.00 L 907.00 225.00 L 1005.00 215.00 L 1105.00 227.00 L 1207.00 261.00 L 1298.00 320.00 L 1378.00 404.00 L 1436.00 485.00 L 1472.00 563.00 L 1499.00 656.00 L 1517.00 764.00 L 1525.00 867.00 L 1523.00 965.00 L 1511.00 1078.00 L 1489.00 1206.00 L 1414.00 1236.00 L 1286.00 1168.00 L 1285.00 1171.00 L 1411.00 1245.00 L 1415.00 1249.00 L 1297.00 1183.00 L 1297.00 1186.00 L 1415.00 1258.00 L 1412.00 1257.00 L 1288.00 1183.00 L 1287.00 1186.00 L 1409.00 1266.00 L 1410.00 1269.00 L 1290.00 1195.00 L 1290.00 1198.00 L 1410.00 1278.00 L 1411.00 1281.00 L 1293.00 1207.00 L 1292.00 1211.00 L 1408.00 1293.00 L 1408.00 1295.00 L 1292.00 1217.00 L 1292.00 1220.00 L 1408.00 1304.00 L 1408.00 1307.00 L 1292.00 1229.00 L 1291.00 1233.00 L 1405.00 1319.00 L 1406.00 1322.00 L 1294.00 1242.00 L 1293.00 1245.00 L 1403.00 1331.00 L 1424.00 1349.00 L 1356.00 1299.00 L 1355.00 1302.00 L 1421.00 1358.00 L 1400.00 1343.00 L 1292.00 1257.00 L 1291.00 1259.00 L 1397.00 1349.00 L 1398.00 1352.00 L 1294.00 1268.00 L 1293.00 1271.00 L 1395.00 1361.00 L 1396.00 1365.00 L 1296.00 1283.00 L 1294.00 1287.00 L 1390.00 1377.00 L 1391.00 1382.00 L 1297.00 1302.00 L 1295.00 1304.00 L 1385.00 1388.00 L 1386.00 1392.00 L 1298.00 1316.00 L 1295.00 1318.00 L 1377.00 1398.00 L 1377.00 1401.00 L 1295.00 1327.00 L 1264.00 1326.00 L 1284.00 1398.00 L 1290.00 1440.00 L 1282.00 1452.00 L 1280.00 1472.00 L 1284.00 1500.00 L 1246.00 1521.00 L 1166.00 1535.00 L 1058.00 1567.00 L 922.00 1617.00 L 812.00 1663.00 L 728.00 1705.00 L 675.00 1729.00 L 653.00 1735.00 L 627.00 1735.00 L 597.00 1729.00 L 572.00 1713.00 L 552.00 1687.00 L 543.00 1641.00 L 545.00 1575.00 L 581.00 1461.00 L 651.00 1299.00 L 677.00 1195.00 L 659.00 1149.00 L 652.00 1122.00 L 656.00 1114.00 L 643.00 1098.00 L 613.00 1074.00 L 599.00 1051.00 L 601.00 1029.00 L 597.00 1010.00 L 587.00 994.00 L 582.00 982.00 L 582.00 974.00 L 584.00 954.00 Z" fill="black" stroke="black" stroke-width="1"/>
</svg>