<?xml version="1.0" encoding="UTF-8"?>
<svg xmlns="http://www.w3.org/2000/svg" viewBox="372.00 244.00 889.00 1506.00">
  <path d="M 535.00 993.00 L 529.00 975.00 L 531.00 961.00 L 541.00 951.00 L 537.00 941.00 L 519.00 931.00 L 504.00 919.00 L 492.00 905.00 L 485.00 887.00 L 483.00 865.00 L 484.00 847.00 L 488.00 833.00 L 485.00 817.00 L 475.00 799.00 L 468.00 772.00 L 464.00 736.00 L 452.00 707.00 L 432.00 685.00 L 429.00 680.00 L 443.00 692.00 L 442.00 687.00 L 426.00 665.00 L 444.00 628.00 L 496.00 576.00 L 525.00 535.00 L 531.00 505.00 L 531.00 480.00 L 525.00 460.00 L 526.00 458.00 L 534.00 474.00 L 537.00 475.00 L 535.00 461.00 L 536.00 458.00 L 540.00 466.00 L 539.00 462.00 L 533.00 446.00 L 534.00 445.00 L 542.00 459.00 L 544.00 458.00 L 540.00 442.00 L 541.00 440.00 L 547.00 452.00 L 548.00 450.00 L 544.00 434.00 L 546.00 431.00 L 554.00 441.00 L 556.00 440.00 L 552.00 428.00 L 551.00 420.00 L 553.00 416.00 L 556.00 418.00 L 560.00 426.00 L 564.00 430.00 L 568.00 430.00 L 568.00 423.00 L 564.00 409.00 L 565.00 407.00 L 571.00 417.00 L 573.00 414.00 L 571.00 398.00 L 573.00 395.00 L 579.00 405.00 L 581.00 403.00 L 579.00 389.00 L 581.00 387.00 L 587.00 397.00 L 589.00 395.00 L 587.00 381.00 L 594.00 370.00 L 610.00 362.00 L 628.00 349.00 L 648.00 331.00 L 684.00 308.00 L 736.00 280.00 L 784.00 265.00 L 828.00 263.00 L 857.00 260.00 L 871.00 256.00 L 889.00 254.00 L 911.00 254.00 L 945.00 259.00 L 991.00 269.00 L 1025.00 280.00 L 1047.00 292.00 L 1073.00 310.00 L 1103.00 334.00 L 1128.00 357.00 L 1148.00 379.00 L 1165.00 407.00 L 1179.00 441.00 L 1190.00 472.00 L 1198.00 500.00 L 1202.00 537.00 L 1202.00 583.00 L 1200.00 618.00 L 1196.00 642.00 L 1187.00 669.00 L 1173.00 699.00 L 1145.00 744.00 L 1103.00 804.00 L 1077.00 838.00 L 1067.00 846.00 L 1070.00 856.00 L 1086.00 868.00 L 1097.00 881.00 L 1103.00 895.00 L 1111.00 926.00 L 1121.00 974.00 L 1124.00 1017.00 L 1120.00 1055.00 L 1141.00 1120.00 L 1187.00 1212.00 L 1218.00 1288.00 L 1234.00 1348.00 L 1245.00 1394.00 L 1251.00 1426.00 L 1251.00 1442.00 L 1245.00 1442.00 L 1244.00 1445.00 L 1248.00 1451.00 L 1244.00 1452.00 L 1232.00 1448.00 L 1228.00 1449.00 L 1232.00 1455.00 L 1230.00 1455.00 L 1222.00 1449.00 L 1220.00 1449.00 L 1224.00 1455.00 L 1222.00 1456.00 L 1214.00 1452.00 L 1211.00 1452.00 L 1213.00 1456.00 L 1181.00 1460.00 L 1115.00 1464.00 L 1047.00 1476.00 L 977.00 1496.00 L 922.00 1514.00 L 882.00 1530.00 L 833.00 1554.00 L 775.00 1586.00 L 718.00 1622.00 L 662.00 1662.00 L 611.00 1695.00 L 565.00 1721.00 L 528.00 1736.00 L 500.00 1740.00 L 477.00 1738.00 L 459.00 1730.00 L 442.00 1717.00 L 426.00 1699.00 L 412.00 1678.00 L 400.00 1654.00 L 391.00 1630.00 L 385.00 1606.00 L 382.00 1566.00 L 382.00 1510.00 L 395.00 1441.00 L 421.00 1359.00 L 453.00 1291.00 L 491.00 1237.00 L 514.00 1200.00 L 522.00 1180.00 L 533.00 1163.00 L 547.00 1149.00 L 544.00 1148.00 L 524.00 1160.00 L 528.00 1157.00 L 556.00 1139.00 L 546.00 1143.00 L 498.00 1169.00 L 496.00 1169.00 L 540.00 1143.00 L 538.00 1143.00 L 490.00 1169.00 L 460.00 1180.00 L 448.00 1176.00 L 451.00 1169.00 L 469.00 1159.00 L 475.00 1155.00 L 469.00 1157.00 L 481.00 1146.00 L 511.00 1122.00 L 521.00 1112.00 L 511.00 1116.00 L 515.00 1114.00 L 533.00 1106.00 L 539.00 1103.00 L 533.00 1105.00 L 530.00 1104.00 L 530.00 1100.00 L 524.00 1095.00 L 512.00 1089.00 L 506.00 1083.00 L 506.00 1077.00 L 518.00 1069.00 L 542.00 1059.00 L 543.00 1056.00 L 521.00 1060.00 L 520.00 1059.00 L 540.00 1053.00 L 541.00 1051.00 L 523.00 1053.00 L 522.00 1051.00 L 538.00 1045.00 L 539.00 1043.00 L 525.00 1045.00 L 525.00 1043.00 L 539.00 1037.00 L 545.00 1029.00 L 543.00 1019.00 L 541.00 1011.00 L 539.00 1005.00 L 535.00 993.00 Z" fill="black" stroke="black" stroke-width="1"/>
</svg>