<?xml version="1.0" encoding="UTF-8"?>
<svg xmlns="http://www.w3.org/2000/svg" viewBox="393.00 341.00 854.00 1407.00">
  <path d="M 597.00 1044.00 L 611.00 1032.00 L 606.00 1013.00 L 582.00 987.00 L 569.00 964.00 L 567.00 944.00 L 568.00 927.00 L 572.00 913.00 L 570.00 902.00 L 562.00 894.00 L 558.00 885.00 L 558.00 875.00 L 554.00 866.00 L 546.00 858.00 L 544.00 846.00 L 548.00 830.00 L 539.00 810.00 L 517.00 786.00 L 517.00 784.00 L 539.00 804.00 L 538.00 803.00 L 514.00 781.00 L 513.00 779.00 L 535.00 797.00 L 534.00 794.00 L 510.00 770.00 L 503.00 751.00 L 513.00 737.00 L 536.00 715.00 L 572.00 685.00 L 594.00 655.00 L 602.00 625.00 L 604.00 602.00 L 600.00 586.00 L 601.00 583.00 L 607.00 593.00 L 608.00 591.00 L 604.00 577.00 L 605.00 574.00 L 611.00 582.00 L 612.00 580.00 L 608.00 568.00 L 609.00 566.00 L 615.00 574.00 L 617.00 570.00 L 615.00 554.00 L 617.00 552.00 L 623.00 564.00 L 625.00 561.00 L 623.00 543.00 L 625.00 540.00 L 631.00 552.00 L 632.00 548.00 L 628.00 528.00 L 629.00 526.00 L 635.00 542.00 L 636.00 540.00 L 632.00 520.00 L 633.00 518.00 L 639.00 534.00 L 642.00 538.00 L 642.00 530.00 L 643.00 527.00 L 645.00 529.00 L 644.00 523.00 L 640.00 509.00 L 641.00 508.00 L 647.00 520.00 L 648.00 519.00 L 644.00 505.00 L 645.00 503.00 L 651.00 513.00 L 653.00 512.00 L 651.00 500.00 L 675.00 472.00 L 725.00 428.00 L 782.00 393.00 L 846.00 367.00 L 895.00 353.00 L 929.00 351.00 L 966.00 353.00 L 1006.00 359.00 L 1042.00 370.00 L 1074.00 386.00 L 1101.00 403.00 L 1123.00 421.00 L 1148.00 446.00 L 1176.00 478.00 L 1199.00 512.00 L 1217.00 548.00 L 1229.00 583.00 L 1235.00 617.00 L 1237.00 656.00 L 1235.00 700.00 L 1228.00 743.00 L 1216.00 785.00 L 1195.00 828.00 L 1165.00 872.00 L 1148.00 907.00 L 1144.00 933.00 L 1136.00 953.00 L 1124.00 967.00 L 1122.00 978.00 L 1130.00 986.00 L 1136.00 996.00 L 1140.00 1008.00 L 1143.00 1055.00 L 1145.00 1137.00 L 1144.00 1185.00 L 1140.00 1199.00 L 1147.00 1237.00 L 1165.00 1299.00 L 1179.00 1383.00 L 1189.00 1489.00 L 1158.00 1545.00 L 1086.00 1551.00 L 1020.00 1559.00 L 960.00 1569.00 L 882.00 1589.00 L 786.00 1619.00 L 700.00 1654.00 L 624.00 1694.00 L 569.00 1720.00 L 535.00 1732.00 L 510.00 1738.00 L 494.00 1738.00 L 479.00 1735.00 L 465.00 1729.00 L 447.00 1712.00 L 425.00 1684.00 L 411.00 1658.00 L 405.00 1634.00 L 403.00 1609.00 L 405.00 1583.00 L 419.00 1538.00 L 445.00 1474.00 L 457.00 1443.00 L 455.00 1445.00 L 475.00 1415.00 L 517.00 1353.00 L 542.00 1308.00 L 550.00 1280.00 L 564.00 1255.00 L 584.00 1233.00 L 580.00 1222.00 L 552.00 1222.00 L 551.00 1212.00 L 577.00 1192.00 L 574.00 1191.00 L 542.00 1209.00 L 544.00 1207.00 L 580.00 1185.00 L 578.00 1184.00 L 538.00 1204.00 L 537.00 1203.00 L 575.00 1181.00 L 574.00 1179.00 L 534.00 1197.00 L 533.00 1196.00 L 571.00 1176.00 L 572.00 1174.00 L 536.00 1190.00 L 536.00 1188.00 L 572.00 1168.00 L 591.00 1152.00 L 593.00 1140.00 L 604.00 1130.00 L 624.00 1122.00 L 625.00 1121.00 L 607.00 1127.00 L 606.00 1127.00 L 622.00 1121.00 L 623.00 1119.00 L 609.00 1121.00 L 606.00 1120.00 L 614.00 1116.00 L 614.00 1114.00 L 606.00 1114.00 L 609.00 1112.00 L 623.00 1108.00 L 625.00 1107.00 L 615.00 1109.00 L 614.00 1108.00 L 622.00 1104.00 L 626.00 1100.00 L 626.00 1096.00 L 618.00 1085.00 L 602.00 1067.00 L 593.00 1056.00 L 591.00 1052.00 L 597.00 1044.00 Z" fill="black" stroke="black" stroke-width="1"/>
</svg>