<?xml version="1.0" encoding="UTF-8"?>
<svg xmlns="http://www.w3.org/2000/svg" viewBox="316.00 301.00 939.00 1530.00">
  <path d="M 530.00 1025.00 L 530.00 991.00 L 523.00 965.00 L 509.00 947.00 L 505.00 930.00 L 511.00 914.00 L 511.00 902.00 L 505.00 894.00 L 505.00 883.00 L 511.00 869.00 L 505.00 852.00 L 487.00 832.00 L 485.00 827.00 L 499.00 837.00 L 496.00 834.00 L 476.00 818.00 L 465.00 805.00 L 463.00 795.00 L 463.00 787.00 L 465.00 781.00 L 489.00 755.00 L 535.00 709.00 L 558.00 679.00 L 558.00 665.00 L 549.00 640.00 L 531.00 604.00 L 531.00 601.00 L 549.00 631.00 L 550.00 629.00 L 534.00 595.00 L 534.00 591.00 L 550.00 617.00 L 551.00 615.00 L 537.00 585.00 L 537.00 582.00 L 551.00 606.00 L 553.00 608.00 L 543.00 588.00 L 543.00 586.00 L 553.00 602.00 L 553.00 597.00 L 543.00 571.00 L 544.00 568.00 L 556.00 588.00 L 558.00 586.00 L 550.00 562.00 L 551.00 559.00 L 561.00 577.00 L 567.00 584.00 L 569.00 580.00 L 566.00 568.00 L 558.00 548.00 L 559.00 546.00 L 569.00 562.00 L 574.00 568.00 L 574.00 564.00 L 570.00 549.00 L 562.00 523.00 L 563.00 521.00 L 573.00 543.00 L 574.00 540.00 L 566.00 512.00 L 567.00 509.00 L 577.00 531.00 L 578.00 530.00 L 570.00 506.00 L 571.00 504.00 L 581.00 524.00 L 583.00 522.00 L 577.00 498.00 L 578.00 496.00 L 586.00 516.00 L 587.00 515.00 L 581.00 493.00 L 582.00 490.00 L 590.00 506.00 L 593.00 511.00 L 591.00 505.00 L 592.00 503.00 L 596.00 505.00 L 595.00 497.00 L 589.00 479.00 L 589.00 477.00 L 595.00 491.00 L 597.00 490.00 L 595.00 474.00 L 597.00 471.00 L 603.00 481.00 L 604.00 480.00 L 600.00 468.00 L 599.00 461.00 L 601.00 459.00 L 604.00 464.00 L 608.00 476.00 L 609.00 475.00 L 607.00 461.00 L 608.00 460.00 L 612.00 472.00 L 614.00 470.00 L 614.00 454.00 L 625.00 435.00 L 647.00 413.00 L 673.00 391.00 L 703.00 369.00 L 746.00 347.00 L 802.00 325.00 L 846.00 313.00 L 878.00 311.00 L 917.00 312.00 L 963.00 316.00 L 1018.00 335.00 L 1082.00 369.00 L 1137.00 413.00 L 1183.00 467.00 L 1212.00 505.00 L 1224.00 527.00 L 1233.00 552.00 L 1239.00 580.00 L 1243.00 614.00 L 1245.00 654.00 L 1243.00 691.00 L 1237.00 725.00 L 1219.00 770.00 L 1189.00 826.00 L 1155.00 875.00 L 1117.00 917.00 L 1091.00 950.00 L 1077.00 974.00 L 1063.00 990.00 L 1049.00 998.00 L 1042.00 1013.00 L 1042.00 1035.00 L 1043.00 1051.00 L 1045.00 1061.00 L 1052.00 1075.00 L 1064.00 1093.00 L 1071.00 1108.00 L 1073.00 1120.00 L 1082.00 1132.00 L 1098.00 1144.00 L 1108.00 1162.00 L 1112.00 1186.00 L 1130.00 1233.00 L 1162.00 1303.00 L 1190.00 1390.00 L 1214.00 1494.00 L 1224.00 1548.00 L 1220.00 1552.00 L 1199.00 1554.00 L 1161.00 1554.00 L 1113.00 1559.00 L 1055.00 1569.00 L 986.00 1585.00 L 906.00 1607.00 L 819.00 1641.00 L 725.00 1687.00 L 636.00 1738.00 L 552.00 1794.00 L 502.00 1821.00 L 486.00 1819.00 L 458.00 1806.00 L 418.00 1782.00 L 386.00 1756.00 L 362.00 1728.00 L 345.00 1699.00 L 335.00 1669.00 L 422.00 1533.00 L 606.00 1291.00 L 606.00 1288.00 L 422.00 1524.00 L 421.00 1525.00 L 603.00 1291.00 L 602.00 1288.00 L 418.00 1516.00 L 412.00 1522.00 L 584.00 1306.00 L 583.00 1301.00 L 409.00 1507.00 L 406.00 1509.00 L 574.00 1307.00 L 574.00 1304.00 L 406.00 1500.00 L 404.00 1502.00 L 568.00 1310.00 L 569.00 1308.00 L 407.00 1496.00 L 418.00 1483.00 L 602.00 1269.00 L 602.00 1266.00 L 418.00 1474.00 L 326.00 1576.00 L 326.00 1572.00 L 400.00 1487.00 L 548.00 1321.00 L 549.00 1318.00 L 403.00 1478.00 L 395.00 1486.00 L 525.00 1342.00 L 526.00 1339.00 L 398.00 1477.00 L 396.00 1478.00 L 520.00 1342.00 L 521.00 1339.00 L 399.00 1469.00 L 392.00 1476.00 L 500.00 1360.00 L 503.00 1356.00 L 401.00 1464.00 L 394.00 1471.00 L 482.00 1377.00 L 483.00 1375.00 L 397.00 1465.00 L 388.00 1474.00 L 456.00 1402.00 L 457.00 1399.00 L 391.00 1465.00 L 382.00 1473.00 L 430.00 1423.00 L 432.00 1420.00 L 388.00 1464.00 L 383.00 1468.00 L 417.00 1432.00 L 422.00 1426.00 L 398.00 1450.00 L 462.00 1384.00 L 614.00 1228.00 L 670.00 1142.00 L 630.00 1126.00 L 591.00 1101.00 L 553.00 1067.00 L 533.00 1048.00 L 531.00 1044.00 L 530.00 1025.00 Z" fill="black" stroke="black" stroke-width="1"/>
</svg>