<?xml version="1.0" encoding="UTF-8"?>
<svg xmlns="http://www.w3.org/2000/svg" viewBox="347.00 246.00 852.00 1482.00">
  <path d="M 563.00 945.00 L 557.00 927.00 L 526.00 911.00 L 470.00 897.00 L 470.00 894.00 L 526.00 902.00 L 522.00 898.00 L 458.00 882.00 L 457.00 880.00 L 519.00 892.00 L 514.00 887.00 L 442.00 865.00 L 442.00 861.00 L 514.00 875.00 L 511.00 870.00 L 433.00 846.00 L 425.00 843.00 L 487.00 861.00 L 484.00 857.00 L 416.00 831.00 L 424.00 831.00 L 508.00 857.00 L 508.00 855.00 L 424.00 825.00 L 423.00 824.00 L 505.00 852.00 L 504.00 849.00 L 420.00 815.00 L 417.00 812.00 L 495.00 840.00 L 495.00 837.00 L 417.00 803.00 L 416.00 801.00 L 492.00 831.00 L 492.00 828.00 L 416.00 792.00 L 372.00 740.00 L 360.00 672.00 L 357.00 623.00 L 363.00 593.00 L 378.00 568.00 L 402.00 548.00 L 410.00 520.00 L 402.00 484.00 L 407.00 461.00 L 425.00 451.00 L 434.00 433.00 L 434.00 407.00 L 451.00 367.00 L 485.00 313.00 L 523.00 276.00 L 565.00 256.00 L 596.00 273.00 L 616.00 327.00 L 619.00 327.00 L 605.00 273.00 L 608.00 272.00 L 628.00 324.00 L 632.00 324.00 L 620.00 272.00 L 623.00 271.00 L 641.00 321.00 L 648.00 322.00 L 644.00 274.00 L 650.00 271.00 L 666.00 313.00 L 671.00 317.00 L 665.00 283.00 L 668.00 282.00 L 680.00 314.00 L 757.00 343.00 L 899.00 369.00 L 1009.00 409.00 L 1087.00 463.00 L 1132.00 500.00 L 1144.00 520.00 L 1147.00 538.00 L 1141.00 554.00 L 1143.00 557.00 L 1153.00 547.00 L 1154.00 550.00 L 1146.00 566.00 L 1149.00 570.00 L 1163.00 562.00 L 1164.00 566.00 L 1152.00 582.00 L 1153.00 585.00 L 1167.00 575.00 L 1168.00 582.00 L 1156.00 606.00 L 1158.00 614.00 L 1174.00 606.00 L 1175.00 612.00 L 1161.00 632.00 L 1162.00 635.00 L 1178.00 621.00 L 1178.00 625.00 L 1162.00 647.00 L 1163.00 650.00 L 1181.00 634.00 L 1181.00 637.00 L 1163.00 659.00 L 1164.00 662.00 L 1184.00 646.00 L 1184.00 651.00 L 1164.00 677.00 L 1164.00 683.00 L 1184.00 669.00 L 1184.00 672.00 L 1164.00 692.00 L 1164.00 696.00 L 1184.00 684.00 L 1183.00 689.00 L 1161.00 711.00 L 1148.00 742.00 L 1144.00 782.00 L 1157.00 838.00 L 1187.00 910.00 L 1189.00 957.00 L 1163.00 979.00 L 1136.00 1035.00 L 1108.00 1125.00 L 1058.00 1177.00 L 986.00 1191.00 L 1004.00 1305.00 L 1112.00 1519.00 L 1109.00 1519.00 L 995.00 1305.00 L 991.00 1301.00 L 1097.00 1507.00 L 1141.00 1599.00 L 1123.00 1577.00 L 1118.00 1579.00 L 1126.00 1605.00 L 1123.00 1604.00 L 1109.00 1576.00 L 1110.00 1581.00 L 1126.00 1619.00 L 1123.00 1616.00 L 1101.00 1572.00 L 1101.00 1576.00 L 1123.00 1628.00 L 1082.00 1541.00 L 978.00 1315.00 L 978.00 1317.00 L 1082.00 1547.00 L 1116.00 1629.00 L 1080.00 1563.00 L 1079.00 1569.00 L 1113.00 1647.00 L 1111.00 1646.00 L 1073.00 1566.00 L 1071.00 1569.00 L 1105.00 1655.00 L 1103.00 1654.00 L 1065.00 1566.00 L 1064.00 1568.00 L 1100.00 1660.00 L 1067.00 1582.00 L 965.00 1334.00 L 964.00 1336.00 L 1064.00 1588.00 L 1092.00 1662.00 L 1048.00 1558.00 L 1046.00 1562.00 L 1086.00 1674.00 L 1083.00 1672.00 L 1037.00 1556.00 L 1035.00 1561.00 L 1077.00 1687.00 L 1073.00 1683.00 L 1023.00 1549.00 L 1022.00 1555.00 L 1070.00 1701.00 L 1046.00 1635.00 L 950.00 1357.00 L 947.00 1364.00 L 1037.00 1656.00 L 1053.00 1718.00 L 995.00 1550.00 L 984.00 1537.00 L 1020.00 1679.00 L 1001.00 1620.00 L 927.00 1360.00 L 925.00 1357.00 L 995.00 1611.00 L 994.00 1614.00 L 922.00 1366.00 L 914.00 1358.00 L 970.00 1590.00 L 969.00 1592.00 L 911.00 1364.00 L 907.00 1360.00 L 957.00 1580.00 L 957.00 1582.00 L 907.00 1366.00 L 904.00 1363.00 L 948.00 1573.00 L 947.00 1576.00 L 901.00 1372.00 L 896.00 1367.00 L 932.00 1561.00 L 932.00 1566.00 L 896.00 1382.00 L 893.00 1379.00 L 923.00 1557.00 L 923.00 1563.00 L 893.00 1397.00 L 891.00 1395.00 L 917.00 1557.00 L 917.00 1564.00 L 891.00 1416.00 L 890.00 1415.00 L 914.00 1561.00 L 914.00 1564.00 L 890.00 1424.00 L 888.00 1422.00 L 908.00 1558.00 L 878.00 1595.00 L 798.00 1533.00 L 680.00 1462.00 L 524.00 1382.00 L 449.00 1313.00 L 455.00 1255.00 L 481.00 1187.00 L 527.00 1109.00 L 554.00 1043.00 L 562.00 989.00 L 566.00 960.00 L 566.00 956.00 L 563.00 945.00 Z" fill="black" stroke="black" stroke-width="1"/>
</svg>