<?xml version="1.0" encoding="UTF-8"?>
<svg xmlns="http://www.w3.org/2000/svg" viewBox="323.00 297.00 902.00 1464.00">
  <path d="M 505.00 1079.00 L 511.00 1065.00 L 523.00 1057.00 L 541.00 1055.00 L 530.00 1045.00 L 490.00 1027.00 L 470.00 997.00 L 470.00 955.00 L 463.00 914.00 L 449.00 874.00 L 444.00 844.00 L 448.00 824.00 L 438.00 802.00 L 414.00 778.00 L 414.00 775.00 L 438.00 793.00 L 435.00 790.00 L 405.00 766.00 L 404.00 763.00 L 432.00 781.00 L 431.00 775.00 L 401.00 745.00 L 413.00 702.00 L 467.00 646.00 L 496.00 601.00 L 500.00 567.00 L 521.00 522.00 L 559.00 466.00 L 578.00 432.00 L 578.00 420.00 L 600.00 397.00 L 644.00 363.00 L 695.00 337.00 L 753.00 319.00 L 807.00 309.00 L 857.00 307.00 L 917.00 316.00 L 987.00 336.00 L 1046.00 369.00 L 1094.00 415.00 L 1130.00 459.00 L 1154.00 501.00 L 1172.00 544.00 L 1184.00 588.00 L 1190.00 635.00 L 1190.00 685.00 L 1181.00 747.00 L 1163.00 821.00 L 1164.00 896.00 L 1184.00 972.00 L 1166.00 1018.00 L 1110.00 1034.00 L 1111.00 1037.00 L 1169.00 1027.00 L 1170.00 1029.00 L 1114.00 1043.00 L 1114.00 1046.00 L 1170.00 1038.00 L 1170.00 1040.00 L 1114.00 1052.00 L 1114.00 1055.00 L 1170.00 1049.00 L 1198.00 1049.00 L 1198.00 1055.00 L 1171.00 1061.00 L 1117.00 1067.00 L 1117.00 1070.00 L 1171.00 1070.00 L 1172.00 1073.00 L 1120.00 1079.00 L 1120.00 1083.00 L 1172.00 1085.00 L 1173.00 1088.00 L 1123.00 1092.00 L 1122.00 1097.00 L 1170.00 1103.00 L 1170.00 1107.00 L 1122.00 1109.00 L 1121.00 1112.00 L 1167.00 1116.00 L 1168.00 1118.00 L 1124.00 1118.00 L 1125.00 1124.00 L 1171.00 1136.00 L 1171.00 1139.00 L 1125.00 1133.00 L 1128.00 1134.00 L 1180.00 1142.00 L 1209.00 1148.00 L 1215.00 1152.00 L 1190.00 1150.00 L 1134.00 1142.00 L 1135.00 1145.00 L 1193.00 1159.00 L 1193.00 1163.00 L 1135.00 1157.00 L 1133.00 1161.00 L 1187.00 1175.00 L 1188.00 1179.00 L 1136.00 1173.00 L 1134.00 1177.00 L 1182.00 1191.00 L 1184.00 1192.00 L 1140.00 1180.00 L 1141.00 1185.00 L 1187.00 1207.00 L 1184.00 1210.00 L 1132.00 1194.00 L 1132.00 1196.00 L 1184.00 1216.00 L 1184.00 1219.00 L 1132.00 1205.00 L 1131.00 1210.00 L 1181.00 1234.00 L 1181.00 1238.00 L 1131.00 1222.00 L 1131.00 1226.00 L 1181.00 1250.00 L 1182.00 1252.00 L 1134.00 1232.00 L 1135.00 1235.00 L 1185.00 1261.00 L 1185.00 1264.00 L 1135.00 1244.00 L 1133.00 1248.00 L 1179.00 1276.00 L 1180.00 1281.00 L 1136.00 1263.00 L 1133.00 1265.00 L 1171.00 1287.00 L 1171.00 1289.00 L 1133.00 1271.00 L 1128.00 1271.00 L 1156.00 1289.00 L 1156.00 1292.00 L 1128.00 1280.00 L 1128.00 1283.00 L 1156.00 1301.00 L 1157.00 1304.00 L 1131.00 1292.00 L 1131.00 1296.00 L 1157.00 1316.00 L 1157.00 1319.00 L 1131.00 1305.00 L 1132.00 1308.00 L 1160.00 1328.00 L 1161.00 1331.00 L 1135.00 1317.00 L 1135.00 1321.00 L 1161.00 1343.00 L 1162.00 1346.00 L 1138.00 1330.00 L 1138.00 1333.00 L 1162.00 1355.00 L 1163.00 1358.00 L 1141.00 1342.00 L 1142.00 1345.00 L 1166.00 1367.00 L 1172.00 1375.00 L 1160.00 1369.00 L 1160.00 1372.00 L 1172.00 1384.00 L 1167.00 1381.00 L 1145.00 1363.00 L 1145.00 1366.00 L 1167.00 1390.00 L 1168.00 1395.00 L 1148.00 1381.00 L 1149.00 1384.00 L 1171.00 1404.00 L 1176.00 1409.00 L 1164.00 1399.00 L 1165.00 1402.00 L 1179.00 1418.00 L 1175.00 1416.00 L 1153.00 1396.00 L 1154.00 1398.00 L 1178.00 1422.00 L 1179.00 1425.00 L 1157.00 1407.00 L 1156.00 1412.00 L 1176.00 1440.00 L 1176.00 1444.00 L 1156.00 1424.00 L 1154.00 1425.00 L 1170.00 1447.00 L 1171.00 1453.00 L 1157.00 1443.00 L 1148.00 1452.00 L 1144.00 1480.00 L 1091.00 1500.00 L 989.00 1512.00 L 884.00 1541.00 L 776.00 1587.00 L 679.00 1637.00 L 593.00 1691.00 L 522.00 1727.00 L 466.00 1745.00 L 424.00 1751.00 L 396.00 1745.00 L 372.00 1731.00 L 352.00 1709.00 L 339.00 1670.00 L 333.00 1614.00 L 343.00 1543.00 L 369.00 1457.00 L 408.00 1366.00 L 460.00 1270.00 L 478.00 1224.00 L 462.00 1228.00 L 440.00 1224.00 L 412.00 1212.00 L 423.00 1199.00 L 473.00 1185.00 L 475.00 1182.00 L 429.00 1190.00 L 426.00 1189.00 L 466.00 1179.00 L 469.00 1177.00 L 435.00 1183.00 L 445.00 1170.00 L 499.00 1138.00 L 515.00 1123.00 L 493.00 1125.00 L 492.00 1123.00 L 512.00 1117.00 L 515.00 1113.00 L 501.00 1111.00 L 499.00 1106.00 L 509.00 1098.00 L 511.00 1092.00 L 505.00 1088.00 L 505.00 1079.00 Z" fill="black" stroke="black" stroke-width="1"/>
</svg>