<?xml version="1.0" encoding="UTF-8"?>
<svg xmlns="http://www.w3.org/2000/svg" viewBox="357.00 378.00 729.00 1263.00">
  <path d="M 465.00 965.00 L 447.00 951.00 L 439.00 930.00 L 441.00 902.00 L 438.00 882.00 L 430.00 870.00 L 428.00 859.00 L 432.00 849.00 L 430.00 839.00 L 422.00 829.00 L 420.00 818.00 L 424.00 806.00 L 413.00 789.00 L 387.00 767.00 L 387.00 765.00 L 413.00 783.00 L 414.00 780.00 L 390.00 756.00 L 395.00 726.00 L 429.00 690.00 L 450.00 664.00 L 458.00 648.00 L 456.00 621.00 L 444.00 583.00 L 443.00 571.00 L 453.00 585.00 L 454.00 580.00 L 446.00 556.00 L 447.00 552.00 L 457.00 568.00 L 458.00 567.00 L 450.00 549.00 L 451.00 546.00 L 461.00 558.00 L 462.00 556.00 L 454.00 540.00 L 454.00 538.00 L 462.00 550.00 L 463.00 548.00 L 457.00 532.00 L 458.00 530.00 L 466.00 542.00 L 467.00 540.00 L 461.00 524.00 L 462.00 520.00 L 470.00 528.00 L 472.00 525.00 L 468.00 511.00 L 469.00 509.00 L 475.00 519.00 L 476.00 518.00 L 472.00 506.00 L 473.00 504.00 L 479.00 512.00 L 481.00 510.00 L 479.00 498.00 L 489.00 481.00 L 511.00 459.00 L 546.00 437.00 L 594.00 415.00 L 656.00 401.00 L 732.00 395.00 L 788.00 396.00 L 824.00 404.00 L 846.00 403.00 L 854.00 393.00 L 864.00 388.00 L 876.00 388.00 L 890.00 395.00 L 906.00 409.00 L 919.00 413.00 L 929.00 407.00 L 944.00 419.00 L 964.00 449.00 L 982.00 468.00 L 998.00 476.00 L 1017.00 492.00 L 1039.00 516.00 L 1057.00 552.00 L 1071.00 600.00 L 1076.00 646.00 L 1072.00 690.00 L 1061.00 728.00 L 1043.00 760.00 L 992.00 813.00 L 908.00 887.00 L 866.00 931.00 L 866.00 945.00 L 874.00 965.00 L 890.00 991.00 L 900.00 1013.00 L 904.00 1031.00 L 910.00 1043.00 L 918.00 1049.00 L 936.00 1097.00 L 964.00 1187.00 L 984.00 1275.00 L 996.00 1361.00 L 966.00 1413.00 L 894.00 1431.00 L 820.00 1454.00 L 744.00 1482.00 L 665.00 1515.00 L 583.00 1553.00 L 519.00 1586.00 L 473.00 1614.00 L 446.00 1629.00 L 438.00 1631.00 L 427.00 1628.00 L 413.00 1620.00 L 393.00 1601.00 L 367.00 1571.00 L 416.00 1446.00 L 540.00 1226.00 L 539.00 1224.00 L 413.00 1440.00 L 414.00 1437.00 L 542.00 1215.00 L 541.00 1212.00 L 411.00 1428.00 L 407.00 1434.00 L 529.00 1230.00 L 528.00 1227.00 L 404.00 1425.00 L 402.00 1427.00 L 522.00 1233.00 L 522.00 1229.00 L 402.00 1415.00 L 398.00 1420.00 L 510.00 1244.00 L 510.00 1242.00 L 398.00 1414.00 L 408.00 1398.00 L 540.00 1194.00 L 539.00 1192.00 L 405.00 1392.00 L 392.00 1411.00 L 500.00 1249.00 L 500.00 1246.00 L 392.00 1402.00 L 386.00 1408.00 L 482.00 1264.00 L 482.00 1259.00 L 386.00 1393.00 L 383.00 1396.00 L 473.00 1268.00 L 474.00 1264.00 L 386.00 1384.00 L 407.00 1354.00 L 537.00 1174.00 L 537.00 1171.00 L 407.00 1345.00 L 379.00 1382.00 L 453.00 1282.00 L 454.00 1280.00 L 382.00 1376.00 L 381.00 1377.00 L 451.00 1283.00 L 451.00 1282.00 L 381.00 1374.00 L 379.00 1376.00 L 445.00 1288.00 L 446.00 1286.00 L 382.00 1370.00 L 381.00 1371.00 L 443.00 1289.00 L 445.00 1285.00 L 387.00 1359.00 L 384.00 1362.00 L 436.00 1294.00 L 438.00 1291.00 L 390.00 1353.00 L 389.00 1354.00 L 435.00 1294.00 L 436.00 1292.00 L 392.00 1348.00 L 391.00 1349.00 L 433.00 1295.00 L 434.00 1293.00 L 394.00 1343.00 L 392.00 1345.00 L 428.00 1299.00 L 430.00 1296.00 L 398.00 1336.00 L 396.00 1338.00 L 424.00 1302.00 L 425.00 1300.00 L 399.00 1332.00 L 392.00 1340.00 L 404.00 1324.00 L 405.00 1322.00 L 395.00 1334.00 L 443.00 1274.00 L 549.00 1142.00 L 597.00 1061.00 L 587.00 1031.00 L 557.00 1006.00 L 507.00 986.00 L 480.00 975.00 L 476.00 973.00 L 465.00 965.00 Z" fill="black" stroke="black" stroke-width="1"/>
</svg>