<?xml version="1.0" encoding="UTF-8"?>
<svg xmlns="http://www.w3.org/2000/svg" viewBox="324.00 184.00 896.00 1582.00">
  <path d="M 476.00 962.00 L 448.00 946.00 L 428.00 932.00 L 416.00 920.00 L 408.00 906.00 L 404.00 890.00 L 406.00 868.00 L 414.00 840.00 L 414.00 821.00 L 406.00 811.00 L 404.00 807.00 L 408.00 809.00 L 407.00 807.00 L 401.00 801.00 L 399.00 795.00 L 401.00 789.00 L 398.00 781.00 L 390.00 771.00 L 389.00 754.00 L 395.00 730.00 L 383.00 706.00 L 353.00 682.00 L 346.00 676.00 L 362.00 688.00 L 361.00 686.00 L 343.00 670.00 L 350.00 673.00 L 382.00 695.00 L 381.00 692.00 L 347.00 664.00 L 346.00 663.00 L 378.00 689.00 L 379.00 687.00 L 349.00 657.00 L 334.00 640.00 L 334.00 636.00 L 356.00 615.00 L 400.00 577.00 L 425.00 550.00 L 431.00 534.00 L 432.00 518.00 L 428.00 502.00 L 428.00 497.00 L 432.00 503.00 L 432.00 500.00 L 428.00 488.00 L 432.00 467.00 L 444.00 437.00 L 460.00 406.00 L 480.00 374.00 L 489.00 351.00 L 487.00 337.00 L 488.00 334.00 L 492.00 342.00 L 493.00 341.00 L 491.00 331.00 L 492.00 328.00 L 496.00 332.00 L 499.00 333.00 L 501.00 331.00 L 501.00 326.00 L 499.00 318.00 L 500.00 317.00 L 504.00 323.00 L 507.00 325.00 L 509.00 323.00 L 509.00 317.00 L 507.00 307.00 L 508.00 305.00 L 512.00 311.00 L 513.00 309.00 L 511.00 299.00 L 512.00 298.00 L 516.00 306.00 L 517.00 304.00 L 515.00 292.00 L 516.00 291.00 L 520.00 301.00 L 523.00 305.00 L 525.00 303.00 L 525.00 298.00 L 523.00 290.00 L 524.00 289.00 L 528.00 295.00 L 530.00 294.00 L 530.00 286.00 L 533.00 280.00 L 539.00 276.00 L 542.00 272.00 L 542.00 268.00 L 546.00 264.00 L 554.00 260.00 L 563.00 253.00 L 573.00 243.00 L 604.00 227.00 L 656.00 205.00 L 707.00 194.00 L 757.00 194.00 L 802.00 196.00 L 842.00 200.00 L 874.00 205.00 L 898.00 211.00 L 930.00 223.00 L 970.00 241.00 L 1010.00 270.00 L 1050.00 310.00 L 1081.00 355.00 L 1103.00 405.00 L 1116.00 438.00 L 1120.00 454.00 L 1124.00 481.00 L 1128.00 519.00 L 1129.00 549.00 L 1127.00 571.00 L 1114.00 623.00 L 1090.00 705.00 L 1074.00 753.00 L 1066.00 767.00 L 1067.00 779.00 L 1077.00 789.00 L 1085.00 804.00 L 1091.00 824.00 L 1097.00 865.00 L 1103.00 927.00 L 1104.00 972.00 L 1100.00 1000.00 L 1107.00 1031.00 L 1125.00 1065.00 L 1145.00 1110.00 L 1167.00 1166.00 L 1181.00 1206.00 L 1187.00 1230.00 L 1195.00 1268.00 L 1205.00 1320.00 L 1210.00 1353.00 L 1210.00 1367.00 L 1208.00 1379.00 L 1204.00 1389.00 L 1199.00 1396.00 L 1193.00 1400.00 L 1157.00 1412.00 L 1091.00 1432.00 L 1031.00 1454.00 L 977.00 1478.00 L 935.00 1500.00 L 905.00 1520.00 L 858.00 1548.00 L 794.00 1584.00 L 758.00 1608.00 L 750.00 1620.00 L 730.00 1636.00 L 698.00 1656.00 L 642.00 1687.00 L 562.00 1729.00 L 510.00 1752.00 L 486.00 1756.00 L 462.00 1754.00 L 438.00 1746.00 L 416.00 1729.00 L 396.00 1703.00 L 381.00 1676.00 L 371.00 1648.00 L 365.00 1609.00 L 363.00 1559.00 L 364.00 1523.00 L 368.00 1501.00 L 374.00 1480.00 L 382.00 1460.00 L 385.00 1451.00 L 383.00 1453.00 L 393.00 1428.00 L 415.00 1376.00 L 439.00 1324.00 L 465.00 1272.00 L 479.00 1235.00 L 481.00 1213.00 L 485.00 1196.00 L 491.00 1184.00 L 486.00 1183.00 L 470.00 1193.00 L 471.00 1190.00 L 489.00 1174.00 L 486.00 1176.00 L 462.00 1196.00 L 464.00 1193.00 L 492.00 1167.00 L 490.00 1167.00 L 458.00 1193.00 L 459.00 1191.00 L 493.00 1161.00 L 491.00 1161.00 L 453.00 1191.00 L 454.00 1189.00 L 494.00 1155.00 L 492.00 1154.00 L 448.00 1186.00 L 424.00 1201.00 L 420.00 1199.00 L 425.00 1191.00 L 439.00 1177.00 L 462.00 1158.00 L 494.00 1134.00 L 495.00 1132.00 L 465.00 1152.00 L 462.00 1153.00 L 486.00 1135.00 L 486.00 1133.00 L 462.00 1147.00 L 460.00 1146.00 L 480.00 1130.00 L 487.00 1122.00 L 481.00 1122.00 L 475.00 1120.00 L 469.00 1116.00 L 479.00 1106.00 L 505.00 1090.00 L 504.00 1088.00 L 476.00 1100.00 L 476.00 1098.00 L 504.00 1082.00 L 505.00 1079.00 L 479.00 1089.00 L 478.00 1087.00 L 502.00 1073.00 L 505.00 1069.00 L 487.00 1075.00 L 486.00 1072.00 L 502.00 1060.00 L 504.00 1040.00 L 492.00 1012.00 L 497.00 996.00 L 519.00 992.00 L 521.00 990.00 L 503.00 990.00 L 505.00 989.00 L 527.00 987.00 L 528.00 983.00 L 508.00 977.00 L 496.00 973.00 L 492.00 971.00 L 476.00 962.00 Z" fill="black" stroke="black" stroke-width="1"/>
</svg>