<?xml version="1.0" encoding="UTF-8"?>
<svg xmlns="http://www.w3.org/2000/svg" viewBox="256.00 295.00 972.00 1411.00">
  <path d="M 372.00 926.00 L 368.00 894.00 L 356.00 872.00 L 336.00 860.00 L 324.00 847.00 L 320.00 833.00 L 327.00 825.00 L 345.00 823.00 L 348.00 819.00 L 336.00 813.00 L 338.00 812.00 L 354.00 816.00 L 356.00 814.00 L 344.00 806.00 L 348.00 806.00 L 368.00 814.00 L 370.00 813.00 L 354.00 803.00 L 361.00 803.00 L 391.00 813.00 L 393.00 810.00 L 367.00 794.00 L 364.00 788.00 L 384.00 792.00 L 385.00 789.00 L 367.00 779.00 L 367.00 775.00 L 385.00 777.00 L 387.00 773.00 L 373.00 763.00 L 371.00 761.00 L 381.00 767.00 L 383.00 764.00 L 377.00 752.00 L 379.00 735.00 L 389.00 713.00 L 390.00 672.00 L 382.00 612.00 L 395.00 558.00 L 429.00 510.00 L 476.00 462.00 L 536.00 414.00 L 593.00 380.00 L 647.00 360.00 L 703.00 349.00 L 761.00 347.00 L 795.00 333.00 L 805.00 307.00 L 808.00 308.00 L 804.00 336.00 L 807.00 335.00 L 817.00 305.00 L 819.00 305.00 L 813.00 335.00 L 815.00 336.00 L 825.00 308.00 L 827.00 309.00 L 821.00 339.00 L 823.00 340.00 L 833.00 312.00 L 835.00 313.00 L 829.00 343.00 L 831.00 344.00 L 841.00 316.00 L 844.00 316.00 L 840.00 344.00 L 842.00 345.00 L 850.00 319.00 L 891.00 332.00 L 965.00 384.00 L 1023.00 409.00 L 1065.00 407.00 L 1113.00 427.00 L 1167.00 469.00 L 1201.00 512.00 L 1215.00 556.00 L 1218.00 593.00 L 1210.00 623.00 L 1173.00 657.00 L 1107.00 695.00 L 1106.00 697.00 L 1170.00 663.00 L 1148.00 679.00 L 1040.00 745.00 L 1023.00 760.00 L 1097.00 724.00 L 1085.00 732.00 L 987.00 784.00 L 944.00 807.00 L 956.00 801.00 L 947.00 811.00 L 917.00 837.00 L 896.00 867.00 L 884.00 901.00 L 879.00 932.00 L 881.00 960.00 L 913.00 1042.00 L 975.00 1178.00 L 1011.00 1267.00 L 1021.00 1309.00 L 976.00 1343.00 L 876.00 1369.00 L 797.00 1396.00 L 739.00 1424.00 L 620.00 1503.00 L 440.00 1633.00 L 346.00 1696.00 L 338.00 1692.00 L 396.00 1550.00 L 520.00 1270.00 L 517.00 1268.00 L 387.00 1544.00 L 385.00 1547.00 L 511.00 1277.00 L 507.00 1275.00 L 373.00 1541.00 L 374.00 1536.00 L 510.00 1260.00 L 507.00 1258.00 L 365.00 1530.00 L 359.00 1539.00 L 489.00 1285.00 L 486.00 1282.00 L 350.00 1530.00 L 355.00 1519.00 L 501.00 1249.00 L 497.00 1246.00 L 343.00 1510.00 L 332.00 1527.00 L 464.00 1297.00 L 463.00 1296.00 L 329.00 1524.00 L 328.00 1525.00 L 460.00 1299.00 L 458.00 1295.00 L 322.00 1513.00 L 333.00 1492.00 L 491.00 1232.00 L 490.00 1229.00 L 330.00 1483.00 L 312.00 1511.00 L 436.00 1313.00 L 434.00 1308.00 L 306.00 1496.00 L 323.00 1467.00 L 485.00 1221.00 L 485.00 1219.00 L 323.00 1461.00 L 297.00 1499.00 L 407.00 1333.00 L 406.00 1330.00 L 294.00 1490.00 L 291.00 1492.00 L 397.00 1336.00 L 397.00 1334.00 L 291.00 1486.00 L 287.00 1491.00 L 385.00 1349.00 L 385.00 1347.00 L 287.00 1485.00 L 285.00 1487.00 L 379.00 1353.00 L 379.00 1348.00 L 285.00 1472.00 L 319.00 1423.00 L 481.00 1201.00 L 481.00 1198.00 L 319.00 1414.00 L 275.00 1472.00 L 349.00 1372.00 L 350.00 1369.00 L 278.00 1463.00 L 275.00 1466.00 L 341.00 1378.00 L 341.00 1376.00 L 275.00 1460.00 L 266.00 1469.00 L 314.00 1403.00 L 316.00 1398.00 L 272.00 1454.00 L 270.00 1456.00 L 310.00 1404.00 L 312.00 1401.00 L 276.00 1447.00 L 273.00 1450.00 L 303.00 1410.00 L 305.00 1406.00 L 279.00 1438.00 L 337.00 1363.00 L 479.00 1181.00 L 518.00 1082.00 L 454.00 1066.00 L 410.00 1031.00 L 386.00 977.00 L 374.00 948.00 L 374.00 944.00 L 372.00 926.00 Z" fill="black" stroke="black" stroke-width="1"/>
</svg>