<?xml version="1.0" encoding="UTF-8"?>
<svg xmlns="http://www.w3.org/2000/svg" viewBox="369.00 237.00 914.00 1574.00">
  <path d="M 480.00 1016.00 L 468.00 1004.00 L 461.00 990.00 L 459.00 974.00 L 454.00 964.00 L 446.00 960.00 L 443.00 940.00 L 445.00 904.00 L 438.00 882.00 L 422.00 874.00 L 420.00 872.00 L 432.00 876.00 L 429.00 873.00 L 411.00 863.00 L 397.00 850.00 L 387.00 834.00 L 409.00 795.00 L 463.00 733.00 L 492.00 695.00 L 496.00 681.00 L 495.00 666.00 L 489.00 650.00 L 491.00 627.00 L 501.00 597.00 L 501.00 572.00 L 491.00 552.00 L 492.00 549.00 L 504.00 563.00 L 506.00 561.00 L 498.00 543.00 L 499.00 541.00 L 509.00 555.00 L 511.00 554.00 L 505.00 538.00 L 506.00 533.00 L 514.00 539.00 L 516.00 536.00 L 512.00 524.00 L 513.00 521.00 L 519.00 527.00 L 520.00 526.00 L 516.00 518.00 L 515.00 512.00 L 517.00 508.00 L 520.00 509.00 L 524.00 515.00 L 526.00 511.00 L 526.00 497.00 L 529.00 494.00 L 535.00 502.00 L 535.00 500.00 L 529.00 488.00 L 528.00 485.00 L 532.00 491.00 L 533.00 489.00 L 531.00 479.00 L 533.00 479.00 L 539.00 489.00 L 540.00 484.00 L 536.00 464.00 L 538.00 461.00 L 546.00 475.00 L 547.00 472.00 L 541.00 452.00 L 543.00 450.00 L 553.00 466.00 L 555.00 461.00 L 549.00 435.00 L 552.00 431.00 L 564.00 449.00 L 570.00 454.00 L 570.00 446.00 L 571.00 444.00 L 573.00 448.00 L 571.00 438.00 L 565.00 414.00 L 592.00 378.00 L 652.00 330.00 L 698.00 301.00 L 730.00 291.00 L 755.00 279.00 L 773.00 265.00 L 802.00 256.00 L 842.00 252.00 L 884.00 249.00 L 928.00 247.00 L 974.00 251.00 L 1022.00 261.00 L 1064.00 276.00 L 1100.00 296.00 L 1135.00 320.00 L 1169.00 348.00 L 1201.00 390.00 L 1231.00 446.00 L 1253.00 514.00 L 1267.00 594.00 L 1273.00 656.00 L 1271.00 700.00 L 1263.00 747.00 L 1249.00 797.00 L 1233.00 843.00 L 1215.00 885.00 L 1195.00 910.00 L 1173.00 918.00 L 1172.00 920.00 L 1192.00 916.00 L 1193.00 918.00 L 1175.00 926.00 L 1174.00 928.00 L 1190.00 924.00 L 1192.00 926.00 L 1180.00 934.00 L 1178.00 946.00 L 1186.00 962.00 L 1188.00 974.00 L 1184.00 982.00 L 1183.00 1030.00 L 1185.00 1118.00 L 1181.00 1169.00 L 1171.00 1183.00 L 1167.00 1213.00 L 1169.00 1259.00 L 1173.00 1289.00 L 1179.00 1303.00 L 1181.00 1323.00 L 1179.00 1349.00 L 1185.00 1389.00 L 1199.00 1443.00 L 1204.00 1492.00 L 1200.00 1536.00 L 1144.00 1561.00 L 1036.00 1567.00 L 955.00 1576.00 L 901.00 1588.00 L 858.00 1599.00 L 826.00 1609.00 L 809.00 1617.00 L 807.00 1623.00 L 805.00 1624.00 L 803.00 1620.00 L 801.00 1622.00 L 799.00 1630.00 L 798.00 1630.00 L 798.00 1622.00 L 796.00 1622.00 L 792.00 1630.00 L 790.00 1631.00 L 790.00 1625.00 L 788.00 1627.00 L 784.00 1637.00 L 778.00 1639.00 L 770.00 1633.00 L 751.00 1636.00 L 721.00 1648.00 L 639.00 1690.00 L 505.00 1762.00 L 430.00 1799.00 L 414.00 1801.00 L 400.00 1798.00 L 388.00 1790.00 L 381.00 1783.00 L 379.00 1777.00 L 430.00 1680.00 L 534.00 1492.00 L 533.00 1489.00 L 427.00 1671.00 L 424.00 1674.00 L 524.00 1498.00 L 524.00 1493.00 L 424.00 1659.00 L 427.00 1653.00 L 533.00 1475.00 L 533.00 1473.00 L 427.00 1647.00 L 435.00 1633.00 L 557.00 1431.00 L 558.00 1428.00 L 438.00 1624.00 L 439.00 1622.00 L 561.00 1422.00 L 561.00 1419.00 L 439.00 1613.00 L 430.00 1626.00 L 534.00 1458.00 L 535.00 1455.00 L 433.00 1617.00 L 425.00 1629.00 L 511.00 1491.00 L 511.00 1490.00 L 425.00 1626.00 L 423.00 1628.00 L 505.00 1496.00 L 506.00 1493.00 L 426.00 1619.00 L 445.00 1589.00 L 563.00 1403.00 L 564.00 1400.00 L 448.00 1580.00 L 442.00 1588.00 L 546.00 1424.00 L 548.00 1419.00 L 448.00 1573.00 L 446.00 1576.00 L 542.00 1428.00 L 542.00 1426.00 L 446.00 1570.00 L 418.00 1611.00 L 458.00 1549.00 L 460.00 1545.00 L 424.00 1599.00 L 460.00 1544.00 L 568.00 1380.00 L 569.00 1377.00 L 463.00 1535.00 L 462.00 1533.00 L 566.00 1371.00 L 610.00 1274.00 L 594.00 1242.00 L 570.00 1210.00 L 538.00 1178.00 L 525.00 1154.00 L 531.00 1138.00 L 523.00 1123.00 L 501.00 1109.00 L 487.00 1094.00 L 481.00 1078.00 L 480.00 1061.00 L 484.00 1043.00 L 486.00 1031.00 L 486.00 1025.00 L 480.00 1016.00 Z" fill="black" stroke="black" stroke-width="1"/>
</svg>