<?xml version="1.0" encoding="UTF-8"?>
<svg xmlns="http://www.w3.org/2000/svg" viewBox="323.00 221.00 932.00 1611.00">
  <path d="M 499.00 1031.00 L 485.00 1025.00 L 470.00 1015.00 L 454.00 1001.00 L 445.00 980.00 L 443.00 952.00 L 445.00 932.00 L 451.00 920.00 L 454.00 909.00 L 454.00 899.00 L 447.00 886.00 L 433.00 870.00 L 428.00 859.00 L 432.00 853.00 L 429.00 844.00 L 419.00 832.00 L 419.00 813.00 L 429.00 787.00 L 420.00 763.00 L 392.00 741.00 L 391.00 739.00 L 417.00 757.00 L 415.00 754.00 L 385.00 730.00 L 384.00 728.00 L 412.00 748.00 L 412.00 745.00 L 384.00 719.00 L 370.00 703.00 L 370.00 697.00 L 373.00 689.00 L 379.00 679.00 L 409.00 649.00 L 463.00 599.00 L 491.00 563.00 L 493.00 541.00 L 502.00 514.00 L 518.00 482.00 L 524.00 457.00 L 520.00 439.00 L 522.00 438.00 L 530.00 454.00 L 531.00 453.00 L 525.00 435.00 L 523.00 428.00 L 525.00 432.00 L 526.00 431.00 L 526.00 425.00 L 530.00 429.00 L 538.00 443.00 L 539.00 442.00 L 533.00 426.00 L 535.00 424.00 L 545.00 436.00 L 549.00 431.00 L 547.00 409.00 L 550.00 404.00 L 558.00 416.00 L 559.00 413.00 L 553.00 395.00 L 553.00 391.00 L 559.00 401.00 L 560.00 398.00 L 556.00 382.00 L 559.00 383.00 L 569.00 401.00 L 571.00 399.00 L 565.00 377.00 L 568.00 374.00 L 580.00 390.00 L 583.00 387.00 L 577.00 365.00 L 579.00 362.00 L 589.00 378.00 L 592.00 377.00 L 588.00 359.00 L 587.00 349.00 L 589.00 347.00 L 593.00 354.00 L 599.00 370.00 L 602.00 369.00 L 602.00 351.00 L 604.00 348.00 L 608.00 360.00 L 610.00 359.00 L 610.00 345.00 L 624.00 327.00 L 652.00 305.00 L 675.00 289.00 L 693.00 279.00 L 734.00 263.00 L 798.00 241.00 L 868.00 231.00 L 944.00 233.00 L 1020.00 252.00 L 1096.00 288.00 L 1144.00 316.00 L 1164.00 336.00 L 1183.00 360.00 L 1201.00 388.00 L 1215.00 414.00 L 1225.00 438.00 L 1233.00 470.00 L 1239.00 510.00 L 1242.00 547.00 L 1242.00 581.00 L 1237.00 623.00 L 1227.00 673.00 L 1207.00 728.00 L 1177.00 788.00 L 1152.00 829.00 L 1132.00 851.00 L 1129.00 871.00 L 1143.00 889.00 L 1153.00 906.00 L 1159.00 922.00 L 1166.00 967.00 L 1174.00 1041.00 L 1176.00 1097.00 L 1172.00 1135.00 L 1180.00 1186.00 L 1200.00 1250.00 L 1219.00 1325.00 L 1237.00 1411.00 L 1245.00 1487.00 L 1243.00 1553.00 L 1240.00 1592.00 L 1236.00 1604.00 L 1199.00 1611.00 L 1129.00 1613.00 L 1054.00 1621.00 L 974.00 1635.00 L 924.00 1642.00 L 904.00 1642.00 L 894.00 1644.00 L 894.00 1648.00 L 888.00 1650.00 L 876.00 1650.00 L 866.00 1653.00 L 858.00 1659.00 L 824.00 1670.00 L 764.00 1686.00 L 707.00 1707.00 L 653.00 1733.00 L 620.00 1752.00 L 608.00 1764.00 L 579.00 1780.00 L 533.00 1800.00 L 499.00 1813.00 L 477.00 1819.00 L 457.00 1822.00 L 439.00 1822.00 L 418.00 1816.00 L 394.00 1804.00 L 376.00 1792.00 L 364.00 1780.00 L 354.00 1765.00 L 346.00 1747.00 L 339.00 1714.00 L 333.00 1666.00 L 340.00 1610.00 L 360.00 1546.00 L 387.00 1482.00 L 421.00 1418.00 L 437.00 1387.00 L 435.00 1389.00 L 451.00 1366.00 L 485.00 1318.00 L 503.00 1288.00 L 505.00 1276.00 L 502.00 1271.00 L 494.00 1273.00 L 496.00 1269.00 L 508.00 1259.00 L 505.00 1260.00 L 487.00 1272.00 L 488.00 1269.00 L 508.00 1251.00 L 502.00 1253.00 L 470.00 1275.00 L 473.00 1271.00 L 511.00 1241.00 L 508.00 1241.00 L 464.00 1271.00 L 439.00 1286.00 L 433.00 1286.00 L 438.00 1277.00 L 454.00 1259.00 L 452.00 1256.00 L 432.00 1268.00 L 433.00 1266.00 L 455.00 1250.00 L 469.00 1237.00 L 475.00 1227.00 L 489.00 1215.00 L 511.00 1201.00 L 512.00 1199.00 L 492.00 1209.00 L 491.00 1208.00 L 509.00 1196.00 L 513.00 1189.00 L 503.00 1187.00 L 495.00 1182.00 L 489.00 1174.00 L 487.00 1168.00 L 489.00 1164.00 L 503.00 1156.00 L 529.00 1144.00 L 529.00 1141.00 L 503.00 1147.00 L 499.00 1146.00 L 517.00 1138.00 L 518.00 1135.00 L 502.00 1137.00 L 504.00 1134.00 L 524.00 1126.00 L 526.00 1124.00 L 510.00 1128.00 L 509.00 1127.00 L 523.00 1121.00 L 526.00 1110.00 L 518.00 1094.00 L 508.00 1080.00 L 496.00 1068.00 L 492.00 1058.00 L 496.00 1050.00 L 500.00 1043.00 L 504.00 1037.00 L 499.00 1031.00 Z" fill="black" stroke="black" stroke-width="1"/>
</svg>