<?xml version="1.0" encoding="UTF-8"?>
<svg xmlns="http://www.w3.org/2000/svg" viewBox="337.00 276.00 838.00 1487.00">
  <path d="M 437.00 1009.00 L 427.00 999.00 L 421.00 991.00 L 419.00 985.00 L 418.00 973.00 L 418.00 955.00 L 421.00 940.00 L 427.00 928.00 L 424.00 911.00 L 412.00 889.00 L 407.00 875.00 L 409.00 869.00 L 407.00 861.00 L 401.00 851.00 L 402.00 836.00 L 410.00 816.00 L 402.00 797.00 L 378.00 779.00 L 369.00 771.00 L 375.00 773.00 L 374.00 771.00 L 366.00 765.00 L 375.00 771.00 L 401.00 789.00 L 401.00 787.00 L 375.00 765.00 L 375.00 763.00 L 401.00 781.00 L 401.00 778.00 L 375.00 754.00 L 375.00 723.00 L 401.00 685.00 L 421.00 658.00 L 435.00 642.00 L 444.00 628.00 L 448.00 616.00 L 449.00 602.00 L 447.00 586.00 L 447.00 569.00 L 449.00 551.00 L 458.00 525.00 L 474.00 491.00 L 479.00 467.00 L 473.00 453.00 L 474.00 452.00 L 482.00 464.00 L 483.00 462.00 L 477.00 446.00 L 475.00 440.00 L 477.00 444.00 L 478.00 443.00 L 478.00 437.00 L 481.00 441.00 L 487.00 455.00 L 488.00 454.00 L 484.00 438.00 L 485.00 437.00 L 491.00 451.00 L 493.00 449.00 L 491.00 431.00 L 493.00 428.00 L 499.00 440.00 L 501.00 439.00 L 499.00 425.00 L 500.00 423.00 L 504.00 433.00 L 505.00 432.00 L 503.00 420.00 L 505.00 417.00 L 511.00 423.00 L 515.00 424.00 L 517.00 420.00 L 517.00 414.00 L 515.00 406.00 L 517.00 399.00 L 523.00 393.00 L 556.00 372.00 L 616.00 336.00 L 659.00 313.00 L 685.00 303.00 L 714.00 295.00 L 746.00 289.00 L 784.00 286.00 L 828.00 286.00 L 875.00 290.00 L 925.00 298.00 L 967.00 307.00 L 1001.00 317.00 L 1027.00 326.00 L 1045.00 334.00 L 1060.00 343.00 L 1072.00 353.00 L 1093.00 377.00 L 1123.00 415.00 L 1143.00 448.00 L 1153.00 476.00 L 1160.00 500.00 L 1164.00 520.00 L 1165.00 554.00 L 1163.00 602.00 L 1158.00 638.00 L 1150.00 662.00 L 1132.00 701.00 L 1104.00 755.00 L 1085.00 796.00 L 1075.00 824.00 L 1061.00 847.00 L 1043.00 865.00 L 1039.00 879.00 L 1049.00 889.00 L 1057.00 903.00 L 1063.00 921.00 L 1066.00 954.00 L 1066.00 1002.00 L 1065.00 1037.00 L 1063.00 1059.00 L 1059.00 1081.00 L 1053.00 1103.00 L 1054.00 1123.00 L 1062.00 1141.00 L 1068.00 1161.00 L 1072.00 1183.00 L 1079.00 1203.00 L 1089.00 1221.00 L 1101.00 1251.00 L 1115.00 1293.00 L 1126.00 1333.00 L 1134.00 1371.00 L 1138.00 1407.00 L 1138.00 1441.00 L 1107.00 1466.00 L 1045.00 1482.00 L 968.00 1506.00 L 876.00 1538.00 L 808.00 1565.00 L 764.00 1587.00 L 739.00 1601.00 L 733.00 1607.00 L 706.00 1623.00 L 658.00 1649.00 L 614.00 1675.00 L 574.00 1701.00 L 539.00 1721.00 L 509.00 1735.00 L 485.00 1745.00 L 467.00 1751.00 L 445.00 1753.00 L 419.00 1751.00 L 396.00 1740.00 L 376.00 1720.00 L 361.00 1696.00 L 351.00 1668.00 L 347.00 1634.00 L 349.00 1594.00 L 352.00 1566.00 L 356.00 1550.00 L 357.00 1543.00 L 355.00 1545.00 L 356.00 1536.00 L 360.00 1516.00 L 368.00 1492.00 L 380.00 1464.00 L 385.00 1451.00 L 383.00 1453.00 L 410.00 1402.00 L 466.00 1298.00 L 484.00 1249.00 L 464.00 1255.00 L 449.00 1258.00 L 439.00 1258.00 L 456.00 1239.00 L 500.00 1201.00 L 498.00 1201.00 L 450.00 1239.00 L 448.00 1240.00 L 492.00 1204.00 L 498.00 1198.00 L 466.00 1222.00 L 447.00 1235.00 L 441.00 1237.00 L 443.00 1234.00 L 453.00 1226.00 L 448.00 1229.00 L 428.00 1243.00 L 439.00 1234.00 L 481.00 1202.00 L 482.00 1201.00 L 442.00 1231.00 L 443.00 1229.00 L 485.00 1195.00 L 497.00 1184.00 L 479.00 1196.00 L 476.00 1195.00 L 488.00 1181.00 L 490.00 1171.00 L 482.00 1165.00 L 479.00 1158.00 L 481.00 1150.00 L 493.00 1140.00 L 515.00 1128.00 L 516.00 1127.00 L 496.00 1137.00 L 489.00 1138.00 L 495.00 1130.00 L 503.00 1123.00 L 513.00 1117.00 L 517.00 1109.00 L 515.00 1099.00 L 510.00 1090.00 L 502.00 1082.00 L 497.00 1075.00 L 495.00 1069.00 L 497.00 1062.00 L 503.00 1054.00 L 493.00 1044.00 L 467.00 1032.00 L 451.00 1023.00 L 445.00 1017.00 L 437.00 1009.00 Z" fill="black" stroke="black" stroke-width="1"/>
</svg>