<?xml version="1.0" encoding="UTF-8"?>
<svg xmlns="http://www.w3.org/2000/svg" viewBox="328.00 199.00 886.00 1569.00">
  <path d="M 461.00 948.00 L 467.00 928.00 L 475.00 913.00 L 485.00 903.00 L 486.00 895.00 L 478.00 889.00 L 479.00 887.00 L 489.00 889.00 L 488.00 885.00 L 476.00 875.00 L 464.00 855.00 L 452.00 825.00 L 427.00 786.00 L 389.00 738.00 L 366.00 707.00 L 358.00 693.00 L 350.00 670.00 L 342.00 638.00 L 338.00 607.00 L 338.00 577.00 L 343.00 541.00 L 353.00 499.00 L 363.00 467.00 L 373.00 445.00 L 394.00 412.00 L 426.00 368.00 L 450.00 337.00 L 466.00 319.00 L 496.00 294.00 L 540.00 262.00 L 578.00 239.00 L 610.00 225.00 L 642.00 215.00 L 674.00 209.00 L 728.00 212.00 L 804.00 224.00 L 874.00 244.00 L 938.00 272.00 L 992.00 308.00 L 1036.00 352.00 L 1062.00 381.00 L 1070.00 395.00 L 1071.00 409.00 L 1065.00 423.00 L 1066.00 424.00 L 1074.00 412.00 L 1075.00 414.00 L 1069.00 430.00 L 1070.00 433.00 L 1078.00 423.00 L 1079.00 425.00 L 1073.00 439.00 L 1074.00 442.00 L 1082.00 434.00 L 1083.00 436.00 L 1077.00 448.00 L 1077.00 450.00 L 1083.00 442.00 L 1084.00 444.00 L 1080.00 456.00 L 1081.00 459.00 L 1087.00 453.00 L 1087.00 456.00 L 1081.00 468.00 L 1079.00 476.00 L 1081.00 480.00 L 1085.00 477.00 L 1091.00 467.00 L 1095.00 464.00 L 1097.00 468.00 L 1095.00 476.00 L 1089.00 488.00 L 1090.00 490.00 L 1098.00 482.00 L 1099.00 484.00 L 1093.00 496.00 L 1094.00 498.00 L 1102.00 490.00 L 1103.00 493.00 L 1097.00 507.00 L 1098.00 510.00 L 1106.00 502.00 L 1107.00 503.00 L 1101.00 513.00 L 1100.00 515.00 L 1104.00 509.00 L 1105.00 510.00 L 1103.00 518.00 L 1105.00 532.00 L 1111.00 552.00 L 1112.00 575.00 L 1108.00 601.00 L 1127.00 648.00 L 1169.00 716.00 L 1174.00 760.00 L 1142.00 780.00 L 1142.00 783.00 L 1174.00 769.00 L 1175.00 771.00 L 1145.00 789.00 L 1143.00 792.00 L 1169.00 780.00 L 1170.00 783.00 L 1146.00 801.00 L 1136.00 818.00 L 1140.00 834.00 L 1141.00 847.00 L 1139.00 857.00 L 1134.00 865.00 L 1126.00 871.00 L 1125.00 880.00 L 1131.00 892.00 L 1133.00 901.00 L 1131.00 907.00 L 1122.00 916.00 L 1106.00 928.00 L 1102.00 943.00 L 1110.00 961.00 L 1115.00 978.00 L 1117.00 994.00 L 1116.00 1010.00 L 1112.00 1026.00 L 1103.00 1038.00 L 1089.00 1046.00 L 1065.00 1052.00 L 1031.00 1056.00 L 1021.00 1066.00 L 1035.00 1082.00 L 1034.00 1104.00 L 1018.00 1132.00 L 1018.00 1158.00 L 1034.00 1182.00 L 1033.00 1185.00 L 1015.00 1167.00 L 1015.00 1168.00 L 1033.00 1188.00 L 1032.00 1189.00 L 1012.00 1171.00 L 1009.00 1174.00 L 1023.00 1198.00 L 1023.00 1202.00 L 1009.00 1186.00 L 1007.00 1187.00 L 1017.00 1205.00 L 1017.00 1213.00 L 1007.00 1211.00 L 1000.00 1213.00 L 996.00 1219.00 L 994.00 1225.00 L 994.00 1231.00 L 1022.00 1279.00 L 1078.00 1369.00 L 1097.00 1401.00 L 1079.00 1375.00 L 1080.00 1379.00 L 1100.00 1413.00 L 1097.00 1410.00 L 1071.00 1370.00 L 1073.00 1375.00 L 1103.00 1425.00 L 1086.00 1399.00 L 1022.00 1297.00 L 1033.00 1319.00 L 1119.00 1465.00 L 1127.00 1480.00 L 1057.00 1364.00 L 1059.00 1368.00 L 1133.00 1492.00 L 1131.00 1489.00 L 1053.00 1359.00 L 1056.00 1366.00 L 1140.00 1510.00 L 1138.00 1508.00 L 1050.00 1360.00 L 1052.00 1367.00 L 1144.00 1529.00 L 1142.00 1527.00 L 1046.00 1361.00 L 1048.00 1366.00 L 1148.00 1542.00 L 1144.00 1536.00 L 1036.00 1348.00 L 1036.00 1350.00 L 1144.00 1542.00 L 1200.00 1646.00 L 1204.00 1662.00 L 1151.00 1571.00 L 1041.00 1373.00 L 1042.00 1380.00 L 1154.00 1592.00 L 1152.00 1590.00 L 1036.00 1374.00 L 1035.00 1376.00 L 1149.00 1596.00 L 1204.00 1715.00 L 1200.00 1733.00 L 1194.00 1746.00 L 1186.00 1754.00 L 1177.00 1758.00 L 1167.00 1758.00 L 1154.00 1753.00 L 1138.00 1743.00 L 1088.00 1702.00 L 1004.00 1630.00 L 923.00 1570.00 L 845.00 1522.00 L 765.00 1482.00 L 683.00 1450.00 L 615.00 1427.00 L 561.00 1413.00 L 520.00 1405.00 L 492.00 1403.00 L 461.00 1392.00 L 427.00 1372.00 L 406.00 1357.00 L 398.00 1347.00 L 394.00 1327.00 L 394.00 1297.00 L 404.00 1253.00 L 424.00 1195.00 L 433.00 1150.00 L 431.00 1118.00 L 436.00 1068.00 L 448.00 1000.00 L 455.00 964.00 L 457.00 960.00 L 461.00 948.00 Z" fill="black" stroke="black" stroke-width="1"/>
</svg>