<?xml version="1.0" encoding="UTF-8"?>
<svg xmlns="http://www.w3.org/2000/svg" viewBox="589.00 286.00 786.00 1442.00">
  <path d="M 647.00 960.00 L 649.00 940.00 L 644.00 922.00 L 632.00 906.00 L 627.00 890.00 L 629.00 874.00 L 627.00 862.00 L 621.00 854.00 L 619.00 846.00 L 621.00 838.00 L 624.00 832.00 L 628.00 828.00 L 630.00 823.00 L 630.00 817.00 L 624.00 806.00 L 612.00 790.00 L 606.00 776.00 L 606.00 764.00 L 621.00 743.00 L 651.00 713.00 L 668.00 695.00 L 672.00 689.00 L 674.00 680.00 L 674.00 668.00 L 675.00 663.00 L 677.00 665.00 L 674.00 646.00 L 666.00 606.00 L 662.00 571.00 L 662.00 541.00 L 658.00 516.00 L 650.00 496.00 L 651.00 494.00 L 661.00 510.00 L 662.00 509.00 L 654.00 491.00 L 654.00 487.00 L 662.00 497.00 L 663.00 495.00 L 657.00 481.00 L 658.00 480.00 L 666.00 492.00 L 667.00 490.00 L 661.00 474.00 L 673.00 451.00 L 703.00 421.00 L 726.00 400.00 L 742.00 388.00 L 781.00 368.00 L 843.00 340.00 L 890.00 323.00 L 922.00 317.00 L 945.00 314.00 L 959.00 314.00 L 982.00 309.00 L 1014.00 299.00 L 1048.00 296.00 L 1084.00 300.00 L 1112.00 306.00 L 1132.00 314.00 L 1147.00 318.00 L 1157.00 318.00 L 1172.00 321.00 L 1192.00 327.00 L 1213.00 336.00 L 1235.00 348.00 L 1255.00 361.00 L 1273.00 375.00 L 1292.00 397.00 L 1312.00 427.00 L 1331.00 468.00 L 1349.00 520.00 L 1359.00 562.00 L 1361.00 594.00 L 1363.00 611.00 L 1365.00 613.00 L 1364.00 629.00 L 1360.00 659.00 L 1351.00 690.00 L 1337.00 722.00 L 1317.00 755.00 L 1291.00 789.00 L 1270.00 820.00 L 1254.00 848.00 L 1230.00 874.00 L 1198.00 898.00 L 1166.00 914.00 L 1134.00 922.00 L 1133.00 923.00 L 1163.00 917.00 L 1165.00 917.00 L 1139.00 923.00 L 1138.00 925.00 L 1162.00 923.00 L 1160.00 925.00 L 1132.00 931.00 L 1130.00 933.00 L 1154.00 931.00 L 1153.00 933.00 L 1127.00 939.00 L 1124.00 941.00 L 1144.00 939.00 L 1144.00 942.00 L 1124.00 950.00 L 1114.00 961.00 L 1114.00 975.00 L 1113.00 983.00 L 1111.00 985.00 L 1111.00 995.00 L 1113.00 1013.00 L 1118.00 1029.00 L 1126.00 1043.00 L 1131.00 1059.00 L 1133.00 1077.00 L 1138.00 1094.00 L 1146.00 1110.00 L 1150.00 1124.00 L 1150.00 1136.00 L 1158.00 1160.00 L 1174.00 1196.00 L 1193.00 1245.00 L 1215.00 1307.00 L 1230.00 1355.00 L 1238.00 1389.00 L 1242.00 1411.00 L 1242.00 1421.00 L 1237.00 1429.00 L 1227.00 1435.00 L 1191.00 1449.00 L 1129.00 1471.00 L 1060.00 1502.00 L 984.00 1542.00 L 900.00 1595.00 L 808.00 1661.00 L 749.00 1702.00 L 723.00 1718.00 L 696.00 1712.00 L 668.00 1684.00 L 648.00 1661.00 L 636.00 1643.00 L 624.00 1620.00 L 612.00 1592.00 L 604.00 1569.00 L 600.00 1551.00 L 599.00 1516.00 L 601.00 1464.00 L 608.00 1423.00 L 620.00 1393.00 L 625.00 1379.00 L 623.00 1381.00 L 632.00 1367.00 L 652.00 1337.00 L 657.00 1328.00 L 647.00 1340.00 L 671.00 1303.00 L 729.00 1217.00 L 753.00 1180.00 L 743.00 1192.00 L 758.00 1173.00 L 798.00 1123.00 L 810.00 1107.00 L 794.00 1125.00 L 795.00 1123.00 L 813.00 1101.00 L 822.00 1086.00 L 822.00 1078.00 L 821.00 1067.00 L 819.00 1053.00 L 814.00 1040.00 L 806.00 1028.00 L 774.00 1018.00 L 718.00 1010.00 L 684.00 1003.00 L 672.00 997.00 L 662.00 990.00 L 654.00 982.00 L 649.00 976.00 L 647.00 972.00 L 647.00 960.00 Z" fill="black" stroke="black" stroke-width="1"/>
</svg>