<?xml version="1.0" encoding="UTF-8"?>
<svg xmlns="http://www.w3.org/2000/svg" viewBox="460.00 306.00 827.00 1432.00">
  <path d="M 515.00 961.00 L 517.00 951.00 L 513.00 942.00 L 503.00 934.00 L 497.00 928.00 L 495.00 924.00 L 495.00 917.00 L 497.00 907.00 L 495.00 900.00 L 489.00 896.00 L 483.00 888.00 L 477.00 876.00 L 477.00 867.00 L 483.00 861.00 L 488.00 848.00 L 492.00 828.00 L 488.00 810.00 L 476.00 794.00 L 470.00 783.00 L 470.00 777.00 L 472.00 771.00 L 476.00 765.00 L 491.00 750.00 L 517.00 726.00 L 532.00 709.00 L 536.00 699.00 L 537.00 681.00 L 535.00 655.00 L 526.00 632.00 L 510.00 612.00 L 509.00 610.00 L 523.00 626.00 L 522.00 623.00 L 506.00 601.00 L 506.00 599.00 L 522.00 617.00 L 522.00 614.00 L 506.00 590.00 L 506.00 587.00 L 522.00 605.00 L 522.00 602.00 L 506.00 578.00 L 506.00 575.00 L 522.00 593.00 L 526.00 596.00 L 518.00 584.00 L 518.00 582.00 L 526.00 590.00 L 523.00 583.00 L 509.00 561.00 L 509.00 559.00 L 523.00 577.00 L 527.00 582.00 L 521.00 574.00 L 518.00 568.00 L 518.00 564.00 L 522.00 566.00 L 530.00 574.00 L 527.00 568.00 L 513.00 548.00 L 513.00 546.00 L 527.00 562.00 L 528.00 561.00 L 516.00 543.00 L 516.00 541.00 L 528.00 555.00 L 532.00 557.00 L 528.00 547.00 L 529.00 546.00 L 535.00 554.00 L 532.00 549.00 L 520.00 531.00 L 520.00 530.00 L 532.00 546.00 L 533.00 545.00 L 523.00 527.00 L 523.00 524.00 L 533.00 536.00 L 534.00 534.00 L 526.00 518.00 L 527.00 517.00 L 537.00 531.00 L 538.00 530.00 L 530.00 514.00 L 529.00 510.00 L 535.00 518.00 L 536.00 517.00 L 532.00 507.00 L 534.00 508.00 L 542.00 520.00 L 543.00 518.00 L 537.00 502.00 L 556.00 472.00 L 600.00 428.00 L 637.00 396.00 L 667.00 376.00 L 703.00 360.00 L 745.00 348.00 L 775.00 337.00 L 793.00 327.00 L 847.00 320.00 L 937.00 316.00 L 1000.00 318.00 L 1036.00 326.00 L 1061.00 333.00 L 1075.00 339.00 L 1093.00 349.00 L 1115.00 363.00 L 1147.00 388.00 L 1189.00 424.00 L 1216.00 451.00 L 1228.00 469.00 L 1240.00 491.00 L 1252.00 517.00 L 1263.00 554.00 L 1273.00 602.00 L 1277.00 649.00 L 1275.00 695.00 L 1270.00 729.00 L 1262.00 751.00 L 1251.00 776.00 L 1237.00 804.00 L 1226.00 823.00 L 1218.00 833.00 L 1206.00 844.00 L 1190.00 856.00 L 1169.00 869.00 L 1143.00 883.00 L 1122.00 898.00 L 1106.00 914.00 L 1090.00 927.00 L 1074.00 937.00 L 1059.00 950.00 L 1045.00 966.00 L 1029.00 978.00 L 1011.00 986.00 L 1002.00 1002.00 L 1002.00 1026.00 L 1003.00 1040.00 L 1005.00 1044.00 L 1005.00 1047.00 L 1003.00 1049.00 L 1004.00 1059.00 L 1008.00 1077.00 L 1014.00 1098.00 L 1022.00 1122.00 L 1032.00 1143.00 L 1044.00 1161.00 L 1052.00 1181.00 L 1056.00 1203.00 L 1057.00 1213.00 L 1055.00 1211.00 L 1064.00 1239.00 L 1084.00 1297.00 L 1096.00 1340.00 L 1100.00 1368.00 L 1106.00 1394.00 L 1114.00 1418.00 L 1117.00 1432.00 L 1115.00 1436.00 L 1100.00 1444.00 L 1072.00 1456.00 L 1028.00 1478.00 L 968.00 1510.00 L 916.00 1541.00 L 872.00 1571.00 L 816.00 1612.00 L 748.00 1664.00 L 699.00 1698.00 L 669.00 1714.00 L 645.00 1724.00 L 627.00 1728.00 L 610.00 1728.00 L 594.00 1724.00 L 576.00 1713.00 L 556.00 1695.00 L 542.00 1670.00 L 534.00 1638.00 L 531.00 1601.00 L 533.00 1559.00 L 533.00 1540.00 L 531.00 1544.00 L 532.00 1534.00 L 536.00 1510.00 L 543.00 1486.00 L 553.00 1462.00 L 557.00 1451.00 L 555.00 1453.00 L 569.00 1426.00 L 599.00 1370.00 L 603.00 1362.00 L 581.00 1402.00 L 595.00 1370.00 L 645.00 1266.00 L 665.00 1222.00 L 655.00 1238.00 L 664.00 1223.00 L 692.00 1177.00 L 695.00 1171.00 L 673.00 1205.00 L 673.00 1203.00 L 695.00 1165.00 L 705.00 1131.00 L 703.00 1101.00 L 701.00 1083.00 L 699.00 1077.00 L 695.00 1073.00 L 689.00 1071.00 L 670.00 1069.00 L 638.00 1067.00 L 600.00 1059.00 L 556.00 1045.00 L 531.00 1035.00 L 525.00 1029.00 L 519.00 1019.00 L 513.00 1005.00 L 511.00 992.00 L 513.00 980.00 L 514.00 972.00 L 514.00 968.00 L 515.00 961.00 Z" fill="black" stroke="black" stroke-width="1"/>
</svg>