<?xml version="1.0" encoding="UTF-8"?>
<svg xmlns="http://www.w3.org/2000/svg" viewBox="305.00 133.00 1053.00 1699.00">
  <path d="M 548.00 973.00 L 552.00 971.00 L 541.00 963.00 L 515.00 949.00 L 496.00 935.00 L 484.00 921.00 L 477.00 906.00 L 475.00 890.00 L 476.00 876.00 L 480.00 864.00 L 474.00 847.00 L 458.00 825.00 L 450.00 806.00 L 450.00 790.00 L 447.00 778.00 L 441.00 770.00 L 440.00 754.00 L 444.00 730.00 L 445.00 715.00 L 443.00 709.00 L 431.00 697.00 L 409.00 679.00 L 407.00 676.00 L 425.00 688.00 L 424.00 685.00 L 404.00 667.00 L 394.00 655.00 L 394.00 649.00 L 398.00 639.00 L 406.00 625.00 L 435.00 595.00 L 485.00 549.00 L 510.00 512.00 L 510.00 484.00 L 512.00 465.00 L 516.00 455.00 L 512.00 438.00 L 500.00 414.00 L 500.00 412.00 L 512.00 432.00 L 519.00 440.00 L 521.00 436.00 L 517.00 423.00 L 507.00 401.00 L 505.00 394.00 L 511.00 402.00 L 513.00 400.00 L 511.00 388.00 L 515.00 392.00 L 525.00 412.00 L 527.00 410.00 L 521.00 386.00 L 523.00 382.00 L 533.00 398.00 L 535.00 395.00 L 529.00 373.00 L 531.00 370.00 L 541.00 386.00 L 543.00 384.00 L 537.00 364.00 L 538.00 363.00 L 546.00 381.00 L 548.00 384.00 L 544.00 372.00 L 545.00 370.00 L 551.00 378.00 L 550.00 372.00 L 542.00 352.00 L 541.00 346.00 L 547.00 354.00 L 548.00 352.00 L 544.00 340.00 L 546.00 343.00 L 554.00 361.00 L 556.00 358.00 L 552.00 334.00 L 554.00 331.00 L 562.00 349.00 L 565.00 344.00 L 563.00 316.00 L 566.00 311.00 L 574.00 329.00 L 576.00 327.00 L 572.00 305.00 L 575.00 302.00 L 585.00 318.00 L 587.00 316.00 L 581.00 296.00 L 581.00 284.00 L 587.00 280.00 L 620.00 264.00 L 680.00 236.00 L 721.00 213.00 L 743.00 195.00 L 796.00 175.00 L 880.00 153.00 L 959.00 143.00 L 1033.00 145.00 L 1102.00 160.00 L 1166.00 188.00 L 1205.00 207.00 L 1219.00 217.00 L 1246.00 247.00 L 1286.00 297.00 L 1315.00 344.00 L 1333.00 388.00 L 1344.00 421.00 L 1348.00 443.00 L 1348.00 481.00 L 1344.00 535.00 L 1335.00 582.00 L 1321.00 622.00 L 1299.00 663.00 L 1269.00 705.00 L 1241.00 752.00 L 1215.00 804.00 L 1195.00 834.00 L 1181.00 842.00 L 1179.00 851.00 L 1189.00 861.00 L 1199.00 880.00 L 1209.00 908.00 L 1217.00 957.00 L 1223.00 1027.00 L 1222.00 1082.00 L 1214.00 1122.00 L 1205.00 1146.00 L 1195.00 1154.00 L 1190.00 1160.00 L 1190.00 1164.00 L 1195.00 1185.00 L 1205.00 1223.00 L 1220.00 1264.00 L 1240.00 1308.00 L 1258.00 1357.00 L 1274.00 1411.00 L 1286.00 1480.00 L 1294.00 1564.00 L 1295.00 1608.00 L 1289.00 1612.00 L 1255.00 1613.00 L 1193.00 1611.00 L 1140.00 1612.00 L 1096.00 1616.00 L 1029.00 1627.00 L 939.00 1645.00 L 852.00 1668.00 L 768.00 1696.00 L 707.00 1721.00 L 669.00 1743.00 L 603.00 1771.00 L 509.00 1805.00 L 445.00 1822.00 L 411.00 1822.00 L 381.00 1815.00 L 355.00 1801.00 L 335.00 1777.00 L 321.00 1743.00 L 315.00 1701.00 L 317.00 1651.00 L 326.00 1600.00 L 342.00 1548.00 L 361.00 1500.00 L 383.00 1456.00 L 393.00 1435.00 L 391.00 1437.00 L 416.00 1401.00 L 468.00 1327.00 L 492.00 1292.00 L 488.00 1296.00 L 498.00 1277.00 L 522.00 1235.00 L 519.00 1218.00 L 489.00 1226.00 L 467.00 1229.00 L 453.00 1227.00 L 454.00 1217.00 L 470.00 1199.00 L 467.00 1197.00 L 445.00 1211.00 L 463.00 1198.00 L 521.00 1158.00 L 519.00 1157.00 L 457.00 1195.00 L 452.00 1197.00 L 504.00 1163.00 L 504.00 1160.00 L 452.00 1188.00 L 453.00 1186.00 L 507.00 1154.00 L 505.00 1155.00 L 447.00 1189.00 L 444.00 1188.00 L 496.00 1152.00 L 519.00 1130.00 L 513.00 1122.00 L 511.00 1115.00 L 513.00 1109.00 L 528.00 1099.00 L 556.00 1085.00 L 557.00 1083.00 L 531.00 1093.00 L 527.00 1093.00 L 545.00 1083.00 L 546.00 1081.00 L 530.00 1087.00 L 529.00 1086.00 L 543.00 1078.00 L 544.00 1076.00 L 532.00 1080.00 L 535.00 1078.00 L 553.00 1070.00 L 556.00 1068.00 L 544.00 1072.00 L 543.00 1070.00 L 553.00 1062.00 L 550.00 1044.00 L 534.00 1016.00 L 528.00 997.00 L 532.00 987.00 L 537.00 980.00 L 543.00 976.00 L 548.00 973.00 Z" fill="black" stroke="black" stroke-width="1"/>
</svg>