<?xml version="1.0" encoding="UTF-8"?>
<svg xmlns="http://www.w3.org/2000/svg" viewBox="288.00 261.00 1007.00 1416.00">
  <path d="M 524.00 941.00 L 488.00 931.00 L 487.00 926.00 L 521.00 926.00 L 518.00 923.00 L 478.00 917.00 L 429.00 892.00 L 371.00 848.00 L 329.00 774.00 L 303.00 670.00 L 298.00 572.00 L 314.00 480.00 L 350.00 397.00 L 406.00 323.00 L 447.00 301.00 L 473.00 331.00 L 478.00 327.00 L 462.00 289.00 L 466.00 289.00 L 490.00 327.00 L 493.00 325.00 L 475.00 283.00 L 478.00 281.00 L 502.00 319.00 L 505.00 318.00 L 487.00 278.00 L 490.00 277.00 L 514.00 315.00 L 520.00 314.00 L 508.00 274.00 L 513.00 271.00 L 535.00 305.00 L 541.00 308.00 L 531.00 280.00 L 533.00 279.00 L 547.00 305.00 L 609.00 316.00 L 719.00 312.00 L 816.00 321.00 L 900.00 343.00 L 976.00 375.00 L 1044.00 417.00 L 1079.00 460.00 L 1081.00 504.00 L 1087.00 520.00 L 1097.00 508.00 L 1098.00 510.00 L 1090.00 526.00 L 1092.00 528.00 L 1104.00 516.00 L 1105.00 519.00 L 1095.00 537.00 L 1097.00 539.00 L 1111.00 525.00 L 1112.00 528.00 L 1100.00 548.00 L 1101.00 549.00 L 1115.00 531.00 L 1115.00 533.00 L 1101.00 555.00 L 1102.00 558.00 L 1118.00 542.00 L 1119.00 545.00 L 1105.00 567.00 L 1106.00 570.00 L 1122.00 554.00 L 1122.00 559.00 L 1106.00 585.00 L 1107.00 588.00 L 1125.00 568.00 L 1126.00 571.00 L 1110.00 597.00 L 1111.00 601.00 L 1129.00 583.00 L 1129.00 586.00 L 1111.00 610.00 L 1113.00 613.00 L 1135.00 595.00 L 1135.00 600.00 L 1113.00 628.00 L 1116.00 631.00 L 1144.00 609.00 L 1144.00 613.00 L 1116.00 643.00 L 1117.00 646.00 L 1147.00 622.00 L 1147.00 625.00 L 1117.00 655.00 L 1099.00 691.00 L 1093.00 733.00 L 1112.00 789.00 L 1156.00 859.00 L 1158.00 904.00 L 1118.00 924.00 L 1092.00 982.00 L 1080.00 1078.00 L 1052.00 1135.00 L 1008.00 1153.00 L 1059.00 1263.00 L 1205.00 1465.00 L 1203.00 1465.00 L 1053.00 1263.00 L 1059.00 1274.00 L 1221.00 1498.00 L 1219.00 1497.00 L 1053.00 1271.00 L 1053.00 1274.00 L 1219.00 1506.00 L 1282.00 1597.00 L 1242.00 1547.00 L 1243.00 1552.00 L 1285.00 1612.00 L 1283.00 1611.00 L 1237.00 1549.00 L 1237.00 1553.00 L 1283.00 1623.00 L 1277.00 1620.00 L 1219.00 1544.00 L 1217.00 1547.00 L 1271.00 1629.00 L 1213.00 1542.00 L 1043.00 1286.00 L 1043.00 1289.00 L 1213.00 1551.00 L 1267.00 1637.00 L 1205.00 1547.00 L 1203.00 1551.00 L 1261.00 1649.00 L 1258.00 1648.00 L 1194.00 1548.00 L 1193.00 1550.00 L 1255.00 1654.00 L 1201.00 1569.00 L 1031.00 1295.00 L 1027.00 1300.00 L 1189.00 1584.00 L 1186.00 1583.00 L 1018.00 1297.00 L 1014.00 1299.00 L 1174.00 1589.00 L 1201.00 1643.00 L 1095.00 1461.00 L 1087.00 1460.00 L 1177.00 1640.00 L 1174.00 1638.00 L 1078.00 1454.00 L 1075.00 1453.00 L 1165.00 1635.00 L 1138.00 1583.00 L 994.00 1297.00 L 992.00 1296.00 L 1132.00 1580.00 L 1151.00 1625.00 L 1049.00 1431.00 L 1040.00 1427.00 L 1124.00 1613.00 L 1102.00 1567.00 L 974.00 1289.00 L 972.00 1288.00 L 1096.00 1564.00 L 1111.00 1603.00 L 1017.00 1405.00 L 1008.00 1400.00 L 1084.00 1588.00 L 1067.00 1549.00 L 957.00 1283.00 L 955.00 1282.00 L 1061.00 1546.00 L 1075.00 1583.00 L 997.00 1393.00 L 995.00 1391.00 L 1069.00 1577.00 L 1101.00 1667.00 L 1091.00 1661.00 L 1039.00 1534.00 L 945.00 1286.00 L 943.00 1285.00 L 1033.00 1531.00 L 1033.00 1533.00 L 943.00 1291.00 L 939.00 1288.00 L 1021.00 1524.00 L 1020.00 1527.00 L 936.00 1297.00 L 928.00 1292.00 L 996.00 1512.00 L 996.00 1515.00 L 928.00 1301.00 L 926.00 1300.00 L 990.00 1512.00 L 990.00 1514.00 L 926.00 1306.00 L 923.00 1303.00 L 981.00 1505.00 L 982.00 1511.00 L 926.00 1321.00 L 923.00 1319.00 L 973.00 1505.00 L 973.00 1508.00 L 923.00 1328.00 L 920.00 1325.00 L 964.00 1499.00 L 934.00 1550.00 L 830.00 1478.00 L 702.00 1425.00 L 550.00 1391.00 L 474.00 1330.00 L 474.00 1242.00 L 487.00 1173.00 L 513.00 1123.00 L 530.00 1061.00 L 538.00 987.00 L 542.00 949.00 L 542.00 947.00 L 524.00 941.00 Z" fill="black" stroke="black" stroke-width="1"/>
</svg>