<?xml version="1.0" encoding="UTF-8"?>
<svg xmlns="http://www.w3.org/2000/svg" viewBox="358.00 253.00 889.00 1512.00">
  <path d="M 504.00 1010.00 L 508.00 1010.00 L 495.00 1004.00 L 465.00 992.00 L 445.00 980.00 L 435.00 968.00 L 430.00 955.00 L 430.00 941.00 L 434.00 925.00 L 442.00 907.00 L 441.00 891.00 L 431.00 877.00 L 427.00 866.00 L 429.00 858.00 L 426.00 848.00 L 418.00 836.00 L 417.00 824.00 L 423.00 812.00 L 426.00 801.00 L 426.00 791.00 L 415.00 777.00 L 393.00 759.00 L 390.00 755.00 L 406.00 765.00 L 405.00 763.00 L 387.00 749.00 L 389.00 750.00 L 411.00 766.00 L 409.00 764.00 L 383.00 744.00 L 370.00 729.00 L 370.00 719.00 L 394.00 688.00 L 442.00 636.00 L 467.00 607.00 L 469.00 601.00 L 462.00 584.00 L 446.00 556.00 L 446.00 553.00 L 462.00 575.00 L 462.00 573.00 L 446.00 547.00 L 445.00 544.00 L 459.00 564.00 L 461.00 561.00 L 451.00 535.00 L 451.00 529.00 L 461.00 543.00 L 464.00 546.00 L 460.00 538.00 L 461.00 535.00 L 467.00 537.00 L 466.00 531.00 L 458.00 517.00 L 457.00 513.00 L 463.00 519.00 L 464.00 516.00 L 460.00 504.00 L 462.00 505.00 L 470.00 519.00 L 470.00 516.00 L 462.00 496.00 L 463.00 493.00 L 473.00 507.00 L 474.00 504.00 L 466.00 484.00 L 467.00 480.00 L 477.00 492.00 L 479.00 489.00 L 473.00 471.00 L 474.00 469.00 L 482.00 483.00 L 484.00 481.00 L 480.00 463.00 L 481.00 460.00 L 487.00 472.00 L 488.00 471.00 L 484.00 457.00 L 485.00 455.00 L 491.00 465.00 L 493.00 463.00 L 491.00 449.00 L 494.00 435.00 L 502.00 421.00 L 530.00 391.00 L 578.00 345.00 L 630.00 311.00 L 686.00 289.00 L 738.00 274.00 L 786.00 266.00 L 835.00 263.00 L 885.00 265.00 L 927.00 270.00 L 961.00 278.00 L 999.00 291.00 L 1041.00 309.00 L 1076.00 329.00 L 1104.00 351.00 L 1128.00 374.00 L 1148.00 398.00 L 1164.00 422.00 L 1176.00 446.00 L 1186.00 469.00 L 1194.00 491.00 L 1199.00 520.00 L 1201.00 556.00 L 1201.00 582.00 L 1199.00 598.00 L 1190.00 617.00 L 1174.00 639.00 L 1168.00 649.00 L 1172.00 647.00 L 1171.00 650.00 L 1165.00 658.00 L 1160.00 674.00 L 1156.00 698.00 L 1138.00 732.00 L 1106.00 776.00 L 1085.00 808.00 L 1075.00 828.00 L 1077.00 844.00 L 1091.00 856.00 L 1101.00 870.00 L 1107.00 886.00 L 1116.00 927.00 L 1128.00 993.00 L 1134.00 1037.00 L 1134.00 1059.00 L 1131.00 1078.00 L 1125.00 1094.00 L 1140.00 1148.00 L 1176.00 1240.00 L 1198.00 1310.00 L 1206.00 1358.00 L 1217.00 1401.00 L 1231.00 1439.00 L 1237.00 1460.00 L 1235.00 1464.00 L 1220.00 1467.00 L 1192.00 1469.00 L 1145.00 1477.00 L 1079.00 1491.00 L 1005.00 1511.00 L 923.00 1537.00 L 841.00 1570.00 L 759.00 1610.00 L 698.00 1642.00 L 658.00 1666.00 L 633.00 1683.00 L 623.00 1693.00 L 596.00 1710.00 L 552.00 1734.00 L 515.00 1749.00 L 485.00 1755.00 L 459.00 1755.00 L 437.00 1749.00 L 420.00 1740.00 L 408.00 1728.00 L 395.00 1709.00 L 381.00 1683.00 L 372.00 1651.00 L 368.00 1613.00 L 373.00 1562.00 L 387.00 1498.00 L 393.00 1467.00 L 391.00 1469.00 L 401.00 1448.00 L 423.00 1404.00 L 433.00 1383.00 L 431.00 1385.00 L 447.00 1362.00 L 481.00 1314.00 L 502.00 1275.00 L 510.00 1245.00 L 519.00 1220.00 L 529.00 1200.00 L 518.00 1200.00 L 486.00 1220.00 L 489.00 1215.00 L 527.00 1185.00 L 525.00 1186.00 L 483.00 1218.00 L 480.00 1220.00 L 516.00 1192.00 L 513.00 1192.00 L 471.00 1220.00 L 474.00 1216.00 L 522.00 1180.00 L 519.00 1179.00 L 465.00 1213.00 L 462.00 1213.00 L 510.00 1179.00 L 508.00 1178.00 L 456.00 1210.00 L 445.00 1215.00 L 475.00 1193.00 L 474.00 1191.00 L 442.00 1209.00 L 443.00 1207.00 L 477.00 1185.00 L 496.00 1172.00 L 500.00 1168.00 L 484.00 1177.00 L 448.00 1199.00 L 448.00 1197.00 L 484.00 1171.00 L 497.00 1155.00 L 487.00 1149.00 L 496.00 1137.00 L 524.00 1119.00 L 524.00 1116.00 L 496.00 1128.00 L 492.00 1128.00 L 512.00 1116.00 L 512.00 1114.00 L 492.00 1122.00 L 483.00 1125.00 L 485.00 1123.00 L 497.00 1117.00 L 519.00 1107.00 L 520.00 1105.00 L 500.00 1111.00 L 495.00 1112.00 L 505.00 1108.00 L 507.00 1106.00 L 501.00 1106.00 L 504.00 1102.00 L 516.00 1094.00 L 512.00 1077.00 L 492.00 1051.00 L 489.00 1033.00 L 503.00 1023.00 L 508.00 1016.00 L 504.00 1012.00 L 504.00 1010.00 Z" fill="black" stroke="black" stroke-width="1"/>
</svg>