<?xml version="1.0" encoding="UTF-8"?>
<svg xmlns="http://www.w3.org/2000/svg" viewBox="381.00 212.00 844.00 1424.00">
  <path d="M 530.00 857.00 L 522.00 807.00 L 501.00 772.00 L 467.00 752.00 L 467.00 750.00 L 501.00 766.00 L 500.00 765.00 L 464.00 747.00 L 463.00 745.00 L 497.00 759.00 L 496.00 757.00 L 460.00 739.00 L 459.00 737.00 L 493.00 751.00 L 493.00 748.00 L 459.00 728.00 L 458.00 689.00 L 490.00 631.00 L 498.00 573.00 L 482.00 515.00 L 480.00 494.00 L 492.00 510.00 L 493.00 507.00 L 483.00 485.00 L 484.00 481.00 L 496.00 495.00 L 497.00 493.00 L 487.00 475.00 L 487.00 473.00 L 497.00 487.00 L 498.00 486.00 L 490.00 470.00 L 491.00 467.00 L 501.00 477.00 L 502.00 475.00 L 494.00 461.00 L 495.00 459.00 L 505.00 469.00 L 507.00 466.00 L 501.00 450.00 L 502.00 447.00 L 510.00 457.00 L 518.00 443.00 L 526.00 405.00 L 571.00 356.00 L 653.00 296.00 L 748.00 263.00 L 856.00 257.00 L 914.00 246.00 L 922.00 230.00 L 925.00 231.00 L 923.00 249.00 L 926.00 246.00 L 934.00 222.00 L 936.00 223.00 L 932.00 249.00 L 934.00 249.00 L 942.00 223.00 L 944.00 223.00 L 940.00 249.00 L 942.00 249.00 L 950.00 223.00 L 951.00 223.00 L 945.00 249.00 L 947.00 250.00 L 957.00 226.00 L 976.00 227.00 L 1004.00 253.00 L 1028.00 260.00 L 1048.00 248.00 L 1090.00 288.00 L 1154.00 380.00 L 1194.00 463.00 L 1210.00 537.00 L 1215.00 600.00 L 1209.00 652.00 L 1165.00 699.00 L 1083.00 741.00 L 1081.00 745.00 L 1159.00 711.00 L 1158.00 712.00 L 1078.00 748.00 L 1075.00 751.00 L 1149.00 721.00 L 1147.00 724.00 L 1069.00 760.00 L 1065.00 764.00 L 1135.00 736.00 L 1134.00 738.00 L 1062.00 770.00 L 1056.00 775.00 L 1116.00 753.00 L 1114.00 755.00 L 1050.00 781.00 L 1010.00 808.00 L 994.00 836.00 L 990.00 885.00 L 998.00 955.00 L 1026.00 1068.00 L 1074.00 1224.00 L 1028.00 1334.00 L 888.00 1398.00 L 758.00 1477.00 L 638.00 1571.00 L 578.00 1612.00 L 578.00 1600.00 L 576.00 1601.00 L 572.00 1615.00 L 571.00 1614.00 L 573.00 1598.00 L 569.00 1602.00 L 559.00 1626.00 L 588.00 1509.00 L 656.00 1251.00 L 648.00 1259.00 L 564.00 1533.00 L 563.00 1532.00 L 645.00 1256.00 L 640.00 1261.00 L 548.00 1547.00 L 547.00 1547.00 L 637.00 1261.00 L 630.00 1266.00 L 526.00 1562.00 L 519.00 1575.00 L 609.00 1305.00 L 605.00 1302.00 L 507.00 1566.00 L 512.00 1551.00 L 620.00 1257.00 L 614.00 1252.00 L 494.00 1536.00 L 493.00 1533.00 L 611.00 1243.00 L 607.00 1240.00 L 481.00 1524.00 L 487.00 1507.00 L 625.00 1189.00 L 623.00 1187.00 L 481.00 1501.00 L 481.00 1498.00 L 623.00 1178.00 L 619.00 1173.00 L 469.00 1483.00 L 465.00 1489.00 L 607.00 1191.00 L 603.00 1185.00 L 453.00 1471.00 L 456.00 1464.00 L 612.00 1164.00 L 610.00 1161.00 L 450.00 1455.00 L 450.00 1453.00 L 610.00 1155.00 L 608.00 1152.00 L 444.00 1444.00 L 438.00 1454.00 L 590.00 1182.00 L 590.00 1177.00 L 438.00 1439.00 L 402.00 1499.00 L 482.00 1357.00 L 482.00 1353.00 L 402.00 1487.00 L 399.00 1490.00 L 473.00 1362.00 L 473.00 1360.00 L 399.00 1484.00 L 396.00 1487.00 L 464.00 1369.00 L 464.00 1365.00 L 396.00 1475.00 L 391.00 1481.00 L 449.00 1383.00 L 450.00 1378.00 L 394.00 1466.00 L 391.00 1469.00 L 441.00 1387.00 L 443.00 1382.00 L 397.00 1454.00 L 452.00 1367.00 L 608.00 1121.00 L 613.00 1112.00 L 467.00 1340.00 L 467.00 1337.00 L 613.00 1103.00 L 655.00 973.00 L 593.00 947.00 L 555.00 923.00 L 541.00 901.00 L 534.00 888.00 L 534.00 884.00 L 530.00 857.00 Z" fill="black" stroke="black" stroke-width="1"/>
</svg>