<?xml version="1.0" encoding="UTF-8"?>
<svg xmlns="http://www.w3.org/2000/svg" viewBox="116.00 164.00 1264.00 1653.00">
  <path d="M 426.00 974.00 L 426.00 958.00 L 429.00 941.00 L 435.00 923.00 L 433.00 906.00 L 423.00 890.00 L 419.00 875.00 L 421.00 861.00 L 418.00 849.00 L 410.00 839.00 L 408.00 819.00 L 412.00 789.00 L 404.00 766.00 L 384.00 750.00 L 372.00 735.00 L 368.00 721.00 L 381.00 698.00 L 411.00 666.00 L 431.00 642.00 L 441.00 626.00 L 447.00 597.00 L 449.00 555.00 L 452.00 526.00 L 456.00 510.00 L 463.00 493.00 L 473.00 475.00 L 479.00 467.00 L 481.00 469.00 L 480.00 466.00 L 476.00 458.00 L 481.00 449.00 L 495.00 439.00 L 517.00 415.00 L 547.00 377.00 L 580.00 342.00 L 616.00 310.00 L 654.00 283.00 L 694.00 261.00 L 730.00 245.00 L 762.00 235.00 L 793.00 227.00 L 823.00 221.00 L 852.00 219.00 L 880.00 221.00 L 898.00 208.00 L 906.00 180.00 L 909.00 180.00 L 907.00 208.00 L 910.00 208.00 L 918.00 180.00 L 920.00 180.00 L 916.00 208.00 L 916.00 219.00 L 920.00 213.00 L 922.00 214.00 L 922.00 222.00 L 925.00 211.00 L 931.00 181.00 L 934.00 180.00 L 934.00 208.00 L 937.00 209.00 L 943.00 183.00 L 955.00 174.00 L 973.00 182.00 L 994.00 196.00 L 1018.00 216.00 L 1050.00 234.00 L 1090.00 250.00 L 1122.00 254.00 L 1146.00 246.00 L 1168.00 244.00 L 1188.00 248.00 L 1208.00 255.00 L 1228.00 265.00 L 1260.00 291.00 L 1304.00 333.00 L 1330.00 362.00 L 1338.00 378.00 L 1344.00 398.00 L 1348.00 422.00 L 1355.00 443.00 L 1365.00 461.00 L 1370.00 475.00 L 1370.00 485.00 L 1368.00 502.00 L 1364.00 526.00 L 1347.00 550.00 L 1317.00 574.00 L 1316.00 577.00 L 1344.00 559.00 L 1342.00 562.00 L 1310.00 586.00 L 1308.00 589.00 L 1336.00 571.00 L 1336.00 574.00 L 1308.00 598.00 L 1291.00 623.00 L 1285.00 649.00 L 1278.00 668.00 L 1270.00 680.00 L 1259.00 693.00 L 1245.00 707.00 L 1215.00 729.00 L 1169.00 759.00 L 1168.00 762.00 L 1212.00 738.00 L 1211.00 739.00 L 1165.00 765.00 L 1163.00 768.00 L 1205.00 748.00 L 1203.00 751.00 L 1157.00 777.00 L 1151.00 781.00 L 1185.00 763.00 L 1184.00 765.00 L 1148.00 787.00 L 1129.00 801.00 L 1127.00 807.00 L 1121.00 813.00 L 1111.00 819.00 L 1109.00 821.00 L 1115.00 819.00 L 1110.00 823.00 L 1094.00 833.00 L 1084.00 847.00 L 1080.00 865.00 L 1067.00 880.00 L 1045.00 892.00 L 1043.00 895.00 L 1061.00 889.00 L 1062.00 893.00 L 1046.00 907.00 L 1039.00 920.00 L 1041.00 932.00 L 1048.00 943.00 L 1060.00 953.00 L 1069.00 967.00 L 1075.00 985.00 L 1084.00 999.00 L 1096.00 1009.00 L 1106.00 1025.00 L 1114.00 1047.00 L 1142.00 1095.00 L 1190.00 1169.00 L 1225.00 1238.00 L 1247.00 1302.00 L 1263.00 1356.00 L 1273.00 1400.00 L 1277.00 1424.00 L 1275.00 1428.00 L 1246.00 1434.00 L 1190.00 1442.00 L 1109.00 1460.00 L 1003.00 1488.00 L 889.00 1526.00 L 767.00 1574.00 L 662.00 1618.00 L 574.00 1658.00 L 469.00 1711.00 L 347.00 1777.00 L 279.00 1807.00 L 265.00 1801.00 L 235.00 1777.00 L 189.00 1735.00 L 161.00 1706.00 L 151.00 1690.00 L 141.00 1664.00 L 131.00 1628.00 L 126.00 1597.00 L 126.00 1571.00 L 131.00 1543.00 L 141.00 1513.00 L 151.00 1490.00 L 161.00 1474.00 L 209.00 1430.00 L 295.00 1358.00 L 306.00 1347.00 L 242.00 1397.00 L 221.00 1413.00 L 243.00 1395.00 L 245.00 1393.00 L 227.00 1407.00 L 223.00 1410.00 L 233.00 1402.00 L 234.00 1401.00 L 226.00 1407.00 L 308.00 1341.00 L 480.00 1203.00 L 564.00 1135.00 L 560.00 1137.00 L 565.00 1131.00 L 579.00 1117.00 L 584.00 1102.00 L 580.00 1086.00 L 547.00 1064.00 L 485.00 1036.00 L 448.00 1015.00 L 436.00 1001.00 L 429.00 991.00 L 427.00 985.00 L 426.00 974.00 Z" fill="black" stroke="black" stroke-width="1"/>
</svg>