<?xml version="1.0" encoding="UTF-8"?>
<svg xmlns="http://www.w3.org/2000/svg" viewBox="365.00 281.00 827.00 1378.00">
  <path d="M 498.00 958.00 L 490.00 942.00 L 491.00 922.00 L 501.00 898.00 L 501.00 879.00 L 491.00 865.00 L 487.00 855.00 L 489.00 849.00 L 488.00 842.00 L 484.00 834.00 L 469.00 819.00 L 443.00 797.00 L 444.00 794.00 L 472.00 810.00 L 474.00 811.00 L 450.00 797.00 L 433.00 786.00 L 423.00 778.00 L 425.00 778.00 L 439.00 786.00 L 438.00 784.00 L 422.00 772.00 L 432.00 776.00 L 468.00 796.00 L 468.00 794.00 L 432.00 770.00 L 431.00 768.00 L 465.00 788.00 L 466.00 786.00 L 434.00 762.00 L 427.00 734.00 L 445.00 702.00 L 465.00 674.00 L 487.00 650.00 L 500.00 633.00 L 504.00 623.00 L 505.00 605.00 L 503.00 579.00 L 499.00 559.00 L 493.00 545.00 L 493.00 542.00 L 499.00 550.00 L 500.00 548.00 L 496.00 536.00 L 497.00 535.00 L 503.00 545.00 L 504.00 543.00 L 500.00 529.00 L 500.00 524.00 L 504.00 528.00 L 505.00 525.00 L 503.00 515.00 L 505.00 514.00 L 511.00 522.00 L 512.00 519.00 L 508.00 505.00 L 509.00 503.00 L 515.00 513.00 L 515.00 512.00 L 509.00 500.00 L 506.00 492.00 L 506.00 488.00 L 509.00 491.00 L 515.00 501.00 L 516.00 499.00 L 512.00 485.00 L 513.00 483.00 L 519.00 493.00 L 519.00 490.00 L 513.00 474.00 L 514.00 472.00 L 522.00 484.00 L 524.00 481.00 L 520.00 463.00 L 521.00 460.00 L 527.00 472.00 L 528.00 471.00 L 524.00 457.00 L 525.00 454.00 L 531.00 462.00 L 532.00 460.00 L 528.00 448.00 L 532.00 438.00 L 544.00 430.00 L 562.00 412.00 L 586.00 384.00 L 608.00 363.00 L 628.00 349.00 L 656.00 334.00 L 692.00 318.00 L 728.00 306.00 L 764.00 298.00 L 803.00 293.00 L 845.00 291.00 L 885.00 292.00 L 923.00 296.00 L 958.00 304.00 L 990.00 316.00 L 1021.00 332.00 L 1051.00 352.00 L 1078.00 373.00 L 1102.00 395.00 L 1122.00 419.00 L 1138.00 445.00 L 1150.00 470.00 L 1158.00 494.00 L 1164.00 517.00 L 1168.00 539.00 L 1169.00 569.00 L 1167.00 607.00 L 1161.00 638.00 L 1151.00 662.00 L 1128.00 699.00 L 1092.00 749.00 L 1070.00 784.00 L 1062.00 804.00 L 1053.00 818.00 L 1043.00 826.00 L 1040.00 829.00 L 1044.00 827.00 L 1051.00 829.00 L 1061.00 835.00 L 1071.00 846.00 L 1081.00 862.00 L 1090.00 896.00 L 1098.00 948.00 L 1100.00 987.00 L 1096.00 1013.00 L 1105.00 1045.00 L 1127.00 1083.00 L 1147.00 1130.00 L 1165.00 1186.00 L 1176.00 1227.00 L 1180.00 1253.00 L 1182.00 1293.00 L 1182.00 1347.00 L 1179.00 1386.00 L 1173.00 1410.00 L 1143.00 1423.00 L 1089.00 1425.00 L 1016.00 1436.00 L 924.00 1456.00 L 827.00 1485.00 L 725.00 1523.00 L 624.00 1569.00 L 524.00 1623.00 L 461.00 1649.00 L 435.00 1647.00 L 415.00 1640.00 L 401.00 1628.00 L 390.00 1612.00 L 382.00 1592.00 L 378.00 1574.00 L 378.00 1558.00 L 377.00 1551.00 L 375.00 1553.00 L 379.00 1533.00 L 389.00 1491.00 L 393.00 1471.00 L 391.00 1473.00 L 397.00 1456.00 L 411.00 1420.00 L 417.00 1403.00 L 415.00 1405.00 L 433.00 1375.00 L 471.00 1313.00 L 494.00 1270.00 L 502.00 1246.00 L 505.00 1235.00 L 503.00 1237.00 L 515.00 1220.00 L 541.00 1184.00 L 542.00 1174.00 L 518.00 1190.00 L 495.00 1198.00 L 473.00 1198.00 L 481.00 1183.00 L 519.00 1153.00 L 518.00 1153.00 L 478.00 1183.00 L 477.00 1183.00 L 515.00 1153.00 L 513.00 1152.00 L 471.00 1180.00 L 469.00 1180.00 L 507.00 1152.00 L 512.00 1148.00 L 484.00 1168.00 L 481.00 1169.00 L 503.00 1151.00 L 497.00 1153.00 L 463.00 1175.00 L 466.00 1172.00 L 506.00 1144.00 L 506.00 1142.00 L 466.00 1166.00 L 476.00 1157.00 L 536.00 1115.00 L 554.00 1101.00 L 530.00 1115.00 L 529.00 1113.00 L 551.00 1095.00 L 550.00 1093.00 L 526.00 1107.00 L 514.00 1112.00 L 514.00 1108.00 L 523.00 1101.00 L 541.00 1091.00 L 543.00 1089.00 L 529.00 1095.00 L 531.00 1092.00 L 549.00 1080.00 L 551.00 1077.00 L 537.00 1083.00 L 540.00 1079.00 L 560.00 1065.00 L 566.00 1059.00 L 558.00 1061.00 L 556.00 1060.00 L 560.00 1056.00 L 557.00 1048.00 L 547.00 1036.00 L 542.00 1026.00 L 542.00 1018.00 L 552.00 1010.00 L 572.00 1002.00 L 565.00 992.00 L 531.00 980.00 L 511.00 972.00 L 505.00 968.00 L 498.00 958.00 Z" fill="black" stroke="black" stroke-width="1"/>
</svg>