<?xml version="1.0" encoding="UTF-8"?>
<svg xmlns="http://www.w3.org/2000/svg" viewBox="534.00 348.00 765.00 1382.00">
  <path d="M 597.00 1017.00 L 595.00 999.00 L 598.00 984.00 L 606.00 972.00 L 605.00 959.00 L 595.00 945.00 L 591.00 933.00 L 593.00 923.00 L 591.00 912.00 L 585.00 900.00 L 583.00 881.00 L 585.00 855.00 L 578.00 835.00 L 562.00 821.00 L 561.00 818.00 L 575.00 826.00 L 574.00 824.00 L 558.00 812.00 L 549.00 801.00 L 547.00 791.00 L 567.00 763.00 L 609.00 717.00 L 632.00 680.00 L 636.00 652.00 L 644.00 626.00 L 656.00 602.00 L 659.00 581.00 L 653.00 563.00 L 654.00 561.00 L 662.00 575.00 L 664.00 573.00 L 660.00 555.00 L 662.00 553.00 L 670.00 567.00 L 672.00 569.00 L 668.00 559.00 L 666.00 550.00 L 666.00 542.00 L 670.00 545.00 L 678.00 559.00 L 680.00 557.00 L 676.00 539.00 L 678.00 537.00 L 686.00 551.00 L 687.00 549.00 L 681.00 531.00 L 680.00 526.00 L 684.00 534.00 L 685.00 532.00 L 683.00 520.00 L 686.00 522.00 L 694.00 538.00 L 695.00 536.00 L 689.00 516.00 L 690.00 515.00 L 698.00 533.00 L 699.00 531.00 L 693.00 509.00 L 694.00 507.00 L 702.00 525.00 L 703.00 523.00 L 697.00 501.00 L 698.00 498.00 L 706.00 514.00 L 708.00 511.00 L 704.00 489.00 L 705.00 487.00 L 711.00 505.00 L 715.00 509.00 L 717.00 499.00 L 719.00 496.00 L 721.00 500.00 L 720.00 494.00 L 716.00 478.00 L 717.00 477.00 L 723.00 491.00 L 726.00 489.00 L 726.00 471.00 L 745.00 447.00 L 783.00 417.00 L 815.00 396.00 L 841.00 384.00 L 879.00 372.00 L 929.00 360.00 L 987.00 358.00 L 1053.00 366.00 L 1112.00 385.00 L 1164.00 415.00 L 1197.00 436.00 L 1211.00 448.00 L 1233.00 481.00 L 1263.00 535.00 L 1281.00 579.00 L 1287.00 613.00 L 1289.00 649.00 L 1287.00 687.00 L 1280.00 727.00 L 1268.00 769.00 L 1250.00 812.00 L 1226.00 856.00 L 1195.00 896.00 L 1157.00 932.00 L 1144.00 962.00 L 1156.00 986.00 L 1166.00 1023.00 L 1174.00 1073.00 L 1177.00 1107.00 L 1175.00 1125.00 L 1177.00 1140.00 L 1183.00 1152.00 L 1196.00 1204.00 L 1216.00 1296.00 L 1228.00 1358.00 L 1232.00 1390.00 L 1233.00 1415.00 L 1231.00 1433.00 L 1211.00 1446.00 L 1173.00 1454.00 L 1150.00 1457.00 L 1142.00 1455.00 L 1123.00 1461.00 L 1093.00 1475.00 L 1077.00 1480.00 L 1075.00 1476.00 L 1074.00 1477.00 L 1074.00 1483.00 L 1045.00 1498.00 L 987.00 1522.00 L 921.00 1553.00 L 847.00 1591.00 L 798.00 1618.00 L 774.00 1634.00 L 760.00 1646.00 L 756.00 1654.00 L 754.00 1655.00 L 754.00 1649.00 L 747.00 1654.00 L 733.00 1670.00 L 712.00 1686.00 L 684.00 1702.00 L 658.00 1713.00 L 634.00 1719.00 L 612.00 1720.00 L 592.00 1716.00 L 577.00 1710.00 L 567.00 1702.00 L 557.00 1687.00 L 547.00 1665.00 L 544.00 1629.00 L 548.00 1579.00 L 563.00 1512.00 L 589.00 1428.00 L 623.00 1347.00 L 665.00 1269.00 L 676.00 1240.00 L 656.00 1260.00 L 659.00 1255.00 L 685.00 1225.00 L 683.00 1226.00 L 653.00 1258.00 L 648.00 1263.00 L 668.00 1241.00 L 666.00 1242.00 L 642.00 1266.00 L 643.00 1264.00 L 669.00 1236.00 L 666.00 1236.00 L 634.00 1264.00 L 613.00 1278.00 L 603.00 1278.00 L 605.00 1269.00 L 619.00 1251.00 L 617.00 1250.00 L 599.00 1266.00 L 609.00 1254.00 L 647.00 1214.00 L 663.00 1196.00 L 657.00 1200.00 L 656.00 1200.00 L 660.00 1196.00 L 657.00 1192.00 L 647.00 1188.00 L 641.00 1180.00 L 639.00 1168.00 L 647.00 1156.00 L 665.00 1144.00 L 666.00 1142.00 L 650.00 1150.00 L 650.00 1148.00 L 666.00 1136.00 L 668.00 1133.00 L 656.00 1139.00 L 655.00 1138.00 L 665.00 1130.00 L 661.00 1118.00 L 643.00 1102.00 L 634.00 1091.00 L 634.00 1085.00 L 641.00 1079.00 L 655.00 1073.00 L 656.00 1071.00 L 644.00 1073.00 L 646.00 1072.00 L 662.00 1068.00 L 660.00 1063.00 L 640.00 1057.00 L 623.00 1049.00 L 609.00 1039.00 L 601.00 1032.00 L 599.00 1028.00 L 597.00 1017.00 Z" fill="black" stroke="black" stroke-width="1"/>
</svg>