<?xml version="1.0" encoding="UTF-8"?>
<svg xmlns="http://www.w3.org/2000/svg" viewBox="557.00 304.00 743.00 1348.00">
  <path d="M 628.00 941.00 L 632.00 931.00 L 630.00 915.00 L 622.00 893.00 L 614.00 877.00 L 606.00 867.00 L 604.00 854.00 L 608.00 838.00 L 602.00 821.00 L 586.00 803.00 L 578.00 790.00 L 578.00 782.00 L 588.00 764.00 L 608.00 736.00 L 616.00 705.00 L 612.00 671.00 L 603.00 643.00 L 589.00 621.00 L 589.00 618.00 L 603.00 634.00 L 603.00 633.00 L 589.00 615.00 L 589.00 612.00 L 603.00 624.00 L 604.00 622.00 L 592.00 606.00 L 592.00 603.00 L 604.00 613.00 L 604.00 610.00 L 592.00 594.00 L 592.00 592.00 L 604.00 604.00 L 605.00 603.00 L 595.00 589.00 L 596.00 587.00 L 608.00 597.00 L 609.00 595.00 L 599.00 581.00 L 599.00 579.00 L 609.00 589.00 L 609.00 586.00 L 599.00 570.00 L 599.00 568.00 L 609.00 580.00 L 609.00 578.00 L 599.00 562.00 L 594.00 552.00 L 594.00 548.00 L 600.00 554.00 L 612.00 570.00 L 612.00 568.00 L 600.00 548.00 L 600.00 545.00 L 612.00 559.00 L 613.00 557.00 L 603.00 539.00 L 604.00 538.00 L 616.00 554.00 L 617.00 551.00 L 607.00 529.00 L 608.00 525.00 L 620.00 539.00 L 625.00 543.00 L 623.00 537.00 L 624.00 534.00 L 628.00 534.00 L 626.00 527.00 L 618.00 513.00 L 619.00 512.00 L 629.00 524.00 L 631.00 522.00 L 625.00 506.00 L 640.00 479.00 L 676.00 441.00 L 704.00 416.00 L 724.00 404.00 L 745.00 388.00 L 767.00 368.00 L 808.00 348.00 L 868.00 328.00 L 914.00 319.00 L 946.00 321.00 L 967.00 320.00 L 977.00 316.00 L 991.00 314.00 L 1009.00 314.00 L 1041.00 320.00 L 1087.00 332.00 L 1133.00 352.00 L 1179.00 380.00 L 1216.00 413.00 L 1244.00 451.00 L 1266.00 499.00 L 1282.00 557.00 L 1290.00 597.00 L 1290.00 619.00 L 1285.00 652.00 L 1275.00 696.00 L 1264.00 730.00 L 1252.00 754.00 L 1233.00 782.00 L 1207.00 814.00 L 1180.00 840.00 L 1152.00 860.00 L 1111.00 880.00 L 1057.00 900.00 L 1038.00 909.00 L 1054.00 907.00 L 1053.00 909.00 L 1035.00 915.00 L 1027.00 936.00 L 1029.00 972.00 L 1036.00 994.00 L 1048.00 1002.00 L 1059.00 1018.00 L 1069.00 1042.00 L 1095.00 1066.00 L 1137.00 1090.00 L 1140.00 1093.00 L 1104.00 1075.00 L 1104.00 1078.00 L 1140.00 1102.00 L 1144.00 1106.00 L 1116.00 1090.00 L 1115.00 1091.00 L 1141.00 1109.00 L 1131.00 1123.00 L 1085.00 1133.00 L 1071.00 1148.00 L 1089.00 1168.00 L 1090.00 1170.00 L 1074.00 1154.00 L 1074.00 1156.00 L 1090.00 1176.00 L 1104.00 1201.00 L 1116.00 1231.00 L 1130.00 1285.00 L 1146.00 1363.00 L 1152.00 1406.00 L 1148.00 1414.00 L 1116.00 1425.00 L 1056.00 1439.00 L 995.00 1458.00 L 933.00 1482.00 L 863.00 1514.00 L 785.00 1554.00 L 719.00 1591.00 L 665.00 1625.00 L 632.00 1642.00 L 620.00 1642.00 L 608.00 1639.00 L 596.00 1633.00 L 586.00 1625.00 L 578.00 1615.00 L 572.00 1599.00 L 568.00 1577.00 L 567.00 1541.00 L 569.00 1491.00 L 573.00 1451.00 L 579.00 1421.00 L 593.00 1376.00 L 615.00 1316.00 L 646.00 1258.00 L 686.00 1202.00 L 685.00 1203.00 L 643.00 1261.00 L 644.00 1259.00 L 688.00 1197.00 L 690.00 1193.00 L 650.00 1247.00 L 651.00 1245.00 L 693.00 1187.00 L 699.00 1178.00 L 669.00 1218.00 L 667.00 1219.00 L 693.00 1181.00 L 700.00 1160.00 L 688.00 1156.00 L 688.00 1147.00 L 700.00 1133.00 L 699.00 1132.00 L 685.00 1144.00 L 698.00 1128.00 L 738.00 1084.00 L 737.00 1082.00 L 695.00 1122.00 L 692.00 1124.00 L 728.00 1088.00 L 729.00 1086.00 L 695.00 1118.00 L 697.00 1115.00 L 735.00 1077.00 L 742.00 1069.00 L 718.00 1091.00 L 718.00 1087.00 L 742.00 1057.00 L 752.00 1038.00 L 748.00 1030.00 L 721.00 1017.00 L 671.00 999.00 L 641.00 981.00 L 631.00 963.00 L 626.00 952.00 L 626.00 948.00 L 628.00 941.00 Z" fill="black" stroke="black" stroke-width="1"/>
</svg>