<?xml version="1.0" encoding="UTF-8"?>
<svg xmlns="http://www.w3.org/2000/svg" viewBox="470.00 158.00 853.00 1561.00">
  <path d="M 537.00 828.00 L 527.00 792.00 L 508.00 761.00 L 480.00 735.00 L 489.00 685.00 L 535.00 611.00 L 552.00 550.00 L 540.00 502.00 L 540.00 484.00 L 552.00 496.00 L 551.00 493.00 L 537.00 475.00 L 538.00 473.00 L 554.00 487.00 L 555.00 484.00 L 541.00 464.00 L 541.00 461.00 L 555.00 475.00 L 556.00 473.00 L 544.00 455.00 L 545.00 453.00 L 559.00 467.00 L 561.00 464.00 L 551.00 444.00 L 552.00 441.00 L 564.00 455.00 L 568.00 445.00 L 564.00 411.00 L 567.00 401.00 L 577.00 415.00 L 578.00 414.00 L 570.00 398.00 L 572.00 395.00 L 584.00 405.00 L 587.00 402.00 L 581.00 386.00 L 602.00 357.00 L 650.00 315.00 L 703.00 280.00 L 761.00 252.00 L 817.00 234.00 L 871.00 226.00 L 901.00 216.00 L 907.00 204.00 L 910.00 204.00 L 910.00 216.00 L 918.00 208.00 L 934.00 180.00 L 957.00 168.00 L 987.00 172.00 L 1010.00 185.00 L 1026.00 207.00 L 1042.00 214.00 L 1058.00 206.00 L 1071.00 213.00 L 1081.00 235.00 L 1100.00 246.00 L 1128.00 246.00 L 1156.00 260.00 L 1184.00 288.00 L 1192.00 316.00 L 1180.00 344.00 L 1181.00 346.00 L 1195.00 322.00 L 1198.00 322.00 L 1190.00 346.00 L 1194.00 352.00 L 1210.00 340.00 L 1212.00 347.00 L 1200.00 373.00 L 1203.00 374.00 L 1221.00 350.00 L 1226.00 350.00 L 1218.00 374.00 L 1222.00 378.00 L 1238.00 362.00 L 1237.00 367.00 L 1219.00 393.00 L 1223.00 397.00 L 1249.00 379.00 L 1251.00 385.00 L 1229.00 415.00 L 1231.00 419.00 L 1257.00 397.00 L 1259.00 401.00 L 1237.00 431.00 L 1238.00 432.00 L 1262.00 404.00 L 1263.00 405.00 L 1241.00 435.00 L 1237.00 443.00 L 1251.00 429.00 L 1252.00 431.00 L 1240.00 449.00 L 1241.00 451.00 L 1255.00 437.00 L 1257.00 436.00 L 1247.00 448.00 L 1246.00 450.00 L 1254.00 442.00 L 1256.00 444.00 L 1252.00 456.00 L 1262.00 464.00 L 1286.00 468.00 L 1303.00 493.00 L 1313.00 539.00 L 1312.00 580.00 L 1300.00 616.00 L 1258.00 655.00 L 1186.00 697.00 L 1183.00 701.00 L 1249.00 667.00 L 1248.00 669.00 L 1180.00 707.00 L 1179.00 710.00 L 1245.00 678.00 L 1244.00 680.00 L 1176.00 716.00 L 1170.00 721.00 L 1226.00 695.00 L 1211.00 708.00 L 1125.00 760.00 L 1082.00 795.00 L 1082.00 813.00 L 1137.00 948.00 L 1247.00 1200.00 L 1261.00 1336.00 L 1179.00 1356.00 L 1092.00 1388.00 L 1000.00 1432.00 L 903.00 1490.00 L 801.00 1562.00 L 714.00 1635.00 L 642.00 1709.00 L 653.00 1591.00 L 747.00 1281.00 L 739.00 1278.00 L 629.00 1582.00 L 628.00 1577.00 L 736.00 1263.00 L 731.00 1260.00 L 613.00 1568.00 L 612.00 1565.00 L 728.00 1251.00 L 723.00 1247.00 L 597.00 1553.00 L 597.00 1552.00 L 723.00 1244.00 L 721.00 1242.00 L 591.00 1546.00 L 578.00 1573.00 L 682.00 1323.00 L 678.00 1319.00 L 566.00 1561.00 L 578.00 1531.00 L 714.00 1229.00 L 712.00 1226.00 L 572.00 1522.00 L 571.00 1520.00 L 709.00 1220.00 L 706.00 1215.00 L 562.00 1505.00 L 562.00 1503.00 L 706.00 1209.00 L 704.00 1203.00 L 556.00 1485.00 L 555.00 1484.00 L 701.00 1200.00 L 700.00 1194.00 L 552.00 1466.00 L 511.00 1540.00 L 577.00 1416.00 L 577.00 1412.00 L 511.00 1528.00 L 507.00 1533.00 L 565.00 1427.00 L 565.00 1424.00 L 507.00 1524.00 L 504.00 1527.00 L 556.00 1433.00 L 556.00 1430.00 L 504.00 1518.00 L 499.00 1524.00 L 541.00 1448.00 L 543.00 1442.00 L 505.00 1506.00 L 557.00 1416.00 L 699.00 1172.00 L 700.00 1169.00 L 560.00 1407.00 L 559.00 1404.00 L 697.00 1160.00 L 755.00 1026.00 L 733.00 1002.00 L 688.00 984.00 L 620.00 972.00 L 574.00 940.00 L 550.00 888.00 L 539.00 858.00 L 541.00 850.00 L 537.00 828.00 Z" fill="black" stroke="black" stroke-width="1"/>
</svg>