<?xml version="1.0" encoding="UTF-8"?>
<svg xmlns="http://www.w3.org/2000/svg" viewBox="304.00 231.00 896.00 1581.00">
  <path d="M 479.00 1000.00 L 489.00 996.00 L 482.00 990.00 L 458.00 982.00 L 437.00 968.00 L 419.00 948.00 L 413.00 924.00 L 419.00 896.00 L 418.00 869.00 L 410.00 843.00 L 407.00 823.00 L 409.00 809.00 L 408.00 796.00 L 404.00 784.00 L 388.00 764.00 L 360.00 736.00 L 361.00 733.00 L 391.00 755.00 L 388.00 751.00 L 352.00 721.00 L 352.00 719.00 L 388.00 745.00 L 388.00 740.00 L 352.00 704.00 L 353.00 701.00 L 391.00 731.00 L 392.00 730.00 L 356.00 698.00 L 355.00 696.00 L 389.00 724.00 L 390.00 721.00 L 358.00 687.00 L 364.00 642.00 L 408.00 586.00 L 428.00 535.00 L 424.00 489.00 L 425.00 471.00 L 431.00 481.00 L 432.00 478.00 L 428.00 462.00 L 430.00 458.00 L 438.00 466.00 L 439.00 464.00 L 433.00 452.00 L 434.00 451.00 L 442.00 461.00 L 443.00 458.00 L 437.00 442.00 L 438.00 440.00 L 446.00 452.00 L 447.00 449.00 L 441.00 431.00 L 442.00 429.00 L 450.00 443.00 L 453.00 446.00 L 451.00 438.00 L 452.00 436.00 L 456.00 440.00 L 456.00 430.00 L 452.00 406.00 L 454.00 401.00 L 462.00 415.00 L 464.00 413.00 L 460.00 395.00 L 461.00 392.00 L 467.00 404.00 L 469.00 402.00 L 467.00 386.00 L 469.00 383.00 L 475.00 393.00 L 477.00 391.00 L 475.00 377.00 L 485.00 359.00 L 507.00 337.00 L 535.00 314.00 L 569.00 290.00 L 601.00 272.00 L 631.00 260.00 L 686.00 250.00 L 766.00 242.00 L 824.00 241.00 L 860.00 247.00 L 902.00 261.00 L 950.00 283.00 L 978.00 289.00 L 986.00 279.00 L 988.00 280.00 L 984.00 292.00 L 986.00 290.00 L 994.00 274.00 L 1007.00 270.00 L 1025.00 278.00 L 1041.00 296.00 L 1055.00 324.00 L 1070.00 337.00 L 1086.00 335.00 L 1097.00 352.00 L 1103.00 388.00 L 1115.00 418.00 L 1133.00 442.00 L 1147.00 483.00 L 1157.00 541.00 L 1157.00 621.00 L 1147.00 723.00 L 1136.00 783.00 L 1124.00 801.00 L 1096.00 822.00 L 1052.00 846.00 L 1037.00 856.00 L 1051.00 852.00 L 1052.00 853.00 L 1040.00 859.00 L 1038.00 884.00 L 1046.00 928.00 L 1048.00 979.00 L 1044.00 1037.00 L 1044.00 1076.00 L 1048.00 1096.00 L 1062.00 1121.00 L 1086.00 1151.00 L 1114.00 1209.00 L 1146.00 1295.00 L 1169.00 1369.00 L 1183.00 1431.00 L 1190.00 1479.00 L 1190.00 1513.00 L 1152.00 1534.00 L 1076.00 1542.00 L 975.00 1562.00 L 849.00 1594.00 L 752.00 1624.00 L 684.00 1652.00 L 622.00 1685.00 L 566.00 1723.00 L 508.00 1757.00 L 448.00 1787.00 L 409.00 1802.00 L 391.00 1802.00 L 372.00 1797.00 L 352.00 1787.00 L 334.00 1768.00 L 318.00 1740.00 L 314.00 1687.00 L 322.00 1609.00 L 342.00 1529.00 L 374.00 1447.00 L 416.00 1354.00 L 468.00 1250.00 L 479.00 1211.00 L 449.00 1237.00 L 451.00 1234.00 L 485.00 1202.00 L 481.00 1204.00 L 439.00 1240.00 L 440.00 1238.00 L 484.00 1198.00 L 482.00 1199.00 L 434.00 1241.00 L 423.00 1250.00 L 449.00 1226.00 L 444.00 1228.00 L 408.00 1256.00 L 419.00 1245.00 L 477.00 1195.00 L 474.00 1196.00 L 410.00 1248.00 L 406.00 1250.00 L 462.00 1202.00 L 461.00 1200.00 L 403.00 1244.00 L 386.00 1247.00 L 410.00 1209.00 L 435.00 1180.00 L 461.00 1160.00 L 466.00 1155.00 L 450.00 1165.00 L 448.00 1165.00 L 460.00 1155.00 L 458.00 1144.00 L 442.00 1132.00 L 450.00 1118.00 L 482.00 1102.00 L 482.00 1099.00 L 450.00 1109.00 L 450.00 1107.00 L 482.00 1093.00 L 483.00 1092.00 L 453.00 1104.00 L 452.00 1103.00 L 480.00 1089.00 L 483.00 1086.00 L 461.00 1094.00 L 460.00 1091.00 L 480.00 1077.00 L 483.00 1056.00 L 469.00 1028.00 L 465.00 1011.00 L 471.00 1005.00 L 479.00 1000.00 Z" fill="black" stroke="black" stroke-width="1"/>
</svg>