<?xml version="1.0" encoding="UTF-8"?>
<svg xmlns="http://www.w3.org/2000/svg" viewBox="320.00 300.00 872.00 1478.00">
  <path d="M 439.00 1010.00 L 433.00 998.00 L 425.00 989.00 L 415.00 983.00 L 409.00 977.00 L 407.00 971.00 L 407.00 961.00 L 409.00 947.00 L 406.00 934.00 L 398.00 922.00 L 398.00 904.00 L 406.00 880.00 L 406.00 865.00 L 398.00 859.00 L 397.00 857.00 L 403.00 859.00 L 398.00 856.00 L 382.00 848.00 L 370.00 838.00 L 362.00 826.00 L 374.00 793.00 L 406.00 739.00 L 423.00 707.00 L 425.00 697.00 L 425.00 681.00 L 423.00 659.00 L 424.00 641.00 L 428.00 627.00 L 429.00 617.00 L 427.00 611.00 L 427.00 609.00 L 429.00 611.00 L 427.00 607.00 L 421.00 597.00 L 422.00 588.00 L 430.00 580.00 L 437.00 566.00 L 443.00 546.00 L 453.00 523.00 L 467.00 497.00 L 482.00 475.00 L 498.00 457.00 L 518.00 439.00 L 542.00 421.00 L 568.00 404.00 L 596.00 388.00 L 633.00 373.00 L 679.00 359.00 L 728.00 349.00 L 780.00 343.00 L 820.00 342.00 L 848.00 346.00 L 864.00 340.00 L 868.00 324.00 L 871.00 314.00 L 873.00 310.00 L 873.00 313.00 L 871.00 323.00 L 872.00 322.00 L 876.00 310.00 L 876.00 315.00 L 872.00 337.00 L 874.00 338.00 L 882.00 318.00 L 902.00 311.00 L 934.00 317.00 L 957.00 323.00 L 971.00 329.00 L 989.00 342.00 L 1011.00 362.00 L 1027.00 379.00 L 1037.00 393.00 L 1051.00 405.00 L 1069.00 415.00 L 1087.00 430.00 L 1105.00 450.00 L 1116.00 464.00 L 1120.00 472.00 L 1132.00 484.00 L 1152.00 500.00 L 1167.00 521.00 L 1177.00 547.00 L 1182.00 573.00 L 1182.00 599.00 L 1181.00 613.00 L 1179.00 615.00 L 1179.00 633.00 L 1181.00 667.00 L 1181.00 687.00 L 1179.00 693.00 L 1135.00 728.00 L 1049.00 792.00 L 1049.00 794.00 L 1135.00 734.00 L 1133.00 736.00 L 1043.00 800.00 L 1043.00 802.00 L 1133.00 742.00 L 1133.00 744.00 L 1043.00 808.00 L 1042.00 811.00 L 1130.00 753.00 L 1174.00 725.00 L 1174.00 727.00 L 1129.00 758.00 L 1039.00 818.00 L 1038.00 820.00 L 1126.00 764.00 L 1112.00 774.00 L 996.00 850.00 L 996.00 852.00 L 1112.00 780.00 L 1115.00 779.00 L 1005.00 849.00 L 1004.00 851.00 L 1112.00 785.00 L 1113.00 785.00 L 1007.00 851.00 L 1006.00 853.00 L 1110.00 791.00 L 1106.00 794.00 L 994.00 862.00 L 992.00 865.00 L 1100.00 803.00 L 1133.00 785.00 L 1091.00 811.00 L 1087.00 815.00 L 1121.00 797.00 L 1130.00 793.00 L 1114.00 803.00 L 1110.00 806.00 L 1118.00 802.00 L 1076.00 827.00 L 984.00 881.00 L 936.00 914.00 L 932.00 926.00 L 922.00 939.00 L 906.00 953.00 L 900.00 974.00 L 904.00 1002.00 L 912.00 1021.00 L 924.00 1031.00 L 931.00 1042.00 L 933.00 1054.00 L 942.00 1068.00 L 958.00 1084.00 L 968.00 1104.00 L 972.00 1128.00 L 992.00 1182.00 L 1028.00 1266.00 L 1056.00 1346.00 L 1076.00 1422.00 L 1066.00 1464.00 L 1026.00 1472.00 L 982.00 1483.00 L 934.00 1497.00 L 871.00 1521.00 L 793.00 1555.00 L 708.00 1599.00 L 616.00 1653.00 L 567.00 1684.00 L 561.00 1692.00 L 534.00 1714.00 L 486.00 1750.00 L 459.00 1768.00 L 453.00 1768.00 L 440.00 1764.00 L 420.00 1756.00 L 403.00 1746.00 L 389.00 1734.00 L 373.00 1715.00 L 355.00 1689.00 L 342.00 1666.00 L 334.00 1646.00 L 330.00 1619.00 L 330.00 1585.00 L 332.00 1561.00 L 336.00 1547.00 L 337.00 1541.00 L 335.00 1543.00 L 405.00 1449.00 L 547.00 1259.00 L 548.00 1256.00 L 408.00 1440.00 L 406.00 1442.00 L 542.00 1262.00 L 543.00 1259.00 L 409.00 1433.00 L 412.00 1429.00 L 552.00 1247.00 L 552.00 1246.00 L 412.00 1426.00 L 407.00 1432.00 L 537.00 1264.00 L 538.00 1262.00 L 410.00 1426.00 L 406.00 1431.00 L 526.00 1277.00 L 527.00 1274.00 L 409.00 1422.00 L 406.00 1425.00 L 518.00 1283.00 L 519.00 1281.00 L 409.00 1419.00 L 408.00 1420.00 L 516.00 1284.00 L 517.00 1281.00 L 411.00 1411.00 L 402.00 1421.00 L 490.00 1311.00 L 493.00 1305.00 L 411.00 1403.00 L 401.00 1414.00 L 463.00 1338.00 L 469.00 1330.00 L 419.00 1390.00 L 413.00 1397.00 L 451.00 1351.00 L 452.00 1349.00 L 416.00 1391.00 L 453.00 1345.00 L 563.00 1211.00 L 618.00 1140.00 L 618.00 1132.00 L 614.00 1118.00 L 606.00 1098.00 L 599.00 1086.00 L 593.00 1082.00 L 580.00 1082.00 L 560.00 1086.00 L 541.00 1088.00 L 523.00 1088.00 L 507.00 1086.00 L 493.00 1082.00 L 479.00 1074.00 L 465.00 1062.00 L 455.00 1049.00 L 449.00 1035.00 L 445.00 1025.00 L 443.00 1019.00 L 439.00 1010.00 Z" fill="black" stroke="black" stroke-width="1"/>
</svg>