<?xml version="1.0" encoding="UTF-8"?>
<svg xmlns="http://www.w3.org/2000/svg" viewBox="334.00 254.00 809.00 1535.00">
  <path d="M 443.00 962.00 L 445.00 938.00 L 438.00 899.00 L 422.00 845.00 L 397.00 805.00 L 363.00 779.00 L 352.00 750.00 L 364.00 718.00 L 376.00 701.00 L 388.00 699.00 L 391.00 695.00 L 385.00 689.00 L 391.00 683.00 L 409.00 677.00 L 415.00 667.00 L 409.00 653.00 L 410.00 650.00 L 418.00 658.00 L 419.00 656.00 L 413.00 644.00 L 415.00 623.00 L 425.00 593.00 L 424.00 567.00 L 412.00 545.00 L 413.00 542.00 L 427.00 558.00 L 427.00 552.00 L 413.00 524.00 L 413.00 521.00 L 427.00 543.00 L 427.00 541.00 L 413.00 515.00 L 413.00 513.00 L 427.00 535.00 L 428.00 532.00 L 416.00 504.00 L 417.00 501.00 L 431.00 523.00 L 431.00 520.00 L 417.00 492.00 L 418.00 489.00 L 434.00 511.00 L 438.00 512.00 L 430.00 492.00 L 430.00 489.00 L 438.00 503.00 L 436.00 499.00 L 424.00 477.00 L 425.00 475.00 L 439.00 493.00 L 441.00 491.00 L 431.00 469.00 L 431.00 467.00 L 441.00 485.00 L 443.00 483.00 L 437.00 461.00 L 439.00 455.00 L 449.00 465.00 L 452.00 462.00 L 448.00 446.00 L 465.00 421.00 L 503.00 387.00 L 564.00 350.00 L 648.00 310.00 L 717.00 291.00 L 771.00 293.00 L 805.00 284.00 L 819.00 264.00 L 872.00 277.00 L 964.00 323.00 L 1033.00 378.00 L 1079.00 442.00 L 1110.00 511.00 L 1126.00 585.00 L 1133.00 636.00 L 1131.00 664.00 L 1103.00 701.00 L 1049.00 747.00 L 1047.00 754.00 L 1097.00 722.00 L 1090.00 727.00 L 1026.00 769.00 L 1025.00 771.00 L 1087.00 733.00 L 1085.00 735.00 L 1019.00 777.00 L 1018.00 779.00 L 1082.00 741.00 L 1080.00 743.00 L 1012.00 785.00 L 1010.00 788.00 L 1074.00 752.00 L 1073.00 754.00 L 1007.00 794.00 L 1005.00 797.00 L 1067.00 763.00 L 1061.00 768.00 L 987.00 812.00 L 986.00 814.00 L 1058.00 774.00 L 1054.00 777.00 L 974.00 823.00 L 972.00 825.00 L 1048.00 783.00 L 1046.00 785.00 L 966.00 831.00 L 925.00 867.00 L 923.00 893.00 L 950.00 970.00 L 1006.00 1098.00 L 1049.00 1216.00 L 1079.00 1324.00 L 1058.00 1395.00 L 986.00 1429.00 L 896.00 1481.00 L 788.00 1551.00 L 680.00 1636.00 L 572.00 1736.00 L 495.00 1779.00 L 449.00 1765.00 L 478.00 1607.00 L 582.00 1305.00 L 578.00 1303.00 L 466.00 1601.00 L 466.00 1598.00 L 578.00 1294.00 L 576.00 1293.00 L 460.00 1595.00 L 455.00 1605.00 L 561.00 1323.00 L 557.00 1321.00 L 443.00 1599.00 L 448.00 1586.00 L 572.00 1282.00 L 570.00 1280.00 L 442.00 1580.00 L 442.00 1578.00 L 570.00 1274.00 L 568.00 1272.00 L 436.00 1572.00 L 427.00 1591.00 L 541.00 1329.00 L 539.00 1327.00 L 421.00 1585.00 L 419.00 1587.00 L 533.00 1333.00 L 531.00 1330.00 L 413.00 1578.00 L 424.00 1554.00 L 564.00 1258.00 L 561.00 1255.00 L 415.00 1545.00 L 399.00 1575.00 L 513.00 1345.00 L 512.00 1343.00 L 396.00 1569.00 L 394.00 1571.00 L 506.00 1349.00 L 504.00 1346.00 L 388.00 1562.00 L 405.00 1528.00 L 555.00 1244.00 L 554.00 1242.00 L 402.00 1522.00 L 380.00 1562.00 L 488.00 1362.00 L 487.00 1359.00 L 377.00 1553.00 L 373.00 1558.00 L 475.00 1374.00 L 474.00 1371.00 L 370.00 1549.00 L 396.00 1501.00 L 552.00 1227.00 L 552.00 1221.00 L 396.00 1483.00 L 356.00 1549.00 L 432.00 1419.00 L 432.00 1416.00 L 356.00 1540.00 L 353.00 1543.00 L 423.00 1425.00 L 423.00 1423.00 L 353.00 1537.00 L 350.00 1541.00 L 414.00 1435.00 L 414.00 1433.00 L 350.00 1535.00 L 348.00 1537.00 L 408.00 1439.00 L 409.00 1434.00 L 351.00 1522.00 L 344.00 1530.00 L 388.00 1458.00 L 390.00 1453.00 L 350.00 1515.00 L 349.00 1516.00 L 387.00 1456.00 L 388.00 1452.00 L 352.00 1504.00 L 349.00 1507.00 L 379.00 1461.00 L 382.00 1455.00 L 358.00 1489.00 L 355.00 1492.00 L 373.00 1464.00 L 374.00 1461.00 L 358.00 1483.00 L 419.00 1390.00 L 557.00 1182.00 L 620.00 1070.00 L 608.00 1054.00 L 577.00 1041.00 L 527.00 1031.00 L 488.00 1016.00 L 460.00 996.00 L 445.00 983.00 L 443.00 977.00 L 443.00 962.00 Z" fill="black" stroke="black" stroke-width="1"/>
</svg>