<?xml version="1.0" encoding="UTF-8"?>
<svg xmlns="http://www.w3.org/2000/svg" viewBox="320.00 229.00 945.00 1529.00">
  <path d="M 425.00 945.00 L 423.00 919.00 L 409.00 895.00 L 383.00 873.00 L 382.00 835.00 L 406.00 781.00 L 412.00 732.00 L 400.00 688.00 L 393.00 638.00 L 391.00 582.00 L 411.00 525.00 L 453.00 467.00 L 495.00 419.00 L 537.00 381.00 L 589.00 345.00 L 651.00 311.00 L 710.00 287.00 L 766.00 273.00 L 797.00 261.00 L 803.00 251.00 L 806.00 251.00 L 806.00 261.00 L 807.00 260.00 L 809.00 248.00 L 811.00 248.00 L 813.00 260.00 L 816.00 260.00 L 820.00 248.00 L 839.00 241.00 L 873.00 239.00 L 936.00 261.00 L 1028.00 307.00 L 1106.00 357.00 L 1170.00 411.00 L 1213.00 461.00 L 1235.00 507.00 L 1249.00 549.00 L 1255.00 587.00 L 1186.00 658.00 L 1042.00 762.00 L 1043.00 766.00 L 1189.00 670.00 L 1188.00 673.00 L 1040.00 775.00 L 1040.00 778.00 L 1188.00 682.00 L 1188.00 684.00 L 1040.00 784.00 L 1039.00 791.00 L 1185.00 705.00 L 1192.00 703.00 L 1060.00 785.00 L 1059.00 790.00 L 1189.00 718.00 L 1182.00 723.00 L 1038.00 805.00 L 1037.00 807.00 L 1179.00 729.00 L 1179.00 731.00 L 1037.00 813.00 L 1036.00 818.00 L 1176.00 746.00 L 1191.00 739.00 L 1081.00 797.00 L 1080.00 800.00 L 1188.00 748.00 L 1190.00 748.00 L 1086.00 800.00 L 1085.00 803.00 L 1187.00 757.00 L 1170.00 767.00 L 1034.00 833.00 L 1033.00 835.00 L 1167.00 773.00 L 1168.00 775.00 L 1036.00 841.00 L 1033.00 848.00 L 1159.00 796.00 L 1185.00 788.00 L 1111.00 824.00 L 1105.00 832.00 L 1167.00 812.00 L 1141.00 823.00 L 1027.00 865.00 L 1025.00 867.00 L 1135.00 829.00 L 1135.00 831.00 L 1025.00 873.00 L 1019.00 879.00 L 1117.00 849.00 L 1117.00 852.00 L 1019.00 888.00 L 995.00 956.00 L 1045.00 1056.00 L 1089.00 1161.00 L 1127.00 1271.00 L 1075.00 1353.00 L 933.00 1407.00 L 808.00 1469.00 L 700.00 1539.00 L 588.00 1620.00 L 472.00 1712.00 L 399.00 1748.00 L 369.00 1728.00 L 346.00 1704.00 L 330.00 1676.00 L 400.00 1535.00 L 556.00 1281.00 L 555.00 1279.00 L 397.00 1529.00 L 394.00 1532.00 L 546.00 1288.00 L 544.00 1283.00 L 388.00 1517.00 L 391.00 1511.00 L 553.00 1265.00 L 552.00 1263.00 L 388.00 1505.00 L 380.00 1516.00 L 528.00 1296.00 L 527.00 1293.00 L 377.00 1507.00 L 373.00 1511.00 L 515.00 1305.00 L 515.00 1303.00 L 373.00 1505.00 L 371.00 1507.00 L 509.00 1309.00 L 509.00 1307.00 L 371.00 1501.00 L 368.00 1504.00 L 500.00 1316.00 L 499.00 1314.00 L 365.00 1498.00 L 363.00 1500.00 L 493.00 1320.00 L 494.00 1316.00 L 366.00 1488.00 L 384.00 1463.00 L 548.00 1241.00 L 548.00 1238.00 L 384.00 1454.00 L 359.00 1486.00 L 473.00 1334.00 L 473.00 1332.00 L 359.00 1480.00 L 355.00 1484.00 L 461.00 1344.00 L 462.00 1341.00 L 358.00 1475.00 L 355.00 1478.00 L 453.00 1350.00 L 453.00 1347.00 L 355.00 1469.00 L 352.00 1471.00 L 444.00 1353.00 L 446.00 1348.00 L 358.00 1456.00 L 392.00 1413.00 L 548.00 1219.00 L 549.00 1216.00 L 395.00 1404.00 L 395.00 1402.00 L 549.00 1210.00 L 621.00 1105.00 L 611.00 1087.00 L 594.00 1083.00 L 570.00 1093.00 L 536.00 1096.00 L 492.00 1092.00 L 458.00 1060.00 L 434.00 1000.00 L 423.00 967.00 L 425.00 961.00 L 425.00 945.00 Z" fill="black" stroke="black" stroke-width="1"/>
</svg>