<?xml version="1.0" encoding="UTF-8"?>
<svg xmlns="http://www.w3.org/2000/svg" viewBox="305.00 326.00 835.00 1437.00">
  <path d="M 403.00 982.00 L 405.00 958.00 L 402.00 941.00 L 394.00 931.00 L 388.00 915.00 L 384.00 893.00 L 385.00 873.00 L 391.00 855.00 L 384.00 838.00 L 364.00 822.00 L 352.00 806.00 L 348.00 790.00 L 364.00 761.00 L 400.00 719.00 L 413.00 688.00 L 403.00 668.00 L 404.00 665.00 L 416.00 679.00 L 415.00 677.00 L 401.00 659.00 L 401.00 657.00 L 415.00 671.00 L 415.00 666.00 L 401.00 642.00 L 401.00 639.00 L 415.00 657.00 L 416.00 656.00 L 404.00 636.00 L 405.00 634.00 L 419.00 650.00 L 420.00 648.00 L 408.00 628.00 L 408.00 625.00 L 420.00 639.00 L 421.00 636.00 L 411.00 616.00 L 412.00 611.00 L 424.00 621.00 L 426.00 616.00 L 418.00 596.00 L 420.00 592.00 L 432.00 604.00 L 433.00 601.00 L 423.00 583.00 L 424.00 581.00 L 436.00 595.00 L 437.00 592.00 L 427.00 572.00 L 428.00 570.00 L 440.00 586.00 L 442.00 584.00 L 434.00 564.00 L 435.00 562.00 L 445.00 578.00 L 448.00 575.00 L 444.00 553.00 L 447.00 547.00 L 457.00 557.00 L 459.00 555.00 L 453.00 541.00 L 458.00 522.00 L 474.00 498.00 L 497.00 473.00 L 527.00 447.00 L 568.00 426.00 L 620.00 410.00 L 661.00 402.00 L 691.00 402.00 L 708.00 394.00 L 712.00 378.00 L 714.00 378.00 L 714.00 394.00 L 716.00 389.00 L 720.00 363.00 L 722.00 363.00 L 722.00 389.00 L 725.00 387.00 L 731.00 357.00 L 733.00 357.00 L 731.00 387.00 L 735.00 385.00 L 745.00 351.00 L 769.00 336.00 L 807.00 340.00 L 841.00 351.00 L 871.00 369.00 L 893.00 372.00 L 907.00 360.00 L 925.00 370.00 L 947.00 402.00 L 972.00 427.00 L 1000.00 445.00 L 1034.00 477.00 L 1074.00 523.00 L 1103.00 575.00 L 1121.00 633.00 L 1130.00 674.00 L 1130.00 698.00 L 1123.00 728.00 L 1109.00 764.00 L 1090.00 794.00 L 1066.00 818.00 L 1029.00 843.00 L 979.00 869.00 L 962.00 879.00 L 978.00 873.00 L 971.00 880.00 L 941.00 900.00 L 911.00 916.00 L 881.00 928.00 L 880.00 929.00 L 908.00 919.00 L 910.00 919.00 L 886.00 929.00 L 884.00 931.00 L 904.00 925.00 L 900.00 928.00 L 872.00 940.00 L 860.00 963.00 L 864.00 997.00 L 874.00 1024.00 L 890.00 1044.00 L 928.00 1131.00 L 988.00 1285.00 L 963.00 1390.00 L 853.00 1446.00 L 773.00 1493.00 L 723.00 1531.00 L 669.00 1580.00 L 611.00 1640.00 L 553.00 1692.00 L 495.00 1736.00 L 447.00 1753.00 L 409.00 1743.00 L 377.00 1724.00 L 351.00 1696.00 L 401.00 1556.00 L 527.00 1304.00 L 526.00 1302.00 L 398.00 1550.00 L 332.00 1672.00 L 328.00 1668.00 L 392.00 1541.00 L 524.00 1291.00 L 523.00 1289.00 L 389.00 1535.00 L 389.00 1534.00 L 523.00 1286.00 L 522.00 1284.00 L 386.00 1528.00 L 317.00 1647.00 L 315.00 1641.00 L 376.00 1529.00 L 500.00 1311.00 L 500.00 1307.00 L 376.00 1517.00 L 383.00 1504.00 L 521.00 1268.00 L 520.00 1267.00 L 380.00 1501.00 L 369.00 1519.00 L 487.00 1321.00 L 487.00 1319.00 L 369.00 1513.00 L 367.00 1515.00 L 481.00 1325.00 L 481.00 1322.00 L 367.00 1506.00 L 365.00 1508.00 L 475.00 1328.00 L 475.00 1324.00 L 365.00 1496.00 L 363.00 1498.00 L 469.00 1330.00 L 469.00 1328.00 L 363.00 1492.00 L 380.00 1465.00 L 520.00 1247.00 L 521.00 1242.00 L 383.00 1450.00 L 362.00 1481.00 L 458.00 1335.00 L 459.00 1332.00 L 365.00 1472.00 L 386.00 1440.00 L 522.00 1236.00 L 522.00 1234.00 L 386.00 1434.00 L 360.00 1471.00 L 444.00 1345.00 L 446.00 1340.00 L 366.00 1456.00 L 362.00 1461.00 L 434.00 1355.00 L 436.00 1351.00 L 368.00 1449.00 L 367.00 1450.00 L 433.00 1354.00 L 435.00 1350.00 L 373.00 1438.00 L 367.00 1446.00 L 417.00 1374.00 L 418.00 1372.00 L 370.00 1440.00 L 360.00 1454.00 L 388.00 1414.00 L 390.00 1411.00 L 366.00 1445.00 L 365.00 1446.00 L 387.00 1414.00 L 388.00 1412.00 L 368.00 1440.00 L 365.00 1444.00 L 379.00 1424.00 L 382.00 1419.00 L 374.00 1429.00 L 424.00 1356.00 L 532.00 1200.00 L 582.00 1108.00 L 574.00 1080.00 L 544.00 1063.00 L 492.00 1057.00 L 456.00 1049.00 L 436.00 1039.00 L 421.00 1027.00 L 411.00 1013.00 L 405.00 1003.00 L 403.00 997.00 L 403.00 982.00 Z" fill="black" stroke="black" stroke-width="1"/>
</svg>