<?xml version="1.0" encoding="UTF-8"?>
<svg xmlns="http://www.w3.org/2000/svg" viewBox="248.00 270.00 1100.00 1567.00">
  <path d="M 438.00 991.00 L 422.00 973.00 L 415.00 958.00 L 417.00 946.00 L 414.00 936.00 L 406.00 928.00 L 404.00 914.00 L 408.00 894.00 L 399.00 874.00 L 377.00 854.00 L 367.00 838.00 L 369.00 826.00 L 378.00 811.00 L 394.00 793.00 L 413.00 763.00 L 435.00 721.00 L 446.00 677.00 L 446.00 631.00 L 442.00 603.00 L 434.00 593.00 L 433.00 590.00 L 439.00 594.00 L 439.00 591.00 L 433.00 581.00 L 446.00 551.00 L 478.00 501.00 L 525.00 448.00 L 587.00 392.00 L 637.00 354.00 L 675.00 334.00 L 722.00 318.00 L 778.00 306.00 L 831.00 301.00 L 881.00 303.00 L 926.00 308.00 L 966.00 316.00 L 996.00 324.00 L 1016.00 332.00 L 1035.00 320.00 L 1053.00 288.00 L 1056.00 289.00 L 1044.00 323.00 L 1046.00 320.00 L 1062.00 280.00 L 1064.00 281.00 L 1052.00 323.00 L 1055.00 325.00 L 1073.00 287.00 L 1075.00 288.00 L 1061.00 328.00 L 1063.00 330.00 L 1081.00 294.00 L 1085.00 291.00 L 1075.00 321.00 L 1078.00 322.00 L 1094.00 294.00 L 1110.00 282.00 L 1126.00 286.00 L 1143.00 292.00 L 1161.00 300.00 L 1175.00 309.00 L 1185.00 319.00 L 1197.00 340.00 L 1211.00 372.00 L 1227.00 390.00 L 1245.00 394.00 L 1262.00 403.00 L 1278.00 417.00 L 1299.00 452.00 L 1325.00 508.00 L 1338.00 549.00 L 1338.00 575.00 L 1335.00 597.00 L 1329.00 615.00 L 1325.00 637.00 L 1323.00 663.00 L 1235.00 730.00 L 1061.00 838.00 L 1060.00 841.00 L 1232.00 739.00 L 1317.00 690.00 L 1315.00 694.00 L 1228.00 747.00 L 1056.00 849.00 L 1055.00 852.00 L 1225.00 756.00 L 1239.00 750.00 L 1097.00 834.00 L 1095.00 839.00 L 1233.00 765.00 L 1219.00 773.00 L 1053.00 863.00 L 1052.00 865.00 L 1216.00 779.00 L 1225.00 775.00 L 1079.00 853.00 L 1075.00 857.00 L 1213.00 787.00 L 1204.00 792.00 L 1048.00 872.00 L 1046.00 874.00 L 1198.00 798.00 L 1219.00 788.00 L 1109.00 844.00 L 1108.00 845.00 L 1216.00 791.00 L 1237.00 781.00 L 1171.00 815.00 L 1167.00 818.00 L 1225.00 790.00 L 1232.00 787.00 L 1188.00 809.00 L 1185.00 811.00 L 1223.00 793.00 L 1241.00 787.00 L 1239.00 793.00 L 1223.00 803.00 L 1193.00 817.00 L 1192.00 818.00 L 1220.00 806.00 L 1167.00 831.00 L 1033.00 893.00 L 1031.00 896.00 L 1161.00 840.00 L 1161.00 842.00 L 1031.00 902.00 L 966.00 944.00 L 966.00 968.00 L 971.00 988.00 L 981.00 1004.00 L 986.00 1020.00 L 986.00 1036.00 L 993.00 1051.00 L 1007.00 1065.00 L 1020.00 1097.00 L 1032.00 1147.00 L 1045.00 1186.00 L 1059.00 1214.00 L 1075.00 1254.00 L 1093.00 1306.00 L 1101.00 1331.00 L 1099.00 1329.00 L 1105.00 1360.00 L 1119.00 1424.00 L 1127.00 1471.00 L 1129.00 1501.00 L 1093.00 1524.00 L 1019.00 1540.00 L 919.00 1572.00 L 793.00 1620.00 L 692.00 1667.00 L 616.00 1713.00 L 547.00 1759.00 L 485.00 1805.00 L 448.00 1827.00 L 436.00 1825.00 L 408.00 1811.00 L 364.00 1785.00 L 328.00 1757.00 L 300.00 1727.00 L 282.00 1704.00 L 274.00 1688.00 L 363.00 1557.00 L 549.00 1311.00 L 548.00 1308.00 L 360.00 1548.00 L 361.00 1546.00 L 551.00 1302.00 L 550.00 1299.00 L 358.00 1537.00 L 351.00 1545.00 L 529.00 1323.00 L 529.00 1321.00 L 351.00 1539.00 L 348.00 1542.00 L 520.00 1330.00 L 519.00 1327.00 L 345.00 1533.00 L 343.00 1534.00 L 513.00 1330.00 L 513.00 1327.00 L 343.00 1525.00 L 258.00 1622.00 L 258.00 1618.00 L 336.00 1525.00 L 492.00 1343.00 L 492.00 1341.00 L 336.00 1519.00 L 354.00 1498.00 L 546.00 1278.00 L 547.00 1275.00 L 357.00 1489.00 L 332.00 1516.00 L 472.00 1356.00 L 472.00 1354.00 L 332.00 1510.00 L 330.00 1512.00 L 466.00 1360.00 L 466.00 1359.00 L 330.00 1509.00 L 327.00 1511.00 L 457.00 1365.00 L 458.00 1360.00 L 330.00 1496.00 L 323.00 1502.00 L 437.00 1378.00 L 438.00 1376.00 L 326.00 1496.00 L 324.00 1498.00 L 432.00 1382.00 L 433.00 1379.00 L 327.00 1489.00 L 366.00 1447.00 L 550.00 1253.00 L 551.00 1250.00 L 369.00 1438.00 L 320.00 1488.00 L 404.00 1400.00 L 405.00 1398.00 L 323.00 1482.00 L 316.00 1488.00 L 384.00 1416.00 L 388.00 1410.00 L 328.00 1470.00 L 320.00 1477.00 L 364.00 1431.00 L 373.00 1421.00 L 347.00 1447.00 L 410.00 1381.00 L 562.00 1223.00 L 631.00 1137.00 L 617.00 1123.00 L 576.00 1105.00 L 508.00 1083.00 L 468.00 1065.00 L 456.00 1051.00 L 449.00 1036.00 L 447.00 1020.00 L 446.00 1009.00 L 446.00 1003.00 L 438.00 991.00 Z" fill="black" stroke="black" stroke-width="1"/>
</svg>