<?xml version="1.0" encoding="UTF-8"?>
<svg xmlns="http://www.w3.org/2000/svg" viewBox="420.00 279.00 879.00 1525.00">
  <path d="M 531.00 1010.00 L 517.00 994.00 L 515.00 967.00 L 525.00 929.00 L 521.00 900.00 L 503.00 880.00 L 497.00 865.00 L 503.00 855.00 L 503.00 843.00 L 497.00 829.00 L 497.00 813.00 L 503.00 795.00 L 499.00 778.00 L 485.00 762.00 L 485.00 759.00 L 499.00 769.00 L 497.00 767.00 L 479.00 753.00 L 479.00 752.00 L 497.00 764.00 L 495.00 758.00 L 473.00 734.00 L 464.00 717.00 L 468.00 707.00 L 495.00 679.00 L 545.00 633.00 L 560.00 590.00 L 540.00 550.00 L 541.00 548.00 L 563.00 584.00 L 563.00 581.00 L 541.00 539.00 L 541.00 536.00 L 563.00 572.00 L 565.00 571.00 L 547.00 533.00 L 546.00 527.00 L 562.00 553.00 L 565.00 551.00 L 555.00 521.00 L 555.00 515.00 L 565.00 533.00 L 567.00 535.00 L 561.00 521.00 L 562.00 518.00 L 570.00 526.00 L 571.00 517.00 L 565.00 491.00 L 567.00 488.00 L 577.00 508.00 L 578.00 506.00 L 570.00 482.00 L 571.00 479.00 L 581.00 497.00 L 581.00 494.00 L 571.00 470.00 L 572.00 468.00 L 584.00 488.00 L 586.00 484.00 L 578.00 456.00 L 580.00 452.00 L 592.00 472.00 L 594.00 469.00 L 586.00 443.00 L 587.00 441.00 L 597.00 463.00 L 598.00 462.00 L 590.00 438.00 L 592.00 435.00 L 604.00 453.00 L 607.00 451.00 L 601.00 429.00 L 603.00 426.00 L 613.00 442.00 L 616.00 440.00 L 612.00 420.00 L 613.00 418.00 L 619.00 434.00 L 622.00 433.00 L 622.00 415.00 L 631.00 396.00 L 649.00 376.00 L 695.00 349.00 L 769.00 315.00 L 836.00 298.00 L 896.00 298.00 L 934.00 295.00 L 950.00 289.00 L 995.00 298.00 L 1069.00 322.00 L 1130.00 354.00 L 1178.00 394.00 L 1217.00 443.00 L 1247.00 501.00 L 1264.00 556.00 L 1268.00 608.00 L 1265.00 656.00 L 1255.00 700.00 L 1238.00 744.00 L 1214.00 788.00 L 1202.00 825.00 L 1202.00 855.00 L 1191.00 877.00 L 1169.00 891.00 L 1170.00 894.00 L 1194.00 886.00 L 1194.00 888.00 L 1170.00 900.00 L 1170.00 903.00 L 1194.00 897.00 L 1197.00 897.00 L 1179.00 903.00 L 1178.00 906.00 L 1194.00 906.00 L 1193.00 909.00 L 1175.00 915.00 L 1174.00 917.00 L 1190.00 915.00 L 1191.00 918.00 L 1177.00 926.00 L 1172.00 965.00 L 1176.00 1035.00 L 1175.00 1078.00 L 1169.00 1094.00 L 1191.00 1172.00 L 1241.00 1312.00 L 1272.00 1405.00 L 1284.00 1451.00 L 1289.00 1486.00 L 1287.00 1510.00 L 1228.00 1525.00 L 1112.00 1531.00 L 1019.00 1543.00 L 949.00 1561.00 L 892.00 1579.00 L 848.00 1597.00 L 754.00 1653.00 L 610.00 1747.00 L 528.00 1794.00 L 508.00 1794.00 L 490.00 1790.00 L 474.00 1782.00 L 457.00 1761.00 L 439.00 1727.00 L 430.00 1691.00 L 430.00 1653.00 L 436.00 1606.00 L 448.00 1550.00 L 472.00 1477.00 L 508.00 1387.00 L 547.00 1307.00 L 589.00 1237.00 L 601.00 1209.00 L 583.00 1223.00 L 584.00 1221.00 L 604.00 1203.00 L 601.00 1204.00 L 575.00 1224.00 L 576.00 1221.00 L 604.00 1195.00 L 599.00 1195.00 L 561.00 1221.00 L 562.00 1218.00 L 602.00 1186.00 L 599.00 1183.00 L 553.00 1209.00 L 552.00 1205.00 L 596.00 1171.00 L 608.00 1160.00 L 588.00 1172.00 L 586.00 1172.00 L 602.00 1160.00 L 602.00 1155.00 L 586.00 1157.00 L 574.00 1155.00 L 566.00 1149.00 L 574.00 1139.00 L 598.00 1125.00 L 599.00 1122.00 L 577.00 1130.00 L 575.00 1128.00 L 593.00 1116.00 L 596.00 1111.00 L 584.00 1113.00 L 582.00 1110.00 L 590.00 1102.00 L 583.00 1090.00 L 561.00 1074.00 L 556.00 1059.00 L 568.00 1045.00 L 568.00 1034.00 L 556.00 1026.00 L 547.00 1021.00 L 541.00 1019.00 L 531.00 1010.00 Z" fill="black" stroke="black" stroke-width="1"/>
</svg>