<?xml version="1.0" encoding="UTF-8"?>
<svg xmlns="http://www.w3.org/2000/svg" viewBox="287.00 185.00 1016.00 1496.00">
  <path d="M 396.00 839.00 L 336.00 713.00 L 303.00 628.00 L 297.00 584.00 L 309.00 518.00 L 339.00 430.00 L 373.00 362.00 L 411.00 314.00 L 477.00 267.00 L 571.00 221.00 L 663.00 197.00 L 753.00 195.00 L 852.00 207.00 L 960.00 233.00 L 1036.00 263.00 L 1080.00 297.00 L 1105.00 318.00 L 1111.00 326.00 L 1110.00 342.00 L 1102.00 366.00 L 1104.00 369.00 L 1116.00 351.00 L 1118.00 354.00 L 1110.00 378.00 L 1111.00 381.00 L 1121.00 363.00 L 1123.00 366.00 L 1117.00 390.00 L 1119.00 392.00 L 1129.00 372.00 L 1130.00 374.00 L 1122.00 398.00 L 1125.00 400.00 L 1139.00 380.00 L 1141.00 384.00 L 1131.00 412.00 L 1133.00 414.00 L 1147.00 390.00 L 1148.00 392.00 L 1136.00 420.00 L 1139.00 423.00 L 1157.00 401.00 L 1158.00 404.00 L 1142.00 432.00 L 1143.00 433.00 L 1161.00 407.00 L 1163.00 409.00 L 1149.00 439.00 L 1150.00 442.00 L 1166.00 418.00 L 1167.00 420.00 L 1153.00 448.00 L 1154.00 450.00 L 1170.00 426.00 L 1172.00 431.00 L 1160.00 465.00 L 1164.00 473.00 L 1184.00 455.00 L 1186.00 458.00 L 1170.00 482.00 L 1172.00 484.00 L 1192.00 464.00 L 1194.00 467.00 L 1178.00 493.00 L 1179.00 495.00 L 1197.00 473.00 L 1198.00 475.00 L 1182.00 501.00 L 1183.00 504.00 L 1201.00 484.00 L 1203.00 486.00 L 1189.00 510.00 L 1189.00 514.00 L 1203.00 498.00 L 1204.00 501.00 L 1192.00 523.00 L 1193.00 526.00 L 1207.00 510.00 L 1209.00 517.00 L 1199.00 547.00 L 1202.00 554.00 L 1218.00 538.00 L 1218.00 541.00 L 1202.00 563.00 L 1203.00 566.00 L 1221.00 550.00 L 1219.00 555.00 L 1197.00 581.00 L 1198.00 584.00 L 1222.00 564.00 L 1221.00 567.00 L 1195.00 593.00 L 1195.00 595.00 L 1221.00 573.00 L 1221.00 579.00 L 1195.00 613.00 L 1198.00 621.00 L 1230.00 603.00 L 1232.00 606.00 L 1204.00 630.00 L 1204.00 633.00 L 1232.00 615.00 L 1234.00 618.00 L 1210.00 642.00 L 1222.00 679.00 L 1270.00 729.00 L 1293.00 762.00 L 1291.00 778.00 L 1275.00 795.00 L 1245.00 813.00 L 1233.00 838.00 L 1239.00 870.00 L 1231.00 907.00 L 1209.00 949.00 L 1203.00 986.00 L 1213.00 1018.00 L 1215.00 1042.00 L 1209.00 1058.00 L 1176.00 1081.00 L 1116.00 1111.00 L 1089.00 1131.00 L 1095.00 1141.00 L 1094.00 1143.00 L 1086.00 1137.00 L 1086.00 1141.00 L 1094.00 1155.00 L 1092.00 1167.00 L 1080.00 1177.00 L 1093.00 1215.00 L 1131.00 1281.00 L 1128.00 1283.00 L 1084.00 1221.00 L 1082.00 1223.00 L 1122.00 1289.00 L 1119.00 1291.00 L 1073.00 1229.00 L 1067.00 1227.00 L 1101.00 1285.00 L 1100.00 1288.00 L 1064.00 1236.00 L 1059.00 1234.00 L 1085.00 1282.00 L 1088.00 1291.00 L 1068.00 1261.00 L 1065.00 1259.00 L 1079.00 1285.00 L 1077.00 1286.00 L 1059.00 1262.00 L 1053.00 1259.00 L 1059.00 1277.00 L 1055.00 1278.00 L 1041.00 1262.00 L 1072.00 1338.00 L 1148.00 1506.00 L 1146.00 1506.00 L 1066.00 1338.00 L 1066.00 1341.00 L 1146.00 1515.00 L 1187.00 1605.00 L 1189.00 1611.00 L 1155.00 1539.00 L 1085.00 1389.00 L 1086.00 1392.00 L 1158.00 1548.00 L 1157.00 1547.00 L 1083.00 1389.00 L 1083.00 1392.00 L 1157.00 1556.00 L 1153.00 1549.00 L 1071.00 1371.00 L 1071.00 1374.00 L 1153.00 1558.00 L 1194.00 1657.00 L 1194.00 1671.00 L 1152.00 1581.00 L 1068.00 1387.00 L 1066.00 1392.00 L 1146.00 1596.00 L 1090.00 1651.00 L 898.00 1557.00 L 752.00 1496.00 L 652.00 1468.00 L 565.00 1450.00 L 491.00 1442.00 L 448.00 1433.00 L 436.00 1423.00 L 427.00 1395.00 L 421.00 1349.00 L 423.00 1299.00 L 433.00 1245.00 L 434.00 1207.00 L 426.00 1185.00 L 430.00 1142.00 L 446.00 1078.00 L 464.00 1029.00 L 484.00 995.00 L 486.00 977.00 L 470.00 975.00 L 470.00 972.00 L 486.00 968.00 L 483.00 965.00 L 461.00 963.00 L 460.00 960.00 L 480.00 956.00 L 478.00 954.00 L 454.00 954.00 L 439.00 945.00 L 433.00 927.00 L 429.00 914.00 L 427.00 906.00 L 396.00 839.00 Z" fill="black" stroke="black" stroke-width="1"/>
</svg>