<?xml version="1.0" encoding="UTF-8"?>
<svg xmlns="http://www.w3.org/2000/svg" viewBox="269.00 322.00 946.00 1459.00">
  <path d="M 470.00 1017.00 L 462.00 1003.00 L 462.00 983.00 L 470.00 957.00 L 470.00 935.00 L 462.00 917.00 L 460.00 902.00 L 464.00 890.00 L 464.00 880.00 L 460.00 872.00 L 460.00 859.00 L 464.00 841.00 L 451.00 820.00 L 421.00 796.00 L 421.00 794.00 L 451.00 814.00 L 450.00 812.00 L 418.00 788.00 L 416.00 786.00 L 444.00 806.00 L 445.00 803.00 L 419.00 777.00 L 422.00 745.00 L 454.00 707.00 L 474.00 678.00 L 482.00 658.00 L 482.00 635.00 L 474.00 609.00 L 474.00 602.00 L 482.00 614.00 L 482.00 612.00 L 474.00 596.00 L 474.00 594.00 L 482.00 606.00 L 483.00 600.00 L 477.00 576.00 L 480.00 544.00 L 492.00 504.00 L 504.00 476.00 L 516.00 460.00 L 542.00 435.00 L 582.00 401.00 L 616.00 377.00 L 644.00 363.00 L 676.00 351.00 L 712.00 341.00 L 763.00 336.00 L 829.00 336.00 L 888.00 343.00 L 940.00 357.00 L 971.00 357.00 L 981.00 343.00 L 984.00 344.00 L 980.00 360.00 L 982.00 359.00 L 990.00 341.00 L 999.00 332.00 L 1009.00 332.00 L 1021.00 336.00 L 1035.00 344.00 L 1048.00 357.00 L 1060.00 375.00 L 1076.00 384.00 L 1096.00 384.00 L 1110.00 397.00 L 1118.00 423.00 L 1127.00 443.00 L 1137.00 457.00 L 1154.00 493.00 L 1178.00 551.00 L 1194.00 603.00 L 1202.00 649.00 L 1205.00 679.00 L 1203.00 693.00 L 1193.00 721.00 L 1175.00 763.00 L 1140.00 807.00 L 1088.00 853.00 L 1048.00 883.00 L 1020.00 897.00 L 1018.00 899.00 L 1042.00 889.00 L 1040.00 891.00 L 1012.00 905.00 L 997.00 918.00 L 995.00 930.00 L 994.00 953.00 L 994.00 987.00 L 998.00 1012.00 L 1006.00 1028.00 L 1009.00 1039.00 L 1007.00 1045.00 L 1009.00 1054.00 L 1015.00 1066.00 L 1018.00 1082.00 L 1018.00 1102.00 L 1028.00 1138.00 L 1048.00 1190.00 L 1060.00 1235.00 L 1064.00 1273.00 L 1076.00 1326.00 L 1096.00 1394.00 L 1102.00 1431.00 L 1094.00 1437.00 L 1058.00 1444.00 L 994.00 1452.00 L 928.00 1467.00 L 860.00 1489.00 L 794.00 1517.00 L 730.00 1551.00 L 623.00 1620.00 L 473.00 1724.00 L 390.00 1771.00 L 374.00 1761.00 L 358.00 1747.00 L 342.00 1729.00 L 410.00 1588.00 L 562.00 1324.00 L 560.00 1322.00 L 404.00 1582.00 L 405.00 1580.00 L 563.00 1316.00 L 562.00 1315.00 L 402.00 1577.00 L 321.00 1706.00 L 319.00 1702.00 L 399.00 1569.00 L 561.00 1307.00 L 559.00 1305.00 L 393.00 1563.00 L 394.00 1561.00 L 562.00 1299.00 L 560.00 1296.00 L 388.00 1552.00 L 380.00 1562.00 L 536.00 1326.00 L 535.00 1324.00 L 377.00 1556.00 L 376.00 1557.00 L 532.00 1327.00 L 531.00 1325.00 L 373.00 1551.00 L 293.00 1662.00 L 291.00 1658.00 L 379.00 1530.00 L 557.00 1278.00 L 556.00 1275.00 L 376.00 1521.00 L 361.00 1540.00 L 511.00 1332.00 L 510.00 1329.00 L 358.00 1531.00 L 282.00 1630.00 L 282.00 1626.00 L 373.00 1504.00 L 555.00 1264.00 L 554.00 1262.00 L 370.00 1498.00 L 351.00 1522.00 L 497.00 1334.00 L 497.00 1332.00 L 351.00 1516.00 L 348.00 1518.00 L 488.00 1338.00 L 488.00 1334.00 L 348.00 1506.00 L 345.00 1509.00 L 479.00 1343.00 L 479.00 1340.00 L 345.00 1500.00 L 343.00 1501.00 L 473.00 1343.00 L 473.00 1341.00 L 343.00 1495.00 L 279.00 1569.00 L 281.00 1563.00 L 373.00 1453.00 L 555.00 1239.00 L 555.00 1237.00 L 373.00 1447.00 L 337.00 1487.00 L 447.00 1357.00 L 448.00 1353.00 L 340.00 1475.00 L 338.00 1477.00 L 442.00 1359.00 L 444.00 1355.00 L 344.00 1465.00 L 340.00 1468.00 L 432.00 1364.00 L 435.00 1359.00 L 349.00 1453.00 L 343.00 1459.00 L 417.00 1377.00 L 418.00 1375.00 L 346.00 1453.00 L 344.00 1454.00 L 412.00 1378.00 L 415.00 1373.00 L 353.00 1439.00 L 403.00 1385.00 L 565.00 1211.00 L 566.00 1209.00 L 406.00 1379.00 L 406.00 1377.00 L 566.00 1203.00 L 642.00 1103.00 L 634.00 1077.00 L 622.00 1062.00 L 606.00 1058.00 L 602.00 1055.00 L 610.00 1053.00 L 599.00 1054.00 L 569.00 1058.00 L 559.00 1059.00 L 569.00 1057.00 L 564.00 1056.00 L 544.00 1056.00 L 520.00 1049.00 L 492.00 1035.00 L 477.00 1027.00 L 475.00 1025.00 L 470.00 1017.00 Z" fill="black" stroke="black" stroke-width="1"/>
</svg>