<?xml version="1.0" encoding="UTF-8"?>
<svg xmlns="http://www.w3.org/2000/svg" viewBox="369.00 226.00 814.00 1452.00">
  <path d="M 451.00 912.00 L 453.00 892.00 L 449.00 868.00 L 439.00 840.00 L 436.00 823.00 L 440.00 817.00 L 440.00 801.00 L 436.00 775.00 L 427.00 755.00 L 413.00 741.00 L 410.00 736.00 L 418.00 740.00 L 417.00 739.00 L 407.00 733.00 L 406.00 732.00 L 414.00 736.00 L 410.00 733.00 L 394.00 723.00 L 388.00 719.00 L 392.00 721.00 L 390.00 716.00 L 382.00 704.00 L 398.00 664.00 L 438.00 596.00 L 458.00 559.00 L 458.00 553.00 L 449.00 536.00 L 431.00 508.00 L 431.00 505.00 L 449.00 527.00 L 449.00 524.00 L 431.00 496.00 L 431.00 493.00 L 449.00 515.00 L 449.00 513.00 L 431.00 487.00 L 430.00 485.00 L 446.00 507.00 L 447.00 505.00 L 433.00 479.00 L 433.00 476.00 L 447.00 496.00 L 448.00 494.00 L 436.00 470.00 L 436.00 466.00 L 448.00 482.00 L 449.00 480.00 L 439.00 460.00 L 440.00 458.00 L 452.00 474.00 L 455.00 477.00 L 449.00 467.00 L 449.00 465.00 L 455.00 471.00 L 456.00 469.00 L 452.00 459.00 L 452.00 457.00 L 456.00 463.00 L 454.00 459.00 L 446.00 445.00 L 443.00 437.00 L 445.00 435.00 L 450.00 440.00 L 458.00 452.00 L 461.00 455.00 L 459.00 449.00 L 460.00 448.00 L 464.00 452.00 L 462.00 444.00 L 454.00 424.00 L 455.00 421.00 L 465.00 435.00 L 466.00 434.00 L 458.00 418.00 L 459.00 416.00 L 469.00 428.00 L 470.00 426.00 L 462.00 410.00 L 462.00 408.00 L 470.00 420.00 L 475.00 424.00 L 477.00 420.00 L 479.00 419.00 L 481.00 421.00 L 478.00 414.00 L 470.00 398.00 L 470.00 396.00 L 478.00 408.00 L 479.00 407.00 L 473.00 393.00 L 476.00 382.00 L 488.00 374.00 L 503.00 359.00 L 521.00 337.00 L 560.00 309.00 L 620.00 275.00 L 686.00 255.00 L 758.00 249.00 L 808.00 250.00 L 836.00 258.00 L 853.00 261.00 L 859.00 259.00 L 862.00 260.00 L 862.00 264.00 L 864.00 260.00 L 868.00 248.00 L 875.00 240.00 L 885.00 236.00 L 896.00 236.00 L 908.00 240.00 L 919.00 248.00 L 929.00 260.00 L 939.00 263.00 L 949.00 257.00 L 957.00 256.00 L 963.00 260.00 L 972.00 273.00 L 984.00 295.00 L 999.00 307.00 L 1017.00 309.00 L 1032.00 313.00 L 1044.00 319.00 L 1061.00 333.00 L 1083.00 355.00 L 1102.00 380.00 L 1118.00 408.00 L 1135.00 445.00 L 1153.00 491.00 L 1165.00 528.00 L 1171.00 556.00 L 1173.00 593.00 L 1171.00 639.00 L 1163.00 676.00 L 1149.00 704.00 L 1115.00 732.00 L 1061.00 760.00 L 1059.00 762.00 L 1109.00 738.00 L 1107.00 740.00 L 1053.00 768.00 L 1051.00 770.00 L 1101.00 746.00 L 1098.00 748.00 L 1042.00 776.00 L 1038.00 779.00 L 1086.00 757.00 L 1085.00 758.00 L 1035.00 782.00 L 1030.00 785.00 L 1070.00 767.00 L 1068.00 769.00 L 1024.00 791.00 L 993.00 813.00 L 975.00 835.00 L 958.00 850.00 L 942.00 858.00 L 933.00 867.00 L 931.00 877.00 L 933.00 892.00 L 939.00 912.00 L 947.00 926.00 L 957.00 934.00 L 970.00 951.00 L 986.00 977.00 L 996.00 1000.00 L 1000.00 1020.00 L 1016.00 1058.00 L 1044.00 1114.00 L 1071.00 1187.00 L 1097.00 1277.00 L 1114.00 1347.00 L 1122.00 1397.00 L 1124.00 1424.00 L 1120.00 1428.00 L 1089.00 1433.00 L 1031.00 1439.00 L 967.00 1453.00 L 897.00 1475.00 L 857.00 1486.00 L 847.00 1486.00 L 834.00 1491.00 L 818.00 1501.00 L 805.00 1506.00 L 795.00 1506.00 L 788.00 1509.00 L 784.00 1515.00 L 774.00 1520.00 L 758.00 1524.00 L 750.00 1528.00 L 750.00 1532.00 L 726.00 1546.00 L 678.00 1570.00 L 617.00 1605.00 L 543.00 1651.00 L 494.00 1668.00 L 470.00 1656.00 L 445.00 1637.00 L 419.00 1611.00 L 400.00 1587.00 L 388.00 1565.00 L 381.00 1536.00 L 379.00 1500.00 L 380.00 1473.00 L 384.00 1455.00 L 403.00 1417.00 L 437.00 1359.00 L 441.00 1349.00 L 415.00 1387.00 L 423.00 1372.00 L 465.00 1304.00 L 483.00 1274.00 L 477.00 1282.00 L 475.00 1284.00 L 477.00 1280.00 L 497.00 1250.00 L 535.00 1194.00 L 542.00 1182.00 L 518.00 1214.00 L 541.00 1181.00 L 611.00 1083.00 L 638.00 1044.00 L 622.00 1064.00 L 621.00 1065.00 L 635.00 1047.00 L 642.00 1031.00 L 642.00 1017.00 L 635.00 1001.00 L 621.00 983.00 L 610.00 972.00 L 602.00 968.00 L 576.00 968.00 L 532.00 972.00 L 501.00 971.00 L 483.00 965.00 L 469.00 955.00 L 459.00 941.00 L 453.00 931.00 L 451.00 925.00 L 451.00 912.00 Z" fill="black" stroke="black" stroke-width="1"/>
</svg>