<?xml version="1.0" encoding="UTF-8"?>
<svg xmlns="http://www.w3.org/2000/svg" viewBox="338.00 323.00 790.00 1387.00">
  <path d="M 425.00 959.00 L 407.00 929.00 L 399.00 904.00 L 401.00 884.00 L 398.00 871.00 L 390.00 865.00 L 389.00 863.00 L 395.00 865.00 L 384.00 857.00 L 356.00 839.00 L 360.00 796.00 L 396.00 728.00 L 404.00 671.00 L 384.00 625.00 L 381.00 609.00 L 395.00 623.00 L 396.00 620.00 L 384.00 600.00 L 384.00 596.00 L 396.00 608.00 L 397.00 606.00 L 387.00 590.00 L 387.00 588.00 L 397.00 600.00 L 398.00 598.00 L 390.00 582.00 L 391.00 580.00 L 401.00 592.00 L 401.00 590.00 L 391.00 574.00 L 391.00 572.00 L 401.00 584.00 L 402.00 583.00 L 394.00 569.00 L 395.00 566.00 L 405.00 574.00 L 407.00 564.00 L 401.00 536.00 L 403.00 528.00 L 413.00 540.00 L 415.00 538.00 L 409.00 522.00 L 410.00 520.00 L 418.00 532.00 L 419.00 531.00 L 413.00 517.00 L 414.00 513.00 L 422.00 519.00 L 424.00 517.00 L 420.00 507.00 L 420.00 505.00 L 424.00 511.00 L 425.00 510.00 L 423.00 502.00 L 441.00 480.00 L 479.00 444.00 L 536.00 410.00 L 612.00 378.00 L 669.00 359.00 L 707.00 353.00 L 748.00 353.00 L 792.00 359.00 L 816.00 357.00 L 820.00 347.00 L 831.00 339.00 L 849.00 333.00 L 868.00 335.00 L 888.00 345.00 L 906.00 362.00 L 922.00 386.00 L 938.00 395.00 L 954.00 389.00 L 968.00 400.00 L 980.00 428.00 L 1012.00 469.00 L 1064.00 523.00 L 1097.00 570.00 L 1111.00 610.00 L 1118.00 648.00 L 1118.00 684.00 L 1108.00 719.00 L 1088.00 753.00 L 1058.00 783.00 L 1018.00 809.00 L 1008.00 817.00 L 1028.00 807.00 L 1027.00 808.00 L 1005.00 820.00 L 1004.00 821.00 L 1024.00 811.00 L 1007.00 833.00 L 953.00 887.00 L 928.00 929.00 L 932.00 959.00 L 948.00 999.00 L 976.00 1049.00 L 1013.00 1157.00 L 1059.00 1323.00 L 1026.00 1423.00 L 914.00 1457.00 L 776.00 1516.00 L 612.00 1600.00 L 559.00 1522.00 L 617.00 1282.00 L 615.00 1283.00 L 553.00 1525.00 L 553.00 1523.00 L 615.00 1277.00 L 612.00 1278.00 L 544.00 1526.00 L 544.00 1523.00 L 612.00 1269.00 L 609.00 1271.00 L 535.00 1529.00 L 493.00 1661.00 L 483.00 1667.00 L 516.00 1547.00 L 592.00 1301.00 L 589.00 1303.00 L 507.00 1553.00 L 510.00 1542.00 L 598.00 1270.00 L 595.00 1272.00 L 501.00 1548.00 L 501.00 1546.00 L 595.00 1266.00 L 593.00 1267.00 L 495.00 1549.00 L 495.00 1548.00 L 593.00 1264.00 L 591.00 1265.00 L 489.00 1551.00 L 434.00 1696.00 L 426.00 1700.00 L 469.00 1576.00 L 563.00 1324.00 L 562.00 1323.00 L 466.00 1573.00 L 465.00 1574.00 L 559.00 1326.00 L 556.00 1324.00 L 456.00 1568.00 L 464.00 1546.00 L 580.00 1258.00 L 576.00 1256.00 L 452.00 1540.00 L 439.00 1567.00 L 537.00 1337.00 L 534.00 1334.00 L 430.00 1558.00 L 442.00 1529.00 L 570.00 1247.00 L 568.00 1245.00 L 436.00 1523.00 L 418.00 1557.00 L 514.00 1347.00 L 510.00 1343.00 L 406.00 1545.00 L 403.00 1548.00 L 501.00 1352.00 L 497.00 1347.00 L 391.00 1533.00 L 411.00 1493.00 L 557.00 1227.00 L 556.00 1224.00 L 408.00 1484.00 L 381.00 1530.00 L 475.00 1362.00 L 473.00 1359.00 L 375.00 1521.00 L 370.00 1526.00 L 458.00 1374.00 L 457.00 1371.00 L 367.00 1517.00 L 398.00 1465.00 L 550.00 1215.00 L 550.00 1214.00 L 398.00 1462.00 L 364.00 1517.00 L 448.00 1379.00 L 447.00 1376.00 L 361.00 1508.00 L 355.00 1514.00 L 429.00 1394.00 L 429.00 1392.00 L 355.00 1508.00 L 352.00 1511.00 L 420.00 1401.00 L 420.00 1396.00 L 352.00 1496.00 L 348.00 1500.00 L 408.00 1408.00 L 409.00 1405.00 L 351.00 1491.00 L 349.00 1493.00 L 403.00 1411.00 L 404.00 1407.00 L 352.00 1481.00 L 348.00 1485.00 L 392.00 1419.00 L 394.00 1415.00 L 354.00 1473.00 L 351.00 1477.00 L 385.00 1427.00 L 387.00 1423.00 L 357.00 1465.00 L 412.00 1385.00 L 552.00 1183.00 L 553.00 1180.00 L 415.00 1376.00 L 413.00 1375.00 L 547.00 1177.00 L 572.00 1071.00 L 488.00 1057.00 L 441.00 1042.00 L 431.00 1026.00 L 429.00 1010.00 L 435.00 994.00 L 437.00 983.00 L 435.00 977.00 L 425.00 959.00 Z" fill="black" stroke="black" stroke-width="1"/>
</svg>