<?xml version="1.0" encoding="UTF-8"?>
<svg xmlns="http://www.w3.org/2000/svg" viewBox="461.00 305.00 880.00 1511.00">
  <path d="M 542.00 958.00 L 542.00 910.00 L 530.00 871.00 L 506.00 841.00 L 510.00 795.00 L 542.00 733.00 L 552.00 684.00 L 540.00 648.00 L 539.00 636.00 L 549.00 648.00 L 548.00 646.00 L 536.00 630.00 L 535.00 627.00 L 545.00 637.00 L 545.00 635.00 L 535.00 621.00 L 535.00 618.00 L 545.00 626.00 L 546.00 624.00 L 538.00 612.00 L 538.00 609.00 L 546.00 615.00 L 548.00 605.00 L 544.00 579.00 L 546.00 570.00 L 554.00 578.00 L 554.00 575.00 L 546.00 561.00 L 547.00 559.00 L 557.00 569.00 L 557.00 563.00 L 547.00 541.00 L 548.00 539.00 L 560.00 557.00 L 561.00 555.00 L 551.00 533.00 L 552.00 528.00 L 564.00 540.00 L 567.00 536.00 L 561.00 516.00 L 562.00 513.00 L 570.00 527.00 L 572.00 525.00 L 568.00 507.00 L 569.00 503.00 L 575.00 513.00 L 577.00 511.00 L 575.00 497.00 L 585.00 478.00 L 607.00 454.00 L 657.00 422.00 L 735.00 382.00 L 809.00 359.00 L 879.00 353.00 L 921.00 340.00 L 935.00 320.00 L 944.00 315.00 L 948.00 325.00 L 953.00 326.00 L 959.00 318.00 L 982.00 321.00 L 1022.00 335.00 L 1071.00 342.00 L 1129.00 342.00 L 1199.00 361.00 L 1281.00 399.00 L 1325.00 431.00 L 1331.00 457.00 L 1324.00 482.00 L 1304.00 506.00 L 1304.00 508.00 L 1324.00 488.00 L 1325.00 491.00 L 1307.00 517.00 L 1305.00 523.00 L 1319.00 509.00 L 1322.00 512.00 L 1314.00 532.00 L 1313.00 549.00 L 1319.00 563.00 L 1302.00 588.00 L 1262.00 624.00 L 1262.00 626.00 L 1302.00 594.00 L 1301.00 596.00 L 1259.00 632.00 L 1259.00 634.00 L 1301.00 602.00 L 1301.00 604.00 L 1259.00 640.00 L 1258.00 643.00 L 1298.00 613.00 L 1295.00 620.00 L 1249.00 664.00 L 1248.00 669.00 L 1292.00 635.00 L 1291.00 637.00 L 1245.00 675.00 L 1209.00 719.00 L 1183.00 769.00 L 1136.00 836.00 L 1068.00 920.00 L 1037.00 978.00 L 1043.00 1010.00 L 1070.00 1073.00 L 1118.00 1167.00 L 1155.00 1253.00 L 1181.00 1331.00 L 1161.00 1386.00 L 1095.00 1418.00 L 1004.00 1472.00 L 888.00 1548.00 L 764.00 1643.00 L 632.00 1757.00 L 549.00 1806.00 L 515.00 1790.00 L 558.00 1640.00 L 678.00 1356.00 L 676.00 1354.00 L 552.00 1634.00 L 552.00 1631.00 L 676.00 1345.00 L 673.00 1342.00 L 543.00 1622.00 L 543.00 1620.00 L 673.00 1336.00 L 672.00 1334.00 L 540.00 1614.00 L 535.00 1624.00 L 657.00 1364.00 L 655.00 1362.00 L 529.00 1618.00 L 527.00 1620.00 L 649.00 1368.00 L 647.00 1365.00 L 521.00 1611.00 L 527.00 1596.00 L 665.00 1320.00 L 663.00 1319.00 L 521.00 1593.00 L 511.00 1611.00 L 633.00 1373.00 L 631.00 1369.00 L 505.00 1599.00 L 515.00 1578.00 L 661.00 1306.00 L 660.00 1303.00 L 512.00 1569.00 L 497.00 1595.00 L 615.00 1381.00 L 614.00 1379.00 L 494.00 1589.00 L 492.00 1591.00 L 608.00 1385.00 L 608.00 1383.00 L 492.00 1585.00 L 490.00 1588.00 L 602.00 1392.00 L 601.00 1389.00 L 487.00 1579.00 L 506.00 1545.00 L 658.00 1287.00 L 658.00 1285.00 L 506.00 1539.00 L 482.00 1578.00 L 586.00 1402.00 L 586.00 1399.00 L 482.00 1569.00 L 480.00 1571.00 L 580.00 1405.00 L 580.00 1402.00 L 480.00 1562.00 L 478.00 1564.00 L 574.00 1408.00 L 574.00 1406.00 L 478.00 1558.00 L 473.00 1564.00 L 559.00 1424.00 L 560.00 1420.00 L 476.00 1552.00 L 472.00 1557.00 L 548.00 1435.00 L 549.00 1430.00 L 475.00 1542.00 L 471.00 1547.00 L 537.00 1445.00 L 538.00 1441.00 L 474.00 1535.00 L 514.00 1473.00 L 658.00 1255.00 L 659.00 1252.00 L 517.00 1464.00 L 517.00 1462.00 L 659.00 1246.00 L 727.00 1133.00 L 721.00 1123.00 L 706.00 1118.00 L 682.00 1118.00 L 654.00 1110.00 L 622.00 1094.00 L 591.00 1063.00 L 561.00 1017.00 L 545.00 991.00 L 543.00 985.00 L 542.00 958.00 Z" fill="black" stroke="black" stroke-width="1"/>
</svg>