<?xml version="1.0" encoding="UTF-8"?>
<svg xmlns="http://www.w3.org/2000/svg" viewBox="321.00 239.00 894.00 1479.00">
  <path d="M 473.00 978.00 L 463.00 962.00 L 461.00 938.00 L 467.00 906.00 L 466.00 879.00 L 458.00 857.00 L 450.00 842.00 L 442.00 834.00 L 441.00 819.00 L 447.00 797.00 L 437.00 775.00 L 411.00 753.00 L 411.00 750.00 L 437.00 766.00 L 436.00 764.00 L 408.00 744.00 L 406.00 742.00 L 430.00 758.00 L 430.00 756.00 L 406.00 736.00 L 397.00 720.00 L 403.00 708.00 L 420.00 690.00 L 448.00 666.00 L 472.00 642.00 L 492.00 618.00 L 502.00 600.00 L 502.00 588.00 L 496.00 572.00 L 484.00 552.00 L 484.00 551.00 L 496.00 569.00 L 496.00 567.00 L 484.00 545.00 L 484.00 542.00 L 496.00 558.00 L 498.00 555.00 L 490.00 533.00 L 491.00 530.00 L 501.00 546.00 L 507.00 552.00 L 509.00 548.00 L 506.00 537.00 L 498.00 519.00 L 499.00 517.00 L 509.00 531.00 L 510.00 530.00 L 502.00 514.00 L 503.00 512.00 L 513.00 524.00 L 514.00 522.00 L 506.00 506.00 L 507.00 503.00 L 517.00 513.00 L 518.00 507.00 L 510.00 485.00 L 511.00 483.00 L 521.00 501.00 L 522.00 498.00 L 514.00 474.00 L 515.00 472.00 L 525.00 492.00 L 529.00 498.00 L 527.00 490.00 L 528.00 488.00 L 532.00 492.00 L 529.00 483.00 L 519.00 461.00 L 519.00 459.00 L 529.00 477.00 L 530.00 476.00 L 522.00 456.00 L 523.00 453.00 L 533.00 467.00 L 535.00 464.00 L 529.00 444.00 L 530.00 441.00 L 538.00 455.00 L 541.00 453.00 L 539.00 435.00 L 552.00 404.00 L 580.00 360.00 L 600.00 333.00 L 612.00 323.00 L 651.00 303.00 L 717.00 273.00 L 789.00 255.00 L 867.00 249.00 L 934.00 255.00 L 990.00 273.00 L 1039.00 297.00 L 1081.00 327.00 L 1113.00 355.00 L 1135.00 381.00 L 1154.00 410.00 L 1170.00 442.00 L 1183.00 473.00 L 1193.00 503.00 L 1200.00 533.00 L 1204.00 563.00 L 1205.00 599.00 L 1203.00 641.00 L 1198.00 677.00 L 1190.00 707.00 L 1174.00 746.00 L 1150.00 794.00 L 1135.00 828.00 L 1129.00 848.00 L 1122.00 865.00 L 1114.00 879.00 L 1104.00 890.00 L 1092.00 898.00 L 1091.00 908.00 L 1101.00 920.00 L 1112.00 953.00 L 1124.00 1007.00 L 1130.00 1059.00 L 1130.00 1109.00 L 1133.00 1140.00 L 1139.00 1152.00 L 1142.00 1172.00 L 1142.00 1200.00 L 1151.00 1257.00 L 1169.00 1343.00 L 1180.00 1405.00 L 1184.00 1443.00 L 1185.00 1473.00 L 1183.00 1495.00 L 1142.00 1507.00 L 1062.00 1509.00 L 989.00 1516.00 L 923.00 1528.00 L 838.00 1550.00 L 734.00 1582.00 L 630.00 1624.00 L 526.00 1676.00 L 461.00 1704.00 L 435.00 1708.00 L 414.00 1707.00 L 398.00 1701.00 L 382.00 1690.00 L 366.00 1674.00 L 354.00 1658.00 L 346.00 1642.00 L 339.00 1622.00 L 333.00 1598.00 L 331.00 1575.00 L 333.00 1553.00 L 342.00 1517.00 L 358.00 1467.00 L 376.00 1422.00 L 396.00 1382.00 L 424.00 1337.00 L 460.00 1287.00 L 485.00 1247.00 L 499.00 1217.00 L 496.00 1205.00 L 476.00 1211.00 L 460.00 1213.00 L 448.00 1211.00 L 454.00 1199.00 L 478.00 1177.00 L 474.00 1176.00 L 442.00 1196.00 L 445.00 1193.00 L 483.00 1167.00 L 481.00 1164.00 L 439.00 1184.00 L 436.00 1183.00 L 472.00 1161.00 L 489.00 1145.00 L 487.00 1135.00 L 498.00 1123.00 L 522.00 1109.00 L 523.00 1106.00 L 501.00 1114.00 L 500.00 1112.00 L 520.00 1100.00 L 521.00 1098.00 L 503.00 1106.00 L 502.00 1103.00 L 518.00 1089.00 L 518.00 1070.00 L 502.00 1046.00 L 494.00 1032.00 L 494.00 1028.00 L 499.00 1022.00 L 509.00 1014.00 L 508.00 1006.00 L 496.00 998.00 L 487.00 992.00 L 481.00 988.00 L 473.00 978.00 Z" fill="black" stroke="black" stroke-width="1"/>
</svg>