<?xml version="1.0" encoding="UTF-8"?>
<svg xmlns="http://www.w3.org/2000/svg" viewBox="435.00 257.00 901.00 1561.00">
  <path d="M 601.00 1050.00 L 591.00 1038.00 L 589.00 1017.00 L 595.00 987.00 L 592.00 958.00 L 580.00 930.00 L 576.00 905.00 L 580.00 883.00 L 570.00 862.00 L 546.00 842.00 L 545.00 839.00 L 567.00 853.00 L 565.00 850.00 L 539.00 830.00 L 538.00 793.00 L 562.00 739.00 L 567.00 690.00 L 553.00 646.00 L 552.00 632.00 L 564.00 648.00 L 562.00 641.00 L 546.00 611.00 L 544.00 604.00 L 556.00 620.00 L 556.00 618.00 L 544.00 598.00 L 544.00 595.00 L 556.00 609.00 L 557.00 605.00 L 547.00 583.00 L 548.00 578.00 L 560.00 590.00 L 561.00 586.00 L 551.00 566.00 L 551.00 563.00 L 561.00 577.00 L 563.00 570.00 L 557.00 542.00 L 559.00 536.00 L 569.00 552.00 L 569.00 550.00 L 559.00 530.00 L 559.00 528.00 L 569.00 544.00 L 570.00 541.00 L 562.00 519.00 L 566.00 496.00 L 582.00 472.00 L 608.00 442.00 L 644.00 406.00 L 684.00 376.00 L 728.00 352.00 L 783.00 334.00 L 849.00 322.00 L 885.00 308.00 L 891.00 292.00 L 896.00 292.00 L 900.00 308.00 L 906.00 305.00 L 914.00 283.00 L 935.00 276.00 L 969.00 284.00 L 990.00 281.00 L 998.00 267.00 L 1017.00 274.00 L 1047.00 302.00 L 1076.00 317.00 L 1104.00 319.00 L 1135.00 330.00 L 1169.00 350.00 L 1210.00 388.00 L 1258.00 444.00 L 1295.00 518.00 L 1321.00 610.00 L 1326.00 680.00 L 1310.00 728.00 L 1279.00 769.00 L 1233.00 803.00 L 1229.00 808.00 L 1267.00 784.00 L 1245.00 805.00 L 1163.00 871.00 L 1138.00 895.00 L 1170.00 877.00 L 1169.00 880.00 L 1135.00 904.00 L 1130.00 909.00 L 1154.00 895.00 L 1154.00 897.00 L 1130.00 915.00 L 1118.00 937.00 L 1118.00 963.00 L 1138.00 1004.00 L 1178.00 1060.00 L 1221.00 1147.00 L 1267.00 1265.00 L 1301.00 1366.00 L 1323.00 1450.00 L 1255.00 1514.00 L 1097.00 1558.00 L 972.00 1604.00 L 880.00 1652.00 L 834.00 1673.00 L 834.00 1667.00 L 764.00 1712.00 L 624.00 1808.00 L 615.00 1700.00 L 737.00 1388.00 L 732.00 1384.00 L 600.00 1688.00 L 602.00 1682.00 L 738.00 1366.00 L 735.00 1365.00 L 593.00 1679.00 L 594.00 1676.00 L 738.00 1356.00 L 736.00 1354.00 L 588.00 1670.00 L 579.00 1688.00 L 709.00 1408.00 L 705.00 1405.00 L 567.00 1679.00 L 576.00 1658.00 L 732.00 1342.00 L 729.00 1339.00 L 567.00 1649.00 L 551.00 1677.00 L 681.00 1423.00 L 679.00 1421.00 L 545.00 1671.00 L 542.00 1674.00 L 670.00 1430.00 L 665.00 1425.00 L 527.00 1659.00 L 545.00 1625.00 L 719.00 1323.00 L 717.00 1321.00 L 539.00 1619.00 L 514.00 1660.00 L 642.00 1444.00 L 641.00 1443.00 L 511.00 1657.00 L 509.00 1659.00 L 635.00 1449.00 L 633.00 1446.00 L 503.00 1650.00 L 498.00 1654.00 L 618.00 1458.00 L 616.00 1455.00 L 492.00 1645.00 L 489.00 1648.00 L 607.00 1464.00 L 605.00 1461.00 L 483.00 1639.00 L 517.00 1587.00 L 707.00 1305.00 L 706.00 1303.00 L 514.00 1581.00 L 475.00 1637.00 L 589.00 1471.00 L 588.00 1468.00 L 472.00 1628.00 L 466.00 1634.00 L 570.00 1486.00 L 569.00 1482.00 L 463.00 1622.00 L 508.00 1558.00 L 704.00 1290.00 L 704.00 1287.00 L 508.00 1549.00 L 454.00 1620.00 L 542.00 1500.00 L 543.00 1497.00 L 457.00 1611.00 L 455.00 1613.00 L 537.00 1503.00 L 537.00 1499.00 L 455.00 1601.00 L 447.00 1608.00 L 513.00 1520.00 L 515.00 1515.00 L 453.00 1593.00 L 449.00 1597.00 L 503.00 1527.00 L 503.00 1526.00 L 449.00 1594.00 L 447.00 1596.00 L 497.00 1532.00 L 498.00 1530.00 L 450.00 1590.00 L 448.00 1592.00 L 492.00 1536.00 L 493.00 1533.00 L 451.00 1583.00 L 446.00 1588.00 L 478.00 1548.00 L 479.00 1546.00 L 449.00 1582.00 L 445.00 1586.00 L 467.00 1558.00 L 471.00 1552.00 L 457.00 1568.00 L 537.00 1469.00 L 711.00 1255.00 L 787.00 1134.00 L 765.00 1106.00 L 719.00 1085.00 L 649.00 1071.00 L 612.00 1062.00 L 608.00 1058.00 L 601.00 1050.00 Z" fill="black" stroke="black" stroke-width="1"/>
</svg>