<?xml version="1.0" encoding="UTF-8"?>
<svg xmlns="http://www.w3.org/2000/svg" viewBox="312.00 269.00 998.00 1530.00">
  <path d="M 513.00 1024.00 L 511.00 1004.00 L 512.00 985.00 L 516.00 967.00 L 512.00 946.00 L 500.00 922.00 L 496.00 905.00 L 500.00 895.00 L 495.00 882.00 L 481.00 866.00 L 476.00 854.00 L 480.00 846.00 L 482.00 837.00 L 482.00 827.00 L 474.00 814.00 L 458.00 798.00 L 456.00 794.00 L 468.00 802.00 L 464.00 798.00 L 444.00 782.00 L 432.00 769.00 L 428.00 759.00 L 429.00 749.00 L 435.00 739.00 L 459.00 711.00 L 501.00 665.00 L 524.00 630.00 L 528.00 606.00 L 534.00 582.00 L 542.00 558.00 L 543.00 536.00 L 537.00 516.00 L 538.00 513.00 L 546.00 527.00 L 547.00 525.00 L 541.00 507.00 L 543.00 504.00 L 553.00 516.00 L 556.00 514.00 L 552.00 498.00 L 553.00 495.00 L 559.00 505.00 L 560.00 503.00 L 556.00 489.00 L 557.00 486.00 L 563.00 494.00 L 567.00 497.00 L 569.00 495.00 L 568.00 489.00 L 564.00 479.00 L 562.00 470.00 L 562.00 462.00 L 565.00 465.00 L 571.00 479.00 L 575.00 484.00 L 577.00 480.00 L 575.00 470.00 L 569.00 454.00 L 570.00 452.00 L 578.00 464.00 L 580.00 462.00 L 576.00 446.00 L 577.00 444.00 L 583.00 456.00 L 587.00 460.00 L 589.00 456.00 L 588.00 447.00 L 584.00 433.00 L 585.00 432.00 L 591.00 444.00 L 595.00 441.00 L 597.00 423.00 L 609.00 407.00 L 631.00 393.00 L 651.00 378.00 L 669.00 362.00 L 685.00 352.00 L 699.00 348.00 L 719.00 339.00 L 745.00 325.00 L 791.00 309.00 L 857.00 291.00 L 892.00 283.00 L 896.00 285.00 L 901.00 285.00 L 907.00 283.00 L 920.00 283.00 L 940.00 285.00 L 962.00 284.00 L 986.00 280.00 L 1006.00 279.00 L 1022.00 281.00 L 1039.00 286.00 L 1057.00 294.00 L 1075.00 299.00 L 1093.00 301.00 L 1114.00 306.00 L 1138.00 314.00 L 1163.00 326.00 L 1189.00 342.00 L 1209.00 356.00 L 1223.00 368.00 L 1241.00 389.00 L 1263.00 419.00 L 1279.00 445.00 L 1289.00 467.00 L 1296.00 491.00 L 1300.00 517.00 L 1300.00 554.00 L 1296.00 602.00 L 1283.00 662.00 L 1261.00 734.00 L 1238.00 789.00 L 1214.00 827.00 L 1195.00 861.00 L 1181.00 891.00 L 1166.00 913.00 L 1150.00 927.00 L 1141.00 937.00 L 1139.00 943.00 L 1139.00 949.00 L 1141.00 955.00 L 1148.00 963.00 L 1160.00 973.00 L 1169.00 991.00 L 1175.00 1017.00 L 1179.00 1044.00 L 1181.00 1072.00 L 1181.00 1090.00 L 1179.00 1098.00 L 1179.00 1112.00 L 1181.00 1132.00 L 1181.00 1144.00 L 1179.00 1148.00 L 1179.00 1154.00 L 1181.00 1162.00 L 1180.00 1176.00 L 1176.00 1196.00 L 1172.00 1209.00 L 1168.00 1215.00 L 1166.00 1224.00 L 1166.00 1236.00 L 1172.00 1256.00 L 1184.00 1284.00 L 1193.00 1312.00 L 1199.00 1340.00 L 1207.00 1395.00 L 1217.00 1477.00 L 1222.00 1528.00 L 1222.00 1548.00 L 1168.00 1564.00 L 1060.00 1576.00 L 957.00 1593.00 L 859.00 1615.00 L 788.00 1633.00 L 744.00 1647.00 L 708.00 1660.00 L 680.00 1672.00 L 614.00 1705.00 L 510.00 1759.00 L 450.00 1787.00 L 434.00 1789.00 L 417.00 1785.00 L 399.00 1775.00 L 381.00 1760.00 L 363.00 1740.00 L 350.00 1722.00 L 342.00 1706.00 L 334.00 1684.00 L 326.00 1656.00 L 322.00 1629.00 L 322.00 1603.00 L 325.00 1578.00 L 331.00 1554.00 L 346.00 1516.00 L 370.00 1464.00 L 392.00 1423.00 L 412.00 1393.00 L 431.00 1368.00 L 449.00 1348.00 L 464.00 1327.00 L 476.00 1305.00 L 488.00 1288.00 L 500.00 1276.00 L 495.00 1271.00 L 473.00 1273.00 L 456.00 1272.00 L 444.00 1268.00 L 459.00 1252.00 L 501.00 1224.00 L 507.00 1218.00 L 477.00 1234.00 L 478.00 1232.00 L 510.00 1212.00 L 502.00 1216.00 L 454.00 1244.00 L 451.00 1243.00 L 493.00 1213.00 L 491.00 1210.00 L 445.00 1234.00 L 442.00 1232.00 L 482.00 1204.00 L 517.00 1182.00 L 547.00 1166.00 L 561.00 1157.00 L 559.00 1155.00 L 543.00 1161.00 L 513.00 1175.00 L 511.00 1175.00 L 537.00 1161.00 L 539.00 1158.00 L 517.00 1166.00 L 518.00 1163.00 L 542.00 1149.00 L 543.00 1146.00 L 521.00 1154.00 L 520.00 1152.00 L 540.00 1140.00 L 549.00 1130.00 L 547.00 1122.00 L 542.00 1114.00 L 534.00 1106.00 L 531.00 1099.00 L 533.00 1093.00 L 541.00 1086.00 L 555.00 1078.00 L 552.00 1067.00 L 532.00 1053.00 L 520.00 1043.00 L 516.00 1037.00 L 513.00 1024.00 Z" fill="black" stroke="black" stroke-width="1"/>
</svg>