<?xml version="1.0" encoding="UTF-8"?>
<svg xmlns="http://www.w3.org/2000/svg" viewBox="325.00 233.00 935.00 1554.00">
  <path d="M 479.00 1017.00 L 473.00 1015.00 L 466.00 1008.00 L 458.00 996.00 L 451.00 971.00 L 445.00 933.00 L 436.00 903.00 L 424.00 881.00 L 413.00 852.00 L 403.00 816.00 L 389.00 781.00 L 371.00 747.00 L 355.00 706.00 L 341.00 658.00 L 335.00 613.00 L 337.00 571.00 L 346.00 528.00 L 362.00 484.00 L 378.00 448.00 L 394.00 420.00 L 420.00 385.00 L 456.00 343.00 L 501.00 309.00 L 555.00 283.00 L 595.00 268.00 L 621.00 264.00 L 645.00 257.00 L 667.00 247.00 L 689.00 243.00 L 711.00 245.00 L 736.00 250.00 L 764.00 258.00 L 792.00 263.00 L 820.00 265.00 L 869.00 276.00 L 939.00 296.00 L 994.00 319.00 L 1034.00 345.00 L 1067.00 370.00 L 1093.00 394.00 L 1104.00 413.00 L 1100.00 427.00 L 1101.00 428.00 L 1107.00 416.00 L 1109.00 418.00 L 1107.00 434.00 L 1109.00 437.00 L 1115.00 427.00 L 1115.00 429.00 L 1109.00 443.00 L 1107.00 452.00 L 1109.00 456.00 L 1114.00 452.00 L 1122.00 440.00 L 1123.00 442.00 L 1117.00 458.00 L 1118.00 461.00 L 1126.00 451.00 L 1127.00 453.00 L 1121.00 467.00 L 1120.00 471.00 L 1124.00 465.00 L 1125.00 469.00 L 1123.00 483.00 L 1126.00 482.00 L 1134.00 466.00 L 1135.00 468.00 L 1129.00 488.00 L 1131.00 489.00 L 1141.00 471.00 L 1142.00 474.00 L 1134.00 498.00 L 1136.00 499.00 L 1148.00 477.00 L 1148.00 478.00 L 1136.00 502.00 L 1131.00 516.00 L 1133.00 520.00 L 1141.00 510.00 L 1155.00 486.00 L 1156.00 489.00 L 1144.00 519.00 L 1146.00 521.00 L 1162.00 495.00 L 1162.00 497.00 L 1146.00 527.00 L 1147.00 529.00 L 1165.00 503.00 L 1166.00 506.00 L 1150.00 538.00 L 1150.00 541.00 L 1166.00 515.00 L 1176.00 502.00 L 1180.00 502.00 L 1173.00 518.00 L 1155.00 550.00 L 1149.00 582.00 L 1155.00 614.00 L 1156.00 646.00 L 1152.00 678.00 L 1167.00 720.00 L 1201.00 772.00 L 1226.00 807.00 L 1242.00 825.00 L 1250.00 840.00 L 1250.00 852.00 L 1244.00 864.00 L 1232.00 876.00 L 1229.00 881.00 L 1235.00 879.00 L 1226.00 883.00 L 1202.00 893.00 L 1190.00 908.00 L 1190.00 928.00 L 1192.00 942.00 L 1196.00 950.00 L 1190.00 959.00 L 1174.00 969.00 L 1169.00 980.00 L 1175.00 992.00 L 1171.00 1006.00 L 1157.00 1022.00 L 1154.00 1040.00 L 1162.00 1060.00 L 1166.00 1079.00 L 1166.00 1097.00 L 1162.00 1114.00 L 1154.00 1130.00 L 1141.00 1143.00 L 1123.00 1153.00 L 1118.00 1163.00 L 1126.00 1173.00 L 1119.00 1194.00 L 1097.00 1226.00 L 1097.00 1257.00 L 1119.00 1287.00 L 1117.00 1290.00 L 1091.00 1266.00 L 1091.00 1269.00 L 1117.00 1299.00 L 1116.00 1302.00 L 1088.00 1278.00 L 1086.00 1281.00 L 1110.00 1311.00 L 1120.00 1326.00 L 1116.00 1326.00 L 1103.00 1314.00 L 1081.00 1290.00 L 1083.00 1294.00 L 1109.00 1326.00 L 1120.00 1340.00 L 1116.00 1336.00 L 1118.00 1339.00 L 1126.00 1349.00 L 1116.00 1337.00 L 1088.00 1303.00 L 1100.00 1322.00 L 1152.00 1394.00 L 1150.00 1395.00 L 1094.00 1325.00 L 1094.00 1327.00 L 1150.00 1401.00 L 1170.00 1428.00 L 1154.00 1408.00 L 1155.00 1410.00 L 1173.00 1434.00 L 1181.00 1448.00 L 1179.00 1452.00 L 1157.00 1431.00 L 1115.00 1385.00 L 1089.00 1359.00 L 1079.00 1353.00 L 1074.00 1354.00 L 1074.00 1362.00 L 1072.00 1363.00 L 1068.00 1357.00 L 1069.00 1359.00 L 1075.00 1369.00 L 1073.00 1368.00 L 1063.00 1356.00 L 1083.00 1393.00 L 1133.00 1479.00 L 1160.00 1526.00 L 1164.00 1534.00 L 1151.00 1513.00 L 1121.00 1463.00 L 1125.00 1471.00 L 1163.00 1537.00 L 1157.00 1528.00 L 1107.00 1444.00 L 1109.00 1449.00 L 1163.00 1543.00 L 1160.00 1539.00 L 1100.00 1437.00 L 1103.00 1444.00 L 1169.00 1560.00 L 1170.00 1563.00 L 1106.00 1453.00 L 1108.00 1460.00 L 1176.00 1584.00 L 1209.00 1673.00 L 1207.00 1727.00 L 1203.00 1759.00 L 1197.00 1769.00 L 1189.00 1775.00 L 1179.00 1777.00 L 1168.00 1776.00 L 1156.00 1772.00 L 1118.00 1746.00 L 1054.00 1698.00 L 981.00 1652.00 L 899.00 1608.00 L 797.00 1566.00 L 675.00 1526.00 L 580.00 1500.00 L 512.00 1488.00 L 470.00 1479.00 L 454.00 1473.00 L 441.00 1465.00 L 431.00 1455.00 L 424.00 1442.00 L 420.00 1426.00 L 422.00 1403.00 L 430.00 1373.00 L 436.00 1335.00 L 440.00 1289.00 L 437.00 1260.00 L 427.00 1248.00 L 422.00 1235.00 L 422.00 1221.00 L 427.00 1194.00 L 437.00 1154.00 L 442.00 1121.00 L 442.00 1095.00 L 446.00 1073.00 L 454.00 1055.00 L 463.00 1042.00 L 473.00 1034.00 L 479.00 1027.00 L 481.00 1021.00 L 479.00 1017.00 Z" fill="black" stroke="black" stroke-width="1"/>
</svg>