<?xml version="1.0" encoding="UTF-8"?>
<svg xmlns="http://www.w3.org/2000/svg" viewBox="352.00 195.00 915.00 1580.00">
  <path d="M 494.00 977.00 L 510.00 967.00 L 506.00 957.00 L 482.00 947.00 L 460.00 933.00 L 440.00 915.00 L 428.00 900.00 L 424.00 888.00 L 423.00 877.00 L 425.00 867.00 L 433.00 853.00 L 447.00 835.00 L 450.00 820.00 L 442.00 808.00 L 438.00 797.00 L 438.00 787.00 L 441.00 778.00 L 447.00 770.00 L 447.00 761.00 L 441.00 751.00 L 440.00 735.00 L 444.00 713.00 L 445.00 699.00 L 443.00 693.00 L 429.00 678.00 L 403.00 654.00 L 402.00 652.00 L 426.00 672.00 L 425.00 670.00 L 399.00 646.00 L 398.00 643.00 L 422.00 661.00 L 422.00 658.00 L 398.00 634.00 L 386.00 620.00 L 386.00 616.00 L 394.00 604.00 L 410.00 584.00 L 438.00 560.00 L 478.00 532.00 L 503.00 501.00 L 513.00 467.00 L 514.00 439.00 L 506.00 417.00 L 507.00 415.00 L 517.00 433.00 L 518.00 430.00 L 510.00 406.00 L 511.00 404.00 L 521.00 424.00 L 521.00 422.00 L 511.00 398.00 L 512.00 395.00 L 524.00 413.00 L 525.00 410.00 L 515.00 386.00 L 513.00 380.00 L 519.00 392.00 L 521.00 390.00 L 519.00 374.00 L 523.00 377.00 L 533.00 399.00 L 536.00 405.00 L 532.00 395.00 L 533.00 392.00 L 539.00 396.00 L 538.00 388.00 L 530.00 368.00 L 531.00 367.00 L 541.00 385.00 L 543.00 383.00 L 537.00 361.00 L 539.00 358.00 L 549.00 374.00 L 551.00 373.00 L 545.00 355.00 L 543.00 348.00 L 545.00 352.00 L 546.00 351.00 L 546.00 345.00 L 550.00 349.00 L 558.00 363.00 L 560.00 362.00 L 556.00 346.00 L 566.00 327.00 L 590.00 305.00 L 627.00 279.00 L 677.00 249.00 L 732.00 226.00 L 792.00 210.00 L 863.00 205.00 L 945.00 211.00 L 1016.00 226.00 L 1076.00 250.00 L 1124.00 278.00 L 1160.00 310.00 L 1185.00 334.00 L 1199.00 350.00 L 1214.00 375.00 L 1230.00 409.00 L 1243.00 449.00 L 1253.00 495.00 L 1257.00 531.00 L 1255.00 557.00 L 1243.00 613.00 L 1221.00 699.00 L 1196.00 770.00 L 1168.00 826.00 L 1153.00 866.00 L 1151.00 890.00 L 1140.00 905.00 L 1120.00 911.00 L 1119.00 914.00 L 1137.00 914.00 L 1138.00 916.00 L 1122.00 920.00 L 1120.00 922.00 L 1132.00 922.00 L 1134.00 925.00 L 1126.00 931.00 L 1126.00 946.00 L 1134.00 970.00 L 1140.00 1006.00 L 1144.00 1054.00 L 1146.00 1088.00 L 1146.00 1108.00 L 1143.00 1129.00 L 1137.00 1151.00 L 1143.00 1183.00 L 1161.00 1225.00 L 1180.00 1278.00 L 1200.00 1342.00 L 1212.00 1391.00 L 1216.00 1425.00 L 1216.00 1467.00 L 1212.00 1517.00 L 1207.00 1544.00 L 1201.00 1548.00 L 1156.00 1552.00 L 1072.00 1556.00 L 1002.00 1565.00 L 946.00 1579.00 L 870.00 1604.00 L 774.00 1640.00 L 681.00 1682.00 L 591.00 1730.00 L 541.00 1755.00 L 531.00 1757.00 L 524.00 1756.00 L 520.00 1752.00 L 515.00 1753.00 L 509.00 1759.00 L 498.00 1763.00 L 482.00 1765.00 L 473.00 1764.00 L 471.00 1760.00 L 467.00 1758.00 L 461.00 1758.00 L 453.00 1760.00 L 443.00 1764.00 L 432.00 1762.00 L 420.00 1754.00 L 404.00 1737.00 L 384.00 1711.00 L 371.00 1684.00 L 365.00 1656.00 L 362.00 1627.00 L 362.00 1597.00 L 366.00 1563.00 L 374.00 1525.00 L 389.00 1475.00 L 411.00 1413.00 L 421.00 1383.00 L 419.00 1385.00 L 435.00 1353.00 L 469.00 1287.00 L 489.00 1242.00 L 495.00 1218.00 L 486.00 1211.00 L 462.00 1221.00 L 447.00 1224.00 L 441.00 1220.00 L 438.00 1215.00 L 438.00 1209.00 L 443.00 1202.00 L 453.00 1194.00 L 461.00 1183.00 L 467.00 1169.00 L 480.00 1152.00 L 500.00 1132.00 L 504.00 1122.00 L 492.00 1122.00 L 481.00 1119.00 L 471.00 1113.00 L 483.00 1102.00 L 517.00 1086.00 L 516.00 1084.00 L 480.00 1096.00 L 478.00 1095.00 L 510.00 1081.00 L 510.00 1078.00 L 478.00 1086.00 L 476.00 1085.00 L 504.00 1075.00 L 519.00 1068.00 L 521.00 1064.00 L 508.00 1066.00 L 480.00 1074.00 L 476.00 1073.00 L 496.00 1063.00 L 498.00 1060.00 L 482.00 1064.00 L 485.00 1063.00 L 507.00 1057.00 L 509.00 1054.00 L 491.00 1054.00 L 490.00 1052.00 L 506.00 1048.00 L 513.00 1040.00 L 511.00 1028.00 L 505.00 1015.00 L 495.00 1001.00 L 489.00 991.00 L 487.00 985.00 L 494.00 977.00 Z" fill="black" stroke="black" stroke-width="1"/>
</svg>