<?xml version="1.0" encoding="UTF-8"?>
<svg xmlns="http://www.w3.org/2000/svg" viewBox="300.00 313.00 958.00 1444.00">
  <path d="M 464.00 963.00 L 468.00 933.00 L 466.00 913.00 L 458.00 903.00 L 453.00 885.00 L 451.00 859.00 L 454.00 838.00 L 462.00 822.00 L 456.00 804.00 L 436.00 784.00 L 425.00 768.00 L 423.00 756.00 L 442.00 729.00 L 482.00 687.00 L 503.00 663.00 L 505.00 657.00 L 500.00 643.00 L 488.00 621.00 L 489.00 619.00 L 503.00 637.00 L 505.00 638.00 L 495.00 622.00 L 495.00 620.00 L 505.00 632.00 L 503.00 628.00 L 489.00 608.00 L 489.00 606.00 L 503.00 622.00 L 504.00 621.00 L 492.00 603.00 L 493.00 601.00 L 507.00 615.00 L 508.00 613.00 L 496.00 595.00 L 496.00 592.00 L 508.00 604.00 L 509.00 602.00 L 499.00 586.00 L 496.00 581.00 L 500.00 587.00 L 501.00 585.00 L 499.00 575.00 L 503.00 577.00 L 513.00 591.00 L 514.00 587.00 L 506.00 565.00 L 508.00 561.00 L 520.00 575.00 L 521.00 573.00 L 511.00 555.00 L 512.00 553.00 L 524.00 567.00 L 525.00 565.00 L 515.00 547.00 L 516.00 546.00 L 528.00 562.00 L 529.00 560.00 L 519.00 540.00 L 520.00 538.00 L 532.00 554.00 L 534.00 551.00 L 526.00 529.00 L 528.00 526.00 L 540.00 542.00 L 542.00 540.00 L 534.00 520.00 L 535.00 517.00 L 545.00 531.00 L 547.00 529.00 L 541.00 511.00 L 542.00 508.00 L 550.00 520.00 L 553.00 519.00 L 551.00 505.00 L 555.00 490.00 L 565.00 474.00 L 584.00 454.00 L 612.00 430.00 L 643.00 411.00 L 677.00 397.00 L 728.00 389.00 L 796.00 387.00 L 833.00 376.00 L 839.00 356.00 L 841.00 357.00 L 839.00 379.00 L 842.00 375.00 L 850.00 345.00 L 853.00 345.00 L 851.00 375.00 L 854.00 374.00 L 862.00 342.00 L 872.00 325.00 L 884.00 323.00 L 905.00 325.00 L 935.00 331.00 L 968.00 345.00 L 1004.00 367.00 L 1030.00 373.00 L 1046.00 363.00 L 1064.00 376.00 L 1084.00 412.00 L 1113.00 445.00 L 1151.00 475.00 L 1184.00 510.00 L 1212.00 550.00 L 1233.00 602.00 L 1247.00 666.00 L 1248.00 722.00 L 1236.00 770.00 L 1216.00 808.00 L 1188.00 836.00 L 1120.00 875.00 L 1012.00 925.00 L 969.00 948.00 L 991.00 944.00 L 988.00 945.00 L 960.00 951.00 L 952.00 953.00 L 964.00 951.00 L 964.00 953.00 L 952.00 959.00 L 946.00 980.00 L 946.00 1016.00 L 959.00 1059.00 L 985.00 1109.00 L 1018.00 1202.00 L 1058.00 1338.00 L 1011.00 1432.00 L 877.00 1484.00 L 784.00 1526.00 L 732.00 1558.00 L 684.00 1594.00 L 640.00 1634.00 L 575.00 1679.00 L 489.00 1729.00 L 429.00 1747.00 L 395.00 1733.00 L 367.00 1713.00 L 345.00 1687.00 L 411.00 1549.00 L 565.00 1299.00 L 564.00 1298.00 L 408.00 1546.00 L 329.00 1668.00 L 327.00 1664.00 L 403.00 1541.00 L 557.00 1299.00 L 556.00 1296.00 L 400.00 1532.00 L 402.00 1528.00 L 562.00 1284.00 L 561.00 1282.00 L 399.00 1522.00 L 317.00 1640.00 L 315.00 1636.00 L 396.00 1514.00 L 560.00 1274.00 L 560.00 1272.00 L 396.00 1508.00 L 388.00 1519.00 L 536.00 1305.00 L 535.00 1303.00 L 385.00 1513.00 L 310.00 1616.00 L 310.00 1612.00 L 394.00 1493.00 L 562.00 1259.00 L 562.00 1257.00 L 394.00 1487.00 L 381.00 1504.00 L 523.00 1308.00 L 522.00 1305.00 L 378.00 1495.00 L 373.00 1499.00 L 507.00 1317.00 L 507.00 1311.00 L 373.00 1481.00 L 390.00 1458.00 L 558.00 1242.00 L 559.00 1239.00 L 393.00 1449.00 L 371.00 1476.00 L 493.00 1320.00 L 493.00 1318.00 L 371.00 1470.00 L 369.00 1472.00 L 487.00 1324.00 L 488.00 1322.00 L 372.00 1466.00 L 371.00 1467.00 L 485.00 1325.00 L 485.00 1322.00 L 371.00 1458.00 L 368.00 1460.00 L 476.00 1328.00 L 478.00 1325.00 L 374.00 1451.00 L 371.00 1454.00 L 469.00 1334.00 L 470.00 1331.00 L 374.00 1445.00 L 370.00 1449.00 L 458.00 1343.00 L 459.00 1341.00 L 373.00 1443.00 L 370.00 1446.00 L 450.00 1350.00 L 451.00 1347.00 L 373.00 1437.00 L 411.00 1392.00 L 565.00 1212.00 L 567.00 1209.00 L 417.00 1383.00 L 417.00 1380.00 L 567.00 1200.00 L 637.00 1096.00 L 627.00 1068.00 L 592.00 1048.00 L 532.00 1036.00 L 493.00 1020.00 L 475.00 1000.00 L 465.00 987.00 L 463.00 981.00 L 464.00 963.00 Z" fill="black" stroke="black" stroke-width="1"/>
</svg>