<?xml version="1.0" encoding="UTF-8"?>
<svg xmlns="http://www.w3.org/2000/svg" viewBox="360.00 269.00 746.00 1562.00">
  <path d="M 582.00 1026.00 L 534.00 1010.00 L 505.00 997.00 L 495.00 987.00 L 488.00 976.00 L 484.00 964.00 L 483.00 948.00 L 485.00 928.00 L 482.00 911.00 L 474.00 897.00 L 471.00 883.00 L 473.00 869.00 L 471.00 859.00 L 465.00 853.00 L 465.00 839.00 L 471.00 817.00 L 462.00 793.00 L 438.00 767.00 L 428.00 748.00 L 432.00 736.00 L 443.00 725.00 L 461.00 715.00 L 475.00 700.00 L 485.00 680.00 L 481.00 650.00 L 463.00 610.00 L 464.00 607.00 L 484.00 641.00 L 484.00 640.00 L 464.00 604.00 L 464.00 602.00 L 484.00 634.00 L 485.00 631.00 L 467.00 593.00 L 467.00 588.00 L 485.00 616.00 L 488.00 618.00 L 476.00 594.00 L 476.00 592.00 L 488.00 612.00 L 486.00 607.00 L 470.00 577.00 L 470.00 574.00 L 486.00 598.00 L 487.00 596.00 L 473.00 568.00 L 469.00 557.00 L 475.00 563.00 L 476.00 562.00 L 472.00 554.00 L 476.00 560.00 L 488.00 580.00 L 489.00 578.00 L 479.00 554.00 L 479.00 552.00 L 489.00 572.00 L 490.00 571.00 L 482.00 549.00 L 482.00 546.00 L 490.00 562.00 L 492.00 565.00 L 488.00 555.00 L 489.00 552.00 L 495.00 556.00 L 495.00 550.00 L 489.00 534.00 L 489.00 531.00 L 495.00 541.00 L 495.00 538.00 L 489.00 522.00 L 489.00 520.00 L 495.00 532.00 L 495.00 530.00 L 489.00 514.00 L 487.00 504.00 L 489.00 500.00 L 493.00 505.00 L 499.00 519.00 L 500.00 517.00 L 496.00 499.00 L 497.00 496.00 L 503.00 508.00 L 504.00 506.00 L 500.00 490.00 L 501.00 489.00 L 507.00 503.00 L 508.00 502.00 L 504.00 486.00 L 509.00 472.00 L 523.00 460.00 L 541.00 439.00 L 563.00 409.00 L 588.00 384.00 L 616.00 364.00 L 647.00 347.00 L 681.00 333.00 L 710.00 325.00 L 734.00 323.00 L 748.00 315.00 L 752.00 301.00 L 754.00 299.00 L 754.00 309.00 L 756.00 306.00 L 760.00 290.00 L 764.00 281.00 L 768.00 279.00 L 784.00 281.00 L 812.00 287.00 L 833.00 295.00 L 847.00 305.00 L 860.00 307.00 L 872.00 301.00 L 885.00 308.00 L 899.00 328.00 L 922.00 345.00 L 954.00 359.00 L 986.00 384.00 L 1018.00 420.00 L 1043.00 455.00 L 1061.00 489.00 L 1077.00 535.00 L 1091.00 593.00 L 1096.00 640.00 L 1092.00 676.00 L 1085.00 707.00 L 1075.00 733.00 L 1049.00 765.00 L 1007.00 803.00 L 1000.00 811.00 L 1028.00 789.00 L 1018.00 797.00 L 970.00 835.00 L 954.00 848.00 L 970.00 836.00 L 970.00 838.00 L 954.00 854.00 L 944.00 877.00 L 940.00 907.00 L 939.00 928.00 L 941.00 940.00 L 947.00 952.00 L 957.00 964.00 L 961.00 984.00 L 959.00 1012.00 L 960.00 1030.00 L 964.00 1038.00 L 966.00 1056.00 L 966.00 1084.00 L 983.00 1169.00 L 1017.00 1311.00 L 1037.00 1414.00 L 1043.00 1478.00 L 1010.00 1524.00 L 938.00 1552.00 L 857.00 1587.00 L 767.00 1629.00 L 703.00 1662.00 L 665.00 1686.00 L 602.00 1731.00 L 514.00 1797.00 L 456.00 1821.00 L 428.00 1803.00 L 408.00 1784.00 L 396.00 1764.00 L 443.00 1635.00 L 549.00 1397.00 L 548.00 1395.00 L 440.00 1629.00 L 440.00 1627.00 L 548.00 1389.00 L 547.00 1386.00 L 437.00 1618.00 L 437.00 1617.00 L 547.00 1383.00 L 546.00 1382.00 L 434.00 1614.00 L 429.00 1623.00 L 531.00 1409.00 L 530.00 1406.00 L 426.00 1614.00 L 431.00 1602.00 L 545.00 1370.00 L 544.00 1368.00 L 428.00 1596.00 L 370.00 1708.00 L 370.00 1704.00 L 431.00 1582.00 L 553.00 1342.00 L 552.00 1339.00 L 428.00 1573.00 L 427.00 1574.00 L 549.00 1342.00 L 549.00 1339.00 L 427.00 1565.00 L 411.00 1594.00 L 501.00 1426.00 L 501.00 1425.00 L 411.00 1591.00 L 410.00 1592.00 L 498.00 1428.00 L 498.00 1424.00 L 410.00 1580.00 L 407.00 1584.00 L 489.00 1436.00 L 489.00 1434.00 L 407.00 1578.00 L 404.00 1582.00 L 480.00 1446.00 L 480.00 1444.00 L 404.00 1576.00 L 427.00 1535.00 L 549.00 1321.00 L 550.00 1318.00 L 430.00 1526.00 L 430.00 1524.00 L 550.00 1312.00 L 601.00 1191.00 L 583.00 1161.00 L 592.00 1131.00 L 628.00 1101.00 L 627.00 1099.00 L 589.00 1125.00 L 586.00 1126.00 L 618.00 1102.00 L 617.00 1099.00 L 583.00 1117.00 L 585.00 1114.00 L 623.00 1090.00 L 624.00 1088.00 L 588.00 1108.00 L 587.00 1105.00 L 621.00 1079.00 L 633.00 1059.00 L 623.00 1045.00 L 615.00 1037.00 L 609.00 1035.00 L 582.00 1026.00 Z" fill="black" stroke="black" stroke-width="1"/>
</svg>