<?xml version="1.0" encoding="UTF-8"?>
<svg xmlns="http://www.w3.org/2000/svg" viewBox="272.00 296.00 920.00 1475.00">
  <path d="M 529.00 1080.00 L 527.00 1076.00 L 527.00 1068.00 L 529.00 1056.00 L 522.00 1046.00 L 506.00 1038.00 L 495.00 1031.00 L 489.00 1025.00 L 484.00 1016.00 L 480.00 1004.00 L 479.00 988.00 L 481.00 968.00 L 481.00 955.00 L 479.00 949.00 L 471.00 938.00 L 457.00 922.00 L 451.00 910.00 L 453.00 902.00 L 452.00 892.00 L 448.00 880.00 L 448.00 869.00 L 452.00 859.00 L 445.00 844.00 L 427.00 824.00 L 427.00 822.00 L 445.00 838.00 L 441.00 833.00 L 415.00 807.00 L 415.00 804.00 L 441.00 824.00 L 442.00 821.00 L 418.00 795.00 L 420.00 763.00 L 448.00 725.00 L 466.00 698.00 L 474.00 682.00 L 478.00 659.00 L 478.00 629.00 L 481.00 605.00 L 487.00 587.00 L 488.00 571.00 L 484.00 557.00 L 485.00 539.00 L 491.00 517.00 L 497.00 501.00 L 503.00 491.00 L 517.00 477.00 L 539.00 459.00 L 556.00 441.00 L 568.00 423.00 L 582.00 406.00 L 598.00 390.00 L 611.00 379.00 L 621.00 373.00 L 643.00 364.00 L 677.00 352.00 L 706.00 339.00 L 730.00 325.00 L 769.00 315.00 L 823.00 309.00 L 868.00 306.00 L 904.00 306.00 L 934.00 309.00 L 958.00 315.00 L 979.00 322.00 L 997.00 330.00 L 1017.00 342.00 L 1039.00 358.00 L 1063.00 379.00 L 1089.00 405.00 L 1107.00 425.00 L 1117.00 439.00 L 1130.00 459.00 L 1146.00 485.00 L 1159.00 511.00 L 1169.00 537.00 L 1176.00 560.00 L 1180.00 580.00 L 1182.00 605.00 L 1182.00 635.00 L 1175.00 670.00 L 1161.00 710.00 L 1149.00 739.00 L 1139.00 757.00 L 1117.00 789.00 L 1083.00 835.00 L 1058.00 877.00 L 1042.00 915.00 L 1035.00 937.00 L 1037.00 943.00 L 1044.00 953.00 L 1056.00 967.00 L 1066.00 986.00 L 1074.00 1010.00 L 1081.00 1054.00 L 1087.00 1118.00 L 1090.00 1165.00 L 1090.00 1195.00 L 1088.00 1217.00 L 1084.00 1231.00 L 1085.00 1248.00 L 1091.00 1268.00 L 1093.00 1285.00 L 1091.00 1299.00 L 1095.00 1320.00 L 1105.00 1348.00 L 1114.00 1386.00 L 1122.00 1434.00 L 1128.00 1496.00 L 1132.00 1572.00 L 1130.00 1612.00 L 1122.00 1616.00 L 1103.00 1615.00 L 1073.00 1609.00 L 1028.00 1606.00 L 968.00 1606.00 L 920.00 1609.00 L 884.00 1615.00 L 860.00 1617.00 L 848.00 1615.00 L 835.00 1615.00 L 821.00 1617.00 L 808.00 1620.00 L 796.00 1624.00 L 780.00 1627.00 L 760.00 1629.00 L 729.00 1636.00 L 687.00 1648.00 L 666.00 1651.00 L 666.00 1645.00 L 663.00 1645.00 L 657.00 1651.00 L 652.00 1652.00 L 648.00 1648.00 L 645.00 1649.00 L 643.00 1655.00 L 641.00 1656.00 L 639.00 1652.00 L 631.00 1651.00 L 617.00 1653.00 L 607.00 1659.00 L 601.00 1669.00 L 597.00 1671.00 L 595.00 1665.00 L 593.00 1666.00 L 591.00 1674.00 L 590.00 1675.00 L 590.00 1669.00 L 589.00 1670.00 L 587.00 1678.00 L 585.00 1679.00 L 583.00 1673.00 L 580.00 1674.00 L 576.00 1682.00 L 561.00 1693.00 L 535.00 1707.00 L 492.00 1725.00 L 432.00 1747.00 L 391.00 1759.00 L 369.00 1761.00 L 352.00 1760.00 L 340.00 1756.00 L 327.00 1749.00 L 313.00 1739.00 L 303.00 1730.00 L 297.00 1722.00 L 291.00 1706.00 L 285.00 1682.00 L 282.00 1654.00 L 282.00 1622.00 L 284.00 1590.00 L 288.00 1558.00 L 293.00 1532.00 L 299.00 1512.00 L 314.00 1479.00 L 338.00 1433.00 L 361.00 1395.00 L 383.00 1365.00 L 413.00 1330.00 L 451.00 1290.00 L 478.00 1258.00 L 494.00 1234.00 L 496.00 1224.00 L 484.00 1228.00 L 485.00 1226.00 L 499.00 1218.00 L 493.00 1220.00 L 467.00 1232.00 L 469.00 1229.00 L 499.00 1211.00 L 496.00 1211.00 L 460.00 1229.00 L 462.00 1227.00 L 502.00 1205.00 L 499.00 1205.00 L 453.00 1227.00 L 425.00 1236.00 L 415.00 1232.00 L 422.00 1223.00 L 446.00 1209.00 L 445.00 1207.00 L 419.00 1217.00 L 420.00 1215.00 L 448.00 1201.00 L 470.00 1188.00 L 486.00 1176.00 L 489.00 1164.00 L 479.00 1152.00 L 490.00 1141.00 L 522.00 1131.00 L 523.00 1128.00 L 493.00 1132.00 L 490.00 1131.00 L 514.00 1125.00 L 517.00 1122.00 L 499.00 1122.00 L 502.00 1120.00 L 526.00 1116.00 L 527.00 1115.00 L 505.00 1117.00 L 500.00 1117.00 L 512.00 1115.00 L 513.00 1114.00 L 503.00 1114.00 L 502.00 1113.00 L 510.00 1111.00 L 512.00 1110.00 L 508.00 1110.00 L 514.00 1109.00 L 530.00 1107.00 L 537.00 1103.00 L 535.00 1097.00 L 533.00 1091.00 L 531.00 1085.00 L 529.00 1080.00 Z" fill="black" stroke="black" stroke-width="1"/>
</svg>