<?xml version="1.0" encoding="UTF-8"?>
<svg xmlns="http://www.w3.org/2000/svg" viewBox="394.00 293.00 843.00 1538.00">
  <path d="M 500.00 1066.00 L 492.00 1058.00 L 487.00 1051.00 L 485.00 1045.00 L 486.00 1023.00 L 490.00 985.00 L 486.00 955.00 L 474.00 933.00 L 469.00 919.00 L 471.00 913.00 L 468.00 905.00 L 460.00 895.00 L 458.00 884.00 L 462.00 872.00 L 463.00 856.00 L 461.00 836.00 L 447.00 815.00 L 421.00 793.00 L 421.00 791.00 L 447.00 809.00 L 445.00 806.00 L 415.00 782.00 L 404.00 762.00 L 412.00 746.00 L 429.00 725.00 L 455.00 699.00 L 475.00 674.00 L 489.00 650.00 L 496.00 630.00 L 496.00 614.00 L 500.00 594.00 L 508.00 570.00 L 507.00 547.00 L 497.00 525.00 L 494.00 515.00 L 498.00 517.00 L 504.00 525.00 L 512.00 539.00 L 512.00 536.00 L 504.00 516.00 L 505.00 515.00 L 515.00 533.00 L 517.00 536.00 L 511.00 524.00 L 509.00 513.00 L 511.00 503.00 L 516.00 506.00 L 524.00 522.00 L 525.00 521.00 L 519.00 503.00 L 521.00 500.00 L 531.00 512.00 L 533.00 511.00 L 527.00 497.00 L 529.00 495.00 L 539.00 505.00 L 541.00 503.00 L 535.00 489.00 L 536.00 486.00 L 544.00 494.00 L 546.00 492.00 L 542.00 480.00 L 551.00 467.00 L 573.00 453.00 L 593.00 437.00 L 611.00 419.00 L 626.00 406.00 L 638.00 398.00 L 653.00 391.00 L 671.00 385.00 L 693.00 372.00 L 719.00 352.00 L 760.00 333.00 L 816.00 315.00 L 856.00 305.00 L 880.00 303.00 L 900.00 304.00 L 916.00 308.00 L 939.00 310.00 L 969.00 310.00 L 1001.00 316.00 L 1035.00 328.00 L 1073.00 346.00 L 1115.00 370.00 L 1144.00 392.00 L 1160.00 412.00 L 1172.00 433.00 L 1180.00 455.00 L 1189.00 475.00 L 1199.00 493.00 L 1210.00 527.00 L 1222.00 577.00 L 1227.00 638.00 L 1225.00 710.00 L 1219.00 759.00 L 1209.00 785.00 L 1196.00 812.00 L 1180.00 840.00 L 1169.00 864.00 L 1163.00 884.00 L 1159.00 905.00 L 1157.00 927.00 L 1149.00 945.00 L 1135.00 959.00 L 1133.00 975.00 L 1143.00 993.00 L 1153.00 1040.00 L 1163.00 1116.00 L 1167.00 1166.00 L 1165.00 1190.00 L 1159.00 1213.00 L 1149.00 1235.00 L 1155.00 1275.00 L 1177.00 1333.00 L 1193.00 1381.00 L 1203.00 1419.00 L 1212.00 1464.00 L 1220.00 1516.00 L 1220.00 1544.00 L 1212.00 1548.00 L 1180.00 1555.00 L 1124.00 1565.00 L 1080.00 1576.00 L 1048.00 1588.00 L 997.00 1612.00 L 927.00 1648.00 L 862.00 1687.00 L 802.00 1729.00 L 751.00 1760.00 L 709.00 1780.00 L 674.00 1795.00 L 646.00 1805.00 L 614.00 1813.00 L 578.00 1819.00 L 552.00 1821.00 L 536.00 1819.00 L 520.00 1815.00 L 504.00 1809.00 L 487.00 1797.00 L 469.00 1779.00 L 454.00 1757.00 L 442.00 1731.00 L 435.00 1713.00 L 433.00 1703.00 L 433.00 1674.00 L 435.00 1626.00 L 440.00 1586.00 L 448.00 1554.00 L 461.00 1518.00 L 479.00 1478.00 L 487.00 1459.00 L 485.00 1461.00 L 495.00 1443.00 L 517.00 1405.00 L 527.00 1387.00 L 525.00 1389.00 L 530.00 1376.00 L 542.00 1348.00 L 547.00 1335.00 L 545.00 1337.00 L 551.00 1328.00 L 565.00 1308.00 L 567.00 1302.00 L 557.00 1310.00 L 560.00 1306.00 L 576.00 1290.00 L 562.00 1302.00 L 518.00 1342.00 L 503.00 1355.00 L 517.00 1341.00 L 514.00 1343.00 L 494.00 1361.00 L 492.00 1362.00 L 508.00 1346.00 L 507.00 1345.00 L 489.00 1359.00 L 486.00 1360.00 L 498.00 1348.00 L 497.00 1347.00 L 483.00 1357.00 L 477.00 1357.00 L 479.00 1347.00 L 483.00 1338.00 L 489.00 1330.00 L 489.00 1328.00 L 483.00 1332.00 L 496.00 1315.00 L 528.00 1277.00 L 540.00 1255.00 L 532.00 1249.00 L 540.00 1236.00 L 564.00 1216.00 L 563.00 1213.00 L 537.00 1227.00 L 535.00 1226.00 L 557.00 1210.00 L 558.00 1207.00 L 538.00 1217.00 L 529.00 1221.00 L 531.00 1219.00 L 542.00 1212.00 L 562.00 1200.00 L 568.00 1195.00 L 560.00 1197.00 L 559.00 1196.00 L 565.00 1192.00 L 560.00 1194.00 L 544.00 1202.00 L 538.00 1203.00 L 542.00 1197.00 L 549.00 1191.00 L 559.00 1185.00 L 561.00 1175.00 L 555.00 1161.00 L 546.00 1148.00 L 534.00 1136.00 L 528.00 1128.00 L 528.00 1124.00 L 530.00 1119.00 L 534.00 1113.00 L 539.00 1109.00 L 545.00 1107.00 L 546.00 1106.00 L 542.00 1106.00 L 544.00 1105.00 L 552.00 1103.00 L 555.00 1100.00 L 553.00 1096.00 L 542.00 1090.00 L 522.00 1082.00 L 510.00 1076.00 L 506.00 1072.00 L 500.00 1066.00 Z" fill="black" stroke="black" stroke-width="1"/>
</svg>