<?xml version="1.0" encoding="UTF-8"?>
<svg xmlns="http://www.w3.org/2000/svg" viewBox="333.00 240.00 859.00 1444.00">
  <path d="M 506.00 961.00 L 514.00 951.00 L 523.00 943.00 L 533.00 937.00 L 527.00 927.00 L 505.00 913.00 L 489.00 900.00 L 479.00 888.00 L 476.00 869.00 L 480.00 843.00 L 478.00 824.00 L 470.00 812.00 L 468.00 807.00 L 472.00 809.00 L 471.00 807.00 L 465.00 801.00 L 462.00 796.00 L 462.00 792.00 L 465.00 786.00 L 471.00 778.00 L 475.00 768.00 L 477.00 756.00 L 462.00 735.00 L 430.00 705.00 L 420.00 694.00 L 432.00 702.00 L 431.00 699.00 L 417.00 685.00 L 428.00 693.00 L 464.00 723.00 L 464.00 722.00 L 428.00 690.00 L 428.00 688.00 L 464.00 716.00 L 465.00 714.00 L 431.00 682.00 L 427.00 677.00 L 453.00 699.00 L 454.00 697.00 L 430.00 671.00 L 433.00 672.00 L 463.00 700.00 L 465.00 698.00 L 439.00 666.00 L 445.00 627.00 L 483.00 581.00 L 503.00 552.00 L 505.00 540.00 L 503.00 524.00 L 497.00 504.00 L 498.00 484.00 L 506.00 464.00 L 515.00 448.00 L 525.00 436.00 L 537.00 417.00 L 551.00 391.00 L 557.00 371.00 L 555.00 357.00 L 555.00 348.00 L 557.00 344.00 L 560.00 348.00 L 564.00 360.00 L 565.00 357.00 L 563.00 339.00 L 565.00 337.00 L 571.00 351.00 L 572.00 350.00 L 568.00 334.00 L 568.00 330.00 L 572.00 338.00 L 573.00 337.00 L 571.00 327.00 L 573.00 329.00 L 579.00 343.00 L 582.00 347.00 L 582.00 341.00 L 583.00 340.00 L 585.00 344.00 L 584.00 338.00 L 580.00 322.00 L 580.00 319.00 L 584.00 329.00 L 586.00 328.00 L 586.00 316.00 L 588.00 317.00 L 592.00 331.00 L 594.00 330.00 L 594.00 314.00 L 597.00 311.00 L 603.00 321.00 L 605.00 319.00 L 603.00 305.00 L 604.00 303.00 L 608.00 313.00 L 611.00 312.00 L 613.00 300.00 L 616.00 292.00 L 620.00 288.00 L 645.00 278.00 L 691.00 262.00 L 722.00 253.00 L 738.00 251.00 L 772.00 250.00 L 824.00 250.00 L 873.00 253.00 L 919.00 259.00 L 958.00 268.00 L 990.00 280.00 L 1016.00 293.00 L 1036.00 307.00 L 1057.00 325.00 L 1079.00 347.00 L 1100.00 371.00 L 1120.00 397.00 L 1137.00 430.00 L 1151.00 470.00 L 1161.00 507.00 L 1167.00 541.00 L 1170.00 577.00 L 1170.00 615.00 L 1169.00 636.00 L 1167.00 640.00 L 1167.00 644.00 L 1169.00 648.00 L 1168.00 662.00 L 1164.00 686.00 L 1153.00 726.00 L 1135.00 782.00 L 1122.00 817.00 L 1114.00 831.00 L 1107.00 840.00 L 1101.00 844.00 L 1103.00 855.00 L 1113.00 873.00 L 1120.00 890.00 L 1124.00 906.00 L 1126.00 949.00 L 1126.00 1019.00 L 1124.00 1062.00 L 1120.00 1078.00 L 1121.00 1092.00 L 1127.00 1104.00 L 1140.00 1145.00 L 1160.00 1215.00 L 1173.00 1274.00 L 1179.00 1322.00 L 1182.00 1368.00 L 1182.00 1412.00 L 1181.00 1435.00 L 1179.00 1437.00 L 1175.00 1437.00 L 1169.00 1435.00 L 1146.00 1434.00 L 1106.00 1434.00 L 1044.00 1440.00 L 960.00 1452.00 L 915.00 1460.00 L 909.00 1464.00 L 889.00 1470.00 L 855.00 1478.00 L 808.00 1496.00 L 748.00 1524.00 L 715.00 1542.00 L 709.00 1550.00 L 672.00 1575.00 L 604.00 1617.00 L 556.00 1645.00 L 528.00 1659.00 L 508.00 1668.00 L 496.00 1672.00 L 478.00 1674.00 L 454.00 1674.00 L 431.00 1669.00 L 409.00 1659.00 L 390.00 1646.00 L 374.00 1630.00 L 361.00 1611.00 L 351.00 1589.00 L 345.00 1569.00 L 343.00 1551.00 L 343.00 1524.00 L 345.00 1488.00 L 352.00 1448.00 L 364.00 1404.00 L 377.00 1365.00 L 391.00 1331.00 L 408.00 1296.00 L 428.00 1260.00 L 445.00 1233.00 L 459.00 1215.00 L 474.00 1190.00 L 490.00 1158.00 L 490.00 1144.00 L 474.00 1148.00 L 461.00 1150.00 L 451.00 1150.00 L 441.00 1148.00 L 431.00 1144.00 L 437.00 1134.00 L 459.00 1118.00 L 456.00 1117.00 L 428.00 1131.00 L 420.00 1134.00 L 432.00 1126.00 L 431.00 1125.00 L 417.00 1131.00 L 428.00 1124.00 L 464.00 1104.00 L 464.00 1102.00 L 428.00 1118.00 L 433.00 1114.00 L 479.00 1090.00 L 498.00 1077.00 L 490.00 1075.00 L 484.00 1069.00 L 480.00 1059.00 L 490.00 1048.00 L 514.00 1036.00 L 517.00 1032.00 L 499.00 1036.00 L 498.00 1035.00 L 514.00 1029.00 L 515.00 1027.00 L 501.00 1029.00 L 499.00 1028.00 L 509.00 1024.00 L 511.00 1022.00 L 505.00 1022.00 L 508.00 1020.00 L 520.00 1016.00 L 526.00 1012.00 L 526.00 1008.00 L 521.00 998.00 L 511.00 982.00 L 505.00 972.00 L 503.00 968.00 L 506.00 961.00 Z" fill="black" stroke="black" stroke-width="1"/>
</svg>