<?xml version="1.0" encoding="UTF-8"?>
<svg xmlns="http://www.w3.org/2000/svg" viewBox="416.00 239.00 988.00 1570.00">
  <path d="M 518.00 942.00 L 518.00 934.00 L 523.00 921.00 L 533.00 903.00 L 536.00 889.00 L 532.00 879.00 L 530.00 870.00 L 530.00 862.00 L 528.00 855.00 L 524.00 849.00 L 521.00 837.00 L 519.00 819.00 L 505.00 802.00 L 479.00 786.00 L 464.00 770.00 L 460.00 754.00 L 465.00 731.00 L 479.00 701.00 L 501.00 667.00 L 531.00 629.00 L 545.00 598.00 L 543.00 574.00 L 545.00 554.00 L 551.00 538.00 L 556.00 519.00 L 560.00 497.00 L 558.00 475.00 L 550.00 453.00 L 551.00 448.00 L 561.00 460.00 L 563.00 458.00 L 557.00 442.00 L 565.00 428.00 L 587.00 416.00 L 591.00 396.00 L 577.00 368.00 L 569.00 351.00 L 567.00 345.00 L 569.00 347.00 L 575.00 357.00 L 576.00 355.00 L 572.00 341.00 L 579.00 351.00 L 597.00 385.00 L 599.00 385.00 L 585.00 351.00 L 587.00 350.00 L 605.00 382.00 L 607.00 382.00 L 593.00 350.00 L 595.00 349.00 L 613.00 379.00 L 616.00 379.00 L 604.00 349.00 L 605.00 347.00 L 619.00 373.00 L 621.00 372.00 L 611.00 344.00 L 613.00 345.00 L 627.00 375.00 L 636.00 389.00 L 640.00 387.00 L 636.00 369.00 L 624.00 335.00 L 623.00 314.00 L 633.00 306.00 L 646.00 299.00 L 662.00 293.00 L 682.00 290.00 L 706.00 290.00 L 735.00 294.00 L 769.00 302.00 L 800.00 300.00 L 828.00 288.00 L 855.00 279.00 L 881.00 273.00 L 900.00 271.00 L 912.00 273.00 L 935.00 270.00 L 969.00 262.00 L 995.00 258.00 L 1013.00 258.00 L 1039.00 255.00 L 1073.00 249.00 L 1111.00 249.00 L 1153.00 255.00 L 1185.00 262.00 L 1207.00 270.00 L 1237.00 286.00 L 1275.00 310.00 L 1304.00 332.00 L 1324.00 352.00 L 1347.00 385.00 L 1373.00 431.00 L 1388.00 460.00 L 1392.00 472.00 L 1394.00 486.00 L 1394.00 502.00 L 1391.00 522.00 L 1385.00 546.00 L 1385.00 565.00 L 1391.00 579.00 L 1394.00 594.00 L 1394.00 610.00 L 1392.00 626.00 L 1388.00 642.00 L 1381.00 658.00 L 1371.00 674.00 L 1359.00 699.00 L 1345.00 733.00 L 1333.00 756.00 L 1323.00 768.00 L 1307.00 780.00 L 1285.00 792.00 L 1268.00 807.00 L 1256.00 825.00 L 1244.00 838.00 L 1232.00 846.00 L 1213.00 854.00 L 1187.00 862.00 L 1186.00 863.00 L 1210.00 857.00 L 1196.00 863.00 L 1144.00 881.00 L 1130.00 887.00 L 1154.00 881.00 L 1138.00 888.00 L 1082.00 908.00 L 1061.00 917.00 L 1075.00 915.00 L 1072.00 916.00 L 1052.00 920.00 L 1041.00 924.00 L 1039.00 928.00 L 1041.00 936.00 L 1047.00 948.00 L 1053.00 954.00 L 1059.00 954.00 L 1068.00 959.00 L 1080.00 969.00 L 1089.00 989.00 L 1095.00 1019.00 L 1105.00 1042.00 L 1119.00 1058.00 L 1135.00 1087.00 L 1153.00 1129.00 L 1169.00 1159.00 L 1183.00 1177.00 L 1196.00 1198.00 L 1208.00 1222.00 L 1223.00 1262.00 L 1241.00 1318.00 L 1253.00 1362.00 L 1259.00 1394.00 L 1258.00 1412.00 L 1250.00 1416.00 L 1241.00 1418.00 L 1231.00 1418.00 L 1204.00 1423.00 L 1160.00 1433.00 L 1093.00 1456.00 L 1003.00 1492.00 L 922.00 1531.00 L 850.00 1573.00 L 798.00 1608.00 L 766.00 1636.00 L 729.00 1664.00 L 687.00 1692.00 L 638.00 1730.00 L 582.00 1778.00 L 548.00 1799.00 L 536.00 1793.00 L 523.00 1783.00 L 509.00 1769.00 L 488.00 1742.00 L 460.00 1702.00 L 441.00 1665.00 L 431.00 1631.00 L 426.00 1595.00 L 426.00 1557.00 L 432.00 1521.00 L 444.00 1487.00 L 476.00 1429.00 L 528.00 1347.00 L 552.00 1308.00 L 548.00 1312.00 L 562.00 1291.00 L 594.00 1245.00 L 609.00 1223.00 L 607.00 1225.00 L 618.00 1213.00 L 642.00 1187.00 L 645.00 1183.00 L 627.00 1201.00 L 640.00 1187.00 L 684.00 1141.00 L 695.00 1129.00 L 673.00 1151.00 L 672.00 1149.00 L 692.00 1123.00 L 702.00 1107.00 L 702.00 1101.00 L 696.00 1086.00 L 684.00 1062.00 L 672.00 1045.00 L 660.00 1035.00 L 647.00 1027.00 L 633.00 1021.00 L 619.00 1013.00 L 605.00 1003.00 L 582.00 993.00 L 550.00 983.00 L 530.00 973.00 L 522.00 963.00 L 518.00 955.00 L 518.00 949.00 L 518.00 942.00 Z" fill="black" stroke="black" stroke-width="1"/>
</svg>