<?xml version="1.0" encoding="UTF-8"?>
<svg xmlns="http://www.w3.org/2000/svg" viewBox="270.00 260.00 761.00 1447.00">
  <path d="M 457.00 1001.00 L 439.00 991.00 L 425.00 977.00 L 415.00 959.00 L 410.00 944.00 L 410.00 932.00 L 413.00 919.00 L 419.00 905.00 L 422.00 892.00 L 422.00 880.00 L 420.00 867.00 L 416.00 853.00 L 415.00 840.00 L 417.00 828.00 L 415.00 819.00 L 409.00 813.00 L 407.00 803.00 L 409.00 789.00 L 394.00 765.00 L 362.00 731.00 L 362.00 728.00 L 394.00 756.00 L 404.00 764.00 L 392.00 752.00 L 391.00 749.00 L 401.00 755.00 L 392.00 744.00 L 364.00 716.00 L 354.00 696.00 L 362.00 684.00 L 383.00 661.00 L 417.00 627.00 L 437.00 605.00 L 443.00 595.00 L 446.00 578.00 L 446.00 554.00 L 440.00 528.00 L 428.00 500.00 L 429.00 498.00 L 443.00 522.00 L 444.00 520.00 L 432.00 492.00 L 432.00 490.00 L 444.00 514.00 L 445.00 512.00 L 435.00 484.00 L 431.00 469.00 L 433.00 467.00 L 439.00 478.00 L 449.00 502.00 L 451.00 501.00 L 445.00 475.00 L 446.00 472.00 L 454.00 492.00 L 456.00 494.00 L 452.00 478.00 L 453.00 476.00 L 459.00 488.00 L 459.00 484.00 L 453.00 464.00 L 454.00 462.00 L 462.00 478.00 L 463.00 476.00 L 457.00 456.00 L 456.00 448.00 L 460.00 452.00 L 461.00 448.00 L 459.00 436.00 L 462.00 441.00 L 470.00 463.00 L 471.00 461.00 L 465.00 435.00 L 466.00 432.00 L 474.00 452.00 L 475.00 450.00 L 469.00 426.00 L 470.00 424.00 L 478.00 444.00 L 479.00 443.00 L 473.00 421.00 L 472.00 415.00 L 476.00 425.00 L 477.00 424.00 L 475.00 412.00 L 477.00 415.00 L 483.00 433.00 L 485.00 438.00 L 483.00 430.00 L 484.00 428.00 L 488.00 432.00 L 488.00 425.00 L 484.00 407.00 L 485.00 405.00 L 491.00 419.00 L 492.00 418.00 L 488.00 402.00 L 489.00 400.00 L 495.00 412.00 L 497.00 411.00 L 495.00 397.00 L 496.00 396.00 L 500.00 408.00 L 501.00 407.00 L 499.00 393.00 L 500.00 385.00 L 504.00 383.00 L 509.00 376.00 L 515.00 364.00 L 537.00 342.00 L 575.00 310.00 L 616.00 288.00 L 660.00 276.00 L 693.00 270.00 L 715.00 270.00 L 733.00 273.00 L 747.00 279.00 L 769.00 283.00 L 799.00 285.00 L 829.00 298.00 L 859.00 322.00 L 883.00 338.00 L 901.00 346.00 L 918.00 357.00 L 934.00 371.00 L 950.00 391.00 L 966.00 417.00 L 980.00 447.00 L 992.00 481.00 L 1001.00 513.00 L 1007.00 543.00 L 1011.00 565.00 L 1013.00 579.00 L 1013.00 613.00 L 1011.00 667.00 L 994.00 732.00 L 962.00 808.00 L 948.00 848.00 L 952.00 852.00 L 957.00 863.00 L 963.00 881.00 L 967.00 900.00 L 969.00 920.00 L 970.00 957.00 L 970.00 1011.00 L 969.00 1041.00 L 967.00 1047.00 L 969.00 1061.00 L 975.00 1083.00 L 978.00 1101.00 L 978.00 1115.00 L 983.00 1146.00 L 993.00 1194.00 L 999.00 1234.00 L 1001.00 1266.00 L 1004.00 1291.00 L 1008.00 1309.00 L 1013.00 1359.00 L 1019.00 1441.00 L 1021.00 1515.00 L 1019.00 1581.00 L 1011.00 1615.00 L 997.00 1617.00 L 974.00 1616.00 L 942.00 1612.00 L 891.00 1610.00 L 821.00 1610.00 L 764.00 1612.00 L 720.00 1616.00 L 640.00 1631.00 L 524.00 1657.00 L 451.00 1676.00 L 421.00 1688.00 L 400.00 1695.00 L 388.00 1697.00 L 372.00 1696.00 L 352.00 1692.00 L 331.00 1681.00 L 309.00 1663.00 L 295.00 1647.00 L 289.00 1633.00 L 284.00 1616.00 L 280.00 1596.00 L 280.00 1564.00 L 284.00 1520.00 L 297.00 1472.00 L 319.00 1420.00 L 329.00 1395.00 L 327.00 1397.00 L 330.00 1392.00 L 338.00 1380.00 L 340.00 1376.00 L 336.00 1380.00 L 354.00 1352.00 L 394.00 1292.00 L 413.00 1263.00 L 411.00 1265.00 L 413.00 1261.00 L 419.00 1251.00 L 423.00 1241.00 L 425.00 1231.00 L 431.00 1219.00 L 441.00 1205.00 L 437.00 1202.00 L 419.00 1210.00 L 401.00 1213.00 L 383.00 1211.00 L 397.00 1193.00 L 443.00 1159.00 L 441.00 1158.00 L 391.00 1190.00 L 388.00 1191.00 L 432.00 1161.00 L 434.00 1158.00 L 394.00 1182.00 L 395.00 1180.00 L 437.00 1152.00 L 433.00 1154.00 L 383.00 1186.00 L 379.00 1188.00 L 421.00 1160.00 L 438.00 1148.00 L 430.00 1152.00 L 432.00 1149.00 L 444.00 1139.00 L 446.00 1131.00 L 438.00 1125.00 L 434.00 1119.00 L 434.00 1113.00 L 444.00 1101.00 L 464.00 1083.00 L 474.00 1071.00 L 474.00 1065.00 L 470.00 1054.00 L 462.00 1038.00 L 459.00 1026.00 L 461.00 1018.00 L 465.00 1013.00 L 471.00 1011.00 L 472.00 1009.00 L 468.00 1007.00 L 457.00 1001.00 Z" fill="black" stroke="black" stroke-width="1"/>
</svg>