<?xml version="1.0" encoding="UTF-8"?>
<svg xmlns="http://www.w3.org/2000/svg" viewBox="392.00 259.00 787.00 1494.00">
  <path d="M 500.00 1006.00 L 488.00 990.00 L 483.00 974.00 L 485.00 958.00 L 480.00 939.00 L 468.00 917.00 L 462.00 901.00 L 462.00 891.00 L 464.00 886.00 L 468.00 886.00 L 465.00 882.00 L 455.00 874.00 L 450.00 857.00 L 450.00 831.00 L 438.00 809.00 L 414.00 791.00 L 415.00 789.00 L 441.00 803.00 L 441.00 800.00 L 415.00 780.00 L 402.00 767.00 L 402.00 761.00 L 425.00 732.00 L 471.00 680.00 L 492.00 643.00 L 488.00 621.00 L 488.00 597.00 L 492.00 571.00 L 498.00 553.00 L 506.00 543.00 L 515.00 524.00 L 525.00 496.00 L 548.00 464.00 L 584.00 428.00 L 606.00 401.00 L 614.00 383.00 L 639.00 357.00 L 681.00 323.00 L 716.00 300.00 L 744.00 288.00 L 780.00 278.00 L 824.00 270.00 L 857.00 269.00 L 879.00 275.00 L 900.00 277.00 L 920.00 275.00 L 946.00 279.00 L 978.00 289.00 L 1017.00 310.00 L 1063.00 342.00 L 1096.00 369.00 L 1116.00 391.00 L 1134.00 418.00 L 1150.00 450.00 L 1161.00 491.00 L 1167.00 541.00 L 1169.00 592.00 L 1167.00 644.00 L 1158.00 703.00 L 1142.00 769.00 L 1134.00 805.00 L 1134.00 811.00 L 1137.00 815.00 L 1143.00 817.00 L 1149.00 823.00 L 1155.00 833.00 L 1150.00 843.00 L 1134.00 853.00 L 1133.00 856.00 L 1147.00 852.00 L 1150.00 852.00 L 1142.00 856.00 L 1141.00 858.00 L 1147.00 858.00 L 1151.00 862.00 L 1153.00 870.00 L 1145.00 880.00 L 1127.00 892.00 L 1129.00 895.00 L 1151.00 889.00 L 1151.00 891.00 L 1129.00 901.00 L 1129.00 903.00 L 1151.00 897.00 L 1151.00 900.00 L 1129.00 912.00 L 1130.00 915.00 L 1154.00 909.00 L 1154.00 911.00 L 1130.00 921.00 L 1130.00 924.00 L 1154.00 920.00 L 1154.00 922.00 L 1130.00 930.00 L 1130.00 933.00 L 1154.00 931.00 L 1154.00 933.00 L 1130.00 939.00 L 1118.00 944.00 L 1118.00 948.00 L 1130.00 948.00 L 1154.00 944.00 L 1167.00 944.00 L 1169.00 948.00 L 1157.00 953.00 L 1131.00 959.00 L 1131.00 961.00 L 1157.00 959.00 L 1157.00 962.00 L 1131.00 970.00 L 1132.00 972.00 L 1160.00 968.00 L 1161.00 970.00 L 1135.00 978.00 L 1136.00 982.00 L 1164.00 982.00 L 1164.00 984.00 L 1136.00 988.00 L 1136.00 991.00 L 1164.00 993.00 L 1164.00 996.00 L 1136.00 1000.00 L 1126.00 1054.00 L 1134.00 1158.00 L 1142.00 1228.00 L 1150.00 1264.00 L 1155.00 1296.00 L 1157.00 1324.00 L 1156.00 1342.00 L 1152.00 1350.00 L 1153.00 1374.00 L 1159.00 1414.00 L 1158.00 1438.00 L 1150.00 1446.00 L 1124.00 1455.00 L 1080.00 1465.00 L 1022.00 1485.00 L 950.00 1515.00 L 888.00 1545.00 L 836.00 1575.00 L 759.00 1625.00 L 657.00 1695.00 L 596.00 1734.00 L 576.00 1742.00 L 551.00 1743.00 L 521.00 1737.00 L 498.00 1727.00 L 482.00 1713.00 L 466.00 1690.00 L 450.00 1658.00 L 439.00 1611.00 L 433.00 1549.00 L 438.00 1483.00 L 454.00 1413.00 L 472.00 1358.00 L 492.00 1318.00 L 513.00 1285.00 L 535.00 1259.00 L 552.00 1235.00 L 564.00 1213.00 L 566.00 1205.00 L 558.00 1211.00 L 561.00 1208.00 L 575.00 1196.00 L 569.00 1199.00 L 543.00 1217.00 L 544.00 1215.00 L 572.00 1193.00 L 570.00 1193.00 L 538.00 1215.00 L 519.00 1227.00 L 513.00 1229.00 L 515.00 1224.00 L 525.00 1212.00 L 523.00 1210.00 L 509.00 1218.00 L 510.00 1216.00 L 526.00 1204.00 L 528.00 1202.00 L 516.00 1210.00 L 524.00 1200.00 L 552.00 1172.00 L 564.00 1159.00 L 560.00 1161.00 L 559.00 1160.00 L 561.00 1156.00 L 560.00 1150.00 L 556.00 1142.00 L 563.00 1132.00 L 581.00 1120.00 L 582.00 1117.00 L 566.00 1123.00 L 565.00 1121.00 L 579.00 1111.00 L 581.00 1108.00 L 571.00 1112.00 L 570.00 1108.00 L 578.00 1096.00 L 577.00 1084.00 L 567.00 1072.00 L 568.00 1061.00 L 580.00 1051.00 L 568.00 1040.00 L 532.00 1028.00 L 512.00 1020.00 L 508.00 1016.00 L 500.00 1006.00 Z" fill="black" stroke="black" stroke-width="1"/>
</svg>