<?xml version="1.0" encoding="UTF-8"?>
<svg xmlns="http://www.w3.org/2000/svg" viewBox="319.00 187.00 815.00 1494.00">
  <path d="M 418.00 848.00 L 410.00 812.00 L 401.00 789.00 L 391.00 779.00 L 386.00 766.00 L 386.00 750.00 L 374.00 733.00 L 350.00 715.00 L 335.00 698.00 L 329.00 682.00 L 343.00 645.00 L 377.00 587.00 L 395.00 550.00 L 397.00 534.00 L 393.00 518.00 L 383.00 502.00 L 383.00 500.00 L 393.00 512.00 L 392.00 509.00 L 380.00 491.00 L 380.00 489.00 L 392.00 503.00 L 393.00 501.00 L 383.00 483.00 L 384.00 480.00 L 396.00 492.00 L 397.00 490.00 L 387.00 474.00 L 387.00 471.00 L 397.00 481.00 L 398.00 480.00 L 390.00 468.00 L 391.00 464.00 L 401.00 468.00 L 403.00 460.00 L 397.00 440.00 L 398.00 436.00 L 406.00 448.00 L 406.00 446.00 L 398.00 430.00 L 399.00 427.00 L 409.00 437.00 L 410.00 435.00 L 402.00 421.00 L 403.00 419.00 L 413.00 429.00 L 414.00 427.00 L 406.00 413.00 L 405.00 410.00 L 411.00 418.00 L 412.00 416.00 L 408.00 404.00 L 410.00 404.00 L 418.00 416.00 L 419.00 414.00 L 413.00 398.00 L 414.00 397.00 L 422.00 411.00 L 424.00 409.00 L 420.00 391.00 L 422.00 387.00 L 430.00 397.00 L 431.00 396.00 L 425.00 384.00 L 426.00 382.00 L 434.00 390.00 L 435.00 388.00 L 429.00 376.00 L 430.00 374.00 L 438.00 382.00 L 441.00 377.00 L 439.00 359.00 L 467.00 325.00 L 525.00 275.00 L 584.00 239.00 L 644.00 217.00 L 696.00 203.00 L 740.00 197.00 L 789.00 202.00 L 843.00 218.00 L 874.00 220.00 L 882.00 208.00 L 892.00 201.00 L 904.00 199.00 L 920.00 209.00 L 940.00 231.00 L 958.00 239.00 L 974.00 233.00 L 990.00 248.00 L 1006.00 284.00 L 1031.00 320.00 L 1065.00 356.00 L 1093.00 404.00 L 1115.00 464.00 L 1124.00 517.00 L 1120.00 563.00 L 1110.00 602.00 L 1094.00 634.00 L 1072.00 658.00 L 1044.00 674.00 L 1028.00 684.00 L 1024.00 688.00 L 1035.00 683.00 L 1061.00 669.00 L 1038.00 688.00 L 966.00 740.00 L 935.00 764.00 L 945.00 760.00 L 944.00 763.00 L 932.00 773.00 L 925.00 784.00 L 923.00 796.00 L 924.00 830.00 L 928.00 886.00 L 935.00 922.00 L 945.00 938.00 L 951.00 956.00 L 953.00 976.00 L 964.00 1002.00 L 984.00 1034.00 L 997.00 1064.00 L 1003.00 1092.00 L 1021.00 1142.00 L 1051.00 1214.00 L 1028.00 1267.00 L 952.00 1301.00 L 877.00 1341.00 L 803.00 1387.00 L 725.00 1441.00 L 643.00 1503.00 L 564.00 1570.00 L 488.00 1642.00 L 435.00 1671.00 L 405.00 1657.00 L 381.00 1640.00 L 363.00 1620.00 L 415.00 1471.00 L 537.00 1193.00 L 534.00 1190.00 L 406.00 1462.00 L 401.00 1471.00 L 519.00 1217.00 L 518.00 1215.00 L 398.00 1465.00 L 403.00 1454.00 L 533.00 1182.00 L 531.00 1179.00 L 397.00 1445.00 L 386.00 1464.00 L 498.00 1236.00 L 497.00 1232.00 L 383.00 1452.00 L 394.00 1430.00 L 530.00 1166.00 L 529.00 1163.00 L 391.00 1421.00 L 371.00 1457.00 L 469.00 1271.00 L 468.00 1269.00 L 368.00 1451.00 L 364.00 1456.00 L 456.00 1284.00 L 456.00 1281.00 L 364.00 1447.00 L 388.00 1403.00 L 528.00 1149.00 L 527.00 1147.00 L 385.00 1397.00 L 353.00 1452.00 L 431.00 1312.00 L 431.00 1309.00 L 353.00 1443.00 L 350.00 1447.00 L 422.00 1321.00 L 422.00 1320.00 L 350.00 1444.00 L 348.00 1447.00 L 416.00 1329.00 L 416.00 1327.00 L 348.00 1441.00 L 385.00 1377.00 L 527.00 1135.00 L 527.00 1133.00 L 385.00 1371.00 L 341.00 1444.00 L 395.00 1352.00 L 395.00 1350.00 L 341.00 1438.00 L 339.00 1440.00 L 389.00 1356.00 L 390.00 1353.00 L 342.00 1431.00 L 339.00 1435.00 L 381.00 1365.00 L 382.00 1362.00 L 342.00 1426.00 L 340.00 1428.00 L 376.00 1368.00 L 376.00 1367.00 L 340.00 1425.00 L 339.00 1426.00 L 373.00 1370.00 L 375.00 1365.00 L 345.00 1411.00 L 343.00 1413.00 L 369.00 1371.00 L 370.00 1369.00 L 346.00 1407.00 L 343.00 1411.00 L 361.00 1381.00 L 363.00 1376.00 L 349.00 1396.00 L 405.00 1307.00 L 531.00 1109.00 L 589.00 996.00 L 579.00 968.00 L 548.00 946.00 L 496.00 930.00 L 458.00 910.00 L 434.00 886.00 L 422.00 872.00 L 422.00 868.00 L 418.00 848.00 Z" fill="black" stroke="black" stroke-width="1"/>
</svg>