<?xml version="1.0" encoding="UTF-8"?>
<svg xmlns="http://www.w3.org/2000/svg" viewBox="372.00 309.00 898.00 1455.00">
  <path d="M 633.00 1012.00 L 615.00 992.00 L 606.00 967.00 L 606.00 937.00 L 601.00 918.00 L 591.00 910.00 L 586.00 900.00 L 586.00 888.00 L 583.00 879.00 L 577.00 873.00 L 575.00 863.00 L 577.00 849.00 L 565.00 831.00 L 539.00 809.00 L 539.00 807.00 L 565.00 825.00 L 564.00 823.00 L 536.00 801.00 L 536.00 799.00 L 564.00 817.00 L 564.00 815.00 L 536.00 793.00 L 534.00 791.00 L 558.00 809.00 L 558.00 807.00 L 534.00 785.00 L 539.00 749.00 L 573.00 699.00 L 591.00 655.00 L 593.00 617.00 L 590.00 588.00 L 582.00 568.00 L 583.00 565.00 L 593.00 579.00 L 594.00 577.00 L 586.00 559.00 L 587.00 556.00 L 597.00 568.00 L 598.00 566.00 L 590.00 550.00 L 590.00 547.00 L 598.00 557.00 L 600.00 555.00 L 596.00 541.00 L 597.00 539.00 L 603.00 549.00 L 604.00 545.00 L 600.00 527.00 L 601.00 524.00 L 607.00 536.00 L 611.00 541.00 L 613.00 539.00 L 611.00 528.00 L 605.00 508.00 L 606.00 505.00 L 614.00 519.00 L 615.00 517.00 L 609.00 499.00 L 610.00 497.00 L 618.00 511.00 L 619.00 509.00 L 613.00 491.00 L 614.00 489.00 L 622.00 503.00 L 624.00 501.00 L 620.00 483.00 L 622.00 480.00 L 630.00 492.00 L 633.00 489.00 L 631.00 471.00 L 633.00 468.00 L 639.00 480.00 L 641.00 479.00 L 639.00 465.00 L 645.00 454.00 L 659.00 446.00 L 674.00 433.00 L 690.00 415.00 L 712.00 395.00 L 740.00 373.00 L 789.00 351.00 L 859.00 329.00 L 926.00 319.00 L 990.00 321.00 L 1051.00 335.00 L 1109.00 361.00 L 1147.00 383.00 L 1165.00 401.00 L 1185.00 430.00 L 1207.00 470.00 L 1222.00 507.00 L 1230.00 541.00 L 1233.00 578.00 L 1231.00 618.00 L 1227.00 652.00 L 1221.00 680.00 L 1203.00 727.00 L 1173.00 793.00 L 1148.00 839.00 L 1128.00 865.00 L 1106.00 885.00 L 1082.00 899.00 L 1081.00 901.00 L 1103.00 891.00 L 1103.00 894.00 L 1081.00 910.00 L 1077.00 915.00 L 1091.00 909.00 L 1090.00 911.00 L 1074.00 921.00 L 1066.00 929.00 L 1066.00 935.00 L 1072.00 945.00 L 1084.00 959.00 L 1091.00 972.00 L 1093.00 984.00 L 1100.00 993.00 L 1112.00 999.00 L 1122.00 1014.00 L 1130.00 1038.00 L 1142.00 1062.00 L 1158.00 1086.00 L 1168.00 1107.00 L 1172.00 1125.00 L 1188.00 1163.00 L 1216.00 1221.00 L 1240.00 1288.00 L 1260.00 1364.00 L 1233.00 1410.00 L 1159.00 1426.00 L 1086.00 1447.00 L 1014.00 1473.00 L 947.00 1502.00 L 885.00 1534.00 L 780.00 1601.00 L 632.00 1703.00 L 554.00 1754.00 L 546.00 1754.00 L 522.00 1740.00 L 482.00 1712.00 L 540.00 1557.00 L 696.00 1275.00 L 694.00 1274.00 L 534.00 1554.00 L 534.00 1553.00 L 694.00 1271.00 L 692.00 1269.00 L 528.00 1547.00 L 443.00 1683.00 L 437.00 1677.00 L 516.00 1541.00 L 680.00 1275.00 L 679.00 1274.00 L 513.00 1538.00 L 427.00 1667.00 L 421.00 1661.00 L 506.00 1524.00 L 682.00 1256.00 L 681.00 1254.00 L 503.00 1518.00 L 498.00 1525.00 L 666.00 1275.00 L 665.00 1273.00 L 495.00 1519.00 L 408.00 1639.00 L 404.00 1633.00 L 487.00 1511.00 L 657.00 1273.00 L 656.00 1271.00 L 484.00 1505.00 L 490.00 1496.00 L 674.00 1244.00 L 673.00 1242.00 L 487.00 1490.00 L 392.00 1609.00 L 388.00 1599.00 L 470.00 1487.00 L 638.00 1273.00 L 638.00 1271.00 L 470.00 1481.00 L 468.00 1483.00 L 632.00 1277.00 L 631.00 1275.00 L 465.00 1477.00 L 477.00 1462.00 L 667.00 1230.00 L 667.00 1227.00 L 477.00 1453.00 L 463.00 1469.00 L 625.00 1275.00 L 625.00 1272.00 L 463.00 1460.00 L 382.00 1551.00 L 382.00 1545.00 L 458.00 1455.00 L 610.00 1281.00 L 610.00 1279.00 L 458.00 1449.00 L 476.00 1428.00 L 664.00 1216.00 L 665.00 1212.00 L 479.00 1416.00 L 454.00 1443.00 L 590.00 1293.00 L 591.00 1291.00 L 457.00 1437.00 L 455.00 1439.00 L 585.00 1297.00 L 586.00 1294.00 L 458.00 1430.00 L 456.00 1431.00 L 580.00 1297.00 L 581.00 1294.00 L 459.00 1422.00 L 448.00 1433.00 L 548.00 1327.00 L 551.00 1323.00 L 457.00 1421.00 L 431.00 1447.00 L 473.00 1401.00 L 475.00 1397.00 L 437.00 1435.00 L 431.00 1440.00 L 457.00 1412.00 L 460.00 1408.00 L 440.00 1428.00 L 510.00 1355.00 L 670.00 1189.00 L 735.00 1098.00 L 705.00 1082.00 L 681.00 1062.00 L 663.00 1038.00 L 651.00 1025.00 L 645.00 1023.00 L 633.00 1012.00 Z" fill="black" stroke="black" stroke-width="1"/>
</svg>