<?xml version="1.0" encoding="UTF-8"?>
<svg xmlns="http://www.w3.org/2000/svg" viewBox="437.00 202.00 871.00 1552.00">
  <path d="M 662.00 946.00 L 670.00 946.00 L 662.00 938.00 L 638.00 922.00 L 621.00 908.00 L 611.00 896.00 L 606.00 872.00 L 606.00 836.00 L 604.00 814.00 L 600.00 806.00 L 600.00 802.00 L 604.00 802.00 L 601.00 798.00 L 591.00 790.00 L 588.00 779.00 L 592.00 765.00 L 591.00 755.00 L 585.00 749.00 L 584.00 739.00 L 588.00 725.00 L 577.00 704.00 L 551.00 676.00 L 551.00 673.00 L 577.00 695.00 L 575.00 691.00 L 545.00 661.00 L 532.00 641.00 L 536.00 631.00 L 546.00 619.00 L 562.00 605.00 L 582.00 582.00 L 606.00 550.00 L 620.00 518.00 L 624.00 486.00 L 633.00 458.00 L 647.00 434.00 L 651.00 414.00 L 645.00 398.00 L 644.00 392.00 L 648.00 396.00 L 649.00 394.00 L 647.00 386.00 L 650.00 390.00 L 658.00 406.00 L 661.00 403.00 L 659.00 381.00 L 661.00 377.00 L 667.00 391.00 L 670.00 390.00 L 670.00 374.00 L 672.00 371.00 L 676.00 381.00 L 677.00 379.00 L 675.00 365.00 L 678.00 362.00 L 686.00 370.00 L 689.00 369.00 L 687.00 359.00 L 688.00 357.00 L 692.00 363.00 L 693.00 361.00 L 691.00 351.00 L 693.00 350.00 L 699.00 358.00 L 701.00 357.00 L 699.00 347.00 L 700.00 344.00 L 704.00 348.00 L 705.00 345.00 L 703.00 335.00 L 704.00 328.00 L 708.00 324.00 L 712.00 328.00 L 716.00 340.00 L 718.00 337.00 L 718.00 319.00 L 720.00 314.00 L 724.00 322.00 L 725.00 321.00 L 723.00 311.00 L 725.00 313.00 L 731.00 327.00 L 734.00 326.00 L 734.00 310.00 L 737.00 306.00 L 743.00 314.00 L 745.00 312.00 L 743.00 300.00 L 744.00 298.00 L 748.00 306.00 L 752.00 304.00 L 756.00 292.00 L 766.00 284.00 L 782.00 280.00 L 799.00 270.00 L 817.00 254.00 L 845.00 243.00 L 883.00 237.00 L 910.00 230.00 L 926.00 222.00 L 966.00 216.00 L 1030.00 212.00 L 1082.00 214.00 L 1122.00 222.00 L 1154.00 233.00 L 1178.00 247.00 L 1206.00 272.00 L 1238.00 308.00 L 1261.00 341.00 L 1275.00 371.00 L 1281.00 395.00 L 1279.00 413.00 L 1281.00 429.00 L 1287.00 443.00 L 1290.00 462.00 L 1290.00 486.00 L 1292.00 503.00 L 1296.00 513.00 L 1298.00 546.00 L 1298.00 602.00 L 1294.00 655.00 L 1286.00 705.00 L 1250.00 748.00 L 1186.00 784.00 L 1186.00 787.00 L 1250.00 757.00 L 1250.00 759.00 L 1186.00 793.00 L 1185.00 796.00 L 1247.00 768.00 L 1255.00 765.00 L 1209.00 787.00 L 1207.00 790.00 L 1249.00 774.00 L 1263.00 770.00 L 1249.00 778.00 L 1247.00 780.00 L 1257.00 776.00 L 1236.00 786.00 L 1184.00 810.00 L 1163.00 846.00 L 1173.00 894.00 L 1178.00 949.00 L 1178.00 1011.00 L 1172.00 1057.00 L 1160.00 1087.00 L 1159.00 1120.00 L 1169.00 1156.00 L 1188.00 1209.00 L 1216.00 1279.00 L 1238.00 1346.00 L 1254.00 1410.00 L 1233.00 1448.00 L 1175.00 1460.00 L 1109.00 1480.00 L 1035.00 1508.00 L 954.00 1546.00 L 866.00 1594.00 L 800.00 1634.00 L 756.00 1666.00 L 718.00 1691.00 L 686.00 1709.00 L 651.00 1725.00 L 613.00 1739.00 L 593.00 1744.00 L 591.00 1740.00 L 586.00 1740.00 L 578.00 1744.00 L 562.00 1743.00 L 538.00 1737.00 L 518.00 1728.00 L 502.00 1716.00 L 487.00 1701.00 L 473.00 1683.00 L 462.00 1661.00 L 454.00 1635.00 L 449.00 1605.00 L 447.00 1571.00 L 451.00 1528.00 L 461.00 1476.00 L 465.00 1451.00 L 463.00 1453.00 L 471.00 1429.00 L 489.00 1379.00 L 497.00 1355.00 L 495.00 1357.00 L 510.00 1328.00 L 542.00 1268.00 L 568.00 1224.00 L 588.00 1196.00 L 602.00 1172.00 L 610.00 1152.00 L 622.00 1132.00 L 638.00 1112.00 L 641.00 1105.00 L 631.00 1111.00 L 632.00 1108.00 L 644.00 1096.00 L 640.00 1096.00 L 620.00 1108.00 L 618.00 1108.00 L 634.00 1096.00 L 631.00 1097.00 L 609.00 1111.00 L 597.00 1117.00 L 595.00 1115.00 L 599.00 1106.00 L 609.00 1090.00 L 621.00 1077.00 L 635.00 1067.00 L 638.00 1064.00 L 630.00 1068.00 L 629.00 1067.00 L 635.00 1061.00 L 631.00 1055.00 L 617.00 1049.00 L 623.00 1040.00 L 649.00 1028.00 L 648.00 1025.00 L 620.00 1031.00 L 620.00 1029.00 L 648.00 1019.00 L 650.00 1017.00 L 626.00 1023.00 L 625.00 1021.00 L 647.00 1011.00 L 650.00 1007.00 L 634.00 1009.00 L 634.00 1007.00 L 650.00 1001.00 L 655.00 987.00 L 649.00 965.00 L 649.00 952.00 L 655.00 948.00 L 662.00 946.00 Z" fill="black" stroke="black" stroke-width="1"/>
</svg>