<?xml version="1.0" encoding="UTF-8"?>
<svg xmlns="http://www.w3.org/2000/svg" viewBox="393.00 246.00 914.00 1559.00">
  <path d="M 518.00 992.00 L 510.00 968.00 L 511.00 944.00 L 521.00 920.00 L 518.00 901.00 L 502.00 887.00 L 496.00 873.00 L 500.00 859.00 L 499.00 848.00 L 493.00 840.00 L 493.00 821.00 L 499.00 791.00 L 493.00 766.00 L 475.00 746.00 L 464.00 730.00 L 460.00 718.00 L 484.00 684.00 L 536.00 628.00 L 564.00 578.00 L 568.00 534.00 L 567.00 505.00 L 561.00 491.00 L 562.00 489.00 L 570.00 499.00 L 571.00 497.00 L 565.00 483.00 L 566.00 480.00 L 574.00 488.00 L 577.00 484.00 L 575.00 468.00 L 577.00 466.00 L 583.00 478.00 L 584.00 476.00 L 580.00 460.00 L 581.00 458.00 L 587.00 470.00 L 588.00 468.00 L 584.00 452.00 L 585.00 450.00 L 591.00 462.00 L 592.00 458.00 L 588.00 438.00 L 589.00 436.00 L 595.00 452.00 L 598.00 457.00 L 598.00 451.00 L 599.00 450.00 L 601.00 454.00 L 599.00 445.00 L 593.00 423.00 L 594.00 421.00 L 602.00 439.00 L 605.00 445.00 L 603.00 439.00 L 604.00 437.00 L 608.00 439.00 L 607.00 431.00 L 601.00 413.00 L 602.00 410.00 L 610.00 422.00 L 612.00 419.00 L 608.00 401.00 L 609.00 398.00 L 615.00 410.00 L 617.00 409.00 L 615.00 395.00 L 616.00 392.00 L 620.00 400.00 L 623.00 398.00 L 625.00 386.00 L 633.00 376.00 L 647.00 368.00 L 666.00 352.00 L 690.00 328.00 L 739.00 303.00 L 813.00 277.00 L 865.00 264.00 L 895.00 264.00 L 917.00 262.00 L 931.00 258.00 L 956.00 256.00 L 992.00 256.00 L 1021.00 259.00 L 1043.00 265.00 L 1084.00 286.00 L 1144.00 322.00 L 1187.00 352.00 L 1213.00 376.00 L 1235.00 402.00 L 1253.00 430.00 L 1268.00 460.00 L 1280.00 492.00 L 1289.00 525.00 L 1295.00 559.00 L 1297.00 590.00 L 1295.00 618.00 L 1288.00 653.00 L 1276.00 695.00 L 1257.00 743.00 L 1231.00 797.00 L 1205.00 847.00 L 1179.00 893.00 L 1159.00 918.00 L 1145.00 922.00 L 1142.00 924.00 L 1150.00 924.00 L 1151.00 926.00 L 1145.00 930.00 L 1147.00 944.00 L 1157.00 968.00 L 1165.00 997.00 L 1171.00 1031.00 L 1172.00 1062.00 L 1168.00 1090.00 L 1167.00 1114.00 L 1169.00 1134.00 L 1180.00 1164.00 L 1200.00 1204.00 L 1215.00 1242.00 L 1225.00 1278.00 L 1234.00 1323.00 L 1242.00 1377.00 L 1245.00 1411.00 L 1243.00 1425.00 L 1220.00 1435.00 L 1176.00 1441.00 L 1132.00 1450.00 L 1088.00 1462.00 L 1030.00 1482.00 L 958.00 1510.00 L 887.00 1544.00 L 817.00 1584.00 L 730.00 1647.00 L 626.00 1733.00 L 562.00 1781.00 L 538.00 1791.00 L 514.00 1795.00 L 490.00 1793.00 L 469.00 1785.00 L 451.00 1771.00 L 436.00 1754.00 L 424.00 1734.00 L 415.00 1711.00 L 409.00 1685.00 L 405.00 1653.00 L 403.00 1615.00 L 405.00 1580.00 L 411.00 1548.00 L 421.00 1511.00 L 435.00 1469.00 L 463.00 1409.00 L 505.00 1331.00 L 529.00 1280.00 L 535.00 1256.00 L 547.00 1231.00 L 565.00 1205.00 L 554.00 1206.00 L 514.00 1234.00 L 509.00 1236.00 L 539.00 1212.00 L 536.00 1212.00 L 500.00 1236.00 L 474.00 1248.00 L 458.00 1248.00 L 462.00 1237.00 L 486.00 1215.00 L 484.00 1213.00 L 456.00 1231.00 L 467.00 1222.00 L 517.00 1186.00 L 537.00 1171.00 L 527.00 1177.00 L 526.00 1177.00 L 534.00 1171.00 L 532.00 1166.00 L 520.00 1162.00 L 512.00 1156.00 L 508.00 1148.00 L 519.00 1137.00 L 545.00 1123.00 L 546.00 1121.00 L 522.00 1131.00 L 520.00 1131.00 L 540.00 1121.00 L 542.00 1118.00 L 526.00 1122.00 L 527.00 1119.00 L 545.00 1109.00 L 548.00 1106.00 L 536.00 1110.00 L 536.00 1108.00 L 548.00 1100.00 L 550.00 1087.00 L 542.00 1069.00 L 540.00 1056.00 L 544.00 1048.00 L 553.00 1041.00 L 567.00 1035.00 L 563.00 1026.00 L 541.00 1014.00 L 528.00 1007.00 L 524.00 1005.00 L 518.00 992.00 Z" fill="black" stroke="black" stroke-width="1"/>
</svg>