<?xml version="1.0" encoding="UTF-8"?>
<svg xmlns="http://www.w3.org/2000/svg" viewBox="481.00 299.00 845.00 1471.00">
  <path d="M 629.00 1017.00 L 635.00 1015.00 L 628.00 1008.00 L 608.00 996.00 L 593.00 983.00 L 583.00 969.00 L 577.00 957.00 L 575.00 947.00 L 578.00 930.00 L 586.00 906.00 L 587.00 890.00 L 581.00 882.00 L 579.00 872.00 L 581.00 860.00 L 580.00 847.00 L 576.00 833.00 L 577.00 817.00 L 583.00 799.00 L 577.00 782.00 L 559.00 766.00 L 556.00 762.00 L 568.00 770.00 L 567.00 768.00 L 553.00 756.00 L 555.00 757.00 L 573.00 771.00 L 572.00 769.00 L 552.00 751.00 L 542.00 740.00 L 542.00 736.00 L 545.00 728.00 L 551.00 716.00 L 575.00 690.00 L 617.00 650.00 L 638.00 617.00 L 638.00 591.00 L 647.00 560.00 L 665.00 524.00 L 672.00 496.00 L 668.00 476.00 L 669.00 472.00 L 675.00 484.00 L 676.00 482.00 L 672.00 466.00 L 673.00 464.00 L 679.00 476.00 L 681.00 473.00 L 679.00 455.00 L 681.00 451.00 L 687.00 461.00 L 688.00 459.00 L 684.00 445.00 L 686.00 443.00 L 694.00 453.00 L 696.00 451.00 L 692.00 437.00 L 691.00 429.00 L 693.00 427.00 L 696.00 431.00 L 700.00 441.00 L 701.00 439.00 L 699.00 425.00 L 727.00 395.00 L 785.00 349.00 L 819.00 324.00 L 829.00 320.00 L 850.00 318.00 L 882.00 318.00 L 907.00 315.00 L 925.00 309.00 L 969.00 309.00 L 1039.00 315.00 L 1094.00 325.00 L 1134.00 339.00 L 1162.00 352.00 L 1178.00 364.00 L 1197.00 381.00 L 1219.00 403.00 L 1242.00 434.00 L 1266.00 474.00 L 1285.00 525.00 L 1299.00 587.00 L 1306.00 635.00 L 1306.00 669.00 L 1301.00 704.00 L 1291.00 740.00 L 1274.00 777.00 L 1250.00 815.00 L 1229.00 853.00 L 1211.00 891.00 L 1207.00 920.00 L 1217.00 940.00 L 1227.00 973.00 L 1237.00 1019.00 L 1242.00 1052.00 L 1242.00 1072.00 L 1239.00 1095.00 L 1233.00 1121.00 L 1245.00 1175.00 L 1275.00 1257.00 L 1297.00 1341.00 L 1311.00 1427.00 L 1316.00 1472.00 L 1312.00 1476.00 L 1294.00 1480.00 L 1262.00 1484.00 L 1239.00 1484.00 L 1225.00 1480.00 L 1210.00 1479.00 L 1194.00 1481.00 L 1185.00 1485.00 L 1183.00 1491.00 L 1180.00 1492.00 L 1176.00 1488.00 L 1173.00 1489.00 L 1171.00 1495.00 L 1127.00 1511.00 L 1041.00 1537.00 L 966.00 1565.00 L 902.00 1595.00 L 820.00 1642.00 L 720.00 1706.00 L 650.00 1744.00 L 610.00 1756.00 L 583.00 1760.00 L 569.00 1756.00 L 555.00 1749.00 L 541.00 1739.00 L 528.00 1725.00 L 516.00 1707.00 L 506.00 1687.00 L 498.00 1665.00 L 493.00 1630.00 L 491.00 1582.00 L 496.00 1533.00 L 508.00 1483.00 L 522.00 1439.00 L 538.00 1401.00 L 545.00 1383.00 L 543.00 1385.00 L 561.00 1351.00 L 599.00 1281.00 L 621.00 1230.00 L 627.00 1198.00 L 619.00 1188.00 L 597.00 1200.00 L 598.00 1198.00 L 622.00 1182.00 L 620.00 1182.00 L 592.00 1198.00 L 587.00 1200.00 L 605.00 1188.00 L 602.00 1188.00 L 578.00 1200.00 L 584.00 1195.00 L 620.00 1173.00 L 617.00 1173.00 L 575.00 1195.00 L 577.00 1192.00 L 623.00 1164.00 L 621.00 1163.00 L 571.00 1189.00 L 569.00 1189.00 L 615.00 1163.00 L 612.00 1160.00 L 560.00 1180.00 L 546.00 1183.00 L 570.00 1169.00 L 592.00 1153.00 L 612.00 1135.00 L 616.00 1121.00 L 604.00 1111.00 L 612.00 1101.00 L 640.00 1091.00 L 641.00 1088.00 L 615.00 1092.00 L 614.00 1090.00 L 638.00 1082.00 L 640.00 1079.00 L 620.00 1081.00 L 616.00 1080.00 L 628.00 1076.00 L 629.00 1074.00 L 619.00 1074.00 L 622.00 1072.00 L 638.00 1068.00 L 640.00 1066.00 L 628.00 1066.00 L 627.00 1064.00 L 637.00 1060.00 L 636.00 1050.00 L 624.00 1034.00 L 620.00 1024.00 L 624.00 1020.00 L 629.00 1017.00 Z" fill="black" stroke="black" stroke-width="1"/>
</svg>