<?xml version="1.0" encoding="UTF-8"?>
<svg xmlns="http://www.w3.org/2000/svg" viewBox="294.00 328.00 915.00 1413.00">
  <path d="M 343.00 983.00 L 345.00 961.00 L 332.00 943.00 L 304.00 929.00 L 311.00 877.00 L 353.00 787.00 L 373.00 730.00 L 371.00 706.00 L 361.00 683.00 L 343.00 661.00 L 343.00 658.00 L 361.00 674.00 L 361.00 671.00 L 343.00 649.00 L 344.00 647.00 L 364.00 665.00 L 365.00 664.00 L 347.00 644.00 L 347.00 642.00 L 365.00 658.00 L 367.00 652.00 L 353.00 624.00 L 354.00 619.00 L 370.00 637.00 L 372.00 633.00 L 360.00 607.00 L 361.00 601.00 L 375.00 615.00 L 376.00 614.00 L 364.00 598.00 L 364.00 596.00 L 376.00 608.00 L 378.00 606.00 L 370.00 590.00 L 371.00 587.00 L 381.00 597.00 L 383.00 595.00 L 377.00 581.00 L 378.00 578.00 L 386.00 586.00 L 389.00 580.00 L 387.00 560.00 L 390.00 553.00 L 398.00 559.00 L 399.00 556.00 L 393.00 544.00 L 394.00 543.00 L 402.00 553.00 L 403.00 551.00 L 397.00 537.00 L 415.00 513.00 L 457.00 479.00 L 507.00 450.00 L 565.00 426.00 L 632.00 412.00 L 708.00 408.00 L 750.00 389.00 L 758.00 355.00 L 760.00 355.00 L 756.00 389.00 L 758.00 386.00 L 766.00 346.00 L 769.00 346.00 L 767.00 386.00 L 770.00 385.00 L 778.00 343.00 L 779.00 344.00 L 773.00 388.00 L 776.00 386.00 L 788.00 338.00 L 790.00 338.00 L 782.00 386.00 L 784.00 386.00 L 796.00 338.00 L 799.00 338.00 L 793.00 386.00 L 798.00 386.00 L 814.00 338.00 L 819.00 339.00 L 813.00 389.00 L 816.00 389.00 L 828.00 339.00 L 831.00 339.00 L 825.00 389.00 L 828.00 390.00 L 840.00 342.00 L 842.00 342.00 L 834.00 390.00 L 839.00 392.00 L 857.00 348.00 L 860.00 348.00 L 848.00 392.00 L 850.00 393.00 L 866.00 351.00 L 900.00 343.00 L 952.00 369.00 L 987.00 380.00 L 1005.00 376.00 L 1019.00 388.00 L 1029.00 416.00 L 1068.00 464.00 L 1136.00 532.00 L 1178.00 592.00 L 1194.00 644.00 L 1199.00 695.00 L 1193.00 745.00 L 1159.00 787.00 L 1097.00 821.00 L 1094.00 828.00 L 1150.00 808.00 L 1149.00 810.00 L 1091.00 834.00 L 1089.00 836.00 L 1143.00 816.00 L 1138.00 821.00 L 1074.00 851.00 L 1011.00 913.00 L 949.00 1007.00 L 919.00 1087.00 L 921.00 1153.00 L 942.00 1242.00 L 982.00 1354.00 L 999.00 1424.00 L 993.00 1452.00 L 936.00 1485.00 L 828.00 1523.00 L 686.00 1592.00 L 510.00 1692.00 L 455.00 1643.00 L 521.00 1445.00 L 519.00 1447.00 L 449.00 1649.00 L 450.00 1646.00 L 522.00 1438.00 L 519.00 1440.00 L 441.00 1652.00 L 441.00 1649.00 L 519.00 1431.00 L 517.00 1433.00 L 435.00 1655.00 L 435.00 1652.00 L 517.00 1424.00 L 512.00 1428.00 L 420.00 1664.00 L 420.00 1662.00 L 512.00 1422.00 L 508.00 1425.00 L 408.00 1671.00 L 408.00 1668.00 L 508.00 1416.00 L 504.00 1420.00 L 396.00 1680.00 L 396.00 1677.00 L 504.00 1411.00 L 501.00 1412.00 L 387.00 1680.00 L 364.00 1731.00 L 432.00 1565.00 L 431.00 1563.00 L 361.00 1725.00 L 358.00 1728.00 L 422.00 1572.00 L 421.00 1567.00 L 355.00 1713.00 L 380.00 1656.00 L 496.00 1396.00 L 496.00 1393.00 L 380.00 1647.00 L 352.00 1706.00 L 412.00 1570.00 L 412.00 1566.00 L 352.00 1694.00 L 351.00 1695.00 L 409.00 1569.00 L 408.00 1566.00 L 348.00 1686.00 L 376.00 1623.00 L 492.00 1377.00 L 490.00 1374.00 L 370.00 1614.00 L 370.00 1611.00 L 490.00 1365.00 L 488.00 1360.00 L 364.00 1596.00 L 325.00 1669.00 L 371.00 1579.00 L 370.00 1577.00 L 322.00 1663.00 L 315.00 1669.00 L 349.00 1595.00 L 411.00 1476.00 L 501.00 1312.00 L 483.00 1343.00 L 357.00 1569.00 L 310.00 1652.00 L 342.00 1592.00 L 342.00 1589.00 L 310.00 1643.00 L 307.00 1646.00 L 333.00 1598.00 L 333.00 1596.00 L 307.00 1640.00 L 304.00 1642.00 L 324.00 1602.00 L 324.00 1599.00 L 304.00 1633.00 L 357.00 1542.00 L 483.00 1326.00 L 483.00 1325.00 L 357.00 1539.00 L 356.00 1537.00 L 480.00 1319.00 L 538.00 1201.00 L 530.00 1183.00 L 498.00 1172.00 L 442.00 1168.00 L 403.00 1160.00 L 381.00 1148.00 L 365.00 1108.00 L 355.00 1040.00 L 348.00 1003.00 L 344.00 997.00 L 343.00 983.00 Z" fill="black" stroke="black" stroke-width="1"/>
</svg>