<?xml version="1.0" encoding="UTF-8"?>
<svg xmlns="http://www.w3.org/2000/svg" viewBox="414.00 257.00 849.00 1496.00">
  <path d="M 563.00 1004.00 L 541.00 984.00 L 531.00 959.00 L 533.00 929.00 L 527.00 890.00 L 513.00 842.00 L 493.00 805.00 L 467.00 779.00 L 466.00 774.00 L 490.00 790.00 L 487.00 785.00 L 457.00 759.00 L 444.00 738.00 L 448.00 722.00 L 471.00 693.00 L 513.00 651.00 L 535.00 623.00 L 537.00 609.00 L 535.00 595.00 L 529.00 581.00 L 528.00 569.00 L 532.00 559.00 L 530.00 546.00 L 522.00 530.00 L 520.00 523.00 L 524.00 525.00 L 525.00 523.00 L 523.00 517.00 L 527.00 521.00 L 537.00 535.00 L 538.00 534.00 L 530.00 518.00 L 531.00 516.00 L 541.00 528.00 L 544.00 525.00 L 540.00 507.00 L 542.00 504.00 L 550.00 516.00 L 552.00 515.00 L 548.00 501.00 L 550.00 499.00 L 558.00 509.00 L 559.00 507.00 L 553.00 493.00 L 554.00 491.00 L 562.00 501.00 L 563.00 498.00 L 557.00 482.00 L 558.00 481.00 L 566.00 495.00 L 566.00 493.00 L 558.00 475.00 L 559.00 472.00 L 569.00 484.00 L 570.00 481.00 L 562.00 463.00 L 561.00 460.00 L 567.00 472.00 L 567.00 469.00 L 561.00 451.00 L 563.00 451.00 L 573.00 469.00 L 575.00 466.00 L 569.00 442.00 L 570.00 436.00 L 578.00 448.00 L 580.00 446.00 L 576.00 430.00 L 578.00 428.00 L 586.00 440.00 L 588.00 438.00 L 584.00 422.00 L 585.00 421.00 L 591.00 435.00 L 592.00 434.00 L 588.00 418.00 L 617.00 382.00 L 679.00 326.00 L 738.00 290.00 L 794.00 274.00 L 855.00 267.00 L 921.00 269.00 L 989.00 283.00 L 1059.00 309.00 L 1111.00 337.00 L 1145.00 367.00 L 1177.00 423.00 L 1207.00 505.00 L 1222.00 578.00 L 1222.00 642.00 L 1216.00 699.00 L 1204.00 749.00 L 1197.00 793.00 L 1195.00 831.00 L 1199.00 876.00 L 1209.00 928.00 L 1213.00 973.00 L 1211.00 1011.00 L 1218.00 1032.00 L 1234.00 1036.00 L 1235.00 1038.00 L 1221.00 1038.00 L 1223.00 1040.00 L 1241.00 1044.00 L 1251.00 1050.00 L 1253.00 1058.00 L 1242.00 1065.00 L 1218.00 1071.00 L 1205.00 1079.00 L 1203.00 1089.00 L 1210.00 1097.00 L 1226.00 1103.00 L 1225.00 1105.00 L 1207.00 1103.00 L 1209.00 1105.00 L 1231.00 1111.00 L 1233.00 1112.00 L 1215.00 1108.00 L 1216.00 1111.00 L 1236.00 1121.00 L 1247.00 1132.00 L 1249.00 1144.00 L 1248.00 1153.00 L 1244.00 1159.00 L 1230.00 1158.00 L 1206.00 1150.00 L 1204.00 1153.00 L 1224.00 1167.00 L 1223.00 1170.00 L 1201.00 1162.00 L 1201.00 1166.00 L 1223.00 1182.00 L 1223.00 1186.00 L 1201.00 1178.00 L 1202.00 1180.00 L 1226.00 1192.00 L 1226.00 1195.00 L 1202.00 1189.00 L 1204.00 1193.00 L 1232.00 1207.00 L 1234.00 1209.00 L 1210.00 1199.00 L 1210.00 1202.00 L 1234.00 1218.00 L 1235.00 1221.00 L 1213.00 1211.00 L 1211.00 1212.00 L 1229.00 1224.00 L 1229.00 1226.00 L 1211.00 1218.00 L 1210.00 1220.00 L 1226.00 1232.00 L 1227.00 1235.00 L 1213.00 1229.00 L 1211.00 1230.00 L 1221.00 1238.00 L 1221.00 1240.00 L 1211.00 1236.00 L 1209.00 1236.00 L 1215.00 1240.00 L 1215.00 1242.00 L 1209.00 1242.00 L 1212.00 1264.00 L 1224.00 1308.00 L 1224.00 1335.00 L 1212.00 1345.00 L 1206.00 1354.00 L 1206.00 1362.00 L 1212.00 1407.00 L 1224.00 1489.00 L 1228.00 1532.00 L 1224.00 1536.00 L 1186.00 1537.00 L 1114.00 1535.00 L 1035.00 1542.00 L 949.00 1558.00 L 854.00 1585.00 L 750.00 1623.00 L 660.00 1665.00 L 584.00 1711.00 L 532.00 1737.00 L 504.00 1743.00 L 480.00 1741.00 L 460.00 1731.00 L 443.00 1714.00 L 429.00 1690.00 L 424.00 1642.00 L 428.00 1570.00 L 442.00 1499.00 L 466.00 1429.00 L 496.00 1356.00 L 532.00 1280.00 L 546.00 1245.00 L 538.00 1251.00 L 539.00 1250.00 L 549.00 1242.00 L 548.00 1242.00 L 536.00 1250.00 L 536.00 1249.00 L 548.00 1239.00 L 545.00 1240.00 L 527.00 1252.00 L 508.00 1256.00 L 488.00 1252.00 L 486.00 1242.00 L 502.00 1226.00 L 499.00 1223.00 L 477.00 1233.00 L 491.00 1221.00 L 541.00 1187.00 L 558.00 1174.00 L 542.00 1182.00 L 539.00 1179.00 L 549.00 1165.00 L 569.00 1150.00 L 599.00 1134.00 L 598.00 1133.00 L 566.00 1147.00 L 565.00 1145.00 L 595.00 1127.00 L 595.00 1124.00 L 565.00 1136.00 L 551.00 1139.00 L 553.00 1133.00 L 567.00 1124.00 L 593.00 1112.00 L 595.00 1110.00 L 573.00 1118.00 L 572.00 1115.00 L 592.00 1101.00 L 599.00 1085.00 L 593.00 1067.00 L 599.00 1055.00 L 617.00 1049.00 L 616.00 1040.00 L 596.00 1028.00 L 583.00 1020.00 L 577.00 1016.00 L 563.00 1004.00 Z" fill="black" stroke="black" stroke-width="1"/>
</svg>