<?xml version="1.0" encoding="UTF-8"?>
<svg xmlns="http://www.w3.org/2000/svg" viewBox="450.00 190.00 841.00 1594.00">
  <path d="M 600.00 985.00 L 572.00 967.00 L 555.00 950.00 L 549.00 934.00 L 551.00 915.00 L 561.00 893.00 L 558.00 864.00 L 542.00 828.00 L 535.00 805.00 L 537.00 795.00 L 525.00 779.00 L 499.00 757.00 L 499.00 755.00 L 525.00 773.00 L 523.00 770.00 L 493.00 746.00 L 490.00 742.00 L 514.00 758.00 L 514.00 755.00 L 490.00 733.00 L 499.00 690.00 L 541.00 626.00 L 560.00 580.00 L 556.00 552.00 L 559.00 524.00 L 569.00 496.00 L 570.00 474.00 L 562.00 458.00 L 563.00 457.00 L 573.00 471.00 L 573.00 468.00 L 563.00 448.00 L 563.00 446.00 L 573.00 462.00 L 576.00 466.00 L 572.00 458.00 L 573.00 456.00 L 579.00 460.00 L 579.00 451.00 L 573.00 429.00 L 574.00 426.00 L 582.00 442.00 L 588.00 446.00 L 592.00 438.00 L 591.00 427.00 L 585.00 413.00 L 586.00 412.00 L 594.00 424.00 L 597.00 422.00 L 595.00 406.00 L 602.00 387.00 L 618.00 365.00 L 653.00 330.00 L 707.00 282.00 L 750.00 251.00 L 782.00 237.00 L 799.00 235.00 L 801.00 245.00 L 804.00 245.00 L 808.00 235.00 L 818.00 227.00 L 834.00 221.00 L 874.00 212.00 L 938.00 200.00 L 1006.00 202.00 L 1078.00 218.00 L 1131.00 241.00 L 1165.00 271.00 L 1197.00 305.00 L 1227.00 343.00 L 1252.00 391.00 L 1272.00 449.00 L 1281.00 509.00 L 1279.00 571.00 L 1261.00 649.00 L 1227.00 743.00 L 1194.00 800.00 L 1162.00 820.00 L 1161.00 823.00 L 1191.00 809.00 L 1193.00 810.00 L 1167.00 826.00 L 1162.00 831.00 L 1178.00 825.00 L 1181.00 827.00 L 1171.00 837.00 L 1174.00 843.00 L 1190.00 845.00 L 1195.00 852.00 L 1189.00 864.00 L 1190.00 882.00 L 1198.00 906.00 L 1204.00 954.00 L 1208.00 1026.00 L 1206.00 1067.00 L 1198.00 1077.00 L 1196.00 1083.00 L 1200.00 1085.00 L 1199.00 1086.00 L 1193.00 1086.00 L 1193.00 1089.00 L 1199.00 1095.00 L 1199.00 1114.00 L 1193.00 1146.00 L 1216.00 1245.00 L 1268.00 1411.00 L 1244.00 1500.00 L 1144.00 1512.00 L 1033.00 1543.00 L 911.00 1593.00 L 848.00 1614.00 L 844.00 1606.00 L 841.00 1607.00 L 839.00 1617.00 L 837.00 1618.00 L 835.00 1610.00 L 829.00 1613.00 L 819.00 1627.00 L 752.00 1669.00 L 628.00 1739.00 L 560.00 1774.00 L 548.00 1774.00 L 531.00 1768.00 L 509.00 1756.00 L 490.00 1737.00 L 474.00 1711.00 L 464.00 1687.00 L 460.00 1665.00 L 461.00 1623.00 L 467.00 1561.00 L 498.00 1453.00 L 554.00 1299.00 L 598.00 1207.00 L 630.00 1177.00 L 633.00 1172.00 L 607.00 1192.00 L 606.00 1191.00 L 630.00 1169.00 L 636.00 1158.00 L 624.00 1158.00 L 604.00 1167.00 L 576.00 1185.00 L 573.00 1186.00 L 595.00 1170.00 L 592.00 1171.00 L 564.00 1189.00 L 539.00 1197.00 L 517.00 1195.00 L 531.00 1179.00 L 581.00 1149.00 L 579.00 1148.00 L 525.00 1176.00 L 523.00 1176.00 L 573.00 1148.00 L 588.00 1139.00 L 568.00 1149.00 L 567.00 1149.00 L 585.00 1139.00 L 586.00 1138.00 L 570.00 1146.00 L 570.00 1144.00 L 586.00 1132.00 L 592.00 1124.00 L 588.00 1120.00 L 599.00 1112.00 L 625.00 1100.00 L 625.00 1097.00 L 599.00 1103.00 L 597.00 1100.00 L 619.00 1088.00 L 622.00 1084.00 L 606.00 1088.00 L 604.00 1085.00 L 616.00 1075.00 L 616.00 1062.00 L 604.00 1046.00 L 599.00 1034.00 L 601.00 1026.00 L 610.00 1020.00 L 626.00 1016.00 L 631.00 1014.00 L 625.00 1014.00 L 625.00 1012.00 L 631.00 1008.00 L 631.00 1005.00 L 625.00 1003.00 L 620.00 1000.00 L 616.00 996.00 L 600.00 985.00 Z" fill="black" stroke="black" stroke-width="1"/>
</svg>