<?xml version="1.0" encoding="UTF-8"?>
<svg xmlns="http://www.w3.org/2000/svg" viewBox="390.00 154.00 926.00 1662.00">
  <path d="M 526.00 989.00 L 510.00 979.00 L 498.00 965.00 L 490.00 947.00 L 486.00 934.00 L 486.00 926.00 L 492.00 910.00 L 504.00 886.00 L 508.00 865.00 L 504.00 847.00 L 504.00 833.00 L 508.00 823.00 L 509.00 816.00 L 507.00 812.00 L 507.00 804.00 L 509.00 792.00 L 496.00 773.00 L 468.00 747.00 L 468.00 744.00 L 496.00 764.00 L 494.00 762.00 L 462.00 738.00 L 457.00 733.00 L 479.00 747.00 L 478.00 745.00 L 454.00 727.00 L 458.00 729.00 L 490.00 751.00 L 490.00 749.00 L 458.00 723.00 L 455.00 690.00 L 481.00 650.00 L 504.00 619.00 L 524.00 597.00 L 536.00 580.00 L 540.00 568.00 L 541.00 559.00 L 539.00 553.00 L 539.00 537.00 L 541.00 511.00 L 549.00 486.00 L 563.00 462.00 L 567.00 441.00 L 561.00 423.00 L 562.00 421.00 L 570.00 435.00 L 571.00 432.00 L 565.00 412.00 L 566.00 410.00 L 574.00 426.00 L 575.00 424.00 L 569.00 404.00 L 571.00 402.00 L 581.00 418.00 L 582.00 416.00 L 574.00 396.00 L 574.00 393.00 L 582.00 407.00 L 584.00 404.00 L 580.00 384.00 L 582.00 383.00 L 590.00 401.00 L 593.00 398.00 L 591.00 374.00 L 597.00 357.00 L 611.00 347.00 L 627.00 329.00 L 645.00 303.00 L 665.00 283.00 L 687.00 269.00 L 706.00 253.00 L 722.00 235.00 L 737.00 222.00 L 751.00 214.00 L 785.00 200.00 L 839.00 180.00 L 889.00 168.00 L 935.00 164.00 L 990.00 167.00 L 1054.00 177.00 L 1114.00 199.00 L 1170.00 233.00 L 1210.00 263.00 L 1234.00 289.00 L 1255.00 319.00 L 1273.00 353.00 L 1288.00 397.00 L 1300.00 451.00 L 1306.00 500.00 L 1306.00 544.00 L 1304.00 578.00 L 1300.00 602.00 L 1292.00 634.00 L 1280.00 674.00 L 1266.00 706.00 L 1250.00 730.00 L 1230.00 756.00 L 1206.00 784.00 L 1180.00 810.00 L 1152.00 834.00 L 1129.00 857.00 L 1111.00 879.00 L 1097.00 893.00 L 1087.00 899.00 L 1085.00 901.00 L 1091.00 899.00 L 1091.00 901.00 L 1085.00 907.00 L 1082.00 918.00 L 1082.00 934.00 L 1083.00 944.00 L 1085.00 948.00 L 1093.00 955.00 L 1107.00 965.00 L 1118.00 981.00 L 1126.00 1003.00 L 1134.00 1044.00 L 1142.00 1104.00 L 1148.00 1141.00 L 1152.00 1155.00 L 1154.00 1166.00 L 1154.00 1174.00 L 1152.00 1184.00 L 1148.00 1196.00 L 1144.00 1204.00 L 1140.00 1208.00 L 1139.00 1215.00 L 1141.00 1225.00 L 1147.00 1243.00 L 1157.00 1269.00 L 1163.00 1290.00 L 1165.00 1306.00 L 1173.00 1324.00 L 1187.00 1344.00 L 1201.00 1370.00 L 1215.00 1402.00 L 1228.00 1448.00 L 1240.00 1508.00 L 1244.00 1540.00 L 1240.00 1544.00 L 1233.00 1547.00 L 1223.00 1549.00 L 1200.00 1550.00 L 1164.00 1550.00 L 1131.00 1552.00 L 1101.00 1556.00 L 1047.00 1571.00 L 969.00 1597.00 L 903.00 1622.00 L 849.00 1646.00 L 775.00 1687.00 L 681.00 1745.00 L 615.00 1782.00 L 577.00 1798.00 L 549.00 1806.00 L 531.00 1806.00 L 511.00 1802.00 L 489.00 1794.00 L 468.00 1781.00 L 448.00 1763.00 L 434.00 1747.00 L 426.00 1733.00 L 418.00 1713.00 L 410.00 1687.00 L 404.00 1647.00 L 400.00 1593.00 L 402.00 1547.00 L 410.00 1509.00 L 422.00 1464.00 L 438.00 1412.00 L 454.00 1364.00 L 470.00 1320.00 L 484.00 1289.00 L 496.00 1271.00 L 505.00 1250.00 L 511.00 1226.00 L 510.00 1216.00 L 502.00 1220.00 L 484.00 1222.00 L 456.00 1222.00 L 453.00 1214.00 L 475.00 1198.00 L 473.00 1197.00 L 447.00 1211.00 L 448.00 1209.00 L 476.00 1191.00 L 495.00 1176.00 L 505.00 1164.00 L 511.00 1156.00 L 513.00 1152.00 L 509.00 1145.00 L 499.00 1135.00 L 508.00 1123.00 L 536.00 1109.00 L 535.00 1107.00 L 505.00 1117.00 L 505.00 1116.00 L 535.00 1104.00 L 536.00 1101.00 L 508.00 1107.00 L 507.00 1105.00 L 533.00 1095.00 L 534.00 1093.00 L 510.00 1099.00 L 509.00 1097.00 L 531.00 1087.00 L 540.00 1074.00 L 536.00 1058.00 L 529.00 1046.00 L 519.00 1038.00 L 515.00 1031.00 L 517.00 1025.00 L 521.00 1020.00 L 527.00 1016.00 L 537.00 1012.00 L 551.00 1008.00 L 555.00 1004.00 L 549.00 1000.00 L 543.00 997.00 L 537.00 995.00 L 526.00 989.00 Z" fill="black" stroke="black" stroke-width="1"/>
</svg>