<?xml version="1.0" encoding="UTF-8"?>
<svg xmlns="http://www.w3.org/2000/svg" viewBox="336.00 308.00 895.00 1424.00">
  <path d="M 508.00 1073.00 L 496.00 1071.00 L 495.00 1070.00 L 505.00 1070.00 L 498.00 1061.00 L 474.00 1043.00 L 460.00 1028.00 L 456.00 1016.00 L 456.00 995.00 L 460.00 965.00 L 456.00 939.00 L 444.00 917.00 L 441.00 899.00 L 447.00 885.00 L 446.00 871.00 L 438.00 857.00 L 439.00 842.00 L 449.00 826.00 L 445.00 807.00 L 427.00 785.00 L 427.00 782.00 L 445.00 798.00 L 442.00 793.00 L 418.00 767.00 L 418.00 765.00 L 442.00 787.00 L 442.00 784.00 L 418.00 756.00 L 417.00 725.00 L 439.00 691.00 L 460.00 666.00 L 480.00 650.00 L 495.00 619.00 L 505.00 573.00 L 523.00 532.00 L 549.00 496.00 L 563.00 469.00 L 565.00 451.00 L 569.00 444.00 L 575.00 448.00 L 577.00 445.00 L 575.00 435.00 L 576.00 435.00 L 580.00 445.00 L 582.00 441.00 L 582.00 423.00 L 584.00 419.00 L 588.00 429.00 L 590.00 427.00 L 590.00 413.00 L 595.00 402.00 L 605.00 394.00 L 659.00 372.00 L 757.00 336.00 L 840.00 318.00 L 908.00 318.00 L 957.00 321.00 L 987.00 327.00 L 1030.00 344.00 L 1086.00 372.00 L 1133.00 410.00 L 1171.00 458.00 L 1198.00 511.00 L 1214.00 569.00 L 1221.00 618.00 L 1219.00 658.00 L 1212.00 703.00 L 1200.00 753.00 L 1186.00 793.00 L 1170.00 823.00 L 1142.00 861.00 L 1102.00 907.00 L 1090.00 944.00 L 1106.00 972.00 L 1117.00 1010.00 L 1123.00 1058.00 L 1126.00 1099.00 L 1126.00 1133.00 L 1119.00 1167.00 L 1105.00 1201.00 L 1099.00 1227.00 L 1101.00 1245.00 L 1115.00 1293.00 L 1141.00 1371.00 L 1157.00 1438.00 L 1163.00 1494.00 L 1158.00 1517.00 L 1142.00 1507.00 L 1140.00 1509.00 L 1152.00 1523.00 L 1151.00 1525.00 L 1137.00 1515.00 L 1134.00 1515.00 L 1142.00 1525.00 L 1131.00 1525.00 L 1101.00 1515.00 L 1087.00 1513.00 L 1089.00 1519.00 L 1087.00 1523.00 L 1081.00 1525.00 L 1024.00 1533.00 L 916.00 1547.00 L 842.00 1559.00 L 802.00 1569.00 L 746.00 1590.00 L 674.00 1622.00 L 638.00 1636.00 L 638.00 1632.00 L 622.00 1641.00 L 590.00 1663.00 L 575.00 1669.00 L 577.00 1659.00 L 575.00 1660.00 L 569.00 1672.00 L 567.00 1674.00 L 569.00 1666.00 L 566.00 1668.00 L 558.00 1680.00 L 554.00 1681.00 L 554.00 1671.00 L 549.00 1673.00 L 539.00 1687.00 L 534.00 1688.00 L 534.00 1676.00 L 531.00 1678.00 L 525.00 1694.00 L 523.00 1696.00 L 525.00 1684.00 L 522.00 1685.00 L 514.00 1699.00 L 511.00 1702.00 L 513.00 1694.00 L 510.00 1695.00 L 502.00 1705.00 L 500.00 1704.00 L 504.00 1692.00 L 503.00 1693.00 L 497.00 1707.00 L 496.00 1707.00 L 500.00 1693.00 L 494.00 1695.00 L 478.00 1713.00 L 473.00 1715.00 L 479.00 1701.00 L 472.00 1702.00 L 452.00 1718.00 L 428.00 1722.00 L 400.00 1714.00 L 380.00 1704.00 L 368.00 1692.00 L 358.00 1671.00 L 350.00 1641.00 L 346.00 1602.00 L 346.00 1554.00 L 356.00 1498.00 L 376.00 1434.00 L 403.00 1369.00 L 437.00 1303.00 L 444.00 1274.00 L 424.00 1282.00 L 425.00 1279.00 L 447.00 1265.00 L 445.00 1265.00 L 419.00 1279.00 L 400.00 1284.00 L 388.00 1280.00 L 385.00 1275.00 L 391.00 1269.00 L 391.00 1267.00 L 385.00 1269.00 L 389.00 1266.00 L 403.00 1258.00 L 404.00 1257.00 L 392.00 1263.00 L 394.00 1258.00 L 410.00 1242.00 L 431.00 1227.00 L 457.00 1213.00 L 459.00 1211.00 L 437.00 1221.00 L 435.00 1219.00 L 453.00 1205.00 L 457.00 1191.00 L 447.00 1177.00 L 456.00 1165.00 L 484.00 1155.00 L 485.00 1153.00 L 459.00 1159.00 L 459.00 1157.00 L 485.00 1147.00 L 488.00 1142.00 L 468.00 1142.00 L 467.00 1139.00 L 485.00 1133.00 L 487.00 1131.00 L 473.00 1133.00 L 473.00 1132.00 L 487.00 1128.00 L 491.00 1114.00 L 485.00 1090.00 L 490.00 1077.00 L 506.00 1075.00 L 508.00 1073.00 Z" fill="black" stroke="black" stroke-width="1"/>
</svg>