<?xml version="1.0" encoding="UTF-8"?>
<svg xmlns="http://www.w3.org/2000/svg" viewBox="208.00 288.00 935.00 1523.00">
  <path d="M 314.00 1034.00 L 314.00 1014.00 L 308.00 996.00 L 296.00 980.00 L 293.00 968.00 L 299.00 960.00 L 300.00 951.00 L 296.00 941.00 L 277.00 929.00 L 243.00 915.00 L 239.00 912.00 L 265.00 920.00 L 263.00 917.00 L 233.00 903.00 L 218.00 891.00 L 218.00 881.00 L 223.00 865.00 L 233.00 843.00 L 263.00 801.00 L 313.00 739.00 L 337.00 692.00 L 335.00 660.00 L 341.00 632.00 L 355.00 608.00 L 359.00 589.00 L 353.00 575.00 L 355.00 572.00 L 365.00 580.00 L 366.00 576.00 L 358.00 560.00 L 359.00 558.00 L 369.00 570.00 L 370.00 568.00 L 362.00 552.00 L 363.00 550.00 L 373.00 562.00 L 375.00 559.00 L 369.00 541.00 L 371.00 538.00 L 381.00 550.00 L 384.00 550.00 L 380.00 538.00 L 381.00 536.00 L 387.00 544.00 L 386.00 540.00 L 378.00 524.00 L 379.00 522.00 L 389.00 534.00 L 390.00 531.00 L 382.00 513.00 L 383.00 511.00 L 393.00 525.00 L 395.00 522.00 L 389.00 502.00 L 388.00 490.00 L 392.00 486.00 L 398.00 493.00 L 406.00 511.00 L 407.00 510.00 L 401.00 490.00 L 403.00 488.00 L 413.00 504.00 L 415.00 502.00 L 409.00 482.00 L 409.00 479.00 L 415.00 493.00 L 416.00 489.00 L 412.00 467.00 L 414.00 466.00 L 422.00 486.00 L 423.00 482.00 L 417.00 454.00 L 430.00 425.00 L 462.00 395.00 L 488.00 376.00 L 508.00 368.00 L 528.00 355.00 L 548.00 337.00 L 582.00 320.00 L 630.00 304.00 L 664.00 298.00 L 684.00 302.00 L 732.00 302.00 L 808.00 298.00 L 872.00 307.00 L 924.00 329.00 L 977.00 362.00 L 1031.00 406.00 L 1076.00 460.00 L 1112.00 524.00 L 1131.00 578.00 L 1133.00 622.00 L 1121.00 691.00 L 1095.00 785.00 L 1081.00 859.00 L 1079.00 913.00 L 1065.00 945.00 L 1039.00 955.00 L 1038.00 958.00 L 1062.00 954.00 L 1061.00 956.00 L 1035.00 964.00 L 1034.00 967.00 L 1058.00 965.00 L 1064.00 966.00 L 1052.00 970.00 L 1050.00 973.00 L 1058.00 975.00 L 1053.00 978.00 L 1035.00 982.00 L 1034.00 983.00 L 1050.00 981.00 L 1052.00 984.00 L 1040.00 992.00 L 1038.00 1005.00 L 1046.00 1023.00 L 1054.00 1062.00 L 1062.00 1122.00 L 1066.00 1162.00 L 1066.00 1182.00 L 1058.00 1200.00 L 1042.00 1216.00 L 1039.00 1239.00 L 1049.00 1269.00 L 1058.00 1314.00 L 1066.00 1374.00 L 1069.00 1415.00 L 1067.00 1437.00 L 1059.00 1463.00 L 1045.00 1493.00 L 1014.00 1520.00 L 966.00 1544.00 L 885.00 1568.00 L 771.00 1592.00 L 669.00 1625.00 L 579.00 1667.00 L 492.00 1717.00 L 408.00 1775.00 L 355.00 1801.00 L 333.00 1795.00 L 314.00 1795.00 L 298.00 1801.00 L 291.00 1783.00 L 293.00 1741.00 L 332.00 1643.00 L 408.00 1489.00 L 408.00 1486.00 L 332.00 1634.00 L 333.00 1631.00 L 411.00 1477.00 L 411.00 1474.00 L 333.00 1622.00 L 329.00 1627.00 L 399.00 1489.00 L 401.00 1482.00 L 335.00 1606.00 L 320.00 1634.00 L 356.00 1566.00 L 357.00 1563.00 L 323.00 1625.00 L 343.00 1586.00 L 417.00 1446.00 L 419.00 1440.00 L 349.00 1568.00 L 347.00 1568.00 L 413.00 1440.00 L 434.00 1396.00 L 410.00 1436.00 L 408.00 1438.00 L 428.00 1402.00 L 419.00 1409.00 L 381.00 1459.00 L 369.00 1472.00 L 383.00 1448.00 L 379.00 1449.00 L 357.00 1475.00 L 357.00 1470.00 L 379.00 1434.00 L 388.00 1419.00 L 384.00 1425.00 L 390.00 1409.00 L 406.00 1371.00 L 412.00 1352.00 L 408.00 1352.00 L 413.00 1341.00 L 427.00 1319.00 L 425.00 1317.00 L 407.00 1335.00 L 406.00 1333.00 L 422.00 1311.00 L 421.00 1309.00 L 403.00 1327.00 L 402.00 1323.00 L 418.00 1297.00 L 415.00 1271.00 L 393.00 1245.00 L 385.00 1226.00 L 391.00 1214.00 L 380.00 1197.00 L 352.00 1175.00 L 336.00 1156.00 L 332.00 1140.00 L 334.00 1117.00 L 342.00 1087.00 L 339.00 1066.00 L 325.00 1054.00 L 317.00 1047.00 L 315.00 1045.00 L 314.00 1034.00 Z" fill="black" stroke="black" stroke-width="1"/>
</svg>