<?xml version="1.0" encoding="UTF-8"?>
<svg xmlns="http://www.w3.org/2000/svg" viewBox="225.00 250.00 806.00 1474.00">
  <path d="M 320.00 958.00 L 308.00 942.00 L 304.00 932.00 L 308.00 928.00 L 308.00 923.00 L 304.00 917.00 L 306.00 906.00 L 314.00 890.00 L 312.00 874.00 L 300.00 858.00 L 295.00 845.00 L 297.00 835.00 L 295.00 826.00 L 289.00 818.00 L 286.00 804.00 L 286.00 784.00 L 275.00 765.00 L 253.00 747.00 L 252.00 745.00 L 272.00 759.00 L 271.00 757.00 L 249.00 739.00 L 237.00 727.00 L 235.00 721.00 L 253.00 691.00 L 291.00 637.00 L 312.00 596.00 L 316.00 568.00 L 322.00 544.00 L 330.00 524.00 L 331.00 507.00 L 325.00 493.00 L 326.00 491.00 L 334.00 501.00 L 335.00 499.00 L 329.00 485.00 L 327.00 480.00 L 329.00 484.00 L 330.00 482.00 L 330.00 474.00 L 333.00 476.00 L 339.00 488.00 L 340.00 483.00 L 336.00 461.00 L 337.00 456.00 L 343.00 468.00 L 344.00 465.00 L 340.00 447.00 L 341.00 444.00 L 347.00 456.00 L 348.00 453.00 L 344.00 435.00 L 345.00 429.00 L 351.00 435.00 L 352.00 433.00 L 348.00 423.00 L 349.00 425.00 L 355.00 439.00 L 359.00 442.00 L 361.00 434.00 L 360.00 424.00 L 356.00 412.00 L 357.00 413.00 L 363.00 427.00 L 368.00 431.00 L 372.00 425.00 L 372.00 415.00 L 368.00 401.00 L 369.00 400.00 L 375.00 412.00 L 377.00 410.00 L 375.00 394.00 L 387.00 376.00 L 413.00 356.00 L 435.00 336.00 L 453.00 316.00 L 493.00 294.00 L 555.00 270.00 L 619.00 260.00 L 685.00 264.00 L 728.00 269.00 L 748.00 275.00 L 774.00 287.00 L 806.00 305.00 L 845.00 341.00 L 891.00 395.00 L 922.00 445.00 L 938.00 491.00 L 948.00 526.00 L 952.00 550.00 L 953.00 577.00 L 951.00 607.00 L 937.00 667.00 L 911.00 757.00 L 892.00 805.00 L 880.00 811.00 L 878.00 813.00 L 886.00 811.00 L 886.00 813.00 L 878.00 819.00 L 879.00 831.00 L 889.00 849.00 L 900.00 894.00 L 912.00 966.00 L 915.00 1014.00 L 909.00 1038.00 L 907.00 1054.00 L 909.00 1062.00 L 924.00 1101.00 L 952.00 1171.00 L 977.00 1227.00 L 999.00 1269.00 L 1013.00 1299.00 L 1019.00 1317.00 L 1021.00 1328.00 L 1019.00 1332.00 L 976.00 1348.00 L 892.00 1376.00 L 817.00 1408.00 L 751.00 1444.00 L 686.00 1484.00 L 622.00 1528.00 L 562.00 1574.00 L 506.00 1622.00 L 462.00 1657.00 L 430.00 1679.00 L 402.00 1696.00 L 378.00 1708.00 L 360.00 1714.00 L 348.00 1714.00 L 332.00 1710.00 L 312.00 1702.00 L 291.00 1685.00 L 269.00 1659.00 L 255.00 1638.00 L 249.00 1622.00 L 245.00 1597.00 L 243.00 1563.00 L 243.00 1526.00 L 245.00 1486.00 L 250.00 1448.00 L 258.00 1412.00 L 276.00 1360.00 L 304.00 1292.00 L 320.00 1248.00 L 324.00 1228.00 L 330.00 1212.00 L 338.00 1200.00 L 341.00 1193.00 L 339.00 1191.00 L 343.00 1185.00 L 353.00 1175.00 L 351.00 1176.00 L 337.00 1188.00 L 339.00 1185.00 L 357.00 1167.00 L 351.00 1170.00 L 321.00 1194.00 L 323.00 1190.00 L 357.00 1158.00 L 354.00 1158.00 L 314.00 1190.00 L 290.00 1204.00 L 282.00 1200.00 L 288.00 1189.00 L 308.00 1171.00 L 307.00 1169.00 L 285.00 1183.00 L 301.00 1165.00 L 355.00 1115.00 L 370.00 1097.00 L 346.00 1111.00 L 344.00 1111.00 L 364.00 1097.00 L 375.00 1087.00 L 377.00 1081.00 L 365.00 1085.00 L 339.00 1099.00 L 333.00 1101.00 L 347.00 1091.00 L 348.00 1088.00 L 336.00 1092.00 L 334.00 1091.00 L 342.00 1085.00 L 344.00 1083.00 L 340.00 1085.00 L 347.00 1081.00 L 365.00 1071.00 L 370.00 1058.00 L 362.00 1042.00 L 366.00 1028.00 L 382.00 1016.00 L 375.00 1000.00 L 345.00 980.00 L 329.00 969.00 L 327.00 967.00 L 320.00 958.00 Z" fill="black" stroke="black" stroke-width="1"/>
</svg>