<?xml version="1.0" encoding="UTF-8"?>
<svg xmlns="http://www.w3.org/2000/svg" viewBox="254.00 249.00 906.00 1575.00">
  <path d="M 440.00 1026.00 L 420.00 1002.00 L 411.00 975.00 L 413.00 945.00 L 407.00 920.00 L 393.00 900.00 L 387.00 884.00 L 389.00 872.00 L 387.00 863.00 L 381.00 857.00 L 380.00 843.00 L 384.00 821.00 L 374.00 799.00 L 350.00 777.00 L 350.00 775.00 L 374.00 793.00 L 371.00 789.00 L 341.00 763.00 L 341.00 760.00 L 371.00 780.00 L 372.00 778.00 L 344.00 754.00 L 330.00 740.00 L 330.00 736.00 L 351.00 702.00 L 393.00 638.00 L 413.00 596.00 L 411.00 576.00 L 417.00 551.00 L 431.00 521.00 L 435.00 496.00 L 429.00 476.00 L 431.00 474.00 L 441.00 490.00 L 442.00 489.00 L 434.00 471.00 L 433.00 464.00 L 439.00 468.00 L 442.00 465.00 L 442.00 455.00 L 446.00 459.00 L 454.00 477.00 L 459.00 484.00 L 461.00 480.00 L 459.00 469.00 L 453.00 451.00 L 454.00 448.00 L 462.00 460.00 L 463.00 456.00 L 457.00 436.00 L 458.00 434.00 L 466.00 450.00 L 467.00 449.00 L 461.00 431.00 L 462.00 429.00 L 470.00 443.00 L 471.00 441.00 L 465.00 423.00 L 466.00 420.00 L 474.00 432.00 L 476.00 429.00 L 472.00 411.00 L 473.00 409.00 L 479.00 423.00 L 481.00 421.00 L 479.00 403.00 L 481.00 400.00 L 487.00 412.00 L 489.00 410.00 L 487.00 394.00 L 488.00 392.00 L 492.00 404.00 L 494.00 402.00 L 494.00 386.00 L 496.00 384.00 L 500.00 396.00 L 503.00 395.00 L 505.00 381.00 L 522.00 358.00 L 554.00 326.00 L 602.00 298.00 L 666.00 274.00 L 713.00 261.00 L 743.00 259.00 L 786.00 260.00 L 842.00 264.00 L 883.00 269.00 L 909.00 275.00 L 936.00 284.00 L 964.00 296.00 L 990.00 311.00 L 1014.00 329.00 L 1033.00 337.00 L 1047.00 335.00 L 1061.00 340.00 L 1075.00 352.00 L 1087.00 359.00 L 1097.00 361.00 L 1114.00 399.00 L 1138.00 473.00 L 1150.00 526.00 L 1150.00 558.00 L 1146.00 597.00 L 1138.00 643.00 L 1128.00 684.00 L 1116.00 720.00 L 1099.00 758.00 L 1077.00 798.00 L 1048.00 836.00 L 1012.00 872.00 L 999.00 894.00 L 1009.00 902.00 L 1017.00 915.00 L 1023.00 933.00 L 1031.00 968.00 L 1041.00 1020.00 L 1044.00 1067.00 L 1040.00 1109.00 L 1046.00 1146.00 L 1062.00 1178.00 L 1083.00 1243.00 L 1109.00 1341.00 L 1128.00 1425.00 L 1140.00 1495.00 L 1096.00 1533.00 L 996.00 1539.00 L 925.00 1547.00 L 883.00 1557.00 L 813.00 1581.00 L 715.00 1619.00 L 601.00 1679.00 L 471.00 1761.00 L 398.00 1805.00 L 382.00 1811.00 L 363.00 1814.00 L 341.00 1814.00 L 324.00 1811.00 L 312.00 1805.00 L 301.00 1797.00 L 291.00 1787.00 L 280.00 1762.00 L 268.00 1722.00 L 264.00 1661.00 L 268.00 1579.00 L 274.00 1523.00 L 282.00 1493.00 L 296.00 1455.00 L 316.00 1409.00 L 337.00 1371.00 L 359.00 1341.00 L 380.00 1307.00 L 400.00 1269.00 L 402.00 1253.00 L 386.00 1259.00 L 368.00 1260.00 L 348.00 1256.00 L 363.00 1237.00 L 413.00 1203.00 L 411.00 1202.00 L 357.00 1234.00 L 355.00 1235.00 L 405.00 1205.00 L 409.00 1201.00 L 367.00 1223.00 L 366.00 1222.00 L 406.00 1198.00 L 399.00 1201.00 L 345.00 1231.00 L 337.00 1235.00 L 375.00 1213.00 L 376.00 1211.00 L 340.00 1229.00 L 357.00 1216.00 L 427.00 1172.00 L 446.00 1157.00 L 414.00 1171.00 L 413.00 1169.00 L 443.00 1151.00 L 441.00 1148.00 L 407.00 1160.00 L 404.00 1159.00 L 432.00 1145.00 L 432.00 1142.00 L 404.00 1150.00 L 405.00 1148.00 L 435.00 1136.00 L 438.00 1133.00 L 414.00 1139.00 L 408.00 1138.00 L 420.00 1130.00 L 422.00 1127.00 L 414.00 1129.00 L 419.00 1127.00 L 437.00 1121.00 L 440.00 1109.00 L 428.00 1091.00 L 422.00 1076.00 L 422.00 1064.00 L 427.00 1054.00 L 437.00 1046.00 L 444.00 1041.00 L 448.00 1039.00 L 440.00 1026.00 Z" fill="black" stroke="black" stroke-width="1"/>
</svg>