<?xml version="1.0" encoding="UTF-8"?>
<svg xmlns="http://www.w3.org/2000/svg" viewBox="422.00 171.00 990.00 1580.00">
  <path d="M 599.00 939.00 L 601.00 925.00 L 594.00 896.00 L 578.00 852.00 L 572.00 818.00 L 576.00 794.00 L 570.00 774.00 L 554.00 758.00 L 552.00 753.00 L 564.00 759.00 L 561.00 756.00 L 543.00 744.00 L 532.00 731.00 L 528.00 717.00 L 542.00 695.00 L 574.00 665.00 L 595.00 641.00 L 605.00 623.00 L 611.00 589.00 L 613.00 539.00 L 610.00 504.00 L 602.00 484.00 L 603.00 482.00 L 613.00 498.00 L 613.00 495.00 L 603.00 473.00 L 604.00 470.00 L 616.00 486.00 L 617.00 483.00 L 607.00 461.00 L 608.00 458.00 L 620.00 474.00 L 621.00 472.00 L 611.00 452.00 L 609.00 446.00 L 615.00 454.00 L 616.00 451.00 L 612.00 437.00 L 615.00 439.00 L 625.00 457.00 L 626.00 455.00 L 618.00 433.00 L 619.00 430.00 L 629.00 446.00 L 631.00 443.00 L 625.00 421.00 L 626.00 418.00 L 634.00 434.00 L 636.00 431.00 L 632.00 409.00 L 634.00 405.00 L 642.00 419.00 L 645.00 416.00 L 643.00 396.00 L 645.00 391.00 L 651.00 401.00 L 654.00 399.00 L 654.00 385.00 L 682.00 356.00 L 738.00 312.00 L 791.00 279.00 L 841.00 257.00 L 894.00 243.00 L 950.00 237.00 L 983.00 229.00 L 993.00 219.00 L 998.00 217.00 L 998.00 223.00 L 1002.00 217.00 L 1010.00 199.00 L 1025.00 187.00 L 1047.00 181.00 L 1075.00 189.00 L 1109.00 211.00 L 1135.00 218.00 L 1153.00 210.00 L 1174.00 224.00 L 1198.00 260.00 L 1218.00 279.00 L 1234.00 281.00 L 1254.00 289.00 L 1278.00 303.00 L 1299.00 319.00 L 1317.00 337.00 L 1340.00 369.00 L 1368.00 415.00 L 1387.00 456.00 L 1397.00 492.00 L 1402.00 531.00 L 1402.00 573.00 L 1398.00 608.00 L 1390.00 636.00 L 1382.00 661.00 L 1374.00 683.00 L 1359.00 707.00 L 1337.00 733.00 L 1304.00 757.00 L 1260.00 779.00 L 1257.00 782.00 L 1295.00 766.00 L 1272.00 784.00 L 1188.00 836.00 L 1141.00 887.00 L 1131.00 937.00 L 1139.00 1002.00 L 1165.00 1082.00 L 1197.00 1160.00 L 1235.00 1236.00 L 1265.00 1312.00 L 1287.00 1388.00 L 1240.00 1438.00 L 1124.00 1462.00 L 1033.00 1486.00 L 967.00 1510.00 L 887.00 1549.00 L 793.00 1603.00 L 697.00 1667.00 L 599.00 1741.00 L 610.00 1633.00 L 730.00 1343.00 L 727.00 1346.00 L 601.00 1642.00 L 601.00 1639.00 L 727.00 1337.00 L 724.00 1335.00 L 592.00 1633.00 L 592.00 1631.00 L 724.00 1329.00 L 720.00 1327.00 L 580.00 1625.00 L 580.00 1623.00 L 720.00 1321.00 L 719.00 1320.00 L 577.00 1620.00 L 577.00 1618.00 L 719.00 1314.00 L 716.00 1311.00 L 568.00 1609.00 L 558.00 1628.00 L 686.00 1368.00 L 684.00 1367.00 L 552.00 1625.00 L 562.00 1603.00 L 714.00 1301.00 L 711.00 1299.00 L 553.00 1597.00 L 536.00 1625.00 L 660.00 1383.00 L 657.00 1380.00 L 527.00 1616.00 L 544.00 1585.00 L 708.00 1287.00 L 705.00 1284.00 L 535.00 1576.00 L 535.00 1574.00 L 705.00 1278.00 L 703.00 1276.00 L 529.00 1568.00 L 529.00 1566.00 L 703.00 1270.00 L 701.00 1267.00 L 523.00 1557.00 L 492.00 1606.00 L 608.00 1414.00 L 607.00 1411.00 L 489.00 1597.00 L 486.00 1600.00 L 598.00 1420.00 L 597.00 1418.00 L 483.00 1594.00 L 479.00 1597.00 L 585.00 1427.00 L 584.00 1424.00 L 476.00 1588.00 L 513.00 1531.00 L 695.00 1253.00 L 694.00 1250.00 L 510.00 1522.00 L 510.00 1521.00 L 694.00 1247.00 L 693.00 1245.00 L 507.00 1515.00 L 458.00 1585.00 L 546.00 1455.00 L 545.00 1453.00 L 455.00 1579.00 L 449.00 1585.00 L 527.00 1471.00 L 527.00 1469.00 L 449.00 1579.00 L 504.00 1501.00 L 692.00 1235.00 L 692.00 1232.00 L 504.00 1492.00 L 445.00 1573.00 L 515.00 1475.00 L 515.00 1473.00 L 445.00 1567.00 L 442.00 1570.00 L 506.00 1482.00 L 506.00 1479.00 L 442.00 1561.00 L 435.00 1568.00 L 485.00 1500.00 L 486.00 1498.00 L 438.00 1562.00 L 436.00 1564.00 L 480.00 1504.00 L 481.00 1501.00 L 439.00 1555.00 L 434.00 1560.00 L 466.00 1516.00 L 467.00 1513.00 L 437.00 1551.00 L 434.00 1554.00 L 458.00 1522.00 L 460.00 1518.00 L 440.00 1542.00 L 432.00 1551.00 L 436.00 1545.00 L 524.00 1430.00 L 696.00 1206.00 L 777.00 1083.00 L 767.00 1061.00 L 744.00 1049.00 L 708.00 1047.00 L 674.00 1039.00 L 642.00 1025.00 L 620.00 1011.00 L 608.00 997.00 L 600.00 982.00 L 596.00 966.00 L 595.00 955.00 L 597.00 949.00 L 599.00 939.00 Z" fill="black" stroke="black" stroke-width="1"/>
</svg>