<?xml version="1.0" encoding="UTF-8"?>
<svg xmlns="http://www.w3.org/2000/svg" viewBox="285.00 269.00 915.00 1521.00">
  <path d="M 465.00 970.00 L 463.00 938.00 L 457.00 915.00 L 447.00 901.00 L 443.00 885.00 L 445.00 867.00 L 443.00 854.00 L 437.00 846.00 L 438.00 833.00 L 446.00 815.00 L 439.00 795.00 L 417.00 773.00 L 405.00 755.00 L 403.00 741.00 L 422.00 711.00 L 462.00 665.00 L 481.00 624.00 L 479.00 588.00 L 473.00 561.00 L 463.00 543.00 L 463.00 540.00 L 473.00 552.00 L 473.00 549.00 L 463.00 531.00 L 464.00 529.00 L 476.00 543.00 L 477.00 540.00 L 467.00 520.00 L 462.00 508.00 L 462.00 504.00 L 467.00 511.00 L 477.00 529.00 L 479.00 527.00 L 473.00 505.00 L 475.00 501.00 L 485.00 515.00 L 486.00 512.00 L 478.00 492.00 L 479.00 489.00 L 489.00 503.00 L 491.00 497.00 L 485.00 471.00 L 486.00 466.00 L 494.00 482.00 L 496.00 480.00 L 492.00 460.00 L 494.00 457.00 L 502.00 471.00 L 505.00 468.00 L 503.00 448.00 L 508.00 430.00 L 520.00 414.00 L 542.00 391.00 L 574.00 361.00 L 614.00 334.00 L 662.00 310.00 L 708.00 296.00 L 752.00 292.00 L 799.00 293.00 L 849.00 299.00 L 874.00 304.00 L 874.00 308.00 L 875.00 306.00 L 877.00 298.00 L 878.00 299.00 L 878.00 309.00 L 881.00 305.00 L 887.00 287.00 L 898.00 279.00 L 914.00 281.00 L 929.00 289.00 L 943.00 303.00 L 954.00 303.00 L 962.00 289.00 L 970.00 282.00 L 978.00 282.00 L 988.00 295.00 L 1000.00 321.00 L 1021.00 342.00 L 1051.00 358.00 L 1085.00 388.00 L 1123.00 432.00 L 1151.00 474.00 L 1169.00 514.00 L 1182.00 563.00 L 1190.00 621.00 L 1182.00 678.00 L 1158.00 734.00 L 1109.00 784.00 L 1035.00 828.00 L 1029.00 834.00 L 1091.00 802.00 L 1098.00 799.00 L 1050.00 825.00 L 1048.00 827.00 L 1092.00 805.00 L 1069.00 819.00 L 979.00 869.00 L 933.00 912.00 L 931.00 948.00 L 937.00 997.00 L 951.00 1059.00 L 982.00 1145.00 L 1030.00 1255.00 L 1062.00 1347.00 L 1078.00 1421.00 L 1037.00 1463.00 L 939.00 1473.00 L 852.00 1492.00 L 776.00 1520.00 L 693.00 1563.00 L 603.00 1621.00 L 523.00 1683.00 L 453.00 1749.00 L 412.00 1780.00 L 400.00 1776.00 L 456.00 1628.00 L 580.00 1336.00 L 578.00 1334.00 L 450.00 1622.00 L 450.00 1620.00 L 578.00 1328.00 L 576.00 1327.00 L 444.00 1617.00 L 444.00 1615.00 L 576.00 1321.00 L 574.00 1320.00 L 438.00 1612.00 L 434.00 1620.00 L 562.00 1344.00 L 560.00 1343.00 L 428.00 1617.00 L 426.00 1619.00 L 554.00 1349.00 L 552.00 1347.00 L 420.00 1613.00 L 418.00 1615.00 L 546.00 1353.00 L 543.00 1351.00 L 409.00 1609.00 L 416.00 1594.00 L 564.00 1306.00 L 561.00 1304.00 L 407.00 1588.00 L 407.00 1586.00 L 561.00 1298.00 L 560.00 1296.00 L 404.00 1580.00 L 392.00 1601.00 L 524.00 1359.00 L 522.00 1357.00 L 386.00 1595.00 L 382.00 1599.00 L 510.00 1369.00 L 508.00 1365.00 L 376.00 1587.00 L 374.00 1588.00 L 502.00 1368.00 L 501.00 1366.00 L 371.00 1582.00 L 388.00 1553.00 L 552.00 1279.00 L 551.00 1276.00 L 385.00 1544.00 L 364.00 1577.00 L 488.00 1375.00 L 488.00 1373.00 L 364.00 1571.00 L 363.00 1572.00 L 485.00 1376.00 L 484.00 1375.00 L 360.00 1569.00 L 358.00 1571.00 L 478.00 1381.00 L 478.00 1378.00 L 358.00 1562.00 L 356.00 1564.00 L 472.00 1384.00 L 471.00 1381.00 L 353.00 1555.00 L 347.00 1560.00 L 453.00 1396.00 L 453.00 1391.00 L 347.00 1545.00 L 295.00 1620.00 L 297.00 1616.00 L 381.00 1493.00 L 547.00 1251.00 L 547.00 1248.00 L 381.00 1484.00 L 343.00 1537.00 L 433.00 1407.00 L 433.00 1405.00 L 343.00 1531.00 L 341.00 1533.00 L 427.00 1411.00 L 428.00 1409.00 L 344.00 1527.00 L 342.00 1529.00 L 422.00 1415.00 L 422.00 1413.00 L 342.00 1523.00 L 340.00 1525.00 L 416.00 1419.00 L 417.00 1416.00 L 343.00 1516.00 L 338.00 1521.00 L 402.00 1431.00 L 405.00 1425.00 L 347.00 1503.00 L 344.00 1506.00 L 396.00 1434.00 L 398.00 1430.00 L 350.00 1494.00 L 348.00 1496.00 L 392.00 1436.00 L 395.00 1431.00 L 357.00 1481.00 L 352.00 1487.00 L 380.00 1449.00 L 381.00 1447.00 L 355.00 1481.00 L 354.00 1482.00 L 378.00 1450.00 L 380.00 1447.00 L 360.00 1473.00 L 356.00 1478.00 L 368.00 1462.00 L 372.00 1456.00 L 368.00 1460.00 L 431.00 1376.00 L 561.00 1204.00 L 617.00 1103.00 L 599.00 1073.00 L 566.00 1047.00 L 518.00 1025.00 L 489.00 1009.00 L 479.00 999.00 L 472.00 992.00 L 468.00 988.00 L 465.00 970.00 Z" fill="black" stroke="black" stroke-width="1"/>
</svg>