<?xml version="1.0" encoding="UTF-8"?>
<svg xmlns="http://www.w3.org/2000/svg" viewBox="388.00 278.00 847.00 1425.00">
  <path d="M 515.00 989.00 L 509.00 979.00 L 506.00 968.00 L 506.00 956.00 L 510.00 944.00 L 518.00 932.00 L 518.00 911.00 L 510.00 881.00 L 507.00 859.00 L 509.00 845.00 L 495.00 826.00 L 465.00 802.00 L 460.00 796.00 L 480.00 808.00 L 478.00 806.00 L 454.00 790.00 L 458.00 792.00 L 490.00 812.00 L 490.00 810.00 L 458.00 786.00 L 442.00 772.00 L 442.00 768.00 L 445.00 760.00 L 451.00 748.00 L 473.00 722.00 L 511.00 682.00 L 536.00 634.00 L 548.00 578.00 L 551.00 542.00 L 545.00 526.00 L 546.00 525.00 L 554.00 539.00 L 554.00 536.00 L 546.00 516.00 L 547.00 513.00 L 557.00 527.00 L 558.00 525.00 L 550.00 507.00 L 551.00 504.00 L 561.00 516.00 L 563.00 513.00 L 557.00 495.00 L 556.00 490.00 L 560.00 498.00 L 561.00 496.00 L 559.00 484.00 L 561.00 485.00 L 567.00 499.00 L 568.00 497.00 L 564.00 479.00 L 565.00 477.00 L 571.00 491.00 L 575.00 495.00 L 577.00 489.00 L 576.00 479.00 L 572.00 465.00 L 573.00 464.00 L 579.00 476.00 L 581.00 474.00 L 579.00 458.00 L 585.00 445.00 L 599.00 435.00 L 612.00 421.00 L 624.00 403.00 L 638.00 387.00 L 654.00 373.00 L 691.00 351.00 L 749.00 321.00 L 803.00 301.00 L 853.00 291.00 L 901.00 288.00 L 947.00 292.00 L 985.00 300.00 L 1015.00 312.00 L 1048.00 329.00 L 1084.00 351.00 L 1118.00 382.00 L 1150.00 422.00 L 1177.00 469.00 L 1199.00 523.00 L 1214.00 565.00 L 1222.00 595.00 L 1225.00 629.00 L 1223.00 667.00 L 1210.00 712.00 L 1186.00 764.00 L 1160.00 808.00 L 1132.00 844.00 L 1105.00 872.00 L 1079.00 892.00 L 1063.00 910.00 L 1057.00 926.00 L 1050.00 937.00 L 1042.00 943.00 L 1044.00 954.00 L 1056.00 970.00 L 1065.00 986.00 L 1071.00 1002.00 L 1079.00 1035.00 L 1089.00 1085.00 L 1092.00 1120.00 L 1088.00 1140.00 L 1091.00 1157.00 L 1101.00 1171.00 L 1110.00 1197.00 L 1118.00 1235.00 L 1133.00 1280.00 L 1155.00 1332.00 L 1170.00 1373.00 L 1178.00 1403.00 L 1181.00 1420.00 L 1179.00 1424.00 L 1173.00 1425.00 L 1163.00 1423.00 L 1146.00 1424.00 L 1122.00 1428.00 L 1081.00 1438.00 L 1023.00 1454.00 L 948.00 1482.00 L 856.00 1522.00 L 756.00 1575.00 L 648.00 1641.00 L 580.00 1679.00 L 552.00 1689.00 L 522.00 1693.00 L 490.00 1691.00 L 460.00 1677.00 L 432.00 1651.00 L 413.00 1623.00 L 403.00 1593.00 L 398.00 1568.00 L 398.00 1548.00 L 403.00 1513.00 L 413.00 1463.00 L 425.00 1420.00 L 439.00 1384.00 L 445.00 1367.00 L 443.00 1369.00 L 459.00 1345.00 L 493.00 1295.00 L 508.00 1272.00 L 504.00 1276.00 L 507.00 1265.00 L 517.00 1239.00 L 529.00 1215.00 L 543.00 1193.00 L 548.00 1183.00 L 544.00 1185.00 L 547.00 1182.00 L 557.00 1174.00 L 553.00 1177.00 L 535.00 1191.00 L 536.00 1190.00 L 556.00 1174.00 L 550.00 1177.00 L 518.00 1199.00 L 515.00 1200.00 L 541.00 1180.00 L 539.00 1180.00 L 509.00 1200.00 L 489.00 1210.00 L 479.00 1210.00 L 472.00 1208.00 L 468.00 1204.00 L 487.00 1186.00 L 529.00 1154.00 L 540.00 1144.00 L 520.00 1156.00 L 518.00 1157.00 L 534.00 1147.00 L 536.00 1145.00 L 524.00 1151.00 L 521.00 1149.00 L 527.00 1139.00 L 543.00 1125.00 L 569.00 1107.00 L 566.00 1105.00 L 534.00 1119.00 L 534.00 1118.00 L 566.00 1102.00 L 566.00 1099.00 L 534.00 1109.00 L 533.00 1106.00 L 563.00 1090.00 L 566.00 1086.00 L 542.00 1094.00 L 542.00 1092.00 L 566.00 1080.00 L 567.00 1078.00 L 545.00 1086.00 L 543.00 1084.00 L 561.00 1072.00 L 567.00 1062.00 L 561.00 1054.00 L 563.00 1046.00 L 573.00 1038.00 L 566.00 1026.00 L 542.00 1010.00 L 527.00 1000.00 L 521.00 996.00 L 515.00 989.00 Z" fill="black" stroke="black" stroke-width="1"/>
</svg>