<?xml version="1.0" encoding="UTF-8"?>
<svg xmlns="http://www.w3.org/2000/svg" viewBox="377.00 260.00 917.00 1555.00">
  <path d="M 467.00 964.00 L 469.00 944.00 L 464.00 927.00 L 452.00 913.00 L 449.00 902.00 L 455.00 894.00 L 457.00 883.00 L 455.00 869.00 L 441.00 850.00 L 415.00 826.00 L 422.00 782.00 L 462.00 718.00 L 481.00 674.00 L 479.00 650.00 L 469.00 627.00 L 451.00 605.00 L 450.00 602.00 L 466.00 618.00 L 466.00 614.00 L 450.00 590.00 L 451.00 588.00 L 469.00 608.00 L 469.00 603.00 L 451.00 573.00 L 451.00 568.00 L 469.00 588.00 L 470.00 586.00 L 454.00 562.00 L 454.00 558.00 L 470.00 574.00 L 471.00 571.00 L 457.00 549.00 L 457.00 546.00 L 471.00 562.00 L 472.00 561.00 L 460.00 543.00 L 461.00 540.00 L 475.00 552.00 L 476.00 549.00 L 464.00 531.00 L 465.00 528.00 L 479.00 540.00 L 481.00 538.00 L 471.00 522.00 L 472.00 519.00 L 484.00 529.00 L 486.00 526.00 L 478.00 510.00 L 479.00 508.00 L 489.00 520.00 L 490.00 518.00 L 482.00 502.00 L 483.00 498.00 L 493.00 506.00 L 495.00 501.00 L 489.00 483.00 L 510.00 447.00 L 558.00 393.00 L 622.00 348.00 L 702.00 312.00 L 769.00 290.00 L 823.00 282.00 L 886.00 282.00 L 958.00 290.00 L 999.00 288.00 L 1009.00 276.00 L 1020.00 270.00 L 1032.00 270.00 L 1044.00 276.00 L 1056.00 288.00 L 1068.00 288.00 L 1080.00 276.00 L 1098.00 286.00 L 1122.00 318.00 L 1148.00 339.00 L 1176.00 349.00 L 1198.00 362.00 L 1214.00 378.00 L 1231.00 401.00 L 1249.00 431.00 L 1263.00 462.00 L 1273.00 494.00 L 1280.00 548.00 L 1284.00 624.00 L 1241.00 693.00 L 1151.00 755.00 L 1151.00 758.00 L 1241.00 702.00 L 1239.00 704.00 L 1145.00 764.00 L 1144.00 767.00 L 1236.00 713.00 L 1235.00 715.00 L 1141.00 773.00 L 1141.00 775.00 L 1235.00 721.00 L 1234.00 724.00 L 1138.00 784.00 L 1136.00 788.00 L 1228.00 736.00 L 1226.00 739.00 L 1130.00 797.00 L 1128.00 801.00 L 1220.00 751.00 L 1239.00 741.00 L 1185.00 771.00 L 1183.00 774.00 L 1233.00 750.00 L 1240.00 748.00 L 1204.00 768.00 L 1202.00 770.00 L 1234.00 754.00 L 1206.00 769.00 L 1118.00 815.00 L 1113.00 819.00 L 1191.00 781.00 L 1189.00 784.00 L 1107.00 828.00 L 1058.00 860.00 L 1042.00 880.00 L 1034.00 899.00 L 1034.00 917.00 L 1043.00 952.00 L 1061.00 1004.00 L 1075.00 1033.00 L 1085.00 1039.00 L 1094.00 1056.00 L 1102.00 1084.00 L 1125.00 1128.00 L 1163.00 1188.00 L 1193.00 1260.00 L 1215.00 1344.00 L 1189.00 1399.00 L 1115.00 1425.00 L 1021.00 1467.00 L 907.00 1525.00 L 801.00 1586.00 L 703.00 1650.00 L 612.00 1714.00 L 528.00 1778.00 L 477.00 1805.00 L 459.00 1795.00 L 514.00 1640.00 L 642.00 1340.00 L 640.00 1339.00 L 508.00 1637.00 L 440.00 1785.00 L 436.00 1783.00 L 502.00 1632.00 L 638.00 1332.00 L 635.00 1329.00 L 493.00 1623.00 L 493.00 1620.00 L 635.00 1320.00 L 633.00 1319.00 L 487.00 1617.00 L 411.00 1763.00 L 405.00 1757.00 L 471.00 1619.00 L 609.00 1349.00 L 607.00 1347.00 L 465.00 1613.00 L 471.00 1599.00 L 625.00 1305.00 L 623.00 1303.00 L 465.00 1593.00 L 452.00 1614.00 L 584.00 1366.00 L 581.00 1361.00 L 443.00 1599.00 L 441.00 1601.00 L 575.00 1367.00 L 574.00 1366.00 L 438.00 1598.00 L 436.00 1600.00 L 568.00 1372.00 L 567.00 1369.00 L 433.00 1591.00 L 431.00 1593.00 L 561.00 1375.00 L 560.00 1372.00 L 428.00 1584.00 L 423.00 1590.00 L 545.00 1390.00 L 544.00 1388.00 L 420.00 1584.00 L 442.00 1548.00 L 610.00 1280.00 L 610.00 1277.00 L 442.00 1539.00 L 411.00 1585.00 L 517.00 1415.00 L 516.00 1412.00 L 408.00 1576.00 L 404.00 1580.00 L 504.00 1424.00 L 504.00 1421.00 L 404.00 1571.00 L 401.00 1574.00 L 495.00 1430.00 L 495.00 1427.00 L 401.00 1565.00 L 396.00 1571.00 L 480.00 1445.00 L 481.00 1441.00 L 399.00 1559.00 L 397.00 1561.00 L 475.00 1447.00 L 475.00 1444.00 L 397.00 1552.00 L 387.00 1564.00 L 445.00 1480.00 L 446.00 1477.00 L 390.00 1555.00 L 443.00 1480.00 L 605.00 1252.00 L 606.00 1249.00 L 446.00 1471.00 L 444.00 1470.00 L 600.00 1246.00 L 671.00 1130.00 L 657.00 1122.00 L 624.00 1114.00 L 572.00 1106.00 L 539.00 1097.00 L 525.00 1087.00 L 508.00 1058.00 L 488.00 1010.00 L 475.00 983.00 L 469.00 977.00 L 467.00 964.00 Z" fill="black" stroke="black" stroke-width="1"/>
</svg>