<?xml version="1.0" encoding="UTF-8"?>
<svg xmlns="http://www.w3.org/2000/svg" viewBox="341.00 206.00 1018.00 1605.00">
  <path d="M 586.00 1048.00 L 602.00 1036.00 L 588.00 1005.00 L 544.00 955.00 L 523.00 921.00 L 525.00 903.00 L 532.00 884.00 L 544.00 864.00 L 549.00 836.00 L 547.00 800.00 L 530.00 764.00 L 498.00 728.00 L 499.00 725.00 L 533.00 755.00 L 539.00 760.00 L 517.00 740.00 L 517.00 738.00 L 539.00 754.00 L 533.00 746.00 L 499.00 714.00 L 499.00 713.00 L 533.00 743.00 L 533.00 740.00 L 499.00 704.00 L 503.00 658.00 L 545.00 602.00 L 570.00 551.00 L 578.00 505.00 L 599.00 452.00 L 633.00 392.00 L 670.00 345.00 L 710.00 311.00 L 735.00 285.00 L 745.00 267.00 L 768.00 249.00 L 804.00 231.00 L 833.00 220.00 L 855.00 216.00 L 904.00 216.00 L 980.00 220.00 L 1055.00 237.00 L 1129.00 267.00 L 1181.00 303.00 L 1211.00 345.00 L 1231.00 394.00 L 1241.00 450.00 L 1255.00 505.00 L 1273.00 559.00 L 1283.00 666.00 L 1285.00 826.00 L 1289.00 917.00 L 1295.00 939.00 L 1305.00 950.00 L 1319.00 950.00 L 1332.00 956.00 L 1344.00 968.00 L 1349.00 977.00 L 1347.00 983.00 L 1336.00 988.00 L 1316.00 992.00 L 1315.00 994.00 L 1333.00 994.00 L 1325.00 1000.00 L 1291.00 1012.00 L 1285.00 1017.00 L 1307.00 1015.00 L 1310.00 1015.00 L 1294.00 1017.00 L 1295.00 1019.00 L 1313.00 1021.00 L 1310.00 1025.00 L 1286.00 1031.00 L 1287.00 1034.00 L 1313.00 1034.00 L 1313.00 1036.00 L 1287.00 1040.00 L 1287.00 1042.00 L 1313.00 1042.00 L 1319.00 1043.00 L 1305.00 1045.00 L 1305.00 1047.00 L 1319.00 1049.00 L 1313.00 1051.00 L 1287.00 1053.00 L 1287.00 1055.00 L 1313.00 1057.00 L 1314.00 1060.00 L 1290.00 1064.00 L 1290.00 1067.00 L 1314.00 1069.00 L 1314.00 1071.00 L 1290.00 1073.00 L 1290.00 1076.00 L 1314.00 1080.00 L 1315.00 1082.00 L 1293.00 1082.00 L 1294.00 1085.00 L 1318.00 1091.00 L 1318.00 1094.00 L 1294.00 1094.00 L 1293.00 1097.00 L 1315.00 1103.00 L 1316.00 1106.00 L 1296.00 1106.00 L 1294.00 1107.00 L 1310.00 1109.00 L 1310.00 1112.00 L 1294.00 1116.00 L 1291.00 1155.00 L 1301.00 1229.00 L 1300.00 1266.00 L 1288.00 1266.00 L 1288.00 1269.00 L 1300.00 1275.00 L 1306.00 1280.00 L 1306.00 1284.00 L 1300.00 1283.00 L 1288.00 1277.00 L 1288.00 1280.00 L 1300.00 1292.00 L 1301.00 1296.00 L 1291.00 1292.00 L 1290.00 1295.00 L 1298.00 1305.00 L 1298.00 1308.00 L 1290.00 1304.00 L 1287.00 1365.00 L 1289.00 1491.00 L 1237.00 1556.00 L 1131.00 1560.00 L 1020.00 1575.00 L 904.00 1601.00 L 811.00 1629.00 L 741.00 1659.00 L 679.00 1694.00 L 625.00 1734.00 L 575.00 1765.00 L 529.00 1787.00 L 489.00 1799.00 L 455.00 1801.00 L 423.00 1794.00 L 393.00 1778.00 L 372.00 1758.00 L 360.00 1734.00 L 353.00 1707.00 L 351.00 1677.00 L 354.00 1637.00 L 362.00 1587.00 L 376.00 1534.00 L 396.00 1478.00 L 421.00 1423.00 L 451.00 1369.00 L 498.00 1305.00 L 562.00 1231.00 L 578.00 1202.00 L 546.00 1218.00 L 549.00 1216.00 L 587.00 1196.00 L 582.00 1197.00 L 534.00 1219.00 L 533.00 1218.00 L 579.00 1194.00 L 576.00 1194.00 L 524.00 1218.00 L 522.00 1218.00 L 570.00 1194.00 L 568.00 1194.00 L 516.00 1218.00 L 513.00 1219.00 L 559.00 1197.00 L 556.00 1196.00 L 504.00 1216.00 L 472.00 1225.00 L 460.00 1223.00 L 461.00 1218.00 L 475.00 1210.00 L 475.00 1208.00 L 461.00 1212.00 L 483.00 1201.00 L 541.00 1175.00 L 553.00 1168.00 L 519.00 1180.00 L 517.00 1179.00 L 547.00 1165.00 L 553.00 1161.00 L 535.00 1167.00 L 532.00 1166.00 L 544.00 1158.00 L 547.00 1152.00 L 541.00 1148.00 L 555.00 1139.00 L 589.00 1125.00 L 589.00 1122.00 L 555.00 1130.00 L 552.00 1129.00 L 580.00 1119.00 L 583.00 1115.00 L 561.00 1117.00 L 563.00 1115.00 L 589.00 1109.00 L 592.00 1107.00 L 572.00 1109.00 L 571.00 1106.00 L 589.00 1098.00 L 595.00 1087.00 L 589.00 1073.00 L 584.00 1063.00 L 580.00 1057.00 L 586.00 1048.00 Z" fill="black" stroke="black" stroke-width="1"/>
</svg>