<?xml version="1.0" encoding="UTF-8"?>
<svg xmlns="http://www.w3.org/2000/svg" viewBox="261.00 307.00 954.00 1505.00">
  <path d="M 403.00 998.00 L 397.00 986.00 L 397.00 967.00 L 403.00 941.00 L 401.00 921.00 L 391.00 907.00 L 388.00 894.00 L 392.00 882.00 L 391.00 872.00 L 385.00 864.00 L 383.00 851.00 L 385.00 833.00 L 376.00 815.00 L 356.00 797.00 L 343.00 780.00 L 337.00 764.00 L 355.00 731.00 L 397.00 681.00 L 419.00 649.00 L 421.00 635.00 L 415.00 617.00 L 401.00 595.00 L 401.00 592.00 L 415.00 608.00 L 415.00 606.00 L 401.00 586.00 L 397.00 579.00 L 403.00 585.00 L 403.00 582.00 L 397.00 570.00 L 401.00 574.00 L 415.00 594.00 L 415.00 591.00 L 401.00 565.00 L 401.00 561.00 L 415.00 579.00 L 416.00 577.00 L 404.00 555.00 L 404.00 553.00 L 416.00 571.00 L 417.00 569.00 L 407.00 547.00 L 408.00 544.00 L 420.00 560.00 L 422.00 556.00 L 414.00 532.00 L 415.00 526.00 L 425.00 538.00 L 425.00 535.00 L 415.00 517.00 L 415.00 514.00 L 425.00 526.00 L 425.00 523.00 L 415.00 505.00 L 416.00 502.00 L 428.00 514.00 L 430.00 510.00 L 422.00 490.00 L 423.00 487.00 L 433.00 501.00 L 436.00 497.00 L 432.00 475.00 L 434.00 471.00 L 442.00 485.00 L 444.00 484.00 L 440.00 468.00 L 441.00 465.00 L 447.00 475.00 L 449.00 473.00 L 447.00 459.00 L 458.00 440.00 L 482.00 416.00 L 530.00 386.00 L 602.00 350.00 L 673.00 327.00 L 743.00 317.00 L 812.00 321.00 L 880.00 339.00 L 919.00 342.00 L 929.00 330.00 L 932.00 330.00 L 928.00 342.00 L 930.00 341.00 L 938.00 327.00 L 948.00 319.00 L 960.00 317.00 L 976.00 324.00 L 996.00 340.00 L 1010.00 360.00 L 1018.00 384.00 L 1033.00 395.00 L 1055.00 393.00 L 1072.00 414.00 L 1084.00 458.00 L 1100.00 484.00 L 1120.00 492.00 L 1140.00 508.00 L 1160.00 532.00 L 1178.00 563.00 L 1194.00 601.00 L 1203.00 633.00 L 1205.00 659.00 L 1200.00 689.00 L 1188.00 723.00 L 1169.00 756.00 L 1143.00 788.00 L 1107.00 816.00 L 1061.00 840.00 L 1060.00 842.00 L 1104.00 822.00 L 1103.00 824.00 L 1057.00 848.00 L 1026.00 872.00 L 1010.00 896.00 L 990.00 917.00 L 966.00 935.00 L 951.00 949.00 L 945.00 959.00 L 942.00 981.00 L 942.00 1015.00 L 972.00 1111.00 L 1032.00 1269.00 L 1069.00 1391.00 L 1083.00 1477.00 L 1047.00 1528.00 L 961.00 1544.00 L 884.00 1564.00 L 816.00 1588.00 L 731.00 1626.00 L 629.00 1678.00 L 539.00 1730.00 L 461.00 1782.00 L 410.00 1802.00 L 386.00 1790.00 L 352.00 1762.00 L 308.00 1718.00 L 363.00 1567.00 L 517.00 1309.00 L 516.00 1307.00 L 360.00 1561.00 L 361.00 1558.00 L 519.00 1298.00 L 518.00 1295.00 L 358.00 1549.00 L 353.00 1556.00 L 503.00 1316.00 L 502.00 1315.00 L 350.00 1553.00 L 273.00 1669.00 L 271.00 1663.00 L 344.00 1547.00 L 492.00 1321.00 L 492.00 1318.00 L 344.00 1538.00 L 352.00 1525.00 L 516.00 1279.00 L 516.00 1277.00 L 352.00 1519.00 L 341.00 1535.00 L 483.00 1325.00 L 482.00 1322.00 L 338.00 1526.00 L 334.00 1530.00 L 470.00 1334.00 L 470.00 1332.00 L 334.00 1524.00 L 332.00 1525.00 L 464.00 1335.00 L 465.00 1328.00 L 335.00 1504.00 L 352.00 1480.00 L 516.00 1256.00 L 516.00 1253.00 L 352.00 1471.00 L 352.00 1470.00 L 516.00 1250.00 L 518.00 1244.00 L 358.00 1452.00 L 325.00 1494.00 L 419.00 1370.00 L 419.00 1368.00 L 325.00 1488.00 L 319.00 1495.00 L 401.00 1389.00 L 402.00 1387.00 L 322.00 1489.00 L 320.00 1491.00 L 396.00 1393.00 L 396.00 1392.00 L 320.00 1488.00 L 314.00 1495.00 L 378.00 1413.00 L 379.00 1411.00 L 317.00 1489.00 L 315.00 1491.00 L 373.00 1417.00 L 374.00 1415.00 L 318.00 1485.00 L 316.00 1487.00 L 368.00 1421.00 L 370.00 1418.00 L 322.00 1478.00 L 319.00 1481.00 L 361.00 1427.00 L 362.00 1424.00 L 322.00 1472.00 L 375.00 1404.00 L 521.00 1220.00 L 594.00 1122.00 L 594.00 1110.00 L 587.00 1094.00 L 573.00 1074.00 L 543.00 1060.00 L 497.00 1052.00 L 459.00 1040.00 L 429.00 1024.00 L 412.00 1013.00 L 408.00 1007.00 L 403.00 998.00 Z" fill="black" stroke="black" stroke-width="1"/>
</svg>