<?xml version="1.0" encoding="UTF-8"?>
<svg xmlns="http://www.w3.org/2000/svg" viewBox="314.00 250.00 886.00 1516.00">
  <path d="M 478.00 1004.00 L 470.00 1000.00 L 459.00 989.00 L 445.00 971.00 L 437.00 957.00 L 435.00 947.00 L 437.00 933.00 L 443.00 915.00 L 439.00 895.00 L 425.00 873.00 L 419.00 858.00 L 421.00 850.00 L 418.00 841.00 L 410.00 831.00 L 409.00 819.00 L 415.00 805.00 L 418.00 792.00 L 418.00 780.00 L 407.00 764.00 L 385.00 744.00 L 385.00 742.00 L 407.00 758.00 L 406.00 756.00 L 382.00 736.00 L 370.00 723.00 L 370.00 717.00 L 372.00 709.00 L 376.00 699.00 L 402.00 668.00 L 450.00 616.00 L 467.00 574.00 L 453.00 542.00 L 453.00 536.00 L 467.00 556.00 L 468.00 554.00 L 456.00 530.00 L 456.00 527.00 L 468.00 545.00 L 470.00 543.00 L 462.00 521.00 L 463.00 516.00 L 473.00 528.00 L 476.00 526.00 L 472.00 510.00 L 473.00 508.00 L 479.00 520.00 L 481.00 518.00 L 479.00 502.00 L 481.00 499.00 L 487.00 509.00 L 488.00 507.00 L 484.00 493.00 L 486.00 491.00 L 494.00 501.00 L 495.00 498.00 L 489.00 482.00 L 488.00 477.00 L 492.00 483.00 L 493.00 481.00 L 491.00 471.00 L 494.00 473.00 L 502.00 487.00 L 503.00 484.00 L 497.00 464.00 L 498.00 463.00 L 506.00 481.00 L 507.00 478.00 L 501.00 454.00 L 503.00 451.00 L 513.00 469.00 L 515.00 467.00 L 509.00 445.00 L 510.00 443.00 L 518.00 461.00 L 522.00 467.00 L 522.00 461.00 L 523.00 460.00 L 525.00 464.00 L 523.00 456.00 L 517.00 436.00 L 518.00 435.00 L 526.00 453.00 L 528.00 452.00 L 524.00 432.00 L 550.00 405.00 L 606.00 371.00 L 646.00 344.00 L 670.00 324.00 L 711.00 302.00 L 769.00 278.00 L 810.00 264.00 L 834.00 260.00 L 874.00 260.00 L 930.00 264.00 L 978.00 272.00 L 1018.00 284.00 L 1052.00 299.00 L 1080.00 317.00 L 1104.00 336.00 L 1124.00 356.00 L 1144.00 385.00 L 1164.00 423.00 L 1178.00 461.00 L 1186.00 499.00 L 1190.00 538.00 L 1190.00 578.00 L 1184.00 619.00 L 1172.00 661.00 L 1154.00 702.00 L 1130.00 742.00 L 1098.00 789.00 L 1058.00 843.00 L 1032.00 886.00 L 1020.00 918.00 L 1008.00 939.00 L 996.00 949.00 L 998.00 961.00 L 1014.00 975.00 L 1027.00 997.00 L 1037.00 1027.00 L 1045.00 1060.00 L 1051.00 1096.00 L 1054.00 1132.00 L 1054.00 1168.00 L 1051.00 1198.00 L 1045.00 1222.00 L 1054.00 1270.00 L 1078.00 1342.00 L 1096.00 1407.00 L 1108.00 1465.00 L 1113.00 1499.00 L 1111.00 1509.00 L 1065.00 1521.00 L 975.00 1535.00 L 892.00 1558.00 L 816.00 1590.00 L 756.00 1617.00 L 712.00 1639.00 L 678.00 1659.00 L 654.00 1677.00 L 607.00 1701.00 L 537.00 1731.00 L 481.00 1749.00 L 439.00 1755.00 L 410.00 1756.00 L 394.00 1752.00 L 378.00 1745.00 L 362.00 1735.00 L 348.00 1721.00 L 336.00 1703.00 L 328.00 1685.00 L 324.00 1667.00 L 324.00 1641.00 L 328.00 1607.00 L 334.00 1578.00 L 342.00 1554.00 L 345.00 1543.00 L 343.00 1545.00 L 362.00 1503.00 L 402.00 1417.00 L 420.00 1376.00 L 416.00 1380.00 L 434.00 1346.00 L 474.00 1274.00 L 492.00 1240.00 L 488.00 1244.00 L 494.00 1236.00 L 510.00 1216.00 L 506.00 1217.00 L 482.00 1239.00 L 479.00 1241.00 L 497.00 1223.00 L 495.00 1224.00 L 473.00 1244.00 L 448.00 1258.00 L 420.00 1266.00 L 432.00 1247.00 L 484.00 1201.00 L 481.00 1201.00 L 423.00 1247.00 L 423.00 1245.00 L 481.00 1195.00 L 479.00 1194.00 L 417.00 1242.00 L 412.00 1245.00 L 464.00 1203.00 L 462.00 1202.00 L 406.00 1242.00 L 408.00 1239.00 L 468.00 1193.00 L 468.00 1190.00 L 408.00 1230.00 L 416.00 1219.00 L 492.00 1157.00 L 529.00 1125.00 L 527.00 1123.00 L 512.00 1129.00 L 484.00 1143.00 L 483.00 1141.00 L 509.00 1123.00 L 509.00 1120.00 L 483.00 1132.00 L 478.00 1132.00 L 494.00 1120.00 L 497.00 1116.00 L 487.00 1120.00 L 490.00 1118.00 L 506.00 1110.00 L 508.00 1108.00 L 496.00 1112.00 L 495.00 1109.00 L 505.00 1099.00 L 503.00 1085.00 L 489.00 1067.00 L 482.00 1055.00 L 482.00 1049.00 L 487.00 1043.00 L 497.00 1037.00 L 499.00 1034.00 L 493.00 1034.00 L 499.00 1033.00 L 517.00 1031.00 L 522.00 1030.00 L 514.00 1030.00 L 511.00 1028.00 L 513.00 1024.00 L 509.00 1020.00 L 499.00 1016.00 L 491.00 1012.00 L 485.00 1008.00 L 478.00 1004.00 Z" fill="black" stroke="black" stroke-width="1"/>
</svg>