<?xml version="1.0" encoding="UTF-8"?>
<svg xmlns="http://www.w3.org/2000/svg" viewBox="368.00 139.00 1098.00 1671.00">
  <path d="M 600.00 905.00 L 596.00 891.00 L 597.00 874.00 L 603.00 854.00 L 600.00 836.00 L 588.00 820.00 L 583.00 803.00 L 585.00 785.00 L 583.00 771.00 L 577.00 761.00 L 577.00 745.00 L 583.00 723.00 L 574.00 701.00 L 550.00 679.00 L 549.00 675.00 L 571.00 689.00 L 570.00 687.00 L 546.00 669.00 L 534.00 655.00 L 534.00 645.00 L 553.00 615.00 L 591.00 565.00 L 611.00 537.00 L 613.00 531.00 L 608.00 519.00 L 596.00 501.00 L 597.00 499.00 L 611.00 513.00 L 612.00 510.00 L 600.00 490.00 L 601.00 487.00 L 615.00 501.00 L 616.00 493.00 L 604.00 463.00 L 603.00 455.00 L 613.00 469.00 L 612.00 467.00 L 600.00 449.00 L 594.00 437.00 L 594.00 431.00 L 600.00 437.00 L 612.00 455.00 L 612.00 452.00 L 600.00 428.00 L 601.00 425.00 L 615.00 443.00 L 616.00 440.00 L 604.00 416.00 L 605.00 413.00 L 619.00 431.00 L 620.00 429.00 L 608.00 407.00 L 608.00 405.00 L 620.00 423.00 L 621.00 421.00 L 611.00 399.00 L 612.00 396.00 L 624.00 412.00 L 625.00 409.00 L 615.00 387.00 L 616.00 384.00 L 628.00 400.00 L 628.00 396.00 L 616.00 372.00 L 616.00 369.00 L 628.00 387.00 L 629.00 384.00 L 619.00 360.00 L 620.00 359.00 L 632.00 381.00 L 638.00 389.00 L 638.00 383.00 L 633.00 369.00 L 623.00 347.00 L 624.00 344.00 L 636.00 360.00 L 639.00 356.00 L 633.00 332.00 L 635.00 328.00 L 645.00 344.00 L 648.00 342.00 L 644.00 322.00 L 664.00 291.00 L 708.00 249.00 L 750.00 217.00 L 790.00 195.00 L 838.00 176.00 L 894.00 160.00 L 955.00 151.00 L 1021.00 149.00 L 1089.00 154.00 L 1159.00 166.00 L 1205.00 177.00 L 1227.00 187.00 L 1249.00 185.00 L 1271.00 171.00 L 1296.00 173.00 L 1324.00 191.00 L 1342.00 213.00 L 1350.00 239.00 L 1364.00 254.00 L 1384.00 258.00 L 1398.00 286.00 L 1406.00 338.00 L 1420.00 386.00 L 1440.00 430.00 L 1452.00 466.00 L 1456.00 494.00 L 1455.00 541.00 L 1449.00 607.00 L 1435.00 659.00 L 1413.00 697.00 L 1348.00 739.00 L 1240.00 785.00 L 1238.00 788.00 L 1342.00 748.00 L 1341.00 749.00 L 1235.00 791.00 L 1233.00 793.00 L 1335.00 755.00 L 1339.00 754.00 L 1245.00 790.00 L 1243.00 792.00 L 1333.00 760.00 L 1336.00 760.00 L 1252.00 792.00 L 1249.00 794.00 L 1327.00 766.00 L 1330.00 766.00 L 1258.00 794.00 L 1253.00 798.00 L 1315.00 778.00 L 1305.00 782.00 L 1223.00 810.00 L 1222.00 811.00 L 1302.00 785.00 L 1302.00 788.00 L 1222.00 820.00 L 1182.00 846.00 L 1182.00 866.00 L 1229.00 996.00 L 1323.00 1236.00 L 1367.00 1359.00 L 1361.00 1365.00 L 1331.00 1373.00 L 1277.00 1383.00 L 1218.00 1399.00 L 1154.00 1421.00 L 1088.00 1448.00 L 1020.00 1480.00 L 922.00 1536.00 L 794.00 1616.00 L 676.00 1697.00 L 568.00 1779.00 L 493.00 1800.00 L 451.00 1760.00 L 524.00 1578.00 L 712.00 1254.00 L 710.00 1251.00 L 518.00 1569.00 L 513.00 1576.00 L 695.00 1272.00 L 693.00 1270.00 L 507.00 1570.00 L 504.00 1573.00 L 684.00 1279.00 L 682.00 1276.00 L 498.00 1564.00 L 506.00 1551.00 L 706.00 1237.00 L 705.00 1235.00 L 503.00 1545.00 L 489.00 1565.00 L 663.00 1295.00 L 662.00 1293.00 L 486.00 1559.00 L 482.00 1563.00 L 650.00 1305.00 L 648.00 1302.00 L 476.00 1554.00 L 475.00 1555.00 L 645.00 1305.00 L 644.00 1303.00 L 472.00 1549.00 L 465.00 1558.00 L 623.00 1330.00 L 622.00 1327.00 L 462.00 1549.00 L 487.00 1512.00 L 697.00 1216.00 L 696.00 1213.00 L 484.00 1503.00 L 449.00 1550.00 L 591.00 1354.00 L 591.00 1352.00 L 449.00 1544.00 L 445.00 1548.00 L 579.00 1364.00 L 579.00 1361.00 L 445.00 1539.00 L 378.00 1626.00 L 378.00 1622.00 L 484.00 1480.00 L 696.00 1200.00 L 695.00 1198.00 L 481.00 1474.00 L 432.00 1535.00 L 548.00 1381.00 L 548.00 1376.00 L 432.00 1520.00 L 426.00 1526.00 L 530.00 1394.00 L 531.00 1390.00 L 429.00 1514.00 L 424.00 1518.00 L 516.00 1402.00 L 517.00 1399.00 L 427.00 1509.00 L 425.00 1511.00 L 511.00 1405.00 L 512.00 1402.00 L 428.00 1502.00 L 387.00 1550.00 L 389.00 1546.00 L 492.00 1421.00 L 696.00 1175.00 L 698.00 1172.00 L 498.00 1412.00 L 497.00 1409.00 L 695.00 1163.00 L 787.00 1032.00 L 773.00 1016.00 L 741.00 1000.00 L 691.00 984.00 L 650.00 961.00 L 618.00 931.00 L 602.00 915.00 L 602.00 913.00 L 600.00 905.00 Z" fill="black" stroke="black" stroke-width="1"/>
</svg>