<?xml version="1.0" encoding="UTF-8"?>
<svg xmlns="http://www.w3.org/2000/svg" viewBox="216.00 172.00 1003.00 1645.00">
  <path d="M 420.00 1013.00 L 424.00 1003.00 L 434.00 996.00 L 450.00 992.00 L 459.00 988.00 L 461.00 984.00 L 457.00 975.00 L 447.00 961.00 L 429.00 945.00 L 403.00 927.00 L 388.00 913.00 L 384.00 903.00 L 386.00 884.00 L 394.00 856.00 L 396.00 832.00 L 392.00 812.00 L 392.00 794.00 L 396.00 778.00 L 395.00 764.00 L 389.00 752.00 L 387.00 742.00 L 389.00 734.00 L 374.00 715.00 L 342.00 685.00 L 330.00 673.00 L 338.00 679.00 L 335.00 675.00 L 321.00 661.00 L 332.00 670.00 L 368.00 702.00 L 367.00 699.00 L 329.00 661.00 L 328.00 658.00 L 364.00 690.00 L 364.00 687.00 L 328.00 649.00 L 314.00 624.00 L 322.00 612.00 L 346.00 587.00 L 386.00 549.00 L 408.00 524.00 L 412.00 512.00 L 415.00 507.00 L 417.00 509.00 L 416.00 506.00 L 412.00 498.00 L 411.00 485.00 L 413.00 467.00 L 422.00 445.00 L 438.00 419.00 L 452.00 391.00 L 464.00 361.00 L 469.00 339.00 L 467.00 325.00 L 468.00 322.00 L 472.00 330.00 L 475.00 333.00 L 477.00 331.00 L 477.00 324.00 L 475.00 312.00 L 476.00 310.00 L 480.00 318.00 L 481.00 315.00 L 479.00 301.00 L 481.00 299.00 L 487.00 309.00 L 490.00 306.00 L 490.00 290.00 L 495.00 278.00 L 505.00 270.00 L 521.00 261.00 L 543.00 251.00 L 556.00 243.00 L 560.00 237.00 L 577.00 228.00 L 607.00 216.00 L 661.00 203.00 L 739.00 189.00 L 790.00 182.00 L 814.00 182.00 L 853.00 188.00 L 907.00 200.00 L 948.00 212.00 L 976.00 224.00 L 1007.00 243.00 L 1041.00 269.00 L 1070.00 299.00 L 1094.00 333.00 L 1114.00 367.00 L 1130.00 401.00 L 1143.00 446.00 L 1153.00 502.00 L 1156.00 550.00 L 1152.00 590.00 L 1145.00 628.00 L 1135.00 664.00 L 1122.00 700.00 L 1106.00 736.00 L 1087.00 764.00 L 1065.00 784.00 L 1064.00 788.00 L 1084.00 776.00 L 1086.00 776.00 L 1070.00 788.00 L 1069.00 790.00 L 1083.00 782.00 L 1084.00 782.00 L 1072.00 790.00 L 1071.00 792.00 L 1081.00 788.00 L 1080.00 791.00 L 1068.00 801.00 L 1067.00 834.00 L 1077.00 890.00 L 1079.00 954.00 L 1073.00 1026.00 L 1075.00 1069.00 L 1085.00 1083.00 L 1094.00 1106.00 L 1102.00 1138.00 L 1120.00 1183.00 L 1148.00 1241.00 L 1167.00 1286.00 L 1177.00 1318.00 L 1191.00 1381.00 L 1209.00 1475.00 L 1172.00 1523.00 L 1080.00 1525.00 L 988.00 1536.00 L 896.00 1556.00 L 777.00 1597.00 L 631.00 1659.00 L 536.00 1707.00 L 492.00 1741.00 L 453.00 1768.00 L 419.00 1788.00 L 379.00 1801.00 L 333.00 1807.00 L 298.00 1805.00 L 274.00 1795.00 L 256.00 1782.00 L 244.00 1766.00 L 235.00 1749.00 L 229.00 1731.00 L 226.00 1706.00 L 226.00 1674.00 L 232.00 1631.00 L 244.00 1577.00 L 257.00 1531.00 L 271.00 1493.00 L 302.00 1432.00 L 350.00 1348.00 L 379.00 1292.00 L 389.00 1264.00 L 401.00 1238.00 L 415.00 1214.00 L 411.00 1208.00 L 389.00 1220.00 L 370.00 1226.00 L 354.00 1226.00 L 342.00 1224.00 L 334.00 1220.00 L 337.00 1211.00 L 351.00 1197.00 L 348.00 1195.00 L 328.00 1205.00 L 329.00 1204.00 L 351.00 1192.00 L 354.00 1189.00 L 338.00 1195.00 L 340.00 1192.00 L 360.00 1180.00 L 357.00 1180.00 L 331.00 1192.00 L 342.00 1185.00 L 390.00 1159.00 L 411.00 1147.00 L 405.00 1149.00 L 407.00 1147.00 L 417.00 1141.00 L 414.00 1133.00 L 398.00 1123.00 L 405.00 1112.00 L 435.00 1100.00 L 436.00 1097.00 L 408.00 1103.00 L 407.00 1102.00 L 433.00 1094.00 L 434.00 1091.00 L 410.00 1093.00 L 410.00 1090.00 L 434.00 1082.00 L 436.00 1080.00 L 416.00 1084.00 L 415.00 1081.00 L 433.00 1071.00 L 441.00 1061.00 L 439.00 1051.00 L 434.00 1042.00 L 426.00 1034.00 L 421.00 1027.00 L 419.00 1021.00 L 420.00 1013.00 Z" fill="black" stroke="black" stroke-width="1"/>
</svg>