<?xml version="1.0" encoding="UTF-8"?>
<svg xmlns="http://www.w3.org/2000/svg" viewBox="288.00 162.00 1079.00 1672.00">
  <path d="M 508.00 916.00 L 504.00 904.00 L 503.00 889.00 L 505.00 871.00 L 501.00 856.00 L 491.00 844.00 L 486.00 832.00 L 486.00 820.00 L 484.00 811.00 L 480.00 805.00 L 479.00 790.00 L 481.00 766.00 L 472.00 748.00 L 452.00 736.00 L 451.00 734.00 L 469.00 742.00 L 466.00 739.00 L 442.00 725.00 L 429.00 715.00 L 427.00 709.00 L 427.00 701.00 L 429.00 691.00 L 444.00 666.00 L 472.00 626.00 L 485.00 594.00 L 483.00 570.00 L 475.00 548.00 L 461.00 528.00 L 452.00 513.00 L 448.00 503.00 L 455.00 489.00 L 473.00 471.00 L 489.00 446.00 L 503.00 414.00 L 517.00 388.00 L 531.00 368.00 L 547.00 349.00 L 565.00 331.00 L 581.00 317.00 L 595.00 307.00 L 598.00 283.00 L 590.00 245.00 L 593.00 243.00 L 607.00 277.00 L 608.00 274.00 L 596.00 234.00 L 595.00 227.00 L 605.00 253.00 L 607.00 253.00 L 601.00 227.00 L 604.00 233.00 L 616.00 271.00 L 618.00 272.00 L 610.00 236.00 L 612.00 234.00 L 624.00 266.00 L 627.00 265.00 L 621.00 231.00 L 627.00 213.00 L 645.00 211.00 L 661.00 212.00 L 675.00 216.00 L 706.00 208.00 L 754.00 188.00 L 798.00 178.00 L 838.00 178.00 L 873.00 176.00 L 903.00 172.00 L 931.00 173.00 L 957.00 179.00 L 984.00 188.00 L 1012.00 200.00 L 1033.00 202.00 L 1047.00 194.00 L 1060.00 189.00 L 1072.00 187.00 L 1091.00 187.00 L 1117.00 189.00 L 1141.00 194.00 L 1163.00 202.00 L 1185.00 213.00 L 1207.00 227.00 L 1231.00 249.00 L 1257.00 279.00 L 1280.00 303.00 L 1300.00 321.00 L 1313.00 339.00 L 1319.00 357.00 L 1326.00 369.00 L 1334.00 375.00 L 1342.00 386.00 L 1350.00 402.00 L 1355.00 415.00 L 1357.00 425.00 L 1357.00 441.00 L 1355.00 463.00 L 1352.00 478.00 L 1348.00 486.00 L 1335.00 500.00 L 1313.00 520.00 L 1312.00 522.00 L 1332.00 506.00 L 1335.00 504.00 L 1321.00 516.00 L 1318.00 519.00 L 1326.00 513.00 L 1323.00 518.00 L 1309.00 534.00 L 1303.00 545.00 L 1305.00 551.00 L 1303.00 563.00 L 1297.00 581.00 L 1249.00 622.00 L 1159.00 686.00 L 1159.00 688.00 L 1249.00 628.00 L 1247.00 631.00 L 1153.00 697.00 L 1150.00 701.00 L 1238.00 643.00 L 1247.00 638.00 L 1177.00 686.00 L 1175.00 689.00 L 1241.00 647.00 L 1229.00 656.00 L 1139.00 716.00 L 1121.00 730.00 L 1175.00 698.00 L 1173.00 701.00 L 1115.00 739.00 L 1084.00 761.00 L 1080.00 767.00 L 1076.00 788.00 L 1072.00 824.00 L 1067.00 847.00 L 1061.00 857.00 L 1061.00 867.00 L 1067.00 877.00 L 1076.00 884.00 L 1088.00 888.00 L 1098.00 895.00 L 1106.00 905.00 L 1115.00 932.00 L 1125.00 976.00 L 1143.00 1022.00 L 1169.00 1070.00 L 1186.00 1113.00 L 1194.00 1151.00 L 1211.00 1205.00 L 1237.00 1275.00 L 1248.00 1312.00 L 1244.00 1316.00 L 1236.00 1319.00 L 1224.00 1321.00 L 1188.00 1333.00 L 1128.00 1355.00 L 1076.00 1377.00 L 1032.00 1399.00 L 975.00 1432.00 L 905.00 1476.00 L 834.00 1527.00 L 762.00 1585.00 L 705.00 1635.00 L 663.00 1677.00 L 617.00 1728.00 L 567.00 1788.00 L 539.00 1820.00 L 533.00 1824.00 L 505.00 1812.00 L 455.00 1784.00 L 413.00 1754.00 L 379.00 1722.00 L 350.00 1686.00 L 326.00 1646.00 L 310.00 1609.00 L 302.00 1575.00 L 298.00 1546.00 L 298.00 1522.00 L 392.00 1402.00 L 580.00 1186.00 L 581.00 1183.00 L 395.00 1393.00 L 391.00 1396.00 L 569.00 1192.00 L 569.00 1188.00 L 391.00 1384.00 L 388.00 1387.00 L 560.00 1197.00 L 561.00 1194.00 L 391.00 1378.00 L 307.00 1467.00 L 309.00 1461.00 L 390.00 1372.00 L 550.00 1200.00 L 551.00 1197.00 L 393.00 1363.00 L 404.00 1351.00 L 584.00 1161.00 L 585.00 1159.00 L 407.00 1345.00 L 388.00 1364.00 L 528.00 1216.00 L 531.00 1211.00 L 397.00 1349.00 L 392.00 1353.00 L 516.00 1223.00 L 517.00 1220.00 L 395.00 1344.00 L 338.00 1400.00 L 346.00 1388.00 L 404.00 1328.00 L 512.00 1220.00 L 513.00 1218.00 L 407.00 1322.00 L 399.00 1329.00 L 489.00 1239.00 L 492.00 1235.00 L 408.00 1317.00 L 403.00 1321.00 L 477.00 1247.00 L 481.00 1242.00 L 415.00 1306.00 L 410.00 1310.00 L 466.00 1254.00 L 469.00 1250.00 L 419.00 1298.00 L 463.00 1255.00 L 601.00 1121.00 L 664.00 1048.00 L 652.00 1036.00 L 639.00 1026.00 L 625.00 1018.00 L 608.00 1002.00 L 588.00 978.00 L 568.00 962.00 L 548.00 954.00 L 533.00 946.00 L 523.00 938.00 L 516.00 931.00 L 512.00 925.00 L 508.00 916.00 Z" fill="black" stroke="black" stroke-width="1"/>
</svg>