<?xml version="1.0" encoding="UTF-8"?>
<svg xmlns="http://www.w3.org/2000/svg" viewBox="302.00 163.00 973.00 1520.00">
  <path d="M 480.00 912.00 L 468.00 904.00 L 467.00 891.00 L 477.00 873.00 L 477.00 857.00 L 467.00 843.00 L 467.00 826.00 L 477.00 806.00 L 469.00 786.00 L 443.00 766.00 L 430.00 751.00 L 430.00 741.00 L 450.00 709.00 L 490.00 655.00 L 503.00 612.00 L 489.00 580.00 L 490.00 574.00 L 506.00 594.00 L 506.00 592.00 L 490.00 568.00 L 490.00 565.00 L 506.00 583.00 L 507.00 581.00 L 493.00 559.00 L 493.00 556.00 L 507.00 572.00 L 508.00 570.00 L 496.00 550.00 L 496.00 548.00 L 508.00 564.00 L 509.00 561.00 L 499.00 539.00 L 499.00 534.00 L 509.00 546.00 L 509.00 544.00 L 499.00 528.00 L 499.00 527.00 L 509.00 541.00 L 511.00 528.00 L 505.00 488.00 L 507.00 476.00 L 517.00 492.00 L 519.00 489.00 L 513.00 467.00 L 515.00 464.00 L 525.00 480.00 L 528.00 477.00 L 524.00 455.00 L 526.00 450.00 L 534.00 462.00 L 536.00 460.00 L 532.00 444.00 L 549.00 413.00 L 587.00 367.00 L 627.00 330.00 L 669.00 302.00 L 716.00 281.00 L 768.00 267.00 L 797.00 245.00 L 803.00 215.00 L 806.00 215.00 L 806.00 245.00 L 810.00 240.00 L 818.00 200.00 L 821.00 200.00 L 819.00 240.00 L 822.00 239.00 L 830.00 197.00 L 841.00 175.00 L 855.00 173.00 L 881.00 186.00 L 919.00 214.00 L 948.00 219.00 L 968.00 201.00 L 990.00 207.00 L 1014.00 237.00 L 1048.00 255.00 L 1092.00 261.00 L 1137.00 287.00 L 1183.00 333.00 L 1220.00 385.00 L 1248.00 443.00 L 1263.00 509.00 L 1265.00 583.00 L 1242.00 637.00 L 1194.00 671.00 L 1190.00 677.00 L 1230.00 655.00 L 1230.00 656.00 L 1190.00 680.00 L 1188.00 682.00 L 1224.00 662.00 L 1223.00 664.00 L 1185.00 688.00 L 1177.00 694.00 L 1199.00 682.00 L 1198.00 685.00 L 1174.00 703.00 L 1151.00 729.00 L 1129.00 763.00 L 1096.00 796.00 L 1052.00 828.00 L 1034.00 881.00 L 1042.00 955.00 L 1074.00 1072.00 L 1130.00 1232.00 L 1113.00 1324.00 L 1023.00 1348.00 L 923.00 1384.00 L 813.00 1432.00 L 718.00 1481.00 L 638.00 1531.00 L 549.00 1595.00 L 451.00 1673.00 L 470.00 1561.00 L 606.00 1259.00 L 602.00 1257.00 L 458.00 1555.00 L 458.00 1552.00 L 602.00 1248.00 L 598.00 1246.00 L 446.00 1546.00 L 445.00 1545.00 L 595.00 1243.00 L 590.00 1239.00 L 430.00 1533.00 L 420.00 1549.00 L 560.00 1287.00 L 557.00 1285.00 L 411.00 1543.00 L 409.00 1544.00 L 551.00 1288.00 L 549.00 1285.00 L 403.00 1535.00 L 414.00 1515.00 L 582.00 1225.00 L 580.00 1223.00 L 408.00 1509.00 L 393.00 1532.00 L 535.00 1292.00 L 534.00 1289.00 L 390.00 1523.00 L 316.00 1637.00 L 312.00 1631.00 L 381.00 1516.00 L 523.00 1292.00 L 521.00 1289.00 L 375.00 1507.00 L 370.00 1511.00 L 506.00 1301.00 L 505.00 1298.00 L 367.00 1502.00 L 388.00 1471.00 L 568.00 1205.00 L 567.00 1202.00 L 385.00 1462.00 L 361.00 1495.00 L 495.00 1301.00 L 495.00 1299.00 L 361.00 1489.00 L 359.00 1490.00 L 489.00 1302.00 L 489.00 1296.00 L 359.00 1472.00 L 355.00 1475.00 L 477.00 1305.00 L 477.00 1302.00 L 355.00 1466.00 L 384.00 1427.00 L 564.00 1185.00 L 564.00 1183.00 L 384.00 1421.00 L 353.00 1461.00 L 471.00 1303.00 L 471.00 1301.00 L 353.00 1455.00 L 349.00 1459.00 L 459.00 1313.00 L 459.00 1310.00 L 349.00 1450.00 L 347.00 1451.00 L 453.00 1313.00 L 454.00 1309.00 L 350.00 1439.00 L 386.00 1393.00 L 562.00 1171.00 L 562.00 1170.00 L 386.00 1390.00 L 346.00 1439.00 L 442.00 1317.00 L 443.00 1313.00 L 349.00 1427.00 L 344.00 1431.00 L 428.00 1325.00 L 430.00 1320.00 L 350.00 1416.00 L 347.00 1419.00 L 421.00 1329.00 L 422.00 1326.00 L 350.00 1410.00 L 347.00 1412.00 L 413.00 1332.00 L 415.00 1328.00 L 353.00 1400.00 L 348.00 1405.00 L 400.00 1343.00 L 401.00 1341.00 L 351.00 1399.00 L 349.00 1401.00 L 395.00 1347.00 L 397.00 1344.00 L 355.00 1392.00 L 353.00 1393.00 L 391.00 1347.00 L 395.00 1341.00 L 365.00 1375.00 L 362.00 1378.00 L 386.00 1350.00 L 388.00 1347.00 L 368.00 1369.00 L 428.00 1300.00 L 568.00 1140.00 L 610.00 1048.00 L 554.00 1024.00 L 518.00 1001.00 L 502.00 979.00 L 493.00 957.00 L 491.00 935.00 L 489.00 922.00 L 487.00 918.00 L 480.00 912.00 Z" fill="black" stroke="black" stroke-width="1"/>
</svg>