<?xml version="1.0" encoding="UTF-8"?>
<svg xmlns="http://www.w3.org/2000/svg" viewBox="301.00 205.00 1030.00 1658.00">
  <path d="M 386.00 1032.00 L 394.00 1004.00 L 413.00 967.00 L 443.00 921.00 L 456.00 893.00 L 452.00 883.00 L 408.00 853.00 L 324.00 803.00 L 323.00 800.00 L 405.00 844.00 L 403.00 841.00 L 317.00 791.00 L 311.00 785.00 L 385.00 823.00 L 386.00 820.00 L 314.00 776.00 L 321.00 779.00 L 407.00 829.00 L 409.00 827.00 L 327.00 773.00 L 320.00 766.00 L 388.00 806.00 L 391.00 804.00 L 329.00 760.00 L 336.00 763.00 L 412.00 813.00 L 415.00 812.00 L 345.00 760.00 L 332.00 747.00 L 376.00 773.00 L 379.00 772.00 L 341.00 744.00 L 356.00 754.00 L 424.00 802.00 L 426.00 801.00 L 362.00 751.00 L 362.00 748.00 L 426.00 792.00 L 429.00 791.00 L 371.00 745.00 L 369.00 741.00 L 423.00 779.00 L 426.00 778.00 L 378.00 738.00 L 382.00 740.00 L 438.00 784.00 L 441.00 784.00 L 391.00 740.00 L 391.00 739.00 L 441.00 781.00 L 444.00 780.00 L 400.00 736.00 L 398.00 712.00 L 438.00 708.00 L 457.00 703.00 L 455.00 697.00 L 459.00 697.00 L 469.00 703.00 L 472.00 700.00 L 468.00 688.00 L 477.00 679.00 L 499.00 673.00 L 537.00 614.00 L 591.00 502.00 L 655.00 389.00 L 729.00 275.00 L 772.00 217.00 L 784.00 215.00 L 804.00 219.00 L 832.00 229.00 L 906.00 267.00 L 1026.00 333.00 L 1110.00 381.00 L 1158.00 411.00 L 1216.00 453.00 L 1284.00 507.00 L 1319.00 540.00 L 1321.00 552.00 L 1312.00 582.00 L 1292.00 630.00 L 1236.00 742.00 L 1144.00 918.00 L 1096.00 1012.00 L 1092.00 1024.00 L 1094.00 1040.00 L 1102.00 1060.00 L 1094.00 1071.00 L 1070.00 1073.00 L 1071.00 1076.00 L 1097.00 1080.00 L 1095.00 1081.00 L 1065.00 1079.00 L 1066.00 1081.00 L 1098.00 1087.00 L 1099.00 1090.00 L 1069.00 1090.00 L 1071.00 1094.00 L 1105.00 1102.00 L 1123.00 1108.00 L 1125.00 1112.00 L 1109.00 1111.00 L 1075.00 1105.00 L 1076.00 1108.00 L 1112.00 1120.00 L 1114.00 1123.00 L 1082.00 1117.00 L 1083.00 1120.00 L 1117.00 1132.00 L 1118.00 1136.00 L 1086.00 1132.00 L 1087.00 1135.00 L 1121.00 1145.00 L 1127.00 1148.00 L 1105.00 1144.00 L 1106.00 1147.00 L 1130.00 1157.00 L 1125.00 1157.00 L 1091.00 1147.00 L 1092.00 1150.00 L 1128.00 1166.00 L 1128.00 1169.00 L 1092.00 1159.00 L 1093.00 1161.00 L 1131.00 1175.00 L 1131.00 1177.00 L 1093.00 1167.00 L 1093.00 1170.00 L 1131.00 1186.00 L 1132.00 1188.00 L 1096.00 1176.00 L 1097.00 1179.00 L 1135.00 1197.00 L 1136.00 1200.00 L 1100.00 1188.00 L 1100.00 1191.00 L 1136.00 1209.00 L 1136.00 1212.00 L 1100.00 1200.00 L 1100.00 1203.00 L 1136.00 1221.00 L 1137.00 1223.00 L 1103.00 1209.00 L 1102.00 1211.00 L 1134.00 1229.00 L 1134.00 1231.00 L 1102.00 1217.00 L 1099.00 1218.00 L 1125.00 1234.00 L 1126.00 1236.00 L 1102.00 1224.00 L 1088.00 1235.00 L 1084.00 1269.00 L 1091.00 1318.00 L 1109.00 1382.00 L 1118.00 1423.00 L 1118.00 1441.00 L 1114.00 1459.00 L 1106.00 1477.00 L 1090.00 1494.00 L 1066.00 1510.00 L 1033.00 1524.00 L 991.00 1536.00 L 906.00 1571.00 L 778.00 1629.00 L 681.00 1679.00 L 615.00 1721.00 L 558.00 1763.00 L 510.00 1805.00 L 468.00 1835.00 L 432.00 1853.00 L 406.00 1851.00 L 390.00 1829.00 L 382.00 1805.00 L 382.00 1779.00 L 406.00 1719.00 L 454.00 1625.00 L 455.00 1621.00 L 409.00 1707.00 L 405.00 1713.00 L 443.00 1639.00 L 443.00 1637.00 L 405.00 1707.00 L 409.00 1698.00 L 455.00 1610.00 L 455.00 1607.00 L 409.00 1689.00 L 419.00 1666.00 L 485.00 1538.00 L 490.00 1524.00 L 434.00 1624.00 L 432.00 1626.00 L 484.00 1530.00 L 502.00 1496.00 L 486.00 1524.00 L 488.00 1516.00 L 508.00 1472.00 L 510.00 1458.00 L 494.00 1474.00 L 500.00 1457.00 L 528.00 1407.00 L 520.00 1412.00 L 476.00 1472.00 L 475.00 1470.00 L 517.00 1406.00 L 514.00 1408.00 L 466.00 1476.00 L 462.00 1479.00 L 502.00 1417.00 L 503.00 1411.00 L 465.00 1461.00 L 467.00 1456.00 L 509.00 1396.00 L 506.00 1399.00 L 458.00 1465.00 L 461.00 1455.00 L 515.00 1369.00 L 539.00 1329.00 L 533.00 1335.00 L 530.00 1335.00 L 530.00 1329.00 L 518.00 1321.00 L 494.00 1311.00 L 473.00 1297.00 L 455.00 1279.00 L 447.00 1251.00 L 449.00 1213.00 L 444.00 1183.00 L 432.00 1161.00 L 429.00 1147.00 L 435.00 1141.00 L 435.00 1134.00 L 429.00 1126.00 L 429.00 1109.00 L 435.00 1083.00 L 427.00 1066.00 L 405.00 1058.00 L 391.00 1052.00 L 385.00 1048.00 L 386.00 1032.00 Z" fill="black" stroke="black" stroke-width="1"/>
</svg>