<?xml version="1.0" encoding="UTF-8"?>
<svg xmlns="http://www.w3.org/2000/svg" viewBox="307.00 164.00 963.00 1598.00">
  <path d="M 468.00 965.00 L 464.00 955.00 L 465.00 946.00 L 471.00 938.00 L 468.00 929.00 L 456.00 919.00 L 445.00 906.00 L 435.00 890.00 L 432.00 871.00 L 436.00 849.00 L 430.00 827.00 L 414.00 805.00 L 408.00 788.00 L 412.00 776.00 L 411.00 763.00 L 405.00 749.00 L 407.00 733.00 L 417.00 715.00 L 420.00 701.00 L 416.00 691.00 L 407.00 679.00 L 393.00 665.00 L 397.00 667.00 L 419.00 685.00 L 418.00 682.00 L 394.00 658.00 L 395.00 657.00 L 421.00 679.00 L 422.00 677.00 L 398.00 651.00 L 390.00 632.00 L 398.00 620.00 L 409.00 610.00 L 423.00 602.00 L 445.00 582.00 L 475.00 550.00 L 492.00 529.00 L 496.00 519.00 L 497.00 503.00 L 495.00 481.00 L 496.00 462.00 L 500.00 446.00 L 511.00 417.00 L 529.00 375.00 L 545.00 347.00 L 559.00 333.00 L 570.00 317.00 L 578.00 299.00 L 591.00 282.00 L 609.00 266.00 L 640.00 244.00 L 684.00 216.00 L 715.00 198.00 L 733.00 190.00 L 765.00 183.00 L 811.00 177.00 L 849.00 174.00 L 879.00 174.00 L 919.00 179.00 L 969.00 189.00 L 1009.00 203.00 L 1039.00 221.00 L 1063.00 238.00 L 1081.00 254.00 L 1092.00 267.00 L 1096.00 277.00 L 1099.00 281.00 L 1101.00 279.00 L 1109.00 287.00 L 1123.00 305.00 L 1143.00 346.00 L 1169.00 410.00 L 1183.00 454.00 L 1185.00 478.00 L 1184.00 505.00 L 1180.00 535.00 L 1179.00 549.00 L 1181.00 547.00 L 1178.00 574.00 L 1170.00 630.00 L 1158.00 680.00 L 1142.00 724.00 L 1127.00 754.00 L 1113.00 770.00 L 1112.00 787.00 L 1124.00 805.00 L 1131.00 827.00 L 1133.00 853.00 L 1138.00 880.00 L 1146.00 908.00 L 1150.00 936.00 L 1150.00 964.00 L 1146.00 986.00 L 1138.00 1002.00 L 1136.00 1017.00 L 1140.00 1031.00 L 1151.00 1053.00 L 1169.00 1083.00 L 1182.00 1116.00 L 1190.00 1152.00 L 1203.00 1195.00 L 1221.00 1245.00 L 1238.00 1312.00 L 1254.00 1396.00 L 1260.00 1440.00 L 1256.00 1444.00 L 1228.00 1446.00 L 1176.00 1446.00 L 1121.00 1451.00 L 1063.00 1461.00 L 989.00 1480.00 L 899.00 1508.00 L 804.00 1545.00 L 704.00 1591.00 L 605.00 1646.00 L 507.00 1710.00 L 451.00 1745.00 L 437.00 1751.00 L 416.00 1752.00 L 388.00 1748.00 L 365.00 1739.00 L 347.00 1725.00 L 332.00 1701.00 L 320.00 1667.00 L 317.00 1613.00 L 323.00 1539.00 L 337.00 1469.00 L 359.00 1403.00 L 380.00 1349.00 L 400.00 1307.00 L 421.00 1270.00 L 443.00 1238.00 L 462.00 1206.00 L 478.00 1174.00 L 478.00 1161.00 L 462.00 1167.00 L 461.00 1165.00 L 475.00 1155.00 L 472.00 1156.00 L 452.00 1168.00 L 454.00 1166.00 L 478.00 1150.00 L 475.00 1151.00 L 445.00 1169.00 L 448.00 1166.00 L 484.00 1142.00 L 479.00 1142.00 L 433.00 1166.00 L 435.00 1163.00 L 485.00 1133.00 L 483.00 1133.00 L 429.00 1163.00 L 426.00 1163.00 L 474.00 1133.00 L 472.00 1132.00 L 420.00 1160.00 L 425.00 1157.00 L 487.00 1123.00 L 486.00 1122.00 L 422.00 1154.00 L 424.00 1151.00 L 492.00 1113.00 L 504.00 1104.00 L 460.00 1124.00 L 442.00 1126.00 L 450.00 1110.00 L 466.00 1094.00 L 490.00 1078.00 L 491.00 1065.00 L 469.00 1055.00 L 458.00 1048.00 L 458.00 1044.00 L 471.00 1039.00 L 497.00 1033.00 L 499.00 1030.00 L 477.00 1030.00 L 475.00 1028.00 L 493.00 1024.00 L 498.00 1021.00 L 490.00 1019.00 L 491.00 1017.00 L 501.00 1015.00 L 498.00 1015.00 L 482.00 1017.00 L 480.00 1014.00 L 492.00 1006.00 L 494.00 997.00 L 486.00 987.00 L 479.00 979.00 L 473.00 973.00 L 468.00 965.00 Z" fill="black" stroke="black" stroke-width="1"/>
</svg>