<?xml version="1.0" encoding="UTF-8"?>
<svg xmlns="http://www.w3.org/2000/svg" viewBox="342.00 146.00 1009.00 1731.00">
  <path d="M 525.00 989.00 L 523.00 983.00 L 531.00 975.00 L 549.00 965.00 L 543.00 953.00 L 513.00 939.00 L 492.00 923.00 L 480.00 905.00 L 476.00 882.00 L 480.00 854.00 L 479.00 828.00 L 473.00 804.00 L 473.00 785.00 L 479.00 771.00 L 479.00 758.00 L 473.00 746.00 L 448.00 723.00 L 404.00 689.00 L 403.00 686.00 L 445.00 714.00 L 444.00 711.00 L 400.00 677.00 L 400.00 674.00 L 444.00 702.00 L 444.00 700.00 L 400.00 668.00 L 399.00 666.00 L 441.00 694.00 L 442.00 692.00 L 402.00 660.00 L 392.00 627.00 L 412.00 593.00 L 440.00 556.00 L 476.00 516.00 L 498.00 475.00 L 506.00 433.00 L 517.00 404.00 L 531.00 388.00 L 543.00 367.00 L 553.00 341.00 L 570.00 314.00 L 594.00 286.00 L 621.00 261.00 L 651.00 239.00 L 667.00 224.00 L 669.00 216.00 L 686.00 205.00 L 718.00 191.00 L 750.00 180.00 L 782.00 172.00 L 818.00 168.00 L 858.00 168.00 L 885.00 165.00 L 899.00 159.00 L 922.00 156.00 L 954.00 156.00 L 987.00 159.00 L 1021.00 165.00 L 1054.00 175.00 L 1086.00 189.00 L 1119.00 211.00 L 1153.00 241.00 L 1182.00 278.00 L 1206.00 322.00 L 1215.00 377.00 L 1209.00 443.00 L 1203.00 483.00 L 1197.00 497.00 L 1198.00 534.00 L 1206.00 594.00 L 1209.00 641.00 L 1207.00 675.00 L 1212.00 713.00 L 1224.00 755.00 L 1230.00 793.00 L 1230.00 827.00 L 1236.00 842.00 L 1248.00 838.00 L 1261.00 842.00 L 1275.00 854.00 L 1281.00 863.00 L 1279.00 869.00 L 1270.00 878.00 L 1254.00 890.00 L 1249.00 897.00 L 1255.00 899.00 L 1254.00 901.00 L 1246.00 903.00 L 1250.00 903.00 L 1266.00 901.00 L 1267.00 903.00 L 1253.00 909.00 L 1256.00 910.00 L 1276.00 906.00 L 1290.00 909.00 L 1298.00 919.00 L 1301.00 928.00 L 1299.00 936.00 L 1290.00 942.00 L 1274.00 946.00 L 1272.00 948.00 L 1284.00 948.00 L 1289.00 951.00 L 1287.00 957.00 L 1288.00 963.00 L 1292.00 969.00 L 1284.00 974.00 L 1264.00 978.00 L 1265.00 980.00 L 1287.00 980.00 L 1286.00 982.00 L 1262.00 986.00 L 1262.00 988.00 L 1286.00 988.00 L 1298.00 990.00 L 1298.00 994.00 L 1287.00 996.00 L 1265.00 996.00 L 1259.00 997.00 L 1269.00 999.00 L 1269.00 1001.00 L 1259.00 1003.00 L 1266.00 1005.00 L 1290.00 1007.00 L 1290.00 1009.00 L 1266.00 1011.00 L 1266.00 1013.00 L 1290.00 1015.00 L 1291.00 1016.00 L 1269.00 1016.00 L 1270.00 1018.00 L 1294.00 1022.00 L 1295.00 1024.00 L 1273.00 1024.00 L 1275.00 1026.00 L 1301.00 1030.00 L 1302.00 1032.00 L 1278.00 1032.00 L 1279.00 1035.00 L 1305.00 1041.00 L 1307.00 1044.00 L 1285.00 1044.00 L 1284.00 1046.00 L 1304.00 1050.00 L 1306.00 1053.00 L 1290.00 1055.00 L 1288.00 1057.00 L 1300.00 1059.00 L 1301.00 1062.00 L 1291.00 1066.00 L 1286.00 1070.00 L 1286.00 1074.00 L 1293.00 1083.00 L 1307.00 1097.00 L 1316.00 1113.00 L 1320.00 1131.00 L 1327.00 1149.00 L 1337.00 1167.00 L 1341.00 1189.00 L 1339.00 1215.00 L 1333.00 1233.00 L 1323.00 1243.00 L 1314.00 1248.00 L 1306.00 1248.00 L 1313.00 1277.00 L 1335.00 1335.00 L 1293.00 1382.00 L 1187.00 1418.00 L 1101.00 1453.00 L 1035.00 1487.00 L 977.00 1522.00 L 927.00 1558.00 L 882.00 1594.00 L 842.00 1630.00 L 799.00 1673.00 L 753.00 1723.00 L 702.00 1769.00 L 646.00 1811.00 L 593.00 1842.00 L 543.00 1862.00 L 496.00 1867.00 L 452.00 1857.00 L 420.00 1843.00 L 400.00 1825.00 L 382.00 1794.00 L 366.00 1750.00 L 356.00 1697.00 L 352.00 1635.00 L 355.00 1576.00 L 365.00 1520.00 L 378.00 1469.00 L 394.00 1423.00 L 419.00 1365.00 L 453.00 1295.00 L 480.00 1247.00 L 500.00 1221.00 L 515.00 1190.00 L 525.00 1154.00 L 541.00 1121.00 L 563.00 1091.00 L 570.00 1064.00 L 562.00 1040.00 L 551.00 1022.00 L 537.00 1010.00 L 529.00 1001.00 L 527.00 995.00 L 525.00 989.00 Z" fill="black" stroke="black" stroke-width="1"/>
</svg>