<?xml version="1.0" encoding="UTF-8"?>
<svg xmlns="http://www.w3.org/2000/svg" viewBox="399.00 249.00 913.00 1602.00">
  <path d="M 583.00 1017.00 L 585.00 991.00 L 576.00 958.00 L 556.00 918.00 L 547.00 889.00 L 549.00 871.00 L 538.00 852.00 L 514.00 832.00 L 513.00 828.00 L 535.00 840.00 L 532.00 836.00 L 504.00 816.00 L 508.00 777.00 L 544.00 719.00 L 553.00 675.00 L 535.00 645.00 L 536.00 640.00 L 556.00 660.00 L 558.00 657.00 L 542.00 631.00 L 541.00 625.00 L 555.00 639.00 L 554.00 622.00 L 538.00 574.00 L 538.00 559.00 L 554.00 577.00 L 554.00 573.00 L 538.00 547.00 L 538.00 545.00 L 554.00 567.00 L 554.00 565.00 L 538.00 539.00 L 539.00 536.00 L 557.00 556.00 L 558.00 553.00 L 542.00 527.00 L 543.00 524.00 L 561.00 544.00 L 563.00 541.00 L 549.00 515.00 L 550.00 512.00 L 566.00 532.00 L 568.00 529.00 L 556.00 503.00 L 557.00 501.00 L 571.00 523.00 L 573.00 521.00 L 563.00 495.00 L 564.00 492.00 L 576.00 512.00 L 578.00 510.00 L 570.00 486.00 L 572.00 481.00 L 584.00 495.00 L 586.00 494.00 L 578.00 478.00 L 588.00 452.00 L 616.00 416.00 L 667.00 372.00 L 741.00 320.00 L 816.00 284.00 L 892.00 264.00 L 965.00 259.00 L 1035.00 269.00 L 1099.00 291.00 L 1157.00 325.00 L 1211.00 376.00 L 1261.00 444.00 L 1290.00 495.00 L 1298.00 529.00 L 1297.00 557.00 L 1287.00 579.00 L 1287.00 585.00 L 1297.00 575.00 L 1298.00 591.00 L 1290.00 633.00 L 1290.00 651.00 L 1298.00 645.00 L 1302.00 654.00 L 1302.00 678.00 L 1293.00 717.00 L 1275.00 771.00 L 1236.00 836.00 L 1176.00 912.00 L 1143.00 973.00 L 1137.00 1019.00 L 1155.00 1043.00 L 1197.00 1045.00 L 1198.00 1047.00 L 1158.00 1049.00 L 1165.00 1056.00 L 1219.00 1068.00 L 1239.00 1079.00 L 1225.00 1089.00 L 1207.00 1115.00 L 1185.00 1157.00 L 1196.00 1235.00 L 1240.00 1349.00 L 1271.00 1454.00 L 1289.00 1550.00 L 1208.00 1618.00 L 1028.00 1658.00 L 845.00 1720.00 L 659.00 1804.00 L 555.00 1841.00 L 533.00 1831.00 L 586.00 1678.00 L 714.00 1382.00 L 711.00 1380.00 L 577.00 1672.00 L 577.00 1670.00 L 711.00 1374.00 L 708.00 1373.00 L 568.00 1667.00 L 565.00 1672.00 L 699.00 1388.00 L 696.00 1386.00 L 556.00 1666.00 L 559.00 1658.00 L 705.00 1362.00 L 700.00 1359.00 L 544.00 1649.00 L 544.00 1646.00 L 700.00 1350.00 L 698.00 1347.00 L 538.00 1637.00 L 530.00 1650.00 L 674.00 1386.00 L 671.00 1383.00 L 521.00 1641.00 L 529.00 1625.00 L 695.00 1335.00 L 693.00 1331.00 L 523.00 1613.00 L 512.00 1629.00 L 660.00 1379.00 L 656.00 1374.00 L 500.00 1614.00 L 510.00 1595.00 L 686.00 1317.00 L 685.00 1314.00 L 507.00 1586.00 L 415.00 1716.00 L 409.00 1704.00 L 498.00 1565.00 L 682.00 1299.00 L 682.00 1296.00 L 498.00 1556.00 L 483.00 1577.00 L 637.00 1359.00 L 636.00 1356.00 L 480.00 1568.00 L 477.00 1570.00 L 627.00 1362.00 L 626.00 1359.00 L 474.00 1561.00 L 492.00 1536.00 L 680.00 1284.00 L 679.00 1280.00 L 489.00 1524.00 L 468.00 1548.00 L 616.00 1352.00 L 616.00 1346.00 L 468.00 1530.00 L 465.00 1532.00 L 607.00 1352.00 L 609.00 1344.00 L 471.00 1508.00 L 468.00 1509.00 L 600.00 1347.00 L 604.00 1337.00 L 480.00 1479.00 L 473.00 1486.00 L 583.00 1358.00 L 586.00 1353.00 L 482.00 1471.00 L 515.00 1433.00 L 685.00 1239.00 L 741.00 1174.00 L 683.00 1238.00 L 681.00 1236.00 L 735.00 1168.00 L 718.00 1111.00 L 630.00 1065.00 L 585.00 1039.00 L 583.00 1033.00 L 583.00 1017.00 Z" fill="black" stroke="black" stroke-width="1"/>
</svg>