<?xml version="1.0" encoding="UTF-8"?>
<svg xmlns="http://www.w3.org/2000/svg" viewBox="253.00 158.00 1120.00 1660.00">
  <path d="M 638.00 983.00 L 622.00 969.00 L 617.00 962.00 L 623.00 962.00 L 617.00 960.00 L 599.00 956.00 L 584.00 949.00 L 572.00 939.00 L 564.00 921.00 L 560.00 895.00 L 563.00 871.00 L 573.00 849.00 L 575.00 831.00 L 569.00 817.00 L 566.00 800.00 L 566.00 780.00 L 547.00 752.00 L 509.00 716.00 L 509.00 713.00 L 547.00 743.00 L 547.00 740.00 L 509.00 704.00 L 509.00 701.00 L 547.00 731.00 L 548.00 729.00 L 512.00 695.00 L 510.00 692.00 L 542.00 720.00 L 544.00 717.00 L 516.00 683.00 L 524.00 640.00 L 568.00 588.00 L 590.00 555.00 L 590.00 541.00 L 583.00 521.00 L 569.00 495.00 L 569.00 493.00 L 583.00 515.00 L 584.00 512.00 L 572.00 484.00 L 571.00 476.00 L 581.00 488.00 L 583.00 485.00 L 577.00 467.00 L 578.00 464.00 L 586.00 476.00 L 587.00 475.00 L 581.00 461.00 L 581.00 458.00 L 587.00 466.00 L 587.00 463.00 L 581.00 449.00 L 578.00 440.00 L 578.00 436.00 L 582.00 441.00 L 590.00 455.00 L 590.00 453.00 L 582.00 435.00 L 582.00 433.00 L 590.00 447.00 L 590.00 445.00 L 582.00 427.00 L 578.00 415.00 L 578.00 409.00 L 583.00 415.00 L 593.00 433.00 L 594.00 431.00 L 586.00 409.00 L 586.00 406.00 L 594.00 422.00 L 595.00 418.00 L 589.00 394.00 L 591.00 392.00 L 601.00 412.00 L 607.00 420.00 L 609.00 416.00 L 606.00 402.00 L 598.00 378.00 L 600.00 375.00 L 612.00 393.00 L 614.00 391.00 L 606.00 369.00 L 603.00 357.00 L 605.00 355.00 L 610.00 364.00 L 618.00 384.00 L 621.00 381.00 L 619.00 355.00 L 627.00 335.00 L 645.00 321.00 L 664.00 299.00 L 684.00 269.00 L 708.00 245.00 L 736.00 227.00 L 769.00 211.00 L 807.00 197.00 L 854.00 188.00 L 910.00 184.00 L 955.00 178.00 L 989.00 170.00 L 1016.00 168.00 L 1036.00 172.00 L 1078.00 188.00 L 1142.00 216.00 L 1191.00 248.00 L 1225.00 284.00 L 1255.00 325.00 L 1281.00 371.00 L 1299.00 409.00 L 1309.00 439.00 L 1317.00 477.00 L 1323.00 523.00 L 1322.00 570.00 L 1314.00 618.00 L 1304.00 656.00 L 1292.00 684.00 L 1277.00 710.00 L 1259.00 734.00 L 1246.00 756.00 L 1238.00 776.00 L 1206.00 801.00 L 1150.00 831.00 L 1148.00 834.00 L 1200.00 810.00 L 1218.00 805.00 L 1202.00 819.00 L 1180.00 833.00 L 1152.00 847.00 L 1147.00 851.00 L 1165.00 845.00 L 1161.00 848.00 L 1135.00 860.00 L 1133.00 862.00 L 1155.00 854.00 L 1155.00 858.00 L 1133.00 874.00 L 1122.00 885.00 L 1122.00 891.00 L 1133.00 911.00 L 1155.00 945.00 L 1170.00 975.00 L 1178.00 1001.00 L 1192.00 1026.00 L 1212.00 1050.00 L 1241.00 1104.00 L 1279.00 1188.00 L 1309.00 1260.00 L 1331.00 1320.00 L 1348.00 1381.00 L 1360.00 1443.00 L 1363.00 1475.00 L 1357.00 1477.00 L 1355.00 1479.00 L 1357.00 1481.00 L 1348.00 1481.00 L 1328.00 1479.00 L 1282.00 1483.00 L 1210.00 1493.00 L 1137.00 1507.00 L 1063.00 1525.00 L 1006.00 1541.00 L 966.00 1555.00 L 912.00 1576.00 L 844.00 1604.00 L 784.00 1632.00 L 732.00 1660.00 L 649.00 1710.00 L 535.00 1782.00 L 450.00 1808.00 L 394.00 1788.00 L 357.00 1771.00 L 339.00 1757.00 L 317.00 1732.00 L 291.00 1696.00 L 274.00 1664.00 L 266.00 1636.00 L 263.00 1597.00 L 265.00 1547.00 L 356.00 1438.00 L 536.00 1270.00 L 537.00 1267.00 L 359.00 1429.00 L 357.00 1430.00 L 531.00 1270.00 L 532.00 1267.00 L 360.00 1421.00 L 363.00 1418.00 L 541.00 1258.00 L 542.00 1256.00 L 366.00 1412.00 L 354.00 1422.00 L 506.00 1286.00 L 507.00 1284.00 L 357.00 1416.00 L 378.00 1397.00 L 570.00 1227.00 L 571.00 1224.00 L 381.00 1388.00 L 383.00 1386.00 L 577.00 1218.00 L 579.00 1215.00 L 389.00 1377.00 L 357.00 1404.00 L 483.00 1296.00 L 484.00 1293.00 L 360.00 1395.00 L 350.00 1402.00 L 454.00 1314.00 L 457.00 1311.00 L 359.00 1393.00 L 402.00 1357.00 L 586.00 1203.00 L 587.00 1201.00 L 405.00 1351.00 L 358.00 1389.00 L 446.00 1315.00 L 450.00 1310.00 L 370.00 1374.00 L 365.00 1377.00 L 435.00 1319.00 L 439.00 1315.00 L 377.00 1365.00 L 370.00 1370.00 L 418.00 1330.00 L 423.00 1325.00 L 385.00 1355.00 L 441.00 1306.00 L 591.00 1178.00 L 660.00 1105.00 L 648.00 1087.00 L 641.00 1073.00 L 639.00 1063.00 L 648.00 1050.00 L 668.00 1034.00 L 671.00 1019.00 L 657.00 1005.00 L 649.00 996.00 L 647.00 992.00 L 638.00 983.00 Z" fill="black" stroke="black" stroke-width="1"/>
</svg>