<?xml version="1.0" encoding="UTF-8"?>
<svg xmlns="http://www.w3.org/2000/svg" viewBox="332.00 250.00 836.00 1497.00">
  <path d="M 387.00 939.00 L 381.00 933.00 L 378.00 924.00 L 378.00 912.00 L 380.00 903.00 L 384.00 897.00 L 383.00 889.00 L 377.00 879.00 L 378.00 865.00 L 386.00 847.00 L 386.00 834.00 L 378.00 826.00 L 377.00 823.00 L 383.00 825.00 L 375.00 820.00 L 353.00 808.00 L 342.00 797.00 L 342.00 787.00 L 366.00 756.00 L 414.00 704.00 L 438.00 656.00 L 438.00 612.00 L 443.00 578.00 L 453.00 554.00 L 455.00 534.00 L 449.00 518.00 L 450.00 515.00 L 458.00 525.00 L 458.00 522.00 L 450.00 506.00 L 451.00 504.00 L 461.00 516.00 L 462.00 513.00 L 454.00 495.00 L 455.00 493.00 L 465.00 507.00 L 465.00 505.00 L 455.00 487.00 L 455.00 485.00 L 465.00 499.00 L 466.00 497.00 L 458.00 479.00 L 459.00 478.00 L 469.00 494.00 L 470.00 492.00 L 462.00 472.00 L 463.00 468.00 L 473.00 480.00 L 474.00 478.00 L 466.00 462.00 L 467.00 461.00 L 477.00 475.00 L 478.00 473.00 L 470.00 455.00 L 471.00 452.00 L 481.00 464.00 L 483.00 462.00 L 477.00 446.00 L 478.00 444.00 L 486.00 456.00 L 487.00 455.00 L 481.00 441.00 L 493.00 425.00 L 523.00 407.00 L 554.00 382.00 L 586.00 350.00 L 613.00 327.00 L 635.00 313.00 L 673.00 296.00 L 727.00 276.00 L 784.00 264.00 L 844.00 260.00 L 901.00 265.00 L 955.00 279.00 L 997.00 294.00 L 1027.00 310.00 L 1045.00 315.00 L 1051.00 309.00 L 1062.00 305.00 L 1078.00 303.00 L 1095.00 308.00 L 1113.00 320.00 L 1127.00 335.00 L 1137.00 353.00 L 1144.00 374.00 L 1148.00 398.00 L 1149.00 420.00 L 1147.00 440.00 L 1149.00 462.00 L 1155.00 486.00 L 1158.00 517.00 L 1158.00 555.00 L 1155.00 592.00 L 1149.00 628.00 L 1141.00 661.00 L 1131.00 691.00 L 1118.00 721.00 L 1102.00 751.00 L 1079.00 781.00 L 1049.00 811.00 L 1011.00 841.00 L 965.00 871.00 L 940.00 899.00 L 936.00 925.00 L 939.00 944.00 L 949.00 956.00 L 950.00 962.00 L 942.00 962.00 L 944.00 963.00 L 956.00 965.00 L 977.00 997.00 L 1007.00 1059.00 L 1035.00 1108.00 L 1061.00 1144.00 L 1091.00 1200.00 L 1125.00 1276.00 L 1141.00 1316.00 L 1139.00 1320.00 L 1085.00 1342.00 L 979.00 1382.00 L 898.00 1417.00 L 842.00 1447.00 L 767.00 1492.00 L 673.00 1552.00 L 574.00 1622.00 L 470.00 1702.00 L 408.00 1737.00 L 388.00 1727.00 L 440.00 1579.00 L 564.00 1293.00 L 561.00 1291.00 L 431.00 1573.00 L 432.00 1570.00 L 564.00 1282.00 L 563.00 1281.00 L 429.00 1567.00 L 429.00 1566.00 L 563.00 1278.00 L 560.00 1275.00 L 420.00 1557.00 L 420.00 1555.00 L 560.00 1269.00 L 559.00 1268.00 L 417.00 1552.00 L 410.00 1564.00 L 538.00 1304.00 L 536.00 1302.00 L 404.00 1558.00 L 411.00 1544.00 L 557.00 1260.00 L 556.00 1258.00 L 408.00 1538.00 L 398.00 1556.00 L 526.00 1312.00 L 524.00 1310.00 L 392.00 1550.00 L 390.00 1552.00 L 518.00 1316.00 L 517.00 1313.00 L 387.00 1543.00 L 383.00 1548.00 L 505.00 1328.00 L 504.00 1324.00 L 380.00 1536.00 L 395.00 1508.00 L 549.00 1240.00 L 549.00 1237.00 L 395.00 1499.00 L 373.00 1536.00 L 483.00 1348.00 L 482.00 1347.00 L 370.00 1533.00 L 368.00 1535.00 L 476.00 1353.00 L 476.00 1351.00 L 368.00 1529.00 L 365.00 1533.00 L 467.00 1363.00 L 467.00 1361.00 L 365.00 1527.00 L 392.00 1482.00 L 548.00 1226.00 L 548.00 1224.00 L 392.00 1476.00 L 359.00 1528.00 L 449.00 1380.00 L 449.00 1378.00 L 359.00 1522.00 L 358.00 1523.00 L 446.00 1381.00 L 446.00 1379.00 L 358.00 1517.00 L 355.00 1520.00 L 437.00 1388.00 L 438.00 1383.00 L 358.00 1505.00 L 356.00 1507.00 L 432.00 1389.00 L 432.00 1387.00 L 356.00 1501.00 L 351.00 1507.00 L 417.00 1405.00 L 418.00 1400.00 L 354.00 1492.00 L 348.00 1499.00 L 400.00 1421.00 L 401.00 1418.00 L 351.00 1490.00 L 344.00 1498.00 L 380.00 1442.00 L 384.00 1434.00 L 356.00 1474.00 L 352.00 1479.00 L 372.00 1449.00 L 375.00 1444.00 L 361.00 1464.00 L 355.00 1472.00 L 357.00 1468.00 L 424.00 1371.00 L 556.00 1181.00 L 621.00 1083.00 L 619.00 1077.00 L 613.00 1071.00 L 603.00 1065.00 L 579.00 1064.00 L 541.00 1068.00 L 499.00 1064.00 L 453.00 1052.00 L 425.00 1042.00 L 415.00 1034.00 L 406.00 1022.00 L 398.00 1006.00 L 394.00 987.00 L 394.00 965.00 L 393.00 951.00 L 391.00 945.00 L 387.00 939.00 Z" fill="black" stroke="black" stroke-width="1"/>
</svg>