<?xml version="1.0" encoding="UTF-8"?>
<svg xmlns="http://www.w3.org/2000/svg" viewBox="429.00 142.00 935.00 1724.00">
  <path d="M 549.00 969.00 L 547.00 951.00 L 549.00 932.00 L 555.00 912.00 L 551.00 881.00 L 537.00 839.00 L 534.00 806.00 L 542.00 782.00 L 533.00 757.00 L 507.00 731.00 L 508.00 728.00 L 536.00 748.00 L 536.00 745.00 L 508.00 719.00 L 497.00 699.00 L 503.00 685.00 L 524.00 658.00 L 560.00 618.00 L 564.00 573.00 L 536.00 523.00 L 538.00 520.00 L 570.00 564.00 L 573.00 561.00 L 547.00 511.00 L 544.00 502.00 L 564.00 534.00 L 567.00 538.00 L 553.00 514.00 L 553.00 511.00 L 567.00 529.00 L 566.00 523.00 L 550.00 493.00 L 551.00 490.00 L 569.00 514.00 L 572.00 510.00 L 560.00 478.00 L 561.00 473.00 L 575.00 495.00 L 579.00 499.00 L 573.00 485.00 L 573.00 483.00 L 579.00 493.00 L 575.00 482.00 L 561.00 450.00 L 562.00 447.00 L 578.00 473.00 L 578.00 470.00 L 562.00 438.00 L 562.00 435.00 L 578.00 461.00 L 579.00 459.00 L 565.00 429.00 L 566.00 426.00 L 582.00 450.00 L 584.00 444.00 L 572.00 408.00 L 573.00 401.00 L 587.00 423.00 L 589.00 421.00 L 579.00 395.00 L 580.00 392.00 L 592.00 412.00 L 594.00 409.00 L 586.00 383.00 L 587.00 380.00 L 597.00 400.00 L 599.00 399.00 L 593.00 377.00 L 594.00 373.00 L 602.00 387.00 L 604.00 385.00 L 600.00 367.00 L 601.00 365.00 L 607.00 379.00 L 608.00 378.00 L 604.00 362.00 L 617.00 332.00 L 647.00 288.00 L 678.00 252.00 L 710.00 224.00 L 765.00 195.00 L 843.00 165.00 L 929.00 152.00 L 1023.00 156.00 L 1109.00 177.00 L 1187.00 215.00 L 1249.00 265.00 L 1295.00 327.00 L 1327.00 391.00 L 1345.00 457.00 L 1354.00 506.00 L 1354.00 538.00 L 1348.00 579.00 L 1336.00 629.00 L 1310.00 689.00 L 1270.00 759.00 L 1247.00 817.00 L 1241.00 863.00 L 1231.00 889.00 L 1217.00 895.00 L 1216.00 897.00 L 1228.00 895.00 L 1229.00 897.00 L 1219.00 903.00 L 1218.00 914.00 L 1226.00 930.00 L 1234.00 966.00 L 1242.00 1022.00 L 1243.00 1075.00 L 1237.00 1125.00 L 1240.00 1174.00 L 1252.00 1222.00 L 1268.00 1269.00 L 1288.00 1315.00 L 1307.00 1377.00 L 1325.00 1455.00 L 1293.00 1501.00 L 1211.00 1515.00 L 1132.00 1536.00 L 1056.00 1564.00 L 974.00 1602.00 L 886.00 1650.00 L 785.00 1718.00 L 671.00 1806.00 L 598.00 1852.00 L 566.00 1856.00 L 532.00 1853.00 L 496.00 1843.00 L 472.00 1831.00 L 460.00 1817.00 L 449.00 1796.00 L 439.00 1768.00 L 440.00 1704.00 L 452.00 1604.00 L 473.00 1519.00 L 503.00 1449.00 L 516.00 1416.00 L 512.00 1420.00 L 544.00 1370.00 L 612.00 1266.00 L 636.00 1224.00 L 616.00 1244.00 L 617.00 1241.00 L 639.00 1215.00 L 634.00 1216.00 L 602.00 1244.00 L 597.00 1246.00 L 619.00 1222.00 L 616.00 1223.00 L 588.00 1249.00 L 567.00 1263.00 L 553.00 1265.00 L 568.00 1244.00 L 612.00 1200.00 L 632.00 1179.00 L 628.00 1181.00 L 603.00 1202.00 L 557.00 1242.00 L 553.00 1243.00 L 591.00 1205.00 L 589.00 1203.00 L 547.00 1237.00 L 550.00 1234.00 L 598.00 1194.00 L 599.00 1192.00 L 553.00 1228.00 L 551.00 1226.00 L 593.00 1186.00 L 613.00 1163.00 L 611.00 1157.00 L 622.00 1145.00 L 646.00 1127.00 L 646.00 1125.00 L 622.00 1139.00 L 621.00 1137.00 L 643.00 1119.00 L 644.00 1116.00 L 624.00 1128.00 L 622.00 1128.00 L 638.00 1116.00 L 638.00 1114.00 L 622.00 1122.00 L 622.00 1118.00 L 638.00 1102.00 L 640.00 1088.00 L 628.00 1076.00 L 622.00 1064.00 L 622.00 1052.00 L 633.00 1041.00 L 655.00 1031.00 L 650.00 1025.00 L 618.00 1023.00 L 590.00 1014.00 L 566.00 998.00 L 553.00 987.00 L 551.00 981.00 L 549.00 969.00 Z" fill="black" stroke="black" stroke-width="1"/>
</svg>