<?xml version="1.0" encoding="UTF-8"?>
<svg xmlns="http://www.w3.org/2000/svg" viewBox="341.00 237.00 916.00 1501.00">
  <path d="M 420.00 982.00 L 424.00 974.00 L 423.00 966.00 L 417.00 958.00 L 416.00 945.00 L 420.00 927.00 L 421.00 913.00 L 419.00 903.00 L 417.00 896.00 L 415.00 892.00 L 400.00 884.00 L 372.00 872.00 L 356.00 861.00 L 352.00 851.00 L 351.00 843.00 L 353.00 837.00 L 361.00 826.00 L 375.00 810.00 L 395.00 778.00 L 421.00 730.00 L 436.00 698.00 L 440.00 682.00 L 442.00 659.00 L 442.00 629.00 L 445.00 602.00 L 451.00 578.00 L 453.00 563.00 L 451.00 557.00 L 451.00 537.00 L 453.00 503.00 L 457.00 482.00 L 463.00 474.00 L 470.00 460.00 L 478.00 440.00 L 502.00 410.00 L 542.00 370.00 L 579.00 340.00 L 613.00 320.00 L 640.00 308.00 L 660.00 304.00 L 683.00 295.00 L 709.00 281.00 L 731.00 271.00 L 749.00 265.00 L 766.00 262.00 L 782.00 262.00 L 806.00 258.00 L 838.00 250.00 L 855.00 247.00 L 857.00 249.00 L 884.00 251.00 L 936.00 253.00 L 975.00 260.00 L 1001.00 272.00 L 1023.00 280.00 L 1041.00 284.00 L 1060.00 292.00 L 1080.00 304.00 L 1100.00 317.00 L 1120.00 331.00 L 1146.00 353.00 L 1178.00 383.00 L 1201.00 409.00 L 1215.00 431.00 L 1226.00 452.00 L 1234.00 472.00 L 1241.00 503.00 L 1247.00 545.00 L 1246.00 610.00 L 1238.00 698.00 L 1228.00 761.00 L 1216.00 799.00 L 1199.00 842.00 L 1177.00 890.00 L 1166.00 928.00 L 1166.00 956.00 L 1154.00 971.00 L 1130.00 973.00 L 1130.00 975.00 L 1154.00 977.00 L 1155.00 979.00 L 1133.00 981.00 L 1132.00 983.00 L 1152.00 985.00 L 1154.00 988.00 L 1138.00 992.00 L 1137.00 994.00 L 1151.00 994.00 L 1154.00 995.00 L 1146.00 997.00 L 1144.00 999.00 L 1148.00 1001.00 L 1147.00 1002.00 L 1141.00 1002.00 L 1141.00 1008.00 L 1147.00 1020.00 L 1151.00 1036.00 L 1153.00 1056.00 L 1158.00 1082.00 L 1166.00 1114.00 L 1170.00 1138.00 L 1170.00 1154.00 L 1164.00 1173.00 L 1152.00 1195.00 L 1146.00 1210.00 L 1146.00 1218.00 L 1147.00 1227.00 L 1149.00 1237.00 L 1155.00 1251.00 L 1165.00 1269.00 L 1174.00 1299.00 L 1182.00 1341.00 L 1186.00 1376.00 L 1186.00 1404.00 L 1182.00 1426.00 L 1174.00 1442.00 L 1165.00 1456.00 L 1155.00 1468.00 L 1138.00 1479.00 L 1114.00 1489.00 L 1072.00 1497.00 L 1012.00 1503.00 L 963.00 1510.00 L 925.00 1518.00 L 891.00 1527.00 L 861.00 1537.00 L 834.00 1544.00 L 810.00 1548.00 L 761.00 1567.00 L 687.00 1601.00 L 611.00 1644.00 L 533.00 1696.00 L 484.00 1724.00 L 464.00 1728.00 L 450.00 1726.00 L 442.00 1718.00 L 435.00 1715.00 L 429.00 1717.00 L 420.00 1713.00 L 408.00 1703.00 L 403.00 1692.00 L 405.00 1680.00 L 405.00 1670.00 L 403.00 1662.00 L 403.00 1654.00 L 405.00 1646.00 L 419.00 1619.00 L 445.00 1573.00 L 446.00 1570.00 L 422.00 1610.00 L 422.00 1609.00 L 446.00 1567.00 L 447.00 1565.00 L 425.00 1603.00 L 424.00 1600.00 L 444.00 1556.00 L 453.00 1530.00 L 451.00 1522.00 L 452.00 1510.00 L 456.00 1494.00 L 455.00 1482.00 L 449.00 1474.00 L 436.00 1473.00 L 416.00 1479.00 L 405.00 1478.00 L 403.00 1470.00 L 405.00 1462.00 L 411.00 1454.00 L 412.00 1451.00 L 408.00 1453.00 L 407.00 1448.00 L 409.00 1436.00 L 417.00 1420.00 L 431.00 1400.00 L 435.00 1393.00 L 429.00 1399.00 L 430.00 1394.00 L 438.00 1378.00 L 461.00 1347.00 L 499.00 1301.00 L 499.00 1298.00 L 461.00 1338.00 L 462.00 1336.00 L 502.00 1292.00 L 506.00 1286.00 L 474.00 1318.00 L 472.00 1318.00 L 500.00 1286.00 L 500.00 1284.00 L 472.00 1312.00 L 469.00 1312.00 L 491.00 1284.00 L 495.00 1271.00 L 481.00 1273.00 L 485.00 1263.00 L 507.00 1241.00 L 514.00 1232.00 L 506.00 1236.00 L 506.00 1234.00 L 514.00 1226.00 L 506.00 1232.00 L 482.00 1252.00 L 481.00 1250.00 L 503.00 1226.00 L 512.00 1209.00 L 508.00 1199.00 L 501.00 1188.00 L 491.00 1176.00 L 487.00 1166.00 L 489.00 1158.00 L 493.00 1152.00 L 499.00 1148.00 L 500.00 1147.00 L 496.00 1149.00 L 494.00 1148.00 L 494.00 1144.00 L 489.00 1139.00 L 479.00 1133.00 L 473.00 1126.00 L 471.00 1118.00 L 466.00 1113.00 L 458.00 1111.00 L 455.00 1109.00 L 457.00 1107.00 L 454.00 1104.00 L 446.00 1100.00 L 441.00 1083.00 L 439.00 1053.00 L 434.00 1028.00 L 426.00 1008.00 L 421.00 995.00 L 419.00 989.00 L 420.00 982.00 Z" fill="black" stroke="black" stroke-width="1"/>
</svg>