<?xml version="1.0" encoding="UTF-8"?>
<svg xmlns="http://www.w3.org/2000/svg" viewBox="384.00 230.00 864.00 1490.00">
  <path d="M 567.00 1007.00 L 561.00 1001.00 L 550.00 994.00 L 534.00 986.00 L 522.00 977.00 L 514.00 967.00 L 509.00 951.00 L 507.00 929.00 L 508.00 913.00 L 512.00 903.00 L 514.00 894.00 L 514.00 886.00 L 510.00 875.00 L 502.00 861.00 L 499.00 850.00 L 501.00 842.00 L 499.00 835.00 L 493.00 829.00 L 491.00 816.00 L 493.00 796.00 L 481.00 773.00 L 455.00 747.00 L 455.00 744.00 L 481.00 764.00 L 481.00 761.00 L 455.00 735.00 L 448.00 714.00 L 460.00 698.00 L 470.00 682.00 L 478.00 666.00 L 492.00 645.00 L 512.00 619.00 L 525.00 596.00 L 531.00 576.00 L 535.00 551.00 L 537.00 521.00 L 551.00 491.00 L 577.00 461.00 L 593.00 440.00 L 599.00 428.00 L 601.00 419.00 L 599.00 413.00 L 600.00 404.00 L 604.00 392.00 L 613.00 378.00 L 627.00 362.00 L 649.00 342.00 L 679.00 318.00 L 711.00 297.00 L 745.00 279.00 L 771.00 269.00 L 789.00 267.00 L 822.00 259.00 L 870.00 245.00 L 922.00 240.00 L 978.00 244.00 L 1018.00 251.00 L 1042.00 261.00 L 1064.00 275.00 L 1084.00 293.00 L 1106.00 310.00 L 1130.00 326.00 L 1149.00 341.00 L 1163.00 355.00 L 1176.00 370.00 L 1188.00 386.00 L 1201.00 408.00 L 1215.00 436.00 L 1226.00 464.00 L 1234.00 492.00 L 1238.00 525.00 L 1238.00 563.00 L 1228.00 620.00 L 1208.00 696.00 L 1194.00 741.00 L 1186.00 755.00 L 1178.00 766.00 L 1170.00 774.00 L 1162.00 786.00 L 1154.00 802.00 L 1148.00 819.00 L 1144.00 837.00 L 1130.00 852.00 L 1106.00 864.00 L 1105.00 866.00 L 1127.00 858.00 L 1128.00 860.00 L 1108.00 872.00 L 1106.00 875.00 L 1122.00 869.00 L 1126.00 868.00 L 1118.00 872.00 L 1117.00 873.00 L 1123.00 871.00 L 1120.00 875.00 L 1108.00 885.00 L 1104.00 894.00 L 1108.00 902.00 L 1110.00 914.00 L 1110.00 930.00 L 1111.00 939.00 L 1113.00 941.00 L 1114.00 972.00 L 1114.00 1032.00 L 1109.00 1076.00 L 1099.00 1104.00 L 1099.00 1129.00 L 1109.00 1151.00 L 1116.00 1174.00 L 1120.00 1198.00 L 1126.00 1216.00 L 1134.00 1228.00 L 1144.00 1248.00 L 1156.00 1276.00 L 1164.00 1299.00 L 1168.00 1317.00 L 1168.00 1325.00 L 1164.00 1323.00 L 1164.00 1325.00 L 1168.00 1331.00 L 1172.00 1343.00 L 1176.00 1361.00 L 1181.00 1395.00 L 1187.00 1445.00 L 1188.00 1471.00 L 1184.00 1473.00 L 1179.00 1473.00 L 1173.00 1471.00 L 1143.00 1471.00 L 1089.00 1473.00 L 1022.00 1482.00 L 942.00 1498.00 L 879.00 1514.00 L 833.00 1530.00 L 777.00 1554.00 L 711.00 1586.00 L 648.00 1622.00 L 588.00 1662.00 L 543.00 1689.00 L 513.00 1703.00 L 488.00 1710.00 L 468.00 1710.00 L 449.00 1706.00 L 431.00 1698.00 L 419.00 1691.00 L 413.00 1685.00 L 406.00 1671.00 L 398.00 1649.00 L 394.00 1628.00 L 394.00 1608.00 L 400.00 1579.00 L 412.00 1541.00 L 417.00 1523.00 L 415.00 1525.00 L 429.00 1490.00 L 459.00 1418.00 L 495.00 1354.00 L 537.00 1298.00 L 556.00 1272.00 L 552.00 1276.00 L 556.00 1266.00 L 568.00 1242.00 L 581.00 1222.00 L 595.00 1206.00 L 588.00 1210.00 L 560.00 1234.00 L 561.00 1232.00 L 591.00 1204.00 L 587.00 1206.00 L 549.00 1238.00 L 545.00 1240.00 L 575.00 1212.00 L 573.00 1212.00 L 539.00 1240.00 L 519.00 1255.00 L 513.00 1257.00 L 506.00 1256.00 L 498.00 1252.00 L 501.00 1242.00 L 515.00 1226.00 L 519.00 1220.00 L 513.00 1224.00 L 515.00 1222.00 L 525.00 1214.00 L 519.00 1218.00 L 497.00 1234.00 L 511.00 1223.00 L 561.00 1185.00 L 563.00 1182.00 L 517.00 1214.00 L 512.00 1216.00 L 548.00 1188.00 L 560.00 1178.00 L 548.00 1186.00 L 549.00 1184.00 L 563.00 1172.00 L 564.00 1170.00 L 552.00 1178.00 L 550.00 1178.00 L 558.00 1170.00 L 556.00 1162.00 L 544.00 1154.00 L 552.00 1142.00 L 580.00 1126.00 L 580.00 1124.00 L 552.00 1136.00 L 551.00 1134.00 L 577.00 1118.00 L 578.00 1115.00 L 554.00 1125.00 L 552.00 1125.00 L 572.00 1115.00 L 573.00 1114.00 L 555.00 1122.00 L 553.00 1122.00 L 567.00 1114.00 L 568.00 1112.00 L 556.00 1116.00 L 559.00 1114.00 L 577.00 1106.00 L 580.00 1104.00 L 568.00 1108.00 L 567.00 1105.00 L 577.00 1095.00 L 580.00 1085.00 L 576.00 1075.00 L 570.00 1067.00 L 562.00 1061.00 L 556.00 1053.00 L 552.00 1043.00 L 551.00 1036.00 L 553.00 1032.00 L 561.00 1028.00 L 575.00 1024.00 L 579.00 1022.00 L 573.00 1022.00 L 573.00 1020.00 L 579.00 1016.00 L 579.00 1013.00 L 573.00 1011.00 L 567.00 1007.00 Z" fill="black" stroke="black" stroke-width="1"/>
</svg>