<?xml version="1.0" encoding="UTF-8"?>
<svg xmlns="http://www.w3.org/2000/svg" viewBox="225.00 181.00 920.00 1632.00">
  <path d="M 388.00 1030.00 L 384.00 1022.00 L 384.00 1004.00 L 388.00 976.00 L 385.00 953.00 L 375.00 935.00 L 372.00 920.00 L 376.00 908.00 L 374.00 895.00 L 366.00 881.00 L 365.00 865.00 L 371.00 847.00 L 359.00 826.00 L 329.00 802.00 L 328.00 800.00 L 356.00 820.00 L 355.00 817.00 L 325.00 791.00 L 310.00 775.00 L 310.00 769.00 L 316.00 756.00 L 328.00 736.00 L 356.00 702.00 L 400.00 654.00 L 419.00 612.00 L 413.00 576.00 L 413.00 561.00 L 419.00 567.00 L 419.00 564.00 L 413.00 552.00 L 414.00 549.00 L 422.00 555.00 L 424.00 552.00 L 420.00 540.00 L 421.00 539.00 L 427.00 549.00 L 429.00 546.00 L 427.00 530.00 L 429.00 526.00 L 435.00 534.00 L 436.00 532.00 L 432.00 520.00 L 433.00 518.00 L 439.00 526.00 L 440.00 523.00 L 436.00 509.00 L 434.00 489.00 L 434.00 463.00 L 440.00 443.00 L 452.00 429.00 L 462.00 411.00 L 470.00 389.00 L 478.00 373.00 L 486.00 363.00 L 501.00 351.00 L 523.00 337.00 L 550.00 309.00 L 582.00 267.00 L 629.00 233.00 L 691.00 207.00 L 731.00 193.00 L 749.00 191.00 L 771.00 194.00 L 797.00 202.00 L 821.00 205.00 L 843.00 203.00 L 861.00 204.00 L 875.00 208.00 L 918.00 231.00 L 990.00 273.00 L 1033.00 303.00 L 1047.00 321.00 L 1069.00 357.00 L 1099.00 411.00 L 1117.00 448.00 L 1123.00 468.00 L 1129.00 505.00 L 1135.00 559.00 L 1131.00 622.00 L 1117.00 694.00 L 1093.00 762.00 L 1059.00 826.00 L 1034.00 864.00 L 1018.00 876.00 L 1015.00 891.00 L 1025.00 909.00 L 1033.00 933.00 L 1039.00 963.00 L 1041.00 1012.00 L 1039.00 1080.00 L 1033.00 1127.00 L 1023.00 1153.00 L 1023.00 1172.00 L 1033.00 1184.00 L 1041.00 1198.00 L 1047.00 1214.00 L 1063.00 1277.00 L 1089.00 1387.00 L 1101.00 1477.00 L 1099.00 1547.00 L 1096.00 1585.00 L 1092.00 1591.00 L 1063.00 1595.00 L 1009.00 1597.00 L 960.00 1602.00 L 916.00 1610.00 L 835.00 1631.00 L 717.00 1665.00 L 589.00 1710.00 L 451.00 1766.00 L 368.00 1797.00 L 340.00 1803.00 L 314.00 1803.00 L 290.00 1797.00 L 272.00 1788.00 L 260.00 1776.00 L 249.00 1761.00 L 239.00 1743.00 L 235.00 1717.00 L 237.00 1683.00 L 237.00 1667.00 L 235.00 1669.00 L 240.00 1654.00 L 252.00 1622.00 L 257.00 1607.00 L 255.00 1609.00 L 263.00 1588.00 L 281.00 1544.00 L 314.00 1491.00 L 362.00 1429.00 L 363.00 1427.00 L 317.00 1485.00 L 320.00 1480.00 L 372.00 1412.00 L 375.00 1407.00 L 329.00 1465.00 L 344.00 1446.00 L 420.00 1350.00 L 418.00 1352.00 L 338.00 1452.00 L 336.00 1454.00 L 412.00 1358.00 L 416.00 1352.00 L 348.00 1436.00 L 349.00 1432.00 L 419.00 1340.00 L 444.00 1305.00 L 424.00 1327.00 L 422.00 1328.00 L 438.00 1308.00 L 436.00 1309.00 L 416.00 1331.00 L 393.00 1347.00 L 367.00 1357.00 L 376.00 1339.00 L 420.00 1293.00 L 417.00 1293.00 L 367.00 1339.00 L 371.00 1332.00 L 429.00 1272.00 L 426.00 1271.00 L 362.00 1329.00 L 362.00 1327.00 L 426.00 1265.00 L 423.00 1265.00 L 353.00 1327.00 L 342.00 1336.00 L 390.00 1292.00 L 391.00 1289.00 L 345.00 1327.00 L 355.00 1316.00 L 421.00 1256.00 L 441.00 1237.00 L 415.00 1259.00 L 415.00 1257.00 L 441.00 1231.00 L 438.00 1230.00 L 406.00 1254.00 L 406.00 1252.00 L 438.00 1224.00 L 437.00 1223.00 L 403.00 1249.00 L 385.00 1260.00 L 383.00 1256.00 L 400.00 1240.00 L 436.00 1212.00 L 437.00 1209.00 L 403.00 1231.00 L 402.00 1229.00 L 434.00 1203.00 L 438.00 1197.00 L 414.00 1211.00 L 413.00 1209.00 L 435.00 1191.00 L 441.00 1164.00 L 431.00 1128.00 L 439.00 1106.00 L 465.00 1098.00 L 468.00 1096.00 L 448.00 1100.00 L 445.00 1100.00 L 459.00 1096.00 L 461.00 1095.00 L 451.00 1097.00 L 450.00 1095.00 L 458.00 1089.00 L 452.00 1082.00 L 432.00 1074.00 L 415.00 1064.00 L 401.00 1052.00 L 393.00 1043.00 L 391.00 1037.00 L 388.00 1030.00 Z" fill="black" stroke="black" stroke-width="1"/>
</svg>