<?xml version="1.0" encoding="UTF-8"?>
<svg xmlns="http://www.w3.org/2000/svg" viewBox="180.00 245.00 930.00 1578.00">
  <path d="M 398.00 1048.00 L 406.00 1036.00 L 402.00 1027.00 L 386.00 1021.00 L 372.00 1010.00 L 360.00 994.00 L 354.00 977.00 L 354.00 959.00 L 359.00 942.00 L 369.00 926.00 L 369.00 911.00 L 359.00 897.00 L 358.00 885.00 L 366.00 875.00 L 362.00 862.00 L 346.00 846.00 L 340.00 834.00 L 344.00 826.00 L 345.00 819.00 L 343.00 813.00 L 334.00 801.00 L 318.00 783.00 L 317.00 780.00 L 331.00 792.00 L 326.00 787.00 L 302.00 765.00 L 288.00 747.00 L 284.00 733.00 L 286.00 721.00 L 294.00 711.00 L 304.00 703.00 L 316.00 697.00 L 341.00 677.00 L 379.00 643.00 L 400.00 619.00 L 404.00 605.00 L 406.00 588.00 L 406.00 568.00 L 414.00 542.00 L 430.00 510.00 L 437.00 489.00 L 435.00 479.00 L 436.00 476.00 L 440.00 480.00 L 441.00 477.00 L 439.00 467.00 L 440.00 466.00 L 444.00 474.00 L 445.00 472.00 L 443.00 460.00 L 444.00 457.00 L 448.00 463.00 L 449.00 461.00 L 447.00 451.00 L 449.00 450.00 L 455.00 458.00 L 457.00 455.00 L 455.00 441.00 L 456.00 438.00 L 460.00 446.00 L 461.00 444.00 L 459.00 432.00 L 459.00 425.00 L 461.00 423.00 L 464.00 428.00 L 468.00 440.00 L 470.00 437.00 L 470.00 419.00 L 473.00 416.00 L 479.00 428.00 L 481.00 426.00 L 479.00 410.00 L 480.00 408.00 L 484.00 420.00 L 487.00 424.00 L 489.00 420.00 L 489.00 412.00 L 487.00 400.00 L 489.00 399.00 L 495.00 409.00 L 497.00 408.00 L 495.00 396.00 L 502.00 383.00 L 518.00 369.00 L 533.00 358.00 L 547.00 350.00 L 563.00 337.00 L 581.00 319.00 L 628.00 295.00 L 704.00 265.00 L 763.00 255.00 L 805.00 265.00 L 836.00 271.00 L 856.00 273.00 L 877.00 279.00 L 899.00 289.00 L 929.00 306.00 L 967.00 330.00 L 998.00 355.00 L 1022.00 381.00 L 1044.00 412.00 L 1064.00 448.00 L 1078.00 479.00 L 1086.00 505.00 L 1093.00 535.00 L 1099.00 569.00 L 1100.00 613.00 L 1096.00 667.00 L 1089.00 712.00 L 1079.00 748.00 L 1063.00 788.00 L 1041.00 832.00 L 1026.00 865.00 L 1018.00 887.00 L 1009.00 904.00 L 999.00 916.00 L 998.00 929.00 L 1006.00 943.00 L 1012.00 958.00 L 1016.00 974.00 L 1020.00 1002.00 L 1024.00 1042.00 L 1026.00 1075.00 L 1026.00 1101.00 L 1024.00 1119.00 L 1020.00 1129.00 L 1024.00 1148.00 L 1036.00 1176.00 L 1042.00 1207.00 L 1042.00 1241.00 L 1050.00 1294.00 L 1066.00 1366.00 L 1075.00 1425.00 L 1077.00 1471.00 L 1079.00 1495.00 L 1081.00 1497.00 L 1080.00 1523.00 L 1076.00 1573.00 L 1072.00 1599.00 L 1068.00 1601.00 L 1054.00 1600.00 L 1030.00 1596.00 L 997.00 1594.00 L 955.00 1594.00 L 892.00 1602.00 L 808.00 1618.00 L 704.00 1647.00 L 580.00 1689.00 L 475.00 1731.00 L 389.00 1773.00 L 335.00 1798.00 L 313.00 1806.00 L 294.00 1811.00 L 278.00 1813.00 L 261.00 1811.00 L 243.00 1805.00 L 227.00 1793.00 L 213.00 1775.00 L 202.00 1754.00 L 194.00 1730.00 L 190.00 1702.00 L 190.00 1670.00 L 193.00 1636.00 L 199.00 1600.00 L 210.00 1558.00 L 226.00 1510.00 L 242.00 1468.00 L 258.00 1432.00 L 279.00 1393.00 L 305.00 1351.00 L 326.00 1320.00 L 342.00 1300.00 L 354.00 1281.00 L 362.00 1263.00 L 375.00 1242.00 L 393.00 1218.00 L 391.00 1213.00 L 369.00 1227.00 L 356.00 1235.00 L 352.00 1237.00 L 357.00 1233.00 L 371.00 1223.00 L 369.00 1223.00 L 351.00 1233.00 L 358.00 1228.00 L 390.00 1208.00 L 388.00 1209.00 L 352.00 1231.00 L 348.00 1233.00 L 376.00 1215.00 L 373.00 1215.00 L 339.00 1233.00 L 315.00 1240.00 L 301.00 1236.00 L 307.00 1225.00 L 333.00 1207.00 L 331.00 1205.00 L 301.00 1219.00 L 316.00 1211.00 L 376.00 1181.00 L 377.00 1178.00 L 319.00 1202.00 L 315.00 1202.00 L 365.00 1178.00 L 385.00 1168.00 L 375.00 1172.00 L 376.00 1170.00 L 388.00 1162.00 L 392.00 1158.00 L 388.00 1158.00 L 384.00 1156.00 L 380.00 1152.00 L 391.00 1145.00 L 417.00 1135.00 L 414.00 1133.00 L 382.00 1139.00 L 381.00 1137.00 L 411.00 1127.00 L 411.00 1125.00 L 381.00 1131.00 L 367.00 1132.00 L 369.00 1128.00 L 383.00 1122.00 L 409.00 1114.00 L 411.00 1112.00 L 389.00 1116.00 L 382.00 1116.00 L 390.00 1112.00 L 392.00 1110.00 L 388.00 1110.00 L 394.00 1107.00 L 410.00 1101.00 L 418.00 1096.00 L 418.00 1092.00 L 414.00 1084.00 L 406.00 1072.00 L 400.00 1063.00 L 396.00 1057.00 L 398.00 1048.00 Z" fill="black" stroke="black" stroke-width="1"/>
</svg>