<?xml version="1.0" encoding="UTF-8"?>
<svg xmlns="http://www.w3.org/2000/svg" viewBox="360.00 188.00 1019.00 1600.00">
  <path d="M 500.00 961.00 L 496.00 951.00 L 494.00 942.00 L 494.00 934.00 L 497.00 918.00 L 503.00 894.00 L 503.00 875.00 L 497.00 861.00 L 494.00 848.00 L 494.00 836.00 L 496.00 828.00 L 500.00 824.00 L 502.00 819.00 L 502.00 813.00 L 500.00 807.00 L 496.00 801.00 L 497.00 784.00 L 503.00 756.00 L 493.00 732.00 L 467.00 712.00 L 466.00 710.00 L 490.00 726.00 L 489.00 724.00 L 463.00 704.00 L 450.00 689.00 L 450.00 679.00 L 452.00 670.00 L 456.00 662.00 L 477.00 640.00 L 515.00 604.00 L 536.00 582.00 L 540.00 574.00 L 541.00 560.00 L 539.00 540.00 L 539.00 528.00 L 541.00 524.00 L 539.00 516.00 L 533.00 504.00 L 533.00 502.00 L 539.00 510.00 L 539.00 507.00 L 533.00 493.00 L 533.00 490.00 L 539.00 498.00 L 539.00 497.00 L 533.00 487.00 L 539.00 458.00 L 557.00 410.00 L 584.00 372.00 L 620.00 344.00 L 647.00 328.00 L 665.00 324.00 L 679.00 317.00 L 689.00 307.00 L 712.00 295.00 L 748.00 281.00 L 795.00 269.00 L 853.00 259.00 L 904.00 254.00 L 948.00 254.00 L 973.00 255.00 L 979.00 257.00 L 986.00 249.00 L 994.00 231.00 L 997.00 230.00 L 995.00 246.00 L 998.00 243.00 L 1006.00 221.00 L 1013.00 207.00 L 1019.00 201.00 L 1031.00 198.00 L 1049.00 198.00 L 1067.00 202.00 L 1085.00 210.00 L 1101.00 220.00 L 1115.00 232.00 L 1124.00 243.00 L 1128.00 253.00 L 1136.00 254.00 L 1148.00 246.00 L 1157.00 242.00 L 1163.00 242.00 L 1170.00 245.00 L 1178.00 251.00 L 1187.00 268.00 L 1197.00 296.00 L 1205.00 314.00 L 1211.00 322.00 L 1220.00 328.00 L 1232.00 332.00 L 1248.00 342.00 L 1268.00 358.00 L 1283.00 372.00 L 1293.00 384.00 L 1304.00 403.00 L 1316.00 429.00 L 1329.00 452.00 L 1343.00 472.00 L 1354.00 494.00 L 1362.00 518.00 L 1367.00 568.00 L 1369.00 644.00 L 1368.00 690.00 L 1364.00 706.00 L 1355.00 727.00 L 1341.00 753.00 L 1329.00 771.00 L 1319.00 781.00 L 1248.00 813.00 L 1116.00 867.00 L 1114.00 870.00 L 1242.00 822.00 L 1302.00 801.00 L 1294.00 807.00 L 1265.00 820.00 L 1215.00 840.00 L 1212.00 843.00 L 1256.00 829.00 L 1224.00 841.00 L 1116.00 879.00 L 1111.00 881.00 L 1209.00 847.00 L 1238.00 837.00 L 1198.00 851.00 L 1196.00 852.00 L 1232.00 840.00 L 1242.00 837.00 L 1226.00 843.00 L 1224.00 844.00 L 1236.00 840.00 L 1193.00 855.00 L 1095.00 889.00 L 1076.00 897.00 L 1136.00 879.00 L 1164.00 872.00 L 1160.00 876.00 L 1142.00 883.00 L 1110.00 893.00 L 1109.00 894.00 L 1139.00 886.00 L 1138.00 887.00 L 1106.00 897.00 L 1104.00 898.00 L 1132.00 890.00 L 1121.00 894.00 L 1071.00 910.00 L 1046.00 932.00 L 1046.00 960.00 L 1047.00 980.00 L 1049.00 992.00 L 1054.00 1004.00 L 1062.00 1016.00 L 1066.00 1027.00 L 1066.00 1037.00 L 1071.00 1048.00 L 1081.00 1060.00 L 1089.00 1076.00 L 1095.00 1096.00 L 1106.00 1115.00 L 1122.00 1133.00 L 1134.00 1150.00 L 1142.00 1166.00 L 1150.00 1189.00 L 1158.00 1219.00 L 1174.00 1260.00 L 1198.00 1312.00 L 1219.00 1362.00 L 1237.00 1410.00 L 1247.00 1440.00 L 1249.00 1452.00 L 1213.00 1463.00 L 1139.00 1473.00 L 1082.00 1484.00 L 1042.00 1496.00 L 991.00 1515.00 L 929.00 1541.00 L 893.00 1555.00 L 883.00 1557.00 L 823.00 1589.00 L 713.00 1651.00 L 617.00 1708.00 L 535.00 1760.00 L 483.00 1778.00 L 461.00 1762.00 L 444.00 1747.00 L 432.00 1733.00 L 419.00 1716.00 L 405.00 1696.00 L 393.00 1676.00 L 383.00 1656.00 L 376.00 1639.00 L 372.00 1625.00 L 370.00 1599.00 L 370.00 1561.00 L 372.00 1533.00 L 376.00 1515.00 L 390.00 1487.00 L 414.00 1449.00 L 424.00 1432.00 L 420.00 1436.00 L 432.00 1422.00 L 460.00 1390.00 L 465.00 1383.00 L 447.00 1401.00 L 448.00 1399.00 L 468.00 1377.00 L 484.00 1355.00 L 496.00 1333.00 L 512.00 1308.00 L 532.00 1280.00 L 579.00 1230.00 L 653.00 1158.00 L 659.00 1151.00 L 597.00 1209.00 L 598.00 1206.00 L 662.00 1142.00 L 692.00 1101.00 L 688.00 1083.00 L 683.00 1071.00 L 677.00 1065.00 L 655.00 1054.00 L 617.00 1038.00 L 589.00 1023.00 L 571.00 1009.00 L 555.00 1000.00 L 541.00 996.00 L 527.00 989.00 L 513.00 979.00 L 505.00 972.00 L 503.00 968.00 L 500.00 961.00 Z" fill="black" stroke="black" stroke-width="1"/>
</svg>