<?xml version="1.0" encoding="UTF-8"?>
<svg xmlns="http://www.w3.org/2000/svg" viewBox="353.00 231.00 959.00 1592.00">
  <path d="M 528.00 982.00 L 532.00 950.00 L 527.00 913.00 L 513.00 871.00 L 509.00 841.00 L 515.00 823.00 L 504.00 804.00 L 476.00 784.00 L 475.00 781.00 L 501.00 795.00 L 500.00 793.00 L 472.00 775.00 L 457.00 760.00 L 455.00 748.00 L 474.00 718.00 L 514.00 670.00 L 525.00 634.00 L 507.00 610.00 L 508.00 607.00 L 528.00 625.00 L 529.00 622.00 L 511.00 598.00 L 511.00 596.00 L 529.00 616.00 L 531.00 613.00 L 517.00 587.00 L 517.00 582.00 L 531.00 598.00 L 532.00 596.00 L 520.00 576.00 L 519.00 570.00 L 529.00 578.00 L 529.00 573.00 L 519.00 555.00 L 519.00 552.00 L 529.00 564.00 L 529.00 562.00 L 519.00 546.00 L 520.00 545.00 L 532.00 559.00 L 534.00 549.00 L 526.00 515.00 L 528.00 505.00 L 540.00 519.00 L 542.00 516.00 L 534.00 496.00 L 535.00 493.00 L 545.00 507.00 L 546.00 505.00 L 538.00 487.00 L 538.00 485.00 L 546.00 499.00 L 549.00 496.00 L 547.00 476.00 L 550.00 472.00 L 558.00 484.00 L 560.00 483.00 L 556.00 469.00 L 557.00 467.00 L 563.00 477.00 L 572.00 462.00 L 584.00 422.00 L 597.00 394.00 L 611.00 378.00 L 641.00 352.00 L 687.00 316.00 L 756.00 282.00 L 848.00 250.00 L 944.00 241.00 L 1044.00 255.00 L 1119.00 274.00 L 1169.00 298.00 L 1206.00 321.00 L 1230.00 343.00 L 1257.00 391.00 L 1287.00 465.00 L 1302.00 534.00 L 1302.00 598.00 L 1292.00 666.00 L 1272.00 738.00 L 1259.00 805.00 L 1253.00 867.00 L 1245.00 907.00 L 1235.00 925.00 L 1210.00 939.00 L 1170.00 949.00 L 1170.00 951.00 L 1210.00 945.00 L 1213.00 946.00 L 1179.00 954.00 L 1178.00 957.00 L 1210.00 955.00 L 1207.00 957.00 L 1169.00 963.00 L 1169.00 966.00 L 1207.00 966.00 L 1208.00 969.00 L 1172.00 975.00 L 1172.00 978.00 L 1208.00 978.00 L 1209.00 980.00 L 1175.00 984.00 L 1174.00 988.00 L 1206.00 992.00 L 1208.00 995.00 L 1180.00 997.00 L 1177.00 999.00 L 1199.00 1001.00 L 1200.00 1004.00 L 1180.00 1008.00 L 1177.00 1011.00 L 1191.00 1013.00 L 1191.00 1015.00 L 1177.00 1017.00 L 1171.00 1023.00 L 1173.00 1033.00 L 1181.00 1046.00 L 1195.00 1062.00 L 1220.00 1116.00 L 1256.00 1208.00 L 1281.00 1289.00 L 1295.00 1359.00 L 1264.00 1405.00 L 1188.00 1427.00 L 1079.00 1470.00 L 937.00 1534.00 L 771.00 1633.00 L 581.00 1767.00 L 464.00 1813.00 L 420.00 1771.00 L 479.00 1608.00 L 641.00 1324.00 L 640.00 1323.00 L 476.00 1605.00 L 473.00 1608.00 L 631.00 1332.00 L 626.00 1327.00 L 458.00 1593.00 L 459.00 1589.00 L 629.00 1315.00 L 627.00 1313.00 L 453.00 1583.00 L 447.00 1590.00 L 609.00 1334.00 L 606.00 1330.00 L 438.00 1578.00 L 435.00 1580.00 L 597.00 1336.00 L 594.00 1332.00 L 426.00 1568.00 L 433.00 1557.00 L 615.00 1299.00 L 614.00 1297.00 L 430.00 1551.00 L 420.00 1564.00 L 584.00 1336.00 L 583.00 1334.00 L 417.00 1558.00 L 414.00 1559.00 L 574.00 1337.00 L 572.00 1332.00 L 408.00 1544.00 L 405.00 1546.00 L 563.00 1338.00 L 562.00 1335.00 L 402.00 1537.00 L 399.00 1539.00 L 553.00 1341.00 L 552.00 1336.00 L 396.00 1524.00 L 392.00 1527.00 L 540.00 1345.00 L 540.00 1342.00 L 392.00 1518.00 L 412.00 1494.00 L 600.00 1270.00 L 600.00 1269.00 L 412.00 1491.00 L 390.00 1516.00 L 534.00 1344.00 L 534.00 1341.00 L 390.00 1507.00 L 386.00 1510.00 L 522.00 1350.00 L 522.00 1347.00 L 386.00 1501.00 L 383.00 1504.00 L 513.00 1356.00 L 513.00 1353.00 L 383.00 1495.00 L 379.00 1498.00 L 501.00 1362.00 L 501.00 1360.00 L 379.00 1492.00 L 377.00 1493.00 L 495.00 1363.00 L 495.00 1359.00 L 377.00 1481.00 L 410.00 1444.00 L 594.00 1248.00 L 595.00 1246.00 L 413.00 1438.00 L 366.00 1486.00 L 454.00 1390.00 L 454.00 1387.00 L 366.00 1477.00 L 363.00 1479.00 L 445.00 1393.00 L 447.00 1389.00 L 369.00 1467.00 L 366.00 1469.00 L 438.00 1395.00 L 439.00 1393.00 L 369.00 1463.00 L 366.00 1465.00 L 430.00 1399.00 L 431.00 1397.00 L 369.00 1459.00 L 366.00 1461.00 L 422.00 1403.00 L 425.00 1398.00 L 375.00 1446.00 L 370.00 1450.00 L 410.00 1410.00 L 412.00 1407.00 L 376.00 1441.00 L 438.00 1379.00 L 598.00 1221.00 L 657.00 1119.00 L 615.00 1073.00 L 578.00 1040.00 L 546.00 1020.00 L 529.00 1007.00 L 527.00 1001.00 L 528.00 982.00 Z" fill="black" stroke="black" stroke-width="1"/>
</svg>