<?xml version="1.0" encoding="UTF-8"?>
<svg xmlns="http://www.w3.org/2000/svg" viewBox="272.00 148.00 891.00 1651.00">
  <path d="M 384.00 985.00 L 380.00 975.00 L 378.00 965.00 L 378.00 955.00 L 381.00 940.00 L 387.00 920.00 L 389.00 907.00 L 387.00 901.00 L 380.00 892.00 L 368.00 880.00 L 364.00 867.00 L 368.00 853.00 L 366.00 840.00 L 358.00 828.00 L 357.00 814.00 L 363.00 798.00 L 351.00 778.00 L 321.00 754.00 L 321.00 752.00 L 351.00 772.00 L 349.00 770.00 L 315.00 746.00 L 304.00 738.00 L 316.00 746.00 L 315.00 745.00 L 301.00 735.00 L 311.00 741.00 L 345.00 763.00 L 344.00 760.00 L 308.00 732.00 L 290.00 715.00 L 290.00 709.00 L 303.00 686.00 L 329.00 646.00 L 355.00 614.00 L 381.00 590.00 L 397.00 573.00 L 403.00 563.00 L 402.00 547.00 L 394.00 525.00 L 395.00 522.00 L 405.00 538.00 L 406.00 536.00 L 398.00 516.00 L 398.00 511.00 L 406.00 521.00 L 408.00 522.00 L 404.00 514.00 L 405.00 512.00 L 411.00 516.00 L 411.00 512.00 L 405.00 500.00 L 405.00 497.00 L 411.00 503.00 L 411.00 499.00 L 405.00 485.00 L 405.00 483.00 L 411.00 493.00 L 410.00 484.00 L 402.00 456.00 L 400.00 437.00 L 404.00 427.00 L 416.00 411.00 L 436.00 389.00 L 450.00 367.00 L 458.00 345.00 L 468.00 324.00 L 480.00 304.00 L 495.00 285.00 L 513.00 267.00 L 524.00 258.00 L 528.00 258.00 L 543.00 247.00 L 569.00 225.00 L 598.00 207.00 L 630.00 193.00 L 654.00 184.00 L 670.00 180.00 L 685.00 174.00 L 699.00 166.00 L 712.00 161.00 L 724.00 159.00 L 744.00 158.00 L 772.00 158.00 L 793.00 160.00 L 807.00 164.00 L 826.00 166.00 L 850.00 166.00 L 875.00 171.00 L 901.00 181.00 L 937.00 201.00 L 983.00 231.00 L 1017.00 259.00 L 1039.00 285.00 L 1062.00 317.00 L 1086.00 355.00 L 1101.00 382.00 L 1107.00 398.00 L 1113.00 426.00 L 1119.00 466.00 L 1123.00 498.00 L 1125.00 522.00 L 1122.00 561.00 L 1114.00 615.00 L 1102.00 670.00 L 1086.00 726.00 L 1077.00 772.00 L 1075.00 808.00 L 1073.00 830.00 L 1071.00 838.00 L 1063.00 845.00 L 1049.00 851.00 L 1048.00 853.00 L 1060.00 851.00 L 1061.00 852.00 L 1051.00 856.00 L 1048.00 858.00 L 1052.00 858.00 L 1053.00 862.00 L 1051.00 870.00 L 1053.00 889.00 L 1059.00 919.00 L 1062.00 957.00 L 1062.00 1003.00 L 1059.00 1031.00 L 1053.00 1041.00 L 1054.00 1062.00 L 1062.00 1094.00 L 1065.00 1116.00 L 1063.00 1128.00 L 1071.00 1164.00 L 1089.00 1224.00 L 1107.00 1277.00 L 1125.00 1323.00 L 1139.00 1383.00 L 1149.00 1457.00 L 1153.00 1496.00 L 1151.00 1500.00 L 1122.00 1505.00 L 1066.00 1511.00 L 1005.00 1521.00 L 939.00 1535.00 L 844.00 1569.00 L 720.00 1623.00 L 642.00 1659.00 L 610.00 1677.00 L 583.00 1695.00 L 561.00 1713.00 L 536.00 1731.00 L 508.00 1749.00 L 479.00 1765.00 L 449.00 1779.00 L 421.00 1787.00 L 395.00 1789.00 L 372.00 1787.00 L 352.00 1781.00 L 334.00 1770.00 L 318.00 1754.00 L 306.00 1738.00 L 298.00 1722.00 L 291.00 1702.00 L 285.00 1678.00 L 282.00 1645.00 L 282.00 1603.00 L 285.00 1569.00 L 291.00 1543.00 L 301.00 1512.00 L 315.00 1476.00 L 323.00 1451.00 L 325.00 1437.00 L 331.00 1417.00 L 341.00 1391.00 L 354.00 1365.00 L 370.00 1339.00 L 380.00 1317.00 L 384.00 1299.00 L 375.00 1295.00 L 353.00 1305.00 L 333.00 1309.00 L 315.00 1307.00 L 316.00 1295.00 L 336.00 1273.00 L 333.00 1272.00 L 307.00 1292.00 L 320.00 1281.00 L 372.00 1239.00 L 377.00 1234.00 L 335.00 1266.00 L 325.00 1273.00 L 347.00 1255.00 L 344.00 1256.00 L 316.00 1276.00 L 323.00 1270.00 L 365.00 1238.00 L 361.00 1240.00 L 311.00 1276.00 L 324.00 1265.00 L 400.00 1207.00 L 425.00 1186.00 L 399.00 1202.00 L 398.00 1200.00 L 422.00 1180.00 L 419.00 1177.00 L 389.00 1191.00 L 389.00 1188.00 L 419.00 1168.00 L 418.00 1166.00 L 386.00 1182.00 L 382.00 1182.00 L 406.00 1166.00 L 406.00 1165.00 L 382.00 1179.00 L 370.00 1185.00 L 370.00 1183.00 L 385.00 1173.00 L 415.00 1155.00 L 416.00 1153.00 L 388.00 1167.00 L 387.00 1165.00 L 413.00 1147.00 L 426.00 1133.00 L 426.00 1123.00 L 423.00 1113.00 L 417.00 1103.00 L 413.00 1091.00 L 411.00 1077.00 L 417.00 1067.00 L 431.00 1061.00 L 433.00 1059.00 L 423.00 1061.00 L 425.00 1060.00 L 439.00 1056.00 L 433.00 1041.00 L 407.00 1015.00 L 392.00 999.00 L 388.00 993.00 L 384.00 985.00 Z" fill="black" stroke="black" stroke-width="1"/>
</svg>