<?xml version="1.0" encoding="UTF-8"?>
<svg xmlns="http://www.w3.org/2000/svg" viewBox="350.00 259.00 903.00 1434.00">
  <path d="M 507.00 927.00 L 493.00 905.00 L 489.00 890.00 L 495.00 882.00 L 493.00 870.00 L 483.00 854.00 L 479.00 835.00 L 481.00 813.00 L 471.00 788.00 L 449.00 760.00 L 458.00 718.00 L 498.00 662.00 L 513.00 608.00 L 503.00 556.00 L 502.00 534.00 L 510.00 542.00 L 511.00 539.00 L 505.00 525.00 L 507.00 519.00 L 517.00 521.00 L 520.00 508.00 L 516.00 480.00 L 518.00 472.00 L 526.00 484.00 L 528.00 480.00 L 524.00 460.00 L 527.00 455.00 L 537.00 465.00 L 539.00 462.00 L 533.00 446.00 L 534.00 445.00 L 542.00 459.00 L 543.00 458.00 L 537.00 442.00 L 538.00 440.00 L 546.00 452.00 L 548.00 450.00 L 544.00 434.00 L 546.00 432.00 L 554.00 444.00 L 556.00 443.00 L 552.00 429.00 L 554.00 425.00 L 562.00 431.00 L 565.00 429.00 L 563.00 419.00 L 573.00 401.00 L 595.00 375.00 L 638.00 344.00 L 702.00 308.00 L 763.00 284.00 L 821.00 272.00 L 881.00 269.00 L 943.00 275.00 L 990.00 286.00 L 1022.00 302.00 L 1048.00 304.00 L 1068.00 292.00 L 1090.00 298.00 L 1114.00 322.00 L 1137.00 333.00 L 1159.00 331.00 L 1171.00 340.00 L 1173.00 360.00 L 1185.00 385.00 L 1207.00 415.00 L 1225.00 458.00 L 1239.00 514.00 L 1243.00 582.00 L 1237.00 662.00 L 1219.00 736.00 L 1189.00 804.00 L 1160.00 850.00 L 1132.00 874.00 L 1101.00 890.00 L 1067.00 898.00 L 1060.00 901.00 L 1080.00 899.00 L 1079.00 901.00 L 1057.00 907.00 L 1045.00 918.00 L 1043.00 934.00 L 1042.00 956.00 L 1042.00 984.00 L 1065.00 1064.00 L 1111.00 1196.00 L 1135.00 1287.00 L 1137.00 1337.00 L 1099.00 1372.00 L 1021.00 1392.00 L 934.00 1422.00 L 838.00 1462.00 L 710.00 1535.00 L 550.00 1641.00 L 525.00 1556.00 L 635.00 1280.00 L 632.00 1282.00 L 516.00 1562.00 L 516.00 1560.00 L 632.00 1276.00 L 629.00 1277.00 L 507.00 1563.00 L 507.00 1561.00 L 629.00 1271.00 L 626.00 1269.00 L 498.00 1555.00 L 495.00 1561.00 L 617.00 1287.00 L 614.00 1284.00 L 486.00 1552.00 L 419.00 1683.00 L 413.00 1677.00 L 479.00 1534.00 L 617.00 1254.00 L 616.00 1253.00 L 476.00 1531.00 L 476.00 1529.00 L 616.00 1247.00 L 611.00 1243.00 L 461.00 1517.00 L 383.00 1651.00 L 377.00 1645.00 L 439.00 1527.00 L 569.00 1297.00 L 568.00 1295.00 L 436.00 1521.00 L 448.00 1499.00 L 604.00 1229.00 L 602.00 1227.00 L 442.00 1493.00 L 427.00 1517.00 L 557.00 1299.00 L 555.00 1295.00 L 421.00 1505.00 L 435.00 1479.00 L 597.00 1217.00 L 594.00 1214.00 L 426.00 1470.00 L 405.00 1501.00 L 531.00 1307.00 L 530.00 1305.00 L 402.00 1495.00 L 400.00 1496.00 L 524.00 1308.00 L 523.00 1307.00 L 397.00 1493.00 L 395.00 1494.00 L 517.00 1310.00 L 515.00 1305.00 L 389.00 1479.00 L 413.00 1443.00 L 587.00 1197.00 L 586.00 1194.00 L 410.00 1434.00 L 377.00 1477.00 L 487.00 1323.00 L 487.00 1318.00 L 377.00 1462.00 L 374.00 1464.00 L 478.00 1324.00 L 478.00 1320.00 L 374.00 1452.00 L 370.00 1455.00 L 466.00 1329.00 L 466.00 1326.00 L 370.00 1446.00 L 366.00 1449.00 L 454.00 1335.00 L 455.00 1330.00 L 369.00 1434.00 L 410.00 1383.00 L 578.00 1177.00 L 578.00 1176.00 L 410.00 1380.00 L 363.00 1436.00 L 437.00 1344.00 L 438.00 1341.00 L 366.00 1427.00 L 364.00 1429.00 L 432.00 1347.00 L 433.00 1344.00 L 367.00 1420.00 L 365.00 1421.00 L 427.00 1347.00 L 428.00 1344.00 L 368.00 1412.00 L 360.00 1419.00 L 404.00 1365.00 L 409.00 1357.00 L 375.00 1395.00 L 370.00 1400.00 L 394.00 1372.00 L 396.00 1369.00 L 376.00 1391.00 L 371.00 1396.00 L 381.00 1384.00 L 383.00 1381.00 L 377.00 1387.00 L 443.00 1311.00 L 581.00 1153.00 L 622.00 1064.00 L 566.00 1044.00 L 529.00 1023.00 L 511.00 1001.00 L 504.00 978.00 L 508.00 954.00 L 511.00 941.00 L 513.00 939.00 L 507.00 927.00 Z" fill="black" stroke="black" stroke-width="1"/>
</svg>