<?xml version="1.0" encoding="UTF-8"?>
<svg xmlns="http://www.w3.org/2000/svg" viewBox="273.00 268.00 963.00 1629.00">
  <path d="M 418.00 1068.00 L 426.00 1048.00 L 424.00 1032.00 L 412.00 1020.00 L 403.00 1005.00 L 397.00 987.00 L 394.00 971.00 L 394.00 957.00 L 377.00 929.00 L 343.00 887.00 L 316.00 842.00 L 296.00 794.00 L 285.00 747.00 L 283.00 701.00 L 285.00 652.00 L 291.00 600.00 L 306.00 547.00 L 330.00 493.00 L 349.00 456.00 L 363.00 436.00 L 390.00 408.00 L 430.00 372.00 L 481.00 339.00 L 543.00 309.00 L 585.00 294.00 L 607.00 294.00 L 631.00 290.00 L 657.00 282.00 L 689.00 278.00 L 727.00 278.00 L 752.00 281.00 L 764.00 287.00 L 783.00 290.00 L 809.00 290.00 L 837.00 295.00 L 867.00 305.00 L 901.00 324.00 L 939.00 352.00 L 972.00 380.00 L 1000.00 408.00 L 1028.00 439.00 L 1056.00 473.00 L 1071.00 496.00 L 1073.00 508.00 L 1076.00 512.00 L 1080.00 508.00 L 1081.00 510.00 L 1079.00 518.00 L 1080.00 519.00 L 1084.00 513.00 L 1086.00 517.00 L 1086.00 531.00 L 1089.00 534.00 L 1095.00 526.00 L 1096.00 528.00 L 1092.00 540.00 L 1093.00 541.00 L 1099.00 531.00 L 1100.00 533.00 L 1096.00 547.00 L 1099.00 564.00 L 1109.00 584.00 L 1115.00 619.00 L 1117.00 669.00 L 1139.00 716.00 L 1181.00 760.00 L 1208.00 791.00 L 1220.00 809.00 L 1226.00 824.00 L 1226.00 836.00 L 1212.00 850.00 L 1184.00 866.00 L 1183.00 868.00 L 1209.00 856.00 L 1207.00 860.00 L 1177.00 880.00 L 1166.00 906.00 L 1174.00 938.00 L 1174.00 960.00 L 1166.00 972.00 L 1163.00 981.00 L 1165.00 987.00 L 1164.00 994.00 L 1160.00 1002.00 L 1152.00 1014.00 L 1140.00 1030.00 L 1139.00 1045.00 L 1149.00 1059.00 L 1156.00 1073.00 L 1160.00 1087.00 L 1161.00 1100.00 L 1159.00 1112.00 L 1152.00 1125.00 L 1140.00 1139.00 L 1123.00 1152.00 L 1101.00 1164.00 L 1093.00 1175.00 L 1099.00 1185.00 L 1096.00 1195.00 L 1084.00 1205.00 L 1064.00 1240.00 L 1036.00 1300.00 L 1021.00 1335.00 L 1019.00 1345.00 L 1025.00 1363.00 L 1039.00 1389.00 L 1037.00 1392.00 L 1019.00 1372.00 L 1020.00 1374.00 L 1040.00 1398.00 L 1042.00 1401.00 L 1026.00 1383.00 L 1027.00 1385.00 L 1045.00 1407.00 L 1056.00 1427.00 L 1060.00 1445.00 L 1071.00 1468.00 L 1089.00 1496.00 L 1088.00 1498.00 L 1068.00 1474.00 L 1068.00 1476.00 L 1088.00 1504.00 L 1089.00 1506.00 L 1071.00 1482.00 L 1071.00 1483.00 L 1089.00 1509.00 L 1099.00 1529.00 L 1101.00 1543.00 L 1112.00 1574.00 L 1132.00 1622.00 L 1147.00 1666.00 L 1157.00 1706.00 L 1160.00 1745.00 L 1156.00 1783.00 L 1156.00 1813.00 L 1160.00 1835.00 L 1159.00 1843.00 L 1153.00 1837.00 L 1152.00 1839.00 L 1156.00 1849.00 L 1154.00 1861.00 L 1146.00 1875.00 L 1140.00 1881.00 L 1136.00 1879.00 L 1128.00 1881.00 L 1116.00 1887.00 L 1036.00 1845.00 L 888.00 1755.00 L 785.00 1699.00 L 727.00 1677.00 L 660.00 1656.00 L 584.00 1636.00 L 526.00 1624.00 L 486.00 1620.00 L 436.00 1619.00 L 376.00 1621.00 L 344.00 1619.00 L 340.00 1613.00 L 350.00 1588.00 L 374.00 1544.00 L 385.00 1523.00 L 383.00 1525.00 L 386.00 1508.00 L 394.00 1472.00 L 398.00 1445.00 L 398.00 1427.00 L 393.00 1407.00 L 383.00 1385.00 L 378.00 1367.00 L 378.00 1353.00 L 384.00 1307.00 L 396.00 1229.00 L 406.00 1183.00 L 414.00 1169.00 L 422.00 1160.00 L 430.00 1156.00 L 436.00 1149.00 L 440.00 1139.00 L 442.00 1128.00 L 442.00 1116.00 L 436.00 1108.00 L 424.00 1104.00 L 423.00 1101.00 L 433.00 1099.00 L 431.00 1097.00 L 417.00 1095.00 L 410.00 1092.00 L 410.00 1088.00 L 411.00 1084.00 L 413.00 1080.00 L 418.00 1068.00 Z" fill="black" stroke="black" stroke-width="1"/>
</svg>