<?xml version="1.0" encoding="UTF-8"?>
<svg xmlns="http://www.w3.org/2000/svg" viewBox="210.00 185.00 969.00 1619.00">
  <path d="M 373.00 983.00 L 379.00 961.00 L 382.00 944.00 L 382.00 932.00 L 377.00 918.00 L 367.00 902.00 L 366.00 888.00 L 374.00 876.00 L 375.00 864.00 L 369.00 852.00 L 368.00 836.00 L 372.00 816.00 L 359.00 794.00 L 329.00 770.00 L 330.00 767.00 L 362.00 785.00 L 362.00 782.00 L 330.00 758.00 L 329.00 755.00 L 359.00 773.00 L 359.00 771.00 L 329.00 749.00 L 331.00 750.00 L 365.00 774.00 L 366.00 772.00 L 334.00 744.00 L 327.00 714.00 L 345.00 682.00 L 369.00 646.00 L 399.00 606.00 L 414.00 568.00 L 414.00 532.00 L 428.00 489.00 L 456.00 439.00 L 473.00 404.00 L 479.00 384.00 L 486.00 378.00 L 494.00 386.00 L 497.00 380.00 L 495.00 360.00 L 497.00 356.00 L 503.00 368.00 L 505.00 365.00 L 503.00 347.00 L 506.00 347.00 L 514.00 365.00 L 518.00 361.00 L 518.00 335.00 L 521.00 333.00 L 527.00 355.00 L 530.00 353.00 L 530.00 327.00 L 548.00 305.00 L 584.00 287.00 L 611.00 270.00 L 629.00 254.00 L 672.00 234.00 L 740.00 210.00 L 789.00 197.00 L 819.00 195.00 L 849.00 199.00 L 879.00 209.00 L 913.00 216.00 L 951.00 220.00 L 1004.00 250.00 L 1072.00 306.00 L 1114.00 349.00 L 1130.00 379.00 L 1145.00 418.00 L 1159.00 466.00 L 1167.00 515.00 L 1169.00 565.00 L 1168.00 601.00 L 1164.00 623.00 L 1149.00 667.00 L 1123.00 733.00 L 1100.00 780.00 L 1080.00 808.00 L 1069.00 835.00 L 1067.00 861.00 L 1062.00 880.00 L 1054.00 892.00 L 1044.00 900.00 L 1032.00 904.00 L 1030.00 905.00 L 1038.00 903.00 L 1040.00 906.00 L 1036.00 914.00 L 1039.00 927.00 L 1049.00 945.00 L 1057.00 970.00 L 1063.00 1002.00 L 1068.00 1032.00 L 1072.00 1060.00 L 1074.00 1085.00 L 1074.00 1107.00 L 1072.00 1124.00 L 1068.00 1136.00 L 1071.00 1153.00 L 1081.00 1175.00 L 1088.00 1198.00 L 1092.00 1222.00 L 1105.00 1260.00 L 1127.00 1312.00 L 1140.00 1369.00 L 1144.00 1431.00 L 1128.00 1462.00 L 1092.00 1462.00 L 1054.00 1465.00 L 1014.00 1471.00 L 953.00 1486.00 L 871.00 1510.00 L 784.00 1544.00 L 692.00 1588.00 L 584.00 1651.00 L 460.00 1733.00 L 383.00 1779.00 L 353.00 1789.00 L 329.00 1794.00 L 311.00 1794.00 L 294.00 1791.00 L 278.00 1785.00 L 263.00 1775.00 L 249.00 1761.00 L 238.00 1745.00 L 230.00 1727.00 L 224.00 1689.00 L 220.00 1631.00 L 221.00 1587.00 L 227.00 1557.00 L 239.00 1520.00 L 257.00 1476.00 L 265.00 1455.00 L 263.00 1457.00 L 274.00 1438.00 L 298.00 1398.00 L 307.00 1381.00 L 301.00 1387.00 L 323.00 1360.00 L 373.00 1300.00 L 401.00 1264.00 L 407.00 1252.00 L 397.00 1255.00 L 371.00 1273.00 L 366.00 1275.00 L 382.00 1261.00 L 376.00 1262.00 L 348.00 1278.00 L 331.00 1284.00 L 325.00 1280.00 L 328.00 1273.00 L 340.00 1263.00 L 341.00 1261.00 L 331.00 1267.00 L 350.00 1252.00 L 398.00 1216.00 L 407.00 1208.00 L 377.00 1228.00 L 374.00 1229.00 L 398.00 1211.00 L 412.00 1200.00 L 416.00 1196.00 L 405.00 1203.00 L 379.00 1221.00 L 374.00 1224.00 L 390.00 1212.00 L 392.00 1209.00 L 380.00 1215.00 L 382.00 1211.00 L 398.00 1197.00 L 405.00 1189.00 L 403.00 1187.00 L 414.00 1177.00 L 438.00 1159.00 L 437.00 1157.00 L 411.00 1171.00 L 398.00 1175.00 L 398.00 1169.00 L 410.00 1159.00 L 434.00 1145.00 L 435.00 1143.00 L 413.00 1153.00 L 409.00 1153.00 L 423.00 1143.00 L 424.00 1140.00 L 412.00 1144.00 L 415.00 1141.00 L 433.00 1131.00 L 435.00 1129.00 L 421.00 1135.00 L 421.00 1132.00 L 435.00 1120.00 L 436.00 1103.00 L 424.00 1081.00 L 425.00 1066.00 L 439.00 1058.00 L 441.00 1055.00 L 431.00 1057.00 L 429.00 1056.00 L 435.00 1052.00 L 431.00 1049.00 L 417.00 1047.00 L 400.00 1036.00 L 380.00 1016.00 L 370.00 1003.00 L 370.00 997.00 L 373.00 983.00 Z" fill="black" stroke="black" stroke-width="1"/>
</svg>