<?xml version="1.0" encoding="UTF-8"?>
<svg xmlns="http://www.w3.org/2000/svg" viewBox="244.00 116.00 967.00 1691.00">
  <path d="M 449.00 971.00 L 431.00 965.00 L 413.00 955.00 L 395.00 941.00 L 384.00 928.00 L 380.00 916.00 L 378.00 905.00 L 378.00 895.00 L 385.00 875.00 L 399.00 845.00 L 404.00 823.00 L 400.00 809.00 L 401.00 797.00 L 407.00 787.00 L 406.00 777.00 L 398.00 767.00 L 394.00 754.00 L 394.00 738.00 L 382.00 717.00 L 358.00 691.00 L 358.00 688.00 L 382.00 708.00 L 380.00 706.00 L 352.00 682.00 L 342.00 673.00 L 350.00 679.00 L 347.00 675.00 L 333.00 661.00 L 343.00 668.00 L 377.00 696.00 L 377.00 693.00 L 343.00 659.00 L 342.00 656.00 L 374.00 684.00 L 389.00 696.00 L 387.00 692.00 L 371.00 676.00 L 341.00 648.00 L 343.00 615.00 L 377.00 577.00 L 406.00 549.00 L 430.00 531.00 L 444.00 519.00 L 448.00 513.00 L 447.00 501.00 L 441.00 483.00 L 442.00 481.00 L 450.00 495.00 L 450.00 492.00 L 442.00 472.00 L 440.00 454.00 L 444.00 438.00 L 452.00 418.00 L 464.00 394.00 L 471.00 375.00 L 473.00 361.00 L 473.00 347.00 L 471.00 333.00 L 472.00 330.00 L 476.00 338.00 L 477.00 335.00 L 475.00 321.00 L 476.00 319.00 L 480.00 329.00 L 481.00 326.00 L 479.00 310.00 L 481.00 297.00 L 487.00 287.00 L 494.00 277.00 L 502.00 267.00 L 517.00 253.00 L 539.00 235.00 L 557.00 223.00 L 571.00 217.00 L 589.00 205.00 L 611.00 187.00 L 645.00 168.00 L 691.00 148.00 L 728.00 135.00 L 756.00 129.00 L 783.00 126.00 L 809.00 126.00 L 860.00 132.00 L 936.00 144.00 L 985.00 154.00 L 1007.00 162.00 L 1032.00 175.00 L 1060.00 193.00 L 1086.00 216.00 L 1110.00 244.00 L 1129.00 272.00 L 1143.00 300.00 L 1154.00 330.00 L 1162.00 362.00 L 1167.00 387.00 L 1169.00 405.00 L 1169.00 431.00 L 1167.00 465.00 L 1167.00 481.00 L 1169.00 479.00 L 1170.00 481.00 L 1170.00 487.00 L 1165.00 527.00 L 1155.00 601.00 L 1146.00 650.00 L 1138.00 674.00 L 1128.00 698.00 L 1116.00 722.00 L 1107.00 746.00 L 1101.00 770.00 L 1093.00 787.00 L 1083.00 797.00 L 1077.00 805.00 L 1075.00 811.00 L 1081.00 822.00 L 1095.00 838.00 L 1106.00 858.00 L 1114.00 882.00 L 1121.00 912.00 L 1127.00 948.00 L 1130.00 975.00 L 1130.00 993.00 L 1129.00 1010.00 L 1127.00 1026.00 L 1123.00 1042.00 L 1117.00 1058.00 L 1118.00 1075.00 L 1126.00 1093.00 L 1129.00 1110.00 L 1127.00 1126.00 L 1136.00 1158.00 L 1156.00 1206.00 L 1176.00 1267.00 L 1196.00 1341.00 L 1201.00 1381.00 L 1191.00 1387.00 L 1169.00 1393.00 L 1135.00 1399.00 L 1087.00 1411.00 L 1025.00 1429.00 L 969.00 1449.00 L 919.00 1471.00 L 870.00 1495.00 L 822.00 1521.00 L 773.00 1550.00 L 723.00 1582.00 L 681.00 1611.00 L 647.00 1637.00 L 621.00 1660.00 L 603.00 1680.00 L 568.00 1709.00 L 516.00 1747.00 L 470.00 1773.00 L 430.00 1787.00 L 394.00 1795.00 L 362.00 1797.00 L 334.00 1789.00 L 310.00 1771.00 L 289.00 1747.00 L 271.00 1717.00 L 260.00 1691.00 L 256.00 1669.00 L 254.00 1639.00 L 254.00 1601.00 L 258.00 1565.00 L 266.00 1531.00 L 276.00 1497.00 L 288.00 1463.00 L 304.00 1424.00 L 324.00 1380.00 L 339.00 1349.00 L 349.00 1331.00 L 369.00 1302.00 L 399.00 1262.00 L 417.00 1235.00 L 423.00 1221.00 L 439.00 1202.00 L 465.00 1178.00 L 462.00 1179.00 L 430.00 1205.00 L 431.00 1203.00 L 465.00 1173.00 L 462.00 1174.00 L 422.00 1206.00 L 416.00 1209.00 L 444.00 1183.00 L 441.00 1183.00 L 407.00 1209.00 L 410.00 1206.00 L 450.00 1174.00 L 447.00 1174.00 L 401.00 1206.00 L 376.00 1219.00 L 372.00 1213.00 L 368.00 1211.00 L 364.00 1213.00 L 367.00 1210.00 L 377.00 1202.00 L 387.00 1189.00 L 397.00 1171.00 L 414.00 1154.00 L 438.00 1138.00 L 440.00 1136.00 L 420.00 1148.00 L 417.00 1147.00 L 431.00 1133.00 L 435.00 1125.00 L 429.00 1123.00 L 424.00 1120.00 L 420.00 1116.00 L 418.00 1112.00 L 418.00 1108.00 L 431.00 1099.00 L 457.00 1085.00 L 458.00 1082.00 L 434.00 1090.00 L 424.00 1091.00 L 428.00 1085.00 L 439.00 1078.00 L 457.00 1070.00 L 460.00 1068.00 L 448.00 1072.00 L 447.00 1070.00 L 457.00 1062.00 L 456.00 1054.00 L 444.00 1046.00 L 434.00 1037.00 L 426.00 1027.00 L 423.00 1017.00 L 425.00 1007.00 L 435.00 997.00 L 453.00 987.00 L 461.00 980.00 L 459.00 976.00 L 449.00 971.00 Z" fill="black" stroke="black" stroke-width="1"/>
</svg>