<?xml version="1.0" encoding="UTF-8"?>
<svg xmlns="http://www.w3.org/2000/svg" viewBox="276.00 251.00 902.00 1502.00">
  <path d="M 417.00 921.00 L 407.00 855.00 L 391.00 814.00 L 369.00 798.00 L 368.00 795.00 L 388.00 805.00 L 385.00 797.00 L 359.00 771.00 L 364.00 740.00 L 400.00 704.00 L 414.00 678.00 L 406.00 662.00 L 410.00 658.00 L 426.00 666.00 L 429.00 662.00 L 419.00 646.00 L 420.00 644.00 L 432.00 656.00 L 432.00 651.00 L 420.00 629.00 L 422.00 624.00 L 438.00 636.00 L 438.00 631.00 L 422.00 609.00 L 422.00 607.00 L 438.00 625.00 L 438.00 621.00 L 422.00 595.00 L 422.00 590.00 L 438.00 606.00 L 439.00 604.00 L 425.00 584.00 L 425.00 581.00 L 439.00 595.00 L 440.00 592.00 L 428.00 572.00 L 428.00 568.00 L 440.00 580.00 L 441.00 572.00 L 431.00 544.00 L 432.00 536.00 L 444.00 548.00 L 447.00 543.00 L 441.00 521.00 L 443.00 515.00 L 453.00 525.00 L 456.00 521.00 L 452.00 503.00 L 454.00 498.00 L 462.00 506.00 L 471.00 491.00 L 481.00 453.00 L 499.00 420.00 L 525.00 392.00 L 577.00 362.00 L 655.00 330.00 L 720.00 315.00 L 772.00 317.00 L 800.00 309.00 L 804.00 291.00 L 806.00 291.00 L 806.00 309.00 L 808.00 306.00 L 812.00 282.00 L 814.00 281.00 L 814.00 303.00 L 822.00 299.00 L 838.00 269.00 L 864.00 261.00 L 900.00 275.00 L 927.00 278.00 L 945.00 270.00 L 984.00 291.00 L 1044.00 341.00 L 1096.00 409.00 L 1140.00 495.00 L 1164.00 576.00 L 1168.00 652.00 L 1166.00 699.00 L 1158.00 717.00 L 1133.00 738.00 L 1091.00 762.00 L 1088.00 765.00 L 1124.00 747.00 L 1122.00 749.00 L 1082.00 771.00 L 1077.00 775.00 L 1107.00 761.00 L 1075.00 788.00 L 981.00 856.00 L 933.00 897.00 L 931.00 911.00 L 931.00 937.00 L 933.00 975.00 L 942.00 1003.00 L 958.00 1021.00 L 983.00 1089.00 L 1017.00 1207.00 L 1040.00 1306.00 L 1052.00 1386.00 L 1055.00 1431.00 L 1049.00 1441.00 L 1013.00 1452.00 L 947.00 1464.00 L 866.00 1488.00 L 770.00 1524.00 L 675.00 1566.00 L 581.00 1614.00 L 496.00 1665.00 L 420.00 1719.00 L 377.00 1743.00 L 367.00 1737.00 L 415.00 1609.00 L 521.00 1359.00 L 519.00 1358.00 L 409.00 1606.00 L 410.00 1603.00 L 522.00 1349.00 L 521.00 1348.00 L 407.00 1600.00 L 407.00 1598.00 L 521.00 1342.00 L 519.00 1341.00 L 401.00 1595.00 L 395.00 1607.00 L 501.00 1377.00 L 496.00 1373.00 L 380.00 1595.00 L 385.00 1578.00 L 511.00 1322.00 L 509.00 1319.00 L 379.00 1569.00 L 385.00 1557.00 L 527.00 1283.00 L 525.00 1281.00 L 379.00 1551.00 L 380.00 1548.00 L 528.00 1272.00 L 527.00 1270.00 L 377.00 1542.00 L 377.00 1541.00 L 527.00 1267.00 L 526.00 1265.00 L 374.00 1535.00 L 370.00 1540.00 L 514.00 1280.00 L 511.00 1275.00 L 361.00 1525.00 L 365.00 1517.00 L 523.00 1251.00 L 522.00 1248.00 L 362.00 1508.00 L 355.00 1518.00 L 501.00 1278.00 L 499.00 1273.00 L 349.00 1503.00 L 356.00 1490.00 L 520.00 1234.00 L 519.00 1231.00 L 353.00 1481.00 L 298.00 1562.00 L 354.00 1474.00 L 354.00 1472.00 L 298.00 1556.00 L 295.00 1559.00 L 345.00 1481.00 L 345.00 1478.00 L 295.00 1550.00 L 293.00 1551.00 L 339.00 1481.00 L 339.00 1479.00 L 293.00 1545.00 L 290.00 1548.00 L 330.00 1488.00 L 331.00 1485.00 L 293.00 1539.00 L 291.00 1541.00 L 325.00 1491.00 L 325.00 1489.00 L 291.00 1535.00 L 286.00 1540.00 L 310.00 1504.00 L 312.00 1500.00 L 292.00 1528.00 L 361.00 1431.00 L 519.00 1209.00 L 520.00 1207.00 L 364.00 1425.00 L 364.00 1423.00 L 520.00 1201.00 L 586.00 1078.00 L 562.00 1054.00 L 520.00 1034.00 L 460.00 1018.00 L 428.00 998.00 L 424.00 974.00 L 422.00 960.00 L 422.00 956.00 L 417.00 921.00 Z" fill="black" stroke="black" stroke-width="1"/>
</svg>