<?xml version="1.0" encoding="UTF-8"?>
<svg xmlns="http://www.w3.org/2000/svg" viewBox="384.00 191.00 1027.00 1673.00">
  <path d="M 562.00 969.00 L 570.00 943.00 L 569.00 922.00 L 559.00 906.00 L 556.00 879.00 L 560.00 841.00 L 549.00 810.00 L 523.00 786.00 L 521.00 780.00 L 543.00 792.00 L 540.00 789.00 L 512.00 771.00 L 498.00 756.00 L 498.00 744.00 L 516.00 709.00 L 552.00 651.00 L 561.00 608.00 L 543.00 580.00 L 544.00 577.00 L 564.00 599.00 L 564.00 597.00 L 544.00 571.00 L 544.00 568.00 L 564.00 588.00 L 564.00 584.00 L 544.00 556.00 L 543.00 553.00 L 561.00 575.00 L 562.00 573.00 L 546.00 547.00 L 546.00 545.00 L 562.00 567.00 L 563.00 564.00 L 549.00 536.00 L 548.00 529.00 L 560.00 543.00 L 561.00 540.00 L 551.00 520.00 L 551.00 517.00 L 561.00 531.00 L 562.00 524.00 L 554.00 496.00 L 556.00 490.00 L 568.00 506.00 L 568.00 503.00 L 556.00 481.00 L 556.00 479.00 L 568.00 497.00 L 569.00 494.00 L 559.00 470.00 L 560.00 467.00 L 572.00 485.00 L 572.00 483.00 L 560.00 461.00 L 561.00 459.00 L 575.00 477.00 L 576.00 474.00 L 564.00 450.00 L 564.00 447.00 L 576.00 465.00 L 578.00 462.00 L 570.00 438.00 L 571.00 435.00 L 581.00 453.00 L 584.00 450.00 L 580.00 426.00 L 582.00 420.00 L 590.00 432.00 L 593.00 429.00 L 591.00 411.00 L 599.00 391.00 L 617.00 369.00 L 648.00 341.00 L 692.00 307.00 L 734.00 282.00 L 774.00 266.00 L 828.00 253.00 L 896.00 243.00 L 953.00 241.00 L 999.00 247.00 L 1032.00 237.00 L 1052.00 211.00 L 1082.00 201.00 L 1122.00 207.00 L 1152.00 221.00 L 1172.00 243.00 L 1193.00 252.00 L 1215.00 248.00 L 1234.00 264.00 L 1250.00 300.00 L 1275.00 333.00 L 1309.00 363.00 L 1336.00 394.00 L 1356.00 426.00 L 1376.00 486.00 L 1396.00 574.00 L 1401.00 659.00 L 1391.00 741.00 L 1376.00 801.00 L 1356.00 839.00 L 1311.00 868.00 L 1241.00 888.00 L 1239.00 890.00 L 1305.00 874.00 L 1303.00 876.00 L 1233.00 896.00 L 1229.00 899.00 L 1291.00 885.00 L 1288.00 888.00 L 1220.00 908.00 L 1214.00 912.00 L 1270.00 900.00 L 1268.00 902.00 L 1208.00 918.00 L 1155.00 939.00 L 1109.00 965.00 L 1086.00 994.00 L 1086.00 1026.00 L 1103.00 1070.00 L 1137.00 1126.00 L 1182.00 1245.00 L 1238.00 1427.00 L 1169.00 1543.00 L 975.00 1593.00 L 819.00 1648.00 L 701.00 1708.00 L 592.00 1772.00 L 492.00 1840.00 L 426.00 1854.00 L 394.00 1814.00 L 469.00 1642.00 L 651.00 1338.00 L 649.00 1334.00 L 463.00 1630.00 L 464.00 1627.00 L 652.00 1325.00 L 651.00 1322.00 L 461.00 1618.00 L 453.00 1628.00 L 627.00 1352.00 L 625.00 1349.00 L 447.00 1619.00 L 445.00 1621.00 L 619.00 1355.00 L 617.00 1350.00 L 439.00 1606.00 L 448.00 1591.00 L 644.00 1305.00 L 644.00 1303.00 L 448.00 1585.00 L 432.00 1607.00 L 596.00 1369.00 L 595.00 1367.00 L 429.00 1601.00 L 426.00 1604.00 L 586.00 1376.00 L 586.00 1373.00 L 426.00 1595.00 L 445.00 1568.00 L 643.00 1292.00 L 643.00 1288.00 L 445.00 1556.00 L 419.00 1590.00 L 565.00 1390.00 L 565.00 1387.00 L 419.00 1581.00 L 412.00 1589.00 L 544.00 1411.00 L 544.00 1408.00 L 412.00 1580.00 L 401.00 1593.00 L 511.00 1447.00 L 512.00 1444.00 L 404.00 1584.00 L 448.00 1526.00 L 644.00 1270.00 L 645.00 1266.00 L 451.00 1514.00 L 396.00 1583.00 L 480.00 1473.00 L 481.00 1470.00 L 399.00 1574.00 L 395.00 1578.00 L 469.00 1482.00 L 470.00 1479.00 L 398.00 1569.00 L 395.00 1572.00 L 461.00 1488.00 L 462.00 1486.00 L 398.00 1566.00 L 396.00 1568.00 L 456.00 1492.00 L 459.00 1487.00 L 405.00 1553.00 L 402.00 1556.00 L 450.00 1496.00 L 451.00 1494.00 L 405.00 1550.00 L 402.00 1553.00 L 442.00 1503.00 L 444.00 1500.00 L 408.00 1544.00 L 406.00 1546.00 L 438.00 1506.00 L 440.00 1503.00 L 412.00 1537.00 L 410.00 1539.00 L 434.00 1509.00 L 436.00 1506.00 L 416.00 1530.00 L 413.00 1533.00 L 427.00 1515.00 L 429.00 1512.00 L 419.00 1524.00 L 495.00 1431.00 L 657.00 1233.00 L 729.00 1118.00 L 711.00 1086.00 L 674.00 1059.00 L 618.00 1037.00 L 583.00 1018.00 L 569.00 1002.00 L 561.00 991.00 L 559.00 985.00 L 562.00 969.00 Z" fill="black" stroke="black" stroke-width="1"/>
</svg>