<?xml version="1.0" encoding="UTF-8"?>
<svg xmlns="http://www.w3.org/2000/svg" viewBox="390.00 113.00 953.00 1795.00">
  <path d="M 539.00 967.00 L 525.00 937.00 L 517.00 909.00 L 515.00 883.00 L 507.00 864.00 L 493.00 852.00 L 489.00 839.00 L 495.00 825.00 L 494.00 810.00 L 486.00 794.00 L 485.00 775.00 L 491.00 753.00 L 482.00 733.00 L 458.00 715.00 L 458.00 713.00 L 482.00 727.00 L 481.00 724.00 L 455.00 704.00 L 454.00 702.00 L 478.00 718.00 L 478.00 715.00 L 454.00 693.00 L 461.00 659.00 L 499.00 613.00 L 521.00 583.00 L 527.00 569.00 L 526.00 552.00 L 518.00 532.00 L 517.00 526.00 L 523.00 534.00 L 523.00 532.00 L 517.00 520.00 L 515.00 507.00 L 517.00 493.00 L 511.00 472.00 L 497.00 444.00 L 497.00 441.00 L 511.00 463.00 L 511.00 460.00 L 497.00 432.00 L 497.00 429.00 L 511.00 451.00 L 512.00 447.00 L 500.00 417.00 L 501.00 412.00 L 515.00 432.00 L 516.00 429.00 L 504.00 403.00 L 503.00 398.00 L 513.00 414.00 L 514.00 412.00 L 506.00 392.00 L 508.00 392.00 L 520.00 412.00 L 521.00 409.00 L 511.00 383.00 L 512.00 381.00 L 524.00 403.00 L 525.00 401.00 L 515.00 375.00 L 516.00 371.00 L 528.00 389.00 L 530.00 386.00 L 522.00 362.00 L 524.00 357.00 L 536.00 371.00 L 538.00 369.00 L 530.00 351.00 L 531.00 349.00 L 541.00 363.00 L 543.00 361.00 L 537.00 343.00 L 548.00 318.00 L 576.00 286.00 L 602.00 264.00 L 626.00 252.00 L 649.00 235.00 L 671.00 213.00 L 690.00 197.00 L 706.00 187.00 L 734.00 176.00 L 774.00 164.00 L 811.00 150.00 L 845.00 134.00 L 895.00 125.00 L 961.00 123.00 L 1007.00 124.00 L 1033.00 128.00 L 1067.00 137.00 L 1109.00 151.00 L 1146.00 168.00 L 1178.00 188.00 L 1213.00 218.00 L 1251.00 258.00 L 1279.00 294.00 L 1297.00 326.00 L 1311.00 361.00 L 1321.00 399.00 L 1327.00 443.00 L 1329.00 493.00 L 1327.00 542.00 L 1321.00 590.00 L 1305.00 652.00 L 1279.00 728.00 L 1254.00 785.00 L 1230.00 823.00 L 1215.00 851.00 L 1209.00 869.00 L 1195.00 882.00 L 1173.00 890.00 L 1171.00 893.00 L 1189.00 891.00 L 1190.00 894.00 L 1174.00 902.00 L 1173.00 931.00 L 1187.00 981.00 L 1193.00 1024.00 L 1191.00 1060.00 L 1203.00 1100.00 L 1229.00 1144.00 L 1252.00 1188.00 L 1272.00 1232.00 L 1296.00 1308.00 L 1324.00 1416.00 L 1333.00 1473.00 L 1323.00 1479.00 L 1293.00 1485.00 L 1243.00 1491.00 L 1188.00 1502.00 L 1128.00 1518.00 L 1054.00 1548.00 L 966.00 1592.00 L 899.00 1630.00 L 853.00 1662.00 L 781.00 1725.00 L 683.00 1819.00 L 621.00 1873.00 L 595.00 1887.00 L 568.00 1893.00 L 540.00 1891.00 L 523.00 1892.00 L 517.00 1896.00 L 506.00 1898.00 L 490.00 1898.00 L 474.00 1894.00 L 458.00 1886.00 L 444.00 1877.00 L 432.00 1867.00 L 421.00 1851.00 L 411.00 1829.00 L 404.00 1798.00 L 400.00 1758.00 L 402.00 1720.00 L 410.00 1684.00 L 429.00 1631.00 L 459.00 1561.00 L 472.00 1529.00 L 468.00 1535.00 L 491.00 1495.00 L 541.00 1409.00 L 564.00 1368.00 L 560.00 1372.00 L 562.00 1364.00 L 570.00 1344.00 L 565.00 1334.00 L 547.00 1334.00 L 546.00 1323.00 L 562.00 1301.00 L 563.00 1298.00 L 549.00 1314.00 L 552.00 1303.00 L 572.00 1265.00 L 581.00 1247.00 L 579.00 1249.00 L 589.00 1238.00 L 611.00 1214.00 L 613.00 1210.00 L 595.00 1226.00 L 592.00 1225.00 L 604.00 1207.00 L 608.00 1197.00 L 604.00 1195.00 L 615.00 1182.00 L 641.00 1158.00 L 652.00 1145.00 L 648.00 1143.00 L 633.00 1152.00 L 607.00 1172.00 L 593.00 1180.00 L 591.00 1176.00 L 601.00 1164.00 L 623.00 1144.00 L 624.00 1141.00 L 604.00 1155.00 L 606.00 1153.00 L 630.00 1135.00 L 630.00 1132.00 L 606.00 1144.00 L 605.00 1141.00 L 627.00 1123.00 L 628.00 1120.00 L 608.00 1132.00 L 607.00 1129.00 L 625.00 1111.00 L 629.00 1097.00 L 619.00 1087.00 L 612.00 1075.00 L 608.00 1061.00 L 612.00 1049.00 L 624.00 1039.00 L 620.00 1030.00 L 600.00 1022.00 L 581.00 1011.00 L 563.00 997.00 L 552.00 988.00 L 548.00 984.00 L 539.00 967.00 Z" fill="black" stroke="black" stroke-width="1"/>
</svg>