<?xml version="1.0" encoding="UTF-8"?>
<svg xmlns="http://www.w3.org/2000/svg" viewBox="408.00 169.00 915.00 1614.00">
  <path d="M 569.00 979.00 L 567.00 973.00 L 568.00 967.00 L 572.00 961.00 L 581.00 955.00 L 595.00 949.00 L 589.00 941.00 L 563.00 931.00 L 544.00 921.00 L 532.00 911.00 L 524.00 900.00 L 520.00 888.00 L 521.00 872.00 L 527.00 852.00 L 527.00 830.00 L 521.00 806.00 L 520.00 788.00 L 524.00 776.00 L 523.00 765.00 L 517.00 755.00 L 518.00 736.00 L 526.00 708.00 L 519.00 683.00 L 497.00 661.00 L 493.00 656.00 L 507.00 668.00 L 506.00 665.00 L 490.00 647.00 L 493.00 648.00 L 515.00 668.00 L 515.00 666.00 L 493.00 642.00 L 496.00 644.00 L 524.00 672.00 L 526.00 669.00 L 502.00 635.00 L 493.00 613.00 L 499.00 603.00 L 519.00 582.00 L 553.00 550.00 L 573.00 514.00 L 579.00 474.00 L 576.00 436.00 L 564.00 400.00 L 565.00 397.00 L 579.00 427.00 L 580.00 425.00 L 568.00 391.00 L 570.00 388.00 L 586.00 416.00 L 588.00 414.00 L 576.00 382.00 L 571.00 365.00 L 573.00 363.00 L 580.00 376.00 L 592.00 404.00 L 593.00 402.00 L 583.00 370.00 L 584.00 368.00 L 596.00 396.00 L 597.00 394.00 L 587.00 362.00 L 588.00 359.00 L 600.00 385.00 L 602.00 382.00 L 594.00 350.00 L 595.00 347.00 L 605.00 373.00 L 606.00 372.00 L 598.00 344.00 L 599.00 342.00 L 609.00 366.00 L 615.00 376.00 L 617.00 372.00 L 614.00 358.00 L 606.00 334.00 L 607.00 331.00 L 617.00 349.00 L 620.00 348.00 L 616.00 328.00 L 616.00 323.00 L 620.00 333.00 L 621.00 332.00 L 619.00 320.00 L 621.00 322.00 L 627.00 338.00 L 630.00 337.00 L 630.00 319.00 L 632.00 315.00 L 636.00 325.00 L 638.00 324.00 L 638.00 312.00 L 648.00 301.00 L 668.00 291.00 L 693.00 273.00 L 723.00 247.00 L 777.00 220.00 L 855.00 192.00 L 924.00 179.00 L 984.00 181.00 L 1044.00 197.00 L 1104.00 227.00 L 1145.00 254.00 L 1167.00 278.00 L 1190.00 308.00 L 1214.00 344.00 L 1231.00 380.00 L 1241.00 416.00 L 1248.00 458.00 L 1252.00 506.00 L 1252.00 549.00 L 1248.00 587.00 L 1242.00 621.00 L 1234.00 651.00 L 1220.00 687.00 L 1200.00 729.00 L 1178.00 765.00 L 1154.00 795.00 L 1139.00 821.00 L 1133.00 843.00 L 1138.00 861.00 L 1154.00 875.00 L 1166.00 891.00 L 1174.00 909.00 L 1186.00 952.00 L 1202.00 1020.00 L 1208.00 1066.00 L 1204.00 1090.00 L 1204.00 1113.00 L 1208.00 1135.00 L 1214.00 1152.00 L 1222.00 1164.00 L 1234.00 1194.00 L 1250.00 1242.00 L 1269.00 1306.00 L 1291.00 1386.00 L 1305.00 1450.00 L 1311.00 1498.00 L 1313.00 1521.00 L 1311.00 1519.00 L 1309.00 1521.00 L 1307.00 1527.00 L 1290.00 1529.00 L 1258.00 1527.00 L 1213.00 1529.00 L 1155.00 1535.00 L 1079.00 1548.00 L 985.00 1568.00 L 898.00 1594.00 L 818.00 1626.00 L 723.00 1674.00 L 613.00 1738.00 L 547.00 1771.00 L 525.00 1773.00 L 500.00 1769.00 L 472.00 1759.00 L 452.00 1748.00 L 440.00 1736.00 L 430.00 1717.00 L 422.00 1691.00 L 418.00 1661.00 L 418.00 1627.00 L 421.00 1591.00 L 427.00 1553.00 L 440.00 1501.00 L 460.00 1435.00 L 484.00 1373.00 L 512.00 1315.00 L 533.00 1265.00 L 547.00 1223.00 L 570.00 1179.00 L 602.00 1133.00 L 598.00 1121.00 L 558.00 1143.00 L 547.00 1148.00 L 565.00 1136.00 L 562.00 1136.00 L 538.00 1148.00 L 540.00 1146.00 L 568.00 1130.00 L 565.00 1131.00 L 531.00 1149.00 L 539.00 1144.00 L 589.00 1116.00 L 586.00 1115.00 L 530.00 1141.00 L 529.00 1140.00 L 583.00 1112.00 L 580.00 1111.00 L 520.00 1137.00 L 500.00 1143.00 L 520.00 1129.00 L 518.00 1127.00 L 494.00 1137.00 L 513.00 1127.00 L 575.00 1097.00 L 575.00 1095.00 L 513.00 1121.00 L 510.00 1121.00 L 566.00 1095.00 L 585.00 1085.00 L 567.00 1091.00 L 564.00 1090.00 L 576.00 1082.00 L 579.00 1077.00 L 573.00 1075.00 L 581.00 1068.00 L 603.00 1056.00 L 600.00 1054.00 L 572.00 1062.00 L 570.00 1061.00 L 594.00 1051.00 L 593.00 1048.00 L 567.00 1052.00 L 567.00 1050.00 L 593.00 1042.00 L 596.00 1038.00 L 576.00 1038.00 L 573.00 1034.00 L 587.00 1026.00 L 593.00 1016.00 L 591.00 1004.00 L 587.00 996.00 L 581.00 992.00 L 576.00 988.00 L 572.00 984.00 L 569.00 979.00 Z" fill="black" stroke="black" stroke-width="1"/>
</svg>