<?xml version="1.0" encoding="UTF-8"?>
<svg xmlns="http://www.w3.org/2000/svg" viewBox="313.00 175.00 982.00 1663.00">
  <path d="M 487.00 1025.00 L 497.00 1019.00 L 488.00 1012.00 L 460.00 1004.00 L 437.00 989.00 L 419.00 967.00 L 416.00 937.00 L 428.00 899.00 L 432.00 863.00 L 428.00 829.00 L 429.00 808.00 L 435.00 800.00 L 437.00 790.00 L 435.00 778.00 L 436.00 766.00 L 440.00 754.00 L 430.00 735.00 L 406.00 709.00 L 406.00 705.00 L 430.00 723.00 L 428.00 720.00 L 400.00 696.00 L 399.00 694.00 L 425.00 714.00 L 425.00 710.00 L 399.00 682.00 L 391.00 659.00 L 401.00 641.00 L 423.00 612.00 L 457.00 572.00 L 475.00 533.00 L 477.00 495.00 L 483.00 462.00 L 493.00 434.00 L 496.00 412.00 L 492.00 396.00 L 494.00 393.00 L 502.00 403.00 L 504.00 399.00 L 500.00 381.00 L 502.00 378.00 L 510.00 390.00 L 512.00 388.00 L 508.00 372.00 L 509.00 370.00 L 515.00 382.00 L 517.00 380.00 L 515.00 364.00 L 520.00 349.00 L 532.00 335.00 L 545.00 321.00 L 559.00 307.00 L 594.00 282.00 L 650.00 246.00 L 709.00 218.00 L 771.00 198.00 L 822.00 187.00 L 862.00 185.00 L 894.00 186.00 L 918.00 190.00 L 953.00 200.00 L 999.00 216.00 L 1035.00 232.00 L 1061.00 248.00 L 1096.00 279.00 L 1140.00 325.00 L 1169.00 364.00 L 1183.00 396.00 L 1193.00 425.00 L 1199.00 451.00 L 1203.00 498.00 L 1205.00 566.00 L 1199.00 640.00 L 1185.00 720.00 L 1178.00 780.00 L 1178.00 820.00 L 1188.00 871.00 L 1208.00 933.00 L 1219.00 978.00 L 1221.00 1006.00 L 1234.00 1021.00 L 1258.00 1023.00 L 1259.00 1026.00 L 1237.00 1030.00 L 1240.00 1032.00 L 1268.00 1032.00 L 1283.00 1034.00 L 1285.00 1038.00 L 1285.00 1047.00 L 1283.00 1061.00 L 1273.00 1068.00 L 1255.00 1068.00 L 1253.00 1070.00 L 1267.00 1074.00 L 1266.00 1076.00 L 1250.00 1076.00 L 1245.00 1078.00 L 1251.00 1082.00 L 1256.00 1091.00 L 1260.00 1105.00 L 1250.00 1110.00 L 1226.00 1106.00 L 1226.00 1108.00 L 1250.00 1116.00 L 1250.00 1118.00 L 1226.00 1114.00 L 1214.00 1114.00 L 1214.00 1118.00 L 1225.00 1123.00 L 1247.00 1129.00 L 1246.00 1130.00 L 1222.00 1126.00 L 1222.00 1129.00 L 1246.00 1139.00 L 1246.00 1142.00 L 1222.00 1138.00 L 1222.00 1140.00 L 1246.00 1148.00 L 1249.00 1151.00 L 1231.00 1149.00 L 1233.00 1151.00 L 1255.00 1157.00 L 1253.00 1157.00 L 1227.00 1151.00 L 1216.00 1150.00 L 1220.00 1154.00 L 1234.00 1160.00 L 1258.00 1168.00 L 1258.00 1170.00 L 1234.00 1166.00 L 1236.00 1169.00 L 1264.00 1179.00 L 1265.00 1180.00 L 1239.00 1172.00 L 1240.00 1174.00 L 1268.00 1186.00 L 1267.00 1188.00 L 1237.00 1180.00 L 1237.00 1183.00 L 1267.00 1197.00 L 1270.00 1201.00 L 1246.00 1195.00 L 1234.00 1194.00 L 1234.00 1198.00 L 1244.00 1204.00 L 1264.00 1212.00 L 1264.00 1214.00 L 1244.00 1210.00 L 1236.00 1211.00 L 1240.00 1217.00 L 1240.00 1222.00 L 1236.00 1226.00 L 1242.00 1260.00 L 1258.00 1324.00 L 1266.00 1363.00 L 1266.00 1377.00 L 1263.00 1387.00 L 1257.00 1393.00 L 1258.00 1418.00 L 1266.00 1462.00 L 1268.00 1487.00 L 1264.00 1493.00 L 1248.00 1495.00 L 1220.00 1493.00 L 1171.00 1497.00 L 1101.00 1507.00 L 1006.00 1531.00 L 886.00 1569.00 L 782.00 1611.00 L 694.00 1657.00 L 625.00 1702.00 L 575.00 1746.00 L 532.00 1780.00 L 496.00 1804.00 L 471.00 1819.00 L 457.00 1825.00 L 440.00 1828.00 L 420.00 1828.00 L 402.00 1825.00 L 386.00 1819.00 L 373.00 1812.00 L 363.00 1804.00 L 350.00 1785.00 L 334.00 1755.00 L 325.00 1713.00 L 323.00 1659.00 L 326.00 1613.00 L 334.00 1575.00 L 349.00 1527.00 L 371.00 1469.00 L 412.00 1389.00 L 472.00 1287.00 L 493.00 1240.00 L 475.00 1248.00 L 473.00 1247.00 L 487.00 1237.00 L 485.00 1238.00 L 467.00 1250.00 L 471.00 1247.00 L 497.00 1229.00 L 494.00 1229.00 L 462.00 1247.00 L 464.00 1243.00 L 500.00 1217.00 L 497.00 1217.00 L 455.00 1243.00 L 431.00 1255.00 L 425.00 1253.00 L 431.00 1244.00 L 449.00 1228.00 L 447.00 1225.00 L 425.00 1235.00 L 439.00 1224.00 L 489.00 1192.00 L 504.00 1181.00 L 484.00 1191.00 L 481.00 1190.00 L 495.00 1178.00 L 497.00 1170.00 L 487.00 1166.00 L 494.00 1157.00 L 518.00 1143.00 L 516.00 1140.00 L 488.00 1148.00 L 487.00 1146.00 L 513.00 1134.00 L 514.00 1131.00 L 490.00 1137.00 L 490.00 1135.00 L 514.00 1125.00 L 517.00 1122.00 L 499.00 1126.00 L 499.00 1123.00 L 517.00 1113.00 L 516.00 1091.00 L 496.00 1057.00 L 485.00 1037.00 L 483.00 1031.00 L 487.00 1025.00 Z" fill="black" stroke="black" stroke-width="1"/>
</svg>