<?xml version="1.0" encoding="UTF-8"?>
<svg xmlns="http://www.w3.org/2000/svg" viewBox="278.00 134.00 1037.00 1744.00">
  <path d="M 479.00 995.00 L 473.00 981.00 L 459.00 970.00 L 437.00 962.00 L 422.00 954.00 L 414.00 946.00 L 410.00 936.00 L 410.00 924.00 L 428.00 892.00 L 464.00 840.00 L 431.00 779.00 L 329.00 709.00 L 288.00 678.00 L 308.00 686.00 L 310.00 684.00 L 294.00 672.00 L 297.00 672.00 L 319.00 684.00 L 369.00 718.00 L 447.00 774.00 L 438.00 766.00 L 342.00 694.00 L 341.00 691.00 L 435.00 757.00 L 437.00 755.00 L 347.00 685.00 L 347.00 684.00 L 437.00 752.00 L 456.00 763.00 L 404.00 717.00 L 403.00 714.00 L 453.00 754.00 L 437.00 741.00 L 355.00 675.00 L 353.00 672.00 L 431.00 732.00 L 434.00 731.00 L 362.00 669.00 L 361.00 666.00 L 431.00 722.00 L 434.00 720.00 L 370.00 660.00 L 371.00 657.00 L 437.00 711.00 L 439.00 710.00 L 377.00 654.00 L 368.00 643.00 L 412.00 677.00 L 415.00 676.00 L 377.00 640.00 L 387.00 648.00 L 445.00 700.00 L 448.00 699.00 L 396.00 645.00 L 397.00 642.00 L 451.00 690.00 L 454.00 689.00 L 406.00 639.00 L 404.00 634.00 L 448.00 674.00 L 451.00 673.00 L 413.00 631.00 L 416.00 633.00 L 460.00 679.00 L 464.00 678.00 L 428.00 630.00 L 434.00 603.00 L 482.00 597.00 L 509.00 592.00 L 515.00 588.00 L 521.00 575.00 L 527.00 553.00 L 553.00 489.00 L 599.00 383.00 L 638.00 298.00 L 670.00 234.00 L 696.00 190.00 L 716.00 166.00 L 732.00 151.00 L 744.00 145.00 L 759.00 144.00 L 777.00 148.00 L 893.00 200.00 L 1107.00 300.00 L 1236.00 363.00 L 1280.00 389.00 L 1303.00 404.00 L 1305.00 408.00 L 1303.00 419.00 L 1297.00 437.00 L 1273.00 487.00 L 1231.00 569.00 L 1182.00 674.00 L 1126.00 802.00 L 1109.00 881.00 L 1131.00 911.00 L 1152.00 947.00 L 1172.00 989.00 L 1151.00 1011.00 L 1089.00 1013.00 L 1090.00 1016.00 L 1154.00 1020.00 L 1155.00 1022.00 L 1093.00 1022.00 L 1094.00 1024.00 L 1158.00 1028.00 L 1164.00 1030.00 L 1112.00 1030.00 L 1113.00 1032.00 L 1167.00 1036.00 L 1163.00 1037.00 L 1101.00 1035.00 L 1101.00 1037.00 L 1163.00 1043.00 L 1164.00 1045.00 L 1104.00 1043.00 L 1105.00 1046.00 L 1167.00 1054.00 L 1178.00 1057.00 L 1138.00 1055.00 L 1138.00 1058.00 L 1178.00 1066.00 L 1168.00 1066.00 L 1108.00 1058.00 L 1109.00 1061.00 L 1171.00 1075.00 L 1171.00 1078.00 L 1109.00 1070.00 L 1108.00 1074.00 L 1168.00 1090.00 L 1168.00 1092.00 L 1108.00 1080.00 L 1105.00 1082.00 L 1159.00 1098.00 L 1158.00 1101.00 L 1102.00 1091.00 L 1075.00 1109.00 L 1077.00 1155.00 L 1074.00 1192.00 L 1066.00 1220.00 L 1065.00 1251.00 L 1071.00 1285.00 L 1082.00 1323.00 L 1098.00 1365.00 L 1113.00 1415.00 L 1127.00 1473.00 L 1135.00 1528.00 L 1137.00 1580.00 L 1136.00 1610.00 L 1132.00 1618.00 L 1117.00 1621.00 L 1091.00 1619.00 L 1035.00 1625.00 L 949.00 1639.00 L 880.00 1655.00 L 828.00 1673.00 L 777.00 1694.00 L 727.00 1718.00 L 648.00 1763.00 L 540.00 1829.00 L 472.00 1864.00 L 444.00 1868.00 L 419.00 1866.00 L 397.00 1858.00 L 379.00 1847.00 L 365.00 1833.00 L 353.00 1814.00 L 343.00 1790.00 L 336.00 1766.00 L 332.00 1742.00 L 331.00 1717.00 L 333.00 1691.00 L 345.00 1651.00 L 367.00 1597.00 L 377.00 1571.00 L 375.00 1573.00 L 400.00 1536.00 L 452.00 1460.00 L 458.00 1449.00 L 418.00 1503.00 L 424.00 1493.00 L 476.00 1419.00 L 482.00 1410.00 L 442.00 1466.00 L 441.00 1467.00 L 479.00 1413.00 L 480.00 1411.00 L 444.00 1461.00 L 443.00 1462.00 L 477.00 1414.00 L 484.00 1393.00 L 464.00 1399.00 L 478.00 1372.00 L 526.00 1312.00 L 523.00 1313.00 L 469.00 1375.00 L 469.00 1372.00 L 523.00 1304.00 L 521.00 1304.00 L 463.00 1372.00 L 463.00 1369.00 L 521.00 1295.00 L 518.00 1294.00 L 454.00 1366.00 L 450.00 1369.00 L 506.00 1303.00 L 504.00 1303.00 L 444.00 1369.00 L 448.00 1363.00 L 516.00 1285.00 L 514.00 1283.00 L 442.00 1357.00 L 443.00 1353.00 L 517.00 1271.00 L 539.00 1245.00 L 509.00 1275.00 L 513.00 1265.00 L 551.00 1215.00 L 564.00 1194.00 L 552.00 1202.00 L 549.00 1203.00 L 555.00 1197.00 L 550.00 1190.00 L 534.00 1182.00 L 524.00 1175.00 L 520.00 1169.00 L 517.00 1154.00 L 515.00 1130.00 L 516.00 1112.00 L 520.00 1100.00 L 516.00 1088.00 L 504.00 1076.00 L 499.00 1064.00 L 501.00 1052.00 L 496.00 1041.00 L 484.00 1031.00 L 479.00 1023.00 L 481.00 1017.00 L 482.00 1011.00 L 482.00 1005.00 L 479.00 995.00 Z" fill="black" stroke="black" stroke-width="1"/>
</svg>