<?xml version="1.0" encoding="UTF-8"?>
<svg xmlns="http://www.w3.org/2000/svg" viewBox="358.00 241.00 812.00 1636.00">
  <path d="M 444.00 1037.00 L 440.00 1027.00 L 440.00 1013.00 L 444.00 995.00 L 438.00 974.00 L 422.00 950.00 L 417.00 935.00 L 423.00 929.00 L 423.00 922.00 L 417.00 914.00 L 416.00 900.00 L 420.00 880.00 L 409.00 860.00 L 383.00 840.00 L 383.00 838.00 L 409.00 854.00 L 411.00 855.00 L 389.00 841.00 L 385.00 838.00 L 399.00 846.00 L 395.00 842.00 L 373.00 826.00 L 376.00 827.00 L 404.00 845.00 L 403.00 841.00 L 373.00 815.00 L 368.00 785.00 L 388.00 751.00 L 412.00 716.00 L 440.00 680.00 L 450.00 652.00 L 442.00 632.00 L 440.00 616.00 L 444.00 604.00 L 443.00 590.00 L 437.00 574.00 L 438.00 572.00 L 446.00 584.00 L 447.00 582.00 L 441.00 566.00 L 442.00 563.00 L 450.00 573.00 L 451.00 570.00 L 445.00 554.00 L 444.00 549.00 L 448.00 555.00 L 448.00 553.00 L 444.00 543.00 L 446.00 545.00 L 454.00 559.00 L 455.00 556.00 L 449.00 536.00 L 450.00 533.00 L 458.00 547.00 L 458.00 542.00 L 450.00 518.00 L 451.00 515.00 L 461.00 533.00 L 461.00 530.00 L 451.00 506.00 L 452.00 503.00 L 464.00 521.00 L 465.00 518.00 L 455.00 494.00 L 454.00 490.00 L 462.00 506.00 L 463.00 504.00 L 457.00 484.00 L 459.00 484.00 L 469.00 504.00 L 470.00 502.00 L 462.00 478.00 L 463.00 476.00 L 473.00 496.00 L 474.00 494.00 L 466.00 470.00 L 467.00 467.00 L 477.00 485.00 L 479.00 483.00 L 473.00 461.00 L 474.00 459.00 L 482.00 477.00 L 483.00 475.00 L 477.00 453.00 L 480.00 431.00 L 492.00 409.00 L 531.00 371.00 L 597.00 317.00 L 662.00 280.00 L 726.00 260.00 L 782.00 251.00 L 830.00 253.00 L 877.00 260.00 L 923.00 272.00 L 962.00 285.00 L 994.00 299.00 L 1021.00 314.00 L 1043.00 330.00 L 1065.00 350.00 L 1087.00 374.00 L 1107.00 402.00 L 1125.00 434.00 L 1139.00 469.00 L 1149.00 507.00 L 1155.00 543.00 L 1157.00 577.00 L 1157.00 605.00 L 1155.00 627.00 L 1145.00 667.00 L 1127.00 725.00 L 1103.00 783.00 L 1073.00 841.00 L 1048.00 884.00 L 1028.00 912.00 L 1023.00 940.00 L 1033.00 968.00 L 1039.00 1000.00 L 1041.00 1036.00 L 1042.00 1067.00 L 1042.00 1093.00 L 1039.00 1117.00 L 1033.00 1139.00 L 1034.00 1161.00 L 1042.00 1183.00 L 1060.00 1215.00 L 1088.00 1257.00 L 1109.00 1297.00 L 1123.00 1335.00 L 1135.00 1372.00 L 1145.00 1408.00 L 1153.00 1450.00 L 1159.00 1498.00 L 1160.00 1524.00 L 1156.00 1528.00 L 1117.00 1536.00 L 1043.00 1548.00 L 974.00 1566.00 L 910.00 1590.00 L 811.00 1642.00 L 677.00 1722.00 L 603.00 1770.00 L 589.00 1786.00 L 562.00 1810.00 L 522.00 1842.00 L 493.00 1861.00 L 475.00 1867.00 L 454.00 1867.00 L 430.00 1861.00 L 410.00 1851.00 L 394.00 1837.00 L 382.00 1820.00 L 374.00 1800.00 L 370.00 1770.00 L 370.00 1730.00 L 373.00 1697.00 L 379.00 1671.00 L 389.00 1636.00 L 403.00 1592.00 L 409.00 1571.00 L 407.00 1573.00 L 432.00 1529.00 L 484.00 1439.00 L 487.00 1433.00 L 441.00 1511.00 L 439.00 1514.00 L 481.00 1442.00 L 483.00 1437.00 L 445.00 1499.00 L 461.00 1468.00 L 531.00 1344.00 L 553.00 1302.00 L 527.00 1342.00 L 525.00 1342.00 L 547.00 1302.00 L 545.00 1297.00 L 519.00 1327.00 L 514.00 1330.00 L 530.00 1306.00 L 528.00 1307.00 L 508.00 1333.00 L 489.00 1350.00 L 471.00 1358.00 L 457.00 1362.00 L 447.00 1362.00 L 461.00 1338.00 L 499.00 1290.00 L 496.00 1290.00 L 452.00 1338.00 L 450.00 1338.00 L 490.00 1290.00 L 486.00 1288.00 L 438.00 1332.00 L 445.00 1318.00 L 507.00 1246.00 L 524.00 1220.00 L 496.00 1240.00 L 495.00 1238.00 L 521.00 1214.00 L 521.00 1212.00 L 495.00 1232.00 L 492.00 1233.00 L 512.00 1215.00 L 513.00 1212.00 L 495.00 1224.00 L 497.00 1220.00 L 519.00 1200.00 L 522.00 1196.00 L 506.00 1208.00 L 506.00 1206.00 L 522.00 1190.00 L 520.00 1168.00 L 500.00 1140.00 L 491.00 1120.00 L 493.00 1108.00 L 498.00 1099.00 L 506.00 1093.00 L 500.00 1086.00 L 480.00 1078.00 L 464.00 1068.00 L 452.00 1056.00 L 446.00 1048.00 L 446.00 1044.00 L 444.00 1037.00 Z" fill="black" stroke="black" stroke-width="1"/>
</svg>