<?xml version="1.0" encoding="UTF-8"?>
<svg xmlns="http://www.w3.org/2000/svg" viewBox="481.00 212.00 933.00 1646.00">
  <path d="M 600.00 1015.00 L 572.00 993.00 L 556.00 971.00 L 552.00 949.00 L 553.00 929.00 L 559.00 911.00 L 554.00 888.00 L 538.00 860.00 L 535.00 840.00 L 545.00 828.00 L 547.00 818.00 L 541.00 810.00 L 539.00 801.00 L 541.00 791.00 L 530.00 773.00 L 506.00 747.00 L 507.00 744.00 L 533.00 764.00 L 529.00 759.00 L 495.00 729.00 L 495.00 727.00 L 529.00 753.00 L 529.00 751.00 L 495.00 721.00 L 494.00 718.00 L 526.00 742.00 L 526.00 739.00 L 494.00 709.00 L 497.00 663.00 L 535.00 601.00 L 561.00 535.00 L 575.00 465.00 L 585.00 435.00 L 591.00 445.00 L 591.00 443.00 L 585.00 429.00 L 584.00 423.00 L 588.00 425.00 L 589.00 423.00 L 587.00 417.00 L 590.00 420.00 L 598.00 432.00 L 600.00 429.00 L 596.00 411.00 L 599.00 406.00 L 609.00 414.00 L 612.00 411.00 L 608.00 397.00 L 608.00 392.00 L 612.00 396.00 L 613.00 394.00 L 611.00 386.00 L 613.00 388.00 L 619.00 400.00 L 620.00 399.00 L 616.00 385.00 L 617.00 382.00 L 623.00 390.00 L 627.00 384.00 L 629.00 364.00 L 632.00 359.00 L 636.00 369.00 L 639.00 366.00 L 641.00 350.00 L 644.00 346.00 L 648.00 354.00 L 650.00 352.00 L 650.00 340.00 L 652.00 337.00 L 656.00 343.00 L 658.00 341.00 L 658.00 331.00 L 677.00 310.00 L 715.00 278.00 L 769.00 251.00 L 839.00 229.00 L 926.00 222.00 L 1030.00 230.00 L 1115.00 251.00 L 1181.00 285.00 L 1231.00 322.00 L 1265.00 362.00 L 1291.00 407.00 L 1309.00 457.00 L 1317.00 513.00 L 1315.00 575.00 L 1294.00 670.00 L 1254.00 798.00 L 1240.00 877.00 L 1252.00 907.00 L 1263.00 949.00 L 1273.00 1003.00 L 1277.00 1049.00 L 1275.00 1087.00 L 1280.00 1124.00 L 1292.00 1160.00 L 1313.00 1200.00 L 1343.00 1244.00 L 1355.00 1266.00 L 1349.00 1266.00 L 1353.00 1273.00 L 1367.00 1287.00 L 1363.00 1290.00 L 1341.00 1282.00 L 1343.00 1287.00 L 1369.00 1305.00 L 1369.00 1307.00 L 1343.00 1293.00 L 1343.00 1294.00 L 1369.00 1310.00 L 1367.00 1311.00 L 1337.00 1297.00 L 1338.00 1300.00 L 1370.00 1320.00 L 1392.00 1350.00 L 1404.00 1390.00 L 1358.00 1421.00 L 1254.00 1443.00 L 1160.00 1471.00 L 1076.00 1505.00 L 984.00 1553.00 L 884.00 1615.00 L 790.00 1688.00 L 702.00 1772.00 L 641.00 1823.00 L 607.00 1841.00 L 577.00 1848.00 L 551.00 1844.00 L 529.00 1833.00 L 511.00 1815.00 L 499.00 1797.00 L 493.00 1779.00 L 491.00 1743.00 L 493.00 1689.00 L 507.00 1619.00 L 533.00 1533.00 L 568.00 1449.00 L 612.00 1367.00 L 633.00 1315.00 L 631.00 1293.00 L 615.00 1297.00 L 585.00 1327.00 L 585.00 1326.00 L 615.00 1294.00 L 608.00 1298.00 L 564.00 1338.00 L 566.00 1334.00 L 614.00 1286.00 L 612.00 1286.00 L 560.00 1334.00 L 560.00 1332.00 L 612.00 1280.00 L 609.00 1281.00 L 551.00 1335.00 L 552.00 1332.00 L 612.00 1272.00 L 610.00 1270.00 L 546.00 1326.00 L 523.00 1345.00 L 541.00 1327.00 L 554.00 1308.00 L 562.00 1288.00 L 584.00 1263.00 L 620.00 1233.00 L 622.00 1229.00 L 590.00 1251.00 L 588.00 1251.00 L 616.00 1229.00 L 618.00 1226.00 L 594.00 1242.00 L 590.00 1243.00 L 606.00 1229.00 L 609.00 1221.00 L 599.00 1219.00 L 607.00 1207.00 L 633.00 1185.00 L 631.00 1183.00 L 601.00 1201.00 L 598.00 1201.00 L 622.00 1183.00 L 621.00 1180.00 L 595.00 1192.00 L 597.00 1189.00 L 627.00 1171.00 L 629.00 1167.00 L 603.00 1177.00 L 602.00 1174.00 L 626.00 1158.00 L 628.00 1154.00 L 608.00 1162.00 L 607.00 1159.00 L 625.00 1145.00 L 628.00 1124.00 L 616.00 1096.00 L 622.00 1076.00 L 646.00 1064.00 L 650.00 1053.00 L 634.00 1043.00 L 623.00 1035.00 L 617.00 1029.00 L 600.00 1015.00 Z" fill="black" stroke="black" stroke-width="1"/>
</svg>