<?xml version="1.0" encoding="UTF-8"?>
<svg xmlns="http://www.w3.org/2000/svg" viewBox="354.00 150.00 1000.00 1715.00">
  <path d="M 508.00 922.00 L 488.00 878.00 L 480.00 843.00 L 484.00 817.00 L 476.00 797.00 L 456.00 783.00 L 455.00 780.00 L 473.00 788.00 L 467.00 779.00 L 437.00 753.00 L 441.00 718.00 L 479.00 674.00 L 479.00 633.00 L 441.00 595.00 L 425.00 576.00 L 431.00 576.00 L 431.00 571.00 L 425.00 561.00 L 443.00 577.00 L 485.00 619.00 L 486.00 615.00 L 446.00 565.00 L 448.00 560.00 L 492.00 600.00 L 494.00 597.00 L 454.00 551.00 L 455.00 548.00 L 497.00 588.00 L 499.00 586.00 L 461.00 542.00 L 460.00 538.00 L 496.00 574.00 L 499.00 570.00 L 469.00 526.00 L 468.00 520.00 L 496.00 552.00 L 497.00 549.00 L 471.00 511.00 L 471.00 506.00 L 497.00 534.00 L 498.00 532.00 L 474.00 500.00 L 474.00 498.00 L 498.00 526.00 L 499.00 523.00 L 477.00 489.00 L 477.00 486.00 L 499.00 514.00 L 500.00 512.00 L 480.00 480.00 L 480.00 477.00 L 500.00 503.00 L 503.00 500.00 L 489.00 468.00 L 489.00 462.00 L 503.00 482.00 L 505.00 480.00 L 495.00 456.00 L 496.00 452.00 L 508.00 468.00 L 510.00 467.00 L 502.00 449.00 L 503.00 446.00 L 513.00 458.00 L 517.00 452.00 L 515.00 428.00 L 518.00 421.00 L 526.00 431.00 L 528.00 428.00 L 524.00 412.00 L 537.00 386.00 L 567.00 350.00 L 614.00 316.00 L 678.00 284.00 L 712.00 260.00 L 716.00 244.00 L 719.00 243.00 L 721.00 257.00 L 721.00 252.00 L 719.00 228.00 L 722.00 227.00 L 730.00 249.00 L 736.00 243.00 L 740.00 209.00 L 754.00 187.00 L 778.00 177.00 L 808.00 172.00 L 844.00 172.00 L 874.00 179.00 L 898.00 193.00 L 919.00 187.00 L 937.00 161.00 L 964.00 160.00 L 1000.00 184.00 L 1033.00 193.00 L 1063.00 187.00 L 1091.00 188.00 L 1117.00 196.00 L 1152.00 216.00 L 1196.00 248.00 L 1248.00 325.00 L 1308.00 447.00 L 1340.00 543.00 L 1344.00 613.00 L 1339.00 671.00 L 1325.00 717.00 L 1284.00 764.00 L 1216.00 812.00 L 1165.00 858.00 L 1131.00 902.00 L 1113.00 937.00 L 1111.00 963.00 L 1161.00 1100.00 L 1263.00 1348.00 L 1286.00 1476.00 L 1230.00 1484.00 L 1140.00 1510.00 L 1016.00 1554.00 L 902.00 1603.00 L 798.00 1657.00 L 677.00 1730.00 L 539.00 1822.00 L 454.00 1855.00 L 422.00 1829.00 L 481.00 1654.00 L 631.00 1330.00 L 628.00 1327.00 L 472.00 1645.00 L 473.00 1642.00 L 631.00 1318.00 L 629.00 1315.00 L 467.00 1633.00 L 463.00 1638.00 L 617.00 1330.00 L 615.00 1327.00 L 457.00 1629.00 L 460.00 1622.00 L 624.00 1306.00 L 622.00 1304.00 L 454.00 1616.00 L 368.00 1769.00 L 364.00 1763.00 L 442.00 1616.00 L 602.00 1328.00 L 601.00 1326.00 L 439.00 1610.00 L 437.00 1611.00 L 595.00 1329.00 L 592.00 1324.00 L 428.00 1596.00 L 434.00 1584.00 L 610.00 1288.00 L 609.00 1286.00 L 431.00 1578.00 L 420.00 1595.00 L 576.00 1337.00 L 575.00 1334.00 L 417.00 1586.00 L 415.00 1588.00 L 569.00 1340.00 L 568.00 1337.00 L 412.00 1579.00 L 407.00 1583.00 L 553.00 1349.00 L 552.00 1344.00 L 404.00 1568.00 L 399.00 1573.00 L 537.00 1359.00 L 536.00 1353.00 L 396.00 1555.00 L 416.00 1525.00 L 596.00 1263.00 L 596.00 1261.00 L 416.00 1519.00 L 388.00 1558.00 L 512.00 1378.00 L 512.00 1375.00 L 388.00 1549.00 L 386.00 1551.00 L 506.00 1381.00 L 506.00 1377.00 L 386.00 1539.00 L 373.00 1555.00 L 467.00 1425.00 L 467.00 1423.00 L 373.00 1549.00 L 368.00 1554.00 L 452.00 1438.00 L 453.00 1435.00 L 371.00 1545.00 L 369.00 1546.00 L 447.00 1438.00 L 447.00 1436.00 L 369.00 1540.00 L 366.00 1543.00 L 438.00 1445.00 L 439.00 1440.00 L 369.00 1528.00 L 366.00 1530.00 L 430.00 1446.00 L 431.00 1443.00 L 369.00 1521.00 L 422.00 1452.00 L 590.00 1236.00 L 592.00 1233.00 L 428.00 1443.00 L 426.00 1442.00 L 586.00 1230.00 L 643.00 1105.00 L 597.00 1067.00 L 557.00 1041.00 L 523.00 1027.00 L 506.00 1004.00 L 506.00 972.00 L 509.00 953.00 L 515.00 947.00 L 508.00 922.00 Z" fill="black" stroke="black" stroke-width="1"/>
</svg>