<?xml version="1.0" encoding="UTF-8"?>
<svg xmlns="http://www.w3.org/2000/svg" viewBox="435.00 355.00 776.00 1397.00">
  <path d="M 518.00 1053.00 L 510.00 1027.00 L 501.00 1010.00 L 491.00 1002.00 L 487.00 991.00 L 489.00 977.00 L 486.00 966.00 L 478.00 958.00 L 478.00 947.00 L 486.00 933.00 L 483.00 921.00 L 469.00 911.00 L 467.00 908.00 L 477.00 912.00 L 475.00 910.00 L 461.00 902.00 L 451.00 893.00 L 445.00 883.00 L 459.00 848.00 L 493.00 788.00 L 509.00 733.00 L 507.00 683.00 L 509.00 646.00 L 515.00 622.00 L 514.00 601.00 L 506.00 583.00 L 506.00 581.00 L 514.00 595.00 L 515.00 594.00 L 509.00 578.00 L 510.00 575.00 L 518.00 585.00 L 519.00 582.00 L 513.00 566.00 L 513.00 563.00 L 519.00 573.00 L 520.00 572.00 L 516.00 560.00 L 517.00 558.00 L 523.00 566.00 L 524.00 564.00 L 520.00 552.00 L 521.00 550.00 L 527.00 558.00 L 530.00 553.00 L 530.00 535.00 L 554.00 503.00 L 602.00 457.00 L 635.00 432.00 L 653.00 428.00 L 681.00 416.00 L 719.00 396.00 L 748.00 383.00 L 768.00 377.00 L 793.00 374.00 L 823.00 374.00 L 858.00 371.00 L 898.00 365.00 L 948.00 369.00 L 1008.00 383.00 L 1049.00 396.00 L 1071.00 408.00 L 1099.00 432.00 L 1133.00 468.00 L 1158.00 500.00 L 1174.00 528.00 L 1187.00 574.00 L 1197.00 638.00 L 1201.00 689.00 L 1199.00 727.00 L 1188.00 767.00 L 1168.00 809.00 L 1144.00 852.00 L 1116.00 896.00 L 1091.00 928.00 L 1069.00 948.00 L 1053.00 967.00 L 1043.00 985.00 L 1028.00 999.00 L 1008.00 1009.00 L 1005.00 1013.00 L 1019.00 1011.00 L 1019.00 1013.00 L 1005.00 1019.00 L 1003.00 1021.00 L 1013.00 1019.00 L 1013.00 1021.00 L 1003.00 1027.00 L 997.00 1034.00 L 995.00 1042.00 L 1000.00 1052.00 L 1012.00 1064.00 L 1023.00 1090.00 L 1033.00 1130.00 L 1039.00 1162.00 L 1041.00 1186.00 L 1039.00 1206.00 L 1033.00 1222.00 L 1034.00 1241.00 L 1042.00 1263.00 L 1046.00 1285.00 L 1046.00 1307.00 L 1054.00 1353.00 L 1070.00 1423.00 L 1081.00 1496.00 L 1087.00 1572.00 L 1088.00 1612.00 L 1084.00 1616.00 L 1063.00 1618.00 L 1025.00 1618.00 L 971.00 1624.00 L 901.00 1636.00 L 783.00 1667.00 L 617.00 1717.00 L 527.00 1742.00 L 513.00 1742.00 L 497.00 1738.00 L 479.00 1730.00 L 466.00 1719.00 L 458.00 1705.00 L 455.00 1686.00 L 457.00 1662.00 L 457.00 1651.00 L 455.00 1653.00 L 461.00 1633.00 L 475.00 1591.00 L 481.00 1571.00 L 479.00 1573.00 L 485.00 1562.00 L 499.00 1538.00 L 500.00 1536.00 L 488.00 1556.00 L 487.00 1555.00 L 497.00 1533.00 L 533.00 1471.00 L 595.00 1369.00 L 627.00 1316.00 L 629.00 1312.00 L 599.00 1360.00 L 537.00 1460.00 L 538.00 1458.00 L 602.00 1354.00 L 603.00 1352.00 L 541.00 1452.00 L 542.00 1450.00 L 606.00 1346.00 L 608.00 1342.00 L 548.00 1438.00 L 541.00 1449.00 L 587.00 1375.00 L 588.00 1373.00 L 544.00 1443.00 L 551.00 1428.00 L 609.00 1328.00 L 632.00 1283.00 L 620.00 1293.00 L 606.00 1300.00 L 590.00 1304.00 L 587.00 1299.00 L 597.00 1285.00 L 595.00 1286.00 L 581.00 1302.00 L 591.00 1289.00 L 625.00 1247.00 L 623.00 1245.00 L 585.00 1283.00 L 582.00 1284.00 L 614.00 1248.00 L 626.00 1234.00 L 618.00 1242.00 L 625.00 1230.00 L 647.00 1198.00 L 647.00 1191.00 L 625.00 1209.00 L 623.00 1208.00 L 641.00 1188.00 L 639.00 1187.00 L 617.00 1205.00 L 618.00 1203.00 L 642.00 1181.00 L 641.00 1179.00 L 615.00 1197.00 L 614.00 1196.00 L 638.00 1176.00 L 639.00 1173.00 L 617.00 1187.00 L 616.00 1185.00 L 636.00 1167.00 L 641.00 1161.00 L 631.00 1167.00 L 631.00 1164.00 L 641.00 1152.00 L 643.00 1141.00 L 637.00 1131.00 L 637.00 1121.00 L 643.00 1111.00 L 628.00 1108.00 L 592.00 1112.00 L 568.00 1112.00 L 556.00 1108.00 L 544.00 1099.00 L 532.00 1085.00 L 525.00 1075.00 L 523.00 1069.00 L 518.00 1053.00 Z" fill="black" stroke="black" stroke-width="1"/>
</svg>