<?xml version="1.0" encoding="UTF-8"?>
<svg xmlns="http://www.w3.org/2000/svg" viewBox="300.00 393.00 691.00 1286.00">
  <path d="M 341.00 1005.00 L 339.00 1003.00 L 339.00 995.00 L 341.00 981.00 L 339.00 970.00 L 333.00 962.00 L 333.00 945.00 L 339.00 919.00 L 334.00 900.00 L 318.00 888.00 L 310.00 879.00 L 310.00 873.00 L 316.00 862.00 L 328.00 846.00 L 338.00 830.00 L 346.00 814.00 L 351.00 801.00 L 353.00 791.00 L 352.00 774.00 L 348.00 750.00 L 346.00 723.00 L 346.00 693.00 L 348.00 670.00 L 352.00 654.00 L 353.00 643.00 L 351.00 637.00 L 351.00 635.00 L 353.00 637.00 L 355.00 637.00 L 357.00 635.00 L 356.00 631.00 L 352.00 625.00 L 352.00 624.00 L 356.00 628.00 L 356.00 625.00 L 352.00 615.00 L 353.00 614.00 L 359.00 622.00 L 360.00 619.00 L 356.00 605.00 L 357.00 602.00 L 363.00 610.00 L 364.00 608.00 L 360.00 596.00 L 361.00 593.00 L 367.00 599.00 L 368.00 597.00 L 364.00 587.00 L 365.00 585.00 L 371.00 591.00 L 374.00 593.00 L 374.00 591.00 L 372.00 586.00 L 368.00 578.00 L 369.00 577.00 L 375.00 583.00 L 376.00 582.00 L 372.00 574.00 L 377.00 560.00 L 391.00 540.00 L 409.00 519.00 L 431.00 497.00 L 463.00 473.00 L 505.00 447.00 L 537.00 431.00 L 559.00 425.00 L 575.00 422.00 L 585.00 422.00 L 601.00 418.00 L 623.00 410.00 L 647.00 405.00 L 673.00 403.00 L 700.00 404.00 L 728.00 408.00 L 765.00 419.00 L 811.00 437.00 L 842.00 451.00 L 858.00 461.00 L 875.00 474.00 L 893.00 490.00 L 914.00 516.00 L 938.00 552.00 L 954.00 579.00 L 962.00 597.00 L 970.00 626.00 L 978.00 666.00 L 981.00 708.00 L 979.00 752.00 L 973.00 791.00 L 963.00 825.00 L 950.00 854.00 L 934.00 878.00 L 918.00 896.00 L 902.00 908.00 L 895.00 914.00 L 897.00 914.00 L 885.00 921.00 L 859.00 935.00 L 842.00 946.00 L 834.00 954.00 L 824.00 960.00 L 812.00 964.00 L 811.00 965.00 L 821.00 963.00 L 819.00 965.00 L 805.00 971.00 L 794.00 991.00 L 786.00 1025.00 L 779.00 1049.00 L 773.00 1063.00 L 772.00 1075.00 L 776.00 1085.00 L 786.00 1095.00 L 802.00 1105.00 L 800.00 1105.00 L 780.00 1095.00 L 781.00 1096.00 L 803.00 1108.00 L 817.00 1119.00 L 823.00 1129.00 L 827.00 1139.00 L 829.00 1149.00 L 829.00 1159.00 L 827.00 1169.00 L 822.00 1177.00 L 814.00 1183.00 L 807.00 1185.00 L 801.00 1183.00 L 799.00 1183.00 L 801.00 1185.00 L 799.00 1186.00 L 793.00 1186.00 L 790.00 1189.00 L 790.00 1195.00 L 788.00 1196.00 L 784.00 1192.00 L 788.00 1204.00 L 800.00 1232.00 L 806.00 1252.00 L 806.00 1264.00 L 820.00 1313.00 L 848.00 1399.00 L 860.00 1440.00 L 856.00 1436.00 L 854.00 1438.00 L 854.00 1446.00 L 837.00 1454.00 L 803.00 1462.00 L 753.00 1480.00 L 687.00 1508.00 L 645.00 1527.00 L 627.00 1537.00 L 602.00 1554.00 L 570.00 1578.00 L 547.00 1598.00 L 533.00 1614.00 L 515.00 1631.00 L 493.00 1649.00 L 474.00 1661.00 L 458.00 1667.00 L 441.00 1669.00 L 423.00 1667.00 L 404.00 1659.00 L 384.00 1645.00 L 369.00 1623.00 L 359.00 1593.00 L 354.00 1558.00 L 354.00 1518.00 L 357.00 1486.00 L 363.00 1462.00 L 365.00 1451.00 L 363.00 1453.00 L 367.00 1439.00 L 377.00 1409.00 L 416.00 1335.00 L 484.00 1217.00 L 486.00 1211.00 L 422.00 1317.00 L 393.00 1363.00 L 399.00 1349.00 L 431.00 1294.00 L 489.00 1198.00 L 488.00 1197.00 L 428.00 1291.00 L 425.00 1295.00 L 479.00 1209.00 L 479.00 1208.00 L 425.00 1292.00 L 428.00 1286.00 L 488.00 1190.00 L 487.00 1189.00 L 425.00 1283.00 L 420.00 1290.00 L 472.00 1210.00 L 472.00 1208.00 L 420.00 1284.00 L 418.00 1286.00 L 466.00 1214.00 L 468.00 1209.00 L 424.00 1271.00 L 419.00 1277.00 L 453.00 1227.00 L 453.00 1226.00 L 419.00 1274.00 L 430.00 1257.00 L 486.00 1175.00 L 495.00 1160.00 L 457.00 1212.00 L 440.00 1233.00 L 444.00 1223.00 L 443.00 1221.00 L 437.00 1227.00 L 454.00 1203.00 L 494.00 1149.00 L 511.00 1117.00 L 505.00 1107.00 L 484.00 1102.00 L 448.00 1102.00 L 420.00 1099.00 L 400.00 1093.00 L 385.00 1085.00 L 375.00 1075.00 L 368.00 1064.00 L 364.00 1052.00 L 362.00 1041.00 L 362.00 1031.00 L 359.00 1022.00 L 353.00 1014.00 L 348.00 1009.00 L 344.00 1007.00 L 341.00 1005.00 Z" fill="black" stroke="black" stroke-width="1"/>
</svg>