<?xml version="1.0" encoding="UTF-8"?>
<svg xmlns="http://www.w3.org/2000/svg" viewBox="324.00 365.00 878.00 1469.00">
  <path d="M 452.00 1077.00 L 456.00 1059.00 L 452.00 1041.00 L 440.00 1023.00 L 438.00 992.00 L 446.00 948.00 L 440.00 912.00 L 420.00 884.00 L 432.00 843.00 L 476.00 789.00 L 486.00 739.00 L 462.00 693.00 L 461.00 684.00 L 483.00 712.00 L 484.00 709.00 L 464.00 675.00 L 463.00 671.00 L 481.00 697.00 L 482.00 696.00 L 466.00 668.00 L 466.00 664.00 L 482.00 684.00 L 484.00 672.00 L 472.00 628.00 L 473.00 617.00 L 487.00 639.00 L 487.00 636.00 L 473.00 608.00 L 473.00 606.00 L 487.00 630.00 L 487.00 627.00 L 473.00 597.00 L 474.00 594.00 L 490.00 618.00 L 491.00 615.00 L 477.00 585.00 L 478.00 582.00 L 494.00 606.00 L 498.00 601.00 L 490.00 567.00 L 492.00 561.00 L 504.00 583.00 L 505.00 582.00 L 495.00 558.00 L 497.00 555.00 L 511.00 573.00 L 514.00 571.00 L 506.00 549.00 L 507.00 547.00 L 517.00 565.00 L 520.00 563.00 L 516.00 541.00 L 539.00 507.00 L 589.00 461.00 L 655.00 423.00 L 737.00 393.00 L 810.00 377.00 L 874.00 375.00 L 942.00 395.00 L 1014.00 437.00 L 1074.00 484.00 L 1122.00 536.00 L 1158.00 595.00 L 1182.00 661.00 L 1192.00 726.00 L 1188.00 790.00 L 1177.00 842.00 L 1159.00 882.00 L 1129.00 927.00 L 1087.00 977.00 L 1068.00 1012.00 L 1072.00 1032.00 L 1057.00 1046.00 L 1023.00 1054.00 L 1023.00 1057.00 L 1057.00 1055.00 L 1057.00 1058.00 L 1023.00 1066.00 L 1022.00 1069.00 L 1054.00 1067.00 L 1054.00 1069.00 L 1022.00 1075.00 L 1019.00 1078.00 L 1045.00 1078.00 L 1045.00 1081.00 L 1019.00 1087.00 L 1006.00 1102.00 L 1006.00 1126.00 L 1014.00 1154.00 L 1030.00 1186.00 L 1036.00 1208.00 L 1032.00 1220.00 L 1038.00 1237.00 L 1054.00 1259.00 L 1074.00 1357.00 L 1098.00 1531.00 L 1044.00 1629.00 L 912.00 1651.00 L 766.00 1693.00 L 606.00 1755.00 L 566.00 1658.00 L 646.00 1402.00 L 644.00 1403.00 L 560.00 1661.00 L 560.00 1659.00 L 644.00 1397.00 L 641.00 1398.00 L 551.00 1662.00 L 548.00 1669.00 L 632.00 1419.00 L 630.00 1420.00 L 542.00 1672.00 L 493.00 1801.00 L 483.00 1807.00 L 525.00 1683.00 L 619.00 1429.00 L 616.00 1430.00 L 516.00 1686.00 L 520.00 1674.00 L 628.00 1394.00 L 627.00 1395.00 L 517.00 1677.00 L 457.00 1820.00 L 447.00 1824.00 L 502.00 1680.00 L 622.00 1388.00 L 620.00 1387.00 L 496.00 1677.00 L 487.00 1695.00 L 593.00 1441.00 L 590.00 1439.00 L 478.00 1689.00 L 487.00 1668.00 L 617.00 1376.00 L 616.00 1375.00 L 484.00 1665.00 L 472.00 1688.00 L 580.00 1444.00 L 574.00 1440.00 L 454.00 1676.00 L 465.00 1651.00 L 607.00 1365.00 L 604.00 1362.00 L 456.00 1642.00 L 456.00 1640.00 L 604.00 1356.00 L 601.00 1352.00 L 447.00 1628.00 L 426.00 1662.00 L 538.00 1454.00 L 534.00 1449.00 L 414.00 1647.00 L 410.00 1650.00 L 522.00 1458.00 L 521.00 1455.00 L 407.00 1641.00 L 431.00 1601.00 L 593.00 1335.00 L 591.00 1333.00 L 425.00 1595.00 L 398.00 1637.00 L 510.00 1459.00 L 510.00 1457.00 L 398.00 1631.00 L 396.00 1633.00 L 504.00 1463.00 L 503.00 1460.00 L 393.00 1624.00 L 390.00 1626.00 L 494.00 1466.00 L 493.00 1464.00 L 387.00 1620.00 L 334.00 1695.00 L 334.00 1689.00 L 418.00 1564.00 L 586.00 1320.00 L 585.00 1318.00 L 415.00 1558.00 L 376.00 1611.00 L 468.00 1477.00 L 468.00 1472.00 L 376.00 1596.00 L 374.00 1597.00 L 462.00 1475.00 L 461.00 1473.00 L 371.00 1591.00 L 368.00 1593.00 L 452.00 1479.00 L 452.00 1477.00 L 368.00 1587.00 L 364.00 1590.00 L 440.00 1486.00 L 441.00 1482.00 L 367.00 1578.00 L 365.00 1580.00 L 435.00 1488.00 L 435.00 1485.00 L 365.00 1571.00 L 362.00 1573.00 L 426.00 1491.00 L 427.00 1489.00 L 365.00 1567.00 L 363.00 1569.00 L 421.00 1495.00 L 423.00 1490.00 L 369.00 1554.00 L 423.00 1486.00 L 585.00 1286.00 L 586.00 1284.00 L 426.00 1480.00 L 423.00 1478.00 L 577.00 1278.00 L 621.00 1174.00 L 555.00 1166.00 L 510.00 1155.00 L 486.00 1141.00 L 468.00 1124.00 L 456.00 1104.00 L 450.00 1092.00 L 450.00 1088.00 L 452.00 1077.00 Z" fill="black" stroke="black" stroke-width="1"/>
</svg>