<?xml version="1.0" encoding="UTF-8"?>
<svg xmlns="http://www.w3.org/2000/svg" viewBox="342.00 287.00 845.00 1492.00">
  <path d="M 446.00 1016.00 L 454.00 976.00 L 451.00 940.00 L 437.00 908.00 L 432.00 882.00 L 436.00 862.00 L 437.00 849.00 L 435.00 843.00 L 423.00 832.00 L 401.00 816.00 L 397.00 812.00 L 411.00 820.00 L 408.00 817.00 L 388.00 803.00 L 390.00 804.00 L 414.00 820.00 L 413.00 817.00 L 387.00 795.00 L 397.00 753.00 L 443.00 691.00 L 465.00 645.00 L 463.00 615.00 L 468.00 585.00 L 480.00 555.00 L 482.00 524.00 L 474.00 492.00 L 475.00 485.00 L 485.00 503.00 L 486.00 502.00 L 478.00 482.00 L 478.00 480.00 L 486.00 496.00 L 487.00 494.00 L 481.00 474.00 L 482.00 471.00 L 490.00 485.00 L 492.00 482.00 L 488.00 462.00 L 490.00 459.00 L 498.00 473.00 L 501.00 469.00 L 499.00 447.00 L 501.00 443.00 L 507.00 457.00 L 508.00 456.00 L 504.00 440.00 L 505.00 437.00 L 511.00 447.00 L 512.00 446.00 L 508.00 434.00 L 509.00 432.00 L 515.00 440.00 L 517.00 439.00 L 515.00 429.00 L 517.00 427.00 L 523.00 433.00 L 526.00 430.00 L 526.00 418.00 L 528.00 416.00 L 532.00 424.00 L 534.00 422.00 L 534.00 410.00 L 548.00 392.00 L 576.00 368.00 L 611.00 347.00 L 653.00 329.00 L 689.00 318.00 L 719.00 314.00 L 745.00 308.00 L 767.00 300.00 L 819.00 297.00 L 901.00 299.00 L 958.00 305.00 L 990.00 315.00 L 1018.00 327.00 L 1042.00 341.00 L 1070.00 365.00 L 1102.00 399.00 L 1127.00 442.00 L 1145.00 494.00 L 1155.00 552.00 L 1157.00 616.00 L 1155.00 663.00 L 1149.00 693.00 L 1134.00 732.00 L 1110.00 780.00 L 1084.00 818.00 L 1056.00 846.00 L 1050.00 873.00 L 1066.00 899.00 L 1076.00 935.00 L 1080.00 981.00 L 1085.00 1016.00 L 1091.00 1040.00 L 1094.00 1067.00 L 1094.00 1097.00 L 1090.00 1124.00 L 1082.00 1148.00 L 1084.00 1173.00 L 1096.00 1199.00 L 1102.00 1219.00 L 1102.00 1233.00 L 1118.00 1276.00 L 1150.00 1348.00 L 1169.00 1400.00 L 1175.00 1432.00 L 1177.00 1462.00 L 1175.00 1490.00 L 1136.00 1504.00 L 1060.00 1504.00 L 988.00 1512.00 L 920.00 1528.00 L 855.00 1547.00 L 793.00 1569.00 L 740.00 1591.00 L 696.00 1613.00 L 645.00 1645.00 L 587.00 1687.00 L 536.00 1720.00 L 492.00 1744.00 L 458.00 1760.00 L 434.00 1768.00 L 412.00 1769.00 L 392.00 1763.00 L 376.00 1754.00 L 364.00 1742.00 L 356.00 1723.00 L 352.00 1697.00 L 356.00 1647.00 L 368.00 1573.00 L 387.00 1508.00 L 413.00 1452.00 L 424.00 1426.00 L 420.00 1430.00 L 433.00 1409.00 L 463.00 1363.00 L 477.00 1341.00 L 475.00 1343.00 L 480.00 1328.00 L 492.00 1296.00 L 502.00 1275.00 L 510.00 1265.00 L 511.00 1263.00 L 505.00 1269.00 L 504.00 1267.00 L 508.00 1257.00 L 497.00 1264.00 L 471.00 1288.00 L 469.00 1289.00 L 491.00 1267.00 L 484.00 1272.00 L 448.00 1304.00 L 444.00 1306.00 L 472.00 1278.00 L 470.00 1278.00 L 438.00 1306.00 L 411.00 1322.00 L 389.00 1326.00 L 405.00 1304.00 L 459.00 1256.00 L 458.00 1255.00 L 402.00 1301.00 L 400.00 1301.00 L 452.00 1255.00 L 467.00 1240.00 L 445.00 1256.00 L 442.00 1256.00 L 458.00 1240.00 L 463.00 1231.00 L 457.00 1229.00 L 467.00 1217.00 L 493.00 1195.00 L 505.00 1183.00 L 503.00 1181.00 L 488.00 1189.00 L 460.00 1207.00 L 445.00 1214.00 L 443.00 1210.00 L 456.00 1198.00 L 484.00 1178.00 L 487.00 1174.00 L 465.00 1186.00 L 462.00 1187.00 L 478.00 1177.00 L 479.00 1174.00 L 465.00 1178.00 L 467.00 1175.00 L 485.00 1165.00 L 488.00 1163.00 L 476.00 1169.00 L 475.00 1166.00 L 485.00 1154.00 L 486.00 1139.00 L 478.00 1121.00 L 484.00 1107.00 L 504.00 1097.00 L 503.00 1087.00 L 481.00 1077.00 L 464.00 1066.00 L 452.00 1054.00 L 445.00 1045.00 L 443.00 1039.00 L 446.00 1016.00 Z" fill="black" stroke="black" stroke-width="1"/>
</svg>