<?xml version="1.0" encoding="UTF-8"?>
<svg xmlns="http://www.w3.org/2000/svg" viewBox="169.00 190.00 1160.00 1748.00">
  <path d="M 426.00 1061.00 L 402.00 1059.00 L 399.00 1058.00 L 417.00 1058.00 L 415.00 1057.00 L 393.00 1055.00 L 376.00 1049.00 L 364.00 1039.00 L 356.00 1026.00 L 352.00 1010.00 L 355.00 988.00 L 365.00 960.00 L 368.00 939.00 L 364.00 925.00 L 364.00 913.00 L 368.00 903.00 L 366.00 886.00 L 358.00 862.00 L 339.00 841.00 L 309.00 823.00 L 304.00 818.00 L 324.00 826.00 L 322.00 823.00 L 298.00 809.00 L 300.00 810.00 L 328.00 826.00 L 327.00 823.00 L 297.00 801.00 L 282.00 787.00 L 282.00 781.00 L 306.00 744.00 L 354.00 676.00 L 373.00 635.00 L 363.00 621.00 L 364.00 619.00 L 376.00 629.00 L 378.00 627.00 L 370.00 613.00 L 370.00 610.00 L 378.00 618.00 L 376.00 602.00 L 364.00 562.00 L 361.00 534.00 L 367.00 518.00 L 375.00 506.00 L 385.00 498.00 L 390.00 488.00 L 390.00 476.00 L 397.00 466.00 L 411.00 458.00 L 428.00 437.00 L 448.00 403.00 L 471.00 375.00 L 497.00 353.00 L 543.00 326.00 L 609.00 294.00 L 669.00 273.00 L 723.00 263.00 L 753.00 248.00 L 759.00 228.00 L 763.00 228.00 L 765.00 248.00 L 767.00 245.00 L 769.00 219.00 L 772.00 218.00 L 776.00 242.00 L 779.00 242.00 L 781.00 218.00 L 799.00 204.00 L 833.00 200.00 L 875.00 209.00 L 925.00 231.00 L 971.00 261.00 L 1013.00 299.00 L 1043.00 319.00 L 1061.00 321.00 L 1079.00 330.00 L 1097.00 346.00 L 1115.00 354.00 L 1133.00 354.00 L 1153.00 359.00 L 1175.00 369.00 L 1210.00 398.00 L 1258.00 446.00 L 1292.00 504.00 L 1312.00 572.00 L 1319.00 626.00 L 1313.00 666.00 L 1217.00 748.00 L 1031.00 872.00 L 1031.00 875.00 L 1217.00 757.00 L 1309.00 701.00 L 1307.00 707.00 L 1213.00 768.00 L 1027.00 884.00 L 1025.00 887.00 L 1207.00 777.00 L 1215.00 773.00 L 1049.00 875.00 L 1047.00 879.00 L 1209.00 785.00 L 1289.00 743.00 L 1287.00 753.00 L 1214.00 798.00 L 1070.00 878.00 L 1070.00 880.00 L 1214.00 804.00 L 1199.00 814.00 L 1025.00 910.00 L 1025.00 914.00 L 1199.00 826.00 L 1220.00 816.00 L 1088.00 884.00 L 1088.00 886.00 L 1220.00 822.00 L 1243.00 813.00 L 1157.00 859.00 L 1156.00 862.00 L 1240.00 822.00 L 1244.00 821.00 L 1168.00 859.00 L 1167.00 862.00 L 1241.00 830.00 L 1277.00 817.00 L 1275.00 823.00 L 1191.00 863.00 L 1025.00 937.00 L 1022.00 940.00 L 1182.00 872.00 L 1232.00 853.00 L 1172.00 883.00 L 1168.00 888.00 L 1220.00 868.00 L 1220.00 870.00 L 1168.00 894.00 L 1167.00 897.00 L 1217.00 879.00 L 1168.00 899.00 L 1020.00 957.00 L 1020.00 960.00 L 1168.00 908.00 L 1217.00 891.00 L 1167.00 909.00 L 1167.00 912.00 L 1217.00 900.00 L 1218.00 904.00 L 1170.00 924.00 L 1096.00 950.00 L 996.00 982.00 L 1020.00 975.00 L 1168.00 929.00 L 1219.00 916.00 L 1173.00 936.00 L 1172.00 941.00 L 1216.00 931.00 L 1237.00 929.00 L 1235.00 935.00 L 1163.00 956.00 L 1021.00 992.00 L 1020.00 994.00 L 1160.00 962.00 L 1215.00 951.00 L 1185.00 961.00 L 1183.00 964.00 L 1209.00 960.00 L 1157.00 973.00 L 1027.00 1003.00 L 1025.00 1006.00 L 1151.00 982.00 L 1153.00 983.00 L 1031.00 1009.00 L 1027.00 1013.00 L 1141.00 995.00 L 1143.00 997.00 L 1033.00 1019.00 L 985.00 1050.00 L 999.00 1090.00 L 1023.00 1133.00 L 1057.00 1179.00 L 1076.00 1215.00 L 1080.00 1241.00 L 1091.00 1274.00 L 1109.00 1314.00 L 1129.00 1372.00 L 1151.00 1448.00 L 1166.00 1515.00 L 1174.00 1573.00 L 1123.00 1611.00 L 1013.00 1629.00 L 906.00 1656.00 L 802.00 1692.00 L 643.00 1767.00 L 429.00 1881.00 L 310.00 1928.00 L 286.00 1908.00 L 253.00 1868.00 L 211.00 1808.00 L 187.00 1768.00 L 181.00 1748.00 L 179.00 1713.00 L 181.00 1663.00 L 188.00 1617.00 L 200.00 1575.00 L 215.00 1541.00 L 233.00 1515.00 L 263.00 1481.00 L 305.00 1439.00 L 350.00 1386.00 L 398.00 1322.00 L 461.00 1256.00 L 539.00 1188.00 L 576.00 1155.00 L 572.00 1157.00 L 572.00 1154.00 L 576.00 1146.00 L 571.00 1132.00 L 557.00 1112.00 L 525.00 1094.00 L 475.00 1078.00 L 447.00 1068.00 L 441.00 1064.00 L 426.00 1061.00 Z" fill="black" stroke="black" stroke-width="1"/>
</svg>