<?xml version="1.0" encoding="UTF-8"?>
<svg xmlns="http://www.w3.org/2000/svg" viewBox="268.00 257.00 934.00 1554.00">
  <path d="M 478.00 1037.00 L 494.00 1035.00 L 486.00 1024.00 L 454.00 1004.00 L 434.00 987.00 L 426.00 973.00 L 423.00 957.00 L 425.00 939.00 L 431.00 923.00 L 441.00 909.00 L 443.00 895.00 L 437.00 881.00 L 437.00 868.00 L 443.00 856.00 L 446.00 839.00 L 446.00 817.00 L 432.00 792.00 L 404.00 764.00 L 404.00 762.00 L 432.00 786.00 L 429.00 781.00 L 395.00 747.00 L 395.00 744.00 L 429.00 772.00 L 430.00 770.00 L 398.00 738.00 L 397.00 735.00 L 427.00 761.00 L 429.00 758.00 L 403.00 726.00 L 402.00 696.00 L 426.00 668.00 L 454.00 641.00 L 486.00 615.00 L 503.00 590.00 L 505.00 566.00 L 502.00 541.00 L 494.00 515.00 L 495.00 512.00 L 505.00 532.00 L 506.00 530.00 L 498.00 506.00 L 498.00 504.00 L 506.00 524.00 L 507.00 522.00 L 501.00 498.00 L 502.00 495.00 L 510.00 513.00 L 513.00 509.00 L 511.00 483.00 L 513.00 478.00 L 519.00 494.00 L 523.00 501.00 L 525.00 499.00 L 523.00 488.00 L 517.00 468.00 L 518.00 465.00 L 526.00 479.00 L 527.00 471.00 L 521.00 441.00 L 522.00 438.00 L 530.00 462.00 L 531.00 460.00 L 525.00 432.00 L 526.00 430.00 L 534.00 454.00 L 535.00 452.00 L 529.00 424.00 L 530.00 421.00 L 538.00 443.00 L 543.00 448.00 L 545.00 436.00 L 544.00 422.00 L 540.00 406.00 L 541.00 408.00 L 547.00 428.00 L 551.00 436.00 L 553.00 432.00 L 552.00 420.00 L 548.00 400.00 L 549.00 397.00 L 555.00 411.00 L 558.00 409.00 L 558.00 391.00 L 560.00 390.00 L 564.00 406.00 L 567.00 404.00 L 569.00 384.00 L 575.00 371.00 L 585.00 365.00 L 599.00 351.00 L 617.00 329.00 L 653.00 306.00 L 707.00 282.00 L 761.00 269.00 L 815.00 267.00 L 871.00 272.00 L 929.00 284.00 L 968.00 294.00 L 988.00 302.00 L 1016.00 320.00 L 1052.00 348.00 L 1076.00 368.00 L 1088.00 380.00 L 1110.00 412.00 L 1142.00 464.00 L 1164.00 520.00 L 1176.00 580.00 L 1182.00 631.00 L 1182.00 673.00 L 1179.00 705.00 L 1173.00 727.00 L 1162.00 754.00 L 1146.00 786.00 L 1126.00 819.00 L 1102.00 853.00 L 1085.00 874.00 L 1075.00 882.00 L 1076.00 901.00 L 1088.00 931.00 L 1098.00 969.00 L 1106.00 1015.00 L 1111.00 1052.00 L 1113.00 1080.00 L 1112.00 1101.00 L 1108.00 1115.00 L 1109.00 1131.00 L 1115.00 1149.00 L 1119.00 1179.00 L 1121.00 1221.00 L 1131.00 1266.00 L 1149.00 1314.00 L 1167.00 1373.00 L 1185.00 1443.00 L 1192.00 1479.00 L 1188.00 1481.00 L 1187.00 1483.00 L 1189.00 1485.00 L 1157.00 1487.00 L 1091.00 1489.00 L 1025.00 1497.00 L 959.00 1511.00 L 905.00 1525.00 L 863.00 1539.00 L 787.00 1572.00 L 677.00 1624.00 L 570.00 1685.00 L 466.00 1755.00 L 406.00 1793.00 L 390.00 1799.00 L 370.00 1801.00 L 346.00 1799.00 L 327.00 1791.00 L 313.00 1777.00 L 301.00 1760.00 L 291.00 1740.00 L 284.00 1716.00 L 280.00 1688.00 L 278.00 1659.00 L 278.00 1629.00 L 280.00 1606.00 L 284.00 1590.00 L 285.00 1583.00 L 283.00 1585.00 L 286.00 1570.00 L 294.00 1538.00 L 311.00 1489.00 L 337.00 1423.00 L 370.00 1362.00 L 410.00 1306.00 L 434.00 1268.00 L 442.00 1248.00 L 440.00 1242.00 L 428.00 1250.00 L 429.00 1248.00 L 443.00 1236.00 L 440.00 1237.00 L 420.00 1251.00 L 426.00 1246.00 L 458.00 1222.00 L 456.00 1223.00 L 420.00 1249.00 L 421.00 1248.00 L 459.00 1220.00 L 457.00 1220.00 L 415.00 1248.00 L 385.00 1261.00 L 367.00 1259.00 L 368.00 1250.00 L 388.00 1234.00 L 386.00 1233.00 L 362.00 1247.00 L 380.00 1235.00 L 440.00 1197.00 L 440.00 1195.00 L 380.00 1229.00 L 377.00 1230.00 L 431.00 1198.00 L 447.00 1187.00 L 425.00 1197.00 L 422.00 1196.00 L 438.00 1184.00 L 439.00 1175.00 L 425.00 1169.00 L 432.00 1158.00 L 460.00 1142.00 L 460.00 1139.00 L 432.00 1149.00 L 431.00 1147.00 L 457.00 1133.00 L 458.00 1129.00 L 434.00 1135.00 L 433.00 1133.00 L 455.00 1123.00 L 456.00 1121.00 L 436.00 1127.00 L 432.00 1127.00 L 444.00 1121.00 L 444.00 1119.00 L 432.00 1121.00 L 435.00 1118.00 L 453.00 1110.00 L 458.00 1094.00 L 450.00 1070.00 L 451.00 1054.00 L 461.00 1046.00 L 467.00 1041.00 L 469.00 1039.00 L 478.00 1037.00 Z" fill="black" stroke="black" stroke-width="1"/>
</svg>