<?xml version="1.0" encoding="UTF-8"?>
<svg xmlns="http://www.w3.org/2000/svg" viewBox="412.00 234.00 909.00 1592.00">
  <path d="M 558.00 1016.00 L 558.00 1004.00 L 565.00 988.00 L 579.00 968.00 L 582.00 949.00 L 574.00 931.00 L 571.00 915.00 L 573.00 901.00 L 570.00 889.00 L 562.00 879.00 L 559.00 868.00 L 561.00 856.00 L 542.00 834.00 L 502.00 802.00 L 502.00 799.00 L 542.00 825.00 L 542.00 820.00 L 502.00 784.00 L 504.00 731.00 L 548.00 661.00 L 569.00 613.00 L 567.00 587.00 L 559.00 561.00 L 545.00 535.00 L 546.00 532.00 L 562.00 552.00 L 564.00 549.00 L 552.00 523.00 L 553.00 521.00 L 567.00 543.00 L 569.00 542.00 L 559.00 518.00 L 560.00 514.00 L 572.00 530.00 L 575.00 528.00 L 569.00 508.00 L 571.00 505.00 L 581.00 519.00 L 582.00 517.00 L 574.00 499.00 L 572.00 493.00 L 576.00 499.00 L 577.00 494.00 L 575.00 478.00 L 579.00 481.00 L 589.00 503.00 L 589.00 500.00 L 579.00 472.00 L 580.00 470.00 L 592.00 494.00 L 593.00 492.00 L 583.00 464.00 L 584.00 461.00 L 596.00 483.00 L 597.00 480.00 L 587.00 452.00 L 588.00 450.00 L 600.00 474.00 L 602.00 472.00 L 594.00 444.00 L 595.00 442.00 L 605.00 466.00 L 607.00 464.00 L 601.00 436.00 L 602.00 431.00 L 610.00 449.00 L 612.00 447.00 L 608.00 425.00 L 609.00 422.00 L 615.00 438.00 L 618.00 442.00 L 618.00 434.00 L 620.00 431.00 L 624.00 433.00 L 624.00 427.00 L 620.00 413.00 L 620.00 411.00 L 624.00 421.00 L 626.00 420.00 L 626.00 408.00 L 641.00 385.00 L 671.00 351.00 L 715.00 316.00 L 773.00 280.00 L 854.00 256.00 L 958.00 244.00 L 1033.00 246.00 L 1079.00 262.00 L 1120.00 286.00 L 1156.00 318.00 L 1188.00 355.00 L 1216.00 397.00 L 1238.00 439.00 L 1254.00 481.00 L 1264.00 523.00 L 1268.00 565.00 L 1267.00 602.00 L 1261.00 634.00 L 1252.00 672.00 L 1240.00 716.00 L 1220.00 767.00 L 1192.00 825.00 L 1184.00 869.00 L 1196.00 899.00 L 1207.00 956.00 L 1217.00 1040.00 L 1217.00 1103.00 L 1207.00 1145.00 L 1223.00 1218.00 L 1265.00 1322.00 L 1294.00 1406.00 L 1310.00 1470.00 L 1311.00 1505.00 L 1297.00 1511.00 L 1245.00 1519.00 L 1155.00 1529.00 L 1081.00 1542.00 L 1023.00 1558.00 L 944.00 1589.00 L 844.00 1635.00 L 748.00 1686.00 L 656.00 1742.00 L 605.00 1776.00 L 595.00 1788.00 L 575.00 1800.00 L 545.00 1812.00 L 518.00 1816.00 L 494.00 1812.00 L 471.00 1799.00 L 449.00 1777.00 L 434.00 1753.00 L 426.00 1727.00 L 422.00 1698.00 L 422.00 1666.00 L 428.00 1616.00 L 440.00 1548.00 L 460.00 1484.00 L 488.00 1424.00 L 535.00 1355.00 L 601.00 1277.00 L 602.00 1275.00 L 538.00 1349.00 L 538.00 1347.00 L 602.00 1269.00 L 617.00 1249.00 L 583.00 1287.00 L 580.00 1287.00 L 608.00 1249.00 L 603.00 1246.00 L 565.00 1278.00 L 560.00 1280.00 L 588.00 1252.00 L 584.00 1251.00 L 548.00 1277.00 L 551.00 1270.00 L 593.00 1230.00 L 591.00 1229.00 L 545.00 1267.00 L 543.00 1267.00 L 585.00 1229.00 L 577.00 1232.00 L 519.00 1276.00 L 524.00 1268.00 L 592.00 1208.00 L 589.00 1206.00 L 515.00 1262.00 L 516.00 1260.00 L 592.00 1200.00 L 603.00 1191.00 L 549.00 1233.00 L 548.00 1232.00 L 600.00 1188.00 L 613.00 1174.00 L 587.00 1190.00 L 586.00 1187.00 L 610.00 1165.00 L 613.00 1159.00 L 595.00 1169.00 L 594.00 1168.00 L 610.00 1156.00 L 610.00 1135.00 L 594.00 1105.00 L 594.00 1084.00 L 610.00 1072.00 L 609.00 1063.00 L 591.00 1057.00 L 576.00 1048.00 L 564.00 1036.00 L 558.00 1028.00 L 558.00 1024.00 L 558.00 1016.00 Z" fill="black" stroke="black" stroke-width="1"/>
</svg>