<?xml version="1.0" encoding="UTF-8"?>
<svg xmlns="http://www.w3.org/2000/svg" viewBox="275.00 189.00 921.00 1507.00">
  <path d="M 347.00 921.00 L 341.00 895.00 L 327.00 878.00 L 305.00 870.00 L 291.00 860.00 L 285.00 848.00 L 300.00 810.00 L 336.00 746.00 L 352.00 686.00 L 348.00 630.00 L 351.00 578.00 L 361.00 530.00 L 363.00 499.00 L 357.00 485.00 L 358.00 482.00 L 366.00 490.00 L 367.00 488.00 L 361.00 476.00 L 367.00 459.00 L 385.00 437.00 L 425.00 409.00 L 487.00 375.00 L 542.00 351.00 L 590.00 337.00 L 655.00 326.00 L 737.00 318.00 L 783.00 296.00 L 793.00 260.00 L 796.00 260.00 L 792.00 296.00 L 795.00 290.00 L 805.00 242.00 L 807.00 242.00 L 801.00 290.00 L 804.00 287.00 L 816.00 233.00 L 819.00 233.00 L 813.00 287.00 L 816.00 286.00 L 828.00 230.00 L 831.00 230.00 L 825.00 286.00 L 828.00 286.00 L 840.00 230.00 L 842.00 228.00 L 834.00 280.00 L 837.00 278.00 L 851.00 222.00 L 852.00 224.00 L 840.00 284.00 L 842.00 284.00 L 858.00 224.00 L 860.00 223.00 L 848.00 281.00 L 851.00 281.00 L 869.00 223.00 L 872.00 225.00 L 860.00 287.00 L 863.00 287.00 L 881.00 225.00 L 883.00 225.00 L 869.00 287.00 L 871.00 288.00 L 889.00 228.00 L 900.00 199.00 L 904.00 201.00 L 898.00 232.00 L 882.00 292.00 L 884.00 293.00 L 904.00 235.00 L 924.00 213.00 L 944.00 227.00 L 960.00 234.00 L 972.00 234.00 L 986.00 243.00 L 1002.00 261.00 L 1011.00 276.00 L 1013.00 288.00 L 1024.00 294.00 L 1044.00 294.00 L 1055.00 310.00 L 1057.00 342.00 L 1069.00 370.00 L 1091.00 394.00 L 1123.00 454.00 L 1165.00 550.00 L 1186.00 626.00 L 1186.00 682.00 L 1183.00 716.00 L 1177.00 728.00 L 1135.00 751.00 L 1057.00 785.00 L 1054.00 788.00 L 1126.00 760.00 L 1122.00 763.00 L 1042.00 797.00 L 1041.00 799.00 L 1119.00 769.00 L 1153.00 758.00 L 1143.00 766.00 L 1141.00 769.00 L 1147.00 767.00 L 1112.00 781.00 L 1036.00 811.00 L 1031.00 814.00 L 1097.00 790.00 L 1107.00 788.00 L 1061.00 808.00 L 1059.00 811.00 L 1101.00 797.00 L 1091.00 801.00 L 1029.00 823.00 L 1027.00 825.00 L 1085.00 807.00 L 1084.00 810.00 L 1024.00 834.00 L 990.00 854.00 L 982.00 870.00 L 969.00 885.00 L 951.00 899.00 L 930.00 929.00 L 906.00 975.00 L 897.00 1026.00 L 903.00 1082.00 L 909.00 1121.00 L 915.00 1143.00 L 926.00 1162.00 L 942.00 1178.00 L 944.00 1181.00 L 932.00 1171.00 L 934.00 1178.00 L 950.00 1202.00 L 958.00 1225.00 L 958.00 1247.00 L 966.00 1282.00 L 982.00 1330.00 L 986.00 1370.00 L 978.00 1402.00 L 962.00 1427.00 L 938.00 1445.00 L 913.00 1455.00 L 887.00 1457.00 L 832.00 1472.00 L 748.00 1500.00 L 662.00 1539.00 L 574.00 1589.00 L 495.00 1638.00 L 425.00 1686.00 L 429.00 1610.00 L 507.00 1410.00 L 505.00 1412.00 L 423.00 1616.00 L 424.00 1612.00 L 508.00 1400.00 L 504.00 1403.00 L 412.00 1621.00 L 414.00 1614.00 L 510.00 1382.00 L 507.00 1383.00 L 405.00 1617.00 L 405.00 1614.00 L 507.00 1374.00 L 504.00 1371.00 L 396.00 1605.00 L 397.00 1599.00 L 507.00 1353.00 L 507.00 1350.00 L 397.00 1590.00 L 397.00 1589.00 L 507.00 1347.00 L 506.00 1345.00 L 394.00 1583.00 L 394.00 1581.00 L 506.00 1339.00 L 505.00 1336.00 L 391.00 1572.00 L 362.00 1630.00 L 418.00 1510.00 L 417.00 1509.00 L 359.00 1627.00 L 357.00 1629.00 L 411.00 1515.00 L 409.00 1513.00 L 351.00 1623.00 L 381.00 1560.00 L 499.00 1324.00 L 498.00 1321.00 L 378.00 1551.00 L 378.00 1549.00 L 498.00 1315.00 L 496.00 1313.00 L 372.00 1543.00 L 372.00 1541.00 L 496.00 1307.00 L 495.00 1305.00 L 369.00 1535.00 L 327.00 1611.00 L 369.00 1533.00 L 368.00 1530.00 L 324.00 1602.00 L 321.00 1603.00 L 359.00 1533.00 L 358.00 1530.00 L 318.00 1594.00 L 362.00 1515.00 L 490.00 1293.00 L 490.00 1290.00 L 362.00 1506.00 L 310.00 1593.00 L 334.00 1551.00 L 334.00 1549.00 L 310.00 1587.00 L 306.00 1591.00 L 322.00 1561.00 L 324.00 1556.00 L 312.00 1576.00 L 309.00 1580.00 L 315.00 1568.00 L 376.00 1464.00 L 492.00 1268.00 L 543.00 1155.00 L 529.00 1125.00 L 496.00 1106.00 L 444.00 1098.00 L 410.00 1088.00 L 394.00 1076.00 L 383.00 1063.00 L 377.00 1049.00 L 376.00 1033.00 L 380.00 1015.00 L 375.00 990.00 L 361.00 958.00 L 353.00 940.00 L 351.00 936.00 L 347.00 921.00 Z" fill="black" stroke="black" stroke-width="1"/>
</svg>