<?xml version="1.0" encoding="UTF-8"?>
<svg xmlns="http://www.w3.org/2000/svg" viewBox="411.00 335.00 732.00 1449.00">
  <path d="M 589.00 1049.00 L 547.00 1043.00 L 533.00 1040.00 L 547.00 1040.00 L 544.00 1039.00 L 524.00 1037.00 L 509.00 1032.00 L 499.00 1024.00 L 491.00 1013.00 L 485.00 999.00 L 483.00 979.00 L 485.00 953.00 L 483.00 933.00 L 477.00 919.00 L 476.00 907.00 L 480.00 897.00 L 479.00 889.00 L 473.00 883.00 L 470.00 875.00 L 470.00 865.00 L 454.00 846.00 L 422.00 818.00 L 423.00 816.00 L 457.00 840.00 L 457.00 838.00 L 423.00 810.00 L 421.00 806.00 L 451.00 826.00 L 452.00 824.00 L 424.00 800.00 L 423.00 759.00 L 449.00 701.00 L 462.00 664.00 L 462.00 648.00 L 467.00 621.00 L 477.00 583.00 L 489.00 553.00 L 503.00 531.00 L 508.00 514.00 L 504.00 502.00 L 503.00 493.00 L 505.00 487.00 L 528.00 462.00 L 572.00 418.00 L 622.00 386.00 L 678.00 366.00 L 731.00 353.00 L 781.00 347.00 L 825.00 345.00 L 863.00 347.00 L 902.00 352.00 L 942.00 360.00 L 980.00 373.00 L 1016.00 391.00 L 1045.00 411.00 L 1067.00 433.00 L 1084.00 456.00 L 1096.00 480.00 L 1107.00 509.00 L 1117.00 543.00 L 1122.00 582.00 L 1122.00 626.00 L 1116.00 667.00 L 1104.00 705.00 L 1090.00 739.00 L 1074.00 769.00 L 1046.00 802.00 L 1006.00 838.00 L 1003.00 842.00 L 1037.00 814.00 L 1042.00 810.00 L 1018.00 830.00 L 1011.00 836.00 L 1021.00 828.00 L 1020.00 829.00 L 1008.00 839.00 L 1013.00 835.00 L 1035.00 817.00 L 1030.00 822.00 L 998.00 850.00 L 978.00 871.00 L 970.00 885.00 L 958.00 899.00 L 942.00 913.00 L 941.00 916.00 L 955.00 908.00 L 955.00 910.00 L 941.00 922.00 L 934.00 938.00 L 934.00 958.00 L 936.00 977.00 L 940.00 995.00 L 951.00 1017.00 L 969.00 1043.00 L 986.00 1073.00 L 1002.00 1107.00 L 1014.00 1138.00 L 1022.00 1166.00 L 1043.00 1213.00 L 1077.00 1279.00 L 1107.00 1348.00 L 1133.00 1420.00 L 1102.00 1469.00 L 1014.00 1495.00 L 947.00 1518.00 L 901.00 1538.00 L 828.00 1578.00 L 728.00 1638.00 L 660.00 1682.00 L 624.00 1710.00 L 604.00 1728.00 L 600.00 1736.00 L 598.00 1738.00 L 598.00 1734.00 L 591.00 1738.00 L 577.00 1750.00 L 558.00 1762.00 L 534.00 1774.00 L 506.00 1767.00 L 474.00 1741.00 L 448.00 1710.00 L 428.00 1674.00 L 471.00 1557.00 L 577.00 1359.00 L 576.00 1356.00 L 468.00 1548.00 L 467.00 1549.00 L 573.00 1359.00 L 572.00 1356.00 L 464.00 1540.00 L 470.00 1528.00 L 590.00 1320.00 L 590.00 1318.00 L 470.00 1522.00 L 471.00 1520.00 L 593.00 1312.00 L 593.00 1311.00 L 471.00 1517.00 L 469.00 1520.00 L 587.00 1320.00 L 587.00 1318.00 L 469.00 1514.00 L 456.00 1535.00 L 548.00 1381.00 L 547.00 1379.00 L 453.00 1529.00 L 448.00 1535.00 L 532.00 1397.00 L 532.00 1395.00 L 448.00 1529.00 L 447.00 1530.00 L 529.00 1398.00 L 530.00 1395.00 L 450.00 1521.00 L 447.00 1525.00 L 521.00 1407.00 L 521.00 1405.00 L 447.00 1519.00 L 442.00 1526.00 L 506.00 1426.00 L 507.00 1423.00 L 445.00 1517.00 L 443.00 1519.00 L 501.00 1429.00 L 502.00 1426.00 L 446.00 1510.00 L 444.00 1512.00 L 496.00 1432.00 L 496.00 1431.00 L 444.00 1509.00 L 443.00 1510.00 L 493.00 1434.00 L 494.00 1432.00 L 446.00 1504.00 L 445.00 1505.00 L 491.00 1435.00 L 492.00 1433.00 L 448.00 1499.00 L 482.00 1448.00 L 594.00 1280.00 L 595.00 1277.00 L 485.00 1439.00 L 446.00 1496.00 L 478.00 1448.00 L 480.00 1444.00 L 452.00 1484.00 L 447.00 1490.00 L 465.00 1462.00 L 465.00 1461.00 L 447.00 1487.00 L 446.00 1488.00 L 462.00 1464.00 L 467.00 1456.00 L 461.00 1464.00 L 505.00 1399.00 L 599.00 1261.00 L 643.00 1184.00 L 637.00 1168.00 L 644.00 1149.00 L 664.00 1127.00 L 663.00 1125.00 L 641.00 1143.00 L 639.00 1144.00 L 657.00 1128.00 L 658.00 1126.00 L 642.00 1138.00 L 643.00 1135.00 L 661.00 1117.00 L 665.00 1101.00 L 655.00 1087.00 L 642.00 1074.00 L 626.00 1062.00 L 616.00 1055.00 L 612.00 1053.00 L 589.00 1049.00 Z" fill="black" stroke="black" stroke-width="1"/>
</svg>