<?xml version="1.0" encoding="UTF-8"?>
<svg xmlns="http://www.w3.org/2000/svg" viewBox="199.00 226.00 989.00 1621.00">
  <path d="M 439.00 1027.00 L 429.00 1013.00 L 416.00 1002.00 L 400.00 994.00 L 386.00 982.00 L 374.00 966.00 L 370.00 942.00 L 374.00 910.00 L 372.00 888.00 L 364.00 876.00 L 360.00 864.00 L 360.00 852.00 L 357.00 840.00 L 351.00 828.00 L 349.00 808.00 L 351.00 780.00 L 340.00 753.00 L 316.00 727.00 L 314.00 722.00 L 334.00 738.00 L 334.00 736.00 L 314.00 716.00 L 304.00 704.00 L 304.00 700.00 L 316.00 681.00 L 340.00 647.00 L 365.00 618.00 L 391.00 594.00 L 405.00 564.00 L 407.00 528.00 L 405.00 500.00 L 399.00 480.00 L 400.00 477.00 L 408.00 491.00 L 410.00 489.00 L 406.00 471.00 L 408.00 468.00 L 416.00 480.00 L 418.00 478.00 L 414.00 462.00 L 415.00 458.00 L 421.00 466.00 L 422.00 464.00 L 418.00 452.00 L 418.00 448.00 L 422.00 452.00 L 422.00 449.00 L 418.00 439.00 L 420.00 440.00 L 428.00 452.00 L 429.00 450.00 L 423.00 434.00 L 424.00 433.00 L 432.00 447.00 L 433.00 444.00 L 427.00 424.00 L 428.00 420.00 L 436.00 432.00 L 437.00 430.00 L 431.00 414.00 L 430.00 409.00 L 434.00 415.00 L 435.00 413.00 L 433.00 403.00 L 435.00 405.00 L 441.00 419.00 L 444.00 416.00 L 444.00 396.00 L 446.00 388.00 L 450.00 392.00 L 453.00 389.00 L 455.00 379.00 L 472.00 356.00 L 504.00 320.00 L 541.00 291.00 L 583.00 269.00 L 621.00 258.00 L 655.00 258.00 L 687.00 252.00 L 717.00 240.00 L 741.00 236.00 L 759.00 240.00 L 781.00 241.00 L 807.00 239.00 L 838.00 240.00 L 874.00 244.00 L 927.00 263.00 L 997.00 297.00 L 1046.00 332.00 L 1074.00 368.00 L 1095.00 400.00 L 1109.00 428.00 L 1122.00 466.00 L 1134.00 514.00 L 1140.00 551.00 L 1140.00 577.00 L 1137.00 603.00 L 1131.00 629.00 L 1112.00 674.00 L 1080.00 738.00 L 1060.00 791.00 L 1052.00 833.00 L 1038.00 861.00 L 1018.00 875.00 L 1016.00 879.00 L 1032.00 873.00 L 1034.00 873.00 L 1022.00 879.00 L 1019.00 881.00 L 1025.00 879.00 L 1024.00 882.00 L 1016.00 890.00 L 1016.00 898.00 L 1024.00 906.00 L 1033.00 932.00 L 1043.00 976.00 L 1050.00 1019.00 L 1054.00 1061.00 L 1053.00 1097.00 L 1047.00 1127.00 L 1046.00 1154.00 L 1050.00 1178.00 L 1060.00 1208.00 L 1076.00 1244.00 L 1092.00 1291.00 L 1108.00 1349.00 L 1130.00 1406.00 L 1158.00 1462.00 L 1174.00 1502.00 L 1178.00 1526.00 L 1135.00 1545.00 L 1045.00 1559.00 L 968.00 1576.00 L 904.00 1596.00 L 831.00 1622.00 L 749.00 1654.00 L 651.00 1698.00 L 537.00 1754.00 L 449.00 1795.00 L 387.00 1821.00 L 349.00 1835.00 L 335.00 1837.00 L 312.00 1833.00 L 280.00 1823.00 L 255.00 1810.00 L 237.00 1794.00 L 225.00 1779.00 L 219.00 1765.00 L 214.00 1752.00 L 210.00 1740.00 L 209.00 1719.00 L 211.00 1689.00 L 229.00 1629.00 L 263.00 1539.00 L 279.00 1495.00 L 277.00 1497.00 L 297.00 1462.00 L 339.00 1390.00 L 370.00 1330.00 L 390.00 1282.00 L 409.00 1246.00 L 427.00 1222.00 L 427.00 1207.00 L 409.00 1201.00 L 412.00 1188.00 L 436.00 1168.00 L 434.00 1165.00 L 406.00 1179.00 L 404.00 1178.00 L 428.00 1162.00 L 428.00 1160.00 L 404.00 1172.00 L 404.00 1170.00 L 428.00 1154.00 L 431.00 1150.00 L 413.00 1158.00 L 412.00 1156.00 L 428.00 1144.00 L 431.00 1121.00 L 421.00 1087.00 L 428.00 1066.00 L 452.00 1058.00 L 461.00 1051.00 L 455.00 1045.00 L 450.00 1040.00 L 446.00 1036.00 L 439.00 1027.00 Z" fill="black" stroke="black" stroke-width="1"/>
</svg>