<?xml version="1.0" encoding="UTF-8"?>
<svg xmlns="http://www.w3.org/2000/svg" viewBox="332.00 161.00 856.00 1571.00">
  <path d="M 466.00 945.00 L 474.00 943.00 L 466.00 937.00 L 442.00 927.00 L 421.00 915.00 L 403.00 901.00 L 392.00 886.00 L 388.00 870.00 L 389.00 854.00 L 395.00 838.00 L 401.00 826.00 L 407.00 818.00 L 410.00 810.00 L 410.00 802.00 L 407.00 792.00 L 401.00 780.00 L 399.00 772.00 L 401.00 768.00 L 401.00 761.00 L 399.00 751.00 L 399.00 745.00 L 401.00 743.00 L 402.00 732.00 L 402.00 712.00 L 390.00 692.00 L 366.00 672.00 L 365.00 670.00 L 387.00 686.00 L 384.00 682.00 L 356.00 658.00 L 356.00 656.00 L 384.00 676.00 L 384.00 673.00 L 356.00 647.00 L 342.00 632.00 L 342.00 628.00 L 364.00 601.00 L 408.00 551.00 L 429.00 516.00 L 427.00 496.00 L 433.00 472.00 L 447.00 444.00 L 450.00 420.00 L 442.00 400.00 L 443.00 398.00 L 453.00 414.00 L 454.00 411.00 L 446.00 389.00 L 447.00 386.00 L 457.00 402.00 L 458.00 401.00 L 450.00 383.00 L 451.00 381.00 L 461.00 395.00 L 463.00 393.00 L 457.00 375.00 L 456.00 370.00 L 460.00 378.00 L 464.00 383.00 L 468.00 385.00 L 467.00 379.00 L 461.00 365.00 L 460.00 362.00 L 464.00 370.00 L 464.00 369.00 L 460.00 359.00 L 462.00 360.00 L 470.00 372.00 L 471.00 370.00 L 465.00 354.00 L 466.00 351.00 L 474.00 361.00 L 475.00 359.00 L 469.00 345.00 L 469.00 344.00 L 475.00 356.00 L 477.00 354.00 L 475.00 338.00 L 477.00 336.00 L 483.00 348.00 L 487.00 353.00 L 489.00 351.00 L 488.00 343.00 L 484.00 329.00 L 485.00 327.00 L 491.00 337.00 L 494.00 334.00 L 494.00 318.00 L 502.00 302.00 L 518.00 286.00 L 545.00 265.00 L 583.00 239.00 L 624.00 217.00 L 668.00 199.00 L 723.00 185.00 L 789.00 175.00 L 837.00 171.00 L 867.00 173.00 L 898.00 179.00 L 930.00 189.00 L 962.00 204.00 L 994.00 224.00 L 1026.00 251.00 L 1058.00 285.00 L 1082.00 320.00 L 1098.00 356.00 L 1111.00 391.00 L 1121.00 425.00 L 1127.00 462.00 L 1129.00 502.00 L 1128.00 532.00 L 1124.00 552.00 L 1107.00 598.00 L 1077.00 670.00 L 1059.00 716.00 L 1053.00 736.00 L 1050.00 760.00 L 1050.00 788.00 L 1041.00 807.00 L 1023.00 817.00 L 1023.00 820.00 L 1041.00 816.00 L 1043.00 818.00 L 1029.00 826.00 L 1029.00 828.00 L 1043.00 824.00 L 1042.00 826.00 L 1026.00 834.00 L 1025.00 836.00 L 1039.00 832.00 L 1039.00 833.00 L 1025.00 839.00 L 1022.00 841.00 L 1030.00 839.00 L 1032.00 842.00 L 1028.00 850.00 L 1032.00 859.00 L 1044.00 869.00 L 1056.00 888.00 L 1068.00 916.00 L 1075.00 941.00 L 1077.00 963.00 L 1083.00 995.00 L 1093.00 1037.00 L 1096.00 1069.00 L 1092.00 1091.00 L 1093.00 1109.00 L 1099.00 1123.00 L 1102.00 1135.00 L 1102.00 1145.00 L 1105.00 1156.00 L 1111.00 1168.00 L 1116.00 1188.00 L 1120.00 1216.00 L 1132.00 1255.00 L 1152.00 1305.00 L 1167.00 1359.00 L 1177.00 1417.00 L 1178.00 1448.00 L 1170.00 1452.00 L 1165.00 1453.00 L 1163.00 1451.00 L 1156.00 1451.00 L 1144.00 1453.00 L 1135.00 1453.00 L 1129.00 1451.00 L 1091.00 1454.00 L 1021.00 1462.00 L 957.00 1474.00 L 899.00 1490.00 L 839.00 1511.00 L 777.00 1537.00 L 729.00 1559.00 L 695.00 1577.00 L 662.00 1595.00 L 630.00 1613.00 L 607.00 1629.00 L 593.00 1643.00 L 560.00 1666.00 L 508.00 1698.00 L 477.00 1716.00 L 467.00 1720.00 L 458.00 1722.00 L 450.00 1722.00 L 439.00 1720.00 L 425.00 1716.00 L 413.00 1711.00 L 403.00 1705.00 L 391.00 1695.00 L 377.00 1681.00 L 366.00 1665.00 L 358.00 1647.00 L 352.00 1629.00 L 348.00 1611.00 L 349.00 1579.00 L 355.00 1533.00 L 368.00 1469.00 L 388.00 1387.00 L 405.00 1326.00 L 419.00 1286.00 L 435.00 1249.00 L 453.00 1215.00 L 474.00 1182.00 L 498.00 1150.00 L 510.00 1128.00 L 510.00 1116.00 L 514.00 1100.00 L 522.00 1080.00 L 523.00 1065.00 L 517.00 1055.00 L 513.00 1045.00 L 511.00 1035.00 L 504.00 1024.00 L 492.00 1012.00 L 479.00 994.00 L 465.00 970.00 L 459.00 955.00 L 461.00 949.00 L 466.00 945.00 Z" fill="black" stroke="black" stroke-width="1"/>
</svg>