<?xml version="1.0" encoding="UTF-8"?>
<svg xmlns="http://www.w3.org/2000/svg" viewBox="334.00 92.00 1029.00 1816.00">
  <path d="M 452.00 986.00 L 440.00 970.00 L 436.00 945.00 L 440.00 911.00 L 432.00 880.00 L 412.00 852.00 L 406.00 830.00 L 414.00 814.00 L 414.00 798.00 L 406.00 782.00 L 403.00 760.00 L 405.00 732.00 L 394.00 708.00 L 370.00 688.00 L 369.00 686.00 L 391.00 702.00 L 389.00 699.00 L 363.00 677.00 L 348.00 660.00 L 344.00 648.00 L 375.00 610.00 L 441.00 546.00 L 476.00 509.00 L 480.00 499.00 L 475.00 478.00 L 461.00 446.00 L 462.00 443.00 L 478.00 469.00 L 479.00 467.00 L 465.00 437.00 L 465.00 433.00 L 479.00 455.00 L 480.00 453.00 L 468.00 427.00 L 468.00 424.00 L 480.00 444.00 L 484.00 446.00 L 480.00 430.00 L 481.00 425.00 L 487.00 431.00 L 486.00 426.00 L 478.00 410.00 L 479.00 407.00 L 489.00 417.00 L 491.00 415.00 L 485.00 401.00 L 486.00 399.00 L 494.00 409.00 L 495.00 406.00 L 489.00 390.00 L 490.00 388.00 L 498.00 400.00 L 500.00 394.00 L 496.00 370.00 L 498.00 365.00 L 506.00 379.00 L 507.00 376.00 L 501.00 356.00 L 502.00 354.00 L 510.00 370.00 L 515.00 375.00 L 517.00 369.00 L 519.00 368.00 L 521.00 372.00 L 519.00 365.00 L 513.00 347.00 L 514.00 345.00 L 522.00 359.00 L 524.00 356.00 L 520.00 336.00 L 522.00 333.00 L 530.00 347.00 L 533.00 345.00 L 531.00 327.00 L 533.00 324.00 L 539.00 336.00 L 543.00 333.00 L 545.00 315.00 L 564.00 286.00 L 600.00 246.00 L 656.00 202.00 L 732.00 154.00 L 803.00 123.00 L 869.00 109.00 L 918.00 102.00 L 950.00 102.00 L 996.00 111.00 L 1056.00 129.00 L 1108.00 151.00 L 1152.00 177.00 L 1189.00 208.00 L 1219.00 244.00 L 1244.00 280.00 L 1264.00 316.00 L 1282.00 363.00 L 1298.00 421.00 L 1306.00 475.00 L 1306.00 525.00 L 1287.00 616.00 L 1249.00 748.00 L 1222.00 828.00 L 1206.00 856.00 L 1206.00 885.00 L 1222.00 915.00 L 1237.00 961.00 L 1251.00 1023.00 L 1256.00 1078.00 L 1252.00 1126.00 L 1266.00 1188.00 L 1298.00 1264.00 L 1324.00 1340.00 L 1344.00 1416.00 L 1353.00 1459.00 L 1351.00 1469.00 L 1304.00 1484.00 L 1212.00 1504.00 L 1107.00 1539.00 L 989.00 1589.00 L 903.00 1631.00 L 849.00 1665.00 L 788.00 1714.00 L 720.00 1778.00 L 659.00 1829.00 L 605.00 1867.00 L 554.00 1890.00 L 506.00 1898.00 L 468.00 1897.00 L 440.00 1887.00 L 415.00 1872.00 L 393.00 1852.00 L 375.00 1822.00 L 361.00 1782.00 L 352.00 1719.00 L 348.00 1633.00 L 350.00 1567.00 L 358.00 1521.00 L 380.00 1449.00 L 416.00 1351.00 L 445.00 1282.00 L 467.00 1242.00 L 466.00 1230.00 L 442.00 1246.00 L 445.00 1242.00 L 475.00 1218.00 L 473.00 1218.00 L 439.00 1242.00 L 440.00 1240.00 L 476.00 1212.00 L 470.00 1214.00 L 422.00 1246.00 L 423.00 1244.00 L 473.00 1208.00 L 472.00 1208.00 L 420.00 1244.00 L 422.00 1242.00 L 478.00 1202.00 L 475.00 1202.00 L 413.00 1242.00 L 386.00 1256.00 L 394.00 1244.00 L 390.00 1243.00 L 374.00 1253.00 L 378.00 1248.00 L 402.00 1228.00 L 401.00 1226.00 L 375.00 1242.00 L 395.00 1225.00 L 461.00 1175.00 L 486.00 1151.00 L 470.00 1153.00 L 455.00 1151.00 L 441.00 1145.00 L 453.00 1131.00 L 491.00 1109.00 L 489.00 1106.00 L 447.00 1122.00 L 444.00 1122.00 L 480.00 1106.00 L 480.00 1103.00 L 444.00 1113.00 L 441.00 1111.00 L 471.00 1097.00 L 475.00 1093.00 L 453.00 1099.00 L 457.00 1097.00 L 487.00 1087.00 L 488.00 1085.00 L 460.00 1091.00 L 459.00 1088.00 L 485.00 1076.00 L 492.00 1062.00 L 480.00 1046.00 L 473.00 1029.00 L 471.00 1011.00 L 467.00 1000.00 L 461.00 996.00 L 452.00 986.00 Z" fill="black" stroke="black" stroke-width="1"/>
</svg>