<?xml version="1.0" encoding="UTF-8"?>
<svg xmlns="http://www.w3.org/2000/svg" viewBox="252.00 280.00 986.00 1493.00">
  <path d="M 403.00 996.00 L 389.00 976.00 L 383.00 945.00 L 385.00 903.00 L 376.00 874.00 L 356.00 858.00 L 345.00 845.00 L 343.00 835.00 L 356.00 810.00 L 384.00 770.00 L 402.00 738.00 L 410.00 714.00 L 411.00 683.00 L 405.00 645.00 L 398.00 619.00 L 390.00 605.00 L 390.00 602.00 L 398.00 610.00 L 397.00 608.00 L 387.00 596.00 L 387.00 594.00 L 397.00 602.00 L 399.00 596.00 L 393.00 576.00 L 408.00 539.00 L 444.00 485.00 L 495.00 433.00 L 561.00 383.00 L 634.00 346.00 L 714.00 322.00 L 776.00 308.00 L 820.00 304.00 L 857.00 304.00 L 887.00 308.00 L 916.00 304.00 L 944.00 292.00 L 969.00 290.00 L 991.00 298.00 L 1017.00 302.00 L 1047.00 302.00 L 1073.00 307.00 L 1095.00 317.00 L 1116.00 331.00 L 1136.00 349.00 L 1161.00 385.00 L 1191.00 439.00 L 1212.00 494.00 L 1224.00 550.00 L 1228.00 599.00 L 1224.00 641.00 L 1215.00 688.00 L 1201.00 740.00 L 1144.00 794.00 L 1044.00 850.00 L 1044.00 854.00 L 1144.00 806.00 L 1142.00 808.00 L 1038.00 860.00 L 1037.00 863.00 L 1139.00 817.00 L 1135.00 820.00 L 1025.00 872.00 L 1024.00 875.00 L 1132.00 829.00 L 1127.00 834.00 L 1009.00 890.00 L 1007.00 895.00 L 1121.00 849.00 L 1177.00 828.00 L 1175.00 832.00 L 1116.00 857.00 L 1000.00 903.00 L 999.00 905.00 L 1113.00 863.00 L 1168.00 845.00 L 1164.00 851.00 L 1108.00 874.00 L 1000.00 914.00 L 999.00 916.00 L 1105.00 880.00 L 1133.00 872.00 L 1083.00 892.00 L 1081.00 895.00 L 1127.00 881.00 L 1147.00 877.00 L 1141.00 883.00 L 1089.00 901.00 L 991.00 931.00 L 989.00 934.00 L 1083.00 910.00 L 1084.00 912.00 L 992.00 940.00 L 988.00 944.00 L 1072.00 924.00 L 1103.00 919.00 L 1081.00 929.00 L 1075.00 933.00 L 1085.00 931.00 L 1088.00 932.00 L 1084.00 936.00 L 1048.00 945.00 L 980.00 959.00 L 971.00 1024.00 L 1021.00 1140.00 L 1059.00 1247.00 L 1085.00 1345.00 L 1053.00 1410.00 L 963.00 1442.00 L 869.00 1483.00 L 771.00 1533.00 L 648.00 1613.00 L 500.00 1723.00 L 400.00 1763.00 L 348.00 1733.00 L 315.00 1710.00 L 301.00 1694.00 L 375.00 1559.00 L 537.00 1305.00 L 535.00 1302.00 L 369.00 1550.00 L 368.00 1551.00 L 532.00 1305.00 L 531.00 1304.00 L 365.00 1548.00 L 280.00 1667.00 L 276.00 1661.00 L 360.00 1535.00 L 532.00 1289.00 L 531.00 1286.00 L 357.00 1526.00 L 269.00 1643.00 L 267.00 1637.00 L 345.00 1527.00 L 503.00 1313.00 L 502.00 1311.00 L 342.00 1521.00 L 262.00 1624.00 L 262.00 1620.00 L 351.00 1502.00 L 529.00 1270.00 L 528.00 1268.00 L 348.00 1496.00 L 335.00 1512.00 L 489.00 1316.00 L 489.00 1314.00 L 335.00 1506.00 L 348.00 1489.00 L 528.00 1263.00 L 528.00 1262.00 L 348.00 1486.00 L 333.00 1504.00 L 483.00 1316.00 L 483.00 1313.00 L 333.00 1495.00 L 348.00 1476.00 L 528.00 1256.00 L 528.00 1253.00 L 348.00 1467.00 L 326.00 1492.00 L 462.00 1328.00 L 462.00 1325.00 L 326.00 1483.00 L 322.00 1486.00 L 450.00 1334.00 L 451.00 1330.00 L 325.00 1474.00 L 262.00 1544.00 L 262.00 1540.00 L 351.00 1437.00 L 529.00 1235.00 L 530.00 1231.00 L 354.00 1425.00 L 320.00 1462.00 L 428.00 1342.00 L 429.00 1339.00 L 323.00 1453.00 L 318.00 1457.00 L 414.00 1351.00 L 415.00 1347.00 L 321.00 1445.00 L 319.00 1446.00 L 409.00 1350.00 L 411.00 1347.00 L 325.00 1437.00 L 318.00 1443.00 L 390.00 1365.00 L 394.00 1359.00 L 330.00 1425.00 L 325.00 1429.00 L 379.00 1371.00 L 382.00 1366.00 L 334.00 1414.00 L 328.00 1419.00 L 364.00 1381.00 L 366.00 1378.00 L 334.00 1410.00 L 392.00 1351.00 L 540.00 1201.00 L 612.00 1121.00 L 608.00 1111.00 L 601.00 1104.00 L 591.00 1100.00 L 552.00 1094.00 L 484.00 1086.00 L 442.00 1075.00 L 426.00 1061.00 L 416.00 1044.00 L 412.00 1024.00 L 410.00 1012.00 L 410.00 1008.00 L 403.00 996.00 Z" fill="black" stroke="black" stroke-width="1"/>
</svg>