<?xml version="1.0" encoding="UTF-8"?>
<svg xmlns="http://www.w3.org/2000/svg" viewBox="236.00 393.00 792.00 1341.00">
  <path d="M 490.00 1014.00 L 466.00 998.00 L 443.00 979.00 L 421.00 957.00 L 405.00 939.00 L 395.00 925.00 L 370.00 905.00 L 330.00 879.00 L 298.00 853.00 L 274.00 827.00 L 259.00 808.00 L 253.00 796.00 L 249.00 787.00 L 247.00 781.00 L 246.00 753.00 L 246.00 703.00 L 249.00 664.00 L 255.00 636.00 L 267.00 605.00 L 285.00 571.00 L 306.00 543.00 L 330.00 521.00 L 345.00 503.00 L 351.00 489.00 L 357.00 479.00 L 363.00 473.00 L 368.00 471.00 L 372.00 473.00 L 382.00 465.00 L 398.00 447.00 L 414.00 435.00 L 430.00 429.00 L 446.00 428.00 L 462.00 432.00 L 481.00 429.00 L 503.00 419.00 L 524.00 412.00 L 544.00 408.00 L 562.00 406.00 L 578.00 406.00 L 587.00 405.00 L 589.00 403.00 L 619.00 403.00 L 677.00 405.00 L 735.00 416.00 L 793.00 436.00 L 834.00 453.00 L 858.00 467.00 L 884.00 487.00 L 912.00 513.00 L 936.00 541.00 L 956.00 571.00 L 967.00 589.00 L 969.00 595.00 L 966.00 605.00 L 958.00 619.00 L 958.00 621.00 L 966.00 611.00 L 966.00 612.00 L 958.00 624.00 L 958.00 626.00 L 966.00 618.00 L 966.00 622.00 L 958.00 638.00 L 959.00 640.00 L 969.00 628.00 L 970.00 628.00 L 962.00 640.00 L 962.00 642.00 L 970.00 634.00 L 970.00 637.00 L 962.00 651.00 L 962.00 653.00 L 970.00 643.00 L 970.00 646.00 L 962.00 662.00 L 962.00 665.00 L 970.00 655.00 L 970.00 657.00 L 962.00 671.00 L 963.00 673.00 L 973.00 663.00 L 973.00 665.00 L 963.00 679.00 L 963.00 681.00 L 973.00 671.00 L 972.00 674.00 L 960.00 690.00 L 959.00 694.00 L 969.00 686.00 L 969.00 689.00 L 959.00 703.00 L 961.00 702.00 L 975.00 686.00 L 974.00 689.00 L 958.00 711.00 L 948.00 729.00 L 944.00 743.00 L 946.00 758.00 L 954.00 774.00 L 973.00 800.00 L 1003.00 836.00 L 1018.00 857.00 L 1018.00 863.00 L 1017.00 868.00 L 1015.00 872.00 L 1006.00 879.00 L 990.00 889.00 L 982.00 899.00 L 982.00 909.00 L 984.00 919.00 L 988.00 929.00 L 987.00 939.00 L 981.00 949.00 L 979.00 954.00 L 981.00 954.00 L 981.00 956.00 L 979.00 960.00 L 979.00 967.00 L 981.00 977.00 L 978.00 985.00 L 970.00 991.00 L 964.00 1007.00 L 960.00 1033.00 L 955.00 1050.00 L 949.00 1058.00 L 944.00 1064.00 L 940.00 1068.00 L 930.00 1073.00 L 914.00 1079.00 L 884.00 1082.00 L 840.00 1082.00 L 812.00 1085.00 L 800.00 1091.00 L 791.00 1099.00 L 785.00 1109.00 L 789.00 1123.00 L 803.00 1141.00 L 803.00 1143.00 L 789.00 1129.00 L 789.00 1131.00 L 803.00 1149.00 L 802.00 1150.00 L 786.00 1134.00 L 786.00 1136.00 L 802.00 1156.00 L 802.00 1158.00 L 786.00 1142.00 L 785.00 1145.00 L 799.00 1167.00 L 805.00 1181.00 L 803.00 1187.00 L 821.00 1219.00 L 859.00 1277.00 L 862.00 1283.00 L 830.00 1237.00 L 833.00 1242.00 L 871.00 1298.00 L 889.00 1325.00 L 887.00 1323.00 L 888.00 1325.00 L 892.00 1331.00 L 871.00 1300.00 L 825.00 1232.00 L 826.00 1234.00 L 874.00 1306.00 L 875.00 1308.00 L 829.00 1240.00 L 830.00 1242.00 L 878.00 1314.00 L 903.00 1352.00 L 905.00 1356.00 L 884.00 1325.00 L 840.00 1259.00 L 841.00 1261.00 L 887.00 1331.00 L 888.00 1333.00 L 844.00 1267.00 L 845.00 1270.00 L 891.00 1342.00 L 913.00 1377.00 L 911.00 1375.00 L 923.00 1403.00 L 949.00 1461.00 L 966.00 1509.00 L 974.00 1547.00 L 979.00 1585.00 L 981.00 1623.00 L 978.00 1655.00 L 970.00 1681.00 L 960.00 1700.00 L 948.00 1712.00 L 937.00 1720.00 L 927.00 1724.00 L 914.00 1724.00 L 898.00 1720.00 L 850.00 1689.00 L 770.00 1631.00 L 704.00 1588.00 L 652.00 1560.00 L 604.00 1538.00 L 560.00 1522.00 L 506.00 1508.00 L 442.00 1496.00 L 412.00 1464.00 L 416.00 1412.00 L 422.00 1364.00 L 430.00 1320.00 L 433.00 1299.00 L 431.00 1301.00 L 435.00 1282.00 L 445.00 1242.00 L 453.00 1215.00 L 459.00 1201.00 L 461.00 1189.00 L 459.00 1179.00 L 461.00 1168.00 L 467.00 1156.00 L 472.00 1132.00 L 476.00 1096.00 L 483.00 1075.00 L 493.00 1069.00 L 499.00 1057.00 L 501.00 1039.00 L 502.00 1028.00 L 502.00 1024.00 L 490.00 1014.00 Z" fill="black" stroke="black" stroke-width="1"/>
</svg>