<?xml version="1.0" encoding="UTF-8"?>
<svg xmlns="http://www.w3.org/2000/svg" viewBox="476.00 258.00 983.00 1563.00">
  <path d="M 587.00 1010.00 L 589.00 994.00 L 586.00 982.00 L 578.00 974.00 L 577.00 966.00 L 583.00 958.00 L 586.00 946.00 L 586.00 930.00 L 577.00 913.00 L 559.00 895.00 L 549.00 878.00 L 547.00 862.00 L 559.00 838.00 L 585.00 806.00 L 604.00 776.00 L 616.00 748.00 L 622.00 728.00 L 622.00 716.00 L 612.00 697.00 L 592.00 671.00 L 592.00 668.00 L 612.00 688.00 L 614.00 689.00 L 598.00 671.00 L 597.00 669.00 L 611.00 683.00 L 610.00 680.00 L 594.00 660.00 L 594.00 658.00 L 610.00 674.00 L 610.00 672.00 L 594.00 652.00 L 590.00 646.00 L 598.00 654.00 L 598.00 652.00 L 590.00 640.00 L 594.00 643.00 L 610.00 661.00 L 609.00 656.00 L 591.00 628.00 L 590.00 623.00 L 606.00 641.00 L 605.00 633.00 L 587.00 599.00 L 586.00 592.00 L 602.00 612.00 L 603.00 608.00 L 589.00 580.00 L 590.00 576.00 L 606.00 596.00 L 607.00 594.00 L 593.00 570.00 L 594.00 566.00 L 610.00 582.00 L 611.00 579.00 L 597.00 557.00 L 597.00 555.00 L 611.00 573.00 L 612.00 571.00 L 600.00 549.00 L 601.00 546.00 L 615.00 562.00 L 616.00 560.00 L 604.00 540.00 L 604.00 539.00 L 616.00 557.00 L 617.00 555.00 L 607.00 533.00 L 622.00 491.00 L 662.00 429.00 L 719.00 371.00 L 793.00 317.00 L 883.00 283.00 L 989.00 269.00 L 1061.00 268.00 L 1099.00 280.00 L 1134.00 286.00 L 1166.00 286.00 L 1222.00 314.00 L 1302.00 370.00 L 1359.00 423.00 L 1393.00 473.00 L 1416.00 514.00 L 1428.00 546.00 L 1439.00 608.00 L 1449.00 700.00 L 1447.00 769.00 L 1433.00 815.00 L 1403.00 868.00 L 1357.00 928.00 L 1325.00 965.00 L 1307.00 979.00 L 1288.00 989.00 L 1268.00 995.00 L 1261.00 998.00 L 1267.00 998.00 L 1250.00 1001.00 L 1210.00 1007.00 L 1201.00 1010.00 L 1223.00 1010.00 L 1221.00 1012.00 L 1195.00 1016.00 L 1190.00 1018.00 L 1206.00 1018.00 L 1205.00 1019.00 L 1187.00 1021.00 L 1177.00 1025.00 L 1175.00 1031.00 L 1171.00 1059.00 L 1165.00 1109.00 L 1181.00 1185.00 L 1219.00 1287.00 L 1243.00 1367.00 L 1253.00 1425.00 L 1207.00 1468.00 L 1105.00 1496.00 L 1014.00 1528.00 L 934.00 1564.00 L 848.00 1610.00 L 756.00 1666.00 L 668.00 1725.00 L 584.00 1787.00 L 608.00 1673.00 L 740.00 1383.00 L 738.00 1384.00 L 602.00 1676.00 L 600.00 1680.00 L 732.00 1396.00 L 728.00 1399.00 L 588.00 1689.00 L 591.00 1680.00 L 737.00 1372.00 L 735.00 1370.00 L 585.00 1674.00 L 577.00 1689.00 L 711.00 1415.00 L 710.00 1414.00 L 574.00 1686.00 L 572.00 1689.00 L 704.00 1423.00 L 703.00 1421.00 L 569.00 1683.00 L 501.00 1811.00 L 499.00 1805.00 L 576.00 1653.00 L 732.00 1355.00 L 732.00 1352.00 L 576.00 1644.00 L 576.00 1642.00 L 732.00 1346.00 L 730.00 1341.00 L 570.00 1627.00 L 552.00 1658.00 L 676.00 1434.00 L 676.00 1432.00 L 552.00 1652.00 L 550.00 1654.00 L 670.00 1438.00 L 669.00 1435.00 L 547.00 1645.00 L 486.00 1748.00 L 486.00 1744.00 L 567.00 1603.00 L 729.00 1325.00 L 729.00 1323.00 L 567.00 1597.00 L 541.00 1639.00 L 651.00 1449.00 L 651.00 1445.00 L 541.00 1627.00 L 486.00 1714.00 L 486.00 1706.00 L 538.00 1617.00 L 642.00 1447.00 L 642.00 1445.00 L 538.00 1611.00 L 536.00 1613.00 L 636.00 1451.00 L 636.00 1448.00 L 536.00 1604.00 L 533.00 1607.00 L 627.00 1457.00 L 627.00 1455.00 L 533.00 1601.00 L 529.00 1606.00 L 615.00 1470.00 L 616.00 1465.00 L 532.00 1591.00 L 569.00 1534.00 L 727.00 1294.00 L 728.00 1291.00 L 572.00 1525.00 L 530.00 1587.00 L 602.00 1477.00 L 602.00 1475.00 L 530.00 1581.00 L 528.00 1583.00 L 596.00 1481.00 L 598.00 1476.00 L 534.00 1568.00 L 527.00 1576.00 L 577.00 1500.00 L 579.00 1495.00 L 533.00 1561.00 L 531.00 1563.00 L 573.00 1501.00 L 575.00 1497.00 L 537.00 1551.00 L 535.00 1553.00 L 569.00 1503.00 L 570.00 1500.00 L 538.00 1544.00 L 533.00 1550.00 L 555.00 1518.00 L 556.00 1516.00 L 536.00 1544.00 L 595.00 1459.00 L 733.00 1261.00 L 797.00 1158.00 L 787.00 1150.00 L 762.00 1147.00 L 722.00 1149.00 L 686.00 1145.00 L 654.00 1135.00 L 631.00 1120.00 L 617.00 1100.00 L 606.00 1074.00 L 598.00 1042.00 L 592.00 1024.00 L 588.00 1020.00 L 587.00 1010.00 Z" fill="black" stroke="black" stroke-width="1"/>
</svg>