<?xml version="1.0" encoding="UTF-8"?>
<svg xmlns="http://www.w3.org/2000/svg" viewBox="296.00 332.00 772.00 1451.00">
  <path d="M 519.00 1003.00 L 521.00 973.00 L 520.00 955.00 L 516.00 949.00 L 506.00 941.00 L 490.00 931.00 L 475.00 919.00 L 461.00 905.00 L 434.00 888.00 L 394.00 868.00 L 389.00 865.00 L 419.00 879.00 L 414.00 875.00 L 374.00 853.00 L 378.00 854.00 L 426.00 878.00 L 425.00 877.00 L 375.00 851.00 L 344.00 831.00 L 332.00 817.00 L 321.00 793.00 L 311.00 759.00 L 306.00 723.00 L 306.00 685.00 L 309.00 650.00 L 315.00 618.00 L 324.00 587.00 L 336.00 557.00 L 356.00 521.00 L 384.00 479.00 L 405.00 451.00 L 419.00 437.00 L 442.00 421.00 L 474.00 403.00 L 498.00 383.00 L 514.00 361.00 L 526.00 348.00 L 534.00 344.00 L 542.00 351.00 L 550.00 369.00 L 553.00 373.00 L 551.00 363.00 L 551.00 362.00 L 553.00 370.00 L 566.00 366.00 L 590.00 350.00 L 608.00 342.00 L 620.00 342.00 L 628.00 344.00 L 632.00 348.00 L 636.00 357.00 L 640.00 371.00 L 642.00 373.00 L 642.00 363.00 L 645.00 363.00 L 651.00 373.00 L 670.00 375.00 L 702.00 369.00 L 730.00 366.00 L 754.00 366.00 L 779.00 369.00 L 805.00 375.00 L 830.00 383.00 L 854.00 393.00 L 884.00 413.00 L 920.00 443.00 L 943.00 466.00 L 953.00 482.00 L 956.00 496.00 L 952.00 508.00 L 951.00 515.00 L 953.00 517.00 L 957.00 513.00 L 963.00 503.00 L 964.00 505.00 L 960.00 519.00 L 962.00 521.00 L 970.00 511.00 L 971.00 513.00 L 965.00 527.00 L 963.00 533.00 L 965.00 531.00 L 966.00 533.00 L 966.00 539.00 L 970.00 535.00 L 978.00 521.00 L 979.00 520.00 L 973.00 532.00 L 970.00 539.00 L 970.00 541.00 L 974.00 537.00 L 982.00 527.00 L 982.00 530.00 L 974.00 546.00 L 971.00 553.00 L 973.00 551.00 L 974.00 553.00 L 974.00 559.00 L 978.00 555.00 L 986.00 541.00 L 986.00 543.00 L 978.00 561.00 L 979.00 562.00 L 989.00 546.00 L 990.00 549.00 L 982.00 571.00 L 982.00 576.00 L 990.00 564.00 L 991.00 566.00 L 985.00 582.00 L 982.00 606.00 L 982.00 638.00 L 984.00 660.00 L 988.00 672.00 L 1007.00 703.00 L 1041.00 753.00 L 1058.00 783.00 L 1058.00 793.00 L 1051.00 804.00 L 1037.00 816.00 L 1035.00 819.00 L 1045.00 813.00 L 1043.00 815.00 L 1029.00 825.00 L 1027.00 827.00 L 1037.00 821.00 L 1036.00 824.00 L 1024.00 836.00 L 1018.00 846.00 L 1018.00 854.00 L 1020.00 860.00 L 1024.00 864.00 L 1026.00 869.00 L 1026.00 875.00 L 1024.00 881.00 L 1020.00 887.00 L 1017.00 896.00 L 1015.00 908.00 L 1010.00 921.00 L 1002.00 935.00 L 998.00 946.00 L 998.00 954.00 L 1000.00 963.00 L 1004.00 973.00 L 1006.00 982.00 L 1006.00 990.00 L 1004.00 999.00 L 1000.00 1009.00 L 991.00 1018.00 L 977.00 1026.00 L 944.00 1030.00 L 892.00 1030.00 L 889.00 1031.00 L 935.00 1033.00 L 933.00 1035.00 L 883.00 1037.00 L 850.00 1048.00 L 834.00 1068.00 L 822.00 1090.00 L 814.00 1114.00 L 812.00 1135.00 L 816.00 1153.00 L 843.00 1198.00 L 893.00 1270.00 L 898.00 1279.00 L 858.00 1225.00 L 884.00 1264.00 L 976.00 1396.00 L 1014.00 1451.00 L 998.00 1429.00 L 999.00 1431.00 L 1017.00 1457.00 L 1011.00 1449.00 L 981.00 1407.00 L 982.00 1409.00 L 1014.00 1455.00 L 1029.00 1477.00 L 1027.00 1475.00 L 1031.00 1485.00 L 1041.00 1507.00 L 1048.00 1528.00 L 1052.00 1548.00 L 1054.00 1574.00 L 1054.00 1606.00 L 1051.00 1633.00 L 1045.00 1655.00 L 1033.00 1685.00 L 1015.00 1723.00 L 998.00 1749.00 L 982.00 1763.00 L 972.00 1771.00 L 968.00 1773.00 L 962.00 1772.00 L 954.00 1768.00 L 929.00 1753.00 L 887.00 1727.00 L 844.00 1703.00 L 800.00 1681.00 L 743.00 1657.00 L 673.00 1631.00 L 633.00 1615.00 L 623.00 1609.00 L 584.00 1595.00 L 516.00 1573.00 L 447.00 1555.00 L 377.00 1541.00 L 341.00 1531.00 L 339.00 1525.00 L 352.00 1474.00 L 380.00 1378.00 L 404.00 1308.00 L 424.00 1264.00 L 438.00 1225.00 L 446.00 1191.00 L 456.00 1164.00 L 468.00 1144.00 L 475.00 1124.00 L 477.00 1104.00 L 480.00 1090.00 L 484.00 1082.00 L 492.00 1074.00 L 504.00 1066.00 L 512.00 1053.00 L 516.00 1035.00 L 518.00 1024.00 L 518.00 1020.00 L 519.00 1003.00 Z" fill="black" stroke="black" stroke-width="1"/>
</svg>