<?xml version="1.0" encoding="UTF-8"?>
<svg xmlns="http://www.w3.org/2000/svg" viewBox="220.00 190.00 938.00 1460.00">
  <path d="M 471.00 840.00 L 441.00 796.00 L 395.00 763.00 L 333.00 741.00 L 332.00 738.00 L 392.00 754.00 L 386.00 749.00 L 314.00 723.00 L 314.00 721.00 L 386.00 743.00 L 383.00 741.00 L 305.00 715.00 L 255.00 688.00 L 233.00 660.00 L 230.00 590.00 L 246.00 478.00 L 270.00 402.00 L 302.00 362.00 L 345.00 324.00 L 399.00 288.00 L 432.00 257.00 L 444.00 231.00 L 466.00 222.00 L 498.00 230.00 L 542.00 224.00 L 598.00 204.00 L 634.00 200.00 L 650.00 212.00 L 664.00 244.00 L 676.00 296.00 L 678.00 296.00 L 670.00 244.00 L 671.00 244.00 L 681.00 296.00 L 686.00 297.00 L 686.00 247.00 L 691.00 248.00 L 701.00 300.00 L 704.00 300.00 L 700.00 248.00 L 703.00 248.00 L 713.00 300.00 L 716.00 300.00 L 712.00 248.00 L 715.00 248.00 L 725.00 300.00 L 731.00 302.00 L 733.00 254.00 L 736.00 254.00 L 740.00 302.00 L 742.00 303.00 L 742.00 257.00 L 745.00 257.00 L 751.00 303.00 L 756.00 305.00 L 760.00 263.00 L 765.00 263.00 L 771.00 305.00 L 774.00 308.00 L 774.00 272.00 L 775.00 272.00 L 777.00 308.00 L 779.00 311.00 L 781.00 281.00 L 784.00 281.00 L 788.00 311.00 L 791.00 316.00 L 793.00 296.00 L 796.00 296.00 L 800.00 316.00 L 859.00 347.00 L 973.00 389.00 L 1034.00 423.00 L 1042.00 449.00 L 1051.00 458.00 L 1061.00 450.00 L 1062.00 452.00 L 1054.00 464.00 L 1057.00 467.00 L 1071.00 461.00 L 1074.00 466.00 L 1066.00 482.00 L 1069.00 485.00 L 1083.00 475.00 L 1088.00 485.00 L 1084.00 515.00 L 1090.00 524.00 L 1106.00 512.00 L 1107.00 514.00 L 1093.00 530.00 L 1095.00 533.00 L 1113.00 523.00 L 1114.00 528.00 L 1098.00 548.00 L 1099.00 551.00 L 1117.00 537.00 L 1118.00 540.00 L 1102.00 560.00 L 1104.00 565.00 L 1124.00 555.00 L 1125.00 558.00 L 1107.00 574.00 L 1108.00 576.00 L 1128.00 564.00 L 1128.00 567.00 L 1108.00 585.00 L 1109.00 588.00 L 1131.00 576.00 L 1131.00 581.00 L 1109.00 603.00 L 1110.00 606.00 L 1134.00 590.00 L 1134.00 592.00 L 1110.00 612.00 L 1111.00 614.00 L 1137.00 598.00 L 1136.00 603.00 L 1108.00 629.00 L 1109.00 632.00 L 1139.00 612.00 L 1138.00 616.00 L 1106.00 644.00 L 1109.00 647.00 L 1147.00 625.00 L 1147.00 630.00 L 1109.00 662.00 L 1108.00 709.00 L 1144.00 771.00 L 1148.00 813.00 L 1120.00 835.00 L 1100.00 892.00 L 1088.00 984.00 L 1069.00 1038.00 L 1043.00 1054.00 L 995.00 1065.00 L 925.00 1071.00 L 940.00 1181.00 L 1040.00 1395.00 L 1038.00 1398.00 L 934.00 1190.00 L 939.00 1207.00 L 1053.00 1449.00 L 1052.00 1450.00 L 936.00 1210.00 L 935.00 1213.00 L 1049.00 1459.00 L 1085.00 1542.00 L 1043.00 1462.00 L 1042.00 1468.00 L 1082.00 1560.00 L 1080.00 1558.00 L 1036.00 1462.00 L 1037.00 1467.00 L 1083.00 1573.00 L 1048.00 1495.00 L 932.00 1233.00 L 931.00 1236.00 L 1045.00 1504.00 L 1045.00 1505.00 L 931.00 1239.00 L 931.00 1242.00 L 1045.00 1514.00 L 1075.00 1587.00 L 1021.00 1461.00 L 1020.00 1466.00 L 1072.00 1602.00 L 1068.00 1598.00 L 1008.00 1454.00 L 1007.00 1459.00 L 1065.00 1613.00 L 1038.00 1547.00 L 926.00 1261.00 L 926.00 1264.00 L 1038.00 1556.00 L 1061.00 1619.00 L 995.00 1453.00 L 994.00 1459.00 L 1058.00 1637.00 L 1055.00 1634.00 L 985.00 1450.00 L 984.00 1452.00 L 1052.00 1640.00 L 1031.00 1583.00 L 921.00 1281.00 L 919.00 1284.00 L 1025.00 1592.00 L 1025.00 1595.00 L 919.00 1293.00 L 915.00 1288.00 L 1013.00 1580.00 L 1012.00 1583.00 L 912.00 1297.00 L 904.00 1290.00 L 988.00 1562.00 L 988.00 1564.00 L 904.00 1296.00 L 901.00 1293.00 L 979.00 1555.00 L 979.00 1557.00 L 901.00 1299.00 L 898.00 1297.00 L 970.00 1551.00 L 969.00 1554.00 L 895.00 1306.00 L 890.00 1301.00 L 954.00 1539.00 L 953.00 1543.00 L 887.00 1313.00 L 880.00 1307.00 L 932.00 1525.00 L 932.00 1528.00 L 880.00 1316.00 L 878.00 1314.00 L 926.00 1522.00 L 926.00 1525.00 L 878.00 1323.00 L 876.00 1321.00 L 920.00 1519.00 L 893.00 1581.00 L 795.00 1507.00 L 677.00 1439.00 L 539.00 1377.00 L 467.00 1334.00 L 461.00 1310.00 L 485.00 1220.00 L 539.00 1064.00 L 562.00 964.00 L 554.00 920.00 L 536.00 890.00 L 508.00 874.00 L 492.00 865.00 L 488.00 863.00 L 471.00 840.00 Z" fill="black" stroke="black" stroke-width="1"/>
</svg>