<?xml version="1.0" encoding="UTF-8"?>
<svg xmlns="http://www.w3.org/2000/svg" viewBox="292.00 280.00 978.00 1535.00">
  <path d="M 500.00 1074.00 L 496.00 1062.00 L 498.00 1052.00 L 506.00 1044.00 L 499.00 1034.00 L 477.00 1022.00 L 459.00 1005.00 L 445.00 983.00 L 442.00 958.00 L 450.00 930.00 L 452.00 909.00 L 448.00 895.00 L 448.00 868.00 L 452.00 828.00 L 440.00 792.00 L 412.00 760.00 L 413.00 757.00 L 443.00 783.00 L 442.00 778.00 L 410.00 742.00 L 411.00 739.00 L 445.00 769.00 L 446.00 767.00 L 414.00 733.00 L 414.00 730.00 L 446.00 758.00 L 447.00 755.00 L 417.00 721.00 L 410.00 691.00 L 426.00 665.00 L 456.00 633.00 L 500.00 595.00 L 524.00 560.00 L 528.00 528.00 L 541.00 493.00 L 563.00 455.00 L 605.00 409.00 L 667.00 355.00 L 727.00 318.00 L 785.00 298.00 L 849.00 290.00 L 919.00 294.00 L 969.00 302.00 L 999.00 314.00 L 1032.00 332.00 L 1068.00 356.00 L 1098.00 382.00 L 1122.00 410.00 L 1147.00 458.00 L 1173.00 526.00 L 1192.00 600.00 L 1204.00 680.00 L 1209.00 767.00 L 1207.00 861.00 L 1213.00 908.00 L 1227.00 908.00 L 1241.00 916.00 L 1255.00 932.00 L 1260.00 945.00 L 1256.00 955.00 L 1249.00 962.00 L 1239.00 966.00 L 1237.00 968.00 L 1243.00 968.00 L 1244.00 971.00 L 1240.00 977.00 L 1230.00 984.00 L 1214.00 992.00 L 1216.00 995.00 L 1236.00 993.00 L 1233.00 997.00 L 1207.00 1007.00 L 1207.00 1010.00 L 1233.00 1006.00 L 1232.00 1009.00 L 1204.00 1019.00 L 1204.00 1022.00 L 1232.00 1018.00 L 1232.00 1020.00 L 1204.00 1028.00 L 1203.00 1031.00 L 1229.00 1029.00 L 1233.00 1030.00 L 1215.00 1034.00 L 1215.00 1036.00 L 1233.00 1036.00 L 1229.00 1038.00 L 1203.00 1042.00 L 1191.00 1046.00 L 1193.00 1050.00 L 1205.00 1051.00 L 1227.00 1049.00 L 1229.00 1049.00 L 1211.00 1051.00 L 1210.00 1054.00 L 1226.00 1058.00 L 1223.00 1061.00 L 1201.00 1063.00 L 1192.00 1064.00 L 1196.00 1064.00 L 1196.00 1067.00 L 1192.00 1073.00 L 1202.00 1076.00 L 1226.00 1076.00 L 1226.00 1079.00 L 1202.00 1085.00 L 1202.00 1089.00 L 1226.00 1091.00 L 1226.00 1095.00 L 1202.00 1101.00 L 1200.00 1166.00 L 1220.00 1290.00 L 1230.00 1360.00 L 1230.00 1376.00 L 1225.00 1388.00 L 1215.00 1396.00 L 1213.00 1430.00 L 1219.00 1490.00 L 1178.00 1522.00 L 1090.00 1526.00 L 1000.00 1540.00 L 908.00 1564.00 L 807.00 1600.00 L 697.00 1648.00 L 635.00 1680.00 L 621.00 1696.00 L 572.00 1727.00 L 488.00 1773.00 L 438.00 1799.00 L 422.00 1805.00 L 399.00 1805.00 L 369.00 1799.00 L 344.00 1787.00 L 324.00 1769.00 L 311.00 1752.00 L 305.00 1736.00 L 302.00 1696.00 L 302.00 1632.00 L 312.00 1569.00 L 332.00 1507.00 L 364.00 1441.00 L 408.00 1371.00 L 435.00 1320.00 L 445.00 1288.00 L 439.00 1277.00 L 417.00 1287.00 L 418.00 1285.00 L 442.00 1271.00 L 439.00 1272.00 L 409.00 1288.00 L 407.00 1287.00 L 433.00 1269.00 L 430.00 1268.00 L 398.00 1284.00 L 402.00 1281.00 L 442.00 1259.00 L 437.00 1259.00 L 387.00 1281.00 L 388.00 1278.00 L 440.00 1250.00 L 438.00 1249.00 L 382.00 1275.00 L 384.00 1272.00 L 444.00 1240.00 L 441.00 1238.00 L 375.00 1266.00 L 376.00 1264.00 L 444.00 1232.00 L 443.00 1229.00 L 373.00 1255.00 L 374.00 1253.00 L 446.00 1223.00 L 447.00 1221.00 L 377.00 1247.00 L 377.00 1245.00 L 447.00 1215.00 L 463.00 1205.00 L 425.00 1215.00 L 407.00 1217.00 L 409.00 1211.00 L 429.00 1201.00 L 467.00 1187.00 L 468.00 1185.00 L 432.00 1195.00 L 434.00 1193.00 L 474.00 1179.00 L 477.00 1177.00 L 443.00 1187.00 L 443.00 1184.00 L 477.00 1168.00 L 489.00 1156.00 L 479.00 1148.00 L 485.00 1142.00 L 507.00 1138.00 L 505.00 1136.00 L 479.00 1136.00 L 478.00 1132.00 L 502.00 1124.00 L 503.00 1121.00 L 481.00 1123.00 L 476.00 1123.00 L 488.00 1121.00 L 491.00 1119.00 L 485.00 1117.00 L 489.00 1113.00 L 503.00 1107.00 L 509.00 1101.00 L 507.00 1095.00 L 505.00 1089.00 L 503.00 1083.00 L 500.00 1074.00 Z" fill="black" stroke="black" stroke-width="1"/>
</svg>