<?xml version="1.0" encoding="UTF-8"?>
<svg xmlns="http://www.w3.org/2000/svg" viewBox="389.00 354.00 832.00 1453.00">
  <path d="M 570.00 1059.00 L 586.00 1041.00 L 597.00 1013.00 L 603.00 975.00 L 565.00 920.00 L 483.00 848.00 L 432.00 792.00 L 412.00 752.00 L 401.00 700.00 L 399.00 636.00 L 407.00 582.00 L 425.00 538.00 L 452.00 497.00 L 488.00 459.00 L 527.00 432.00 L 569.00 416.00 L 607.00 395.00 L 641.00 369.00 L 665.00 364.00 L 679.00 380.00 L 705.00 384.00 L 743.00 376.00 L 778.00 374.00 L 810.00 378.00 L 861.00 394.00 L 931.00 422.00 L 992.00 460.00 L 1044.00 508.00 L 1069.00 540.00 L 1067.00 556.00 L 1069.00 558.00 L 1075.00 546.00 L 1077.00 550.00 L 1075.00 570.00 L 1078.00 574.00 L 1086.00 562.00 L 1087.00 564.00 L 1081.00 580.00 L 1083.00 582.00 L 1093.00 570.00 L 1094.00 575.00 L 1086.00 597.00 L 1088.00 600.00 L 1100.00 584.00 L 1101.00 593.00 L 1091.00 627.00 L 1092.00 634.00 L 1104.00 614.00 L 1107.00 611.00 L 1101.00 625.00 L 1101.00 628.00 L 1107.00 620.00 L 1104.00 626.00 L 1092.00 646.00 L 1092.00 648.00 L 1104.00 632.00 L 1105.00 635.00 L 1095.00 657.00 L 1096.00 660.00 L 1108.00 644.00 L 1108.00 646.00 L 1096.00 666.00 L 1096.00 668.00 L 1108.00 652.00 L 1108.00 655.00 L 1096.00 677.00 L 1096.00 680.00 L 1108.00 664.00 L 1108.00 666.00 L 1096.00 686.00 L 1096.00 688.00 L 1108.00 672.00 L 1105.00 685.00 L 1087.00 727.00 L 1097.00 776.00 L 1135.00 832.00 L 1139.00 871.00 L 1109.00 893.00 L 1109.00 895.00 L 1139.00 877.00 L 1137.00 879.00 L 1103.00 901.00 L 1102.00 903.00 L 1134.00 885.00 L 1134.00 887.00 L 1102.00 909.00 L 1087.00 926.00 L 1089.00 938.00 L 1083.00 955.00 L 1069.00 977.00 L 1067.00 1009.00 L 1077.00 1051.00 L 1050.00 1092.00 L 986.00 1132.00 L 962.00 1160.00 L 978.00 1176.00 L 976.00 1177.00 L 956.00 1163.00 L 957.00 1165.00 L 979.00 1183.00 L 982.00 1197.00 L 966.00 1207.00 L 1028.00 1311.00 L 1168.00 1509.00 L 1165.00 1512.00 L 1019.00 1320.00 L 1019.00 1322.00 L 1165.00 1518.00 L 1211.00 1582.00 L 1157.00 1514.00 L 1157.00 1520.00 L 1211.00 1600.00 L 1164.00 1537.00 L 1016.00 1331.00 L 1016.00 1334.00 L 1164.00 1546.00 L 1203.00 1604.00 L 1133.00 1508.00 L 1133.00 1511.00 L 1203.00 1613.00 L 1201.00 1611.00 L 1127.00 1505.00 L 1126.00 1507.00 L 1198.00 1617.00 L 1195.00 1615.00 L 1117.00 1501.00 L 1116.00 1503.00 L 1192.00 1621.00 L 1188.00 1618.00 L 1104.00 1494.00 L 1103.00 1496.00 L 1185.00 1624.00 L 1153.00 1574.00 L 1007.00 1346.00 L 1006.00 1348.00 L 1150.00 1580.00 L 1178.00 1627.00 L 1090.00 1489.00 L 1089.00 1492.00 L 1175.00 1636.00 L 1172.00 1634.00 L 1080.00 1486.00 L 1079.00 1488.00 L 1169.00 1640.00 L 1166.00 1638.00 L 1070.00 1482.00 L 1068.00 1484.00 L 1160.00 1644.00 L 1136.00 1603.00 L 996.00 1361.00 L 994.00 1364.00 L 1130.00 1612.00 L 1150.00 1650.00 L 1054.00 1478.00 L 1052.00 1482.00 L 1144.00 1662.00 L 1141.00 1660.00 L 1043.00 1476.00 L 1042.00 1477.00 L 1138.00 1663.00 L 1120.00 1629.00 L 988.00 1375.00 L 985.00 1377.00 L 1111.00 1635.00 L 1110.00 1636.00 L 982.00 1380.00 L 979.00 1382.00 L 1101.00 1642.00 L 1112.00 1669.00 L 1012.00 1463.00 L 1008.00 1466.00 L 1100.00 1678.00 L 1098.00 1677.00 L 1002.00 1463.00 L 1000.00 1464.00 L 1092.00 1680.00 L 1135.00 1790.00 L 1129.00 1794.00 L 1080.00 1684.00 L 988.00 1460.00 L 986.00 1461.00 L 1074.00 1687.00 L 1065.00 1666.00 L 959.00 1398.00 L 958.00 1399.00 L 1062.00 1669.00 L 1069.00 1688.00 L 979.00 1456.00 L 978.00 1455.00 L 1066.00 1685.00 L 1105.00 1797.00 L 1095.00 1791.00 L 1043.00 1658.00 L 949.00 1398.00 L 946.00 1397.00 L 1034.00 1655.00 L 1033.00 1657.00 L 943.00 1403.00 L 938.00 1399.00 L 1018.00 1645.00 L 1018.00 1650.00 L 938.00 1414.00 L 932.00 1411.00 L 1000.00 1641.00 L 999.00 1638.00 L 929.00 1402.00 L 927.00 1400.00 L 993.00 1632.00 L 993.00 1634.00 L 927.00 1406.00 L 924.00 1404.00 L 984.00 1628.00 L 928.00 1692.00 L 756.00 1596.00 L 606.00 1525.00 L 478.00 1479.00 L 451.00 1362.00 L 525.00 1174.00 L 562.00 1077.00 L 562.00 1071.00 L 570.00 1059.00 Z" fill="black" stroke="black" stroke-width="1"/>
</svg>