<?xml version="1.0" encoding="UTF-8"?>
<svg xmlns="http://www.w3.org/2000/svg" viewBox="319.00 193.00 907.00 1653.00">
  <path d="M 538.00 1020.00 L 538.00 960.00 L 515.00 903.00 L 469.00 849.00 L 435.00 792.00 L 413.00 732.00 L 390.00 690.00 L 366.00 666.00 L 364.00 663.00 L 384.00 681.00 L 383.00 679.00 L 361.00 657.00 L 343.00 612.00 L 329.00 544.00 L 334.00 480.00 L 358.00 420.00 L 388.00 369.00 L 424.00 327.00 L 484.00 278.00 L 568.00 222.00 L 612.00 203.00 L 616.00 221.00 L 618.00 223.00 L 618.00 209.00 L 620.00 208.00 L 624.00 220.00 L 639.00 221.00 L 665.00 211.00 L 684.00 217.00 L 696.00 239.00 L 701.00 241.00 L 699.00 223.00 L 702.00 223.00 L 710.00 241.00 L 755.00 254.00 L 837.00 262.00 L 906.00 280.00 L 962.00 308.00 L 1012.00 347.00 L 1056.00 397.00 L 1084.00 446.00 L 1096.00 494.00 L 1099.00 525.00 L 1093.00 539.00 L 1094.00 542.00 L 1102.00 534.00 L 1103.00 538.00 L 1097.00 554.00 L 1098.00 556.00 L 1106.00 544.00 L 1106.00 546.00 L 1098.00 562.00 L 1099.00 563.00 L 1109.00 549.00 L 1110.00 553.00 L 1102.00 575.00 L 1104.00 578.00 L 1116.00 562.00 L 1116.00 566.00 L 1104.00 590.00 L 1105.00 592.00 L 1119.00 572.00 L 1119.00 575.00 L 1105.00 601.00 L 1106.00 603.00 L 1122.00 581.00 L 1122.00 591.00 L 1106.00 633.00 L 1114.00 688.00 L 1146.00 756.00 L 1152.00 799.00 L 1132.00 817.00 L 1132.00 820.00 L 1152.00 808.00 L 1151.00 810.00 L 1129.00 826.00 L 1127.00 829.00 L 1145.00 819.00 L 1145.00 821.00 L 1127.00 835.00 L 1121.00 853.00 L 1127.00 875.00 L 1123.00 907.00 L 1109.00 949.00 L 1105.00 984.00 L 1111.00 1012.00 L 1100.00 1037.00 L 1072.00 1059.00 L 1023.00 1073.00 L 953.00 1079.00 L 911.00 1086.00 L 897.00 1094.00 L 885.00 1110.00 L 875.00 1134.00 L 954.00 1254.00 L 1122.00 1470.00 L 1198.00 1569.00 L 1182.00 1551.00 L 1186.00 1558.00 L 1210.00 1590.00 L 1207.00 1587.00 L 1177.00 1549.00 L 1180.00 1553.00 L 1216.00 1599.00 L 1213.00 1596.00 L 1171.00 1544.00 L 1172.00 1547.00 L 1216.00 1605.00 L 1213.00 1602.00 L 1163.00 1538.00 L 1164.00 1542.00 L 1216.00 1614.00 L 1213.00 1612.00 L 1155.00 1536.00 L 1156.00 1539.00 L 1216.00 1621.00 L 1151.00 1535.00 L 961.00 1281.00 L 962.00 1284.00 L 1154.00 1544.00 L 1214.00 1627.00 L 1142.00 1533.00 L 1142.00 1536.00 L 1214.00 1636.00 L 1212.00 1634.00 L 1136.00 1530.00 L 1137.00 1532.00 L 1215.00 1640.00 L 1213.00 1639.00 L 1131.00 1529.00 L 1131.00 1532.00 L 1213.00 1648.00 L 1208.00 1643.00 L 1116.00 1517.00 L 1116.00 1520.00 L 1208.00 1652.00 L 1206.00 1651.00 L 1110.00 1517.00 L 1110.00 1520.00 L 1206.00 1660.00 L 1203.00 1658.00 L 1101.00 1514.00 L 1101.00 1518.00 L 1203.00 1670.00 L 1157.00 1601.00 L 963.00 1311.00 L 963.00 1313.00 L 1157.00 1607.00 L 1198.00 1672.00 L 1086.00 1508.00 L 1085.00 1515.00 L 1195.00 1693.00 L 1193.00 1692.00 L 1079.00 1512.00 L 1078.00 1513.00 L 1190.00 1695.00 L 1187.00 1693.00 L 1069.00 1507.00 L 1067.00 1512.00 L 1181.00 1708.00 L 1178.00 1706.00 L 1058.00 1506.00 L 1057.00 1508.00 L 1175.00 1712.00 L 1141.00 1655.00 L 955.00 1337.00 L 954.00 1339.00 L 1138.00 1661.00 L 1166.00 1713.00 L 1038.00 1495.00 L 1036.00 1499.00 L 1160.00 1725.00 L 1158.00 1724.00 L 1030.00 1496.00 L 1028.00 1499.00 L 1152.00 1733.00 L 1126.00 1685.00 L 950.00 1355.00 L 946.00 1360.00 L 1114.00 1700.00 L 1114.00 1703.00 L 946.00 1369.00 L 942.00 1373.00 L 1102.00 1715.00 L 1102.00 1717.00 L 942.00 1379.00 L 939.00 1381.00 L 1093.00 1723.00 L 1107.00 1755.00 L 981.00 1477.00 L 978.00 1480.00 L 1098.00 1764.00 L 1095.00 1761.00 L 969.00 1471.00 L 966.00 1473.00 L 1086.00 1767.00 L 1074.00 1741.00 L 930.00 1395.00 L 928.00 1396.00 L 1068.00 1744.00 L 1075.00 1763.00 L 949.00 1453.00 L 945.00 1451.00 L 1063.00 1757.00 L 1062.00 1756.00 L 942.00 1448.00 L 940.00 1446.00 L 1056.00 1750.00 L 1050.00 1735.00 L 922.00 1401.00 L 920.00 1400.00 L 1044.00 1732.00 L 1044.00 1734.00 L 920.00 1406.00 L 914.00 1402.00 L 1026.00 1722.00 L 1007.00 1836.00 L 857.00 1744.00 L 670.00 1657.00 L 446.00 1575.00 L 345.00 1494.00 L 367.00 1414.00 L 418.00 1295.00 L 498.00 1137.00 L 538.00 1056.00 L 538.00 1052.00 L 538.00 1020.00 Z" fill="black" stroke="black" stroke-width="1"/>
</svg>