<?xml version="1.0" encoding="UTF-8"?>
<svg xmlns="http://www.w3.org/2000/svg" viewBox="335.00 145.00 920.00 1659.00">
  <path d="M 426.00 980.00 L 434.00 936.00 L 448.00 891.00 L 468.00 845.00 L 470.00 807.00 L 454.00 777.00 L 442.00 749.00 L 434.00 723.00 L 428.00 693.00 L 424.00 659.00 L 411.00 610.00 L 389.00 546.00 L 380.00 485.00 L 384.00 427.00 L 393.00 380.00 L 407.00 344.00 L 424.00 313.00 L 444.00 287.00 L 465.00 265.00 L 487.00 247.00 L 520.00 226.00 L 564.00 202.00 L 603.00 184.00 L 637.00 172.00 L 674.00 163.00 L 714.00 157.00 L 763.00 155.00 L 821.00 157.00 L 864.00 160.00 L 892.00 164.00 L 926.00 174.00 L 966.00 190.00 L 994.00 205.00 L 1010.00 219.00 L 1036.00 250.00 L 1072.00 298.00 L 1094.00 334.00 L 1102.00 358.00 L 1109.00 373.00 L 1115.00 379.00 L 1117.00 389.00 L 1115.00 403.00 L 1117.00 405.00 L 1123.00 395.00 L 1124.00 396.00 L 1120.00 408.00 L 1120.00 416.00 L 1124.00 420.00 L 1129.00 417.00 L 1135.00 407.00 L 1135.00 410.00 L 1129.00 426.00 L 1130.00 429.00 L 1138.00 419.00 L 1139.00 421.00 L 1133.00 435.00 L 1134.00 436.00 L 1142.00 424.00 L 1143.00 427.00 L 1137.00 445.00 L 1138.00 450.00 L 1146.00 442.00 L 1147.00 444.00 L 1141.00 456.00 L 1143.00 459.00 L 1153.00 453.00 L 1155.00 456.00 L 1149.00 468.00 L 1148.00 471.00 L 1152.00 465.00 L 1153.00 467.00 L 1151.00 477.00 L 1154.00 477.00 L 1162.00 467.00 L 1163.00 469.00 L 1157.00 483.00 L 1156.00 496.00 L 1160.00 508.00 L 1162.00 537.00 L 1162.00 583.00 L 1183.00 642.00 L 1225.00 714.00 L 1229.00 763.00 L 1195.00 789.00 L 1195.00 792.00 L 1229.00 772.00 L 1245.00 763.00 L 1243.00 765.00 L 1225.00 777.00 L 1191.00 799.00 L 1190.00 801.00 L 1222.00 783.00 L 1222.00 787.00 L 1190.00 813.00 L 1176.00 834.00 L 1180.00 850.00 L 1177.00 863.00 L 1167.00 873.00 L 1163.00 884.00 L 1165.00 896.00 L 1160.00 912.00 L 1148.00 932.00 L 1144.00 956.00 L 1148.00 984.00 L 1147.00 1006.00 L 1141.00 1022.00 L 1129.00 1037.00 L 1111.00 1051.00 L 1094.00 1061.00 L 1078.00 1067.00 L 1079.00 1077.00 L 1097.00 1091.00 L 1105.00 1102.00 L 1103.00 1110.00 L 1097.00 1119.00 L 1087.00 1129.00 L 1092.00 1141.00 L 1112.00 1155.00 L 1111.00 1157.00 L 1089.00 1147.00 L 1092.00 1151.00 L 1120.00 1169.00 L 1119.00 1172.00 L 1089.00 1160.00 L 1088.00 1163.00 L 1116.00 1181.00 L 1116.00 1183.00 L 1088.00 1169.00 L 1085.00 1171.00 L 1107.00 1189.00 L 1114.00 1199.00 L 1106.00 1201.00 L 1130.00 1226.00 L 1186.00 1274.00 L 1190.00 1280.00 L 1142.00 1244.00 L 1143.00 1246.00 L 1193.00 1286.00 L 1186.00 1281.00 L 1122.00 1231.00 L 1122.00 1234.00 L 1186.00 1290.00 L 1198.00 1302.00 L 1158.00 1270.00 L 1155.00 1270.00 L 1189.00 1302.00 L 1199.00 1318.00 L 1185.00 1318.00 L 1154.00 1296.00 L 1106.00 1252.00 L 1103.00 1251.00 L 1145.00 1293.00 L 1142.00 1292.00 L 1094.00 1248.00 L 1091.00 1248.00 L 1133.00 1292.00 L 1134.00 1295.00 L 1094.00 1257.00 L 1092.00 1256.00 L 1128.00 1292.00 L 1130.00 1295.00 L 1098.00 1265.00 L 1094.00 1263.00 L 1118.00 1289.00 L 1120.00 1292.00 L 1100.00 1272.00 L 1098.00 1271.00 L 1114.00 1289.00 L 1115.00 1292.00 L 1101.00 1280.00 L 1114.00 1312.00 L 1154.00 1388.00 L 1185.00 1462.00 L 1207.00 1534.00 L 1221.00 1595.00 L 1227.00 1645.00 L 1227.00 1686.00 L 1221.00 1718.00 L 1213.00 1742.00 L 1203.00 1758.00 L 1188.00 1773.00 L 1168.00 1787.00 L 1146.00 1794.00 L 1122.00 1794.00 L 1092.00 1787.00 L 1056.00 1773.00 L 1010.00 1747.00 L 954.00 1709.00 L 884.00 1669.00 L 800.00 1627.00 L 757.00 1608.00 L 755.00 1612.00 L 751.00 1610.00 L 745.00 1602.00 L 741.00 1600.00 L 739.00 1604.00 L 725.00 1598.00 L 699.00 1582.00 L 640.00 1562.00 L 548.00 1538.00 L 494.00 1526.00 L 478.00 1526.00 L 437.00 1519.00 L 371.00 1505.00 L 345.00 1453.00 L 359.00 1363.00 L 374.00 1292.00 L 390.00 1240.00 L 399.00 1205.00 L 401.00 1187.00 L 408.00 1163.00 L 420.00 1133.00 L 423.00 1107.00 L 417.00 1085.00 L 416.00 1058.00 L 420.00 1026.00 L 422.00 1008.00 L 422.00 1004.00 L 426.00 980.00 Z" fill="black" stroke="black" stroke-width="1"/>
</svg>