<?xml version="1.0" encoding="UTF-8"?>
<svg xmlns="http://www.w3.org/2000/svg" viewBox="346.00 112.00 1054.00 1731.00">
  <path d="M 363.00 1042.00 L 433.00 1034.00 L 438.00 1027.00 L 378.00 1021.00 L 378.00 1018.00 L 438.00 1018.00 L 445.00 1011.00 L 399.00 997.00 L 400.00 990.00 L 448.00 990.00 L 448.00 985.00 L 400.00 975.00 L 400.00 971.00 L 448.00 973.00 L 447.00 968.00 L 397.00 956.00 L 397.00 953.00 L 447.00 959.00 L 447.00 954.00 L 397.00 938.00 L 398.00 934.00 L 450.00 942.00 L 449.00 934.00 L 395.00 910.00 L 395.00 907.00 L 449.00 925.00 L 449.00 922.00 L 395.00 898.00 L 396.00 895.00 L 452.00 913.00 L 452.00 909.00 L 396.00 883.00 L 397.00 879.00 L 455.00 897.00 L 455.00 889.00 L 397.00 855.00 L 398.00 851.00 L 458.00 877.00 L 458.00 874.00 L 398.00 842.00 L 369.00 774.00 L 371.00 670.00 L 385.00 552.00 L 411.00 420.00 L 439.00 322.00 L 469.00 258.00 L 514.00 203.00 L 574.00 157.00 L 637.00 130.00 L 703.00 122.00 L 780.00 124.00 L 868.00 136.00 L 954.00 160.00 L 1038.00 196.00 L 1079.00 223.00 L 1077.00 241.00 L 1083.00 247.00 L 1097.00 241.00 L 1102.00 248.00 L 1098.00 268.00 L 1100.00 272.00 L 1108.00 260.00 L 1110.00 263.00 L 1106.00 281.00 L 1108.00 284.00 L 1116.00 272.00 L 1130.00 294.00 L 1150.00 350.00 L 1164.00 411.00 L 1172.00 477.00 L 1203.00 543.00 L 1257.00 609.00 L 1267.00 659.00 L 1233.00 693.00 L 1232.00 699.00 L 1264.00 677.00 L 1264.00 680.00 L 1232.00 708.00 L 1221.00 727.00 L 1231.00 737.00 L 1231.00 758.00 L 1221.00 790.00 L 1221.00 832.00 L 1231.00 884.00 L 1213.00 928.00 L 1167.00 964.00 L 1153.00 989.00 L 1171.00 1003.00 L 1169.00 1023.00 L 1147.00 1049.00 L 1149.00 1066.00 L 1175.00 1074.00 L 1174.00 1078.00 L 1146.00 1078.00 L 1149.00 1080.00 L 1183.00 1084.00 L 1184.00 1086.00 L 1152.00 1086.00 L 1151.00 1089.00 L 1181.00 1095.00 L 1193.00 1102.00 L 1187.00 1110.00 L 1198.00 1126.00 L 1226.00 1150.00 L 1219.00 1158.00 L 1177.00 1150.00 L 1180.00 1153.00 L 1228.00 1167.00 L 1225.00 1167.00 L 1171.00 1153.00 L 1177.00 1155.00 L 1243.00 1173.00 L 1242.00 1175.00 L 1174.00 1161.00 L 1177.00 1165.00 L 1251.00 1187.00 L 1253.00 1188.00 L 1183.00 1168.00 L 1182.00 1171.00 L 1250.00 1197.00 L 1256.00 1202.00 L 1200.00 1186.00 L 1197.00 1187.00 L 1247.00 1205.00 L 1250.00 1209.00 L 1206.00 1199.00 L 1234.00 1277.00 L 1334.00 1443.00 L 1386.00 1579.00 L 1390.00 1685.00 L 1380.00 1761.00 L 1356.00 1807.00 L 1312.00 1831.00 L 1248.00 1833.00 L 1126.00 1800.00 L 946.00 1732.00 L 787.00 1680.00 L 649.00 1644.00 L 526.00 1623.00 L 418.00 1617.00 L 369.00 1579.00 L 379.00 1509.00 L 376.00 1482.00 L 360.00 1498.00 L 359.00 1495.00 L 373.00 1473.00 L 372.00 1470.00 L 356.00 1486.00 L 358.00 1481.00 L 378.00 1455.00 L 378.00 1451.00 L 358.00 1469.00 L 359.00 1466.00 L 381.00 1442.00 L 382.00 1437.00 L 362.00 1451.00 L 362.00 1448.00 L 382.00 1428.00 L 383.00 1424.00 L 365.00 1436.00 L 369.00 1419.00 L 395.00 1373.00 L 397.00 1358.00 L 375.00 1374.00 L 378.00 1365.00 L 406.00 1331.00 L 407.00 1322.00 L 381.00 1338.00 L 383.00 1331.00 L 413.00 1301.00 L 414.00 1295.00 L 386.00 1313.00 L 387.00 1310.00 L 417.00 1286.00 L 418.00 1281.00 L 390.00 1295.00 L 392.00 1289.00 L 424.00 1263.00 L 424.00 1259.00 L 392.00 1277.00 L 393.00 1274.00 L 427.00 1250.00 L 428.00 1245.00 L 396.00 1259.00 L 398.00 1254.00 L 434.00 1230.00 L 435.00 1224.00 L 401.00 1236.00 L 403.00 1229.00 L 441.00 1203.00 L 442.00 1197.00 L 406.00 1211.00 L 406.00 1208.00 L 442.00 1188.00 L 444.00 1181.00 L 412.00 1187.00 L 413.00 1183.00 L 447.00 1169.00 L 447.00 1166.00 L 413.00 1174.00 L 414.00 1170.00 L 450.00 1154.00 L 449.00 1151.00 L 411.00 1161.00 L 413.00 1158.00 L 455.00 1142.00 L 455.00 1139.00 L 413.00 1149.00 L 414.00 1145.00 L 458.00 1127.00 L 458.00 1123.00 L 414.00 1133.00 L 412.00 1130.00 L 452.00 1114.00 L 447.00 1107.00 L 397.00 1109.00 L 397.00 1106.00 L 447.00 1098.00 L 440.00 1094.00 L 376.00 1094.00 L 375.00 1090.00 L 437.00 1082.00 L 433.00 1075.00 L 363.00 1069.00 L 360.00 1062.00 L 424.00 1054.00 L 424.00 1049.00 L 360.00 1047.00 L 363.00 1042.00 Z" fill="black" stroke="black" stroke-width="1"/>
</svg>