<?xml version="1.0" encoding="UTF-8"?>
<svg xmlns="http://www.w3.org/2000/svg" viewBox="258.00 198.00 950.00 1465.00">
  <path d="M 343.00 878.00 L 345.00 862.00 L 341.00 838.00 L 331.00 806.00 L 329.00 780.00 L 335.00 760.00 L 327.00 744.00 L 305.00 732.00 L 292.00 722.00 L 288.00 714.00 L 305.00 679.00 L 343.00 617.00 L 363.00 553.00 L 365.00 487.00 L 360.00 442.00 L 348.00 418.00 L 349.00 415.00 L 363.00 433.00 L 363.00 431.00 L 349.00 409.00 L 349.00 408.00 L 363.00 428.00 L 365.00 425.00 L 355.00 399.00 L 357.00 396.00 L 371.00 416.00 L 374.00 412.00 L 366.00 384.00 L 368.00 379.00 L 380.00 397.00 L 382.00 396.00 L 374.00 376.00 L 375.00 374.00 L 385.00 390.00 L 387.00 389.00 L 381.00 371.00 L 383.00 369.00 L 393.00 383.00 L 395.00 382.00 L 389.00 366.00 L 400.00 344.00 L 428.00 316.00 L 498.00 280.00 L 610.00 236.00 L 703.00 212.00 L 777.00 208.00 L 835.00 210.00 L 877.00 218.00 L 911.00 228.00 L 937.00 240.00 L 978.00 278.00 L 1034.00 342.00 L 1090.00 382.00 L 1146.00 398.00 L 1175.00 409.00 L 1177.00 415.00 L 1172.00 428.00 L 1160.00 448.00 L 1165.00 492.00 L 1187.00 560.00 L 1198.00 616.00 L 1198.00 660.00 L 1148.00 704.00 L 1048.00 748.00 L 1047.00 751.00 L 1145.00 713.00 L 1144.00 715.00 L 1044.00 757.00 L 1042.00 761.00 L 1138.00 727.00 L 1137.00 728.00 L 1039.00 764.00 L 1038.00 766.00 L 1134.00 734.00 L 1132.00 736.00 L 1032.00 772.00 L 1030.00 775.00 L 1126.00 745.00 L 1124.00 747.00 L 1024.00 781.00 L 1023.00 783.00 L 1121.00 753.00 L 1120.00 755.00 L 1020.00 789.00 L 1020.00 791.00 L 1120.00 761.00 L 1118.00 763.00 L 1014.00 797.00 L 1012.00 800.00 L 1112.00 772.00 L 1132.00 768.00 L 1072.00 788.00 L 1070.00 791.00 L 1126.00 777.00 L 1104.00 784.00 L 1004.00 812.00 L 1001.00 815.00 L 1095.00 793.00 L 1092.00 796.00 L 992.00 824.00 L 929.00 844.00 L 903.00 856.00 L 895.00 862.00 L 905.00 862.00 L 904.00 865.00 L 892.00 871.00 L 885.00 878.00 L 883.00 886.00 L 883.00 926.00 L 885.00 998.00 L 906.00 1094.00 L 946.00 1214.00 L 964.00 1300.00 L 960.00 1352.00 L 947.00 1385.00 L 925.00 1399.00 L 889.00 1409.00 L 839.00 1415.00 L 776.00 1428.00 L 700.00 1448.00 L 614.00 1478.00 L 518.00 1518.00 L 491.00 1467.00 L 533.00 1325.00 L 530.00 1326.00 L 482.00 1470.00 L 483.00 1464.00 L 533.00 1308.00 L 530.00 1310.00 L 474.00 1470.00 L 474.00 1468.00 L 530.00 1304.00 L 527.00 1306.00 L 465.00 1474.00 L 466.00 1468.00 L 530.00 1288.00 L 526.00 1290.00 L 454.00 1474.00 L 454.00 1471.00 L 526.00 1281.00 L 522.00 1283.00 L 442.00 1477.00 L 441.00 1475.00 L 519.00 1277.00 L 517.00 1278.00 L 435.00 1478.00 L 413.00 1528.00 L 451.00 1428.00 L 447.00 1431.00 L 401.00 1537.00 L 423.00 1484.00 L 513.00 1272.00 L 511.00 1273.00 L 417.00 1487.00 L 392.00 1542.00 L 436.00 1438.00 L 434.00 1439.00 L 386.00 1545.00 L 360.00 1600.00 L 356.00 1604.00 L 378.00 1552.00 L 426.00 1444.00 L 424.00 1445.00 L 372.00 1555.00 L 398.00 1496.00 L 502.00 1268.00 L 497.00 1271.00 L 383.00 1505.00 L 383.00 1502.00 L 497.00 1262.00 L 494.00 1265.00 L 374.00 1511.00 L 374.00 1510.00 L 494.00 1262.00 L 492.00 1263.00 L 368.00 1513.00 L 333.00 1582.00 L 387.00 1470.00 L 384.00 1473.00 L 324.00 1591.00 L 292.00 1651.00 L 288.00 1653.00 L 315.00 1595.00 L 373.00 1477.00 L 371.00 1477.00 L 309.00 1595.00 L 346.00 1522.00 L 482.00 1258.00 L 481.00 1255.00 L 343.00 1513.00 L 302.00 1588.00 L 358.00 1480.00 L 358.00 1478.00 L 302.00 1582.00 L 300.00 1583.00 L 352.00 1481.00 L 352.00 1476.00 L 300.00 1568.00 L 297.00 1570.00 L 343.00 1482.00 L 342.00 1479.00 L 294.00 1561.00 L 339.00 1481.00 L 477.00 1239.00 L 476.00 1237.00 L 336.00 1475.00 L 336.00 1473.00 L 476.00 1231.00 L 475.00 1226.00 L 333.00 1458.00 L 280.00 1544.00 L 316.00 1484.00 L 316.00 1481.00 L 280.00 1535.00 L 277.00 1537.00 L 307.00 1487.00 L 306.00 1484.00 L 274.00 1528.00 L 268.00 1532.00 L 288.00 1496.00 L 288.00 1493.00 L 268.00 1523.00 L 329.00 1428.00 L 471.00 1208.00 L 472.00 1205.00 L 332.00 1419.00 L 331.00 1417.00 L 469.00 1199.00 L 527.00 1073.00 L 505.00 1039.00 L 463.00 1005.00 L 401.00 971.00 L 362.00 940.00 L 346.00 912.00 L 339.00 895.00 L 341.00 889.00 L 343.00 878.00 Z" fill="black" stroke="black" stroke-width="1"/>
</svg>