<?xml version="1.0" encoding="UTF-8"?>
<svg xmlns="http://www.w3.org/2000/svg" viewBox="354.00 230.00 862.00 1392.00">
  <path d="M 468.00 836.00 L 480.00 808.00 L 498.00 788.00 L 522.00 776.00 L 520.00 754.00 L 492.00 722.00 L 485.00 708.00 L 499.00 712.00 L 496.00 709.00 L 476.00 699.00 L 460.00 681.00 L 448.00 655.00 L 449.00 646.00 L 463.00 654.00 L 459.00 646.00 L 437.00 622.00 L 424.00 594.00 L 420.00 562.00 L 422.00 542.00 L 430.00 534.00 L 433.00 520.00 L 431.00 500.00 L 433.00 492.00 L 439.00 496.00 L 440.00 490.00 L 436.00 474.00 L 446.00 468.00 L 470.00 472.00 L 478.00 468.00 L 470.00 456.00 L 473.00 455.00 L 487.00 465.00 L 489.00 463.00 L 479.00 449.00 L 482.00 448.00 L 498.00 460.00 L 509.00 462.00 L 515.00 454.00 L 511.00 430.00 L 497.00 390.00 L 500.00 385.00 L 520.00 415.00 L 520.00 411.00 L 500.00 373.00 L 504.00 372.00 L 532.00 408.00 L 534.00 405.00 L 510.00 363.00 L 513.00 363.00 L 543.00 405.00 L 545.00 402.00 L 519.00 354.00 L 519.00 350.00 L 545.00 390.00 L 548.00 388.00 L 528.00 344.00 L 529.00 341.00 L 551.00 379.00 L 553.00 379.00 L 535.00 341.00 L 538.00 340.00 L 562.00 376.00 L 567.00 374.00 L 553.00 334.00 L 556.00 334.00 L 576.00 374.00 L 580.00 374.00 L 568.00 334.00 L 573.00 333.00 L 595.00 371.00 L 602.00 372.00 L 594.00 336.00 L 594.00 328.00 L 602.00 348.00 L 605.00 347.00 L 603.00 325.00 L 606.00 325.00 L 614.00 347.00 L 617.00 346.00 L 615.00 322.00 L 617.00 317.00 L 623.00 331.00 L 626.00 330.00 L 626.00 314.00 L 630.00 315.00 L 638.00 333.00 L 641.00 334.00 L 639.00 318.00 L 642.00 319.00 L 650.00 337.00 L 652.00 335.00 L 648.00 313.00 L 651.00 316.00 L 661.00 344.00 L 664.00 346.00 L 660.00 322.00 L 661.00 319.00 L 667.00 337.00 L 669.00 336.00 L 667.00 316.00 L 668.00 314.00 L 672.00 330.00 L 675.00 331.00 L 677.00 317.00 L 680.00 316.00 L 684.00 328.00 L 690.00 322.00 L 698.00 298.00 L 704.00 292.00 L 708.00 304.00 L 718.00 294.00 L 734.00 262.00 L 748.00 244.00 L 760.00 240.00 L 787.00 247.00 L 829.00 265.00 L 870.00 270.00 L 910.00 262.00 L 954.00 278.00 L 1002.00 318.00 L 1035.00 339.00 L 1053.00 341.00 L 1060.00 350.00 L 1056.00 366.00 L 1059.00 368.00 L 1069.00 356.00 L 1070.00 358.00 L 1062.00 374.00 L 1063.00 376.00 L 1073.00 364.00 L 1075.00 365.00 L 1069.00 379.00 L 1069.00 381.00 L 1075.00 371.00 L 1092.00 401.00 L 1120.00 471.00 L 1136.00 531.00 L 1140.00 581.00 L 1161.00 631.00 L 1199.00 681.00 L 1205.00 716.00 L 1179.00 736.00 L 1167.00 760.00 L 1169.00 788.00 L 1160.00 816.00 L 1140.00 844.00 L 1128.00 878.00 L 1124.00 918.00 L 1113.00 946.00 L 1095.00 962.00 L 1091.00 980.00 L 1101.00 1000.00 L 1097.00 1019.00 L 1079.00 1037.00 L 1079.00 1055.00 L 1097.00 1073.00 L 1095.00 1077.00 L 1073.00 1067.00 L 1089.00 1090.00 L 1143.00 1146.00 L 1144.00 1153.00 L 1092.00 1111.00 L 1093.00 1114.00 L 1147.00 1162.00 L 1153.00 1171.00 L 1111.00 1141.00 L 1107.00 1142.00 L 1141.00 1174.00 L 1149.00 1183.00 L 1131.00 1169.00 L 1127.00 1169.00 L 1137.00 1183.00 L 1134.00 1189.00 L 1118.00 1187.00 L 1092.00 1172.00 L 1056.00 1144.00 L 1077.00 1215.00 L 1155.00 1385.00 L 1198.00 1489.00 L 1206.00 1527.00 L 1204.00 1558.00 L 1192.00 1582.00 L 1173.00 1599.00 L 1147.00 1609.00 L 1112.00 1612.00 L 1068.00 1608.00 L 982.00 1584.00 L 854.00 1540.00 L 683.00 1496.00 L 469.00 1452.00 L 364.00 1392.00 L 368.00 1316.00 L 387.00 1229.00 L 421.00 1131.00 L 445.00 1074.00 L 459.00 1058.00 L 467.00 1040.00 L 469.00 1020.00 L 465.00 1002.00 L 455.00 986.00 L 453.00 949.00 L 459.00 891.00 L 462.00 859.00 L 462.00 853.00 L 468.00 836.00 Z" fill="black" stroke="black" stroke-width="1"/>
</svg>