<?xml version="1.0" encoding="UTF-8"?>
<svg xmlns="http://www.w3.org/2000/svg" viewBox="313.00 348.00 847.00 1441.00">
  <path d="M 403.00 1067.00 L 405.00 1037.00 L 409.00 1014.00 L 415.00 998.00 L 423.00 990.00 L 433.00 990.00 L 434.00 988.00 L 426.00 984.00 L 425.00 982.00 L 431.00 982.00 L 434.00 979.00 L 434.00 973.00 L 411.00 924.00 L 365.00 832.00 L 338.00 767.00 L 330.00 729.00 L 328.00 687.00 L 332.00 641.00 L 338.00 606.00 L 346.00 582.00 L 366.00 544.00 L 398.00 492.00 L 422.00 458.00 L 438.00 442.00 L 464.00 422.00 L 500.00 398.00 L 527.00 382.00 L 545.00 374.00 L 563.00 370.00 L 581.00 370.00 L 596.00 367.00 L 608.00 361.00 L 625.00 358.00 L 647.00 358.00 L 666.00 361.00 L 682.00 367.00 L 697.00 368.00 L 711.00 364.00 L 725.00 363.00 L 739.00 365.00 L 778.00 380.00 L 842.00 408.00 L 885.00 436.00 L 907.00 464.00 L 924.00 482.00 L 936.00 490.00 L 941.00 500.00 L 939.00 512.00 L 941.00 513.00 L 947.00 503.00 L 948.00 505.00 L 944.00 519.00 L 946.00 521.00 L 954.00 511.00 L 956.00 514.00 L 952.00 530.00 L 954.00 531.00 L 962.00 517.00 L 967.00 511.00 L 969.00 513.00 L 967.00 523.00 L 961.00 541.00 L 962.00 542.00 L 970.00 526.00 L 971.00 529.00 L 965.00 551.00 L 966.00 553.00 L 974.00 535.00 L 975.00 536.00 L 969.00 556.00 L 970.00 558.00 L 978.00 542.00 L 979.00 543.00 L 973.00 561.00 L 974.00 564.00 L 982.00 552.00 L 982.00 555.00 L 974.00 573.00 L 974.00 576.00 L 982.00 564.00 L 983.00 567.00 L 977.00 585.00 L 979.00 609.00 L 989.00 639.00 L 993.00 667.00 L 991.00 693.00 L 992.00 712.00 L 996.00 724.00 L 1010.00 741.00 L 1034.00 763.00 L 1060.00 795.00 L 1088.00 837.00 L 1102.00 863.00 L 1102.00 873.00 L 1089.00 886.00 L 1063.00 902.00 L 1063.00 903.00 L 1089.00 889.00 L 1087.00 891.00 L 1057.00 909.00 L 1055.00 912.00 L 1081.00 900.00 L 1081.00 902.00 L 1055.00 918.00 L 1042.00 931.00 L 1042.00 941.00 L 1039.00 948.00 L 1033.00 952.00 L 1030.00 958.00 L 1030.00 966.00 L 1025.00 976.00 L 1015.00 988.00 L 1013.00 1003.00 L 1019.00 1021.00 L 1022.00 1037.00 L 1022.00 1051.00 L 1018.00 1063.00 L 1010.00 1073.00 L 999.00 1081.00 L 985.00 1087.00 L 982.00 1094.00 L 990.00 1102.00 L 994.00 1109.00 L 994.00 1115.00 L 990.00 1122.00 L 982.00 1130.00 L 977.00 1142.00 L 975.00 1158.00 L 981.00 1172.00 L 995.00 1184.00 L 994.00 1187.00 L 978.00 1181.00 L 979.00 1182.00 L 997.00 1190.00 L 1006.00 1196.00 L 1006.00 1200.00 L 996.00 1198.00 L 976.00 1190.00 L 977.00 1193.00 L 999.00 1207.00 L 1007.00 1220.00 L 1001.00 1232.00 L 992.00 1238.00 L 980.00 1238.00 L 973.00 1240.00 L 971.00 1244.00 L 970.00 1251.00 L 970.00 1261.00 L 973.00 1272.00 L 979.00 1284.00 L 981.00 1295.00 L 979.00 1305.00 L 992.00 1330.00 L 1020.00 1370.00 L 1045.00 1410.00 L 1067.00 1450.00 L 1077.00 1469.00 L 1075.00 1467.00 L 1093.00 1515.00 L 1131.00 1613.00 L 1150.00 1676.00 L 1150.00 1704.00 L 1148.00 1723.00 L 1144.00 1733.00 L 1139.00 1737.00 L 1133.00 1735.00 L 1130.00 1738.00 L 1130.00 1746.00 L 1128.00 1747.00 L 1124.00 1741.00 L 1122.00 1744.00 L 1122.00 1756.00 L 1116.00 1767.00 L 1104.00 1777.00 L 1086.00 1779.00 L 1062.00 1773.00 L 1024.00 1752.00 L 972.00 1716.00 L 923.00 1685.00 L 877.00 1659.00 L 818.00 1628.00 L 746.00 1592.00 L 687.00 1565.00 L 641.00 1547.00 L 584.00 1530.00 L 516.00 1514.00 L 443.00 1503.00 L 365.00 1497.00 L 325.00 1491.00 L 323.00 1485.00 L 326.00 1467.00 L 334.00 1437.00 L 351.00 1410.00 L 377.00 1386.00 L 378.00 1383.00 L 354.00 1401.00 L 352.00 1401.00 L 372.00 1383.00 L 373.00 1380.00 L 355.00 1392.00 L 353.00 1392.00 L 367.00 1380.00 L 367.00 1379.00 L 353.00 1389.00 L 350.00 1390.00 L 358.00 1382.00 L 359.00 1379.00 L 353.00 1381.00 L 354.00 1378.00 L 362.00 1370.00 L 363.00 1368.00 L 357.00 1372.00 L 358.00 1368.00 L 366.00 1356.00 L 367.00 1351.00 L 361.00 1353.00 L 362.00 1351.00 L 370.00 1345.00 L 371.00 1342.00 L 365.00 1342.00 L 374.00 1311.00 L 398.00 1249.00 L 408.00 1207.00 L 404.00 1185.00 L 402.00 1154.00 L 402.00 1114.00 L 402.00 1091.00 L 402.00 1085.00 L 403.00 1067.00 Z" fill="black" stroke="black" stroke-width="1"/>
</svg>