<?xml version="1.0" encoding="UTF-8"?>
<svg xmlns="http://www.w3.org/2000/svg" viewBox="305.00 269.00 854.00 1491.00">
  <path d="M 441.00 1004.00 L 447.00 984.00 L 456.00 963.00 L 468.00 941.00 L 467.00 927.00 L 453.00 921.00 L 453.00 920.00 L 467.00 924.00 L 466.00 922.00 L 450.00 914.00 L 447.00 902.00 L 457.00 886.00 L 464.00 868.00 L 468.00 848.00 L 468.00 833.00 L 464.00 823.00 L 447.00 796.00 L 417.00 752.00 L 399.00 723.00 L 393.00 709.00 L 390.00 698.00 L 390.00 690.00 L 385.00 667.00 L 375.00 629.00 L 370.00 601.00 L 370.00 583.00 L 373.00 560.00 L 379.00 532.00 L 393.00 496.00 L 415.00 452.00 L 435.00 418.00 L 453.00 394.00 L 473.00 372.00 L 495.00 352.00 L 518.00 334.00 L 542.00 318.00 L 571.00 303.00 L 605.00 289.00 L 629.00 281.00 L 643.00 279.00 L 658.00 281.00 L 674.00 287.00 L 695.00 289.00 L 721.00 287.00 L 747.00 287.00 L 773.00 289.00 L 787.00 288.00 L 789.00 284.00 L 793.00 282.00 L 799.00 282.00 L 808.00 283.00 L 820.00 285.00 L 839.00 291.00 L 865.00 301.00 L 900.00 322.00 L 944.00 354.00 L 974.00 378.00 L 990.00 394.00 L 1005.00 412.00 L 1019.00 432.00 L 1026.00 444.00 L 1026.00 448.00 L 1027.00 449.00 L 1029.00 447.00 L 1033.00 450.00 L 1039.00 458.00 L 1045.00 472.00 L 1051.00 492.00 L 1053.00 505.00 L 1051.00 511.00 L 1055.00 526.00 L 1065.00 550.00 L 1069.00 572.00 L 1067.00 592.00 L 1067.00 609.00 L 1069.00 623.00 L 1077.00 638.00 L 1091.00 654.00 L 1103.00 672.00 L 1113.00 692.00 L 1124.00 710.00 L 1136.00 726.00 L 1142.00 738.00 L 1142.00 746.00 L 1128.00 761.00 L 1100.00 783.00 L 1099.00 785.00 L 1125.00 767.00 L 1126.00 769.00 L 1102.00 791.00 L 1092.00 810.00 L 1096.00 826.00 L 1097.00 843.00 L 1095.00 861.00 L 1091.00 877.00 L 1085.00 891.00 L 1082.00 902.00 L 1082.00 910.00 L 1085.00 921.00 L 1091.00 935.00 L 1094.00 947.00 L 1094.00 957.00 L 1092.00 966.00 L 1088.00 974.00 L 1081.00 983.00 L 1071.00 993.00 L 1043.00 1000.00 L 997.00 1004.00 L 994.00 1005.00 L 1034.00 1003.00 L 1032.00 1004.00 L 988.00 1008.00 L 963.00 1012.00 L 957.00 1016.00 L 962.00 1022.00 L 978.00 1030.00 L 985.00 1039.00 L 983.00 1049.00 L 977.00 1059.00 L 967.00 1069.00 L 968.00 1078.00 L 980.00 1086.00 L 979.00 1088.00 L 965.00 1084.00 L 969.00 1087.00 L 991.00 1097.00 L 991.00 1099.00 L 969.00 1093.00 L 969.00 1095.00 L 991.00 1105.00 L 990.00 1106.00 L 966.00 1098.00 L 954.00 1095.00 L 954.00 1097.00 L 966.00 1104.00 L 990.00 1116.00 L 997.00 1125.00 L 987.00 1131.00 L 1004.00 1147.00 L 1048.00 1173.00 L 1047.00 1174.00 L 1001.00 1150.00 L 1000.00 1152.00 L 1044.00 1180.00 L 1057.00 1189.00 L 1039.00 1179.00 L 1037.00 1181.00 L 1051.00 1195.00 L 1048.00 1203.00 L 1028.00 1205.00 L 1012.00 1203.00 L 1000.00 1197.00 L 993.00 1195.00 L 991.00 1197.00 L 998.00 1213.00 L 1014.00 1243.00 L 1034.00 1275.00 L 1058.00 1309.00 L 1069.00 1325.00 L 1067.00 1323.00 L 1073.00 1335.00 L 1087.00 1361.00 L 1104.00 1408.00 L 1124.00 1476.00 L 1133.00 1509.00 L 1131.00 1507.00 L 1134.00 1524.00 L 1142.00 1560.00 L 1147.00 1596.00 L 1149.00 1632.00 L 1144.00 1660.00 L 1132.00 1680.00 L 1119.00 1698.00 L 1105.00 1714.00 L 1085.00 1729.00 L 1059.00 1743.00 L 1039.00 1750.00 L 1025.00 1750.00 L 1010.00 1747.00 L 994.00 1741.00 L 970.00 1729.00 L 938.00 1711.00 L 893.00 1684.00 L 835.00 1648.00 L 798.00 1623.00 L 782.00 1609.00 L 740.00 1584.00 L 672.00 1548.00 L 603.00 1516.00 L 533.00 1488.00 L 480.00 1469.00 L 444.00 1459.00 L 405.00 1451.00 L 363.00 1445.00 L 336.00 1440.00 L 324.00 1436.00 L 317.00 1432.00 L 315.00 1428.00 L 315.00 1413.00 L 317.00 1387.00 L 323.00 1350.00 L 333.00 1302.00 L 343.00 1263.00 L 353.00 1233.00 L 365.00 1205.00 L 379.00 1179.00 L 391.00 1160.00 L 401.00 1148.00 L 408.00 1135.00 L 412.00 1121.00 L 417.00 1111.00 L 423.00 1105.00 L 425.00 1096.00 L 423.00 1084.00 L 425.00 1065.00 L 431.00 1039.00 L 435.00 1023.00 L 437.00 1017.00 L 441.00 1004.00 Z" fill="black" stroke="black" stroke-width="1"/>
</svg>