<?xml version="1.0" encoding="UTF-8"?>
<svg xmlns="http://www.w3.org/2000/svg" viewBox="431.00 278.00 783.00 1502.00">
  <path d="M 523.00 1051.00 L 517.00 1041.00 L 517.00 1032.00 L 523.00 1024.00 L 514.00 1006.00 L 490.00 978.00 L 480.00 922.00 L 484.00 838.00 L 472.00 784.00 L 444.00 760.00 L 444.00 758.00 L 472.00 778.00 L 471.00 776.00 L 441.00 752.00 L 442.00 750.00 L 474.00 770.00 L 474.00 765.00 L 442.00 735.00 L 450.00 691.00 L 498.00 633.00 L 526.00 586.00 L 534.00 550.00 L 554.00 505.00 L 586.00 451.00 L 641.00 395.00 L 719.00 337.00 L 788.00 303.00 L 848.00 293.00 L 891.00 288.00 L 917.00 288.00 L 956.00 297.00 L 1008.00 315.00 L 1057.00 338.00 L 1103.00 366.00 L 1137.00 392.00 L 1159.00 416.00 L 1180.00 461.00 L 1200.00 527.00 L 1204.00 636.00 L 1192.00 788.00 L 1188.00 889.00 L 1192.00 939.00 L 1169.00 972.00 L 1119.00 988.00 L 1119.00 991.00 L 1169.00 981.00 L 1169.00 983.00 L 1119.00 997.00 L 1119.00 1000.00 L 1169.00 992.00 L 1169.00 995.00 L 1119.00 1009.00 L 1119.00 1012.00 L 1169.00 1004.00 L 1169.00 1007.00 L 1119.00 1021.00 L 1118.00 1026.00 L 1166.00 1022.00 L 1166.00 1024.00 L 1118.00 1032.00 L 1118.00 1035.00 L 1166.00 1033.00 L 1166.00 1036.00 L 1118.00 1044.00 L 1118.00 1049.00 L 1166.00 1051.00 L 1166.00 1054.00 L 1118.00 1058.00 L 1117.00 1062.00 L 1163.00 1066.00 L 1162.00 1069.00 L 1114.00 1071.00 L 1114.00 1074.00 L 1162.00 1078.00 L 1170.00 1081.00 L 1138.00 1083.00 L 1138.00 1086.00 L 1170.00 1090.00 L 1162.00 1091.00 L 1114.00 1089.00 L 1118.00 1095.00 L 1174.00 1109.00 L 1174.00 1112.00 L 1118.00 1104.00 L 1122.00 1106.00 L 1186.00 1118.00 L 1187.00 1121.00 L 1125.00 1115.00 L 1128.00 1120.00 L 1196.00 1136.00 L 1197.00 1139.00 L 1131.00 1129.00 L 1127.00 1133.00 L 1185.00 1151.00 L 1186.00 1153.00 L 1130.00 1139.00 L 1125.00 1139.00 L 1171.00 1153.00 L 1172.00 1156.00 L 1128.00 1148.00 L 1132.00 1155.00 L 1184.00 1177.00 L 1186.00 1182.00 L 1138.00 1170.00 L 1134.00 1174.00 L 1174.00 1194.00 L 1175.00 1197.00 L 1137.00 1183.00 L 1135.00 1184.00 L 1169.00 1200.00 L 1169.00 1203.00 L 1135.00 1193.00 L 1132.00 1196.00 L 1160.00 1212.00 L 1160.00 1214.00 L 1132.00 1202.00 L 1132.00 1205.00 L 1160.00 1223.00 L 1160.00 1226.00 L 1132.00 1214.00 L 1133.00 1218.00 L 1163.00 1238.00 L 1171.00 1245.00 L 1157.00 1239.00 L 1157.00 1242.00 L 1171.00 1254.00 L 1163.00 1251.00 L 1133.00 1233.00 L 1134.00 1236.00 L 1166.00 1260.00 L 1169.00 1266.00 L 1143.00 1254.00 L 1143.00 1257.00 L 1169.00 1275.00 L 1170.00 1278.00 L 1146.00 1266.00 L 1146.00 1271.00 L 1170.00 1293.00 L 1173.00 1299.00 L 1155.00 1289.00 L 1156.00 1292.00 L 1176.00 1308.00 L 1177.00 1311.00 L 1159.00 1301.00 L 1163.00 1313.00 L 1189.00 1347.00 L 1192.00 1357.00 L 1172.00 1343.00 L 1173.00 1346.00 L 1195.00 1366.00 L 1197.00 1368.00 L 1179.00 1352.00 L 1178.00 1353.00 L 1194.00 1371.00 L 1193.00 1373.00 L 1175.00 1359.00 L 1173.00 1359.00 L 1187.00 1373.00 L 1190.00 1378.00 L 1182.00 1374.00 L 1183.00 1395.00 L 1193.00 1441.00 L 1153.00 1465.00 L 1063.00 1467.00 L 989.00 1478.00 L 931.00 1498.00 L 857.00 1536.00 L 767.00 1592.00 L 687.00 1654.00 L 617.00 1722.00 L 573.00 1760.00 L 555.00 1768.00 L 532.00 1770.00 L 504.00 1766.00 L 479.00 1738.00 L 457.00 1686.00 L 450.00 1630.00 L 458.00 1570.00 L 468.00 1513.00 L 480.00 1459.00 L 512.00 1383.00 L 564.00 1285.00 L 591.00 1226.00 L 593.00 1206.00 L 578.00 1202.00 L 546.00 1214.00 L 550.00 1208.00 L 590.00 1184.00 L 593.00 1179.00 L 559.00 1193.00 L 558.00 1190.00 L 590.00 1170.00 L 595.00 1163.00 L 573.00 1169.00 L 572.00 1167.00 L 592.00 1157.00 L 593.00 1155.00 L 575.00 1161.00 L 574.00 1158.00 L 590.00 1146.00 L 583.00 1140.00 L 553.00 1140.00 L 545.00 1134.00 L 559.00 1122.00 L 557.00 1104.00 L 539.00 1080.00 L 529.00 1065.00 L 527.00 1059.00 L 523.00 1051.00 Z" fill="black" stroke="black" stroke-width="1"/>
</svg>