<?xml version="1.0" encoding="UTF-8"?>
<svg xmlns="http://www.w3.org/2000/svg" viewBox="120.00 233.00 1005.00 1405.00">
  <path d="M 489.00 876.00 L 463.00 848.00 L 389.00 816.00 L 267.00 780.00 L 264.00 777.00 L 380.00 807.00 L 377.00 804.00 L 255.00 768.00 L 254.00 766.00 L 374.00 798.00 L 369.00 794.00 L 239.00 754.00 L 237.00 752.00 L 363.00 788.00 L 359.00 783.00 L 225.00 737.00 L 224.00 735.00 L 356.00 777.00 L 355.00 774.00 L 221.00 726.00 L 219.00 723.00 L 349.00 765.00 L 345.00 757.00 L 207.00 699.00 L 206.00 696.00 L 342.00 748.00 L 341.00 745.00 L 203.00 687.00 L 202.00 685.00 L 338.00 739.00 L 337.00 736.00 L 199.00 676.00 L 198.00 673.00 L 334.00 727.00 L 334.00 723.00 L 198.00 661.00 L 130.00 608.00 L 130.00 564.00 L 157.00 509.00 L 211.00 443.00 L 232.00 391.00 L 220.00 353.00 L 222.00 335.00 L 238.00 337.00 L 259.00 323.00 L 285.00 293.00 L 307.00 279.00 L 325.00 281.00 L 350.00 269.00 L 382.00 243.00 L 409.00 250.00 L 431.00 290.00 L 434.00 291.00 L 418.00 253.00 L 420.00 252.00 L 440.00 288.00 L 444.00 290.00 L 432.00 258.00 L 434.00 257.00 L 450.00 287.00 L 497.00 295.00 L 575.00 281.00 L 655.00 276.00 L 737.00 280.00 L 824.00 295.00 L 916.00 321.00 L 978.00 348.00 L 1010.00 376.00 L 1024.00 398.00 L 1020.00 414.00 L 1023.00 416.00 L 1033.00 404.00 L 1034.00 406.00 L 1026.00 422.00 L 1029.00 425.00 L 1043.00 415.00 L 1046.00 420.00 L 1038.00 440.00 L 1040.00 442.00 L 1052.00 426.00 L 1053.00 427.00 L 1043.00 445.00 L 1045.00 449.00 L 1059.00 439.00 L 1063.00 450.00 L 1057.00 482.00 L 1063.00 492.00 L 1081.00 480.00 L 1082.00 485.00 L 1066.00 507.00 L 1068.00 509.00 L 1088.00 491.00 L 1089.00 494.00 L 1071.00 518.00 L 1072.00 521.00 L 1092.00 503.00 L 1093.00 505.00 L 1075.00 527.00 L 1075.00 530.00 L 1093.00 514.00 L 1093.00 517.00 L 1075.00 539.00 L 1075.00 542.00 L 1093.00 526.00 L 1093.00 528.00 L 1075.00 548.00 L 1075.00 550.00 L 1093.00 534.00 L 1091.00 556.00 L 1069.00 616.00 L 1075.00 685.00 L 1109.00 763.00 L 1115.00 810.00 L 1093.00 826.00 L 1069.00 888.00 L 1043.00 996.00 L 994.00 1055.00 L 922.00 1065.00 L 876.00 1084.00 L 856.00 1112.00 L 908.00 1242.00 L 1032.00 1474.00 L 1031.00 1477.00 L 905.00 1251.00 L 907.00 1257.00 L 1037.00 1495.00 L 1093.00 1601.00 L 1075.00 1575.00 L 1075.00 1580.00 L 1093.00 1616.00 L 1091.00 1614.00 L 1069.00 1574.00 L 1069.00 1577.00 L 1091.00 1623.00 L 1086.00 1619.00 L 1054.00 1565.00 L 1053.00 1568.00 L 1083.00 1628.00 L 1033.00 1531.00 L 903.00 1277.00 L 902.00 1278.00 L 1030.00 1534.00 L 1030.00 1536.00 L 902.00 1284.00 L 900.00 1290.00 L 1024.00 1554.00 L 1023.00 1556.00 L 897.00 1296.00 L 893.00 1303.00 L 1011.00 1577.00 L 1010.00 1579.00 L 890.00 1309.00 L 889.00 1311.00 L 1007.00 1585.00 L 1007.00 1587.00 L 889.00 1317.00 L 885.00 1323.00 L 995.00 1605.00 L 994.00 1609.00 L 882.00 1335.00 L 877.00 1331.00 L 979.00 1597.00 L 978.00 1599.00 L 874.00 1337.00 L 865.00 1327.00 L 951.00 1569.00 L 950.00 1572.00 L 862.00 1336.00 L 854.00 1328.00 L 926.00 1548.00 L 925.00 1550.00 L 851.00 1334.00 L 846.00 1329.00 L 910.00 1535.00 L 909.00 1538.00 L 843.00 1338.00 L 838.00 1333.00 L 894.00 1523.00 L 894.00 1525.00 L 838.00 1339.00 L 836.00 1337.00 L 888.00 1519.00 L 887.00 1522.00 L 833.00 1346.00 L 828.00 1342.00 L 872.00 1510.00 L 872.00 1512.00 L 828.00 1348.00 L 825.00 1346.00 L 863.00 1506.00 L 863.00 1511.00 L 825.00 1361.00 L 824.00 1360.00 L 860.00 1508.00 L 860.00 1511.00 L 824.00 1369.00 L 820.00 1366.00 L 848.00 1502.00 L 824.00 1546.00 L 748.00 1498.00 L 640.00 1451.00 L 500.00 1405.00 L 423.00 1374.00 L 409.00 1358.00 L 414.00 1308.00 L 438.00 1224.00 L 443.00 1189.00 L 429.00 1203.00 L 439.00 1175.00 L 473.00 1105.00 L 494.00 1028.00 L 502.00 944.00 L 505.00 899.00 L 503.00 893.00 L 489.00 876.00 Z" fill="black" stroke="black" stroke-width="1"/>
</svg>