<?xml version="1.0" encoding="UTF-8"?>
<svg xmlns="http://www.w3.org/2000/svg" viewBox="477.00 329.00 827.00 1411.00">
  <path d="M 560.00 1071.00 L 564.00 1033.00 L 569.00 1008.00 L 575.00 996.00 L 584.00 984.00 L 596.00 972.00 L 597.00 961.00 L 587.00 951.00 L 571.00 917.00 L 549.00 859.00 L 531.00 801.00 L 517.00 743.00 L 509.00 698.00 L 507.00 666.00 L 511.00 627.00 L 521.00 581.00 L 533.00 543.00 L 547.00 513.00 L 562.00 487.00 L 578.00 465.00 L 603.00 437.00 L 637.00 403.00 L 667.00 381.00 L 693.00 371.00 L 710.00 363.00 L 718.00 357.00 L 734.00 350.00 L 758.00 342.00 L 805.00 339.00 L 875.00 341.00 L 919.00 346.00 L 937.00 354.00 L 956.00 360.00 L 976.00 364.00 L 997.00 371.00 L 1019.00 381.00 L 1036.00 392.00 L 1048.00 404.00 L 1063.00 415.00 L 1081.00 425.00 L 1098.00 438.00 L 1114.00 454.00 L 1126.00 469.00 L 1134.00 483.00 L 1149.00 500.00 L 1171.00 520.00 L 1184.00 537.00 L 1188.00 551.00 L 1190.00 564.00 L 1190.00 576.00 L 1193.00 588.00 L 1199.00 600.00 L 1200.00 614.00 L 1196.00 630.00 L 1198.00 632.00 L 1206.00 620.00 L 1206.00 622.00 L 1198.00 638.00 L 1199.00 640.00 L 1209.00 628.00 L 1209.00 630.00 L 1199.00 646.00 L 1199.00 647.00 L 1209.00 633.00 L 1209.00 635.00 L 1199.00 653.00 L 1199.00 656.00 L 1209.00 644.00 L 1209.00 649.00 L 1199.00 671.00 L 1197.00 689.00 L 1203.00 703.00 L 1220.00 724.00 L 1248.00 752.00 L 1269.00 775.00 L 1283.00 793.00 L 1291.00 806.00 L 1293.00 814.00 L 1294.00 820.00 L 1294.00 824.00 L 1289.00 832.00 L 1279.00 844.00 L 1276.00 849.00 L 1280.00 847.00 L 1276.00 850.00 L 1264.00 858.00 L 1260.00 861.00 L 1264.00 859.00 L 1261.00 863.00 L 1251.00 873.00 L 1248.00 890.00 L 1252.00 914.00 L 1250.00 931.00 L 1242.00 941.00 L 1239.00 952.00 L 1241.00 964.00 L 1239.00 979.00 L 1233.00 997.00 L 1233.00 1013.00 L 1239.00 1027.00 L 1242.00 1042.00 L 1242.00 1058.00 L 1236.00 1074.00 L 1224.00 1090.00 L 1205.00 1102.00 L 1179.00 1110.00 L 1171.00 1120.00 L 1181.00 1132.00 L 1186.00 1142.00 L 1186.00 1150.00 L 1179.00 1160.00 L 1165.00 1172.00 L 1156.00 1182.00 L 1152.00 1190.00 L 1157.00 1199.00 L 1171.00 1209.00 L 1170.00 1211.00 L 1154.00 1205.00 L 1155.00 1207.00 L 1173.00 1217.00 L 1173.00 1218.00 L 1155.00 1210.00 L 1155.00 1211.00 L 1173.00 1221.00 L 1184.00 1230.00 L 1188.00 1238.00 L 1188.00 1247.00 L 1184.00 1257.00 L 1177.00 1264.00 L 1167.00 1268.00 L 1167.00 1275.00 L 1177.00 1285.00 L 1179.00 1288.00 L 1173.00 1284.00 L 1188.00 1295.00 L 1224.00 1321.00 L 1229.00 1326.00 L 1203.00 1310.00 L 1201.00 1312.00 L 1223.00 1332.00 L 1233.00 1343.00 L 1231.00 1345.00 L 1221.00 1346.00 L 1203.00 1346.00 L 1189.00 1344.00 L 1179.00 1340.00 L 1181.00 1352.00 L 1195.00 1380.00 L 1207.00 1401.00 L 1217.00 1415.00 L 1218.00 1418.00 L 1210.00 1410.00 L 1216.00 1419.00 L 1236.00 1445.00 L 1245.00 1457.00 L 1243.00 1455.00 L 1246.00 1461.00 L 1254.00 1475.00 L 1257.00 1481.00 L 1255.00 1479.00 L 1261.00 1500.00 L 1275.00 1544.00 L 1285.00 1583.00 L 1291.00 1617.00 L 1291.00 1643.00 L 1285.00 1661.00 L 1277.00 1679.00 L 1267.00 1697.00 L 1239.00 1712.00 L 1193.00 1724.00 L 1159.00 1730.00 L 1137.00 1730.00 L 1108.00 1727.00 L 1072.00 1721.00 L 1045.00 1718.00 L 1027.00 1718.00 L 1000.00 1711.00 L 964.00 1697.00 L 935.00 1688.00 L 913.00 1684.00 L 896.00 1679.00 L 884.00 1673.00 L 872.00 1670.00 L 860.00 1670.00 L 838.00 1666.00 L 806.00 1658.00 L 764.00 1650.00 L 712.00 1642.00 L 662.00 1638.00 L 614.00 1638.00 L 589.00 1639.00 L 587.00 1641.00 L 585.00 1641.00 L 583.00 1639.00 L 561.00 1640.00 L 519.00 1644.00 L 496.00 1645.00 L 492.00 1643.00 L 489.00 1639.00 L 487.00 1633.00 L 487.00 1611.00 L 489.00 1573.00 L 495.00 1523.00 L 505.00 1461.00 L 512.00 1424.00 L 516.00 1412.00 L 527.00 1398.00 L 545.00 1382.00 L 546.00 1379.00 L 530.00 1389.00 L 529.00 1387.00 L 543.00 1373.00 L 547.00 1367.00 L 541.00 1369.00 L 540.00 1367.00 L 544.00 1361.00 L 542.00 1361.00 L 534.00 1367.00 L 533.00 1355.00 L 539.00 1325.00 L 547.00 1296.00 L 557.00 1268.00 L 559.00 1249.00 L 553.00 1239.00 L 548.00 1227.00 L 544.00 1213.00 L 545.00 1179.00 L 551.00 1125.00 L 555.00 1096.00 L 557.00 1092.00 L 560.00 1071.00 Z" fill="black" stroke="black" stroke-width="1"/>
</svg>