<?xml version="1.0" encoding="UTF-8"?>
<svg xmlns="http://www.w3.org/2000/svg" viewBox="376.00 371.00 840.00 1444.00">
  <path d="M 474.00 1066.00 L 482.00 1026.00 L 488.00 1001.00 L 492.00 991.00 L 498.00 983.00 L 506.00 977.00 L 509.00 973.00 L 507.00 971.00 L 508.00 970.00 L 512.00 970.00 L 514.00 966.00 L 514.00 958.00 L 492.00 932.00 L 448.00 888.00 L 420.00 856.00 L 408.00 836.00 L 398.00 810.00 L 390.00 778.00 L 386.00 748.00 L 386.00 720.00 L 390.00 685.00 L 398.00 643.00 L 418.00 594.00 L 450.00 538.00 L 485.00 492.00 L 523.00 456.00 L 558.00 429.00 L 590.00 411.00 L 614.00 399.00 L 630.00 393.00 L 649.00 390.00 L 671.00 390.00 L 692.00 387.00 L 712.00 381.00 L 735.00 381.00 L 761.00 387.00 L 793.00 391.00 L 831.00 393.00 L 861.00 401.00 L 883.00 415.00 L 897.00 421.00 L 903.00 419.00 L 913.00 421.00 L 927.00 427.00 L 940.00 436.00 L 952.00 448.00 L 965.00 455.00 L 979.00 457.00 L 993.00 462.00 L 1007.00 470.00 L 1020.00 482.00 L 1032.00 498.00 L 1044.00 510.00 L 1056.00 518.00 L 1061.00 530.00 L 1059.00 546.00 L 1061.00 548.00 L 1067.00 536.00 L 1067.00 537.00 L 1061.00 551.00 L 1059.00 560.00 L 1061.00 564.00 L 1066.00 559.00 L 1074.00 545.00 L 1075.00 547.00 L 1069.00 565.00 L 1070.00 566.00 L 1078.00 550.00 L 1083.00 545.00 L 1085.00 551.00 L 1082.00 563.00 L 1074.00 581.00 L 1074.00 583.00 L 1082.00 569.00 L 1083.00 573.00 L 1077.00 595.00 L 1074.00 608.00 L 1074.00 612.00 L 1078.00 608.00 L 1086.00 596.00 L 1087.00 598.00 L 1081.00 614.00 L 1082.00 616.00 L 1090.00 604.00 L 1090.00 607.00 L 1082.00 625.00 L 1082.00 627.00 L 1090.00 613.00 L 1093.00 610.00 L 1091.00 618.00 L 1092.00 619.00 L 1096.00 613.00 L 1094.00 617.00 L 1086.00 631.00 L 1085.00 633.00 L 1091.00 623.00 L 1091.00 625.00 L 1085.00 639.00 L 1084.00 660.00 L 1088.00 688.00 L 1087.00 710.00 L 1081.00 726.00 L 1080.00 739.00 L 1084.00 749.00 L 1108.00 779.00 L 1152.00 829.00 L 1174.00 857.00 L 1174.00 863.00 L 1158.00 878.00 L 1126.00 902.00 L 1126.00 905.00 L 1158.00 887.00 L 1158.00 890.00 L 1126.00 914.00 L 1110.00 944.00 L 1110.00 980.00 L 1104.00 1008.00 L 1092.00 1028.00 L 1089.00 1049.00 L 1095.00 1071.00 L 1097.00 1087.00 L 1095.00 1097.00 L 1089.00 1109.00 L 1079.00 1123.00 L 1065.00 1134.00 L 1047.00 1142.00 L 1043.00 1152.00 L 1053.00 1164.00 L 1051.00 1180.00 L 1037.00 1200.00 L 1040.00 1218.00 L 1060.00 1234.00 L 1059.00 1236.00 L 1037.00 1224.00 L 1025.00 1219.00 L 1023.00 1221.00 L 1033.00 1229.00 L 1055.00 1243.00 L 1065.00 1252.00 L 1063.00 1256.00 L 1051.00 1251.00 L 1029.00 1237.00 L 1028.00 1238.00 L 1048.00 1254.00 L 1053.00 1263.00 L 1043.00 1265.00 L 1049.00 1276.00 L 1071.00 1296.00 L 1071.00 1298.00 L 1049.00 1282.00 L 1051.00 1285.00 L 1077.00 1307.00 L 1077.00 1308.00 L 1051.00 1288.00 L 1053.00 1291.00 L 1083.00 1317.00 L 1098.00 1335.00 L 1098.00 1345.00 L 1087.00 1341.00 L 1065.00 1323.00 L 1063.00 1324.00 L 1081.00 1344.00 L 1080.00 1345.00 L 1060.00 1327.00 L 1055.00 1329.00 L 1065.00 1351.00 L 1068.00 1360.00 L 1064.00 1356.00 L 1082.00 1384.00 L 1122.00 1444.00 L 1141.00 1473.00 L 1139.00 1471.00 L 1153.00 1506.00 L 1183.00 1578.00 L 1200.00 1624.00 L 1204.00 1644.00 L 1206.00 1677.00 L 1206.00 1723.00 L 1202.00 1754.00 L 1194.00 1770.00 L 1182.00 1784.00 L 1166.00 1796.00 L 1153.00 1803.00 L 1143.00 1805.00 L 1126.00 1804.00 L 1102.00 1800.00 L 1063.00 1782.00 L 1009.00 1750.00 L 907.00 1699.00 L 757.00 1629.00 L 645.00 1583.00 L 571.00 1561.00 L 510.00 1548.00 L 462.00 1544.00 L 439.00 1540.00 L 441.00 1536.00 L 431.00 1534.00 L 409.00 1534.00 L 397.00 1530.00 L 395.00 1522.00 L 396.00 1514.00 L 400.00 1506.00 L 407.00 1464.00 L 417.00 1388.00 L 435.00 1314.00 L 461.00 1242.00 L 472.00 1199.00 L 468.00 1185.00 L 467.00 1158.00 L 469.00 1118.00 L 470.00 1095.00 L 470.00 1089.00 L 474.00 1066.00 Z" fill="black" stroke="black" stroke-width="1"/>
</svg>