<?xml version="1.0" encoding="UTF-8"?>
<svg xmlns="http://www.w3.org/2000/svg" viewBox="204.00 364.00 719.00 1266.00">
  <path d="M 409.00 969.00 L 407.00 943.00 L 404.00 927.00 L 400.00 921.00 L 390.00 913.00 L 374.00 903.00 L 356.00 886.00 L 336.00 862.00 L 308.00 834.00 L 272.00 802.00 L 247.00 774.00 L 233.00 750.00 L 223.00 725.00 L 217.00 699.00 L 214.00 675.00 L 214.00 653.00 L 216.00 630.00 L 220.00 606.00 L 232.00 573.00 L 252.00 531.00 L 274.00 497.00 L 298.00 471.00 L 327.00 449.00 L 361.00 431.00 L 391.00 411.00 L 417.00 389.00 L 434.00 382.00 L 442.00 390.00 L 456.00 389.00 L 476.00 379.00 L 491.00 374.00 L 501.00 374.00 L 511.00 380.00 L 521.00 392.00 L 552.00 399.00 L 604.00 401.00 L 651.00 409.00 L 693.00 423.00 L 728.00 439.00 L 756.00 457.00 L 786.00 482.00 L 818.00 514.00 L 836.00 533.00 L 840.00 539.00 L 840.00 547.00 L 836.00 557.00 L 837.00 558.00 L 843.00 550.00 L 844.00 552.00 L 840.00 564.00 L 841.00 565.00 L 847.00 555.00 L 847.00 558.00 L 841.00 574.00 L 842.00 577.00 L 850.00 567.00 L 852.00 568.00 L 848.00 580.00 L 849.00 581.00 L 855.00 571.00 L 854.00 573.00 L 846.00 587.00 L 846.00 589.00 L 854.00 579.00 L 854.00 581.00 L 846.00 595.00 L 847.00 596.00 L 857.00 584.00 L 858.00 585.00 L 850.00 599.00 L 850.00 601.00 L 858.00 591.00 L 858.00 593.00 L 850.00 607.00 L 850.00 608.00 L 858.00 596.00 L 858.00 598.00 L 850.00 614.00 L 850.00 617.00 L 858.00 607.00 L 858.00 610.00 L 850.00 626.00 L 843.00 656.00 L 837.00 700.00 L 846.00 744.00 L 870.00 788.00 L 874.00 819.00 L 858.00 837.00 L 853.00 858.00 L 859.00 882.00 L 859.00 898.00 L 853.00 906.00 L 849.00 916.00 L 847.00 928.00 L 842.00 938.00 L 834.00 946.00 L 831.00 962.00 L 833.00 986.00 L 832.00 1002.00 L 828.00 1010.00 L 816.00 1018.00 L 796.00 1026.00 L 763.00 1030.00 L 717.00 1030.00 L 690.00 1033.00 L 682.00 1039.00 L 677.00 1051.00 L 675.00 1069.00 L 726.00 1159.00 L 830.00 1321.00 L 878.00 1396.00 L 870.00 1384.00 L 871.00 1386.00 L 881.00 1402.00 L 878.00 1398.00 L 862.00 1374.00 L 863.00 1376.00 L 881.00 1404.00 L 880.00 1403.00 L 860.00 1373.00 L 861.00 1375.00 L 883.00 1409.00 L 881.00 1407.00 L 855.00 1369.00 L 856.00 1372.00 L 884.00 1416.00 L 883.00 1415.00 L 853.00 1369.00 L 854.00 1371.00 L 886.00 1421.00 L 845.00 1357.00 L 731.00 1179.00 L 731.00 1181.00 L 845.00 1363.00 L 883.00 1424.00 L 845.00 1364.00 L 846.00 1366.00 L 886.00 1430.00 L 870.00 1406.00 L 798.00 1294.00 L 798.00 1297.00 L 870.00 1415.00 L 868.00 1412.00 L 792.00 1288.00 L 793.00 1291.00 L 871.00 1421.00 L 870.00 1420.00 L 790.00 1288.00 L 790.00 1289.00 L 870.00 1423.00 L 867.00 1419.00 L 781.00 1277.00 L 782.00 1281.00 L 870.00 1431.00 L 854.00 1404.00 L 734.00 1200.00 L 733.00 1199.00 L 851.00 1401.00 L 911.00 1505.00 L 913.00 1511.00 L 866.00 1432.00 L 770.00 1268.00 L 770.00 1271.00 L 866.00 1441.00 L 863.00 1437.00 L 761.00 1259.00 L 761.00 1264.00 L 863.00 1452.00 L 862.00 1451.00 L 758.00 1261.00 L 758.00 1263.00 L 862.00 1457.00 L 861.00 1456.00 L 755.00 1260.00 L 755.00 1262.00 L 861.00 1462.00 L 853.00 1448.00 L 731.00 1220.00 L 730.00 1223.00 L 850.00 1457.00 L 852.00 1462.00 L 736.00 1238.00 L 735.00 1240.00 L 849.00 1468.00 L 905.00 1584.00 L 903.00 1588.00 L 844.00 1471.00 L 728.00 1233.00 L 728.00 1234.00 L 844.00 1474.00 L 897.00 1599.00 L 887.00 1609.00 L 877.00 1616.00 L 867.00 1620.00 L 854.00 1620.00 L 838.00 1616.00 L 824.00 1610.00 L 812.00 1602.00 L 804.00 1594.00 L 800.00 1586.00 L 798.00 1584.00 L 798.00 1588.00 L 780.00 1577.00 L 744.00 1551.00 L 725.00 1539.00 L 723.00 1541.00 L 715.00 1537.00 L 701.00 1527.00 L 682.00 1518.00 L 658.00 1510.00 L 625.00 1494.00 L 583.00 1470.00 L 531.00 1447.00 L 469.00 1425.00 L 416.00 1409.00 L 372.00 1399.00 L 348.00 1383.00 L 344.00 1361.00 L 346.00 1330.00 L 354.00 1290.00 L 362.00 1260.00 L 370.00 1240.00 L 373.00 1231.00 L 371.00 1233.00 L 373.00 1214.00 L 379.00 1174.00 L 385.00 1151.00 L 391.00 1145.00 L 393.00 1134.00 L 391.00 1118.00 L 394.00 1106.00 L 402.00 1098.00 L 408.00 1088.00 L 412.00 1076.00 L 414.00 1049.00 L 414.00 1007.00 L 413.00 985.00 L 411.00 983.00 L 409.00 969.00 Z" fill="black" stroke="black" stroke-width="1"/>
</svg>