<?xml version="1.0" encoding="UTF-8"?>
<svg xmlns="http://www.w3.org/2000/svg" viewBox="461.00 307.00 727.00 1359.00">
  <path d="M 650.00 914.00 L 650.00 866.00 L 644.00 825.00 L 632.00 791.00 L 595.00 747.00 L 533.00 693.00 L 494.00 645.00 L 478.00 603.00 L 471.00 563.00 L 473.00 525.00 L 484.00 489.00 L 504.00 455.00 L 522.00 416.00 L 538.00 372.00 L 548.00 348.00 L 552.00 344.00 L 560.00 349.00 L 572.00 363.00 L 595.00 359.00 L 629.00 337.00 L 684.00 323.00 L 760.00 317.00 L 835.00 322.00 L 909.00 338.00 L 977.00 363.00 L 1039.00 397.00 L 1090.00 438.00 L 1130.00 486.00 L 1153.00 516.00 L 1159.00 528.00 L 1158.00 541.00 L 1150.00 555.00 L 1151.00 557.00 L 1161.00 547.00 L 1161.00 550.00 L 1151.00 566.00 L 1151.00 568.00 L 1161.00 556.00 L 1162.00 559.00 L 1154.00 577.00 L 1155.00 580.00 L 1165.00 568.00 L 1165.00 569.00 L 1155.00 583.00 L 1155.00 585.00 L 1165.00 575.00 L 1165.00 576.00 L 1155.00 588.00 L 1155.00 590.00 L 1165.00 582.00 L 1165.00 585.00 L 1155.00 599.00 L 1155.00 601.00 L 1165.00 591.00 L 1165.00 594.00 L 1155.00 610.00 L 1155.00 613.00 L 1165.00 603.00 L 1165.00 605.00 L 1155.00 619.00 L 1155.00 621.00 L 1165.00 611.00 L 1165.00 613.00 L 1155.00 627.00 L 1155.00 629.00 L 1165.00 619.00 L 1164.00 622.00 L 1152.00 638.00 L 1152.00 640.00 L 1164.00 628.00 L 1165.00 629.00 L 1155.00 643.00 L 1155.00 646.00 L 1165.00 638.00 L 1163.00 642.00 L 1149.00 658.00 L 1148.00 662.00 L 1160.00 654.00 L 1159.00 658.00 L 1145.00 674.00 L 1144.00 677.00 L 1156.00 667.00 L 1155.00 671.00 L 1141.00 689.00 L 1134.00 708.00 L 1134.00 728.00 L 1145.00 757.00 L 1167.00 795.00 L 1178.00 820.00 L 1178.00 832.00 L 1168.00 845.00 L 1148.00 859.00 L 1140.00 876.00 L 1144.00 896.00 L 1141.00 916.00 L 1131.00 936.00 L 1117.00 954.00 L 1099.00 970.00 L 1090.00 984.00 L 1090.00 996.00 L 1085.00 1010.00 L 1075.00 1026.00 L 1056.00 1039.00 L 1028.00 1049.00 L 990.00 1051.00 L 942.00 1045.00 L 966.00 1135.00 L 1062.00 1321.00 L 1111.00 1417.00 L 1113.00 1423.00 L 1088.00 1377.00 L 1036.00 1279.00 L 1036.00 1281.00 L 1088.00 1383.00 L 1086.00 1380.00 L 1030.00 1272.00 L 1031.00 1275.00 L 1089.00 1389.00 L 1087.00 1386.00 L 1025.00 1266.00 L 1026.00 1270.00 L 1090.00 1398.00 L 1088.00 1395.00 L 1020.00 1261.00 L 1020.00 1265.00 L 1088.00 1407.00 L 1086.00 1404.00 L 1014.00 1256.00 L 1015.00 1259.00 L 1089.00 1413.00 L 1073.00 1380.00 L 967.00 1160.00 L 967.00 1162.00 L 1073.00 1386.00 L 1125.00 1500.00 L 1123.00 1504.00 L 1082.00 1420.00 L 1002.00 1248.00 L 1002.00 1251.00 L 1082.00 1429.00 L 1070.00 1403.00 L 966.00 1173.00 L 966.00 1175.00 L 1070.00 1409.00 L 1121.00 1529.00 L 1119.00 1535.00 L 1076.00 1441.00 L 992.00 1247.00 L 992.00 1249.00 L 1076.00 1447.00 L 1067.00 1426.00 L 965.00 1186.00 L 964.00 1187.00 L 1064.00 1429.00 L 1072.00 1449.00 L 988.00 1247.00 L 988.00 1249.00 L 1072.00 1455.00 L 1070.00 1452.00 L 982.00 1240.00 L 981.00 1242.00 L 1067.00 1458.00 L 1061.00 1443.00 L 963.00 1197.00 L 963.00 1199.00 L 1061.00 1449.00 L 1062.00 1453.00 L 966.00 1211.00 L 965.00 1213.00 L 1059.00 1459.00 L 1058.00 1457.00 L 962.00 1207.00 L 961.00 1209.00 L 1055.00 1463.00 L 1056.00 1467.00 L 964.00 1221.00 L 963.00 1223.00 L 1053.00 1473.00 L 1054.00 1477.00 L 966.00 1235.00 L 965.00 1237.00 L 1051.00 1483.00 L 1050.00 1481.00 L 962.00 1231.00 L 960.00 1234.00 L 1044.00 1490.00 L 1078.00 1626.00 L 1062.00 1642.00 L 1050.00 1652.00 L 1042.00 1656.00 L 1030.00 1656.00 L 1014.00 1652.00 L 986.00 1629.00 L 946.00 1587.00 L 893.00 1539.00 L 827.00 1485.00 L 765.00 1438.00 L 707.00 1398.00 L 671.00 1376.00 L 657.00 1372.00 L 649.00 1367.00 L 647.00 1361.00 L 638.00 1357.00 L 622.00 1355.00 L 610.00 1349.00 L 602.00 1339.00 L 589.00 1332.00 L 571.00 1328.00 L 571.00 1278.00 L 589.00 1182.00 L 611.00 1104.00 L 637.00 1044.00 L 650.00 998.00 L 650.00 966.00 L 650.00 947.00 L 650.00 941.00 L 650.00 914.00 Z" fill="black" stroke="black" stroke-width="1"/>
</svg>