<?xml version="1.0" encoding="UTF-8"?>
<svg xmlns="http://www.w3.org/2000/svg" viewBox="404.00 297.00 778.00 1358.00">
  <path d="M 517.00 951.00 L 523.00 921.00 L 534.00 899.00 L 550.00 885.00 L 553.00 874.00 L 543.00 866.00 L 530.00 841.00 L 514.00 799.00 L 488.00 752.00 L 452.00 700.00 L 428.00 652.00 L 416.00 608.00 L 414.00 562.00 L 422.00 514.00 L 435.00 475.00 L 453.00 445.00 L 476.00 416.00 L 504.00 388.00 L 533.00 364.00 L 563.00 344.00 L 605.00 327.00 L 659.00 313.00 L 714.00 307.00 L 770.00 309.00 L 825.00 318.00 L 879.00 334.00 L 920.00 350.00 L 948.00 366.00 L 974.00 386.00 L 998.00 410.00 L 1009.00 427.00 L 1007.00 437.00 L 1009.00 438.00 L 1015.00 430.00 L 1016.00 432.00 L 1012.00 444.00 L 1013.00 445.00 L 1019.00 435.00 L 1021.00 438.00 L 1019.00 454.00 L 1021.00 455.00 L 1027.00 441.00 L 1029.00 439.00 L 1027.00 449.00 L 1028.00 450.00 L 1032.00 442.00 L 1032.00 446.00 L 1028.00 462.00 L 1030.00 464.00 L 1038.00 452.00 L 1039.00 455.00 L 1033.00 473.00 L 1035.00 476.00 L 1045.00 464.00 L 1046.00 467.00 L 1038.00 485.00 L 1037.00 491.00 L 1043.00 485.00 L 1044.00 488.00 L 1040.00 500.00 L 1043.00 496.00 L 1053.00 476.00 L 1054.00 479.00 L 1046.00 505.00 L 1047.00 510.00 L 1057.00 494.00 L 1058.00 496.00 L 1050.00 516.00 L 1051.00 520.00 L 1061.00 508.00 L 1062.00 510.00 L 1054.00 526.00 L 1055.00 529.00 L 1065.00 519.00 L 1066.00 522.00 L 1058.00 538.00 L 1058.00 541.00 L 1066.00 531.00 L 1067.00 533.00 L 1061.00 547.00 L 1063.00 546.00 L 1073.00 530.00 L 1074.00 533.00 L 1066.00 555.00 L 1064.00 570.00 L 1068.00 578.00 L 1068.00 595.00 L 1064.00 621.00 L 1063.00 639.00 L 1065.00 649.00 L 1084.00 681.00 L 1120.00 735.00 L 1138.00 764.00 L 1138.00 768.00 L 1125.00 779.00 L 1099.00 797.00 L 1099.00 799.00 L 1125.00 785.00 L 1123.00 787.00 L 1093.00 805.00 L 1091.00 807.00 L 1117.00 793.00 L 1127.00 788.00 L 1121.00 792.00 L 1120.00 793.00 L 1124.00 791.00 L 1113.00 798.00 L 1087.00 814.00 L 1077.00 833.00 L 1083.00 855.00 L 1081.00 871.00 L 1071.00 881.00 L 1068.00 891.00 L 1072.00 901.00 L 1067.00 913.00 L 1053.00 927.00 L 1045.00 950.00 L 1043.00 982.00 L 1034.00 1007.00 L 1018.00 1025.00 L 1011.00 1037.00 L 1013.00 1043.00 L 1011.00 1045.00 L 1005.00 1043.00 L 1006.00 1046.00 L 1014.00 1054.00 L 1012.00 1070.00 L 1000.00 1094.00 L 1002.00 1115.00 L 1018.00 1133.00 L 1020.00 1138.00 L 1008.00 1130.00 L 1024.00 1145.00 L 1068.00 1183.00 L 1063.00 1181.00 L 1009.00 1139.00 L 1008.00 1141.00 L 1060.00 1187.00 L 1061.00 1189.00 L 1011.00 1147.00 L 1009.00 1148.00 L 1055.00 1192.00 L 1062.00 1200.00 L 1030.00 1172.00 L 1028.00 1173.00 L 1056.00 1203.00 L 1054.00 1204.00 L 1022.00 1176.00 L 1020.00 1177.00 L 1048.00 1207.00 L 1054.00 1221.00 L 1038.00 1219.00 L 1029.00 1219.00 L 1027.00 1221.00 L 1030.00 1227.00 L 1038.00 1237.00 L 1035.00 1234.00 L 1021.00 1218.00 L 1024.00 1222.00 L 1044.00 1246.00 L 1048.00 1251.00 L 1036.00 1237.00 L 1051.00 1261.00 L 1093.00 1323.00 L 1113.00 1353.00 L 1111.00 1351.00 L 1123.00 1380.00 L 1149.00 1440.00 L 1165.00 1493.00 L 1171.00 1539.00 L 1172.00 1571.00 L 1168.00 1589.00 L 1159.00 1608.00 L 1145.00 1628.00 L 1131.00 1640.00 L 1117.00 1644.00 L 1101.00 1645.00 L 1083.00 1643.00 L 1020.00 1617.00 L 912.00 1567.00 L 809.00 1529.00 L 711.00 1503.00 L 605.00 1487.00 L 491.00 1481.00 L 440.00 1435.00 L 452.00 1349.00 L 471.00 1262.00 L 497.00 1174.00 L 508.00 1118.00 L 504.00 1094.00 L 504.00 1054.00 L 508.00 998.00 L 511.00 969.00 L 513.00 967.00 L 517.00 951.00 Z" fill="black" stroke="black" stroke-width="1"/>
</svg>