<?xml version="1.0" encoding="UTF-8"?>
<svg xmlns="http://www.w3.org/2000/svg" viewBox="535.00 396.00 696.00 1320.00">
  <path d="M 741.00 999.00 L 731.00 961.00 L 711.00 933.00 L 681.00 915.00 L 658.00 898.00 L 642.00 882.00 L 621.00 859.00 L 595.00 829.00 L 578.00 805.00 L 570.00 787.00 L 562.00 761.00 L 554.00 727.00 L 551.00 696.00 L 553.00 668.00 L 551.00 638.00 L 545.00 606.00 L 546.00 588.00 L 554.00 584.00 L 563.00 566.00 L 573.00 534.00 L 582.00 514.00 L 590.00 506.00 L 601.00 505.00 L 615.00 511.00 L 624.00 513.00 L 628.00 511.00 L 645.00 495.00 L 675.00 465.00 L 706.00 441.00 L 738.00 423.00 L 763.00 412.00 L 781.00 408.00 L 823.00 406.00 L 889.00 406.00 L 952.00 414.00 L 1012.00 430.00 L 1070.00 461.00 L 1126.00 507.00 L 1153.00 538.00 L 1151.00 554.00 L 1153.00 556.00 L 1159.00 544.00 L 1159.00 545.00 L 1153.00 559.00 L 1154.00 561.00 L 1162.00 551.00 L 1163.00 553.00 L 1157.00 567.00 L 1158.00 568.00 L 1166.00 556.00 L 1167.00 557.00 L 1161.00 571.00 L 1162.00 573.00 L 1170.00 563.00 L 1171.00 566.00 L 1165.00 582.00 L 1166.00 584.00 L 1174.00 572.00 L 1175.00 574.00 L 1169.00 590.00 L 1170.00 593.00 L 1178.00 583.00 L 1178.00 585.00 L 1170.00 599.00 L 1167.00 608.00 L 1169.00 612.00 L 1174.00 608.00 L 1182.00 596.00 L 1182.00 597.00 L 1174.00 611.00 L 1174.00 613.00 L 1182.00 603.00 L 1183.00 606.00 L 1177.00 622.00 L 1177.00 626.00 L 1183.00 618.00 L 1183.00 620.00 L 1177.00 632.00 L 1173.00 666.00 L 1171.00 722.00 L 1183.00 770.00 L 1209.00 810.00 L 1221.00 834.00 L 1219.00 842.00 L 1211.00 854.00 L 1197.00 870.00 L 1193.00 885.00 L 1199.00 899.00 L 1194.00 921.00 L 1178.00 951.00 L 1170.00 977.00 L 1170.00 999.00 L 1168.00 1014.00 L 1164.00 1022.00 L 1152.00 1032.00 L 1132.00 1044.00 L 1101.00 1050.00 L 1059.00 1050.00 L 1035.00 1053.00 L 1029.00 1059.00 L 1021.00 1077.00 L 1011.00 1107.00 L 1018.00 1149.00 L 1042.00 1203.00 L 1053.00 1229.00 L 1051.00 1227.00 L 1072.00 1260.00 L 1116.00 1328.00 L 1139.00 1364.00 L 1141.00 1368.00 L 1124.00 1343.00 L 1088.00 1289.00 L 1089.00 1291.00 L 1127.00 1349.00 L 1126.00 1348.00 L 1086.00 1288.00 L 1087.00 1291.00 L 1129.00 1357.00 L 1135.00 1367.00 L 1105.00 1321.00 L 1106.00 1323.00 L 1138.00 1373.00 L 1141.00 1378.00 L 1115.00 1338.00 L 1115.00 1339.00 L 1141.00 1381.00 L 1142.00 1384.00 L 1118.00 1348.00 L 1119.00 1351.00 L 1145.00 1393.00 L 1144.00 1392.00 L 1116.00 1348.00 L 1118.00 1354.00 L 1150.00 1410.00 L 1167.00 1451.00 L 1169.00 1477.00 L 1165.00 1510.00 L 1155.00 1550.00 L 1151.00 1597.00 L 1153.00 1651.00 L 1152.00 1684.00 L 1148.00 1696.00 L 1144.00 1703.00 L 1140.00 1705.00 L 1136.00 1703.00 L 1132.00 1697.00 L 1130.00 1697.00 L 1130.00 1703.00 L 1127.00 1702.00 L 1121.00 1694.00 L 1118.00 1695.00 L 1118.00 1705.00 L 1116.00 1705.00 L 1112.00 1695.00 L 1111.00 1694.00 L 1113.00 1702.00 L 1111.00 1706.00 L 1105.00 1706.00 L 1089.00 1698.00 L 1063.00 1682.00 L 1036.00 1660.00 L 1008.00 1632.00 L 994.00 1620.00 L 994.00 1624.00 L 993.00 1623.00 L 991.00 1617.00 L 990.00 1616.00 L 990.00 1620.00 L 988.00 1619.00 L 984.00 1613.00 L 933.00 1585.00 L 835.00 1535.00 L 747.00 1494.00 L 669.00 1462.00 L 636.00 1424.00 L 648.00 1380.00 L 654.00 1338.00 L 654.00 1298.00 L 658.00 1274.00 L 666.00 1266.00 L 665.00 1264.00 L 655.00 1268.00 L 658.00 1259.00 L 674.00 1237.00 L 678.00 1228.00 L 670.00 1232.00 L 670.00 1230.00 L 678.00 1222.00 L 692.00 1197.00 L 712.00 1155.00 L 728.00 1108.00 L 740.00 1056.00 L 746.00 1027.00 L 746.00 1021.00 L 741.00 999.00 Z" fill="black" stroke="black" stroke-width="1"/>
</svg>