<?xml version="1.0" encoding="UTF-8"?>
<svg xmlns="http://www.w3.org/2000/svg" viewBox="289.00 251.00 974.00 1471.00">
  <path d="M 371.00 959.00 L 373.00 953.00 L 371.00 939.00 L 365.00 917.00 L 364.00 900.00 L 368.00 888.00 L 366.00 876.00 L 358.00 864.00 L 355.00 840.00 L 357.00 804.00 L 346.00 779.00 L 322.00 765.00 L 321.00 762.00 L 343.00 770.00 L 341.00 767.00 L 315.00 753.00 L 301.00 743.00 L 299.00 737.00 L 300.00 729.00 L 304.00 719.00 L 330.00 689.00 L 378.00 639.00 L 406.00 607.00 L 414.00 593.00 L 421.00 568.00 L 427.00 532.00 L 428.00 505.00 L 424.00 487.00 L 425.00 481.00 L 431.00 487.00 L 431.00 485.00 L 425.00 475.00 L 426.00 474.00 L 434.00 482.00 L 435.00 480.00 L 429.00 468.00 L 430.00 466.00 L 438.00 474.00 L 439.00 472.00 L 433.00 460.00 L 431.00 451.00 L 433.00 445.00 L 438.00 448.00 L 446.00 460.00 L 450.00 463.00 L 450.00 457.00 L 451.00 455.00 L 453.00 457.00 L 451.00 452.00 L 445.00 440.00 L 445.00 438.00 L 451.00 446.00 L 452.00 444.00 L 448.00 432.00 L 450.00 431.00 L 458.00 441.00 L 460.00 438.00 L 456.00 422.00 L 458.00 419.00 L 466.00 429.00 L 467.00 427.00 L 461.00 413.00 L 462.00 411.00 L 470.00 421.00 L 472.00 418.00 L 468.00 402.00 L 467.00 393.00 L 469.00 391.00 L 473.00 396.00 L 479.00 408.00 L 481.00 406.00 L 479.00 390.00 L 480.00 379.00 L 484.00 373.00 L 504.00 354.00 L 540.00 322.00 L 563.00 299.00 L 573.00 285.00 L 589.00 273.00 L 611.00 263.00 L 623.00 261.00 L 625.00 267.00 L 626.00 268.00 L 626.00 264.00 L 635.00 262.00 L 653.00 262.00 L 663.00 264.00 L 665.00 268.00 L 674.00 269.00 L 690.00 267.00 L 700.00 268.00 L 704.00 272.00 L 706.00 272.00 L 706.00 268.00 L 707.00 268.00 L 709.00 272.00 L 736.00 271.00 L 788.00 265.00 L 845.00 265.00 L 907.00 271.00 L 972.00 287.00 L 1040.00 313.00 L 1094.00 342.00 L 1134.00 374.00 L 1168.00 406.00 L 1196.00 438.00 L 1220.00 480.00 L 1240.00 532.00 L 1251.00 577.00 L 1253.00 615.00 L 1239.00 681.00 L 1209.00 775.00 L 1193.00 849.00 L 1191.00 903.00 L 1192.00 937.00 L 1196.00 951.00 L 1180.00 960.00 L 1144.00 964.00 L 1142.00 966.00 L 1174.00 966.00 L 1174.00 967.00 L 1142.00 969.00 L 1140.00 970.00 L 1168.00 970.00 L 1169.00 974.00 L 1143.00 982.00 L 1133.00 987.00 L 1139.00 989.00 L 1139.00 992.00 L 1133.00 996.00 L 1132.00 1015.00 L 1136.00 1049.00 L 1136.00 1090.00 L 1132.00 1138.00 L 1135.00 1186.00 L 1145.00 1234.00 L 1154.00 1268.00 L 1162.00 1288.00 L 1165.00 1325.00 L 1163.00 1379.00 L 1158.00 1415.00 L 1150.00 1433.00 L 1142.00 1446.00 L 1134.00 1454.00 L 1123.00 1461.00 L 1109.00 1467.00 L 1058.00 1471.00 L 970.00 1473.00 L 906.00 1478.00 L 866.00 1486.00 L 801.00 1507.00 L 711.00 1541.00 L 597.00 1595.00 L 459.00 1669.00 L 385.00 1708.00 L 375.00 1712.00 L 360.00 1712.00 L 340.00 1708.00 L 326.00 1700.00 L 318.00 1688.00 L 314.00 1677.00 L 314.00 1667.00 L 316.00 1654.00 L 320.00 1638.00 L 329.00 1617.00 L 343.00 1591.00 L 345.00 1586.00 L 335.00 1602.00 L 336.00 1600.00 L 348.00 1580.00 L 354.00 1563.00 L 354.00 1549.00 L 389.00 1488.00 L 459.00 1380.00 L 459.00 1379.00 L 389.00 1485.00 L 388.00 1486.00 L 456.00 1382.00 L 457.00 1379.00 L 391.00 1477.00 L 392.00 1474.00 L 460.00 1370.00 L 460.00 1369.00 L 392.00 1471.00 L 368.00 1506.00 L 388.00 1474.00 L 389.00 1471.00 L 371.00 1497.00 L 400.00 1452.00 L 476.00 1336.00 L 491.00 1309.00 L 445.00 1371.00 L 445.00 1369.00 L 491.00 1303.00 L 492.00 1301.00 L 448.00 1363.00 L 445.00 1367.00 L 483.00 1313.00 L 484.00 1310.00 L 448.00 1358.00 L 450.00 1352.00 L 490.00 1292.00 L 504.00 1236.00 L 492.00 1184.00 L 482.00 1151.00 L 474.00 1137.00 L 473.00 1121.00 L 479.00 1103.00 L 460.00 1087.00 L 416.00 1073.00 L 387.00 1060.00 L 373.00 1048.00 L 363.00 1033.00 L 357.00 1015.00 L 357.00 997.00 L 363.00 979.00 L 367.00 968.00 L 369.00 964.00 L 371.00 959.00 Z" fill="black" stroke="black" stroke-width="1"/>
</svg>