<?xml version="1.0" encoding="UTF-8"?>
<svg xmlns="http://www.w3.org/2000/svg" viewBox="382.00 344.00 785.00 1316.00">
  <path d="M 493.00 983.00 L 499.00 937.00 L 504.00 914.00 L 508.00 914.00 L 509.00 912.00 L 507.00 908.00 L 509.00 901.00 L 515.00 891.00 L 512.00 882.00 L 500.00 874.00 L 501.00 873.00 L 515.00 879.00 L 513.00 877.00 L 495.00 867.00 L 496.00 866.00 L 516.00 874.00 L 515.00 872.00 L 493.00 860.00 L 483.00 853.00 L 485.00 851.00 L 486.00 837.00 L 486.00 811.00 L 477.00 764.00 L 459.00 696.00 L 449.00 651.00 L 447.00 629.00 L 451.00 597.00 L 461.00 555.00 L 471.00 524.00 L 481.00 504.00 L 497.00 480.00 L 519.00 452.00 L 540.00 429.00 L 560.00 411.00 L 587.00 394.00 L 621.00 378.00 L 658.00 366.00 L 698.00 358.00 L 738.00 354.00 L 778.00 354.00 L 814.00 357.00 L 846.00 363.00 L 875.00 371.00 L 901.00 381.00 L 922.00 390.00 L 938.00 398.00 L 963.00 415.00 L 997.00 441.00 L 1030.00 471.00 L 1062.00 505.00 L 1076.00 528.00 L 1072.00 540.00 L 1073.00 542.00 L 1079.00 534.00 L 1080.00 535.00 L 1076.00 545.00 L 1077.00 547.00 L 1083.00 541.00 L 1084.00 544.00 L 1080.00 556.00 L 1081.00 557.00 L 1087.00 547.00 L 1088.00 547.00 L 1084.00 557.00 L 1084.00 559.00 L 1088.00 553.00 L 1088.00 555.00 L 1084.00 565.00 L 1085.00 567.00 L 1091.00 561.00 L 1092.00 563.00 L 1088.00 573.00 L 1086.00 585.00 L 1086.00 599.00 L 1087.00 605.00 L 1089.00 603.00 L 1088.00 612.00 L 1084.00 632.00 L 1083.00 648.00 L 1085.00 660.00 L 1099.00 682.00 L 1125.00 714.00 L 1142.00 739.00 L 1150.00 757.00 L 1145.00 774.00 L 1127.00 790.00 L 1125.00 794.00 L 1139.00 786.00 L 1137.00 790.00 L 1119.00 806.00 L 1111.00 821.00 L 1113.00 835.00 L 1112.00 848.00 L 1108.00 860.00 L 1107.00 870.00 L 1109.00 878.00 L 1106.00 886.00 L 1098.00 894.00 L 1091.00 904.00 L 1085.00 916.00 L 1083.00 933.00 L 1085.00 955.00 L 1083.00 972.00 L 1077.00 984.00 L 1066.00 996.00 L 1050.00 1008.00 L 1044.00 1017.00 L 1048.00 1023.00 L 1047.00 1030.00 L 1041.00 1038.00 L 1037.00 1046.00 L 1035.00 1054.00 L 1038.00 1061.00 L 1046.00 1067.00 L 1045.00 1069.00 L 1035.00 1067.00 L 1039.00 1069.00 L 1057.00 1075.00 L 1067.00 1079.00 L 1069.00 1081.00 L 1061.00 1080.00 L 1043.00 1076.00 L 1044.00 1077.00 L 1064.00 1083.00 L 1076.00 1088.00 L 1080.00 1092.00 L 1069.00 1090.00 L 1043.00 1082.00 L 1043.00 1085.00 L 1069.00 1099.00 L 1078.00 1111.00 L 1070.00 1121.00 L 1064.00 1126.00 L 1060.00 1126.00 L 1059.00 1128.00 L 1061.00 1132.00 L 1067.00 1137.00 L 1077.00 1143.00 L 1074.00 1142.00 L 1058.00 1134.00 L 1060.00 1136.00 L 1080.00 1148.00 L 1078.00 1149.00 L 1054.00 1139.00 L 1067.00 1148.00 L 1117.00 1176.00 L 1130.00 1184.00 L 1106.00 1172.00 L 1107.00 1174.00 L 1133.00 1190.00 L 1139.00 1199.00 L 1125.00 1201.00 L 1100.00 1191.00 L 1064.00 1169.00 L 1061.00 1168.00 L 1091.00 1188.00 L 1092.00 1189.00 L 1064.00 1171.00 L 1063.00 1171.00 L 1089.00 1189.00 L 1085.00 1188.00 L 1051.00 1168.00 L 1033.00 1159.00 L 1031.00 1161.00 L 1042.00 1179.00 L 1066.00 1213.00 L 1081.00 1242.00 L 1087.00 1266.00 L 1093.00 1283.00 L 1099.00 1293.00 L 1111.00 1325.00 L 1129.00 1379.00 L 1137.00 1405.00 L 1135.00 1403.00 L 1137.00 1412.00 L 1143.00 1432.00 L 1145.00 1441.00 L 1143.00 1439.00 L 1144.00 1444.00 L 1148.00 1456.00 L 1149.00 1461.00 L 1147.00 1459.00 L 1148.00 1465.00 L 1152.00 1479.00 L 1155.00 1498.00 L 1157.00 1522.00 L 1156.00 1544.00 L 1152.00 1564.00 L 1145.00 1584.00 L 1135.00 1604.00 L 1124.00 1620.00 L 1112.00 1632.00 L 1099.00 1641.00 L 1085.00 1647.00 L 1064.00 1650.00 L 1036.00 1650.00 L 1006.00 1643.00 L 974.00 1629.00 L 944.00 1613.00 L 916.00 1595.00 L 895.00 1579.00 L 881.00 1565.00 L 868.00 1556.00 L 856.00 1552.00 L 821.00 1534.00 L 763.00 1502.00 L 713.00 1477.00 L 671.00 1459.00 L 626.00 1442.00 L 578.00 1426.00 L 551.00 1419.00 L 545.00 1421.00 L 537.00 1419.00 L 527.00 1413.00 L 495.00 1406.00 L 441.00 1398.00 L 410.00 1395.00 L 402.00 1397.00 L 396.00 1396.00 L 392.00 1392.00 L 397.00 1367.00 L 411.00 1321.00 L 420.00 1287.00 L 424.00 1265.00 L 433.00 1238.00 L 447.00 1206.00 L 458.00 1175.00 L 466.00 1145.00 L 476.00 1121.00 L 488.00 1103.00 L 492.00 1085.00 L 488.00 1067.00 L 487.00 1048.00 L 489.00 1028.00 L 490.00 1015.00 L 490.00 1009.00 L 493.00 983.00 Z" fill="black" stroke="black" stroke-width="1"/>
</svg>