<?xml version="1.0" encoding="UTF-8"?>
<svg xmlns="http://www.w3.org/2000/svg" viewBox="433.00 241.00 799.00 1454.00">
  <path d="M 487.00 940.00 L 489.00 872.00 L 493.00 829.00 L 499.00 811.00 L 507.00 797.00 L 517.00 787.00 L 518.00 778.00 L 510.00 770.00 L 492.00 738.00 L 464.00 682.00 L 448.00 627.00 L 444.00 573.00 L 448.00 521.00 L 460.00 471.00 L 475.00 426.00 L 493.00 386.00 L 515.00 353.00 L 541.00 327.00 L 564.00 307.00 L 584.00 293.00 L 618.00 278.00 L 666.00 262.00 L 700.00 253.00 L 720.00 251.00 L 757.00 253.00 L 811.00 259.00 L 847.00 265.00 L 865.00 271.00 L 886.00 281.00 L 910.00 295.00 L 934.00 306.00 L 958.00 314.00 L 981.00 328.00 L 1003.00 348.00 L 1026.00 365.00 L 1050.00 379.00 L 1068.00 399.00 L 1080.00 425.00 L 1086.00 447.00 L 1086.00 465.00 L 1089.00 468.00 L 1095.00 456.00 L 1095.00 457.00 L 1089.00 471.00 L 1087.00 480.00 L 1089.00 484.00 L 1094.00 480.00 L 1102.00 468.00 L 1103.00 471.00 L 1097.00 489.00 L 1097.00 506.00 L 1103.00 522.00 L 1106.00 545.00 L 1106.00 575.00 L 1109.00 596.00 L 1115.00 608.00 L 1139.00 639.00 L 1181.00 689.00 L 1187.00 727.00 L 1157.00 753.00 L 1157.00 755.00 L 1187.00 733.00 L 1193.00 729.00 L 1175.00 743.00 L 1175.00 745.00 L 1193.00 735.00 L 1186.00 742.00 L 1154.00 766.00 L 1153.00 768.00 L 1183.00 748.00 L 1182.00 750.00 L 1150.00 774.00 L 1136.00 792.00 L 1140.00 804.00 L 1135.00 824.00 L 1121.00 852.00 L 1118.00 875.00 L 1126.00 893.00 L 1128.00 911.00 L 1124.00 929.00 L 1114.00 943.00 L 1098.00 953.00 L 1093.00 958.00 L 1099.00 958.00 L 1089.00 960.00 L 1063.00 964.00 L 1059.00 966.00 L 1077.00 966.00 L 1076.00 969.00 L 1056.00 975.00 L 1050.00 979.00 L 1058.00 981.00 L 1065.00 987.00 L 1071.00 997.00 L 1069.00 1008.00 L 1059.00 1020.00 L 1053.00 1033.00 L 1051.00 1047.00 L 1060.00 1058.00 L 1080.00 1066.00 L 1091.00 1071.00 L 1093.00 1073.00 L 1091.00 1073.00 L 1085.00 1071.00 L 1086.00 1072.00 L 1094.00 1076.00 L 1091.00 1076.00 L 1077.00 1072.00 L 1077.00 1074.00 L 1091.00 1082.00 L 1085.00 1081.00 L 1059.00 1071.00 L 1059.00 1074.00 L 1085.00 1090.00 L 1085.00 1092.00 L 1059.00 1080.00 L 1060.00 1082.00 L 1088.00 1098.00 L 1087.00 1099.00 L 1057.00 1085.00 L 1042.00 1080.00 L 1042.00 1084.00 L 1056.00 1094.00 L 1084.00 1110.00 L 1095.00 1120.00 L 1089.00 1124.00 L 1078.00 1126.00 L 1062.00 1126.00 L 1060.00 1132.00 L 1072.00 1144.00 L 1074.00 1147.00 L 1066.00 1141.00 L 1081.00 1153.00 L 1119.00 1183.00 L 1117.00 1182.00 L 1075.00 1150.00 L 1077.00 1152.00 L 1123.00 1188.00 L 1120.00 1186.00 L 1068.00 1146.00 L 1067.00 1147.00 L 1117.00 1189.00 L 1118.00 1191.00 L 1070.00 1153.00 L 1069.00 1154.00 L 1115.00 1194.00 L 1128.00 1206.00 L 1108.00 1190.00 L 1106.00 1189.00 L 1122.00 1203.00 L 1120.00 1210.00 L 1100.00 1210.00 L 1091.00 1211.00 L 1093.00 1213.00 L 1092.00 1215.00 L 1088.00 1217.00 L 1106.00 1250.00 L 1146.00 1314.00 L 1164.00 1344.00 L 1160.00 1340.00 L 1167.00 1354.00 L 1185.00 1386.00 L 1201.00 1424.00 L 1215.00 1468.00 L 1222.00 1517.00 L 1222.00 1571.00 L 1213.00 1613.00 L 1195.00 1643.00 L 1174.00 1665.00 L 1150.00 1679.00 L 1129.00 1685.00 L 1111.00 1683.00 L 1083.00 1674.00 L 1045.00 1658.00 L 986.00 1623.00 L 906.00 1569.00 L 835.00 1528.00 L 773.00 1500.00 L 721.00 1478.00 L 679.00 1462.00 L 653.00 1455.00 L 643.00 1457.00 L 637.00 1456.00 L 635.00 1452.00 L 623.00 1447.00 L 601.00 1441.00 L 558.00 1438.00 L 494.00 1438.00 L 458.00 1436.00 L 450.00 1432.00 L 445.00 1387.00 L 443.00 1301.00 L 446.00 1231.00 L 454.00 1177.00 L 468.00 1116.00 L 488.00 1048.00 L 496.00 1007.00 L 492.00 993.00 L 489.00 983.00 L 487.00 977.00 L 487.00 940.00 Z" fill="black" stroke="black" stroke-width="1"/>
</svg>