<?xml version="1.0" encoding="UTF-8"?>
<svg xmlns="http://www.w3.org/2000/svg" viewBox="249.00 273.00 799.00 1290.00">
  <path d="M 394.00 848.00 L 354.00 804.00 L 327.00 757.00 L 313.00 707.00 L 308.00 664.00 L 312.00 628.00 L 309.00 603.00 L 299.00 589.00 L 300.00 586.00 L 312.00 594.00 L 310.00 592.00 L 294.00 580.00 L 294.00 579.00 L 310.00 589.00 L 309.00 586.00 L 291.00 570.00 L 291.00 568.00 L 309.00 580.00 L 301.00 565.00 L 267.00 523.00 L 259.00 481.00 L 277.00 439.00 L 307.00 403.00 L 349.00 373.00 L 372.00 361.00 L 376.00 367.00 L 379.00 360.00 L 381.00 340.00 L 402.00 331.00 L 442.00 333.00 L 469.00 325.00 L 483.00 307.00 L 495.00 301.00 L 505.00 307.00 L 526.00 303.00 L 558.00 289.00 L 579.00 283.00 L 589.00 285.00 L 598.00 306.00 L 606.00 346.00 L 608.00 347.00 L 604.00 309.00 L 606.00 309.00 L 614.00 347.00 L 617.00 346.00 L 615.00 306.00 L 618.00 305.00 L 626.00 343.00 L 628.00 343.00 L 624.00 305.00 L 627.00 305.00 L 637.00 343.00 L 640.00 343.00 L 636.00 305.00 L 638.00 305.00 L 646.00 343.00 L 651.00 346.00 L 653.00 314.00 L 658.00 314.00 L 666.00 346.00 L 670.00 350.00 L 670.00 326.00 L 673.00 326.00 L 679.00 350.00 L 709.00 366.00 L 763.00 374.00 L 814.00 388.00 L 862.00 408.00 L 886.00 422.00 L 886.00 430.00 L 888.00 430.00 L 892.00 422.00 L 894.00 423.00 L 894.00 433.00 L 916.00 450.00 L 960.00 474.00 L 986.00 492.00 L 994.00 504.00 L 995.00 518.00 L 989.00 534.00 L 992.00 536.00 L 1004.00 524.00 L 1006.00 530.00 L 998.00 554.00 L 1002.00 560.00 L 1018.00 548.00 L 1019.00 550.00 L 1005.00 566.00 L 1006.00 569.00 L 1022.00 559.00 L 1022.00 562.00 L 1006.00 578.00 L 1006.00 581.00 L 1022.00 571.00 L 1022.00 574.00 L 1006.00 590.00 L 1006.00 591.00 L 1022.00 577.00 L 1023.00 579.00 L 1009.00 597.00 L 1009.00 601.00 L 1023.00 591.00 L 1023.00 593.00 L 1009.00 607.00 L 1010.00 608.00 L 1026.00 596.00 L 1026.00 599.00 L 1010.00 617.00 L 1011.00 621.00 L 1029.00 611.00 L 1029.00 614.00 L 1011.00 630.00 L 1012.00 633.00 L 1032.00 623.00 L 1032.00 626.00 L 1012.00 642.00 L 1013.00 645.00 L 1035.00 635.00 L 1035.00 638.00 L 1013.00 654.00 L 1014.00 656.00 L 1038.00 644.00 L 1038.00 647.00 L 1014.00 665.00 L 1014.00 667.00 L 1038.00 653.00 L 1037.00 656.00 L 1011.00 676.00 L 1011.00 680.00 L 1037.00 668.00 L 1037.00 670.00 L 1011.00 686.00 L 1010.00 688.00 L 1034.00 676.00 L 1034.00 678.00 L 1010.00 694.00 L 995.00 719.00 L 989.00 753.00 L 1001.00 795.00 L 1031.00 845.00 L 1036.00 880.00 L 1016.00 900.00 L 1003.00 933.00 L 997.00 979.00 L 985.00 1022.00 L 967.00 1062.00 L 947.00 1089.00 L 925.00 1103.00 L 890.00 1114.00 L 842.00 1122.00 L 856.00 1218.00 L 932.00 1402.00 L 930.00 1402.00 L 850.00 1218.00 L 850.00 1222.00 L 930.00 1414.00 L 960.00 1490.00 L 940.00 1450.00 L 940.00 1455.00 L 960.00 1505.00 L 959.00 1504.00 L 937.00 1452.00 L 937.00 1458.00 L 959.00 1522.00 L 928.00 1448.00 L 844.00 1236.00 L 844.00 1238.00 L 928.00 1454.00 L 954.00 1524.00 L 922.00 1448.00 L 921.00 1452.00 L 951.00 1536.00 L 949.00 1534.00 L 915.00 1446.00 L 914.00 1448.00 L 946.00 1540.00 L 944.00 1538.00 L 908.00 1442.00 L 907.00 1447.00 L 941.00 1553.00 L 917.00 1489.00 L 835.00 1255.00 L 833.00 1256.00 L 911.00 1492.00 L 910.00 1494.00 L 830.00 1262.00 L 827.00 1261.00 L 901.00 1491.00 L 900.00 1492.00 L 824.00 1264.00 L 819.00 1262.00 L 885.00 1486.00 L 885.00 1488.00 L 819.00 1268.00 L 817.00 1267.00 L 879.00 1485.00 L 879.00 1488.00 L 817.00 1276.00 L 813.00 1274.00 L 867.00 1482.00 L 867.00 1486.00 L 813.00 1286.00 L 811.00 1284.00 L 861.00 1480.00 L 861.00 1483.00 L 811.00 1293.00 L 808.00 1291.00 L 852.00 1477.00 L 830.00 1540.00 L 742.00 1480.00 L 641.00 1429.00 L 527.00 1387.00 L 466.00 1348.00 L 458.00 1312.00 L 467.00 1260.00 L 493.00 1192.00 L 508.00 1126.00 L 512.00 1062.00 L 501.00 997.00 L 475.00 931.00 L 451.00 892.00 L 429.00 880.00 L 417.00 873.00 L 415.00 871.00 L 394.00 848.00 Z" fill="black" stroke="black" stroke-width="1"/>
</svg>