<?xml version="1.0" encoding="UTF-8"?>
<svg xmlns="http://www.w3.org/2000/svg" viewBox="444.00 303.00 867.00 1448.00">
  <path d="M 611.00 991.00 L 629.00 945.00 L 630.00 916.00 L 614.00 904.00 L 614.00 901.00 L 630.00 907.00 L 626.00 902.00 L 602.00 886.00 L 602.00 883.00 L 626.00 893.00 L 608.00 875.00 L 548.00 829.00 L 502.00 766.00 L 470.00 686.00 L 454.00 626.00 L 454.00 586.00 L 464.00 536.00 L 484.00 476.00 L 514.00 425.00 L 554.00 383.00 L 594.00 352.00 L 634.00 332.00 L 682.00 319.00 L 738.00 313.00 L 795.00 313.00 L 853.00 319.00 L 915.00 343.00 L 981.00 385.00 L 1034.00 435.00 L 1074.00 493.00 L 1092.00 532.00 L 1088.00 552.00 L 1090.00 554.00 L 1098.00 538.00 L 1099.00 540.00 L 1093.00 560.00 L 1095.00 562.00 L 1105.00 546.00 L 1106.00 549.00 L 1098.00 571.00 L 1100.00 573.00 L 1112.00 555.00 L 1114.00 564.00 L 1106.00 600.00 L 1109.00 607.00 L 1123.00 585.00 L 1125.00 585.00 L 1115.00 607.00 L 1115.00 612.00 L 1125.00 600.00 L 1125.00 604.00 L 1115.00 624.00 L 1115.00 626.00 L 1125.00 610.00 L 1124.00 620.00 L 1112.00 656.00 L 1112.00 666.00 L 1124.00 650.00 L 1124.00 651.00 L 1112.00 669.00 L 1113.00 671.00 L 1127.00 657.00 L 1128.00 660.00 L 1116.00 680.00 L 1117.00 683.00 L 1131.00 669.00 L 1132.00 671.00 L 1120.00 689.00 L 1120.00 691.00 L 1132.00 677.00 L 1134.00 680.00 L 1126.00 700.00 L 1134.00 730.00 L 1158.00 770.00 L 1160.00 801.00 L 1140.00 823.00 L 1131.00 844.00 L 1133.00 864.00 L 1129.00 879.00 L 1119.00 889.00 L 1114.00 904.00 L 1114.00 924.00 L 1109.00 937.00 L 1099.00 943.00 L 1093.00 965.00 L 1091.00 1003.00 L 1054.00 1040.00 L 982.00 1076.00 L 1019.00 1175.00 L 1165.00 1337.00 L 1234.00 1414.00 L 1226.00 1406.00 L 1231.00 1412.00 L 1249.00 1432.00 L 1240.00 1423.00 L 1204.00 1385.00 L 1205.00 1387.00 L 1243.00 1429.00 L 1239.00 1425.00 L 1193.00 1375.00 L 1195.00 1378.00 L 1245.00 1434.00 L 1241.00 1430.00 L 1183.00 1366.00 L 1187.00 1372.00 L 1253.00 1448.00 L 1251.00 1447.00 L 1181.00 1369.00 L 1182.00 1371.00 L 1254.00 1453.00 L 1250.00 1449.00 L 1170.00 1359.00 L 1171.00 1361.00 L 1253.00 1455.00 L 1206.00 1401.00 L 1030.00 1199.00 L 1031.00 1201.00 L 1209.00 1407.00 L 1299.00 1513.00 L 1301.00 1519.00 L 1254.00 1466.00 L 1158.00 1354.00 L 1159.00 1356.00 L 1257.00 1472.00 L 1253.00 1468.00 L 1147.00 1344.00 L 1148.00 1347.00 L 1256.00 1477.00 L 1252.00 1474.00 L 1136.00 1338.00 L 1137.00 1345.00 L 1255.00 1495.00 L 1251.00 1492.00 L 1125.00 1336.00 L 1125.00 1338.00 L 1251.00 1498.00 L 1249.00 1497.00 L 1119.00 1335.00 L 1118.00 1337.00 L 1246.00 1503.00 L 1243.00 1500.00 L 1109.00 1328.00 L 1109.00 1330.00 L 1243.00 1506.00 L 1240.00 1503.00 L 1100.00 1321.00 L 1098.00 1326.00 L 1234.00 1518.00 L 1231.00 1516.00 L 1089.00 1320.00 L 1089.00 1321.00 L 1231.00 1519.00 L 1210.00 1490.00 L 1026.00 1234.00 L 1025.00 1236.00 L 1207.00 1496.00 L 1223.00 1521.00 L 1073.00 1311.00 L 1071.00 1316.00 L 1217.00 1536.00 L 1215.00 1534.00 L 1065.00 1310.00 L 1064.00 1311.00 L 1212.00 1537.00 L 1211.00 1536.00 L 1061.00 1308.00 L 1060.00 1311.00 L 1208.00 1545.00 L 1205.00 1543.00 L 1051.00 1305.00 L 1048.00 1308.00 L 1196.00 1552.00 L 1194.00 1550.00 L 1042.00 1302.00 L 1040.00 1304.00 L 1188.00 1556.00 L 1179.00 1541.00 L 1013.00 1259.00 L 1011.00 1261.00 L 1173.00 1547.00 L 1173.00 1549.00 L 1011.00 1267.00 L 1007.00 1271.00 L 1161.00 1561.00 L 1161.00 1563.00 L 1007.00 1277.00 L 1003.00 1280.00 L 1149.00 1572.00 L 1218.00 1719.00 L 1210.00 1721.00 L 1137.00 1577.00 L 999.00 1287.00 L 997.00 1288.00 L 1131.00 1580.00 L 1196.00 1729.00 L 1192.00 1735.00 L 1181.00 1739.00 L 1163.00 1741.00 L 1100.00 1700.00 L 992.00 1616.00 L 908.00 1553.00 L 848.00 1511.00 L 793.00 1480.00 L 743.00 1460.00 L 719.00 1447.00 L 721.00 1441.00 L 683.00 1423.00 L 605.00 1393.00 L 541.00 1375.00 L 491.00 1369.00 L 464.00 1362.00 L 460.00 1354.00 L 471.00 1313.00 L 497.00 1239.00 L 532.00 1158.00 L 576.00 1070.00 L 599.00 1023.00 L 601.00 1017.00 L 611.00 991.00 Z" fill="black" stroke="black" stroke-width="1"/>
</svg>