<?xml version="1.0" encoding="UTF-8"?>
<svg xmlns="http://www.w3.org/2000/svg" viewBox="404.00 185.00 851.00 1537.00">
  <path d="M 512.00 934.00 L 516.00 902.00 L 520.00 881.00 L 524.00 871.00 L 531.00 860.00 L 541.00 848.00 L 541.00 836.00 L 531.00 824.00 L 524.00 803.00 L 520.00 773.00 L 504.00 733.00 L 476.00 683.00 L 458.00 635.00 L 450.00 589.00 L 447.00 546.00 L 449.00 506.00 L 452.00 474.00 L 456.00 450.00 L 465.00 422.00 L 479.00 390.00 L 491.00 366.00 L 501.00 350.00 L 522.00 325.00 L 554.00 291.00 L 580.00 267.00 L 600.00 253.00 L 630.00 237.00 L 670.00 219.00 L 703.00 209.00 L 729.00 207.00 L 752.00 203.00 L 772.00 197.00 L 786.00 195.00 L 794.00 197.00 L 801.00 197.00 L 807.00 195.00 L 821.00 197.00 L 843.00 203.00 L 878.00 218.00 L 926.00 242.00 L 961.00 261.00 L 983.00 275.00 L 1002.00 293.00 L 1018.00 315.00 L 1045.00 345.00 L 1083.00 383.00 L 1099.00 409.00 L 1093.00 423.00 L 1091.00 431.00 L 1093.00 433.00 L 1097.00 428.00 L 1103.00 416.00 L 1104.00 418.00 L 1100.00 434.00 L 1101.00 437.00 L 1107.00 427.00 L 1107.00 430.00 L 1101.00 446.00 L 1101.00 448.00 L 1107.00 436.00 L 1108.00 438.00 L 1104.00 454.00 L 1105.00 456.00 L 1111.00 444.00 L 1116.00 441.00 L 1120.00 447.00 L 1119.00 456.00 L 1113.00 468.00 L 1112.00 471.00 L 1116.00 465.00 L 1119.00 463.00 L 1121.00 465.00 L 1120.00 470.00 L 1116.00 478.00 L 1119.00 475.00 L 1129.00 461.00 L 1130.00 464.00 L 1122.00 484.00 L 1124.00 484.00 L 1136.00 464.00 L 1137.00 466.00 L 1127.00 490.00 L 1130.00 492.00 L 1146.00 472.00 L 1147.00 475.00 L 1133.00 501.00 L 1135.00 502.00 L 1153.00 478.00 L 1153.00 481.00 L 1135.00 511.00 L 1133.00 515.00 L 1147.00 493.00 L 1156.00 483.00 L 1160.00 485.00 L 1154.00 499.00 L 1138.00 525.00 L 1140.00 523.00 L 1160.00 493.00 L 1160.00 496.00 L 1140.00 532.00 L 1133.00 552.00 L 1139.00 556.00 L 1141.00 561.00 L 1139.00 567.00 L 1139.00 569.00 L 1141.00 567.00 L 1142.00 569.00 L 1142.00 575.00 L 1146.00 586.00 L 1154.00 602.00 L 1173.00 626.00 L 1203.00 658.00 L 1218.00 679.00 L 1218.00 689.00 L 1204.00 705.00 L 1176.00 727.00 L 1175.00 729.00 L 1201.00 711.00 L 1201.00 713.00 L 1175.00 735.00 L 1164.00 754.00 L 1168.00 770.00 L 1163.00 790.00 L 1149.00 814.00 L 1138.00 829.00 L 1130.00 835.00 L 1128.00 848.00 L 1132.00 868.00 L 1131.00 887.00 L 1125.00 905.00 L 1112.00 923.00 L 1092.00 941.00 L 1083.00 950.00 L 1085.00 950.00 L 1083.00 951.00 L 1077.00 953.00 L 1079.00 958.00 L 1089.00 966.00 L 1094.00 973.00 L 1094.00 979.00 L 1093.00 985.00 L 1091.00 991.00 L 1083.00 1000.00 L 1069.00 1012.00 L 1060.00 1022.00 L 1056.00 1030.00 L 1060.00 1038.00 L 1072.00 1046.00 L 1071.00 1048.00 L 1057.00 1044.00 L 1058.00 1047.00 L 1074.00 1057.00 L 1084.00 1071.00 L 1088.00 1089.00 L 1108.00 1109.00 L 1144.00 1131.00 L 1143.00 1133.00 L 1105.00 1115.00 L 1104.00 1118.00 L 1140.00 1142.00 L 1139.00 1143.00 L 1101.00 1121.00 L 1099.00 1123.00 L 1133.00 1149.00 L 1134.00 1151.00 L 1102.00 1129.00 L 1101.00 1130.00 L 1131.00 1154.00 L 1140.00 1168.00 L 1128.00 1172.00 L 1113.00 1173.00 L 1095.00 1171.00 L 1093.00 1179.00 L 1107.00 1197.00 L 1118.00 1223.00 L 1126.00 1257.00 L 1142.00 1292.00 L 1166.00 1328.00 L 1176.00 1344.00 L 1172.00 1340.00 L 1178.00 1353.00 L 1194.00 1383.00 L 1212.00 1429.00 L 1232.00 1491.00 L 1243.00 1533.00 L 1245.00 1555.00 L 1244.00 1581.00 L 1240.00 1611.00 L 1228.00 1641.00 L 1208.00 1671.00 L 1191.00 1691.00 L 1177.00 1701.00 L 1158.00 1708.00 L 1134.00 1712.00 L 1104.00 1706.00 L 1068.00 1690.00 L 1037.00 1674.00 L 1011.00 1658.00 L 991.00 1644.00 L 977.00 1632.00 L 951.00 1615.00 L 913.00 1593.00 L 860.00 1567.00 L 792.00 1537.00 L 735.00 1514.00 L 689.00 1498.00 L 643.00 1484.00 L 597.00 1472.00 L 545.00 1461.00 L 487.00 1451.00 L 450.00 1446.00 L 434.00 1446.00 L 422.00 1444.00 L 414.00 1440.00 L 416.00 1412.00 L 428.00 1360.00 L 438.00 1308.00 L 446.00 1256.00 L 464.00 1192.00 L 492.00 1116.00 L 505.00 1074.00 L 503.00 1066.00 L 503.00 1036.00 L 505.00 984.00 L 507.00 956.00 L 509.00 952.00 L 512.00 934.00 Z" fill="black" stroke="black" stroke-width="1"/>
</svg>