<?xml version="1.0" encoding="UTF-8"?>
<svg xmlns="http://www.w3.org/2000/svg" viewBox="354.00 197.00 899.00 1571.00">
  <path d="M 472.00 946.00 L 480.00 882.00 L 488.00 837.00 L 496.00 811.00 L 496.00 793.00 L 488.00 783.00 L 479.00 766.00 L 469.00 742.00 L 455.00 715.00 L 437.00 685.00 L 424.00 660.00 L 416.00 640.00 L 409.00 615.00 L 403.00 585.00 L 401.00 553.00 L 403.00 519.00 L 408.00 482.00 L 416.00 442.00 L 431.00 400.00 L 453.00 356.00 L 474.00 322.00 L 494.00 298.00 L 516.00 276.00 L 540.00 256.00 L 570.00 239.00 L 606.00 225.00 L 642.00 215.00 L 678.00 209.00 L 726.00 207.00 L 786.00 209.00 L 830.00 213.00 L 858.00 219.00 L 890.00 230.00 L 926.00 246.00 L 959.00 263.00 L 989.00 281.00 L 1019.00 305.00 L 1049.00 335.00 L 1062.00 356.00 L 1058.00 368.00 L 1057.00 376.00 L 1059.00 380.00 L 1063.00 376.00 L 1069.00 364.00 L 1070.00 366.00 L 1066.00 382.00 L 1067.00 384.00 L 1073.00 372.00 L 1074.00 374.00 L 1070.00 390.00 L 1072.00 392.00 L 1080.00 380.00 L 1081.00 382.00 L 1075.00 398.00 L 1073.00 409.00 L 1075.00 415.00 L 1080.00 410.00 L 1088.00 394.00 L 1089.00 396.00 L 1083.00 416.00 L 1084.00 418.00 L 1092.00 402.00 L 1093.00 404.00 L 1087.00 424.00 L 1088.00 427.00 L 1096.00 413.00 L 1097.00 415.00 L 1091.00 433.00 L 1092.00 436.00 L 1100.00 424.00 L 1101.00 427.00 L 1095.00 445.00 L 1096.00 448.00 L 1104.00 436.00 L 1105.00 438.00 L 1099.00 454.00 L 1099.00 457.00 L 1105.00 447.00 L 1107.00 449.00 L 1105.00 463.00 L 1106.00 476.00 L 1110.00 488.00 L 1114.00 496.00 L 1118.00 500.00 L 1121.00 510.00 L 1123.00 526.00 L 1123.00 544.00 L 1121.00 564.00 L 1122.00 580.00 L 1126.00 592.00 L 1132.00 604.00 L 1140.00 616.00 L 1145.00 621.00 L 1147.00 619.00 L 1150.00 619.00 L 1154.00 621.00 L 1157.00 627.00 L 1159.00 637.00 L 1166.00 650.00 L 1178.00 666.00 L 1190.00 679.00 L 1202.00 689.00 L 1211.00 700.00 L 1217.00 712.00 L 1219.00 722.00 L 1217.00 730.00 L 1202.00 744.00 L 1174.00 764.00 L 1172.00 767.00 L 1196.00 753.00 L 1194.00 756.00 L 1166.00 776.00 L 1165.00 778.00 L 1191.00 762.00 L 1191.00 765.00 L 1165.00 787.00 L 1155.00 802.00 L 1161.00 810.00 L 1162.00 818.00 L 1158.00 826.00 L 1153.00 832.00 L 1147.00 836.00 L 1145.00 845.00 L 1147.00 859.00 L 1143.00 874.00 L 1133.00 890.00 L 1128.00 902.00 L 1128.00 910.00 L 1130.00 919.00 L 1134.00 929.00 L 1135.00 943.00 L 1133.00 961.00 L 1128.00 975.00 L 1120.00 985.00 L 1106.00 996.00 L 1086.00 1008.00 L 1082.00 1017.00 L 1094.00 1023.00 L 1101.00 1028.00 L 1103.00 1032.00 L 1098.00 1045.00 L 1086.00 1067.00 L 1089.00 1082.00 L 1107.00 1090.00 L 1111.00 1093.00 L 1101.00 1091.00 L 1103.00 1094.00 L 1117.00 1102.00 L 1112.00 1102.00 L 1088.00 1094.00 L 1090.00 1097.00 L 1118.00 1111.00 L 1118.00 1113.00 L 1090.00 1103.00 L 1091.00 1106.00 L 1121.00 1122.00 L 1120.00 1123.00 L 1088.00 1109.00 L 1087.00 1111.00 L 1117.00 1129.00 L 1128.00 1142.00 L 1120.00 1150.00 L 1121.00 1159.00 L 1131.00 1169.00 L 1129.00 1170.00 L 1115.00 1162.00 L 1133.00 1176.00 L 1183.00 1212.00 L 1181.00 1212.00 L 1127.00 1176.00 L 1127.00 1179.00 L 1181.00 1221.00 L 1196.00 1234.00 L 1172.00 1218.00 L 1170.00 1220.00 L 1190.00 1240.00 L 1194.00 1252.00 L 1182.00 1256.00 L 1169.00 1258.00 L 1155.00 1258.00 L 1142.00 1256.00 L 1130.00 1252.00 L 1126.00 1254.00 L 1130.00 1262.00 L 1133.00 1275.00 L 1135.00 1293.00 L 1138.00 1307.00 L 1142.00 1317.00 L 1158.00 1351.00 L 1186.00 1409.00 L 1210.00 1473.00 L 1230.00 1543.00 L 1241.00 1603.00 L 1243.00 1653.00 L 1239.00 1691.00 L 1229.00 1717.00 L 1220.00 1734.00 L 1212.00 1742.00 L 1200.00 1749.00 L 1184.00 1755.00 L 1167.00 1758.00 L 1149.00 1758.00 L 1130.00 1756.00 L 1110.00 1752.00 L 1085.00 1745.00 L 1055.00 1735.00 L 1030.00 1725.00 L 1010.00 1715.00 L 988.00 1703.00 L 964.00 1689.00 L 930.00 1666.00 L 886.00 1634.00 L 825.00 1600.00 L 747.00 1564.00 L 656.00 1530.00 L 552.00 1498.00 L 466.00 1478.00 L 398.00 1470.00 L 364.00 1449.00 L 364.00 1415.00 L 366.00 1381.00 L 370.00 1347.00 L 375.00 1318.00 L 381.00 1294.00 L 395.00 1257.00 L 417.00 1207.00 L 432.00 1167.00 L 440.00 1137.00 L 452.00 1104.00 L 468.00 1068.00 L 474.00 1042.00 L 470.00 1026.00 L 468.00 1010.00 L 468.00 994.00 L 468.00 984.00 L 468.00 980.00 L 472.00 946.00 Z" fill="black" stroke="black" stroke-width="1"/>
</svg>