<?xml version="1.0" encoding="UTF-8"?>
<svg xmlns="http://www.w3.org/2000/svg" viewBox="274.00 189.00 990.00 1729.00">
  <path d="M 425.00 1003.00 L 431.00 949.00 L 439.00 912.00 L 449.00 892.00 L 450.00 879.00 L 442.00 873.00 L 436.00 865.00 L 432.00 855.00 L 429.00 837.00 L 427.00 811.00 L 409.00 756.00 L 375.00 672.00 L 357.00 603.00 L 355.00 549.00 L 360.00 499.00 L 372.00 453.00 L 389.00 416.00 L 411.00 388.00 L 428.00 362.00 L 440.00 338.00 L 458.00 315.00 L 482.00 293.00 L 504.00 281.00 L 524.00 279.00 L 533.00 275.00 L 531.00 269.00 L 533.00 269.00 L 539.00 275.00 L 542.00 276.00 L 542.00 272.00 L 546.00 270.00 L 554.00 270.00 L 559.00 267.00 L 561.00 261.00 L 563.00 260.00 L 565.00 264.00 L 568.00 265.00 L 572.00 263.00 L 573.00 258.00 L 571.00 250.00 L 580.00 240.00 L 600.00 228.00 L 628.00 217.00 L 664.00 207.00 L 702.00 201.00 L 742.00 199.00 L 777.00 204.00 L 807.00 216.00 L 836.00 221.00 L 864.00 219.00 L 887.00 220.00 L 905.00 224.00 L 941.00 241.00 L 995.00 271.00 L 1038.00 298.00 L 1070.00 322.00 L 1088.00 340.00 L 1092.00 352.00 L 1093.00 367.00 L 1091.00 385.00 L 1094.00 387.00 L 1102.00 373.00 L 1103.00 375.00 L 1097.00 393.00 L 1098.00 394.00 L 1106.00 378.00 L 1107.00 380.00 L 1101.00 400.00 L 1103.00 402.00 L 1113.00 386.00 L 1114.00 388.00 L 1106.00 408.00 L 1108.00 410.00 L 1120.00 394.00 L 1122.00 397.00 L 1114.00 419.00 L 1114.00 422.00 L 1122.00 406.00 L 1123.00 408.00 L 1117.00 428.00 L 1127.00 468.00 L 1153.00 528.00 L 1163.00 575.00 L 1157.00 609.00 L 1155.00 631.00 L 1157.00 641.00 L 1182.00 680.00 L 1230.00 748.00 L 1254.00 784.00 L 1254.00 788.00 L 1235.00 801.00 L 1197.00 823.00 L 1181.00 833.00 L 1187.00 831.00 L 1186.00 833.00 L 1178.00 839.00 L 1194.00 831.00 L 1234.00 809.00 L 1233.00 811.00 L 1191.00 837.00 L 1188.00 841.00 L 1224.00 823.00 L 1224.00 825.00 L 1188.00 847.00 L 1168.00 867.00 L 1164.00 885.00 L 1158.00 898.00 L 1150.00 906.00 L 1150.00 909.00 L 1158.00 907.00 L 1158.00 909.00 L 1150.00 915.00 L 1150.00 918.00 L 1158.00 918.00 L 1160.00 919.00 L 1156.00 921.00 L 1157.00 923.00 L 1163.00 925.00 L 1163.00 935.00 L 1157.00 953.00 L 1157.00 974.00 L 1163.00 998.00 L 1165.00 1018.00 L 1163.00 1034.00 L 1151.00 1051.00 L 1129.00 1069.00 L 1122.00 1085.00 L 1130.00 1099.00 L 1131.00 1111.00 L 1125.00 1121.00 L 1112.00 1133.00 L 1092.00 1147.00 L 1091.00 1162.00 L 1109.00 1178.00 L 1107.00 1181.00 L 1085.00 1171.00 L 1087.00 1174.00 L 1113.00 1190.00 L 1112.00 1192.00 L 1084.00 1180.00 L 1083.00 1184.00 L 1109.00 1204.00 L 1108.00 1206.00 L 1080.00 1190.00 L 1077.00 1192.00 L 1099.00 1212.00 L 1107.00 1223.00 L 1101.00 1225.00 L 1103.00 1230.00 L 1113.00 1238.00 L 1112.00 1238.00 L 1100.00 1230.00 L 1114.00 1244.00 L 1154.00 1280.00 L 1163.00 1290.00 L 1141.00 1274.00 L 1143.00 1277.00 L 1169.00 1299.00 L 1170.00 1301.00 L 1146.00 1283.00 L 1144.00 1285.00 L 1164.00 1307.00 L 1171.00 1318.00 L 1165.00 1318.00 L 1143.00 1304.00 L 1105.00 1276.00 L 1102.00 1276.00 L 1134.00 1304.00 L 1131.00 1302.00 L 1093.00 1270.00 L 1090.00 1270.00 L 1122.00 1302.00 L 1123.00 1305.00 L 1093.00 1279.00 L 1091.00 1278.00 L 1117.00 1302.00 L 1118.00 1304.00 L 1094.00 1284.00 L 1088.00 1297.00 L 1100.00 1343.00 L 1105.00 1365.00 L 1103.00 1363.00 L 1128.00 1409.00 L 1180.00 1503.00 L 1218.00 1587.00 L 1242.00 1661.00 L 1252.00 1731.00 L 1248.00 1797.00 L 1240.00 1840.00 L 1228.00 1860.00 L 1214.00 1878.00 L 1198.00 1894.00 L 1185.00 1904.00 L 1175.00 1908.00 L 1157.00 1908.00 L 1131.00 1904.00 L 1050.00 1855.00 L 914.00 1761.00 L 788.00 1684.00 L 672.00 1624.00 L 583.00 1580.00 L 521.00 1552.00 L 462.00 1528.00 L 406.00 1508.00 L 356.00 1494.00 L 312.00 1486.00 L 288.00 1478.00 L 284.00 1470.00 L 292.00 1434.00 L 312.00 1370.00 L 337.00 1310.00 L 367.00 1254.00 L 386.00 1210.00 L 394.00 1178.00 L 405.00 1149.00 L 419.00 1123.00 L 424.00 1104.00 L 420.00 1092.00 L 419.00 1075.00 L 421.00 1053.00 L 422.00 1039.00 L 422.00 1033.00 L 425.00 1003.00 Z" fill="black" stroke="black" stroke-width="1"/>
</svg>