<?xml version="1.0" encoding="UTF-8"?>
<svg xmlns="http://www.w3.org/2000/svg" viewBox="358.00 229.00 908.00 1712.00">
  <path d="M 580.00 1041.00 L 584.00 999.00 L 561.00 951.00 L 511.00 897.00 L 475.00 846.00 L 453.00 798.00 L 431.00 766.00 L 409.00 750.00 L 408.00 748.00 L 428.00 760.00 L 425.00 756.00 L 399.00 736.00 L 380.00 710.00 L 368.00 678.00 L 368.00 627.00 L 380.00 557.00 L 399.00 497.00 L 425.00 447.00 L 453.00 407.00 L 483.00 377.00 L 508.00 341.00 L 528.00 299.00 L 549.00 287.00 L 571.00 305.00 L 588.00 301.00 L 600.00 275.00 L 618.00 256.00 L 642.00 244.00 L 659.00 239.00 L 669.00 241.00 L 679.00 258.00 L 689.00 290.00 L 692.00 292.00 L 688.00 264.00 L 691.00 264.00 L 701.00 292.00 L 747.00 304.00 L 829.00 300.00 L 914.00 316.00 L 1002.00 352.00 L 1066.00 389.00 L 1106.00 427.00 L 1124.00 455.00 L 1120.00 473.00 L 1123.00 476.00 L 1133.00 464.00 L 1136.00 469.00 L 1132.00 491.00 L 1135.00 494.00 L 1145.00 478.00 L 1146.00 483.00 L 1138.00 509.00 L 1141.00 512.00 L 1155.00 492.00 L 1157.00 498.00 L 1147.00 530.00 L 1150.00 535.00 L 1166.00 513.00 L 1168.00 522.00 L 1156.00 562.00 L 1158.00 570.00 L 1174.00 546.00 L 1174.00 549.00 L 1158.00 579.00 L 1159.00 581.00 L 1177.00 555.00 L 1177.00 558.00 L 1159.00 590.00 L 1160.00 592.00 L 1180.00 564.00 L 1180.00 569.00 L 1160.00 607.00 L 1161.00 610.00 L 1183.00 578.00 L 1184.00 580.00 L 1164.00 616.00 L 1165.00 620.00 L 1187.00 592.00 L 1187.00 595.00 L 1165.00 629.00 L 1165.00 632.00 L 1187.00 604.00 L 1187.00 606.00 L 1165.00 638.00 L 1164.00 641.00 L 1184.00 615.00 L 1185.00 618.00 L 1167.00 650.00 L 1181.00 691.00 L 1227.00 741.00 L 1252.00 774.00 L 1256.00 790.00 L 1244.00 811.00 L 1216.00 837.00 L 1210.00 846.00 L 1226.00 838.00 L 1225.00 841.00 L 1207.00 855.00 L 1198.00 883.00 L 1198.00 925.00 L 1189.00 969.00 L 1171.00 1015.00 L 1150.00 1047.00 L 1126.00 1065.00 L 1087.00 1078.00 L 1033.00 1086.00 L 992.00 1114.00 L 964.00 1162.00 L 1019.00 1291.00 L 1157.00 1501.00 L 1208.00 1580.00 L 1172.00 1528.00 L 1177.00 1537.00 L 1223.00 1607.00 L 1218.00 1601.00 L 1162.00 1519.00 L 1163.00 1522.00 L 1221.00 1610.00 L 1218.00 1606.00 L 1154.00 1510.00 L 1157.00 1516.00 L 1227.00 1624.00 L 1224.00 1621.00 L 1148.00 1507.00 L 1149.00 1510.00 L 1227.00 1630.00 L 1226.00 1629.00 L 1146.00 1507.00 L 1147.00 1509.00 L 1229.00 1635.00 L 1224.00 1628.00 L 1132.00 1488.00 L 1134.00 1494.00 L 1230.00 1646.00 L 1195.00 1592.00 L 1029.00 1332.00 L 1029.00 1334.00 L 1195.00 1598.00 L 1224.00 1645.00 L 1116.00 1475.00 L 1118.00 1481.00 L 1230.00 1663.00 L 1228.00 1661.00 L 1112.00 1475.00 L 1112.00 1477.00 L 1228.00 1667.00 L 1226.00 1665.00 L 1106.00 1471.00 L 1106.00 1473.00 L 1226.00 1671.00 L 1222.00 1666.00 L 1094.00 1458.00 L 1094.00 1462.00 L 1222.00 1678.00 L 1201.00 1643.00 L 1031.00 1357.00 L 1030.00 1361.00 L 1198.00 1655.00 L 1213.00 1683.00 L 1075.00 1445.00 L 1074.00 1448.00 L 1210.00 1692.00 L 1207.00 1688.00 L 1065.00 1436.00 L 1064.00 1438.00 L 1204.00 1694.00 L 1191.00 1671.00 L 1025.00 1369.00 L 1024.00 1371.00 L 1188.00 1677.00 L 1196.00 1694.00 L 1048.00 1422.00 L 1045.00 1428.00 L 1187.00 1712.00 L 1179.00 1698.00 L 1021.00 1386.00 L 1019.00 1388.00 L 1173.00 1704.00 L 1176.00 1713.00 L 1028.00 1415.00 L 1025.00 1418.00 L 1167.00 1722.00 L 1164.00 1717.00 L 1016.00 1403.00 L 1013.00 1406.00 L 1155.00 1726.00 L 1189.00 1901.00 L 1115.00 1931.00 L 1029.00 1905.00 L 931.00 1823.00 L 847.00 1762.00 L 777.00 1722.00 L 698.00 1683.00 L 610.00 1645.00 L 534.00 1620.00 L 470.00 1608.00 L 445.00 1544.00 L 459.00 1428.00 L 481.00 1320.00 L 511.00 1220.00 L 539.00 1146.00 L 565.00 1098.00 L 578.00 1071.00 L 578.00 1065.00 L 580.00 1041.00 Z" fill="black" stroke="black" stroke-width="1"/>
</svg>