<?xml version="1.0" encoding="UTF-8"?>
<svg xmlns="http://www.w3.org/2000/svg" viewBox="344.00 274.00 878.00 1421.00">
  <path d="M 599.00 987.00 L 613.00 965.00 L 617.00 948.00 L 611.00 936.00 L 611.00 931.00 L 617.00 933.00 L 614.00 928.00 L 602.00 916.00 L 597.00 906.00 L 599.00 898.00 L 544.00 858.00 L 432.00 786.00 L 432.00 784.00 L 544.00 852.00 L 542.00 849.00 L 426.00 775.00 L 396.00 755.00 L 452.00 789.00 L 451.00 787.00 L 393.00 749.00 L 395.00 749.00 L 457.00 787.00 L 456.00 785.00 L 392.00 743.00 L 393.00 743.00 L 459.00 785.00 L 459.00 784.00 L 393.00 740.00 L 421.00 758.00 L 543.00 838.00 L 540.00 832.00 L 412.00 740.00 L 412.00 738.00 L 540.00 826.00 L 539.00 823.00 L 409.00 729.00 L 396.00 718.00 L 500.00 790.00 L 499.00 785.00 L 393.00 703.00 L 406.00 712.00 L 538.00 812.00 L 538.00 810.00 L 406.00 706.00 L 396.00 697.00 L 508.00 783.00 L 508.00 780.00 L 396.00 688.00 L 406.00 695.00 L 538.00 801.00 L 539.00 798.00 L 409.00 686.00 L 409.00 684.00 L 539.00 792.00 L 540.00 790.00 L 412.00 678.00 L 410.00 674.00 L 534.00 778.00 L 535.00 775.00 L 413.00 665.00 L 354.00 595.00 L 358.00 565.00 L 370.00 535.00 L 390.00 505.00 L 410.00 466.00 L 430.00 418.00 L 460.00 377.00 L 500.00 343.00 L 532.00 322.00 L 556.00 314.00 L 581.00 315.00 L 607.00 325.00 L 626.00 327.00 L 638.00 321.00 L 652.00 319.00 L 668.00 321.00 L 689.00 314.00 L 715.00 298.00 L 738.00 288.00 L 758.00 284.00 L 782.00 284.00 L 810.00 288.00 L 824.00 302.00 L 824.00 326.00 L 827.00 326.00 L 833.00 302.00 L 836.00 303.00 L 836.00 329.00 L 838.00 331.00 L 842.00 309.00 L 845.00 310.00 L 847.00 334.00 L 866.00 355.00 L 902.00 373.00 L 937.00 398.00 L 971.00 430.00 L 1012.00 482.00 L 1060.00 554.00 L 1083.00 604.00 L 1081.00 632.00 L 1084.00 641.00 L 1092.00 631.00 L 1091.00 636.00 L 1081.00 656.00 L 1081.00 661.00 L 1091.00 651.00 L 1091.00 653.00 L 1081.00 667.00 L 1080.00 671.00 L 1088.00 665.00 L 1086.00 671.00 L 1074.00 689.00 L 1075.00 691.00 L 1089.00 677.00 L 1088.00 679.00 L 1072.00 697.00 L 1072.00 699.00 L 1088.00 685.00 L 1088.00 688.00 L 1072.00 708.00 L 1082.00 744.00 L 1118.00 796.00 L 1124.00 835.00 L 1100.00 861.00 L 1091.00 880.00 L 1097.00 892.00 L 1096.00 902.00 L 1088.00 910.00 L 1081.00 926.00 L 1075.00 950.00 L 1074.00 978.00 L 1078.00 1010.00 L 1071.00 1030.00 L 1053.00 1038.00 L 1049.00 1043.00 L 1059.00 1045.00 L 1047.00 1046.00 L 1013.00 1046.00 L 1004.00 1050.00 L 1020.00 1058.00 L 1004.00 1063.00 L 956.00 1065.00 L 927.00 1081.00 L 917.00 1111.00 L 977.00 1196.00 L 1107.00 1336.00 L 1107.00 1338.00 L 977.00 1202.00 L 983.00 1210.00 L 1125.00 1362.00 L 1144.00 1383.00 L 1040.00 1273.00 L 1041.00 1277.00 L 1147.00 1395.00 L 1143.00 1392.00 L 1029.00 1268.00 L 1030.00 1270.00 L 1146.00 1398.00 L 1133.00 1384.00 L 991.00 1228.00 L 992.00 1230.00 L 1136.00 1390.00 L 1135.00 1389.00 L 989.00 1227.00 L 990.00 1231.00 L 1138.00 1401.00 L 1209.00 1483.00 L 1203.00 1477.00 L 1203.00 1479.00 L 1209.00 1489.00 L 1212.00 1504.00 L 1212.00 1524.00 L 1208.00 1532.00 L 1200.00 1528.00 L 1199.00 1530.00 L 1205.00 1538.00 L 1205.00 1548.00 L 1199.00 1560.00 L 1194.00 1564.00 L 1190.00 1560.00 L 1189.00 1562.00 L 1191.00 1570.00 L 1186.00 1584.00 L 1174.00 1604.00 L 1163.00 1618.00 L 1153.00 1626.00 L 1139.00 1631.00 L 1121.00 1633.00 L 1108.00 1640.00 L 1100.00 1652.00 L 1094.00 1656.00 L 1090.00 1652.00 L 1089.00 1655.00 L 1091.00 1665.00 L 1089.00 1668.00 L 1083.00 1664.00 L 1079.00 1666.00 L 1077.00 1674.00 L 1074.00 1674.00 L 1070.00 1666.00 L 1068.00 1667.00 L 1068.00 1677.00 L 1065.00 1683.00 L 1059.00 1685.00 L 1013.00 1658.00 L 927.00 1602.00 L 857.00 1560.00 L 803.00 1532.00 L 775.00 1520.00 L 773.00 1524.00 L 768.00 1520.00 L 760.00 1508.00 L 745.00 1501.00 L 723.00 1499.00 L 710.00 1495.00 L 706.00 1489.00 L 685.00 1481.00 L 647.00 1471.00 L 627.00 1462.00 L 625.00 1454.00 L 596.00 1442.00 L 540.00 1426.00 L 501.00 1420.00 L 479.00 1424.00 L 459.00 1423.00 L 441.00 1417.00 L 449.00 1351.00 L 483.00 1225.00 L 522.00 1124.00 L 566.00 1048.00 L 589.00 1007.00 L 591.00 1001.00 L 599.00 987.00 Z" fill="black" stroke="black" stroke-width="1"/>
</svg>