<?xml version="1.0" encoding="UTF-8"?>
<svg xmlns="http://www.w3.org/2000/svg" viewBox="293.00 153.00 945.00 1551.00">
  <path d="M 523.00 942.00 L 533.00 926.00 L 518.00 880.00 L 478.00 804.00 L 463.00 768.00 L 473.00 772.00 L 472.00 770.00 L 460.00 762.00 L 463.00 763.00 L 481.00 773.00 L 478.00 768.00 L 454.00 748.00 L 458.00 747.00 L 490.00 765.00 L 487.00 760.00 L 449.00 732.00 L 448.00 729.00 L 484.00 751.00 L 481.00 746.00 L 439.00 714.00 L 390.00 650.00 L 334.00 554.00 L 305.00 496.00 L 303.00 476.00 L 354.00 430.00 L 458.00 358.00 L 518.00 321.00 L 534.00 319.00 L 547.00 310.00 L 557.00 294.00 L 581.00 276.00 L 619.00 256.00 L 659.00 229.00 L 701.00 195.00 L 734.00 173.00 L 758.00 163.00 L 782.00 168.00 L 806.00 188.00 L 837.00 223.00 L 875.00 273.00 L 930.00 361.00 L 1002.00 487.00 L 1057.00 557.00 L 1095.00 571.00 L 1100.00 597.00 L 1072.00 635.00 L 1074.00 636.00 L 1106.00 600.00 L 1106.00 602.00 L 1074.00 642.00 L 1077.00 642.00 L 1115.00 602.00 L 1115.00 604.00 L 1077.00 648.00 L 1080.00 648.00 L 1124.00 604.00 L 1124.00 606.00 L 1080.00 654.00 L 1083.00 655.00 L 1133.00 609.00 L 1133.00 612.00 L 1083.00 664.00 L 1088.00 664.00 L 1148.00 612.00 L 1147.00 616.00 L 1085.00 676.00 L 1087.00 676.00 L 1153.00 616.00 L 1153.00 618.00 L 1087.00 682.00 L 1090.00 683.00 L 1162.00 621.00 L 1162.00 623.00 L 1090.00 689.00 L 1095.00 690.00 L 1177.00 626.00 L 1177.00 629.00 L 1095.00 699.00 L 1096.00 700.00 L 1180.00 632.00 L 1209.00 609.00 L 1183.00 631.00 L 1186.00 633.00 L 1218.00 615.00 L 1226.00 613.00 L 1210.00 627.00 L 1209.00 630.00 L 1223.00 622.00 L 1228.00 620.00 L 1224.00 624.00 L 1183.00 656.00 L 1105.00 716.00 L 1075.00 756.00 L 1093.00 776.00 L 1111.00 805.00 L 1129.00 843.00 L 1136.00 867.00 L 1132.00 877.00 L 1119.00 885.00 L 1097.00 891.00 L 1094.00 893.00 L 1110.00 891.00 L 1108.00 892.00 L 1088.00 896.00 L 1090.00 896.00 L 1114.00 892.00 L 1114.00 895.00 L 1090.00 905.00 L 1081.00 915.00 L 1087.00 925.00 L 1086.00 937.00 L 1078.00 951.00 L 1076.00 961.00 L 1080.00 967.00 L 1079.00 978.00 L 1073.00 994.00 L 1073.00 1015.00 L 1079.00 1041.00 L 1079.00 1061.00 L 1073.00 1075.00 L 1062.00 1088.00 L 1046.00 1100.00 L 1041.00 1112.00 L 1047.00 1124.00 L 1043.00 1139.00 L 1029.00 1157.00 L 1029.00 1177.00 L 1043.00 1199.00 L 1041.00 1202.00 L 1023.00 1186.00 L 1023.00 1188.00 L 1041.00 1208.00 L 1039.00 1212.00 L 1017.00 1200.00 L 1025.00 1216.00 L 1063.00 1260.00 L 1068.00 1269.00 L 1040.00 1243.00 L 1038.00 1246.00 L 1062.00 1278.00 L 1056.00 1276.00 L 1020.00 1240.00 L 1017.00 1241.00 L 1047.00 1279.00 L 1048.00 1281.00 L 1020.00 1247.00 L 1017.00 1247.00 L 1039.00 1281.00 L 1045.00 1298.00 L 1035.00 1298.00 L 1019.00 1285.00 L 997.00 1259.00 L 992.00 1255.00 L 1004.00 1273.00 L 1006.00 1277.00 L 998.00 1267.00 L 1004.00 1288.00 L 1024.00 1340.00 L 1028.00 1356.00 L 1016.00 1336.00 L 1021.00 1346.00 L 1043.00 1386.00 L 1051.00 1401.00 L 1045.00 1391.00 L 1058.00 1426.00 L 1090.00 1506.00 L 1110.00 1571.00 L 1118.00 1621.00 L 1119.00 1640.00 L 1113.00 1628.00 L 1111.00 1631.00 L 1113.00 1649.00 L 1109.00 1664.00 L 1099.00 1676.00 L 1079.00 1686.00 L 1049.00 1694.00 L 1012.00 1687.00 L 968.00 1665.00 L 914.00 1630.00 L 850.00 1582.00 L 789.00 1542.00 L 731.00 1510.00 L 673.00 1481.00 L 615.00 1455.00 L 570.00 1439.00 L 538.00 1433.00 L 523.00 1428.00 L 525.00 1424.00 L 500.00 1418.00 L 448.00 1410.00 L 423.00 1404.00 L 425.00 1400.00 L 420.00 1399.00 L 408.00 1401.00 L 403.00 1393.00 L 405.00 1375.00 L 419.00 1341.00 L 445.00 1291.00 L 456.00 1267.00 L 452.00 1269.00 L 455.00 1253.00 L 465.00 1219.00 L 478.00 1191.00 L 494.00 1169.00 L 505.00 1137.00 L 511.00 1095.00 L 504.00 1077.00 L 484.00 1083.00 L 484.00 1081.00 L 504.00 1071.00 L 500.00 1070.00 L 472.00 1078.00 L 473.00 1076.00 L 503.00 1064.00 L 503.00 1061.00 L 473.00 1067.00 L 473.00 1064.00 L 503.00 1052.00 L 505.00 1050.00 L 479.00 1058.00 L 479.00 1056.00 L 505.00 1044.00 L 507.00 1041.00 L 485.00 1047.00 L 484.00 1027.00 L 504.00 981.00 L 515.00 956.00 L 517.00 952.00 L 523.00 942.00 Z" fill="black" stroke="black" stroke-width="1"/>
</svg>