<?xml version="1.0" encoding="UTF-8"?>
<svg xmlns="http://www.w3.org/2000/svg" viewBox="406.00 272.00 927.00 1661.00">
  <path d="M 520.00 1058.00 L 532.00 986.00 L 544.00 937.00 L 556.00 911.00 L 557.00 894.00 L 547.00 886.00 L 518.00 847.00 L 470.00 777.00 L 443.00 729.00 L 437.00 703.00 L 434.00 673.00 L 434.00 639.00 L 437.00 601.00 L 443.00 559.00 L 451.00 524.00 L 461.00 496.00 L 490.00 452.00 L 538.00 392.00 L 583.00 349.00 L 625.00 323.00 L 692.00 302.00 L 784.00 286.00 L 844.00 282.00 L 872.00 290.00 L 905.00 295.00 L 943.00 297.00 L 977.00 306.00 L 1007.00 322.00 L 1038.00 335.00 L 1070.00 345.00 L 1115.00 371.00 L 1173.00 413.00 L 1200.00 443.00 L 1196.00 461.00 L 1198.00 462.00 L 1206.00 446.00 L 1206.00 448.00 L 1198.00 468.00 L 1200.00 470.00 L 1212.00 454.00 L 1213.00 457.00 L 1203.00 479.00 L 1204.00 481.00 L 1216.00 463.00 L 1217.00 465.00 L 1207.00 487.00 L 1208.00 489.00 L 1220.00 471.00 L 1221.00 474.00 L 1211.00 498.00 L 1212.00 501.00 L 1224.00 483.00 L 1225.00 486.00 L 1215.00 510.00 L 1216.00 513.00 L 1228.00 495.00 L 1229.00 498.00 L 1219.00 522.00 L 1220.00 524.00 L 1232.00 504.00 L 1233.00 507.00 L 1223.00 533.00 L 1225.00 536.00 L 1239.00 516.00 L 1240.00 519.00 L 1228.00 545.00 L 1230.00 546.00 L 1246.00 522.00 L 1253.00 515.00 L 1251.00 525.00 L 1253.00 526.00 L 1259.00 518.00 L 1253.00 529.00 L 1235.00 559.00 L 1235.00 563.00 L 1253.00 541.00 L 1254.00 543.00 L 1238.00 569.00 L 1241.00 567.00 L 1263.00 537.00 L 1264.00 540.00 L 1244.00 576.00 L 1234.00 609.00 L 1234.00 639.00 L 1239.00 666.00 L 1249.00 690.00 L 1276.00 735.00 L 1320.00 801.00 L 1323.00 846.00 L 1285.00 870.00 L 1284.00 873.00 L 1320.00 855.00 L 1319.00 858.00 L 1281.00 882.00 L 1278.00 885.00 L 1310.00 867.00 L 1310.00 871.00 L 1278.00 897.00 L 1263.00 923.00 L 1265.00 949.00 L 1261.00 973.00 L 1251.00 995.00 L 1248.00 1014.00 L 1252.00 1030.00 L 1253.00 1050.00 L 1251.00 1074.00 L 1242.00 1094.00 L 1226.00 1110.00 L 1209.00 1122.00 L 1191.00 1130.00 L 1187.00 1137.00 L 1197.00 1143.00 L 1202.00 1150.00 L 1202.00 1158.00 L 1194.00 1169.00 L 1178.00 1183.00 L 1168.00 1195.00 L 1164.00 1205.00 L 1168.00 1215.00 L 1180.00 1225.00 L 1179.00 1227.00 L 1165.00 1221.00 L 1167.00 1223.00 L 1185.00 1233.00 L 1195.00 1241.00 L 1197.00 1247.00 L 1187.00 1245.00 L 1165.00 1235.00 L 1166.00 1238.00 L 1190.00 1254.00 L 1201.00 1265.00 L 1199.00 1271.00 L 1191.00 1277.00 L 1177.00 1283.00 L 1177.00 1292.00 L 1191.00 1304.00 L 1191.00 1306.00 L 1177.00 1298.00 L 1192.00 1312.00 L 1236.00 1348.00 L 1258.00 1368.00 L 1258.00 1372.00 L 1246.00 1365.00 L 1222.00 1347.00 L 1220.00 1349.00 L 1240.00 1371.00 L 1247.00 1383.00 L 1241.00 1385.00 L 1218.00 1371.00 L 1178.00 1341.00 L 1174.00 1341.00 L 1206.00 1371.00 L 1207.00 1373.00 L 1177.00 1347.00 L 1172.00 1345.00 L 1192.00 1367.00 L 1193.00 1370.00 L 1175.00 1354.00 L 1173.00 1353.00 L 1187.00 1367.00 L 1189.00 1370.00 L 1179.00 1362.00 L 1184.00 1383.00 L 1204.00 1433.00 L 1213.00 1457.00 L 1211.00 1455.00 L 1230.00 1497.00 L 1270.00 1583.00 L 1295.00 1643.00 L 1305.00 1677.00 L 1313.00 1721.00 L 1319.00 1775.00 L 1318.00 1818.00 L 1310.00 1850.00 L 1300.00 1876.00 L 1288.00 1896.00 L 1270.00 1911.00 L 1246.00 1921.00 L 1220.00 1923.00 L 1192.00 1917.00 L 1123.00 1883.00 L 1013.00 1821.00 L 902.00 1770.00 L 790.00 1730.00 L 719.00 1708.00 L 689.00 1704.00 L 672.00 1700.00 L 668.00 1696.00 L 665.00 1696.00 L 663.00 1700.00 L 648.00 1696.00 L 620.00 1684.00 L 593.00 1678.00 L 567.00 1678.00 L 546.00 1675.00 L 530.00 1669.00 L 512.00 1667.00 L 492.00 1669.00 L 479.00 1668.00 L 473.00 1664.00 L 461.00 1664.00 L 443.00 1668.00 L 428.00 1668.00 L 416.00 1664.00 L 422.00 1611.00 L 446.00 1509.00 L 468.00 1429.00 L 488.00 1371.00 L 499.00 1326.00 L 501.00 1294.00 L 509.00 1251.00 L 523.00 1197.00 L 530.00 1167.00 L 530.00 1161.00 L 524.00 1150.00 L 512.00 1134.00 L 507.00 1120.00 L 509.00 1108.00 L 511.00 1100.00 L 513.00 1096.00 L 520.00 1058.00 Z" fill="black" stroke="black" stroke-width="1"/>
</svg>