<?xml version="1.0" encoding="UTF-8"?>
<svg xmlns="http://www.w3.org/2000/svg" viewBox="384.00 160.00 991.00 1723.00">
  <path d="M 599.00 972.00 L 609.00 964.00 L 618.00 947.00 L 626.00 921.00 L 614.00 894.00 L 582.00 866.00 L 555.00 827.00 L 533.00 777.00 L 500.00 737.00 L 456.00 707.00 L 456.00 706.00 L 500.00 734.00 L 498.00 731.00 L 450.00 697.00 L 447.00 694.00 L 489.00 722.00 L 488.00 720.00 L 444.00 688.00 L 447.00 689.00 L 497.00 723.00 L 495.00 720.00 L 441.00 680.00 L 409.00 639.00 L 399.00 597.00 L 394.00 548.00 L 394.00 492.00 L 412.00 430.00 L 448.00 362.00 L 472.00 322.00 L 484.00 310.00 L 502.00 299.00 L 526.00 289.00 L 551.00 260.00 L 577.00 212.00 L 596.00 183.00 L 608.00 173.00 L 623.00 180.00 L 641.00 204.00 L 663.00 206.00 L 689.00 186.00 L 714.00 174.00 L 738.00 170.00 L 756.00 170.00 L 768.00 174.00 L 779.00 184.00 L 789.00 200.00 L 819.00 207.00 L 869.00 205.00 L 941.00 224.00 L 1035.00 264.00 L 1092.00 294.00 L 1112.00 314.00 L 1139.00 350.00 L 1173.00 402.00 L 1187.00 439.00 L 1181.00 461.00 L 1184.00 464.00 L 1196.00 448.00 L 1197.00 451.00 L 1187.00 473.00 L 1189.00 475.00 L 1203.00 457.00 L 1204.00 459.00 L 1192.00 481.00 L 1193.00 483.00 L 1207.00 465.00 L 1207.00 468.00 L 1193.00 492.00 L 1194.00 493.00 L 1210.00 471.00 L 1211.00 474.00 L 1197.00 502.00 L 1198.00 505.00 L 1214.00 483.00 L 1215.00 486.00 L 1201.00 514.00 L 1202.00 518.00 L 1218.00 498.00 L 1218.00 502.00 L 1202.00 530.00 L 1202.00 534.00 L 1218.00 514.00 L 1218.00 521.00 L 1202.00 555.00 L 1201.00 563.00 L 1215.00 545.00 L 1214.00 548.00 L 1198.00 572.00 L 1198.00 575.00 L 1214.00 557.00 L 1213.00 562.00 L 1195.00 590.00 L 1196.00 593.00 L 1216.00 571.00 L 1216.00 574.00 L 1196.00 602.00 L 1197.00 604.00 L 1219.00 580.00 L 1220.00 582.00 L 1200.00 610.00 L 1200.00 613.00 L 1220.00 591.00 L 1221.00 594.00 L 1203.00 622.00 L 1214.00 667.00 L 1254.00 729.00 L 1254.00 775.00 L 1214.00 805.00 L 1215.00 809.00 L 1257.00 787.00 L 1260.00 786.00 L 1224.00 806.00 L 1224.00 808.00 L 1260.00 792.00 L 1256.00 797.00 L 1212.00 823.00 L 1209.00 828.00 L 1247.00 812.00 L 1246.00 815.00 L 1206.00 837.00 L 1188.00 862.00 L 1192.00 890.00 L 1190.00 932.00 L 1182.00 988.00 L 1168.00 1021.00 L 1148.00 1031.00 L 1105.00 1038.00 L 1039.00 1042.00 L 996.00 1054.00 L 976.00 1074.00 L 1054.00 1190.00 L 1230.00 1402.00 L 1305.00 1493.00 L 1279.00 1463.00 L 1281.00 1466.00 L 1311.00 1502.00 L 1307.00 1498.00 L 1269.00 1454.00 L 1270.00 1456.00 L 1310.00 1504.00 L 1308.00 1502.00 L 1264.00 1450.00 L 1266.00 1453.00 L 1314.00 1511.00 L 1311.00 1508.00 L 1257.00 1444.00 L 1261.00 1450.00 L 1323.00 1526.00 L 1298.00 1497.00 L 1186.00 1363.00 L 1187.00 1366.00 L 1301.00 1506.00 L 1298.00 1503.00 L 1178.00 1357.00 L 1179.00 1360.00 L 1301.00 1512.00 L 1294.00 1504.00 L 1158.00 1336.00 L 1160.00 1340.00 L 1300.00 1516.00 L 1295.00 1510.00 L 1145.00 1322.00 L 1146.00 1324.00 L 1298.00 1516.00 L 1271.00 1482.00 L 1065.00 1222.00 L 1065.00 1225.00 L 1271.00 1491.00 L 1296.00 1524.00 L 1140.00 1324.00 L 1141.00 1327.00 L 1299.00 1533.00 L 1294.00 1527.00 L 1126.00 1309.00 L 1126.00 1312.00 L 1294.00 1536.00 L 1290.00 1532.00 L 1114.00 1300.00 L 1114.00 1303.00 L 1290.00 1541.00 L 1286.00 1537.00 L 1102.00 1291.00 L 1102.00 1295.00 L 1286.00 1549.00 L 1283.00 1546.00 L 1093.00 1286.00 L 1092.00 1291.00 L 1280.00 1561.00 L 1278.00 1559.00 L 1086.00 1285.00 L 1085.00 1288.00 L 1275.00 1568.00 L 1267.00 1557.00 L 1061.00 1255.00 L 1060.00 1257.00 L 1264.00 1563.00 L 1365.00 1719.00 L 1363.00 1725.00 L 1262.00 1575.00 L 1062.00 1269.00 L 1061.00 1271.00 L 1259.00 1581.00 L 1346.00 1750.00 L 1322.00 1778.00 L 1299.00 1801.00 L 1277.00 1819.00 L 1235.00 1843.00 L 1173.00 1873.00 L 1097.00 1853.00 L 1007.00 1783.00 L 901.00 1711.00 L 779.00 1637.00 L 635.00 1575.00 L 469.00 1525.00 L 398.00 1469.00 L 422.00 1407.00 L 448.00 1325.00 L 476.00 1223.00 L 510.00 1130.00 L 550.00 1046.00 L 575.00 1000.00 L 585.00 992.00 L 591.00 985.00 L 593.00 979.00 L 599.00 972.00 Z" fill="black" stroke="black" stroke-width="1"/>
</svg>