<?xml version="1.0" encoding="UTF-8"?>
<svg xmlns="http://www.w3.org/2000/svg" viewBox="265.00 259.00 847.00 1543.00">
  <path d="M 433.00 973.00 L 439.00 947.00 L 433.00 930.00 L 415.00 922.00 L 416.00 920.00 L 436.00 924.00 L 434.00 922.00 L 410.00 914.00 L 409.00 912.00 L 431.00 916.00 L 430.00 914.00 L 406.00 906.00 L 386.00 868.00 L 370.00 800.00 L 348.00 730.00 L 320.00 658.00 L 307.00 590.00 L 309.00 526.00 L 322.00 469.00 L 346.00 419.00 L 367.00 383.00 L 385.00 361.00 L 410.00 337.00 L 442.00 311.00 L 485.00 290.00 L 539.00 274.00 L 583.00 269.00 L 617.00 275.00 L 642.00 277.00 L 658.00 275.00 L 671.00 276.00 L 681.00 280.00 L 695.00 280.00 L 713.00 276.00 L 738.00 276.00 L 770.00 280.00 L 816.00 296.00 L 876.00 324.00 L 924.00 357.00 L 960.00 395.00 L 977.00 420.00 L 975.00 432.00 L 977.00 433.00 L 983.00 423.00 L 984.00 425.00 L 980.00 439.00 L 981.00 441.00 L 987.00 431.00 L 988.00 436.00 L 984.00 456.00 L 986.00 458.00 L 994.00 442.00 L 995.00 445.00 L 989.00 467.00 L 991.00 469.00 L 1001.00 451.00 L 1001.00 456.00 L 991.00 484.00 L 992.00 487.00 L 1004.00 465.00 L 1004.00 468.00 L 992.00 496.00 L 993.00 498.00 L 1007.00 474.00 L 1007.00 477.00 L 993.00 507.00 L 993.00 509.00 L 1007.00 483.00 L 1012.00 477.00 L 1008.00 491.00 L 1009.00 495.00 L 1015.00 489.00 L 1012.00 498.00 L 1000.00 522.00 L 1000.00 525.00 L 1012.00 507.00 L 1016.00 503.00 L 1012.00 513.00 L 1012.00 515.00 L 1016.00 509.00 L 1013.00 518.00 L 1003.00 542.00 L 1004.00 545.00 L 1016.00 527.00 L 1021.00 523.00 L 1019.00 533.00 L 1020.00 535.00 L 1024.00 529.00 L 1020.00 539.00 L 1008.00 565.00 L 1009.00 568.00 L 1023.00 548.00 L 1021.00 555.00 L 1003.00 589.00 L 995.00 605.00 L 997.00 603.00 L 996.00 611.00 L 992.00 629.00 L 999.00 653.00 L 1017.00 683.00 L 1032.00 703.00 L 1044.00 713.00 L 1054.00 725.00 L 1062.00 739.00 L 1066.00 749.00 L 1066.00 755.00 L 1054.00 767.00 L 1030.00 785.00 L 1029.00 787.00 L 1051.00 773.00 L 1050.00 775.00 L 1026.00 793.00 L 1025.00 795.00 L 1047.00 781.00 L 1047.00 784.00 L 1025.00 804.00 L 1017.00 822.00 L 1023.00 838.00 L 1023.00 850.00 L 1017.00 858.00 L 1015.00 868.00 L 1017.00 880.00 L 1012.00 893.00 L 1000.00 907.00 L 997.00 924.00 L 1003.00 944.00 L 1003.00 962.00 L 997.00 978.00 L 988.00 992.00 L 976.00 1004.00 L 957.00 1016.00 L 931.00 1028.00 L 922.00 1037.00 L 930.00 1043.00 L 929.00 1045.00 L 919.00 1043.00 L 921.00 1045.00 L 935.00 1051.00 L 934.00 1052.00 L 918.00 1048.00 L 919.00 1051.00 L 937.00 1061.00 L 942.00 1074.00 L 934.00 1090.00 L 939.00 1105.00 L 957.00 1119.00 L 957.00 1121.00 L 939.00 1111.00 L 941.00 1114.00 L 963.00 1130.00 L 962.00 1132.00 L 938.00 1120.00 L 939.00 1122.00 L 965.00 1138.00 L 968.00 1140.00 L 948.00 1128.00 L 949.00 1131.00 L 971.00 1149.00 L 982.00 1160.00 L 982.00 1164.00 L 967.00 1156.00 L 937.00 1136.00 L 953.00 1150.00 L 1015.00 1198.00 L 1029.00 1210.00 L 995.00 1186.00 L 976.00 1175.00 L 972.00 1177.00 L 988.00 1192.00 L 1024.00 1220.00 L 1036.00 1230.00 L 1024.00 1222.00 L 1023.00 1223.00 L 1033.00 1233.00 L 1022.00 1226.00 L 990.00 1202.00 L 988.00 1203.00 L 1016.00 1229.00 L 1011.00 1228.00 L 973.00 1200.00 L 970.00 1201.00 L 1002.00 1231.00 L 1013.00 1247.00 L 1003.00 1249.00 L 990.00 1247.00 L 974.00 1241.00 L 989.00 1281.00 L 1035.00 1367.00 L 1069.00 1452.00 L 1091.00 1536.00 L 1102.00 1592.00 L 1102.00 1620.00 L 1099.00 1652.00 L 1093.00 1688.00 L 1086.00 1715.00 L 1078.00 1733.00 L 1065.00 1751.00 L 1047.00 1769.00 L 1027.00 1782.00 L 1005.00 1790.00 L 982.00 1792.00 L 958.00 1788.00 L 922.00 1771.00 L 874.00 1741.00 L 834.00 1711.00 L 802.00 1681.00 L 751.00 1644.00 L 681.00 1600.00 L 597.00 1556.00 L 499.00 1512.00 L 407.00 1480.00 L 321.00 1460.00 L 277.00 1448.00 L 275.00 1444.00 L 281.00 1424.00 L 295.00 1388.00 L 321.00 1336.00 L 359.00 1268.00 L 387.00 1210.00 L 405.00 1162.00 L 412.00 1133.00 L 408.00 1123.00 L 406.00 1108.00 L 406.00 1088.00 L 411.00 1058.00 L 421.00 1018.00 L 427.00 995.00 L 429.00 989.00 L 433.00 973.00 Z" fill="black" stroke="black" stroke-width="1"/>
</svg>