<?xml version="1.0" encoding="UTF-8"?>
<svg xmlns="http://www.w3.org/2000/svg" viewBox="208.00 244.00 1156.00 1667.00">
  <path d="M 647.00 969.00 L 649.00 959.00 L 642.00 951.00 L 626.00 945.00 L 625.00 943.00 L 639.00 945.00 L 630.00 941.00 L 598.00 931.00 L 535.00 899.00 L 441.00 845.00 L 414.00 825.00 L 454.00 839.00 L 450.00 836.00 L 402.00 816.00 L 397.00 813.00 L 435.00 827.00 L 422.00 820.00 L 358.00 792.00 L 309.00 760.00 L 275.00 724.00 L 248.00 677.00 L 228.00 619.00 L 218.00 576.00 L 218.00 548.00 L 223.00 514.00 L 233.00 474.00 L 246.00 446.00 L 262.00 430.00 L 267.00 419.00 L 261.00 413.00 L 265.00 412.00 L 279.00 416.00 L 282.00 411.00 L 274.00 397.00 L 274.00 384.00 L 282.00 372.00 L 305.00 348.00 L 343.00 312.00 L 380.00 288.00 L 416.00 276.00 L 458.00 272.00 L 506.00 276.00 L 542.00 270.00 L 566.00 254.00 L 653.00 260.00 L 803.00 288.00 L 888.00 290.00 L 908.00 266.00 L 933.00 254.00 L 963.00 254.00 L 986.00 262.00 L 1002.00 278.00 L 1019.00 287.00 L 1037.00 289.00 L 1043.00 308.00 L 1037.00 344.00 L 1040.00 344.00 L 1052.00 308.00 L 1055.00 309.00 L 1049.00 347.00 L 1054.00 349.00 L 1070.00 315.00 L 1073.00 317.00 L 1063.00 355.00 L 1065.00 356.00 L 1079.00 320.00 L 1082.00 319.00 L 1074.00 353.00 L 1077.00 355.00 L 1091.00 325.00 L 1092.00 328.00 L 1080.00 364.00 L 1082.00 365.00 L 1098.00 331.00 L 1100.00 330.00 L 1088.00 362.00 L 1091.00 365.00 L 1109.00 339.00 L 1111.00 343.00 L 1097.00 377.00 L 1100.00 380.00 L 1120.00 352.00 L 1125.00 355.00 L 1115.00 389.00 L 1117.00 392.00 L 1131.00 364.00 L 1134.00 366.00 L 1126.00 398.00 L 1129.00 402.00 L 1143.00 378.00 L 1146.00 380.00 L 1138.00 408.00 L 1143.00 410.00 L 1161.00 386.00 L 1163.00 388.00 L 1149.00 416.00 L 1167.00 455.00 L 1217.00 505.00 L 1235.00 541.00 L 1221.00 563.00 L 1222.00 566.00 L 1238.00 550.00 L 1237.00 554.00 L 1219.00 578.00 L 1207.00 613.00 L 1201.00 659.00 L 1220.00 725.00 L 1264.00 811.00 L 1271.00 866.00 L 1241.00 890.00 L 1216.00 950.00 L 1196.00 1046.00 L 1150.00 1108.00 L 1078.00 1136.00 L 1036.00 1159.00 L 1024.00 1177.00 L 1104.00 1290.00 L 1276.00 1498.00 L 1348.00 1586.00 L 1320.00 1554.00 L 1322.00 1557.00 L 1354.00 1595.00 L 1350.00 1591.00 L 1310.00 1545.00 L 1311.00 1547.00 L 1353.00 1597.00 L 1351.00 1595.00 L 1305.00 1541.00 L 1306.00 1543.00 L 1354.00 1601.00 L 1345.00 1591.00 L 1279.00 1513.00 L 1280.00 1515.00 L 1348.00 1597.00 L 1343.00 1592.00 L 1265.00 1500.00 L 1266.00 1503.00 L 1346.00 1601.00 L 1340.00 1595.00 L 1248.00 1485.00 L 1249.00 1488.00 L 1343.00 1604.00 L 1340.00 1601.00 L 1240.00 1479.00 L 1241.00 1482.00 L 1343.00 1610.00 L 1340.00 1607.00 L 1232.00 1473.00 L 1233.00 1476.00 L 1343.00 1616.00 L 1341.00 1615.00 L 1227.00 1473.00 L 1227.00 1476.00 L 1341.00 1624.00 L 1301.00 1574.00 L 1107.00 1326.00 L 1108.00 1330.00 L 1304.00 1586.00 L 1333.00 1627.00 L 1195.00 1453.00 L 1194.00 1460.00 L 1330.00 1648.00 L 1327.00 1646.00 L 1185.00 1454.00 L 1185.00 1457.00 L 1327.00 1655.00 L 1300.00 1619.00 L 1104.00 1349.00 L 1103.00 1355.00 L 1297.00 1637.00 L 1297.00 1639.00 L 1103.00 1361.00 L 1102.00 1363.00 L 1294.00 1645.00 L 1310.00 1670.00 L 1150.00 1438.00 L 1149.00 1441.00 L 1307.00 1679.00 L 1304.00 1676.00 L 1140.00 1432.00 L 1138.00 1434.00 L 1298.00 1682.00 L 1284.00 1663.00 L 1096.00 1377.00 L 1095.00 1379.00 L 1281.00 1669.00 L 1289.00 1683.00 L 1119.00 1421.00 L 1117.00 1424.00 L 1283.00 1692.00 L 1275.00 1682.00 L 1093.00 1394.00 L 1088.00 1399.00 L 1260.00 1697.00 L 1260.00 1700.00 L 1088.00 1408.00 L 1087.00 1409.00 L 1257.00 1703.00 L 1314.00 1867.00 L 1258.00 1901.00 L 1174.00 1876.00 L 1062.00 1792.00 L 948.00 1716.00 L 832.00 1648.00 L 733.00 1595.00 L 651.00 1557.00 L 562.00 1524.00 L 466.00 1496.00 L 435.00 1454.00 L 469.00 1398.00 L 477.00 1376.00 L 459.00 1388.00 L 460.00 1380.00 L 480.00 1352.00 L 484.00 1344.00 L 472.00 1356.00 L 493.00 1298.00 L 547.00 1170.00 L 577.00 1084.00 L 583.00 1040.00 L 600.00 1010.00 L 628.00 994.00 L 643.00 983.00 L 645.00 977.00 L 647.00 969.00 Z" fill="black" stroke="black" stroke-width="1"/>
</svg>