<?xml version="1.0" encoding="UTF-8"?>
<svg xmlns="http://www.w3.org/2000/svg" viewBox="318.00 201.00 978.00 1655.00">
  <path d="M 443.00 1010.00 L 445.00 986.00 L 449.00 971.00 L 455.00 965.00 L 457.00 961.00 L 455.00 959.00 L 455.00 955.00 L 457.00 949.00 L 456.00 945.00 L 452.00 943.00 L 451.00 938.00 L 453.00 930.00 L 453.00 925.00 L 451.00 923.00 L 453.00 914.00 L 459.00 898.00 L 468.00 883.00 L 480.00 869.00 L 489.00 861.00 L 495.00 859.00 L 492.00 841.00 L 480.00 807.00 L 466.00 778.00 L 450.00 754.00 L 434.00 720.00 L 418.00 676.00 L 405.00 636.00 L 395.00 600.00 L 390.00 569.00 L 390.00 543.00 L 394.00 505.00 L 402.00 455.00 L 413.00 415.00 L 427.00 385.00 L 441.00 360.00 L 455.00 340.00 L 475.00 317.00 L 501.00 291.00 L 531.00 268.00 L 565.00 248.00 L 594.00 235.00 L 618.00 229.00 L 641.00 225.00 L 663.00 223.00 L 676.00 223.00 L 680.00 225.00 L 697.00 222.00 L 727.00 214.00 L 761.00 211.00 L 799.00 213.00 L 832.00 217.00 L 860.00 223.00 L 903.00 237.00 L 961.00 259.00 L 1009.00 288.00 L 1047.00 324.00 L 1066.00 348.00 L 1066.00 360.00 L 1067.00 367.00 L 1069.00 369.00 L 1072.00 366.00 L 1076.00 358.00 L 1077.00 362.00 L 1075.00 378.00 L 1077.00 381.00 L 1083.00 371.00 L 1084.00 372.00 L 1080.00 384.00 L 1081.00 386.00 L 1087.00 378.00 L 1089.00 379.00 L 1087.00 389.00 L 1088.00 391.00 L 1092.00 385.00 L 1092.00 391.00 L 1088.00 409.00 L 1089.00 412.00 L 1095.00 400.00 L 1096.00 402.00 L 1092.00 418.00 L 1094.00 421.00 L 1102.00 411.00 L 1103.00 414.00 L 1097.00 430.00 L 1097.00 433.00 L 1103.00 423.00 L 1104.00 426.00 L 1100.00 442.00 L 1102.00 457.00 L 1110.00 471.00 L 1116.00 486.00 L 1120.00 502.00 L 1121.00 518.00 L 1119.00 534.00 L 1119.00 552.00 L 1121.00 572.00 L 1128.00 591.00 L 1140.00 609.00 L 1158.00 631.00 L 1182.00 657.00 L 1200.00 681.00 L 1212.00 703.00 L 1203.00 728.00 L 1173.00 756.00 L 1173.00 759.00 L 1203.00 737.00 L 1201.00 740.00 L 1167.00 768.00 L 1157.00 777.00 L 1171.00 767.00 L 1171.00 768.00 L 1157.00 780.00 L 1166.00 774.00 L 1198.00 750.00 L 1198.00 752.00 L 1166.00 780.00 L 1150.00 803.00 L 1150.00 821.00 L 1148.00 834.00 L 1144.00 842.00 L 1144.00 850.00 L 1148.00 858.00 L 1150.00 867.00 L 1150.00 877.00 L 1147.00 891.00 L 1141.00 909.00 L 1142.00 933.00 L 1150.00 963.00 L 1150.00 989.00 L 1142.00 1011.00 L 1128.00 1030.00 L 1108.00 1046.00 L 1102.00 1057.00 L 1110.00 1063.00 L 1115.00 1069.00 L 1117.00 1075.00 L 1117.00 1082.00 L 1115.00 1090.00 L 1110.00 1098.00 L 1102.00 1106.00 L 1105.00 1116.00 L 1119.00 1128.00 L 1117.00 1131.00 L 1099.00 1125.00 L 1101.00 1126.00 L 1123.00 1134.00 L 1130.00 1138.00 L 1122.00 1138.00 L 1123.00 1141.00 L 1133.00 1147.00 L 1125.00 1145.00 L 1099.00 1135.00 L 1091.00 1132.00 L 1101.00 1136.00 L 1113.00 1144.00 L 1127.00 1156.00 L 1122.00 1157.00 L 1098.00 1147.00 L 1096.00 1148.00 L 1116.00 1160.00 L 1116.00 1162.00 L 1096.00 1154.00 L 1093.00 1155.00 L 1107.00 1165.00 L 1109.00 1170.00 L 1099.00 1170.00 L 1091.00 1171.00 L 1085.00 1173.00 L 1081.00 1176.00 L 1079.00 1180.00 L 1079.00 1185.00 L 1081.00 1191.00 L 1092.00 1206.00 L 1112.00 1230.00 L 1124.00 1250.00 L 1128.00 1266.00 L 1142.00 1289.00 L 1166.00 1319.00 L 1183.00 1344.00 L 1193.00 1364.00 L 1207.00 1404.00 L 1225.00 1464.00 L 1239.00 1504.00 L 1249.00 1524.00 L 1260.00 1555.00 L 1272.00 1597.00 L 1280.00 1636.00 L 1284.00 1672.00 L 1286.00 1709.00 L 1286.00 1747.00 L 1279.00 1777.00 L 1265.00 1799.00 L 1255.00 1813.00 L 1249.00 1819.00 L 1238.00 1826.00 L 1222.00 1834.00 L 1208.00 1840.00 L 1196.00 1844.00 L 1182.00 1846.00 L 1166.00 1846.00 L 1137.00 1835.00 L 1095.00 1813.00 L 1016.00 1767.00 L 900.00 1697.00 L 826.00 1654.00 L 794.00 1638.00 L 751.00 1619.00 L 697.00 1597.00 L 650.00 1579.00 L 610.00 1565.00 L 548.00 1551.00 L 464.00 1537.00 L 418.00 1528.00 L 410.00 1524.00 L 403.00 1523.00 L 397.00 1525.00 L 388.00 1524.00 L 376.00 1520.00 L 361.00 1519.00 L 343.00 1521.00 L 332.00 1519.00 L 328.00 1513.00 L 328.00 1505.00 L 332.00 1495.00 L 338.00 1468.00 L 346.00 1424.00 L 364.00 1360.00 L 392.00 1276.00 L 415.00 1217.00 L 433.00 1183.00 L 443.00 1160.00 L 445.00 1148.00 L 442.00 1131.00 L 434.00 1109.00 L 430.00 1090.00 L 430.00 1074.00 L 432.00 1058.00 L 436.00 1042.00 L 439.00 1031.00 L 441.00 1025.00 L 443.00 1010.00 Z" fill="black" stroke="black" stroke-width="1"/>
</svg>