<?xml version="1.0" encoding="UTF-8"?>
<svg xmlns="http://www.w3.org/2000/svg" viewBox="314.00 263.00 967.00 1661.00">
  <path d="M 453.00 1053.00 L 459.00 1003.00 L 465.00 969.00 L 471.00 951.00 L 480.00 936.00 L 492.00 924.00 L 493.00 913.00 L 483.00 903.00 L 484.00 900.00 L 496.00 904.00 L 494.00 902.00 L 478.00 894.00 L 465.00 878.00 L 455.00 854.00 L 452.00 843.00 L 456.00 845.00 L 448.00 832.00 L 428.00 804.00 L 413.00 774.00 L 403.00 742.00 L 398.00 703.00 L 398.00 657.00 L 406.00 601.00 L 422.00 535.00 L 451.00 473.00 L 493.00 415.00 L 527.00 375.00 L 553.00 353.00 L 587.00 332.00 L 629.00 312.00 L 685.00 293.00 L 755.00 275.00 L 838.00 273.00 L 934.00 287.00 L 1009.00 309.00 L 1063.00 339.00 L 1101.00 366.00 L 1123.00 390.00 L 1135.00 414.00 L 1137.00 438.00 L 1142.00 445.00 L 1150.00 435.00 L 1151.00 437.00 L 1145.00 451.00 L 1147.00 452.00 L 1157.00 440.00 L 1159.00 446.00 L 1153.00 470.00 L 1155.00 472.00 L 1165.00 452.00 L 1166.00 455.00 L 1158.00 481.00 L 1160.00 483.00 L 1172.00 461.00 L 1174.00 464.00 L 1166.00 492.00 L 1168.00 496.00 L 1180.00 476.00 L 1181.00 480.00 L 1171.00 508.00 L 1172.00 514.00 L 1184.00 498.00 L 1185.00 501.00 L 1175.00 523.00 L 1175.00 525.00 L 1185.00 507.00 L 1187.00 513.00 L 1181.00 543.00 L 1184.00 548.00 L 1196.00 528.00 L 1197.00 532.00 L 1187.00 560.00 L 1189.00 563.00 L 1203.00 541.00 L 1208.00 534.00 L 1204.00 542.00 L 1205.00 544.00 L 1211.00 540.00 L 1206.00 551.00 L 1190.00 577.00 L 1186.00 617.00 L 1194.00 671.00 L 1220.00 728.00 L 1264.00 788.00 L 1268.00 832.00 L 1232.00 860.00 L 1233.00 864.00 L 1271.00 844.00 L 1269.00 847.00 L 1227.00 873.00 L 1227.00 875.00 L 1269.00 853.00 L 1269.00 856.00 L 1227.00 884.00 L 1223.00 889.00 L 1257.00 871.00 L 1257.00 873.00 L 1223.00 895.00 L 1202.00 916.00 L 1194.00 936.00 L 1193.00 953.00 L 1199.00 967.00 L 1196.00 984.00 L 1184.00 1004.00 L 1182.00 1023.00 L 1190.00 1041.00 L 1192.00 1061.00 L 1188.00 1083.00 L 1164.00 1110.00 L 1120.00 1142.00 L 1103.00 1161.00 L 1113.00 1167.00 L 1113.00 1180.00 L 1103.00 1200.00 L 1106.00 1216.00 L 1122.00 1228.00 L 1122.00 1230.00 L 1106.00 1222.00 L 1107.00 1224.00 L 1125.00 1236.00 L 1124.00 1238.00 L 1104.00 1230.00 L 1105.00 1236.00 L 1127.00 1256.00 L 1126.00 1258.00 L 1102.00 1242.00 L 1101.00 1245.00 L 1123.00 1267.00 L 1132.00 1279.00 L 1128.00 1281.00 L 1151.00 1303.00 L 1201.00 1345.00 L 1199.00 1346.00 L 1145.00 1306.00 L 1145.00 1308.00 L 1199.00 1352.00 L 1201.00 1356.00 L 1151.00 1320.00 L 1148.00 1321.00 L 1192.00 1359.00 L 1187.00 1355.00 L 1133.00 1309.00 L 1131.00 1309.00 L 1181.00 1355.00 L 1179.00 1356.00 L 1125.00 1312.00 L 1120.00 1312.00 L 1164.00 1356.00 L 1173.00 1375.00 L 1147.00 1369.00 L 1126.00 1358.00 L 1110.00 1342.00 L 1109.00 1342.00 L 1123.00 1358.00 L 1117.00 1355.00 L 1091.00 1333.00 L 1104.00 1370.00 L 1156.00 1466.00 L 1195.00 1552.00 L 1221.00 1628.00 L 1239.00 1707.00 L 1249.00 1789.00 L 1244.00 1848.00 L 1224.00 1884.00 L 1206.00 1906.00 L 1190.00 1914.00 L 1161.00 1911.00 L 1119.00 1897.00 L 1035.00 1845.00 L 909.00 1755.00 L 783.00 1679.00 L 657.00 1617.00 L 556.00 1573.00 L 480.00 1547.00 L 436.00 1535.00 L 424.00 1537.00 L 417.00 1534.00 L 415.00 1526.00 L 399.00 1521.00 L 369.00 1519.00 L 348.00 1521.00 L 336.00 1527.00 L 328.00 1528.00 L 324.00 1524.00 L 342.00 1464.00 L 382.00 1348.00 L 417.00 1257.00 L 447.00 1191.00 L 459.00 1141.00 L 453.00 1107.00 L 450.00 1087.00 L 450.00 1081.00 L 453.00 1053.00 Z" fill="black" stroke="black" stroke-width="1"/>
</svg>