<?xml version="1.0" encoding="UTF-8"?>
<svg xmlns="http://www.w3.org/2000/svg" viewBox="306.00 293.00 961.00 1459.00">
  <path d="M 423.00 1028.00 L 425.00 1008.00 L 422.00 986.00 L 414.00 962.00 L 416.00 943.00 L 428.00 929.00 L 428.00 910.00 L 416.00 886.00 L 411.00 869.00 L 413.00 859.00 L 401.00 847.00 L 375.00 833.00 L 373.00 831.00 L 395.00 841.00 L 392.00 836.00 L 364.00 816.00 L 371.00 773.00 L 413.00 707.00 L 437.00 649.00 L 443.00 599.00 L 459.00 551.00 L 485.00 505.00 L 497.00 470.00 L 495.00 446.00 L 524.00 414.00 L 584.00 374.00 L 659.00 342.00 L 749.00 318.00 L 802.00 310.00 L 818.00 318.00 L 847.00 317.00 L 889.00 307.00 L 958.00 303.00 L 1054.00 305.00 L 1118.00 316.00 L 1150.00 336.00 L 1166.00 352.00 L 1166.00 364.00 L 1169.00 369.00 L 1175.00 367.00 L 1182.00 376.00 L 1190.00 396.00 L 1193.00 430.00 L 1191.00 478.00 L 1198.00 519.00 L 1214.00 553.00 L 1225.00 600.00 L 1231.00 660.00 L 1240.00 709.00 L 1252.00 747.00 L 1257.00 782.00 L 1255.00 814.00 L 1251.00 838.00 L 1245.00 854.00 L 1181.00 886.00 L 1059.00 934.00 L 1059.00 938.00 L 1181.00 898.00 L 1180.00 900.00 L 1056.00 944.00 L 1055.00 947.00 L 1177.00 909.00 L 1177.00 911.00 L 1055.00 953.00 L 1054.00 956.00 L 1174.00 920.00 L 1232.00 906.00 L 1228.00 914.00 L 1180.00 931.00 L 1088.00 957.00 L 1087.00 959.00 L 1177.00 937.00 L 1166.00 941.00 L 1054.00 971.00 L 1053.00 974.00 L 1163.00 950.00 L 1164.00 951.00 L 1056.00 977.00 L 1054.00 980.00 L 1158.00 960.00 L 1160.00 961.00 L 1060.00 983.00 L 1059.00 985.00 L 1157.00 967.00 L 1175.00 964.00 L 1113.00 976.00 L 1112.00 978.00 L 1172.00 970.00 L 1185.00 970.00 L 1151.00 978.00 L 1148.00 980.00 L 1176.00 976.00 L 1149.00 981.00 L 1067.00 995.00 L 1065.00 997.00 L 1143.00 987.00 L 1149.00 987.00 L 1083.00 997.00 L 1080.00 998.00 L 1140.00 990.00 L 1124.00 994.00 L 1032.00 1010.00 L 1006.00 1016.00 L 1046.00 1012.00 L 1067.00 1012.00 L 1069.00 1016.00 L 1047.00 1020.00 L 1001.00 1024.00 L 1002.00 1025.00 L 1050.00 1023.00 L 1050.00 1025.00 L 1002.00 1031.00 L 1000.00 1034.00 L 1044.00 1034.00 L 1044.00 1036.00 L 1000.00 1040.00 L 995.00 1043.00 L 1029.00 1045.00 L 1029.00 1047.00 L 995.00 1049.00 L 977.00 1056.00 L 975.00 1068.00 L 977.00 1096.00 L 983.00 1140.00 L 996.00 1172.00 L 1016.00 1192.00 L 1026.00 1214.00 L 1026.00 1238.00 L 1034.00 1267.00 L 1050.00 1301.00 L 1055.00 1316.00 L 1049.00 1312.00 L 1058.00 1326.00 L 1082.00 1358.00 L 1087.00 1367.00 L 1073.00 1353.00 L 1073.00 1355.00 L 1087.00 1373.00 L 1093.00 1387.00 L 1091.00 1397.00 L 1098.00 1423.00 L 1114.00 1465.00 L 1120.00 1500.00 L 1116.00 1528.00 L 1106.00 1552.00 L 1090.00 1572.00 L 1064.00 1587.00 L 1028.00 1597.00 L 962.00 1596.00 L 866.00 1584.00 L 769.00 1582.00 L 671.00 1590.00 L 591.00 1604.00 L 529.00 1624.00 L 474.00 1654.00 L 426.00 1694.00 L 385.00 1721.00 L 351.00 1735.00 L 396.00 1642.00 L 520.00 1442.00 L 518.00 1442.00 L 390.00 1642.00 L 323.00 1742.00 L 317.00 1742.00 L 380.00 1640.00 L 512.00 1436.00 L 510.00 1435.00 L 374.00 1637.00 L 368.00 1643.00 L 492.00 1453.00 L 489.00 1451.00 L 359.00 1637.00 L 365.00 1626.00 L 507.00 1418.00 L 505.00 1415.00 L 359.00 1617.00 L 347.00 1631.00 L 469.00 1457.00 L 468.00 1454.00 L 344.00 1622.00 L 355.00 1606.00 L 501.00 1406.00 L 500.00 1402.00 L 352.00 1594.00 L 334.00 1615.00 L 446.00 1465.00 L 446.00 1463.00 L 334.00 1609.00 L 318.00 1628.00 L 398.00 1520.00 L 399.00 1515.00 L 321.00 1613.00 L 316.00 1618.00 L 384.00 1530.00 L 385.00 1526.00 L 319.00 1606.00 L 357.00 1557.00 L 499.00 1379.00 L 498.00 1380.00 L 354.00 1560.00 L 354.00 1557.00 L 498.00 1371.00 L 564.00 1275.00 L 552.00 1269.00 L 535.00 1270.00 L 513.00 1278.00 L 517.00 1266.00 L 547.00 1234.00 L 545.00 1231.00 L 511.00 1257.00 L 512.00 1255.00 L 548.00 1225.00 L 548.00 1224.00 L 512.00 1252.00 L 508.00 1254.00 L 536.00 1230.00 L 538.00 1227.00 L 514.00 1245.00 L 517.00 1240.00 L 547.00 1212.00 L 546.00 1208.00 L 514.00 1228.00 L 515.00 1222.00 L 549.00 1190.00 L 553.00 1182.00 L 527.00 1198.00 L 529.00 1196.00 L 559.00 1176.00 L 561.00 1174.00 L 535.00 1190.00 L 537.00 1188.00 L 567.00 1168.00 L 581.00 1150.00 L 579.00 1134.00 L 548.00 1118.00 L 488.00 1102.00 L 449.00 1082.00 L 431.00 1058.00 L 422.00 1044.00 L 422.00 1040.00 L 423.00 1028.00 Z" fill="black" stroke="black" stroke-width="1"/>
</svg>