<?xml version="1.0" encoding="UTF-8"?>
<svg xmlns="http://www.w3.org/2000/svg" viewBox="271.00 195.00 986.00 1758.00">
  <path d="M 572.00 961.00 L 552.00 907.00 L 527.00 866.00 L 497.00 838.00 L 490.00 828.00 L 506.00 836.00 L 460.00 796.00 L 352.00 708.00 L 298.00 661.00 L 298.00 655.00 L 310.00 660.00 L 334.00 676.00 L 333.00 674.00 L 307.00 654.00 L 309.00 654.00 L 339.00 674.00 L 339.00 672.00 L 309.00 648.00 L 306.00 643.00 L 330.00 657.00 L 329.00 653.00 L 303.00 631.00 L 287.00 588.00 L 281.00 524.00 L 281.00 475.00 L 287.00 441.00 L 303.00 398.00 L 329.00 346.00 L 352.00 310.00 L 372.00 290.00 L 405.00 270.00 L 451.00 250.00 L 484.00 240.00 L 504.00 240.00 L 529.00 232.00 L 559.00 216.00 L 594.00 207.00 L 634.00 205.00 L 690.00 208.00 L 762.00 216.00 L 846.00 239.00 L 942.00 277.00 L 987.00 314.00 L 981.00 350.00 L 983.00 350.00 L 993.00 314.00 L 995.00 317.00 L 989.00 359.00 L 995.00 359.00 L 1013.00 317.00 L 1016.00 319.00 L 1004.00 365.00 L 1008.00 365.00 L 1028.00 319.00 L 1031.00 320.00 L 1017.00 368.00 L 1020.00 367.00 L 1040.00 317.00 L 1043.00 319.00 L 1029.00 373.00 L 1032.00 373.00 L 1052.00 319.00 L 1055.00 321.00 L 1041.00 379.00 L 1045.00 381.00 L 1067.00 327.00 L 1069.00 329.00 L 1051.00 387.00 L 1064.00 438.00 L 1108.00 482.00 L 1140.00 521.00 L 1160.00 555.00 L 1166.00 584.00 L 1158.00 608.00 L 1161.00 616.00 L 1175.00 608.00 L 1176.00 614.00 L 1164.00 634.00 L 1165.00 637.00 L 1179.00 623.00 L 1179.00 625.00 L 1165.00 643.00 L 1166.00 646.00 L 1182.00 634.00 L 1182.00 640.00 L 1166.00 664.00 L 1165.00 671.00 L 1179.00 661.00 L 1177.00 668.00 L 1159.00 692.00 L 1161.00 696.00 L 1183.00 680.00 L 1183.00 683.00 L 1161.00 705.00 L 1161.00 708.00 L 1183.00 692.00 L 1183.00 694.00 L 1161.00 714.00 L 1171.00 761.00 L 1213.00 835.00 L 1223.00 882.00 L 1201.00 902.00 L 1195.00 928.00 L 1205.00 960.00 L 1207.00 988.00 L 1201.00 1012.00 L 1190.00 1032.00 L 1174.00 1048.00 L 1165.00 1071.00 L 1163.00 1101.00 L 1146.00 1124.00 L 1114.00 1140.00 L 1069.00 1151.00 L 1011.00 1157.00 L 976.00 1166.00 L 964.00 1178.00 L 1032.00 1289.00 L 1180.00 1499.00 L 1178.00 1501.00 L 1026.00 1295.00 L 1019.00 1286.00 L 1157.00 1474.00 L 1222.00 1563.00 L 1214.00 1553.00 L 1222.00 1565.00 L 1246.00 1599.00 L 1238.00 1590.00 L 1198.00 1538.00 L 1200.00 1543.00 L 1244.00 1605.00 L 1238.00 1599.00 L 1182.00 1525.00 L 1185.00 1532.00 L 1247.00 1620.00 L 1244.00 1617.00 L 1176.00 1523.00 L 1177.00 1526.00 L 1247.00 1626.00 L 1244.00 1623.00 L 1168.00 1517.00 L 1168.00 1520.00 L 1244.00 1632.00 L 1198.00 1566.00 L 1030.00 1322.00 L 1032.00 1329.00 L 1204.00 1587.00 L 1239.00 1642.00 L 1137.00 1494.00 L 1137.00 1497.00 L 1239.00 1651.00 L 1236.00 1648.00 L 1128.00 1488.00 L 1128.00 1494.00 L 1236.00 1666.00 L 1232.00 1663.00 L 1116.00 1485.00 L 1116.00 1488.00 L 1232.00 1672.00 L 1203.00 1626.00 L 1029.00 1350.00 L 1028.00 1352.00 L 1200.00 1632.00 L 1223.00 1672.00 L 1097.00 1472.00 L 1096.00 1475.00 L 1220.00 1681.00 L 1217.00 1678.00 L 1087.00 1466.00 L 1085.00 1470.00 L 1211.00 1690.00 L 1190.00 1656.00 L 1022.00 1368.00 L 1020.00 1371.00 L 1184.00 1665.00 L 1184.00 1668.00 L 1020.00 1380.00 L 1018.00 1384.00 L 1178.00 1680.00 L 1178.00 1682.00 L 1018.00 1390.00 L 1015.00 1395.00 L 1169.00 1697.00 L 1169.00 1700.00 L 1015.00 1404.00 L 1013.00 1407.00 L 1163.00 1709.00 L 1163.00 1712.00 L 1013.00 1416.00 L 1009.00 1419.00 L 1151.00 1721.00 L 1197.00 1890.00 L 1147.00 1926.00 L 1115.00 1943.00 L 1101.00 1941.00 L 1052.00 1905.00 L 968.00 1835.00 L 856.00 1756.00 L 716.00 1668.00 L 577.00 1599.00 L 439.00 1549.00 L 391.00 1469.00 L 433.00 1359.00 L 468.00 1281.00 L 496.00 1235.00 L 519.00 1186.00 L 537.00 1134.00 L 553.00 1102.00 L 567.00 1090.00 L 576.00 1064.00 L 580.00 1024.00 L 582.00 1000.00 L 582.00 992.00 L 572.00 961.00 Z" fill="black" stroke="black" stroke-width="1"/>
</svg>