<?xml version="1.0" encoding="UTF-8"?>
<svg xmlns="http://www.w3.org/2000/svg" viewBox="363.00 96.00 1016.00 1846.00">
  <path d="M 458.00 1029.00 L 406.00 1027.00 L 412.00 1026.00 L 476.00 1026.00 L 476.00 1023.00 L 412.00 1017.00 L 412.00 1012.00 L 476.00 1008.00 L 476.00 999.00 L 412.00 985.00 L 413.00 981.00 L 479.00 987.00 L 481.00 983.00 L 419.00 969.00 L 419.00 966.00 L 481.00 974.00 L 482.00 968.00 L 422.00 948.00 L 423.00 944.00 L 485.00 956.00 L 481.00 953.00 L 411.00 935.00 L 411.00 932.00 L 481.00 944.00 L 481.00 940.00 L 411.00 920.00 L 411.00 916.00 L 481.00 928.00 L 482.00 923.00 L 414.00 901.00 L 413.00 898.00 L 479.00 914.00 L 482.00 911.00 L 422.00 889.00 L 425.00 884.00 L 491.00 896.00 L 502.00 891.00 L 458.00 869.00 L 435.00 840.00 L 433.00 804.00 L 440.00 755.00 L 456.00 693.00 L 464.00 591.00 L 464.00 449.00 L 486.00 339.00 L 530.00 261.00 L 575.00 206.00 L 621.00 174.00 L 699.00 144.00 L 809.00 116.00 L 905.00 106.00 L 987.00 114.00 L 1068.00 144.00 L 1148.00 196.00 L 1203.00 237.00 L 1233.00 267.00 L 1245.00 298.00 L 1239.00 330.00 L 1243.00 336.00 L 1257.00 316.00 L 1259.00 320.00 L 1249.00 348.00 L 1253.00 351.00 L 1271.00 329.00 L 1273.00 333.00 L 1259.00 363.00 L 1262.00 422.00 L 1282.00 510.00 L 1316.00 594.00 L 1364.00 674.00 L 1369.00 727.00 L 1331.00 753.00 L 1330.00 756.00 L 1366.00 736.00 L 1365.00 739.00 L 1327.00 765.00 L 1323.00 771.00 L 1353.00 757.00 L 1353.00 761.00 L 1323.00 783.00 L 1311.00 802.00 L 1317.00 818.00 L 1309.00 843.00 L 1287.00 877.00 L 1279.00 921.00 L 1285.00 975.00 L 1256.00 1016.00 L 1192.00 1044.00 L 1166.00 1065.00 L 1178.00 1079.00 L 1176.00 1098.00 L 1160.00 1122.00 L 1160.00 1139.00 L 1176.00 1149.00 L 1176.00 1153.00 L 1160.00 1151.00 L 1161.00 1154.00 L 1179.00 1162.00 L 1176.00 1162.00 L 1152.00 1154.00 L 1178.00 1180.00 L 1254.00 1240.00 L 1258.00 1257.00 L 1190.00 1231.00 L 1184.00 1234.00 L 1240.00 1266.00 L 1241.00 1270.00 L 1187.00 1246.00 L 1178.00 1245.00 L 1214.00 1267.00 L 1216.00 1270.00 L 1184.00 1254.00 L 1207.00 1352.00 L 1285.00 1564.00 L 1326.00 1701.00 L 1330.00 1763.00 L 1320.00 1823.00 L 1296.00 1881.00 L 1269.00 1917.00 L 1239.00 1931.00 L 1198.00 1932.00 L 1146.00 1920.00 L 1015.00 1839.00 L 805.00 1689.00 L 648.00 1589.00 L 544.00 1539.00 L 464.00 1508.00 L 408.00 1496.00 L 385.00 1459.00 L 395.00 1397.00 L 395.00 1369.00 L 385.00 1375.00 L 386.00 1372.00 L 398.00 1360.00 L 395.00 1360.00 L 377.00 1372.00 L 379.00 1368.00 L 401.00 1348.00 L 399.00 1346.00 L 373.00 1362.00 L 374.00 1359.00 L 402.00 1337.00 L 402.00 1333.00 L 374.00 1347.00 L 376.00 1343.00 L 408.00 1321.00 L 410.00 1317.00 L 382.00 1331.00 L 388.00 1319.00 L 428.00 1281.00 L 436.00 1266.00 L 412.00 1274.00 L 416.00 1267.00 L 448.00 1245.00 L 450.00 1239.00 L 422.00 1249.00 L 424.00 1245.00 L 456.00 1227.00 L 457.00 1224.00 L 427.00 1236.00 L 429.00 1232.00 L 463.00 1212.00 L 463.00 1209.00 L 429.00 1223.00 L 430.00 1220.00 L 466.00 1200.00 L 468.00 1194.00 L 436.00 1202.00 L 437.00 1199.00 L 471.00 1185.00 L 471.00 1182.00 L 437.00 1190.00 L 438.00 1186.00 L 474.00 1170.00 L 475.00 1165.00 L 441.00 1171.00 L 441.00 1168.00 L 475.00 1156.00 L 475.00 1153.00 L 441.00 1159.00 L 445.00 1152.00 L 487.00 1132.00 L 488.00 1127.00 L 448.00 1137.00 L 449.00 1134.00 L 491.00 1118.00 L 491.00 1114.00 L 449.00 1122.00 L 448.00 1118.00 L 488.00 1102.00 L 475.00 1093.00 L 409.00 1091.00 L 409.00 1086.00 L 475.00 1078.00 L 472.00 1077.00 L 400.00 1083.00 L 393.00 1080.00 L 451.00 1068.00 L 452.00 1062.00 L 396.00 1062.00 L 403.00 1060.00 L 473.00 1056.00 L 474.00 1053.00 L 406.00 1051.00 L 406.00 1048.00 L 474.00 1044.00 L 475.00 1041.00 L 409.00 1039.00 L 403.00 1036.00 L 457.00 1032.00 L 458.00 1029.00 Z" fill="black" stroke="black" stroke-width="1"/>
</svg>