<?xml version="1.0" encoding="UTF-8"?>
<svg xmlns="http://www.w3.org/2000/svg" viewBox="385.00 165.00 891.00 1647.00">
  <path d="M 622.00 926.00 L 622.00 894.00 L 596.00 841.00 L 544.00 767.00 L 507.00 702.00 L 485.00 646.00 L 468.00 611.00 L 456.00 597.00 L 448.00 580.00 L 444.00 560.00 L 429.00 531.00 L 403.00 493.00 L 403.00 484.00 L 429.00 504.00 L 430.00 501.00 L 406.00 475.00 L 395.00 450.00 L 397.00 426.00 L 404.00 401.00 L 416.00 375.00 L 441.00 341.00 L 479.00 299.00 L 511.00 273.00 L 537.00 263.00 L 566.00 239.00 L 598.00 201.00 L 623.00 188.00 L 641.00 200.00 L 659.00 199.00 L 677.00 185.00 L 695.00 177.00 L 713.00 175.00 L 727.00 191.00 L 737.00 225.00 L 740.00 225.00 L 736.00 191.00 L 738.00 187.00 L 746.00 213.00 L 749.00 214.00 L 747.00 190.00 L 749.00 193.00 L 755.00 223.00 L 758.00 226.00 L 758.00 202.00 L 760.00 201.00 L 764.00 223.00 L 776.00 232.00 L 796.00 228.00 L 838.00 228.00 L 902.00 232.00 L 970.00 249.00 L 1042.00 279.00 L 1100.00 314.00 L 1144.00 354.00 L 1179.00 394.00 L 1205.00 434.00 L 1213.00 464.00 L 1203.00 484.00 L 1205.00 486.00 L 1219.00 470.00 L 1220.00 475.00 L 1208.00 501.00 L 1209.00 506.00 L 1223.00 490.00 L 1223.00 493.00 L 1209.00 515.00 L 1209.00 519.00 L 1223.00 505.00 L 1224.00 508.00 L 1212.00 528.00 L 1212.00 534.00 L 1224.00 526.00 L 1224.00 533.00 L 1212.00 555.00 L 1212.00 560.00 L 1224.00 548.00 L 1223.00 551.00 L 1209.00 569.00 L 1208.00 572.00 L 1220.00 560.00 L 1219.00 563.00 L 1205.00 581.00 L 1204.00 584.00 L 1216.00 572.00 L 1214.00 580.00 L 1198.00 608.00 L 1198.00 642.00 L 1214.00 682.00 L 1231.00 713.00 L 1249.00 735.00 L 1246.00 754.00 L 1222.00 770.00 L 1222.00 772.00 L 1246.00 760.00 L 1248.00 760.00 L 1228.00 772.00 L 1228.00 774.00 L 1248.00 766.00 L 1245.00 776.00 L 1219.00 804.00 L 1208.00 827.00 L 1212.00 845.00 L 1205.00 874.00 L 1187.00 914.00 L 1181.00 943.00 L 1187.00 961.00 L 1187.00 982.00 L 1181.00 1006.00 L 1168.00 1025.00 L 1148.00 1039.00 L 1128.00 1048.00 L 1108.00 1052.00 L 1090.00 1052.00 L 1074.00 1048.00 L 1071.00 1049.00 L 1081.00 1055.00 L 1074.00 1057.00 L 1050.00 1055.00 L 1028.00 1071.00 L 1008.00 1105.00 L 1066.00 1225.00 L 1202.00 1431.00 L 1263.00 1524.00 L 1249.00 1504.00 L 1250.00 1506.00 L 1266.00 1530.00 L 1253.00 1512.00 L 1211.00 1452.00 L 1212.00 1455.00 L 1256.00 1521.00 L 1252.00 1516.00 L 1200.00 1440.00 L 1201.00 1443.00 L 1255.00 1525.00 L 1253.00 1523.00 L 1195.00 1437.00 L 1197.00 1443.00 L 1259.00 1541.00 L 1255.00 1536.00 L 1185.00 1428.00 L 1186.00 1431.00 L 1258.00 1545.00 L 1219.00 1485.00 L 1069.00 1251.00 L 1069.00 1253.00 L 1219.00 1491.00 L 1251.00 1543.00 L 1165.00 1409.00 L 1166.00 1413.00 L 1254.00 1555.00 L 1252.00 1553.00 L 1160.00 1407.00 L 1160.00 1410.00 L 1252.00 1562.00 L 1222.00 1514.00 L 1070.00 1266.00 L 1070.00 1269.00 L 1222.00 1523.00 L 1245.00 1563.00 L 1139.00 1389.00 L 1139.00 1391.00 L 1245.00 1569.00 L 1242.00 1565.00 L 1130.00 1379.00 L 1129.00 1382.00 L 1239.00 1574.00 L 1237.00 1572.00 L 1123.00 1376.00 L 1123.00 1377.00 L 1237.00 1575.00 L 1218.00 1543.00 L 1066.00 1281.00 L 1064.00 1284.00 L 1212.00 1552.00 L 1223.00 1574.00 L 1097.00 1350.00 L 1096.00 1353.00 L 1220.00 1583.00 L 1209.00 1564.00 L 1063.00 1296.00 L 1062.00 1298.00 L 1206.00 1570.00 L 1206.00 1571.00 L 1062.00 1301.00 L 1060.00 1303.00 L 1200.00 1577.00 L 1200.00 1579.00 L 1060.00 1309.00 L 1058.00 1312.00 L 1194.00 1588.00 L 1249.00 1739.00 L 1223.00 1765.00 L 1188.00 1786.00 L 1144.00 1802.00 L 1083.00 1773.00 L 1005.00 1699.00 L 927.00 1636.00 L 849.00 1584.00 L 768.00 1536.00 L 684.00 1492.00 L 607.00 1460.00 L 537.00 1440.00 L 491.00 1430.00 L 469.00 1430.00 L 457.00 1425.00 L 455.00 1415.00 L 465.00 1370.00 L 487.00 1290.00 L 528.00 1186.00 L 588.00 1058.00 L 619.00 984.00 L 621.00 964.00 L 622.00 951.00 L 622.00 945.00 L 622.00 926.00 Z" fill="black" stroke="black" stroke-width="1"/>
</svg>