<?xml version="1.0" encoding="UTF-8"?>
<svg xmlns="http://www.w3.org/2000/svg" viewBox="280.00 238.00 828.00 1624.00">
  <path d="M 401.00 972.00 L 415.00 912.00 L 408.00 874.00 L 380.00 858.00 L 380.00 856.00 L 408.00 868.00 L 398.00 860.00 L 350.00 832.00 L 352.00 830.00 L 404.00 854.00 L 403.00 852.00 L 349.00 824.00 L 346.00 822.00 L 394.00 846.00 L 393.00 843.00 L 343.00 813.00 L 346.00 813.00 L 402.00 843.00 L 400.00 840.00 L 340.00 804.00 L 308.00 779.00 L 304.00 765.00 L 299.00 718.00 L 293.00 638.00 L 294.00 587.00 L 302.00 565.00 L 304.00 546.00 L 300.00 530.00 L 301.00 498.00 L 307.00 450.00 L 318.00 423.00 L 334.00 417.00 L 349.00 398.00 L 363.00 366.00 L 384.00 336.00 L 412.00 308.00 L 459.00 282.00 L 525.00 258.00 L 582.00 248.00 L 630.00 252.00 L 659.00 257.00 L 669.00 263.00 L 692.00 265.00 L 728.00 263.00 L 775.00 276.00 L 833.00 304.00 L 874.00 332.00 L 898.00 360.00 L 914.00 375.00 L 922.00 377.00 L 925.00 385.00 L 923.00 399.00 L 925.00 400.00 L 931.00 388.00 L 932.00 390.00 L 928.00 406.00 L 930.00 408.00 L 938.00 396.00 L 940.00 397.00 L 936.00 411.00 L 937.00 414.00 L 943.00 406.00 L 945.00 408.00 L 943.00 420.00 L 944.00 421.00 L 948.00 411.00 L 951.00 415.00 L 953.00 433.00 L 958.00 438.00 L 966.00 430.00 L 968.00 433.00 L 964.00 447.00 L 966.00 449.00 L 974.00 439.00 L 977.00 444.00 L 975.00 464.00 L 978.00 467.00 L 986.00 453.00 L 988.00 456.00 L 984.00 476.00 L 991.00 502.00 L 1009.00 534.00 L 1019.00 569.00 L 1021.00 607.00 L 1038.00 655.00 L 1070.00 713.00 L 1072.00 753.00 L 1044.00 775.00 L 1044.00 777.00 L 1072.00 759.00 L 1072.00 762.00 L 1044.00 786.00 L 1040.00 792.00 L 1060.00 780.00 L 1061.00 783.00 L 1043.00 801.00 L 1035.00 816.00 L 1037.00 828.00 L 1031.00 848.00 L 1017.00 876.00 L 1012.00 907.00 L 1016.00 941.00 L 1014.00 965.00 L 1006.00 979.00 L 995.00 990.00 L 981.00 998.00 L 979.00 1010.00 L 989.00 1026.00 L 986.00 1045.00 L 970.00 1067.00 L 968.00 1082.00 L 980.00 1090.00 L 979.00 1092.00 L 965.00 1088.00 L 968.00 1090.00 L 988.00 1098.00 L 987.00 1100.00 L 965.00 1096.00 L 966.00 1099.00 L 990.00 1109.00 L 989.00 1110.00 L 963.00 1102.00 L 963.00 1105.00 L 989.00 1119.00 L 998.00 1130.00 L 990.00 1138.00 L 979.00 1143.00 L 965.00 1145.00 L 967.00 1152.00 L 985.00 1164.00 L 992.00 1169.00 L 988.00 1167.00 L 992.00 1178.00 L 1004.00 1202.00 L 1018.00 1220.00 L 1034.00 1232.00 L 1036.00 1235.00 L 1024.00 1229.00 L 1025.00 1231.00 L 1039.00 1241.00 L 1042.00 1250.00 L 1034.00 1258.00 L 1021.00 1258.00 L 1003.00 1250.00 L 995.00 1259.00 L 997.00 1285.00 L 1013.00 1327.00 L 1043.00 1385.00 L 1068.00 1456.00 L 1088.00 1540.00 L 1098.00 1617.00 L 1098.00 1687.00 L 1092.00 1737.00 L 1080.00 1767.00 L 1063.00 1796.00 L 1041.00 1824.00 L 1023.00 1842.00 L 1009.00 1850.00 L 985.00 1852.00 L 951.00 1848.00 L 924.00 1841.00 L 904.00 1831.00 L 857.00 1790.00 L 783.00 1718.00 L 709.00 1660.00 L 635.00 1616.00 L 549.00 1576.00 L 451.00 1540.00 L 373.00 1517.00 L 315.00 1507.00 L 290.00 1467.00 L 298.00 1397.00 L 312.00 1328.00 L 332.00 1260.00 L 354.00 1202.00 L 378.00 1154.00 L 392.00 1117.00 L 396.00 1091.00 L 396.00 1062.00 L 392.00 1030.00 L 391.00 1011.00 L 393.00 1005.00 L 401.00 972.00 Z" fill="black" stroke="black" stroke-width="1"/>
</svg>