<?xml version="1.0" encoding="UTF-8"?>
<svg xmlns="http://www.w3.org/2000/svg" viewBox="335.00 220.00 867.00 1651.00">
  <path d="M 548.00 978.00 L 560.00 914.00 L 560.00 874.00 L 548.00 858.00 L 547.00 853.00 L 557.00 859.00 L 524.00 832.00 L 448.00 772.00 L 428.00 754.00 L 464.00 778.00 L 461.00 775.00 L 419.00 745.00 L 410.00 738.00 L 434.00 754.00 L 431.00 751.00 L 401.00 729.00 L 409.00 734.00 L 455.00 766.00 L 454.00 764.00 L 406.00 728.00 L 405.00 726.00 L 451.00 758.00 L 449.00 755.00 L 399.00 717.00 L 369.00 689.00 L 359.00 671.00 L 351.00 630.00 L 345.00 566.00 L 347.00 519.00 L 357.00 489.00 L 381.00 441.00 L 419.00 375.00 L 460.00 324.00 L 504.00 288.00 L 544.00 264.00 L 580.00 252.00 L 617.00 249.00 L 655.00 255.00 L 691.00 249.00 L 725.00 231.00 L 745.00 230.00 L 751.00 246.00 L 754.00 249.00 L 754.00 239.00 L 772.00 236.00 L 808.00 240.00 L 832.00 253.00 L 844.00 275.00 L 875.00 294.00 L 925.00 310.00 L 963.00 329.00 L 989.00 351.00 L 1028.00 402.00 L 1080.00 482.00 L 1105.00 531.00 L 1103.00 549.00 L 1106.00 552.00 L 1114.00 540.00 L 1114.00 543.00 L 1106.00 561.00 L 1107.00 563.00 L 1117.00 549.00 L 1117.00 556.00 L 1107.00 584.00 L 1108.00 592.00 L 1120.00 580.00 L 1121.00 582.00 L 1111.00 598.00 L 1112.00 600.00 L 1124.00 588.00 L 1124.00 591.00 L 1112.00 609.00 L 1113.00 612.00 L 1127.00 600.00 L 1127.00 604.00 L 1113.00 624.00 L 1114.00 627.00 L 1130.00 613.00 L 1129.00 617.00 L 1111.00 639.00 L 1111.00 642.00 L 1129.00 626.00 L 1129.00 629.00 L 1111.00 651.00 L 1109.00 654.00 L 1123.00 638.00 L 1123.00 647.00 L 1109.00 681.00 L 1119.00 732.00 L 1153.00 800.00 L 1156.00 843.00 L 1128.00 861.00 L 1127.00 864.00 L 1153.00 852.00 L 1152.00 855.00 L 1124.00 873.00 L 1111.00 890.00 L 1113.00 906.00 L 1103.00 936.00 L 1081.00 980.00 L 1070.00 1015.00 L 1070.00 1041.00 L 1058.00 1062.00 L 1034.00 1078.00 L 995.00 1088.00 L 941.00 1092.00 L 910.00 1107.00 L 902.00 1133.00 L 980.00 1264.00 L 1144.00 1500.00 L 1144.00 1503.00 L 980.00 1273.00 L 979.00 1272.00 L 1141.00 1500.00 L 1186.00 1564.00 L 1114.00 1464.00 L 1116.00 1468.00 L 1192.00 1576.00 L 1185.00 1568.00 L 1095.00 1444.00 L 1095.00 1447.00 L 1185.00 1577.00 L 1184.00 1576.00 L 1092.00 1444.00 L 1092.00 1446.00 L 1184.00 1582.00 L 1181.00 1579.00 L 1083.00 1437.00 L 1084.00 1440.00 L 1184.00 1588.00 L 1150.00 1538.00 L 982.00 1290.00 L 982.00 1292.00 L 1150.00 1544.00 L 1173.00 1581.00 L 1051.00 1403.00 L 1050.00 1408.00 L 1170.00 1596.00 L 1166.00 1591.00 L 1038.00 1393.00 L 1037.00 1395.00 L 1163.00 1597.00 L 1159.00 1592.00 L 1025.00 1380.00 L 1024.00 1382.00 L 1156.00 1598.00 L 1154.00 1596.00 L 1018.00 1376.00 L 1018.00 1377.00 L 1154.00 1599.00 L 1149.00 1592.00 L 1003.00 1356.00 L 1002.00 1358.00 L 1146.00 1598.00 L 1137.00 1583.00 L 975.00 1313.00 L 973.00 1317.00 L 1131.00 1595.00 L 1131.00 1597.00 L 973.00 1323.00 L 972.00 1325.00 L 1128.00 1603.00 L 1192.00 1762.00 L 1164.00 1802.00 L 1128.00 1835.00 L 1084.00 1861.00 L 980.00 1810.00 L 816.00 1682.00 L 682.00 1590.00 L 578.00 1534.00 L 479.00 1490.00 L 385.00 1458.00 L 355.00 1397.00 L 389.00 1307.00 L 439.00 1202.00 L 505.00 1082.00 L 539.00 1019.00 L 541.00 1013.00 L 548.00 978.00 Z" fill="black" stroke="black" stroke-width="1"/>
</svg>