<?xml version="1.0" encoding="UTF-8"?>
<svg xmlns="http://www.w3.org/2000/svg" viewBox="304.00 148.00 918.00 1606.00">
  <path d="M 410.00 930.00 L 418.00 866.00 L 426.00 824.00 L 434.00 804.00 L 434.00 789.00 L 426.00 779.00 L 428.00 777.00 L 440.00 783.00 L 438.00 781.00 L 422.00 771.00 L 423.00 770.00 L 441.00 778.00 L 438.00 773.00 L 414.00 755.00 L 406.00 729.00 L 414.00 695.00 L 406.00 629.00 L 382.00 531.00 L 371.00 453.00 L 373.00 395.00 L 380.00 347.00 L 392.00 309.00 L 418.00 268.00 L 458.00 224.00 L 509.00 191.00 L 571.00 169.00 L 630.00 158.00 L 686.00 158.00 L 741.00 163.00 L 795.00 173.00 L 859.00 197.00 L 933.00 235.00 L 992.00 278.00 L 1036.00 326.00 L 1057.00 360.00 L 1055.00 380.00 L 1058.00 382.00 L 1066.00 366.00 L 1067.00 371.00 L 1061.00 397.00 L 1063.00 400.00 L 1073.00 380.00 L 1079.00 372.00 L 1081.00 376.00 L 1077.00 389.00 L 1067.00 411.00 L 1064.00 418.00 L 1068.00 410.00 L 1068.00 412.00 L 1064.00 424.00 L 1068.00 420.00 L 1080.00 400.00 L 1081.00 403.00 L 1071.00 429.00 L 1072.00 433.00 L 1084.00 415.00 L 1085.00 417.00 L 1075.00 439.00 L 1076.00 441.00 L 1088.00 423.00 L 1089.00 428.00 L 1079.00 456.00 L 1080.00 460.00 L 1092.00 440.00 L 1092.00 444.00 L 1080.00 472.00 L 1081.00 475.00 L 1095.00 453.00 L 1095.00 456.00 L 1081.00 484.00 L 1081.00 487.00 L 1095.00 465.00 L 1092.00 476.00 L 1072.00 520.00 L 1086.00 576.00 L 1134.00 644.00 L 1139.00 695.00 L 1101.00 729.00 L 1102.00 731.00 L 1142.00 701.00 L 1140.00 704.00 L 1096.00 740.00 L 1096.00 742.00 L 1140.00 710.00 L 1140.00 713.00 L 1096.00 751.00 L 1095.00 755.00 L 1137.00 725.00 L 1155.00 713.00 L 1149.00 719.00 L 1127.00 736.00 L 1089.00 764.00 L 1071.00 786.00 L 1073.00 802.00 L 1071.00 813.00 L 1065.00 819.00 L 1064.00 831.00 L 1068.00 849.00 L 1067.00 866.00 L 1061.00 882.00 L 1063.00 901.00 L 1073.00 923.00 L 1078.00 943.00 L 1078.00 961.00 L 1073.00 978.00 L 1063.00 994.00 L 1047.00 1010.00 L 1025.00 1026.00 L 1015.00 1038.00 L 1017.00 1046.00 L 1015.00 1049.00 L 1009.00 1047.00 L 1012.00 1052.00 L 1024.00 1064.00 L 1025.00 1079.00 L 1015.00 1097.00 L 1018.00 1113.00 L 1034.00 1127.00 L 1033.00 1130.00 L 1015.00 1122.00 L 1020.00 1129.00 L 1048.00 1151.00 L 1049.00 1153.00 L 1023.00 1135.00 L 1038.00 1150.00 L 1094.00 1198.00 L 1092.00 1199.00 L 1032.00 1153.00 L 1034.00 1156.00 L 1098.00 1208.00 L 1131.00 1237.00 L 1133.00 1243.00 L 1114.00 1230.00 L 1074.00 1198.00 L 1075.00 1202.00 L 1117.00 1242.00 L 1116.00 1243.00 L 1072.00 1205.00 L 1074.00 1209.00 L 1122.00 1255.00 L 1125.00 1260.00 L 1083.00 1224.00 L 1082.00 1226.00 L 1122.00 1266.00 L 1116.00 1262.00 L 1064.00 1214.00 L 1058.00 1211.00 L 1098.00 1253.00 L 1107.00 1267.00 L 1085.00 1253.00 L 1079.00 1253.00 L 1089.00 1267.00 L 1099.00 1294.00 L 1109.00 1334.00 L 1137.00 1406.00 L 1183.00 1510.00 L 1208.00 1585.00 L 1212.00 1631.00 L 1208.00 1670.00 L 1196.00 1702.00 L 1183.00 1723.00 L 1169.00 1733.00 L 1143.00 1740.00 L 1105.00 1744.00 L 1082.00 1743.00 L 1074.00 1737.00 L 1069.00 1736.00 L 1067.00 1740.00 L 1057.00 1736.00 L 1039.00 1724.00 L 1027.00 1720.00 L 1021.00 1724.00 L 1010.00 1718.00 L 994.00 1702.00 L 943.00 1671.00 L 857.00 1625.00 L 806.00 1593.00 L 790.00 1575.00 L 772.00 1561.00 L 752.00 1551.00 L 740.00 1548.00 L 736.00 1552.00 L 732.00 1551.00 L 728.00 1545.00 L 682.00 1526.00 L 594.00 1494.00 L 490.00 1470.00 L 370.00 1454.00 L 314.00 1410.00 L 322.00 1338.00 L 347.00 1231.00 L 389.00 1089.00 L 409.00 1007.00 L 407.00 985.00 L 406.00 971.00 L 406.00 965.00 L 410.00 930.00 Z" fill="black" stroke="black" stroke-width="1"/>
</svg>