<?xml version="1.0" encoding="UTF-8"?>
<svg xmlns="http://www.w3.org/2000/svg" viewBox="188.00 251.00 1253.00 1382.00">
  <path d="M 420.00 900.00 L 420.00 856.00 L 409.00 818.00 L 387.00 786.00 L 399.00 743.00 L 445.00 689.00 L 458.00 649.00 L 438.00 623.00 L 439.00 620.00 L 461.00 640.00 L 462.00 637.00 L 442.00 611.00 L 443.00 605.00 L 465.00 619.00 L 467.00 616.00 L 449.00 596.00 L 448.00 593.00 L 464.00 607.00 L 464.00 604.00 L 448.00 584.00 L 448.00 581.00 L 464.00 595.00 L 464.00 580.00 L 448.00 536.00 L 448.00 521.00 L 464.00 535.00 L 466.00 531.00 L 454.00 509.00 L 455.00 503.00 L 469.00 513.00 L 471.00 510.00 L 461.00 494.00 L 461.00 491.00 L 471.00 501.00 L 477.00 487.00 L 479.00 449.00 L 485.00 437.00 L 495.00 451.00 L 498.00 448.00 L 494.00 428.00 L 496.00 425.00 L 504.00 439.00 L 506.00 437.00 L 502.00 419.00 L 505.00 415.00 L 515.00 425.00 L 524.00 414.00 L 532.00 382.00 L 567.00 345.00 L 629.00 303.00 L 735.00 275.00 L 885.00 261.00 L 1006.00 264.00 L 1098.00 284.00 L 1151.00 289.00 L 1165.00 279.00 L 1168.00 281.00 L 1160.00 295.00 L 1163.00 293.00 L 1177.00 275.00 L 1180.00 277.00 L 1172.00 299.00 L 1176.00 299.00 L 1192.00 277.00 L 1195.00 279.00 L 1185.00 305.00 L 1188.00 306.00 L 1204.00 282.00 L 1207.00 283.00 L 1197.00 309.00 L 1202.00 311.00 L 1222.00 289.00 L 1224.00 291.00 L 1208.00 317.00 L 1213.00 318.00 L 1239.00 294.00 L 1245.00 296.00 L 1231.00 324.00 L 1234.00 326.00 L 1254.00 302.00 L 1280.00 304.00 L 1312.00 332.00 L 1328.00 361.00 L 1328.00 391.00 L 1350.00 433.00 L 1394.00 487.00 L 1413.00 532.00 L 1407.00 568.00 L 1412.00 602.00 L 1428.00 634.00 L 1431.00 681.00 L 1421.00 743.00 L 1359.00 790.00 L 1245.00 822.00 L 1243.00 825.00 L 1353.00 799.00 L 1351.00 800.00 L 1237.00 828.00 L 1235.00 832.00 L 1345.00 812.00 L 1343.00 815.00 L 1229.00 841.00 L 1226.00 844.00 L 1334.00 824.00 L 1332.00 827.00 L 1220.00 853.00 L 1216.00 857.00 L 1320.00 839.00 L 1318.00 842.00 L 1210.00 866.00 L 1182.00 876.00 L 1234.00 872.00 L 1233.00 875.00 L 1179.00 885.00 L 1174.00 888.00 L 1218.00 884.00 L 1216.00 887.00 L 1168.00 897.00 L 1130.00 919.00 L 1102.00 953.00 L 1080.00 971.00 L 1064.00 973.00 L 1047.00 992.00 L 1029.00 1028.00 L 1020.00 1082.00 L 1020.00 1154.00 L 1040.00 1236.00 L 1080.00 1328.00 L 1097.00 1406.00 L 1091.00 1470.00 L 1000.00 1503.00 L 824.00 1505.00 L 678.00 1521.00 L 562.00 1551.00 L 533.00 1495.00 L 591.00 1353.00 L 588.00 1354.00 L 524.00 1498.00 L 525.00 1494.00 L 591.00 1342.00 L 588.00 1343.00 L 516.00 1497.00 L 517.00 1491.00 L 591.00 1325.00 L 587.00 1327.00 L 505.00 1497.00 L 505.00 1495.00 L 587.00 1321.00 L 584.00 1322.00 L 496.00 1498.00 L 496.00 1495.00 L 584.00 1313.00 L 577.00 1316.00 L 475.00 1504.00 L 475.00 1501.00 L 577.00 1307.00 L 576.00 1308.00 L 472.00 1504.00 L 472.00 1502.00 L 576.00 1302.00 L 568.00 1306.00 L 448.00 1514.00 L 448.00 1511.00 L 568.00 1297.00 L 565.00 1299.00 L 439.00 1517.00 L 439.00 1515.00 L 565.00 1293.00 L 555.00 1298.00 L 409.00 1530.00 L 408.00 1528.00 L 552.00 1292.00 L 550.00 1293.00 L 402.00 1531.00 L 370.00 1582.00 L 454.00 1446.00 L 451.00 1447.00 L 361.00 1585.00 L 359.00 1585.00 L 445.00 1447.00 L 435.00 1453.00 L 329.00 1603.00 L 362.00 1549.00 L 534.00 1291.00 L 532.00 1292.00 L 356.00 1552.00 L 316.00 1608.00 L 412.00 1460.00 L 400.00 1465.00 L 280.00 1623.00 L 319.00 1564.00 L 517.00 1288.00 L 513.00 1287.00 L 307.00 1561.00 L 306.00 1558.00 L 510.00 1278.00 L 505.00 1273.00 L 291.00 1543.00 L 234.00 1613.00 L 334.00 1483.00 L 333.00 1480.00 L 231.00 1604.00 L 229.00 1605.00 L 327.00 1483.00 L 326.00 1478.00 L 226.00 1590.00 L 284.00 1516.00 L 500.00 1256.00 L 499.00 1252.00 L 281.00 1504.00 L 203.00 1591.00 L 265.00 1513.00 L 265.00 1507.00 L 203.00 1573.00 L 198.00 1575.00 L 250.00 1513.00 L 252.00 1507.00 L 204.00 1557.00 L 200.00 1559.00 L 240.00 1513.00 L 241.00 1510.00 L 203.00 1550.00 L 200.00 1552.00 L 232.00 1516.00 L 234.00 1513.00 L 206.00 1543.00 L 202.00 1546.00 L 222.00 1522.00 L 224.00 1518.00 L 208.00 1534.00 L 300.00 1434.00 L 500.00 1218.00 L 562.00 1095.00 L 486.00 1065.00 L 441.00 1039.00 L 427.00 1017.00 L 421.00 988.00 L 423.00 952.00 L 423.00 931.00 L 421.00 925.00 L 420.00 900.00 Z" fill="black" stroke="black" stroke-width="1"/>
</svg>