<?xml version="1.0" encoding="UTF-8"?>
<svg xmlns="http://www.w3.org/2000/svg" viewBox="441.00 248.00 774.00 1519.00">
  <path d="M 545.00 992.00 L 543.00 988.00 L 543.00 985.00 L 545.00 983.00 L 547.00 966.00 L 549.00 934.00 L 555.00 909.00 L 565.00 891.00 L 569.00 879.00 L 567.00 873.00 L 562.00 866.00 L 554.00 858.00 L 545.00 840.00 L 535.00 812.00 L 513.00 765.00 L 479.00 699.00 L 460.00 659.00 L 456.00 645.00 L 453.00 625.00 L 451.00 599.00 L 452.00 562.00 L 456.00 514.00 L 465.00 469.00 L 479.00 427.00 L 491.00 396.00 L 501.00 376.00 L 512.00 357.00 L 524.00 339.00 L 542.00 321.00 L 566.00 303.00 L 590.00 289.00 L 614.00 279.00 L 642.00 270.00 L 674.00 262.00 L 702.00 258.00 L 726.00 258.00 L 744.00 260.00 L 756.00 264.00 L 786.00 267.00 L 834.00 269.00 L 879.00 277.00 L 921.00 291.00 L 965.00 315.00 L 1011.00 349.00 L 1042.00 375.00 L 1058.00 393.00 L 1075.00 416.00 L 1093.00 444.00 L 1105.00 464.00 L 1111.00 476.00 L 1111.00 490.00 L 1105.00 506.00 L 1106.00 507.00 L 1114.00 493.00 L 1115.00 497.00 L 1109.00 519.00 L 1110.00 523.00 L 1118.00 509.00 L 1119.00 512.00 L 1113.00 532.00 L 1114.00 535.00 L 1122.00 521.00 L 1122.00 523.00 L 1114.00 541.00 L 1115.00 542.00 L 1125.00 526.00 L 1130.00 521.00 L 1130.00 527.00 L 1126.00 537.00 L 1118.00 551.00 L 1114.00 561.00 L 1114.00 567.00 L 1119.00 562.00 L 1129.00 546.00 L 1129.00 547.00 L 1119.00 565.00 L 1119.00 566.00 L 1129.00 550.00 L 1130.00 553.00 L 1122.00 575.00 L 1122.00 580.00 L 1130.00 568.00 L 1129.00 571.00 L 1119.00 589.00 L 1120.00 590.00 L 1132.00 574.00 L 1132.00 576.00 L 1120.00 596.00 L 1120.00 598.00 L 1132.00 582.00 L 1131.00 585.00 L 1117.00 607.00 L 1109.00 629.00 L 1107.00 651.00 L 1111.00 672.00 L 1121.00 692.00 L 1133.00 710.00 L 1147.00 726.00 L 1157.00 743.00 L 1163.00 761.00 L 1156.00 780.00 L 1136.00 800.00 L 1127.00 823.00 L 1129.00 849.00 L 1125.00 874.00 L 1115.00 898.00 L 1104.00 915.00 L 1092.00 925.00 L 1087.00 939.00 L 1089.00 957.00 L 1089.00 970.00 L 1087.00 978.00 L 1082.00 989.00 L 1074.00 1003.00 L 1062.00 1016.00 L 1046.00 1028.00 L 1040.00 1041.00 L 1044.00 1055.00 L 1043.00 1068.00 L 1037.00 1080.00 L 1044.00 1092.00 L 1064.00 1104.00 L 1064.00 1107.00 L 1044.00 1101.00 L 1047.00 1106.00 L 1073.00 1122.00 L 1073.00 1123.00 L 1047.00 1109.00 L 1048.00 1112.00 L 1076.00 1132.00 L 1076.00 1134.00 L 1048.00 1118.00 L 1033.00 1111.00 L 1031.00 1113.00 L 1043.00 1123.00 L 1069.00 1141.00 L 1069.00 1142.00 L 1043.00 1126.00 L 1048.00 1134.00 L 1084.00 1166.00 L 1099.00 1180.00 L 1093.00 1176.00 L 1106.00 1186.00 L 1138.00 1210.00 L 1136.00 1209.00 L 1100.00 1183.00 L 1101.00 1185.00 L 1139.00 1215.00 L 1136.00 1214.00 L 1092.00 1182.00 L 1091.00 1184.00 L 1133.00 1220.00 L 1147.00 1233.00 L 1133.00 1223.00 L 1131.00 1223.00 L 1141.00 1233.00 L 1139.00 1238.00 L 1125.00 1238.00 L 1105.00 1231.00 L 1079.00 1217.00 L 1076.00 1225.00 L 1096.00 1255.00 L 1110.00 1279.00 L 1118.00 1297.00 L 1121.00 1305.00 L 1119.00 1303.00 L 1120.00 1310.00 L 1124.00 1326.00 L 1141.00 1370.00 L 1171.00 1442.00 L 1185.00 1477.00 L 1183.00 1475.00 L 1185.00 1481.00 L 1191.00 1495.00 L 1196.00 1513.00 L 1200.00 1535.00 L 1203.00 1554.00 L 1205.00 1570.00 L 1205.00 1599.00 L 1203.00 1641.00 L 1197.00 1674.00 L 1187.00 1698.00 L 1174.00 1718.00 L 1158.00 1734.00 L 1141.00 1747.00 L 1123.00 1757.00 L 1098.00 1757.00 L 1066.00 1747.00 L 1035.00 1733.00 L 1005.00 1715.00 L 979.00 1695.00 L 957.00 1673.00 L 910.00 1640.00 L 838.00 1596.00 L 766.00 1559.00 L 694.00 1529.00 L 633.00 1508.00 L 583.00 1496.00 L 551.00 1487.00 L 537.00 1481.00 L 524.00 1479.00 L 512.00 1481.00 L 504.00 1480.00 L 500.00 1476.00 L 503.00 1438.00 L 513.00 1366.00 L 528.00 1301.00 L 548.00 1243.00 L 558.00 1205.00 L 558.00 1187.00 L 553.00 1164.00 L 543.00 1136.00 L 540.00 1093.00 L 544.00 1035.00 L 546.00 1003.00 L 546.00 997.00 L 545.00 992.00 Z" fill="black" stroke="black" stroke-width="1"/>
</svg>