<?xml version="1.0" encoding="UTF-8"?>
<svg xmlns="http://www.w3.org/2000/svg" viewBox="415.00 199.00 896.00 1597.00">
  <path d="M 604.00 958.00 L 624.00 950.00 L 635.00 929.00 L 637.00 895.00 L 604.00 855.00 L 536.00 809.00 L 488.00 770.00 L 460.00 738.00 L 440.00 705.00 L 428.00 671.00 L 425.00 623.00 L 431.00 561.00 L 442.00 507.00 L 458.00 461.00 L 483.00 416.00 L 517.00 372.00 L 542.00 343.00 L 558.00 329.00 L 579.00 317.00 L 605.00 307.00 L 631.00 286.00 L 657.00 254.00 L 673.00 242.00 L 679.00 250.00 L 693.00 245.00 L 715.00 227.00 L 741.00 215.00 L 771.00 209.00 L 789.00 219.00 L 795.00 245.00 L 798.00 247.00 L 798.00 225.00 L 800.00 225.00 L 804.00 247.00 L 805.00 248.00 L 803.00 228.00 L 806.00 228.00 L 814.00 248.00 L 860.00 269.00 L 944.00 291.00 L 997.00 312.00 L 1019.00 332.00 L 1042.00 348.00 L 1066.00 360.00 L 1100.00 395.00 L 1144.00 453.00 L 1168.00 486.00 L 1172.00 494.00 L 1172.00 506.00 L 1168.00 522.00 L 1170.00 524.00 L 1178.00 512.00 L 1179.00 516.00 L 1173.00 536.00 L 1175.00 538.00 L 1185.00 522.00 L 1186.00 525.00 L 1178.00 547.00 L 1180.00 550.00 L 1192.00 534.00 L 1193.00 536.00 L 1183.00 556.00 L 1184.00 559.00 L 1196.00 545.00 L 1196.00 548.00 L 1184.00 568.00 L 1184.00 570.00 L 1196.00 554.00 L 1196.00 556.00 L 1184.00 576.00 L 1184.00 578.00 L 1196.00 562.00 L 1196.00 564.00 L 1184.00 584.00 L 1184.00 586.00 L 1196.00 570.00 L 1196.00 578.00 L 1184.00 610.00 L 1184.00 620.00 L 1196.00 608.00 L 1196.00 612.00 L 1184.00 632.00 L 1185.00 634.00 L 1199.00 618.00 L 1198.00 622.00 L 1182.00 646.00 L 1184.00 648.00 L 1204.00 628.00 L 1203.00 633.00 L 1181.00 663.00 L 1182.00 666.00 L 1206.00 642.00 L 1206.00 644.00 L 1182.00 672.00 L 1187.00 713.00 L 1221.00 767.00 L 1228.00 804.00 L 1208.00 824.00 L 1201.00 845.00 L 1207.00 867.00 L 1209.00 887.00 L 1207.00 905.00 L 1201.00 922.00 L 1191.00 938.00 L 1189.00 959.00 L 1195.00 985.00 L 1190.00 1011.00 L 1174.00 1037.00 L 1130.00 1062.00 L 1058.00 1086.00 L 1075.00 1162.00 L 1181.00 1290.00 L 1180.00 1290.00 L 1072.00 1162.00 L 1083.00 1178.00 L 1213.00 1338.00 L 1240.00 1373.00 L 1164.00 1283.00 L 1164.00 1285.00 L 1240.00 1379.00 L 1237.00 1376.00 L 1155.00 1276.00 L 1156.00 1279.00 L 1240.00 1385.00 L 1235.00 1381.00 L 1141.00 1267.00 L 1140.00 1270.00 L 1232.00 1390.00 L 1223.00 1380.00 L 1113.00 1240.00 L 1111.00 1242.00 L 1217.00 1386.00 L 1205.00 1370.00 L 1075.00 1194.00 L 1083.00 1208.00 L 1229.00 1412.00 L 1242.00 1431.00 L 1122.00 1265.00 L 1122.00 1267.00 L 1242.00 1437.00 L 1237.00 1431.00 L 1107.00 1249.00 L 1106.00 1251.00 L 1234.00 1437.00 L 1230.00 1433.00 L 1094.00 1239.00 L 1092.00 1240.00 L 1224.00 1436.00 L 1290.00 1536.00 L 1290.00 1540.00 L 1233.00 1457.00 L 1119.00 1287.00 L 1120.00 1290.00 L 1236.00 1466.00 L 1234.00 1463.00 L 1114.00 1281.00 L 1115.00 1284.00 L 1237.00 1472.00 L 1228.00 1459.00 L 1088.00 1245.00 L 1088.00 1247.00 L 1228.00 1465.00 L 1299.00 1579.00 L 1301.00 1589.00 L 1240.00 1496.00 L 1116.00 1300.00 L 1116.00 1303.00 L 1240.00 1505.00 L 1229.00 1488.00 L 1083.00 1252.00 L 1083.00 1255.00 L 1229.00 1497.00 L 1226.00 1493.00 L 1074.00 1243.00 L 1074.00 1245.00 L 1226.00 1499.00 L 1301.00 1630.00 L 1299.00 1638.00 L 1223.00 1513.00 L 1073.00 1255.00 L 1072.00 1258.00 L 1220.00 1522.00 L 1286.00 1671.00 L 1270.00 1705.00 L 1251.00 1732.00 L 1229.00 1752.00 L 1205.00 1770.00 L 1179.00 1786.00 L 1152.00 1779.00 L 1124.00 1749.00 L 1036.00 1676.00 L 888.00 1560.00 L 778.00 1480.00 L 706.00 1436.00 L 627.00 1395.00 L 541.00 1357.00 L 502.00 1323.00 L 510.00 1293.00 L 537.00 1239.00 L 583.00 1161.00 L 606.00 1102.00 L 606.00 1062.00 L 596.00 1030.00 L 576.00 1006.00 L 570.00 988.00 L 578.00 976.00 L 585.00 968.00 L 591.00 964.00 L 604.00 958.00 Z" fill="black" stroke="black" stroke-width="1"/>
</svg>