<?xml version="1.0" encoding="UTF-8"?>
<svg xmlns="http://www.w3.org/2000/svg" viewBox="283.00 165.00 961.00 1706.00">
  <path d="M 372.00 1037.00 L 376.00 1011.00 L 384.00 985.00 L 396.00 959.00 L 398.00 939.00 L 390.00 925.00 L 384.00 898.00 L 380.00 858.00 L 370.00 815.00 L 354.00 769.00 L 336.00 729.00 L 316.00 695.00 L 302.00 659.00 L 294.00 621.00 L 293.00 566.00 L 299.00 494.00 L 317.00 423.00 L 347.00 353.00 L 373.00 305.00 L 395.00 279.00 L 421.00 256.00 L 451.00 236.00 L 489.00 216.00 L 535.00 196.00 L 576.00 183.00 L 612.00 177.00 L 676.00 175.00 L 768.00 177.00 L 850.00 193.00 L 922.00 223.00 L 967.00 247.00 L 985.00 265.00 L 993.00 281.00 L 991.00 295.00 L 994.00 298.00 L 1002.00 290.00 L 1005.00 293.00 L 1003.00 307.00 L 1004.00 310.00 L 1008.00 302.00 L 1010.00 306.00 L 1010.00 322.00 L 1018.00 338.00 L 1034.00 354.00 L 1046.00 371.00 L 1054.00 389.00 L 1064.00 415.00 L 1076.00 449.00 L 1082.00 480.00 L 1082.00 508.00 L 1115.00 559.00 L 1181.00 633.00 L 1198.00 686.00 L 1166.00 718.00 L 1167.00 722.00 L 1201.00 698.00 L 1198.00 705.00 L 1158.00 743.00 L 1158.00 747.00 L 1198.00 717.00 L 1198.00 719.00 L 1158.00 753.00 L 1138.00 787.00 L 1138.00 821.00 L 1133.00 847.00 L 1123.00 865.00 L 1122.00 887.00 L 1130.00 913.00 L 1130.00 936.00 L 1122.00 956.00 L 1105.00 975.00 L 1079.00 993.00 L 1076.00 1012.00 L 1096.00 1032.00 L 1093.00 1064.00 L 1067.00 1108.00 L 1064.00 1135.00 L 1084.00 1145.00 L 1082.00 1148.00 L 1058.00 1144.00 L 1060.00 1146.00 L 1088.00 1154.00 L 1090.00 1156.00 L 1066.00 1152.00 L 1067.00 1155.00 L 1093.00 1165.00 L 1090.00 1165.00 L 1058.00 1155.00 L 1058.00 1157.00 L 1090.00 1171.00 L 1106.00 1183.00 L 1106.00 1193.00 L 1097.00 1199.00 L 1079.00 1201.00 L 1074.00 1204.00 L 1082.00 1208.00 L 1074.00 1207.00 L 1050.00 1201.00 L 1071.00 1261.00 L 1137.00 1387.00 L 1181.00 1480.00 L 1203.00 1540.00 L 1219.00 1597.00 L 1229.00 1651.00 L 1234.00 1693.00 L 1234.00 1723.00 L 1229.00 1759.00 L 1219.00 1801.00 L 1200.00 1833.00 L 1172.00 1855.00 L 1132.00 1861.00 L 1080.00 1851.00 L 1010.00 1816.00 L 922.00 1756.00 L 876.00 1720.00 L 872.00 1708.00 L 869.00 1706.00 L 867.00 1714.00 L 863.00 1711.00 L 857.00 1697.00 L 854.00 1695.00 L 854.00 1705.00 L 852.00 1705.00 L 848.00 1695.00 L 846.00 1694.00 L 846.00 1702.00 L 820.00 1689.00 L 768.00 1655.00 L 706.00 1625.00 L 634.00 1599.00 L 596.00 1583.00 L 592.00 1577.00 L 568.00 1570.00 L 524.00 1562.00 L 495.00 1554.00 L 481.00 1546.00 L 474.00 1539.00 L 474.00 1533.00 L 471.00 1532.00 L 465.00 1536.00 L 464.00 1534.00 L 468.00 1526.00 L 462.00 1525.00 L 446.00 1531.00 L 422.00 1528.00 L 390.00 1516.00 L 368.00 1512.00 L 356.00 1516.00 L 338.00 1516.00 L 314.00 1512.00 L 315.00 1495.00 L 341.00 1465.00 L 342.00 1460.00 L 318.00 1480.00 L 316.00 1480.00 L 336.00 1460.00 L 337.00 1457.00 L 319.00 1471.00 L 325.00 1463.00 L 355.00 1433.00 L 356.00 1430.00 L 328.00 1454.00 L 329.00 1449.00 L 359.00 1415.00 L 362.00 1406.00 L 338.00 1422.00 L 338.00 1419.00 L 362.00 1397.00 L 360.00 1396.00 L 332.00 1416.00 L 331.00 1413.00 L 357.00 1387.00 L 365.00 1378.00 L 355.00 1386.00 L 345.00 1386.00 L 335.00 1378.00 L 341.00 1331.00 L 363.00 1245.00 L 373.00 1168.00 L 371.00 1100.00 L 370.00 1062.00 L 370.00 1054.00 L 372.00 1037.00 Z" fill="black" stroke="black" stroke-width="1"/>
</svg>