<?xml version="1.0" encoding="UTF-8"?>
<svg xmlns="http://www.w3.org/2000/svg" viewBox="241.00 244.00 939.00 1493.00">
  <path d="M 533.00 959.00 L 539.00 945.00 L 550.00 929.00 L 566.00 911.00 L 568.00 897.00 L 556.00 887.00 L 557.00 884.00 L 571.00 888.00 L 521.00 857.00 L 407.00 791.00 L 356.00 761.00 L 368.00 767.00 L 364.00 764.00 L 344.00 752.00 L 360.00 760.00 L 412.00 788.00 L 409.00 785.00 L 351.00 751.00 L 355.00 751.00 L 421.00 785.00 L 419.00 782.00 L 349.00 742.00 L 370.00 754.00 L 482.00 818.00 L 480.00 815.00 L 364.00 745.00 L 348.00 734.00 L 432.00 782.00 L 431.00 780.00 L 345.00 728.00 L 297.00 696.00 L 287.00 684.00 L 346.00 718.00 L 474.00 798.00 L 472.00 796.00 L 340.00 712.00 L 273.00 668.00 L 271.00 664.00 L 337.00 705.00 L 471.00 791.00 L 470.00 789.00 L 334.00 699.00 L 265.00 652.00 L 263.00 648.00 L 328.00 689.00 L 460.00 775.00 L 459.00 772.00 L 325.00 680.00 L 327.00 681.00 L 465.00 775.00 L 465.00 772.00 L 327.00 672.00 L 256.00 602.00 L 252.00 562.00 L 251.00 534.00 L 253.00 518.00 L 257.00 502.00 L 263.00 486.00 L 275.00 468.00 L 293.00 448.00 L 306.00 430.00 L 314.00 414.00 L 330.00 394.00 L 354.00 370.00 L 380.00 353.00 L 408.00 343.00 L 440.00 325.00 L 476.00 299.00 L 507.00 282.00 L 533.00 274.00 L 567.00 270.00 L 609.00 270.00 L 633.00 267.00 L 639.00 261.00 L 646.00 272.00 L 654.00 300.00 L 657.00 298.00 L 655.00 266.00 L 656.00 264.00 L 660.00 292.00 L 663.00 304.00 L 665.00 300.00 L 667.00 302.00 L 669.00 310.00 L 668.00 297.00 L 664.00 263.00 L 665.00 257.00 L 671.00 279.00 L 674.00 278.00 L 674.00 254.00 L 676.00 260.00 L 680.00 296.00 L 682.00 295.00 L 682.00 257.00 L 684.00 257.00 L 688.00 295.00 L 690.00 295.00 L 690.00 257.00 L 693.00 257.00 L 699.00 295.00 L 719.00 313.00 L 753.00 311.00 L 784.00 313.00 L 812.00 319.00 L 849.00 331.00 L 895.00 349.00 L 934.00 368.00 L 966.00 388.00 L 1002.00 418.00 L 1042.00 458.00 L 1079.00 505.00 L 1113.00 559.00 L 1127.00 590.00 L 1121.00 598.00 L 1120.00 611.00 L 1124.00 629.00 L 1126.00 655.00 L 1126.00 689.00 L 1123.00 724.00 L 1117.00 760.00 L 1124.00 799.00 L 1144.00 841.00 L 1154.00 867.00 L 1154.00 877.00 L 1151.00 886.00 L 1145.00 894.00 L 1135.00 901.00 L 1121.00 907.00 L 1116.00 922.00 L 1120.00 946.00 L 1118.00 963.00 L 1110.00 973.00 L 1107.00 984.00 L 1109.00 996.00 L 1104.00 1010.00 L 1092.00 1026.00 L 1087.00 1041.00 L 1089.00 1055.00 L 1088.00 1071.00 L 1084.00 1089.00 L 1073.00 1105.00 L 1055.00 1119.00 L 1027.00 1125.00 L 989.00 1123.00 L 956.00 1118.00 L 928.00 1110.00 L 909.00 1108.00 L 899.00 1112.00 L 892.00 1117.00 L 888.00 1123.00 L 932.00 1179.00 L 1024.00 1285.00 L 1037.00 1301.00 L 971.00 1227.00 L 977.00 1235.00 L 1055.00 1325.00 L 1051.00 1321.00 L 965.00 1223.00 L 967.00 1226.00 L 1057.00 1330.00 L 1055.00 1328.00 L 961.00 1220.00 L 964.00 1224.00 L 1064.00 1340.00 L 1062.00 1338.00 L 958.00 1218.00 L 959.00 1220.00 L 1065.00 1344.00 L 1063.00 1342.00 L 953.00 1214.00 L 956.00 1219.00 L 1072.00 1357.00 L 1069.00 1354.00 L 947.00 1210.00 L 951.00 1218.00 L 1081.00 1378.00 L 1152.00 1481.00 L 1164.00 1527.00 L 1170.00 1559.00 L 1170.00 1577.00 L 1164.00 1603.00 L 1152.00 1637.00 L 1139.00 1665.00 L 1125.00 1687.00 L 1102.00 1703.00 L 1070.00 1713.00 L 1019.00 1721.00 L 949.00 1727.00 L 892.00 1709.00 L 848.00 1667.00 L 822.00 1645.00 L 814.00 1643.00 L 758.00 1604.00 L 654.00 1528.00 L 563.00 1470.00 L 485.00 1430.00 L 415.00 1399.00 L 353.00 1377.00 L 347.00 1304.00 L 397.00 1180.00 L 428.00 1111.00 L 440.00 1097.00 L 460.00 1064.00 L 488.00 1012.00 L 508.00 983.00 L 520.00 977.00 L 523.00 974.00 L 517.00 974.00 L 516.00 973.00 L 520.00 971.00 L 524.00 969.00 L 528.00 967.00 L 533.00 959.00 Z" fill="black" stroke="black" stroke-width="1"/>
</svg>