<?xml version="1.0" encoding="UTF-8"?>
<svg xmlns="http://www.w3.org/2000/svg" viewBox="342.00 113.00 1060.00 1673.00">
  <path d="M 479.00 907.00 L 489.00 821.00 L 501.00 768.00 L 515.00 748.00 L 519.00 736.00 L 513.00 732.00 L 514.00 731.00 L 522.00 733.00 L 520.00 730.00 L 508.00 722.00 L 508.00 719.00 L 520.00 721.00 L 520.00 718.00 L 508.00 710.00 L 511.00 710.00 L 529.00 718.00 L 529.00 715.00 L 511.00 701.00 L 512.00 700.00 L 532.00 712.00 L 532.00 710.00 L 512.00 694.00 L 515.00 694.00 L 541.00 710.00 L 542.00 709.00 L 518.00 691.00 L 521.00 690.00 L 551.00 706.00 L 551.00 703.00 L 521.00 681.00 L 523.00 682.00 L 557.00 706.00 L 556.00 704.00 L 520.00 676.00 L 499.00 642.00 L 493.00 602.00 L 491.00 539.00 L 493.00 453.00 L 505.00 377.00 L 527.00 311.00 L 553.00 258.00 L 583.00 218.00 L 613.00 187.00 L 643.00 165.00 L 677.00 147.00 L 715.00 133.00 L 786.00 125.00 L 890.00 123.00 L 974.00 132.00 L 1038.00 152.00 L 1098.00 183.00 L 1154.00 225.00 L 1181.00 253.00 L 1179.00 267.00 L 1181.00 267.00 L 1187.00 253.00 L 1189.00 254.00 L 1187.00 270.00 L 1190.00 272.00 L 1198.00 260.00 L 1199.00 263.00 L 1193.00 281.00 L 1194.00 283.00 L 1202.00 269.00 L 1204.00 272.00 L 1200.00 292.00 L 1202.00 295.00 L 1210.00 281.00 L 1212.00 285.00 L 1208.00 307.00 L 1213.00 308.00 L 1227.00 288.00 L 1228.00 291.00 L 1216.00 317.00 L 1216.00 320.00 L 1228.00 300.00 L 1229.00 303.00 L 1219.00 329.00 L 1223.00 362.00 L 1241.00 402.00 L 1250.00 434.00 L 1250.00 458.00 L 1281.00 507.00 L 1343.00 581.00 L 1357.00 633.00 L 1323.00 663.00 L 1323.00 668.00 L 1357.00 648.00 L 1357.00 651.00 L 1323.00 677.00 L 1321.00 680.00 L 1351.00 660.00 L 1352.00 663.00 L 1324.00 689.00 L 1312.00 710.00 L 1316.00 726.00 L 1313.00 751.00 L 1303.00 785.00 L 1305.00 817.00 L 1319.00 847.00 L 1325.00 874.00 L 1323.00 898.00 L 1314.00 917.00 L 1298.00 931.00 L 1264.00 948.00 L 1212.00 968.00 L 1192.00 986.00 L 1204.00 1002.00 L 1199.00 1032.00 L 1177.00 1076.00 L 1171.00 1102.00 L 1181.00 1110.00 L 1180.00 1111.00 L 1168.00 1105.00 L 1178.00 1116.00 L 1210.00 1144.00 L 1258.00 1230.00 L 1322.00 1374.00 L 1364.00 1492.00 L 1384.00 1584.00 L 1392.00 1649.00 L 1388.00 1687.00 L 1381.00 1716.00 L 1371.00 1736.00 L 1359.00 1752.00 L 1345.00 1764.00 L 1330.00 1772.00 L 1314.00 1776.00 L 1286.00 1775.00 L 1246.00 1769.00 L 1185.00 1745.00 L 1103.00 1703.00 L 1023.00 1655.00 L 945.00 1601.00 L 900.00 1573.00 L 888.00 1571.00 L 881.00 1567.00 L 879.00 1561.00 L 877.00 1560.00 L 875.00 1564.00 L 871.00 1562.00 L 865.00 1554.00 L 861.00 1552.00 L 859.00 1556.00 L 839.00 1550.00 L 801.00 1534.00 L 758.00 1513.00 L 710.00 1487.00 L 650.00 1462.00 L 578.00 1438.00 L 534.00 1426.00 L 518.00 1426.00 L 509.00 1423.00 L 507.00 1417.00 L 502.00 1416.00 L 494.00 1420.00 L 491.00 1420.00 L 493.00 1416.00 L 486.00 1415.00 L 470.00 1417.00 L 462.00 1416.00 L 462.00 1412.00 L 445.00 1407.00 L 411.00 1401.00 L 385.00 1400.00 L 367.00 1404.00 L 356.00 1404.00 L 352.00 1400.00 L 362.00 1347.00 L 386.00 1245.00 L 419.00 1145.00 L 461.00 1047.00 L 480.00 989.00 L 476.00 971.00 L 474.00 959.00 L 474.00 953.00 L 479.00 907.00 Z" fill="black" stroke="black" stroke-width="1"/>
</svg>