<?xml version="1.0" encoding="UTF-8"?>
<svg xmlns="http://www.w3.org/2000/svg" viewBox="381.00 261.00 810.00 1579.00">
  <path d="M 559.00 1024.00 L 561.00 1012.00 L 571.00 1005.00 L 589.00 1003.00 L 600.00 988.00 L 604.00 960.00 L 600.00 939.00 L 588.00 925.00 L 586.00 920.00 L 594.00 924.00 L 588.00 920.00 L 568.00 908.00 L 566.00 906.00 L 582.00 914.00 L 560.00 896.00 L 500.00 852.00 L 472.00 831.00 L 476.00 833.00 L 462.00 815.00 L 430.00 777.00 L 409.00 746.00 L 399.00 722.00 L 393.00 694.00 L 391.00 662.00 L 394.00 622.00 L 402.00 574.00 L 421.00 520.00 L 451.00 460.00 L 478.00 418.00 L 502.00 394.00 L 524.00 377.00 L 544.00 367.00 L 569.00 346.00 L 599.00 314.00 L 619.00 306.00 L 629.00 322.00 L 632.00 321.00 L 628.00 303.00 L 631.00 301.00 L 641.00 315.00 L 666.00 310.00 L 706.00 286.00 L 740.00 273.00 L 768.00 271.00 L 785.00 271.00 L 791.00 273.00 L 795.00 292.00 L 797.00 328.00 L 799.00 328.00 L 801.00 292.00 L 803.00 293.00 L 805.00 331.00 L 807.00 332.00 L 809.00 296.00 L 812.00 278.00 L 816.00 278.00 L 818.00 297.00 L 818.00 335.00 L 820.00 336.00 L 824.00 300.00 L 827.00 300.00 L 829.00 336.00 L 832.00 338.00 L 836.00 306.00 L 838.00 306.00 L 838.00 338.00 L 839.00 341.00 L 841.00 315.00 L 844.00 316.00 L 848.00 344.00 L 869.00 363.00 L 907.00 373.00 L 943.00 388.00 L 977.00 408.00 L 1007.00 430.00 L 1033.00 454.00 L 1064.00 491.00 L 1100.00 541.00 L 1120.00 582.00 L 1124.00 614.00 L 1117.00 649.00 L 1099.00 687.00 L 1097.00 699.00 L 1111.00 685.00 L 1110.00 690.00 L 1094.00 714.00 L 1095.00 716.00 L 1113.00 696.00 L 1120.00 691.00 L 1116.00 701.00 L 1116.00 704.00 L 1120.00 700.00 L 1113.00 708.00 L 1095.00 728.00 L 1104.00 767.00 L 1140.00 825.00 L 1158.00 862.00 L 1158.00 878.00 L 1145.00 896.00 L 1119.00 916.00 L 1108.00 934.00 L 1112.00 950.00 L 1112.00 968.00 L 1108.00 988.00 L 1101.00 1003.00 L 1091.00 1013.00 L 1087.00 1032.00 L 1089.00 1060.00 L 1087.00 1079.00 L 1081.00 1089.00 L 1064.00 1101.00 L 1036.00 1115.00 L 998.00 1123.00 L 950.00 1125.00 L 921.00 1136.00 L 911.00 1156.00 L 968.00 1263.00 L 1092.00 1457.00 L 1091.00 1459.00 L 965.00 1269.00 L 966.00 1271.00 L 1094.00 1465.00 L 1123.00 1510.00 L 1053.00 1406.00 L 1055.00 1411.00 L 1129.00 1525.00 L 1128.00 1524.00 L 1052.00 1408.00 L 1053.00 1411.00 L 1131.00 1533.00 L 1126.00 1526.00 L 1038.00 1390.00 L 1039.00 1393.00 L 1129.00 1535.00 L 1127.00 1533.00 L 1033.00 1387.00 L 1035.00 1392.00 L 1133.00 1548.00 L 1131.00 1546.00 L 1029.00 1386.00 L 1029.00 1388.00 L 1131.00 1552.00 L 1129.00 1549.00 L 1023.00 1379.00 L 1025.00 1387.00 L 1135.00 1573.00 L 1117.00 1545.00 L 971.00 1303.00 L 971.00 1305.00 L 1117.00 1551.00 L 1130.00 1574.00 L 1010.00 1374.00 L 1010.00 1379.00 L 1130.00 1589.00 L 1117.00 1568.00 L 971.00 1316.00 L 971.00 1319.00 L 1117.00 1577.00 L 1127.00 1595.00 L 1001.00 1373.00 L 1001.00 1376.00 L 1127.00 1604.00 L 1125.00 1602.00 L 995.00 1370.00 L 994.00 1375.00 L 1122.00 1617.00 L 1118.00 1612.00 L 982.00 1360.00 L 981.00 1363.00 L 1115.00 1621.00 L 1181.00 1753.00 L 1179.00 1759.00 L 1107.00 1622.00 L 965.00 1342.00 L 964.00 1344.00 L 1104.00 1628.00 L 1173.00 1773.00 L 1171.00 1779.00 L 1101.00 1640.00 L 963.00 1356.00 L 961.00 1359.00 L 1095.00 1649.00 L 1151.00 1806.00 L 1129.00 1830.00 L 1070.00 1807.00 L 974.00 1737.00 L 879.00 1677.00 L 785.00 1627.00 L 700.00 1588.00 L 624.00 1560.00 L 552.00 1539.00 L 484.00 1525.00 L 449.00 1511.00 L 447.00 1497.00 L 453.00 1455.00 L 467.00 1385.00 L 484.00 1326.00 L 504.00 1278.00 L 516.00 1238.00 L 520.00 1206.00 L 535.00 1166.00 L 561.00 1118.00 L 570.00 1080.00 L 562.00 1052.00 L 558.00 1036.00 L 558.00 1032.00 L 559.00 1024.00 Z" fill="black" stroke="black" stroke-width="1"/>
</svg>