<?xml version="1.0" encoding="UTF-8"?>
<svg xmlns="http://www.w3.org/2000/svg" viewBox="274.00 225.00 952.00 1634.00">
  <path d="M 427.00 1044.00 L 445.00 976.00 L 462.00 933.00 L 478.00 915.00 L 483.00 903.00 L 477.00 897.00 L 477.00 895.00 L 483.00 897.00 L 478.00 893.00 L 462.00 883.00 L 447.00 870.00 L 433.00 854.00 L 418.00 823.00 L 402.00 777.00 L 391.00 729.00 L 385.00 679.00 L 382.00 645.00 L 382.00 627.00 L 384.00 613.00 L 388.00 603.00 L 390.00 564.00 L 390.00 496.00 L 397.00 460.00 L 411.00 456.00 L 433.00 430.00 L 463.00 382.00 L 494.00 343.00 L 526.00 313.00 L 572.00 284.00 L 632.00 256.00 L 674.00 242.00 L 698.00 242.00 L 712.00 240.00 L 716.00 236.00 L 746.00 235.00 L 802.00 237.00 L 843.00 242.00 L 869.00 250.00 L 904.00 266.00 L 948.00 290.00 L 1011.00 341.00 L 1093.00 419.00 L 1137.00 472.00 L 1143.00 500.00 L 1144.00 521.00 L 1140.00 535.00 L 1142.00 537.00 L 1150.00 527.00 L 1151.00 530.00 L 1145.00 546.00 L 1146.00 549.00 L 1154.00 539.00 L 1151.00 552.00 L 1137.00 588.00 L 1130.00 614.00 L 1130.00 630.00 L 1151.00 671.00 L 1193.00 737.00 L 1197.00 786.00 L 1163.00 818.00 L 1161.00 823.00 L 1191.00 801.00 L 1191.00 804.00 L 1161.00 832.00 L 1147.00 857.00 L 1149.00 879.00 L 1146.00 899.00 L 1138.00 917.00 L 1136.00 935.00 L 1140.00 953.00 L 1140.00 974.00 L 1136.00 998.00 L 1128.00 1016.00 L 1116.00 1028.00 L 1094.00 1039.00 L 1062.00 1049.00 L 1055.00 1059.00 L 1073.00 1069.00 L 1073.00 1086.00 L 1055.00 1110.00 L 1049.00 1127.00 L 1055.00 1137.00 L 1053.00 1141.00 L 1043.00 1139.00 L 1048.00 1142.00 L 1068.00 1150.00 L 1068.00 1153.00 L 1048.00 1151.00 L 1049.00 1154.00 L 1071.00 1162.00 L 1069.00 1163.00 L 1043.00 1157.00 L 1042.00 1159.00 L 1066.00 1169.00 L 1075.00 1176.00 L 1069.00 1180.00 L 1073.00 1187.00 L 1087.00 1197.00 L 1099.00 1211.00 L 1109.00 1229.00 L 1126.00 1245.00 L 1150.00 1259.00 L 1132.00 1250.00 L 1072.00 1218.00 L 1069.00 1217.00 L 1123.00 1247.00 L 1126.00 1250.00 L 1078.00 1226.00 L 1075.00 1226.00 L 1117.00 1250.00 L 1114.00 1249.00 L 1066.00 1223.00 L 1071.00 1227.00 L 1129.00 1261.00 L 1130.00 1263.00 L 1074.00 1233.00 L 1072.00 1235.00 L 1124.00 1269.00 L 1125.00 1272.00 L 1075.00 1244.00 L 1073.00 1245.00 L 1119.00 1275.00 L 1120.00 1276.00 L 1076.00 1248.00 L 1074.00 1249.00 L 1114.00 1279.00 L 1114.00 1282.00 L 1074.00 1258.00 L 1071.00 1258.00 L 1105.00 1282.00 L 1110.00 1287.00 L 1086.00 1273.00 L 1083.00 1273.00 L 1101.00 1287.00 L 1096.00 1284.00 L 1068.00 1264.00 L 1065.00 1264.00 L 1087.00 1284.00 L 1087.00 1287.00 L 1065.00 1273.00 L 1053.00 1269.00 L 1051.00 1275.00 L 1056.00 1292.00 L 1068.00 1320.00 L 1097.00 1375.00 L 1143.00 1457.00 L 1175.00 1527.00 L 1193.00 1585.00 L 1206.00 1643.00 L 1214.00 1701.00 L 1216.00 1739.00 L 1212.00 1757.00 L 1203.00 1779.00 L 1189.00 1805.00 L 1174.00 1825.00 L 1158.00 1839.00 L 1142.00 1847.00 L 1126.00 1849.00 L 1094.00 1839.00 L 1046.00 1817.00 L 1007.00 1795.00 L 977.00 1773.00 L 919.00 1740.00 L 833.00 1696.00 L 759.00 1662.00 L 697.00 1638.00 L 630.00 1615.00 L 558.00 1593.00 L 498.00 1577.00 L 450.00 1567.00 L 408.00 1560.00 L 372.00 1556.00 L 338.00 1555.00 L 306.00 1557.00 L 288.00 1553.00 L 284.00 1543.00 L 288.00 1512.00 L 300.00 1460.00 L 316.00 1402.00 L 336.00 1338.00 L 357.00 1282.00 L 379.00 1234.00 L 391.00 1203.00 L 393.00 1189.00 L 400.00 1173.00 L 412.00 1155.00 L 418.00 1132.00 L 418.00 1104.00 L 418.00 1087.00 L 418.00 1081.00 L 427.00 1044.00 Z" fill="black" stroke="black" stroke-width="1"/>
</svg>