<?xml version="1.0" encoding="UTF-8"?>
<svg xmlns="http://www.w3.org/2000/svg" viewBox="378.00 200.00 886.00 1555.00">
  <path d="M 510.00 1002.00 L 510.00 986.00 L 515.00 949.00 L 525.00 891.00 L 533.00 855.00 L 539.00 841.00 L 549.00 826.00 L 563.00 810.00 L 562.00 792.00 L 546.00 772.00 L 519.00 712.00 L 481.00 612.00 L 463.00 532.00 L 465.00 472.00 L 471.00 425.00 L 481.00 391.00 L 490.00 366.00 L 498.00 350.00 L 513.00 330.00 L 535.00 306.00 L 559.00 283.00 L 585.00 261.00 L 601.00 250.00 L 607.00 250.00 L 614.00 247.00 L 622.00 241.00 L 634.00 236.00 L 650.00 232.00 L 665.00 230.00 L 679.00 230.00 L 686.00 228.00 L 686.00 224.00 L 694.00 220.00 L 710.00 216.00 L 724.00 214.00 L 736.00 214.00 L 743.00 215.00 L 745.00 217.00 L 754.00 216.00 L 770.00 212.00 L 791.00 210.00 L 817.00 210.00 L 843.00 214.00 L 869.00 222.00 L 889.00 226.00 L 903.00 226.00 L 918.00 228.00 L 934.00 232.00 L 953.00 239.00 L 975.00 249.00 L 1003.00 267.00 L 1037.00 293.00 L 1060.00 313.00 L 1072.00 327.00 L 1090.00 354.00 L 1114.00 394.00 L 1125.00 424.00 L 1123.00 444.00 L 1123.00 452.00 L 1125.00 448.00 L 1124.00 451.00 L 1120.00 461.00 L 1122.00 476.00 L 1130.00 496.00 L 1135.00 515.00 L 1137.00 533.00 L 1136.00 553.00 L 1132.00 575.00 L 1133.00 592.00 L 1139.00 604.00 L 1149.00 620.00 L 1163.00 640.00 L 1177.00 657.00 L 1191.00 671.00 L 1199.00 681.00 L 1201.00 687.00 L 1189.00 703.00 L 1163.00 729.00 L 1164.00 730.00 L 1192.00 706.00 L 1192.00 708.00 L 1164.00 736.00 L 1164.00 739.00 L 1192.00 717.00 L 1192.00 720.00 L 1164.00 748.00 L 1153.00 771.00 L 1159.00 789.00 L 1159.00 803.00 L 1153.00 813.00 L 1152.00 824.00 L 1156.00 836.00 L 1153.00 854.00 L 1143.00 878.00 L 1141.00 898.00 L 1147.00 914.00 L 1150.00 929.00 L 1150.00 943.00 L 1148.00 954.00 L 1144.00 962.00 L 1139.00 970.00 L 1133.00 978.00 L 1123.00 986.00 L 1109.00 994.00 L 1104.00 998.00 L 1108.00 998.00 L 1097.00 1002.00 L 1071.00 1010.00 L 1060.00 1014.00 L 1064.00 1014.00 L 1058.00 1015.00 L 1042.00 1017.00 L 1042.00 1022.00 L 1058.00 1030.00 L 1065.00 1040.00 L 1063.00 1052.00 L 1058.00 1063.00 L 1050.00 1073.00 L 1044.00 1084.00 L 1040.00 1096.00 L 1047.00 1110.00 L 1065.00 1126.00 L 1064.00 1129.00 L 1044.00 1119.00 L 1046.00 1121.00 L 1070.00 1135.00 L 1067.00 1135.00 L 1037.00 1121.00 L 1037.00 1123.00 L 1067.00 1141.00 L 1069.00 1143.00 L 1043.00 1129.00 L 1031.00 1124.00 L 1033.00 1128.00 L 1045.00 1138.00 L 1067.00 1154.00 L 1065.00 1155.00 L 1039.00 1141.00 L 1062.00 1162.00 L 1134.00 1218.00 L 1143.00 1227.00 L 1089.00 1189.00 L 1084.00 1186.00 L 1128.00 1218.00 L 1131.00 1222.00 L 1093.00 1198.00 L 1096.00 1203.00 L 1140.00 1237.00 L 1134.00 1234.00 L 1078.00 1194.00 L 1076.00 1195.00 L 1128.00 1237.00 L 1140.00 1258.00 L 1112.00 1258.00 L 1093.00 1255.00 L 1083.00 1249.00 L 1085.00 1259.00 L 1099.00 1285.00 L 1118.00 1312.00 L 1142.00 1340.00 L 1143.00 1342.00 L 1121.00 1318.00 L 1124.00 1322.00 L 1152.00 1354.00 L 1164.00 1368.00 L 1160.00 1364.00 L 1165.00 1372.00 L 1179.00 1392.00 L 1184.00 1400.00 L 1180.00 1396.00 L 1189.00 1416.00 L 1211.00 1460.00 L 1230.00 1512.00 L 1246.00 1572.00 L 1254.00 1622.00 L 1254.00 1662.00 L 1250.00 1691.00 L 1242.00 1709.00 L 1228.00 1724.00 L 1208.00 1736.00 L 1193.00 1743.00 L 1183.00 1745.00 L 1168.00 1745.00 L 1148.00 1743.00 L 1108.00 1729.00 L 1048.00 1703.00 L 1001.00 1680.00 L 967.00 1660.00 L 902.00 1633.00 L 806.00 1599.00 L 722.00 1573.00 L 650.00 1555.00 L 604.00 1545.00 L 584.00 1543.00 L 565.00 1539.00 L 547.00 1533.00 L 513.00 1530.00 L 463.00 1530.00 L 436.00 1529.00 L 432.00 1527.00 L 421.00 1527.00 L 403.00 1529.00 L 392.00 1529.00 L 388.00 1527.00 L 390.00 1498.00 L 398.00 1442.00 L 409.00 1392.00 L 423.00 1348.00 L 441.00 1300.00 L 463.00 1248.00 L 475.00 1213.00 L 477.00 1195.00 L 485.00 1174.00 L 499.00 1150.00 L 505.00 1135.00 L 503.00 1129.00 L 503.00 1119.00 L 505.00 1105.00 L 509.00 1090.00 L 515.00 1074.00 L 515.00 1054.00 L 509.00 1030.00 L 507.00 1016.00 L 509.00 1012.00 L 510.00 1002.00 Z" fill="black" stroke="black" stroke-width="1"/>
</svg>