<?xml version="1.0" encoding="UTF-8"?>
<svg xmlns="http://www.w3.org/2000/svg" viewBox="356.00 331.00 867.00 1534.00">
  <path d="M 554.00 1040.00 L 554.00 996.00 L 546.00 955.00 L 530.00 917.00 L 498.00 881.00 L 450.00 847.00 L 449.00 845.00 L 495.00 875.00 L 492.00 872.00 L 440.00 836.00 L 407.00 806.00 L 393.00 782.00 L 381.00 753.00 L 371.00 719.00 L 366.00 690.00 L 366.00 666.00 L 371.00 636.00 L 381.00 600.00 L 394.00 566.00 L 410.00 534.00 L 426.00 508.00 L 442.00 488.00 L 461.00 451.00 L 483.00 397.00 L 497.00 370.00 L 503.00 370.00 L 510.00 376.00 L 518.00 388.00 L 521.00 391.00 L 519.00 385.00 L 521.00 383.00 L 527.00 385.00 L 537.00 377.00 L 551.00 359.00 L 567.00 347.00 L 585.00 341.00 L 598.00 344.00 L 606.00 356.00 L 609.00 358.00 L 607.00 350.00 L 608.00 352.00 L 612.00 364.00 L 614.00 366.00 L 614.00 358.00 L 616.00 357.00 L 620.00 363.00 L 625.00 366.00 L 631.00 366.00 L 645.00 363.00 L 667.00 357.00 L 697.00 353.00 L 735.00 351.00 L 794.00 359.00 L 874.00 377.00 L 941.00 404.00 L 995.00 440.00 L 1033.00 469.00 L 1055.00 491.00 L 1076.00 516.00 L 1096.00 544.00 L 1109.00 564.00 L 1115.00 576.00 L 1118.00 592.00 L 1118.00 612.00 L 1117.00 636.00 L 1115.00 664.00 L 1110.00 685.00 L 1102.00 699.00 L 1102.00 702.00 L 1110.00 694.00 L 1109.00 696.00 L 1099.00 708.00 L 1099.00 710.00 L 1109.00 702.00 L 1109.00 707.00 L 1099.00 725.00 L 1097.00 746.00 L 1103.00 770.00 L 1115.00 792.00 L 1133.00 812.00 L 1143.00 829.00 L 1145.00 843.00 L 1135.00 859.00 L 1113.00 877.00 L 1109.00 882.00 L 1123.00 874.00 L 1122.00 877.00 L 1106.00 891.00 L 1100.00 904.00 L 1104.00 916.00 L 1102.00 929.00 L 1094.00 943.00 L 1090.00 957.00 L 1090.00 971.00 L 1086.00 982.00 L 1078.00 990.00 L 1078.00 1004.00 L 1086.00 1024.00 L 1087.00 1043.00 L 1081.00 1061.00 L 1070.00 1075.00 L 1054.00 1085.00 L 1015.00 1095.00 L 953.00 1105.00 L 912.00 1129.00 L 892.00 1167.00 L 952.00 1276.00 L 1092.00 1456.00 L 1156.00 1539.00 L 1144.00 1525.00 L 1146.00 1529.00 L 1162.00 1551.00 L 1153.00 1541.00 L 1119.00 1499.00 L 1122.00 1504.00 L 1162.00 1556.00 L 1157.00 1550.00 L 1107.00 1486.00 L 1108.00 1488.00 L 1160.00 1556.00 L 1158.00 1554.00 L 1102.00 1482.00 L 1103.00 1484.00 L 1161.00 1560.00 L 1157.00 1555.00 L 1091.00 1469.00 L 1092.00 1471.00 L 1160.00 1561.00 L 1158.00 1559.00 L 1086.00 1465.00 L 1087.00 1468.00 L 1161.00 1568.00 L 1158.00 1565.00 L 1078.00 1459.00 L 1080.00 1462.00 L 1164.00 1574.00 L 1163.00 1573.00 L 1077.00 1459.00 L 1078.00 1462.00 L 1166.00 1582.00 L 1163.00 1579.00 L 1069.00 1453.00 L 1070.00 1455.00 L 1166.00 1585.00 L 1164.00 1583.00 L 1064.00 1449.00 L 1065.00 1454.00 L 1167.00 1598.00 L 1133.00 1552.00 L 963.00 1316.00 L 963.00 1318.00 L 1133.00 1558.00 L 1162.00 1600.00 L 1050.00 1444.00 L 1050.00 1446.00 L 1162.00 1606.00 L 1160.00 1604.00 L 1044.00 1440.00 L 1044.00 1442.00 L 1160.00 1610.00 L 1158.00 1608.00 L 1038.00 1436.00 L 1038.00 1438.00 L 1158.00 1614.00 L 1156.00 1612.00 L 1032.00 1432.00 L 1032.00 1437.00 L 1156.00 1627.00 L 1133.00 1594.00 L 963.00 1338.00 L 962.00 1341.00 L 1130.00 1603.00 L 1213.00 1738.00 L 1211.00 1746.00 L 1127.00 1617.00 L 961.00 1351.00 L 960.00 1353.00 L 1124.00 1623.00 L 1137.00 1645.00 L 999.00 1419.00 L 998.00 1421.00 L 1134.00 1651.00 L 1121.00 1631.00 L 959.00 1361.00 L 958.00 1364.00 L 1118.00 1640.00 L 1126.00 1655.00 L 982.00 1409.00 L 981.00 1411.00 L 1123.00 1661.00 L 1121.00 1658.00 L 975.00 1402.00 L 974.00 1403.00 L 1118.00 1661.00 L 1112.00 1652.00 L 956.00 1376.00 L 954.00 1379.00 L 1106.00 1661.00 L 1108.00 1666.00 L 960.00 1394.00 L 958.00 1396.00 L 1102.00 1672.00 L 1172.00 1812.00 L 1168.00 1816.00 L 1094.00 1676.00 L 950.00 1392.00 L 949.00 1393.00 L 1091.00 1679.00 L 1159.00 1825.00 L 1153.00 1831.00 L 1137.00 1841.00 L 1111.00 1855.00 L 1066.00 1836.00 L 1002.00 1784.00 L 917.00 1723.00 L 811.00 1653.00 L 716.00 1596.00 L 632.00 1552.00 L 538.00 1512.00 L 434.00 1476.00 L 382.00 1455.00 L 382.00 1449.00 L 398.00 1421.00 L 430.00 1371.00 L 462.00 1309.00 L 494.00 1235.00 L 518.00 1184.00 L 534.00 1156.00 L 545.00 1125.00 L 551.00 1091.00 L 554.00 1071.00 L 554.00 1065.00 L 554.00 1040.00 Z" fill="black" stroke="black" stroke-width="1"/>
</svg>