<?xml version="1.0" encoding="UTF-8"?>
<svg xmlns="http://www.w3.org/2000/svg" viewBox="346.00 303.00 876.00 1449.00">
  <path d="M 546.00 943.00 L 442.00 865.00 L 381.00 807.00 L 363.00 769.00 L 356.00 703.00 L 360.00 609.00 L 376.00 542.00 L 404.00 502.00 L 423.00 458.00 L 433.00 410.00 L 451.00 391.00 L 477.00 401.00 L 528.00 385.00 L 604.00 343.00 L 683.00 319.00 L 765.00 313.00 L 853.00 322.00 L 947.00 346.00 L 1024.00 378.00 L 1084.00 418.00 L 1126.00 453.00 L 1150.00 483.00 L 1159.00 506.00 L 1153.00 522.00 L 1155.00 525.00 L 1165.00 515.00 L 1166.00 520.00 L 1158.00 540.00 L 1160.00 543.00 L 1172.00 529.00 L 1173.00 532.00 L 1163.00 552.00 L 1165.00 554.00 L 1179.00 538.00 L 1180.00 540.00 L 1168.00 560.00 L 1169.00 562.00 L 1183.00 546.00 L 1183.00 550.00 L 1169.00 574.00 L 1170.00 577.00 L 1186.00 559.00 L 1187.00 562.00 L 1173.00 586.00 L 1174.00 591.00 L 1190.00 577.00 L 1190.00 580.00 L 1174.00 600.00 L 1174.00 603.00 L 1190.00 589.00 L 1190.00 592.00 L 1174.00 612.00 L 1174.00 614.00 L 1190.00 598.00 L 1190.00 600.00 L 1174.00 620.00 L 1174.00 622.00 L 1190.00 606.00 L 1190.00 609.00 L 1174.00 631.00 L 1174.00 633.00 L 1190.00 615.00 L 1190.00 617.00 L 1174.00 639.00 L 1173.00 643.00 L 1187.00 629.00 L 1187.00 631.00 L 1173.00 649.00 L 1171.00 653.00 L 1181.00 643.00 L 1178.00 666.00 L 1162.00 722.00 L 1171.00 775.00 L 1205.00 825.00 L 1212.00 860.00 L 1192.00 880.00 L 1180.00 898.00 L 1176.00 914.00 L 1180.00 924.00 L 1192.00 928.00 L 1182.00 972.00 L 1150.00 1056.00 L 1114.00 1100.00 L 1074.00 1104.00 L 1032.00 1102.00 L 988.00 1094.00 L 961.00 1093.00 L 951.00 1099.00 L 1008.00 1207.00 L 1132.00 1417.00 L 1131.00 1420.00 L 1005.00 1216.00 L 1006.00 1219.00 L 1134.00 1429.00 L 1189.00 1520.00 L 1171.00 1492.00 L 1173.00 1496.00 L 1195.00 1532.00 L 1193.00 1529.00 L 1167.00 1487.00 L 1168.00 1489.00 L 1196.00 1535.00 L 1195.00 1534.00 L 1165.00 1486.00 L 1167.00 1492.00 L 1201.00 1552.00 L 1198.00 1549.00 L 1158.00 1483.00 L 1159.00 1486.00 L 1201.00 1558.00 L 1198.00 1554.00 L 1150.00 1474.00 L 1150.00 1476.00 L 1198.00 1560.00 L 1196.00 1558.00 L 1144.00 1470.00 L 1145.00 1473.00 L 1199.00 1567.00 L 1197.00 1565.00 L 1139.00 1467.00 L 1139.00 1469.00 L 1197.00 1571.00 L 1195.00 1569.00 L 1133.00 1463.00 L 1133.00 1465.00 L 1195.00 1575.00 L 1193.00 1572.00 L 1127.00 1456.00 L 1127.00 1458.00 L 1193.00 1578.00 L 1187.00 1570.00 L 1109.00 1434.00 L 1108.00 1436.00 L 1184.00 1576.00 L 1151.00 1516.00 L 1009.00 1256.00 L 1009.00 1259.00 L 1151.00 1525.00 L 1177.00 1576.00 L 1087.00 1412.00 L 1086.00 1415.00 L 1174.00 1585.00 L 1173.00 1584.00 L 1083.00 1412.00 L 1082.00 1416.00 L 1170.00 1596.00 L 1145.00 1549.00 L 1007.00 1275.00 L 1006.00 1278.00 L 1142.00 1558.00 L 1161.00 1598.00 L 1063.00 1398.00 L 1062.00 1401.00 L 1158.00 1607.00 L 1156.00 1605.00 L 1056.00 1395.00 L 1055.00 1398.00 L 1153.00 1614.00 L 1136.00 1579.00 L 1004.00 1293.00 L 1001.00 1298.00 L 1127.00 1594.00 L 1127.00 1597.00 L 1001.00 1307.00 L 998.00 1311.00 L 1118.00 1609.00 L 1118.00 1612.00 L 998.00 1320.00 L 995.00 1321.00 L 1109.00 1615.00 L 1110.00 1621.00 L 998.00 1339.00 L 995.00 1340.00 L 1101.00 1624.00 L 1102.00 1629.00 L 998.00 1355.00 L 994.00 1353.00 L 1090.00 1623.00 L 1089.00 1621.00 L 991.00 1347.00 L 988.00 1344.00 L 1080.00 1612.00 L 1121.00 1742.00 L 1111.00 1734.00 L 1065.00 1606.00 L 983.00 1358.00 L 981.00 1357.00 L 1059.00 1603.00 L 1093.00 1722.00 L 1083.00 1714.00 L 1043.00 1593.00 L 973.00 1359.00 L 971.00 1358.00 L 1037.00 1590.00 L 1019.00 1674.00 L 917.00 1610.00 L 828.00 1563.00 L 752.00 1533.00 L 675.00 1510.00 L 597.00 1494.00 L 560.00 1481.00 L 564.00 1471.00 L 562.00 1469.00 L 554.00 1475.00 L 550.00 1460.00 L 550.00 1424.00 L 566.00 1328.00 L 598.00 1172.00 L 614.00 1069.00 L 614.00 1019.00 L 610.00 991.00 L 602.00 985.00 L 546.00 943.00 Z" fill="black" stroke="black" stroke-width="1"/>
</svg>