<?xml version="1.0" encoding="UTF-8"?>
<svg xmlns="http://www.w3.org/2000/svg" viewBox="344.00 206.00 848.00 1490.00">
  <path d="M 550.00 913.00 L 550.00 895.00 L 511.00 836.00 L 433.00 736.00 L 388.00 674.00 L 376.00 650.00 L 366.00 622.00 L 358.00 590.00 L 354.00 559.00 L 354.00 529.00 L 362.00 482.00 L 378.00 418.00 L 394.00 371.00 L 410.00 341.00 L 430.00 313.00 L 454.00 287.00 L 495.00 261.00 L 553.00 235.00 L 624.00 220.00 L 708.00 216.00 L 779.00 223.00 L 837.00 241.00 L 890.00 265.00 L 938.00 295.00 L 971.00 319.00 L 989.00 337.00 L 1006.00 362.00 L 1022.00 394.00 L 1029.00 417.00 L 1027.00 431.00 L 1029.00 433.00 L 1035.00 423.00 L 1035.00 426.00 L 1029.00 442.00 L 1031.00 444.00 L 1041.00 432.00 L 1042.00 435.00 L 1034.00 453.00 L 1035.00 455.00 L 1045.00 441.00 L 1046.00 445.00 L 1038.00 467.00 L 1039.00 469.00 L 1049.00 451.00 L 1050.00 450.00 L 1042.00 466.00 L 1042.00 469.00 L 1050.00 459.00 L 1050.00 463.00 L 1042.00 481.00 L 1042.00 484.00 L 1050.00 472.00 L 1051.00 475.00 L 1045.00 493.00 L 1045.00 497.00 L 1051.00 487.00 L 1053.00 491.00 L 1051.00 509.00 L 1054.00 515.00 L 1062.00 509.00 L 1063.00 512.00 L 1057.00 524.00 L 1058.00 525.00 L 1066.00 515.00 L 1066.00 518.00 L 1058.00 534.00 L 1059.00 536.00 L 1069.00 524.00 L 1070.00 527.00 L 1062.00 545.00 L 1058.00 568.00 L 1058.00 596.00 L 1079.00 641.00 L 1121.00 703.00 L 1142.00 737.00 L 1142.00 743.00 L 1127.00 755.00 L 1097.00 773.00 L 1095.00 776.00 L 1121.00 764.00 L 1120.00 765.00 L 1092.00 779.00 L 1089.00 781.00 L 1111.00 771.00 L 1110.00 774.00 L 1086.00 790.00 L 1070.00 817.00 L 1062.00 855.00 L 1053.00 879.00 L 1043.00 889.00 L 1041.00 904.00 L 1047.00 924.00 L 1046.00 943.00 L 1038.00 961.00 L 1003.00 980.00 L 941.00 1000.00 L 901.00 1018.00 L 883.00 1034.00 L 948.00 1144.00 L 1096.00 1348.00 L 1158.00 1434.00 L 1134.00 1402.00 L 1135.00 1404.00 L 1161.00 1440.00 L 1157.00 1436.00 L 1123.00 1392.00 L 1124.00 1395.00 L 1160.00 1445.00 L 1158.00 1443.00 L 1118.00 1389.00 L 1119.00 1392.00 L 1161.00 1452.00 L 1157.00 1447.00 L 1107.00 1377.00 L 1108.00 1380.00 L 1160.00 1456.00 L 1157.00 1453.00 L 1099.00 1371.00 L 1100.00 1373.00 L 1160.00 1459.00 L 1158.00 1457.00 L 1094.00 1367.00 L 1094.00 1370.00 L 1158.00 1466.00 L 1152.00 1460.00 L 1076.00 1352.00 L 1076.00 1355.00 L 1152.00 1469.00 L 1110.00 1407.00 L 950.00 1169.00 L 950.00 1172.00 L 1110.00 1416.00 L 1147.00 1473.00 L 1061.00 1343.00 L 1061.00 1345.00 L 1147.00 1479.00 L 1144.00 1476.00 L 1052.00 1336.00 L 1052.00 1339.00 L 1144.00 1485.00 L 1140.00 1481.00 L 1040.00 1327.00 L 1040.00 1331.00 L 1140.00 1493.00 L 1137.00 1490.00 L 1031.00 1322.00 L 1030.00 1325.00 L 1134.00 1499.00 L 1106.00 1454.00 L 946.00 1190.00 L 945.00 1192.00 L 1103.00 1460.00 L 1182.00 1596.00 L 1182.00 1600.00 L 1125.00 1506.00 L 1011.00 1314.00 L 1010.00 1316.00 L 1122.00 1512.00 L 1121.00 1511.00 L 1007.00 1313.00 L 1006.00 1316.00 L 1118.00 1520.00 L 1116.00 1518.00 L 1000.00 1310.00 L 999.00 1312.00 L 1113.00 1524.00 L 1109.00 1520.00 L 987.00 1300.00 L 985.00 1302.00 L 1103.00 1526.00 L 1087.00 1496.00 L 937.00 1212.00 L 935.00 1214.00 L 1081.00 1502.00 L 1094.00 1529.00 L 974.00 1295.00 L 972.00 1297.00 L 1088.00 1535.00 L 1086.00 1533.00 L 966.00 1291.00 L 964.00 1293.00 L 1080.00 1539.00 L 1078.00 1537.00 L 958.00 1287.00 L 956.00 1288.00 L 1072.00 1540.00 L 1071.00 1539.00 L 953.00 1285.00 L 952.00 1286.00 L 1068.00 1542.00 L 1059.00 1523.00 L 925.00 1229.00 L 922.00 1230.00 L 1050.00 1526.00 L 1112.00 1675.00 L 1108.00 1677.00 L 1044.00 1532.00 L 920.00 1240.00 L 919.00 1241.00 L 1041.00 1535.00 L 1045.00 1546.00 L 931.00 1274.00 L 929.00 1275.00 L 1039.00 1549.00 L 1092.00 1686.00 L 1088.00 1686.00 L 1028.00 1540.00 L 912.00 1248.00 L 909.00 1249.00 L 1019.00 1543.00 L 1019.00 1545.00 L 909.00 1255.00 L 905.00 1253.00 L 1007.00 1539.00 L 1014.00 1652.00 L 926.00 1592.00 L 835.00 1535.00 L 741.00 1481.00 L 616.00 1423.00 L 460.00 1361.00 L 408.00 1259.00 L 460.00 1117.00 L 493.00 1037.00 L 507.00 1019.00 L 516.00 1000.00 L 520.00 980.00 L 528.00 966.00 L 540.00 958.00 L 547.00 948.00 L 549.00 936.00 L 550.00 928.00 L 550.00 924.00 L 550.00 913.00 Z" fill="black" stroke="black" stroke-width="1"/>
</svg>