<?xml version="1.0" encoding="UTF-8"?>
<svg xmlns="http://www.w3.org/2000/svg" viewBox="277.00 244.00 874.00 1544.00">
  <path d="M 388.00 980.00 L 400.00 912.00 L 414.00 861.00 L 430.00 827.00 L 425.00 775.00 L 399.00 705.00 L 383.00 643.00 L 377.00 589.00 L 378.00 541.00 L 386.00 499.00 L 395.00 464.00 L 405.00 436.00 L 418.00 408.00 L 434.00 380.00 L 470.00 344.00 L 526.00 300.00 L 566.00 274.00 L 590.00 266.00 L 616.00 262.00 L 644.00 262.00 L 665.00 260.00 L 679.00 256.00 L 701.00 254.00 L 731.00 254.00 L 774.00 261.00 L 830.00 275.00 L 885.00 300.00 L 939.00 336.00 L 969.00 357.00 L 975.00 363.00 L 978.00 372.00 L 978.00 384.00 L 980.00 386.00 L 984.00 378.00 L 986.00 383.00 L 986.00 401.00 L 989.00 404.00 L 995.00 392.00 L 997.00 394.00 L 995.00 410.00 L 998.00 413.00 L 1006.00 403.00 L 1007.00 406.00 L 1001.00 422.00 L 1002.00 423.00 L 1010.00 409.00 L 1012.00 411.00 L 1008.00 429.00 L 1009.00 431.00 L 1015.00 417.00 L 1016.00 415.00 L 1012.00 425.00 L 1013.00 427.00 L 1019.00 421.00 L 1019.00 426.00 L 1013.00 442.00 L 1014.00 444.00 L 1022.00 432.00 L 1023.00 434.00 L 1017.00 450.00 L 1018.00 453.00 L 1026.00 443.00 L 1027.00 445.00 L 1021.00 459.00 L 1020.00 465.00 L 1024.00 463.00 L 1025.00 465.00 L 1023.00 471.00 L 1025.00 468.00 L 1031.00 456.00 L 1031.00 458.00 L 1025.00 474.00 L 1025.00 476.00 L 1031.00 464.00 L 1032.00 467.00 L 1028.00 485.00 L 1029.00 509.00 L 1035.00 539.00 L 1037.00 562.00 L 1035.00 578.00 L 1038.00 593.00 L 1046.00 607.00 L 1072.00 639.00 L 1116.00 689.00 L 1139.00 719.00 L 1141.00 729.00 L 1131.00 744.00 L 1109.00 764.00 L 1107.00 768.00 L 1125.00 756.00 L 1122.00 759.00 L 1098.00 777.00 L 1092.00 782.00 L 1104.00 774.00 L 1103.00 777.00 L 1089.00 791.00 L 1084.00 803.00 L 1088.00 813.00 L 1087.00 824.00 L 1081.00 836.00 L 1080.00 849.00 L 1084.00 863.00 L 1080.00 881.00 L 1068.00 903.00 L 1062.00 924.00 L 1062.00 944.00 L 1048.00 979.00 L 1020.00 1029.00 L 1009.00 1057.00 L 1015.00 1063.00 L 1012.00 1065.00 L 1000.00 1063.00 L 1003.00 1066.00 L 1021.00 1074.00 L 1020.00 1077.00 L 1000.00 1075.00 L 1000.00 1077.00 L 1020.00 1083.00 L 1019.00 1084.00 L 997.00 1080.00 L 996.00 1082.00 L 1016.00 1090.00 L 1020.00 1097.00 L 1008.00 1103.00 L 1007.00 1109.00 L 1017.00 1115.00 L 1016.00 1116.00 L 1004.00 1112.00 L 1006.00 1114.00 L 1022.00 1122.00 L 1033.00 1133.00 L 1039.00 1147.00 L 1048.00 1159.00 L 1060.00 1169.00 L 1062.00 1172.00 L 1054.00 1168.00 L 1058.00 1172.00 L 1074.00 1184.00 L 1076.00 1187.00 L 1064.00 1181.00 L 1064.00 1182.00 L 1076.00 1190.00 L 1079.00 1194.00 L 1073.00 1194.00 L 1071.00 1195.00 L 1073.00 1197.00 L 1062.00 1192.00 L 1038.00 1180.00 L 1034.00 1179.00 L 1050.00 1189.00 L 1047.00 1188.00 L 1025.00 1176.00 L 1024.00 1176.00 L 1044.00 1188.00 L 1044.00 1191.00 L 1024.00 1185.00 L 1019.00 1193.00 L 1029.00 1215.00 L 1035.00 1239.00 L 1037.00 1265.00 L 1048.00 1303.00 L 1068.00 1353.00 L 1088.00 1423.00 L 1108.00 1513.00 L 1118.00 1594.00 L 1118.00 1666.00 L 1114.00 1711.00 L 1106.00 1729.00 L 1095.00 1745.00 L 1081.00 1759.00 L 1067.00 1769.00 L 1053.00 1775.00 L 1040.00 1778.00 L 1028.00 1778.00 L 1008.00 1774.00 L 980.00 1766.00 L 932.00 1738.00 L 864.00 1690.00 L 809.00 1656.00 L 767.00 1636.00 L 708.00 1612.00 L 632.00 1584.00 L 548.00 1561.00 L 456.00 1543.00 L 408.00 1532.00 L 404.00 1528.00 L 397.00 1527.00 L 387.00 1529.00 L 378.00 1528.00 L 370.00 1524.00 L 364.00 1524.00 L 360.00 1528.00 L 353.00 1530.00 L 343.00 1530.00 L 324.00 1528.00 L 296.00 1524.00 L 287.00 1484.00 L 297.00 1408.00 L 313.00 1339.00 L 335.00 1277.00 L 347.00 1234.00 L 349.00 1210.00 L 360.00 1169.00 L 380.00 1111.00 L 388.00 1068.00 L 384.00 1040.00 L 382.00 1023.00 L 382.00 1017.00 L 388.00 980.00 Z" fill="black" stroke="black" stroke-width="1"/>
</svg>