<?xml version="1.0" encoding="UTF-8"?>
<svg xmlns="http://www.w3.org/2000/svg" viewBox="389.00 257.00 862.00 1606.00">
  <path d="M 455.00 1048.00 L 441.00 1044.00 L 443.00 1042.00 L 461.00 1042.00 L 459.00 1041.00 L 437.00 1039.00 L 434.00 1037.00 L 450.00 1035.00 L 449.00 1033.00 L 431.00 1031.00 L 435.00 1031.00 L 461.00 1033.00 L 472.00 1033.00 L 468.00 1031.00 L 470.00 1030.00 L 478.00 1030.00 L 468.00 1027.00 L 440.00 1021.00 L 428.00 1015.00 L 432.00 1009.00 L 448.00 1006.00 L 476.00 1006.00 L 479.00 1004.00 L 457.00 1000.00 L 455.00 999.00 L 473.00 1001.00 L 476.00 1000.00 L 464.00 996.00 L 466.00 994.00 L 482.00 994.00 L 490.00 980.00 L 490.00 952.00 L 487.00 914.00 L 481.00 866.00 L 466.00 800.00 L 442.00 716.00 L 429.00 654.00 L 427.00 614.00 L 434.00 562.00 L 450.00 498.00 L 469.00 448.00 L 491.00 412.00 L 521.00 374.00 L 559.00 334.00 L 590.00 308.00 L 614.00 296.00 L 650.00 284.00 L 698.00 272.00 L 747.00 267.00 L 797.00 269.00 L 848.00 277.00 L 900.00 291.00 L 940.00 304.00 L 968.00 316.00 L 982.00 328.00 L 982.00 340.00 L 985.00 342.00 L 991.00 334.00 L 993.00 334.00 L 991.00 342.00 L 993.00 343.00 L 999.00 337.00 L 1001.00 340.00 L 999.00 352.00 L 1001.00 353.00 L 1007.00 343.00 L 1010.00 345.00 L 1010.00 359.00 L 1012.00 362.00 L 1016.00 354.00 L 1019.00 356.00 L 1021.00 368.00 L 1033.00 384.00 L 1055.00 404.00 L 1077.00 435.00 L 1099.00 477.00 L 1114.00 509.00 L 1122.00 531.00 L 1128.00 557.00 L 1132.00 587.00 L 1137.00 607.00 L 1143.00 617.00 L 1159.00 633.00 L 1185.00 655.00 L 1209.00 685.00 L 1231.00 723.00 L 1241.00 745.00 L 1239.00 751.00 L 1224.00 764.00 L 1196.00 784.00 L 1194.00 787.00 L 1218.00 773.00 L 1217.00 775.00 L 1191.00 793.00 L 1188.00 796.00 L 1208.00 784.00 L 1207.00 786.00 L 1185.00 802.00 L 1172.00 816.00 L 1168.00 828.00 L 1164.00 844.00 L 1160.00 864.00 L 1161.00 881.00 L 1167.00 895.00 L 1167.00 913.00 L 1161.00 935.00 L 1161.00 953.00 L 1167.00 967.00 L 1170.00 984.00 L 1170.00 1004.00 L 1161.00 1023.00 L 1143.00 1041.00 L 1122.00 1055.00 L 1098.00 1065.00 L 1092.00 1072.00 L 1104.00 1076.00 L 1110.00 1081.00 L 1110.00 1087.00 L 1100.00 1102.00 L 1080.00 1126.00 L 1062.00 1152.00 L 1046.00 1180.00 L 1043.00 1215.00 L 1053.00 1257.00 L 1056.00 1291.00 L 1052.00 1317.00 L 1077.00 1380.00 L 1131.00 1480.00 L 1172.00 1569.00 L 1200.00 1647.00 L 1216.00 1709.00 L 1220.00 1755.00 L 1220.00 1789.00 L 1216.00 1811.00 L 1210.00 1828.00 L 1202.00 1840.00 L 1192.00 1848.00 L 1180.00 1852.00 L 1162.00 1853.00 L 1138.00 1851.00 L 1079.00 1821.00 L 985.00 1763.00 L 890.00 1714.00 L 794.00 1674.00 L 745.00 1652.00 L 743.00 1648.00 L 740.00 1647.00 L 736.00 1649.00 L 732.00 1647.00 L 728.00 1641.00 L 720.00 1638.00 L 708.00 1638.00 L 668.00 1627.00 L 600.00 1605.00 L 547.00 1590.00 L 509.00 1582.00 L 468.00 1576.00 L 424.00 1572.00 L 401.00 1567.00 L 399.00 1561.00 L 401.00 1543.00 L 407.00 1513.00 L 420.00 1469.00 L 440.00 1411.00 L 446.00 1384.00 L 438.00 1388.00 L 427.00 1388.00 L 413.00 1384.00 L 406.00 1371.00 L 406.00 1349.00 L 416.00 1315.00 L 436.00 1269.00 L 452.00 1240.00 L 464.00 1228.00 L 471.00 1214.00 L 473.00 1198.00 L 478.00 1181.00 L 486.00 1163.00 L 485.00 1153.00 L 475.00 1151.00 L 475.00 1148.00 L 485.00 1144.00 L 483.00 1143.00 L 469.00 1145.00 L 469.00 1143.00 L 483.00 1137.00 L 482.00 1135.00 L 466.00 1137.00 L 467.00 1135.00 L 485.00 1129.00 L 483.00 1128.00 L 461.00 1132.00 L 457.00 1132.00 L 471.00 1128.00 L 479.00 1124.00 L 481.00 1120.00 L 474.00 1119.00 L 458.00 1121.00 L 461.00 1120.00 L 483.00 1116.00 L 491.00 1113.00 L 485.00 1111.00 L 485.00 1109.00 L 491.00 1107.00 L 484.00 1107.00 L 464.00 1109.00 L 465.00 1106.00 L 487.00 1098.00 L 488.00 1095.00 L 468.00 1097.00 L 468.00 1095.00 L 488.00 1089.00 L 488.00 1086.00 L 468.00 1086.00 L 469.00 1084.00 L 491.00 1080.00 L 491.00 1077.00 L 469.00 1075.00 L 469.00 1073.00 L 491.00 1071.00 L 498.00 1070.00 L 490.00 1070.00 L 488.00 1068.00 L 492.00 1064.00 L 485.00 1062.00 L 467.00 1062.00 L 459.00 1059.00 L 461.00 1053.00 L 455.00 1048.00 Z" fill="black" stroke="black" stroke-width="1"/>
</svg>