<?xml version="1.0" encoding="UTF-8"?>
<svg xmlns="http://www.w3.org/2000/svg" viewBox="365.00 220.00 902.00 1666.00">
  <path d="M 507.00 999.00 L 517.00 945.00 L 527.00 907.00 L 537.00 885.00 L 534.00 868.00 L 518.00 856.00 L 484.00 806.00 L 432.00 718.00 L 401.00 662.00 L 391.00 638.00 L 384.00 615.00 L 380.00 593.00 L 377.00 573.00 L 375.00 555.00 L 376.00 534.00 L 380.00 510.00 L 392.00 476.00 L 412.00 432.00 L 446.00 385.00 L 494.00 335.00 L 537.00 299.00 L 575.00 277.00 L 613.00 259.00 L 651.00 245.00 L 685.00 239.00 L 715.00 241.00 L 754.00 238.00 L 802.00 230.00 L 847.00 235.00 L 889.00 253.00 L 919.00 262.00 L 937.00 262.00 L 955.00 265.00 L 973.00 271.00 L 994.00 286.00 L 1018.00 310.00 L 1037.00 325.00 L 1051.00 331.00 L 1067.00 342.00 L 1085.00 358.00 L 1101.00 376.00 L 1115.00 396.00 L 1121.00 412.00 L 1119.00 424.00 L 1121.00 425.00 L 1127.00 415.00 L 1128.00 416.00 L 1124.00 428.00 L 1124.00 436.00 L 1128.00 440.00 L 1133.00 437.00 L 1139.00 427.00 L 1139.00 430.00 L 1133.00 446.00 L 1132.00 454.00 L 1136.00 454.00 L 1141.00 448.00 L 1147.00 436.00 L 1146.00 439.00 L 1138.00 457.00 L 1136.00 465.00 L 1140.00 463.00 L 1141.00 466.00 L 1139.00 474.00 L 1143.00 468.00 L 1153.00 448.00 L 1155.00 446.00 L 1149.00 462.00 L 1150.00 464.00 L 1158.00 452.00 L 1157.00 457.00 L 1147.00 479.00 L 1148.00 481.00 L 1160.00 463.00 L 1162.00 466.00 L 1154.00 490.00 L 1155.00 495.00 L 1165.00 481.00 L 1166.00 484.00 L 1158.00 504.00 L 1159.00 507.00 L 1169.00 493.00 L 1170.00 495.00 L 1162.00 513.00 L 1163.00 516.00 L 1173.00 504.00 L 1174.00 506.00 L 1166.00 522.00 L 1165.00 527.00 L 1171.00 521.00 L 1172.00 523.00 L 1168.00 533.00 L 1171.00 530.00 L 1181.00 514.00 L 1182.00 516.00 L 1174.00 536.00 L 1176.00 538.00 L 1188.00 522.00 L 1189.00 525.00 L 1179.00 547.00 L 1180.00 549.00 L 1192.00 531.00 L 1192.00 534.00 L 1180.00 558.00 L 1175.00 574.00 L 1177.00 582.00 L 1176.00 595.00 L 1172.00 613.00 L 1192.00 654.00 L 1236.00 718.00 L 1256.00 757.00 L 1252.00 771.00 L 1239.00 786.00 L 1217.00 802.00 L 1213.00 806.00 L 1227.00 798.00 L 1226.00 801.00 L 1210.00 815.00 L 1203.00 835.00 L 1205.00 861.00 L 1202.00 880.00 L 1194.00 892.00 L 1191.00 907.00 L 1193.00 925.00 L 1187.00 941.00 L 1173.00 955.00 L 1168.00 969.00 L 1172.00 983.00 L 1173.00 996.00 L 1171.00 1008.00 L 1167.00 1020.00 L 1161.00 1032.00 L 1147.00 1045.00 L 1125.00 1059.00 L 1116.00 1071.00 L 1120.00 1081.00 L 1121.00 1088.00 L 1119.00 1092.00 L 1112.00 1097.00 L 1100.00 1103.00 L 1092.00 1111.00 L 1088.00 1121.00 L 1080.00 1130.00 L 1068.00 1138.00 L 1073.00 1150.00 L 1095.00 1166.00 L 1093.00 1167.00 L 1067.00 1153.00 L 1067.00 1156.00 L 1093.00 1176.00 L 1103.00 1188.00 L 1097.00 1192.00 L 1085.00 1189.00 L 1067.00 1179.00 L 1064.00 1179.00 L 1076.00 1189.00 L 1073.00 1188.00 L 1055.00 1176.00 L 1050.00 1173.00 L 1058.00 1179.00 L 1067.00 1199.00 L 1077.00 1233.00 L 1093.00 1267.00 L 1115.00 1301.00 L 1125.00 1317.00 L 1123.00 1315.00 L 1138.00 1349.00 L 1170.00 1419.00 L 1185.00 1453.00 L 1183.00 1451.00 L 1192.00 1477.00 L 1212.00 1531.00 L 1228.00 1581.00 L 1240.00 1627.00 L 1249.00 1670.00 L 1255.00 1710.00 L 1257.00 1729.00 L 1255.00 1727.00 L 1254.00 1740.00 L 1254.00 1768.00 L 1250.00 1795.00 L 1242.00 1821.00 L 1229.00 1843.00 L 1211.00 1861.00 L 1191.00 1872.00 L 1169.00 1876.00 L 1135.00 1872.00 L 1089.00 1860.00 L 996.00 1812.00 L 856.00 1728.00 L 742.00 1666.00 L 654.00 1626.00 L 563.00 1595.00 L 469.00 1573.00 L 421.00 1560.00 L 419.00 1556.00 L 408.00 1554.00 L 388.00 1554.00 L 380.00 1535.00 L 384.00 1497.00 L 402.00 1438.00 L 434.00 1358.00 L 453.00 1302.00 L 459.00 1270.00 L 468.00 1242.00 L 480.00 1218.00 L 486.00 1197.00 L 486.00 1179.00 L 489.00 1164.00 L 495.00 1152.00 L 496.00 1139.00 L 492.00 1125.00 L 492.00 1098.00 L 496.00 1058.00 L 499.00 1035.00 L 501.00 1029.00 L 507.00 999.00 Z" fill="black" stroke="black" stroke-width="1"/>
</svg>