<?xml version="1.0" encoding="UTF-8"?>
<svg xmlns="http://www.w3.org/2000/svg" viewBox="281.00 192.00 931.00 1734.00">
  <path d="M 431.00 1046.00 L 441.00 1022.00 L 450.00 992.00 L 458.00 956.00 L 467.00 932.00 L 477.00 920.00 L 482.00 911.00 L 482.00 905.00 L 475.00 896.00 L 461.00 884.00 L 451.00 862.00 L 445.00 830.00 L 427.00 779.00 L 397.00 709.00 L 375.00 650.00 L 361.00 602.00 L 353.00 550.00 L 351.00 494.00 L 354.00 449.00 L 362.00 415.00 L 372.00 386.00 L 384.00 362.00 L 407.00 333.00 L 441.00 299.00 L 482.00 268.00 L 530.00 240.00 L 583.00 220.00 L 641.00 208.00 L 712.00 202.00 L 796.00 202.00 L 878.00 218.00 L 958.00 250.00 L 1030.00 301.00 L 1094.00 371.00 L 1130.00 416.00 L 1138.00 436.00 L 1139.00 452.00 L 1133.00 464.00 L 1131.00 471.00 L 1133.00 473.00 L 1137.00 470.00 L 1143.00 462.00 L 1143.00 464.00 L 1137.00 476.00 L 1138.00 478.00 L 1146.00 470.00 L 1146.00 473.00 L 1138.00 487.00 L 1139.00 488.00 L 1149.00 476.00 L 1150.00 480.00 L 1142.00 500.00 L 1143.00 503.00 L 1153.00 489.00 L 1153.00 492.00 L 1143.00 512.00 L 1144.00 515.00 L 1156.00 501.00 L 1156.00 504.00 L 1144.00 524.00 L 1144.00 527.00 L 1156.00 513.00 L 1159.00 511.00 L 1153.00 521.00 L 1153.00 523.00 L 1159.00 517.00 L 1157.00 522.00 L 1147.00 538.00 L 1146.00 541.00 L 1154.00 531.00 L 1154.00 534.00 L 1146.00 550.00 L 1146.00 553.00 L 1154.00 543.00 L 1154.00 550.00 L 1146.00 574.00 L 1147.00 579.00 L 1157.00 565.00 L 1157.00 568.00 L 1147.00 588.00 L 1148.00 591.00 L 1160.00 577.00 L 1156.00 586.00 L 1136.00 618.00 L 1125.00 640.00 L 1123.00 652.00 L 1142.00 692.00 L 1182.00 760.00 L 1202.00 796.00 L 1202.00 800.00 L 1189.00 813.00 L 1163.00 835.00 L 1163.00 838.00 L 1189.00 822.00 L 1191.00 821.00 L 1169.00 835.00 L 1168.00 837.00 L 1188.00 827.00 L 1184.00 831.00 L 1156.00 849.00 L 1141.00 863.00 L 1139.00 873.00 L 1141.00 884.00 L 1147.00 896.00 L 1149.00 905.00 L 1147.00 911.00 L 1141.00 917.00 L 1131.00 923.00 L 1125.00 931.00 L 1123.00 941.00 L 1113.00 953.00 L 1095.00 967.00 L 1088.00 979.00 L 1092.00 989.00 L 1094.00 1004.00 L 1094.00 1024.00 L 1092.00 1039.00 L 1088.00 1049.00 L 1072.00 1065.00 L 1044.00 1087.00 L 1033.00 1106.00 L 1039.00 1122.00 L 1034.00 1137.00 L 1018.00 1151.00 L 1001.00 1162.00 L 983.00 1170.00 L 982.00 1181.00 L 998.00 1195.00 L 997.00 1197.00 L 979.00 1187.00 L 980.00 1190.00 L 1000.00 1206.00 L 1001.00 1210.00 L 983.00 1202.00 L 1004.00 1225.00 L 1064.00 1279.00 L 1060.00 1278.00 L 992.00 1222.00 L 990.00 1223.00 L 1054.00 1281.00 L 1085.00 1311.00 L 1083.00 1313.00 L 1078.00 1311.00 L 1070.00 1305.00 L 1046.00 1284.00 L 1006.00 1248.00 L 1008.00 1252.00 L 1052.00 1296.00 L 1065.00 1310.00 L 1047.00 1294.00 L 1044.00 1297.00 L 1056.00 1319.00 L 1052.00 1327.00 L 1032.00 1321.00 L 1015.00 1312.00 L 1001.00 1300.00 L 1008.00 1315.00 L 1036.00 1357.00 L 1037.00 1362.00 L 1011.00 1330.00 L 1012.00 1333.00 L 1040.00 1371.00 L 1036.00 1367.00 L 1000.00 1321.00 L 1014.00 1345.00 L 1078.00 1439.00 L 1109.00 1485.00 L 1107.00 1483.00 L 1123.00 1516.00 L 1157.00 1584.00 L 1179.00 1642.00 L 1189.00 1690.00 L 1194.00 1735.00 L 1194.00 1777.00 L 1191.00 1812.00 L 1185.00 1840.00 L 1174.00 1867.00 L 1158.00 1893.00 L 1141.00 1909.00 L 1123.00 1915.00 L 1103.00 1916.00 L 1081.00 1912.00 L 1045.00 1891.00 L 995.00 1853.00 L 948.00 1821.00 L 904.00 1795.00 L 838.00 1762.00 L 750.00 1722.00 L 688.00 1696.00 L 652.00 1684.00 L 602.00 1669.00 L 538.00 1651.00 L 504.00 1643.00 L 500.00 1645.00 L 475.00 1641.00 L 429.00 1631.00 L 378.00 1626.00 L 322.00 1626.00 L 293.00 1618.00 L 291.00 1602.00 L 294.00 1572.00 L 302.00 1528.00 L 317.00 1471.00 L 339.00 1401.00 L 368.00 1319.00 L 404.00 1225.00 L 419.00 1167.00 L 413.00 1145.00 L 413.00 1118.00 L 419.00 1086.00 L 423.00 1067.00 L 425.00 1061.00 L 431.00 1046.00 Z" fill="black" stroke="black" stroke-width="1"/>
</svg>