<?xml version="1.0" encoding="UTF-8"?>
<svg xmlns="http://www.w3.org/2000/svg" viewBox="327.00 199.00 943.00 1670.00">
  <path d="M 461.00 1005.00 L 467.00 951.00 L 474.00 910.00 L 482.00 882.00 L 497.00 855.00 L 519.00 829.00 L 525.00 811.00 L 515.00 801.00 L 515.00 799.00 L 525.00 805.00 L 520.00 799.00 L 500.00 781.00 L 481.00 760.00 L 463.00 736.00 L 441.00 687.00 L 415.00 613.00 L 401.00 552.00 L 399.00 504.00 L 404.00 454.00 L 416.00 402.00 L 426.00 370.00 L 434.00 358.00 L 455.00 334.00 L 489.00 298.00 L 518.00 276.00 L 542.00 268.00 L 569.00 255.00 L 599.00 237.00 L 621.00 228.00 L 635.00 228.00 L 658.00 223.00 L 690.00 213.00 L 729.00 209.00 L 775.00 211.00 L 819.00 217.00 L 861.00 227.00 L 892.00 239.00 L 912.00 253.00 L 931.00 264.00 L 949.00 272.00 L 972.00 286.00 L 1000.00 306.00 L 1015.00 317.00 L 1017.00 319.00 L 1018.00 328.00 L 1018.00 344.00 L 1020.00 347.00 L 1024.00 337.00 L 1027.00 335.00 L 1029.00 341.00 L 1030.00 351.00 L 1030.00 365.00 L 1032.00 371.00 L 1036.00 369.00 L 1039.00 365.00 L 1041.00 359.00 L 1041.00 361.00 L 1039.00 371.00 L 1041.00 373.00 L 1047.00 367.00 L 1049.00 368.00 L 1047.00 376.00 L 1048.00 378.00 L 1052.00 374.00 L 1054.00 377.00 L 1054.00 387.00 L 1061.00 399.00 L 1075.00 413.00 L 1089.00 432.00 L 1103.00 456.00 L 1115.00 486.00 L 1125.00 522.00 L 1126.00 560.00 L 1118.00 600.00 L 1119.00 631.00 L 1129.00 653.00 L 1146.00 676.00 L 1170.00 700.00 L 1184.00 717.00 L 1188.00 727.00 L 1190.00 735.00 L 1190.00 741.00 L 1183.00 752.00 L 1169.00 768.00 L 1162.00 782.00 L 1162.00 794.00 L 1168.00 806.00 L 1180.00 818.00 L 1184.00 829.00 L 1180.00 839.00 L 1172.00 849.00 L 1160.00 859.00 L 1156.00 863.00 L 1160.00 861.00 L 1161.00 872.00 L 1159.00 896.00 L 1149.00 913.00 L 1131.00 923.00 L 1122.00 938.00 L 1122.00 958.00 L 1118.00 977.00 L 1110.00 995.00 L 1101.00 1008.00 L 1091.00 1016.00 L 1078.00 1022.00 L 1062.00 1026.00 L 1057.00 1028.00 L 1063.00 1028.00 L 1064.00 1031.00 L 1060.00 1037.00 L 1058.00 1043.00 L 1058.00 1049.00 L 1054.00 1057.00 L 1046.00 1067.00 L 1040.00 1077.00 L 1036.00 1087.00 L 1034.00 1095.00 L 1034.00 1101.00 L 1044.00 1111.00 L 1064.00 1125.00 L 1063.00 1128.00 L 1041.00 1120.00 L 1042.00 1122.00 L 1066.00 1134.00 L 1066.00 1136.00 L 1042.00 1128.00 L 1043.00 1131.00 L 1069.00 1145.00 L 1068.00 1146.00 L 1040.00 1134.00 L 1039.00 1137.00 L 1065.00 1155.00 L 1068.00 1168.00 L 1048.00 1176.00 L 1054.00 1192.00 L 1086.00 1216.00 L 1087.00 1218.00 L 1057.00 1198.00 L 1058.00 1200.00 L 1090.00 1224.00 L 1108.00 1239.00 L 1112.00 1245.00 L 1115.00 1254.00 L 1117.00 1266.00 L 1111.00 1268.00 L 1097.00 1260.00 L 1097.00 1262.00 L 1111.00 1274.00 L 1107.00 1272.00 L 1085.00 1256.00 L 1085.00 1258.00 L 1107.00 1278.00 L 1108.00 1280.00 L 1088.00 1264.00 L 1084.00 1262.00 L 1096.00 1274.00 L 1098.00 1277.00 L 1090.00 1271.00 L 1092.00 1275.00 L 1104.00 1289.00 L 1106.00 1293.00 L 1098.00 1287.00 L 1099.00 1296.00 L 1109.00 1320.00 L 1132.00 1359.00 L 1168.00 1413.00 L 1198.00 1464.00 L 1222.00 1512.00 L 1238.00 1548.00 L 1246.00 1572.00 L 1253.00 1604.00 L 1259.00 1644.00 L 1260.00 1682.00 L 1256.00 1718.00 L 1249.00 1746.00 L 1239.00 1766.00 L 1229.00 1782.00 L 1219.00 1794.00 L 1209.00 1805.00 L 1199.00 1815.00 L 1188.00 1822.00 L 1176.00 1826.00 L 1170.00 1832.00 L 1170.00 1840.00 L 1166.00 1841.00 L 1158.00 1835.00 L 1155.00 1836.00 L 1157.00 1844.00 L 1156.00 1846.00 L 1152.00 1842.00 L 1149.00 1844.00 L 1147.00 1852.00 L 1138.00 1857.00 L 1122.00 1859.00 L 1094.00 1853.00 L 1054.00 1839.00 L 1023.00 1825.00 L 1001.00 1811.00 L 963.00 1782.00 L 909.00 1738.00 L 874.00 1711.00 L 858.00 1701.00 L 841.00 1689.00 L 823.00 1675.00 L 811.00 1664.00 L 805.00 1656.00 L 783.00 1641.00 L 745.00 1619.00 L 693.00 1590.00 L 627.00 1554.00 L 566.00 1524.00 L 510.00 1500.00 L 465.00 1482.00 L 431.00 1470.00 L 399.00 1461.00 L 369.00 1455.00 L 349.00 1449.00 L 339.00 1443.00 L 337.00 1433.00 L 343.00 1419.00 L 354.00 1380.00 L 370.00 1316.00 L 386.00 1266.00 L 402.00 1230.00 L 419.00 1198.00 L 437.00 1170.00 L 447.00 1150.00 L 449.00 1138.00 L 454.00 1125.00 L 462.00 1111.00 L 464.00 1089.00 L 460.00 1059.00 L 458.00 1041.00 L 458.00 1035.00 L 461.00 1005.00 Z" fill="black" stroke="black" stroke-width="1"/>
</svg>