<?xml version="1.0" encoding="UTF-8"?>
<svg xmlns="http://www.w3.org/2000/svg" viewBox="460.00 241.00 912.00 1617.00">
  <path d="M 658.00 1027.00 L 666.00 1013.00 L 672.00 981.00 L 676.00 931.00 L 670.00 899.00 L 654.00 885.00 L 654.00 882.00 L 670.00 890.00 L 669.00 888.00 L 651.00 876.00 L 616.00 841.00 L 564.00 783.00 L 526.00 721.00 L 502.00 655.00 L 491.00 602.00 L 493.00 562.00 L 502.00 515.00 L 518.00 461.00 L 541.00 414.00 L 571.00 374.00 L 600.00 342.00 L 628.00 318.00 L 679.00 292.00 L 753.00 264.00 L 817.00 251.00 L 871.00 253.00 L 931.00 266.00 L 997.00 290.00 L 1065.00 327.00 L 1135.00 377.00 L 1178.00 413.00 L 1194.00 435.00 L 1200.00 451.00 L 1196.00 461.00 L 1197.00 462.00 L 1203.00 454.00 L 1204.00 456.00 L 1200.00 468.00 L 1201.00 470.00 L 1207.00 462.00 L 1208.00 465.00 L 1204.00 479.00 L 1206.00 481.00 L 1214.00 471.00 L 1215.00 474.00 L 1209.00 490.00 L 1210.00 492.00 L 1218.00 480.00 L 1219.00 483.00 L 1213.00 501.00 L 1214.00 504.00 L 1222.00 492.00 L 1224.00 500.00 L 1220.00 528.00 L 1222.00 536.00 L 1230.00 524.00 L 1231.00 528.00 L 1225.00 548.00 L 1227.00 551.00 L 1237.00 537.00 L 1237.00 543.00 L 1227.00 569.00 L 1229.00 572.00 L 1243.00 552.00 L 1242.00 556.00 L 1226.00 584.00 L 1227.00 587.00 L 1245.00 565.00 L 1244.00 570.00 L 1224.00 602.00 L 1224.00 603.00 L 1244.00 573.00 L 1244.00 575.00 L 1224.00 609.00 L 1225.00 611.00 L 1247.00 581.00 L 1247.00 584.00 L 1225.00 620.00 L 1238.00 669.00 L 1286.00 731.00 L 1294.00 776.00 L 1262.00 804.00 L 1260.00 809.00 L 1288.00 791.00 L 1288.00 794.00 L 1260.00 818.00 L 1248.00 840.00 L 1252.00 860.00 L 1245.00 887.00 L 1227.00 921.00 L 1220.00 953.00 L 1224.00 983.00 L 1223.00 1004.00 L 1217.00 1016.00 L 1200.00 1026.00 L 1172.00 1034.00 L 1166.00 1038.00 L 1182.00 1038.00 L 1184.00 1039.00 L 1172.00 1041.00 L 1169.00 1043.00 L 1175.00 1045.00 L 1169.00 1046.00 L 1151.00 1046.00 L 1144.00 1048.00 L 1148.00 1052.00 L 1143.00 1054.00 L 1129.00 1054.00 L 1126.00 1055.00 L 1134.00 1057.00 L 1117.00 1065.00 L 1075.00 1079.00 L 1045.00 1102.00 L 1027.00 1134.00 L 1098.00 1268.00 L 1258.00 1504.00 L 1257.00 1506.00 L 1095.00 1274.00 L 1096.00 1277.00 L 1260.00 1515.00 L 1322.00 1606.00 L 1282.00 1550.00 L 1285.00 1556.00 L 1331.00 1624.00 L 1325.00 1617.00 L 1267.00 1535.00 L 1267.00 1538.00 L 1325.00 1626.00 L 1321.00 1622.00 L 1255.00 1526.00 L 1257.00 1531.00 L 1327.00 1637.00 L 1325.00 1635.00 L 1251.00 1525.00 L 1251.00 1527.00 L 1325.00 1641.00 L 1322.00 1638.00 L 1242.00 1518.00 L 1242.00 1521.00 L 1322.00 1647.00 L 1319.00 1644.00 L 1233.00 1512.00 L 1233.00 1514.00 L 1319.00 1650.00 L 1275.00 1581.00 L 1101.00 1307.00 L 1101.00 1310.00 L 1275.00 1590.00 L 1362.00 1732.00 L 1362.00 1736.00 L 1311.00 1657.00 L 1209.00 1495.00 L 1208.00 1498.00 L 1308.00 1666.00 L 1306.00 1664.00 L 1202.00 1492.00 L 1201.00 1494.00 L 1303.00 1670.00 L 1300.00 1667.00 L 1192.00 1485.00 L 1191.00 1487.00 L 1297.00 1673.00 L 1294.00 1670.00 L 1182.00 1478.00 L 1181.00 1479.00 L 1291.00 1673.00 L 1262.00 1622.00 L 1094.00 1326.00 L 1093.00 1329.00 L 1259.00 1631.00 L 1282.00 1676.00 L 1162.00 1464.00 L 1159.00 1468.00 L 1273.00 1688.00 L 1250.00 1646.00 L 1090.00 1342.00 L 1088.00 1345.00 L 1244.00 1655.00 L 1244.00 1657.00 L 1088.00 1351.00 L 1085.00 1354.00 L 1235.00 1666.00 L 1248.00 1696.00 L 1124.00 1444.00 L 1121.00 1447.00 L 1239.00 1705.00 L 1225.00 1677.00 L 1079.00 1363.00 L 1076.00 1365.00 L 1216.00 1683.00 L 1284.00 1844.00 L 1280.00 1848.00 L 1210.00 1691.00 L 1074.00 1373.00 L 1071.00 1375.00 L 1201.00 1697.00 L 1202.00 1703.00 L 1074.00 1393.00 L 1071.00 1394.00 L 1193.00 1706.00 L 1191.00 1702.00 L 1065.00 1382.00 L 1064.00 1384.00 L 1188.00 1708.00 L 1190.00 1716.00 L 1070.00 1408.00 L 1067.00 1410.00 L 1181.00 1722.00 L 1120.00 1807.00 L 884.00 1665.00 L 718.00 1572.00 L 622.00 1528.00 L 545.00 1498.00 L 487.00 1482.00 L 470.00 1435.00 L 494.00 1357.00 L 522.00 1285.00 L 554.00 1219.00 L 574.00 1169.00 L 582.00 1135.00 L 602.00 1100.00 L 634.00 1064.00 L 651.00 1043.00 L 653.00 1037.00 L 658.00 1027.00 Z" fill="black" stroke="black" stroke-width="1"/>
</svg>