<?xml version="1.0" encoding="UTF-8"?>
<svg xmlns="http://www.w3.org/2000/svg" viewBox="338.00 104.00 1013.00 1741.00">
  <path d="M 449.00 1008.00 L 447.00 968.00 L 448.00 931.00 L 452.00 897.00 L 462.00 865.00 L 478.00 835.00 L 479.00 811.00 L 465.00 793.00 L 440.00 744.00 L 404.00 664.00 L 383.00 613.00 L 377.00 591.00 L 373.00 564.00 L 371.00 532.00 L 371.00 501.00 L 373.00 471.00 L 385.00 427.00 L 407.00 369.00 L 446.00 306.00 L 502.00 238.00 L 547.00 193.00 L 581.00 171.00 L 620.00 150.00 L 664.00 130.00 L 718.00 118.00 L 782.00 114.00 L 855.00 126.00 L 937.00 154.00 L 1006.00 193.00 L 1062.00 243.00 L 1098.00 278.00 L 1114.00 298.00 L 1127.00 319.00 L 1137.00 341.00 L 1143.00 368.00 L 1145.00 400.00 L 1154.00 438.00 L 1170.00 482.00 L 1173.00 519.00 L 1163.00 549.00 L 1163.00 556.00 L 1173.00 540.00 L 1175.00 537.00 L 1169.00 547.00 L 1169.00 549.00 L 1175.00 543.00 L 1172.00 550.00 L 1160.00 570.00 L 1158.00 591.00 L 1166.00 613.00 L 1185.00 648.00 L 1215.00 696.00 L 1214.00 734.00 L 1182.00 762.00 L 1183.00 764.00 L 1217.00 740.00 L 1216.00 743.00 L 1180.00 773.00 L 1180.00 775.00 L 1216.00 749.00 L 1217.00 751.00 L 1183.00 781.00 L 1182.00 784.00 L 1214.00 760.00 L 1215.00 762.00 L 1185.00 790.00 L 1170.00 820.00 L 1170.00 852.00 L 1164.00 879.00 L 1152.00 901.00 L 1148.00 922.00 L 1152.00 942.00 L 1152.00 965.00 L 1148.00 991.00 L 1134.00 1013.00 L 1110.00 1031.00 L 1088.00 1041.00 L 1068.00 1043.00 L 1061.00 1048.00 L 1067.00 1056.00 L 1065.00 1067.00 L 1055.00 1081.00 L 1058.00 1091.00 L 1074.00 1097.00 L 1073.00 1098.00 L 1055.00 1094.00 L 1057.00 1096.00 L 1079.00 1104.00 L 1079.00 1106.00 L 1057.00 1102.00 L 1057.00 1104.00 L 1079.00 1112.00 L 1095.00 1120.00 L 1105.00 1128.00 L 1104.00 1130.00 L 1092.00 1126.00 L 1095.00 1128.00 L 1113.00 1136.00 L 1131.00 1150.00 L 1149.00 1170.00 L 1170.00 1186.00 L 1194.00 1198.00 L 1195.00 1200.00 L 1173.00 1192.00 L 1173.00 1194.00 L 1195.00 1206.00 L 1198.00 1208.00 L 1182.00 1200.00 L 1180.00 1202.00 L 1192.00 1214.00 L 1195.00 1221.00 L 1189.00 1223.00 L 1190.00 1229.00 L 1198.00 1239.00 L 1195.00 1240.00 L 1181.00 1232.00 L 1183.00 1235.00 L 1201.00 1249.00 L 1199.00 1250.00 L 1177.00 1238.00 L 1191.00 1249.00 L 1241.00 1283.00 L 1269.00 1303.00 L 1275.00 1309.00 L 1261.00 1301.00 L 1227.00 1279.00 L 1229.00 1282.00 L 1267.00 1310.00 L 1271.00 1315.00 L 1241.00 1297.00 L 1243.00 1300.00 L 1277.00 1324.00 L 1272.00 1321.00 L 1228.00 1291.00 L 1228.00 1294.00 L 1272.00 1330.00 L 1270.00 1333.00 L 1222.00 1303.00 L 1220.00 1306.00 L 1264.00 1342.00 L 1296.00 1372.00 L 1316.00 1396.00 L 1313.00 1398.00 L 1287.00 1378.00 L 1288.00 1380.00 L 1316.00 1404.00 L 1317.00 1406.00 L 1291.00 1386.00 L 1293.00 1390.00 L 1323.00 1418.00 L 1321.00 1418.00 L 1287.00 1390.00 L 1289.00 1392.00 L 1327.00 1424.00 L 1325.00 1425.00 L 1283.00 1395.00 L 1283.00 1398.00 L 1325.00 1434.00 L 1341.00 1456.00 L 1331.00 1464.00 L 1316.00 1470.00 L 1296.00 1474.00 L 1286.00 1480.00 L 1286.00 1488.00 L 1295.00 1514.00 L 1313.00 1558.00 L 1326.00 1610.00 L 1334.00 1670.00 L 1337.00 1699.00 L 1335.00 1697.00 L 1333.00 1711.00 L 1331.00 1741.00 L 1322.00 1773.00 L 1306.00 1807.00 L 1291.00 1827.00 L 1277.00 1833.00 L 1258.00 1835.00 L 1234.00 1833.00 L 1197.00 1819.00 L 1147.00 1793.00 L 1093.00 1761.00 L 1035.00 1723.00 L 965.00 1687.00 L 883.00 1653.00 L 764.00 1618.00 L 608.00 1582.00 L 503.00 1563.00 L 449.00 1561.00 L 419.00 1558.00 L 413.00 1554.00 L 396.00 1554.00 L 368.00 1558.00 L 352.00 1555.00 L 348.00 1545.00 L 354.00 1477.00 L 370.00 1351.00 L 398.00 1236.00 L 438.00 1132.00 L 456.00 1070.00 L 452.00 1050.00 L 450.00 1037.00 L 450.00 1031.00 L 449.00 1008.00 Z" fill="black" stroke="black" stroke-width="1"/>
</svg>