<?xml version="1.0" encoding="UTF-8"?>
<svg xmlns="http://www.w3.org/2000/svg" viewBox="224.00 260.00 831.00 1460.00">
  <path d="M 439.00 990.00 L 441.00 966.00 L 433.00 950.00 L 415.00 942.00 L 415.00 940.00 L 433.00 944.00 L 431.00 942.00 L 409.00 934.00 L 391.00 917.00 L 377.00 891.00 L 346.00 852.00 L 298.00 800.00 L 267.00 761.00 L 253.00 735.00 L 242.00 687.00 L 234.00 617.00 L 235.00 565.00 L 245.00 531.00 L 266.00 482.00 L 298.00 418.00 L 340.00 365.00 L 392.00 323.00 L 450.00 293.00 L 514.00 275.00 L 582.00 270.00 L 654.00 278.00 L 723.00 303.00 L 789.00 345.00 L 828.00 375.00 L 840.00 393.00 L 861.00 414.00 L 891.00 438.00 L 921.00 476.00 L 951.00 528.00 L 962.00 569.00 L 954.00 599.00 L 954.00 611.00 L 962.00 605.00 L 963.00 608.00 L 957.00 620.00 L 958.00 623.00 L 966.00 617.00 L 966.00 621.00 L 958.00 635.00 L 959.00 637.00 L 969.00 627.00 L 968.00 632.00 L 956.00 652.00 L 956.00 655.00 L 968.00 641.00 L 968.00 643.00 L 956.00 661.00 L 956.00 664.00 L 968.00 652.00 L 967.00 655.00 L 953.00 673.00 L 952.00 676.00 L 964.00 664.00 L 964.00 666.00 L 952.00 682.00 L 946.00 696.00 L 946.00 708.00 L 960.00 736.00 L 988.00 780.00 L 1001.00 808.00 L 999.00 820.00 L 987.00 835.00 L 965.00 853.00 L 956.00 873.00 L 960.00 895.00 L 958.00 910.00 L 950.00 918.00 L 946.00 928.00 L 946.00 940.00 L 938.00 954.00 L 922.00 970.00 L 915.00 993.00 L 917.00 1023.00 L 911.00 1045.00 L 897.00 1059.00 L 860.00 1075.00 L 800.00 1093.00 L 766.00 1106.00 L 758.00 1114.00 L 828.00 1221.00 L 976.00 1427.00 L 975.00 1429.00 L 825.00 1227.00 L 827.00 1231.00 L 981.00 1441.00 L 1041.00 1524.00 L 1007.00 1480.00 L 1008.00 1483.00 L 1044.00 1533.00 L 1042.00 1531.00 L 1002.00 1477.00 L 1003.00 1479.00 L 1045.00 1537.00 L 1041.00 1532.00 L 991.00 1464.00 L 992.00 1467.00 L 1044.00 1541.00 L 1040.00 1537.00 L 980.00 1455.00 L 980.00 1457.00 L 1040.00 1543.00 L 1036.00 1539.00 L 968.00 1445.00 L 968.00 1447.00 L 1036.00 1545.00 L 1033.00 1542.00 L 959.00 1438.00 L 959.00 1440.00 L 1033.00 1548.00 L 1031.00 1547.00 L 953.00 1437.00 L 953.00 1440.00 L 1031.00 1556.00 L 1029.00 1554.00 L 947.00 1434.00 L 946.00 1435.00 L 1026.00 1557.00 L 986.00 1497.00 L 826.00 1255.00 L 826.00 1258.00 L 986.00 1506.00 L 1021.00 1562.00 L 931.00 1426.00 L 931.00 1429.00 L 1021.00 1571.00 L 1019.00 1569.00 L 925.00 1423.00 L 924.00 1425.00 L 1016.00 1575.00 L 983.00 1523.00 L 825.00 1269.00 L 825.00 1270.00 L 983.00 1526.00 L 1013.00 1576.00 L 915.00 1420.00 L 915.00 1423.00 L 1013.00 1585.00 L 1010.00 1582.00 L 906.00 1414.00 L 904.00 1418.00 L 1004.00 1594.00 L 1002.00 1593.00 L 898.00 1415.00 L 898.00 1417.00 L 1002.00 1599.00 L 1000.00 1597.00 L 892.00 1411.00 L 891.00 1412.00 L 997.00 1600.00 L 995.00 1598.00 L 885.00 1406.00 L 884.00 1409.00 L 992.00 1607.00 L 970.00 1568.00 L 818.00 1292.00 L 816.00 1294.00 L 964.00 1574.00 L 981.00 1609.00 L 867.00 1399.00 L 864.00 1402.00 L 972.00 1618.00 L 970.00 1616.00 L 858.00 1396.00 L 857.00 1397.00 L 967.00 1619.00 L 951.00 1588.00 L 809.00 1304.00 L 806.00 1307.00 L 942.00 1597.00 L 954.00 1624.00 L 842.00 1388.00 L 840.00 1389.00 L 948.00 1627.00 L 945.00 1623.00 L 831.00 1377.00 L 829.00 1379.00 L 939.00 1629.00 L 929.00 1609.00 L 799.00 1319.00 L 795.00 1322.00 L 917.00 1618.00 L 922.00 1632.00 L 810.00 1364.00 L 808.00 1365.00 L 916.00 1635.00 L 911.00 1624.00 L 793.00 1332.00 L 790.00 1330.00 L 902.00 1618.00 L 903.00 1623.00 L 793.00 1345.00 L 789.00 1342.00 L 891.00 1614.00 L 889.00 1610.00 L 783.00 1330.00 L 781.00 1328.00 L 883.00 1604.00 L 889.00 1710.00 L 799.00 1646.00 L 708.00 1588.00 L 616.00 1536.00 L 526.00 1493.00 L 438.00 1459.00 L 362.00 1434.00 L 298.00 1418.00 L 280.00 1367.00 L 308.00 1281.00 L 333.00 1215.00 L 355.00 1169.00 L 374.00 1136.00 L 390.00 1116.00 L 407.00 1083.00 L 425.00 1037.00 L 435.00 1011.00 L 437.00 1005.00 L 439.00 990.00 Z" fill="black" stroke="black" stroke-width="1"/>
</svg>