<?xml version="1.0" encoding="UTF-8"?>
<svg xmlns="http://www.w3.org/2000/svg" viewBox="361.00 253.00 831.00 1509.00">
  <path d="M 520.00 1004.00 L 524.00 1000.00 L 532.00 997.00 L 544.00 995.00 L 552.00 992.00 L 556.00 988.00 L 559.00 971.00 L 561.00 941.00 L 557.00 921.00 L 547.00 911.00 L 545.00 907.00 L 551.00 909.00 L 549.00 907.00 L 539.00 901.00 L 526.00 885.00 L 510.00 859.00 L 496.00 841.00 L 484.00 831.00 L 478.00 824.00 L 478.00 820.00 L 472.00 812.00 L 460.00 800.00 L 440.00 773.00 L 412.00 731.00 L 392.00 696.00 L 380.00 668.00 L 373.00 646.00 L 371.00 630.00 L 371.00 599.00 L 373.00 553.00 L 380.00 516.00 L 392.00 488.00 L 400.00 466.00 L 404.00 450.00 L 413.00 431.00 L 427.00 409.00 L 447.00 386.00 L 473.00 362.00 L 505.00 336.00 L 543.00 308.00 L 583.00 287.00 L 625.00 273.00 L 653.00 265.00 L 667.00 263.00 L 697.00 263.00 L 743.00 265.00 L 791.00 274.00 L 841.00 290.00 L 881.00 307.00 L 911.00 325.00 L 943.00 342.00 L 977.00 358.00 L 1005.00 374.00 L 1027.00 390.00 L 1046.00 408.00 L 1062.00 428.00 L 1080.00 454.00 L 1100.00 486.00 L 1112.00 518.00 L 1116.00 550.00 L 1117.00 593.00 L 1115.00 647.00 L 1121.00 687.00 L 1135.00 713.00 L 1152.00 737.00 L 1172.00 759.00 L 1182.00 778.00 L 1182.00 794.00 L 1174.00 810.00 L 1158.00 826.00 L 1149.00 837.00 L 1147.00 843.00 L 1147.00 860.00 L 1149.00 888.00 L 1145.00 907.00 L 1135.00 917.00 L 1131.00 927.00 L 1133.00 937.00 L 1129.00 950.00 L 1119.00 966.00 L 1114.00 985.00 L 1114.00 1007.00 L 1112.00 1024.00 L 1108.00 1036.00 L 1102.00 1046.00 L 1094.00 1054.00 L 1083.00 1061.00 L 1069.00 1067.00 L 1040.00 1069.00 L 996.00 1067.00 L 972.00 1066.00 L 968.00 1066.00 L 969.00 1067.00 L 975.00 1069.00 L 973.00 1069.00 L 963.00 1067.00 L 952.00 1067.00 L 940.00 1069.00 L 928.00 1076.00 L 916.00 1088.00 L 905.00 1106.00 L 895.00 1130.00 L 919.00 1186.00 L 977.00 1274.00 L 1009.00 1324.00 L 1015.00 1336.00 L 1010.00 1331.00 L 994.00 1309.00 L 995.00 1312.00 L 1013.00 1340.00 L 1012.00 1339.00 L 992.00 1309.00 L 1003.00 1328.00 L 1045.00 1396.00 L 1038.00 1386.00 L 982.00 1298.00 L 985.00 1304.00 L 1047.00 1404.00 L 1046.00 1403.00 L 982.00 1301.00 L 983.00 1303.00 L 1049.00 1409.00 L 1055.00 1419.00 L 1001.00 1333.00 L 1004.00 1339.00 L 1064.00 1437.00 L 1060.00 1431.00 L 992.00 1321.00 L 994.00 1325.00 L 1066.00 1443.00 L 1062.00 1437.00 L 982.00 1307.00 L 984.00 1311.00 L 1068.00 1449.00 L 1109.00 1517.00 L 1107.00 1515.00 L 1110.00 1523.00 L 1118.00 1541.00 L 1063.00 1451.00 L 945.00 1253.00 L 944.00 1252.00 L 1060.00 1448.00 L 1120.00 1550.00 L 1124.00 1558.00 L 1078.00 1481.00 L 982.00 1319.00 L 983.00 1322.00 L 1081.00 1490.00 L 1134.00 1586.00 L 1142.00 1610.00 L 1091.00 1525.00 L 981.00 1331.00 L 981.00 1332.00 L 1091.00 1528.00 L 1087.00 1521.00 L 969.00 1311.00 L 970.00 1316.00 L 1090.00 1536.00 L 1088.00 1534.00 L 964.00 1310.00 L 964.00 1313.00 L 1088.00 1543.00 L 1083.00 1534.00 L 949.00 1286.00 L 949.00 1288.00 L 1083.00 1540.00 L 1150.00 1669.00 L 1150.00 1675.00 L 1086.00 1556.00 L 958.00 1312.00 L 958.00 1315.00 L 1086.00 1565.00 L 1083.00 1560.00 L 949.00 1300.00 L 949.00 1302.00 L 1083.00 1566.00 L 1149.00 1702.00 L 1147.00 1710.00 L 1080.00 1580.00 L 948.00 1312.00 L 947.00 1314.00 L 1077.00 1586.00 L 1137.00 1728.00 L 1127.00 1740.00 L 1114.00 1748.00 L 1098.00 1752.00 L 1081.00 1751.00 L 1063.00 1745.00 L 1046.00 1738.00 L 1030.00 1730.00 L 1014.00 1719.00 L 998.00 1705.00 L 979.00 1692.00 L 957.00 1680.00 L 906.00 1657.00 L 826.00 1623.00 L 749.00 1596.00 L 675.00 1576.00 L 622.00 1564.00 L 590.00 1560.00 L 571.00 1556.00 L 565.00 1552.00 L 550.00 1548.00 L 526.00 1544.00 L 502.00 1542.00 L 478.00 1542.00 L 464.00 1537.00 L 460.00 1527.00 L 462.00 1504.00 L 470.00 1468.00 L 473.00 1451.00 L 471.00 1453.00 L 472.00 1446.00 L 476.00 1430.00 L 480.00 1400.00 L 484.00 1356.00 L 490.00 1319.00 L 498.00 1289.00 L 502.00 1258.00 L 502.00 1226.00 L 505.00 1200.00 L 511.00 1180.00 L 514.00 1162.00 L 514.00 1146.00 L 511.00 1128.00 L 505.00 1108.00 L 503.00 1088.00 L 505.00 1068.00 L 509.00 1047.00 L 515.00 1025.00 L 518.00 1012.00 L 518.00 1008.00 L 520.00 1004.00 Z" fill="black" stroke="black" stroke-width="1"/>
</svg>