<?xml version="1.0" encoding="UTF-8"?>
<svg xmlns="http://www.w3.org/2000/svg" viewBox="385.00 356.00 733.00 1289.00">
  <path d="M 513.00 986.00 L 495.00 970.00 L 472.00 943.00 L 444.00 905.00 L 421.00 861.00 L 403.00 811.00 L 395.00 750.00 L 397.00 678.00 L 400.00 632.00 L 404.00 612.00 L 412.00 588.00 L 424.00 560.00 L 447.00 522.00 L 481.00 474.00 L 514.00 438.00 L 546.00 414.00 L 593.00 393.00 L 655.00 375.00 L 706.00 366.00 L 746.00 366.00 L 785.00 369.00 L 823.00 375.00 L 866.00 390.00 L 914.00 414.00 L 958.00 445.00 L 998.00 483.00 L 1027.00 515.00 L 1045.00 541.00 L 1055.00 557.00 L 1057.00 563.00 L 1055.00 571.00 L 1049.00 581.00 L 1050.00 582.00 L 1058.00 574.00 L 1058.00 579.00 L 1050.00 597.00 L 1051.00 599.00 L 1061.00 585.00 L 1063.00 584.00 L 1057.00 596.00 L 1058.00 598.00 L 1066.00 590.00 L 1065.00 596.00 L 1055.00 616.00 L 1056.00 618.00 L 1068.00 602.00 L 1071.00 600.00 L 1065.00 612.00 L 1066.00 614.00 L 1074.00 606.00 L 1072.00 611.00 L 1060.00 629.00 L 1061.00 631.00 L 1075.00 617.00 L 1075.00 619.00 L 1061.00 637.00 L 1058.00 643.00 L 1066.00 637.00 L 1066.00 639.00 L 1058.00 649.00 L 1061.00 646.00 L 1075.00 630.00 L 1076.00 631.00 L 1064.00 649.00 L 1065.00 650.00 L 1079.00 634.00 L 1079.00 635.00 L 1065.00 653.00 L 1058.00 664.00 L 1058.00 668.00 L 1065.00 662.00 L 1079.00 646.00 L 1079.00 648.00 L 1065.00 668.00 L 1066.00 670.00 L 1082.00 654.00 L 1082.00 656.00 L 1066.00 676.00 L 1066.00 678.00 L 1082.00 662.00 L 1083.00 664.00 L 1069.00 684.00 L 1060.00 711.00 L 1056.00 745.00 L 1057.00 772.00 L 1063.00 792.00 L 1077.00 821.00 L 1099.00 859.00 L 1108.00 882.00 L 1104.00 890.00 L 1096.00 897.00 L 1084.00 903.00 L 1082.00 905.00 L 1090.00 903.00 L 1087.00 906.00 L 1073.00 914.00 L 1068.00 926.00 L 1072.00 942.00 L 1072.00 955.00 L 1068.00 965.00 L 1067.00 975.00 L 1069.00 985.00 L 1063.00 997.00 L 1049.00 1011.00 L 1042.00 1025.00 L 1042.00 1039.00 L 1037.00 1054.00 L 1027.00 1070.00 L 1011.00 1083.00 L 989.00 1093.00 L 955.00 1099.00 L 909.00 1101.00 L 877.00 1109.00 L 859.00 1123.00 L 902.00 1221.00 L 1006.00 1403.00 L 1050.00 1481.00 L 1034.00 1455.00 L 1035.00 1458.00 L 1053.00 1490.00 L 1051.00 1487.00 L 1029.00 1449.00 L 1030.00 1451.00 L 1054.00 1493.00 L 1051.00 1489.00 L 1021.00 1439.00 L 1021.00 1441.00 L 1051.00 1495.00 L 1050.00 1494.00 L 1018.00 1438.00 L 1019.00 1441.00 L 1053.00 1503.00 L 1049.00 1498.00 L 1007.00 1426.00 L 1007.00 1429.00 L 1049.00 1507.00 L 1048.00 1506.00 L 1004.00 1426.00 L 1005.00 1429.00 L 1051.00 1515.00 L 1017.00 1453.00 L 903.00 1243.00 L 903.00 1246.00 L 1017.00 1462.00 L 1047.00 1520.00 L 993.00 1420.00 L 993.00 1422.00 L 1047.00 1526.00 L 1045.00 1523.00 L 987.00 1413.00 L 987.00 1415.00 L 1045.00 1529.00 L 1031.00 1504.00 L 945.00 1340.00 L 945.00 1343.00 L 1031.00 1513.00 L 1016.00 1484.00 L 900.00 1256.00 L 900.00 1259.00 L 1016.00 1493.00 L 1024.00 1511.00 L 924.00 1313.00 L 923.00 1316.00 L 1021.00 1520.00 L 1013.00 1504.00 L 899.00 1268.00 L 898.00 1271.00 L 1010.00 1513.00 L 1015.00 1526.00 L 913.00 1310.00 L 911.00 1312.00 L 1009.00 1532.00 L 1005.00 1525.00 L 899.00 1291.00 L 896.00 1292.00 L 996.00 1528.00 L 994.00 1524.00 L 890.00 1280.00 L 888.00 1280.00 L 988.00 1524.00 L 988.00 1526.00 L 888.00 1286.00 L 885.00 1285.00 L 979.00 1523.00 L 1009.00 1635.00 L 975.00 1621.00 L 957.00 1611.00 L 955.00 1605.00 L 954.00 1604.00 L 954.00 1608.00 L 953.00 1607.00 L 951.00 1601.00 L 946.00 1596.00 L 938.00 1592.00 L 892.00 1574.00 L 808.00 1542.00 L 712.00 1516.00 L 604.00 1496.00 L 526.00 1486.00 L 478.00 1486.00 L 447.00 1483.00 L 433.00 1477.00 L 427.00 1464.00 L 429.00 1444.00 L 438.00 1407.00 L 454.00 1353.00 L 482.00 1284.00 L 522.00 1200.00 L 543.00 1146.00 L 545.00 1122.00 L 553.00 1099.00 L 567.00 1077.00 L 574.00 1053.00 L 574.00 1027.00 L 566.00 1013.00 L 550.00 1011.00 L 550.00 1009.00 L 566.00 1007.00 L 565.00 1006.00 L 547.00 1006.00 L 547.00 1005.00 L 565.00 1003.00 L 562.00 1001.00 L 538.00 999.00 L 525.00 997.00 L 523.00 995.00 L 513.00 986.00 Z" fill="black" stroke="black" stroke-width="1"/>
</svg>