<?xml version="1.0" encoding="UTF-8"?>
<svg xmlns="http://www.w3.org/2000/svg" viewBox="250.00 222.00 975.00 1612.00">
  <path d="M 480.00 991.00 L 476.00 985.00 L 421.00 975.00 L 315.00 961.00 L 312.00 958.00 L 412.00 966.00 L 410.00 964.00 L 306.00 952.00 L 260.00 945.00 L 272.00 943.00 L 272.00 941.00 L 260.00 939.00 L 304.00 943.00 L 404.00 953.00 L 405.00 951.00 L 307.00 937.00 L 266.00 931.00 L 282.00 933.00 L 283.00 930.00 L 269.00 922.00 L 309.00 925.00 L 403.00 939.00 L 404.00 937.00 L 312.00 919.00 L 278.00 911.00 L 302.00 913.00 L 303.00 911.00 L 281.00 905.00 L 314.00 910.00 L 402.00 926.00 L 403.00 924.00 L 317.00 904.00 L 316.00 902.00 L 400.00 918.00 L 402.00 916.00 L 322.00 896.00 L 321.00 893.00 L 399.00 907.00 L 401.00 904.00 L 327.00 884.00 L 309.00 877.00 L 347.00 883.00 L 349.00 881.00 L 315.00 871.00 L 332.00 875.00 L 400.00 893.00 L 402.00 890.00 L 338.00 866.00 L 338.00 863.00 L 402.00 881.00 L 404.00 879.00 L 344.00 857.00 L 344.00 854.00 L 404.00 870.00 L 408.00 866.00 L 356.00 842.00 L 351.00 814.00 L 393.00 782.00 L 413.00 741.00 L 411.00 691.00 L 397.00 587.00 L 371.00 429.00 L 371.00 342.00 L 397.00 326.00 L 433.00 311.00 L 479.00 297.00 L 577.00 278.00 L 727.00 254.00 L 830.00 239.00 L 886.00 233.00 L 926.00 232.00 L 950.00 236.00 L 968.00 248.00 L 980.00 268.00 L 1003.00 366.00 L 1037.00 542.00 L 1056.00 635.00 L 1060.00 645.00 L 1070.00 653.00 L 1086.00 659.00 L 1086.00 671.00 L 1070.00 689.00 L 1073.00 690.00 L 1095.00 674.00 L 1096.00 677.00 L 1076.00 699.00 L 1070.00 709.00 L 1078.00 707.00 L 1077.00 712.00 L 1067.00 724.00 L 1077.00 716.00 L 1107.00 688.00 L 1115.00 683.00 L 1101.00 701.00 L 1103.00 702.00 L 1121.00 686.00 L 1113.00 694.00 L 1079.00 726.00 L 1082.00 727.00 L 1122.00 697.00 L 1123.00 700.00 L 1085.00 736.00 L 1088.00 737.00 L 1132.00 703.00 L 1145.00 694.00 L 1127.00 710.00 L 1129.00 711.00 L 1151.00 697.00 L 1140.00 709.00 L 1096.00 747.00 L 1099.00 748.00 L 1149.00 712.00 L 1166.00 702.00 L 1150.00 718.00 L 1154.00 720.00 L 1178.00 708.00 L 1164.00 721.00 L 1112.00 759.00 L 1113.00 760.00 L 1167.00 724.00 L 1168.00 725.00 L 1116.00 763.00 L 1118.00 764.00 L 1174.00 728.00 L 1205.00 712.00 L 1211.00 716.00 L 1186.00 737.00 L 1130.00 775.00 L 1133.00 776.00 L 1195.00 740.00 L 1197.00 742.00 L 1139.00 782.00 L 1142.00 785.00 L 1206.00 751.00 L 1207.00 753.00 L 1145.00 791.00 L 1147.00 793.00 L 1213.00 759.00 L 1215.00 762.00 L 1153.00 802.00 L 1128.00 830.00 L 1140.00 846.00 L 1147.00 861.00 L 1149.00 875.00 L 1139.00 893.00 L 1117.00 915.00 L 1104.00 932.00 L 1100.00 944.00 L 1099.00 964.00 L 1101.00 992.00 L 1097.00 1013.00 L 1087.00 1027.00 L 1085.00 1054.00 L 1091.00 1094.00 L 1076.00 1123.00 L 1040.00 1141.00 L 1025.00 1154.00 L 1031.00 1162.00 L 1029.00 1163.00 L 1019.00 1157.00 L 1022.00 1160.00 L 1038.00 1172.00 L 1034.00 1186.00 L 1010.00 1202.00 L 1004.00 1221.00 L 1016.00 1243.00 L 1014.00 1246.00 L 998.00 1230.00 L 997.00 1233.00 L 1011.00 1255.00 L 1009.00 1258.00 L 991.00 1242.00 L 988.00 1243.00 L 1000.00 1261.00 L 999.00 1264.00 L 985.00 1252.00 L 998.00 1277.00 L 1038.00 1339.00 L 1051.00 1362.00 L 1037.00 1346.00 L 1034.00 1346.00 L 1042.00 1362.00 L 1043.00 1368.00 L 1037.00 1364.00 L 1019.00 1343.00 L 989.00 1305.00 L 983.00 1300.00 L 1001.00 1328.00 L 1001.00 1332.00 L 983.00 1312.00 L 979.00 1317.00 L 989.00 1347.00 L 989.00 1354.00 L 979.00 1338.00 L 991.00 1365.00 L 1025.00 1435.00 L 1052.00 1519.00 L 1072.00 1617.00 L 1082.00 1685.00 L 1082.00 1723.00 L 1073.00 1760.00 L 1055.00 1796.00 L 1038.00 1817.00 L 1022.00 1823.00 L 1003.00 1824.00 L 981.00 1820.00 L 922.00 1783.00 L 826.00 1713.00 L 754.00 1664.00 L 706.00 1636.00 L 644.00 1607.00 L 568.00 1577.00 L 491.00 1553.00 L 413.00 1535.00 L 405.00 1451.00 L 467.00 1301.00 L 494.00 1214.00 L 486.00 1190.00 L 482.00 1163.00 L 482.00 1133.00 L 489.00 1091.00 L 503.00 1037.00 L 505.00 1009.00 L 495.00 1007.00 L 488.00 1003.00 L 484.00 997.00 L 480.00 991.00 Z" fill="black" stroke="black" stroke-width="1"/>
</svg>