<?xml version="1.0" encoding="UTF-8"?>
<svg xmlns="http://www.w3.org/2000/svg" viewBox="314.00 209.00 1006.00 1643.00">
  <path d="M 418.00 983.00 L 426.00 929.00 L 436.00 892.00 L 448.00 872.00 L 448.00 857.00 L 436.00 847.00 L 424.00 821.00 L 412.00 779.00 L 405.00 741.00 L 403.00 707.00 L 395.00 663.00 L 381.00 609.00 L 374.00 567.00 L 374.00 537.00 L 377.00 504.00 L 383.00 468.00 L 398.00 427.00 L 422.00 381.00 L 443.00 348.00 L 461.00 328.00 L 484.00 307.00 L 512.00 285.00 L 538.00 271.00 L 562.00 265.00 L 576.00 259.00 L 580.00 253.00 L 593.00 246.00 L 615.00 238.00 L 643.00 230.00 L 677.00 222.00 L 721.00 219.00 L 775.00 221.00 L 813.00 223.00 L 835.00 225.00 L 847.00 228.00 L 849.00 232.00 L 856.00 233.00 L 868.00 231.00 L 893.00 235.00 L 931.00 245.00 L 988.00 277.00 L 1064.00 331.00 L 1102.00 367.00 L 1102.00 385.00 L 1105.00 388.00 L 1111.00 376.00 L 1112.00 379.00 L 1108.00 397.00 L 1110.00 399.00 L 1118.00 385.00 L 1119.00 389.00 L 1113.00 411.00 L 1114.00 413.00 L 1122.00 395.00 L 1124.00 398.00 L 1120.00 422.00 L 1122.00 425.00 L 1130.00 407.00 L 1135.00 401.00 L 1137.00 407.00 L 1134.00 419.00 L 1126.00 437.00 L 1126.00 439.00 L 1134.00 425.00 L 1135.00 428.00 L 1129.00 448.00 L 1130.00 451.00 L 1138.00 437.00 L 1139.00 440.00 L 1133.00 460.00 L 1135.00 463.00 L 1145.00 449.00 L 1146.00 451.00 L 1138.00 469.00 L 1137.00 475.00 L 1143.00 469.00 L 1144.00 471.00 L 1140.00 481.00 L 1143.00 478.00 L 1153.00 462.00 L 1154.00 464.00 L 1146.00 484.00 L 1148.00 487.00 L 1160.00 473.00 L 1161.00 476.00 L 1151.00 496.00 L 1152.00 497.00 L 1164.00 479.00 L 1166.00 482.00 L 1158.00 506.00 L 1156.00 525.00 L 1160.00 539.00 L 1161.00 565.00 L 1159.00 603.00 L 1183.00 654.00 L 1233.00 718.00 L 1257.00 753.00 L 1255.00 759.00 L 1242.00 770.00 L 1218.00 786.00 L 1215.00 789.00 L 1233.00 779.00 L 1231.00 781.00 L 1209.00 795.00 L 1206.00 797.00 L 1222.00 787.00 L 1221.00 790.00 L 1203.00 806.00 L 1194.00 825.00 L 1194.00 847.00 L 1191.00 861.00 L 1185.00 867.00 L 1183.00 876.00 L 1185.00 888.00 L 1178.00 902.00 L 1162.00 918.00 L 1159.00 939.00 L 1169.00 965.00 L 1173.00 986.00 L 1171.00 1002.00 L 1166.00 1015.00 L 1158.00 1025.00 L 1138.00 1035.00 L 1106.00 1045.00 L 1081.00 1055.00 L 1063.00 1065.00 L 1065.00 1074.00 L 1087.00 1082.00 L 1088.00 1084.00 L 1068.00 1080.00 L 1070.00 1083.00 L 1094.00 1093.00 L 1099.00 1106.00 L 1085.00 1122.00 L 1089.00 1139.00 L 1111.00 1157.00 L 1110.00 1160.00 L 1086.00 1148.00 L 1086.00 1150.00 L 1110.00 1166.00 L 1123.00 1177.00 L 1125.00 1183.00 L 1112.00 1178.00 L 1084.00 1162.00 L 1085.00 1164.00 L 1115.00 1184.00 L 1131.00 1197.00 L 1133.00 1203.00 L 1119.00 1196.00 L 1089.00 1176.00 L 1110.00 1191.00 L 1182.00 1241.00 L 1180.00 1241.00 L 1104.00 1191.00 L 1100.00 1190.00 L 1168.00 1238.00 L 1184.00 1250.00 L 1148.00 1226.00 L 1151.00 1230.00 L 1193.00 1262.00 L 1206.00 1274.00 L 1190.00 1266.00 L 1188.00 1268.00 L 1200.00 1280.00 L 1186.00 1271.00 L 1146.00 1241.00 L 1138.00 1236.00 L 1162.00 1256.00 L 1162.00 1258.00 L 1138.00 1242.00 L 1143.00 1249.00 L 1177.00 1279.00 L 1188.00 1297.00 L 1176.00 1303.00 L 1161.00 1307.00 L 1143.00 1309.00 L 1138.00 1319.00 L 1146.00 1337.00 L 1160.00 1358.00 L 1180.00 1382.00 L 1186.00 1390.00 L 1178.00 1382.00 L 1193.00 1406.00 L 1231.00 1462.00 L 1249.00 1489.00 L 1247.00 1487.00 L 1253.00 1500.00 L 1267.00 1528.00 L 1281.00 1565.00 L 1295.00 1611.00 L 1301.00 1633.00 L 1299.00 1631.00 L 1301.00 1644.00 L 1307.00 1672.00 L 1310.00 1698.00 L 1310.00 1722.00 L 1306.00 1749.00 L 1298.00 1779.00 L 1289.00 1802.00 L 1279.00 1818.00 L 1269.00 1830.00 L 1259.00 1838.00 L 1251.00 1842.00 L 1245.00 1842.00 L 1210.00 1832.00 L 1146.00 1812.00 L 1078.00 1781.00 L 1006.00 1739.00 L 931.00 1699.00 L 853.00 1661.00 L 770.00 1624.00 L 682.00 1588.00 L 614.00 1563.00 L 566.00 1549.00 L 536.00 1542.00 L 524.00 1542.00 L 517.00 1540.00 L 515.00 1536.00 L 468.00 1528.00 L 376.00 1516.00 L 330.00 1507.00 L 330.00 1501.00 L 328.00 1499.00 L 324.00 1501.00 L 330.00 1449.00 L 346.00 1343.00 L 370.00 1246.00 L 402.00 1158.00 L 415.00 1104.00 L 409.00 1084.00 L 407.00 1061.00 L 409.00 1035.00 L 411.00 1019.00 L 413.00 1013.00 L 418.00 983.00 Z" fill="black" stroke="black" stroke-width="1"/>
</svg>