<?xml version="1.0" encoding="UTF-8"?>
<svg xmlns="http://www.w3.org/2000/svg" viewBox="416.00 252.00 1017.00 1589.00">
  <path d="M 711.00 980.00 L 713.00 944.00 L 700.00 918.00 L 672.00 902.00 L 643.00 877.00 L 613.00 843.00 L 576.00 814.00 L 532.00 790.00 L 531.00 788.00 L 573.00 808.00 L 566.00 802.00 L 510.00 770.00 L 471.00 738.00 L 449.00 706.00 L 434.00 660.00 L 426.00 600.00 L 428.00 544.00 L 440.00 492.00 L 454.00 454.00 L 470.00 430.00 L 493.00 407.00 L 523.00 385.00 L 544.00 356.00 L 556.00 320.00 L 570.00 306.00 L 586.00 314.00 L 609.00 308.00 L 639.00 288.00 L 660.00 278.00 L 672.00 278.00 L 681.00 283.00 L 687.00 293.00 L 689.00 295.00 L 687.00 289.00 L 689.00 288.00 L 695.00 292.00 L 722.00 286.00 L 770.00 270.00 L 813.00 262.00 L 851.00 262.00 L 893.00 270.00 L 939.00 286.00 L 966.00 293.00 L 974.00 291.00 L 1004.00 301.00 L 1056.00 323.00 L 1094.00 345.00 L 1118.00 367.00 L 1131.00 376.00 L 1133.00 372.00 L 1135.00 373.00 L 1137.00 379.00 L 1143.00 383.00 L 1153.00 385.00 L 1172.00 400.00 L 1200.00 428.00 L 1213.00 449.00 L 1211.00 463.00 L 1213.00 465.00 L 1219.00 455.00 L 1220.00 456.00 L 1216.00 468.00 L 1217.00 469.00 L 1223.00 459.00 L 1225.00 462.00 L 1223.00 478.00 L 1225.00 480.00 L 1231.00 468.00 L 1231.00 470.00 L 1225.00 486.00 L 1226.00 488.00 L 1234.00 476.00 L 1236.00 482.00 L 1232.00 506.00 L 1235.00 511.00 L 1245.00 497.00 L 1247.00 503.00 L 1241.00 529.00 L 1243.00 534.00 L 1253.00 518.00 L 1255.00 517.00 L 1249.00 531.00 L 1250.00 533.00 L 1258.00 523.00 L 1257.00 527.00 L 1247.00 545.00 L 1247.00 547.00 L 1257.00 533.00 L 1257.00 536.00 L 1247.00 556.00 L 1248.00 559.00 L 1260.00 545.00 L 1260.00 548.00 L 1248.00 568.00 L 1248.00 571.00 L 1260.00 557.00 L 1259.00 562.00 L 1245.00 586.00 L 1245.00 589.00 L 1259.00 571.00 L 1259.00 573.00 L 1245.00 595.00 L 1245.00 598.00 L 1259.00 582.00 L 1258.00 586.00 L 1242.00 610.00 L 1235.00 630.00 L 1237.00 646.00 L 1259.00 681.00 L 1301.00 735.00 L 1321.00 769.00 L 1319.00 783.00 L 1306.00 799.00 L 1282.00 817.00 L 1277.00 822.00 L 1291.00 814.00 L 1289.00 819.00 L 1271.00 837.00 L 1265.00 855.00 L 1271.00 873.00 L 1268.00 903.00 L 1256.00 945.00 L 1252.00 983.00 L 1256.00 1017.00 L 1255.00 1041.00 L 1249.00 1055.00 L 1230.00 1076.00 L 1198.00 1104.00 L 1168.00 1124.00 L 1140.00 1136.00 L 1135.00 1154.00 L 1153.00 1178.00 L 1150.00 1179.00 L 1126.00 1157.00 L 1144.00 1182.00 L 1204.00 1254.00 L 1202.00 1255.00 L 1138.00 1185.00 L 1187.00 1249.00 L 1349.00 1447.00 L 1378.00 1485.00 L 1274.00 1363.00 L 1278.00 1371.00 L 1390.00 1509.00 L 1365.00 1480.00 L 1203.00 1284.00 L 1204.00 1287.00 L 1368.00 1489.00 L 1384.00 1509.00 L 1252.00 1347.00 L 1253.00 1349.00 L 1387.00 1515.00 L 1386.00 1514.00 L 1250.00 1346.00 L 1252.00 1352.00 L 1392.00 1532.00 L 1386.00 1526.00 L 1234.00 1334.00 L 1235.00 1337.00 L 1389.00 1535.00 L 1420.00 1576.00 L 1328.00 1460.00 L 1329.00 1464.00 L 1423.00 1588.00 L 1403.00 1563.00 L 1269.00 1389.00 L 1269.00 1392.00 L 1403.00 1572.00 L 1381.00 1544.00 L 1203.00 1308.00 L 1203.00 1309.00 L 1381.00 1547.00 L 1416.00 1595.00 L 1308.00 1453.00 L 1308.00 1456.00 L 1416.00 1604.00 L 1400.00 1584.00 L 1260.00 1396.00 L 1260.00 1399.00 L 1400.00 1593.00 L 1409.00 1608.00 L 1287.00 1444.00 L 1286.00 1447.00 L 1406.00 1617.00 L 1394.00 1601.00 L 1250.00 1399.00 L 1249.00 1402.00 L 1391.00 1610.00 L 1389.00 1609.00 L 1243.00 1399.00 L 1242.00 1402.00 L 1386.00 1618.00 L 1382.00 1615.00 L 1230.00 1393.00 L 1227.00 1397.00 L 1373.00 1627.00 L 1368.00 1622.00 L 1212.00 1382.00 L 1210.00 1385.00 L 1362.00 1631.00 L 1370.00 1645.00 L 1234.00 1427.00 L 1232.00 1430.00 L 1364.00 1654.00 L 1354.00 1640.00 L 1202.00 1388.00 L 1201.00 1389.00 L 1351.00 1643.00 L 1350.00 1642.00 L 1198.00 1386.00 L 1196.00 1389.00 L 1344.00 1651.00 L 1414.00 1786.00 L 1406.00 1794.00 L 1378.00 1809.00 L 1330.00 1831.00 L 1259.00 1805.00 L 1165.00 1731.00 L 1061.00 1659.00 L 947.00 1589.00 L 853.00 1538.00 L 779.00 1506.00 L 689.00 1474.00 L 583.00 1442.00 L 543.00 1382.00 L 569.00 1294.00 L 602.00 1205.00 L 642.00 1115.00 L 672.00 1055.00 L 692.00 1025.00 L 704.00 1007.00 L 708.00 1001.00 L 711.00 980.00 Z" fill="black" stroke="black" stroke-width="1"/>
</svg>