<?xml version="1.0" encoding="UTF-8"?>
<svg xmlns="http://www.w3.org/2000/svg" viewBox="329.00 216.00 935.00 1640.00">
  <path d="M 482.00 1033.00 L 490.00 991.00 L 498.00 958.00 L 506.00 934.00 L 503.00 916.00 L 489.00 904.00 L 490.00 901.00 L 506.00 907.00 L 504.00 905.00 L 484.00 895.00 L 470.00 886.00 L 462.00 878.00 L 470.00 880.00 L 494.00 892.00 L 492.00 890.00 L 464.00 874.00 L 466.00 874.00 L 498.00 890.00 L 495.00 887.00 L 457.00 865.00 L 435.00 848.00 L 429.00 836.00 L 424.00 821.00 L 420.00 803.00 L 414.00 786.00 L 406.00 770.00 L 402.00 755.00 L 402.00 741.00 L 398.00 725.00 L 390.00 707.00 L 385.00 693.00 L 383.00 683.00 L 383.00 669.00 L 385.00 651.00 L 384.00 634.00 L 380.00 618.00 L 378.00 600.00 L 378.00 580.00 L 383.00 558.00 L 393.00 534.00 L 404.00 494.00 L 416.00 438.00 L 429.00 397.00 L 443.00 371.00 L 465.00 342.00 L 495.00 310.00 L 523.00 286.00 L 549.00 270.00 L 573.00 257.00 L 595.00 247.00 L 618.00 239.00 L 642.00 233.00 L 672.00 230.00 L 708.00 230.00 L 729.00 229.00 L 735.00 227.00 L 744.00 226.00 L 756.00 226.00 L 772.00 230.00 L 792.00 238.00 L 808.00 242.00 L 820.00 242.00 L 840.00 245.00 L 868.00 251.00 L 897.00 262.00 L 927.00 278.00 L 951.00 287.00 L 969.00 289.00 L 996.00 301.00 L 1032.00 323.00 L 1056.00 340.00 L 1068.00 352.00 L 1076.00 365.00 L 1080.00 379.00 L 1081.00 391.00 L 1079.00 401.00 L 1080.00 403.00 L 1084.00 397.00 L 1084.00 399.00 L 1080.00 409.00 L 1079.00 416.00 L 1081.00 420.00 L 1088.00 431.00 L 1100.00 449.00 L 1111.00 462.00 L 1121.00 470.00 L 1131.00 483.00 L 1141.00 501.00 L 1147.00 514.00 L 1149.00 522.00 L 1147.00 532.00 L 1141.00 544.00 L 1140.00 547.00 L 1144.00 541.00 L 1144.00 545.00 L 1140.00 559.00 L 1142.00 574.00 L 1150.00 590.00 L 1163.00 607.00 L 1181.00 625.00 L 1195.00 641.00 L 1205.00 655.00 L 1219.00 669.00 L 1237.00 683.00 L 1248.00 695.00 L 1252.00 705.00 L 1254.00 713.00 L 1254.00 719.00 L 1239.00 735.00 L 1209.00 761.00 L 1208.00 764.00 L 1236.00 744.00 L 1235.00 747.00 L 1205.00 773.00 L 1189.00 791.00 L 1187.00 801.00 L 1189.00 812.00 L 1195.00 824.00 L 1195.00 836.00 L 1189.00 848.00 L 1189.00 861.00 L 1195.00 875.00 L 1192.00 896.00 L 1180.00 924.00 L 1178.00 946.00 L 1186.00 962.00 L 1190.00 980.00 L 1190.00 1000.00 L 1183.00 1018.00 L 1169.00 1034.00 L 1159.00 1043.00 L 1153.00 1045.00 L 1150.00 1048.00 L 1150.00 1052.00 L 1156.00 1058.00 L 1168.00 1066.00 L 1176.00 1076.00 L 1180.00 1088.00 L 1181.00 1096.00 L 1179.00 1100.00 L 1170.00 1105.00 L 1154.00 1111.00 L 1143.00 1118.00 L 1137.00 1126.00 L 1131.00 1131.00 L 1125.00 1133.00 L 1119.00 1140.00 L 1113.00 1152.00 L 1106.00 1160.00 L 1098.00 1164.00 L 1089.00 1177.00 L 1079.00 1199.00 L 1069.00 1215.00 L 1059.00 1225.00 L 1059.00 1239.00 L 1069.00 1257.00 L 1079.00 1283.00 L 1089.00 1317.00 L 1100.00 1346.00 L 1112.00 1370.00 L 1116.00 1380.00 L 1112.00 1376.00 L 1133.00 1417.00 L 1179.00 1503.00 L 1209.00 1568.00 L 1223.00 1612.00 L 1229.00 1633.00 L 1227.00 1631.00 L 1230.00 1647.00 L 1238.00 1681.00 L 1242.00 1718.00 L 1242.00 1758.00 L 1239.00 1784.00 L 1233.00 1796.00 L 1222.00 1810.00 L 1206.00 1826.00 L 1191.00 1837.00 L 1177.00 1843.00 L 1162.00 1846.00 L 1146.00 1846.00 L 1131.00 1844.00 L 1117.00 1840.00 L 1090.00 1828.00 L 1050.00 1808.00 L 1022.00 1792.00 L 1006.00 1780.00 L 986.00 1769.00 L 962.00 1759.00 L 948.00 1752.00 L 944.00 1748.00 L 935.00 1744.00 L 921.00 1740.00 L 895.00 1728.00 L 857.00 1708.00 L 821.00 1691.00 L 787.00 1677.00 L 748.00 1663.00 L 704.00 1649.00 L 656.00 1636.00 L 604.00 1624.00 L 568.00 1614.00 L 548.00 1606.00 L 529.00 1600.00 L 511.00 1596.00 L 501.00 1595.00 L 499.00 1597.00 L 488.00 1595.00 L 468.00 1589.00 L 455.00 1587.00 L 449.00 1589.00 L 435.00 1588.00 L 413.00 1584.00 L 387.00 1582.00 L 357.00 1582.00 L 341.00 1578.00 L 339.00 1570.00 L 340.00 1548.00 L 344.00 1512.00 L 350.00 1477.00 L 358.00 1443.00 L 370.00 1400.00 L 386.00 1348.00 L 410.00 1289.00 L 442.00 1223.00 L 462.00 1177.00 L 470.00 1151.00 L 473.00 1127.00 L 471.00 1105.00 L 472.00 1085.00 L 476.00 1067.00 L 478.00 1057.00 L 478.00 1055.00 L 482.00 1033.00 Z" fill="black" stroke="black" stroke-width="1"/>
</svg>