<?xml version="1.0" encoding="UTF-8"?>
<svg xmlns="http://www.w3.org/2000/svg" viewBox="345.00 213.00 926.00 1610.00">
  <path d="M 486.00 1007.00 L 486.00 945.00 L 488.00 906.00 L 492.00 890.00 L 498.00 877.00 L 506.00 867.00 L 506.00 852.00 L 498.00 832.00 L 492.00 808.00 L 488.00 780.00 L 477.00 742.00 L 459.00 694.00 L 447.00 654.00 L 441.00 622.00 L 441.00 580.00 L 447.00 528.00 L 458.00 474.00 L 474.00 418.00 L 491.00 378.00 L 509.00 354.00 L 540.00 323.00 L 584.00 285.00 L 636.00 255.00 L 696.00 233.00 L 756.00 223.00 L 816.00 225.00 L 864.00 231.00 L 900.00 241.00 L 945.00 258.00 L 999.00 282.00 L 1044.00 311.00 L 1080.00 345.00 L 1097.00 369.00 L 1095.00 383.00 L 1097.00 384.00 L 1103.00 372.00 L 1106.00 376.00 L 1106.00 396.00 L 1109.00 400.00 L 1115.00 388.00 L 1117.00 388.00 L 1115.00 400.00 L 1117.00 402.00 L 1123.00 394.00 L 1124.00 397.00 L 1120.00 411.00 L 1122.00 413.00 L 1130.00 403.00 L 1132.00 405.00 L 1128.00 419.00 L 1130.00 421.00 L 1138.00 411.00 L 1139.00 413.00 L 1133.00 427.00 L 1134.00 429.00 L 1142.00 419.00 L 1144.00 422.00 L 1140.00 438.00 L 1141.00 440.00 L 1147.00 428.00 L 1149.00 431.00 L 1147.00 449.00 L 1149.00 452.00 L 1155.00 440.00 L 1156.00 443.00 L 1152.00 461.00 L 1157.00 481.00 L 1171.00 503.00 L 1183.00 533.00 L 1193.00 571.00 L 1193.00 600.00 L 1183.00 620.00 L 1178.00 636.00 L 1178.00 648.00 L 1199.00 687.00 L 1241.00 753.00 L 1261.00 790.00 L 1259.00 798.00 L 1242.00 812.00 L 1210.00 832.00 L 1209.00 835.00 L 1239.00 821.00 L 1238.00 825.00 L 1206.00 847.00 L 1188.00 870.00 L 1184.00 894.00 L 1178.00 910.00 L 1170.00 918.00 L 1166.00 928.00 L 1166.00 940.00 L 1161.00 954.00 L 1151.00 970.00 L 1151.00 986.00 L 1161.00 1002.00 L 1165.00 1019.00 L 1163.00 1037.00 L 1160.00 1052.00 L 1156.00 1064.00 L 1144.00 1078.00 L 1124.00 1094.00 L 1114.00 1104.00 L 1114.00 1108.00 L 1119.00 1114.00 L 1129.00 1122.00 L 1134.00 1129.00 L 1134.00 1135.00 L 1127.00 1146.00 L 1113.00 1162.00 L 1114.00 1175.00 L 1130.00 1185.00 L 1135.00 1189.00 L 1129.00 1187.00 L 1130.00 1190.00 L 1138.00 1198.00 L 1132.00 1197.00 L 1112.00 1187.00 L 1117.00 1192.00 L 1147.00 1212.00 L 1146.00 1214.00 L 1114.00 1198.00 L 1114.00 1200.00 L 1146.00 1220.00 L 1149.00 1223.00 L 1123.00 1209.00 L 1122.00 1211.00 L 1146.00 1229.00 L 1142.00 1229.00 L 1110.00 1211.00 L 1126.00 1225.00 L 1190.00 1271.00 L 1189.00 1272.00 L 1123.00 1228.00 L 1127.00 1232.00 L 1201.00 1284.00 L 1201.00 1286.00 L 1127.00 1238.00 L 1125.00 1241.00 L 1195.00 1295.00 L 1195.00 1298.00 L 1125.00 1250.00 L 1121.00 1250.00 L 1183.00 1298.00 L 1198.00 1320.00 L 1166.00 1316.00 L 1140.00 1307.00 L 1120.00 1293.00 L 1117.00 1304.00 L 1131.00 1340.00 L 1140.00 1370.00 L 1144.00 1394.00 L 1153.00 1418.00 L 1167.00 1442.00 L 1165.00 1443.00 L 1147.00 1421.00 L 1150.00 1426.00 L 1174.00 1458.00 L 1184.00 1472.00 L 1180.00 1468.00 L 1183.00 1474.00 L 1193.00 1490.00 L 1204.00 1515.00 L 1216.00 1549.00 L 1228.00 1593.00 L 1240.00 1647.00 L 1246.00 1691.00 L 1246.00 1725.00 L 1244.00 1751.00 L 1240.00 1769.00 L 1226.00 1787.00 L 1202.00 1805.00 L 1183.00 1813.00 L 1169.00 1811.00 L 1121.00 1793.00 L 1039.00 1759.00 L 994.00 1740.00 L 986.00 1736.00 L 979.00 1729.00 L 973.00 1719.00 L 970.00 1718.00 L 970.00 1726.00 L 968.00 1728.00 L 964.00 1724.00 L 960.00 1723.00 L 956.00 1725.00 L 938.00 1717.00 L 906.00 1699.00 L 890.00 1692.00 L 890.00 1696.00 L 880.00 1692.00 L 860.00 1680.00 L 839.00 1670.00 L 817.00 1662.00 L 804.00 1659.00 L 800.00 1661.00 L 776.00 1652.00 L 732.00 1632.00 L 692.00 1618.00 L 656.00 1610.00 L 626.00 1601.00 L 602.00 1591.00 L 572.00 1583.00 L 536.00 1577.00 L 516.00 1573.00 L 512.00 1571.00 L 510.00 1567.00 L 510.00 1561.00 L 506.00 1561.00 L 498.00 1567.00 L 490.00 1570.00 L 482.00 1570.00 L 465.00 1566.00 L 439.00 1558.00 L 422.00 1556.00 L 414.00 1560.00 L 408.00 1559.00 L 404.00 1553.00 L 398.00 1552.00 L 390.00 1556.00 L 379.00 1557.00 L 365.00 1555.00 L 357.00 1551.00 L 355.00 1545.00 L 367.00 1494.00 L 393.00 1398.00 L 418.00 1327.00 L 442.00 1281.00 L 461.00 1249.00 L 475.00 1231.00 L 487.00 1208.00 L 497.00 1180.00 L 498.00 1139.00 L 490.00 1085.00 L 486.00 1053.00 L 486.00 1043.00 L 486.00 1007.00 Z" fill="black" stroke="black" stroke-width="1"/>
</svg>