<?xml version="1.0" encoding="UTF-8"?>
<svg xmlns="http://www.w3.org/2000/svg" viewBox="352.00 270.00 917.00 1439.00">
  <path d="M 549.00 989.00 L 547.00 939.00 L 527.00 903.00 L 489.00 881.00 L 488.00 878.00 L 524.00 894.00 L 517.00 888.00 L 467.00 860.00 L 467.00 858.00 L 517.00 882.00 L 515.00 880.00 L 461.00 852.00 L 443.00 842.00 L 461.00 850.00 L 455.00 843.00 L 425.00 821.00 L 403.00 799.00 L 389.00 777.00 L 376.00 740.00 L 364.00 688.00 L 362.00 623.00 L 370.00 545.00 L 385.00 485.00 L 407.00 443.00 L 429.00 415.00 L 451.00 401.00 L 473.00 370.00 L 495.00 322.00 L 514.00 309.00 L 530.00 331.00 L 550.00 328.00 L 574.00 300.00 L 603.00 284.00 L 637.00 280.00 L 658.00 281.00 L 666.00 287.00 L 672.00 300.00 L 676.00 320.00 L 677.00 319.00 L 675.00 297.00 L 677.00 297.00 L 683.00 319.00 L 685.00 320.00 L 683.00 300.00 L 685.00 300.00 L 691.00 320.00 L 723.00 331.00 L 781.00 333.00 L 857.00 355.00 L 951.00 397.00 L 1003.00 426.00 L 1013.00 442.00 L 1019.00 448.00 L 1021.00 444.00 L 1032.00 464.00 L 1052.00 508.00 L 1068.00 546.00 L 1080.00 578.00 L 1088.00 617.00 L 1092.00 663.00 L 1108.00 706.00 L 1136.00 746.00 L 1152.00 774.00 L 1156.00 790.00 L 1145.00 808.00 L 1119.00 828.00 L 1115.00 833.00 L 1133.00 823.00 L 1133.00 825.00 L 1115.00 839.00 L 1109.00 856.00 L 1115.00 876.00 L 1113.00 907.00 L 1103.00 949.00 L 1101.00 980.00 L 1107.00 1000.00 L 1107.00 1021.00 L 1101.00 1043.00 L 1093.00 1058.00 L 1083.00 1066.00 L 1039.00 1078.00 L 961.00 1094.00 L 917.00 1110.00 L 907.00 1126.00 L 988.00 1245.00 L 1160.00 1467.00 L 1159.00 1470.00 L 985.00 1254.00 L 988.00 1258.00 L 1168.00 1482.00 L 1249.00 1584.00 L 1231.00 1564.00 L 1234.00 1569.00 L 1258.00 1599.00 L 1256.00 1597.00 L 1228.00 1563.00 L 1229.00 1565.00 L 1259.00 1603.00 L 1254.00 1598.00 L 1214.00 1550.00 L 1215.00 1554.00 L 1257.00 1610.00 L 1253.00 1607.00 L 1203.00 1545.00 L 1204.00 1548.00 L 1256.00 1616.00 L 1251.00 1612.00 L 1189.00 1536.00 L 1189.00 1539.00 L 1251.00 1621.00 L 1248.00 1619.00 L 1180.00 1533.00 L 1180.00 1536.00 L 1248.00 1628.00 L 1246.00 1627.00 L 1174.00 1533.00 L 1174.00 1536.00 L 1246.00 1636.00 L 1241.00 1633.00 L 1159.00 1527.00 L 1158.00 1530.00 L 1238.00 1642.00 L 1182.00 1563.00 L 990.00 1293.00 L 989.00 1295.00 L 1179.00 1569.00 L 1229.00 1644.00 L 1139.00 1520.00 L 1138.00 1523.00 L 1226.00 1653.00 L 1176.00 1580.00 L 988.00 1304.00 L 987.00 1307.00 L 1173.00 1589.00 L 1217.00 1657.00 L 1119.00 1511.00 L 1118.00 1514.00 L 1214.00 1666.00 L 1210.00 1663.00 L 1106.00 1505.00 L 1105.00 1506.00 L 1207.00 1666.00 L 1205.00 1665.00 L 1099.00 1503.00 L 1097.00 1505.00 L 1199.00 1671.00 L 1160.00 1609.00 L 980.00 1319.00 L 978.00 1321.00 L 1154.00 1615.00 L 1185.00 1671.00 L 1071.00 1489.00 L 1068.00 1492.00 L 1176.00 1680.00 L 1145.00 1627.00 L 975.00 1333.00 L 974.00 1335.00 L 1142.00 1633.00 L 1169.00 1683.00 L 1055.00 1485.00 L 1054.00 1487.00 L 1166.00 1689.00 L 1164.00 1687.00 L 1048.00 1481.00 L 1045.00 1484.00 L 1155.00 1696.00 L 1151.00 1693.00 L 1033.00 1475.00 L 1031.00 1477.00 L 1145.00 1699.00 L 1123.00 1658.00 L 965.00 1354.00 L 961.00 1357.00 L 1111.00 1667.00 L 1111.00 1669.00 L 961.00 1363.00 L 957.00 1360.00 L 1099.00 1660.00 L 1113.00 1692.00 L 999.00 1456.00 L 994.00 1453.00 L 1098.00 1683.00 L 1084.00 1654.00 L 952.00 1366.00 L 950.00 1364.00 L 1078.00 1648.00 L 1088.00 1672.00 L 980.00 1436.00 L 976.00 1433.00 L 1076.00 1663.00 L 1066.00 1642.00 L 946.00 1370.00 L 943.00 1368.00 L 1057.00 1636.00 L 1063.00 1652.00 L 961.00 1416.00 L 958.00 1414.00 L 1054.00 1646.00 L 1048.00 1632.00 L 940.00 1372.00 L 939.00 1371.00 L 1045.00 1629.00 L 1045.00 1631.00 L 939.00 1377.00 L 935.00 1374.00 L 1033.00 1622.00 L 1034.00 1626.00 L 938.00 1386.00 L 936.00 1385.00 L 1028.00 1623.00 L 1029.00 1626.00 L 939.00 1394.00 L 937.00 1392.00 L 1023.00 1620.00 L 1021.00 1616.00 L 931.00 1380.00 L 929.00 1379.00 L 1015.00 1613.00 L 1007.00 1695.00 L 905.00 1625.00 L 819.00 1570.00 L 749.00 1530.00 L 687.00 1496.00 L 633.00 1468.00 L 558.00 1439.00 L 462.00 1409.00 L 421.00 1368.00 L 435.00 1316.00 L 458.00 1265.00 L 490.00 1215.00 L 516.00 1166.00 L 536.00 1118.00 L 547.00 1076.00 L 549.00 1040.00 L 550.00 1020.00 L 550.00 1016.00 L 549.00 989.00 Z" fill="black" stroke="black" stroke-width="1"/>
</svg>