<?xml version="1.0" encoding="UTF-8"?>
<svg xmlns="http://www.w3.org/2000/svg" viewBox="369.00 252.00 917.00 1475.00">
  <path d="M 483.00 944.00 L 477.00 884.00 L 460.00 839.00 L 432.00 809.00 L 445.00 760.00 L 499.00 692.00 L 531.00 631.00 L 541.00 577.00 L 543.00 540.00 L 537.00 520.00 L 538.00 517.00 L 546.00 531.00 L 546.00 528.00 L 538.00 508.00 L 539.00 505.00 L 549.00 519.00 L 549.00 513.00 L 539.00 487.00 L 541.00 484.00 L 555.00 504.00 L 556.00 501.00 L 544.00 475.00 L 545.00 473.00 L 559.00 495.00 L 561.00 492.00 L 551.00 464.00 L 552.00 462.00 L 564.00 486.00 L 565.00 484.00 L 555.00 456.00 L 556.00 453.00 L 568.00 475.00 L 569.00 473.00 L 559.00 447.00 L 559.00 441.00 L 569.00 455.00 L 570.00 452.00 L 562.00 432.00 L 564.00 436.00 L 576.00 464.00 L 578.00 462.00 L 570.00 430.00 L 572.00 425.00 L 584.00 447.00 L 586.00 445.00 L 578.00 419.00 L 580.00 417.00 L 592.00 439.00 L 594.00 435.00 L 586.00 405.00 L 587.00 404.00 L 597.00 432.00 L 602.00 428.00 L 602.00 392.00 L 607.00 387.00 L 617.00 413.00 L 619.00 411.00 L 613.00 381.00 L 615.00 379.00 L 625.00 405.00 L 627.00 401.00 L 621.00 367.00 L 624.00 363.00 L 636.00 389.00 L 639.00 387.00 L 633.00 357.00 L 634.00 355.00 L 642.00 381.00 L 645.00 380.00 L 643.00 352.00 L 644.00 346.00 L 648.00 362.00 L 650.00 360.00 L 650.00 340.00 L 652.00 335.00 L 656.00 345.00 L 666.00 340.00 L 682.00 320.00 L 732.00 298.00 L 816.00 274.00 L 886.00 262.00 L 942.00 262.00 L 1006.00 275.00 L 1078.00 301.00 L 1136.00 337.00 L 1180.00 383.00 L 1219.00 450.00 L 1253.00 538.00 L 1272.00 607.00 L 1276.00 657.00 L 1264.00 728.00 L 1236.00 820.00 L 1217.00 876.00 L 1207.00 896.00 L 1192.00 908.00 L 1172.00 912.00 L 1171.00 914.00 L 1189.00 914.00 L 1188.00 916.00 L 1168.00 920.00 L 1166.00 923.00 L 1182.00 925.00 L 1181.00 930.00 L 1163.00 938.00 L 1161.00 958.00 L 1175.00 990.00 L 1184.00 1049.00 L 1188.00 1135.00 L 1185.00 1185.00 L 1175.00 1199.00 L 1170.00 1221.00 L 1170.00 1251.00 L 1180.00 1309.00 L 1200.00 1395.00 L 1210.00 1447.00 L 1210.00 1465.00 L 1202.00 1486.00 L 1186.00 1510.00 L 1160.00 1527.00 L 1124.00 1537.00 L 1033.00 1545.00 L 887.00 1551.00 L 758.00 1573.00 L 646.00 1611.00 L 560.00 1651.00 L 500.00 1693.00 L 456.00 1715.00 L 428.00 1717.00 L 461.00 1622.00 L 555.00 1430.00 L 552.00 1428.00 L 452.00 1616.00 L 450.00 1613.00 L 546.00 1419.00 L 541.00 1414.00 L 435.00 1598.00 L 434.00 1597.00 L 538.00 1411.00 L 537.00 1408.00 L 431.00 1588.00 L 430.00 1586.00 L 534.00 1402.00 L 533.00 1396.00 L 427.00 1568.00 L 419.00 1580.00 L 509.00 1432.00 L 509.00 1429.00 L 419.00 1571.00 L 405.00 1591.00 L 467.00 1489.00 L 468.00 1484.00 L 408.00 1576.00 L 379.00 1619.00 L 381.00 1613.00 L 432.00 1532.00 L 532.00 1376.00 L 533.00 1373.00 L 435.00 1523.00 L 435.00 1521.00 L 533.00 1367.00 L 573.00 1296.00 L 555.00 1308.00 L 551.00 1307.00 L 561.00 1293.00 L 546.00 1305.00 L 506.00 1343.00 L 504.00 1337.00 L 540.00 1287.00 L 537.00 1286.00 L 495.00 1334.00 L 497.00 1330.00 L 543.00 1274.00 L 544.00 1271.00 L 500.00 1321.00 L 499.00 1319.00 L 541.00 1265.00 L 557.00 1243.00 L 547.00 1253.00 L 546.00 1250.00 L 554.00 1234.00 L 549.00 1232.00 L 531.00 1244.00 L 529.00 1241.00 L 543.00 1223.00 L 542.00 1221.00 L 526.00 1235.00 L 525.00 1233.00 L 539.00 1215.00 L 540.00 1196.00 L 528.00 1176.00 L 530.00 1160.00 L 546.00 1148.00 L 546.00 1147.00 L 530.00 1157.00 L 531.00 1155.00 L 549.00 1141.00 L 545.00 1130.00 L 519.00 1122.00 L 500.00 1111.00 L 488.00 1097.00 L 485.00 1064.00 L 491.00 1012.00 L 492.00 983.00 L 488.00 977.00 L 483.00 944.00 Z" fill="black" stroke="black" stroke-width="1"/>
</svg>