<?xml version="1.0" encoding="UTF-8"?>
<svg xmlns="http://www.w3.org/2000/svg" viewBox="239.00 252.00 833.00 1448.00">
  <path d="M 478.00 977.00 L 478.00 967.00 L 458.00 942.00 L 418.00 902.00 L 380.00 871.00 L 344.00 849.00 L 313.00 822.00 L 287.00 790.00 L 267.00 745.00 L 253.00 687.00 L 249.00 630.00 L 255.00 574.00 L 274.00 513.00 L 306.00 447.00 L 344.00 395.00 L 388.00 357.00 L 450.00 317.00 L 530.00 275.00 L 572.00 262.00 L 576.00 278.00 L 578.00 279.00 L 578.00 265.00 L 580.00 265.00 L 584.00 279.00 L 586.00 280.00 L 586.00 268.00 L 589.00 267.00 L 595.00 277.00 L 621.00 279.00 L 667.00 273.00 L 696.00 273.00 L 708.00 279.00 L 714.00 292.00 L 714.00 312.00 L 716.00 314.00 L 720.00 298.00 L 722.00 299.00 L 722.00 317.00 L 752.00 334.00 L 812.00 350.00 L 868.00 381.00 L 920.00 427.00 L 954.00 466.00 L 970.00 498.00 L 976.00 521.00 L 972.00 535.00 L 974.00 538.00 L 982.00 530.00 L 983.00 533.00 L 977.00 547.00 L 979.00 549.00 L 989.00 539.00 L 990.00 543.00 L 982.00 561.00 L 984.00 564.00 L 996.00 552.00 L 997.00 554.00 L 987.00 570.00 L 988.00 573.00 L 1000.00 563.00 L 1001.00 566.00 L 991.00 582.00 L 992.00 585.00 L 1004.00 575.00 L 1004.00 579.00 L 992.00 597.00 L 993.00 600.00 L 1007.00 588.00 L 1008.00 593.00 L 996.00 615.00 L 997.00 618.00 L 1011.00 602.00 L 1011.00 605.00 L 997.00 627.00 L 998.00 629.00 L 1014.00 611.00 L 1015.00 614.00 L 1001.00 638.00 L 1002.00 641.00 L 1018.00 623.00 L 1018.00 625.00 L 1002.00 647.00 L 1002.00 650.00 L 1018.00 634.00 L 1019.00 636.00 L 1005.00 656.00 L 1005.00 659.00 L 1019.00 645.00 L 1019.00 648.00 L 1005.00 668.00 L 1004.00 672.00 L 1016.00 660.00 L 1013.00 678.00 L 995.00 726.00 L 1006.00 781.00 L 1046.00 843.00 L 1054.00 887.00 L 1030.00 913.00 L 1017.00 945.00 L 1015.00 983.00 L 1008.00 1012.00 L 996.00 1032.00 L 991.00 1057.00 L 993.00 1087.00 L 983.00 1111.00 L 961.00 1129.00 L 913.00 1143.00 L 839.00 1153.00 L 866.00 1275.00 L 994.00 1509.00 L 992.00 1510.00 L 860.00 1278.00 L 860.00 1280.00 L 992.00 1516.00 L 1032.00 1590.00 L 980.00 1502.00 L 981.00 1507.00 L 1035.00 1605.00 L 1033.00 1603.00 L 975.00 1501.00 L 975.00 1505.00 L 1033.00 1615.00 L 994.00 1544.00 L 858.00 1292.00 L 858.00 1294.00 L 994.00 1550.00 L 1062.00 1682.00 L 1062.00 1690.00 L 1027.00 1627.00 L 957.00 1493.00 L 956.00 1495.00 L 1024.00 1633.00 L 1021.00 1630.00 L 947.00 1486.00 L 946.00 1488.00 L 1018.00 1636.00 L 1014.00 1631.00 L 934.00 1473.00 L 933.00 1476.00 L 1011.00 1640.00 L 1008.00 1637.00 L 924.00 1467.00 L 922.00 1469.00 L 1002.00 1643.00 L 999.00 1640.00 L 913.00 1460.00 L 911.00 1463.00 L 993.00 1649.00 L 989.00 1644.00 L 899.00 1448.00 L 898.00 1450.00 L 986.00 1650.00 L 967.00 1607.00 L 841.00 1321.00 L 837.00 1325.00 L 955.00 1619.00 L 954.00 1621.00 L 834.00 1331.00 L 831.00 1334.00 L 945.00 1630.00 L 956.00 1662.00 L 864.00 1430.00 L 861.00 1432.00 L 947.00 1668.00 L 935.00 1638.00 L 825.00 1342.00 L 824.00 1343.00 L 932.00 1641.00 L 939.00 1665.00 L 845.00 1415.00 L 838.00 1415.00 L 918.00 1665.00 L 910.00 1644.00 L 814.00 1352.00 L 812.00 1350.00 L 904.00 1638.00 L 908.00 1654.00 L 824.00 1398.00 L 820.00 1395.00 L 896.00 1645.00 L 891.00 1631.00 L 805.00 1353.00 L 802.00 1350.00 L 882.00 1622.00 L 882.00 1625.00 L 802.00 1359.00 L 798.00 1356.00 L 870.00 1616.00 L 869.00 1618.00 L 795.00 1362.00 L 790.00 1358.00 L 854.00 1606.00 L 854.00 1609.00 L 790.00 1367.00 L 787.00 1364.00 L 845.00 1600.00 L 791.00 1663.00 L 625.00 1553.00 L 480.00 1473.00 L 356.00 1423.00 L 308.00 1358.00 L 336.00 1278.00 L 380.00 1190.00 L 440.00 1094.00 L 472.00 1033.00 L 476.00 1007.00 L 478.00 991.00 L 478.00 985.00 L 478.00 977.00 Z" fill="black" stroke="black" stroke-width="1"/>
</svg>