<?xml version="1.0" encoding="UTF-8"?>
<svg xmlns="http://www.w3.org/2000/svg" viewBox="347.00 194.00 981.00 1587.00">
  <path d="M 460.00 979.00 L 460.00 953.00 L 466.00 910.00 L 478.00 850.00 L 486.00 814.00 L 490.00 802.00 L 499.00 787.00 L 513.00 769.00 L 516.00 753.00 L 508.00 739.00 L 502.00 712.00 L 498.00 672.00 L 488.00 625.00 L 472.00 571.00 L 464.00 526.00 L 464.00 490.00 L 471.00 450.00 L 485.00 406.00 L 500.00 371.00 L 516.00 345.00 L 536.00 318.00 L 560.00 290.00 L 582.00 267.00 L 602.00 249.00 L 632.00 231.00 L 672.00 213.00 L 727.00 204.00 L 797.00 204.00 L 856.00 210.00 L 904.00 222.00 L 940.00 238.00 L 964.00 258.00 L 988.00 273.00 L 1012.00 283.00 L 1034.00 295.00 L 1054.00 309.00 L 1074.00 331.00 L 1094.00 361.00 L 1109.00 378.00 L 1119.00 382.00 L 1123.00 391.00 L 1121.00 405.00 L 1124.00 408.00 L 1132.00 400.00 L 1134.00 403.00 L 1130.00 417.00 L 1132.00 419.00 L 1140.00 409.00 L 1141.00 412.00 L 1135.00 428.00 L 1136.00 429.00 L 1144.00 415.00 L 1146.00 416.00 L 1142.00 432.00 L 1143.00 434.00 L 1149.00 422.00 L 1149.00 426.00 L 1143.00 446.00 L 1144.00 448.00 L 1152.00 432.00 L 1153.00 435.00 L 1147.00 457.00 L 1148.00 463.00 L 1156.00 453.00 L 1157.00 455.00 L 1151.00 469.00 L 1151.00 471.00 L 1157.00 461.00 L 1159.00 461.00 L 1157.00 471.00 L 1158.00 473.00 L 1162.00 467.00 L 1161.00 470.00 L 1155.00 482.00 L 1153.00 491.00 L 1155.00 497.00 L 1161.00 494.00 L 1171.00 482.00 L 1171.00 491.00 L 1161.00 521.00 L 1163.00 524.00 L 1177.00 500.00 L 1177.00 502.00 L 1163.00 530.00 L 1156.00 551.00 L 1156.00 565.00 L 1170.00 591.00 L 1198.00 629.00 L 1217.00 659.00 L 1227.00 681.00 L 1218.00 706.00 L 1190.00 734.00 L 1190.00 736.00 L 1218.00 712.00 L 1217.00 714.00 L 1187.00 742.00 L 1187.00 745.00 L 1217.00 723.00 L 1217.00 726.00 L 1187.00 754.00 L 1186.00 757.00 L 1214.00 735.00 L 1215.00 738.00 L 1189.00 766.00 L 1177.00 785.00 L 1179.00 795.00 L 1175.00 806.00 L 1165.00 818.00 L 1162.00 831.00 L 1166.00 845.00 L 1161.00 860.00 L 1147.00 876.00 L 1142.00 890.00 L 1146.00 902.00 L 1146.00 920.00 L 1142.00 944.00 L 1128.00 967.00 L 1104.00 989.00 L 1100.00 1004.00 L 1116.00 1012.00 L 1125.00 1019.00 L 1127.00 1025.00 L 1122.00 1038.00 L 1110.00 1058.00 L 1113.00 1072.00 L 1131.00 1080.00 L 1130.00 1081.00 L 1110.00 1075.00 L 1111.00 1077.00 L 1133.00 1087.00 L 1134.00 1089.00 L 1114.00 1083.00 L 1130.00 1093.00 L 1182.00 1119.00 L 1180.00 1120.00 L 1124.00 1096.00 L 1124.00 1098.00 L 1180.00 1126.00 L 1189.00 1133.00 L 1151.00 1119.00 L 1149.00 1121.00 L 1183.00 1139.00 L 1185.00 1141.00 L 1155.00 1127.00 L 1152.00 1129.00 L 1176.00 1147.00 L 1179.00 1157.00 L 1161.00 1159.00 L 1162.00 1167.00 L 1182.00 1181.00 L 1180.00 1181.00 L 1156.00 1167.00 L 1171.00 1180.00 L 1225.00 1220.00 L 1244.00 1236.00 L 1228.00 1228.00 L 1230.00 1231.00 L 1250.00 1245.00 L 1243.00 1241.00 L 1209.00 1219.00 L 1210.00 1222.00 L 1246.00 1250.00 L 1246.00 1252.00 L 1210.00 1228.00 L 1211.00 1230.00 L 1249.00 1258.00 L 1265.00 1277.00 L 1259.00 1287.00 L 1264.00 1299.00 L 1280.00 1313.00 L 1285.00 1318.00 L 1279.00 1314.00 L 1282.00 1318.00 L 1294.00 1330.00 L 1291.00 1329.00 L 1273.00 1315.00 L 1274.00 1318.00 L 1294.00 1338.00 L 1304.00 1353.00 L 1304.00 1363.00 L 1299.00 1372.00 L 1289.00 1380.00 L 1288.00 1391.00 L 1296.00 1405.00 L 1296.00 1408.00 L 1288.00 1400.00 L 1292.00 1406.00 L 1308.00 1426.00 L 1305.00 1425.00 L 1283.00 1403.00 L 1283.00 1408.00 L 1305.00 1440.00 L 1313.00 1458.00 L 1307.00 1462.00 L 1292.00 1463.00 L 1268.00 1461.00 L 1265.00 1477.00 L 1283.00 1511.00 L 1291.00 1527.00 L 1289.00 1525.00 L 1294.00 1540.00 L 1306.00 1572.00 L 1314.00 1612.00 L 1318.00 1660.00 L 1316.00 1695.00 L 1308.00 1717.00 L 1296.00 1735.00 L 1280.00 1749.00 L 1265.00 1759.00 L 1251.00 1765.00 L 1231.00 1769.00 L 1205.00 1771.00 L 1162.00 1759.00 L 1102.00 1733.00 L 1022.00 1688.00 L 922.00 1624.00 L 828.00 1571.00 L 740.00 1529.00 L 655.00 1497.00 L 573.00 1475.00 L 489.00 1459.00 L 403.00 1449.00 L 359.00 1438.00 L 357.00 1426.00 L 361.00 1405.00 L 371.00 1375.00 L 381.00 1334.00 L 391.00 1282.00 L 402.00 1240.00 L 414.00 1208.00 L 423.00 1175.00 L 429.00 1141.00 L 442.00 1100.00 L 462.00 1052.00 L 469.00 1020.00 L 463.00 1004.00 L 460.00 995.00 L 460.00 993.00 L 460.00 979.00 Z" fill="black" stroke="black" stroke-width="1"/>
</svg>