<?xml version="1.0" encoding="UTF-8"?>
<svg xmlns="http://www.w3.org/2000/svg" viewBox="401.00 298.00 882.00 1490.00">
  <path d="M 673.00 978.00 L 687.00 946.00 L 680.00 923.00 L 652.00 909.00 L 652.00 907.00 L 680.00 917.00 L 676.00 914.00 L 640.00 898.00 L 639.00 896.00 L 673.00 908.00 L 646.00 890.00 L 558.00 842.00 L 525.00 823.00 L 547.00 833.00 L 543.00 830.00 L 513.00 814.00 L 520.00 817.00 L 564.00 839.00 L 563.00 838.00 L 517.00 814.00 L 516.00 813.00 L 560.00 835.00 L 559.00 834.00 L 513.00 810.00 L 476.00 779.00 L 448.00 741.00 L 429.00 706.00 L 419.00 674.00 L 413.00 642.00 L 411.00 610.00 L 421.00 562.00 L 443.00 498.00 L 466.00 452.00 L 490.00 424.00 L 515.00 403.00 L 541.00 389.00 L 565.00 362.00 L 587.00 322.00 L 603.00 308.00 L 613.00 320.00 L 632.00 321.00 L 660.00 311.00 L 678.00 315.00 L 686.00 333.00 L 689.00 333.00 L 687.00 315.00 L 689.00 314.00 L 695.00 330.00 L 697.00 333.00 L 695.00 323.00 L 699.00 322.00 L 709.00 330.00 L 733.00 329.00 L 771.00 319.00 L 805.00 314.00 L 835.00 314.00 L 885.00 323.00 L 955.00 341.00 L 1006.00 358.00 L 1038.00 374.00 L 1079.00 404.00 L 1129.00 448.00 L 1152.00 475.00 L 1148.00 485.00 L 1150.00 488.00 L 1158.00 484.00 L 1161.00 488.00 L 1159.00 500.00 L 1161.00 502.00 L 1167.00 494.00 L 1168.00 497.00 L 1164.00 511.00 L 1166.00 514.00 L 1174.00 506.00 L 1176.00 506.00 L 1172.00 514.00 L 1173.00 516.00 L 1179.00 512.00 L 1179.00 515.00 L 1173.00 525.00 L 1174.00 527.00 L 1182.00 521.00 L 1183.00 523.00 L 1177.00 533.00 L 1175.00 540.00 L 1177.00 544.00 L 1181.00 542.00 L 1187.00 534.00 L 1189.00 540.00 L 1187.00 560.00 L 1189.00 566.00 L 1195.00 558.00 L 1195.00 589.00 L 1189.00 659.00 L 1205.00 723.00 L 1243.00 781.00 L 1259.00 817.00 L 1253.00 831.00 L 1240.00 843.00 L 1220.00 853.00 L 1218.00 855.00 L 1234.00 849.00 L 1233.00 852.00 L 1215.00 864.00 L 1207.00 887.00 L 1209.00 921.00 L 1203.00 946.00 L 1189.00 962.00 L 1182.00 982.00 L 1182.00 1006.00 L 1179.00 1023.00 L 1173.00 1033.00 L 1165.00 1042.00 L 1155.00 1050.00 L 1125.00 1060.00 L 1075.00 1072.00 L 1042.00 1085.00 L 1026.00 1099.00 L 1011.00 1119.00 L 997.00 1145.00 L 1053.00 1245.00 L 1179.00 1419.00 L 1236.00 1498.00 L 1224.00 1482.00 L 1229.00 1490.00 L 1251.00 1522.00 L 1245.00 1515.00 L 1211.00 1469.00 L 1214.00 1475.00 L 1254.00 1533.00 L 1251.00 1530.00 L 1205.00 1466.00 L 1206.00 1468.00 L 1254.00 1536.00 L 1249.00 1530.00 L 1191.00 1450.00 L 1191.00 1452.00 L 1249.00 1536.00 L 1206.00 1475.00 L 1062.00 1269.00 L 1063.00 1271.00 L 1209.00 1481.00 L 1248.00 1538.00 L 1180.00 1442.00 L 1181.00 1445.00 L 1251.00 1547.00 L 1248.00 1544.00 L 1172.00 1436.00 L 1173.00 1439.00 L 1251.00 1553.00 L 1247.00 1548.00 L 1161.00 1424.00 L 1161.00 1427.00 L 1247.00 1557.00 L 1215.00 1510.00 L 1065.00 1286.00 L 1065.00 1288.00 L 1215.00 1516.00 L 1242.00 1558.00 L 1146.00 1414.00 L 1146.00 1416.00 L 1242.00 1564.00 L 1231.00 1549.00 L 1113.00 1371.00 L 1112.00 1373.00 L 1228.00 1555.00 L 1221.00 1545.00 L 1091.00 1343.00 L 1091.00 1346.00 L 1221.00 1554.00 L 1219.00 1552.00 L 1085.00 1340.00 L 1084.00 1342.00 L 1216.00 1558.00 L 1208.00 1546.00 L 1060.00 1306.00 L 1060.00 1309.00 L 1208.00 1555.00 L 1209.00 1557.00 L 1063.00 1315.00 L 1062.00 1316.00 L 1206.00 1560.00 L 1273.00 1691.00 L 1263.00 1709.00 L 1245.00 1730.00 L 1219.00 1754.00 L 1194.00 1770.00 L 1170.00 1778.00 L 1112.00 1748.00 L 1020.00 1680.00 L 927.00 1622.00 L 833.00 1574.00 L 740.00 1533.00 L 648.00 1499.00 L 571.00 1479.00 L 509.00 1473.00 L 488.00 1430.00 L 508.00 1350.00 L 552.00 1234.00 L 620.00 1082.00 L 657.00 1003.00 L 663.00 997.00 L 673.00 978.00 Z" fill="black" stroke="black" stroke-width="1"/>
</svg>