<?xml version="1.0" encoding="UTF-8"?>
<svg xmlns="http://www.w3.org/2000/svg" viewBox="319.00 200.00 1021.00 1551.00">
  <path d="M 493.00 1037.00 L 471.00 1027.00 L 455.00 1010.00 L 445.00 986.00 L 445.00 958.00 L 455.00 926.00 L 456.00 897.00 L 448.00 871.00 L 448.00 854.00 L 456.00 846.00 L 459.00 827.00 L 457.00 797.00 L 440.00 769.00 L 408.00 743.00 L 407.00 739.00 L 437.00 757.00 L 436.00 755.00 L 404.00 733.00 L 412.00 688.00 L 460.00 620.00 L 484.00 569.00 L 484.00 535.00 L 494.00 494.00 L 514.00 446.00 L 549.00 396.00 L 599.00 344.00 L 628.00 308.00 L 636.00 288.00 L 684.00 261.00 L 772.00 227.00 L 845.00 210.00 L 903.00 210.00 L 969.00 221.00 L 1043.00 243.00 L 1100.00 269.00 L 1140.00 299.00 L 1186.00 351.00 L 1238.00 425.00 L 1271.00 492.00 L 1285.00 552.00 L 1293.00 672.00 L 1295.00 852.00 L 1295.00 946.00 L 1293.00 954.00 L 1270.00 964.00 L 1226.00 976.00 L 1226.00 979.00 L 1270.00 973.00 L 1271.00 976.00 L 1229.00 988.00 L 1229.00 993.00 L 1271.00 991.00 L 1271.00 994.00 L 1229.00 1002.00 L 1229.00 1005.00 L 1271.00 1003.00 L 1272.00 1006.00 L 1232.00 1014.00 L 1232.00 1017.00 L 1272.00 1015.00 L 1275.00 1017.00 L 1241.00 1023.00 L 1241.00 1026.00 L 1275.00 1026.00 L 1272.00 1027.00 L 1232.00 1029.00 L 1240.00 1032.00 L 1296.00 1036.00 L 1296.00 1039.00 L 1240.00 1041.00 L 1243.00 1043.00 L 1305.00 1045.00 L 1306.00 1048.00 L 1246.00 1052.00 L 1246.00 1055.00 L 1306.00 1057.00 L 1310.00 1059.00 L 1258.00 1061.00 L 1261.00 1066.00 L 1319.00 1074.00 L 1316.00 1076.00 L 1252.00 1072.00 L 1250.00 1075.00 L 1310.00 1085.00 L 1311.00 1088.00 L 1253.00 1084.00 L 1250.00 1085.00 L 1302.00 1091.00 L 1302.00 1094.00 L 1250.00 1094.00 L 1249.00 1098.00 L 1299.00 1106.00 L 1302.00 1108.00 L 1258.00 1104.00 L 1259.00 1107.00 L 1305.00 1117.00 L 1303.00 1118.00 L 1253.00 1110.00 L 1254.00 1113.00 L 1306.00 1127.00 L 1306.00 1130.00 L 1254.00 1122.00 L 1254.00 1126.00 L 1306.00 1142.00 L 1306.00 1146.00 L 1254.00 1138.00 L 1245.00 1140.00 L 1279.00 1152.00 L 1278.00 1155.00 L 1242.00 1149.00 L 1243.00 1154.00 L 1281.00 1170.00 L 1281.00 1173.00 L 1243.00 1163.00 L 1244.00 1165.00 L 1284.00 1179.00 L 1285.00 1182.00 L 1247.00 1174.00 L 1248.00 1177.00 L 1288.00 1191.00 L 1299.00 1195.00 L 1281.00 1189.00 L 1282.00 1192.00 L 1302.00 1204.00 L 1292.00 1203.00 L 1252.00 1189.00 L 1254.00 1192.00 L 1298.00 1212.00 L 1299.00 1214.00 L 1257.00 1198.00 L 1258.00 1201.00 L 1302.00 1223.00 L 1304.00 1226.00 L 1264.00 1210.00 L 1265.00 1213.00 L 1307.00 1235.00 L 1308.00 1238.00 L 1268.00 1222.00 L 1270.00 1226.00 L 1314.00 1250.00 L 1315.00 1254.00 L 1273.00 1238.00 L 1274.00 1241.00 L 1318.00 1263.00 L 1319.00 1266.00 L 1277.00 1250.00 L 1278.00 1253.00 L 1322.00 1275.00 L 1322.00 1276.00 L 1278.00 1256.00 L 1279.00 1259.00 L 1325.00 1285.00 L 1326.00 1287.00 L 1282.00 1265.00 L 1283.00 1268.00 L 1329.00 1296.00 L 1329.00 1299.00 L 1283.00 1277.00 L 1283.00 1281.00 L 1329.00 1311.00 L 1330.00 1314.00 L 1286.00 1290.00 L 1284.00 1291.00 L 1324.00 1317.00 L 1325.00 1320.00 L 1287.00 1300.00 L 1270.00 1315.00 L 1274.00 1365.00 L 1269.00 1403.00 L 1255.00 1429.00 L 1164.00 1459.00 L 996.00 1493.00 L 861.00 1527.00 L 759.00 1561.00 L 669.00 1593.00 L 591.00 1623.00 L 497.00 1670.00 L 387.00 1734.00 L 331.00 1741.00 L 329.00 1691.00 L 341.00 1637.00 L 367.00 1579.00 L 370.00 1551.00 L 350.00 1553.00 L 339.00 1543.00 L 337.00 1521.00 L 341.00 1505.00 L 351.00 1495.00 L 353.00 1492.00 L 347.00 1496.00 L 343.00 1494.00 L 341.00 1486.00 L 358.00 1463.00 L 394.00 1425.00 L 395.00 1419.00 L 361.00 1445.00 L 358.00 1446.00 L 386.00 1422.00 L 389.00 1418.00 L 367.00 1434.00 L 379.00 1415.00 L 425.00 1361.00 L 439.00 1340.00 L 421.00 1352.00 L 419.00 1353.00 L 433.00 1343.00 L 435.00 1339.00 L 425.00 1341.00 L 439.00 1326.00 L 477.00 1294.00 L 489.00 1282.00 L 475.00 1290.00 L 489.00 1270.00 L 531.00 1222.00 L 538.00 1202.00 L 510.00 1210.00 L 516.00 1204.00 L 556.00 1184.00 L 555.00 1182.00 L 513.00 1198.00 L 509.00 1198.00 L 543.00 1182.00 L 546.00 1177.00 L 518.00 1183.00 L 528.00 1171.00 L 576.00 1141.00 L 593.00 1126.00 L 579.00 1126.00 L 578.00 1123.00 L 590.00 1117.00 L 597.00 1107.00 L 599.00 1093.00 L 577.00 1077.00 L 531.00 1059.00 L 507.00 1048.00 L 505.00 1044.00 L 493.00 1037.00 Z" fill="black" stroke="black" stroke-width="1"/>
</svg>