<?xml version="1.0" encoding="UTF-8"?>
<svg xmlns="http://www.w3.org/2000/svg" viewBox="308.00 211.00 963.00 1630.00">
  <path d="M 546.00 974.00 L 554.00 966.00 L 558.00 956.00 L 558.00 944.00 L 546.00 911.00 L 522.00 857.00 L 499.00 822.00 L 477.00 806.00 L 476.00 803.00 L 496.00 813.00 L 487.00 805.00 L 449.00 779.00 L 423.00 754.00 L 409.00 730.00 L 390.00 706.00 L 366.00 682.00 L 345.00 652.00 L 327.00 616.00 L 318.00 589.00 L 318.00 571.00 L 327.00 534.00 L 345.00 478.00 L 372.00 427.00 L 408.00 381.00 L 438.00 348.00 L 462.00 328.00 L 484.00 295.00 L 504.00 249.00 L 520.00 234.00 L 532.00 250.00 L 535.00 249.00 L 529.00 231.00 L 531.00 231.00 L 541.00 249.00 L 554.00 251.00 L 570.00 237.00 L 587.00 227.00 L 605.00 221.00 L 617.00 224.00 L 623.00 236.00 L 625.00 237.00 L 623.00 227.00 L 625.00 228.00 L 631.00 240.00 L 639.00 247.00 L 649.00 249.00 L 683.00 248.00 L 741.00 244.00 L 800.00 249.00 L 860.00 263.00 L 910.00 276.00 L 950.00 288.00 L 1004.00 317.00 L 1072.00 363.00 L 1113.00 394.00 L 1127.00 410.00 L 1131.00 425.00 L 1125.00 439.00 L 1126.00 442.00 L 1134.00 434.00 L 1135.00 438.00 L 1129.00 454.00 L 1131.00 456.00 L 1141.00 444.00 L 1143.00 450.00 L 1137.00 474.00 L 1141.00 478.00 L 1155.00 462.00 L 1156.00 466.00 L 1144.00 490.00 L 1145.00 493.00 L 1159.00 475.00 L 1159.00 477.00 L 1145.00 499.00 L 1145.00 502.00 L 1159.00 486.00 L 1160.00 489.00 L 1148.00 511.00 L 1147.00 515.00 L 1157.00 501.00 L 1158.00 504.00 L 1150.00 524.00 L 1152.00 528.00 L 1164.00 516.00 L 1165.00 520.00 L 1155.00 540.00 L 1156.00 543.00 L 1168.00 529.00 L 1171.00 527.00 L 1165.00 537.00 L 1165.00 539.00 L 1171.00 533.00 L 1168.00 539.00 L 1156.00 557.00 L 1148.00 584.00 L 1144.00 620.00 L 1165.00 672.00 L 1211.00 740.00 L 1224.00 782.00 L 1204.00 798.00 L 1201.00 803.00 L 1215.00 797.00 L 1215.00 800.00 L 1201.00 812.00 L 1197.00 826.00 L 1203.00 842.00 L 1202.00 858.00 L 1194.00 874.00 L 1192.00 890.00 L 1196.00 906.00 L 1191.00 923.00 L 1177.00 941.00 L 1169.00 968.00 L 1167.00 1004.00 L 1162.00 1027.00 L 1154.00 1037.00 L 1129.00 1050.00 L 1087.00 1066.00 L 1048.00 1076.00 L 1012.00 1080.00 L 981.00 1092.00 L 955.00 1112.00 L 1013.00 1214.00 L 1155.00 1398.00 L 1202.00 1461.00 L 1154.00 1403.00 L 1157.00 1409.00 L 1211.00 1479.00 L 1208.00 1476.00 L 1148.00 1400.00 L 1149.00 1402.00 L 1211.00 1482.00 L 1202.00 1472.00 L 1122.00 1372.00 L 1123.00 1375.00 L 1205.00 1481.00 L 1202.00 1478.00 L 1114.00 1366.00 L 1116.00 1371.00 L 1208.00 1493.00 L 1174.00 1449.00 L 1014.00 1239.00 L 1016.00 1244.00 L 1180.00 1464.00 L 1206.00 1500.00 L 1094.00 1352.00 L 1094.00 1355.00 L 1206.00 1509.00 L 1204.00 1507.00 L 1088.00 1349.00 L 1089.00 1351.00 L 1207.00 1513.00 L 1205.00 1511.00 L 1083.00 1345.00 L 1083.00 1348.00 L 1205.00 1520.00 L 1199.00 1514.00 L 1065.00 1330.00 L 1065.00 1334.00 L 1199.00 1526.00 L 1197.00 1524.00 L 1059.00 1328.00 L 1059.00 1333.00 L 1197.00 1539.00 L 1194.00 1536.00 L 1050.00 1324.00 L 1050.00 1326.00 L 1194.00 1542.00 L 1181.00 1523.00 L 1011.00 1269.00 L 1010.00 1271.00 L 1178.00 1529.00 L 1188.00 1545.00 L 1040.00 1319.00 L 1040.00 1321.00 L 1188.00 1551.00 L 1186.00 1549.00 L 1034.00 1315.00 L 1034.00 1317.00 L 1186.00 1555.00 L 1261.00 1677.00 L 1259.00 1683.00 L 1178.00 1559.00 L 1018.00 1305.00 L 1017.00 1309.00 L 1175.00 1571.00 L 1171.00 1565.00 L 1005.00 1291.00 L 1004.00 1294.00 L 1168.00 1574.00 L 1236.00 1731.00 L 1208.00 1765.00 L 1179.00 1792.00 L 1149.00 1812.00 L 1114.00 1825.00 L 1074.00 1831.00 L 1012.00 1801.00 L 928.00 1735.00 L 850.00 1680.00 L 778.00 1636.00 L 667.00 1583.00 L 517.00 1521.00 L 414.00 1485.00 L 358.00 1475.00 L 352.00 1402.00 L 396.00 1266.00 L 431.00 1170.00 L 457.00 1114.00 L 487.00 1061.00 L 521.00 1011.00 L 539.00 984.00 L 541.00 980.00 L 546.00 974.00 Z" fill="black" stroke="black" stroke-width="1"/>
</svg>