<?xml version="1.0" encoding="UTF-8"?>
<svg xmlns="http://www.w3.org/2000/svg" viewBox="280.00 242.00 863.00 1490.00">
  <path d="M 541.00 921.00 L 539.00 887.00 L 490.00 829.00 L 394.00 747.00 L 361.00 713.00 L 391.00 727.00 L 381.00 715.00 L 331.00 677.00 L 302.00 647.00 L 294.00 625.00 L 290.00 598.00 L 290.00 566.00 L 297.00 529.00 L 311.00 487.00 L 355.00 421.00 L 429.00 331.00 L 470.00 283.00 L 478.00 277.00 L 486.00 282.00 L 494.00 298.00 L 496.00 300.00 L 492.00 288.00 L 494.00 287.00 L 502.00 297.00 L 519.00 291.00 L 545.00 269.00 L 568.00 256.00 L 588.00 252.00 L 604.00 265.00 L 616.00 295.00 L 619.00 296.00 L 613.00 268.00 L 615.00 267.00 L 625.00 293.00 L 628.00 296.00 L 624.00 276.00 L 626.00 276.00 L 634.00 296.00 L 654.00 304.00 L 686.00 300.00 L 734.00 305.00 L 798.00 319.00 L 873.00 349.00 L 959.00 395.00 L 1017.00 436.00 L 1047.00 472.00 L 1065.00 507.00 L 1071.00 541.00 L 1078.00 553.00 L 1086.00 543.00 L 1087.00 548.00 L 1081.00 568.00 L 1083.00 573.00 L 1093.00 563.00 L 1093.00 564.00 L 1083.00 576.00 L 1084.00 578.00 L 1096.00 570.00 L 1097.00 582.00 L 1087.00 614.00 L 1088.00 625.00 L 1100.00 615.00 L 1101.00 618.00 L 1091.00 634.00 L 1092.00 639.00 L 1104.00 633.00 L 1103.00 638.00 L 1089.00 654.00 L 1089.00 656.00 L 1103.00 644.00 L 1101.00 650.00 L 1083.00 674.00 L 1080.00 681.00 L 1092.00 671.00 L 1090.00 682.00 L 1074.00 714.00 L 1081.00 761.00 L 1111.00 823.00 L 1117.00 862.00 L 1099.00 878.00 L 1091.00 907.00 L 1093.00 949.00 L 1082.00 995.00 L 1058.00 1045.00 L 1029.00 1075.00 L 995.00 1085.00 L 954.00 1085.00 L 906.00 1075.00 L 877.00 1075.00 L 867.00 1085.00 L 929.00 1213.00 L 1063.00 1459.00 L 1062.00 1462.00 L 926.00 1222.00 L 926.00 1225.00 L 1062.00 1471.00 L 1131.00 1597.00 L 1133.00 1603.00 L 1114.00 1571.00 L 1074.00 1501.00 L 1074.00 1503.00 L 1114.00 1577.00 L 1112.00 1575.00 L 1068.00 1497.00 L 1067.00 1500.00 L 1109.00 1584.00 L 1061.00 1496.00 L 923.00 1236.00 L 922.00 1238.00 L 1058.00 1502.00 L 1097.00 1582.00 L 1039.00 1478.00 L 1037.00 1482.00 L 1091.00 1594.00 L 1087.00 1590.00 L 1025.00 1470.00 L 1024.00 1472.00 L 1084.00 1596.00 L 1048.00 1522.00 L 916.00 1250.00 L 915.00 1252.00 L 1045.00 1528.00 L 1077.00 1598.00 L 1011.00 1462.00 L 1009.00 1465.00 L 1071.00 1607.00 L 1066.00 1602.00 L 994.00 1450.00 L 991.00 1453.00 L 1057.00 1611.00 L 1029.00 1549.00 L 907.00 1267.00 L 905.00 1269.00 L 1023.00 1555.00 L 1044.00 1611.00 L 968.00 1437.00 L 965.00 1439.00 L 1035.00 1617.00 L 1034.00 1616.00 L 962.00 1436.00 L 960.00 1438.00 L 1028.00 1622.00 L 1007.00 1570.00 L 897.00 1282.00 L 894.00 1283.00 L 998.00 1573.00 L 1014.00 1621.00 L 942.00 1427.00 L 939.00 1429.00 L 1005.00 1627.00 L 1003.00 1625.00 L 933.00 1423.00 L 932.00 1424.00 L 1000.00 1628.00 L 985.00 1585.00 L 887.00 1295.00 L 883.00 1297.00 L 973.00 1591.00 L 972.00 1594.00 L 880.00 1306.00 L 877.00 1307.00 L 963.00 1597.00 L 963.00 1599.00 L 877.00 1313.00 L 873.00 1310.00 L 951.00 1590.00 L 959.00 1621.00 L 897.00 1403.00 L 896.00 1402.00 L 956.00 1618.00 L 982.00 1722.00 L 974.00 1714.00 L 935.00 1577.00 L 865.00 1311.00 L 862.00 1309.00 L 926.00 1571.00 L 930.00 1595.00 L 874.00 1381.00 L 868.00 1375.00 L 912.00 1577.00 L 907.00 1559.00 L 853.00 1321.00 L 851.00 1320.00 L 901.00 1556.00 L 901.00 1560.00 L 851.00 1332.00 L 848.00 1329.00 L 892.00 1551.00 L 891.00 1553.00 L 845.00 1335.00 L 842.00 1333.00 L 882.00 1547.00 L 882.00 1550.00 L 842.00 1342.00 L 839.00 1339.00 L 873.00 1541.00 L 815.00 1587.00 L 665.00 1477.00 L 541.00 1396.00 L 443.00 1344.00 L 413.00 1272.00 L 451.00 1180.00 L 483.00 1116.00 L 509.00 1080.00 L 527.00 1034.00 L 537.00 978.00 L 542.00 947.00 L 542.00 941.00 L 541.00 921.00 Z" fill="black" stroke="black" stroke-width="1"/>
</svg>