<?xml version="1.0" encoding="UTF-8"?>
<svg xmlns="http://www.w3.org/2000/svg" viewBox="412.00 254.00 876.00 1546.00">
  <path d="M 514.00 998.00 L 522.00 918.00 L 534.00 865.00 L 550.00 839.00 L 536.00 781.00 L 492.00 691.00 L 468.00 623.00 L 464.00 577.00 L 466.00 537.00 L 474.00 503.00 L 492.00 459.00 L 520.00 405.00 L 542.00 370.00 L 558.00 354.00 L 604.00 325.00 L 680.00 283.00 L 756.00 264.00 L 832.00 268.00 L 904.00 287.00 L 972.00 321.00 L 1026.00 359.00 L 1066.00 401.00 L 1084.00 428.00 L 1080.00 440.00 L 1080.00 448.00 L 1084.00 452.00 L 1089.00 449.00 L 1095.00 439.00 L 1096.00 446.00 L 1092.00 470.00 L 1094.00 474.00 L 1102.00 458.00 L 1102.00 462.00 L 1094.00 486.00 L 1095.00 491.00 L 1105.00 477.00 L 1107.00 481.00 L 1101.00 503.00 L 1102.00 508.00 L 1110.00 496.00 L 1111.00 498.00 L 1105.00 514.00 L 1106.00 518.00 L 1114.00 510.00 L 1116.00 517.00 L 1112.00 539.00 L 1115.00 542.00 L 1125.00 526.00 L 1125.00 529.00 L 1115.00 551.00 L 1116.00 552.00 L 1128.00 532.00 L 1124.00 545.00 L 1104.00 591.00 L 1106.00 593.00 L 1130.00 551.00 L 1130.00 553.00 L 1106.00 599.00 L 1112.00 646.00 L 1148.00 694.00 L 1152.00 734.00 L 1124.00 766.00 L 1124.00 768.00 L 1152.00 740.00 L 1152.00 743.00 L 1124.00 777.00 L 1122.00 782.00 L 1146.00 758.00 L 1147.00 760.00 L 1125.00 788.00 L 1116.00 805.00 L 1120.00 811.00 L 1108.00 834.00 L 1080.00 874.00 L 1067.00 906.00 L 1069.00 930.00 L 1064.00 949.00 L 1052.00 963.00 L 1033.00 976.00 L 1007.00 988.00 L 1004.00 1000.00 L 1024.00 1012.00 L 1027.00 1030.00 L 1013.00 1054.00 L 1013.00 1068.00 L 1027.00 1072.00 L 1026.00 1073.00 L 1010.00 1071.00 L 1013.00 1073.00 L 1035.00 1079.00 L 1034.00 1081.00 L 1010.00 1079.00 L 1009.00 1084.00 L 1031.00 1096.00 L 1030.00 1099.00 L 1006.00 1093.00 L 1007.00 1096.00 L 1033.00 1108.00 L 1033.00 1109.00 L 1007.00 1099.00 L 1005.00 1102.00 L 1027.00 1118.00 L 1025.00 1120.00 L 999.00 1108.00 L 1020.00 1120.00 L 1088.00 1156.00 L 1102.00 1165.00 L 1062.00 1147.00 L 1061.00 1150.00 L 1099.00 1174.00 L 1103.00 1178.00 L 1073.00 1162.00 L 1071.00 1163.00 L 1097.00 1181.00 L 1100.00 1191.00 L 1080.00 1193.00 L 1085.00 1207.00 L 1115.00 1233.00 L 1111.00 1232.00 L 1073.00 1204.00 L 1074.00 1207.00 L 1114.00 1241.00 L 1120.00 1249.00 L 1092.00 1231.00 L 1090.00 1233.00 L 1114.00 1255.00 L 1113.00 1255.00 L 1087.00 1233.00 L 1096.00 1245.00 L 1140.00 1291.00 L 1163.00 1317.00 L 1165.00 1323.00 L 1152.00 1313.00 L 1124.00 1287.00 L 1131.00 1302.00 L 1173.00 1358.00 L 1183.00 1375.00 L 1161.00 1353.00 L 1165.00 1359.00 L 1195.00 1393.00 L 1198.00 1398.00 L 1174.00 1374.00 L 1174.00 1376.00 L 1198.00 1404.00 L 1194.00 1402.00 L 1162.00 1370.00 L 1163.00 1373.00 L 1197.00 1411.00 L 1195.00 1410.00 L 1157.00 1370.00 L 1157.00 1373.00 L 1195.00 1419.00 L 1207.00 1444.00 L 1193.00 1448.00 L 1186.00 1453.00 L 1186.00 1459.00 L 1206.00 1500.00 L 1246.00 1576.00 L 1270.00 1640.00 L 1278.00 1692.00 L 1277.00 1732.00 L 1267.00 1760.00 L 1254.00 1779.00 L 1238.00 1789.00 L 1216.00 1790.00 L 1188.00 1782.00 L 1135.00 1755.00 L 1057.00 1709.00 L 1018.00 1688.00 L 1018.00 1692.00 L 972.00 1675.00 L 880.00 1637.00 L 801.00 1608.00 L 735.00 1588.00 L 674.00 1572.00 L 618.00 1560.00 L 547.00 1554.00 L 461.00 1554.00 L 422.00 1508.00 L 430.00 1416.00 L 456.00 1303.00 L 500.00 1169.00 L 519.00 1088.00 L 513.00 1060.00 L 510.00 1044.00 L 510.00 1040.00 L 514.00 998.00 Z" fill="black" stroke="black" stroke-width="1"/>
</svg>