<?xml version="1.0" encoding="UTF-8"?>
<svg xmlns="http://www.w3.org/2000/svg" viewBox="338.00 238.00 898.00 1616.00">
  <path d="M 376.00 1106.00 L 436.00 1106.00 L 436.00 1103.00 L 376.00 1097.00 L 375.00 1094.00 L 433.00 1094.00 L 434.00 1092.00 L 378.00 1088.00 L 375.00 1087.00 L 425.00 1089.00 L 428.00 1086.00 L 384.00 1078.00 L 387.00 1076.00 L 437.00 1080.00 L 439.00 1079.00 L 393.00 1073.00 L 391.00 1072.00 L 433.00 1076.00 L 434.00 1071.00 L 394.00 1057.00 L 396.00 1053.00 L 440.00 1059.00 L 440.00 1056.00 L 396.00 1044.00 L 397.00 1041.00 L 443.00 1047.00 L 441.00 1041.00 L 391.00 1023.00 L 391.00 1020.00 L 441.00 1032.00 L 441.00 1029.00 L 391.00 1011.00 L 391.00 1009.00 L 441.00 1023.00 L 440.00 1020.00 L 388.00 1000.00 L 389.00 998.00 L 443.00 1014.00 L 442.00 1008.00 L 386.00 980.00 L 386.00 977.00 L 442.00 999.00 L 442.00 995.00 L 386.00 965.00 L 386.00 962.00 L 442.00 986.00 L 441.00 981.00 L 383.00 947.00 L 384.00 945.00 L 444.00 975.00 L 444.00 972.00 L 384.00 936.00 L 353.00 906.00 L 351.00 882.00 L 353.00 807.00 L 359.00 681.00 L 371.00 585.00 L 389.00 519.00 L 412.00 459.00 L 440.00 405.00 L 475.00 366.00 L 517.00 342.00 L 545.00 320.00 L 559.00 300.00 L 582.00 288.00 L 614.00 284.00 L 641.00 275.00 L 663.00 261.00 L 698.00 252.00 L 746.00 248.00 L 803.00 256.00 L 869.00 276.00 L 937.00 321.00 L 1007.00 391.00 L 1049.00 446.00 L 1063.00 486.00 L 1072.00 533.00 L 1076.00 587.00 L 1102.00 644.00 L 1150.00 704.00 L 1159.00 750.00 L 1129.00 782.00 L 1112.00 814.00 L 1108.00 846.00 L 1113.00 887.00 L 1127.00 937.00 L 1132.00 968.00 L 1128.00 980.00 L 1112.00 997.00 L 1084.00 1019.00 L 1063.00 1047.00 L 1049.00 1081.00 L 1050.00 1100.00 L 1066.00 1104.00 L 1064.00 1108.00 L 1044.00 1112.00 L 1046.00 1115.00 L 1070.00 1117.00 L 1080.00 1125.00 L 1076.00 1139.00 L 1065.00 1150.00 L 1047.00 1158.00 L 1065.00 1216.00 L 1119.00 1324.00 L 1166.00 1442.00 L 1206.00 1570.00 L 1226.00 1659.00 L 1226.00 1709.00 L 1220.00 1749.00 L 1208.00 1779.00 L 1188.00 1805.00 L 1160.00 1827.00 L 1124.00 1840.00 L 1080.00 1844.00 L 1044.00 1836.00 L 1016.00 1816.00 L 1004.00 1811.00 L 1008.00 1821.00 L 994.00 1815.00 L 962.00 1793.00 L 946.00 1785.00 L 946.00 1791.00 L 860.00 1754.00 L 688.00 1674.00 L 569.00 1627.00 L 503.00 1613.00 L 439.00 1607.00 L 377.00 1609.00 L 350.00 1570.00 L 358.00 1490.00 L 358.00 1453.00 L 350.00 1459.00 L 351.00 1454.00 L 361.00 1438.00 L 360.00 1435.00 L 348.00 1445.00 L 349.00 1442.00 L 363.00 1426.00 L 363.00 1423.00 L 349.00 1433.00 L 349.00 1431.00 L 363.00 1417.00 L 363.00 1414.00 L 349.00 1422.00 L 350.00 1417.00 L 366.00 1399.00 L 367.00 1394.00 L 353.00 1402.00 L 354.00 1399.00 L 370.00 1385.00 L 372.00 1382.00 L 360.00 1390.00 L 362.00 1383.00 L 378.00 1361.00 L 379.00 1355.00 L 365.00 1365.00 L 359.00 1367.00 L 361.00 1361.00 L 371.00 1349.00 L 389.00 1331.00 L 389.00 1327.00 L 371.00 1337.00 L 372.00 1334.00 L 392.00 1318.00 L 393.00 1314.00 L 375.00 1322.00 L 376.00 1319.00 L 396.00 1305.00 L 396.00 1303.00 L 376.00 1313.00 L 377.00 1310.00 L 399.00 1294.00 L 400.00 1292.00 L 380.00 1304.00 L 381.00 1302.00 L 403.00 1286.00 L 403.00 1283.00 L 381.00 1293.00 L 383.00 1287.00 L 409.00 1265.00 L 410.00 1260.00 L 386.00 1272.00 L 387.00 1269.00 L 413.00 1251.00 L 415.00 1246.00 L 393.00 1254.00 L 394.00 1251.00 L 418.00 1237.00 L 419.00 1234.00 L 397.00 1242.00 L 397.00 1239.00 L 419.00 1225.00 L 413.00 1223.00 L 379.00 1233.00 L 380.00 1230.00 L 416.00 1214.00 L 414.00 1212.00 L 374.00 1224.00 L 373.00 1222.00 L 411.00 1206.00 L 411.00 1203.00 L 373.00 1213.00 L 374.00 1211.00 L 414.00 1197.00 L 414.00 1194.00 L 374.00 1202.00 L 376.00 1197.00 L 420.00 1179.00 L 421.00 1175.00 L 379.00 1185.00 L 378.00 1183.00 L 418.00 1169.00 L 418.00 1166.00 L 378.00 1174.00 L 382.00 1172.00 L 430.00 1160.00 L 430.00 1158.00 L 382.00 1166.00 L 383.00 1164.00 L 433.00 1152.00 L 432.00 1149.00 L 380.00 1155.00 L 382.00 1152.00 L 438.00 1140.00 L 439.00 1136.00 L 385.00 1140.00 L 385.00 1136.00 L 439.00 1124.00 L 436.00 1117.00 L 376.00 1115.00 L 372.00 1113.00 L 424.00 1111.00 L 424.00 1109.00 L 372.00 1107.00 L 376.00 1106.00 Z" fill="black" stroke="black" stroke-width="1"/>
</svg>