<?xml version="1.0" encoding="UTF-8"?>
<svg xmlns="http://www.w3.org/2000/svg" viewBox="269.00 83.00 909.00 1767.00">
  <path d="M 392.00 927.00 L 396.00 889.00 L 404.00 859.00 L 416.00 837.00 L 421.00 821.00 L 419.00 811.00 L 414.00 804.00 L 406.00 800.00 L 408.00 800.00 L 420.00 804.00 L 418.00 802.00 L 402.00 794.00 L 391.00 781.00 L 385.00 763.00 L 368.00 729.00 L 340.00 679.00 L 331.00 657.00 L 341.00 663.00 L 339.00 660.00 L 325.00 648.00 L 308.00 617.00 L 288.00 567.00 L 279.00 504.00 L 281.00 428.00 L 287.00 373.00 L 297.00 339.00 L 310.00 305.00 L 326.00 271.00 L 344.00 241.00 L 364.00 215.00 L 385.00 192.00 L 407.00 172.00 L 441.00 151.00 L 487.00 129.00 L 523.00 114.00 L 549.00 106.00 L 598.00 99.00 L 670.00 93.00 L 730.00 95.00 L 778.00 105.00 L 812.00 115.00 L 832.00 125.00 L 879.00 158.00 L 953.00 214.00 L 989.00 252.00 L 987.00 272.00 L 989.00 274.00 L 995.00 258.00 L 996.00 259.00 L 992.00 277.00 L 995.00 280.00 L 1005.00 268.00 L 1007.00 271.00 L 1001.00 289.00 L 1002.00 290.00 L 1010.00 274.00 L 1011.00 276.00 L 1005.00 296.00 L 1007.00 299.00 L 1017.00 285.00 L 1019.00 286.00 L 1013.00 302.00 L 1013.00 304.00 L 1019.00 292.00 L 1020.00 295.00 L 1016.00 313.00 L 1018.00 317.00 L 1026.00 307.00 L 1028.00 311.00 L 1024.00 329.00 L 1025.00 332.00 L 1031.00 320.00 L 1031.00 321.00 L 1025.00 335.00 L 1026.00 337.00 L 1034.00 327.00 L 1035.00 330.00 L 1029.00 346.00 L 1030.00 349.00 L 1038.00 339.00 L 1039.00 342.00 L 1033.00 358.00 L 1034.00 359.00 L 1042.00 345.00 L 1043.00 347.00 L 1037.00 365.00 L 1038.00 367.00 L 1046.00 353.00 L 1051.00 347.00 L 1053.00 349.00 L 1050.00 358.00 L 1042.00 374.00 L 1040.00 379.00 L 1044.00 373.00 L 1045.00 375.00 L 1043.00 385.00 L 1048.00 382.00 L 1060.00 366.00 L 1061.00 368.00 L 1051.00 388.00 L 1049.00 394.00 L 1055.00 386.00 L 1056.00 389.00 L 1052.00 403.00 L 1056.00 400.00 L 1068.00 380.00 L 1069.00 383.00 L 1059.00 409.00 L 1055.00 428.00 L 1057.00 440.00 L 1055.00 460.00 L 1049.00 488.00 L 1065.00 538.00 L 1103.00 610.00 L 1121.00 649.00 L 1119.00 655.00 L 1109.00 666.00 L 1091.00 682.00 L 1089.00 685.00 L 1103.00 675.00 L 1101.00 678.00 L 1083.00 694.00 L 1074.00 715.00 L 1074.00 741.00 L 1071.00 758.00 L 1065.00 766.00 L 1063.00 776.00 L 1065.00 788.00 L 1060.00 803.00 L 1048.00 821.00 L 1044.00 838.00 L 1048.00 854.00 L 1049.00 867.00 L 1047.00 877.00 L 1040.00 891.00 L 1028.00 909.00 L 1011.00 925.00 L 989.00 939.00 L 986.00 952.00 L 1002.00 964.00 L 1010.00 974.00 L 1010.00 982.00 L 1002.00 996.00 L 986.00 1016.00 L 986.00 1031.00 L 1002.00 1041.00 L 999.00 1043.00 L 977.00 1037.00 L 980.00 1040.00 L 1008.00 1052.00 L 1009.00 1055.00 L 983.00 1049.00 L 984.00 1052.00 L 1012.00 1064.00 L 1010.00 1064.00 L 978.00 1052.00 L 977.00 1054.00 L 1007.00 1070.00 L 1017.00 1081.00 L 1007.00 1087.00 L 995.00 1088.00 L 981.00 1084.00 L 973.00 1085.00 L 971.00 1091.00 L 981.00 1122.00 L 1003.00 1178.00 L 1041.00 1258.00 L 1095.00 1362.00 L 1132.00 1445.00 L 1152.00 1507.00 L 1164.00 1573.00 L 1168.00 1643.00 L 1168.00 1691.00 L 1164.00 1717.00 L 1154.00 1748.00 L 1138.00 1784.00 L 1118.00 1810.00 L 1094.00 1826.00 L 1066.00 1836.00 L 1034.00 1840.00 L 1003.00 1837.00 L 973.00 1827.00 L 916.00 1795.00 L 832.00 1741.00 L 751.00 1695.00 L 673.00 1657.00 L 599.00 1627.00 L 529.00 1605.00 L 494.00 1592.00 L 494.00 1588.00 L 490.00 1585.00 L 482.00 1583.00 L 475.00 1583.00 L 469.00 1585.00 L 456.00 1582.00 L 436.00 1574.00 L 396.00 1568.00 L 336.00 1564.00 L 304.00 1559.00 L 300.00 1553.00 L 297.00 1551.00 L 295.00 1553.00 L 302.00 1509.00 L 318.00 1419.00 L 347.00 1310.00 L 389.00 1182.00 L 405.00 1104.00 L 395.00 1076.00 L 390.00 1035.00 L 390.00 981.00 L 390.00 952.00 L 390.00 948.00 L 392.00 927.00 Z" fill="black" stroke="black" stroke-width="1"/>
</svg>