<?xml version="1.0" encoding="UTF-8"?>
<svg xmlns="http://www.w3.org/2000/svg" viewBox="339.00 242.00 913.00 1456.00">
  <path d="M 422.00 934.00 L 414.00 926.00 L 412.00 913.00 L 416.00 895.00 L 416.00 879.00 L 412.00 865.00 L 398.00 851.00 L 374.00 837.00 L 360.00 824.00 L 356.00 812.00 L 376.00 777.00 L 420.00 719.00 L 443.00 683.00 L 445.00 669.00 L 444.00 654.00 L 440.00 638.00 L 441.00 618.00 L 447.00 594.00 L 446.00 575.00 L 438.00 561.00 L 439.00 559.00 L 449.00 569.00 L 450.00 567.00 L 442.00 553.00 L 443.00 551.00 L 453.00 561.00 L 453.00 559.00 L 443.00 545.00 L 438.00 535.00 L 438.00 529.00 L 444.00 533.00 L 456.00 547.00 L 456.00 544.00 L 444.00 524.00 L 445.00 522.00 L 459.00 538.00 L 460.00 535.00 L 448.00 513.00 L 449.00 511.00 L 463.00 529.00 L 464.00 528.00 L 452.00 508.00 L 453.00 505.00 L 467.00 519.00 L 469.00 518.00 L 459.00 502.00 L 456.00 496.00 L 460.00 500.00 L 461.00 497.00 L 459.00 487.00 L 463.00 490.00 L 473.00 506.00 L 476.00 509.00 L 472.00 499.00 L 473.00 498.00 L 479.00 506.00 L 478.00 500.00 L 470.00 480.00 L 471.00 478.00 L 481.00 494.00 L 481.00 491.00 L 471.00 469.00 L 472.00 467.00 L 484.00 485.00 L 485.00 483.00 L 475.00 461.00 L 476.00 458.00 L 488.00 474.00 L 489.00 471.00 L 479.00 449.00 L 481.00 447.00 L 495.00 465.00 L 497.00 463.00 L 487.00 441.00 L 488.00 439.00 L 500.00 457.00 L 503.00 455.00 L 497.00 433.00 L 499.00 430.00 L 509.00 446.00 L 512.00 444.00 L 508.00 424.00 L 510.00 422.00 L 518.00 438.00 L 519.00 436.00 L 513.00 416.00 L 513.00 401.00 L 519.00 391.00 L 546.00 365.00 L 594.00 323.00 L 647.00 291.00 L 705.00 269.00 L 753.00 256.00 L 791.00 252.00 L 841.00 252.00 L 903.00 256.00 L 958.00 267.00 L 1006.00 285.00 L 1045.00 303.00 L 1075.00 321.00 L 1110.00 351.00 L 1150.00 393.00 L 1179.00 427.00 L 1197.00 453.00 L 1212.00 481.00 L 1224.00 511.00 L 1233.00 543.00 L 1239.00 577.00 L 1242.00 609.00 L 1242.00 639.00 L 1240.00 662.00 L 1236.00 678.00 L 1215.00 724.00 L 1177.00 800.00 L 1143.00 855.00 L 1113.00 889.00 L 1094.00 908.00 L 1086.00 912.00 L 1086.00 926.00 L 1094.00 950.00 L 1102.00 986.00 L 1110.00 1034.00 L 1114.00 1068.00 L 1114.00 1088.00 L 1109.00 1108.00 L 1099.00 1128.00 L 1100.00 1152.00 L 1112.00 1180.00 L 1122.00 1228.00 L 1130.00 1296.00 L 1132.00 1345.00 L 1128.00 1375.00 L 1120.00 1398.00 L 1108.00 1414.00 L 1090.00 1424.00 L 1066.00 1428.00 L 1028.00 1428.00 L 976.00 1424.00 L 917.00 1430.00 L 851.00 1446.00 L 758.00 1483.00 L 638.00 1541.00 L 561.00 1580.00 L 527.00 1600.00 L 486.00 1628.00 L 438.00 1664.00 L 407.00 1684.00 L 393.00 1688.00 L 379.00 1686.00 L 365.00 1678.00 L 355.00 1669.00 L 349.00 1659.00 L 377.00 1596.00 L 439.00 1480.00 L 439.00 1478.00 L 377.00 1590.00 L 377.00 1588.00 L 439.00 1472.00 L 439.00 1470.00 L 377.00 1582.00 L 373.00 1589.00 L 427.00 1491.00 L 427.00 1488.00 L 373.00 1580.00 L 369.00 1584.00 L 415.00 1500.00 L 415.00 1498.00 L 369.00 1578.00 L 376.00 1564.00 L 436.00 1456.00 L 437.00 1452.00 L 379.00 1552.00 L 368.00 1570.00 L 404.00 1506.00 L 404.00 1504.00 L 368.00 1564.00 L 393.00 1520.00 L 479.00 1372.00 L 480.00 1369.00 L 396.00 1511.00 L 397.00 1509.00 L 483.00 1363.00 L 484.00 1361.00 L 400.00 1503.00 L 400.00 1501.00 L 484.00 1355.00 L 511.00 1305.00 L 481.00 1351.00 L 480.00 1349.00 L 508.00 1299.00 L 508.00 1296.00 L 480.00 1340.00 L 471.00 1354.00 L 481.00 1338.00 L 484.00 1332.00 L 480.00 1336.00 L 488.00 1315.00 L 508.00 1269.00 L 513.00 1253.00 L 503.00 1267.00 L 504.00 1265.00 L 516.00 1247.00 L 514.00 1246.00 L 498.00 1262.00 L 498.00 1259.00 L 514.00 1237.00 L 512.00 1236.00 L 492.00 1256.00 L 492.00 1253.00 L 512.00 1227.00 L 512.00 1224.00 L 492.00 1244.00 L 491.00 1242.00 L 509.00 1218.00 L 512.00 1193.00 L 500.00 1167.00 L 500.00 1147.00 L 512.00 1133.00 L 502.00 1123.00 L 470.00 1117.00 L 445.00 1108.00 L 427.00 1096.00 L 417.00 1080.00 L 415.00 1060.00 L 420.00 1040.00 L 432.00 1020.00 L 438.00 1005.00 L 438.00 995.00 L 434.00 980.00 L 426.00 960.00 L 423.00 947.00 L 425.00 941.00 L 422.00 934.00 Z" fill="black" stroke="black" stroke-width="1"/>
</svg>