<?xml version="1.0" encoding="UTF-8"?>
<svg xmlns="http://www.w3.org/2000/svg" viewBox="351.00 207.00 907.00 1435.00">
  <path d="M 465.00 907.00 L 463.00 901.00 L 465.00 893.00 L 471.00 883.00 L 470.00 873.00 L 462.00 863.00 L 458.00 855.00 L 458.00 849.00 L 461.00 834.00 L 467.00 810.00 L 456.00 790.00 L 428.00 774.00 L 410.00 761.00 L 402.00 751.00 L 399.00 742.00 L 401.00 734.00 L 412.00 720.00 L 432.00 700.00 L 457.00 668.00 L 487.00 624.00 L 500.00 585.00 L 496.00 551.00 L 499.00 523.00 L 509.00 501.00 L 510.00 484.00 L 502.00 472.00 L 499.00 467.00 L 501.00 469.00 L 502.00 467.00 L 502.00 461.00 L 506.00 463.00 L 514.00 473.00 L 515.00 471.00 L 509.00 457.00 L 510.00 455.00 L 518.00 465.00 L 521.00 465.00 L 519.00 455.00 L 520.00 452.00 L 524.00 456.00 L 523.00 453.00 L 517.00 443.00 L 517.00 442.00 L 523.00 450.00 L 524.00 448.00 L 520.00 436.00 L 521.00 434.00 L 527.00 442.00 L 529.00 444.00 L 527.00 440.00 L 528.00 439.00 L 532.00 441.00 L 531.00 436.00 L 525.00 424.00 L 526.00 422.00 L 534.00 430.00 L 535.00 427.00 L 529.00 413.00 L 530.00 410.00 L 538.00 418.00 L 539.00 415.00 L 533.00 401.00 L 534.00 399.00 L 542.00 409.00 L 543.00 407.00 L 537.00 393.00 L 538.00 391.00 L 546.00 401.00 L 549.00 397.00 L 547.00 379.00 L 549.00 376.00 L 555.00 388.00 L 558.00 385.00 L 558.00 367.00 L 575.00 342.00 L 609.00 310.00 L 638.00 289.00 L 662.00 279.00 L 678.00 270.00 L 686.00 262.00 L 709.00 251.00 L 747.00 237.00 L 781.00 230.00 L 811.00 230.00 L 838.00 226.00 L 862.00 218.00 L 888.00 217.00 L 916.00 223.00 L 939.00 225.00 L 957.00 223.00 L 992.00 229.00 L 1044.00 243.00 L 1084.00 258.00 L 1112.00 274.00 L 1133.00 289.00 L 1147.00 303.00 L 1161.00 322.00 L 1175.00 346.00 L 1187.00 357.00 L 1197.00 355.00 L 1205.00 356.00 L 1211.00 360.00 L 1214.00 374.00 L 1214.00 398.00 L 1218.00 415.00 L 1226.00 425.00 L 1230.00 440.00 L 1230.00 460.00 L 1235.00 479.00 L 1245.00 497.00 L 1248.00 520.00 L 1244.00 548.00 L 1243.00 575.00 L 1245.00 601.00 L 1242.00 617.00 L 1234.00 623.00 L 1233.00 624.00 L 1239.00 620.00 L 1239.00 623.00 L 1233.00 633.00 L 1232.00 643.00 L 1236.00 653.00 L 1235.00 673.00 L 1229.00 703.00 L 1227.00 732.00 L 1229.00 760.00 L 1228.00 777.00 L 1224.00 783.00 L 1224.00 797.00 L 1228.00 819.00 L 1226.00 847.00 L 1218.00 881.00 L 1195.00 900.00 L 1157.00 904.00 L 1155.00 907.00 L 1189.00 909.00 L 1190.00 912.00 L 1158.00 916.00 L 1155.00 919.00 L 1181.00 921.00 L 1181.00 923.00 L 1155.00 925.00 L 1145.00 928.00 L 1151.00 932.00 L 1151.00 934.00 L 1145.00 934.00 L 1147.00 936.00 L 1157.00 940.00 L 1165.00 948.00 L 1171.00 960.00 L 1177.00 989.00 L 1183.00 1035.00 L 1186.00 1074.00 L 1186.00 1106.00 L 1184.00 1125.00 L 1180.00 1131.00 L 1183.00 1143.00 L 1193.00 1161.00 L 1198.00 1176.00 L 1198.00 1188.00 L 1203.00 1204.00 L 1213.00 1224.00 L 1223.00 1260.00 L 1233.00 1312.00 L 1237.00 1348.00 L 1235.00 1368.00 L 1228.00 1384.00 L 1216.00 1396.00 L 1193.00 1406.00 L 1159.00 1414.00 L 1089.00 1416.00 L 983.00 1412.00 L 887.00 1418.00 L 801.00 1434.00 L 724.00 1457.00 L 656.00 1487.00 L 578.00 1532.00 L 490.00 1592.00 L 438.00 1625.00 L 422.00 1631.00 L 403.00 1632.00 L 381.00 1628.00 L 367.00 1621.00 L 361.00 1611.00 L 407.00 1527.00 L 505.00 1369.00 L 504.00 1366.00 L 404.00 1518.00 L 404.00 1516.00 L 504.00 1360.00 L 503.00 1357.00 L 401.00 1507.00 L 394.00 1515.00 L 482.00 1381.00 L 483.00 1377.00 L 397.00 1503.00 L 394.00 1507.00 L 474.00 1389.00 L 475.00 1387.00 L 397.00 1501.00 L 407.00 1486.00 L 505.00 1342.00 L 506.00 1340.00 L 410.00 1480.00 L 401.00 1493.00 L 479.00 1379.00 L 479.00 1377.00 L 401.00 1487.00 L 384.00 1510.00 L 428.00 1446.00 L 429.00 1444.00 L 387.00 1504.00 L 413.00 1465.00 L 507.00 1327.00 L 554.00 1241.00 L 554.00 1207.00 L 543.00 1170.00 L 521.00 1130.00 L 513.00 1104.00 L 519.00 1092.00 L 513.00 1082.00 L 495.00 1074.00 L 479.00 1059.00 L 465.00 1037.00 L 458.00 1020.00 L 458.00 1008.00 L 463.00 992.00 L 473.00 972.00 L 476.00 951.00 L 472.00 929.00 L 469.00 916.00 L 467.00 912.00 L 465.00 907.00 Z" fill="black" stroke="black" stroke-width="1"/>
</svg>