<?xml version="1.0" encoding="UTF-8"?>
<svg xmlns="http://www.w3.org/2000/svg" viewBox="303.00 155.00 1019.00 1709.00">
  <path d="M 529.00 1009.00 L 567.00 991.00 L 557.00 967.00 L 499.00 937.00 L 472.00 886.00 L 476.00 814.00 L 459.00 753.00 L 421.00 703.00 L 419.00 691.00 L 453.00 717.00 L 451.00 710.00 L 413.00 670.00 L 411.00 663.00 L 445.00 689.00 L 447.00 685.00 L 417.00 651.00 L 427.00 604.00 L 477.00 544.00 L 500.00 485.00 L 496.00 427.00 L 498.00 403.00 L 506.00 413.00 L 507.00 411.00 L 501.00 397.00 L 502.00 394.00 L 510.00 402.00 L 511.00 399.00 L 505.00 385.00 L 507.00 381.00 L 517.00 387.00 L 519.00 382.00 L 513.00 366.00 L 515.00 363.00 L 525.00 373.00 L 527.00 370.00 L 521.00 354.00 L 523.00 349.00 L 533.00 355.00 L 536.00 350.00 L 532.00 334.00 L 535.00 330.00 L 545.00 338.00 L 548.00 334.00 L 544.00 318.00 L 545.00 316.00 L 551.00 328.00 L 554.00 325.00 L 554.00 307.00 L 556.00 303.00 L 560.00 313.00 L 562.00 311.00 L 562.00 297.00 L 589.00 268.00 L 643.00 224.00 L 704.00 192.00 L 772.00 172.00 L 860.00 165.00 L 968.00 171.00 L 1058.00 194.00 L 1130.00 234.00 L 1182.00 275.00 L 1214.00 317.00 L 1240.00 371.00 L 1260.00 437.00 L 1265.00 506.00 L 1255.00 578.00 L 1226.00 649.00 L 1178.00 719.00 L 1162.00 748.00 L 1178.00 736.00 L 1178.00 738.00 L 1162.00 754.00 L 1164.00 784.00 L 1184.00 828.00 L 1202.00 919.00 L 1218.00 1057.00 L 1215.00 1128.00 L 1193.00 1132.00 L 1193.00 1139.00 L 1215.00 1149.00 L 1217.00 1152.00 L 1199.00 1148.00 L 1201.00 1151.00 L 1223.00 1161.00 L 1226.00 1164.00 L 1210.00 1160.00 L 1213.00 1164.00 L 1235.00 1176.00 L 1235.00 1179.00 L 1213.00 1173.00 L 1214.00 1176.00 L 1238.00 1188.00 L 1240.00 1191.00 L 1220.00 1185.00 L 1225.00 1198.00 L 1255.00 1230.00 L 1284.00 1326.00 L 1312.00 1486.00 L 1255.00 1574.00 L 1113.00 1590.00 L 966.00 1626.00 L 814.00 1682.00 L 750.00 1580.00 L 774.00 1320.00 L 768.00 1323.00 L 732.00 1589.00 L 731.00 1589.00 L 765.00 1323.00 L 762.00 1324.00 L 722.00 1592.00 L 695.00 1730.00 L 681.00 1738.00 L 699.00 1603.00 L 749.00 1325.00 L 746.00 1327.00 L 690.00 1609.00 L 689.00 1610.00 L 743.00 1330.00 L 740.00 1331.00 L 680.00 1613.00 L 642.00 1759.00 L 626.00 1769.00 L 655.00 1625.00 L 729.00 1327.00 L 727.00 1328.00 L 649.00 1628.00 L 600.00 1784.00 L 580.00 1796.00 L 617.00 1646.00 L 711.00 1334.00 L 709.00 1336.00 L 611.00 1652.00 L 555.00 1814.00 L 541.00 1822.00 L 587.00 1668.00 L 693.00 1352.00 L 685.00 1355.00 L 563.00 1677.00 L 562.00 1676.00 L 682.00 1352.00 L 679.00 1353.00 L 553.00 1679.00 L 554.00 1675.00 L 682.00 1341.00 L 680.00 1342.00 L 548.00 1678.00 L 477.00 1848.00 L 467.00 1852.00 L 530.00 1688.00 L 666.00 1356.00 L 663.00 1356.00 L 521.00 1688.00 L 524.00 1680.00 L 672.00 1332.00 L 666.00 1334.00 L 506.00 1686.00 L 506.00 1684.00 L 666.00 1328.00 L 663.00 1327.00 L 497.00 1681.00 L 403.00 1854.00 L 381.00 1846.00 L 461.00 1670.00 L 643.00 1326.00 L 638.00 1323.00 L 446.00 1661.00 L 443.00 1663.00 L 629.00 1329.00 L 624.00 1323.00 L 428.00 1645.00 L 431.00 1639.00 L 633.00 1305.00 L 632.00 1303.00 L 428.00 1633.00 L 424.00 1639.00 L 620.00 1321.00 L 619.00 1318.00 L 421.00 1630.00 L 319.00 1771.00 L 313.00 1741.00 L 413.00 1579.00 L 619.00 1285.00 L 619.00 1280.00 L 413.00 1564.00 L 314.00 1686.00 L 322.00 1646.00 L 424.00 1502.00 L 620.00 1254.00 L 620.00 1252.00 L 424.00 1496.00 L 419.00 1501.00 L 605.00 1267.00 L 607.00 1260.00 L 425.00 1480.00 L 348.00 1561.00 L 376.00 1503.00 L 465.00 1392.00 L 615.00 1228.00 L 617.00 1224.00 L 471.00 1380.00 L 476.00 1374.00 L 632.00 1206.00 L 633.00 1203.00 L 479.00 1365.00 L 420.00 1419.00 L 456.00 1365.00 L 525.00 1289.00 L 627.00 1191.00 L 629.00 1188.00 L 531.00 1280.00 L 487.00 1319.00 L 497.00 1305.00 L 552.00 1252.00 L 652.00 1160.00 L 654.00 1156.00 L 558.00 1240.00 L 556.00 1239.00 L 648.00 1153.00 L 655.00 1140.00 L 577.00 1200.00 L 576.00 1198.00 L 652.00 1134.00 L 653.00 1128.00 L 579.00 1180.00 L 577.00 1179.00 L 647.00 1125.00 L 652.00 1115.00 L 592.00 1149.00 L 589.00 1148.00 L 643.00 1112.00 L 647.00 1106.00 L 601.00 1130.00 L 599.00 1127.00 L 641.00 1097.00 L 642.00 1079.00 L 602.00 1073.00 L 588.00 1067.00 L 600.00 1061.00 L 583.00 1049.00 L 537.00 1031.00 L 513.00 1021.00 L 511.00 1019.00 L 529.00 1009.00 Z" fill="black" stroke="black" stroke-width="1"/>
</svg>