<?xml version="1.0" encoding="UTF-8"?>
<svg xmlns="http://www.w3.org/2000/svg" viewBox="218.00 206.00 1007.00 1716.00">
  <path d="M 365.00 996.00 L 371.00 960.00 L 381.00 933.00 L 395.00 915.00 L 395.00 901.00 L 381.00 891.00 L 371.00 866.00 L 365.00 826.00 L 349.00 775.00 L 323.00 713.00 L 307.00 648.00 L 301.00 580.00 L 301.00 527.00 L 307.00 489.00 L 316.00 455.00 L 328.00 425.00 L 359.00 380.00 L 409.00 320.00 L 456.00 278.00 L 500.00 254.00 L 539.00 237.00 L 573.00 227.00 L 603.00 223.00 L 629.00 225.00 L 643.00 231.00 L 645.00 241.00 L 648.00 240.00 L 652.00 228.00 L 655.00 228.00 L 657.00 240.00 L 659.00 239.00 L 661.00 225.00 L 664.00 225.00 L 668.00 239.00 L 671.00 238.00 L 673.00 222.00 L 676.00 218.00 L 680.00 226.00 L 684.00 226.00 L 688.00 218.00 L 693.00 219.00 L 699.00 229.00 L 703.00 228.00 L 705.00 216.00 L 709.00 222.00 L 715.00 246.00 L 719.00 252.00 L 721.00 240.00 L 725.00 239.00 L 731.00 249.00 L 734.00 249.00 L 734.00 239.00 L 738.00 239.00 L 746.00 249.00 L 752.00 250.00 L 756.00 242.00 L 760.00 242.00 L 764.00 250.00 L 767.00 249.00 L 769.00 239.00 L 772.00 239.00 L 776.00 249.00 L 779.00 248.00 L 781.00 236.00 L 783.00 237.00 L 785.00 251.00 L 789.00 252.00 L 795.00 240.00 L 800.00 240.00 L 804.00 252.00 L 807.00 252.00 L 809.00 240.00 L 811.00 240.00 L 813.00 252.00 L 816.00 253.00 L 820.00 243.00 L 823.00 243.00 L 825.00 253.00 L 828.00 254.00 L 832.00 246.00 L 835.00 248.00 L 837.00 260.00 L 840.00 260.00 L 844.00 248.00 L 846.00 248.00 L 846.00 260.00 L 848.00 261.00 L 852.00 251.00 L 855.00 250.00 L 857.00 258.00 L 859.00 259.00 L 861.00 253.00 L 867.00 252.00 L 877.00 256.00 L 882.00 266.00 L 882.00 282.00 L 883.00 284.00 L 885.00 272.00 L 886.00 271.00 L 886.00 281.00 L 890.00 284.00 L 898.00 280.00 L 912.00 282.00 L 932.00 290.00 L 954.00 301.00 L 978.00 315.00 L 1007.00 339.00 L 1041.00 373.00 L 1064.00 409.00 L 1076.00 447.00 L 1080.00 470.00 L 1076.00 478.00 L 1078.00 480.00 L 1086.00 476.00 L 1088.00 480.00 L 1084.00 492.00 L 1089.00 513.00 L 1103.00 543.00 L 1108.00 574.00 L 1104.00 606.00 L 1128.00 659.00 L 1180.00 733.00 L 1201.00 777.00 L 1191.00 791.00 L 1173.00 805.00 L 1147.00 819.00 L 1144.00 821.00 L 1164.00 811.00 L 1163.00 815.00 L 1141.00 833.00 L 1131.00 864.00 L 1133.00 908.00 L 1128.00 944.00 L 1116.00 972.00 L 1113.00 995.00 L 1119.00 1013.00 L 1119.00 1032.00 L 1113.00 1052.00 L 1088.00 1076.00 L 1044.00 1104.00 L 1030.00 1127.00 L 1046.00 1145.00 L 1049.00 1161.00 L 1039.00 1175.00 L 1043.00 1190.00 L 1061.00 1206.00 L 1059.00 1208.00 L 1037.00 1196.00 L 1038.00 1201.00 L 1062.00 1223.00 L 1061.00 1226.00 L 1035.00 1210.00 L 1035.00 1213.00 L 1061.00 1235.00 L 1062.00 1239.00 L 1038.00 1225.00 L 1037.00 1227.00 L 1059.00 1245.00 L 1057.00 1244.00 L 1031.00 1224.00 L 1028.00 1226.00 L 1048.00 1250.00 L 1047.00 1253.00 L 1025.00 1235.00 L 1032.00 1243.00 L 1068.00 1277.00 L 1067.00 1278.00 L 1029.00 1246.00 L 1041.00 1260.00 L 1103.00 1320.00 L 1125.00 1343.00 L 1107.00 1329.00 L 1106.00 1332.00 L 1122.00 1352.00 L 1119.00 1363.00 L 1097.00 1365.00 L 1076.00 1357.00 L 1056.00 1339.00 L 1051.00 1336.00 L 1061.00 1348.00 L 1059.00 1350.00 L 1045.00 1342.00 L 1049.00 1356.00 L 1071.00 1392.00 L 1069.00 1394.00 L 1043.00 1362.00 L 1050.00 1373.00 L 1090.00 1427.00 L 1130.00 1498.00 L 1170.00 1586.00 L 1197.00 1677.00 L 1211.00 1771.00 L 1215.00 1833.00 L 1209.00 1863.00 L 1201.00 1885.00 L 1191.00 1899.00 L 1178.00 1908.00 L 1162.00 1912.00 L 1131.00 1911.00 L 1085.00 1905.00 L 1027.00 1874.00 L 957.00 1818.00 L 869.00 1759.00 L 763.00 1697.00 L 709.00 1662.00 L 707.00 1654.00 L 704.00 1652.00 L 700.00 1656.00 L 680.00 1649.00 L 644.00 1631.00 L 584.00 1611.00 L 500.00 1589.00 L 437.00 1575.00 L 395.00 1569.00 L 339.00 1567.00 L 269.00 1569.00 L 232.00 1567.00 L 228.00 1561.00 L 233.00 1520.00 L 247.00 1444.00 L 278.00 1349.00 L 326.00 1235.00 L 348.00 1166.00 L 344.00 1142.00 L 347.00 1103.00 L 357.00 1049.00 L 362.00 1020.00 L 362.00 1016.00 L 365.00 996.00 Z" fill="black" stroke="black" stroke-width="1"/>
</svg>