<?xml version="1.0" encoding="UTF-8"?>
<svg xmlns="http://www.w3.org/2000/svg" viewBox="230.00 332.00 793.00 1463.00">
  <path d="M 427.00 1019.00 L 429.00 1005.00 L 437.00 988.00 L 451.00 968.00 L 459.00 947.00 L 461.00 925.00 L 418.00 884.00 L 330.00 824.00 L 330.00 822.00 L 418.00 878.00 L 416.00 876.00 L 324.00 816.00 L 276.00 784.00 L 272.00 780.00 L 290.00 791.00 L 330.00 817.00 L 328.00 815.00 L 284.00 785.00 L 285.00 785.00 L 331.00 815.00 L 330.00 813.00 L 282.00 779.00 L 309.00 796.00 L 411.00 864.00 L 410.00 862.00 L 306.00 790.00 L 292.00 779.00 L 368.00 829.00 L 367.00 826.00 L 289.00 770.00 L 295.00 773.00 L 385.00 835.00 L 384.00 831.00 L 292.00 761.00 L 300.00 766.00 L 408.00 846.00 L 408.00 843.00 L 300.00 757.00 L 300.00 755.00 L 408.00 837.00 L 408.00 835.00 L 300.00 749.00 L 299.00 747.00 L 405.00 829.00 L 405.00 826.00 L 299.00 738.00 L 244.00 670.00 L 240.00 622.00 L 244.00 577.00 L 256.00 535.00 L 282.00 490.00 L 322.00 442.00 L 355.00 412.00 L 381.00 400.00 L 409.00 380.00 L 439.00 352.00 L 459.00 342.00 L 469.00 350.00 L 484.00 350.00 L 504.00 342.00 L 519.00 349.00 L 529.00 371.00 L 532.00 371.00 L 528.00 349.00 L 529.00 349.00 L 535.00 371.00 L 537.00 371.00 L 535.00 349.00 L 537.00 348.00 L 543.00 368.00 L 546.00 370.00 L 546.00 354.00 L 548.00 354.00 L 552.00 370.00 L 573.00 377.00 L 611.00 375.00 L 645.00 376.00 L 675.00 380.00 L 723.00 396.00 L 789.00 424.00 L 842.00 455.00 L 882.00 489.00 L 919.00 530.00 L 953.00 578.00 L 969.00 613.00 L 967.00 635.00 L 968.00 656.00 L 972.00 676.00 L 966.00 699.00 L 950.00 725.00 L 947.00 735.00 L 957.00 729.00 L 958.00 730.00 L 950.00 738.00 L 946.00 745.00 L 946.00 751.00 L 951.00 750.00 L 961.00 742.00 L 962.00 745.00 L 954.00 759.00 L 961.00 792.00 L 983.00 844.00 L 991.00 874.00 L 985.00 882.00 L 972.00 891.00 L 952.00 901.00 L 950.00 903.00 L 966.00 897.00 L 965.00 901.00 L 947.00 915.00 L 940.00 926.00 L 944.00 934.00 L 942.00 945.00 L 934.00 959.00 L 931.00 969.00 L 933.00 975.00 L 927.00 986.00 L 913.00 1002.00 L 905.00 1023.00 L 903.00 1049.00 L 897.00 1067.00 L 887.00 1077.00 L 872.00 1085.00 L 852.00 1091.00 L 834.00 1095.00 L 818.00 1097.00 L 799.00 1095.00 L 777.00 1089.00 L 764.00 1087.00 L 760.00 1089.00 L 753.00 1106.00 L 743.00 1138.00 L 794.00 1236.00 L 906.00 1400.00 L 937.00 1446.00 L 887.00 1374.00 L 893.00 1384.00 L 955.00 1476.00 L 947.00 1465.00 L 869.00 1351.00 L 869.00 1352.00 L 947.00 1468.00 L 944.00 1464.00 L 860.00 1340.00 L 861.00 1343.00 L 947.00 1473.00 L 941.00 1465.00 L 843.00 1319.00 L 845.00 1324.00 L 947.00 1480.00 L 946.00 1479.00 L 842.00 1321.00 L 843.00 1323.00 L 949.00 1485.00 L 948.00 1484.00 L 840.00 1320.00 L 841.00 1323.00 L 951.00 1493.00 L 939.00 1475.00 L 805.00 1269.00 L 806.00 1273.00 L 942.00 1487.00 L 950.00 1500.00 L 830.00 1312.00 L 830.00 1314.00 L 950.00 1506.00 L 947.00 1502.00 L 821.00 1302.00 L 822.00 1305.00 L 950.00 1511.00 L 949.00 1510.00 L 819.00 1302.00 L 819.00 1304.00 L 949.00 1516.00 L 945.00 1510.00 L 807.00 1286.00 L 807.00 1289.00 L 945.00 1519.00 L 946.00 1521.00 L 810.00 1295.00 L 810.00 1298.00 L 946.00 1530.00 L 1013.00 1656.00 L 1011.00 1676.00 L 1000.00 1699.00 L 980.00 1725.00 L 960.00 1745.00 L 940.00 1759.00 L 916.00 1771.00 L 888.00 1781.00 L 872.00 1785.00 L 868.00 1783.00 L 841.00 1760.00 L 791.00 1716.00 L 758.00 1684.00 L 742.00 1664.00 L 734.00 1656.00 L 734.00 1660.00 L 696.00 1630.00 L 620.00 1566.00 L 536.00 1506.00 L 444.00 1450.00 L 369.00 1410.00 L 311.00 1386.00 L 281.00 1370.00 L 279.00 1362.00 L 280.00 1350.00 L 284.00 1334.00 L 295.00 1307.00 L 313.00 1269.00 L 329.00 1227.00 L 343.00 1181.00 L 358.00 1147.00 L 374.00 1125.00 L 387.00 1099.00 L 397.00 1069.00 L 406.00 1049.00 L 414.00 1039.00 L 420.00 1032.00 L 424.00 1028.00 L 427.00 1019.00 Z" fill="black" stroke="black" stroke-width="1"/>
</svg>