<?xml version="1.0" encoding="UTF-8"?>
<svg xmlns="http://www.w3.org/2000/svg" viewBox="333.00 248.00 887.00 1555.00">
  <path d="M 454.00 1021.00 L 454.00 995.00 L 457.00 972.00 L 463.00 952.00 L 465.00 941.00 L 463.00 939.00 L 464.00 931.00 L 468.00 917.00 L 471.00 897.00 L 473.00 871.00 L 476.00 853.00 L 480.00 843.00 L 486.00 833.00 L 494.00 823.00 L 489.00 808.00 L 471.00 788.00 L 459.00 770.00 L 453.00 754.00 L 438.00 724.00 L 414.00 680.00 L 398.00 647.00 L 390.00 625.00 L 385.00 600.00 L 383.00 572.00 L 384.00 544.00 L 388.00 516.00 L 395.00 490.00 L 405.00 466.00 L 419.00 437.00 L 437.00 403.00 L 450.00 381.00 L 458.00 371.00 L 477.00 353.00 L 507.00 327.00 L 530.00 310.00 L 546.00 302.00 L 575.00 291.00 L 617.00 277.00 L 654.00 267.00 L 686.00 261.00 L 729.00 258.00 L 783.00 258.00 L 825.00 261.00 L 855.00 267.00 L 876.00 273.00 L 888.00 279.00 L 895.00 285.00 L 897.00 291.00 L 899.00 292.00 L 901.00 288.00 L 902.00 289.00 L 902.00 295.00 L 907.00 297.00 L 917.00 295.00 L 933.00 301.00 L 955.00 315.00 L 966.00 324.00 L 966.00 328.00 L 968.00 331.00 L 972.00 333.00 L 976.00 333.00 L 980.00 331.00 L 989.00 335.00 L 1003.00 345.00 L 1018.00 358.00 L 1034.00 374.00 L 1047.00 390.00 L 1057.00 406.00 L 1063.00 422.00 L 1065.00 438.00 L 1069.00 443.00 L 1075.00 437.00 L 1076.00 439.00 L 1072.00 449.00 L 1080.00 475.00 L 1100.00 517.00 L 1110.00 550.00 L 1110.00 574.00 L 1123.00 609.00 L 1149.00 655.00 L 1163.00 684.00 L 1165.00 696.00 L 1168.00 701.00 L 1172.00 699.00 L 1173.00 700.00 L 1171.00 704.00 L 1172.00 705.00 L 1176.00 703.00 L 1178.00 705.00 L 1178.00 711.00 L 1183.00 718.00 L 1193.00 726.00 L 1184.00 743.00 L 1156.00 769.00 L 1156.00 771.00 L 1184.00 749.00 L 1181.00 753.00 L 1147.00 783.00 L 1147.00 785.00 L 1181.00 759.00 L 1182.00 759.00 L 1150.00 785.00 L 1149.00 787.00 L 1179.00 765.00 L 1181.00 766.00 L 1155.00 790.00 L 1142.00 805.00 L 1142.00 811.00 L 1145.00 818.00 L 1151.00 826.00 L 1148.00 837.00 L 1136.00 851.00 L 1134.00 860.00 L 1142.00 864.00 L 1146.00 868.00 L 1146.00 872.00 L 1140.00 883.00 L 1128.00 901.00 L 1126.00 921.00 L 1134.00 943.00 L 1137.00 959.00 L 1135.00 969.00 L 1130.00 981.00 L 1122.00 995.00 L 1110.00 1008.00 L 1094.00 1020.00 L 1093.00 1030.00 L 1107.00 1038.00 L 1112.00 1048.00 L 1108.00 1060.00 L 1100.00 1072.00 L 1088.00 1084.00 L 1086.00 1093.00 L 1094.00 1099.00 L 1096.00 1102.00 L 1092.00 1102.00 L 1095.00 1104.00 L 1105.00 1108.00 L 1100.00 1108.00 L 1080.00 1104.00 L 1081.00 1106.00 L 1103.00 1114.00 L 1102.00 1116.00 L 1078.00 1112.00 L 1078.00 1115.00 L 1102.00 1125.00 L 1113.00 1135.00 L 1111.00 1145.00 L 1108.00 1152.00 L 1104.00 1156.00 L 1099.00 1158.00 L 1093.00 1158.00 L 1089.00 1160.00 L 1087.00 1164.00 L 1092.00 1172.00 L 1104.00 1184.00 L 1112.00 1195.00 L 1116.00 1205.00 L 1130.00 1217.00 L 1154.00 1231.00 L 1136.00 1221.00 L 1076.00 1187.00 L 1075.00 1188.00 L 1133.00 1224.00 L 1133.00 1226.00 L 1075.00 1194.00 L 1072.00 1195.00 L 1124.00 1229.00 L 1146.00 1244.00 L 1138.00 1240.00 L 1135.00 1240.00 L 1137.00 1244.00 L 1116.00 1232.00 L 1072.00 1204.00 L 1070.00 1204.00 L 1110.00 1232.00 L 1111.00 1234.00 L 1073.00 1210.00 L 1070.00 1210.00 L 1102.00 1234.00 L 1103.00 1236.00 L 1073.00 1216.00 L 1060.00 1219.00 L 1064.00 1245.00 L 1087.00 1301.00 L 1129.00 1387.00 L 1162.00 1466.00 L 1186.00 1538.00 L 1201.00 1593.00 L 1207.00 1631.00 L 1210.00 1665.00 L 1210.00 1695.00 L 1206.00 1720.00 L 1198.00 1740.00 L 1189.00 1755.00 L 1179.00 1765.00 L 1165.00 1775.00 L 1147.00 1785.00 L 1128.00 1791.00 L 1108.00 1793.00 L 1090.00 1793.00 L 1074.00 1791.00 L 1035.00 1777.00 L 973.00 1751.00 L 898.00 1716.00 L 810.00 1672.00 L 733.00 1637.00 L 667.00 1611.00 L 597.00 1586.00 L 523.00 1562.00 L 451.00 1543.00 L 381.00 1529.00 L 345.00 1520.00 L 343.00 1516.00 L 343.00 1508.00 L 345.00 1496.00 L 352.00 1463.00 L 364.00 1409.00 L 377.00 1366.00 L 391.00 1334.00 L 402.00 1303.00 L 410.00 1273.00 L 425.00 1237.00 L 447.00 1195.00 L 458.00 1165.00 L 458.00 1147.00 L 461.00 1126.00 L 467.00 1102.00 L 466.00 1078.00 L 458.00 1054.00 L 454.00 1040.00 L 454.00 1036.00 L 454.00 1021.00 Z" fill="black" stroke="black" stroke-width="1"/>
</svg>