<?xml version="1.0" encoding="UTF-8"?>
<svg xmlns="http://www.w3.org/2000/svg" viewBox="337.00 239.00 923.00 1538.00">
  <path d="M 501.00 948.00 L 515.00 932.00 L 526.00 904.00 L 534.00 864.00 L 500.00 805.00 L 424.00 727.00 L 377.00 663.00 L 359.00 613.00 L 352.00 556.00 L 356.00 492.00 L 363.00 449.00 L 373.00 427.00 L 392.00 405.00 L 420.00 383.00 L 441.00 355.00 L 455.00 321.00 L 465.00 302.00 L 471.00 298.00 L 480.00 299.00 L 492.00 305.00 L 512.00 294.00 L 540.00 266.00 L 564.00 251.00 L 584.00 249.00 L 598.00 257.00 L 606.00 275.00 L 609.00 277.00 L 607.00 263.00 L 608.00 263.00 L 612.00 277.00 L 613.00 279.00 L 611.00 269.00 L 613.00 268.00 L 619.00 276.00 L 641.00 276.00 L 679.00 268.00 L 728.00 266.00 L 788.00 270.00 L 842.00 280.00 L 890.00 296.00 L 935.00 317.00 L 977.00 343.00 L 1014.00 372.00 L 1046.00 404.00 L 1060.00 427.00 L 1056.00 441.00 L 1057.00 442.00 L 1063.00 430.00 L 1064.00 433.00 L 1060.00 451.00 L 1062.00 453.00 L 1070.00 439.00 L 1070.00 441.00 L 1062.00 459.00 L 1063.00 461.00 L 1073.00 447.00 L 1075.00 448.00 L 1069.00 464.00 L 1070.00 465.00 L 1078.00 451.00 L 1078.00 456.00 L 1070.00 480.00 L 1072.00 484.00 L 1084.00 468.00 L 1084.00 473.00 L 1072.00 499.00 L 1073.00 502.00 L 1087.00 482.00 L 1088.00 486.00 L 1076.00 514.00 L 1076.00 519.00 L 1088.00 501.00 L 1089.00 507.00 L 1079.00 537.00 L 1080.00 545.00 L 1092.00 531.00 L 1098.00 526.00 L 1098.00 530.00 L 1093.00 540.00 L 1083.00 556.00 L 1076.00 577.00 L 1072.00 603.00 L 1087.00 647.00 L 1121.00 709.00 L 1128.00 749.00 L 1108.00 767.00 L 1102.00 787.00 L 1110.00 809.00 L 1109.00 825.00 L 1099.00 835.00 L 1094.00 847.00 L 1094.00 861.00 L 1087.00 873.00 L 1073.00 883.00 L 1068.00 901.00 L 1072.00 927.00 L 1071.00 946.00 L 1065.00 958.00 L 1017.00 987.00 L 927.00 1033.00 L 962.00 1161.00 L 1122.00 1371.00 L 1180.00 1448.00 L 1136.00 1392.00 L 1138.00 1396.00 L 1186.00 1460.00 L 1183.00 1457.00 L 1129.00 1387.00 L 1130.00 1389.00 L 1186.00 1463.00 L 1181.00 1457.00 L 1115.00 1371.00 L 1116.00 1373.00 L 1184.00 1463.00 L 1182.00 1461.00 L 1110.00 1367.00 L 1111.00 1369.00 L 1185.00 1467.00 L 1183.00 1465.00 L 1105.00 1363.00 L 1106.00 1366.00 L 1186.00 1474.00 L 1181.00 1468.00 L 1091.00 1348.00 L 1093.00 1352.00 L 1187.00 1480.00 L 1184.00 1477.00 L 1084.00 1343.00 L 1085.00 1346.00 L 1187.00 1486.00 L 1185.00 1484.00 L 1079.00 1340.00 L 1080.00 1343.00 L 1188.00 1493.00 L 1186.00 1491.00 L 1074.00 1337.00 L 1074.00 1339.00 L 1186.00 1497.00 L 1184.00 1495.00 L 1068.00 1333.00 L 1069.00 1336.00 L 1187.00 1504.00 L 1184.00 1501.00 L 1060.00 1327.00 L 1061.00 1331.00 L 1187.00 1513.00 L 1184.00 1510.00 L 1052.00 1322.00 L 1052.00 1325.00 L 1184.00 1519.00 L 1156.00 1478.00 L 968.00 1202.00 L 968.00 1204.00 L 1156.00 1484.00 L 1250.00 1626.00 L 1250.00 1630.00 L 1179.00 1526.00 L 1037.00 1314.00 L 1036.00 1317.00 L 1176.00 1535.00 L 1174.00 1533.00 L 1030.00 1311.00 L 1030.00 1312.00 L 1174.00 1536.00 L 1245.00 1650.00 L 1243.00 1654.00 L 1168.00 1540.00 L 1020.00 1308.00 L 1018.00 1312.00 L 1162.00 1552.00 L 1159.00 1549.00 L 1009.00 1303.00 L 1008.00 1307.00 L 1156.00 1561.00 L 1154.00 1559.00 L 1002.00 1301.00 L 1001.00 1303.00 L 1151.00 1565.00 L 1136.00 1540.00 L 956.00 1228.00 L 954.00 1230.00 L 1130.00 1546.00 L 1141.00 1567.00 L 987.00 1293.00 L 986.00 1295.00 L 1138.00 1573.00 L 1136.00 1571.00 L 980.00 1289.00 L 978.00 1292.00 L 1130.00 1580.00 L 1204.00 1726.00 L 1200.00 1730.00 L 1122.00 1584.00 L 970.00 1288.00 L 967.00 1290.00 L 1113.00 1590.00 L 1111.00 1588.00 L 961.00 1284.00 L 959.00 1285.00 L 1105.00 1591.00 L 1176.00 1745.00 L 1172.00 1747.00 L 1092.00 1581.00 L 936.00 1247.00 L 934.00 1249.00 L 1086.00 1587.00 L 1090.00 1597.00 L 946.00 1279.00 L 944.00 1280.00 L 1084.00 1600.00 L 1082.00 1597.00 L 938.00 1271.00 L 936.00 1272.00 L 1076.00 1600.00 L 1141.00 1765.00 L 1131.00 1767.00 L 1058.00 1599.00 L 922.00 1261.00 L 919.00 1262.00 L 1049.00 1602.00 L 1104.00 1767.00 L 1084.00 1757.00 L 1004.00 1696.00 L 864.00 1584.00 L 763.00 1507.00 L 701.00 1465.00 L 632.00 1422.00 L 556.00 1378.00 L 490.00 1344.00 L 434.00 1320.00 L 391.00 1305.00 L 361.00 1299.00 L 347.00 1285.00 L 349.00 1263.00 L 361.00 1222.00 L 383.00 1162.00 L 416.00 1091.00 L 460.00 1009.00 L 485.00 965.00 L 491.00 959.00 L 501.00 948.00 Z" fill="black" stroke="black" stroke-width="1"/>
</svg>