<?xml version="1.0" encoding="UTF-8"?>
<svg xmlns="http://www.w3.org/2000/svg" viewBox="244.00 263.00 924.00 1513.00">
  <path d="M 357.00 973.00 L 363.00 923.00 L 369.00 893.00 L 375.00 883.00 L 381.00 876.00 L 387.00 872.00 L 388.00 867.00 L 384.00 861.00 L 375.00 854.00 L 361.00 846.00 L 363.00 846.00 L 381.00 854.00 L 379.00 852.00 L 357.00 840.00 L 337.00 823.00 L 319.00 801.00 L 312.00 791.00 L 316.00 793.00 L 312.00 788.00 L 300.00 776.00 L 288.00 760.00 L 276.00 740.00 L 266.00 716.00 L 258.00 688.00 L 254.00 647.00 L 254.00 593.00 L 259.00 549.00 L 269.00 515.00 L 281.00 488.00 L 295.00 468.00 L 303.00 447.00 L 305.00 425.00 L 305.00 406.00 L 303.00 390.00 L 306.00 388.00 L 314.00 400.00 L 316.00 402.00 L 312.00 394.00 L 314.00 395.00 L 322.00 405.00 L 321.00 401.00 L 311.00 383.00 L 312.00 382.00 L 324.00 398.00 L 329.00 403.00 L 327.00 397.00 L 327.00 395.00 L 329.00 397.00 L 325.00 390.00 L 315.00 374.00 L 314.00 363.00 L 322.00 357.00 L 331.00 355.00 L 341.00 357.00 L 351.00 366.00 L 361.00 382.00 L 363.00 383.00 L 357.00 369.00 L 359.00 369.00 L 369.00 383.00 L 388.00 376.00 L 416.00 348.00 L 445.00 325.00 L 475.00 307.00 L 505.00 294.00 L 535.00 286.00 L 572.00 279.00 L 616.00 273.00 L 669.00 276.00 L 731.00 288.00 L 788.00 306.00 L 840.00 330.00 L 891.00 360.00 L 941.00 396.00 L 967.00 415.00 L 969.00 417.00 L 969.00 422.00 L 967.00 430.00 L 968.00 433.00 L 972.00 431.00 L 973.00 433.00 L 971.00 439.00 L 974.00 453.00 L 982.00 475.00 L 992.00 495.00 L 1004.00 513.00 L 1013.00 540.00 L 1019.00 576.00 L 1033.00 602.00 L 1055.00 618.00 L 1074.00 636.00 L 1090.00 656.00 L 1106.00 673.00 L 1122.00 687.00 L 1131.00 697.00 L 1133.00 703.00 L 1133.00 710.00 L 1131.00 718.00 L 1119.00 731.00 L 1097.00 749.00 L 1096.00 752.00 L 1116.00 740.00 L 1115.00 742.00 L 1093.00 758.00 L 1090.00 761.00 L 1106.00 751.00 L 1106.00 754.00 L 1090.00 770.00 L 1082.00 789.00 L 1082.00 811.00 L 1078.00 829.00 L 1070.00 843.00 L 1067.00 855.00 L 1069.00 865.00 L 1062.00 882.00 L 1046.00 906.00 L 1042.00 926.00 L 1050.00 942.00 L 1054.00 956.00 L 1054.00 968.00 L 1052.00 979.00 L 1048.00 989.00 L 1037.00 1000.00 L 1019.00 1012.00 L 1000.00 1021.00 L 980.00 1027.00 L 970.00 1032.00 L 970.00 1036.00 L 979.00 1040.00 L 997.00 1044.00 L 999.00 1046.00 L 985.00 1046.00 L 987.00 1049.00 L 1005.00 1055.00 L 1013.00 1061.00 L 1011.00 1067.00 L 1004.00 1077.00 L 992.00 1091.00 L 992.00 1101.00 L 1004.00 1107.00 L 1003.00 1108.00 L 989.00 1104.00 L 990.00 1105.00 L 1006.00 1111.00 L 1011.00 1113.00 L 1005.00 1111.00 L 1007.00 1113.00 L 1017.00 1119.00 L 1012.00 1120.00 L 992.00 1116.00 L 992.00 1119.00 L 1012.00 1129.00 L 1011.00 1131.00 L 989.00 1125.00 L 987.00 1128.00 L 1005.00 1140.00 L 1007.00 1148.00 L 993.00 1152.00 L 985.00 1158.00 L 983.00 1166.00 L 993.00 1186.00 L 1015.00 1218.00 L 1028.00 1243.00 L 1032.00 1261.00 L 1034.00 1277.00 L 1034.00 1291.00 L 1042.00 1309.00 L 1058.00 1331.00 L 1074.00 1358.00 L 1090.00 1390.00 L 1096.00 1404.00 L 1092.00 1400.00 L 1097.00 1409.00 L 1111.00 1431.00 L 1122.00 1452.00 L 1130.00 1472.00 L 1139.00 1501.00 L 1149.00 1539.00 L 1153.00 1557.00 L 1151.00 1555.00 L 1152.00 1562.00 L 1156.00 1578.00 L 1158.00 1605.00 L 1158.00 1643.00 L 1153.00 1677.00 L 1143.00 1707.00 L 1128.00 1731.00 L 1108.00 1749.00 L 1091.00 1760.00 L 1077.00 1764.00 L 1063.00 1766.00 L 1049.00 1766.00 L 1039.00 1764.00 L 1033.00 1760.00 L 1023.00 1757.00 L 1009.00 1755.00 L 993.00 1749.00 L 975.00 1739.00 L 948.00 1721.00 L 912.00 1695.00 L 889.00 1680.00 L 879.00 1676.00 L 872.00 1671.00 L 868.00 1665.00 L 866.00 1664.00 L 866.00 1668.00 L 865.00 1667.00 L 863.00 1661.00 L 797.00 1626.00 L 667.00 1562.00 L 563.00 1520.00 L 485.00 1500.00 L 428.00 1488.00 L 392.00 1484.00 L 350.00 1482.00 L 302.00 1482.00 L 276.00 1480.00 L 272.00 1476.00 L 272.00 1447.00 L 276.00 1393.00 L 286.00 1330.00 L 302.00 1258.00 L 314.00 1210.00 L 322.00 1186.00 L 332.00 1162.00 L 344.00 1138.00 L 348.00 1117.00 L 344.00 1099.00 L 342.00 1079.00 L 342.00 1057.00 L 344.00 1037.00 L 348.00 1019.00 L 351.00 1007.00 L 353.00 1001.00 L 357.00 973.00 Z" fill="black" stroke="black" stroke-width="1"/>
</svg>