<?xml version="1.0" encoding="UTF-8"?>
<svg xmlns="http://www.w3.org/2000/svg" viewBox="394.00 209.00 925.00 1586.00">
  <path d="M 609.00 934.00 L 615.00 894.00 L 589.00 852.00 L 531.00 808.00 L 511.00 790.00 L 529.00 798.00 L 523.00 794.00 L 493.00 778.00 L 465.00 752.00 L 439.00 716.00 L 420.00 674.00 L 408.00 626.00 L 404.00 581.00 L 408.00 539.00 L 423.00 493.00 L 449.00 443.00 L 476.00 405.00 L 504.00 379.00 L 542.00 356.00 L 590.00 336.00 L 626.00 305.00 L 650.00 263.00 L 673.00 249.00 L 695.00 263.00 L 713.00 261.00 L 727.00 243.00 L 744.00 230.00 L 764.00 222.00 L 778.00 219.00 L 786.00 221.00 L 792.00 237.00 L 796.00 267.00 L 798.00 270.00 L 798.00 246.00 L 801.00 246.00 L 807.00 270.00 L 836.00 284.00 L 888.00 288.00 L 949.00 305.00 L 1019.00 335.00 L 1068.00 362.00 L 1096.00 386.00 L 1125.00 420.00 L 1155.00 464.00 L 1168.00 494.00 L 1164.00 510.00 L 1166.00 512.00 L 1174.00 500.00 L 1175.00 505.00 L 1169.00 527.00 L 1172.00 532.00 L 1184.00 520.00 L 1185.00 522.00 L 1175.00 538.00 L 1176.00 541.00 L 1188.00 531.00 L 1189.00 534.00 L 1179.00 550.00 L 1179.00 552.00 L 1189.00 540.00 L 1190.00 545.00 L 1182.00 567.00 L 1183.00 572.00 L 1193.00 560.00 L 1195.00 560.00 L 1189.00 572.00 L 1190.00 575.00 L 1198.00 569.00 L 1197.00 572.00 L 1187.00 584.00 L 1187.00 587.00 L 1197.00 581.00 L 1197.00 584.00 L 1187.00 596.00 L 1187.00 599.00 L 1197.00 593.00 L 1197.00 596.00 L 1187.00 608.00 L 1187.00 610.00 L 1197.00 602.00 L 1196.00 605.00 L 1184.00 619.00 L 1183.00 622.00 L 1193.00 614.00 L 1192.00 623.00 L 1180.00 649.00 L 1183.00 682.00 L 1201.00 722.00 L 1208.00 745.00 L 1204.00 751.00 L 1206.00 757.00 L 1214.00 763.00 L 1222.00 778.00 L 1230.00 802.00 L 1218.00 823.00 L 1186.00 841.00 L 1182.00 846.00 L 1206.00 838.00 L 1204.00 841.00 L 1176.00 855.00 L 1160.00 879.00 L 1156.00 913.00 L 1149.00 937.00 L 1139.00 951.00 L 1133.00 972.00 L 1131.00 1000.00 L 1126.00 1021.00 L 1118.00 1035.00 L 1083.00 1055.00 L 1021.00 1081.00 L 1063.00 1189.00 L 1209.00 1379.00 L 1207.00 1381.00 L 1057.00 1195.00 L 1059.00 1199.00 L 1213.00 1393.00 L 1258.00 1451.00 L 1194.00 1373.00 L 1195.00 1376.00 L 1261.00 1460.00 L 1258.00 1457.00 L 1186.00 1367.00 L 1188.00 1371.00 L 1264.00 1469.00 L 1261.00 1466.00 L 1179.00 1362.00 L 1180.00 1365.00 L 1264.00 1475.00 L 1262.00 1473.00 L 1174.00 1359.00 L 1175.00 1361.00 L 1265.00 1479.00 L 1263.00 1477.00 L 1169.00 1355.00 L 1169.00 1356.00 L 1263.00 1480.00 L 1259.00 1476.00 L 1157.00 1344.00 L 1157.00 1347.00 L 1259.00 1485.00 L 1256.00 1482.00 L 1148.00 1338.00 L 1148.00 1340.00 L 1256.00 1488.00 L 1252.00 1484.00 L 1136.00 1328.00 L 1137.00 1333.00 L 1255.00 1499.00 L 1229.00 1464.00 L 1059.00 1228.00 L 1058.00 1231.00 L 1226.00 1473.00 L 1244.00 1500.00 L 1112.00 1312.00 L 1112.00 1315.00 L 1244.00 1509.00 L 1242.00 1507.00 L 1106.00 1309.00 L 1106.00 1312.00 L 1242.00 1516.00 L 1309.00 1620.00 L 1307.00 1624.00 L 1236.00 1520.00 L 1096.00 1308.00 L 1095.00 1311.00 L 1233.00 1529.00 L 1230.00 1527.00 L 1086.00 1305.00 L 1084.00 1309.00 L 1224.00 1539.00 L 1212.00 1521.00 L 1048.00 1255.00 L 1047.00 1257.00 L 1209.00 1527.00 L 1289.00 1664.00 L 1287.00 1668.00 L 1212.00 1545.00 L 1064.00 1295.00 L 1063.00 1297.00 L 1209.00 1551.00 L 1280.00 1680.00 L 1276.00 1684.00 L 1196.00 1547.00 L 1040.00 1269.00 L 1038.00 1271.00 L 1190.00 1553.00 L 1192.00 1559.00 L 1044.00 1289.00 L 1041.00 1292.00 L 1183.00 1568.00 L 1180.00 1564.00 L 1032.00 1280.00 L 1029.00 1283.00 L 1171.00 1573.00 L 1239.00 1721.00 L 1233.00 1727.00 L 1213.00 1740.00 L 1179.00 1760.00 L 1144.00 1775.00 L 1108.00 1785.00 L 1058.00 1756.00 L 994.00 1688.00 L 913.00 1610.00 L 815.00 1522.00 L 733.00 1457.00 L 667.00 1415.00 L 582.00 1372.00 L 478.00 1328.00 L 432.00 1298.00 L 444.00 1282.00 L 447.00 1276.00 L 441.00 1280.00 L 454.00 1246.00 L 486.00 1174.00 L 512.00 1123.00 L 532.00 1093.00 L 546.00 1064.00 L 554.00 1036.00 L 569.00 1008.00 L 591.00 980.00 L 603.00 963.00 L 605.00 957.00 L 609.00 934.00 Z" fill="black" stroke="black" stroke-width="1"/>
</svg>