<?xml version="1.0" encoding="UTF-8"?>
<svg xmlns="http://www.w3.org/2000/svg" viewBox="196.00 187.00 969.00 1618.00">
  <path d="M 457.00 969.00 L 463.00 943.00 L 459.00 925.00 L 445.00 915.00 L 436.00 904.00 L 432.00 892.00 L 403.00 870.00 L 349.00 838.00 L 340.00 829.00 L 376.00 843.00 L 366.00 838.00 L 310.00 814.00 L 287.00 804.00 L 297.00 808.00 L 294.00 806.00 L 278.00 798.00 L 290.00 802.00 L 330.00 818.00 L 326.00 814.00 L 278.00 790.00 L 288.00 793.00 L 356.00 823.00 L 354.00 820.00 L 282.00 784.00 L 282.00 782.00 L 354.00 814.00 L 352.00 811.00 L 276.00 773.00 L 272.00 770.00 L 340.00 802.00 L 339.00 799.00 L 269.00 761.00 L 273.00 761.00 L 351.00 799.00 L 350.00 797.00 L 270.00 755.00 L 269.00 754.00 L 347.00 794.00 L 347.00 792.00 L 269.00 748.00 L 222.00 696.00 L 206.00 636.00 L 206.00 571.00 L 222.00 501.00 L 241.00 453.00 L 263.00 427.00 L 289.00 388.00 L 319.00 336.00 L 357.00 290.00 L 403.00 250.00 L 437.00 224.00 L 459.00 212.00 L 493.00 203.00 L 539.00 197.00 L 585.00 198.00 L 631.00 206.00 L 678.00 207.00 L 726.00 201.00 L 763.00 204.00 L 789.00 216.00 L 802.00 238.00 L 802.00 270.00 L 804.00 271.00 L 808.00 241.00 L 810.00 239.00 L 810.00 265.00 L 813.00 265.00 L 819.00 239.00 L 820.00 243.00 L 816.00 277.00 L 815.00 289.00 L 817.00 279.00 L 819.00 280.00 L 821.00 292.00 L 825.00 280.00 L 831.00 244.00 L 833.00 237.00 L 831.00 259.00 L 833.00 260.00 L 839.00 240.00 L 840.00 248.00 L 836.00 284.00 L 838.00 286.00 L 846.00 254.00 L 848.00 255.00 L 844.00 289.00 L 864.00 320.00 L 908.00 348.00 L 965.00 404.00 L 1035.00 488.00 L 1071.00 535.00 L 1073.00 545.00 L 1069.00 558.00 L 1059.00 574.00 L 1054.00 608.00 L 1054.00 660.00 L 1060.00 697.00 L 1072.00 719.00 L 1089.00 739.00 L 1111.00 757.00 L 1125.00 772.00 L 1131.00 784.00 L 1132.00 797.00 L 1128.00 811.00 L 1117.00 826.00 L 1099.00 842.00 L 1096.00 860.00 L 1108.00 880.00 L 1111.00 897.00 L 1105.00 911.00 L 1105.00 930.00 L 1111.00 954.00 L 1109.00 970.00 L 1099.00 978.00 L 1091.00 995.00 L 1085.00 1021.00 L 1077.00 1041.00 L 1067.00 1055.00 L 1047.00 1071.00 L 1017.00 1089.00 L 972.00 1099.00 L 912.00 1101.00 L 873.00 1110.00 L 855.00 1126.00 L 922.00 1227.00 L 1074.00 1413.00 L 1137.00 1491.00 L 1111.00 1461.00 L 1117.00 1469.00 L 1155.00 1515.00 L 1151.00 1512.00 L 1105.00 1460.00 L 1105.00 1462.00 L 1151.00 1518.00 L 1148.00 1515.00 L 1096.00 1453.00 L 1097.00 1456.00 L 1151.00 1524.00 L 1147.00 1521.00 L 1085.00 1447.00 L 1086.00 1450.00 L 1150.00 1530.00 L 1096.00 1464.00 L 924.00 1252.00 L 924.00 1255.00 L 1096.00 1473.00 L 1143.00 1533.00 L 1065.00 1435.00 L 1066.00 1437.00 L 1146.00 1539.00 L 1139.00 1532.00 L 1045.00 1416.00 L 1045.00 1419.00 L 1139.00 1541.00 L 1137.00 1539.00 L 1039.00 1413.00 L 1040.00 1415.00 L 1140.00 1545.00 L 1139.00 1544.00 L 1037.00 1412.00 L 1037.00 1414.00 L 1139.00 1550.00 L 1136.00 1548.00 L 1028.00 1408.00 L 1028.00 1411.00 L 1136.00 1557.00 L 1132.00 1553.00 L 1016.00 1399.00 L 1016.00 1401.00 L 1132.00 1559.00 L 1101.00 1517.00 L 923.00 1275.00 L 922.00 1278.00 L 1098.00 1526.00 L 1124.00 1564.00 L 1000.00 1392.00 L 999.00 1395.00 L 1121.00 1573.00 L 1117.00 1570.00 L 987.00 1386.00 L 986.00 1389.00 L 1114.00 1579.00 L 1111.00 1577.00 L 977.00 1383.00 L 976.00 1386.00 L 1108.00 1586.00 L 1088.00 1556.00 L 916.00 1296.00 L 914.00 1299.00 L 1082.00 1565.00 L 1096.00 1589.00 L 956.00 1371.00 L 955.00 1373.00 L 1093.00 1595.00 L 1079.00 1574.00 L 913.00 1310.00 L 911.00 1313.00 L 1073.00 1583.00 L 1148.00 1724.00 L 1136.00 1736.00 L 1100.00 1758.00 L 1040.00 1790.00 L 997.00 1795.00 L 971.00 1773.00 L 929.00 1747.00 L 871.00 1717.00 L 810.00 1679.00 L 746.00 1633.00 L 685.00 1595.00 L 627.00 1565.00 L 548.00 1532.00 L 448.00 1496.00 L 365.00 1473.00 L 299.00 1463.00 L 285.00 1398.00 L 323.00 1278.00 L 368.00 1162.00 L 420.00 1050.00 L 448.00 991.00 L 452.00 985.00 L 457.00 969.00 Z" fill="black" stroke="black" stroke-width="1"/>
</svg>