<?xml version="1.0" encoding="UTF-8"?>
<svg xmlns="http://www.w3.org/2000/svg" viewBox="371.00 430.00 719.00 1176.00">
  <path d="M 541.00 1043.00 L 531.00 1029.00 L 529.00 1022.00 L 535.00 1022.00 L 508.00 994.00 L 448.00 938.00 L 411.00 894.00 L 397.00 862.00 L 387.00 810.00 L 381.00 738.00 L 391.00 669.00 L 417.00 603.00 L 451.00 548.00 L 493.00 504.00 L 538.00 473.00 L 586.00 455.00 L 633.00 444.00 L 679.00 440.00 L 745.00 450.00 L 831.00 474.00 L 901.00 510.00 L 955.00 558.00 L 990.00 598.00 L 1006.00 630.00 L 1011.00 652.00 L 1005.00 664.00 L 1006.00 666.00 L 1014.00 658.00 L 1015.00 660.00 L 1009.00 672.00 L 1011.00 674.00 L 1021.00 666.00 L 1022.00 668.00 L 1014.00 680.00 L 1015.00 682.00 L 1025.00 674.00 L 1026.00 676.00 L 1018.00 688.00 L 1019.00 690.00 L 1029.00 682.00 L 1031.00 685.00 L 1025.00 699.00 L 1026.00 701.00 L 1034.00 691.00 L 1035.00 703.00 L 1029.00 737.00 L 1031.00 750.00 L 1041.00 742.00 L 1041.00 744.00 L 1031.00 756.00 L 1032.00 758.00 L 1044.00 750.00 L 1044.00 753.00 L 1032.00 767.00 L 1032.00 769.00 L 1044.00 759.00 L 1044.00 762.00 L 1032.00 778.00 L 1032.00 780.00 L 1044.00 768.00 L 1044.00 771.00 L 1032.00 789.00 L 1040.00 827.00 L 1068.00 885.00 L 1080.00 920.00 L 1076.00 932.00 L 1064.00 943.00 L 1044.00 953.00 L 1031.00 981.00 L 1025.00 1027.00 L 1013.00 1058.00 L 995.00 1074.00 L 981.00 1096.00 L 971.00 1124.00 L 958.00 1143.00 L 942.00 1153.00 L 911.00 1160.00 L 865.00 1164.00 L 896.00 1260.00 L 1004.00 1448.00 L 1002.00 1449.00 L 890.00 1263.00 L 890.00 1265.00 L 1002.00 1455.00 L 1039.00 1519.00 L 1001.00 1457.00 L 1002.00 1460.00 L 1042.00 1528.00 L 1040.00 1526.00 L 996.00 1454.00 L 996.00 1456.00 L 1040.00 1532.00 L 1038.00 1530.00 L 990.00 1450.00 L 989.00 1452.00 L 1035.00 1536.00 L 1033.00 1534.00 L 983.00 1446.00 L 983.00 1448.00 L 1033.00 1540.00 L 1031.00 1539.00 L 977.00 1445.00 L 976.00 1447.00 L 1028.00 1545.00 L 1025.00 1543.00 L 967.00 1441.00 L 966.00 1444.00 L 1022.00 1552.00 L 994.00 1498.00 L 882.00 1282.00 L 881.00 1284.00 L 991.00 1504.00 L 1012.00 1552.00 L 944.00 1428.00 L 941.00 1432.00 L 1003.00 1564.00 L 981.00 1517.00 L 875.00 1291.00 L 874.00 1292.00 L 978.00 1520.00 L 997.00 1565.00 L 931.00 1427.00 L 929.00 1430.00 L 991.00 1574.00 L 989.00 1572.00 L 923.00 1424.00 L 922.00 1425.00 L 986.00 1575.00 L 968.00 1533.00 L 868.00 1299.00 L 867.00 1301.00 L 965.00 1539.00 L 979.00 1578.00 L 909.00 1418.00 L 906.00 1420.00 L 970.00 1584.00 L 969.00 1583.00 L 903.00 1417.00 L 902.00 1418.00 L 966.00 1586.00 L 952.00 1551.00 L 860.00 1313.00 L 857.00 1316.00 L 943.00 1560.00 L 953.00 1593.00 L 887.00 1415.00 L 883.00 1416.00 L 941.00 1596.00 L 940.00 1595.00 L 880.00 1413.00 L 878.00 1412.00 L 934.00 1592.00 L 933.00 1591.00 L 875.00 1409.00 L 874.00 1408.00 L 930.00 1588.00 L 921.00 1560.00 L 847.00 1324.00 L 845.00 1323.00 L 915.00 1557.00 L 922.00 1584.00 L 866.00 1404.00 L 862.00 1401.00 L 910.00 1575.00 L 902.00 1549.00 L 838.00 1323.00 L 836.00 1322.00 L 896.00 1546.00 L 896.00 1547.00 L 836.00 1325.00 L 834.00 1324.00 L 890.00 1544.00 L 894.00 1566.00 L 846.00 1390.00 L 842.00 1387.00 L 882.00 1557.00 L 877.00 1538.00 L 827.00 1330.00 L 824.00 1329.00 L 868.00 1535.00 L 871.00 1552.00 L 833.00 1380.00 L 829.00 1377.00 L 859.00 1543.00 L 855.00 1528.00 L 817.00 1332.00 L 816.00 1331.00 L 852.00 1525.00 L 852.00 1527.00 L 816.00 1337.00 L 814.00 1336.00 L 846.00 1524.00 L 845.00 1526.00 L 811.00 1342.00 L 808.00 1340.00 L 836.00 1520.00 L 836.00 1523.00 L 808.00 1349.00 L 805.00 1347.00 L 827.00 1517.00 L 784.00 1572.00 L 676.00 1512.00 L 577.00 1465.00 L 487.00 1431.00 L 454.00 1368.00 L 478.00 1276.00 L 503.00 1203.00 L 529.00 1149.00 L 543.00 1106.00 L 545.00 1074.00 L 546.00 1056.00 L 546.00 1052.00 L 541.00 1043.00 Z" fill="black" stroke="black" stroke-width="1"/>
</svg>