<?xml version="1.0" encoding="UTF-8"?>
<svg xmlns="http://www.w3.org/2000/svg" viewBox="256.00 265.00 860.00 1470.00">
  <path d="M 329.00 990.00 L 327.00 982.00 L 326.00 954.00 L 326.00 906.00 L 324.00 875.00 L 320.00 861.00 L 318.00 830.00 L 318.00 782.00 L 312.00 735.00 L 300.00 689.00 L 291.00 637.00 L 285.00 579.00 L 283.00 551.00 L 285.00 553.00 L 286.00 541.00 L 286.00 515.00 L 290.00 490.00 L 298.00 466.00 L 309.00 440.00 L 323.00 412.00 L 341.00 384.00 L 363.00 356.00 L 383.00 335.00 L 401.00 321.00 L 439.00 305.00 L 497.00 287.00 L 531.00 277.00 L 541.00 275.00 L 582.00 275.00 L 654.00 277.00 L 693.00 277.00 L 699.00 275.00 L 732.00 284.00 L 792.00 304.00 L 850.00 333.00 L 906.00 371.00 L 934.00 395.00 L 934.00 405.00 L 936.00 406.00 L 940.00 398.00 L 941.00 399.00 L 939.00 409.00 L 939.00 416.00 L 941.00 420.00 L 944.00 418.00 L 948.00 410.00 L 949.00 411.00 L 947.00 421.00 L 948.00 422.00 L 952.00 414.00 L 953.00 416.00 L 951.00 428.00 L 952.00 431.00 L 956.00 425.00 L 957.00 427.00 L 955.00 437.00 L 956.00 439.00 L 960.00 433.00 L 961.00 435.00 L 959.00 445.00 L 960.00 447.00 L 964.00 441.00 L 965.00 442.00 L 963.00 450.00 L 964.00 460.00 L 968.00 472.00 L 979.00 493.00 L 997.00 523.00 L 1008.00 550.00 L 1012.00 574.00 L 1017.00 592.00 L 1023.00 604.00 L 1035.00 618.00 L 1053.00 634.00 L 1073.00 659.00 L 1095.00 693.00 L 1106.00 712.00 L 1106.00 716.00 L 1091.00 730.00 L 1061.00 754.00 L 1062.00 756.00 L 1094.00 736.00 L 1097.00 735.00 L 1071.00 753.00 L 1069.00 756.00 L 1091.00 744.00 L 1088.00 748.00 L 1060.00 768.00 L 1046.00 782.00 L 1046.00 790.00 L 1050.00 803.00 L 1058.00 821.00 L 1059.00 834.00 L 1053.00 842.00 L 1052.00 850.00 L 1056.00 858.00 L 1057.00 866.00 L 1055.00 874.00 L 1045.00 887.00 L 1027.00 905.00 L 1021.00 921.00 L 1027.00 935.00 L 1029.00 952.00 L 1027.00 972.00 L 1022.00 987.00 L 1014.00 997.00 L 1006.00 1005.00 L 998.00 1011.00 L 990.00 1015.00 L 982.00 1017.00 L 977.00 1020.00 L 975.00 1024.00 L 977.00 1031.00 L 983.00 1041.00 L 984.00 1048.00 L 980.00 1052.00 L 972.00 1056.00 L 960.00 1060.00 L 953.00 1065.00 L 951.00 1071.00 L 943.00 1079.00 L 929.00 1089.00 L 918.00 1101.00 L 910.00 1115.00 L 900.00 1128.00 L 888.00 1140.00 L 889.00 1159.00 L 903.00 1185.00 L 912.00 1207.00 L 916.00 1225.00 L 918.00 1241.00 L 918.00 1255.00 L 930.00 1282.00 L 954.00 1322.00 L 965.00 1341.00 L 963.00 1339.00 L 965.00 1343.00 L 971.00 1353.00 L 969.00 1352.00 L 959.00 1340.00 L 960.00 1342.00 L 972.00 1358.00 L 985.00 1380.00 L 999.00 1408.00 L 1014.00 1443.00 L 1030.00 1485.00 L 1043.00 1533.00 L 1053.00 1587.00 L 1057.00 1613.00 L 1055.00 1611.00 L 1055.00 1616.00 L 1057.00 1628.00 L 1057.00 1633.00 L 1055.00 1631.00 L 1054.00 1635.00 L 1054.00 1645.00 L 1051.00 1658.00 L 1045.00 1674.00 L 1035.00 1689.00 L 1021.00 1703.00 L 1010.00 1712.00 L 1002.00 1716.00 L 991.00 1720.00 L 977.00 1724.00 L 964.00 1725.00 L 952.00 1723.00 L 917.00 1708.00 L 859.00 1680.00 L 818.00 1658.00 L 794.00 1642.00 L 766.00 1626.00 L 734.00 1610.00 L 692.00 1591.00 L 640.00 1569.00 L 582.00 1548.00 L 518.00 1528.00 L 481.00 1518.00 L 471.00 1518.00 L 444.00 1513.00 L 400.00 1503.00 L 352.00 1497.00 L 300.00 1495.00 L 274.00 1492.00 L 274.00 1488.00 L 273.00 1487.00 L 271.00 1489.00 L 272.00 1464.00 L 276.00 1412.00 L 275.00 1384.00 L 269.00 1380.00 L 266.00 1371.00 L 266.00 1357.00 L 268.00 1345.00 L 272.00 1335.00 L 274.00 1322.00 L 274.00 1306.00 L 278.00 1273.00 L 286.00 1223.00 L 299.00 1162.00 L 317.00 1090.00 L 326.00 1040.00 L 326.00 1012.00 L 327.00 997.00 L 329.00 995.00 L 329.00 990.00 Z" fill="black" stroke="black" stroke-width="1"/>
</svg>