<?xml version="1.0" encoding="UTF-8"?>
<svg xmlns="http://www.w3.org/2000/svg" viewBox="298.00 249.00 928.00 1489.00">
  <path d="M 566.00 916.00 L 574.00 880.00 L 561.00 853.00 L 527.00 835.00 L 526.00 831.00 L 558.00 841.00 L 520.00 822.00 L 412.00 774.00 L 411.00 773.00 L 517.00 819.00 L 520.00 820.00 L 420.00 776.00 L 373.00 755.00 L 379.00 757.00 L 371.00 753.00 L 349.00 743.00 L 377.00 755.00 L 455.00 789.00 L 452.00 785.00 L 368.00 743.00 L 349.00 732.00 L 395.00 752.00 L 392.00 746.00 L 340.00 714.00 L 312.00 678.00 L 308.00 638.00 L 311.00 588.00 L 321.00 528.00 L 340.00 474.00 L 368.00 426.00 L 399.00 387.00 L 433.00 357.00 L 461.00 340.00 L 483.00 336.00 L 502.00 327.00 L 518.00 313.00 L 544.00 301.00 L 580.00 291.00 L 613.00 290.00 L 643.00 298.00 L 669.00 294.00 L 691.00 278.00 L 714.00 267.00 L 738.00 261.00 L 768.00 259.00 L 804.00 261.00 L 823.00 276.00 L 825.00 304.00 L 827.00 303.00 L 829.00 273.00 L 830.00 271.00 L 830.00 297.00 L 833.00 295.00 L 839.00 265.00 L 841.00 267.00 L 839.00 301.00 L 841.00 299.00 L 847.00 261.00 L 849.00 261.00 L 847.00 299.00 L 849.00 300.00 L 855.00 264.00 L 857.00 264.00 L 855.00 300.00 L 856.00 304.00 L 860.00 276.00 L 862.00 277.00 L 862.00 307.00 L 877.00 325.00 L 907.00 331.00 L 941.00 344.00 L 979.00 364.00 L 1017.00 394.00 L 1055.00 434.00 L 1087.00 480.00 L 1113.00 532.00 L 1123.00 567.00 L 1117.00 585.00 L 1118.00 591.00 L 1126.00 585.00 L 1127.00 587.00 L 1121.00 597.00 L 1121.00 599.00 L 1127.00 593.00 L 1125.00 598.00 L 1115.00 614.00 L 1116.00 617.00 L 1128.00 607.00 L 1126.00 612.00 L 1110.00 632.00 L 1109.00 636.00 L 1123.00 624.00 L 1122.00 627.00 L 1106.00 645.00 L 1105.00 648.00 L 1119.00 636.00 L 1120.00 641.00 L 1108.00 663.00 L 1121.00 697.00 L 1159.00 743.00 L 1175.00 773.00 L 1169.00 787.00 L 1156.00 799.00 L 1136.00 809.00 L 1133.00 812.00 L 1147.00 808.00 L 1145.00 810.00 L 1127.00 818.00 L 1119.00 838.00 L 1121.00 870.00 L 1117.00 890.00 L 1107.00 898.00 L 1104.00 913.00 L 1108.00 935.00 L 1106.00 953.00 L 1098.00 967.00 L 1056.00 992.00 L 980.00 1028.00 L 936.00 1056.00 L 924.00 1076.00 L 993.00 1184.00 L 1143.00 1380.00 L 1142.00 1382.00 L 990.00 1190.00 L 988.00 1188.00 L 1136.00 1376.00 L 1189.00 1444.00 L 1147.00 1392.00 L 1150.00 1397.00 L 1198.00 1459.00 L 1189.00 1448.00 L 1123.00 1364.00 L 1124.00 1366.00 L 1192.00 1454.00 L 1190.00 1453.00 L 1118.00 1363.00 L 1120.00 1368.00 L 1196.00 1468.00 L 1194.00 1466.00 L 1114.00 1362.00 L 1115.00 1365.00 L 1197.00 1475.00 L 1194.00 1472.00 L 1106.00 1356.00 L 1107.00 1359.00 L 1197.00 1481.00 L 1191.00 1475.00 L 1089.00 1341.00 L 1090.00 1345.00 L 1194.00 1487.00 L 1190.00 1483.00 L 1078.00 1333.00 L 1078.00 1338.00 L 1190.00 1498.00 L 1162.00 1460.00 L 994.00 1224.00 L 995.00 1226.00 L 1165.00 1466.00 L 1188.00 1500.00 L 1064.00 1328.00 L 1063.00 1331.00 L 1185.00 1509.00 L 1182.00 1506.00 L 1054.00 1322.00 L 1054.00 1324.00 L 1182.00 1512.00 L 1180.00 1511.00 L 1048.00 1321.00 L 1047.00 1324.00 L 1177.00 1520.00 L 1158.00 1492.00 L 990.00 1240.00 L 990.00 1243.00 L 1158.00 1501.00 L 1174.00 1526.00 L 1038.00 1318.00 L 1037.00 1320.00 L 1171.00 1532.00 L 1155.00 1509.00 L 989.00 1251.00 L 987.00 1254.00 L 1149.00 1518.00 L 1160.00 1537.00 L 1020.00 1311.00 L 1019.00 1313.00 L 1157.00 1543.00 L 1154.00 1540.00 L 1010.00 1304.00 L 1008.00 1306.00 L 1148.00 1546.00 L 1216.00 1669.00 L 1212.00 1675.00 L 1133.00 1542.00 L 979.00 1270.00 L 978.00 1271.00 L 1130.00 1545.00 L 1130.00 1547.00 L 978.00 1277.00 L 975.00 1280.00 L 1121.00 1556.00 L 1123.00 1561.00 L 981.00 1295.00 L 979.00 1297.00 L 1117.00 1567.00 L 1115.00 1565.00 L 973.00 1291.00 L 971.00 1292.00 L 1109.00 1568.00 L 1171.00 1710.00 L 1157.00 1718.00 L 1142.00 1724.00 L 1126.00 1728.00 L 1112.00 1727.00 L 1100.00 1721.00 L 1042.00 1679.00 L 938.00 1601.00 L 836.00 1534.00 L 736.00 1478.00 L 642.00 1431.00 L 554.00 1393.00 L 477.00 1365.00 L 411.00 1347.00 L 391.00 1303.00 L 417.00 1233.00 L 442.00 1179.00 L 466.00 1141.00 L 485.00 1101.00 L 499.00 1059.00 L 515.00 1028.00 L 533.00 1008.00 L 546.00 985.00 L 554.00 959.00 L 559.00 943.00 L 561.00 937.00 L 566.00 916.00 Z" fill="black" stroke="black" stroke-width="1"/>
</svg>