<?xml version="1.0" encoding="UTF-8"?>
<svg xmlns="http://www.w3.org/2000/svg" viewBox="378.00 244.00 857.00 1593.00">
  <path d="M 519.00 1032.00 L 537.00 976.00 L 551.00 941.00 L 561.00 927.00 L 569.00 918.00 L 575.00 914.00 L 571.00 905.00 L 557.00 891.00 L 536.00 866.00 L 508.00 830.00 L 483.00 787.00 L 461.00 737.00 L 455.00 716.00 L 465.00 724.00 L 462.00 717.00 L 446.00 695.00 L 436.00 677.00 L 432.00 663.00 L 429.00 638.00 L 427.00 602.00 L 428.00 573.00 L 432.00 551.00 L 438.00 529.00 L 446.00 507.00 L 462.00 478.00 L 486.00 442.00 L 528.00 394.00 L 588.00 334.00 L 625.00 300.00 L 639.00 292.00 L 670.00 279.00 L 718.00 261.00 L 772.00 254.00 L 832.00 258.00 L 879.00 265.00 L 913.00 275.00 L 955.00 297.00 L 1005.00 331.00 L 1042.00 360.00 L 1066.00 384.00 L 1085.00 406.00 L 1099.00 426.00 L 1107.00 440.00 L 1109.00 448.00 L 1115.00 460.00 L 1125.00 476.00 L 1138.00 493.00 L 1154.00 511.00 L 1164.00 527.00 L 1168.00 541.00 L 1170.00 556.00 L 1170.00 572.00 L 1167.00 586.00 L 1161.00 598.00 L 1162.00 600.00 L 1170.00 592.00 L 1171.00 594.00 L 1165.00 606.00 L 1164.00 612.00 L 1168.00 612.00 L 1168.00 615.00 L 1164.00 621.00 L 1168.00 618.00 L 1180.00 606.00 L 1180.00 609.00 L 1168.00 627.00 L 1169.00 628.00 L 1183.00 612.00 L 1183.00 616.00 L 1169.00 640.00 L 1161.00 666.00 L 1159.00 694.00 L 1168.00 729.00 L 1188.00 771.00 L 1205.00 801.00 L 1219.00 819.00 L 1225.00 836.00 L 1223.00 852.00 L 1208.00 870.00 L 1180.00 890.00 L 1165.00 902.00 L 1163.00 906.00 L 1164.00 915.00 L 1168.00 929.00 L 1166.00 940.00 L 1158.00 948.00 L 1153.00 957.00 L 1151.00 967.00 L 1141.00 977.00 L 1123.00 987.00 L 1115.00 1000.00 L 1117.00 1016.00 L 1115.00 1031.00 L 1109.00 1045.00 L 1102.00 1056.00 L 1094.00 1064.00 L 1082.00 1072.00 L 1066.00 1080.00 L 1055.00 1087.00 L 1049.00 1093.00 L 1052.00 1099.00 L 1064.00 1105.00 L 1069.00 1113.00 L 1067.00 1123.00 L 1062.00 1132.00 L 1054.00 1140.00 L 1058.00 1150.00 L 1074.00 1162.00 L 1073.00 1165.00 L 1055.00 1159.00 L 1056.00 1162.00 L 1076.00 1174.00 L 1078.00 1176.00 L 1062.00 1168.00 L 1063.00 1170.00 L 1081.00 1182.00 L 1078.00 1182.00 L 1054.00 1170.00 L 1055.00 1173.00 L 1081.00 1191.00 L 1080.00 1193.00 L 1052.00 1179.00 L 1049.00 1181.00 L 1071.00 1199.00 L 1079.00 1209.00 L 1073.00 1211.00 L 1093.00 1229.00 L 1139.00 1263.00 L 1141.00 1266.00 L 1099.00 1238.00 L 1100.00 1240.00 L 1144.00 1272.00 L 1140.00 1270.00 L 1088.00 1234.00 L 1086.00 1235.00 L 1134.00 1273.00 L 1144.00 1282.00 L 1116.00 1262.00 L 1113.00 1262.00 L 1135.00 1282.00 L 1137.00 1285.00 L 1119.00 1271.00 L 1116.00 1272.00 L 1128.00 1288.00 L 1125.00 1294.00 L 1107.00 1290.00 L 1084.00 1276.00 L 1056.00 1252.00 L 1052.00 1250.00 L 1072.00 1270.00 L 1070.00 1269.00 L 1046.00 1247.00 L 1044.00 1246.00 L 1064.00 1266.00 L 1063.00 1266.00 L 1041.00 1246.00 L 1059.00 1281.00 L 1117.00 1371.00 L 1145.00 1415.00 L 1143.00 1413.00 L 1149.00 1425.00 L 1163.00 1451.00 L 1169.00 1463.00 L 1167.00 1461.00 L 1174.00 1480.00 L 1190.00 1520.00 L 1201.00 1557.00 L 1207.00 1591.00 L 1210.00 1629.00 L 1210.00 1671.00 L 1206.00 1709.00 L 1198.00 1743.00 L 1191.00 1767.00 L 1185.00 1781.00 L 1180.00 1790.00 L 1176.00 1794.00 L 1172.00 1795.00 L 1168.00 1793.00 L 1167.00 1795.00 L 1169.00 1801.00 L 1168.00 1806.00 L 1164.00 1810.00 L 1151.00 1816.00 L 1129.00 1824.00 L 1107.00 1827.00 L 1085.00 1825.00 L 1064.00 1819.00 L 1044.00 1809.00 L 984.00 1769.00 L 884.00 1699.00 L 808.00 1651.00 L 756.00 1625.00 L 707.00 1603.00 L 661.00 1585.00 L 610.00 1568.00 L 554.00 1552.00 L 525.00 1542.00 L 523.00 1538.00 L 517.00 1537.00 L 507.00 1539.00 L 495.00 1538.00 L 481.00 1534.00 L 472.00 1530.00 L 468.00 1526.00 L 463.00 1525.00 L 457.00 1527.00 L 453.00 1527.00 L 451.00 1525.00 L 436.00 1523.00 L 408.00 1521.00 L 392.00 1518.00 L 388.00 1514.00 L 393.00 1487.00 L 407.00 1437.00 L 420.00 1400.00 L 432.00 1376.00 L 448.00 1331.00 L 468.00 1265.00 L 484.00 1220.00 L 496.00 1196.00 L 501.00 1165.00 L 499.00 1127.00 L 500.00 1099.00 L 504.00 1081.00 L 507.00 1069.00 L 509.00 1063.00 L 519.00 1032.00 Z" fill="black" stroke="black" stroke-width="1"/>
</svg>