<?xml version="1.0" encoding="UTF-8"?>
<svg xmlns="http://www.w3.org/2000/svg" viewBox="365.00 302.00 889.00 1430.00">
  <path d="M 473.00 1006.00 L 479.00 958.00 L 487.00 926.00 L 497.00 910.00 L 499.00 898.00 L 493.00 890.00 L 493.00 887.00 L 499.00 889.00 L 495.00 884.00 L 481.00 872.00 L 470.00 854.00 L 462.00 830.00 L 444.00 796.00 L 416.00 752.00 L 396.00 716.00 L 384.00 688.00 L 377.00 666.00 L 375.00 650.00 L 375.00 628.00 L 377.00 600.00 L 383.00 570.00 L 393.00 538.00 L 403.00 511.00 L 413.00 489.00 L 427.00 466.00 L 445.00 442.00 L 465.00 419.00 L 487.00 397.00 L 521.00 374.00 L 567.00 350.00 L 628.00 331.00 L 704.00 317.00 L 770.00 312.00 L 826.00 316.00 L 876.00 326.00 L 920.00 342.00 L 955.00 358.00 L 981.00 374.00 L 996.00 388.00 L 1000.00 400.00 L 1004.00 403.00 L 1008.00 397.00 L 1010.00 398.00 L 1010.00 406.00 L 1012.00 407.00 L 1016.00 401.00 L 1017.00 403.00 L 1015.00 413.00 L 1016.00 417.00 L 1020.00 415.00 L 1022.00 417.00 L 1022.00 423.00 L 1024.00 421.00 L 1028.00 411.00 L 1029.00 412.00 L 1027.00 424.00 L 1028.00 425.00 L 1032.00 415.00 L 1033.00 416.00 L 1031.00 428.00 L 1039.00 446.00 L 1057.00 470.00 L 1075.00 504.00 L 1093.00 548.00 L 1102.00 593.00 L 1102.00 639.00 L 1119.00 687.00 L 1153.00 737.00 L 1172.00 768.00 L 1176.00 780.00 L 1166.00 796.00 L 1142.00 816.00 L 1141.00 820.00 L 1163.00 808.00 L 1161.00 812.00 L 1135.00 832.00 L 1125.00 851.00 L 1131.00 869.00 L 1130.00 882.00 L 1122.00 890.00 L 1119.00 897.00 L 1121.00 903.00 L 1116.00 916.00 L 1104.00 936.00 L 1102.00 959.00 L 1110.00 985.00 L 1112.00 1003.00 L 1108.00 1013.00 L 1097.00 1025.00 L 1079.00 1039.00 L 1072.00 1050.00 L 1076.00 1058.00 L 1069.00 1077.00 L 1051.00 1107.00 L 1041.00 1133.00 L 1039.00 1155.00 L 1056.00 1189.00 L 1092.00 1235.00 L 1131.00 1299.00 L 1173.00 1381.00 L 1202.00 1444.00 L 1218.00 1488.00 L 1225.00 1509.00 L 1223.00 1507.00 L 1226.00 1518.00 L 1234.00 1542.00 L 1240.00 1572.00 L 1244.00 1608.00 L 1238.00 1643.00 L 1222.00 1677.00 L 1210.00 1698.00 L 1202.00 1706.00 L 1186.00 1714.00 L 1162.00 1722.00 L 1131.00 1722.00 L 1093.00 1714.00 L 1054.00 1701.00 L 1014.00 1683.00 L 968.00 1658.00 L 916.00 1626.00 L 887.00 1609.00 L 881.00 1607.00 L 877.00 1608.00 L 875.00 1612.00 L 873.00 1609.00 L 871.00 1599.00 L 870.00 1597.00 L 870.00 1603.00 L 867.00 1601.00 L 861.00 1591.00 L 840.00 1577.00 L 804.00 1559.00 L 749.00 1535.00 L 675.00 1505.00 L 637.00 1487.00 L 635.00 1481.00 L 632.00 1480.00 L 628.00 1484.00 L 625.00 1483.00 L 623.00 1477.00 L 618.00 1473.00 L 610.00 1471.00 L 605.00 1472.00 L 603.00 1476.00 L 600.00 1475.00 L 596.00 1469.00 L 593.00 1468.00 L 591.00 1472.00 L 589.00 1471.00 L 587.00 1465.00 L 577.00 1462.00 L 559.00 1462.00 L 547.00 1459.00 L 541.00 1453.00 L 537.00 1451.00 L 535.00 1453.00 L 534.00 1451.00 L 534.00 1445.00 L 529.00 1441.00 L 519.00 1439.00 L 517.00 1433.00 L 523.00 1423.00 L 522.00 1421.00 L 514.00 1427.00 L 512.00 1427.00 L 516.00 1421.00 L 514.00 1423.00 L 506.00 1433.00 L 501.00 1436.00 L 499.00 1432.00 L 501.00 1426.00 L 507.00 1418.00 L 505.00 1420.00 L 495.00 1432.00 L 492.00 1433.00 L 496.00 1423.00 L 493.00 1423.00 L 483.00 1433.00 L 482.00 1433.00 L 490.00 1423.00 L 485.00 1424.00 L 467.00 1436.00 L 452.00 1442.00 L 440.00 1442.00 L 435.00 1440.00 L 437.00 1436.00 L 435.00 1436.00 L 429.00 1440.00 L 425.00 1439.00 L 423.00 1433.00 L 416.00 1433.00 L 404.00 1439.00 L 397.00 1439.00 L 395.00 1433.00 L 396.00 1422.00 L 400.00 1406.00 L 414.00 1365.00 L 438.00 1299.00 L 451.00 1253.00 L 453.00 1227.00 L 461.00 1196.00 L 475.00 1160.00 L 479.00 1131.00 L 473.00 1109.00 L 470.00 1083.00 L 470.00 1053.00 L 470.00 1036.00 L 470.00 1032.00 L 473.00 1006.00 Z" fill="black" stroke="black" stroke-width="1"/>
</svg>