<?xml version="1.0" encoding="UTF-8"?>
<svg xmlns="http://www.w3.org/2000/svg" viewBox="461.00 394.00 799.00 1348.00">
  <path d="M 706.00 1001.00 L 706.00 967.00 L 688.00 940.00 L 652.00 920.00 L 652.00 918.00 L 688.00 934.00 L 672.00 924.00 L 604.00 888.00 L 564.00 860.00 L 552.00 840.00 L 536.00 822.00 L 516.00 806.00 L 515.00 803.00 L 533.00 813.00 L 529.00 809.00 L 503.00 791.00 L 486.00 772.00 L 478.00 752.00 L 473.00 717.00 L 471.00 667.00 L 473.00 631.00 L 479.00 609.00 L 489.00 586.00 L 503.00 562.00 L 524.00 536.00 L 552.00 508.00 L 570.00 480.00 L 578.00 452.00 L 584.00 435.00 L 588.00 429.00 L 597.00 439.00 L 611.00 465.00 L 612.00 464.00 L 600.00 436.00 L 602.00 436.00 L 618.00 464.00 L 622.00 468.00 L 614.00 448.00 L 616.00 447.00 L 628.00 465.00 L 645.00 465.00 L 667.00 447.00 L 692.00 431.00 L 720.00 417.00 L 759.00 408.00 L 809.00 404.00 L 864.00 408.00 L 924.00 420.00 L 981.00 440.00 L 1035.00 468.00 L 1072.00 492.00 L 1092.00 512.00 L 1103.00 527.00 L 1105.00 537.00 L 1107.00 540.00 L 1109.00 536.00 L 1110.00 537.00 L 1110.00 543.00 L 1111.00 545.00 L 1113.00 543.00 L 1117.00 545.00 L 1123.00 551.00 L 1125.00 557.00 L 1123.00 563.00 L 1124.00 564.00 L 1128.00 560.00 L 1130.00 564.00 L 1130.00 576.00 L 1133.00 581.00 L 1139.00 579.00 L 1145.00 583.00 L 1151.00 593.00 L 1155.00 603.00 L 1157.00 613.00 L 1155.00 625.00 L 1149.00 639.00 L 1150.00 641.00 L 1158.00 631.00 L 1158.00 633.00 L 1150.00 647.00 L 1150.00 649.00 L 1158.00 639.00 L 1158.00 642.00 L 1150.00 658.00 L 1150.00 661.00 L 1158.00 651.00 L 1158.00 653.00 L 1150.00 667.00 L 1144.00 689.00 L 1140.00 719.00 L 1156.00 756.00 L 1192.00 800.00 L 1211.00 829.00 L 1213.00 843.00 L 1199.00 860.00 L 1169.00 880.00 L 1154.00 910.00 L 1154.00 950.00 L 1147.00 979.00 L 1133.00 997.00 L 1129.00 1013.00 L 1135.00 1027.00 L 1135.00 1044.00 L 1129.00 1064.00 L 1116.00 1078.00 L 1096.00 1086.00 L 1076.00 1098.00 L 1056.00 1114.00 L 1043.00 1122.00 L 1037.00 1122.00 L 1035.00 1123.00 L 1037.00 1125.00 L 1035.00 1125.00 L 1029.00 1123.00 L 1025.00 1128.00 L 1023.00 1140.00 L 1018.00 1150.00 L 1010.00 1158.00 L 1005.00 1166.00 L 1003.00 1174.00 L 1057.00 1258.00 L 1167.00 1418.00 L 1167.00 1420.00 L 1057.00 1264.00 L 1054.00 1260.00 L 1158.00 1408.00 L 1196.00 1463.00 L 1168.00 1425.00 L 1172.00 1432.00 L 1208.00 1484.00 L 1205.00 1480.00 L 1163.00 1420.00 L 1165.00 1423.00 L 1211.00 1489.00 L 1210.00 1488.00 L 1162.00 1420.00 L 1163.00 1422.00 L 1213.00 1494.00 L 1211.00 1492.00 L 1157.00 1416.00 L 1159.00 1422.00 L 1217.00 1510.00 L 1210.00 1501.00 L 1138.00 1395.00 L 1139.00 1397.00 L 1213.00 1507.00 L 1205.00 1496.00 L 1115.00 1364.00 L 1116.00 1367.00 L 1208.00 1505.00 L 1190.00 1478.00 L 1062.00 1286.00 L 1062.00 1288.00 L 1190.00 1484.00 L 1190.00 1485.00 L 1062.00 1291.00 L 1062.00 1293.00 L 1190.00 1491.00 L 1201.00 1509.00 L 1095.00 1347.00 L 1095.00 1349.00 L 1201.00 1515.00 L 1199.00 1512.00 L 1089.00 1340.00 L 1089.00 1343.00 L 1199.00 1521.00 L 1195.00 1517.00 L 1077.00 1331.00 L 1076.00 1334.00 L 1192.00 1526.00 L 1250.00 1625.00 L 1250.00 1631.00 L 1186.00 1527.00 L 1058.00 1313.00 L 1057.00 1316.00 L 1183.00 1536.00 L 1240.00 1657.00 L 1228.00 1679.00 L 1216.00 1696.00 L 1204.00 1708.00 L 1182.00 1720.00 L 1150.00 1732.00 L 1099.00 1708.00 L 1029.00 1648.00 L 955.00 1593.00 L 877.00 1543.00 L 836.00 1515.00 L 832.00 1509.00 L 815.00 1500.00 L 785.00 1488.00 L 749.00 1469.00 L 707.00 1443.00 L 655.00 1420.00 L 593.00 1400.00 L 569.00 1365.00 L 583.00 1315.00 L 598.00 1270.00 L 614.00 1230.00 L 636.00 1186.00 L 664.00 1138.00 L 685.00 1092.00 L 699.00 1048.00 L 706.00 1024.00 L 706.00 1020.00 L 706.00 1001.00 Z" fill="black" stroke="black" stroke-width="1"/>
</svg>