<?xml version="1.0" encoding="UTF-8"?>
<svg xmlns="http://www.w3.org/2000/svg" viewBox="380.00 234.00 873.00 1577.00">
  <path d="M 508.00 1002.00 L 516.00 970.00 L 529.00 942.00 L 547.00 918.00 L 551.00 902.00 L 541.00 894.00 L 529.00 876.00 L 515.00 848.00 L 501.00 825.00 L 487.00 807.00 L 461.00 760.00 L 423.00 684.00 L 401.00 634.00 L 395.00 610.00 L 393.00 574.00 L 395.00 526.00 L 400.00 489.00 L 408.00 463.00 L 421.00 434.00 L 439.00 402.00 L 459.00 373.00 L 481.00 347.00 L 501.00 326.00 L 519.00 310.00 L 557.00 289.00 L 615.00 263.00 L 683.00 248.00 L 761.00 244.00 L 815.00 245.00 L 845.00 251.00 L 875.00 261.00 L 905.00 275.00 L 940.00 288.00 L 980.00 300.00 L 1029.00 329.00 L 1087.00 375.00 L 1116.00 411.00 L 1116.00 437.00 L 1120.00 442.00 L 1128.00 426.00 L 1129.00 429.00 L 1123.00 451.00 L 1125.00 454.00 L 1135.00 438.00 L 1136.00 441.00 L 1128.00 463.00 L 1129.00 466.00 L 1139.00 450.00 L 1139.00 452.00 L 1129.00 472.00 L 1129.00 475.00 L 1139.00 461.00 L 1140.00 464.00 L 1132.00 484.00 L 1133.00 487.00 L 1143.00 473.00 L 1144.00 476.00 L 1136.00 496.00 L 1137.00 498.00 L 1147.00 482.00 L 1148.00 485.00 L 1140.00 507.00 L 1141.00 512.00 L 1151.00 500.00 L 1152.00 502.00 L 1144.00 518.00 L 1142.00 523.00 L 1146.00 517.00 L 1149.00 516.00 L 1151.00 520.00 L 1150.00 526.00 L 1146.00 534.00 L 1149.00 530.00 L 1159.00 514.00 L 1159.00 516.00 L 1149.00 536.00 L 1150.00 539.00 L 1162.00 525.00 L 1163.00 528.00 L 1153.00 548.00 L 1148.00 570.00 L 1148.00 594.00 L 1150.00 611.00 L 1154.00 621.00 L 1175.00 645.00 L 1213.00 683.00 L 1235.00 708.00 L 1241.00 720.00 L 1231.00 739.00 L 1205.00 765.00 L 1205.00 769.00 L 1231.00 751.00 L 1230.00 753.00 L 1202.00 775.00 L 1199.00 779.00 L 1221.00 765.00 L 1221.00 768.00 L 1199.00 788.00 L 1188.00 809.00 L 1188.00 831.00 L 1185.00 844.00 L 1179.00 848.00 L 1174.00 858.00 L 1170.00 874.00 L 1162.00 887.00 L 1150.00 897.00 L 1144.00 916.00 L 1144.00 944.00 L 1141.00 963.00 L 1135.00 973.00 L 1117.00 987.00 L 1087.00 1005.00 L 1075.00 1017.00 L 1081.00 1023.00 L 1084.00 1029.00 L 1084.00 1035.00 L 1077.00 1050.00 L 1063.00 1074.00 L 1063.00 1089.00 L 1077.00 1095.00 L 1079.00 1098.00 L 1069.00 1098.00 L 1071.00 1101.00 L 1085.00 1107.00 L 1082.00 1107.00 L 1062.00 1101.00 L 1063.00 1104.00 L 1085.00 1116.00 L 1084.00 1118.00 L 1060.00 1110.00 L 1061.00 1113.00 L 1087.00 1127.00 L 1098.00 1137.00 L 1094.00 1143.00 L 1087.00 1148.00 L 1077.00 1152.00 L 1080.00 1160.00 L 1096.00 1172.00 L 1097.00 1174.00 L 1083.00 1166.00 L 1096.00 1176.00 L 1136.00 1204.00 L 1146.00 1213.00 L 1126.00 1203.00 L 1123.00 1205.00 L 1137.00 1219.00 L 1142.00 1227.00 L 1138.00 1229.00 L 1117.00 1218.00 L 1079.00 1194.00 L 1076.00 1194.00 L 1108.00 1218.00 L 1106.00 1217.00 L 1070.00 1191.00 L 1068.00 1190.00 L 1100.00 1214.00 L 1101.00 1216.00 L 1071.00 1196.00 L 1068.00 1196.00 L 1092.00 1216.00 L 1094.00 1219.00 L 1074.00 1205.00 L 1069.00 1202.00 L 1079.00 1210.00 L 1080.00 1213.00 L 1072.00 1211.00 L 1073.00 1222.00 L 1083.00 1246.00 L 1115.00 1302.00 L 1169.00 1390.00 L 1206.00 1461.00 L 1226.00 1515.00 L 1238.00 1553.00 L 1242.00 1575.00 L 1243.00 1604.00 L 1241.00 1640.00 L 1237.00 1672.00 L 1231.00 1700.00 L 1222.00 1729.00 L 1210.00 1759.00 L 1190.00 1781.00 L 1162.00 1795.00 L 1137.00 1801.00 L 1115.00 1799.00 L 1066.00 1784.00 L 990.00 1756.00 L 908.00 1718.00 L 820.00 1670.00 L 742.00 1632.00 L 674.00 1604.00 L 635.00 1590.00 L 625.00 1590.00 L 617.00 1587.00 L 611.00 1581.00 L 605.00 1579.00 L 599.00 1581.00 L 591.00 1578.00 L 581.00 1570.00 L 565.00 1566.00 L 543.00 1566.00 L 531.00 1564.00 L 529.00 1560.00 L 521.00 1559.00 L 507.00 1561.00 L 501.00 1560.00 L 503.00 1556.00 L 502.00 1553.00 L 498.00 1551.00 L 491.00 1552.00 L 481.00 1556.00 L 475.00 1555.00 L 473.00 1549.00 L 465.00 1544.00 L 451.00 1540.00 L 434.00 1540.00 L 414.00 1544.00 L 400.00 1545.00 L 392.00 1543.00 L 390.00 1539.00 L 394.00 1533.00 L 394.00 1531.00 L 390.00 1533.00 L 394.00 1503.00 L 406.00 1441.00 L 429.00 1370.00 L 463.00 1290.00 L 481.00 1238.00 L 483.00 1214.00 L 487.00 1195.00 L 493.00 1181.00 L 494.00 1161.00 L 490.00 1135.00 L 492.00 1099.00 L 500.00 1053.00 L 504.00 1027.00 L 504.00 1021.00 L 508.00 1002.00 Z" fill="black" stroke="black" stroke-width="1"/>
</svg>