<?xml version="1.0" encoding="UTF-8"?>
<svg xmlns="http://www.w3.org/2000/svg" viewBox="276.00 264.00 924.00 1475.00">
  <path d="M 610.00 947.00 L 610.00 933.00 L 604.00 917.00 L 592.00 899.00 L 544.00 874.00 L 460.00 842.00 L 459.00 840.00 L 541.00 868.00 L 539.00 866.00 L 453.00 834.00 L 438.00 828.00 L 494.00 848.00 L 492.00 847.00 L 432.00 825.00 L 436.00 826.00 L 504.00 850.00 L 497.00 846.00 L 415.00 814.00 L 418.00 814.00 L 506.00 846.00 L 504.00 844.00 L 412.00 808.00 L 420.00 811.00 L 528.00 853.00 L 519.00 847.00 L 393.00 793.00 L 392.00 791.00 L 516.00 841.00 L 511.00 836.00 L 377.00 776.00 L 309.00 744.00 L 307.00 740.00 L 372.00 767.00 L 504.00 825.00 L 503.00 822.00 L 369.00 758.00 L 371.00 758.00 L 509.00 822.00 L 509.00 820.00 L 371.00 752.00 L 298.00 706.00 L 290.00 682.00 L 286.00 651.00 L 286.00 613.00 L 291.00 575.00 L 301.00 537.00 L 324.00 498.00 L 360.00 458.00 L 392.00 416.00 L 420.00 372.00 L 456.00 334.00 L 500.00 302.00 L 537.00 282.00 L 567.00 274.00 L 601.00 277.00 L 639.00 291.00 L 670.00 297.00 L 694.00 295.00 L 720.00 297.00 L 748.00 303.00 L 777.00 299.00 L 807.00 285.00 L 833.00 278.00 L 855.00 278.00 L 866.00 291.00 L 866.00 317.00 L 868.00 320.00 L 872.00 300.00 L 874.00 301.00 L 874.00 323.00 L 890.00 337.00 L 922.00 343.00 L 954.00 354.00 L 986.00 370.00 L 1025.00 401.00 L 1071.00 447.00 L 1110.00 496.00 L 1142.00 548.00 L 1154.00 580.00 L 1146.00 592.00 L 1145.00 595.00 L 1151.00 589.00 L 1151.00 591.00 L 1145.00 601.00 L 1146.00 603.00 L 1154.00 597.00 L 1158.00 596.00 L 1158.00 600.00 L 1155.00 606.00 L 1149.00 614.00 L 1150.00 616.00 L 1158.00 612.00 L 1158.00 617.00 L 1150.00 631.00 L 1149.00 636.00 L 1155.00 632.00 L 1155.00 634.00 L 1149.00 642.00 L 1146.00 659.00 L 1146.00 685.00 L 1142.00 710.00 L 1134.00 734.00 L 1133.00 758.00 L 1139.00 782.00 L 1153.00 809.00 L 1175.00 839.00 L 1178.00 866.00 L 1162.00 890.00 L 1155.00 927.00 L 1157.00 977.00 L 1140.00 1028.00 L 1104.00 1080.00 L 1074.00 1112.00 L 1050.00 1124.00 L 1021.00 1130.00 L 987.00 1130.00 L 965.00 1135.00 L 955.00 1145.00 L 997.00 1211.00 L 1091.00 1333.00 L 1142.00 1400.00 L 1150.00 1412.00 L 1146.00 1408.00 L 1130.00 1388.00 L 1132.00 1391.00 L 1152.00 1417.00 L 1150.00 1415.00 L 1126.00 1385.00 L 1129.00 1390.00 L 1159.00 1430.00 L 1157.00 1428.00 L 1123.00 1384.00 L 1124.00 1386.00 L 1160.00 1434.00 L 1156.00 1430.00 L 1112.00 1374.00 L 1116.00 1381.00 L 1168.00 1451.00 L 1164.00 1447.00 L 1104.00 1369.00 L 1105.00 1372.00 L 1167.00 1456.00 L 1166.00 1455.00 L 1102.00 1369.00 L 1103.00 1371.00 L 1169.00 1461.00 L 1168.00 1460.00 L 1100.00 1368.00 L 1100.00 1370.00 L 1168.00 1466.00 L 1138.00 1426.00 L 1010.00 1250.00 L 1011.00 1253.00 L 1141.00 1435.00 L 1166.00 1471.00 L 1086.00 1361.00 L 1087.00 1365.00 L 1169.00 1483.00 L 1164.00 1478.00 L 1072.00 1350.00 L 1072.00 1353.00 L 1164.00 1487.00 L 1161.00 1484.00 L 1063.00 1344.00 L 1063.00 1347.00 L 1161.00 1493.00 L 1157.00 1489.00 L 1051.00 1335.00 L 1051.00 1338.00 L 1157.00 1498.00 L 1143.00 1477.00 L 1009.00 1275.00 L 1009.00 1277.00 L 1143.00 1483.00 L 1151.00 1497.00 L 1033.00 1319.00 L 1033.00 1322.00 L 1151.00 1506.00 L 1147.00 1501.00 L 1021.00 1307.00 L 1021.00 1310.00 L 1147.00 1510.00 L 1143.00 1504.00 L 1009.00 1292.00 L 1009.00 1293.00 L 1143.00 1507.00 L 1144.00 1509.00 L 1012.00 1299.00 L 1011.00 1301.00 L 1141.00 1515.00 L 1190.00 1642.00 L 1158.00 1682.00 L 1121.00 1711.00 L 1079.00 1729.00 L 983.00 1670.00 L 833.00 1534.00 L 733.00 1448.00 L 683.00 1412.00 L 642.00 1387.00 L 610.00 1373.00 L 595.00 1364.00 L 597.00 1360.00 L 563.00 1341.00 L 493.00 1307.00 L 477.00 1249.00 L 515.00 1167.00 L 549.00 1103.00 L 579.00 1057.00 L 598.00 1016.00 L 606.00 980.00 L 610.00 960.00 L 610.00 956.00 L 610.00 947.00 Z" fill="black" stroke="black" stroke-width="1"/>
</svg>