<?xml version="1.0" encoding="UTF-8"?>
<svg xmlns="http://www.w3.org/2000/svg" viewBox="369.00 225.00 921.00 1574.00">
  <path d="M 470.00 1008.00 L 478.00 956.00 L 492.00 917.00 L 512.00 891.00 L 516.00 863.00 L 504.00 833.00 L 488.00 805.00 L 468.00 779.00 L 446.00 743.00 L 422.00 697.00 L 408.00 666.00 L 404.00 650.00 L 402.00 620.00 L 402.00 576.00 L 405.00 536.00 L 411.00 500.00 L 421.00 463.00 L 435.00 425.00 L 455.00 391.00 L 481.00 361.00 L 511.00 334.00 L 545.00 310.00 L 587.00 287.00 L 637.00 265.00 L 678.00 250.00 L 710.00 242.00 L 744.00 237.00 L 780.00 235.00 L 812.00 239.00 L 840.00 249.00 L 857.00 253.00 L 863.00 251.00 L 880.00 254.00 L 908.00 262.00 L 930.00 270.00 L 946.00 278.00 L 979.00 298.00 L 1029.00 330.00 L 1061.00 354.00 L 1075.00 370.00 L 1089.00 382.00 L 1103.00 390.00 L 1110.00 402.00 L 1110.00 418.00 L 1112.00 421.00 L 1116.00 411.00 L 1117.00 413.00 L 1115.00 427.00 L 1117.00 429.00 L 1123.00 419.00 L 1124.00 422.00 L 1120.00 438.00 L 1121.00 440.00 L 1127.00 428.00 L 1128.00 430.00 L 1124.00 446.00 L 1125.00 449.00 L 1131.00 439.00 L 1132.00 442.00 L 1128.00 458.00 L 1129.00 463.00 L 1135.00 457.00 L 1136.00 459.00 L 1132.00 469.00 L 1133.00 472.00 L 1139.00 468.00 L 1140.00 471.00 L 1136.00 481.00 L 1135.00 488.00 L 1137.00 492.00 L 1141.00 489.00 L 1147.00 479.00 L 1149.00 481.00 L 1147.00 495.00 L 1148.00 506.00 L 1152.00 514.00 L 1155.00 539.00 L 1157.00 581.00 L 1182.00 631.00 L 1230.00 689.00 L 1239.00 731.00 L 1209.00 757.00 L 1210.00 758.00 L 1242.00 734.00 L 1240.00 738.00 L 1204.00 770.00 L 1204.00 772.00 L 1240.00 744.00 L 1247.00 739.00 L 1225.00 757.00 L 1224.00 760.00 L 1244.00 748.00 L 1247.00 748.00 L 1233.00 760.00 L 1231.00 763.00 L 1241.00 757.00 L 1232.00 765.00 L 1204.00 787.00 L 1192.00 806.00 L 1196.00 822.00 L 1194.00 835.00 L 1186.00 845.00 L 1183.00 856.00 L 1185.00 868.00 L 1181.00 879.00 L 1171.00 889.00 L 1168.00 902.00 L 1172.00 918.00 L 1174.00 936.00 L 1174.00 956.00 L 1172.00 970.00 L 1168.00 978.00 L 1159.00 989.00 L 1145.00 1003.00 L 1122.00 1018.00 L 1090.00 1034.00 L 1082.00 1045.00 L 1098.00 1051.00 L 1107.00 1056.00 L 1109.00 1060.00 L 1104.00 1072.00 L 1092.00 1092.00 L 1095.00 1107.00 L 1113.00 1117.00 L 1115.00 1121.00 L 1101.00 1119.00 L 1102.00 1121.00 L 1118.00 1127.00 L 1115.00 1126.00 L 1093.00 1118.00 L 1094.00 1120.00 L 1118.00 1132.00 L 1119.00 1134.00 L 1097.00 1126.00 L 1084.00 1123.00 L 1080.00 1125.00 L 1091.00 1132.00 L 1117.00 1144.00 L 1126.00 1153.00 L 1118.00 1159.00 L 1122.00 1167.00 L 1138.00 1177.00 L 1139.00 1179.00 L 1125.00 1173.00 L 1128.00 1176.00 L 1148.00 1188.00 L 1143.00 1187.00 L 1113.00 1173.00 L 1116.00 1178.00 L 1152.00 1202.00 L 1170.00 1217.00 L 1170.00 1223.00 L 1158.00 1220.00 L 1134.00 1208.00 L 1131.00 1209.00 L 1149.00 1223.00 L 1143.00 1221.00 L 1113.00 1203.00 L 1127.00 1250.00 L 1185.00 1362.00 L 1229.00 1458.00 L 1259.00 1538.00 L 1276.00 1598.00 L 1280.00 1638.00 L 1280.00 1673.00 L 1276.00 1703.00 L 1270.00 1724.00 L 1262.00 1736.00 L 1244.00 1752.00 L 1216.00 1772.00 L 1192.00 1784.00 L 1172.00 1788.00 L 1149.00 1789.00 L 1123.00 1787.00 L 1057.00 1755.00 L 951.00 1693.00 L 897.00 1664.00 L 895.00 1668.00 L 876.00 1660.00 L 840.00 1640.00 L 801.00 1623.00 L 759.00 1609.00 L 731.00 1598.00 L 717.00 1590.00 L 710.00 1583.00 L 710.00 1577.00 L 697.00 1574.00 L 671.00 1574.00 L 646.00 1570.00 L 622.00 1562.00 L 582.00 1554.00 L 526.00 1546.00 L 475.00 1542.00 L 429.00 1542.00 L 404.00 1544.00 L 400.00 1548.00 L 393.00 1550.00 L 383.00 1550.00 L 379.00 1529.00 L 381.00 1487.00 L 386.00 1444.00 L 394.00 1400.00 L 406.00 1353.00 L 422.00 1303.00 L 431.00 1266.00 L 433.00 1242.00 L 442.00 1213.00 L 458.00 1179.00 L 466.00 1133.00 L 466.00 1075.00 L 466.00 1043.00 L 466.00 1037.00 L 470.00 1008.00 Z" fill="black" stroke="black" stroke-width="1"/>
</svg>