<?xml version="1.0" encoding="UTF-8"?>
<svg xmlns="http://www.w3.org/2000/svg" viewBox="232.00 247.00 895.00 1527.00">
  <path d="M 476.00 925.00 L 496.00 891.00 L 447.00 847.00 L 329.00 793.00 L 330.00 791.00 L 450.00 841.00 L 448.00 838.00 L 324.00 782.00 L 292.00 766.00 L 352.00 790.00 L 351.00 787.00 L 289.00 757.00 L 302.00 761.00 L 390.00 799.00 L 389.00 796.00 L 299.00 752.00 L 318.00 761.00 L 446.00 823.00 L 445.00 822.00 L 315.00 758.00 L 298.00 749.00 L 394.00 795.00 L 394.00 792.00 L 298.00 740.00 L 315.00 747.00 L 445.00 813.00 L 444.00 810.00 L 312.00 738.00 L 245.00 699.00 L 243.00 693.00 L 309.00 727.00 L 443.00 801.00 L 443.00 799.00 L 309.00 721.00 L 309.00 720.00 L 443.00 796.00 L 443.00 794.00 L 309.00 714.00 L 298.00 707.00 L 410.00 773.00 L 409.00 770.00 L 295.00 698.00 L 304.00 702.00 L 436.00 782.00 L 436.00 779.00 L 304.00 693.00 L 242.00 617.00 L 250.00 551.00 L 263.00 496.00 L 281.00 452.00 L 321.00 400.00 L 383.00 340.00 L 432.00 305.00 L 468.00 295.00 L 501.00 279.00 L 531.00 257.00 L 550.00 261.00 L 558.00 291.00 L 560.00 291.00 L 556.00 261.00 L 558.00 260.00 L 566.00 288.00 L 568.00 288.00 L 564.00 260.00 L 567.00 259.00 L 577.00 285.00 L 613.00 292.00 L 675.00 280.00 L 735.00 283.00 L 793.00 301.00 L 851.00 333.00 L 909.00 379.00 L 968.00 435.00 L 1028.00 501.00 L 1056.00 546.00 L 1052.00 570.00 L 1054.00 578.00 L 1062.00 570.00 L 1064.00 575.00 L 1060.00 593.00 L 1063.00 599.00 L 1073.00 593.00 L 1073.00 598.00 L 1063.00 614.00 L 1063.00 619.00 L 1073.00 613.00 L 1072.00 616.00 L 1060.00 628.00 L 1060.00 631.00 L 1072.00 625.00 L 1072.00 628.00 L 1060.00 640.00 L 1060.00 642.00 L 1072.00 634.00 L 1071.00 644.00 L 1057.00 672.00 L 1070.00 718.00 L 1110.00 782.00 L 1117.00 827.00 L 1091.00 853.00 L 1080.00 876.00 L 1084.00 896.00 L 1077.00 924.00 L 1059.00 960.00 L 1047.00 997.00 L 1041.00 1035.00 L 1025.00 1061.00 L 999.00 1075.00 L 955.00 1085.00 L 893.00 1091.00 L 852.00 1102.00 L 832.00 1118.00 L 885.00 1238.00 L 1011.00 1462.00 L 1009.00 1464.00 L 879.00 1244.00 L 879.00 1246.00 L 1009.00 1470.00 L 1046.00 1535.00 L 990.00 1441.00 L 991.00 1446.00 L 1049.00 1550.00 L 1046.00 1547.00 L 982.00 1437.00 L 982.00 1440.00 L 1046.00 1556.00 L 1043.00 1553.00 L 973.00 1431.00 L 972.00 1434.00 L 1040.00 1562.00 L 1037.00 1559.00 L 963.00 1425.00 L 963.00 1428.00 L 1037.00 1568.00 L 1032.00 1562.00 L 948.00 1410.00 L 947.00 1413.00 L 1029.00 1571.00 L 1004.00 1524.00 L 872.00 1272.00 L 871.00 1275.00 L 1001.00 1533.00 L 1020.00 1574.00 L 928.00 1398.00 L 926.00 1401.00 L 1014.00 1583.00 L 1012.00 1580.00 L 920.00 1392.00 L 919.00 1394.00 L 1009.00 1586.00 L 1003.00 1578.00 L 901.00 1370.00 L 899.00 1373.00 L 997.00 1587.00 L 984.00 1560.00 L 860.00 1292.00 L 858.00 1295.00 L 978.00 1569.00 L 986.00 1590.00 L 882.00 1358.00 L 879.00 1361.00 L 977.00 1599.00 L 968.00 1580.00 L 852.00 1304.00 L 850.00 1306.00 L 962.00 1586.00 L 963.00 1593.00 L 853.00 1327.00 L 849.00 1330.00 L 951.00 1602.00 L 949.00 1598.00 L 843.00 1318.00 L 841.00 1319.00 L 943.00 1601.00 L 943.00 1603.00 L 841.00 1325.00 L 840.00 1326.00 L 940.00 1606.00 L 978.00 1752.00 L 954.00 1764.00 L 842.00 1686.00 L 642.00 1518.00 L 475.00 1404.00 L 341.00 1344.00 L 321.00 1224.00 L 415.00 1044.00 L 463.00 951.00 L 465.00 945.00 L 476.00 925.00 Z" fill="black" stroke="black" stroke-width="1"/>
</svg>