<?xml version="1.0" encoding="UTF-8"?>
<svg xmlns="http://www.w3.org/2000/svg" viewBox="344.00 196.00 818.00 1400.00">
  <path d="M 424.00 881.00 L 412.00 863.00 L 406.00 836.00 L 406.00 800.00 L 392.00 777.00 L 364.00 767.00 L 363.00 765.00 L 389.00 771.00 L 386.00 766.00 L 354.00 750.00 L 365.00 701.00 L 419.00 619.00 L 435.00 565.00 L 413.00 539.00 L 414.00 534.00 L 438.00 550.00 L 439.00 546.00 L 417.00 522.00 L 417.00 519.00 L 439.00 537.00 L 441.00 534.00 L 423.00 510.00 L 423.00 507.00 L 441.00 525.00 L 441.00 524.00 L 423.00 504.00 L 423.00 501.00 L 441.00 515.00 L 443.00 511.00 L 429.00 489.00 L 430.00 487.00 L 446.00 505.00 L 446.00 502.00 L 430.00 478.00 L 430.00 475.00 L 446.00 493.00 L 447.00 491.00 L 433.00 469.00 L 434.00 466.00 L 450.00 482.00 L 452.00 475.00 L 440.00 445.00 L 441.00 439.00 L 455.00 457.00 L 456.00 456.00 L 444.00 436.00 L 445.00 433.00 L 459.00 447.00 L 461.00 444.00 L 451.00 424.00 L 452.00 421.00 L 464.00 435.00 L 467.00 431.00 L 461.00 409.00 L 463.00 402.00 L 473.00 410.00 L 477.00 404.00 L 475.00 384.00 L 479.00 378.00 L 489.00 386.00 L 491.00 383.00 L 485.00 369.00 L 486.00 366.00 L 494.00 374.00 L 497.00 371.00 L 495.00 357.00 L 515.00 329.00 L 557.00 287.00 L 613.00 251.00 L 683.00 221.00 L 759.00 206.00 L 841.00 206.00 L 911.00 219.00 L 969.00 245.00 L 1019.00 278.00 L 1061.00 318.00 L 1096.00 364.00 L 1124.00 416.00 L 1142.00 465.00 L 1150.00 511.00 L 1152.00 563.00 L 1148.00 621.00 L 1133.00 690.00 L 1107.00 770.00 L 1094.00 821.00 L 1094.00 843.00 L 1102.00 856.00 L 1118.00 860.00 L 1117.00 863.00 L 1099.00 865.00 L 1100.00 866.00 L 1120.00 866.00 L 1122.00 867.00 L 1106.00 869.00 L 1111.00 874.00 L 1137.00 882.00 L 1120.00 887.00 L 1060.00 889.00 L 1060.00 890.00 L 1120.00 890.00 L 1122.00 892.00 L 1066.00 896.00 L 1063.00 900.00 L 1113.00 904.00 L 1126.00 906.00 L 1102.00 906.00 L 1096.00 907.00 L 1108.00 909.00 L 1094.00 909.00 L 1054.00 907.00 L 1058.00 909.00 L 1106.00 915.00 L 1107.00 917.00 L 1061.00 915.00 L 1059.00 916.00 L 1101.00 920.00 L 1103.00 921.00 L 1065.00 919.00 L 1066.00 925.00 L 1106.00 939.00 L 1105.00 944.00 L 1063.00 940.00 L 1064.00 943.00 L 1108.00 953.00 L 1108.00 955.00 L 1064.00 949.00 L 1067.00 953.00 L 1117.00 967.00 L 1117.00 970.00 L 1067.00 962.00 L 1065.00 966.00 L 1111.00 982.00 L 1111.00 986.00 L 1065.00 978.00 L 1055.00 983.00 L 1081.00 1001.00 L 1081.00 1007.00 L 1055.00 1001.00 L 1056.00 1004.00 L 1084.00 1016.00 L 1085.00 1019.00 L 1059.00 1013.00 L 1059.00 1016.00 L 1085.00 1028.00 L 1085.00 1030.00 L 1059.00 1022.00 L 1059.00 1025.00 L 1085.00 1039.00 L 1085.00 1041.00 L 1059.00 1031.00 L 1059.00 1034.00 L 1085.00 1050.00 L 1086.00 1053.00 L 1062.00 1043.00 L 1062.00 1046.00 L 1086.00 1062.00 L 1086.00 1066.00 L 1062.00 1058.00 L 1061.00 1065.00 L 1083.00 1087.00 L 1082.00 1092.00 L 1058.00 1080.00 L 1059.00 1084.00 L 1085.00 1104.00 L 1084.00 1106.00 L 1056.00 1090.00 L 1056.00 1092.00 L 1084.00 1112.00 L 1083.00 1112.00 L 1053.00 1092.00 L 1053.00 1095.00 L 1083.00 1121.00 L 1082.00 1123.00 L 1050.00 1101.00 L 1048.00 1103.00 L 1076.00 1129.00 L 1074.00 1133.00 L 1042.00 1115.00 L 1036.00 1170.00 L 1056.00 1298.00 L 1060.00 1380.00 L 1048.00 1416.00 L 964.00 1439.00 L 808.00 1449.00 L 654.00 1487.00 L 502.00 1553.00 L 416.00 1586.00 L 396.00 1586.00 L 383.00 1568.00 L 377.00 1532.00 L 380.00 1488.00 L 392.00 1436.00 L 411.00 1390.00 L 437.00 1350.00 L 444.00 1338.00 L 432.00 1354.00 L 433.00 1343.00 L 447.00 1305.00 L 472.00 1262.00 L 508.00 1214.00 L 511.00 1206.00 L 481.00 1238.00 L 485.00 1231.00 L 523.00 1185.00 L 523.00 1183.00 L 485.00 1225.00 L 485.00 1220.00 L 523.00 1168.00 L 536.00 1122.00 L 524.00 1082.00 L 506.00 1047.00 L 482.00 1017.00 L 472.00 999.00 L 476.00 993.00 L 466.00 983.00 L 442.00 969.00 L 431.00 947.00 L 433.00 917.00 L 433.00 899.00 L 431.00 893.00 L 424.00 881.00 Z" fill="black" stroke="black" stroke-width="1"/>
</svg>