<?xml version="1.0" encoding="UTF-8"?>
<svg xmlns="http://www.w3.org/2000/svg" viewBox="152.00 308.00 959.00 1489.00">
  <path d="M 529.00 987.00 L 535.00 985.00 L 532.00 982.00 L 520.00 978.00 L 519.00 975.00 L 529.00 973.00 L 527.00 970.00 L 513.00 966.00 L 515.00 965.00 L 533.00 967.00 L 533.00 964.00 L 515.00 956.00 L 514.00 953.00 L 530.00 955.00 L 529.00 953.00 L 511.00 947.00 L 501.00 940.00 L 499.00 932.00 L 478.00 918.00 L 438.00 898.00 L 431.00 893.00 L 457.00 903.00 L 451.00 899.00 L 413.00 881.00 L 412.00 879.00 L 448.00 893.00 L 415.00 872.00 L 313.00 816.00 L 287.00 800.00 L 337.00 824.00 L 336.00 823.00 L 284.00 797.00 L 281.00 795.00 L 327.00 817.00 L 326.00 816.00 L 278.00 792.00 L 269.00 787.00 L 299.00 801.00 L 297.00 799.00 L 263.00 781.00 L 231.00 750.00 L 201.00 706.00 L 180.00 668.00 L 168.00 636.00 L 162.00 607.00 L 162.00 581.00 L 163.00 554.00 L 165.00 526.00 L 172.00 496.00 L 184.00 464.00 L 219.00 422.00 L 277.00 370.00 L 315.00 341.00 L 333.00 335.00 L 356.00 333.00 L 384.00 335.00 L 414.00 331.00 L 446.00 321.00 L 476.00 318.00 L 504.00 322.00 L 534.00 334.00 L 566.00 354.00 L 600.00 361.00 L 636.00 355.00 L 671.00 356.00 L 705.00 364.00 L 727.00 370.00 L 737.00 374.00 L 743.00 389.00 L 745.00 415.00 L 750.00 416.00 L 758.00 392.00 L 761.00 393.00 L 759.00 419.00 L 761.00 420.00 L 767.00 396.00 L 770.00 397.00 L 770.00 423.00 L 773.00 423.00 L 779.00 397.00 L 781.00 398.00 L 779.00 426.00 L 783.00 425.00 L 793.00 395.00 L 796.00 396.00 L 792.00 428.00 L 796.00 427.00 L 808.00 393.00 L 811.00 394.00 L 805.00 430.00 L 807.00 430.00 L 817.00 394.00 L 820.00 394.00 L 816.00 430.00 L 819.00 430.00 L 829.00 394.00 L 832.00 396.00 L 828.00 436.00 L 859.00 480.00 L 925.00 528.00 L 978.00 583.00 L 1018.00 645.00 L 1033.00 684.00 L 1023.00 700.00 L 1025.00 702.00 L 1039.00 690.00 L 1039.00 693.00 L 1025.00 711.00 L 1023.00 716.00 L 1033.00 708.00 L 1033.00 711.00 L 1023.00 725.00 L 1024.00 728.00 L 1036.00 720.00 L 1036.00 722.00 L 1024.00 734.00 L 1024.00 736.00 L 1036.00 728.00 L 1038.00 728.00 L 1030.00 736.00 L 1029.00 739.00 L 1035.00 737.00 L 1033.00 740.00 L 1023.00 748.00 L 1023.00 751.00 L 1033.00 749.00 L 1033.00 752.00 L 1023.00 760.00 L 1017.00 769.00 L 1015.00 779.00 L 1027.00 813.00 L 1053.00 871.00 L 1056.00 904.00 L 1036.00 912.00 L 1033.00 915.00 L 1047.00 913.00 L 1047.00 915.00 L 1033.00 921.00 L 1029.00 935.00 L 1035.00 957.00 L 1028.00 983.00 L 1008.00 1013.00 L 999.00 1038.00 L 1001.00 1058.00 L 997.00 1075.00 L 987.00 1089.00 L 971.00 1102.00 L 949.00 1114.00 L 923.00 1122.00 L 893.00 1126.00 L 871.00 1139.00 L 857.00 1161.00 L 849.00 1179.00 L 847.00 1193.00 L 905.00 1286.00 L 1023.00 1458.00 L 1022.00 1461.00 L 902.00 1295.00 L 904.00 1298.00 L 1028.00 1470.00 L 1081.00 1544.00 L 1063.00 1520.00 L 1064.00 1522.00 L 1084.00 1550.00 L 1081.00 1546.00 L 1055.00 1510.00 L 1059.00 1516.00 L 1093.00 1564.00 L 1091.00 1562.00 L 1053.00 1510.00 L 1054.00 1512.00 L 1094.00 1568.00 L 1093.00 1567.00 L 1051.00 1509.00 L 1052.00 1511.00 L 1096.00 1573.00 L 1091.00 1567.00 L 1037.00 1493.00 L 1038.00 1496.00 L 1094.00 1576.00 L 1090.00 1571.00 L 1026.00 1481.00 L 1027.00 1484.00 L 1093.00 1580.00 L 1091.00 1578.00 L 1021.00 1478.00 L 1021.00 1480.00 L 1091.00 1584.00 L 1055.00 1533.00 L 913.00 1327.00 L 913.00 1332.00 L 1055.00 1548.00 L 1055.00 1550.00 L 913.00 1338.00 L 913.00 1343.00 L 1055.00 1565.00 L 1055.00 1567.00 L 913.00 1349.00 L 912.00 1355.00 L 1052.00 1585.00 L 1052.00 1588.00 L 912.00 1364.00 L 911.00 1369.00 L 1049.00 1603.00 L 1049.00 1606.00 L 911.00 1378.00 L 909.00 1381.00 L 1043.00 1615.00 L 1101.00 1742.00 L 1083.00 1762.00 L 1057.00 1777.00 L 1023.00 1787.00 L 921.00 1741.00 L 751.00 1639.00 L 586.00 1554.00 L 426.00 1486.00 L 356.00 1417.00 L 376.00 1347.00 L 406.00 1277.00 L 446.00 1207.00 L 476.00 1148.00 L 496.00 1100.00 L 511.00 1072.00 L 521.00 1064.00 L 523.00 1061.00 L 517.00 1063.00 L 519.00 1056.00 L 529.00 1040.00 L 535.00 1023.00 L 537.00 1005.00 L 535.00 994.00 L 529.00 990.00 L 529.00 987.00 Z" fill="black" stroke="black" stroke-width="1"/>
</svg>