<?xml version="1.0" encoding="UTF-8"?>
<svg xmlns="http://www.w3.org/2000/svg" viewBox="289.00 337.00 767.00 1368.00">
  <path d="M 499.00 988.00 L 469.00 944.00 L 438.00 912.00 L 406.00 892.00 L 376.00 867.00 L 348.00 837.00 L 326.00 798.00 L 310.00 750.00 L 301.00 707.00 L 299.00 669.00 L 301.00 636.00 L 307.00 608.00 L 318.00 574.00 L 334.00 534.00 L 352.00 503.00 L 372.00 481.00 L 390.00 451.00 L 406.00 413.00 L 420.00 397.00 L 432.00 403.00 L 446.00 396.00 L 462.00 376.00 L 480.00 361.00 L 500.00 351.00 L 513.00 347.00 L 519.00 349.00 L 527.00 359.00 L 537.00 377.00 L 558.00 381.00 L 590.00 371.00 L 628.00 366.00 L 672.00 366.00 L 721.00 373.00 L 775.00 387.00 L 824.00 404.00 L 868.00 424.00 L 900.00 441.00 L 920.00 455.00 L 938.00 469.00 L 954.00 483.00 L 960.00 495.00 L 956.00 505.00 L 957.00 506.00 L 963.00 498.00 L 964.00 499.00 L 960.00 509.00 L 959.00 513.00 L 961.00 511.00 L 963.00 512.00 L 965.00 516.00 L 968.00 515.00 L 972.00 509.00 L 973.00 510.00 L 971.00 518.00 L 973.00 520.00 L 979.00 516.00 L 984.00 516.00 L 988.00 520.00 L 995.00 532.00 L 1005.00 552.00 L 1007.00 568.00 L 1001.00 580.00 L 1002.00 582.00 L 1010.00 574.00 L 1011.00 576.00 L 1005.00 588.00 L 1005.00 590.00 L 1011.00 582.00 L 1012.00 584.00 L 1008.00 596.00 L 1009.00 598.00 L 1015.00 590.00 L 1014.00 593.00 L 1006.00 607.00 L 1007.00 610.00 L 1017.00 602.00 L 1018.00 605.00 L 1010.00 619.00 L 1010.00 623.00 L 1018.00 617.00 L 1017.00 622.00 L 1007.00 638.00 L 1007.00 640.00 L 1017.00 628.00 L 1017.00 630.00 L 1007.00 646.00 L 1007.00 649.00 L 1017.00 639.00 L 1016.00 644.00 L 1004.00 664.00 L 999.00 673.00 L 1001.00 671.00 L 1000.00 683.00 L 996.00 709.00 L 1009.00 749.00 L 1039.00 803.00 L 1046.00 837.00 L 1030.00 851.00 L 1024.00 857.00 L 1028.00 855.00 L 1027.00 859.00 L 1021.00 869.00 L 1020.00 883.00 L 1024.00 901.00 L 1022.00 913.00 L 1014.00 919.00 L 1012.00 922.00 L 1016.00 922.00 L 1011.00 931.00 L 997.00 949.00 L 989.00 969.00 L 987.00 991.00 L 981.00 1011.00 L 971.00 1029.00 L 955.00 1046.00 L 933.00 1062.00 L 902.00 1073.00 L 862.00 1079.00 L 836.00 1086.00 L 824.00 1094.00 L 847.00 1133.00 L 905.00 1203.00 L 904.00 1205.00 L 844.00 1139.00 L 853.00 1152.00 L 931.00 1244.00 L 931.00 1246.00 L 853.00 1158.00 L 863.00 1177.00 L 961.00 1303.00 L 1004.00 1359.00 L 992.00 1345.00 L 993.00 1347.00 L 1007.00 1365.00 L 980.00 1332.00 L 912.00 1248.00 L 912.00 1251.00 L 980.00 1341.00 L 973.00 1332.00 L 891.00 1224.00 L 891.00 1225.00 L 973.00 1335.00 L 989.00 1357.00 L 939.00 1291.00 L 941.00 1296.00 L 995.00 1372.00 L 969.00 1338.00 L 863.00 1194.00 L 862.00 1196.00 L 966.00 1344.00 L 966.00 1345.00 L 862.00 1199.00 L 861.00 1200.00 L 963.00 1348.00 L 969.00 1357.00 L 879.00 1227.00 L 877.00 1226.00 L 963.00 1354.00 L 994.00 1403.00 L 970.00 1373.00 L 921.00 1302.00 L 847.00 1190.00 L 842.00 1185.00 L 906.00 1287.00 L 910.00 1294.00 L 854.00 1206.00 L 858.00 1215.00 L 922.00 1321.00 L 959.00 1383.00 L 969.00 1401.00 L 964.00 1394.00 L 944.00 1362.00 L 949.00 1373.00 L 979.00 1427.00 L 948.00 1377.00 L 856.00 1223.00 L 857.00 1227.00 L 951.00 1389.00 L 1000.00 1480.00 L 1004.00 1500.00 L 1006.00 1530.00 L 1006.00 1570.00 L 1004.00 1609.00 L 1000.00 1647.00 L 994.00 1671.00 L 986.00 1681.00 L 972.00 1689.00 L 952.00 1695.00 L 923.00 1691.00 L 885.00 1677.00 L 819.00 1640.00 L 725.00 1580.00 L 647.00 1536.00 L 585.00 1508.00 L 525.00 1484.00 L 467.00 1464.00 L 436.00 1449.00 L 432.00 1439.00 L 439.00 1388.00 L 457.00 1296.00 L 466.00 1232.00 L 466.00 1196.00 L 463.00 1177.00 L 457.00 1175.00 L 447.00 1176.00 L 433.00 1180.00 L 422.00 1180.00 L 414.00 1176.00 L 409.00 1166.00 L 407.00 1150.00 L 407.00 1140.00 L 409.00 1136.00 L 436.00 1124.00 L 488.00 1104.00 L 490.00 1101.00 L 442.00 1115.00 L 436.00 1115.00 L 472.00 1101.00 L 475.00 1098.00 L 445.00 1106.00 L 452.00 1103.00 L 496.00 1089.00 L 499.00 1088.00 L 461.00 1100.00 L 462.00 1099.00 L 502.00 1085.00 L 505.00 1082.00 L 471.00 1090.00 L 471.00 1087.00 L 505.00 1073.00 L 521.00 1055.00 L 519.00 1033.00 L 517.00 1019.00 L 515.00 1013.00 L 499.00 988.00 Z" fill="black" stroke="black" stroke-width="1"/>
</svg>