<?xml version="1.0" encoding="UTF-8"?>
<svg xmlns="http://www.w3.org/2000/svg" viewBox="298.00 234.00 868.00 1689.00">
  <path d="M 520.00 1032.00 L 508.00 972.00 L 475.00 916.00 L 421.00 864.00 L 390.00 827.00 L 382.00 805.00 L 369.00 785.00 L 351.00 767.00 L 338.00 751.00 L 330.00 737.00 L 321.00 706.00 L 311.00 658.00 L 308.00 627.00 L 312.00 613.00 L 313.00 593.00 L 311.00 567.00 L 314.00 531.00 L 322.00 485.00 L 332.00 451.00 L 344.00 429.00 L 359.00 411.00 L 377.00 397.00 L 384.00 386.00 L 380.00 378.00 L 383.00 378.00 L 393.00 386.00 L 395.00 383.00 L 389.00 369.00 L 390.00 366.00 L 398.00 374.00 L 399.00 372.00 L 393.00 360.00 L 395.00 362.00 L 405.00 378.00 L 406.00 377.00 L 398.00 359.00 L 396.00 348.00 L 400.00 344.00 L 414.00 338.00 L 438.00 330.00 L 463.00 316.00 L 489.00 296.00 L 510.00 285.00 L 526.00 283.00 L 541.00 276.00 L 555.00 264.00 L 568.00 256.00 L 580.00 252.00 L 599.00 251.00 L 625.00 253.00 L 654.00 251.00 L 686.00 245.00 L 707.00 244.00 L 717.00 248.00 L 733.00 249.00 L 755.00 247.00 L 777.00 253.00 L 799.00 267.00 L 824.00 272.00 L 852.00 268.00 L 880.00 276.00 L 908.00 296.00 L 931.00 318.00 L 949.00 342.00 L 972.00 360.00 L 1000.00 372.00 L 1021.00 385.00 L 1035.00 399.00 L 1045.00 411.00 L 1051.00 421.00 L 1052.00 431.00 L 1048.00 441.00 L 1049.00 442.00 L 1055.00 434.00 L 1057.00 437.00 L 1055.00 451.00 L 1065.00 472.00 L 1087.00 500.00 L 1104.00 534.00 L 1116.00 574.00 L 1122.00 625.00 L 1122.00 687.00 L 1116.00 733.00 L 1104.00 763.00 L 1098.00 787.00 L 1098.00 805.00 L 1100.00 822.00 L 1104.00 838.00 L 1114.00 858.00 L 1130.00 882.00 L 1138.00 901.00 L 1138.00 915.00 L 1132.00 929.00 L 1120.00 943.00 L 1115.00 957.00 L 1117.00 971.00 L 1123.00 986.00 L 1133.00 1002.00 L 1130.00 1019.00 L 1114.00 1037.00 L 1104.00 1056.00 L 1100.00 1076.00 L 1090.00 1090.00 L 1074.00 1098.00 L 1064.00 1113.00 L 1060.00 1135.00 L 1054.00 1153.00 L 1046.00 1167.00 L 1033.00 1179.00 L 1015.00 1189.00 L 973.00 1194.00 L 907.00 1194.00 L 873.00 1197.00 L 871.00 1203.00 L 871.00 1215.00 L 873.00 1233.00 L 926.00 1314.00 L 1030.00 1458.00 L 1065.00 1507.00 L 1031.00 1461.00 L 1032.00 1464.00 L 1068.00 1516.00 L 1063.00 1510.00 L 1017.00 1446.00 L 1023.00 1456.00 L 1081.00 1540.00 L 1076.00 1534.00 L 1008.00 1438.00 L 1010.00 1442.00 L 1082.00 1546.00 L 1080.00 1544.00 L 1004.00 1436.00 L 1005.00 1438.00 L 1083.00 1550.00 L 1080.00 1546.00 L 996.00 1426.00 L 998.00 1430.00 L 1086.00 1558.00 L 1082.00 1553.00 L 986.00 1415.00 L 987.00 1418.00 L 1085.00 1562.00 L 1069.00 1539.00 L 939.00 1349.00 L 940.00 1351.00 L 1072.00 1545.00 L 1080.00 1558.00 L 964.00 1390.00 L 965.00 1396.00 L 1083.00 1576.00 L 1081.00 1574.00 L 959.00 1390.00 L 959.00 1393.00 L 1081.00 1583.00 L 1075.00 1575.00 L 941.00 1369.00 L 942.00 1372.00 L 1078.00 1584.00 L 1079.00 1586.00 L 945.00 1378.00 L 945.00 1380.00 L 1079.00 1592.00 L 1080.00 1594.00 L 948.00 1386.00 L 949.00 1389.00 L 1083.00 1603.00 L 1152.00 1727.00 L 1156.00 1761.00 L 1156.00 1794.00 L 1152.00 1826.00 L 1144.00 1854.00 L 1132.00 1878.00 L 1121.00 1895.00 L 1111.00 1905.00 L 1103.00 1911.00 L 1097.00 1913.00 L 1080.00 1909.00 L 1052.00 1899.00 L 1026.00 1887.00 L 1002.00 1873.00 L 984.00 1859.00 L 972.00 1845.00 L 966.00 1840.00 L 966.00 1844.00 L 959.00 1840.00 L 945.00 1828.00 L 885.00 1799.00 L 779.00 1753.00 L 683.00 1720.00 L 597.00 1700.00 L 534.00 1688.00 L 494.00 1684.00 L 455.00 1683.00 L 417.00 1685.00 L 396.00 1684.00 L 392.00 1680.00 L 391.00 1641.00 L 393.00 1567.00 L 401.00 1499.00 L 415.00 1437.00 L 430.00 1386.00 L 446.00 1346.00 L 457.00 1312.00 L 463.00 1284.00 L 465.00 1259.00 L 463.00 1237.00 L 465.00 1219.00 L 471.00 1205.00 L 473.00 1187.00 L 471.00 1165.00 L 471.00 1151.00 L 473.00 1145.00 L 484.00 1139.00 L 504.00 1133.00 L 506.00 1131.00 L 490.00 1133.00 L 489.00 1132.00 L 503.00 1128.00 L 506.00 1126.00 L 498.00 1126.00 L 499.00 1123.00 L 509.00 1117.00 L 516.00 1103.00 L 520.00 1081.00 L 523.00 1068.00 L 525.00 1064.00 L 520.00 1032.00 Z" fill="black" stroke="black" stroke-width="1"/>
</svg>