<?xml version="1.0" encoding="UTF-8"?>
<svg xmlns="http://www.w3.org/2000/svg" viewBox="348.00 217.00 953.00 1579.00">
  <path d="M 662.00 959.00 L 662.00 953.00 L 649.00 947.00 L 623.00 941.00 L 621.00 939.00 L 643.00 941.00 L 641.00 940.00 L 615.00 936.00 L 617.00 935.00 L 647.00 937.00 L 645.00 934.00 L 611.00 926.00 L 590.00 914.00 L 582.00 898.00 L 568.00 885.00 L 548.00 875.00 L 534.00 863.00 L 526.00 849.00 L 495.00 830.00 L 441.00 806.00 L 440.00 804.00 L 492.00 824.00 L 489.00 820.00 L 431.00 792.00 L 429.00 789.00 L 483.00 811.00 L 481.00 808.00 L 423.00 780.00 L 390.00 761.00 L 382.00 751.00 L 373.00 725.00 L 363.00 683.00 L 358.00 646.00 L 358.00 614.00 L 371.00 550.00 L 397.00 454.00 L 440.00 377.00 L 500.00 319.00 L 573.00 275.00 L 659.00 245.00 L 721.00 229.00 L 759.00 227.00 L 799.00 234.00 L 841.00 250.00 L 875.00 253.00 L 901.00 243.00 L 914.00 240.00 L 914.00 244.00 L 916.00 243.00 L 920.00 237.00 L 937.00 233.00 L 967.00 231.00 L 994.00 235.00 L 1018.00 245.00 L 1028.00 267.00 L 1024.00 301.00 L 1027.00 303.00 L 1037.00 273.00 L 1039.00 275.00 L 1033.00 309.00 L 1037.00 308.00 L 1051.00 272.00 L 1053.00 273.00 L 1043.00 311.00 L 1047.00 309.00 L 1065.00 267.00 L 1068.00 269.00 L 1056.00 315.00 L 1058.00 315.00 L 1074.00 269.00 L 1075.00 270.00 L 1061.00 318.00 L 1063.00 319.00 L 1081.00 273.00 L 1084.00 276.00 L 1072.00 328.00 L 1085.00 373.00 L 1123.00 411.00 L 1161.00 465.00 L 1199.00 535.00 L 1212.00 577.00 L 1200.00 591.00 L 1200.00 594.00 L 1212.00 586.00 L 1212.00 589.00 L 1200.00 603.00 L 1195.00 629.00 L 1197.00 667.00 L 1214.00 709.00 L 1246.00 755.00 L 1262.00 782.00 L 1262.00 790.00 L 1253.00 804.00 L 1235.00 824.00 L 1229.00 845.00 L 1235.00 867.00 L 1235.00 889.00 L 1229.00 911.00 L 1220.00 929.00 L 1208.00 943.00 L 1204.00 963.00 L 1208.00 989.00 L 1206.00 1009.00 L 1198.00 1023.00 L 1170.00 1039.00 L 1122.00 1057.00 L 1076.00 1070.00 L 1032.00 1078.00 L 1002.00 1089.00 L 986.00 1103.00 L 1052.00 1208.00 L 1200.00 1404.00 L 1263.00 1488.00 L 1241.00 1460.00 L 1243.00 1463.00 L 1269.00 1497.00 L 1267.00 1495.00 L 1237.00 1457.00 L 1244.00 1467.00 L 1288.00 1525.00 L 1283.00 1519.00 L 1229.00 1449.00 L 1230.00 1451.00 L 1286.00 1525.00 L 1284.00 1523.00 L 1224.00 1445.00 L 1225.00 1448.00 L 1287.00 1532.00 L 1284.00 1529.00 L 1216.00 1439.00 L 1217.00 1441.00 L 1287.00 1535.00 L 1284.00 1532.00 L 1208.00 1432.00 L 1209.00 1435.00 L 1287.00 1541.00 L 1285.00 1539.00 L 1203.00 1429.00 L 1204.00 1431.00 L 1288.00 1545.00 L 1286.00 1543.00 L 1198.00 1425.00 L 1198.00 1427.00 L 1286.00 1549.00 L 1284.00 1547.00 L 1192.00 1421.00 L 1193.00 1424.00 L 1287.00 1556.00 L 1243.00 1496.00 L 1061.00 1244.00 L 1062.00 1248.00 L 1246.00 1508.00 L 1278.00 1555.00 L 1158.00 1389.00 L 1158.00 1393.00 L 1278.00 1567.00 L 1270.00 1557.00 L 1134.00 1363.00 L 1134.00 1366.00 L 1270.00 1566.00 L 1267.00 1563.00 L 1125.00 1357.00 L 1124.00 1360.00 L 1264.00 1572.00 L 1258.00 1565.00 L 1106.00 1339.00 L 1105.00 1343.00 L 1255.00 1577.00 L 1239.00 1553.00 L 1057.00 1271.00 L 1056.00 1274.00 L 1236.00 1562.00 L 1247.00 1581.00 L 1089.00 1331.00 L 1088.00 1334.00 L 1244.00 1590.00 L 1242.00 1588.00 L 1082.00 1328.00 L 1081.00 1329.00 L 1239.00 1591.00 L 1232.00 1581.00 L 1060.00 1299.00 L 1058.00 1302.00 L 1226.00 1590.00 L 1223.00 1585.00 L 1049.00 1287.00 L 1047.00 1290.00 L 1217.00 1594.00 L 1291.00 1758.00 L 1269.00 1782.00 L 1210.00 1786.00 L 1114.00 1770.00 L 1047.00 1744.00 L 1009.00 1708.00 L 945.00 1662.00 L 855.00 1606.00 L 774.00 1564.00 L 702.00 1536.00 L 613.00 1511.00 L 507.00 1489.00 L 458.00 1454.00 L 466.00 1406.00 L 484.00 1342.00 L 512.00 1262.00 L 537.00 1196.00 L 559.00 1144.00 L 575.00 1114.00 L 585.00 1106.00 L 593.00 1092.00 L 599.00 1072.00 L 616.00 1040.00 L 644.00 996.00 L 659.00 971.00 L 661.00 965.00 L 662.00 959.00 Z" fill="black" stroke="black" stroke-width="1"/>
</svg>