<?xml version="1.0" encoding="UTF-8"?>
<svg xmlns="http://www.w3.org/2000/svg" viewBox="293.00 224.00 912.00 1541.00">
  <path d="M 416.00 958.00 L 420.00 918.00 L 429.00 880.00 L 443.00 844.00 L 443.00 816.00 L 429.00 796.00 L 410.00 757.00 L 386.00 699.00 L 368.00 653.00 L 356.00 619.00 L 349.00 587.00 L 347.00 557.00 L 352.00 513.00 L 364.00 455.00 L 383.00 407.00 L 409.00 369.00 L 432.00 340.00 L 452.00 320.00 L 482.00 299.00 L 522.00 277.00 L 544.00 267.00 L 548.00 269.00 L 551.00 268.00 L 553.00 264.00 L 567.00 258.00 L 593.00 250.00 L 629.00 243.00 L 675.00 237.00 L 704.00 234.00 L 716.00 234.00 L 734.00 239.00 L 758.00 249.00 L 788.00 257.00 L 824.00 263.00 L 863.00 277.00 L 905.00 299.00 L 942.00 326.00 L 974.00 358.00 L 990.00 380.00 L 990.00 392.00 L 992.00 394.00 L 996.00 386.00 L 997.00 389.00 L 995.00 403.00 L 997.00 404.00 L 1003.00 392.00 L 1005.00 395.00 L 1003.00 413.00 L 1005.00 415.00 L 1011.00 401.00 L 1015.00 395.00 L 1017.00 397.00 L 1015.00 406.00 L 1009.00 422.00 L 1010.00 424.00 L 1018.00 412.00 L 1019.00 415.00 L 1013.00 433.00 L 1014.00 435.00 L 1022.00 421.00 L 1023.00 426.00 L 1017.00 450.00 L 1018.00 456.00 L 1026.00 444.00 L 1027.00 446.00 L 1021.00 462.00 L 1022.00 464.00 L 1030.00 452.00 L 1031.00 454.00 L 1025.00 470.00 L 1028.00 488.00 L 1040.00 508.00 L 1047.00 535.00 L 1049.00 569.00 L 1057.00 593.00 L 1071.00 607.00 L 1091.00 636.00 L 1117.00 680.00 L 1130.00 705.00 L 1130.00 711.00 L 1118.00 725.00 L 1094.00 747.00 L 1093.00 750.00 L 1115.00 734.00 L 1113.00 736.00 L 1087.00 756.00 L 1085.00 759.00 L 1107.00 745.00 L 1107.00 747.00 L 1085.00 765.00 L 1076.00 782.00 L 1080.00 798.00 L 1078.00 811.00 L 1070.00 821.00 L 1067.00 830.00 L 1069.00 838.00 L 1063.00 849.00 L 1049.00 863.00 L 1044.00 883.00 L 1048.00 909.00 L 1047.00 928.00 L 1041.00 940.00 L 1036.00 949.00 L 1032.00 955.00 L 1018.00 961.00 L 994.00 967.00 L 991.00 970.00 L 1009.00 970.00 L 1007.00 971.00 L 985.00 973.00 L 981.00 974.00 L 995.00 974.00 L 990.00 978.00 L 966.00 986.00 L 960.00 991.00 L 972.00 993.00 L 974.00 994.00 L 966.00 994.00 L 968.00 995.00 L 980.00 997.00 L 990.00 1002.00 L 998.00 1010.00 L 994.00 1026.00 L 978.00 1050.00 L 979.00 1068.00 L 997.00 1080.00 L 996.00 1083.00 L 976.00 1077.00 L 976.00 1079.00 L 996.00 1089.00 L 997.00 1090.00 L 979.00 1082.00 L 978.00 1084.00 L 994.00 1096.00 L 992.00 1097.00 L 972.00 1087.00 L 989.00 1102.00 L 1043.00 1142.00 L 1050.00 1150.00 L 1010.00 1126.00 L 1012.00 1128.00 L 1056.00 1156.00 L 1056.00 1157.00 L 1012.00 1131.00 L 1005.00 1129.00 L 1035.00 1151.00 L 1033.00 1151.00 L 999.00 1129.00 L 1004.00 1133.00 L 1048.00 1163.00 L 1062.00 1181.00 L 1046.00 1187.00 L 1030.00 1186.00 L 1014.00 1178.00 L 1008.00 1176.00 L 1012.00 1180.00 L 1000.00 1172.00 L 972.00 1152.00 L 970.00 1155.00 L 994.00 1181.00 L 1016.00 1209.00 L 1036.00 1239.00 L 1041.00 1249.00 L 1031.00 1239.00 L 1036.00 1245.00 L 1056.00 1267.00 L 1063.00 1275.00 L 1057.00 1269.00 L 1069.00 1288.00 L 1099.00 1332.00 L 1112.00 1352.00 L 1108.00 1348.00 L 1120.00 1373.00 L 1148.00 1427.00 L 1161.00 1453.00 L 1159.00 1451.00 L 1169.00 1485.00 L 1191.00 1555.00 L 1195.00 1616.00 L 1181.00 1668.00 L 1165.00 1705.00 L 1147.00 1727.00 L 1127.00 1743.00 L 1105.00 1753.00 L 1075.00 1755.00 L 1037.00 1749.00 L 999.00 1736.00 L 961.00 1716.00 L 906.00 1677.00 L 834.00 1619.00 L 763.00 1570.00 L 693.00 1530.00 L 629.00 1498.00 L 571.00 1474.00 L 496.00 1450.00 L 404.00 1426.00 L 348.00 1414.00 L 328.00 1414.00 L 313.00 1412.00 L 303.00 1408.00 L 304.00 1368.00 L 316.00 1292.00 L 329.00 1235.00 L 343.00 1197.00 L 367.00 1143.00 L 401.00 1073.00 L 417.00 1025.00 L 415.00 999.00 L 414.00 984.00 L 414.00 980.00 L 416.00 958.00 Z" fill="black" stroke="black" stroke-width="1"/>
</svg>