<?xml version="1.0" encoding="UTF-8"?>
<svg xmlns="http://www.w3.org/2000/svg" viewBox="303.00 173.00 823.00 1595.00">
  <path d="M 452.00 951.00 L 456.00 921.00 L 462.00 896.00 L 470.00 876.00 L 470.00 852.00 L 462.00 824.00 L 453.00 801.00 L 443.00 783.00 L 430.00 768.00 L 414.00 756.00 L 389.00 727.00 L 355.00 681.00 L 332.00 640.00 L 320.00 604.00 L 314.00 582.00 L 314.00 574.00 L 316.00 570.00 L 320.00 570.00 L 319.00 561.00 L 313.00 543.00 L 316.00 536.00 L 328.00 540.00 L 328.00 535.00 L 316.00 521.00 L 318.00 521.00 L 334.00 535.00 L 335.00 533.00 L 321.00 515.00 L 322.00 513.00 L 338.00 527.00 L 338.00 524.00 L 322.00 504.00 L 323.00 502.00 L 341.00 518.00 L 341.00 515.00 L 323.00 493.00 L 317.00 467.00 L 323.00 437.00 L 331.00 412.00 L 341.00 392.00 L 347.00 383.00 L 349.00 385.00 L 350.00 383.00 L 350.00 377.00 L 366.00 351.00 L 398.00 305.00 L 420.00 280.00 L 432.00 276.00 L 451.00 260.00 L 477.00 232.00 L 501.00 213.00 L 523.00 203.00 L 561.00 193.00 L 615.00 183.00 L 659.00 183.00 L 693.00 193.00 L 732.00 199.00 L 776.00 201.00 L 817.00 211.00 L 855.00 229.00 L 904.00 264.00 L 964.00 316.00 L 1000.00 354.00 L 1012.00 378.00 L 1024.00 396.00 L 1036.00 408.00 L 1041.00 422.00 L 1039.00 438.00 L 1041.00 441.00 L 1047.00 431.00 L 1048.00 433.00 L 1044.00 447.00 L 1046.00 449.00 L 1054.00 439.00 L 1054.00 441.00 L 1046.00 455.00 L 1047.00 458.00 L 1057.00 450.00 L 1058.00 453.00 L 1050.00 467.00 L 1050.00 469.00 L 1058.00 459.00 L 1058.00 463.00 L 1050.00 481.00 L 1050.00 484.00 L 1058.00 472.00 L 1059.00 473.00 L 1053.00 487.00 L 1050.00 496.00 L 1050.00 500.00 L 1053.00 498.00 L 1059.00 490.00 L 1059.00 492.00 L 1053.00 504.00 L 1053.00 507.00 L 1059.00 501.00 L 1058.00 530.00 L 1050.00 594.00 L 1050.00 635.00 L 1058.00 653.00 L 1073.00 672.00 L 1095.00 692.00 L 1107.00 705.00 L 1109.00 711.00 L 1109.00 719.00 L 1107.00 729.00 L 1097.00 741.00 L 1079.00 755.00 L 1078.00 757.00 L 1094.00 747.00 L 1093.00 750.00 L 1075.00 766.00 L 1070.00 781.00 L 1078.00 795.00 L 1080.00 809.00 L 1076.00 823.00 L 1075.00 835.00 L 1077.00 845.00 L 1072.00 856.00 L 1060.00 868.00 L 1058.00 886.00 L 1066.00 910.00 L 1069.00 930.00 L 1067.00 946.00 L 1062.00 959.00 L 1054.00 969.00 L 1034.00 979.00 L 1002.00 989.00 L 990.00 996.00 L 998.00 1000.00 L 999.00 1002.00 L 993.00 1002.00 L 995.00 1005.00 L 1005.00 1011.00 L 1010.00 1016.00 L 1010.00 1020.00 L 1001.00 1033.00 L 983.00 1055.00 L 979.00 1071.00 L 989.00 1081.00 L 988.00 1084.00 L 976.00 1080.00 L 979.00 1083.00 L 997.00 1093.00 L 996.00 1094.00 L 976.00 1086.00 L 974.00 1089.00 L 990.00 1103.00 L 989.00 1105.00 L 971.00 1095.00 L 973.00 1101.00 L 995.00 1123.00 L 999.00 1130.00 L 985.00 1122.00 L 990.00 1127.00 L 1014.00 1145.00 L 1012.00 1146.00 L 984.00 1130.00 L 996.00 1141.00 L 1048.00 1179.00 L 1064.00 1192.00 L 1044.00 1180.00 L 1042.00 1182.00 L 1058.00 1198.00 L 1057.00 1206.00 L 1039.00 1206.00 L 1019.00 1198.00 L 997.00 1182.00 L 985.00 1176.00 L 983.00 1180.00 L 978.00 1182.00 L 970.00 1182.00 L 979.00 1215.00 L 1005.00 1281.00 L 1034.00 1346.00 L 1066.00 1410.00 L 1088.00 1462.00 L 1100.00 1502.00 L 1109.00 1551.00 L 1115.00 1609.00 L 1116.00 1655.00 L 1112.00 1689.00 L 1105.00 1715.00 L 1095.00 1733.00 L 1085.00 1746.00 L 1075.00 1754.00 L 1059.00 1758.00 L 1037.00 1758.00 L 1006.00 1743.00 L 966.00 1713.00 L 927.00 1687.00 L 889.00 1665.00 L 810.00 1629.00 L 690.00 1579.00 L 601.00 1548.00 L 543.00 1536.00 L 471.00 1528.00 L 385.00 1524.00 L 348.00 1482.00 L 360.00 1402.00 L 381.00 1326.00 L 411.00 1254.00 L 433.00 1194.00 L 447.00 1146.00 L 451.00 1111.00 L 445.00 1089.00 L 443.00 1052.00 L 445.00 1000.00 L 447.00 972.00 L 449.00 968.00 L 452.00 951.00 Z" fill="black" stroke="black" stroke-width="1"/>
</svg>