<?xml version="1.0" encoding="UTF-8"?>
<svg xmlns="http://www.w3.org/2000/svg" viewBox="276.00 303.00 857.00 1489.00">
  <path d="M 364.00 1009.00 L 376.00 927.00 L 373.00 879.00 L 355.00 865.00 L 355.00 862.00 L 373.00 870.00 L 372.00 868.00 L 352.00 856.00 L 331.00 833.00 L 309.00 799.00 L 294.00 762.00 L 286.00 722.00 L 289.00 647.00 L 303.00 537.00 L 319.00 481.00 L 337.00 479.00 L 366.00 454.00 L 406.00 406.00 L 449.00 369.00 L 495.00 343.00 L 537.00 325.00 L 575.00 315.00 L 633.00 313.00 L 711.00 319.00 L 783.00 339.00 L 849.00 373.00 L 896.00 405.00 L 924.00 435.00 L 942.00 463.00 L 950.00 489.00 L 956.00 498.00 L 960.00 490.00 L 962.00 492.00 L 962.00 504.00 L 965.00 506.00 L 971.00 498.00 L 972.00 500.00 L 968.00 512.00 L 969.00 513.00 L 975.00 503.00 L 975.00 506.00 L 969.00 522.00 L 971.00 525.00 L 981.00 515.00 L 982.00 519.00 L 974.00 537.00 L 975.00 541.00 L 985.00 531.00 L 989.00 542.00 L 987.00 574.00 L 991.00 585.00 L 1001.00 575.00 L 1002.00 578.00 L 994.00 594.00 L 995.00 596.00 L 1005.00 584.00 L 1004.00 597.00 L 992.00 635.00 L 1005.00 685.00 L 1043.00 747.00 L 1048.00 792.00 L 1020.00 820.00 L 1016.00 827.00 L 1036.00 813.00 L 1036.00 815.00 L 1016.00 833.00 L 1007.00 861.00 L 1009.00 899.00 L 1004.00 925.00 L 992.00 939.00 L 985.00 966.00 L 983.00 1006.00 L 965.00 1036.00 L 931.00 1056.00 L 923.00 1071.00 L 941.00 1081.00 L 945.00 1100.00 L 935.00 1128.00 L 937.00 1145.00 L 951.00 1151.00 L 950.00 1152.00 L 934.00 1148.00 L 937.00 1153.00 L 959.00 1167.00 L 958.00 1170.00 L 934.00 1162.00 L 934.00 1164.00 L 958.00 1176.00 L 957.00 1179.00 L 931.00 1173.00 L 945.00 1198.00 L 999.00 1254.00 L 1017.00 1276.00 L 999.00 1264.00 L 998.00 1266.00 L 1014.00 1282.00 L 1004.00 1285.00 L 968.00 1275.00 L 989.00 1342.00 L 1067.00 1486.00 L 1111.00 1577.00 L 1121.00 1615.00 L 1123.00 1663.00 L 1117.00 1721.00 L 1105.00 1758.00 L 1087.00 1774.00 L 1063.00 1782.00 L 1033.00 1782.00 L 915.00 1720.00 L 709.00 1596.00 L 567.00 1521.00 L 489.00 1495.00 L 408.00 1477.00 L 324.00 1467.00 L 286.00 1428.00 L 294.00 1360.00 L 341.00 1296.00 L 427.00 1236.00 L 429.00 1231.00 L 347.00 1281.00 L 355.00 1274.00 L 453.00 1210.00 L 454.00 1207.00 L 358.00 1265.00 L 354.00 1266.00 L 442.00 1210.00 L 443.00 1205.00 L 357.00 1251.00 L 359.00 1248.00 L 449.00 1196.00 L 450.00 1194.00 L 362.00 1242.00 L 359.00 1242.00 L 441.00 1194.00 L 442.00 1189.00 L 362.00 1227.00 L 357.00 1228.00 L 427.00 1192.00 L 428.00 1190.00 L 360.00 1222.00 L 358.00 1222.00 L 422.00 1190.00 L 423.00 1188.00 L 361.00 1216.00 L 356.00 1216.00 L 408.00 1188.00 L 409.00 1185.00 L 359.00 1207.00 L 356.00 1208.00 L 400.00 1188.00 L 401.00 1186.00 L 359.00 1202.00 L 354.00 1201.00 L 386.00 1183.00 L 388.00 1179.00 L 360.00 1189.00 L 358.00 1189.00 L 382.00 1179.00 L 383.00 1177.00 L 361.00 1183.00 L 360.00 1182.00 L 380.00 1174.00 L 381.00 1173.00 L 363.00 1179.00 L 361.00 1177.00 L 375.00 1167.00 L 378.00 1163.00 L 370.00 1165.00 L 367.00 1156.00 L 369.00 1136.00 L 377.00 1122.00 L 391.00 1114.00 L 392.00 1111.00 L 380.00 1113.00 L 378.00 1112.00 L 386.00 1108.00 L 385.00 1104.00 L 375.00 1100.00 L 367.00 1088.00 L 361.00 1068.00 L 358.00 1056.00 L 358.00 1052.00 L 364.00 1009.00 Z" fill="black" stroke="black" stroke-width="1"/>
</svg>