<?xml version="1.0" encoding="UTF-8"?>
<svg xmlns="http://www.w3.org/2000/svg" viewBox="334.00 272.00 837.00 1567.00">
  <path d="M 458.00 1051.00 L 458.00 1021.00 L 461.00 991.00 L 467.00 961.00 L 478.00 929.00 L 494.00 895.00 L 501.00 874.00 L 499.00 866.00 L 501.00 864.00 L 507.00 868.00 L 501.00 861.00 L 483.00 843.00 L 457.00 802.00 L 423.00 738.00 L 402.00 693.00 L 394.00 667.00 L 391.00 624.00 L 393.00 564.00 L 401.00 515.00 L 415.00 477.00 L 430.00 444.00 L 446.00 416.00 L 466.00 391.00 L 490.00 369.00 L 520.00 347.00 L 556.00 325.00 L 608.00 306.00 L 676.00 290.00 L 720.00 282.00 L 740.00 282.00 L 779.00 287.00 L 837.00 297.00 L 893.00 317.00 L 947.00 347.00 L 982.00 370.00 L 998.00 386.00 L 1006.00 399.00 L 1006.00 409.00 L 1007.00 411.00 L 1009.00 405.00 L 1010.00 406.00 L 1010.00 414.00 L 1011.00 416.00 L 1013.00 412.00 L 1017.00 412.00 L 1023.00 416.00 L 1025.00 425.00 L 1023.00 439.00 L 1025.00 441.00 L 1031.00 431.00 L 1033.00 434.00 L 1031.00 450.00 L 1033.00 452.00 L 1039.00 440.00 L 1040.00 442.00 L 1036.00 458.00 L 1037.00 460.00 L 1043.00 448.00 L 1045.00 450.00 L 1043.00 466.00 L 1045.00 468.00 L 1051.00 456.00 L 1055.00 451.00 L 1057.00 453.00 L 1055.00 462.00 L 1049.00 478.00 L 1050.00 480.00 L 1058.00 468.00 L 1059.00 471.00 L 1053.00 489.00 L 1054.00 490.00 L 1062.00 474.00 L 1064.00 472.00 L 1060.00 484.00 L 1061.00 486.00 L 1067.00 478.00 L 1067.00 483.00 L 1061.00 501.00 L 1062.00 503.00 L 1070.00 489.00 L 1071.00 493.00 L 1065.00 515.00 L 1066.00 519.00 L 1074.00 505.00 L 1075.00 507.00 L 1069.00 525.00 L 1070.00 554.00 L 1078.00 594.00 L 1083.00 613.00 L 1085.00 611.00 L 1084.00 619.00 L 1080.00 637.00 L 1099.00 678.00 L 1141.00 742.00 L 1161.00 779.00 L 1159.00 789.00 L 1147.00 803.00 L 1125.00 821.00 L 1124.00 824.00 L 1144.00 812.00 L 1142.00 816.00 L 1118.00 836.00 L 1109.00 856.00 L 1115.00 876.00 L 1115.00 891.00 L 1109.00 901.00 L 1106.00 915.00 L 1106.00 933.00 L 1101.00 949.00 L 1091.00 963.00 L 1089.00 976.00 L 1095.00 988.00 L 1097.00 1007.00 L 1095.00 1033.00 L 1091.00 1049.00 L 1085.00 1055.00 L 1069.00 1063.00 L 1043.00 1073.00 L 1033.00 1081.00 L 1039.00 1087.00 L 1042.00 1094.00 L 1042.00 1102.00 L 1028.00 1128.00 L 1000.00 1172.00 L 986.00 1198.00 L 986.00 1206.00 L 999.00 1220.00 L 1025.00 1240.00 L 1027.00 1242.00 L 1005.00 1226.00 L 1003.00 1225.00 L 1021.00 1239.00 L 1028.00 1245.00 L 1024.00 1243.00 L 1029.00 1248.00 L 1043.00 1260.00 L 1039.00 1258.00 L 1017.00 1242.00 L 1018.00 1245.00 L 1042.00 1267.00 L 1039.00 1266.00 L 1009.00 1242.00 L 1023.00 1255.00 L 1081.00 1305.00 L 1097.00 1320.00 L 1071.00 1300.00 L 1069.00 1303.00 L 1091.00 1329.00 L 1100.00 1343.00 L 1096.00 1345.00 L 1069.00 1324.00 L 1019.00 1280.00 L 1017.00 1280.00 L 1063.00 1324.00 L 1065.00 1327.00 L 1023.00 1289.00 L 1021.00 1289.00 L 1059.00 1327.00 L 1054.00 1323.00 L 1006.00 1277.00 L 1004.00 1276.00 L 1048.00 1320.00 L 1056.00 1329.00 L 1028.00 1303.00 L 1025.00 1302.00 L 1047.00 1326.00 L 1039.00 1319.00 L 1001.00 1281.00 L 998.00 1279.00 L 1030.00 1313.00 L 1031.00 1315.00 L 1001.00 1285.00 L 998.00 1283.00 L 1022.00 1309.00 L 1020.00 1309.00 L 992.00 1283.00 L 985.00 1279.00 L 999.00 1297.00 L 1008.00 1312.00 L 1012.00 1324.00 L 1002.00 1316.00 L 978.00 1288.00 L 979.00 1291.00 L 1005.00 1325.00 L 1035.00 1372.00 L 1069.00 1432.00 L 1097.00 1492.00 L 1119.00 1552.00 L 1136.00 1604.00 L 1148.00 1648.00 L 1154.00 1692.00 L 1154.00 1736.00 L 1150.00 1769.00 L 1142.00 1791.00 L 1134.00 1806.00 L 1126.00 1814.00 L 1114.00 1821.00 L 1098.00 1827.00 L 1082.00 1829.00 L 1066.00 1827.00 L 1045.00 1820.00 L 1019.00 1808.00 L 998.00 1795.00 L 982.00 1781.00 L 940.00 1758.00 L 872.00 1726.00 L 789.00 1693.00 L 691.00 1659.00 L 606.00 1634.00 L 534.00 1618.00 L 478.00 1608.00 L 438.00 1604.00 L 401.00 1603.00 L 367.00 1605.00 L 348.00 1604.00 L 344.00 1600.00 L 349.00 1557.00 L 363.00 1475.00 L 379.00 1408.00 L 397.00 1356.00 L 415.00 1312.00 L 433.00 1276.00 L 445.00 1241.00 L 451.00 1207.00 L 459.00 1180.00 L 469.00 1160.00 L 475.00 1144.00 L 477.00 1132.00 L 473.00 1119.00 L 463.00 1105.00 L 457.00 1093.00 L 455.00 1083.00 L 455.00 1075.00 L 457.00 1069.00 L 458.00 1051.00 Z" fill="black" stroke="black" stroke-width="1"/>
</svg>