<?xml version="1.0" encoding="UTF-8"?>
<svg xmlns="http://www.w3.org/2000/svg" viewBox="257.00 204.00 802.00 1566.00">
  <path d="M 366.00 978.00 L 374.00 926.00 L 384.00 889.00 L 396.00 867.00 L 406.00 854.00 L 414.00 850.00 L 420.00 838.00 L 424.00 818.00 L 417.00 794.00 L 399.00 766.00 L 381.00 743.00 L 363.00 725.00 L 344.00 696.00 L 324.00 656.00 L 310.00 598.00 L 302.00 522.00 L 304.00 463.00 L 316.00 421.00 L 336.00 380.00 L 364.00 340.00 L 392.00 307.00 L 420.00 281.00 L 445.00 262.00 L 467.00 250.00 L 508.00 236.00 L 568.00 220.00 L 609.00 214.00 L 631.00 218.00 L 650.00 219.00 L 666.00 217.00 L 685.00 220.00 L 707.00 228.00 L 726.00 231.00 L 742.00 229.00 L 753.00 236.00 L 759.00 252.00 L 772.00 265.00 L 792.00 275.00 L 806.00 286.00 L 814.00 298.00 L 833.00 315.00 L 863.00 337.00 L 879.00 353.00 L 881.00 363.00 L 883.00 365.00 L 885.00 359.00 L 885.00 360.00 L 883.00 368.00 L 897.00 389.00 L 927.00 423.00 L 950.00 465.00 L 966.00 515.00 L 971.00 552.00 L 965.00 576.00 L 963.00 595.00 L 965.00 609.00 L 969.00 622.00 L 975.00 634.00 L 995.00 655.00 L 1029.00 685.00 L 1046.00 706.00 L 1046.00 718.00 L 1037.00 732.00 L 1019.00 748.00 L 1015.00 752.00 L 1025.00 744.00 L 1026.00 746.00 L 1018.00 758.00 L 1022.00 777.00 L 1038.00 803.00 L 1046.00 820.00 L 1046.00 828.00 L 1040.00 836.00 L 1028.00 844.00 L 1025.00 847.00 L 1031.00 845.00 L 1033.00 848.00 L 1031.00 856.00 L 1032.00 866.00 L 1036.00 878.00 L 1027.00 890.00 L 1005.00 902.00 L 1004.00 905.00 L 1024.00 899.00 L 1021.00 901.00 L 995.00 911.00 L 992.00 913.00 L 1012.00 907.00 L 1012.00 908.00 L 992.00 916.00 L 974.00 937.00 L 958.00 971.00 L 922.00 992.00 L 866.00 1000.00 L 863.00 1003.00 L 913.00 1001.00 L 912.00 1002.00 L 860.00 1006.00 L 854.00 1008.00 L 894.00 1008.00 L 895.00 1009.00 L 857.00 1011.00 L 851.00 1018.00 L 877.00 1030.00 L 890.00 1039.00 L 890.00 1045.00 L 881.00 1056.00 L 863.00 1072.00 L 862.00 1087.00 L 878.00 1101.00 L 876.00 1103.00 L 856.00 1093.00 L 855.00 1096.00 L 873.00 1112.00 L 872.00 1115.00 L 852.00 1105.00 L 841.00 1101.00 L 839.00 1103.00 L 850.00 1112.00 L 874.00 1128.00 L 876.00 1130.00 L 856.00 1118.00 L 874.00 1136.00 L 930.00 1184.00 L 940.00 1195.00 L 904.00 1169.00 L 903.00 1171.00 L 937.00 1201.00 L 935.00 1202.00 L 897.00 1174.00 L 895.00 1174.00 L 929.00 1202.00 L 939.00 1211.00 L 925.00 1201.00 L 922.00 1201.00 L 930.00 1211.00 L 920.00 1205.00 L 892.00 1183.00 L 890.00 1183.00 L 914.00 1205.00 L 918.00 1209.00 L 902.00 1195.00 L 900.00 1196.00 L 912.00 1212.00 L 917.00 1222.00 L 915.00 1226.00 L 906.00 1227.00 L 890.00 1225.00 L 882.00 1228.00 L 882.00 1236.00 L 880.00 1238.00 L 876.00 1234.00 L 878.00 1238.00 L 886.00 1250.00 L 885.00 1250.00 L 875.00 1238.00 L 895.00 1269.00 L 945.00 1343.00 L 971.00 1382.00 L 973.00 1386.00 L 971.00 1384.00 L 965.00 1376.00 L 974.00 1393.00 L 998.00 1435.00 L 998.00 1440.00 L 974.00 1408.00 L 976.00 1413.00 L 1004.00 1455.00 L 1016.00 1474.00 L 1012.00 1470.00 L 1014.00 1475.00 L 1022.00 1489.00 L 1017.00 1483.00 L 999.00 1457.00 L 998.00 1456.00 L 1014.00 1480.00 L 1019.00 1488.00 L 1013.00 1480.00 L 1018.00 1492.00 L 1034.00 1524.00 L 1044.00 1551.00 L 1048.00 1573.00 L 1049.00 1606.00 L 1047.00 1650.00 L 1043.00 1680.00 L 1037.00 1696.00 L 1025.00 1715.00 L 1007.00 1737.00 L 991.00 1751.00 L 977.00 1757.00 L 961.00 1760.00 L 943.00 1760.00 L 923.00 1756.00 L 901.00 1748.00 L 873.00 1735.00 L 839.00 1717.00 L 808.00 1696.00 L 780.00 1672.00 L 692.00 1628.00 L 544.00 1564.00 L 420.00 1524.00 L 320.00 1508.00 L 269.00 1494.00 L 267.00 1482.00 L 272.00 1439.00 L 284.00 1365.00 L 310.00 1267.00 L 350.00 1145.00 L 367.00 1067.00 L 361.00 1033.00 L 359.00 1013.00 L 361.00 1007.00 L 366.00 978.00 Z" fill="black" stroke="black" stroke-width="1"/>
</svg>