<?xml version="1.0" encoding="UTF-8"?>
<svg xmlns="http://www.w3.org/2000/svg" viewBox="296.00 270.00 863.00 1377.00">
  <path d="M 407.00 928.00 L 393.00 924.00 L 398.00 922.00 L 422.00 922.00 L 430.00 921.00 L 422.00 919.00 L 421.00 917.00 L 427.00 915.00 L 419.00 913.00 L 397.00 911.00 L 383.00 894.00 L 377.00 862.00 L 361.00 810.00 L 335.00 738.00 L 318.00 684.00 L 310.00 648.00 L 306.00 610.00 L 306.00 570.00 L 309.00 536.00 L 315.00 508.00 L 326.00 477.00 L 342.00 443.00 L 364.00 410.00 L 392.00 378.00 L 412.00 360.00 L 424.00 356.00 L 438.00 345.00 L 454.00 327.00 L 478.00 313.00 L 510.00 303.00 L 533.00 299.00 L 547.00 301.00 L 563.00 297.00 L 581.00 287.00 L 599.00 283.00 L 617.00 285.00 L 640.00 284.00 L 668.00 280.00 L 688.00 281.00 L 700.00 287.00 L 719.00 290.00 L 745.00 290.00 L 764.00 295.00 L 776.00 305.00 L 791.00 313.00 L 809.00 319.00 L 824.00 328.00 L 836.00 340.00 L 850.00 350.00 L 866.00 358.00 L 878.00 367.00 L 886.00 377.00 L 895.00 384.00 L 905.00 388.00 L 916.00 396.00 L 928.00 408.00 L 936.00 419.00 L 940.00 429.00 L 941.00 439.00 L 939.00 449.00 L 940.00 450.00 L 944.00 442.00 L 944.00 443.00 L 940.00 453.00 L 939.00 457.00 L 941.00 455.00 L 942.00 457.00 L 942.00 463.00 L 945.00 459.00 L 951.00 445.00 L 953.00 443.00 L 951.00 453.00 L 953.00 453.00 L 959.00 443.00 L 959.00 449.00 L 953.00 471.00 L 955.00 472.00 L 965.00 452.00 L 966.00 453.00 L 958.00 475.00 L 959.00 476.00 L 969.00 456.00 L 970.00 458.00 L 962.00 482.00 L 964.00 483.00 L 976.00 461.00 L 977.00 462.00 L 967.00 486.00 L 969.00 488.00 L 983.00 468.00 L 988.00 462.00 L 984.00 470.00 L 985.00 471.00 L 991.00 465.00 L 988.00 474.00 L 976.00 498.00 L 977.00 501.00 L 991.00 483.00 L 992.00 485.00 L 980.00 507.00 L 981.00 509.00 L 995.00 491.00 L 996.00 493.00 L 984.00 515.00 L 983.00 519.00 L 993.00 505.00 L 994.00 508.00 L 986.00 528.00 L 989.00 527.00 L 1003.00 505.00 L 1010.00 497.00 L 1010.00 503.00 L 1004.00 517.00 L 992.00 539.00 L 996.00 537.00 L 1016.00 511.00 L 1017.00 514.00 L 999.00 546.00 L 991.00 563.00 L 993.00 565.00 L 1005.00 550.00 L 1027.00 518.00 L 1027.00 520.00 L 1005.00 556.00 L 1008.00 557.00 L 1036.00 523.00 L 1038.00 525.00 L 1014.00 563.00 L 1007.00 598.00 L 1017.00 630.00 L 1019.00 656.00 L 1013.00 676.00 L 1033.00 716.00 L 1079.00 776.00 L 1103.00 812.00 L 1105.00 824.00 L 1104.00 833.00 L 1100.00 839.00 L 1085.00 848.00 L 1059.00 860.00 L 1048.00 879.00 L 1052.00 905.00 L 1049.00 933.00 L 1039.00 963.00 L 1036.00 993.00 L 1040.00 1023.00 L 1040.00 1044.00 L 1036.00 1056.00 L 1030.00 1066.00 L 1022.00 1074.00 L 1011.00 1080.00 L 997.00 1084.00 L 993.00 1089.00 L 999.00 1095.00 L 1002.00 1101.00 L 1002.00 1107.00 L 996.00 1123.00 L 984.00 1149.00 L 976.00 1180.00 L 972.00 1216.00 L 992.00 1266.00 L 1036.00 1330.00 L 1035.00 1331.00 L 989.00 1269.00 L 989.00 1272.00 L 1035.00 1340.00 L 1034.00 1341.00 L 986.00 1275.00 L 986.00 1277.00 L 1034.00 1347.00 L 1058.00 1385.00 L 1058.00 1391.00 L 1076.00 1423.00 L 1112.00 1481.00 L 1112.00 1484.00 L 1076.00 1432.00 L 1079.00 1439.00 L 1121.00 1505.00 L 1121.00 1507.00 L 1079.00 1445.00 L 1079.00 1447.00 L 1121.00 1513.00 L 1124.00 1519.00 L 1088.00 1465.00 L 1089.00 1468.00 L 1127.00 1528.00 L 1147.00 1566.00 L 1149.00 1582.00 L 1147.00 1597.00 L 1141.00 1611.00 L 1134.00 1622.00 L 1126.00 1630.00 L 1117.00 1635.00 L 1107.00 1637.00 L 1058.00 1610.00 L 970.00 1554.00 L 897.00 1511.00 L 839.00 1481.00 L 787.00 1457.00 L 741.00 1439.00 L 695.00 1427.00 L 649.00 1421.00 L 593.00 1421.00 L 527.00 1427.00 L 481.00 1428.00 L 455.00 1424.00 L 428.00 1415.00 L 400.00 1401.00 L 381.00 1385.00 L 371.00 1367.00 L 366.00 1347.00 L 366.00 1325.00 L 371.00 1290.00 L 381.00 1242.00 L 389.00 1212.00 L 395.00 1200.00 L 398.00 1188.00 L 398.00 1176.00 L 404.00 1159.00 L 416.00 1137.00 L 417.00 1113.00 L 407.00 1087.00 L 404.00 1071.00 L 408.00 1065.00 L 414.00 1032.00 L 422.00 972.00 L 419.00 941.00 L 405.00 939.00 L 407.00 937.00 L 425.00 935.00 L 425.00 934.00 L 407.00 934.00 L 402.00 933.00 L 410.00 931.00 L 407.00 928.00 Z" fill="black" stroke="black" stroke-width="1"/>
</svg>