<?xml version="1.0" encoding="UTF-8"?>
<svg xmlns="http://www.w3.org/2000/svg" viewBox="295.00 201.00 822.00 1559.00">
  <path d="M 519.00 904.00 L 525.00 848.00 L 493.00 798.00 L 423.00 754.00 L 396.00 737.00 L 412.00 747.00 L 410.00 745.00 L 390.00 731.00 L 393.00 732.00 L 419.00 748.00 L 415.00 745.00 L 381.00 723.00 L 383.00 723.00 L 421.00 745.00 L 418.00 741.00 L 374.00 711.00 L 386.00 718.00 L 454.00 762.00 L 452.00 759.00 L 380.00 709.00 L 390.00 715.00 L 482.00 777.00 L 478.00 772.00 L 378.00 700.00 L 377.00 698.00 L 475.00 766.00 L 473.00 763.00 L 371.00 689.00 L 316.00 644.00 L 308.00 628.00 L 305.00 588.00 L 307.00 524.00 L 312.00 480.00 L 320.00 456.00 L 335.00 430.00 L 357.00 402.00 L 370.00 360.00 L 374.00 304.00 L 386.00 280.00 L 406.00 288.00 L 432.00 274.00 L 464.00 238.00 L 496.00 217.00 L 528.00 211.00 L 549.00 223.00 L 559.00 253.00 L 563.00 256.00 L 561.00 232.00 L 564.00 232.00 L 572.00 256.00 L 575.00 261.00 L 573.00 247.00 L 576.00 247.00 L 584.00 261.00 L 614.00 266.00 L 666.00 262.00 L 720.00 265.00 L 776.00 275.00 L 838.00 295.00 L 906.00 325.00 L 959.00 355.00 L 997.00 385.00 L 1023.00 408.00 L 1037.00 424.00 L 1043.00 442.00 L 1041.00 462.00 L 1043.00 468.00 L 1049.00 460.00 L 1049.00 462.00 L 1043.00 474.00 L 1044.00 489.00 L 1052.00 507.00 L 1054.00 539.00 L 1050.00 585.00 L 1063.00 637.00 L 1093.00 695.00 L 1107.00 734.00 L 1105.00 754.00 L 1093.00 771.00 L 1071.00 785.00 L 1071.00 788.00 L 1093.00 780.00 L 1093.00 782.00 L 1071.00 794.00 L 1061.00 807.00 L 1063.00 821.00 L 1057.00 844.00 L 1043.00 876.00 L 1039.00 903.00 L 1045.00 925.00 L 1046.00 944.00 L 1042.00 960.00 L 1030.00 974.00 L 1010.00 986.00 L 973.00 997.00 L 919.00 1007.00 L 882.00 1023.00 L 862.00 1045.00 L 847.00 1068.00 L 837.00 1092.00 L 893.00 1202.00 L 1015.00 1398.00 L 1014.00 1400.00 L 890.00 1208.00 L 892.00 1212.00 L 1020.00 1412.00 L 1053.00 1465.00 L 991.00 1371.00 L 992.00 1375.00 L 1056.00 1477.00 L 1053.00 1474.00 L 983.00 1366.00 L 983.00 1369.00 L 1053.00 1483.00 L 1023.00 1435.00 L 893.00 1225.00 L 894.00 1228.00 L 1026.00 1444.00 L 1052.00 1487.00 L 972.00 1357.00 L 972.00 1359.00 L 1052.00 1493.00 L 1050.00 1491.00 L 966.00 1353.00 L 966.00 1355.00 L 1050.00 1497.00 L 1048.00 1495.00 L 960.00 1349.00 L 961.00 1352.00 L 1051.00 1504.00 L 1048.00 1500.00 L 952.00 1340.00 L 952.00 1342.00 L 1048.00 1506.00 L 1047.00 1505.00 L 949.00 1339.00 L 949.00 1342.00 L 1047.00 1514.00 L 1045.00 1512.00 L 943.00 1336.00 L 943.00 1339.00 L 1045.00 1521.00 L 1028.00 1492.00 L 892.00 1252.00 L 892.00 1255.00 L 1028.00 1501.00 L 1028.00 1502.00 L 892.00 1258.00 L 891.00 1260.00 L 1025.00 1508.00 L 1092.00 1635.00 L 1092.00 1641.00 L 1037.00 1542.00 L 927.00 1338.00 L 926.00 1340.00 L 1034.00 1548.00 L 1022.00 1526.00 L 890.00 1274.00 L 889.00 1276.00 L 1019.00 1532.00 L 1027.00 1549.00 L 913.00 1327.00 L 910.00 1331.00 L 1018.00 1561.00 L 1009.00 1546.00 L 883.00 1286.00 L 881.00 1288.00 L 1003.00 1552.00 L 1007.00 1563.00 L 893.00 1321.00 L 892.00 1323.00 L 1004.00 1569.00 L 1043.00 1705.00 L 1009.00 1731.00 L 987.00 1746.00 L 977.00 1750.00 L 966.00 1750.00 L 954.00 1746.00 L 888.00 1693.00 L 768.00 1591.00 L 676.00 1519.00 L 612.00 1477.00 L 549.00 1439.00 L 487.00 1405.00 L 424.00 1378.00 L 360.00 1358.00 L 326.00 1345.00 L 322.00 1339.00 L 332.00 1304.00 L 356.00 1240.00 L 395.00 1159.00 L 449.00 1061.00 L 477.00 1003.00 L 479.00 985.00 L 488.00 973.00 L 504.00 967.00 L 507.00 964.00 L 497.00 964.00 L 497.00 959.00 L 507.00 949.00 L 513.00 941.00 L 515.00 935.00 L 519.00 904.00 Z" fill="black" stroke="black" stroke-width="1"/>
</svg>