<?xml version="1.0" encoding="UTF-8"?>
<svg xmlns="http://www.w3.org/2000/svg" viewBox="347.00 258.00 828.00 1463.00">
  <path d="M 504.00 947.00 L 516.00 901.00 L 526.00 872.00 L 534.00 860.00 L 526.00 831.00 L 502.00 785.00 L 481.00 739.00 L 463.00 693.00 L 452.00 663.00 L 448.00 649.00 L 446.00 626.00 L 446.00 594.00 L 447.00 563.00 L 449.00 533.00 L 455.00 502.00 L 465.00 470.00 L 483.00 427.00 L 509.00 373.00 L 531.00 338.00 L 549.00 322.00 L 571.00 307.00 L 597.00 293.00 L 636.00 281.00 L 688.00 271.00 L 743.00 268.00 L 801.00 272.00 L 840.00 277.00 L 860.00 283.00 L 886.00 295.00 L 918.00 313.00 L 959.00 350.00 L 1009.00 406.00 L 1034.00 440.00 L 1034.00 452.00 L 1036.00 455.00 L 1040.00 449.00 L 1041.00 451.00 L 1039.00 461.00 L 1040.00 462.00 L 1044.00 454.00 L 1047.00 451.00 L 1049.00 453.00 L 1048.00 462.00 L 1044.00 478.00 L 1045.00 480.00 L 1051.00 468.00 L 1053.00 468.00 L 1051.00 480.00 L 1052.00 482.00 L 1056.00 474.00 L 1056.00 476.00 L 1052.00 488.00 L 1052.00 491.00 L 1056.00 485.00 L 1056.00 489.00 L 1052.00 503.00 L 1053.00 507.00 L 1059.00 501.00 L 1060.00 503.00 L 1056.00 513.00 L 1056.00 517.00 L 1060.00 515.00 L 1061.00 518.00 L 1059.00 526.00 L 1061.00 525.00 L 1067.00 515.00 L 1069.00 514.00 L 1067.00 522.00 L 1068.00 523.00 L 1072.00 517.00 L 1071.00 521.00 L 1065.00 535.00 L 1066.00 537.00 L 1074.00 527.00 L 1075.00 530.00 L 1069.00 546.00 L 1070.00 548.00 L 1078.00 536.00 L 1079.00 537.00 L 1073.00 551.00 L 1073.00 553.00 L 1079.00 543.00 L 1080.00 546.00 L 1076.00 562.00 L 1074.00 591.00 L 1074.00 633.00 L 1091.00 676.00 L 1125.00 720.00 L 1142.00 744.00 L 1142.00 748.00 L 1127.00 763.00 L 1097.00 789.00 L 1097.00 792.00 L 1127.00 772.00 L 1132.00 770.00 L 1112.00 786.00 L 1111.00 789.00 L 1129.00 779.00 L 1124.00 783.00 L 1096.00 801.00 L 1094.00 803.00 L 1118.00 789.00 L 1118.00 791.00 L 1094.00 809.00 L 1083.00 826.00 L 1085.00 842.00 L 1083.00 859.00 L 1077.00 877.00 L 1069.00 892.00 L 1059.00 904.00 L 1056.00 916.00 L 1060.00 928.00 L 1061.00 943.00 L 1059.00 961.00 L 1054.00 975.00 L 1046.00 985.00 L 1033.00 995.00 L 1015.00 1005.00 L 1009.00 1015.00 L 1015.00 1025.00 L 1012.00 1036.00 L 1000.00 1048.00 L 999.00 1058.00 L 1009.00 1066.00 L 1008.00 1068.00 L 996.00 1064.00 L 997.00 1067.00 L 1011.00 1077.00 L 1017.00 1086.00 L 1015.00 1094.00 L 1010.00 1100.00 L 1002.00 1104.00 L 1020.00 1126.00 L 1064.00 1166.00 L 1064.00 1169.00 L 1020.00 1135.00 L 1022.00 1138.00 L 1070.00 1178.00 L 1072.00 1181.00 L 1028.00 1147.00 L 1029.00 1149.00 L 1075.00 1187.00 L 1077.00 1189.00 L 1035.00 1155.00 L 1035.00 1157.00 L 1077.00 1195.00 L 1096.00 1217.00 L 1092.00 1223.00 L 1092.00 1229.00 L 1096.00 1235.00 L 1096.00 1237.00 L 1092.00 1235.00 L 1093.00 1237.00 L 1099.00 1243.00 L 1098.00 1243.00 L 1090.00 1237.00 L 1093.00 1241.00 L 1107.00 1255.00 L 1119.00 1276.00 L 1129.00 1304.00 L 1130.00 1314.00 L 1122.00 1306.00 L 1125.00 1311.00 L 1139.00 1329.00 L 1145.00 1337.00 L 1143.00 1335.00 L 1143.00 1337.00 L 1145.00 1343.00 L 1138.00 1338.00 L 1122.00 1322.00 L 1123.00 1325.00 L 1141.00 1347.00 L 1149.00 1357.00 L 1147.00 1355.00 L 1148.00 1361.00 L 1152.00 1375.00 L 1149.00 1386.00 L 1139.00 1394.00 L 1141.00 1411.00 L 1155.00 1437.00 L 1153.00 1438.00 L 1135.00 1414.00 L 1136.00 1418.00 L 1156.00 1450.00 L 1165.00 1465.00 L 1163.00 1463.00 L 1163.00 1465.00 L 1165.00 1471.00 L 1162.00 1478.00 L 1154.00 1486.00 L 1141.00 1487.00 L 1123.00 1481.00 L 1113.00 1480.00 L 1111.00 1484.00 L 1113.00 1494.00 L 1119.00 1510.00 L 1123.00 1535.00 L 1125.00 1569.00 L 1120.00 1606.00 L 1108.00 1646.00 L 1093.00 1675.00 L 1075.00 1693.00 L 1056.00 1705.00 L 1036.00 1711.00 L 1013.00 1711.00 L 987.00 1705.00 L 941.00 1679.00 L 875.00 1633.00 L 818.00 1589.00 L 770.00 1547.00 L 715.00 1505.00 L 653.00 1463.00 L 589.00 1427.00 L 523.00 1397.00 L 459.00 1373.00 L 397.00 1355.00 L 363.00 1343.00 L 357.00 1337.00 L 369.00 1301.00 L 399.00 1235.00 L 427.00 1182.00 L 453.00 1142.00 L 472.00 1108.00 L 484.00 1080.00 L 489.00 1052.00 L 487.00 1024.00 L 488.00 1002.00 L 492.00 986.00 L 495.00 976.00 L 497.00 972.00 L 504.00 947.00 Z" fill="black" stroke="black" stroke-width="1"/>
</svg>