<?xml version="1.0" encoding="UTF-8"?>
<svg xmlns="http://www.w3.org/2000/svg" viewBox="288.00 239.00 959.00 1283.00">
  <path d="M 398.00 866.00 L 366.00 818.00 L 340.00 769.00 L 320.00 719.00 L 307.00 672.00 L 301.00 628.00 L 298.00 584.00 L 298.00 540.00 L 301.00 504.00 L 307.00 476.00 L 318.00 444.00 L 334.00 408.00 L 361.00 371.00 L 399.00 333.00 L 440.00 302.00 L 484.00 278.00 L 533.00 261.00 L 587.00 251.00 L 638.00 249.00 L 686.00 255.00 L 731.00 258.00 L 773.00 258.00 L 814.00 262.00 L 854.00 270.00 L 897.00 283.00 L 943.00 301.00 L 976.00 318.00 L 996.00 334.00 L 1021.00 357.00 L 1051.00 387.00 L 1074.00 414.00 L 1090.00 438.00 L 1091.00 460.00 L 1077.00 480.00 L 1078.00 483.00 L 1094.00 469.00 L 1095.00 472.00 L 1081.00 492.00 L 1081.00 494.00 L 1095.00 478.00 L 1096.00 480.00 L 1084.00 500.00 L 1085.00 502.00 L 1099.00 486.00 L 1102.00 484.00 L 1094.00 496.00 L 1094.00 499.00 L 1102.00 493.00 L 1100.00 497.00 L 1088.00 511.00 L 1088.00 513.00 L 1100.00 503.00 L 1101.00 506.00 L 1091.00 522.00 L 1091.00 525.00 L 1101.00 515.00 L 1102.00 517.00 L 1094.00 531.00 L 1095.00 533.00 L 1105.00 523.00 L 1106.00 526.00 L 1098.00 542.00 L 1103.00 576.00 L 1121.00 628.00 L 1130.00 663.00 L 1130.00 681.00 L 1127.00 696.00 L 1121.00 708.00 L 1119.00 719.00 L 1121.00 729.00 L 1149.00 762.00 L 1203.00 818.00 L 1232.00 852.00 L 1236.00 864.00 L 1237.00 875.00 L 1235.00 885.00 L 1231.00 893.00 L 1225.00 899.00 L 1212.00 906.00 L 1192.00 914.00 L 1180.00 921.00 L 1176.00 927.00 L 1173.00 935.00 L 1171.00 945.00 L 1173.00 955.00 L 1179.00 965.00 L 1181.00 975.00 L 1179.00 985.00 L 1175.00 992.00 L 1169.00 996.00 L 1168.00 1005.00 L 1172.00 1019.00 L 1166.00 1034.00 L 1150.00 1050.00 L 1143.00 1073.00 L 1145.00 1103.00 L 1143.00 1124.00 L 1137.00 1136.00 L 1126.00 1150.00 L 1110.00 1166.00 L 1087.00 1179.00 L 1057.00 1189.00 L 1047.00 1199.00 L 1057.00 1209.00 L 1058.00 1211.00 L 1050.00 1205.00 L 1049.00 1207.00 L 1055.00 1217.00 L 1051.00 1237.00 L 1037.00 1267.00 L 1036.00 1293.00 L 1048.00 1315.00 L 1047.00 1318.00 L 1033.00 1302.00 L 1032.00 1305.00 L 1044.00 1327.00 L 1043.00 1331.00 L 1029.00 1317.00 L 1027.00 1318.00 L 1037.00 1334.00 L 1036.00 1335.00 L 1024.00 1321.00 L 1022.00 1320.00 L 1030.00 1332.00 L 1030.00 1333.00 L 1022.00 1323.00 L 1021.00 1327.00 L 1027.00 1345.00 L 1024.00 1362.00 L 1012.00 1378.00 L 987.00 1388.00 L 949.00 1392.00 L 924.00 1399.00 L 912.00 1409.00 L 889.00 1416.00 L 855.00 1420.00 L 834.00 1425.00 L 826.00 1431.00 L 807.00 1430.00 L 777.00 1422.00 L 759.00 1420.00 L 753.00 1424.00 L 747.00 1424.00 L 741.00 1420.00 L 728.00 1418.00 L 708.00 1418.00 L 694.00 1421.00 L 686.00 1427.00 L 677.00 1429.00 L 667.00 1427.00 L 657.00 1429.00 L 647.00 1435.00 L 634.00 1438.00 L 618.00 1438.00 L 600.00 1442.00 L 580.00 1450.00 L 565.00 1468.00 L 555.00 1496.00 L 553.00 1496.00 L 559.00 1468.00 L 557.00 1468.00 L 547.00 1496.00 L 545.00 1497.00 L 551.00 1471.00 L 549.00 1470.00 L 539.00 1494.00 L 537.00 1495.00 L 543.00 1473.00 L 541.00 1473.00 L 531.00 1495.00 L 490.00 1508.00 L 418.00 1512.00 L 374.00 1509.00 L 358.00 1499.00 L 348.00 1491.00 L 344.00 1485.00 L 342.00 1476.00 L 342.00 1464.00 L 346.00 1436.00 L 354.00 1392.00 L 368.00 1343.00 L 388.00 1289.00 L 396.00 1254.00 L 392.00 1238.00 L 398.00 1194.00 L 414.00 1122.00 L 415.00 1089.00 L 401.00 1095.00 L 405.00 1091.00 L 427.00 1077.00 L 425.00 1076.00 L 399.00 1088.00 L 398.00 1086.00 L 422.00 1070.00 L 420.00 1067.00 L 392.00 1077.00 L 376.00 1079.00 L 372.00 1073.00 L 375.00 1051.00 L 385.00 1013.00 L 397.00 986.00 L 411.00 970.00 L 420.00 956.00 L 424.00 944.00 L 424.00 929.00 L 420.00 911.00 L 417.00 899.00 L 415.00 893.00 L 398.00 866.00 Z" fill="black" stroke="black" stroke-width="1"/>
</svg>