<?xml version="1.0" encoding="UTF-8"?>
<svg xmlns="http://www.w3.org/2000/svg" viewBox="261.00 189.00 905.00 1612.00">
  <path d="M 391.00 961.00 L 401.00 903.00 L 413.00 859.00 L 427.00 829.00 L 432.00 809.00 L 428.00 799.00 L 430.00 796.00 L 438.00 800.00 L 431.00 793.00 L 409.00 775.00 L 406.00 771.00 L 422.00 781.00 L 422.00 779.00 L 406.00 765.00 L 395.00 749.00 L 389.00 731.00 L 374.00 703.00 L 350.00 665.00 L 334.00 632.00 L 326.00 604.00 L 322.00 580.00 L 322.00 560.00 L 326.00 528.00 L 334.00 484.00 L 354.00 431.00 L 386.00 369.00 L 415.00 325.00 L 441.00 299.00 L 468.00 277.00 L 496.00 259.00 L 522.00 247.00 L 546.00 241.00 L 559.00 236.00 L 561.00 232.00 L 563.00 233.00 L 565.00 239.00 L 567.00 238.00 L 569.00 230.00 L 587.00 222.00 L 621.00 214.00 L 661.00 207.00 L 707.00 201.00 L 747.00 199.00 L 781.00 201.00 L 813.00 205.00 L 843.00 211.00 L 877.00 223.00 L 915.00 241.00 L 953.00 266.00 L 991.00 298.00 L 1019.00 325.00 L 1037.00 347.00 L 1060.00 398.00 L 1088.00 478.00 L 1100.00 543.00 L 1096.00 593.00 L 1109.00 648.00 L 1139.00 708.00 L 1153.00 743.00 L 1151.00 753.00 L 1139.00 766.00 L 1117.00 782.00 L 1115.00 785.00 L 1133.00 775.00 L 1132.00 778.00 L 1112.00 794.00 L 1103.00 811.00 L 1105.00 829.00 L 1096.00 856.00 L 1076.00 892.00 L 1069.00 918.00 L 1075.00 934.00 L 1077.00 951.00 L 1075.00 969.00 L 1067.00 986.00 L 1053.00 1002.00 L 1040.00 1013.00 L 1028.00 1019.00 L 1025.00 1029.00 L 1031.00 1043.00 L 1028.00 1056.00 L 1016.00 1068.00 L 1018.00 1077.00 L 1034.00 1083.00 L 1036.00 1086.00 L 1024.00 1086.00 L 1025.00 1089.00 L 1039.00 1095.00 L 1036.00 1095.00 L 1016.00 1089.00 L 1017.00 1091.00 L 1039.00 1101.00 L 1038.00 1103.00 L 1014.00 1097.00 L 1014.00 1099.00 L 1038.00 1109.00 L 1037.00 1109.00 L 1011.00 1099.00 L 1012.00 1102.00 L 1040.00 1118.00 L 1049.00 1130.00 L 1039.00 1138.00 L 1025.00 1143.00 L 1007.00 1145.00 L 1013.00 1159.00 L 1043.00 1185.00 L 1061.00 1206.00 L 1067.00 1222.00 L 1069.00 1235.00 L 1067.00 1245.00 L 1053.00 1241.00 L 1027.00 1223.00 L 1027.00 1225.00 L 1053.00 1247.00 L 1053.00 1249.00 L 1027.00 1231.00 L 1026.00 1234.00 L 1050.00 1258.00 L 1056.00 1265.00 L 1044.00 1255.00 L 1044.00 1257.00 L 1056.00 1271.00 L 1052.00 1269.00 L 1032.00 1251.00 L 1026.00 1247.00 L 1034.00 1257.00 L 1034.00 1260.00 L 1026.00 1256.00 L 1031.00 1263.00 L 1049.00 1281.00 L 1050.00 1284.00 L 1034.00 1272.00 L 1033.00 1274.00 L 1047.00 1290.00 L 1048.00 1293.00 L 1036.00 1283.00 L 1035.00 1284.00 L 1045.00 1296.00 L 1046.00 1298.00 L 1038.00 1290.00 L 1048.00 1309.00 L 1076.00 1355.00 L 1088.00 1376.00 L 1084.00 1372.00 L 1091.00 1388.00 L 1109.00 1424.00 L 1126.00 1472.00 L 1142.00 1532.00 L 1152.00 1590.00 L 1156.00 1646.00 L 1153.00 1691.00 L 1143.00 1725.00 L 1131.00 1751.00 L 1117.00 1769.00 L 1100.00 1782.00 L 1080.00 1790.00 L 1055.00 1791.00 L 1025.00 1785.00 L 987.00 1769.00 L 941.00 1743.00 L 882.00 1702.00 L 810.00 1646.00 L 707.00 1579.00 L 573.00 1501.00 L 474.00 1451.00 L 410.00 1429.00 L 367.00 1415.00 L 345.00 1409.00 L 332.00 1407.00 L 328.00 1409.00 L 325.00 1408.00 L 323.00 1404.00 L 316.00 1403.00 L 304.00 1405.00 L 289.00 1403.00 L 271.00 1397.00 L 276.00 1351.00 L 304.00 1265.00 L 329.00 1203.00 L 351.00 1165.00 L 364.00 1133.00 L 368.00 1107.00 L 376.00 1086.00 L 388.00 1070.00 L 391.00 1050.00 L 385.00 1026.00 L 383.00 1011.00 L 385.00 1005.00 L 386.00 999.00 L 386.00 993.00 L 391.00 961.00 Z" fill="black" stroke="black" stroke-width="1"/>
</svg>