<?xml version="1.0" encoding="UTF-8"?>
<svg xmlns="http://www.w3.org/2000/svg" viewBox="328.00 320.00 871.00 1461.00">
  <path d="M 598.00 1005.00 L 606.00 971.00 L 572.00 939.00 L 496.00 909.00 L 495.00 908.00 L 569.00 936.00 L 563.00 933.00 L 477.00 899.00 L 437.00 883.00 L 443.00 885.00 L 441.00 884.00 L 431.00 880.00 L 443.00 884.00 L 477.00 896.00 L 474.00 893.00 L 434.00 875.00 L 460.00 885.00 L 552.00 923.00 L 549.00 921.00 L 451.00 879.00 L 401.00 857.00 L 399.00 855.00 L 445.00 874.00 L 539.00 914.00 L 538.00 913.00 L 442.00 871.00 L 428.00 864.00 L 496.00 892.00 L 495.00 890.00 L 425.00 858.00 L 387.00 839.00 L 381.00 833.00 L 428.00 853.00 L 528.00 899.00 L 527.00 897.00 L 425.00 847.00 L 373.00 821.00 L 371.00 819.00 L 414.00 839.00 L 502.00 881.00 L 500.00 878.00 L 408.00 830.00 L 414.00 832.00 L 518.00 884.00 L 517.00 882.00 L 411.00 826.00 L 357.00 795.00 L 355.00 789.00 L 407.00 814.00 L 513.00 870.00 L 512.00 867.00 L 404.00 805.00 L 347.00 762.00 L 341.00 738.00 L 338.00 708.00 L 338.00 672.00 L 343.00 629.00 L 353.00 579.00 L 360.00 547.00 L 364.00 533.00 L 378.00 507.00 L 402.00 469.00 L 420.00 445.00 L 432.00 435.00 L 459.00 420.00 L 501.00 400.00 L 533.00 389.00 L 555.00 387.00 L 573.00 379.00 L 587.00 365.00 L 611.00 351.00 L 645.00 337.00 L 671.00 330.00 L 689.00 330.00 L 709.00 333.00 L 731.00 339.00 L 746.00 341.00 L 754.00 339.00 L 759.00 352.00 L 761.00 380.00 L 764.00 394.00 L 768.00 394.00 L 770.00 380.00 L 770.00 352.00 L 773.00 353.00 L 779.00 383.00 L 783.00 383.00 L 785.00 353.00 L 787.00 354.00 L 789.00 386.00 L 791.00 387.00 L 793.00 357.00 L 795.00 357.00 L 797.00 387.00 L 800.00 388.00 L 804.00 360.00 L 807.00 360.00 L 809.00 388.00 L 811.00 390.00 L 813.00 366.00 L 815.00 367.00 L 817.00 393.00 L 835.00 411.00 L 869.00 421.00 L 922.00 450.00 L 994.00 498.00 L 1055.00 554.00 L 1105.00 618.00 L 1125.00 656.00 L 1115.00 668.00 L 1113.00 671.00 L 1119.00 665.00 L 1118.00 670.00 L 1110.00 686.00 L 1105.00 707.00 L 1103.00 733.00 L 1109.00 759.00 L 1123.00 785.00 L 1141.00 808.00 L 1163.00 828.00 L 1174.00 844.00 L 1174.00 856.00 L 1165.00 872.00 L 1147.00 892.00 L 1141.00 910.00 L 1147.00 926.00 L 1147.00 943.00 L 1141.00 961.00 L 1141.00 976.00 L 1147.00 988.00 L 1140.00 1004.00 L 1120.00 1024.00 L 1108.00 1045.00 L 1104.00 1067.00 L 1095.00 1085.00 L 1081.00 1099.00 L 1060.00 1110.00 L 1032.00 1118.00 L 999.00 1121.00 L 961.00 1119.00 L 932.00 1129.00 L 912.00 1151.00 L 964.00 1246.00 L 1088.00 1414.00 L 1087.00 1415.00 L 961.00 1249.00 L 965.00 1255.00 L 1099.00 1433.00 L 1132.00 1478.00 L 1064.00 1390.00 L 1065.00 1393.00 L 1135.00 1487.00 L 1131.00 1482.00 L 1053.00 1378.00 L 1055.00 1382.00 L 1137.00 1494.00 L 1135.00 1492.00 L 1049.00 1376.00 L 1050.00 1378.00 L 1138.00 1498.00 L 1136.00 1496.00 L 1044.00 1372.00 L 1045.00 1375.00 L 1139.00 1505.00 L 1138.00 1504.00 L 1042.00 1372.00 L 1043.00 1375.00 L 1141.00 1513.00 L 1139.00 1511.00 L 1037.00 1369.00 L 1038.00 1372.00 L 1142.00 1520.00 L 1140.00 1518.00 L 1032.00 1366.00 L 1032.00 1368.00 L 1140.00 1524.00 L 1119.00 1495.00 L 969.00 1281.00 L 969.00 1283.00 L 1119.00 1501.00 L 1136.00 1526.00 L 1020.00 1358.00 L 1021.00 1360.00 L 1139.00 1532.00 L 1136.00 1528.00 L 1012.00 1348.00 L 1012.00 1351.00 L 1136.00 1537.00 L 1134.00 1535.00 L 1006.00 1345.00 L 1006.00 1347.00 L 1134.00 1541.00 L 1131.00 1538.00 L 997.00 1338.00 L 996.00 1342.00 L 1128.00 1550.00 L 1125.00 1547.00 L 987.00 1333.00 L 987.00 1335.00 L 1125.00 1553.00 L 1118.00 1542.00 L 966.00 1302.00 L 965.00 1305.00 L 1115.00 1551.00 L 1189.00 1676.00 L 1187.00 1680.00 L 1111.00 1558.00 L 961.00 1310.00 L 960.00 1312.00 L 1108.00 1564.00 L 1180.00 1693.00 L 1176.00 1699.00 L 1102.00 1575.00 L 958.00 1321.00 L 956.00 1324.00 L 1096.00 1584.00 L 1161.00 1719.00 L 1151.00 1729.00 L 1134.00 1741.00 L 1110.00 1755.00 L 1088.00 1765.00 L 1068.00 1771.00 L 1020.00 1740.00 L 944.00 1672.00 L 865.00 1610.00 L 783.00 1554.00 L 694.00 1502.00 L 598.00 1454.00 L 516.00 1420.00 L 448.00 1400.00 L 429.00 1357.00 L 459.00 1291.00 L 493.00 1224.00 L 531.00 1156.00 L 555.00 1107.00 L 565.00 1077.00 L 576.00 1054.00 L 588.00 1038.00 L 594.00 1028.00 L 594.00 1024.00 L 598.00 1005.00 Z" fill="black" stroke="black" stroke-width="1"/>
</svg>