<?xml version="1.0" encoding="UTF-8"?>
<svg xmlns="http://www.w3.org/2000/svg" viewBox="422.00 456.00 774.00 1326.00">
  <path d="M 635.00 1069.00 L 637.00 1035.00 L 600.00 989.00 L 524.00 931.00 L 498.00 907.00 L 522.00 917.00 L 517.00 912.00 L 483.00 892.00 L 459.00 870.00 L 445.00 846.00 L 436.00 802.00 L 432.00 738.00 L 436.00 688.00 L 448.00 652.00 L 484.00 594.00 L 544.00 514.00 L 579.00 481.00 L 589.00 495.00 L 606.00 491.00 L 630.00 469.00 L 649.00 468.00 L 663.00 488.00 L 667.00 488.00 L 661.00 468.00 L 662.00 467.00 L 670.00 485.00 L 672.00 485.00 L 668.00 467.00 L 670.00 466.00 L 678.00 482.00 L 681.00 486.00 L 679.00 478.00 L 681.00 478.00 L 687.00 486.00 L 728.00 486.00 L 804.00 478.00 L 864.00 479.00 L 908.00 489.00 L 951.00 505.00 L 993.00 527.00 L 1029.00 553.00 L 1059.00 583.00 L 1075.00 606.00 L 1077.00 622.00 L 1082.00 628.00 L 1090.00 624.00 L 1091.00 628.00 L 1085.00 640.00 L 1086.00 641.00 L 1094.00 631.00 L 1095.00 633.00 L 1089.00 647.00 L 1091.00 649.00 L 1101.00 639.00 L 1102.00 642.00 L 1094.00 658.00 L 1095.00 661.00 L 1105.00 651.00 L 1106.00 654.00 L 1098.00 670.00 L 1099.00 672.00 L 1109.00 660.00 L 1110.00 663.00 L 1102.00 681.00 L 1103.00 686.00 L 1113.00 678.00 L 1114.00 701.00 L 1106.00 755.00 L 1121.00 810.00 L 1159.00 866.00 L 1168.00 904.00 L 1148.00 924.00 L 1138.00 954.00 L 1138.00 994.00 L 1128.00 1039.00 L 1108.00 1089.00 L 1085.00 1121.00 L 1059.00 1135.00 L 1025.00 1143.00 L 983.00 1145.00 L 952.00 1159.00 L 932.00 1185.00 L 982.00 1287.00 L 1102.00 1465.00 L 1168.00 1564.00 L 1180.00 1584.00 L 1177.00 1581.00 L 1159.00 1555.00 L 1160.00 1557.00 L 1180.00 1587.00 L 1179.00 1586.00 L 1157.00 1554.00 L 1158.00 1556.00 L 1182.00 1592.00 L 1180.00 1590.00 L 1152.00 1550.00 L 1154.00 1555.00 L 1186.00 1605.00 L 1182.00 1601.00 L 1142.00 1543.00 L 1143.00 1547.00 L 1185.00 1613.00 L 1181.00 1609.00 L 1131.00 1535.00 L 1131.00 1538.00 L 1181.00 1618.00 L 1134.00 1544.00 L 990.00 1316.00 L 989.00 1318.00 L 1131.00 1550.00 L 1171.00 1617.00 L 1109.00 1519.00 L 1109.00 1522.00 L 1171.00 1626.00 L 1167.00 1621.00 L 1097.00 1507.00 L 1097.00 1509.00 L 1167.00 1627.00 L 1163.00 1622.00 L 1085.00 1494.00 L 1084.00 1496.00 L 1160.00 1628.00 L 1156.00 1624.00 L 1072.00 1484.00 L 1071.00 1487.00 L 1153.00 1633.00 L 1151.00 1631.00 L 1065.00 1481.00 L 1064.00 1482.00 L 1148.00 1634.00 L 1121.00 1585.00 L 983.00 1335.00 L 982.00 1337.00 L 1118.00 1591.00 L 1140.00 1635.00 L 1048.00 1469.00 L 1046.00 1473.00 L 1134.00 1647.00 L 1131.00 1644.00 L 1037.00 1464.00 L 1035.00 1467.00 L 1125.00 1653.00 L 1123.00 1651.00 L 1029.00 1461.00 L 1028.00 1462.00 L 1120.00 1654.00 L 1102.00 1617.00 L 974.00 1351.00 L 973.00 1352.00 L 1099.00 1620.00 L 1111.00 1651.00 L 1009.00 1445.00 L 1004.00 1450.00 L 1096.00 1666.00 L 1083.00 1637.00 L 965.00 1363.00 L 963.00 1365.00 L 1077.00 1643.00 L 1077.00 1644.00 L 963.00 1368.00 L 961.00 1370.00 L 1071.00 1650.00 L 1077.00 1670.00 L 979.00 1430.00 L 973.00 1426.00 L 1059.00 1658.00 L 1099.00 1772.00 L 1093.00 1768.00 L 1043.00 1635.00 L 949.00 1373.00 L 947.00 1372.00 L 1037.00 1632.00 L 1037.00 1634.00 L 947.00 1378.00 L 943.00 1375.00 L 1025.00 1625.00 L 1025.00 1627.00 L 943.00 1381.00 L 939.00 1378.00 L 1013.00 1618.00 L 1013.00 1620.00 L 939.00 1384.00 L 937.00 1383.00 L 1007.00 1617.00 L 1007.00 1619.00 L 937.00 1389.00 L 933.00 1387.00 L 995.00 1613.00 L 953.00 1680.00 L 807.00 1588.00 L 677.00 1524.00 L 563.00 1488.00 L 537.00 1377.00 L 599.00 1191.00 L 631.00 1095.00 L 633.00 1089.00 L 635.00 1069.00 Z" fill="black" stroke="black" stroke-width="1"/>
</svg>