<?xml version="1.0" encoding="UTF-8"?>
<svg xmlns="http://www.w3.org/2000/svg" viewBox="306.00 303.00 981.00 1679.00">
  <path d="M 511.00 1077.00 L 513.00 1059.00 L 504.00 1047.00 L 484.00 1041.00 L 484.00 1039.00 L 504.00 1041.00 L 502.00 1040.00 L 478.00 1036.00 L 476.00 1035.00 L 496.00 1037.00 L 494.00 1036.00 L 470.00 1032.00 L 448.00 1022.00 L 428.00 1006.00 L 412.00 983.00 L 400.00 953.00 L 379.00 921.00 L 349.00 887.00 L 328.00 853.00 L 316.00 819.00 L 316.00 786.00 L 328.00 754.00 L 337.00 695.00 L 343.00 609.00 L 364.00 529.00 L 400.00 455.00 L 444.00 397.00 L 496.00 355.00 L 577.00 327.00 L 687.00 313.00 L 777.00 314.00 L 847.00 330.00 L 931.00 364.00 L 1029.00 416.00 L 1096.00 463.00 L 1132.00 505.00 L 1146.00 535.00 L 1138.00 553.00 L 1139.00 555.00 L 1149.00 541.00 L 1150.00 544.00 L 1142.00 564.00 L 1144.00 567.00 L 1156.00 553.00 L 1157.00 555.00 L 1147.00 573.00 L 1148.00 575.00 L 1160.00 561.00 L 1161.00 564.00 L 1151.00 584.00 L 1152.00 586.00 L 1164.00 570.00 L 1165.00 573.00 L 1155.00 595.00 L 1156.00 597.00 L 1168.00 579.00 L 1170.00 587.00 L 1162.00 621.00 L 1163.00 632.00 L 1173.00 620.00 L 1173.00 623.00 L 1163.00 641.00 L 1163.00 645.00 L 1173.00 635.00 L 1173.00 637.00 L 1163.00 651.00 L 1166.00 649.00 L 1182.00 631.00 L 1182.00 633.00 L 1166.00 655.00 L 1166.00 657.00 L 1182.00 639.00 L 1181.00 642.00 L 1163.00 666.00 L 1154.00 692.00 L 1154.00 720.00 L 1177.00 773.00 L 1223.00 851.00 L 1232.00 901.00 L 1204.00 923.00 L 1191.00 946.00 L 1193.00 970.00 L 1187.00 992.00 L 1173.00 1012.00 L 1166.00 1030.00 L 1166.00 1046.00 L 1156.00 1062.00 L 1136.00 1078.00 L 1127.00 1101.00 L 1129.00 1131.00 L 1126.00 1153.00 L 1118.00 1167.00 L 1106.00 1180.00 L 1090.00 1192.00 L 1044.00 1204.00 L 968.00 1216.00 L 1019.00 1347.00 L 1197.00 1597.00 L 1273.00 1705.00 L 1247.00 1671.00 L 1248.00 1674.00 L 1276.00 1714.00 L 1271.00 1709.00 L 1233.00 1659.00 L 1234.00 1662.00 L 1274.00 1718.00 L 1271.00 1715.00 L 1225.00 1653.00 L 1227.00 1659.00 L 1277.00 1733.00 L 1271.00 1728.00 L 1209.00 1644.00 L 1209.00 1647.00 L 1271.00 1737.00 L 1269.00 1735.00 L 1203.00 1641.00 L 1204.00 1644.00 L 1272.00 1744.00 L 1270.00 1743.00 L 1198.00 1641.00 L 1198.00 1644.00 L 1270.00 1752.00 L 1264.00 1746.00 L 1180.00 1626.00 L 1179.00 1630.00 L 1261.00 1758.00 L 1259.00 1756.00 L 1173.00 1624.00 L 1173.00 1626.00 L 1259.00 1762.00 L 1205.00 1679.00 L 1011.00 1377.00 L 1010.00 1380.00 L 1202.00 1688.00 L 1246.00 1763.00 L 1142.00 1605.00 L 1140.00 1610.00 L 1240.00 1778.00 L 1234.00 1772.00 L 1122.00 1592.00 L 1120.00 1595.00 L 1228.00 1781.00 L 1226.00 1780.00 L 1114.00 1592.00 L 1113.00 1595.00 L 1223.00 1789.00 L 1219.00 1785.00 L 1101.00 1583.00 L 1099.00 1586.00 L 1213.00 1794.00 L 1212.00 1793.00 L 1096.00 1583.00 L 1094.00 1586.00 L 1206.00 1802.00 L 1172.00 1740.00 L 992.00 1400.00 L 990.00 1402.00 L 1166.00 1746.00 L 1191.00 1800.00 L 1065.00 1564.00 L 1061.00 1569.00 L 1179.00 1815.00 L 1175.00 1811.00 L 1049.00 1557.00 L 1045.00 1560.00 L 1163.00 1820.00 L 1160.00 1817.00 L 1036.00 1551.00 L 1033.00 1553.00 L 1151.00 1823.00 L 1131.00 1779.00 L 973.00 1421.00 L 972.00 1422.00 L 1128.00 1782.00 L 1143.00 1821.00 L 1017.00 1539.00 L 1013.00 1542.00 L 1131.00 1830.00 L 1186.00 1972.00 L 1178.00 1968.00 L 1103.00 1787.00 L 961.00 1429.00 L 958.00 1427.00 L 1094.00 1781.00 L 1105.00 1813.00 L 991.00 1523.00 L 980.00 1513.00 L 1072.00 1783.00 L 1060.00 1753.00 L 944.00 1423.00 L 941.00 1420.00 L 1051.00 1744.00 L 1101.00 1901.00 L 1091.00 1891.00 L 1043.00 1754.00 L 957.00 1490.00 L 953.00 1487.00 L 1031.00 1745.00 L 1023.00 1722.00 L 929.00 1418.00 L 926.00 1415.00 L 1014.00 1713.00 L 1054.00 1859.00 L 1046.00 1853.00 L 1005.00 1721.00 L 931.00 1463.00 L 928.00 1461.00 L 996.00 1715.00 L 992.00 1701.00 L 916.00 1419.00 L 913.00 1416.00 L 983.00 1692.00 L 1014.00 1827.00 L 1006.00 1821.00 L 970.00 1685.00 L 906.00 1419.00 L 903.00 1416.00 L 961.00 1676.00 L 960.00 1679.00 L 900.00 1425.00 L 894.00 1420.00 L 942.00 1664.00 L 942.00 1667.00 L 894.00 1429.00 L 892.00 1428.00 L 936.00 1664.00 L 889.00 1733.00 L 751.00 1635.00 L 603.00 1557.00 L 445.00 1499.00 L 390.00 1398.00 L 438.00 1254.00 L 474.00 1161.00 L 498.00 1119.00 L 510.00 1095.00 L 510.00 1089.00 L 511.00 1077.00 Z" fill="black" stroke="black" stroke-width="1"/>
</svg>