<?xml version="1.0" encoding="UTF-8"?>
<svg xmlns="http://www.w3.org/2000/svg" viewBox="450.00 272.00 862.00 1522.00">
  <path d="M 673.00 989.00 L 695.00 963.00 L 707.00 944.00 L 709.00 932.00 L 698.00 918.00 L 674.00 902.00 L 651.00 880.00 L 629.00 852.00 L 603.00 828.00 L 573.00 808.00 L 572.00 806.00 L 600.00 822.00 L 587.00 810.00 L 533.00 770.00 L 496.00 730.00 L 476.00 690.00 L 464.00 648.00 L 460.00 604.00 L 471.00 553.00 L 497.00 495.00 L 508.00 441.00 L 504.00 391.00 L 512.00 365.00 L 532.00 363.00 L 545.00 355.00 L 551.00 341.00 L 563.00 328.00 L 581.00 316.00 L 593.00 310.00 L 599.00 310.00 L 607.00 320.00 L 617.00 340.00 L 620.00 341.00 L 616.00 323.00 L 619.00 322.00 L 629.00 338.00 L 646.00 337.00 L 670.00 319.00 L 708.00 302.00 L 760.00 286.00 L 822.00 282.00 L 894.00 290.00 L 959.00 306.00 L 1017.00 330.00 L 1060.00 352.00 L 1088.00 372.00 L 1118.00 402.00 L 1150.00 442.00 L 1178.00 471.00 L 1202.00 489.00 L 1213.00 508.00 L 1211.00 528.00 L 1212.00 536.00 L 1216.00 532.00 L 1220.00 547.00 L 1224.00 581.00 L 1225.00 627.00 L 1223.00 685.00 L 1234.00 736.00 L 1258.00 780.00 L 1273.00 814.00 L 1279.00 838.00 L 1271.00 858.00 L 1249.00 874.00 L 1241.00 894.00 L 1247.00 918.00 L 1246.00 933.00 L 1238.00 939.00 L 1234.00 949.00 L 1234.00 963.00 L 1225.00 977.00 L 1207.00 991.00 L 1199.00 1011.00 L 1201.00 1037.00 L 1199.00 1055.00 L 1193.00 1065.00 L 1173.00 1077.00 L 1139.00 1091.00 L 1109.00 1095.00 L 1083.00 1089.00 L 1075.00 1089.00 L 1085.00 1095.00 L 1081.00 1098.00 L 1063.00 1098.00 L 1043.00 1107.00 L 1021.00 1125.00 L 1084.00 1230.00 L 1232.00 1422.00 L 1294.00 1503.00 L 1270.00 1473.00 L 1272.00 1476.00 L 1300.00 1512.00 L 1292.00 1503.00 L 1248.00 1449.00 L 1250.00 1453.00 L 1298.00 1515.00 L 1296.00 1513.00 L 1244.00 1447.00 L 1246.00 1451.00 L 1302.00 1525.00 L 1297.00 1520.00 L 1231.00 1436.00 L 1231.00 1438.00 L 1297.00 1526.00 L 1294.00 1523.00 L 1222.00 1429.00 L 1223.00 1431.00 L 1297.00 1529.00 L 1251.00 1468.00 L 1085.00 1248.00 L 1085.00 1250.00 L 1251.00 1474.00 L 1290.00 1527.00 L 1202.00 1409.00 L 1203.00 1411.00 L 1293.00 1533.00 L 1288.00 1528.00 L 1188.00 1396.00 L 1188.00 1399.00 L 1288.00 1537.00 L 1284.00 1533.00 L 1176.00 1387.00 L 1176.00 1390.00 L 1284.00 1542.00 L 1281.00 1539.00 L 1167.00 1381.00 L 1167.00 1384.00 L 1281.00 1548.00 L 1280.00 1547.00 L 1164.00 1381.00 L 1164.00 1384.00 L 1280.00 1556.00 L 1275.00 1551.00 L 1149.00 1369.00 L 1148.00 1372.00 L 1272.00 1560.00 L 1270.00 1558.00 L 1142.00 1366.00 L 1142.00 1367.00 L 1270.00 1561.00 L 1267.00 1558.00 L 1133.00 1358.00 L 1132.00 1360.00 L 1264.00 1564.00 L 1246.00 1536.00 L 1078.00 1276.00 L 1078.00 1278.00 L 1246.00 1542.00 L 1260.00 1566.00 L 1120.00 1350.00 L 1119.00 1353.00 L 1257.00 1575.00 L 1256.00 1574.00 L 1116.00 1350.00 L 1115.00 1352.00 L 1253.00 1580.00 L 1251.00 1578.00 L 1109.00 1346.00 L 1108.00 1348.00 L 1248.00 1584.00 L 1236.00 1565.00 L 1072.00 1291.00 L 1071.00 1293.00 L 1233.00 1571.00 L 1240.00 1585.00 L 1092.00 1335.00 L 1090.00 1338.00 L 1234.00 1594.00 L 1232.00 1592.00 L 1084.00 1332.00 L 1082.00 1335.00 L 1226.00 1601.00 L 1220.00 1591.00 L 1064.00 1305.00 L 1062.00 1306.00 L 1214.00 1594.00 L 1288.00 1739.00 L 1284.00 1741.00 L 1211.00 1605.00 L 1069.00 1331.00 L 1067.00 1334.00 L 1205.00 1614.00 L 1201.00 1608.00 L 1055.00 1316.00 L 1052.00 1317.00 L 1192.00 1611.00 L 1193.00 1614.00 L 1055.00 1326.00 L 1052.00 1328.00 L 1184.00 1620.00 L 1242.00 1772.00 L 1226.00 1784.00 L 1168.00 1753.00 L 1068.00 1679.00 L 958.00 1610.00 L 838.00 1546.00 L 725.00 1496.00 L 619.00 1460.00 L 548.00 1439.00 L 512.00 1433.00 L 509.00 1384.00 L 539.00 1292.00 L 570.00 1213.00 L 602.00 1147.00 L 620.00 1101.00 L 624.00 1075.00 L 633.00 1055.00 L 647.00 1041.00 L 655.00 1029.00 L 657.00 1019.00 L 659.00 1011.00 L 661.00 1005.00 L 673.00 989.00 Z" fill="black" stroke="black" stroke-width="1"/>
</svg>