<?xml version="1.0" encoding="UTF-8"?>
<svg xmlns="http://www.w3.org/2000/svg" viewBox="328.00 61.00 988.00 1856.00">
  <path d="M 502.00 911.00 L 518.00 849.00 L 522.00 814.00 L 514.00 806.00 L 515.00 802.00 L 525.00 802.00 L 525.00 800.00 L 515.00 796.00 L 516.00 794.00 L 528.00 794.00 L 527.00 789.00 L 513.00 779.00 L 514.00 777.00 L 530.00 783.00 L 530.00 780.00 L 514.00 768.00 L 506.00 746.00 L 506.00 714.00 L 488.00 664.00 L 452.00 596.00 L 427.00 542.00 L 413.00 502.00 L 407.00 458.00 L 409.00 410.00 L 424.00 353.00 L 452.00 287.00 L 494.00 226.00 L 550.00 170.00 L 591.00 135.00 L 617.00 121.00 L 664.00 104.00 L 732.00 84.00 L 785.00 73.00 L 823.00 71.00 L 852.00 72.00 L 872.00 76.00 L 884.00 82.00 L 888.00 90.00 L 891.00 91.00 L 893.00 85.00 L 896.00 85.00 L 900.00 91.00 L 907.00 92.00 L 917.00 88.00 L 922.00 89.00 L 922.00 95.00 L 926.00 96.00 L 934.00 92.00 L 938.00 93.00 L 938.00 99.00 L 939.00 99.00 L 941.00 93.00 L 965.00 98.00 L 1011.00 114.00 L 1046.00 130.00 L 1070.00 146.00 L 1089.00 160.00 L 1103.00 172.00 L 1111.00 185.00 L 1113.00 199.00 L 1116.00 201.00 L 1120.00 191.00 L 1120.00 193.00 L 1116.00 207.00 L 1117.00 210.00 L 1123.00 202.00 L 1125.00 204.00 L 1123.00 216.00 L 1126.00 217.00 L 1134.00 207.00 L 1150.00 213.00 L 1174.00 235.00 L 1185.00 257.00 L 1183.00 279.00 L 1186.00 282.00 L 1194.00 266.00 L 1196.00 269.00 L 1192.00 291.00 L 1194.00 294.00 L 1202.00 278.00 L 1207.00 273.00 L 1209.00 279.00 L 1206.00 291.00 L 1198.00 309.00 L 1200.00 312.00 L 1212.00 300.00 L 1214.00 304.00 L 1206.00 324.00 L 1208.00 327.00 L 1220.00 313.00 L 1221.00 316.00 L 1211.00 336.00 L 1207.00 348.00 L 1209.00 352.00 L 1215.00 345.00 L 1225.00 327.00 L 1226.00 331.00 L 1218.00 357.00 L 1220.00 362.00 L 1232.00 346.00 L 1232.00 349.00 L 1220.00 371.00 L 1221.00 373.00 L 1235.00 355.00 L 1236.00 358.00 L 1224.00 382.00 L 1224.00 385.00 L 1236.00 367.00 L 1243.00 360.00 L 1245.00 364.00 L 1240.00 376.00 L 1228.00 396.00 L 1228.00 398.00 L 1240.00 382.00 L 1240.00 385.00 L 1228.00 407.00 L 1228.00 411.00 L 1240.00 397.00 L 1241.00 400.00 L 1231.00 420.00 L 1225.00 458.00 L 1223.00 514.00 L 1243.00 572.00 L 1285.00 632.00 L 1306.00 667.00 L 1306.00 677.00 L 1288.00 695.00 L 1252.00 721.00 L 1251.00 724.00 L 1285.00 704.00 L 1284.00 707.00 L 1248.00 733.00 L 1231.00 756.00 L 1233.00 776.00 L 1230.00 791.00 L 1222.00 801.00 L 1218.00 813.00 L 1218.00 827.00 L 1211.00 841.00 L 1197.00 855.00 L 1192.00 875.00 L 1196.00 901.00 L 1195.00 922.00 L 1189.00 938.00 L 1166.00 956.00 L 1126.00 976.00 L 1109.00 987.00 L 1115.00 989.00 L 1113.00 989.00 L 1103.00 987.00 L 1107.00 990.00 L 1125.00 998.00 L 1133.00 1007.00 L 1131.00 1017.00 L 1121.00 1030.00 L 1103.00 1046.00 L 1104.00 1065.00 L 1124.00 1087.00 L 1122.00 1092.00 L 1098.00 1080.00 L 1096.00 1082.00 L 1116.00 1098.00 L 1115.00 1100.00 L 1093.00 1088.00 L 1097.00 1099.00 L 1127.00 1133.00 L 1131.00 1141.00 L 1109.00 1123.00 L 1127.00 1140.00 L 1185.00 1192.00 L 1182.00 1192.00 L 1118.00 1140.00 L 1112.00 1137.00 L 1164.00 1183.00 L 1180.00 1198.00 L 1160.00 1182.00 L 1161.00 1186.00 L 1183.00 1210.00 L 1172.00 1204.00 L 1128.00 1168.00 L 1125.00 1169.00 L 1163.00 1207.00 L 1158.00 1204.00 L 1110.00 1160.00 L 1107.00 1159.00 L 1149.00 1201.00 L 1151.00 1206.00 L 1113.00 1174.00 L 1106.00 1171.00 L 1130.00 1197.00 L 1134.00 1202.00 L 1118.00 1186.00 L 1116.00 1201.00 L 1128.00 1247.00 L 1159.00 1327.00 L 1209.00 1441.00 L 1238.00 1519.00 L 1246.00 1561.00 L 1251.00 1600.00 L 1253.00 1636.00 L 1250.00 1686.00 L 1242.00 1750.00 L 1225.00 1807.00 L 1199.00 1857.00 L 1174.00 1889.00 L 1150.00 1903.00 L 1124.00 1907.00 L 1096.00 1901.00 L 1011.00 1838.00 L 869.00 1718.00 L 759.00 1631.00 L 681.00 1577.00 L 616.00 1538.00 L 564.00 1514.00 L 484.00 1486.00 L 376.00 1454.00 L 338.00 1387.00 L 370.00 1285.00 L 407.00 1194.00 L 449.00 1114.00 L 475.00 1059.00 L 485.00 1029.00 L 490.00 999.00 L 490.00 969.00 L 491.00 951.00 L 493.00 945.00 L 502.00 911.00 Z" fill="black" stroke="black" stroke-width="1"/>
</svg>