<?xml version="1.0" encoding="UTF-8"?>
<svg xmlns="http://www.w3.org/2000/svg" viewBox="308.00 177.00 884.00 1695.00">
  <path d="M 431.00 985.00 L 441.00 927.00 L 450.00 888.00 L 458.00 868.00 L 452.00 849.00 L 432.00 831.00 L 420.00 819.00 L 416.00 813.00 L 416.00 810.00 L 420.00 810.00 L 418.00 806.00 L 410.00 798.00 L 391.00 761.00 L 361.00 695.00 L 343.00 646.00 L 337.00 614.00 L 337.00 557.00 L 343.00 475.00 L 359.00 410.00 L 385.00 362.00 L 407.00 328.00 L 425.00 308.00 L 451.00 286.00 L 485.00 262.00 L 518.00 242.00 L 550.00 226.00 L 593.00 210.00 L 647.00 194.00 L 698.00 187.00 L 746.00 189.00 L 789.00 200.00 L 827.00 220.00 L 858.00 234.00 L 882.00 242.00 L 912.00 265.00 L 948.00 303.00 L 977.00 332.00 L 999.00 352.00 L 1021.00 368.00 L 1043.00 380.00 L 1059.00 392.00 L 1069.00 404.00 L 1079.00 426.00 L 1089.00 458.00 L 1090.00 483.00 L 1082.00 501.00 L 1082.00 503.00 L 1090.00 489.00 L 1095.00 484.00 L 1097.00 488.00 L 1094.00 500.00 L 1086.00 520.00 L 1088.00 522.00 L 1100.00 506.00 L 1101.00 508.00 L 1091.00 528.00 L 1092.00 530.00 L 1104.00 514.00 L 1103.00 521.00 L 1089.00 551.00 L 1090.00 554.00 L 1106.00 530.00 L 1106.00 532.00 L 1090.00 560.00 L 1082.00 580.00 L 1082.00 592.00 L 1086.00 608.00 L 1094.00 628.00 L 1115.00 663.00 L 1149.00 713.00 L 1165.00 744.00 L 1163.00 756.00 L 1152.00 769.00 L 1132.00 783.00 L 1130.00 786.00 L 1146.00 778.00 L 1145.00 780.00 L 1127.00 792.00 L 1122.00 808.00 L 1130.00 828.00 L 1128.00 846.00 L 1116.00 862.00 L 1112.00 877.00 L 1116.00 891.00 L 1111.00 906.00 L 1097.00 922.00 L 1093.00 937.00 L 1099.00 951.00 L 1101.00 968.00 L 1099.00 988.00 L 1092.00 1005.00 L 1080.00 1019.00 L 1061.00 1034.00 L 1035.00 1050.00 L 1027.00 1061.00 L 1037.00 1067.00 L 1042.00 1073.00 L 1042.00 1079.00 L 1036.00 1088.00 L 1024.00 1100.00 L 1029.00 1114.00 L 1051.00 1130.00 L 1050.00 1133.00 L 1026.00 1123.00 L 1018.00 1121.00 L 1026.00 1127.00 L 1025.00 1129.00 L 1015.00 1127.00 L 1023.00 1133.00 L 1049.00 1147.00 L 1051.00 1149.00 L 1029.00 1139.00 L 1028.00 1141.00 L 1048.00 1155.00 L 1045.00 1155.00 L 1019.00 1141.00 L 1018.00 1143.00 L 1042.00 1161.00 L 1064.00 1185.00 L 1084.00 1215.00 L 1106.00 1239.00 L 1130.00 1257.00 L 1132.00 1259.00 L 1112.00 1245.00 L 1109.00 1243.00 L 1123.00 1253.00 L 1128.00 1257.00 L 1124.00 1255.00 L 1126.00 1259.00 L 1134.00 1269.00 L 1136.00 1274.00 L 1132.00 1274.00 L 1107.00 1258.00 L 1061.00 1226.00 L 1058.00 1226.00 L 1098.00 1258.00 L 1097.00 1259.00 L 1055.00 1229.00 L 1046.00 1225.00 L 1070.00 1247.00 L 1069.00 1248.00 L 1043.00 1228.00 L 1028.00 1221.00 L 1024.00 1227.00 L 1030.00 1238.00 L 1046.00 1254.00 L 1073.00 1301.00 L 1111.00 1379.00 L 1129.00 1417.00 L 1127.00 1415.00 L 1137.00 1450.00 L 1159.00 1522.00 L 1173.00 1581.00 L 1179.00 1627.00 L 1182.00 1677.00 L 1182.00 1731.00 L 1177.00 1773.00 L 1167.00 1803.00 L 1155.00 1826.00 L 1141.00 1842.00 L 1121.00 1854.00 L 1095.00 1862.00 L 1068.00 1862.00 L 1040.00 1854.00 L 974.00 1803.00 L 870.00 1709.00 L 778.00 1637.00 L 698.00 1587.00 L 626.00 1549.00 L 562.00 1523.00 L 527.00 1505.00 L 521.00 1495.00 L 516.00 1492.00 L 512.00 1496.00 L 504.00 1498.00 L 492.00 1498.00 L 441.00 1489.00 L 351.00 1471.00 L 318.00 1419.00 L 342.00 1333.00 L 361.00 1278.00 L 375.00 1254.00 L 380.00 1243.00 L 376.00 1245.00 L 388.00 1211.00 L 416.00 1141.00 L 429.00 1086.00 L 427.00 1046.00 L 426.00 1023.00 L 426.00 1017.00 L 431.00 985.00 Z" fill="black" stroke="black" stroke-width="1"/>
</svg>