<?xml version="1.0" encoding="UTF-8"?>
<svg xmlns="http://www.w3.org/2000/svg" viewBox="315.00 248.00 829.00 1395.00">
  <path d="M 432.00 904.00 L 436.00 852.00 L 443.00 816.00 L 453.00 796.00 L 456.00 782.00 L 452.00 774.00 L 452.00 771.00 L 456.00 773.00 L 453.00 770.00 L 443.00 762.00 L 432.00 743.00 L 420.00 713.00 L 407.00 689.00 L 393.00 671.00 L 381.00 640.00 L 371.00 596.00 L 366.00 558.00 L 366.00 526.00 L 369.00 495.00 L 375.00 465.00 L 388.00 431.00 L 408.00 393.00 L 425.00 365.00 L 439.00 347.00 L 455.00 331.00 L 473.00 317.00 L 513.00 297.00 L 575.00 271.00 L 641.00 258.00 L 711.00 258.00 L 779.00 272.00 L 845.00 300.00 L 890.00 326.00 L 914.00 350.00 L 924.00 371.00 L 920.00 389.00 L 921.00 391.00 L 927.00 377.00 L 928.00 378.00 L 924.00 394.00 L 925.00 397.00 L 931.00 387.00 L 932.00 390.00 L 928.00 406.00 L 930.00 408.00 L 938.00 396.00 L 940.00 399.00 L 936.00 417.00 L 937.00 418.00 L 943.00 402.00 L 947.00 395.00 L 949.00 397.00 L 948.00 408.00 L 944.00 428.00 L 946.00 429.00 L 954.00 411.00 L 956.00 409.00 L 952.00 423.00 L 953.00 424.00 L 959.00 412.00 L 958.00 416.00 L 950.00 436.00 L 947.00 448.00 L 949.00 452.00 L 954.00 445.00 L 962.00 427.00 L 964.00 424.00 L 960.00 436.00 L 961.00 438.00 L 967.00 430.00 L 966.00 436.00 L 958.00 456.00 L 958.00 458.00 L 966.00 442.00 L 967.00 445.00 L 961.00 467.00 L 962.00 470.00 L 970.00 454.00 L 971.00 456.00 L 965.00 476.00 L 965.00 480.00 L 971.00 468.00 L 972.00 469.00 L 968.00 483.00 L 969.00 485.00 L 975.00 475.00 L 977.00 479.00 L 975.00 497.00 L 978.00 500.00 L 986.00 488.00 L 987.00 490.00 L 981.00 506.00 L 982.00 507.00 L 990.00 493.00 L 990.00 495.00 L 982.00 513.00 L 984.00 515.00 L 996.00 501.00 L 997.00 503.00 L 987.00 521.00 L 988.00 522.00 L 1000.00 506.00 L 1000.00 510.00 L 988.00 534.00 L 983.00 545.00 L 985.00 543.00 L 984.00 550.00 L 980.00 566.00 L 981.00 581.00 L 987.00 595.00 L 1008.00 619.00 L 1044.00 653.00 L 1066.00 678.00 L 1074.00 694.00 L 1065.00 713.00 L 1039.00 735.00 L 1035.00 741.00 L 1053.00 731.00 L 1052.00 734.00 L 1032.00 750.00 L 1021.00 761.00 L 1019.00 767.00 L 1019.00 778.00 L 1021.00 794.00 L 1020.00 805.00 L 1016.00 811.00 L 1016.00 819.00 L 1020.00 829.00 L 1015.00 842.00 L 1001.00 858.00 L 999.00 882.00 L 1009.00 914.00 L 1008.00 938.00 L 996.00 954.00 L 980.00 966.00 L 960.00 974.00 L 949.00 980.00 L 947.00 984.00 L 956.00 992.00 L 976.00 1004.00 L 974.00 1021.00 L 950.00 1043.00 L 947.00 1063.00 L 965.00 1081.00 L 963.00 1083.00 L 941.00 1069.00 L 936.00 1066.00 L 948.00 1074.00 L 952.00 1078.00 L 948.00 1078.00 L 951.00 1083.00 L 961.00 1093.00 L 955.00 1091.00 L 933.00 1077.00 L 930.00 1078.00 L 946.00 1094.00 L 945.00 1095.00 L 927.00 1081.00 L 925.00 1081.00 L 939.00 1095.00 L 938.00 1100.00 L 922.00 1096.00 L 921.00 1106.00 L 935.00 1130.00 L 946.00 1154.00 L 954.00 1178.00 L 957.00 1189.00 L 955.00 1187.00 L 981.00 1225.00 L 1035.00 1303.00 L 1077.00 1375.00 L 1107.00 1441.00 L 1125.00 1486.00 L 1131.00 1510.00 L 1134.00 1533.00 L 1134.00 1555.00 L 1130.00 1577.00 L 1122.00 1599.00 L 1105.00 1616.00 L 1079.00 1628.00 L 1058.00 1633.00 L 1042.00 1631.00 L 1015.00 1621.00 L 977.00 1603.00 L 947.00 1586.00 L 925.00 1570.00 L 848.00 1537.00 L 716.00 1487.00 L 612.00 1453.00 L 536.00 1435.00 L 457.00 1423.00 L 375.00 1417.00 L 331.00 1412.00 L 325.00 1408.00 L 329.00 1361.00 L 343.00 1271.00 L 363.00 1196.00 L 389.00 1136.00 L 411.00 1079.00 L 429.00 1025.00 L 436.00 984.00 L 432.00 956.00 L 430.00 939.00 L 430.00 933.00 L 432.00 904.00 Z" fill="black" stroke="black" stroke-width="1"/>
</svg>