<?xml version="1.0" encoding="UTF-8"?>
<svg xmlns="http://www.w3.org/2000/svg" viewBox="423.00 41.00 1131.00 1823.00">
  <path d="M 499.00 996.00 L 501.00 984.00 L 499.00 972.00 L 493.00 960.00 L 486.00 935.00 L 478.00 897.00 L 479.00 870.00 L 489.00 854.00 L 488.00 842.00 L 476.00 834.00 L 476.00 831.00 L 488.00 833.00 L 488.00 831.00 L 476.00 825.00 L 470.00 820.00 L 470.00 816.00 L 472.00 810.00 L 476.00 802.00 L 491.00 802.00 L 517.00 810.00 L 520.00 808.00 L 500.00 796.00 L 501.00 793.00 L 523.00 799.00 L 541.00 784.00 L 555.00 748.00 L 561.00 717.00 L 559.00 691.00 L 561.00 655.00 L 567.00 609.00 L 568.00 544.00 L 564.00 460.00 L 570.00 392.00 L 586.00 340.00 L 610.00 284.00 L 642.00 224.00 L 680.00 174.00 L 724.00 134.00 L 761.00 106.00 L 791.00 90.00 L 831.00 75.00 L 881.00 61.00 L 937.00 53.00 L 999.00 51.00 L 1059.00 58.00 L 1117.00 74.00 L 1152.00 90.00 L 1164.00 106.00 L 1193.00 130.00 L 1239.00 162.00 L 1270.00 186.00 L 1286.00 202.00 L 1305.00 229.00 L 1327.00 267.00 L 1344.00 315.00 L 1356.00 373.00 L 1376.00 415.00 L 1404.00 441.00 L 1431.00 474.00 L 1457.00 514.00 L 1453.00 552.00 L 1419.00 588.00 L 1420.00 590.00 L 1456.00 558.00 L 1456.00 561.00 L 1420.00 599.00 L 1421.00 601.00 L 1459.00 567.00 L 1459.00 570.00 L 1421.00 610.00 L 1421.00 613.00 L 1459.00 579.00 L 1468.00 572.00 L 1448.00 592.00 L 1447.00 595.00 L 1465.00 581.00 L 1456.00 591.00 L 1420.00 625.00 L 1401.00 650.00 L 1399.00 666.00 L 1394.00 681.00 L 1386.00 695.00 L 1385.00 700.00 L 1391.00 696.00 L 1392.00 699.00 L 1388.00 709.00 L 1390.00 720.00 L 1398.00 732.00 L 1401.00 747.00 L 1399.00 765.00 L 1403.00 783.00 L 1413.00 801.00 L 1419.00 818.00 L 1421.00 834.00 L 1420.00 850.00 L 1416.00 866.00 L 1411.00 879.00 L 1405.00 889.00 L 1384.00 905.00 L 1348.00 927.00 L 1337.00 946.00 L 1351.00 962.00 L 1349.00 985.00 L 1331.00 1015.00 L 1316.00 1036.00 L 1304.00 1048.00 L 1298.00 1057.00 L 1298.00 1063.00 L 1309.00 1084.00 L 1331.00 1120.00 L 1345.00 1156.00 L 1351.00 1192.00 L 1381.00 1257.00 L 1435.00 1351.00 L 1481.00 1451.00 L 1519.00 1557.00 L 1540.00 1638.00 L 1544.00 1694.00 L 1539.00 1740.00 L 1525.00 1776.00 L 1509.00 1804.00 L 1491.00 1824.00 L 1464.00 1839.00 L 1428.00 1849.00 L 1400.00 1854.00 L 1380.00 1854.00 L 1342.00 1846.00 L 1286.00 1830.00 L 1255.00 1817.00 L 1249.00 1807.00 L 1248.00 1811.00 L 1252.00 1829.00 L 1247.00 1823.00 L 1233.00 1793.00 L 1230.00 1796.00 L 1238.00 1832.00 L 1236.00 1833.00 L 1224.00 1799.00 L 1222.00 1799.00 L 1230.00 1833.00 L 1228.00 1832.00 L 1216.00 1796.00 L 1195.00 1775.00 L 1165.00 1769.00 L 1131.00 1756.00 L 1093.00 1736.00 L 1052.00 1718.00 L 1008.00 1702.00 L 982.00 1688.00 L 974.00 1676.00 L 953.00 1669.00 L 919.00 1667.00 L 889.00 1662.00 L 863.00 1654.00 L 843.00 1644.00 L 829.00 1632.00 L 814.00 1628.00 L 798.00 1632.00 L 773.00 1628.00 L 739.00 1616.00 L 715.00 1610.00 L 701.00 1610.00 L 689.00 1607.00 L 679.00 1601.00 L 614.00 1593.00 L 494.00 1583.00 L 436.00 1548.00 L 440.00 1488.00 L 439.00 1445.00 L 433.00 1419.00 L 435.00 1395.00 L 445.00 1373.00 L 454.00 1343.00 L 462.00 1305.00 L 467.00 1264.00 L 469.00 1220.00 L 477.00 1152.00 L 491.00 1060.00 L 498.00 1011.00 L 498.00 1005.00 L 499.00 996.00 Z" fill="black" stroke="black" stroke-width="1"/>
</svg>