<?xml version="1.0" encoding="UTF-8"?>
<svg xmlns="http://www.w3.org/2000/svg" viewBox="443.00 403.00 716.00 1394.00">
  <path d="M 594.00 1052.00 L 610.00 1016.00 L 620.00 978.00 L 624.00 938.00 L 615.00 899.00 L 593.00 861.00 L 572.00 832.00 L 552.00 812.00 L 551.00 810.00 L 569.00 826.00 L 564.00 820.00 L 536.00 792.00 L 518.00 770.00 L 510.00 754.00 L 502.00 730.00 L 494.00 698.00 L 494.00 651.00 L 502.00 589.00 L 514.00 543.00 L 530.00 513.00 L 560.00 481.00 L 604.00 447.00 L 638.00 425.00 L 662.00 415.00 L 712.00 413.00 L 788.00 419.00 L 868.00 445.00 L 952.00 491.00 L 996.00 522.00 L 1000.00 538.00 L 1005.00 543.00 L 1011.00 537.00 L 1013.00 540.00 L 1011.00 552.00 L 1013.00 554.00 L 1019.00 546.00 L 1020.00 548.00 L 1016.00 560.00 L 1017.00 561.00 L 1023.00 551.00 L 1024.00 554.00 L 1020.00 570.00 L 1021.00 571.00 L 1027.00 557.00 L 1028.00 559.00 L 1024.00 577.00 L 1026.00 579.00 L 1034.00 565.00 L 1035.00 568.00 L 1029.00 588.00 L 1030.00 590.00 L 1038.00 574.00 L 1039.00 577.00 L 1033.00 599.00 L 1034.00 602.00 L 1042.00 586.00 L 1043.00 589.00 L 1037.00 611.00 L 1038.00 644.00 L 1046.00 688.00 L 1070.00 732.00 L 1110.00 776.00 L 1120.00 808.00 L 1100.00 828.00 L 1100.00 831.00 L 1120.00 817.00 L 1121.00 819.00 L 1103.00 837.00 L 1100.00 841.00 L 1112.00 831.00 L 1112.00 832.00 L 1100.00 844.00 L 1100.00 858.00 L 1112.00 874.00 L 1113.00 889.00 L 1103.00 903.00 L 1100.00 909.00 L 1104.00 907.00 L 1104.00 908.00 L 1100.00 912.00 L 1101.00 921.00 L 1107.00 935.00 L 1099.00 961.00 L 1077.00 999.00 L 1059.00 1024.00 L 1045.00 1036.00 L 1012.00 1046.00 L 960.00 1054.00 L 957.00 1055.00 L 1003.00 1049.00 L 999.00 1052.00 L 945.00 1064.00 L 909.00 1092.00 L 891.00 1136.00 L 940.00 1252.00 L 1056.00 1440.00 L 1115.00 1536.00 L 1117.00 1540.00 L 1111.00 1531.00 L 1097.00 1509.00 L 1100.00 1515.00 L 1120.00 1549.00 L 1117.00 1546.00 L 1091.00 1506.00 L 1092.00 1509.00 L 1120.00 1555.00 L 1117.00 1551.00 L 1083.00 1497.00 L 1084.00 1500.00 L 1120.00 1560.00 L 1118.00 1558.00 L 1078.00 1494.00 L 1080.00 1500.00 L 1124.00 1576.00 L 1122.00 1574.00 L 1074.00 1494.00 L 1075.00 1498.00 L 1125.00 1586.00 L 1082.00 1513.00 L 946.00 1279.00 L 945.00 1278.00 L 1079.00 1510.00 L 1147.00 1629.00 L 1149.00 1635.00 L 1119.00 1585.00 L 1057.00 1479.00 L 1057.00 1481.00 L 1119.00 1591.00 L 1117.00 1589.00 L 1051.00 1475.00 L 1051.00 1478.00 L 1117.00 1598.00 L 1114.00 1594.00 L 1042.00 1466.00 L 1042.00 1468.00 L 1114.00 1600.00 L 1112.00 1598.00 L 1036.00 1462.00 L 1036.00 1465.00 L 1112.00 1607.00 L 1082.00 1551.00 L 946.00 1297.00 L 945.00 1299.00 L 1079.00 1557.00 L 1103.00 1606.00 L 1017.00 1446.00 L 1016.00 1449.00 L 1100.00 1615.00 L 1098.00 1613.00 L 1010.00 1443.00 L 1009.00 1445.00 L 1095.00 1619.00 L 1093.00 1616.00 L 1003.00 1436.00 L 1002.00 1438.00 L 1090.00 1622.00 L 1089.00 1621.00 L 999.00 1435.00 L 999.00 1436.00 L 1089.00 1624.00 L 1088.00 1623.00 L 996.00 1433.00 L 995.00 1435.00 L 1085.00 1629.00 L 1082.00 1625.00 L 986.00 1423.00 L 984.00 1425.00 L 1076.00 1631.00 L 1060.00 1596.00 L 936.00 1320.00 L 934.00 1322.00 L 1054.00 1602.00 L 1112.00 1743.00 L 1108.00 1745.00 L 1059.00 1634.00 L 965.00 1410.00 L 964.00 1411.00 L 1056.00 1637.00 L 1055.00 1635.00 L 961.00 1405.00 L 960.00 1406.00 L 1052.00 1638.00 L 1049.00 1633.00 L 951.00 1391.00 L 948.00 1393.00 L 1040.00 1639.00 L 1032.00 1619.00 L 924.00 1333.00 L 922.00 1334.00 L 1026.00 1622.00 L 1029.00 1633.00 L 931.00 1367.00 L 928.00 1368.00 L 1020.00 1636.00 L 1017.00 1628.00 L 919.00 1344.00 L 916.00 1345.00 L 1008.00 1631.00 L 1008.00 1633.00 L 916.00 1351.00 L 914.00 1352.00 L 1002.00 1636.00 L 1033.00 1781.00 L 1007.00 1787.00 L 962.00 1750.00 L 898.00 1670.00 L 814.00 1588.00 L 710.00 1504.00 L 633.00 1449.00 L 583.00 1423.00 L 527.00 1400.00 L 465.00 1380.00 L 453.00 1322.00 L 491.00 1226.00 L 527.00 1153.00 L 561.00 1103.00 L 580.00 1076.00 L 584.00 1072.00 L 594.00 1052.00 Z" fill="black" stroke="black" stroke-width="1"/>
</svg>