<?xml version="1.0" encoding="UTF-8"?>
<svg xmlns="http://www.w3.org/2000/svg" viewBox="376.00 218.00 915.00 1591.00">
  <path d="M 549.00 1010.00 L 579.00 954.00 L 558.00 851.00 L 486.00 701.00 L 431.00 596.00 L 393.00 536.00 L 386.00 494.00 L 410.00 470.00 L 461.00 436.00 L 539.00 392.00 L 640.00 339.00 L 764.00 277.00 L 849.00 240.00 L 895.00 228.00 L 969.00 327.00 L 1071.00 537.00 L 1137.00 642.00 L 1167.00 642.00 L 1171.00 661.00 L 1149.00 699.00 L 1152.00 706.00 L 1180.00 682.00 L 1183.00 687.00 L 1161.00 721.00 L 1168.00 723.00 L 1204.00 693.00 L 1206.00 696.00 L 1174.00 732.00 L 1178.00 733.00 L 1218.00 699.00 L 1219.00 702.00 L 1181.00 742.00 L 1186.00 744.00 L 1234.00 708.00 L 1235.00 714.00 L 1189.00 762.00 L 1192.00 764.00 L 1244.00 720.00 L 1243.00 724.00 L 1189.00 776.00 L 1192.00 778.00 L 1252.00 730.00 L 1251.00 733.00 L 1189.00 787.00 L 1194.00 788.00 L 1266.00 736.00 L 1265.00 739.00 L 1191.00 797.00 L 1194.00 799.00 L 1274.00 745.00 L 1274.00 748.00 L 1194.00 808.00 L 1196.00 811.00 L 1280.00 757.00 L 1281.00 760.00 L 1199.00 820.00 L 1175.00 878.00 L 1209.00 934.00 L 1213.00 966.00 L 1187.00 974.00 L 1184.00 978.00 L 1204.00 978.00 L 1204.00 981.00 L 1184.00 987.00 L 1171.00 1011.00 L 1165.00 1053.00 L 1167.00 1090.00 L 1177.00 1122.00 L 1179.00 1144.00 L 1173.00 1156.00 L 1155.00 1171.00 L 1125.00 1189.00 L 1113.00 1202.00 L 1119.00 1210.00 L 1117.00 1211.00 L 1107.00 1205.00 L 1112.00 1215.00 L 1132.00 1241.00 L 1134.00 1249.00 L 1118.00 1239.00 L 1119.00 1242.00 L 1137.00 1258.00 L 1136.00 1261.00 L 1116.00 1251.00 L 1108.00 1249.00 L 1112.00 1255.00 L 1135.00 1279.00 L 1177.00 1321.00 L 1174.00 1322.00 L 1126.00 1282.00 L 1124.00 1284.00 L 1168.00 1328.00 L 1172.00 1337.00 L 1136.00 1311.00 L 1127.00 1309.00 L 1145.00 1331.00 L 1142.00 1331.00 L 1118.00 1309.00 L 1115.00 1311.00 L 1133.00 1337.00 L 1147.00 1372.00 L 1157.00 1416.00 L 1185.00 1492.00 L 1231.00 1600.00 L 1253.00 1677.00 L 1251.00 1723.00 L 1243.00 1757.00 L 1229.00 1779.00 L 1207.00 1793.00 L 1177.00 1799.00 L 1151.00 1798.00 L 1129.00 1790.00 L 1066.00 1751.00 L 962.00 1681.00 L 864.00 1624.00 L 772.00 1580.00 L 672.00 1548.00 L 564.00 1528.00 L 520.00 1477.00 L 540.00 1395.00 L 545.00 1359.00 L 535.00 1369.00 L 537.00 1366.00 L 551.00 1350.00 L 549.00 1350.00 L 531.00 1366.00 L 533.00 1359.00 L 555.00 1329.00 L 551.00 1327.00 L 521.00 1353.00 L 521.00 1350.00 L 551.00 1318.00 L 550.00 1316.00 L 518.00 1344.00 L 520.00 1342.00 L 556.00 1310.00 L 556.00 1307.00 L 520.00 1333.00 L 522.00 1329.00 L 562.00 1295.00 L 572.00 1286.00 L 552.00 1302.00 L 554.00 1295.00 L 578.00 1265.00 L 581.00 1255.00 L 563.00 1265.00 L 564.00 1261.00 L 584.00 1243.00 L 585.00 1238.00 L 567.00 1246.00 L 568.00 1243.00 L 588.00 1229.00 L 588.00 1226.00 L 568.00 1234.00 L 568.00 1227.00 L 588.00 1205.00 L 589.00 1198.00 L 571.00 1206.00 L 563.00 1206.00 L 565.00 1198.00 L 558.00 1195.00 L 542.00 1197.00 L 542.00 1194.00 L 558.00 1186.00 L 556.00 1185.00 L 536.00 1191.00 L 536.00 1188.00 L 556.00 1176.00 L 556.00 1174.00 L 536.00 1182.00 L 536.00 1179.00 L 556.00 1165.00 L 558.00 1159.00 L 542.00 1161.00 L 542.00 1158.00 L 558.00 1150.00 L 557.00 1147.00 L 539.00 1149.00 L 538.00 1147.00 L 554.00 1141.00 L 554.00 1138.00 L 538.00 1138.00 L 530.00 1116.00 L 530.00 1072.00 L 531.00 1047.00 L 533.00 1041.00 L 549.00 1010.00 Z" fill="black" stroke="black" stroke-width="1"/>
</svg>