<?xml version="1.0" encoding="UTF-8"?>
<svg xmlns="http://www.w3.org/2000/svg" viewBox="214.00 321.00 919.00 1485.00">
  <path d="M 382.00 969.00 L 374.00 903.00 L 356.00 856.00 L 328.00 828.00 L 335.00 785.00 L 377.00 727.00 L 389.00 685.00 L 371.00 659.00 L 372.00 656.00 L 392.00 676.00 L 394.00 672.00 L 378.00 644.00 L 379.00 642.00 L 397.00 666.00 L 399.00 655.00 L 385.00 609.00 L 386.00 597.00 L 402.00 619.00 L 403.00 616.00 L 389.00 588.00 L 390.00 585.00 L 406.00 607.00 L 407.00 605.00 L 393.00 579.00 L 394.00 575.00 L 410.00 593.00 L 412.00 590.00 L 400.00 566.00 L 401.00 563.00 L 415.00 581.00 L 417.00 579.00 L 407.00 557.00 L 407.00 555.00 L 417.00 573.00 L 419.00 570.00 L 413.00 546.00 L 415.00 541.00 L 425.00 555.00 L 427.00 552.00 L 421.00 532.00 L 423.00 529.00 L 433.00 543.00 L 434.00 540.00 L 426.00 520.00 L 427.00 518.00 L 437.00 534.00 L 438.00 532.00 L 430.00 512.00 L 431.00 511.00 L 441.00 529.00 L 449.00 520.00 L 455.00 484.00 L 463.00 472.00 L 473.00 484.00 L 476.00 481.00 L 472.00 463.00 L 507.00 433.00 L 581.00 391.00 L 663.00 371.00 L 753.00 373.00 L 801.00 367.00 L 807.00 353.00 L 809.00 353.00 L 807.00 367.00 L 812.00 361.00 L 824.00 335.00 L 830.00 337.00 L 830.00 367.00 L 835.00 367.00 L 845.00 337.00 L 847.00 338.00 L 841.00 370.00 L 846.00 370.00 L 862.00 338.00 L 865.00 339.00 L 855.00 373.00 L 857.00 373.00 L 871.00 339.00 L 874.00 340.00 L 866.00 376.00 L 869.00 376.00 L 883.00 340.00 L 886.00 340.00 L 878.00 376.00 L 881.00 376.00 L 895.00 340.00 L 923.00 331.00 L 965.00 349.00 L 998.00 393.00 L 1022.00 463.00 L 1047.00 504.00 L 1073.00 516.00 L 1096.00 569.00 L 1116.00 663.00 L 1123.00 740.00 L 1117.00 800.00 L 1104.00 849.00 L 1084.00 887.00 L 1024.00 918.00 L 924.00 942.00 L 923.00 944.00 L 1021.00 924.00 L 1020.00 926.00 L 920.00 950.00 L 917.00 953.00 L 1011.00 935.00 L 1009.00 938.00 L 911.00 962.00 L 901.00 969.00 L 979.00 959.00 L 976.00 967.00 L 892.00 993.00 L 881.00 1123.00 L 943.00 1357.00 L 965.00 1482.00 L 947.00 1498.00 L 889.00 1514.00 L 791.00 1530.00 L 675.00 1560.00 L 541.00 1604.00 L 423.00 1670.00 L 321.00 1758.00 L 266.00 1796.00 L 258.00 1784.00 L 318.00 1649.00 L 446.00 1391.00 L 446.00 1388.00 L 318.00 1640.00 L 317.00 1641.00 L 443.00 1391.00 L 444.00 1386.00 L 320.00 1626.00 L 321.00 1623.00 L 447.00 1377.00 L 447.00 1375.00 L 321.00 1617.00 L 312.00 1634.00 L 420.00 1426.00 L 421.00 1421.00 L 315.00 1619.00 L 326.00 1597.00 L 454.00 1355.00 L 454.00 1352.00 L 326.00 1588.00 L 327.00 1585.00 L 457.00 1343.00 L 457.00 1341.00 L 327.00 1579.00 L 327.00 1577.00 L 457.00 1335.00 L 453.00 1333.00 L 315.00 1571.00 L 315.00 1568.00 L 453.00 1324.00 L 452.00 1318.00 L 312.00 1550.00 L 283.00 1596.00 L 365.00 1456.00 L 363.00 1450.00 L 277.00 1578.00 L 306.00 1528.00 L 450.00 1300.00 L 449.00 1297.00 L 303.00 1519.00 L 303.00 1518.00 L 449.00 1294.00 L 449.00 1290.00 L 303.00 1506.00 L 263.00 1563.00 L 329.00 1461.00 L 328.00 1459.00 L 260.00 1557.00 L 258.00 1558.00 L 322.00 1462.00 L 322.00 1456.00 L 258.00 1540.00 L 300.00 1479.00 L 448.00 1273.00 L 448.00 1271.00 L 300.00 1473.00 L 300.00 1471.00 L 448.00 1265.00 L 445.00 1260.00 L 291.00 1456.00 L 231.00 1531.00 L 265.00 1485.00 L 264.00 1483.00 L 228.00 1525.00 L 224.00 1523.00 L 252.00 1477.00 L 329.00 1378.00 L 455.00 1226.00 L 515.00 1140.00 L 509.00 1120.00 L 477.00 1095.00 L 419.00 1065.00 L 388.00 1040.00 L 384.00 1020.00 L 383.00 1008.00 L 385.00 1004.00 L 382.00 969.00 Z" fill="black" stroke="black" stroke-width="1"/>
</svg>