<?xml version="1.0" encoding="UTF-8"?>
<svg xmlns="http://www.w3.org/2000/svg" viewBox="272.00 236.00 836.00 1526.00">
  <path d="M 530.00 943.00 L 538.00 913.00 L 541.00 893.00 L 539.00 883.00 L 524.00 865.00 L 496.00 839.00 L 459.00 810.00 L 413.00 778.00 L 411.00 775.00 L 453.00 801.00 L 441.00 792.00 L 375.00 748.00 L 374.00 746.00 L 438.00 786.00 L 435.00 783.00 L 365.00 737.00 L 364.00 736.00 L 432.00 780.00 L 430.00 778.00 L 358.00 730.00 L 357.00 729.00 L 427.00 775.00 L 425.00 773.00 L 351.00 723.00 L 345.00 718.00 L 407.00 758.00 L 406.00 756.00 L 342.00 712.00 L 347.00 715.00 L 421.00 765.00 L 419.00 763.00 L 341.00 709.00 L 339.00 707.00 L 413.00 757.00 L 413.00 756.00 L 339.00 704.00 L 301.00 676.00 L 299.00 672.00 L 294.00 652.00 L 286.00 616.00 L 282.00 588.00 L 282.00 568.00 L 284.00 545.00 L 288.00 519.00 L 296.00 491.00 L 308.00 461.00 L 339.00 414.00 L 389.00 350.00 L 421.00 313.00 L 435.00 303.00 L 444.00 298.00 L 448.00 298.00 L 451.00 300.00 L 453.00 304.00 L 463.00 295.00 L 481.00 273.00 L 497.00 258.00 L 511.00 250.00 L 520.00 246.00 L 524.00 246.00 L 530.00 256.00 L 538.00 276.00 L 540.00 276.00 L 536.00 256.00 L 538.00 256.00 L 546.00 276.00 L 548.00 277.00 L 544.00 259.00 L 546.00 258.00 L 554.00 274.00 L 574.00 277.00 L 606.00 267.00 L 646.00 262.00 L 694.00 262.00 L 750.00 271.00 L 814.00 289.00 L 858.00 304.00 L 882.00 316.00 L 903.00 328.00 L 921.00 340.00 L 943.00 361.00 L 969.00 391.00 L 990.00 435.00 L 1006.00 493.00 L 1014.00 538.00 L 1014.00 570.00 L 1013.00 588.00 L 1011.00 592.00 L 1011.00 600.00 L 1013.00 612.00 L 1019.00 628.00 L 1029.00 648.00 L 1044.00 669.00 L 1064.00 691.00 L 1076.00 707.00 L 1080.00 717.00 L 1081.00 727.00 L 1079.00 737.00 L 1067.00 749.00 L 1045.00 763.00 L 1043.00 765.00 L 1061.00 755.00 L 1058.00 759.00 L 1034.00 777.00 L 1024.00 796.00 L 1028.00 816.00 L 1026.00 830.00 L 1018.00 838.00 L 1015.00 846.00 L 1017.00 854.00 L 1014.00 865.00 L 1006.00 879.00 L 1006.00 894.00 L 1014.00 910.00 L 1017.00 929.00 L 1015.00 951.00 L 1006.00 968.00 L 990.00 980.00 L 970.00 990.00 L 946.00 998.00 L 925.00 1003.00 L 907.00 1005.00 L 893.00 1010.00 L 883.00 1018.00 L 871.00 1029.00 L 857.00 1043.00 L 846.00 1058.00 L 838.00 1074.00 L 832.00 1091.00 L 828.00 1109.00 L 826.00 1120.00 L 826.00 1124.00 L 887.00 1218.00 L 1009.00 1402.00 L 1009.00 1405.00 L 887.00 1227.00 L 888.00 1229.00 L 1012.00 1411.00 L 1060.00 1482.00 L 1032.00 1442.00 L 1037.00 1451.00 L 1075.00 1509.00 L 1070.00 1504.00 L 1022.00 1436.00 L 1023.00 1440.00 L 1073.00 1516.00 L 1068.00 1510.00 L 1008.00 1422.00 L 1008.00 1424.00 L 1068.00 1516.00 L 1030.00 1458.00 L 894.00 1250.00 L 895.00 1253.00 L 1033.00 1467.00 L 1067.00 1521.00 L 997.00 1415.00 L 997.00 1418.00 L 1067.00 1530.00 L 1063.00 1525.00 L 985.00 1403.00 L 985.00 1405.00 L 1063.00 1531.00 L 1061.00 1529.00 L 979.00 1399.00 L 980.00 1401.00 L 1064.00 1535.00 L 1036.00 1491.00 L 896.00 1269.00 L 895.00 1272.00 L 1033.00 1500.00 L 1050.00 1530.00 L 946.00 1362.00 L 946.00 1365.00 L 1050.00 1539.00 L 1048.00 1536.00 L 940.00 1356.00 L 940.00 1359.00 L 1048.00 1545.00 L 1034.00 1523.00 L 898.00 1293.00 L 897.00 1295.00 L 1031.00 1529.00 L 1098.00 1647.00 L 1098.00 1649.00 L 1036.00 1543.00 L 912.00 1329.00 L 911.00 1332.00 L 1033.00 1552.00 L 1028.00 1544.00 L 896.00 1308.00 L 895.00 1311.00 L 1025.00 1553.00 L 1085.00 1682.00 L 1075.00 1698.00 L 1056.00 1718.00 L 1028.00 1742.00 L 1009.00 1752.00 L 999.00 1748.00 L 952.00 1715.00 L 868.00 1653.00 L 803.00 1607.00 L 757.00 1577.00 L 694.00 1539.00 L 614.00 1493.00 L 531.00 1453.00 L 445.00 1419.00 L 398.00 1402.00 L 390.00 1402.00 L 370.00 1397.00 L 338.00 1387.00 L 331.00 1356.00 L 349.00 1304.00 L 363.00 1259.00 L 373.00 1221.00 L 388.00 1185.00 L 408.00 1151.00 L 424.00 1116.00 L 436.00 1080.00 L 447.00 1056.00 L 457.00 1044.00 L 469.00 1023.00 L 483.00 993.00 L 492.00 976.00 L 496.00 972.00 L 503.00 969.00 L 513.00 967.00 L 515.00 966.00 L 509.00 966.00 L 511.00 964.00 L 521.00 960.00 L 530.00 943.00 Z" fill="black" stroke="black" stroke-width="1"/>
</svg>