<?xml version="1.0" encoding="UTF-8"?>
<svg xmlns="http://www.w3.org/2000/svg" viewBox="386.00 241.00 863.00 1465.00">
  <path d="M 561.00 957.00 L 571.00 947.00 L 576.00 927.00 L 576.00 897.00 L 561.00 874.00 L 531.00 858.00 L 519.00 851.00 L 525.00 853.00 L 514.00 844.00 L 486.00 824.00 L 462.00 802.00 L 442.00 778.00 L 423.00 741.00 L 405.00 691.00 L 396.00 643.00 L 396.00 597.00 L 405.00 550.00 L 423.00 502.00 L 456.00 449.00 L 504.00 391.00 L 538.00 342.00 L 558.00 302.00 L 572.00 278.00 L 580.00 270.00 L 591.00 273.00 L 605.00 287.00 L 619.00 286.00 L 633.00 270.00 L 650.00 259.00 L 670.00 253.00 L 683.00 251.00 L 689.00 253.00 L 695.00 263.00 L 701.00 281.00 L 704.00 283.00 L 704.00 269.00 L 706.00 269.00 L 710.00 283.00 L 728.00 286.00 L 760.00 278.00 L 788.00 275.00 L 812.00 277.00 L 849.00 285.00 L 899.00 299.00 L 942.00 315.00 L 978.00 333.00 L 997.00 346.00 L 999.00 354.00 L 1003.00 357.00 L 1009.00 355.00 L 1020.00 361.00 L 1036.00 375.00 L 1056.00 397.00 L 1080.00 427.00 L 1095.00 461.00 L 1101.00 499.00 L 1100.00 528.00 L 1092.00 548.00 L 1093.00 551.00 L 1103.00 537.00 L 1102.00 542.00 L 1090.00 566.00 L 1092.00 568.00 L 1108.00 548.00 L 1108.00 551.00 L 1092.00 577.00 L 1093.00 578.00 L 1111.00 554.00 L 1110.00 559.00 L 1090.00 593.00 L 1099.00 641.00 L 1137.00 703.00 L 1145.00 744.00 L 1123.00 764.00 L 1121.00 768.00 L 1139.00 756.00 L 1138.00 759.00 L 1118.00 777.00 L 1110.00 796.00 L 1114.00 816.00 L 1111.00 831.00 L 1101.00 841.00 L 1099.00 845.00 L 1105.00 843.00 L 1098.00 861.00 L 1078.00 899.00 L 1069.00 930.00 L 1071.00 954.00 L 1069.00 973.00 L 1063.00 987.00 L 1041.00 1007.00 L 1003.00 1033.00 L 967.00 1051.00 L 933.00 1061.00 L 989.00 1157.00 L 1135.00 1339.00 L 1201.00 1422.00 L 1187.00 1406.00 L 1189.00 1409.00 L 1207.00 1431.00 L 1201.00 1424.00 L 1171.00 1388.00 L 1174.00 1393.00 L 1210.00 1439.00 L 1201.00 1429.00 L 1147.00 1363.00 L 1148.00 1365.00 L 1204.00 1435.00 L 1201.00 1432.00 L 1139.00 1356.00 L 1141.00 1361.00 L 1207.00 1447.00 L 1157.00 1385.00 L 991.00 1175.00 L 988.00 1173.00 L 1148.00 1379.00 L 1189.00 1433.00 L 1111.00 1335.00 L 1115.00 1342.00 L 1201.00 1454.00 L 1197.00 1450.00 L 1103.00 1330.00 L 1103.00 1332.00 L 1197.00 1456.00 L 1191.00 1449.00 L 1085.00 1311.00 L 1086.00 1315.00 L 1194.00 1461.00 L 1191.00 1458.00 L 1077.00 1306.00 L 1077.00 1309.00 L 1191.00 1467.00 L 1162.00 1428.00 L 990.00 1192.00 L 990.00 1194.00 L 1162.00 1434.00 L 1189.00 1472.00 L 1071.00 1308.00 L 1071.00 1310.00 L 1189.00 1478.00 L 1187.00 1476.00 L 1065.00 1304.00 L 1065.00 1307.00 L 1187.00 1485.00 L 1184.00 1482.00 L 1056.00 1298.00 L 1056.00 1300.00 L 1184.00 1488.00 L 1181.00 1485.00 L 1047.00 1291.00 L 1047.00 1294.00 L 1181.00 1494.00 L 1182.00 1496.00 L 1050.00 1300.00 L 1049.00 1303.00 L 1179.00 1505.00 L 1175.00 1501.00 L 1037.00 1291.00 L 1036.00 1294.00 L 1172.00 1510.00 L 1239.00 1621.00 L 1237.00 1627.00 L 1166.00 1517.00 L 1026.00 1291.00 L 1025.00 1293.00 L 1163.00 1523.00 L 1161.00 1521.00 L 1019.00 1287.00 L 1018.00 1289.00 L 1158.00 1527.00 L 1157.00 1526.00 L 1015.00 1286.00 L 1014.00 1288.00 L 1154.00 1532.00 L 1222.00 1656.00 L 1218.00 1660.00 L 1135.00 1518.00 L 973.00 1230.00 L 971.00 1232.00 L 1129.00 1524.00 L 1203.00 1674.00 L 1193.00 1682.00 L 1119.00 1549.00 L 981.00 1275.00 L 980.00 1276.00 L 1116.00 1552.00 L 1181.00 1692.00 L 1175.00 1696.00 L 1101.00 1548.00 L 959.00 1248.00 L 957.00 1250.00 L 1095.00 1554.00 L 1097.00 1560.00 L 963.00 1268.00 L 961.00 1270.00 L 1091.00 1566.00 L 1089.00 1562.00 L 955.00 1258.00 L 951.00 1260.00 L 1077.00 1568.00 L 1077.00 1570.00 L 951.00 1266.00 L 948.00 1265.00 L 1068.00 1567.00 L 1094.00 1692.00 L 1026.00 1640.00 L 933.00 1577.00 L 815.00 1503.00 L 715.00 1447.00 L 633.00 1409.00 L 549.00 1380.00 L 463.00 1360.00 L 428.00 1311.00 L 444.00 1233.00 L 465.00 1170.00 L 491.00 1122.00 L 516.00 1067.00 L 540.00 1005.00 L 553.00 971.00 L 555.00 965.00 L 561.00 957.00 Z" fill="black" stroke="black" stroke-width="1"/>
</svg>