<?xml version="1.0" encoding="UTF-8"?>
<svg xmlns="http://www.w3.org/2000/svg" viewBox="337.00 279.00 806.00 1481.00">
  <path d="M 421.00 1022.00 L 379.00 1018.00 L 382.00 1015.00 L 430.00 1013.00 L 435.00 1010.00 L 397.00 1006.00 L 398.00 1003.00 L 438.00 1001.00 L 440.00 996.00 L 404.00 988.00 L 405.00 985.00 L 443.00 987.00 L 443.00 984.00 L 405.00 976.00 L 403.00 973.00 L 437.00 975.00 L 436.00 972.00 L 400.00 964.00 L 402.00 964.00 L 442.00 972.00 L 443.00 967.00 L 405.00 949.00 L 406.00 945.00 L 446.00 955.00 L 447.00 952.00 L 409.00 936.00 L 410.00 934.00 L 450.00 946.00 L 450.00 944.00 L 410.00 928.00 L 383.00 858.00 L 369.00 734.00 L 366.00 639.00 L 374.00 573.00 L 393.00 508.00 L 423.00 444.00 L 468.00 386.00 L 528.00 334.00 L 577.00 303.00 L 615.00 293.00 L 668.00 289.00 L 736.00 291.00 L 804.00 307.00 L 872.00 337.00 L 918.00 362.00 L 942.00 382.00 L 954.00 399.00 L 954.00 413.00 L 957.00 416.00 L 963.00 408.00 L 967.00 415.00 L 969.00 437.00 L 974.00 443.00 L 982.00 433.00 L 984.00 439.00 L 980.00 461.00 L 982.00 464.00 L 990.00 448.00 L 991.00 450.00 L 985.00 470.00 L 987.00 472.00 L 997.00 456.00 L 998.00 459.00 L 990.00 481.00 L 991.00 485.00 L 1001.00 471.00 L 1002.00 474.00 L 994.00 494.00 L 995.00 516.00 L 1005.00 540.00 L 1009.00 565.00 L 1007.00 591.00 L 1016.00 615.00 L 1036.00 637.00 L 1042.00 654.00 L 1034.00 666.00 L 1035.00 668.00 L 1045.00 660.00 L 1046.00 662.00 L 1038.00 674.00 L 1040.00 675.00 L 1052.00 665.00 L 1055.00 665.00 L 1049.00 675.00 L 1056.00 679.00 L 1076.00 677.00 L 1094.00 687.00 L 1110.00 709.00 L 1104.00 738.00 L 1076.00 774.00 L 1053.00 844.00 L 1035.00 948.00 L 1005.00 1007.00 L 963.00 1021.00 L 951.00 1034.00 L 969.00 1046.00 L 969.00 1062.00 L 951.00 1082.00 L 949.00 1095.00 L 963.00 1101.00 L 962.00 1104.00 L 946.00 1104.00 L 947.00 1107.00 L 965.00 1113.00 L 973.00 1119.00 L 971.00 1125.00 L 956.00 1130.00 L 928.00 1134.00 L 958.00 1208.00 L 1046.00 1352.00 L 1101.00 1469.00 L 1123.00 1559.00 L 1133.00 1622.00 L 1131.00 1658.00 L 1122.00 1690.00 L 1106.00 1718.00 L 1085.00 1737.00 L 1059.00 1747.00 L 1035.00 1750.00 L 1013.00 1746.00 L 943.00 1710.00 L 825.00 1642.00 L 717.00 1588.00 L 619.00 1548.00 L 512.00 1522.00 L 396.00 1510.00 L 347.00 1462.00 L 365.00 1378.00 L 385.00 1318.00 L 407.00 1282.00 L 408.00 1271.00 L 388.00 1285.00 L 385.00 1283.00 L 399.00 1265.00 L 395.00 1263.00 L 373.00 1277.00 L 373.00 1271.00 L 395.00 1245.00 L 395.00 1239.00 L 373.00 1253.00 L 373.00 1251.00 L 395.00 1233.00 L 396.00 1230.00 L 376.00 1242.00 L 377.00 1240.00 L 399.00 1224.00 L 400.00 1222.00 L 380.00 1234.00 L 380.00 1231.00 L 400.00 1213.00 L 400.00 1210.00 L 380.00 1222.00 L 378.00 1221.00 L 394.00 1207.00 L 395.00 1204.00 L 381.00 1212.00 L 385.00 1207.00 L 407.00 1189.00 L 408.00 1183.00 L 388.00 1189.00 L 388.00 1186.00 L 408.00 1174.00 L 409.00 1170.00 L 391.00 1174.00 L 392.00 1171.00 L 412.00 1161.00 L 413.00 1158.00 L 395.00 1162.00 L 399.00 1154.00 L 425.00 1134.00 L 423.00 1129.00 L 393.00 1139.00 L 394.00 1137.00 L 426.00 1123.00 L 423.00 1121.00 L 385.00 1131.00 L 387.00 1128.00 L 429.00 1112.00 L 428.00 1109.00 L 384.00 1119.00 L 385.00 1115.00 L 431.00 1097.00 L 433.00 1091.00 L 391.00 1097.00 L 391.00 1094.00 L 433.00 1082.00 L 433.00 1079.00 L 391.00 1085.00 L 386.00 1083.00 L 418.00 1073.00 L 426.00 1069.00 L 410.00 1071.00 L 415.00 1070.00 L 441.00 1066.00 L 433.00 1067.00 L 391.00 1073.00 L 390.00 1070.00 L 430.00 1058.00 L 429.00 1051.00 L 387.00 1049.00 L 387.00 1046.00 L 429.00 1042.00 L 427.00 1040.00 L 381.00 1040.00 L 382.00 1037.00 L 430.00 1031.00 L 429.00 1028.00 L 379.00 1028.00 L 376.00 1027.00 L 420.00 1025.00 L 421.00 1022.00 Z" fill="black" stroke="black" stroke-width="1"/>
</svg>