<?xml version="1.0" encoding="UTF-8"?>
<svg xmlns="http://www.w3.org/2000/svg" viewBox="281.00 291.00 877.00 1517.00">
  <path d="M 429.00 1015.00 L 435.00 985.00 L 443.00 963.00 L 453.00 949.00 L 452.00 936.00 L 440.00 924.00 L 431.00 906.00 L 425.00 882.00 L 403.00 842.00 L 365.00 786.00 L 339.00 735.00 L 325.00 689.00 L 318.00 651.00 L 318.00 621.00 L 323.00 585.00 L 333.00 543.00 L 345.00 505.00 L 359.00 471.00 L 374.00 443.00 L 390.00 421.00 L 407.00 401.00 L 425.00 383.00 L 461.00 359.00 L 515.00 329.00 L 554.00 312.00 L 578.00 308.00 L 597.00 307.00 L 611.00 309.00 L 627.00 307.00 L 645.00 301.00 L 698.00 304.00 L 786.00 316.00 L 837.00 326.00 L 851.00 334.00 L 863.00 344.00 L 873.00 356.00 L 882.00 362.00 L 890.00 362.00 L 894.00 365.00 L 894.00 371.00 L 896.00 372.00 L 900.00 368.00 L 903.00 369.00 L 905.00 375.00 L 908.00 376.00 L 912.00 372.00 L 915.00 373.00 L 917.00 379.00 L 921.00 381.00 L 927.00 379.00 L 943.00 392.00 L 969.00 420.00 L 982.00 440.00 L 982.00 452.00 L 984.00 453.00 L 988.00 443.00 L 991.00 439.00 L 993.00 441.00 L 993.00 451.00 L 991.00 469.00 L 994.00 470.00 L 1002.00 454.00 L 1003.00 456.00 L 997.00 476.00 L 999.00 479.00 L 1009.00 465.00 L 1010.00 467.00 L 1002.00 485.00 L 1003.00 486.00 L 1013.00 470.00 L 1014.00 473.00 L 1006.00 495.00 L 1007.00 497.00 L 1017.00 479.00 L 1018.00 483.00 L 1010.00 509.00 L 1015.00 535.00 L 1033.00 561.00 L 1045.00 590.00 L 1051.00 622.00 L 1064.00 649.00 L 1084.00 671.00 L 1108.00 703.00 L 1136.00 745.00 L 1148.00 771.00 L 1144.00 781.00 L 1131.00 793.00 L 1109.00 807.00 L 1106.00 810.00 L 1122.00 802.00 L 1121.00 805.00 L 1103.00 819.00 L 1093.00 839.00 L 1091.00 865.00 L 1086.00 881.00 L 1078.00 887.00 L 1069.00 900.00 L 1059.00 920.00 L 1057.00 943.00 L 1063.00 969.00 L 1064.00 988.00 L 1060.00 1000.00 L 1056.00 1009.00 L 1052.00 1015.00 L 1029.00 1027.00 L 987.00 1045.00 L 974.00 1058.00 L 990.00 1066.00 L 1001.00 1074.00 L 1007.00 1082.00 L 1002.00 1092.00 L 986.00 1104.00 L 975.00 1115.00 L 969.00 1125.00 L 974.00 1135.00 L 990.00 1145.00 L 990.00 1148.00 L 974.00 1144.00 L 974.00 1146.00 L 990.00 1154.00 L 988.00 1154.00 L 968.00 1146.00 L 966.00 1149.00 L 982.00 1163.00 L 985.00 1171.00 L 975.00 1173.00 L 974.00 1178.00 L 982.00 1186.00 L 1005.00 1203.00 L 1043.00 1229.00 L 1044.00 1231.00 L 1008.00 1209.00 L 1007.00 1210.00 L 1041.00 1234.00 L 1045.00 1239.00 L 1019.00 1225.00 L 1017.00 1226.00 L 1039.00 1242.00 L 1037.00 1241.00 L 1011.00 1223.00 L 1008.00 1223.00 L 1028.00 1241.00 L 1030.00 1245.00 L 1014.00 1235.00 L 1012.00 1235.00 L 1024.00 1245.00 L 1018.00 1246.00 L 994.00 1238.00 L 981.00 1237.00 L 979.00 1243.00 L 981.00 1251.00 L 987.00 1261.00 L 987.00 1264.00 L 981.00 1260.00 L 984.00 1267.00 L 996.00 1285.00 L 996.00 1289.00 L 984.00 1279.00 L 985.00 1282.00 L 999.00 1298.00 L 1006.00 1311.00 L 1006.00 1321.00 L 1016.00 1344.00 L 1036.00 1380.00 L 1062.00 1444.00 L 1094.00 1536.00 L 1112.00 1612.00 L 1116.00 1672.00 L 1114.00 1716.00 L 1106.00 1744.00 L 1095.00 1765.00 L 1081.00 1779.00 L 1062.00 1790.00 L 1038.00 1798.00 L 1013.00 1798.00 L 987.00 1790.00 L 950.00 1773.00 L 902.00 1747.00 L 858.00 1719.00 L 818.00 1689.00 L 772.00 1659.00 L 720.00 1629.00 L 653.00 1597.00 L 571.00 1563.00 L 492.00 1537.00 L 416.00 1519.00 L 373.00 1511.00 L 363.00 1513.00 L 349.00 1511.00 L 331.00 1505.00 L 314.00 1503.00 L 298.00 1505.00 L 291.00 1494.00 L 293.00 1470.00 L 301.00 1431.00 L 315.00 1377.00 L 327.00 1338.00 L 337.00 1314.00 L 354.00 1283.00 L 378.00 1245.00 L 391.00 1218.00 L 393.00 1202.00 L 400.00 1183.00 L 412.00 1161.00 L 416.00 1136.00 L 412.00 1108.00 L 413.00 1081.00 L 419.00 1055.00 L 423.00 1039.00 L 425.00 1033.00 L 429.00 1015.00 Z" fill="black" stroke="black" stroke-width="1"/>
</svg>