<?xml version="1.0" encoding="UTF-8"?>
<svg xmlns="http://www.w3.org/2000/svg" viewBox="269.00 245.00 871.00 1482.00">
  <path d="M 389.00 971.00 L 395.00 941.00 L 402.00 915.00 L 410.00 893.00 L 420.00 876.00 L 432.00 864.00 L 414.00 812.00 L 366.00 720.00 L 338.00 659.00 L 330.00 629.00 L 325.00 603.00 L 323.00 581.00 L 322.00 558.00 L 322.00 534.00 L 325.00 508.00 L 331.00 480.00 L 344.00 446.00 L 364.00 406.00 L 394.00 368.00 L 434.00 332.00 L 468.00 307.00 L 496.00 293.00 L 526.00 282.00 L 558.00 274.00 L 585.00 268.00 L 607.00 264.00 L 625.00 262.00 L 639.00 262.00 L 647.00 264.00 L 649.00 268.00 L 655.00 270.00 L 665.00 270.00 L 684.00 266.00 L 712.00 258.00 L 730.00 255.00 L 738.00 257.00 L 750.00 257.00 L 766.00 255.00 L 779.00 257.00 L 789.00 263.00 L 803.00 267.00 L 821.00 269.00 L 833.00 272.00 L 839.00 276.00 L 847.00 278.00 L 857.00 278.00 L 868.00 281.00 L 880.00 287.00 L 906.00 312.00 L 946.00 356.00 L 974.00 393.00 L 990.00 423.00 L 1000.00 452.00 L 1004.00 480.00 L 1005.00 513.00 L 1003.00 551.00 L 1005.00 575.00 L 1011.00 585.00 L 1034.00 608.00 L 1074.00 644.00 L 1097.00 669.00 L 1103.00 683.00 L 1106.00 692.00 L 1106.00 696.00 L 1091.00 710.00 L 1061.00 734.00 L 1049.00 745.00 L 1055.00 743.00 L 1053.00 746.00 L 1043.00 754.00 L 1055.00 746.00 L 1089.00 722.00 L 1096.00 718.00 L 1076.00 734.00 L 1074.00 737.00 L 1090.00 727.00 L 1082.00 734.00 L 1050.00 758.00 L 1048.00 760.00 L 1076.00 740.00 L 1076.00 743.00 L 1048.00 769.00 L 1036.00 786.00 L 1040.00 794.00 L 1038.00 802.00 L 1030.00 810.00 L 1029.00 817.00 L 1035.00 823.00 L 1038.00 828.00 L 1038.00 832.00 L 1033.00 841.00 L 1023.00 855.00 L 1020.00 863.00 L 1024.00 865.00 L 1030.00 875.00 L 1038.00 893.00 L 1039.00 911.00 L 1033.00 929.00 L 1018.00 948.00 L 994.00 968.00 L 977.00 986.00 L 967.00 1002.00 L 968.00 1014.00 L 980.00 1022.00 L 986.00 1028.00 L 986.00 1032.00 L 980.00 1041.00 L 968.00 1055.00 L 971.00 1067.00 L 989.00 1077.00 L 988.00 1079.00 L 968.00 1073.00 L 961.00 1072.00 L 967.00 1076.00 L 967.00 1077.00 L 961.00 1075.00 L 968.00 1079.00 L 988.00 1089.00 L 987.00 1091.00 L 965.00 1085.00 L 964.00 1087.00 L 984.00 1097.00 L 992.00 1103.00 L 988.00 1105.00 L 988.00 1108.00 L 992.00 1112.00 L 991.00 1113.00 L 985.00 1111.00 L 987.00 1113.00 L 997.00 1119.00 L 1004.00 1126.00 L 1008.00 1134.00 L 1017.00 1143.00 L 1031.00 1153.00 L 1032.00 1155.00 L 1020.00 1149.00 L 1022.00 1151.00 L 1038.00 1161.00 L 1026.00 1155.00 L 986.00 1133.00 L 979.00 1130.00 L 1005.00 1146.00 L 1009.00 1150.00 L 991.00 1142.00 L 996.00 1147.00 L 1024.00 1165.00 L 1018.00 1162.00 L 978.00 1138.00 L 975.00 1138.00 L 1009.00 1162.00 L 1010.00 1165.00 L 978.00 1147.00 L 975.00 1147.00 L 1001.00 1165.00 L 1003.00 1167.00 L 981.00 1153.00 L 976.00 1156.00 L 988.00 1176.00 L 999.00 1202.00 L 1009.00 1234.00 L 1022.00 1264.00 L 1038.00 1292.00 L 1063.00 1347.00 L 1097.00 1429.00 L 1113.00 1469.00 L 1111.00 1467.00 L 1115.00 1486.00 L 1125.00 1526.00 L 1130.00 1570.00 L 1130.00 1618.00 L 1124.00 1652.00 L 1112.00 1672.00 L 1102.00 1686.00 L 1094.00 1694.00 L 1078.00 1703.00 L 1054.00 1713.00 L 1033.00 1717.00 L 1015.00 1715.00 L 980.00 1699.00 L 928.00 1669.00 L 867.00 1629.00 L 797.00 1579.00 L 712.00 1531.00 L 612.00 1485.00 L 532.00 1453.00 L 472.00 1435.00 L 420.00 1423.00 L 376.00 1417.00 L 339.00 1414.00 L 309.00 1414.00 L 289.00 1412.00 L 279.00 1408.00 L 282.00 1364.00 L 298.00 1280.00 L 323.00 1198.00 L 357.00 1118.00 L 373.00 1071.00 L 371.00 1057.00 L 373.00 1037.00 L 379.00 1011.00 L 383.00 995.00 L 385.00 989.00 L 389.00 971.00 Z" fill="black" stroke="black" stroke-width="1"/>
</svg>