<?xml version="1.0" encoding="UTF-8"?>
<svg xmlns="http://www.w3.org/2000/svg" viewBox="251.00 204.00 909.00 1271.00">
  <path d="M 343.00 812.00 L 337.00 776.00 L 321.00 745.00 L 295.00 719.00 L 301.00 681.00 L 339.00 631.00 L 351.00 598.00 L 337.00 582.00 L 338.00 579.00 L 354.00 589.00 L 355.00 586.00 L 341.00 570.00 L 341.00 568.00 L 355.00 580.00 L 354.00 568.00 L 338.00 532.00 L 337.00 521.00 L 351.00 535.00 L 352.00 532.00 L 340.00 512.00 L 340.00 507.00 L 352.00 517.00 L 353.00 516.00 L 343.00 504.00 L 345.00 500.00 L 359.00 504.00 L 361.00 499.00 L 351.00 485.00 L 351.00 483.00 L 361.00 493.00 L 362.00 487.00 L 354.00 465.00 L 355.00 460.00 L 365.00 472.00 L 366.00 470.00 L 358.00 454.00 L 359.00 452.00 L 369.00 464.00 L 370.00 461.00 L 362.00 443.00 L 364.00 437.00 L 376.00 443.00 L 379.00 439.00 L 373.00 425.00 L 374.00 422.00 L 382.00 430.00 L 383.00 427.00 L 377.00 413.00 L 378.00 410.00 L 386.00 418.00 L 389.00 412.00 L 387.00 392.00 L 423.00 357.00 L 497.00 307.00 L 568.00 270.00 L 636.00 246.00 L 718.00 238.00 L 814.00 246.00 L 869.00 239.00 L 883.00 217.00 L 886.00 218.00 L 878.00 242.00 L 879.00 241.00 L 889.00 215.00 L 891.00 214.00 L 885.00 238.00 L 889.00 238.00 L 903.00 214.00 L 904.00 217.00 L 892.00 247.00 L 895.00 248.00 L 913.00 220.00 L 940.00 218.00 L 976.00 242.00 L 1000.00 274.00 L 1012.00 314.00 L 1024.00 332.00 L 1036.00 328.00 L 1043.00 344.00 L 1045.00 380.00 L 1057.00 404.00 L 1079.00 416.00 L 1102.00 445.00 L 1126.00 491.00 L 1142.00 532.00 L 1150.00 568.00 L 1150.00 599.00 L 1142.00 625.00 L 1119.00 648.00 L 1081.00 668.00 L 1077.00 673.00 L 1107.00 663.00 L 1096.00 674.00 L 1044.00 706.00 L 999.00 754.00 L 961.00 818.00 L 929.00 852.00 L 903.00 856.00 L 901.00 859.00 L 923.00 861.00 L 921.00 862.00 L 895.00 862.00 L 893.00 865.00 L 915.00 871.00 L 914.00 874.00 L 890.00 874.00 L 884.00 875.00 L 896.00 877.00 L 896.00 878.00 L 884.00 878.00 L 876.00 884.00 L 872.00 896.00 L 873.00 930.00 L 879.00 986.00 L 894.00 1045.00 L 918.00 1107.00 L 937.00 1174.00 L 951.00 1246.00 L 913.00 1284.00 L 823.00 1288.00 L 713.00 1310.00 L 583.00 1350.00 L 530.00 1318.00 L 554.00 1214.00 L 552.00 1215.00 L 524.00 1321.00 L 524.00 1315.00 L 552.00 1197.00 L 550.00 1198.00 L 518.00 1318.00 L 519.00 1310.00 L 553.00 1174.00 L 547.00 1176.00 L 501.00 1316.00 L 500.00 1313.00 L 544.00 1167.00 L 542.00 1168.00 L 494.00 1316.00 L 494.00 1314.00 L 542.00 1162.00 L 540.00 1163.00 L 488.00 1317.00 L 488.00 1314.00 L 540.00 1154.00 L 535.00 1156.00 L 473.00 1320.00 L 472.00 1318.00 L 532.00 1150.00 L 527.00 1153.00 L 457.00 1327.00 L 456.00 1325.00 L 524.00 1147.00 L 522.00 1148.00 L 450.00 1328.00 L 428.00 1382.00 L 456.00 1310.00 L 454.00 1311.00 L 422.00 1385.00 L 420.00 1387.00 L 448.00 1317.00 L 443.00 1320.00 L 405.00 1396.00 L 428.00 1337.00 L 512.00 1143.00 L 510.00 1144.00 L 422.00 1340.00 L 392.00 1403.00 L 420.00 1333.00 L 414.00 1337.00 L 374.00 1415.00 L 403.00 1350.00 L 501.00 1142.00 L 499.00 1143.00 L 397.00 1353.00 L 362.00 1421.00 L 394.00 1347.00 L 391.00 1348.00 L 353.00 1424.00 L 352.00 1425.00 L 388.00 1351.00 L 386.00 1352.00 L 346.00 1428.00 L 344.00 1429.00 L 380.00 1355.00 L 374.00 1359.00 L 326.00 1441.00 L 362.00 1369.00 L 482.00 1143.00 L 479.00 1144.00 L 353.00 1372.00 L 310.00 1449.00 L 350.00 1375.00 L 348.00 1377.00 L 304.00 1455.00 L 301.00 1456.00 L 339.00 1380.00 L 333.00 1383.00 L 283.00 1465.00 L 327.00 1386.00 L 465.00 1146.00 L 464.00 1143.00 L 324.00 1377.00 L 273.00 1458.00 L 311.00 1386.00 L 310.00 1380.00 L 270.00 1440.00 L 267.00 1442.00 L 301.00 1386.00 L 300.00 1384.00 L 264.00 1436.00 L 261.00 1437.00 L 291.00 1387.00 L 292.00 1382.00 L 264.00 1422.00 L 319.00 1336.00 L 457.00 1124.00 L 457.00 1122.00 L 319.00 1330.00 L 316.00 1329.00 L 448.00 1119.00 L 477.00 1002.00 L 403.00 978.00 L 360.00 934.00 L 348.00 870.00 L 343.00 836.00 L 345.00 832.00 L 343.00 812.00 Z" fill="black" stroke="black" stroke-width="1"/>
</svg>