<?xml version="1.0" encoding="UTF-8"?>
<svg xmlns="http://www.w3.org/2000/svg" viewBox="339.00 201.00 920.00 1603.00">
  <path d="M 484.00 980.00 L 496.00 912.00 L 508.00 867.00 L 520.00 845.00 L 519.00 821.00 L 505.00 795.00 L 486.00 749.00 L 462.00 683.00 L 443.00 625.00 L 429.00 575.00 L 422.00 542.00 L 422.00 526.00 L 426.00 500.00 L 434.00 464.00 L 452.00 419.00 L 480.00 365.00 L 524.00 313.00 L 584.00 263.00 L 638.00 231.00 L 686.00 217.00 L 744.00 211.00 L 812.00 213.00 L 847.00 216.00 L 849.00 220.00 L 855.00 222.00 L 865.00 222.00 L 871.00 225.00 L 873.00 231.00 L 879.00 234.00 L 889.00 234.00 L 919.00 248.00 L 969.00 276.00 L 1004.00 301.00 L 1024.00 323.00 L 1039.00 336.00 L 1049.00 340.00 L 1054.00 351.00 L 1054.00 369.00 L 1057.00 372.00 L 1063.00 360.00 L 1065.00 364.00 L 1063.00 384.00 L 1066.00 387.00 L 1074.00 373.00 L 1076.00 372.00 L 1072.00 384.00 L 1071.00 391.00 L 1073.00 393.00 L 1076.00 389.00 L 1080.00 379.00 L 1080.00 382.00 L 1076.00 398.00 L 1078.00 401.00 L 1086.00 391.00 L 1088.00 392.00 L 1084.00 404.00 L 1084.00 406.00 L 1088.00 398.00 L 1090.00 402.00 L 1090.00 418.00 L 1092.00 421.00 L 1096.00 411.00 L 1099.00 409.00 L 1101.00 415.00 L 1103.00 442.00 L 1105.00 490.00 L 1109.00 521.00 L 1115.00 535.00 L 1139.00 565.00 L 1181.00 611.00 L 1203.00 637.00 L 1205.00 643.00 L 1196.00 660.00 L 1176.00 688.00 L 1177.00 691.00 L 1199.00 669.00 L 1198.00 672.00 L 1174.00 700.00 L 1174.00 703.00 L 1198.00 681.00 L 1198.00 683.00 L 1174.00 709.00 L 1166.00 730.00 L 1174.00 746.00 L 1173.00 759.00 L 1163.00 769.00 L 1161.00 772.00 L 1167.00 768.00 L 1168.00 774.00 L 1164.00 790.00 L 1157.00 806.00 L 1147.00 822.00 L 1147.00 839.00 L 1157.00 857.00 L 1163.00 871.00 L 1165.00 881.00 L 1164.00 892.00 L 1160.00 904.00 L 1134.00 930.00 L 1086.00 970.00 L 1064.00 991.00 L 1068.00 993.00 L 1064.00 995.00 L 1052.00 997.00 L 1058.00 998.00 L 1082.00 998.00 L 1084.00 999.00 L 1064.00 1001.00 L 1066.00 1002.00 L 1090.00 1002.00 L 1092.00 1003.00 L 1072.00 1005.00 L 1075.00 1007.00 L 1101.00 1009.00 L 1114.00 1014.00 L 1114.00 1022.00 L 1105.00 1032.00 L 1087.00 1044.00 L 1074.00 1059.00 L 1066.00 1077.00 L 1066.00 1091.00 L 1074.00 1101.00 L 1072.00 1104.00 L 1060.00 1100.00 L 1060.00 1103.00 L 1072.00 1113.00 L 1075.00 1117.00 L 1069.00 1115.00 L 1066.00 1116.00 L 1066.00 1120.00 L 1076.00 1128.00 L 1096.00 1140.00 L 1094.00 1140.00 L 1070.00 1128.00 L 1072.00 1130.00 L 1100.00 1146.00 L 1101.00 1148.00 L 1075.00 1136.00 L 1076.00 1138.00 L 1104.00 1154.00 L 1101.00 1153.00 L 1067.00 1135.00 L 1083.00 1147.00 L 1149.00 1189.00 L 1168.00 1203.00 L 1140.00 1189.00 L 1142.00 1192.00 L 1174.00 1212.00 L 1157.00 1202.00 L 1091.00 1162.00 L 1090.00 1164.00 L 1154.00 1208.00 L 1154.00 1210.00 L 1090.00 1170.00 L 1086.00 1170.00 L 1142.00 1210.00 L 1144.00 1214.00 L 1092.00 1182.00 L 1089.00 1183.00 L 1135.00 1217.00 L 1136.00 1219.00 L 1092.00 1189.00 L 1089.00 1188.00 L 1127.00 1216.00 L 1128.00 1218.00 L 1092.00 1194.00 L 1083.00 1189.00 L 1101.00 1203.00 L 1101.00 1205.00 L 1083.00 1195.00 L 1072.00 1193.00 L 1068.00 1199.00 L 1077.00 1216.00 L 1099.00 1244.00 L 1115.00 1275.00 L 1125.00 1309.00 L 1144.00 1350.00 L 1172.00 1398.00 L 1201.00 1461.00 L 1231.00 1539.00 L 1247.00 1602.00 L 1249.00 1650.00 L 1244.00 1695.00 L 1232.00 1737.00 L 1218.00 1765.00 L 1202.00 1779.00 L 1188.00 1788.00 L 1176.00 1792.00 L 1159.00 1794.00 L 1137.00 1794.00 L 1109.00 1787.00 L 1075.00 1773.00 L 1045.00 1757.00 L 1019.00 1739.00 L 991.00 1717.00 L 961.00 1691.00 L 943.00 1669.00 L 937.00 1651.00 L 934.00 1649.00 L 934.00 1663.00 L 933.00 1662.00 L 931.00 1646.00 L 930.00 1645.00 L 930.00 1659.00 L 928.00 1660.00 L 924.00 1648.00 L 921.00 1647.00 L 919.00 1657.00 L 916.00 1656.00 L 912.00 1644.00 L 910.00 1640.00 L 910.00 1644.00 L 909.00 1644.00 L 907.00 1640.00 L 866.00 1618.00 L 786.00 1578.00 L 726.00 1550.00 L 686.00 1534.00 L 632.00 1519.00 L 564.00 1505.00 L 525.00 1495.00 L 515.00 1489.00 L 472.00 1486.00 L 396.00 1486.00 L 355.00 1484.00 L 349.00 1480.00 L 357.00 1438.00 L 379.00 1358.00 L 407.00 1283.00 L 441.00 1213.00 L 458.00 1172.00 L 458.00 1160.00 L 466.00 1131.00 L 482.00 1085.00 L 487.00 1054.00 L 481.00 1038.00 L 478.00 1026.00 L 478.00 1018.00 L 484.00 980.00 Z" fill="black" stroke="black" stroke-width="1"/>
</svg>