<?xml version="1.0" encoding="UTF-8"?>
<svg xmlns="http://www.w3.org/2000/svg" viewBox="356.00 228.00 854.00 1652.00">
  <path d="M 432.00 1063.00 L 432.00 1041.00 L 427.00 1029.00 L 417.00 1027.00 L 416.00 1025.00 L 424.00 1023.00 L 422.00 1021.00 L 410.00 1019.00 L 404.00 1013.00 L 404.00 1003.00 L 408.00 991.00 L 416.00 977.00 L 417.00 942.00 L 411.00 886.00 L 408.00 843.00 L 408.00 813.00 L 407.00 797.00 L 405.00 795.00 L 404.00 766.00 L 404.00 710.00 L 411.00 639.00 L 425.00 553.00 L 439.00 491.00 L 453.00 453.00 L 473.00 411.00 L 499.00 365.00 L 525.00 329.00 L 551.00 303.00 L 576.00 285.00 L 600.00 275.00 L 614.00 268.00 L 618.00 264.00 L 629.00 259.00 L 647.00 253.00 L 674.00 247.00 L 710.00 241.00 L 737.00 238.00 L 755.00 238.00 L 784.00 242.00 L 824.00 250.00 L 858.00 259.00 L 886.00 269.00 L 919.00 283.00 L 957.00 301.00 L 988.00 320.00 L 1012.00 340.00 L 1026.00 355.00 L 1030.00 365.00 L 1038.00 378.00 L 1050.00 394.00 L 1067.00 425.00 L 1089.00 471.00 L 1101.00 500.00 L 1103.00 512.00 L 1103.00 528.00 L 1101.00 548.00 L 1108.00 568.00 L 1124.00 588.00 L 1131.00 600.00 L 1129.00 604.00 L 1131.00 608.00 L 1137.00 612.00 L 1141.00 613.00 L 1143.00 611.00 L 1147.00 613.00 L 1153.00 619.00 L 1166.00 637.00 L 1186.00 667.00 L 1181.00 698.00 L 1151.00 730.00 L 1151.00 732.00 L 1181.00 704.00 L 1179.00 707.00 L 1145.00 741.00 L 1145.00 744.00 L 1179.00 716.00 L 1179.00 719.00 L 1145.00 753.00 L 1130.00 775.00 L 1134.00 785.00 L 1134.00 797.00 L 1130.00 811.00 L 1129.00 823.00 L 1131.00 833.00 L 1125.00 850.00 L 1111.00 874.00 L 1105.00 891.00 L 1107.00 901.00 L 1107.00 917.00 L 1105.00 939.00 L 1102.00 954.00 L 1098.00 962.00 L 1090.00 972.00 L 1078.00 984.00 L 1072.00 994.00 L 1072.00 1002.00 L 1064.00 1015.00 L 1048.00 1033.00 L 1031.00 1065.00 L 1013.00 1111.00 L 1012.00 1151.00 L 1028.00 1185.00 L 1038.00 1215.00 L 1042.00 1241.00 L 1053.00 1268.00 L 1071.00 1296.00 L 1087.00 1325.00 L 1101.00 1355.00 L 1112.00 1383.00 L 1120.00 1409.00 L 1124.00 1429.00 L 1124.00 1443.00 L 1133.00 1473.00 L 1151.00 1519.00 L 1165.00 1563.00 L 1175.00 1605.00 L 1182.00 1636.00 L 1186.00 1656.00 L 1188.00 1695.00 L 1188.00 1753.00 L 1187.00 1784.00 L 1185.00 1788.00 L 1188.00 1799.00 L 1196.00 1817.00 L 1200.00 1829.00 L 1200.00 1835.00 L 1195.00 1829.00 L 1185.00 1811.00 L 1183.00 1809.00 L 1189.00 1823.00 L 1188.00 1826.00 L 1180.00 1818.00 L 1179.00 1823.00 L 1185.00 1841.00 L 1184.00 1843.00 L 1176.00 1829.00 L 1174.00 1826.00 L 1178.00 1834.00 L 1177.00 1836.00 L 1171.00 1832.00 L 1171.00 1837.00 L 1177.00 1851.00 L 1178.00 1854.00 L 1174.00 1846.00 L 1173.00 1847.00 L 1175.00 1857.00 L 1173.00 1856.00 L 1167.00 1844.00 L 1165.00 1845.00 L 1167.00 1859.00 L 1166.00 1862.00 L 1162.00 1854.00 L 1159.00 1850.00 L 1157.00 1850.00 L 1157.00 1854.00 L 1159.00 1862.00 L 1154.00 1867.00 L 1142.00 1869.00 L 1119.00 1870.00 L 1085.00 1870.00 L 1060.00 1868.00 L 1044.00 1864.00 L 1032.00 1857.00 L 1024.00 1847.00 L 988.00 1820.00 L 924.00 1776.00 L 857.00 1735.00 L 787.00 1697.00 L 701.00 1658.00 L 599.00 1618.00 L 523.00 1591.00 L 473.00 1577.00 L 429.00 1568.00 L 391.00 1564.00 L 370.00 1557.00 L 366.00 1547.00 L 367.00 1534.00 L 373.00 1518.00 L 380.00 1487.00 L 388.00 1441.00 L 386.00 1413.00 L 374.00 1403.00 L 372.00 1388.00 L 380.00 1368.00 L 387.00 1345.00 L 393.00 1319.00 L 401.00 1272.00 L 411.00 1204.00 L 421.00 1153.00 L 431.00 1119.00 L 436.00 1097.00 L 436.00 1087.00 L 435.00 1080.00 L 433.00 1076.00 L 432.00 1063.00 Z" fill="black" stroke="black" stroke-width="1"/>
</svg>