<?xml version="1.0" encoding="UTF-8"?>
<svg xmlns="http://www.w3.org/2000/svg" viewBox="289.00 226.00 895.00 1532.00">
  <path d="M 413.00 978.00 L 419.00 962.00 L 421.00 946.00 L 419.00 930.00 L 421.00 903.00 L 427.00 865.00 L 436.00 835.00 L 448.00 813.00 L 450.00 786.00 L 442.00 754.00 L 424.00 702.00 L 396.00 630.00 L 381.00 577.00 L 379.00 543.00 L 385.00 499.00 L 399.00 445.00 L 421.00 393.00 L 451.00 343.00 L 478.00 307.00 L 502.00 285.00 L 528.00 268.00 L 556.00 256.00 L 583.00 247.00 L 609.00 241.00 L 630.00 239.00 L 646.00 241.00 L 665.00 240.00 L 687.00 236.00 L 732.00 237.00 L 800.00 243.00 L 858.00 253.00 L 906.00 267.00 L 943.00 282.00 L 969.00 298.00 L 982.00 311.00 L 982.00 321.00 L 984.00 326.00 L 988.00 326.00 L 991.00 323.00 L 993.00 317.00 L 994.00 322.00 L 994.00 338.00 L 997.00 340.00 L 1003.00 328.00 L 1005.00 331.00 L 1003.00 349.00 L 1006.00 351.00 L 1014.00 337.00 L 1016.00 340.00 L 1012.00 360.00 L 1013.00 362.00 L 1019.00 346.00 L 1021.00 348.00 L 1019.00 368.00 L 1028.00 396.00 L 1048.00 432.00 L 1061.00 459.00 L 1067.00 477.00 L 1068.00 495.00 L 1064.00 513.00 L 1064.00 523.00 L 1068.00 525.00 L 1069.00 528.00 L 1067.00 532.00 L 1069.00 540.00 L 1075.00 552.00 L 1084.00 566.00 L 1096.00 582.00 L 1105.00 588.00 L 1111.00 584.00 L 1117.00 583.00 L 1123.00 585.00 L 1123.00 590.00 L 1117.00 598.00 L 1119.00 599.00 L 1129.00 593.00 L 1132.00 594.00 L 1128.00 602.00 L 1132.00 606.00 L 1144.00 606.00 L 1148.00 610.00 L 1144.00 618.00 L 1145.00 621.00 L 1151.00 619.00 L 1159.00 623.00 L 1169.00 633.00 L 1174.00 641.00 L 1174.00 647.00 L 1160.00 664.00 L 1132.00 692.00 L 1130.00 696.00 L 1154.00 676.00 L 1159.00 672.00 L 1145.00 684.00 L 1144.00 686.00 L 1156.00 678.00 L 1150.00 685.00 L 1126.00 707.00 L 1114.00 741.00 L 1114.00 787.00 L 1109.00 825.00 L 1099.00 855.00 L 1097.00 873.00 L 1103.00 879.00 L 1104.00 883.00 L 1100.00 885.00 L 1102.00 890.00 L 1110.00 898.00 L 1113.00 907.00 L 1111.00 917.00 L 1096.00 940.00 L 1068.00 976.00 L 1059.00 999.00 L 1069.00 1009.00 L 1063.00 1025.00 L 1041.00 1047.00 L 1035.00 1063.00 L 1045.00 1073.00 L 1046.00 1082.00 L 1038.00 1090.00 L 1028.00 1094.00 L 1016.00 1094.00 L 1014.00 1098.00 L 1022.00 1106.00 L 1026.00 1120.00 L 1026.00 1140.00 L 1035.00 1157.00 L 1053.00 1171.00 L 1046.00 1168.00 L 1014.00 1148.00 L 1013.00 1149.00 L 1043.00 1171.00 L 1044.00 1173.00 L 1016.00 1155.00 L 1013.00 1156.00 L 1035.00 1176.00 L 1036.00 1180.00 L 1016.00 1168.00 L 1013.00 1168.00 L 1027.00 1180.00 L 1025.00 1179.00 L 1007.00 1165.00 L 1004.00 1164.00 L 1016.00 1176.00 L 1015.00 1177.00 L 1001.00 1167.00 L 997.00 1167.00 L 1003.00 1177.00 L 1002.00 1179.00 L 994.00 1173.00 L 995.00 1175.00 L 1005.00 1185.00 L 1006.00 1187.00 L 998.00 1181.00 L 1003.00 1189.00 L 1021.00 1211.00 L 1026.00 1219.00 L 1018.00 1213.00 L 1021.00 1220.00 L 1035.00 1240.00 L 1044.00 1259.00 L 1048.00 1277.00 L 1064.00 1315.00 L 1092.00 1373.00 L 1117.00 1439.00 L 1139.00 1513.00 L 1150.00 1576.00 L 1150.00 1628.00 L 1144.00 1669.00 L 1132.00 1699.00 L 1120.00 1721.00 L 1108.00 1735.00 L 1093.00 1744.00 L 1075.00 1748.00 L 1057.00 1747.00 L 1039.00 1741.00 L 1002.00 1716.00 L 946.00 1672.00 L 857.00 1620.00 L 735.00 1560.00 L 651.00 1522.00 L 605.00 1506.00 L 547.00 1490.00 L 477.00 1474.00 L 407.00 1463.00 L 337.00 1457.00 L 301.00 1451.00 L 299.00 1445.00 L 308.00 1398.00 L 328.00 1310.00 L 358.00 1213.00 L 398.00 1107.00 L 416.00 1039.00 L 412.00 1009.00 L 410.00 992.00 L 410.00 988.00 L 413.00 978.00 Z" fill="black" stroke="black" stroke-width="1"/>
</svg>