<?xml version="1.0" encoding="UTF-8"?>
<svg xmlns="http://www.w3.org/2000/svg" viewBox="398.00 218.00 789.00 1488.00">
  <path d="M 508.00 942.00 L 512.00 910.00 L 522.00 876.00 L 538.00 840.00 L 538.00 816.00 L 522.00 804.00 L 523.00 802.00 L 541.00 810.00 L 540.00 808.00 L 520.00 796.00 L 506.00 783.00 L 498.00 769.00 L 498.00 764.00 L 506.00 768.00 L 503.00 765.00 L 489.00 755.00 L 470.00 722.00 L 446.00 666.00 L 436.00 639.00 L 440.00 641.00 L 437.00 636.00 L 427.00 624.00 L 418.00 600.00 L 410.00 564.00 L 408.00 535.00 L 412.00 513.00 L 416.00 504.00 L 420.00 508.00 L 420.00 506.00 L 416.00 498.00 L 419.00 498.00 L 429.00 506.00 L 430.00 503.00 L 422.00 489.00 L 423.00 487.00 L 433.00 497.00 L 433.00 494.00 L 423.00 478.00 L 420.00 459.00 L 424.00 437.00 L 440.00 403.00 L 468.00 357.00 L 490.00 330.00 L 506.00 322.00 L 518.00 323.00 L 526.00 333.00 L 547.00 320.00 L 581.00 284.00 L 612.00 259.00 L 640.00 245.00 L 670.00 235.00 L 702.00 229.00 L 752.00 228.00 L 820.00 232.00 L 882.00 247.00 L 938.00 273.00 L 981.00 298.00 L 1011.00 322.00 L 1040.00 354.00 L 1068.00 394.00 L 1084.00 419.00 L 1088.00 429.00 L 1088.00 441.00 L 1084.00 455.00 L 1085.00 458.00 L 1091.00 450.00 L 1092.00 454.00 L 1088.00 470.00 L 1089.00 474.00 L 1095.00 466.00 L 1095.00 468.00 L 1089.00 480.00 L 1089.00 482.00 L 1095.00 474.00 L 1099.00 472.00 L 1101.00 476.00 L 1099.00 484.00 L 1093.00 496.00 L 1094.00 498.00 L 1102.00 490.00 L 1103.00 493.00 L 1097.00 507.00 L 1098.00 509.00 L 1106.00 499.00 L 1107.00 503.00 L 1101.00 521.00 L 1099.00 550.00 L 1101.00 590.00 L 1121.00 640.00 L 1159.00 700.00 L 1163.00 743.00 L 1133.00 769.00 L 1131.00 774.00 L 1157.00 758.00 L 1157.00 761.00 L 1131.00 783.00 L 1119.00 802.00 L 1121.00 818.00 L 1115.00 846.00 L 1101.00 886.00 L 1097.00 918.00 L 1103.00 942.00 L 1104.00 960.00 L 1100.00 972.00 L 1088.00 982.00 L 1068.00 990.00 L 1057.00 997.00 L 1055.00 1003.00 L 1061.00 1009.00 L 1075.00 1015.00 L 1075.00 1018.00 L 1061.00 1018.00 L 1062.00 1020.00 L 1078.00 1024.00 L 1075.00 1024.00 L 1053.00 1020.00 L 1052.00 1023.00 L 1072.00 1033.00 L 1076.00 1046.00 L 1064.00 1062.00 L 1065.00 1077.00 L 1079.00 1091.00 L 1077.00 1094.00 L 1059.00 1086.00 L 1059.00 1087.00 L 1077.00 1097.00 L 1076.00 1098.00 L 1056.00 1090.00 L 1057.00 1093.00 L 1079.00 1107.00 L 1081.00 1110.00 L 1063.00 1102.00 L 1063.00 1104.00 L 1081.00 1116.00 L 1079.00 1116.00 L 1057.00 1104.00 L 1057.00 1105.00 L 1079.00 1119.00 L 1078.00 1120.00 L 1054.00 1108.00 L 1052.00 1110.00 L 1072.00 1126.00 L 1071.00 1127.00 L 1049.00 1113.00 L 1047.00 1114.00 L 1065.00 1130.00 L 1067.00 1136.00 L 1053.00 1132.00 L 1069.00 1150.00 L 1115.00 1190.00 L 1117.00 1194.00 L 1075.00 1162.00 L 1073.00 1163.00 L 1111.00 1197.00 L 1108.00 1200.00 L 1064.00 1172.00 L 1059.00 1174.00 L 1093.00 1206.00 L 1090.00 1204.00 L 1050.00 1168.00 L 1048.00 1168.00 L 1084.00 1204.00 L 1085.00 1207.00 L 1051.00 1177.00 L 1049.00 1177.00 L 1079.00 1207.00 L 1079.00 1208.00 L 1049.00 1180.00 L 1048.00 1180.00 L 1076.00 1208.00 L 1077.00 1211.00 L 1051.00 1189.00 L 1044.00 1185.00 L 1056.00 1199.00 L 1055.00 1201.00 L 1041.00 1191.00 L 1066.00 1261.00 L 1130.00 1411.00 L 1165.00 1500.00 L 1171.00 1528.00 L 1175.00 1562.00 L 1177.00 1602.00 L 1167.00 1639.00 L 1145.00 1673.00 L 1120.00 1692.00 L 1092.00 1696.00 L 1060.00 1691.00 L 1024.00 1677.00 L 968.00 1644.00 L 892.00 1592.00 L 806.00 1543.00 L 710.00 1497.00 L 638.00 1467.00 L 590.00 1453.00 L 530.00 1441.00 L 458.00 1431.00 L 431.00 1387.00 L 449.00 1309.00 L 475.00 1231.00 L 509.00 1153.00 L 519.00 1100.00 L 505.00 1072.00 L 500.00 1036.00 L 504.00 992.00 L 506.00 967.00 L 506.00 961.00 L 508.00 942.00 Z" fill="black" stroke="black" stroke-width="1"/>
</svg>