<?xml version="1.0" encoding="UTF-8"?>
<svg xmlns="http://www.w3.org/2000/svg" viewBox="236.00 201.00 842.00 1602.00">
  <path d="M 457.00 940.00 L 463.00 912.00 L 462.00 886.00 L 454.00 862.00 L 425.00 836.00 L 375.00 808.00 L 374.00 806.00 L 422.00 830.00 L 414.00 823.00 L 350.00 785.00 L 350.00 783.00 L 414.00 817.00 L 410.00 813.00 L 338.00 771.00 L 301.00 748.00 L 299.00 744.00 L 333.00 762.00 L 403.00 802.00 L 402.00 799.00 L 330.00 753.00 L 282.00 703.00 L 258.00 649.00 L 246.00 594.00 L 246.00 538.00 L 247.00 507.00 L 249.00 501.00 L 253.00 497.00 L 259.00 495.00 L 261.00 491.00 L 259.00 485.00 L 268.00 461.00 L 288.00 419.00 L 311.00 382.00 L 337.00 350.00 L 362.00 328.00 L 386.00 316.00 L 411.00 297.00 L 437.00 271.00 L 464.00 251.00 L 492.00 237.00 L 514.00 231.00 L 530.00 233.00 L 558.00 229.00 L 598.00 219.00 L 631.00 213.00 L 657.00 211.00 L 690.00 215.00 L 730.00 225.00 L 749.00 242.00 L 747.00 266.00 L 748.00 266.00 L 752.00 242.00 L 755.00 244.00 L 757.00 272.00 L 760.00 272.00 L 764.00 244.00 L 766.00 241.00 L 766.00 263.00 L 768.00 264.00 L 772.00 244.00 L 773.00 248.00 L 771.00 276.00 L 773.00 276.00 L 779.00 248.00 L 781.00 243.00 L 779.00 261.00 L 781.00 261.00 L 787.00 243.00 L 788.00 249.00 L 784.00 279.00 L 785.00 279.00 L 791.00 249.00 L 793.00 250.00 L 791.00 282.00 L 794.00 283.00 L 802.00 253.00 L 804.00 253.00 L 800.00 283.00 L 802.00 284.00 L 810.00 256.00 L 812.00 257.00 L 808.00 287.00 L 810.00 288.00 L 818.00 260.00 L 821.00 261.00 L 819.00 291.00 L 835.00 315.00 L 869.00 333.00 L 894.00 349.00 L 910.00 363.00 L 929.00 381.00 L 951.00 403.00 L 974.00 432.00 L 998.00 468.00 L 1019.00 513.00 L 1037.00 567.00 L 1042.00 599.00 L 1034.00 609.00 L 1035.00 611.00 L 1045.00 605.00 L 1045.00 607.00 L 1035.00 617.00 L 1025.00 648.00 L 1015.00 700.00 L 1016.00 739.00 L 1028.00 765.00 L 1043.00 787.00 L 1061.00 805.00 L 1068.00 820.00 L 1064.00 832.00 L 1052.00 844.00 L 1032.00 856.00 L 1025.00 872.00 L 1031.00 892.00 L 1030.00 911.00 L 1022.00 929.00 L 1020.00 946.00 L 1024.00 962.00 L 1020.00 976.00 L 1008.00 988.00 L 998.00 1005.00 L 990.00 1027.00 L 981.00 1043.00 L 971.00 1053.00 L 953.00 1065.00 L 927.00 1079.00 L 888.00 1086.00 L 836.00 1086.00 L 804.00 1090.00 L 792.00 1098.00 L 835.00 1171.00 L 933.00 1309.00 L 963.00 1352.00 L 925.00 1300.00 L 931.00 1309.00 L 981.00 1379.00 L 979.00 1377.00 L 925.00 1303.00 L 927.00 1307.00 L 985.00 1389.00 L 981.00 1384.00 L 915.00 1292.00 L 916.00 1294.00 L 984.00 1390.00 L 977.00 1381.00 L 895.00 1267.00 L 899.00 1275.00 L 989.00 1405.00 L 971.00 1380.00 L 845.00 1200.00 L 846.00 1203.00 L 974.00 1389.00 L 986.00 1407.00 L 882.00 1257.00 L 883.00 1260.00 L 989.00 1416.00 L 1044.00 1501.00 L 1048.00 1515.00 L 991.00 1433.00 L 873.00 1255.00 L 874.00 1258.00 L 994.00 1442.00 L 993.00 1441.00 L 871.00 1255.00 L 872.00 1257.00 L 996.00 1447.00 L 1059.00 1547.00 L 1061.00 1557.00 L 991.00 1451.00 L 849.00 1229.00 L 849.00 1231.00 L 991.00 1457.00 L 992.00 1459.00 L 852.00 1237.00 L 852.00 1239.00 L 992.00 1465.00 L 993.00 1467.00 L 855.00 1245.00 L 855.00 1247.00 L 993.00 1473.00 L 1060.00 1601.00 L 1056.00 1631.00 L 1049.00 1660.00 L 1039.00 1688.00 L 1020.00 1717.00 L 992.00 1747.00 L 967.00 1770.00 L 945.00 1786.00 L 929.00 1793.00 L 919.00 1791.00 L 896.00 1775.00 L 860.00 1745.00 L 815.00 1713.00 L 761.00 1679.00 L 691.00 1639.00 L 605.00 1593.00 L 528.00 1556.00 L 460.00 1528.00 L 389.00 1508.00 L 315.00 1496.00 L 278.00 1484.00 L 278.00 1472.00 L 277.00 1467.00 L 275.00 1469.00 L 284.00 1432.00 L 304.00 1356.00 L 323.00 1296.00 L 341.00 1252.00 L 357.00 1205.00 L 371.00 1155.00 L 384.00 1119.00 L 396.00 1097.00 L 403.00 1077.00 L 405.00 1059.00 L 412.00 1038.00 L 424.00 1014.00 L 430.00 998.00 L 430.00 990.00 L 434.00 981.00 L 442.00 971.00 L 448.00 963.00 L 452.00 957.00 L 457.00 940.00 Z" fill="black" stroke="black" stroke-width="1"/>
</svg>