<?xml version="1.0" encoding="UTF-8"?>
<svg xmlns="http://www.w3.org/2000/svg" viewBox="347.00 238.00 877.00 1518.00">
  <path d="M 597.00 975.00 L 603.00 961.00 L 606.00 943.00 L 606.00 921.00 L 609.00 905.00 L 615.00 895.00 L 592.00 867.00 L 540.00 821.00 L 507.00 787.00 L 493.00 765.00 L 466.00 739.00 L 426.00 709.00 L 425.00 707.00 L 463.00 733.00 L 458.00 728.00 L 410.00 692.00 L 406.00 688.00 L 446.00 716.00 L 444.00 713.00 L 400.00 679.00 L 403.00 680.00 L 453.00 716.00 L 450.00 712.00 L 394.00 668.00 L 363.00 624.00 L 357.00 580.00 L 358.00 542.00 L 366.00 510.00 L 376.00 483.00 L 388.00 461.00 L 405.00 438.00 L 427.00 414.00 L 443.00 400.00 L 453.00 396.00 L 462.00 395.00 L 470.00 397.00 L 473.00 396.00 L 471.00 392.00 L 475.00 383.00 L 485.00 369.00 L 497.00 356.00 L 511.00 344.00 L 530.00 334.00 L 554.00 326.00 L 582.00 302.00 L 614.00 262.00 L 634.00 252.00 L 642.00 272.00 L 644.00 273.00 L 640.00 255.00 L 641.00 255.00 L 647.00 273.00 L 658.00 275.00 L 674.00 261.00 L 694.00 252.00 L 718.00 248.00 L 734.00 258.00 L 742.00 282.00 L 746.00 287.00 L 746.00 273.00 L 749.00 272.00 L 755.00 284.00 L 778.00 289.00 L 818.00 287.00 L 849.00 289.00 L 871.00 295.00 L 885.00 297.00 L 891.00 295.00 L 899.00 298.00 L 909.00 306.00 L 924.00 312.00 L 944.00 316.00 L 978.00 330.00 L 1026.00 354.00 L 1066.00 383.00 L 1098.00 417.00 L 1112.00 440.00 L 1108.00 452.00 L 1109.00 454.00 L 1115.00 446.00 L 1115.00 448.00 L 1109.00 460.00 L 1111.00 485.00 L 1121.00 523.00 L 1124.00 558.00 L 1120.00 590.00 L 1119.00 605.00 L 1121.00 603.00 L 1122.00 612.00 L 1122.00 632.00 L 1125.00 648.00 L 1131.00 660.00 L 1149.00 682.00 L 1179.00 714.00 L 1196.00 738.00 L 1200.00 754.00 L 1187.00 773.00 L 1157.00 795.00 L 1154.00 800.00 L 1178.00 788.00 L 1178.00 790.00 L 1154.00 806.00 L 1144.00 823.00 L 1148.00 841.00 L 1147.00 854.00 L 1141.00 862.00 L 1140.00 873.00 L 1144.00 887.00 L 1141.00 900.00 L 1131.00 912.00 L 1128.00 923.00 L 1132.00 933.00 L 1132.00 948.00 L 1128.00 968.00 L 1116.00 985.00 L 1096.00 999.00 L 1049.00 1013.00 L 975.00 1027.00 L 931.00 1051.00 L 917.00 1085.00 L 973.00 1187.00 L 1099.00 1357.00 L 1142.00 1416.00 L 1102.00 1364.00 L 1105.00 1369.00 L 1151.00 1431.00 L 1143.00 1421.00 L 1081.00 1339.00 L 1087.00 1350.00 L 1161.00 1454.00 L 1158.00 1451.00 L 1078.00 1341.00 L 1079.00 1343.00 L 1161.00 1457.00 L 1159.00 1455.00 L 1073.00 1337.00 L 1074.00 1340.00 L 1162.00 1464.00 L 1132.00 1422.00 L 984.00 1214.00 L 985.00 1217.00 L 1135.00 1431.00 L 1163.00 1472.00 L 1069.00 1340.00 L 1070.00 1343.00 L 1166.00 1481.00 L 1160.00 1473.00 L 1052.00 1319.00 L 1052.00 1322.00 L 1160.00 1482.00 L 1138.00 1451.00 L 986.00 1229.00 L 986.00 1232.00 L 1138.00 1460.00 L 1155.00 1486.00 L 1037.00 1310.00 L 1038.00 1313.00 L 1158.00 1495.00 L 1156.00 1493.00 L 1032.00 1307.00 L 1032.00 1309.00 L 1156.00 1499.00 L 1152.00 1494.00 L 1020.00 1294.00 L 1019.00 1296.00 L 1149.00 1500.00 L 1214.00 1607.00 L 1214.00 1617.00 L 1138.00 1499.00 L 986.00 1253.00 L 985.00 1254.00 L 1135.00 1502.00 L 1135.00 1503.00 L 985.00 1257.00 L 984.00 1260.00 L 1132.00 1512.00 L 1205.00 1639.00 L 1203.00 1641.00 L 1130.00 1518.00 L 986.00 1270.00 L 985.00 1272.00 L 1127.00 1524.00 L 1126.00 1523.00 L 982.00 1269.00 L 981.00 1271.00 L 1123.00 1529.00 L 1181.00 1674.00 L 1155.00 1706.00 L 1126.00 1730.00 L 1094.00 1746.00 L 1048.00 1730.00 L 988.00 1682.00 L 890.00 1622.00 L 754.00 1550.00 L 645.00 1500.00 L 563.00 1472.00 L 500.00 1454.00 L 456.00 1446.00 L 434.00 1436.00 L 434.00 1424.00 L 433.00 1419.00 L 431.00 1421.00 L 440.00 1387.00 L 460.00 1317.00 L 489.00 1242.00 L 527.00 1162.00 L 550.00 1106.00 L 558.00 1074.00 L 566.00 1053.00 L 574.00 1043.00 L 578.00 1029.00 L 578.00 1011.00 L 580.00 998.00 L 584.00 990.00 L 588.00 985.00 L 592.00 983.00 L 597.00 975.00 Z" fill="black" stroke="black" stroke-width="1"/>
</svg>