<?xml version="1.0" encoding="UTF-8"?>
<svg xmlns="http://www.w3.org/2000/svg" viewBox="200.00 204.00 853.00 1415.00">
  <path d="M 288.00 915.00 L 292.00 901.00 L 302.00 881.00 L 318.00 855.00 L 327.00 836.00 L 329.00 824.00 L 311.00 789.00 L 273.00 731.00 L 245.00 681.00 L 227.00 639.00 L 216.00 606.00 L 212.00 582.00 L 210.00 548.00 L 210.00 504.00 L 216.00 460.00 L 228.00 416.00 L 248.00 372.00 L 276.00 328.00 L 310.00 290.00 L 350.00 258.00 L 393.00 235.00 L 439.00 221.00 L 484.00 214.00 L 528.00 214.00 L 597.00 220.00 L 691.00 232.00 L 757.00 246.00 L 795.00 262.00 L 824.00 277.00 L 844.00 291.00 L 867.00 314.00 L 893.00 346.00 L 910.00 372.00 L 918.00 392.00 L 918.00 410.00 L 910.00 426.00 L 910.00 429.00 L 918.00 419.00 L 919.00 420.00 L 913.00 432.00 L 913.00 434.00 L 919.00 426.00 L 921.00 428.00 L 919.00 440.00 L 920.00 443.00 L 924.00 437.00 L 925.00 439.00 L 923.00 449.00 L 924.00 452.00 L 928.00 448.00 L 928.00 451.00 L 924.00 461.00 L 925.00 462.00 L 931.00 454.00 L 935.00 451.00 L 937.00 453.00 L 935.00 462.00 L 929.00 478.00 L 930.00 480.00 L 938.00 468.00 L 939.00 472.00 L 933.00 492.00 L 935.00 495.00 L 945.00 481.00 L 951.00 475.00 L 953.00 477.00 L 949.00 487.00 L 939.00 505.00 L 940.00 507.00 L 952.00 493.00 L 953.00 495.00 L 943.00 513.00 L 941.00 529.00 L 947.00 543.00 L 948.00 565.00 L 944.00 595.00 L 945.00 607.00 L 951.00 601.00 L 950.00 604.00 L 942.00 616.00 L 965.00 652.00 L 1019.00 712.00 L 1043.00 751.00 L 1037.00 769.00 L 1022.00 786.00 L 998.00 802.00 L 988.00 820.00 L 992.00 840.00 L 991.00 855.00 L 985.00 865.00 L 984.00 875.00 L 988.00 885.00 L 983.00 900.00 L 969.00 920.00 L 964.00 937.00 L 968.00 951.00 L 969.00 966.00 L 967.00 982.00 L 954.00 1001.00 L 930.00 1023.00 L 906.00 1037.00 L 882.00 1043.00 L 875.00 1050.00 L 885.00 1058.00 L 883.00 1058.00 L 869.00 1050.00 L 871.00 1052.00 L 889.00 1064.00 L 890.00 1084.00 L 874.00 1112.00 L 870.00 1136.00 L 878.00 1156.00 L 875.00 1159.00 L 861.00 1145.00 L 862.00 1148.00 L 878.00 1168.00 L 879.00 1172.00 L 865.00 1160.00 L 864.00 1162.00 L 876.00 1178.00 L 874.00 1177.00 L 858.00 1159.00 L 864.00 1167.00 L 892.00 1201.00 L 903.00 1215.00 L 897.00 1209.00 L 898.00 1211.00 L 906.00 1221.00 L 913.00 1235.00 L 919.00 1253.00 L 907.00 1244.00 L 877.00 1208.00 L 877.00 1209.00 L 907.00 1247.00 L 909.00 1250.00 L 883.00 1218.00 L 882.00 1220.00 L 906.00 1256.00 L 901.00 1253.00 L 867.00 1211.00 L 850.00 1195.00 L 850.00 1205.00 L 873.00 1247.00 L 919.00 1321.00 L 917.00 1321.00 L 867.00 1247.00 L 882.00 1275.00 L 962.00 1405.00 L 991.00 1453.00 L 969.00 1419.00 L 970.00 1422.00 L 994.00 1462.00 L 981.00 1443.00 L 931.00 1365.00 L 932.00 1367.00 L 984.00 1449.00 L 975.00 1435.00 L 905.00 1325.00 L 906.00 1327.00 L 978.00 1441.00 L 972.00 1432.00 L 888.00 1300.00 L 888.00 1301.00 L 972.00 1435.00 L 1015.00 1505.00 L 1017.00 1511.00 L 975.00 1446.00 L 889.00 1310.00 L 890.00 1314.00 L 978.00 1458.00 L 1022.00 1532.00 L 1022.00 1536.00 L 980.00 1469.00 L 896.00 1331.00 L 897.00 1334.00 L 983.00 1478.00 L 980.00 1475.00 L 888.00 1325.00 L 887.00 1328.00 L 977.00 1484.00 L 1020.00 1570.00 L 1016.00 1586.00 L 1007.00 1599.00 L 993.00 1609.00 L 975.00 1608.00 L 953.00 1596.00 L 920.00 1571.00 L 876.00 1533.00 L 842.00 1507.00 L 818.00 1493.00 L 806.00 1488.00 L 806.00 1492.00 L 804.00 1490.00 L 800.00 1482.00 L 792.00 1474.00 L 780.00 1466.00 L 750.00 1450.00 L 702.00 1426.00 L 654.00 1406.00 L 606.00 1390.00 L 556.00 1379.00 L 504.00 1373.00 L 456.00 1370.00 L 412.00 1370.00 L 360.00 1375.00 L 300.00 1385.00 L 270.00 1375.00 L 270.00 1345.00 L 276.00 1307.00 L 288.00 1261.00 L 300.00 1226.00 L 312.00 1202.00 L 320.00 1179.00 L 324.00 1157.00 L 326.00 1138.00 L 326.00 1122.00 L 323.00 1107.00 L 317.00 1093.00 L 317.00 1057.00 L 323.00 999.00 L 319.00 969.00 L 305.00 967.00 L 305.00 965.00 L 319.00 963.00 L 315.00 962.00 L 293.00 962.00 L 291.00 961.00 L 309.00 959.00 L 320.00 956.00 L 324.00 952.00 L 314.00 950.00 L 290.00 950.00 L 279.00 945.00 L 281.00 935.00 L 283.00 928.00 L 285.00 924.00 L 288.00 915.00 Z" fill="black" stroke="black" stroke-width="1"/>
</svg>