<?xml version="1.0" encoding="UTF-8"?>
<svg xmlns="http://www.w3.org/2000/svg" viewBox="289.00 206.00 951.00 1612.00">
  <path d="M 410.00 977.00 L 418.00 919.00 L 425.00 884.00 L 431.00 872.00 L 441.00 859.00 L 455.00 845.00 L 455.00 831.00 L 441.00 817.00 L 428.00 796.00 L 416.00 768.00 L 400.00 724.00 L 380.00 664.00 L 370.00 621.00 L 370.00 595.00 L 373.00 557.00 L 379.00 507.00 L 390.00 463.00 L 406.00 425.00 L 424.00 391.00 L 444.00 361.00 L 464.00 335.00 L 484.00 313.00 L 512.00 289.00 L 548.00 263.00 L 580.00 247.00 L 608.00 241.00 L 636.00 232.00 L 664.00 220.00 L 692.00 217.00 L 720.00 223.00 L 748.00 223.00 L 776.00 217.00 L 803.00 216.00 L 829.00 220.00 L 859.00 228.00 L 893.00 240.00 L 939.00 265.00 L 997.00 303.00 L 1036.00 337.00 L 1056.00 367.00 L 1065.00 389.00 L 1063.00 403.00 L 1066.00 405.00 L 1074.00 395.00 L 1075.00 398.00 L 1069.00 414.00 L 1068.00 420.00 L 1072.00 416.00 L 1073.00 418.00 L 1071.00 426.00 L 1075.00 423.00 L 1085.00 409.00 L 1086.00 412.00 L 1078.00 432.00 L 1075.00 444.00 L 1077.00 448.00 L 1080.00 446.00 L 1084.00 438.00 L 1084.00 440.00 L 1080.00 452.00 L 1084.00 446.00 L 1096.00 422.00 L 1097.00 425.00 L 1087.00 455.00 L 1089.00 458.00 L 1103.00 434.00 L 1104.00 437.00 L 1092.00 467.00 L 1093.00 470.00 L 1107.00 446.00 L 1109.00 449.00 L 1099.00 479.00 L 1099.00 485.00 L 1109.00 467.00 L 1110.00 470.00 L 1102.00 494.00 L 1103.00 499.00 L 1113.00 485.00 L 1114.00 487.00 L 1106.00 505.00 L 1107.00 507.00 L 1117.00 493.00 L 1117.00 498.00 L 1107.00 522.00 L 1109.00 524.00 L 1123.00 504.00 L 1124.00 506.00 L 1112.00 530.00 L 1114.00 532.00 L 1130.00 512.00 L 1131.00 515.00 L 1117.00 541.00 L 1118.00 542.00 L 1134.00 518.00 L 1130.00 531.00 L 1106.00 581.00 L 1099.00 617.00 L 1109.00 639.00 L 1133.00 673.00 L 1171.00 719.00 L 1191.00 748.00 L 1193.00 760.00 L 1177.00 779.00 L 1143.00 805.00 L 1142.00 808.00 L 1174.00 788.00 L 1174.00 791.00 L 1142.00 817.00 L 1130.00 835.00 L 1138.00 845.00 L 1142.00 853.00 L 1142.00 859.00 L 1137.00 868.00 L 1127.00 880.00 L 1122.00 892.00 L 1122.00 904.00 L 1114.00 917.00 L 1098.00 931.00 L 1093.00 955.00 L 1099.00 989.00 L 1098.00 1014.00 L 1090.00 1030.00 L 1081.00 1042.00 L 1071.00 1050.00 L 1068.00 1059.00 L 1072.00 1069.00 L 1073.00 1077.00 L 1071.00 1083.00 L 1062.00 1095.00 L 1046.00 1113.00 L 1047.00 1128.00 L 1065.00 1140.00 L 1064.00 1142.00 L 1044.00 1134.00 L 1047.00 1137.00 L 1073.00 1151.00 L 1078.00 1154.00 L 1062.00 1146.00 L 1051.00 1143.00 L 1045.00 1145.00 L 1052.00 1152.00 L 1072.00 1164.00 L 1068.00 1162.00 L 1040.00 1146.00 L 1056.00 1158.00 L 1116.00 1198.00 L 1129.00 1209.00 L 1095.00 1191.00 L 1095.00 1193.00 L 1129.00 1215.00 L 1114.00 1207.00 L 1050.00 1169.00 L 1036.00 1162.00 L 1072.00 1186.00 L 1101.00 1208.00 L 1123.00 1228.00 L 1122.00 1238.00 L 1098.00 1238.00 L 1072.00 1228.00 L 1044.00 1208.00 L 1039.00 1206.00 L 1057.00 1222.00 L 1054.00 1222.00 L 1030.00 1206.00 L 1025.00 1206.00 L 1039.00 1222.00 L 1043.00 1233.00 L 1037.00 1239.00 L 1041.00 1252.00 L 1055.00 1272.00 L 1066.00 1293.00 L 1074.00 1315.00 L 1096.00 1351.00 L 1132.00 1401.00 L 1165.00 1456.00 L 1195.00 1516.00 L 1215.00 1570.00 L 1225.00 1618.00 L 1230.00 1667.00 L 1230.00 1717.00 L 1227.00 1750.00 L 1221.00 1766.00 L 1212.00 1780.00 L 1200.00 1792.00 L 1187.00 1801.00 L 1173.00 1807.00 L 1151.00 1808.00 L 1121.00 1804.00 L 1082.00 1792.00 L 1034.00 1772.00 L 1007.00 1756.00 L 1001.00 1744.00 L 999.00 1743.00 L 1001.00 1753.00 L 1000.00 1755.00 L 996.00 1749.00 L 994.00 1748.00 L 994.00 1752.00 L 992.00 1749.00 L 988.00 1739.00 L 971.00 1726.00 L 941.00 1710.00 L 852.00 1672.00 L 704.00 1612.00 L 590.00 1569.00 L 510.00 1543.00 L 425.00 1522.00 L 335.00 1506.00 L 299.00 1453.00 L 317.00 1363.00 L 338.00 1292.00 L 362.00 1240.00 L 379.00 1195.00 L 389.00 1157.00 L 400.00 1128.00 L 412.00 1108.00 L 415.00 1089.00 L 409.00 1071.00 L 406.00 1051.00 L 406.00 1029.00 L 406.00 1015.00 L 406.00 1009.00 L 410.00 977.00 Z" fill="black" stroke="black" stroke-width="1"/>
</svg>