<?xml version="1.0" encoding="UTF-8"?>
<svg xmlns="http://www.w3.org/2000/svg" viewBox="307.00 264.00 870.00 1409.00">
  <path d="M 356.00 982.00 L 368.00 942.00 L 375.00 905.00 L 377.00 871.00 L 365.00 810.00 L 339.00 722.00 L 326.00 653.00 L 326.00 603.00 L 335.00 553.00 L 353.00 503.00 L 374.00 460.00 L 398.00 424.00 L 426.00 393.00 L 458.00 367.00 L 493.00 345.00 L 531.00 327.00 L 599.00 306.00 L 697.00 282.00 L 762.00 274.00 L 794.00 282.00 L 825.00 285.00 L 855.00 283.00 L 896.00 292.00 L 948.00 312.00 L 996.00 343.00 L 1040.00 385.00 L 1057.00 422.00 L 1047.00 454.00 L 1049.00 456.00 L 1063.00 428.00 L 1064.00 431.00 L 1052.00 465.00 L 1052.00 473.00 L 1064.00 455.00 L 1065.00 456.00 L 1055.00 476.00 L 1056.00 478.00 L 1068.00 462.00 L 1069.00 464.00 L 1059.00 484.00 L 1060.00 487.00 L 1072.00 473.00 L 1074.00 476.00 L 1066.00 496.00 L 1068.00 498.00 L 1080.00 482.00 L 1082.00 484.00 L 1074.00 504.00 L 1076.00 505.00 L 1088.00 487.00 L 1092.00 485.00 L 1088.00 499.00 L 1090.00 501.00 L 1098.00 491.00 L 1096.00 498.00 L 1084.00 522.00 L 1085.00 524.00 L 1099.00 504.00 L 1100.00 506.00 L 1088.00 530.00 L 1089.00 533.00 L 1103.00 515.00 L 1104.00 518.00 L 1092.00 542.00 L 1093.00 545.00 L 1107.00 527.00 L 1108.00 529.00 L 1096.00 551.00 L 1096.00 554.00 L 1108.00 538.00 L 1108.00 541.00 L 1096.00 563.00 L 1096.00 566.00 L 1108.00 550.00 L 1109.00 552.00 L 1099.00 572.00 L 1096.00 588.00 L 1100.00 600.00 L 1100.00 627.00 L 1096.00 669.00 L 1117.00 725.00 L 1163.00 795.00 L 1167.00 840.00 L 1129.00 860.00 L 1128.00 863.00 L 1164.00 849.00 L 1162.00 851.00 L 1122.00 869.00 L 1119.00 873.00 L 1153.00 863.00 L 1153.00 866.00 L 1119.00 882.00 L 1101.00 905.00 L 1099.00 935.00 L 1092.00 953.00 L 1080.00 959.00 L 1074.00 970.00 L 1074.00 986.00 L 1069.00 999.00 L 1059.00 1009.00 L 1057.00 1021.00 L 1063.00 1035.00 L 1065.00 1051.00 L 1063.00 1069.00 L 1055.00 1085.00 L 1041.00 1099.00 L 1026.00 1108.00 L 1010.00 1112.00 L 1008.00 1120.00 L 1020.00 1132.00 L 1023.00 1145.00 L 1017.00 1159.00 L 1023.00 1176.00 L 1041.00 1196.00 L 1040.00 1199.00 L 1020.00 1185.00 L 1021.00 1189.00 L 1043.00 1211.00 L 1043.00 1214.00 L 1021.00 1198.00 L 1023.00 1205.00 L 1049.00 1235.00 L 1047.00 1238.00 L 1017.00 1214.00 L 1018.00 1217.00 L 1050.00 1247.00 L 1052.00 1250.00 L 1024.00 1226.00 L 1024.00 1228.00 L 1052.00 1256.00 L 1050.00 1256.00 L 1018.00 1228.00 L 1018.00 1231.00 L 1050.00 1265.00 L 1050.00 1267.00 L 1018.00 1237.00 L 1018.00 1239.00 L 1050.00 1273.00 L 1049.00 1275.00 L 1015.00 1245.00 L 1013.00 1247.00 L 1043.00 1281.00 L 1051.00 1297.00 L 1037.00 1295.00 L 1039.00 1306.00 L 1057.00 1330.00 L 1055.00 1330.00 L 1033.00 1306.00 L 1036.00 1312.00 L 1064.00 1348.00 L 1079.00 1372.00 L 1081.00 1384.00 L 1079.00 1397.00 L 1073.00 1411.00 L 1053.00 1395.00 L 1019.00 1349.00 L 1041.00 1391.00 L 1119.00 1521.00 L 1117.00 1524.00 L 1035.00 1400.00 L 1034.00 1399.00 L 1114.00 1521.00 L 1115.00 1523.00 L 1037.00 1405.00 L 1039.00 1409.00 L 1121.00 1535.00 L 1150.00 1581.00 L 1126.00 1547.00 L 1126.00 1551.00 L 1150.00 1593.00 L 1139.00 1579.00 L 1093.00 1509.00 L 1093.00 1512.00 L 1139.00 1588.00 L 1119.00 1559.00 L 1033.00 1425.00 L 1032.00 1427.00 L 1116.00 1565.00 L 1116.00 1566.00 L 1032.00 1430.00 L 1031.00 1432.00 L 1113.00 1572.00 L 1115.00 1577.00 L 1037.00 1447.00 L 1035.00 1450.00 L 1109.00 1586.00 L 1142.00 1657.00 L 1134.00 1663.00 L 1087.00 1643.00 L 1001.00 1597.00 L 925.00 1565.00 L 859.00 1547.00 L 761.00 1531.00 L 631.00 1517.00 L 506.00 1511.00 L 386.00 1513.00 L 323.00 1508.00 L 317.00 1496.00 L 317.00 1453.00 L 323.00 1379.00 L 344.00 1305.00 L 380.00 1231.00 L 389.00 1184.00 L 371.00 1164.00 L 367.00 1129.00 L 377.00 1079.00 L 378.00 1052.00 L 370.00 1048.00 L 370.00 1044.00 L 378.00 1040.00 L 376.00 1037.00 L 364.00 1035.00 L 365.00 1031.00 L 379.00 1025.00 L 378.00 1022.00 L 362.00 1022.00 L 361.00 1021.00 L 375.00 1019.00 L 375.00 1017.00 L 361.00 1015.00 L 353.00 1011.00 L 351.00 1005.00 L 356.00 982.00 Z" fill="black" stroke="black" stroke-width="1"/>
</svg>