<?xml version="1.0" encoding="UTF-8"?>
<svg xmlns="http://www.w3.org/2000/svg" viewBox="318.00 266.00 777.00 1476.00">
  <path d="M 429.00 975.00 L 435.00 937.00 L 441.00 912.00 L 447.00 900.00 L 444.00 887.00 L 432.00 873.00 L 411.00 838.00 L 381.00 782.00 L 358.00 722.00 L 342.00 658.00 L 334.00 604.00 L 334.00 560.00 L 338.00 522.00 L 346.00 490.00 L 360.00 455.00 L 380.00 417.00 L 407.00 381.00 L 441.00 347.00 L 470.00 325.00 L 494.00 315.00 L 510.00 311.00 L 518.00 313.00 L 537.00 306.00 L 567.00 290.00 L 593.00 280.00 L 615.00 276.00 L 652.00 281.00 L 704.00 295.00 L 743.00 303.00 L 769.00 305.00 L 807.00 319.00 L 857.00 345.00 L 891.00 370.00 L 909.00 394.00 L 922.00 408.00 L 930.00 412.00 L 933.00 422.00 L 931.00 438.00 L 933.00 440.00 L 939.00 428.00 L 943.00 423.00 L 945.00 425.00 L 944.00 434.00 L 940.00 450.00 L 942.00 452.00 L 950.00 440.00 L 951.00 443.00 L 945.00 461.00 L 946.00 462.00 L 954.00 446.00 L 955.00 447.00 L 949.00 465.00 L 950.00 466.00 L 958.00 450.00 L 959.00 453.00 L 953.00 475.00 L 954.00 477.00 L 962.00 459.00 L 963.00 461.00 L 957.00 483.00 L 957.00 488.00 L 963.00 476.00 L 964.00 478.00 L 960.00 494.00 L 961.00 497.00 L 967.00 487.00 L 969.00 491.00 L 967.00 509.00 L 969.00 513.00 L 975.00 503.00 L 977.00 502.00 L 975.00 510.00 L 977.00 511.00 L 983.00 505.00 L 984.00 507.00 L 980.00 517.00 L 981.00 519.00 L 987.00 513.00 L 987.00 516.00 L 981.00 528.00 L 982.00 529.00 L 990.00 519.00 L 991.00 523.00 L 985.00 541.00 L 986.00 565.00 L 994.00 595.00 L 1009.00 622.00 L 1031.00 646.00 L 1053.00 675.00 L 1075.00 709.00 L 1074.00 737.00 L 1050.00 759.00 L 1050.00 761.00 L 1074.00 743.00 L 1072.00 745.00 L 1044.00 767.00 L 1043.00 769.00 L 1069.00 751.00 L 1068.00 753.00 L 1040.00 775.00 L 1038.00 778.00 L 1062.00 762.00 L 1061.00 764.00 L 1035.00 784.00 L 1022.00 804.00 L 1022.00 824.00 L 1019.00 838.00 L 1013.00 846.00 L 1011.00 854.00 L 1013.00 862.00 L 1009.00 871.00 L 999.00 881.00 L 1000.00 896.00 L 1012.00 916.00 L 1018.00 932.00 L 1018.00 944.00 L 1012.00 958.00 L 1000.00 974.00 L 983.00 989.00 L 961.00 1003.00 L 956.00 1015.00 L 968.00 1025.00 L 974.00 1033.00 L 974.00 1039.00 L 967.00 1047.00 L 953.00 1057.00 L 946.00 1064.00 L 946.00 1068.00 L 953.00 1076.00 L 967.00 1088.00 L 966.00 1091.00 L 950.00 1085.00 L 951.00 1088.00 L 969.00 1100.00 L 968.00 1103.00 L 948.00 1097.00 L 948.00 1099.00 L 968.00 1109.00 L 975.00 1119.00 L 969.00 1129.00 L 971.00 1139.00 L 981.00 1149.00 L 979.00 1150.00 L 965.00 1142.00 L 977.00 1152.00 L 1015.00 1180.00 L 1026.00 1190.00 L 1010.00 1182.00 L 1010.00 1184.00 L 1026.00 1196.00 L 1033.00 1204.00 L 1031.00 1208.00 L 1027.00 1209.00 L 1021.00 1207.00 L 998.00 1192.00 L 958.00 1164.00 L 955.00 1164.00 L 989.00 1192.00 L 990.00 1194.00 L 958.00 1170.00 L 956.00 1170.00 L 984.00 1194.00 L 986.00 1197.00 L 962.00 1179.00 L 958.00 1177.00 L 974.00 1191.00 L 976.00 1195.00 L 964.00 1189.00 L 960.00 1194.00 L 964.00 1210.00 L 974.00 1229.00 L 990.00 1251.00 L 996.00 1260.00 L 992.00 1256.00 L 1005.00 1285.00 L 1035.00 1347.00 L 1057.00 1405.00 L 1071.00 1459.00 L 1077.00 1485.00 L 1075.00 1483.00 L 1077.00 1497.00 L 1083.00 1527.00 L 1085.00 1565.00 L 1083.00 1611.00 L 1078.00 1645.00 L 1070.00 1667.00 L 1061.00 1685.00 L 1051.00 1699.00 L 1039.00 1711.00 L 1025.00 1721.00 L 1011.00 1728.00 L 997.00 1732.00 L 976.00 1732.00 L 948.00 1728.00 L 896.00 1699.00 L 820.00 1645.00 L 748.00 1600.00 L 680.00 1564.00 L 596.00 1528.00 L 496.00 1492.00 L 428.00 1470.00 L 392.00 1462.00 L 364.00 1458.00 L 344.00 1458.00 L 332.00 1456.00 L 328.00 1452.00 L 328.00 1433.00 L 332.00 1399.00 L 341.00 1354.00 L 355.00 1298.00 L 375.00 1243.00 L 401.00 1189.00 L 418.00 1147.00 L 426.00 1117.00 L 427.00 1092.00 L 421.00 1072.00 L 420.00 1046.00 L 424.00 1014.00 L 426.00 997.00 L 426.00 995.00 L 429.00 975.00 Z" fill="black" stroke="black" stroke-width="1"/>
</svg>