<?xml version="1.0" encoding="UTF-8"?>
<svg xmlns="http://www.w3.org/2000/svg" viewBox="316.00 468.00 646.00 1115.00">
  <path d="M 525.00 995.00 L 523.00 981.00 L 514.00 968.00 L 498.00 956.00 L 492.00 950.00 L 496.00 950.00 L 493.00 948.00 L 483.00 944.00 L 484.00 943.00 L 496.00 945.00 L 493.00 942.00 L 475.00 934.00 L 478.00 934.00 L 502.00 942.00 L 498.00 939.00 L 466.00 925.00 L 467.00 924.00 L 501.00 936.00 L 500.00 935.00 L 464.00 921.00 L 425.00 894.00 L 383.00 854.00 L 357.00 827.00 L 347.00 813.00 L 338.00 794.00 L 330.00 770.00 L 326.00 733.00 L 326.00 683.00 L 327.00 654.00 L 329.00 646.00 L 340.00 623.00 L 360.00 585.00 L 380.00 556.00 L 400.00 536.00 L 427.00 517.00 L 461.00 499.00 L 487.00 489.00 L 505.00 487.00 L 518.00 484.00 L 526.00 480.00 L 540.00 478.00 L 560.00 478.00 L 571.00 479.00 L 573.00 481.00 L 586.00 482.00 L 610.00 482.00 L 631.00 485.00 L 649.00 491.00 L 662.00 493.00 L 670.00 491.00 L 681.00 492.00 L 695.00 496.00 L 713.00 503.00 L 735.00 513.00 L 754.00 524.00 L 770.00 536.00 L 790.00 547.00 L 814.00 557.00 L 835.00 570.00 L 853.00 586.00 L 863.00 597.00 L 865.00 603.00 L 873.00 614.00 L 887.00 630.00 L 896.00 643.00 L 900.00 653.00 L 903.00 664.00 L 905.00 676.00 L 905.00 699.00 L 903.00 733.00 L 896.00 766.00 L 884.00 798.00 L 881.00 821.00 L 887.00 835.00 L 898.00 850.00 L 914.00 866.00 L 922.00 879.00 L 922.00 889.00 L 917.00 898.00 L 907.00 906.00 L 906.00 914.00 L 914.00 922.00 L 920.00 933.00 L 924.00 947.00 L 924.00 957.00 L 920.00 963.00 L 915.00 967.00 L 909.00 969.00 L 908.00 974.00 L 912.00 982.00 L 908.00 993.00 L 896.00 1007.00 L 891.00 1018.00 L 893.00 1026.00 L 893.00 1034.00 L 891.00 1042.00 L 887.00 1049.00 L 881.00 1055.00 L 872.00 1061.00 L 860.00 1067.00 L 836.00 1068.00 L 800.00 1064.00 L 780.00 1063.00 L 776.00 1065.00 L 773.00 1070.00 L 771.00 1078.00 L 773.00 1089.00 L 779.00 1103.00 L 787.00 1117.00 L 797.00 1131.00 L 800.00 1136.00 L 796.00 1132.00 L 817.00 1164.00 L 863.00 1232.00 L 885.00 1265.00 L 883.00 1263.00 L 893.00 1283.00 L 915.00 1325.00 L 930.00 1357.00 L 938.00 1379.00 L 945.00 1417.00 L 951.00 1471.00 L 952.00 1510.00 L 948.00 1534.00 L 941.00 1552.00 L 931.00 1564.00 L 924.00 1571.00 L 920.00 1573.00 L 911.00 1573.00 L 897.00 1571.00 L 882.00 1561.00 L 866.00 1543.00 L 837.00 1517.00 L 795.00 1483.00 L 766.00 1462.00 L 750.00 1454.00 L 734.00 1444.00 L 718.00 1432.00 L 690.00 1416.00 L 650.00 1396.00 L 605.00 1377.00 L 555.00 1359.00 L 518.00 1348.00 L 494.00 1344.00 L 480.00 1341.00 L 476.00 1339.00 L 474.00 1336.00 L 474.00 1332.00 L 470.00 1331.00 L 462.00 1333.00 L 459.00 1332.00 L 461.00 1328.00 L 460.00 1327.00 L 456.00 1329.00 L 449.00 1329.00 L 439.00 1327.00 L 440.00 1296.00 L 452.00 1236.00 L 465.00 1191.00 L 479.00 1161.00 L 486.00 1139.00 L 486.00 1125.00 L 489.00 1115.00 L 495.00 1109.00 L 498.00 1101.00 L 498.00 1091.00 L 501.00 1079.00 L 507.00 1065.00 L 510.00 1055.00 L 510.00 1049.00 L 513.00 1042.00 L 519.00 1034.00 L 522.00 1026.00 L 522.00 1018.00 L 523.00 1011.00 L 525.00 1005.00 L 525.00 995.00 Z" fill="black" stroke="black" stroke-width="1"/>
</svg>