<?xml version="1.0" encoding="UTF-8"?>
<svg xmlns="http://www.w3.org/2000/svg" viewBox="294.00 305.00 882.00 1494.00">
  <path d="M 416.00 1057.00 L 412.00 1039.00 L 410.00 1022.00 L 410.00 1006.00 L 413.00 981.00 L 419.00 947.00 L 422.00 923.00 L 422.00 909.00 L 424.00 893.00 L 428.00 875.00 L 435.00 858.00 L 445.00 842.00 L 435.00 805.00 L 405.00 747.00 L 387.00 703.00 L 381.00 673.00 L 380.00 632.00 L 384.00 580.00 L 389.00 542.00 L 395.00 518.00 L 402.00 497.00 L 410.00 479.00 L 423.00 458.00 L 441.00 434.00 L 468.00 407.00 L 504.00 377.00 L 527.00 359.00 L 537.00 353.00 L 550.00 347.00 L 566.00 341.00 L 578.00 338.00 L 586.00 338.00 L 601.00 333.00 L 623.00 323.00 L 646.00 317.00 L 670.00 315.00 L 692.00 317.00 L 712.00 323.00 L 737.00 327.00 L 767.00 329.00 L 796.00 335.00 L 824.00 345.00 L 860.00 365.00 L 904.00 395.00 L 934.00 418.00 L 950.00 434.00 L 967.00 456.00 L 985.00 484.00 L 994.00 505.00 L 994.00 519.00 L 998.00 533.00 L 1006.00 547.00 L 1008.00 561.00 L 1004.00 575.00 L 1005.00 577.00 L 1011.00 567.00 L 1011.00 571.00 L 1005.00 589.00 L 1006.00 590.00 L 1014.00 574.00 L 1014.00 576.00 L 1006.00 596.00 L 1003.00 612.00 L 1005.00 624.00 L 1029.00 655.00 L 1075.00 705.00 L 1098.00 732.00 L 1098.00 736.00 L 1086.00 751.00 L 1062.00 777.00 L 1063.00 778.00 L 1089.00 754.00 L 1089.00 755.00 L 1063.00 781.00 L 1063.00 782.00 L 1089.00 758.00 L 1092.00 756.00 L 1072.00 776.00 L 1071.00 779.00 L 1089.00 765.00 L 1086.00 770.00 L 1062.00 794.00 L 1060.00 797.00 L 1080.00 779.00 L 1081.00 782.00 L 1063.00 806.00 L 1055.00 825.00 L 1057.00 839.00 L 1056.00 848.00 L 1052.00 852.00 L 1050.00 856.00 L 1050.00 860.00 L 1053.00 868.00 L 1059.00 880.00 L 1057.00 893.00 L 1047.00 907.00 L 1042.00 920.00 L 1042.00 932.00 L 1044.00 946.00 L 1048.00 962.00 L 1048.00 976.00 L 1044.00 988.00 L 1037.00 999.00 L 1027.00 1009.00 L 1025.00 1020.00 L 1031.00 1032.00 L 1032.00 1041.00 L 1028.00 1047.00 L 1022.00 1052.00 L 1014.00 1056.00 L 1008.00 1063.00 L 1004.00 1073.00 L 1007.00 1081.00 L 1017.00 1087.00 L 1016.00 1090.00 L 1004.00 1090.00 L 1005.00 1091.00 L 1019.00 1093.00 L 1028.00 1097.00 L 1032.00 1103.00 L 1032.00 1109.00 L 1028.00 1115.00 L 1019.00 1118.00 L 1005.00 1118.00 L 1003.00 1122.00 L 1013.00 1130.00 L 1022.00 1143.00 L 1030.00 1161.00 L 1041.00 1175.00 L 1055.00 1185.00 L 1062.00 1192.00 L 1062.00 1196.00 L 1060.00 1199.00 L 1056.00 1201.00 L 1042.00 1197.00 L 1018.00 1187.00 L 1016.00 1187.00 L 1036.00 1197.00 L 1037.00 1200.00 L 1019.00 1196.00 L 1011.00 1200.00 L 1013.00 1212.00 L 1026.00 1236.00 L 1050.00 1272.00 L 1075.00 1314.00 L 1101.00 1362.00 L 1125.00 1421.00 L 1147.00 1491.00 L 1157.00 1525.00 L 1155.00 1523.00 L 1157.00 1537.00 L 1163.00 1567.00 L 1166.00 1601.00 L 1166.00 1639.00 L 1163.00 1671.00 L 1157.00 1697.00 L 1148.00 1721.00 L 1136.00 1743.00 L 1121.00 1762.00 L 1103.00 1778.00 L 1090.00 1787.00 L 1082.00 1789.00 L 1069.00 1788.00 L 1051.00 1784.00 L 1023.00 1773.00 L 985.00 1755.00 L 949.00 1735.00 L 915.00 1713.00 L 894.00 1697.00 L 886.00 1687.00 L 861.00 1673.00 L 819.00 1655.00 L 791.00 1641.00 L 777.00 1631.00 L 770.00 1627.00 L 770.00 1629.00 L 767.00 1629.00 L 761.00 1627.00 L 755.00 1623.00 L 749.00 1617.00 L 739.00 1613.00 L 725.00 1611.00 L 702.00 1603.00 L 670.00 1589.00 L 625.00 1572.00 L 567.00 1552.00 L 522.00 1539.00 L 490.00 1533.00 L 453.00 1524.00 L 411.00 1512.00 L 389.00 1507.00 L 387.00 1509.00 L 385.00 1509.00 L 383.00 1507.00 L 364.00 1505.00 L 328.00 1503.00 L 308.00 1497.00 L 304.00 1487.00 L 305.00 1457.00 L 311.00 1407.00 L 326.00 1347.00 L 350.00 1277.00 L 365.00 1229.00 L 371.00 1203.00 L 379.00 1179.00 L 389.00 1157.00 L 396.00 1133.00 L 400.00 1107.00 L 406.00 1089.00 L 414.00 1079.00 L 418.00 1072.00 L 418.00 1068.00 L 416.00 1057.00 Z" fill="black" stroke="black" stroke-width="1"/>
</svg>