<?xml version="1.0" encoding="UTF-8"?>
<svg xmlns="http://www.w3.org/2000/svg" viewBox="217.00 266.00 873.00 1413.00">
  <path d="M 383.00 961.00 L 369.00 959.00 L 368.00 956.00 L 380.00 952.00 L 378.00 949.00 L 362.00 947.00 L 349.00 929.00 L 339.00 895.00 L 308.00 825.00 L 256.00 719.00 L 229.00 652.00 L 227.00 624.00 L 230.00 593.00 L 238.00 559.00 L 262.00 511.00 L 302.00 449.00 L 336.00 405.00 L 364.00 379.00 L 405.00 352.00 L 459.00 324.00 L 487.00 307.00 L 489.00 301.00 L 491.00 300.00 L 493.00 304.00 L 496.00 302.00 L 500.00 294.00 L 504.00 292.00 L 508.00 296.00 L 511.00 294.00 L 513.00 286.00 L 535.00 280.00 L 577.00 276.00 L 629.00 277.00 L 691.00 283.00 L 738.00 291.00 L 770.00 301.00 L 811.00 322.00 L 861.00 354.00 L 885.00 378.00 L 883.00 394.00 L 886.00 396.00 L 894.00 384.00 L 897.00 388.00 L 895.00 408.00 L 898.00 411.00 L 906.00 397.00 L 908.00 399.00 L 904.00 417.00 L 905.00 419.00 L 911.00 405.00 L 912.00 407.00 L 908.00 425.00 L 911.00 429.00 L 921.00 419.00 L 923.00 422.00 L 917.00 438.00 L 918.00 439.00 L 926.00 425.00 L 927.00 428.00 L 921.00 448.00 L 923.00 451.00 L 933.00 437.00 L 934.00 440.00 L 926.00 460.00 L 924.00 473.00 L 928.00 479.00 L 935.00 472.00 L 945.00 452.00 L 946.00 454.00 L 938.00 478.00 L 940.00 481.00 L 952.00 463.00 L 953.00 466.00 L 943.00 490.00 L 944.00 492.00 L 956.00 472.00 L 959.00 469.00 L 953.00 483.00 L 954.00 485.00 L 962.00 475.00 L 961.00 481.00 L 951.00 503.00 L 951.00 505.00 L 961.00 487.00 L 962.00 489.00 L 954.00 511.00 L 955.00 516.00 L 965.00 504.00 L 966.00 506.00 L 958.00 522.00 L 958.00 524.00 L 966.00 512.00 L 968.00 516.00 L 964.00 536.00 L 967.00 539.00 L 977.00 525.00 L 978.00 528.00 L 970.00 548.00 L 967.00 571.00 L 969.00 597.00 L 998.00 644.00 L 1054.00 712.00 L 1080.00 754.00 L 1076.00 770.00 L 1063.00 787.00 L 1041.00 805.00 L 1030.00 830.00 L 1030.00 862.00 L 1027.00 881.00 L 1021.00 887.00 L 1020.00 897.00 L 1024.00 911.00 L 1018.00 929.00 L 1002.00 951.00 L 991.00 981.00 L 985.00 1019.00 L 971.00 1045.00 L 949.00 1059.00 L 919.00 1065.00 L 881.00 1063.00 L 872.00 1070.00 L 892.00 1086.00 L 890.00 1087.00 L 866.00 1073.00 L 868.00 1076.00 L 896.00 1096.00 L 895.00 1097.00 L 865.00 1079.00 L 863.00 1082.00 L 889.00 1106.00 L 895.00 1128.00 L 881.00 1148.00 L 878.00 1168.00 L 886.00 1188.00 L 884.00 1191.00 L 872.00 1177.00 L 885.00 1197.00 L 923.00 1251.00 L 927.00 1261.00 L 897.00 1227.00 L 892.00 1225.00 L 912.00 1255.00 L 909.00 1255.00 L 883.00 1225.00 L 878.00 1223.00 L 894.00 1249.00 L 892.00 1250.00 L 872.00 1226.00 L 887.00 1259.00 L 937.00 1349.00 L 940.00 1357.00 L 896.00 1283.00 L 911.00 1311.00 L 985.00 1441.00 L 983.00 1439.00 L 905.00 1305.00 L 907.00 1313.00 L 989.00 1463.00 L 987.00 1462.00 L 901.00 1310.00 L 901.00 1312.00 L 987.00 1468.00 L 1031.00 1550.00 L 1033.00 1558.00 L 999.00 1498.00 L 929.00 1370.00 L 929.00 1372.00 L 999.00 1504.00 L 997.00 1502.00 L 923.00 1366.00 L 924.00 1371.00 L 1000.00 1517.00 L 990.00 1500.00 L 894.00 1320.00 L 894.00 1323.00 L 990.00 1509.00 L 1038.00 1605.00 L 1038.00 1611.00 L 997.00 1534.00 L 915.00 1374.00 L 915.00 1377.00 L 997.00 1543.00 L 995.00 1541.00 L 909.00 1371.00 L 909.00 1375.00 L 995.00 1553.00 L 992.00 1548.00 L 900.00 1360.00 L 899.00 1362.00 L 989.00 1554.00 L 990.00 1558.00 L 902.00 1374.00 L 902.00 1378.00 L 990.00 1570.00 L 1032.00 1667.00 L 1028.00 1669.00 L 981.00 1571.00 L 891.00 1373.00 L 890.00 1373.00 L 978.00 1571.00 L 1015.00 1663.00 L 1001.00 1649.00 L 977.00 1633.00 L 943.00 1615.00 L 925.00 1612.00 L 923.00 1624.00 L 919.00 1621.00 L 913.00 1603.00 L 911.00 1602.00 L 913.00 1618.00 L 907.00 1613.00 L 893.00 1587.00 L 844.00 1550.00 L 760.00 1502.00 L 664.00 1458.00 L 556.00 1418.00 L 470.00 1391.00 L 406.00 1377.00 L 360.00 1362.00 L 332.00 1346.00 L 317.00 1319.00 L 315.00 1281.00 L 320.00 1240.00 L 332.00 1196.00 L 337.00 1164.00 L 335.00 1144.00 L 346.00 1093.00 L 370.00 1011.00 L 379.00 969.00 L 373.00 967.00 L 375.00 965.00 L 385.00 963.00 L 383.00 961.00 Z" fill="black" stroke="black" stroke-width="1"/>
</svg>