<?xml version="1.0" encoding="UTF-8"?>
<svg xmlns="http://www.w3.org/2000/svg" viewBox="360.00 242.00 760.00 1453.00">
  <path d="M 393.00 971.00 L 407.00 965.00 L 412.00 954.00 L 408.00 938.00 L 407.00 927.00 L 409.00 921.00 L 415.00 916.00 L 425.00 912.00 L 430.00 897.00 L 430.00 871.00 L 435.00 830.00 L 445.00 774.00 L 444.00 702.00 L 432.00 614.00 L 426.00 552.00 L 426.00 516.00 L 429.00 485.00 L 435.00 459.00 L 448.00 427.00 L 468.00 389.00 L 500.00 349.00 L 544.00 307.00 L 580.00 282.00 L 608.00 274.00 L 631.00 265.00 L 649.00 255.00 L 665.00 252.00 L 679.00 256.00 L 700.00 256.00 L 728.00 252.00 L 756.00 256.00 L 784.00 268.00 L 805.00 274.00 L 819.00 274.00 L 833.00 277.00 L 847.00 283.00 L 866.00 297.00 L 890.00 319.00 L 914.00 337.00 L 938.00 351.00 L 958.00 369.00 L 974.00 391.00 L 986.00 419.00 L 994.00 453.00 L 1000.00 468.00 L 1004.00 464.00 L 1005.00 466.00 L 1003.00 474.00 L 1004.00 475.00 L 1008.00 469.00 L 1009.00 471.00 L 1007.00 481.00 L 1010.00 500.00 L 1018.00 528.00 L 1020.00 549.00 L 1016.00 563.00 L 1024.00 581.00 L 1044.00 603.00 L 1063.00 631.00 L 1081.00 665.00 L 1077.00 695.00 L 1051.00 721.00 L 1052.00 723.00 L 1080.00 701.00 L 1079.00 703.00 L 1049.00 729.00 L 1042.00 737.00 L 1058.00 727.00 L 1058.00 729.00 L 1042.00 743.00 L 1049.00 738.00 L 1079.00 714.00 L 1079.00 716.00 L 1049.00 744.00 L 1035.00 762.00 L 1037.00 770.00 L 1032.00 786.00 L 1020.00 810.00 L 1016.00 838.00 L 1020.00 870.00 L 1013.00 896.00 L 995.00 916.00 L 985.00 928.00 L 983.00 932.00 L 986.00 937.00 L 994.00 943.00 L 989.00 961.00 L 971.00 991.00 L 969.00 1007.00 L 983.00 1009.00 L 983.00 1011.00 L 969.00 1013.00 L 971.00 1016.00 L 989.00 1020.00 L 987.00 1021.00 L 965.00 1019.00 L 965.00 1021.00 L 987.00 1027.00 L 993.00 1033.00 L 983.00 1039.00 L 972.00 1042.00 L 960.00 1042.00 L 962.00 1045.00 L 978.00 1051.00 L 980.00 1053.00 L 968.00 1051.00 L 972.00 1054.00 L 992.00 1062.00 L 1003.00 1068.00 L 1005.00 1072.00 L 993.00 1070.00 L 967.00 1062.00 L 968.00 1064.00 L 996.00 1076.00 L 1001.00 1079.00 L 983.00 1073.00 L 984.00 1075.00 L 1004.00 1085.00 L 1001.00 1085.00 L 975.00 1075.00 L 976.00 1077.00 L 1004.00 1091.00 L 1006.00 1093.00 L 982.00 1083.00 L 982.00 1085.00 L 1006.00 1099.00 L 1008.00 1102.00 L 988.00 1094.00 L 998.00 1100.00 L 1038.00 1120.00 L 1041.00 1123.00 L 1007.00 1109.00 L 1005.00 1111.00 L 1035.00 1129.00 L 1032.00 1129.00 L 996.00 1111.00 L 993.00 1111.00 L 1023.00 1129.00 L 1022.00 1131.00 L 990.00 1117.00 L 984.00 1116.00 L 1004.00 1128.00 L 1003.00 1130.00 L 981.00 1122.00 L 988.00 1157.00 L 1024.00 1235.00 L 1053.00 1302.00 L 1075.00 1358.00 L 1090.00 1402.00 L 1098.00 1434.00 L 1101.00 1449.00 L 1099.00 1447.00 L 1100.00 1454.00 L 1104.00 1470.00 L 1107.00 1489.00 L 1109.00 1511.00 L 1108.00 1521.00 L 1104.00 1519.00 L 1104.00 1522.00 L 1108.00 1530.00 L 1110.00 1545.00 L 1110.00 1567.00 L 1109.00 1586.00 L 1107.00 1602.00 L 1099.00 1623.00 L 1085.00 1649.00 L 1070.00 1668.00 L 1054.00 1680.00 L 1032.00 1685.00 L 1004.00 1683.00 L 966.00 1669.00 L 918.00 1643.00 L 860.00 1605.00 L 792.00 1555.00 L 715.00 1507.00 L 629.00 1461.00 L 556.00 1429.00 L 496.00 1411.00 L 438.00 1398.00 L 382.00 1390.00 L 370.00 1334.00 L 402.00 1230.00 L 415.00 1175.00 L 409.00 1169.00 L 408.00 1163.00 L 412.00 1157.00 L 412.00 1155.00 L 408.00 1157.00 L 410.00 1134.00 L 418.00 1086.00 L 414.00 1062.00 L 398.00 1062.00 L 398.00 1060.00 L 414.00 1056.00 L 412.00 1055.00 L 392.00 1057.00 L 392.00 1054.00 L 412.00 1046.00 L 411.00 1043.00 L 389.00 1045.00 L 385.00 1044.00 L 399.00 1040.00 L 400.00 1038.00 L 388.00 1038.00 L 393.00 1036.00 L 415.00 1032.00 L 421.00 1030.00 L 411.00 1030.00 L 411.00 1028.00 L 421.00 1024.00 L 415.00 1023.00 L 393.00 1025.00 L 392.00 1024.00 L 412.00 1020.00 L 411.00 1018.00 L 389.00 1018.00 L 389.00 1016.00 L 411.00 1012.00 L 411.00 1010.00 L 389.00 1010.00 L 388.00 1008.00 L 408.00 1004.00 L 408.00 1002.00 L 388.00 1002.00 L 388.00 1000.00 L 408.00 996.00 L 408.00 993.00 L 388.00 991.00 L 388.00 989.00 L 408.00 987.00 L 409.00 985.00 L 391.00 983.00 L 383.00 980.00 L 385.00 976.00 L 393.00 971.00 Z" fill="black" stroke="black" stroke-width="1"/>
</svg>