<?xml version="1.0" encoding="UTF-8"?>
<svg xmlns="http://www.w3.org/2000/svg" viewBox="441.00 225.00 890.00 1478.00">
  <path d="M 579.00 958.00 L 565.00 934.00 L 559.00 914.00 L 561.00 898.00 L 557.00 884.00 L 547.00 872.00 L 546.00 859.00 L 554.00 845.00 L 556.00 832.00 L 552.00 820.00 L 552.00 815.00 L 556.00 817.00 L 551.00 810.00 L 537.00 794.00 L 531.00 782.00 L 533.00 774.00 L 540.00 764.00 L 552.00 752.00 L 563.00 734.00 L 573.00 710.00 L 576.00 690.00 L 572.00 674.00 L 571.00 667.00 L 573.00 669.00 L 566.00 652.00 L 550.00 616.00 L 542.00 579.00 L 542.00 541.00 L 549.00 503.00 L 563.00 465.00 L 575.00 439.00 L 585.00 425.00 L 588.00 410.00 L 584.00 394.00 L 585.00 392.00 L 591.00 404.00 L 592.00 403.00 L 588.00 389.00 L 600.00 369.00 L 628.00 343.00 L 679.00 312.00 L 753.00 276.00 L 808.00 254.00 L 844.00 246.00 L 871.00 243.00 L 889.00 245.00 L 914.00 243.00 L 946.00 237.00 L 972.00 235.00 L 992.00 237.00 L 1032.00 247.00 L 1092.00 265.00 L 1140.00 286.00 L 1176.00 310.00 L 1208.00 337.00 L 1236.00 367.00 L 1262.00 403.00 L 1286.00 445.00 L 1303.00 484.00 L 1313.00 520.00 L 1319.00 563.00 L 1321.00 613.00 L 1320.00 651.00 L 1316.00 677.00 L 1305.00 711.00 L 1287.00 753.00 L 1260.00 804.00 L 1224.00 864.00 L 1199.00 900.00 L 1185.00 912.00 L 1170.00 930.00 L 1154.00 954.00 L 1139.00 970.00 L 1125.00 978.00 L 1104.00 983.00 L 1076.00 985.00 L 1073.00 988.00 L 1095.00 992.00 L 1093.00 993.00 L 1067.00 991.00 L 1065.00 993.00 L 1087.00 999.00 L 1087.00 1001.00 L 1065.00 999.00 L 1064.00 1000.00 L 1084.00 1004.00 L 1083.00 1007.00 L 1061.00 1009.00 L 1048.00 1032.00 L 1044.00 1076.00 L 1043.00 1102.00 L 1045.00 1110.00 L 1050.00 1118.00 L 1058.00 1126.00 L 1058.00 1127.00 L 1050.00 1121.00 L 1052.00 1124.00 L 1064.00 1136.00 L 1069.00 1146.00 L 1067.00 1154.00 L 1071.00 1163.00 L 1081.00 1173.00 L 1086.00 1190.00 L 1086.00 1214.00 L 1093.00 1249.00 L 1107.00 1295.00 L 1116.00 1372.00 L 1120.00 1480.00 L 1097.00 1535.00 L 1047.00 1537.00 L 992.00 1544.00 L 932.00 1556.00 L 860.00 1576.00 L 776.00 1604.00 L 694.00 1636.00 L 614.00 1672.00 L 556.00 1691.00 L 520.00 1693.00 L 496.00 1690.00 L 484.00 1682.00 L 472.00 1664.00 L 460.00 1636.00 L 453.00 1609.00 L 451.00 1583.00 L 525.00 1458.00 L 675.00 1234.00 L 676.00 1231.00 L 528.00 1449.00 L 527.00 1450.00 L 673.00 1234.00 L 673.00 1231.00 L 527.00 1441.00 L 525.00 1443.00 L 667.00 1237.00 L 667.00 1234.00 L 525.00 1434.00 L 528.00 1429.00 L 676.00 1219.00 L 677.00 1214.00 L 531.00 1414.00 L 532.00 1412.00 L 680.00 1208.00 L 680.00 1206.00 L 532.00 1406.00 L 521.00 1420.00 L 647.00 1248.00 L 648.00 1245.00 L 524.00 1411.00 L 523.00 1412.00 L 645.00 1248.00 L 645.00 1246.00 L 523.00 1406.00 L 535.00 1389.00 L 681.00 1195.00 L 682.00 1191.00 L 538.00 1377.00 L 521.00 1398.00 L 631.00 1254.00 L 632.00 1250.00 L 524.00 1386.00 L 522.00 1388.00 L 626.00 1256.00 L 627.00 1253.00 L 525.00 1379.00 L 522.00 1382.00 L 618.00 1262.00 L 619.00 1260.00 L 525.00 1376.00 L 479.00 1431.00 L 481.00 1425.00 L 550.00 1339.00 L 686.00 1173.00 L 687.00 1171.00 L 553.00 1333.00 L 528.00 1363.00 L 612.00 1261.00 L 613.00 1259.00 L 531.00 1357.00 L 529.00 1359.00 L 607.00 1265.00 L 609.00 1261.00 L 535.00 1347.00 L 529.00 1353.00 L 591.00 1279.00 L 594.00 1275.00 L 538.00 1341.00 L 572.00 1301.00 L 696.00 1155.00 L 695.00 1156.00 L 569.00 1304.00 L 569.00 1302.00 L 695.00 1150.00 L 757.00 1065.00 L 755.00 1047.00 L 743.00 1039.00 L 721.00 1041.00 L 690.00 1038.00 L 650.00 1030.00 L 623.00 1021.00 L 609.00 1011.00 L 598.00 999.00 L 590.00 985.00 L 586.00 976.00 L 586.00 972.00 L 579.00 958.00 Z" fill="black" stroke="black" stroke-width="1"/>
</svg>