<?xml version="1.0" encoding="UTF-8"?>
<svg xmlns="http://www.w3.org/2000/svg" viewBox="294.00 65.00 1012.00 1911.00">
  <path d="M 400.00 1004.00 L 388.00 984.00 L 384.00 958.00 L 388.00 926.00 L 381.00 901.00 L 363.00 883.00 L 359.00 863.00 L 369.00 841.00 L 369.00 815.00 L 359.00 785.00 L 359.00 765.00 L 369.00 755.00 L 378.00 740.00 L 386.00 720.00 L 384.00 702.00 L 372.00 686.00 L 364.00 670.00 L 360.00 654.00 L 359.00 642.00 L 361.00 634.00 L 374.00 622.00 L 398.00 606.00 L 422.00 583.00 L 446.00 553.00 L 456.00 518.00 L 452.00 478.00 L 457.00 428.00 L 471.00 368.00 L 485.00 324.00 L 499.00 296.00 L 505.00 274.00 L 503.00 258.00 L 505.00 255.00 L 511.00 265.00 L 512.00 262.00 L 508.00 246.00 L 515.00 229.00 L 533.00 211.00 L 554.00 196.00 L 578.00 184.00 L 594.00 173.00 L 602.00 163.00 L 623.00 153.00 L 657.00 143.00 L 684.00 131.00 L 704.00 117.00 L 726.00 109.00 L 750.00 107.00 L 775.00 99.00 L 801.00 85.00 L 840.00 77.00 L 892.00 75.00 L 931.00 77.00 L 957.00 83.00 L 986.00 85.00 L 1018.00 83.00 L 1063.00 99.00 L 1121.00 133.00 L 1166.00 170.00 L 1198.00 210.00 L 1225.00 252.00 L 1247.00 296.00 L 1262.00 352.00 L 1270.00 420.00 L 1269.00 482.00 L 1259.00 538.00 L 1249.00 582.00 L 1239.00 614.00 L 1211.00 662.00 L 1165.00 726.00 L 1145.00 756.00 L 1151.00 752.00 L 1146.00 758.00 L 1130.00 774.00 L 1118.00 795.00 L 1110.00 821.00 L 1102.00 840.00 L 1094.00 852.00 L 1091.00 903.00 L 1093.00 993.00 L 1104.00 1045.00 L 1124.00 1059.00 L 1137.00 1079.00 L 1143.00 1105.00 L 1151.00 1125.00 L 1161.00 1139.00 L 1167.00 1161.00 L 1169.00 1191.00 L 1176.00 1214.00 L 1188.00 1230.00 L 1198.00 1249.00 L 1206.00 1271.00 L 1222.00 1303.00 L 1246.00 1345.00 L 1266.00 1393.00 L 1282.00 1447.00 L 1292.00 1499.00 L 1296.00 1549.00 L 1255.00 1587.00 L 1169.00 1613.00 L 1074.00 1648.00 L 970.00 1692.00 L 862.00 1743.00 L 750.00 1801.00 L 648.00 1860.00 L 556.00 1920.00 L 491.00 1954.00 L 453.00 1962.00 L 429.00 1966.00 L 419.00 1966.00 L 412.00 1964.00 L 408.00 1960.00 L 405.00 1960.00 L 403.00 1964.00 L 400.00 1964.00 L 396.00 1960.00 L 392.00 1960.00 L 388.00 1964.00 L 386.00 1964.00 L 386.00 1960.00 L 380.00 1955.00 L 368.00 1949.00 L 360.00 1942.00 L 356.00 1934.00 L 350.00 1929.00 L 342.00 1927.00 L 329.00 1908.00 L 311.00 1872.00 L 304.00 1837.00 L 308.00 1803.00 L 314.00 1773.00 L 322.00 1747.00 L 332.00 1720.00 L 344.00 1692.00 L 432.00 1553.00 L 596.00 1303.00 L 596.00 1301.00 L 432.00 1547.00 L 360.00 1649.00 L 380.00 1607.00 L 458.00 1488.00 L 594.00 1292.00 L 595.00 1289.00 L 461.00 1479.00 L 415.00 1540.00 L 457.00 1472.00 L 521.00 1379.00 L 607.00 1261.00 L 609.00 1258.00 L 527.00 1370.00 L 489.00 1420.00 L 495.00 1408.00 L 542.00 1343.00 L 630.00 1225.00 L 631.00 1223.00 L 545.00 1337.00 L 535.00 1350.00 L 601.00 1262.00 L 602.00 1259.00 L 538.00 1341.00 L 535.00 1343.00 L 593.00 1265.00 L 602.00 1251.00 L 562.00 1301.00 L 560.00 1303.00 L 596.00 1257.00 L 597.00 1255.00 L 563.00 1297.00 L 561.00 1299.00 L 591.00 1261.00 L 594.00 1257.00 L 570.00 1287.00 L 567.00 1290.00 L 585.00 1266.00 L 589.00 1260.00 L 579.00 1272.00 L 599.00 1247.00 L 649.00 1185.00 L 673.00 1149.00 L 671.00 1139.00 L 662.00 1113.00 L 646.00 1071.00 L 624.00 1049.00 L 596.00 1047.00 L 590.00 1045.00 L 606.00 1043.00 L 602.00 1043.00 L 578.00 1045.00 L 582.00 1044.00 L 614.00 1040.00 L 596.00 1040.00 L 528.00 1044.00 L 474.00 1040.00 L 434.00 1028.00 L 412.00 1020.00 L 408.00 1016.00 L 400.00 1004.00 Z" fill="black" stroke="black" stroke-width="1"/>
</svg>