<?xml version="1.0" encoding="UTF-8"?>
<svg xmlns="http://www.w3.org/2000/svg" viewBox="349.00 265.00 818.00 1539.00">
  <path d="M 507.00 1010.00 L 509.00 970.00 L 513.00 941.00 L 519.00 923.00 L 521.00 911.00 L 519.00 905.00 L 520.00 903.00 L 524.00 905.00 L 521.00 903.00 L 511.00 897.00 L 510.00 896.00 L 518.00 900.00 L 517.00 897.00 L 507.00 887.00 L 502.00 873.00 L 502.00 855.00 L 500.00 839.00 L 496.00 825.00 L 487.00 807.00 L 473.00 785.00 L 456.00 762.00 L 436.00 738.00 L 416.00 705.00 L 396.00 663.00 L 385.00 614.00 L 383.00 558.00 L 388.00 511.00 L 400.00 473.00 L 411.00 446.00 L 421.00 430.00 L 436.00 411.00 L 456.00 389.00 L 476.00 370.00 L 496.00 354.00 L 527.00 335.00 L 569.00 313.00 L 606.00 297.00 L 638.00 287.00 L 670.00 280.00 L 702.00 276.00 L 728.00 275.00 L 748.00 277.00 L 766.00 281.00 L 782.00 287.00 L 797.00 290.00 L 811.00 290.00 L 829.00 293.00 L 851.00 299.00 L 865.00 305.00 L 871.00 311.00 L 890.00 322.00 L 922.00 338.00 L 947.00 355.00 L 965.00 373.00 L 980.00 386.00 L 992.00 394.00 L 1001.00 401.00 L 1007.00 407.00 L 1009.00 415.00 L 1007.00 425.00 L 1008.00 426.00 L 1012.00 418.00 L 1013.00 419.00 L 1011.00 429.00 L 1012.00 430.00 L 1016.00 422.00 L 1017.00 424.00 L 1015.00 436.00 L 1016.00 437.00 L 1020.00 427.00 L 1023.00 423.00 L 1025.00 425.00 L 1024.00 432.00 L 1020.00 444.00 L 1021.00 446.00 L 1027.00 438.00 L 1028.00 440.00 L 1024.00 452.00 L 1025.00 454.00 L 1031.00 446.00 L 1032.00 447.00 L 1028.00 457.00 L 1029.00 458.00 L 1035.00 450.00 L 1036.00 452.00 L 1032.00 464.00 L 1032.00 466.00 L 1036.00 458.00 L 1037.00 461.00 L 1035.00 475.00 L 1038.00 494.00 L 1046.00 518.00 L 1049.00 532.00 L 1047.00 536.00 L 1047.00 548.00 L 1049.00 568.00 L 1077.00 604.00 L 1131.00 656.00 L 1143.00 697.00 L 1113.00 727.00 L 1113.00 729.00 L 1143.00 703.00 L 1142.00 705.00 L 1110.00 735.00 L 1109.00 737.00 L 1139.00 711.00 L 1139.00 713.00 L 1109.00 743.00 L 1097.00 767.00 L 1103.00 785.00 L 1103.00 799.00 L 1097.00 809.00 L 1096.00 819.00 L 1100.00 829.00 L 1096.00 842.00 L 1084.00 858.00 L 1081.00 872.00 L 1087.00 884.00 L 1091.00 897.00 L 1093.00 911.00 L 1090.00 927.00 L 1082.00 945.00 L 1064.00 962.00 L 1036.00 978.00 L 1027.00 988.00 L 1037.00 992.00 L 1043.00 998.00 L 1045.00 1006.00 L 1041.00 1016.00 L 1031.00 1028.00 L 1025.00 1038.00 L 1023.00 1046.00 L 1018.00 1053.00 L 1010.00 1059.00 L 996.00 1084.00 L 976.00 1128.00 L 971.00 1169.00 L 981.00 1207.00 L 987.00 1245.00 L 989.00 1283.00 L 992.00 1307.00 L 996.00 1317.00 L 996.00 1320.00 L 992.00 1316.00 L 1015.00 1354.00 L 1065.00 1434.00 L 1089.00 1473.00 L 1087.00 1471.00 L 1088.00 1473.00 L 1092.00 1479.00 L 1091.00 1478.00 L 1085.00 1470.00 L 1089.00 1478.00 L 1103.00 1502.00 L 1109.00 1513.00 L 1107.00 1511.00 L 1117.00 1538.00 L 1139.00 1594.00 L 1149.00 1621.00 L 1147.00 1619.00 L 1149.00 1628.00 L 1155.00 1648.00 L 1157.00 1673.00 L 1155.00 1703.00 L 1151.00 1725.00 L 1145.00 1739.00 L 1137.00 1753.00 L 1127.00 1767.00 L 1110.00 1779.00 L 1086.00 1789.00 L 1069.00 1794.00 L 1059.00 1794.00 L 1028.00 1784.00 L 976.00 1764.00 L 943.00 1747.00 L 929.00 1733.00 L 922.00 1728.00 L 922.00 1732.00 L 910.00 1727.00 L 886.00 1713.00 L 846.00 1694.00 L 790.00 1670.00 L 724.00 1644.00 L 648.00 1616.00 L 588.00 1597.00 L 544.00 1587.00 L 509.00 1581.00 L 483.00 1579.00 L 467.00 1580.00 L 461.00 1584.00 L 459.00 1584.00 L 461.00 1580.00 L 460.00 1579.00 L 456.00 1581.00 L 452.00 1580.00 L 448.00 1576.00 L 427.00 1574.00 L 389.00 1574.00 L 368.00 1571.00 L 364.00 1565.00 L 361.00 1563.00 L 359.00 1565.00 L 364.00 1531.00 L 376.00 1461.00 L 393.00 1397.00 L 415.00 1339.00 L 435.00 1295.00 L 453.00 1265.00 L 463.00 1242.00 L 465.00 1226.00 L 474.00 1196.00 L 490.00 1152.00 L 499.00 1108.00 L 501.00 1064.00 L 503.00 1039.00 L 505.00 1033.00 L 507.00 1010.00 Z" fill="black" stroke="black" stroke-width="1"/>
</svg>