<?xml version="1.0" encoding="UTF-8"?>
<svg xmlns="http://www.w3.org/2000/svg" viewBox="239.00 334.00 957.00 1429.00">
  <path d="M 410.00 1048.00 L 422.00 1020.00 L 422.00 997.00 L 410.00 979.00 L 406.00 964.00 L 410.00 952.00 L 407.00 939.00 L 397.00 925.00 L 395.00 909.00 L 401.00 891.00 L 390.00 869.00 L 362.00 843.00 L 360.00 838.00 L 384.00 854.00 L 382.00 851.00 L 354.00 829.00 L 340.00 815.00 L 340.00 809.00 L 370.00 769.00 L 430.00 695.00 L 458.00 650.00 L 454.00 634.00 L 457.00 622.00 L 467.00 614.00 L 475.00 601.00 L 481.00 583.00 L 479.00 559.00 L 469.00 529.00 L 470.00 528.00 L 482.00 556.00 L 485.00 554.00 L 479.00 522.00 L 481.00 518.00 L 491.00 542.00 L 494.00 541.00 L 490.00 515.00 L 492.00 512.00 L 500.00 532.00 L 503.00 530.00 L 501.00 506.00 L 503.00 501.00 L 509.00 515.00 L 510.00 513.00 L 506.00 495.00 L 507.00 491.00 L 513.00 501.00 L 514.00 497.00 L 510.00 479.00 L 510.00 476.00 L 514.00 488.00 L 515.00 486.00 L 513.00 470.00 L 515.00 469.00 L 521.00 483.00 L 522.00 481.00 L 518.00 463.00 L 519.00 460.00 L 525.00 472.00 L 529.00 467.00 L 531.00 445.00 L 534.00 441.00 L 538.00 455.00 L 541.00 453.00 L 543.00 435.00 L 546.00 432.00 L 550.00 444.00 L 553.00 442.00 L 555.00 426.00 L 568.00 409.00 L 592.00 391.00 L 620.00 376.00 L 652.00 364.00 L 716.00 354.00 L 812.00 346.00 L 882.00 344.00 L 926.00 348.00 L 972.00 363.00 L 1020.00 389.00 L 1066.00 433.00 L 1110.00 495.00 L 1146.00 576.00 L 1174.00 676.00 L 1186.00 747.00 L 1182.00 789.00 L 1162.00 842.00 L 1126.00 906.00 L 1108.00 945.00 L 1108.00 959.00 L 1115.00 980.00 L 1129.00 1008.00 L 1124.00 1024.00 L 1100.00 1028.00 L 1101.00 1031.00 L 1127.00 1033.00 L 1128.00 1036.00 L 1104.00 1040.00 L 1104.00 1043.00 L 1128.00 1045.00 L 1130.00 1048.00 L 1110.00 1052.00 L 1110.00 1055.00 L 1130.00 1057.00 L 1130.00 1060.00 L 1110.00 1064.00 L 1109.00 1067.00 L 1127.00 1069.00 L 1127.00 1072.00 L 1109.00 1076.00 L 1107.00 1080.00 L 1121.00 1084.00 L 1122.00 1087.00 L 1110.00 1089.00 L 1105.00 1121.00 L 1107.00 1183.00 L 1100.00 1223.00 L 1084.00 1241.00 L 1086.00 1269.00 L 1106.00 1307.00 L 1115.00 1335.00 L 1113.00 1353.00 L 1117.00 1372.00 L 1127.00 1392.00 L 1132.00 1409.00 L 1132.00 1423.00 L 1128.00 1437.00 L 1120.00 1451.00 L 1107.00 1464.00 L 1089.00 1476.00 L 1041.00 1480.00 L 963.00 1476.00 L 873.00 1482.00 L 771.00 1498.00 L 674.00 1525.00 L 582.00 1563.00 L 483.00 1621.00 L 377.00 1699.00 L 315.00 1742.00 L 297.00 1750.00 L 282.00 1753.00 L 270.00 1751.00 L 259.00 1742.00 L 249.00 1726.00 L 300.00 1635.00 L 412.00 1469.00 L 412.00 1467.00 L 300.00 1629.00 L 301.00 1627.00 L 415.00 1461.00 L 415.00 1459.00 L 301.00 1621.00 L 302.00 1618.00 L 418.00 1450.00 L 418.00 1447.00 L 302.00 1609.00 L 299.00 1610.00 L 409.00 1450.00 L 409.00 1444.00 L 299.00 1592.00 L 295.00 1597.00 L 397.00 1459.00 L 398.00 1456.00 L 298.00 1588.00 L 296.00 1590.00 L 392.00 1462.00 L 393.00 1460.00 L 299.00 1584.00 L 297.00 1586.00 L 387.00 1466.00 L 388.00 1464.00 L 300.00 1580.00 L 298.00 1581.00 L 382.00 1467.00 L 383.00 1463.00 L 301.00 1569.00 L 298.00 1569.00 L 374.00 1463.00 L 403.00 1420.00 L 385.00 1440.00 L 381.00 1443.00 L 391.00 1429.00 L 384.00 1432.00 L 360.00 1452.00 L 381.00 1423.00 L 447.00 1345.00 L 442.00 1346.00 L 366.00 1426.00 L 368.00 1420.00 L 448.00 1328.00 L 446.00 1326.00 L 362.00 1414.00 L 361.00 1413.00 L 443.00 1323.00 L 452.00 1310.00 L 388.00 1374.00 L 382.00 1376.00 L 434.00 1316.00 L 451.00 1293.00 L 433.00 1307.00 L 438.00 1301.00 L 466.00 1275.00 L 465.00 1274.00 L 435.00 1298.00 L 435.00 1295.00 L 465.00 1265.00 L 464.00 1263.00 L 432.00 1289.00 L 432.00 1287.00 L 464.00 1257.00 L 464.00 1254.00 L 432.00 1278.00 L 431.00 1276.00 L 461.00 1248.00 L 463.00 1244.00 L 437.00 1264.00 L 436.00 1261.00 L 460.00 1235.00 L 468.00 1209.00 L 460.00 1183.00 L 467.00 1165.00 L 489.00 1155.00 L 491.00 1153.00 L 473.00 1159.00 L 471.00 1158.00 L 485.00 1150.00 L 475.00 1137.00 L 441.00 1119.00 L 419.00 1100.00 L 409.00 1080.00 L 404.00 1068.00 L 404.00 1064.00 L 410.00 1048.00 Z" fill="black" stroke="black" stroke-width="1"/>
</svg>