<?xml version="1.0" encoding="UTF-8"?>
<svg xmlns="http://www.w3.org/2000/svg" viewBox="452.00 117.00 926.00 1713.00">
  <path d="M 575.00 947.00 L 585.00 877.00 L 597.00 829.00 L 611.00 803.00 L 619.00 784.00 L 621.00 772.00 L 597.00 721.00 L 547.00 631.00 L 518.00 568.00 L 510.00 532.00 L 507.00 482.00 L 509.00 418.00 L 516.00 368.00 L 528.00 332.00 L 542.00 300.00 L 558.00 272.00 L 574.00 249.00 L 590.00 231.00 L 612.00 212.00 L 640.00 192.00 L 692.00 167.00 L 768.00 137.00 L 852.00 127.00 L 944.00 137.00 L 1009.00 149.00 L 1047.00 163.00 L 1089.00 184.00 L 1135.00 212.00 L 1185.00 253.00 L 1239.00 307.00 L 1272.00 354.00 L 1284.00 394.00 L 1288.00 421.00 L 1284.00 435.00 L 1285.00 438.00 L 1291.00 430.00 L 1292.00 433.00 L 1288.00 447.00 L 1290.00 449.00 L 1298.00 439.00 L 1299.00 441.00 L 1293.00 455.00 L 1294.00 458.00 L 1302.00 450.00 L 1302.00 455.00 L 1294.00 473.00 L 1295.00 475.00 L 1305.00 461.00 L 1305.00 464.00 L 1295.00 484.00 L 1295.00 486.00 L 1305.00 470.00 L 1305.00 473.00 L 1295.00 495.00 L 1290.00 512.00 L 1290.00 524.00 L 1294.00 538.00 L 1302.00 554.00 L 1325.00 585.00 L 1363.00 631.00 L 1368.00 666.00 L 1340.00 690.00 L 1326.00 704.00 L 1326.00 708.00 L 1340.00 699.00 L 1368.00 677.00 L 1368.00 679.00 L 1340.00 705.00 L 1340.00 707.00 L 1368.00 685.00 L 1368.00 687.00 L 1340.00 713.00 L 1325.00 734.00 L 1323.00 750.00 L 1317.00 762.00 L 1307.00 770.00 L 1307.00 773.00 L 1317.00 771.00 L 1320.00 772.00 L 1316.00 776.00 L 1316.00 778.00 L 1320.00 778.00 L 1316.00 783.00 L 1304.00 793.00 L 1303.00 795.00 L 1313.00 789.00 L 1311.00 791.00 L 1297.00 801.00 L 1296.00 805.00 L 1308.00 803.00 L 1310.00 805.00 L 1302.00 811.00 L 1303.00 813.00 L 1313.00 811.00 L 1320.00 819.00 L 1324.00 837.00 L 1319.00 855.00 L 1305.00 873.00 L 1298.00 898.00 L 1298.00 930.00 L 1292.00 956.00 L 1280.00 976.00 L 1273.00 992.00 L 1271.00 1004.00 L 1259.00 1021.00 L 1237.00 1043.00 L 1233.00 1057.00 L 1247.00 1063.00 L 1248.00 1065.00 L 1236.00 1063.00 L 1237.00 1066.00 L 1251.00 1074.00 L 1258.00 1083.00 L 1258.00 1093.00 L 1256.00 1102.00 L 1252.00 1110.00 L 1245.00 1116.00 L 1235.00 1120.00 L 1232.00 1123.00 L 1236.00 1125.00 L 1234.00 1126.00 L 1226.00 1126.00 L 1241.00 1138.00 L 1279.00 1162.00 L 1281.00 1165.00 L 1247.00 1147.00 L 1249.00 1149.00 L 1287.00 1171.00 L 1290.00 1175.00 L 1258.00 1161.00 L 1260.00 1165.00 L 1296.00 1187.00 L 1322.00 1204.00 L 1338.00 1216.00 L 1339.00 1218.00 L 1325.00 1210.00 L 1325.00 1212.00 L 1339.00 1224.00 L 1340.00 1227.00 L 1328.00 1221.00 L 1325.00 1220.00 L 1331.00 1224.00 L 1334.00 1229.00 L 1334.00 1235.00 L 1328.00 1238.00 L 1316.00 1238.00 L 1286.00 1222.00 L 1238.00 1190.00 L 1235.00 1190.00 L 1277.00 1222.00 L 1277.00 1225.00 L 1235.00 1199.00 L 1221.00 1192.00 L 1235.00 1204.00 L 1234.00 1206.00 L 1218.00 1198.00 L 1224.00 1219.00 L 1252.00 1269.00 L 1277.00 1322.00 L 1299.00 1378.00 L 1321.00 1454.00 L 1343.00 1550.00 L 1355.00 1622.00 L 1357.00 1670.00 L 1355.00 1709.00 L 1349.00 1739.00 L 1339.00 1767.00 L 1325.00 1793.00 L 1312.00 1807.00 L 1300.00 1809.00 L 1293.00 1813.00 L 1291.00 1819.00 L 1278.00 1820.00 L 1254.00 1816.00 L 1200.00 1791.00 L 1116.00 1745.00 L 1070.00 1718.00 L 1062.00 1710.00 L 991.00 1675.00 L 857.00 1613.00 L 777.00 1577.00 L 751.00 1567.00 L 737.00 1564.00 L 735.00 1568.00 L 726.00 1563.00 L 710.00 1549.00 L 697.00 1541.00 L 687.00 1539.00 L 679.00 1540.00 L 673.00 1544.00 L 664.00 1543.00 L 652.00 1537.00 L 597.00 1529.00 L 499.00 1519.00 L 462.00 1469.00 L 486.00 1379.00 L 512.00 1301.00 L 540.00 1235.00 L 554.00 1189.00 L 554.00 1163.00 L 560.00 1132.00 L 572.00 1096.00 L 575.00 1072.00 L 569.00 1060.00 L 566.00 1040.00 L 566.00 1012.00 L 567.00 994.00 L 569.00 986.00 L 575.00 947.00 Z" fill="black" stroke="black" stroke-width="1"/>
</svg>