<?xml version="1.0" encoding="UTF-8"?>
<svg xmlns="http://www.w3.org/2000/svg" viewBox="265.00 236.00 874.00 1516.00">
  <path d="M 404.00 1008.00 L 400.00 996.00 L 398.00 985.00 L 398.00 975.00 L 401.00 962.00 L 407.00 946.00 L 404.00 930.00 L 392.00 914.00 L 386.00 900.00 L 386.00 888.00 L 387.00 881.00 L 389.00 879.00 L 385.00 874.00 L 375.00 866.00 L 369.00 859.00 L 367.00 853.00 L 367.00 841.00 L 369.00 823.00 L 356.00 803.00 L 328.00 781.00 L 326.00 777.00 L 350.00 791.00 L 349.00 789.00 L 323.00 771.00 L 309.00 754.00 L 307.00 738.00 L 322.00 702.00 L 354.00 646.00 L 371.00 614.00 L 373.00 606.00 L 373.00 584.00 L 371.00 548.00 L 375.00 521.00 L 385.00 503.00 L 394.00 483.00 L 402.00 461.00 L 415.00 435.00 L 433.00 405.00 L 446.00 387.00 L 454.00 381.00 L 460.00 374.00 L 464.00 366.00 L 498.00 339.00 L 562.00 293.00 L 606.00 266.00 L 630.00 258.00 L 655.00 254.00 L 681.00 254.00 L 704.00 252.00 L 724.00 248.00 L 750.00 246.00 L 782.00 246.00 L 813.00 248.00 L 843.00 252.00 L 869.00 257.00 L 891.00 263.00 L 922.00 277.00 L 962.00 299.00 L 996.00 322.00 L 1024.00 346.00 L 1045.00 368.00 L 1059.00 388.00 L 1071.00 408.00 L 1081.00 428.00 L 1091.00 457.00 L 1101.00 495.00 L 1108.00 531.00 L 1112.00 565.00 L 1113.00 598.00 L 1111.00 630.00 L 1108.00 654.00 L 1104.00 670.00 L 1090.00 707.00 L 1066.00 765.00 L 1053.00 818.00 L 1051.00 866.00 L 1040.00 896.00 L 1020.00 908.00 L 1020.00 911.00 L 1040.00 905.00 L 1043.00 905.00 L 1029.00 911.00 L 1028.00 913.00 L 1040.00 911.00 L 1037.00 913.00 L 1019.00 919.00 L 1019.00 921.00 L 1037.00 919.00 L 1040.00 920.00 L 1028.00 924.00 L 1026.00 926.00 L 1034.00 926.00 L 1036.00 928.00 L 1032.00 932.00 L 1034.00 939.00 L 1042.00 949.00 L 1048.00 961.00 L 1052.00 975.00 L 1055.00 995.00 L 1057.00 1021.00 L 1061.00 1049.00 L 1067.00 1079.00 L 1070.00 1107.00 L 1070.00 1133.00 L 1068.00 1151.00 L 1064.00 1161.00 L 1062.00 1170.00 L 1062.00 1178.00 L 1067.00 1195.00 L 1077.00 1221.00 L 1085.00 1253.00 L 1091.00 1291.00 L 1097.00 1316.00 L 1103.00 1328.00 L 1110.00 1349.00 L 1118.00 1379.00 L 1124.00 1405.00 L 1128.00 1427.00 L 1129.00 1447.00 L 1127.00 1465.00 L 1103.00 1474.00 L 1057.00 1474.00 L 1019.00 1476.00 L 989.00 1480.00 L 941.00 1491.00 L 875.00 1509.00 L 790.00 1541.00 L 686.00 1587.00 L 632.00 1612.00 L 628.00 1616.00 L 605.00 1628.00 L 563.00 1648.00 L 532.00 1666.00 L 512.00 1682.00 L 489.00 1698.00 L 463.00 1714.00 L 438.00 1727.00 L 414.00 1737.00 L 390.00 1742.00 L 366.00 1742.00 L 347.00 1740.00 L 333.00 1736.00 L 321.00 1731.00 L 311.00 1725.00 L 302.00 1718.00 L 294.00 1710.00 L 287.00 1698.00 L 281.00 1682.00 L 277.00 1660.00 L 275.00 1632.00 L 277.00 1606.00 L 283.00 1582.00 L 285.00 1571.00 L 283.00 1573.00 L 287.00 1563.00 L 297.00 1541.00 L 301.00 1531.00 L 299.00 1533.00 L 302.00 1528.00 L 310.00 1516.00 L 311.00 1513.00 L 305.00 1519.00 L 313.00 1500.00 L 335.00 1456.00 L 345.00 1435.00 L 343.00 1437.00 L 347.00 1430.00 L 357.00 1414.00 L 361.00 1407.00 L 359.00 1409.00 L 376.00 1387.00 L 412.00 1341.00 L 416.00 1334.00 L 388.00 1366.00 L 388.00 1364.00 L 416.00 1328.00 L 432.00 1302.00 L 436.00 1286.00 L 448.00 1266.00 L 468.00 1242.00 L 469.00 1239.00 L 451.00 1257.00 L 452.00 1254.00 L 472.00 1230.00 L 478.00 1218.00 L 470.00 1218.00 L 468.00 1213.00 L 472.00 1203.00 L 470.00 1201.00 L 462.00 1207.00 L 460.00 1206.00 L 464.00 1198.00 L 459.00 1196.00 L 445.00 1200.00 L 431.00 1201.00 L 417.00 1199.00 L 425.00 1187.00 L 455.00 1165.00 L 454.00 1164.00 L 422.00 1184.00 L 421.00 1182.00 L 451.00 1158.00 L 450.00 1155.00 L 418.00 1173.00 L 417.00 1171.00 L 447.00 1149.00 L 447.00 1146.00 L 417.00 1162.00 L 412.00 1164.00 L 432.00 1152.00 L 434.00 1150.00 L 418.00 1158.00 L 415.00 1157.00 L 425.00 1147.00 L 438.00 1138.00 L 454.00 1130.00 L 460.00 1116.00 L 456.00 1096.00 L 455.00 1083.00 L 457.00 1077.00 L 460.00 1072.00 L 464.00 1068.00 L 472.00 1064.00 L 484.00 1060.00 L 480.00 1056.00 L 460.00 1052.00 L 440.00 1043.00 L 420.00 1029.00 L 409.00 1020.00 L 407.00 1016.00 L 404.00 1008.00 Z" fill="black" stroke="black" stroke-width="1"/>
</svg>