<?xml version="1.0" encoding="UTF-8"?>
<svg xmlns="http://www.w3.org/2000/svg" viewBox="361.00 277.00 803.00 1387.00">
  <path d="M 469.00 946.00 L 467.00 938.00 L 468.00 926.00 L 472.00 910.00 L 471.00 898.00 L 465.00 890.00 L 460.00 880.00 L 456.00 868.00 L 456.00 859.00 L 460.00 853.00 L 459.00 845.00 L 453.00 835.00 L 452.00 819.00 L 456.00 797.00 L 450.00 779.00 L 434.00 765.00 L 434.00 763.00 L 450.00 773.00 L 448.00 768.00 L 428.00 748.00 L 435.00 713.00 L 469.00 663.00 L 486.00 623.00 L 486.00 593.00 L 482.00 568.00 L 474.00 548.00 L 475.00 546.00 L 485.00 562.00 L 485.00 561.00 L 475.00 543.00 L 475.00 541.00 L 485.00 555.00 L 485.00 550.00 L 475.00 526.00 L 476.00 524.00 L 488.00 544.00 L 489.00 542.00 L 479.00 518.00 L 479.00 515.00 L 489.00 533.00 L 489.00 532.00 L 479.00 512.00 L 480.00 510.00 L 492.00 526.00 L 493.00 523.00 L 483.00 501.00 L 483.00 498.00 L 493.00 514.00 L 494.00 513.00 L 486.00 495.00 L 487.00 492.00 L 497.00 504.00 L 499.00 501.00 L 493.00 483.00 L 494.00 480.00 L 502.00 492.00 L 504.00 490.00 L 500.00 474.00 L 501.00 472.00 L 507.00 484.00 L 508.00 482.00 L 504.00 466.00 L 505.00 462.00 L 511.00 470.00 L 512.00 469.00 L 508.00 459.00 L 509.00 448.00 L 515.00 436.00 L 525.00 419.00 L 539.00 397.00 L 554.00 378.00 L 570.00 362.00 L 591.00 346.00 L 617.00 330.00 L 661.00 313.00 L 723.00 295.00 L 792.00 287.00 L 868.00 289.00 L 934.00 298.00 L 990.00 314.00 L 1028.00 327.00 L 1048.00 337.00 L 1068.00 352.00 L 1088.00 372.00 L 1110.00 407.00 L 1134.00 457.00 L 1148.00 489.00 L 1152.00 503.00 L 1154.00 523.00 L 1154.00 549.00 L 1151.00 576.00 L 1145.00 604.00 L 1128.00 648.00 L 1100.00 708.00 L 1082.00 767.00 L 1074.00 825.00 L 1067.00 859.00 L 1061.00 869.00 L 1054.00 875.00 L 1046.00 877.00 L 1044.00 878.00 L 1048.00 878.00 L 1055.00 891.00 L 1065.00 917.00 L 1072.00 942.00 L 1076.00 966.00 L 1080.00 999.00 L 1084.00 1041.00 L 1082.00 1079.00 L 1074.00 1113.00 L 1083.00 1181.00 L 1109.00 1283.00 L 1120.00 1338.00 L 1116.00 1346.00 L 1091.00 1352.00 L 1045.00 1356.00 L 995.00 1364.00 L 941.00 1376.00 L 857.00 1411.00 L 743.00 1469.00 L 665.00 1512.00 L 623.00 1540.00 L 580.00 1574.00 L 536.00 1614.00 L 501.00 1639.00 L 475.00 1649.00 L 455.00 1654.00 L 441.00 1654.00 L 427.00 1651.00 L 413.00 1645.00 L 400.00 1633.00 L 388.00 1615.00 L 379.00 1592.00 L 373.00 1564.00 L 371.00 1530.00 L 373.00 1490.00 L 377.00 1456.00 L 383.00 1428.00 L 394.00 1396.00 L 410.00 1360.00 L 417.00 1343.00 L 415.00 1345.00 L 447.00 1302.00 L 513.00 1214.00 L 515.00 1210.00 L 453.00 1290.00 L 452.00 1289.00 L 512.00 1207.00 L 530.00 1181.00 L 506.00 1211.00 L 501.00 1217.00 L 515.00 1199.00 L 516.00 1197.00 L 504.00 1211.00 L 506.00 1205.00 L 522.00 1179.00 L 525.00 1167.00 L 515.00 1169.00 L 515.00 1164.00 L 525.00 1152.00 L 509.00 1164.00 L 467.00 1200.00 L 465.00 1199.00 L 503.00 1161.00 L 502.00 1161.00 L 462.00 1199.00 L 460.00 1200.00 L 496.00 1164.00 L 494.00 1165.00 L 454.00 1203.00 L 452.00 1204.00 L 488.00 1168.00 L 486.00 1168.00 L 446.00 1204.00 L 444.00 1204.00 L 480.00 1168.00 L 477.00 1169.00 L 435.00 1207.00 L 434.00 1206.00 L 474.00 1166.00 L 471.00 1166.00 L 425.00 1206.00 L 434.00 1197.00 L 498.00 1139.00 L 496.00 1139.00 L 428.00 1197.00 L 415.00 1207.00 L 457.00 1169.00 L 456.00 1168.00 L 412.00 1204.00 L 425.00 1192.00 L 495.00 1132.00 L 506.00 1121.00 L 458.00 1159.00 L 457.00 1157.00 L 503.00 1115.00 L 514.00 1102.00 L 490.00 1118.00 L 487.00 1118.00 L 505.00 1102.00 L 506.00 1099.00 L 490.00 1109.00 L 493.00 1106.00 L 515.00 1090.00 L 516.00 1088.00 L 496.00 1100.00 L 494.00 1097.00 L 510.00 1079.00 L 514.00 1058.00 L 506.00 1034.00 L 513.00 1017.00 L 535.00 1007.00 L 535.00 1005.00 L 513.00 1011.00 L 511.00 1011.00 L 529.00 1005.00 L 530.00 1004.00 L 514.00 1008.00 L 513.00 1008.00 L 527.00 1004.00 L 528.00 1003.00 L 516.00 1005.00 L 513.00 1004.00 L 519.00 1000.00 L 516.00 995.00 L 504.00 989.00 L 492.00 979.00 L 480.00 965.00 L 473.00 956.00 L 471.00 952.00 L 469.00 946.00 Z" fill="black" stroke="black" stroke-width="1"/>
</svg>