<?xml version="1.0" encoding="UTF-8"?>
<svg xmlns="http://www.w3.org/2000/svg" viewBox="262.00 136.00 1050.00 1663.00">
  <path d="M 480.00 919.00 L 468.00 905.00 L 463.00 876.00 L 465.00 832.00 L 463.00 803.00 L 457.00 789.00 L 438.00 772.00 L 406.00 752.00 L 406.00 749.00 L 438.00 763.00 L 436.00 760.00 L 400.00 740.00 L 399.00 737.00 L 433.00 751.00 L 434.00 750.00 L 402.00 734.00 L 389.00 715.00 L 395.00 693.00 L 409.00 664.00 L 431.00 628.00 L 441.00 591.00 L 439.00 553.00 L 435.00 528.00 L 429.00 516.00 L 429.00 512.00 L 435.00 516.00 L 436.00 514.00 L 432.00 506.00 L 435.00 487.00 L 445.00 457.00 L 460.00 424.00 L 480.00 388.00 L 513.00 347.00 L 559.00 301.00 L 607.00 264.00 L 657.00 236.00 L 714.00 217.00 L 778.00 207.00 L 813.00 189.00 L 819.00 163.00 L 822.00 164.00 L 822.00 192.00 L 824.00 192.00 L 828.00 164.00 L 831.00 164.00 L 833.00 192.00 L 836.00 191.00 L 840.00 161.00 L 844.00 162.00 L 848.00 194.00 L 852.00 194.00 L 856.00 162.00 L 861.00 146.00 L 867.00 146.00 L 881.00 150.00 L 903.00 158.00 L 927.00 174.00 L 953.00 198.00 L 978.00 211.00 L 1002.00 213.00 L 1024.00 210.00 L 1044.00 202.00 L 1062.00 201.00 L 1078.00 207.00 L 1120.00 236.00 L 1188.00 288.00 L 1231.00 328.00 L 1249.00 356.00 L 1263.00 385.00 L 1273.00 415.00 L 1212.00 501.00 L 1080.00 643.00 L 1080.00 644.00 L 1212.00 504.00 L 1279.00 436.00 L 1281.00 440.00 L 1215.00 513.00 L 1081.00 655.00 L 1083.00 658.00 L 1221.00 522.00 L 1227.00 517.00 L 1101.00 643.00 L 1102.00 646.00 L 1230.00 526.00 L 1233.00 525.00 L 1111.00 643.00 L 1112.00 645.00 L 1236.00 531.00 L 1228.00 540.00 L 1088.00 672.00 L 1088.00 675.00 L 1228.00 549.00 L 1228.00 551.00 L 1088.00 681.00 L 1089.00 684.00 L 1231.00 560.00 L 1227.00 565.00 L 1077.00 699.00 L 1077.00 702.00 L 1227.00 574.00 L 1231.00 572.00 L 1089.00 696.00 L 1090.00 700.00 L 1234.00 584.00 L 1230.00 589.00 L 1078.00 715.00 L 1077.00 720.00 L 1227.00 604.00 L 1231.00 602.00 L 1089.00 714.00 L 1089.00 717.00 L 1231.00 611.00 L 1226.00 616.00 L 1074.00 732.00 L 1074.00 734.00 L 1226.00 622.00 L 1302.00 568.00 L 1302.00 572.00 L 1224.00 631.00 L 1068.00 745.00 L 1069.00 747.00 L 1227.00 637.00 L 1225.00 640.00 L 1063.00 756.00 L 1063.00 759.00 L 1225.00 649.00 L 1231.00 646.00 L 1081.00 750.00 L 1080.00 755.00 L 1228.00 661.00 L 1222.00 666.00 L 1062.00 770.00 L 1061.00 773.00 L 1219.00 675.00 L 1279.00 639.00 L 1241.00 665.00 L 1240.00 668.00 L 1276.00 648.00 L 1294.00 640.00 L 1294.00 644.00 L 1216.00 692.00 L 1060.00 784.00 L 1059.00 787.00 L 1213.00 701.00 L 1272.00 670.00 L 1236.00 694.00 L 1235.00 697.00 L 1269.00 679.00 L 1269.00 682.00 L 1235.00 706.00 L 1236.00 710.00 L 1272.00 694.00 L 1214.00 725.00 L 1062.00 803.00 L 1062.00 806.00 L 1214.00 734.00 L 1272.00 708.00 L 1236.00 728.00 L 1237.00 731.00 L 1275.00 717.00 L 1293.00 713.00 L 1291.00 719.00 L 1217.00 754.00 L 1071.00 818.00 L 1071.00 820.00 L 1217.00 760.00 L 1275.00 738.00 L 1245.00 754.00 L 1244.00 758.00 L 1272.00 750.00 L 1214.00 774.00 L 1070.00 830.00 L 1069.00 833.00 L 1211.00 783.00 L 1270.00 765.00 L 1246.00 779.00 L 1243.00 784.00 L 1261.00 780.00 L 1261.00 782.00 L 1243.00 790.00 L 1242.00 792.00 L 1258.00 788.00 L 1200.00 807.00 L 1068.00 849.00 L 1065.00 852.00 L 1191.00 816.00 L 1251.00 801.00 L 1245.00 807.00 L 1183.00 827.00 L 1065.00 861.00 L 1012.00 883.00 L 1024.00 893.00 L 1055.00 946.00 L 1105.00 1042.00 L 1139.00 1115.00 L 1157.00 1165.00 L 1178.00 1241.00 L 1202.00 1343.00 L 1162.00 1402.00 L 1058.00 1418.00 L 956.00 1446.00 L 856.00 1486.00 L 770.00 1531.00 L 698.00 1581.00 L 610.00 1655.00 L 506.00 1753.00 L 428.00 1789.00 L 376.00 1763.00 L 339.00 1738.00 L 317.00 1714.00 L 299.00 1686.00 L 285.00 1654.00 L 276.00 1610.00 L 272.00 1554.00 L 278.00 1502.00 L 294.00 1454.00 L 330.00 1394.00 L 386.00 1322.00 L 425.00 1263.00 L 447.00 1217.00 L 498.00 1151.00 L 578.00 1065.00 L 612.00 1011.00 L 600.00 989.00 L 570.00 966.00 L 522.00 942.00 L 495.00 929.00 L 489.00 927.00 L 480.00 919.00 Z" fill="black" stroke="black" stroke-width="1"/>
</svg>