<?xml version="1.0" encoding="UTF-8"?>
<svg xmlns="http://www.w3.org/2000/svg" viewBox="370.00 308.00 866.00 1463.00">
  <path d="M 548.00 1050.00 L 552.00 1050.00 L 545.00 1047.00 L 527.00 1041.00 L 513.00 1030.00 L 503.00 1014.00 L 498.00 995.00 L 498.00 973.00 L 492.00 954.00 L 480.00 938.00 L 475.00 924.00 L 477.00 912.00 L 476.00 898.00 L 472.00 882.00 L 472.00 865.00 L 476.00 847.00 L 470.00 829.00 L 454.00 811.00 L 445.00 797.00 L 443.00 787.00 L 457.00 763.00 L 487.00 725.00 L 505.00 698.00 L 511.00 682.00 L 514.00 668.00 L 514.00 656.00 L 507.00 638.00 L 493.00 614.00 L 486.00 600.00 L 486.00 596.00 L 493.00 605.00 L 507.00 627.00 L 509.00 624.00 L 499.00 596.00 L 499.00 589.00 L 509.00 603.00 L 511.00 600.00 L 505.00 580.00 L 506.00 577.00 L 514.00 591.00 L 515.00 589.00 L 509.00 571.00 L 510.00 567.00 L 518.00 577.00 L 519.00 570.00 L 513.00 546.00 L 514.00 542.00 L 522.00 558.00 L 522.00 556.00 L 514.00 536.00 L 515.00 535.00 L 525.00 553.00 L 526.00 550.00 L 518.00 526.00 L 519.00 524.00 L 529.00 544.00 L 530.00 542.00 L 522.00 518.00 L 523.00 515.00 L 533.00 533.00 L 536.00 530.00 L 532.00 506.00 L 534.00 502.00 L 542.00 518.00 L 544.00 516.00 L 540.00 496.00 L 542.00 493.00 L 550.00 507.00 L 552.00 505.00 L 548.00 487.00 L 549.00 486.00 L 555.00 502.00 L 558.00 499.00 L 558.00 477.00 L 562.00 460.00 L 570.00 448.00 L 582.00 435.00 L 598.00 421.00 L 631.00 400.00 L 681.00 372.00 L 736.00 348.00 L 796.00 328.00 L 842.00 318.00 L 874.00 318.00 L 921.00 324.00 L 983.00 336.00 L 1040.00 360.00 L 1092.00 396.00 L 1136.00 435.00 L 1172.00 477.00 L 1196.00 510.00 L 1208.00 534.00 L 1217.00 558.00 L 1223.00 582.00 L 1226.00 616.00 L 1226.00 660.00 L 1223.00 694.00 L 1217.00 718.00 L 1205.00 748.00 L 1187.00 784.00 L 1154.00 830.00 L 1106.00 886.00 L 1075.00 930.00 L 1061.00 962.00 L 1060.00 991.00 L 1072.00 1017.00 L 1077.00 1065.00 L 1075.00 1135.00 L 1070.00 1188.00 L 1062.00 1224.00 L 1063.00 1260.00 L 1073.00 1296.00 L 1077.00 1328.00 L 1075.00 1356.00 L 1079.00 1400.00 L 1089.00 1460.00 L 1092.00 1523.00 L 1088.00 1589.00 L 1049.00 1622.00 L 975.00 1622.00 L 912.00 1626.00 L 860.00 1634.00 L 779.00 1654.00 L 669.00 1686.00 L 582.00 1717.00 L 518.00 1747.00 L 473.00 1761.00 L 447.00 1759.00 L 425.00 1751.00 L 407.00 1737.00 L 395.00 1725.00 L 389.00 1715.00 L 384.00 1697.00 L 380.00 1671.00 L 381.00 1633.00 L 387.00 1583.00 L 396.00 1539.00 L 408.00 1501.00 L 413.00 1483.00 L 411.00 1485.00 L 415.00 1473.00 L 425.00 1447.00 L 441.00 1415.00 L 463.00 1377.00 L 472.00 1360.00 L 468.00 1364.00 L 481.00 1347.00 L 511.00 1309.00 L 521.00 1295.00 L 511.00 1305.00 L 512.00 1303.00 L 524.00 1289.00 L 531.00 1278.00 L 533.00 1270.00 L 547.00 1252.00 L 573.00 1224.00 L 573.00 1221.00 L 547.00 1243.00 L 545.00 1242.00 L 567.00 1218.00 L 566.00 1213.00 L 542.00 1227.00 L 523.00 1236.00 L 509.00 1240.00 L 497.00 1241.00 L 487.00 1239.00 L 507.00 1220.00 L 557.00 1184.00 L 554.00 1183.00 L 498.00 1217.00 L 496.00 1216.00 L 548.00 1180.00 L 549.00 1177.00 L 499.00 1207.00 L 495.00 1208.00 L 537.00 1180.00 L 560.00 1164.00 L 564.00 1160.00 L 556.00 1163.00 L 536.00 1173.00 L 548.00 1163.00 L 592.00 1133.00 L 599.00 1125.00 L 569.00 1139.00 L 553.00 1145.00 L 551.00 1143.00 L 562.00 1135.00 L 586.00 1121.00 L 585.00 1119.00 L 559.00 1129.00 L 563.00 1127.00 L 597.00 1113.00 L 598.00 1111.00 L 566.00 1121.00 L 566.00 1119.00 L 598.00 1105.00 L 603.00 1101.00 L 581.00 1107.00 L 580.00 1104.00 L 600.00 1092.00 L 610.00 1079.00 L 610.00 1065.00 L 598.00 1057.00 L 574.00 1055.00 L 558.00 1053.00 L 550.00 1051.00 L 548.00 1050.00 Z" fill="black" stroke="black" stroke-width="1"/>
</svg>