<?xml version="1.0" encoding="UTF-8"?>
<svg xmlns="http://www.w3.org/2000/svg" viewBox="431.00 281.00 761.00 1443.00">
  <path d="M 565.00 952.00 L 563.00 932.00 L 557.00 913.00 L 547.00 895.00 L 544.00 881.00 L 548.00 871.00 L 547.00 862.00 L 541.00 854.00 L 538.00 839.00 L 538.00 817.00 L 531.00 799.00 L 517.00 785.00 L 516.00 782.00 L 528.00 790.00 L 521.00 783.00 L 495.00 761.00 L 483.00 743.00 L 485.00 729.00 L 503.00 699.00 L 537.00 653.00 L 555.00 626.00 L 557.00 618.00 L 550.00 601.00 L 534.00 575.00 L 534.00 572.00 L 550.00 592.00 L 550.00 587.00 L 534.00 557.00 L 534.00 555.00 L 550.00 581.00 L 550.00 579.00 L 534.00 549.00 L 533.00 544.00 L 547.00 564.00 L 548.00 561.00 L 536.00 535.00 L 537.00 532.00 L 551.00 552.00 L 552.00 550.00 L 540.00 526.00 L 540.00 524.00 L 552.00 544.00 L 553.00 541.00 L 543.00 515.00 L 544.00 513.00 L 556.00 535.00 L 559.00 530.00 L 553.00 498.00 L 555.00 492.00 L 565.00 512.00 L 565.00 511.00 L 555.00 489.00 L 555.00 486.00 L 565.00 502.00 L 566.00 499.00 L 558.00 477.00 L 559.00 475.00 L 569.00 493.00 L 570.00 491.00 L 562.00 469.00 L 563.00 466.00 L 573.00 482.00 L 575.00 480.00 L 569.00 460.00 L 570.00 457.00 L 578.00 471.00 L 580.00 469.00 L 576.00 451.00 L 577.00 449.00 L 583.00 463.00 L 586.00 462.00 L 586.00 446.00 L 603.00 421.00 L 637.00 387.00 L 699.00 350.00 L 789.00 310.00 L 865.00 291.00 L 927.00 293.00 L 974.00 298.00 L 1006.00 306.00 L 1039.00 319.00 L 1073.00 337.00 L 1102.00 358.00 L 1126.00 382.00 L 1144.00 405.00 L 1156.00 427.00 L 1167.00 459.00 L 1177.00 501.00 L 1182.00 550.00 L 1182.00 606.00 L 1177.00 653.00 L 1167.00 691.00 L 1155.00 723.00 L 1141.00 749.00 L 1119.00 780.00 L 1089.00 816.00 L 1055.00 847.00 L 1017.00 873.00 L 1001.00 885.00 L 1007.00 883.00 L 1007.00 885.00 L 1001.00 891.00 L 997.00 907.00 L 995.00 933.00 L 1000.00 956.00 L 1012.00 976.00 L 1023.00 1005.00 L 1033.00 1043.00 L 1055.00 1086.00 L 1089.00 1134.00 L 1122.00 1196.00 L 1154.00 1272.00 L 1103.00 1339.00 L 969.00 1397.00 L 859.00 1455.00 L 773.00 1513.00 L 681.00 1585.00 L 583.00 1671.00 L 531.00 1714.00 L 525.00 1714.00 L 516.00 1710.00 L 504.00 1702.00 L 546.00 1571.00 L 642.00 1317.00 L 641.00 1316.00 L 543.00 1568.00 L 492.00 1693.00 L 488.00 1691.00 L 537.00 1562.00 L 639.00 1306.00 L 637.00 1305.00 L 531.00 1559.00 L 533.00 1552.00 L 643.00 1284.00 L 640.00 1282.00 L 524.00 1546.00 L 524.00 1544.00 L 640.00 1276.00 L 638.00 1274.00 L 518.00 1538.00 L 508.00 1559.00 L 608.00 1337.00 L 606.00 1335.00 L 502.00 1553.00 L 511.00 1531.00 L 633.00 1269.00 L 632.00 1267.00 L 508.00 1525.00 L 494.00 1553.00 L 590.00 1351.00 L 589.00 1350.00 L 491.00 1550.00 L 490.00 1551.00 L 586.00 1353.00 L 584.00 1350.00 L 484.00 1542.00 L 498.00 1511.00 L 626.00 1257.00 L 625.00 1254.00 L 495.00 1502.00 L 474.00 1541.00 L 562.00 1371.00 L 561.00 1370.00 L 471.00 1538.00 L 470.00 1539.00 L 558.00 1373.00 L 557.00 1371.00 L 467.00 1533.00 L 463.00 1538.00 L 545.00 1386.00 L 545.00 1383.00 L 463.00 1529.00 L 460.00 1533.00 L 536.00 1395.00 L 536.00 1392.00 L 460.00 1524.00 L 488.00 1473.00 L 620.00 1239.00 L 620.00 1236.00 L 488.00 1464.00 L 488.00 1463.00 L 620.00 1233.00 L 620.00 1229.00 L 488.00 1451.00 L 449.00 1516.00 L 503.00 1424.00 L 503.00 1422.00 L 449.00 1510.00 L 447.00 1512.00 L 497.00 1428.00 L 497.00 1425.00 L 447.00 1503.00 L 441.00 1510.00 L 479.00 1446.00 L 482.00 1440.00 L 450.00 1492.00 L 448.00 1495.00 L 476.00 1449.00 L 476.00 1448.00 L 448.00 1492.00 L 447.00 1493.00 L 473.00 1451.00 L 474.00 1448.00 L 450.00 1484.00 L 443.00 1494.00 L 453.00 1478.00 L 454.00 1476.00 L 446.00 1488.00 L 502.00 1398.00 L 622.00 1206.00 L 678.00 1102.00 L 670.00 1086.00 L 670.00 1067.00 L 678.00 1045.00 L 662.00 1025.00 L 622.00 1007.00 L 594.00 991.00 L 578.00 977.00 L 569.00 968.00 L 567.00 964.00 L 565.00 952.00 Z" fill="black" stroke="black" stroke-width="1"/>
</svg>