<?xml version="1.0" encoding="UTF-8"?>
<svg xmlns="http://www.w3.org/2000/svg" viewBox="277.00 160.00 950.00 1684.00">
  <path d="M 363.00 937.00 L 365.00 903.00 L 353.00 881.00 L 327.00 871.00 L 326.00 868.00 L 350.00 872.00 L 347.00 870.00 L 317.00 862.00 L 312.00 860.00 L 332.00 864.00 L 329.00 862.00 L 303.00 854.00 L 289.00 846.00 L 287.00 838.00 L 305.00 797.00 L 343.00 723.00 L 360.00 667.00 L 356.00 629.00 L 358.00 594.00 L 366.00 562.00 L 391.00 518.00 L 433.00 462.00 L 468.00 428.00 L 496.00 416.00 L 506.00 395.00 L 498.00 365.00 L 501.00 363.00 L 515.00 389.00 L 516.00 386.00 L 504.00 354.00 L 504.00 351.00 L 516.00 377.00 L 519.00 378.00 L 513.00 354.00 L 517.00 356.00 L 531.00 384.00 L 534.00 385.00 L 526.00 359.00 L 534.00 348.00 L 558.00 352.00 L 582.00 345.00 L 606.00 327.00 L 642.00 315.00 L 690.00 309.00 L 722.00 295.00 L 738.00 273.00 L 753.00 259.00 L 767.00 253.00 L 782.00 237.00 L 798.00 211.00 L 812.00 196.00 L 824.00 192.00 L 840.00 191.00 L 860.00 193.00 L 882.00 188.00 L 906.00 176.00 L 927.00 170.00 L 945.00 170.00 L 963.00 174.00 L 981.00 182.00 L 1003.00 186.00 L 1029.00 186.00 L 1059.00 199.00 L 1093.00 225.00 L 1124.00 260.00 L 1152.00 304.00 L 1172.00 346.00 L 1184.00 386.00 L 1191.00 435.00 L 1193.00 493.00 L 1200.00 544.00 L 1212.00 588.00 L 1217.00 641.00 L 1215.00 703.00 L 1210.00 749.00 L 1202.00 779.00 L 1186.00 817.00 L 1162.00 863.00 L 1116.00 893.00 L 1048.00 907.00 L 1047.00 909.00 L 1113.00 899.00 L 1110.00 900.00 L 1038.00 912.00 L 1037.00 915.00 L 1107.00 909.00 L 1105.00 911.00 L 1031.00 921.00 L 1030.00 922.00 L 1102.00 914.00 L 1087.00 917.00 L 985.00 931.00 L 985.00 933.00 L 1087.00 923.00 L 1079.00 924.00 L 961.00 936.00 L 960.00 939.00 L 1076.00 933.00 L 1074.00 935.00 L 954.00 945.00 L 953.00 948.00 L 1071.00 944.00 L 1106.00 943.00 L 1058.00 945.00 L 1058.00 947.00 L 1106.00 949.00 L 1068.00 952.00 L 944.00 956.00 L 943.00 959.00 L 1065.00 961.00 L 1106.00 963.00 L 1066.00 965.00 L 1064.00 967.00 L 1100.00 969.00 L 1116.00 972.00 L 1112.00 976.00 L 1097.00 978.00 L 1071.00 978.00 L 1069.00 980.00 L 1091.00 984.00 L 1047.00 982.00 L 937.00 974.00 L 936.00 975.00 L 1044.00 985.00 L 1045.00 988.00 L 939.00 984.00 L 904.00 995.00 L 940.00 1021.00 L 961.00 1046.00 L 967.00 1070.00 L 983.00 1105.00 L 1009.00 1151.00 L 1036.00 1215.00 L 1064.00 1297.00 L 1082.00 1363.00 L 1090.00 1413.00 L 1079.00 1441.00 L 1049.00 1447.00 L 1012.00 1458.00 L 968.00 1474.00 L 943.00 1481.00 L 937.00 1479.00 L 930.00 1482.00 L 922.00 1490.00 L 896.00 1504.00 L 852.00 1524.00 L 829.00 1533.00 L 827.00 1531.00 L 824.00 1534.00 L 820.00 1542.00 L 816.00 1544.00 L 812.00 1540.00 L 802.00 1543.00 L 786.00 1553.00 L 777.00 1557.00 L 775.00 1555.00 L 774.00 1558.00 L 774.00 1566.00 L 772.00 1568.00 L 768.00 1564.00 L 765.00 1566.00 L 763.00 1574.00 L 744.00 1589.00 L 708.00 1611.00 L 655.00 1651.00 L 585.00 1709.00 L 523.00 1767.00 L 469.00 1825.00 L 421.00 1834.00 L 379.00 1794.00 L 352.00 1763.00 L 340.00 1741.00 L 329.00 1711.00 L 319.00 1673.00 L 314.00 1638.00 L 314.00 1606.00 L 320.00 1569.00 L 332.00 1527.00 L 359.00 1466.00 L 401.00 1386.00 L 420.00 1348.00 L 416.00 1352.00 L 449.00 1310.00 L 519.00 1222.00 L 523.00 1215.00 L 461.00 1289.00 L 466.00 1281.00 L 538.00 1191.00 L 572.00 1139.00 L 568.00 1125.00 L 558.00 1109.00 L 542.00 1091.00 L 522.00 1077.00 L 498.00 1067.00 L 462.00 1058.00 L 414.00 1050.00 L 385.00 1043.00 L 375.00 1037.00 L 368.00 1029.00 L 364.00 1019.00 L 363.00 1001.00 L 365.00 975.00 L 365.00 960.00 L 363.00 956.00 L 363.00 937.00 Z" fill="black" stroke="black" stroke-width="1"/>
</svg>