<?xml version="1.0" encoding="UTF-8"?>
<svg xmlns="http://www.w3.org/2000/svg" viewBox="190.00 178.00 1293.00 1678.00">
  <path d="M 558.00 1036.00 L 554.00 1016.00 L 544.00 1002.00 L 528.00 994.00 L 519.00 984.00 L 517.00 972.00 L 535.00 942.00 L 573.00 894.00 L 491.00 806.00 L 289.00 678.00 L 291.00 676.00 L 497.00 800.00 L 506.00 803.00 L 318.00 685.00 L 216.00 620.00 L 200.00 608.00 L 211.00 610.00 L 249.00 626.00 L 251.00 622.00 L 217.00 598.00 L 301.00 651.00 L 503.00 781.00 L 506.00 777.00 L 310.00 639.00 L 245.00 590.00 L 311.00 630.00 L 313.00 627.00 L 251.00 581.00 L 316.00 627.00 L 508.00 765.00 L 509.00 763.00 L 319.00 621.00 L 318.00 618.00 L 506.00 754.00 L 508.00 751.00 L 324.00 609.00 L 280.00 571.00 L 376.00 637.00 L 379.00 634.00 L 289.00 562.00 L 333.00 597.00 L 511.00 739.00 L 515.00 734.00 L 345.00 582.00 L 347.00 578.00 L 521.00 722.00 L 524.00 719.00 L 356.00 569.00 L 357.00 567.00 L 527.00 713.00 L 531.00 710.00 L 369.00 558.00 L 355.00 542.00 L 489.00 662.00 L 493.00 660.00 L 367.00 536.00 L 382.00 549.00 L 538.00 699.00 L 538.00 697.00 L 382.00 543.00 L 382.00 540.00 L 538.00 688.00 L 543.00 684.00 L 397.00 528.00 L 396.00 525.00 L 540.00 675.00 L 543.00 672.00 L 405.00 516.00 L 347.00 429.00 L 369.00 411.00 L 439.00 368.00 L 557.00 300.00 L 686.00 246.00 L 826.00 206.00 L 949.00 188.00 L 1055.00 192.00 L 1128.00 200.00 L 1168.00 212.00 L 1208.00 231.00 L 1248.00 257.00 L 1289.00 293.00 L 1331.00 339.00 L 1367.00 389.00 L 1397.00 443.00 L 1425.00 516.00 L 1451.00 608.00 L 1467.00 693.00 L 1473.00 771.00 L 1468.00 942.00 L 1452.00 1206.00 L 1362.00 1296.00 L 1198.00 1212.00 L 1197.00 1215.00 L 1359.00 1305.00 L 1363.00 1308.00 L 1209.00 1224.00 L 1208.00 1229.00 L 1360.00 1323.00 L 1355.00 1322.00 L 1193.00 1226.00 L 1193.00 1228.00 L 1355.00 1328.00 L 1370.00 1338.00 L 1238.00 1258.00 L 1238.00 1263.00 L 1370.00 1353.00 L 1356.00 1347.00 L 1196.00 1245.00 L 1195.00 1248.00 L 1353.00 1356.00 L 1354.00 1359.00 L 1198.00 1257.00 L 1197.00 1260.00 L 1351.00 1368.00 L 1382.00 1390.00 L 1290.00 1326.00 L 1290.00 1328.00 L 1382.00 1396.00 L 1388.00 1402.00 L 1308.00 1346.00 L 1307.00 1349.00 L 1385.00 1411.00 L 1393.00 1420.00 L 1331.00 1376.00 L 1330.00 1379.00 L 1390.00 1429.00 L 1345.00 1397.00 L 1195.00 1283.00 L 1193.00 1286.00 L 1339.00 1406.00 L 1398.00 1455.00 L 1370.00 1433.00 L 1364.00 1432.00 L 1380.00 1452.00 L 1321.00 1406.00 L 1187.00 1294.00 L 1190.00 1298.00 L 1330.00 1418.00 L 1330.00 1422.00 L 1190.00 1310.00 L 1151.00 1308.00 L 1213.00 1416.00 L 1252.00 1515.00 L 1268.00 1605.00 L 1199.00 1660.00 L 1045.00 1680.00 L 914.00 1707.00 L 806.00 1741.00 L 708.00 1780.00 L 620.00 1824.00 L 549.00 1846.00 L 495.00 1846.00 L 459.00 1830.00 L 441.00 1798.00 L 440.00 1745.00 L 456.00 1671.00 L 501.00 1580.00 L 575.00 1472.00 L 574.00 1468.00 L 498.00 1568.00 L 467.00 1608.00 L 481.00 1588.00 L 482.00 1585.00 L 470.00 1599.00 L 513.00 1540.00 L 611.00 1408.00 L 614.00 1395.00 L 522.00 1501.00 L 520.00 1498.00 L 608.00 1386.00 L 619.00 1365.00 L 553.00 1435.00 L 552.00 1432.00 L 616.00 1356.00 L 617.00 1352.00 L 555.00 1420.00 L 554.00 1417.00 L 614.00 1343.00 L 633.00 1292.00 L 611.00 1264.00 L 607.00 1240.00 L 621.00 1220.00 L 618.00 1207.00 L 598.00 1201.00 L 581.00 1188.00 L 567.00 1168.00 L 565.00 1143.00 L 575.00 1113.00 L 577.00 1088.00 L 571.00 1068.00 L 566.00 1055.00 L 562.00 1049.00 L 558.00 1036.00 Z" fill="black" stroke="black" stroke-width="1"/>
</svg>