<?xml version="1.0" encoding="UTF-8"?>
<svg xmlns="http://www.w3.org/2000/svg" viewBox="435.00 349.00 813.00 1372.00">
  <path d="M 491.00 988.00 L 485.00 980.00 L 483.00 970.00 L 485.00 958.00 L 482.00 947.00 L 474.00 937.00 L 472.00 921.00 L 476.00 899.00 L 476.00 884.00 L 472.00 876.00 L 466.00 870.00 L 458.00 866.00 L 451.00 855.00 L 445.00 837.00 L 459.00 806.00 L 493.00 762.00 L 511.00 731.00 L 513.00 713.00 L 509.00 683.00 L 499.00 641.00 L 495.00 608.00 L 497.00 584.00 L 502.00 561.00 L 510.00 539.00 L 517.00 527.00 L 523.00 525.00 L 525.00 521.00 L 523.00 515.00 L 523.00 513.00 L 525.00 515.00 L 527.00 512.00 L 529.00 504.00 L 541.00 488.00 L 563.00 464.00 L 590.00 441.00 L 622.00 419.00 L 651.00 402.00 L 677.00 390.00 L 715.00 378.00 L 765.00 366.00 L 829.00 361.00 L 907.00 363.00 L 968.00 370.00 L 1012.00 382.00 L 1039.00 380.00 L 1049.00 364.00 L 1052.00 364.00 L 1048.00 380.00 L 1052.00 380.00 L 1064.00 364.00 L 1076.00 359.00 L 1088.00 365.00 L 1101.00 376.00 L 1115.00 392.00 L 1125.00 398.00 L 1131.00 394.00 L 1136.00 393.00 L 1140.00 395.00 L 1160.00 424.00 L 1196.00 480.00 L 1220.00 536.00 L 1232.00 592.00 L 1238.00 647.00 L 1238.00 701.00 L 1232.00 753.00 L 1220.00 803.00 L 1202.00 852.00 L 1178.00 900.00 L 1161.00 928.00 L 1151.00 936.00 L 1134.00 943.00 L 1110.00 949.00 L 1101.00 952.00 L 1107.00 952.00 L 1086.00 956.00 L 1038.00 964.00 L 1032.00 966.00 L 1068.00 962.00 L 1067.00 963.00 L 1029.00 969.00 L 1027.00 970.00 L 1061.00 966.00 L 1064.00 966.00 L 1036.00 970.00 L 1034.00 971.00 L 1058.00 969.00 L 1054.00 972.00 L 1022.00 980.00 L 1005.00 988.00 L 1003.00 996.00 L 1002.00 1030.00 L 1002.00 1090.00 L 1005.00 1130.00 L 1011.00 1150.00 L 1020.00 1170.00 L 1032.00 1190.00 L 1038.00 1205.00 L 1038.00 1215.00 L 1046.00 1244.00 L 1062.00 1292.00 L 1069.00 1315.00 L 1067.00 1313.00 L 1071.00 1341.00 L 1081.00 1399.00 L 1085.00 1440.00 L 1083.00 1464.00 L 1051.00 1482.00 L 989.00 1494.00 L 928.00 1511.00 L 868.00 1533.00 L 805.00 1561.00 L 739.00 1595.00 L 664.00 1642.00 L 580.00 1702.00 L 527.00 1711.00 L 505.00 1669.00 L 542.00 1546.00 L 638.00 1342.00 L 637.00 1340.00 L 539.00 1540.00 L 490.00 1638.00 L 490.00 1634.00 L 541.00 1529.00 L 643.00 1323.00 L 642.00 1320.00 L 538.00 1520.00 L 539.00 1515.00 L 645.00 1305.00 L 644.00 1302.00 L 536.00 1506.00 L 525.00 1526.00 L 611.00 1362.00 L 611.00 1360.00 L 525.00 1520.00 L 537.00 1496.00 L 647.00 1288.00 L 646.00 1285.00 L 534.00 1487.00 L 533.00 1488.00 L 643.00 1288.00 L 643.00 1285.00 L 533.00 1479.00 L 512.00 1515.00 L 580.00 1393.00 L 580.00 1391.00 L 512.00 1509.00 L 511.00 1510.00 L 577.00 1394.00 L 577.00 1392.00 L 511.00 1504.00 L 534.00 1463.00 L 646.00 1269.00 L 646.00 1267.00 L 534.00 1457.00 L 502.00 1511.00 L 550.00 1429.00 L 550.00 1426.00 L 502.00 1502.00 L 534.00 1447.00 L 646.00 1261.00 L 646.00 1259.00 L 534.00 1441.00 L 496.00 1502.00 L 532.00 1442.00 L 532.00 1440.00 L 496.00 1496.00 L 534.00 1433.00 L 646.00 1251.00 L 648.00 1244.00 L 540.00 1412.00 L 494.00 1483.00 L 510.00 1457.00 L 512.00 1453.00 L 500.00 1471.00 L 546.00 1398.00 L 650.00 1234.00 L 699.00 1146.00 L 693.00 1134.00 L 686.00 1125.00 L 678.00 1119.00 L 654.00 1114.00 L 614.00 1110.00 L 578.00 1101.00 L 546.00 1087.00 L 524.00 1073.00 L 512.00 1059.00 L 504.00 1039.00 L 500.00 1013.00 L 497.00 998.00 L 495.00 994.00 L 491.00 988.00 Z" fill="black" stroke="black" stroke-width="1"/>
</svg>