<?xml version="1.0" encoding="UTF-8"?>
<svg xmlns="http://www.w3.org/2000/svg" viewBox="288.00 226.00 920.00 1518.00">
  <path d="M 481.00 960.00 L 479.00 948.00 L 482.00 933.00 L 490.00 915.00 L 489.00 899.00 L 479.00 885.00 L 474.00 872.00 L 474.00 860.00 L 472.00 852.00 L 468.00 848.00 L 467.00 838.00 L 469.00 822.00 L 453.00 802.00 L 419.00 778.00 L 420.00 776.00 L 456.00 796.00 L 455.00 793.00 L 417.00 767.00 L 417.00 765.00 L 455.00 787.00 L 455.00 784.00 L 417.00 756.00 L 398.00 740.00 L 398.00 736.00 L 406.00 720.00 L 422.00 692.00 L 441.00 667.00 L 463.00 645.00 L 479.00 625.00 L 489.00 607.00 L 484.00 583.00 L 464.00 553.00 L 464.00 551.00 L 484.00 577.00 L 484.00 575.00 L 464.00 545.00 L 464.00 543.00 L 484.00 569.00 L 485.00 567.00 L 467.00 537.00 L 467.00 534.00 L 485.00 558.00 L 487.00 556.00 L 473.00 528.00 L 473.00 525.00 L 487.00 547.00 L 490.00 551.00 L 482.00 537.00 L 481.00 534.00 L 487.00 542.00 L 486.00 535.00 L 478.00 513.00 L 478.00 507.00 L 486.00 517.00 L 487.00 514.00 L 481.00 498.00 L 482.00 496.00 L 490.00 508.00 L 491.00 505.00 L 485.00 487.00 L 486.00 484.00 L 494.00 496.00 L 494.00 491.00 L 486.00 469.00 L 487.00 467.00 L 497.00 485.00 L 503.00 492.00 L 505.00 488.00 L 501.00 476.00 L 491.00 456.00 L 491.00 455.00 L 501.00 473.00 L 506.00 479.00 L 506.00 473.00 L 507.00 472.00 L 509.00 476.00 L 505.00 467.00 L 495.00 445.00 L 496.00 443.00 L 508.00 461.00 L 509.00 459.00 L 499.00 437.00 L 500.00 435.00 L 512.00 453.00 L 517.00 458.00 L 515.00 450.00 L 516.00 448.00 L 520.00 452.00 L 518.00 444.00 L 510.00 424.00 L 511.00 422.00 L 521.00 438.00 L 523.00 436.00 L 517.00 416.00 L 518.00 413.00 L 526.00 427.00 L 528.00 425.00 L 524.00 407.00 L 535.00 382.00 L 561.00 350.00 L 584.00 325.00 L 604.00 307.00 L 627.00 293.00 L 653.00 283.00 L 675.00 272.00 L 693.00 260.00 L 713.00 251.00 L 735.00 245.00 L 767.00 242.00 L 809.00 242.00 L 838.00 240.00 L 854.00 236.00 L 888.00 236.00 L 940.00 240.00 L 982.00 247.00 L 1014.00 257.00 L 1046.00 270.00 L 1078.00 286.00 L 1112.00 315.00 L 1148.00 357.00 L 1174.00 399.00 L 1190.00 441.00 L 1198.00 483.00 L 1198.00 525.00 L 1189.00 586.00 L 1171.00 666.00 L 1162.00 732.00 L 1162.00 784.00 L 1160.00 816.00 L 1156.00 828.00 L 1147.00 837.00 L 1133.00 843.00 L 1131.00 845.00 L 1141.00 843.00 L 1142.00 845.00 L 1134.00 851.00 L 1132.00 861.00 L 1136.00 875.00 L 1137.00 898.00 L 1135.00 930.00 L 1136.00 961.00 L 1140.00 991.00 L 1142.00 1019.00 L 1142.00 1045.00 L 1139.00 1066.00 L 1133.00 1082.00 L 1135.00 1108.00 L 1145.00 1144.00 L 1150.00 1172.00 L 1150.00 1192.00 L 1155.00 1215.00 L 1165.00 1241.00 L 1174.00 1274.00 L 1182.00 1314.00 L 1188.00 1352.00 L 1192.00 1388.00 L 1193.00 1429.00 L 1191.00 1475.00 L 1188.00 1500.00 L 1184.00 1504.00 L 1150.00 1506.00 L 1086.00 1506.00 L 1016.00 1511.00 L 940.00 1521.00 L 841.00 1546.00 L 719.00 1586.00 L 624.00 1622.00 L 556.00 1654.00 L 494.00 1686.00 L 438.00 1718.00 L 402.00 1734.00 L 386.00 1734.00 L 370.00 1729.00 L 354.00 1719.00 L 338.00 1704.00 L 322.00 1684.00 L 310.00 1662.00 L 302.00 1638.00 L 298.00 1617.00 L 298.00 1599.00 L 302.00 1575.00 L 310.00 1545.00 L 320.00 1514.00 L 332.00 1482.00 L 348.00 1450.00 L 368.00 1418.00 L 376.00 1404.00 L 372.00 1408.00 L 388.00 1385.00 L 424.00 1335.00 L 437.00 1315.00 L 427.00 1325.00 L 433.00 1318.00 L 455.00 1294.00 L 461.00 1287.00 L 451.00 1297.00 L 453.00 1294.00 L 467.00 1278.00 L 482.00 1255.00 L 498.00 1225.00 L 512.00 1204.00 L 524.00 1192.00 L 530.00 1183.00 L 530.00 1177.00 L 525.00 1173.00 L 515.00 1171.00 L 505.00 1166.00 L 495.00 1158.00 L 502.00 1145.00 L 526.00 1127.00 L 525.00 1126.00 L 499.00 1142.00 L 498.00 1141.00 L 522.00 1123.00 L 522.00 1121.00 L 498.00 1135.00 L 490.00 1137.00 L 498.00 1127.00 L 509.00 1118.00 L 523.00 1110.00 L 524.00 1108.00 L 512.00 1112.00 L 512.00 1109.00 L 524.00 1099.00 L 524.00 1079.00 L 512.00 1049.00 L 512.00 1031.00 L 524.00 1025.00 L 524.00 1023.00 L 512.00 1025.00 L 515.00 1024.00 L 533.00 1020.00 L 535.00 1019.00 L 521.00 1021.00 L 520.00 1019.00 L 532.00 1013.00 L 526.00 1002.00 L 502.00 986.00 L 488.00 975.00 L 484.00 969.00 L 481.00 960.00 Z" fill="black" stroke="black" stroke-width="1"/>
</svg>