<?xml version="1.0" encoding="UTF-8"?>
<svg xmlns="http://www.w3.org/2000/svg" viewBox="281.00 246.00 875.00 1491.00">
  <path d="M 436.00 988.00 L 432.00 980.00 L 430.00 961.00 L 430.00 931.00 L 423.00 909.00 L 409.00 895.00 L 402.00 883.00 L 402.00 873.00 L 398.00 864.00 L 390.00 856.00 L 387.00 847.00 L 389.00 837.00 L 374.00 822.00 L 342.00 802.00 L 343.00 801.00 L 377.00 819.00 L 375.00 815.00 L 337.00 789.00 L 337.00 785.00 L 375.00 803.00 L 375.00 800.00 L 337.00 776.00 L 335.00 773.00 L 369.00 791.00 L 371.00 788.00 L 341.00 764.00 L 341.00 731.00 L 371.00 689.00 L 396.00 658.00 L 416.00 638.00 L 427.00 612.00 L 429.00 580.00 L 426.00 555.00 L 418.00 537.00 L 419.00 535.00 L 429.00 549.00 L 429.00 546.00 L 419.00 526.00 L 419.00 524.00 L 429.00 540.00 L 432.00 542.00 L 428.00 530.00 L 429.00 529.00 L 435.00 539.00 L 439.00 543.00 L 441.00 541.00 L 438.00 531.00 L 430.00 513.00 L 431.00 510.00 L 441.00 522.00 L 441.00 513.00 L 431.00 483.00 L 433.00 480.00 L 447.00 504.00 L 447.00 501.00 L 433.00 471.00 L 433.00 469.00 L 447.00 495.00 L 448.00 494.00 L 436.00 466.00 L 437.00 463.00 L 451.00 485.00 L 452.00 483.00 L 440.00 457.00 L 440.00 454.00 L 452.00 474.00 L 454.00 472.00 L 446.00 448.00 L 447.00 445.00 L 457.00 463.00 L 458.00 462.00 L 450.00 442.00 L 450.00 438.00 L 458.00 450.00 L 459.00 448.00 L 453.00 432.00 L 454.00 433.00 L 462.00 451.00 L 463.00 448.00 L 457.00 424.00 L 458.00 421.00 L 466.00 439.00 L 468.00 437.00 L 464.00 415.00 L 475.00 395.00 L 501.00 377.00 L 523.00 357.00 L 541.00 335.00 L 560.00 318.00 L 580.00 306.00 L 615.00 292.00 L 665.00 276.00 L 703.00 269.00 L 729.00 271.00 L 756.00 268.00 L 784.00 260.00 L 812.00 256.00 L 840.00 256.00 L 863.00 259.00 L 881.00 265.00 L 897.00 268.00 L 911.00 268.00 L 932.00 273.00 L 960.00 283.00 L 990.00 300.00 L 1022.00 324.00 L 1051.00 352.00 L 1077.00 384.00 L 1096.00 415.00 L 1108.00 445.00 L 1116.00 471.00 L 1120.00 493.00 L 1123.00 517.00 L 1125.00 543.00 L 1124.00 577.00 L 1120.00 619.00 L 1110.00 665.00 L 1094.00 715.00 L 1075.00 761.00 L 1053.00 803.00 L 1048.00 830.00 L 1060.00 842.00 L 1069.00 864.00 L 1075.00 896.00 L 1077.00 940.00 L 1075.00 996.00 L 1069.00 1036.00 L 1059.00 1060.00 L 1059.00 1084.00 L 1069.00 1108.00 L 1077.00 1146.00 L 1083.00 1198.00 L 1097.00 1256.00 L 1119.00 1320.00 L 1134.00 1378.00 L 1142.00 1430.00 L 1146.00 1472.00 L 1146.00 1504.00 L 1118.00 1521.00 L 1062.00 1523.00 L 998.00 1530.00 L 926.00 1542.00 L 885.00 1547.00 L 875.00 1545.00 L 870.00 1546.00 L 870.00 1550.00 L 853.00 1555.00 L 819.00 1561.00 L 802.00 1566.00 L 802.00 1570.00 L 793.00 1572.00 L 775.00 1572.00 L 761.00 1577.00 L 751.00 1587.00 L 706.00 1606.00 L 626.00 1634.00 L 567.00 1659.00 L 529.00 1681.00 L 489.00 1700.00 L 447.00 1716.00 L 415.00 1725.00 L 393.00 1727.00 L 372.00 1724.00 L 352.00 1716.00 L 334.00 1703.00 L 318.00 1685.00 L 305.00 1663.00 L 295.00 1637.00 L 291.00 1605.00 L 293.00 1567.00 L 307.00 1509.00 L 333.00 1431.00 L 359.00 1370.00 L 385.00 1326.00 L 397.00 1305.00 L 395.00 1307.00 L 411.00 1285.00 L 445.00 1239.00 L 462.00 1213.00 L 462.00 1207.00 L 453.00 1208.00 L 435.00 1216.00 L 418.00 1219.00 L 402.00 1217.00 L 400.00 1210.00 L 412.00 1198.00 L 412.00 1196.00 L 400.00 1204.00 L 413.00 1193.00 L 451.00 1163.00 L 459.00 1155.00 L 437.00 1169.00 L 436.00 1168.00 L 456.00 1152.00 L 462.00 1144.00 L 454.00 1144.00 L 461.00 1136.00 L 483.00 1120.00 L 481.00 1118.00 L 455.00 1130.00 L 440.00 1135.00 L 436.00 1133.00 L 448.00 1124.00 L 476.00 1108.00 L 475.00 1106.00 L 445.00 1118.00 L 445.00 1116.00 L 475.00 1100.00 L 477.00 1097.00 L 451.00 1107.00 L 446.00 1107.00 L 462.00 1097.00 L 464.00 1094.00 L 452.00 1098.00 L 457.00 1095.00 L 479.00 1085.00 L 482.00 1083.00 L 466.00 1089.00 L 465.00 1087.00 L 479.00 1077.00 L 483.00 1067.00 L 477.00 1057.00 L 477.00 1049.00 L 483.00 1043.00 L 484.00 1040.00 L 480.00 1040.00 L 484.00 1038.00 L 496.00 1034.00 L 497.00 1031.00 L 487.00 1029.00 L 473.00 1022.00 L 455.00 1010.00 L 444.00 1001.00 L 440.00 995.00 L 436.00 988.00 Z" fill="black" stroke="black" stroke-width="1"/>
</svg>