<?xml version="1.0" encoding="UTF-8"?>
<svg xmlns="http://www.w3.org/2000/svg" viewBox="236.00 148.00 852.00 1619.00">
  <path d="M 427.00 978.00 L 437.00 970.00 L 432.00 961.00 L 412.00 951.00 L 394.00 938.00 L 378.00 922.00 L 369.00 907.00 L 367.00 893.00 L 368.00 877.00 L 372.00 859.00 L 368.00 843.00 L 356.00 829.00 L 352.00 818.00 L 356.00 810.00 L 356.00 800.00 L 352.00 788.00 L 351.00 773.00 L 353.00 755.00 L 342.00 734.00 L 318.00 710.00 L 317.00 707.00 L 339.00 725.00 L 337.00 723.00 L 311.00 701.00 L 306.00 696.00 L 322.00 708.00 L 322.00 706.00 L 306.00 690.00 L 310.00 692.00 L 334.00 712.00 L 334.00 709.00 L 310.00 683.00 L 317.00 647.00 L 355.00 601.00 L 375.00 564.00 L 377.00 536.00 L 382.00 509.00 L 390.00 483.00 L 399.00 457.00 L 409.00 431.00 L 427.00 400.00 L 453.00 364.00 L 465.00 340.00 L 463.00 328.00 L 463.00 325.00 L 465.00 331.00 L 467.00 323.00 L 469.00 301.00 L 473.00 290.00 L 479.00 290.00 L 495.00 276.00 L 521.00 248.00 L 552.00 223.00 L 588.00 201.00 L 616.00 186.00 L 636.00 178.00 L 668.00 170.00 L 712.00 162.00 L 743.00 158.00 L 761.00 158.00 L 795.00 163.00 L 845.00 173.00 L 882.00 183.00 L 906.00 193.00 L 933.00 208.00 L 963.00 228.00 L 990.00 250.00 L 1014.00 274.00 L 1034.00 303.00 L 1050.00 337.00 L 1063.00 377.00 L 1073.00 423.00 L 1078.00 478.00 L 1078.00 542.00 L 1075.00 590.00 L 1069.00 622.00 L 1056.00 663.00 L 1036.00 713.00 L 1005.00 773.00 L 963.00 843.00 L 929.00 884.00 L 903.00 896.00 L 902.00 899.00 L 926.00 893.00 L 937.00 892.00 L 935.00 896.00 L 923.00 903.00 L 901.00 913.00 L 899.00 916.00 L 917.00 912.00 L 918.00 914.00 L 902.00 922.00 L 901.00 936.00 L 915.00 956.00 L 928.00 998.00 L 940.00 1062.00 L 944.00 1105.00 L 940.00 1127.00 L 943.00 1147.00 L 953.00 1165.00 L 960.00 1193.00 L 964.00 1231.00 L 975.00 1277.00 L 993.00 1331.00 L 1006.00 1393.00 L 1014.00 1463.00 L 990.00 1502.00 L 934.00 1510.00 L 879.00 1522.00 L 825.00 1538.00 L 795.00 1545.00 L 789.00 1543.00 L 772.00 1549.00 L 744.00 1563.00 L 719.00 1572.00 L 697.00 1576.00 L 680.00 1583.00 L 668.00 1593.00 L 648.00 1602.00 L 620.00 1610.00 L 601.00 1619.00 L 591.00 1629.00 L 571.00 1642.00 L 541.00 1658.00 L 519.00 1667.00 L 505.00 1669.00 L 496.00 1674.00 L 492.00 1682.00 L 488.00 1685.00 L 484.00 1683.00 L 477.00 1687.00 L 467.00 1697.00 L 462.00 1699.00 L 462.00 1693.00 L 454.00 1699.00 L 438.00 1717.00 L 413.00 1733.00 L 379.00 1747.00 L 353.00 1755.00 L 335.00 1757.00 L 316.00 1754.00 L 296.00 1746.00 L 278.00 1732.00 L 262.00 1712.00 L 252.00 1696.00 L 248.00 1684.00 L 246.00 1653.00 L 246.00 1603.00 L 253.00 1553.00 L 267.00 1503.00 L 273.00 1479.00 L 271.00 1481.00 L 283.00 1455.00 L 309.00 1401.00 L 321.00 1375.00 L 319.00 1377.00 L 330.00 1359.00 L 354.00 1321.00 L 364.00 1304.00 L 360.00 1308.00 L 371.00 1294.00 L 397.00 1262.00 L 408.00 1248.00 L 404.00 1252.00 L 407.00 1244.00 L 417.00 1224.00 L 412.00 1218.00 L 392.00 1226.00 L 386.00 1226.00 L 394.00 1218.00 L 391.00 1219.00 L 377.00 1229.00 L 374.00 1228.00 L 382.00 1216.00 L 380.00 1215.00 L 368.00 1225.00 L 369.00 1223.00 L 383.00 1209.00 L 392.00 1197.00 L 396.00 1187.00 L 415.00 1168.00 L 449.00 1140.00 L 451.00 1137.00 L 421.00 1159.00 L 419.00 1160.00 L 445.00 1140.00 L 446.00 1138.00 L 422.00 1154.00 L 420.00 1153.00 L 440.00 1135.00 L 445.00 1125.00 L 435.00 1123.00 L 427.00 1117.00 L 421.00 1107.00 L 429.00 1096.00 L 451.00 1084.00 L 452.00 1082.00 L 432.00 1090.00 L 423.00 1091.00 L 425.00 1085.00 L 435.00 1078.00 L 453.00 1070.00 L 454.00 1069.00 L 438.00 1075.00 L 438.00 1073.00 L 454.00 1063.00 L 462.00 1055.00 L 462.00 1049.00 L 453.00 1033.00 L 435.00 1007.00 L 425.00 991.00 L 423.00 985.00 L 427.00 978.00 Z" fill="black" stroke="black" stroke-width="1"/>
</svg>