<?xml version="1.0" encoding="UTF-8"?>
<svg xmlns="http://www.w3.org/2000/svg" viewBox="394.00 260.00 809.00 1504.00">
  <path d="M 475.00 999.00 L 477.00 985.00 L 472.00 967.00 L 460.00 945.00 L 456.00 930.00 L 460.00 922.00 L 457.00 912.00 L 447.00 900.00 L 443.00 880.00 L 445.00 852.00 L 437.00 832.00 L 419.00 820.00 L 408.00 807.00 L 404.00 793.00 L 416.00 764.00 L 444.00 720.00 L 456.00 685.00 L 452.00 659.00 L 452.00 634.00 L 456.00 610.00 L 454.00 590.00 L 446.00 574.00 L 447.00 571.00 L 457.00 581.00 L 457.00 579.00 L 447.00 565.00 L 442.00 556.00 L 442.00 552.00 L 448.00 557.00 L 460.00 571.00 L 460.00 569.00 L 448.00 551.00 L 448.00 549.00 L 460.00 563.00 L 461.00 560.00 L 451.00 540.00 L 446.00 528.00 L 446.00 524.00 L 452.00 529.00 L 464.00 543.00 L 465.00 541.00 L 455.00 523.00 L 455.00 520.00 L 465.00 532.00 L 466.00 529.00 L 458.00 511.00 L 459.00 509.00 L 469.00 523.00 L 470.00 519.00 L 462.00 497.00 L 463.00 493.00 L 473.00 507.00 L 474.00 505.00 L 466.00 487.00 L 466.00 485.00 L 474.00 499.00 L 480.00 503.00 L 484.00 497.00 L 483.00 487.00 L 477.00 473.00 L 478.00 471.00 L 486.00 481.00 L 488.00 479.00 L 484.00 465.00 L 499.00 437.00 L 533.00 395.00 L 563.00 365.00 L 589.00 347.00 L 624.00 327.00 L 668.00 305.00 L 727.00 288.00 L 801.00 276.00 L 848.00 270.00 L 868.00 270.00 L 907.00 277.00 L 965.00 291.00 L 1015.00 312.00 L 1057.00 340.00 L 1090.00 369.00 L 1114.00 399.00 L 1130.00 423.00 L 1138.00 441.00 L 1146.00 470.00 L 1154.00 510.00 L 1158.00 546.00 L 1158.00 578.00 L 1156.00 608.00 L 1152.00 636.00 L 1135.00 681.00 L 1105.00 743.00 L 1086.00 791.00 L 1078.00 825.00 L 1059.00 852.00 L 1029.00 872.00 L 1027.00 876.00 L 1053.00 864.00 L 1055.00 864.00 L 1033.00 876.00 L 1032.00 878.00 L 1052.00 870.00 L 1054.00 871.00 L 1038.00 881.00 L 1037.00 883.00 L 1051.00 877.00 L 1057.00 875.00 L 1055.00 877.00 L 1046.00 882.00 L 1030.00 890.00 L 1029.00 891.00 L 1043.00 885.00 L 1045.00 886.00 L 1035.00 894.00 L 1036.00 908.00 L 1048.00 928.00 L 1057.00 951.00 L 1063.00 977.00 L 1069.00 1008.00 L 1075.00 1044.00 L 1078.00 1074.00 L 1078.00 1098.00 L 1076.00 1114.00 L 1072.00 1122.00 L 1094.00 1179.00 L 1142.00 1285.00 L 1163.00 1336.00 L 1157.00 1332.00 L 1158.00 1334.00 L 1166.00 1342.00 L 1175.00 1363.00 L 1185.00 1397.00 L 1191.00 1433.00 L 1193.00 1471.00 L 1189.00 1493.00 L 1179.00 1499.00 L 1155.00 1505.00 L 1117.00 1511.00 L 1063.00 1525.00 L 993.00 1547.00 L 914.00 1577.00 L 826.00 1615.00 L 745.00 1656.00 L 671.00 1700.00 L 615.00 1730.00 L 577.00 1746.00 L 546.00 1754.00 L 522.00 1754.00 L 505.00 1752.00 L 495.00 1748.00 L 482.00 1739.00 L 466.00 1725.00 L 456.00 1712.00 L 452.00 1700.00 L 450.00 1673.00 L 450.00 1631.00 L 462.00 1571.00 L 486.00 1493.00 L 515.00 1421.00 L 549.00 1355.00 L 562.00 1327.00 L 554.00 1337.00 L 554.00 1332.00 L 562.00 1312.00 L 556.00 1314.00 L 536.00 1338.00 L 536.00 1334.00 L 556.00 1302.00 L 554.00 1302.00 L 530.00 1334.00 L 531.00 1332.00 L 557.00 1296.00 L 555.00 1294.00 L 525.00 1326.00 L 528.00 1316.00 L 564.00 1264.00 L 561.00 1261.00 L 519.00 1307.00 L 503.00 1318.00 L 513.00 1294.00 L 533.00 1265.00 L 563.00 1231.00 L 564.00 1228.00 L 536.00 1256.00 L 535.00 1256.00 L 561.00 1228.00 L 562.00 1226.00 L 538.00 1250.00 L 536.00 1251.00 L 556.00 1229.00 L 560.00 1224.00 L 548.00 1236.00 L 546.00 1236.00 L 554.00 1224.00 L 555.00 1218.00 L 549.00 1218.00 L 555.00 1207.00 L 573.00 1185.00 L 571.00 1183.00 L 549.00 1201.00 L 537.00 1209.00 L 535.00 1207.00 L 545.00 1196.00 L 567.00 1176.00 L 566.00 1174.00 L 542.00 1190.00 L 541.00 1188.00 L 563.00 1168.00 L 564.00 1165.00 L 544.00 1179.00 L 540.00 1180.00 L 552.00 1168.00 L 552.00 1166.00 L 540.00 1174.00 L 543.00 1171.00 L 561.00 1157.00 L 561.00 1156.00 L 543.00 1168.00 L 542.00 1166.00 L 558.00 1150.00 L 562.00 1133.00 L 554.00 1115.00 L 558.00 1100.00 L 574.00 1088.00 L 574.00 1082.00 L 558.00 1082.00 L 540.00 1078.00 L 520.00 1070.00 L 501.00 1053.00 L 483.00 1027.00 L 474.00 1012.00 L 474.00 1008.00 L 475.00 999.00 Z" fill="black" stroke="black" stroke-width="1"/>
</svg>