<?xml version="1.0" encoding="UTF-8"?>
<svg xmlns="http://www.w3.org/2000/svg" viewBox="332.00 311.00 891.00 1549.00">
  <path d="M 505.00 1100.00 L 503.00 1088.00 L 498.00 1078.00 L 490.00 1070.00 L 485.00 1062.00 L 483.00 1054.00 L 490.00 1046.00 L 506.00 1038.00 L 503.00 1029.00 L 481.00 1019.00 L 464.00 1006.00 L 452.00 990.00 L 445.00 977.00 L 443.00 967.00 L 444.00 955.00 L 448.00 941.00 L 446.00 925.00 L 438.00 907.00 L 435.00 894.00 L 437.00 886.00 L 435.00 878.00 L 429.00 870.00 L 428.00 856.00 L 432.00 836.00 L 424.00 814.00 L 404.00 790.00 L 397.00 780.00 L 403.00 784.00 L 404.00 781.00 L 400.00 771.00 L 403.00 770.00 L 413.00 778.00 L 415.00 775.00 L 409.00 761.00 L 410.00 752.00 L 418.00 748.00 L 432.00 734.00 L 452.00 710.00 L 463.00 692.00 L 465.00 680.00 L 463.00 668.00 L 457.00 656.00 L 455.00 651.00 L 457.00 653.00 L 457.00 642.00 L 455.00 618.00 L 458.00 592.00 L 466.00 564.00 L 470.00 543.00 L 470.00 529.00 L 474.00 515.00 L 482.00 501.00 L 502.00 474.00 L 534.00 434.00 L 550.00 410.00 L 550.00 402.00 L 552.00 401.00 L 556.00 407.00 L 561.00 402.00 L 567.00 386.00 L 584.00 370.00 L 612.00 354.00 L 683.00 339.00 L 797.00 325.00 L 874.00 321.00 L 914.00 327.00 L 951.00 336.00 L 985.00 348.00 L 1014.00 365.00 L 1038.00 387.00 L 1057.00 408.00 L 1071.00 428.00 L 1085.00 454.00 L 1099.00 486.00 L 1111.00 521.00 L 1121.00 559.00 L 1126.00 601.00 L 1126.00 647.00 L 1116.00 702.00 L 1096.00 766.00 L 1076.00 821.00 L 1056.00 867.00 L 1047.00 899.00 L 1049.00 917.00 L 1046.00 930.00 L 1038.00 938.00 L 1036.00 941.00 L 1040.00 939.00 L 1041.00 941.00 L 1039.00 947.00 L 1044.00 960.00 L 1056.00 980.00 L 1067.00 1013.00 L 1077.00 1059.00 L 1084.00 1096.00 L 1088.00 1124.00 L 1088.00 1154.00 L 1084.00 1186.00 L 1088.00 1211.00 L 1100.00 1229.00 L 1109.00 1250.00 L 1115.00 1274.00 L 1132.00 1316.00 L 1160.00 1376.00 L 1184.00 1442.00 L 1204.00 1514.00 L 1213.00 1556.00 L 1211.00 1568.00 L 1180.00 1576.00 L 1120.00 1580.00 L 1046.00 1592.00 L 958.00 1612.00 L 866.00 1641.00 L 770.00 1679.00 L 668.00 1732.00 L 560.00 1800.00 L 495.00 1838.00 L 473.00 1846.00 L 452.00 1850.00 L 432.00 1850.00 L 414.00 1847.00 L 398.00 1841.00 L 383.00 1832.00 L 369.00 1820.00 L 357.00 1803.00 L 347.00 1781.00 L 342.00 1744.00 L 342.00 1692.00 L 352.00 1629.00 L 372.00 1555.00 L 394.00 1495.00 L 418.00 1449.00 L 434.00 1412.00 L 442.00 1384.00 L 455.00 1357.00 L 473.00 1331.00 L 486.00 1307.00 L 494.00 1285.00 L 481.00 1285.00 L 447.00 1307.00 L 447.00 1305.00 L 481.00 1279.00 L 479.00 1278.00 L 441.00 1302.00 L 439.00 1302.00 L 473.00 1278.00 L 491.00 1265.00 L 493.00 1263.00 L 477.00 1273.00 L 443.00 1295.00 L 445.00 1293.00 L 483.00 1267.00 L 487.00 1263.00 L 457.00 1281.00 L 457.00 1279.00 L 487.00 1257.00 L 489.00 1252.00 L 463.00 1264.00 L 465.00 1261.00 L 495.00 1243.00 L 508.00 1235.00 L 504.00 1237.00 L 506.00 1234.00 L 514.00 1226.00 L 501.00 1231.00 L 467.00 1249.00 L 465.00 1248.00 L 495.00 1228.00 L 496.00 1225.00 L 468.00 1239.00 L 472.00 1235.00 L 508.00 1213.00 L 508.00 1210.00 L 472.00 1226.00 L 472.00 1225.00 L 508.00 1207.00 L 510.00 1205.00 L 478.00 1219.00 L 473.00 1214.00 L 495.00 1190.00 L 498.00 1178.00 L 482.00 1178.00 L 473.00 1175.00 L 471.00 1169.00 L 471.00 1162.00 L 473.00 1154.00 L 485.00 1146.00 L 507.00 1138.00 L 507.00 1135.00 L 485.00 1137.00 L 484.00 1136.00 L 504.00 1132.00 L 506.00 1129.00 L 490.00 1127.00 L 489.00 1125.00 L 503.00 1123.00 L 506.00 1122.00 L 498.00 1122.00 L 497.00 1120.00 L 503.00 1116.00 L 506.00 1112.00 L 506.00 1108.00 L 505.00 1100.00 Z" fill="black" stroke="black" stroke-width="1"/>
</svg>