<?xml version="1.0" encoding="UTF-8"?>
<svg xmlns="http://www.w3.org/2000/svg" viewBox="381.00 204.00 932.00 1549.00">
  <path d="M 505.00 892.00 L 495.00 856.00 L 475.00 829.00 L 445.00 811.00 L 447.00 768.00 L 481.00 700.00 L 489.00 654.00 L 471.00 630.00 L 472.00 627.00 L 492.00 645.00 L 492.00 643.00 L 472.00 621.00 L 472.00 618.00 L 492.00 634.00 L 494.00 632.00 L 478.00 612.00 L 477.00 607.00 L 491.00 617.00 L 491.00 605.00 L 477.00 571.00 L 477.00 561.00 L 491.00 575.00 L 492.00 574.00 L 480.00 558.00 L 480.00 556.00 L 492.00 568.00 L 493.00 565.00 L 483.00 547.00 L 484.00 544.00 L 496.00 556.00 L 497.00 555.00 L 487.00 541.00 L 487.00 539.00 L 497.00 549.00 L 500.00 539.00 L 496.00 509.00 L 499.00 501.00 L 509.00 515.00 L 511.00 511.00 L 505.00 489.00 L 507.00 483.00 L 517.00 493.00 L 518.00 491.00 L 510.00 477.00 L 511.00 475.00 L 521.00 485.00 L 523.00 483.00 L 517.00 469.00 L 537.00 437.00 L 583.00 387.00 L 640.00 347.00 L 708.00 317.00 L 782.00 296.00 L 862.00 284.00 L 907.00 265.00 L 917.00 239.00 L 920.00 239.00 L 916.00 265.00 L 921.00 260.00 L 935.00 224.00 L 940.00 224.00 L 936.00 260.00 L 939.00 260.00 L 949.00 224.00 L 950.00 224.00 L 942.00 260.00 L 947.00 259.00 L 965.00 221.00 L 992.00 214.00 L 1028.00 238.00 L 1056.00 243.00 L 1076.00 229.00 L 1100.00 238.00 L 1128.00 270.00 L 1162.00 294.00 L 1202.00 310.00 L 1234.00 332.00 L 1258.00 360.00 L 1280.00 410.00 L 1300.00 482.00 L 1303.00 557.00 L 1289.00 635.00 L 1258.00 706.00 L 1210.00 770.00 L 1154.00 820.00 L 1090.00 856.00 L 1061.00 874.00 L 1067.00 874.00 L 1063.00 883.00 L 1049.00 901.00 L 1047.00 942.00 L 1057.00 1006.00 L 1084.00 1086.00 L 1128.00 1182.00 L 1156.00 1259.00 L 1168.00 1317.00 L 1101.00 1373.00 L 955.00 1427.00 L 775.00 1527.00 L 561.00 1673.00 L 451.00 1743.00 L 445.00 1737.00 L 505.00 1584.00 L 631.00 1284.00 L 628.00 1282.00 L 496.00 1578.00 L 497.00 1575.00 L 631.00 1273.00 L 628.00 1271.00 L 488.00 1569.00 L 488.00 1567.00 L 628.00 1265.00 L 626.00 1263.00 L 482.00 1561.00 L 477.00 1570.00 L 611.00 1290.00 L 608.00 1287.00 L 468.00 1561.00 L 472.00 1550.00 L 620.00 1254.00 L 618.00 1251.00 L 466.00 1541.00 L 455.00 1559.00 L 585.00 1305.00 L 582.00 1301.00 L 446.00 1547.00 L 443.00 1550.00 L 573.00 1310.00 L 571.00 1307.00 L 437.00 1541.00 L 450.00 1517.00 L 610.00 1235.00 L 609.00 1233.00 L 447.00 1511.00 L 429.00 1539.00 L 555.00 1317.00 L 553.00 1313.00 L 423.00 1527.00 L 421.00 1529.00 L 547.00 1319.00 L 546.00 1317.00 L 418.00 1523.00 L 416.00 1525.00 L 540.00 1323.00 L 540.00 1322.00 L 416.00 1522.00 L 414.00 1524.00 L 534.00 1328.00 L 533.00 1325.00 L 411.00 1515.00 L 434.00 1478.00 L 602.00 1214.00 L 602.00 1211.00 L 434.00 1469.00 L 406.00 1511.00 L 518.00 1337.00 L 517.00 1335.00 L 403.00 1505.00 L 400.00 1508.00 L 508.00 1344.00 L 509.00 1342.00 L 403.00 1502.00 L 401.00 1504.00 L 503.00 1348.00 L 503.00 1346.00 L 401.00 1498.00 L 397.00 1503.00 L 491.00 1361.00 L 491.00 1358.00 L 397.00 1494.00 L 393.00 1498.00 L 479.00 1370.00 L 479.00 1368.00 L 393.00 1492.00 L 391.00 1494.00 L 473.00 1374.00 L 475.00 1369.00 L 397.00 1479.00 L 438.00 1420.00 L 598.00 1192.00 L 598.00 1191.00 L 438.00 1417.00 L 393.00 1480.00 L 463.00 1380.00 L 464.00 1377.00 L 396.00 1471.00 L 393.00 1474.00 L 455.00 1386.00 L 456.00 1384.00 L 396.00 1468.00 L 393.00 1472.00 L 447.00 1396.00 L 448.00 1393.00 L 396.00 1463.00 L 393.00 1466.00 L 439.00 1402.00 L 440.00 1400.00 L 396.00 1460.00 L 394.00 1462.00 L 434.00 1406.00 L 435.00 1403.00 L 397.00 1453.00 L 391.00 1460.00 L 417.00 1424.00 L 420.00 1419.00 L 400.00 1445.00 L 397.00 1448.00 L 411.00 1428.00 L 414.00 1423.00 L 406.00 1433.00 L 469.00 1346.00 L 603.00 1162.00 L 639.00 1064.00 L 577.00 1052.00 L 539.00 1036.00 L 525.00 1016.00 L 520.00 994.00 L 524.00 970.00 L 522.00 949.00 L 514.00 931.00 L 510.00 919.00 L 510.00 913.00 L 505.00 892.00 Z" fill="black" stroke="black" stroke-width="1"/>
</svg>