<?xml version="1.0" encoding="UTF-8"?>
<svg xmlns="http://www.w3.org/2000/svg" viewBox="233.00 204.00 939.00 1546.00">
  <path d="M 405.00 955.00 L 403.00 917.00 L 395.00 881.00 L 381.00 847.00 L 376.00 820.00 L 380.00 800.00 L 368.00 772.00 L 340.00 736.00 L 346.00 691.00 L 386.00 637.00 L 390.00 584.00 L 358.00 532.00 L 360.00 529.00 L 396.00 575.00 L 398.00 573.00 L 366.00 523.00 L 367.00 520.00 L 401.00 564.00 L 402.00 562.00 L 370.00 514.00 L 371.00 511.00 L 405.00 553.00 L 407.00 550.00 L 377.00 502.00 L 377.00 500.00 L 407.00 544.00 L 410.00 541.00 L 386.00 491.00 L 385.00 480.00 L 407.00 508.00 L 409.00 506.00 L 391.00 474.00 L 391.00 471.00 L 409.00 497.00 L 411.00 495.00 L 397.00 465.00 L 398.00 459.00 L 414.00 477.00 L 419.00 473.00 L 413.00 447.00 L 415.00 442.00 L 425.00 458.00 L 426.00 456.00 L 418.00 436.00 L 419.00 433.00 L 429.00 447.00 L 431.00 445.00 L 425.00 427.00 L 426.00 424.00 L 434.00 436.00 L 435.00 433.00 L 429.00 415.00 L 432.00 398.00 L 444.00 382.00 L 475.00 354.00 L 525.00 314.00 L 578.00 280.00 L 634.00 252.00 L 695.00 231.00 L 761.00 217.00 L 829.00 214.00 L 899.00 222.00 L 969.00 245.00 L 1039.00 283.00 L 1088.00 320.00 L 1116.00 356.00 L 1138.00 395.00 L 1154.00 437.00 L 1162.00 502.00 L 1162.00 590.00 L 1151.00 657.00 L 1129.00 703.00 L 1097.00 749.00 L 1055.00 795.00 L 1018.00 826.00 L 986.00 842.00 L 985.00 844.00 L 1015.00 832.00 L 1015.00 835.00 L 985.00 853.00 L 985.00 856.00 L 1015.00 844.00 L 1015.00 849.00 L 985.00 871.00 L 980.00 923.00 L 1000.00 1005.00 L 1020.00 1063.00 L 1040.00 1097.00 L 1069.00 1197.00 L 1107.00 1363.00 L 1085.00 1451.00 L 1003.00 1461.00 L 929.00 1477.00 L 863.00 1499.00 L 788.00 1530.00 L 704.00 1570.00 L 588.00 1640.00 L 440.00 1740.00 L 429.00 1634.00 L 555.00 1322.00 L 550.00 1318.00 L 414.00 1622.00 L 414.00 1620.00 L 550.00 1312.00 L 549.00 1311.00 L 411.00 1617.00 L 404.00 1629.00 L 528.00 1347.00 L 524.00 1344.00 L 392.00 1620.00 L 399.00 1605.00 L 545.00 1299.00 L 542.00 1296.00 L 390.00 1596.00 L 390.00 1594.00 L 542.00 1290.00 L 539.00 1288.00 L 381.00 1588.00 L 369.00 1609.00 L 503.00 1351.00 L 500.00 1348.00 L 360.00 1600.00 L 356.00 1604.00 L 488.00 1360.00 L 485.00 1356.00 L 347.00 1592.00 L 362.00 1564.00 L 530.00 1272.00 L 528.00 1270.00 L 356.00 1558.00 L 335.00 1592.00 L 465.00 1372.00 L 462.00 1368.00 L 326.00 1580.00 L 347.00 1543.00 L 525.00 1257.00 L 524.00 1256.00 L 344.00 1540.00 L 317.00 1582.00 L 443.00 1382.00 L 441.00 1379.00 L 311.00 1573.00 L 304.00 1579.00 L 420.00 1397.00 L 418.00 1391.00 L 298.00 1561.00 L 331.00 1511.00 L 517.00 1241.00 L 517.00 1238.00 L 331.00 1502.00 L 291.00 1557.00 L 397.00 1403.00 L 397.00 1399.00 L 291.00 1545.00 L 288.00 1548.00 L 388.00 1408.00 L 388.00 1406.00 L 288.00 1542.00 L 286.00 1543.00 L 382.00 1409.00 L 382.00 1407.00 L 286.00 1537.00 L 284.00 1539.00 L 376.00 1413.00 L 376.00 1410.00 L 284.00 1530.00 L 279.00 1534.00 L 361.00 1422.00 L 362.00 1417.00 L 282.00 1519.00 L 243.00 1567.00 L 245.00 1561.00 L 336.00 1443.00 L 516.00 1213.00 L 517.00 1210.00 L 339.00 1434.00 L 280.00 1507.00 L 340.00 1429.00 L 341.00 1426.00 L 283.00 1498.00 L 281.00 1500.00 L 335.00 1432.00 L 336.00 1430.00 L 284.00 1494.00 L 281.00 1497.00 L 327.00 1439.00 L 328.00 1436.00 L 284.00 1488.00 L 279.00 1493.00 L 313.00 1451.00 L 316.00 1447.00 L 288.00 1481.00 L 286.00 1483.00 L 310.00 1453.00 L 312.00 1449.00 L 292.00 1471.00 L 362.00 1383.00 L 522.00 1185.00 L 590.00 1070.00 L 566.00 1038.00 L 519.00 1012.00 L 449.00 992.00 L 412.00 980.00 L 408.00 976.00 L 405.00 955.00 Z" fill="black" stroke="black" stroke-width="1"/>
</svg>