<?xml version="1.0" encoding="UTF-8"?>
<svg xmlns="http://www.w3.org/2000/svg" viewBox="332.00 209.00 931.00 1650.00">
  <path d="M 437.00 1020.00 L 435.00 1008.00 L 438.00 992.00 L 446.00 972.00 L 443.00 952.00 L 429.00 932.00 L 421.00 919.00 L 419.00 913.00 L 419.00 908.00 L 421.00 904.00 L 417.00 895.00 L 407.00 881.00 L 403.00 871.00 L 405.00 865.00 L 405.00 854.00 L 403.00 838.00 L 401.00 828.00 L 399.00 824.00 L 387.00 814.00 L 365.00 798.00 L 359.00 793.00 L 369.00 799.00 L 368.00 798.00 L 356.00 790.00 L 360.00 792.00 L 380.00 804.00 L 379.00 802.00 L 357.00 786.00 L 345.00 776.00 L 343.00 772.00 L 342.00 765.00 L 342.00 755.00 L 344.00 746.00 L 348.00 738.00 L 371.00 715.00 L 413.00 677.00 L 437.00 652.00 L 443.00 640.00 L 446.00 631.00 L 446.00 625.00 L 443.00 615.00 L 437.00 601.00 L 435.00 595.00 L 437.00 597.00 L 437.00 587.00 L 435.00 565.00 L 437.00 547.00 L 443.00 533.00 L 440.00 512.00 L 428.00 484.00 L 430.00 481.00 L 446.00 503.00 L 448.00 500.00 L 436.00 472.00 L 437.00 469.00 L 451.00 491.00 L 453.00 491.00 L 443.00 469.00 L 444.00 465.00 L 456.00 479.00 L 459.00 478.00 L 453.00 462.00 L 454.00 458.00 L 462.00 466.00 L 464.00 464.00 L 460.00 452.00 L 461.00 450.00 L 467.00 458.00 L 469.00 456.00 L 467.00 444.00 L 469.00 431.00 L 475.00 417.00 L 486.00 403.00 L 502.00 389.00 L 515.00 373.00 L 525.00 355.00 L 538.00 336.00 L 554.00 316.00 L 583.00 292.00 L 625.00 264.00 L 663.00 246.00 L 697.00 238.00 L 719.00 231.00 L 729.00 225.00 L 739.00 221.00 L 749.00 219.00 L 769.00 220.00 L 799.00 224.00 L 825.00 225.00 L 847.00 223.00 L 866.00 223.00 L 882.00 225.00 L 907.00 231.00 L 941.00 241.00 L 969.00 251.00 L 991.00 261.00 L 1010.00 273.00 L 1026.00 287.00 L 1045.00 306.00 L 1067.00 330.00 L 1081.00 347.00 L 1087.00 357.00 L 1094.00 372.00 L 1102.00 392.00 L 1111.00 421.00 L 1121.00 459.00 L 1127.00 507.00 L 1129.00 565.00 L 1122.00 627.00 L 1106.00 693.00 L 1094.00 733.00 L 1086.00 747.00 L 1080.00 764.00 L 1076.00 784.00 L 1071.00 799.00 L 1065.00 809.00 L 1068.00 820.00 L 1080.00 832.00 L 1092.00 850.00 L 1104.00 874.00 L 1118.00 924.00 L 1134.00 1000.00 L 1142.00 1052.00 L 1142.00 1080.00 L 1139.00 1101.00 L 1133.00 1115.00 L 1143.00 1145.00 L 1169.00 1191.00 L 1185.00 1224.00 L 1191.00 1244.00 L 1196.00 1269.00 L 1200.00 1299.00 L 1214.00 1345.00 L 1238.00 1407.00 L 1251.00 1443.00 L 1253.00 1453.00 L 1253.00 1460.00 L 1251.00 1464.00 L 1232.00 1469.00 L 1196.00 1475.00 L 1152.00 1485.00 L 1100.00 1499.00 L 1053.00 1514.00 L 1011.00 1530.00 L 961.00 1552.00 L 903.00 1580.00 L 867.00 1600.00 L 853.00 1612.00 L 827.00 1627.00 L 789.00 1645.00 L 734.00 1677.00 L 662.00 1723.00 L 615.00 1757.00 L 593.00 1779.00 L 561.00 1804.00 L 519.00 1832.00 L 481.00 1847.00 L 447.00 1849.00 L 418.00 1845.00 L 394.00 1835.00 L 378.00 1826.00 L 370.00 1818.00 L 361.00 1800.00 L 351.00 1772.00 L 346.00 1730.00 L 346.00 1674.00 L 348.00 1635.00 L 352.00 1613.00 L 353.00 1603.00 L 351.00 1605.00 L 355.00 1584.00 L 365.00 1540.00 L 375.00 1506.00 L 385.00 1482.00 L 400.00 1450.00 L 420.00 1410.00 L 441.00 1375.00 L 463.00 1345.00 L 471.00 1333.00 L 465.00 1339.00 L 468.00 1329.00 L 480.00 1303.00 L 476.00 1294.00 L 456.00 1302.00 L 439.00 1307.00 L 425.00 1309.00 L 416.00 1309.00 L 412.00 1307.00 L 420.00 1296.00 L 440.00 1276.00 L 440.00 1274.00 L 420.00 1290.00 L 413.00 1295.00 L 419.00 1289.00 L 420.00 1287.00 L 416.00 1289.00 L 438.00 1271.00 L 486.00 1233.00 L 505.00 1216.00 L 495.00 1220.00 L 482.00 1228.00 L 466.00 1240.00 L 467.00 1238.00 L 485.00 1222.00 L 491.00 1214.00 L 485.00 1214.00 L 480.00 1212.00 L 476.00 1208.00 L 473.00 1204.00 L 471.00 1200.00 L 471.00 1196.00 L 473.00 1192.00 L 484.00 1183.00 L 504.00 1169.00 L 505.00 1166.00 L 487.00 1174.00 L 486.00 1172.00 L 502.00 1160.00 L 505.00 1156.00 L 495.00 1160.00 L 493.00 1157.00 L 499.00 1147.00 L 502.00 1137.00 L 502.00 1127.00 L 499.00 1118.00 L 493.00 1110.00 L 490.00 1102.00 L 490.00 1094.00 L 491.00 1088.00 L 493.00 1084.00 L 497.00 1081.00 L 503.00 1079.00 L 505.00 1076.00 L 503.00 1072.00 L 496.00 1069.00 L 484.00 1067.00 L 469.00 1059.00 L 451.00 1045.00 L 441.00 1035.00 L 439.00 1029.00 L 437.00 1020.00 Z" fill="black" stroke="black" stroke-width="1"/>
</svg>