<?xml version="1.0" encoding="UTF-8"?>
<svg xmlns="http://www.w3.org/2000/svg" viewBox="438.00 121.00 985.00 1690.00">
  <path d="M 576.00 947.00 L 572.00 933.00 L 557.00 923.00 L 531.00 917.00 L 526.00 915.00 L 542.00 917.00 L 538.00 914.00 L 514.00 906.00 L 501.00 896.00 L 499.00 884.00 L 507.00 861.00 L 525.00 827.00 L 547.00 798.00 L 573.00 774.00 L 587.00 756.00 L 589.00 744.00 L 587.00 732.00 L 581.00 720.00 L 579.00 712.00 L 581.00 708.00 L 547.00 674.00 L 477.00 610.00 L 448.00 582.00 L 460.00 590.00 L 461.00 588.00 L 451.00 576.00 L 481.00 601.00 L 551.00 663.00 L 553.00 662.00 L 487.00 598.00 L 487.00 595.00 L 553.00 653.00 L 556.00 652.00 L 496.00 592.00 L 485.00 579.00 L 523.00 613.00 L 525.00 613.00 L 491.00 579.00 L 503.00 590.00 L 561.00 646.00 L 564.00 646.00 L 512.00 590.00 L 513.00 588.00 L 567.00 640.00 L 571.00 639.00 L 525.00 585.00 L 526.00 582.00 L 574.00 630.00 L 576.00 630.00 L 532.00 582.00 L 536.00 560.00 L 588.00 564.00 L 612.00 563.00 L 608.00 557.00 L 617.00 551.00 L 639.00 545.00 L 678.00 498.00 L 734.00 410.00 L 764.00 371.00 L 768.00 381.00 L 770.00 379.00 L 770.00 365.00 L 772.00 363.00 L 776.00 373.00 L 777.00 371.00 L 775.00 357.00 L 777.00 356.00 L 783.00 368.00 L 786.00 363.00 L 786.00 341.00 L 789.00 339.00 L 795.00 357.00 L 797.00 355.00 L 795.00 333.00 L 829.00 276.00 L 899.00 184.00 L 939.00 136.00 L 949.00 132.00 L 957.00 131.00 L 963.00 133.00 L 991.00 151.00 L 1041.00 185.00 L 1130.00 252.00 L 1258.00 352.00 L 1345.00 426.00 L 1391.00 474.00 L 1413.00 501.00 L 1411.00 507.00 L 1401.00 518.00 L 1383.00 534.00 L 1381.00 537.00 L 1395.00 527.00 L 1396.00 528.00 L 1384.00 540.00 L 1383.00 542.00 L 1393.00 534.00 L 1344.00 618.00 L 1236.00 794.00 L 1195.00 903.00 L 1221.00 945.00 L 1216.00 967.00 L 1180.00 969.00 L 1182.00 972.00 L 1222.00 976.00 L 1227.00 979.00 L 1197.00 981.00 L 1198.00 984.00 L 1230.00 988.00 L 1228.00 989.00 L 1192.00 987.00 L 1192.00 989.00 L 1228.00 995.00 L 1233.00 997.00 L 1207.00 995.00 L 1208.00 997.00 L 1236.00 1003.00 L 1232.00 1005.00 L 1196.00 1003.00 L 1197.00 1006.00 L 1235.00 1014.00 L 1236.00 1016.00 L 1200.00 1012.00 L 1190.00 1012.00 L 1206.00 1016.00 L 1207.00 1018.00 L 1193.00 1018.00 L 1203.00 1021.00 L 1237.00 1027.00 L 1246.00 1030.00 L 1230.00 1030.00 L 1224.00 1032.00 L 1228.00 1036.00 L 1220.00 1036.00 L 1200.00 1032.00 L 1206.00 1034.00 L 1238.00 1042.00 L 1239.00 1044.00 L 1209.00 1040.00 L 1208.00 1042.00 L 1236.00 1050.00 L 1236.00 1052.00 L 1208.00 1048.00 L 1200.00 1063.00 L 1212.00 1097.00 L 1218.00 1127.00 L 1218.00 1153.00 L 1229.00 1187.00 L 1251.00 1229.00 L 1272.00 1281.00 L 1292.00 1343.00 L 1303.00 1383.00 L 1305.00 1401.00 L 1286.00 1414.00 L 1246.00 1422.00 L 1183.00 1441.00 L 1097.00 1471.00 L 1026.00 1501.00 L 970.00 1531.00 L 940.00 1545.00 L 936.00 1543.00 L 934.00 1545.00 L 934.00 1551.00 L 932.00 1551.00 L 928.00 1545.00 L 926.00 1546.00 L 926.00 1554.00 L 904.00 1577.00 L 860.00 1615.00 L 821.00 1656.00 L 787.00 1700.00 L 764.00 1726.00 L 752.00 1734.00 L 745.00 1737.00 L 743.00 1735.00 L 741.00 1737.00 L 739.00 1743.00 L 724.00 1756.00 L 696.00 1776.00 L 670.00 1790.00 L 646.00 1798.00 L 620.00 1801.00 L 592.00 1799.00 L 564.00 1791.00 L 536.00 1777.00 L 516.00 1762.00 L 504.00 1746.00 L 494.00 1721.00 L 486.00 1687.00 L 485.00 1643.00 L 491.00 1589.00 L 504.00 1533.00 L 524.00 1475.00 L 533.00 1447.00 L 531.00 1449.00 L 553.00 1417.00 L 599.00 1351.00 L 604.00 1341.00 L 568.00 1387.00 L 565.00 1390.00 L 595.00 1350.00 L 598.00 1345.00 L 574.00 1375.00 L 586.00 1356.00 L 634.00 1288.00 L 652.00 1260.00 L 640.00 1272.00 L 639.00 1269.00 L 649.00 1251.00 L 653.00 1235.00 L 651.00 1221.00 L 644.00 1206.00 L 632.00 1190.00 L 634.00 1175.00 L 650.00 1161.00 L 649.00 1158.00 L 631.00 1166.00 L 627.00 1165.00 L 637.00 1155.00 L 638.00 1153.00 L 630.00 1159.00 L 627.00 1158.00 L 629.00 1150.00 L 618.00 1139.00 L 594.00 1125.00 L 579.00 1114.00 L 573.00 1106.00 L 572.00 1093.00 L 576.00 1075.00 L 582.00 1060.00 L 590.00 1048.00 L 589.00 1032.00 L 579.00 1012.00 L 574.00 993.00 L 574.00 975.00 L 575.00 963.00 L 577.00 957.00 L 576.00 947.00 Z" fill="black" stroke="black" stroke-width="1"/>
</svg>