<?xml version="1.0" encoding="UTF-8"?>
<svg xmlns="http://www.w3.org/2000/svg" viewBox="203.00 126.00 961.00 1709.00">
  <path d="M 414.00 1018.00 L 418.00 1010.00 L 427.00 1003.00 L 441.00 997.00 L 435.00 987.00 L 409.00 973.00 L 392.00 961.00 L 384.00 951.00 L 378.00 937.00 L 374.00 919.00 L 377.00 897.00 L 387.00 871.00 L 382.00 837.00 L 362.00 795.00 L 355.00 763.00 L 361.00 741.00 L 350.00 713.00 L 322.00 679.00 L 322.00 675.00 L 350.00 701.00 L 350.00 699.00 L 322.00 669.00 L 320.00 666.00 L 344.00 690.00 L 345.00 687.00 L 323.00 657.00 L 337.00 610.00 L 387.00 546.00 L 414.00 508.00 L 418.00 496.00 L 419.00 475.00 L 417.00 445.00 L 420.00 425.00 L 428.00 415.00 L 440.00 388.00 L 456.00 344.00 L 482.00 303.00 L 518.00 265.00 L 537.00 239.00 L 539.00 225.00 L 541.00 223.00 L 543.00 233.00 L 544.00 230.00 L 544.00 214.00 L 565.00 193.00 L 607.00 167.00 L 638.00 151.00 L 658.00 145.00 L 691.00 140.00 L 737.00 136.00 L 790.00 136.00 L 850.00 140.00 L 911.00 157.00 L 973.00 187.00 L 1025.00 227.00 L 1067.00 277.00 L 1096.00 324.00 L 1112.00 368.00 L 1121.00 422.00 L 1123.00 486.00 L 1115.00 549.00 L 1097.00 611.00 L 1083.00 676.00 L 1073.00 744.00 L 1064.00 785.00 L 1056.00 799.00 L 1056.00 811.00 L 1064.00 821.00 L 1070.00 834.00 L 1074.00 850.00 L 1076.00 875.00 L 1076.00 909.00 L 1079.00 947.00 L 1085.00 989.00 L 1083.00 1030.00 L 1073.00 1070.00 L 1075.00 1113.00 L 1089.00 1159.00 L 1095.00 1191.00 L 1093.00 1209.00 L 1107.00 1260.00 L 1137.00 1344.00 L 1151.00 1399.00 L 1149.00 1425.00 L 1150.00 1442.00 L 1154.00 1450.00 L 1154.00 1463.00 L 1150.00 1481.00 L 1150.00 1492.00 L 1154.00 1496.00 L 1154.00 1498.00 L 1150.00 1498.00 L 1150.00 1501.00 L 1154.00 1507.00 L 1153.00 1509.00 L 1147.00 1507.00 L 1147.00 1510.00 L 1153.00 1518.00 L 1153.00 1519.00 L 1147.00 1513.00 L 1145.00 1515.00 L 1147.00 1525.00 L 1134.00 1529.00 L 1106.00 1527.00 L 1061.00 1529.00 L 999.00 1535.00 L 944.00 1545.00 L 896.00 1559.00 L 851.00 1574.00 L 809.00 1590.00 L 760.00 1612.00 L 704.00 1640.00 L 648.00 1670.00 L 592.00 1702.00 L 559.00 1724.00 L 549.00 1736.00 L 520.00 1755.00 L 472.00 1781.00 L 432.00 1800.00 L 400.00 1812.00 L 372.00 1820.00 L 348.00 1824.00 L 322.00 1825.00 L 294.00 1823.00 L 276.00 1820.00 L 268.00 1816.00 L 257.00 1807.00 L 243.00 1793.00 L 231.00 1772.00 L 221.00 1744.00 L 215.00 1709.00 L 213.00 1667.00 L 214.00 1629.00 L 218.00 1595.00 L 227.00 1554.00 L 241.00 1506.00 L 259.00 1458.00 L 281.00 1410.00 L 305.00 1367.00 L 331.00 1329.00 L 365.00 1289.00 L 407.00 1247.00 L 414.00 1234.00 L 386.00 1250.00 L 378.00 1253.00 L 390.00 1243.00 L 388.00 1244.00 L 372.00 1256.00 L 374.00 1253.00 L 394.00 1235.00 L 391.00 1236.00 L 365.00 1256.00 L 370.00 1252.00 L 406.00 1224.00 L 403.00 1225.00 L 361.00 1255.00 L 361.00 1254.00 L 403.00 1222.00 L 400.00 1223.00 L 352.00 1257.00 L 350.00 1257.00 L 394.00 1223.00 L 389.00 1224.00 L 335.00 1260.00 L 338.00 1256.00 L 398.00 1212.00 L 396.00 1212.00 L 332.00 1256.00 L 332.00 1255.00 L 396.00 1209.00 L 395.00 1207.00 L 329.00 1249.00 L 330.00 1247.00 L 398.00 1201.00 L 406.00 1195.00 L 354.00 1229.00 L 334.00 1234.00 L 346.00 1210.00 L 368.00 1186.00 L 400.00 1162.00 L 408.00 1148.00 L 392.00 1144.00 L 383.00 1137.00 L 381.00 1127.00 L 397.00 1116.00 L 431.00 1104.00 L 433.00 1101.00 L 403.00 1107.00 L 403.00 1105.00 L 433.00 1095.00 L 434.00 1093.00 L 406.00 1099.00 L 402.00 1098.00 L 422.00 1090.00 L 424.00 1087.00 L 408.00 1089.00 L 411.00 1087.00 L 433.00 1081.00 L 435.00 1078.00 L 417.00 1078.00 L 418.00 1074.00 L 438.00 1066.00 L 447.00 1059.00 L 445.00 1053.00 L 439.00 1048.00 L 429.00 1044.00 L 422.00 1039.00 L 418.00 1033.00 L 415.00 1028.00 L 413.00 1024.00 L 414.00 1018.00 Z" fill="black" stroke="black" stroke-width="1"/>
</svg>