<?xml version="1.0" encoding="UTF-8"?>
<svg xmlns="http://www.w3.org/2000/svg" viewBox="334.00 260.00 862.00 1582.00">
  <path d="M 487.00 1036.00 L 473.00 1024.00 L 465.00 1015.00 L 463.00 1009.00 L 464.00 1001.00 L 468.00 991.00 L 460.00 977.00 L 440.00 959.00 L 430.00 935.00 L 430.00 905.00 L 422.00 875.00 L 406.00 845.00 L 400.00 831.00 L 404.00 833.00 L 401.00 829.00 L 391.00 819.00 L 389.00 806.00 L 395.00 790.00 L 386.00 770.00 L 362.00 746.00 L 362.00 744.00 L 386.00 764.00 L 385.00 762.00 L 359.00 738.00 L 358.00 736.00 L 382.00 756.00 L 381.00 753.00 L 355.00 727.00 L 354.00 725.00 L 378.00 747.00 L 378.00 745.00 L 354.00 719.00 L 344.00 702.00 L 348.00 694.00 L 372.00 669.00 L 416.00 627.00 L 441.00 600.00 L 447.00 588.00 L 452.00 571.00 L 456.00 549.00 L 453.00 526.00 L 443.00 502.00 L 444.00 499.00 L 456.00 517.00 L 457.00 515.00 L 447.00 493.00 L 448.00 491.00 L 460.00 509.00 L 462.00 509.00 L 454.00 491.00 L 455.00 489.00 L 465.00 503.00 L 467.00 503.00 L 461.00 489.00 L 462.00 486.00 L 470.00 494.00 L 472.00 493.00 L 468.00 483.00 L 469.00 482.00 L 475.00 490.00 L 476.00 488.00 L 472.00 476.00 L 472.00 474.00 L 476.00 482.00 L 477.00 479.00 L 475.00 465.00 L 478.00 451.00 L 486.00 437.00 L 519.00 400.00 L 577.00 340.00 L 616.00 305.00 L 636.00 295.00 L 664.00 285.00 L 700.00 275.00 L 751.00 270.00 L 817.00 270.00 L 874.00 276.00 L 922.00 288.00 L 969.00 314.00 L 1015.00 354.00 L 1048.00 387.00 L 1068.00 413.00 L 1082.00 436.00 L 1090.00 456.00 L 1097.00 483.00 L 1103.00 517.00 L 1103.00 561.00 L 1097.00 615.00 L 1084.00 661.00 L 1064.00 699.00 L 1040.00 733.00 L 1012.00 763.00 L 1008.00 769.00 L 1028.00 751.00 L 1029.00 752.00 L 1011.00 772.00 L 1009.00 777.00 L 1023.00 767.00 L 1025.00 769.00 L 1015.00 783.00 L 1016.00 800.00 L 1028.00 820.00 L 1041.00 857.00 L 1055.00 911.00 L 1063.00 953.00 L 1065.00 983.00 L 1064.00 1001.00 L 1060.00 1007.00 L 1063.00 1021.00 L 1073.00 1043.00 L 1077.00 1060.00 L 1075.00 1072.00 L 1076.00 1086.00 L 1080.00 1102.00 L 1093.00 1129.00 L 1115.00 1167.00 L 1135.00 1208.00 L 1153.00 1252.00 L 1170.00 1310.00 L 1186.00 1382.00 L 1155.00 1431.00 L 1077.00 1457.00 L 1000.00 1487.00 L 924.00 1521.00 L 866.00 1549.00 L 826.00 1571.00 L 776.00 1604.00 L 716.00 1648.00 L 664.00 1693.00 L 620.00 1739.00 L 580.00 1777.00 L 544.00 1807.00 L 518.00 1825.00 L 502.00 1831.00 L 482.00 1832.00 L 458.00 1828.00 L 439.00 1821.00 L 425.00 1811.00 L 410.00 1794.00 L 394.00 1770.00 L 381.00 1730.00 L 371.00 1674.00 L 370.00 1619.00 L 378.00 1565.00 L 401.00 1508.00 L 439.00 1448.00 L 440.00 1445.00 L 404.00 1499.00 L 402.00 1499.00 L 434.00 1445.00 L 435.00 1440.00 L 405.00 1484.00 L 403.00 1486.00 L 429.00 1446.00 L 430.00 1443.00 L 406.00 1477.00 L 401.00 1482.00 L 415.00 1458.00 L 415.00 1456.00 L 401.00 1476.00 L 405.00 1469.00 L 427.00 1435.00 L 428.00 1432.00 L 408.00 1460.00 L 411.00 1447.00 L 437.00 1393.00 L 452.00 1349.00 L 456.00 1315.00 L 470.00 1277.00 L 494.00 1235.00 L 506.00 1212.00 L 506.00 1208.00 L 502.00 1207.00 L 494.00 1209.00 L 495.00 1206.00 L 505.00 1198.00 L 492.00 1205.00 L 456.00 1227.00 L 456.00 1225.00 L 492.00 1199.00 L 488.00 1200.00 L 444.00 1228.00 L 445.00 1224.00 L 491.00 1188.00 L 489.00 1185.00 L 439.00 1215.00 L 440.00 1213.00 L 492.00 1179.00 L 495.00 1176.00 L 449.00 1204.00 L 435.00 1210.00 L 453.00 1194.00 L 477.00 1177.00 L 507.00 1159.00 L 508.00 1156.00 L 480.00 1168.00 L 481.00 1165.00 L 511.00 1147.00 L 512.00 1145.00 L 484.00 1159.00 L 485.00 1157.00 L 515.00 1139.00 L 515.00 1137.00 L 485.00 1151.00 L 479.00 1150.00 L 497.00 1134.00 L 507.00 1123.00 L 509.00 1117.00 L 506.00 1115.00 L 498.00 1117.00 L 500.00 1116.00 L 512.00 1112.00 L 509.00 1112.00 L 491.00 1116.00 L 478.00 1116.00 L 470.00 1112.00 L 466.00 1104.00 L 466.00 1092.00 L 478.00 1082.00 L 502.00 1074.00 L 503.00 1071.00 L 481.00 1073.00 L 479.00 1071.00 L 497.00 1065.00 L 504.00 1060.00 L 500.00 1056.00 L 497.00 1051.00 L 495.00 1045.00 L 487.00 1036.00 Z" fill="black" stroke="black" stroke-width="1"/>
</svg>