<?xml version="1.0" encoding="UTF-8"?>
<svg xmlns="http://www.w3.org/2000/svg" viewBox="456.00 248.00 910.00 1586.00">
  <path d="M 589.00 1053.00 L 571.00 1043.00 L 557.00 1033.00 L 547.00 1023.00 L 539.00 1011.00 L 533.00 997.00 L 532.00 973.00 L 536.00 939.00 L 534.00 914.00 L 526.00 898.00 L 527.00 881.00 L 537.00 863.00 L 541.00 847.00 L 539.00 833.00 L 540.00 818.00 L 544.00 802.00 L 532.00 780.00 L 504.00 752.00 L 505.00 750.00 L 535.00 774.00 L 535.00 771.00 L 505.00 741.00 L 505.00 739.00 L 535.00 765.00 L 536.00 763.00 L 508.00 733.00 L 499.00 710.00 L 509.00 694.00 L 537.00 663.00 L 583.00 617.00 L 608.00 590.00 L 612.00 582.00 L 613.00 570.00 L 611.00 554.00 L 613.00 540.00 L 619.00 528.00 L 619.00 515.00 L 613.00 501.00 L 613.00 500.00 L 619.00 512.00 L 620.00 510.00 L 616.00 494.00 L 617.00 491.00 L 623.00 501.00 L 624.00 498.00 L 620.00 482.00 L 621.00 480.00 L 627.00 492.00 L 628.00 490.00 L 624.00 474.00 L 625.00 473.00 L 631.00 487.00 L 632.00 484.00 L 628.00 464.00 L 629.00 461.00 L 635.00 475.00 L 637.00 472.00 L 635.00 452.00 L 636.00 447.00 L 640.00 457.00 L 641.00 454.00 L 639.00 438.00 L 641.00 436.00 L 647.00 448.00 L 648.00 447.00 L 644.00 433.00 L 645.00 432.00 L 651.00 444.00 L 653.00 441.00 L 651.00 423.00 L 668.00 397.00 L 704.00 363.00 L 741.00 335.00 L 779.00 313.00 L 817.00 295.00 L 855.00 281.00 L 898.00 270.00 L 946.00 262.00 L 982.00 258.00 L 1006.00 258.00 L 1034.00 260.00 L 1066.00 264.00 L 1104.00 276.00 L 1148.00 296.00 L 1186.00 322.00 L 1218.00 354.00 L 1238.00 377.00 L 1246.00 391.00 L 1260.00 423.00 L 1280.00 473.00 L 1292.00 510.00 L 1296.00 534.00 L 1298.00 560.00 L 1298.00 588.00 L 1296.00 610.00 L 1292.00 626.00 L 1272.00 682.00 L 1236.00 778.00 L 1218.00 844.00 L 1218.00 880.00 L 1212.00 903.00 L 1200.00 913.00 L 1200.00 922.00 L 1212.00 930.00 L 1222.00 941.00 L 1230.00 955.00 L 1240.00 993.00 L 1252.00 1055.00 L 1258.00 1097.00 L 1258.00 1119.00 L 1254.00 1138.00 L 1246.00 1154.00 L 1245.00 1173.00 L 1251.00 1195.00 L 1263.00 1222.00 L 1281.00 1254.00 L 1293.00 1287.00 L 1299.00 1321.00 L 1309.00 1356.00 L 1323.00 1392.00 L 1337.00 1442.00 L 1351.00 1506.00 L 1356.00 1540.00 L 1352.00 1544.00 L 1344.00 1545.00 L 1332.00 1543.00 L 1303.00 1545.00 L 1257.00 1551.00 L 1207.00 1560.00 L 1153.00 1572.00 L 1098.00 1587.00 L 1042.00 1605.00 L 966.00 1634.00 L 870.00 1674.00 L 804.00 1709.00 L 768.00 1739.00 L 729.00 1766.00 L 687.00 1790.00 L 647.00 1808.00 L 609.00 1820.00 L 574.00 1824.00 L 542.00 1820.00 L 514.00 1805.00 L 490.00 1779.00 L 474.00 1739.00 L 466.00 1685.00 L 466.00 1637.00 L 474.00 1595.00 L 477.00 1575.00 L 475.00 1577.00 L 482.00 1554.00 L 498.00 1506.00 L 505.00 1483.00 L 503.00 1485.00 L 518.00 1457.00 L 550.00 1399.00 L 572.00 1350.00 L 584.00 1310.00 L 598.00 1279.00 L 614.00 1257.00 L 619.00 1242.00 L 613.00 1234.00 L 592.00 1240.00 L 556.00 1260.00 L 555.00 1259.00 L 589.00 1237.00 L 587.00 1236.00 L 549.00 1256.00 L 546.00 1256.00 L 578.00 1236.00 L 595.00 1225.00 L 597.00 1223.00 L 584.00 1230.00 L 556.00 1246.00 L 558.00 1244.00 L 590.00 1224.00 L 593.00 1221.00 L 567.00 1235.00 L 570.00 1231.00 L 602.00 1209.00 L 603.00 1206.00 L 573.00 1222.00 L 575.00 1219.00 L 609.00 1197.00 L 610.00 1193.00 L 578.00 1207.00 L 566.00 1208.00 L 574.00 1196.00 L 584.00 1187.00 L 596.00 1181.00 L 599.00 1179.00 L 593.00 1181.00 L 592.00 1180.00 L 596.00 1176.00 L 590.00 1172.00 L 574.00 1168.00 L 576.00 1160.00 L 596.00 1148.00 L 595.00 1145.00 L 573.00 1151.00 L 571.00 1150.00 L 589.00 1142.00 L 590.00 1140.00 L 574.00 1144.00 L 574.00 1142.00 L 590.00 1134.00 L 592.00 1119.00 L 580.00 1097.00 L 578.00 1081.00 L 586.00 1071.00 L 592.00 1064.00 L 596.00 1060.00 L 589.00 1053.00 Z" fill="black" stroke="black" stroke-width="1"/>
</svg>