<?xml version="1.0" encoding="UTF-8"?>
<svg xmlns="http://www.w3.org/2000/svg" viewBox="357.00 224.00 836.00 1546.00">
  <path d="M 499.00 1000.00 L 509.00 996.00 L 512.00 993.00 L 508.00 991.00 L 509.00 990.00 L 515.00 990.00 L 503.00 986.00 L 473.00 978.00 L 452.00 968.00 L 440.00 956.00 L 434.00 942.00 L 434.00 926.00 L 437.00 910.00 L 443.00 894.00 L 441.00 878.00 L 431.00 862.00 L 427.00 851.00 L 429.00 845.00 L 428.00 839.00 L 424.00 833.00 L 424.00 831.00 L 428.00 833.00 L 427.00 830.00 L 421.00 822.00 L 420.00 809.00 L 424.00 791.00 L 419.00 775.00 L 405.00 761.00 L 405.00 759.00 L 419.00 769.00 L 414.00 764.00 L 390.00 744.00 L 390.00 742.00 L 414.00 758.00 L 413.00 755.00 L 387.00 733.00 L 387.00 731.00 L 413.00 749.00 L 414.00 746.00 L 390.00 722.00 L 393.00 692.00 L 423.00 656.00 L 440.00 632.00 L 444.00 620.00 L 446.00 609.00 L 446.00 599.00 L 444.00 590.00 L 440.00 582.00 L 438.00 572.00 L 438.00 560.00 L 440.00 546.00 L 444.00 530.00 L 460.00 495.00 L 488.00 441.00 L 502.00 408.00 L 502.00 396.00 L 514.00 378.00 L 538.00 354.00 L 551.00 343.00 L 553.00 345.00 L 554.00 344.00 L 554.00 340.00 L 559.00 333.00 L 569.00 323.00 L 582.00 313.00 L 598.00 303.00 L 629.00 290.00 L 675.00 274.00 L 725.00 260.00 L 779.00 248.00 L 820.00 240.00 L 848.00 236.00 L 883.00 234.00 L 925.00 234.00 L 954.00 237.00 L 970.00 243.00 L 992.00 255.00 L 1020.00 273.00 L 1047.00 295.00 L 1073.00 321.00 L 1091.00 342.00 L 1101.00 358.00 L 1111.00 380.00 L 1121.00 408.00 L 1128.00 437.00 L 1132.00 467.00 L 1133.00 496.00 L 1131.00 524.00 L 1124.00 556.00 L 1112.00 592.00 L 1101.00 646.00 L 1091.00 718.00 L 1079.00 771.00 L 1065.00 805.00 L 1057.00 832.00 L 1055.00 852.00 L 1049.00 866.00 L 1039.00 874.00 L 1039.00 883.00 L 1049.00 893.00 L 1058.00 919.00 L 1066.00 961.00 L 1070.00 1003.00 L 1070.00 1045.00 L 1067.00 1073.00 L 1061.00 1087.00 L 1061.00 1101.00 L 1067.00 1115.00 L 1070.00 1126.00 L 1070.00 1134.00 L 1084.00 1163.00 L 1112.00 1213.00 L 1131.00 1257.00 L 1141.00 1295.00 L 1153.00 1333.00 L 1167.00 1371.00 L 1177.00 1409.00 L 1183.00 1447.00 L 1156.00 1472.00 L 1096.00 1484.00 L 1061.00 1490.00 L 1051.00 1490.00 L 1006.00 1503.00 L 926.00 1529.00 L 871.00 1548.00 L 841.00 1560.00 L 791.00 1584.00 L 721.00 1620.00 L 669.00 1649.00 L 635.00 1671.00 L 607.00 1691.00 L 585.00 1709.00 L 558.00 1727.00 L 526.00 1745.00 L 497.00 1756.00 L 471.00 1760.00 L 450.00 1759.00 L 434.00 1753.00 L 422.00 1747.00 L 414.00 1741.00 L 403.00 1728.00 L 389.00 1708.00 L 379.00 1688.00 L 373.00 1668.00 L 369.00 1646.00 L 367.00 1622.00 L 368.00 1594.00 L 372.00 1562.00 L 381.00 1520.00 L 395.00 1468.00 L 409.00 1425.00 L 423.00 1391.00 L 439.00 1357.00 L 457.00 1323.00 L 465.00 1307.00 L 463.00 1309.00 L 470.00 1299.00 L 486.00 1277.00 L 492.00 1268.00 L 488.00 1272.00 L 491.00 1265.00 L 501.00 1247.00 L 506.00 1235.00 L 506.00 1229.00 L 499.00 1232.00 L 485.00 1244.00 L 482.00 1246.00 L 490.00 1238.00 L 485.00 1240.00 L 467.00 1252.00 L 455.00 1258.00 L 449.00 1258.00 L 448.00 1254.00 L 452.00 1246.00 L 451.00 1244.00 L 445.00 1248.00 L 446.00 1246.00 L 454.00 1238.00 L 462.00 1220.00 L 470.00 1192.00 L 484.00 1169.00 L 504.00 1151.00 L 507.00 1142.00 L 493.00 1142.00 L 484.00 1139.00 L 480.00 1133.00 L 479.00 1127.00 L 481.00 1121.00 L 491.00 1112.00 L 509.00 1100.00 L 509.00 1097.00 L 491.00 1103.00 L 491.00 1101.00 L 509.00 1091.00 L 509.00 1089.00 L 491.00 1095.00 L 487.00 1095.00 L 497.00 1089.00 L 499.00 1087.00 L 493.00 1089.00 L 491.00 1089.00 L 493.00 1087.00 L 499.00 1084.00 L 509.00 1080.00 L 509.00 1070.00 L 499.00 1054.00 L 489.00 1043.00 L 479.00 1037.00 L 473.00 1031.00 L 471.00 1025.00 L 473.00 1018.00 L 479.00 1010.00 L 485.00 1005.00 L 491.00 1003.00 L 499.00 1000.00 Z" fill="black" stroke="black" stroke-width="1"/>
</svg>