<?xml version="1.0" encoding="UTF-8"?>
<svg xmlns="http://www.w3.org/2000/svg" viewBox="349.00 260.00 866.00 1467.00">
  <path d="M 459.00 992.00 L 453.00 980.00 L 450.00 969.00 L 450.00 959.00 L 452.00 948.00 L 456.00 936.00 L 452.00 923.00 L 440.00 909.00 L 436.00 896.00 L 440.00 884.00 L 439.00 873.00 L 433.00 863.00 L 431.00 851.00 L 433.00 837.00 L 425.00 822.00 L 407.00 806.00 L 406.00 802.00 L 422.00 810.00 L 420.00 808.00 L 400.00 796.00 L 389.00 789.00 L 387.00 787.00 L 396.00 792.00 L 416.00 804.00 L 414.00 801.00 L 390.00 783.00 L 379.00 769.00 L 381.00 759.00 L 389.00 745.00 L 403.00 727.00 L 416.00 713.00 L 428.00 703.00 L 439.00 688.00 L 449.00 668.00 L 455.00 655.00 L 457.00 649.00 L 457.00 636.00 L 455.00 616.00 L 457.00 593.00 L 463.00 567.00 L 464.00 548.00 L 460.00 536.00 L 461.00 534.00 L 467.00 542.00 L 467.00 540.00 L 461.00 528.00 L 462.00 526.00 L 470.00 534.00 L 471.00 531.00 L 465.00 517.00 L 466.00 515.00 L 474.00 525.00 L 475.00 521.00 L 469.00 503.00 L 470.00 501.00 L 478.00 515.00 L 479.00 514.00 L 473.00 498.00 L 474.00 495.00 L 482.00 505.00 L 483.00 503.00 L 477.00 489.00 L 477.00 487.00 L 483.00 497.00 L 484.00 494.00 L 480.00 478.00 L 481.00 475.00 L 487.00 485.00 L 488.00 484.00 L 484.00 472.00 L 491.00 453.00 L 509.00 427.00 L 530.00 402.00 L 554.00 378.00 L 580.00 356.00 L 608.00 336.00 L 632.00 321.00 L 652.00 311.00 L 675.00 302.00 L 701.00 294.00 L 732.00 289.00 L 768.00 287.00 L 793.00 283.00 L 807.00 277.00 L 821.00 273.00 L 835.00 271.00 L 857.00 270.00 L 887.00 270.00 L 904.00 271.00 L 908.00 273.00 L 912.00 273.00 L 916.00 271.00 L 924.00 271.00 L 936.00 273.00 L 956.00 280.00 L 984.00 292.00 L 1006.00 304.00 L 1022.00 316.00 L 1039.00 332.00 L 1057.00 352.00 L 1076.00 376.00 L 1096.00 404.00 L 1111.00 432.00 L 1121.00 460.00 L 1128.00 484.00 L 1132.00 504.00 L 1134.00 522.00 L 1134.00 538.00 L 1135.00 545.00 L 1137.00 543.00 L 1137.00 556.00 L 1135.00 584.00 L 1125.00 621.00 L 1107.00 667.00 L 1090.00 721.00 L 1074.00 783.00 L 1073.00 832.00 L 1087.00 868.00 L 1096.00 899.00 L 1100.00 925.00 L 1103.00 965.00 L 1105.00 1019.00 L 1104.00 1052.00 L 1100.00 1064.00 L 1104.00 1084.00 L 1116.00 1112.00 L 1126.00 1138.00 L 1134.00 1162.00 L 1138.00 1178.00 L 1138.00 1186.00 L 1148.00 1217.00 L 1168.00 1271.00 L 1186.00 1334.00 L 1202.00 1406.00 L 1205.00 1444.00 L 1195.00 1448.00 L 1161.00 1453.00 L 1103.00 1459.00 L 1028.00 1473.00 L 936.00 1495.00 L 831.00 1528.00 L 713.00 1572.00 L 651.00 1598.00 L 645.00 1606.00 L 633.00 1614.00 L 615.00 1622.00 L 591.00 1636.00 L 561.00 1656.00 L 525.00 1677.00 L 483.00 1699.00 L 455.00 1712.00 L 441.00 1716.00 L 427.00 1717.00 L 413.00 1715.00 L 402.00 1712.00 L 394.00 1708.00 L 385.00 1701.00 L 375.00 1691.00 L 367.00 1676.00 L 361.00 1656.00 L 359.00 1632.00 L 361.00 1604.00 L 361.00 1591.00 L 359.00 1593.00 L 361.00 1576.00 L 367.00 1540.00 L 382.00 1489.00 L 406.00 1423.00 L 417.00 1391.00 L 415.00 1393.00 L 422.00 1377.00 L 438.00 1343.00 L 445.00 1327.00 L 443.00 1329.00 L 456.00 1307.00 L 484.00 1261.00 L 500.00 1228.00 L 504.00 1208.00 L 514.00 1189.00 L 530.00 1171.00 L 537.00 1161.00 L 535.00 1159.00 L 535.00 1154.00 L 537.00 1146.00 L 533.00 1142.00 L 523.00 1142.00 L 512.00 1144.00 L 500.00 1148.00 L 489.00 1148.00 L 479.00 1144.00 L 485.00 1135.00 L 507.00 1121.00 L 517.00 1113.00 L 515.00 1111.00 L 503.00 1115.00 L 481.00 1125.00 L 481.00 1123.00 L 503.00 1109.00 L 503.00 1106.00 L 481.00 1114.00 L 479.00 1111.00 L 497.00 1097.00 L 504.00 1084.00 L 500.00 1072.00 L 494.00 1062.00 L 486.00 1054.00 L 483.00 1046.00 L 485.00 1038.00 L 490.00 1033.00 L 498.00 1031.00 L 500.00 1030.00 L 496.00 1030.00 L 495.00 1028.00 L 497.00 1024.00 L 497.00 1021.00 L 495.00 1019.00 L 488.00 1015.00 L 476.00 1009.00 L 468.00 1004.00 L 464.00 1000.00 L 459.00 992.00 Z" fill="black" stroke="black" stroke-width="1"/>
</svg>