<?xml version="1.0" encoding="UTF-8"?>
<svg xmlns="http://www.w3.org/2000/svg" viewBox="257.00 316.00 985.00 1476.00">
  <path d="M 451.00 1018.00 L 453.00 994.00 L 449.00 972.00 L 439.00 952.00 L 436.00 938.00 L 440.00 930.00 L 438.00 922.00 L 430.00 914.00 L 427.00 903.00 L 429.00 889.00 L 419.00 872.00 L 397.00 852.00 L 394.00 846.00 L 410.00 854.00 L 409.00 852.00 L 391.00 840.00 L 381.00 828.00 L 379.00 816.00 L 390.00 797.00 L 414.00 771.00 L 430.00 749.00 L 438.00 731.00 L 444.00 714.00 L 448.00 698.00 L 447.00 661.00 L 441.00 603.00 L 448.00 552.00 L 468.00 508.00 L 507.00 467.00 L 565.00 429.00 L 637.00 395.00 L 723.00 365.00 L 785.00 349.00 L 823.00 347.00 L 861.00 349.00 L 899.00 355.00 L 922.00 349.00 L 930.00 331.00 L 933.00 331.00 L 931.00 349.00 L 933.00 348.00 L 939.00 328.00 L 940.00 326.00 L 936.00 342.00 L 938.00 342.00 L 946.00 326.00 L 947.00 329.00 L 941.00 351.00 L 944.00 352.00 L 956.00 332.00 L 976.00 331.00 L 1004.00 349.00 L 1028.00 354.00 L 1048.00 346.00 L 1065.00 357.00 L 1079.00 387.00 L 1099.00 408.00 L 1125.00 420.00 L 1147.00 437.00 L 1165.00 459.00 L 1182.00 487.00 L 1198.00 521.00 L 1213.00 566.00 L 1227.00 622.00 L 1232.00 672.00 L 1228.00 716.00 L 1218.00 755.00 L 1202.00 789.00 L 1162.00 824.00 L 1098.00 860.00 L 1091.00 866.00 L 1141.00 842.00 L 1150.00 838.00 L 1118.00 854.00 L 1116.00 856.00 L 1144.00 844.00 L 1150.00 842.00 L 1134.00 850.00 L 1131.00 852.00 L 1141.00 848.00 L 1102.00 871.00 L 1014.00 921.00 L 978.00 943.00 L 994.00 937.00 L 994.00 940.00 L 978.00 952.00 L 969.00 975.00 L 967.00 1009.00 L 995.00 1133.00 L 1053.00 1347.00 L 1036.00 1466.00 L 944.00 1490.00 L 864.00 1515.00 L 796.00 1541.00 L 728.00 1572.00 L 660.00 1608.00 L 573.00 1660.00 L 467.00 1728.00 L 471.00 1632.00 L 585.00 1372.00 L 582.00 1374.00 L 462.00 1638.00 L 397.00 1774.00 L 387.00 1782.00 L 447.00 1647.00 L 577.00 1369.00 L 574.00 1371.00 L 438.00 1653.00 L 438.00 1651.00 L 574.00 1365.00 L 571.00 1363.00 L 429.00 1645.00 L 429.00 1643.00 L 571.00 1357.00 L 568.00 1354.00 L 420.00 1634.00 L 420.00 1633.00 L 568.00 1351.00 L 566.00 1349.00 L 414.00 1627.00 L 336.00 1765.00 L 332.00 1763.00 L 408.00 1621.00 L 564.00 1339.00 L 561.00 1336.00 L 399.00 1612.00 L 400.00 1609.00 L 564.00 1327.00 L 561.00 1324.00 L 391.00 1600.00 L 374.00 1626.00 L 510.00 1402.00 L 508.00 1400.00 L 368.00 1620.00 L 366.00 1621.00 L 502.00 1403.00 L 500.00 1400.00 L 360.00 1612.00 L 378.00 1583.00 L 554.00 1313.00 L 553.00 1311.00 L 375.00 1577.00 L 353.00 1609.00 L 487.00 1407.00 L 486.00 1406.00 L 350.00 1606.00 L 348.00 1607.00 L 480.00 1409.00 L 479.00 1406.00 L 345.00 1598.00 L 369.00 1562.00 L 551.00 1298.00 L 549.00 1296.00 L 363.00 1556.00 L 269.00 1684.00 L 267.00 1680.00 L 329.00 1591.00 L 455.00 1417.00 L 454.00 1415.00 L 326.00 1585.00 L 324.00 1586.00 L 448.00 1418.00 L 447.00 1415.00 L 321.00 1577.00 L 318.00 1579.00 L 438.00 1421.00 L 438.00 1418.00 L 318.00 1570.00 L 353.00 1524.00 L 543.00 1280.00 L 542.00 1277.00 L 350.00 1515.00 L 307.00 1567.00 L 413.00 1433.00 L 413.00 1431.00 L 307.00 1561.00 L 305.00 1562.00 L 407.00 1434.00 L 407.00 1431.00 L 305.00 1553.00 L 301.00 1556.00 L 395.00 1440.00 L 395.00 1435.00 L 301.00 1541.00 L 295.00 1546.00 L 377.00 1450.00 L 378.00 1448.00 L 298.00 1540.00 L 295.00 1542.00 L 369.00 1454.00 L 370.00 1450.00 L 298.00 1530.00 L 355.00 1465.00 L 541.00 1255.00 L 541.00 1253.00 L 355.00 1459.00 L 291.00 1529.00 L 349.00 1463.00 L 350.00 1460.00 L 294.00 1520.00 L 290.00 1523.00 L 338.00 1469.00 L 340.00 1466.00 L 296.00 1514.00 L 294.00 1516.00 L 334.00 1472.00 L 335.00 1469.00 L 297.00 1507.00 L 290.00 1513.00 L 314.00 1487.00 L 317.00 1483.00 L 299.00 1501.00 L 375.00 1417.00 L 545.00 1231.00 L 625.00 1132.00 L 615.00 1120.00 L 588.00 1108.00 L 544.00 1096.00 L 505.00 1078.00 L 471.00 1054.00 L 453.00 1039.00 L 451.00 1033.00 L 451.00 1018.00 Z" fill="black" stroke="black" stroke-width="1"/>
</svg>