<?xml version="1.0" encoding="UTF-8"?>
<svg xmlns="http://www.w3.org/2000/svg" viewBox="388.00 189.00 875.00 1596.00">
  <path d="M 513.00 981.00 L 511.00 959.00 L 514.00 937.00 L 522.00 915.00 L 521.00 897.00 L 511.00 883.00 L 505.00 862.00 L 503.00 834.00 L 481.00 802.00 L 439.00 766.00 L 439.00 762.00 L 481.00 790.00 L 480.00 785.00 L 436.00 747.00 L 420.00 717.00 L 432.00 695.00 L 457.00 663.00 L 495.00 621.00 L 515.00 594.00 L 517.00 582.00 L 512.00 565.00 L 500.00 543.00 L 500.00 540.00 L 512.00 556.00 L 514.00 554.00 L 506.00 534.00 L 507.00 529.00 L 517.00 539.00 L 521.00 532.00 L 519.00 508.00 L 521.00 499.00 L 527.00 505.00 L 527.00 500.00 L 521.00 484.00 L 522.00 481.00 L 530.00 491.00 L 530.00 487.00 L 522.00 469.00 L 519.00 458.00 L 521.00 454.00 L 526.00 460.00 L 534.00 476.00 L 535.00 473.00 L 529.00 451.00 L 530.00 446.00 L 538.00 458.00 L 540.00 454.00 L 536.00 434.00 L 538.00 430.00 L 546.00 442.00 L 548.00 440.00 L 544.00 424.00 L 545.00 420.00 L 551.00 428.00 L 554.00 425.00 L 554.00 411.00 L 556.00 408.00 L 560.00 416.00 L 572.00 399.00 L 592.00 357.00 L 642.00 309.00 L 722.00 255.00 L 777.00 223.00 L 807.00 213.00 L 848.00 205.00 L 900.00 199.00 L 947.00 199.00 L 989.00 205.00 L 1049.00 229.00 L 1127.00 271.00 L 1175.00 302.00 L 1193.00 322.00 L 1214.00 358.00 L 1238.00 410.00 L 1251.00 460.00 L 1253.00 508.00 L 1251.00 546.00 L 1245.00 574.00 L 1228.00 613.00 L 1200.00 663.00 L 1174.00 728.00 L 1150.00 808.00 L 1131.00 861.00 L 1117.00 887.00 L 1115.00 912.00 L 1125.00 936.00 L 1137.00 988.00 L 1151.00 1068.00 L 1153.00 1120.00 L 1143.00 1144.00 L 1144.00 1181.00 L 1156.00 1231.00 L 1179.00 1295.00 L 1213.00 1373.00 L 1232.00 1426.00 L 1236.00 1454.00 L 1204.00 1475.00 L 1136.00 1489.00 L 1064.00 1509.00 L 988.00 1535.00 L 843.00 1604.00 L 629.00 1716.00 L 509.00 1773.00 L 483.00 1775.00 L 462.00 1773.00 L 446.00 1767.00 L 428.00 1748.00 L 408.00 1716.00 L 398.00 1682.00 L 398.00 1646.00 L 406.00 1600.00 L 422.00 1544.00 L 451.00 1477.00 L 493.00 1399.00 L 512.00 1362.00 L 508.00 1366.00 L 530.00 1332.00 L 578.00 1260.00 L 583.00 1246.00 L 545.00 1290.00 L 543.00 1290.00 L 577.00 1246.00 L 575.00 1247.00 L 537.00 1293.00 L 528.00 1302.00 L 548.00 1274.00 L 544.00 1276.00 L 516.00 1308.00 L 522.00 1300.00 L 562.00 1252.00 L 556.00 1253.00 L 504.00 1303.00 L 509.00 1294.00 L 571.00 1226.00 L 568.00 1225.00 L 500.00 1291.00 L 498.00 1290.00 L 562.00 1222.00 L 561.00 1221.00 L 495.00 1287.00 L 490.00 1288.00 L 546.00 1224.00 L 561.00 1204.00 L 535.00 1228.00 L 533.00 1229.00 L 555.00 1207.00 L 557.00 1204.00 L 539.00 1220.00 L 536.00 1222.00 L 548.00 1210.00 L 550.00 1207.00 L 542.00 1213.00 L 553.00 1202.00 L 583.00 1174.00 L 587.00 1169.00 L 565.00 1187.00 L 552.00 1196.00 L 548.00 1196.00 L 558.00 1185.00 L 582.00 1163.00 L 581.00 1162.00 L 555.00 1182.00 L 554.00 1179.00 L 578.00 1153.00 L 575.00 1151.00 L 545.00 1173.00 L 540.00 1175.00 L 560.00 1157.00 L 560.00 1154.00 L 540.00 1166.00 L 544.00 1162.00 L 572.00 1142.00 L 574.00 1139.00 L 550.00 1153.00 L 549.00 1151.00 L 571.00 1133.00 L 574.00 1129.00 L 558.00 1139.00 L 555.00 1136.00 L 565.00 1120.00 L 564.00 1102.00 L 552.00 1082.00 L 555.00 1067.00 L 573.00 1057.00 L 566.00 1039.00 L 534.00 1013.00 L 517.00 998.00 L 515.00 994.00 L 513.00 981.00 Z" fill="black" stroke="black" stroke-width="1"/>
</svg>