<?xml version="1.0" encoding="UTF-8"?>
<svg xmlns="http://www.w3.org/2000/svg" viewBox="252.00 328.00 902.00 1173.00">
  <path d="M 406.00 931.00 L 382.00 917.00 L 385.00 886.00 L 415.00 838.00 L 424.00 786.00 L 412.00 730.00 L 410.00 704.00 L 418.00 708.00 L 418.00 705.00 L 410.00 695.00 L 411.00 692.00 L 421.00 696.00 L 427.00 691.00 L 429.00 677.00 L 425.00 617.00 L 415.00 511.00 L 422.00 421.00 L 446.00 347.00 L 503.00 338.00 L 593.00 394.00 L 651.00 423.00 L 677.00 425.00 L 727.00 455.00 L 801.00 513.00 L 844.00 533.00 L 856.00 515.00 L 859.00 517.00 L 853.00 539.00 L 858.00 535.00 L 874.00 505.00 L 879.00 507.00 L 873.00 541.00 L 878.00 543.00 L 894.00 513.00 L 897.00 514.00 L 887.00 546.00 L 893.00 548.00 L 915.00 520.00 L 918.00 520.00 L 902.00 548.00 L 903.00 551.00 L 921.00 529.00 L 926.00 525.00 L 918.00 539.00 L 919.00 542.00 L 929.00 534.00 L 936.00 536.00 L 940.00 548.00 L 951.00 544.00 L 969.00 524.00 L 970.00 526.00 L 954.00 550.00 L 961.00 546.00 L 991.00 514.00 L 996.00 518.00 L 976.00 558.00 L 979.00 562.00 L 1005.00 530.00 L 1006.00 531.00 L 982.00 565.00 L 984.00 571.00 L 1012.00 549.00 L 1018.00 549.00 L 1002.00 571.00 L 1006.00 574.00 L 1030.00 558.00 L 1037.00 559.00 L 1027.00 577.00 L 1028.00 581.00 L 1040.00 571.00 L 1043.00 572.00 L 1037.00 584.00 L 1055.00 613.00 L 1097.00 659.00 L 1117.00 715.00 L 1115.00 781.00 L 1121.00 812.00 L 1135.00 808.00 L 1135.00 810.00 L 1121.00 818.00 L 1123.00 821.00 L 1141.00 819.00 L 1144.00 828.00 L 1132.00 848.00 L 1130.00 865.00 L 1138.00 879.00 L 1126.00 896.00 L 1094.00 916.00 L 1087.00 928.00 L 1105.00 932.00 L 1104.00 935.00 L 1084.00 937.00 L 1081.00 938.00 L 1095.00 938.00 L 1076.00 959.00 L 1024.00 1001.00 L 963.00 1021.00 L 893.00 1019.00 L 863.00 1020.00 L 873.00 1024.00 L 871.00 1026.00 L 857.00 1026.00 L 853.00 1035.00 L 859.00 1053.00 L 852.00 1060.00 L 832.00 1056.00 L 824.00 1084.00 L 828.00 1144.00 L 845.00 1199.00 L 875.00 1249.00 L 876.00 1255.00 L 848.00 1217.00 L 851.00 1225.00 L 885.00 1279.00 L 885.00 1281.00 L 851.00 1231.00 L 848.00 1234.00 L 876.00 1290.00 L 878.00 1298.00 L 854.00 1258.00 L 852.00 1257.00 L 872.00 1295.00 L 877.00 1316.00 L 867.00 1320.00 L 863.00 1336.00 L 865.00 1364.00 L 765.00 1395.00 L 563.00 1429.00 L 480.00 1401.00 L 516.00 1311.00 L 514.00 1312.00 L 474.00 1404.00 L 477.00 1394.00 L 523.00 1282.00 L 521.00 1282.00 L 471.00 1394.00 L 472.00 1391.00 L 524.00 1273.00 L 522.00 1274.00 L 466.00 1394.00 L 467.00 1388.00 L 525.00 1256.00 L 522.00 1257.00 L 458.00 1391.00 L 458.00 1389.00 L 522.00 1251.00 L 517.00 1253.00 L 443.00 1395.00 L 443.00 1392.00 L 517.00 1244.00 L 512.00 1246.00 L 428.00 1398.00 L 429.00 1393.00 L 515.00 1231.00 L 509.00 1233.00 L 411.00 1399.00 L 410.00 1398.00 L 506.00 1230.00 L 497.00 1235.00 L 383.00 1413.00 L 383.00 1410.00 L 497.00 1226.00 L 487.00 1232.00 L 353.00 1428.00 L 352.00 1426.00 L 484.00 1226.00 L 471.00 1235.00 L 313.00 1453.00 L 311.00 1452.00 L 465.00 1232.00 L 463.00 1229.00 L 305.00 1443.00 L 269.00 1491.00 L 355.00 1373.00 L 355.00 1370.00 L 269.00 1482.00 L 267.00 1482.00 L 349.00 1370.00 L 349.00 1367.00 L 267.00 1473.00 L 262.00 1477.00 L 334.00 1379.00 L 334.00 1371.00 L 262.00 1453.00 L 302.00 1400.00 L 454.00 1212.00 L 455.00 1209.00 L 305.00 1391.00 L 263.00 1441.00 L 329.00 1359.00 L 332.00 1354.00 L 272.00 1426.00 L 271.00 1426.00 L 329.00 1354.00 L 337.00 1343.00 L 295.00 1393.00 L 292.00 1396.00 L 328.00 1352.00 L 327.00 1350.00 L 289.00 1390.00 L 284.00 1393.00 L 312.00 1359.00 L 308.00 1356.00 L 272.00 1384.00 L 319.00 1327.00 L 449.00 1185.00 L 447.00 1184.00 L 313.00 1324.00 L 311.00 1324.00 L 441.00 1184.00 L 437.00 1179.00 L 299.00 1309.00 L 296.00 1308.00 L 428.00 1176.00 L 428.00 1171.00 L 296.00 1293.00 L 294.00 1293.00 L 422.00 1171.00 L 473.00 1101.00 L 447.00 1083.00 L 430.00 1043.00 L 422.00 981.00 L 418.00 947.00 L 418.00 941.00 L 406.00 931.00 Z" fill="black" stroke="black" stroke-width="1"/>
</svg>