<?xml version="1.0" encoding="UTF-8"?>
<svg xmlns="http://www.w3.org/2000/svg" viewBox="297.00 233.00 962.00 1573.00">
  <path d="M 494.00 1013.00 L 502.00 1011.00 L 490.00 1001.00 L 458.00 983.00 L 434.00 966.00 L 418.00 950.00 L 408.00 934.00 L 404.00 918.00 L 407.00 898.00 L 417.00 874.00 L 416.00 853.00 L 404.00 835.00 L 402.00 820.00 L 410.00 808.00 L 412.00 797.00 L 408.00 787.00 L 409.00 774.00 L 415.00 758.00 L 410.00 740.00 L 394.00 720.00 L 394.00 717.00 L 410.00 731.00 L 405.00 724.00 L 379.00 696.00 L 369.00 675.00 L 375.00 661.00 L 404.00 626.00 L 456.00 570.00 L 478.00 529.00 L 470.00 503.00 L 471.00 497.00 L 481.00 511.00 L 483.00 509.00 L 477.00 491.00 L 478.00 489.00 L 486.00 503.00 L 488.00 505.00 L 484.00 495.00 L 484.00 492.00 L 488.00 496.00 L 490.00 489.00 L 490.00 471.00 L 492.00 466.00 L 496.00 474.00 L 496.00 469.00 L 492.00 451.00 L 494.00 448.00 L 502.00 460.00 L 503.00 454.00 L 497.00 430.00 L 498.00 426.00 L 506.00 442.00 L 507.00 440.00 L 501.00 420.00 L 503.00 419.00 L 513.00 437.00 L 514.00 435.00 L 506.00 413.00 L 506.00 408.00 L 514.00 420.00 L 516.00 418.00 L 512.00 402.00 L 514.00 405.00 L 522.00 427.00 L 524.00 425.00 L 520.00 399.00 L 522.00 396.00 L 530.00 416.00 L 534.00 413.00 L 534.00 387.00 L 537.00 382.00 L 543.00 398.00 L 546.00 396.00 L 546.00 376.00 L 554.00 363.00 L 570.00 357.00 L 593.00 340.00 L 623.00 312.00 L 665.00 285.00 L 719.00 259.00 L 782.00 245.00 L 854.00 243.00 L 909.00 245.00 L 947.00 251.00 L 993.00 265.00 L 1047.00 287.00 L 1092.00 317.00 L 1128.00 355.00 L 1156.00 406.00 L 1176.00 470.00 L 1187.00 523.00 L 1189.00 565.00 L 1185.00 637.00 L 1175.00 739.00 L 1161.00 811.00 L 1143.00 853.00 L 1125.00 879.00 L 1107.00 889.00 L 1106.00 892.00 L 1122.00 888.00 L 1123.00 890.00 L 1109.00 898.00 L 1108.00 929.00 L 1120.00 983.00 L 1124.00 1029.00 L 1120.00 1067.00 L 1128.00 1102.00 L 1148.00 1134.00 L 1173.00 1189.00 L 1203.00 1267.00 L 1226.00 1337.00 L 1242.00 1399.00 L 1249.00 1440.00 L 1247.00 1460.00 L 1201.00 1473.00 L 1111.00 1479.00 L 1029.00 1492.00 L 955.00 1512.00 L 857.00 1549.00 L 735.00 1603.00 L 611.00 1670.00 L 485.00 1750.00 L 413.00 1792.00 L 395.00 1796.00 L 379.00 1796.00 L 365.00 1792.00 L 346.00 1776.00 L 322.00 1748.00 L 309.00 1704.00 L 307.00 1644.00 L 315.00 1588.00 L 333.00 1536.00 L 340.00 1512.00 L 336.00 1516.00 L 347.00 1494.00 L 373.00 1446.00 L 384.00 1424.00 L 380.00 1428.00 L 399.00 1404.00 L 441.00 1352.00 L 447.00 1343.00 L 417.00 1377.00 L 426.00 1362.00 L 474.00 1298.00 L 495.00 1269.00 L 489.00 1275.00 L 490.00 1268.00 L 498.00 1248.00 L 496.00 1243.00 L 484.00 1253.00 L 489.00 1247.00 L 511.00 1225.00 L 506.00 1229.00 L 474.00 1259.00 L 476.00 1256.00 L 512.00 1220.00 L 510.00 1220.00 L 470.00 1256.00 L 460.00 1264.00 L 480.00 1244.00 L 477.00 1244.00 L 451.00 1264.00 L 452.00 1261.00 L 480.00 1235.00 L 478.00 1236.00 L 446.00 1264.00 L 452.00 1258.00 L 496.00 1218.00 L 492.00 1218.00 L 440.00 1258.00 L 422.00 1271.00 L 438.00 1257.00 L 441.00 1253.00 L 431.00 1259.00 L 433.00 1256.00 L 447.00 1244.00 L 445.00 1245.00 L 427.00 1259.00 L 429.00 1252.00 L 451.00 1224.00 L 474.00 1201.00 L 498.00 1183.00 L 499.00 1181.00 L 477.00 1195.00 L 478.00 1193.00 L 502.00 1175.00 L 504.00 1173.00 L 484.00 1187.00 L 481.00 1188.00 L 495.00 1176.00 L 496.00 1169.00 L 484.00 1167.00 L 477.00 1163.00 L 475.00 1157.00 L 485.00 1147.00 L 507.00 1133.00 L 507.00 1130.00 L 485.00 1138.00 L 484.00 1135.00 L 504.00 1121.00 L 504.00 1117.00 L 484.00 1123.00 L 482.00 1121.00 L 498.00 1111.00 L 496.00 1090.00 L 476.00 1058.00 L 470.00 1036.00 L 478.00 1024.00 L 484.00 1017.00 L 488.00 1015.00 L 494.00 1013.00 Z" fill="black" stroke="black" stroke-width="1"/>
</svg>