<?xml version="1.0" encoding="UTF-8"?>
<svg xmlns="http://www.w3.org/2000/svg" viewBox="264.00 251.00 815.00 1515.00">
  <path d="M 425.00 1001.00 L 431.00 991.00 L 425.00 975.00 L 407.00 953.00 L 399.00 928.00 L 401.00 900.00 L 398.00 873.00 L 390.00 847.00 L 387.00 831.00 L 389.00 825.00 L 387.00 818.00 L 381.00 810.00 L 379.00 801.00 L 381.00 791.00 L 366.00 771.00 L 334.00 741.00 L 333.00 738.00 L 363.00 762.00 L 363.00 760.00 L 333.00 732.00 L 332.00 730.00 L 360.00 754.00 L 361.00 751.00 L 335.00 721.00 L 330.00 691.00 L 346.00 661.00 L 365.00 633.00 L 387.00 607.00 L 398.00 583.00 L 398.00 561.00 L 403.00 539.00 L 413.00 517.00 L 415.00 495.00 L 409.00 473.00 L 410.00 470.00 L 418.00 486.00 L 419.00 484.00 L 413.00 464.00 L 413.00 460.00 L 419.00 472.00 L 420.00 470.00 L 416.00 454.00 L 417.00 452.00 L 423.00 464.00 L 424.00 462.00 L 420.00 446.00 L 421.00 444.00 L 427.00 456.00 L 430.00 451.00 L 430.00 429.00 L 432.00 423.00 L 436.00 433.00 L 438.00 431.00 L 438.00 417.00 L 442.00 405.00 L 450.00 395.00 L 476.00 371.00 L 520.00 333.00 L 579.00 300.00 L 653.00 272.00 L 733.00 261.00 L 819.00 267.00 L 886.00 281.00 L 934.00 303.00 L 972.00 327.00 L 1000.00 353.00 L 1022.00 378.00 L 1038.00 402.00 L 1051.00 429.00 L 1061.00 459.00 L 1067.00 491.00 L 1069.00 525.00 L 1064.00 563.00 L 1052.00 605.00 L 1034.00 650.00 L 1010.00 698.00 L 982.00 746.00 L 950.00 794.00 L 923.00 830.00 L 901.00 854.00 L 892.00 865.00 L 896.00 863.00 L 896.00 866.00 L 892.00 874.00 L 896.00 884.00 L 908.00 896.00 L 918.00 911.00 L 926.00 929.00 L 934.00 960.00 L 942.00 1004.00 L 946.00 1037.00 L 946.00 1059.00 L 944.00 1076.00 L 940.00 1088.00 L 947.00 1105.00 L 965.00 1127.00 L 979.00 1148.00 L 989.00 1168.00 L 1015.00 1239.00 L 1057.00 1361.00 L 1039.00 1429.00 L 961.00 1443.00 L 885.00 1463.00 L 811.00 1489.00 L 737.00 1524.00 L 663.00 1568.00 L 610.00 1602.00 L 578.00 1626.00 L 537.00 1662.00 L 487.00 1710.00 L 448.00 1740.00 L 420.00 1752.00 L 393.00 1756.00 L 367.00 1752.00 L 339.00 1734.00 L 309.00 1702.00 L 289.00 1668.00 L 279.00 1632.00 L 274.00 1599.00 L 274.00 1569.00 L 278.00 1531.00 L 286.00 1485.00 L 304.00 1429.00 L 332.00 1363.00 L 345.00 1331.00 L 343.00 1333.00 L 371.00 1291.00 L 429.00 1205.00 L 446.00 1171.00 L 422.00 1189.00 L 425.00 1186.00 L 455.00 1162.00 L 450.00 1165.00 L 410.00 1195.00 L 412.00 1192.00 L 456.00 1156.00 L 453.00 1156.00 L 403.00 1192.00 L 394.00 1197.00 L 426.00 1171.00 L 422.00 1172.00 L 382.00 1200.00 L 388.00 1195.00 L 440.00 1157.00 L 438.00 1157.00 L 382.00 1195.00 L 356.00 1212.00 L 360.00 1208.00 L 356.00 1208.00 L 344.00 1212.00 L 345.00 1207.00 L 359.00 1193.00 L 357.00 1191.00 L 339.00 1201.00 L 358.00 1185.00 L 414.00 1143.00 L 429.00 1129.00 L 403.00 1143.00 L 404.00 1142.00 L 432.00 1126.00 L 434.00 1124.00 L 410.00 1136.00 L 408.00 1136.00 L 428.00 1124.00 L 430.00 1122.00 L 414.00 1130.00 L 411.00 1129.00 L 421.00 1119.00 L 421.00 1112.00 L 411.00 1108.00 L 405.00 1103.00 L 403.00 1097.00 L 405.00 1087.00 L 411.00 1073.00 L 422.00 1064.00 L 438.00 1060.00 L 440.00 1058.00 L 428.00 1058.00 L 427.00 1056.00 L 437.00 1052.00 L 438.00 1041.00 L 430.00 1023.00 L 425.00 1012.00 L 423.00 1008.00 L 425.00 1001.00 Z" fill="black" stroke="black" stroke-width="1"/>
</svg>