<?xml version="1.0" encoding="UTF-8"?>
<svg xmlns="http://www.w3.org/2000/svg" viewBox="338.00 285.00 723.00 1450.00">
  <path d="M 395.00 956.00 L 397.00 944.00 L 392.00 933.00 L 380.00 923.00 L 376.00 907.00 L 380.00 885.00 L 372.00 866.00 L 352.00 850.00 L 354.00 814.00 L 378.00 758.00 L 381.00 720.00 L 363.00 700.00 L 363.00 697.00 L 381.00 711.00 L 380.00 708.00 L 360.00 688.00 L 359.00 685.00 L 377.00 699.00 L 376.00 696.00 L 356.00 676.00 L 355.00 674.00 L 373.00 690.00 L 372.00 686.00 L 352.00 662.00 L 350.00 657.00 L 366.00 671.00 L 366.00 669.00 L 350.00 651.00 L 350.00 649.00 L 366.00 663.00 L 366.00 660.00 L 350.00 640.00 L 349.00 635.00 L 363.00 645.00 L 363.00 637.00 L 349.00 611.00 L 348.00 603.00 L 360.00 613.00 L 361.00 608.00 L 351.00 588.00 L 365.00 543.00 L 403.00 473.00 L 445.00 418.00 L 491.00 378.00 L 553.00 343.00 L 631.00 313.00 L 714.00 297.00 L 802.00 295.00 L 878.00 310.00 L 942.00 342.00 L 991.00 385.00 L 1025.00 439.00 L 1045.00 508.00 L 1051.00 592.00 L 1032.00 705.00 L 988.00 847.00 L 940.00 924.00 L 888.00 936.00 L 887.00 939.00 L 937.00 933.00 L 937.00 935.00 L 887.00 945.00 L 885.00 949.00 L 931.00 947.00 L 931.00 949.00 L 885.00 955.00 L 883.00 957.00 L 925.00 955.00 L 929.00 956.00 L 895.00 960.00 L 894.00 962.00 L 926.00 962.00 L 922.00 964.00 L 882.00 968.00 L 880.00 970.00 L 916.00 970.00 L 916.00 972.00 L 880.00 976.00 L 876.00 979.00 L 904.00 981.00 L 904.00 984.00 L 876.00 988.00 L 868.00 1012.00 L 880.00 1056.00 L 900.00 1098.00 L 928.00 1138.00 L 954.00 1220.00 L 978.00 1344.00 L 923.00 1436.00 L 789.00 1496.00 L 674.00 1560.00 L 578.00 1628.00 L 554.00 1537.00 L 602.00 1287.00 L 600.00 1289.00 L 548.00 1543.00 L 547.00 1545.00 L 597.00 1295.00 L 593.00 1299.00 L 535.00 1557.00 L 535.00 1554.00 L 593.00 1290.00 L 590.00 1293.00 L 526.00 1563.00 L 526.00 1561.00 L 590.00 1287.00 L 588.00 1288.00 L 520.00 1564.00 L 520.00 1562.00 L 588.00 1282.00 L 586.00 1284.00 L 514.00 1568.00 L 474.00 1715.00 L 466.00 1725.00 L 497.00 1598.00 L 567.00 1334.00 L 562.00 1340.00 L 482.00 1616.00 L 486.00 1598.00 L 574.00 1286.00 L 572.00 1288.00 L 480.00 1604.00 L 480.00 1602.00 L 572.00 1282.00 L 568.00 1280.00 L 468.00 1596.00 L 458.00 1625.00 L 538.00 1367.00 L 537.00 1365.00 L 455.00 1619.00 L 454.00 1620.00 L 534.00 1368.00 L 532.00 1366.00 L 448.00 1614.00 L 446.00 1617.00 L 526.00 1375.00 L 524.00 1371.00 L 440.00 1605.00 L 452.00 1569.00 L 560.00 1263.00 L 559.00 1261.00 L 449.00 1563.00 L 434.00 1603.00 L 514.00 1381.00 L 513.00 1378.00 L 431.00 1594.00 L 429.00 1596.00 L 507.00 1384.00 L 506.00 1380.00 L 426.00 1584.00 L 424.00 1587.00 L 500.00 1389.00 L 499.00 1386.00 L 421.00 1578.00 L 420.00 1579.00 L 496.00 1389.00 L 496.00 1387.00 L 420.00 1573.00 L 382.00 1662.00 L 382.00 1654.00 L 439.00 1513.00 L 553.00 1239.00 L 552.00 1236.00 L 436.00 1504.00 L 411.00 1559.00 L 477.00 1401.00 L 477.00 1397.00 L 411.00 1547.00 L 410.00 1548.00 L 474.00 1400.00 L 474.00 1398.00 L 410.00 1542.00 L 409.00 1544.00 L 471.00 1404.00 L 471.00 1401.00 L 409.00 1535.00 L 407.00 1537.00 L 465.00 1407.00 L 465.00 1404.00 L 407.00 1528.00 L 405.00 1531.00 L 459.00 1413.00 L 460.00 1410.00 L 408.00 1522.00 L 406.00 1525.00 L 454.00 1419.00 L 454.00 1415.00 L 406.00 1513.00 L 438.00 1445.00 L 550.00 1211.00 L 551.00 1208.00 L 441.00 1436.00 L 441.00 1435.00 L 551.00 1205.00 L 556.00 1190.00 L 456.00 1390.00 L 455.00 1388.00 L 553.00 1184.00 L 598.00 1075.00 L 590.00 1061.00 L 552.00 1052.00 L 484.00 1048.00 L 439.00 1028.00 L 417.00 992.00 L 403.00 971.00 L 397.00 965.00 L 395.00 956.00 Z" fill="black" stroke="black" stroke-width="1"/>
</svg>