<?xml version="1.0" encoding="UTF-8"?>
<svg xmlns="http://www.w3.org/2000/svg" viewBox="353.00 205.00 869.00 1550.00">
  <path d="M 455.00 976.00 L 449.00 964.00 L 447.00 945.00 L 449.00 919.00 L 447.00 899.00 L 441.00 885.00 L 438.00 872.00 L 438.00 860.00 L 441.00 852.00 L 447.00 848.00 L 448.00 841.00 L 444.00 831.00 L 444.00 817.00 L 448.00 799.00 L 438.00 781.00 L 414.00 763.00 L 411.00 760.00 L 429.00 772.00 L 428.00 770.00 L 408.00 754.00 L 397.00 740.00 L 395.00 728.00 L 403.00 708.00 L 421.00 680.00 L 443.00 655.00 L 469.00 633.00 L 485.00 616.00 L 491.00 604.00 L 493.00 589.00 L 491.00 571.00 L 492.00 556.00 L 496.00 544.00 L 491.00 523.00 L 477.00 493.00 L 478.00 490.00 L 494.00 514.00 L 494.00 511.00 L 478.00 481.00 L 473.00 471.00 L 479.00 481.00 L 480.00 479.00 L 476.00 465.00 L 483.00 472.00 L 501.00 500.00 L 503.00 497.00 L 489.00 463.00 L 490.00 461.00 L 506.00 491.00 L 515.00 504.00 L 517.00 500.00 L 511.00 483.00 L 497.00 453.00 L 498.00 451.00 L 514.00 477.00 L 517.00 475.00 L 507.00 445.00 L 508.00 443.00 L 520.00 469.00 L 523.00 474.00 L 517.00 458.00 L 518.00 456.00 L 526.00 468.00 L 525.00 462.00 L 515.00 438.00 L 516.00 436.00 L 528.00 456.00 L 530.00 455.00 L 522.00 433.00 L 523.00 431.00 L 533.00 449.00 L 535.00 449.00 L 529.00 431.00 L 530.00 429.00 L 538.00 443.00 L 539.00 440.00 L 533.00 420.00 L 534.00 418.00 L 542.00 434.00 L 543.00 432.00 L 537.00 412.00 L 537.00 409.00 L 543.00 423.00 L 543.00 421.00 L 537.00 403.00 L 535.00 393.00 L 537.00 391.00 L 542.00 401.00 L 550.00 423.00 L 555.00 432.00 L 557.00 428.00 L 554.00 414.00 L 546.00 390.00 L 550.00 370.00 L 566.00 354.00 L 582.00 342.00 L 598.00 334.00 L 620.00 316.00 L 648.00 288.00 L 680.00 269.00 L 716.00 259.00 L 753.00 245.00 L 791.00 227.00 L 837.00 217.00 L 891.00 215.00 L 946.00 223.00 L 1002.00 241.00 L 1035.00 254.00 L 1045.00 262.00 L 1072.00 289.00 L 1116.00 335.00 L 1149.00 379.00 L 1171.00 421.00 L 1186.00 457.00 L 1194.00 487.00 L 1199.00 518.00 L 1201.00 550.00 L 1198.00 589.00 L 1190.00 635.00 L 1180.00 669.00 L 1168.00 691.00 L 1157.00 722.00 L 1147.00 762.00 L 1135.00 795.00 L 1121.00 821.00 L 1108.00 853.00 L 1096.00 891.00 L 1090.00 917.00 L 1090.00 931.00 L 1084.00 941.00 L 1072.00 947.00 L 1066.00 952.00 L 1066.00 956.00 L 1069.00 961.00 L 1075.00 967.00 L 1083.00 988.00 L 1093.00 1024.00 L 1098.00 1070.00 L 1098.00 1126.00 L 1115.00 1187.00 L 1149.00 1253.00 L 1176.00 1316.00 L 1196.00 1376.00 L 1208.00 1422.00 L 1212.00 1454.00 L 1189.00 1472.00 L 1139.00 1476.00 L 1071.00 1489.00 L 985.00 1511.00 L 904.00 1536.00 L 828.00 1564.00 L 751.00 1597.00 L 673.00 1635.00 L 596.00 1676.00 L 520.00 1720.00 L 476.00 1743.00 L 464.00 1745.00 L 449.00 1744.00 L 431.00 1740.00 L 414.00 1731.00 L 398.00 1717.00 L 384.00 1699.00 L 372.00 1677.00 L 365.00 1654.00 L 363.00 1630.00 L 365.00 1603.00 L 371.00 1573.00 L 373.00 1559.00 L 371.00 1561.00 L 377.00 1539.00 L 391.00 1493.00 L 425.00 1421.00 L 479.00 1323.00 L 507.00 1265.00 L 509.00 1247.00 L 503.00 1243.00 L 489.00 1253.00 L 492.00 1247.00 L 512.00 1225.00 L 508.00 1227.00 L 480.00 1253.00 L 483.00 1248.00 L 517.00 1212.00 L 514.00 1212.00 L 474.00 1248.00 L 477.00 1244.00 L 523.00 1200.00 L 522.00 1199.00 L 474.00 1241.00 L 472.00 1240.00 L 516.00 1196.00 L 512.00 1196.00 L 460.00 1240.00 L 441.00 1252.00 L 455.00 1232.00 L 480.00 1206.00 L 516.00 1174.00 L 516.00 1172.00 L 480.00 1200.00 L 479.00 1200.00 L 513.00 1172.00 L 514.00 1170.00 L 482.00 1194.00 L 479.00 1194.00 L 505.00 1170.00 L 507.00 1165.00 L 485.00 1179.00 L 482.00 1179.00 L 498.00 1165.00 L 500.00 1155.00 L 488.00 1149.00 L 493.00 1139.00 L 515.00 1125.00 L 513.00 1122.00 L 487.00 1130.00 L 486.00 1126.00 L 510.00 1110.00 L 512.00 1107.00 L 492.00 1117.00 L 488.00 1117.00 L 500.00 1107.00 L 501.00 1104.00 L 491.00 1108.00 L 493.00 1105.00 L 507.00 1095.00 L 514.00 1085.00 L 514.00 1075.00 L 510.00 1061.00 L 502.00 1043.00 L 508.00 1032.00 L 528.00 1028.00 L 530.00 1027.00 L 514.00 1029.00 L 510.00 1029.00 L 518.00 1027.00 L 508.00 1017.00 L 480.00 999.00 L 464.00 988.00 L 460.00 984.00 L 455.00 976.00 Z" fill="black" stroke="black" stroke-width="1"/>
</svg>