<?xml version="1.0" encoding="UTF-8"?>
<svg xmlns="http://www.w3.org/2000/svg" viewBox="215.00 254.00 1126.00 1361.00">
  <path d="M 459.00 825.00 L 469.00 759.00 L 462.00 718.00 L 438.00 702.00 L 439.00 699.00 L 465.00 709.00 L 468.00 708.00 L 448.00 696.00 L 448.00 692.00 L 468.00 696.00 L 472.00 693.00 L 460.00 683.00 L 462.00 680.00 L 478.00 684.00 L 481.00 681.00 L 471.00 671.00 L 472.00 668.00 L 484.00 672.00 L 489.00 666.00 L 487.00 650.00 L 491.00 645.00 L 501.00 651.00 L 502.00 634.00 L 494.00 594.00 L 510.00 573.00 L 550.00 571.00 L 560.00 549.00 L 540.00 507.00 L 543.00 507.00 L 569.00 549.00 L 571.00 546.00 L 549.00 498.00 L 552.00 497.00 L 580.00 543.00 L 585.00 541.00 L 567.00 491.00 L 569.00 490.00 L 591.00 538.00 L 593.00 535.00 L 575.00 481.00 L 577.00 479.00 L 599.00 529.00 L 598.00 522.00 L 574.00 458.00 L 576.00 455.00 L 604.00 513.00 L 606.00 501.00 L 582.00 419.00 L 584.00 416.00 L 612.00 492.00 L 613.00 488.00 L 587.00 404.00 L 588.00 403.00 L 616.00 485.00 L 621.00 481.00 L 603.00 391.00 L 605.00 377.00 L 627.00 439.00 L 630.00 438.00 L 614.00 374.00 L 612.00 362.00 L 624.00 402.00 L 627.00 402.00 L 621.00 362.00 L 628.00 359.00 L 648.00 393.00 L 658.00 393.00 L 658.00 359.00 L 663.00 341.00 L 673.00 339.00 L 682.00 356.00 L 690.00 392.00 L 693.00 392.00 L 691.00 356.00 L 693.00 353.00 L 699.00 383.00 L 701.00 382.00 L 699.00 350.00 L 700.00 348.00 L 704.00 376.00 L 707.00 376.00 L 709.00 348.00 L 711.00 339.00 L 713.00 349.00 L 725.00 341.00 L 747.00 315.00 L 775.00 305.00 L 809.00 311.00 L 840.00 303.00 L 868.00 281.00 L 896.00 273.00 L 924.00 279.00 L 949.00 276.00 L 971.00 264.00 L 1018.00 277.00 L 1090.00 315.00 L 1152.00 375.00 L 1204.00 457.00 L 1257.00 569.00 L 1311.00 711.00 L 1331.00 805.00 L 1317.00 851.00 L 1284.00 904.00 L 1232.00 964.00 L 1167.00 984.00 L 1089.00 964.00 L 1086.00 966.00 L 1158.00 990.00 L 1155.00 991.00 L 1077.00 969.00 L 1074.00 970.00 L 1146.00 994.00 L 1145.00 996.00 L 1071.00 976.00 L 1061.00 976.00 L 1115.00 996.00 L 1117.00 998.00 L 1067.00 982.00 L 1046.00 980.00 L 1054.00 992.00 L 1049.00 1002.00 L 1031.00 1010.00 L 1008.00 1010.00 L 980.00 1002.00 L 983.00 1018.00 L 1017.00 1058.00 L 1006.00 1072.00 L 950.00 1060.00 L 948.00 1085.00 L 1000.00 1147.00 L 999.00 1149.00 L 945.00 1091.00 L 946.00 1094.00 L 1002.00 1158.00 L 1002.00 1161.00 L 946.00 1103.00 L 945.00 1111.00 L 999.00 1185.00 L 1001.00 1191.00 L 951.00 1129.00 L 948.00 1131.00 L 992.00 1197.00 L 952.00 1250.00 L 828.00 1290.00 L 705.00 1346.00 L 583.00 1418.00 L 542.00 1396.00 L 582.00 1280.00 L 576.00 1285.00 L 524.00 1411.00 L 522.00 1408.00 L 570.00 1276.00 L 558.00 1286.00 L 486.00 1438.00 L 483.00 1436.00 L 549.00 1280.00 L 545.00 1283.00 L 471.00 1445.00 L 464.00 1456.00 L 524.00 1316.00 L 513.00 1326.00 L 431.00 1486.00 L 435.00 1473.00 L 525.00 1287.00 L 522.00 1290.00 L 426.00 1482.00 L 425.00 1482.00 L 519.00 1290.00 L 516.00 1293.00 L 416.00 1491.00 L 361.00 1595.00 L 351.00 1605.00 L 389.00 1526.00 L 475.00 1358.00 L 468.00 1365.00 L 368.00 1547.00 L 378.00 1525.00 L 498.00 1299.00 L 492.00 1306.00 L 360.00 1546.00 L 345.00 1570.00 L 447.00 1378.00 L 442.00 1374.00 L 330.00 1558.00 L 342.00 1531.00 L 478.00 1293.00 L 475.00 1290.00 L 333.00 1522.00 L 331.00 1519.00 L 469.00 1281.00 L 464.00 1276.00 L 316.00 1504.00 L 282.00 1551.00 L 362.00 1417.00 L 359.00 1411.00 L 273.00 1533.00 L 306.00 1483.00 L 458.00 1261.00 L 456.00 1257.00 L 300.00 1471.00 L 299.00 1468.00 L 453.00 1248.00 L 452.00 1244.00 L 296.00 1456.00 L 242.00 1527.00 L 290.00 1457.00 L 290.00 1454.00 L 242.00 1518.00 L 239.00 1521.00 L 281.00 1463.00 L 281.00 1459.00 L 239.00 1509.00 L 230.00 1518.00 L 254.00 1486.00 L 255.00 1483.00 L 233.00 1509.00 L 225.00 1517.00 L 231.00 1507.00 L 306.00 1408.00 L 450.00 1220.00 L 507.00 1116.00 L 477.00 1096.00 L 463.00 1056.00 L 465.00 996.00 L 452.00 956.00 L 424.00 936.00 L 418.00 912.00 L 434.00 884.00 L 445.00 867.00 L 451.00 861.00 L 459.00 825.00 Z" fill="black" stroke="black" stroke-width="1"/>
</svg>