<?xml version="1.0" encoding="UTF-8"?>
<svg xmlns="http://www.w3.org/2000/svg" viewBox="318.00 230.00 878.00 1531.00">
  <path d="M 477.00 1017.00 L 475.00 999.00 L 483.00 989.00 L 501.00 987.00 L 488.00 971.00 L 444.00 941.00 L 430.00 908.00 L 446.00 872.00 L 447.00 838.00 L 433.00 806.00 L 428.00 780.00 L 432.00 760.00 L 419.00 735.00 L 389.00 705.00 L 387.00 700.00 L 413.00 720.00 L 414.00 717.00 L 390.00 691.00 L 399.00 654.00 L 441.00 606.00 L 464.00 571.00 L 468.00 549.00 L 462.00 525.00 L 446.00 499.00 L 445.00 495.00 L 459.00 513.00 L 461.00 510.00 L 451.00 486.00 L 452.00 480.00 L 464.00 492.00 L 468.00 489.00 L 464.00 471.00 L 466.00 465.00 L 474.00 471.00 L 477.00 467.00 L 475.00 453.00 L 477.00 450.00 L 483.00 458.00 L 485.00 453.00 L 483.00 435.00 L 486.00 430.00 L 494.00 438.00 L 497.00 433.00 L 495.00 415.00 L 499.00 409.00 L 509.00 415.00 L 516.00 408.00 L 520.00 388.00 L 557.00 355.00 L 627.00 309.00 L 682.00 278.00 L 722.00 262.00 L 767.00 250.00 L 817.00 242.00 L 870.00 240.00 L 926.00 244.00 L 977.00 257.00 L 1023.00 279.00 L 1070.00 315.00 L 1118.00 365.00 L 1151.00 415.00 L 1169.00 465.00 L 1178.00 514.00 L 1178.00 562.00 L 1170.00 624.00 L 1154.00 700.00 L 1150.00 801.00 L 1158.00 927.00 L 1142.00 993.00 L 1102.00 999.00 L 1102.00 1002.00 L 1142.00 1002.00 L 1142.00 1005.00 L 1102.00 1011.00 L 1102.00 1014.00 L 1142.00 1014.00 L 1144.00 1016.00 L 1108.00 1020.00 L 1108.00 1023.00 L 1144.00 1025.00 L 1143.00 1027.00 L 1105.00 1029.00 L 1104.00 1032.00 L 1140.00 1036.00 L 1140.00 1039.00 L 1104.00 1041.00 L 1104.00 1048.00 L 1140.00 1060.00 L 1141.00 1066.00 L 1107.00 1066.00 L 1117.00 1072.00 L 1171.00 1084.00 L 1171.00 1087.00 L 1117.00 1081.00 L 1117.00 1084.00 L 1171.00 1096.00 L 1171.00 1098.00 L 1117.00 1090.00 L 1117.00 1093.00 L 1171.00 1107.00 L 1171.00 1109.00 L 1117.00 1099.00 L 1118.00 1101.00 L 1174.00 1115.00 L 1174.00 1118.00 L 1118.00 1110.00 L 1118.00 1116.00 L 1174.00 1136.00 L 1173.00 1139.00 L 1115.00 1125.00 L 1116.00 1131.00 L 1176.00 1157.00 L 1175.00 1160.00 L 1113.00 1140.00 L 1116.00 1146.00 L 1184.00 1178.00 L 1183.00 1181.00 L 1113.00 1155.00 L 1114.00 1160.00 L 1186.00 1196.00 L 1186.00 1199.00 L 1114.00 1169.00 L 1111.00 1170.00 L 1177.00 1202.00 L 1178.00 1206.00 L 1114.00 1182.00 L 1108.00 1184.00 L 1160.00 1212.00 L 1163.00 1216.00 L 1117.00 1196.00 L 1111.00 1197.00 L 1145.00 1219.00 L 1147.00 1222.00 L 1117.00 1206.00 L 1118.00 1209.00 L 1150.00 1231.00 L 1152.00 1236.00 L 1124.00 1224.00 L 1125.00 1227.00 L 1155.00 1245.00 L 1164.00 1251.00 L 1152.00 1245.00 L 1152.00 1248.00 L 1164.00 1260.00 L 1156.00 1258.00 L 1128.00 1242.00 L 1129.00 1246.00 L 1159.00 1270.00 L 1160.00 1273.00 L 1132.00 1255.00 L 1132.00 1258.00 L 1160.00 1282.00 L 1161.00 1285.00 L 1135.00 1267.00 L 1136.00 1271.00 L 1164.00 1297.00 L 1166.00 1303.00 L 1142.00 1289.00 L 1143.00 1294.00 L 1169.00 1318.00 L 1171.00 1323.00 L 1149.00 1309.00 L 1150.00 1314.00 L 1174.00 1338.00 L 1176.00 1343.00 L 1156.00 1329.00 L 1156.00 1332.00 L 1176.00 1352.00 L 1178.00 1357.00 L 1162.00 1347.00 L 1163.00 1368.00 L 1181.00 1420.00 L 1122.00 1462.00 L 986.00 1494.00 L 806.00 1568.00 L 582.00 1684.00 L 452.00 1745.00 L 416.00 1751.00 L 388.00 1750.00 L 368.00 1742.00 L 349.00 1725.00 L 331.00 1699.00 L 328.00 1654.00 L 340.00 1590.00 L 389.00 1464.00 L 475.00 1276.00 L 500.00 1185.00 L 464.00 1191.00 L 457.00 1189.00 L 479.00 1179.00 L 470.00 1181.00 L 430.00 1195.00 L 425.00 1195.00 L 455.00 1181.00 L 451.00 1180.00 L 413.00 1192.00 L 418.00 1188.00 L 466.00 1168.00 L 464.00 1167.00 L 412.00 1185.00 L 417.00 1181.00 L 479.00 1155.00 L 490.00 1149.00 L 450.00 1163.00 L 448.00 1161.00 L 484.00 1143.00 L 488.00 1136.00 L 460.00 1140.00 L 455.00 1136.00 L 473.00 1124.00 L 474.00 1115.00 L 458.00 1109.00 L 464.00 1102.00 L 492.00 1094.00 L 492.00 1091.00 L 464.00 1093.00 L 464.00 1091.00 L 492.00 1085.00 L 494.00 1082.00 L 470.00 1082.00 L 469.00 1080.00 L 491.00 1076.00 L 494.00 1073.00 L 478.00 1071.00 L 477.00 1068.00 L 491.00 1064.00 L 495.00 1056.00 L 489.00 1044.00 L 484.00 1035.00 L 480.00 1029.00 L 477.00 1017.00 Z" fill="black" stroke="black" stroke-width="1"/>
</svg>