<?xml version="1.0" encoding="UTF-8"?>
<svg xmlns="http://www.w3.org/2000/svg" viewBox="434.00 318.00 819.00 1448.00">
  <path d="M 533.00 980.00 L 539.00 960.00 L 538.00 943.00 L 530.00 929.00 L 529.00 914.00 L 535.00 898.00 L 534.00 886.00 L 526.00 878.00 L 524.00 862.00 L 528.00 838.00 L 518.00 818.00 L 494.00 802.00 L 490.00 798.00 L 506.00 806.00 L 505.00 804.00 L 487.00 792.00 L 490.00 793.00 L 514.00 807.00 L 513.00 805.00 L 487.00 787.00 L 486.00 786.00 L 510.00 802.00 L 510.00 799.00 L 486.00 777.00 L 498.00 737.00 L 546.00 679.00 L 570.00 639.00 L 570.00 617.00 L 557.00 584.00 L 531.00 540.00 L 531.00 538.00 L 557.00 578.00 L 559.00 577.00 L 537.00 535.00 L 537.00 532.00 L 559.00 568.00 L 560.00 567.00 L 540.00 529.00 L 541.00 526.00 L 563.00 558.00 L 566.00 555.00 L 550.00 517.00 L 551.00 513.00 L 569.00 543.00 L 570.00 541.00 L 554.00 507.00 L 555.00 505.00 L 573.00 535.00 L 576.00 534.00 L 564.00 502.00 L 565.00 500.00 L 579.00 528.00 L 582.00 526.00 L 574.00 494.00 L 576.00 490.00 L 588.00 514.00 L 591.00 514.00 L 585.00 490.00 L 587.00 487.00 L 597.00 505.00 L 599.00 505.00 L 593.00 487.00 L 594.00 486.00 L 602.00 502.00 L 605.00 502.00 L 603.00 486.00 L 618.00 467.00 L 650.00 445.00 L 678.00 421.00 L 702.00 395.00 L 736.00 375.00 L 780.00 361.00 L 808.00 357.00 L 820.00 363.00 L 827.00 363.00 L 829.00 357.00 L 830.00 358.00 L 830.00 366.00 L 831.00 364.00 L 833.00 352.00 L 835.00 356.00 L 837.00 376.00 L 840.00 375.00 L 844.00 353.00 L 846.00 354.00 L 846.00 378.00 L 848.00 377.00 L 852.00 351.00 L 855.00 353.00 L 857.00 383.00 L 860.00 383.00 L 864.00 353.00 L 866.00 353.00 L 866.00 383.00 L 869.00 382.00 L 875.00 350.00 L 877.00 351.00 L 875.00 385.00 L 878.00 385.00 L 886.00 351.00 L 888.00 351.00 L 884.00 385.00 L 886.00 386.00 L 894.00 354.00 L 899.00 353.00 L 901.00 383.00 L 905.00 382.00 L 911.00 350.00 L 922.00 332.00 L 938.00 328.00 L 974.00 331.00 L 1030.00 341.00 L 1088.00 368.00 L 1148.00 412.00 L 1190.00 465.00 L 1214.00 527.00 L 1226.00 593.00 L 1226.00 663.00 L 1214.00 731.00 L 1190.00 797.00 L 1160.00 864.00 L 1124.00 932.00 L 1111.00 973.00 L 1121.00 987.00 L 1132.00 1023.00 L 1144.00 1081.00 L 1150.00 1120.00 L 1150.00 1140.00 L 1147.00 1155.00 L 1141.00 1165.00 L 1156.00 1201.00 L 1192.00 1263.00 L 1221.00 1327.00 L 1243.00 1393.00 L 1227.00 1431.00 L 1173.00 1441.00 L 1098.00 1463.00 L 1002.00 1497.00 L 894.00 1547.00 L 774.00 1613.00 L 680.00 1671.00 L 612.00 1721.00 L 563.00 1749.00 L 533.00 1755.00 L 510.00 1756.00 L 494.00 1752.00 L 478.00 1741.00 L 462.00 1723.00 L 451.00 1705.00 L 445.00 1687.00 L 444.00 1659.00 L 448.00 1621.00 L 469.00 1561.00 L 507.00 1479.00 L 521.00 1446.00 L 511.00 1462.00 L 533.00 1425.00 L 587.00 1335.00 L 600.00 1312.00 L 572.00 1356.00 L 570.00 1358.00 L 594.00 1318.00 L 602.00 1304.00 L 594.00 1316.00 L 595.00 1310.00 L 605.00 1286.00 L 601.00 1287.00 L 583.00 1313.00 L 583.00 1312.00 L 601.00 1284.00 L 598.00 1286.00 L 574.00 1318.00 L 553.00 1337.00 L 535.00 1343.00 L 536.00 1332.00 L 556.00 1304.00 L 554.00 1303.00 L 530.00 1329.00 L 544.00 1310.00 L 596.00 1246.00 L 596.00 1244.00 L 544.00 1304.00 L 543.00 1304.00 L 593.00 1244.00 L 607.00 1227.00 L 585.00 1253.00 L 583.00 1254.00 L 601.00 1230.00 L 601.00 1228.00 L 583.00 1248.00 L 582.00 1247.00 L 598.00 1225.00 L 600.00 1215.00 L 588.00 1217.00 L 592.00 1206.00 L 612.00 1182.00 L 610.00 1181.00 L 586.00 1203.00 L 584.00 1204.00 L 604.00 1184.00 L 602.00 1181.00 L 578.00 1195.00 L 578.00 1191.00 L 602.00 1169.00 L 602.00 1167.00 L 578.00 1185.00 L 577.00 1183.00 L 599.00 1161.00 L 602.00 1155.00 L 586.00 1165.00 L 585.00 1162.00 L 599.00 1146.00 L 600.00 1128.00 L 588.00 1108.00 L 597.00 1090.00 L 627.00 1074.00 L 628.00 1071.00 L 600.00 1081.00 L 599.00 1080.00 L 625.00 1068.00 L 632.00 1064.00 L 620.00 1068.00 L 618.00 1067.00 L 626.00 1061.00 L 622.00 1059.00 L 606.00 1061.00 L 607.00 1059.00 L 625.00 1053.00 L 624.00 1052.00 L 604.00 1056.00 L 600.00 1056.00 L 612.00 1052.00 L 607.00 1050.00 L 585.00 1050.00 L 564.00 1038.00 L 544.00 1014.00 L 533.00 999.00 L 531.00 993.00 L 533.00 980.00 Z" fill="black" stroke="black" stroke-width="1"/>
</svg>