<?xml version="1.0" encoding="UTF-8"?>
<svg xmlns="http://www.w3.org/2000/svg" viewBox="385.00 205.00 959.00 1556.00">
  <path d="M 573.00 958.00 L 571.00 926.00 L 566.00 906.00 L 558.00 898.00 L 554.00 887.00 L 554.00 873.00 L 550.00 862.00 L 542.00 854.00 L 540.00 843.00 L 544.00 829.00 L 535.00 815.00 L 513.00 801.00 L 513.00 799.00 L 535.00 809.00 L 533.00 806.00 L 507.00 790.00 L 507.00 788.00 L 533.00 800.00 L 533.00 797.00 L 507.00 779.00 L 510.00 741.00 L 542.00 683.00 L 560.00 647.00 L 564.00 633.00 L 566.00 618.00 L 566.00 602.00 L 563.00 587.00 L 557.00 573.00 L 556.00 569.00 L 560.00 575.00 L 553.00 564.00 L 535.00 536.00 L 525.00 519.00 L 523.00 513.00 L 530.00 522.00 L 546.00 546.00 L 546.00 544.00 L 530.00 516.00 L 530.00 513.00 L 546.00 535.00 L 547.00 532.00 L 533.00 504.00 L 533.00 500.00 L 547.00 520.00 L 548.00 517.00 L 536.00 491.00 L 536.00 486.00 L 548.00 502.00 L 549.00 500.00 L 539.00 480.00 L 537.00 473.00 L 543.00 479.00 L 544.00 477.00 L 540.00 467.00 L 543.00 471.00 L 553.00 489.00 L 554.00 486.00 L 546.00 462.00 L 547.00 458.00 L 557.00 474.00 L 558.00 472.00 L 550.00 452.00 L 551.00 449.00 L 561.00 463.00 L 563.00 461.00 L 557.00 443.00 L 558.00 441.00 L 566.00 455.00 L 571.00 460.00 L 573.00 456.00 L 571.00 447.00 L 565.00 433.00 L 565.00 431.00 L 571.00 441.00 L 572.00 439.00 L 568.00 425.00 L 586.00 397.00 L 626.00 355.00 L 677.00 314.00 L 739.00 274.00 L 787.00 251.00 L 821.00 245.00 L 852.00 236.00 L 880.00 224.00 L 911.00 217.00 L 945.00 215.00 L 973.00 217.00 L 995.00 223.00 L 1020.00 226.00 L 1048.00 226.00 L 1077.00 231.00 L 1107.00 241.00 L 1134.00 253.00 L 1158.00 267.00 L 1190.00 291.00 L 1230.00 325.00 L 1259.00 359.00 L 1277.00 393.00 L 1292.00 417.00 L 1304.00 431.00 L 1313.00 446.00 L 1319.00 462.00 L 1325.00 488.00 L 1331.00 524.00 L 1334.00 556.00 L 1334.00 584.00 L 1326.00 630.00 L 1310.00 694.00 L 1277.00 758.00 L 1227.00 822.00 L 1198.00 862.00 L 1190.00 878.00 L 1190.00 906.00 L 1198.00 946.00 L 1200.00 987.00 L 1196.00 1029.00 L 1189.00 1063.00 L 1179.00 1089.00 L 1174.00 1107.00 L 1174.00 1117.00 L 1178.00 1132.00 L 1186.00 1152.00 L 1194.00 1199.00 L 1202.00 1273.00 L 1215.00 1344.00 L 1233.00 1412.00 L 1207.00 1449.00 L 1137.00 1455.00 L 1069.00 1467.00 L 1003.00 1485.00 L 918.00 1517.00 L 814.00 1563.00 L 744.00 1596.00 L 708.00 1616.00 L 650.00 1655.00 L 570.00 1713.00 L 522.00 1745.00 L 506.00 1751.00 L 485.00 1751.00 L 459.00 1745.00 L 439.00 1736.00 L 425.00 1724.00 L 413.00 1708.00 L 403.00 1688.00 L 397.00 1663.00 L 395.00 1633.00 L 397.00 1607.00 L 403.00 1585.00 L 417.00 1550.00 L 439.00 1502.00 L 447.00 1481.00 L 441.00 1487.00 L 448.00 1473.00 L 468.00 1439.00 L 476.00 1424.00 L 472.00 1428.00 L 502.00 1384.00 L 566.00 1292.00 L 597.00 1247.00 L 595.00 1249.00 L 597.00 1241.00 L 603.00 1223.00 L 597.00 1222.00 L 579.00 1238.00 L 580.00 1235.00 L 600.00 1213.00 L 597.00 1215.00 L 571.00 1241.00 L 572.00 1239.00 L 600.00 1209.00 L 598.00 1210.00 L 566.00 1242.00 L 569.00 1238.00 L 607.00 1198.00 L 605.00 1198.00 L 563.00 1238.00 L 565.00 1234.00 L 611.00 1186.00 L 608.00 1187.00 L 556.00 1237.00 L 528.00 1263.00 L 524.00 1265.00 L 546.00 1243.00 L 594.00 1197.00 L 591.00 1197.00 L 537.00 1243.00 L 509.00 1264.00 L 507.00 1260.00 L 516.00 1246.00 L 536.00 1222.00 L 568.00 1191.00 L 612.00 1153.00 L 613.00 1150.00 L 571.00 1182.00 L 567.00 1184.00 L 601.00 1156.00 L 603.00 1153.00 L 573.00 1175.00 L 572.00 1174.00 L 600.00 1150.00 L 606.00 1137.00 L 590.00 1135.00 L 580.00 1131.00 L 576.00 1125.00 L 589.00 1113.00 L 619.00 1095.00 L 619.00 1094.00 L 589.00 1110.00 L 586.00 1110.00 L 610.00 1094.00 L 611.00 1091.00 L 589.00 1101.00 L 591.00 1098.00 L 617.00 1082.00 L 619.00 1079.00 L 597.00 1089.00 L 597.00 1086.00 L 619.00 1070.00 L 628.00 1055.00 L 624.00 1041.00 L 628.00 1030.00 L 640.00 1022.00 L 634.00 1015.00 L 610.00 1009.00 L 592.00 1000.00 L 580.00 988.00 L 574.00 980.00 L 574.00 976.00 L 573.00 958.00 Z" fill="black" stroke="black" stroke-width="1"/>
</svg>