<?xml version="1.0" encoding="UTF-8"?>
<svg xmlns="http://www.w3.org/2000/svg" viewBox="342.00 160.00 1012.00 1753.00">
  <path d="M 551.00 1059.00 L 569.00 1045.00 L 558.00 1025.00 L 518.00 999.00 L 501.00 965.00 L 507.00 923.00 L 506.00 892.00 L 498.00 872.00 L 498.00 856.00 L 506.00 844.00 L 505.00 822.00 L 495.00 790.00 L 474.00 757.00 L 442.00 723.00 L 442.00 720.00 L 474.00 748.00 L 474.00 745.00 L 442.00 711.00 L 442.00 707.00 L 474.00 733.00 L 475.00 729.00 L 445.00 695.00 L 461.00 646.00 L 523.00 582.00 L 556.00 540.00 L 560.00 520.00 L 557.00 498.00 L 547.00 474.00 L 547.00 469.00 L 557.00 483.00 L 558.00 479.00 L 550.00 457.00 L 551.00 454.00 L 561.00 470.00 L 562.00 463.00 L 554.00 433.00 L 555.00 430.00 L 565.00 454.00 L 566.00 452.00 L 558.00 424.00 L 559.00 421.00 L 569.00 443.00 L 569.00 440.00 L 559.00 412.00 L 560.00 409.00 L 572.00 431.00 L 573.00 428.00 L 563.00 400.00 L 565.00 397.00 L 579.00 419.00 L 581.00 416.00 L 571.00 388.00 L 572.00 387.00 L 584.00 413.00 L 587.00 410.00 L 581.00 378.00 L 583.00 375.00 L 593.00 401.00 L 597.00 398.00 L 595.00 366.00 L 599.00 360.00 L 609.00 380.00 L 612.00 378.00 L 608.00 354.00 L 609.00 351.00 L 615.00 369.00 L 618.00 368.00 L 618.00 348.00 L 631.00 318.00 L 657.00 278.00 L 708.00 239.00 L 784.00 201.00 L 870.00 178.00 L 966.00 170.00 L 1066.00 190.00 L 1170.00 238.00 L 1249.00 299.00 L 1303.00 373.00 L 1334.00 454.00 L 1342.00 542.00 L 1344.00 596.00 L 1340.00 616.00 L 1315.00 647.00 L 1269.00 689.00 L 1268.00 692.00 L 1312.00 656.00 L 1315.00 656.00 L 1277.00 692.00 L 1275.00 698.00 L 1309.00 674.00 L 1315.00 671.00 L 1293.00 689.00 L 1292.00 692.00 L 1312.00 680.00 L 1311.00 684.00 L 1289.00 704.00 L 1285.00 713.00 L 1299.00 711.00 L 1299.00 722.00 L 1285.00 746.00 L 1261.00 778.00 L 1227.00 818.00 L 1197.00 846.00 L 1171.00 862.00 L 1170.00 864.00 L 1194.00 852.00 L 1191.00 855.00 L 1161.00 873.00 L 1158.00 876.00 L 1182.00 864.00 L 1184.00 865.00 L 1164.00 879.00 L 1165.00 886.00 L 1187.00 886.00 L 1191.00 890.00 L 1177.00 898.00 L 1179.00 901.00 L 1197.00 899.00 L 1211.00 909.00 L 1221.00 931.00 L 1231.00 981.00 L 1241.00 1059.00 L 1242.00 1114.00 L 1234.00 1146.00 L 1259.00 1244.00 L 1317.00 1408.00 L 1313.00 1495.00 L 1247.00 1505.00 L 1190.00 1519.00 L 1142.00 1537.00 L 1052.00 1584.00 L 920.00 1660.00 L 845.00 1699.00 L 827.00 1701.00 L 803.00 1719.00 L 773.00 1753.00 L 707.00 1798.00 L 605.00 1854.00 L 544.00 1881.00 L 524.00 1879.00 L 509.00 1884.00 L 499.00 1896.00 L 495.00 1897.00 L 497.00 1887.00 L 494.00 1889.00 L 486.00 1903.00 L 485.00 1899.00 L 491.00 1877.00 L 488.00 1878.00 L 476.00 1902.00 L 472.00 1902.00 L 476.00 1878.00 L 470.00 1878.00 L 454.00 1902.00 L 449.00 1902.00 L 455.00 1878.00 L 452.00 1878.00 L 440.00 1902.00 L 437.00 1901.00 L 443.00 1875.00 L 440.00 1874.00 L 428.00 1898.00 L 426.00 1899.00 L 434.00 1877.00 L 432.00 1876.00 L 420.00 1896.00 L 417.00 1894.00 L 423.00 1870.00 L 418.00 1868.00 L 402.00 1888.00 L 382.00 1880.00 L 358.00 1844.00 L 352.00 1780.00 L 364.00 1688.00 L 383.00 1612.00 L 409.00 1552.00 L 469.00 1451.00 L 563.00 1309.00 L 587.00 1256.00 L 541.00 1292.00 L 542.00 1290.00 L 590.00 1250.00 L 587.00 1251.00 L 533.00 1293.00 L 517.00 1304.00 L 539.00 1284.00 L 535.00 1285.00 L 505.00 1307.00 L 518.00 1296.00 L 574.00 1252.00 L 567.00 1252.00 L 497.00 1296.00 L 495.00 1291.00 L 561.00 1237.00 L 574.00 1221.00 L 534.00 1243.00 L 534.00 1241.00 L 574.00 1215.00 L 577.00 1211.00 L 543.00 1229.00 L 536.00 1232.00 L 556.00 1220.00 L 559.00 1218.00 L 545.00 1226.00 L 542.00 1224.00 L 550.00 1212.00 L 548.00 1202.00 L 536.00 1194.00 L 545.00 1182.00 L 575.00 1166.00 L 576.00 1162.00 L 548.00 1170.00 L 546.00 1167.00 L 570.00 1153.00 L 574.00 1128.00 L 558.00 1092.00 L 548.00 1072.00 L 544.00 1068.00 L 551.00 1059.00 Z" fill="black" stroke="black" stroke-width="1"/>
</svg>