<?xml version="1.0" encoding="UTF-8"?>
<svg xmlns="http://www.w3.org/2000/svg" viewBox="292.00 281.00 938.00 1527.00">
  <path d="M 510.00 1063.00 L 494.00 1057.00 L 481.00 1048.00 L 471.00 1036.00 L 466.00 1023.00 L 466.00 1009.00 L 472.00 990.00 L 484.00 966.00 L 486.00 938.00 L 478.00 906.00 L 477.00 892.00 L 483.00 896.00 L 483.00 890.00 L 477.00 874.00 L 455.00 849.00 L 417.00 815.00 L 417.00 813.00 L 455.00 843.00 L 455.00 840.00 L 417.00 804.00 L 416.00 801.00 L 452.00 831.00 L 463.00 840.00 L 449.00 828.00 L 448.00 825.00 L 460.00 831.00 L 449.00 819.00 L 415.00 789.00 L 420.00 743.00 L 464.00 681.00 L 487.00 632.00 L 489.00 596.00 L 492.00 575.00 L 496.00 569.00 L 496.00 559.00 L 492.00 545.00 L 493.00 543.00 L 499.00 553.00 L 499.00 547.00 L 493.00 525.00 L 494.00 522.00 L 502.00 538.00 L 502.00 534.00 L 494.00 510.00 L 495.00 508.00 L 505.00 528.00 L 505.00 525.00 L 495.00 499.00 L 495.00 496.00 L 505.00 516.00 L 506.00 513.00 L 498.00 487.00 L 499.00 483.00 L 509.00 501.00 L 511.00 498.00 L 505.00 474.00 L 506.00 470.00 L 514.00 486.00 L 519.00 492.00 L 521.00 488.00 L 519.00 477.00 L 513.00 459.00 L 514.00 456.00 L 522.00 468.00 L 525.00 465.00 L 523.00 447.00 L 524.00 443.00 L 528.00 453.00 L 530.00 450.00 L 530.00 434.00 L 532.00 432.00 L 536.00 444.00 L 537.00 442.00 L 535.00 426.00 L 537.00 414.00 L 543.00 406.00 L 571.00 385.00 L 621.00 351.00 L 675.00 326.00 L 733.00 310.00 L 784.00 299.00 L 828.00 293.00 L 866.00 291.00 L 898.00 293.00 L 935.00 299.00 L 977.00 309.00 L 1019.00 326.00 L 1061.00 350.00 L 1100.00 383.00 L 1136.00 425.00 L 1165.00 470.00 L 1187.00 518.00 L 1201.00 558.00 L 1207.00 590.00 L 1207.00 630.00 L 1201.00 678.00 L 1193.00 713.00 L 1183.00 735.00 L 1163.00 769.00 L 1133.00 815.00 L 1113.00 855.00 L 1103.00 889.00 L 1101.00 909.00 L 1107.00 915.00 L 1115.00 935.00 L 1125.00 969.00 L 1132.00 1004.00 L 1136.00 1040.00 L 1136.00 1079.00 L 1132.00 1121.00 L 1139.00 1169.00 L 1157.00 1223.00 L 1166.00 1256.00 L 1166.00 1268.00 L 1175.00 1304.00 L 1193.00 1364.00 L 1207.00 1422.00 L 1217.00 1478.00 L 1220.00 1508.00 L 1216.00 1512.00 L 1176.00 1518.00 L 1100.00 1526.00 L 1005.00 1547.00 L 891.00 1581.00 L 781.00 1621.00 L 675.00 1667.00 L 604.00 1702.00 L 568.00 1726.00 L 517.00 1753.00 L 451.00 1783.00 L 412.00 1798.00 L 400.00 1798.00 L 381.00 1793.00 L 355.00 1783.00 L 335.00 1771.00 L 321.00 1757.00 L 311.00 1736.00 L 305.00 1708.00 L 302.00 1687.00 L 302.00 1673.00 L 306.00 1660.00 L 314.00 1648.00 L 315.00 1645.00 L 309.00 1651.00 L 313.00 1635.00 L 327.00 1597.00 L 353.00 1544.00 L 391.00 1476.00 L 408.00 1444.00 L 404.00 1448.00 L 430.00 1411.00 L 486.00 1333.00 L 507.00 1300.00 L 493.00 1312.00 L 500.00 1301.00 L 528.00 1267.00 L 519.00 1269.00 L 473.00 1307.00 L 467.00 1310.00 L 501.00 1278.00 L 499.00 1279.00 L 461.00 1313.00 L 462.00 1311.00 L 502.00 1273.00 L 497.00 1275.00 L 447.00 1317.00 L 452.00 1312.00 L 512.00 1260.00 L 511.00 1260.00 L 449.00 1312.00 L 446.00 1312.00 L 502.00 1260.00 L 498.00 1260.00 L 434.00 1312.00 L 442.00 1304.00 L 522.00 1236.00 L 519.00 1235.00 L 433.00 1301.00 L 423.00 1308.00 L 489.00 1256.00 L 487.00 1255.00 L 417.00 1305.00 L 427.00 1296.00 L 517.00 1228.00 L 518.00 1226.00 L 430.00 1290.00 L 426.00 1291.00 L 506.00 1229.00 L 527.00 1211.00 L 489.00 1237.00 L 476.00 1244.00 L 488.00 1232.00 L 510.00 1215.00 L 542.00 1193.00 L 541.00 1190.00 L 507.00 1206.00 L 506.00 1204.00 L 538.00 1184.00 L 539.00 1181.00 L 509.00 1195.00 L 496.00 1199.00 L 500.00 1193.00 L 514.00 1183.00 L 538.00 1169.00 L 539.00 1167.00 L 517.00 1177.00 L 518.00 1176.00 L 542.00 1164.00 L 554.00 1151.00 L 554.00 1137.00 L 551.00 1129.00 L 545.00 1127.00 L 543.00 1123.00 L 545.00 1117.00 L 559.00 1110.00 L 585.00 1102.00 L 586.00 1100.00 L 562.00 1104.00 L 563.00 1103.00 L 589.00 1097.00 L 591.00 1096.00 L 569.00 1100.00 L 566.00 1100.00 L 582.00 1096.00 L 575.00 1088.00 L 545.00 1076.00 L 527.00 1069.00 L 521.00 1067.00 L 510.00 1063.00 Z" fill="black" stroke="black" stroke-width="1"/>
</svg>