<?xml version="1.0" encoding="UTF-8"?>
<svg xmlns="http://www.w3.org/2000/svg" viewBox="274.00 404.00 931.00 1174.00">
  <path d="M 407.00 979.00 L 409.00 945.00 L 396.00 917.00 L 368.00 895.00 L 370.00 862.00 L 402.00 818.00 L 410.00 789.00 L 394.00 775.00 L 396.00 771.00 L 416.00 777.00 L 419.00 770.00 L 405.00 750.00 L 406.00 746.00 L 422.00 758.00 L 423.00 755.00 L 409.00 737.00 L 409.00 734.00 L 423.00 746.00 L 424.00 737.00 L 412.00 707.00 L 412.00 695.00 L 424.00 701.00 L 420.00 692.00 L 400.00 668.00 L 401.00 666.00 L 423.00 686.00 L 428.00 679.00 L 416.00 645.00 L 419.00 638.00 L 437.00 658.00 L 438.00 656.00 L 422.00 632.00 L 424.00 628.00 L 444.00 644.00 L 448.00 640.00 L 436.00 616.00 L 437.00 613.00 L 451.00 631.00 L 454.00 624.00 L 446.00 592.00 L 448.00 580.00 L 460.00 588.00 L 465.00 582.00 L 463.00 562.00 L 475.00 541.00 L 501.00 519.00 L 562.00 486.00 L 658.00 442.00 L 731.00 418.00 L 781.00 414.00 L 839.00 420.00 L 905.00 436.00 L 950.00 437.00 L 974.00 423.00 L 1014.00 433.00 L 1070.00 467.00 L 1103.00 505.00 L 1113.00 547.00 L 1132.00 584.00 L 1160.00 616.00 L 1181.00 684.00 L 1195.00 788.00 L 1191.00 853.00 L 1169.00 879.00 L 1154.00 915.00 L 1146.00 961.00 L 1096.00 989.00 L 1004.00 999.00 L 987.00 1007.00 L 1045.00 1013.00 L 1044.00 1015.00 L 984.00 1013.00 L 978.00 1019.00 L 1026.00 1033.00 L 1025.00 1039.00 L 975.00 1037.00 L 955.00 1065.00 L 965.00 1123.00 L 992.00 1168.00 L 1036.00 1200.00 L 1044.00 1209.00 L 1016.00 1195.00 L 1016.00 1197.00 L 1044.00 1215.00 L 1053.00 1234.00 L 1043.00 1254.00 L 1043.00 1280.00 L 1053.00 1312.00 L 999.00 1338.00 L 881.00 1358.00 L 753.00 1396.00 L 615.00 1452.00 L 559.00 1431.00 L 585.00 1333.00 L 583.00 1334.00 L 553.00 1434.00 L 554.00 1427.00 L 586.00 1313.00 L 584.00 1314.00 L 548.00 1430.00 L 548.00 1428.00 L 584.00 1308.00 L 581.00 1309.00 L 539.00 1431.00 L 538.00 1428.00 L 578.00 1300.00 L 570.00 1305.00 L 514.00 1443.00 L 513.00 1440.00 L 567.00 1296.00 L 561.00 1300.00 L 495.00 1452.00 L 494.00 1449.00 L 558.00 1291.00 L 556.00 1292.00 L 488.00 1452.00 L 471.00 1487.00 L 505.00 1397.00 L 496.00 1402.00 L 444.00 1502.00 L 459.00 1464.00 L 541.00 1288.00 L 538.00 1290.00 L 450.00 1470.00 L 430.00 1508.00 L 478.00 1404.00 L 473.00 1407.00 L 415.00 1517.00 L 412.00 1521.00 L 464.00 1419.00 L 462.00 1420.00 L 406.00 1524.00 L 404.00 1524.00 L 456.00 1420.00 L 445.00 1427.00 L 371.00 1545.00 L 393.00 1500.00 L 511.00 1292.00 L 509.00 1293.00 L 387.00 1503.00 L 356.00 1555.00 L 416.00 1449.00 L 408.00 1453.00 L 332.00 1567.00 L 330.00 1565.00 L 402.00 1447.00 L 397.00 1448.00 L 315.00 1568.00 L 346.00 1516.00 L 490.00 1292.00 L 487.00 1291.00 L 337.00 1513.00 L 336.00 1512.00 L 484.00 1288.00 L 483.00 1284.00 L 333.00 1500.00 L 297.00 1550.00 L 375.00 1434.00 L 374.00 1432.00 L 294.00 1544.00 L 291.00 1546.00 L 365.00 1438.00 L 365.00 1433.00 L 291.00 1531.00 L 328.00 1478.00 L 476.00 1274.00 L 476.00 1271.00 L 328.00 1469.00 L 284.00 1525.00 L 344.00 1439.00 L 347.00 1430.00 L 293.00 1498.00 L 286.00 1504.00 L 326.00 1448.00 L 342.00 1423.00 L 334.00 1429.00 L 383.00 1366.00 L 489.00 1234.00 L 513.00 1153.00 L 455.00 1123.00 L 423.00 1083.00 L 417.00 1033.00 L 412.00 1005.00 L 408.00 999.00 L 407.00 979.00 Z" fill="black" stroke="black" stroke-width="1"/>
</svg>