<?xml version="1.0" encoding="UTF-8"?>
<svg xmlns="http://www.w3.org/2000/svg" viewBox="305.00 305.00 839.00 1555.00">
  <path d="M 405.00 1038.00 L 411.00 1022.00 L 411.00 1004.00 L 405.00 984.00 L 405.00 968.00 L 411.00 956.00 L 410.00 945.00 L 402.00 935.00 L 399.00 921.00 L 401.00 903.00 L 389.00 886.00 L 363.00 870.00 L 348.00 860.00 L 344.00 856.00 L 356.00 861.00 L 384.00 875.00 L 383.00 873.00 L 353.00 855.00 L 352.00 854.00 L 380.00 870.00 L 380.00 867.00 L 352.00 845.00 L 362.00 795.00 L 410.00 717.00 L 435.00 671.00 L 437.00 657.00 L 430.00 635.00 L 414.00 605.00 L 413.00 601.00 L 427.00 623.00 L 430.00 625.00 L 422.00 607.00 L 423.00 605.00 L 433.00 619.00 L 435.00 618.00 L 429.00 602.00 L 429.00 599.00 L 435.00 609.00 L 433.00 605.00 L 423.00 587.00 L 424.00 585.00 L 436.00 599.00 L 438.00 598.00 L 430.00 582.00 L 431.00 580.00 L 441.00 592.00 L 443.00 590.00 L 437.00 574.00 L 438.00 572.00 L 446.00 584.00 L 447.00 582.00 L 441.00 566.00 L 442.00 564.00 L 450.00 576.00 L 452.00 569.00 L 448.00 543.00 L 450.00 538.00 L 458.00 554.00 L 458.00 551.00 L 450.00 529.00 L 451.00 526.00 L 461.00 542.00 L 463.00 537.00 L 457.00 511.00 L 459.00 508.00 L 469.00 528.00 L 470.00 526.00 L 462.00 502.00 L 464.00 499.00 L 476.00 517.00 L 478.00 515.00 L 470.00 493.00 L 471.00 491.00 L 481.00 509.00 L 483.00 508.00 L 477.00 488.00 L 479.00 485.00 L 489.00 499.00 L 491.00 497.00 L 485.00 479.00 L 486.00 477.00 L 494.00 491.00 L 497.00 489.00 L 495.00 471.00 L 497.00 470.00 L 503.00 486.00 L 505.00 484.00 L 503.00 464.00 L 509.00 451.00 L 523.00 445.00 L 538.00 432.00 L 554.00 412.00 L 565.00 400.00 L 571.00 396.00 L 576.00 397.00 L 580.00 403.00 L 582.00 401.00 L 582.00 391.00 L 590.00 380.00 L 606.00 368.00 L 624.00 359.00 L 644.00 353.00 L 660.00 352.00 L 672.00 356.00 L 679.00 352.00 L 681.00 340.00 L 686.00 336.00 L 694.00 340.00 L 700.00 337.00 L 704.00 327.00 L 706.00 329.00 L 706.00 343.00 L 708.00 343.00 L 712.00 329.00 L 714.00 331.00 L 714.00 349.00 L 717.00 348.00 L 723.00 328.00 L 729.00 317.00 L 735.00 315.00 L 754.00 317.00 L 786.00 323.00 L 805.00 324.00 L 811.00 320.00 L 814.00 322.00 L 814.00 330.00 L 816.00 328.00 L 820.00 316.00 L 822.00 317.00 L 822.00 331.00 L 825.00 331.00 L 831.00 317.00 L 833.00 318.00 L 831.00 334.00 L 833.00 335.00 L 839.00 321.00 L 849.00 315.00 L 863.00 317.00 L 890.00 325.00 L 930.00 339.00 L 964.00 355.00 L 992.00 373.00 L 1029.00 407.00 L 1075.00 457.00 L 1107.00 510.00 L 1125.00 566.00 L 1134.00 610.00 L 1134.00 642.00 L 1130.00 675.00 L 1122.00 709.00 L 1102.00 759.00 L 1070.00 825.00 L 1046.00 868.00 L 1030.00 888.00 L 1030.00 915.00 L 1046.00 949.00 L 1058.00 997.00 L 1066.00 1059.00 L 1067.00 1108.00 L 1061.00 1144.00 L 1083.00 1240.00 L 1133.00 1396.00 L 1119.00 1485.00 L 1041.00 1507.00 L 964.00 1535.00 L 888.00 1569.00 L 848.00 1581.00 L 844.00 1571.00 L 842.00 1573.00 L 842.00 1587.00 L 792.00 1621.00 L 692.00 1675.00 L 599.00 1732.00 L 513.00 1792.00 L 452.00 1829.00 L 416.00 1843.00 L 386.00 1850.00 L 362.00 1850.00 L 342.00 1840.00 L 326.00 1820.00 L 317.00 1800.00 L 315.00 1780.00 L 319.00 1741.00 L 329.00 1683.00 L 349.00 1613.00 L 379.00 1531.00 L 416.00 1450.00 L 460.00 1370.00 L 470.00 1347.00 L 446.00 1381.00 L 447.00 1378.00 L 473.00 1338.00 L 467.00 1340.00 L 429.00 1384.00 L 429.00 1377.00 L 467.00 1319.00 L 465.00 1316.00 L 423.00 1368.00 L 420.00 1370.00 L 456.00 1322.00 L 460.00 1315.00 L 432.00 1349.00 L 433.00 1347.00 L 463.00 1309.00 L 464.00 1306.00 L 436.00 1338.00 L 434.00 1338.00 L 458.00 1306.00 L 460.00 1301.00 L 440.00 1323.00 L 437.00 1324.00 L 451.00 1304.00 L 455.00 1293.00 L 449.00 1291.00 L 455.00 1278.00 L 473.00 1254.00 L 471.00 1251.00 L 449.00 1269.00 L 448.00 1266.00 L 468.00 1242.00 L 467.00 1239.00 L 445.00 1257.00 L 444.00 1254.00 L 464.00 1230.00 L 469.00 1206.00 L 459.00 1182.00 L 458.00 1165.00 L 466.00 1155.00 L 467.00 1151.00 L 461.00 1153.00 L 460.00 1151.00 L 464.00 1145.00 L 454.00 1131.00 L 430.00 1109.00 L 414.00 1088.00 L 406.00 1068.00 L 402.00 1055.00 L 402.00 1049.00 L 405.00 1038.00 Z" fill="black" stroke="black" stroke-width="1"/>
</svg>