<?xml version="1.0" encoding="UTF-8"?>
<svg xmlns="http://www.w3.org/2000/svg" viewBox="225.00 216.00 1046.00 1482.00">
  <path d="M 537.00 983.00 L 519.00 981.00 L 517.00 979.00 L 531.00 977.00 L 531.00 975.00 L 517.00 973.00 L 515.00 972.00 L 525.00 972.00 L 521.00 969.00 L 503.00 963.00 L 486.00 952.00 L 470.00 936.00 L 461.00 920.00 L 459.00 904.00 L 463.00 885.00 L 473.00 863.00 L 472.00 844.00 L 460.00 828.00 L 458.00 811.00 L 466.00 793.00 L 466.00 779.00 L 458.00 769.00 L 457.00 754.00 L 463.00 734.00 L 453.00 708.00 L 427.00 676.00 L 428.00 674.00 L 456.00 702.00 L 454.00 697.00 L 422.00 659.00 L 422.00 656.00 L 454.00 688.00 L 455.00 686.00 L 425.00 650.00 L 425.00 647.00 L 455.00 677.00 L 456.00 674.00 L 428.00 638.00 L 443.00 594.00 L 501.00 542.00 L 523.00 496.00 L 509.00 456.00 L 510.00 454.00 L 526.00 490.00 L 526.00 488.00 L 510.00 448.00 L 512.00 445.00 L 532.00 479.00 L 535.00 478.00 L 521.00 442.00 L 521.00 438.00 L 535.00 466.00 L 537.00 466.00 L 527.00 438.00 L 528.00 435.00 L 540.00 457.00 L 543.00 456.00 L 537.00 432.00 L 538.00 427.00 L 546.00 441.00 L 547.00 439.00 L 541.00 421.00 L 542.00 419.00 L 550.00 433.00 L 552.00 431.00 L 548.00 413.00 L 550.00 411.00 L 558.00 425.00 L 560.00 419.00 L 556.00 393.00 L 558.00 391.00 L 566.00 413.00 L 567.00 410.00 L 561.00 382.00 L 562.00 380.00 L 570.00 404.00 L 574.00 409.00 L 574.00 395.00 L 576.00 393.00 L 580.00 403.00 L 579.00 395.00 L 573.00 369.00 L 574.00 367.00 L 582.00 389.00 L 584.00 388.00 L 580.00 364.00 L 582.00 361.00 L 590.00 379.00 L 592.00 379.00 L 588.00 361.00 L 588.00 356.00 L 592.00 364.00 L 594.00 363.00 L 594.00 353.00 L 596.00 355.00 L 600.00 369.00 L 602.00 368.00 L 602.00 352.00 L 604.00 350.00 L 608.00 362.00 L 610.00 362.00 L 610.00 350.00 L 630.00 328.00 L 670.00 296.00 L 701.00 278.00 L 723.00 274.00 L 746.00 265.00 L 770.00 251.00 L 815.00 238.00 L 881.00 226.00 L 951.00 232.00 L 1025.00 256.00 L 1097.00 295.00 L 1167.00 349.00 L 1216.00 412.00 L 1244.00 484.00 L 1259.00 542.00 L 1261.00 586.00 L 1257.00 628.00 L 1247.00 668.00 L 1219.00 724.00 L 1173.00 796.00 L 1156.00 847.00 L 1168.00 877.00 L 1172.00 924.00 L 1168.00 988.00 L 1161.00 1034.00 L 1151.00 1062.00 L 1146.00 1086.00 L 1146.00 1106.00 L 1155.00 1144.00 L 1173.00 1200.00 L 1184.00 1256.00 L 1188.00 1312.00 L 1185.00 1384.00 L 1175.00 1472.00 L 1167.00 1518.00 L 1161.00 1522.00 L 1123.00 1522.00 L 1053.00 1518.00 L 968.00 1521.00 L 868.00 1531.00 L 755.00 1553.00 L 629.00 1587.00 L 564.00 1602.00 L 560.00 1598.00 L 552.00 1601.00 L 540.00 1611.00 L 521.00 1619.00 L 495.00 1625.00 L 449.00 1643.00 L 383.00 1673.00 L 329.00 1688.00 L 287.00 1688.00 L 258.00 1676.00 L 242.00 1652.00 L 235.00 1618.00 L 237.00 1574.00 L 244.00 1533.00 L 256.00 1495.00 L 288.00 1440.00 L 340.00 1368.00 L 397.00 1296.00 L 459.00 1224.00 L 479.00 1196.00 L 457.00 1212.00 L 462.00 1207.00 L 494.00 1181.00 L 492.00 1182.00 L 456.00 1210.00 L 460.00 1206.00 L 504.00 1170.00 L 501.00 1171.00 L 451.00 1209.00 L 452.00 1207.00 L 504.00 1165.00 L 501.00 1166.00 L 443.00 1210.00 L 439.00 1211.00 L 489.00 1169.00 L 486.00 1168.00 L 430.00 1208.00 L 398.00 1228.00 L 390.00 1228.00 L 394.00 1221.00 L 410.00 1207.00 L 409.00 1205.00 L 391.00 1215.00 L 395.00 1209.00 L 421.00 1187.00 L 455.00 1162.00 L 497.00 1134.00 L 498.00 1131.00 L 458.00 1153.00 L 454.00 1154.00 L 486.00 1134.00 L 488.00 1132.00 L 460.00 1148.00 L 458.00 1149.00 L 482.00 1135.00 L 483.00 1134.00 L 461.00 1146.00 L 458.00 1145.00 L 474.00 1131.00 L 479.00 1122.00 L 473.00 1118.00 L 470.00 1110.00 L 470.00 1098.00 L 483.00 1086.00 L 509.00 1074.00 L 512.00 1071.00 L 492.00 1077.00 L 492.00 1076.00 L 512.00 1068.00 L 513.00 1065.00 L 495.00 1067.00 L 494.00 1064.00 L 510.00 1056.00 L 512.00 1053.00 L 500.00 1055.00 L 498.00 1052.00 L 506.00 1044.00 L 508.00 1027.00 L 504.00 1001.00 L 513.00 987.00 L 535.00 985.00 L 537.00 983.00 Z" fill="black" stroke="black" stroke-width="1"/>
</svg>