<?xml version="1.0" encoding="UTF-8"?>
<svg xmlns="http://www.w3.org/2000/svg" viewBox="137.00 177.00 1177.00 1577.00">
  <path d="M 300.00 893.00 L 296.00 859.00 L 280.00 833.00 L 252.00 815.00 L 236.00 803.00 L 232.00 797.00 L 230.00 788.00 L 230.00 776.00 L 251.00 746.00 L 293.00 698.00 L 316.00 667.00 L 320.00 653.00 L 319.00 635.00 L 313.00 613.00 L 320.00 581.00 L 340.00 539.00 L 349.00 513.00 L 347.00 503.00 L 370.00 475.00 L 418.00 429.00 L 459.00 398.00 L 493.00 382.00 L 508.00 364.00 L 504.00 344.00 L 506.00 343.00 L 514.00 361.00 L 516.00 359.00 L 512.00 337.00 L 514.00 336.00 L 522.00 356.00 L 525.00 356.00 L 523.00 336.00 L 532.00 324.00 L 552.00 320.00 L 574.00 309.00 L 598.00 291.00 L 625.00 278.00 L 655.00 270.00 L 690.00 267.00 L 730.00 269.00 L 756.00 264.00 L 768.00 252.00 L 783.00 241.00 L 801.00 231.00 L 829.00 221.00 L 867.00 211.00 L 893.00 202.00 L 907.00 194.00 L 922.00 189.00 L 938.00 187.00 L 959.00 191.00 L 985.00 201.00 L 1010.00 206.00 L 1034.00 206.00 L 1059.00 212.00 L 1085.00 224.00 L 1106.00 237.00 L 1122.00 251.00 L 1153.00 271.00 L 1199.00 297.00 L 1232.00 322.00 L 1252.00 346.00 L 1268.00 371.00 L 1280.00 397.00 L 1292.00 439.00 L 1304.00 497.00 L 1304.00 554.00 L 1292.00 610.00 L 1279.00 646.00 L 1265.00 662.00 L 1246.00 676.00 L 1222.00 688.00 L 1220.00 690.00 L 1240.00 682.00 L 1237.00 685.00 L 1211.00 699.00 L 1192.00 713.00 L 1180.00 727.00 L 1166.00 751.00 L 1150.00 785.00 L 1083.00 818.00 L 965.00 850.00 L 964.00 852.00 L 1080.00 824.00 L 1073.00 827.00 L 943.00 861.00 L 942.00 864.00 L 1070.00 836.00 L 1068.00 837.00 L 936.00 867.00 L 935.00 870.00 L 1065.00 846.00 L 1081.00 844.00 L 983.00 864.00 L 982.00 865.00 L 1078.00 847.00 L 1060.00 851.00 L 928.00 877.00 L 927.00 879.00 L 1057.00 857.00 L 1055.00 858.00 L 921.00 882.00 L 918.00 885.00 L 1046.00 867.00 L 1071.00 865.00 L 993.00 879.00 L 990.00 882.00 L 1062.00 874.00 L 1035.00 878.00 L 909.00 894.00 L 904.00 897.00 L 1020.00 887.00 L 1050.00 885.00 L 994.00 891.00 L 992.00 894.00 L 1044.00 894.00 L 1014.00 899.00 L 902.00 909.00 L 899.00 912.00 L 1005.00 908.00 L 1044.00 907.00 L 1016.00 909.00 L 1014.00 910.00 L 1038.00 910.00 L 1041.00 911.00 L 1023.00 913.00 L 1020.00 914.00 L 1032.00 914.00 L 991.00 916.00 L 897.00 920.00 L 855.00 923.00 L 865.00 925.00 L 868.00 926.00 L 864.00 926.00 L 869.00 931.00 L 883.00 941.00 L 891.00 951.00 L 893.00 961.00 L 899.00 970.00 L 909.00 978.00 L 910.00 981.00 L 902.00 979.00 L 905.00 981.00 L 919.00 987.00 L 931.00 1000.00 L 941.00 1020.00 L 953.00 1036.00 L 967.00 1048.00 L 983.00 1076.00 L 1001.00 1120.00 L 1016.00 1170.00 L 1028.00 1226.00 L 992.00 1270.00 L 908.00 1302.00 L 818.00 1346.00 L 722.00 1402.00 L 625.00 1467.00 L 527.00 1541.00 L 466.00 1591.00 L 442.00 1617.00 L 391.00 1661.00 L 313.00 1723.00 L 262.00 1744.00 L 238.00 1724.00 L 214.00 1699.00 L 190.00 1669.00 L 170.00 1633.00 L 154.00 1591.00 L 147.00 1557.00 L 149.00 1531.00 L 208.00 1451.00 L 324.00 1317.00 L 326.00 1311.00 L 214.00 1433.00 L 238.00 1406.00 L 398.00 1230.00 L 398.00 1228.00 L 238.00 1400.00 L 236.00 1401.00 L 392.00 1231.00 L 396.00 1223.00 L 248.00 1377.00 L 250.00 1374.00 L 402.00 1214.00 L 403.00 1212.00 L 253.00 1368.00 L 201.00 1421.00 L 247.00 1371.00 L 250.00 1366.00 L 210.00 1406.00 L 205.00 1410.00 L 235.00 1378.00 L 242.00 1370.00 L 226.00 1386.00 L 282.00 1327.00 L 410.00 1193.00 L 453.00 1116.00 L 411.00 1096.00 L 384.00 1081.00 L 372.00 1071.00 L 356.00 1064.00 L 336.00 1060.00 L 321.00 1053.00 L 311.00 1043.00 L 305.00 1027.00 L 303.00 1005.00 L 305.00 988.00 L 311.00 976.00 L 311.00 961.00 L 305.00 943.00 L 303.00 931.00 L 305.00 925.00 L 305.00 919.00 L 303.00 913.00 L 300.00 893.00 Z" fill="black" stroke="black" stroke-width="1"/>
</svg>