<?xml version="1.0" encoding="UTF-8"?>
<svg xmlns="http://www.w3.org/2000/svg" viewBox="335.00 210.00 1064.00 1580.00">
  <path d="M 537.00 946.00 L 535.00 934.00 L 527.00 922.00 L 513.00 910.00 L 508.00 896.00 L 512.00 880.00 L 511.00 866.00 L 505.00 854.00 L 503.00 836.00 L 505.00 812.00 L 492.00 789.00 L 464.00 767.00 L 450.00 751.00 L 450.00 741.00 L 468.00 714.00 L 504.00 670.00 L 510.00 632.00 L 486.00 600.00 L 487.00 598.00 L 513.00 626.00 L 515.00 627.00 L 493.00 601.00 L 494.00 598.00 L 518.00 618.00 L 518.00 614.00 L 494.00 586.00 L 494.00 584.00 L 518.00 608.00 L 519.00 606.00 L 497.00 578.00 L 497.00 575.00 L 519.00 597.00 L 521.00 594.00 L 503.00 566.00 L 502.00 562.00 L 518.00 582.00 L 518.00 576.00 L 502.00 544.00 L 494.00 526.00 L 494.00 522.00 L 500.00 528.00 L 512.00 544.00 L 512.00 542.00 L 500.00 522.00 L 501.00 518.00 L 515.00 530.00 L 516.00 527.00 L 504.00 509.00 L 504.00 507.00 L 516.00 521.00 L 517.00 518.00 L 507.00 498.00 L 508.00 495.00 L 520.00 509.00 L 521.00 507.00 L 511.00 489.00 L 512.00 488.00 L 524.00 504.00 L 525.00 502.00 L 515.00 482.00 L 516.00 480.00 L 528.00 496.00 L 531.00 493.00 L 525.00 471.00 L 526.00 466.00 L 534.00 478.00 L 536.00 476.00 L 532.00 460.00 L 533.00 444.00 L 539.00 428.00 L 549.00 407.00 L 563.00 381.00 L 583.00 355.00 L 609.00 329.00 L 642.00 305.00 L 682.00 283.00 L 742.00 262.00 L 822.00 242.00 L 886.00 232.00 L 934.00 232.00 L 982.00 238.00 L 1030.00 250.00 L 1060.00 248.00 L 1072.00 232.00 L 1075.00 233.00 L 1069.00 251.00 L 1072.00 249.00 L 1084.00 227.00 L 1087.00 228.00 L 1081.00 252.00 L 1083.00 251.00 L 1093.00 225.00 L 1116.00 220.00 L 1152.00 236.00 L 1177.00 257.00 L 1191.00 283.00 L 1202.00 291.00 L 1210.00 281.00 L 1221.00 277.00 L 1235.00 279.00 L 1252.00 302.00 L 1272.00 346.00 L 1301.00 393.00 L 1339.00 443.00 L 1365.00 489.00 L 1379.00 531.00 L 1387.00 570.00 L 1389.00 606.00 L 1380.00 654.00 L 1360.00 714.00 L 1342.00 751.00 L 1326.00 765.00 L 1284.00 786.00 L 1216.00 814.00 L 1204.00 820.00 L 1248.00 804.00 L 1246.00 807.00 L 1198.00 829.00 L 1153.00 871.00 L 1111.00 933.00 L 1092.00 1003.00 L 1096.00 1081.00 L 1119.00 1171.00 L 1161.00 1273.00 L 1187.00 1355.00 L 1197.00 1417.00 L 1156.00 1460.00 L 1064.00 1484.00 L 946.00 1526.00 L 802.00 1586.00 L 648.00 1662.00 L 484.00 1754.00 L 383.00 1780.00 L 345.00 1740.00 L 421.00 1572.00 L 611.00 1276.00 L 610.00 1274.00 L 418.00 1566.00 L 415.00 1570.00 L 601.00 1286.00 L 600.00 1284.00 L 412.00 1564.00 L 416.00 1557.00 L 612.00 1263.00 L 611.00 1260.00 L 413.00 1548.00 L 392.00 1577.00 L 548.00 1347.00 L 547.00 1345.00 L 389.00 1571.00 L 384.00 1577.00 L 532.00 1363.00 L 532.00 1361.00 L 384.00 1571.00 L 410.00 1534.00 L 610.00 1250.00 L 610.00 1248.00 L 410.00 1528.00 L 381.00 1568.00 L 523.00 1368.00 L 522.00 1366.00 L 378.00 1562.00 L 371.00 1570.00 L 501.00 1390.00 L 501.00 1387.00 L 371.00 1561.00 L 368.00 1564.00 L 492.00 1396.00 L 492.00 1393.00 L 368.00 1555.00 L 365.00 1557.00 L 483.00 1399.00 L 483.00 1395.00 L 365.00 1545.00 L 407.00 1489.00 L 609.00 1227.00 L 609.00 1225.00 L 407.00 1483.00 L 407.00 1482.00 L 609.00 1222.00 L 610.00 1216.00 L 410.00 1464.00 L 353.00 1534.00 L 439.00 1426.00 L 440.00 1424.00 L 356.00 1528.00 L 354.00 1529.00 L 434.00 1427.00 L 436.00 1422.00 L 360.00 1514.00 L 357.00 1517.00 L 427.00 1431.00 L 428.00 1428.00 L 360.00 1508.00 L 358.00 1509.00 L 422.00 1431.00 L 423.00 1429.00 L 361.00 1503.00 L 358.00 1506.00 L 414.00 1438.00 L 415.00 1435.00 L 361.00 1497.00 L 357.00 1500.00 L 403.00 1444.00 L 404.00 1441.00 L 360.00 1491.00 L 354.00 1497.00 L 386.00 1459.00 L 387.00 1457.00 L 357.00 1491.00 L 433.00 1402.00 L 615.00 1190.00 L 704.00 1077.00 L 700.00 1063.00 L 684.00 1056.00 L 656.00 1056.00 L 627.00 1051.00 L 597.00 1041.00 L 572.00 1027.00 L 552.00 1009.00 L 541.00 990.00 L 539.00 970.00 L 538.00 958.00 L 538.00 954.00 L 537.00 946.00 Z" fill="black" stroke="black" stroke-width="1"/>
</svg>