<?xml version="1.0" encoding="UTF-8"?>
<svg xmlns="http://www.w3.org/2000/svg" viewBox="340.00 257.00 903.00 1577.00">
  <path d="M 469.00 997.00 L 467.00 979.00 L 468.00 960.00 L 472.00 940.00 L 470.00 921.00 L 462.00 903.00 L 459.00 878.00 L 461.00 846.00 L 448.00 819.00 L 420.00 797.00 L 420.00 794.00 L 448.00 810.00 L 445.00 807.00 L 411.00 785.00 L 409.00 782.00 L 439.00 798.00 L 439.00 795.00 L 409.00 773.00 L 396.00 757.00 L 400.00 747.00 L 416.00 722.00 L 444.00 682.00 L 468.00 651.00 L 488.00 629.00 L 490.00 605.00 L 474.00 579.00 L 475.00 577.00 L 493.00 599.00 L 493.00 596.00 L 475.00 568.00 L 475.00 566.00 L 493.00 590.00 L 495.00 588.00 L 481.00 560.00 L 482.00 557.00 L 498.00 579.00 L 506.00 586.00 L 506.00 578.00 L 501.00 564.00 L 491.00 544.00 L 487.00 533.00 L 489.00 531.00 L 495.00 538.00 L 505.00 554.00 L 508.00 556.00 L 504.00 544.00 L 504.00 541.00 L 508.00 547.00 L 509.00 546.00 L 507.00 538.00 L 504.00 530.00 L 500.00 522.00 L 502.00 524.00 L 510.00 536.00 L 510.00 534.00 L 502.00 518.00 L 501.00 514.00 L 507.00 522.00 L 508.00 521.00 L 504.00 511.00 L 506.00 513.00 L 514.00 527.00 L 513.00 522.00 L 503.00 498.00 L 504.00 496.00 L 516.00 516.00 L 522.00 524.00 L 522.00 520.00 L 517.00 505.00 L 507.00 479.00 L 508.00 477.00 L 520.00 499.00 L 521.00 496.00 L 511.00 468.00 L 512.00 466.00 L 524.00 490.00 L 525.00 488.00 L 515.00 460.00 L 514.00 453.00 L 522.00 467.00 L 523.00 465.00 L 517.00 447.00 L 519.00 449.00 L 529.00 471.00 L 533.00 478.00 L 531.00 470.00 L 532.00 467.00 L 536.00 469.00 L 534.00 460.00 L 526.00 440.00 L 527.00 438.00 L 537.00 454.00 L 543.00 459.00 L 545.00 453.00 L 543.00 442.00 L 537.00 426.00 L 540.00 415.00 L 552.00 409.00 L 567.00 397.00 L 585.00 379.00 L 599.00 363.00 L 609.00 349.00 L 635.00 331.00 L 677.00 309.00 L 708.00 295.00 L 728.00 289.00 L 749.00 286.00 L 771.00 286.00 L 794.00 282.00 L 818.00 274.00 L 840.00 269.00 L 860.00 267.00 L 871.00 267.00 L 873.00 269.00 L 895.00 269.00 L 937.00 267.00 L 978.00 271.00 L 1018.00 281.00 L 1054.00 292.00 L 1086.00 304.00 L 1113.00 317.00 L 1135.00 331.00 L 1154.00 345.00 L 1170.00 359.00 L 1184.00 374.00 L 1196.00 390.00 L 1209.00 415.00 L 1223.00 449.00 L 1231.00 496.00 L 1233.00 556.00 L 1231.00 602.00 L 1225.00 634.00 L 1205.00 695.00 L 1171.00 785.00 L 1151.00 849.00 L 1145.00 887.00 L 1139.00 912.00 L 1133.00 924.00 L 1127.00 931.00 L 1121.00 933.00 L 1121.00 939.00 L 1127.00 949.00 L 1132.00 965.00 L 1136.00 987.00 L 1138.00 1019.00 L 1138.00 1061.00 L 1136.00 1089.00 L 1132.00 1103.00 L 1135.00 1131.00 L 1145.00 1173.00 L 1150.00 1202.00 L 1150.00 1218.00 L 1155.00 1236.00 L 1165.00 1256.00 L 1181.00 1302.00 L 1203.00 1374.00 L 1215.00 1426.00 L 1217.00 1458.00 L 1216.00 1476.00 L 1212.00 1480.00 L 1172.00 1485.00 L 1096.00 1491.00 L 1044.00 1497.00 L 1016.00 1503.00 L 977.00 1514.00 L 927.00 1530.00 L 872.00 1553.00 L 812.00 1583.00 L 757.00 1614.00 L 707.00 1646.00 L 671.00 1670.00 L 649.00 1686.00 L 636.00 1700.00 L 632.00 1712.00 L 629.00 1715.00 L 627.00 1709.00 L 625.00 1709.00 L 623.00 1715.00 L 587.00 1742.00 L 517.00 1790.00 L 474.00 1817.00 L 458.00 1823.00 L 438.00 1824.00 L 414.00 1820.00 L 394.00 1809.00 L 378.00 1791.00 L 365.00 1769.00 L 355.00 1743.00 L 350.00 1711.00 L 350.00 1673.00 L 352.00 1644.00 L 356.00 1624.00 L 367.00 1586.00 L 385.00 1530.00 L 415.00 1461.00 L 457.00 1379.00 L 476.00 1340.00 L 472.00 1344.00 L 479.00 1333.00 L 497.00 1307.00 L 505.00 1295.00 L 503.00 1297.00 L 507.00 1283.00 L 517.00 1253.00 L 526.00 1233.00 L 534.00 1223.00 L 540.00 1213.00 L 544.00 1203.00 L 545.00 1190.00 L 543.00 1174.00 L 538.00 1159.00 L 530.00 1145.00 L 526.00 1135.00 L 526.00 1129.00 L 517.00 1112.00 L 499.00 1084.00 L 494.00 1065.00 L 502.00 1055.00 L 506.00 1048.00 L 506.00 1044.00 L 498.00 1035.00 L 482.00 1021.00 L 473.00 1012.00 L 471.00 1008.00 L 469.00 997.00 Z" fill="black" stroke="black" stroke-width="1"/>
</svg>