<?xml version="1.0" encoding="UTF-8"?>
<svg xmlns="http://www.w3.org/2000/svg" viewBox="345.00 219.00 806.00 1580.00">
  <path d="M 433.00 962.00 L 423.00 946.00 L 420.00 931.00 L 424.00 917.00 L 420.00 904.00 L 408.00 892.00 L 406.00 871.00 L 414.00 841.00 L 414.00 823.00 L 406.00 817.00 L 405.00 815.00 L 411.00 817.00 L 409.00 814.00 L 399.00 806.00 L 391.00 796.00 L 385.00 784.00 L 385.00 772.00 L 391.00 760.00 L 403.00 747.00 L 421.00 733.00 L 435.00 715.00 L 445.00 693.00 L 438.00 664.00 L 414.00 628.00 L 415.00 625.00 L 441.00 655.00 L 441.00 653.00 L 415.00 619.00 L 406.00 606.00 L 414.00 614.00 L 415.00 613.00 L 409.00 603.00 L 419.00 613.00 L 445.00 643.00 L 448.00 645.00 L 428.00 619.00 L 428.00 616.00 L 448.00 636.00 L 447.00 631.00 L 425.00 601.00 L 424.00 598.00 L 444.00 622.00 L 445.00 620.00 L 427.00 592.00 L 427.00 590.00 L 445.00 614.00 L 446.00 613.00 L 430.00 587.00 L 424.00 574.00 L 428.00 574.00 L 435.00 581.00 L 445.00 595.00 L 444.00 592.00 L 432.00 572.00 L 432.00 569.00 L 444.00 583.00 L 444.00 580.00 L 432.00 560.00 L 432.00 558.00 L 444.00 574.00 L 444.00 570.00 L 432.00 546.00 L 433.00 543.00 L 447.00 561.00 L 447.00 558.00 L 433.00 534.00 L 433.00 532.00 L 447.00 552.00 L 447.00 550.00 L 433.00 526.00 L 433.00 524.00 L 447.00 544.00 L 448.00 541.00 L 436.00 515.00 L 436.00 512.00 L 448.00 532.00 L 453.00 537.00 L 451.00 527.00 L 452.00 525.00 L 456.00 531.00 L 458.00 532.00 L 458.00 528.00 L 453.00 517.00 L 443.00 499.00 L 443.00 497.00 L 453.00 511.00 L 454.00 509.00 L 446.00 491.00 L 447.00 488.00 L 457.00 500.00 L 459.00 498.00 L 453.00 482.00 L 459.00 453.00 L 477.00 411.00 L 504.00 372.00 L 540.00 336.00 L 579.00 307.00 L 621.00 285.00 L 651.00 267.00 L 669.00 253.00 L 711.00 241.00 L 777.00 231.00 L 830.00 229.00 L 870.00 235.00 L 901.00 242.00 L 923.00 250.00 L 940.00 259.00 L 952.00 269.00 L 973.00 281.00 L 1003.00 295.00 L 1032.00 313.00 L 1060.00 335.00 L 1082.00 356.00 L 1098.00 376.00 L 1113.00 403.00 L 1127.00 437.00 L 1136.00 465.00 L 1140.00 487.00 L 1141.00 527.00 L 1139.00 585.00 L 1134.00 633.00 L 1126.00 671.00 L 1117.00 702.00 L 1107.00 726.00 L 1083.00 774.00 L 1045.00 846.00 L 1014.00 911.00 L 990.00 969.00 L 976.00 999.00 L 972.00 1001.00 L 975.00 1009.00 L 985.00 1023.00 L 993.00 1039.00 L 999.00 1057.00 L 1006.00 1094.00 L 1014.00 1150.00 L 1018.00 1191.00 L 1018.00 1217.00 L 1016.00 1235.00 L 1012.00 1245.00 L 1024.00 1308.00 L 1052.00 1424.00 L 1018.00 1495.00 L 922.00 1521.00 L 836.00 1551.00 L 760.00 1585.00 L 689.00 1621.00 L 623.00 1659.00 L 567.00 1697.00 L 521.00 1735.00 L 484.00 1762.00 L 456.00 1778.00 L 434.00 1787.00 L 418.00 1789.00 L 400.00 1782.00 L 380.00 1766.00 L 367.00 1750.00 L 361.00 1734.00 L 358.00 1718.00 L 358.00 1702.00 L 357.00 1695.00 L 355.00 1697.00 L 357.00 1679.00 L 363.00 1641.00 L 372.00 1603.00 L 384.00 1565.00 L 421.00 1489.00 L 483.00 1375.00 L 486.00 1367.00 L 430.00 1465.00 L 431.00 1462.00 L 489.00 1358.00 L 495.00 1345.00 L 449.00 1423.00 L 448.00 1421.00 L 492.00 1339.00 L 516.00 1287.00 L 520.00 1265.00 L 528.00 1244.00 L 540.00 1224.00 L 543.00 1218.00 L 537.00 1226.00 L 536.00 1221.00 L 540.00 1203.00 L 536.00 1185.00 L 524.00 1167.00 L 517.00 1152.00 L 515.00 1140.00 L 510.00 1130.00 L 502.00 1122.00 L 504.00 1110.00 L 516.00 1094.00 L 510.00 1084.00 L 486.00 1080.00 L 467.00 1072.00 L 453.00 1060.00 L 444.00 1049.00 L 440.00 1039.00 L 439.00 1021.00 L 441.00 995.00 L 441.00 979.00 L 439.00 973.00 L 433.00 962.00 Z" fill="black" stroke="black" stroke-width="1"/>
</svg>