<?xml version="1.0" encoding="UTF-8"?>
<svg xmlns="http://www.w3.org/2000/svg" viewBox="364.00 300.00 879.00 1411.00">
  <path d="M 455.00 1000.00 L 457.00 984.00 L 464.00 962.00 L 476.00 934.00 L 459.00 881.00 L 413.00 803.00 L 386.00 751.00 L 378.00 725.00 L 374.00 692.00 L 374.00 652.00 L 377.00 619.00 L 383.00 593.00 L 395.00 559.00 L 413.00 517.00 L 431.00 482.00 L 449.00 454.00 L 481.00 423.00 L 527.00 389.00 L 570.00 363.00 L 610.00 345.00 L 668.00 328.00 L 744.00 312.00 L 822.00 310.00 L 902.00 322.00 L 951.00 332.00 L 969.00 340.00 L 990.00 355.00 L 1014.00 377.00 L 1033.00 391.00 L 1047.00 397.00 L 1054.00 409.00 L 1054.00 427.00 L 1057.00 430.00 L 1063.00 418.00 L 1064.00 421.00 L 1060.00 439.00 L 1061.00 441.00 L 1067.00 427.00 L 1068.00 429.00 L 1064.00 447.00 L 1065.00 449.00 L 1071.00 435.00 L 1075.00 429.00 L 1077.00 431.00 L 1075.00 442.00 L 1069.00 462.00 L 1070.00 465.00 L 1078.00 451.00 L 1079.00 455.00 L 1073.00 477.00 L 1074.00 480.00 L 1082.00 464.00 L 1083.00 468.00 L 1077.00 492.00 L 1078.00 496.00 L 1086.00 480.00 L 1090.00 478.00 L 1090.00 490.00 L 1092.00 492.00 L 1096.00 484.00 L 1094.00 489.00 L 1086.00 507.00 L 1087.00 509.00 L 1097.00 495.00 L 1099.00 497.00 L 1093.00 515.00 L 1095.00 517.00 L 1105.00 503.00 L 1106.00 505.00 L 1098.00 523.00 L 1099.00 524.00 L 1109.00 508.00 L 1110.00 510.00 L 1102.00 530.00 L 1103.00 533.00 L 1113.00 519.00 L 1114.00 521.00 L 1106.00 539.00 L 1105.00 564.00 L 1111.00 596.00 L 1144.00 637.00 L 1204.00 687.00 L 1233.00 717.00 L 1231.00 727.00 L 1217.00 744.00 L 1191.00 768.00 L 1189.00 772.00 L 1211.00 756.00 L 1210.00 759.00 L 1186.00 781.00 L 1177.00 806.00 L 1183.00 834.00 L 1181.00 855.00 L 1171.00 869.00 L 1170.00 883.00 L 1178.00 897.00 L 1173.00 916.00 L 1155.00 940.00 L 1143.00 965.00 L 1137.00 991.00 L 1128.00 1014.00 L 1116.00 1034.00 L 1098.00 1051.00 L 1074.00 1065.00 L 1067.00 1074.00 L 1077.00 1078.00 L 1084.00 1084.00 L 1088.00 1092.00 L 1085.00 1106.00 L 1075.00 1126.00 L 1082.00 1144.00 L 1106.00 1160.00 L 1106.00 1162.00 L 1082.00 1150.00 L 1084.00 1153.00 L 1112.00 1171.00 L 1111.00 1172.00 L 1081.00 1156.00 L 1081.00 1159.00 L 1111.00 1181.00 L 1115.00 1186.00 L 1093.00 1174.00 L 1092.00 1176.00 L 1112.00 1192.00 L 1107.00 1191.00 L 1077.00 1173.00 L 1075.00 1175.00 L 1101.00 1197.00 L 1102.00 1200.00 L 1078.00 1184.00 L 1086.00 1192.00 L 1126.00 1224.00 L 1136.00 1233.00 L 1116.00 1219.00 L 1120.00 1225.00 L 1148.00 1251.00 L 1145.00 1251.00 L 1111.00 1225.00 L 1112.00 1227.00 L 1148.00 1257.00 L 1147.00 1257.00 L 1109.00 1227.00 L 1110.00 1230.00 L 1150.00 1266.00 L 1150.00 1268.00 L 1110.00 1236.00 L 1111.00 1239.00 L 1153.00 1277.00 L 1150.00 1276.00 L 1102.00 1236.00 L 1103.00 1239.00 L 1153.00 1285.00 L 1180.00 1312.00 L 1184.00 1320.00 L 1157.00 1298.00 L 1099.00 1246.00 L 1101.00 1249.00 L 1163.00 1307.00 L 1169.00 1314.00 L 1119.00 1270.00 L 1117.00 1272.00 L 1163.00 1320.00 L 1160.00 1319.00 L 1108.00 1269.00 L 1105.00 1268.00 L 1151.00 1316.00 L 1151.00 1318.00 L 1105.00 1274.00 L 1102.00 1273.00 L 1142.00 1315.00 L 1140.00 1314.00 L 1096.00 1270.00 L 1095.00 1270.00 L 1137.00 1314.00 L 1144.00 1325.00 L 1116.00 1303.00 L 1106.00 1300.00 L 1114.00 1316.00 L 1116.00 1322.00 L 1112.00 1318.00 L 1116.00 1323.00 L 1128.00 1337.00 L 1125.00 1335.00 L 1107.00 1317.00 L 1109.00 1321.00 L 1131.00 1347.00 L 1130.00 1346.00 L 1106.00 1318.00 L 1105.00 1317.00 L 1127.00 1343.00 L 1141.00 1370.00 L 1147.00 1398.00 L 1156.00 1422.00 L 1168.00 1442.00 L 1168.00 1444.00 L 1156.00 1428.00 L 1159.00 1433.00 L 1177.00 1459.00 L 1197.00 1498.00 L 1219.00 1550.00 L 1231.00 1588.00 L 1233.00 1612.00 L 1227.00 1641.00 L 1213.00 1675.00 L 1202.00 1695.00 L 1194.00 1701.00 L 1177.00 1701.00 L 1151.00 1695.00 L 1077.00 1662.00 L 955.00 1602.00 L 848.00 1555.00 L 756.00 1521.00 L 667.00 1493.00 L 581.00 1471.00 L 517.00 1456.00 L 475.00 1448.00 L 434.00 1443.00 L 394.00 1441.00 L 382.00 1396.00 L 398.00 1308.00 L 412.00 1248.00 L 424.00 1216.00 L 437.00 1188.00 L 451.00 1164.00 L 457.00 1119.00 L 455.00 1053.00 L 454.00 1017.00 L 454.00 1011.00 L 455.00 1000.00 Z" fill="black" stroke="black" stroke-width="1"/>
</svg>