<?xml version="1.0" encoding="UTF-8"?>
<svg xmlns="http://www.w3.org/2000/svg" viewBox="540.00 245.00 856.00 1558.00">
  <path d="M 598.00 995.00 L 598.00 965.00 L 595.00 944.00 L 589.00 932.00 L 581.00 922.00 L 571.00 914.00 L 565.00 896.00 L 563.00 868.00 L 565.00 845.00 L 571.00 827.00 L 568.00 807.00 L 556.00 785.00 L 550.00 768.00 L 550.00 756.00 L 568.00 727.00 L 604.00 681.00 L 623.00 653.00 L 625.00 643.00 L 621.00 613.00 L 611.00 563.00 L 611.00 546.00 L 621.00 562.00 L 622.00 563.00 L 614.00 549.00 L 614.00 546.00 L 622.00 554.00 L 622.00 551.00 L 614.00 537.00 L 613.00 532.00 L 619.00 536.00 L 620.00 532.00 L 616.00 520.00 L 617.00 518.00 L 623.00 526.00 L 624.00 523.00 L 620.00 509.00 L 621.00 507.00 L 627.00 517.00 L 627.00 515.00 L 621.00 501.00 L 622.00 500.00 L 630.00 512.00 L 631.00 507.00 L 625.00 485.00 L 630.00 462.00 L 646.00 438.00 L 670.00 409.00 L 702.00 375.00 L 737.00 346.00 L 775.00 322.00 L 808.00 304.00 L 836.00 292.00 L 878.00 279.00 L 934.00 265.00 L 987.00 257.00 L 1037.00 255.00 L 1098.00 259.00 L 1170.00 269.00 L 1219.00 280.00 L 1245.00 292.00 L 1273.00 312.00 L 1303.00 340.00 L 1330.00 380.00 L 1354.00 432.00 L 1371.00 480.00 L 1381.00 524.00 L 1386.00 571.00 L 1386.00 621.00 L 1382.00 667.00 L 1374.00 709.00 L 1354.00 763.00 L 1322.00 829.00 L 1277.00 895.00 L 1219.00 961.00 L 1184.00 995.00 L 1172.00 997.00 L 1170.00 998.00 L 1178.00 998.00 L 1179.00 1000.00 L 1173.00 1004.00 L 1171.00 1031.00 L 1173.00 1081.00 L 1172.00 1128.00 L 1168.00 1172.00 L 1177.00 1223.00 L 1199.00 1281.00 L 1218.00 1321.00 L 1234.00 1343.00 L 1252.00 1378.00 L 1272.00 1426.00 L 1250.00 1457.00 L 1186.00 1471.00 L 1153.00 1480.00 L 1151.00 1484.00 L 1139.00 1489.00 L 1117.00 1495.00 L 1105.00 1500.00 L 1103.00 1504.00 L 1073.00 1519.00 L 1015.00 1545.00 L 951.00 1580.00 L 881.00 1624.00 L 811.00 1675.00 L 741.00 1733.00 L 691.00 1770.00 L 661.00 1786.00 L 635.00 1793.00 L 613.00 1791.00 L 597.00 1786.00 L 587.00 1778.00 L 574.00 1755.00 L 558.00 1717.00 L 550.00 1683.00 L 550.00 1653.00 L 555.00 1617.00 L 565.00 1575.00 L 569.00 1555.00 L 567.00 1557.00 L 577.00 1530.00 L 599.00 1474.00 L 609.00 1447.00 L 607.00 1449.00 L 624.00 1416.00 L 660.00 1348.00 L 680.00 1306.00 L 684.00 1290.00 L 677.00 1292.00 L 659.00 1312.00 L 660.00 1310.00 L 680.00 1286.00 L 676.00 1290.00 L 648.00 1322.00 L 649.00 1319.00 L 679.00 1281.00 L 675.00 1283.00 L 637.00 1325.00 L 638.00 1323.00 L 678.00 1277.00 L 676.00 1278.00 L 632.00 1326.00 L 632.00 1324.00 L 676.00 1272.00 L 671.00 1273.00 L 617.00 1327.00 L 596.00 1345.00 L 608.00 1327.00 L 607.00 1325.00 L 593.00 1339.00 L 595.00 1336.00 L 613.00 1316.00 L 621.00 1307.00 L 619.00 1309.00 L 622.00 1298.00 L 630.00 1274.00 L 647.00 1249.00 L 673.00 1223.00 L 676.00 1218.00 L 656.00 1234.00 L 654.00 1233.00 L 670.00 1215.00 L 674.00 1204.00 L 666.00 1200.00 L 661.00 1194.00 L 659.00 1186.00 L 667.00 1176.00 L 685.00 1164.00 L 685.00 1162.00 L 667.00 1170.00 L 668.00 1167.00 L 688.00 1153.00 L 690.00 1150.00 L 674.00 1158.00 L 672.00 1155.00 L 684.00 1141.00 L 686.00 1122.00 L 678.00 1098.00 L 679.00 1082.00 L 689.00 1074.00 L 694.00 1068.00 L 694.00 1064.00 L 679.00 1058.00 L 649.00 1050.00 L 628.00 1040.00 L 616.00 1028.00 L 607.00 1019.00 L 601.00 1013.00 L 598.00 995.00 Z" fill="black" stroke="black" stroke-width="1"/>
</svg>