<?xml version="1.0" encoding="UTF-8"?>
<svg xmlns="http://www.w3.org/2000/svg" viewBox="277.00 221.00 910.00 1505.00">
  <path d="M 371.00 915.00 L 381.00 821.00 L 377.00 737.00 L 359.00 663.00 L 350.00 595.00 L 350.00 533.00 L 353.00 483.00 L 359.00 445.00 L 367.00 416.00 L 377.00 396.00 L 400.00 365.00 L 436.00 323.00 L 472.00 290.00 L 508.00 266.00 L 549.00 249.00 L 595.00 239.00 L 645.00 233.00 L 699.00 231.00 L 751.00 234.00 L 801.00 242.00 L 842.00 252.00 L 874.00 264.00 L 906.00 280.00 L 938.00 300.00 L 955.00 317.00 L 957.00 331.00 L 961.00 335.00 L 967.00 329.00 L 969.00 331.00 L 967.00 341.00 L 969.00 342.00 L 975.00 334.00 L 977.00 336.00 L 975.00 348.00 L 977.00 350.00 L 983.00 342.00 L 984.00 344.00 L 980.00 356.00 L 981.00 358.00 L 987.00 350.00 L 990.00 356.00 L 990.00 376.00 L 1004.00 415.00 L 1032.00 473.00 L 1044.00 514.00 L 1040.00 538.00 L 1055.00 573.00 L 1089.00 619.00 L 1095.00 655.00 L 1073.00 681.00 L 1075.00 683.00 L 1101.00 661.00 L 1101.00 664.00 L 1075.00 692.00 L 1076.00 695.00 L 1104.00 673.00 L 1105.00 676.00 L 1079.00 704.00 L 1069.00 729.00 L 1075.00 751.00 L 1068.00 782.00 L 1048.00 822.00 L 1040.00 848.00 L 1044.00 860.00 L 1044.00 876.00 L 1040.00 896.00 L 1016.00 929.00 L 972.00 975.00 L 951.00 1000.00 L 953.00 1004.00 L 951.00 1006.00 L 945.00 1006.00 L 947.00 1010.00 L 957.00 1018.00 L 958.00 1030.00 L 950.00 1046.00 L 955.00 1062.00 L 973.00 1078.00 L 971.00 1081.00 L 949.00 1071.00 L 939.00 1069.00 L 941.00 1075.00 L 950.00 1083.00 L 966.00 1093.00 L 969.00 1098.00 L 959.00 1098.00 L 962.00 1105.00 L 978.00 1119.00 L 976.00 1120.00 L 956.00 1108.00 L 958.00 1110.00 L 982.00 1126.00 L 983.00 1128.00 L 961.00 1116.00 L 972.00 1126.00 L 1016.00 1158.00 L 1013.00 1158.00 L 963.00 1126.00 L 962.00 1130.00 L 1010.00 1170.00 L 1013.00 1174.00 L 971.00 1142.00 L 968.00 1142.00 L 1004.00 1174.00 L 1001.00 1174.00 L 959.00 1142.00 L 957.00 1142.00 L 995.00 1174.00 L 994.00 1176.00 L 954.00 1148.00 L 948.00 1148.00 L 976.00 1176.00 L 1002.00 1210.00 L 1026.00 1250.00 L 1031.00 1263.00 L 1017.00 1249.00 L 1025.00 1260.00 L 1055.00 1296.00 L 1091.00 1353.00 L 1133.00 1431.00 L 1160.00 1498.00 L 1172.00 1554.00 L 1177.00 1593.00 L 1175.00 1615.00 L 1169.00 1637.00 L 1159.00 1659.00 L 1138.00 1682.00 L 1106.00 1706.00 L 1074.00 1716.00 L 1042.00 1712.00 L 965.00 1660.00 L 843.00 1560.00 L 758.00 1494.00 L 710.00 1462.00 L 637.00 1424.00 L 539.00 1380.00 L 449.00 1348.00 L 367.00 1328.00 L 330.00 1297.00 L 338.00 1255.00 L 338.00 1235.00 L 330.00 1237.00 L 322.00 1233.00 L 314.00 1223.00 L 315.00 1204.00 L 325.00 1176.00 L 321.00 1164.00 L 303.00 1168.00 L 303.00 1166.00 L 321.00 1158.00 L 319.00 1156.00 L 297.00 1160.00 L 298.00 1157.00 L 322.00 1147.00 L 329.00 1144.00 L 319.00 1148.00 L 320.00 1145.00 L 332.00 1135.00 L 332.00 1132.00 L 320.00 1136.00 L 321.00 1135.00 L 335.00 1129.00 L 326.00 1132.00 L 294.00 1144.00 L 287.00 1145.00 L 305.00 1135.00 L 308.00 1131.00 L 296.00 1133.00 L 304.00 1129.00 L 332.00 1119.00 L 333.00 1116.00 L 307.00 1120.00 L 306.00 1118.00 L 330.00 1110.00 L 331.00 1108.00 L 309.00 1112.00 L 305.00 1107.00 L 319.00 1093.00 L 318.00 1087.00 L 302.00 1089.00 L 308.00 1085.00 L 336.00 1075.00 L 335.00 1073.00 L 305.00 1079.00 L 306.00 1077.00 L 338.00 1067.00 L 339.00 1065.00 L 309.00 1071.00 L 307.00 1071.00 L 333.00 1065.00 L 335.00 1062.00 L 313.00 1062.00 L 315.00 1059.00 L 341.00 1053.00 L 344.00 1051.00 L 324.00 1053.00 L 323.00 1050.00 L 341.00 1042.00 L 349.00 1031.00 L 347.00 1017.00 L 351.00 1008.00 L 361.00 1004.00 L 363.00 1001.00 L 357.00 999.00 L 357.00 992.00 L 363.00 980.00 L 366.00 971.00 L 366.00 965.00 L 371.00 915.00 Z" fill="black" stroke="black" stroke-width="1"/>
</svg>