<?xml version="1.0" encoding="UTF-8"?>
<svg xmlns="http://www.w3.org/2000/svg" viewBox="269.00 261.00 877.00 1546.00">
  <path d="M 410.00 985.00 L 410.00 959.00 L 406.00 934.00 L 398.00 910.00 L 395.00 891.00 L 397.00 877.00 L 396.00 867.00 L 392.00 861.00 L 390.00 851.00 L 390.00 837.00 L 377.00 820.00 L 351.00 800.00 L 351.00 798.00 L 377.00 814.00 L 376.00 813.00 L 348.00 795.00 L 339.00 789.00 L 349.00 795.00 L 347.00 792.00 L 333.00 780.00 L 341.00 783.00 L 371.00 801.00 L 370.00 799.00 L 338.00 777.00 L 335.00 774.00 L 361.00 790.00 L 362.00 789.00 L 338.00 771.00 L 340.00 771.00 L 368.00 789.00 L 368.00 787.00 L 340.00 765.00 L 344.00 725.00 L 380.00 667.00 L 399.00 639.00 L 401.00 641.00 L 402.00 633.00 L 402.00 615.00 L 398.00 595.00 L 390.00 573.00 L 387.00 563.00 L 389.00 565.00 L 389.00 556.00 L 387.00 536.00 L 393.00 511.00 L 407.00 481.00 L 416.00 458.00 L 420.00 442.00 L 428.00 425.00 L 440.00 407.00 L 461.00 383.00 L 491.00 353.00 L 512.00 334.00 L 524.00 326.00 L 546.00 314.00 L 578.00 298.00 L 607.00 286.00 L 633.00 278.00 L 702.00 273.00 L 814.00 271.00 L 889.00 274.00 L 927.00 282.00 L 952.00 288.00 L 964.00 292.00 L 978.00 299.00 L 994.00 309.00 L 1011.00 323.00 L 1029.00 341.00 L 1049.00 365.00 L 1071.00 395.00 L 1088.00 427.00 L 1100.00 461.00 L 1108.00 489.00 L 1112.00 511.00 L 1113.00 524.00 L 1111.00 528.00 L 1111.00 532.00 L 1113.00 536.00 L 1113.00 551.00 L 1111.00 577.00 L 1107.00 604.00 L 1101.00 632.00 L 1091.00 660.00 L 1077.00 688.00 L 1061.00 715.00 L 1043.00 741.00 L 1031.00 762.00 L 1025.00 778.00 L 1016.00 791.00 L 1004.00 801.00 L 1003.00 803.00 L 1013.00 797.00 L 1015.00 799.00 L 1009.00 809.00 L 1012.00 820.00 L 1024.00 832.00 L 1035.00 851.00 L 1045.00 877.00 L 1055.00 923.00 L 1065.00 989.00 L 1070.00 1033.00 L 1070.00 1055.00 L 1067.00 1072.00 L 1061.00 1084.00 L 1058.00 1094.00 L 1058.00 1102.00 L 1062.00 1112.00 L 1070.00 1124.00 L 1074.00 1135.00 L 1074.00 1145.00 L 1082.00 1168.00 L 1098.00 1204.00 L 1114.00 1252.00 L 1130.00 1312.00 L 1136.00 1344.00 L 1132.00 1348.00 L 1106.00 1356.00 L 1058.00 1368.00 L 1013.00 1381.00 L 971.00 1395.00 L 917.00 1418.00 L 851.00 1450.00 L 813.00 1470.00 L 803.00 1478.00 L 778.00 1493.00 L 738.00 1515.00 L 699.00 1541.00 L 661.00 1571.00 L 619.00 1608.00 L 573.00 1652.00 L 546.00 1681.00 L 538.00 1695.00 L 516.00 1718.00 L 480.00 1750.00 L 450.00 1773.00 L 426.00 1787.00 L 401.00 1795.00 L 375.00 1797.00 L 353.00 1793.00 L 335.00 1783.00 L 318.00 1765.00 L 302.00 1739.00 L 290.00 1710.00 L 282.00 1678.00 L 279.00 1643.00 L 281.00 1605.00 L 285.00 1569.00 L 291.00 1535.00 L 301.00 1497.00 L 315.00 1455.00 L 331.00 1415.00 L 349.00 1377.00 L 368.00 1342.00 L 388.00 1310.00 L 403.00 1280.00 L 413.00 1252.00 L 431.00 1226.00 L 457.00 1202.00 L 460.00 1198.00 L 440.00 1214.00 L 438.00 1215.00 L 454.00 1201.00 L 458.00 1197.00 L 450.00 1203.00 L 451.00 1200.00 L 461.00 1188.00 L 465.00 1178.00 L 463.00 1170.00 L 463.00 1163.00 L 465.00 1157.00 L 464.00 1151.00 L 460.00 1145.00 L 458.00 1137.00 L 458.00 1127.00 L 455.00 1116.00 L 449.00 1104.00 L 447.00 1095.00 L 449.00 1089.00 L 458.00 1082.00 L 474.00 1074.00 L 476.00 1071.00 L 464.00 1073.00 L 462.00 1072.00 L 470.00 1068.00 L 466.00 1062.00 L 450.00 1054.00 L 437.00 1045.00 L 427.00 1035.00 L 420.00 1025.00 L 416.00 1015.00 L 413.00 1007.00 L 411.00 1001.00 L 410.00 985.00 Z" fill="black" stroke="black" stroke-width="1"/>
</svg>