<?xml version="1.0" encoding="UTF-8"?>
<svg xmlns="http://www.w3.org/2000/svg" viewBox="381.00 201.00 923.00 1619.00">
  <path d="M 512.00 990.00 L 516.00 974.00 L 525.00 960.00 L 539.00 948.00 L 538.00 938.00 L 522.00 930.00 L 495.00 904.00 L 457.00 860.00 L 427.00 807.00 L 405.00 745.00 L 393.00 686.00 L 391.00 630.00 L 394.00 592.00 L 402.00 572.00 L 406.00 551.00 L 406.00 529.00 L 413.00 495.00 L 427.00 449.00 L 445.00 410.00 L 467.00 378.00 L 512.00 337.00 L 580.00 287.00 L 627.00 261.00 L 653.00 259.00 L 677.00 251.00 L 699.00 237.00 L 735.00 224.00 L 785.00 212.00 L 843.00 211.00 L 909.00 221.00 L 983.00 254.00 L 1065.00 310.00 L 1115.00 351.00 L 1133.00 377.00 L 1140.00 398.00 L 1136.00 414.00 L 1138.00 416.00 L 1146.00 404.00 L 1146.00 407.00 L 1138.00 425.00 L 1140.00 427.00 L 1152.00 413.00 L 1154.00 415.00 L 1146.00 433.00 L 1147.00 434.00 L 1157.00 418.00 L 1158.00 421.00 L 1150.00 443.00 L 1152.00 445.00 L 1164.00 427.00 L 1166.00 429.00 L 1158.00 451.00 L 1160.00 454.00 L 1172.00 438.00 L 1173.00 440.00 L 1163.00 460.00 L 1164.00 462.00 L 1176.00 446.00 L 1178.00 447.00 L 1170.00 465.00 L 1166.00 476.00 L 1166.00 480.00 L 1171.00 475.00 L 1181.00 461.00 L 1181.00 463.00 L 1171.00 481.00 L 1171.00 483.00 L 1181.00 469.00 L 1182.00 472.00 L 1174.00 492.00 L 1174.00 496.00 L 1182.00 484.00 L 1184.00 490.00 L 1180.00 514.00 L 1182.00 520.00 L 1190.00 508.00 L 1190.00 511.00 L 1182.00 529.00 L 1185.00 532.00 L 1199.00 520.00 L 1200.00 523.00 L 1188.00 541.00 L 1183.00 553.00 L 1185.00 559.00 L 1193.00 553.00 L 1207.00 535.00 L 1208.00 538.00 L 1196.00 562.00 L 1195.00 590.00 L 1205.00 622.00 L 1207.00 651.00 L 1201.00 677.00 L 1222.00 720.00 L 1270.00 780.00 L 1294.00 813.00 L 1294.00 819.00 L 1285.00 828.00 L 1267.00 840.00 L 1264.00 844.00 L 1276.00 840.00 L 1269.00 845.00 L 1243.00 859.00 L 1229.00 887.00 L 1227.00 929.00 L 1223.00 953.00 L 1217.00 959.00 L 1218.00 969.00 L 1226.00 983.00 L 1223.00 996.00 L 1209.00 1008.00 L 1199.00 1038.00 L 1193.00 1086.00 L 1184.00 1118.00 L 1172.00 1134.00 L 1149.00 1149.00 L 1115.00 1163.00 L 1107.00 1179.00 L 1125.00 1197.00 L 1128.00 1214.00 L 1116.00 1230.00 L 1103.00 1239.00 L 1089.00 1241.00 L 1084.00 1250.00 L 1088.00 1266.00 L 1085.00 1268.00 L 1075.00 1256.00 L 1075.00 1260.00 L 1085.00 1280.00 L 1083.00 1282.00 L 1069.00 1266.00 L 1067.00 1269.00 L 1077.00 1291.00 L 1077.00 1302.00 L 1067.00 1302.00 L 1065.00 1310.00 L 1071.00 1326.00 L 1069.00 1327.00 L 1059.00 1313.00 L 1060.00 1317.00 L 1072.00 1339.00 L 1071.00 1339.00 L 1057.00 1317.00 L 1065.00 1331.00 L 1095.00 1381.00 L 1093.00 1381.00 L 1059.00 1331.00 L 1057.00 1334.00 L 1087.00 1390.00 L 1085.00 1391.00 L 1051.00 1337.00 L 1048.00 1336.00 L 1076.00 1388.00 L 1088.00 1411.00 L 1084.00 1405.00 L 1069.00 1378.00 L 1043.00 1330.00 L 1063.00 1378.00 L 1129.00 1522.00 L 1132.00 1534.00 L 1072.00 1414.00 L 1075.00 1424.00 L 1141.00 1564.00 L 1139.00 1562.00 L 1069.00 1418.00 L 1072.00 1427.00 L 1148.00 1589.00 L 1146.00 1587.00 L 1066.00 1421.00 L 1067.00 1425.00 L 1149.00 1599.00 L 1191.00 1689.00 L 1193.00 1695.00 L 1169.00 1646.00 L 1119.00 1542.00 L 1120.00 1550.00 L 1172.00 1670.00 L 1152.00 1629.00 L 1060.00 1427.00 L 1061.00 1430.00 L 1155.00 1638.00 L 1172.00 1677.00 L 1112.00 1547.00 L 1112.00 1551.00 L 1172.00 1689.00 L 1170.00 1687.00 L 1106.00 1545.00 L 1106.00 1548.00 L 1170.00 1696.00 L 1153.00 1658.00 L 1055.00 1434.00 L 1053.00 1438.00 L 1147.00 1670.00 L 1146.00 1672.00 L 1050.00 1444.00 L 1048.00 1447.00 L 1140.00 1681.00 L 1141.00 1686.00 L 1051.00 1462.00 L 1049.00 1463.00 L 1135.00 1689.00 L 1135.00 1694.00 L 1049.00 1478.00 L 1046.00 1479.00 L 1126.00 1697.00 L 1127.00 1702.00 L 1049.00 1494.00 L 1047.00 1495.00 L 1121.00 1705.00 L 1155.00 1810.00 L 1149.00 1810.00 L 1109.00 1703.00 L 1035.00 1489.00 L 1032.00 1488.00 L 1100.00 1700.00 L 1088.00 1770.00 L 996.00 1698.00 L 913.00 1644.00 L 839.00 1608.00 L 759.00 1579.00 L 673.00 1557.00 L 582.00 1544.00 L 486.00 1540.00 L 436.00 1518.00 L 432.00 1478.00 L 442.00 1414.00 L 466.00 1326.00 L 480.00 1269.00 L 484.00 1243.00 L 482.00 1215.00 L 474.00 1185.00 L 476.00 1153.00 L 488.00 1119.00 L 497.00 1079.00 L 503.00 1033.00 L 507.00 1007.00 L 509.00 1001.00 L 512.00 990.00 Z" fill="black" stroke="black" stroke-width="1"/>
</svg>