<?xml version="1.0" encoding="UTF-8"?>
<svg xmlns="http://www.w3.org/2000/svg" viewBox="329.00 317.00 845.00 1388.00">
  <path d="M 521.00 933.00 L 463.00 931.00 L 454.00 930.00 L 494.00 930.00 L 491.00 929.00 L 445.00 927.00 L 447.00 926.00 L 497.00 926.00 L 493.00 924.00 L 435.00 920.00 L 440.00 919.00 L 508.00 921.00 L 500.00 916.00 L 416.00 904.00 L 365.00 872.00 L 347.00 820.00 L 339.00 766.00 L 341.00 710.00 L 351.00 651.00 L 369.00 589.00 L 391.00 532.00 L 417.00 480.00 L 447.00 436.00 L 481.00 400.00 L 523.00 369.00 L 573.00 343.00 L 626.00 329.00 L 682.00 327.00 L 744.00 347.00 L 812.00 389.00 L 852.00 410.00 L 864.00 410.00 L 873.00 403.00 L 879.00 389.00 L 882.00 391.00 L 882.00 409.00 L 885.00 409.00 L 891.00 391.00 L 894.00 393.00 L 894.00 415.00 L 897.00 416.00 L 903.00 396.00 L 905.00 397.00 L 903.00 419.00 L 905.00 421.00 L 911.00 403.00 L 916.00 404.00 L 920.00 424.00 L 924.00 424.00 L 928.00 404.00 L 930.00 403.00 L 930.00 421.00 L 935.00 419.00 L 945.00 397.00 L 947.00 403.00 L 941.00 437.00 L 942.00 439.00 L 950.00 409.00 L 952.00 410.00 L 948.00 442.00 L 949.00 447.00 L 955.00 425.00 L 958.00 426.00 L 958.00 450.00 L 975.00 470.00 L 1009.00 486.00 L 1041.00 497.00 L 1071.00 503.00 L 1096.00 500.00 L 1116.00 488.00 L 1127.00 491.00 L 1129.00 509.00 L 1133.00 516.00 L 1139.00 512.00 L 1124.00 536.00 L 1088.00 588.00 L 1089.00 594.00 L 1127.00 554.00 L 1129.00 559.00 L 1095.00 609.00 L 1092.00 618.00 L 1120.00 586.00 L 1121.00 589.00 L 1095.00 627.00 L 1087.00 642.00 L 1097.00 634.00 L 1097.00 637.00 L 1087.00 651.00 L 1088.00 653.00 L 1100.00 643.00 L 1101.00 646.00 L 1091.00 662.00 L 1091.00 667.00 L 1101.00 661.00 L 1101.00 664.00 L 1091.00 676.00 L 1091.00 678.00 L 1101.00 670.00 L 1101.00 672.00 L 1091.00 684.00 L 1092.00 688.00 L 1104.00 684.00 L 1105.00 689.00 L 1095.00 703.00 L 1097.00 706.00 L 1111.00 698.00 L 1113.00 702.00 L 1103.00 718.00 L 1118.00 755.00 L 1158.00 813.00 L 1164.00 853.00 L 1136.00 875.00 L 1122.00 908.00 L 1122.00 952.00 L 1114.00 999.00 L 1098.00 1049.00 L 1059.00 1078.00 L 997.00 1086.00 L 958.00 1097.00 L 942.00 1111.00 L 988.00 1209.00 L 1096.00 1391.00 L 1142.00 1470.00 L 1126.00 1446.00 L 1128.00 1452.00 L 1148.00 1488.00 L 1142.00 1481.00 L 1110.00 1431.00 L 1111.00 1435.00 L 1145.00 1493.00 L 1143.00 1491.00 L 1105.00 1429.00 L 1105.00 1431.00 L 1143.00 1497.00 L 1141.00 1495.00 L 1099.00 1425.00 L 1099.00 1427.00 L 1141.00 1501.00 L 1104.00 1436.00 L 988.00 1232.00 L 988.00 1234.00 L 1104.00 1442.00 L 1138.00 1504.00 L 1090.00 1420.00 L 1090.00 1424.00 L 1138.00 1516.00 L 1136.00 1515.00 L 1084.00 1421.00 L 1084.00 1424.00 L 1136.00 1524.00 L 1128.00 1512.00 L 1060.00 1388.00 L 1059.00 1391.00 L 1125.00 1521.00 L 1100.00 1475.00 L 984.00 1253.00 L 983.00 1259.00 L 1097.00 1493.00 L 1097.00 1495.00 L 983.00 1265.00 L 982.00 1267.00 L 1094.00 1501.00 L 1104.00 1526.00 L 1012.00 1342.00 L 1010.00 1345.00 L 1098.00 1535.00 L 1087.00 1512.00 L 977.00 1276.00 L 974.00 1279.00 L 1078.00 1521.00 L 1078.00 1525.00 L 974.00 1291.00 L 971.00 1293.00 L 1069.00 1531.00 L 1069.00 1533.00 L 971.00 1299.00 L 967.00 1303.00 L 1057.00 1545.00 L 1056.00 1548.00 L 964.00 1312.00 L 961.00 1314.00 L 1047.00 1554.00 L 1079.00 1681.00 L 1057.00 1695.00 L 997.00 1663.00 L 899.00 1585.00 L 811.00 1523.00 L 733.00 1477.00 L 640.00 1437.00 L 532.00 1403.00 L 511.00 1302.00 L 577.00 1134.00 L 598.00 1046.00 L 574.00 1038.00 L 560.00 1027.00 L 556.00 1013.00 L 566.00 998.00 L 590.00 982.00 L 591.00 976.00 L 569.00 980.00 L 571.00 978.00 L 597.00 970.00 L 597.00 960.00 L 571.00 948.00 L 556.00 940.00 L 552.00 936.00 L 521.00 933.00 Z" fill="black" stroke="black" stroke-width="1"/>
</svg>