<?xml version="1.0" encoding="UTF-8"?>
<svg xmlns="http://www.w3.org/2000/svg" viewBox="393.00 259.00 852.00 1452.00">
  <path d="M 515.00 961.00 L 517.00 955.00 L 524.00 948.00 L 536.00 940.00 L 543.00 932.00 L 545.00 924.00 L 541.00 916.00 L 531.00 908.00 L 519.00 888.00 L 505.00 856.00 L 481.00 813.00 L 447.00 759.00 L 426.00 722.00 L 418.00 702.00 L 411.00 673.00 L 405.00 635.00 L 403.00 588.00 L 405.00 532.00 L 411.00 488.00 L 421.00 456.00 L 433.00 428.00 L 447.00 404.00 L 479.00 372.00 L 529.00 332.00 L 566.00 309.00 L 590.00 303.00 L 611.00 295.00 L 629.00 285.00 L 661.00 277.00 L 707.00 271.00 L 744.00 269.00 L 772.00 271.00 L 793.00 275.00 L 807.00 281.00 L 834.00 287.00 L 874.00 293.00 L 913.00 309.00 L 951.00 335.00 L 978.00 351.00 L 994.00 357.00 L 1000.00 369.00 L 996.00 387.00 L 998.00 389.00 L 1006.00 375.00 L 1009.00 379.00 L 1007.00 401.00 L 1009.00 402.00 L 1015.00 382.00 L 1018.00 385.00 L 1018.00 411.00 L 1022.00 415.00 L 1030.00 397.00 L 1031.00 398.00 L 1025.00 418.00 L 1026.00 420.00 L 1034.00 404.00 L 1036.00 407.00 L 1032.00 429.00 L 1034.00 431.00 L 1042.00 413.00 L 1043.00 416.00 L 1037.00 440.00 L 1038.00 442.00 L 1046.00 422.00 L 1048.00 420.00 L 1044.00 436.00 L 1045.00 438.00 L 1051.00 426.00 L 1051.00 431.00 L 1045.00 453.00 L 1046.00 456.00 L 1054.00 440.00 L 1055.00 442.00 L 1049.00 462.00 L 1050.00 465.00 L 1058.00 451.00 L 1059.00 453.00 L 1053.00 471.00 L 1054.00 473.00 L 1062.00 459.00 L 1064.00 462.00 L 1060.00 482.00 L 1062.00 484.00 L 1070.00 468.00 L 1075.00 461.00 L 1077.00 463.00 L 1074.00 473.00 L 1066.00 491.00 L 1065.00 494.00 L 1071.00 482.00 L 1076.00 477.00 L 1080.00 479.00 L 1079.00 487.00 L 1073.00 501.00 L 1075.00 499.00 L 1085.00 481.00 L 1086.00 483.00 L 1078.00 505.00 L 1079.00 506.00 L 1089.00 486.00 L 1090.00 487.00 L 1082.00 509.00 L 1084.00 538.00 L 1096.00 574.00 L 1128.00 621.00 L 1180.00 679.00 L 1205.00 713.00 L 1203.00 723.00 L 1189.00 738.00 L 1163.00 758.00 L 1162.00 760.00 L 1186.00 744.00 L 1185.00 747.00 L 1159.00 769.00 L 1148.00 789.00 L 1152.00 807.00 L 1149.00 821.00 L 1139.00 831.00 L 1136.00 839.00 L 1140.00 845.00 L 1140.00 862.00 L 1136.00 890.00 L 1139.00 912.00 L 1149.00 928.00 L 1153.00 945.00 L 1151.00 963.00 L 1141.00 981.00 L 1123.00 999.00 L 1102.00 1014.00 L 1078.00 1026.00 L 1075.00 1037.00 L 1093.00 1047.00 L 1095.00 1063.00 L 1081.00 1085.00 L 1084.00 1105.00 L 1104.00 1123.00 L 1104.00 1126.00 L 1084.00 1114.00 L 1086.00 1116.00 L 1110.00 1132.00 L 1115.00 1136.00 L 1101.00 1128.00 L 1101.00 1130.00 L 1115.00 1142.00 L 1109.00 1140.00 L 1083.00 1124.00 L 1083.00 1126.00 L 1109.00 1146.00 L 1109.00 1148.00 L 1083.00 1132.00 L 1069.00 1126.00 L 1067.00 1130.00 L 1077.00 1141.00 L 1099.00 1159.00 L 1098.00 1160.00 L 1074.00 1144.00 L 1072.00 1145.00 L 1092.00 1163.00 L 1092.00 1169.00 L 1072.00 1163.00 L 1063.00 1163.00 L 1065.00 1169.00 L 1062.00 1176.00 L 1054.00 1184.00 L 1073.00 1219.00 L 1119.00 1281.00 L 1140.00 1310.00 L 1136.00 1306.00 L 1146.00 1323.00 L 1170.00 1361.00 L 1180.00 1378.00 L 1176.00 1374.00 L 1185.00 1396.00 L 1207.00 1444.00 L 1217.00 1467.00 L 1215.00 1465.00 L 1220.00 1501.00 L 1232.00 1575.00 L 1235.00 1623.00 L 1229.00 1645.00 L 1219.00 1665.00 L 1205.00 1683.00 L 1189.00 1695.00 L 1171.00 1701.00 L 1142.00 1697.00 L 1102.00 1683.00 L 1049.00 1652.00 L 983.00 1604.00 L 905.00 1561.00 L 815.00 1523.00 L 723.00 1491.00 L 629.00 1465.00 L 543.00 1450.00 L 465.00 1446.00 L 424.00 1442.00 L 420.00 1438.00 L 418.00 1428.00 L 418.00 1412.00 L 426.00 1371.00 L 442.00 1305.00 L 459.00 1253.00 L 477.00 1215.00 L 485.00 1181.00 L 483.00 1151.00 L 486.00 1103.00 L 494.00 1037.00 L 501.00 996.00 L 507.00 980.00 L 511.00 970.00 L 513.00 966.00 L 515.00 961.00 Z" fill="black" stroke="black" stroke-width="1"/>
</svg>