<?xml version="1.0" encoding="UTF-8"?>
<svg xmlns="http://www.w3.org/2000/svg" viewBox="313.00 310.00 758.00 1372.00">
  <path d="M 458.00 929.00 L 402.00 919.00 L 400.00 915.00 L 452.00 917.00 L 451.00 916.00 L 397.00 912.00 L 384.00 910.00 L 412.00 910.00 L 410.00 908.00 L 378.00 904.00 L 390.00 904.00 L 446.00 908.00 L 444.00 906.00 L 384.00 898.00 L 384.00 896.00 L 444.00 900.00 L 443.00 898.00 L 381.00 890.00 L 380.00 889.00 L 440.00 895.00 L 439.00 892.00 L 377.00 880.00 L 340.00 849.00 L 328.00 799.00 L 323.00 745.00 L 325.00 687.00 L 333.00 630.00 L 347.00 574.00 L 368.00 520.00 L 396.00 468.00 L 424.00 427.00 L 452.00 397.00 L 489.00 368.00 L 535.00 340.00 L 573.00 324.00 L 603.00 320.00 L 630.00 322.00 L 654.00 330.00 L 682.00 345.00 L 714.00 367.00 L 733.00 371.00 L 739.00 357.00 L 753.00 350.00 L 775.00 350.00 L 792.00 355.00 L 804.00 365.00 L 816.00 364.00 L 828.00 352.00 L 840.00 347.00 L 852.00 349.00 L 862.00 357.00 L 870.00 371.00 L 872.00 390.00 L 868.00 414.00 L 868.00 420.00 L 872.00 408.00 L 874.00 407.00 L 874.00 417.00 L 880.00 421.00 L 892.00 419.00 L 897.00 423.00 L 895.00 433.00 L 896.00 435.00 L 900.00 429.00 L 906.00 430.00 L 914.00 438.00 L 949.00 433.00 L 1011.00 415.00 L 1043.00 418.00 L 1045.00 442.00 L 1029.00 484.00 L 995.00 544.00 L 995.00 547.00 L 1029.00 493.00 L 1030.00 497.00 L 998.00 559.00 L 987.00 587.00 L 997.00 581.00 L 999.00 585.00 L 993.00 599.00 L 994.00 601.00 L 1002.00 591.00 L 1001.00 593.00 L 991.00 607.00 L 992.00 609.00 L 1004.00 599.00 L 1005.00 601.00 L 995.00 615.00 L 995.00 618.00 L 1005.00 610.00 L 1005.00 613.00 L 995.00 627.00 L 995.00 628.00 L 1005.00 616.00 L 1005.00 618.00 L 995.00 634.00 L 994.00 638.00 L 1002.00 630.00 L 1002.00 641.00 L 994.00 671.00 L 1010.00 716.00 L 1050.00 776.00 L 1061.00 813.00 L 1043.00 827.00 L 1040.00 832.00 L 1052.00 828.00 L 1049.00 830.00 L 1031.00 838.00 L 1023.00 853.00 L 1025.00 875.00 L 1022.00 890.00 L 1014.00 898.00 L 1010.00 908.00 L 1010.00 920.00 L 1004.00 932.00 L 992.00 944.00 L 988.00 957.00 L 992.00 971.00 L 992.00 987.00 L 988.00 1005.00 L 976.00 1020.00 L 956.00 1032.00 L 919.00 1046.00 L 865.00 1062.00 L 891.00 1160.00 L 997.00 1340.00 L 1043.00 1419.00 L 1029.00 1397.00 L 1030.00 1399.00 L 1046.00 1425.00 L 1044.00 1422.00 L 1024.00 1390.00 L 1026.00 1394.00 L 1050.00 1434.00 L 1047.00 1430.00 L 1017.00 1382.00 L 1020.00 1388.00 L 1056.00 1448.00 L 1055.00 1447.00 L 1017.00 1385.00 L 1018.00 1388.00 L 1058.00 1456.00 L 1049.00 1443.00 L 991.00 1349.00 L 991.00 1351.00 L 1049.00 1449.00 L 1016.00 1393.00 L 892.00 1183.00 L 893.00 1185.00 L 1019.00 1399.00 L 1050.00 1452.00 L 986.00 1344.00 L 987.00 1347.00 L 1053.00 1461.00 L 1050.00 1457.00 L 978.00 1335.00 L 978.00 1339.00 L 1050.00 1469.00 L 1047.00 1466.00 L 969.00 1330.00 L 969.00 1331.00 L 1047.00 1469.00 L 1045.00 1467.00 L 963.00 1325.00 L 963.00 1328.00 L 1045.00 1476.00 L 1041.00 1471.00 L 951.00 1313.00 L 950.00 1316.00 L 1038.00 1480.00 L 1018.00 1443.00 L 890.00 1205.00 L 890.00 1207.00 L 1018.00 1449.00 L 1035.00 1483.00 L 941.00 1309.00 L 940.00 1312.00 L 1032.00 1492.00 L 1015.00 1460.00 L 889.00 1216.00 L 888.00 1218.00 L 1012.00 1466.00 L 1025.00 1494.00 L 927.00 1302.00 L 925.00 1305.00 L 1019.00 1503.00 L 1016.00 1499.00 L 916.00 1293.00 L 914.00 1296.00 L 1010.00 1508.00 L 1008.00 1506.00 L 908.00 1290.00 L 907.00 1291.00 L 1005.00 1509.00 L 996.00 1490.00 L 880.00 1234.00 L 878.00 1236.00 L 990.00 1496.00 L 990.00 1498.00 L 878.00 1242.00 L 876.00 1244.00 L 984.00 1504.00 L 1036.00 1636.00 L 1032.00 1640.00 L 981.00 1521.00 L 883.00 1279.00 L 882.00 1280.00 L 978.00 1524.00 L 1024.00 1648.00 L 1020.00 1652.00 L 968.00 1522.00 L 868.00 1258.00 L 866.00 1260.00 L 962.00 1528.00 L 962.00 1530.00 L 866.00 1266.00 L 864.00 1267.00 L 956.00 1533.00 L 1000.00 1668.00 L 996.00 1672.00 L 913.00 1617.00 L 751.00 1503.00 L 635.00 1426.00 L 565.00 1386.00 L 500.00 1354.00 L 440.00 1330.00 L 412.00 1306.00 L 416.00 1282.00 L 441.00 1218.00 L 487.00 1114.00 L 497.00 1058.00 L 471.00 1050.00 L 468.00 1031.00 L 488.00 1001.00 L 500.00 977.00 L 504.00 959.00 L 503.00 947.00 L 497.00 941.00 L 492.00 937.00 L 488.00 935.00 L 458.00 929.00 Z" fill="black" stroke="black" stroke-width="1"/>
</svg>