<?xml version="1.0" encoding="UTF-8"?>
<svg xmlns="http://www.w3.org/2000/svg" viewBox="330.00 264.00 1004.00 1491.00">
  <path d="M 365.00 1016.00 L 363.00 964.00 L 358.00 922.00 L 350.00 890.00 L 346.00 858.00 L 346.00 826.00 L 344.00 801.00 L 340.00 783.00 L 340.00 747.00 L 344.00 693.00 L 361.00 626.00 L 391.00 546.00 L 430.00 471.00 L 478.00 401.00 L 514.00 357.00 L 538.00 339.00 L 567.00 325.00 L 601.00 315.00 L 628.00 302.00 L 648.00 286.00 L 663.00 277.00 L 673.00 275.00 L 723.00 274.00 L 813.00 274.00 L 875.00 279.00 L 909.00 289.00 L 936.00 299.00 L 956.00 309.00 L 977.00 323.00 L 999.00 341.00 L 1018.00 353.00 L 1034.00 359.00 L 1060.00 377.00 L 1096.00 407.00 L 1131.00 462.00 L 1165.00 542.00 L 1183.00 597.00 L 1185.00 627.00 L 1189.00 646.00 L 1195.00 654.00 L 1197.00 662.00 L 1195.00 670.00 L 1220.00 703.00 L 1272.00 761.00 L 1300.00 795.00 L 1304.00 805.00 L 1300.00 819.00 L 1288.00 837.00 L 1273.00 850.00 L 1255.00 858.00 L 1253.00 859.00 L 1267.00 853.00 L 1265.00 856.00 L 1247.00 868.00 L 1237.00 883.00 L 1235.00 901.00 L 1236.00 914.00 L 1240.00 922.00 L 1240.00 931.00 L 1236.00 941.00 L 1231.00 948.00 L 1225.00 952.00 L 1225.00 959.00 L 1231.00 969.00 L 1234.00 980.00 L 1234.00 992.00 L 1227.00 1007.00 L 1213.00 1025.00 L 1208.00 1046.00 L 1212.00 1070.00 L 1213.00 1093.00 L 1211.00 1115.00 L 1204.00 1134.00 L 1192.00 1150.00 L 1173.00 1164.00 L 1147.00 1176.00 L 1136.00 1184.00 L 1140.00 1188.00 L 1138.00 1189.00 L 1130.00 1187.00 L 1133.00 1190.00 L 1147.00 1198.00 L 1147.00 1213.00 L 1133.00 1235.00 L 1123.00 1256.00 L 1117.00 1276.00 L 1117.00 1293.00 L 1123.00 1307.00 L 1133.00 1322.00 L 1147.00 1338.00 L 1154.00 1351.00 L 1154.00 1361.00 L 1160.00 1372.00 L 1172.00 1384.00 L 1173.00 1386.00 L 1163.00 1378.00 L 1177.00 1396.00 L 1215.00 1440.00 L 1223.00 1452.00 L 1201.00 1432.00 L 1204.00 1436.00 L 1232.00 1464.00 L 1235.00 1468.00 L 1213.00 1448.00 L 1214.00 1451.00 L 1238.00 1477.00 L 1236.00 1476.00 L 1208.00 1448.00 L 1209.00 1451.00 L 1239.00 1485.00 L 1256.00 1511.00 L 1260.00 1529.00 L 1261.00 1537.00 L 1259.00 1535.00 L 1268.00 1546.00 L 1288.00 1570.00 L 1297.00 1581.00 L 1295.00 1579.00 L 1300.00 1589.00 L 1312.00 1611.00 L 1320.00 1629.00 L 1324.00 1643.00 L 1324.00 1666.00 L 1320.00 1698.00 L 1313.00 1719.00 L 1303.00 1729.00 L 1291.00 1737.00 L 1277.00 1743.00 L 1252.00 1745.00 L 1216.00 1743.00 L 1178.00 1733.00 L 1138.00 1715.00 L 1106.00 1698.00 L 1082.00 1682.00 L 1044.00 1667.00 L 992.00 1653.00 L 930.00 1632.00 L 858.00 1604.00 L 819.00 1591.00 L 813.00 1593.00 L 789.00 1589.00 L 747.00 1579.00 L 697.00 1571.00 L 639.00 1565.00 L 581.00 1562.00 L 523.00 1562.00 L 471.00 1565.00 L 425.00 1571.00 L 393.00 1571.00 L 375.00 1565.00 L 364.00 1551.00 L 360.00 1529.00 L 367.00 1502.00 L 385.00 1470.00 L 396.00 1446.00 L 400.00 1430.00 L 396.00 1420.00 L 384.00 1416.00 L 376.00 1405.00 L 372.00 1387.00 L 367.00 1378.00 L 361.00 1378.00 L 363.00 1373.00 L 373.00 1363.00 L 373.00 1360.00 L 363.00 1364.00 L 362.00 1361.00 L 370.00 1351.00 L 365.00 1337.00 L 347.00 1319.00 L 350.00 1302.00 L 374.00 1286.00 L 374.00 1282.00 L 350.00 1290.00 L 350.00 1287.00 L 374.00 1273.00 L 374.00 1271.00 L 350.00 1281.00 L 350.00 1279.00 L 374.00 1265.00 L 375.00 1262.00 L 353.00 1270.00 L 352.00 1268.00 L 372.00 1256.00 L 373.00 1254.00 L 355.00 1262.00 L 355.00 1260.00 L 373.00 1248.00 L 378.00 1223.00 L 370.00 1185.00 L 366.00 1138.00 L 366.00 1082.00 L 366.00 1051.00 L 366.00 1045.00 L 365.00 1016.00 Z" fill="black" stroke="black" stroke-width="1"/>
</svg>