<?xml version="1.0" encoding="UTF-8"?>
<svg xmlns="http://www.w3.org/2000/svg" viewBox="249.00 217.00 892.00 1517.00">
  <path d="M 498.00 850.00 L 418.00 762.00 L 371.00 704.00 L 357.00 676.00 L 333.00 651.00 L 299.00 629.00 L 298.00 627.00 L 330.00 645.00 L 328.00 642.00 L 292.00 618.00 L 291.00 615.00 L 325.00 633.00 L 324.00 630.00 L 288.00 606.00 L 287.00 604.00 L 321.00 624.00 L 321.00 623.00 L 287.00 601.00 L 287.00 599.00 L 321.00 617.00 L 319.00 612.00 L 281.00 584.00 L 261.00 554.00 L 259.00 522.00 L 272.00 482.00 L 300.00 434.00 L 311.00 403.00 L 305.00 389.00 L 310.00 368.00 L 326.00 340.00 L 354.00 322.00 L 394.00 314.00 L 422.00 298.00 L 438.00 274.00 L 457.00 271.00 L 479.00 289.00 L 488.00 293.00 L 484.00 283.00 L 486.00 282.00 L 494.00 290.00 L 512.00 281.00 L 540.00 255.00 L 576.00 237.00 L 620.00 227.00 L 649.00 244.00 L 663.00 288.00 L 668.00 289.00 L 664.00 247.00 L 666.00 247.00 L 674.00 289.00 L 676.00 290.00 L 672.00 250.00 L 675.00 250.00 L 685.00 290.00 L 690.00 293.00 L 690.00 259.00 L 693.00 259.00 L 699.00 293.00 L 701.00 297.00 L 699.00 271.00 L 702.00 271.00 L 710.00 297.00 L 739.00 312.00 L 789.00 316.00 L 843.00 332.00 L 901.00 360.00 L 958.00 397.00 L 1014.00 443.00 L 1046.00 473.00 L 1054.00 487.00 L 1054.00 503.00 L 1046.00 521.00 L 1047.00 524.00 L 1057.00 512.00 L 1058.00 515.00 L 1050.00 533.00 L 1051.00 537.00 L 1061.00 527.00 L 1062.00 530.00 L 1054.00 546.00 L 1056.00 549.00 L 1068.00 539.00 L 1069.00 541.00 L 1059.00 555.00 L 1060.00 557.00 L 1072.00 547.00 L 1072.00 549.00 L 1060.00 563.00 L 1061.00 565.00 L 1075.00 555.00 L 1076.00 559.00 L 1064.00 577.00 L 1064.00 580.00 L 1076.00 568.00 L 1077.00 571.00 L 1067.00 589.00 L 1068.00 592.00 L 1080.00 580.00 L 1080.00 583.00 L 1068.00 601.00 L 1067.00 607.00 L 1077.00 601.00 L 1078.00 617.00 L 1070.00 655.00 L 1085.00 710.00 L 1123.00 782.00 L 1129.00 827.00 L 1103.00 845.00 L 1092.00 866.00 L 1096.00 890.00 L 1088.00 921.00 L 1068.00 959.00 L 1058.00 994.00 L 1058.00 1026.00 L 1018.00 1057.00 L 938.00 1087.00 L 961.00 1213.00 L 1087.00 1435.00 L 1085.00 1438.00 L 955.00 1222.00 L 955.00 1225.00 L 1085.00 1447.00 L 1131.00 1527.00 L 1093.00 1465.00 L 1093.00 1468.00 L 1131.00 1536.00 L 1126.00 1531.00 L 1078.00 1453.00 L 1077.00 1456.00 L 1123.00 1540.00 L 1081.00 1467.00 L 951.00 1237.00 L 949.00 1243.00 L 1075.00 1485.00 L 1074.00 1486.00 L 946.00 1246.00 L 945.00 1247.00 L 1071.00 1489.00 L 1101.00 1549.00 L 1035.00 1427.00 L 1034.00 1430.00 L 1098.00 1558.00 L 1096.00 1556.00 L 1028.00 1424.00 L 1027.00 1425.00 L 1093.00 1559.00 L 1091.00 1557.00 L 1021.00 1419.00 L 1020.00 1421.00 L 1088.00 1563.00 L 1061.00 1509.00 L 939.00 1259.00 L 936.00 1263.00 L 1052.00 1521.00 L 1051.00 1523.00 L 933.00 1269.00 L 931.00 1270.00 L 1045.00 1526.00 L 1062.00 1567.00 L 982.00 1393.00 L 979.00 1396.00 L 1053.00 1576.00 L 1035.00 1537.00 L 925.00 1279.00 L 921.00 1282.00 L 1023.00 1546.00 L 1022.00 1548.00 L 918.00 1288.00 L 918.00 1290.00 L 1022.00 1554.00 L 1022.00 1556.00 L 918.00 1296.00 L 915.00 1303.00 L 1013.00 1577.00 L 1012.00 1579.00 L 912.00 1309.00 L 909.00 1312.00 L 1003.00 1588.00 L 1043.00 1724.00 L 1029.00 1720.00 L 942.00 1639.00 L 782.00 1481.00 L 638.00 1365.00 L 510.00 1291.00 L 472.00 1208.00 L 524.00 1116.00 L 545.00 1074.00 L 535.00 1082.00 L 542.00 1071.00 L 566.00 1041.00 L 579.00 1006.00 L 581.00 966.00 L 573.00 934.00 L 555.00 910.00 L 544.00 897.00 L 540.00 895.00 L 498.00 850.00 Z" fill="black" stroke="black" stroke-width="1"/>
</svg>