<?xml version="1.0" encoding="UTF-8"?>
<svg xmlns="http://www.w3.org/2000/svg" viewBox="344.00 286.00 879.00 1428.00">
  <path d="M 472.00 1009.00 L 476.00 991.00 L 488.00 973.00 L 508.00 955.00 L 514.00 940.00 L 506.00 928.00 L 473.00 895.00 L 415.00 841.00 L 382.00 804.00 L 374.00 784.00 L 366.00 754.00 L 358.00 714.00 L 354.00 673.00 L 354.00 631.00 L 357.00 593.00 L 363.00 559.00 L 370.00 529.00 L 378.00 503.00 L 393.00 470.00 L 415.00 430.00 L 444.00 393.00 L 480.00 359.00 L 519.00 333.00 L 561.00 315.00 L 600.00 303.00 L 636.00 297.00 L 702.00 296.00 L 798.00 300.00 L 860.00 305.00 L 888.00 311.00 L 922.00 325.00 L 962.00 347.00 L 999.00 373.00 L 1033.00 403.00 L 1064.00 447.00 L 1092.00 505.00 L 1109.00 548.00 L 1115.00 576.00 L 1117.00 600.00 L 1115.00 620.00 L 1116.00 635.00 L 1120.00 645.00 L 1144.00 676.00 L 1188.00 728.00 L 1209.00 761.00 L 1207.00 775.00 L 1193.00 794.00 L 1167.00 818.00 L 1154.00 838.00 L 1154.00 854.00 L 1157.00 866.00 L 1163.00 874.00 L 1164.00 883.00 L 1160.00 893.00 L 1161.00 905.00 L 1167.00 919.00 L 1164.00 939.00 L 1152.00 965.00 L 1145.00 993.00 L 1143.00 1023.00 L 1136.00 1045.00 L 1124.00 1059.00 L 1111.00 1068.00 L 1097.00 1072.00 L 1092.00 1077.00 L 1096.00 1083.00 L 1093.00 1085.00 L 1083.00 1083.00 L 1085.00 1084.00 L 1099.00 1088.00 L 1097.00 1088.00 L 1079.00 1084.00 L 1080.00 1086.00 L 1100.00 1094.00 L 1104.00 1110.00 L 1092.00 1134.00 L 1096.00 1154.00 L 1116.00 1170.00 L 1116.00 1173.00 L 1096.00 1163.00 L 1097.00 1166.00 L 1119.00 1182.00 L 1121.00 1185.00 L 1103.00 1175.00 L 1103.00 1177.00 L 1121.00 1191.00 L 1119.00 1192.00 L 1097.00 1180.00 L 1096.00 1182.00 L 1116.00 1198.00 L 1123.00 1207.00 L 1117.00 1209.00 L 1136.00 1227.00 L 1180.00 1261.00 L 1175.00 1260.00 L 1121.00 1224.00 L 1120.00 1226.00 L 1172.00 1266.00 L 1170.00 1266.00 L 1114.00 1226.00 L 1112.00 1226.00 L 1164.00 1266.00 L 1173.00 1274.00 L 1139.00 1250.00 L 1136.00 1250.00 L 1164.00 1274.00 L 1153.00 1267.00 L 1103.00 1229.00 L 1100.00 1229.00 L 1144.00 1267.00 L 1145.00 1271.00 L 1103.00 1241.00 L 1100.00 1241.00 L 1136.00 1271.00 L 1138.00 1273.00 L 1106.00 1247.00 L 1104.00 1247.00 L 1132.00 1273.00 L 1134.00 1277.00 L 1110.00 1259.00 L 1108.00 1259.00 L 1128.00 1277.00 L 1135.00 1284.00 L 1129.00 1280.00 L 1112.00 1266.00 L 1084.00 1242.00 L 1081.00 1240.00 L 1103.00 1260.00 L 1105.00 1264.00 L 1087.00 1252.00 L 1085.00 1253.00 L 1099.00 1267.00 L 1095.00 1265.00 L 1073.00 1247.00 L 1074.00 1250.00 L 1098.00 1274.00 L 1110.00 1289.00 L 1110.00 1295.00 L 1118.00 1307.00 L 1134.00 1325.00 L 1139.00 1331.00 L 1133.00 1325.00 L 1138.00 1333.00 L 1154.00 1355.00 L 1169.00 1385.00 L 1183.00 1423.00 L 1196.00 1472.00 L 1208.00 1532.00 L 1213.00 1583.00 L 1211.00 1625.00 L 1206.00 1654.00 L 1198.00 1670.00 L 1188.00 1683.00 L 1176.00 1693.00 L 1158.00 1700.00 L 1134.00 1704.00 L 1111.00 1701.00 L 1089.00 1691.00 L 1059.00 1669.00 L 1021.00 1635.00 L 983.00 1606.00 L 945.00 1582.00 L 884.00 1549.00 L 800.00 1507.00 L 753.00 1486.00 L 743.00 1486.00 L 710.00 1476.00 L 654.00 1456.00 L 622.00 1447.00 L 614.00 1449.00 L 591.00 1446.00 L 553.00 1438.00 L 532.00 1432.00 L 528.00 1428.00 L 524.00 1427.00 L 520.00 1429.00 L 515.00 1427.00 L 509.00 1421.00 L 493.00 1420.00 L 467.00 1424.00 L 444.00 1425.00 L 424.00 1423.00 L 416.00 1404.00 L 420.00 1368.00 L 429.00 1332.00 L 443.00 1296.00 L 451.00 1264.00 L 453.00 1236.00 L 459.00 1211.00 L 469.00 1189.00 L 471.00 1169.00 L 465.00 1151.00 L 464.00 1113.00 L 468.00 1055.00 L 470.00 1024.00 L 470.00 1020.00 L 472.00 1009.00 Z" fill="black" stroke="black" stroke-width="1"/>
</svg>