<?xml version="1.0" encoding="UTF-8"?>
<svg xmlns="http://www.w3.org/2000/svg" viewBox="386.00 315.00 766.00 1280.00">
  <path d="M 464.00 978.00 L 404.00 978.00 L 404.00 977.00 L 464.00 975.00 L 465.00 973.00 L 407.00 971.00 L 408.00 968.00 L 468.00 964.00 L 480.00 958.00 L 444.00 950.00 L 445.00 948.00 L 483.00 952.00 L 483.00 948.00 L 445.00 936.00 L 446.00 933.00 L 486.00 939.00 L 485.00 937.00 L 443.00 927.00 L 444.00 925.00 L 488.00 931.00 L 488.00 929.00 L 444.00 919.00 L 444.00 916.00 L 488.00 920.00 L 488.00 915.00 L 444.00 901.00 L 443.00 899.00 L 485.00 909.00 L 484.00 906.00 L 440.00 890.00 L 416.00 838.00 L 412.00 750.00 L 413.00 670.00 L 419.00 598.00 L 442.00 526.00 L 482.00 454.00 L 515.00 406.00 L 541.00 382.00 L 575.00 361.00 L 617.00 343.00 L 669.00 331.00 L 731.00 325.00 L 798.00 330.00 L 870.00 346.00 L 935.00 373.00 L 993.00 411.00 L 1027.00 436.00 L 1037.00 448.00 L 1040.00 458.00 L 1036.00 466.00 L 1037.00 469.00 L 1043.00 467.00 L 1044.00 471.00 L 1040.00 481.00 L 1041.00 483.00 L 1047.00 477.00 L 1048.00 480.00 L 1044.00 492.00 L 1045.00 495.00 L 1051.00 489.00 L 1059.00 521.00 L 1069.00 591.00 L 1094.00 648.00 L 1134.00 692.00 L 1142.00 726.00 L 1118.00 750.00 L 1117.00 756.00 L 1139.00 744.00 L 1138.00 746.00 L 1114.00 762.00 L 1104.00 778.00 L 1108.00 794.00 L 1100.00 819.00 L 1080.00 853.00 L 1070.00 890.00 L 1070.00 930.00 L 1062.00 956.00 L 1046.00 968.00 L 1040.00 978.00 L 1044.00 986.00 L 1036.00 1002.00 L 1016.00 1026.00 L 1015.00 1043.00 L 1033.00 1053.00 L 1032.00 1057.00 L 1012.00 1055.00 L 1013.00 1057.00 L 1035.00 1063.00 L 1043.00 1071.00 L 1037.00 1081.00 L 1026.00 1084.00 L 1010.00 1080.00 L 1022.00 1094.00 L 1062.00 1126.00 L 1061.00 1133.00 L 1019.00 1115.00 L 1020.00 1118.00 L 1064.00 1142.00 L 1064.00 1144.00 L 1020.00 1124.00 L 1017.00 1125.00 L 1055.00 1147.00 L 1057.00 1150.00 L 1023.00 1134.00 L 1020.00 1135.00 L 1048.00 1153.00 L 1050.00 1156.00 L 1026.00 1144.00 L 1023.00 1143.00 L 1041.00 1153.00 L 1042.00 1154.00 L 1026.00 1146.00 L 1019.00 1155.00 L 1021.00 1181.00 L 1046.00 1244.00 L 1094.00 1344.00 L 1120.00 1418.00 L 1124.00 1466.00 L 1120.00 1507.00 L 1108.00 1541.00 L 1093.00 1565.00 L 1075.00 1579.00 L 1049.00 1585.00 L 1015.00 1583.00 L 917.00 1530.00 L 755.00 1426.00 L 633.00 1360.00 L 551.00 1332.00 L 484.00 1314.00 L 432.00 1306.00 L 407.00 1291.00 L 409.00 1269.00 L 407.00 1260.00 L 401.00 1264.00 L 402.00 1259.00 L 410.00 1245.00 L 408.00 1242.00 L 396.00 1250.00 L 397.00 1247.00 L 411.00 1233.00 L 411.00 1231.00 L 397.00 1241.00 L 399.00 1236.00 L 417.00 1216.00 L 417.00 1213.00 L 399.00 1227.00 L 401.00 1223.00 L 423.00 1201.00 L 424.00 1197.00 L 404.00 1211.00 L 407.00 1204.00 L 433.00 1176.00 L 435.00 1169.00 L 413.00 1183.00 L 416.00 1176.00 L 444.00 1148.00 L 446.00 1140.00 L 422.00 1152.00 L 425.00 1147.00 L 455.00 1125.00 L 456.00 1120.00 L 428.00 1132.00 L 429.00 1130.00 L 459.00 1114.00 L 456.00 1113.00 L 420.00 1127.00 L 420.00 1124.00 L 456.00 1104.00 L 452.00 1103.00 L 408.00 1121.00 L 409.00 1118.00 L 455.00 1094.00 L 452.00 1093.00 L 400.00 1115.00 L 401.00 1113.00 L 455.00 1087.00 L 454.00 1084.00 L 398.00 1104.00 L 399.00 1102.00 L 457.00 1078.00 L 458.00 1075.00 L 402.00 1093.00 L 403.00 1090.00 L 461.00 1066.00 L 461.00 1063.00 L 403.00 1081.00 L 402.00 1078.00 L 458.00 1054.00 L 457.00 1049.00 L 399.00 1063.00 L 399.00 1062.00 L 457.00 1046.00 L 456.00 1043.00 L 396.00 1053.00 L 396.00 1050.00 L 456.00 1034.00 L 457.00 1030.00 L 399.00 1038.00 L 398.00 1036.00 L 454.00 1024.00 L 456.00 1019.00 L 404.00 1021.00 L 405.00 1018.00 L 459.00 1010.00 L 460.00 1008.00 L 408.00 1012.00 L 408.00 1009.00 L 460.00 999.00 L 461.00 994.00 L 411.00 994.00 L 412.00 992.00 L 464.00 988.00 L 461.00 987.00 L 403.00 989.00 L 400.00 988.00 L 452.00 984.00 L 482.00 981.00 L 490.00 979.00 L 464.00 978.00 Z" fill="black" stroke="black" stroke-width="1"/>
</svg>