<?xml version="1.0" encoding="UTF-8"?>
<svg xmlns="http://www.w3.org/2000/svg" viewBox="338.00 292.00 848.00 1385.00">
  <path d="M 484.00 850.00 L 464.00 810.00 L 444.00 786.00 L 424.00 778.00 L 423.00 776.00 L 441.00 780.00 L 432.00 774.00 L 396.00 758.00 L 370.00 738.00 L 354.00 714.00 L 348.00 631.00 L 352.00 489.00 L 360.00 412.00 L 372.00 400.00 L 401.00 386.00 L 447.00 370.00 L 493.00 370.00 L 539.00 386.00 L 578.00 381.00 L 610.00 355.00 L 630.00 352.00 L 638.00 372.00 L 639.00 371.00 L 633.00 349.00 L 635.00 347.00 L 645.00 365.00 L 667.00 359.00 L 701.00 329.00 L 735.00 310.00 L 769.00 302.00 L 804.00 302.00 L 840.00 310.00 L 859.00 331.00 L 861.00 365.00 L 864.00 363.00 L 868.00 325.00 L 869.00 327.00 L 867.00 369.00 L 869.00 366.00 L 875.00 318.00 L 879.00 320.00 L 881.00 372.00 L 885.00 376.00 L 891.00 332.00 L 894.00 332.00 L 894.00 376.00 L 897.00 381.00 L 903.00 347.00 L 910.00 348.00 L 918.00 384.00 L 930.00 379.00 L 946.00 333.00 L 949.00 334.00 L 939.00 382.00 L 943.00 382.00 L 961.00 334.00 L 964.00 339.00 L 952.00 397.00 L 954.00 397.00 L 970.00 339.00 L 970.00 342.00 L 954.00 406.00 L 956.00 409.00 L 976.00 351.00 L 979.00 352.00 L 965.00 412.00 L 969.00 413.00 L 991.00 355.00 L 994.00 357.00 L 978.00 419.00 L 981.00 424.00 L 1003.00 372.00 L 1006.00 373.00 L 990.00 427.00 L 991.00 442.00 L 1009.00 418.00 L 1013.00 422.00 L 1003.00 454.00 L 1007.00 453.00 L 1025.00 419.00 L 1027.00 422.00 L 1013.00 462.00 L 1016.00 463.00 L 1036.00 425.00 L 1038.00 427.00 L 1022.00 469.00 L 1024.00 470.00 L 1044.00 430.00 L 1045.00 432.00 L 1027.00 476.00 L 1028.00 479.00 L 1048.00 441.00 L 1049.00 443.00 L 1031.00 485.00 L 1034.00 486.00 L 1058.00 446.00 L 1059.00 448.00 L 1037.00 492.00 L 1043.00 488.00 L 1077.00 436.00 L 1079.00 437.00 L 1049.00 491.00 L 1054.00 491.00 L 1094.00 437.00 L 1097.00 441.00 L 1063.00 503.00 L 1056.00 521.00 L 1076.00 495.00 L 1076.00 502.00 L 1056.00 542.00 L 1053.00 577.00 L 1067.00 607.00 L 1068.00 648.00 L 1056.00 700.00 L 1068.00 749.00 L 1104.00 795.00 L 1113.00 831.00 L 1095.00 857.00 L 1083.00 913.00 L 1077.00 999.00 L 1068.00 1051.00 L 1056.00 1069.00 L 1027.00 1085.00 L 981.00 1099.00 L 1018.00 1230.00 L 1138.00 1478.00 L 1135.00 1479.00 L 1009.00 1233.00 L 1009.00 1235.00 L 1135.00 1485.00 L 1176.00 1572.00 L 1132.00 1496.00 L 1132.00 1503.00 L 1176.00 1593.00 L 1173.00 1590.00 L 1123.00 1494.00 L 1122.00 1498.00 L 1170.00 1602.00 L 1130.00 1519.00 L 1002.00 1249.00 L 1000.00 1254.00 L 1124.00 1534.00 L 1123.00 1535.00 L 997.00 1257.00 L 995.00 1261.00 L 1117.00 1547.00 L 1116.00 1549.00 L 992.00 1267.00 L 989.00 1270.00 L 1107.00 1558.00 L 1127.00 1616.00 L 1049.00 1444.00 L 1044.00 1449.00 L 1112.00 1631.00 L 1110.00 1630.00 L 1038.00 1446.00 L 1036.00 1448.00 L 1104.00 1636.00 L 1084.00 1582.00 L 976.00 1286.00 L 974.00 1288.00 L 1078.00 1588.00 L 1078.00 1591.00 L 974.00 1297.00 L 971.00 1299.00 L 1069.00 1597.00 L 1068.00 1599.00 L 968.00 1305.00 L 965.00 1307.00 L 1059.00 1605.00 L 1059.00 1608.00 L 965.00 1316.00 L 963.00 1317.00 L 1053.00 1611.00 L 1053.00 1614.00 L 963.00 1326.00 L 959.00 1329.00 L 1041.00 1623.00 L 1041.00 1627.00 L 959.00 1341.00 L 956.00 1339.00 L 1032.00 1621.00 L 1032.00 1625.00 L 956.00 1351.00 L 954.00 1348.00 L 1026.00 1616.00 L 1026.00 1618.00 L 954.00 1354.00 L 951.00 1350.00 L 1017.00 1606.00 L 982.00 1667.00 L 846.00 1533.00 L 712.00 1441.00 L 580.00 1391.00 L 534.00 1329.00 L 574.00 1255.00 L 583.00 1234.00 L 561.00 1266.00 L 561.00 1263.00 L 583.00 1225.00 L 595.00 1186.00 L 597.00 1146.00 L 590.00 1123.00 L 574.00 1117.00 L 579.00 1100.00 L 605.00 1072.00 L 602.00 1070.00 L 570.00 1094.00 L 571.00 1091.00 L 605.00 1061.00 L 604.00 1059.00 L 568.00 1085.00 L 568.00 1083.00 L 604.00 1053.00 L 601.00 1051.00 L 559.00 1077.00 L 559.00 1074.00 L 601.00 1042.00 L 601.00 1040.00 L 559.00 1068.00 L 558.00 1060.00 L 598.00 1016.00 L 589.00 966.00 L 531.00 910.00 L 500.00 879.00 L 496.00 873.00 L 484.00 850.00 Z" fill="black" stroke="black" stroke-width="1"/>
</svg>