<?xml version="1.0" encoding="UTF-8"?>
<svg xmlns="http://www.w3.org/2000/svg" viewBox="287.00 250.00 947.00 1446.00">
  <path d="M 569.00 880.00 L 503.00 816.00 L 436.00 769.00 L 368.00 739.00 L 366.00 736.00 L 430.00 760.00 L 428.00 758.00 L 360.00 730.00 L 359.00 728.00 L 425.00 752.00 L 422.00 747.00 L 350.00 713.00 L 349.00 710.00 L 419.00 738.00 L 416.00 730.00 L 340.00 686.00 L 339.00 681.00 L 413.00 715.00 L 411.00 708.00 L 333.00 660.00 L 297.00 609.00 L 303.00 555.00 L 320.00 505.00 L 348.00 459.00 L 357.00 430.00 L 347.00 418.00 L 350.00 416.00 L 366.00 424.00 L 364.00 409.00 L 344.00 371.00 L 348.00 364.00 L 376.00 388.00 L 380.00 385.00 L 360.00 355.00 L 365.00 350.00 L 395.00 370.00 L 406.00 368.00 L 398.00 344.00 L 404.00 339.00 L 424.00 353.00 L 429.00 351.00 L 419.00 333.00 L 427.00 329.00 L 453.00 339.00 L 465.00 333.00 L 463.00 311.00 L 475.00 304.00 L 501.00 312.00 L 528.00 305.00 L 556.00 283.00 L 574.00 275.00 L 582.00 281.00 L 585.00 278.00 L 583.00 266.00 L 586.00 265.00 L 594.00 275.00 L 598.00 275.00 L 598.00 265.00 L 615.00 260.00 L 649.00 260.00 L 677.00 269.00 L 699.00 287.00 L 718.00 291.00 L 734.00 281.00 L 773.00 280.00 L 835.00 288.00 L 875.00 299.00 L 893.00 313.00 L 902.00 330.00 L 902.00 350.00 L 921.00 346.00 L 959.00 318.00 L 978.00 332.00 L 978.00 388.00 L 988.00 396.00 L 1008.00 356.00 L 1011.00 360.00 L 997.00 408.00 L 1001.00 410.00 L 1023.00 366.00 L 1026.00 368.00 L 1010.00 416.00 L 1012.00 418.00 L 1032.00 374.00 L 1034.00 376.00 L 1018.00 424.00 L 1019.00 426.00 L 1037.00 382.00 L 1039.00 384.00 L 1025.00 432.00 L 1026.00 443.00 L 1042.00 417.00 L 1048.00 421.00 L 1044.00 455.00 L 1033.00 492.00 L 1015.00 532.00 L 1016.00 533.00 L 1036.00 495.00 L 1037.00 500.00 L 1019.00 548.00 L 1022.00 548.00 L 1046.00 500.00 L 1048.00 502.00 L 1028.00 554.00 L 1032.00 556.00 L 1060.00 508.00 L 1060.00 511.00 L 1032.00 565.00 L 1034.00 567.00 L 1066.00 517.00 L 1067.00 522.00 L 1037.00 582.00 L 1037.00 590.00 L 1067.00 546.00 L 1068.00 549.00 L 1040.00 599.00 L 1031.00 620.00 L 1041.00 612.00 L 1042.00 619.00 L 1034.00 641.00 L 1036.00 644.00 L 1048.00 628.00 L 1048.00 630.00 L 1036.00 650.00 L 1037.00 653.00 L 1051.00 639.00 L 1050.00 652.00 L 1034.00 692.00 L 1032.00 708.00 L 1044.00 700.00 L 1045.00 704.00 L 1035.00 720.00 L 1044.00 747.00 L 1072.00 785.00 L 1076.00 818.00 L 1056.00 846.00 L 1044.00 895.00 L 1040.00 965.00 L 1012.00 1008.00 L 960.00 1024.00 L 1003.00 1112.00 L 1141.00 1272.00 L 1201.00 1348.00 L 1183.00 1340.00 L 1183.00 1348.00 L 1201.00 1372.00 L 1197.00 1369.00 L 1171.00 1339.00 L 1180.00 1356.00 L 1224.00 1420.00 L 1164.00 1347.00 L 1000.00 1137.00 L 997.00 1141.00 L 1155.00 1359.00 L 1214.00 1441.00 L 1174.00 1387.00 L 1171.00 1386.00 L 1205.00 1438.00 L 1203.00 1444.00 L 1165.00 1404.00 L 1154.00 1398.00 L 1170.00 1426.00 L 1110.00 1337.00 L 974.00 1131.00 L 984.00 1154.00 L 1140.00 1406.00 L 1192.00 1497.00 L 1140.00 1427.00 L 1130.00 1424.00 L 1162.00 1488.00 L 1108.00 1398.00 L 968.00 1154.00 L 965.00 1152.00 L 1099.00 1392.00 L 1148.00 1488.00 L 1112.00 1440.00 L 1106.00 1439.00 L 1130.00 1485.00 L 1128.00 1488.00 L 1100.00 1448.00 L 1093.00 1452.00 L 1107.00 1500.00 L 1098.00 1494.00 L 1066.00 1434.00 L 1066.00 1441.00 L 1098.00 1515.00 L 1096.00 1513.00 L 1060.00 1435.00 L 1061.00 1441.00 L 1099.00 1531.00 L 1060.00 1442.00 L 944.00 1174.00 L 944.00 1177.00 L 1060.00 1451.00 L 1077.00 1497.00 L 995.00 1315.00 L 993.00 1323.00 L 1071.00 1521.00 L 1068.00 1517.00 L 984.00 1311.00 L 982.00 1315.00 L 1062.00 1529.00 L 1047.00 1489.00 L 937.00 1195.00 L 934.00 1198.00 L 1038.00 1498.00 L 1048.00 1531.00 L 964.00 1297.00 L 961.00 1301.00 L 1039.00 1543.00 L 1028.00 1513.00 L 928.00 1211.00 L 925.00 1213.00 L 1019.00 1519.00 L 1019.00 1521.00 L 925.00 1219.00 L 921.00 1221.00 L 1007.00 1527.00 L 1046.00 1682.00 L 1038.00 1686.00 L 994.00 1536.00 L 914.00 1232.00 L 911.00 1233.00 L 985.00 1539.00 L 985.00 1543.00 L 911.00 1245.00 L 904.00 1234.00 L 964.00 1510.00 L 964.00 1514.00 L 904.00 1246.00 L 900.00 1239.00 L 952.00 1493.00 L 919.00 1547.00 L 801.00 1401.00 L 677.00 1301.00 L 547.00 1247.00 L 486.00 1197.00 L 494.00 1151.00 L 523.00 1078.00 L 573.00 978.00 L 599.00 924.00 L 601.00 916.00 L 569.00 880.00 Z" fill="black" stroke="black" stroke-width="1"/>
</svg>