<?xml version="1.0" encoding="UTF-8"?>
<svg xmlns="http://www.w3.org/2000/svg" viewBox="248.00 349.00 745.00 1356.00">
  <path d="M 470.00 979.00 L 446.00 949.00 L 419.00 923.00 L 389.00 901.00 L 367.00 872.00 L 353.00 836.00 L 338.00 811.00 L 322.00 797.00 L 322.00 794.00 L 338.00 802.00 L 333.00 797.00 L 307.00 779.00 L 307.00 777.00 L 333.00 791.00 L 329.00 787.00 L 295.00 765.00 L 294.00 763.00 L 326.00 781.00 L 325.00 779.00 L 291.00 757.00 L 272.00 742.00 L 268.00 734.00 L 264.00 714.00 L 260.00 682.00 L 264.00 655.00 L 276.00 633.00 L 277.00 613.00 L 267.00 595.00 L 269.00 592.00 L 283.00 604.00 L 281.00 596.00 L 263.00 568.00 L 258.00 545.00 L 266.00 527.00 L 279.00 510.00 L 297.00 494.00 L 326.00 482.00 L 366.00 474.00 L 398.00 444.00 L 422.00 392.00 L 445.00 373.00 L 467.00 387.00 L 489.00 386.00 L 511.00 370.00 L 531.00 361.00 L 549.00 359.00 L 577.00 365.00 L 615.00 379.00 L 635.00 404.00 L 637.00 440.00 L 638.00 441.00 L 638.00 407.00 L 640.00 407.00 L 644.00 441.00 L 646.00 443.00 L 646.00 413.00 L 648.00 412.00 L 652.00 440.00 L 654.00 445.00 L 654.00 427.00 L 656.00 427.00 L 660.00 445.00 L 680.00 456.00 L 716.00 460.00 L 763.00 473.00 L 821.00 495.00 L 860.00 514.00 L 880.00 530.00 L 896.00 556.00 L 908.00 592.00 L 915.00 645.00 L 917.00 715.00 L 937.00 778.00 L 975.00 834.00 L 983.00 874.00 L 961.00 898.00 L 951.00 920.00 L 953.00 940.00 L 949.00 955.00 L 939.00 965.00 L 935.00 975.00 L 937.00 985.00 L 934.00 997.00 L 926.00 1011.00 L 923.00 1031.00 L 925.00 1057.00 L 920.00 1075.00 L 908.00 1085.00 L 875.00 1094.00 L 821.00 1102.00 L 788.00 1119.00 L 776.00 1145.00 L 821.00 1241.00 L 923.00 1407.00 L 970.00 1485.00 L 962.00 1475.00 L 964.00 1480.00 L 976.00 1500.00 L 975.00 1499.00 L 961.00 1477.00 L 962.00 1479.00 L 978.00 1505.00 L 975.00 1502.00 L 953.00 1470.00 L 954.00 1474.00 L 978.00 1514.00 L 935.00 1444.00 L 825.00 1264.00 L 826.00 1267.00 L 938.00 1453.00 L 972.00 1513.00 L 928.00 1447.00 L 927.00 1450.00 L 969.00 1522.00 L 967.00 1520.00 L 921.00 1444.00 L 921.00 1449.00 L 967.00 1535.00 L 934.00 1479.00 L 822.00 1281.00 L 822.00 1283.00 L 934.00 1485.00 L 935.00 1487.00 L 825.00 1289.00 L 825.00 1290.00 L 935.00 1490.00 L 959.00 1536.00 L 897.00 1428.00 L 896.00 1430.00 L 956.00 1542.00 L 954.00 1540.00 L 890.00 1424.00 L 889.00 1426.00 L 951.00 1546.00 L 929.00 1505.00 L 823.00 1303.00 L 822.00 1305.00 L 926.00 1511.00 L 942.00 1546.00 L 870.00 1410.00 L 869.00 1413.00 L 939.00 1555.00 L 922.00 1522.00 L 818.00 1314.00 L 817.00 1316.00 L 919.00 1528.00 L 931.00 1556.00 L 853.00 1400.00 L 851.00 1402.00 L 925.00 1562.00 L 914.00 1539.00 L 818.00 1333.00 L 817.00 1335.00 L 911.00 1545.00 L 911.00 1548.00 L 817.00 1344.00 L 815.00 1347.00 L 905.00 1557.00 L 905.00 1559.00 L 815.00 1353.00 L 813.00 1355.00 L 899.00 1565.00 L 901.00 1572.00 L 819.00 1376.00 L 818.00 1377.00 L 898.00 1575.00 L 934.00 1681.00 L 926.00 1695.00 L 916.00 1688.00 L 904.00 1660.00 L 902.00 1659.00 L 910.00 1685.00 L 905.00 1682.00 L 887.00 1650.00 L 881.00 1646.00 L 887.00 1670.00 L 885.00 1668.00 L 875.00 1640.00 L 874.00 1639.00 L 882.00 1665.00 L 881.00 1664.00 L 871.00 1636.00 L 826.00 1591.00 L 746.00 1529.00 L 672.00 1480.00 L 604.00 1444.00 L 539.00 1416.00 L 477.00 1396.00 L 449.00 1365.00 L 455.00 1323.00 L 467.00 1281.00 L 485.00 1239.00 L 497.00 1198.00 L 503.00 1158.00 L 506.00 1118.00 L 506.00 1078.00 L 501.00 1044.00 L 491.00 1016.00 L 485.00 1000.00 L 483.00 996.00 L 470.00 979.00 Z" fill="black" stroke="black" stroke-width="1"/>
</svg>