<?xml version="1.0" encoding="UTF-8"?>
<svg xmlns="http://www.w3.org/2000/svg" viewBox="336.00 256.00 786.00 1426.00">
  <path d="M 520.00 929.00 L 500.00 887.00 L 477.00 857.00 L 451.00 839.00 L 445.00 832.00 L 459.00 836.00 L 457.00 831.00 L 439.00 817.00 L 426.00 788.00 L 418.00 744.00 L 402.00 711.00 L 378.00 689.00 L 379.00 687.00 L 405.00 705.00 L 402.00 699.00 L 370.00 669.00 L 370.00 666.00 L 402.00 690.00 L 400.00 687.00 L 364.00 657.00 L 346.00 621.00 L 346.00 579.00 L 356.00 546.00 L 376.00 522.00 L 380.00 499.00 L 368.00 477.00 L 370.00 475.00 L 386.00 493.00 L 385.00 488.00 L 367.00 460.00 L 370.00 429.00 L 394.00 395.00 L 420.00 373.00 L 448.00 363.00 L 477.00 359.00 L 507.00 361.00 L 536.00 338.00 L 564.00 290.00 L 584.00 266.00 L 596.00 266.00 L 609.00 274.00 L 623.00 290.00 L 651.00 289.00 L 693.00 271.00 L 734.00 273.00 L 774.00 295.00 L 794.00 329.00 L 794.00 375.00 L 796.00 377.00 L 800.00 335.00 L 802.00 335.00 L 802.00 377.00 L 804.00 379.00 L 808.00 341.00 L 810.00 341.00 L 810.00 379.00 L 812.00 382.00 L 816.00 350.00 L 819.00 350.00 L 821.00 382.00 L 834.00 400.00 L 858.00 404.00 L 907.00 425.00 L 981.00 463.00 L 1025.00 489.00 L 1039.00 503.00 L 1044.00 517.00 L 1040.00 531.00 L 1043.00 536.00 L 1053.00 532.00 L 1056.00 537.00 L 1052.00 551.00 L 1054.00 555.00 L 1062.00 549.00 L 1063.00 552.00 L 1057.00 564.00 L 1059.00 566.00 L 1069.00 558.00 L 1070.00 560.00 L 1062.00 572.00 L 1063.00 574.00 L 1073.00 566.00 L 1073.00 569.00 L 1063.00 583.00 L 1065.00 586.00 L 1079.00 578.00 L 1080.00 584.00 L 1068.00 604.00 L 1070.00 607.00 L 1086.00 593.00 L 1086.00 596.00 L 1070.00 616.00 L 1070.00 619.00 L 1086.00 605.00 L 1086.00 608.00 L 1070.00 628.00 L 1070.00 630.00 L 1086.00 614.00 L 1086.00 617.00 L 1070.00 639.00 L 1069.00 644.00 L 1083.00 632.00 L 1083.00 635.00 L 1069.00 653.00 L 1059.00 686.00 L 1053.00 734.00 L 1066.00 790.00 L 1098.00 854.00 L 1112.00 891.00 L 1108.00 901.00 L 1095.00 911.00 L 1073.00 921.00 L 1060.00 939.00 L 1056.00 965.00 L 1043.00 995.00 L 1021.00 1029.00 L 1010.00 1059.00 L 1010.00 1085.00 L 1005.00 1103.00 L 995.00 1113.00 L 957.00 1119.00 L 891.00 1121.00 L 851.00 1130.00 L 837.00 1146.00 L 871.00 1266.00 L 953.00 1490.00 L 952.00 1492.00 L 868.00 1272.00 L 868.00 1274.00 L 952.00 1498.00 L 995.00 1613.00 L 997.00 1619.00 L 988.00 1599.00 L 968.00 1553.00 L 967.00 1555.00 L 985.00 1605.00 L 984.00 1603.00 L 964.00 1549.00 L 964.00 1551.00 L 984.00 1609.00 L 982.00 1607.00 L 958.00 1545.00 L 958.00 1548.00 L 982.00 1616.00 L 951.00 1530.00 L 865.00 1290.00 L 864.00 1293.00 L 948.00 1539.00 L 973.00 1616.00 L 939.00 1524.00 L 938.00 1528.00 L 970.00 1628.00 L 967.00 1624.00 L 929.00 1516.00 L 928.00 1518.00 L 964.00 1630.00 L 941.00 1559.00 L 859.00 1305.00 L 858.00 1308.00 L 938.00 1568.00 L 938.00 1570.00 L 858.00 1314.00 L 855.00 1319.00 L 929.00 1585.00 L 928.00 1587.00 L 852.00 1325.00 L 850.00 1327.00 L 922.00 1593.00 L 922.00 1595.00 L 850.00 1333.00 L 847.00 1336.00 L 913.00 1604.00 L 912.00 1605.00 L 844.00 1339.00 L 842.00 1341.00 L 906.00 1611.00 L 906.00 1613.00 L 842.00 1347.00 L 841.00 1348.00 L 903.00 1616.00 L 903.00 1619.00 L 841.00 1357.00 L 839.00 1359.00 L 897.00 1625.00 L 896.00 1627.00 L 836.00 1365.00 L 833.00 1369.00 L 887.00 1639.00 L 887.00 1642.00 L 833.00 1378.00 L 832.00 1379.00 L 884.00 1645.00 L 884.00 1650.00 L 832.00 1394.00 L 830.00 1397.00 L 878.00 1659.00 L 877.00 1657.00 L 827.00 1391.00 L 826.00 1392.00 L 874.00 1660.00 L 874.00 1663.00 L 826.00 1401.00 L 824.00 1398.00 L 868.00 1654.00 L 868.00 1656.00 L 824.00 1404.00 L 821.00 1393.00 L 859.00 1623.00 L 859.00 1626.00 L 821.00 1402.00 L 818.00 1400.00 L 850.00 1620.00 L 811.00 1672.00 L 701.00 1556.00 L 591.00 1466.00 L 481.00 1402.00 L 451.00 1314.00 L 501.00 1202.00 L 531.00 1117.00 L 541.00 1059.00 L 543.00 1012.00 L 537.00 976.00 L 533.00 956.00 L 531.00 952.00 L 520.00 929.00 Z" fill="black" stroke="black" stroke-width="1"/>
</svg>