<?xml version="1.0" encoding="UTF-8"?>
<svg xmlns="http://www.w3.org/2000/svg" viewBox="341.00 298.00 758.00 1390.00">
  <path d="M 426.00 979.00 L 418.00 957.00 L 414.00 938.00 L 414.00 922.00 L 408.00 889.00 L 396.00 839.00 L 381.00 790.00 L 363.00 742.00 L 353.00 706.00 L 351.00 682.00 L 352.00 648.00 L 356.00 604.00 L 371.00 551.00 L 397.00 489.00 L 418.00 449.00 L 434.00 431.00 L 461.00 407.00 L 499.00 377.00 L 552.00 348.00 L 620.00 320.00 L 667.00 308.00 L 693.00 312.00 L 723.00 312.00 L 757.00 308.00 L 806.00 321.00 L 870.00 351.00 L 911.00 378.00 L 929.00 402.00 L 946.00 421.00 L 962.00 435.00 L 967.00 452.00 L 961.00 472.00 L 963.00 474.00 L 973.00 458.00 L 974.00 461.00 L 966.00 483.00 L 967.00 484.00 L 977.00 464.00 L 979.00 462.00 L 973.00 478.00 L 974.00 479.00 L 982.00 465.00 L 982.00 470.00 L 974.00 494.00 L 975.00 496.00 L 985.00 476.00 L 986.00 479.00 L 978.00 505.00 L 979.00 507.00 L 989.00 485.00 L 990.00 489.00 L 982.00 519.00 L 983.00 524.00 L 993.00 504.00 L 994.00 508.00 L 986.00 536.00 L 987.00 541.00 L 997.00 523.00 L 998.00 525.00 L 990.00 547.00 L 990.00 550.00 L 998.00 534.00 L 998.00 536.00 L 990.00 556.00 L 992.00 558.00 L 1004.00 542.00 L 1005.00 544.00 L 995.00 564.00 L 994.00 589.00 L 1002.00 619.00 L 1004.00 646.00 L 1000.00 670.00 L 999.00 687.00 L 1001.00 697.00 L 1023.00 730.00 L 1065.00 786.00 L 1087.00 818.00 L 1089.00 826.00 L 1089.00 835.00 L 1087.00 845.00 L 1077.00 857.00 L 1059.00 871.00 L 1051.00 887.00 L 1053.00 905.00 L 1051.00 919.00 L 1045.00 929.00 L 1044.00 942.00 L 1048.00 958.00 L 1046.00 972.00 L 1038.00 984.00 L 1037.00 1000.00 L 1043.00 1020.00 L 1044.00 1037.00 L 1040.00 1051.00 L 1028.00 1067.00 L 1008.00 1085.00 L 989.00 1096.00 L 971.00 1100.00 L 965.00 1106.00 L 971.00 1114.00 L 970.00 1125.00 L 962.00 1139.00 L 962.00 1151.00 L 970.00 1161.00 L 969.00 1163.00 L 959.00 1157.00 L 959.00 1161.00 L 969.00 1175.00 L 968.00 1177.00 L 956.00 1167.00 L 955.00 1169.00 L 965.00 1183.00 L 967.00 1193.00 L 961.00 1199.00 L 964.00 1210.00 L 976.00 1226.00 L 977.00 1229.00 L 967.00 1219.00 L 968.00 1221.00 L 980.00 1235.00 L 977.00 1233.00 L 959.00 1215.00 L 960.00 1218.00 L 980.00 1242.00 L 994.00 1262.00 L 1002.00 1278.00 L 1005.00 1288.00 L 1003.00 1292.00 L 995.00 1290.00 L 981.00 1282.00 L 966.00 1268.00 L 950.00 1248.00 L 948.00 1247.00 L 960.00 1265.00 L 957.00 1264.00 L 939.00 1244.00 L 953.00 1273.00 L 999.00 1351.00 L 999.00 1354.00 L 953.00 1282.00 L 957.00 1290.00 L 1011.00 1378.00 L 1009.00 1376.00 L 951.00 1284.00 L 955.00 1293.00 L 1021.00 1403.00 L 1027.00 1415.00 L 973.00 1329.00 L 973.00 1331.00 L 1027.00 1421.00 L 1058.00 1480.00 L 1066.00 1508.00 L 1072.00 1541.00 L 1076.00 1579.00 L 1076.00 1608.00 L 1072.00 1628.00 L 1062.00 1649.00 L 1046.00 1671.00 L 1030.00 1678.00 L 1014.00 1670.00 L 1001.00 1655.00 L 991.00 1633.00 L 989.00 1632.00 L 995.00 1652.00 L 993.00 1650.00 L 983.00 1626.00 L 981.00 1626.00 L 987.00 1650.00 L 985.00 1648.00 L 975.00 1620.00 L 974.00 1619.00 L 982.00 1645.00 L 978.00 1642.00 L 962.00 1610.00 L 940.00 1587.00 L 912.00 1573.00 L 872.00 1547.00 L 820.00 1509.00 L 775.00 1482.00 L 737.00 1466.00 L 700.00 1453.00 L 664.00 1443.00 L 630.00 1436.00 L 598.00 1432.00 L 561.00 1430.00 L 519.00 1430.00 L 475.00 1433.00 L 429.00 1439.00 L 400.00 1438.00 L 388.00 1430.00 L 381.00 1413.00 L 379.00 1387.00 L 390.00 1330.00 L 414.00 1242.00 L 422.00 1187.00 L 414.00 1165.00 L 410.00 1142.00 L 410.00 1118.00 L 412.00 1087.00 L 416.00 1049.00 L 422.00 1022.00 L 430.00 1006.00 L 433.00 996.00 L 431.00 992.00 L 426.00 979.00 Z" fill="black" stroke="black" stroke-width="1"/>
</svg>