<?xml version="1.0" encoding="UTF-8"?>
<svg xmlns="http://www.w3.org/2000/svg" viewBox="300.00 378.00 748.00 1337.00">
  <path d="M 360.00 1042.00 L 364.00 1010.00 L 370.00 988.00 L 378.00 976.00 L 382.00 967.00 L 382.00 961.00 L 378.00 955.00 L 370.00 949.00 L 370.00 947.00 L 378.00 949.00 L 377.00 948.00 L 367.00 944.00 L 368.00 942.00 L 380.00 942.00 L 380.00 939.00 L 368.00 933.00 L 357.00 912.00 L 347.00 876.00 L 336.00 807.00 L 324.00 705.00 L 322.00 636.00 L 330.00 600.00 L 338.00 573.00 L 346.00 555.00 L 364.00 525.00 L 392.00 483.00 L 420.00 450.00 L 448.00 426.00 L 475.00 409.00 L 501.00 399.00 L 549.00 392.00 L 619.00 388.00 L 670.00 388.00 L 702.00 392.00 L 736.00 399.00 L 772.00 409.00 L 813.00 429.00 L 859.00 459.00 L 884.00 478.00 L 888.00 486.00 L 890.00 498.00 L 890.00 514.00 L 892.00 516.00 L 896.00 504.00 L 898.00 505.00 L 898.00 519.00 L 901.00 521.00 L 907.00 511.00 L 908.00 512.00 L 904.00 524.00 L 905.00 525.00 L 911.00 515.00 L 912.00 518.00 L 908.00 534.00 L 909.00 535.00 L 915.00 521.00 L 917.00 520.00 L 915.00 532.00 L 916.00 533.00 L 920.00 523.00 L 919.00 526.00 L 913.00 542.00 L 914.00 543.00 L 922.00 529.00 L 927.00 524.00 L 929.00 528.00 L 927.00 538.00 L 921.00 554.00 L 922.00 556.00 L 930.00 544.00 L 931.00 547.00 L 925.00 565.00 L 928.00 596.00 L 940.00 640.00 L 945.00 672.00 L 943.00 692.00 L 960.00 721.00 L 996.00 759.00 L 1022.00 794.00 L 1038.00 826.00 L 1036.00 849.00 L 1016.00 863.00 L 1004.00 872.00 L 1000.00 876.00 L 1009.00 871.00 L 1031.00 857.00 L 1030.00 860.00 L 1006.00 880.00 L 994.00 909.00 L 994.00 947.00 L 991.00 974.00 L 985.00 990.00 L 985.00 1006.00 L 991.00 1022.00 L 993.00 1038.00 L 991.00 1054.00 L 981.00 1070.00 L 963.00 1086.00 L 936.00 1099.00 L 900.00 1109.00 L 883.00 1124.00 L 885.00 1144.00 L 890.00 1157.00 L 898.00 1163.00 L 897.00 1164.00 L 887.00 1160.00 L 889.00 1163.00 L 903.00 1173.00 L 904.00 1175.00 L 892.00 1169.00 L 897.00 1179.00 L 919.00 1205.00 L 923.00 1214.00 L 909.00 1206.00 L 910.00 1209.00 L 926.00 1223.00 L 939.00 1241.00 L 949.00 1263.00 L 940.00 1263.00 L 912.00 1241.00 L 911.00 1242.00 L 937.00 1266.00 L 940.00 1270.00 L 920.00 1254.00 L 918.00 1254.00 L 934.00 1270.00 L 936.00 1273.00 L 924.00 1263.00 L 922.00 1262.00 L 930.00 1270.00 L 922.00 1263.00 L 898.00 1241.00 L 896.00 1240.00 L 916.00 1260.00 L 917.00 1263.00 L 899.00 1249.00 L 888.00 1246.00 L 884.00 1254.00 L 906.00 1292.00 L 954.00 1360.00 L 977.00 1393.00 L 975.00 1391.00 L 979.00 1399.00 L 989.00 1417.00 L 1003.00 1452.00 L 1021.00 1504.00 L 1028.00 1528.00 L 1024.00 1524.00 L 1026.00 1535.00 L 1034.00 1561.00 L 1038.00 1607.00 L 1038.00 1673.00 L 1031.00 1705.00 L 1017.00 1703.00 L 982.00 1684.00 L 926.00 1648.00 L 860.00 1612.00 L 784.00 1576.00 L 699.00 1543.00 L 605.00 1513.00 L 540.00 1495.00 L 504.00 1489.00 L 477.00 1482.00 L 459.00 1474.00 L 421.00 1468.00 L 363.00 1464.00 L 330.00 1460.00 L 322.00 1456.00 L 316.00 1450.00 L 312.00 1442.00 L 310.00 1422.00 L 310.00 1390.00 L 324.00 1328.00 L 352.00 1236.00 L 362.00 1180.00 L 354.00 1160.00 L 351.00 1129.00 L 353.00 1087.00 L 355.00 1064.00 L 357.00 1060.00 L 360.00 1042.00 Z" fill="black" stroke="black" stroke-width="1"/>
</svg>