<?xml version="1.0" encoding="UTF-8"?>
<svg xmlns="http://www.w3.org/2000/svg" viewBox="231.00 278.00 965.00 1495.00">
  <path d="M 419.00 962.00 L 397.00 946.00 L 390.00 938.00 L 398.00 938.00 L 387.00 934.00 L 357.00 926.00 L 330.00 912.00 L 306.00 892.00 L 280.00 854.00 L 252.00 798.00 L 241.00 731.00 L 247.00 653.00 L 265.00 581.00 L 295.00 515.00 L 333.00 458.00 L 379.00 410.00 L 422.00 377.00 L 462.00 359.00 L 503.00 352.00 L 545.00 356.00 L 580.00 370.00 L 608.00 394.00 L 630.00 394.00 L 646.00 370.00 L 659.00 363.00 L 669.00 373.00 L 688.00 363.00 L 716.00 333.00 L 741.00 316.00 L 763.00 312.00 L 791.00 318.00 L 825.00 334.00 L 844.00 325.00 L 848.00 291.00 L 850.00 294.00 L 850.00 334.00 L 852.00 332.00 L 856.00 288.00 L 857.00 291.00 L 855.00 341.00 L 857.00 340.00 L 863.00 288.00 L 864.00 290.00 L 860.00 346.00 L 862.00 349.00 L 870.00 299.00 L 872.00 297.00 L 868.00 343.00 L 869.00 345.00 L 875.00 303.00 L 876.00 300.00 L 872.00 336.00 L 873.00 339.00 L 879.00 309.00 L 885.00 321.00 L 891.00 375.00 L 896.00 397.00 L 900.00 387.00 L 903.00 391.00 L 905.00 409.00 L 907.00 415.00 L 909.00 409.00 L 924.00 409.00 L 952.00 415.00 L 965.00 424.00 L 963.00 436.00 L 966.00 437.00 L 974.00 427.00 L 980.00 435.00 L 984.00 461.00 L 995.00 479.00 L 1013.00 489.00 L 1020.00 502.00 L 1016.00 518.00 L 1019.00 521.00 L 1029.00 511.00 L 1032.00 518.00 L 1028.00 542.00 L 1031.00 545.00 L 1041.00 527.00 L 1045.00 538.00 L 1043.00 578.00 L 1048.00 590.00 L 1060.00 574.00 L 1061.00 577.00 L 1051.00 599.00 L 1053.00 601.00 L 1067.00 583.00 L 1068.00 586.00 L 1056.00 610.00 L 1058.00 613.00 L 1074.00 595.00 L 1075.00 597.00 L 1061.00 619.00 L 1062.00 621.00 L 1078.00 603.00 L 1079.00 606.00 L 1065.00 630.00 L 1064.00 635.00 L 1076.00 621.00 L 1076.00 623.00 L 1064.00 641.00 L 1064.00 643.00 L 1076.00 629.00 L 1077.00 631.00 L 1067.00 649.00 L 1065.00 683.00 L 1071.00 733.00 L 1090.00 790.00 L 1122.00 854.00 L 1126.00 899.00 L 1102.00 925.00 L 1092.00 950.00 L 1096.00 974.00 L 1091.00 1004.00 L 1077.00 1040.00 L 1076.00 1068.00 L 1088.00 1088.00 L 1086.00 1111.00 L 1070.00 1137.00 L 1030.00 1170.00 L 966.00 1210.00 L 993.00 1337.00 L 1111.00 1551.00 L 1175.00 1668.00 L 1185.00 1688.00 L 1181.00 1682.00 L 1163.00 1650.00 L 1163.00 1651.00 L 1181.00 1685.00 L 1179.00 1683.00 L 1157.00 1645.00 L 1159.00 1650.00 L 1185.00 1698.00 L 1182.00 1693.00 L 1150.00 1635.00 L 1151.00 1639.00 L 1185.00 1705.00 L 1183.00 1703.00 L 1145.00 1633.00 L 1146.00 1635.00 L 1186.00 1709.00 L 1183.00 1705.00 L 1137.00 1623.00 L 1137.00 1626.00 L 1183.00 1714.00 L 1137.00 1628.00 L 999.00 1368.00 L 1000.00 1376.00 L 1140.00 1652.00 L 1140.00 1655.00 L 1000.00 1385.00 L 1000.00 1388.00 L 1140.00 1664.00 L 1175.00 1735.00 L 1105.00 1601.00 L 1105.00 1606.00 L 1175.00 1750.00 L 1172.00 1747.00 L 1096.00 1597.00 L 1095.00 1600.00 L 1169.00 1756.00 L 1167.00 1754.00 L 1089.00 1594.00 L 1089.00 1597.00 L 1167.00 1763.00 L 1136.00 1700.00 L 996.00 1408.00 L 995.00 1410.00 L 1133.00 1706.00 L 1133.00 1708.00 L 995.00 1416.00 L 993.00 1421.00 L 1127.00 1723.00 L 1126.00 1725.00 L 990.00 1427.00 L 987.00 1430.00 L 1117.00 1734.00 L 1117.00 1736.00 L 987.00 1436.00 L 982.00 1431.00 L 1102.00 1721.00 L 1102.00 1724.00 L 982.00 1440.00 L 977.00 1434.00 L 1087.00 1706.00 L 1087.00 1709.00 L 977.00 1443.00 L 970.00 1435.00 L 1066.00 1685.00 L 1066.00 1689.00 L 970.00 1447.00 L 965.00 1442.00 L 1051.00 1674.00 L 1051.00 1676.00 L 965.00 1448.00 L 963.00 1446.00 L 1045.00 1670.00 L 1045.00 1673.00 L 963.00 1455.00 L 959.00 1451.00 L 1033.00 1661.00 L 1029.00 1730.00 L 947.00 1658.00 L 846.00 1582.00 L 726.00 1502.00 L 598.00 1437.00 L 462.00 1387.00 L 433.00 1299.00 L 511.00 1173.00 L 548.00 1097.00 L 544.00 1071.00 L 515.00 1038.00 L 461.00 998.00 L 433.00 976.00 L 431.00 972.00 L 419.00 962.00 Z" fill="black" stroke="black" stroke-width="1"/>
</svg>