<?xml version="1.0" encoding="UTF-8"?>
<svg xmlns="http://www.w3.org/2000/svg" viewBox="341.00 293.00 785.00 1399.00">
  <path d="M 459.00 968.00 L 469.00 956.00 L 475.00 942.00 L 477.00 926.00 L 482.00 918.00 L 490.00 918.00 L 489.00 917.00 L 479.00 915.00 L 481.00 915.00 L 495.00 917.00 L 488.00 911.00 L 460.00 897.00 L 439.00 882.00 L 425.00 866.00 L 407.00 837.00 L 385.00 795.00 L 368.00 753.00 L 356.00 711.00 L 351.00 674.00 L 353.00 642.00 L 365.00 600.00 L 387.00 548.00 L 398.00 511.00 L 398.00 489.00 L 441.00 440.00 L 527.00 364.00 L 588.00 324.00 L 624.00 320.00 L 655.00 313.00 L 681.00 303.00 L 729.00 305.00 L 799.00 319.00 L 863.00 350.00 L 921.00 398.00 L 946.00 437.00 L 938.00 467.00 L 939.00 468.00 L 949.00 440.00 L 950.00 442.00 L 942.00 474.00 L 943.00 477.00 L 953.00 451.00 L 955.00 453.00 L 949.00 483.00 L 950.00 486.00 L 958.00 462.00 L 959.00 460.00 L 953.00 480.00 L 954.00 483.00 L 962.00 469.00 L 963.00 471.00 L 957.00 489.00 L 954.00 500.00 L 954.00 504.00 L 958.00 497.00 L 966.00 479.00 L 968.00 483.00 L 964.00 509.00 L 966.00 513.00 L 974.00 495.00 L 974.00 497.00 L 966.00 519.00 L 967.00 521.00 L 977.00 503.00 L 978.00 505.00 L 970.00 527.00 L 972.00 529.00 L 984.00 511.00 L 985.00 514.00 L 975.00 538.00 L 976.00 539.00 L 988.00 517.00 L 989.00 518.00 L 979.00 542.00 L 977.00 548.00 L 983.00 536.00 L 985.00 539.00 L 983.00 557.00 L 988.00 554.00 L 1000.00 530.00 L 1001.00 532.00 L 991.00 560.00 L 992.00 562.00 L 1004.00 538.00 L 1005.00 541.00 L 995.00 571.00 L 995.00 579.00 L 1005.00 565.00 L 1007.00 572.00 L 1001.00 600.00 L 1005.00 606.00 L 1019.00 590.00 L 1020.00 592.00 L 1008.00 612.00 L 1002.00 636.00 L 1002.00 664.00 L 1025.00 707.00 L 1071.00 765.00 L 1094.00 799.00 L 1094.00 809.00 L 1085.00 820.00 L 1067.00 832.00 L 1066.00 834.00 L 1082.00 826.00 L 1079.00 829.00 L 1057.00 843.00 L 1047.00 863.00 L 1049.00 889.00 L 1044.00 918.00 L 1032.00 950.00 L 1028.00 984.00 L 1032.00 1020.00 L 1014.00 1052.00 L 974.00 1080.00 L 959.00 1100.00 L 969.00 1112.00 L 972.00 1122.00 L 968.00 1130.00 L 969.00 1138.00 L 975.00 1146.00 L 997.00 1169.00 L 1035.00 1207.00 L 1031.00 1205.00 L 985.00 1163.00 L 983.00 1166.00 L 1025.00 1214.00 L 1031.00 1224.00 L 1001.00 1196.00 L 999.00 1197.00 L 1025.00 1227.00 L 1024.00 1228.00 L 996.00 1200.00 L 994.00 1199.00 L 1018.00 1225.00 L 1017.00 1226.00 L 991.00 1202.00 L 988.00 1202.00 L 1008.00 1226.00 L 1005.00 1227.00 L 979.00 1205.00 L 971.00 1201.00 L 981.00 1215.00 L 980.00 1216.00 L 968.00 1204.00 L 966.00 1204.00 L 974.00 1216.00 L 972.00 1222.00 L 960.00 1222.00 L 988.00 1276.00 L 1056.00 1384.00 L 1063.00 1398.00 L 1009.00 1318.00 L 1013.00 1328.00 L 1075.00 1428.00 L 1073.00 1427.00 L 1007.00 1325.00 L 1007.00 1327.00 L 1073.00 1433.00 L 1068.00 1426.00 L 992.00 1306.00 L 994.00 1313.00 L 1074.00 1447.00 L 1073.00 1448.00 L 991.00 1316.00 L 991.00 1318.00 L 1073.00 1454.00 L 1075.00 1458.00 L 997.00 1330.00 L 998.00 1336.00 L 1078.00 1476.00 L 1075.00 1473.00 L 989.00 1327.00 L 989.00 1330.00 L 1075.00 1482.00 L 1116.00 1571.00 L 1112.00 1597.00 L 1100.00 1623.00 L 1080.00 1649.00 L 1063.00 1667.00 L 1049.00 1677.00 L 1032.00 1682.00 L 1012.00 1682.00 L 996.00 1670.00 L 984.00 1646.00 L 980.00 1642.00 L 984.00 1658.00 L 983.00 1657.00 L 977.00 1639.00 L 958.00 1620.00 L 926.00 1600.00 L 895.00 1573.00 L 865.00 1539.00 L 813.00 1498.00 L 739.00 1450.00 L 681.00 1419.00 L 639.00 1405.00 L 588.00 1393.00 L 528.00 1383.00 L 489.00 1379.00 L 471.00 1381.00 L 451.00 1378.00 L 429.00 1370.00 L 415.00 1360.00 L 409.00 1348.00 L 406.00 1327.00 L 406.00 1297.00 L 415.00 1251.00 L 433.00 1189.00 L 439.00 1137.00 L 433.00 1095.00 L 435.00 1052.00 L 445.00 1008.00 L 451.00 983.00 L 453.00 977.00 L 459.00 968.00 Z" fill="black" stroke="black" stroke-width="1"/>
</svg>