<?xml version="1.0" encoding="UTF-8"?>
<svg xmlns="http://www.w3.org/2000/svg" viewBox="329.00 246.00 922.00 1390.00">
  <path d="M 438.00 954.00 L 414.00 938.00 L 397.00 920.00 L 387.00 900.00 L 372.00 855.00 L 352.00 785.00 L 341.00 725.00 L 339.00 675.00 L 354.00 607.00 L 386.00 521.00 L 420.00 457.00 L 456.00 415.00 L 510.00 372.00 L 582.00 328.00 L 658.00 315.00 L 738.00 333.00 L 812.00 341.00 L 880.00 339.00 L 982.00 317.00 L 1118.00 275.00 L 1191.00 256.00 L 1201.00 260.00 L 1215.00 284.00 L 1233.00 328.00 L 1241.00 372.00 L 1239.00 416.00 L 1229.00 470.00 L 1211.00 534.00 L 1187.00 592.00 L 1157.00 644.00 L 1149.00 664.00 L 1163.00 652.00 L 1164.00 655.00 L 1152.00 673.00 L 1154.00 675.00 L 1170.00 661.00 L 1171.00 664.00 L 1157.00 684.00 L 1159.00 687.00 L 1177.00 673.00 L 1178.00 677.00 L 1162.00 699.00 L 1163.00 702.00 L 1181.00 686.00 L 1182.00 690.00 L 1166.00 714.00 L 1166.00 721.00 L 1182.00 711.00 L 1182.00 714.00 L 1166.00 730.00 L 1166.00 733.00 L 1182.00 723.00 L 1182.00 726.00 L 1166.00 742.00 L 1167.00 745.00 L 1185.00 735.00 L 1185.00 738.00 L 1167.00 754.00 L 1168.00 756.00 L 1188.00 744.00 L 1188.00 747.00 L 1168.00 765.00 L 1170.00 767.00 L 1194.00 753.00 L 1194.00 754.00 L 1170.00 770.00 L 1171.00 772.00 L 1197.00 760.00 L 1197.00 763.00 L 1171.00 781.00 L 1171.00 783.00 L 1197.00 769.00 L 1197.00 774.00 L 1171.00 798.00 L 1172.00 839.00 L 1200.00 897.00 L 1197.00 939.00 L 1163.00 965.00 L 1137.00 1018.00 L 1119.00 1098.00 L 1100.00 1145.00 L 1080.00 1159.00 L 1059.00 1166.00 L 1037.00 1166.00 L 1028.00 1171.00 L 1032.00 1181.00 L 1030.00 1181.00 L 1022.00 1171.00 L 1021.00 1173.00 L 1027.00 1187.00 L 1025.00 1198.00 L 1015.00 1206.00 L 1035.00 1261.00 L 1085.00 1363.00 L 1084.00 1366.00 L 1032.00 1270.00 L 1058.00 1325.00 L 1162.00 1531.00 L 1204.00 1617.00 L 1184.00 1583.00 L 1184.00 1586.00 L 1204.00 1626.00 L 1162.00 1542.00 L 1058.00 1334.00 L 1058.00 1337.00 L 1162.00 1551.00 L 1162.00 1553.00 L 1058.00 1343.00 L 1056.00 1348.00 L 1156.00 1568.00 L 1155.00 1570.00 L 1053.00 1354.00 L 1051.00 1356.00 L 1149.00 1576.00 L 1148.00 1579.00 L 1048.00 1365.00 L 1044.00 1368.00 L 1136.00 1588.00 L 1135.00 1590.00 L 1041.00 1374.00 L 1037.00 1374.00 L 1123.00 1590.00 L 1123.00 1593.00 L 1037.00 1383.00 L 1034.00 1382.00 L 1114.00 1590.00 L 1114.00 1595.00 L 1034.00 1397.00 L 1029.00 1395.00 L 1099.00 1589.00 L 1103.00 1606.00 L 1041.00 1446.00 L 1034.00 1443.00 L 1082.00 1597.00 L 1080.00 1596.00 L 1028.00 1440.00 L 1024.00 1437.00 L 1068.00 1587.00 L 1066.00 1586.00 L 1018.00 1434.00 L 1014.00 1430.00 L 1054.00 1574.00 L 1052.00 1572.00 L 1008.00 1424.00 L 1007.00 1423.00 L 1049.00 1569.00 L 1047.00 1571.00 L 1001.00 1429.00 L 996.00 1426.00 L 1032.00 1562.00 L 1033.00 1574.00 L 999.00 1462.00 L 995.00 1459.00 L 1021.00 1565.00 L 1018.00 1555.00 L 986.00 1429.00 L 983.00 1427.00 L 1009.00 1549.00 L 1009.00 1554.00 L 983.00 1442.00 L 980.00 1440.00 L 1000.00 1548.00 L 941.00 1556.00 L 803.00 1464.00 L 689.00 1403.00 L 599.00 1373.00 L 547.00 1347.00 L 533.00 1325.00 L 527.00 1304.00 L 529.00 1284.00 L 544.00 1256.00 L 572.00 1220.00 L 598.00 1169.00 L 622.00 1103.00 L 609.00 1078.00 L 559.00 1094.00 L 560.00 1091.00 L 612.00 1069.00 L 606.00 1068.00 L 542.00 1088.00 L 542.00 1086.00 L 606.00 1062.00 L 604.00 1060.00 L 536.00 1080.00 L 536.00 1078.00 L 604.00 1054.00 L 603.00 1051.00 L 533.00 1069.00 L 532.00 1067.00 L 600.00 1045.00 L 599.00 1043.00 L 529.00 1061.00 L 494.00 1057.00 L 494.00 1031.00 L 477.00 1016.00 L 443.00 1012.00 L 443.00 1008.00 L 477.00 1004.00 L 477.00 1000.00 L 443.00 996.00 L 438.00 993.00 L 462.00 991.00 L 463.00 988.00 L 441.00 984.00 L 434.00 979.00 L 442.00 973.00 L 447.00 968.00 L 449.00 964.00 L 438.00 954.00 Z" fill="black" stroke="black" stroke-width="1"/>
</svg>