<?xml version="1.0" encoding="UTF-8"?>
<svg xmlns="http://www.w3.org/2000/svg" viewBox="334.00 340.00 718.00 1313.00">
  <path d="M 493.00 917.00 L 427.00 843.00 L 391.00 778.00 L 385.00 722.00 L 375.00 687.00 L 361.00 673.00 L 362.00 671.00 L 378.00 681.00 L 377.00 679.00 L 359.00 665.00 L 348.00 649.00 L 344.00 631.00 L 349.00 602.00 L 363.00 562.00 L 389.00 528.00 L 427.00 500.00 L 453.00 461.00 L 467.00 411.00 L 485.00 387.00 L 507.00 389.00 L 531.00 380.00 L 557.00 360.00 L 593.00 350.00 L 639.00 350.00 L 665.00 369.00 L 671.00 407.00 L 673.00 408.00 L 671.00 372.00 L 673.00 371.00 L 679.00 405.00 L 681.00 406.00 L 679.00 374.00 L 683.00 374.00 L 693.00 406.00 L 697.00 411.00 L 695.00 389.00 L 698.00 389.00 L 706.00 411.00 L 748.00 430.00 L 824.00 446.00 L 884.00 466.00 L 928.00 490.00 L 950.00 514.00 L 950.00 538.00 L 954.00 542.00 L 962.00 526.00 L 963.00 527.00 L 957.00 545.00 L 958.00 546.00 L 966.00 530.00 L 966.00 532.00 L 958.00 552.00 L 960.00 555.00 L 972.00 541.00 L 974.00 543.00 L 966.00 561.00 L 967.00 563.00 L 977.00 549.00 L 978.00 551.00 L 970.00 569.00 L 971.00 571.00 L 981.00 557.00 L 982.00 561.00 L 974.00 583.00 L 975.00 586.00 L 985.00 570.00 L 986.00 572.00 L 978.00 592.00 L 979.00 594.00 L 989.00 578.00 L 990.00 580.00 L 982.00 600.00 L 983.00 603.00 L 993.00 589.00 L 993.00 594.00 L 983.00 618.00 L 985.00 621.00 L 999.00 603.00 L 999.00 605.00 L 985.00 627.00 L 986.00 629.00 L 1002.00 611.00 L 1003.00 613.00 L 989.00 635.00 L 990.00 638.00 L 1006.00 622.00 L 1006.00 625.00 L 990.00 647.00 L 990.00 648.00 L 1006.00 628.00 L 1006.00 630.00 L 990.00 654.00 L 990.00 656.00 L 1006.00 636.00 L 1006.00 638.00 L 990.00 662.00 L 988.00 668.00 L 1000.00 656.00 L 1000.00 658.00 L 988.00 674.00 L 988.00 676.00 L 1000.00 664.00 L 1000.00 666.00 L 988.00 682.00 L 988.00 685.00 L 1000.00 675.00 L 1000.00 677.00 L 988.00 691.00 L 988.00 694.00 L 1000.00 686.00 L 999.00 696.00 L 985.00 724.00 L 994.00 768.00 L 1026.00 828.00 L 1032.00 865.00 L 1012.00 879.00 L 1002.00 898.00 L 1002.00 922.00 L 993.00 951.00 L 975.00 985.00 L 966.00 1016.00 L 966.00 1044.00 L 948.00 1066.00 L 912.00 1082.00 L 883.00 1089.00 L 861.00 1087.00 L 847.00 1094.00 L 841.00 1110.00 L 889.00 1212.00 L 991.00 1400.00 L 1039.00 1490.00 L 1033.00 1482.00 L 1034.00 1487.00 L 1042.00 1505.00 L 1036.00 1497.00 L 1016.00 1463.00 L 1016.00 1465.00 L 1036.00 1503.00 L 1034.00 1501.00 L 1010.00 1459.00 L 1010.00 1462.00 L 1034.00 1510.00 L 1033.00 1509.00 L 1007.00 1459.00 L 1007.00 1461.00 L 1033.00 1515.00 L 1030.00 1512.00 L 998.00 1452.00 L 998.00 1456.00 L 1030.00 1524.00 L 993.00 1451.00 L 887.00 1237.00 L 886.00 1240.00 L 990.00 1460.00 L 1020.00 1527.00 L 976.00 1441.00 L 975.00 1445.00 L 1017.00 1539.00 L 1014.00 1536.00 L 966.00 1436.00 L 965.00 1438.00 L 1011.00 1542.00 L 983.00 1481.00 L 881.00 1255.00 L 880.00 1258.00 L 980.00 1490.00 L 980.00 1491.00 L 880.00 1261.00 L 878.00 1265.00 L 974.00 1503.00 L 974.00 1506.00 L 878.00 1274.00 L 877.00 1277.00 L 971.00 1515.00 L 971.00 1518.00 L 877.00 1286.00 L 873.00 1290.00 L 959.00 1530.00 L 959.00 1533.00 L 873.00 1299.00 L 871.00 1300.00 L 953.00 1536.00 L 953.00 1538.00 L 871.00 1306.00 L 870.00 1310.00 L 950.00 1550.00 L 950.00 1553.00 L 870.00 1319.00 L 868.00 1322.00 L 944.00 1562.00 L 944.00 1565.00 L 868.00 1331.00 L 867.00 1332.00 L 941.00 1568.00 L 942.00 1574.00 L 870.00 1350.00 L 865.00 1347.00 L 927.00 1565.00 L 933.00 1643.00 L 883.00 1581.00 L 830.00 1532.00 L 774.00 1496.00 L 681.00 1452.00 L 551.00 1400.00 L 505.00 1302.00 L 543.00 1158.00 L 563.00 1072.00 L 565.00 1044.00 L 557.00 1013.00 L 539.00 979.00 L 529.00 960.00 L 527.00 956.00 L 493.00 917.00 Z" fill="black" stroke="black" stroke-width="1"/>
</svg>