<?xml version="1.0" encoding="UTF-8"?>
<svg xmlns="http://www.w3.org/2000/svg" viewBox="325.00 243.00 879.00 1532.00">
  <path d="M 464.00 994.00 L 468.00 986.00 L 464.00 971.00 L 452.00 949.00 L 444.00 922.00 L 440.00 890.00 L 411.00 808.00 L 357.00 676.00 L 335.00 576.00 L 345.00 508.00 L 368.00 443.00 L 404.00 381.00 L 437.00 337.00 L 467.00 311.00 L 491.00 294.00 L 509.00 286.00 L 537.00 277.00 L 575.00 267.00 L 631.00 259.00 L 705.00 253.00 L 781.00 261.00 L 859.00 283.00 L 919.00 306.00 L 961.00 330.00 L 983.00 355.00 L 985.00 381.00 L 989.00 384.00 L 995.00 364.00 L 999.00 367.00 L 1001.00 393.00 L 1005.00 398.00 L 1011.00 382.00 L 1012.00 383.00 L 1008.00 401.00 L 1011.00 404.00 L 1021.00 392.00 L 1024.00 394.00 L 1020.00 410.00 L 1022.00 412.00 L 1030.00 400.00 L 1031.00 402.00 L 1025.00 418.00 L 1027.00 421.00 L 1037.00 411.00 L 1039.00 414.00 L 1033.00 430.00 L 1035.00 432.00 L 1045.00 420.00 L 1047.00 423.00 L 1041.00 441.00 L 1041.00 445.00 L 1047.00 435.00 L 1049.00 437.00 L 1047.00 451.00 L 1051.00 450.00 L 1061.00 434.00 L 1062.00 436.00 L 1054.00 456.00 L 1055.00 457.00 L 1065.00 439.00 L 1067.00 441.00 L 1061.00 463.00 L 1063.00 467.00 L 1073.00 453.00 L 1075.00 456.00 L 1069.00 476.00 L 1074.00 504.00 L 1090.00 540.00 L 1096.00 577.00 L 1092.00 615.00 L 1116.00 667.00 L 1168.00 733.00 L 1194.00 772.00 L 1194.00 784.00 L 1182.00 798.00 L 1158.00 814.00 L 1147.00 839.00 L 1149.00 873.00 L 1145.00 894.00 L 1135.00 902.00 L 1130.00 912.00 L 1130.00 924.00 L 1122.00 941.00 L 1106.00 963.00 L 1101.00 983.00 L 1107.00 1001.00 L 1108.00 1018.00 L 1104.00 1034.00 L 1075.00 1057.00 L 1021.00 1087.00 L 998.00 1105.00 L 1006.00 1111.00 L 1004.00 1112.00 L 992.00 1108.00 L 994.00 1111.00 L 1010.00 1121.00 L 1014.00 1141.00 L 1006.00 1171.00 L 1009.00 1197.00 L 1023.00 1219.00 L 1021.00 1221.00 L 1003.00 1203.00 L 1019.00 1222.00 L 1069.00 1278.00 L 1070.00 1281.00 L 1022.00 1231.00 L 1022.00 1233.00 L 1070.00 1287.00 L 1068.00 1287.00 L 1016.00 1233.00 L 1014.00 1233.00 L 1062.00 1287.00 L 1068.00 1296.00 L 1032.00 1260.00 L 1029.00 1261.00 L 1059.00 1299.00 L 1057.00 1300.00 L 1023.00 1264.00 L 1019.00 1263.00 L 1045.00 1297.00 L 1044.00 1298.00 L 1016.00 1266.00 L 1014.00 1266.00 L 1038.00 1298.00 L 1038.00 1300.00 L 1014.00 1272.00 L 1012.00 1271.00 L 1032.00 1297.00 L 1031.00 1297.00 L 1009.00 1271.00 L 1007.00 1270.00 L 1025.00 1294.00 L 1025.00 1301.00 L 1007.00 1291.00 L 1037.00 1348.00 L 1115.00 1472.00 L 1112.00 1471.00 L 1028.00 1345.00 L 1029.00 1348.00 L 1115.00 1480.00 L 1114.00 1480.00 L 1026.00 1348.00 L 1027.00 1352.00 L 1117.00 1492.00 L 1132.00 1516.00 L 1072.00 1424.00 L 1072.00 1426.00 L 1132.00 1522.00 L 1119.00 1503.00 L 1033.00 1369.00 L 1033.00 1371.00 L 1119.00 1509.00 L 1115.00 1503.00 L 1021.00 1353.00 L 1022.00 1356.00 L 1118.00 1512.00 L 1167.00 1595.00 L 1169.00 1605.00 L 1122.00 1532.00 L 1026.00 1376.00 L 1026.00 1379.00 L 1122.00 1541.00 L 1119.00 1537.00 L 1017.00 1367.00 L 1017.00 1369.00 L 1119.00 1543.00 L 1170.00 1632.00 L 1170.00 1636.00 L 1119.00 1551.00 L 1017.00 1377.00 L 1017.00 1380.00 L 1119.00 1560.00 L 1118.00 1559.00 L 1014.00 1377.00 L 1013.00 1381.00 L 1115.00 1571.00 L 1114.00 1572.00 L 1010.00 1384.00 L 1010.00 1386.00 L 1114.00 1578.00 L 1157.00 1689.00 L 1139.00 1719.00 L 1117.00 1741.00 L 1091.00 1755.00 L 1069.00 1763.00 L 1051.00 1765.00 L 1036.00 1763.00 L 1024.00 1757.00 L 1015.00 1747.00 L 1009.00 1733.00 L 1007.00 1730.00 L 1009.00 1738.00 L 972.00 1702.00 L 896.00 1622.00 L 830.00 1565.00 L 774.00 1531.00 L 718.00 1506.00 L 662.00 1490.00 L 583.00 1477.00 L 481.00 1467.00 L 418.00 1458.00 L 394.00 1450.00 L 377.00 1434.00 L 367.00 1410.00 L 362.00 1386.00 L 362.00 1362.00 L 380.00 1307.00 L 416.00 1221.00 L 435.00 1153.00 L 437.00 1103.00 L 443.00 1060.00 L 453.00 1024.00 L 459.00 1004.00 L 461.00 1000.00 L 464.00 994.00 Z" fill="black" stroke="black" stroke-width="1"/>
</svg>