<?xml version="1.0" encoding="UTF-8"?>
<svg xmlns="http://www.w3.org/2000/svg" viewBox="350.00 318.00 846.00 1511.00">
  <path d="M 635.00 1016.00 L 629.00 1000.00 L 596.00 963.00 L 536.00 905.00 L 499.00 865.00 L 485.00 843.00 L 470.00 809.00 L 454.00 763.00 L 426.00 722.00 L 386.00 686.00 L 386.00 683.00 L 426.00 713.00 L 424.00 709.00 L 380.00 671.00 L 379.00 667.00 L 421.00 697.00 L 420.00 693.00 L 376.00 655.00 L 360.00 613.00 L 372.00 567.00 L 393.00 530.00 L 423.00 502.00 L 439.00 467.00 L 441.00 425.00 L 445.00 402.00 L 451.00 398.00 L 465.00 398.00 L 487.00 402.00 L 503.00 388.00 L 513.00 356.00 L 527.00 336.00 L 545.00 328.00 L 566.00 328.00 L 590.00 336.00 L 615.00 337.00 L 641.00 331.00 L 661.00 346.00 L 675.00 382.00 L 678.00 383.00 L 670.00 349.00 L 671.00 349.00 L 681.00 383.00 L 684.00 384.00 L 680.00 352.00 L 683.00 351.00 L 693.00 381.00 L 733.00 396.00 L 803.00 396.00 L 861.00 402.00 L 907.00 414.00 L 953.00 434.00 L 999.00 462.00 L 1030.00 490.00 L 1046.00 518.00 L 1051.00 539.00 L 1045.00 553.00 L 1046.00 555.00 L 1054.00 545.00 L 1057.00 548.00 L 1055.00 564.00 L 1057.00 566.00 L 1063.00 554.00 L 1064.00 556.00 L 1060.00 572.00 L 1063.00 574.00 L 1073.00 562.00 L 1074.00 564.00 L 1066.00 580.00 L 1067.00 582.00 L 1077.00 570.00 L 1078.00 573.00 L 1070.00 591.00 L 1072.00 593.00 L 1084.00 579.00 L 1085.00 582.00 L 1075.00 602.00 L 1076.00 605.00 L 1088.00 591.00 L 1089.00 594.00 L 1079.00 614.00 L 1079.00 660.00 L 1089.00 732.00 L 1114.00 794.00 L 1154.00 846.00 L 1161.00 883.00 L 1135.00 905.00 L 1124.00 926.00 L 1128.00 946.00 L 1126.00 960.00 L 1118.00 968.00 L 1111.00 983.00 L 1105.00 1005.00 L 1104.00 1026.00 L 1108.00 1046.00 L 1108.00 1066.00 L 1104.00 1086.00 L 1073.00 1109.00 L 1015.00 1135.00 L 998.00 1158.00 L 1022.00 1178.00 L 1030.00 1185.00 L 1022.00 1179.00 L 1023.00 1181.00 L 1033.00 1191.00 L 1029.00 1189.00 L 1011.00 1175.00 L 1011.00 1177.00 L 1029.00 1195.00 L 1023.00 1193.00 L 993.00 1171.00 L 991.00 1173.00 L 1017.00 1199.00 L 1019.00 1226.00 L 997.00 1254.00 L 1035.00 1348.00 L 1133.00 1508.00 L 1133.00 1510.00 L 1035.00 1354.00 L 1036.00 1356.00 L 1136.00 1516.00 L 1179.00 1585.00 L 1165.00 1563.00 L 1166.00 1565.00 L 1182.00 1591.00 L 1180.00 1589.00 L 1160.00 1559.00 L 1162.00 1565.00 L 1186.00 1607.00 L 1147.00 1546.00 L 1045.00 1382.00 L 1045.00 1385.00 L 1147.00 1555.00 L 1145.00 1552.00 L 1039.00 1376.00 L 1039.00 1378.00 L 1145.00 1558.00 L 1144.00 1557.00 L 1036.00 1375.00 L 1037.00 1377.00 L 1147.00 1563.00 L 1153.00 1574.00 L 1055.00 1410.00 L 1056.00 1415.00 L 1156.00 1589.00 L 1180.00 1632.00 L 1128.00 1544.00 L 1128.00 1547.00 L 1180.00 1641.00 L 1158.00 1604.00 L 1062.00 1436.00 L 1060.00 1438.00 L 1152.00 1610.00 L 1168.00 1642.00 L 1108.00 1534.00 L 1109.00 1538.00 L 1171.00 1654.00 L 1153.00 1625.00 L 1055.00 1451.00 L 1053.00 1454.00 L 1147.00 1634.00 L 1159.00 1658.00 L 1089.00 1526.00 L 1088.00 1528.00 L 1156.00 1664.00 L 1152.00 1660.00 L 1076.00 1516.00 L 1075.00 1519.00 L 1149.00 1669.00 L 1146.00 1666.00 L 1066.00 1510.00 L 1065.00 1512.00 L 1143.00 1672.00 L 1136.00 1658.00 L 1044.00 1470.00 L 1043.00 1471.00 L 1133.00 1661.00 L 1137.00 1672.00 L 1055.00 1504.00 L 1054.00 1506.00 L 1134.00 1678.00 L 1133.00 1677.00 L 1051.00 1503.00 L 1050.00 1507.00 L 1130.00 1689.00 L 1124.00 1679.00 L 1032.00 1477.00 L 1031.00 1480.00 L 1121.00 1688.00 L 1120.00 1690.00 L 1028.00 1486.00 L 1027.00 1489.00 L 1117.00 1699.00 L 1115.00 1696.00 L 1021.00 1480.00 L 1020.00 1482.00 L 1112.00 1702.00 L 1156.00 1809.00 L 1152.00 1803.00 L 1150.00 1804.00 L 1150.00 1812.00 L 1147.00 1817.00 L 1141.00 1819.00 L 1119.00 1797.00 L 1081.00 1751.00 L 1052.00 1723.00 L 1032.00 1713.00 L 998.00 1683.00 L 950.00 1633.00 L 880.00 1586.00 L 788.00 1542.00 L 703.00 1511.00 L 625.00 1493.00 L 585.00 1467.00 L 583.00 1433.00 L 594.00 1381.00 L 618.00 1311.00 L 625.00 1277.00 L 615.00 1279.00 L 603.00 1276.00 L 589.00 1268.00 L 584.00 1256.00 L 588.00 1240.00 L 599.00 1223.00 L 617.00 1205.00 L 621.00 1200.00 L 611.00 1208.00 L 613.00 1202.00 L 627.00 1182.00 L 623.00 1154.00 L 601.00 1118.00 L 604.00 1095.00 L 632.00 1085.00 L 635.00 1082.00 L 613.00 1086.00 L 613.00 1084.00 L 635.00 1076.00 L 644.00 1063.00 L 640.00 1045.00 L 638.00 1033.00 L 638.00 1027.00 L 635.00 1016.00 Z" fill="black" stroke="black" stroke-width="1"/>
</svg>