<?xml version="1.0" encoding="UTF-8"?>
<svg xmlns="http://www.w3.org/2000/svg" viewBox="283.00 260.00 817.00 1542.00">
  <path d="M 339.00 1081.00 L 293.00 1079.00 L 299.00 1078.00 L 357.00 1078.00 L 357.00 1076.00 L 299.00 1072.00 L 299.00 1069.00 L 357.00 1067.00 L 365.00 1064.00 L 323.00 1060.00 L 323.00 1056.00 L 365.00 1052.00 L 373.00 1047.00 L 347.00 1041.00 L 344.00 1037.00 L 364.00 1035.00 L 364.00 1032.00 L 344.00 1028.00 L 348.00 1026.00 L 376.00 1026.00 L 376.00 1023.00 L 348.00 1017.00 L 348.00 1014.00 L 376.00 1014.00 L 376.00 1007.00 L 348.00 993.00 L 349.00 989.00 L 379.00 995.00 L 380.00 992.00 L 352.00 980.00 L 352.00 977.00 L 380.00 983.00 L 381.00 980.00 L 355.00 968.00 L 356.00 965.00 L 384.00 971.00 L 385.00 968.00 L 359.00 956.00 L 360.00 955.00 L 388.00 965.00 L 389.00 962.00 L 363.00 946.00 L 364.00 942.00 L 392.00 950.00 L 392.00 945.00 L 364.00 927.00 L 366.00 925.00 L 398.00 939.00 L 399.00 936.00 L 369.00 916.00 L 370.00 914.00 L 402.00 930.00 L 402.00 927.00 L 370.00 905.00 L 348.00 844.00 L 336.00 744.00 L 336.00 647.00 L 348.00 553.00 L 368.00 478.00 L 396.00 422.00 L 434.00 375.00 L 482.00 337.00 L 527.00 309.00 L 569.00 291.00 L 628.00 278.00 L 704.00 270.00 L 765.00 275.00 L 811.00 293.00 L 863.00 342.00 L 921.00 422.00 L 958.00 481.00 L 974.00 519.00 L 984.00 561.00 L 988.00 607.00 L 1013.00 659.00 L 1059.00 717.00 L 1071.00 759.00 L 1049.00 785.00 L 1050.00 789.00 L 1074.00 771.00 L 1073.00 774.00 L 1047.00 798.00 L 1046.00 801.00 L 1070.00 783.00 L 1070.00 785.00 L 1046.00 807.00 L 1033.00 878.00 L 1031.00 998.00 L 1006.00 1068.00 L 958.00 1088.00 L 929.00 1111.00 L 919.00 1137.00 L 920.00 1159.00 L 932.00 1177.00 L 935.00 1189.00 L 929.00 1195.00 L 937.00 1205.00 L 959.00 1219.00 L 957.00 1220.00 L 931.00 1208.00 L 937.00 1213.00 L 975.00 1235.00 L 978.00 1238.00 L 946.00 1222.00 L 945.00 1225.00 L 975.00 1247.00 L 970.00 1247.00 L 930.00 1225.00 L 925.00 1224.00 L 955.00 1244.00 L 956.00 1249.00 L 928.00 1239.00 L 943.00 1258.00 L 1001.00 1306.00 L 998.00 1307.00 L 934.00 1261.00 L 944.00 1276.00 L 1028.00 1352.00 L 1057.00 1380.00 L 1031.00 1360.00 L 1035.00 1369.00 L 1069.00 1407.00 L 1067.00 1410.00 L 1029.00 1378.00 L 1036.00 1397.00 L 1088.00 1467.00 L 1086.00 1476.00 L 1030.00 1424.00 L 1030.00 1429.00 L 1086.00 1491.00 L 1090.00 1498.00 L 1042.00 1450.00 L 1039.00 1450.00 L 1081.00 1498.00 L 1083.00 1502.00 L 1045.00 1462.00 L 1045.00 1464.00 L 1083.00 1508.00 L 1085.00 1513.00 L 1051.00 1479.00 L 1049.00 1479.00 L 1079.00 1513.00 L 1080.00 1515.00 L 1052.00 1485.00 L 1047.00 1494.00 L 1065.00 1542.00 L 1076.00 1587.00 L 1080.00 1629.00 L 1080.00 1664.00 L 1076.00 1692.00 L 1063.00 1726.00 L 1041.00 1766.00 L 1022.00 1788.00 L 1006.00 1792.00 L 990.00 1780.00 L 974.00 1752.00 L 970.00 1749.00 L 978.00 1771.00 L 975.00 1768.00 L 961.00 1740.00 L 913.00 1684.00 L 831.00 1600.00 L 736.00 1537.00 L 628.00 1495.00 L 517.00 1465.00 L 403.00 1447.00 L 342.00 1413.00 L 334.00 1363.00 L 335.00 1318.00 L 345.00 1278.00 L 343.00 1260.00 L 329.00 1264.00 L 330.00 1262.00 L 346.00 1254.00 L 343.00 1254.00 L 321.00 1262.00 L 322.00 1259.00 L 346.00 1245.00 L 341.00 1243.00 L 307.00 1253.00 L 308.00 1250.00 L 344.00 1234.00 L 346.00 1231.00 L 314.00 1241.00 L 315.00 1238.00 L 349.00 1222.00 L 349.00 1219.00 L 315.00 1229.00 L 316.00 1224.00 L 352.00 1204.00 L 353.00 1199.00 L 319.00 1209.00 L 320.00 1206.00 L 356.00 1190.00 L 357.00 1187.00 L 323.00 1197.00 L 324.00 1195.00 L 360.00 1181.00 L 361.00 1178.00 L 327.00 1186.00 L 329.00 1182.00 L 367.00 1166.00 L 368.00 1160.00 L 332.00 1164.00 L 333.00 1160.00 L 371.00 1148.00 L 372.00 1144.00 L 336.00 1148.00 L 336.00 1146.00 L 372.00 1138.00 L 366.00 1136.00 L 318.00 1140.00 L 318.00 1137.00 L 366.00 1127.00 L 364.00 1125.00 L 312.00 1131.00 L 310.00 1128.00 L 358.00 1116.00 L 361.00 1111.00 L 319.00 1113.00 L 300.00 1111.00 L 304.00 1105.00 L 326.00 1101.00 L 366.00 1099.00 L 358.00 1096.00 L 302.00 1092.00 L 302.00 1089.00 L 358.00 1087.00 L 380.00 1085.00 L 368.00 1083.00 L 339.00 1081.00 Z" fill="black" stroke="black" stroke-width="1"/>
</svg>