<?xml version="1.0" encoding="UTF-8"?>
<svg xmlns="http://www.w3.org/2000/svg" viewBox="337.00 240.00 849.00 1546.00">
  <path d="M 507.00 1023.00 L 517.00 1009.00 L 521.00 996.00 L 519.00 984.00 L 461.00 874.00 L 347.00 666.00 L 368.00 502.00 L 524.00 382.00 L 611.00 320.00 L 629.00 316.00 L 646.00 308.00 L 662.00 296.00 L 680.00 279.00 L 700.00 257.00 L 716.00 250.00 L 728.00 258.00 L 744.00 261.00 L 764.00 259.00 L 836.00 359.00 L 960.00 561.00 L 1029.00 670.00 L 1043.00 686.00 L 1071.00 693.00 L 1113.00 691.00 L 1116.00 709.00 L 1080.00 747.00 L 1082.00 747.00 L 1122.00 709.00 L 1125.00 707.00 L 1091.00 741.00 L 1094.00 741.00 L 1134.00 707.00 L 1129.00 714.00 L 1079.00 762.00 L 1081.00 763.00 L 1135.00 717.00 L 1136.00 719.00 L 1084.00 769.00 L 1087.00 769.00 L 1145.00 719.00 L 1146.00 721.00 L 1090.00 775.00 L 1093.00 776.00 L 1155.00 724.00 L 1162.00 721.00 L 1114.00 767.00 L 1117.00 768.00 L 1171.00 724.00 L 1165.00 730.00 L 1099.00 786.00 L 1102.00 789.00 L 1174.00 739.00 L 1175.00 741.00 L 1105.00 795.00 L 1105.00 797.00 L 1175.00 747.00 L 1176.00 749.00 L 1108.00 803.00 L 1081.00 825.00 L 1095.00 815.00 L 1095.00 817.00 L 1081.00 831.00 L 1082.00 833.00 L 1098.00 823.00 L 1099.00 825.00 L 1085.00 839.00 L 1077.00 861.00 L 1075.00 891.00 L 1096.00 936.00 L 1140.00 996.00 L 1161.00 1031.00 L 1159.00 1041.00 L 1146.00 1054.00 L 1122.00 1070.00 L 1109.00 1090.00 L 1107.00 1114.00 L 1100.00 1141.00 L 1088.00 1171.00 L 1083.00 1201.00 L 1085.00 1231.00 L 1079.00 1251.00 L 1065.00 1261.00 L 1039.00 1270.00 L 1001.00 1278.00 L 984.00 1288.00 L 988.00 1300.00 L 985.00 1303.00 L 975.00 1297.00 L 980.00 1315.00 L 1000.00 1357.00 L 1000.00 1367.00 L 980.00 1345.00 L 983.00 1357.00 L 1009.00 1403.00 L 1008.00 1403.00 L 980.00 1357.00 L 980.00 1359.00 L 1008.00 1409.00 L 1016.00 1424.00 L 1004.00 1404.00 L 1003.00 1406.00 L 1013.00 1430.00 L 1008.00 1425.00 L 988.00 1391.00 L 987.00 1391.00 L 1005.00 1425.00 L 1003.00 1425.00 L 981.00 1391.00 L 978.00 1392.00 L 994.00 1428.00 L 992.00 1428.00 L 972.00 1392.00 L 969.00 1389.00 L 983.00 1419.00 L 982.00 1426.00 L 966.00 1410.00 L 958.00 1404.00 L 958.00 1408.00 L 979.00 1461.00 L 1021.00 1563.00 L 1019.00 1562.00 L 973.00 1458.00 L 974.00 1463.00 L 1022.00 1577.00 L 1020.00 1573.00 L 968.00 1451.00 L 969.00 1454.00 L 1023.00 1582.00 L 1024.00 1585.00 L 972.00 1463.00 L 970.00 1467.00 L 1018.00 1597.00 L 1015.00 1595.00 L 961.00 1461.00 L 961.00 1463.00 L 1015.00 1601.00 L 1014.00 1600.00 L 958.00 1460.00 L 958.00 1463.00 L 1014.00 1609.00 L 1034.00 1701.00 L 1018.00 1739.00 L 1002.00 1763.00 L 986.00 1773.00 L 972.00 1776.00 L 960.00 1772.00 L 951.00 1764.00 L 945.00 1752.00 L 905.00 1710.00 L 831.00 1638.00 L 770.00 1587.00 L 722.00 1557.00 L 672.00 1536.00 L 620.00 1524.00 L 559.00 1518.00 L 489.00 1518.00 L 449.00 1514.00 L 439.00 1506.00 L 431.00 1494.00 L 425.00 1478.00 L 435.00 1442.00 L 461.00 1386.00 L 473.00 1341.00 L 471.00 1307.00 L 478.00 1264.00 L 494.00 1212.00 L 509.00 1176.00 L 523.00 1156.00 L 529.00 1140.00 L 527.00 1128.00 L 506.00 1128.00 L 466.00 1140.00 L 467.00 1138.00 L 509.00 1122.00 L 507.00 1119.00 L 461.00 1129.00 L 461.00 1127.00 L 507.00 1113.00 L 508.00 1111.00 L 464.00 1121.00 L 465.00 1118.00 L 511.00 1102.00 L 513.00 1097.00 L 471.00 1103.00 L 471.00 1101.00 L 513.00 1091.00 L 514.00 1090.00 L 474.00 1098.00 L 464.00 1087.00 L 484.00 1057.00 L 496.00 1039.00 L 500.00 1033.00 L 507.00 1023.00 Z" fill="black" stroke="black" stroke-width="1"/>
</svg>