<?xml version="1.0" encoding="UTF-8"?>
<svg xmlns="http://www.w3.org/2000/svg" viewBox="464.00 358.00 976.00 1511.00">
  <path d="M 593.00 1115.00 L 599.00 1073.00 L 599.00 1049.00 L 593.00 1043.00 L 594.00 1041.00 L 602.00 1043.00 L 600.00 1040.00 L 588.00 1032.00 L 589.00 1030.00 L 603.00 1034.00 L 602.00 1033.00 L 586.00 1027.00 L 587.00 1025.00 L 605.00 1027.00 L 604.00 1024.00 L 584.00 1016.00 L 583.00 1014.00 L 601.00 1018.00 L 600.00 1016.00 L 580.00 1008.00 L 566.00 991.00 L 558.00 965.00 L 540.00 928.00 L 512.00 880.00 L 492.00 832.00 L 480.00 784.00 L 474.00 736.00 L 474.00 688.00 L 484.00 636.00 L 504.00 580.00 L 519.00 545.00 L 529.00 531.00 L 544.00 514.00 L 564.00 494.00 L 604.00 465.00 L 664.00 427.00 L 733.00 398.00 L 811.00 378.00 L 860.00 368.00 L 880.00 368.00 L 902.00 371.00 L 926.00 377.00 L 957.00 380.00 L 995.00 380.00 L 1030.00 390.00 L 1062.00 410.00 L 1089.00 424.00 L 1111.00 432.00 L 1129.00 445.00 L 1143.00 463.00 L 1148.00 482.00 L 1144.00 502.00 L 1143.00 513.00 L 1145.00 515.00 L 1149.00 508.00 L 1155.00 492.00 L 1157.00 493.00 L 1155.00 511.00 L 1155.00 521.00 L 1157.00 523.00 L 1160.00 518.00 L 1164.00 506.00 L 1166.00 505.00 L 1166.00 515.00 L 1167.00 517.00 L 1169.00 511.00 L 1169.00 515.00 L 1167.00 529.00 L 1179.00 574.00 L 1205.00 650.00 L 1216.00 698.00 L 1212.00 718.00 L 1213.00 733.00 L 1219.00 743.00 L 1248.00 772.00 L 1300.00 820.00 L 1328.00 849.00 L 1332.00 859.00 L 1333.00 869.00 L 1331.00 879.00 L 1319.00 892.00 L 1297.00 908.00 L 1296.00 910.00 L 1316.00 898.00 L 1316.00 900.00 L 1296.00 916.00 L 1288.00 936.00 L 1292.00 960.00 L 1290.00 978.00 L 1282.00 990.00 L 1280.00 999.00 L 1284.00 1005.00 L 1286.00 1014.00 L 1286.00 1026.00 L 1281.00 1043.00 L 1271.00 1065.00 L 1270.00 1089.00 L 1278.00 1115.00 L 1281.00 1132.00 L 1279.00 1140.00 L 1276.00 1148.00 L 1272.00 1156.00 L 1262.00 1164.00 L 1246.00 1172.00 L 1224.00 1175.00 L 1196.00 1173.00 L 1185.00 1175.00 L 1191.00 1181.00 L 1191.00 1194.00 L 1185.00 1214.00 L 1193.00 1232.00 L 1215.00 1248.00 L 1214.00 1251.00 L 1190.00 1241.00 L 1187.00 1240.00 L 1205.00 1248.00 L 1209.00 1250.00 L 1199.00 1246.00 L 1202.00 1248.00 L 1218.00 1256.00 L 1216.00 1256.00 L 1196.00 1248.00 L 1196.00 1250.00 L 1216.00 1262.00 L 1213.00 1263.00 L 1187.00 1253.00 L 1186.00 1255.00 L 1210.00 1269.00 L 1219.00 1279.00 L 1213.00 1285.00 L 1221.00 1297.00 L 1243.00 1315.00 L 1241.00 1316.00 L 1215.00 1300.00 L 1216.00 1302.00 L 1244.00 1322.00 L 1261.00 1338.00 L 1267.00 1350.00 L 1266.00 1361.00 L 1258.00 1371.00 L 1236.00 1365.00 L 1200.00 1343.00 L 1194.00 1348.00 L 1218.00 1380.00 L 1220.00 1387.00 L 1200.00 1369.00 L 1201.00 1371.00 L 1223.00 1393.00 L 1224.00 1395.00 L 1204.00 1377.00 L 1205.00 1380.00 L 1227.00 1404.00 L 1240.00 1425.00 L 1244.00 1443.00 L 1255.00 1462.00 L 1273.00 1482.00 L 1271.00 1480.00 L 1249.00 1456.00 L 1265.00 1477.00 L 1319.00 1543.00 L 1343.00 1573.00 L 1337.00 1567.00 L 1343.00 1576.00 L 1361.00 1600.00 L 1379.00 1631.00 L 1397.00 1669.00 L 1412.00 1710.00 L 1424.00 1754.00 L 1430.00 1785.00 L 1430.00 1803.00 L 1427.00 1823.00 L 1421.00 1845.00 L 1415.00 1857.00 L 1409.00 1859.00 L 1401.00 1858.00 L 1391.00 1854.00 L 1343.00 1823.00 L 1257.00 1765.00 L 1175.00 1716.00 L 1097.00 1676.00 L 1010.00 1647.00 L 914.00 1629.00 L 826.00 1618.00 L 746.00 1614.00 L 678.00 1614.00 L 622.00 1618.00 L 589.00 1618.00 L 579.00 1614.00 L 569.00 1605.00 L 559.00 1591.00 L 553.00 1562.00 L 551.00 1518.00 L 558.00 1472.00 L 574.00 1424.00 L 586.00 1373.00 L 594.00 1319.00 L 602.00 1282.00 L 610.00 1262.00 L 609.00 1244.00 L 599.00 1228.00 L 593.00 1201.00 L 591.00 1163.00 L 590.00 1142.00 L 590.00 1138.00 L 593.00 1115.00 Z" fill="black" stroke="black" stroke-width="1"/>
</svg>