<?xml version="1.0" encoding="UTF-8"?>
<svg xmlns="http://www.w3.org/2000/svg" viewBox="441.00 400.00 892.00 1212.00">
  <path d="M 558.00 990.00 L 542.00 978.00 L 550.00 946.00 L 582.00 894.00 L 593.00 821.00 L 583.00 727.00 L 584.00 686.00 L 596.00 698.00 L 597.00 696.00 L 587.00 680.00 L 588.00 678.00 L 600.00 690.00 L 600.00 688.00 L 588.00 672.00 L 589.00 669.00 L 603.00 679.00 L 606.00 669.00 L 598.00 639.00 L 600.00 632.00 L 612.00 648.00 L 613.00 647.00 L 603.00 629.00 L 603.00 627.00 L 613.00 641.00 L 614.00 639.00 L 606.00 621.00 L 607.00 619.00 L 617.00 633.00 L 618.00 631.00 L 610.00 613.00 L 611.00 612.00 L 621.00 628.00 L 623.00 625.00 L 617.00 603.00 L 618.00 599.00 L 626.00 613.00 L 627.00 612.00 L 621.00 596.00 L 622.00 595.00 L 630.00 609.00 L 632.00 607.00 L 628.00 589.00 L 642.00 564.00 L 674.00 532.00 L 689.00 509.00 L 687.00 495.00 L 688.00 494.00 L 692.00 506.00 L 691.00 500.00 L 685.00 476.00 L 686.00 475.00 L 694.00 497.00 L 700.00 491.00 L 704.00 457.00 L 741.00 443.00 L 811.00 449.00 L 855.00 444.00 L 873.00 428.00 L 886.00 428.00 L 894.00 444.00 L 924.00 438.00 L 976.00 410.00 L 1018.00 413.00 L 1050.00 447.00 L 1072.00 461.00 L 1084.00 455.00 L 1095.00 463.00 L 1105.00 485.00 L 1120.00 489.00 L 1140.00 475.00 L 1172.00 488.00 L 1216.00 528.00 L 1254.00 580.00 L 1286.00 644.00 L 1309.00 713.00 L 1323.00 787.00 L 1297.00 876.00 L 1231.00 980.00 L 1165.00 1059.00 L 1099.00 1113.00 L 1086.00 1214.00 L 1126.00 1362.00 L 1072.00 1451.00 L 924.00 1481.00 L 799.00 1523.00 L 697.00 1577.00 L 672.00 1521.00 L 724.00 1355.00 L 722.00 1357.00 L 666.00 1527.00 L 666.00 1524.00 L 722.00 1348.00 L 716.00 1352.00 L 648.00 1536.00 L 648.00 1533.00 L 716.00 1343.00 L 715.00 1344.00 L 645.00 1536.00 L 640.00 1548.00 L 700.00 1380.00 L 693.00 1385.00 L 619.00 1563.00 L 623.00 1548.00 L 705.00 1340.00 L 701.00 1343.00 L 611.00 1557.00 L 611.00 1554.00 L 701.00 1334.00 L 694.00 1340.00 L 590.00 1572.00 L 589.00 1571.00 L 691.00 1337.00 L 685.00 1340.00 L 571.00 1580.00 L 570.00 1578.00 L 682.00 1334.00 L 676.00 1330.00 L 552.00 1566.00 L 531.00 1602.00 L 613.00 1438.00 L 608.00 1434.00 L 516.00 1590.00 L 534.00 1552.00 L 662.00 1320.00 L 660.00 1318.00 L 528.00 1546.00 L 526.00 1546.00 L 654.00 1318.00 L 651.00 1314.00 L 517.00 1534.00 L 488.00 1580.00 L 564.00 1452.00 L 561.00 1447.00 L 479.00 1565.00 L 505.00 1519.00 L 639.00 1309.00 L 638.00 1306.00 L 502.00 1510.00 L 500.00 1510.00 L 632.00 1306.00 L 631.00 1298.00 L 497.00 1486.00 L 455.00 1544.00 L 505.00 1472.00 L 505.00 1470.00 L 455.00 1538.00 L 452.00 1541.00 L 496.00 1479.00 L 497.00 1477.00 L 455.00 1535.00 L 453.00 1536.00 L 491.00 1480.00 L 491.00 1478.00 L 453.00 1530.00 L 451.00 1532.00 L 485.00 1484.00 L 487.00 1477.00 L 457.00 1511.00 L 503.00 1447.00 L 625.00 1285.00 L 627.00 1281.00 L 509.00 1435.00 L 506.00 1435.00 L 618.00 1281.00 L 659.00 1202.00 L 629.00 1198.00 L 606.00 1187.00 L 590.00 1169.00 L 579.00 1122.00 L 573.00 1046.00 L 569.00 1005.00 L 567.00 999.00 L 558.00 990.00 Z" fill="black" stroke="black" stroke-width="1"/>
</svg>