<?xml version="1.0" encoding="UTF-8"?>
<svg xmlns="http://www.w3.org/2000/svg" viewBox="412.00 361.00 941.00 1382.00">
  <path d="M 529.00 917.00 L 543.00 875.00 L 541.00 841.00 L 523.00 815.00 L 521.00 803.00 L 535.00 805.00 L 535.00 802.00 L 521.00 794.00 L 520.00 791.00 L 532.00 793.00 L 531.00 789.00 L 517.00 779.00 L 517.00 776.00 L 531.00 780.00 L 531.00 777.00 L 517.00 767.00 L 517.00 764.00 L 531.00 768.00 L 532.00 759.00 L 520.00 737.00 L 521.00 731.00 L 535.00 741.00 L 535.00 738.00 L 521.00 722.00 L 522.00 717.00 L 538.00 723.00 L 539.00 718.00 L 525.00 702.00 L 526.00 699.00 L 542.00 709.00 L 544.00 703.00 L 532.00 681.00 L 533.00 676.00 L 547.00 688.00 L 549.00 685.00 L 539.00 667.00 L 541.00 662.00 L 555.00 670.00 L 558.00 665.00 L 550.00 647.00 L 552.00 641.00 L 564.00 647.00 L 566.00 644.00 L 558.00 632.00 L 573.00 609.00 L 611.00 575.00 L 622.00 532.00 L 606.00 480.00 L 609.00 479.00 L 631.00 529.00 L 631.00 527.00 L 609.00 473.00 L 612.00 473.00 L 640.00 527.00 L 641.00 516.00 L 615.00 440.00 L 617.00 440.00 L 647.00 516.00 L 649.00 514.00 L 623.00 434.00 L 626.00 433.00 L 658.00 511.00 L 664.00 509.00 L 644.00 427.00 L 647.00 425.00 L 673.00 503.00 L 676.00 501.00 L 656.00 419.00 L 658.00 417.00 L 682.00 495.00 L 689.00 496.00 L 679.00 420.00 L 684.00 419.00 L 704.00 493.00 L 710.00 497.00 L 702.00 431.00 L 704.00 424.00 L 716.00 476.00 L 718.00 477.00 L 710.00 427.00 L 713.00 426.00 L 727.00 474.00 L 735.00 472.00 L 737.00 420.00 L 755.00 401.00 L 789.00 415.00 L 809.00 415.00 L 815.00 401.00 L 818.00 401.00 L 818.00 415.00 L 821.00 412.00 L 827.00 392.00 L 854.00 387.00 L 902.00 397.00 L 930.00 392.00 L 938.00 372.00 L 940.00 371.00 L 936.00 389.00 L 938.00 390.00 L 946.00 374.00 L 965.00 378.00 L 995.00 402.00 L 1016.00 408.00 L 1028.00 396.00 L 1055.00 394.00 L 1097.00 402.00 L 1148.00 429.00 L 1208.00 475.00 L 1267.00 541.00 L 1325.00 627.00 L 1342.00 682.00 L 1318.00 706.00 L 1318.00 713.00 L 1342.00 703.00 L 1342.00 707.00 L 1318.00 725.00 L 1318.00 730.00 L 1342.00 722.00 L 1343.00 724.00 L 1321.00 736.00 L 1318.00 739.00 L 1334.00 733.00 L 1335.00 735.00 L 1321.00 745.00 L 1314.00 779.00 L 1314.00 837.00 L 1303.00 891.00 L 1281.00 941.00 L 1242.00 986.00 L 1186.00 1026.00 L 1124.00 1051.00 L 1056.00 1061.00 L 1020.00 1072.00 L 1016.00 1084.00 L 1042.00 1177.00 L 1098.00 1351.00 L 1112.00 1440.00 L 1084.00 1444.00 L 1063.00 1436.00 L 1049.00 1416.00 L 1047.00 1416.00 L 1057.00 1436.00 L 1056.00 1437.00 L 1044.00 1419.00 L 1042.00 1418.00 L 1050.00 1434.00 L 1049.00 1435.00 L 1039.00 1421.00 L 1034.00 1423.00 L 1034.00 1441.00 L 1029.00 1445.00 L 1019.00 1435.00 L 1016.00 1435.00 L 1020.00 1445.00 L 952.00 1473.00 L 812.00 1519.00 L 694.00 1571.00 L 598.00 1629.00 L 523.00 1683.00 L 469.00 1733.00 L 490.00 1645.00 L 586.00 1419.00 L 582.00 1415.00 L 478.00 1633.00 L 478.00 1630.00 L 582.00 1406.00 L 580.00 1404.00 L 472.00 1624.00 L 472.00 1621.00 L 580.00 1395.00 L 577.00 1390.00 L 463.00 1606.00 L 463.00 1603.00 L 577.00 1381.00 L 576.00 1379.00 L 460.00 1597.00 L 460.00 1594.00 L 576.00 1370.00 L 575.00 1367.00 L 457.00 1585.00 L 432.00 1628.00 L 500.00 1496.00 L 499.00 1493.00 L 429.00 1619.00 L 422.00 1629.00 L 478.00 1523.00 L 478.00 1517.00 L 422.00 1611.00 L 451.00 1557.00 L 565.00 1355.00 L 565.00 1352.00 L 451.00 1548.00 L 447.00 1547.00 L 553.00 1349.00 L 594.00 1243.00 L 570.00 1229.00 L 561.00 1207.00 L 567.00 1177.00 L 561.00 1155.00 L 543.00 1141.00 L 534.00 1108.00 L 534.00 1056.00 L 523.00 1021.00 L 501.00 1003.00 L 496.00 983.00 L 508.00 961.00 L 516.00 947.00 L 520.00 941.00 L 529.00 917.00 Z" fill="black" stroke="black" stroke-width="1"/>
</svg>