<?xml version="1.0" encoding="UTF-8"?>
<svg xmlns="http://www.w3.org/2000/svg" viewBox="334.00 306.00 846.00 1430.00">
  <path d="M 402.00 1020.00 L 410.00 984.00 L 418.00 962.00 L 426.00 954.00 L 425.00 946.00 L 415.00 938.00 L 413.00 919.00 L 419.00 889.00 L 410.00 841.00 L 386.00 775.00 L 370.00 722.00 L 362.00 682.00 L 358.00 651.00 L 358.00 629.00 L 359.00 606.00 L 361.00 582.00 L 367.00 553.00 L 377.00 519.00 L 395.00 482.00 L 421.00 442.00 L 445.00 411.00 L 467.00 389.00 L 494.00 369.00 L 526.00 351.00 L 556.00 337.00 L 584.00 327.00 L 614.00 322.00 L 646.00 322.00 L 671.00 320.00 L 689.00 316.00 L 722.00 318.00 L 770.00 326.00 L 806.00 334.00 L 830.00 342.00 L 860.00 356.00 L 896.00 376.00 L 923.00 393.00 L 941.00 407.00 L 949.00 423.00 L 947.00 441.00 L 949.00 443.00 L 955.00 429.00 L 957.00 432.00 L 955.00 452.00 L 958.00 454.00 L 966.00 438.00 L 967.00 441.00 L 961.00 463.00 L 959.00 476.00 L 961.00 480.00 L 966.00 471.00 L 974.00 449.00 L 975.00 451.00 L 969.00 477.00 L 970.00 479.00 L 978.00 457.00 L 978.00 458.00 L 970.00 482.00 L 968.00 490.00 L 972.00 482.00 L 973.00 484.00 L 971.00 496.00 L 974.00 491.00 L 982.00 469.00 L 983.00 471.00 L 977.00 497.00 L 978.00 500.00 L 986.00 480.00 L 987.00 482.00 L 981.00 506.00 L 982.00 509.00 L 990.00 491.00 L 991.00 492.00 L 985.00 512.00 L 986.00 531.00 L 994.00 549.00 L 998.00 576.00 L 998.00 612.00 L 1004.00 638.00 L 1016.00 654.00 L 1039.00 676.00 L 1073.00 704.00 L 1091.00 723.00 L 1093.00 733.00 L 1082.00 750.00 L 1058.00 774.00 L 1057.00 776.00 L 1079.00 756.00 L 1079.00 759.00 L 1057.00 785.00 L 1047.00 813.00 L 1049.00 843.00 L 1047.00 862.00 L 1041.00 870.00 L 1040.00 879.00 L 1044.00 889.00 L 1039.00 906.00 L 1025.00 930.00 L 1020.00 951.00 L 1024.00 969.00 L 1025.00 982.00 L 1023.00 990.00 L 1015.00 1002.00 L 1001.00 1018.00 L 988.00 1028.00 L 976.00 1032.00 L 975.00 1039.00 L 985.00 1049.00 L 988.00 1057.00 L 984.00 1063.00 L 980.00 1076.00 L 976.00 1096.00 L 975.00 1111.00 L 977.00 1121.00 L 975.00 1134.00 L 969.00 1150.00 L 975.00 1167.00 L 993.00 1185.00 L 994.00 1189.00 L 978.00 1179.00 L 980.00 1181.00 L 1000.00 1195.00 L 1005.00 1199.00 L 995.00 1193.00 L 995.00 1195.00 L 1005.00 1205.00 L 999.00 1203.00 L 977.00 1189.00 L 966.00 1185.00 L 966.00 1191.00 L 994.00 1221.00 L 1050.00 1275.00 L 1053.00 1282.00 L 1003.00 1242.00 L 999.00 1240.00 L 1041.00 1276.00 L 1045.00 1280.00 L 1011.00 1252.00 L 1013.00 1256.00 L 1051.00 1292.00 L 1045.00 1289.00 L 995.00 1247.00 L 992.00 1247.00 L 1036.00 1289.00 L 1052.00 1308.00 L 1040.00 1304.00 L 1035.00 1303.00 L 1037.00 1305.00 L 1025.00 1295.00 L 999.00 1273.00 L 994.00 1270.00 L 1010.00 1286.00 L 1008.00 1285.00 L 988.00 1267.00 L 971.00 1258.00 L 957.00 1258.00 L 975.00 1288.00 L 1025.00 1348.00 L 1043.00 1370.00 L 1029.00 1354.00 L 1041.00 1370.00 L 1079.00 1418.00 L 1072.00 1412.00 L 1020.00 1352.00 L 1021.00 1355.00 L 1075.00 1421.00 L 1063.00 1407.00 L 985.00 1313.00 L 986.00 1315.00 L 1066.00 1413.00 L 1108.00 1465.00 L 1112.00 1471.00 L 1078.00 1430.00 L 1006.00 1342.00 L 1007.00 1344.00 L 1081.00 1436.00 L 1080.00 1435.00 L 1004.00 1341.00 L 1006.00 1344.00 L 1086.00 1444.00 L 1085.00 1443.00 L 1003.00 1341.00 L 1007.00 1349.00 L 1097.00 1467.00 L 1093.00 1464.00 L 995.00 1340.00 L 996.00 1343.00 L 1096.00 1473.00 L 1145.00 1537.00 L 1143.00 1535.00 L 1149.00 1555.00 L 1163.00 1597.00 L 1170.00 1626.00 L 1170.00 1642.00 L 1166.00 1660.00 L 1158.00 1680.00 L 1143.00 1699.00 L 1121.00 1717.00 L 1101.00 1726.00 L 1083.00 1726.00 L 1061.00 1721.00 L 1035.00 1711.00 L 990.00 1688.00 L 926.00 1652.00 L 884.00 1630.00 L 864.00 1622.00 L 849.00 1618.00 L 839.00 1618.00 L 827.00 1613.00 L 813.00 1603.00 L 783.00 1590.00 L 737.00 1574.00 L 672.00 1556.00 L 588.00 1536.00 L 499.00 1524.00 L 405.00 1520.00 L 356.00 1514.00 L 352.00 1506.00 L 348.00 1503.00 L 344.00 1505.00 L 344.00 1503.00 L 348.00 1497.00 L 350.00 1476.00 L 350.00 1440.00 L 353.00 1405.00 L 359.00 1371.00 L 369.00 1334.00 L 383.00 1294.00 L 390.00 1265.00 L 390.00 1247.00 L 394.00 1223.00 L 402.00 1193.00 L 403.00 1167.00 L 397.00 1145.00 L 395.00 1113.00 L 397.00 1071.00 L 398.00 1047.00 L 398.00 1041.00 L 402.00 1020.00 Z" fill="black" stroke="black" stroke-width="1"/>
</svg>