<?xml version="1.0" encoding="UTF-8"?>
<svg xmlns="http://www.w3.org/2000/svg" viewBox="370.00 297.00 842.00 1456.00">
  <path d="M 432.00 1027.00 L 436.00 1013.00 L 435.00 950.00 L 429.00 838.00 L 428.00 746.00 L 432.00 674.00 L 442.00 605.00 L 458.00 539.00 L 484.00 475.00 L 520.00 413.00 L 559.00 367.00 L 601.00 337.00 L 638.00 319.00 L 670.00 313.00 L 730.00 309.00 L 818.00 307.00 L 886.00 314.00 L 934.00 330.00 L 979.00 351.00 L 1021.00 377.00 L 1054.00 405.00 L 1078.00 435.00 L 1088.00 460.00 L 1084.00 480.00 L 1086.00 482.00 L 1094.00 466.00 L 1095.00 467.00 L 1089.00 485.00 L 1091.00 488.00 L 1101.00 476.00 L 1101.00 481.00 L 1091.00 503.00 L 1092.00 505.00 L 1104.00 487.00 L 1111.00 480.00 L 1113.00 484.00 L 1108.00 499.00 L 1096.00 525.00 L 1096.00 529.00 L 1108.00 511.00 L 1109.00 514.00 L 1099.00 538.00 L 1099.00 542.00 L 1109.00 526.00 L 1109.00 527.00 L 1099.00 545.00 L 1098.00 548.00 L 1106.00 536.00 L 1107.00 538.00 L 1101.00 554.00 L 1103.00 575.00 L 1113.00 601.00 L 1117.00 622.00 L 1115.00 638.00 L 1136.00 678.00 L 1180.00 742.00 L 1202.00 777.00 L 1202.00 783.00 L 1189.00 795.00 L 1163.00 813.00 L 1162.00 815.00 L 1186.00 801.00 L 1185.00 803.00 L 1159.00 821.00 L 1158.00 823.00 L 1182.00 809.00 L 1181.00 812.00 L 1155.00 832.00 L 1143.00 852.00 L 1145.00 872.00 L 1141.00 886.00 L 1131.00 894.00 L 1127.00 904.00 L 1129.00 916.00 L 1124.00 930.00 L 1112.00 946.00 L 1108.00 968.00 L 1112.00 996.00 L 1107.00 1020.00 L 1093.00 1040.00 L 1089.00 1058.00 L 1095.00 1074.00 L 1090.00 1093.00 L 1074.00 1115.00 L 1076.00 1132.00 L 1096.00 1144.00 L 1097.00 1147.00 L 1079.00 1141.00 L 1078.00 1143.00 L 1094.00 1153.00 L 1092.00 1154.00 L 1072.00 1146.00 L 1072.00 1148.00 L 1092.00 1160.00 L 1099.00 1169.00 L 1093.00 1175.00 L 1082.00 1178.00 L 1066.00 1178.00 L 1066.00 1183.00 L 1082.00 1193.00 L 1081.00 1193.00 L 1063.00 1183.00 L 1067.00 1188.00 L 1093.00 1208.00 L 1092.00 1210.00 L 1064.00 1194.00 L 1066.00 1197.00 L 1098.00 1219.00 L 1115.00 1237.00 L 1117.00 1251.00 L 1102.00 1247.00 L 1070.00 1225.00 L 1080.00 1234.00 L 1132.00 1274.00 L 1130.00 1274.00 L 1074.00 1234.00 L 1076.00 1236.00 L 1136.00 1280.00 L 1141.00 1284.00 L 1091.00 1248.00 L 1089.00 1249.00 L 1135.00 1287.00 L 1127.00 1284.00 L 1065.00 1240.00 L 1063.00 1241.00 L 1121.00 1287.00 L 1123.00 1289.00 L 1069.00 1247.00 L 1067.00 1248.00 L 1117.00 1292.00 L 1121.00 1299.00 L 1079.00 1269.00 L 1070.00 1265.00 L 1094.00 1287.00 L 1095.00 1289.00 L 1073.00 1271.00 L 1071.00 1270.00 L 1089.00 1286.00 L 1092.00 1289.00 L 1080.00 1279.00 L 1079.00 1281.00 L 1089.00 1295.00 L 1109.00 1354.00 L 1139.00 1458.00 L 1155.00 1526.00 L 1157.00 1558.00 L 1155.00 1590.00 L 1149.00 1622.00 L 1134.00 1662.00 L 1110.00 1710.00 L 1093.00 1737.00 L 1083.00 1743.00 L 1060.00 1743.00 L 1024.00 1737.00 L 967.00 1711.00 L 889.00 1665.00 L 801.00 1620.00 L 703.00 1576.00 L 623.00 1546.00 L 561.00 1530.00 L 501.00 1519.00 L 443.00 1513.00 L 418.00 1486.00 L 426.00 1438.00 L 444.00 1376.00 L 472.00 1300.00 L 485.00 1250.00 L 483.00 1226.00 L 477.00 1215.00 L 467.00 1217.00 L 467.00 1215.00 L 477.00 1209.00 L 471.00 1210.00 L 449.00 1218.00 L 449.00 1215.00 L 471.00 1201.00 L 469.00 1199.00 L 443.00 1209.00 L 444.00 1206.00 L 472.00 1190.00 L 469.00 1188.00 L 435.00 1200.00 L 435.00 1198.00 L 469.00 1182.00 L 462.00 1182.00 L 414.00 1198.00 L 414.00 1196.00 L 462.00 1176.00 L 460.00 1175.00 L 408.00 1193.00 L 407.00 1191.00 L 457.00 1169.00 L 455.00 1167.00 L 401.00 1185.00 L 403.00 1183.00 L 461.00 1161.00 L 460.00 1159.00 L 400.00 1177.00 L 400.00 1176.00 L 460.00 1156.00 L 460.00 1153.00 L 400.00 1167.00 L 401.00 1164.00 L 463.00 1144.00 L 463.00 1143.00 L 401.00 1161.00 L 380.00 1165.00 L 400.00 1155.00 L 402.00 1151.00 L 386.00 1153.00 L 408.00 1146.00 L 468.00 1130.00 L 470.00 1129.00 L 414.00 1143.00 L 391.00 1147.00 L 401.00 1141.00 L 430.00 1132.00 L 478.00 1120.00 L 478.00 1117.00 L 430.00 1123.00 L 406.00 1117.00 L 406.00 1099.00 L 411.00 1078.00 L 421.00 1054.00 L 427.00 1040.00 L 429.00 1036.00 L 432.00 1027.00 Z" fill="black" stroke="black" stroke-width="1"/>
</svg>