<?xml version="1.0" encoding="UTF-8"?>
<svg xmlns="http://www.w3.org/2000/svg" viewBox="336.00 261.00 965.00 1495.00">
  <path d="M 532.00 961.00 L 528.00 959.00 L 528.00 951.00 L 532.00 937.00 L 530.00 927.00 L 522.00 921.00 L 520.00 902.00 L 524.00 870.00 L 518.00 850.00 L 502.00 842.00 L 500.00 840.00 L 512.00 844.00 L 510.00 842.00 L 494.00 834.00 L 484.00 824.00 L 480.00 812.00 L 490.00 789.00 L 514.00 755.00 L 533.00 722.00 L 547.00 690.00 L 551.00 663.00 L 545.00 641.00 L 545.00 615.00 L 551.00 585.00 L 548.00 558.00 L 536.00 534.00 L 536.00 531.00 L 548.00 549.00 L 549.00 547.00 L 539.00 525.00 L 539.00 522.00 L 549.00 538.00 L 549.00 537.00 L 539.00 519.00 L 540.00 516.00 L 552.00 528.00 L 554.00 525.00 L 546.00 507.00 L 546.00 504.00 L 554.00 516.00 L 556.00 513.00 L 552.00 495.00 L 553.00 489.00 L 559.00 495.00 L 560.00 494.00 L 556.00 486.00 L 571.00 461.00 L 605.00 419.00 L 659.00 383.00 L 733.00 353.00 L 794.00 338.00 L 842.00 338.00 L 872.00 334.00 L 884.00 326.00 L 890.00 325.00 L 890.00 331.00 L 891.00 327.00 L 893.00 313.00 L 895.00 312.00 L 897.00 324.00 L 900.00 321.00 L 904.00 303.00 L 917.00 289.00 L 939.00 279.00 L 970.00 279.00 L 1010.00 289.00 L 1035.00 288.00 L 1045.00 276.00 L 1057.00 271.00 L 1071.00 273.00 L 1093.00 289.00 L 1123.00 319.00 L 1144.00 335.00 L 1156.00 337.00 L 1169.00 344.00 L 1183.00 356.00 L 1212.00 396.00 L 1256.00 464.00 L 1282.00 515.00 L 1290.00 549.00 L 1291.00 596.00 L 1285.00 656.00 L 1272.00 697.00 L 1252.00 719.00 L 1240.00 741.00 L 1236.00 763.00 L 1227.00 786.00 L 1213.00 810.00 L 1167.00 836.00 L 1089.00 864.00 L 1087.00 866.00 L 1161.00 842.00 L 1160.00 844.00 L 1084.00 872.00 L 1080.00 876.00 L 1148.00 856.00 L 1155.00 856.00 L 1101.00 876.00 L 1095.00 881.00 L 1137.00 871.00 L 1130.00 874.00 L 1074.00 890.00 L 1072.00 891.00 L 1124.00 877.00 L 1124.00 880.00 L 1072.00 900.00 L 1046.00 916.00 L 1046.00 928.00 L 1054.00 948.00 L 1070.00 976.00 L 1076.00 990.00 L 1072.00 990.00 L 1078.00 992.00 L 1094.00 996.00 L 1109.00 1005.00 L 1123.00 1019.00 L 1133.00 1040.00 L 1139.00 1068.00 L 1147.00 1090.00 L 1157.00 1106.00 L 1172.00 1121.00 L 1192.00 1135.00 L 1207.00 1155.00 L 1217.00 1181.00 L 1171.00 1210.00 L 1069.00 1242.00 L 988.00 1273.00 L 928.00 1303.00 L 869.00 1337.00 L 811.00 1375.00 L 733.00 1438.00 L 635.00 1526.00 L 544.00 1616.00 L 460.00 1708.00 L 406.00 1746.00 L 382.00 1730.00 L 449.00 1583.00 L 607.00 1305.00 L 605.00 1302.00 L 443.00 1574.00 L 444.00 1571.00 L 608.00 1293.00 L 606.00 1290.00 L 438.00 1562.00 L 432.00 1571.00 L 588.00 1317.00 L 586.00 1315.00 L 426.00 1565.00 L 346.00 1688.00 L 346.00 1684.00 L 432.00 1547.00 L 604.00 1277.00 L 603.00 1276.00 L 429.00 1544.00 L 416.00 1563.00 L 564.00 1333.00 L 563.00 1330.00 L 413.00 1554.00 L 411.00 1556.00 L 557.00 1336.00 L 557.00 1334.00 L 411.00 1550.00 L 409.00 1552.00 L 551.00 1340.00 L 550.00 1338.00 L 406.00 1546.00 L 402.00 1550.00 L 538.00 1350.00 L 538.00 1347.00 L 402.00 1541.00 L 422.00 1512.00 L 598.00 1260.00 L 598.00 1258.00 L 422.00 1506.00 L 398.00 1539.00 L 526.00 1357.00 L 526.00 1355.00 L 398.00 1533.00 L 394.00 1538.00 L 514.00 1370.00 L 514.00 1368.00 L 394.00 1532.00 L 391.00 1535.00 L 505.00 1377.00 L 505.00 1374.00 L 391.00 1526.00 L 373.00 1548.00 L 451.00 1440.00 L 452.00 1436.00 L 376.00 1536.00 L 373.00 1539.00 L 443.00 1445.00 L 444.00 1443.00 L 376.00 1533.00 L 375.00 1534.00 L 441.00 1446.00 L 442.00 1444.00 L 378.00 1528.00 L 376.00 1530.00 L 436.00 1450.00 L 436.00 1448.00 L 376.00 1524.00 L 370.00 1530.00 L 418.00 1466.00 L 421.00 1461.00 L 379.00 1515.00 L 377.00 1517.00 L 415.00 1467.00 L 416.00 1465.00 L 380.00 1511.00 L 378.00 1513.00 L 410.00 1471.00 L 412.00 1468.00 L 384.00 1504.00 L 446.00 1423.00 L 598.00 1225.00 L 644.00 1106.00 L 584.00 1066.00 L 555.00 1031.00 L 557.00 1001.00 L 554.00 981.00 L 546.00 971.00 L 540.00 965.00 L 536.00 963.00 L 532.00 961.00 Z" fill="black" stroke="black" stroke-width="1"/>
</svg>