<?xml version="1.0" encoding="UTF-8"?>
<svg xmlns="http://www.w3.org/2000/svg" viewBox="349.00 312.00 866.00 1392.00">
  <path d="M 505.00 828.00 L 519.00 812.00 L 520.00 799.00 L 508.00 789.00 L 509.00 784.00 L 523.00 784.00 L 522.00 781.00 L 506.00 775.00 L 506.00 772.00 L 522.00 772.00 L 524.00 743.00 L 512.00 685.00 L 493.00 642.00 L 467.00 614.00 L 470.00 611.00 L 502.00 633.00 L 498.00 618.00 L 458.00 566.00 L 460.00 564.00 L 504.00 612.00 L 497.00 596.00 L 439.00 516.00 L 442.00 513.00 L 506.00 587.00 L 507.00 584.00 L 445.00 504.00 L 445.00 500.00 L 507.00 572.00 L 512.00 572.00 L 460.00 500.00 L 460.00 498.00 L 512.00 566.00 L 514.00 563.00 L 466.00 489.00 L 467.00 486.00 L 517.00 554.00 L 522.00 557.00 L 482.00 495.00 L 480.00 491.00 L 516.00 545.00 L 519.00 545.00 L 489.00 491.00 L 494.00 492.00 L 534.00 548.00 L 540.00 550.00 L 512.00 498.00 L 515.00 496.00 L 549.00 544.00 L 557.00 545.00 L 539.00 499.00 L 542.00 497.00 L 566.00 539.00 L 569.00 539.00 L 551.00 497.00 L 552.00 494.00 L 572.00 530.00 L 577.00 531.00 L 567.00 497.00 L 568.00 489.00 L 580.00 507.00 L 568.00 467.00 L 532.00 369.00 L 534.00 371.00 L 574.00 473.00 L 575.00 472.00 L 537.00 368.00 L 539.00 366.00 L 581.00 466.00 L 586.00 465.00 L 554.00 363.00 L 555.00 361.00 L 589.00 459.00 L 591.00 459.00 L 561.00 361.00 L 561.00 354.00 L 591.00 438.00 L 596.00 428.00 L 576.00 324.00 L 580.00 324.00 L 608.00 428.00 L 611.00 428.00 L 589.00 324.00 L 592.00 322.00 L 620.00 422.00 L 629.00 429.00 L 619.00 343.00 L 622.00 340.00 L 638.00 420.00 L 641.00 422.00 L 631.00 346.00 L 635.00 347.00 L 653.00 425.00 L 658.00 430.00 L 650.00 362.00 L 650.00 359.00 L 658.00 421.00 L 661.00 434.00 L 659.00 398.00 L 665.00 400.00 L 679.00 440.00 L 686.00 447.00 L 686.00 421.00 L 687.00 420.00 L 689.00 444.00 L 692.00 446.00 L 696.00 426.00 L 703.00 424.00 L 713.00 440.00 L 726.00 424.00 L 742.00 376.00 L 750.00 373.00 L 750.00 415.00 L 758.00 410.00 L 774.00 358.00 L 778.00 360.00 L 770.00 416.00 L 773.00 415.00 L 787.00 357.00 L 790.00 358.00 L 782.00 418.00 L 784.00 418.00 L 796.00 358.00 L 799.00 359.00 L 793.00 421.00 L 801.00 421.00 L 823.00 359.00 L 828.00 359.00 L 816.00 421.00 L 819.00 422.00 L 837.00 362.00 L 874.00 357.00 L 930.00 407.00 L 965.00 425.00 L 979.00 411.00 L 991.00 412.00 L 1001.00 428.00 L 1024.00 429.00 L 1060.00 415.00 L 1100.00 421.00 L 1144.00 447.00 L 1175.00 486.00 L 1193.00 538.00 L 1203.00 605.00 L 1205.00 687.00 L 1179.00 773.00 L 1125.00 863.00 L 1067.00 933.00 L 1005.00 983.00 L 971.00 1025.00 L 965.00 1059.00 L 993.00 1168.00 L 1055.00 1352.00 L 1024.00 1458.00 L 900.00 1486.00 L 788.00 1534.00 L 688.00 1602.00 L 646.00 1535.00 L 662.00 1333.00 L 659.00 1335.00 L 637.00 1541.00 L 636.00 1538.00 L 656.00 1326.00 L 653.00 1329.00 L 627.00 1547.00 L 626.00 1544.00 L 650.00 1320.00 L 646.00 1323.00 L 614.00 1553.00 L 613.00 1550.00 L 643.00 1314.00 L 637.00 1319.00 L 595.00 1565.00 L 593.00 1562.00 L 631.00 1310.00 L 628.00 1313.00 L 584.00 1571.00 L 578.00 1601.00 L 610.00 1403.00 L 608.00 1404.00 L 572.00 1604.00 L 570.00 1607.00 L 602.00 1413.00 L 596.00 1418.00 L 552.00 1622.00 L 557.00 1588.00 L 611.00 1316.00 L 608.00 1319.00 L 548.00 1597.00 L 538.00 1637.00 L 578.00 1439.00 L 575.00 1442.00 L 529.00 1646.00 L 527.00 1648.00 L 569.00 1448.00 L 563.00 1453.00 L 509.00 1663.00 L 517.00 1621.00 L 587.00 1327.00 L 584.00 1330.00 L 508.00 1630.00 L 494.00 1679.00 L 542.00 1477.00 L 536.00 1482.00 L 476.00 1694.00 L 486.00 1645.00 L 566.00 1335.00 L 560.00 1331.00 L 468.00 1633.00 L 465.00 1633.00 L 551.00 1331.00 L 545.00 1325.00 L 447.00 1615.00 L 422.00 1682.00 L 470.00 1526.00 L 467.00 1523.00 L 413.00 1673.00 L 410.00 1676.00 L 458.00 1532.00 L 453.00 1526.00 L 395.00 1658.00 L 418.00 1587.00 L 522.00 1313.00 L 520.00 1309.00 L 412.00 1575.00 L 410.00 1574.00 L 514.00 1306.00 L 512.00 1299.00 L 404.00 1553.00 L 368.00 1637.00 L 404.00 1551.00 L 404.00 1548.00 L 368.00 1628.00 L 366.00 1630.00 L 398.00 1554.00 L 398.00 1550.00 L 366.00 1618.00 L 363.00 1621.00 L 389.00 1559.00 L 389.00 1555.00 L 363.00 1609.00 L 359.00 1613.00 L 377.00 1567.00 L 380.00 1556.00 L 368.00 1580.00 L 410.00 1486.00 L 506.00 1274.00 L 538.00 1138.00 L 506.00 1078.00 L 489.00 1024.00 L 487.00 976.00 L 476.00 944.00 L 456.00 928.00 L 457.00 902.00 L 479.00 866.00 L 492.00 845.00 L 496.00 839.00 L 505.00 828.00 Z" fill="black" stroke="black" stroke-width="1"/>
</svg>