<?xml version="1.0" encoding="UTF-8"?>
<svg xmlns="http://www.w3.org/2000/svg" viewBox="367.00 245.00 871.00 1459.00">
  <path d="M 462.00 895.00 L 470.00 889.00 L 471.00 884.00 L 465.00 880.00 L 460.00 870.00 L 456.00 854.00 L 451.00 842.00 L 445.00 834.00 L 428.00 825.00 L 400.00 815.00 L 383.00 804.00 L 377.00 792.00 L 380.00 769.00 L 392.00 735.00 L 411.00 701.00 L 437.00 667.00 L 449.00 633.00 L 447.00 599.00 L 450.00 566.00 L 458.00 534.00 L 469.00 504.00 L 483.00 476.00 L 501.00 451.00 L 523.00 429.00 L 541.00 407.00 L 555.00 385.00 L 580.00 363.00 L 616.00 341.00 L 656.00 322.00 L 700.00 306.00 L 724.00 291.00 L 728.00 277.00 L 731.00 276.00 L 733.00 288.00 L 735.00 287.00 L 737.00 273.00 L 749.00 270.00 L 771.00 278.00 L 785.00 278.00 L 791.00 270.00 L 795.00 275.00 L 797.00 293.00 L 799.00 291.00 L 801.00 269.00 L 803.00 268.00 L 805.00 288.00 L 807.00 287.00 L 809.00 265.00 L 811.00 265.00 L 813.00 287.00 L 815.00 286.00 L 817.00 262.00 L 819.00 256.00 L 821.00 268.00 L 823.00 270.00 L 825.00 262.00 L 826.00 268.00 L 826.00 288.00 L 839.00 298.00 L 865.00 298.00 L 886.00 301.00 L 902.00 307.00 L 913.00 299.00 L 919.00 277.00 L 921.00 278.00 L 919.00 302.00 L 922.00 300.00 L 930.00 272.00 L 932.00 272.00 L 928.00 300.00 L 930.00 299.00 L 938.00 269.00 L 939.00 267.00 L 933.00 293.00 L 931.00 309.00 L 933.00 315.00 L 939.00 302.00 L 949.00 270.00 L 960.00 255.00 L 972.00 257.00 L 991.00 270.00 L 1017.00 294.00 L 1035.00 318.00 L 1045.00 342.00 L 1055.00 353.00 L 1065.00 351.00 L 1073.00 366.00 L 1079.00 398.00 L 1084.00 415.00 L 1088.00 417.00 L 1094.00 415.00 L 1102.00 409.00 L 1113.00 407.00 L 1127.00 409.00 L 1139.00 415.00 L 1149.00 425.00 L 1156.00 436.00 L 1160.00 448.00 L 1172.00 461.00 L 1192.00 475.00 L 1209.00 508.00 L 1223.00 560.00 L 1228.00 599.00 L 1224.00 625.00 L 1224.00 652.00 L 1228.00 680.00 L 1227.00 708.00 L 1221.00 736.00 L 1215.00 755.00 L 1209.00 765.00 L 1201.00 775.00 L 1191.00 785.00 L 1134.00 805.00 L 1030.00 835.00 L 1027.00 838.00 L 1125.00 814.00 L 1124.00 815.00 L 1024.00 841.00 L 1023.00 843.00 L 1121.00 821.00 L 1120.00 822.00 L 1020.00 846.00 L 1017.00 849.00 L 1111.00 831.00 L 1110.00 832.00 L 1014.00 852.00 L 1012.00 853.00 L 1104.00 835.00 L 1120.00 832.00 L 1060.00 844.00 L 1059.00 845.00 L 1117.00 835.00 L 1121.00 835.00 L 1071.00 845.00 L 1065.00 847.00 L 1103.00 841.00 L 1107.00 842.00 L 1077.00 850.00 L 1074.00 853.00 L 1098.00 851.00 L 1073.00 856.00 L 999.00 868.00 L 996.00 870.00 L 1064.00 862.00 L 1063.00 863.00 L 993.00 873.00 L 956.00 883.00 L 952.00 893.00 L 953.00 906.00 L 959.00 922.00 L 974.00 939.00 L 998.00 957.00 L 1002.00 964.00 L 986.00 960.00 L 988.00 963.00 L 1008.00 973.00 L 1008.00 975.00 L 988.00 969.00 L 989.00 970.00 L 1011.00 978.00 L 1023.00 985.00 L 1025.00 991.00 L 1038.00 1005.00 L 1062.00 1027.00 L 1078.00 1046.00 L 1086.00 1062.00 L 1101.00 1083.00 L 1123.00 1109.00 L 1143.00 1142.00 L 1161.00 1182.00 L 1153.00 1206.00 L 1119.00 1214.00 L 1084.00 1225.00 L 1048.00 1239.00 L 1018.00 1252.00 L 994.00 1264.00 L 962.00 1284.00 L 922.00 1312.00 L 866.00 1360.00 L 794.00 1428.00 L 735.00 1489.00 L 689.00 1543.00 L 664.00 1570.00 L 660.00 1570.00 L 626.00 1603.00 L 562.00 1669.00 L 515.00 1694.00 L 485.00 1678.00 L 461.00 1661.00 L 443.00 1643.00 L 430.00 1629.00 L 422.00 1619.00 L 411.00 1593.00 L 397.00 1551.00 L 392.00 1509.00 L 396.00 1467.00 L 401.00 1438.00 L 407.00 1422.00 L 409.00 1415.00 L 407.00 1417.00 L 415.00 1400.00 L 433.00 1364.00 L 441.00 1347.00 L 439.00 1349.00 L 452.00 1330.00 L 480.00 1290.00 L 484.00 1283.00 L 464.00 1309.00 L 462.00 1311.00 L 478.00 1289.00 L 491.00 1259.00 L 501.00 1221.00 L 515.00 1183.00 L 533.00 1145.00 L 554.00 1109.00 L 578.00 1075.00 L 589.00 1056.00 L 587.00 1052.00 L 570.00 1043.00 L 538.00 1029.00 L 510.00 1023.00 L 486.00 1025.00 L 470.00 1024.00 L 462.00 1020.00 L 454.00 1011.00 L 446.00 997.00 L 446.00 977.00 L 454.00 951.00 L 457.00 931.00 L 455.00 917.00 L 455.00 907.00 L 457.00 901.00 L 462.00 895.00 Z" fill="black" stroke="black" stroke-width="1"/>
</svg>