<?xml version="1.0" encoding="UTF-8"?>
<svg xmlns="http://www.w3.org/2000/svg" viewBox="345.00 181.00 948.00 1551.00">
  <path d="M 461.00 882.00 L 467.00 874.00 L 465.00 865.00 L 455.00 855.00 L 454.00 837.00 L 462.00 811.00 L 455.00 787.00 L 433.00 765.00 L 441.00 728.00 L 479.00 676.00 L 496.00 636.00 L 492.00 608.00 L 494.00 583.00 L 502.00 561.00 L 500.00 542.00 L 488.00 526.00 L 488.00 523.00 L 500.00 533.00 L 501.00 530.00 L 491.00 514.00 L 492.00 512.00 L 504.00 524.00 L 505.00 520.00 L 495.00 500.00 L 495.00 496.00 L 505.00 508.00 L 506.00 503.00 L 498.00 481.00 L 499.00 477.00 L 509.00 491.00 L 510.00 488.00 L 502.00 468.00 L 503.00 465.00 L 513.00 479.00 L 513.00 478.00 L 503.00 462.00 L 501.00 458.00 L 507.00 466.00 L 508.00 464.00 L 504.00 452.00 L 507.00 453.00 L 517.00 467.00 L 518.00 465.00 L 510.00 447.00 L 511.00 444.00 L 521.00 456.00 L 522.00 453.00 L 514.00 435.00 L 515.00 433.00 L 525.00 447.00 L 527.00 444.00 L 521.00 424.00 L 523.00 422.00 L 533.00 438.00 L 535.00 436.00 L 529.00 416.00 L 531.00 413.00 L 541.00 427.00 L 543.00 425.00 L 537.00 407.00 L 538.00 405.00 L 546.00 419.00 L 549.00 424.00 L 547.00 420.00 L 549.00 418.00 L 555.00 418.00 L 555.00 410.00 L 549.00 394.00 L 550.00 392.00 L 558.00 404.00 L 560.00 403.00 L 556.00 389.00 L 570.00 375.00 L 602.00 361.00 L 624.00 348.00 L 636.00 336.00 L 674.00 320.00 L 738.00 300.00 L 783.00 290.00 L 809.00 290.00 L 827.00 285.00 L 837.00 275.00 L 846.00 258.00 L 854.00 234.00 L 857.00 233.00 L 855.00 255.00 L 858.00 250.00 L 866.00 218.00 L 869.00 218.00 L 867.00 250.00 L 870.00 248.00 L 878.00 212.00 L 881.00 212.00 L 879.00 248.00 L 881.00 247.00 L 887.00 209.00 L 889.00 209.00 L 887.00 247.00 L 889.00 247.00 L 895.00 209.00 L 896.00 207.00 L 892.00 241.00 L 895.00 241.00 L 905.00 207.00 L 921.00 191.00 L 943.00 193.00 L 974.00 208.00 L 1014.00 236.00 L 1044.00 245.00 L 1064.00 235.00 L 1080.00 250.00 L 1092.00 290.00 L 1107.00 315.00 L 1125.00 325.00 L 1143.00 340.00 L 1161.00 360.00 L 1177.00 387.00 L 1191.00 421.00 L 1200.00 452.00 L 1204.00 480.00 L 1214.00 500.00 L 1230.00 512.00 L 1250.00 565.00 L 1274.00 659.00 L 1283.00 723.00 L 1277.00 757.00 L 1218.00 789.00 L 1106.00 819.00 L 1105.00 822.00 L 1215.00 798.00 L 1212.00 800.00 L 1096.00 828.00 L 1093.00 831.00 L 1203.00 809.00 L 1212.00 808.00 L 1120.00 828.00 L 1116.00 831.00 L 1200.00 817.00 L 1190.00 820.00 L 1086.00 840.00 L 1076.00 843.00 L 1160.00 829.00 L 1159.00 832.00 L 1073.00 852.00 L 1024.00 869.00 L 1012.00 883.00 L 1007.00 901.00 L 1009.00 923.00 L 1018.00 942.00 L 1034.00 958.00 L 1043.00 980.00 L 1045.00 1008.00 L 1056.00 1038.00 L 1076.00 1070.00 L 1089.00 1099.00 L 1095.00 1125.00 L 1117.00 1175.00 L 1155.00 1249.00 L 1134.00 1292.00 L 1054.00 1304.00 L 964.00 1331.00 L 864.00 1373.00 L 786.00 1413.00 L 730.00 1451.00 L 635.00 1533.00 L 501.00 1659.00 L 431.00 1722.00 L 425.00 1722.00 L 410.00 1709.00 L 386.00 1683.00 L 370.00 1661.00 L 362.00 1643.00 L 427.00 1513.00 L 565.00 1271.00 L 564.00 1268.00 L 424.00 1504.00 L 424.00 1502.00 L 564.00 1262.00 L 563.00 1259.00 L 421.00 1493.00 L 421.00 1491.00 L 563.00 1253.00 L 562.00 1249.00 L 418.00 1479.00 L 409.00 1492.00 L 535.00 1288.00 L 535.00 1283.00 L 409.00 1477.00 L 405.00 1481.00 L 523.00 1295.00 L 524.00 1291.00 L 408.00 1469.00 L 406.00 1471.00 L 518.00 1297.00 L 519.00 1292.00 L 409.00 1456.00 L 355.00 1536.00 L 357.00 1532.00 L 426.00 1428.00 L 562.00 1224.00 L 563.00 1221.00 L 429.00 1419.00 L 409.00 1447.00 L 503.00 1305.00 L 506.00 1298.00 L 418.00 1426.00 L 413.00 1432.00 L 491.00 1316.00 L 495.00 1308.00 L 425.00 1408.00 L 421.00 1413.00 L 483.00 1323.00 L 484.00 1321.00 L 424.00 1407.00 L 412.00 1424.00 L 448.00 1372.00 L 451.00 1367.00 L 421.00 1409.00 L 461.00 1351.00 L 571.00 1193.00 L 603.00 1091.00 L 557.00 1045.00 L 519.00 1014.00 L 489.00 998.00 L 472.00 984.00 L 468.00 972.00 L 469.00 956.00 L 475.00 936.00 L 474.00 918.00 L 466.00 902.00 L 461.00 892.00 L 459.00 888.00 L 461.00 882.00 Z" fill="black" stroke="black" stroke-width="1"/>
</svg>