<?xml version="1.0" encoding="UTF-8"?>
<svg xmlns="http://www.w3.org/2000/svg" viewBox="298.00 338.00 937.00 1342.00">
  <path d="M 408.00 845.00 L 452.00 779.00 L 466.00 740.00 L 450.00 728.00 L 450.00 726.00 L 466.00 734.00 L 467.00 731.00 L 453.00 717.00 L 453.00 714.00 L 467.00 722.00 L 469.00 719.00 L 459.00 705.00 L 460.00 699.00 L 472.00 701.00 L 480.00 695.00 L 484.00 681.00 L 482.00 663.00 L 474.00 641.00 L 476.00 635.00 L 488.00 645.00 L 489.00 640.00 L 479.00 620.00 L 480.00 617.00 L 492.00 631.00 L 494.00 628.00 L 486.00 608.00 L 488.00 605.00 L 500.00 619.00 L 503.00 617.00 L 497.00 599.00 L 500.00 593.00 L 512.00 599.00 L 519.00 592.00 L 521.00 572.00 L 533.00 558.00 L 555.00 550.00 L 561.00 521.00 L 551.00 471.00 L 555.00 469.00 L 573.00 515.00 L 573.00 513.00 L 555.00 463.00 L 556.00 461.00 L 576.00 507.00 L 579.00 505.00 L 565.00 455.00 L 567.00 452.00 L 585.00 496.00 L 588.00 496.00 L 576.00 452.00 L 579.00 451.00 L 597.00 493.00 L 603.00 494.00 L 597.00 454.00 L 600.00 454.00 L 612.00 494.00 L 610.00 475.00 L 594.00 397.00 L 597.00 396.00 L 619.00 472.00 L 622.00 469.00 L 606.00 387.00 L 608.00 385.00 L 628.00 463.00 L 632.00 454.00 L 620.00 358.00 L 622.00 356.00 L 638.00 448.00 L 641.00 449.00 L 631.00 359.00 L 635.00 357.00 L 653.00 443.00 L 658.00 444.00 L 650.00 360.00 L 652.00 359.00 L 664.00 441.00 L 666.00 438.00 L 658.00 350.00 L 659.00 349.00 L 669.00 435.00 L 671.00 436.00 L 665.00 352.00 L 669.00 348.00 L 683.00 424.00 L 690.00 440.00 L 690.00 396.00 L 700.00 391.00 L 720.00 425.00 L 732.00 429.00 L 736.00 403.00 L 738.00 404.00 L 738.00 432.00 L 740.00 428.00 L 744.00 392.00 L 746.00 391.00 L 746.00 425.00 L 749.00 422.00 L 755.00 382.00 L 761.00 381.00 L 767.00 419.00 L 774.00 422.00 L 782.00 390.00 L 785.00 391.00 L 783.00 425.00 L 789.00 422.00 L 803.00 382.00 L 807.00 383.00 L 801.00 425.00 L 804.00 425.00 L 816.00 383.00 L 821.00 388.00 L 819.00 440.00 L 828.00 456.00 L 848.00 436.00 L 870.00 434.00 L 894.00 450.00 L 912.00 453.00 L 924.00 443.00 L 938.00 447.00 L 954.00 465.00 L 971.00 468.00 L 989.00 456.00 L 1012.00 456.00 L 1040.00 468.00 L 1088.00 519.00 L 1156.00 609.00 L 1201.00 695.00 L 1223.00 777.00 L 1225.00 843.00 L 1207.00 893.00 L 1161.00 917.00 L 1087.00 915.00 L 1084.00 917.00 L 1152.00 923.00 L 1151.00 925.00 L 1081.00 923.00 L 1076.00 926.00 L 1136.00 934.00 L 1134.00 936.00 L 1070.00 932.00 L 1008.00 955.00 L 948.00 1005.00 L 918.00 1052.00 L 918.00 1096.00 L 927.00 1131.00 L 945.00 1157.00 L 946.00 1161.00 L 930.00 1143.00 L 952.00 1196.00 L 1012.00 1320.00 L 955.00 1408.00 L 781.00 1460.00 L 643.00 1535.00 L 541.00 1633.00 L 519.00 1572.00 L 577.00 1352.00 L 572.00 1357.00 L 504.00 1587.00 L 504.00 1583.00 L 572.00 1345.00 L 569.00 1349.00 L 495.00 1595.00 L 495.00 1592.00 L 569.00 1340.00 L 565.00 1345.00 L 483.00 1607.00 L 483.00 1605.00 L 565.00 1339.00 L 558.00 1347.00 L 462.00 1629.00 L 461.00 1626.00 L 555.00 1338.00 L 547.00 1346.00 L 437.00 1650.00 L 435.00 1647.00 L 541.00 1337.00 L 536.00 1334.00 L 420.00 1638.00 L 407.00 1670.00 L 497.00 1430.00 L 494.00 1428.00 L 398.00 1664.00 L 393.00 1669.00 L 479.00 1443.00 L 474.00 1438.00 L 378.00 1654.00 L 393.00 1614.00 L 519.00 1318.00 L 517.00 1316.00 L 387.00 1608.00 L 365.00 1656.00 L 451.00 1460.00 L 450.00 1458.00 L 362.00 1650.00 L 359.00 1653.00 L 441.00 1467.00 L 438.00 1464.00 L 350.00 1644.00 L 346.00 1648.00 L 426.00 1476.00 L 423.00 1468.00 L 337.00 1624.00 L 362.00 1567.00 L 498.00 1297.00 L 497.00 1294.00 L 359.00 1558.00 L 317.00 1635.00 L 371.00 1525.00 L 370.00 1522.00 L 314.00 1626.00 L 311.00 1629.00 L 361.00 1531.00 L 361.00 1527.00 L 311.00 1617.00 L 308.00 1620.00 L 352.00 1536.00 L 352.00 1531.00 L 308.00 1605.00 L 353.00 1521.00 L 487.00 1279.00 L 487.00 1277.00 L 353.00 1515.00 L 350.00 1514.00 L 478.00 1274.00 L 522.00 1140.00 L 482.00 1112.00 L 455.00 1054.00 L 441.00 966.00 L 423.00 913.00 L 401.00 895.00 L 389.00 884.00 L 387.00 880.00 L 408.00 845.00 Z" fill="black" stroke="black" stroke-width="1"/>
</svg>