<?xml version="1.0" encoding="UTF-8"?>
<svg xmlns="http://www.w3.org/2000/svg" viewBox="292.00 244.00 806.00 1447.00">
  <path d="M 439.00 721.00 L 449.00 683.00 L 449.00 658.00 L 439.00 646.00 L 441.00 643.00 L 455.00 649.00 L 453.00 646.00 L 435.00 634.00 L 436.00 631.00 L 456.00 637.00 L 456.00 633.00 L 436.00 619.00 L 438.00 616.00 L 462.00 624.00 L 463.00 621.00 L 441.00 607.00 L 443.00 604.00 L 469.00 612.00 L 476.00 608.00 L 464.00 592.00 L 466.00 588.00 L 482.00 596.00 L 485.00 595.00 L 475.00 585.00 L 477.00 573.00 L 491.00 559.00 L 476.00 516.00 L 432.00 444.00 L 436.00 441.00 L 488.00 507.00 L 488.00 504.00 L 436.00 432.00 L 425.00 409.00 L 455.00 435.00 L 464.00 438.00 L 452.00 418.00 L 467.00 439.00 L 509.00 501.00 L 510.00 498.00 L 470.00 430.00 L 472.00 427.00 L 516.00 489.00 L 522.00 486.00 L 490.00 418.00 L 491.00 415.00 L 525.00 477.00 L 528.00 477.00 L 500.00 415.00 L 500.00 412.00 L 528.00 468.00 L 530.00 469.00 L 506.00 415.00 L 511.00 413.00 L 545.00 463.00 L 552.00 463.00 L 532.00 413.00 L 531.00 408.00 L 549.00 448.00 L 551.00 450.00 L 537.00 414.00 L 540.00 412.00 L 560.00 444.00 L 566.00 444.00 L 558.00 412.00 L 561.00 410.00 L 575.00 438.00 L 570.00 397.00 L 546.00 287.00 L 548.00 285.00 L 576.00 391.00 L 581.00 389.00 L 563.00 279.00 L 566.00 277.00 L 590.00 383.00 L 595.00 381.00 L 581.00 271.00 L 584.00 267.00 L 604.00 369.00 L 607.00 369.00 L 593.00 267.00 L 593.00 258.00 L 607.00 342.00 L 612.00 344.00 L 608.00 264.00 L 613.00 275.00 L 627.00 377.00 L 630.00 379.00 L 622.00 281.00 L 621.00 262.00 L 627.00 322.00 L 629.00 327.00 L 627.00 277.00 L 630.00 297.00 L 638.00 387.00 L 639.00 380.00 L 633.00 276.00 L 636.00 268.00 L 648.00 356.00 L 653.00 360.00 L 651.00 280.00 L 652.00 289.00 L 656.00 387.00 L 661.00 393.00 L 667.00 307.00 L 671.00 308.00 L 673.00 396.00 L 678.00 391.00 L 686.00 293.00 L 690.00 291.00 L 690.00 385.00 L 693.00 394.00 L 699.00 318.00 L 700.00 315.00 L 696.00 385.00 L 705.00 369.00 L 727.00 267.00 L 734.00 266.00 L 726.00 366.00 L 731.00 367.00 L 749.00 269.00 L 752.00 265.00 L 740.00 355.00 L 743.00 357.00 L 761.00 271.00 L 765.00 254.00 L 755.00 306.00 L 754.00 317.00 L 762.00 287.00 L 762.00 295.00 L 754.00 341.00 L 759.00 340.00 L 777.00 292.00 L 781.00 295.00 L 771.00 349.00 L 778.00 348.00 L 802.00 292.00 L 805.00 295.00 L 787.00 357.00 L 790.00 359.00 L 814.00 301.00 L 818.00 301.00 L 802.00 359.00 L 809.00 359.00 L 839.00 301.00 L 843.00 302.00 L 821.00 362.00 L 822.00 402.00 L 846.00 422.00 L 863.00 425.00 L 873.00 411.00 L 876.00 412.00 L 872.00 428.00 L 874.00 430.00 L 882.00 418.00 L 895.00 423.00 L 913.00 445.00 L 943.00 464.00 L 985.00 480.00 L 1020.00 506.00 L 1048.00 542.00 L 1069.00 588.00 L 1083.00 644.00 L 1088.00 706.00 L 1084.00 774.00 L 1072.00 831.00 L 1052.00 877.00 L 1015.00 925.00 L 961.00 975.00 L 913.00 1009.00 L 871.00 1027.00 L 875.00 1077.00 L 925.00 1159.00 L 925.00 1163.00 L 875.00 1089.00 L 869.00 1085.00 L 907.00 1151.00 L 930.00 1194.00 L 938.00 1214.00 L 919.00 1185.00 L 873.00 1107.00 L 885.00 1148.00 L 955.00 1308.00 L 960.00 1329.00 L 900.00 1211.00 L 902.00 1216.00 L 966.00 1344.00 L 967.00 1347.00 L 905.00 1225.00 L 908.00 1232.00 L 976.00 1368.00 L 977.00 1372.00 L 911.00 1244.00 L 909.00 1247.00 L 971.00 1381.00 L 955.00 1454.00 L 861.00 1466.00 L 747.00 1513.00 L 613.00 1595.00 L 558.00 1537.00 L 582.00 1339.00 L 578.00 1343.00 L 546.00 1549.00 L 545.00 1546.00 L 575.00 1334.00 L 571.00 1338.00 L 533.00 1558.00 L 532.00 1553.00 L 568.00 1323.00 L 563.00 1328.00 L 517.00 1568.00 L 516.00 1565.00 L 560.00 1319.00 L 555.00 1323.00 L 501.00 1577.00 L 500.00 1572.00 L 552.00 1308.00 L 547.00 1313.00 L 485.00 1587.00 L 484.00 1583.00 L 544.00 1301.00 L 541.00 1304.00 L 475.00 1592.00 L 474.00 1588.00 L 538.00 1292.00 L 531.00 1297.00 L 453.00 1603.00 L 452.00 1600.00 L 528.00 1288.00 L 525.00 1290.00 L 443.00 1606.00 L 440.00 1606.00 L 516.00 1290.00 L 509.00 1287.00 L 419.00 1597.00 L 393.00 1681.00 L 431.00 1539.00 L 427.00 1537.00 L 381.00 1675.00 L 404.00 1591.00 L 496.00 1285.00 L 493.00 1283.00 L 395.00 1585.00 L 392.00 1586.00 L 484.00 1286.00 L 478.00 1280.00 L 374.00 1568.00 L 371.00 1568.00 L 469.00 1280.00 L 465.00 1273.00 L 359.00 1547.00 L 318.00 1651.00 L 342.00 1585.00 L 340.00 1581.00 L 312.00 1639.00 L 305.00 1646.00 L 319.00 1602.00 L 319.00 1597.00 L 305.00 1631.00 L 302.00 1635.00 L 310.00 1609.00 L 310.00 1604.00 L 302.00 1620.00 L 349.00 1505.00 L 451.00 1259.00 L 486.00 1128.00 L 454.00 1112.00 L 430.00 1064.00 L 414.00 984.00 L 395.00 934.00 L 373.00 914.00 L 381.00 878.00 L 419.00 826.00 L 438.00 789.00 L 438.00 767.00 L 437.00 752.00 L 435.00 744.00 L 439.00 721.00 Z" fill="black" stroke="black" stroke-width="1"/>
</svg>