<?xml version="1.0" encoding="UTF-8"?>
<svg xmlns="http://www.w3.org/2000/svg" viewBox="407.00 206.00 845.00 1447.00">
  <path d="M 520.00 769.00 L 492.00 755.00 L 491.00 749.00 L 517.00 751.00 L 518.00 747.00 L 494.00 737.00 L 493.00 731.00 L 515.00 729.00 L 518.00 724.00 L 502.00 716.00 L 501.00 713.00 L 515.00 715.00 L 516.00 708.00 L 504.00 692.00 L 504.00 686.00 L 516.00 690.00 L 514.00 687.00 L 498.00 677.00 L 499.00 673.00 L 517.00 675.00 L 517.00 671.00 L 499.00 661.00 L 499.00 658.00 L 517.00 662.00 L 517.00 658.00 L 499.00 646.00 L 500.00 643.00 L 520.00 649.00 L 522.00 646.00 L 506.00 634.00 L 509.00 627.00 L 531.00 625.00 L 536.00 619.00 L 524.00 609.00 L 522.00 595.00 L 530.00 577.00 L 521.00 555.00 L 495.00 529.00 L 495.00 526.00 L 521.00 546.00 L 527.00 541.00 L 513.00 511.00 L 517.00 507.00 L 539.00 529.00 L 540.00 526.00 L 520.00 498.00 L 524.00 496.00 L 552.00 520.00 L 556.00 515.00 L 536.00 481.00 L 539.00 479.00 L 565.00 509.00 L 568.00 501.00 L 548.00 455.00 L 551.00 451.00 L 577.00 489.00 L 578.00 484.00 L 554.00 436.00 L 557.00 432.00 L 587.00 472.00 L 596.00 472.00 L 584.00 432.00 L 595.00 424.00 L 629.00 448.00 L 639.00 428.00 L 625.00 364.00 L 629.00 356.00 L 651.00 404.00 L 654.00 396.00 L 638.00 332.00 L 640.00 331.00 L 660.00 393.00 L 663.00 393.00 L 649.00 331.00 L 654.00 330.00 L 678.00 390.00 L 684.00 393.00 L 672.00 339.00 L 677.00 337.00 L 699.00 387.00 L 709.00 384.00 L 707.00 328.00 L 711.00 327.00 L 721.00 381.00 L 728.00 361.00 L 732.00 267.00 L 737.00 262.00 L 743.00 346.00 L 746.00 346.00 L 746.00 262.00 L 748.00 256.00 L 752.00 328.00 L 755.00 329.00 L 757.00 259.00 L 761.00 255.00 L 767.00 317.00 L 773.00 317.00 L 779.00 255.00 L 783.00 256.00 L 785.00 320.00 L 788.00 321.00 L 792.00 259.00 L 798.00 251.00 L 806.00 297.00 L 815.00 294.00 L 825.00 242.00 L 827.00 245.00 L 821.00 303.00 L 825.00 296.00 L 839.00 224.00 L 842.00 226.00 L 834.00 302.00 L 838.00 299.00 L 854.00 217.00 L 857.00 219.00 L 847.00 305.00 L 851.00 304.00 L 869.00 216.00 L 872.00 219.00 L 860.00 313.00 L 863.00 315.00 L 881.00 225.00 L 884.00 227.00 L 872.00 321.00 L 873.00 339.00 L 887.00 281.00 L 898.00 247.00 L 906.00 237.00 L 904.00 265.00 L 892.00 331.00 L 899.00 332.00 L 925.00 268.00 L 928.00 269.00 L 908.00 335.00 L 912.00 335.00 L 940.00 269.00 L 947.00 264.00 L 933.00 320.00 L 948.00 360.00 L 992.00 384.00 L 1021.00 389.00 L 1035.00 375.00 L 1038.00 376.00 L 1030.00 392.00 L 1033.00 393.00 L 1047.00 379.00 L 1068.00 388.00 L 1096.00 420.00 L 1122.00 431.00 L 1146.00 421.00 L 1167.00 428.00 L 1185.00 452.00 L 1207.00 509.00 L 1233.00 599.00 L 1242.00 681.00 L 1234.00 755.00 L 1208.00 831.00 L 1164.00 909.00 L 1112.00 971.00 L 1052.00 1017.00 L 1045.00 1106.00 L 1091.00 1238.00 L 1102.00 1288.00 L 1078.00 1256.00 L 1093.00 1287.00 L 1147.00 1381.00 L 1147.00 1386.00 L 1093.00 1302.00 L 1089.00 1303.00 L 1135.00 1389.00 L 1096.00 1440.00 L 972.00 1456.00 L 834.00 1502.00 L 682.00 1578.00 L 624.00 1518.00 L 660.00 1322.00 L 656.00 1324.00 L 612.00 1524.00 L 611.00 1520.00 L 653.00 1312.00 L 645.00 1318.00 L 587.00 1538.00 L 585.00 1534.00 L 639.00 1306.00 L 636.00 1308.00 L 576.00 1540.00 L 567.00 1565.00 L 609.00 1383.00 L 601.00 1388.00 L 543.00 1580.00 L 549.00 1550.00 L 619.00 1298.00 L 615.00 1301.00 L 537.00 1559.00 L 523.00 1598.00 L 573.00 1418.00 L 566.00 1424.00 L 502.00 1616.00 L 513.00 1574.00 L 599.00 1298.00 L 592.00 1303.00 L 492.00 1589.00 L 472.00 1643.00 L 532.00 1465.00 L 525.00 1460.00 L 451.00 1628.00 L 467.00 1571.00 L 573.00 1289.00 L 571.00 1287.00 L 461.00 1565.00 L 429.00 1640.00 L 475.00 1512.00 L 471.00 1506.00 L 417.00 1622.00 L 445.00 1546.00 L 555.00 1278.00 L 553.00 1275.00 L 439.00 1537.00 L 436.00 1537.00 L 544.00 1275.00 L 541.00 1266.00 L 427.00 1510.00 L 424.00 1510.00 L 532.00 1266.00 L 566.00 1134.00 L 526.00 1114.00 L 503.00 1058.00 L 497.00 966.00 L 484.00 911.00 L 464.00 893.00 L 473.00 860.00 L 511.00 812.00 L 531.00 785.00 L 533.00 779.00 L 520.00 769.00 Z" fill="black" stroke="black" stroke-width="1"/>
</svg>