<?xml version="1.0" encoding="UTF-8"?>
<svg xmlns="http://www.w3.org/2000/svg" viewBox="264.00 273.00 1063.00 1467.00">
  <path d="M 295.00 989.00 L 281.00 955.00 L 274.00 932.00 L 274.00 920.00 L 277.00 903.00 L 283.00 881.00 L 286.00 854.00 L 286.00 822.00 L 291.00 790.00 L 301.00 758.00 L 307.00 717.00 L 309.00 667.00 L 316.00 624.00 L 328.00 588.00 L 337.00 545.00 L 343.00 495.00 L 349.00 461.00 L 355.00 443.00 L 366.00 419.00 L 382.00 389.00 L 397.00 364.00 L 411.00 344.00 L 425.00 327.00 L 439.00 313.00 L 459.00 300.00 L 485.00 288.00 L 514.00 283.00 L 546.00 285.00 L 569.00 289.00 L 583.00 295.00 L 599.00 328.00 L 617.00 388.00 L 618.00 389.00 L 602.00 331.00 L 603.00 333.00 L 621.00 395.00 L 629.00 419.00 L 627.00 405.00 L 629.00 408.00 L 635.00 428.00 L 629.00 405.00 L 611.00 339.00 L 609.00 327.00 L 623.00 369.00 L 625.00 371.00 L 615.00 333.00 L 612.00 317.00 L 616.00 323.00 L 622.00 340.00 L 630.00 368.00 L 632.00 373.00 L 628.00 355.00 L 632.00 369.00 L 644.00 415.00 L 645.00 417.00 L 635.00 375.00 L 637.00 375.00 L 651.00 417.00 L 670.00 435.00 L 694.00 429.00 L 742.00 424.00 L 814.00 420.00 L 877.00 425.00 L 931.00 439.00 L 969.00 445.00 L 991.00 443.00 L 1007.00 443.00 L 1017.00 445.00 L 1035.00 454.00 L 1061.00 470.00 L 1075.00 483.00 L 1077.00 493.00 L 1092.00 511.00 L 1120.00 537.00 L 1142.00 564.00 L 1158.00 592.00 L 1171.00 620.00 L 1181.00 648.00 L 1186.00 675.00 L 1186.00 701.00 L 1187.00 716.00 L 1189.00 720.00 L 1189.00 727.00 L 1187.00 737.00 L 1188.00 747.00 L 1192.00 757.00 L 1199.00 768.00 L 1209.00 780.00 L 1227.00 797.00 L 1253.00 819.00 L 1265.00 831.00 L 1263.00 833.00 L 1264.00 834.00 L 1268.00 834.00 L 1278.00 844.00 L 1294.00 864.00 L 1307.00 885.00 L 1317.00 907.00 L 1317.00 925.00 L 1307.00 939.00 L 1291.00 951.00 L 1269.00 961.00 L 1260.00 966.00 L 1264.00 966.00 L 1257.00 969.00 L 1239.00 975.00 L 1227.00 988.00 L 1221.00 1008.00 L 1219.00 1020.00 L 1221.00 1024.00 L 1218.00 1031.00 L 1210.00 1041.00 L 1209.00 1053.00 L 1215.00 1067.00 L 1217.00 1077.00 L 1215.00 1083.00 L 1215.00 1088.00 L 1217.00 1092.00 L 1217.00 1096.00 L 1215.00 1100.00 L 1215.00 1115.00 L 1217.00 1141.00 L 1217.00 1159.00 L 1215.00 1169.00 L 1210.00 1180.00 L 1202.00 1192.00 L 1193.00 1203.00 L 1183.00 1213.00 L 1155.00 1227.00 L 1109.00 1245.00 L 1076.00 1263.00 L 1056.00 1281.00 L 1038.00 1294.00 L 1022.00 1302.00 L 1068.00 1384.00 L 1176.00 1540.00 L 1174.00 1541.00 L 1062.00 1387.00 L 1063.00 1389.00 L 1177.00 1547.00 L 1205.00 1587.00 L 1147.00 1509.00 L 1149.00 1514.00 L 1211.00 1602.00 L 1196.00 1582.00 L 1104.00 1454.00 L 1104.00 1456.00 L 1196.00 1588.00 L 1191.00 1583.00 L 1089.00 1441.00 L 1089.00 1444.00 L 1191.00 1592.00 L 1190.00 1591.00 L 1086.00 1441.00 L 1086.00 1443.00 L 1190.00 1597.00 L 1188.00 1596.00 L 1080.00 1440.00 L 1080.00 1443.00 L 1188.00 1605.00 L 1181.00 1595.00 L 1059.00 1413.00 L 1058.00 1415.00 L 1178.00 1601.00 L 1178.00 1603.00 L 1058.00 1421.00 L 1057.00 1422.00 L 1175.00 1606.00 L 1176.00 1609.00 L 1060.00 1431.00 L 1059.00 1433.00 L 1173.00 1615.00 L 1221.00 1712.00 L 1203.00 1724.00 L 1188.00 1730.00 L 1176.00 1730.00 L 1154.00 1726.00 L 1122.00 1718.00 L 1087.00 1705.00 L 1049.00 1687.00 L 1014.00 1669.00 L 982.00 1651.00 L 945.00 1627.00 L 903.00 1597.00 L 856.00 1569.00 L 804.00 1543.00 L 758.00 1523.00 L 718.00 1509.00 L 670.00 1496.00 L 614.00 1484.00 L 554.00 1474.00 L 490.00 1466.00 L 457.00 1463.00 L 455.00 1465.00 L 453.00 1465.00 L 451.00 1463.00 L 439.00 1462.00 L 417.00 1462.00 L 403.00 1460.00 L 397.00 1456.00 L 390.00 1450.00 L 382.00 1442.00 L 376.00 1428.00 L 372.00 1408.00 L 372.00 1394.00 L 376.00 1386.00 L 383.00 1377.00 L 393.00 1367.00 L 403.00 1351.00 L 413.00 1329.00 L 423.00 1312.00 L 433.00 1300.00 L 438.00 1289.00 L 438.00 1279.00 L 440.00 1270.00 L 444.00 1262.00 L 451.00 1253.00 L 461.00 1243.00 L 463.00 1240.00 L 457.00 1244.00 L 459.00 1240.00 L 469.00 1228.00 L 473.00 1221.00 L 471.00 1219.00 L 469.00 1197.00 L 467.00 1155.00 L 463.00 1134.00 L 457.00 1134.00 L 456.00 1132.00 L 460.00 1128.00 L 457.00 1127.00 L 447.00 1129.00 L 440.00 1120.00 L 436.00 1100.00 L 417.00 1083.00 L 383.00 1069.00 L 353.00 1051.00 L 327.00 1029.00 L 311.00 1015.00 L 305.00 1009.00 L 295.00 989.00 Z" fill="black" stroke="black" stroke-width="1"/>
</svg>