<?xml version="1.0" encoding="UTF-8"?>
<svg xmlns="http://www.w3.org/2000/svg" viewBox="301.00 214.00 910.00 1380.00">
  <path d="M 444.00 823.00 L 424.00 801.00 L 439.00 764.00 L 489.00 712.00 L 517.00 678.00 L 523.00 662.00 L 520.00 647.00 L 508.00 633.00 L 508.00 630.00 L 520.00 638.00 L 519.00 629.00 L 505.00 603.00 L 504.00 595.00 L 516.00 605.00 L 516.00 602.00 L 504.00 586.00 L 505.00 583.00 L 519.00 593.00 L 521.00 589.00 L 511.00 571.00 L 511.00 568.00 L 521.00 580.00 L 525.00 566.00 L 523.00 526.00 L 527.00 512.00 L 537.00 524.00 L 538.00 522.00 L 530.00 506.00 L 530.00 505.00 L 538.00 519.00 L 542.00 514.00 L 542.00 490.00 L 545.00 484.00 L 551.00 496.00 L 542.00 464.00 L 518.00 388.00 L 519.00 379.00 L 545.00 437.00 L 546.00 429.00 L 522.00 355.00 L 524.00 353.00 L 552.00 423.00 L 553.00 421.00 L 527.00 347.00 L 529.00 344.00 L 559.00 412.00 L 563.00 413.00 L 541.00 347.00 L 545.00 342.00 L 575.00 398.00 L 579.00 375.00 L 557.00 273.00 L 560.00 271.00 L 588.00 369.00 L 591.00 376.00 L 569.00 292.00 L 569.00 289.00 L 591.00 367.00 L 591.00 359.00 L 569.00 265.00 L 572.00 267.00 L 600.00 365.00 L 603.00 363.00 L 581.00 261.00 L 581.00 256.00 L 603.00 348.00 L 606.00 349.00 L 590.00 259.00 L 592.00 255.00 L 612.00 337.00 L 614.00 337.00 L 598.00 255.00 L 601.00 256.00 L 623.00 340.00 L 630.00 341.00 L 622.00 259.00 L 629.00 224.00 L 651.00 236.00 L 673.00 264.00 L 695.00 308.00 L 719.00 322.00 L 745.00 306.00 L 776.00 303.00 L 812.00 313.00 L 834.00 311.00 L 842.00 297.00 L 853.00 294.00 L 867.00 302.00 L 884.00 299.00 L 904.00 285.00 L 940.00 281.00 L 992.00 287.00 L 1039.00 304.00 L 1081.00 332.00 L 1120.00 370.00 L 1156.00 418.00 L 1183.00 493.00 L 1201.00 595.00 L 1194.00 660.00 L 1162.00 688.00 L 1158.00 699.00 L 1182.00 693.00 L 1180.00 695.00 L 1152.00 705.00 L 1151.00 707.00 L 1177.00 701.00 L 1176.00 705.00 L 1148.00 719.00 L 1143.00 724.00 L 1161.00 720.00 L 1143.00 753.00 L 1089.00 823.00 L 1032.00 881.00 L 972.00 927.00 L 940.00 962.00 L 936.00 986.00 L 943.00 1019.00 L 961.00 1061.00 L 964.00 1079.00 L 952.00 1073.00 L 956.00 1082.00 L 976.00 1106.00 L 976.00 1109.00 L 956.00 1091.00 L 962.00 1099.00 L 994.00 1133.00 L 1004.00 1145.00 L 992.00 1135.00 L 997.00 1150.00 L 1019.00 1190.00 L 1038.00 1250.00 L 1054.00 1330.00 L 998.00 1380.00 L 870.00 1400.00 L 761.00 1431.00 L 671.00 1473.00 L 635.00 1412.00 L 653.00 1248.00 L 650.00 1249.00 L 626.00 1415.00 L 626.00 1409.00 L 650.00 1231.00 L 648.00 1233.00 L 620.00 1415.00 L 620.00 1412.00 L 648.00 1224.00 L 645.00 1225.00 L 611.00 1415.00 L 610.00 1412.00 L 642.00 1216.00 L 640.00 1217.00 L 604.00 1415.00 L 604.00 1414.00 L 640.00 1214.00 L 637.00 1216.00 L 595.00 1420.00 L 594.00 1417.00 L 634.00 1207.00 L 631.00 1209.00 L 585.00 1423.00 L 585.00 1421.00 L 631.00 1203.00 L 628.00 1205.00 L 576.00 1427.00 L 575.00 1424.00 L 625.00 1196.00 L 619.00 1200.00 L 557.00 1436.00 L 556.00 1433.00 L 616.00 1191.00 L 613.00 1192.00 L 547.00 1436.00 L 536.00 1475.00 L 580.00 1309.00 L 573.00 1314.00 L 515.00 1490.00 L 525.00 1447.00 L 603.00 1185.00 L 601.00 1186.00 L 519.00 1450.00 L 502.00 1500.00 L 550.00 1336.00 L 547.00 1338.00 L 493.00 1506.00 L 490.00 1509.00 L 538.00 1347.00 L 529.00 1354.00 L 463.00 1530.00 L 481.00 1474.00 L 583.00 1186.00 L 580.00 1188.00 L 472.00 1480.00 L 448.00 1543.00 L 508.00 1377.00 L 500.00 1383.00 L 424.00 1561.00 L 446.00 1497.00 L 566.00 1191.00 L 562.00 1193.00 L 434.00 1503.00 L 401.00 1582.00 L 463.00 1430.00 L 459.00 1429.00 L 389.00 1579.00 L 384.00 1584.00 L 444.00 1444.00 L 439.00 1441.00 L 369.00 1575.00 L 404.00 1491.00 L 544.00 1189.00 L 541.00 1186.00 L 395.00 1482.00 L 349.00 1574.00 L 403.00 1462.00 L 400.00 1457.00 L 340.00 1559.00 L 383.00 1467.00 L 529.00 1181.00 L 528.00 1177.00 L 380.00 1455.00 L 328.00 1552.00 L 372.00 1468.00 L 371.00 1465.00 L 325.00 1543.00 L 321.00 1546.00 L 359.00 1474.00 L 359.00 1472.00 L 321.00 1540.00 L 318.00 1543.00 L 350.00 1481.00 L 350.00 1478.00 L 318.00 1534.00 L 316.00 1536.00 L 344.00 1484.00 L 344.00 1482.00 L 316.00 1530.00 L 314.00 1531.00 L 338.00 1485.00 L 338.00 1482.00 L 314.00 1522.00 L 312.00 1524.00 L 332.00 1488.00 L 333.00 1485.00 L 315.00 1515.00 L 311.00 1520.00 L 321.00 1500.00 L 323.00 1495.00 L 317.00 1505.00 L 383.00 1392.00 L 521.00 1156.00 L 561.00 1031.00 L 503.00 1017.00 L 469.00 968.00 L 459.00 884.00 L 454.00 840.00 L 454.00 836.00 L 444.00 823.00 Z" fill="black" stroke="black" stroke-width="1"/>
</svg>