<?xml version="1.0" encoding="UTF-8"?>
<svg xmlns="http://www.w3.org/2000/svg" viewBox="439.00 330.00 829.00 1282.00">
  <path d="M 488.00 871.00 L 508.00 849.00 L 518.00 831.00 L 518.00 817.00 L 507.00 804.00 L 485.00 792.00 L 485.00 790.00 L 507.00 798.00 L 505.00 794.00 L 479.00 778.00 L 478.00 775.00 L 502.00 785.00 L 502.00 782.00 L 478.00 766.00 L 478.00 762.00 L 502.00 770.00 L 503.00 767.00 L 481.00 753.00 L 481.00 751.00 L 503.00 761.00 L 507.00 762.00 L 493.00 754.00 L 493.00 752.00 L 507.00 756.00 L 506.00 746.00 L 490.00 722.00 L 491.00 715.00 L 509.00 725.00 L 509.00 722.00 L 491.00 706.00 L 491.00 704.00 L 509.00 716.00 L 509.00 713.00 L 491.00 695.00 L 492.00 693.00 L 512.00 707.00 L 513.00 706.00 L 495.00 690.00 L 495.00 688.00 L 513.00 700.00 L 514.00 698.00 L 498.00 682.00 L 499.00 679.00 L 517.00 689.00 L 519.00 676.00 L 505.00 640.00 L 511.00 606.00 L 537.00 574.00 L 539.00 534.00 L 517.00 486.00 L 518.00 483.00 L 542.00 525.00 L 544.00 525.00 L 524.00 483.00 L 527.00 480.00 L 553.00 516.00 L 555.00 506.00 L 533.00 450.00 L 535.00 448.00 L 561.00 500.00 L 567.00 498.00 L 553.00 442.00 L 557.00 439.00 L 579.00 489.00 L 581.00 485.00 L 563.00 427.00 L 565.00 425.00 L 587.00 479.00 L 594.00 491.00 L 586.00 461.00 L 590.00 457.00 L 606.00 479.00 L 610.00 456.00 L 602.00 388.00 L 606.00 379.00 L 622.00 429.00 L 624.00 421.00 L 612.00 355.00 L 615.00 357.00 L 633.00 427.00 L 635.00 424.00 L 621.00 348.00 L 624.00 348.00 L 644.00 424.00 L 646.00 423.00 L 630.00 345.00 L 632.00 343.00 L 652.00 417.00 L 655.00 417.00 L 641.00 343.00 L 641.00 340.00 L 655.00 408.00 L 674.00 435.00 L 698.00 421.00 L 713.00 427.00 L 719.00 453.00 L 724.00 450.00 L 728.00 418.00 L 731.00 408.00 L 733.00 420.00 L 795.00 420.00 L 917.00 408.00 L 996.00 409.00 L 1032.00 423.00 L 1079.00 454.00 L 1137.00 502.00 L 1190.00 576.00 L 1238.00 676.00 L 1258.00 744.00 L 1250.00 780.00 L 1215.00 804.00 L 1153.00 816.00 L 1150.00 819.00 L 1206.00 813.00 L 1205.00 815.00 L 1147.00 825.00 L 1145.00 826.00 L 1199.00 818.00 L 1198.00 821.00 L 1142.00 835.00 L 1078.00 883.00 L 1006.00 965.00 L 1013.00 1073.00 L 1099.00 1207.00 L 1098.00 1284.00 L 1010.00 1304.00 L 938.00 1329.00 L 882.00 1359.00 L 782.00 1450.00 L 638.00 1602.00 L 593.00 1556.00 L 647.00 1312.00 L 642.00 1319.00 L 578.00 1577.00 L 577.00 1576.00 L 639.00 1316.00 L 635.00 1320.00 L 565.00 1588.00 L 562.00 1588.00 L 626.00 1320.00 L 621.00 1316.00 L 547.00 1576.00 L 541.00 1596.00 L 603.00 1376.00 L 601.00 1374.00 L 535.00 1590.00 L 532.00 1596.00 L 592.00 1392.00 L 589.00 1387.00 L 523.00 1581.00 L 529.00 1555.00 L 607.00 1309.00 L 606.00 1307.00 L 526.00 1549.00 L 524.00 1549.00 L 600.00 1307.00 L 598.00 1300.00 L 518.00 1528.00 L 498.00 1584.00 L 538.00 1468.00 L 537.00 1465.00 L 495.00 1575.00 L 491.00 1581.00 L 525.00 1483.00 L 524.00 1480.00 L 488.00 1572.00 L 484.00 1578.00 L 512.00 1498.00 L 513.00 1489.00 L 487.00 1551.00 L 512.00 1483.00 L 588.00 1285.00 L 589.00 1280.00 L 515.00 1468.00 L 511.00 1468.00 L 577.00 1280.00 L 587.00 1176.00 L 541.00 1156.00 L 507.00 1114.00 L 485.00 1050.00 L 477.00 1008.00 L 483.00 988.00 L 475.00 967.00 L 453.00 945.00 L 449.00 923.00 L 463.00 901.00 L 472.00 888.00 L 476.00 884.00 L 488.00 871.00 Z" fill="black" stroke="black" stroke-width="1"/>
</svg>