<?xml version="1.0" encoding="UTF-8"?>
<svg xmlns="http://www.w3.org/2000/svg" viewBox="280.00 380.00 967.00 1350.00">
  <path d="M 354.00 1051.00 L 362.00 1033.00 L 366.00 1019.00 L 366.00 1009.00 L 356.00 983.00 L 336.00 941.00 L 320.00 901.00 L 308.00 863.00 L 299.00 826.00 L 293.00 790.00 L 290.00 753.00 L 290.00 715.00 L 293.00 680.00 L 299.00 648.00 L 308.00 616.00 L 320.00 584.00 L 334.00 554.00 L 350.00 526.00 L 365.00 505.00 L 379.00 491.00 L 396.00 477.00 L 416.00 463.00 L 445.00 448.00 L 483.00 432.00 L 522.00 420.00 L 562.00 412.00 L 594.00 408.00 L 618.00 408.00 L 632.00 407.00 L 636.00 405.00 L 640.00 405.00 L 644.00 407.00 L 651.00 406.00 L 661.00 402.00 L 682.00 399.00 L 714.00 397.00 L 739.00 394.00 L 757.00 390.00 L 787.00 391.00 L 829.00 397.00 L 862.00 404.00 L 886.00 412.00 L 916.00 426.00 L 952.00 446.00 L 984.00 468.00 L 1012.00 492.00 L 1030.00 511.00 L 1038.00 525.00 L 1046.00 545.00 L 1054.00 571.00 L 1062.00 590.00 L 1070.00 602.00 L 1077.00 618.00 L 1083.00 638.00 L 1088.00 650.00 L 1092.00 654.00 L 1090.00 667.00 L 1082.00 689.00 L 1080.00 704.00 L 1084.00 712.00 L 1093.00 723.00 L 1107.00 737.00 L 1135.00 756.00 L 1177.00 780.00 L 1207.00 800.00 L 1225.00 816.00 L 1235.00 827.00 L 1237.00 833.00 L 1236.00 844.00 L 1232.00 860.00 L 1226.00 872.00 L 1218.00 880.00 L 1200.00 892.00 L 1172.00 908.00 L 1156.00 920.00 L 1152.00 928.00 L 1148.00 938.00 L 1144.00 950.00 L 1143.00 961.00 L 1145.00 971.00 L 1145.00 979.00 L 1143.00 985.00 L 1139.00 990.00 L 1133.00 994.00 L 1130.00 1002.00 L 1130.00 1014.00 L 1125.00 1029.00 L 1115.00 1047.00 L 1114.00 1063.00 L 1122.00 1077.00 L 1126.00 1090.00 L 1126.00 1102.00 L 1124.00 1114.00 L 1120.00 1126.00 L 1102.00 1147.00 L 1070.00 1177.00 L 1044.00 1199.00 L 1024.00 1213.00 L 1018.00 1224.00 L 1026.00 1232.00 L 1027.00 1235.00 L 1021.00 1233.00 L 1023.00 1236.00 L 1033.00 1244.00 L 1030.00 1242.00 L 1014.00 1230.00 L 1014.00 1232.00 L 1030.00 1248.00 L 1028.00 1249.00 L 1008.00 1235.00 L 1008.00 1237.00 L 1028.00 1255.00 L 1035.00 1270.00 L 1029.00 1282.00 L 1025.00 1299.00 L 1023.00 1321.00 L 1052.00 1371.00 L 1112.00 1449.00 L 1140.00 1486.00 L 1136.00 1482.00 L 1137.00 1484.00 L 1143.00 1492.00 L 1139.00 1488.00 L 1125.00 1472.00 L 1127.00 1476.00 L 1145.00 1500.00 L 1120.00 1469.00 L 1052.00 1383.00 L 1054.00 1388.00 L 1126.00 1484.00 L 1127.00 1487.00 L 1057.00 1397.00 L 1067.00 1412.00 L 1157.00 1532.00 L 1157.00 1534.00 L 1067.00 1418.00 L 1074.00 1431.00 L 1178.00 1573.00 L 1178.00 1575.00 L 1074.00 1437.00 L 1073.00 1439.00 L 1175.00 1581.00 L 1218.00 1641.00 L 1202.00 1619.00 L 1202.00 1620.00 L 1218.00 1644.00 L 1185.00 1599.00 L 1103.00 1485.00 L 1104.00 1488.00 L 1188.00 1608.00 L 1186.00 1607.00 L 1098.00 1485.00 L 1098.00 1487.00 L 1186.00 1613.00 L 1178.00 1602.00 L 1074.00 1454.00 L 1067.00 1445.00 L 1157.00 1575.00 L 1162.00 1583.00 L 1082.00 1469.00 L 1088.00 1480.00 L 1180.00 1616.00 L 1175.00 1610.00 L 1073.00 1462.00 L 1022.00 1389.00 L 1022.00 1391.00 L 1072.00 1467.00 L 1172.00 1617.00 L 1219.00 1695.00 L 1213.00 1701.00 L 1202.00 1708.00 L 1186.00 1716.00 L 1168.00 1720.00 L 1148.00 1720.00 L 1119.00 1711.00 L 1081.00 1693.00 L 1050.00 1674.00 L 1026.00 1654.00 L 987.00 1627.00 L 933.00 1593.00 L 878.00 1562.00 L 822.00 1534.00 L 771.00 1512.00 L 725.00 1496.00 L 686.00 1484.00 L 654.00 1476.00 L 617.00 1468.00 L 575.00 1460.00 L 531.00 1455.00 L 485.00 1453.00 L 446.00 1445.00 L 414.00 1431.00 L 395.00 1419.00 L 389.00 1409.00 L 386.00 1397.00 L 386.00 1383.00 L 392.00 1362.00 L 404.00 1334.00 L 409.00 1315.00 L 407.00 1305.00 L 408.00 1293.00 L 412.00 1279.00 L 411.00 1267.00 L 405.00 1257.00 L 402.00 1246.00 L 402.00 1234.00 L 405.00 1210.00 L 411.00 1174.00 L 414.00 1144.00 L 414.00 1120.00 L 407.00 1108.00 L 393.00 1108.00 L 384.00 1107.00 L 380.00 1105.00 L 383.00 1103.00 L 393.00 1101.00 L 392.00 1100.00 L 380.00 1100.00 L 384.00 1099.00 L 404.00 1097.00 L 403.00 1095.00 L 381.00 1093.00 L 381.00 1091.00 L 403.00 1089.00 L 401.00 1088.00 L 375.00 1088.00 L 359.00 1083.00 L 353.00 1073.00 L 350.00 1066.00 L 350.00 1062.00 L 354.00 1051.00 Z" fill="black" stroke="black" stroke-width="1"/>
</svg>