<?xml version="1.0" encoding="UTF-8"?>
<svg xmlns="http://www.w3.org/2000/svg" viewBox="328.00 212.00 917.00 1387.00">
  <path d="M 419.00 693.00 L 429.00 691.00 L 423.00 688.00 L 401.00 684.00 L 401.00 681.00 L 423.00 679.00 L 422.00 673.00 L 398.00 663.00 L 399.00 659.00 L 425.00 661.00 L 427.00 658.00 L 405.00 650.00 L 406.00 647.00 L 430.00 649.00 L 433.00 645.00 L 415.00 635.00 L 416.00 631.00 L 436.00 633.00 L 440.00 631.00 L 428.00 625.00 L 429.00 617.00 L 443.00 607.00 L 442.00 599.00 L 426.00 593.00 L 429.00 590.00 L 451.00 590.00 L 452.00 585.00 L 432.00 575.00 L 436.00 555.00 L 464.00 525.00 L 461.00 493.00 L 427.00 459.00 L 430.00 458.00 L 470.00 490.00 L 464.00 483.00 L 412.00 437.00 L 414.00 435.00 L 470.00 477.00 L 473.00 475.00 L 423.00 429.00 L 422.00 425.00 L 470.00 463.00 L 474.00 457.00 L 434.00 407.00 L 426.00 380.00 L 450.00 376.00 L 467.00 366.00 L 477.00 350.00 L 498.00 365.00 L 530.00 411.00 L 531.00 404.00 L 501.00 344.00 L 504.00 344.00 L 540.00 404.00 L 544.00 401.00 L 516.00 335.00 L 520.00 335.00 L 556.00 401.00 L 560.00 398.00 L 532.00 326.00 L 535.00 323.00 L 569.00 389.00 L 574.00 387.00 L 550.00 317.00 L 553.00 316.00 L 583.00 384.00 L 589.00 389.00 L 571.00 331.00 L 578.00 334.00 L 610.00 398.00 L 620.00 395.00 L 608.00 325.00 L 613.00 325.00 L 635.00 395.00 L 640.00 393.00 L 628.00 319.00 L 631.00 320.00 L 649.00 396.00 L 651.00 389.00 L 637.00 299.00 L 641.00 297.00 L 663.00 383.00 L 669.00 384.00 L 659.00 300.00 L 660.00 282.00 L 672.00 330.00 L 677.00 329.00 L 675.00 279.00 L 678.00 294.00 L 686.00 374.00 L 688.00 366.00 L 684.00 270.00 L 688.00 271.00 L 700.00 369.00 L 706.00 376.00 L 706.00 292.00 L 708.00 282.00 L 712.00 346.00 L 716.00 354.00 L 720.00 306.00 L 723.00 318.00 L 725.00 390.00 L 732.00 371.00 L 744.00 261.00 L 747.00 262.00 L 741.00 374.00 L 747.00 364.00 L 765.00 232.00 L 769.00 232.00 L 759.00 364.00 L 765.00 369.00 L 787.00 247.00 L 791.00 242.00 L 777.00 354.00 L 782.00 356.00 L 806.00 248.00 L 806.00 252.00 L 782.00 368.00 L 785.00 367.00 L 815.00 249.00 L 819.00 248.00 L 797.00 364.00 L 803.00 363.00 L 837.00 245.00 L 839.00 245.00 L 809.00 363.00 L 818.00 357.00 L 866.00 227.00 L 871.00 222.00 L 833.00 342.00 L 836.00 345.00 L 880.00 231.00 L 884.00 234.00 L 848.00 354.00 L 849.00 375.00 L 887.00 297.00 L 891.00 300.00 L 861.00 384.00 L 868.00 383.00 L 912.00 297.00 L 923.00 284.00 L 901.00 344.00 L 906.00 346.00 L 938.00 290.00 L 939.00 293.00 L 909.00 355.00 L 910.00 364.00 L 942.00 320.00 L 947.00 326.00 L 925.00 382.00 L 939.00 400.00 L 989.00 380.00 L 1036.00 377.00 L 1080.00 391.00 L 1122.00 419.00 L 1162.00 461.00 L 1196.00 520.00 L 1224.00 596.00 L 1235.00 661.00 L 1229.00 715.00 L 1212.00 764.00 L 1184.00 808.00 L 1154.00 843.00 L 1122.00 869.00 L 1087.00 875.00 L 1049.00 861.00 L 1045.00 863.00 L 1075.00 881.00 L 1072.00 884.00 L 1036.00 872.00 L 1028.00 873.00 L 1048.00 887.00 L 1046.00 890.00 L 1022.00 882.00 L 981.00 909.00 L 923.00 971.00 L 923.00 1051.00 L 981.00 1149.00 L 979.00 1147.00 L 917.00 1045.00 L 921.00 1055.00 L 991.00 1177.00 L 993.00 1182.00 L 927.00 1070.00 L 928.00 1082.00 L 996.00 1218.00 L 998.00 1227.00 L 934.00 1109.00 L 931.00 1109.00 L 989.00 1227.00 L 960.00 1300.00 L 844.00 1328.00 L 729.00 1378.00 L 615.00 1450.00 L 571.00 1411.00 L 597.00 1261.00 L 593.00 1264.00 L 559.00 1420.00 L 559.00 1416.00 L 593.00 1252.00 L 588.00 1257.00 L 544.00 1431.00 L 541.00 1427.00 L 579.00 1245.00 L 570.00 1253.00 L 514.00 1451.00 L 512.00 1448.00 L 564.00 1244.00 L 557.00 1251.00 L 491.00 1469.00 L 489.00 1466.00 L 551.00 1242.00 L 548.00 1245.00 L 480.00 1475.00 L 465.00 1518.00 L 503.00 1374.00 L 494.00 1384.00 L 438.00 1548.00 L 450.00 1503.00 L 530.00 1249.00 L 521.00 1258.00 L 423.00 1530.00 L 419.00 1529.00 L 509.00 1255.00 L 505.00 1252.00 L 407.00 1520.00 L 380.00 1589.00 L 424.00 1459.00 L 420.00 1454.00 L 368.00 1574.00 L 392.00 1504.00 L 492.00 1244.00 L 491.00 1240.00 L 389.00 1492.00 L 358.00 1567.00 L 398.00 1465.00 L 396.00 1460.00 L 352.00 1552.00 L 346.00 1557.00 L 378.00 1475.00 L 377.00 1471.00 L 343.00 1545.00 L 340.00 1548.00 L 368.00 1480.00 L 368.00 1477.00 L 340.00 1539.00 L 338.00 1542.00 L 362.00 1486.00 L 362.00 1481.00 L 338.00 1527.00 L 375.00 1440.00 L 473.00 1220.00 L 474.00 1216.00 L 378.00 1428.00 L 372.00 1427.00 L 456.00 1213.00 L 482.00 1103.00 L 450.00 1097.00 L 429.00 1085.00 L 419.00 1067.00 L 412.00 1017.00 L 408.00 935.00 L 396.00 884.00 L 376.00 864.00 L 381.00 829.00 L 411.00 779.00 L 421.00 750.00 L 411.00 742.00 L 412.00 735.00 L 424.00 729.00 L 420.00 727.00 L 400.00 729.00 L 400.00 724.00 L 420.00 712.00 L 423.00 704.00 L 409.00 700.00 L 405.00 697.00 L 411.00 695.00 L 419.00 693.00 Z" fill="black" stroke="black" stroke-width="1"/>
</svg>