<?xml version="1.0" encoding="UTF-8"?>
<svg xmlns="http://www.w3.org/2000/svg" viewBox="317.00 195.00 993.00 1740.00">
  <path d="M 499.00 1109.00 L 477.00 1091.00 L 469.00 1061.00 L 475.00 1019.00 L 471.00 969.00 L 457.00 911.00 L 436.00 873.00 L 408.00 855.00 L 407.00 852.00 L 433.00 864.00 L 428.00 857.00 L 392.00 831.00 L 404.00 782.00 L 464.00 710.00 L 492.00 646.00 L 488.00 590.00 L 491.00 567.00 L 501.00 577.00 L 502.00 574.00 L 494.00 558.00 L 495.00 554.00 L 505.00 562.00 L 508.00 560.00 L 504.00 548.00 L 508.00 541.00 L 520.00 539.00 L 525.00 517.00 L 523.00 475.00 L 529.00 455.00 L 543.00 457.00 L 546.00 450.00 L 538.00 434.00 L 541.00 428.00 L 555.00 432.00 L 560.00 425.00 L 556.00 407.00 L 558.00 404.00 L 566.00 416.00 L 569.00 413.00 L 567.00 395.00 L 590.00 360.00 L 638.00 308.00 L 703.00 265.00 L 785.00 231.00 L 871.00 211.00 L 961.00 205.00 L 1052.00 221.00 L 1144.00 259.00 L 1213.00 308.00 L 1259.00 368.00 L 1288.00 451.00 L 1300.00 557.00 L 1296.00 675.00 L 1276.00 805.00 L 1243.00 887.00 L 1197.00 921.00 L 1197.00 924.00 L 1243.00 896.00 L 1242.00 898.00 L 1194.00 930.00 L 1194.00 934.00 L 1242.00 910.00 L 1242.00 913.00 L 1194.00 943.00 L 1195.00 947.00 L 1245.00 925.00 L 1245.00 928.00 L 1195.00 956.00 L 1195.00 959.00 L 1245.00 937.00 L 1244.00 942.00 L 1192.00 974.00 L 1193.00 978.00 L 1247.00 954.00 L 1247.00 957.00 L 1193.00 987.00 L 1195.00 994.00 L 1253.00 978.00 L 1252.00 983.00 L 1192.00 1009.00 L 1192.00 1012.00 L 1252.00 992.00 L 1252.00 995.00 L 1192.00 1021.00 L 1193.00 1029.00 L 1255.00 1019.00 L 1255.00 1023.00 L 1193.00 1041.00 L 1193.00 1044.00 L 1255.00 1032.00 L 1254.00 1037.00 L 1190.00 1059.00 L 1190.00 1064.00 L 1254.00 1052.00 L 1254.00 1055.00 L 1190.00 1073.00 L 1190.00 1081.00 L 1254.00 1079.00 L 1254.00 1085.00 L 1190.00 1099.00 L 1188.00 1109.00 L 1248.00 1115.00 L 1248.00 1121.00 L 1188.00 1127.00 L 1186.00 1134.00 L 1242.00 1142.00 L 1241.00 1146.00 L 1183.00 1146.00 L 1193.00 1154.00 L 1271.00 1170.00 L 1270.00 1174.00 L 1190.00 1166.00 L 1195.00 1174.00 L 1285.00 1198.00 L 1282.00 1202.00 L 1186.00 1186.00 L 1186.00 1190.00 L 1282.00 1214.00 L 1300.00 1220.00 L 1240.00 1208.00 L 1237.00 1212.00 L 1291.00 1232.00 L 1273.00 1229.00 L 1183.00 1203.00 L 1175.00 1203.00 L 1249.00 1229.00 L 1249.00 1232.00 L 1175.00 1212.00 L 1178.00 1220.00 L 1258.00 1256.00 L 1258.00 1259.00 L 1178.00 1229.00 L 1179.00 1233.00 L 1261.00 1271.00 L 1262.00 1275.00 L 1182.00 1245.00 L 1185.00 1252.00 L 1271.00 1296.00 L 1273.00 1300.00 L 1191.00 1264.00 L 1191.00 1267.00 L 1273.00 1309.00 L 1274.00 1312.00 L 1194.00 1276.00 L 1191.00 1280.00 L 1265.00 1324.00 L 1266.00 1328.00 L 1194.00 1292.00 L 1190.00 1295.00 L 1254.00 1337.00 L 1255.00 1341.00 L 1193.00 1307.00 L 1185.00 1308.00 L 1231.00 1344.00 L 1236.00 1352.00 L 1200.00 1332.00 L 1200.00 1335.00 L 1236.00 1361.00 L 1238.00 1364.00 L 1206.00 1344.00 L 1207.00 1350.00 L 1241.00 1382.00 L 1244.00 1388.00 L 1216.00 1368.00 L 1216.00 1371.00 L 1244.00 1397.00 L 1246.00 1401.00 L 1222.00 1383.00 L 1223.00 1388.00 L 1249.00 1416.00 L 1253.00 1424.00 L 1235.00 1412.00 L 1236.00 1416.00 L 1256.00 1436.00 L 1257.00 1440.00 L 1239.00 1428.00 L 1244.00 1448.00 L 1272.00 1500.00 L 1277.00 1517.00 L 1259.00 1499.00 L 1259.00 1503.00 L 1277.00 1529.00 L 1279.00 1537.00 L 1265.00 1527.00 L 1264.00 1531.00 L 1276.00 1549.00 L 1276.00 1552.00 L 1264.00 1540.00 L 1261.00 1565.00 L 1267.00 1627.00 L 1232.00 1657.00 L 1156.00 1655.00 L 1074.00 1663.00 L 986.00 1681.00 L 829.00 1749.00 L 603.00 1867.00 L 461.00 1925.00 L 403.00 1923.00 L 361.00 1901.00 L 335.00 1859.00 L 327.00 1802.00 L 337.00 1730.00 L 392.00 1618.00 L 492.00 1466.00 L 529.00 1399.00 L 503.00 1417.00 L 505.00 1414.00 L 535.00 1390.00 L 528.00 1393.00 L 484.00 1423.00 L 489.00 1416.00 L 543.00 1372.00 L 538.00 1368.00 L 474.00 1404.00 L 474.00 1396.00 L 538.00 1344.00 L 559.00 1323.00 L 537.00 1333.00 L 537.00 1327.00 L 559.00 1305.00 L 555.00 1301.00 L 525.00 1315.00 L 525.00 1311.00 L 555.00 1289.00 L 553.00 1285.00 L 519.00 1299.00 L 521.00 1292.00 L 559.00 1264.00 L 567.00 1230.00 L 545.00 1190.00 L 539.00 1164.00 L 549.00 1152.00 L 546.00 1140.00 L 530.00 1128.00 L 519.00 1121.00 L 513.00 1119.00 L 499.00 1109.00 Z" fill="black" stroke="black" stroke-width="1"/>
</svg>