<?xml version="1.0" encoding="UTF-8"?>
<svg xmlns="http://www.w3.org/2000/svg" viewBox="233.00 401.00 769.00 1211.00">
  <path d="M 362.00 992.00 L 362.00 980.00 L 365.00 968.00 L 371.00 956.00 L 372.00 937.00 L 368.00 911.00 L 369.00 895.00 L 375.00 889.00 L 375.00 883.00 L 369.00 877.00 L 368.00 867.00 L 372.00 853.00 L 367.00 840.00 L 353.00 828.00 L 354.00 827.00 L 370.00 837.00 L 368.00 834.00 L 348.00 818.00 L 348.00 816.00 L 368.00 828.00 L 368.00 825.00 L 348.00 807.00 L 348.00 805.00 L 368.00 819.00 L 369.00 818.00 L 351.00 802.00 L 350.00 786.00 L 366.00 770.00 L 380.00 752.00 L 392.00 732.00 L 399.00 714.00 L 401.00 698.00 L 400.00 681.00 L 396.00 663.00 L 396.00 647.00 L 400.00 633.00 L 406.00 620.00 L 414.00 608.00 L 422.00 587.00 L 430.00 557.00 L 444.00 527.00 L 464.00 497.00 L 485.00 471.00 L 507.00 449.00 L 534.00 432.00 L 566.00 420.00 L 597.00 414.00 L 627.00 414.00 L 642.00 418.00 L 642.00 426.00 L 644.00 426.00 L 648.00 418.00 L 650.00 420.00 L 650.00 432.00 L 652.00 432.00 L 656.00 420.00 L 658.00 420.00 L 658.00 432.00 L 660.00 434.00 L 664.00 426.00 L 668.00 426.00 L 672.00 434.00 L 676.00 433.00 L 680.00 423.00 L 683.00 423.00 L 685.00 433.00 L 688.00 432.00 L 692.00 420.00 L 701.00 413.00 L 715.00 411.00 L 743.00 415.00 L 785.00 425.00 L 822.00 438.00 L 854.00 454.00 L 880.00 473.00 L 900.00 495.00 L 916.00 517.00 L 928.00 539.00 L 939.00 566.00 L 949.00 598.00 L 956.00 629.00 L 960.00 659.00 L 962.00 713.00 L 962.00 791.00 L 955.00 869.00 L 941.00 947.00 L 935.00 990.00 L 937.00 998.00 L 946.00 1009.00 L 962.00 1023.00 L 973.00 1040.00 L 979.00 1060.00 L 975.00 1070.00 L 961.00 1070.00 L 961.00 1072.00 L 975.00 1076.00 L 975.00 1077.00 L 961.00 1075.00 L 961.00 1077.00 L 975.00 1083.00 L 972.00 1084.00 L 952.00 1080.00 L 945.00 1079.00 L 951.00 1081.00 L 951.00 1083.00 L 945.00 1085.00 L 954.00 1091.00 L 978.00 1101.00 L 978.00 1104.00 L 954.00 1100.00 L 955.00 1102.00 L 981.00 1110.00 L 992.00 1115.00 L 988.00 1117.00 L 975.00 1115.00 L 953.00 1109.00 L 951.00 1109.00 L 969.00 1115.00 L 969.00 1117.00 L 951.00 1115.00 L 945.00 1150.00 L 951.00 1222.00 L 952.00 1261.00 L 948.00 1267.00 L 948.00 1281.00 L 952.00 1303.00 L 952.00 1320.00 L 948.00 1332.00 L 925.00 1337.00 L 883.00 1335.00 L 819.00 1345.00 L 733.00 1367.00 L 671.00 1387.00 L 633.00 1405.00 L 583.00 1435.00 L 521.00 1477.00 L 486.00 1499.00 L 478.00 1501.00 L 448.00 1523.00 L 396.00 1565.00 L 358.00 1590.00 L 334.00 1598.00 L 316.00 1602.00 L 304.00 1602.00 L 292.00 1599.00 L 280.00 1593.00 L 269.00 1584.00 L 259.00 1572.00 L 312.00 1474.00 L 428.00 1290.00 L 426.00 1288.00 L 306.00 1468.00 L 245.00 1554.00 L 243.00 1546.00 L 300.00 1457.00 L 416.00 1287.00 L 416.00 1284.00 L 300.00 1448.00 L 302.00 1444.00 L 422.00 1272.00 L 422.00 1269.00 L 302.00 1435.00 L 297.00 1441.00 L 407.00 1287.00 L 407.00 1284.00 L 297.00 1432.00 L 243.00 1504.00 L 245.00 1500.00 L 306.00 1416.00 L 426.00 1252.00 L 426.00 1250.00 L 306.00 1410.00 L 305.00 1411.00 L 423.00 1253.00 L 424.00 1251.00 L 308.00 1405.00 L 252.00 1477.00 L 256.00 1467.00 L 303.00 1403.00 L 393.00 1285.00 L 394.00 1282.00 L 306.00 1394.00 L 318.00 1378.00 L 430.00 1234.00 L 430.00 1233.00 L 318.00 1375.00 L 302.00 1395.00 L 382.00 1293.00 L 383.00 1290.00 L 305.00 1386.00 L 301.00 1390.00 L 371.00 1302.00 L 372.00 1300.00 L 304.00 1384.00 L 290.00 1400.00 L 330.00 1348.00 L 336.00 1339.00 L 308.00 1373.00 L 307.00 1374.00 L 333.00 1342.00 L 334.00 1340.00 L 310.00 1368.00 L 307.00 1371.00 L 325.00 1349.00 L 328.00 1345.00 L 316.00 1359.00 L 353.00 1314.00 L 439.00 1210.00 L 442.00 1206.00 L 362.00 1302.00 L 362.00 1300.00 L 442.00 1200.00 L 480.00 1143.00 L 476.00 1129.00 L 479.00 1117.00 L 489.00 1107.00 L 489.00 1105.00 L 479.00 1111.00 L 477.00 1110.00 L 483.00 1102.00 L 476.00 1095.00 L 456.00 1089.00 L 438.00 1081.00 L 422.00 1071.00 L 401.00 1051.00 L 375.00 1021.00 L 362.00 1004.00 L 362.00 1000.00 L 362.00 992.00 Z" fill="black" stroke="black" stroke-width="1"/>
</svg>