<?xml version="1.0" encoding="UTF-8"?>
<svg xmlns="http://www.w3.org/2000/svg" viewBox="278.00 171.00 993.00 1589.00">
  <path d="M 524.00 960.00 L 472.00 932.00 L 440.00 875.00 L 428.00 789.00 L 411.00 736.00 L 389.00 716.00 L 390.00 713.00 L 414.00 727.00 L 412.00 724.00 L 384.00 704.00 L 384.00 702.00 L 412.00 718.00 L 412.00 714.00 L 384.00 690.00 L 389.00 650.00 L 427.00 594.00 L 450.00 541.00 L 458.00 491.00 L 484.00 430.00 L 528.00 358.00 L 549.00 315.00 L 547.00 301.00 L 549.00 298.00 L 555.00 306.00 L 556.00 303.00 L 552.00 289.00 L 554.00 286.00 L 562.00 294.00 L 564.00 291.00 L 560.00 277.00 L 594.00 250.00 L 666.00 210.00 L 726.00 187.00 L 774.00 181.00 L 837.00 181.00 L 915.00 187.00 L 980.00 202.00 L 1032.00 226.00 L 1072.00 252.00 L 1100.00 280.00 L 1131.00 331.00 L 1165.00 405.00 L 1188.00 488.00 L 1200.00 580.00 L 1201.00 686.00 L 1191.00 806.00 L 1165.00 874.00 L 1123.00 890.00 L 1123.00 893.00 L 1165.00 883.00 L 1164.00 885.00 L 1120.00 899.00 L 1119.00 902.00 L 1161.00 894.00 L 1162.00 897.00 L 1122.00 911.00 L 1122.00 914.00 L 1162.00 906.00 L 1162.00 910.00 L 1122.00 926.00 L 1121.00 932.00 L 1159.00 928.00 L 1159.00 930.00 L 1121.00 938.00 L 1130.00 939.00 L 1186.00 933.00 L 1192.00 934.00 L 1148.00 942.00 L 1152.00 944.00 L 1204.00 940.00 L 1199.00 942.00 L 1137.00 950.00 L 1141.00 953.00 L 1211.00 951.00 L 1211.00 954.00 L 1141.00 962.00 L 1144.00 965.00 L 1220.00 963.00 L 1226.00 964.00 L 1162.00 968.00 L 1164.00 971.00 L 1232.00 973.00 L 1226.00 975.00 L 1146.00 977.00 L 1148.00 980.00 L 1232.00 984.00 L 1232.00 986.00 L 1148.00 986.00 L 1148.00 989.00 L 1232.00 995.00 L 1233.00 998.00 L 1151.00 998.00 L 1143.00 1000.00 L 1209.00 1004.00 L 1209.00 1007.00 L 1143.00 1009.00 L 1138.00 1013.00 L 1194.00 1019.00 L 1193.00 1023.00 L 1135.00 1025.00 L 1127.00 1030.00 L 1169.00 1038.00 L 1170.00 1040.00 L 1130.00 1036.00 L 1130.00 1039.00 L 1170.00 1049.00 L 1171.00 1051.00 L 1133.00 1045.00 L 1134.00 1047.00 L 1174.00 1057.00 L 1177.00 1060.00 L 1143.00 1056.00 L 1143.00 1058.00 L 1177.00 1066.00 L 1179.00 1068.00 L 1149.00 1064.00 L 1150.00 1066.00 L 1182.00 1074.00 L 1189.00 1076.00 L 1171.00 1072.00 L 1171.00 1075.00 L 1189.00 1085.00 L 1183.00 1086.00 L 1153.00 1078.00 L 1154.00 1080.00 L 1186.00 1092.00 L 1187.00 1095.00 L 1157.00 1089.00 L 1158.00 1092.00 L 1190.00 1104.00 L 1191.00 1107.00 L 1161.00 1101.00 L 1164.00 1108.00 L 1200.00 1128.00 L 1204.00 1133.00 L 1176.00 1123.00 L 1187.00 1130.00 L 1237.00 1154.00 L 1239.00 1157.00 L 1193.00 1139.00 L 1194.00 1142.00 L 1242.00 1166.00 L 1244.00 1169.00 L 1200.00 1151.00 L 1197.00 1154.00 L 1235.00 1178.00 L 1238.00 1185.00 L 1206.00 1175.00 L 1208.00 1209.00 L 1244.00 1287.00 L 1261.00 1332.00 L 1259.00 1344.00 L 1224.00 1348.00 L 1156.00 1344.00 L 1072.00 1356.00 L 972.00 1384.00 L 891.00 1417.00 L 829.00 1455.00 L 736.00 1529.00 L 612.00 1639.00 L 526.00 1708.00 L 478.00 1736.00 L 436.00 1750.00 L 400.00 1750.00 L 368.00 1727.00 L 340.00 1681.00 L 332.00 1612.00 L 344.00 1520.00 L 336.00 1471.00 L 308.00 1465.00 L 292.00 1454.00 L 288.00 1438.00 L 294.00 1421.00 L 310.00 1403.00 L 311.00 1397.00 L 297.00 1403.00 L 294.00 1400.00 L 302.00 1388.00 L 301.00 1377.00 L 291.00 1367.00 L 289.00 1359.00 L 295.00 1353.00 L 295.00 1345.00 L 289.00 1335.00 L 297.00 1322.00 L 319.00 1306.00 L 322.00 1303.00 L 306.00 1313.00 L 304.00 1311.00 L 316.00 1297.00 L 314.00 1293.00 L 298.00 1299.00 L 296.00 1298.00 L 308.00 1290.00 L 310.00 1282.00 L 302.00 1274.00 L 302.00 1267.00 L 310.00 1261.00 L 314.00 1247.00 L 314.00 1225.00 L 324.00 1205.00 L 344.00 1187.00 L 347.00 1180.00 L 333.00 1184.00 L 335.00 1177.00 L 353.00 1159.00 L 356.00 1152.00 L 344.00 1156.00 L 363.00 1146.00 L 413.00 1122.00 L 418.00 1116.00 L 378.00 1128.00 L 376.00 1127.00 L 412.00 1113.00 L 417.00 1108.00 L 391.00 1112.00 L 417.00 1102.00 L 495.00 1078.00 L 498.00 1077.00 L 426.00 1099.00 L 427.00 1096.00 L 501.00 1068.00 L 516.00 1059.00 L 472.00 1069.00 L 473.00 1067.00 L 519.00 1053.00 L 520.00 1051.00 L 476.00 1061.00 L 476.00 1059.00 L 520.00 1045.00 L 542.00 1025.00 L 542.00 999.00 L 544.00 983.00 L 548.00 977.00 L 524.00 960.00 Z" fill="black" stroke="black" stroke-width="1"/>
</svg>