<?xml version="1.0" encoding="UTF-8"?>
<svg xmlns="http://www.w3.org/2000/svg" viewBox="311.00 255.00 904.00 1434.00">
  <path d="M 410.00 782.00 L 398.00 778.00 L 390.00 742.00 L 386.00 674.00 L 363.00 626.00 L 321.00 598.00 L 321.00 595.00 L 363.00 617.00 L 363.00 612.00 L 321.00 580.00 L 323.00 578.00 L 369.00 606.00 L 372.00 604.00 L 332.00 572.00 L 334.00 569.00 L 378.00 595.00 L 383.00 592.00 L 349.00 560.00 L 351.00 559.00 L 389.00 589.00 L 387.00 584.00 L 345.00 544.00 L 348.00 542.00 L 396.00 578.00 L 399.00 571.00 L 357.00 521.00 L 361.00 519.00 L 411.00 565.00 L 418.00 563.00 L 382.00 513.00 L 385.00 507.00 L 427.00 545.00 L 414.00 510.00 L 346.00 402.00 L 352.00 400.00 L 432.00 504.00 L 438.00 505.00 L 370.00 403.00 L 372.00 400.00 L 444.00 496.00 L 451.00 494.00 L 393.00 394.00 L 393.00 391.00 L 451.00 485.00 L 457.00 488.00 L 411.00 400.00 L 414.00 397.00 L 466.00 479.00 L 473.00 478.00 L 435.00 394.00 L 436.00 387.00 L 476.00 457.00 L 480.00 453.00 L 448.00 375.00 L 451.00 379.00 L 489.00 465.00 L 489.00 461.00 L 451.00 367.00 L 451.00 360.00 L 489.00 440.00 L 491.00 436.00 L 457.00 348.00 L 452.00 333.00 L 476.00 391.00 L 480.00 393.00 L 464.00 339.00 L 472.00 356.00 L 504.00 444.00 L 501.00 434.00 L 463.00 326.00 L 465.00 324.00 L 507.00 428.00 L 514.00 428.00 L 486.00 324.00 L 489.00 320.00 L 523.00 416.00 L 528.00 406.00 L 504.00 290.00 L 506.00 284.00 L 534.00 388.00 L 540.00 393.00 L 524.00 299.00 L 527.00 265.00 L 549.00 291.00 L 563.00 295.00 L 569.00 277.00 L 576.00 287.00 L 584.00 325.00 L 587.00 326.00 L 585.00 290.00 L 592.00 304.00 L 608.00 368.00 L 619.00 385.00 L 625.00 355.00 L 628.00 358.00 L 628.00 394.00 L 630.00 391.00 L 634.00 349.00 L 637.00 351.00 L 639.00 397.00 L 644.00 393.00 L 652.00 339.00 L 670.00 305.00 L 698.00 291.00 L 711.00 315.00 L 709.00 377.00 L 714.00 382.00 L 726.00 330.00 L 727.00 333.00 L 717.00 391.00 L 720.00 392.00 L 736.00 336.00 L 738.00 334.00 L 726.00 386.00 L 727.00 389.00 L 741.00 343.00 L 743.00 341.00 L 733.00 383.00 L 738.00 386.00 L 758.00 350.00 L 764.00 349.00 L 756.00 383.00 L 777.00 415.00 L 827.00 445.00 L 902.00 447.00 L 1002.00 421.00 L 1075.00 418.00 L 1121.00 438.00 L 1157.00 465.00 L 1183.00 499.00 L 1199.00 541.00 L 1205.00 591.00 L 1201.00 633.00 L 1187.00 667.00 L 1140.00 712.00 L 1060.00 768.00 L 984.00 846.00 L 912.00 946.00 L 880.00 1024.00 L 888.00 1080.00 L 926.00 1170.00 L 994.00 1294.00 L 988.00 1369.00 L 908.00 1395.00 L 800.00 1449.00 L 664.00 1531.00 L 599.00 1474.00 L 605.00 1278.00 L 603.00 1280.00 L 593.00 1480.00 L 592.00 1476.00 L 600.00 1268.00 L 597.00 1271.00 L 583.00 1485.00 L 581.00 1481.00 L 591.00 1259.00 L 587.00 1262.00 L 569.00 1490.00 L 566.00 1513.00 L 578.00 1331.00 L 571.00 1337.00 L 545.00 1531.00 L 545.00 1505.00 L 571.00 1259.00 L 569.00 1261.00 L 539.00 1511.00 L 533.00 1543.00 L 551.00 1357.00 L 543.00 1364.00 L 509.00 1564.00 L 512.00 1531.00 L 552.00 1265.00 L 544.00 1272.00 L 488.00 1552.00 L 485.00 1552.00 L 535.00 1272.00 L 532.00 1275.00 L 476.00 1561.00 L 466.00 1606.00 L 502.00 1410.00 L 499.00 1413.00 L 457.00 1615.00 L 455.00 1618.00 L 493.00 1422.00 L 485.00 1430.00 L 431.00 1642.00 L 439.00 1593.00 L 509.00 1283.00 L 503.00 1287.00 L 421.00 1605.00 L 404.00 1666.00 L 452.00 1470.00 L 446.00 1468.00 L 386.00 1660.00 L 399.00 1598.00 L 485.00 1282.00 L 483.00 1281.00 L 393.00 1595.00 L 368.00 1679.00 L 408.00 1533.00 L 405.00 1530.00 L 359.00 1670.00 L 355.00 1674.00 L 393.00 1542.00 L 391.00 1540.00 L 349.00 1668.00 L 346.00 1671.00 L 382.00 1549.00 L 380.00 1546.00 L 340.00 1662.00 L 335.00 1668.00 L 365.00 1564.00 L 363.00 1558.00 L 329.00 1650.00 L 361.00 1552.00 L 459.00 1264.00 L 458.00 1261.00 L 358.00 1543.00 L 354.00 1542.00 L 446.00 1258.00 L 481.00 1110.00 L 459.00 1098.00 L 437.00 1057.00 L 415.00 987.00 L 391.00 941.00 L 365.00 919.00 L 368.00 884.00 L 400.00 836.00 L 409.00 806.00 L 395.00 794.00 L 395.00 787.00 L 409.00 785.00 L 410.00 782.00 Z" fill="black" stroke="black" stroke-width="1"/>
</svg>