<?xml version="1.0" encoding="UTF-8"?>
<svg xmlns="http://www.w3.org/2000/svg" viewBox="290.00 235.00 1018.00 1634.00">
  <path d="M 424.00 1020.00 L 436.00 992.00 L 435.00 968.00 L 421.00 948.00 L 419.00 930.00 L 429.00 914.00 L 429.00 901.00 L 419.00 891.00 L 418.00 870.00 L 426.00 838.00 L 421.00 816.00 L 403.00 804.00 L 402.00 802.00 L 418.00 810.00 L 416.00 807.00 L 396.00 793.00 L 394.00 791.00 L 410.00 801.00 L 408.00 799.00 L 388.00 785.00 L 376.00 773.00 L 372.00 763.00 L 373.00 752.00 L 379.00 740.00 L 411.00 707.00 L 469.00 653.00 L 498.00 614.00 L 498.00 590.00 L 503.00 565.00 L 513.00 539.00 L 515.00 517.00 L 509.00 499.00 L 511.00 496.00 L 521.00 508.00 L 524.00 506.00 L 520.00 490.00 L 521.00 488.00 L 527.00 500.00 L 529.00 497.00 L 527.00 479.00 L 530.00 475.00 L 538.00 485.00 L 540.00 481.00 L 536.00 463.00 L 537.00 461.00 L 543.00 475.00 L 544.00 472.00 L 540.00 452.00 L 541.00 448.00 L 547.00 460.00 L 548.00 457.00 L 544.00 439.00 L 546.00 436.00 L 554.00 448.00 L 557.00 444.00 L 555.00 424.00 L 557.00 422.00 L 563.00 438.00 L 565.00 436.00 L 563.00 416.00 L 567.00 411.00 L 577.00 421.00 L 580.00 419.00 L 576.00 405.00 L 577.00 403.00 L 583.00 413.00 L 585.00 411.00 L 583.00 397.00 L 584.00 395.00 L 588.00 405.00 L 592.00 409.00 L 596.00 407.00 L 597.00 399.00 L 595.00 385.00 L 606.00 368.00 L 630.00 348.00 L 670.00 322.00 L 726.00 290.00 L 771.00 269.00 L 805.00 259.00 L 851.00 251.00 L 909.00 245.00 L 965.00 245.00 L 1019.00 251.00 L 1066.00 261.00 L 1106.00 275.00 L 1140.00 291.00 L 1168.00 309.00 L 1199.00 336.00 L 1233.00 372.00 L 1258.00 409.00 L 1274.00 447.00 L 1286.00 490.00 L 1294.00 538.00 L 1298.00 582.00 L 1298.00 622.00 L 1294.00 662.00 L 1286.00 702.00 L 1266.00 756.00 L 1234.00 824.00 L 1201.00 879.00 L 1167.00 921.00 L 1147.00 953.00 L 1141.00 975.00 L 1128.00 989.00 L 1108.00 995.00 L 1106.00 998.00 L 1122.00 998.00 L 1121.00 1001.00 L 1103.00 1007.00 L 1100.00 1010.00 L 1112.00 1010.00 L 1114.00 1014.00 L 1106.00 1022.00 L 1108.00 1076.00 L 1120.00 1176.00 L 1123.00 1232.00 L 1117.00 1244.00 L 1133.00 1305.00 L 1171.00 1415.00 L 1191.00 1512.00 L 1193.00 1596.00 L 1160.00 1636.00 L 1092.00 1632.00 L 1009.00 1637.00 L 911.00 1651.00 L 807.00 1678.00 L 697.00 1718.00 L 590.00 1765.00 L 486.00 1819.00 L 422.00 1850.00 L 398.00 1858.00 L 373.00 1859.00 L 347.00 1853.00 L 327.00 1842.00 L 313.00 1826.00 L 304.00 1806.00 L 300.00 1782.00 L 363.00 1669.00 L 493.00 1467.00 L 493.00 1464.00 L 363.00 1660.00 L 360.00 1662.00 L 484.00 1470.00 L 485.00 1465.00 L 363.00 1647.00 L 302.00 1735.00 L 302.00 1729.00 L 364.00 1635.00 L 488.00 1453.00 L 489.00 1450.00 L 367.00 1626.00 L 363.00 1631.00 L 477.00 1465.00 L 478.00 1462.00 L 366.00 1622.00 L 363.00 1625.00 L 469.00 1471.00 L 470.00 1467.00 L 366.00 1613.00 L 363.00 1616.00 L 461.00 1476.00 L 463.00 1471.00 L 369.00 1601.00 L 377.00 1589.00 L 487.00 1435.00 L 488.00 1433.00 L 380.00 1583.00 L 368.00 1599.00 L 452.00 1481.00 L 453.00 1478.00 L 371.00 1590.00 L 389.00 1564.00 L 507.00 1400.00 L 516.00 1386.00 L 416.00 1522.00 L 410.00 1529.00 L 498.00 1407.00 L 546.00 1336.00 L 554.00 1316.00 L 548.00 1309.00 L 528.00 1315.00 L 527.00 1308.00 L 545.00 1288.00 L 543.00 1288.00 L 521.00 1308.00 L 520.00 1305.00 L 540.00 1279.00 L 537.00 1278.00 L 511.00 1302.00 L 511.00 1299.00 L 537.00 1269.00 L 535.00 1267.00 L 505.00 1293.00 L 505.00 1291.00 L 535.00 1261.00 L 535.00 1258.00 L 505.00 1282.00 L 505.00 1280.00 L 535.00 1252.00 L 535.00 1250.00 L 505.00 1274.00 L 504.00 1272.00 L 532.00 1244.00 L 543.00 1219.00 L 537.00 1197.00 L 528.00 1181.00 L 516.00 1171.00 L 510.00 1161.00 L 510.00 1151.00 L 516.00 1139.00 L 528.00 1125.00 L 517.00 1113.00 L 483.00 1103.00 L 454.00 1085.00 L 430.00 1059.00 L 418.00 1043.00 L 418.00 1037.00 L 424.00 1020.00 Z" fill="black" stroke="black" stroke-width="1"/>
</svg>