<?xml version="1.0" encoding="UTF-8"?>
<svg xmlns="http://www.w3.org/2000/svg" viewBox="283.00 236.00 1010.00 1389.00">
  <path d="M 502.00 679.00 L 502.00 641.00 L 494.00 619.00 L 478.00 613.00 L 482.00 614.00 L 506.00 622.00 L 501.00 616.00 L 467.00 596.00 L 458.00 568.00 L 474.00 532.00 L 478.00 506.00 L 470.00 490.00 L 474.00 488.00 L 490.00 500.00 L 489.00 496.00 L 471.00 476.00 L 474.00 475.00 L 498.00 493.00 L 497.00 489.00 L 471.00 463.00 L 475.00 462.00 L 509.00 486.00 L 512.00 479.00 L 484.00 441.00 L 488.00 441.00 L 524.00 479.00 L 528.00 479.00 L 500.00 441.00 L 506.00 440.00 L 546.00 476.00 L 554.00 472.00 L 530.00 428.00 L 535.00 426.00 L 569.00 466.00 L 565.00 447.00 L 523.00 369.00 L 528.00 370.00 L 580.00 450.00 L 572.00 425.00 L 504.00 295.00 L 504.00 291.00 L 572.00 413.00 L 575.00 410.00 L 513.00 282.00 L 517.00 285.00 L 587.00 419.00 L 590.00 418.00 L 526.00 282.00 L 511.00 246.00 L 545.00 310.00 L 553.00 318.00 L 535.00 270.00 L 552.00 303.00 L 604.00 417.00 L 603.00 408.00 L 549.00 276.00 L 552.00 273.00 L 612.00 399.00 L 624.00 406.00 L 588.00 294.00 L 591.00 292.00 L 633.00 400.00 L 643.00 406.00 L 621.00 310.00 L 625.00 309.00 L 655.00 403.00 L 660.00 401.00 L 640.00 303.00 L 642.00 299.00 L 666.00 389.00 L 672.00 382.00 L 660.00 278.00 L 663.00 279.00 L 681.00 385.00 L 685.00 384.00 L 675.00 276.00 L 680.00 278.00 L 700.00 390.00 L 708.00 422.00 L 704.00 374.00 L 704.00 370.00 L 708.00 410.00 L 715.00 382.00 L 725.00 286.00 L 731.00 287.00 L 733.00 385.00 L 735.00 382.00 L 737.00 278.00 L 739.00 282.00 L 741.00 394.00 L 744.00 412.00 L 748.00 336.00 L 749.00 321.00 L 747.00 367.00 L 753.00 358.00 L 767.00 294.00 L 775.00 287.00 L 777.00 337.00 L 784.00 342.00 L 796.00 302.00 L 799.00 301.00 L 793.00 339.00 L 795.00 344.00 L 805.00 316.00 L 809.00 315.00 L 807.00 341.00 L 825.00 362.00 L 863.00 378.00 L 891.00 373.00 L 909.00 347.00 L 915.00 352.00 L 909.00 388.00 L 925.00 386.00 L 963.00 346.00 L 967.00 350.00 L 937.00 398.00 L 939.00 400.00 L 973.00 356.00 L 975.00 358.00 L 945.00 406.00 L 946.00 409.00 L 978.00 367.00 L 981.00 371.00 L 955.00 421.00 L 955.00 431.00 L 981.00 401.00 L 983.00 404.00 L 961.00 440.00 L 962.00 450.00 L 986.00 434.00 L 988.00 437.00 L 968.00 459.00 L 989.00 443.00 L 1051.00 389.00 L 1054.00 394.00 L 998.00 458.00 L 1002.00 466.00 L 1066.00 418.00 L 1070.00 420.00 L 1014.00 472.00 L 1011.00 481.00 L 1061.00 447.00 L 1066.00 448.00 L 1026.00 484.00 L 1029.00 489.00 L 1075.00 463.00 L 1084.00 460.00 L 1056.00 480.00 L 1061.00 479.00 L 1099.00 457.00 L 1132.00 447.00 L 1160.00 449.00 L 1191.00 463.00 L 1225.00 489.00 L 1254.00 525.00 L 1278.00 571.00 L 1283.00 625.00 L 1269.00 687.00 L 1248.00 742.00 L 1220.00 790.00 L 1200.00 820.00 L 1188.00 832.00 L 1168.00 837.00 L 1140.00 835.00 L 1134.00 837.00 L 1150.00 843.00 L 1148.00 846.00 L 1128.00 846.00 L 1106.00 869.00 L 1082.00 915.00 L 1037.00 962.00 L 971.00 1010.00 L 974.00 1115.00 L 1046.00 1277.00 L 1061.00 1321.00 L 1019.00 1247.00 L 1016.00 1250.00 L 1052.00 1330.00 L 985.00 1393.00 L 815.00 1439.00 L 689.00 1484.00 L 607.00 1528.00 L 582.00 1461.00 L 614.00 1283.00 L 610.00 1285.00 L 570.00 1467.00 L 569.00 1459.00 L 607.00 1261.00 L 603.00 1263.00 L 557.00 1465.00 L 556.00 1462.00 L 600.00 1254.00 L 596.00 1257.00 L 544.00 1471.00 L 539.00 1489.00 L 581.00 1311.00 L 572.00 1317.00 L 512.00 1507.00 L 513.00 1486.00 L 575.00 1254.00 L 571.00 1257.00 L 501.00 1495.00 L 492.00 1522.00 L 544.00 1338.00 L 540.00 1341.00 L 480.00 1531.00 L 477.00 1534.00 L 531.00 1350.00 L 523.00 1357.00 L 453.00 1555.00 L 460.00 1522.00 L 544.00 1258.00 L 540.00 1261.00 L 448.00 1531.00 L 432.00 1573.00 L 492.00 1387.00 L 482.00 1396.00 L 402.00 1600.00 L 415.00 1555.00 L 521.00 1261.00 L 517.00 1262.00 L 403.00 1558.00 L 380.00 1615.00 L 448.00 1433.00 L 442.00 1428.00 L 362.00 1600.00 L 382.00 1540.00 L 502.00 1248.00 L 499.00 1245.00 L 373.00 1531.00 L 333.00 1614.00 L 379.00 1494.00 L 376.00 1491.00 L 324.00 1605.00 L 320.00 1608.00 L 364.00 1500.00 L 361.00 1493.00 L 311.00 1587.00 L 350.00 1499.00 L 478.00 1229.00 L 477.00 1224.00 L 347.00 1484.00 L 299.00 1579.00 L 333.00 1509.00 L 333.00 1504.00 L 299.00 1564.00 L 293.00 1570.00 L 315.00 1522.00 L 316.00 1517.00 L 296.00 1555.00 L 293.00 1558.00 L 307.00 1526.00 L 309.00 1519.00 L 299.00 1537.00 L 352.00 1431.00 L 468.00 1201.00 L 520.00 1048.00 L 508.00 972.00 L 492.00 924.00 L 472.00 904.00 L 476.00 867.00 L 504.00 813.00 L 511.00 767.00 L 497.00 729.00 L 493.00 707.00 L 499.00 701.00 L 502.00 679.00 Z" fill="black" stroke="black" stroke-width="1"/>
</svg>