<?xml version="1.0" encoding="UTF-8"?>
<svg xmlns="http://www.w3.org/2000/svg" viewBox="296.00 191.00 990.00 1545.00">
  <path d="M 420.00 994.00 L 424.00 958.00 L 421.00 929.00 L 411.00 907.00 L 408.00 889.00 L 412.00 875.00 L 410.00 863.00 L 402.00 853.00 L 403.00 834.00 L 413.00 806.00 L 407.00 781.00 L 385.00 759.00 L 373.00 743.00 L 371.00 733.00 L 398.00 698.00 L 454.00 638.00 L 480.00 594.00 L 476.00 566.00 L 477.00 535.00 L 483.00 501.00 L 480.00 472.00 L 468.00 448.00 L 469.00 445.00 L 483.00 463.00 L 485.00 460.00 L 475.00 436.00 L 473.00 427.00 L 479.00 433.00 L 480.00 431.00 L 476.00 421.00 L 479.00 425.00 L 489.00 443.00 L 490.00 441.00 L 482.00 419.00 L 483.00 416.00 L 493.00 432.00 L 494.00 429.00 L 486.00 407.00 L 487.00 404.00 L 497.00 420.00 L 500.00 416.00 L 496.00 392.00 L 498.00 388.00 L 506.00 404.00 L 508.00 401.00 L 504.00 379.00 L 506.00 374.00 L 514.00 386.00 L 516.00 383.00 L 512.00 365.00 L 514.00 361.00 L 522.00 371.00 L 524.00 368.00 L 520.00 352.00 L 550.00 322.00 L 614.00 278.00 L 658.00 251.00 L 682.00 241.00 L 723.00 228.00 L 781.00 212.00 L 831.00 203.00 L 873.00 201.00 L 931.00 204.00 L 1005.00 212.00 L 1066.00 228.00 L 1114.00 252.00 L 1155.00 281.00 L 1189.00 315.00 L 1220.00 356.00 L 1248.00 404.00 L 1266.00 451.00 L 1274.00 497.00 L 1276.00 537.00 L 1272.00 571.00 L 1248.00 639.00 L 1204.00 741.00 L 1183.00 823.00 L 1185.00 885.00 L 1192.00 928.00 L 1204.00 952.00 L 1213.00 982.00 L 1219.00 1018.00 L 1222.00 1057.00 L 1222.00 1099.00 L 1218.00 1134.00 L 1210.00 1162.00 L 1208.00 1182.00 L 1212.00 1194.00 L 1212.00 1205.00 L 1208.00 1215.00 L 1203.00 1219.00 L 1197.00 1217.00 L 1199.00 1220.00 L 1209.00 1228.00 L 1216.00 1240.00 L 1220.00 1256.00 L 1213.00 1260.00 L 1195.00 1252.00 L 1194.00 1255.00 L 1210.00 1269.00 L 1209.00 1273.00 L 1191.00 1267.00 L 1191.00 1271.00 L 1209.00 1285.00 L 1209.00 1288.00 L 1191.00 1280.00 L 1192.00 1283.00 L 1212.00 1297.00 L 1211.00 1299.00 L 1189.00 1289.00 L 1189.00 1292.00 L 1211.00 1308.00 L 1215.00 1312.00 L 1201.00 1304.00 L 1201.00 1307.00 L 1215.00 1321.00 L 1210.00 1320.00 L 1186.00 1304.00 L 1186.00 1306.00 L 1210.00 1326.00 L 1210.00 1329.00 L 1186.00 1315.00 L 1189.00 1323.00 L 1219.00 1353.00 L 1219.00 1356.00 L 1189.00 1332.00 L 1190.00 1334.00 L 1222.00 1362.00 L 1223.00 1366.00 L 1193.00 1346.00 L 1178.00 1339.00 L 1178.00 1345.00 L 1188.00 1357.00 L 1208.00 1375.00 L 1208.00 1378.00 L 1188.00 1366.00 L 1187.00 1369.00 L 1205.00 1387.00 L 1206.00 1390.00 L 1190.00 1378.00 L 1185.00 1413.00 L 1191.00 1495.00 L 1189.00 1535.00 L 1179.00 1533.00 L 1174.00 1544.00 L 1174.00 1568.00 L 1134.00 1574.00 L 1054.00 1562.00 L 959.00 1561.00 L 849.00 1571.00 L 734.00 1594.00 L 614.00 1630.00 L 521.00 1666.00 L 455.00 1702.00 L 413.00 1722.00 L 395.00 1726.00 L 375.00 1726.00 L 353.00 1722.00 L 336.00 1715.00 L 324.00 1705.00 L 314.00 1689.00 L 306.00 1667.00 L 311.00 1628.00 L 329.00 1572.00 L 376.00 1500.00 L 452.00 1412.00 L 453.00 1410.00 L 379.00 1494.00 L 380.00 1491.00 L 456.00 1401.00 L 462.00 1392.00 L 398.00 1464.00 L 399.00 1461.00 L 465.00 1383.00 L 499.00 1336.00 L 501.00 1320.00 L 517.00 1295.00 L 547.00 1261.00 L 544.00 1257.00 L 508.00 1283.00 L 507.00 1280.00 L 541.00 1248.00 L 537.00 1250.00 L 495.00 1286.00 L 487.00 1291.00 L 513.00 1265.00 L 510.00 1266.00 L 478.00 1294.00 L 480.00 1291.00 L 516.00 1257.00 L 510.00 1260.00 L 462.00 1300.00 L 467.00 1295.00 L 525.00 1245.00 L 523.00 1246.00 L 461.00 1298.00 L 458.00 1298.00 L 514.00 1246.00 L 512.00 1244.00 L 452.00 1292.00 L 455.00 1289.00 L 521.00 1235.00 L 522.00 1232.00 L 458.00 1280.00 L 445.00 1288.00 L 483.00 1256.00 L 485.00 1253.00 L 451.00 1279.00 L 463.00 1264.00 L 521.00 1208.00 L 544.00 1174.00 L 532.00 1162.00 L 525.00 1148.00 L 523.00 1132.00 L 516.00 1117.00 L 504.00 1103.00 L 498.00 1090.00 L 498.00 1078.00 L 501.00 1071.00 L 507.00 1069.00 L 495.00 1064.00 L 465.00 1056.00 L 443.00 1045.00 L 429.00 1031.00 L 421.00 1021.00 L 419.00 1015.00 L 420.00 994.00 Z" fill="black" stroke="black" stroke-width="1"/>
</svg>