<?xml version="1.0" encoding="UTF-8"?>
<svg xmlns="http://www.w3.org/2000/svg" viewBox="350.00 180.00 963.00 1604.00">
  <path d="M 602.00 1072.00 L 594.00 1060.00 L 598.00 1049.00 L 614.00 1039.00 L 592.00 1022.00 L 532.00 998.00 L 497.00 980.00 L 487.00 968.00 L 482.00 929.00 L 482.00 863.00 L 477.00 826.00 L 467.00 818.00 L 465.00 796.00 L 471.00 760.00 L 463.00 733.00 L 441.00 715.00 L 431.00 698.00 L 433.00 682.00 L 457.00 653.00 L 503.00 611.00 L 524.00 573.00 L 520.00 539.00 L 538.00 477.00 L 578.00 387.00 L 596.00 335.00 L 592.00 321.00 L 594.00 318.00 L 602.00 326.00 L 605.00 323.00 L 603.00 309.00 L 616.00 290.00 L 644.00 266.00 L 697.00 238.00 L 775.00 206.00 L 848.00 190.00 L 916.00 190.00 L 982.00 198.00 L 1046.00 214.00 L 1101.00 235.00 L 1147.00 261.00 L 1196.00 307.00 L 1248.00 373.00 L 1282.00 453.00 L 1298.00 547.00 L 1301.00 648.00 L 1291.00 756.00 L 1288.00 868.00 L 1292.00 984.00 L 1267.00 1045.00 L 1213.00 1051.00 L 1213.00 1054.00 L 1267.00 1054.00 L 1266.00 1057.00 L 1210.00 1063.00 L 1210.00 1065.00 L 1266.00 1063.00 L 1266.00 1066.00 L 1210.00 1074.00 L 1209.00 1080.00 L 1263.00 1084.00 L 1264.00 1087.00 L 1212.00 1089.00 L 1211.00 1092.00 L 1261.00 1096.00 L 1264.00 1099.00 L 1220.00 1101.00 L 1219.00 1105.00 L 1261.00 1111.00 L 1258.00 1112.00 L 1210.00 1108.00 L 1210.00 1111.00 L 1258.00 1121.00 L 1258.00 1124.00 L 1210.00 1120.00 L 1211.00 1124.00 L 1261.00 1136.00 L 1262.00 1139.00 L 1214.00 1133.00 L 1215.00 1137.00 L 1265.00 1151.00 L 1265.00 1154.00 L 1215.00 1146.00 L 1214.00 1150.00 L 1262.00 1166.00 L 1263.00 1169.00 L 1217.00 1159.00 L 1217.00 1162.00 L 1263.00 1178.00 L 1263.00 1181.00 L 1217.00 1171.00 L 1216.00 1175.00 L 1260.00 1193.00 L 1260.00 1196.00 L 1216.00 1184.00 L 1227.00 1193.00 L 1293.00 1223.00 L 1293.00 1226.00 L 1227.00 1202.00 L 1228.00 1205.00 L 1296.00 1235.00 L 1303.00 1241.00 L 1249.00 1223.00 L 1249.00 1226.00 L 1303.00 1250.00 L 1295.00 1247.00 L 1225.00 1217.00 L 1223.00 1220.00 L 1289.00 1256.00 L 1290.00 1260.00 L 1226.00 1232.00 L 1222.00 1234.00 L 1278.00 1266.00 L 1279.00 1269.00 L 1225.00 1243.00 L 1227.00 1246.00 L 1285.00 1278.00 L 1295.00 1285.00 L 1257.00 1267.00 L 1258.00 1271.00 L 1298.00 1297.00 L 1288.00 1294.00 L 1228.00 1262.00 L 1228.00 1265.00 L 1288.00 1303.00 L 1288.00 1305.00 L 1228.00 1271.00 L 1230.00 1278.00 L 1294.00 1326.00 L 1295.00 1332.00 L 1233.00 1296.00 L 1230.00 1301.00 L 1286.00 1347.00 L 1289.00 1352.00 L 1239.00 1316.00 L 1236.00 1316.00 L 1280.00 1352.00 L 1283.00 1358.00 L 1245.00 1334.00 L 1238.00 1333.00 L 1262.00 1355.00 L 1263.00 1358.00 L 1241.00 1342.00 L 1241.00 1345.00 L 1263.00 1367.00 L 1263.00 1370.00 L 1241.00 1354.00 L 1242.00 1359.00 L 1266.00 1385.00 L 1267.00 1391.00 L 1245.00 1377.00 L 1245.00 1380.00 L 1267.00 1400.00 L 1267.00 1402.00 L 1245.00 1386.00 L 1245.00 1390.00 L 1267.00 1414.00 L 1268.00 1417.00 L 1248.00 1399.00 L 1252.00 1413.00 L 1280.00 1459.00 L 1285.00 1474.00 L 1267.00 1458.00 L 1268.00 1461.00 L 1288.00 1483.00 L 1290.00 1488.00 L 1274.00 1476.00 L 1273.00 1479.00 L 1287.00 1497.00 L 1287.00 1500.00 L 1273.00 1488.00 L 1270.00 1489.00 L 1278.00 1503.00 L 1278.00 1507.00 L 1270.00 1501.00 L 1265.00 1515.00 L 1263.00 1549.00 L 1212.00 1554.00 L 1112.00 1530.00 L 1018.00 1521.00 L 930.00 1527.00 L 826.00 1556.00 L 706.00 1608.00 L 593.00 1670.00 L 487.00 1742.00 L 420.00 1774.00 L 392.00 1766.00 L 372.00 1743.00 L 360.00 1705.00 L 364.00 1650.00 L 384.00 1578.00 L 406.00 1524.00 L 430.00 1488.00 L 462.00 1452.00 L 502.00 1416.00 L 513.00 1405.00 L 495.00 1419.00 L 505.00 1399.00 L 543.00 1345.00 L 577.00 1306.00 L 607.00 1282.00 L 603.00 1274.00 L 565.00 1282.00 L 563.00 1275.00 L 597.00 1253.00 L 597.00 1249.00 L 563.00 1263.00 L 569.00 1253.00 L 615.00 1219.00 L 622.00 1209.00 L 590.00 1223.00 L 590.00 1220.00 L 622.00 1200.00 L 626.00 1194.00 L 602.00 1202.00 L 602.00 1199.00 L 626.00 1185.00 L 632.00 1154.00 L 620.00 1106.00 L 612.00 1081.00 L 608.00 1079.00 L 602.00 1072.00 Z" fill="black" stroke="black" stroke-width="1"/>
</svg>