<?xml version="1.0" encoding="UTF-8"?>
<svg xmlns="http://www.w3.org/2000/svg" viewBox="444.00 180.00 960.00 1599.00">
  <path d="M 569.00 1001.00 L 575.00 943.00 L 582.00 913.00 L 590.00 911.00 L 587.00 905.00 L 573.00 895.00 L 569.00 869.00 L 575.00 827.00 L 562.00 794.00 L 530.00 770.00 L 530.00 767.00 L 562.00 785.00 L 561.00 784.00 L 527.00 764.00 L 526.00 762.00 L 558.00 778.00 L 559.00 775.00 L 529.00 753.00 L 538.00 707.00 L 586.00 637.00 L 618.00 553.00 L 634.00 455.00 L 657.00 375.00 L 687.00 313.00 L 704.00 285.00 L 708.00 291.00 L 712.00 288.00 L 716.00 276.00 L 736.00 259.00 L 772.00 237.00 L 832.00 216.00 L 916.00 196.00 L 1008.00 190.00 L 1108.00 198.00 L 1192.00 218.00 L 1260.00 250.00 L 1313.00 291.00 L 1351.00 341.00 L 1378.00 401.00 L 1394.00 471.00 L 1389.00 575.00 L 1363.00 713.00 L 1349.00 810.00 L 1347.00 866.00 L 1323.00 906.00 L 1277.00 930.00 L 1278.00 935.00 L 1326.00 921.00 L 1324.00 924.00 L 1272.00 944.00 L 1273.00 948.00 L 1327.00 936.00 L 1329.00 940.00 L 1279.00 960.00 L 1280.00 966.00 L 1332.00 958.00 L 1333.00 961.00 L 1283.00 975.00 L 1283.00 977.00 L 1333.00 967.00 L 1340.00 967.00 L 1304.00 977.00 L 1304.00 980.00 L 1340.00 976.00 L 1332.00 980.00 L 1280.00 992.00 L 1280.00 995.00 L 1332.00 989.00 L 1341.00 990.00 L 1307.00 998.00 L 1308.00 1001.00 L 1344.00 999.00 L 1335.00 1002.00 L 1281.00 1010.00 L 1281.00 1013.00 L 1335.00 1011.00 L 1344.00 1012.00 L 1308.00 1016.00 L 1308.00 1020.00 L 1344.00 1024.00 L 1335.00 1027.00 L 1281.00 1029.00 L 1280.00 1033.00 L 1332.00 1039.00 L 1332.00 1042.00 L 1280.00 1042.00 L 1280.00 1045.00 L 1332.00 1051.00 L 1333.00 1053.00 L 1283.00 1051.00 L 1282.00 1054.00 L 1330.00 1062.00 L 1330.00 1064.00 L 1282.00 1060.00 L 1282.00 1063.00 L 1330.00 1073.00 L 1330.00 1076.00 L 1282.00 1072.00 L 1281.00 1075.00 L 1327.00 1085.00 L 1328.00 1088.00 L 1284.00 1084.00 L 1283.00 1087.00 L 1325.00 1097.00 L 1325.00 1100.00 L 1283.00 1096.00 L 1288.00 1103.00 L 1340.00 1121.00 L 1341.00 1125.00 L 1291.00 1115.00 L 1297.00 1122.00 L 1359.00 1146.00 L 1359.00 1149.00 L 1297.00 1131.00 L 1298.00 1133.00 L 1362.00 1155.00 L 1362.00 1157.00 L 1298.00 1139.00 L 1298.00 1144.00 L 1362.00 1172.00 L 1362.00 1174.00 L 1298.00 1150.00 L 1297.00 1153.00 L 1359.00 1183.00 L 1360.00 1186.00 L 1300.00 1162.00 L 1298.00 1163.00 L 1354.00 1189.00 L 1365.00 1197.00 L 1331.00 1187.00 L 1325.00 1189.00 L 1347.00 1203.00 L 1335.00 1199.00 L 1289.00 1177.00 L 1288.00 1180.00 L 1332.00 1208.00 L 1331.00 1211.00 L 1285.00 1189.00 L 1286.00 1191.00 L 1334.00 1217.00 L 1349.00 1226.00 L 1331.00 1218.00 L 1330.00 1223.00 L 1346.00 1241.00 L 1331.00 1237.00 L 1285.00 1211.00 L 1287.00 1214.00 L 1337.00 1246.00 L 1363.00 1265.00 L 1365.00 1271.00 L 1342.00 1259.00 L 1294.00 1229.00 L 1296.00 1232.00 L 1348.00 1268.00 L 1378.00 1292.00 L 1386.00 1304.00 L 1361.00 1290.00 L 1303.00 1250.00 L 1304.00 1252.00 L 1364.00 1296.00 L 1377.00 1306.00 L 1343.00 1282.00 L 1343.00 1285.00 L 1377.00 1315.00 L 1364.00 1309.00 L 1304.00 1267.00 L 1304.00 1270.00 L 1364.00 1318.00 L 1365.00 1321.00 L 1307.00 1279.00 L 1306.00 1283.00 L 1362.00 1333.00 L 1365.00 1339.00 L 1315.00 1301.00 L 1314.00 1304.00 L 1362.00 1348.00 L 1363.00 1351.00 L 1317.00 1313.00 L 1316.00 1316.00 L 1360.00 1360.00 L 1362.00 1364.00 L 1322.00 1328.00 L 1321.00 1331.00 L 1359.00 1373.00 L 1361.00 1379.00 L 1327.00 1349.00 L 1326.00 1353.00 L 1358.00 1391.00 L 1360.00 1398.00 L 1332.00 1374.00 L 1331.00 1377.00 L 1357.00 1407.00 L 1358.00 1412.00 L 1334.00 1392.00 L 1333.00 1397.00 L 1355.00 1427.00 L 1356.00 1434.00 L 1336.00 1418.00 L 1328.00 1435.00 L 1332.00 1485.00 L 1288.00 1512.00 L 1196.00 1516.00 L 1107.00 1528.00 L 1021.00 1548.00 L 925.00 1579.00 L 819.00 1621.00 L 715.00 1673.00 L 613.00 1735.00 L 543.00 1767.00 L 505.00 1769.00 L 477.00 1755.00 L 459.00 1725.00 L 454.00 1682.00 L 462.00 1626.00 L 517.00 1540.00 L 619.00 1424.00 L 628.00 1409.00 L 544.00 1495.00 L 530.00 1509.00 L 586.00 1451.00 L 588.00 1448.00 L 536.00 1500.00 L 572.00 1463.00 L 696.00 1337.00 L 700.00 1332.00 L 584.00 1448.00 L 583.00 1445.00 L 697.00 1323.00 L 748.00 1241.00 L 736.00 1199.00 L 720.00 1168.00 L 700.00 1148.00 L 696.00 1131.00 L 708.00 1117.00 L 678.00 1093.00 L 606.00 1059.00 L 569.00 1039.00 L 567.00 1033.00 L 569.00 1001.00 Z" fill="black" stroke="black" stroke-width="1"/>
</svg>