<?xml version="1.0" encoding="UTF-8"?>
<svg xmlns="http://www.w3.org/2000/svg" viewBox="385.00 178.00 973.00 1632.00">
  <path d="M 619.00 1047.00 L 621.00 1041.00 L 608.00 1030.00 L 580.00 1014.00 L 566.00 986.00 L 566.00 946.00 L 557.00 917.00 L 539.00 899.00 L 529.00 882.00 L 527.00 866.00 L 529.00 859.00 L 535.00 861.00 L 533.00 858.00 L 523.00 850.00 L 521.00 832.00 L 527.00 804.00 L 518.00 774.00 L 494.00 742.00 L 506.00 696.00 L 554.00 636.00 L 578.00 577.00 L 578.00 519.00 L 581.00 494.00 L 587.00 502.00 L 592.00 482.00 L 596.00 434.00 L 602.00 416.00 L 610.00 428.00 L 612.00 422.00 L 608.00 398.00 L 610.00 392.00 L 618.00 404.00 L 619.00 401.00 L 613.00 383.00 L 615.00 380.00 L 625.00 392.00 L 628.00 387.00 L 624.00 365.00 L 627.00 360.00 L 637.00 372.00 L 640.00 369.00 L 636.00 351.00 L 639.00 347.00 L 649.00 357.00 L 654.00 352.00 L 654.00 332.00 L 675.00 304.00 L 717.00 268.00 L 771.00 236.00 L 837.00 208.00 L 892.00 192.00 L 936.00 188.00 L 987.00 190.00 L 1045.00 198.00 L 1106.00 216.00 L 1170.00 244.00 L 1229.00 286.00 L 1283.00 342.00 L 1321.00 403.00 L 1343.00 469.00 L 1348.00 545.00 L 1336.00 631.00 L 1307.00 724.00 L 1261.00 824.00 L 1244.00 915.00 L 1256.00 997.00 L 1239.00 1040.00 L 1193.00 1044.00 L 1194.00 1047.00 L 1242.00 1049.00 L 1241.00 1052.00 L 1191.00 1056.00 L 1191.00 1060.00 L 1241.00 1064.00 L 1242.00 1066.00 L 1194.00 1066.00 L 1193.00 1069.00 L 1239.00 1075.00 L 1239.00 1078.00 L 1193.00 1078.00 L 1193.00 1081.00 L 1239.00 1087.00 L 1242.00 1088.00 L 1202.00 1084.00 L 1202.00 1088.00 L 1242.00 1100.00 L 1239.00 1103.00 L 1193.00 1097.00 L 1193.00 1100.00 L 1239.00 1112.00 L 1240.00 1115.00 L 1196.00 1109.00 L 1195.00 1115.00 L 1237.00 1133.00 L 1237.00 1137.00 L 1195.00 1127.00 L 1207.00 1135.00 L 1273.00 1161.00 L 1273.00 1164.00 L 1207.00 1144.00 L 1210.00 1150.00 L 1282.00 1182.00 L 1282.00 1186.00 L 1210.00 1162.00 L 1210.00 1165.00 L 1282.00 1195.00 L 1286.00 1199.00 L 1222.00 1177.00 L 1219.00 1179.00 L 1277.00 1205.00 L 1298.00 1215.00 L 1282.00 1209.00 L 1279.00 1209.00 L 1289.00 1215.00 L 1264.00 1205.00 L 1204.00 1179.00 L 1204.00 1183.00 L 1264.00 1217.00 L 1264.00 1220.00 L 1204.00 1192.00 L 1205.00 1197.00 L 1267.00 1235.00 L 1267.00 1237.00 L 1205.00 1203.00 L 1206.00 1206.00 L 1270.00 1246.00 L 1269.00 1249.00 L 1203.00 1215.00 L 1203.00 1219.00 L 1269.00 1261.00 L 1268.00 1264.00 L 1200.00 1228.00 L 1198.00 1235.00 L 1262.00 1285.00 L 1261.00 1288.00 L 1195.00 1244.00 L 1185.00 1242.00 L 1231.00 1282.00 L 1232.00 1285.00 L 1188.00 1251.00 L 1188.00 1254.00 L 1232.00 1294.00 L 1232.00 1297.00 L 1188.00 1263.00 L 1189.00 1266.00 L 1235.00 1306.00 L 1236.00 1309.00 L 1192.00 1275.00 L 1192.00 1280.00 L 1236.00 1324.00 L 1238.00 1328.00 L 1198.00 1292.00 L 1199.00 1296.00 L 1241.00 1340.00 L 1243.00 1344.00 L 1205.00 1308.00 L 1206.00 1312.00 L 1246.00 1356.00 L 1249.00 1362.00 L 1215.00 1330.00 L 1215.00 1333.00 L 1249.00 1371.00 L 1250.00 1374.00 L 1218.00 1342.00 L 1218.00 1344.00 L 1250.00 1380.00 L 1251.00 1383.00 L 1221.00 1353.00 L 1222.00 1356.00 L 1254.00 1392.00 L 1257.00 1398.00 L 1231.00 1374.00 L 1232.00 1379.00 L 1260.00 1413.00 L 1261.00 1416.00 L 1235.00 1388.00 L 1241.00 1404.00 L 1279.00 1464.00 L 1283.00 1476.00 L 1253.00 1440.00 L 1254.00 1444.00 L 1286.00 1488.00 L 1288.00 1494.00 L 1260.00 1462.00 L 1259.00 1465.00 L 1285.00 1503.00 L 1287.00 1508.00 L 1265.00 1480.00 L 1263.00 1483.00 L 1281.00 1517.00 L 1284.00 1526.00 L 1272.00 1510.00 L 1270.00 1511.00 L 1278.00 1529.00 L 1279.00 1534.00 L 1273.00 1526.00 L 1270.00 1531.00 L 1270.00 1549.00 L 1222.00 1558.00 L 1126.00 1558.00 L 1048.00 1564.00 L 988.00 1576.00 L 910.00 1602.00 L 814.00 1642.00 L 703.00 1698.00 L 577.00 1770.00 L 494.00 1800.00 L 454.00 1788.00 L 424.00 1760.00 L 404.00 1716.00 L 395.00 1675.00 L 397.00 1637.00 L 412.00 1583.00 L 440.00 1513.00 L 503.00 1409.00 L 601.00 1271.00 L 642.00 1206.00 L 626.00 1214.00 L 616.00 1215.00 L 612.00 1209.00 L 620.00 1197.00 L 640.00 1179.00 L 640.00 1142.00 L 620.00 1086.00 L 612.00 1056.00 L 616.00 1052.00 L 619.00 1047.00 Z" fill="black" stroke="black" stroke-width="1"/>
</svg>