<?xml version="1.0" encoding="UTF-8"?>
<svg xmlns="http://www.w3.org/2000/svg" viewBox="225.00 291.00 990.00 1561.00">
  <path d="M 545.00 1096.00 L 551.00 1092.00 L 528.00 1075.00 L 476.00 1045.00 L 444.00 1022.00 L 432.00 1006.00 L 425.00 990.00 L 423.00 974.00 L 426.00 956.00 L 434.00 936.00 L 430.00 916.00 L 414.00 896.00 L 408.00 882.00 L 412.00 874.00 L 412.00 867.00 L 408.00 861.00 L 408.00 842.00 L 412.00 810.00 L 402.00 781.00 L 378.00 755.00 L 379.00 753.00 L 405.00 775.00 L 405.00 773.00 L 379.00 747.00 L 379.00 744.00 L 405.00 764.00 L 405.00 761.00 L 379.00 735.00 L 388.00 694.00 L 432.00 638.00 L 454.00 600.00 L 454.00 580.00 L 457.00 557.00 L 463.00 531.00 L 482.00 490.00 L 514.00 434.00 L 547.00 390.00 L 581.00 358.00 L 616.00 335.00 L 652.00 321.00 L 693.00 310.00 L 739.00 302.00 L 808.00 301.00 L 900.00 307.00 L 971.00 317.00 L 1021.00 331.00 L 1053.00 342.00 L 1067.00 350.00 L 1083.00 361.00 L 1101.00 375.00 L 1123.00 399.00 L 1149.00 433.00 L 1168.00 465.00 L 1180.00 495.00 L 1188.00 518.00 L 1192.00 534.00 L 1193.00 548.00 L 1191.00 560.00 L 1192.00 566.00 L 1196.00 566.00 L 1199.00 579.00 L 1201.00 605.00 L 1203.00 617.00 L 1205.00 615.00 L 1205.00 646.00 L 1203.00 710.00 L 1193.00 783.00 L 1175.00 865.00 L 1170.00 929.00 L 1178.00 975.00 L 1178.00 1021.00 L 1170.00 1067.00 L 1175.00 1101.00 L 1193.00 1123.00 L 1198.00 1134.00 L 1190.00 1134.00 L 1191.00 1135.00 L 1201.00 1137.00 L 1200.00 1139.00 L 1188.00 1141.00 L 1188.00 1144.00 L 1200.00 1148.00 L 1194.00 1150.00 L 1170.00 1150.00 L 1164.00 1152.00 L 1176.00 1156.00 L 1177.00 1159.00 L 1167.00 1161.00 L 1167.00 1163.00 L 1177.00 1165.00 L 1178.00 1167.00 L 1170.00 1169.00 L 1171.00 1171.00 L 1181.00 1173.00 L 1180.00 1174.00 L 1168.00 1174.00 L 1169.00 1177.00 L 1183.00 1183.00 L 1183.00 1186.00 L 1169.00 1186.00 L 1170.00 1188.00 L 1186.00 1192.00 L 1191.00 1195.00 L 1185.00 1197.00 L 1185.00 1199.00 L 1191.00 1201.00 L 1186.00 1201.00 L 1170.00 1199.00 L 1169.00 1201.00 L 1183.00 1207.00 L 1183.00 1210.00 L 1169.00 1210.00 L 1169.00 1213.00 L 1183.00 1219.00 L 1183.00 1221.00 L 1169.00 1219.00 L 1162.00 1220.00 L 1162.00 1224.00 L 1168.00 1228.00 L 1180.00 1232.00 L 1182.00 1234.00 L 1174.00 1234.00 L 1172.00 1235.00 L 1176.00 1237.00 L 1175.00 1239.00 L 1169.00 1241.00 L 1169.00 1297.00 L 1175.00 1407.00 L 1177.00 1466.00 L 1175.00 1474.00 L 1171.00 1479.00 L 1165.00 1481.00 L 1162.00 1517.00 L 1162.00 1587.00 L 1160.00 1624.00 L 1156.00 1628.00 L 1136.00 1628.00 L 1100.00 1624.00 L 1053.00 1623.00 L 995.00 1625.00 L 936.00 1630.00 L 876.00 1638.00 L 801.00 1655.00 L 711.00 1681.00 L 638.00 1706.00 L 582.00 1730.00 L 551.00 1746.00 L 545.00 1754.00 L 525.00 1767.00 L 491.00 1785.00 L 445.00 1806.00 L 387.00 1830.00 L 350.00 1842.00 L 334.00 1842.00 L 316.00 1838.00 L 296.00 1830.00 L 280.00 1820.00 L 268.00 1808.00 L 258.00 1794.00 L 250.00 1778.00 L 243.00 1757.00 L 237.00 1731.00 L 235.00 1700.00 L 237.00 1664.00 L 243.00 1630.00 L 253.00 1598.00 L 262.00 1573.00 L 270.00 1555.00 L 288.00 1527.00 L 316.00 1489.00 L 362.00 1442.00 L 426.00 1386.00 L 434.00 1377.00 L 386.00 1415.00 L 379.00 1420.00 L 413.00 1392.00 L 417.00 1388.00 L 391.00 1408.00 L 399.00 1400.00 L 441.00 1364.00 L 475.00 1328.00 L 501.00 1292.00 L 523.00 1267.00 L 541.00 1253.00 L 548.00 1247.00 L 544.00 1249.00 L 541.00 1231.00 L 539.00 1193.00 L 536.00 1170.00 L 532.00 1162.00 L 531.00 1154.00 L 533.00 1146.00 L 532.00 1138.00 L 528.00 1130.00 L 527.00 1120.00 L 529.00 1108.00 L 533.00 1101.00 L 539.00 1099.00 L 545.00 1096.00 Z" fill="black" stroke="black" stroke-width="1"/>
</svg>