<?xml version="1.0" encoding="UTF-8"?>
<svg xmlns="http://www.w3.org/2000/svg" viewBox="408.00 208.00 886.00 1428.00">
  <path d="M 461.00 900.00 L 459.00 880.00 L 463.00 863.00 L 473.00 849.00 L 473.00 829.00 L 463.00 803.00 L 463.00 784.00 L 473.00 772.00 L 475.00 762.00 L 469.00 754.00 L 468.00 737.00 L 472.00 711.00 L 461.00 689.00 L 435.00 671.00 L 435.00 669.00 L 461.00 683.00 L 460.00 681.00 L 432.00 663.00 L 418.00 650.00 L 418.00 642.00 L 421.00 633.00 L 427.00 623.00 L 456.00 598.00 L 508.00 558.00 L 535.00 530.00 L 537.00 514.00 L 536.00 500.00 L 532.00 488.00 L 542.00 458.00 L 566.00 410.00 L 589.00 372.00 L 611.00 344.00 L 620.00 323.00 L 616.00 309.00 L 615.00 301.00 L 617.00 299.00 L 619.00 300.00 L 621.00 304.00 L 622.00 302.00 L 622.00 294.00 L 625.00 297.00 L 631.00 311.00 L 633.00 310.00 L 631.00 294.00 L 633.00 292.00 L 639.00 304.00 L 642.00 306.00 L 642.00 298.00 L 644.00 296.00 L 648.00 300.00 L 648.00 295.00 L 644.00 281.00 L 645.00 278.00 L 651.00 286.00 L 653.00 285.00 L 651.00 275.00 L 652.00 276.00 L 656.00 288.00 L 659.00 287.00 L 661.00 273.00 L 679.00 259.00 L 713.00 245.00 L 762.00 233.00 L 826.00 223.00 L 882.00 218.00 L 930.00 218.00 L 972.00 222.00 L 1008.00 230.00 L 1045.00 241.00 L 1083.00 255.00 L 1114.00 270.00 L 1138.00 286.00 L 1164.00 309.00 L 1192.00 339.00 L 1209.00 354.00 L 1215.00 354.00 L 1217.00 356.00 L 1215.00 360.00 L 1217.00 358.00 L 1223.00 350.00 L 1230.00 346.00 L 1238.00 346.00 L 1244.00 348.00 L 1248.00 352.00 L 1248.00 361.00 L 1244.00 375.00 L 1246.00 377.00 L 1254.00 367.00 L 1254.00 370.00 L 1246.00 386.00 L 1246.00 390.00 L 1254.00 382.00 L 1255.00 385.00 L 1249.00 399.00 L 1254.00 425.00 L 1270.00 463.00 L 1280.00 504.00 L 1284.00 548.00 L 1280.00 588.00 L 1268.00 624.00 L 1242.00 677.00 L 1202.00 747.00 L 1186.00 797.00 L 1194.00 827.00 L 1195.00 862.00 L 1189.00 902.00 L 1191.00 931.00 L 1201.00 949.00 L 1206.00 964.00 L 1206.00 976.00 L 1205.00 985.00 L 1203.00 991.00 L 1188.00 993.00 L 1160.00 991.00 L 1159.00 994.00 L 1185.00 1002.00 L 1186.00 1005.00 L 1162.00 1003.00 L 1160.00 1006.00 L 1180.00 1014.00 L 1181.00 1016.00 L 1163.00 1012.00 L 1161.00 1014.00 L 1175.00 1022.00 L 1175.00 1024.00 L 1161.00 1020.00 L 1164.00 1060.00 L 1184.00 1144.00 L 1200.00 1203.00 L 1212.00 1237.00 L 1224.00 1293.00 L 1236.00 1371.00 L 1241.00 1418.00 L 1239.00 1434.00 L 1206.00 1433.00 L 1142.00 1415.00 L 1063.00 1413.00 L 969.00 1427.00 L 889.00 1447.00 L 823.00 1473.00 L 739.00 1517.00 L 637.00 1579.00 L 570.00 1614.00 L 538.00 1622.00 L 513.00 1626.00 L 495.00 1626.00 L 480.00 1623.00 L 468.00 1617.00 L 456.00 1609.00 L 444.00 1599.00 L 433.00 1584.00 L 423.00 1564.00 L 419.00 1538.00 L 421.00 1506.00 L 458.00 1439.00 L 530.00 1337.00 L 531.00 1332.00 L 461.00 1424.00 L 463.00 1419.00 L 537.00 1317.00 L 539.00 1312.00 L 469.00 1404.00 L 469.00 1402.00 L 539.00 1306.00 L 552.00 1286.00 L 508.00 1342.00 L 492.00 1362.00 L 504.00 1346.00 L 506.00 1343.00 L 498.00 1353.00 L 531.00 1310.00 L 605.00 1214.00 L 627.00 1185.00 L 597.00 1223.00 L 596.00 1220.00 L 624.00 1176.00 L 633.00 1139.00 L 623.00 1109.00 L 612.00 1085.00 L 600.00 1067.00 L 595.00 1054.00 L 597.00 1046.00 L 603.00 1039.00 L 613.00 1033.00 L 616.00 1031.00 L 612.00 1033.00 L 610.00 1032.00 L 610.00 1028.00 L 594.00 1018.00 L 562.00 1002.00 L 540.00 986.00 L 528.00 970.00 L 508.00 951.00 L 480.00 929.00 L 465.00 916.00 L 463.00 912.00 L 461.00 900.00 Z" fill="black" stroke="black" stroke-width="1"/>
</svg>