<?xml version="1.0" encoding="UTF-8"?>
<svg xmlns="http://www.w3.org/2000/svg" viewBox="405.00 125.00 1071.00 1589.00">
  <path d="M 546.00 911.00 L 546.00 873.00 L 537.00 840.00 L 519.00 812.00 L 529.00 767.00 L 567.00 705.00 L 586.00 662.00 L 586.00 638.00 L 578.00 617.00 L 562.00 599.00 L 562.00 597.00 L 578.00 611.00 L 577.00 608.00 L 559.00 588.00 L 559.00 585.00 L 577.00 599.00 L 577.00 595.00 L 559.00 573.00 L 559.00 570.00 L 577.00 586.00 L 578.00 582.00 L 562.00 558.00 L 562.00 555.00 L 578.00 573.00 L 581.00 561.00 L 571.00 519.00 L 573.00 505.00 L 587.00 519.00 L 587.00 516.00 L 573.00 496.00 L 574.00 493.00 L 590.00 507.00 L 591.00 504.00 L 577.00 484.00 L 578.00 481.00 L 594.00 495.00 L 596.00 493.00 L 584.00 475.00 L 585.00 472.00 L 599.00 484.00 L 606.00 471.00 L 606.00 433.00 L 627.00 390.00 L 669.00 342.00 L 727.00 306.00 L 801.00 282.00 L 839.00 252.00 L 841.00 216.00 L 844.00 216.00 L 848.00 252.00 L 850.00 246.00 L 850.00 198.00 L 853.00 198.00 L 859.00 246.00 L 862.00 243.00 L 862.00 189.00 L 865.00 188.00 L 871.00 240.00 L 875.00 237.00 L 877.00 179.00 L 910.00 145.00 L 974.00 135.00 L 1033.00 141.00 L 1087.00 163.00 L 1120.00 162.00 L 1132.00 138.00 L 1154.00 149.00 L 1186.00 195.00 L 1222.00 215.00 L 1262.00 209.00 L 1305.00 224.00 L 1351.00 260.00 L 1398.00 342.00 L 1446.00 470.00 L 1466.00 548.00 L 1458.00 576.00 L 1422.00 610.00 L 1358.00 650.00 L 1357.00 654.00 L 1419.00 622.00 L 1418.00 625.00 L 1354.00 663.00 L 1352.00 667.00 L 1412.00 637.00 L 1411.00 640.00 L 1349.00 676.00 L 1348.00 678.00 L 1408.00 646.00 L 1407.00 649.00 L 1345.00 687.00 L 1341.00 692.00 L 1395.00 664.00 L 1394.00 666.00 L 1338.00 698.00 L 1335.00 701.00 L 1385.00 675.00 L 1384.00 677.00 L 1332.00 707.00 L 1279.00 761.00 L 1225.00 839.00 L 1176.00 897.00 L 1132.00 935.00 L 1084.00 953.00 L 1032.00 951.00 L 1028.00 953.00 L 1072.00 959.00 L 1075.00 960.00 L 1037.00 956.00 L 1038.00 960.00 L 1078.00 972.00 L 1103.00 997.00 L 1113.00 1035.00 L 1114.00 1052.00 L 1106.00 1048.00 L 1113.00 1060.00 L 1135.00 1088.00 L 1140.00 1100.00 L 1128.00 1096.00 L 1165.00 1174.00 L 1251.00 1334.00 L 1254.00 1418.00 L 1174.00 1426.00 L 1090.00 1446.00 L 1002.00 1478.00 L 868.00 1562.00 L 688.00 1698.00 L 646.00 1628.00 L 742.00 1352.00 L 738.00 1356.00 L 634.00 1640.00 L 634.00 1638.00 L 738.00 1350.00 L 736.00 1351.00 L 628.00 1641.00 L 626.00 1645.00 L 730.00 1363.00 L 720.00 1373.00 L 596.00 1675.00 L 597.00 1668.00 L 723.00 1352.00 L 721.00 1354.00 L 591.00 1674.00 L 585.00 1686.00 L 703.00 1390.00 L 695.00 1396.00 L 561.00 1704.00 L 566.00 1689.00 L 710.00 1351.00 L 707.00 1350.00 L 557.00 1686.00 L 556.00 1684.00 L 704.00 1344.00 L 698.00 1341.00 L 538.00 1675.00 L 537.00 1673.00 L 695.00 1335.00 L 689.00 1330.00 L 519.00 1658.00 L 518.00 1655.00 L 686.00 1321.00 L 680.00 1315.00 L 500.00 1637.00 L 469.00 1691.00 L 587.00 1477.00 L 585.00 1475.00 L 463.00 1685.00 L 458.00 1691.00 L 570.00 1493.00 L 569.00 1490.00 L 455.00 1682.00 L 448.00 1690.00 L 548.00 1514.00 L 546.00 1507.00 L 442.00 1669.00 L 483.00 1598.00 L 669.00 1294.00 L 668.00 1291.00 L 480.00 1589.00 L 430.00 1667.00 L 518.00 1525.00 L 518.00 1523.00 L 430.00 1661.00 L 427.00 1664.00 L 509.00 1532.00 L 509.00 1530.00 L 427.00 1658.00 L 425.00 1659.00 L 503.00 1533.00 L 503.00 1530.00 L 425.00 1650.00 L 423.00 1652.00 L 497.00 1536.00 L 497.00 1534.00 L 423.00 1646.00 L 421.00 1648.00 L 491.00 1540.00 L 491.00 1537.00 L 421.00 1639.00 L 417.00 1642.00 L 479.00 1546.00 L 480.00 1540.00 L 420.00 1624.00 L 415.00 1629.00 L 465.00 1555.00 L 467.00 1549.00 L 421.00 1611.00 L 487.00 1514.00 L 665.00 1258.00 L 667.00 1254.00 L 493.00 1502.00 L 493.00 1501.00 L 667.00 1251.00 L 711.00 1115.00 L 625.00 1093.00 L 581.00 1058.00 L 579.00 1010.00 L 569.00 976.00 L 551.00 956.00 L 543.00 942.00 L 545.00 934.00 L 546.00 911.00 Z" fill="black" stroke="black" stroke-width="1"/>
</svg>