<?xml version="1.0" encoding="UTF-8"?>
<svg xmlns="http://www.w3.org/2000/svg" viewBox="376.00 132.00 1048.00 1738.00">
  <path d="M 446.00 918.00 L 466.00 902.00 L 470.00 878.00 L 458.00 846.00 L 457.00 826.00 L 467.00 818.00 L 467.00 805.00 L 457.00 787.00 L 458.00 772.00 L 470.00 760.00 L 477.00 746.00 L 479.00 730.00 L 467.00 712.00 L 441.00 692.00 L 428.00 675.00 L 428.00 661.00 L 461.00 625.00 L 527.00 567.00 L 559.00 528.00 L 557.00 508.00 L 560.00 489.00 L 568.00 471.00 L 551.00 428.00 L 509.00 360.00 L 510.00 357.00 L 554.00 419.00 L 553.00 412.00 L 507.00 336.00 L 509.00 334.00 L 559.00 406.00 L 559.00 404.00 L 509.00 328.00 L 510.00 326.00 L 562.00 398.00 L 564.00 393.00 L 516.00 311.00 L 517.00 309.00 L 567.00 387.00 L 568.00 384.00 L 520.00 300.00 L 522.00 297.00 L 574.00 375.00 L 577.00 372.00 L 531.00 288.00 L 532.00 285.00 L 580.00 363.00 L 584.00 360.00 L 544.00 276.00 L 546.00 270.00 L 590.00 342.00 L 593.00 341.00 L 555.00 267.00 L 556.00 265.00 L 596.00 335.00 L 598.00 334.00 L 562.00 262.00 L 563.00 260.00 L 601.00 328.00 L 605.00 328.00 L 575.00 260.00 L 577.00 257.00 L 611.00 319.00 L 615.00 320.00 L 589.00 260.00 L 590.00 255.00 L 618.00 305.00 L 621.00 306.00 L 599.00 258.00 L 600.00 260.00 L 624.00 312.00 L 626.00 315.00 L 606.00 269.00 L 607.00 266.00 L 629.00 306.00 L 635.00 308.00 L 625.00 272.00 L 622.00 251.00 L 626.00 245.00 L 642.00 230.00 L 670.00 206.00 L 702.00 190.00 L 738.00 182.00 L 770.00 171.00 L 798.00 157.00 L 833.00 153.00 L 875.00 159.00 L 911.00 157.00 L 941.00 147.00 L 990.00 142.00 L 1058.00 142.00 L 1119.00 150.00 L 1173.00 166.00 L 1227.00 191.00 L 1281.00 225.00 L 1315.00 234.00 L 1329.00 218.00 L 1333.00 218.00 L 1327.00 234.00 L 1331.00 233.00 L 1345.00 215.00 L 1345.00 219.00 L 1331.00 245.00 L 1333.00 244.00 L 1351.00 216.00 L 1372.00 214.00 L 1396.00 238.00 L 1410.00 254.00 L 1414.00 262.00 L 1406.00 284.00 L 1386.00 320.00 L 1387.00 324.00 L 1409.00 296.00 L 1409.00 299.00 L 1387.00 333.00 L 1387.00 339.00 L 1409.00 317.00 L 1410.00 320.00 L 1390.00 348.00 L 1390.00 351.00 L 1410.00 329.00 L 1411.00 332.00 L 1393.00 360.00 L 1387.00 382.00 L 1393.00 398.00 L 1397.00 441.00 L 1399.00 511.00 L 1393.00 568.00 L 1379.00 612.00 L 1358.00 657.00 L 1330.00 703.00 L 1321.00 744.00 L 1331.00 780.00 L 1337.00 816.00 L 1339.00 852.00 L 1344.00 878.00 L 1352.00 894.00 L 1355.00 926.00 L 1353.00 974.00 L 1344.00 1018.00 L 1328.00 1058.00 L 1336.00 1085.00 L 1368.00 1099.00 L 1367.00 1102.00 L 1333.00 1094.00 L 1338.00 1101.00 L 1382.00 1123.00 L 1381.00 1126.00 L 1335.00 1110.00 L 1336.00 1114.00 L 1384.00 1138.00 L 1384.00 1142.00 L 1336.00 1126.00 L 1336.00 1131.00 L 1384.00 1157.00 L 1408.00 1173.00 L 1408.00 1179.00 L 1400.00 1194.00 L 1384.00 1218.00 L 1354.00 1218.00 L 1310.00 1194.00 L 1308.00 1195.00 L 1348.00 1221.00 L 1348.00 1223.00 L 1308.00 1201.00 L 1305.00 1202.00 L 1339.00 1226.00 L 1340.00 1230.00 L 1308.00 1214.00 L 1304.00 1238.00 L 1328.00 1302.00 L 1349.00 1372.00 L 1367.00 1448.00 L 1379.00 1505.00 L 1385.00 1543.00 L 1385.00 1572.00 L 1379.00 1592.00 L 1360.00 1603.00 L 1328.00 1605.00 L 1261.00 1601.00 L 1159.00 1591.00 L 1068.00 1592.00 L 988.00 1604.00 L 896.00 1629.00 L 792.00 1667.00 L 680.00 1727.00 L 560.00 1809.00 L 490.00 1853.00 L 470.00 1859.00 L 449.00 1860.00 L 427.00 1856.00 L 408.00 1841.00 L 392.00 1815.00 L 386.00 1785.00 L 390.00 1751.00 L 431.00 1670.00 L 509.00 1542.00 L 513.00 1531.00 L 443.00 1637.00 L 444.00 1633.00 L 516.00 1519.00 L 554.00 1452.00 L 558.00 1432.00 L 592.00 1376.00 L 656.00 1284.00 L 657.00 1281.00 L 595.00 1367.00 L 587.00 1376.00 L 633.00 1308.00 L 635.00 1302.00 L 593.00 1358.00 L 590.00 1361.00 L 626.00 1311.00 L 630.00 1304.00 L 602.00 1340.00 L 612.00 1325.00 L 660.00 1259.00 L 679.00 1213.00 L 669.00 1187.00 L 651.00 1156.00 L 625.00 1120.00 L 614.00 1095.00 L 618.00 1081.00 L 579.00 1054.00 L 497.00 1014.00 L 450.00 980.00 L 438.00 952.00 L 433.00 935.00 L 435.00 929.00 L 446.00 918.00 Z" fill="black" stroke="black" stroke-width="1"/>
</svg>