<?xml version="1.0" encoding="UTF-8"?>
<svg xmlns="http://www.w3.org/2000/svg" viewBox="274.00 184.00 1069.00 1513.00">
  <path d="M 385.00 897.00 L 407.00 887.00 L 394.00 874.00 L 346.00 858.00 L 340.00 851.00 L 376.00 853.00 L 374.00 851.00 L 334.00 845.00 L 304.00 782.00 L 284.00 662.00 L 294.00 583.00 L 334.00 545.00 L 382.00 473.00 L 438.00 367.00 L 498.00 287.00 L 562.00 233.00 L 643.00 202.00 L 741.00 194.00 L 805.00 207.00 L 835.00 241.00 L 853.00 243.00 L 859.00 213.00 L 862.00 212.00 L 862.00 240.00 L 866.00 239.00 L 874.00 209.00 L 885.00 203.00 L 899.00 221.00 L 914.00 224.00 L 930.00 212.00 L 936.00 228.00 L 932.00 272.00 L 934.00 273.00 L 942.00 231.00 L 944.00 231.00 L 940.00 273.00 L 943.00 274.00 L 953.00 234.00 L 956.00 234.00 L 952.00 274.00 L 954.00 276.00 L 962.00 240.00 L 963.00 243.00 L 957.00 285.00 L 962.00 295.00 L 978.00 273.00 L 987.00 280.00 L 989.00 316.00 L 996.00 321.00 L 1008.00 295.00 L 1011.00 298.00 L 1005.00 330.00 L 1008.00 331.00 L 1020.00 301.00 L 1023.00 302.00 L 1017.00 334.00 L 1021.00 335.00 L 1035.00 305.00 L 1038.00 307.00 L 1030.00 341.00 L 1033.00 363.00 L 1047.00 373.00 L 1080.00 374.00 L 1132.00 366.00 L 1157.00 401.00 L 1155.00 479.00 L 1161.00 513.00 L 1175.00 503.00 L 1176.00 508.00 L 1164.00 528.00 L 1165.00 532.00 L 1179.00 520.00 L 1179.00 523.00 L 1165.00 541.00 L 1165.00 544.00 L 1179.00 532.00 L 1180.00 535.00 L 1168.00 553.00 L 1168.00 556.00 L 1180.00 544.00 L 1180.00 546.00 L 1168.00 562.00 L 1168.00 565.00 L 1180.00 555.00 L 1182.00 586.00 L 1174.00 658.00 L 1186.00 723.00 L 1218.00 781.00 L 1220.00 824.00 L 1192.00 852.00 L 1174.00 914.00 L 1166.00 1010.00 L 1127.00 1080.00 L 1057.00 1124.00 L 1103.00 1267.00 L 1265.00 1509.00 L 1263.00 1510.00 L 1097.00 1270.00 L 1098.00 1273.00 L 1266.00 1519.00 L 1323.00 1606.00 L 1269.00 1534.00 L 1272.00 1545.00 L 1332.00 1639.00 L 1330.00 1638.00 L 1266.00 1542.00 L 1267.00 1544.00 L 1333.00 1644.00 L 1331.00 1643.00 L 1261.00 1541.00 L 1261.00 1544.00 L 1331.00 1652.00 L 1321.00 1639.00 L 1231.00 1505.00 L 1231.00 1509.00 L 1321.00 1651.00 L 1317.00 1647.00 L 1219.00 1497.00 L 1219.00 1501.00 L 1317.00 1659.00 L 1275.00 1593.00 L 1093.00 1303.00 L 1092.00 1306.00 L 1272.00 1602.00 L 1307.00 1664.00 L 1197.00 1492.00 L 1195.00 1498.00 L 1301.00 1682.00 L 1264.00 1622.00 L 1084.00 1318.00 L 1079.00 1323.00 L 1249.00 1637.00 L 1270.00 1681.00 L 1142.00 1455.00 L 1138.00 1457.00 L 1258.00 1687.00 L 1235.00 1646.00 L 1069.00 1334.00 L 1065.00 1335.00 L 1223.00 1649.00 L 1222.00 1652.00 L 1062.00 1344.00 L 1054.00 1343.00 L 1198.00 1649.00 L 1197.00 1651.00 L 1051.00 1349.00 L 1043.00 1346.00 L 1173.00 1642.00 L 1172.00 1644.00 L 1040.00 1352.00 L 1035.00 1350.00 L 1157.00 1638.00 L 1166.00 1664.00 L 1062.00 1428.00 L 1056.00 1425.00 L 1148.00 1655.00 L 1138.00 1632.00 L 1026.00 1356.00 L 1024.00 1355.00 L 1132.00 1629.00 L 1132.00 1632.00 L 1024.00 1364.00 L 1018.00 1360.00 L 1114.00 1620.00 L 1115.00 1625.00 L 1021.00 1375.00 L 1019.00 1374.00 L 1109.00 1622.00 L 1109.00 1625.00 L 1019.00 1383.00 L 1016.00 1381.00 L 1100.00 1619.00 L 1071.00 1683.00 L 929.00 1573.00 L 781.00 1489.00 L 627.00 1431.00 L 545.00 1387.00 L 535.00 1357.00 L 552.00 1281.00 L 596.00 1159.00 L 618.00 1085.00 L 618.00 1059.00 L 609.00 1049.00 L 591.00 1055.00 L 591.00 1052.00 L 609.00 1040.00 L 602.00 1039.00 L 570.00 1049.00 L 563.00 1041.00 L 581.00 1015.00 L 587.00 996.00 L 581.00 984.00 L 546.00 985.00 L 482.00 999.00 L 474.00 1000.00 L 522.00 988.00 L 519.00 986.00 L 465.00 994.00 L 459.00 993.00 L 501.00 983.00 L 499.00 980.00 L 453.00 984.00 L 451.00 982.00 L 493.00 974.00 L 487.00 969.00 L 433.00 967.00 L 430.00 962.00 L 478.00 954.00 L 476.00 953.00 L 424.00 959.00 L 423.00 958.00 L 473.00 950.00 L 475.00 947.00 L 429.00 949.00 L 426.00 948.00 L 466.00 944.00 L 463.00 941.00 L 417.00 939.00 L 391.00 932.00 L 385.00 920.00 L 380.00 911.00 L 376.00 905.00 L 385.00 897.00 Z" fill="black" stroke="black" stroke-width="1"/>
</svg>