<?xml version="1.0" encoding="UTF-8"?>
<svg xmlns="http://www.w3.org/2000/svg" viewBox="328.00 272.00 834.00 1542.00">
  <path d="M 390.00 1101.00 L 382.00 1091.00 L 382.00 1078.00 L 390.00 1062.00 L 385.00 1047.00 L 367.00 1033.00 L 357.00 1020.00 L 355.00 1008.00 L 370.00 978.00 L 402.00 930.00 L 419.00 884.00 L 421.00 840.00 L 394.00 793.00 L 338.00 743.00 L 340.00 740.00 L 400.00 784.00 L 402.00 781.00 L 346.00 731.00 L 347.00 728.00 L 405.00 772.00 L 408.00 769.00 L 356.00 719.00 L 357.00 717.00 L 411.00 763.00 L 414.00 761.00 L 366.00 711.00 L 367.00 708.00 L 417.00 752.00 L 421.00 750.00 L 379.00 702.00 L 380.00 699.00 L 424.00 741.00 L 427.00 740.00 L 389.00 696.00 L 390.00 694.00 L 430.00 734.00 L 433.00 733.00 L 399.00 691.00 L 399.00 689.00 L 433.00 727.00 L 436.00 726.00 L 408.00 686.00 L 408.00 681.00 L 436.00 711.00 L 439.00 710.00 L 417.00 678.00 L 423.00 661.00 L 457.00 659.00 L 487.00 649.00 L 513.00 631.00 L 580.00 537.00 L 688.00 367.00 L 754.00 282.00 L 778.00 282.00 L 813.00 295.00 L 859.00 321.00 L 960.00 389.00 L 1116.00 499.00 L 1152.00 646.00 L 1068.00 830.00 L 1025.00 930.00 L 1023.00 946.00 L 1031.00 972.00 L 1049.00 1008.00 L 1038.00 1032.00 L 998.00 1044.00 L 978.00 1053.00 L 978.00 1059.00 L 1000.00 1057.00 L 1044.00 1047.00 L 1044.00 1049.00 L 1000.00 1063.00 L 1001.00 1066.00 L 1047.00 1058.00 L 1055.00 1059.00 L 1025.00 1069.00 L 1026.00 1072.00 L 1058.00 1068.00 L 1051.00 1070.00 L 1005.00 1078.00 L 1006.00 1080.00 L 1054.00 1076.00 L 1054.00 1079.00 L 1006.00 1089.00 L 1007.00 1093.00 L 1057.00 1091.00 L 1069.00 1091.00 L 1043.00 1093.00 L 1043.00 1096.00 L 1069.00 1100.00 L 1057.00 1103.00 L 1007.00 1105.00 L 1006.00 1108.00 L 1054.00 1112.00 L 1055.00 1115.00 L 1009.00 1117.00 L 1007.00 1119.00 L 1049.00 1121.00 L 1050.00 1125.00 L 1010.00 1131.00 L 998.00 1159.00 L 1014.00 1209.00 L 1022.00 1273.00 L 1022.00 1351.00 L 1033.00 1403.00 L 1055.00 1429.00 L 1055.00 1431.00 L 1033.00 1409.00 L 1033.00 1412.00 L 1055.00 1440.00 L 1057.00 1445.00 L 1039.00 1427.00 L 1038.00 1429.00 L 1054.00 1451.00 L 1054.00 1458.00 L 1038.00 1450.00 L 1033.00 1459.00 L 1039.00 1485.00 L 1035.00 1489.00 L 1021.00 1471.00 L 1022.00 1474.00 L 1038.00 1498.00 L 1023.00 1478.00 L 977.00 1414.00 L 974.00 1414.00 L 1014.00 1478.00 L 1015.00 1483.00 L 977.00 1429.00 L 976.00 1431.00 L 1012.00 1489.00 L 1012.00 1492.00 L 976.00 1440.00 L 972.00 1439.00 L 1000.00 1489.00 L 1001.00 1494.00 L 975.00 1454.00 L 975.00 1458.00 L 1001.00 1506.00 L 1001.00 1509.00 L 975.00 1467.00 L 975.00 1470.00 L 1001.00 1518.00 L 1010.00 1535.00 L 1002.00 1521.00 L 1002.00 1525.00 L 1010.00 1547.00 L 1000.00 1534.00 L 972.00 1486.00 L 972.00 1490.00 L 1000.00 1546.00 L 999.00 1549.00 L 969.00 1499.00 L 970.00 1506.00 L 1002.00 1570.00 L 1003.00 1574.00 L 973.00 1518.00 L 973.00 1521.00 L 1003.00 1583.00 L 1004.00 1586.00 L 976.00 1530.00 L 976.00 1533.00 L 1004.00 1595.00 L 1008.00 1606.00 L 988.00 1566.00 L 988.00 1569.00 L 1008.00 1615.00 L 1011.00 1625.00 L 997.00 1599.00 L 995.00 1601.00 L 1005.00 1631.00 L 1007.00 1641.00 L 1001.00 1631.00 L 998.00 1639.00 L 998.00 1665.00 L 968.00 1672.00 L 908.00 1660.00 L 853.00 1655.00 L 803.00 1657.00 L 739.00 1672.00 L 661.00 1700.00 L 591.00 1735.00 L 529.00 1777.00 L 486.00 1800.00 L 462.00 1804.00 L 443.00 1802.00 L 429.00 1794.00 L 414.00 1776.00 L 398.00 1748.00 L 394.00 1713.00 L 402.00 1671.00 L 425.00 1621.00 L 463.00 1563.00 L 464.00 1560.00 L 428.00 1612.00 L 426.00 1614.00 L 458.00 1566.00 L 459.00 1564.00 L 429.00 1608.00 L 431.00 1604.00 L 465.00 1552.00 L 466.00 1549.00 L 434.00 1595.00 L 443.00 1569.00 L 493.00 1471.00 L 503.00 1384.00 L 473.00 1308.00 L 460.00 1263.00 L 464.00 1249.00 L 453.00 1235.00 L 427.00 1221.00 L 408.00 1190.00 L 396.00 1142.00 L 391.00 1115.00 L 393.00 1109.00 L 390.00 1101.00 Z" fill="black" stroke="black" stroke-width="1"/>
</svg>