<?xml version="1.0" encoding="UTF-8"?>
<svg xmlns="http://www.w3.org/2000/svg" viewBox="305.00 299.00 918.00 1629.00">
  <path d="M 397.00 1029.00 L 387.00 1003.00 L 387.00 977.00 L 397.00 951.00 L 392.00 932.00 L 372.00 920.00 L 371.00 917.00 L 389.00 923.00 L 386.00 921.00 L 362.00 911.00 L 361.00 910.00 L 383.00 918.00 L 382.00 913.00 L 358.00 895.00 L 362.00 862.00 L 394.00 814.00 L 414.00 779.00 L 422.00 757.00 L 428.00 717.00 L 432.00 659.00 L 430.00 619.00 L 422.00 597.00 L 423.00 593.00 L 433.00 607.00 L 434.00 604.00 L 426.00 584.00 L 427.00 581.00 L 437.00 595.00 L 438.00 594.00 L 430.00 578.00 L 431.00 575.00 L 441.00 585.00 L 443.00 582.00 L 437.00 566.00 L 439.00 563.00 L 449.00 573.00 L 451.00 571.00 L 445.00 557.00 L 446.00 555.00 L 454.00 565.00 L 457.00 562.00 L 455.00 546.00 L 461.00 533.00 L 475.00 523.00 L 485.00 511.00 L 491.00 497.00 L 509.00 478.00 L 539.00 454.00 L 571.00 435.00 L 605.00 421.00 L 622.00 398.00 L 622.00 366.00 L 624.00 366.00 L 628.00 398.00 L 629.00 396.00 L 627.00 360.00 L 629.00 359.00 L 635.00 393.00 L 637.00 390.00 L 635.00 350.00 L 638.00 350.00 L 646.00 390.00 L 650.00 387.00 L 650.00 341.00 L 657.00 315.00 L 671.00 309.00 L 694.00 309.00 L 726.00 315.00 L 758.00 334.00 L 790.00 366.00 L 812.00 380.00 L 824.00 376.00 L 834.00 378.00 L 842.00 386.00 L 856.00 383.00 L 876.00 369.00 L 905.00 362.00 L 943.00 362.00 L 972.00 367.00 L 992.00 377.00 L 1015.00 394.00 L 1041.00 418.00 L 1063.00 432.00 L 1081.00 436.00 L 1109.00 456.00 L 1147.00 492.00 L 1173.00 524.00 L 1187.00 552.00 L 1199.00 587.00 L 1209.00 629.00 L 1213.00 672.00 L 1211.00 716.00 L 1202.00 759.00 L 1186.00 801.00 L 1170.00 834.00 L 1154.00 858.00 L 1136.00 875.00 L 1116.00 885.00 L 1114.00 887.00 L 1130.00 881.00 L 1128.00 882.00 L 1108.00 890.00 L 1104.00 892.00 L 1116.00 888.00 L 1115.00 890.00 L 1101.00 898.00 L 1086.00 917.00 L 1070.00 947.00 L 1050.00 974.00 L 1026.00 998.00 L 996.00 1020.00 L 960.00 1040.00 L 942.00 1070.00 L 942.00 1110.00 L 958.00 1138.00 L 990.00 1154.00 L 990.00 1156.00 L 958.00 1144.00 L 962.00 1149.00 L 1002.00 1171.00 L 1003.00 1174.00 L 965.00 1158.00 L 966.00 1161.00 L 1006.00 1183.00 L 1006.00 1185.00 L 966.00 1167.00 L 967.00 1170.00 L 1009.00 1194.00 L 1010.00 1197.00 L 970.00 1179.00 L 970.00 1182.00 L 1010.00 1206.00 L 1033.00 1233.00 L 1039.00 1263.00 L 1048.00 1285.00 L 1060.00 1299.00 L 1068.00 1316.00 L 1072.00 1336.00 L 1035.00 1355.00 L 957.00 1373.00 L 890.00 1395.00 L 834.00 1421.00 L 790.00 1446.00 L 758.00 1470.00 L 696.00 1531.00 L 604.00 1629.00 L 514.00 1739.00 L 426.00 1861.00 L 374.00 1918.00 L 358.00 1910.00 L 412.00 1750.00 L 536.00 1438.00 L 534.00 1437.00 L 406.00 1747.00 L 406.00 1744.00 L 534.00 1428.00 L 532.00 1426.00 L 400.00 1738.00 L 396.00 1747.00 L 520.00 1453.00 L 518.00 1451.00 L 390.00 1741.00 L 394.00 1729.00 L 530.00 1415.00 L 529.00 1412.00 L 391.00 1720.00 L 391.00 1718.00 L 529.00 1406.00 L 527.00 1403.00 L 385.00 1709.00 L 385.00 1708.00 L 527.00 1400.00 L 526.00 1397.00 L 382.00 1699.00 L 349.00 1765.00 L 427.00 1595.00 L 426.00 1591.00 L 346.00 1753.00 L 379.00 1685.00 L 525.00 1387.00 L 524.00 1384.00 L 376.00 1676.00 L 339.00 1748.00 L 413.00 1600.00 L 413.00 1598.00 L 339.00 1742.00 L 337.00 1744.00 L 407.00 1604.00 L 407.00 1602.00 L 337.00 1738.00 L 335.00 1739.00 L 401.00 1605.00 L 400.00 1603.00 L 332.00 1733.00 L 330.00 1736.00 L 394.00 1612.00 L 394.00 1610.00 L 330.00 1730.00 L 372.00 1650.00 L 520.00 1370.00 L 520.00 1367.00 L 372.00 1641.00 L 325.00 1726.00 L 379.00 1622.00 L 379.00 1619.00 L 325.00 1717.00 L 323.00 1719.00 L 373.00 1625.00 L 373.00 1623.00 L 323.00 1713.00 L 320.00 1716.00 L 364.00 1632.00 L 365.00 1627.00 L 323.00 1701.00 L 321.00 1704.00 L 359.00 1636.00 L 360.00 1633.00 L 324.00 1695.00 L 319.00 1701.00 L 345.00 1651.00 L 346.00 1646.00 L 322.00 1686.00 L 315.00 1697.00 L 325.00 1679.00 L 327.00 1675.00 L 321.00 1685.00 L 386.00 1573.00 L 522.00 1339.00 L 523.00 1337.00 L 389.00 1567.00 L 386.00 1564.00 L 514.00 1328.00 L 537.00 1193.00 L 455.00 1159.00 L 409.00 1134.00 L 399.00 1118.00 L 397.00 1095.00 L 403.00 1065.00 L 405.00 1048.00 L 403.00 1044.00 L 397.00 1029.00 Z" fill="black" stroke="black" stroke-width="1"/>
</svg>