<?xml version="1.0" encoding="UTF-8"?>
<svg xmlns="http://www.w3.org/2000/svg" viewBox="350.00 136.00 926.00 1616.00">
  <path d="M 465.00 895.00 L 463.00 889.00 L 466.00 877.00 L 474.00 859.00 L 478.00 845.00 L 478.00 835.00 L 471.00 818.00 L 457.00 794.00 L 453.00 775.00 L 459.00 761.00 L 459.00 750.00 L 453.00 742.00 L 451.00 727.00 L 453.00 705.00 L 442.00 684.00 L 418.00 664.00 L 416.00 660.00 L 436.00 672.00 L 434.00 669.00 L 410.00 651.00 L 397.00 637.00 L 395.00 627.00 L 419.00 592.00 L 469.00 532.00 L 492.00 486.00 L 488.00 454.00 L 495.00 423.00 L 513.00 393.00 L 521.00 374.00 L 519.00 366.00 L 521.00 363.00 L 527.00 365.00 L 528.00 362.00 L 524.00 354.00 L 525.00 352.00 L 531.00 356.00 L 533.00 353.00 L 531.00 343.00 L 532.00 341.00 L 536.00 347.00 L 537.00 345.00 L 535.00 335.00 L 536.00 333.00 L 540.00 339.00 L 541.00 337.00 L 539.00 327.00 L 540.00 325.00 L 544.00 331.00 L 545.00 328.00 L 543.00 316.00 L 555.00 295.00 L 581.00 265.00 L 612.00 237.00 L 648.00 211.00 L 676.00 194.00 L 696.00 186.00 L 720.00 179.00 L 748.00 173.00 L 775.00 171.00 L 801.00 173.00 L 817.00 170.00 L 823.00 162.00 L 839.00 155.00 L 865.00 149.00 L 897.00 146.00 L 935.00 146.00 L 974.00 152.00 L 1014.00 164.00 L 1051.00 178.00 L 1085.00 194.00 L 1117.00 214.00 L 1147.00 238.00 L 1167.00 246.00 L 1177.00 238.00 L 1180.00 238.00 L 1176.00 246.00 L 1177.00 245.00 L 1183.00 235.00 L 1183.00 236.00 L 1177.00 248.00 L 1175.00 256.00 L 1177.00 260.00 L 1186.00 252.00 L 1202.00 232.00 L 1219.00 228.00 L 1237.00 240.00 L 1246.00 251.00 L 1246.00 261.00 L 1238.00 281.00 L 1222.00 311.00 L 1225.00 313.00 L 1247.00 287.00 L 1248.00 289.00 L 1228.00 319.00 L 1228.00 322.00 L 1248.00 298.00 L 1249.00 300.00 L 1231.00 328.00 L 1231.00 330.00 L 1249.00 306.00 L 1249.00 309.00 L 1231.00 339.00 L 1231.00 342.00 L 1249.00 318.00 L 1250.00 319.00 L 1234.00 345.00 L 1227.00 385.00 L 1229.00 439.00 L 1227.00 477.00 L 1221.00 499.00 L 1210.00 529.00 L 1194.00 567.00 L 1170.00 610.00 L 1138.00 658.00 L 1122.00 697.00 L 1122.00 727.00 L 1115.00 771.00 L 1101.00 829.00 L 1094.00 870.00 L 1094.00 894.00 L 1097.00 915.00 L 1103.00 933.00 L 1106.00 949.00 L 1106.00 963.00 L 1091.00 968.00 L 1061.00 964.00 L 1060.00 967.00 L 1088.00 977.00 L 1088.00 980.00 L 1060.00 976.00 L 1059.00 978.00 L 1085.00 986.00 L 1087.00 988.00 L 1065.00 984.00 L 1064.00 986.00 L 1084.00 994.00 L 1083.00 995.00 L 1061.00 989.00 L 1059.00 991.00 L 1077.00 1001.00 L 1077.00 1004.00 L 1059.00 1000.00 L 1057.00 1002.00 L 1071.00 1010.00 L 1072.00 1013.00 L 1060.00 1011.00 L 1055.00 1017.00 L 1057.00 1031.00 L 1074.00 1053.00 L 1106.00 1083.00 L 1134.00 1116.00 L 1158.00 1152.00 L 1186.00 1189.00 L 1218.00 1227.00 L 1242.00 1266.00 L 1258.00 1306.00 L 1266.00 1338.00 L 1266.00 1362.00 L 1230.00 1374.00 L 1158.00 1374.00 L 1096.00 1380.00 L 1044.00 1392.00 L 995.00 1406.00 L 949.00 1422.00 L 903.00 1442.00 L 857.00 1466.00 L 811.00 1494.00 L 765.00 1526.00 L 721.00 1562.00 L 679.00 1602.00 L 627.00 1647.00 L 565.00 1697.00 L 517.00 1727.00 L 483.00 1737.00 L 457.00 1742.00 L 439.00 1742.00 L 423.00 1739.00 L 409.00 1733.00 L 395.00 1722.00 L 381.00 1706.00 L 370.00 1683.00 L 362.00 1653.00 L 360.00 1625.00 L 364.00 1599.00 L 372.00 1569.00 L 384.00 1535.00 L 433.00 1456.00 L 519.00 1332.00 L 524.00 1323.00 L 448.00 1429.00 L 445.00 1432.00 L 515.00 1332.00 L 517.00 1327.00 L 451.00 1417.00 L 420.00 1459.00 L 424.00 1453.00 L 461.00 1402.00 L 531.00 1306.00 L 533.00 1303.00 L 467.00 1393.00 L 460.00 1402.00 L 512.00 1330.00 L 517.00 1322.00 L 475.00 1378.00 L 482.00 1367.00 L 538.00 1289.00 L 551.00 1270.00 L 521.00 1310.00 L 522.00 1308.00 L 554.00 1264.00 L 574.00 1232.00 L 582.00 1212.00 L 584.00 1204.00 L 580.00 1208.00 L 586.00 1198.00 L 602.00 1174.00 L 609.00 1146.00 L 607.00 1114.00 L 600.00 1079.00 L 588.00 1041.00 L 582.00 1015.00 L 582.00 1001.00 L 586.00 990.00 L 594.00 982.00 L 585.00 974.00 L 559.00 966.00 L 527.00 949.00 L 489.00 923.00 L 469.00 907.00 L 467.00 901.00 L 465.00 895.00 Z" fill="black" stroke="black" stroke-width="1"/>
</svg>