<?xml version="1.0" encoding="UTF-8"?>
<svg xmlns="http://www.w3.org/2000/svg" viewBox="282.00 362.00 798.00 1429.00">
  <path d="M 474.00 1049.00 L 434.00 1039.00 L 405.00 1027.00 L 387.00 1013.00 L 377.00 997.00 L 375.00 979.00 L 377.00 961.00 L 383.00 943.00 L 379.00 923.00 L 365.00 901.00 L 360.00 882.00 L 364.00 866.00 L 356.00 849.00 L 336.00 831.00 L 336.00 829.00 L 356.00 843.00 L 352.00 838.00 L 324.00 814.00 L 324.00 812.00 L 352.00 832.00 L 352.00 830.00 L 324.00 806.00 L 322.00 803.00 L 346.00 821.00 L 347.00 819.00 L 325.00 797.00 L 337.00 758.00 L 383.00 702.00 L 408.00 663.00 L 412.00 641.00 L 421.00 617.00 L 435.00 591.00 L 434.00 556.00 L 418.00 512.00 L 419.00 510.00 L 437.00 550.00 L 436.00 547.00 L 416.00 501.00 L 405.00 475.00 L 403.00 469.00 L 408.00 478.00 L 420.00 502.00 L 421.00 501.00 L 411.00 475.00 L 417.00 487.00 L 439.00 537.00 L 439.00 534.00 L 417.00 478.00 L 418.00 477.00 L 442.00 531.00 L 444.00 529.00 L 424.00 471.00 L 425.00 469.00 L 447.00 523.00 L 448.00 520.00 L 428.00 460.00 L 429.00 458.00 L 451.00 514.00 L 453.00 512.00 L 435.00 452.00 L 431.00 419.00 L 441.00 413.00 L 455.00 411.00 L 473.00 413.00 L 485.00 421.00 L 491.00 435.00 L 493.00 436.00 L 491.00 424.00 L 493.00 423.00 L 499.00 433.00 L 510.00 429.00 L 526.00 411.00 L 547.00 396.00 L 573.00 384.00 L 612.00 376.00 L 664.00 372.00 L 710.00 372.00 L 750.00 376.00 L 788.00 382.00 L 824.00 390.00 L 851.00 398.00 L 869.00 406.00 L 886.00 417.00 L 902.00 431.00 L 912.00 443.00 L 916.00 453.00 L 925.00 462.00 L 939.00 470.00 L 955.00 484.00 L 973.00 504.00 L 985.00 521.00 L 991.00 535.00 L 996.00 556.00 L 1000.00 584.00 L 1009.00 606.00 L 1023.00 622.00 L 1033.00 643.00 L 1039.00 669.00 L 1042.00 695.00 L 1042.00 721.00 L 1035.00 758.00 L 1021.00 806.00 L 990.00 848.00 L 942.00 884.00 L 939.00 890.00 L 981.00 866.00 L 980.00 869.00 L 936.00 899.00 L 930.00 905.00 L 962.00 887.00 L 961.00 889.00 L 927.00 911.00 L 900.00 934.00 L 880.00 958.00 L 868.00 976.00 L 864.00 988.00 L 872.00 993.00 L 892.00 991.00 L 893.00 993.00 L 875.00 999.00 L 877.00 1000.00 L 899.00 996.00 L 901.00 997.00 L 883.00 1003.00 L 889.00 1004.00 L 919.00 1000.00 L 937.00 1001.00 L 943.00 1007.00 L 947.00 1017.00 L 949.00 1031.00 L 947.00 1052.00 L 941.00 1080.00 L 946.00 1111.00 L 962.00 1145.00 L 971.00 1172.00 L 973.00 1192.00 L 981.00 1207.00 L 995.00 1217.00 L 1019.00 1251.00 L 1053.00 1309.00 L 1070.00 1355.00 L 1070.00 1389.00 L 1062.00 1412.00 L 1046.00 1424.00 L 1041.00 1447.00 L 1047.00 1481.00 L 1048.00 1500.00 L 1044.00 1504.00 L 1002.00 1506.00 L 922.00 1506.00 L 844.00 1516.00 L 768.00 1536.00 L 690.00 1570.00 L 610.00 1618.00 L 527.00 1676.00 L 441.00 1744.00 L 388.00 1779.00 L 368.00 1781.00 L 352.00 1779.00 L 340.00 1773.00 L 325.00 1760.00 L 307.00 1740.00 L 296.00 1724.00 L 292.00 1712.00 L 292.00 1681.00 L 296.00 1631.00 L 304.00 1591.00 L 316.00 1561.00 L 321.00 1547.00 L 319.00 1549.00 L 328.00 1534.00 L 348.00 1502.00 L 351.00 1496.00 L 337.00 1516.00 L 340.00 1511.00 L 360.00 1481.00 L 370.00 1461.00 L 370.00 1451.00 L 379.00 1424.00 L 397.00 1380.00 L 405.00 1359.00 L 403.00 1361.00 L 414.00 1347.00 L 438.00 1317.00 L 443.00 1310.00 L 429.00 1326.00 L 430.00 1323.00 L 446.00 1301.00 L 453.00 1291.00 L 451.00 1293.00 L 455.00 1281.00 L 465.00 1255.00 L 479.00 1230.00 L 497.00 1206.00 L 506.00 1187.00 L 506.00 1173.00 L 503.00 1157.00 L 497.00 1139.00 L 495.00 1113.00 L 497.00 1079.00 L 497.00 1060.00 L 495.00 1056.00 L 474.00 1049.00 Z" fill="black" stroke="black" stroke-width="1"/>
</svg>