<?xml version="1.0" encoding="UTF-8"?>
<svg xmlns="http://www.w3.org/2000/svg" viewBox="265.00 162.00 1113.00 1654.00">
  <path d="M 476.00 935.00 L 472.00 913.00 L 477.00 890.00 L 491.00 866.00 L 488.00 844.00 L 468.00 824.00 L 462.00 807.00 L 470.00 793.00 L 472.00 784.00 L 468.00 780.00 L 468.00 764.00 L 472.00 736.00 L 459.00 710.00 L 429.00 686.00 L 429.00 683.00 L 459.00 701.00 L 458.00 698.00 L 426.00 674.00 L 421.00 669.00 L 443.00 683.00 L 442.00 681.00 L 418.00 663.00 L 422.00 664.00 L 454.00 684.00 L 454.00 681.00 L 422.00 655.00 L 413.00 630.00 L 427.00 606.00 L 462.00 570.00 L 518.00 522.00 L 548.00 490.00 L 552.00 474.00 L 550.00 455.00 L 542.00 433.00 L 559.00 390.00 L 601.00 326.00 L 640.00 280.00 L 676.00 252.00 L 693.00 230.00 L 691.00 214.00 L 693.00 213.00 L 699.00 227.00 L 702.00 225.00 L 702.00 207.00 L 704.00 206.00 L 708.00 222.00 L 710.00 221.00 L 710.00 203.00 L 713.00 202.00 L 719.00 218.00 L 722.00 217.00 L 722.00 199.00 L 725.00 198.00 L 731.00 214.00 L 735.00 213.00 L 737.00 195.00 L 740.00 193.00 L 744.00 207.00 L 746.00 207.00 L 746.00 193.00 L 748.00 192.00 L 752.00 204.00 L 757.00 205.00 L 763.00 195.00 L 776.00 192.00 L 796.00 196.00 L 836.00 191.00 L 896.00 177.00 L 959.00 172.00 L 1025.00 176.00 L 1080.00 187.00 L 1124.00 205.00 L 1161.00 228.00 L 1191.00 256.00 L 1213.00 266.00 L 1227.00 258.00 L 1243.00 255.00 L 1261.00 257.00 L 1275.00 264.00 L 1285.00 276.00 L 1279.00 301.00 L 1257.00 339.00 L 1259.00 340.00 L 1285.00 304.00 L 1285.00 305.00 L 1259.00 343.00 L 1260.00 345.00 L 1288.00 311.00 L 1289.00 313.00 L 1263.00 351.00 L 1263.00 354.00 L 1289.00 322.00 L 1290.00 325.00 L 1266.00 363.00 L 1266.00 366.00 L 1290.00 334.00 L 1294.00 329.00 L 1278.00 351.00 L 1279.00 353.00 L 1297.00 335.00 L 1300.00 334.00 L 1288.00 350.00 L 1286.00 354.00 L 1294.00 346.00 L 1288.00 355.00 L 1268.00 381.00 L 1269.00 380.00 L 1291.00 352.00 L 1292.00 355.00 L 1272.00 389.00 L 1265.00 420.00 L 1271.00 448.00 L 1272.00 493.00 L 1268.00 555.00 L 1260.00 603.00 L 1248.00 637.00 L 1227.00 676.00 L 1197.00 720.00 L 1182.00 752.00 L 1182.00 772.00 L 1187.00 791.00 L 1197.00 809.00 L 1206.00 842.00 L 1214.00 890.00 L 1203.00 917.00 L 1173.00 923.00 L 1173.00 925.00 L 1203.00 923.00 L 1205.00 924.00 L 1179.00 928.00 L 1179.00 931.00 L 1205.00 933.00 L 1206.00 936.00 L 1182.00 940.00 L 1181.00 943.00 L 1203.00 945.00 L 1204.00 947.00 L 1184.00 949.00 L 1180.00 952.00 L 1192.00 956.00 L 1193.00 959.00 L 1183.00 961.00 L 1180.00 972.00 L 1184.00 992.00 L 1197.00 1016.00 L 1219.00 1044.00 L 1255.00 1123.00 L 1305.00 1253.00 L 1337.00 1329.00 L 1351.00 1351.00 L 1361.00 1371.00 L 1367.00 1389.00 L 1368.00 1400.00 L 1364.00 1404.00 L 1321.00 1408.00 L 1239.00 1412.00 L 1153.00 1425.00 L 1063.00 1447.00 L 943.00 1493.00 L 793.00 1563.00 L 662.00 1641.00 L 550.00 1727.00 L 476.00 1780.00 L 440.00 1800.00 L 397.00 1806.00 L 347.00 1798.00 L 315.00 1788.00 L 301.00 1776.00 L 290.00 1760.00 L 282.00 1740.00 L 277.00 1712.00 L 275.00 1676.00 L 277.00 1644.00 L 283.00 1616.00 L 369.00 1501.00 L 535.00 1299.00 L 536.00 1297.00 L 372.00 1495.00 L 370.00 1497.00 L 530.00 1303.00 L 531.00 1300.00 L 373.00 1488.00 L 376.00 1484.00 L 540.00 1288.00 L 541.00 1285.00 L 379.00 1475.00 L 371.00 1483.00 L 517.00 1309.00 L 520.00 1303.00 L 380.00 1465.00 L 377.00 1468.00 L 511.00 1312.00 L 512.00 1310.00 L 380.00 1462.00 L 375.00 1467.00 L 497.00 1325.00 L 500.00 1320.00 L 384.00 1452.00 L 381.00 1455.00 L 491.00 1329.00 L 492.00 1327.00 L 384.00 1449.00 L 356.00 1479.00 L 408.00 1417.00 L 410.00 1413.00 L 362.00 1467.00 L 360.00 1469.00 L 404.00 1419.00 L 408.00 1414.00 L 372.00 1454.00 L 370.00 1456.00 L 402.00 1420.00 L 406.00 1415.00 L 382.00 1441.00 L 432.00 1385.00 L 556.00 1247.00 L 554.00 1249.00 L 426.00 1391.00 L 428.00 1385.00 L 560.00 1231.00 L 620.00 1141.00 L 608.00 1115.00 L 604.00 1095.00 L 608.00 1081.00 L 579.00 1045.00 L 517.00 987.00 L 484.00 955.00 L 480.00 949.00 L 476.00 935.00 Z" fill="black" stroke="black" stroke-width="1"/>
</svg>