<?xml version="1.0" encoding="UTF-8"?>
<svg xmlns="http://www.w3.org/2000/svg" viewBox="325.00 325.00 930.00 1327.00">
  <path d="M 434.00 1000.00 L 426.00 980.00 L 423.00 965.00 L 425.00 955.00 L 422.00 944.00 L 414.00 932.00 L 412.00 907.00 L 416.00 869.00 L 415.00 846.00 L 409.00 838.00 L 400.00 831.00 L 388.00 825.00 L 387.00 824.00 L 397.00 828.00 L 391.00 823.00 L 369.00 809.00 L 356.00 799.00 L 352.00 793.00 L 350.00 787.00 L 350.00 781.00 L 351.00 775.00 L 353.00 769.00 L 369.00 749.00 L 399.00 715.00 L 426.00 687.00 L 450.00 665.00 L 466.00 647.00 L 474.00 633.00 L 479.00 621.00 L 481.00 611.00 L 481.00 597.00 L 479.00 579.00 L 486.00 556.00 L 502.00 528.00 L 520.00 502.00 L 540.00 478.00 L 567.00 451.00 L 601.00 421.00 L 627.00 401.00 L 645.00 391.00 L 668.00 381.00 L 696.00 371.00 L 715.00 363.00 L 725.00 357.00 L 730.00 352.00 L 730.00 348.00 L 736.00 344.00 L 748.00 340.00 L 767.00 338.00 L 793.00 338.00 L 807.00 337.00 L 809.00 335.00 L 827.00 335.00 L 861.00 337.00 L 892.00 341.00 L 920.00 347.00 L 962.00 360.00 L 1018.00 380.00 L 1052.00 391.00 L 1064.00 393.00 L 1085.00 403.00 L 1115.00 421.00 L 1144.00 443.00 L 1172.00 469.00 L 1190.00 488.00 L 1198.00 500.00 L 1209.00 522.00 L 1223.00 554.00 L 1233.00 588.00 L 1239.00 624.00 L 1242.00 656.00 L 1242.00 684.00 L 1243.00 700.00 L 1245.00 704.00 L 1244.00 724.00 L 1240.00 760.00 L 1226.00 825.00 L 1202.00 919.00 L 1190.00 970.00 L 1190.00 978.00 L 1193.00 991.00 L 1199.00 1009.00 L 1202.00 1026.00 L 1202.00 1042.00 L 1194.00 1050.00 L 1178.00 1050.00 L 1178.00 1052.00 L 1194.00 1056.00 L 1194.00 1058.00 L 1178.00 1058.00 L 1176.00 1060.00 L 1188.00 1064.00 L 1188.00 1067.00 L 1176.00 1069.00 L 1170.00 1074.00 L 1170.00 1082.00 L 1182.00 1126.00 L 1206.00 1206.00 L 1218.00 1248.00 L 1218.00 1252.00 L 1214.00 1257.00 L 1206.00 1263.00 L 1202.00 1272.00 L 1202.00 1284.00 L 1205.00 1294.00 L 1211.00 1302.00 L 1215.00 1314.00 L 1217.00 1330.00 L 1222.00 1345.00 L 1230.00 1359.00 L 1234.00 1370.00 L 1234.00 1378.00 L 1236.00 1387.00 L 1240.00 1397.00 L 1242.00 1410.00 L 1242.00 1426.00 L 1237.00 1442.00 L 1227.00 1458.00 L 1213.00 1470.00 L 1195.00 1478.00 L 1171.00 1485.00 L 1141.00 1491.00 L 1076.00 1493.00 L 976.00 1491.00 L 903.00 1492.00 L 857.00 1496.00 L 801.00 1503.00 L 735.00 1513.00 L 680.00 1526.00 L 636.00 1542.00 L 611.00 1550.00 L 605.00 1550.00 L 599.00 1553.00 L 593.00 1559.00 L 583.00 1565.00 L 569.00 1571.00 L 550.00 1582.00 L 526.00 1598.00 L 501.00 1612.00 L 475.00 1624.00 L 452.00 1633.00 L 432.00 1639.00 L 412.00 1642.00 L 392.00 1642.00 L 376.00 1639.00 L 364.00 1633.00 L 354.00 1626.00 L 346.00 1618.00 L 340.00 1609.00 L 336.00 1599.00 L 335.00 1585.00 L 337.00 1567.00 L 337.00 1559.00 L 335.00 1561.00 L 340.00 1547.00 L 352.00 1517.00 L 371.00 1486.00 L 397.00 1454.00 L 399.00 1450.00 L 377.00 1474.00 L 382.00 1467.00 L 414.00 1429.00 L 427.00 1413.00 L 421.00 1419.00 L 423.00 1416.00 L 433.00 1404.00 L 437.00 1399.00 L 435.00 1401.00 L 439.00 1392.00 L 449.00 1372.00 L 472.00 1342.00 L 508.00 1302.00 L 509.00 1299.00 L 475.00 1333.00 L 476.00 1331.00 L 512.00 1293.00 L 515.00 1289.00 L 485.00 1319.00 L 488.00 1315.00 L 524.00 1277.00 L 525.00 1275.00 L 491.00 1309.00 L 493.00 1305.00 L 531.00 1263.00 L 549.00 1230.00 L 547.00 1206.00 L 546.00 1192.00 L 546.00 1188.00 L 548.00 1184.00 L 552.00 1180.00 L 553.00 1176.00 L 551.00 1172.00 L 544.00 1168.00 L 532.00 1164.00 L 510.00 1151.00 L 478.00 1129.00 L 457.00 1112.00 L 447.00 1100.00 L 441.00 1091.00 L 439.00 1085.00 L 438.00 1076.00 L 438.00 1064.00 L 440.00 1052.00 L 444.00 1040.00 L 445.00 1030.00 L 443.00 1022.00 L 441.00 1016.00 L 439.00 1012.00 L 434.00 1000.00 Z" fill="black" stroke="black" stroke-width="1"/>
</svg>