<?xml version="1.0" encoding="UTF-8"?>
<svg xmlns="http://www.w3.org/2000/svg" viewBox="263.00 231.00 989.00 1635.00">
  <path d="M 470.00 980.00 L 462.00 944.00 L 462.00 920.00 L 470.00 908.00 L 472.00 883.00 L 468.00 845.00 L 455.00 818.00 L 433.00 802.00 L 433.00 800.00 L 455.00 812.00 L 450.00 802.00 L 418.00 770.00 L 423.00 727.00 L 465.00 673.00 L 489.00 613.00 L 495.00 547.00 L 508.00 492.00 L 528.00 448.00 L 555.00 407.00 L 589.00 369.00 L 604.00 336.00 L 600.00 308.00 L 602.00 307.00 L 610.00 333.00 L 612.00 328.00 L 608.00 292.00 L 611.00 289.00 L 621.00 319.00 L 622.00 316.00 L 614.00 280.00 L 617.00 255.00 L 631.00 241.00 L 645.00 247.00 L 659.00 273.00 L 664.00 272.00 L 660.00 244.00 L 662.00 245.00 L 670.00 275.00 L 673.00 274.00 L 671.00 242.00 L 674.00 241.00 L 682.00 271.00 L 685.00 272.00 L 683.00 244.00 L 684.00 243.00 L 688.00 269.00 L 690.00 270.00 L 690.00 246.00 L 692.00 245.00 L 696.00 267.00 L 698.00 269.00 L 698.00 251.00 L 701.00 251.00 L 707.00 269.00 L 725.00 270.00 L 755.00 254.00 L 819.00 247.00 L 917.00 249.00 L 991.00 258.00 L 1041.00 274.00 L 1086.00 296.00 L 1126.00 324.00 L 1150.00 334.00 L 1158.00 326.00 L 1161.00 327.00 L 1159.00 337.00 L 1162.00 335.00 L 1170.00 321.00 L 1171.00 322.00 L 1165.00 338.00 L 1169.00 338.00 L 1183.00 322.00 L 1200.00 320.00 L 1220.00 332.00 L 1232.00 343.00 L 1236.00 353.00 L 1231.00 369.00 L 1217.00 391.00 L 1218.00 393.00 L 1234.00 375.00 L 1235.00 377.00 L 1221.00 399.00 L 1221.00 402.00 L 1235.00 386.00 L 1236.00 388.00 L 1224.00 408.00 L 1226.00 457.00 L 1242.00 535.00 L 1230.00 640.00 L 1190.00 772.00 L 1170.00 871.00 L 1170.00 937.00 L 1175.00 993.00 L 1185.00 1039.00 L 1188.00 1069.00 L 1184.00 1083.00 L 1160.00 1086.00 L 1116.00 1078.00 L 1115.00 1081.00 L 1157.00 1095.00 L 1157.00 1099.00 L 1115.00 1093.00 L 1114.00 1099.00 L 1154.00 1117.00 L 1154.00 1120.00 L 1114.00 1108.00 L 1117.00 1110.00 L 1163.00 1126.00 L 1166.00 1129.00 L 1126.00 1119.00 L 1129.00 1122.00 L 1175.00 1138.00 L 1172.00 1138.00 L 1120.00 1122.00 L 1120.00 1125.00 L 1172.00 1147.00 L 1173.00 1151.00 L 1123.00 1137.00 L 1122.00 1140.00 L 1170.00 1160.00 L 1171.00 1161.00 L 1125.00 1143.00 L 1124.00 1145.00 L 1168.00 1167.00 L 1170.00 1170.00 L 1130.00 1154.00 L 1129.00 1155.00 L 1167.00 1173.00 L 1170.00 1177.00 L 1138.00 1167.00 L 1135.00 1168.00 L 1161.00 1180.00 L 1163.00 1183.00 L 1141.00 1177.00 L 1145.00 1200.00 L 1175.00 1252.00 L 1198.00 1310.00 L 1214.00 1374.00 L 1174.00 1409.00 L 1078.00 1415.00 L 985.00 1433.00 L 895.00 1463.00 L 806.00 1508.00 L 718.00 1568.00 L 625.00 1648.00 L 527.00 1748.00 L 458.00 1811.00 L 418.00 1837.00 L 387.00 1852.00 L 365.00 1856.00 L 336.00 1843.00 L 300.00 1813.00 L 279.00 1782.00 L 273.00 1750.00 L 359.00 1607.00 L 537.00 1353.00 L 536.00 1350.00 L 356.00 1598.00 L 353.00 1601.00 L 527.00 1359.00 L 527.00 1357.00 L 353.00 1595.00 L 331.00 1623.00 L 461.00 1441.00 L 461.00 1436.00 L 331.00 1608.00 L 350.00 1582.00 L 518.00 1358.00 L 518.00 1353.00 L 350.00 1567.00 L 355.00 1559.00 L 533.00 1329.00 L 533.00 1326.00 L 355.00 1550.00 L 317.00 1597.00 L 419.00 1467.00 L 420.00 1464.00 L 320.00 1588.00 L 318.00 1589.00 L 414.00 1467.00 L 414.00 1464.00 L 318.00 1580.00 L 316.00 1581.00 L 408.00 1467.00 L 409.00 1464.00 L 319.00 1572.00 L 361.00 1520.00 L 535.00 1308.00 L 535.00 1306.00 L 361.00 1514.00 L 314.00 1569.00 L 394.00 1471.00 L 395.00 1468.00 L 317.00 1560.00 L 313.00 1563.00 L 383.00 1477.00 L 385.00 1472.00 L 319.00 1548.00 L 317.00 1549.00 L 379.00 1475.00 L 380.00 1472.00 L 320.00 1540.00 L 317.00 1542.00 L 371.00 1478.00 L 373.00 1474.00 L 323.00 1530.00 L 319.00 1533.00 L 361.00 1483.00 L 366.00 1476.00 L 334.00 1512.00 L 331.00 1515.00 L 357.00 1485.00 L 359.00 1482.00 L 337.00 1506.00 L 334.00 1509.00 L 350.00 1491.00 L 351.00 1489.00 L 337.00 1503.00 L 334.00 1504.00 L 342.00 1492.00 L 413.00 1412.00 L 547.00 1264.00 L 609.00 1176.00 L 599.00 1148.00 L 582.00 1131.00 L 558.00 1125.00 L 531.00 1108.00 L 501.00 1080.00 L 482.00 1052.00 L 474.00 1024.00 L 471.00 1007.00 L 473.00 1001.00 L 470.00 980.00 Z" fill="black" stroke="black" stroke-width="1"/>
</svg>