<?xml version="1.0" encoding="UTF-8"?>
<svg xmlns="http://www.w3.org/2000/svg" viewBox="338.00 244.00 912.00 1513.00">
  <path d="M 451.00 987.00 L 437.00 957.00 L 432.00 926.00 L 436.00 894.00 L 425.00 865.00 L 399.00 839.00 L 405.00 805.00 L 443.00 763.00 L 424.00 707.00 L 348.00 637.00 L 351.00 635.00 L 433.00 701.00 L 436.00 697.00 L 360.00 623.00 L 362.00 621.00 L 442.00 691.00 L 448.00 689.00 L 380.00 615.00 L 382.00 612.00 L 454.00 680.00 L 459.00 680.00 L 397.00 612.00 L 398.00 609.00 L 462.00 671.00 L 466.00 670.00 L 410.00 606.00 L 409.00 604.00 L 463.00 664.00 L 466.00 664.00 L 418.00 604.00 L 416.00 599.00 L 460.00 649.00 L 463.00 648.00 L 425.00 596.00 L 426.00 591.00 L 466.00 633.00 L 472.00 633.00 L 444.00 591.00 L 446.00 588.00 L 478.00 624.00 L 481.00 624.00 L 455.00 588.00 L 458.00 569.00 L 490.00 567.00 L 532.00 527.00 L 584.00 449.00 L 644.00 370.00 L 712.00 290.00 L 761.00 254.00 L 791.00 262.00 L 913.00 330.00 L 1127.00 458.00 L 1236.00 532.00 L 1240.00 552.00 L 1202.00 638.00 L 1122.00 790.00 L 1090.00 893.00 L 1106.00 947.00 L 1094.00 977.00 L 1054.00 983.00 L 1055.00 986.00 L 1097.00 986.00 L 1099.00 988.00 L 1061.00 992.00 L 1062.00 995.00 L 1102.00 997.00 L 1100.00 999.00 L 1056.00 1001.00 L 1057.00 1005.00 L 1103.00 1011.00 L 1103.00 1014.00 L 1057.00 1014.00 L 1057.00 1017.00 L 1103.00 1023.00 L 1102.00 1027.00 L 1054.00 1029.00 L 1054.00 1032.00 L 1102.00 1036.00 L 1110.00 1038.00 L 1078.00 1038.00 L 1079.00 1042.00 L 1113.00 1050.00 L 1105.00 1051.00 L 1055.00 1045.00 L 1055.00 1048.00 L 1105.00 1060.00 L 1104.00 1064.00 L 1052.00 1060.00 L 1051.00 1065.00 L 1101.00 1079.00 L 1100.00 1081.00 L 1048.00 1071.00 L 1048.00 1073.00 L 1100.00 1087.00 L 1114.00 1092.00 L 1090.00 1088.00 L 1089.00 1091.00 L 1111.00 1101.00 L 1096.00 1099.00 L 1044.00 1085.00 L 1043.00 1088.00 L 1093.00 1108.00 L 1093.00 1112.00 L 1043.00 1100.00 L 1039.00 1103.00 L 1081.00 1121.00 L 1081.00 1124.00 L 1039.00 1112.00 L 1018.00 1110.00 L 1018.00 1118.00 L 1011.00 1120.00 L 997.00 1116.00 L 996.00 1118.00 L 1008.00 1126.00 L 1008.00 1129.00 L 996.00 1127.00 L 994.00 1167.00 L 1002.00 1249.00 L 1034.00 1335.00 L 1090.00 1425.00 L 1097.00 1443.00 L 1055.00 1389.00 L 1057.00 1393.00 L 1103.00 1455.00 L 1106.00 1460.00 L 1066.00 1408.00 L 1067.00 1410.00 L 1109.00 1466.00 L 1107.00 1464.00 L 1061.00 1404.00 L 1063.00 1411.00 L 1113.00 1485.00 L 1103.00 1521.00 L 1033.00 1519.00 L 959.00 1526.00 L 881.00 1542.00 L 799.00 1569.00 L 713.00 1607.00 L 632.00 1653.00 L 556.00 1707.00 L 508.00 1738.00 L 488.00 1746.00 L 465.00 1747.00 L 439.00 1741.00 L 417.00 1721.00 L 399.00 1687.00 L 393.00 1652.00 L 399.00 1616.00 L 426.00 1555.00 L 474.00 1469.00 L 479.00 1455.00 L 441.00 1513.00 L 441.00 1511.00 L 479.00 1449.00 L 482.00 1442.00 L 450.00 1490.00 L 460.00 1464.00 L 512.00 1364.00 L 534.00 1306.00 L 526.00 1290.00 L 525.00 1278.00 L 531.00 1270.00 L 527.00 1273.00 L 513.00 1287.00 L 513.00 1283.00 L 527.00 1261.00 L 524.00 1260.00 L 504.00 1280.00 L 503.00 1278.00 L 521.00 1254.00 L 519.00 1252.00 L 497.00 1272.00 L 498.00 1270.00 L 522.00 1246.00 L 524.00 1243.00 L 504.00 1261.00 L 504.00 1258.00 L 524.00 1234.00 L 530.00 1210.00 L 522.00 1186.00 L 524.00 1168.00 L 536.00 1156.00 L 535.00 1154.00 L 521.00 1162.00 L 522.00 1160.00 L 538.00 1148.00 L 539.00 1146.00 L 525.00 1154.00 L 523.00 1153.00 L 533.00 1143.00 L 522.00 1127.00 L 490.00 1105.00 L 473.00 1073.00 L 471.00 1031.00 L 467.00 1008.00 L 461.00 1004.00 L 451.00 987.00 Z" fill="black" stroke="black" stroke-width="1"/>
</svg>