<?xml version="1.0" encoding="UTF-8"?>
<svg xmlns="http://www.w3.org/2000/svg" viewBox="388.00 185.00 967.00 1587.00">
  <path d="M 513.00 938.00 L 511.00 922.00 L 500.00 909.00 L 480.00 899.00 L 468.00 888.00 L 464.00 876.00 L 479.00 850.00 L 513.00 810.00 L 533.00 784.00 L 539.00 772.00 L 540.00 755.00 L 536.00 733.00 L 536.00 718.00 L 540.00 710.00 L 507.00 674.00 L 437.00 610.00 L 404.00 579.00 L 408.00 581.00 L 406.00 578.00 L 398.00 570.00 L 400.00 571.00 L 412.00 581.00 L 412.00 579.00 L 400.00 565.00 L 432.00 593.00 L 508.00 663.00 L 509.00 661.00 L 435.00 587.00 L 435.00 585.00 L 509.00 655.00 L 511.00 653.00 L 441.00 579.00 L 442.00 577.00 L 514.00 647.00 L 517.00 646.00 L 451.00 574.00 L 449.00 568.00 L 511.00 628.00 L 514.00 627.00 L 458.00 565.00 L 462.00 568.00 L 526.00 636.00 L 529.00 636.00 L 471.00 568.00 L 472.00 567.00 L 532.00 633.00 L 535.00 632.00 L 481.00 564.00 L 482.00 562.00 L 538.00 626.00 L 540.00 626.00 L 488.00 562.00 L 487.00 558.00 L 537.00 614.00 L 539.00 614.00 L 493.00 558.00 L 495.00 560.00 L 545.00 620.00 L 547.00 620.00 L 501.00 560.00 L 502.00 558.00 L 550.00 614.00 L 553.00 614.00 L 511.00 558.00 L 510.00 555.00 L 550.00 605.00 L 552.00 605.00 L 516.00 555.00 L 519.00 555.00 L 561.00 605.00 L 564.00 604.00 L 528.00 552.00 L 528.00 549.00 L 564.00 595.00 L 568.00 595.00 L 540.00 549.00 L 542.00 549.00 L 574.00 595.00 L 576.00 595.00 L 548.00 549.00 L 554.00 526.00 L 594.00 526.00 L 617.00 524.00 L 623.00 520.00 L 674.00 448.00 L 770.00 308.00 L 831.00 228.00 L 857.00 208.00 L 875.00 197.00 L 885.00 195.00 L 905.00 202.00 L 935.00 218.00 L 986.00 252.00 L 1058.00 304.00 L 1129.00 352.00 L 1199.00 396.00 L 1247.00 428.00 L 1273.00 448.00 L 1300.00 474.00 L 1328.00 506.00 L 1343.00 524.00 L 1345.00 528.00 L 1308.00 593.00 L 1232.00 719.00 L 1174.00 808.00 L 1134.00 860.00 L 1127.00 911.00 L 1153.00 961.00 L 1149.00 985.00 L 1115.00 983.00 L 1116.00 985.00 L 1152.00 991.00 L 1153.00 993.00 L 1119.00 991.00 L 1121.00 993.00 L 1159.00 999.00 L 1179.00 1003.00 L 1181.00 1005.00 L 1167.00 1005.00 L 1137.00 1003.00 L 1138.00 1005.00 L 1170.00 1011.00 L 1165.00 1011.00 L 1123.00 1005.00 L 1125.00 1007.00 L 1171.00 1017.00 L 1172.00 1019.00 L 1128.00 1013.00 L 1129.00 1016.00 L 1175.00 1028.00 L 1175.00 1031.00 L 1129.00 1025.00 L 1131.00 1029.00 L 1181.00 1043.00 L 1193.00 1047.00 L 1167.00 1041.00 L 1167.00 1043.00 L 1193.00 1053.00 L 1182.00 1052.00 L 1134.00 1040.00 L 1132.00 1042.00 L 1176.00 1058.00 L 1176.00 1060.00 L 1132.00 1048.00 L 1130.00 1048.00 L 1170.00 1060.00 L 1171.00 1063.00 L 1133.00 1057.00 L 1116.00 1062.00 L 1120.00 1078.00 L 1120.00 1097.00 L 1116.00 1119.00 L 1126.00 1165.00 L 1150.00 1235.00 L 1173.00 1291.00 L 1195.00 1333.00 L 1201.00 1358.00 L 1191.00 1366.00 L 1168.00 1372.00 L 1132.00 1376.00 L 1090.00 1384.00 L 1042.00 1396.00 L 999.00 1411.00 L 961.00 1429.00 L 915.00 1459.00 L 861.00 1501.00 L 786.00 1576.00 L 690.00 1684.00 L 630.00 1744.00 L 606.00 1756.00 L 586.00 1762.00 L 570.00 1762.00 L 551.00 1757.00 L 529.00 1747.00 L 512.00 1735.00 L 500.00 1721.00 L 491.00 1706.00 L 485.00 1690.00 L 482.00 1672.00 L 482.00 1652.00 L 486.00 1621.00 L 494.00 1579.00 L 504.00 1543.00 L 516.00 1513.00 L 521.00 1499.00 L 519.00 1501.00 L 530.00 1479.00 L 554.00 1433.00 L 559.00 1422.00 L 545.00 1446.00 L 546.00 1443.00 L 562.00 1413.00 L 563.00 1410.00 L 549.00 1434.00 L 549.00 1432.00 L 563.00 1404.00 L 572.00 1371.00 L 576.00 1333.00 L 585.00 1302.00 L 599.00 1278.00 L 601.00 1273.00 L 591.00 1287.00 L 591.00 1285.00 L 601.00 1267.00 L 606.00 1247.00 L 606.00 1225.00 L 605.00 1215.00 L 603.00 1217.00 L 601.00 1209.00 L 599.00 1191.00 L 595.00 1177.00 L 589.00 1167.00 L 589.00 1157.00 L 595.00 1147.00 L 594.00 1141.00 L 586.00 1139.00 L 574.00 1131.00 L 558.00 1117.00 L 549.00 1099.00 L 547.00 1077.00 L 548.00 1061.00 L 552.00 1051.00 L 545.00 1037.00 L 527.00 1019.00 L 520.00 1005.00 L 524.00 995.00 L 522.00 987.00 L 514.00 981.00 L 510.00 973.00 L 510.00 963.00 L 511.00 955.00 L 513.00 949.00 L 513.00 938.00 Z" fill="black" stroke="black" stroke-width="1"/>
</svg>