<?xml version="1.0" encoding="UTF-8"?>
<svg xmlns="http://www.w3.org/2000/svg" viewBox="385.00 230.00 899.00 1450.00">
  <path d="M 488.00 927.00 L 492.00 897.00 L 489.00 875.00 L 479.00 861.00 L 477.00 850.00 L 483.00 842.00 L 484.00 832.00 L 480.00 820.00 L 481.00 804.00 L 487.00 784.00 L 479.00 766.00 L 457.00 750.00 L 457.00 748.00 L 479.00 760.00 L 477.00 757.00 L 451.00 739.00 L 438.00 725.00 L 438.00 715.00 L 457.00 689.00 L 495.00 647.00 L 518.00 619.00 L 526.00 605.00 L 526.00 583.00 L 518.00 553.00 L 519.00 520.00 L 529.00 484.00 L 544.00 449.00 L 564.00 415.00 L 572.00 391.00 L 568.00 377.00 L 571.00 374.00 L 581.00 382.00 L 584.00 380.00 L 580.00 368.00 L 581.00 367.00 L 587.00 377.00 L 588.00 375.00 L 584.00 361.00 L 585.00 359.00 L 591.00 369.00 L 594.00 366.00 L 594.00 350.00 L 597.00 347.00 L 603.00 357.00 L 606.00 354.00 L 606.00 338.00 L 615.00 328.00 L 633.00 324.00 L 647.00 317.00 L 657.00 307.00 L 670.00 300.00 L 686.00 296.00 L 704.00 288.00 L 724.00 276.00 L 748.00 267.00 L 776.00 261.00 L 794.00 255.00 L 802.00 249.00 L 827.00 244.00 L 869.00 240.00 L 907.00 243.00 L 941.00 253.00 L 968.00 258.00 L 988.00 258.00 L 1027.00 274.00 L 1085.00 306.00 L 1128.00 335.00 L 1156.00 361.00 L 1177.00 387.00 L 1191.00 413.00 L 1203.00 431.00 L 1213.00 441.00 L 1222.00 456.00 L 1230.00 476.00 L 1236.00 499.00 L 1240.00 525.00 L 1241.00 568.00 L 1239.00 628.00 L 1228.00 686.00 L 1208.00 742.00 L 1193.00 778.00 L 1183.00 794.00 L 1167.00 815.00 L 1145.00 841.00 L 1124.00 858.00 L 1104.00 866.00 L 1101.00 869.00 L 1115.00 867.00 L 1118.00 868.00 L 1110.00 872.00 L 1105.00 879.00 L 1103.00 889.00 L 1105.00 909.00 L 1111.00 939.00 L 1119.00 965.00 L 1129.00 987.00 L 1134.00 1008.00 L 1134.00 1028.00 L 1142.00 1051.00 L 1158.00 1077.00 L 1176.00 1116.00 L 1196.00 1168.00 L 1212.00 1202.00 L 1224.00 1218.00 L 1238.00 1243.00 L 1254.00 1277.00 L 1265.00 1308.00 L 1271.00 1336.00 L 1274.00 1353.00 L 1274.00 1359.00 L 1271.00 1363.00 L 1265.00 1365.00 L 1263.00 1367.00 L 1265.00 1369.00 L 1260.00 1368.00 L 1248.00 1364.00 L 1211.00 1361.00 L 1149.00 1359.00 L 1115.00 1360.00 L 1109.00 1364.00 L 1076.00 1370.00 L 1016.00 1378.00 L 970.00 1387.00 L 938.00 1397.00 L 897.00 1412.00 L 847.00 1432.00 L 807.00 1451.00 L 777.00 1469.00 L 741.00 1493.00 L 699.00 1523.00 L 665.00 1551.00 L 639.00 1577.00 L 605.00 1606.00 L 563.00 1638.00 L 526.00 1659.00 L 494.00 1669.00 L 466.00 1670.00 L 442.00 1662.00 L 425.00 1653.00 L 415.00 1643.00 L 406.00 1629.00 L 398.00 1611.00 L 395.00 1590.00 L 397.00 1566.00 L 411.00 1515.00 L 437.00 1437.00 L 469.00 1367.00 L 507.00 1305.00 L 525.00 1275.00 L 523.00 1277.00 L 525.00 1261.00 L 531.00 1227.00 L 532.00 1210.00 L 528.00 1210.00 L 528.00 1208.00 L 532.00 1204.00 L 526.00 1207.00 L 510.00 1217.00 L 498.00 1221.00 L 490.00 1219.00 L 493.00 1210.00 L 507.00 1194.00 L 510.00 1189.00 L 502.00 1195.00 L 516.00 1183.00 L 552.00 1153.00 L 548.00 1156.00 L 504.00 1192.00 L 505.00 1190.00 L 551.00 1150.00 L 562.00 1137.00 L 538.00 1151.00 L 539.00 1146.00 L 565.00 1122.00 L 564.00 1119.00 L 536.00 1137.00 L 533.00 1137.00 L 555.00 1119.00 L 556.00 1115.00 L 536.00 1125.00 L 536.00 1120.00 L 556.00 1100.00 L 565.00 1079.00 L 563.00 1057.00 L 558.00 1042.00 L 550.00 1034.00 L 550.00 1023.00 L 558.00 1009.00 L 551.00 999.00 L 529.00 993.00 L 510.00 981.00 L 494.00 963.00 L 486.00 951.00 L 486.00 945.00 L 488.00 927.00 Z" fill="black" stroke="black" stroke-width="1"/>
</svg>