<?xml version="1.0" encoding="UTF-8"?>
<svg xmlns="http://www.w3.org/2000/svg" viewBox="348.00 269.00 836.00 1466.00">
  <path d="M 409.00 954.00 L 399.00 938.00 L 397.00 924.00 L 403.00 912.00 L 403.00 903.00 L 397.00 897.00 L 397.00 887.00 L 403.00 873.00 L 406.00 860.00 L 406.00 848.00 L 394.00 833.00 L 370.00 815.00 L 358.00 801.00 L 358.00 791.00 L 380.00 759.00 L 424.00 705.00 L 447.00 669.00 L 449.00 651.00 L 448.00 637.00 L 444.00 627.00 L 448.00 608.00 L 460.00 580.00 L 463.00 559.00 L 457.00 545.00 L 458.00 542.00 L 466.00 550.00 L 467.00 545.00 L 461.00 527.00 L 461.00 522.00 L 467.00 530.00 L 467.00 528.00 L 461.00 516.00 L 462.00 515.00 L 470.00 525.00 L 471.00 521.00 L 465.00 503.00 L 466.00 499.00 L 474.00 509.00 L 475.00 506.00 L 469.00 490.00 L 470.00 488.00 L 478.00 500.00 L 483.00 504.00 L 485.00 500.00 L 483.00 491.00 L 477.00 477.00 L 478.00 474.00 L 486.00 482.00 L 489.00 483.00 L 487.00 477.00 L 487.00 473.00 L 489.00 471.00 L 491.00 472.00 L 493.00 476.00 L 492.00 473.00 L 488.00 463.00 L 487.00 457.00 L 489.00 455.00 L 492.00 458.00 L 496.00 466.00 L 498.00 468.00 L 498.00 464.00 L 499.00 463.00 L 501.00 465.00 L 500.00 461.00 L 496.00 451.00 L 496.00 442.00 L 500.00 434.00 L 515.00 414.00 L 541.00 382.00 L 564.00 362.00 L 584.00 354.00 L 603.00 342.00 L 621.00 326.00 L 642.00 319.00 L 666.00 321.00 L 687.00 316.00 L 705.00 304.00 L 726.00 298.00 L 750.00 298.00 L 774.00 293.00 L 798.00 283.00 L 835.00 279.00 L 885.00 281.00 L 937.00 290.00 L 991.00 306.00 L 1027.00 319.00 L 1045.00 329.00 L 1073.00 354.00 L 1111.00 394.00 L 1141.00 443.00 L 1163.00 501.00 L 1174.00 558.00 L 1174.00 614.00 L 1161.00 670.00 L 1135.00 726.00 L 1105.00 774.00 L 1071.00 814.00 L 1048.00 845.00 L 1036.00 867.00 L 1019.00 882.00 L 997.00 890.00 L 996.00 892.00 L 1016.00 888.00 L 1016.00 890.00 L 996.00 898.00 L 992.00 901.00 L 1004.00 899.00 L 1006.00 902.00 L 998.00 910.00 L 997.00 925.00 L 1003.00 947.00 L 1007.00 979.00 L 1009.00 1021.00 L 1008.00 1057.00 L 1004.00 1087.00 L 1007.00 1121.00 L 1017.00 1159.00 L 1022.00 1188.00 L 1022.00 1208.00 L 1036.00 1242.00 L 1064.00 1290.00 L 1081.00 1323.00 L 1087.00 1341.00 L 1086.00 1353.00 L 1078.00 1359.00 L 1030.00 1369.00 L 942.00 1383.00 L 879.00 1399.00 L 841.00 1417.00 L 801.00 1444.00 L 759.00 1480.00 L 698.00 1543.00 L 618.00 1633.00 L 570.00 1685.00 L 554.00 1699.00 L 535.00 1711.00 L 513.00 1721.00 L 492.00 1725.00 L 472.00 1723.00 L 452.00 1711.00 L 432.00 1689.00 L 419.00 1667.00 L 413.00 1645.00 L 411.00 1619.00 L 413.00 1589.00 L 413.00 1576.00 L 411.00 1580.00 L 414.00 1558.00 L 422.00 1510.00 L 437.00 1462.00 L 459.00 1414.00 L 468.00 1393.00 L 464.00 1399.00 L 479.00 1372.00 L 513.00 1312.00 L 512.00 1313.00 L 476.00 1375.00 L 475.00 1376.00 L 509.00 1316.00 L 512.00 1309.00 L 484.00 1355.00 L 485.00 1352.00 L 515.00 1300.00 L 515.00 1298.00 L 485.00 1346.00 L 481.00 1351.00 L 503.00 1313.00 L 504.00 1310.00 L 484.00 1342.00 L 488.00 1334.00 L 516.00 1286.00 L 516.00 1283.00 L 488.00 1325.00 L 489.00 1320.00 L 519.00 1268.00 L 534.00 1240.00 L 534.00 1236.00 L 529.00 1240.00 L 519.00 1252.00 L 521.00 1247.00 L 535.00 1225.00 L 532.00 1228.00 L 512.00 1256.00 L 512.00 1254.00 L 532.00 1222.00 L 529.00 1223.00 L 503.00 1257.00 L 482.00 1280.00 L 466.00 1292.00 L 477.00 1272.00 L 515.00 1220.00 L 512.00 1222.00 L 468.00 1278.00 L 466.00 1279.00 L 506.00 1225.00 L 507.00 1221.00 L 469.00 1267.00 L 467.00 1269.00 L 501.00 1227.00 L 502.00 1225.00 L 470.00 1263.00 L 467.00 1266.00 L 493.00 1234.00 L 495.00 1231.00 L 473.00 1257.00 L 478.00 1246.00 L 510.00 1198.00 L 517.00 1183.00 L 499.00 1201.00 L 498.00 1199.00 L 514.00 1177.00 L 512.00 1175.00 L 492.00 1193.00 L 481.00 1200.00 L 479.00 1196.00 L 487.00 1185.00 L 505.00 1167.00 L 505.00 1166.00 L 487.00 1182.00 L 486.00 1180.00 L 502.00 1160.00 L 509.00 1146.00 L 507.00 1138.00 L 497.00 1120.00 L 479.00 1092.00 L 470.00 1072.00 L 470.00 1060.00 L 460.00 1052.00 L 440.00 1048.00 L 425.00 1041.00 L 415.00 1031.00 L 409.00 1017.00 L 407.00 999.00 L 408.00 985.00 L 412.00 975.00 L 414.00 968.00 L 414.00 964.00 L 409.00 954.00 Z" fill="black" stroke="black" stroke-width="1"/>
</svg>