<?xml version="1.0" encoding="UTF-8"?>
<svg xmlns="http://www.w3.org/2000/svg" viewBox="418.00 281.00 849.00 1321.00">
  <path d="M 519.00 919.00 L 521.00 905.00 L 524.00 894.00 L 528.00 886.00 L 533.00 881.00 L 539.00 879.00 L 539.00 876.00 L 533.00 872.00 L 533.00 870.00 L 539.00 870.00 L 538.00 869.00 L 530.00 867.00 L 532.00 867.00 L 544.00 869.00 L 543.00 866.00 L 529.00 858.00 L 501.00 814.00 L 459.00 734.00 L 435.00 680.00 L 429.00 652.00 L 428.00 613.00 L 432.00 563.00 L 440.00 521.00 L 452.00 487.00 L 469.00 454.00 L 491.00 422.00 L 514.00 395.00 L 538.00 373.00 L 564.00 353.00 L 592.00 335.00 L 623.00 320.00 L 657.00 308.00 L 693.00 299.00 L 731.00 293.00 L 771.00 291.00 L 813.00 293.00 L 858.00 299.00 L 906.00 309.00 L 930.00 319.00 L 930.00 329.00 L 932.00 330.00 L 936.00 322.00 L 938.00 322.00 L 938.00 330.00 L 940.00 331.00 L 944.00 325.00 L 946.00 327.00 L 946.00 337.00 L 948.00 338.00 L 952.00 330.00 L 954.00 331.00 L 954.00 341.00 L 955.00 341.00 L 957.00 331.00 L 958.00 332.00 L 958.00 344.00 L 960.00 344.00 L 964.00 332.00 L 966.00 333.00 L 966.00 347.00 L 969.00 348.00 L 975.00 336.00 L 977.00 337.00 L 975.00 351.00 L 976.00 352.00 L 980.00 340.00 L 982.00 341.00 L 982.00 355.00 L 985.00 356.00 L 991.00 344.00 L 993.00 345.00 L 991.00 359.00 L 993.00 360.00 L 999.00 348.00 L 1002.00 350.00 L 1002.00 366.00 L 1004.00 367.00 L 1008.00 353.00 L 1009.00 354.00 L 1007.00 370.00 L 1009.00 371.00 L 1015.00 357.00 L 1017.00 359.00 L 1015.00 377.00 L 1017.00 378.00 L 1023.00 362.00 L 1025.00 363.00 L 1023.00 381.00 L 1035.00 403.00 L 1061.00 429.00 L 1086.00 465.00 L 1110.00 511.00 L 1123.00 554.00 L 1125.00 594.00 L 1128.00 619.00 L 1132.00 629.00 L 1157.00 661.00 L 1203.00 715.00 L 1225.00 746.00 L 1223.00 754.00 L 1209.00 765.00 L 1183.00 779.00 L 1182.00 781.00 L 1206.00 771.00 L 1212.00 769.00 L 1200.00 775.00 L 1199.00 776.00 L 1209.00 772.00 L 1202.00 776.00 L 1178.00 788.00 L 1175.00 790.00 L 1193.00 782.00 L 1193.00 783.00 L 1175.00 793.00 L 1167.00 814.00 L 1169.00 846.00 L 1168.00 864.00 L 1164.00 868.00 L 1163.00 874.00 L 1165.00 882.00 L 1161.00 895.00 L 1151.00 913.00 L 1150.00 932.00 L 1158.00 952.00 L 1160.00 971.00 L 1156.00 989.00 L 1147.00 1005.00 L 1133.00 1019.00 L 1114.00 1029.00 L 1090.00 1035.00 L 1081.00 1041.00 L 1087.00 1047.00 L 1085.00 1048.00 L 1075.00 1044.00 L 1077.00 1046.00 L 1091.00 1054.00 L 1092.00 1055.00 L 1080.00 1049.00 L 1080.00 1052.00 L 1092.00 1064.00 L 1093.00 1079.00 L 1083.00 1097.00 L 1085.00 1116.00 L 1099.00 1136.00 L 1098.00 1139.00 L 1082.00 1125.00 L 1083.00 1127.00 L 1101.00 1145.00 L 1101.00 1147.00 L 1083.00 1133.00 L 1084.00 1138.00 L 1104.00 1162.00 L 1103.00 1164.00 L 1081.00 1144.00 L 1081.00 1146.00 L 1103.00 1170.00 L 1105.00 1173.00 L 1087.00 1155.00 L 1075.00 1145.00 L 1069.00 1143.00 L 1075.00 1155.00 L 1093.00 1181.00 L 1092.00 1183.00 L 1072.00 1161.00 L 1070.00 1159.00 L 1086.00 1177.00 L 1086.00 1179.00 L 1070.00 1165.00 L 1072.00 1170.00 L 1092.00 1194.00 L 1100.00 1204.00 L 1096.00 1200.00 L 1096.00 1202.00 L 1100.00 1210.00 L 1100.00 1215.00 L 1096.00 1217.00 L 1108.00 1240.00 L 1136.00 1284.00 L 1138.00 1291.00 L 1114.00 1261.00 L 1130.00 1284.00 L 1186.00 1360.00 L 1189.00 1365.00 L 1139.00 1299.00 L 1140.00 1301.00 L 1192.00 1371.00 L 1203.00 1386.00 L 1173.00 1346.00 L 1174.00 1349.00 L 1206.00 1395.00 L 1192.00 1378.00 L 1132.00 1298.00 L 1132.00 1300.00 L 1192.00 1384.00 L 1206.00 1404.00 L 1174.00 1360.00 L 1182.00 1376.00 L 1230.00 1452.00 L 1255.00 1503.00 L 1257.00 1529.00 L 1255.00 1549.00 L 1249.00 1563.00 L 1242.00 1574.00 L 1234.00 1582.00 L 1223.00 1588.00 L 1209.00 1592.00 L 1158.00 1574.00 L 1070.00 1534.00 L 985.00 1499.00 L 903.00 1469.00 L 823.00 1445.00 L 745.00 1427.00 L 670.00 1414.00 L 598.00 1406.00 L 542.00 1395.00 L 502.00 1381.00 L 477.00 1367.00 L 467.00 1353.00 L 462.00 1334.00 L 462.00 1310.00 L 468.00 1279.00 L 480.00 1241.00 L 490.00 1196.00 L 498.00 1144.00 L 505.00 1113.00 L 511.00 1103.00 L 512.00 1089.00 L 508.00 1071.00 L 509.00 1048.00 L 515.00 1020.00 L 518.00 988.00 L 518.00 952.00 L 518.00 932.00 L 518.00 928.00 L 519.00 919.00 Z" fill="black" stroke="black" stroke-width="1"/>
</svg>