<?xml version="1.0" encoding="UTF-8"?>
<svg xmlns="http://www.w3.org/2000/svg" viewBox="353.00 323.00 886.00 1447.00">
  <path d="M 490.00 999.00 L 514.00 945.00 L 526.00 911.00 L 526.00 897.00 L 508.00 854.00 L 472.00 782.00 L 440.00 725.00 L 412.00 683.00 L 389.00 644.00 L 371.00 608.00 L 363.00 588.00 L 365.00 584.00 L 408.00 558.00 L 492.00 510.00 L 602.00 453.00 L 738.00 387.00 L 826.00 347.00 L 866.00 333.00 L 895.00 338.00 L 913.00 362.00 L 933.00 394.00 L 955.00 434.00 L 989.00 501.00 L 1035.00 595.00 L 1064.00 646.00 L 1076.00 654.00 L 1083.00 663.00 L 1085.00 673.00 L 1087.00 677.00 L 1089.00 675.00 L 1088.00 678.00 L 1084.00 686.00 L 1110.00 704.00 L 1166.00 732.00 L 1172.00 764.00 L 1128.00 800.00 L 1130.00 801.00 L 1178.00 767.00 L 1181.00 766.00 L 1139.00 798.00 L 1140.00 799.00 L 1184.00 769.00 L 1181.00 773.00 L 1131.00 811.00 L 1133.00 812.00 L 1187.00 776.00 L 1188.00 778.00 L 1136.00 818.00 L 1138.00 820.00 L 1194.00 784.00 L 1208.00 776.00 L 1180.00 796.00 L 1181.00 797.00 L 1211.00 779.00 L 1227.00 771.00 L 1229.00 773.00 L 1201.00 792.00 L 1143.00 828.00 L 1144.00 829.00 L 1204.00 795.00 L 1204.00 797.00 L 1144.00 835.00 L 1145.00 837.00 L 1207.00 803.00 L 1208.00 804.00 L 1148.00 840.00 L 1121.00 871.00 L 1127.00 897.00 L 1128.00 917.00 L 1124.00 931.00 L 1126.00 941.00 L 1134.00 947.00 L 1135.00 955.00 L 1129.00 965.00 L 1133.00 981.00 L 1147.00 1003.00 L 1158.00 1017.00 L 1166.00 1023.00 L 1172.00 1032.00 L 1176.00 1044.00 L 1172.00 1056.00 L 1160.00 1068.00 L 1145.00 1075.00 L 1127.00 1077.00 L 1117.00 1088.00 L 1115.00 1108.00 L 1111.00 1122.00 L 1105.00 1130.00 L 1103.00 1138.00 L 1105.00 1146.00 L 1101.00 1155.00 L 1091.00 1165.00 L 1089.00 1175.00 L 1095.00 1185.00 L 1097.00 1197.00 L 1095.00 1211.00 L 1087.00 1223.00 L 1073.00 1233.00 L 1048.00 1244.00 L 1012.00 1256.00 L 997.00 1268.00 L 1003.00 1280.00 L 1001.00 1281.00 L 991.00 1271.00 L 995.00 1284.00 L 1013.00 1320.00 L 1015.00 1329.00 L 1001.00 1311.00 L 1002.00 1315.00 L 1018.00 1341.00 L 1017.00 1343.00 L 999.00 1321.00 L 999.00 1324.00 L 1017.00 1352.00 L 1016.00 1353.00 L 996.00 1327.00 L 997.00 1334.00 L 1019.00 1374.00 L 1018.00 1376.00 L 994.00 1340.00 L 996.00 1345.00 L 1024.00 1391.00 L 1025.00 1393.00 L 999.00 1351.00 L 999.00 1353.00 L 1025.00 1399.00 L 1037.00 1426.00 L 1035.00 1434.00 L 1036.00 1444.00 L 1040.00 1456.00 L 1038.00 1476.00 L 1030.00 1504.00 L 1032.00 1535.00 L 1044.00 1569.00 L 1049.00 1584.00 L 1047.00 1580.00 L 1050.00 1599.00 L 1058.00 1641.00 L 1061.00 1660.00 L 1059.00 1656.00 L 1056.00 1666.00 L 1052.00 1690.00 L 1044.00 1708.00 L 1032.00 1720.00 L 1013.00 1733.00 L 987.00 1747.00 L 965.00 1756.00 L 947.00 1760.00 L 921.00 1757.00 L 887.00 1747.00 L 860.00 1736.00 L 840.00 1724.00 L 805.00 1690.00 L 755.00 1634.00 L 720.00 1598.00 L 700.00 1582.00 L 675.00 1565.00 L 645.00 1547.00 L 593.00 1522.00 L 519.00 1490.00 L 476.00 1469.00 L 464.00 1459.00 L 452.00 1445.00 L 440.00 1427.00 L 433.00 1409.00 L 431.00 1391.00 L 448.00 1333.00 L 484.00 1235.00 L 503.00 1172.00 L 505.00 1144.00 L 509.00 1124.00 L 515.00 1112.00 L 507.00 1106.00 L 485.00 1106.00 L 485.00 1103.00 L 507.00 1097.00 L 506.00 1096.00 L 482.00 1100.00 L 474.00 1099.00 L 482.00 1093.00 L 482.00 1090.00 L 474.00 1090.00 L 482.00 1087.00 L 506.00 1081.00 L 506.00 1078.00 L 482.00 1078.00 L 481.00 1076.00 L 503.00 1072.00 L 503.00 1070.00 L 481.00 1070.00 L 480.00 1068.00 L 500.00 1064.00 L 500.00 1062.00 L 480.00 1062.00 L 472.00 1055.00 L 476.00 1041.00 L 478.00 1032.00 L 478.00 1028.00 L 490.00 999.00 Z" fill="black" stroke="black" stroke-width="1"/>
</svg>