<?xml version="1.0" encoding="UTF-8"?>
<svg xmlns="http://www.w3.org/2000/svg" viewBox="330.00 352.00 876.00 1351.00">
  <path d="M 369.00 1024.00 L 351.00 1020.00 L 350.00 1018.00 L 366.00 1018.00 L 365.00 1017.00 L 347.00 1015.00 L 346.00 1014.00 L 362.00 1014.00 L 361.00 1012.00 L 343.00 1008.00 L 340.00 990.00 L 352.00 958.00 L 364.00 942.00 L 376.00 942.00 L 378.00 940.00 L 370.00 936.00 L 372.00 935.00 L 384.00 937.00 L 393.00 936.00 L 399.00 932.00 L 403.00 920.00 L 405.00 900.00 L 416.00 860.00 L 436.00 800.00 L 446.00 749.00 L 446.00 707.00 L 451.00 656.00 L 461.00 596.00 L 472.00 552.00 L 484.00 524.00 L 505.00 492.00 L 535.00 456.00 L 576.00 423.00 L 628.00 393.00 L 675.00 373.00 L 717.00 363.00 L 777.00 362.00 L 855.00 370.00 L 915.00 382.00 L 957.00 398.00 L 989.00 414.00 L 1011.00 430.00 L 1032.00 451.00 L 1052.00 477.00 L 1072.00 511.00 L 1092.00 553.00 L 1105.00 583.00 L 1111.00 601.00 L 1113.00 618.00 L 1111.00 634.00 L 1135.00 670.00 L 1185.00 726.00 L 1196.00 766.00 L 1168.00 790.00 L 1168.00 794.00 L 1196.00 778.00 L 1195.00 780.00 L 1165.00 800.00 L 1165.00 802.00 L 1195.00 786.00 L 1195.00 787.00 L 1165.00 805.00 L 1163.00 807.00 L 1189.00 793.00 L 1189.00 794.00 L 1163.00 810.00 L 1147.00 827.00 L 1141.00 845.00 L 1138.00 859.00 L 1138.00 869.00 L 1141.00 878.00 L 1147.00 886.00 L 1148.00 896.00 L 1144.00 908.00 L 1144.00 937.00 L 1148.00 983.00 L 1143.00 1013.00 L 1129.00 1027.00 L 1112.00 1035.00 L 1092.00 1037.00 L 1064.00 1053.00 L 1028.00 1083.00 L 1017.00 1101.00 L 1031.00 1107.00 L 1030.00 1108.00 L 1014.00 1104.00 L 1015.00 1105.00 L 1033.00 1111.00 L 1031.00 1112.00 L 1009.00 1108.00 L 1009.00 1110.00 L 1031.00 1118.00 L 1042.00 1124.00 L 1042.00 1128.00 L 1036.00 1135.00 L 1024.00 1145.00 L 1009.00 1154.00 L 991.00 1162.00 L 975.00 1184.00 L 961.00 1220.00 L 965.00 1251.00 L 987.00 1277.00 L 986.00 1278.00 L 962.00 1254.00 L 962.00 1258.00 L 986.00 1290.00 L 985.00 1292.00 L 959.00 1264.00 L 958.00 1267.00 L 982.00 1301.00 L 981.00 1303.00 L 955.00 1273.00 L 954.00 1275.00 L 978.00 1309.00 L 990.00 1334.00 L 990.00 1350.00 L 998.00 1371.00 L 1014.00 1397.00 L 1017.00 1403.00 L 1007.00 1389.00 L 1007.00 1391.00 L 1017.00 1409.00 L 1018.00 1424.00 L 1010.00 1436.00 L 1019.00 1472.00 L 1045.00 1532.00 L 1058.00 1572.00 L 1058.00 1592.00 L 1052.00 1613.00 L 1040.00 1635.00 L 1021.00 1656.00 L 995.00 1676.00 L 973.00 1688.00 L 955.00 1692.00 L 939.00 1693.00 L 925.00 1691.00 L 892.00 1680.00 L 840.00 1660.00 L 781.00 1624.00 L 715.00 1572.00 L 643.00 1533.00 L 565.00 1507.00 L 511.00 1485.00 L 481.00 1467.00 L 458.00 1449.00 L 442.00 1431.00 L 426.00 1404.00 L 410.00 1368.00 L 399.00 1348.00 L 393.00 1344.00 L 383.00 1346.00 L 369.00 1354.00 L 363.00 1356.00 L 365.00 1352.00 L 364.00 1351.00 L 360.00 1353.00 L 364.00 1349.00 L 376.00 1339.00 L 375.00 1339.00 L 361.00 1349.00 L 360.00 1348.00 L 372.00 1336.00 L 371.00 1335.00 L 357.00 1345.00 L 355.00 1344.00 L 365.00 1332.00 L 364.00 1330.00 L 352.00 1338.00 L 345.00 1340.00 L 343.00 1336.00 L 350.00 1287.00 L 366.00 1193.00 L 379.00 1131.00 L 389.00 1101.00 L 387.00 1086.00 L 373.00 1086.00 L 373.00 1084.00 L 387.00 1080.00 L 385.00 1079.00 L 367.00 1081.00 L 366.00 1080.00 L 382.00 1076.00 L 380.00 1074.00 L 360.00 1074.00 L 358.00 1072.00 L 374.00 1068.00 L 373.00 1066.00 L 355.00 1066.00 L 352.00 1058.00 L 364.00 1042.00 L 372.00 1032.00 L 376.00 1028.00 L 369.00 1024.00 Z" fill="black" stroke="black" stroke-width="1"/>
</svg>