<?xml version="1.0" encoding="UTF-8"?>
<svg xmlns="http://www.w3.org/2000/svg" viewBox="471.00 616.00 593.00 1099.00">
  <path d="M 506.00 1160.00 L 498.00 1148.00 L 494.00 1136.00 L 494.00 1124.00 L 497.00 1112.00 L 503.00 1100.00 L 505.00 1087.00 L 503.00 1073.00 L 503.00 1062.00 L 505.00 1054.00 L 504.00 1047.00 L 500.00 1041.00 L 500.00 1031.00 L 504.00 1017.00 L 500.00 1006.00 L 488.00 998.00 L 484.00 994.00 L 488.00 994.00 L 487.00 992.00 L 481.00 988.00 L 486.00 991.00 L 502.00 1001.00 L 501.00 1000.00 L 483.00 988.00 L 483.00 986.00 L 501.00 994.00 L 501.00 992.00 L 483.00 980.00 L 482.00 979.00 L 498.00 989.00 L 499.00 987.00 L 485.00 973.00 L 494.00 944.00 L 526.00 900.00 L 541.00 875.00 L 539.00 869.00 L 539.00 867.00 L 541.00 869.00 L 543.00 868.00 L 545.00 864.00 L 547.00 863.00 L 549.00 865.00 L 551.00 859.00 L 553.00 845.00 L 566.00 816.00 L 590.00 772.00 L 601.00 737.00 L 599.00 711.00 L 606.00 689.00 L 622.00 671.00 L 637.00 657.00 L 651.00 647.00 L 670.00 638.00 L 694.00 630.00 L 715.00 626.00 L 733.00 626.00 L 751.00 629.00 L 769.00 635.00 L 785.00 638.00 L 799.00 638.00 L 813.00 643.00 L 827.00 653.00 L 845.00 663.00 L 867.00 673.00 L 890.00 692.00 L 914.00 720.00 L 928.00 735.00 L 932.00 737.00 L 938.00 733.00 L 946.00 723.00 L 953.00 717.00 L 959.00 715.00 L 970.00 720.00 L 986.00 732.00 L 999.00 746.00 L 1009.00 762.00 L 1021.00 790.00 L 1035.00 830.00 L 1041.00 852.00 L 1039.00 856.00 L 1039.00 874.00 L 1041.00 906.00 L 1045.00 933.00 L 1051.00 955.00 L 1054.00 995.00 L 1054.00 1053.00 L 1051.00 1094.00 L 1045.00 1118.00 L 1042.00 1141.00 L 1042.00 1163.00 L 1040.00 1177.00 L 1036.00 1183.00 L 1032.00 1187.00 L 1028.00 1189.00 L 1009.00 1189.00 L 975.00 1187.00 L 974.00 1188.00 L 1006.00 1192.00 L 1006.00 1193.00 L 974.00 1191.00 L 971.00 1192.00 L 997.00 1196.00 L 1001.00 1197.00 L 983.00 1195.00 L 981.00 1195.00 L 995.00 1197.00 L 996.00 1198.00 L 984.00 1198.00 L 983.00 1199.00 L 993.00 1201.00 L 989.00 1201.00 L 971.00 1199.00 L 966.00 1210.00 L 974.00 1234.00 L 978.00 1252.00 L 978.00 1264.00 L 975.00 1274.00 L 969.00 1282.00 L 963.00 1287.00 L 957.00 1289.00 L 959.00 1294.00 L 969.00 1302.00 L 967.00 1302.00 L 953.00 1294.00 L 954.00 1296.00 L 970.00 1308.00 L 981.00 1319.00 L 987.00 1329.00 L 1002.00 1344.00 L 1026.00 1364.00 L 1040.00 1378.00 L 1044.00 1386.00 L 1047.00 1393.00 L 1049.00 1399.00 L 1049.00 1415.00 L 1047.00 1441.00 L 1044.00 1458.00 L 1040.00 1466.00 L 1033.00 1475.00 L 1023.00 1485.00 L 1007.00 1496.00 L 985.00 1508.00 L 954.00 1519.00 L 914.00 1529.00 L 882.00 1540.00 L 858.00 1552.00 L 831.00 1570.00 L 801.00 1594.00 L 775.00 1618.00 L 753.00 1642.00 L 732.00 1661.00 L 712.00 1675.00 L 692.00 1687.00 L 672.00 1697.00 L 659.00 1703.00 L 653.00 1705.00 L 631.00 1705.00 L 593.00 1703.00 L 563.00 1691.00 L 541.00 1669.00 L 528.00 1648.00 L 524.00 1628.00 L 549.00 1567.00 L 603.00 1465.00 L 603.00 1462.00 L 549.00 1558.00 L 550.00 1554.00 L 606.00 1450.00 L 607.00 1446.00 L 553.00 1542.00 L 546.00 1554.00 L 586.00 1482.00 L 586.00 1481.00 L 546.00 1551.00 L 542.00 1557.00 L 574.00 1499.00 L 575.00 1496.00 L 545.00 1548.00 L 543.00 1551.00 L 569.00 1505.00 L 570.00 1503.00 L 546.00 1545.00 L 547.00 1543.00 L 573.00 1497.00 L 573.00 1496.00 L 547.00 1540.00 L 558.00 1517.00 L 606.00 1427.00 L 625.00 1375.00 L 615.00 1361.00 L 605.00 1337.00 L 595.00 1303.00 L 583.00 1276.00 L 569.00 1256.00 L 562.00 1243.00 L 562.00 1237.00 L 569.00 1225.00 L 583.00 1207.00 L 585.00 1195.00 L 575.00 1189.00 L 556.00 1182.00 L 528.00 1174.00 L 513.00 1169.00 L 511.00 1167.00 L 506.00 1160.00 Z" fill="black" stroke="black" stroke-width="1"/>
</svg>