<?xml version="1.0" encoding="UTF-8"?>
<svg xmlns="http://www.w3.org/2000/svg" viewBox="484.00 398.00 637.00 989.00">
  <path d="M 619.00 922.00 L 629.00 922.00 L 630.00 921.00 L 622.00 919.00 L 621.00 918.00 L 627.00 918.00 L 628.00 914.00 L 624.00 906.00 L 611.00 899.00 L 589.00 893.00 L 589.00 892.00 L 611.00 896.00 L 608.00 894.00 L 580.00 886.00 L 577.00 884.00 L 599.00 888.00 L 589.00 884.00 L 547.00 872.00 L 549.00 872.00 L 595.00 884.00 L 594.00 883.00 L 546.00 869.00 L 548.00 869.00 L 600.00 883.00 L 598.00 881.00 L 542.00 863.00 L 542.00 862.00 L 598.00 878.00 L 597.00 875.00 L 539.00 853.00 L 511.00 829.00 L 513.00 803.00 L 516.00 788.00 L 520.00 784.00 L 521.00 777.00 L 519.00 767.00 L 510.00 754.00 L 494.00 738.00 L 495.00 736.00 L 513.00 748.00 L 514.00 744.00 L 498.00 724.00 L 494.00 702.00 L 502.00 678.00 L 514.00 653.00 L 530.00 627.00 L 540.00 600.00 L 544.00 572.00 L 557.00 541.00 L 579.00 507.00 L 605.00 476.00 L 635.00 448.00 L 659.00 429.00 L 677.00 419.00 L 708.00 412.00 L 752.00 408.00 L 788.00 409.00 L 816.00 415.00 L 846.00 433.00 L 878.00 463.00 L 898.00 488.00 L 906.00 508.00 L 909.00 523.00 L 907.00 533.00 L 907.00 536.00 L 909.00 532.00 L 912.00 535.00 L 916.00 545.00 L 917.00 554.00 L 915.00 562.00 L 915.00 565.00 L 917.00 563.00 L 923.00 598.00 L 933.00 670.00 L 933.00 717.00 L 923.00 739.00 L 918.00 756.00 L 918.00 768.00 L 922.00 772.00 L 930.00 768.00 L 931.00 769.00 L 925.00 775.00 L 926.00 775.00 L 934.00 769.00 L 935.00 770.00 L 929.00 778.00 L 931.00 779.00 L 941.00 773.00 L 953.00 771.00 L 967.00 773.00 L 978.00 790.00 L 986.00 822.00 L 1001.00 851.00 L 1023.00 877.00 L 1034.00 894.00 L 1034.00 902.00 L 1027.00 911.00 L 1013.00 921.00 L 1017.00 940.00 L 1039.00 968.00 L 1059.00 1002.00 L 1077.00 1042.00 L 1093.00 1087.00 L 1107.00 1137.00 L 1111.00 1166.00 L 1105.00 1174.00 L 1104.00 1183.00 L 1108.00 1193.00 L 1105.00 1196.00 L 1095.00 1192.00 L 1095.00 1194.00 L 1105.00 1202.00 L 1104.00 1202.00 L 1092.00 1194.00 L 1091.00 1195.00 L 1101.00 1205.00 L 1100.00 1207.00 L 1088.00 1201.00 L 1079.00 1201.00 L 1073.00 1207.00 L 1067.00 1209.00 L 1061.00 1207.00 L 1059.00 1207.00 L 1061.00 1209.00 L 1048.00 1205.00 L 1020.00 1195.00 L 987.00 1191.00 L 949.00 1193.00 L 904.00 1210.00 L 852.00 1242.00 L 805.00 1279.00 L 763.00 1321.00 L 733.00 1348.00 L 715.00 1360.00 L 684.00 1369.00 L 640.00 1375.00 L 597.00 1377.00 L 555.00 1375.00 L 526.00 1366.00 L 510.00 1350.00 L 504.00 1331.00 L 508.00 1309.00 L 509.00 1299.00 L 507.00 1301.00 L 519.00 1275.00 L 545.00 1221.00 L 564.00 1172.00 L 576.00 1128.00 L 581.00 1104.00 L 579.00 1100.00 L 581.00 1094.00 L 587.00 1086.00 L 586.00 1085.00 L 578.00 1091.00 L 581.00 1086.00 L 595.00 1070.00 L 595.00 1068.00 L 581.00 1080.00 L 583.00 1077.00 L 601.00 1059.00 L 601.00 1057.00 L 583.00 1071.00 L 583.00 1069.00 L 601.00 1051.00 L 602.00 1047.00 L 586.00 1057.00 L 585.00 1055.00 L 599.00 1041.00 L 598.00 1040.00 L 582.00 1052.00 L 584.00 1049.00 L 604.00 1031.00 L 603.00 1030.00 L 581.00 1046.00 L 582.00 1045.00 L 606.00 1027.00 L 608.00 1025.00 L 588.00 1039.00 L 584.00 1041.00 L 596.00 1031.00 L 593.00 1031.00 L 575.00 1041.00 L 578.00 1036.00 L 602.00 1016.00 L 611.00 1005.00 L 605.00 1003.00 L 602.00 997.00 L 602.00 987.00 L 600.00 982.00 L 596.00 982.00 L 597.00 980.00 L 603.00 976.00 L 601.00 971.00 L 591.00 965.00 L 595.00 959.00 L 613.00 953.00 L 611.00 952.00 L 589.00 956.00 L 588.00 955.00 L 608.00 949.00 L 614.00 946.00 L 606.00 946.00 L 614.00 944.00 L 638.00 940.00 L 642.00 939.00 L 626.00 941.00 L 619.00 941.00 L 621.00 939.00 L 618.00 938.00 L 610.00 938.00 L 616.00 937.00 L 636.00 935.00 L 637.00 934.00 L 619.00 934.00 L 618.00 933.00 L 634.00 931.00 L 634.00 929.00 L 618.00 927.00 L 611.00 925.00 L 613.00 923.00 L 619.00 922.00 Z" fill="black" stroke="black" stroke-width="1"/>
</svg>