<?xml version="1.0" encoding="UTF-8"?>
<svg xmlns="http://www.w3.org/2000/svg" viewBox="357.00 285.00 839.00 1325.00">
  <path d="M 479.00 964.00 L 457.00 960.00 L 457.00 958.00 L 479.00 958.00 L 478.00 956.00 L 454.00 952.00 L 454.00 950.00 L 478.00 950.00 L 477.00 948.00 L 451.00 944.00 L 451.00 941.00 L 477.00 939.00 L 476.00 935.00 L 448.00 929.00 L 432.00 896.00 L 428.00 836.00 L 413.00 767.00 L 387.00 689.00 L 374.00 627.00 L 374.00 581.00 L 376.00 548.00 L 380.00 528.00 L 386.00 506.00 L 394.00 482.00 L 411.00 446.00 L 437.00 398.00 L 456.00 368.00 L 468.00 356.00 L 492.00 340.00 L 528.00 320.00 L 560.00 307.00 L 588.00 301.00 L 623.00 297.00 L 665.00 295.00 L 713.00 298.00 L 767.00 306.00 L 823.00 324.00 L 881.00 352.00 L 927.00 386.00 L 961.00 426.00 L 993.00 482.00 L 1023.00 554.00 L 1036.00 601.00 L 1032.00 623.00 L 1050.00 664.00 L 1090.00 724.00 L 1094.00 766.00 L 1062.00 790.00 L 1062.00 793.00 L 1094.00 775.00 L 1109.00 768.00 L 1107.00 772.00 L 1090.00 783.00 L 1058.00 801.00 L 1057.00 803.00 L 1087.00 789.00 L 1087.00 792.00 L 1057.00 812.00 L 1040.00 833.00 L 1036.00 855.00 L 1036.00 869.00 L 1040.00 875.00 L 1041.00 884.00 L 1039.00 896.00 L 1043.00 914.00 L 1053.00 938.00 L 1055.00 959.00 L 1049.00 977.00 L 1038.00 991.00 L 1022.00 1001.00 L 1004.00 1008.00 L 984.00 1012.00 L 966.00 1025.00 L 950.00 1047.00 L 953.00 1066.00 L 975.00 1082.00 L 976.00 1085.00 L 956.00 1075.00 L 958.00 1077.00 L 982.00 1091.00 L 985.00 1118.00 L 967.00 1158.00 L 978.00 1200.00 L 1018.00 1244.00 L 1018.00 1246.00 L 978.00 1206.00 L 980.00 1212.00 L 1024.00 1264.00 L 1025.00 1267.00 L 983.00 1221.00 L 984.00 1224.00 L 1028.00 1276.00 L 1028.00 1278.00 L 984.00 1230.00 L 986.00 1235.00 L 1034.00 1293.00 L 1034.00 1295.00 L 986.00 1241.00 L 988.00 1245.00 L 1040.00 1307.00 L 1041.00 1309.00 L 991.00 1251.00 L 992.00 1254.00 L 1044.00 1318.00 L 1073.00 1357.00 L 1079.00 1371.00 L 1107.00 1411.00 L 1157.00 1477.00 L 1158.00 1480.00 L 1110.00 1420.00 L 1111.00 1422.00 L 1161.00 1486.00 L 1162.00 1488.00 L 1114.00 1428.00 L 1114.00 1431.00 L 1162.00 1497.00 L 1186.00 1535.00 L 1186.00 1545.00 L 1183.00 1556.00 L 1177.00 1568.00 L 1161.00 1581.00 L 1135.00 1595.00 L 1110.00 1600.00 L 1086.00 1596.00 L 1058.00 1583.00 L 1026.00 1561.00 L 1003.00 1542.00 L 989.00 1526.00 L 979.00 1518.00 L 973.00 1518.00 L 957.00 1505.00 L 931.00 1479.00 L 914.00 1466.00 L 906.00 1466.00 L 858.00 1448.00 L 770.00 1412.00 L 696.00 1389.00 L 636.00 1379.00 L 587.00 1374.00 L 549.00 1374.00 L 506.00 1377.00 L 458.00 1383.00 L 427.00 1386.00 L 413.00 1386.00 L 401.00 1383.00 L 391.00 1377.00 L 381.00 1364.00 L 371.00 1344.00 L 367.00 1321.00 L 369.00 1295.00 L 376.00 1273.00 L 388.00 1255.00 L 401.00 1225.00 L 415.00 1183.00 L 428.00 1151.00 L 440.00 1129.00 L 449.00 1106.00 L 455.00 1082.00 L 466.00 1056.00 L 482.00 1028.00 L 490.00 1011.00 L 490.00 1005.00 L 484.00 1002.00 L 472.00 1002.00 L 473.00 1000.00 L 487.00 996.00 L 485.00 994.00 L 467.00 994.00 L 462.00 993.00 L 470.00 991.00 L 469.00 989.00 L 459.00 987.00 L 464.00 985.00 L 484.00 983.00 L 483.00 981.00 L 461.00 979.00 L 461.00 977.00 L 483.00 975.00 L 483.00 973.00 L 461.00 971.00 L 460.00 969.00 L 480.00 967.00 L 479.00 964.00 Z" fill="black" stroke="black" stroke-width="1"/>
</svg>