<?xml version="1.0" encoding="UTF-8"?>
<svg xmlns="http://www.w3.org/2000/svg" viewBox="452.00 356.00 792.00 1263.00">
  <path d="M 541.00 1002.00 L 539.00 986.00 L 540.00 974.00 L 544.00 966.00 L 544.00 956.00 L 540.00 944.00 L 543.00 929.00 L 553.00 911.00 L 547.00 896.00 L 525.00 884.00 L 524.00 882.00 L 544.00 890.00 L 543.00 889.00 L 521.00 879.00 L 509.00 867.00 L 507.00 853.00 L 510.00 842.00 L 518.00 834.00 L 532.00 815.00 L 552.00 785.00 L 565.00 763.00 L 571.00 749.00 L 572.00 732.00 L 568.00 712.00 L 567.00 693.00 L 569.00 675.00 L 576.00 648.00 L 588.00 612.00 L 604.00 575.00 L 624.00 537.00 L 633.00 510.00 L 631.00 494.00 L 635.00 479.00 L 645.00 465.00 L 661.00 451.00 L 683.00 437.00 L 706.00 420.00 L 730.00 400.00 L 751.00 386.00 L 769.00 378.00 L 804.00 372.00 L 856.00 368.00 L 895.00 366.00 L 921.00 366.00 L 963.00 373.00 L 1021.00 387.00 L 1065.00 400.00 L 1095.00 412.00 L 1118.00 426.00 L 1134.00 442.00 L 1156.00 468.00 L 1184.00 504.00 L 1204.00 534.00 L 1216.00 558.00 L 1225.00 580.00 L 1231.00 600.00 L 1234.00 625.00 L 1234.00 655.00 L 1232.00 673.00 L 1228.00 679.00 L 1227.00 688.00 L 1229.00 700.00 L 1227.00 717.00 L 1221.00 739.00 L 1214.00 761.00 L 1206.00 783.00 L 1189.00 817.00 L 1163.00 863.00 L 1148.00 893.00 L 1144.00 907.00 L 1142.00 925.00 L 1142.00 947.00 L 1146.00 967.00 L 1154.00 985.00 L 1156.00 997.00 L 1152.00 1003.00 L 1146.00 1007.00 L 1138.00 1009.00 L 1136.00 1010.00 L 1140.00 1010.00 L 1138.00 1012.00 L 1130.00 1016.00 L 1129.00 1023.00 L 1135.00 1033.00 L 1137.00 1050.00 L 1135.00 1074.00 L 1139.00 1103.00 L 1149.00 1137.00 L 1153.00 1161.00 L 1151.00 1175.00 L 1151.00 1191.00 L 1153.00 1209.00 L 1157.00 1223.00 L 1163.00 1233.00 L 1167.00 1244.00 L 1169.00 1256.00 L 1178.00 1275.00 L 1194.00 1301.00 L 1205.00 1324.00 L 1211.00 1344.00 L 1213.00 1367.00 L 1211.00 1393.00 L 1206.00 1415.00 L 1198.00 1433.00 L 1190.00 1446.00 L 1182.00 1454.00 L 1165.00 1462.00 L 1139.00 1470.00 L 1105.00 1474.00 L 1063.00 1474.00 L 1009.00 1469.00 L 943.00 1459.00 L 885.00 1455.00 L 835.00 1457.00 L 805.00 1459.00 L 795.00 1461.00 L 765.00 1473.00 L 715.00 1495.00 L 655.00 1529.00 L 585.00 1575.00 L 540.00 1601.00 L 520.00 1607.00 L 504.00 1609.00 L 492.00 1607.00 L 483.00 1604.00 L 477.00 1600.00 L 471.00 1593.00 L 465.00 1583.00 L 462.00 1571.00 L 462.00 1557.00 L 492.00 1505.00 L 552.00 1415.00 L 553.00 1412.00 L 495.00 1496.00 L 496.00 1493.00 L 556.00 1403.00 L 557.00 1399.00 L 499.00 1481.00 L 488.00 1496.00 L 524.00 1444.00 L 525.00 1442.00 L 491.00 1490.00 L 502.00 1472.00 L 558.00 1388.00 L 587.00 1341.00 L 589.00 1331.00 L 598.00 1314.00 L 614.00 1290.00 L 614.00 1288.00 L 598.00 1308.00 L 599.00 1306.00 L 617.00 1282.00 L 618.00 1279.00 L 602.00 1297.00 L 601.00 1296.00 L 615.00 1276.00 L 620.00 1265.00 L 616.00 1263.00 L 611.00 1264.00 L 605.00 1268.00 L 595.00 1271.00 L 581.00 1273.00 L 572.00 1272.00 L 568.00 1268.00 L 566.00 1258.00 L 566.00 1242.00 L 573.00 1227.00 L 587.00 1213.00 L 587.00 1211.00 L 573.00 1221.00 L 572.00 1218.00 L 584.00 1202.00 L 589.00 1191.00 L 587.00 1185.00 L 576.00 1174.00 L 556.00 1158.00 L 545.00 1147.00 L 543.00 1141.00 L 546.00 1134.00 L 554.00 1126.00 L 551.00 1115.00 L 537.00 1101.00 L 528.00 1089.00 L 524.00 1079.00 L 522.00 1069.00 L 522.00 1059.00 L 526.00 1046.00 L 534.00 1030.00 L 539.00 1019.00 L 541.00 1013.00 L 541.00 1002.00 Z" fill="black" stroke="black" stroke-width="1"/>
</svg>