<?xml version="1.0" encoding="UTF-8"?>
<svg xmlns="http://www.w3.org/2000/svg" viewBox="241.00 191.00 1079.00 1595.00">
  <path d="M 373.00 1049.00 L 355.00 1019.00 L 353.00 987.00 L 367.00 953.00 L 368.00 917.00 L 356.00 879.00 L 352.00 853.00 L 356.00 839.00 L 351.00 823.00 L 337.00 805.00 L 338.00 802.00 L 354.00 814.00 L 348.00 804.00 L 320.00 772.00 L 339.00 722.00 L 405.00 654.00 L 439.00 605.00 L 441.00 575.00 L 449.00 547.00 L 463.00 521.00 L 467.00 494.00 L 461.00 466.00 L 463.00 463.00 L 473.00 485.00 L 475.00 483.00 L 469.00 457.00 L 472.00 453.00 L 484.00 471.00 L 487.00 469.00 L 481.00 447.00 L 483.00 444.00 L 493.00 460.00 L 496.00 458.00 L 492.00 438.00 L 493.00 436.00 L 499.00 452.00 L 502.00 449.00 L 502.00 427.00 L 506.00 421.00 L 514.00 431.00 L 516.00 428.00 L 512.00 412.00 L 514.00 409.00 L 522.00 419.00 L 525.00 416.00 L 523.00 400.00 L 524.00 397.00 L 528.00 407.00 L 531.00 402.00 L 533.00 382.00 L 544.00 359.00 L 564.00 333.00 L 605.00 302.00 L 667.00 266.00 L 740.00 237.00 L 824.00 215.00 L 893.00 203.00 L 947.00 201.00 L 1007.00 209.00 L 1073.00 227.00 L 1142.00 266.00 L 1214.00 326.00 L 1261.00 378.00 L 1283.00 422.00 L 1299.00 486.00 L 1309.00 570.00 L 1310.00 637.00 L 1302.00 687.00 L 1271.00 776.00 L 1217.00 904.00 L 1189.00 982.00 L 1187.00 1010.00 L 1170.00 1028.00 L 1138.00 1036.00 L 1138.00 1039.00 L 1170.00 1037.00 L 1170.00 1039.00 L 1138.00 1045.00 L 1137.00 1048.00 L 1167.00 1048.00 L 1167.00 1051.00 L 1137.00 1057.00 L 1136.00 1060.00 L 1164.00 1060.00 L 1164.00 1063.00 L 1136.00 1069.00 L 1131.00 1074.00 L 1149.00 1078.00 L 1152.00 1082.00 L 1140.00 1086.00 L 1141.00 1125.00 L 1155.00 1199.00 L 1159.00 1247.00 L 1153.00 1269.00 L 1158.00 1305.00 L 1174.00 1355.00 L 1180.00 1392.00 L 1176.00 1416.00 L 1165.00 1440.00 L 1147.00 1464.00 L 1124.00 1482.00 L 1096.00 1494.00 L 1024.00 1504.00 L 908.00 1512.00 L 808.00 1527.00 L 724.00 1549.00 L 627.00 1583.00 L 517.00 1629.00 L 434.00 1678.00 L 378.00 1730.00 L 352.00 1748.00 L 356.00 1732.00 L 348.00 1740.00 L 328.00 1772.00 L 324.00 1773.00 L 336.00 1743.00 L 333.00 1744.00 L 315.00 1776.00 L 313.00 1773.00 L 327.00 1735.00 L 322.00 1733.00 L 298.00 1767.00 L 295.00 1760.00 L 313.00 1712.00 L 303.00 1714.00 L 265.00 1766.00 L 262.00 1763.00 L 294.00 1705.00 L 291.00 1705.00 L 253.00 1763.00 L 251.00 1761.00 L 285.00 1699.00 L 294.00 1678.00 L 278.00 1698.00 L 275.00 1697.00 L 285.00 1675.00 L 284.00 1672.00 L 272.00 1688.00 L 267.00 1680.00 L 269.00 1648.00 L 285.00 1605.00 L 315.00 1551.00 L 323.00 1532.00 L 309.00 1548.00 L 307.00 1549.00 L 317.00 1535.00 L 317.00 1528.00 L 307.00 1528.00 L 309.00 1508.00 L 323.00 1468.00 L 325.00 1453.00 L 315.00 1463.00 L 312.00 1459.00 L 316.00 1441.00 L 330.00 1418.00 L 354.00 1390.00 L 356.00 1385.00 L 336.00 1403.00 L 333.00 1404.00 L 347.00 1388.00 L 348.00 1385.00 L 336.00 1395.00 L 349.00 1378.00 L 387.00 1334.00 L 394.00 1321.00 L 370.00 1339.00 L 388.00 1319.00 L 448.00 1261.00 L 458.00 1247.00 L 418.00 1277.00 L 416.00 1278.00 L 452.00 1250.00 L 454.00 1247.00 L 422.00 1269.00 L 419.00 1270.00 L 445.00 1250.00 L 447.00 1246.00 L 425.00 1258.00 L 431.00 1249.00 L 465.00 1219.00 L 453.00 1214.00 L 395.00 1234.00 L 392.00 1229.00 L 444.00 1199.00 L 448.00 1194.00 L 404.00 1214.00 L 411.00 1208.00 L 469.00 1176.00 L 479.00 1169.00 L 441.00 1187.00 L 442.00 1185.00 L 482.00 1163.00 L 494.00 1155.00 L 478.00 1161.00 L 480.00 1154.00 L 500.00 1134.00 L 481.00 1111.00 L 423.00 1085.00 L 391.00 1070.00 L 385.00 1066.00 L 373.00 1049.00 Z" fill="black" stroke="black" stroke-width="1"/>
</svg>