<?xml version="1.0" encoding="UTF-8"?>
<svg xmlns="http://www.w3.org/2000/svg" viewBox="408.00 289.00 759.00 1413.00">
  <path d="M 450.00 935.00 L 482.00 897.00 L 497.00 866.00 L 495.00 842.00 L 500.00 818.00 L 512.00 794.00 L 517.00 770.00 L 515.00 746.00 L 516.00 728.00 L 520.00 716.00 L 551.00 640.00 L 609.00 500.00 L 652.00 402.00 L 680.00 346.00 L 698.00 314.00 L 706.00 306.00 L 715.00 301.00 L 725.00 299.00 L 739.00 301.00 L 757.00 307.00 L 769.00 309.00 L 775.00 307.00 L 780.00 311.00 L 784.00 321.00 L 786.00 321.00 L 786.00 311.00 L 790.00 315.00 L 798.00 333.00 L 816.00 355.00 L 844.00 381.00 L 861.00 393.00 L 867.00 391.00 L 874.00 393.00 L 882.00 399.00 L 887.00 407.00 L 889.00 417.00 L 894.00 425.00 L 902.00 431.00 L 905.00 445.00 L 903.00 467.00 L 904.00 469.00 L 908.00 451.00 L 908.00 452.00 L 904.00 472.00 L 905.00 474.00 L 911.00 458.00 L 913.00 461.00 L 911.00 483.00 L 913.00 500.00 L 919.00 512.00 L 938.00 521.00 L 970.00 527.00 L 1011.00 481.00 L 1061.00 383.00 L 1063.00 384.00 L 1017.00 484.00 L 1022.00 474.00 L 1078.00 354.00 L 1098.00 314.00 L 1082.00 354.00 L 1084.00 353.00 L 1104.00 311.00 L 1102.00 316.00 L 1078.00 368.00 L 1080.00 366.00 L 1108.00 310.00 L 1092.00 345.00 L 1032.00 471.00 L 1034.00 469.00 L 1098.00 339.00 L 1111.00 316.00 L 1073.00 400.00 L 1075.00 400.00 L 1117.00 316.00 L 1106.00 339.00 L 1042.00 469.00 L 1044.00 471.00 L 1112.00 345.00 L 1114.00 346.00 L 1050.00 474.00 L 1051.00 477.00 L 1117.00 355.00 L 1120.00 353.00 L 1060.00 471.00 L 1061.00 473.00 L 1123.00 359.00 L 1122.00 362.00 L 1058.00 482.00 L 1058.00 484.00 L 1122.00 368.00 L 1155.00 346.00 L 1157.00 418.00 L 1153.00 507.00 L 1143.00 613.00 L 1131.00 701.00 L 1117.00 771.00 L 1106.00 818.00 L 1098.00 842.00 L 1089.00 859.00 L 1079.00 869.00 L 1074.00 893.00 L 1074.00 931.00 L 1070.00 969.00 L 1062.00 1007.00 L 1059.00 1052.00 L 1061.00 1104.00 L 1059.00 1135.00 L 1053.00 1145.00 L 1041.00 1145.00 L 1023.00 1135.00 L 1020.00 1135.00 L 1032.00 1145.00 L 1033.00 1147.00 L 1023.00 1141.00 L 1027.00 1163.00 L 1045.00 1213.00 L 1053.00 1237.00 L 1051.00 1235.00 L 1052.00 1240.00 L 1056.00 1252.00 L 1057.00 1266.00 L 1055.00 1282.00 L 1062.00 1306.00 L 1078.00 1338.00 L 1086.00 1360.00 L 1086.00 1372.00 L 1081.00 1386.00 L 1071.00 1402.00 L 992.00 1440.00 L 844.00 1500.00 L 758.00 1537.00 L 734.00 1551.00 L 720.00 1564.00 L 716.00 1576.00 L 714.00 1578.00 L 714.00 1570.00 L 711.00 1570.00 L 705.00 1578.00 L 701.00 1580.00 L 699.00 1576.00 L 695.00 1582.00 L 689.00 1598.00 L 685.00 1602.00 L 683.00 1594.00 L 649.00 1614.00 L 583.00 1662.00 L 539.00 1687.00 L 517.00 1689.00 L 502.00 1688.00 L 494.00 1684.00 L 486.00 1685.00 L 478.00 1691.00 L 471.00 1692.00 L 465.00 1688.00 L 459.00 1681.00 L 453.00 1671.00 L 450.00 1654.00 L 450.00 1630.00 L 453.00 1607.00 L 459.00 1585.00 L 460.00 1573.00 L 456.00 1571.00 L 488.00 1507.00 L 556.00 1381.00 L 555.00 1378.00 L 485.00 1498.00 L 451.00 1553.00 L 453.00 1543.00 L 486.00 1483.00 L 550.00 1373.00 L 550.00 1371.00 L 486.00 1477.00 L 484.00 1479.00 L 544.00 1377.00 L 547.00 1370.00 L 493.00 1458.00 L 491.00 1458.00 L 541.00 1370.00 L 541.00 1366.00 L 491.00 1446.00 L 499.00 1432.00 L 565.00 1324.00 L 567.00 1319.00 L 505.00 1417.00 L 500.00 1423.00 L 552.00 1337.00 L 556.00 1328.00 L 512.00 1396.00 L 511.00 1397.00 L 553.00 1331.00 L 579.00 1289.00 L 589.00 1271.00 L 581.00 1280.00 L 555.00 1316.00 L 556.00 1311.00 L 584.00 1265.00 L 596.00 1244.00 L 592.00 1248.00 L 589.00 1247.00 L 587.00 1241.00 L 577.00 1238.00 L 559.00 1238.00 L 537.00 1234.00 L 511.00 1226.00 L 490.00 1215.00 L 474.00 1201.00 L 465.00 1186.00 L 463.00 1170.00 L 465.00 1154.00 L 471.00 1138.00 L 469.00 1117.00 L 459.00 1091.00 L 455.00 1068.00 L 457.00 1048.00 L 457.00 1035.00 L 455.00 1029.00 L 448.00 1024.00 L 436.00 1020.00 L 426.00 1012.00 L 418.00 1000.00 L 418.00 986.00 L 426.00 970.00 L 431.00 960.00 L 433.00 956.00 L 450.00 935.00 Z" fill="black" stroke="black" stroke-width="1"/>
</svg>