<svg width="86" height="70" viewBox="0 0 86 70" fill="none" xmlns="http://www.w3.org/2000/svg">
<path fill-rule="evenodd" clip-rule="evenodd" d="M42.9967 4.73816C37.7016 0.214615 30.0266 -0.459277 23.0412 0.235776C15.6244 1.10354 8.38494 3.09398 1.57397 6.13803C1.10469 6.35038 0.706782 6.69241 0.427702 7.12332C0.148621 7.55422 0.000150675 8.05582 0 8.56827L0 67.3304C0.00025596 67.7772 0.113282 68.2168 0.328731 68.6089C0.54418 69.0011 0.855168 69.3333 1.23322 69.5751C1.61128 69.8169 2.04433 69.9605 2.49272 69.993C2.94111 70.0254 3.39052 69.9455 3.7998 69.7606C10.0791 66.9571 16.7501 65.1168 23.585 64.3027C31.1584 63.5442 37.5067 64.7666 40.9068 68.9874C41.1587 69.2994 41.4778 69.5512 41.8407 69.7242C42.2035 69.8972 42.6008 69.9871 43.0033 69.9871C43.4057 69.9871 43.803 69.8972 44.1659 69.7242C44.5288 69.5512 44.8479 69.2994 45.0997 68.9874C48.5015 64.7683 54.8498 63.5442 62.4167 64.3027C69.2507 65.1129 75.9213 66.9498 82.2002 69.7508C82.6095 69.9357 83.0589 70.0156 83.5073 69.9832C83.9557 69.9508 84.3887 69.8071 84.7668 69.5653C85.1448 69.3235 85.4558 68.9913 85.6713 68.5992C85.8867 68.207 85.9997 67.7674 86 67.3206V8.56827C85.9998 8.05582 85.8514 7.55422 85.5723 7.12332C85.2932 6.69241 84.8953 6.35038 84.426 6.13803C77.613 3.09335 70.3712 1.10289 62.9522 0.235776C55.9652 -0.46416 48.2902 0.214615 42.9967 4.73816Z" fill="white"/>
<line x1="43.5" y1="3" x2="43.5" y2="70" stroke="black" stroke-width="3"/>
</svg>
