<svg width="48" height="86" viewBox="0 0 48 86" fill="none" xmlns="http://www.w3.org/2000/svg">
<path d="M6.54399 8.94794V12.0019H4.92999V3.32594H7.75599C8.33599 3.32594 8.83799 3.39394 9.26199 3.52994C9.68599 3.66594 10.036 3.85594 10.312 4.09994C10.588 4.34394 10.792 4.63594 10.924 4.97594C11.056 5.31594 11.122 5.68794 11.122 6.09194C11.122 6.51194 11.052 6.89794 10.912 7.24994C10.772 7.59794 10.562 7.89794 10.282 8.14994C10.002 8.40194 9.65199 8.59794 9.23199 8.73794C8.81199 8.87794 8.31999 8.94794 7.75599 8.94794H6.54399ZM6.54399 7.68794H7.75599C8.05199 7.68794 8.30999 7.65194 8.52999 7.57994C8.74999 7.50394 8.93199 7.39794 9.07599 7.26194C9.21999 7.12194 9.32799 6.95394 9.39999 6.75794C9.47199 6.55794 9.50799 6.33594 9.50799 6.09194C9.50799 5.85994 9.47199 5.64994 9.39999 5.46194C9.32799 5.27394 9.21999 5.11394 9.07599 4.98194C8.93199 4.84994 8.74999 4.74994 8.52999 4.68194C8.30999 4.60994 8.05199 4.57394 7.75599 4.57394H6.54399V7.68794ZM14.7442 5.74994C15.2042 5.74994 15.6202 5.82394 15.9922 5.97194C16.3682 6.11994 16.6882 6.32994 16.9522 6.60194C17.2162 6.87394 17.4202 7.20594 17.5642 7.59794C17.7082 7.98994 17.7802 8.42794 17.7802 8.91194C17.7802 9.39994 17.7082 9.83994 17.5642 10.2319C17.4202 10.6239 17.2162 10.9579 16.9522 11.2339C16.6882 11.5099 16.3682 11.7219 15.9922 11.8699C15.6202 12.0179 15.2042 12.0919 14.7442 12.0919C14.2842 12.0919 13.8662 12.0179 13.4902 11.8699C13.1142 11.7219 12.7922 11.5099 12.5242 11.2339C12.2602 10.9579 12.0542 10.6239 11.9062 10.2319C11.7622 9.83994 11.6902 9.39994 11.6902 8.91194C11.6902 8.42794 11.7622 7.98994 11.9062 7.59794C12.0542 7.20594 12.2602 6.87394 12.5242 6.60194C12.7922 6.32994 13.1142 6.11994 13.4902 5.97194C13.8662 5.82394 14.2842 5.74994 14.7442 5.74994ZM14.7442 10.9519C15.2562 10.9519 15.6342 10.7799 15.8782 10.4359C16.1262 10.0919 16.2502 9.58794 16.2502 8.92394C16.2502 8.25994 16.1262 7.75394 15.8782 7.40594C15.6342 7.05794 15.2562 6.88394 14.7442 6.88394C14.2242 6.88394 13.8402 7.05994 13.5922 7.41194C13.3442 7.75994 13.2202 8.26394 13.2202 8.92394C13.2202 9.58394 13.3442 10.0879 13.5922 10.4359C13.8402 10.7799 14.2242 10.9519 14.7442 10.9519ZM20.5145 3.08594V12.0019H19.0325V3.08594H20.5145ZM23.7723 5.84594V12.0019H22.2903V5.84594H23.7723ZM23.9943 4.05194C23.9943 4.17994 23.9683 4.29994 23.9163 4.41194C23.8643 4.52394 23.7943 4.62194 23.7063 4.70594C23.6223 4.78994 23.5223 4.85794 23.4063 4.90994C23.2903 4.95794 23.1663 4.98194 23.0343 4.98194C22.9063 4.98194 22.7843 4.95794 22.6683 4.90994C22.5563 4.85794 22.4583 4.78994 22.3743 4.70594C22.2903 4.62194 22.2223 4.52394 22.1703 4.41194C22.1223 4.29994 22.0983 4.17994 22.0983 4.05194C22.0983 3.91994 22.1223 3.79594 22.1703 3.67994C22.2223 3.56394 22.2903 3.46394 22.3743 3.37994C22.4583 3.29594 22.5563 3.22994 22.6683 3.18194C22.7843 3.12994 22.9063 3.10394 23.0343 3.10394C23.1663 3.10394 23.2903 3.12994 23.4063 3.18194C23.5223 3.22994 23.6223 3.29594 23.7063 3.37994C23.7943 3.46394 23.8643 3.56394 23.9163 3.67994C23.9683 3.79594 23.9943 3.91994 23.9943 4.05194ZM27.4742 12.0979C26.9422 12.0979 26.5322 11.9479 26.2442 11.6479C25.9562 11.3439 25.8122 10.9259 25.8122 10.3939V6.95594H25.1882C25.1082 6.95594 25.0382 6.92994 24.9782 6.87794C24.9222 6.82594 24.8942 6.74794 24.8942 6.64394V6.05594L25.8842 5.89394L26.1962 4.21394C26.2122 4.13394 26.2482 4.07194 26.3042 4.02794C26.3642 3.98394 26.4382 3.96194 26.5262 3.96194H27.2942V5.89994H28.9142V6.95594H27.2942V10.2919C27.2942 10.4839 27.3422 10.6339 27.4382 10.7419C27.5342 10.8499 27.6622 10.9039 27.8222 10.9039C27.9142 10.9039 27.9902 10.8939 28.0502 10.8739C28.1142 10.8499 28.1682 10.8259 28.2122 10.8019C28.2602 10.7779 28.3022 10.7559 28.3382 10.7359C28.3742 10.7119 28.4102 10.6999 28.4462 10.6999C28.4902 10.6999 28.5262 10.7119 28.5542 10.7359C28.5822 10.7559 28.6122 10.7879 28.6442 10.8319L29.0882 11.5519C28.8722 11.7319 28.6242 11.8679 28.3442 11.9599C28.0642 12.0519 27.7742 12.0979 27.4742 12.0979ZM31.6708 5.84594V12.0019H30.1888V5.84594H31.6708ZM31.8928 4.05194C31.8928 4.17994 31.8668 4.29994 31.8148 4.41194C31.7628 4.52394 31.6928 4.62194 31.6048 4.70594C31.5208 4.78994 31.4208 4.85794 31.3048 4.90994C31.1888 4.95794 31.0648 4.98194 30.9328 4.98194C30.8048 4.98194 30.6828 4.95794 30.5668 4.90994C30.4548 4.85794 30.3568 4.78994 30.2728 4.70594C30.1888 4.62194 30.1208 4.52394 30.0688 4.41194C30.0208 4.29994 29.9968 4.17994 29.9968 4.05194C29.9968 3.91994 30.0208 3.79594 30.0688 3.67994C30.1208 3.56394 30.1888 3.46394 30.2728 3.37994C30.3568 3.29594 30.4548 3.22994 30.5668 3.18194C30.6828 3.12994 30.8048 3.10394 30.9328 3.10394C31.0648 3.10394 31.1888 3.12994 31.3048 3.18194C31.4208 3.22994 31.5208 3.29594 31.6048 3.37994C31.6928 3.46394 31.7628 3.56394 31.8148 3.67994C31.8668 3.79594 31.8928 3.91994 31.8928 4.05194ZM37.6766 7.14794C37.6326 7.20394 37.5886 7.24794 37.5446 7.27994C37.5046 7.31194 37.4446 7.32794 37.3646 7.32794C37.2886 7.32794 37.2146 7.30594 37.1426 7.26194C37.0706 7.21394 36.9846 7.16194 36.8846 7.10594C36.7846 7.04594 36.6646 6.99394 36.5246 6.94994C36.3886 6.90194 36.2186 6.87794 36.0146 6.87794C35.7546 6.87794 35.5266 6.92594 35.3306 7.02194C35.1346 7.11394 34.9706 7.24794 34.8386 7.42394C34.7106 7.59994 34.6146 7.81394 34.5506 8.06594C34.4866 8.31394 34.4546 8.59594 34.4546 8.91194C34.4546 9.23994 34.4886 9.53194 34.5566 9.78794C34.6286 10.0439 34.7306 10.2599 34.8626 10.4359C34.9946 10.6079 35.1546 10.7399 35.3426 10.8319C35.5306 10.9199 35.7426 10.9639 35.9786 10.9639C36.2146 10.9639 36.4046 10.9359 36.5486 10.8799C36.6966 10.8199 36.8206 10.7559 36.9206 10.6879C37.0206 10.6159 37.1066 10.5519 37.1786 10.4959C37.2546 10.4359 37.3386 10.4059 37.4306 10.4059C37.5506 10.4059 37.6406 10.4519 37.7006 10.5439L38.1266 11.0839C37.9626 11.2759 37.7846 11.4379 37.5926 11.5699C37.4006 11.6979 37.2006 11.8019 36.9926 11.8819C36.7886 11.9579 36.5766 12.0119 36.3566 12.0439C36.1366 12.0759 35.9186 12.0919 35.7026 12.0919C35.3226 12.0919 34.9646 12.0219 34.6286 11.8819C34.2926 11.7379 33.9986 11.5299 33.7466 11.2579C33.4986 10.9859 33.3006 10.6539 33.1526 10.2619C33.0086 9.86594 32.9366 9.41594 32.9366 8.91194C32.9366 8.45994 33.0006 8.04194 33.1286 7.65794C33.2606 7.26994 33.4526 6.93594 33.7046 6.65594C33.9566 6.37194 34.2686 6.14994 34.6406 5.98994C35.0126 5.82994 35.4406 5.74994 35.9246 5.74994C36.3846 5.74994 36.7866 5.82394 37.1306 5.97194C37.4786 6.11994 37.7906 6.33194 38.0666 6.60794L37.6766 7.14794ZM42.7233 7.04594C42.6833 7.10994 42.6413 7.15594 42.5973 7.18394C42.5533 7.20794 42.4973 7.21994 42.4293 7.21994C42.3573 7.21994 42.2793 7.19994 42.1953 7.15994C42.1153 7.11994 42.0213 7.07594 41.9133 7.02794C41.8053 6.97594 41.6813 6.92994 41.5413 6.88994C41.4053 6.84994 41.2433 6.82994 41.0553 6.82994C40.7633 6.82994 40.5333 6.89194 40.3653 7.01594C40.1973 7.13994 40.1133 7.30194 40.1133 7.50194C40.1133 7.63394 40.1553 7.74594 40.2393 7.83794C40.3273 7.92594 40.4413 8.00394 40.5813 8.07194C40.7253 8.13994 40.8873 8.20194 41.0673 8.25794C41.2473 8.30994 41.4313 8.36794 41.6193 8.43194C41.8073 8.49594 41.9913 8.56994 42.1713 8.65394C42.3513 8.73394 42.5113 8.83794 42.6513 8.96594C42.7953 9.08994 42.9093 9.23994 42.9933 9.41594C43.0813 9.59194 43.1253 9.80394 43.1253 10.0519C43.1253 10.3479 43.0713 10.6219 42.9633 10.8739C42.8553 11.1219 42.6973 11.3379 42.4893 11.5219C42.2813 11.7019 42.0233 11.8439 41.7153 11.9479C41.4113 12.0479 41.0613 12.0979 40.6653 12.0979C40.4533 12.0979 40.2453 12.0779 40.0413 12.0379C39.8413 12.0019 39.6473 11.9499 39.4593 11.8819C39.2753 11.8139 39.1033 11.7339 38.9433 11.6419C38.7873 11.5499 38.6493 11.4499 38.5293 11.3419L38.8713 10.7779C38.9153 10.7099 38.9673 10.6579 39.0273 10.6219C39.0873 10.5859 39.1633 10.5679 39.2553 10.5679C39.3473 10.5679 39.4333 10.5939 39.5133 10.6459C39.5973 10.6979 39.6933 10.7539 39.8013 10.8139C39.9093 10.8739 40.0353 10.9299 40.1793 10.9819C40.3273 11.0339 40.5133 11.0599 40.7373 11.0599C40.9133 11.0599 41.0633 11.0399 41.1873 10.9999C41.3153 10.9559 41.4193 10.8999 41.4993 10.8319C41.5833 10.7639 41.6433 10.6859 41.6793 10.5979C41.7193 10.5059 41.7393 10.4119 41.7393 10.3159C41.7393 10.1719 41.6953 10.0539 41.6073 9.96194C41.5233 9.86994 41.4093 9.78994 41.2653 9.72194C41.1253 9.65394 40.9633 9.59394 40.7793 9.54194C40.5993 9.48594 40.4133 9.42594 40.2213 9.36194C40.0333 9.29794 39.8473 9.22394 39.6633 9.13994C39.4833 9.05194 39.3213 8.94194 39.1773 8.80994C39.0373 8.67794 38.9233 8.51594 38.8353 8.32394C38.7513 8.13194 38.7093 7.89994 38.7093 7.62794C38.7093 7.37594 38.7593 7.13594 38.8593 6.90794C38.9593 6.67994 39.1053 6.48194 39.2973 6.31394C39.4933 6.14194 39.7353 6.00594 40.0233 5.90594C40.3153 5.80194 40.6513 5.74994 41.0313 5.74994C41.4553 5.74994 41.8413 5.81994 42.1893 5.95994C42.5373 6.09994 42.8273 6.28394 43.0593 6.51194L42.7233 7.04594Z" fill="white"/>
<path d="M24 21C30.2287 21 35.9554 24.4697 40.1621 30.2539C44.368 36.0371 47 44.0759 47 53C47 61.9241 44.368 69.9629 40.1621 75.7461C35.9554 81.5303 30.2287 85 24 85C17.7713 85 12.0446 81.5303 7.83789 75.7461C3.63203 69.9629 1 61.9241 1 53C1 44.0759 3.63203 36.0371 7.83789 30.2539C12.0446 24.4697 17.7713 21 24 21Z" stroke="white" stroke-width="2"/>
<path d="M33.995 54H12V55H34V54H33.995Z" fill="white"/>
<path d="M11.4756 59.0469H35.0541V60.0087H11.4756V59.0469Z" fill="white"/>
<path d="M33.0361 55.793V58.2207H32.1387V56.3115H30.5645V58.2207H29.4131V56.3115H27.8389V58.2207H26.6875V56.3115H25.1104V58.2207H23.959V56.3115H22.3848V58.2207H21.2334V56.3115H19.6602V58.2207H18.5088V56.3115H16.9307V58.2207H15.7793V56.3115H14.2061V58.2207H13.3086V55.793H33.0361Z" stroke="white" stroke-width="0.25"/>
<path d="M33.3184 55.4844V58.5205H31.8369V56.6104H30.8711V58.5205H29.1064V56.6104H28.1406V58.5205H26.376V56.6104H25.4102V58.5205H23.6455V56.6104H22.6797V58.5205H20.915V56.6104H19.9492V58.5205H18.1846V56.6104H17.2188V58.5205H15.4541V56.6104H14.4883V58.5205H12.9834V55.4844H33.3184ZM13.3633 58.1621H14.1475V56.2529H15.833V58.1621H16.876V56.2529H18.5615V58.1621H19.6055V56.2529H21.29V58.1621H22.334V56.2529H24.0195V58.1621H25.0576V56.2529H26.7432V58.1621H27.7861V56.2529H29.4717V58.1621H30.5146V56.2529H32.2002V58.0371H32.3203V58.1621H32.9795V55.8477H13.3633V58.1621Z" fill="white" stroke="white" stroke-width="0.25"/>
<path d="M34.0498 60.8438V68.2686H36.8242V68.541H9.43262V68.2686H12.2695V60.8438H34.0498ZM13.2871 68.2686H14.9941V61.1493H13.2871V68.2686ZM16.292 68.2686H17.999V61.1493H16.292V68.2686ZM19.2979 68.2686H21.0049V61.1493H19.2979V68.2686ZM22.3076 68.2686H24.0146V61.1493H22.3076V68.2686ZM25.3096 68.2686H27.0244V61.1493H25.3096V68.2686ZM28.3193 68.2686H30.0264V61.1493H28.3193V68.2686ZM31.3242 68.2686H33.0391V61.1493H31.3242V68.2686Z" fill="white" stroke="white" stroke-width="0.25"/>
<path d="M24.7012 41.7383V45.4814L24.7988 45.5029C28.3752 46.3006 31.064 49.4029 31.2744 53.166H14.6436C14.8576 49.3713 17.5995 46.2449 21.2197 45.4834L21.3193 45.4629V41.7383H24.7012Z" stroke="white" stroke-width="0.25"/>
<path d="M31.7253 53.6004H14.1924L14.2059 53.282C14.3659 49.3489 17.0997 46.0291 20.8896 45.1193V41.3125H25.1326V45.1462C28.8619 46.0912 31.5537 49.3977 31.7137 53.2784L31.7272 53.5967L31.7253 53.6004ZM14.834 52.9873H31.082C30.7973 49.4382 28.2404 46.4583 24.7605 45.6869L24.523 45.6347V41.9256H21.4994V45.6128L21.2586 45.665C17.723 46.4061 15.119 49.3943 14.8344 52.9904L14.834 52.9873Z" fill="white" stroke="white" stroke-width="0.25"/>
<path d="M29.834 33.1538C30.737 33.078 31.65 33.1534 32.5645 33.3638L32.875 33.439V39.7026L32.2812 39.395C31.4812 38.977 30.6768 38.7957 29.8994 38.8355H29.8984C29.3995 38.8654 29.0199 38.9852 28.6455 39.1353L28.2695 39.2925C27.7641 39.5056 27.207 39.7429 26.4346 39.8384H26.4336C26.2537 39.8619 26.0727 39.8697 25.8867 39.8726H25.7646C24.9995 39.8726 24.2082 39.7163 23.3906 39.4097L23.125 39.3091L23.127 33.1831L23.6748 33.3814C24.7286 33.7662 25.7657 33.9055 26.7432 33.7964L26.7422 33.7954C27.266 33.7408 27.6665 33.6261 28.0732 33.5044C28.578 33.3596 29.0863 33.212 29.834 33.1538ZM30.1621 33.9614L29.9092 33.981C29.2352 34.0413 28.781 34.1742 28.3057 34.3042L28.3027 34.3052C27.8695 34.4349 27.425 34.5596 26.834 34.6206L26.8467 34.7446L26.8594 34.8696C27.4729 34.8063 27.9346 34.6761 28.3711 34.5454C28.8484 34.4148 29.2825 34.2881 29.9316 34.23C30.5473 34.1721 31.181 34.2026 31.8135 34.3081V38.0327C31.152 37.8105 30.4864 37.7268 29.8311 37.7632H29.8301C28.9866 37.818 28.3986 38.0688 27.8477 38.3032C27.3651 38.5077 26.9271 38.6963 26.2998 38.771C25.6115 38.8544 24.8704 38.7721 24.1084 38.5278L24.0127 38.7573L24.0186 38.7603L24.0586 38.6831L24.0322 38.7661C24.8229 39.0195 25.5999 39.1073 26.3291 39.0191C26.9957 38.9397 27.4642 38.738 27.9463 38.5337C28.4952 38.3001 29.0485 38.0641 29.8457 38.0122C30.5229 37.9747 31.2113 38.0712 31.8945 38.3257L32.0635 38.3882V34.0982L31.96 34.0796C31.3596 33.9718 30.7555 33.9282 30.1621 33.9614Z" fill="white" stroke="white" stroke-width="0.25"/>
<path d="M23.0107 35.4297C23.0326 35.4297 23.0509 35.4369 23.0615 35.4463C23.0698 35.4537 23.0801 35.4676 23.0801 35.498C23.0801 35.5291 23.0689 35.5433 23.0605 35.5508C23.0499 35.5601 23.0322 35.5674 23.0107 35.5674C22.9893 35.5673 22.9715 35.5602 22.9609 35.5508C22.9526 35.5433 22.9424 35.529 22.9424 35.498C22.9424 35.4676 22.9526 35.4537 22.9609 35.4463C22.9715 35.437 22.9891 35.4298 23.0107 35.4297Z" stroke="white" stroke-width="0.25"/>
<path d="M23 33C23.5523 33 24 32.5523 24 32C24 31.4477 23.5523 31 23 31C22.4477 31 22 31.4477 22 32C22 32.5523 22.4477 33 23 33Z" fill="white"/>
</svg>
