<svg width="48" height="86" viewBox="0 0 48 86" fill="none" xmlns="http://www.w3.org/2000/svg">
<path d="M12.84 9.95594C12.928 9.95594 13.004 9.98994 13.068 10.0579L13.704 10.7479C13.352 11.1839 12.918 11.5179 12.402 11.7499C11.89 11.9819 11.274 12.0979 10.554 12.0979C9.91 12.0979 9.33 11.9879 8.814 11.7679C8.302 11.5479 7.864 11.2419 7.5 10.8499C7.136 10.4579 6.856 9.98994 6.66 9.44594C6.468 8.90194 6.372 8.30794 6.372 7.66394C6.372 7.01194 6.48 6.41594 6.696 5.87594C6.912 5.33194 7.216 4.86394 7.608 4.47194C8 4.07994 8.468 3.77594 9.012 3.55994C9.56 3.33994 10.164 3.22994 10.824 3.22994C11.468 3.22994 12.03 3.33394 12.51 3.54194C12.994 3.74594 13.408 4.01794 13.752 4.35794L13.212 5.10794C13.18 5.15594 13.138 5.19794 13.086 5.23394C13.038 5.26994 12.97 5.28794 12.882 5.28794C12.79 5.28794 12.696 5.25194 12.6 5.17994C12.504 5.10794 12.382 5.02994 12.234 4.94594C12.086 4.86194 11.898 4.78394 11.67 4.71194C11.446 4.63994 11.16 4.60394 10.812 4.60394C10.404 4.60394 10.028 4.67594 9.684 4.81994C9.344 4.95994 9.05 5.16194 8.802 5.42594C8.558 5.68994 8.366 6.01194 8.226 6.39194C8.09 6.76794 8.022 7.19194 8.022 7.66394C8.022 8.15194 8.09 8.58594 8.226 8.96594C8.366 9.34594 8.554 9.66594 8.79 9.92594C9.026 10.1859 9.304 10.3859 9.624 10.5259C9.944 10.6619 10.288 10.7299 10.656 10.7299C10.876 10.7299 11.074 10.7179 11.25 10.6939C11.43 10.6699 11.594 10.6319 11.742 10.5799C11.894 10.5279 12.036 10.4619 12.168 10.3819C12.304 10.2979 12.438 10.1959 12.57 10.0759C12.61 10.0399 12.652 10.0119 12.696 9.99194C12.74 9.96794 12.788 9.95594 12.84 9.95594ZM14.8428 12.0019V3.08594H16.3248V6.51194C16.5648 6.28394 16.8288 6.09994 17.1168 5.95994C17.4048 5.81994 17.7428 5.74994 18.1308 5.74994C18.4668 5.74994 18.7648 5.80794 19.0248 5.92394C19.2848 6.03594 19.5008 6.19594 19.6728 6.40394C19.8488 6.60794 19.9808 6.85394 20.0688 7.14194C20.1608 7.42594 20.2068 7.73994 20.2068 8.08394V12.0019H18.7248V8.08394C18.7248 7.70794 18.6368 7.41794 18.4608 7.21394C18.2888 7.00594 18.0288 6.90194 17.6808 6.90194C17.4248 6.90194 17.1848 6.95994 16.9608 7.07594C16.7368 7.19194 16.5248 7.34994 16.3248 7.54994V12.0019H14.8428ZM26.4871 12.0019H25.8211C25.6811 12.0019 25.5711 11.9819 25.4911 11.9419C25.4111 11.8979 25.3511 11.8119 25.3111 11.6839L25.1791 11.2459C25.0231 11.3859 24.8691 11.5099 24.7171 11.6179C24.5691 11.7219 24.4151 11.8099 24.2551 11.8819C24.0951 11.9539 23.9251 12.0079 23.7451 12.0439C23.5651 12.0799 23.3651 12.0979 23.1451 12.0979C22.8851 12.0979 22.6451 12.0639 22.4251 11.9959C22.2051 11.9239 22.0151 11.8179 21.8551 11.6779C21.6991 11.5379 21.5771 11.3639 21.4891 11.1559C21.4011 10.9479 21.3571 10.7059 21.3571 10.4299C21.3571 10.1979 21.4171 9.96994 21.5371 9.74594C21.6611 9.51794 21.8651 9.31394 22.1491 9.13394C22.4331 8.94994 22.8111 8.79794 23.2831 8.67794C23.7551 8.55794 24.3411 8.48994 25.0411 8.47394V8.11394C25.0411 7.70194 24.9531 7.39794 24.7771 7.20194C24.6051 7.00194 24.3531 6.90194 24.0211 6.90194C23.7811 6.90194 23.5811 6.92994 23.4211 6.98594C23.2611 7.04194 23.1211 7.10594 23.0011 7.17794C22.8851 7.24594 22.7771 7.30794 22.6771 7.36394C22.5771 7.41994 22.4671 7.44794 22.3471 7.44794C22.2471 7.44794 22.1611 7.42194 22.0891 7.36994C22.0171 7.31794 21.9591 7.25394 21.9151 7.17794L21.6451 6.70394C22.3531 6.05594 23.2071 5.73194 24.2071 5.73194C24.5671 5.73194 24.8871 5.79194 25.1671 5.91194C25.4511 6.02794 25.6911 6.19194 25.8871 6.40394C26.0831 6.61194 26.2311 6.86194 26.3311 7.15394C26.4351 7.44594 26.4871 7.76594 26.4871 8.11394V12.0019ZM23.6071 11.0779C23.7591 11.0779 23.8991 11.0639 24.0271 11.0359C24.1551 11.0079 24.2751 10.9659 24.3871 10.9099C24.5031 10.8539 24.6131 10.7859 24.7171 10.7059C24.8251 10.6219 24.9331 10.5239 25.0411 10.4119V9.37394C24.6091 9.39394 24.2471 9.43194 23.9551 9.48794C23.6671 9.53994 23.4351 9.60794 23.2591 9.69194C23.0831 9.77594 22.9571 9.87394 22.8811 9.98594C22.8091 10.0979 22.7731 10.2199 22.7731 10.3519C22.7731 10.6119 22.8491 10.7979 23.0011 10.9099C23.1571 11.0219 23.3591 11.0779 23.6071 11.0779ZM27.9443 12.0019V5.84594H28.8143C28.9663 5.84594 29.0723 5.87394 29.1323 5.92994C29.1923 5.98594 29.2323 6.08194 29.2523 6.21794L29.3423 6.96194C29.5623 6.58194 29.8203 6.28194 30.1163 6.06194C30.4123 5.84194 30.7443 5.73194 31.1123 5.73194C31.4163 5.73194 31.6683 5.80194 31.8683 5.94194L31.6763 7.05194C31.6643 7.12394 31.6383 7.17594 31.5983 7.20794C31.5583 7.23594 31.5043 7.24994 31.4363 7.24994C31.3763 7.24994 31.2943 7.23594 31.1903 7.20794C31.0863 7.17994 30.9483 7.16594 30.7763 7.16594C30.4683 7.16594 30.2043 7.25194 29.9843 7.42394C29.7643 7.59194 29.5783 7.83994 29.4263 8.16794V12.0019H27.9443ZM34.8648 12.0979C34.3328 12.0979 33.9228 11.9479 33.6348 11.6479C33.3468 11.3439 33.2028 10.9259 33.2028 10.3939V6.95594H32.5788C32.4988 6.95594 32.4288 6.92994 32.3688 6.87794C32.3128 6.82594 32.2848 6.74794 32.2848 6.64394V6.05594L33.2748 5.89394L33.5868 4.21394C33.6028 4.13394 33.6388 4.07194 33.6948 4.02794C33.7548 3.98394 33.8288 3.96194 33.9168 3.96194H34.6848V5.89994H36.3048V6.95594H34.6848V10.2919C34.6848 10.4839 34.7328 10.6339 34.8288 10.7419C34.9248 10.8499 35.0528 10.9039 35.2128 10.9039C35.3048 10.9039 35.3808 10.8939 35.4408 10.8739C35.5048 10.8499 35.5588 10.8259 35.6028 10.8019C35.6508 10.7779 35.6928 10.7559 35.7288 10.7359C35.7648 10.7119 35.8008 10.6999 35.8368 10.6999C35.8808 10.6999 35.9168 10.7119 35.9448 10.7359C35.9728 10.7559 36.0028 10.7879 36.0348 10.8319L36.4788 11.5519C36.2628 11.7319 36.0148 11.8679 35.7348 11.9599C35.4548 12.0519 35.1648 12.0979 34.8648 12.0979ZM41.1374 7.04594C41.0974 7.10994 41.0554 7.15594 41.0114 7.18394C40.9674 7.20794 40.9114 7.21994 40.8434 7.21994C40.7714 7.21994 40.6934 7.19994 40.6094 7.15994C40.5294 7.11994 40.4354 7.07594 40.3274 7.02794C40.2194 6.97594 40.0954 6.92994 39.9554 6.88994C39.8194 6.84994 39.6574 6.82994 39.4694 6.82994C39.1774 6.82994 38.9474 6.89194 38.7794 7.01594C38.6114 7.13994 38.5274 7.30194 38.5274 7.50194C38.5274 7.63394 38.5694 7.74594 38.6534 7.83794C38.7414 7.92594 38.8554 8.00394 38.9954 8.07194C39.1394 8.13994 39.3014 8.20194 39.4814 8.25794C39.6614 8.30994 39.8454 8.36794 40.0334 8.43194C40.2214 8.49594 40.4054 8.56994 40.5854 8.65394C40.7654 8.73394 40.9254 8.83794 41.0654 8.96594C41.2094 9.08994 41.3234 9.23994 41.4074 9.41594C41.4954 9.59194 41.5394 9.80394 41.5394 10.0519C41.5394 10.3479 41.4854 10.6219 41.3774 10.8739C41.2694 11.1219 41.1114 11.3379 40.9034 11.5219C40.6954 11.7019 40.4374 11.8439 40.1294 11.9479C39.8254 12.0479 39.4754 12.0979 39.0794 12.0979C38.8674 12.0979 38.6594 12.0779 38.4554 12.0379C38.2554 12.0019 38.0614 11.9499 37.8734 11.8819C37.6894 11.8139 37.5174 11.7339 37.3574 11.6419C37.2014 11.5499 37.0634 11.4499 36.9434 11.3419L37.2854 10.7779C37.3294 10.7099 37.3814 10.6579 37.4414 10.6219C37.5014 10.5859 37.5774 10.5679 37.6694 10.5679C37.7614 10.5679 37.8474 10.5939 37.9274 10.6459C38.0114 10.6979 38.1074 10.7539 38.2154 10.8139C38.3234 10.8739 38.4494 10.9299 38.5934 10.9819C38.7414 11.0339 38.9274 11.0599 39.1514 11.0599C39.3274 11.0599 39.4774 11.0399 39.6014 10.9999C39.7294 10.9559 39.8334 10.8999 39.9134 10.8319C39.9974 10.7639 40.0574 10.6859 40.0934 10.5979C40.1334 10.5059 40.1534 10.4119 40.1534 10.3159C40.1534 10.1719 40.1094 10.0539 40.0214 9.96194C39.9374 9.86994 39.8234 9.78994 39.6794 9.72194C39.5394 9.65394 39.3774 9.59394 39.1934 9.54194C39.0134 9.48594 38.8274 9.42594 38.6354 9.36194C38.4474 9.29794 38.2614 9.22394 38.0774 9.13994C37.8974 9.05194 37.7354 8.94194 37.5914 8.80994C37.4514 8.67794 37.3374 8.51594 37.2494 8.32394C37.1654 8.13194 37.1234 7.89994 37.1234 7.62794C37.1234 7.37594 37.1734 7.13594 37.2734 6.90794C37.3734 6.67994 37.5194 6.48194 37.7114 6.31394C37.9074 6.14194 38.1494 6.00594 38.4374 5.90594C38.7294 5.80194 39.0654 5.74994 39.4454 5.74994C39.8694 5.74994 40.2554 5.81994 40.6034 5.95994C40.9514 6.09994 41.2414 6.28394 41.4734 6.51194L41.1374 7.04594Z" fill="white"/>
<path d="M24 21C30.2287 21 35.9554 24.4697 40.1621 30.2539C44.368 36.0371 47 44.0759 47 53C47 61.9241 44.368 69.9629 40.1621 75.7461C35.9554 81.5303 30.2287 85 24 85C17.7713 85 12.0446 81.5303 7.83789 75.7461C3.63203 69.9629 1 61.9241 1 53C1 44.0759 3.63203 36.0371 7.83789 30.2539C12.0446 24.4697 17.7713 21 24 21Z" stroke="white" stroke-width="2"/>
<path d="M13 65H11V59L11.4131 59.2812L13 56.9473V65ZM17 56.4512V65H15V54.0059L15.6445 53.0586L17 56.4512ZM21 65H19V56.9229L21 54.1924V65ZM24.1689 55.3252L24.6289 55.8633L24.9824 55.249L25 55.2178V65H23V53.957L24.1689 55.3252ZM28.0771 58.7695L28.9434 57.8408L29 57.7793V65H27V51.7422L28.0771 49.8711V58.7695ZM33 65H31V55.6328L33 53.4873V65ZM36.5713 57.7568L37 57.5V65H35V55.1348L36.5713 57.7568ZM13 55.1689L11 58.1104V41H13V55.1689ZM37 56.5273L35 53.1895V41H37V56.5273ZM21 52.499L19 55.2295V41H21V52.499ZM33 52.0225L31 54.167V41H33V52.0225ZM25 53.2139L24.4697 54.1357L23 52.416V41H25V53.2139ZM17 53.7549L16.2246 51.8145L15.876 50.9414L15.3467 51.7188L15 52.2285V41H17V53.7549ZM29 46.2627L28.1445 47.751L27 49.7393V41H29V46.2627Z" fill="white"/>
</svg>
