<svg width="61" height="86" viewBox="0 0 61 86" fill="none" xmlns="http://www.w3.org/2000/svg">
<path d="M5.526 4.90394C5.482 4.99194 5.43 5.05394 5.37 5.08994C5.314 5.12594 5.246 5.14394 5.166 5.14394C5.086 5.14394 4.996 5.11394 4.896 5.05394C4.796 4.98994 4.678 4.91994 4.542 4.84394C4.406 4.76794 4.246 4.69994 4.062 4.63994C3.882 4.57594 3.668 4.54394 3.42 4.54394C3.196 4.54394 3 4.57194 2.832 4.62794C2.668 4.67994 2.528 4.75394 2.412 4.84994C2.3 4.94594 2.216 5.06194 2.16 5.19794C2.104 5.32994 2.076 5.47594 2.076 5.63594C2.076 5.83994 2.132 6.00994 2.244 6.14594C2.36 6.28194 2.512 6.39794 2.7 6.49394C2.888 6.58994 3.102 6.67594 3.342 6.75194C3.582 6.82794 3.826 6.90994 4.074 6.99794C4.326 7.08194 4.572 7.18194 4.812 7.29794C5.052 7.40994 5.266 7.55394 5.454 7.72994C5.642 7.90194 5.792 8.11394 5.904 8.36594C6.02 8.61794 6.078 8.92394 6.078 9.28394C6.078 9.67594 6.01 10.0439 5.874 10.3879C5.742 10.7279 5.546 11.0259 5.286 11.2819C5.03 11.5339 4.716 11.7339 4.344 11.8819C3.972 12.0259 3.546 12.0979 3.066 12.0979C2.79 12.0979 2.518 12.0699 2.25 12.0139C1.982 11.9619 1.724 11.8859 1.476 11.7859C1.232 11.6859 1.002 11.5659 0.786003 11.4259C0.574003 11.2859 0.384003 11.1299 0.216003 10.9579L0.684003 10.1839C0.728003 10.1279 0.780003 10.0819 0.840003 10.0459C0.904003 10.0059 0.974003 9.98594 1.05 9.98594C1.15 9.98594 1.258 10.0279 1.374 10.1119C1.49 10.1919 1.626 10.2819 1.782 10.3819C1.942 10.4819 2.128 10.5739 2.34 10.6579C2.556 10.7379 2.814 10.7779 3.114 10.7779C3.574 10.7779 3.93 10.6699 4.182 10.4539C4.434 10.2339 4.56 9.91994 4.56 9.51194C4.56 9.28394 4.502 9.09794 4.386 8.95394C4.274 8.80994 4.124 8.68994 3.936 8.59394C3.748 8.49394 3.534 8.40994 3.294 8.34194C3.054 8.27394 2.81 8.19994 2.562 8.11994C2.314 8.03994 2.07 7.94394 1.83 7.83194C1.59 7.71994 1.376 7.57394 1.188 7.39394C1 7.21394 0.848003 6.98994 0.732003 6.72194C0.620003 6.44994 0.564003 6.11594 0.564003 5.71994C0.564003 5.40394 0.626003 5.09594 0.750003 4.79594C0.878003 4.49594 1.062 4.22994 1.302 3.99794C1.546 3.76594 1.844 3.57994 2.196 3.43994C2.548 3.29994 2.95 3.22994 3.402 3.22994C3.914 3.22994 4.386 3.30994 4.818 3.46994C5.25 3.62994 5.618 3.85394 5.922 4.14194L5.526 4.90394ZM8.80359 5.84594V12.0019H7.32159V5.84594H8.80359ZM9.02559 4.05194C9.02559 4.17994 8.99959 4.29994 8.94759 4.41194C8.89559 4.52394 8.82559 4.62194 8.73759 4.70594C8.65359 4.78994 8.55359 4.85794 8.43759 4.90994C8.32159 4.95794 8.19759 4.98194 8.06559 4.98194C7.93759 4.98194 7.81559 4.95794 7.69959 4.90994C7.58759 4.85794 7.48959 4.78994 7.40559 4.70594C7.32159 4.62194 7.25359 4.52394 7.20159 4.41194C7.15359 4.29994 7.12959 4.17994 7.12959 4.05194C7.12959 3.91994 7.15359 3.79594 7.20159 3.67994C7.25359 3.56394 7.32159 3.46394 7.40559 3.37994C7.48959 3.29594 7.58759 3.22994 7.69959 3.18194C7.81559 3.12994 7.93759 3.10394 8.06559 3.10394C8.19759 3.10394 8.32159 3.12994 8.43759 3.18194C8.55359 3.22994 8.65359 3.29594 8.73759 3.37994C8.82559 3.46394 8.89559 3.56394 8.94759 3.67994C8.99959 3.79594 9.02559 3.91994 9.02559 4.05194ZM12.0614 3.08594V12.0019H10.5794V3.08594H12.0614ZM13.7412 12.0019V3.08594H15.2232V6.51194C15.4632 6.28394 15.7272 6.09994 16.0152 5.95994C16.3032 5.81994 16.6412 5.74994 17.0292 5.74994C17.3652 5.74994 17.6632 5.80794 17.9232 5.92394C18.1832 6.03594 18.3992 6.19594 18.5712 6.40394C18.7472 6.60794 18.8792 6.85394 18.9672 7.14194C19.0592 7.42594 19.1052 7.73994 19.1052 8.08394V12.0019H17.6232V8.08394C17.6232 7.70794 17.5352 7.41794 17.3592 7.21394C17.1872 7.00594 16.9272 6.90194 16.5792 6.90194C16.3232 6.90194 16.0832 6.95994 15.8592 7.07594C15.6352 7.19194 15.4232 7.34994 15.2232 7.54994V12.0019H13.7412ZM23.1895 5.74994C23.6495 5.74994 24.0655 5.82394 24.4375 5.97194C24.8135 6.11994 25.1335 6.32994 25.3975 6.60194C25.6615 6.87394 25.8655 7.20594 26.0095 7.59794C26.1535 7.98994 26.2255 8.42794 26.2255 8.91194C26.2255 9.39994 26.1535 9.83994 26.0095 10.2319C25.8655 10.6239 25.6615 10.9579 25.3975 11.2339C25.1335 11.5099 24.8135 11.7219 24.4375 11.8699C24.0655 12.0179 23.6495 12.0919 23.1895 12.0919C22.7295 12.0919 22.3115 12.0179 21.9355 11.8699C21.5595 11.7219 21.2375 11.5099 20.9695 11.2339C20.7055 10.9579 20.4995 10.6239 20.3515 10.2319C20.2075 9.83994 20.1355 9.39994 20.1355 8.91194C20.1355 8.42794 20.2075 7.98994 20.3515 7.59794C20.4995 7.20594 20.7055 6.87394 20.9695 6.60194C21.2375 6.32994 21.5595 6.11994 21.9355 5.97194C22.3115 5.82394 22.7295 5.74994 23.1895 5.74994ZM23.1895 10.9519C23.7015 10.9519 24.0795 10.7799 24.3235 10.4359C24.5715 10.0919 24.6955 9.58794 24.6955 8.92394C24.6955 8.25994 24.5715 7.75394 24.3235 7.40594C24.0795 7.05794 23.7015 6.88394 23.1895 6.88394C22.6695 6.88394 22.2855 7.05994 22.0375 7.41194C21.7895 7.75994 21.6655 8.26394 21.6655 8.92394C21.6655 9.58394 21.7895 10.0879 22.0375 10.4359C22.2855 10.7799 22.6695 10.9519 23.1895 10.9519ZM28.7378 5.84594V9.75794C28.7378 10.1339 28.8238 10.4259 28.9958 10.6339C29.1718 10.8379 29.4338 10.9399 29.7818 10.9399C30.0378 10.9399 30.2778 10.8839 30.5018 10.7719C30.7258 10.6559 30.9378 10.4979 31.1378 10.2979V5.84594H32.6198V12.0019H31.7138C31.5218 12.0019 31.3958 11.9119 31.3358 11.7319L31.2338 11.2399C31.1058 11.3679 30.9738 11.4859 30.8378 11.5939C30.7018 11.6979 30.5558 11.7879 30.3998 11.8639C30.2478 11.9359 30.0818 11.9919 29.9018 12.0319C29.7258 12.0759 29.5358 12.0979 29.3318 12.0979C28.9958 12.0979 28.6978 12.0419 28.4378 11.9299C28.1818 11.8139 27.9658 11.6519 27.7898 11.4439C27.6138 11.2359 27.4798 10.9899 27.3878 10.7059C27.2998 10.4179 27.2558 10.1019 27.2558 9.75794V5.84594H28.7378ZM36.7462 5.74994C37.1342 5.74994 37.4902 5.81194 37.8142 5.93594C38.1422 6.05994 38.4242 6.24194 38.6602 6.48194C38.8962 6.71794 39.0802 7.00994 39.2122 7.35794C39.3442 7.70194 39.4102 8.09594 39.4102 8.53994C39.4102 8.65194 39.4042 8.74594 39.3922 8.82194C39.3842 8.89394 39.3662 8.95194 39.3382 8.99594C39.3142 9.03594 39.2802 9.06594 39.2362 9.08594C39.1922 9.10194 39.1362 9.10994 39.0682 9.10994H35.2642C35.3082 9.74194 35.4782 10.2059 35.7742 10.5019C36.0702 10.7979 36.4622 10.9459 36.9502 10.9459C37.1902 10.9459 37.3962 10.9179 37.5682 10.8619C37.7442 10.8059 37.8962 10.7439 38.0242 10.6759C38.1562 10.6079 38.2702 10.5459 38.3662 10.4899C38.4662 10.4339 38.5622 10.4059 38.6542 10.4059C38.7142 10.4059 38.7662 10.4179 38.8102 10.4419C38.8542 10.4659 38.8922 10.4999 38.9242 10.5439L39.3562 11.0839C39.1922 11.2759 39.0082 11.4379 38.8042 11.5699C38.6002 11.6979 38.3862 11.8019 38.1622 11.8819C37.9422 11.9579 37.7162 12.0119 37.4842 12.0439C37.2562 12.0759 37.0342 12.0919 36.8182 12.0919C36.3902 12.0919 35.9922 12.0219 35.6242 11.8819C35.2562 11.7379 34.9362 11.5279 34.6642 11.2519C34.3922 10.9719 34.1782 10.6279 34.0222 10.2199C33.8662 9.80794 33.7882 9.33194 33.7882 8.79194C33.7882 8.37194 33.8562 7.97794 33.9922 7.60994C34.1282 7.23794 34.3222 6.91594 34.5742 6.64394C34.8302 6.36794 35.1402 6.14994 35.5042 5.98994C35.8722 5.82994 36.2862 5.74994 36.7462 5.74994ZM36.7762 6.81194C36.3442 6.81194 36.0062 6.93394 35.7622 7.17794C35.5182 7.42194 35.3622 7.76794 35.2942 8.21594H38.0782C38.0782 8.02394 38.0522 7.84394 38.0002 7.67594C37.9482 7.50394 37.8682 7.35394 37.7602 7.22594C37.6522 7.09794 37.5162 6.99794 37.3522 6.92594C37.1882 6.84994 36.9962 6.81194 36.7762 6.81194ZM42.6343 12.0979C42.1023 12.0979 41.6923 11.9479 41.4043 11.6479C41.1163 11.3439 40.9723 10.9259 40.9723 10.3939V6.95594H40.3483C40.2683 6.95594 40.1983 6.92994 40.1383 6.87794C40.0823 6.82594 40.0543 6.74794 40.0543 6.64394V6.05594L41.0443 5.89394L41.3563 4.21394C41.3723 4.13394 41.4083 4.07194 41.4643 4.02794C41.5243 3.98394 41.5983 3.96194 41.6863 3.96194H42.4543V5.89994H44.0743V6.95594H42.4543V10.2919C42.4543 10.4839 42.5023 10.6339 42.5983 10.7419C42.6943 10.8499 42.8223 10.9039 42.9823 10.9039C43.0743 10.9039 43.1503 10.8939 43.2103 10.8739C43.2743 10.8499 43.3283 10.8259 43.3723 10.8019C43.4203 10.7779 43.4623 10.7559 43.4983 10.7359C43.5343 10.7119 43.5703 10.6999 43.6063 10.6999C43.6503 10.6999 43.6863 10.7119 43.7143 10.7359C43.7423 10.7559 43.7723 10.7879 43.8043 10.8319L44.2483 11.5519C44.0323 11.7319 43.7843 11.8679 43.5043 11.9599C43.2243 12.0519 42.9343 12.0979 42.6343 12.0979ZM47.2749 12.0979C46.7429 12.0979 46.3329 11.9479 46.0449 11.6479C45.7569 11.3439 45.6129 10.9259 45.6129 10.3939V6.95594H44.9889C44.9089 6.95594 44.8389 6.92994 44.7789 6.87794C44.7229 6.82594 44.6949 6.74794 44.6949 6.64394V6.05594L45.6849 5.89394L45.9969 4.21394C46.0129 4.13394 46.0489 4.07194 46.1049 4.02794C46.1649 3.98394 46.2389 3.96194 46.3269 3.96194H47.0949V5.89994H48.7149V6.95594H47.0949V10.2919C47.0949 10.4839 47.1429 10.6339 47.2389 10.7419C47.3349 10.8499 47.4629 10.9039 47.6229 10.9039C47.7149 10.9039 47.7909 10.8939 47.8509 10.8739C47.9149 10.8499 47.9689 10.8259 48.0129 10.8019C48.0609 10.7779 48.1029 10.7559 48.1389 10.7359C48.1749 10.7119 48.2109 10.6999 48.2469 10.6999C48.2909 10.6999 48.3269 10.7119 48.3549 10.7359C48.3829 10.7559 48.4129 10.7879 48.4449 10.8319L48.8889 11.5519C48.6729 11.7319 48.4249 11.8679 48.1449 11.9599C47.8649 12.0519 47.5749 12.0979 47.2749 12.0979ZM52.4376 5.74994C52.8256 5.74994 53.1816 5.81194 53.5056 5.93594C53.8336 6.05994 54.1156 6.24194 54.3516 6.48194C54.5876 6.71794 54.7716 7.00994 54.9036 7.35794C55.0356 7.70194 55.1016 8.09594 55.1016 8.53994C55.1016 8.65194 55.0956 8.74594 55.0836 8.82194C55.0756 8.89394 55.0576 8.95194 55.0296 8.99594C55.0056 9.03594 54.9716 9.06594 54.9276 9.08594C54.8836 9.10194 54.8276 9.10994 54.7596 9.10994H50.9556C50.9996 9.74194 51.1696 10.2059 51.4656 10.5019C51.7616 10.7979 52.1536 10.9459 52.6416 10.9459C52.8816 10.9459 53.0876 10.9179 53.2596 10.8619C53.4356 10.8059 53.5876 10.7439 53.7156 10.6759C53.8476 10.6079 53.9616 10.5459 54.0576 10.4899C54.1576 10.4339 54.2536 10.4059 54.3456 10.4059C54.4056 10.4059 54.4576 10.4179 54.5016 10.4419C54.5456 10.4659 54.5836 10.4999 54.6156 10.5439L55.0476 11.0839C54.8836 11.2759 54.6996 11.4379 54.4956 11.5699C54.2916 11.6979 54.0776 11.8019 53.8536 11.8819C53.6336 11.9579 53.4076 12.0119 53.1756 12.0439C52.9476 12.0759 52.7256 12.0919 52.5096 12.0919C52.0816 12.0919 51.6836 12.0219 51.3156 11.8819C50.9476 11.7379 50.6276 11.5279 50.3556 11.2519C50.0836 10.9719 49.8696 10.6279 49.7136 10.2199C49.5576 9.80794 49.4796 9.33194 49.4796 8.79194C49.4796 8.37194 49.5476 7.97794 49.6836 7.60994C49.8196 7.23794 50.0136 6.91594 50.2656 6.64394C50.5216 6.36794 50.8316 6.14994 51.1956 5.98994C51.5636 5.82994 51.9776 5.74994 52.4376 5.74994ZM52.4676 6.81194C52.0356 6.81194 51.6976 6.93394 51.4536 7.17794C51.2096 7.42194 51.0536 7.76794 50.9856 8.21594H53.7696C53.7696 8.02394 53.7436 7.84394 53.6916 7.67594C53.6396 7.50394 53.5596 7.35394 53.4516 7.22594C53.3436 7.09794 53.2076 6.99794 53.0436 6.92594C52.8796 6.84994 52.6876 6.81194 52.4676 6.81194ZM59.9577 7.04594C59.9177 7.10994 59.8757 7.15594 59.8317 7.18394C59.7877 7.20794 59.7317 7.21994 59.6637 7.21994C59.5917 7.21994 59.5137 7.19994 59.4297 7.15994C59.3497 7.11994 59.2557 7.07594 59.1477 7.02794C59.0397 6.97594 58.9157 6.92994 58.7757 6.88994C58.6397 6.84994 58.4777 6.82994 58.2897 6.82994C57.9977 6.82994 57.7677 6.89194 57.5997 7.01594C57.4317 7.13994 57.3477 7.30194 57.3477 7.50194C57.3477 7.63394 57.3897 7.74594 57.4737 7.83794C57.5617 7.92594 57.6757 8.00394 57.8157 8.07194C57.9597 8.13994 58.1217 8.20194 58.3017 8.25794C58.4817 8.30994 58.6657 8.36794 58.8537 8.43194C59.0417 8.49594 59.2257 8.56994 59.4057 8.65394C59.5857 8.73394 59.7457 8.83794 59.8857 8.96594C60.0297 9.08994 60.1437 9.23994 60.2277 9.41594C60.3157 9.59194 60.3597 9.80394 60.3597 10.0519C60.3597 10.3479 60.3057 10.6219 60.1977 10.8739C60.0897 11.1219 59.9317 11.3379 59.7237 11.5219C59.5157 11.7019 59.2577 11.8439 58.9497 11.9479C58.6457 12.0479 58.2957 12.0979 57.8997 12.0979C57.6877 12.0979 57.4797 12.0779 57.2757 12.0379C57.0757 12.0019 56.8817 11.9499 56.6937 11.8819C56.5097 11.8139 56.3377 11.7339 56.1777 11.6419C56.0217 11.5499 55.8837 11.4499 55.7637 11.3419L56.1057 10.7779C56.1497 10.7099 56.2017 10.6579 56.2617 10.6219C56.3217 10.5859 56.3977 10.5679 56.4897 10.5679C56.5817 10.5679 56.6677 10.5939 56.7477 10.6459C56.8317 10.6979 56.9277 10.7539 57.0357 10.8139C57.1437 10.8739 57.2697 10.9299 57.4137 10.9819C57.5617 11.0339 57.7477 11.0599 57.9717 11.0599C58.1477 11.0599 58.2977 11.0399 58.4217 10.9999C58.5497 10.9559 58.6537 10.8999 58.7337 10.8319C58.8177 10.7639 58.8777 10.6859 58.9137 10.5979C58.9537 10.5059 58.9737 10.4119 58.9737 10.3159C58.9737 10.1719 58.9297 10.0539 58.8417 9.96194C58.7577 9.86994 58.6437 9.78994 58.4997 9.72194C58.3597 9.65394 58.1977 9.59394 58.0137 9.54194C57.8337 9.48594 57.6477 9.42594 57.4557 9.36194C57.2677 9.29794 57.0817 9.22394 56.8977 9.13994C56.7177 9.05194 56.5557 8.94194 56.4117 8.80994C56.2717 8.67794 56.1577 8.51594 56.0697 8.32394C55.9857 8.13194 55.9437 7.89994 55.9437 7.62794C55.9437 7.37594 55.9937 7.13594 56.0937 6.90794C56.1937 6.67994 56.3397 6.48194 56.5317 6.31394C56.7277 6.14194 56.9697 6.00594 57.2577 5.90594C57.5497 5.80194 57.8857 5.74994 58.2657 5.74994C58.6897 5.74994 59.0757 5.81994 59.4237 5.95994C59.7717 6.09994 60.0617 6.28394 60.2937 6.51194L59.9577 7.04594Z" fill="white"/>
<path d="M23.4535 69.1367C23.3029 69.2167 23.1737 69.2228 23.202 69.2485C24.1048 69.1309 25.1143 69.9761 25.9534 70.4066C26.5744 70.8442 27.1904 71.4067 27.6988 71.9514C28.0342 72.3109 28.3458 72.691 28.6591 73.0694C28.7461 73.1745 28.9238 73.2826 29.0496 73.3385C29.1357 73.3768 29.1573 73.3983 29.2686 73.4198C29.351 73.4198 29.3725 73.4414 29.4801 73.3983C29.5447 73.3725 29.5607 73.348 29.578 73.3122C29.6092 73.2477 29.6346 73.1579 29.5843 73.0557C29.5677 73.022 29.5754 72.9841 29.578 72.9475C29.5932 72.735 29.6055 72.5223 29.6001 72.3093C29.5871 71.7991 29.5174 71.3009 29.2686 70.8442C29.235 70.7827 29.2376 70.7426 29.2842 70.693C29.5411 70.4199 29.7639 70.119 29.9951 69.8247C30.2708 69.4738 30.6271 69.2497 31.0703 69.1654C31.4105 69.1006 31.7538 69.0879 32.0985 69.0872C32.3907 69.0867 32.6833 69.11 32.9753 69.0798C33.141 69.0626 33.2995 69.0211 33.4419 68.9307C33.6892 68.7737 33.8257 68.4739 33.7512 68.1873C33.6843 67.93 33.7346 67.7261 33.9456 67.5626C33.9944 67.5248 34.0263 67.4712 34.0537 67.4168C34.1104 67.3044 34.0884 67.1882 33.9984 67.0994C33.9841 67.0853 33.9597 67.0774 33.9617 67.0507C34.2626 66.9264 34.3317 66.7139 34.162 66.4315C34.1211 66.3634 34.0795 66.2961 34.0488 66.2223C34.0058 66.1187 34.0168 66.0284 34.0996 65.9467C34.1645 65.8827 34.229 65.8168 34.2836 65.7441C34.4732 65.4921 34.4072 65.1735 34.1345 65.0154C34.0582 64.9711 33.9761 64.9369 33.8991 64.8937C33.673 64.7669 33.5244 64.5903 33.5461 64.3143C33.554 64.214 33.5783 64.116 33.6128 64.0206C33.7129 63.7446 33.7935 63.4651 33.8024 63.1677C33.8148 62.7569 33.7253 62.3641 33.608 61.9749C33.5981 61.9418 33.5791 61.9095 33.5977 61.8697C33.7271 62.103 33.9399 62.3072 33.8337 62.635C33.9564 62.522 33.973 62.3849 34.0108 62.2371C34.0978 62.4633 34.1082 62.6807 34.1191 62.9102L34.1197 62.9225C34.2245 62.8036 34.2751 62.6756 34.3019 62.5362C34.353 62.2704 34.3081 62.015 34.2166 61.7651C34.0529 61.3178 33.7429 60.9809 33.3897 60.6768C33.3706 60.6604 33.3426 60.651 33.3369 60.6206C33.7737 60.5134 33.9725 60.3305 33.9326 60.064C33.7993 60.1723 33.6439 60.1796 33.4875 60.1657C33.3436 60.1529 33.2071 60.1051 33.0747 60.0481C32.9709 60.0034 32.8716 59.9494 32.7798 59.8834C32.4101 59.6176 31.9961 59.4399 31.5789 59.2654C31.3315 59.1619 31.0956 59.0304 30.8364 58.9554C30.3106 58.8031 29.7743 58.7718 29.2319 58.8255C29.0795 58.8406 28.9279 58.8646 28.753 58.8876C28.906 58.767 28.9994 58.6312 29.0476 58.4375C28.7483 58.7028 28.4033 58.7935 28.0397 58.8244C27.7483 58.8491 27.4538 58.8436 27.1643 58.8795C26.6592 58.9421 26.1727 59.0569 25.8826 59.5412C25.8675 59.5665 25.847 59.5735 25.8142 59.5709C25.3248 59.5321 24.8853 59.6876 24.4777 59.9369C24.0331 60.2087 23.7277 60.6167 23.446 61.0434C23.4341 61.0614 23.4188 61.0828 23.4337 61.1233C23.6697 60.8639 23.9072 60.6164 24.1837 60.4108C24.4612 60.2044 24.7532 60.0253 25.0983 59.9133C25.0902 59.936 25.0901 59.9404 25.0881 59.9416C25.0725 59.9503 25.0571 59.9596 25.0408 59.9666C24.6328 60.1436 24.319 60.4245 24.0928 60.8074C23.9336 61.0768 23.7773 61.3489 23.5767 61.5912C23.3024 61.9225 22.9849 62.1887 22.5449 62.2699C22.5228 62.274 22.4962 62.2748 22.4762 62.3059C22.5238 62.3302 22.5741 62.3383 22.624 62.348C22.8345 62.3891 23.0438 62.38 23.2481 62.319C23.3361 62.2926 23.3445 62.3215 23.3311 62.395C23.3058 62.5337 23.2722 62.67 23.1986 62.7917C22.9483 63.2051 22.5812 63.474 22.1337 63.6423C22.0812 63.6621 22.0256 63.6759 21.9598 63.7224C22.3168 63.6889 22.6153 63.548 22.9149 63.4015C22.9175 63.4207 22.9203 63.4268 22.9187 63.4315C22.7891 63.8016 22.7774 64.1709 22.9266 64.5394C22.9323 64.5534 22.9365 64.5686 22.9382 64.5835C22.9687 64.8599 23.1039 65.0899 23.2567 65.3137C23.3602 65.4652 23.4529 65.6228 23.4981 65.8041C23.5501 66.0123 23.5153 66.1902 23.3325 66.3224C23.3293 66.3247 23.3301 66.3327 23.328 66.3433C23.699 66.2965 23.8902 66.0779 23.9294 65.6954C24.0817 65.8936 24.196 66.0798 24.2469 66.2975C24.3267 66.639 24.1816 66.8844 23.8449 66.985C23.786 67.0026 23.7263 67.018 23.6463 67.0401C24.1262 67.0866 24.5594 66.7931 24.6567 66.3719C24.6647 66.3769 24.6753 66.3796 24.6792 66.3863C24.8071 66.6074 24.9132 66.8368 24.9238 67.0971C24.9385 67.4623 24.7819 67.7022 24.4471 67.8379C24.4399 67.8408 24.4352 67.8497 24.4245 67.8607C24.6692 67.9077 24.9045 67.9259 25.1143 67.7694C25.3176 67.6176 25.3984 67.3922 25.4655 67.1578C25.5378 67.3537 25.5918 67.5482 25.5597 67.7561C25.5295 67.9515 25.3891 68.0641 25.2353 68.1711C25.518 68.2599 25.8798 68.0611 26.1086 67.6882C26.0951 67.9053 26.0702 68.0993 25.9534 68.2696C25.8898 68.3624 25.8078 68.3988 25.6933 68.369C25.5247 68.3252 25.3519 68.2968 25.1847 68.2487C25.0306 68.2045 24.9188 68.2502 24.8225 68.3691C24.6593 68.5707 24.4512 68.7113 24.2083 68.8004C24.1138 68.835 24.0167 68.8623 23.9216 68.8953C23.721 68.9648 23.7764 68.9599 23.6042 69.0506C23.4816 69.1152 23.6561 69.0291 23.4535 69.1367Z" fill="white"/>
<path d="M49 49.2708C48.8914 49.4811 48.7556 49.5863 48.5113 49.5863C48.0225 49.6126 47.561 49.6389 47.0722 49.56C46.9908 49.56 46.9365 49.56 46.8822 49.56C46.9908 49.7703 47.1265 49.9806 47.2351 50.1909C47.5338 50.9533 47.4252 51.742 46.7736 52.3204C46.312 52.741 45.8232 53.0828 45.2259 53.2668C44.6557 53.4508 44.1127 53.3194 43.6511 52.9513C43.6239 52.925 43.6239 52.925 43.5696 52.8987C43.5425 53.1353 43.5425 53.3719 43.6239 53.5822C43.814 54.108 44.1127 54.6075 44.4113 55.107C44.4385 55.1333 44.4928 55.1333 44.52 55.1333C44.71 55.1333 44.9272 55.1333 45.1173 55.1596C45.4703 55.2122 45.6875 55.4225 45.7689 55.738C45.8504 55.9746 45.8775 56.2375 45.9318 56.4741C45.959 56.5529 45.9862 56.6581 46.0133 56.7369C46.0676 56.8947 46.1491 57.0787 46.1491 57.2627C46.1762 57.5256 46.0133 57.7359 45.7689 57.8411C45.4703 57.9988 45.1444 58.0777 44.8186 58.1303C44.4656 58.1566 44.1127 58.2617 43.814 58.4457C43.4067 58.6823 42.9723 58.9189 42.565 59.1555C42.1306 59.4184 41.7776 59.7602 41.5061 60.1545C41.2346 60.5226 40.9631 60.8906 40.6916 61.285C40.5829 61.469 40.5015 61.6793 40.42 61.8896C40.3929 61.9422 40.3929 62.0211 40.3114 61.9948C40.2843 61.9948 40.23 61.9159 40.23 61.8633C40.2571 61.5479 40.2571 61.2324 40.3114 60.9432C40.3657 60.7329 40.4743 60.5489 40.5829 60.3649C41.0445 59.5762 41.5604 58.8401 42.1849 58.1828C42.375 57.9725 42.565 57.7885 42.7822 57.6045C42.8094 57.5782 42.8365 57.5519 42.8637 57.5256C41.7233 58.3143 40.8816 59.3659 40.1757 60.5489C39.9041 60.1808 39.8498 59.7602 39.9313 59.3133C40.1214 58.3143 40.6372 57.4993 41.4246 56.8158C41.7505 56.5266 42.1034 56.2375 42.5107 56.0271C42.5379 56.0009 42.565 55.9746 42.565 55.922C42.5379 55.922 42.4836 55.8957 42.4564 55.922C42.2392 56.0271 42.022 56.1586 41.8048 56.29C41.5876 56.4215 41.3975 56.5792 41.1803 56.7107C41.0988 56.4741 41.0445 56.2637 40.9631 56.0271C40.8002 55.6065 40.6372 55.2122 40.4472 54.8178C40.2843 54.4498 39.9856 54.3183 39.6055 54.2658C39.0896 54.1869 38.5737 54.2921 38.0578 54.3709C37.6777 54.4235 37.3247 54.5287 36.9446 54.4761C36.6459 54.4235 36.4016 54.3183 36.2387 54.0555C36.13 53.8714 36.13 53.6874 36.1844 53.5034C36.2115 53.3982 36.2387 53.2931 36.293 53.1879C36.3744 52.9513 36.3201 52.8199 36.1029 52.7147C36.0486 52.6884 35.94 52.6621 35.9128 52.6095C35.8857 52.5044 35.8585 52.3729 35.8857 52.2678C35.9128 52.1889 36.0214 52.1101 36.1029 52.0575C36.0757 52.0312 36.0214 52.0049 35.9943 52.0049C35.8314 51.9523 35.8042 51.7946 35.7771 51.6631C35.7771 51.6369 35.8042 51.5843 35.8314 51.5317C36.13 51.2162 36.13 50.9796 35.6142 50.9008C35.5599 50.9008 35.4784 50.8745 35.4241 50.8482C35.2069 50.7956 35.0983 50.6116 35.1797 50.4013C35.2883 50.1647 35.3969 49.9281 35.5327 49.6915C35.6685 49.4286 35.7771 49.1657 35.9128 48.8765C36.0757 48.5347 36.1029 48.193 35.9671 47.8512C35.8314 47.5095 35.9128 47.194 35.94 46.8522C35.94 46.7471 35.9671 46.6682 35.9943 46.563C35.6685 46.4579 35.3426 46.3527 35.0168 46.2476C34.3923 46.0373 33.7678 45.8007 33.1977 45.4326C32.9804 45.2749 32.9261 45.0646 33.1162 44.8805C33.3334 44.6439 33.6049 44.5388 33.9036 44.5388C34.338 44.5125 34.7996 44.5125 35.234 44.5388C35.8314 44.5651 36.4287 44.6176 36.9989 44.6702C37.4876 44.7228 37.9764 44.7754 38.4379 44.8542C39.2525 44.9857 40.0671 45.1171 40.8545 45.2749C40.9631 45.3012 41.0445 45.3275 41.1531 45.3275C41.1803 45.3275 41.2346 45.3012 41.2617 45.3012C41.2346 45.2749 41.2074 45.2486 41.1803 45.2223C40.9359 45.1171 40.6915 45.012 40.4472 44.9331C39.7684 44.6965 39.0896 44.4862 38.4108 44.3285C37.9221 44.2233 37.4605 44.1707 36.9718 44.0656C36.9174 44.0656 36.8631 44.0393 36.7817 44.0393C36.836 43.9867 36.8903 43.9341 36.9446 43.8815C37.5962 43.2506 38.3022 42.7248 39.1167 42.3568C39.7684 42.0413 40.4743 41.9624 41.2074 42.015C42.0763 42.0676 42.918 42.2253 43.7054 42.5408C44.6286 42.9089 45.416 43.4083 46.0133 44.1707C46.2034 44.4073 46.3391 44.6702 46.3934 44.9857H46.4206C46.4477 44.5125 46.4749 44.013 46.502 43.5398C46.502 43.5398 46.502 43.5398 46.5292 43.5398C46.5563 43.7501 46.5835 43.9604 46.5835 44.1707C46.6106 44.5388 46.6106 44.9068 46.6106 45.3012C46.6106 45.38 46.6106 45.4589 46.5835 45.5115C46.5835 45.6166 46.5292 45.7218 46.6649 45.8007C46.6921 45.8007 46.6921 45.8532 46.6921 45.9058C46.855 45.6429 47.0179 45.38 47.1808 45.1171C47.3709 44.828 47.6153 44.5651 47.9411 44.381C48.0225 44.3285 48.0768 44.3285 48.1311 44.4073C48.3755 44.7228 48.3755 45.0383 48.2669 45.38C48.1311 45.7481 47.8868 46.0635 47.5881 46.3264C47.5338 46.379 47.4795 46.4053 47.4523 46.4579C47.6424 46.4842 47.8053 46.5105 47.9954 46.563C48.1583 46.6156 48.2941 46.7208 48.3484 46.9048C48.4027 47.0625 48.3484 47.194 48.2397 47.3254C48.2126 47.3517 48.1854 47.4043 48.2126 47.4306C48.2941 47.6935 48.1854 47.9301 48.0225 48.1141C47.9954 48.1404 47.9682 48.193 47.9139 48.2193C48.1311 48.3507 48.3484 48.4822 48.5384 48.6399C48.7013 48.745 48.8914 48.8502 49 49.0342C49 49.1394 49 49.2182 49 49.2708ZM43.1895 45.5115L43.1624 45.5378C43.1895 45.5641 43.2167 45.6166 43.2438 45.6429C43.7597 46.1424 44.357 46.4316 45.1173 46.4316C45.1716 46.4316 45.2531 46.4579 45.3074 46.5105C45.3888 46.563 45.4431 46.563 45.5246 46.5105C45.606 46.4579 45.5789 46.379 45.5246 46.3264C45.4974 46.2739 45.4703 46.195 45.4703 46.1161C45.5246 45.3275 45.1716 44.7491 44.4656 44.4599C44.3027 44.381 44.1941 44.4336 44.1941 44.6176C44.1941 44.9331 44.3299 45.196 44.4928 45.4589C44.6286 45.6955 44.7915 45.9321 44.9544 46.1687C44.3027 46.0635 43.7326 45.8532 43.1895 45.5115ZM47.8596 47.6409C47.7239 47.6146 47.5881 47.6146 47.4523 47.562C47.3709 47.5357 47.2623 47.4569 47.2623 47.378C47.2351 47.2466 47.398 47.2466 47.4795 47.2203C47.5881 47.1677 47.7239 47.1414 47.8325 47.0888C47.8325 47.0625 47.8325 47.0625 47.8325 47.0362C47.751 47.01 47.6424 46.9837 47.561 46.9837C47.2623 47.0362 46.9908 47.0888 46.6921 47.1414C46.6106 47.1677 46.5292 47.194 46.4206 47.2466C46.7736 47.4832 47.1265 47.6935 47.4523 47.9038C47.4795 47.9301 47.5338 47.9301 47.561 47.9301C47.6967 47.9564 47.8596 47.7723 47.8596 47.6409ZM48.0225 44.5388C47.5067 44.9331 47.2894 45.4852 47.0451 46.011C47.1808 45.9321 47.2894 45.8532 47.398 45.7744C47.6153 45.5903 47.8596 45.4063 47.9954 45.1697C48.1311 44.9594 48.1583 44.7491 48.0225 44.5388Z" fill="white"/>
<path d="M32 21C38.2287 21 43.9554 24.4697 48.1621 30.2539C52.368 36.0371 55 44.0759 55 53C55 61.9241 52.368 69.9629 48.1621 75.7461C43.9554 81.5303 38.2287 85 32 85C25.7713 85 20.0446 81.5303 15.8379 75.7461C11.632 69.9629 9 61.9241 9 53C9 44.0759 11.632 36.0371 15.8379 30.2539C20.0446 24.4697 25.7713 21 32 21Z" stroke="white" stroke-width="2"/>
<path d="M19.0263 50.7055C18.9904 50.5795 18.9879 50.4566 19.0398 50.3367C19.1108 50.1727 19.2005 50.0175 19.2885 49.8617C19.4321 49.6075 19.5768 49.3539 19.7203 49.0997C19.7444 49.057 19.7714 49.0151 19.7868 48.9639C19.6976 48.9369 19.6184 48.8968 19.5457 48.8431C19.4808 48.7951 19.4516 48.7362 19.4611 48.6587C19.4678 48.6042 19.4817 48.551 19.5029 48.5006C19.5816 48.3134 19.6517 48.1235 19.7063 47.9286C19.7346 47.8278 19.7983 47.7564 19.8895 47.7027C19.9197 47.6849 19.9494 47.674 19.9845 47.6708C20.046 47.6652 20.0449 47.6637 20.0476 47.601C20.0525 47.482 20.0319 47.3662 19.9856 47.2571C19.9422 47.1545 19.947 47.0595 19.9892 46.9578C20.0577 46.7926 20.1446 46.6363 20.2279 46.4783C20.337 46.2715 20.4082 46.054 20.422 45.8226C20.4301 45.6886 20.5173 45.6457 20.6096 45.6258C20.6884 45.6087 20.7681 45.6093 20.8466 45.6251C20.8915 45.6342 20.9103 45.6188 20.9152 45.5786C20.9169 45.5651 20.9197 45.5517 20.923 45.5385C20.946 45.4473 20.9354 45.3737 20.8627 45.2943C20.3833 44.7707 20.0881 44.1574 19.9265 43.4818C19.8421 43.1287 19.7732 42.7728 19.7167 42.4147C19.7091 42.366 19.6926 42.3213 19.6682 42.277C19.446 41.8744 19.2899 41.4498 19.2064 41.0006C19.1423 40.6556 19.1177 40.3082 19.143 39.9591C19.1766 39.4941 19.285 39.0449 19.4757 38.6147C19.6573 38.2048 19.9095 37.836 20.191 37.4849C20.4492 37.1629 20.7343 36.862 21.0093 36.5533C21.2455 36.2882 21.5604 36.1475 21.9082 36.0676C21.9745 36.0523 22.0411 36.0373 22.1082 36.026C22.1507 36.0188 22.1813 36.0005 22.2027 35.965C22.2225 35.9319 22.2456 35.9006 22.2648 35.8673C22.3165 35.7781 22.3403 35.6857 22.3002 35.5849C22.2933 35.5677 22.2752 35.5454 22.2989 35.5249C22.3227 35.5042 22.3453 35.5156 22.3701 35.5237C22.4406 35.547 22.4881 35.5977 22.5375 35.6468C22.5965 35.7054 22.5875 35.6969 22.6421 35.6502C22.9173 35.4148 23.2261 35.2351 23.5828 35.1363C23.6347 35.1219 23.6862 35.106 23.7376 35.0899C23.77 35.0798 23.7992 35.0786 23.821 35.1089C23.8421 35.138 23.822 35.1631 23.8062 35.1824C23.7752 35.2207 23.7379 35.2545 23.7014 35.292C23.7358 35.3023 23.7585 35.2813 23.7828 35.2705C24.1249 35.1198 24.4839 35.0286 24.859 35.0044C25.0871 34.9896 25.3138 35.0111 25.5318 35.0849C25.5881 35.104 25.644 35.1256 25.6894 35.1642C25.7121 35.1835 25.7419 35.2042 25.7242 35.2395C25.7074 35.2728 25.6785 35.2794 25.6388 35.2754C25.4807 35.2596 25.3231 35.2352 25.1633 35.2408C25.0559 35.2445 24.9487 35.251 24.8449 35.2909C24.9515 35.3059 25.058 35.3219 25.1647 35.3358C25.3899 35.3653 25.6133 35.4064 25.8394 35.4304C26.0696 35.4548 26.3002 35.4484 26.5302 35.4402C26.8826 35.4277 27.2342 35.3952 27.5873 35.4046C27.7187 35.4081 27.8476 35.4279 27.9713 35.4723C28.0055 35.4846 28.0518 35.4956 28.0541 35.5344C28.0567 35.5793 28.0064 35.5895 27.9715 35.6058C27.9524 35.6148 27.9315 35.6203 27.9132 35.633C28.025 35.6347 28.1348 35.6274 28.2443 35.622C28.4325 35.6128 28.6195 35.6197 28.8067 35.635C28.8867 35.6415 28.9564 35.6709 29.0096 35.7282C29.0682 35.7912 29.1256 35.8557 29.1677 35.9308C29.2135 36.0125 29.2564 36.096 29.3078 36.1744C29.3358 36.2171 29.3196 36.2434 29.2954 36.2762C29.2692 36.3118 29.2373 36.3036 29.2041 36.2931C29.1616 36.2796 29.1195 36.2649 29.0704 36.2485C29.068 36.2807 29.0865 36.299 29.098 36.3185C29.1862 36.469 29.2294 36.6329 29.2337 36.803C29.2388 37.0025 29.1894 37.1919 29.075 37.3623C28.9826 37.5 28.8786 37.6288 28.7526 37.7434C28.8298 37.8481 28.907 37.9491 28.9757 38.0557C29.2385 38.4633 29.4458 38.8956 29.6148 39.3462C29.7013 39.5769 29.7943 39.8052 29.8641 40.0415C29.8834 40.1068 29.9262 40.1629 29.9436 40.2305C29.9735 40.3464 29.9431 40.4453 29.8714 40.537C29.8561 40.5566 29.8413 40.5784 29.8212 40.5924C29.7153 40.666 29.7426 40.7707 29.7526 40.8686C29.7581 40.9228 29.7843 40.9336 29.8437 40.9243C29.9338 40.9102 30.0221 40.89 30.1054 40.8531C30.1158 40.8485 30.1261 40.8438 30.1367 40.8399C30.1924 40.8195 30.2395 40.8206 30.2454 40.8449C30.2554 40.8858 30.2349 40.9181 30.2038 40.9456C30.0901 41.0461 29.9652 41.1306 29.8228 41.19C29.8021 41.1987 29.782 41.2084 29.762 41.2174C29.7632 41.2482 29.7771 41.2716 29.7914 41.295C29.9976 41.6314 30.212 41.9629 30.4296 42.2926C30.5853 42.5283 30.7536 42.7551 30.9442 42.9655C31.003 43.0304 31.0094 43.0984 30.9905 43.1703C30.9472 43.3355 30.8427 43.4442 30.659 43.4679C30.5774 43.4784 30.4956 43.4884 30.4135 43.4938C30.3447 43.4984 30.2786 43.5117 30.2129 43.5301C30.1129 43.5581 30.0098 43.6807 30.0138 43.7787C30.0174 43.8691 30.0377 43.9569 30.0956 44.0323C30.1209 44.0652 30.145 44.0991 30.1728 44.13C30.2227 44.1856 30.2206 44.2436 30.1873 44.3044C30.1522 44.3688 30.0997 44.4173 30.0378 44.4586C29.9962 44.4864 29.9472 44.5038 29.8968 44.5543C29.9353 44.5845 29.9764 44.6106 30.0093 44.644C30.0746 44.7101 30.0875 44.7942 30.0742 44.8798C30.0645 44.9422 30.0188 44.9853 29.9638 45.0187C29.8893 45.0639 29.8162 45.1112 29.741 45.1552C29.6908 45.1846 29.6737 45.2254 29.6802 45.2796C29.6862 45.3287 29.6991 45.3757 29.7181 45.4216C29.7695 45.5458 29.8184 45.6709 29.8713 45.7944C29.9509 45.9808 29.9292 46.1568 29.8172 46.3243C29.7774 46.3839 29.7358 46.4427 29.6917 46.4995C29.6285 46.5808 29.542 46.631 29.4425 46.6626C29.2088 46.737 28.9682 46.7441 28.7254 46.7309C28.4319 46.715 28.1399 46.7285 27.8499 46.7756C27.7802 46.7869 27.7673 46.8062 27.7934 46.8677C27.8061 46.8977 27.8249 46.9258 27.8434 46.9532C27.9006 47.0378 27.9179 47.1286 27.8918 47.2263C27.8734 47.2949 27.8594 47.3652 27.8336 47.4312C27.7725 47.5876 27.7444 47.7497 27.7154 47.9136C27.6968 48.0184 27.7223 48.0773 27.8082 48.1366C27.9312 48.2214 28.0575 48.2985 28.1952 48.359C28.2597 48.3873 28.3223 48.4199 28.3854 48.4511C28.4373 48.4768 28.4637 48.5175 28.4723 48.5738C28.514 48.8491 28.5612 49.1235 28.6205 49.396C28.6818 49.6777 28.775 49.9491 28.9024 50.2094C28.9449 50.2963 28.98 50.3857 29.0071 50.4773C29.0278 50.5476 29.0408 50.622 28.9772 50.6844C28.9497 50.7113 28.9195 50.725 28.8793 50.7254C28.8179 50.7259 28.7617 50.7062 28.7044 50.6908C28.3893 50.6063 28.0775 50.5127 27.7791 50.382C27.76 50.3736 27.7405 50.3573 27.7152 50.3659C27.7141 50.389 27.732 50.3999 27.7436 50.4142C27.8438 50.5368 27.9561 50.6495 28.071 50.7587C28.4883 51.1549 28.8674 51.5816 29.2157 52.0346C29.4333 52.3178 29.6827 52.5766 29.9153 52.8484C30.0416 52.9959 30.1663 53.1446 30.2683 53.3094C30.3659 53.4671 30.4409 53.6347 30.5119 53.8043C30.5318 53.8519 30.5225 53.8908 30.4878 53.932C30.4233 54.0085 30.3481 54.0129 30.2593 53.9823C29.9757 53.8845 29.6972 53.7749 29.4235 53.6539C28.8585 53.4039 28.3366 53.083 27.8138 52.7628C27.1856 52.378 26.5592 51.9903 25.9148 51.6307C25.0665 51.1573 24.1664 50.8043 23.2107 50.5861C22.7815 50.4881 22.3468 50.422 21.9064 50.3891C21.6224 50.3679 21.3381 50.3563 21.0538 50.3658C20.525 50.3834 19.9979 50.4206 19.4817 50.543C19.3602 50.5718 19.2403 50.6057 19.1231 50.6482C19.0891 50.6606 19.0536 50.6711 19.0263 50.7055Z" fill="white"/>
</svg>
