<svg width="81" height="81" viewBox="0 0 81 81" fill="none" xmlns="http://www.w3.org/2000/svg">
<path d="M1.42114 80.359L23.4721 58.359C26.3354 60.5152 30.351 60.2379 32.8901 57.7106C34.8979 55.7262 35.5659 52.7536 34.5932 50.1051C33.6206 47.4567 31.1909 45.6207 28.3784 45.4059C25.562 45.191 22.8823 46.6442 21.5229 49.1168C20.1635 51.5894 20.3745 54.6285 22.062 56.8902L0 78.9492L9.9297 38.3012H9.93361C10.3984 36.3481 11.6797 34.6918 13.4531 33.7504L48.2621 15.2384L65.1331 32.0904L46.6211 66.9184C45.6758 68.6957 44.0117 69.977 42.0508 70.4418L1.42114 80.359ZM24.1321 56.238C25.6204 57.7224 27.8548 58.1638 29.7962 57.3552C31.7337 56.5505 32.9993 54.656 32.9993 52.5544C32.9993 50.4528 31.7337 48.5583 29.7962 47.7536C27.8548 46.945 25.6204 47.3864 24.1321 48.8708C23.1439 49.8395 22.5891 51.1677 22.5891 52.5544C22.5891 53.9411 23.1438 55.2692 24.1321 56.238ZM49.1321 13.297L67.0301 31.195L68.1317 32.2848V32.2887C69.6161 33.8043 71.6669 34.6403 73.7919 34.5895C75.663 34.5622 77.4403 33.7575 78.7021 32.3707C81.206 29.5973 81.0927 25.3434 78.4404 22.7105L58.0304 2.2305C56.589 0.8047 54.6398 0 52.6124 0H52.4015C50.5304 0.023438 48.7531 0.828121 47.4992 2.2188C44.9992 4.9922 45.1164 9.2383 47.7609 11.8711L49.1321 13.297Z" fill="white"/>
</svg>
