<svg width="1130" height="226" viewBox="0 0 1130 226" fill="none" xmlns="http://www.w3.org/2000/svg">
<path d="M449.627 70.2746C449.044 70.1137 449.02 69.914 448.694 69.5349H448.507V69.165L448.134 68.7952C447.555 68.3791 446.622 68.318 445.894 68.0554C445.956 67.5617 446.019 67.0697 446.081 66.576C446.07 66.5242 445.833 66.5205 445.894 66.2061H446.081V63.617C445.987 63.3101 445.575 62.4483 445.708 61.9526H445.894V60.6581H446.081V59.7334H446.267V58.4389H446.454V58.069H446.641L446.454 57.8841C446.516 57.6992 446.579 57.5142 446.641 57.3293H446.454V57.1444H446.641C446.921 55.7777 446.661 52.3361 446.454 51.2265C446.516 50.9806 446.579 50.7327 446.641 50.4868H446.454C446.392 49.6231 446.329 48.7614 446.267 47.8977H446.081V47.3429H445.894C445.956 47.158 446.019 46.973 446.081 46.7881H445.894C445.833 46.2943 445.769 45.8024 445.708 45.3086H445.521V43.6442H445.334V38.4661C445.334 36.5835 445.446 34.7471 444.961 33.288H444.774C444.713 32.3023 444.649 31.3147 444.588 30.3291C444.588 30.3235 444.871 30.1811 444.774 29.7743H444.588V25.8907H444.401V24.5961H444.214C444.089 23.9174 443.966 23.2406 443.841 22.5619H443.655V21.8221H443.468V21.4523H443.281V20.1577H443.095C443.033 19.6029 442.97 19.0481 442.908 18.4933H442.721V17.7536H442.535V17.1988H442.348V16.4591H442.162V16.0892H441.975V15.3495H441.788V14.9796H441.602V14.2399H441.415C441.29 13.87 441.167 13.5001 441.042 13.1303H440.855V12.5755H440.669C440.607 12.3295 440.543 12.0817 440.482 11.8357H440.295V11.4659H440.109V10.9111C439.984 10.85 439.86 10.7872 439.735 10.7261V10.3563L439.362 9.9864V9.61653H439.175V9.24666C439.05 9.18564 438.927 9.12276 438.802 9.06173C438.741 8.81577 438.677 8.56796 438.616 8.322C438.429 8.19809 438.242 8.07604 438.056 7.95213V7.58226C437.931 7.52124 437.807 7.45836 437.682 7.39733V7.02746C437.184 6.71863 436.688 6.41164 436.189 6.1028C435.831 5.74588 435.727 4.89703 435.256 4.62333C434.945 4.5623 434.635 4.49943 434.323 4.4384C433.95 4.0075 433.577 3.57476 433.203 3.14387H432.83C432.768 3.01996 432.705 2.8979 432.643 2.774C431.897 2.65009 431.15 2.52804 430.404 2.40413C430.342 2.28023 430.279 2.15817 430.217 2.03427C430.031 1.97324 429.844 1.91036 429.657 1.84933V1.6644H429.284V1.47947H428.911V1.29453H428.351V1.1096H427.791V0.924666C426.649 0.523361 425.83 1.10775 424.618 0.739733V0.5548H423.685V0.369867H423.125V0.184933H422.379V0H411.554V0.184933C411.181 0.245961 410.808 0.308839 410.435 0.369867V0.5548H410.061V0.739733H408.568C407.697 0.863638 406.827 0.985694 405.955 1.1096V1.29453C405.707 1.35556 405.457 1.41844 405.209 1.47947V1.6644H404.649V1.84933C404.401 1.91036 404.151 1.97324 403.903 2.03427V2.2192H403.529C403.468 2.3431 403.404 2.46516 403.343 2.58907H402.969C402.783 2.83503 402.596 3.08284 402.409 3.3288H402.036C401.975 3.4527 401.911 3.57476 401.85 3.69867H401.29V3.8836H400.916V4.06853H400.357C400.295 4.19244 400.232 4.31449 400.17 4.4384H399.61V4.62333H399.237V4.80826H398.864C398.677 5.05423 398.49 5.30204 398.304 5.548C398.055 5.60903 397.805 5.6719 397.557 5.73293C396.811 6.41164 396.064 7.08849 395.318 7.7672C395.256 8.01316 395.193 8.26097 395.131 8.50693H394.944C394.883 8.69186 394.819 8.8768 394.758 9.06173L394.384 9.24666V9.61653C393.886 10.0474 393.39 10.4802 392.891 10.9111C392.83 11.157 392.766 11.4048 392.705 11.6508L392.331 11.8357V12.2056H392.145V12.5755H391.958C391.436 13.7535 391.843 15.7508 391.398 17.0139C391.585 17.0749 391.772 17.1378 391.958 17.1988C392.145 16.644 392.331 16.0892 392.518 15.5344V15.3495H392.705L392.891 15.5344V15.7193H392.705V16.644H392.518C392.393 17.7536 392.27 18.8632 392.145 19.9728H391.958C391.897 20.3427 391.833 20.7125 391.772 21.0824H391.585V21.4523H391.398C391.273 22.0071 391.15 22.5619 391.025 23.1167H390.838V23.4865H390.652C390.527 24.2263 390.404 24.966 390.279 25.7057C390.452 26.2661 391.251 26.6637 391.025 27.5551H390.838V28.4797H390.652C390.59 28.7257 390.527 28.9735 390.465 29.2195L390.092 29.4044V29.7743L389.719 29.9592V30.3291C389.345 30.6379 388.972 30.9449 388.599 31.2537V31.6236C388.412 31.7475 388.226 31.8695 388.039 31.9935V32.3633L387.666 32.5483V32.9181C387.479 33.042 387.292 33.1641 387.106 33.288V33.6579C386.583 34.3754 385.484 34.6953 384.866 35.3223C384.558 35.6348 384.452 36.1415 384.12 36.4319V37.5415L384.493 37.7264C384.775 38.0371 385.032 38.4661 385.426 38.6511H385.986V38.836H386.359V39.0209H386.919V39.2059C387.615 39.4333 388.5 39.008 388.972 39.3908C389.108 39.5776 389.226 39.3224 389.159 39.5757H388.972V40.1305H388.786V41.61C388.66 41.9965 388.102 42.8435 388.412 43.6442H388.599V44.0141C388.847 44.138 389.097 44.2601 389.345 44.384C389.284 44.9388 389.22 45.4936 389.159 46.0484H389.345V46.4182C389.905 46.8491 390.465 47.2819 391.025 47.7128C390.824 49.4142 389.874 49.6897 389.905 51.7813C390.273 52.1031 390.062 52.2085 390.279 52.521C390.59 52.767 390.9 53.0148 391.212 53.2608V53.6306L391.585 53.8156V54.1854L391.958 54.3704V54.5553H392.331V54.7402H392.705C392.766 54.8642 392.83 54.9862 392.891 55.1101H393.451V55.295H394.198C394.259 55.419 394.323 55.541 394.384 55.6649H394.758V55.8498C395.011 56.0181 395.084 55.9867 395.504 56.0348C395.458 56.4546 395.48 56.5175 395.318 56.7745H395.131V57.3293H394.944C394.993 58.6294 395.202 58.3705 395.877 58.9937L396.251 59.1786V59.9184H396.437C396.499 60.1643 396.562 60.4121 396.624 60.6581L396.997 60.843L396.811 61.028L396.997 61.2129V61.3978H396.811C396.867 61.6531 396.917 61.3331 396.997 61.5828V62.3225C397.184 62.4464 397.37 62.5685 397.557 62.6924V64.7266C397.74 65.2666 398.037 65.2666 398.117 66.0212C397.111 65.9712 395.788 65.5348 395.131 66.2061C394.883 66.391 394.633 66.576 394.384 66.7609V67.3157H394.198C394.336 68.601 395.002 68.3606 395.504 69.165C395.069 69.6588 394.633 70.1507 394.198 70.6445H393.825L393.451 71.0144H393.078V71.1993H392.705V71.3842H392.331C391.897 71.6931 391.46 72.0001 391.025 72.3089V72.8637H391.212V73.0486C391.585 72.9247 391.958 72.8027 392.331 72.6788V72.4938H392.891V72.3089L393.265 72.4938V72.3089C393.638 72.2479 394.011 72.185 394.384 72.124C394.648 72.1369 394.31 72.3477 394.571 72.3089V72.124C394.819 72.0629 395.069 72.0001 395.318 71.939V71.7541C395.652 71.4933 395.762 71.3269 396.251 71.1993C396.409 71.4083 396.226 71.2289 396.437 71.3842C396.376 71.5692 396.312 71.7541 396.251 71.939H396.064C396.002 72.2479 395.939 72.5549 395.877 72.8637H395.691V73.4185H395.504C395.379 73.9733 395.256 74.5281 395.131 75.0829C395.193 75.2068 395.256 75.3289 395.318 75.4528H395.131V76.0076H394.944C394.672 76.8657 395.174 77.9531 394.758 78.5966C394.446 78.8426 394.136 79.0904 393.825 79.3364V79.7062C393.451 80.0151 393.078 80.3221 392.705 80.6309V81.0008L392.331 81.1857V81.5556C391.837 82.2842 391.051 82.7447 390.838 83.7748H390.465C390.34 84.1446 390.217 84.5145 390.092 84.8844L389.719 85.0693C389.657 85.3153 389.594 85.5631 389.532 85.809L389.159 85.994V86.3638L388.786 86.7337V87.1036H388.599V87.4734H388.412V87.8433L388.039 88.0282V88.3981L387.666 88.768C387.604 89.0139 387.541 89.2617 387.479 89.5077C387.292 89.6316 387.106 89.7537 386.919 89.8776V90.4324H386.733V90.8022H386.546V91.1721L386.173 91.357V91.9118H385.986V92.2817H385.799C385.674 92.6516 385.551 93.0214 385.426 93.3913H385.24V93.9461L384.866 94.131V94.6858H384.68V95.0557H384.493V95.6105H384.306C384.181 95.9804 384.058 96.3502 383.933 96.7201H383.747V97.4598H383.56V97.8297H383.373V98.5694H383.187V99.1242H383V106.152H383.187V106.706L383.56 106.891V107.446H383.747V107.816H383.933V108.371H384.12C384.181 108.617 384.245 108.865 384.306 109.111H384.493V109.48L384.866 109.665V110.035C385.115 110.22 385.365 110.405 385.613 110.59V110.96L385.986 111.33H386.359C386.546 111.576 386.733 111.824 386.919 112.07H387.292L387.479 112.439H388.039C389.401 112.979 391.262 113.02 393.265 112.994C394.043 112.985 394.446 112.78 394.944 112.624H395.877V112.439H396.437V112.254H396.997L397.184 111.885H397.557L397.744 111.515H398.117C398.242 111.33 398.365 111.145 398.49 110.96C398.738 110.899 398.989 110.836 399.237 110.775L399.423 110.405H399.797C399.922 110.22 400.045 110.035 400.17 109.85H400.543L400.73 109.48H401.103V109.296C401.29 109.235 401.476 109.172 401.663 109.111L401.85 108.741H402.223C402.348 108.556 402.471 108.371 402.596 108.186H402.783V107.816C402.969 107.755 403.156 107.692 403.343 107.631C403.468 107.446 403.591 107.261 403.716 107.076C403.964 107.015 404.214 106.952 404.462 106.891V106.706C404.649 106.583 404.836 106.461 405.022 106.337V106.152C405.271 106.213 405.521 106.276 405.769 106.337V106.152H406.142C406.204 105.967 406.267 105.782 406.329 105.597C406.515 105.536 406.702 105.473 406.889 105.412C407.014 105.227 407.137 105.042 407.262 104.857H407.635L407.822 104.487C408.008 104.426 408.195 104.363 408.382 104.302V104.117C408.755 103.994 409.128 103.871 409.501 103.748L409.688 103.378C410.061 103.317 410.435 103.254 410.808 103.193L410.994 102.823H411.368C411.554 102.577 411.741 102.329 411.928 102.083H412.301L412.674 101.713H413.047V101.528H413.421L413.607 101.158H414.167L414.354 100.789H414.914L415.1 100.419H415.66V100.234C415.908 100.173 416.158 100.11 416.407 100.049V99.864H416.967V99.679H417.526V99.4941H418.086V99.3092H418.646V99.1242H419.206V98.9393H419.579L419.766 98.5694H420.139V98.3845C420.824 98.3235 421.507 98.2606 422.192 98.1996C422.317 98.0146 422.44 97.8297 422.565 97.6448H422.939V97.4598C423.685 97.3359 424.432 97.2139 425.178 97.09V96.905H425.925V96.7201C426.05 96.7811 426.173 96.844 426.298 96.905V96.7201H426.671V96.5352H427.791V96.3502H429.657V96.1653H432.27V95.9804C432.582 95.9193 432.892 95.8565 433.203 95.7954V95.9804H434.696V95.7954H434.883V95.9804C435.07 95.9193 435.256 95.8565 435.443 95.7954V95.9804H436.189V95.7954H436.376V95.9804C436.897 95.997 437.664 95.6105 438.429 95.7954V95.9804C438.793 96.034 439.325 95.5939 439.922 95.7954V95.9804H440.295V96.1653C440.482 96.1043 440.669 96.0414 440.855 95.9804V96.1653C441.913 96.2263 442.97 96.2892 444.028 96.3502C444.145 95.9212 444.198 95.9138 444.401 95.6105H444.588V94.131C444.636 93.8925 444.442 91.775 444.214 91.1721C444.425 91.0149 444.244 91.1961 444.401 90.9872C444.774 91.0482 445.148 91.1111 445.521 91.1721V91.357C446.012 91.3348 446.155 91.2849 446.454 91.1721C446.516 90.8022 446.579 90.4324 446.641 90.0625H446.454V89.5077H446.267V88.768H446.081V88.0282H445.894V86.5488H445.708V84.5145H445.521V82.6652H445.334V81.5556H445.148V79.3364H444.961V78.7816H444.774C444.713 78.0418 444.649 77.3021 444.588 76.5624H444.401V76.0076H444.214V75.8226H444.401C444.554 74.6576 444.134 73.1559 444.774 72.4938C444.933 72.2849 444.75 72.4642 444.961 72.3089C445.148 73.0486 445.334 73.7884 445.521 74.5281H445.708C445.833 74.713 445.956 74.898 446.081 75.0829C446.454 75.2068 446.827 75.3289 447.201 75.4528V75.2678C447.803 75.1957 447.746 75.0995 448.134 74.898C448.149 74.1841 448.399 73.2798 448.134 72.6788C448.087 72.5734 447.891 72.6566 447.76 72.124C447.947 72.0629 448.134 72.0001 448.32 71.939C448.432 72.3089 448.294 72.0981 448.507 72.3089C448.666 72.5179 448.483 72.3385 448.694 72.4938C448.809 72.2571 448.875 72.0999 449.067 71.939V71.7541C449.379 71.8151 449.688 71.878 450 71.939C449.875 71.3842 449.752 70.8294 449.627 70.2746ZM442.908 83.9597C442.746 83.6046 442.479 83.0369 442.348 82.6652V81.9254H442.162V81.3706H441.975V80.8158H441.788C441.727 80.5699 441.663 80.3221 441.602 80.0761H441.415V79.5213H441.228C441.103 79.1514 440.98 78.7816 440.855 78.4117H440.669C440.607 78.1657 440.543 77.9179 440.482 77.672C440.357 77.6109 440.234 77.5481 440.109 77.487C440.047 77.2411 439.984 76.9933 439.922 76.7473H439.735C439.674 76.5013 439.61 76.2535 439.549 76.0076H439.362V75.4528H439.175V75.0829H438.989C438.927 74.4042 438.864 73.7273 438.802 73.0486H438.616V72.4938H438.429V71.939H438.242C438.117 71.2603 437.994 70.5835 437.869 69.9048H437.682C437.621 69.6588 437.557 69.411 437.496 69.165H437.309C437.248 68.8562 437.184 68.5492 437.123 68.2404H436.936V67.8705H436.749C436.378 66.8719 437.124 65.0151 437.309 64.3568V62.8773H437.496V60.843H437.682C438.056 62.3835 438.429 63.9259 438.802 65.4664V67.1308H438.989C439.114 67.5006 439.237 67.8705 439.362 68.2404H439.549V69.5349H439.735V70.2746H439.922V72.3089H440.109C440.17 72.5549 440.234 72.8027 440.295 73.0486C440.42 73.1097 440.543 73.1725 440.669 73.2336V73.6034H440.855V73.9733H441.042C441.103 74.3432 441.167 74.713 441.228 75.0829H441.415V75.6377H441.602V76.1925H441.788V76.7473H441.975C442.1 77.426 442.223 78.1029 442.348 78.7816H442.535C442.596 79.2753 442.66 79.7673 442.721 80.261H442.908C442.846 80.446 442.783 80.6309 442.721 80.8158H442.908C443.095 81.8644 443.281 82.9111 443.468 83.9597H442.908Z" fill="white"/>
<path d="M619.64 96.9408C621.213 96.9408 622.647 97.1875 623.94 97.6808C625.233 98.1741 626.34 98.8808 627.26 99.8008C628.193 100.721 628.913 101.841 629.42 103.161C629.94 104.468 630.2 105.941 630.2 107.581C630.2 109.234 629.94 110.728 629.42 112.061C628.913 113.381 628.193 114.508 627.26 115.441C626.34 116.361 625.233 117.074 623.94 117.581C622.647 118.074 621.213 118.321 619.64 118.321C618.053 118.321 616.607 118.074 615.3 117.581C614.007 117.074 612.887 116.361 611.94 115.441C611.007 114.508 610.28 113.381 609.76 112.061C609.253 110.728 609 109.234 609 107.581C609 105.941 609.253 104.468 609.76 103.161C610.28 101.841 611.007 100.721 611.94 99.8008C612.887 98.8808 614.007 98.1741 615.3 97.6808C616.607 97.1875 618.053 96.9408 619.64 96.9408ZM619.64 113.721C621.067 113.721 622.113 113.221 622.78 112.221C623.46 111.208 623.8 109.674 623.8 107.621C623.8 105.568 623.46 104.041 622.78 103.041C622.113 102.041 621.067 101.541 619.64 101.541C618.173 101.541 617.1 102.041 616.42 103.041C615.74 104.041 615.4 105.568 615.4 107.621C615.4 109.674 615.74 111.208 616.42 112.221C617.1 113.221 618.173 113.721 619.64 113.721ZM634.523 118.001V101.521L633.163 101.241C632.696 101.134 632.316 100.968 632.023 100.741C631.743 100.514 631.603 100.181 631.603 99.7408V97.3008H634.523V96.1208C634.523 94.9341 634.71 93.8608 635.083 92.9008C635.47 91.9408 636.016 91.1208 636.723 90.4408C637.443 89.7608 638.316 89.2341 639.343 88.8608C640.37 88.4875 641.536 88.3008 642.843 88.3008C643.35 88.3008 643.816 88.3341 644.243 88.4008C644.683 88.4541 645.136 88.5475 645.603 88.6808L645.483 91.7008C645.47 91.9141 645.41 92.0941 645.303 92.2408C645.21 92.3741 645.09 92.4875 644.943 92.5808C644.796 92.6608 644.63 92.7208 644.443 92.7608C644.27 92.8008 644.096 92.8208 643.923 92.8208C643.376 92.8208 642.89 92.8741 642.463 92.9808C642.036 93.0875 641.676 93.2808 641.383 93.5608C641.103 93.8275 640.89 94.1875 640.743 94.6408C640.596 95.0808 640.523 95.6408 640.523 96.3208V97.3008H645.403V101.541H640.723V118.001H634.523Z" fill="white"/>
<path d="M645.32 127.159V135.719H619.68V151.759H639.88V160.039H619.68V176.399H645.32V184.999H608.84V127.159H645.32ZM686.221 184.999H681.781C680.848 184.999 680.115 184.866 679.581 184.599C679.048 184.306 678.648 183.732 678.381 182.879L677.501 179.959C676.461 180.892 675.435 181.719 674.421 182.439C673.435 183.132 672.408 183.719 671.341 184.199C670.275 184.679 669.141 185.039 667.941 185.279C666.741 185.519 665.408 185.639 663.941 185.639C662.208 185.639 660.608 185.412 659.141 184.959C657.675 184.479 656.408 183.772 655.341 182.839C654.301 181.906 653.488 180.746 652.901 179.359C652.315 177.972 652.021 176.359 652.021 174.519C652.021 172.972 652.421 171.452 653.221 169.959C654.048 168.439 655.408 167.079 657.301 165.879C659.195 164.652 661.715 163.639 664.861 162.839C668.008 162.039 671.915 161.586 676.581 161.479V159.079C676.581 156.332 675.995 154.306 674.821 152.999C673.675 151.666 671.995 150.999 669.781 150.999C668.181 150.999 666.848 151.186 665.781 151.559C664.715 151.932 663.781 152.359 662.981 152.839C662.208 153.292 661.488 153.706 660.821 154.079C660.155 154.452 659.421 154.639 658.621 154.639C657.955 154.639 657.381 154.466 656.901 154.119C656.421 153.772 656.035 153.346 655.741 152.839L653.941 149.679C658.661 145.359 664.355 143.199 671.021 143.199C673.421 143.199 675.555 143.599 677.421 144.399C679.315 145.172 680.915 146.266 682.221 147.679C683.528 149.066 684.515 150.732 685.181 152.679C685.875 154.626 686.221 156.759 686.221 159.079V184.999ZM667.021 178.839C668.035 178.839 668.968 178.746 669.821 178.559C670.675 178.372 671.475 178.092 672.221 177.719C672.995 177.346 673.728 176.892 674.421 176.359C675.141 175.799 675.861 175.146 676.581 174.399V167.479C673.701 167.612 671.288 167.866 669.341 168.239C667.421 168.586 665.875 169.039 664.701 169.599C663.528 170.159 662.688 170.812 662.181 171.559C661.701 172.306 661.461 173.119 661.461 173.999C661.461 175.732 661.968 176.972 662.981 177.719C664.021 178.466 665.368 178.839 667.021 178.839ZM695.936 184.999V143.959H701.736C702.75 143.959 703.456 144.146 703.856 144.519C704.256 144.892 704.523 145.532 704.656 146.439L705.256 151.399C706.723 148.866 708.443 146.866 710.416 145.399C712.39 143.932 714.603 143.199 717.056 143.199C719.083 143.199 720.763 143.666 722.096 144.599L720.816 151.999C720.736 152.479 720.563 152.826 720.296 153.039C720.03 153.226 719.67 153.319 719.216 153.319C718.816 153.319 718.27 153.226 717.576 153.039C716.883 152.852 715.963 152.759 714.816 152.759C712.763 152.759 711.003 153.332 709.536 154.479C708.07 155.599 706.83 157.252 705.816 159.439V184.999H695.936ZM739.113 125.559V184.999H729.233V125.559H739.113ZM764.871 196.279C764.578 196.972 764.191 197.492 763.711 197.839C763.258 198.212 762.551 198.399 761.591 198.399H754.231L761.911 181.959L745.311 143.959H753.951C754.751 143.959 755.365 144.146 755.791 144.519C756.218 144.892 756.538 145.319 756.751 145.799L765.511 167.079C765.805 167.772 766.058 168.492 766.271 169.239C766.485 169.986 766.671 170.732 766.831 171.479C767.045 170.706 767.271 169.959 767.511 169.239C767.778 168.519 768.058 167.786 768.351 167.039L776.591 145.799C776.805 145.266 777.151 144.826 777.631 144.479C778.138 144.132 778.698 143.959 779.311 143.959H787.231L764.871 196.279Z" fill="white"/>
<path d="M859.836 185H851.516C850.583 185 849.81 184.773 849.196 184.32C848.61 183.84 848.183 183.253 847.916 182.56L843.596 170.76H819.636L815.316 182.56C815.103 183.173 814.676 183.733 814.036 184.24C813.423 184.747 812.663 185 811.756 185H803.396L826.116 127.16H837.116L859.836 185ZM822.396 163.16H840.836L833.796 143.92C833.476 143.067 833.116 142.067 832.716 140.92C832.343 139.747 831.97 138.48 831.596 137.12C831.223 138.48 830.85 139.747 830.476 140.92C830.13 142.093 829.783 143.12 829.436 144L822.396 163.16ZM865.233 185V143.96H871.273C872.553 143.96 873.393 144.56 873.793 145.76L874.433 148.8C875.153 148 875.9 147.267 876.673 146.6C877.473 145.933 878.313 145.36 879.193 144.88C880.1 144.4 881.06 144.027 882.073 143.76C883.113 143.467 884.246 143.32 885.473 143.32C888.06 143.32 890.18 144.027 891.833 145.44C893.513 146.827 894.766 148.68 895.593 151C896.233 149.64 897.033 148.48 897.993 147.52C898.953 146.533 900.006 145.733 901.153 145.12C902.3 144.507 903.513 144.053 904.793 143.76C906.1 143.467 907.406 143.32 908.713 143.32C910.98 143.32 912.993 143.667 914.753 144.36C916.513 145.053 917.993 146.067 919.193 147.4C920.393 148.733 921.3 150.36 921.913 152.28C922.553 154.2 922.873 156.4 922.873 158.88V185H912.993V158.88C912.993 156.267 912.42 154.307 911.273 153C910.126 151.667 908.446 151 906.233 151C905.22 151 904.273 151.173 903.393 151.52C902.54 151.867 901.78 152.373 901.113 153.04C900.473 153.68 899.966 154.493 899.593 155.48C899.22 156.467 899.033 157.6 899.033 158.88V185H889.113V158.88C889.113 156.133 888.553 154.133 887.433 152.88C886.34 151.627 884.713 151 882.553 151C881.14 151 879.806 151.36 878.553 152.08C877.326 152.773 876.18 153.733 875.113 154.96V185H865.233ZM949.537 143.32C952.124 143.32 954.497 143.733 956.657 144.56C958.844 145.387 960.724 146.6 962.297 148.2C963.87 149.773 965.097 151.72 965.977 154.04C966.857 156.333 967.297 158.96 967.297 161.92C967.297 162.667 967.257 163.293 967.177 163.8C967.124 164.28 967.004 164.667 966.817 164.96C966.657 165.227 966.43 165.427 966.137 165.56C965.844 165.667 965.47 165.72 965.017 165.72H939.657C939.95 169.933 941.084 173.027 943.057 175C945.03 176.973 947.644 177.96 950.897 177.96C952.497 177.96 953.87 177.773 955.017 177.4C956.19 177.027 957.204 176.613 958.057 176.16C958.937 175.707 959.697 175.293 960.337 174.92C961.004 174.547 961.644 174.36 962.257 174.36C962.657 174.36 963.004 174.44 963.297 174.6C963.59 174.76 963.844 174.987 964.057 175.28L966.937 178.88C965.844 180.16 964.617 181.24 963.257 182.12C961.897 182.973 960.47 183.667 958.977 184.2C957.51 184.707 956.004 185.067 954.457 185.28C952.937 185.493 951.457 185.6 950.017 185.6C947.164 185.6 944.51 185.133 942.057 184.2C939.604 183.24 937.47 181.84 935.657 180C933.844 178.133 932.417 175.84 931.377 173.12C930.337 170.373 929.817 167.2 929.817 163.6C929.817 160.8 930.27 158.173 931.177 155.72C932.084 153.24 933.377 151.093 935.057 149.28C936.764 147.44 938.83 145.987 941.257 144.92C943.71 143.853 946.47 143.32 949.537 143.32ZM949.737 150.4C946.857 150.4 944.604 151.213 942.977 152.84C941.35 154.467 940.31 156.773 939.857 159.76H958.417C958.417 158.48 958.244 157.28 957.897 156.16C957.55 155.013 957.017 154.013 956.297 153.16C955.577 152.307 954.67 151.64 953.577 151.16C952.484 150.653 951.204 150.4 949.737 150.4ZM975.311 185V143.96H981.111C982.125 143.96 982.831 144.147 983.231 144.52C983.631 144.893 983.898 145.533 984.031 146.44L984.631 151.4C986.098 148.867 987.818 146.867 989.791 145.4C991.765 143.933 993.978 143.2 996.431 143.2C998.458 143.2 1000.14 143.667 1001.47 144.6L1000.19 152C1000.11 152.48 999.938 152.827 999.671 153.04C999.405 153.227 999.045 153.32 998.591 153.32C998.191 153.32 997.645 153.227 996.951 153.04C996.258 152.853 995.338 152.76 994.191 152.76C992.138 152.76 990.378 153.333 988.911 154.48C987.445 155.6 986.205 157.253 985.191 159.44V185H975.311ZM1018.49 143.96V185H1008.61V143.96H1018.49ZM1019.97 132C1019.97 132.853 1019.79 133.653 1019.45 134.4C1019.1 135.147 1018.63 135.8 1018.05 136.36C1017.49 136.92 1016.82 137.373 1016.05 137.72C1015.27 138.04 1014.45 138.2 1013.57 138.2C1012.71 138.2 1011.9 138.04 1011.13 137.72C1010.38 137.373 1009.73 136.92 1009.17 136.36C1008.61 135.8 1008.15 135.147 1007.81 134.4C1007.49 133.653 1007.33 132.853 1007.33 132C1007.33 131.12 1007.49 130.293 1007.81 129.52C1008.15 128.747 1008.61 128.08 1009.17 127.52C1009.73 126.96 1010.38 126.52 1011.13 126.2C1011.9 125.853 1012.71 125.68 1013.57 125.68C1014.45 125.68 1015.27 125.853 1016.05 126.2C1016.82 126.52 1017.49 126.96 1018.05 127.52C1018.63 128.08 1019.1 128.747 1019.45 129.52C1019.79 130.293 1019.97 131.12 1019.97 132ZM1058.53 152.64C1058.23 153.013 1057.94 153.307 1057.65 153.52C1057.38 153.733 1056.98 153.84 1056.45 153.84C1055.94 153.84 1055.45 153.693 1054.97 153.4C1054.49 153.08 1053.91 152.733 1053.25 152.36C1052.58 151.96 1051.78 151.613 1050.85 151.32C1049.94 151 1048.81 150.84 1047.45 150.84C1045.71 150.84 1044.19 151.16 1042.89 151.8C1041.58 152.413 1040.49 153.307 1039.61 154.48C1038.75 155.653 1038.11 157.08 1037.69 158.76C1037.26 160.413 1037.05 162.293 1037.05 164.4C1037.05 166.587 1037.27 168.533 1037.73 170.24C1038.21 171.947 1038.89 173.387 1039.77 174.56C1040.65 175.707 1041.71 176.587 1042.97 177.2C1044.22 177.787 1045.63 178.08 1047.21 178.08C1048.78 178.08 1050.05 177.893 1051.01 177.52C1051.99 177.12 1052.82 176.693 1053.49 176.24C1054.15 175.76 1054.73 175.333 1055.21 174.96C1055.71 174.56 1056.27 174.36 1056.89 174.36C1057.69 174.36 1058.29 174.667 1058.69 175.28L1061.53 178.88C1060.43 180.16 1059.25 181.24 1057.97 182.12C1056.69 182.973 1055.35 183.667 1053.97 184.2C1052.61 184.707 1051.19 185.067 1049.73 185.28C1048.26 185.493 1046.81 185.6 1045.37 185.6C1042.83 185.6 1040.45 185.133 1038.21 184.2C1035.97 183.24 1034.01 181.853 1032.33 180.04C1030.67 178.227 1029.35 176.013 1028.37 173.4C1027.41 170.76 1026.93 167.76 1026.93 164.4C1026.93 161.387 1027.35 158.6 1028.21 156.04C1029.09 153.453 1030.37 151.227 1032.05 149.36C1033.73 147.467 1035.81 145.987 1038.29 144.92C1040.77 143.853 1043.62 143.32 1046.85 143.32C1049.91 143.32 1052.59 143.813 1054.89 144.8C1057.21 145.787 1059.29 147.2 1061.13 149.04L1058.53 152.64ZM1099.97 185H1095.53C1094.6 185 1093.86 184.867 1093.33 184.6C1092.8 184.307 1092.4 183.733 1092.13 182.88L1091.25 179.96C1090.21 180.893 1089.18 181.72 1088.17 182.44C1087.18 183.133 1086.16 183.72 1085.09 184.2C1084.02 184.68 1082.89 185.04 1081.69 185.28C1080.49 185.52 1079.16 185.64 1077.69 185.64C1075.96 185.64 1074.36 185.413 1072.89 184.96C1071.42 184.48 1070.16 183.773 1069.09 182.84C1068.05 181.907 1067.24 180.747 1066.65 179.36C1066.06 177.973 1065.77 176.36 1065.77 174.52C1065.77 172.973 1066.17 171.453 1066.97 169.96C1067.8 168.44 1069.16 167.08 1071.05 165.88C1072.94 164.653 1075.46 163.64 1078.61 162.84C1081.76 162.04 1085.66 161.587 1090.33 161.48V159.08C1090.33 156.333 1089.74 154.307 1088.57 153C1087.42 151.667 1085.74 151 1083.53 151C1081.93 151 1080.6 151.187 1079.53 151.56C1078.46 151.933 1077.53 152.36 1076.73 152.84C1075.96 153.293 1075.24 153.707 1074.57 154.08C1073.9 154.453 1073.17 154.64 1072.37 154.64C1071.7 154.64 1071.13 154.467 1070.65 154.12C1070.17 153.773 1069.78 153.347 1069.49 152.84L1067.69 149.68C1072.41 145.36 1078.1 143.2 1084.77 143.2C1087.17 143.2 1089.3 143.6 1091.17 144.4C1093.06 145.173 1094.66 146.267 1095.97 147.68C1097.28 149.067 1098.26 150.733 1098.93 152.68C1099.62 154.627 1099.97 156.76 1099.97 159.08V185ZM1080.77 178.84C1081.78 178.84 1082.72 178.747 1083.57 178.56C1084.42 178.373 1085.22 178.093 1085.97 177.72C1086.74 177.347 1087.48 176.893 1088.17 176.36C1088.89 175.8 1089.61 175.147 1090.33 174.4V167.48C1087.45 167.613 1085.04 167.867 1083.09 168.24C1081.17 168.587 1079.62 169.04 1078.45 169.6C1077.28 170.16 1076.44 170.813 1075.93 171.56C1075.45 172.307 1075.21 173.12 1075.21 174C1075.21 175.733 1075.72 176.973 1076.73 177.72C1077.77 178.467 1079.12 178.84 1080.77 178.84Z" fill="white"/>
<path d="M36.8399 137.679C36.5466 138.266 36.1999 138.679 35.7999 138.919C35.4266 139.159 34.9732 139.279 34.4399 139.279C33.9066 139.279 33.3066 139.079 32.6399 138.679C31.9732 138.252 31.1866 137.786 30.2799 137.279C29.3732 136.772 28.3066 136.319 27.0799 135.919C25.8799 135.492 24.4532 135.279 22.7999 135.279C21.3066 135.279 19.9999 135.466 18.8799 135.839C17.7866 136.186 16.8532 136.679 16.0799 137.319C15.3332 137.959 14.7732 138.732 14.3999 139.639C14.0266 140.519 13.8399 141.492 13.8399 142.559C13.8399 143.919 14.2132 145.052 14.9599 145.959C15.7332 146.866 16.7466 147.639 17.9999 148.279C19.2532 148.919 20.6799 149.492 22.2799 149.999C23.8799 150.506 25.5066 151.052 27.1599 151.639C28.8399 152.199 30.4799 152.866 32.0799 153.639C33.6799 154.386 35.1066 155.346 36.3599 156.519C37.6132 157.666 38.6132 159.079 39.3599 160.759C40.1332 162.439 40.5199 164.479 40.5199 166.879C40.5199 169.492 40.0666 171.946 39.1599 174.239C38.2799 176.506 36.9732 178.492 35.2399 180.199C33.5332 181.879 31.4399 183.212 28.9599 184.199C26.4799 185.159 23.6399 185.639 20.4399 185.639C18.5999 185.639 16.7866 185.452 14.9999 185.079C13.2132 184.732 11.4932 184.226 9.83994 183.559C8.21327 182.892 6.67994 182.092 5.23994 181.159C3.82661 180.226 2.55994 179.186 1.43994 178.039L4.55994 172.879C4.85327 172.506 5.19994 172.199 5.59994 171.959C6.02661 171.692 6.49327 171.559 6.99994 171.559C7.66661 171.559 8.38661 171.839 9.15994 172.399C9.93327 172.932 10.8399 173.532 11.8799 174.199C12.9466 174.866 14.1866 175.479 15.5999 176.039C17.0399 176.572 18.7599 176.839 20.7599 176.839C23.8266 176.839 26.1999 176.119 27.8799 174.679C29.5599 173.212 30.3999 171.119 30.3999 168.399C30.3999 166.879 30.0132 165.639 29.2399 164.679C28.4932 163.719 27.4932 162.919 26.2399 162.279C24.9866 161.612 23.5599 161.052 21.9599 160.599C20.3599 160.146 18.7332 159.652 17.0799 159.119C15.4266 158.586 13.7999 157.946 12.1999 157.199C10.5999 156.452 9.17327 155.479 7.91994 154.279C6.66661 153.079 5.65327 151.586 4.87994 149.799C4.13327 147.986 3.75994 145.759 3.75994 143.119C3.75994 141.012 4.17327 138.959 4.99994 136.959C5.85327 134.959 7.07994 133.186 8.67994 131.639C10.3066 130.092 12.2932 128.852 14.6399 127.919C16.9866 126.986 19.6666 126.519 22.6799 126.519C26.0932 126.519 29.2399 127.052 32.1199 128.119C34.9999 129.186 37.4532 130.679 39.4799 132.599L36.8399 137.679ZM58.6905 143.959V184.999H48.8105V143.959H58.6905ZM60.1705 131.999C60.1705 132.852 59.9972 133.652 59.6505 134.399C59.3039 135.146 58.8372 135.799 58.2505 136.359C57.6905 136.919 57.0239 137.372 56.2505 137.719C55.4772 138.039 54.6505 138.199 53.7705 138.199C52.9172 138.199 52.1039 138.039 51.3305 137.719C50.5839 137.372 49.9305 136.919 49.3705 136.359C48.8105 135.799 48.3572 135.146 48.0105 134.399C47.6905 133.652 47.5305 132.852 47.5305 131.999C47.5305 131.119 47.6905 130.292 48.0105 129.519C48.3572 128.746 48.8105 128.079 49.3705 127.519C49.9305 126.959 50.5839 126.519 51.3305 126.199C52.1039 125.852 52.9172 125.679 53.7705 125.679C54.6505 125.679 55.4772 125.852 56.2505 126.199C57.0239 126.519 57.6905 126.959 58.2505 127.519C58.8372 128.079 59.3039 128.746 59.6505 129.519C59.9972 130.292 60.1705 131.119 60.1705 131.999ZM80.4093 125.559V184.999H70.5293V125.559H80.4093ZM91.608 184.999V125.559H101.488V148.399C103.088 146.879 104.848 145.652 106.768 144.719C108.688 143.786 110.941 143.319 113.528 143.319C115.768 143.319 117.755 143.706 119.488 144.479C121.221 145.226 122.661 146.292 123.808 147.679C124.981 149.039 125.861 150.679 126.448 152.599C127.061 154.492 127.368 156.586 127.368 158.879V184.999H117.488V158.879C117.488 156.372 116.901 154.439 115.728 153.079C114.581 151.692 112.848 150.999 110.528 150.999C108.821 150.999 107.221 151.386 105.728 152.159C104.235 152.932 102.821 153.986 101.488 155.319V184.999H91.608ZM154.597 143.319C157.664 143.319 160.437 143.812 162.917 144.799C165.424 145.786 167.557 147.186 169.317 148.999C171.077 150.812 172.437 153.026 173.397 155.639C174.357 158.252 174.837 161.172 174.837 164.399C174.837 167.652 174.357 170.586 173.397 173.199C172.437 175.812 171.077 178.039 169.317 179.879C167.557 181.719 165.424 183.132 162.917 184.119C160.437 185.106 157.664 185.599 154.597 185.599C151.53 185.599 148.744 185.106 146.237 184.119C143.73 183.132 141.584 181.719 139.797 179.879C138.037 178.039 136.664 175.812 135.677 173.199C134.717 170.586 134.237 167.652 134.237 164.399C134.237 161.172 134.717 158.252 135.677 155.639C136.664 153.026 138.037 150.812 139.797 148.999C141.584 147.186 143.73 145.786 146.237 144.799C148.744 143.812 151.53 143.319 154.597 143.319ZM154.597 177.999C158.01 177.999 160.53 176.852 162.157 174.559C163.81 172.266 164.637 168.906 164.637 164.479C164.637 160.052 163.81 156.679 162.157 154.359C160.53 152.039 158.01 150.879 154.597 150.879C151.13 150.879 148.57 152.052 146.917 154.399C145.264 156.719 144.437 160.079 144.437 164.479C144.437 168.879 145.264 172.239 146.917 174.559C148.57 176.852 151.13 177.999 154.597 177.999ZM191.586 143.959V170.039C191.586 172.546 192.159 174.492 193.306 175.879C194.479 177.239 196.226 177.919 198.546 177.919C200.252 177.919 201.852 177.546 203.346 176.799C204.839 176.026 206.252 174.972 207.586 173.639V143.959H217.466V184.999H211.426C210.146 184.999 209.306 184.399 208.906 183.199L208.226 179.919C207.372 180.772 206.492 181.559 205.586 182.279C204.679 182.972 203.706 183.572 202.666 184.079C201.652 184.559 200.546 184.932 199.346 185.199C198.172 185.492 196.906 185.639 195.546 185.639C193.306 185.639 191.319 185.266 189.586 184.519C187.879 183.746 186.439 182.666 185.266 181.279C184.092 179.892 183.199 178.252 182.586 176.359C181.999 174.439 181.706 172.332 181.706 170.039V143.959H191.586ZM244.974 143.319C247.561 143.319 249.934 143.732 252.094 144.559C254.281 145.386 256.161 146.599 257.734 148.199C259.308 149.772 260.534 151.719 261.414 154.039C262.294 156.332 262.734 158.959 262.734 161.919C262.734 162.666 262.694 163.292 262.614 163.799C262.561 164.279 262.441 164.666 262.254 164.959C262.094 165.226 261.868 165.426 261.574 165.559C261.281 165.666 260.908 165.719 260.454 165.719H235.094C235.388 169.932 236.521 173.026 238.494 174.999C240.468 176.972 243.081 177.959 246.334 177.959C247.934 177.959 249.308 177.772 250.454 177.399C251.628 177.026 252.641 176.612 253.494 176.159C254.374 175.706 255.134 175.292 255.774 174.919C256.441 174.546 257.081 174.359 257.694 174.359C258.094 174.359 258.441 174.439 258.734 174.599C259.028 174.759 259.281 174.986 259.494 175.279L262.374 178.879C261.281 180.159 260.054 181.239 258.694 182.119C257.334 182.972 255.908 183.666 254.414 184.199C252.948 184.706 251.441 185.066 249.894 185.279C248.374 185.492 246.894 185.599 245.454 185.599C242.601 185.599 239.948 185.132 237.494 184.199C235.041 183.239 232.908 181.839 231.094 179.999C229.281 178.132 227.854 175.839 226.814 173.119C225.774 170.372 225.254 167.199 225.254 163.599C225.254 160.799 225.708 158.172 226.614 155.719C227.521 153.239 228.814 151.092 230.494 149.279C232.201 147.439 234.268 145.986 236.694 144.919C239.148 143.852 241.908 143.319 244.974 143.319ZM245.174 150.399C242.294 150.399 240.041 151.212 238.414 152.839C236.788 154.466 235.748 156.772 235.294 159.759H253.854C253.854 158.479 253.681 157.279 253.334 156.159C252.988 155.012 252.454 154.012 251.734 153.159C251.014 152.306 250.108 151.639 249.014 151.159C247.921 150.652 246.641 150.399 245.174 150.399ZM284.229 185.639C280.682 185.639 277.949 184.639 276.029 182.639C274.109 180.612 273.149 177.826 273.149 174.279V151.359H268.989C268.455 151.359 267.989 151.186 267.589 150.839C267.215 150.492 267.029 149.972 267.029 149.279V145.359L273.629 144.279L275.709 133.079C275.815 132.546 276.055 132.132 276.429 131.839C276.829 131.546 277.322 131.399 277.909 131.399H283.029V144.319H293.829V151.359H283.029V173.599C283.029 174.879 283.349 175.879 283.989 176.599C284.629 177.319 285.482 177.679 286.549 177.679C287.162 177.679 287.669 177.612 288.069 177.479C288.495 177.319 288.855 177.159 289.149 176.999C289.469 176.839 289.749 176.692 289.989 176.559C290.229 176.399 290.469 176.319 290.709 176.319C291.002 176.319 291.242 176.399 291.429 176.559C291.615 176.692 291.815 176.906 292.029 177.199L294.989 181.999C293.549 183.199 291.895 184.106 290.029 184.719C288.162 185.332 286.229 185.639 284.229 185.639ZM315.166 185.639C311.62 185.639 308.886 184.639 306.966 182.639C305.046 180.612 304.086 177.826 304.086 174.279V151.359H299.926C299.393 151.359 298.926 151.186 298.526 150.839C298.153 150.492 297.966 149.972 297.966 149.279V145.359L304.566 144.279L306.646 133.079C306.753 132.546 306.993 132.132 307.366 131.839C307.766 131.546 308.26 131.399 308.846 131.399H313.966V144.319H324.766V151.359H313.966V173.599C313.966 174.879 314.286 175.879 314.926 176.599C315.566 177.319 316.42 177.679 317.486 177.679C318.1 177.679 318.606 177.612 319.006 177.479C319.433 177.319 319.793 177.159 320.086 176.999C320.406 176.839 320.686 176.692 320.926 176.559C321.166 176.399 321.406 176.319 321.646 176.319C321.94 176.319 322.18 176.399 322.366 176.559C322.553 176.692 322.753 176.906 322.966 177.199L325.926 181.999C324.486 183.199 322.833 184.106 320.966 184.719C319.1 185.332 317.166 185.639 315.166 185.639ZM349.584 143.319C352.17 143.319 354.544 143.732 356.704 144.559C358.89 145.386 360.77 146.599 362.344 148.199C363.917 149.772 365.144 151.719 366.024 154.039C366.904 156.332 367.344 158.959 367.344 161.919C367.344 162.666 367.304 163.292 367.224 163.799C367.17 164.279 367.05 164.666 366.864 164.959C366.704 165.226 366.477 165.426 366.184 165.559C365.89 165.666 365.517 165.719 365.064 165.719H339.704C339.997 169.932 341.13 173.026 343.104 174.999C345.077 176.972 347.69 177.959 350.944 177.959C352.544 177.959 353.917 177.772 355.064 177.399C356.237 177.026 357.25 176.612 358.104 176.159C358.984 175.706 359.744 175.292 360.384 174.919C361.05 174.546 361.69 174.359 362.304 174.359C362.704 174.359 363.05 174.439 363.344 174.599C363.637 174.759 363.89 174.986 364.104 175.279L366.984 178.879C365.89 180.159 364.664 181.239 363.304 182.119C361.944 182.972 360.517 183.666 359.024 184.199C357.557 184.706 356.05 185.066 354.504 185.279C352.984 185.492 351.504 185.599 350.064 185.599C347.21 185.599 344.557 185.132 342.104 184.199C339.65 183.239 337.517 181.839 335.704 179.999C333.89 178.132 332.464 175.839 331.424 173.119C330.384 170.372 329.864 167.199 329.864 163.599C329.864 160.799 330.317 158.172 331.224 155.719C332.13 153.239 333.424 151.092 335.104 149.279C336.81 147.439 338.877 145.986 341.304 144.919C343.757 143.852 346.517 143.319 349.584 143.319ZM349.784 150.399C346.904 150.399 344.65 151.212 343.024 152.839C341.397 154.466 340.357 156.772 339.904 159.759H358.464C358.464 158.479 358.29 157.279 357.944 156.159C357.597 155.012 357.064 154.012 356.344 153.159C355.624 152.306 354.717 151.639 353.624 151.159C352.53 150.652 351.25 150.399 349.784 150.399Z" fill="white"/>
<path d="M443.512 193.937L443.023 194.327C442.958 194.327 442.405 194.815 441.363 195.792C440.387 196.703 439.28 197.745 438.043 198.917C436.806 200.024 435.634 201.065 434.527 202.042C433.421 203.019 432.737 203.539 432.477 203.604C430.393 204.776 428.017 205.883 425.348 206.925C422.743 207.966 419.781 208.487 416.461 208.487C414.117 208.487 411.773 208.162 409.43 207.511C407.151 206.86 405.068 205.753 403.18 204.19C401.357 202.563 399.859 200.414 398.688 197.745C397.581 195.076 397.027 191.69 397.027 187.589C397.027 186.091 397.385 184.203 398.102 181.925C398.883 179.581 400.152 177.465 401.91 175.577C403.733 173.429 405.719 171.638 407.867 170.206C410.081 168.709 412.49 167.407 415.094 166.3C417.763 165.128 420.693 164.086 423.883 163.175C427.073 162.263 430.621 161.319 434.527 160.343C435.439 160.147 436.415 159.92 437.457 159.659C438.499 159.399 439.475 159.138 440.387 158.878C441.363 158.617 442.177 158.39 442.828 158.194C443.544 157.934 444 157.706 444.195 157.511C444.521 157.25 444.814 157.022 445.074 156.827C445.4 156.632 445.595 156.176 445.66 155.46C445.921 153.963 446.148 152.367 446.344 150.675C446.604 148.982 446.799 147.289 446.93 145.597C447.125 143.904 447.255 142.276 447.32 140.714C447.385 139.151 447.418 137.752 447.418 136.515C447.418 133.976 446.93 131.599 445.953 129.386C444.977 127.172 443.642 125.252 441.949 123.624C440.322 121.996 438.401 120.727 436.188 119.815C433.974 118.904 431.63 118.448 429.156 118.448C427.203 118.448 425.152 118.937 423.004 119.913C420.921 120.825 419 122.061 417.242 123.624C415.549 125.187 414.15 126.977 413.043 128.995C411.936 130.948 411.383 132.966 411.383 135.05C411.383 136.026 411.643 136.808 412.164 137.394C412.685 137.979 413.238 138.533 413.824 139.054C414.41 139.575 414.964 140.16 415.484 140.811C416.005 141.463 416.266 142.341 416.266 143.448C416.266 146.117 415.419 148.201 413.727 149.698C412.034 151.196 409.951 151.944 407.477 151.944C405.979 151.944 404.645 151.651 403.473 151.065C402.366 150.414 401.389 149.601 400.543 148.624C399.697 147.582 399.046 146.41 398.59 145.108C398.199 143.806 398.004 142.472 398.004 141.104C398.004 139.802 398.362 138.403 399.078 136.905C399.794 135.408 400.673 133.943 401.715 132.511C402.757 131.078 403.831 129.744 404.938 128.507C406.109 127.205 407.086 126.163 407.867 125.382C409.299 124.015 410.667 122.81 411.969 121.769C413.336 120.727 414.768 119.685 416.266 118.644C417.372 117.927 418.512 117.341 419.684 116.886C420.855 116.43 421.995 116.039 423.102 115.714C423.753 115.453 424.632 115.16 425.738 114.835C426.91 114.444 428.18 114.086 429.547 113.761C430.979 113.435 432.444 113.175 433.941 112.979C435.504 112.719 437.001 112.589 438.434 112.589C441.493 112.589 444.488 113.012 447.418 113.858C450.413 114.705 453.049 116.039 455.328 117.862C457.672 119.685 459.56 122.029 460.992 124.894C462.424 127.758 463.141 131.176 463.141 135.147C463.141 139.575 462.913 144.099 462.457 148.722C462.001 153.344 461.48 157.771 460.895 162.003C460.374 166.235 459.885 170.108 459.43 173.624C458.974 177.14 458.746 179.972 458.746 182.12C458.746 183.227 458.844 184.627 459.039 186.319C459.234 187.947 459.592 189.542 460.113 191.104C460.699 192.602 461.48 193.904 462.457 195.011C463.434 196.117 464.703 196.671 466.266 196.671C468.089 196.671 469.846 196.248 471.539 195.401C473.232 194.555 474.794 193.481 476.227 192.179C477.659 190.877 478.928 189.444 480.035 187.882C481.207 186.319 482.151 184.789 482.867 183.292C482.997 183.032 483.128 182.771 483.258 182.511C483.453 182.185 483.714 182.022 484.039 182.022C484.299 182.022 484.43 182.25 484.43 182.706V183.683C484.43 186.547 483.876 189.444 482.77 192.374C481.728 195.239 480.165 197.875 478.082 200.284C476.064 202.628 473.557 204.548 470.562 206.046C467.568 207.543 464.117 208.292 460.211 208.292C459.495 208.292 458.648 208.227 457.672 208.097C456.76 208.032 455.882 207.836 455.035 207.511C453.342 206.664 451.943 205.753 450.836 204.776C449.729 203.735 448.753 202.66 447.906 201.554C447.125 200.447 446.376 199.275 445.66 198.038C445.009 196.736 444.293 195.369 443.512 193.937ZM412.555 190.421C412.555 192.048 412.88 193.448 413.531 194.62C414.182 195.792 415.029 196.769 416.07 197.55C417.177 198.266 418.414 198.819 419.781 199.21C421.148 199.535 422.516 199.698 423.883 199.698C425.576 199.698 427.203 199.535 428.766 199.21C430.393 198.819 431.923 198.331 433.355 197.745C434.788 197.159 436.09 196.541 437.262 195.89C438.499 195.173 439.605 194.49 440.582 193.839C442.21 192.407 443.023 190.942 443.023 189.444C443.023 184.627 443.316 180.102 443.902 175.87C444.553 171.573 444.879 167.374 444.879 163.272C444.879 162.817 444.814 162.328 444.684 161.808C444.618 161.287 444.326 161.026 443.805 161.026C443.219 161.026 442.633 161.124 442.047 161.319C441.526 161.45 441.038 161.58 440.582 161.71C437.717 162.752 434.918 163.891 432.184 165.128C429.449 166.365 426.747 167.634 424.078 168.937C422.255 169.913 420.628 171.215 419.195 172.843C417.763 174.47 416.559 176.261 415.582 178.214C414.605 180.167 413.857 182.218 413.336 184.366C412.815 186.45 412.555 188.468 412.555 190.421ZM529.547 78.4094L527.984 95.4015C533.714 83.2271 542.014 76.7818 552.887 76.0656V121.671C545.66 121.671 540.354 122.647 536.969 124.601C533.583 126.554 531.5 129.288 530.719 132.804C529.938 136.254 529.547 144.262 529.547 156.827V207.999H490.094V78.4094H529.547ZM581.642 209.799C579.176 209.799 576.742 209.299 574.342 208.299C572.009 207.366 570.042 205.532 568.442 202.799C566.909 200.066 566.142 196.066 566.142 190.799V105.299H556.042V103.299H566.142C567.876 103.299 569.576 101.932 571.242 99.1992C572.909 96.4659 574.409 92.9325 575.742 88.5992C577.142 84.1992 578.142 79.5659 578.742 74.6992H581.142V103.299H593.642V105.299H581.142V200.899C581.142 203.232 581.676 204.899 582.742 205.899C583.876 206.832 584.976 207.299 586.042 207.299C587.376 207.299 588.742 206.899 590.142 206.099C591.542 205.232 592.476 204.532 592.942 203.999L594.042 205.399C592.776 206.666 591.076 207.699 588.942 208.499C586.809 209.366 584.376 209.799 581.642 209.799Z" fill="white"/>
</svg>
