<?xml version="1.0" encoding="UTF-8"?>
<svg xmlns="http://www.w3.org/2000/svg" viewBox="0 0 479.32 604.96">
  <defs>
    <style>
      .cls-1 {
        fill: #443119;
      }

      .cls-2 {
        fill: #ed2024;
      }
    </style>
  </defs>
  <g id="Layer_1" data-name="Layer 1">
    <path class="cls-1" d="M479,71.89h-.6v-4.81h-.6v-3h-.6v-2.4h-.6v-2.4h-.6v-1.8h-.6v-1.8h-.6c-.4-1.2-.8-2.4-1.2-3.61h-.6c-.2-.8-.4-1.6-.6-2.4-.4-.2-.8-.4-1.2-.6-.2-.8-.4-1.6-.6-2.4-.8-.6-1.6-1.2-2.4-1.8v-1.2c-.4-.2-.8-.4-1.2-.6-1.42-1.49-2.16-2.66-4.21-3.61v-1.2c-.6-.2-1.2-.4-1.8-.6v-.6c-.6-.2-1.2-.4-1.8-.6-.2-.4-.4-.8-.6-1.2h-1.2c-.4-.6-.8-1.2-1.2-1.8-.8-.2-1.6-.4-2.4-.6-.2-.4-.4-.8-.6-1.2h-1.2l-1.2-1.2h-1.2v-.6h-1.2l-.6-1.2c-1-.2-2-.4-3-.6v-.6c-.8-.2-1.6-.4-2.4-.6v-.6h-1.8v-.6h-1.8v-.6h-1.2v-.6h-1.8c-.2-.4-.4-.8-.6-1.2h-2.4v-.6h-1.2v-.6h-2.4v-.6h-1.8v-.6h-1.8v-.6c-1.4-.2-2.8-.4-4.21-.6v-.6h-1.2v-.6c-12.62-2.6-25.24-5.21-37.86-7.81-4.01-.4-8.01-.8-12.02-1.2v-.6h-1.8v-.6h-4.81v-.6h-4.81v-.6h-4.81v-.6h-5.41v-.6h-5.41v-.6h-6.01v-.6c-5.01-.2-10.02-.4-15.02-.6v-.6h-3v-.6h-9.01v-.6h-9.61c-3.1-.88-8.55.38-12.02-.6-3.68-1.04-9.76-.55-14.42-.6h-3V.39h-33.05c-7.83,0-21.24-1.19-27.64.6h-18.63v.6c-3.64,1.02-9.35-.32-12.62.6-6.81.2-13.62.4-20.43.6v.6h-3v.6h-7.21v.6h-7.81v.6h-6.01v.6h-6.01v.6h-4.81v.6h-6.01v.6h-4.81c-5.62,1.63-12.98,1.91-18.63,3.61-4.61.6-9.21,1.2-13.82,1.8v.6h-1.2v.6h-3.61v.6c-1.8.2-3.61.4-5.41.6v.6h-2.4v.6h-2.4v.6h-3v.6h-2.4v.6h-3c-.2.4-.4.8-.6,1.2h-2.4v.6h-1.8v.6h-1.8v.6h-1.8v.6h-2.4v.6h-1.8v.6h-1.8c-.2.4-.4.8-.6,1.2h-1.8v.6h-1.8v.6c-.8.2-1.6.4-2.4.6v.6h-1.8c-1.45.66-1.9,1.61-4.21,1.8v1.2c-2.97.37-2.92,1.36-4.81,2.4-.8.2-1.6.4-2.4.6-.4.6-.8,1.2-1.2,1.8h-1.2c-.2.4-.4.8-.6,1.2-.6.2-1.2.4-1.8.6v.6c-.6.2-1.2.4-1.8.6v1.2c-1.63.46-1.37.14-1.8,1.8-3.13.85-3.81,3.64-5.41,6.01-.4.2-.8.4-1.2.6v1.2c-.4.2-.8.4-1.2.6-.4,1.2-.8,2.4-1.2,3.61-11.33,21.26-2.7,56.3,4.21,75.71.2,1.4.4,2.8.6,4.21.8,2.05,4.42,9.67,3.61,12.62h-.6v2.4h-.6c-.65,2.23.66,8.09,1.2,9.61h.6v9.01c.41,2.51,1.52,9.9.6,13.22h-.6c-1.16,4.22,1.8,7.42-1.8,9.61-.18,5.55-.04,6.58,3.61,8.41-.08,4.7-1.06,16.97.6,18.63.46,1.64.14,1.37,1.8,1.8v1.2c1.8.4,2.73,1.15,4.21,1.8-.4,2.4-.8,4.81-1.2,7.21h.6v1.8h.6v2.4c.8.6,1.6,1.2,2.4,1.8.4,1.2.8,2.4,1.2,3.61.6.4,1.2.8,1.8,1.2v1.2h.6c.2.8.4,1.6.6,2.4h.6v2.4h.6v4.81c0,3.44-.19,6.46-1.2,9.01h-.6v1.8h-.6c-.4,1.2-.8,2.4-1.2,3.61h-.6c-.4,1.2-.8,2.4-1.2,3.61-.4.2-.8.4-1.2.6v2.4h-.6c.2.6.4,1.2.6,1.8-.6.2-1.2.4-1.8.6-.51,2.63-1.94,4.75-.6,7.81h.6v1.2c.4.2.8.4,1.2.6v4.81h.6c.98,3.46-.27,8.93.6,12.02v17.43h.6v18.03h.6v18.63h.6v27.64h.6v18.63c.6,2.16,1.47,15.73.6,18.63-.8,2.2-1.6,4.41-2.4,6.61h-.6c-.2.6-.4,1.2-.6,1.8-.4.2-.8.4-1.2.6v1.8c-.4.2-.8.4-1.2.6v3c-1,.8-2,1.6-3,2.4v33.65h.6v1.2c1.6,1.2,3.2,2.4,4.81,3.61v4.81c.4.2.8.4,1.2.6v1.2c.6.4,1.2.8,1.8,1.2v1.2c.6.4,1.2.8,1.8,1.2v1.8c.4.2.8.4,1.2.6v1.8h.6v1.8h.6v2.4h.6c.79,2.65-.07,10.22-.6,12.02-.2,1.8-.4,3.61-.6,5.41h-.6v1.8h-.6c-.2.8-.4,1.6-.6,2.4h-.6v1.8h-.6v1.2h-.6v2.4h-.6v3h-.6c-1.42,4.93,1.4,12.73,3,15.02.8.6,1.6,1.2,2.4,1.8,1.26,1.94.44,4.08,1.2,6.61h.6v3h.6v2.4h.6v3c.66,2.14,1.63,7.76,3,9.01v1.2c.42.68,2.2.79,3,1.2v.6h1.8c.2.4.4.8.6,1.2h6.61v-.6h1.2v-.6h1.2v-.6h1.8v-.6c.6-.4,1.2-.8,1.8-1.2v-1.2c.4-.2.8-.4,1.2-.6v-2.4c1.03-3.04,1.48-7.6,2.4-10.82v-4.81h.6c.52-1.77-.27-3.45.6-4.81,1-.8,2-1.6,3-2.4v-1.8c.4-.2.8-.4,1.2-.6v-1.8h.6v-1.8h.6c1.15-3.58-.51-8.76-1.2-10.82v-2.4h-.6v-1.2h-.6v-2.4h-.6c-.2-.8-.4-1.6-.6-2.4h-.6v-1.8h-.6v-1.2h-.6v-3h-.6v-3h-.6v-9.61h.6v-3.61h.6v-2.4h.6v-1.2h.6v-1.8c.4-.2.8-.4,1.2-.6v-1.2c1-.8,2-1.6,3-2.4.6-2.2,1.2-4.41,1.8-6.61,1.64-.42,1.36-.81,3-1.2v-1.8c3.22-.04,3.89-.57,6.01-1.2h7.21v-.6h8.41v-.6c3.48-.97,8.92.26,12.02-.6h22.83v.6h2.4c8.47.2,17.09.19,23.43,2.4,3.2.2,6.41.4,9.61.6,5.61,1.2,11.22,2.4,16.83,3.61.2.4.4.8.6,1.2,1.4.2,2.8.4,4.21.6v.6h1.8v.6h1.8v.6c1.8.6,3.61,1.2,5.41,1.8v.6c.8.2,1.6.4,2.4.6v.6c1,.2,2,.4,3,.6.2.4.4.8.6,1.2.8.2,1.6.4,2.4.6.4.6.8,1.2,1.2,1.8h1.2c.4.6.8,1.2,1.2,1.8h1.2c1.6,1.8,3.2,3.61,4.81,5.41.8.6,1.6,1.2,2.4,1.8.2.6.4,1.2.6,1.8.4.2.8.4,1.2.6.92,1.95-.64,4.61.6,6.01.46,1.63.14,1.37,1.8,1.8.4,2.2.8,4.41,1.2,6.61.8.6,1.6,1.2,2.4,1.8v1.2c.6.4,1.2.8,1.8,1.2,2.1,3.19,2.41,9.03,2.4,14.42v6.01h-.6v3h-.6v3h-.6c-.2.8-.4,1.6-.6,2.4h-.6v1.8h-.6v1.2h-.6v1.8h-.6v1.2h-.6c-.2,1.2-.4,2.4-.6,3.61h-.6v3h-.6v8.41h.6c.2,1.2.4,2.4.6,3.61.4.2.8.4,1.2.6v1.8c.6.4,1.2.8,1.8,1.2v1.2c.6.4,1.2.8,1.8,1.2v3.61h.6v3.61h.6v3h.6v3.61h.6v3.61h.6v2.4h.6c.65,1.93-.02,3.47,1.2,4.81.47,1.93,1.65,3.16,3.61,3.61,2.25,2.18,12.05,1.27,13.82-.6.8-.6,1.6-1.2,2.4-1.8,1.6-8.41,3.2-16.83,4.81-25.24h.6v-1.2c.8-.6,1.6-1.2,2.4-1.8v-1.2c.6-.4,1.2-.8,1.8-1.2.2-1,.4-2,.6-3h.6v-10.82h-.6v-2.4h-.6v-1.8h-.6v-2.4h-.6c-.2-.8-.4-1.6-.6-2.4h-.6c-1.2-3.81-2.4-7.61-3.61-11.42-1.19-4.14.74-15.67,1.8-18.03h.6v-1.2c.4-.2.8-.4,1.2-.6v-1.8c.6-.4,1.2-.8,1.8-1.2.2-.8.4-1.6.6-2.4.4-.2.8-.4,1.2-.6v-4.81c.6-.2,1.2-.4,1.8-.6.18-1.09.6-1.2.6-1.2v-6.01h.6c.2-.8.4-1.6.6-2.4.8-.6,1.6-1.2,2.4-1.8v-1.2c.4-.2.8-.4,1.2-.6,1-1.2,2-2.4,3-3.61h1.2c.4-.6.8-1.2,1.2-1.8h1.2c.4-.6.8-1.2,1.2-1.8h1.2c2.4-1.61,4.75-3.86,8.41-4.21v-1.2c3.39-.38,5.74-1.96,8.41-3,1.4-.2,2.8-.4,4.21-.6v-.6h1.2v-.6h2.4v-.6h2.4v-.6h2.4v-.6h3.61v-.6h3v-.6h3.61v-.6h4.81v-.6h5.41v-.6h1.8v-.6h6.61v-.6h9.61c6.41-1.81,18.17-.6,25.84-.6h10.82v.6c3.32.91,8.49-.2,11.42.6,3.84,1.05,8.42-1.06,10.82,1.2h5.41v.6c1,.8,2,1.6,3,2.4v2.4h.6v2.4c.6.4,1.2.8,1.8,1.2.2.6.4,1.2.6,1.8h.6v1.2c2.56,4.54,4.22,8.3,4.21,15.62v4.21h-.6v3h-.6v3h-.6v1.8h-.6v1.8h-.6v1.2h-.6c-1.18,2.72-4.49,13.36-3,18.03h.6c.58,1.62.36,3.51,1.2,4.81.6.4,1.2.8,1.8,1.2v1.2c.6.4,1.2.8,1.8,1.2v3h.6v4.21h.6v3.61h.6v3.61h.6v3h.6c.94,3.1-.35,4.63,1.8,6.61v1.2c.6.2,1.2.4,1.8.6.2.4.4.8.6,1.2h1.8c.2.4.4.8.6,1.2,4.41.07,9.27.41,11.42-1.8,2.92-1.73,1.83-2.29,3-5.41h.6v-2.4h.6v-4.21h.6c.2-1.8.4-3.61.6-5.41h.6v-3h.6c.2-1.6.4-3.2.6-4.81.8-.6,1.6-1.2,2.4-1.8v-1.2c.6-.4,1.2-.8,1.8-1.2,1.26-1.91,2.95-9.84,1.8-13.82h-.6c-.4-2.4-.8-4.81-1.2-7.21h-.6v-1.2h-.6v-2.4h-.6v-1.2h-.6v-1.8h-.6c-.4-2.6-.8-5.21-1.2-7.81h-.6c-.62-2.17.2-5.95.6-7.21.2-1.6.4-3.2.6-4.81h.6v-1.2h.6v-1.8c.4-.2.8-.4,1.2-.6.2-.8.4-1.6.6-2.4.8-.6,1.6-1.2,2.4-1.8v-1.2c.8-.6,1.6-1.2,2.4-1.8.2-1.8.4-3.61.6-5.41,2.47-.66,2.42-2.41,4.21-3.61v-33.05h-.6v-1.2c-.4-.2-.8-.4-1.2-.6v-1.2h-.6c-.2-1.4-.4-2.8-.6-4.21h-.6c-.2-.8-.4-1.6-.6-2.4h-.6c-.2-.8-.4-1.6-.6-2.4-.4-.2-.8-.4-1.2-.6-.2-1-.4-2-.6-3h-.6v-1.2h-.6v-3c-.84-2.79-.6-7.67-.6-11.42v-9.01c1.04-3.71-.46-10.02.6-13.82h.6v-16.83h.6c.2-5.21.4-10.42.6-15.62v-6.61c.87-3.1-.37-8.55.6-12.02.99-3.54-.42-9.58.6-13.22.79-2.81.6-7.66.6-11.42.4-7.61.8-15.22,1.2-22.83.4-.2.8-.4,1.2-.6.5-.88,1.71-5.62,1.2-7.21h-.6v-1.8c-.6-.4-1.2-.8-1.8-1.2v-3h-.6c-.2-.8-.4-1.6-.6-2.4h-.6v-1.2c-.6-.4-1.2-.8-1.8-1.2v-1.8h-.6c-.2-.8-.4-1.6-.6-2.4h-.6v-2.4h-.6v-2.4h-.6c-.76-2.55-.1-12.06.6-13.82h.6c.4-1.2.8-2.4,1.2-3.61h.6v-1.2c.6-.4,1.2-.8,1.8-1.2v-2.4c.8-.4,1.6-.8,2.4-1.2v-1.8c.57-1.4,2.11-4.57,1.2-7.21h-.6c-.2-.8-.4-1.6-.6-2.4.6-.2,1.2-.4,1.8-.6.2-.4.4-.8.6-1.2,1.67-1.13,2.43-.71,3-3,1.61-1.71.68-13.91.6-18.63,1.81-.4,2.28-1.09,3.61-1.8v-6.61h-1.2v-31.85c.4-.2.8-.4,1.2-.6v-1.2h.6v-1.2h.6v-9.01c-.6-.4-1.2-.8-1.8-1.2-.29-.9,2.13-5.84,2.4-6.61v-2.4h.6c.2-1.4.4-2.8.6-4.21h.6v-1.8h.6v-1.8h.6v-1.8h.6v-3h.6c.2-1.4.4-2.8.6-4.21h.6v-1.8h.6v-2.4h.6v-3h.6v-1.8h.6v-3h.6v-2.4h.6v-3.61h.6v-3h.6c.2-3.2.4-6.41.6-9.61.56-2,1.38-12.83.6-15.62ZM223.02,265.38c-.2,5.41-.4,10.82-.6,16.22h-.6v1.2h-.6v1.2h-.6c-.2,1.2-.4,2.4-.6,3.61h-.6v1.2c-.4.2-.8.4-1.2.6-.2,1.2-.4,2.4-.6,3.61h-.6c-.94,3.25,1.53,5.99,2.4,7.81h.6c.2,12.82.4,25.64.6,38.46.2,16.22.4,32.45.6,48.67-1,.6-2,1.2-3,1.8v1.2h-.6v4.21c-.4.2-.8.4-1.2.6v4.21h-.6v4.81h-.6c-.4.6-.8,1.2-1.2,1.8h-1.2c-.6.8-1.2,1.6-1.8,2.4h-1.2c-.2.4-.4.8-.6,1.2h-1.2l-1.2,1.2h-1.2v.6h-1.2v.6h-1.2c-.2.4-.4.8-.6,1.2-1,.2-2,.4-3,.6v.6c-.8.2-1.6.4-2.4.6v.6h-1.8v.6h-1.2v.6c-1.2.2-2.4.4-3.61.6-.2.4-.4.8-.6,1.2h-2.4v.6h-1.2v.6h-2.4v.6h-1.8v.6h-2.4v.6h-2.4v.6h-2.4v.6h-1.2v.6h-2.4v.6h-3c-5.18,1.62-12.03,2.03-17.43,3.61h-4.81v.6h-1.2v.6h-5.41v.6h-5.41v.6h-6.61v.6h-6.61v.6c-9.61.4-19.23.8-28.84,1.2-2.83,0-10.54-.64-12.02.6h-12.62v-.6c-1.38-1.22-.38-1.49-1.2-3-.4-.2-.8-.4-1.2-.6v-1.2h-.6v-1.2c-.6-.4-1.2-.8-1.8-1.2v-1.2h-.6c-.2-.8-.4-1.6-.6-2.4h-.6v-1.8h-.6c-.68-1.98-1.37-16.48-.6-19.23h.6v-24.04h.6v-17.43h.6v-16.83h.6v-16.83h.6v-15.02c.4-9.41.8-18.83,1.2-28.24.4-.2.8-.4,1.2-.6v-1.2h.6v-6.61c-.6-.4-1.2-.8-1.8-1.2v-2.4h-.6v-1.2h-.6v-1.2c-.4-.2-.8-.4-1.2-.6-.2-.8-.4-1.6-.6-2.4h-.6v-1.2h-.6c-.4-1.2-.8-2.4-1.2-3.61h-.6v-1.8h-.6v-2.4h-.6v-4.81c0-3.57.09-7.05,1.2-9.61h.6c.2-.8.4-1.6.6-2.4h.6v-1.2h.6v-1.8c.4-.2.8-.4,1.2-.6.2-1,.4-2,.6-3,.6-.2,1.2-.4,1.8-.6,1.63-3.91,1.74-5.98,1.2-10.82,3.3-.72,4.2-2.81,6.61-4.21v-8.41c2.4.2,4.81.4,7.21.6v.6h6.01v.6h6.01v.6h6.61v.6h6.01v.6h7.21v.6h7.21v.6h3v.6h8.41v.6h6.61c4.41.2,8.81.4,13.22.6v.6c7.81.2,15.62.4,23.43.6,2.68,0,8.05-.73,9.61.6h22.23c3.55,0,8.21-.35,10.82.6v17.43h.6v1.2c.8.6,1.6,1.2,2.4,1.8-.2,2.8-.4,5.61-.6,8.41h.6v1.2c.4.2.8.4,1.2.6v1.8c.6.4,1.2.8,1.8,1.2v2.4c.4.2.8.4,1.2.6v1.8h.6v9.01ZM423.11,254.57h-.6v1.8h-.6v1.2h-.6v1.8h-.6v1.2h-.6v1.8c-.4.2-.8.4-1.2.6-.2.8-.4,1.6-.6,2.4-.4.2-.8.4-1.2.6v1.2c-.4.2-.8.4-1.2.6v1.2h-.6v3.61c-.6.4-1.2.8-1.8,1.2-.2,2-.4,4.01-.6,6.01h.6v2.4c.4.2.8.4,1.2.6.2,1.2.4,2.4.6,3.61h.6c.2,11.02.4,22.03.6,33.05v21.63c1.55,5.53.6,14.43.6,21.03v6.01h.6v19.23c1.26,4.53.57,11.88.6,17.43.2,3,.4,6.01.6,9.01h-.6c-.2,2.2-.4,4.41-.6,6.61h-.6v1.2h-.6c-.2.8-.4,1.6-.6,2.4-.4.2-.8.4-1.2.6-.2.8-.4,1.6-.6,2.4-.6.4-1.2.8-1.8,1.2v1.8c-.4.2-.8.4-1.2.6-.2.6-.4,1.2-.6,1.8h-29.44v-.6h-17.43v-.6h-6.01c-4.01-.2-8.01-.4-12.02-.6v-.6h-6.61v-.6h-6.01v-.6h-1.8v-.6h-4.81v-.6h-4.21v-.6h-3.61v-.6h-3.61v-.6h-3v-.6h-3v-.6h-3v-.6h-3v-.6h-1.2v-.6c-1.6-.2-3.2-.4-4.81-.6v-.6h-2.4v-.6h-1.8v-.6h-1.8v-.6c-1.4-.2-2.8-.4-4.21-.6-.2-.4-.4-.8-.6-1.2-1.2-.2-2.4-.4-3.61-.6v-.6h-1.2v-.6c-1.2-.2-2.4-.4-3.61-.6v-.6c-.8-.2-1.6-.4-2.4-.6v-.6h-1.8c-.2-.4-.4-.8-.6-1.2h-1.2v-.6c-.8-.2-1.6-.4-2.4-.6-2.4-2-4.81-4.01-7.21-6.01v-7.81h-.6v-1.2h-.6c-.61-1.66.1-2.9-.6-4.21h-.6v-1.2c-.8-.4-1.6-.8-2.4-1.2.4-14.42.8-28.84,1.2-43.26.2-14.42.4-28.84.6-43.26.06-2.12.35-3.36,1.2-4.81.4-.2.8-.4,1.2-.6v-7.21h-.6v-1.2c-.4-.2-.8-.4-1.2-.6-.2-1-.4-2-.6-3-.4-.2-.8-.4-1.2-.6v-1.8c-.4-.2-.8-.4-1.2-.6v-1.2h-.6c-.2-.8-.4-1.6-.6-2.4h-.6v-2.4h-.6v-8.41h-.6c.2-3.2.4-6.41.6-9.61.94-2.89,2.77-3.27,3-7.21,2.15-.62,5.26-5.29,4.21-9.01h-.6c-.2-1.2-.4-2.4-.6-3.61.6-.4,1.2-.8,1.8-1.2v-1.2c.6-.4,1.2-.8,1.8-1.2v-1.2h.6v-16.22c8.21-.2,16.43-.4,24.64-.6,5.35,0,12.49.62,16.83-.6h8.41c6.81-.2,13.62-.4,20.43-.6v-.6c9.81-.4,19.63-.8,29.44-1.2v-.6h3v-.6h7.81v-.6h6.61v-.6h6.01v-.6h5.41c4.06-1.15,9.99-1.83,15.02-1.8,0,3.42.14,7.04.6,9.61,2.2.59,3.01,1.92,5.41,2.4-.62,3.15-.93,7.57,1.2,9.61.69,1.17.83,1.43,2.4,1.8.14,3.83.53,2.59,1.8,4.81v1.2c.4.2.8.4,1.2.6.2,1,.4,2,.6,3h.6v1.2h.6c.2,2.2.4,4.41.6,6.61v4.21Z"/>
  </g>
  <g id="Layer_2" data-name="Layer 2">
    <path class="cls-2" d="M464.58,157.22c.4-.2.8-.4,1.2-.6v-1.2h.6v-1.2h.6v-9.01c-.6-.4-1.2-.8-1.8-1.2-.29-.9,2.13-5.84,2.4-6.61v-2.4h.6c.2-1.4.4-2.8.6-4.21h.6v-1.8h.6v-1.8h.6v-1.8h.6v-3h.6c.2-1.4.4-2.8.6-4.21h.6v-1.8h.6v-2.4h.6v-3h.6v-1.8h.6v-3h.6v-2.4h.6v-3.61h.6v-3h.6c.2-3.2.4-6.41.6-9.61.56-2,1.38-12.83.6-15.62h-.6v-4.81h-.6v-3h-.6v-2.4h-.6v-2.4h-.6v-1.8h-.6v-1.8h-.6c-.4-1.2-.8-2.4-1.2-3.61h-.6c-.2-.8-.4-1.6-.6-2.4-.4-.2-.8-.4-1.2-.6-.2-.8-.4-1.6-.6-2.4-.8-.6-1.6-1.2-2.4-1.8v-1.2c-.4-.2-.8-.4-1.2-.6-1.42-1.49-2.16-2.66-4.21-3.61v-1.2c-.6-.2-1.2-.4-1.8-.6v-.6c-.6-.2-1.2-.4-1.8-.6-.2-.4-.4-.8-.6-1.2h-1.2c-.4-.6-.8-1.2-1.2-1.8-.8-.2-1.6-.4-2.4-.6-.2-.4-.4-.8-.6-1.2h-1.2l-1.2-1.2h-1.2v-.6h-1.2l-.6-1.2c-1-.2-2-.4-3-.6v-.6c-.8-.2-1.6-.4-2.4-.6v-.6h-1.8v-.6h-1.8v-.6h-1.2v-.6h-1.8c-.2-.4-.4-.8-.6-1.2h-2.4v-.6h-1.2v-.6h-2.4v-.6h-1.8v-.6h-1.8v-.6c-1.4-.2-2.8-.4-4.21-.6v-.6h-1.2v-.6c-12.62-2.6-25.24-5.21-37.86-7.81-4.01-.4-8.01-.8-12.02-1.2v-.6h-1.8v-.6h-4.81v-.6h-4.81v-.6h-4.81v-.6h-5.41v-.6h-5.41v-.6h-6.01v-.6c-5.01-.2-10.02-.4-15.02-.6v-.6h-3v-.6h-9.01v-.6h-9.61c-3.1-.88-8.55.38-12.02-.6-3.68-1.04-9.76-.55-14.42-.6h-3V.39h-33.05c-7.83,0-21.24-1.19-27.64.6h-18.63v.6c-3.64,1.02-9.35-.32-12.62.6-6.81.2-13.62.4-20.43.6v.6h-3v.6h-7.21v.6h-7.81v.6h-6.01v.6h-6.01v.6h-4.81v.6h-6.01v.6h-4.81c-5.62,1.63-12.98,1.91-18.63,3.61-4.61.6-9.21,1.2-13.82,1.8v.6h-1.2v.6h-3.61v.6c-1.8.2-3.61.4-5.41.6v.6h-2.4v.6h-2.4v.6h-3v.6h-2.4v.6h-3c-.2.4-.4.8-.6,1.2h-2.4v.6h-1.8v.6h-1.8v.6h-1.8v.6h-2.4v.6h-1.8v.6h-1.8c-.2.4-.4.8-.6,1.2h-1.8v.6h-1.8v.6c-.8.2-1.6.4-2.4.6v.6h-1.8c-1.45.66-1.9,1.61-4.21,1.8v1.2c-2.97.37-2.92,1.36-4.81,2.4-.8.2-1.6.4-2.4.6-.4.6-.8,1.2-1.2,1.8h-1.2c-.2.4-.4.8-.6,1.2-.6.2-1.2.4-1.8.6v.6c-.6.2-1.2.4-1.8.6v1.2c-1.63.46-1.37.14-1.8,1.8-3.13.85-3.81,3.64-5.41,6.01-.4.2-.8.4-1.2.6v1.2c-.4.2-.8.4-1.2.6-.4,1.2-.8,2.4-1.2,3.61-11.33,21.26-2.7,56.3,4.21,75.71.2,1.4.4,2.8.6,4.21.8,2.05,4.42,9.67,3.61,12.62h-.6v2.4h-.6c-.65,2.23.66,8.09,1.2,9.61h.6"/>
  </g>
</svg>