<svg width="1628" height="2048" viewBox="0 0 1628 2048" fill="none" xmlns="http://www.w3.org/2000/svg">
<path d="M391 1742.5C388.333 1742.5 385.167 1740 381.5 1735C366.167 1720.33 358.5 1712.33 358.5 1711C353.833 1705.67 349.5 1699.33 345.5 1692C342.167 1688 337.833 1677.67 332.5 1661C331.167 1649.67 329.5 1642.33 327.5 1639C328.833 1619 331.167 1603.33 334.5 1592C334.5 1589.33 338.833 1578.33 347.5 1559C362.833 1537.67 376.667 1520.83 389 1508.5C416.333 1487.83 430.667 1477.5 432 1477.5C436.667 1471.5 439.667 1468.5 441 1468.5C448.333 1463.17 453.667 1460.83 457 1461.5C475 1450.17 485.667 1443.83 489 1442.5C493 1439.17 495.667 1437.5 497 1437.5C505.333 1429.83 513.167 1421.33 520.5 1412C527.167 1402 532.167 1393.67 535.5 1387C550.833 1368.33 565 1352.83 578 1340.5C580 1339.83 586 1335.17 596 1326.5C602.667 1322.5 609.333 1317.5 616 1311.5C622 1307.5 634.167 1295.33 652.5 1275C653.833 1264.33 655.167 1257.67 656.5 1255C656.5 1251.67 657.167 1248.33 658.5 1245C658.5 1238.33 658.167 1234.67 657.5 1234C657.5 1230 656.833 1226.67 655.5 1224C654.833 1217.33 652.833 1209.33 649.5 1200C648.833 1194.67 647.167 1188 644.5 1180C641.833 1176 640.5 1173.33 640.5 1172C632.833 1162.33 624 1154.17 614 1147.5C606 1144.17 601 1142.5 599 1142.5C587.667 1137.17 581 1134.5 579 1134.5C572.333 1131.83 557.333 1124.5 534 1112.5C526.667 1107.17 521.333 1104.5 518 1104.5C517.333 1103.83 514.667 1103.83 510 1104.5C508 1103.17 504 1101.83 498 1100.5C492 1097.17 486.833 1093.67 482.5 1090C479.167 1084.67 476.833 1080 475.5 1076C475.5 1064.67 476.833 1054.33 479.5 1045C484.833 1035.67 487.5 1027.33 487.5 1020C486.833 1019.33 486.5 1017.33 486.5 1014C483.833 1009.33 481 1005.5 478 1002.5C475.333 1001.83 472.833 999.667 470.5 996C469.833 992 469.833 988.333 470.5 985C473.167 981 474.5 977.667 474.5 975C469.833 971.667 466.5 968.667 464.5 966C463.167 962 463.167 956.667 464.5 950C469.167 940 471.5 931.667 471.5 925C470.167 921.667 469.5 918.667 469.5 916C467.167 913.667 459.333 911.833 446 910.5C440.667 907.833 436.333 906.167 433 905.5C431.667 904.167 429.333 903.167 426 902.5C421.667 897.5 417.833 891.667 414.5 885C414.5 882.333 415.5 878.333 417.5 873C427.5 862.333 435.167 852.333 440.5 843C447.167 833.667 455.833 822.333 466.5 809C485.833 790.333 496.833 778.667 499.5 774C499.5 770 499.833 767.667 500.5 767C499.833 765.667 499.5 755.333 499.5 736C496.833 732.667 495.5 725.333 495.5 714C494.167 712.667 493.5 711.333 493.5 710C496.167 707.333 497.833 700.333 498.5 689C501.167 679.667 505.167 670 510.5 660C510.5 658 510.833 656 511.5 654C513.5 652 514.5 650 514.5 648C512.833 647.667 508.333 649.5 501 653.5C495.667 654.833 490.667 654.5 486 652.5C483.333 653.167 481.833 653 481.5 652C486.5 648.333 491.667 646.5 497 646.5C499.667 643.167 502 641.5 504 641.5C507 639.167 509.167 636.667 510.5 634C518.5 626 524.167 617.333 527.5 608C538.167 591.333 545.333 580.833 549 576.5C564 564.833 572.833 556 575.5 550C575.5 548 573.5 544.333 569.5 539C568.833 537 568.833 534 569.5 530C575.167 524.333 580.833 519.667 586.5 516C589.167 509.333 592.667 504.167 597 500.5C602.333 497.833 607.667 495.833 613 494.5C614.333 493.167 616 492.5 618 492.5C620.667 490.5 622.667 489.5 624 489.5C627.667 485.833 629.833 481.667 630.5 477C634.833 472.667 643 466.833 655 459.5C658 455.833 658.667 452.833 657 450.5C652.333 451.167 646.333 453.5 639 457.5C637 459.5 635 460.5 633 460.5C630.333 462.5 626.333 464.167 621 465.5C617.667 468.167 612.667 469.167 606 468.5C598.667 466.5 594 464.833 592 463.5C591.333 464.167 589.667 463.833 587 462.5C585 462.5 583 461.5 581 459.5C577 458.167 571 454.5 563 448.5C556.667 442.167 553.167 436.667 552.5 432C554.167 431 557.333 431.5 562 433.5C562.667 432.833 566.667 432.167 574 431.5C592 419.5 604.333 412.167 611 409.5C619 408.833 623.333 408.167 624 407.5C635.333 408.167 643.667 409.5 649 411.5C659.667 413.5 667.667 416.167 673 419.5C679 421.5 683.667 423.833 687 426.5C696.333 431.167 706.333 431.833 717 428.5C720.333 429.167 723 428.5 725 426.5C728.333 425.833 731 424.5 733 422.5C733.667 423.167 734.333 423.167 735 422.5C736.333 423.833 741 424.5 749 424.5C750.667 422.833 751.5 420.333 751.5 417C750.833 414.333 749.833 412.333 748.5 411C748.5 406.333 748.167 403.667 747.5 403C748.167 402.333 748.167 401.667 747.5 401C748.167 399.667 748.167 397.667 747.5 395C748.167 394.333 748.833 388.333 749.5 377C757.167 366.667 762.667 361.833 766 362.5C767 364.167 767.833 370.333 768.5 381C769.833 384.333 770.5 387.667 770.5 391C773.167 399.667 775.833 406.333 778.5 411C781.5 414 784.333 416.167 787 417.5C793.667 419.5 798.667 420.5 802 420.5C803.667 418.833 804.5 417.333 804.5 416C795.167 398.667 789.833 386.667 788.5 380C786.5 378 785.667 376.5 786 375.5C788.667 374.833 791 373.167 793 370.5C795.667 369.167 801 368.167 809 367.5C816 372.5 821.833 380 826.5 390C826.5 392.667 827.833 399 830.5 409C832.167 411.333 833.667 412.5 835 412.5C845.333 394.833 854.167 382 861.5 374C863.5 370.667 870.667 362.833 883 350.5C893.667 343.833 903.333 338.5 912 334.5C912.667 335.167 916.333 334.833 923 333.5C925.667 332.833 927.667 331.833 929 330.5C930.333 330.5 931.667 331.167 933 332.5C937.667 331.833 942.667 332.167 948 333.5C949.333 332.833 952.667 332.833 958 333.5C977.333 339.5 987.667 343.167 989 344.5C997 347.167 1007.67 351.833 1021 358.5C1022.33 358.5 1025.33 360.167 1030 363.5C1045.33 371.5 1059.33 378.167 1072 383.5C1090 395.5 1106.67 409.5 1122 425.5C1136 436.833 1144.67 443.167 1148 444.5C1150 446.5 1155 449.167 1163 452.5C1168.33 456.5 1173.67 459.5 1179 461.5C1181 460.833 1183.67 461.833 1187 464.5C1192.33 465.833 1197 467.833 1201 470.5C1206 475.5 1208.5 478.667 1208.5 480C1211.83 485.333 1214.83 492.667 1217.5 502C1218.83 509.333 1219.5 516 1219.5 522C1220.17 522.667 1220.5 526.333 1220.5 533C1226.5 540.333 1230.5 546.667 1232.5 552C1233.83 573.333 1235.83 586 1238.5 590C1240.5 597.333 1241.5 605.333 1241.5 614C1240.17 620 1240.17 629 1241.5 641C1246.17 649 1250 654.5 1253 657.5C1258.33 660.167 1263.67 664.167 1269 669.5C1272 671.167 1273.5 673 1273.5 675C1275.5 677 1278.5 682.333 1282.5 691C1283.17 699 1283.83 703.333 1284.5 704C1283.83 721.333 1281.5 737.667 1277.5 753C1277.5 758.333 1277.83 761.333 1278.5 762C1277.83 776.667 1275.17 790.333 1270.5 803C1261.5 814 1250.67 824.167 1238 833.5C1233.33 834.833 1229.67 836.833 1227 839.5C1222.33 839.5 1218.67 840.167 1216 841.5C1215.33 840.833 1213.83 841.667 1211.5 844C1206.17 857.333 1201.67 866.167 1198 870.5C1193.33 873.167 1187.33 875.5 1180 877.5C1176 879.5 1172.83 881.667 1170.5 884C1169.17 888 1168.5 892.333 1168.5 897C1165.83 905 1164.17 912 1163.5 918C1158.83 928 1155 934.5 1152 937.5C1141.33 942.167 1134.83 945.667 1132.5 948C1132.5 950 1131.5 952.333 1129.5 955C1127.17 957.333 1125 958.833 1123 959.5C1116.33 958.833 1109.33 955.833 1102 950.5C1099 952.833 1097.17 955.667 1096.5 959C1094.83 960 1091.33 960.5 1086 960.5C1084 959.167 1081.33 958.167 1078 957.5C1073.67 965.167 1067.83 974 1060.5 984C1052.17 991.667 1039 1000.17 1021 1009.5C1007 1012.83 995 1014.5 985 1014.5C983.667 1015.17 981.5 1017.67 978.5 1022C975.167 1032 972.833 1040.67 971.5 1048C970.167 1050.67 969.5 1054 969.5 1058C968.167 1060.67 967.167 1066.33 966.5 1075C965.167 1080.33 964.5 1086.33 964.5 1093C963.833 1093.67 963.167 1101.67 962.5 1117C963.167 1117.67 963.833 1125.33 964.5 1140C967.5 1143 971 1145.17 975 1146.5C978 1150.83 980.167 1155.67 981.5 1161C980.833 1166.33 983.833 1178.67 990.5 1198C996.5 1209.33 1002.17 1219.33 1007.5 1228C1014.17 1236.67 1019.5 1245.33 1023.5 1254C1031.5 1266.67 1042.17 1286.67 1055.5 1314C1056.83 1315.33 1057.5 1316.67 1057.5 1318C1062.83 1326.67 1068.17 1337.33 1073.5 1350C1076.83 1356 1079.5 1360 1081.5 1362C1083.5 1369.33 1086.17 1376 1089.5 1382C1090.83 1388.67 1092.5 1393.67 1094.5 1397C1094.5 1399.67 1093.67 1402.17 1092 1404.5C1088.67 1404.5 1084 1403.5 1078 1401.5C1073.33 1401.5 1070.67 1401.17 1070 1400.5C1068.67 1401.17 1066.33 1401.17 1063 1400.5C1060.33 1402.5 1058 1403.5 1056 1403.5C1054 1401.5 1052 1400.83 1050 1401.5C1048.67 1400.83 1037 1400.5 1015 1400.5C1014.33 1401.17 1007 1401.5 993 1401.5C992.333 1402.17 990.667 1402.17 988 1401.5C987.333 1402.17 984 1402.5 978 1402.5C974 1403.83 966.333 1404.83 955 1405.5C951.667 1406.17 949.333 1407.17 948 1408.5C941.333 1408.5 936.333 1409.5 933 1411.5C931 1410.83 927.667 1410.83 923 1411.5C918.333 1413.5 914 1414.5 910 1414.5C907.333 1415.83 904.333 1416.5 901 1416.5C896.333 1418.5 893 1419.5 891 1419.5C889 1420.83 885 1421.83 879 1422.5C877.667 1423.83 875.667 1424.5 873 1424.5C860.333 1429.17 851.667 1431.83 847 1432.5C844.333 1434.5 840 1436.17 834 1437.5C827.333 1441.5 822.667 1443.5 820 1443.5C815.333 1445.5 812 1446.5 810 1446.5C806.667 1449.17 802 1451.17 796 1452.5C794 1454.5 790.667 1456.17 786 1457.5C773.333 1464.17 764.667 1468.17 760 1469.5C753.333 1474.17 748 1476.83 744 1477.5C742 1479.5 739 1481.17 735 1482.5C733 1484.5 730.333 1485.83 727 1486.5C725 1488.5 723.333 1489.5 722 1489.5C715.333 1494.17 703.667 1501.17 687 1510.5C682.333 1514.5 678.667 1516.83 676 1517.5C673.333 1520.17 671.333 1521.5 670 1521.5C662 1526.17 655.667 1530.83 651 1535.5C649.667 1535.5 646.667 1537.5 642 1541.5C637.333 1543.5 632 1547.17 626 1552.5C617.333 1557.83 608.667 1564.17 600 1571.5C597.333 1572.83 593 1576.5 587 1582.5C585 1583.17 579.667 1587.17 571 1594.5C569 1595.17 561.667 1600.83 549 1611.5C545 1613.5 537 1619.5 525 1629.5C511.667 1638.17 501.667 1645.83 495 1652.5C483 1661.17 468 1673.5 450 1689.5C441.333 1695.5 432.333 1702.5 423 1710.5L391 1742.5Z" fill="black"/>
</svg>
