<svg width="1534" height="2048" viewBox="0 0 1534 2048" fill="none" xmlns="http://www.w3.org/2000/svg">
<path d="M507 1700.5C500.333 1700.5 496.667 1700.17 496 1699.5C486 1699.5 480 1699.83 478 1700.5C468 1695.83 461.5 1692 458.5 1689C457.167 1684.33 451.833 1673 442.5 1655C441.167 1649.67 439.833 1646 438.5 1644C439.167 1643.33 438.833 1641.33 437.5 1638C436.833 1628 436.167 1622.67 435.5 1622C436.167 1620.67 436.167 1619.33 435.5 1618C435.5 1604.67 435.833 1597.67 436.5 1597C436.5 1586.33 436.833 1580.67 437.5 1580C438.833 1560.67 440.167 1548.67 441.5 1544C443.5 1524 445.5 1511 447.5 1505C447.5 1500.33 448.167 1496.33 449.5 1493C450.833 1484.33 457.833 1467 470.5 1441C470.5 1439.67 476.5 1427.33 488.5 1404C500.5 1386 509.833 1373 516.5 1365C518.5 1357.67 519.5 1342 519.5 1318C521.5 1308 523.833 1300 526.5 1294C526.5 1292 529.5 1285 535.5 1273C542.833 1263 547.167 1256.33 548.5 1253C556.5 1245 560.833 1239.33 561.5 1236C556.167 1228.67 551.5 1220.33 547.5 1211C547.5 1199.67 547.833 1193.33 548.5 1192C542.5 1180.67 539.5 1173.33 539.5 1170C538.167 1165.33 537.833 1162.67 538.5 1162C531.167 1153.33 526.5 1146 524.5 1140C524.5 1132.67 522.167 1126 517.5 1120C514.833 1112.67 513.5 1108 513.5 1106C515.5 1102 520 1097.17 527 1091.5C530.333 1091.5 533.333 1090.83 536 1089.5C536.333 1086.5 531 1081.83 520 1075.5C504.667 1063.5 492.667 1055.17 484 1050.5C479 1046.17 474.167 1039.67 469.5 1031C468.833 1023.67 468.833 1019.67 469.5 1019C470.167 1009 473.833 997.667 480.5 985C481.167 982.333 481.167 977.667 480.5 971C476.5 959.667 473.833 950.333 472.5 943C472.5 939.667 473.167 935.667 474.5 931C476.5 928.333 477.5 925.667 477.5 923C474.5 921.333 471.167 918.333 467.5 914C464.833 905.333 463.5 897.667 463.5 891C466.167 880.333 468.167 869.333 469.5 858C467.833 855.667 463 853.5 455 851.5C444.333 845.5 435.833 838.667 429.5 831C428.167 825.667 427.5 821 427.5 817C428.167 813.667 430.167 808.667 433.5 802C443.167 791.667 453.5 781.667 464.5 772C477.167 756 488 744.5 497 737.5C502 732.5 505.833 728 508.5 724C511.167 716 511.833 703 510.5 685C512.5 677.667 513.5 672.333 513.5 669C511.833 668 508.667 667.833 504 668.5C503 666.833 503.167 664.667 504.5 662C508.833 659.667 512.167 657 514.5 654C515.833 650 516.833 643.667 517.5 635C520.167 629.667 523.167 625.667 526.5 623C527.167 620.333 529.167 617.333 532.5 614C532.5 611.333 529.667 608.833 524 606.5C511.333 604.5 503.333 602.833 500 601.5C482.667 599.5 468 597.167 456 594.5C455.333 595.167 452.667 594.833 448 593.5C443.333 593.5 439.333 592.833 436 591.5C430.667 591.5 424.667 590.833 418 589.5C398.667 589.5 388.667 589.167 388 588.5C372 587.833 362.833 586.667 360.5 585C360.5 582.333 362.667 578.833 367 574.5C375 569.833 381.333 566.5 386 564.5C396.667 561.833 403.667 560.5 407 560.5C410.333 559.167 413 558.833 415 559.5C426.333 557.5 438.667 556.167 452 555.5C452.667 554.833 458.667 553.833 470 552.5C473.333 551.167 482 549.833 496 548.5C496.667 547.833 502.667 547.5 514 547.5C514.667 546.833 522.333 546.167 537 545.5C537.333 542.5 536 540.167 533 538.5C532 536.167 533.833 533.333 538.5 530C539.5 526.333 542 524.5 546 524.5C546.667 523.833 554 523.833 568 524.5C570.667 523.167 576.5 516.333 585.5 504C587.833 503 590.167 501 592.5 498C597.167 489.333 600.833 483.667 603.5 481C608.833 471.667 615.833 461.333 624.5 450C634.5 434.667 642.833 423 649.5 415C652.167 413 665.833 396.333 690.5 365C706.5 347.667 729.833 317.667 760.5 275C776.833 258.667 787.333 249.5 792 247.5C798 247.5 808.667 251.5 824 259.5C825.333 259.5 827.333 260.5 830 262.5C832.667 263.167 842 268.167 858 277.5C864 282.167 869.667 285.833 875 288.5C884.333 295.167 890.667 299.167 894 300.5C896 302.5 901.667 306.167 911 311.5C913 313.5 931 325.5 965 347.5C967.667 350.167 974 354.5 984 360.5C994.667 368.5 1011.33 379.167 1034 392.5C1052.67 405.167 1064 412.167 1068 413.5C1069.33 415.5 1072.67 418.5 1078 422.5C1081.33 423.833 1085.67 426.5 1091 430.5C1100.33 435.833 1107.33 439.167 1112 440.5C1127.33 449.167 1139.33 455.167 1148 458.5C1156.67 463.833 1164.33 467.833 1171 470.5C1179 475.167 1192 483.833 1210 496.5C1214.33 502.167 1216.5 506 1216.5 508C1197.17 543.333 1187.17 562.333 1186.5 565C1174.5 588.333 1168.5 600.667 1168.5 602C1151.83 634 1142.5 653 1140.5 659C1137.83 663 1127.83 683 1110.5 719C1110.5 720.333 1103.17 736 1088.5 766C1085.83 774 1082.5 781.667 1078.5 789C1077.17 793.667 1075.17 798 1072.5 802C1065.83 818.667 1058.5 834.333 1050.5 849C1047.17 859 1045.83 866 1046.5 870C1057.83 884 1067.5 897.333 1075.5 910C1081.5 923.333 1086.83 938.333 1091.5 955C1096.17 965 1105.5 981.333 1119.5 1004C1124.83 1018 1127.83 1026.67 1128.5 1030C1127.83 1036 1126.33 1039.5 1124 1040.5C1120 1039.17 1113.5 1033.67 1104.5 1024C1093.17 1008.67 1085 998.5 1080 993.5C1077.33 992.167 1074.67 991.5 1072 991.5C1071 993.833 1073.5 1002.67 1079.5 1018C1084.17 1044 1086.5 1069 1086.5 1093C1084.5 1103 1083.5 1112 1083.5 1120C1092.17 1138 1097.5 1150.33 1099.5 1157C1099.5 1160.33 1099.83 1162.33 1100.5 1163C1099.83 1183.67 1100.5 1195.33 1102.5 1198C1103.83 1202 1104.5 1207 1104.5 1213C1105.83 1219.67 1107.67 1224.17 1110 1226.5C1118 1224.5 1125 1224.83 1131 1227.5C1136.67 1233.83 1139.5 1238.67 1139.5 1242C1140.17 1242.67 1140.17 1247 1139.5 1255C1137.83 1256.67 1135.67 1257.5 1133 1257.5C1122.33 1250.83 1115.67 1247.83 1113 1248.5C1112.67 1251.5 1113.83 1254.67 1116.5 1258C1117.83 1261.33 1121 1264.83 1126 1268.5C1128.33 1271.5 1129.83 1275 1130.5 1279C1123.5 1283.33 1118.83 1283.67 1116.5 1280C1110.83 1275 1106.67 1272.5 1104 1272.5C1103 1274.17 1102.5 1276.67 1102.5 1280C1101.17 1282.67 1100.83 1288 1101.5 1296C1100.17 1300 1099.5 1304 1099.5 1308C1100.83 1313.33 1101.17 1328 1100.5 1352C1102.5 1362 1103.5 1374 1103.5 1388C1104.83 1393.33 1105.83 1401 1106.5 1411C1104.5 1421 1102.67 1426.83 1101 1428.5C1095 1427.83 1091.5 1428.33 1090.5 1430C1090.83 1438.33 1080 1442.17 1058 1441.5C1050.67 1440.17 1046 1439.83 1044 1440.5C1043.33 1439.83 1039.33 1439.5 1032 1439.5C1031.33 1438.83 1027.33 1438.5 1020 1438.5C1019.33 1437.83 1008.33 1437.17 987 1436.5C986.333 1435.83 981 1435.5 971 1435.5C970.333 1434.83 969.333 1434.83 968 1435.5C961.333 1435.5 957.667 1435.17 957 1434.5C952.333 1434.5 949.667 1434.83 949 1435.5C948.333 1434.83 947.667 1434.83 947 1435.5C938.333 1435.5 933.667 1435.83 933 1436.5C929.667 1435.83 927.667 1435.83 927 1436.5C919.667 1436.5 915.667 1436.83 915 1437.5C910.333 1436.83 907.667 1436.83 907 1437.5C897 1438.17 890 1439.5 886 1441.5C875.333 1442.17 869 1443.17 867 1444.5C864.333 1444.5 857 1446.5 845 1450.5C840.333 1451.17 825.667 1456.17 801 1465.5C795 1468.83 790.333 1470.83 787 1471.5C776.333 1476.83 767.333 1482.17 760 1487.5C754.667 1490.17 726 1509.83 674 1546.5C663.333 1557.17 656.333 1563.5 653 1565.5C626 1594.5 596.5 1624.67 564.5 1656C563.167 1658.67 560.667 1661.17 557 1663.5C542.333 1678.17 531.333 1688.17 524 1693.5L507 1700.5Z" fill="black"/>
</svg>
