<?xml version="1.0" encoding="UTF-8"?>
<svg id="Layer_1" xmlns="http://www.w3.org/2000/svg" xmlns:ns0="http://www.w3.org/2000/svg" version="1.1" viewBox="0 0 651 972">
  <!-- Generator: Adobe Illustrator 30.0.0, SVG Export Plug-In . SVG Version: 2.1.1 Build 123)  -->
  <path d="M571.08,1.58c.05,1.16.29,1.4.6.61.29-.72.25-1.58-.08-1.92-.33-.33-.57.26-.53,1.31M226,5c-17.35,2.2-16.55,2.08-25.5,4.06-8.83,1.96-17.79,5.08-26.5,9.26-4.68,2.24-8.73,4.41-9.02,4.82-.29.41-1.64,1.22-3,1.8-1.36.58-5.34,2.86-8.83,5.06-3.49,2.2-6.56,4-6.82,4s-1.16.69-2.01,1.53c-.88.88-2.34,1.28-3.42.94-1.43-.45-1.74-.22-1.29.97.43,1.12-.01,1.56-1.57,1.56-1.28,0-1.9.44-1.51,1.07.36.59-.29,1.31-1.44,1.62-1.16.3-2.1.95-2.1,1.43s-.68.88-1.5.88-1.5.48-1.5,1.06-.45.78-.99.45c-.57-.35-.73.06-.38.98.34.88.22,1.48-.26,1.33-.48-.14-2.9,1.67-5.37,4.03-2.47,2.36-4.85,4.6-5.27,4.97-2.17,1.92-18.34,20.62-25.88,29.93-.91,1.12-1.98,3.1-2.39,4.39-.41,1.3-1.8,3.35-3.1,4.56-1.3,1.21-2.36,2.44-2.36,2.72,0,1.03-11.96,18.15-14.94,21.39-1.68,1.82-3.06,3.92-3.06,4.67s-.35,1.51-.77,1.69c-2.47,1.07-16.3,23.9-22.93,37.83-5,10.51-5.94,12.91-9.79,25-2.02,6.32-4.55,14.15-5.64,17.4-1.09,3.24-2.22,7.74-2.53,10-.31,2.26-.94,4.57-1.4,5.15-1.6,1.98-9.03,36.37-11.44,52.96-.88,6.05-2.97,18.88-4.64,28.5-4.29,24.71-4.48,43.04-.9,85.5,1.48,17.47,3.16,28.82,6.46,43.35,1.41,6.24,3.03,15.24,3.6,20,.88,7.35.89,11.47.08,24.19-.05.85-1.06,1.61-2.25,1.7-2.99.23-4.74,2.1-2.98,3.18,1.14.7,1.14.91,0,1.32-.75.27-1.06.81-.7,1.2.36.39,1.83-.05,3.25-.98,2.13-1.39,2.59-1.44,2.59-.26,0,2.07,4.09,5.31,6.98,5.52,1.37.1,3.39.62,4.5,1.15,2.49,1.19,7.72,2.52,8.87,2.25.47-.11,1.48.32,2.25.96.77.64,1.4.91,1.4.6s1.46-.09,3.25.47c1.79.56,5.25,1.26,7.69,1.55,6.12.73,12.67,3.71,14.13,6.43.9,1.68.92,2.37.07,2.65-1.62.54-1.42,2.21.27,2.21.78,0,1.79-1.09,2.25-2.43.75-2.2,1.01-2.3,2.77-1.01,1.69,1.24,1.9,2.52,1.7,10.01-.14,5.24-1.22,12.35-2.76,18.26-7.68,29.42-10.54,41.5-13.91,58.67-3.25,16.57-3.58,19.54-2.6,23.26,1.78,6.72,1.35,10.53-1.85,16.54-1.64,3.07-3.7,9.1-4.58,13.39-1.27,6.18-2.96,10.1-8.09,18.81-8.33,14.12-7.53,12.64-12.14,22.5-4.29,9.18-6.51,17.05-8.25,29.29-1.2,8.41-.36,15.04,2.66,21.01,1.72,3.41,10.26,14.97,15.21,20.6,1.75,1.99,2.75,4.03,2.41,4.92-.41,1.08-.13,1.35.97.92.99-.38,3.16.92,5.96,3.58,13.06,12.37,22.38,18.53,36.1,23.82,15.87,6.13,41.58,9.97,65.6,9.79,4.94-.04,7.9.41,9,1.35,2.65,2.27,4.91,2.69,6.19,1.15,1.38-1.66,4.95-1.95,4.95-.41,0,.71.6.71,1.93,0,2.71-1.45,8.39-1.36,7.47.12-.49.79-.27.88.69.28,1.51-.94,20.09-.74,23.4.26l2,.6-2,.78c-1.51.59-1.01.8,2,.86,2.2.05,4.9.24,6,.43,1.1.19,1.44.15.75-.09-3.13-1.08-.75-2.07,4-1.67,8.51.7,11.84,1.43,11.22,2.44-.37.59.36.59,1.92,0,2.03-.77,2.4-.68,1.95.5-.32.82.03,1.49.8,1.53.75.04,3.16.17,5.36.3,2.2.12,4.48-.12,5.07-.54.59-.42,3.96-.32,7.5.22,10.86,1.68,12.11,2.05,11.56,3.47-.28.73.19,1.59,1.04,1.92,1.09.42,1.38.14.97-.92-.32-.83-.14-1.51.39-1.51s.97,1.06.97,2.36c0,2.06.61,2.45,4.74,3.01,3.76.52,5.26.27,7.26-1.21,1.7-1.26,3.17-1.61,4.51-1.08q1.99.78,0,.93c-1.45.11-1.59.3-.5.69.83.3,2.94,1.2,4.7,2.01,1.76.81,3.67,1.18,4.25.82.58-.36,1.06.16,1.08,1.16.03,1.71.09,1.71,1.12-.06.82-1.42.76-2.08-.28-2.73-1.07-.67-.98-.87.42-.88.98,0,2.06.7,2.39,1.58.45,1.16,1.45,1.45,3.72,1.07,1.71-.29,2.54-.3,1.86-.01-2.8,1.15-1.07,2.41,2.41,1.75,3.09-.58,3.57-.44,3.05.89-.45,1.16.1,1.66,2.09,1.89,1.6.18,2.58.85,2.42,1.63-.15.73.12,1.08.6.78.48-.3,3.76-.07,7.28.52,11.28,1.86,11.45,1.92,9.85,2.93-1.11.71-.87.95,1.05,1.05,1.38.07,3.15.04,3.95-.07,1.17-.17,1.21.07.2,1.29-.76.91-.87,1.73-.28,2.09.53.33,1.11.18,1.3-.34.18-.51,1.68-1.2,3.33-1.52,2.18-.43,2.46-.35,1.02.27-1.74.76-1.52,1.01,1.82,2.11,2.09.69,4.67,1.03,5.73.75,2.36-.62,3.72,1.19,1.81,2.4-1.94,1.23-.15,1.12,2.19-.13,2.39-1.28,2.69.51.3,1.85-1.29.72-1.03.93,1.25.97,6.29.13,11.07,1,14.1,2.57,1.75.91,3.79,1.65,4.54,1.65s2.25.79,3.34,1.75c4.81,4.25,6.69,5.66,6.02,4.51-.49-.83-.22-1.04.82-.64.85.33,1.3,1,.99,1.49-.3.49.15.9,1.01.9s1.56.45,1.56,1,.93,1,2.06,1c1.24,0,1.79-.44,1.38-1.1-.47-.76-.02-.75,1.47.05,1.18.63,1.87,1.61,1.52,2.17-.35.56.36,1.28,1.56,1.59,1.65.43,1.86.78.85,1.42-.92.59-.97.85-.13.86.66,0,1.66-.77,2.22-1.73.92-1.58,1.02-1.54,1.05.39.03,2.18,2.46,3.83,4.13,2.8,1.35-.83,5.03.55,4.36,1.63-.32.51.13.93.99.93s1.56.67,1.56,1.5c0,.93.94,1.5,2.5,1.5,1.38,0,2.5.5,2.5,1.11s.66.85,1.47.54c.81-.31,1.73-.13,2.06.39.32.53,1.28.96,2.13.96s2.8,1.35,4.34,3,3.3,3,3.9,3,1.1.38,1.1.84c0,1.02,4.82,3.49,7.28,3.72.98.09,2.1.53,2.5.96.39.44-.18.51-1.28.16-1.75-.56-1.72-.44.25.96,1.24.88,2.25,2.24,2.25,3.01,0,1.13.43,1.18,2.11.29,1.6-.86,2.38-.83,3.25.11s.84,1.07-.11.53c-.69-.39-1.25-.24-1.25.32,0,1.42,3.87,3.36,5.48,2.74.81-.31,1.23.13,1.08,1.15-.25,1.68,4,4.59,5.42,3.72.8-.49,5.4,3.04,4.84,3.72-.45.55,5.84,5.77,11.18,9.29,2.48,1.63,4.83,3.42,5.23,3.97.49.67.76.67.82,0,.05-.55.43-.11.86.98.43,1.09,2.53,2.89,4.68,4,2.15,1.11,4.35,3.03,4.89,4.27.54,1.24,1.56,2.25,2.25,2.25s1.26.87,1.26,1.93.9,2.22,2,2.57,2,1.1,2,1.67-.6.81-1.33.53c-.73-.28-1.33.08-1.33.8s.6,1.08,1.33.8c.77-.3,1.33.17,1.33,1.1,0,1.13.92,1.61,3.06,1.61,1.68,0,2.8.42,2.48.93-.32.51-.11,1.22.46,1.57s.8,1.01.52,1.46c-.28.46.24,1.11,1.15,1.46,1.2.46,1.36.94.57,1.73-1.26,1.26-.5,3.98,1.43,5.14,1.87,1.13,1.72,4.06-.17,3.34-2.23-.86-1.81.68.6,2.19,1.15.72,1.83,1.57,1.51,1.9-.32.32-.08,1.2.54,1.94.81.97,1.48,1.06,2.4.29,1.73-1.43,3.02.65,1.52,2.45-1.23,1.49-.36,4.88,1.04,4.02.49-.3.89-1.65.89-2.99,0-2.67,1.44-3.24,2.7-1.06.44.76,2.38,2.33,4.3,3.5,4.13,2.5,3.29,2.83-1.3.51l-3.2-1.62,2.21,2.12c1.21,1.16,2.68,2.11,3.25,2.11s1.04.64,1.04,1.43,1.11,2.3,2.47,3.37c1.36,1.07,2.21,2.19,1.9,2.51-.31.31-.2,1.15.24,1.87.58.94,1,.61,1.5-1.18.66-2.37.7-2.38.79-.24.11,2.45,2.1,3.19,2.1.78,0-.86.59-1.24,1.44-.92.92.35,2.34-.89,3.96-3.45,3.33-5.28,4.38-5.79,6.72-3.27,1.81,1.94,3.11,2.49,4.39,1.86.28-.14,1.29,1.29,2.25,3.17,1.06,2.08,2.62,3.55,3.98,3.74,2.14.3,2.16.23.53-1.67-.94-1.1-2.39-2.03-3.23-2.07-1.09-.06-1.16-.23-.24-.6.99-.4,1.02-.84.13-1.92-.95-1.15-.65-1.4,1.66-1.4s2.55-.27,1.62-1.2c-1.56-1.56-1.54-2.93.05-2.72.69.09,1.92.09,2.75.01,1.21-.12,1.16-.35-.25-1.17-2.14-1.25-2.31-3.92-.25-3.92.83,0,1.5-.67,1.5-1.5s.45-1.5,1-1.5,1-.48,1-1.06-.45-.78-1-.44-1,.15-1-.42,1.13-1.32,2.51-1.67c1.52-.38,2.75-1.57,3.11-3.02.33-1.31.99-2.39,1.47-2.39s.6-1.35.27-3c-.48-2.38-.25-3,1.08-3,.93,0,1.41-.45,1.07-1s-.14-1,.44-1,1.06-.44,1.06-.97-.79-.72-1.75-.42c-1.64.51-1.63.47.02-.59.97-.62,1.55-1.5,1.27-1.94-.71-1.15,3.13-4.39,4.32-3.65.55.34,1.31.11,1.69-.51.49-.8.94-.73,1.55.23.6.95.86.54.88-1.36.01-1.94.8-3.13,2.77-4.16,1.51-.79,2.7-1.82,2.63-2.28-.47-3.25,3.05-4.5,5.04-1.79.69.94,1.82,1.29,2.86.89,2.35-.9,2.18-2.45-.28-2.45-1.1,0-2-.5-2-1.12,0-.67.9-.88,2.25-.51,1.24.33,3.09.61,4.12.62,1.54.01,1.77.54,1.28,2.97-.6,3.01.7,5.09,1.75,2.79.32-.69.32-.24.02.99-.4,1.61-.11,2.25,1.01,2.25.86,0,1.57.4,1.57.89,0,1.17-2.92,2.27-4.09,1.55-.5-.31-.91-.12-.91.42,0,1.24,5.7,4.13,8.15,4.13,1.02,0,1.85.7,1.85,1.56,0,2.52,1.79.68,2.5-2.58.36-1.65,1.05-2.75,1.53-2.46.48.3.66,1.1.4,1.78-.26.68.15,3.33.92,5.88,1.37,4.55,1.35,4.64-.92,5.08-1.81.35-2.57-.18-3.49-2.41-.65-1.57-1.5-2.85-1.89-2.85-1.51,0-1.98,1.37-.91,2.66.82.99.81,1.34-.04,1.34-.64,0-1.4-.64-1.7-1.42-.67-1.74-3.14-2.8-3.84-1.65-.29.46.38,1.98,1.48,3.39,1.13,1.43,1.59,2.81,1.05,3.14-.53.33-1.37-.16-1.89-1.07-.99-1.76-3.35-1.04-3.1.94.08.65.09,2.02.03,3.05-.09,1.5-.4,1.64-1.53.7-1.82-1.51-2.96.17-2.06,3.02l.66,2.08,1.9-2.04c1.05-1.12,1.91-2.47,1.91-2.99s.9-.71,2-.42c2.28.6,2.7,4.13.75,6.24-1.02,1.1-.93,1.24.47.74.95-.33,1.99-.17,2.32.37,1.09,1.76,2.2.04,1.82-2.79-.32-2.37-.24-2.48.56-.77.52,1.1.97,3.16,1.01,4.58.1,3.59.92,4.07,3.15,1.83s2.47-3.34.45-2.57c-.81.31-1.7.18-1.99-.28-.29-.46.84-1.04,2.51-1.29,1.67-.24,3.31,0,3.64.54.34.55.1.67-.54.27-.64-.39-1.16-.24-1.16.35,0,1.48,1.18,1.32,3.78-.5,2.06-1.44,4.76-1.18,3.86.38-.21.38-.03,1.58.41,2.68.76,1.88.81,1.86.88-.31.04-1.27.46-2.07.94-1.77.48.29,1.71-.42,2.75-1.59q1.88-2.12-.87-1.46c-1.51.37-2.75.47-2.75.23,0-1.1,6.26-6.55,7-6.1,2.81,1.74-.47-9.88-3.31-11.73-.8-.52-.45-.97,1.06-1.39,1.24-.34,2.25-1.04,2.25-1.56s.5-.63,1.11-.26c.77.48.89-.29.39-2.57-.55-2.49-.42-3.07.55-2.47.97.6,1.12-.09.66-2.94-.43-2.67-.26-3.6.59-3.3.75.27,1.11,2.17.96,5.07-.21,3.95.03,4.64,1.63,4.64,2.52,0,4.31,2.34,3.46,4.54-1.22,3.19,1.54.59,3.56-3.34l1.89-3.68,1.1,3.99c1.36,4.91,2.75,7.18,3.77,6.16.43-.43.29-1.09-.3-1.47-.59-.38-1.3-1.94-1.58-3.45-.42-2.23-.26-2.55.84-1.64.74.62,1.12,1.49.85,1.94-.28.45,0,1.13.62,1.51,1.05.65.91-2.81-.43-11.06-.35-2.13-3.44-9.06-6.26-14-.94-1.65-2.02-3.67-2.4-4.5s-2.62-2.98-4.98-4.79c-3.97-3.05-4.41-3.17-6.06-1.68-1.38,1.25-1.95,1.32-2.55.35-.45-.74-.23-1.44.54-1.69,2.61-.87-6.55-4.11-11.71-4.15-2.89-.02-5.25-.41-5.25-.86,0-1.13,13.69-.65,15.25.53.69.52,3.32,1.71,5.85,2.65,2.53.93,5.63,2.8,6.9,4.14,2.11,2.24,4.79,2.59,3.47.45-.31-.51.14-.65,1-.32.86.33,2.16.1,2.89-.5.73-.61,1.55-.89,1.81-.62.27.27-.17-2.21-.98-5.51-1.29-5.28-1.75-5.99-3.89-5.99s-2.38-.42-2.11-2.75c.18-1.6.85-2.64,1.61-2.49,1.36.28,1.34.22-2.75-6.26-1.04-1.65-1.93-4.01-1.97-5.25s-.49-2.25-.99-2.25-1.84-1.5-2.97-3.33c-1.13-1.83-3.19-4.55-4.58-6.05-1.39-1.5-2.53-3.57-2.53-4.59s-.34-2.05-.75-2.28c-.41-.23-.24-.3.38-.16.62.14,1.63-.25,2.25-.86.82-.82,1.12-.82,1.12,0,0,.61-.52,1.29-1.14,1.5-1.13.38.02,3.49,2.3,6.22.49.58,2.03,2.41,3.42,4.06,1.4,1.65,3.48,4.79,4.62,6.98,5.21,9.98,9.74,14.48,9.84,9.77.03-1.33.37-1.15,1.41.74.76,1.37,1.12,2.94.8,3.5-.32.56-.24.72.16.36.4-.36,1.94-.03,3.41.74,3.18,1.65,3.91.46,1.74-2.85-.86-1.32-1.26-2.69-.89-3.07s-.24-1.68-1.36-2.92c-2.14-2.37-4.36-7.95-4.23-10.64.04-.88.71-.03,1.49,1.9l1.41,3.5-.55-3.5c-.37-2.34-.24-3.05.39-2.14.79,1.15,1.02,1.15,1.46,0,.29-.75.35.79.13,3.42-.36,4.46,1.02,8.72,2.83,8.72,1.09,0,.94-7.42-.17-8.55-.51-.52-1.36-4.87-1.88-9.67-.95-8.72-.33-15.43,1.4-15.12.5.09.98-2.27,1.06-5.25.1-3.87-.23-5.42-1.16-5.42-1.85,0-3.07-7.84-1.45-9.35.97-.9,1.12-.66.7,1.1-.3,1.24-.08,2.25.48,2.25.65,0,.77-1.7.33-4.63-1.11-7.43-1.61-7.91-3.62-3.44-2.13,4.75-3.4,5.13-4.47,1.31-.53-1.89-.89-2.24-1.16-1.11-.26,1.09-1.07,1.47-2.4,1.12-1.24-.32-1.79-1.08-1.45-1.96.38-.98,0-1.32-1.19-1.06-.96.21-1.62.95-1.47,1.65.15.7-.15,1.01-.66.69-2.38-1.47-3.96.62-3.58,4.76.58,6.38-.3,8.66-3.39,8.73-2.39.06-2.44.14-.6.89,1.45.59,2.11,1.88,2.28,4.46.2,2.97-.17,3.8-2.04,4.56l-2.28.93,2.25.67c1.24.37,2.25,1.11,2.25,1.66s-.64.74-1.43.44c-.78-.3-1.97.1-2.62.89-1.47,1.77-3.29,1.9-2.66.19.25-.69.96-1.14,1.58-1,1.73.38,1.34-1.46-.46-2.14-2.33-.9-2.42-.83-2.42,1.89,0,1.38-.26,2.5-.57,2.5-.94,0-2.99-2.38-3.73-4.32-.45-1.18-1.48-1.71-2.94-1.5-1.77.25-2.33,1.08-2.59,3.82l-.34,3.5-1.41-3-1.41-3,.59,3.99c.71,4.8,1.09,5.51,2.97,5.51.79,0,1.44.67,1.44,1.5s-.56,1.5-1.25,1.49c-1.32,0-3.75-4.42-3.75-6.81,0-1.21-.25-1.22-1.64-.06-1.47,1.22-1.56,1.1-.87-1.13,2.05-6.57,2.59-7.48,3.55-5.96.57.9.93,1.01.94.28.03-2.41-2.03-2.34-4.72.15-2.6,2.41-2.84,2.46-4.12.8-1.22-1.59-1.28-1.52-.64.74.39,1.38,1.08,2.89,1.53,3.37,1.05,1.13.04,3.79-1.15,3.05-.5-.31-.66-.98-.34-1.48.31-.51-.09-.67-.89-.36-1.01.39-1.66-.37-2.13-2.49-.7-3.19-.1-5.09,1.61-5.09.56,0,1.69-.67,2.51-1.5s2.37-1.5,3.43-1.5,1.93-.37,1.93-.83-1.8-.81-4-.79c-2.55.03-4,.51-4,1.32,0,1.75-3.16,5.3-4.72,5.3-.7,0-1.28.45-1.28,1s-1.03,1-2.3,1c-3.32,0-4.86,1.84-3.56,4.26.74,1.38.72,2.28-.05,3.05s-1.09.5-1.09-1.05c0-1.18-.5-2.45-1.11-2.82-.74-.46-.89.01-.43,1.44.81,2.55-.15,2.72-2.63.47-1.71-1.55-1.83-1.53-1.83.17,0,1-.32,1.51-.7,1.12s-.6-2.26-.47-4.17c.18-2.65-.15-3.47-1.42-3.47-1.33,0-1.42.28-.45,1.45,1.34,1.61.44,5.91-1.04,5-.53-.33-.58-1.23-.1-2.08.6-1.08-.52-2.91-3.99-6.55-4.76-4.99-5.78-6.82-3.83-6.82.55,0,1,.72,1,1.61,0,1.23.45,1.05,1.89-.72,1.4-1.73,1.66-2.93,1.02-4.61-.72-1.89-.53-2.28,1.11-2.28,1.09,0,1.97-.5,1.97-1.12,0-.65-1.04-.92-2.5-.64-2.84.54-3.23-.66-.95-2.94,1.4-1.4,1.69-1.37,2.97.32.78,1.03,1.43,2.3,1.45,2.82.02.52.59.35,1.28-.38,1-1.06,1-1.42,0-1.78-1.62-.59-1.57-2.15.16-5.47,1.26-2.42,1.21-2.86-.57-4.46-1.69-1.53-2.1-1.58-2.93-.32-.79,1.2-1.4.93-3.43-1.54-1.36-1.65-2.47-3.34-2.48-3.75s-.67-.75-1.49-.75c-1.83,0-2.95,4.08-2.11,7.75.62,2.72.61,2.73-1.14.7-.97-1.13-2.67-2.42-3.77-2.87-1.59-.65-1.69-.93-.5-1.35,3.04-1.08,3.98-4.24,1.25-4.22-1.17.01-1.36.27-.57.77.79.51.22,1.3-1.73,2.43-1.6.92-3.16,1.28-3.45.8-.3-.48-.08-1.15.48-1.5,1.54-.96,1.21-4.5-.48-5.15-1.7-.65-2.03-3.93-.47-4.7.56-.28.45-.39-.25-.24-.7.14-1.82-.45-2.49-1.33-1.08-1.41-1.22-1.35-1.25.46-.02,1.13.5,2.58,1.15,3.23.65.65.85,1.52.45,1.92-.41.41-1.14.09-1.63-.7-.75-1.22-.99-1.17-1.55.28-.7,1.81-3.45,2.41-3.45.75,0-.53-.67-.71-1.5-.39-.83.32-1.5,1.03-1.5,1.58s.67.74,1.5.42c1.52-.58,1.85.23,1.59,3.86l-.15,2,1.5-2c2.93-3.92,3.6-4.42,5.07-3.86.82.32,1.46,1.31,1.41,2.22-.05,1.04-.27,1.18-.58.39-.98-2.42-1.99-1.22-1.54,1.83.25,1.69,1.07,3.32,1.82,3.61s1.08,1,.72,1.57c-.36.58-.2.78.34.44,2.18-1.35,7.32-1.72,7.32-.53,0,.66.94,2.2,2.1,3.43,1.62,1.72,1.94,2.94,1.42,5.31-.39,1.77-1.31,3.08-2.18,3.08-1.15,0-1.35-.71-.84-3,.4-1.82.25-3-.38-3-1.61,0-5.77,4.56-5.34,5.85.21.63-.23,1.15-.98,1.15s-2.01.9-2.8,2c-2.13,2.95-3.05,2.43-1.83-1.05.87-2.51.75-3.39-.71-5-.97-1.07-2.49-1.95-3.36-1.94-1.39.01-1.41.14-.09.98,1,.65,1.08.97.25.98-.69,0-1.25,1.11-1.25,2.46s-.45,2.72-1,3.06-1,1.91-1,3.5-.45,3.16-1,3.5-1-.31-1-1.44-.65-2.06-1.43-2.06-1.74-.96-2.11-2.13c-.54-1.71-.87-1.86-1.65-.75-.68.96-.79.47-.36-1.62.43-2.14.33-2.58-.36-1.53-.84,1.27-1.07,1.23-1.64-.24-.36-.94-1.06-1.47-1.56-1.16-.49.3-1.35-.62-1.89-2.07s-1.37-2.39-1.82-2.11c-1,.62-6.39-8.19-8.81-14.39-.97-2.47-3.24-7.05-5.06-10.17-1.82-3.12-3.31-6.64-3.31-7.83s-2.02-4.21-4.75-6.96c-2.61-2.64-5.88-6.63-7.25-8.86-1.38-2.23-3.59-4.65-4.93-5.37-1.34-.72-3.99-2.77-5.89-4.56-3.46-3.25-4.38-3.67-7.18-3.27-.83.12-1.19-.1-.81-.49.38-.39-2.01-2.05-5.31-3.7-3.3-1.65-6.53-3.85-7.18-4.89-.65-1.04-1.73-1.89-2.39-1.89-1.44,0-14.28-14.98-14.3-16.67,0-.64-.35-1.32-.77-1.5-1.51-.66-14.24-21.82-14.24-23.65,0-.53,1.12-1.25,2.5-1.59,1.38-.34,2.5-1.31,2.5-2.14s.7-1.78,1.56-2.11c.86-.33,1.31-1.25.99-2.06-.86-2.24,6-8.69,8.2-7.71.96.43,3.54.95,5.74,1.16,3.61.35,4.22.06,6.25-2.98,2.95-4.41,2.84-6.29-.74-13.35-1.64-3.24-2.99-6.72-3-7.73s-.89-2.07-1.95-2.35c-1.85-.48-4.51-5.41-4.36-8.06.04-.69-.55-1.25-1.32-1.25s-1.39-.91-1.39-2.02c0-1.19-1.04-2.49-2.52-3.17-2.19-1-2.87-.81-5.25,1.44-2.2,2.09-2.96,2.33-3.91,1.29-1.33-1.46.05-3.96,4.88-8.86,1.54-1.55,4.85-7.18,7.37-12.5,4.7-9.94,12.54-19.3,15.37-18.36.83.28,1.06,0,.6-.75-.4-.66-.05-1.95.78-2.88,2.08-2.31,3.05-6.69,1.92-8.71-1.44-2.58-.32-6.48,1.87-6.48,1.04,0,1.88-.5,1.88-1.11s-.68-.84-1.52-.52c-.84.32-2.39-.28-3.45-1.34-1.9-1.9-1.9-1.93.05-2.55,2.23-.71,11.11-1.43,9.16-.74-.69.24-1.04.79-.78,1.21.26.42-.75.58-2.24.34-2.13-.34-2.39-.2-1.22.63.83.59,3.15,1.07,5.17,1.08,2.02,0,3.86.35,4.09.77.23.41.28.19.11-.5-.41-1.69,2.11-1.59,3.55.15,1.41,1.7,5.09.93,5.09-1.07,0-.79.47-1.15,1.05-.79.58.36,2.23-.53,3.67-1.98,1.99-1.99,2.82-2.31,3.45-1.34.66,1.02,1.05.98,1.91-.22.81-1.13,1.2-1.19,1.58-.25.71,1.74,2.34,1.57,2.34-.25,0-.83-.45-1.5-1-1.5s-1-.35-1-.77,1.76-.77,3.92-.77c2.36,0,4.71-.71,5.9-1.79,1.52-1.38,2.1-1.49,2.5-.48.34.86.55.7.6-.44.09-2.02-3.86-2.51-4.02-.5-.06.69-.47-.32-.92-2.24-.92-3.9-.06-4.95,3.67-4.54,1.41.15,2.36-.27,2.36-1.05,0-.72.73-1.72,1.63-2.22.9-.5,1.72-1.76,1.82-2.8.11-1.04.56-2.72,1.02-3.74,1.4-3.15-1.69-4.07-3.31-.98-.91,1.75-1.02,2.8-.31,3.24,1.44.89.12,2.68-2.59,3.53-1.87.58-2.14.4-1.6-1.12.35-1,1.24-2.51,1.97-3.36,3.18-3.73,4.78-12.95,2.24-12.95-.54,0-.7-.46-.36-1.02.35-.56,1.05-.76,1.56-.44.98.61,1.3-4.1.95-14.04-.39-10.83-.71-14.19-1.47-15.43-.42-.67-.91-2.65-1.09-4.4-.57-5.5-2.84-14.14-3.92-14.91-.66-.47-.67-.75-.04-.77.55-.02.33-.47-.5-1.02-1.24-.82-1.27-1.13-.14-1.86.95-.61,1.03-1.08.24-1.56-.61-.38-1.41.08-1.77,1.01-.61,1.59-.74,1.58-1.96-.08-1.17-1.6-2.06-1.68-8.59-.79-4.01.55-7.43.62-7.62.15-.18-.47-1.32-.86-2.53-.86-2.96,0-6.13-3.7-4.68-5.45.59-.71.79-2.03.45-2.93-.48-1.24-.21-1.48,1.08-.98.94.36,2,.25,2.36-.24,1.21-1.67,5.11-3.4,7.67-3.4,1.4,0,2.8-.67,3.12-1.49.32-.82.95-1.27,1.4-.98.97.6,2.29-1.28,2.69-3.85.64-4.08,2.25-5.72,4.97-5.04l2.62.66-.58-8.9c-.44-6.82-.25-9.35.84-10.84.78-1.07,1.42-3.07,1.42-4.45,0-1.95.27-2.24,1.2-1.31,1.67,1.67,3.8,1.5,3.8-.3,0-.83.81-1.5,1.8-1.5,3.21,0,4.2-2.17,4.2-9.25,0-5.35.54-7.85,2.46-11.46,2.28-4.28,2.53-8.23.32-5.15-.73,1.02-.82.9-.38-.48.33-1.01.59-2.52.59-3.37,0-1.32.24-1.34,1.64-.18,1.46,1.21,1.57,1.11.93-.88-.43-1.37-.3-2.24.36-2.24.59,0,1.07.38,1.07.85s1.8.81,4,.75c3.28-.08,4-.46,4-2.08,0-1.88.08-1.87,1.52.2,1.44,2.05,1.76,2.1,6.02.82,4.18-1.26,4.57-1.22,5.53.58.57,1.06,1.47,1.67,2,1.34.53-.33.71-1.02.39-1.53-.76-1.23-.44-1.19,4.42.52,3.64,1.28,4.13,1.28,4.13-.03,0-.82-.67-1.75-1.49-2.06-.82-.32-1.26-.95-.98-1.41.28-.46-.28-1.3-1.26-1.86-1.53-.89-1.41-1.04.91-1.06,1.79-.02,2.89-.7,3.32-2.05.35-1.11,1.1-1.73,1.67-1.38.66.41.55.95-.32,1.51-.85.55-.05.68,2.14.37,1.92-.28,2.94-.24,2.25.08-.69.33-1.25,1.01-1.25,1.51,0,1.35,2.77,1.12,3.23-.26.23-.68,1.14-.89,2.16-.5,1.36.52,1.62,1.35,1.13,3.58-.73,3.33.66,4.78,2.49,2.59.91-1.1.95-1.84.12-2.83-.61-.74-.81-1.64-.45-2.01,1.29-1.29.95-5.72-.4-5.21-.71.27-1.28.03-1.28-.53s-.45-.75-1.01-.41c-.55.34-1.28-.08-1.61-.94-.33-.86-1.23-1.56-1.99-1.56s-1.39-.45-1.39-1c0-1.29,1.57-1.27,4.32.05,1.98.96,2.02.93.43-.36-2.17-1.75-2.28-3.11-.2-2.31.89.34,1.29.17.94-.39-.34-.54-1.33-.99-2.2-.99-1.38,0-1.52-1.28-1.05-9.75.3-5.36.22-8.87-.18-7.8-.69,1.85-.75,1.84-1.3-.25-.47-1.81-.15-2.2,1.83-2.2,1.47,0,2.41-.58,2.41-1.5,0-.83-.45-1.5-1-1.5s-1,.45-1,1c0,2.42-1.79.66-2.97-2.92-.71-2.16-3.15-5.76-5.41-8-7.61-7.54-11.67-11.08-12.71-11.08-.56,0-.8-.36-.53-.8.41-.67-2.96-5.66-7.36-10.91-.56-.66-1.01-1.61-1.01-2.1s-1.12-2.11-2.5-3.59c-1.38-1.48-2.5-3.12-2.5-3.65s-.75-.95-1.67-.95-1.39-.27-1.06-.61c.33-.33.17-1.12-.35-1.75-.53-.63-2.1-2.49-3.5-4.14-3.59-4.25-5.66-8.43-5.01-10.14.31-.8.2-1.24-.25-.96-.45.28-1.8-1.53-3.01-4.02-1.21-2.49-1.74-4.24-1.19-3.9,1.17.73.27-2.28-1.3-4.29-1.9-2.45.67-24.26,3.47-29.4,2.48-4.56,1.32-20.92-2.55-36.02-1.94-7.56-4.21-15.06-5.04-16.67-2.4-4.65-4.32-11.13-5.03-17.09-1.5-12.46-14.34-49.88-24.53-71.5-3.19-6.77-5.7-16.24-6.55-24.72-.48-4.74-1.25-6.54-4.51-10.48-2.16-2.62-3.93-5.33-3.93-6.03s-3.26-4.59-7.25-8.64c-3.99-4.05-8.58-9.23-10.21-11.52-1.63-2.29-5.01-5.35-7.5-6.79-2.49-1.45-7.12-5-10.27-7.9-4.55-4.18-6.68-5.42-10.28-5.96-2.68-.4-5.07-1.44-5.83-2.53-2.53-3.61-14.48-10.76-19.14-11.46-2.49-.37-6.21-1.89-8.27-3.36-4.28-3.07-8.17-4.68-13.39-5.54-2.01-.33-4.22-1.29-4.91-2.12-1.31-1.58-9.03-5.42-10.88-5.42-.58,0-1.05-.36-1.05-.8s-1.57-.62-3.49-.39c-1.92.22-4.29.06-5.25-.37-2.09-.92-2.07-.91-5.31-1.84-3.93-1.12-6.11-1.45-10.19-1.53-2.56-.05-3.75-.53-3.75-1.52,0-1.89-2.04-3.12-2.89-1.73-.47.77-2.05.73-5.45-.14-2.63-.67-4.46-1.55-4.05-1.95.4-.4.21-.73-.43-.73s-1.17.45-1.17,1-2.02,1-4.5,1-4.5-.45-4.5-1-1.71-1-3.8-1-4.32-.52-4.96-1.16c-.88-.88-1.5-.87-2.58.03-1.46,1.21-11.17,2.22-13.4,1.39-.68-.26-1-.87-.69-1.36.3-.49.08-.89-.51-.89s-1.06.45-1.06,1-1.1,1-2.44,1-4.06.96-6.04,2.12c-1.98,1.17-3.88,1.84-4.22,1.5-.34-.34.01-.65.79-.69.78-.03.39-.48-.87-.98-1.5-.6-2.91-.53-4.08.2-1.37.85-4.27.63-12.21-.94-13.25-2.62-21.73-3.25-29.92-2.21M642,7.47c0,.89.59,1.24,1.49.9.82-.32,1.25-.98.94-1.47-.87-1.41-2.43-1.04-2.43.57M639.46,15.07c-.36.59-.45,1.28-.18,1.54.26.26.74-.22,1.07-1.07.68-1.76.1-2.07-.89-.48M639.46,19.07c-1.08,1.74.15,2.11,1.52.46.79-.95.86-1.52.2-1.52-.58,0-1.36.48-1.72,1.07M59.39,22.81c-1.16,1.48-2.42,3.69-2.81,4.91-.57,1.82-.23,2.33,1.92,2.87,3.1.78,6.96-2.29,7.97-6.34,1.19-4.74-3.72-5.74-7.08-1.44M634,23.94c0,.52.38,1.17.83,1.46.46.28.83-.14.83-.94s-.38-1.46-.83-1.46-.83.42-.83.94M54.51,31.99c-.35.57.05.73.94.39,1.73-.67,2.05-1.38.61-1.38-.52,0-1.22.44-1.55.99M634,33.5c0,.83.45,1.5,1,1.5s1-.67,1-1.5-.45-1.5-1-1.5-1,.67-1,1.5M637,37c0,.55.45,1,1,1s1-.45,1-1-.45-1-1-1-1,.45-1,1M267,57c0,1.29.51,2,1.25,1.75.69-.23,1.25-1.02,1.25-1.75s-.56-1.52-1.25-1.75c-.74-.25-1.25.46-1.25,1.75M451,128c0,.55.7,1,1.56,1s1.28-.45.94-1-1.04-1-1.56-1-.94.45-.94,1M721.09,734.13c-1.23,2.31.14,2.75,1.91.62.76-.91.82-1.63.17-2.03-.55-.34-1.49.3-2.08,1.41M529,283c0,1.33.67,2,2,2s2-.67,2-2-.67-2-2-2-2,.67-2,2M578,366c0,.55.45,1,1,1s1-.45,1-1-.45-1-1-1-1,.45-1,1M572,369c0,.55.48,1,1.06,1s.78-.45.44-1-.82-1-1.06-1-.44.45-.44,1M574,406c0,.55.45,1,1,1s1-.45,1-1-.45-1-1-1-1,.45-1,1M552.5,408.92c-1.76.69-1.5,1.04,2.21,2.93,4.66,2.38,5.29,2.53,5.29,1.32,0-.46-1.13-1.44-2.52-2.18-1.83-.98-2.17-1.57-1.25-2.15,1.68-1.07-.93-1.01-3.73.09M546,411c-1.21.78-1.05.97.81.98,1.29,0,2.04-.43,1.69-.98-.74-1.2-.64-1.2-2.5,0M535,413l-2.5.8,2.75.1c1.51.05,2.75-.35,2.75-.9s-.11-.95-.25-.9-1.38.46-2.75.9M557.23,417.19c.62,1.85,2.77,2.16,2.77.4,0-.87-.71-1.58-1.58-1.58s-1.41.53-1.19,1.19M538.41,417.96c-.5.49-2.22,1.03-3.83,1.21-3.6.4-4.76,2.83-1.36,2.83,2.63,0,7.76-2.11,7.78-3.19.01-1.22-1.64-1.76-2.58-.85M536.81,423.68c.72.29,1.58.25,1.92-.08.33-.33-.26-.57-1.31-.52-1.16.05-1.4.29-.6.6M523,448.56c0,.86.45,1.28,1,.94s1-1.04,1-1.56-.45-.94-1-.94-1,.7-1,1.56M513,464.5c0,1.38.45,2.5,1,2.5s1-.67,1-1.5.56-1.51,1.25-1.52c.83-.01.75-.34-.25-.98-2.35-1.52-3-1.19-3,1.5M460,468c0,.55.67,1,1.5,1s1.5-.45,1.5-1-.67-1-1.5-1-1.5.45-1.5,1M518,479c0,.55.45,1,1,1s1-.45,1-1-.45-1-1-1-1,.45-1,1M15.04,549.46c-1.65,1.98-.35,4.05,1.55,2.47,1.56-1.29,1.91-3.93.53-3.93-.48,0-1.42.66-2.09,1.46M521.41,553.38c-.36.94-.37,2-.02,2.35.35.35,1.17.11,1.82-.54.9-.9.91-1.46.02-2.35-.89-.89-1.32-.76-1.82.54M492.5,585c.34.55,1.07,1,1.62,1s.72-.45.38-1-1.07-1-1.62-1-.72.45-.38,1M515.47,586.41c-1.08,1.44-2.52,2.4-3.2,2.14-.77-.3-1.19.36-1.12,1.74.07,1.22-.24,3.08-.69,4.14-.66,1.57-.49,1.8.93,1.26,1.39-.53,1.61-.27,1.11,1.33-.43,1.35-.18,1.99.78,1.99,1.77,0,2.12-6.13.41-7.21-.73-.47-.28-.76,1.17-.77,1.79-.01,2.2-.42,1.72-1.68-.35-.92-.12-1.99.52-2.38.64-.39.97-1.26.75-1.93-.25-.74-1.18-.19-2.37,1.4M478,587c-.9.58-1.02.97-.31.98.65,0,1.47-.43,1.81-.98.77-1.24.42-1.24-1.5,0M481.5,587c.34.55,1.38.99,2.31.98,1.46-.01,1.48-.15.19-.98-1.96-1.27-3.28-1.27-2.5,0M489,587.94c0,1.13.45,2.06,1,2.06s1-.65,1-1.44-.45-1.72-1-2.06-1,.31-1,1.44M519,590c0,1.1.41,2,.91,2s.67-.9.38-2c-.29-1.1-.7-2-.91-2s-.38.9-.38,2M484,591c0,.55.67,1,1.5,1s1.5.44,1.5.97.73.69,1.62.35c1.35-.52,1.23-.84-.75-1.93-2.88-1.6-3.87-1.7-3.87-.38M507,591.44c0,.79.45,1.72,1,2.06s1-.31,1-1.44-.45-2.06-1-2.06-1,.65-1,1.44M496,594.11c0,.61-.67.85-1.5.53-1-.38-1.5.04-1.5,1.28,0,1.02.83,2.07,1.83,2.33,1.46.38,1.83-.1,1.83-2.38,0-1.57-.15-2.86-.33-2.86s-.33.5-.33,1.11M503,595c0,.55.48,1,1.06,1s.78-.45.44-1-.82-1-1.06-1-.44.45-.44,1M518,594.94c0,1.68,1.77,2.09,2.36.55.35-.91,0-1.49-.9-1.49-.81,0-1.47.42-1.47.94M498.08,596.25c.42,3.28-.15,4.94-1.52,4.41-.93-.36-1.26-.08-.93.79.29.74.04,1.64-.55,2.01-1.53.95-1.32,3.58.24,2.98,1.24-.48,5.14-6.2,5.18-7.6.01-.37.34-.99.74-1.39,1.01-1.01-.05-2.44-1.83-2.44-.82,0-1.41.56-1.32,1.25M507,597.57c0,2.06,2.68,4.75,3.47,3.48.65-1.06-1.49-5.05-2.71-5.05-.42,0-.76.71-.76,1.57M482,598c0,.55.48,1,1.06,1s.78-.45.44-1-.82-1-1.06-1-.44.45-.44,1M485.5,599c-.34.55-.14,1,.44,1s1.06-.45,1.06-1-.2-1-.44-1-.72.45-1.06,1M506,604.94c0,.52.45,1.22,1,1.56s1-.08,1-.94-.45-1.56-1-1.56-1,.42-1,.94M519.08,606.72c-.06,1.58.35,2.05,1.42,1.64.83-.32,1.5-1,1.5-1.53s-.41-.7-.91-.39c-.5.31-1.14,0-1.42-.69-.28-.69-.54-.26-.59.96M507,610.56c0,.86.45,1.28,1,.94s1-1.04,1-1.56-.45-.94-1-.94-1,.7-1,1.56M476,635.94c0,.52.45,1.22,1,1.56s1-.08,1-.94-.45-1.56-1-1.56-1,.42-1,.94M448.58,694.86c-.36.58.98,1.47,3.08,2.05,4.11,1.14,4.55,1.06,3.52-.62-1-1.62-5.84-2.67-6.6-1.43M456.8,696.2c.93.93,1.47.93,2.4,0,.93-.93.67-1.2-1.2-1.2s-2.13.27-1.2,1.2M453.81,715.68c.72.29,1.58.25,1.92-.08.33-.33-.26-.57-1.31-.53-1.16.05-1.4.29-.6.6M486.5,720c-.34.55-.14,1,.44,1s1.06-.45,1.06-1-.2-1-.44-1-.72.45-1.06,1M462,721c0,.55.45,1,1,1s1-.45,1-1-.45-1-1-1-1,.45-1,1M471.55,722.91c-.32.52-.16,1.21.36,1.53.52.32,1.21.16,1.53-.36.32-.52.16-1.21-.36-1.53-.52-.32-1.21-.16-1.53.36M481,726c0,.55.9,1,2,1s2-.45,2-1-.9-1-2-1-2,.45-2,1M471.03,730.96c-.81.51-1.13,1.27-.72,1.68.41.41-.27,1.32-1.53,2.02-1.25.7-1.66,1.28-.89,1.3.76.02,1.98.82,2.7,1.78,1.17,1.55,1.3,1.34,1.2-1.84-.06-1.98.21-4.11.6-4.75.86-1.39.57-1.43-1.37-.2M481,740c0,.55.45,1,1,1s1-.45,1-1-.45-1-1-1-1,.45-1,1M509,762.44c0,.86.45,1.56,1,1.56s1-.42,1-.94-.45-1.22-1-1.56-1,.08-1,.94M499.99,768.49c.68.82,1.68,1.21,2.23.88.6-.37.46-.95-.36-1.47-2.16-1.37-3.22-1.03-1.87.6M542,795c0,.55.7,1,1.56,1s1.28-.45.94-1-1.04-1-1.56-1-.94.45-.94,1M575.21,797.78c-.12,1.41-.08,2.37.07,2.14.16-.23.84-1.15,1.53-2.05,1-1.31.98-1.73-.07-2.14-.85-.33-1.39.4-1.53,2.05M101.27,796.69c.97.25,2.32.24,3-.04.68-.27-.12-.48-1.77-.46s-2.2.24-1.23.5M113.15,798.6c-.74.84-1.02,1.84-.61,2.21.41.38.94.12,1.18-.57.25-.69,1.11-1.25,1.92-1.25s1.2-.45.86-1c-.84-1.37-1.75-1.2-3.35.6M157,799c0,.55,1.15,1,2.56,1s2.29-.43,1.94-1c-.34-.55-1.49-1-2.56-1s-1.94.45-1.94,1M128.5,800c2.73,1.17,6.69,1.17,8.5,0,1.06-.68-.28-.95-4.5-.91-4.27.04-5.42.3-4,.91M542.68,799.65c-1.23,1.23-.71,3.35.82,3.35,1.67,0,1.87-.86.67-2.77-.44-.7-1.11-.96-1.48-.58M555.81,799.68c.72.29,1.58.25,1.92-.08.33-.33-.26-.57-1.31-.53-1.16.05-1.4.29-.6.6M561.5,800c-1.63.7-1.69.87-.31.93.93.04,1.97-.38,2.31-.93.71-1.15.68-1.15-2,0M146,801c0,.55.7,1,1.56,1s1.28-.45.94-1-1.04-1-1.56-1-.94.45-.94,1M533.98,801.52c-1.06,1.27-.99,1.42.38.89.9-.35,1.64-1.03,1.64-1.52,0-1.29-.58-1.1-2.02.63M573.08,801.58c.05,1.16.29,1.4.6.6.29-.72.25-1.58-.08-1.92-.33-.33-.57.26-.53,1.31M616,802c0,1.87.27,2.13,1.2,1.2s.93-1.47,0-2.4-1.2-.67-1.2,1.2M624.5,801c-.34.55.11,1,1,1s1.34-.45,1-1-.79-1-1-1-.66.45-1,1M183.63,801.79c-.27.44.37.86,1.42.94,1.05.08,2.17-.28,2.49-.79.32-.51-.32-.94-1.42-.94s-2.22.36-2.49.79M565,802c0,.55.45,1,1,1s1-.45,1-1-.45-1-1-1-1,.45-1,1M115.81,802.68c.72.29,1.58.25,1.92-.08.33-.33-.26-.57-1.31-.53-1.17.05-1.4.29-.6.6M120,803c0,.55.68,1,1.5,1s1.5-.45,1.5-1-.68-1-1.5-1-1.5.45-1.5,1M128.5,804c-.34.55.31,1,1.44,1s2.06-.45,2.06-1-.65-1-1.44-1-1.72.45-2.06,1M535.64,804.69c-.95.95-.77,3.31.25,3.31,1.23,0,2.21-2.82,1.2-3.44-.45-.28-1.1-.22-1.46.13M575,806.06c0,.58.45.78,1,.44s1-.82,1-1.06-.45-.44-1-.44-1,.48-1,1.06M67,807c0,.55.48,1,1.06,1s.78-.45.44-1-.82-1-1.06-1-.44.45-.44,1M241,807c1.96,1.27,3.28,1.27,2.5,0-.34-.55-1.38-.99-2.31-.98-1.46.01-1.48.15-.19.98M625.5,808c.34.55,1.38.99,2.31.98,1.46-.01,1.48-.15.19-.98-1.96-1.27-3.28-1.27-2.5,0M639.5,809c.34.55.82,1,1.06,1s.44-.45.44-1-.48-1-1.06-1-.78.45-.44,1M597.33,811.75c.12,1.51.65,2.64,1.19,2.5.54-.14.93-.7.88-1.25-.06-.55-.17-1.67-.25-2.5-.28-2.75-2.03-1.54-1.82,1.25M621,811.5c0,1.38.45,2.5,1,2.5s1-1.12,1-2.5-.45-2.5-1-2.5-1,1.12-1,2.5M627,810.83c0,1.41,1.13,2.06,2.6,1.49,2.09-.8,1.7-2.32-.6-2.32-1.1,0-2,.38-2,.83M528,811.97c0,.53.9,1.45,2,2.03,1.7.91,2,.76,2-.97,0-1.37-.66-2.03-2-2.03-1.1,0-2,.43-2,.97M600.37,814.94c-.1,3.13.13,3.67,1.15,2.73.71-.65.87-1.33.37-1.51-.5-.18-.64-.78-.3-1.32.36-.58,1.36-.3,2.44.68,2.22,2.01,4.69,1.05,2.89-1.12-.84-1.01-.86-1.41-.05-1.41.62,0,1.12-.38,1.12-.84s-1.69-.9-3.75-.98c-3.7-.14-3.75-.09-3.88,3.76M629,815c1.94,1.25,3,1.25,3,0,0-.55-1.01-.99-2.25-.98-1.82.01-1.96.2-.75.98M276,815.75c0,.41,1.19.82,2.65.9,1.9.11,2.25-.1,1.25-.73-1.72-1.09-3.9-1.18-3.9-.17M527.5,816c-.34.55-.14,1,.44,1s1.06-.45,1.06-1-.2-1-.44-1-.72.45-1.06,1M584.02,818.75c0,1.24.43,2.25.98,2.25,1.25,0,1.25-1.06,0-3-.78-1.21-.97-1.07-.98.75M546,819c0,.55.7,1,1.56,1s1.28-.45.94-1-1.04-1-1.56-1-.94.45-.94,1M552,819.13c0,.73,3.7,1.83,6.25,1.85.96,0,1.75-.67,1.75-1.51,0-1.16-.96-1.46-4-1.25-2.2.15-4,.56-4,.91M569,819c0,.55.45,1,1,1s1-.45,1-1-.45-1-1-1-1,.45-1,1M611.6,820.9c1.85,3.71,4.85,5.15,3.84,1.84-.91-2.98-2.4-4.74-3.99-4.74-1.03,0-1,.59.15,2.9M646.5,819c-.34.55-.14,1,.44,1s1.06-.45,1.06-1-.2-1-.44-1-.72.45-1.06,1M306.97,820.46c1.21,1.46,6.8,3.1,7.66,2.25.26-.27-1.61-1.2-4.17-2.07-3.79-1.29-4.44-1.32-3.49-.18M624.16,821c0,1.38.23,1.94.5,1.25.28-.69.28-1.81,0-2.5-.28-.69-.5-.12-.5,1.25M597,822c0,1.38.67,2,2.16,2,2.09,0,2.1-.06.34-2-.99-1.1-1.97-2-2.16-2s-.34.9-.34,2M632.02,822.25c.01,1.82.2,1.96.98.75,1.25-1.94,1.25-3,0-3-.55,0-.99,1.01-.98,2.25M634.99,822.02c-1.25,2.33-.55,3.98,1.68,3.98.95,0,1.33-.57.98-1.47-.31-.81-.18-1.7.28-1.99.46-.29,1.08.37,1.36,1.47.7,2.67,2.71,2.54,2.71-.18,0-1.19-.28-1.89-.62-1.55-.34.34-1.27-.04-2.07-.83-1.97-1.97-3.04-1.83-4.32.57M604,825.06c0,2.6.38,3.82,1.06,3.4.58-.36.93-1.62.78-2.81-.15-1.18.07-2.72.5-3.4.5-.8.21-1.25-.78-1.25-1.16,0-1.56,1.05-1.56,4.06M590.6,822.74c-1,1-.68,2.02.82,2.59.78.3,1.65-.07,1.94-.81.54-1.4-1.7-2.84-2.76-1.78M552,824.06c0,.58.45.78,1,.44s1-.82,1-1.06-.45-.44-1-.44-1,.48-1,1.06M582.6,825.84c-.35.56-.14,1.32.45,1.69,1.54.95,2.53-.35,1.25-1.64-.72-.72-1.28-.73-1.7-.05M599,826c0,.55.7,1,1.56,1s1.28-.45.94-1-1.04-1-1.56-1-.94.45-.94,1M643,827c0,1.87.27,2.13,1.2,1.2s.93-1.47,0-2.4-1.2-.67-1.2,1.2M632,827.39c0,.77.67,1.65,1.5,1.97.83.32,1.5,1.04,1.5,1.61s-.67,1.03-1.5,1.03-1.5-.44-1.5-.97-.67-.71-1.5-.39c-.83.32-1.5,1.03-1.5,1.58s.67.74,1.5.42c1.12-.43,1.5.16,1.5,2.33,0,1.6-.45,3.19-1,3.53-1.17.72-1.35,2.52-.25,2.46.41-.02,2.32-2.04,4.24-4.49,2.63-3.35,3.98-4.32,5.5-3.92,1.98.52,1.98.51-.04-.76-1.14-.72-1.88-2.07-1.68-3.04.42-1.99-1.34-2.4-2.14-.5-.38.9-.84.75-1.63-.5-1.33-2.1-3.01-2.3-3.01-.36M545.5,828c-.34.55.11,1,1,1s1.34-.45,1-1-.79-1-1-1-.66.45-1,1M593.65,827.69c-.34.34.17,1.21,1.12,1.93,1.64,1.25,1.64,1.32-.02,1.35-.96.02-1.75.45-1.75.97,0,1.99,1.58,1.75,3.26-.5,1.69-2.26,1.69-2.4-.12-3.36-1.04-.55-2.16-.73-2.5-.39M24,829c0,.55.45,1,1,1s1-.45,1-1-.45-1-1-1-1,.45-1,1M573,831c0,.55.45,1,1,1s1-.45,1-1-.45-1-1-1-1,.45-1,1M543.5,832c-.34.55.08,1,.94,1s1.56-.45,1.56-1-.42-1-.94-1-1.22.45-1.56,1M551.06,834.75c-.07,3.7,2.29,4.48,4.54,1.5,1.6-2.11,1.74-3.25.39-3.25-.55,0-1,.67-1,1.5,0,2.28-1.95,1.79-2.97-.75-.82-2.04-.91-1.95-.97,1M285.75,833.69c-2.4.63-2.21,2.31.25,2.31,1.11,0,2-.67,2-1.5s-.11-1.45-.25-1.38c-.14.06-1.04.32-2,.57M328.99,834.04c-1.32.85-1.32,1.07,0,1.92,1.83,1.18,3.91-.45,2.45-1.92-.61-.61-1.5-.61-2.45,0M645.8,834.2c.93.93,1.47.93,2.4,0s.67-1.2-1.2-1.2-2.13.27-1.2,1.2M544.25,834.66c-1.75.71-1.56,3.01.25,3.01.83,0,1.5-.83,1.5-1.83s-.11-1.8-.25-1.75c-.14.04-.81.31-1.5.58M608.5,835c.34.55.82,1,1.06,1s.44-.45.44-1-.48-1-1.06-1-.78.45-.44,1M638.2,835.26c-.93,1.12-.98,1.76-.18,2.26,1.48.92,2.24.05,1.82-2.09-.3-1.56-.47-1.58-1.64-.17M572.92,836.25c-.74,2.42-.48,3.75.73,3.75.81,0,1.21-.42.9-.93-.32-.51-.12-1.21.44-1.56.56-.35,1.02-.12,1.02.49s.5.81,1.11.43c.77-.48.7-.94-.25-1.54-1.26-.8-3.76-1.21-3.93-.64M305.5,838c.34.55,1.04,1,1.56,1s.94-.45.94-1-.7-1-1.56-1-1.28.45-.94,1M590.58,839.65c-.85,2.21-.14,2.73,1.33.96.71-.85.81-1.67.25-2.02-.52-.32-1.23.15-1.57,1.05M611,839c0,.55.45,1,1,1s1-.45,1-1-.45-1-1-1-1,.45-1,1M277,840.94c0,1.13.45,2.06,1,2.06s1-.65,1-1.44-.45-1.72-1-2.06-1,.31-1,1.44M552,840.1c0,.37.9.9,2,1.19,1.17.31,2,.03,2-.67,0-.66-.9-1.19-2-1.19s-2,.3-2,.67M559.56,840.29c.38.99.93,1.54,1.24,1.23.31-.31,0-1.11-.68-1.79-.99-.98-1.1-.86-.56.56M301.23,842.5c.22,2.7,1.77,3.52,1.77.94,0-.98.46-1.28,1.25-.81.85.51.81.21-.12-.94-1.96-2.42-3.14-2.09-2.9.81M543.5,841c.34.55.82,1,1.06,1s.44-.45.44-1-.48-1-1.06-1-.78.45-.44,1M585.5,841c.34.55,1.04,1,1.56,1s.94-.45.94-1-.7-1-1.56-1-1.28.45-.94,1M272,842c0,.55.45,1,1,1s1-.45,1-1-.45-1-1-1-1,.45-1,1M290.6,843.6c-.36.93-.42,1.91-.15,2.19.27.27.79-.26,1.15-1.19.36-.93.42-1.91.15-2.19-.28-.28-.79.26-1.15,1.19M638.82,844.5c-.65,3-.33,4.34.75,3.26.32-.32.42-1.85.23-3.42l-.34-2.84-.64,3M562,844.03c0,.57.79,1.32,1.75,1.68.96.36,1.97.97,2.25,1.37.69,1,5.44,1.53,5.75.65.68-1.97.09-3.72-1.25-3.72-.83,0-1.5.67-1.5,1.5s-.45,1.5-1,1.5-1-.45-1-1-.67-1-1.5-1-1.5-.45-1.5-1-.45-1-1-1-1,.46-1,1.03M580,844.5c0,.83.45,1.5,1,1.5s1-.67,1-1.5-.45-1.5-1-1.5-1,.67-1,1.5M261.46,845.07c-.36.59-.42,1.31-.13,1.6.72.72,2.67-.55,2.67-1.73,0-1.28-1.73-1.19-2.54.13M277.25,844.72c-1.41.51-1.73,3.28-.37,3.28s3.34-2.75,2.42-3.28c-.44-.25-1.36-.25-2.05,0M281.5,845c-.34.55.06,1,.88,1s1.78-.45,2.12-1-.06-1-.88-1-1.78.45-2.12,1M550.74,844.61c-.64,1.03.84,4.17,1.58,3.36.24-.26.11-1.34-.27-2.41-.39-1.06-.97-1.49-1.31-.95M612.03,844.5c0,.55.44,1.67.97,2.5s.97,1.05.97.5-.44-1.67-.97-2.5-.97-1.05-.97-.5M292.75,847.08c-.96,1.05-1.49,1.92-1.18,1.92,1.3,0,4.43-2.14,4.43-3.03,0-1.46-1.3-1.02-3.25,1.12M555.02,846.48c-.79.95-.86,1.52-.2,1.52,1.21,0,2.62-1.9,1.92-2.59-.25-.25-1.03.23-1.72,1.07M304,847.06c0,.58.45.78,1,.44s1-.82,1-1.06-.45-.44-1-.44-1,.48-1,1.06M650.29,850.5c0,2.75.2,3.76.43,2.24.23-1.52.22-3.77-.01-5-.24-1.23-.42.01-.42,2.76M589.02,847.69c0,.45.45,1.48.98,2.31.84,1.29.97,1.27.98-.19,0-.93-.43-1.97-.98-2.31s-.99-.25-.98.19M297.85,848.48c-.73.73.3,7.52,1.15,7.52,1.36,0,1.72-4.67.49-6.35-.65-.89-1.39-1.42-1.64-1.17M627.46,849.07c-.36.59-.42,1.31-.13,1.6.72.72,2.67-.55,2.67-1.73,0-1.28-1.73-1.19-2.54.13M271.58,849.87c-.43.7-.51,1.54-.18,1.87.9.9,1.87-.42,1.39-1.87-.34-1.02-.57-1.02-1.2,0M303.61,850.59c-.33.87-.14,2.34.44,3.25.87,1.37.94,1.27.43-.59-.45-1.66-.19-2.25,1.01-2.25.89,0,1.35-.45,1.01-1-.91-1.48-2.2-1.22-2.89.59M326,851c0,.55.45,1,1,1s1-.45,1-1-.45-1-1-1-1,.45-1,1M568,851c0,.55.45,1,1,1s1-.45,1-1-.45-1-1-1-1,.45-1,1M571,851c0,.55.7,1,1.56,1s1.28-.45.94-1-1.04-1-1.56-1-.94.45-.94,1M592,851c0,.55,1.15,1,2.56,1s2.29-.43,1.94-1c-.34-.55-1.49-1-2.56-1s-1.94.45-1.94,1M274.57,852.52c-2.19,1.65-1.69,2.85.78,1.9.9-.35,1.64-1.26,1.64-2.02,0-1.69-.02-1.69-2.43.13M623.5,852c-.34.55-.14,1,.44,1s1.06-.45,1.06-1-.2-1-.44-1-.72.45-1.06,1M293,853c0,.55.45,1,1,1s1-.45,1-1-.45-1-1-1-1,.45-1,1M583.16,855c0,1.38.23,1.94.5,1.25.28-.69.28-1.81,0-2.5-.28-.69-.5-.12-.5,1.25M599,854.06c0,.58.45.78,1,.44s1-.82,1-1.06-.45-.44-1-.44-1,.48-1,1.06M359.5,855c-.34.55-.14,1,.44,1s1.06-.45,1.06-1-.2-1-.44-1-.72.45-1.06,1M604.51,855.02c.35.56,1.05.76,1.56.44,1.39-.86,1.13-1.46-.63-1.46-.86,0-1.28.46-.93,1.02M292,857c0,.55.45,1,1,1s1-.45,1-1-.45-1-1-1-1,.45-1,1M568.69,857.64c-.8.8.1,2.36,1.37,2.36.52,0,.94-.67.94-1.5,0-1.55-1.18-1.99-2.31-.86M601,858.5c0,.83-.03,1.83-.08,2.22-.04.4.35.87.88,1.04.52.17.95-.83.95-2.23s-.39-2.54-.88-2.54-.88.67-.88,1.5M642.16,859c0,1.38.23,1.94.5,1.25.28-.69.28-1.81,0-2.5-.28-.69-.5-.12-.5,1.25M356,858.94c0,.52.45,1.22,1,1.56s1-.08,1-.94-.45-1.56-1-1.56-1,.42-1,.94M366,859c0,.55.45,1,1,1s1-.45,1-1-.45-1-1-1-1,.45-1,1M619.81,858.68c.72.29,1.58.25,1.92-.08.33-.33-.26-.57-1.31-.53-1.16.05-1.4.29-.6.6M347.63,862.25c-.82,3.05-.78,3.75.22,3.75.47,0,.89-1.35.93-3,.1-3.57-.32-3.84-1.15-.75M361,861c0,.55.48,1,1.06,1s.78-.45.44-1-.82-1-1.06-1-.44.45-.44,1M349.5,868c-.34.55.08,1,.94,1s1.56-.45,1.56-1-.42-1-.94-1-1.22.45-1.56,1M570.08,870.58c.05,1.16.29,1.4.6.6.29-.72.25-1.58-.08-1.92-.33-.33-.57.26-.53,1.31M588.57,870.89c-.3.49.37,1.13,1.5,1.42,1.68.44,1.83.28.87-.89-1.38-1.66-1.63-1.72-2.36-.54M607,871.8c0,1.04,2.17,3.2,3.21,3.2.45,0,.25-.9-.44-2-1.26-2.02-2.77-2.67-2.77-1.2M332.02,876.75c.02,3.22,1.54,6.03,2.65,4.92.43-.43.17-1.15-.58-1.61-.89-.55-1.13-1.73-.7-3.45.38-1.53.23-2.61-.36-2.61-.56,0-1.01,1.24-1,2.75M375.36,875.78c-1.27,2.01,0,9.61,2.16,12.9,1.52,2.32,4.47,3.19,4.47,1.32,0-.55-.34-1-.75-1.01-1.21-.01-3.25-5.15-3.25-8.19,0-1.97.52-2.82,1.75-2.88,1.38-.06,1.43-.19.25-.61-.83-.3-1.97-1.12-2.55-1.84-.85-1.06-1.25-1-2.08.32M420.5,876c-.34.55-.14,1,.44,1s1.06-.45,1.06-1-.2-1-.44-1-.72.45-1.06,1M600,876c0,.55.48,1,1.06,1s.78-.45.44-1-.82-1-1.06-1-.44.45-.44,1M364,878c0,.55.45,1,1,1s1-.45,1-1-.45-1-1-1-1,.45-1,1M632.56,878.71c-.54,1.43-.43,1.54.56.56.68-.68.99-1.49.68-1.79-.31-.31-.87.25-1.24,1.23M624.66,879.45c-.37.97-.08,1.27.89.89.8-.31,1.45.02,1.45.72s.24,1.04.52.75c.71-.71-.54-3.81-1.52-3.81-.43,0-1.04.65-1.34,1.45M629,880c0,.55.45,1,1,1s1-.45,1-1-.45-1-1-1-1,.45-1,1M639,881.31c0,1.14,3.4,4.69,4.49,4.69.26,0-.03-1.1-.65-2.45-1.23-2.69-3.84-4.22-3.84-2.25M357.5,882c-.34.55-.14,1,.44,1s1.06-.45,1.06-1-.2-1-.44-1-.72.45-1.06,1M574.5,882c-.34.55-.14,1,.44,1s1.06-.45,1.06-1-.2-1-.44-1-.72.45-1.06,1M261,884c0,.55.48,1,1.06,1s.78-.45.44-1-.82-1-1.06-1-.44.45-.44,1M645.47,885c.4,1.38,1.36,3,2.13,3.61.77.61,1.4,1.85,1.4,2.75s.45,1.64,1,1.64c1.15,0,1.33-4.02.23-5.5-.4-.55-1.81-1.9-3.12-3l-2.38-2,.73,2.5M442,885c0,.55.48,1,1.06,1s.78-.45.44-1-.82-1-1.06-1-.44.45-.44,1M629,885.44c0,.79.45,1.72,1,2.06s1-.31,1-1.44-.45-2.06-1-2.06-1,.65-1,1.44M632.6,886.83c-.28.46-.77,2.26-1.07,4-.42,2.41-.19,3.17.96,3.17.85,0,1.51-.88,1.51-2.03s.66-2.29,1.47-2.6c1.27-.48,1.28-.76.07-1.97-1.62-1.62-2.22-1.73-2.94-.57M178,890c-.59,1.1-1.66,2-2.38,2-2.09,0-9.62,5.86-9.62,7.49,0,.82.77,2.39,1.72,3.49,3.05,3.56,12.52,2.02,13.63-2.22.29-1.09,1.11-1.78,1.84-1.52,2.4.84.83,6.1-3,10.08-3.61,3.76-3.8,3.82-9.21,3.23-7.05-.78-9.01.54-9.68,6.5-.42,3.72-.13,4.77,1.75,6.44,1.6,1.42,2.37,1.64,2.68.75.24-.69,1.3-1.25,2.35-1.25s1.92-.57,1.92-1.26.96-1.86,2.14-2.59c1.85-1.16,2.49-1.07,4.75.62,2.75,2.06,3.02,3.74,1.74,10.73-1.49,8.09-5.17,13.09-10.52,14.28-4.86,1.08-11.94,1.26-14.25.37-2.17-.84-2.63-1.63-2.56-4.37.08-2.82.8-3.8,4.65-6.29,2.51-1.62,5.23-2.96,6.06-2.97,1.37-.02,1.58-.66,1.15-3.52-.24-1.61-3.11-1.16-7.95,1.25-7.43,3.69-10.41,13.73-5.07,17.06,1.03.64,1.87,1.74,1.87,2.43s.77,1.26,1.72,1.26c1.69,0,6.28,4.5,6.28,6.16,0,1.19,5.75,1.05,6.5-.16.34-.55,1.29-1,2.12-1s1.22.45.88,1c-.98,1.59,1.12,1.16,2.51-.51.89-1.07,1.62-1.21,2.5-.48.91.76,1.39.49,1.77-.98.29-1.11,1.5-2.38,2.7-2.82,1.19-.44,2.15-1.23,2.12-1.75-.08-1.58,2.25-7.45,2.96-7.45,1.53,0-.23-18.43-2.13-22.37-1.58-3.28-1.71-4.31-.68-5.7,7.57-10.29,7.86-10.89,7.55-15.68-.26-4.04-.71-4.93-3.05-6.05-2.4-1.15-3.28-2.82-2.87-5.45.26-1.67-3.89-.61-4.88,1.25M319.11,888.93c-.86.53-.96,1.05-.29,1.46.57.35,1.34.15,1.71-.44.92-1.49.19-2.01-1.42-1.02M365.02,890.75c0,.96.4,2.36.88,3.11,1.35,2.14,2.39-.47,1.12-2.84-1.33-2.48-2.02-2.58-2-.27M587,892.56c0,.86.46,1.28,1.02.93.56-.35.76-1.05.44-1.56-.86-1.39-1.46-1.13-1.46.63M642.64,893.5c.32.83,1.26,1.5,2.09,1.5,1.23,0,1.28-.28.27-1.5-.68-.83-1.63-1.5-2.09-1.5s-.59.67-.27,1.5M424.51,894.02c.35.56,1.05.76,1.56.44,1.39-.86,1.13-1.46-.63-1.46-.86,0-1.28.46-.93,1.02M197,896c0,.55.45,1,1,1s1-.45,1-1-.45-1-1-1-1,.45-1,1M645.5,897c.34.55,1.04,1,1.56,1s.94-.45.94-1-.7-1-1.56-1-1.28.45-.94,1M368.98,899.52c-.7.84-1.03,1.76-.75,2.04.82.82,5.77-1.77,5.18-2.71-.83-1.34-3.04-1-4.43.67M615.56,899.29c.38.99.93,1.54,1.24,1.23.31-.31,0-1.11-.68-1.79-.99-.98-1.1-.86-.56.56M637.65,899.48c-2.15,1.62-1.23,3.95,1.2,3.03,1.32-.5,1.4-.38.4.63-1.86,1.87,4.32,7.46,6.37,5.76,1.57-1.31.17-3.91-2.1-3.91-.68,0-1.86-1.55-2.63-3.46-1.26-3.14-1.56-3.33-3.24-2.07M647.26,900c.22.83,1.27,1.6,2.33,1.73,1.35.16,1.47.04.42-.4-.83-.35-1.87-1.13-2.33-1.73-.53-.71-.68-.57-.42.4M579.24,904.57c.2,1.69-.23,3.62-.94,4.29-.72.67-1.3,1.54-1.3,1.93,0,1.26,5.66,3.27,7.36,2.62,2.26-.87,2.06-2.41-.3-2.41-1.07,0-2.22-.45-2.56-1s.06-1,.88-1c2.16,0,2.9-1.71,1.62-3.74-.95-1.52-1.02-1.46-.49.49.36,1.31.17,2.25-.45,2.25-.59,0-1.07-.59-1.07-1.31s-.7-2.18-1.56-3.25c-1.49-1.85-1.54-1.8-1.2,1.13M631.67,902.67c-.37.37-.67,1.13-.67,1.7,0,.63.47.57,1.18-.15.65-.65.95-1.42.67-1.7-.28-.29-.82-.22-1.18.15M626.67,903.67c-.37.37-.67,1.34-.67,2.17,0,1.81,1.3.71,1.61-1.36.24-1.63.05-1.79-.94-.8M594,905.96c-2.23.68-2.3.85-.67,1.54,1.2.51,2.39.21,3.46-.86,1.75-1.75,1.18-1.89-2.79-.68M642.5,907c-.34.55.08,1,.94,1s1.56-.45,1.56-1-.42-1-.94-1-1.22.45-1.56,1M229.68,910.22c-1.26,1.26-4.19,3.15-6.51,4.2-2.99,1.35-5.37,3.6-8.19,7.73-2.19,3.2-3.98,6.25-3.98,6.77s-.51,2.21-1.13,3.76c-.62,1.55-1.25,3.72-1.39,4.82-.14,1.1-.54,3.77-.89,5.94-.56,3.51-.29,4.24,2.45,6.75,3.52,3.21,6.63,3.6,8.58,1.06,1.16-1.51,1.47-1.55,2.31-.28.53.81,1.31,1.12,1.74.7.43-.43.11-1.21-.7-1.74-1.26-.82-1.19-1.18.47-2.45,2.26-1.72,3.56-1.9,3.56-.48,0,.55.45,1,1.01,1,.61,0,.52-.79-.22-1.96-1.02-1.63-.85-2.74.99-6.53,1.22-2.51,2.22-5.17,2.22-5.91s.67-1.91,1.49-2.59c1.22-1.01,1.61-.9,2.16.63.87,2.41,4.35,5.82,4.35,4.26,0-.65-.79-1.8-1.75-2.55-1.56-1.23-1.43-1.3,1.25-.7,1.65.37,4.9,1.48,7.22,2.47,2.84,1.21,4.44,1.45,4.88.73.36-.59.04-1.46-.72-1.94-1.11-.7-1.05-.88.29-.89.92,0,1.89.55,2.17,1.23.4.99.69.99,1.38.02.48-.68,1.96-1.02,3.28-.77s2.67.04,2.98-.47c.32-.52,4.69-1.06,9.71-1.21s8.92-.62,8.66-1.05c-.26-.42-.11-.77.34-.77s1.38.9,2.07,2c.69,1.1,1.64,2,2.12,2,1.64,0,2-4.3.59-7.03-1.67-3.23-4.7-4.24-8.34-2.79-1.45.58-9.62,1.18-18.14,1.33-8.52.16-14.71.07-13.75-.19.96-.26,1.75-.94,1.75-1.51s-.68-.78-1.5-.46c-.82.32-1.5.14-1.5-.39s.45-.97,1-.97,1-.45,1-1-.64-1-1.42-1-1.68-.56-2-1.25c-.32-.69-.42-.01-.22,1.5.29,2.17-.04,2.75-1.55,2.75-1.2,0-1.65-.43-1.21-1.16.45-.72.27-.88-.46-.43-1.61,1-.43,2.59,1.92,2.59,1.07,0,1.94.46,1.94,1.02,0,.6-1.12.75-2.75.36-3.92-.94-4.03-1.06-3.5-3.87.32-1.65,1.06-2.45,2.12-2.27,1.21.2,1.71-.65,1.93-3.26.25-2.95-.21-3.9-2.76-5.79l-3.06-2.26-2.3,2.3M607.11,909.37c-1.45,1.74-.1,2.86,1.93,1.61,1.04-.64,1.14-1.2.36-1.98s-1.42-.67-2.29.37M628.99,910.84c0,.91-.27,2.78-.59,4.16-.46,2-.35,2.2.54,1,.88-1.18.98-.92.48,1.25-.36,1.57-.22,2.75.35,2.75,3.42,0,4.4-9.46,1.07-10.33-1.24-.32-1.85.06-1.85,1.17M459,911.39c0,.95,2.99,1.43,3.53.56.32-.53-.34-.96-1.47-.96s-2.06.18-2.06.39M578,914.06c0,.58.45.78,1,.44s1-.82,1-1.06-.45-.44-1-.44-1,.48-1,1.06M647.46,915.06c-.66,1.08,1.06,2.89,2.79,2.92,1.23.03.85-1.66-.66-2.91-1.07-.89-1.58-.89-2.13-.01M606.54,915.93c-.32.51-.12,1.21.44,1.56.56.35,1.02-.07,1.02-.93,0-1.76-.6-2.02-1.46-.63M481,917c0,.55.48,1,1.06,1s.78-.45.44-1-.82-1-1.06-1-.44.45-.44,1M619,918.94c0,1.13.45,2.06,1,2.06s1-.65,1-1.44-.45-1.72-1-2.06-1,.31-1,1.44M465.5,920c-.34.55.11,1,1,1s1.34-.45,1-1-.79-1-1-1-.66.45-1,1M572.5,920c-.34.55-.14,1,.44,1s1.06-.45,1.06-1-.2-1-.44-1-.72.45-1.06,1M607,921.73c0,3.81,1.54,5.13,2.36,2.02.35-1.33-.01-2.83-.89-3.7-1.29-1.29-1.47-1.09-1.47,1.68M636.08,920.58c.05,1.16.29,1.4.6.6.29-.72.25-1.58-.08-1.92-.33-.33-.57.26-.53,1.31M600.07,921.63c-.09,2.79,2.4,4.82,4.67,3.81,1.58-.71,1.55-.83-.36-1.16-1.17-.21-2.6-1.36-3.18-2.57l-1.06-2.2-.07,2.13M274,922c0,.55.45,1,1,1s1-.45,1-1-.45-1-1-1-1,.45-1,1M648,922c0,.55.67,1,1.5,1s1.5-.45,1.5-1-.67-1-1.5-1-1.5.45-1.5,1M225,922.93c0,.51-.83,1.2-1.85,1.52-1.02.32-2.37,1.72-3,3.11-1.51,3.31-1.45,3.76.35,3.07.82-.32,1.5-.09,1.5.5,0,.63-.98.83-2.37.48-2.14-.54-2.46-.18-3.2,3.64-1.42,7.31-1.36,10.4.2,10.4,1.97,0,7.99-8.64,9.29-13.31,1.35-4.86,1.39-10.35.08-10.35-.55,0-1,.42-1,.93M569.51,924.02c.35.56,1.05.76,1.56.44,1.39-.86,1.13-1.46-.63-1.46-.86,0-1.28.46-.93,1.02M629,923.94c0,.52.45,1.22,1,1.56s1-.08,1-.94-.45-1.56-1-1.56-1,.42-1,.94M639.5,924c-.8,1.29.28,3.02,1.81,2.92.92-.06.92-.19,0-.57-.66-.27-.95-1.13-.64-1.92.63-1.63-.23-1.95-1.16-.43M634.16,928c0,1.38.23,1.94.5,1.25.28-.69.28-1.81,0-2.5-.28-.69-.5-.12-.5,1.25M613.21,929.69c-1.91.93-3.17,2.23-3,3.1.39,1.96,3.48,3.88,4.5,2.79.44-.47.24-1.05-.45-1.3-1.76-.63-1.56-3.28.25-3.28.83,0,1.5.89,1.5,2s.45,2,1,2c1.1,0,1.14-1.34.15-4.71-.63-2.14-.75-2.16-3.95-.6M467.65,931.75c-.26.41.62.75,1.94.75s2.4-.34,2.4-.75-.87-.75-1.94-.75-2.15.34-2.4.75M592,933c0,.55.45,1,1,1s1-.45,1-1-.45-1-1-1-1,.45-1,1M636.62,932.8c-.27.44-.08,1.45.43,2.25.72,1.13.92.96.93-.8.02-2.31-.49-2.86-1.36-1.45M453.5,934c-.87,1.41-.7,1.55,3,2.44,1.65.4,2.77.57,2.5.38-.27-.19-1.47-1.15-2.65-2.15-1.5-1.26-2.36-1.46-2.85-.67M627.08,935.25c-.97,2.56-.7,3.25.87,2.28.59-.37.83-1.08.51-1.59-.31-.51.13-.65.98-.32,1.01.39,1.55.03,1.55-1.01,0-2.41-2.94-1.93-3.92.64M645,934c0,.55.45,1,1,1s1-.45,1-1-.45-1-1-1-1,.45-1,1M277.5,935c.34.55.82,1,1.06,1s.44-.45.44-1-.48-1-1.06-1-.78.45-.44,1M470.87,935.69c-.93,1.15-.97,1.45-.12.94.85-.51,1.25-.04,1.25,1.47,0,2.76.51,2.25,1.38-1.36.74-3.1-.44-3.6-2.51-1.06M590,936c0,.55.45,1,1,1s1-.45,1-1-.45-1-1-1-1,.45-1,1M603.71,936.99c.29,1.09.9,1.75,1.36,1.47.98-.61.09-3.46-1.08-3.46-.44,0-.57.9-.28,1.99M631.73,935.6c-.4.4-.73,1.42-.73,2.26,0,1.12.3,1.24,1.11.42.61-.61.94-1.63.73-2.26-.21-.63-.71-.82-1.11-.42M243,937c0,.55.48,1,1.06,1s.78-.45.44-1-.82-1-1.06-1-.44.45-.44,1M461.46,937.07c-.36.59-.33,1.37.08,1.75.4.38.94.12,1.18-.57.25-.69.83-1.02,1.29-.73s1.13.07,1.47-.49c.35-.56-.27-1.02-1.37-1.02s-2.3.48-2.66,1.07M479.02,937.75c0,1.24.43,2.25.98,2.25,1.25,0,1.25-1.06,0-3-.78-1.21-.97-1.07-.98.75M610.02,938.75c0,1.24.43,2.25.98,2.25,1.25,0,1.25-1.06,0-3-.78-1.21-.97-1.07-.98.75M637.5,938c.34.55.82,1,1.06,1s.44-.45.44-1-.48-1-1.06-1-.78.45-.44,1M617.81,938.91c-1.43.51-1.47.85-.31,2.43,1.92,2.62,4.44,1.85,3.03-.93-.69-1.36-1.65-1.89-2.72-1.5M640.5,939c.34.55,1.07,1,1.62,1s.72-.45.38-1-1.07-1-1.62-1-.72.45-.38,1M242.57,939.95c-1.31.48-1.56.93-.76,1.43.65.4,1.91.31,2.81-.19,2.11-1.18.48-2.16-2.05-1.24M273,940c0,.55.45,1,1,1s1-.45,1-1-.45-1-1-1-1,.45-1,1M627.7,943.06c-.44,1.69-.28,1.85.88.88,1.59-1.32,1.89-2.93.54-2.93-.49,0-1.13.93-1.42,2.06M159.35,944.25c-.37.6-.18.77.43.39.6-.37,1.37-.21,1.71.35.77,1.25,2.51,1.34,2.51.13,0-1.35-3.91-2.08-4.65-.87M268.81,943.68c.72.29,1.58.25,1.92-.08.33-.33-.26-.57-1.31-.53-1.16.05-1.4.29-.6.6M453.5,944c.34.55,1.07,1,1.62,1s.72-.45.38-1-1.07-1-1.62-1-.72.45-.38,1M616.08,944.58c.05,1.16.29,1.4.6.6.29-.72.25-1.58-.08-1.92-.33-.33-.57.26-.53,1.31M603,946.22c0,2.84,1.45,4.48,2.49,2.8.34-.56-.07-2.02-.93-3.24l-1.56-2.22v2.66M456.58,946.87c-.3.48.35,1.67,1.44,2.65,1.92,1.74,1.98,1.72,1.98-.87s-2.22-3.73-3.42-1.79M630.67,946.67c-1.24,1.24-.67,2.21,1.22,2.07,1.1-.08,1.68-.68,1.39-1.44-.54-1.42-1.58-1.67-2.62-.63M481.42,949.25c0,2.61,3.44,5.91,5.44,5.21.97-.34,1.21.16.85,1.78-.28,1.24-.14,3.16.32,4.26.95,2.27.96,2.23,1.32-6.25.15-3.44-.1-6.25-.54-6.25s-.81.87-.81,1.94-.47,2.23-1.04,2.59c-1.46.9-3.96-1.4-3.96-3.65,0-1.03-.35-1.88-.79-1.88s-.79,1.01-.79,2.25M313.25,950.25c.23.69,1.26,1.41,2.3,1.61,1.63.32,1.71.15.55-1.25-1.59-1.91-3.44-2.15-2.85-.36M472,951.94c0,1.13.45,2.06,1,2.06s1-.65,1-1.44-.45-1.72-1-2.06-1,.31-1,1.44M485.5,951c-.34.55-.14,1,.44,1s1.06-.45,1.06-1-.2-1-.44-1-.72.45-1.06,1M641,951c0,.55.48,1,1.06,1s.78-.45.44-1-.82-1-1.06-1-.44.45-.44,1M456,952c0,.55.48,1,1.06,1s.78-.45.44-1-.82-1-1.06-1-.44.45-.44,1M494,951.94c0,.52.45,1.22,1,1.56s1-.08,1-.94-.45-1.56-1-1.56-1,.42-1,.94M491.07,953.25c.04.69.44,2.15.89,3.25.75,1.84.88,1.86,1.54.25.39-.96.45-2.42.14-3.25-.7-1.81-2.67-2.01-2.57-.25M626.33,953.59c0,.77.6,1.41,1.33,1.41s1.33-.4,1.33-.89-.6-1.12-1.33-1.4c-.73-.28-1.33.12-1.33.89M265.68,953.71c-.3.49-.18,1.47.26,2.19.61.99.99,1.02,1.55.11.41-.66.29-1.64-.26-2.19-.56-.56-1.24-.61-1.55-.11M464,954.07c0,.63-.86.79-2.1.4-2.04-.65-2.05-.62-.25,1.21,1.32,1.34,1.94,1.51,2.17.6.18-.7,1.19-1.28,2.25-1.28s1.93-.45,1.93-1-.9-1-2-1-2,.48-2,1.07M588.5,954c.34.55,1.04,1,1.56,1s.94-.45.94-1-.7-1-1.56-1-1.28.45-.94,1M623.5,954c.34.55.82,1,1.06,1s.44-.45.44-1-.48-1-1.06-1-.78.45-.44,1M210,955c0,.55.45,1,1,1s1-.45,1-1-.45-1-1-1-1,.45-1,1M213.76,955.79c-.25.97.14,2.33.89,3.03,1.11,1.04,1.35.82,1.35-1.22,0-2.99-1.59-4.28-2.24-1.81M180,956.06c0,.58.45.78,1,.44s1-.82,1-1.06-.45-.44-1-.44-1,.48-1,1.06M300.94,957.66c-1.39,3.66.09,4.93,3.81,3.29,2.27-1.01,2.81-1.8,2.46-3.62-.66-3.43-4.93-3.2-6.28.33M481.5,957c.34.55.82,1,1.06,1s.44-.45.44-1-.48-1-1.06-1-.78.45-.44,1M497.72,956.64c-.33.54.72,2.22,2.34,3.75,3.52,3.32,3.86,2.27.6-1.81-1.28-1.6-2.61-2.48-2.94-1.94M584.19,957.08c.2.59.78,1.08,1.31,1.08s1.11-.48,1.31-1.08c.2-.59-.39-1.08-1.31-1.08s-1.51.48-1.31,1.08M588.78,957.74c-.41,1.58-.05,2.36,1.33,2.79,1.04.33,1.9,1.09,1.9,1.68,0,.72-1.99.87-5.96.45-5.81-.61-5.94-.57-5.15,1.56.89,2.4,3.11,3.65,3.11,1.75,0-.83,1.09-.99,3.52-.53,2.57.48,3.96.23,5.12-.94,1.47-1.47,1.44-1.78-.39-3.8-1.1-1.21-2.2-2.86-2.45-3.67-.32-1.03-.62-.82-1.02.72M609,957.77c0,.61-1.06.91-2.39.67-3.06-.56-4.59,2.49-1.64,3.27,1.18.31,1.88,1.25,1.75,2.35-.12,1.01.16,1.83.62,1.82.46,0,1.4.76,2.08,1.69,1.28,1.75,5.58,1.27,5.58-.62,0-.51.96-.93,2.12-.93,1.77,0,1.92-.25.88-1.5-.68-.83-1.75-1.5-2.37-1.51-.62,0-2.36-.65-3.88-1.44-1.81-.95-2.75-1.06-2.75-.33,0,.61-.29.82-.64.46-.35-.35-.06-1.34.64-2.19s1-1.84.64-2.19c-.35-.35-.64-.15-.64.46M221.5,959c.34.55.82,1,1.06,1s.44-.45.44-1-.48-1-1.06-1-.78.45-.44,1M278,960.35c1.38.73,2.71,1.14,2.97.93.7-.58-2.25-2.25-3.97-2.25-.83,0-.38.59,1,1.32M288.02,959.63c.03,1.72,1.73,3.6,2.35,2.59.34-.55-.06-1.55-.88-2.23-.82-.68-1.48-.84-1.47-.36M295,959.39c0,.22.67.65,1.5.97.83.32,1.5.14,1.5-.39s-.67-.97-1.5-.97-1.5.18-1.5.39M175,961.44c0,.86.45,1.56,1,1.56s1-.42,1-.94-.45-1.22-1-1.56-1,.08-1,.94M269.62,961.54c-.96,2.51-.68,3.16.5,1.14.58-1,.85-2.04.59-2.29-.26-.26-.75.26-1.09,1.16M493.25,961.18c.25.72,1.2,1.19,2.11,1.02,1.92-.34,2.24,1.39.4,2.14-.94.38-.88.77.25,1.57,3.73,2.64,5.25.45,2.25-3.25-1.99-2.46-5.73-3.56-5-1.48M634.44,961.53c1.07.81,2.39,1.47,2.94,1.47s.13-.66-.94-1.47c-1.07-.81-2.39-1.47-2.94-1.47s-.13.66.94,1.47M558.6,961.84c-.35.56-.14,1.32.45,1.69,1.54.95,2.53-.35,1.25-1.64-.72-.72-1.28-.73-1.7-.05M600,962.06c0,.58.45.78,1,.44s1-.82,1-1.06-.45-.44-1-.44-1,.48-1,1.06M627.57,961.76c-.3.3.64,1.16,2.09,1.91,2.7,1.4,3.99,1.19,2.95-.48-.72-1.16-4.3-2.17-5.04-1.43M284.25,963.22c-2.43,1.17-3.02,2.8-1,2.75,1.42-.04,4.75-2.37,4.75-3.33,0-.87-1.08-.71-3.75.58M473,963.57c0,1.07.59,1.38,1.86.98,1.07-.34,2.39.05,3.12.93,1.95,2.35,4.02,1.84,4.02-.98,0-1.38-.45-2.5-1-2.5s-1,.42-1,.93c0,.57-1.24.57-3.24,0-4.05-1.16-3.76-1.21-3.76.64M623.23,963.14c.34.9-.05,2.59-.86,3.75-1.37,1.95-1.32,2.11.63,2.11,1.3,0,1.85-.43,1.43-1.11-.38-.61-.11-1.47.6-1.91,1.01-.62.88-1.2-.57-2.64-1.53-1.52-1.75-1.56-1.24-.21M278.58,963.87c-.43.7-.51,1.54-.18,1.87.9.9,1.87-.42,1.39-1.87-.34-1.02-.57-1.02-1.2,0M504,964c0,.55.42,1,.94,1s1.22-.45,1.56-1-.08-1-.94-1-1.56.45-1.56,1M603,963.95c0,.69-1.42.84-4,.43-2.2-.35-4-.35-4,0s1.01,2.21,2.25,4.12c2.49,3.84,6.66,4.73,9.39,2.01,1.69-1.69,1.02-3.51-1.3-3.51-.95,0-1.33-.57-.98-1.47.31-.81.13-1.73-.39-2.06-.53-.33-.96-.11-.96.48M569.67,964.66c-.76.76,1.14,3.34,2.45,3.34.48,0,.88-.9.88-2,0-1.92-1.96-2.71-3.33-1.34M611.34,965.54c-.93,2.43.16,2.66,2.15.46,1.66-1.83,1.67-2.01.13-2.01-.93,0-1.95.69-2.28,1.54M205.5,966c.34.55.82,1,1.06,1s.44-.45.44-1-.48-1-1.06-1-.78.45-.44,1M488.67,965.67c-1.08,1.08-.77,2.08.83,2.7,1.02.39,1.5-.05,1.5-1.39,0-1.96-1.07-2.56-2.33-1.3M575,966c0,.55.45,1,1,1s1-.45,1-1-.45-1-1-1-1,.45-1,1M212.81,966.68c.72.29,1.58.25,1.92-.08.33-.33-.26-.57-1.31-.53-1.17.05-1.4.29-.6.6M549.81,966.68c.72.29,1.58.25,1.92-.08.33-.33-.26-.57-1.31-.53-1.16.05-1.4.29-.6.6M629.5,967c.34.55.82,1,1.06,1s.44-.45.44-1-.48-1-1.06-1-.78.45-.44,1M475.5,968c.34.55,1.6.97,2.81.93,2.11-.07,2.12-.1.19-.93-2.75-1.18-3.73-1.18-3,0M513,967.97c0,.48.25,1.53.57,2.34.5,1.29.93,1.29,3.56-.02,1.65-.82,2.79-1.7,2.54-1.95-.9-.9-6.67-1.22-6.67-.37M266,969c0,.55.45,1,1,1s1-.45,1-1-.45-1-1-1-1,.45-1,1M276.5,969c.34.55.82,1,1.06,1s.44-.45.44-1-.48-1-1.06-1-.78.45-.44,1M495.5,969c.34.55.82,1,1.06,1s.44-.45.44-1-.48-1-1.06-1-.78.45-.44,1M535.53,969.29c-.43.99-.5,2.07-.16,2.42,1.02,1.01,1.84-.41,1.37-2.38-.41-1.75-.47-1.75-1.21-.03M553,970c0,1.87.27,2.13,1.2,1.2s.93-1.47,0-2.4-1.2-.67-1.2,1.2M577.16,970c0,1.38.23,1.94.5,1.25.28-.69.28-1.81,0-2.5-.28-.69-.5-.12-.5,1.25M585.25,968.69c.96.25,1.75,1.1,1.75,1.88,0,1.03,1.27,1.43,4.5,1.43,3.83,0,4.5-.3,4.5-2,0-2.4-1.27-2.58-3.05-.44-1.18,1.42-1.38,1.42-2.17,0-.54-.96-2.12-1.52-4.08-1.45-1.76.06-2.41.32-1.45.57M220.08,970.41c-2.33,1.29-2.27,1.34,1.68,1.23,3.19-.08,3.87-.39,3.05-1.38-1.29-1.56-1.68-1.54-4.73.14M509.58,969.87c-.43.7-.51,1.54-.18,1.87.9.9,1.87-.42,1.39-1.87-.34-1.02-.57-1.02-1.2,0M579,970.5c0,.83.44,1.5.97,1.5s.71-.67.39-1.5c-.32-.83-.75-1.5-.97-1.5s-.39.67-.39,1.5M633.64,970.5c-.32.83-.14,1.5.39,1.5s.97-.67.97-1.5-.18-1.5-.39-1.5-.65.67-.97,1.5M304,971c0,.55.45,1,1,1s1-.45,1-1-.45-1-1-1-1,.45-1,1M542,971c0,.55.45,1,1,1s1-.45,1-1-.45-1-1-1-1,.45-1,1M564,971c0,.55,1.15,1,2.56,1s2.29-.43,1.94-1c-.34-.55-1.49-1-2.56-1s-1.94.45-1.94,1M613.81,971.68c.72.29,1.58.25,1.92-.08.33-.33-.26-.57-1.31-.53-1.16.05-1.4.29-.6.6"/>
</svg>