<svg width="472" height="641" viewBox="0 0 472 641" fill="none" xmlns="http://www.w3.org/2000/svg">
<path d="M458.787 129.45C465.967 139.216 477.098 138.306 468.352 153.812C466.413 157.254 463.728 160.725 461.418 164.898C456.896 173.031 442.245 181.215 451.946 187.042C456.15 189.567 459.115 194.689 457.822 199.42C456.637 203.753 455.417 207.742 450.698 211.738C447.977 214.042 448.852 219.327 452.391 219.753C452.718 219.792 453.045 219.831 453.372 219.871C454.344 219.988 455.12 220.736 455.272 221.704C455.462 222.911 454.627 224.04 453.417 224.211C451.446 224.49 449.475 224.769 447.504 225.048C443.773 225.576 441.018 228.817 443.106 231.954C448.161 239.543 461.053 247.381 461.297 253.532C461.834 266.602 456.046 300.685 450.219 313.448C447.424 319.57 455.656 319.954 441.671 323.667C439.467 324.252 438.759 327.066 440.471 328.572C440.886 328.937 441.399 329.172 441.947 329.246C443.479 329.456 445.011 329.665 446.543 329.875C451.661 330.574 455.512 334.816 454.13 339.793C452.397 346.036 449.479 352.538 449.846 357.951C450.85 372.581 465.011 393.812 457.411 409.006C455.493 412.816 446.112 417.988 446.431 421.591C446.888 426.835 462.977 427.178 463.666 433.827C464.823 445.289 447.468 467.773 449.524 478.55C450.125 481.752 456.171 482.91 456.937 485.1C458.746 490.166 459.545 494.78 461.533 499.313C464.398 505.844 464.183 514.335 457.476 516.759C444.83 521.331 430.129 522.306 415.452 525.378C410.76 526.363 404.139 527.92 396.855 529.649C395.161 530.051 393.999 531.612 394.101 533.35L394.196 534.986C394.259 536.062 393.438 536.984 392.363 537.047C391.297 537.109 390.48 538.013 390.527 539.079C391.499 561.084 392.734 594.162 389.813 596.87C383.891 601.867 368.102 586.687 364.841 587.591C362.612 588.214 360.164 594.065 357.337 595.244C352.552 597.237 348.871 597.118 345.37 598.857C339.648 601.7 331.471 602.498 328.697 596.741C326.45 592.078 318.983 587.686 314.934 584.462C312.911 582.851 311.135 581.393 310.091 581.69C307.939 582.304 307.036 588.818 304.78 589.25C302.252 589.771 297.929 583.048 293.353 584.366C285.848 586.494 285.475 603.374 281.037 605.774C276.889 608.013 270.07 601.166 264.598 604.378C263.306 605.137 262.602 606.552 262.116 607.969C262.028 608.227 261.939 608.484 261.851 608.742C261.231 610.548 261.092 612.485 261.448 614.361C261.62 615.269 261.792 616.178 261.964 617.086C262.758 621.272 260.784 623.555 258.462 619.983C257.613 618.677 256.734 617.582 255.726 617.585C252.428 617.59 251.225 625.808 249.011 625.9C247.197 625.968 244.36 619.6 242.034 620.145C238.642 620.906 239.939 630.265 238.199 632.132C237.501 632.859 224.207 638.841 223.445 638.96C217.632 639.671 216.372 626.831 211.654 625.978C198.572 623.662 185.933 634.834 174.227 639.461C172.052 640.322 169.812 640.751 167.546 640.833C161.987 641.035 158.847 635.239 159.157 629.685C160.445 606.567 150.138 592.096 151.658 614.01C152.024 619.284 143.847 639.419 138.862 637.661C135.147 636.338 132.22 629.338 127.054 629.827C118.416 630.689 110.045 649.314 105.106 620.807C104.655 618.202 101.508 616.755 98.9243 617.316C98.6165 617.383 98.3374 617.392 98.0233 617.369L38.8236 613.017C32.7648 612.572 28.2143 607.299 28.6596 601.241L31.7234 559.56C31.795 558.586 31.7265 557.607 31.5925 556.639C30.6243 549.647 31.9311 543.733 12.043 541.713C8.96079 541.4 7.37274 539.529 9.8926 537.727C14.8548 534.178 24.6636 529.431 26.3765 527.136C28.6747 524.042 36.0708 500.905 36.3418 497.173C36.6122 493.443 36.7629 486.931 33.7375 483.979C30.5526 480.824 5.67634 479.791 22.1635 473.861C28.6986 471.51 31.3647 463.799 33.8033 457.296C34.4312 455.622 35.3546 453.78 36.5393 451.538C37.2851 450.125 43.108 449.629 43.0694 448.832C42.9735 447.189 38.499 444.644 37.8016 441.742C36.7218 437.231 47.4868 433.883 32.8632 434.908C31.0804 435.033 29.3004 434.453 27.9719 433.257C26.4024 431.845 24.8328 430.432 23.2632 429.02C21.8075 427.71 22.261 425.323 24.0956 424.638C25.0423 424.284 25.9889 423.931 26.9356 423.578C28.2345 423.093 28.2266 421.253 26.9236 420.779C25.3431 420.204 25.7994 417.574 27.4651 417.344C36.5332 416.087 33.5074 412.364 26.6146 411.124C22.7967 410.438 19.5042 404.871 21.9445 401.856C23.8415 399.512 25.7385 397.168 27.6354 394.824C28.8547 393.318 30.6902 392.434 32.6242 392.307C57.6922 390.672 33.287 379.485 17.1009 380.745C16.3106 380.807 15.6102 380.207 15.5914 379.415C15.5818 379.012 15.7624 378.625 16.0594 378.353C23.1173 371.898 16.4863 366.677 21.4403 358.997C25.956 351.997 28.8663 351.664 39.4146 349.462C41.5178 349.022 42.6027 346.688 41.5946 344.791C41.1259 343.908 40.2035 343.28 39.222 343.094C26.0687 340.605 26.4768 338.702 30.7801 336.603C40.0248 332.094 53.1003 306.794 46.1574 299.205C44.3819 297.264 42.4455 295.411 40.7659 293.736C39.8486 292.819 35.1033 293.079 33.5652 291.877C31.4582 290.201 32.3743 286.761 30.7357 284.323C28.9546 281.673 26.8286 276.991 29.4287 275.138C31.1842 273.887 31.1941 271.282 29.4482 270.018C27.8985 268.896 26.3488 267.773 24.799 266.651C24.4484 266.397 24.0206 266.273 23.5885 266.299C21.416 266.431 19.9075 261.394 20.7312 259.38C22.0557 256.141 20.901 253.098 22.9502 250.998C23.6988 250.246 30.2781 249.708 31.9478 247.409C34.9548 243.332 27.8369 236.281 22.7977 235.76C20.5286 235.525 18.2596 235.291 15.9906 235.056C13.0994 234.757 10.0692 232.533 12.3628 230.748C16.3103 227.675 26.7084 225.409 27.6622 223.01C27.8887 222.417 25.8891 211.953 25.4443 211.408C21.9118 206.948 5.5756 209.223 8.30554 195.567C8.80176 193.134 14.3678 190.865 14.4708 188.687C14.5157 187.769 13.7795 186.458 12.4699 184.99C8.75954 180.831 -2.97748 156.23 1.05295 152.38C2.31297 151.199 11.7856 150.396 13.6077 146.887C15.094 144.041 7.08319 137.404 8.15077 133.842C9.31954 130.06 17.213 128.272 17.6804 126.581C18.1124 124.984 11.594 123.914 11.5062 121.777C11.3418 115.099 21.3459 108.458 21.2299 103.179C21.2269 103.018 21.2247 102.856 21.2365 102.696L24.2946 61.0983C24.74 55.0396 30.0126 50.4891 36.0714 50.9344L64.7566 53.0429C65.2895 53.0821 65.8296 53.1035 66.3483 52.9752C71.9546 51.5889 76.4789 40.0661 80.8906 31.1168C82.6772 27.4925 85.5225 29.9175 89.5607 29.7737C110.117 29.1749 133.472 31.3339 154.294 34.2122C163.713 35.4948 187.954 58.7715 180.98 20.3573C180.611 18.3235 180.678 15.7673 182.686 15.2735C189.736 13.5388 209.036 25.4571 213.017 25.4531C217.623 25.4445 220.812 17.4949 224.414 17.1694C235.285 16.1968 243.28 21.3245 256.143 13.8137C259.464 11.8526 262.598 2.47342 264.632 2.45994C267.083 2.46709 270.229 11.1789 273.426 11.5577C281.042 12.39 294.927 8.65292 302.252 9.76447C303.591 9.98715 304.509 17.7446 306.541 20.0672C307.47 21.1333 308.403 22.0562 309.322 22.8146C315.875 28.2242 338.259 3.20698 346.663 1.9513C351.303 1.273 356.936 1.00971 363.015 0.812887L443.892 6.75848C449.95 7.20389 454.501 12.4765 454.055 18.5353L449.69 77.9264C450.273 95.94 450.276 117.869 458.787 129.45ZM121.053 621.802C121.119 604.446 110.656 619.477 115.437 628.513C116.514 630.547 121.037 626.307 121.053 621.802ZM118.136 50.1903C117.969 48.0897 115.226 47.4075 114.095 49.1851C113.735 49.7497 113.653 50.4474 113.871 51.0801C114.644 53.3206 115.416 55.5614 116.189 57.802C116.396 58.4011 117.006 58.762 117.631 58.6539C118.289 58.54 118.752 57.9436 118.699 57.2779C118.511 54.9154 118.324 52.5528 118.136 50.1903Z" fill="black"/>
</svg>
